<?xml version="1.0" encoding="utf-8" standalone="no"?>
<!DOCTYPE svg PUBLIC "-//W3C//DTD SVG 1.1//EN"
  "http://www.w3.org/Graphics/SVG/1.1/DTD/svg11.dtd">
<!-- Created with matplotlib (https://matplotlib.org/) -->
<svg height="365.293115pt" version="1.1" viewBox="0 0 424.010625 365.293115" width="424.010625pt" xmlns="http://www.w3.org/2000/svg" xmlns:xlink="http://www.w3.org/1999/xlink">
 <metadata>
  <rdf:RDF xmlns:cc="http://creativecommons.org/ns#" xmlns:dc="http://purl.org/dc/elements/1.1/" xmlns:rdf="http://www.w3.org/1999/02/22-rdf-syntax-ns#">
   <cc:Work>
    <dc:type rdf:resource="http://purl.org/dc/dcmitype/StillImage"/>
    <dc:date>2020-08-24T21:06:45.738090</dc:date>
    <dc:format>image/svg+xml</dc:format>
    <dc:creator>
     <cc:Agent>
      <dc:title>Matplotlib v3.3.1, https://matplotlib.org/</dc:title>
     </cc:Agent>
    </dc:creator>
   </cc:Work>
  </rdf:RDF>
 </metadata>
 <defs>
  <style type="text/css">*{stroke-linecap:butt;stroke-linejoin:round;}</style>
 </defs>
 <g id="figure_1">
  <g id="patch_1">
   <path d="M 0 365.293115 
L 424.010625 365.293115 
L 424.010625 0 
L 0 0 
z
" style="fill:#ffffff;"/>
  </g>
  <g id="axes_1">
   <g id="patch_2">
    <path d="M 59.690625 288.430125 
L 416.810625 288.430125 
L 416.810625 22.318125 
L 59.690625 22.318125 
z
" style="fill:#ffffff;"/>
   </g>
   <g id="PolyCollection_1">
    <defs>
     <path d="M 122.627699 -210.394868 
L 115.793551 -210.394868 
L 115.235144 -211.24568 
L 114.607373 -212.096491 
L 113.905624 -212.947303 
L 113.125656 -213.798114 
L 112.263741 -214.648925 
L 111.316801 -215.499737 
L 110.282546 -216.350548 
L 109.159621 -217.20136 
L 107.947735 -218.052171 
L 106.647788 -218.902982 
L 105.261976 -219.753794 
L 103.793886 -220.604605 
L 102.248554 -221.455417 
L 100.632503 -222.306228 
L 98.953747 -223.157039 
L 97.221757 -224.007851 
L 95.447389 -224.858662 
L 93.642782 -225.709474 
L 91.821204 -226.560285 
L 89.996869 -227.411096 
L 88.184726 -228.261908 
L 86.400202 -229.112719 
L 84.658933 -229.96353 
L 82.976472 -230.814342 
L 81.367981 -231.665153 
L 79.847924 -232.515965 
L 78.429761 -233.366776 
L 77.125656 -234.217587 
L 75.946199 -235.068399 
L 74.900167 -235.91921 
L 73.994314 -236.770022 
L 73.2332 -237.620833 
L 72.619078 -238.471644 
L 72.151826 -239.322456 
L 71.828936 -240.173267 
L 71.645563 -241.024079 
L 71.594625 -241.87489 
L 71.666969 -242.725701 
L 71.85158 -243.576513 
L 72.135843 -244.427324 
L 72.505847 -245.278136 
L 72.946727 -246.128947 
L 73.443027 -246.979758 
L 73.979084 -247.83057 
L 74.539424 -248.681381 
L 75.109149 -249.532193 
L 75.674313 -250.383004 
L 76.222278 -251.233815 
L 76.742031 -252.084627 
L 77.224462 -252.935438 
L 77.662588 -253.78625 
L 78.051719 -254.637061 
L 78.389563 -255.487872 
L 78.676257 -256.338684 
L 78.914338 -257.189495 
L 79.108633 -258.040307 
L 79.266093 -258.891118 
L 79.39556 -259.741929 
L 79.507479 -260.592741 
L 79.61357 -261.443552 
L 79.726451 -262.294363 
L 79.859251 -263.145175 
L 80.025199 -263.995986 
L 80.237222 -264.846798 
L 80.507551 -265.697609 
L 80.847356 -266.54842 
L 81.266413 -267.399232 
L 81.772826 -268.250043 
L 82.372795 -269.100855 
L 83.070453 -269.951666 
L 83.86776 -270.802477 
L 84.764472 -271.653289 
L 85.758171 -272.5041 
L 86.844357 -273.354912 
L 88.016598 -274.205723 
L 89.266731 -275.056534 
L 90.585109 -275.907346 
L 91.960868 -276.758157 
L 93.382231 -277.608969 
L 94.836811 -278.45978 
L 96.31192 -279.310591 
L 97.794875 -280.161403 
L 99.273273 -281.012214 
L 100.735253 -281.863026 
L 102.169721 -282.713837 
L 103.566539 -283.564648 
L 104.916676 -284.41546 
L 106.212322 -285.266271 
L 107.44695 -286.117083 
L 108.615357 -286.967894 
L 109.713648 -287.818705 
L 110.739208 -288.669517 
L 111.690627 -289.520328 
L 112.567617 -290.37114 
L 113.370903 -291.221951 
L 114.102099 -292.072762 
L 114.763584 -292.923574 
L 115.358367 -293.774385 
L 115.889961 -294.625197 
L 122.531289 -294.625197 
L 122.531289 -294.625197 
L 123.062883 -293.774385 
L 123.657666 -292.923574 
L 124.319151 -292.072762 
L 125.050347 -291.221951 
L 125.853633 -290.37114 
L 126.730623 -289.520328 
L 127.682042 -288.669517 
L 128.707602 -287.818705 
L 129.805893 -286.967894 
L 130.9743 -286.117083 
L 132.208928 -285.266271 
L 133.504574 -284.41546 
L 134.854711 -283.564648 
L 136.251529 -282.713837 
L 137.685997 -281.863026 
L 139.147977 -281.012214 
L 140.626375 -280.161403 
L 142.10933 -279.310591 
L 143.584439 -278.45978 
L 145.039019 -277.608969 
L 146.460382 -276.758157 
L 147.836141 -275.907346 
L 149.154519 -275.056534 
L 150.404652 -274.205723 
L 151.576893 -273.354912 
L 152.663079 -272.5041 
L 153.656778 -271.653289 
L 154.55349 -270.802477 
L 155.350797 -269.951666 
L 156.048455 -269.100855 
L 156.648424 -268.250043 
L 157.154837 -267.399232 
L 157.573894 -266.54842 
L 157.913699 -265.697609 
L 158.184028 -264.846798 
L 158.396051 -263.995986 
L 158.561999 -263.145175 
L 158.694799 -262.294363 
L 158.80768 -261.443552 
L 158.913771 -260.592741 
L 159.02569 -259.741929 
L 159.155157 -258.891118 
L 159.312617 -258.040307 
L 159.506912 -257.189495 
L 159.744993 -256.338684 
L 160.031687 -255.487872 
L 160.369531 -254.637061 
L 160.758662 -253.78625 
L 161.196788 -252.935438 
L 161.679219 -252.084627 
L 162.198972 -251.233815 
L 162.746937 -250.383004 
L 163.312101 -249.532193 
L 163.881826 -248.681381 
L 164.442166 -247.83057 
L 164.978223 -246.979758 
L 165.474523 -246.128947 
L 165.915403 -245.278136 
L 166.285407 -244.427324 
L 166.56967 -243.576513 
L 166.754281 -242.725701 
L 166.826625 -241.87489 
L 166.775687 -241.024079 
L 166.592314 -240.173267 
L 166.269424 -239.322456 
L 165.802172 -238.471644 
L 165.18805 -237.620833 
L 164.426936 -236.770022 
L 163.521083 -235.91921 
L 162.475051 -235.068399 
L 161.295594 -234.217587 
L 159.991489 -233.366776 
L 158.573326 -232.515965 
L 157.053269 -231.665153 
L 155.444778 -230.814342 
L 153.762317 -229.96353 
L 152.021048 -229.112719 
L 150.236524 -228.261908 
L 148.424381 -227.411096 
L 146.600046 -226.560285 
L 144.778468 -225.709474 
L 142.973861 -224.858662 
L 141.199493 -224.007851 
L 139.467503 -223.157039 
L 137.788747 -222.306228 
L 136.172696 -221.455417 
L 134.627364 -220.604605 
L 133.159274 -219.753794 
L 131.773462 -218.902982 
L 130.473515 -218.052171 
L 129.261629 -217.20136 
L 128.138704 -216.350548 
L 127.104449 -215.499737 
L 126.157509 -214.648925 
L 125.295594 -213.798114 
L 124.515626 -212.947303 
L 123.813877 -212.096491 
L 123.186106 -211.24568 
L 122.627699 -210.394868 
z
" id="mc0967b2750" style="stroke:#3f3f3f;stroke-width:1.5;"/>
    </defs>
    <g clip-path="url(#pb3f143889a)">
     <use style="fill:#e1812c;stroke:#3f3f3f;stroke-width:1.5;" x="0" xlink:href="#mc0967b2750" y="365.293115"/>
    </g>
   </g>
   <g id="PolyCollection_2">
    <defs>
     <path d="M 240.456197 -181.027214 
L 236.045053 -181.027214 
L 235.662733 -182.147613 
L 235.229077 -183.268011 
L 234.739994 -184.388409 
L 234.19155 -185.508808 
L 233.580063 -186.629206 
L 232.902204 -187.749604 
L 232.155104 -188.870003 
L 231.33647 -189.990401 
L 230.44469 -191.1108 
L 229.478945 -192.231198 
L 228.439316 -193.351596 
L 227.326871 -194.471995 
L 226.143755 -195.592393 
L 224.893251 -196.712791 
L 223.579829 -197.83319 
L 222.209169 -198.953588 
L 220.788167 -200.073987 
L 219.3249 -201.194385 
L 217.828573 -202.314783 
L 216.309433 -203.435182 
L 214.778652 -204.55558 
L 213.24818 -205.675979 
L 211.73057 -206.796377 
L 210.238778 -207.916775 
L 208.78594 -209.037174 
L 207.385133 -210.157572 
L 206.049121 -211.27797 
L 204.790096 -212.398369 
L 203.619419 -213.518767 
L 202.547374 -214.639166 
L 201.582928 -215.759564 
L 200.733524 -216.879962 
L 200.004899 -218.000361 
L 199.400945 -219.120759 
L 198.923607 -220.241158 
L 198.572833 -221.361556 
L 198.34658 -222.481954 
L 198.240866 -223.602353 
L 198.249882 -224.722751 
L 198.366148 -225.843149 
L 198.580727 -226.963548 
L 198.883468 -228.083946 
L 199.263294 -229.204345 
L 199.708509 -230.324743 
L 200.207118 -231.445141 
L 200.747161 -232.56554 
L 201.317027 -233.685938 
L 201.905766 -234.806337 
L 202.503358 -235.926735 
L 203.100959 -237.047133 
L 203.691096 -238.167532 
L 204.267816 -239.28793 
L 204.82678 -240.408328 
L 205.365305 -241.528727 
L 205.882348 -242.649125 
L 206.378439 -243.769524 
L 206.85557 -244.889922 
L 207.317034 -246.01032 
L 207.767234 -247.130719 
L 208.211465 -248.251117 
L 208.65567 -249.371516 
L 209.106192 -250.491914 
L 209.569522 -251.612312 
L 210.052054 -252.732711 
L 210.559849 -253.853109 
L 211.098424 -254.973507 
L 211.672566 -256.093906 
L 212.286176 -257.214304 
L 212.942147 -258.334703 
L 213.642274 -259.455101 
L 214.387208 -260.575499 
L 215.176441 -261.695898 
L 216.008326 -262.816296 
L 216.88013 -263.936695 
L 217.78812 -265.057093 
L 218.72767 -266.177491 
L 219.693392 -267.29789 
L 220.679278 -268.418288 
L 221.678863 -269.538686 
L 222.685385 -270.659085 
L 223.691947 -271.779483 
L 224.691682 -272.899882 
L 225.6779 -274.02028 
L 226.644229 -275.140678 
L 227.58474 -276.261077 
L 228.494048 -277.381475 
L 229.367398 -278.501874 
L 230.20073 -279.622272 
L 230.990718 -280.74267 
L 231.734788 -281.863069 
L 232.431122 -282.983467 
L 233.078634 -284.103865 
L 233.676933 -285.224264 
L 234.22628 -286.344662 
L 234.727517 -287.465061 
L 235.182004 -288.585459 
L 235.591539 -289.705857 
L 235.958284 -290.826256 
L 236.284683 -291.946654 
L 240.216567 -291.946654 
L 240.216567 -291.946654 
L 240.542966 -290.826256 
L 240.909711 -289.705857 
L 241.319246 -288.585459 
L 241.773733 -287.465061 
L 242.27497 -286.344662 
L 242.824317 -285.224264 
L 243.422616 -284.103865 
L 244.070128 -282.983467 
L 244.766462 -281.863069 
L 245.510532 -280.74267 
L 246.30052 -279.622272 
L 247.133852 -278.501874 
L 248.007202 -277.381475 
L 248.91651 -276.261077 
L 249.857021 -275.140678 
L 250.82335 -274.02028 
L 251.809568 -272.899882 
L 252.809303 -271.779483 
L 253.815865 -270.659085 
L 254.822387 -269.538686 
L 255.821972 -268.418288 
L 256.807858 -267.29789 
L 257.77358 -266.177491 
L 258.71313 -265.057093 
L 259.62112 -263.936695 
L 260.492924 -262.816296 
L 261.324809 -261.695898 
L 262.114042 -260.575499 
L 262.858976 -259.455101 
L 263.559103 -258.334703 
L 264.215074 -257.214304 
L 264.828684 -256.093906 
L 265.402826 -254.973507 
L 265.941401 -253.853109 
L 266.449196 -252.732711 
L 266.931728 -251.612312 
L 267.395058 -250.491914 
L 267.84558 -249.371516 
L 268.289785 -248.251117 
L 268.734016 -247.130719 
L 269.184216 -246.01032 
L 269.64568 -244.889922 
L 270.122811 -243.769524 
L 270.618902 -242.649125 
L 271.135945 -241.528727 
L 271.67447 -240.408328 
L 272.233434 -239.28793 
L 272.810154 -238.167532 
L 273.400291 -237.047133 
L 273.997892 -235.926735 
L 274.595484 -234.806337 
L 275.184223 -233.685938 
L 275.754089 -232.56554 
L 276.294132 -231.445141 
L 276.792741 -230.324743 
L 277.237956 -229.204345 
L 277.617782 -228.083946 
L 277.920523 -226.963548 
L 278.135102 -225.843149 
L 278.251368 -224.722751 
L 278.260384 -223.602353 
L 278.15467 -222.481954 
L 277.928417 -221.361556 
L 277.577643 -220.241158 
L 277.100305 -219.120759 
L 276.496351 -218.000361 
L 275.767726 -216.879962 
L 274.918322 -215.759564 
L 273.953876 -214.639166 
L 272.881831 -213.518767 
L 271.711154 -212.398369 
L 270.452129 -211.27797 
L 269.116117 -210.157572 
L 267.71531 -209.037174 
L 266.262472 -207.916775 
L 264.77068 -206.796377 
L 263.25307 -205.675979 
L 261.722598 -204.55558 
L 260.191817 -203.435182 
L 258.672677 -202.314783 
L 257.17635 -201.194385 
L 255.713083 -200.073987 
L 254.292081 -198.953588 
L 252.921421 -197.83319 
L 251.607999 -196.712791 
L 250.357495 -195.592393 
L 249.174379 -194.471995 
L 248.061934 -193.351596 
L 247.022305 -192.231198 
L 246.05656 -191.1108 
L 245.16478 -189.990401 
L 244.346146 -188.870003 
L 243.599046 -187.749604 
L 242.921187 -186.629206 
L 242.3097 -185.508808 
L 241.761256 -184.388409 
L 241.272173 -183.268011 
L 240.838517 -182.147613 
L 240.456197 -181.027214 
z
" id="mbada5f5fd4" style="stroke:#3f3f3f;stroke-width:1.5;"/>
    </defs>
    <g clip-path="url(#pb3f143889a)">
     <use style="fill:#b5c8e1;stroke:#3f3f3f;stroke-width:1.5;" x="0" xlink:href="#mbada5f5fd4" y="365.293115"/>
    </g>
   </g>
   <g id="PolyCollection_3">
    <defs>
     <path d="M 358.165443 -88.95899 
L 356.415807 -88.95899 
L 356.268495 -91.402627 
L 356.10369 -93.846263 
L 355.920724 -96.2899 
L 355.719165 -98.733536 
L 355.498857 -101.177172 
L 355.259958 -103.620809 
L 355.002964 -106.064445 
L 354.728734 -108.508081 
L 354.438493 -110.951718 
L 354.133827 -113.395354 
L 353.816662 -115.83899 
L 353.489224 -118.282627 
L 353.153981 -120.726263 
L 352.813577 -123.1699 
L 352.470738 -125.613536 
L 352.128173 -128.057172 
L 351.788465 -130.500809 
L 351.453954 -132.944445 
L 351.126621 -135.388081 
L 350.807971 -137.831718 
L 350.498937 -140.275354 
L 350.199788 -142.71899 
L 349.910067 -145.162627 
L 349.628556 -147.606263 
L 349.353262 -150.0499 
L 349.081454 -152.493536 
L 348.809717 -154.937172 
L 348.534057 -157.380809 
L 348.250035 -159.824445 
L 347.952928 -162.268081 
L 347.637925 -164.711718 
L 347.30033 -167.155354 
L 346.935793 -169.59899 
L 346.540526 -172.042627 
L 346.111524 -174.486263 
L 345.646763 -176.9299 
L 345.145376 -179.373536 
L 344.607784 -181.817172 
L 344.035797 -184.260809 
L 343.432652 -186.704445 
L 342.803011 -189.148081 
L 342.152892 -191.591718 
L 341.489552 -194.035354 
L 340.821323 -196.47899 
L 340.157391 -198.922627 
L 339.507549 -201.366263 
L 338.881915 -203.8099 
L 338.290637 -206.253536 
L 337.743595 -208.697172 
L 337.250103 -211.140809 
L 336.818641 -213.584445 
L 336.456612 -216.028081 
L 336.17014 -218.471718 
L 335.963914 -220.915354 
L 335.841097 -223.35899 
L 335.803274 -225.802627 
L 335.850468 -228.246263 
L 335.981206 -230.6899 
L 336.192634 -233.133536 
L 336.48067 -235.577172 
L 336.840191 -238.020809 
L 337.265244 -240.464445 
L 337.749265 -242.908081 
L 338.2853 -245.351718 
L 338.866216 -247.795354 
L 339.484899 -250.23899 
L 340.134423 -252.682627 
L 340.808189 -255.126263 
L 341.500035 -257.5699 
L 342.204309 -260.013536 
L 342.915912 -262.457172 
L 343.630308 -264.900809 
L 344.343507 -267.344445 
L 345.052034 -269.788081 
L 345.752873 -272.231718 
L 346.44341 -274.675354 
L 347.121367 -277.11899 
L 347.784739 -279.562627 
L 348.431738 -282.006263 
L 349.060745 -284.4499 
L 349.670276 -286.893536 
L 350.258951 -289.337172 
L 350.825489 -291.780809 
L 351.368704 -294.224445 
L 351.887513 -296.668081 
L 352.380952 -299.111718 
L 352.848199 -301.555354 
L 353.28859 -303.99899 
L 353.701647 -306.442627 
L 354.087093 -308.886263 
L 354.444867 -311.3299 
L 354.775133 -313.773536 
L 355.078277 -316.217172 
L 355.354908 -318.660809 
L 355.605841 -321.104445 
L 355.832079 -323.548081 
L 356.034791 -325.991718 
L 356.215284 -328.435354 
L 356.374972 -330.87899 
L 358.206278 -330.87899 
L 358.206278 -330.87899 
L 358.365966 -328.435354 
L 358.546459 -325.991718 
L 358.749171 -323.548081 
L 358.975409 -321.104445 
L 359.226342 -318.660809 
L 359.502973 -316.217172 
L 359.806117 -313.773536 
L 360.136383 -311.3299 
L 360.494157 -308.886263 
L 360.879603 -306.442627 
L 361.29266 -303.99899 
L 361.733051 -301.555354 
L 362.200298 -299.111718 
L 362.693737 -296.668081 
L 363.212546 -294.224445 
L 363.755761 -291.780809 
L 364.322299 -289.337172 
L 364.910974 -286.893536 
L 365.520505 -284.4499 
L 366.149512 -282.006263 
L 366.796511 -279.562627 
L 367.459883 -277.11899 
L 368.13784 -274.675354 
L 368.828377 -272.231718 
L 369.529216 -269.788081 
L 370.237743 -267.344445 
L 370.950942 -264.900809 
L 371.665338 -262.457172 
L 372.376941 -260.013536 
L 373.081215 -257.5699 
L 373.773061 -255.126263 
L 374.446827 -252.682627 
L 375.096351 -250.23899 
L 375.715034 -247.795354 
L 376.29595 -245.351718 
L 376.831985 -242.908081 
L 377.316006 -240.464445 
L 377.741059 -238.020809 
L 378.10058 -235.577172 
L 378.388616 -233.133536 
L 378.600044 -230.6899 
L 378.730782 -228.246263 
L 378.777976 -225.802627 
L 378.740153 -223.35899 
L 378.617336 -220.915354 
L 378.41111 -218.471718 
L 378.124638 -216.028081 
L 377.762609 -213.584445 
L 377.331147 -211.140809 
L 376.837655 -208.697172 
L 376.290613 -206.253536 
L 375.699335 -203.8099 
L 375.073701 -201.366263 
L 374.423859 -198.922627 
L 373.759927 -196.47899 
L 373.091698 -194.035354 
L 372.428358 -191.591718 
L 371.778239 -189.148081 
L 371.148598 -186.704445 
L 370.545453 -184.260809 
L 369.973466 -181.817172 
L 369.435874 -179.373536 
L 368.934487 -176.9299 
L 368.469726 -174.486263 
L 368.040724 -172.042627 
L 367.645457 -169.59899 
L 367.28092 -167.155354 
L 366.943325 -164.711718 
L 366.628322 -162.268081 
L 366.331215 -159.824445 
L 366.047193 -157.380809 
L 365.771533 -154.937172 
L 365.499796 -152.493536 
L 365.227988 -150.0499 
L 364.952694 -147.606263 
L 364.671183 -145.162627 
L 364.381462 -142.71899 
L 364.082313 -140.275354 
L 363.773279 -137.831718 
L 363.454629 -135.388081 
L 363.127296 -132.944445 
L 362.792785 -130.500809 
L 362.453077 -128.057172 
L 362.110512 -125.613536 
L 361.767673 -123.1699 
L 361.427269 -120.726263 
L 361.092026 -118.282627 
L 360.764588 -115.83899 
L 360.447423 -113.395354 
L 360.142757 -110.951718 
L 359.852516 -108.508081 
L 359.578286 -106.064445 
L 359.321292 -103.620809 
L 359.082393 -101.177172 
L 358.862085 -98.733536 
L 358.660526 -96.2899 
L 358.47756 -93.846263 
L 358.312755 -91.402627 
L 358.165443 -88.95899 
z
" id="md043aa1be4" style="stroke:#3f3f3f;stroke-width:1.5;"/>
    </defs>
    <g clip-path="url(#pb3f143889a)">
     <use style="fill:#3274a1;stroke:#3f3f3f;stroke-width:1.5;" x="0" xlink:href="#md043aa1be4" y="365.293115"/>
    </g>
   </g>
   <g id="matplotlib.axis_1">
    <g id="xtick_1">
     <g id="line2d_1">
      <defs>
       <path d="M 0 0 
L 0 3.5 
" id="m3522d40898" style="stroke:#000000;stroke-width:0.8;"/>
      </defs>
      <g>
       <use style="stroke:#000000;stroke-width:0.8;" x="119.210625" xlink:href="#m3522d40898" y="288.430125"/>
      </g>
     </g>
     <g id="text_1">
      <!-- power_schedule -->
      <g transform="translate(48.121818 342.373065)rotate(-30)scale(0.1 -0.1)">
       <defs>
        <path d="M 18.109375 8.203125 
L 18.109375 -20.796875 
L 9.078125 -20.796875 
L 9.078125 54.6875 
L 18.109375 54.6875 
L 18.109375 46.390625 
Q 20.953125 51.265625 25.265625 53.625 
Q 29.59375 56 35.59375 56 
Q 45.5625 56 51.78125 48.09375 
Q 58.015625 40.1875 58.015625 27.296875 
Q 58.015625 14.40625 51.78125 6.484375 
Q 45.5625 -1.421875 35.59375 -1.421875 
Q 29.59375 -1.421875 25.265625 0.953125 
Q 20.953125 3.328125 18.109375 8.203125 
z
M 48.6875 27.296875 
Q 48.6875 37.203125 44.609375 42.84375 
Q 40.53125 48.484375 33.40625 48.484375 
Q 26.265625 48.484375 22.1875 42.84375 
Q 18.109375 37.203125 18.109375 27.296875 
Q 18.109375 17.390625 22.1875 11.75 
Q 26.265625 6.109375 33.40625 6.109375 
Q 40.53125 6.109375 44.609375 11.75 
Q 48.6875 17.390625 48.6875 27.296875 
z
" id="DejaVuSans-112"/>
        <path d="M 30.609375 48.390625 
Q 23.390625 48.390625 19.1875 42.75 
Q 14.984375 37.109375 14.984375 27.296875 
Q 14.984375 17.484375 19.15625 11.84375 
Q 23.34375 6.203125 30.609375 6.203125 
Q 37.796875 6.203125 41.984375 11.859375 
Q 46.1875 17.53125 46.1875 27.296875 
Q 46.1875 37.015625 41.984375 42.703125 
Q 37.796875 48.390625 30.609375 48.390625 
z
M 30.609375 56 
Q 42.328125 56 49.015625 48.375 
Q 55.71875 40.765625 55.71875 27.296875 
Q 55.71875 13.875 49.015625 6.21875 
Q 42.328125 -1.421875 30.609375 -1.421875 
Q 18.84375 -1.421875 12.171875 6.21875 
Q 5.515625 13.875 5.515625 27.296875 
Q 5.515625 40.765625 12.171875 48.375 
Q 18.84375 56 30.609375 56 
z
" id="DejaVuSans-111"/>
        <path d="M 4.203125 54.6875 
L 13.1875 54.6875 
L 24.421875 12.015625 
L 35.59375 54.6875 
L 46.1875 54.6875 
L 57.421875 12.015625 
L 68.609375 54.6875 
L 77.59375 54.6875 
L 63.28125 0 
L 52.6875 0 
L 40.921875 44.828125 
L 29.109375 0 
L 18.5 0 
z
" id="DejaVuSans-119"/>
        <path d="M 56.203125 29.59375 
L 56.203125 25.203125 
L 14.890625 25.203125 
Q 15.484375 15.921875 20.484375 11.0625 
Q 25.484375 6.203125 34.421875 6.203125 
Q 39.59375 6.203125 44.453125 7.46875 
Q 49.3125 8.734375 54.109375 11.28125 
L 54.109375 2.78125 
Q 49.265625 0.734375 44.1875 -0.34375 
Q 39.109375 -1.421875 33.890625 -1.421875 
Q 20.796875 -1.421875 13.15625 6.1875 
Q 5.515625 13.8125 5.515625 26.8125 
Q 5.515625 40.234375 12.765625 48.109375 
Q 20.015625 56 32.328125 56 
Q 43.359375 56 49.78125 48.890625 
Q 56.203125 41.796875 56.203125 29.59375 
z
M 47.21875 32.234375 
Q 47.125 39.59375 43.09375 43.984375 
Q 39.0625 48.390625 32.421875 48.390625 
Q 24.90625 48.390625 20.390625 44.140625 
Q 15.875 39.890625 15.1875 32.171875 
z
" id="DejaVuSans-101"/>
        <path d="M 41.109375 46.296875 
Q 39.59375 47.171875 37.8125 47.578125 
Q 36.03125 48 33.890625 48 
Q 26.265625 48 22.1875 43.046875 
Q 18.109375 38.09375 18.109375 28.8125 
L 18.109375 0 
L 9.078125 0 
L 9.078125 54.6875 
L 18.109375 54.6875 
L 18.109375 46.1875 
Q 20.953125 51.171875 25.484375 53.578125 
Q 30.03125 56 36.53125 56 
Q 37.453125 56 38.578125 55.875 
Q 39.703125 55.765625 41.0625 55.515625 
z
" id="DejaVuSans-114"/>
        <path d="M 50.984375 -16.609375 
L 50.984375 -23.578125 
L -0.984375 -23.578125 
L -0.984375 -16.609375 
z
" id="DejaVuSans-95"/>
        <path d="M 44.28125 53.078125 
L 44.28125 44.578125 
Q 40.484375 46.53125 36.375 47.5 
Q 32.28125 48.484375 27.875 48.484375 
Q 21.1875 48.484375 17.84375 46.4375 
Q 14.5 44.390625 14.5 40.28125 
Q 14.5 37.15625 16.890625 35.375 
Q 19.28125 33.59375 26.515625 31.984375 
L 29.59375 31.296875 
Q 39.15625 29.25 43.1875 25.515625 
Q 47.21875 21.78125 47.21875 15.09375 
Q 47.21875 7.46875 41.1875 3.015625 
Q 35.15625 -1.421875 24.609375 -1.421875 
Q 20.21875 -1.421875 15.453125 -0.5625 
Q 10.6875 0.296875 5.421875 2 
L 5.421875 11.28125 
Q 10.40625 8.6875 15.234375 7.390625 
Q 20.0625 6.109375 24.8125 6.109375 
Q 31.15625 6.109375 34.5625 8.28125 
Q 37.984375 10.453125 37.984375 14.40625 
Q 37.984375 18.0625 35.515625 20.015625 
Q 33.0625 21.96875 24.703125 23.78125 
L 21.578125 24.515625 
Q 13.234375 26.265625 9.515625 29.90625 
Q 5.8125 33.546875 5.8125 39.890625 
Q 5.8125 47.609375 11.28125 51.796875 
Q 16.75 56 26.8125 56 
Q 31.78125 56 36.171875 55.265625 
Q 40.578125 54.546875 44.28125 53.078125 
z
" id="DejaVuSans-115"/>
        <path d="M 48.78125 52.59375 
L 48.78125 44.1875 
Q 44.96875 46.296875 41.140625 47.34375 
Q 37.3125 48.390625 33.40625 48.390625 
Q 24.65625 48.390625 19.8125 42.84375 
Q 14.984375 37.3125 14.984375 27.296875 
Q 14.984375 17.28125 19.8125 11.734375 
Q 24.65625 6.203125 33.40625 6.203125 
Q 37.3125 6.203125 41.140625 7.25 
Q 44.96875 8.296875 48.78125 10.40625 
L 48.78125 2.09375 
Q 45.015625 0.34375 40.984375 -0.53125 
Q 36.96875 -1.421875 32.421875 -1.421875 
Q 20.0625 -1.421875 12.78125 6.34375 
Q 5.515625 14.109375 5.515625 27.296875 
Q 5.515625 40.671875 12.859375 48.328125 
Q 20.21875 56 33.015625 56 
Q 37.15625 56 41.109375 55.140625 
Q 45.0625 54.296875 48.78125 52.59375 
z
" id="DejaVuSans-99"/>
        <path d="M 54.890625 33.015625 
L 54.890625 0 
L 45.90625 0 
L 45.90625 32.71875 
Q 45.90625 40.484375 42.875 44.328125 
Q 39.84375 48.1875 33.796875 48.1875 
Q 26.515625 48.1875 22.3125 43.546875 
Q 18.109375 38.921875 18.109375 30.90625 
L 18.109375 0 
L 9.078125 0 
L 9.078125 75.984375 
L 18.109375 75.984375 
L 18.109375 46.1875 
Q 21.34375 51.125 25.703125 53.5625 
Q 30.078125 56 35.796875 56 
Q 45.21875 56 50.046875 50.171875 
Q 54.890625 44.34375 54.890625 33.015625 
z
" id="DejaVuSans-104"/>
        <path d="M 45.40625 46.390625 
L 45.40625 75.984375 
L 54.390625 75.984375 
L 54.390625 0 
L 45.40625 0 
L 45.40625 8.203125 
Q 42.578125 3.328125 38.25 0.953125 
Q 33.9375 -1.421875 27.875 -1.421875 
Q 17.96875 -1.421875 11.734375 6.484375 
Q 5.515625 14.40625 5.515625 27.296875 
Q 5.515625 40.1875 11.734375 48.09375 
Q 17.96875 56 27.875 56 
Q 33.9375 56 38.25 53.625 
Q 42.578125 51.265625 45.40625 46.390625 
z
M 14.796875 27.296875 
Q 14.796875 17.390625 18.875 11.75 
Q 22.953125 6.109375 30.078125 6.109375 
Q 37.203125 6.109375 41.296875 11.75 
Q 45.40625 17.390625 45.40625 27.296875 
Q 45.40625 37.203125 41.296875 42.84375 
Q 37.203125 48.484375 30.078125 48.484375 
Q 22.953125 48.484375 18.875 42.84375 
Q 14.796875 37.203125 14.796875 27.296875 
z
" id="DejaVuSans-100"/>
        <path d="M 8.5 21.578125 
L 8.5 54.6875 
L 17.484375 54.6875 
L 17.484375 21.921875 
Q 17.484375 14.15625 20.5 10.265625 
Q 23.53125 6.390625 29.59375 6.390625 
Q 36.859375 6.390625 41.078125 11.03125 
Q 45.3125 15.671875 45.3125 23.6875 
L 45.3125 54.6875 
L 54.296875 54.6875 
L 54.296875 0 
L 45.3125 0 
L 45.3125 8.40625 
Q 42.046875 3.421875 37.71875 1 
Q 33.40625 -1.421875 27.6875 -1.421875 
Q 18.265625 -1.421875 13.375 4.4375 
Q 8.5 10.296875 8.5 21.578125 
z
M 31.109375 56 
z
" id="DejaVuSans-117"/>
        <path d="M 9.421875 75.984375 
L 18.40625 75.984375 
L 18.40625 0 
L 9.421875 0 
z
" id="DejaVuSans-108"/>
       </defs>
       <use xlink:href="#DejaVuSans-112"/>
       <use x="63.476562" xlink:href="#DejaVuSans-111"/>
       <use x="124.658203" xlink:href="#DejaVuSans-119"/>
       <use x="206.445312" xlink:href="#DejaVuSans-101"/>
       <use x="267.96875" xlink:href="#DejaVuSans-114"/>
       <use x="309.082031" xlink:href="#DejaVuSans-95"/>
       <use x="359.082031" xlink:href="#DejaVuSans-115"/>
       <use x="411.181641" xlink:href="#DejaVuSans-99"/>
       <use x="466.162109" xlink:href="#DejaVuSans-104"/>
       <use x="529.541016" xlink:href="#DejaVuSans-101"/>
       <use x="591.064453" xlink:href="#DejaVuSans-100"/>
       <use x="654.541016" xlink:href="#DejaVuSans-117"/>
       <use x="717.919922" xlink:href="#DejaVuSans-108"/>
       <use x="745.703125" xlink:href="#DejaVuSans-101"/>
      </g>
     </g>
    </g>
    <g id="xtick_2">
     <g id="line2d_2">
      <g>
       <use style="stroke:#000000;stroke-width:0.8;" x="238.250625" xlink:href="#m3522d40898" y="288.430125"/>
      </g>
     </g>
     <g id="text_2">
      <!-- dark -->
      <g transform="translate(217.830757 313.199627)rotate(-30)scale(0.1 -0.1)">
       <defs>
        <path d="M 34.28125 27.484375 
Q 23.390625 27.484375 19.1875 25 
Q 14.984375 22.515625 14.984375 16.5 
Q 14.984375 11.71875 18.140625 8.90625 
Q 21.296875 6.109375 26.703125 6.109375 
Q 34.1875 6.109375 38.703125 11.40625 
Q 43.21875 16.703125 43.21875 25.484375 
L 43.21875 27.484375 
z
M 52.203125 31.203125 
L 52.203125 0 
L 43.21875 0 
L 43.21875 8.296875 
Q 40.140625 3.328125 35.546875 0.953125 
Q 30.953125 -1.421875 24.3125 -1.421875 
Q 15.921875 -1.421875 10.953125 3.296875 
Q 6 8.015625 6 15.921875 
Q 6 25.140625 12.171875 29.828125 
Q 18.359375 34.515625 30.609375 34.515625 
L 43.21875 34.515625 
L 43.21875 35.40625 
Q 43.21875 41.609375 39.140625 45 
Q 35.0625 48.390625 27.6875 48.390625 
Q 23 48.390625 18.546875 47.265625 
Q 14.109375 46.140625 10.015625 43.890625 
L 10.015625 52.203125 
Q 14.9375 54.109375 19.578125 55.046875 
Q 24.21875 56 28.609375 56 
Q 40.484375 56 46.34375 49.84375 
Q 52.203125 43.703125 52.203125 31.203125 
z
" id="DejaVuSans-97"/>
        <path d="M 9.078125 75.984375 
L 18.109375 75.984375 
L 18.109375 31.109375 
L 44.921875 54.6875 
L 56.390625 54.6875 
L 27.390625 29.109375 
L 57.625 0 
L 45.90625 0 
L 18.109375 26.703125 
L 18.109375 0 
L 9.078125 0 
z
" id="DejaVuSans-107"/>
       </defs>
       <use xlink:href="#DejaVuSans-100"/>
       <use x="63.476562" xlink:href="#DejaVuSans-97"/>
       <use x="124.755859" xlink:href="#DejaVuSans-114"/>
       <use x="165.869141" xlink:href="#DejaVuSans-107"/>
      </g>
     </g>
    </g>
    <g id="xtick_3">
     <g id="line2d_3">
      <g>
       <use style="stroke:#000000;stroke-width:0.8;" x="357.290625" xlink:href="#m3522d40898" y="288.430125"/>
      </g>
     </g>
     <g id="text_3">
      <!-- afl -->
      <g transform="translate(345.489062 308.223846)rotate(-30)scale(0.1 -0.1)">
       <defs>
        <path d="M 37.109375 75.984375 
L 37.109375 68.5 
L 28.515625 68.5 
Q 23.6875 68.5 21.796875 66.546875 
Q 19.921875 64.59375 19.921875 59.515625 
L 19.921875 54.6875 
L 34.71875 54.6875 
L 34.71875 47.703125 
L 19.921875 47.703125 
L 19.921875 0 
L 10.890625 0 
L 10.890625 47.703125 
L 2.296875 47.703125 
L 2.296875 54.6875 
L 10.890625 54.6875 
L 10.890625 58.5 
Q 10.890625 67.625 15.140625 71.796875 
Q 19.390625 75.984375 28.609375 75.984375 
z
" id="DejaVuSans-102"/>
       </defs>
       <use xlink:href="#DejaVuSans-97"/>
       <use x="61.279297" xlink:href="#DejaVuSans-102"/>
       <use x="96.484375" xlink:href="#DejaVuSans-108"/>
      </g>
     </g>
    </g>
    <g id="text_4">
     <!-- Fuzzer (highest median coverage on the left) -->
     <g transform="translate(125.632656 356.013428)scale(0.1 -0.1)">
      <defs>
       <path d="M 9.8125 72.90625 
L 51.703125 72.90625 
L 51.703125 64.59375 
L 19.671875 64.59375 
L 19.671875 43.109375 
L 48.578125 43.109375 
L 48.578125 34.8125 
L 19.671875 34.8125 
L 19.671875 0 
L 9.8125 0 
z
" id="DejaVuSans-70"/>
       <path d="M 5.515625 54.6875 
L 48.1875 54.6875 
L 48.1875 46.484375 
L 14.40625 7.171875 
L 48.1875 7.171875 
L 48.1875 0 
L 4.296875 0 
L 4.296875 8.203125 
L 38.09375 47.515625 
L 5.515625 47.515625 
z
" id="DejaVuSans-122"/>
       <path id="DejaVuSans-32"/>
       <path d="M 31 75.875 
Q 24.46875 64.65625 21.28125 53.65625 
Q 18.109375 42.671875 18.109375 31.390625 
Q 18.109375 20.125 21.3125 9.0625 
Q 24.515625 -2 31 -13.1875 
L 23.1875 -13.1875 
Q 15.875 -1.703125 12.234375 9.375 
Q 8.59375 20.453125 8.59375 31.390625 
Q 8.59375 42.28125 12.203125 53.3125 
Q 15.828125 64.359375 23.1875 75.875 
z
" id="DejaVuSans-40"/>
       <path d="M 9.421875 54.6875 
L 18.40625 54.6875 
L 18.40625 0 
L 9.421875 0 
z
M 9.421875 75.984375 
L 18.40625 75.984375 
L 18.40625 64.59375 
L 9.421875 64.59375 
z
" id="DejaVuSans-105"/>
       <path d="M 45.40625 27.984375 
Q 45.40625 37.75 41.375 43.109375 
Q 37.359375 48.484375 30.078125 48.484375 
Q 22.859375 48.484375 18.828125 43.109375 
Q 14.796875 37.75 14.796875 27.984375 
Q 14.796875 18.265625 18.828125 12.890625 
Q 22.859375 7.515625 30.078125 7.515625 
Q 37.359375 7.515625 41.375 12.890625 
Q 45.40625 18.265625 45.40625 27.984375 
z
M 54.390625 6.78125 
Q 54.390625 -7.171875 48.1875 -13.984375 
Q 42 -20.796875 29.203125 -20.796875 
Q 24.46875 -20.796875 20.265625 -20.09375 
Q 16.0625 -19.390625 12.109375 -17.921875 
L 12.109375 -9.1875 
Q 16.0625 -11.328125 19.921875 -12.34375 
Q 23.78125 -13.375 27.78125 -13.375 
Q 36.625 -13.375 41.015625 -8.765625 
Q 45.40625 -4.15625 45.40625 5.171875 
L 45.40625 9.625 
Q 42.625 4.78125 38.28125 2.390625 
Q 33.9375 0 27.875 0 
Q 17.828125 0 11.671875 7.65625 
Q 5.515625 15.328125 5.515625 27.984375 
Q 5.515625 40.671875 11.671875 48.328125 
Q 17.828125 56 27.875 56 
Q 33.9375 56 38.28125 53.609375 
Q 42.625 51.21875 45.40625 46.390625 
L 45.40625 54.6875 
L 54.390625 54.6875 
z
" id="DejaVuSans-103"/>
       <path d="M 18.3125 70.21875 
L 18.3125 54.6875 
L 36.8125 54.6875 
L 36.8125 47.703125 
L 18.3125 47.703125 
L 18.3125 18.015625 
Q 18.3125 11.328125 20.140625 9.421875 
Q 21.96875 7.515625 27.59375 7.515625 
L 36.8125 7.515625 
L 36.8125 0 
L 27.59375 0 
Q 17.1875 0 13.234375 3.875 
Q 9.28125 7.765625 9.28125 18.015625 
L 9.28125 47.703125 
L 2.6875 47.703125 
L 2.6875 54.6875 
L 9.28125 54.6875 
L 9.28125 70.21875 
z
" id="DejaVuSans-116"/>
       <path d="M 52 44.1875 
Q 55.375 50.25 60.0625 53.125 
Q 64.75 56 71.09375 56 
Q 79.640625 56 84.28125 50.015625 
Q 88.921875 44.046875 88.921875 33.015625 
L 88.921875 0 
L 79.890625 0 
L 79.890625 32.71875 
Q 79.890625 40.578125 77.09375 44.375 
Q 74.3125 48.1875 68.609375 48.1875 
Q 61.625 48.1875 57.5625 43.546875 
Q 53.515625 38.921875 53.515625 30.90625 
L 53.515625 0 
L 44.484375 0 
L 44.484375 32.71875 
Q 44.484375 40.625 41.703125 44.40625 
Q 38.921875 48.1875 33.109375 48.1875 
Q 26.21875 48.1875 22.15625 43.53125 
Q 18.109375 38.875 18.109375 30.90625 
L 18.109375 0 
L 9.078125 0 
L 9.078125 54.6875 
L 18.109375 54.6875 
L 18.109375 46.1875 
Q 21.1875 51.21875 25.484375 53.609375 
Q 29.78125 56 35.6875 56 
Q 41.65625 56 45.828125 52.96875 
Q 50 49.953125 52 44.1875 
z
" id="DejaVuSans-109"/>
       <path d="M 54.890625 33.015625 
L 54.890625 0 
L 45.90625 0 
L 45.90625 32.71875 
Q 45.90625 40.484375 42.875 44.328125 
Q 39.84375 48.1875 33.796875 48.1875 
Q 26.515625 48.1875 22.3125 43.546875 
Q 18.109375 38.921875 18.109375 30.90625 
L 18.109375 0 
L 9.078125 0 
L 9.078125 54.6875 
L 18.109375 54.6875 
L 18.109375 46.1875 
Q 21.34375 51.125 25.703125 53.5625 
Q 30.078125 56 35.796875 56 
Q 45.21875 56 50.046875 50.171875 
Q 54.890625 44.34375 54.890625 33.015625 
z
" id="DejaVuSans-110"/>
       <path d="M 2.984375 54.6875 
L 12.5 54.6875 
L 29.59375 8.796875 
L 46.6875 54.6875 
L 56.203125 54.6875 
L 35.6875 0 
L 23.484375 0 
z
" id="DejaVuSans-118"/>
       <path d="M 8.015625 75.875 
L 15.828125 75.875 
Q 23.140625 64.359375 26.78125 53.3125 
Q 30.421875 42.28125 30.421875 31.390625 
Q 30.421875 20.453125 26.78125 9.375 
Q 23.140625 -1.703125 15.828125 -13.1875 
L 8.015625 -13.1875 
Q 14.5 -2 17.703125 9.0625 
Q 20.90625 20.125 20.90625 31.390625 
Q 20.90625 42.671875 17.703125 53.65625 
Q 14.5 64.65625 8.015625 75.875 
z
" id="DejaVuSans-41"/>
      </defs>
      <use xlink:href="#DejaVuSans-70"/>
      <use x="52.019531" xlink:href="#DejaVuSans-117"/>
      <use x="115.398438" xlink:href="#DejaVuSans-122"/>
      <use x="167.888672" xlink:href="#DejaVuSans-122"/>
      <use x="220.378906" xlink:href="#DejaVuSans-101"/>
      <use x="281.902344" xlink:href="#DejaVuSans-114"/>
      <use x="323.015625" xlink:href="#DejaVuSans-32"/>
      <use x="354.802734" xlink:href="#DejaVuSans-40"/>
      <use x="393.816406" xlink:href="#DejaVuSans-104"/>
      <use x="457.195312" xlink:href="#DejaVuSans-105"/>
      <use x="484.978516" xlink:href="#DejaVuSans-103"/>
      <use x="548.455078" xlink:href="#DejaVuSans-104"/>
      <use x="611.833984" xlink:href="#DejaVuSans-101"/>
      <use x="673.357422" xlink:href="#DejaVuSans-115"/>
      <use x="725.457031" xlink:href="#DejaVuSans-116"/>
      <use x="764.666016" xlink:href="#DejaVuSans-32"/>
      <use x="796.453125" xlink:href="#DejaVuSans-109"/>
      <use x="893.865234" xlink:href="#DejaVuSans-101"/>
      <use x="955.388672" xlink:href="#DejaVuSans-100"/>
      <use x="1018.865234" xlink:href="#DejaVuSans-105"/>
      <use x="1046.648438" xlink:href="#DejaVuSans-97"/>
      <use x="1107.927734" xlink:href="#DejaVuSans-110"/>
      <use x="1171.306641" xlink:href="#DejaVuSans-32"/>
      <use x="1203.09375" xlink:href="#DejaVuSans-99"/>
      <use x="1258.074219" xlink:href="#DejaVuSans-111"/>
      <use x="1319.255859" xlink:href="#DejaVuSans-118"/>
      <use x="1378.435547" xlink:href="#DejaVuSans-101"/>
      <use x="1439.958984" xlink:href="#DejaVuSans-114"/>
      <use x="1481.072266" xlink:href="#DejaVuSans-97"/>
      <use x="1542.351562" xlink:href="#DejaVuSans-103"/>
      <use x="1605.828125" xlink:href="#DejaVuSans-101"/>
      <use x="1667.351562" xlink:href="#DejaVuSans-32"/>
      <use x="1699.138672" xlink:href="#DejaVuSans-111"/>
      <use x="1760.320312" xlink:href="#DejaVuSans-110"/>
      <use x="1823.699219" xlink:href="#DejaVuSans-32"/>
      <use x="1855.486328" xlink:href="#DejaVuSans-116"/>
      <use x="1894.695312" xlink:href="#DejaVuSans-104"/>
      <use x="1958.074219" xlink:href="#DejaVuSans-101"/>
      <use x="2019.597656" xlink:href="#DejaVuSans-32"/>
      <use x="2051.384766" xlink:href="#DejaVuSans-108"/>
      <use x="2079.167969" xlink:href="#DejaVuSans-101"/>
      <use x="2140.691406" xlink:href="#DejaVuSans-102"/>
      <use x="2174.146484" xlink:href="#DejaVuSans-116"/>
      <use x="2213.355469" xlink:href="#DejaVuSans-41"/>
     </g>
    </g>
   </g>
   <g id="matplotlib.axis_2">
    <g id="ytick_1">
     <g id="line2d_4">
      <defs>
       <path d="M 0 0 
L -3.5 0 
" id="m64d555604f" style="stroke:#000000;stroke-width:0.8;"/>
      </defs>
      <g>
       <use style="stroke:#000000;stroke-width:0.8;" x="59.690625" xlink:href="#m64d555604f" y="271.209093"/>
      </g>
     </g>
     <g id="text_5">
      <!-- 14000 -->
      <g transform="translate(20.878125 275.008312)scale(0.1 -0.1)">
       <defs>
        <path d="M 12.40625 8.296875 
L 28.515625 8.296875 
L 28.515625 63.921875 
L 10.984375 60.40625 
L 10.984375 69.390625 
L 28.421875 72.90625 
L 38.28125 72.90625 
L 38.28125 8.296875 
L 54.390625 8.296875 
L 54.390625 0 
L 12.40625 0 
z
" id="DejaVuSans-49"/>
        <path d="M 37.796875 64.3125 
L 12.890625 25.390625 
L 37.796875 25.390625 
z
M 35.203125 72.90625 
L 47.609375 72.90625 
L 47.609375 25.390625 
L 58.015625 25.390625 
L 58.015625 17.1875 
L 47.609375 17.1875 
L 47.609375 0 
L 37.796875 0 
L 37.796875 17.1875 
L 4.890625 17.1875 
L 4.890625 26.703125 
z
" id="DejaVuSans-52"/>
        <path d="M 31.78125 66.40625 
Q 24.171875 66.40625 20.328125 58.90625 
Q 16.5 51.421875 16.5 36.375 
Q 16.5 21.390625 20.328125 13.890625 
Q 24.171875 6.390625 31.78125 6.390625 
Q 39.453125 6.390625 43.28125 13.890625 
Q 47.125 21.390625 47.125 36.375 
Q 47.125 51.421875 43.28125 58.90625 
Q 39.453125 66.40625 31.78125 66.40625 
z
M 31.78125 74.21875 
Q 44.046875 74.21875 50.515625 64.515625 
Q 56.984375 54.828125 56.984375 36.375 
Q 56.984375 17.96875 50.515625 8.265625 
Q 44.046875 -1.421875 31.78125 -1.421875 
Q 19.53125 -1.421875 13.0625 8.265625 
Q 6.59375 17.96875 6.59375 36.375 
Q 6.59375 54.828125 13.0625 64.515625 
Q 19.53125 74.21875 31.78125 74.21875 
z
" id="DejaVuSans-48"/>
       </defs>
       <use xlink:href="#DejaVuSans-49"/>
       <use x="63.623047" xlink:href="#DejaVuSans-52"/>
       <use x="127.246094" xlink:href="#DejaVuSans-48"/>
       <use x="190.869141" xlink:href="#DejaVuSans-48"/>
       <use x="254.492188" xlink:href="#DejaVuSans-48"/>
      </g>
     </g>
    </g>
    <g id="ytick_2">
     <g id="line2d_5">
      <g>
       <use style="stroke:#000000;stroke-width:0.8;" x="59.690625" xlink:href="#m64d555604f" y="239.542891"/>
      </g>
     </g>
     <g id="text_6">
      <!-- 14500 -->
      <g transform="translate(20.878125 243.342109)scale(0.1 -0.1)">
       <defs>
        <path d="M 10.796875 72.90625 
L 49.515625 72.90625 
L 49.515625 64.59375 
L 19.828125 64.59375 
L 19.828125 46.734375 
Q 21.96875 47.46875 24.109375 47.828125 
Q 26.265625 48.1875 28.421875 48.1875 
Q 40.625 48.1875 47.75 41.5 
Q 54.890625 34.8125 54.890625 23.390625 
Q 54.890625 11.625 47.5625 5.09375 
Q 40.234375 -1.421875 26.90625 -1.421875 
Q 22.3125 -1.421875 17.546875 -0.640625 
Q 12.796875 0.140625 7.71875 1.703125 
L 7.71875 11.625 
Q 12.109375 9.234375 16.796875 8.0625 
Q 21.484375 6.890625 26.703125 6.890625 
Q 35.15625 6.890625 40.078125 11.328125 
Q 45.015625 15.765625 45.015625 23.390625 
Q 45.015625 31 40.078125 35.4375 
Q 35.15625 39.890625 26.703125 39.890625 
Q 22.75 39.890625 18.8125 39.015625 
Q 14.890625 38.140625 10.796875 36.28125 
z
" id="DejaVuSans-53"/>
       </defs>
       <use xlink:href="#DejaVuSans-49"/>
       <use x="63.623047" xlink:href="#DejaVuSans-52"/>
       <use x="127.246094" xlink:href="#DejaVuSans-53"/>
       <use x="190.869141" xlink:href="#DejaVuSans-48"/>
       <use x="254.492188" xlink:href="#DejaVuSans-48"/>
      </g>
     </g>
    </g>
    <g id="ytick_3">
     <g id="line2d_6">
      <g>
       <use style="stroke:#000000;stroke-width:0.8;" x="59.690625" xlink:href="#m64d555604f" y="207.876688"/>
      </g>
     </g>
     <g id="text_7">
      <!-- 15000 -->
      <g transform="translate(20.878125 211.675907)scale(0.1 -0.1)">
       <use xlink:href="#DejaVuSans-49"/>
       <use x="63.623047" xlink:href="#DejaVuSans-53"/>
       <use x="127.246094" xlink:href="#DejaVuSans-48"/>
       <use x="190.869141" xlink:href="#DejaVuSans-48"/>
       <use x="254.492188" xlink:href="#DejaVuSans-48"/>
      </g>
     </g>
    </g>
    <g id="ytick_4">
     <g id="line2d_7">
      <g>
       <use style="stroke:#000000;stroke-width:0.8;" x="59.690625" xlink:href="#m64d555604f" y="176.210486"/>
      </g>
     </g>
     <g id="text_8">
      <!-- 15500 -->
      <g transform="translate(20.878125 180.009705)scale(0.1 -0.1)">
       <use xlink:href="#DejaVuSans-49"/>
       <use x="63.623047" xlink:href="#DejaVuSans-53"/>
       <use x="127.246094" xlink:href="#DejaVuSans-53"/>
       <use x="190.869141" xlink:href="#DejaVuSans-48"/>
       <use x="254.492188" xlink:href="#DejaVuSans-48"/>
      </g>
     </g>
    </g>
    <g id="ytick_5">
     <g id="line2d_8">
      <g>
       <use style="stroke:#000000;stroke-width:0.8;" x="59.690625" xlink:href="#m64d555604f" y="144.544284"/>
      </g>
     </g>
     <g id="text_9">
      <!-- 16000 -->
      <g transform="translate(20.878125 148.343503)scale(0.1 -0.1)">
       <defs>
        <path d="M 33.015625 40.375 
Q 26.375 40.375 22.484375 35.828125 
Q 18.609375 31.296875 18.609375 23.390625 
Q 18.609375 15.53125 22.484375 10.953125 
Q 26.375 6.390625 33.015625 6.390625 
Q 39.65625 6.390625 43.53125 10.953125 
Q 47.40625 15.53125 47.40625 23.390625 
Q 47.40625 31.296875 43.53125 35.828125 
Q 39.65625 40.375 33.015625 40.375 
z
M 52.59375 71.296875 
L 52.59375 62.3125 
Q 48.875 64.0625 45.09375 64.984375 
Q 41.3125 65.921875 37.59375 65.921875 
Q 27.828125 65.921875 22.671875 59.328125 
Q 17.53125 52.734375 16.796875 39.40625 
Q 19.671875 43.65625 24.015625 45.921875 
Q 28.375 48.1875 33.59375 48.1875 
Q 44.578125 48.1875 50.953125 41.515625 
Q 57.328125 34.859375 57.328125 23.390625 
Q 57.328125 12.15625 50.6875 5.359375 
Q 44.046875 -1.421875 33.015625 -1.421875 
Q 20.359375 -1.421875 13.671875 8.265625 
Q 6.984375 17.96875 6.984375 36.375 
Q 6.984375 53.65625 15.1875 63.9375 
Q 23.390625 74.21875 37.203125 74.21875 
Q 40.921875 74.21875 44.703125 73.484375 
Q 48.484375 72.75 52.59375 71.296875 
z
" id="DejaVuSans-54"/>
       </defs>
       <use xlink:href="#DejaVuSans-49"/>
       <use x="63.623047" xlink:href="#DejaVuSans-54"/>
       <use x="127.246094" xlink:href="#DejaVuSans-48"/>
       <use x="190.869141" xlink:href="#DejaVuSans-48"/>
       <use x="254.492188" xlink:href="#DejaVuSans-48"/>
      </g>
     </g>
    </g>
    <g id="ytick_6">
     <g id="line2d_9">
      <g>
       <use style="stroke:#000000;stroke-width:0.8;" x="59.690625" xlink:href="#m64d555604f" y="112.878082"/>
      </g>
     </g>
     <g id="text_10">
      <!-- 16500 -->
      <g transform="translate(20.878125 116.6773)scale(0.1 -0.1)">
       <use xlink:href="#DejaVuSans-49"/>
       <use x="63.623047" xlink:href="#DejaVuSans-54"/>
       <use x="127.246094" xlink:href="#DejaVuSans-53"/>
       <use x="190.869141" xlink:href="#DejaVuSans-48"/>
       <use x="254.492188" xlink:href="#DejaVuSans-48"/>
      </g>
     </g>
    </g>
    <g id="ytick_7">
     <g id="line2d_10">
      <g>
       <use style="stroke:#000000;stroke-width:0.8;" x="59.690625" xlink:href="#m64d555604f" y="81.211879"/>
      </g>
     </g>
     <g id="text_11">
      <!-- 17000 -->
      <g transform="translate(20.878125 85.011098)scale(0.1 -0.1)">
       <defs>
        <path d="M 8.203125 72.90625 
L 55.078125 72.90625 
L 55.078125 68.703125 
L 28.609375 0 
L 18.3125 0 
L 43.21875 64.59375 
L 8.203125 64.59375 
z
" id="DejaVuSans-55"/>
       </defs>
       <use xlink:href="#DejaVuSans-49"/>
       <use x="63.623047" xlink:href="#DejaVuSans-55"/>
       <use x="127.246094" xlink:href="#DejaVuSans-48"/>
       <use x="190.869141" xlink:href="#DejaVuSans-48"/>
       <use x="254.492188" xlink:href="#DejaVuSans-48"/>
      </g>
     </g>
    </g>
    <g id="ytick_8">
     <g id="line2d_11">
      <g>
       <use style="stroke:#000000;stroke-width:0.8;" x="59.690625" xlink:href="#m64d555604f" y="49.545677"/>
      </g>
     </g>
     <g id="text_12">
      <!-- 17500 -->
      <g transform="translate(20.878125 53.344896)scale(0.1 -0.1)">
       <use xlink:href="#DejaVuSans-49"/>
       <use x="63.623047" xlink:href="#DejaVuSans-55"/>
       <use x="127.246094" xlink:href="#DejaVuSans-53"/>
       <use x="190.869141" xlink:href="#DejaVuSans-48"/>
       <use x="254.492188" xlink:href="#DejaVuSans-48"/>
      </g>
     </g>
    </g>
    <g id="text_13">
     <!-- Reached edge coverage -->
     <g transform="translate(14.798438 215.82725)rotate(-90)scale(0.1 -0.1)">
      <defs>
       <path d="M 44.390625 34.1875 
Q 47.5625 33.109375 50.5625 29.59375 
Q 53.5625 26.078125 56.59375 19.921875 
L 66.609375 0 
L 56 0 
L 46.6875 18.703125 
Q 43.0625 26.03125 39.671875 28.421875 
Q 36.28125 30.8125 30.421875 30.8125 
L 19.671875 30.8125 
L 19.671875 0 
L 9.8125 0 
L 9.8125 72.90625 
L 32.078125 72.90625 
Q 44.578125 72.90625 50.734375 67.671875 
Q 56.890625 62.453125 56.890625 51.90625 
Q 56.890625 45.015625 53.6875 40.46875 
Q 50.484375 35.9375 44.390625 34.1875 
z
M 19.671875 64.796875 
L 19.671875 38.921875 
L 32.078125 38.921875 
Q 39.203125 38.921875 42.84375 42.21875 
Q 46.484375 45.515625 46.484375 51.90625 
Q 46.484375 58.296875 42.84375 61.546875 
Q 39.203125 64.796875 32.078125 64.796875 
z
" id="DejaVuSans-82"/>
      </defs>
      <use xlink:href="#DejaVuSans-82"/>
      <use x="64.982422" xlink:href="#DejaVuSans-101"/>
      <use x="126.505859" xlink:href="#DejaVuSans-97"/>
      <use x="187.785156" xlink:href="#DejaVuSans-99"/>
      <use x="242.765625" xlink:href="#DejaVuSans-104"/>
      <use x="306.144531" xlink:href="#DejaVuSans-101"/>
      <use x="367.667969" xlink:href="#DejaVuSans-100"/>
      <use x="431.144531" xlink:href="#DejaVuSans-32"/>
      <use x="462.931641" xlink:href="#DejaVuSans-101"/>
      <use x="524.455078" xlink:href="#DejaVuSans-100"/>
      <use x="587.931641" xlink:href="#DejaVuSans-103"/>
      <use x="651.408203" xlink:href="#DejaVuSans-101"/>
      <use x="712.931641" xlink:href="#DejaVuSans-32"/>
      <use x="744.71875" xlink:href="#DejaVuSans-99"/>
      <use x="799.699219" xlink:href="#DejaVuSans-111"/>
      <use x="860.880859" xlink:href="#DejaVuSans-118"/>
      <use x="920.060547" xlink:href="#DejaVuSans-101"/>
      <use x="981.583984" xlink:href="#DejaVuSans-114"/>
      <use x="1022.697266" xlink:href="#DejaVuSans-97"/>
      <use x="1083.976562" xlink:href="#DejaVuSans-103"/>
      <use x="1147.453125" xlink:href="#DejaVuSans-101"/>
     </g>
    </g>
   </g>
   <g id="line2d_12">
    <path clip-path="url(#pb3f143889a)" d="M 119.210625 131.054482 
L 119.210625 94.511684 
" style="fill:none;stroke:#3f3f3f;stroke-linecap:square;stroke-width:1.5;"/>
   </g>
   <g id="line2d_13">
    <path clip-path="url(#pb3f143889a)" d="M 119.210625 126.684546 
L 119.210625 98.691623 
" style="fill:none;stroke:#3f3f3f;stroke-linecap:square;stroke-width:4.5;"/>
   </g>
   <g id="line2d_14">
    <path clip-path="url(#pb3f143889a)" d="M 238.250625 154.424139 
L 238.250625 103.188224 
" style="fill:none;stroke:#3f3f3f;stroke-linecap:square;stroke-width:1.5;"/>
   </g>
   <g id="line2d_15">
    <path clip-path="url(#pb3f143889a)" d="M 238.250625 142.010988 
L 238.250625 117.754677 
" style="fill:none;stroke:#3f3f3f;stroke-linecap:square;stroke-width:4.5;"/>
   </g>
   <g id="line2d_16">
    <path clip-path="url(#pb3f143889a)" d="M 357.290625 152.777496 
L 357.290625 137.767717 
" style="fill:none;stroke:#3f3f3f;stroke-linecap:square;stroke-width:1.5;"/>
   </g>
   <g id="line2d_17">
    <path clip-path="url(#pb3f143889a)" d="M 357.290625 152.777496 
L 357.290625 137.767717 
" style="fill:none;stroke:#3f3f3f;stroke-linecap:square;stroke-width:4.5;"/>
   </g>
   <g id="patch_3">
    <path d="M 59.690625 271.209093 
L 59.690625 49.545677 
" style="fill:none;stroke:#000000;stroke-linecap:square;stroke-linejoin:miter;stroke-width:0.8;"/>
   </g>
   <g id="patch_4">
    <path d="M 119.210625 288.430125 
L 357.290625 288.430125 
" style="fill:none;stroke:#000000;stroke-linecap:square;stroke-linejoin:miter;stroke-width:0.8;"/>
   </g>
   <g id="PathCollection_1">
    <defs>
     <path d="M 0 1.5 
C 0.397805 1.5 0.77937 1.341951 1.06066 1.06066 
C 1.341951 0.77937 1.5 0.397805 1.5 0 
C 1.5 -0.397805 1.341951 -0.77937 1.06066 -1.06066 
C 0.77937 -1.341951 0.397805 -1.5 0 -1.5 
C -0.397805 -1.5 -0.77937 -1.341951 -1.06066 -1.06066 
C -1.341951 -0.77937 -1.5 -0.397805 -1.5 0 
C -1.5 0.397805 -1.341951 0.77937 -1.06066 1.06066 
C -0.77937 1.341951 -0.397805 1.5 0 1.5 
z
" id="m1c5f709d37" style="stroke:#3f3f3f;"/>
    </defs>
    <g clip-path="url(#pb3f143889a)">
     <use style="fill:#ffffff;stroke:#3f3f3f;" x="119.210625" xlink:href="#m1c5f709d37" y="118.071339"/>
    </g>
   </g>
   <g id="PathCollection_2">
    <g clip-path="url(#pb3f143889a)">
     <use style="fill:#ffffff;stroke:#3f3f3f;" x="238.250625" xlink:href="#m1c5f709d37" y="139.794353"/>
    </g>
   </g>
   <g id="PathCollection_3">
    <g clip-path="url(#pb3f143889a)">
     <use style="fill:#ffffff;stroke:#3f3f3f;" x="357.290625" xlink:href="#m1c5f709d37" y="141.694326"/>
    </g>
   </g>
   <g id="text_14">
    <!-- freetype2-2017 (22h, 5 trials/fuzzer) -->
    <g transform="translate(128.854688 16.318125)scale(0.12 -0.12)">
     <defs>
      <path d="M 32.171875 -5.078125 
Q 28.375 -14.84375 24.75 -17.8125 
Q 21.140625 -20.796875 15.09375 -20.796875 
L 7.90625 -20.796875 
L 7.90625 -13.28125 
L 13.1875 -13.28125 
Q 16.890625 -13.28125 18.9375 -11.515625 
Q 21 -9.765625 23.484375 -3.21875 
L 25.09375 0.875 
L 2.984375 54.6875 
L 12.5 54.6875 
L 29.59375 11.921875 
L 46.6875 54.6875 
L 56.203125 54.6875 
z
" id="DejaVuSans-121"/>
      <path d="M 19.1875 8.296875 
L 53.609375 8.296875 
L 53.609375 0 
L 7.328125 0 
L 7.328125 8.296875 
Q 12.9375 14.109375 22.625 23.890625 
Q 32.328125 33.6875 34.8125 36.53125 
Q 39.546875 41.84375 41.421875 45.53125 
Q 43.3125 49.21875 43.3125 52.78125 
Q 43.3125 58.59375 39.234375 62.25 
Q 35.15625 65.921875 28.609375 65.921875 
Q 23.96875 65.921875 18.8125 64.3125 
Q 13.671875 62.703125 7.8125 59.421875 
L 7.8125 69.390625 
Q 13.765625 71.78125 18.9375 73 
Q 24.125 74.21875 28.421875 74.21875 
Q 39.75 74.21875 46.484375 68.546875 
Q 53.21875 62.890625 53.21875 53.421875 
Q 53.21875 48.921875 51.53125 44.890625 
Q 49.859375 40.875 45.40625 35.40625 
Q 44.1875 33.984375 37.640625 27.21875 
Q 31.109375 20.453125 19.1875 8.296875 
z
" id="DejaVuSans-50"/>
      <path d="M 4.890625 31.390625 
L 31.203125 31.390625 
L 31.203125 23.390625 
L 4.890625 23.390625 
z
" id="DejaVuSans-45"/>
      <path d="M 11.71875 12.40625 
L 22.015625 12.40625 
L 22.015625 4 
L 14.015625 -11.625 
L 7.71875 -11.625 
L 11.71875 4 
z
" id="DejaVuSans-44"/>
      <path d="M 25.390625 72.90625 
L 33.6875 72.90625 
L 8.296875 -9.28125 
L 0 -9.28125 
z
" id="DejaVuSans-47"/>
     </defs>
     <use xlink:href="#DejaVuSans-102"/>
     <use x="35.205078" xlink:href="#DejaVuSans-114"/>
     <use x="74.068359" xlink:href="#DejaVuSans-101"/>
     <use x="135.591797" xlink:href="#DejaVuSans-101"/>
     <use x="197.115234" xlink:href="#DejaVuSans-116"/>
     <use x="236.324219" xlink:href="#DejaVuSans-121"/>
     <use x="295.503906" xlink:href="#DejaVuSans-112"/>
     <use x="358.980469" xlink:href="#DejaVuSans-101"/>
     <use x="420.503906" xlink:href="#DejaVuSans-50"/>
     <use x="484.126953" xlink:href="#DejaVuSans-45"/>
     <use x="520.210938" xlink:href="#DejaVuSans-50"/>
     <use x="583.833984" xlink:href="#DejaVuSans-48"/>
     <use x="647.457031" xlink:href="#DejaVuSans-49"/>
     <use x="711.080078" xlink:href="#DejaVuSans-55"/>
     <use x="774.703125" xlink:href="#DejaVuSans-32"/>
     <use x="806.490234" xlink:href="#DejaVuSans-40"/>
     <use x="845.503906" xlink:href="#DejaVuSans-50"/>
     <use x="909.126953" xlink:href="#DejaVuSans-50"/>
     <use x="972.75" xlink:href="#DejaVuSans-104"/>
     <use x="1036.128906" xlink:href="#DejaVuSans-44"/>
     <use x="1067.916016" xlink:href="#DejaVuSans-32"/>
     <use x="1099.703125" xlink:href="#DejaVuSans-53"/>
     <use x="1163.326172" xlink:href="#DejaVuSans-32"/>
     <use x="1195.113281" xlink:href="#DejaVuSans-116"/>
     <use x="1234.322266" xlink:href="#DejaVuSans-114"/>
     <use x="1275.435547" xlink:href="#DejaVuSans-105"/>
     <use x="1303.21875" xlink:href="#DejaVuSans-97"/>
     <use x="1364.498047" xlink:href="#DejaVuSans-108"/>
     <use x="1392.28125" xlink:href="#DejaVuSans-115"/>
     <use x="1444.380859" xlink:href="#DejaVuSans-47"/>
     <use x="1478.072266" xlink:href="#DejaVuSans-102"/>
     <use x="1513.277344" xlink:href="#DejaVuSans-117"/>
     <use x="1576.65625" xlink:href="#DejaVuSans-122"/>
     <use x="1629.146484" xlink:href="#DejaVuSans-122"/>
     <use x="1681.636719" xlink:href="#DejaVuSans-101"/>
     <use x="1743.160156" xlink:href="#DejaVuSans-114"/>
     <use x="1784.273438" xlink:href="#DejaVuSans-41"/>
    </g>
   </g>
  </g>
 </g>
 <defs>
  <clipPath id="pb3f143889a">
   <rect height="266.112" width="357.12" x="59.690625" y="22.318125"/>
  </clipPath>
 </defs>
</svg>
