<?xml version="1.0" encoding="utf-8" standalone="no"?>
<!DOCTYPE svg PUBLIC "-//W3C//DTD SVG 1.1//EN"
  "http://www.w3.org/Graphics/SVG/1.1/DTD/svg11.dtd">
<!-- Created with matplotlib (https://matplotlib.org/) -->
<svg height="365.293115pt" version="1.1" viewBox="0 0 417.648125 365.293115" width="417.648125pt" xmlns="http://www.w3.org/2000/svg" xmlns:xlink="http://www.w3.org/1999/xlink">
 <metadata>
  <rdf:RDF xmlns:cc="http://creativecommons.org/ns#" xmlns:dc="http://purl.org/dc/elements/1.1/" xmlns:rdf="http://www.w3.org/1999/02/22-rdf-syntax-ns#">
   <cc:Work>
    <dc:type rdf:resource="http://purl.org/dc/dcmitype/StillImage"/>
    <dc:date>2020-08-24T21:07:22.571000</dc:date>
    <dc:format>image/svg+xml</dc:format>
    <dc:creator>
     <cc:Agent>
      <dc:title>Matplotlib v3.3.1, https://matplotlib.org/</dc:title>
     </cc:Agent>
    </dc:creator>
   </cc:Work>
  </rdf:RDF>
 </metadata>
 <defs>
  <style type="text/css">*{stroke-linecap:butt;stroke-linejoin:round;}</style>
 </defs>
 <g id="figure_1">
  <g id="patch_1">
   <path d="M 0 365.293115 
L 417.648125 365.293115 
L 417.648125 0 
L 0 0 
z
" style="fill:#ffffff;"/>
  </g>
  <g id="axes_1">
   <g id="patch_2">
    <path d="M 53.328125 288.430125 
L 410.448125 288.430125 
L 410.448125 22.318125 
L 53.328125 22.318125 
z
" style="fill:#ffffff;"/>
   </g>
   <g id="PolyCollection_1">
    <defs>
     <path d="M 116.283957 -174.860695 
L 109.412293 -174.860695 
L 108.816673 -176.291098 
L 108.142326 -177.721501 
L 107.383571 -179.151904 
L 106.535167 -180.582308 
L 105.592493 -182.012711 
L 104.551731 -183.443114 
L 103.41006 -184.873517 
L 102.165847 -186.303921 
L 100.818833 -187.734324 
L 99.370307 -189.164727 
L 97.823264 -190.59513 
L 96.182526 -192.025533 
L 94.454845 -193.455937 
L 92.648961 -194.88634 
L 90.77561 -196.316743 
L 88.847494 -197.747146 
L 86.879196 -199.17755 
L 84.887034 -200.607953 
L 82.888878 -202.038356 
L 80.903898 -203.468759 
L 78.952278 -204.899162 
L 77.054881 -206.329566 
L 75.232879 -207.759969 
L 73.507359 -209.190372 
L 71.898908 -210.620775 
L 70.427196 -212.051179 
L 69.110556 -213.481582 
L 67.965589 -214.911985 
L 67.00679 -216.342388 
L 66.246214 -217.772792 
L 65.693186 -219.203195 
L 65.354076 -220.633598 
L 65.232125 -222.064001 
L 65.327351 -223.494404 
L 65.636516 -224.924808 
L 66.153178 -226.355211 
L 66.867802 -227.785614 
L 67.767951 -229.216017 
L 68.838535 -230.646421 
L 70.062127 -232.076824 
L 71.419314 -233.507227 
L 72.889107 -234.93763 
L 74.449369 -236.368034 
L 76.077269 -237.798437 
L 77.749741 -239.22884 
L 79.443945 -240.659243 
L 81.137709 -242.089646 
L 82.809951 -243.52005 
L 84.441067 -244.950453 
L 86.013272 -246.380856 
L 87.510897 -247.811259 
L 88.920631 -249.241663 
L 90.231695 -250.672066 
L 91.435964 -252.102469 
L 92.528018 -253.532872 
L 93.505129 -254.963276 
L 94.367194 -256.393679 
L 95.116599 -257.824082 
L 95.75804 -259.254485 
L 96.298287 -260.684888 
L 96.745917 -262.115292 
L 97.111005 -263.545695 
L 97.4048 -264.976098 
L 97.63938 -266.406501 
L 97.827306 -267.836905 
L 97.981277 -269.267308 
L 98.113798 -270.697711 
L 98.236871 -272.128114 
L 98.361711 -273.558517 
L 98.498507 -274.988921 
L 98.65621 -276.419324 
L 98.842376 -277.849727 
L 99.063055 -279.28013 
L 99.322725 -280.710534 
L 99.624276 -282.140937 
L 99.969042 -283.57134 
L 100.356874 -285.001743 
L 100.786246 -286.432147 
L 101.254402 -287.86255 
L 101.757523 -289.292953 
L 102.290913 -290.723356 
L 102.8492 -292.153759 
L 103.426536 -293.584163 
L 104.016797 -295.014566 
L 104.613777 -296.444969 
L 105.211365 -297.875372 
L 105.803701 -299.305776 
L 106.385313 -300.736179 
L 106.951231 -302.166582 
L 107.497069 -303.596985 
L 108.019089 -305.027389 
L 108.514229 -306.457792 
L 108.980119 -307.888195 
L 109.415068 -309.318598 
L 109.818033 -310.749001 
L 110.188577 -312.179405 
L 110.52681 -313.609808 
L 110.833324 -315.040211 
L 111.109124 -316.470614 
L 114.587126 -316.470614 
L 114.587126 -316.470614 
L 114.862926 -315.040211 
L 115.16944 -313.609808 
L 115.507673 -312.179405 
L 115.878217 -310.749001 
L 116.281182 -309.318598 
L 116.716131 -307.888195 
L 117.182021 -306.457792 
L 117.677161 -305.027389 
L 118.199181 -303.596985 
L 118.745019 -302.166582 
L 119.310937 -300.736179 
L 119.892549 -299.305776 
L 120.484885 -297.875372 
L 121.082473 -296.444969 
L 121.679453 -295.014566 
L 122.269714 -293.584163 
L 122.84705 -292.153759 
L 123.405337 -290.723356 
L 123.938727 -289.292953 
L 124.441848 -287.86255 
L 124.910004 -286.432147 
L 125.339376 -285.001743 
L 125.727208 -283.57134 
L 126.071974 -282.140937 
L 126.373525 -280.710534 
L 126.633195 -279.28013 
L 126.853874 -277.849727 
L 127.04004 -276.419324 
L 127.197743 -274.988921 
L 127.334539 -273.558517 
L 127.459379 -272.128114 
L 127.582452 -270.697711 
L 127.714973 -269.267308 
L 127.868944 -267.836905 
L 128.05687 -266.406501 
L 128.29145 -264.976098 
L 128.585245 -263.545695 
L 128.950333 -262.115292 
L 129.397963 -260.684888 
L 129.93821 -259.254485 
L 130.579651 -257.824082 
L 131.329056 -256.393679 
L 132.191121 -254.963276 
L 133.168232 -253.532872 
L 134.260286 -252.102469 
L 135.464555 -250.672066 
L 136.775619 -249.241663 
L 138.185353 -247.811259 
L 139.682978 -246.380856 
L 141.255183 -244.950453 
L 142.886299 -243.52005 
L 144.558541 -242.089646 
L 146.252305 -240.659243 
L 147.946509 -239.22884 
L 149.618981 -237.798437 
L 151.246881 -236.368034 
L 152.807143 -234.93763 
L 154.276936 -233.507227 
L 155.634123 -232.076824 
L 156.857715 -230.646421 
L 157.928299 -229.216017 
L 158.828448 -227.785614 
L 159.543072 -226.355211 
L 160.059734 -224.924808 
L 160.368899 -223.494404 
L 160.464125 -222.064001 
L 160.342174 -220.633598 
L 160.003064 -219.203195 
L 159.450036 -217.772792 
L 158.68946 -216.342388 
L 157.730661 -214.911985 
L 156.585694 -213.481582 
L 155.269054 -212.051179 
L 153.797342 -210.620775 
L 152.188891 -209.190372 
L 150.463371 -207.759969 
L 148.641369 -206.329566 
L 146.743972 -204.899162 
L 144.792352 -203.468759 
L 142.807372 -202.038356 
L 140.809216 -200.607953 
L 138.817054 -199.17755 
L 136.848756 -197.747146 
L 134.92064 -196.316743 
L 133.047289 -194.88634 
L 131.241405 -193.455937 
L 129.513724 -192.025533 
L 127.872986 -190.59513 
L 126.325943 -189.164727 
L 124.877417 -187.734324 
L 123.530403 -186.303921 
L 122.28619 -184.873517 
L 121.144519 -183.443114 
L 120.103757 -182.012711 
L 119.161083 -180.582308 
L 118.312679 -179.151904 
L 117.553924 -177.721501 
L 116.879577 -176.291098 
L 116.283957 -174.860695 
z
" id="m481ecaa06a" style="stroke:#3f3f3f;stroke-width:1.5;"/>
    </defs>
    <g clip-path="url(#p5960ab73cc)">
     <use style="fill:#e1812c;stroke:#3f3f3f;stroke-width:1.5;" x="0" xlink:href="#m481ecaa06a" y="365.293115"/>
    </g>
   </g>
   <g id="PolyCollection_2">
    <defs>
     <path d="M 233.641361 -132.685033 
L 230.134889 -132.685033 
L 229.854261 -134.119723 
L 229.541367 -135.554413 
L 229.194786 -136.989103 
L 228.813424 -138.423792 
L 228.396578 -139.858482 
L 227.943988 -141.293172 
L 227.455887 -142.727862 
L 226.93304 -144.162552 
L 226.37677 -145.597242 
L 225.788967 -147.031931 
L 225.172082 -148.466621 
L 224.529101 -149.901311 
L 223.863501 -151.336001 
L 223.179183 -152.770691 
L 222.48039 -154.205381 
L 221.771606 -155.64007 
L 221.057444 -157.07476 
L 220.342514 -158.50945 
L 219.631299 -159.94414 
L 218.928014 -161.37883 
L 218.236479 -162.813519 
L 217.559991 -164.248209 
L 216.90122 -165.682899 
L 216.262112 -167.117589 
L 215.64382 -168.552279 
L 215.046655 -169.986969 
L 214.470072 -171.421658 
L 213.912674 -172.856348 
L 213.372249 -174.291038 
L 212.845837 -175.725728 
L 212.329813 -177.160418 
L 211.820001 -178.595107 
L 211.311794 -180.029797 
L 210.800303 -181.464487 
L 210.280495 -182.899177 
L 209.747355 -184.333867 
L 209.196034 -185.768557 
L 208.622 -187.203246 
L 208.021177 -188.637936 
L 207.39008 -190.072626 
L 206.725934 -191.507316 
L 206.026776 -192.942006 
L 205.291556 -194.376695 
L 204.520204 -195.811385 
L 203.7137 -197.246075 
L 202.874115 -198.680765 
L 202.004644 -200.115455 
L 201.10962 -201.550145 
L 200.194511 -202.984834 
L 199.265899 -204.419524 
L 198.331437 -205.854214 
L 197.399792 -207.288904 
L 196.480556 -208.723594 
L 195.584142 -210.158283 
L 194.721647 -211.592973 
L 193.904698 -213.027663 
L 193.145268 -214.462353 
L 192.455469 -215.897043 
L 191.847334 -217.331733 
L 191.33257 -218.766422 
L 190.922311 -220.201112 
L 190.626859 -221.635802 
L 190.455437 -223.070492 
L 190.415945 -224.505182 
L 190.514736 -225.939871 
L 190.756426 -227.374561 
L 191.143728 -228.809251 
L 191.677337 -230.243941 
L 192.355857 -231.678631 
L 193.175779 -233.113321 
L 194.131513 -234.54801 
L 195.215474 -235.9827 
L 196.418215 -237.41739 
L 197.728618 -238.85208 
L 199.134111 -240.28677 
L 200.620939 -241.721459 
L 202.174442 -243.156149 
L 203.779372 -244.590839 
L 205.420195 -246.025529 
L 207.081409 -247.460219 
L 208.747845 -248.894909 
L 210.404941 -250.329598 
L 212.038998 -251.764288 
L 213.637399 -253.198978 
L 215.188787 -254.633668 
L 216.683202 -256.068358 
L 218.112175 -257.503048 
L 219.468783 -258.937737 
L 220.747655 -260.372427 
L 221.944945 -261.807117 
L 223.05827 -263.241807 
L 224.086616 -264.676497 
L 225.030221 -266.111186 
L 225.890446 -267.545876 
L 226.66962 -268.980566 
L 227.370893 -270.415256 
L 227.998078 -271.849946 
L 228.555499 -273.284636 
L 229.047844 -274.719325 
L 234.728406 -274.719325 
L 234.728406 -274.719325 
L 235.220751 -273.284636 
L 235.778172 -271.849946 
L 236.405357 -270.415256 
L 237.10663 -268.980566 
L 237.885804 -267.545876 
L 238.746029 -266.111186 
L 239.689634 -264.676497 
L 240.71798 -263.241807 
L 241.831305 -261.807117 
L 243.028595 -260.372427 
L 244.307467 -258.937737 
L 245.664075 -257.503048 
L 247.093048 -256.068358 
L 248.587463 -254.633668 
L 250.138851 -253.198978 
L 251.737252 -251.764288 
L 253.371309 -250.329598 
L 255.028405 -248.894909 
L 256.694841 -247.460219 
L 258.356055 -246.025529 
L 259.996878 -244.590839 
L 261.601808 -243.156149 
L 263.155311 -241.721459 
L 264.642139 -240.28677 
L 266.047632 -238.85208 
L 267.358035 -237.41739 
L 268.560776 -235.9827 
L 269.644737 -234.54801 
L 270.600471 -233.113321 
L 271.420393 -231.678631 
L 272.098913 -230.243941 
L 272.632522 -228.809251 
L 273.019824 -227.374561 
L 273.261514 -225.939871 
L 273.360305 -224.505182 
L 273.320813 -223.070492 
L 273.149391 -221.635802 
L 272.853939 -220.201112 
L 272.44368 -218.766422 
L 271.928916 -217.331733 
L 271.320781 -215.897043 
L 270.630982 -214.462353 
L 269.871552 -213.027663 
L 269.054603 -211.592973 
L 268.192108 -210.158283 
L 267.295694 -208.723594 
L 266.376458 -207.288904 
L 265.444813 -205.854214 
L 264.510351 -204.419524 
L 263.581739 -202.984834 
L 262.66663 -201.550145 
L 261.771606 -200.115455 
L 260.902135 -198.680765 
L 260.06255 -197.246075 
L 259.256046 -195.811385 
L 258.484694 -194.376695 
L 257.749474 -192.942006 
L 257.050316 -191.507316 
L 256.38617 -190.072626 
L 255.755073 -188.637936 
L 255.15425 -187.203246 
L 254.580216 -185.768557 
L 254.028895 -184.333867 
L 253.495755 -182.899177 
L 252.975947 -181.464487 
L 252.464456 -180.029797 
L 251.956249 -178.595107 
L 251.446437 -177.160418 
L 250.930413 -175.725728 
L 250.404001 -174.291038 
L 249.863576 -172.856348 
L 249.306178 -171.421658 
L 248.729595 -169.986969 
L 248.13243 -168.552279 
L 247.514138 -167.117589 
L 246.87503 -165.682899 
L 246.216259 -164.248209 
L 245.539771 -162.813519 
L 244.848236 -161.37883 
L 244.144951 -159.94414 
L 243.433736 -158.50945 
L 242.718806 -157.07476 
L 242.004644 -155.64007 
L 241.29586 -154.205381 
L 240.597067 -152.770691 
L 239.912749 -151.336001 
L 239.247149 -149.901311 
L 238.604168 -148.466621 
L 237.987283 -147.031931 
L 237.39948 -145.597242 
L 236.84321 -144.162552 
L 236.320363 -142.727862 
L 235.832262 -141.293172 
L 235.379672 -139.858482 
L 234.962826 -138.423792 
L 234.581464 -136.989103 
L 234.234883 -135.554413 
L 233.921989 -134.119723 
L 233.641361 -132.685033 
z
" id="m5d73718c09" style="stroke:#3f3f3f;stroke-width:1.5;"/>
    </defs>
    <g clip-path="url(#p5960ab73cc)">
     <use style="fill:#b5c8e1;stroke:#3f3f3f;stroke-width:1.5;" x="0" xlink:href="#m5d73718c09" y="365.293115"/>
    </g>
   </g>
   <g id="PolyCollection_3">
    <defs>
     <path d="M 351.997566 -88.95899 
L 349.858684 -88.95899 
L 349.680918 -91.402627 
L 349.48174 -93.846263 
L 349.260073 -96.2899 
L 349.015039 -98.733536 
L 348.746002 -101.177172 
L 348.452602 -103.620809 
L 348.134784 -106.064445 
L 347.792826 -108.508081 
L 347.427352 -110.951718 
L 347.039335 -113.395354 
L 346.630088 -115.83899 
L 346.201246 -118.282627 
L 345.754733 -120.726263 
L 345.292714 -123.1699 
L 344.817537 -125.613536 
L 344.331672 -128.057172 
L 343.837628 -130.500809 
L 343.337885 -132.944445 
L 342.834807 -135.388081 
L 342.33057 -137.831718 
L 341.827091 -140.275354 
L 341.325967 -142.71899 
L 340.828432 -145.162627 
L 340.335322 -147.606263 
L 339.847068 -150.0499 
L 339.363701 -152.493536 
L 338.884879 -154.937172 
L 338.409935 -157.380809 
L 337.937939 -159.824445 
L 337.467776 -162.268081 
L 336.998237 -164.711718 
L 336.528113 -167.155354 
L 336.056294 -169.59899 
L 335.58187 -172.042627 
L 335.104212 -174.486263 
L 334.623061 -176.9299 
L 334.138586 -179.373536 
L 333.651432 -181.817172 
L 333.162752 -184.260809 
L 332.674212 -186.704445 
L 332.187975 -189.148081 
L 331.706676 -191.591718 
L 331.233369 -194.035354 
L 330.771464 -196.47899 
L 330.324651 -198.922627 
L 329.896818 -201.366263 
L 329.491964 -203.8099 
L 329.11411 -206.253536 
L 328.767216 -208.697172 
L 328.455101 -211.140809 
L 328.18137 -213.584445 
L 327.949358 -216.028081 
L 327.762076 -218.471718 
L 327.622173 -220.915354 
L 327.531909 -223.35899 
L 327.49314 -225.802627 
L 327.507303 -228.246263 
L 327.575424 -230.6899 
L 327.698112 -233.133536 
L 327.875578 -235.577172 
L 328.107634 -238.020809 
L 328.393714 -240.464445 
L 328.732879 -242.908081 
L 329.123825 -245.351718 
L 329.564897 -247.795354 
L 330.05409 -250.23899 
L 330.589058 -252.682627 
L 331.167119 -255.126263 
L 331.785264 -257.5699 
L 332.440167 -260.013536 
L 333.128196 -262.457172 
L 333.845437 -264.900809 
L 334.587717 -267.344445 
L 335.350635 -269.788081 
L 336.129603 -272.231718 
L 336.919893 -274.675354 
L 337.716688 -277.11899 
L 338.515141 -279.562627 
L 339.310442 -282.006263 
L 340.097877 -284.4499 
L 340.872902 -286.893536 
L 341.631203 -289.337172 
L 342.36876 -291.780809 
L 343.081905 -294.224445 
L 343.767366 -296.668081 
L 344.422314 -299.111718 
L 345.04439 -301.555354 
L 345.631721 -303.99899 
L 346.182934 -306.442627 
L 346.697148 -308.886263 
L 347.173962 -311.3299 
L 347.61343 -313.773536 
L 348.016027 -316.217172 
L 348.38261 -318.660809 
L 348.714372 -321.104445 
L 349.012792 -323.548081 
L 349.279582 -325.991718 
L 349.516636 -328.435354 
L 349.725979 -330.87899 
L 352.130271 -330.87899 
L 352.130271 -330.87899 
L 352.339614 -328.435354 
L 352.576668 -325.991718 
L 352.843458 -323.548081 
L 353.141878 -321.104445 
L 353.47364 -318.660809 
L 353.840223 -316.217172 
L 354.24282 -313.773536 
L 354.682288 -311.3299 
L 355.159102 -308.886263 
L 355.673316 -306.442627 
L 356.224529 -303.99899 
L 356.81186 -301.555354 
L 357.433936 -299.111718 
L 358.088884 -296.668081 
L 358.774345 -294.224445 
L 359.48749 -291.780809 
L 360.225047 -289.337172 
L 360.983348 -286.893536 
L 361.758373 -284.4499 
L 362.545808 -282.006263 
L 363.341109 -279.562627 
L 364.139562 -277.11899 
L 364.936357 -274.675354 
L 365.726647 -272.231718 
L 366.505615 -269.788081 
L 367.268533 -267.344445 
L 368.010813 -264.900809 
L 368.728054 -262.457172 
L 369.416083 -260.013536 
L 370.070986 -257.5699 
L 370.689131 -255.126263 
L 371.267192 -252.682627 
L 371.80216 -250.23899 
L 372.291353 -247.795354 
L 372.732425 -245.351718 
L 373.123371 -242.908081 
L 373.462536 -240.464445 
L 373.748616 -238.020809 
L 373.980672 -235.577172 
L 374.158138 -233.133536 
L 374.280826 -230.6899 
L 374.348947 -228.246263 
L 374.36311 -225.802627 
L 374.324341 -223.35899 
L 374.234077 -220.915354 
L 374.094174 -218.471718 
L 373.906892 -216.028081 
L 373.67488 -213.584445 
L 373.401149 -211.140809 
L 373.089034 -208.697172 
L 372.74214 -206.253536 
L 372.364286 -203.8099 
L 371.959432 -201.366263 
L 371.531599 -198.922627 
L 371.084786 -196.47899 
L 370.622881 -194.035354 
L 370.149574 -191.591718 
L 369.668275 -189.148081 
L 369.182038 -186.704445 
L 368.693498 -184.260809 
L 368.204818 -181.817172 
L 367.717664 -179.373536 
L 367.233189 -176.9299 
L 366.752038 -174.486263 
L 366.27438 -172.042627 
L 365.799956 -169.59899 
L 365.328137 -167.155354 
L 364.858013 -164.711718 
L 364.388474 -162.268081 
L 363.918311 -159.824445 
L 363.446315 -157.380809 
L 362.971371 -154.937172 
L 362.492549 -152.493536 
L 362.009182 -150.0499 
L 361.520928 -147.606263 
L 361.027818 -145.162627 
L 360.530283 -142.71899 
L 360.029159 -140.275354 
L 359.52568 -137.831718 
L 359.021443 -135.388081 
L 358.518365 -132.944445 
L 358.018622 -130.500809 
L 357.524578 -128.057172 
L 357.038713 -125.613536 
L 356.563536 -123.1699 
L 356.101517 -120.726263 
L 355.655004 -118.282627 
L 355.226162 -115.83899 
L 354.816915 -113.395354 
L 354.428898 -110.951718 
L 354.063424 -108.508081 
L 353.721466 -106.064445 
L 353.403648 -103.620809 
L 353.110248 -101.177172 
L 352.841211 -98.733536 
L 352.596177 -96.2899 
L 352.37451 -93.846263 
L 352.175332 -91.402627 
L 351.997566 -88.95899 
z
" id="m30d6f81aee" style="stroke:#3f3f3f;stroke-width:1.5;"/>
    </defs>
    <g clip-path="url(#p5960ab73cc)">
     <use style="fill:#3274a1;stroke:#3f3f3f;stroke-width:1.5;" x="0" xlink:href="#m30d6f81aee" y="365.293115"/>
    </g>
   </g>
   <g id="matplotlib.axis_1">
    <g id="xtick_1">
     <g id="line2d_1">
      <defs>
       <path d="M 0 0 
L 0 3.5 
" id="m9fa06af417" style="stroke:#000000;stroke-width:0.8;"/>
      </defs>
      <g>
       <use style="stroke:#000000;stroke-width:0.8;" x="112.848125" xlink:href="#m9fa06af417" y="288.430125"/>
      </g>
     </g>
     <g id="text_1">
      <!-- power_schedule -->
      <g transform="translate(41.759318 342.373065)rotate(-30)scale(0.1 -0.1)">
       <defs>
        <path d="M 18.109375 8.203125 
L 18.109375 -20.796875 
L 9.078125 -20.796875 
L 9.078125 54.6875 
L 18.109375 54.6875 
L 18.109375 46.390625 
Q 20.953125 51.265625 25.265625 53.625 
Q 29.59375 56 35.59375 56 
Q 45.5625 56 51.78125 48.09375 
Q 58.015625 40.1875 58.015625 27.296875 
Q 58.015625 14.40625 51.78125 6.484375 
Q 45.5625 -1.421875 35.59375 -1.421875 
Q 29.59375 -1.421875 25.265625 0.953125 
Q 20.953125 3.328125 18.109375 8.203125 
z
M 48.6875 27.296875 
Q 48.6875 37.203125 44.609375 42.84375 
Q 40.53125 48.484375 33.40625 48.484375 
Q 26.265625 48.484375 22.1875 42.84375 
Q 18.109375 37.203125 18.109375 27.296875 
Q 18.109375 17.390625 22.1875 11.75 
Q 26.265625 6.109375 33.40625 6.109375 
Q 40.53125 6.109375 44.609375 11.75 
Q 48.6875 17.390625 48.6875 27.296875 
z
" id="DejaVuSans-112"/>
        <path d="M 30.609375 48.390625 
Q 23.390625 48.390625 19.1875 42.75 
Q 14.984375 37.109375 14.984375 27.296875 
Q 14.984375 17.484375 19.15625 11.84375 
Q 23.34375 6.203125 30.609375 6.203125 
Q 37.796875 6.203125 41.984375 11.859375 
Q 46.1875 17.53125 46.1875 27.296875 
Q 46.1875 37.015625 41.984375 42.703125 
Q 37.796875 48.390625 30.609375 48.390625 
z
M 30.609375 56 
Q 42.328125 56 49.015625 48.375 
Q 55.71875 40.765625 55.71875 27.296875 
Q 55.71875 13.875 49.015625 6.21875 
Q 42.328125 -1.421875 30.609375 -1.421875 
Q 18.84375 -1.421875 12.171875 6.21875 
Q 5.515625 13.875 5.515625 27.296875 
Q 5.515625 40.765625 12.171875 48.375 
Q 18.84375 56 30.609375 56 
z
" id="DejaVuSans-111"/>
        <path d="M 4.203125 54.6875 
L 13.1875 54.6875 
L 24.421875 12.015625 
L 35.59375 54.6875 
L 46.1875 54.6875 
L 57.421875 12.015625 
L 68.609375 54.6875 
L 77.59375 54.6875 
L 63.28125 0 
L 52.6875 0 
L 40.921875 44.828125 
L 29.109375 0 
L 18.5 0 
z
" id="DejaVuSans-119"/>
        <path d="M 56.203125 29.59375 
L 56.203125 25.203125 
L 14.890625 25.203125 
Q 15.484375 15.921875 20.484375 11.0625 
Q 25.484375 6.203125 34.421875 6.203125 
Q 39.59375 6.203125 44.453125 7.46875 
Q 49.3125 8.734375 54.109375 11.28125 
L 54.109375 2.78125 
Q 49.265625 0.734375 44.1875 -0.34375 
Q 39.109375 -1.421875 33.890625 -1.421875 
Q 20.796875 -1.421875 13.15625 6.1875 
Q 5.515625 13.8125 5.515625 26.8125 
Q 5.515625 40.234375 12.765625 48.109375 
Q 20.015625 56 32.328125 56 
Q 43.359375 56 49.78125 48.890625 
Q 56.203125 41.796875 56.203125 29.59375 
z
M 47.21875 32.234375 
Q 47.125 39.59375 43.09375 43.984375 
Q 39.0625 48.390625 32.421875 48.390625 
Q 24.90625 48.390625 20.390625 44.140625 
Q 15.875 39.890625 15.1875 32.171875 
z
" id="DejaVuSans-101"/>
        <path d="M 41.109375 46.296875 
Q 39.59375 47.171875 37.8125 47.578125 
Q 36.03125 48 33.890625 48 
Q 26.265625 48 22.1875 43.046875 
Q 18.109375 38.09375 18.109375 28.8125 
L 18.109375 0 
L 9.078125 0 
L 9.078125 54.6875 
L 18.109375 54.6875 
L 18.109375 46.1875 
Q 20.953125 51.171875 25.484375 53.578125 
Q 30.03125 56 36.53125 56 
Q 37.453125 56 38.578125 55.875 
Q 39.703125 55.765625 41.0625 55.515625 
z
" id="DejaVuSans-114"/>
        <path d="M 50.984375 -16.609375 
L 50.984375 -23.578125 
L -0.984375 -23.578125 
L -0.984375 -16.609375 
z
" id="DejaVuSans-95"/>
        <path d="M 44.28125 53.078125 
L 44.28125 44.578125 
Q 40.484375 46.53125 36.375 47.5 
Q 32.28125 48.484375 27.875 48.484375 
Q 21.1875 48.484375 17.84375 46.4375 
Q 14.5 44.390625 14.5 40.28125 
Q 14.5 37.15625 16.890625 35.375 
Q 19.28125 33.59375 26.515625 31.984375 
L 29.59375 31.296875 
Q 39.15625 29.25 43.1875 25.515625 
Q 47.21875 21.78125 47.21875 15.09375 
Q 47.21875 7.46875 41.1875 3.015625 
Q 35.15625 -1.421875 24.609375 -1.421875 
Q 20.21875 -1.421875 15.453125 -0.5625 
Q 10.6875 0.296875 5.421875 2 
L 5.421875 11.28125 
Q 10.40625 8.6875 15.234375 7.390625 
Q 20.0625 6.109375 24.8125 6.109375 
Q 31.15625 6.109375 34.5625 8.28125 
Q 37.984375 10.453125 37.984375 14.40625 
Q 37.984375 18.0625 35.515625 20.015625 
Q 33.0625 21.96875 24.703125 23.78125 
L 21.578125 24.515625 
Q 13.234375 26.265625 9.515625 29.90625 
Q 5.8125 33.546875 5.8125 39.890625 
Q 5.8125 47.609375 11.28125 51.796875 
Q 16.75 56 26.8125 56 
Q 31.78125 56 36.171875 55.265625 
Q 40.578125 54.546875 44.28125 53.078125 
z
" id="DejaVuSans-115"/>
        <path d="M 48.78125 52.59375 
L 48.78125 44.1875 
Q 44.96875 46.296875 41.140625 47.34375 
Q 37.3125 48.390625 33.40625 48.390625 
Q 24.65625 48.390625 19.8125 42.84375 
Q 14.984375 37.3125 14.984375 27.296875 
Q 14.984375 17.28125 19.8125 11.734375 
Q 24.65625 6.203125 33.40625 6.203125 
Q 37.3125 6.203125 41.140625 7.25 
Q 44.96875 8.296875 48.78125 10.40625 
L 48.78125 2.09375 
Q 45.015625 0.34375 40.984375 -0.53125 
Q 36.96875 -1.421875 32.421875 -1.421875 
Q 20.0625 -1.421875 12.78125 6.34375 
Q 5.515625 14.109375 5.515625 27.296875 
Q 5.515625 40.671875 12.859375 48.328125 
Q 20.21875 56 33.015625 56 
Q 37.15625 56 41.109375 55.140625 
Q 45.0625 54.296875 48.78125 52.59375 
z
" id="DejaVuSans-99"/>
        <path d="M 54.890625 33.015625 
L 54.890625 0 
L 45.90625 0 
L 45.90625 32.71875 
Q 45.90625 40.484375 42.875 44.328125 
Q 39.84375 48.1875 33.796875 48.1875 
Q 26.515625 48.1875 22.3125 43.546875 
Q 18.109375 38.921875 18.109375 30.90625 
L 18.109375 0 
L 9.078125 0 
L 9.078125 75.984375 
L 18.109375 75.984375 
L 18.109375 46.1875 
Q 21.34375 51.125 25.703125 53.5625 
Q 30.078125 56 35.796875 56 
Q 45.21875 56 50.046875 50.171875 
Q 54.890625 44.34375 54.890625 33.015625 
z
" id="DejaVuSans-104"/>
        <path d="M 45.40625 46.390625 
L 45.40625 75.984375 
L 54.390625 75.984375 
L 54.390625 0 
L 45.40625 0 
L 45.40625 8.203125 
Q 42.578125 3.328125 38.25 0.953125 
Q 33.9375 -1.421875 27.875 -1.421875 
Q 17.96875 -1.421875 11.734375 6.484375 
Q 5.515625 14.40625 5.515625 27.296875 
Q 5.515625 40.1875 11.734375 48.09375 
Q 17.96875 56 27.875 56 
Q 33.9375 56 38.25 53.625 
Q 42.578125 51.265625 45.40625 46.390625 
z
M 14.796875 27.296875 
Q 14.796875 17.390625 18.875 11.75 
Q 22.953125 6.109375 30.078125 6.109375 
Q 37.203125 6.109375 41.296875 11.75 
Q 45.40625 17.390625 45.40625 27.296875 
Q 45.40625 37.203125 41.296875 42.84375 
Q 37.203125 48.484375 30.078125 48.484375 
Q 22.953125 48.484375 18.875 42.84375 
Q 14.796875 37.203125 14.796875 27.296875 
z
" id="DejaVuSans-100"/>
        <path d="M 8.5 21.578125 
L 8.5 54.6875 
L 17.484375 54.6875 
L 17.484375 21.921875 
Q 17.484375 14.15625 20.5 10.265625 
Q 23.53125 6.390625 29.59375 6.390625 
Q 36.859375 6.390625 41.078125 11.03125 
Q 45.3125 15.671875 45.3125 23.6875 
L 45.3125 54.6875 
L 54.296875 54.6875 
L 54.296875 0 
L 45.3125 0 
L 45.3125 8.40625 
Q 42.046875 3.421875 37.71875 1 
Q 33.40625 -1.421875 27.6875 -1.421875 
Q 18.265625 -1.421875 13.375 4.4375 
Q 8.5 10.296875 8.5 21.578125 
z
M 31.109375 56 
z
" id="DejaVuSans-117"/>
        <path d="M 9.421875 75.984375 
L 18.40625 75.984375 
L 18.40625 0 
L 9.421875 0 
z
" id="DejaVuSans-108"/>
       </defs>
       <use xlink:href="#DejaVuSans-112"/>
       <use x="63.476562" xlink:href="#DejaVuSans-111"/>
       <use x="124.658203" xlink:href="#DejaVuSans-119"/>
       <use x="206.445312" xlink:href="#DejaVuSans-101"/>
       <use x="267.96875" xlink:href="#DejaVuSans-114"/>
       <use x="309.082031" xlink:href="#DejaVuSans-95"/>
       <use x="359.082031" xlink:href="#DejaVuSans-115"/>
       <use x="411.181641" xlink:href="#DejaVuSans-99"/>
       <use x="466.162109" xlink:href="#DejaVuSans-104"/>
       <use x="529.541016" xlink:href="#DejaVuSans-101"/>
       <use x="591.064453" xlink:href="#DejaVuSans-100"/>
       <use x="654.541016" xlink:href="#DejaVuSans-117"/>
       <use x="717.919922" xlink:href="#DejaVuSans-108"/>
       <use x="745.703125" xlink:href="#DejaVuSans-101"/>
      </g>
     </g>
    </g>
    <g id="xtick_2">
     <g id="line2d_2">
      <g>
       <use style="stroke:#000000;stroke-width:0.8;" x="231.888125" xlink:href="#m9fa06af417" y="288.430125"/>
      </g>
     </g>
     <g id="text_2">
      <!-- dark -->
      <g transform="translate(211.468257 313.199627)rotate(-30)scale(0.1 -0.1)">
       <defs>
        <path d="M 34.28125 27.484375 
Q 23.390625 27.484375 19.1875 25 
Q 14.984375 22.515625 14.984375 16.5 
Q 14.984375 11.71875 18.140625 8.90625 
Q 21.296875 6.109375 26.703125 6.109375 
Q 34.1875 6.109375 38.703125 11.40625 
Q 43.21875 16.703125 43.21875 25.484375 
L 43.21875 27.484375 
z
M 52.203125 31.203125 
L 52.203125 0 
L 43.21875 0 
L 43.21875 8.296875 
Q 40.140625 3.328125 35.546875 0.953125 
Q 30.953125 -1.421875 24.3125 -1.421875 
Q 15.921875 -1.421875 10.953125 3.296875 
Q 6 8.015625 6 15.921875 
Q 6 25.140625 12.171875 29.828125 
Q 18.359375 34.515625 30.609375 34.515625 
L 43.21875 34.515625 
L 43.21875 35.40625 
Q 43.21875 41.609375 39.140625 45 
Q 35.0625 48.390625 27.6875 48.390625 
Q 23 48.390625 18.546875 47.265625 
Q 14.109375 46.140625 10.015625 43.890625 
L 10.015625 52.203125 
Q 14.9375 54.109375 19.578125 55.046875 
Q 24.21875 56 28.609375 56 
Q 40.484375 56 46.34375 49.84375 
Q 52.203125 43.703125 52.203125 31.203125 
z
" id="DejaVuSans-97"/>
        <path d="M 9.078125 75.984375 
L 18.109375 75.984375 
L 18.109375 31.109375 
L 44.921875 54.6875 
L 56.390625 54.6875 
L 27.390625 29.109375 
L 57.625 0 
L 45.90625 0 
L 18.109375 26.703125 
L 18.109375 0 
L 9.078125 0 
z
" id="DejaVuSans-107"/>
       </defs>
       <use xlink:href="#DejaVuSans-100"/>
       <use x="63.476562" xlink:href="#DejaVuSans-97"/>
       <use x="124.755859" xlink:href="#DejaVuSans-114"/>
       <use x="165.869141" xlink:href="#DejaVuSans-107"/>
      </g>
     </g>
    </g>
    <g id="xtick_3">
     <g id="line2d_3">
      <g>
       <use style="stroke:#000000;stroke-width:0.8;" x="350.928125" xlink:href="#m9fa06af417" y="288.430125"/>
      </g>
     </g>
     <g id="text_3">
      <!-- afl -->
      <g transform="translate(339.126562 308.223846)rotate(-30)scale(0.1 -0.1)">
       <defs>
        <path d="M 37.109375 75.984375 
L 37.109375 68.5 
L 28.515625 68.5 
Q 23.6875 68.5 21.796875 66.546875 
Q 19.921875 64.59375 19.921875 59.515625 
L 19.921875 54.6875 
L 34.71875 54.6875 
L 34.71875 47.703125 
L 19.921875 47.703125 
L 19.921875 0 
L 10.890625 0 
L 10.890625 47.703125 
L 2.296875 47.703125 
L 2.296875 54.6875 
L 10.890625 54.6875 
L 10.890625 58.5 
Q 10.890625 67.625 15.140625 71.796875 
Q 19.390625 75.984375 28.609375 75.984375 
z
" id="DejaVuSans-102"/>
       </defs>
       <use xlink:href="#DejaVuSans-97"/>
       <use x="61.279297" xlink:href="#DejaVuSans-102"/>
       <use x="96.484375" xlink:href="#DejaVuSans-108"/>
      </g>
     </g>
    </g>
    <g id="text_4">
     <!-- Fuzzer (highest median coverage on the left) -->
     <g transform="translate(119.270156 356.013428)scale(0.1 -0.1)">
      <defs>
       <path d="M 9.8125 72.90625 
L 51.703125 72.90625 
L 51.703125 64.59375 
L 19.671875 64.59375 
L 19.671875 43.109375 
L 48.578125 43.109375 
L 48.578125 34.8125 
L 19.671875 34.8125 
L 19.671875 0 
L 9.8125 0 
z
" id="DejaVuSans-70"/>
       <path d="M 5.515625 54.6875 
L 48.1875 54.6875 
L 48.1875 46.484375 
L 14.40625 7.171875 
L 48.1875 7.171875 
L 48.1875 0 
L 4.296875 0 
L 4.296875 8.203125 
L 38.09375 47.515625 
L 5.515625 47.515625 
z
" id="DejaVuSans-122"/>
       <path id="DejaVuSans-32"/>
       <path d="M 31 75.875 
Q 24.46875 64.65625 21.28125 53.65625 
Q 18.109375 42.671875 18.109375 31.390625 
Q 18.109375 20.125 21.3125 9.0625 
Q 24.515625 -2 31 -13.1875 
L 23.1875 -13.1875 
Q 15.875 -1.703125 12.234375 9.375 
Q 8.59375 20.453125 8.59375 31.390625 
Q 8.59375 42.28125 12.203125 53.3125 
Q 15.828125 64.359375 23.1875 75.875 
z
" id="DejaVuSans-40"/>
       <path d="M 9.421875 54.6875 
L 18.40625 54.6875 
L 18.40625 0 
L 9.421875 0 
z
M 9.421875 75.984375 
L 18.40625 75.984375 
L 18.40625 64.59375 
L 9.421875 64.59375 
z
" id="DejaVuSans-105"/>
       <path d="M 45.40625 27.984375 
Q 45.40625 37.75 41.375 43.109375 
Q 37.359375 48.484375 30.078125 48.484375 
Q 22.859375 48.484375 18.828125 43.109375 
Q 14.796875 37.75 14.796875 27.984375 
Q 14.796875 18.265625 18.828125 12.890625 
Q 22.859375 7.515625 30.078125 7.515625 
Q 37.359375 7.515625 41.375 12.890625 
Q 45.40625 18.265625 45.40625 27.984375 
z
M 54.390625 6.78125 
Q 54.390625 -7.171875 48.1875 -13.984375 
Q 42 -20.796875 29.203125 -20.796875 
Q 24.46875 -20.796875 20.265625 -20.09375 
Q 16.0625 -19.390625 12.109375 -17.921875 
L 12.109375 -9.1875 
Q 16.0625 -11.328125 19.921875 -12.34375 
Q 23.78125 -13.375 27.78125 -13.375 
Q 36.625 -13.375 41.015625 -8.765625 
Q 45.40625 -4.15625 45.40625 5.171875 
L 45.40625 9.625 
Q 42.625 4.78125 38.28125 2.390625 
Q 33.9375 0 27.875 0 
Q 17.828125 0 11.671875 7.65625 
Q 5.515625 15.328125 5.515625 27.984375 
Q 5.515625 40.671875 11.671875 48.328125 
Q 17.828125 56 27.875 56 
Q 33.9375 56 38.28125 53.609375 
Q 42.625 51.21875 45.40625 46.390625 
L 45.40625 54.6875 
L 54.390625 54.6875 
z
" id="DejaVuSans-103"/>
       <path d="M 18.3125 70.21875 
L 18.3125 54.6875 
L 36.8125 54.6875 
L 36.8125 47.703125 
L 18.3125 47.703125 
L 18.3125 18.015625 
Q 18.3125 11.328125 20.140625 9.421875 
Q 21.96875 7.515625 27.59375 7.515625 
L 36.8125 7.515625 
L 36.8125 0 
L 27.59375 0 
Q 17.1875 0 13.234375 3.875 
Q 9.28125 7.765625 9.28125 18.015625 
L 9.28125 47.703125 
L 2.6875 47.703125 
L 2.6875 54.6875 
L 9.28125 54.6875 
L 9.28125 70.21875 
z
" id="DejaVuSans-116"/>
       <path d="M 52 44.1875 
Q 55.375 50.25 60.0625 53.125 
Q 64.75 56 71.09375 56 
Q 79.640625 56 84.28125 50.015625 
Q 88.921875 44.046875 88.921875 33.015625 
L 88.921875 0 
L 79.890625 0 
L 79.890625 32.71875 
Q 79.890625 40.578125 77.09375 44.375 
Q 74.3125 48.1875 68.609375 48.1875 
Q 61.625 48.1875 57.5625 43.546875 
Q 53.515625 38.921875 53.515625 30.90625 
L 53.515625 0 
L 44.484375 0 
L 44.484375 32.71875 
Q 44.484375 40.625 41.703125 44.40625 
Q 38.921875 48.1875 33.109375 48.1875 
Q 26.21875 48.1875 22.15625 43.53125 
Q 18.109375 38.875 18.109375 30.90625 
L 18.109375 0 
L 9.078125 0 
L 9.078125 54.6875 
L 18.109375 54.6875 
L 18.109375 46.1875 
Q 21.1875 51.21875 25.484375 53.609375 
Q 29.78125 56 35.6875 56 
Q 41.65625 56 45.828125 52.96875 
Q 50 49.953125 52 44.1875 
z
" id="DejaVuSans-109"/>
       <path d="M 54.890625 33.015625 
L 54.890625 0 
L 45.90625 0 
L 45.90625 32.71875 
Q 45.90625 40.484375 42.875 44.328125 
Q 39.84375 48.1875 33.796875 48.1875 
Q 26.515625 48.1875 22.3125 43.546875 
Q 18.109375 38.921875 18.109375 30.90625 
L 18.109375 0 
L 9.078125 0 
L 9.078125 54.6875 
L 18.109375 54.6875 
L 18.109375 46.1875 
Q 21.34375 51.125 25.703125 53.5625 
Q 30.078125 56 35.796875 56 
Q 45.21875 56 50.046875 50.171875 
Q 54.890625 44.34375 54.890625 33.015625 
z
" id="DejaVuSans-110"/>
       <path d="M 2.984375 54.6875 
L 12.5 54.6875 
L 29.59375 8.796875 
L 46.6875 54.6875 
L 56.203125 54.6875 
L 35.6875 0 
L 23.484375 0 
z
" id="DejaVuSans-118"/>
       <path d="M 8.015625 75.875 
L 15.828125 75.875 
Q 23.140625 64.359375 26.78125 53.3125 
Q 30.421875 42.28125 30.421875 31.390625 
Q 30.421875 20.453125 26.78125 9.375 
Q 23.140625 -1.703125 15.828125 -13.1875 
L 8.015625 -13.1875 
Q 14.5 -2 17.703125 9.0625 
Q 20.90625 20.125 20.90625 31.390625 
Q 20.90625 42.671875 17.703125 53.65625 
Q 14.5 64.65625 8.015625 75.875 
z
" id="DejaVuSans-41"/>
      </defs>
      <use xlink:href="#DejaVuSans-70"/>
      <use x="52.019531" xlink:href="#DejaVuSans-117"/>
      <use x="115.398438" xlink:href="#DejaVuSans-122"/>
      <use x="167.888672" xlink:href="#DejaVuSans-122"/>
      <use x="220.378906" xlink:href="#DejaVuSans-101"/>
      <use x="281.902344" xlink:href="#DejaVuSans-114"/>
      <use x="323.015625" xlink:href="#DejaVuSans-32"/>
      <use x="354.802734" xlink:href="#DejaVuSans-40"/>
      <use x="393.816406" xlink:href="#DejaVuSans-104"/>
      <use x="457.195312" xlink:href="#DejaVuSans-105"/>
      <use x="484.978516" xlink:href="#DejaVuSans-103"/>
      <use x="548.455078" xlink:href="#DejaVuSans-104"/>
      <use x="611.833984" xlink:href="#DejaVuSans-101"/>
      <use x="673.357422" xlink:href="#DejaVuSans-115"/>
      <use x="725.457031" xlink:href="#DejaVuSans-116"/>
      <use x="764.666016" xlink:href="#DejaVuSans-32"/>
      <use x="796.453125" xlink:href="#DejaVuSans-109"/>
      <use x="893.865234" xlink:href="#DejaVuSans-101"/>
      <use x="955.388672" xlink:href="#DejaVuSans-100"/>
      <use x="1018.865234" xlink:href="#DejaVuSans-105"/>
      <use x="1046.648438" xlink:href="#DejaVuSans-97"/>
      <use x="1107.927734" xlink:href="#DejaVuSans-110"/>
      <use x="1171.306641" xlink:href="#DejaVuSans-32"/>
      <use x="1203.09375" xlink:href="#DejaVuSans-99"/>
      <use x="1258.074219" xlink:href="#DejaVuSans-111"/>
      <use x="1319.255859" xlink:href="#DejaVuSans-118"/>
      <use x="1378.435547" xlink:href="#DejaVuSans-101"/>
      <use x="1439.958984" xlink:href="#DejaVuSans-114"/>
      <use x="1481.072266" xlink:href="#DejaVuSans-97"/>
      <use x="1542.351562" xlink:href="#DejaVuSans-103"/>
      <use x="1605.828125" xlink:href="#DejaVuSans-101"/>
      <use x="1667.351562" xlink:href="#DejaVuSans-32"/>
      <use x="1699.138672" xlink:href="#DejaVuSans-111"/>
      <use x="1760.320312" xlink:href="#DejaVuSans-110"/>
      <use x="1823.699219" xlink:href="#DejaVuSans-32"/>
      <use x="1855.486328" xlink:href="#DejaVuSans-116"/>
      <use x="1894.695312" xlink:href="#DejaVuSans-104"/>
      <use x="1958.074219" xlink:href="#DejaVuSans-101"/>
      <use x="2019.597656" xlink:href="#DejaVuSans-32"/>
      <use x="2051.384766" xlink:href="#DejaVuSans-108"/>
      <use x="2079.167969" xlink:href="#DejaVuSans-101"/>
      <use x="2140.691406" xlink:href="#DejaVuSans-102"/>
      <use x="2174.146484" xlink:href="#DejaVuSans-116"/>
      <use x="2213.355469" xlink:href="#DejaVuSans-41"/>
     </g>
    </g>
   </g>
   <g id="matplotlib.axis_2">
    <g id="ytick_1">
     <g id="line2d_4">
      <defs>
       <path d="M 0 0 
L -3.5 0 
" id="m3a8814ff60" style="stroke:#000000;stroke-width:0.8;"/>
      </defs>
      <g>
       <use style="stroke:#000000;stroke-width:0.8;" x="53.328125" xlink:href="#m3a8814ff60" y="271.939334"/>
      </g>
     </g>
     <g id="text_5">
      <!-- 1820 -->
      <g transform="translate(20.878125 275.738553)scale(0.1 -0.1)">
       <defs>
        <path d="M 12.40625 8.296875 
L 28.515625 8.296875 
L 28.515625 63.921875 
L 10.984375 60.40625 
L 10.984375 69.390625 
L 28.421875 72.90625 
L 38.28125 72.90625 
L 38.28125 8.296875 
L 54.390625 8.296875 
L 54.390625 0 
L 12.40625 0 
z
" id="DejaVuSans-49"/>
        <path d="M 31.78125 34.625 
Q 24.75 34.625 20.71875 30.859375 
Q 16.703125 27.09375 16.703125 20.515625 
Q 16.703125 13.921875 20.71875 10.15625 
Q 24.75 6.390625 31.78125 6.390625 
Q 38.8125 6.390625 42.859375 10.171875 
Q 46.921875 13.96875 46.921875 20.515625 
Q 46.921875 27.09375 42.890625 30.859375 
Q 38.875 34.625 31.78125 34.625 
z
M 21.921875 38.8125 
Q 15.578125 40.375 12.03125 44.71875 
Q 8.5 49.078125 8.5 55.328125 
Q 8.5 64.0625 14.71875 69.140625 
Q 20.953125 74.21875 31.78125 74.21875 
Q 42.671875 74.21875 48.875 69.140625 
Q 55.078125 64.0625 55.078125 55.328125 
Q 55.078125 49.078125 51.53125 44.71875 
Q 48 40.375 41.703125 38.8125 
Q 48.828125 37.15625 52.796875 32.3125 
Q 56.78125 27.484375 56.78125 20.515625 
Q 56.78125 9.90625 50.3125 4.234375 
Q 43.84375 -1.421875 31.78125 -1.421875 
Q 19.734375 -1.421875 13.25 4.234375 
Q 6.78125 9.90625 6.78125 20.515625 
Q 6.78125 27.484375 10.78125 32.3125 
Q 14.796875 37.15625 21.921875 38.8125 
z
M 18.3125 54.390625 
Q 18.3125 48.734375 21.84375 45.5625 
Q 25.390625 42.390625 31.78125 42.390625 
Q 38.140625 42.390625 41.71875 45.5625 
Q 45.3125 48.734375 45.3125 54.390625 
Q 45.3125 60.0625 41.71875 63.234375 
Q 38.140625 66.40625 31.78125 66.40625 
Q 25.390625 66.40625 21.84375 63.234375 
Q 18.3125 60.0625 18.3125 54.390625 
z
" id="DejaVuSans-56"/>
        <path d="M 19.1875 8.296875 
L 53.609375 8.296875 
L 53.609375 0 
L 7.328125 0 
L 7.328125 8.296875 
Q 12.9375 14.109375 22.625 23.890625 
Q 32.328125 33.6875 34.8125 36.53125 
Q 39.546875 41.84375 41.421875 45.53125 
Q 43.3125 49.21875 43.3125 52.78125 
Q 43.3125 58.59375 39.234375 62.25 
Q 35.15625 65.921875 28.609375 65.921875 
Q 23.96875 65.921875 18.8125 64.3125 
Q 13.671875 62.703125 7.8125 59.421875 
L 7.8125 69.390625 
Q 13.765625 71.78125 18.9375 73 
Q 24.125 74.21875 28.421875 74.21875 
Q 39.75 74.21875 46.484375 68.546875 
Q 53.21875 62.890625 53.21875 53.421875 
Q 53.21875 48.921875 51.53125 44.890625 
Q 49.859375 40.875 45.40625 35.40625 
Q 44.1875 33.984375 37.640625 27.21875 
Q 31.109375 20.453125 19.1875 8.296875 
z
" id="DejaVuSans-50"/>
        <path d="M 31.78125 66.40625 
Q 24.171875 66.40625 20.328125 58.90625 
Q 16.5 51.421875 16.5 36.375 
Q 16.5 21.390625 20.328125 13.890625 
Q 24.171875 6.390625 31.78125 6.390625 
Q 39.453125 6.390625 43.28125 13.890625 
Q 47.125 21.390625 47.125 36.375 
Q 47.125 51.421875 43.28125 58.90625 
Q 39.453125 66.40625 31.78125 66.40625 
z
M 31.78125 74.21875 
Q 44.046875 74.21875 50.515625 64.515625 
Q 56.984375 54.828125 56.984375 36.375 
Q 56.984375 17.96875 50.515625 8.265625 
Q 44.046875 -1.421875 31.78125 -1.421875 
Q 19.53125 -1.421875 13.0625 8.265625 
Q 6.59375 17.96875 6.59375 36.375 
Q 6.59375 54.828125 13.0625 64.515625 
Q 19.53125 74.21875 31.78125 74.21875 
z
" id="DejaVuSans-48"/>
       </defs>
       <use xlink:href="#DejaVuSans-49"/>
       <use x="63.623047" xlink:href="#DejaVuSans-56"/>
       <use x="127.246094" xlink:href="#DejaVuSans-50"/>
       <use x="190.869141" xlink:href="#DejaVuSans-48"/>
      </g>
     </g>
    </g>
    <g id="ytick_2">
     <g id="line2d_5">
      <g>
       <use style="stroke:#000000;stroke-width:0.8;" x="53.328125" xlink:href="#m3a8814ff60" y="240.855278"/>
      </g>
     </g>
     <g id="text_6">
      <!-- 1840 -->
      <g transform="translate(20.878125 244.654497)scale(0.1 -0.1)">
       <defs>
        <path d="M 37.796875 64.3125 
L 12.890625 25.390625 
L 37.796875 25.390625 
z
M 35.203125 72.90625 
L 47.609375 72.90625 
L 47.609375 25.390625 
L 58.015625 25.390625 
L 58.015625 17.1875 
L 47.609375 17.1875 
L 47.609375 0 
L 37.796875 0 
L 37.796875 17.1875 
L 4.890625 17.1875 
L 4.890625 26.703125 
z
" id="DejaVuSans-52"/>
       </defs>
       <use xlink:href="#DejaVuSans-49"/>
       <use x="63.623047" xlink:href="#DejaVuSans-56"/>
       <use x="127.246094" xlink:href="#DejaVuSans-52"/>
       <use x="190.869141" xlink:href="#DejaVuSans-48"/>
      </g>
     </g>
    </g>
    <g id="ytick_3">
     <g id="line2d_6">
      <g>
       <use style="stroke:#000000;stroke-width:0.8;" x="53.328125" xlink:href="#m3a8814ff60" y="209.771223"/>
      </g>
     </g>
     <g id="text_7">
      <!-- 1860 -->
      <g transform="translate(20.878125 213.570441)scale(0.1 -0.1)">
       <defs>
        <path d="M 33.015625 40.375 
Q 26.375 40.375 22.484375 35.828125 
Q 18.609375 31.296875 18.609375 23.390625 
Q 18.609375 15.53125 22.484375 10.953125 
Q 26.375 6.390625 33.015625 6.390625 
Q 39.65625 6.390625 43.53125 10.953125 
Q 47.40625 15.53125 47.40625 23.390625 
Q 47.40625 31.296875 43.53125 35.828125 
Q 39.65625 40.375 33.015625 40.375 
z
M 52.59375 71.296875 
L 52.59375 62.3125 
Q 48.875 64.0625 45.09375 64.984375 
Q 41.3125 65.921875 37.59375 65.921875 
Q 27.828125 65.921875 22.671875 59.328125 
Q 17.53125 52.734375 16.796875 39.40625 
Q 19.671875 43.65625 24.015625 45.921875 
Q 28.375 48.1875 33.59375 48.1875 
Q 44.578125 48.1875 50.953125 41.515625 
Q 57.328125 34.859375 57.328125 23.390625 
Q 57.328125 12.15625 50.6875 5.359375 
Q 44.046875 -1.421875 33.015625 -1.421875 
Q 20.359375 -1.421875 13.671875 8.265625 
Q 6.984375 17.96875 6.984375 36.375 
Q 6.984375 53.65625 15.1875 63.9375 
Q 23.390625 74.21875 37.203125 74.21875 
Q 40.921875 74.21875 44.703125 73.484375 
Q 48.484375 72.75 52.59375 71.296875 
z
" id="DejaVuSans-54"/>
       </defs>
       <use xlink:href="#DejaVuSans-49"/>
       <use x="63.623047" xlink:href="#DejaVuSans-56"/>
       <use x="127.246094" xlink:href="#DejaVuSans-54"/>
       <use x="190.869141" xlink:href="#DejaVuSans-48"/>
      </g>
     </g>
    </g>
    <g id="ytick_4">
     <g id="line2d_7">
      <g>
       <use style="stroke:#000000;stroke-width:0.8;" x="53.328125" xlink:href="#m3a8814ff60" y="178.687167"/>
      </g>
     </g>
     <g id="text_8">
      <!-- 1880 -->
      <g transform="translate(20.878125 182.486386)scale(0.1 -0.1)">
       <use xlink:href="#DejaVuSans-49"/>
       <use x="63.623047" xlink:href="#DejaVuSans-56"/>
       <use x="127.246094" xlink:href="#DejaVuSans-56"/>
       <use x="190.869141" xlink:href="#DejaVuSans-48"/>
      </g>
     </g>
    </g>
    <g id="ytick_5">
     <g id="line2d_8">
      <g>
       <use style="stroke:#000000;stroke-width:0.8;" x="53.328125" xlink:href="#m3a8814ff60" y="147.603111"/>
      </g>
     </g>
     <g id="text_9">
      <!-- 1900 -->
      <g transform="translate(20.878125 151.40233)scale(0.1 -0.1)">
       <defs>
        <path d="M 10.984375 1.515625 
L 10.984375 10.5 
Q 14.703125 8.734375 18.5 7.8125 
Q 22.3125 6.890625 25.984375 6.890625 
Q 35.75 6.890625 40.890625 13.453125 
Q 46.046875 20.015625 46.78125 33.40625 
Q 43.953125 29.203125 39.59375 26.953125 
Q 35.25 24.703125 29.984375 24.703125 
Q 19.046875 24.703125 12.671875 31.3125 
Q 6.296875 37.9375 6.296875 49.421875 
Q 6.296875 60.640625 12.9375 67.421875 
Q 19.578125 74.21875 30.609375 74.21875 
Q 43.265625 74.21875 49.921875 64.515625 
Q 56.59375 54.828125 56.59375 36.375 
Q 56.59375 19.140625 48.40625 8.859375 
Q 40.234375 -1.421875 26.421875 -1.421875 
Q 22.703125 -1.421875 18.890625 -0.6875 
Q 15.09375 0.046875 10.984375 1.515625 
z
M 30.609375 32.421875 
Q 37.25 32.421875 41.125 36.953125 
Q 45.015625 41.5 45.015625 49.421875 
Q 45.015625 57.28125 41.125 61.84375 
Q 37.25 66.40625 30.609375 66.40625 
Q 23.96875 66.40625 20.09375 61.84375 
Q 16.21875 57.28125 16.21875 49.421875 
Q 16.21875 41.5 20.09375 36.953125 
Q 23.96875 32.421875 30.609375 32.421875 
z
" id="DejaVuSans-57"/>
       </defs>
       <use xlink:href="#DejaVuSans-49"/>
       <use x="63.623047" xlink:href="#DejaVuSans-57"/>
       <use x="127.246094" xlink:href="#DejaVuSans-48"/>
       <use x="190.869141" xlink:href="#DejaVuSans-48"/>
      </g>
     </g>
    </g>
    <g id="ytick_6">
     <g id="line2d_9">
      <g>
       <use style="stroke:#000000;stroke-width:0.8;" x="53.328125" xlink:href="#m3a8814ff60" y="116.519055"/>
      </g>
     </g>
     <g id="text_10">
      <!-- 1920 -->
      <g transform="translate(20.878125 120.318274)scale(0.1 -0.1)">
       <use xlink:href="#DejaVuSans-49"/>
       <use x="63.623047" xlink:href="#DejaVuSans-57"/>
       <use x="127.246094" xlink:href="#DejaVuSans-50"/>
       <use x="190.869141" xlink:href="#DejaVuSans-48"/>
      </g>
     </g>
    </g>
    <g id="ytick_7">
     <g id="line2d_10">
      <g>
       <use style="stroke:#000000;stroke-width:0.8;" x="53.328125" xlink:href="#m3a8814ff60" y="85.435"/>
      </g>
     </g>
     <g id="text_11">
      <!-- 1940 -->
      <g transform="translate(20.878125 89.234218)scale(0.1 -0.1)">
       <use xlink:href="#DejaVuSans-49"/>
       <use x="63.623047" xlink:href="#DejaVuSans-57"/>
       <use x="127.246094" xlink:href="#DejaVuSans-52"/>
       <use x="190.869141" xlink:href="#DejaVuSans-48"/>
      </g>
     </g>
    </g>
    <g id="ytick_8">
     <g id="line2d_11">
      <g>
       <use style="stroke:#000000;stroke-width:0.8;" x="53.328125" xlink:href="#m3a8814ff60" y="54.350944"/>
      </g>
     </g>
     <g id="text_12">
      <!-- 1960 -->
      <g transform="translate(20.878125 58.150163)scale(0.1 -0.1)">
       <use xlink:href="#DejaVuSans-49"/>
       <use x="63.623047" xlink:href="#DejaVuSans-57"/>
       <use x="127.246094" xlink:href="#DejaVuSans-54"/>
       <use x="190.869141" xlink:href="#DejaVuSans-48"/>
      </g>
     </g>
    </g>
    <g id="ytick_9">
     <g id="line2d_12">
      <g>
       <use style="stroke:#000000;stroke-width:0.8;" x="53.328125" xlink:href="#m3a8814ff60" y="23.266888"/>
      </g>
     </g>
     <g id="text_13">
      <!-- 1980 -->
      <g transform="translate(20.878125 27.066107)scale(0.1 -0.1)">
       <use xlink:href="#DejaVuSans-49"/>
       <use x="63.623047" xlink:href="#DejaVuSans-57"/>
       <use x="127.246094" xlink:href="#DejaVuSans-56"/>
       <use x="190.869141" xlink:href="#DejaVuSans-48"/>
      </g>
     </g>
    </g>
    <g id="text_14">
     <!-- Reached edge coverage -->
     <g transform="translate(14.798438 215.82725)rotate(-90)scale(0.1 -0.1)">
      <defs>
       <path d="M 44.390625 34.1875 
Q 47.5625 33.109375 50.5625 29.59375 
Q 53.5625 26.078125 56.59375 19.921875 
L 66.609375 0 
L 56 0 
L 46.6875 18.703125 
Q 43.0625 26.03125 39.671875 28.421875 
Q 36.28125 30.8125 30.421875 30.8125 
L 19.671875 30.8125 
L 19.671875 0 
L 9.8125 0 
L 9.8125 72.90625 
L 32.078125 72.90625 
Q 44.578125 72.90625 50.734375 67.671875 
Q 56.890625 62.453125 56.890625 51.90625 
Q 56.890625 45.015625 53.6875 40.46875 
Q 50.484375 35.9375 44.390625 34.1875 
z
M 19.671875 64.796875 
L 19.671875 38.921875 
L 32.078125 38.921875 
Q 39.203125 38.921875 42.84375 42.21875 
Q 46.484375 45.515625 46.484375 51.90625 
Q 46.484375 58.296875 42.84375 61.546875 
Q 39.203125 64.796875 32.078125 64.796875 
z
" id="DejaVuSans-82"/>
      </defs>
      <use xlink:href="#DejaVuSans-82"/>
      <use x="64.982422" xlink:href="#DejaVuSans-101"/>
      <use x="126.505859" xlink:href="#DejaVuSans-97"/>
      <use x="187.785156" xlink:href="#DejaVuSans-99"/>
      <use x="242.765625" xlink:href="#DejaVuSans-104"/>
      <use x="306.144531" xlink:href="#DejaVuSans-101"/>
      <use x="367.667969" xlink:href="#DejaVuSans-100"/>
      <use x="431.144531" xlink:href="#DejaVuSans-32"/>
      <use x="462.931641" xlink:href="#DejaVuSans-101"/>
      <use x="524.455078" xlink:href="#DejaVuSans-100"/>
      <use x="587.931641" xlink:href="#DejaVuSans-103"/>
      <use x="651.408203" xlink:href="#DejaVuSans-101"/>
      <use x="712.931641" xlink:href="#DejaVuSans-32"/>
      <use x="744.71875" xlink:href="#DejaVuSans-99"/>
      <use x="799.699219" xlink:href="#DejaVuSans-111"/>
      <use x="860.880859" xlink:href="#DejaVuSans-118"/>
      <use x="920.060547" xlink:href="#DejaVuSans-101"/>
      <use x="981.583984" xlink:href="#DejaVuSans-114"/>
      <use x="1022.697266" xlink:href="#DejaVuSans-97"/>
      <use x="1083.976562" xlink:href="#DejaVuSans-103"/>
      <use x="1147.453125" xlink:href="#DejaVuSans-101"/>
     </g>
    </g>
   </g>
   <g id="line2d_13">
    <path clip-path="url(#p5960ab73cc)" d="M 112.848125 152.265719 
L 112.848125 133.615286 
" style="fill:none;stroke:#3f3f3f;stroke-linecap:square;stroke-width:1.5;"/>
   </g>
   <g id="line2d_14">
    <path clip-path="url(#p5960ab73cc)" d="M 112.848125 149.157314 
L 112.848125 133.615286 
" style="fill:none;stroke:#3f3f3f;stroke-linecap:square;stroke-width:4.5;"/>
   </g>
   <g id="line2d_15">
    <path clip-path="url(#p5960ab73cc)" d="M 231.888125 194.229195 
L 231.888125 128.952678 
" style="fill:none;stroke:#3f3f3f;stroke-linecap:square;stroke-width:1.5;"/>
   </g>
   <g id="line2d_16">
    <path clip-path="url(#p5960ab73cc)" d="M 231.888125 164.699342 
L 231.888125 135.169489 
" style="fill:none;stroke:#3f3f3f;stroke-linecap:square;stroke-width:4.5;"/>
   </g>
   <g id="line2d_17">
    <path clip-path="url(#p5960ab73cc)" d="M 350.928125 212.879628 
L 350.928125 97.868622 
" style="fill:none;stroke:#3f3f3f;stroke-linecap:square;stroke-width:1.5;"/>
   </g>
   <g id="line2d_18">
    <path clip-path="url(#p5960ab73cc)" d="M 350.928125 167.807747 
L 350.928125 124.290069 
" style="fill:none;stroke:#3f3f3f;stroke-linecap:square;stroke-width:4.5;"/>
   </g>
   <g id="patch_3">
    <path d="M 53.328125 271.939334 
L 53.328125 23.266888 
" style="fill:none;stroke:#000000;stroke-linecap:square;stroke-linejoin:miter;stroke-width:0.8;"/>
   </g>
   <g id="patch_4">
    <path d="M 112.848125 288.430125 
L 350.928125 288.430125 
" style="fill:none;stroke:#000000;stroke-linecap:square;stroke-linejoin:miter;stroke-width:0.8;"/>
   </g>
   <g id="PathCollection_1">
    <defs>
     <path d="M 0 1.5 
C 0.397805 1.5 0.77937 1.341951 1.06066 1.06066 
C 1.341951 0.77937 1.5 0.397805 1.5 0 
C 1.5 -0.397805 1.341951 -0.77937 1.06066 -1.06066 
C 0.77937 -1.341951 0.397805 -1.5 0 -1.5 
C -0.397805 -1.5 -0.77937 -1.341951 -1.06066 -1.06066 
C -1.341951 -0.77937 -1.5 -0.397805 -1.5 0 
C -1.5 0.397805 -1.341951 0.77937 -1.06066 1.06066 
C -0.77937 1.341951 -0.397805 1.5 0 1.5 
z
" id="mb2ac0c3ee2" style="stroke:#3f3f3f;"/>
    </defs>
    <g clip-path="url(#p5960ab73cc)">
     <use style="fill:#ffffff;stroke:#3f3f3f;" x="112.848125" xlink:href="#mb2ac0c3ee2" y="138.277894"/>
    </g>
   </g>
   <g id="PathCollection_2">
    <g clip-path="url(#p5960ab73cc)">
     <use style="fill:#ffffff;stroke:#3f3f3f;" x="231.888125" xlink:href="#mb2ac0c3ee2" y="144.494705"/>
    </g>
   </g>
   <g id="PathCollection_3">
    <g clip-path="url(#p5960ab73cc)">
     <use style="fill:#ffffff;stroke:#3f3f3f;" x="350.928125" xlink:href="#mb2ac0c3ee2" y="146.048908"/>
    </g>
   </g>
   <g id="text_15">
    <!-- libpng-1.2.56 (22h, 5 trials/fuzzer) -->
    <g transform="translate(129.164375 16.318125)scale(0.12 -0.12)">
     <defs>
      <path d="M 48.6875 27.296875 
Q 48.6875 37.203125 44.609375 42.84375 
Q 40.53125 48.484375 33.40625 48.484375 
Q 26.265625 48.484375 22.1875 42.84375 
Q 18.109375 37.203125 18.109375 27.296875 
Q 18.109375 17.390625 22.1875 11.75 
Q 26.265625 6.109375 33.40625 6.109375 
Q 40.53125 6.109375 44.609375 11.75 
Q 48.6875 17.390625 48.6875 27.296875 
z
M 18.109375 46.390625 
Q 20.953125 51.265625 25.265625 53.625 
Q 29.59375 56 35.59375 56 
Q 45.5625 56 51.78125 48.09375 
Q 58.015625 40.1875 58.015625 27.296875 
Q 58.015625 14.40625 51.78125 6.484375 
Q 45.5625 -1.421875 35.59375 -1.421875 
Q 29.59375 -1.421875 25.265625 0.953125 
Q 20.953125 3.328125 18.109375 8.203125 
L 18.109375 0 
L 9.078125 0 
L 9.078125 75.984375 
L 18.109375 75.984375 
z
" id="DejaVuSans-98"/>
      <path d="M 4.890625 31.390625 
L 31.203125 31.390625 
L 31.203125 23.390625 
L 4.890625 23.390625 
z
" id="DejaVuSans-45"/>
      <path d="M 10.6875 12.40625 
L 21 12.40625 
L 21 0 
L 10.6875 0 
z
" id="DejaVuSans-46"/>
      <path d="M 10.796875 72.90625 
L 49.515625 72.90625 
L 49.515625 64.59375 
L 19.828125 64.59375 
L 19.828125 46.734375 
Q 21.96875 47.46875 24.109375 47.828125 
Q 26.265625 48.1875 28.421875 48.1875 
Q 40.625 48.1875 47.75 41.5 
Q 54.890625 34.8125 54.890625 23.390625 
Q 54.890625 11.625 47.5625 5.09375 
Q 40.234375 -1.421875 26.90625 -1.421875 
Q 22.3125 -1.421875 17.546875 -0.640625 
Q 12.796875 0.140625 7.71875 1.703125 
L 7.71875 11.625 
Q 12.109375 9.234375 16.796875 8.0625 
Q 21.484375 6.890625 26.703125 6.890625 
Q 35.15625 6.890625 40.078125 11.328125 
Q 45.015625 15.765625 45.015625 23.390625 
Q 45.015625 31 40.078125 35.4375 
Q 35.15625 39.890625 26.703125 39.890625 
Q 22.75 39.890625 18.8125 39.015625 
Q 14.890625 38.140625 10.796875 36.28125 
z
" id="DejaVuSans-53"/>
      <path d="M 11.71875 12.40625 
L 22.015625 12.40625 
L 22.015625 4 
L 14.015625 -11.625 
L 7.71875 -11.625 
L 11.71875 4 
z
" id="DejaVuSans-44"/>
      <path d="M 25.390625 72.90625 
L 33.6875 72.90625 
L 8.296875 -9.28125 
L 0 -9.28125 
z
" id="DejaVuSans-47"/>
     </defs>
     <use xlink:href="#DejaVuSans-108"/>
     <use x="27.783203" xlink:href="#DejaVuSans-105"/>
     <use x="55.566406" xlink:href="#DejaVuSans-98"/>
     <use x="119.042969" xlink:href="#DejaVuSans-112"/>
     <use x="182.519531" xlink:href="#DejaVuSans-110"/>
     <use x="245.898438" xlink:href="#DejaVuSans-103"/>
     <use x="309.375" xlink:href="#DejaVuSans-45"/>
     <use x="345.458984" xlink:href="#DejaVuSans-49"/>
     <use x="409.082031" xlink:href="#DejaVuSans-46"/>
     <use x="440.869141" xlink:href="#DejaVuSans-50"/>
     <use x="504.492188" xlink:href="#DejaVuSans-46"/>
     <use x="536.279297" xlink:href="#DejaVuSans-53"/>
     <use x="599.902344" xlink:href="#DejaVuSans-54"/>
     <use x="663.525391" xlink:href="#DejaVuSans-32"/>
     <use x="695.3125" xlink:href="#DejaVuSans-40"/>
     <use x="734.326172" xlink:href="#DejaVuSans-50"/>
     <use x="797.949219" xlink:href="#DejaVuSans-50"/>
     <use x="861.572266" xlink:href="#DejaVuSans-104"/>
     <use x="924.951172" xlink:href="#DejaVuSans-44"/>
     <use x="956.738281" xlink:href="#DejaVuSans-32"/>
     <use x="988.525391" xlink:href="#DejaVuSans-53"/>
     <use x="1052.148438" xlink:href="#DejaVuSans-32"/>
     <use x="1083.935547" xlink:href="#DejaVuSans-116"/>
     <use x="1123.144531" xlink:href="#DejaVuSans-114"/>
     <use x="1164.257812" xlink:href="#DejaVuSans-105"/>
     <use x="1192.041016" xlink:href="#DejaVuSans-97"/>
     <use x="1253.320312" xlink:href="#DejaVuSans-108"/>
     <use x="1281.103516" xlink:href="#DejaVuSans-115"/>
     <use x="1333.203125" xlink:href="#DejaVuSans-47"/>
     <use x="1366.894531" xlink:href="#DejaVuSans-102"/>
     <use x="1402.099609" xlink:href="#DejaVuSans-117"/>
     <use x="1465.478516" xlink:href="#DejaVuSans-122"/>
     <use x="1517.96875" xlink:href="#DejaVuSans-122"/>
     <use x="1570.458984" xlink:href="#DejaVuSans-101"/>
     <use x="1631.982422" xlink:href="#DejaVuSans-114"/>
     <use x="1673.095703" xlink:href="#DejaVuSans-41"/>
    </g>
   </g>
  </g>
 </g>
 <defs>
  <clipPath id="p5960ab73cc">
   <rect height="266.112" width="357.12" x="53.328125" y="22.318125"/>
  </clipPath>
 </defs>
</svg>
