<?xml version="1.0" encoding="utf-8" standalone="no"?>
<!DOCTYPE svg PUBLIC "-//W3C//DTD SVG 1.1//EN"
  "http://www.w3.org/Graphics/SVG/1.1/DTD/svg11.dtd">
<!-- Created with matplotlib (https://matplotlib.org/) -->
<svg height="365.293115pt" version="1.1" viewBox="0 0 424.010625 365.293115" width="424.010625pt" xmlns="http://www.w3.org/2000/svg" xmlns:xlink="http://www.w3.org/1999/xlink">
 <metadata>
  <rdf:RDF xmlns:cc="http://creativecommons.org/ns#" xmlns:dc="http://purl.org/dc/elements/1.1/" xmlns:rdf="http://www.w3.org/1999/02/22-rdf-syntax-ns#">
   <cc:Work>
    <dc:type rdf:resource="http://purl.org/dc/dcmitype/StillImage"/>
    <dc:date>2020-08-24T21:07:41.234786</dc:date>
    <dc:format>image/svg+xml</dc:format>
    <dc:creator>
     <cc:Agent>
      <dc:title>Matplotlib v3.3.1, https://matplotlib.org/</dc:title>
     </cc:Agent>
    </dc:creator>
   </cc:Work>
  </rdf:RDF>
 </metadata>
 <defs>
  <style type="text/css">*{stroke-linecap:butt;stroke-linejoin:round;}</style>
 </defs>
 <g id="figure_1">
  <g id="patch_1">
   <path d="M 0 365.293115 
L 424.010625 365.293115 
L 424.010625 0 
L 0 0 
z
" style="fill:#ffffff;"/>
  </g>
  <g id="axes_1">
   <g id="patch_2">
    <path d="M 59.690625 288.430125 
L 416.810625 288.430125 
L 416.810625 22.318125 
L 59.690625 22.318125 
z
" style="fill:#ffffff;"/>
   </g>
   <g id="PolyCollection_1">
    <defs>
     <path d="M 120.21365 -88.95899 
L 118.2076 -88.95899 
L 118.041618 -91.402627 
L 117.855051 -93.846263 
L 117.646629 -96.2899 
L 117.415227 -98.733536 
L 117.159911 -101.177172 
L 116.879978 -103.620809 
L 116.575005 -106.064445 
L 116.244885 -108.508081 
L 115.889864 -110.951718 
L 115.510577 -113.395354 
L 115.108068 -115.83899 
L 114.683809 -118.282627 
L 114.239701 -120.726263 
L 113.778068 -123.1699 
L 113.30164 -125.613536 
L 112.813519 -128.057172 
L 112.317135 -130.500809 
L 111.816186 -132.944445 
L 111.314572 -135.388081 
L 110.816316 -137.831718 
L 110.325475 -140.275354 
L 109.846052 -142.71899 
L 109.3819 -145.162627 
L 108.936631 -147.606263 
L 108.513523 -150.0499 
L 108.115444 -152.493536 
L 107.744775 -154.937172 
L 107.403357 -157.380809 
L 107.092443 -159.824445 
L 106.812677 -162.268081 
L 106.564082 -164.711718 
L 106.346077 -167.155354 
L 106.157504 -169.59899 
L 105.996677 -172.042627 
L 105.861447 -174.486263 
L 105.749279 -176.9299 
L 105.657343 -179.373536 
L 105.582611 -181.817172 
L 105.52196 -184.260809 
L 105.472273 -186.704445 
L 105.430541 -189.148081 
L 105.393961 -191.591718 
L 105.36002 -194.035354 
L 105.326573 -196.47899 
L 105.291903 -198.922627 
L 105.254772 -201.366263 
L 105.214455 -203.8099 
L 105.17075 -206.253536 
L 105.123985 -208.697172 
L 105.075 -211.140809 
L 105.025115 -213.584445 
L 104.976095 -216.028081 
L 104.930087 -218.471718 
L 104.889563 -220.915354 
L 104.857247 -223.35899 
L 104.83604 -225.802627 
L 104.828937 -228.246263 
L 104.838951 -230.6899 
L 104.869026 -233.133536 
L 104.921968 -235.577172 
L 105.000361 -238.020809 
L 105.106509 -240.464445 
L 105.242366 -242.908081 
L 105.409492 -245.351718 
L 105.609003 -247.795354 
L 105.841542 -250.23899 
L 106.107257 -252.682627 
L 106.405789 -255.126263 
L 106.736273 -257.5699 
L 107.097353 -260.013536 
L 107.487201 -262.457172 
L 107.903555 -264.900809 
L 108.343757 -267.344445 
L 108.804809 -269.788081 
L 109.28343 -272.231718 
L 109.776116 -274.675354 
L 110.279215 -277.11899 
L 110.788988 -279.562627 
L 111.301683 -282.006263 
L 111.813602 -284.4499 
L 112.321165 -286.893536 
L 112.820971 -289.337172 
L 113.309845 -291.780809 
L 113.784892 -294.224445 
L 114.243526 -296.668081 
L 114.683505 -299.111718 
L 115.102946 -301.555354 
L 115.500333 -303.99899 
L 115.874524 -306.442627 
L 116.224739 -308.886263 
L 116.550546 -311.3299 
L 116.85184 -313.773536 
L 117.128818 -316.217172 
L 117.381947 -318.660809 
L 117.611927 -321.104445 
L 117.819662 -323.548081 
L 118.006218 -325.991718 
L 118.172789 -328.435354 
L 118.320663 -330.87899 
L 120.100587 -330.87899 
L 120.100587 -330.87899 
L 120.248461 -328.435354 
L 120.415032 -325.991718 
L 120.601588 -323.548081 
L 120.809323 -321.104445 
L 121.039303 -318.660809 
L 121.292432 -316.217172 
L 121.56941 -313.773536 
L 121.870704 -311.3299 
L 122.196511 -308.886263 
L 122.546726 -306.442627 
L 122.920917 -303.99899 
L 123.318304 -301.555354 
L 123.737745 -299.111718 
L 124.177724 -296.668081 
L 124.636358 -294.224445 
L 125.111405 -291.780809 
L 125.600279 -289.337172 
L 126.100085 -286.893536 
L 126.607648 -284.4499 
L 127.119567 -282.006263 
L 127.632262 -279.562627 
L 128.142035 -277.11899 
L 128.645134 -274.675354 
L 129.13782 -272.231718 
L 129.616441 -269.788081 
L 130.077493 -267.344445 
L 130.517695 -264.900809 
L 130.934049 -262.457172 
L 131.323897 -260.013536 
L 131.684977 -257.5699 
L 132.015461 -255.126263 
L 132.313993 -252.682627 
L 132.579708 -250.23899 
L 132.812247 -247.795354 
L 133.011758 -245.351718 
L 133.178884 -242.908081 
L 133.314741 -240.464445 
L 133.420889 -238.020809 
L 133.499282 -235.577172 
L 133.552224 -233.133536 
L 133.582299 -230.6899 
L 133.592313 -228.246263 
L 133.58521 -225.802627 
L 133.564003 -223.35899 
L 133.531687 -220.915354 
L 133.491163 -218.471718 
L 133.445155 -216.028081 
L 133.396135 -213.584445 
L 133.34625 -211.140809 
L 133.297265 -208.697172 
L 133.2505 -206.253536 
L 133.206795 -203.8099 
L 133.166478 -201.366263 
L 133.129347 -198.922627 
L 133.094677 -196.47899 
L 133.06123 -194.035354 
L 133.027289 -191.591718 
L 132.990709 -189.148081 
L 132.948977 -186.704445 
L 132.89929 -184.260809 
L 132.838639 -181.817172 
L 132.763907 -179.373536 
L 132.671971 -176.9299 
L 132.559803 -174.486263 
L 132.424573 -172.042627 
L 132.263746 -169.59899 
L 132.075173 -167.155354 
L 131.857168 -164.711718 
L 131.608573 -162.268081 
L 131.328807 -159.824445 
L 131.017893 -157.380809 
L 130.676475 -154.937172 
L 130.305806 -152.493536 
L 129.907727 -150.0499 
L 129.484619 -147.606263 
L 129.03935 -145.162627 
L 128.575198 -142.71899 
L 128.095775 -140.275354 
L 127.604934 -137.831718 
L 127.106678 -135.388081 
L 126.605064 -132.944445 
L 126.104115 -130.500809 
L 125.607731 -128.057172 
L 125.11961 -125.613536 
L 124.643182 -123.1699 
L 124.181549 -120.726263 
L 123.737441 -118.282627 
L 123.313182 -115.83899 
L 122.910673 -113.395354 
L 122.531386 -110.951718 
L 122.176365 -108.508081 
L 121.846245 -106.064445 
L 121.541272 -103.620809 
L 121.261339 -101.177172 
L 121.006023 -98.733536 
L 120.774621 -96.2899 
L 120.566199 -93.846263 
L 120.379632 -91.402627 
L 120.21365 -88.95899 
z
" id="m9c268dd581" style="stroke:#3f3f3f;stroke-width:1.5;"/>
    </defs>
    <g clip-path="url(#p9b1871832c)">
     <use style="fill:#e1812c;stroke:#3f3f3f;stroke-width:1.5;" x="0" xlink:href="#m9c268dd581" y="365.293115"/>
    </g>
   </g>
   <g id="PolyCollection_2">
    <defs>
     <path d="M 240.206325 -145.741963 
L 236.294925 -145.741963 
L 235.962253 -146.727634 
L 235.589527 -147.713305 
L 235.175114 -148.698976 
L 234.717898 -149.684647 
L 234.217363 -150.670318 
L 233.673672 -151.655989 
L 233.087725 -152.64166 
L 232.461195 -153.627331 
L 231.796534 -154.613002 
L 231.096947 -155.598673 
L 230.366334 -156.584344 
L 229.609182 -157.570016 
L 228.830436 -158.555687 
L 228.035318 -159.541358 
L 227.229125 -160.527029 
L 226.416996 -161.5127 
L 225.603662 -162.498371 
L 224.7932 -163.484042 
L 223.988776 -164.469713 
L 223.19243 -165.455384 
L 222.404877 -166.441055 
L 221.625369 -167.426726 
L 220.851614 -168.412397 
L 220.079766 -169.398068 
L 219.304501 -170.38374 
L 218.51917 -171.369411 
L 217.716047 -172.355082 
L 216.886648 -173.340753 
L 216.022131 -174.326424 
L 215.113755 -175.312095 
L 214.153371 -176.297766 
L 213.133949 -177.283437 
L 212.050085 -178.269108 
L 210.89849 -179.254779 
L 209.67842 -180.24045 
L 208.392021 -181.226121 
L 207.044578 -182.211792 
L 205.64464 -183.197464 
L 204.204005 -184.183135 
L 202.73757 -185.168806 
L 201.263035 -186.154477 
L 199.800471 -187.140148 
L 198.371765 -188.125819 
L 196.999969 -189.11149 
L 195.708569 -190.097161 
L 194.520713 -191.082832 
L 193.458431 -192.068503 
L 192.541882 -193.054174 
L 191.788657 -194.039845 
L 191.213181 -195.025516 
L 190.826237 -196.011188 
L 190.634625 -196.996859 
L 190.640986 -197.98253 
L 190.84379 -198.968201 
L 191.237479 -199.953872 
L 191.812773 -200.939543 
L 192.557103 -201.925214 
L 193.455155 -202.910885 
L 194.489506 -203.896556 
L 195.641296 -204.882227 
L 196.890924 -205.867898 
L 198.218727 -206.853569 
L 199.605608 -207.83924 
L 201.033595 -208.824912 
L 202.486294 -209.810583 
L 203.949241 -210.796254 
L 205.41013 -211.781925 
L 206.858922 -212.767596 
L 208.287835 -213.753267 
L 209.691237 -214.738938 
L 211.065437 -215.724609 
L 212.408427 -216.71028 
L 213.719555 -217.695951 
L 214.999188 -218.681622 
L 216.248366 -219.667293 
L 217.468469 -220.652964 
L 218.660924 -221.638636 
L 219.826953 -222.624307 
L 220.967378 -223.609978 
L 222.082484 -224.595649 
L 223.17195 -225.58132 
L 224.234828 -226.566991 
L 225.269586 -227.552662 
L 226.274183 -228.538333 
L 227.246188 -229.524004 
L 228.182916 -230.509675 
L 229.081576 -231.495346 
L 229.939424 -232.481017 
L 230.753906 -233.466688 
L 231.522783 -234.45236 
L 232.244236 -235.438031 
L 232.916949 -236.423702 
L 233.540163 -237.409373 
L 234.113696 -238.395044 
L 234.637946 -239.380715 
L 235.113867 -240.366386 
L 235.542923 -241.352057 
L 235.927029 -242.337728 
L 236.26848 -243.323399 
L 240.23277 -243.323399 
L 240.23277 -243.323399 
L 240.574221 -242.337728 
L 240.958327 -241.352057 
L 241.387383 -240.366386 
L 241.863304 -239.380715 
L 242.387554 -238.395044 
L 242.961087 -237.409373 
L 243.584301 -236.423702 
L 244.257014 -235.438031 
L 244.978467 -234.45236 
L 245.747344 -233.466688 
L 246.561826 -232.481017 
L 247.419674 -231.495346 
L 248.318334 -230.509675 
L 249.255062 -229.524004 
L 250.227067 -228.538333 
L 251.231664 -227.552662 
L 252.266422 -226.566991 
L 253.3293 -225.58132 
L 254.418766 -224.595649 
L 255.533872 -223.609978 
L 256.674297 -222.624307 
L 257.840326 -221.638636 
L 259.032781 -220.652964 
L 260.252884 -219.667293 
L 261.502062 -218.681622 
L 262.781695 -217.695951 
L 264.092823 -216.71028 
L 265.435813 -215.724609 
L 266.810013 -214.738938 
L 268.213415 -213.753267 
L 269.642328 -212.767596 
L 271.09112 -211.781925 
L 272.552009 -210.796254 
L 274.014956 -209.810583 
L 275.467655 -208.824912 
L 276.895642 -207.83924 
L 278.282523 -206.853569 
L 279.610326 -205.867898 
L 280.859954 -204.882227 
L 282.011744 -203.896556 
L 283.046095 -202.910885 
L 283.944147 -201.925214 
L 284.688477 -200.939543 
L 285.263771 -199.953872 
L 285.65746 -198.968201 
L 285.860264 -197.98253 
L 285.866625 -196.996859 
L 285.675013 -196.011188 
L 285.288069 -195.025516 
L 284.712593 -194.039845 
L 283.959368 -193.054174 
L 283.042819 -192.068503 
L 281.980537 -191.082832 
L 280.792681 -190.097161 
L 279.501281 -189.11149 
L 278.129485 -188.125819 
L 276.700779 -187.140148 
L 275.238215 -186.154477 
L 273.76368 -185.168806 
L 272.297245 -184.183135 
L 270.85661 -183.197464 
L 269.456672 -182.211792 
L 268.109229 -181.226121 
L 266.82283 -180.24045 
L 265.60276 -179.254779 
L 264.451165 -178.269108 
L 263.367301 -177.283437 
L 262.347879 -176.297766 
L 261.387495 -175.312095 
L 260.479119 -174.326424 
L 259.614602 -173.340753 
L 258.785203 -172.355082 
L 257.98208 -171.369411 
L 257.196749 -170.38374 
L 256.421484 -169.398068 
L 255.649636 -168.412397 
L 254.875881 -167.426726 
L 254.096373 -166.441055 
L 253.30882 -165.455384 
L 252.512474 -164.469713 
L 251.70805 -163.484042 
L 250.897588 -162.498371 
L 250.084254 -161.5127 
L 249.272125 -160.527029 
L 248.465932 -159.541358 
L 247.670814 -158.555687 
L 246.892068 -157.570016 
L 246.134916 -156.584344 
L 245.404303 -155.598673 
L 244.704716 -154.613002 
L 244.040055 -153.627331 
L 243.413525 -152.64166 
L 242.827578 -151.655989 
L 242.283887 -150.670318 
L 241.783352 -149.684647 
L 241.326136 -148.698976 
L 240.911723 -147.713305 
L 240.538997 -146.727634 
L 240.206325 -145.741963 
z
" id="m208401d0d4" style="stroke:#3f3f3f;stroke-width:1.5;"/>
    </defs>
    <g clip-path="url(#p9b1871832c)">
     <use style="fill:#3274a1;stroke:#3f3f3f;stroke-width:1.5;" x="0" xlink:href="#m208401d0d4" y="365.293115"/>
    </g>
   </g>
   <g id="PolyCollection_3">
    <defs>
     <path d="M 359.826854 -129.379531 
L 354.754396 -129.379531 
L 354.33358 -130.561575 
L 353.860964 -131.743619 
L 353.333529 -132.925663 
L 352.748671 -134.107707 
L 352.104301 -135.289751 
L 351.398961 -136.471795 
L 350.631927 -137.653839 
L 349.803301 -138.835883 
L 348.914101 -140.017927 
L 347.966324 -141.199971 
L 346.962992 -142.382015 
L 345.90818 -143.564059 
L 344.807003 -144.746103 
L 343.665588 -145.928147 
L 342.491007 -147.110191 
L 341.291182 -148.292235 
L 340.074762 -149.474279 
L 338.850974 -150.656323 
L 337.629449 -151.838366 
L 336.420035 -153.02041 
L 335.232591 -154.202454 
L 334.076784 -155.384498 
L 332.961887 -156.566542 
L 331.896578 -157.748586 
L 330.888768 -158.93063 
L 329.945439 -160.112674 
L 329.072521 -161.294718 
L 328.274794 -162.476762 
L 327.555828 -163.658806 
L 326.917964 -164.84085 
L 326.362319 -166.022894 
L 325.888844 -167.204938 
L 325.496398 -168.386982 
L 325.182859 -169.569026 
L 324.945252 -170.75107 
L 324.779894 -171.933114 
L 324.682551 -173.115158 
L 324.648592 -174.297202 
L 324.673144 -175.479245 
L 324.751234 -176.661289 
L 324.877925 -177.843333 
L 325.048421 -179.025377 
L 325.258165 -180.207421 
L 325.502911 -181.389465 
L 325.77877 -182.571509 
L 326.082247 -183.753553 
L 326.410249 -184.935597 
L 326.760084 -186.117641 
L 327.12945 -187.299685 
L 327.51641 -188.481729 
L 327.919361 -189.663773 
L 328.337013 -190.845817 
L 328.768349 -192.027861 
L 329.212604 -193.209905 
L 329.669238 -194.391949 
L 330.137915 -195.573993 
L 330.618486 -196.756037 
L 331.110972 -197.938081 
L 331.615552 -199.120124 
L 332.132545 -200.302168 
L 332.662396 -201.484212 
L 333.205653 -202.666256 
L 333.762939 -203.8483 
L 334.334924 -205.030344 
L 334.922285 -206.212388 
L 335.52566 -207.394432 
L 336.1456 -208.576476 
L 336.782518 -209.75852 
L 337.436634 -210.940564 
L 338.107923 -212.122608 
L 338.796067 -213.304652 
L 339.500411 -214.486696 
L 340.219932 -215.66874 
L 340.953217 -216.850784 
L 341.698455 -218.032828 
L 342.453442 -219.214872 
L 343.215604 -220.396916 
L 343.982026 -221.57896 
L 344.749508 -222.761003 
L 345.514618 -223.943047 
L 346.273769 -225.125091 
L 347.023288 -226.307135 
L 347.759502 -227.489179 
L 348.478816 -228.671223 
L 349.177794 -229.853267 
L 349.853231 -231.035311 
L 350.50222 -232.217355 
L 351.122208 -233.399399 
L 351.711038 -234.581443 
L 352.266983 -235.763487 
L 352.788764 -236.945531 
L 353.275554 -238.127575 
L 353.726974 -239.309619 
L 354.143069 -240.491663 
L 354.524287 -241.673707 
L 354.871436 -242.855751 
L 355.185644 -244.037795 
L 355.468313 -245.219839 
L 355.721066 -246.401882 
L 358.860184 -246.401882 
L 358.860184 -246.401882 
L 359.112937 -245.219839 
L 359.395606 -244.037795 
L 359.709814 -242.855751 
L 360.056963 -241.673707 
L 360.438181 -240.491663 
L 360.854276 -239.309619 
L 361.305696 -238.127575 
L 361.792486 -236.945531 
L 362.314267 -235.763487 
L 362.870212 -234.581443 
L 363.459042 -233.399399 
L 364.07903 -232.217355 
L 364.728019 -231.035311 
L 365.403456 -229.853267 
L 366.102434 -228.671223 
L 366.821748 -227.489179 
L 367.557962 -226.307135 
L 368.307481 -225.125091 
L 369.066632 -223.943047 
L 369.831742 -222.761003 
L 370.599224 -221.57896 
L 371.365646 -220.396916 
L 372.127808 -219.214872 
L 372.882795 -218.032828 
L 373.628033 -216.850784 
L 374.361318 -215.66874 
L 375.080839 -214.486696 
L 375.785183 -213.304652 
L 376.473327 -212.122608 
L 377.144616 -210.940564 
L 377.798732 -209.75852 
L 378.43565 -208.576476 
L 379.05559 -207.394432 
L 379.658965 -206.212388 
L 380.246326 -205.030344 
L 380.818311 -203.8483 
L 381.375597 -202.666256 
L 381.918854 -201.484212 
L 382.448705 -200.302168 
L 382.965698 -199.120124 
L 383.470278 -197.938081 
L 383.962764 -196.756037 
L 384.443335 -195.573993 
L 384.912012 -194.391949 
L 385.368646 -193.209905 
L 385.812901 -192.027861 
L 386.244237 -190.845817 
L 386.661889 -189.663773 
L 387.06484 -188.481729 
L 387.4518 -187.299685 
L 387.821166 -186.117641 
L 388.171001 -184.935597 
L 388.499003 -183.753553 
L 388.80248 -182.571509 
L 389.078339 -181.389465 
L 389.323085 -180.207421 
L 389.532829 -179.025377 
L 389.703325 -177.843333 
L 389.830016 -176.661289 
L 389.908106 -175.479245 
L 389.932658 -174.297202 
L 389.898699 -173.115158 
L 389.801356 -171.933114 
L 389.635998 -170.75107 
L 389.398391 -169.569026 
L 389.084852 -168.386982 
L 388.692406 -167.204938 
L 388.218931 -166.022894 
L 387.663286 -164.84085 
L 387.025422 -163.658806 
L 386.306456 -162.476762 
L 385.508729 -161.294718 
L 384.635811 -160.112674 
L 383.692482 -158.93063 
L 382.684672 -157.748586 
L 381.619363 -156.566542 
L 380.504466 -155.384498 
L 379.348659 -154.202454 
L 378.161215 -153.02041 
L 376.951801 -151.838366 
L 375.730276 -150.656323 
L 374.506488 -149.474279 
L 373.290068 -148.292235 
L 372.090243 -147.110191 
L 370.915662 -145.928147 
L 369.774247 -144.746103 
L 368.67307 -143.564059 
L 367.618258 -142.382015 
L 366.614926 -141.199971 
L 365.667149 -140.017927 
L 364.777949 -138.835883 
L 363.949323 -137.653839 
L 363.182289 -136.471795 
L 362.476949 -135.289751 
L 361.832579 -134.107707 
L 361.247721 -132.925663 
L 360.720286 -131.743619 
L 360.24767 -130.561575 
L 359.826854 -129.379531 
z
" id="mb31d42aaf0" style="stroke:#3f3f3f;stroke-width:1.5;"/>
    </defs>
    <g clip-path="url(#p9b1871832c)">
     <use style="fill:#b5c8e1;stroke:#3f3f3f;stroke-width:1.5;" x="0" xlink:href="#mb31d42aaf0" y="365.293115"/>
    </g>
   </g>
   <g id="matplotlib.axis_1">
    <g id="xtick_1">
     <g id="line2d_1">
      <defs>
       <path d="M 0 0 
L 0 3.5 
" id="m5b69361280" style="stroke:#000000;stroke-width:0.8;"/>
      </defs>
      <g>
       <use style="stroke:#000000;stroke-width:0.8;" x="119.210625" xlink:href="#m5b69361280" y="288.430125"/>
      </g>
     </g>
     <g id="text_1">
      <!-- power_schedule -->
      <g transform="translate(48.121818 342.373065)rotate(-30)scale(0.1 -0.1)">
       <defs>
        <path d="M 18.109375 8.203125 
L 18.109375 -20.796875 
L 9.078125 -20.796875 
L 9.078125 54.6875 
L 18.109375 54.6875 
L 18.109375 46.390625 
Q 20.953125 51.265625 25.265625 53.625 
Q 29.59375 56 35.59375 56 
Q 45.5625 56 51.78125 48.09375 
Q 58.015625 40.1875 58.015625 27.296875 
Q 58.015625 14.40625 51.78125 6.484375 
Q 45.5625 -1.421875 35.59375 -1.421875 
Q 29.59375 -1.421875 25.265625 0.953125 
Q 20.953125 3.328125 18.109375 8.203125 
z
M 48.6875 27.296875 
Q 48.6875 37.203125 44.609375 42.84375 
Q 40.53125 48.484375 33.40625 48.484375 
Q 26.265625 48.484375 22.1875 42.84375 
Q 18.109375 37.203125 18.109375 27.296875 
Q 18.109375 17.390625 22.1875 11.75 
Q 26.265625 6.109375 33.40625 6.109375 
Q 40.53125 6.109375 44.609375 11.75 
Q 48.6875 17.390625 48.6875 27.296875 
z
" id="DejaVuSans-112"/>
        <path d="M 30.609375 48.390625 
Q 23.390625 48.390625 19.1875 42.75 
Q 14.984375 37.109375 14.984375 27.296875 
Q 14.984375 17.484375 19.15625 11.84375 
Q 23.34375 6.203125 30.609375 6.203125 
Q 37.796875 6.203125 41.984375 11.859375 
Q 46.1875 17.53125 46.1875 27.296875 
Q 46.1875 37.015625 41.984375 42.703125 
Q 37.796875 48.390625 30.609375 48.390625 
z
M 30.609375 56 
Q 42.328125 56 49.015625 48.375 
Q 55.71875 40.765625 55.71875 27.296875 
Q 55.71875 13.875 49.015625 6.21875 
Q 42.328125 -1.421875 30.609375 -1.421875 
Q 18.84375 -1.421875 12.171875 6.21875 
Q 5.515625 13.875 5.515625 27.296875 
Q 5.515625 40.765625 12.171875 48.375 
Q 18.84375 56 30.609375 56 
z
" id="DejaVuSans-111"/>
        <path d="M 4.203125 54.6875 
L 13.1875 54.6875 
L 24.421875 12.015625 
L 35.59375 54.6875 
L 46.1875 54.6875 
L 57.421875 12.015625 
L 68.609375 54.6875 
L 77.59375 54.6875 
L 63.28125 0 
L 52.6875 0 
L 40.921875 44.828125 
L 29.109375 0 
L 18.5 0 
z
" id="DejaVuSans-119"/>
        <path d="M 56.203125 29.59375 
L 56.203125 25.203125 
L 14.890625 25.203125 
Q 15.484375 15.921875 20.484375 11.0625 
Q 25.484375 6.203125 34.421875 6.203125 
Q 39.59375 6.203125 44.453125 7.46875 
Q 49.3125 8.734375 54.109375 11.28125 
L 54.109375 2.78125 
Q 49.265625 0.734375 44.1875 -0.34375 
Q 39.109375 -1.421875 33.890625 -1.421875 
Q 20.796875 -1.421875 13.15625 6.1875 
Q 5.515625 13.8125 5.515625 26.8125 
Q 5.515625 40.234375 12.765625 48.109375 
Q 20.015625 56 32.328125 56 
Q 43.359375 56 49.78125 48.890625 
Q 56.203125 41.796875 56.203125 29.59375 
z
M 47.21875 32.234375 
Q 47.125 39.59375 43.09375 43.984375 
Q 39.0625 48.390625 32.421875 48.390625 
Q 24.90625 48.390625 20.390625 44.140625 
Q 15.875 39.890625 15.1875 32.171875 
z
" id="DejaVuSans-101"/>
        <path d="M 41.109375 46.296875 
Q 39.59375 47.171875 37.8125 47.578125 
Q 36.03125 48 33.890625 48 
Q 26.265625 48 22.1875 43.046875 
Q 18.109375 38.09375 18.109375 28.8125 
L 18.109375 0 
L 9.078125 0 
L 9.078125 54.6875 
L 18.109375 54.6875 
L 18.109375 46.1875 
Q 20.953125 51.171875 25.484375 53.578125 
Q 30.03125 56 36.53125 56 
Q 37.453125 56 38.578125 55.875 
Q 39.703125 55.765625 41.0625 55.515625 
z
" id="DejaVuSans-114"/>
        <path d="M 50.984375 -16.609375 
L 50.984375 -23.578125 
L -0.984375 -23.578125 
L -0.984375 -16.609375 
z
" id="DejaVuSans-95"/>
        <path d="M 44.28125 53.078125 
L 44.28125 44.578125 
Q 40.484375 46.53125 36.375 47.5 
Q 32.28125 48.484375 27.875 48.484375 
Q 21.1875 48.484375 17.84375 46.4375 
Q 14.5 44.390625 14.5 40.28125 
Q 14.5 37.15625 16.890625 35.375 
Q 19.28125 33.59375 26.515625 31.984375 
L 29.59375 31.296875 
Q 39.15625 29.25 43.1875 25.515625 
Q 47.21875 21.78125 47.21875 15.09375 
Q 47.21875 7.46875 41.1875 3.015625 
Q 35.15625 -1.421875 24.609375 -1.421875 
Q 20.21875 -1.421875 15.453125 -0.5625 
Q 10.6875 0.296875 5.421875 2 
L 5.421875 11.28125 
Q 10.40625 8.6875 15.234375 7.390625 
Q 20.0625 6.109375 24.8125 6.109375 
Q 31.15625 6.109375 34.5625 8.28125 
Q 37.984375 10.453125 37.984375 14.40625 
Q 37.984375 18.0625 35.515625 20.015625 
Q 33.0625 21.96875 24.703125 23.78125 
L 21.578125 24.515625 
Q 13.234375 26.265625 9.515625 29.90625 
Q 5.8125 33.546875 5.8125 39.890625 
Q 5.8125 47.609375 11.28125 51.796875 
Q 16.75 56 26.8125 56 
Q 31.78125 56 36.171875 55.265625 
Q 40.578125 54.546875 44.28125 53.078125 
z
" id="DejaVuSans-115"/>
        <path d="M 48.78125 52.59375 
L 48.78125 44.1875 
Q 44.96875 46.296875 41.140625 47.34375 
Q 37.3125 48.390625 33.40625 48.390625 
Q 24.65625 48.390625 19.8125 42.84375 
Q 14.984375 37.3125 14.984375 27.296875 
Q 14.984375 17.28125 19.8125 11.734375 
Q 24.65625 6.203125 33.40625 6.203125 
Q 37.3125 6.203125 41.140625 7.25 
Q 44.96875 8.296875 48.78125 10.40625 
L 48.78125 2.09375 
Q 45.015625 0.34375 40.984375 -0.53125 
Q 36.96875 -1.421875 32.421875 -1.421875 
Q 20.0625 -1.421875 12.78125 6.34375 
Q 5.515625 14.109375 5.515625 27.296875 
Q 5.515625 40.671875 12.859375 48.328125 
Q 20.21875 56 33.015625 56 
Q 37.15625 56 41.109375 55.140625 
Q 45.0625 54.296875 48.78125 52.59375 
z
" id="DejaVuSans-99"/>
        <path d="M 54.890625 33.015625 
L 54.890625 0 
L 45.90625 0 
L 45.90625 32.71875 
Q 45.90625 40.484375 42.875 44.328125 
Q 39.84375 48.1875 33.796875 48.1875 
Q 26.515625 48.1875 22.3125 43.546875 
Q 18.109375 38.921875 18.109375 30.90625 
L 18.109375 0 
L 9.078125 0 
L 9.078125 75.984375 
L 18.109375 75.984375 
L 18.109375 46.1875 
Q 21.34375 51.125 25.703125 53.5625 
Q 30.078125 56 35.796875 56 
Q 45.21875 56 50.046875 50.171875 
Q 54.890625 44.34375 54.890625 33.015625 
z
" id="DejaVuSans-104"/>
        <path d="M 45.40625 46.390625 
L 45.40625 75.984375 
L 54.390625 75.984375 
L 54.390625 0 
L 45.40625 0 
L 45.40625 8.203125 
Q 42.578125 3.328125 38.25 0.953125 
Q 33.9375 -1.421875 27.875 -1.421875 
Q 17.96875 -1.421875 11.734375 6.484375 
Q 5.515625 14.40625 5.515625 27.296875 
Q 5.515625 40.1875 11.734375 48.09375 
Q 17.96875 56 27.875 56 
Q 33.9375 56 38.25 53.625 
Q 42.578125 51.265625 45.40625 46.390625 
z
M 14.796875 27.296875 
Q 14.796875 17.390625 18.875 11.75 
Q 22.953125 6.109375 30.078125 6.109375 
Q 37.203125 6.109375 41.296875 11.75 
Q 45.40625 17.390625 45.40625 27.296875 
Q 45.40625 37.203125 41.296875 42.84375 
Q 37.203125 48.484375 30.078125 48.484375 
Q 22.953125 48.484375 18.875 42.84375 
Q 14.796875 37.203125 14.796875 27.296875 
z
" id="DejaVuSans-100"/>
        <path d="M 8.5 21.578125 
L 8.5 54.6875 
L 17.484375 54.6875 
L 17.484375 21.921875 
Q 17.484375 14.15625 20.5 10.265625 
Q 23.53125 6.390625 29.59375 6.390625 
Q 36.859375 6.390625 41.078125 11.03125 
Q 45.3125 15.671875 45.3125 23.6875 
L 45.3125 54.6875 
L 54.296875 54.6875 
L 54.296875 0 
L 45.3125 0 
L 45.3125 8.40625 
Q 42.046875 3.421875 37.71875 1 
Q 33.40625 -1.421875 27.6875 -1.421875 
Q 18.265625 -1.421875 13.375 4.4375 
Q 8.5 10.296875 8.5 21.578125 
z
M 31.109375 56 
z
" id="DejaVuSans-117"/>
        <path d="M 9.421875 75.984375 
L 18.40625 75.984375 
L 18.40625 0 
L 9.421875 0 
z
" id="DejaVuSans-108"/>
       </defs>
       <use xlink:href="#DejaVuSans-112"/>
       <use x="63.476562" xlink:href="#DejaVuSans-111"/>
       <use x="124.658203" xlink:href="#DejaVuSans-119"/>
       <use x="206.445312" xlink:href="#DejaVuSans-101"/>
       <use x="267.96875" xlink:href="#DejaVuSans-114"/>
       <use x="309.082031" xlink:href="#DejaVuSans-95"/>
       <use x="359.082031" xlink:href="#DejaVuSans-115"/>
       <use x="411.181641" xlink:href="#DejaVuSans-99"/>
       <use x="466.162109" xlink:href="#DejaVuSans-104"/>
       <use x="529.541016" xlink:href="#DejaVuSans-101"/>
       <use x="591.064453" xlink:href="#DejaVuSans-100"/>
       <use x="654.541016" xlink:href="#DejaVuSans-117"/>
       <use x="717.919922" xlink:href="#DejaVuSans-108"/>
       <use x="745.703125" xlink:href="#DejaVuSans-101"/>
      </g>
     </g>
    </g>
    <g id="xtick_2">
     <g id="line2d_2">
      <g>
       <use style="stroke:#000000;stroke-width:0.8;" x="238.250625" xlink:href="#m5b69361280" y="288.430125"/>
      </g>
     </g>
     <g id="text_2">
      <!-- afl -->
      <g transform="translate(226.449062 308.223846)rotate(-30)scale(0.1 -0.1)">
       <defs>
        <path d="M 34.28125 27.484375 
Q 23.390625 27.484375 19.1875 25 
Q 14.984375 22.515625 14.984375 16.5 
Q 14.984375 11.71875 18.140625 8.90625 
Q 21.296875 6.109375 26.703125 6.109375 
Q 34.1875 6.109375 38.703125 11.40625 
Q 43.21875 16.703125 43.21875 25.484375 
L 43.21875 27.484375 
z
M 52.203125 31.203125 
L 52.203125 0 
L 43.21875 0 
L 43.21875 8.296875 
Q 40.140625 3.328125 35.546875 0.953125 
Q 30.953125 -1.421875 24.3125 -1.421875 
Q 15.921875 -1.421875 10.953125 3.296875 
Q 6 8.015625 6 15.921875 
Q 6 25.140625 12.171875 29.828125 
Q 18.359375 34.515625 30.609375 34.515625 
L 43.21875 34.515625 
L 43.21875 35.40625 
Q 43.21875 41.609375 39.140625 45 
Q 35.0625 48.390625 27.6875 48.390625 
Q 23 48.390625 18.546875 47.265625 
Q 14.109375 46.140625 10.015625 43.890625 
L 10.015625 52.203125 
Q 14.9375 54.109375 19.578125 55.046875 
Q 24.21875 56 28.609375 56 
Q 40.484375 56 46.34375 49.84375 
Q 52.203125 43.703125 52.203125 31.203125 
z
" id="DejaVuSans-97"/>
        <path d="M 37.109375 75.984375 
L 37.109375 68.5 
L 28.515625 68.5 
Q 23.6875 68.5 21.796875 66.546875 
Q 19.921875 64.59375 19.921875 59.515625 
L 19.921875 54.6875 
L 34.71875 54.6875 
L 34.71875 47.703125 
L 19.921875 47.703125 
L 19.921875 0 
L 10.890625 0 
L 10.890625 47.703125 
L 2.296875 47.703125 
L 2.296875 54.6875 
L 10.890625 54.6875 
L 10.890625 58.5 
Q 10.890625 67.625 15.140625 71.796875 
Q 19.390625 75.984375 28.609375 75.984375 
z
" id="DejaVuSans-102"/>
       </defs>
       <use xlink:href="#DejaVuSans-97"/>
       <use x="61.279297" xlink:href="#DejaVuSans-102"/>
       <use x="96.484375" xlink:href="#DejaVuSans-108"/>
      </g>
     </g>
    </g>
    <g id="xtick_3">
     <g id="line2d_3">
      <g>
       <use style="stroke:#000000;stroke-width:0.8;" x="357.290625" xlink:href="#m5b69361280" y="288.430125"/>
      </g>
     </g>
     <g id="text_3">
      <!-- dark -->
      <g transform="translate(336.870757 313.199627)rotate(-30)scale(0.1 -0.1)">
       <defs>
        <path d="M 9.078125 75.984375 
L 18.109375 75.984375 
L 18.109375 31.109375 
L 44.921875 54.6875 
L 56.390625 54.6875 
L 27.390625 29.109375 
L 57.625 0 
L 45.90625 0 
L 18.109375 26.703125 
L 18.109375 0 
L 9.078125 0 
z
" id="DejaVuSans-107"/>
       </defs>
       <use xlink:href="#DejaVuSans-100"/>
       <use x="63.476562" xlink:href="#DejaVuSans-97"/>
       <use x="124.755859" xlink:href="#DejaVuSans-114"/>
       <use x="165.869141" xlink:href="#DejaVuSans-107"/>
      </g>
     </g>
    </g>
    <g id="text_4">
     <!-- Fuzzer (highest median coverage on the left) -->
     <g transform="translate(125.632656 356.013428)scale(0.1 -0.1)">
      <defs>
       <path d="M 9.8125 72.90625 
L 51.703125 72.90625 
L 51.703125 64.59375 
L 19.671875 64.59375 
L 19.671875 43.109375 
L 48.578125 43.109375 
L 48.578125 34.8125 
L 19.671875 34.8125 
L 19.671875 0 
L 9.8125 0 
z
" id="DejaVuSans-70"/>
       <path d="M 5.515625 54.6875 
L 48.1875 54.6875 
L 48.1875 46.484375 
L 14.40625 7.171875 
L 48.1875 7.171875 
L 48.1875 0 
L 4.296875 0 
L 4.296875 8.203125 
L 38.09375 47.515625 
L 5.515625 47.515625 
z
" id="DejaVuSans-122"/>
       <path id="DejaVuSans-32"/>
       <path d="M 31 75.875 
Q 24.46875 64.65625 21.28125 53.65625 
Q 18.109375 42.671875 18.109375 31.390625 
Q 18.109375 20.125 21.3125 9.0625 
Q 24.515625 -2 31 -13.1875 
L 23.1875 -13.1875 
Q 15.875 -1.703125 12.234375 9.375 
Q 8.59375 20.453125 8.59375 31.390625 
Q 8.59375 42.28125 12.203125 53.3125 
Q 15.828125 64.359375 23.1875 75.875 
z
" id="DejaVuSans-40"/>
       <path d="M 9.421875 54.6875 
L 18.40625 54.6875 
L 18.40625 0 
L 9.421875 0 
z
M 9.421875 75.984375 
L 18.40625 75.984375 
L 18.40625 64.59375 
L 9.421875 64.59375 
z
" id="DejaVuSans-105"/>
       <path d="M 45.40625 27.984375 
Q 45.40625 37.75 41.375 43.109375 
Q 37.359375 48.484375 30.078125 48.484375 
Q 22.859375 48.484375 18.828125 43.109375 
Q 14.796875 37.75 14.796875 27.984375 
Q 14.796875 18.265625 18.828125 12.890625 
Q 22.859375 7.515625 30.078125 7.515625 
Q 37.359375 7.515625 41.375 12.890625 
Q 45.40625 18.265625 45.40625 27.984375 
z
M 54.390625 6.78125 
Q 54.390625 -7.171875 48.1875 -13.984375 
Q 42 -20.796875 29.203125 -20.796875 
Q 24.46875 -20.796875 20.265625 -20.09375 
Q 16.0625 -19.390625 12.109375 -17.921875 
L 12.109375 -9.1875 
Q 16.0625 -11.328125 19.921875 -12.34375 
Q 23.78125 -13.375 27.78125 -13.375 
Q 36.625 -13.375 41.015625 -8.765625 
Q 45.40625 -4.15625 45.40625 5.171875 
L 45.40625 9.625 
Q 42.625 4.78125 38.28125 2.390625 
Q 33.9375 0 27.875 0 
Q 17.828125 0 11.671875 7.65625 
Q 5.515625 15.328125 5.515625 27.984375 
Q 5.515625 40.671875 11.671875 48.328125 
Q 17.828125 56 27.875 56 
Q 33.9375 56 38.28125 53.609375 
Q 42.625 51.21875 45.40625 46.390625 
L 45.40625 54.6875 
L 54.390625 54.6875 
z
" id="DejaVuSans-103"/>
       <path d="M 18.3125 70.21875 
L 18.3125 54.6875 
L 36.8125 54.6875 
L 36.8125 47.703125 
L 18.3125 47.703125 
L 18.3125 18.015625 
Q 18.3125 11.328125 20.140625 9.421875 
Q 21.96875 7.515625 27.59375 7.515625 
L 36.8125 7.515625 
L 36.8125 0 
L 27.59375 0 
Q 17.1875 0 13.234375 3.875 
Q 9.28125 7.765625 9.28125 18.015625 
L 9.28125 47.703125 
L 2.6875 47.703125 
L 2.6875 54.6875 
L 9.28125 54.6875 
L 9.28125 70.21875 
z
" id="DejaVuSans-116"/>
       <path d="M 52 44.1875 
Q 55.375 50.25 60.0625 53.125 
Q 64.75 56 71.09375 56 
Q 79.640625 56 84.28125 50.015625 
Q 88.921875 44.046875 88.921875 33.015625 
L 88.921875 0 
L 79.890625 0 
L 79.890625 32.71875 
Q 79.890625 40.578125 77.09375 44.375 
Q 74.3125 48.1875 68.609375 48.1875 
Q 61.625 48.1875 57.5625 43.546875 
Q 53.515625 38.921875 53.515625 30.90625 
L 53.515625 0 
L 44.484375 0 
L 44.484375 32.71875 
Q 44.484375 40.625 41.703125 44.40625 
Q 38.921875 48.1875 33.109375 48.1875 
Q 26.21875 48.1875 22.15625 43.53125 
Q 18.109375 38.875 18.109375 30.90625 
L 18.109375 0 
L 9.078125 0 
L 9.078125 54.6875 
L 18.109375 54.6875 
L 18.109375 46.1875 
Q 21.1875 51.21875 25.484375 53.609375 
Q 29.78125 56 35.6875 56 
Q 41.65625 56 45.828125 52.96875 
Q 50 49.953125 52 44.1875 
z
" id="DejaVuSans-109"/>
       <path d="M 54.890625 33.015625 
L 54.890625 0 
L 45.90625 0 
L 45.90625 32.71875 
Q 45.90625 40.484375 42.875 44.328125 
Q 39.84375 48.1875 33.796875 48.1875 
Q 26.515625 48.1875 22.3125 43.546875 
Q 18.109375 38.921875 18.109375 30.90625 
L 18.109375 0 
L 9.078125 0 
L 9.078125 54.6875 
L 18.109375 54.6875 
L 18.109375 46.1875 
Q 21.34375 51.125 25.703125 53.5625 
Q 30.078125 56 35.796875 56 
Q 45.21875 56 50.046875 50.171875 
Q 54.890625 44.34375 54.890625 33.015625 
z
" id="DejaVuSans-110"/>
       <path d="M 2.984375 54.6875 
L 12.5 54.6875 
L 29.59375 8.796875 
L 46.6875 54.6875 
L 56.203125 54.6875 
L 35.6875 0 
L 23.484375 0 
z
" id="DejaVuSans-118"/>
       <path d="M 8.015625 75.875 
L 15.828125 75.875 
Q 23.140625 64.359375 26.78125 53.3125 
Q 30.421875 42.28125 30.421875 31.390625 
Q 30.421875 20.453125 26.78125 9.375 
Q 23.140625 -1.703125 15.828125 -13.1875 
L 8.015625 -13.1875 
Q 14.5 -2 17.703125 9.0625 
Q 20.90625 20.125 20.90625 31.390625 
Q 20.90625 42.671875 17.703125 53.65625 
Q 14.5 64.65625 8.015625 75.875 
z
" id="DejaVuSans-41"/>
      </defs>
      <use xlink:href="#DejaVuSans-70"/>
      <use x="52.019531" xlink:href="#DejaVuSans-117"/>
      <use x="115.398438" xlink:href="#DejaVuSans-122"/>
      <use x="167.888672" xlink:href="#DejaVuSans-122"/>
      <use x="220.378906" xlink:href="#DejaVuSans-101"/>
      <use x="281.902344" xlink:href="#DejaVuSans-114"/>
      <use x="323.015625" xlink:href="#DejaVuSans-32"/>
      <use x="354.802734" xlink:href="#DejaVuSans-40"/>
      <use x="393.816406" xlink:href="#DejaVuSans-104"/>
      <use x="457.195312" xlink:href="#DejaVuSans-105"/>
      <use x="484.978516" xlink:href="#DejaVuSans-103"/>
      <use x="548.455078" xlink:href="#DejaVuSans-104"/>
      <use x="611.833984" xlink:href="#DejaVuSans-101"/>
      <use x="673.357422" xlink:href="#DejaVuSans-115"/>
      <use x="725.457031" xlink:href="#DejaVuSans-116"/>
      <use x="764.666016" xlink:href="#DejaVuSans-32"/>
      <use x="796.453125" xlink:href="#DejaVuSans-109"/>
      <use x="893.865234" xlink:href="#DejaVuSans-101"/>
      <use x="955.388672" xlink:href="#DejaVuSans-100"/>
      <use x="1018.865234" xlink:href="#DejaVuSans-105"/>
      <use x="1046.648438" xlink:href="#DejaVuSans-97"/>
      <use x="1107.927734" xlink:href="#DejaVuSans-110"/>
      <use x="1171.306641" xlink:href="#DejaVuSans-32"/>
      <use x="1203.09375" xlink:href="#DejaVuSans-99"/>
      <use x="1258.074219" xlink:href="#DejaVuSans-111"/>
      <use x="1319.255859" xlink:href="#DejaVuSans-118"/>
      <use x="1378.435547" xlink:href="#DejaVuSans-101"/>
      <use x="1439.958984" xlink:href="#DejaVuSans-114"/>
      <use x="1481.072266" xlink:href="#DejaVuSans-97"/>
      <use x="1542.351562" xlink:href="#DejaVuSans-103"/>
      <use x="1605.828125" xlink:href="#DejaVuSans-101"/>
      <use x="1667.351562" xlink:href="#DejaVuSans-32"/>
      <use x="1699.138672" xlink:href="#DejaVuSans-111"/>
      <use x="1760.320312" xlink:href="#DejaVuSans-110"/>
      <use x="1823.699219" xlink:href="#DejaVuSans-32"/>
      <use x="1855.486328" xlink:href="#DejaVuSans-116"/>
      <use x="1894.695312" xlink:href="#DejaVuSans-104"/>
      <use x="1958.074219" xlink:href="#DejaVuSans-101"/>
      <use x="2019.597656" xlink:href="#DejaVuSans-32"/>
      <use x="2051.384766" xlink:href="#DejaVuSans-108"/>
      <use x="2079.167969" xlink:href="#DejaVuSans-101"/>
      <use x="2140.691406" xlink:href="#DejaVuSans-102"/>
      <use x="2174.146484" xlink:href="#DejaVuSans-116"/>
      <use x="2213.355469" xlink:href="#DejaVuSans-41"/>
     </g>
    </g>
   </g>
   <g id="matplotlib.axis_2">
    <g id="ytick_1">
     <g id="line2d_4">
      <defs>
       <path d="M 0 0 
L -3.5 0 
" id="me5b59b05d1" style="stroke:#000000;stroke-width:0.8;"/>
      </defs>
      <g>
       <use style="stroke:#000000;stroke-width:0.8;" x="59.690625" xlink:href="#me5b59b05d1" y="261.608499"/>
      </g>
     </g>
     <g id="text_5">
      <!-- 6000 -->
      <g transform="translate(27.240625 265.407718)scale(0.1 -0.1)">
       <defs>
        <path d="M 33.015625 40.375 
Q 26.375 40.375 22.484375 35.828125 
Q 18.609375 31.296875 18.609375 23.390625 
Q 18.609375 15.53125 22.484375 10.953125 
Q 26.375 6.390625 33.015625 6.390625 
Q 39.65625 6.390625 43.53125 10.953125 
Q 47.40625 15.53125 47.40625 23.390625 
Q 47.40625 31.296875 43.53125 35.828125 
Q 39.65625 40.375 33.015625 40.375 
z
M 52.59375 71.296875 
L 52.59375 62.3125 
Q 48.875 64.0625 45.09375 64.984375 
Q 41.3125 65.921875 37.59375 65.921875 
Q 27.828125 65.921875 22.671875 59.328125 
Q 17.53125 52.734375 16.796875 39.40625 
Q 19.671875 43.65625 24.015625 45.921875 
Q 28.375 48.1875 33.59375 48.1875 
Q 44.578125 48.1875 50.953125 41.515625 
Q 57.328125 34.859375 57.328125 23.390625 
Q 57.328125 12.15625 50.6875 5.359375 
Q 44.046875 -1.421875 33.015625 -1.421875 
Q 20.359375 -1.421875 13.671875 8.265625 
Q 6.984375 17.96875 6.984375 36.375 
Q 6.984375 53.65625 15.1875 63.9375 
Q 23.390625 74.21875 37.203125 74.21875 
Q 40.921875 74.21875 44.703125 73.484375 
Q 48.484375 72.75 52.59375 71.296875 
z
" id="DejaVuSans-54"/>
        <path d="M 31.78125 66.40625 
Q 24.171875 66.40625 20.328125 58.90625 
Q 16.5 51.421875 16.5 36.375 
Q 16.5 21.390625 20.328125 13.890625 
Q 24.171875 6.390625 31.78125 6.390625 
Q 39.453125 6.390625 43.28125 13.890625 
Q 47.125 21.390625 47.125 36.375 
Q 47.125 51.421875 43.28125 58.90625 
Q 39.453125 66.40625 31.78125 66.40625 
z
M 31.78125 74.21875 
Q 44.046875 74.21875 50.515625 64.515625 
Q 56.984375 54.828125 56.984375 36.375 
Q 56.984375 17.96875 50.515625 8.265625 
Q 44.046875 -1.421875 31.78125 -1.421875 
Q 19.53125 -1.421875 13.0625 8.265625 
Q 6.59375 17.96875 6.59375 36.375 
Q 6.59375 54.828125 13.0625 64.515625 
Q 19.53125 74.21875 31.78125 74.21875 
z
" id="DejaVuSans-48"/>
       </defs>
       <use xlink:href="#DejaVuSans-54"/>
       <use x="63.623047" xlink:href="#DejaVuSans-48"/>
       <use x="127.246094" xlink:href="#DejaVuSans-48"/>
       <use x="190.869141" xlink:href="#DejaVuSans-48"/>
      </g>
     </g>
    </g>
    <g id="ytick_2">
     <g id="line2d_5">
      <g>
       <use style="stroke:#000000;stroke-width:0.8;" x="59.690625" xlink:href="#me5b59b05d1" y="224.398561"/>
      </g>
     </g>
     <g id="text_6">
      <!-- 7000 -->
      <g transform="translate(27.240625 228.197779)scale(0.1 -0.1)">
       <defs>
        <path d="M 8.203125 72.90625 
L 55.078125 72.90625 
L 55.078125 68.703125 
L 28.609375 0 
L 18.3125 0 
L 43.21875 64.59375 
L 8.203125 64.59375 
z
" id="DejaVuSans-55"/>
       </defs>
       <use xlink:href="#DejaVuSans-55"/>
       <use x="63.623047" xlink:href="#DejaVuSans-48"/>
       <use x="127.246094" xlink:href="#DejaVuSans-48"/>
       <use x="190.869141" xlink:href="#DejaVuSans-48"/>
      </g>
     </g>
    </g>
    <g id="ytick_3">
     <g id="line2d_6">
      <g>
       <use style="stroke:#000000;stroke-width:0.8;" x="59.690625" xlink:href="#me5b59b05d1" y="187.188622"/>
      </g>
     </g>
     <g id="text_7">
      <!-- 8000 -->
      <g transform="translate(27.240625 190.987841)scale(0.1 -0.1)">
       <defs>
        <path d="M 31.78125 34.625 
Q 24.75 34.625 20.71875 30.859375 
Q 16.703125 27.09375 16.703125 20.515625 
Q 16.703125 13.921875 20.71875 10.15625 
Q 24.75 6.390625 31.78125 6.390625 
Q 38.8125 6.390625 42.859375 10.171875 
Q 46.921875 13.96875 46.921875 20.515625 
Q 46.921875 27.09375 42.890625 30.859375 
Q 38.875 34.625 31.78125 34.625 
z
M 21.921875 38.8125 
Q 15.578125 40.375 12.03125 44.71875 
Q 8.5 49.078125 8.5 55.328125 
Q 8.5 64.0625 14.71875 69.140625 
Q 20.953125 74.21875 31.78125 74.21875 
Q 42.671875 74.21875 48.875 69.140625 
Q 55.078125 64.0625 55.078125 55.328125 
Q 55.078125 49.078125 51.53125 44.71875 
Q 48 40.375 41.703125 38.8125 
Q 48.828125 37.15625 52.796875 32.3125 
Q 56.78125 27.484375 56.78125 20.515625 
Q 56.78125 9.90625 50.3125 4.234375 
Q 43.84375 -1.421875 31.78125 -1.421875 
Q 19.734375 -1.421875 13.25 4.234375 
Q 6.78125 9.90625 6.78125 20.515625 
Q 6.78125 27.484375 10.78125 32.3125 
Q 14.796875 37.15625 21.921875 38.8125 
z
M 18.3125 54.390625 
Q 18.3125 48.734375 21.84375 45.5625 
Q 25.390625 42.390625 31.78125 42.390625 
Q 38.140625 42.390625 41.71875 45.5625 
Q 45.3125 48.734375 45.3125 54.390625 
Q 45.3125 60.0625 41.71875 63.234375 
Q 38.140625 66.40625 31.78125 66.40625 
Q 25.390625 66.40625 21.84375 63.234375 
Q 18.3125 60.0625 18.3125 54.390625 
z
" id="DejaVuSans-56"/>
       </defs>
       <use xlink:href="#DejaVuSans-56"/>
       <use x="63.623047" xlink:href="#DejaVuSans-48"/>
       <use x="127.246094" xlink:href="#DejaVuSans-48"/>
       <use x="190.869141" xlink:href="#DejaVuSans-48"/>
      </g>
     </g>
    </g>
    <g id="ytick_4">
     <g id="line2d_7">
      <g>
       <use style="stroke:#000000;stroke-width:0.8;" x="59.690625" xlink:href="#me5b59b05d1" y="149.978684"/>
      </g>
     </g>
     <g id="text_8">
      <!-- 9000 -->
      <g transform="translate(27.240625 153.777903)scale(0.1 -0.1)">
       <defs>
        <path d="M 10.984375 1.515625 
L 10.984375 10.5 
Q 14.703125 8.734375 18.5 7.8125 
Q 22.3125 6.890625 25.984375 6.890625 
Q 35.75 6.890625 40.890625 13.453125 
Q 46.046875 20.015625 46.78125 33.40625 
Q 43.953125 29.203125 39.59375 26.953125 
Q 35.25 24.703125 29.984375 24.703125 
Q 19.046875 24.703125 12.671875 31.3125 
Q 6.296875 37.9375 6.296875 49.421875 
Q 6.296875 60.640625 12.9375 67.421875 
Q 19.578125 74.21875 30.609375 74.21875 
Q 43.265625 74.21875 49.921875 64.515625 
Q 56.59375 54.828125 56.59375 36.375 
Q 56.59375 19.140625 48.40625 8.859375 
Q 40.234375 -1.421875 26.421875 -1.421875 
Q 22.703125 -1.421875 18.890625 -0.6875 
Q 15.09375 0.046875 10.984375 1.515625 
z
M 30.609375 32.421875 
Q 37.25 32.421875 41.125 36.953125 
Q 45.015625 41.5 45.015625 49.421875 
Q 45.015625 57.28125 41.125 61.84375 
Q 37.25 66.40625 30.609375 66.40625 
Q 23.96875 66.40625 20.09375 61.84375 
Q 16.21875 57.28125 16.21875 49.421875 
Q 16.21875 41.5 20.09375 36.953125 
Q 23.96875 32.421875 30.609375 32.421875 
z
" id="DejaVuSans-57"/>
       </defs>
       <use xlink:href="#DejaVuSans-57"/>
       <use x="63.623047" xlink:href="#DejaVuSans-48"/>
       <use x="127.246094" xlink:href="#DejaVuSans-48"/>
       <use x="190.869141" xlink:href="#DejaVuSans-48"/>
      </g>
     </g>
    </g>
    <g id="ytick_5">
     <g id="line2d_8">
      <g>
       <use style="stroke:#000000;stroke-width:0.8;" x="59.690625" xlink:href="#me5b59b05d1" y="112.768746"/>
      </g>
     </g>
     <g id="text_9">
      <!-- 10000 -->
      <g transform="translate(20.878125 116.567964)scale(0.1 -0.1)">
       <defs>
        <path d="M 12.40625 8.296875 
L 28.515625 8.296875 
L 28.515625 63.921875 
L 10.984375 60.40625 
L 10.984375 69.390625 
L 28.421875 72.90625 
L 38.28125 72.90625 
L 38.28125 8.296875 
L 54.390625 8.296875 
L 54.390625 0 
L 12.40625 0 
z
" id="DejaVuSans-49"/>
       </defs>
       <use xlink:href="#DejaVuSans-49"/>
       <use x="63.623047" xlink:href="#DejaVuSans-48"/>
       <use x="127.246094" xlink:href="#DejaVuSans-48"/>
       <use x="190.869141" xlink:href="#DejaVuSans-48"/>
       <use x="254.492188" xlink:href="#DejaVuSans-48"/>
      </g>
     </g>
    </g>
    <g id="ytick_6">
     <g id="line2d_9">
      <g>
       <use style="stroke:#000000;stroke-width:0.8;" x="59.690625" xlink:href="#me5b59b05d1" y="75.558807"/>
      </g>
     </g>
     <g id="text_10">
      <!-- 11000 -->
      <g transform="translate(20.878125 79.358026)scale(0.1 -0.1)">
       <use xlink:href="#DejaVuSans-49"/>
       <use x="63.623047" xlink:href="#DejaVuSans-49"/>
       <use x="127.246094" xlink:href="#DejaVuSans-48"/>
       <use x="190.869141" xlink:href="#DejaVuSans-48"/>
       <use x="254.492188" xlink:href="#DejaVuSans-48"/>
      </g>
     </g>
    </g>
    <g id="ytick_7">
     <g id="line2d_10">
      <g>
       <use style="stroke:#000000;stroke-width:0.8;" x="59.690625" xlink:href="#me5b59b05d1" y="38.348869"/>
      </g>
     </g>
     <g id="text_11">
      <!-- 12000 -->
      <g transform="translate(20.878125 42.148088)scale(0.1 -0.1)">
       <defs>
        <path d="M 19.1875 8.296875 
L 53.609375 8.296875 
L 53.609375 0 
L 7.328125 0 
L 7.328125 8.296875 
Q 12.9375 14.109375 22.625 23.890625 
Q 32.328125 33.6875 34.8125 36.53125 
Q 39.546875 41.84375 41.421875 45.53125 
Q 43.3125 49.21875 43.3125 52.78125 
Q 43.3125 58.59375 39.234375 62.25 
Q 35.15625 65.921875 28.609375 65.921875 
Q 23.96875 65.921875 18.8125 64.3125 
Q 13.671875 62.703125 7.8125 59.421875 
L 7.8125 69.390625 
Q 13.765625 71.78125 18.9375 73 
Q 24.125 74.21875 28.421875 74.21875 
Q 39.75 74.21875 46.484375 68.546875 
Q 53.21875 62.890625 53.21875 53.421875 
Q 53.21875 48.921875 51.53125 44.890625 
Q 49.859375 40.875 45.40625 35.40625 
Q 44.1875 33.984375 37.640625 27.21875 
Q 31.109375 20.453125 19.1875 8.296875 
z
" id="DejaVuSans-50"/>
       </defs>
       <use xlink:href="#DejaVuSans-49"/>
       <use x="63.623047" xlink:href="#DejaVuSans-50"/>
       <use x="127.246094" xlink:href="#DejaVuSans-48"/>
       <use x="190.869141" xlink:href="#DejaVuSans-48"/>
       <use x="254.492188" xlink:href="#DejaVuSans-48"/>
      </g>
     </g>
    </g>
    <g id="text_12">
     <!-- Reached edge coverage -->
     <g transform="translate(14.798438 215.82725)rotate(-90)scale(0.1 -0.1)">
      <defs>
       <path d="M 44.390625 34.1875 
Q 47.5625 33.109375 50.5625 29.59375 
Q 53.5625 26.078125 56.59375 19.921875 
L 66.609375 0 
L 56 0 
L 46.6875 18.703125 
Q 43.0625 26.03125 39.671875 28.421875 
Q 36.28125 30.8125 30.421875 30.8125 
L 19.671875 30.8125 
L 19.671875 0 
L 9.8125 0 
L 9.8125 72.90625 
L 32.078125 72.90625 
Q 44.578125 72.90625 50.734375 67.671875 
Q 56.890625 62.453125 56.890625 51.90625 
Q 56.890625 45.015625 53.6875 40.46875 
Q 50.484375 35.9375 44.390625 34.1875 
z
M 19.671875 64.796875 
L 19.671875 38.921875 
L 32.078125 38.921875 
Q 39.203125 38.921875 42.84375 42.21875 
Q 46.484375 45.515625 46.484375 51.90625 
Q 46.484375 58.296875 42.84375 61.546875 
Q 39.203125 64.796875 32.078125 64.796875 
z
" id="DejaVuSans-82"/>
      </defs>
      <use xlink:href="#DejaVuSans-82"/>
      <use x="64.982422" xlink:href="#DejaVuSans-101"/>
      <use x="126.505859" xlink:href="#DejaVuSans-97"/>
      <use x="187.785156" xlink:href="#DejaVuSans-99"/>
      <use x="242.765625" xlink:href="#DejaVuSans-104"/>
      <use x="306.144531" xlink:href="#DejaVuSans-101"/>
      <use x="367.667969" xlink:href="#DejaVuSans-100"/>
      <use x="431.144531" xlink:href="#DejaVuSans-32"/>
      <use x="462.931641" xlink:href="#DejaVuSans-101"/>
      <use x="524.455078" xlink:href="#DejaVuSans-100"/>
      <use x="587.931641" xlink:href="#DejaVuSans-103"/>
      <use x="651.408203" xlink:href="#DejaVuSans-101"/>
      <use x="712.931641" xlink:href="#DejaVuSans-32"/>
      <use x="744.71875" xlink:href="#DejaVuSans-99"/>
      <use x="799.699219" xlink:href="#DejaVuSans-111"/>
      <use x="860.880859" xlink:href="#DejaVuSans-118"/>
      <use x="920.060547" xlink:href="#DejaVuSans-101"/>
      <use x="981.583984" xlink:href="#DejaVuSans-114"/>
      <use x="1022.697266" xlink:href="#DejaVuSans-97"/>
      <use x="1083.976562" xlink:href="#DejaVuSans-103"/>
      <use x="1147.453125" xlink:href="#DejaVuSans-101"/>
     </g>
    </g>
   </g>
   <g id="line2d_11">
    <path clip-path="url(#p9b1871832c)" d="M 119.210625 209.514585 
L 119.210625 101.233665 
" style="fill:none;stroke:#3f3f3f;stroke-linecap:square;stroke-width:1.5;"/>
   </g>
   <g id="line2d_12">
    <path clip-path="url(#p9b1871832c)" d="M 119.210625 195.114339 
L 119.210625 123.001479 
" style="fill:none;stroke:#3f3f3f;stroke-linecap:square;stroke-width:4.5;"/>
   </g>
   <g id="line2d_13">
    <path clip-path="url(#p9b1871832c)" d="M 238.250625 169.588321 
L 238.250625 167.653405 
" style="fill:none;stroke:#3f3f3f;stroke-linecap:square;stroke-width:1.5;"/>
   </g>
   <g id="line2d_14">
    <path clip-path="url(#p9b1871832c)" d="M 238.250625 169.588321 
L 238.250625 167.653405 
" style="fill:none;stroke:#3f3f3f;stroke-linecap:square;stroke-width:4.5;"/>
   </g>
   <g id="line2d_15">
    <path clip-path="url(#p9b1871832c)" d="M 357.290625 204.007514 
L 357.290625 150.797303 
" style="fill:none;stroke:#3f3f3f;stroke-linecap:square;stroke-width:1.5;"/>
   </g>
   <g id="line2d_16">
    <path clip-path="url(#p9b1871832c)" d="M 357.290625 200.69583 
L 357.290625 170.66741 
" style="fill:none;stroke:#3f3f3f;stroke-linecap:square;stroke-width:4.5;"/>
   </g>
   <g id="patch_3">
    <path d="M 59.690625 261.608499 
L 59.690625 38.348869 
" style="fill:none;stroke:#000000;stroke-linecap:square;stroke-linejoin:miter;stroke-width:0.8;"/>
   </g>
   <g id="patch_4">
    <path d="M 119.210625 288.430125 
L 357.290625 288.430125 
" style="fill:none;stroke:#000000;stroke-linecap:square;stroke-linejoin:miter;stroke-width:0.8;"/>
   </g>
   <g id="PathCollection_1">
    <defs>
     <path d="M 0 1.5 
C 0.397805 1.5 0.77937 1.341951 1.06066 1.06066 
C 1.341951 0.77937 1.5 0.397805 1.5 0 
C 1.5 -0.397805 1.341951 -0.77937 1.06066 -1.06066 
C 0.77937 -1.341951 0.397805 -1.5 0 -1.5 
C -0.397805 -1.5 -0.77937 -1.341951 -1.06066 -1.06066 
C -1.341951 -0.77937 -1.5 -0.397805 -1.5 0 
C -1.5 0.397805 -1.341951 0.77937 -1.06066 1.06066 
C -0.77937 1.341951 -0.397805 1.5 0 1.5 
z
" id="mfce87ff154" style="stroke:#3f3f3f;"/>
    </defs>
    <g clip-path="url(#p9b1871832c)">
     <use style="fill:#ffffff;stroke:#3f3f3f;" x="119.210625" xlink:href="#mfce87ff154" y="151.801971"/>
    </g>
   </g>
   <g id="PathCollection_2">
    <g clip-path="url(#p9b1871832c)">
     <use style="fill:#ffffff;stroke:#3f3f3f;" x="238.250625" xlink:href="#mfce87ff154" y="168.695283"/>
    </g>
   </g>
   <g id="PathCollection_3">
    <g clip-path="url(#p9b1871832c)">
     <use style="fill:#ffffff;stroke:#3f3f3f;" x="357.290625" xlink:href="#mfce87ff154" y="183.430419"/>
    </g>
   </g>
   <g id="text_13">
    <!-- libxml2-v2.9.2 (22h, 5 trials/fuzzer) -->
    <g transform="translate(132.49125 16.318125)scale(0.12 -0.12)">
     <defs>
      <path d="M 48.6875 27.296875 
Q 48.6875 37.203125 44.609375 42.84375 
Q 40.53125 48.484375 33.40625 48.484375 
Q 26.265625 48.484375 22.1875 42.84375 
Q 18.109375 37.203125 18.109375 27.296875 
Q 18.109375 17.390625 22.1875 11.75 
Q 26.265625 6.109375 33.40625 6.109375 
Q 40.53125 6.109375 44.609375 11.75 
Q 48.6875 17.390625 48.6875 27.296875 
z
M 18.109375 46.390625 
Q 20.953125 51.265625 25.265625 53.625 
Q 29.59375 56 35.59375 56 
Q 45.5625 56 51.78125 48.09375 
Q 58.015625 40.1875 58.015625 27.296875 
Q 58.015625 14.40625 51.78125 6.484375 
Q 45.5625 -1.421875 35.59375 -1.421875 
Q 29.59375 -1.421875 25.265625 0.953125 
Q 20.953125 3.328125 18.109375 8.203125 
L 18.109375 0 
L 9.078125 0 
L 9.078125 75.984375 
L 18.109375 75.984375 
z
" id="DejaVuSans-98"/>
      <path d="M 54.890625 54.6875 
L 35.109375 28.078125 
L 55.90625 0 
L 45.3125 0 
L 29.390625 21.484375 
L 13.484375 0 
L 2.875 0 
L 24.125 28.609375 
L 4.6875 54.6875 
L 15.28125 54.6875 
L 29.78125 35.203125 
L 44.28125 54.6875 
z
" id="DejaVuSans-120"/>
      <path d="M 4.890625 31.390625 
L 31.203125 31.390625 
L 31.203125 23.390625 
L 4.890625 23.390625 
z
" id="DejaVuSans-45"/>
      <path d="M 10.6875 12.40625 
L 21 12.40625 
L 21 0 
L 10.6875 0 
z
" id="DejaVuSans-46"/>
      <path d="M 11.71875 12.40625 
L 22.015625 12.40625 
L 22.015625 4 
L 14.015625 -11.625 
L 7.71875 -11.625 
L 11.71875 4 
z
" id="DejaVuSans-44"/>
      <path d="M 10.796875 72.90625 
L 49.515625 72.90625 
L 49.515625 64.59375 
L 19.828125 64.59375 
L 19.828125 46.734375 
Q 21.96875 47.46875 24.109375 47.828125 
Q 26.265625 48.1875 28.421875 48.1875 
Q 40.625 48.1875 47.75 41.5 
Q 54.890625 34.8125 54.890625 23.390625 
Q 54.890625 11.625 47.5625 5.09375 
Q 40.234375 -1.421875 26.90625 -1.421875 
Q 22.3125 -1.421875 17.546875 -0.640625 
Q 12.796875 0.140625 7.71875 1.703125 
L 7.71875 11.625 
Q 12.109375 9.234375 16.796875 8.0625 
Q 21.484375 6.890625 26.703125 6.890625 
Q 35.15625 6.890625 40.078125 11.328125 
Q 45.015625 15.765625 45.015625 23.390625 
Q 45.015625 31 40.078125 35.4375 
Q 35.15625 39.890625 26.703125 39.890625 
Q 22.75 39.890625 18.8125 39.015625 
Q 14.890625 38.140625 10.796875 36.28125 
z
" id="DejaVuSans-53"/>
      <path d="M 25.390625 72.90625 
L 33.6875 72.90625 
L 8.296875 -9.28125 
L 0 -9.28125 
z
" id="DejaVuSans-47"/>
     </defs>
     <use xlink:href="#DejaVuSans-108"/>
     <use x="27.783203" xlink:href="#DejaVuSans-105"/>
     <use x="55.566406" xlink:href="#DejaVuSans-98"/>
     <use x="119.042969" xlink:href="#DejaVuSans-120"/>
     <use x="178.222656" xlink:href="#DejaVuSans-109"/>
     <use x="275.634766" xlink:href="#DejaVuSans-108"/>
     <use x="303.417969" xlink:href="#DejaVuSans-50"/>
     <use x="367.041016" xlink:href="#DejaVuSans-45"/>
     <use x="400.5" xlink:href="#DejaVuSans-118"/>
     <use x="459.679688" xlink:href="#DejaVuSans-50"/>
     <use x="523.302734" xlink:href="#DejaVuSans-46"/>
     <use x="555.089844" xlink:href="#DejaVuSans-57"/>
     <use x="618.712891" xlink:href="#DejaVuSans-46"/>
     <use x="650.5" xlink:href="#DejaVuSans-50"/>
     <use x="714.123047" xlink:href="#DejaVuSans-32"/>
     <use x="745.910156" xlink:href="#DejaVuSans-40"/>
     <use x="784.923828" xlink:href="#DejaVuSans-50"/>
     <use x="848.546875" xlink:href="#DejaVuSans-50"/>
     <use x="912.169922" xlink:href="#DejaVuSans-104"/>
     <use x="975.548828" xlink:href="#DejaVuSans-44"/>
     <use x="1007.335938" xlink:href="#DejaVuSans-32"/>
     <use x="1039.123047" xlink:href="#DejaVuSans-53"/>
     <use x="1102.746094" xlink:href="#DejaVuSans-32"/>
     <use x="1134.533203" xlink:href="#DejaVuSans-116"/>
     <use x="1173.742188" xlink:href="#DejaVuSans-114"/>
     <use x="1214.855469" xlink:href="#DejaVuSans-105"/>
     <use x="1242.638672" xlink:href="#DejaVuSans-97"/>
     <use x="1303.917969" xlink:href="#DejaVuSans-108"/>
     <use x="1331.701172" xlink:href="#DejaVuSans-115"/>
     <use x="1383.800781" xlink:href="#DejaVuSans-47"/>
     <use x="1417.492188" xlink:href="#DejaVuSans-102"/>
     <use x="1452.697266" xlink:href="#DejaVuSans-117"/>
     <use x="1516.076172" xlink:href="#DejaVuSans-122"/>
     <use x="1568.566406" xlink:href="#DejaVuSans-122"/>
     <use x="1621.056641" xlink:href="#DejaVuSans-101"/>
     <use x="1682.580078" xlink:href="#DejaVuSans-114"/>
     <use x="1723.693359" xlink:href="#DejaVuSans-41"/>
    </g>
   </g>
  </g>
 </g>
 <defs>
  <clipPath id="p9b1871832c">
   <rect height="266.112" width="357.12" x="59.690625" y="22.318125"/>
  </clipPath>
 </defs>
</svg>
