<?xml version="1.0" encoding="utf-8" standalone="no"?>
<!DOCTYPE svg PUBLIC "-//W3C//DTD SVG 1.1//EN"
  "http://www.w3.org/Graphics/SVG/1.1/DTD/svg11.dtd">
<!-- Created with matplotlib (https://matplotlib.org/) -->
<svg height="365.293115pt" version="1.1" viewBox="0 0 424.010625 365.293115" width="424.010625pt" xmlns="http://www.w3.org/2000/svg" xmlns:xlink="http://www.w3.org/1999/xlink">
 <metadata>
  <rdf:RDF xmlns:cc="http://creativecommons.org/ns#" xmlns:dc="http://purl.org/dc/elements/1.1/" xmlns:rdf="http://www.w3.org/1999/02/22-rdf-syntax-ns#">
   <cc:Work>
    <dc:type rdf:resource="http://purl.org/dc/dcmitype/StillImage"/>
    <dc:date>2020-08-24T21:07:59.715499</dc:date>
    <dc:format>image/svg+xml</dc:format>
    <dc:creator>
     <cc:Agent>
      <dc:title>Matplotlib v3.3.1, https://matplotlib.org/</dc:title>
     </cc:Agent>
    </dc:creator>
   </cc:Work>
  </rdf:RDF>
 </metadata>
 <defs>
  <style type="text/css">*{stroke-linecap:butt;stroke-linejoin:round;}</style>
 </defs>
 <g id="figure_1">
  <g id="patch_1">
   <path d="M 0 365.293115 
L 424.010625 365.293115 
L 424.010625 0 
L 0 0 
z
" style="fill:#ffffff;"/>
  </g>
  <g id="axes_1">
   <g id="patch_2">
    <path d="M 59.690625 288.430125 
L 416.810625 288.430125 
L 416.810625 22.318125 
L 59.690625 22.318125 
z
" style="fill:#ffffff;"/>
   </g>
   <g id="PolyCollection_1">
    <defs>
     <path d="M 120.432899 -157.455564 
L 117.988351 -157.455564 
L 117.782839 -159.207315 
L 117.551681 -160.959067 
L 117.293357 -162.710819 
L 117.006549 -164.462571 
L 116.690202 -166.214323 
L 116.343575 -167.966074 
L 115.966291 -169.717826 
L 115.558389 -171.469578 
L 115.120364 -173.22133 
L 114.653195 -174.973081 
L 114.158369 -176.724833 
L 113.637889 -178.476585 
L 113.094265 -180.228337 
L 112.530494 -181.980089 
L 111.950022 -183.73184 
L 111.356694 -185.483592 
L 110.754686 -187.235344 
L 110.148424 -188.987096 
L 109.542502 -190.738848 
L 108.941577 -192.490599 
L 108.35028 -194.242351 
L 107.773107 -195.994103 
L 107.214332 -197.745855 
L 106.677915 -199.497606 
L 106.167426 -201.249358 
L 105.685985 -203.00111 
L 105.236217 -204.752862 
L 104.820223 -206.504614 
L 104.439572 -208.256365 
L 104.095315 -210.008117 
L 103.788008 -211.759869 
L 103.517759 -213.511621 
L 103.284282 -215.263373 
L 103.086961 -217.015124 
L 102.924917 -218.766876 
L 102.797082 -220.518628 
L 102.702266 -222.27038 
L 102.639213 -224.022131 
L 102.606656 -225.773883 
L 102.603357 -227.525635 
L 102.62813 -229.277387 
L 102.679857 -231.029139 
L 102.757485 -232.78089 
L 102.860017 -234.532642 
L 102.986487 -236.284394 
L 103.135939 -238.036146 
L 103.307387 -239.787898 
L 103.499792 -241.539649 
L 103.71203 -243.291401 
L 103.942869 -245.043153 
L 104.190962 -246.794905 
L 104.454837 -248.546656 
L 104.73291 -250.298408 
L 105.023503 -252.05016 
L 105.324873 -253.801912 
L 105.635254 -255.553664 
L 105.952895 -257.305415 
L 106.276114 -259.057167 
L 106.603345 -260.808919 
L 106.933183 -262.560671 
L 107.264424 -264.312423 
L 107.596097 -266.064174 
L 107.927481 -267.815926 
L 108.258118 -269.567678 
L 108.587805 -271.31943 
L 108.916574 -273.071181 
L 109.244667 -274.822933 
L 109.572489 -276.574685 
L 109.900562 -278.326437 
L 110.229473 -280.078189 
L 110.559811 -281.82994 
L 110.892112 -283.581692 
L 111.226807 -285.333444 
L 111.564174 -287.085196 
L 111.904297 -288.836948 
L 112.24704 -290.588699 
L 112.59203 -292.340451 
L 112.938648 -294.092203 
L 113.286043 -295.843955 
L 113.633145 -297.595706 
L 113.978695 -299.347458 
L 114.321281 -301.09921 
L 114.659381 -302.850962 
L 114.991412 -304.602714 
L 115.315775 -306.354465 
L 115.630905 -308.106217 
L 115.935313 -309.857969 
L 116.227632 -311.609721 
L 116.50665 -313.361473 
L 116.771334 -315.113224 
L 117.020858 -316.864976 
L 117.254607 -318.616728 
L 117.472191 -320.36848 
L 117.673436 -322.120231 
L 117.858377 -323.871983 
L 118.027248 -325.623735 
L 118.180455 -327.375487 
L 118.31856 -329.127239 
L 118.442255 -330.87899 
L 119.978995 -330.87899 
L 119.978995 -330.87899 
L 120.10269 -329.127239 
L 120.240795 -327.375487 
L 120.394002 -325.623735 
L 120.562873 -323.871983 
L 120.747814 -322.120231 
L 120.949059 -320.36848 
L 121.166643 -318.616728 
L 121.400392 -316.864976 
L 121.649916 -315.113224 
L 121.9146 -313.361473 
L 122.193618 -311.609721 
L 122.485937 -309.857969 
L 122.790345 -308.106217 
L 123.105475 -306.354465 
L 123.429838 -304.602714 
L 123.761869 -302.850962 
L 124.099969 -301.09921 
L 124.442555 -299.347458 
L 124.788105 -297.595706 
L 125.135207 -295.843955 
L 125.482602 -294.092203 
L 125.82922 -292.340451 
L 126.17421 -290.588699 
L 126.516953 -288.836948 
L 126.857076 -287.085196 
L 127.194443 -285.333444 
L 127.529138 -283.581692 
L 127.861439 -281.82994 
L 128.191777 -280.078189 
L 128.520688 -278.326437 
L 128.848761 -276.574685 
L 129.176583 -274.822933 
L 129.504676 -273.071181 
L 129.833445 -271.31943 
L 130.163132 -269.567678 
L 130.493769 -267.815926 
L 130.825153 -266.064174 
L 131.156826 -264.312423 
L 131.488067 -262.560671 
L 131.817905 -260.808919 
L 132.145136 -259.057167 
L 132.468355 -257.305415 
L 132.785996 -255.553664 
L 133.096377 -253.801912 
L 133.397747 -252.05016 
L 133.68834 -250.298408 
L 133.966413 -248.546656 
L 134.230288 -246.794905 
L 134.478381 -245.043153 
L 134.70922 -243.291401 
L 134.921458 -241.539649 
L 135.113863 -239.787898 
L 135.285311 -238.036146 
L 135.434763 -236.284394 
L 135.561233 -234.532642 
L 135.663765 -232.78089 
L 135.741393 -231.029139 
L 135.79312 -229.277387 
L 135.817893 -227.525635 
L 135.814594 -225.773883 
L 135.782037 -224.022131 
L 135.718984 -222.27038 
L 135.624168 -220.518628 
L 135.496333 -218.766876 
L 135.334289 -217.015124 
L 135.136968 -215.263373 
L 134.903491 -213.511621 
L 134.633242 -211.759869 
L 134.325935 -210.008117 
L 133.981678 -208.256365 
L 133.601027 -206.504614 
L 133.185033 -204.752862 
L 132.735265 -203.00111 
L 132.253824 -201.249358 
L 131.743335 -199.497606 
L 131.206918 -197.745855 
L 130.648143 -195.994103 
L 130.07097 -194.242351 
L 129.479673 -192.490599 
L 128.878748 -190.738848 
L 128.272826 -188.987096 
L 127.666564 -187.235344 
L 127.064556 -185.483592 
L 126.471228 -183.73184 
L 125.890756 -181.980089 
L 125.326985 -180.228337 
L 124.783361 -178.476585 
L 124.262881 -176.724833 
L 123.768055 -174.973081 
L 123.300886 -173.22133 
L 122.862861 -171.469578 
L 122.454959 -169.717826 
L 122.077675 -167.966074 
L 121.731048 -166.214323 
L 121.414701 -164.462571 
L 121.127893 -162.710819 
L 120.869569 -160.959067 
L 120.638411 -159.207315 
L 120.432899 -157.455564 
z
" id="m6c9e60f5ed" style="stroke:#3f3f3f;stroke-width:1.5;"/>
    </defs>
    <g clip-path="url(#pc8ee5b0f4e)">
     <use style="fill:#e1812c;stroke:#3f3f3f;stroke-width:1.5;" x="0" xlink:href="#m6c9e60f5ed" y="365.293115"/>
    </g>
   </g>
   <g id="PolyCollection_2">
    <defs>
     <path d="M 241.601161 -153.144891 
L 234.900089 -153.144891 
L 234.325579 -153.837936 
L 233.676705 -154.530982 
L 232.948429 -155.224027 
L 232.136178 -155.917073 
L 231.236002 -156.610118 
L 230.24474 -157.303163 
L 229.160178 -157.996209 
L 227.981207 -158.689254 
L 226.707972 -159.3823 
L 225.341996 -160.075345 
L 223.886287 -160.76839 
L 222.345421 -161.461436 
L 220.725579 -162.154481 
L 219.034564 -162.847526 
L 217.281765 -163.540572 
L 215.478089 -164.233617 
L 213.635851 -164.926663 
L 211.768617 -165.619708 
L 209.891024 -166.312753 
L 208.018554 -167.005799 
L 206.167294 -167.698844 
L 204.353666 -168.39189 
L 202.59415 -169.084935 
L 200.905 -169.77798 
L 199.301962 -170.471026 
L 197.800006 -171.164071 
L 196.413066 -171.857117 
L 195.153815 -172.550162 
L 194.033458 -173.243207 
L 193.061562 -173.936253 
L 192.245914 -174.629298 
L 191.592424 -175.322343 
L 191.105054 -176.015389 
L 190.785787 -176.708434 
L 190.634625 -177.40148 
L 190.64962 -178.094525 
L 190.826934 -178.78757 
L 191.16092 -179.480616 
L 191.644229 -180.173661 
L 192.26794 -180.866707 
L 193.021701 -181.559752 
L 193.893893 -182.252797 
L 194.871807 -182.945843 
L 195.94184 -183.638888 
L 197.089694 -184.331934 
L 198.300599 -185.024979 
L 199.559535 -185.718024 
L 200.851474 -186.41107 
L 202.161614 -187.104115 
L 203.475627 -187.79716 
L 204.779895 -188.490206 
L 206.061745 -189.183251 
L 207.309668 -189.876297 
L 208.513515 -190.569342 
L 209.664675 -191.262387 
L 210.756214 -191.955433 
L 211.782981 -192.648478 
L 212.741672 -193.341524 
L 213.630842 -194.034569 
L 214.450878 -194.727614 
L 215.20392 -195.42066 
L 215.893728 -196.113705 
L 216.525518 -196.806751 
L 217.105744 -197.499796 
L 217.641861 -198.192841 
L 218.142053 -198.885887 
L 218.614949 -199.578932 
L 219.069336 -200.271978 
L 219.513867 -200.965023 
L 219.956795 -201.658068 
L 220.405719 -202.351114 
L 220.867367 -203.044159 
L 221.347416 -203.737204 
L 221.850354 -204.43025 
L 222.379392 -205.123295 
L 222.936417 -205.816341 
L 223.521999 -206.509386 
L 224.13544 -207.202431 
L 224.774862 -207.895477 
L 225.43733 -208.588522 
L 226.119008 -209.281568 
L 226.815331 -209.974613 
L 227.521189 -210.667658 
L 228.231122 -211.360704 
L 228.939505 -212.053749 
L 229.640733 -212.746795 
L 230.329385 -213.43984 
L 231.000366 -214.132885 
L 231.649036 -214.825931 
L 232.271302 -215.518976 
L 232.863693 -216.212021 
L 233.423401 -216.905067 
L 233.948299 -217.598112 
L 234.436944 -218.291158 
L 234.888543 -218.984203 
L 235.302917 -219.677248 
L 235.680446 -220.370294 
L 236.021998 -221.063339 
L 236.328864 -221.756385 
L 240.172386 -221.756385 
L 240.172386 -221.756385 
L 240.479252 -221.063339 
L 240.820804 -220.370294 
L 241.198333 -219.677248 
L 241.612707 -218.984203 
L 242.064306 -218.291158 
L 242.552951 -217.598112 
L 243.077849 -216.905067 
L 243.637557 -216.212021 
L 244.229948 -215.518976 
L 244.852214 -214.825931 
L 245.500884 -214.132885 
L 246.171865 -213.43984 
L 246.860517 -212.746795 
L 247.561745 -212.053749 
L 248.270128 -211.360704 
L 248.980061 -210.667658 
L 249.685919 -209.974613 
L 250.382242 -209.281568 
L 251.06392 -208.588522 
L 251.726388 -207.895477 
L 252.36581 -207.202431 
L 252.979251 -206.509386 
L 253.564833 -205.816341 
L 254.121858 -205.123295 
L 254.650896 -204.43025 
L 255.153834 -203.737204 
L 255.633883 -203.044159 
L 256.095531 -202.351114 
L 256.544455 -201.658068 
L 256.987383 -200.965023 
L 257.431914 -200.271978 
L 257.886301 -199.578932 
L 258.359197 -198.885887 
L 258.859389 -198.192841 
L 259.395506 -197.499796 
L 259.975732 -196.806751 
L 260.607522 -196.113705 
L 261.29733 -195.42066 
L 262.050372 -194.727614 
L 262.870408 -194.034569 
L 263.759578 -193.341524 
L 264.718269 -192.648478 
L 265.745036 -191.955433 
L 266.836575 -191.262387 
L 267.987735 -190.569342 
L 269.191582 -189.876297 
L 270.439505 -189.183251 
L 271.721355 -188.490206 
L 273.025623 -187.79716 
L 274.339636 -187.104115 
L 275.649776 -186.41107 
L 276.941715 -185.718024 
L 278.200651 -185.024979 
L 279.411556 -184.331934 
L 280.55941 -183.638888 
L 281.629443 -182.945843 
L 282.607357 -182.252797 
L 283.479549 -181.559752 
L 284.23331 -180.866707 
L 284.857021 -180.173661 
L 285.34033 -179.480616 
L 285.674316 -178.78757 
L 285.85163 -178.094525 
L 285.866625 -177.40148 
L 285.715463 -176.708434 
L 285.396196 -176.015389 
L 284.908826 -175.322343 
L 284.255336 -174.629298 
L 283.439688 -173.936253 
L 282.467792 -173.243207 
L 281.347435 -172.550162 
L 280.088184 -171.857117 
L 278.701244 -171.164071 
L 277.199288 -170.471026 
L 275.59625 -169.77798 
L 273.9071 -169.084935 
L 272.147584 -168.39189 
L 270.333956 -167.698844 
L 268.482696 -167.005799 
L 266.610226 -166.312753 
L 264.732633 -165.619708 
L 262.865399 -164.926663 
L 261.023161 -164.233617 
L 259.219485 -163.540572 
L 257.466686 -162.847526 
L 255.775671 -162.154481 
L 254.155829 -161.461436 
L 252.614963 -160.76839 
L 251.159254 -160.075345 
L 249.793278 -159.3823 
L 248.520043 -158.689254 
L 247.341072 -157.996209 
L 246.25651 -157.303163 
L 245.265248 -156.610118 
L 244.365072 -155.917073 
L 243.552821 -155.224027 
L 242.824545 -154.530982 
L 242.175671 -153.837936 
L 241.601161 -153.144891 
z
" id="m93995abafb" style="stroke:#3f3f3f;stroke-width:1.5;"/>
    </defs>
    <g clip-path="url(#pc8ee5b0f4e)">
     <use style="fill:#b5c8e1;stroke:#3f3f3f;stroke-width:1.5;" x="0" xlink:href="#m93995abafb" y="365.293115"/>
    </g>
   </g>
   <g id="PolyCollection_3">
    <defs>
     <path d="M 358.45407 -88.95899 
L 356.12718 -88.95899 
L 355.943423 -90.091958 
L 355.739208 -91.224926 
L 355.513829 -92.357894 
L 355.26684 -93.490862 
L 354.998098 -94.62383 
L 354.707804 -95.756797 
L 354.396535 -96.889765 
L 354.065279 -98.022733 
L 353.715444 -99.155701 
L 353.348871 -100.288669 
L 352.967819 -101.421637 
L 352.574948 -102.554605 
L 352.173281 -103.687572 
L 351.766141 -104.82054 
L 351.357093 -105.953508 
L 350.949847 -107.086476 
L 350.548166 -108.219444 
L 350.155758 -109.352412 
L 349.776152 -110.485379 
L 349.412586 -111.618347 
L 349.067878 -112.751315 
L 348.744316 -113.884283 
L 348.443544 -115.017251 
L 348.166474 -116.150219 
L 347.913204 -117.283186 
L 347.682963 -118.416154 
L 347.474081 -119.549122 
L 347.283983 -120.68209 
L 347.109208 -121.815058 
L 346.945467 -122.948026 
L 346.787717 -124.080994 
L 346.630264 -125.213961 
L 346.466899 -126.346929 
L 346.29104 -127.479897 
L 346.095901 -128.612865 
L 345.87467 -129.745833 
L 345.620692 -130.878801 
L 345.327655 -132.011768 
L 344.989775 -133.144736 
L 344.60197 -134.277704 
L 344.160021 -135.410672 
L 343.66072 -136.54364 
L 343.101995 -137.676608 
L 342.483011 -138.809575 
L 341.80425 -139.942543 
L 341.067559 -141.075511 
L 340.276174 -142.208479 
L 339.434714 -143.341447 
L 338.549146 -144.474415 
L 337.626727 -145.607382 
L 336.675909 -146.74035 
L 335.706235 -147.873318 
L 334.728194 -149.006286 
L 333.753065 -150.139254 
L 332.79274 -151.272222 
L 331.859529 -152.40519 
L 330.965947 -153.538157 
L 330.1245 -154.671125 
L 329.347458 -155.804093 
L 328.646624 -156.937061 
L 328.033112 -158.070029 
L 327.517124 -159.202997 
L 327.107741 -160.335964 
L 326.812739 -161.468932 
L 326.638414 -162.6019 
L 326.589443 -163.734868 
L 326.668772 -164.867836 
L 326.877543 -166.000804 
L 327.215054 -167.133771 
L 327.678766 -168.266739 
L 328.264342 -169.399707 
L 328.965734 -170.532675 
L 329.775304 -171.665643 
L 330.683985 -172.798611 
L 331.681471 -173.931579 
L 332.75643 -175.064546 
L 333.896744 -176.197514 
L 335.089758 -177.330482 
L 336.322535 -178.46345 
L 337.582108 -179.596418 
L 338.855731 -180.729386 
L 340.131103 -181.862353 
L 341.396582 -182.995321 
L 342.641365 -184.128289 
L 343.855642 -185.261257 
L 345.030714 -186.394225 
L 346.159081 -187.527193 
L 347.23449 -188.66016 
L 348.251954 -189.793128 
L 349.207738 -190.926096 
L 350.099315 -192.059064 
L 350.925297 -193.192032 
L 351.685352 -194.325 
L 352.380095 -195.457968 
L 353.010972 -196.590935 
L 353.580142 -197.723903 
L 354.090348 -198.856871 
L 354.544794 -199.989839 
L 354.947026 -201.122807 
L 359.634224 -201.122807 
L 359.634224 -201.122807 
L 360.036456 -199.989839 
L 360.490902 -198.856871 
L 361.001108 -197.723903 
L 361.570278 -196.590935 
L 362.201155 -195.457968 
L 362.895898 -194.325 
L 363.655953 -193.192032 
L 364.481935 -192.059064 
L 365.373512 -190.926096 
L 366.329296 -189.793128 
L 367.34676 -188.66016 
L 368.422169 -187.527193 
L 369.550536 -186.394225 
L 370.725608 -185.261257 
L 371.939885 -184.128289 
L 373.184668 -182.995321 
L 374.450147 -181.862353 
L 375.725519 -180.729386 
L 376.999142 -179.596418 
L 378.258715 -178.46345 
L 379.491492 -177.330482 
L 380.684506 -176.197514 
L 381.82482 -175.064546 
L 382.899779 -173.931579 
L 383.897265 -172.798611 
L 384.805946 -171.665643 
L 385.615516 -170.532675 
L 386.316908 -169.399707 
L 386.902484 -168.266739 
L 387.366196 -167.133771 
L 387.703707 -166.000804 
L 387.912478 -164.867836 
L 387.991807 -163.734868 
L 387.942836 -162.6019 
L 387.768511 -161.468932 
L 387.473509 -160.335964 
L 387.064126 -159.202997 
L 386.548138 -158.070029 
L 385.934626 -156.937061 
L 385.233792 -155.804093 
L 384.45675 -154.671125 
L 383.615303 -153.538157 
L 382.721721 -152.40519 
L 381.78851 -151.272222 
L 380.828185 -150.139254 
L 379.853056 -149.006286 
L 378.875015 -147.873318 
L 377.905341 -146.74035 
L 376.954523 -145.607382 
L 376.032104 -144.474415 
L 375.146536 -143.341447 
L 374.305076 -142.208479 
L 373.513691 -141.075511 
L 372.777 -139.942543 
L 372.098239 -138.809575 
L 371.479255 -137.676608 
L 370.92053 -136.54364 
L 370.421229 -135.410672 
L 369.97928 -134.277704 
L 369.591475 -133.144736 
L 369.253595 -132.011768 
L 368.960558 -130.878801 
L 368.70658 -129.745833 
L 368.485349 -128.612865 
L 368.29021 -127.479897 
L 368.114351 -126.346929 
L 367.950986 -125.213961 
L 367.793533 -124.080994 
L 367.635783 -122.948026 
L 367.472042 -121.815058 
L 367.297267 -120.68209 
L 367.107169 -119.549122 
L 366.898287 -118.416154 
L 366.668046 -117.283186 
L 366.414776 -116.150219 
L 366.137706 -115.017251 
L 365.836934 -113.884283 
L 365.513372 -112.751315 
L 365.168664 -111.618347 
L 364.805098 -110.485379 
L 364.425492 -109.352412 
L 364.033084 -108.219444 
L 363.631403 -107.086476 
L 363.224157 -105.953508 
L 362.815109 -104.82054 
L 362.407969 -103.687572 
L 362.006302 -102.554605 
L 361.613431 -101.421637 
L 361.232379 -100.288669 
L 360.865806 -99.155701 
L 360.515971 -98.022733 
L 360.184715 -96.889765 
L 359.873446 -95.756797 
L 359.583152 -94.62383 
L 359.31441 -93.490862 
L 359.067421 -92.357894 
L 358.842042 -91.224926 
L 358.637827 -90.091958 
L 358.45407 -88.95899 
z
" id="m859f9abc6d" style="stroke:#3f3f3f;stroke-width:1.5;"/>
    </defs>
    <g clip-path="url(#pc8ee5b0f4e)">
     <use style="fill:#3274a1;stroke:#3f3f3f;stroke-width:1.5;" x="0" xlink:href="#m859f9abc6d" y="365.293115"/>
    </g>
   </g>
   <g id="matplotlib.axis_1">
    <g id="xtick_1">
     <g id="line2d_1">
      <defs>
       <path d="M 0 0 
L 0 3.5 
" id="m9a592ad9d7" style="stroke:#000000;stroke-width:0.8;"/>
      </defs>
      <g>
       <use style="stroke:#000000;stroke-width:0.8;" x="119.210625" xlink:href="#m9a592ad9d7" y="288.430125"/>
      </g>
     </g>
     <g id="text_1">
      <!-- power_schedule -->
      <g transform="translate(48.121818 342.373065)rotate(-30)scale(0.1 -0.1)">
       <defs>
        <path d="M 18.109375 8.203125 
L 18.109375 -20.796875 
L 9.078125 -20.796875 
L 9.078125 54.6875 
L 18.109375 54.6875 
L 18.109375 46.390625 
Q 20.953125 51.265625 25.265625 53.625 
Q 29.59375 56 35.59375 56 
Q 45.5625 56 51.78125 48.09375 
Q 58.015625 40.1875 58.015625 27.296875 
Q 58.015625 14.40625 51.78125 6.484375 
Q 45.5625 -1.421875 35.59375 -1.421875 
Q 29.59375 -1.421875 25.265625 0.953125 
Q 20.953125 3.328125 18.109375 8.203125 
z
M 48.6875 27.296875 
Q 48.6875 37.203125 44.609375 42.84375 
Q 40.53125 48.484375 33.40625 48.484375 
Q 26.265625 48.484375 22.1875 42.84375 
Q 18.109375 37.203125 18.109375 27.296875 
Q 18.109375 17.390625 22.1875 11.75 
Q 26.265625 6.109375 33.40625 6.109375 
Q 40.53125 6.109375 44.609375 11.75 
Q 48.6875 17.390625 48.6875 27.296875 
z
" id="DejaVuSans-112"/>
        <path d="M 30.609375 48.390625 
Q 23.390625 48.390625 19.1875 42.75 
Q 14.984375 37.109375 14.984375 27.296875 
Q 14.984375 17.484375 19.15625 11.84375 
Q 23.34375 6.203125 30.609375 6.203125 
Q 37.796875 6.203125 41.984375 11.859375 
Q 46.1875 17.53125 46.1875 27.296875 
Q 46.1875 37.015625 41.984375 42.703125 
Q 37.796875 48.390625 30.609375 48.390625 
z
M 30.609375 56 
Q 42.328125 56 49.015625 48.375 
Q 55.71875 40.765625 55.71875 27.296875 
Q 55.71875 13.875 49.015625 6.21875 
Q 42.328125 -1.421875 30.609375 -1.421875 
Q 18.84375 -1.421875 12.171875 6.21875 
Q 5.515625 13.875 5.515625 27.296875 
Q 5.515625 40.765625 12.171875 48.375 
Q 18.84375 56 30.609375 56 
z
" id="DejaVuSans-111"/>
        <path d="M 4.203125 54.6875 
L 13.1875 54.6875 
L 24.421875 12.015625 
L 35.59375 54.6875 
L 46.1875 54.6875 
L 57.421875 12.015625 
L 68.609375 54.6875 
L 77.59375 54.6875 
L 63.28125 0 
L 52.6875 0 
L 40.921875 44.828125 
L 29.109375 0 
L 18.5 0 
z
" id="DejaVuSans-119"/>
        <path d="M 56.203125 29.59375 
L 56.203125 25.203125 
L 14.890625 25.203125 
Q 15.484375 15.921875 20.484375 11.0625 
Q 25.484375 6.203125 34.421875 6.203125 
Q 39.59375 6.203125 44.453125 7.46875 
Q 49.3125 8.734375 54.109375 11.28125 
L 54.109375 2.78125 
Q 49.265625 0.734375 44.1875 -0.34375 
Q 39.109375 -1.421875 33.890625 -1.421875 
Q 20.796875 -1.421875 13.15625 6.1875 
Q 5.515625 13.8125 5.515625 26.8125 
Q 5.515625 40.234375 12.765625 48.109375 
Q 20.015625 56 32.328125 56 
Q 43.359375 56 49.78125 48.890625 
Q 56.203125 41.796875 56.203125 29.59375 
z
M 47.21875 32.234375 
Q 47.125 39.59375 43.09375 43.984375 
Q 39.0625 48.390625 32.421875 48.390625 
Q 24.90625 48.390625 20.390625 44.140625 
Q 15.875 39.890625 15.1875 32.171875 
z
" id="DejaVuSans-101"/>
        <path d="M 41.109375 46.296875 
Q 39.59375 47.171875 37.8125 47.578125 
Q 36.03125 48 33.890625 48 
Q 26.265625 48 22.1875 43.046875 
Q 18.109375 38.09375 18.109375 28.8125 
L 18.109375 0 
L 9.078125 0 
L 9.078125 54.6875 
L 18.109375 54.6875 
L 18.109375 46.1875 
Q 20.953125 51.171875 25.484375 53.578125 
Q 30.03125 56 36.53125 56 
Q 37.453125 56 38.578125 55.875 
Q 39.703125 55.765625 41.0625 55.515625 
z
" id="DejaVuSans-114"/>
        <path d="M 50.984375 -16.609375 
L 50.984375 -23.578125 
L -0.984375 -23.578125 
L -0.984375 -16.609375 
z
" id="DejaVuSans-95"/>
        <path d="M 44.28125 53.078125 
L 44.28125 44.578125 
Q 40.484375 46.53125 36.375 47.5 
Q 32.28125 48.484375 27.875 48.484375 
Q 21.1875 48.484375 17.84375 46.4375 
Q 14.5 44.390625 14.5 40.28125 
Q 14.5 37.15625 16.890625 35.375 
Q 19.28125 33.59375 26.515625 31.984375 
L 29.59375 31.296875 
Q 39.15625 29.25 43.1875 25.515625 
Q 47.21875 21.78125 47.21875 15.09375 
Q 47.21875 7.46875 41.1875 3.015625 
Q 35.15625 -1.421875 24.609375 -1.421875 
Q 20.21875 -1.421875 15.453125 -0.5625 
Q 10.6875 0.296875 5.421875 2 
L 5.421875 11.28125 
Q 10.40625 8.6875 15.234375 7.390625 
Q 20.0625 6.109375 24.8125 6.109375 
Q 31.15625 6.109375 34.5625 8.28125 
Q 37.984375 10.453125 37.984375 14.40625 
Q 37.984375 18.0625 35.515625 20.015625 
Q 33.0625 21.96875 24.703125 23.78125 
L 21.578125 24.515625 
Q 13.234375 26.265625 9.515625 29.90625 
Q 5.8125 33.546875 5.8125 39.890625 
Q 5.8125 47.609375 11.28125 51.796875 
Q 16.75 56 26.8125 56 
Q 31.78125 56 36.171875 55.265625 
Q 40.578125 54.546875 44.28125 53.078125 
z
" id="DejaVuSans-115"/>
        <path d="M 48.78125 52.59375 
L 48.78125 44.1875 
Q 44.96875 46.296875 41.140625 47.34375 
Q 37.3125 48.390625 33.40625 48.390625 
Q 24.65625 48.390625 19.8125 42.84375 
Q 14.984375 37.3125 14.984375 27.296875 
Q 14.984375 17.28125 19.8125 11.734375 
Q 24.65625 6.203125 33.40625 6.203125 
Q 37.3125 6.203125 41.140625 7.25 
Q 44.96875 8.296875 48.78125 10.40625 
L 48.78125 2.09375 
Q 45.015625 0.34375 40.984375 -0.53125 
Q 36.96875 -1.421875 32.421875 -1.421875 
Q 20.0625 -1.421875 12.78125 6.34375 
Q 5.515625 14.109375 5.515625 27.296875 
Q 5.515625 40.671875 12.859375 48.328125 
Q 20.21875 56 33.015625 56 
Q 37.15625 56 41.109375 55.140625 
Q 45.0625 54.296875 48.78125 52.59375 
z
" id="DejaVuSans-99"/>
        <path d="M 54.890625 33.015625 
L 54.890625 0 
L 45.90625 0 
L 45.90625 32.71875 
Q 45.90625 40.484375 42.875 44.328125 
Q 39.84375 48.1875 33.796875 48.1875 
Q 26.515625 48.1875 22.3125 43.546875 
Q 18.109375 38.921875 18.109375 30.90625 
L 18.109375 0 
L 9.078125 0 
L 9.078125 75.984375 
L 18.109375 75.984375 
L 18.109375 46.1875 
Q 21.34375 51.125 25.703125 53.5625 
Q 30.078125 56 35.796875 56 
Q 45.21875 56 50.046875 50.171875 
Q 54.890625 44.34375 54.890625 33.015625 
z
" id="DejaVuSans-104"/>
        <path d="M 45.40625 46.390625 
L 45.40625 75.984375 
L 54.390625 75.984375 
L 54.390625 0 
L 45.40625 0 
L 45.40625 8.203125 
Q 42.578125 3.328125 38.25 0.953125 
Q 33.9375 -1.421875 27.875 -1.421875 
Q 17.96875 -1.421875 11.734375 6.484375 
Q 5.515625 14.40625 5.515625 27.296875 
Q 5.515625 40.1875 11.734375 48.09375 
Q 17.96875 56 27.875 56 
Q 33.9375 56 38.25 53.625 
Q 42.578125 51.265625 45.40625 46.390625 
z
M 14.796875 27.296875 
Q 14.796875 17.390625 18.875 11.75 
Q 22.953125 6.109375 30.078125 6.109375 
Q 37.203125 6.109375 41.296875 11.75 
Q 45.40625 17.390625 45.40625 27.296875 
Q 45.40625 37.203125 41.296875 42.84375 
Q 37.203125 48.484375 30.078125 48.484375 
Q 22.953125 48.484375 18.875 42.84375 
Q 14.796875 37.203125 14.796875 27.296875 
z
" id="DejaVuSans-100"/>
        <path d="M 8.5 21.578125 
L 8.5 54.6875 
L 17.484375 54.6875 
L 17.484375 21.921875 
Q 17.484375 14.15625 20.5 10.265625 
Q 23.53125 6.390625 29.59375 6.390625 
Q 36.859375 6.390625 41.078125 11.03125 
Q 45.3125 15.671875 45.3125 23.6875 
L 45.3125 54.6875 
L 54.296875 54.6875 
L 54.296875 0 
L 45.3125 0 
L 45.3125 8.40625 
Q 42.046875 3.421875 37.71875 1 
Q 33.40625 -1.421875 27.6875 -1.421875 
Q 18.265625 -1.421875 13.375 4.4375 
Q 8.5 10.296875 8.5 21.578125 
z
M 31.109375 56 
z
" id="DejaVuSans-117"/>
        <path d="M 9.421875 75.984375 
L 18.40625 75.984375 
L 18.40625 0 
L 9.421875 0 
z
" id="DejaVuSans-108"/>
       </defs>
       <use xlink:href="#DejaVuSans-112"/>
       <use x="63.476562" xlink:href="#DejaVuSans-111"/>
       <use x="124.658203" xlink:href="#DejaVuSans-119"/>
       <use x="206.445312" xlink:href="#DejaVuSans-101"/>
       <use x="267.96875" xlink:href="#DejaVuSans-114"/>
       <use x="309.082031" xlink:href="#DejaVuSans-95"/>
       <use x="359.082031" xlink:href="#DejaVuSans-115"/>
       <use x="411.181641" xlink:href="#DejaVuSans-99"/>
       <use x="466.162109" xlink:href="#DejaVuSans-104"/>
       <use x="529.541016" xlink:href="#DejaVuSans-101"/>
       <use x="591.064453" xlink:href="#DejaVuSans-100"/>
       <use x="654.541016" xlink:href="#DejaVuSans-117"/>
       <use x="717.919922" xlink:href="#DejaVuSans-108"/>
       <use x="745.703125" xlink:href="#DejaVuSans-101"/>
      </g>
     </g>
    </g>
    <g id="xtick_2">
     <g id="line2d_2">
      <g>
       <use style="stroke:#000000;stroke-width:0.8;" x="238.250625" xlink:href="#m9a592ad9d7" y="288.430125"/>
      </g>
     </g>
     <g id="text_2">
      <!-- dark -->
      <g transform="translate(217.830757 313.199627)rotate(-30)scale(0.1 -0.1)">
       <defs>
        <path d="M 34.28125 27.484375 
Q 23.390625 27.484375 19.1875 25 
Q 14.984375 22.515625 14.984375 16.5 
Q 14.984375 11.71875 18.140625 8.90625 
Q 21.296875 6.109375 26.703125 6.109375 
Q 34.1875 6.109375 38.703125 11.40625 
Q 43.21875 16.703125 43.21875 25.484375 
L 43.21875 27.484375 
z
M 52.203125 31.203125 
L 52.203125 0 
L 43.21875 0 
L 43.21875 8.296875 
Q 40.140625 3.328125 35.546875 0.953125 
Q 30.953125 -1.421875 24.3125 -1.421875 
Q 15.921875 -1.421875 10.953125 3.296875 
Q 6 8.015625 6 15.921875 
Q 6 25.140625 12.171875 29.828125 
Q 18.359375 34.515625 30.609375 34.515625 
L 43.21875 34.515625 
L 43.21875 35.40625 
Q 43.21875 41.609375 39.140625 45 
Q 35.0625 48.390625 27.6875 48.390625 
Q 23 48.390625 18.546875 47.265625 
Q 14.109375 46.140625 10.015625 43.890625 
L 10.015625 52.203125 
Q 14.9375 54.109375 19.578125 55.046875 
Q 24.21875 56 28.609375 56 
Q 40.484375 56 46.34375 49.84375 
Q 52.203125 43.703125 52.203125 31.203125 
z
" id="DejaVuSans-97"/>
        <path d="M 9.078125 75.984375 
L 18.109375 75.984375 
L 18.109375 31.109375 
L 44.921875 54.6875 
L 56.390625 54.6875 
L 27.390625 29.109375 
L 57.625 0 
L 45.90625 0 
L 18.109375 26.703125 
L 18.109375 0 
L 9.078125 0 
z
" id="DejaVuSans-107"/>
       </defs>
       <use xlink:href="#DejaVuSans-100"/>
       <use x="63.476562" xlink:href="#DejaVuSans-97"/>
       <use x="124.755859" xlink:href="#DejaVuSans-114"/>
       <use x="165.869141" xlink:href="#DejaVuSans-107"/>
      </g>
     </g>
    </g>
    <g id="xtick_3">
     <g id="line2d_3">
      <g>
       <use style="stroke:#000000;stroke-width:0.8;" x="357.290625" xlink:href="#m9a592ad9d7" y="288.430125"/>
      </g>
     </g>
     <g id="text_3">
      <!-- afl -->
      <g transform="translate(345.489062 308.223846)rotate(-30)scale(0.1 -0.1)">
       <defs>
        <path d="M 37.109375 75.984375 
L 37.109375 68.5 
L 28.515625 68.5 
Q 23.6875 68.5 21.796875 66.546875 
Q 19.921875 64.59375 19.921875 59.515625 
L 19.921875 54.6875 
L 34.71875 54.6875 
L 34.71875 47.703125 
L 19.921875 47.703125 
L 19.921875 0 
L 10.890625 0 
L 10.890625 47.703125 
L 2.296875 47.703125 
L 2.296875 54.6875 
L 10.890625 54.6875 
L 10.890625 58.5 
Q 10.890625 67.625 15.140625 71.796875 
Q 19.390625 75.984375 28.609375 75.984375 
z
" id="DejaVuSans-102"/>
       </defs>
       <use xlink:href="#DejaVuSans-97"/>
       <use x="61.279297" xlink:href="#DejaVuSans-102"/>
       <use x="96.484375" xlink:href="#DejaVuSans-108"/>
      </g>
     </g>
    </g>
    <g id="text_4">
     <!-- Fuzzer (highest median coverage on the left) -->
     <g transform="translate(125.632656 356.013428)scale(0.1 -0.1)">
      <defs>
       <path d="M 9.8125 72.90625 
L 51.703125 72.90625 
L 51.703125 64.59375 
L 19.671875 64.59375 
L 19.671875 43.109375 
L 48.578125 43.109375 
L 48.578125 34.8125 
L 19.671875 34.8125 
L 19.671875 0 
L 9.8125 0 
z
" id="DejaVuSans-70"/>
       <path d="M 5.515625 54.6875 
L 48.1875 54.6875 
L 48.1875 46.484375 
L 14.40625 7.171875 
L 48.1875 7.171875 
L 48.1875 0 
L 4.296875 0 
L 4.296875 8.203125 
L 38.09375 47.515625 
L 5.515625 47.515625 
z
" id="DejaVuSans-122"/>
       <path id="DejaVuSans-32"/>
       <path d="M 31 75.875 
Q 24.46875 64.65625 21.28125 53.65625 
Q 18.109375 42.671875 18.109375 31.390625 
Q 18.109375 20.125 21.3125 9.0625 
Q 24.515625 -2 31 -13.1875 
L 23.1875 -13.1875 
Q 15.875 -1.703125 12.234375 9.375 
Q 8.59375 20.453125 8.59375 31.390625 
Q 8.59375 42.28125 12.203125 53.3125 
Q 15.828125 64.359375 23.1875 75.875 
z
" id="DejaVuSans-40"/>
       <path d="M 9.421875 54.6875 
L 18.40625 54.6875 
L 18.40625 0 
L 9.421875 0 
z
M 9.421875 75.984375 
L 18.40625 75.984375 
L 18.40625 64.59375 
L 9.421875 64.59375 
z
" id="DejaVuSans-105"/>
       <path d="M 45.40625 27.984375 
Q 45.40625 37.75 41.375 43.109375 
Q 37.359375 48.484375 30.078125 48.484375 
Q 22.859375 48.484375 18.828125 43.109375 
Q 14.796875 37.75 14.796875 27.984375 
Q 14.796875 18.265625 18.828125 12.890625 
Q 22.859375 7.515625 30.078125 7.515625 
Q 37.359375 7.515625 41.375 12.890625 
Q 45.40625 18.265625 45.40625 27.984375 
z
M 54.390625 6.78125 
Q 54.390625 -7.171875 48.1875 -13.984375 
Q 42 -20.796875 29.203125 -20.796875 
Q 24.46875 -20.796875 20.265625 -20.09375 
Q 16.0625 -19.390625 12.109375 -17.921875 
L 12.109375 -9.1875 
Q 16.0625 -11.328125 19.921875 -12.34375 
Q 23.78125 -13.375 27.78125 -13.375 
Q 36.625 -13.375 41.015625 -8.765625 
Q 45.40625 -4.15625 45.40625 5.171875 
L 45.40625 9.625 
Q 42.625 4.78125 38.28125 2.390625 
Q 33.9375 0 27.875 0 
Q 17.828125 0 11.671875 7.65625 
Q 5.515625 15.328125 5.515625 27.984375 
Q 5.515625 40.671875 11.671875 48.328125 
Q 17.828125 56 27.875 56 
Q 33.9375 56 38.28125 53.609375 
Q 42.625 51.21875 45.40625 46.390625 
L 45.40625 54.6875 
L 54.390625 54.6875 
z
" id="DejaVuSans-103"/>
       <path d="M 18.3125 70.21875 
L 18.3125 54.6875 
L 36.8125 54.6875 
L 36.8125 47.703125 
L 18.3125 47.703125 
L 18.3125 18.015625 
Q 18.3125 11.328125 20.140625 9.421875 
Q 21.96875 7.515625 27.59375 7.515625 
L 36.8125 7.515625 
L 36.8125 0 
L 27.59375 0 
Q 17.1875 0 13.234375 3.875 
Q 9.28125 7.765625 9.28125 18.015625 
L 9.28125 47.703125 
L 2.6875 47.703125 
L 2.6875 54.6875 
L 9.28125 54.6875 
L 9.28125 70.21875 
z
" id="DejaVuSans-116"/>
       <path d="M 52 44.1875 
Q 55.375 50.25 60.0625 53.125 
Q 64.75 56 71.09375 56 
Q 79.640625 56 84.28125 50.015625 
Q 88.921875 44.046875 88.921875 33.015625 
L 88.921875 0 
L 79.890625 0 
L 79.890625 32.71875 
Q 79.890625 40.578125 77.09375 44.375 
Q 74.3125 48.1875 68.609375 48.1875 
Q 61.625 48.1875 57.5625 43.546875 
Q 53.515625 38.921875 53.515625 30.90625 
L 53.515625 0 
L 44.484375 0 
L 44.484375 32.71875 
Q 44.484375 40.625 41.703125 44.40625 
Q 38.921875 48.1875 33.109375 48.1875 
Q 26.21875 48.1875 22.15625 43.53125 
Q 18.109375 38.875 18.109375 30.90625 
L 18.109375 0 
L 9.078125 0 
L 9.078125 54.6875 
L 18.109375 54.6875 
L 18.109375 46.1875 
Q 21.1875 51.21875 25.484375 53.609375 
Q 29.78125 56 35.6875 56 
Q 41.65625 56 45.828125 52.96875 
Q 50 49.953125 52 44.1875 
z
" id="DejaVuSans-109"/>
       <path d="M 54.890625 33.015625 
L 54.890625 0 
L 45.90625 0 
L 45.90625 32.71875 
Q 45.90625 40.484375 42.875 44.328125 
Q 39.84375 48.1875 33.796875 48.1875 
Q 26.515625 48.1875 22.3125 43.546875 
Q 18.109375 38.921875 18.109375 30.90625 
L 18.109375 0 
L 9.078125 0 
L 9.078125 54.6875 
L 18.109375 54.6875 
L 18.109375 46.1875 
Q 21.34375 51.125 25.703125 53.5625 
Q 30.078125 56 35.796875 56 
Q 45.21875 56 50.046875 50.171875 
Q 54.890625 44.34375 54.890625 33.015625 
z
" id="DejaVuSans-110"/>
       <path d="M 2.984375 54.6875 
L 12.5 54.6875 
L 29.59375 8.796875 
L 46.6875 54.6875 
L 56.203125 54.6875 
L 35.6875 0 
L 23.484375 0 
z
" id="DejaVuSans-118"/>
       <path d="M 8.015625 75.875 
L 15.828125 75.875 
Q 23.140625 64.359375 26.78125 53.3125 
Q 30.421875 42.28125 30.421875 31.390625 
Q 30.421875 20.453125 26.78125 9.375 
Q 23.140625 -1.703125 15.828125 -13.1875 
L 8.015625 -13.1875 
Q 14.5 -2 17.703125 9.0625 
Q 20.90625 20.125 20.90625 31.390625 
Q 20.90625 42.671875 17.703125 53.65625 
Q 14.5 64.65625 8.015625 75.875 
z
" id="DejaVuSans-41"/>
      </defs>
      <use xlink:href="#DejaVuSans-70"/>
      <use x="52.019531" xlink:href="#DejaVuSans-117"/>
      <use x="115.398438" xlink:href="#DejaVuSans-122"/>
      <use x="167.888672" xlink:href="#DejaVuSans-122"/>
      <use x="220.378906" xlink:href="#DejaVuSans-101"/>
      <use x="281.902344" xlink:href="#DejaVuSans-114"/>
      <use x="323.015625" xlink:href="#DejaVuSans-32"/>
      <use x="354.802734" xlink:href="#DejaVuSans-40"/>
      <use x="393.816406" xlink:href="#DejaVuSans-104"/>
      <use x="457.195312" xlink:href="#DejaVuSans-105"/>
      <use x="484.978516" xlink:href="#DejaVuSans-103"/>
      <use x="548.455078" xlink:href="#DejaVuSans-104"/>
      <use x="611.833984" xlink:href="#DejaVuSans-101"/>
      <use x="673.357422" xlink:href="#DejaVuSans-115"/>
      <use x="725.457031" xlink:href="#DejaVuSans-116"/>
      <use x="764.666016" xlink:href="#DejaVuSans-32"/>
      <use x="796.453125" xlink:href="#DejaVuSans-109"/>
      <use x="893.865234" xlink:href="#DejaVuSans-101"/>
      <use x="955.388672" xlink:href="#DejaVuSans-100"/>
      <use x="1018.865234" xlink:href="#DejaVuSans-105"/>
      <use x="1046.648438" xlink:href="#DejaVuSans-97"/>
      <use x="1107.927734" xlink:href="#DejaVuSans-110"/>
      <use x="1171.306641" xlink:href="#DejaVuSans-32"/>
      <use x="1203.09375" xlink:href="#DejaVuSans-99"/>
      <use x="1258.074219" xlink:href="#DejaVuSans-111"/>
      <use x="1319.255859" xlink:href="#DejaVuSans-118"/>
      <use x="1378.435547" xlink:href="#DejaVuSans-101"/>
      <use x="1439.958984" xlink:href="#DejaVuSans-114"/>
      <use x="1481.072266" xlink:href="#DejaVuSans-97"/>
      <use x="1542.351562" xlink:href="#DejaVuSans-103"/>
      <use x="1605.828125" xlink:href="#DejaVuSans-101"/>
      <use x="1667.351562" xlink:href="#DejaVuSans-32"/>
      <use x="1699.138672" xlink:href="#DejaVuSans-111"/>
      <use x="1760.320312" xlink:href="#DejaVuSans-110"/>
      <use x="1823.699219" xlink:href="#DejaVuSans-32"/>
      <use x="1855.486328" xlink:href="#DejaVuSans-116"/>
      <use x="1894.695312" xlink:href="#DejaVuSans-104"/>
      <use x="1958.074219" xlink:href="#DejaVuSans-101"/>
      <use x="2019.597656" xlink:href="#DejaVuSans-32"/>
      <use x="2051.384766" xlink:href="#DejaVuSans-108"/>
      <use x="2079.167969" xlink:href="#DejaVuSans-101"/>
      <use x="2140.691406" xlink:href="#DejaVuSans-102"/>
      <use x="2174.146484" xlink:href="#DejaVuSans-116"/>
      <use x="2213.355469" xlink:href="#DejaVuSans-41"/>
     </g>
    </g>
   </g>
   <g id="matplotlib.axis_2">
    <g id="ytick_1">
     <g id="line2d_4">
      <defs>
       <path d="M 0 0 
L -3.5 0 
" id="m816174de7f" style="stroke:#000000;stroke-width:0.8;"/>
      </defs>
      <g>
       <use style="stroke:#000000;stroke-width:0.8;" x="59.690625" xlink:href="#m816174de7f" y="267.459309"/>
      </g>
     </g>
     <g id="text_5">
      <!-- 21000 -->
      <g transform="translate(20.878125 271.258528)scale(0.1 -0.1)">
       <defs>
        <path d="M 19.1875 8.296875 
L 53.609375 8.296875 
L 53.609375 0 
L 7.328125 0 
L 7.328125 8.296875 
Q 12.9375 14.109375 22.625 23.890625 
Q 32.328125 33.6875 34.8125 36.53125 
Q 39.546875 41.84375 41.421875 45.53125 
Q 43.3125 49.21875 43.3125 52.78125 
Q 43.3125 58.59375 39.234375 62.25 
Q 35.15625 65.921875 28.609375 65.921875 
Q 23.96875 65.921875 18.8125 64.3125 
Q 13.671875 62.703125 7.8125 59.421875 
L 7.8125 69.390625 
Q 13.765625 71.78125 18.9375 73 
Q 24.125 74.21875 28.421875 74.21875 
Q 39.75 74.21875 46.484375 68.546875 
Q 53.21875 62.890625 53.21875 53.421875 
Q 53.21875 48.921875 51.53125 44.890625 
Q 49.859375 40.875 45.40625 35.40625 
Q 44.1875 33.984375 37.640625 27.21875 
Q 31.109375 20.453125 19.1875 8.296875 
z
" id="DejaVuSans-50"/>
        <path d="M 12.40625 8.296875 
L 28.515625 8.296875 
L 28.515625 63.921875 
L 10.984375 60.40625 
L 10.984375 69.390625 
L 28.421875 72.90625 
L 38.28125 72.90625 
L 38.28125 8.296875 
L 54.390625 8.296875 
L 54.390625 0 
L 12.40625 0 
z
" id="DejaVuSans-49"/>
        <path d="M 31.78125 66.40625 
Q 24.171875 66.40625 20.328125 58.90625 
Q 16.5 51.421875 16.5 36.375 
Q 16.5 21.390625 20.328125 13.890625 
Q 24.171875 6.390625 31.78125 6.390625 
Q 39.453125 6.390625 43.28125 13.890625 
Q 47.125 21.390625 47.125 36.375 
Q 47.125 51.421875 43.28125 58.90625 
Q 39.453125 66.40625 31.78125 66.40625 
z
M 31.78125 74.21875 
Q 44.046875 74.21875 50.515625 64.515625 
Q 56.984375 54.828125 56.984375 36.375 
Q 56.984375 17.96875 50.515625 8.265625 
Q 44.046875 -1.421875 31.78125 -1.421875 
Q 19.53125 -1.421875 13.0625 8.265625 
Q 6.59375 17.96875 6.59375 36.375 
Q 6.59375 54.828125 13.0625 64.515625 
Q 19.53125 74.21875 31.78125 74.21875 
z
" id="DejaVuSans-48"/>
       </defs>
       <use xlink:href="#DejaVuSans-50"/>
       <use x="63.623047" xlink:href="#DejaVuSans-49"/>
       <use x="127.246094" xlink:href="#DejaVuSans-48"/>
       <use x="190.869141" xlink:href="#DejaVuSans-48"/>
       <use x="254.492188" xlink:href="#DejaVuSans-48"/>
      </g>
     </g>
    </g>
    <g id="ytick_2">
     <g id="line2d_5">
      <g>
       <use style="stroke:#000000;stroke-width:0.8;" x="59.690625" xlink:href="#m816174de7f" y="210.685897"/>
      </g>
     </g>
     <g id="text_6">
      <!-- 22000 -->
      <g transform="translate(20.878125 214.485116)scale(0.1 -0.1)">
       <use xlink:href="#DejaVuSans-50"/>
       <use x="63.623047" xlink:href="#DejaVuSans-50"/>
       <use x="127.246094" xlink:href="#DejaVuSans-48"/>
       <use x="190.869141" xlink:href="#DejaVuSans-48"/>
       <use x="254.492188" xlink:href="#DejaVuSans-48"/>
      </g>
     </g>
    </g>
    <g id="ytick_3">
     <g id="line2d_6">
      <g>
       <use style="stroke:#000000;stroke-width:0.8;" x="59.690625" xlink:href="#m816174de7f" y="153.912484"/>
      </g>
     </g>
     <g id="text_7">
      <!-- 23000 -->
      <g transform="translate(20.878125 157.711703)scale(0.1 -0.1)">
       <defs>
        <path d="M 40.578125 39.3125 
Q 47.65625 37.796875 51.625 33 
Q 55.609375 28.21875 55.609375 21.1875 
Q 55.609375 10.40625 48.1875 4.484375 
Q 40.765625 -1.421875 27.09375 -1.421875 
Q 22.515625 -1.421875 17.65625 -0.515625 
Q 12.796875 0.390625 7.625 2.203125 
L 7.625 11.71875 
Q 11.71875 9.328125 16.59375 8.109375 
Q 21.484375 6.890625 26.8125 6.890625 
Q 36.078125 6.890625 40.9375 10.546875 
Q 45.796875 14.203125 45.796875 21.1875 
Q 45.796875 27.640625 41.28125 31.265625 
Q 36.765625 34.90625 28.71875 34.90625 
L 20.21875 34.90625 
L 20.21875 43.015625 
L 29.109375 43.015625 
Q 36.375 43.015625 40.234375 45.921875 
Q 44.09375 48.828125 44.09375 54.296875 
Q 44.09375 59.90625 40.109375 62.90625 
Q 36.140625 65.921875 28.71875 65.921875 
Q 24.65625 65.921875 20.015625 65.03125 
Q 15.375 64.15625 9.8125 62.3125 
L 9.8125 71.09375 
Q 15.4375 72.65625 20.34375 73.4375 
Q 25.25 74.21875 29.59375 74.21875 
Q 40.828125 74.21875 47.359375 69.109375 
Q 53.90625 64.015625 53.90625 55.328125 
Q 53.90625 49.265625 50.4375 45.09375 
Q 46.96875 40.921875 40.578125 39.3125 
z
" id="DejaVuSans-51"/>
       </defs>
       <use xlink:href="#DejaVuSans-50"/>
       <use x="63.623047" xlink:href="#DejaVuSans-51"/>
       <use x="127.246094" xlink:href="#DejaVuSans-48"/>
       <use x="190.869141" xlink:href="#DejaVuSans-48"/>
       <use x="254.492188" xlink:href="#DejaVuSans-48"/>
      </g>
     </g>
    </g>
    <g id="ytick_4">
     <g id="line2d_7">
      <g>
       <use style="stroke:#000000;stroke-width:0.8;" x="59.690625" xlink:href="#m816174de7f" y="97.139072"/>
      </g>
     </g>
     <g id="text_8">
      <!-- 24000 -->
      <g transform="translate(20.878125 100.93829)scale(0.1 -0.1)">
       <defs>
        <path d="M 37.796875 64.3125 
L 12.890625 25.390625 
L 37.796875 25.390625 
z
M 35.203125 72.90625 
L 47.609375 72.90625 
L 47.609375 25.390625 
L 58.015625 25.390625 
L 58.015625 17.1875 
L 47.609375 17.1875 
L 47.609375 0 
L 37.796875 0 
L 37.796875 17.1875 
L 4.890625 17.1875 
L 4.890625 26.703125 
z
" id="DejaVuSans-52"/>
       </defs>
       <use xlink:href="#DejaVuSans-50"/>
       <use x="63.623047" xlink:href="#DejaVuSans-52"/>
       <use x="127.246094" xlink:href="#DejaVuSans-48"/>
       <use x="190.869141" xlink:href="#DejaVuSans-48"/>
       <use x="254.492188" xlink:href="#DejaVuSans-48"/>
      </g>
     </g>
    </g>
    <g id="ytick_5">
     <g id="line2d_8">
      <g>
       <use style="stroke:#000000;stroke-width:0.8;" x="59.690625" xlink:href="#m816174de7f" y="40.365659"/>
      </g>
     </g>
     <g id="text_9">
      <!-- 25000 -->
      <g transform="translate(20.878125 44.164878)scale(0.1 -0.1)">
       <defs>
        <path d="M 10.796875 72.90625 
L 49.515625 72.90625 
L 49.515625 64.59375 
L 19.828125 64.59375 
L 19.828125 46.734375 
Q 21.96875 47.46875 24.109375 47.828125 
Q 26.265625 48.1875 28.421875 48.1875 
Q 40.625 48.1875 47.75 41.5 
Q 54.890625 34.8125 54.890625 23.390625 
Q 54.890625 11.625 47.5625 5.09375 
Q 40.234375 -1.421875 26.90625 -1.421875 
Q 22.3125 -1.421875 17.546875 -0.640625 
Q 12.796875 0.140625 7.71875 1.703125 
L 7.71875 11.625 
Q 12.109375 9.234375 16.796875 8.0625 
Q 21.484375 6.890625 26.703125 6.890625 
Q 35.15625 6.890625 40.078125 11.328125 
Q 45.015625 15.765625 45.015625 23.390625 
Q 45.015625 31 40.078125 35.4375 
Q 35.15625 39.890625 26.703125 39.890625 
Q 22.75 39.890625 18.8125 39.015625 
Q 14.890625 38.140625 10.796875 36.28125 
z
" id="DejaVuSans-53"/>
       </defs>
       <use xlink:href="#DejaVuSans-50"/>
       <use x="63.623047" xlink:href="#DejaVuSans-53"/>
       <use x="127.246094" xlink:href="#DejaVuSans-48"/>
       <use x="190.869141" xlink:href="#DejaVuSans-48"/>
       <use x="254.492188" xlink:href="#DejaVuSans-48"/>
      </g>
     </g>
    </g>
    <g id="text_10">
     <!-- Reached edge coverage -->
     <g transform="translate(14.798438 215.82725)rotate(-90)scale(0.1 -0.1)">
      <defs>
       <path d="M 44.390625 34.1875 
Q 47.5625 33.109375 50.5625 29.59375 
Q 53.5625 26.078125 56.59375 19.921875 
L 66.609375 0 
L 56 0 
L 46.6875 18.703125 
Q 43.0625 26.03125 39.671875 28.421875 
Q 36.28125 30.8125 30.421875 30.8125 
L 19.671875 30.8125 
L 19.671875 0 
L 9.8125 0 
L 9.8125 72.90625 
L 32.078125 72.90625 
Q 44.578125 72.90625 50.734375 67.671875 
Q 56.890625 62.453125 56.890625 51.90625 
Q 56.890625 45.015625 53.6875 40.46875 
Q 50.484375 35.9375 44.390625 34.1875 
z
M 19.671875 64.796875 
L 19.671875 38.921875 
L 32.078125 38.921875 
Q 39.203125 38.921875 42.84375 42.21875 
Q 46.484375 45.515625 46.484375 51.90625 
Q 46.484375 58.296875 42.84375 61.546875 
Q 39.203125 64.796875 32.078125 64.796875 
z
" id="DejaVuSans-82"/>
      </defs>
      <use xlink:href="#DejaVuSans-82"/>
      <use x="64.982422" xlink:href="#DejaVuSans-101"/>
      <use x="126.505859" xlink:href="#DejaVuSans-97"/>
      <use x="187.785156" xlink:href="#DejaVuSans-99"/>
      <use x="242.765625" xlink:href="#DejaVuSans-104"/>
      <use x="306.144531" xlink:href="#DejaVuSans-101"/>
      <use x="367.667969" xlink:href="#DejaVuSans-100"/>
      <use x="431.144531" xlink:href="#DejaVuSans-32"/>
      <use x="462.931641" xlink:href="#DejaVuSans-101"/>
      <use x="524.455078" xlink:href="#DejaVuSans-100"/>
      <use x="587.931641" xlink:href="#DejaVuSans-103"/>
      <use x="651.408203" xlink:href="#DejaVuSans-101"/>
      <use x="712.931641" xlink:href="#DejaVuSans-32"/>
      <use x="744.71875" xlink:href="#DejaVuSans-99"/>
      <use x="799.699219" xlink:href="#DejaVuSans-111"/>
      <use x="860.880859" xlink:href="#DejaVuSans-118"/>
      <use x="920.060547" xlink:href="#DejaVuSans-101"/>
      <use x="981.583984" xlink:href="#DejaVuSans-114"/>
      <use x="1022.697266" xlink:href="#DejaVuSans-97"/>
      <use x="1083.976562" xlink:href="#DejaVuSans-103"/>
      <use x="1147.453125" xlink:href="#DejaVuSans-101"/>
     </g>
    </g>
   </g>
   <g id="line2d_9">
    <path clip-path="url(#pc8ee5b0f4e)" d="M 119.210625 161.065934 
L 119.210625 81.185743 
" style="fill:none;stroke:#3f3f3f;stroke-linecap:square;stroke-width:1.5;"/>
   </g>
   <g id="line2d_10">
    <path clip-path="url(#pc8ee5b0f4e)" d="M 119.210625 155.388593 
L 119.210625 116.669126 
" style="fill:none;stroke:#3f3f3f;stroke-linecap:square;stroke-width:4.5;"/>
   </g>
   <g id="line2d_11">
    <path clip-path="url(#pc8ee5b0f4e)" d="M 238.250625 193.710646 
L 238.250625 161.974309 
" style="fill:none;stroke:#3f3f3f;stroke-linecap:square;stroke-width:1.5;"/>
   </g>
   <g id="line2d_12">
    <path clip-path="url(#pc8ee5b0f4e)" d="M 238.250625 191.78035 
L 238.250625 179.574067 
" style="fill:none;stroke:#3f3f3f;stroke-linecap:square;stroke-width:4.5;"/>
   </g>
   <g id="line2d_13">
    <path clip-path="url(#pc8ee5b0f4e)" d="M 357.290625 214.205848 
L 357.290625 194.562248 
" style="fill:none;stroke:#3f3f3f;stroke-linecap:square;stroke-width:1.5;"/>
   </g>
   <g id="line2d_14">
    <path clip-path="url(#pc8ee5b0f4e)" d="M 357.290625 214.205848 
L 357.290625 197.230598 
" style="fill:none;stroke:#3f3f3f;stroke-linecap:square;stroke-width:4.5;"/>
   </g>
   <g id="patch_3">
    <path d="M 59.690625 267.459309 
L 59.690625 40.365659 
" style="fill:none;stroke:#000000;stroke-linecap:square;stroke-linejoin:miter;stroke-width:0.8;"/>
   </g>
   <g id="patch_4">
    <path d="M 119.210625 288.430125 
L 357.290625 288.430125 
" style="fill:none;stroke:#000000;stroke-linecap:square;stroke-linejoin:miter;stroke-width:0.8;"/>
   </g>
   <g id="PathCollection_1">
    <defs>
     <path d="M 0 1.5 
C 0.397805 1.5 0.77937 1.341951 1.06066 1.06066 
C 1.341951 0.77937 1.5 0.397805 1.5 0 
C 1.5 -0.397805 1.341951 -0.77937 1.06066 -1.06066 
C 0.77937 -1.341951 0.397805 -1.5 0 -1.5 
C -0.397805 -1.5 -0.77937 -1.341951 -1.06066 -1.06066 
C -1.341951 -0.77937 -1.5 -0.397805 -1.5 0 
C -1.5 0.397805 -1.341951 0.77937 -1.06066 1.06066 
C -0.77937 1.341951 -0.397805 1.5 0 1.5 
z
" id="m52b0cb00b5" style="stroke:#3f3f3f;"/>
    </defs>
    <g clip-path="url(#pc8ee5b0f4e)">
     <use style="fill:#ffffff;stroke:#3f3f3f;" x="119.210625" xlink:href="#m52b0cb00b5" y="126.88834"/>
    </g>
   </g>
   <g id="PathCollection_2">
    <g clip-path="url(#pc8ee5b0f4e)">
     <use style="fill:#ffffff;stroke:#3f3f3f;" x="238.250625" xlink:href="#m52b0cb00b5" y="184.853994"/>
    </g>
   </g>
   <g id="PathCollection_3">
    <g clip-path="url(#pc8ee5b0f4e)">
     <use style="fill:#ffffff;stroke:#3f3f3f;" x="357.290625" xlink:href="#m52b0cb00b5" y="202.794392"/>
    </g>
   </g>
   <g id="text_11">
    <!-- sqlite3_ossfuzz (22h, 5 trials/fuzzer) -->
    <g transform="translate(130.073438 16.318125)scale(0.12 -0.12)">
     <defs>
      <path d="M 14.796875 27.296875 
Q 14.796875 17.390625 18.875 11.75 
Q 22.953125 6.109375 30.078125 6.109375 
Q 37.203125 6.109375 41.296875 11.75 
Q 45.40625 17.390625 45.40625 27.296875 
Q 45.40625 37.203125 41.296875 42.84375 
Q 37.203125 48.484375 30.078125 48.484375 
Q 22.953125 48.484375 18.875 42.84375 
Q 14.796875 37.203125 14.796875 27.296875 
z
M 45.40625 8.203125 
Q 42.578125 3.328125 38.25 0.953125 
Q 33.9375 -1.421875 27.875 -1.421875 
Q 17.96875 -1.421875 11.734375 6.484375 
Q 5.515625 14.40625 5.515625 27.296875 
Q 5.515625 40.1875 11.734375 48.09375 
Q 17.96875 56 27.875 56 
Q 33.9375 56 38.25 53.625 
Q 42.578125 51.265625 45.40625 46.390625 
L 45.40625 54.6875 
L 54.390625 54.6875 
L 54.390625 -20.796875 
L 45.40625 -20.796875 
z
" id="DejaVuSans-113"/>
      <path d="M 11.71875 12.40625 
L 22.015625 12.40625 
L 22.015625 4 
L 14.015625 -11.625 
L 7.71875 -11.625 
L 11.71875 4 
z
" id="DejaVuSans-44"/>
      <path d="M 25.390625 72.90625 
L 33.6875 72.90625 
L 8.296875 -9.28125 
L 0 -9.28125 
z
" id="DejaVuSans-47"/>
     </defs>
     <use xlink:href="#DejaVuSans-115"/>
     <use x="52.099609" xlink:href="#DejaVuSans-113"/>
     <use x="115.576172" xlink:href="#DejaVuSans-108"/>
     <use x="143.359375" xlink:href="#DejaVuSans-105"/>
     <use x="171.142578" xlink:href="#DejaVuSans-116"/>
     <use x="210.351562" xlink:href="#DejaVuSans-101"/>
     <use x="271.875" xlink:href="#DejaVuSans-51"/>
     <use x="335.498047" xlink:href="#DejaVuSans-95"/>
     <use x="385.498047" xlink:href="#DejaVuSans-111"/>
     <use x="446.679688" xlink:href="#DejaVuSans-115"/>
     <use x="498.779297" xlink:href="#DejaVuSans-115"/>
     <use x="550.878906" xlink:href="#DejaVuSans-102"/>
     <use x="586.083984" xlink:href="#DejaVuSans-117"/>
     <use x="649.462891" xlink:href="#DejaVuSans-122"/>
     <use x="701.953125" xlink:href="#DejaVuSans-122"/>
     <use x="754.443359" xlink:href="#DejaVuSans-32"/>
     <use x="786.230469" xlink:href="#DejaVuSans-40"/>
     <use x="825.244141" xlink:href="#DejaVuSans-50"/>
     <use x="888.867188" xlink:href="#DejaVuSans-50"/>
     <use x="952.490234" xlink:href="#DejaVuSans-104"/>
     <use x="1015.869141" xlink:href="#DejaVuSans-44"/>
     <use x="1047.65625" xlink:href="#DejaVuSans-32"/>
     <use x="1079.443359" xlink:href="#DejaVuSans-53"/>
     <use x="1143.066406" xlink:href="#DejaVuSans-32"/>
     <use x="1174.853516" xlink:href="#DejaVuSans-116"/>
     <use x="1214.0625" xlink:href="#DejaVuSans-114"/>
     <use x="1255.175781" xlink:href="#DejaVuSans-105"/>
     <use x="1282.958984" xlink:href="#DejaVuSans-97"/>
     <use x="1344.238281" xlink:href="#DejaVuSans-108"/>
     <use x="1372.021484" xlink:href="#DejaVuSans-115"/>
     <use x="1424.121094" xlink:href="#DejaVuSans-47"/>
     <use x="1457.8125" xlink:href="#DejaVuSans-102"/>
     <use x="1493.017578" xlink:href="#DejaVuSans-117"/>
     <use x="1556.396484" xlink:href="#DejaVuSans-122"/>
     <use x="1608.886719" xlink:href="#DejaVuSans-122"/>
     <use x="1661.376953" xlink:href="#DejaVuSans-101"/>
     <use x="1722.900391" xlink:href="#DejaVuSans-114"/>
     <use x="1764.013672" xlink:href="#DejaVuSans-41"/>
    </g>
   </g>
  </g>
 </g>
 <defs>
  <clipPath id="pc8ee5b0f4e">
   <rect height="266.112" width="357.12" x="59.690625" y="22.318125"/>
  </clipPath>
 </defs>
</svg>
