<?xml version="1.0" encoding="utf-8" standalone="no"?>
<!DOCTYPE svg PUBLIC "-//W3C//DTD SVG 1.1//EN"
  "http://www.w3.org/Graphics/SVG/1.1/DTD/svg11.dtd">
<svg height="325.986375pt" version="1.1" viewBox="0 0 864.541562 325.986375" width="864.541562pt" xmlns="http://www.w3.org/2000/svg" xmlns:xlink="http://www.w3.org/1999/xlink">
 <metadata>
  <rdf:RDF xmlns:cc="http://creativecommons.org/ns#" xmlns:dc="http://purl.org/dc/elements/1.1/" xmlns:rdf="http://www.w3.org/1999/02/22-rdf-syntax-ns#">
   <cc:Work>
    <dc:type rdf:resource="http://purl.org/dc/dcmitype/StillImage"/>
    <dc:date>2022-06-14T18:07:50.249824</dc:date>
    <dc:format>image/svg+xml</dc:format>
    <dc:creator>
     <cc:Agent>
      <dc:title>Matplotlib v3.4.1, https://matplotlib.org/</dc:title>
     </cc:Agent>
    </dc:creator>
   </cc:Work>
  </rdf:RDF>
 </metadata>
 <defs>
  <style type="text/css">*{stroke-linecap:butt;stroke-linejoin:round;}</style>
 </defs>
 <g id="figure_1">
  <g id="patch_1">
   <path d="M 0 325.986375 
L 864.541562 325.986375 
L 864.541562 0 
L 0 0 
z
" style="fill:#ffffff;"/>
  </g>
  <g id="axes_1">
   <g id="patch_2">
    <path d="M 53.328125 288.430125 
L 767.568125 288.430125 
L 767.568125 22.318125 
L 53.328125 22.318125 
z
" style="fill:#ffffff;"/>
   </g>
   <g id="PolyCollection_1">
    <defs>
     <path d="M 85.79358 -227.342768 
L 85.79358 -69.17552 
L 92.628412 -75.310492 
L 99.463245 -70.006298 
L 106.298077 -75.885646 
L 113.13291 -75.885646 
L 119.967742 -75.741858 
L 126.802575 -75.885646 
L 133.637407 -75.885646 
L 140.47224 -75.885646 
L 147.307072 -75.885646 
L 154.141905 -75.885646 
L 160.976737 -70.198016 
L 167.81157 -70.198016 
L 174.646403 -75.885646 
L 181.481235 -75.885646 
L 188.316068 -75.885646 
L 195.1509 -75.885646 
L 201.985733 -70.229969 
L 208.820565 -75.885646 
L 215.655398 -75.885646 
L 222.49023 -75.885646 
L 229.325063 -75.885646 
L 236.159895 -75.885646 
L 242.994728 -75.949552 
L 249.82956 -75.949552 
L 256.664393 -75.949552 
L 263.499225 -76.14127 
L 270.334058 -76.14127 
L 277.168891 -76.14127 
L 284.003723 -76.14127 
L 290.838556 -76.14127 
L 297.673388 -76.14127 
L 304.508221 -70.613404 
L 311.343053 -76.14127 
L 318.177886 -76.14127 
L 325.012718 -76.14127 
L 331.847551 -76.14127 
L 338.682383 -76.14127 
L 345.517216 -76.14127 
L 352.352048 -76.14127 
L 359.186881 -76.14127 
L 366.021714 -70.613404 
L 372.856546 -76.14127 
L 379.691379 -76.14127 
L 386.526211 -76.14127 
L 393.361044 -76.14127 
L 400.195876 -76.14127 
L 407.030709 -76.14127 
L 413.865541 -76.332988 
L 420.700374 -76.332988 
L 427.535206 -76.193193 
L 434.370039 -70.741216 
L 441.204871 -76.396894 
L 448.039704 -76.396894 
L 454.874536 -70.837075 
L 461.709369 -76.396894 
L 468.544202 -76.396894 
L 475.379034 -70.837075 
L 482.213867 -70.837075 
L 489.048699 -76.396894 
L 495.883532 -76.257898 
L 502.718364 -76.396894 
L 509.553197 -76.396894 
L 516.388029 -76.396894 
L 523.222862 -76.396894 
L 530.057694 -76.396894 
L 536.892527 -76.396894 
L 543.727359 -76.396894 
L 550.562192 -76.396894 
L 557.397025 -76.396894 
L 564.231857 -76.396894 
L 571.06669 -76.396894 
L 577.901522 -76.396894 
L 584.736355 -70.869028 
L 591.571187 -76.396894 
L 598.40602 -76.258697 
L 605.240852 -70.869028 
L 612.075685 -76.396894 
L 618.910517 -76.4608 
L 625.74535 -76.4608 
L 632.580182 -76.4608 
L 639.415015 -76.4608 
L 646.249847 -76.4608 
L 653.08468 -76.4608 
L 659.919513 -76.4608 
L 666.754345 -76.4608 
L 673.589178 -76.4608 
L 680.42401 -76.4608 
L 687.258843 -76.4608 
L 694.093675 -76.4608 
L 700.928508 -76.4608 
L 707.76334 -76.4608 
L 714.598173 -70.99684 
L 721.433005 -76.4608 
L 728.267838 -76.4608 
L 735.10267 -76.4608 
L 735.10267 -291.568256 
L 735.10267 -291.568256 
L 728.267838 -291.57225 
L 721.433005 -291.18482 
L 714.598173 -291.18482 
L 707.76334 -291.50435 
L 700.928508 -291.057008 
L 694.093675 -290.993102 
L 687.258843 -290.993102 
L 680.42401 -290.929196 
L 673.589178 -290.86529 
L 666.754345 -290.609667 
L 659.919513 -290.609667 
L 653.08468 -290.481855 
L 646.249847 -291.120914 
L 639.415015 -289.523265 
L 632.580182 -289.459359 
L 625.74535 -289.395453 
L 618.910517 -289.714983 
L 612.075685 -289.267641 
L 605.240852 -288.884206 
L 598.40602 -288.8203 
L 591.571187 -288.564676 
L 584.736355 -288.564676 
L 577.901522 -288.309052 
L 571.06669 -288.309052 
L 564.231857 -288.564676 
L 557.397025 -285.656955 
L 550.562192 -285.593049 
L 543.727359 -285.529143 
L 536.892527 -285.369378 
L 530.057694 -283.686255 
L 523.222862 -284.985942 
L 516.388029 -283.292434 
L 509.553197 -283.292434 
L 502.718364 -283.164622 
L 495.883532 -281.85455 
L 489.048699 -281.790644 
L 482.213867 -281.662832 
L 475.379034 -281.598926 
L 468.544202 -281.471114 
L 461.709369 -281.215491 
L 454.874536 -280.073172 
L 448.039704 -279.745654 
L 441.204871 -279.617842 
L 434.370039 -279.242394 
L 427.535206 -279.521983 
L 420.700374 -279.266359 
L 413.865541 -279.106594 
L 407.030709 -282.014315 
L 400.195876 -278.418007 
L 393.361044 -277.645544 
L 386.526211 -280.927914 
L 379.691379 -280.895961 
L 372.856546 -280.736196 
L 366.021714 -278.489103 
L 359.186881 -276.16692 
L 352.352048 -276.039108 
L 345.517216 -277.508945 
L 338.682383 -275.591766 
L 331.847551 -275.213123 
L 325.012718 -275.400048 
L 318.177886 -275.272236 
L 311.343053 -275.272236 
L 304.508221 -275.016613 
L 297.673388 -274.952707 
L 290.838556 -274.537318 
L 284.003723 -274.281694 
L 277.168891 -274.089976 
L 270.334058 -274.02607 
L 263.499225 -273.994117 
L 256.664393 -271.885221 
L 249.82956 -272.332562 
L 242.994728 -271.98108 
L 236.159895 -271.086396 
L 229.325063 -270.511243 
L 222.49023 -270.447337 
L 215.655398 -270.415384 
L 208.820565 -270.223666 
L 201.985733 -267.859145 
L 195.1509 -267.667427 
L 188.316068 -267.667427 
L 181.481235 -267.283992 
L 174.646403 -266.900556 
L 167.81157 -265.462672 
L 160.976737 -263.641352 
L 154.141905 -263.321822 
L 147.307072 -262.874481 
L 140.47224 -260.637772 
L 133.637407 -260.254336 
L 126.802575 -258.912311 
L 119.967742 -254.5028 
L 113.13291 -250.189148 
L 106.298077 -245.140577 
L 99.463245 -241.274267 
L 92.628412 -236.992567 
L 85.79358 -227.342768 
z
" id="ma105cecfb2" style="stroke:#98df8a;stroke-opacity:0.2;"/>
    </defs>
    <g clip-path="url(#p1dac2d3f7e)">
     <use style="fill:#98df8a;fill-opacity:0.2;stroke:#98df8a;stroke-opacity:0.2;" x="0" xlink:href="#ma105cecfb2" y="325.986375"/>
    </g>
   </g>
   <g id="PolyCollection_2">
    <defs>
     <path d="M 85.79358 -196.604002 
L 85.79358 -50.227404 
L 92.628412 -51.47357 
L 99.463245 -54.604962 
L 106.298077 -54.604962 
L 113.13291 -54.588985 
L 119.967742 -51.505523 
L 126.802575 -51.601382 
L 133.637407 -54.988398 
L 140.47224 -54.988398 
L 147.307072 -54.988398 
L 154.141905 -51.729194 
L 160.976737 -51.67727 
L 167.81157 -55.116209 
L 174.646403 -55.116209 
L 181.481235 -51.729194 
L 188.316068 -55.031534 
L 195.1509 -55.116209 
L 201.985733 -49.65225 
L 208.820565 -51.729194 
L 215.655398 -55.116209 
L 222.49023 -55.371833 
L 229.325063 -55.371833 
L 236.159895 -51.729194 
L 242.994728 -55.280767 
L 249.82956 -55.371833 
L 256.664393 -51.729194 
L 263.499225 -51.729194 
L 270.334058 -51.680465 
L 277.168891 -55.371833 
L 284.003723 -51.729194 
L 290.838556 -55.371833 
L 297.673388 -51.729194 
L 304.508221 -59.717438 
L 311.343053 -52.428165 
L 318.177886 -52.432159 
L 325.012718 -60.15839 
L 331.847551 -60.15839 
L 338.682383 -60.356498 
L 345.517216 -52.432159 
L 352.352048 -52.432159 
L 359.186881 -52.432159 
L 366.021714 -52.432159 
L 372.856546 -52.272394 
L 379.691379 -52.432159 
L 386.526211 -52.272394 
L 393.361044 -52.432159 
L 400.195876 -60.356498 
L 407.030709 -52.464112 
L 413.865541 -60.481913 
L 420.700374 -52.911454 
L 427.535206 -60.676028 
L 434.370039 -60.481913 
L 441.204871 -52.911454 
L 448.039704 -61.570711 
L 454.874536 -61.570711 
L 461.709369 -53.742231 
L 468.544202 -52.97536 
L 475.379034 -61.570711 
L 482.213867 -61.417337 
L 489.048699 -55.435739 
L 495.883532 -61.570711 
L 502.718364 -55.435739 
L 509.553197 -54.668868 
L 516.388029 -55.435739 
L 523.222862 -55.435739 
L 530.057694 -55.499645 
L 536.892527 -61.418935 
L 543.727359 -61.60586 
L 550.562192 -61.60586 
L 557.397025 -54.764727 
L 564.231857 -61.762429 
L 571.06669 -61.762429 
L 577.901522 -54.79668 
L 584.736355 -55.595504 
L 591.571187 -62.145865 
L 598.40602 -55.580326 
L 605.240852 -55.883081 
L 612.075685 -56.713858 
L 618.910517 -56.873623 
L 625.74535 -57.1612 
L 632.580182 -62.022047 
L 639.415015 -62.145865 
L 646.249847 -63.16836 
L 653.08468 -63.296172 
L 659.919513 -58.439319 
L 666.754345 -63.296172 
L 673.589178 -63.174751 
L 680.42401 -63.296172 
L 687.258843 -58.822755 
L 694.093675 -63.296172 
L 700.928508 -58.822755 
L 707.76334 -58.822755 
L 714.598173 -63.184337 
L 721.433005 -58.822755 
L 728.267838 -58.758849 
L 735.10267 -58.822755 
L 735.10267 -216.798284 
L 735.10267 -216.798284 
L 728.267838 -216.798284 
L 721.433005 -216.542661 
L 714.598173 -216.542661 
L 707.76334 -216.542661 
L 700.928508 -216.542661 
L 694.093675 -216.542661 
L 687.258843 -215.584071 
L 680.42401 -210.918936 
L 673.589178 -210.088159 
L 666.754345 -209.225428 
L 659.919513 -209.225428 
L 653.08468 -209.225428 
L 646.249847 -209.736676 
L 639.415015 -208.841993 
L 632.580182 -208.84359 
L 625.74535 -208.913887 
L 618.910517 -208.426604 
L 612.075685 -208.426604 
L 605.240852 -206.381613 
L 598.40602 -208.298792 
L 591.571187 -208.298792 
L 584.736355 -208.139027 
L 577.901522 -208.139027 
L 571.06669 -208.139027 
L 564.231857 -208.139027 
L 557.397025 -205.575599 
L 550.562192 -207.436062 
L 543.727359 -207.436062 
L 536.892527 -205.518883 
L 530.057694 -205.518883 
L 523.222862 -205.518883 
L 516.388029 -203.057705 
L 509.553197 -205.48693 
L 502.718364 -207.148485 
L 495.883532 -207.148485 
L 489.048699 -205.487729 
L 482.213867 -205.424621 
L 475.379034 -207.116532 
L 468.544202 -205.48693 
L 461.709369 -205.48693 
L 454.874536 -205.48693 
L 448.039704 -205.199353 
L 441.204871 -205.043582 
L 434.370039 -206.189895 
L 427.535206 -205.011629 
L 420.700374 -205.1674 
L 413.865541 -205.1674 
L 407.030709 -205.1674 
L 400.195876 -200.502265 
L 393.361044 -200.502265 
L 386.526211 -200.502265 
L 379.691379 -200.502265 
L 372.856546 -200.630077 
L 366.021714 -200.502265 
L 359.186881 -200.502265 
L 352.352048 -198.904616 
L 345.517216 -198.924587 
L 338.682383 -198.904616 
L 331.847551 -199.703441 
L 325.012718 -198.904616 
L 318.177886 -198.904616 
L 311.343053 -198.904616 
L 304.508221 -198.904616 
L 297.673388 -198.904616 
L 290.838556 -198.904616 
L 284.003723 -198.904616 
L 277.168891 -198.84071 
L 270.334058 -198.776804 
L 263.499225 -198.776804 
L 256.664393 -198.778402 
L 249.82956 -198.778402 
L 242.994728 -198.808757 
L 236.159895 -198.808757 
L 229.325063 -198.776804 
L 222.49023 -198.776804 
L 215.655398 -199.607582 
L 208.820565 -198.776804 
L 201.985733 -198.680945 
L 195.1509 -197.882121 
L 188.316068 -197.893304 
L 181.481235 -198.329462 
L 174.646403 -198.329462 
L 167.81157 -198.776804 
L 160.976737 -198.744851 
L 154.141905 -198.201651 
L 147.307072 -198.201651 
L 140.47224 -197.498685 
L 133.637407 -198.585086 
L 126.802575 -197.498685 
L 119.967742 -197.370873 
L 113.13291 -197.115249 
L 106.298077 -197.115249 
L 99.463245 -196.604002 
L 92.628412 -196.604002 
L 85.79358 -196.604002 
z
" id="m6662ba0d55" style="stroke:#1f77b4;stroke-opacity:0.2;"/>
    </defs>
    <g clip-path="url(#p1dac2d3f7e)">
     <use style="fill:#1f77b4;fill-opacity:0.2;stroke:#1f77b4;stroke-opacity:0.2;" x="0" xlink:href="#m6662ba0d55" y="325.986375"/>
    </g>
   </g>
   <g id="matplotlib.axis_1">
    <g id="xtick_1">
     <g id="line2d_1">
      <defs>
       <path d="M 0 0 
L 0 3.5 
" id="m91319ae644" style="stroke:#000000;stroke-width:0.8;"/>
      </defs>
      <g>
       <use style="stroke:#000000;stroke-width:0.8;" x="85.79358" xlink:href="#m91319ae644" y="288.430125"/>
      </g>
     </g>
     <g id="text_1">
      <!-- 15m -->
      <g transform="translate(74.560767 303.028562)scale(0.1 -0.1)">
       <defs>
        <path d="M 794 531 
L 1825 531 
L 1825 4091 
L 703 3866 
L 703 4441 
L 1819 4666 
L 2450 4666 
L 2450 531 
L 3481 531 
L 3481 0 
L 794 0 
L 794 531 
z
" id="DejaVuSans-31" transform="scale(0.015625)"/>
        <path d="M 691 4666 
L 3169 4666 
L 3169 4134 
L 1269 4134 
L 1269 2991 
Q 1406 3038 1543 3061 
Q 1681 3084 1819 3084 
Q 2600 3084 3056 2656 
Q 3513 2228 3513 1497 
Q 3513 744 3044 326 
Q 2575 -91 1722 -91 
Q 1428 -91 1123 -41 
Q 819 9 494 109 
L 494 744 
Q 775 591 1075 516 
Q 1375 441 1709 441 
Q 2250 441 2565 725 
Q 2881 1009 2881 1497 
Q 2881 1984 2565 2268 
Q 2250 2553 1709 2553 
Q 1456 2553 1204 2497 
Q 953 2441 691 2322 
L 691 4666 
z
" id="DejaVuSans-35" transform="scale(0.015625)"/>
        <path d="M 3328 2828 
Q 3544 3216 3844 3400 
Q 4144 3584 4550 3584 
Q 5097 3584 5394 3201 
Q 5691 2819 5691 2113 
L 5691 0 
L 5113 0 
L 5113 2094 
Q 5113 2597 4934 2840 
Q 4756 3084 4391 3084 
Q 3944 3084 3684 2787 
Q 3425 2491 3425 1978 
L 3425 0 
L 2847 0 
L 2847 2094 
Q 2847 2600 2669 2842 
Q 2491 3084 2119 3084 
Q 1678 3084 1418 2786 
Q 1159 2488 1159 1978 
L 1159 0 
L 581 0 
L 581 3500 
L 1159 3500 
L 1159 2956 
Q 1356 3278 1631 3431 
Q 1906 3584 2284 3584 
Q 2666 3584 2933 3390 
Q 3200 3197 3328 2828 
z
" id="DejaVuSans-6d" transform="scale(0.015625)"/>
       </defs>
       <use xlink:href="#DejaVuSans-31"/>
       <use x="63.623047" xlink:href="#DejaVuSans-35"/>
       <use x="127.246094" xlink:href="#DejaVuSans-6d"/>
      </g>
     </g>
    </g>
    <g id="xtick_2">
     <g id="line2d_2">
      <g>
       <use style="stroke:#000000;stroke-width:0.8;" x="140.47224" xlink:href="#m91319ae644" y="288.430125"/>
      </g>
     </g>
     <g id="text_2">
      <!-- 2h:15m -->
      <g transform="translate(121.205052 303.028562)scale(0.1 -0.1)">
       <defs>
        <path d="M 1228 531 
L 3431 531 
L 3431 0 
L 469 0 
L 469 531 
Q 828 903 1448 1529 
Q 2069 2156 2228 2338 
Q 2531 2678 2651 2914 
Q 2772 3150 2772 3378 
Q 2772 3750 2511 3984 
Q 2250 4219 1831 4219 
Q 1534 4219 1204 4116 
Q 875 4013 500 3803 
L 500 4441 
Q 881 4594 1212 4672 
Q 1544 4750 1819 4750 
Q 2544 4750 2975 4387 
Q 3406 4025 3406 3419 
Q 3406 3131 3298 2873 
Q 3191 2616 2906 2266 
Q 2828 2175 2409 1742 
Q 1991 1309 1228 531 
z
" id="DejaVuSans-32" transform="scale(0.015625)"/>
        <path d="M 3513 2113 
L 3513 0 
L 2938 0 
L 2938 2094 
Q 2938 2591 2744 2837 
Q 2550 3084 2163 3084 
Q 1697 3084 1428 2787 
Q 1159 2491 1159 1978 
L 1159 0 
L 581 0 
L 581 4863 
L 1159 4863 
L 1159 2956 
Q 1366 3272 1645 3428 
Q 1925 3584 2291 3584 
Q 2894 3584 3203 3211 
Q 3513 2838 3513 2113 
z
" id="DejaVuSans-68" transform="scale(0.015625)"/>
        <path d="M 750 794 
L 1409 794 
L 1409 0 
L 750 0 
L 750 794 
z
M 750 3309 
L 1409 3309 
L 1409 2516 
L 750 2516 
L 750 3309 
z
" id="DejaVuSans-3a" transform="scale(0.015625)"/>
       </defs>
       <use xlink:href="#DejaVuSans-32"/>
       <use x="63.623047" xlink:href="#DejaVuSans-68"/>
       <use x="127.001953" xlink:href="#DejaVuSans-3a"/>
       <use x="160.693359" xlink:href="#DejaVuSans-31"/>
       <use x="224.316406" xlink:href="#DejaVuSans-35"/>
       <use x="287.939453" xlink:href="#DejaVuSans-6d"/>
      </g>
     </g>
    </g>
    <g id="xtick_3">
     <g id="line2d_3">
      <g>
       <use style="stroke:#000000;stroke-width:0.8;" x="195.1509" xlink:href="#m91319ae644" y="288.430125"/>
      </g>
     </g>
     <g id="text_3">
      <!-- 4h:15m -->
      <g transform="translate(175.883713 303.028562)scale(0.1 -0.1)">
       <defs>
        <path d="M 2419 4116 
L 825 1625 
L 2419 1625 
L 2419 4116 
z
M 2253 4666 
L 3047 4666 
L 3047 1625 
L 3713 1625 
L 3713 1100 
L 3047 1100 
L 3047 0 
L 2419 0 
L 2419 1100 
L 313 1100 
L 313 1709 
L 2253 4666 
z
" id="DejaVuSans-34" transform="scale(0.015625)"/>
       </defs>
       <use xlink:href="#DejaVuSans-34"/>
       <use x="63.623047" xlink:href="#DejaVuSans-68"/>
       <use x="127.001953" xlink:href="#DejaVuSans-3a"/>
       <use x="160.693359" xlink:href="#DejaVuSans-31"/>
       <use x="224.316406" xlink:href="#DejaVuSans-35"/>
       <use x="287.939453" xlink:href="#DejaVuSans-6d"/>
      </g>
     </g>
    </g>
    <g id="xtick_4">
     <g id="line2d_4">
      <g>
       <use style="stroke:#000000;stroke-width:0.8;" x="249.82956" xlink:href="#m91319ae644" y="288.430125"/>
      </g>
     </g>
     <g id="text_4">
      <!-- 6h:15m -->
      <g transform="translate(230.562373 303.028562)scale(0.1 -0.1)">
       <defs>
        <path d="M 2113 2584 
Q 1688 2584 1439 2293 
Q 1191 2003 1191 1497 
Q 1191 994 1439 701 
Q 1688 409 2113 409 
Q 2538 409 2786 701 
Q 3034 994 3034 1497 
Q 3034 2003 2786 2293 
Q 2538 2584 2113 2584 
z
M 3366 4563 
L 3366 3988 
Q 3128 4100 2886 4159 
Q 2644 4219 2406 4219 
Q 1781 4219 1451 3797 
Q 1122 3375 1075 2522 
Q 1259 2794 1537 2939 
Q 1816 3084 2150 3084 
Q 2853 3084 3261 2657 
Q 3669 2231 3669 1497 
Q 3669 778 3244 343 
Q 2819 -91 2113 -91 
Q 1303 -91 875 529 
Q 447 1150 447 2328 
Q 447 3434 972 4092 
Q 1497 4750 2381 4750 
Q 2619 4750 2861 4703 
Q 3103 4656 3366 4563 
z
" id="DejaVuSans-36" transform="scale(0.015625)"/>
       </defs>
       <use xlink:href="#DejaVuSans-36"/>
       <use x="63.623047" xlink:href="#DejaVuSans-68"/>
       <use x="127.001953" xlink:href="#DejaVuSans-3a"/>
       <use x="160.693359" xlink:href="#DejaVuSans-31"/>
       <use x="224.316406" xlink:href="#DejaVuSans-35"/>
       <use x="287.939453" xlink:href="#DejaVuSans-6d"/>
      </g>
     </g>
    </g>
    <g id="xtick_5">
     <g id="line2d_5">
      <g>
       <use style="stroke:#000000;stroke-width:0.8;" x="304.508221" xlink:href="#m91319ae644" y="288.430125"/>
      </g>
     </g>
     <g id="text_5">
      <!-- 8h:15m -->
      <g transform="translate(285.241033 303.028562)scale(0.1 -0.1)">
       <defs>
        <path d="M 2034 2216 
Q 1584 2216 1326 1975 
Q 1069 1734 1069 1313 
Q 1069 891 1326 650 
Q 1584 409 2034 409 
Q 2484 409 2743 651 
Q 3003 894 3003 1313 
Q 3003 1734 2745 1975 
Q 2488 2216 2034 2216 
z
M 1403 2484 
Q 997 2584 770 2862 
Q 544 3141 544 3541 
Q 544 4100 942 4425 
Q 1341 4750 2034 4750 
Q 2731 4750 3128 4425 
Q 3525 4100 3525 3541 
Q 3525 3141 3298 2862 
Q 3072 2584 2669 2484 
Q 3125 2378 3379 2068 
Q 3634 1759 3634 1313 
Q 3634 634 3220 271 
Q 2806 -91 2034 -91 
Q 1263 -91 848 271 
Q 434 634 434 1313 
Q 434 1759 690 2068 
Q 947 2378 1403 2484 
z
M 1172 3481 
Q 1172 3119 1398 2916 
Q 1625 2713 2034 2713 
Q 2441 2713 2670 2916 
Q 2900 3119 2900 3481 
Q 2900 3844 2670 4047 
Q 2441 4250 2034 4250 
Q 1625 4250 1398 4047 
Q 1172 3844 1172 3481 
z
" id="DejaVuSans-38" transform="scale(0.015625)"/>
       </defs>
       <use xlink:href="#DejaVuSans-38"/>
       <use x="63.623047" xlink:href="#DejaVuSans-68"/>
       <use x="127.001953" xlink:href="#DejaVuSans-3a"/>
       <use x="160.693359" xlink:href="#DejaVuSans-31"/>
       <use x="224.316406" xlink:href="#DejaVuSans-35"/>
       <use x="287.939453" xlink:href="#DejaVuSans-6d"/>
      </g>
     </g>
    </g>
    <g id="xtick_6">
     <g id="line2d_6">
      <g>
       <use style="stroke:#000000;stroke-width:0.8;" x="359.186881" xlink:href="#m91319ae644" y="288.430125"/>
      </g>
     </g>
     <g id="text_6">
      <!-- 10h:15m -->
      <g transform="translate(336.738443 303.028562)scale(0.1 -0.1)">
       <defs>
        <path d="M 2034 4250 
Q 1547 4250 1301 3770 
Q 1056 3291 1056 2328 
Q 1056 1369 1301 889 
Q 1547 409 2034 409 
Q 2525 409 2770 889 
Q 3016 1369 3016 2328 
Q 3016 3291 2770 3770 
Q 2525 4250 2034 4250 
z
M 2034 4750 
Q 2819 4750 3233 4129 
Q 3647 3509 3647 2328 
Q 3647 1150 3233 529 
Q 2819 -91 2034 -91 
Q 1250 -91 836 529 
Q 422 1150 422 2328 
Q 422 3509 836 4129 
Q 1250 4750 2034 4750 
z
" id="DejaVuSans-30" transform="scale(0.015625)"/>
       </defs>
       <use xlink:href="#DejaVuSans-31"/>
       <use x="63.623047" xlink:href="#DejaVuSans-30"/>
       <use x="127.246094" xlink:href="#DejaVuSans-68"/>
       <use x="190.625" xlink:href="#DejaVuSans-3a"/>
       <use x="224.316406" xlink:href="#DejaVuSans-31"/>
       <use x="287.939453" xlink:href="#DejaVuSans-35"/>
       <use x="351.5625" xlink:href="#DejaVuSans-6d"/>
      </g>
     </g>
    </g>
    <g id="xtick_7">
     <g id="line2d_7">
      <g>
       <use style="stroke:#000000;stroke-width:0.8;" x="413.865541" xlink:href="#m91319ae644" y="288.430125"/>
      </g>
     </g>
     <g id="text_7">
      <!-- 12h:15m -->
      <g transform="translate(391.417104 303.028562)scale(0.1 -0.1)">
       <use xlink:href="#DejaVuSans-31"/>
       <use x="63.623047" xlink:href="#DejaVuSans-32"/>
       <use x="127.246094" xlink:href="#DejaVuSans-68"/>
       <use x="190.625" xlink:href="#DejaVuSans-3a"/>
       <use x="224.316406" xlink:href="#DejaVuSans-31"/>
       <use x="287.939453" xlink:href="#DejaVuSans-35"/>
       <use x="351.5625" xlink:href="#DejaVuSans-6d"/>
      </g>
     </g>
    </g>
    <g id="xtick_8">
     <g id="line2d_8">
      <g>
       <use style="stroke:#000000;stroke-width:0.8;" x="468.544202" xlink:href="#m91319ae644" y="288.430125"/>
      </g>
     </g>
     <g id="text_8">
      <!-- 14h:15m -->
      <g transform="translate(446.095764 303.028562)scale(0.1 -0.1)">
       <use xlink:href="#DejaVuSans-31"/>
       <use x="63.623047" xlink:href="#DejaVuSans-34"/>
       <use x="127.246094" xlink:href="#DejaVuSans-68"/>
       <use x="190.625" xlink:href="#DejaVuSans-3a"/>
       <use x="224.316406" xlink:href="#DejaVuSans-31"/>
       <use x="287.939453" xlink:href="#DejaVuSans-35"/>
       <use x="351.5625" xlink:href="#DejaVuSans-6d"/>
      </g>
     </g>
    </g>
    <g id="xtick_9">
     <g id="line2d_9">
      <g>
       <use style="stroke:#000000;stroke-width:0.8;" x="523.222862" xlink:href="#m91319ae644" y="288.430125"/>
      </g>
     </g>
     <g id="text_9">
      <!-- 16h:15m -->
      <g transform="translate(500.774424 303.028562)scale(0.1 -0.1)">
       <use xlink:href="#DejaVuSans-31"/>
       <use x="63.623047" xlink:href="#DejaVuSans-36"/>
       <use x="127.246094" xlink:href="#DejaVuSans-68"/>
       <use x="190.625" xlink:href="#DejaVuSans-3a"/>
       <use x="224.316406" xlink:href="#DejaVuSans-31"/>
       <use x="287.939453" xlink:href="#DejaVuSans-35"/>
       <use x="351.5625" xlink:href="#DejaVuSans-6d"/>
      </g>
     </g>
    </g>
    <g id="xtick_10">
     <g id="line2d_10">
      <g>
       <use style="stroke:#000000;stroke-width:0.8;" x="577.901522" xlink:href="#m91319ae644" y="288.430125"/>
      </g>
     </g>
     <g id="text_10">
      <!-- 18h:15m -->
      <g transform="translate(555.453085 303.028562)scale(0.1 -0.1)">
       <use xlink:href="#DejaVuSans-31"/>
       <use x="63.623047" xlink:href="#DejaVuSans-38"/>
       <use x="127.246094" xlink:href="#DejaVuSans-68"/>
       <use x="190.625" xlink:href="#DejaVuSans-3a"/>
       <use x="224.316406" xlink:href="#DejaVuSans-31"/>
       <use x="287.939453" xlink:href="#DejaVuSans-35"/>
       <use x="351.5625" xlink:href="#DejaVuSans-6d"/>
      </g>
     </g>
    </g>
    <g id="xtick_11">
     <g id="line2d_11">
      <g>
       <use style="stroke:#000000;stroke-width:0.8;" x="632.580182" xlink:href="#m91319ae644" y="288.430125"/>
      </g>
     </g>
     <g id="text_11">
      <!-- 20h:15m -->
      <g transform="translate(610.131745 303.028562)scale(0.1 -0.1)">
       <use xlink:href="#DejaVuSans-32"/>
       <use x="63.623047" xlink:href="#DejaVuSans-30"/>
       <use x="127.246094" xlink:href="#DejaVuSans-68"/>
       <use x="190.625" xlink:href="#DejaVuSans-3a"/>
       <use x="224.316406" xlink:href="#DejaVuSans-31"/>
       <use x="287.939453" xlink:href="#DejaVuSans-35"/>
       <use x="351.5625" xlink:href="#DejaVuSans-6d"/>
      </g>
     </g>
    </g>
    <g id="xtick_12">
     <g id="line2d_12">
      <g>
       <use style="stroke:#000000;stroke-width:0.8;" x="687.258843" xlink:href="#m91319ae644" y="288.430125"/>
      </g>
     </g>
     <g id="text_12">
      <!-- 22h:15m -->
      <g transform="translate(664.810405 303.028562)scale(0.1 -0.1)">
       <use xlink:href="#DejaVuSans-32"/>
       <use x="63.623047" xlink:href="#DejaVuSans-32"/>
       <use x="127.246094" xlink:href="#DejaVuSans-68"/>
       <use x="190.625" xlink:href="#DejaVuSans-3a"/>
       <use x="224.316406" xlink:href="#DejaVuSans-31"/>
       <use x="287.939453" xlink:href="#DejaVuSans-35"/>
       <use x="351.5625" xlink:href="#DejaVuSans-6d"/>
      </g>
     </g>
    </g>
    <g id="text_13">
     <!-- Time (hour:minute) -->
     <g transform="translate(362.041094 316.706687)scale(0.1 -0.1)">
      <defs>
       <path d="M -19 4666 
L 3928 4666 
L 3928 4134 
L 2272 4134 
L 2272 0 
L 1638 0 
L 1638 4134 
L -19 4134 
L -19 4666 
z
" id="DejaVuSans-54" transform="scale(0.015625)"/>
       <path d="M 603 3500 
L 1178 3500 
L 1178 0 
L 603 0 
L 603 3500 
z
M 603 4863 
L 1178 4863 
L 1178 4134 
L 603 4134 
L 603 4863 
z
" id="DejaVuSans-69" transform="scale(0.015625)"/>
       <path d="M 3597 1894 
L 3597 1613 
L 953 1613 
Q 991 1019 1311 708 
Q 1631 397 2203 397 
Q 2534 397 2845 478 
Q 3156 559 3463 722 
L 3463 178 
Q 3153 47 2828 -22 
Q 2503 -91 2169 -91 
Q 1331 -91 842 396 
Q 353 884 353 1716 
Q 353 2575 817 3079 
Q 1281 3584 2069 3584 
Q 2775 3584 3186 3129 
Q 3597 2675 3597 1894 
z
M 3022 2063 
Q 3016 2534 2758 2815 
Q 2500 3097 2075 3097 
Q 1594 3097 1305 2825 
Q 1016 2553 972 2059 
L 3022 2063 
z
" id="DejaVuSans-65" transform="scale(0.015625)"/>
       <path id="DejaVuSans-20" transform="scale(0.015625)"/>
       <path d="M 1984 4856 
Q 1566 4138 1362 3434 
Q 1159 2731 1159 2009 
Q 1159 1288 1364 580 
Q 1569 -128 1984 -844 
L 1484 -844 
Q 1016 -109 783 600 
Q 550 1309 550 2009 
Q 550 2706 781 3412 
Q 1013 4119 1484 4856 
L 1984 4856 
z
" id="DejaVuSans-28" transform="scale(0.015625)"/>
       <path d="M 1959 3097 
Q 1497 3097 1228 2736 
Q 959 2375 959 1747 
Q 959 1119 1226 758 
Q 1494 397 1959 397 
Q 2419 397 2687 759 
Q 2956 1122 2956 1747 
Q 2956 2369 2687 2733 
Q 2419 3097 1959 3097 
z
M 1959 3584 
Q 2709 3584 3137 3096 
Q 3566 2609 3566 1747 
Q 3566 888 3137 398 
Q 2709 -91 1959 -91 
Q 1206 -91 779 398 
Q 353 888 353 1747 
Q 353 2609 779 3096 
Q 1206 3584 1959 3584 
z
" id="DejaVuSans-6f" transform="scale(0.015625)"/>
       <path d="M 544 1381 
L 544 3500 
L 1119 3500 
L 1119 1403 
Q 1119 906 1312 657 
Q 1506 409 1894 409 
Q 2359 409 2629 706 
Q 2900 1003 2900 1516 
L 2900 3500 
L 3475 3500 
L 3475 0 
L 2900 0 
L 2900 538 
Q 2691 219 2414 64 
Q 2138 -91 1772 -91 
Q 1169 -91 856 284 
Q 544 659 544 1381 
z
M 1991 3584 
L 1991 3584 
z
" id="DejaVuSans-75" transform="scale(0.015625)"/>
       <path d="M 2631 2963 
Q 2534 3019 2420 3045 
Q 2306 3072 2169 3072 
Q 1681 3072 1420 2755 
Q 1159 2438 1159 1844 
L 1159 0 
L 581 0 
L 581 3500 
L 1159 3500 
L 1159 2956 
Q 1341 3275 1631 3429 
Q 1922 3584 2338 3584 
Q 2397 3584 2469 3576 
Q 2541 3569 2628 3553 
L 2631 2963 
z
" id="DejaVuSans-72" transform="scale(0.015625)"/>
       <path d="M 3513 2113 
L 3513 0 
L 2938 0 
L 2938 2094 
Q 2938 2591 2744 2837 
Q 2550 3084 2163 3084 
Q 1697 3084 1428 2787 
Q 1159 2491 1159 1978 
L 1159 0 
L 581 0 
L 581 3500 
L 1159 3500 
L 1159 2956 
Q 1366 3272 1645 3428 
Q 1925 3584 2291 3584 
Q 2894 3584 3203 3211 
Q 3513 2838 3513 2113 
z
" id="DejaVuSans-6e" transform="scale(0.015625)"/>
       <path d="M 1172 4494 
L 1172 3500 
L 2356 3500 
L 2356 3053 
L 1172 3053 
L 1172 1153 
Q 1172 725 1289 603 
Q 1406 481 1766 481 
L 2356 481 
L 2356 0 
L 1766 0 
Q 1100 0 847 248 
Q 594 497 594 1153 
L 594 3053 
L 172 3053 
L 172 3500 
L 594 3500 
L 594 4494 
L 1172 4494 
z
" id="DejaVuSans-74" transform="scale(0.015625)"/>
       <path d="M 513 4856 
L 1013 4856 
Q 1481 4119 1714 3412 
Q 1947 2706 1947 2009 
Q 1947 1309 1714 600 
Q 1481 -109 1013 -844 
L 513 -844 
Q 928 -128 1133 580 
Q 1338 1288 1338 2009 
Q 1338 2731 1133 3434 
Q 928 4138 513 4856 
z
" id="DejaVuSans-29" transform="scale(0.015625)"/>
      </defs>
      <use xlink:href="#DejaVuSans-54"/>
      <use x="57.958984" xlink:href="#DejaVuSans-69"/>
      <use x="85.742188" xlink:href="#DejaVuSans-6d"/>
      <use x="183.154297" xlink:href="#DejaVuSans-65"/>
      <use x="244.677734" xlink:href="#DejaVuSans-20"/>
      <use x="276.464844" xlink:href="#DejaVuSans-28"/>
      <use x="315.478516" xlink:href="#DejaVuSans-68"/>
      <use x="378.857422" xlink:href="#DejaVuSans-6f"/>
      <use x="440.039062" xlink:href="#DejaVuSans-75"/>
      <use x="503.417969" xlink:href="#DejaVuSans-72"/>
      <use x="542.78125" xlink:href="#DejaVuSans-3a"/>
      <use x="576.472656" xlink:href="#DejaVuSans-6d"/>
      <use x="673.884766" xlink:href="#DejaVuSans-69"/>
      <use x="701.667969" xlink:href="#DejaVuSans-6e"/>
      <use x="765.046875" xlink:href="#DejaVuSans-75"/>
      <use x="828.425781" xlink:href="#DejaVuSans-74"/>
      <use x="867.634766" xlink:href="#DejaVuSans-65"/>
      <use x="929.158203" xlink:href="#DejaVuSans-29"/>
     </g>
    </g>
   </g>
   <g id="matplotlib.axis_2">
    <g id="ytick_1">
     <g id="line2d_13">
      <defs>
       <path d="M 0 0 
L -3.5 0 
" id="mc4d2eabd8d" style="stroke:#000000;stroke-width:0.8;"/>
      </defs>
      <g>
       <use style="stroke:#000000;stroke-width:0.8;" x="53.328125" xlink:href="#mc4d2eabd8d" y="271.956567"/>
      </g>
     </g>
     <g id="text_14">
      <!-- 1500 -->
      <g transform="translate(20.878125 275.755786)scale(0.1 -0.1)">
       <use xlink:href="#DejaVuSans-31"/>
       <use x="63.623047" xlink:href="#DejaVuSans-35"/>
       <use x="127.246094" xlink:href="#DejaVuSans-30"/>
       <use x="190.869141" xlink:href="#DejaVuSans-30"/>
      </g>
     </g>
    </g>
    <g id="ytick_2">
     <g id="line2d_14">
      <g>
       <use style="stroke:#000000;stroke-width:0.8;" x="53.328125" xlink:href="#mc4d2eabd8d" y="240.003588"/>
      </g>
     </g>
     <g id="text_15">
      <!-- 2000 -->
      <g transform="translate(20.878125 243.802806)scale(0.1 -0.1)">
       <use xlink:href="#DejaVuSans-32"/>
       <use x="63.623047" xlink:href="#DejaVuSans-30"/>
       <use x="127.246094" xlink:href="#DejaVuSans-30"/>
       <use x="190.869141" xlink:href="#DejaVuSans-30"/>
      </g>
     </g>
    </g>
    <g id="ytick_3">
     <g id="line2d_15">
      <g>
       <use style="stroke:#000000;stroke-width:0.8;" x="53.328125" xlink:href="#mc4d2eabd8d" y="208.050608"/>
      </g>
     </g>
     <g id="text_16">
      <!-- 2500 -->
      <g transform="translate(20.878125 211.849827)scale(0.1 -0.1)">
       <use xlink:href="#DejaVuSans-32"/>
       <use x="63.623047" xlink:href="#DejaVuSans-35"/>
       <use x="127.246094" xlink:href="#DejaVuSans-30"/>
       <use x="190.869141" xlink:href="#DejaVuSans-30"/>
      </g>
     </g>
    </g>
    <g id="ytick_4">
     <g id="line2d_16">
      <g>
       <use style="stroke:#000000;stroke-width:0.8;" x="53.328125" xlink:href="#mc4d2eabd8d" y="176.097629"/>
      </g>
     </g>
     <g id="text_17">
      <!-- 3000 -->
      <g transform="translate(20.878125 179.896848)scale(0.1 -0.1)">
       <defs>
        <path d="M 2597 2516 
Q 3050 2419 3304 2112 
Q 3559 1806 3559 1356 
Q 3559 666 3084 287 
Q 2609 -91 1734 -91 
Q 1441 -91 1130 -33 
Q 819 25 488 141 
L 488 750 
Q 750 597 1062 519 
Q 1375 441 1716 441 
Q 2309 441 2620 675 
Q 2931 909 2931 1356 
Q 2931 1769 2642 2001 
Q 2353 2234 1838 2234 
L 1294 2234 
L 1294 2753 
L 1863 2753 
Q 2328 2753 2575 2939 
Q 2822 3125 2822 3475 
Q 2822 3834 2567 4026 
Q 2313 4219 1838 4219 
Q 1578 4219 1281 4162 
Q 984 4106 628 3988 
L 628 4550 
Q 988 4650 1302 4700 
Q 1616 4750 1894 4750 
Q 2613 4750 3031 4423 
Q 3450 4097 3450 3541 
Q 3450 3153 3228 2886 
Q 3006 2619 2597 2516 
z
" id="DejaVuSans-33" transform="scale(0.015625)"/>
       </defs>
       <use xlink:href="#DejaVuSans-33"/>
       <use x="63.623047" xlink:href="#DejaVuSans-30"/>
       <use x="127.246094" xlink:href="#DejaVuSans-30"/>
       <use x="190.869141" xlink:href="#DejaVuSans-30"/>
      </g>
     </g>
    </g>
    <g id="ytick_5">
     <g id="line2d_17">
      <g>
       <use style="stroke:#000000;stroke-width:0.8;" x="53.328125" xlink:href="#mc4d2eabd8d" y="144.14465"/>
      </g>
     </g>
     <g id="text_18">
      <!-- 3500 -->
      <g transform="translate(20.878125 147.943869)scale(0.1 -0.1)">
       <use xlink:href="#DejaVuSans-33"/>
       <use x="63.623047" xlink:href="#DejaVuSans-35"/>
       <use x="127.246094" xlink:href="#DejaVuSans-30"/>
       <use x="190.869141" xlink:href="#DejaVuSans-30"/>
      </g>
     </g>
    </g>
    <g id="ytick_6">
     <g id="line2d_18">
      <g>
       <use style="stroke:#000000;stroke-width:0.8;" x="53.328125" xlink:href="#mc4d2eabd8d" y="112.191671"/>
      </g>
     </g>
     <g id="text_19">
      <!-- 4000 -->
      <g transform="translate(20.878125 115.990889)scale(0.1 -0.1)">
       <use xlink:href="#DejaVuSans-34"/>
       <use x="63.623047" xlink:href="#DejaVuSans-30"/>
       <use x="127.246094" xlink:href="#DejaVuSans-30"/>
       <use x="190.869141" xlink:href="#DejaVuSans-30"/>
      </g>
     </g>
    </g>
    <g id="ytick_7">
     <g id="line2d_19">
      <g>
       <use style="stroke:#000000;stroke-width:0.8;" x="53.328125" xlink:href="#mc4d2eabd8d" y="80.238691"/>
      </g>
     </g>
     <g id="text_20">
      <!-- 4500 -->
      <g transform="translate(20.878125 84.03791)scale(0.1 -0.1)">
       <use xlink:href="#DejaVuSans-34"/>
       <use x="63.623047" xlink:href="#DejaVuSans-35"/>
       <use x="127.246094" xlink:href="#DejaVuSans-30"/>
       <use x="190.869141" xlink:href="#DejaVuSans-30"/>
      </g>
     </g>
    </g>
    <g id="ytick_8">
     <g id="line2d_20">
      <g>
       <use style="stroke:#000000;stroke-width:0.8;" x="53.328125" xlink:href="#mc4d2eabd8d" y="48.285712"/>
      </g>
     </g>
     <g id="text_21">
      <!-- 5000 -->
      <g transform="translate(20.878125 52.084931)scale(0.1 -0.1)">
       <use xlink:href="#DejaVuSans-35"/>
       <use x="63.623047" xlink:href="#DejaVuSans-30"/>
       <use x="127.246094" xlink:href="#DejaVuSans-30"/>
       <use x="190.869141" xlink:href="#DejaVuSans-30"/>
      </g>
     </g>
    </g>
    <g id="text_22">
     <!-- Code branch coverage -->
     <g transform="translate(14.798438 211.949125)rotate(-90)scale(0.1 -0.1)">
      <defs>
       <path d="M 4122 4306 
L 4122 3641 
Q 3803 3938 3442 4084 
Q 3081 4231 2675 4231 
Q 1875 4231 1450 3742 
Q 1025 3253 1025 2328 
Q 1025 1406 1450 917 
Q 1875 428 2675 428 
Q 3081 428 3442 575 
Q 3803 722 4122 1019 
L 4122 359 
Q 3791 134 3420 21 
Q 3050 -91 2638 -91 
Q 1578 -91 968 557 
Q 359 1206 359 2328 
Q 359 3453 968 4101 
Q 1578 4750 2638 4750 
Q 3056 4750 3426 4639 
Q 3797 4528 4122 4306 
z
" id="DejaVuSans-43" transform="scale(0.015625)"/>
       <path d="M 2906 2969 
L 2906 4863 
L 3481 4863 
L 3481 0 
L 2906 0 
L 2906 525 
Q 2725 213 2448 61 
Q 2172 -91 1784 -91 
Q 1150 -91 751 415 
Q 353 922 353 1747 
Q 353 2572 751 3078 
Q 1150 3584 1784 3584 
Q 2172 3584 2448 3432 
Q 2725 3281 2906 2969 
z
M 947 1747 
Q 947 1113 1208 752 
Q 1469 391 1925 391 
Q 2381 391 2643 752 
Q 2906 1113 2906 1747 
Q 2906 2381 2643 2742 
Q 2381 3103 1925 3103 
Q 1469 3103 1208 2742 
Q 947 2381 947 1747 
z
" id="DejaVuSans-64" transform="scale(0.015625)"/>
       <path d="M 3116 1747 
Q 3116 2381 2855 2742 
Q 2594 3103 2138 3103 
Q 1681 3103 1420 2742 
Q 1159 2381 1159 1747 
Q 1159 1113 1420 752 
Q 1681 391 2138 391 
Q 2594 391 2855 752 
Q 3116 1113 3116 1747 
z
M 1159 2969 
Q 1341 3281 1617 3432 
Q 1894 3584 2278 3584 
Q 2916 3584 3314 3078 
Q 3713 2572 3713 1747 
Q 3713 922 3314 415 
Q 2916 -91 2278 -91 
Q 1894 -91 1617 61 
Q 1341 213 1159 525 
L 1159 0 
L 581 0 
L 581 4863 
L 1159 4863 
L 1159 2969 
z
" id="DejaVuSans-62" transform="scale(0.015625)"/>
       <path d="M 2194 1759 
Q 1497 1759 1228 1600 
Q 959 1441 959 1056 
Q 959 750 1161 570 
Q 1363 391 1709 391 
Q 2188 391 2477 730 
Q 2766 1069 2766 1631 
L 2766 1759 
L 2194 1759 
z
M 3341 1997 
L 3341 0 
L 2766 0 
L 2766 531 
Q 2569 213 2275 61 
Q 1981 -91 1556 -91 
Q 1019 -91 701 211 
Q 384 513 384 1019 
Q 384 1609 779 1909 
Q 1175 2209 1959 2209 
L 2766 2209 
L 2766 2266 
Q 2766 2663 2505 2880 
Q 2244 3097 1772 3097 
Q 1472 3097 1187 3025 
Q 903 2953 641 2809 
L 641 3341 
Q 956 3463 1253 3523 
Q 1550 3584 1831 3584 
Q 2591 3584 2966 3190 
Q 3341 2797 3341 1997 
z
" id="DejaVuSans-61" transform="scale(0.015625)"/>
       <path d="M 3122 3366 
L 3122 2828 
Q 2878 2963 2633 3030 
Q 2388 3097 2138 3097 
Q 1578 3097 1268 2742 
Q 959 2388 959 1747 
Q 959 1106 1268 751 
Q 1578 397 2138 397 
Q 2388 397 2633 464 
Q 2878 531 3122 666 
L 3122 134 
Q 2881 22 2623 -34 
Q 2366 -91 2075 -91 
Q 1284 -91 818 406 
Q 353 903 353 1747 
Q 353 2603 823 3093 
Q 1294 3584 2113 3584 
Q 2378 3584 2631 3529 
Q 2884 3475 3122 3366 
z
" id="DejaVuSans-63" transform="scale(0.015625)"/>
       <path d="M 191 3500 
L 800 3500 
L 1894 563 
L 2988 3500 
L 3597 3500 
L 2284 0 
L 1503 0 
L 191 3500 
z
" id="DejaVuSans-76" transform="scale(0.015625)"/>
       <path d="M 2906 1791 
Q 2906 2416 2648 2759 
Q 2391 3103 1925 3103 
Q 1463 3103 1205 2759 
Q 947 2416 947 1791 
Q 947 1169 1205 825 
Q 1463 481 1925 481 
Q 2391 481 2648 825 
Q 2906 1169 2906 1791 
z
M 3481 434 
Q 3481 -459 3084 -895 
Q 2688 -1331 1869 -1331 
Q 1566 -1331 1297 -1286 
Q 1028 -1241 775 -1147 
L 775 -588 
Q 1028 -725 1275 -790 
Q 1522 -856 1778 -856 
Q 2344 -856 2625 -561 
Q 2906 -266 2906 331 
L 2906 616 
Q 2728 306 2450 153 
Q 2172 0 1784 0 
Q 1141 0 747 490 
Q 353 981 353 1791 
Q 353 2603 747 3093 
Q 1141 3584 1784 3584 
Q 2172 3584 2450 3431 
Q 2728 3278 2906 2969 
L 2906 3500 
L 3481 3500 
L 3481 434 
z
" id="DejaVuSans-67" transform="scale(0.015625)"/>
      </defs>
      <use xlink:href="#DejaVuSans-43"/>
      <use x="69.824219" xlink:href="#DejaVuSans-6f"/>
      <use x="131.005859" xlink:href="#DejaVuSans-64"/>
      <use x="194.482422" xlink:href="#DejaVuSans-65"/>
      <use x="256.005859" xlink:href="#DejaVuSans-20"/>
      <use x="287.792969" xlink:href="#DejaVuSans-62"/>
      <use x="351.269531" xlink:href="#DejaVuSans-72"/>
      <use x="392.382812" xlink:href="#DejaVuSans-61"/>
      <use x="453.662109" xlink:href="#DejaVuSans-6e"/>
      <use x="517.041016" xlink:href="#DejaVuSans-63"/>
      <use x="572.021484" xlink:href="#DejaVuSans-68"/>
      <use x="635.400391" xlink:href="#DejaVuSans-20"/>
      <use x="667.1875" xlink:href="#DejaVuSans-63"/>
      <use x="722.167969" xlink:href="#DejaVuSans-6f"/>
      <use x="783.349609" xlink:href="#DejaVuSans-76"/>
      <use x="842.529297" xlink:href="#DejaVuSans-65"/>
      <use x="904.052734" xlink:href="#DejaVuSans-72"/>
      <use x="945.166016" xlink:href="#DejaVuSans-61"/>
      <use x="1006.445312" xlink:href="#DejaVuSans-67"/>
      <use x="1069.921875" xlink:href="#DejaVuSans-65"/>
     </g>
    </g>
   </g>
   <g id="line2d_21">
    <path clip-path="url(#p1dac2d3f7e)" d="M 85.79358 106.82357 
L 92.628412 93.914566 
L 99.463245 87.747641 
L 106.298077 83.082507 
L 113.13291 80.110879 
L 119.967742 76.947534 
L 126.802575 74.806685 
L 133.637407 73.78419 
L 140.47224 73.113177 
L 147.307072 71.611387 
L 154.141905 71.483575 
L 160.976737 71.227951 
L 167.81157 68.831478 
L 174.646403 68.352183 
L 181.481235 68.192418 
L 188.316068 67.968747 
L 195.1509 67.745076 
L 201.985733 67.713123 
L 208.820565 67.393594 
L 215.655398 67.329688 
L 222.49023 66.978205 
L 229.325063 66.81844 
L 236.159895 65.348603 
L 242.994728 64.294155 
L 249.82956 64.13439 
L 256.664393 63.878766 
L 263.499225 63.399471 
L 270.334058 63.207753 
L 277.168891 63.111894 
L 284.003723 62.984083 
L 290.838556 62.185258 
L 297.673388 62.185258 
L 304.508221 61.929634 
L 311.343053 61.801822 
L 318.177886 61.642057 
L 325.012718 61.290575 
L 331.847551 61.13081 
L 338.682383 61.034951 
L 345.517216 60.971045 
L 352.352048 60.939092 
L 359.186881 60.875186 
L 366.021714 60.81128 
L 372.856546 60.49175 
L 379.691379 60.427844 
L 386.526211 60.140267 
L 393.361044 59.660973 
L 400.195876 59.181678 
L 407.030709 58.958007 
L 413.865541 58.830195 
L 420.700374 58.702383 
L 427.535206 58.67043 
L 434.370039 58.542618 
L 441.204871 58.382854 
L 448.039704 58.318948 
L 454.874536 58.159183 
L 461.709369 58.12723 
L 468.544202 57.775747 
L 475.379034 57.520123 
L 482.213867 55.187556 
L 489.048699 55.027791 
L 495.883532 54.612402 
L 502.718364 54.548496 
L 509.553197 54.48459 
L 516.388029 54.197013 
L 523.222862 54.037248 
L 530.057694 53.941389 
L 536.892527 53.717719 
L 543.727359 53.653813 
L 550.562192 53.62186 
L 557.397025 53.557954 
L 564.231857 53.494048 
L 571.06669 53.430142 
L 577.901522 53.366236 
L 584.736355 52.599364 
L 591.571187 52.471552 
L 598.40602 52.375693 
L 605.240852 52.311788 
L 612.075685 52.279835 
L 618.910517 52.279835 
L 625.74535 52.215929 
L 632.580182 52.152023 
L 639.415015 52.088117 
L 646.249847 51.896399 
L 653.08468 51.864446 
L 659.919513 51.864446 
L 666.754345 51.80054 
L 673.589178 51.640775 
L 680.42401 51.608822 
L 687.258843 51.544916 
L 694.093675 51.512963 
L 700.928508 51.417104 
L 707.76334 51.385151 
L 714.598173 51.257339 
L 721.433005 51.257339 
L 728.267838 51.16148 
L 735.10267 51.129527 
" style="fill:none;stroke:#98df8a;stroke-linecap:square;stroke-width:1.5;"/>
    <defs>
     <path d="M -0 3 
L 3 -3 
L -3 -3 
z
" id="m38669aaf1b" style="stroke:#ffffff;stroke-linejoin:miter;stroke-width:0.75;"/>
    </defs>
    <g clip-path="url(#p1dac2d3f7e)">
     <use style="fill:#98df8a;stroke:#ffffff;stroke-linejoin:miter;stroke-width:0.75;" x="85.79358" xlink:href="#m38669aaf1b" y="106.82357"/>
     <use style="fill:#98df8a;stroke:#ffffff;stroke-linejoin:miter;stroke-width:0.75;" x="92.628412" xlink:href="#m38669aaf1b" y="93.914566"/>
     <use style="fill:#98df8a;stroke:#ffffff;stroke-linejoin:miter;stroke-width:0.75;" x="99.463245" xlink:href="#m38669aaf1b" y="87.747641"/>
     <use style="fill:#98df8a;stroke:#ffffff;stroke-linejoin:miter;stroke-width:0.75;" x="106.298077" xlink:href="#m38669aaf1b" y="83.082507"/>
     <use style="fill:#98df8a;stroke:#ffffff;stroke-linejoin:miter;stroke-width:0.75;" x="113.13291" xlink:href="#m38669aaf1b" y="80.110879"/>
     <use style="fill:#98df8a;stroke:#ffffff;stroke-linejoin:miter;stroke-width:0.75;" x="119.967742" xlink:href="#m38669aaf1b" y="76.947534"/>
     <use style="fill:#98df8a;stroke:#ffffff;stroke-linejoin:miter;stroke-width:0.75;" x="126.802575" xlink:href="#m38669aaf1b" y="74.806685"/>
     <use style="fill:#98df8a;stroke:#ffffff;stroke-linejoin:miter;stroke-width:0.75;" x="133.637407" xlink:href="#m38669aaf1b" y="73.78419"/>
     <use style="fill:#98df8a;stroke:#ffffff;stroke-linejoin:miter;stroke-width:0.75;" x="140.47224" xlink:href="#m38669aaf1b" y="73.113177"/>
     <use style="fill:#98df8a;stroke:#ffffff;stroke-linejoin:miter;stroke-width:0.75;" x="147.307072" xlink:href="#m38669aaf1b" y="71.611387"/>
     <use style="fill:#98df8a;stroke:#ffffff;stroke-linejoin:miter;stroke-width:0.75;" x="154.141905" xlink:href="#m38669aaf1b" y="71.483575"/>
     <use style="fill:#98df8a;stroke:#ffffff;stroke-linejoin:miter;stroke-width:0.75;" x="160.976737" xlink:href="#m38669aaf1b" y="71.227951"/>
     <use style="fill:#98df8a;stroke:#ffffff;stroke-linejoin:miter;stroke-width:0.75;" x="167.81157" xlink:href="#m38669aaf1b" y="68.831478"/>
     <use style="fill:#98df8a;stroke:#ffffff;stroke-linejoin:miter;stroke-width:0.75;" x="174.646403" xlink:href="#m38669aaf1b" y="68.352183"/>
     <use style="fill:#98df8a;stroke:#ffffff;stroke-linejoin:miter;stroke-width:0.75;" x="181.481235" xlink:href="#m38669aaf1b" y="68.192418"/>
     <use style="fill:#98df8a;stroke:#ffffff;stroke-linejoin:miter;stroke-width:0.75;" x="188.316068" xlink:href="#m38669aaf1b" y="67.968747"/>
     <use style="fill:#98df8a;stroke:#ffffff;stroke-linejoin:miter;stroke-width:0.75;" x="195.1509" xlink:href="#m38669aaf1b" y="67.745076"/>
     <use style="fill:#98df8a;stroke:#ffffff;stroke-linejoin:miter;stroke-width:0.75;" x="201.985733" xlink:href="#m38669aaf1b" y="67.713123"/>
     <use style="fill:#98df8a;stroke:#ffffff;stroke-linejoin:miter;stroke-width:0.75;" x="208.820565" xlink:href="#m38669aaf1b" y="67.393594"/>
     <use style="fill:#98df8a;stroke:#ffffff;stroke-linejoin:miter;stroke-width:0.75;" x="215.655398" xlink:href="#m38669aaf1b" y="67.329688"/>
     <use style="fill:#98df8a;stroke:#ffffff;stroke-linejoin:miter;stroke-width:0.75;" x="222.49023" xlink:href="#m38669aaf1b" y="66.978205"/>
     <use style="fill:#98df8a;stroke:#ffffff;stroke-linejoin:miter;stroke-width:0.75;" x="229.325063" xlink:href="#m38669aaf1b" y="66.81844"/>
     <use style="fill:#98df8a;stroke:#ffffff;stroke-linejoin:miter;stroke-width:0.75;" x="236.159895" xlink:href="#m38669aaf1b" y="65.348603"/>
     <use style="fill:#98df8a;stroke:#ffffff;stroke-linejoin:miter;stroke-width:0.75;" x="242.994728" xlink:href="#m38669aaf1b" y="64.294155"/>
     <use style="fill:#98df8a;stroke:#ffffff;stroke-linejoin:miter;stroke-width:0.75;" x="249.82956" xlink:href="#m38669aaf1b" y="64.13439"/>
     <use style="fill:#98df8a;stroke:#ffffff;stroke-linejoin:miter;stroke-width:0.75;" x="256.664393" xlink:href="#m38669aaf1b" y="63.878766"/>
     <use style="fill:#98df8a;stroke:#ffffff;stroke-linejoin:miter;stroke-width:0.75;" x="263.499225" xlink:href="#m38669aaf1b" y="63.399471"/>
     <use style="fill:#98df8a;stroke:#ffffff;stroke-linejoin:miter;stroke-width:0.75;" x="270.334058" xlink:href="#m38669aaf1b" y="63.207753"/>
     <use style="fill:#98df8a;stroke:#ffffff;stroke-linejoin:miter;stroke-width:0.75;" x="277.168891" xlink:href="#m38669aaf1b" y="63.111894"/>
     <use style="fill:#98df8a;stroke:#ffffff;stroke-linejoin:miter;stroke-width:0.75;" x="284.003723" xlink:href="#m38669aaf1b" y="62.984083"/>
     <use style="fill:#98df8a;stroke:#ffffff;stroke-linejoin:miter;stroke-width:0.75;" x="290.838556" xlink:href="#m38669aaf1b" y="62.185258"/>
     <use style="fill:#98df8a;stroke:#ffffff;stroke-linejoin:miter;stroke-width:0.75;" x="297.673388" xlink:href="#m38669aaf1b" y="62.185258"/>
     <use style="fill:#98df8a;stroke:#ffffff;stroke-linejoin:miter;stroke-width:0.75;" x="304.508221" xlink:href="#m38669aaf1b" y="61.929634"/>
     <use style="fill:#98df8a;stroke:#ffffff;stroke-linejoin:miter;stroke-width:0.75;" x="311.343053" xlink:href="#m38669aaf1b" y="61.801822"/>
     <use style="fill:#98df8a;stroke:#ffffff;stroke-linejoin:miter;stroke-width:0.75;" x="318.177886" xlink:href="#m38669aaf1b" y="61.642057"/>
     <use style="fill:#98df8a;stroke:#ffffff;stroke-linejoin:miter;stroke-width:0.75;" x="325.012718" xlink:href="#m38669aaf1b" y="61.290575"/>
     <use style="fill:#98df8a;stroke:#ffffff;stroke-linejoin:miter;stroke-width:0.75;" x="331.847551" xlink:href="#m38669aaf1b" y="61.13081"/>
     <use style="fill:#98df8a;stroke:#ffffff;stroke-linejoin:miter;stroke-width:0.75;" x="338.682383" xlink:href="#m38669aaf1b" y="61.034951"/>
     <use style="fill:#98df8a;stroke:#ffffff;stroke-linejoin:miter;stroke-width:0.75;" x="345.517216" xlink:href="#m38669aaf1b" y="60.971045"/>
     <use style="fill:#98df8a;stroke:#ffffff;stroke-linejoin:miter;stroke-width:0.75;" x="352.352048" xlink:href="#m38669aaf1b" y="60.939092"/>
     <use style="fill:#98df8a;stroke:#ffffff;stroke-linejoin:miter;stroke-width:0.75;" x="359.186881" xlink:href="#m38669aaf1b" y="60.875186"/>
     <use style="fill:#98df8a;stroke:#ffffff;stroke-linejoin:miter;stroke-width:0.75;" x="366.021714" xlink:href="#m38669aaf1b" y="60.81128"/>
     <use style="fill:#98df8a;stroke:#ffffff;stroke-linejoin:miter;stroke-width:0.75;" x="372.856546" xlink:href="#m38669aaf1b" y="60.49175"/>
     <use style="fill:#98df8a;stroke:#ffffff;stroke-linejoin:miter;stroke-width:0.75;" x="379.691379" xlink:href="#m38669aaf1b" y="60.427844"/>
     <use style="fill:#98df8a;stroke:#ffffff;stroke-linejoin:miter;stroke-width:0.75;" x="386.526211" xlink:href="#m38669aaf1b" y="60.140267"/>
     <use style="fill:#98df8a;stroke:#ffffff;stroke-linejoin:miter;stroke-width:0.75;" x="393.361044" xlink:href="#m38669aaf1b" y="59.660973"/>
     <use style="fill:#98df8a;stroke:#ffffff;stroke-linejoin:miter;stroke-width:0.75;" x="400.195876" xlink:href="#m38669aaf1b" y="59.181678"/>
     <use style="fill:#98df8a;stroke:#ffffff;stroke-linejoin:miter;stroke-width:0.75;" x="407.030709" xlink:href="#m38669aaf1b" y="58.958007"/>
     <use style="fill:#98df8a;stroke:#ffffff;stroke-linejoin:miter;stroke-width:0.75;" x="413.865541" xlink:href="#m38669aaf1b" y="58.830195"/>
     <use style="fill:#98df8a;stroke:#ffffff;stroke-linejoin:miter;stroke-width:0.75;" x="420.700374" xlink:href="#m38669aaf1b" y="58.702383"/>
     <use style="fill:#98df8a;stroke:#ffffff;stroke-linejoin:miter;stroke-width:0.75;" x="427.535206" xlink:href="#m38669aaf1b" y="58.67043"/>
     <use style="fill:#98df8a;stroke:#ffffff;stroke-linejoin:miter;stroke-width:0.75;" x="434.370039" xlink:href="#m38669aaf1b" y="58.542618"/>
     <use style="fill:#98df8a;stroke:#ffffff;stroke-linejoin:miter;stroke-width:0.75;" x="441.204871" xlink:href="#m38669aaf1b" y="58.382854"/>
     <use style="fill:#98df8a;stroke:#ffffff;stroke-linejoin:miter;stroke-width:0.75;" x="448.039704" xlink:href="#m38669aaf1b" y="58.318948"/>
     <use style="fill:#98df8a;stroke:#ffffff;stroke-linejoin:miter;stroke-width:0.75;" x="454.874536" xlink:href="#m38669aaf1b" y="58.159183"/>
     <use style="fill:#98df8a;stroke:#ffffff;stroke-linejoin:miter;stroke-width:0.75;" x="461.709369" xlink:href="#m38669aaf1b" y="58.12723"/>
     <use style="fill:#98df8a;stroke:#ffffff;stroke-linejoin:miter;stroke-width:0.75;" x="468.544202" xlink:href="#m38669aaf1b" y="57.775747"/>
     <use style="fill:#98df8a;stroke:#ffffff;stroke-linejoin:miter;stroke-width:0.75;" x="475.379034" xlink:href="#m38669aaf1b" y="57.520123"/>
     <use style="fill:#98df8a;stroke:#ffffff;stroke-linejoin:miter;stroke-width:0.75;" x="482.213867" xlink:href="#m38669aaf1b" y="55.187556"/>
     <use style="fill:#98df8a;stroke:#ffffff;stroke-linejoin:miter;stroke-width:0.75;" x="489.048699" xlink:href="#m38669aaf1b" y="55.027791"/>
     <use style="fill:#98df8a;stroke:#ffffff;stroke-linejoin:miter;stroke-width:0.75;" x="495.883532" xlink:href="#m38669aaf1b" y="54.612402"/>
     <use style="fill:#98df8a;stroke:#ffffff;stroke-linejoin:miter;stroke-width:0.75;" x="502.718364" xlink:href="#m38669aaf1b" y="54.548496"/>
     <use style="fill:#98df8a;stroke:#ffffff;stroke-linejoin:miter;stroke-width:0.75;" x="509.553197" xlink:href="#m38669aaf1b" y="54.48459"/>
     <use style="fill:#98df8a;stroke:#ffffff;stroke-linejoin:miter;stroke-width:0.75;" x="516.388029" xlink:href="#m38669aaf1b" y="54.197013"/>
     <use style="fill:#98df8a;stroke:#ffffff;stroke-linejoin:miter;stroke-width:0.75;" x="523.222862" xlink:href="#m38669aaf1b" y="54.037248"/>
     <use style="fill:#98df8a;stroke:#ffffff;stroke-linejoin:miter;stroke-width:0.75;" x="530.057694" xlink:href="#m38669aaf1b" y="53.941389"/>
     <use style="fill:#98df8a;stroke:#ffffff;stroke-linejoin:miter;stroke-width:0.75;" x="536.892527" xlink:href="#m38669aaf1b" y="53.717719"/>
     <use style="fill:#98df8a;stroke:#ffffff;stroke-linejoin:miter;stroke-width:0.75;" x="543.727359" xlink:href="#m38669aaf1b" y="53.653813"/>
     <use style="fill:#98df8a;stroke:#ffffff;stroke-linejoin:miter;stroke-width:0.75;" x="550.562192" xlink:href="#m38669aaf1b" y="53.62186"/>
     <use style="fill:#98df8a;stroke:#ffffff;stroke-linejoin:miter;stroke-width:0.75;" x="557.397025" xlink:href="#m38669aaf1b" y="53.557954"/>
     <use style="fill:#98df8a;stroke:#ffffff;stroke-linejoin:miter;stroke-width:0.75;" x="564.231857" xlink:href="#m38669aaf1b" y="53.494048"/>
     <use style="fill:#98df8a;stroke:#ffffff;stroke-linejoin:miter;stroke-width:0.75;" x="571.06669" xlink:href="#m38669aaf1b" y="53.430142"/>
     <use style="fill:#98df8a;stroke:#ffffff;stroke-linejoin:miter;stroke-width:0.75;" x="577.901522" xlink:href="#m38669aaf1b" y="53.366236"/>
     <use style="fill:#98df8a;stroke:#ffffff;stroke-linejoin:miter;stroke-width:0.75;" x="584.736355" xlink:href="#m38669aaf1b" y="52.599364"/>
     <use style="fill:#98df8a;stroke:#ffffff;stroke-linejoin:miter;stroke-width:0.75;" x="591.571187" xlink:href="#m38669aaf1b" y="52.471552"/>
     <use style="fill:#98df8a;stroke:#ffffff;stroke-linejoin:miter;stroke-width:0.75;" x="598.40602" xlink:href="#m38669aaf1b" y="52.375693"/>
     <use style="fill:#98df8a;stroke:#ffffff;stroke-linejoin:miter;stroke-width:0.75;" x="605.240852" xlink:href="#m38669aaf1b" y="52.311788"/>
     <use style="fill:#98df8a;stroke:#ffffff;stroke-linejoin:miter;stroke-width:0.75;" x="612.075685" xlink:href="#m38669aaf1b" y="52.279835"/>
     <use style="fill:#98df8a;stroke:#ffffff;stroke-linejoin:miter;stroke-width:0.75;" x="618.910517" xlink:href="#m38669aaf1b" y="52.279835"/>
     <use style="fill:#98df8a;stroke:#ffffff;stroke-linejoin:miter;stroke-width:0.75;" x="625.74535" xlink:href="#m38669aaf1b" y="52.215929"/>
     <use style="fill:#98df8a;stroke:#ffffff;stroke-linejoin:miter;stroke-width:0.75;" x="632.580182" xlink:href="#m38669aaf1b" y="52.152023"/>
     <use style="fill:#98df8a;stroke:#ffffff;stroke-linejoin:miter;stroke-width:0.75;" x="639.415015" xlink:href="#m38669aaf1b" y="52.088117"/>
     <use style="fill:#98df8a;stroke:#ffffff;stroke-linejoin:miter;stroke-width:0.75;" x="646.249847" xlink:href="#m38669aaf1b" y="51.896399"/>
     <use style="fill:#98df8a;stroke:#ffffff;stroke-linejoin:miter;stroke-width:0.75;" x="653.08468" xlink:href="#m38669aaf1b" y="51.864446"/>
     <use style="fill:#98df8a;stroke:#ffffff;stroke-linejoin:miter;stroke-width:0.75;" x="659.919513" xlink:href="#m38669aaf1b" y="51.864446"/>
     <use style="fill:#98df8a;stroke:#ffffff;stroke-linejoin:miter;stroke-width:0.75;" x="666.754345" xlink:href="#m38669aaf1b" y="51.80054"/>
     <use style="fill:#98df8a;stroke:#ffffff;stroke-linejoin:miter;stroke-width:0.75;" x="673.589178" xlink:href="#m38669aaf1b" y="51.640775"/>
     <use style="fill:#98df8a;stroke:#ffffff;stroke-linejoin:miter;stroke-width:0.75;" x="680.42401" xlink:href="#m38669aaf1b" y="51.608822"/>
     <use style="fill:#98df8a;stroke:#ffffff;stroke-linejoin:miter;stroke-width:0.75;" x="687.258843" xlink:href="#m38669aaf1b" y="51.544916"/>
     <use style="fill:#98df8a;stroke:#ffffff;stroke-linejoin:miter;stroke-width:0.75;" x="694.093675" xlink:href="#m38669aaf1b" y="51.512963"/>
     <use style="fill:#98df8a;stroke:#ffffff;stroke-linejoin:miter;stroke-width:0.75;" x="700.928508" xlink:href="#m38669aaf1b" y="51.417104"/>
     <use style="fill:#98df8a;stroke:#ffffff;stroke-linejoin:miter;stroke-width:0.75;" x="707.76334" xlink:href="#m38669aaf1b" y="51.385151"/>
     <use style="fill:#98df8a;stroke:#ffffff;stroke-linejoin:miter;stroke-width:0.75;" x="714.598173" xlink:href="#m38669aaf1b" y="51.257339"/>
     <use style="fill:#98df8a;stroke:#ffffff;stroke-linejoin:miter;stroke-width:0.75;" x="721.433005" xlink:href="#m38669aaf1b" y="51.257339"/>
     <use style="fill:#98df8a;stroke:#ffffff;stroke-linejoin:miter;stroke-width:0.75;" x="728.267838" xlink:href="#m38669aaf1b" y="51.16148"/>
     <use style="fill:#98df8a;stroke:#ffffff;stroke-linejoin:miter;stroke-width:0.75;" x="735.10267" xlink:href="#m38669aaf1b" y="51.129527"/>
    </g>
   </g>
   <g id="line2d_22">
    <path clip-path="url(#p1dac2d3f7e)" d="M 85.79358 138.169443 
L 92.628412 138.169443 
L 99.463245 138.169443 
L 106.298077 138.169443 
L 113.13291 138.041631 
L 119.967742 138.041631 
L 126.802575 138.041631 
L 133.637407 138.041631 
L 140.47224 138.041631 
L 147.307072 138.041631 
L 154.141905 138.041631 
L 160.976737 138.041631 
L 167.81157 138.041631 
L 174.646403 137.977725 
L 181.481235 137.977725 
L 188.316068 137.977725 
L 195.1509 137.977725 
L 201.985733 137.977725 
L 208.820565 137.977725 
L 215.655398 137.977725 
L 222.49023 137.977725 
L 229.325063 137.977725 
L 236.159895 137.722101 
L 242.994728 137.722101 
L 249.82956 137.722101 
L 256.664393 137.722101 
L 263.499225 137.722101 
L 270.334058 137.722101 
L 277.168891 137.722101 
L 284.003723 137.722101 
L 290.838556 137.722101 
L 297.673388 137.722101 
L 304.508221 137.722101 
L 311.343053 137.722101 
L 318.177886 137.722101 
L 325.012718 137.722101 
L 331.847551 137.722101 
L 338.682383 137.722101 
L 345.517216 137.722101 
L 352.352048 137.722101 
L 359.186881 131.267599 
L 366.021714 130.436822 
L 372.856546 130.436822 
L 379.691379 130.436822 
L 386.526211 130.436822 
L 393.361044 130.404869 
L 400.195876 130.404869 
L 407.030709 130.404869 
L 413.865541 130.404869 
L 420.700374 130.404869 
L 427.535206 130.404869 
L 434.370039 130.404869 
L 441.204871 130.404869 
L 448.039704 130.245104 
L 454.874536 130.213151 
L 461.709369 130.213151 
L 468.544202 130.021433 
L 475.379034 130.021433 
L 482.213867 130.021433 
L 489.048699 129.98948 
L 495.883532 129.98948 
L 502.718364 129.98948 
L 509.553197 129.98948 
L 516.388029 129.98948 
L 523.222862 129.957527 
L 530.057694 129.957527 
L 536.892527 129.957527 
L 543.727359 129.957527 
L 550.562192 129.957527 
L 557.397025 129.637997 
L 564.231857 129.637997 
L 571.06669 129.637997 
L 577.901522 129.637997 
L 584.736355 129.637997 
L 591.571187 129.286515 
L 598.40602 129.286515 
L 605.240852 129.286515 
L 612.075685 129.286515 
L 618.910517 129.286515 
L 625.74535 127.241524 
L 632.580182 127.241524 
L 639.415015 127.241524 
L 646.249847 127.241524 
L 653.08468 127.145665 
L 659.919513 127.145665 
L 666.754345 127.113712 
L 673.589178 127.113712 
L 680.42401 126.858088 
L 687.258843 126.858088 
L 694.093675 126.858088 
L 700.928508 124.014273 
L 707.76334 123.247401 
L 714.598173 123.215448 
L 721.433005 123.215448 
L 728.267838 123.215448 
L 735.10267 123.087637 
" style="fill:none;stroke:#1f77b4;stroke-linecap:square;stroke-width:1.5;"/>
    <defs>
     <path d="M 0 3 
C 0.795609 3 1.55874 2.683901 2.12132 2.12132 
C 2.683901 1.55874 3 0.795609 3 0 
C 3 -0.795609 2.683901 -1.55874 2.12132 -2.12132 
C 1.55874 -2.683901 0.795609 -3 0 -3 
C -0.795609 -3 -1.55874 -2.683901 -2.12132 -2.12132 
C -2.683901 -1.55874 -3 -0.795609 -3 0 
C -3 0.795609 -2.683901 1.55874 -2.12132 2.12132 
C -1.55874 2.683901 -0.795609 3 0 3 
z
" id="m854fb82ad8" style="stroke:#ffffff;stroke-width:0.75;"/>
    </defs>
    <g clip-path="url(#p1dac2d3f7e)">
     <use style="fill:#1f77b4;stroke:#ffffff;stroke-width:0.75;" x="85.79358" xlink:href="#m854fb82ad8" y="138.169443"/>
     <use style="fill:#1f77b4;stroke:#ffffff;stroke-width:0.75;" x="92.628412" xlink:href="#m854fb82ad8" y="138.169443"/>
     <use style="fill:#1f77b4;stroke:#ffffff;stroke-width:0.75;" x="99.463245" xlink:href="#m854fb82ad8" y="138.169443"/>
     <use style="fill:#1f77b4;stroke:#ffffff;stroke-width:0.75;" x="106.298077" xlink:href="#m854fb82ad8" y="138.169443"/>
     <use style="fill:#1f77b4;stroke:#ffffff;stroke-width:0.75;" x="113.13291" xlink:href="#m854fb82ad8" y="138.041631"/>
     <use style="fill:#1f77b4;stroke:#ffffff;stroke-width:0.75;" x="119.967742" xlink:href="#m854fb82ad8" y="138.041631"/>
     <use style="fill:#1f77b4;stroke:#ffffff;stroke-width:0.75;" x="126.802575" xlink:href="#m854fb82ad8" y="138.041631"/>
     <use style="fill:#1f77b4;stroke:#ffffff;stroke-width:0.75;" x="133.637407" xlink:href="#m854fb82ad8" y="138.041631"/>
     <use style="fill:#1f77b4;stroke:#ffffff;stroke-width:0.75;" x="140.47224" xlink:href="#m854fb82ad8" y="138.041631"/>
     <use style="fill:#1f77b4;stroke:#ffffff;stroke-width:0.75;" x="147.307072" xlink:href="#m854fb82ad8" y="138.041631"/>
     <use style="fill:#1f77b4;stroke:#ffffff;stroke-width:0.75;" x="154.141905" xlink:href="#m854fb82ad8" y="138.041631"/>
     <use style="fill:#1f77b4;stroke:#ffffff;stroke-width:0.75;" x="160.976737" xlink:href="#m854fb82ad8" y="138.041631"/>
     <use style="fill:#1f77b4;stroke:#ffffff;stroke-width:0.75;" x="167.81157" xlink:href="#m854fb82ad8" y="138.041631"/>
     <use style="fill:#1f77b4;stroke:#ffffff;stroke-width:0.75;" x="174.646403" xlink:href="#m854fb82ad8" y="137.977725"/>
     <use style="fill:#1f77b4;stroke:#ffffff;stroke-width:0.75;" x="181.481235" xlink:href="#m854fb82ad8" y="137.977725"/>
     <use style="fill:#1f77b4;stroke:#ffffff;stroke-width:0.75;" x="188.316068" xlink:href="#m854fb82ad8" y="137.977725"/>
     <use style="fill:#1f77b4;stroke:#ffffff;stroke-width:0.75;" x="195.1509" xlink:href="#m854fb82ad8" y="137.977725"/>
     <use style="fill:#1f77b4;stroke:#ffffff;stroke-width:0.75;" x="201.985733" xlink:href="#m854fb82ad8" y="137.977725"/>
     <use style="fill:#1f77b4;stroke:#ffffff;stroke-width:0.75;" x="208.820565" xlink:href="#m854fb82ad8" y="137.977725"/>
     <use style="fill:#1f77b4;stroke:#ffffff;stroke-width:0.75;" x="215.655398" xlink:href="#m854fb82ad8" y="137.977725"/>
     <use style="fill:#1f77b4;stroke:#ffffff;stroke-width:0.75;" x="222.49023" xlink:href="#m854fb82ad8" y="137.977725"/>
     <use style="fill:#1f77b4;stroke:#ffffff;stroke-width:0.75;" x="229.325063" xlink:href="#m854fb82ad8" y="137.977725"/>
     <use style="fill:#1f77b4;stroke:#ffffff;stroke-width:0.75;" x="236.159895" xlink:href="#m854fb82ad8" y="137.722101"/>
     <use style="fill:#1f77b4;stroke:#ffffff;stroke-width:0.75;" x="242.994728" xlink:href="#m854fb82ad8" y="137.722101"/>
     <use style="fill:#1f77b4;stroke:#ffffff;stroke-width:0.75;" x="249.82956" xlink:href="#m854fb82ad8" y="137.722101"/>
     <use style="fill:#1f77b4;stroke:#ffffff;stroke-width:0.75;" x="256.664393" xlink:href="#m854fb82ad8" y="137.722101"/>
     <use style="fill:#1f77b4;stroke:#ffffff;stroke-width:0.75;" x="263.499225" xlink:href="#m854fb82ad8" y="137.722101"/>
     <use style="fill:#1f77b4;stroke:#ffffff;stroke-width:0.75;" x="270.334058" xlink:href="#m854fb82ad8" y="137.722101"/>
     <use style="fill:#1f77b4;stroke:#ffffff;stroke-width:0.75;" x="277.168891" xlink:href="#m854fb82ad8" y="137.722101"/>
     <use style="fill:#1f77b4;stroke:#ffffff;stroke-width:0.75;" x="284.003723" xlink:href="#m854fb82ad8" y="137.722101"/>
     <use style="fill:#1f77b4;stroke:#ffffff;stroke-width:0.75;" x="290.838556" xlink:href="#m854fb82ad8" y="137.722101"/>
     <use style="fill:#1f77b4;stroke:#ffffff;stroke-width:0.75;" x="297.673388" xlink:href="#m854fb82ad8" y="137.722101"/>
     <use style="fill:#1f77b4;stroke:#ffffff;stroke-width:0.75;" x="304.508221" xlink:href="#m854fb82ad8" y="137.722101"/>
     <use style="fill:#1f77b4;stroke:#ffffff;stroke-width:0.75;" x="311.343053" xlink:href="#m854fb82ad8" y="137.722101"/>
     <use style="fill:#1f77b4;stroke:#ffffff;stroke-width:0.75;" x="318.177886" xlink:href="#m854fb82ad8" y="137.722101"/>
     <use style="fill:#1f77b4;stroke:#ffffff;stroke-width:0.75;" x="325.012718" xlink:href="#m854fb82ad8" y="137.722101"/>
     <use style="fill:#1f77b4;stroke:#ffffff;stroke-width:0.75;" x="331.847551" xlink:href="#m854fb82ad8" y="137.722101"/>
     <use style="fill:#1f77b4;stroke:#ffffff;stroke-width:0.75;" x="338.682383" xlink:href="#m854fb82ad8" y="137.722101"/>
     <use style="fill:#1f77b4;stroke:#ffffff;stroke-width:0.75;" x="345.517216" xlink:href="#m854fb82ad8" y="137.722101"/>
     <use style="fill:#1f77b4;stroke:#ffffff;stroke-width:0.75;" x="352.352048" xlink:href="#m854fb82ad8" y="137.722101"/>
     <use style="fill:#1f77b4;stroke:#ffffff;stroke-width:0.75;" x="359.186881" xlink:href="#m854fb82ad8" y="131.267599"/>
     <use style="fill:#1f77b4;stroke:#ffffff;stroke-width:0.75;" x="366.021714" xlink:href="#m854fb82ad8" y="130.436822"/>
     <use style="fill:#1f77b4;stroke:#ffffff;stroke-width:0.75;" x="372.856546" xlink:href="#m854fb82ad8" y="130.436822"/>
     <use style="fill:#1f77b4;stroke:#ffffff;stroke-width:0.75;" x="379.691379" xlink:href="#m854fb82ad8" y="130.436822"/>
     <use style="fill:#1f77b4;stroke:#ffffff;stroke-width:0.75;" x="386.526211" xlink:href="#m854fb82ad8" y="130.436822"/>
     <use style="fill:#1f77b4;stroke:#ffffff;stroke-width:0.75;" x="393.361044" xlink:href="#m854fb82ad8" y="130.404869"/>
     <use style="fill:#1f77b4;stroke:#ffffff;stroke-width:0.75;" x="400.195876" xlink:href="#m854fb82ad8" y="130.404869"/>
     <use style="fill:#1f77b4;stroke:#ffffff;stroke-width:0.75;" x="407.030709" xlink:href="#m854fb82ad8" y="130.404869"/>
     <use style="fill:#1f77b4;stroke:#ffffff;stroke-width:0.75;" x="413.865541" xlink:href="#m854fb82ad8" y="130.404869"/>
     <use style="fill:#1f77b4;stroke:#ffffff;stroke-width:0.75;" x="420.700374" xlink:href="#m854fb82ad8" y="130.404869"/>
     <use style="fill:#1f77b4;stroke:#ffffff;stroke-width:0.75;" x="427.535206" xlink:href="#m854fb82ad8" y="130.404869"/>
     <use style="fill:#1f77b4;stroke:#ffffff;stroke-width:0.75;" x="434.370039" xlink:href="#m854fb82ad8" y="130.404869"/>
     <use style="fill:#1f77b4;stroke:#ffffff;stroke-width:0.75;" x="441.204871" xlink:href="#m854fb82ad8" y="130.404869"/>
     <use style="fill:#1f77b4;stroke:#ffffff;stroke-width:0.75;" x="448.039704" xlink:href="#m854fb82ad8" y="130.245104"/>
     <use style="fill:#1f77b4;stroke:#ffffff;stroke-width:0.75;" x="454.874536" xlink:href="#m854fb82ad8" y="130.213151"/>
     <use style="fill:#1f77b4;stroke:#ffffff;stroke-width:0.75;" x="461.709369" xlink:href="#m854fb82ad8" y="130.213151"/>
     <use style="fill:#1f77b4;stroke:#ffffff;stroke-width:0.75;" x="468.544202" xlink:href="#m854fb82ad8" y="130.021433"/>
     <use style="fill:#1f77b4;stroke:#ffffff;stroke-width:0.75;" x="475.379034" xlink:href="#m854fb82ad8" y="130.021433"/>
     <use style="fill:#1f77b4;stroke:#ffffff;stroke-width:0.75;" x="482.213867" xlink:href="#m854fb82ad8" y="130.021433"/>
     <use style="fill:#1f77b4;stroke:#ffffff;stroke-width:0.75;" x="489.048699" xlink:href="#m854fb82ad8" y="129.98948"/>
     <use style="fill:#1f77b4;stroke:#ffffff;stroke-width:0.75;" x="495.883532" xlink:href="#m854fb82ad8" y="129.98948"/>
     <use style="fill:#1f77b4;stroke:#ffffff;stroke-width:0.75;" x="502.718364" xlink:href="#m854fb82ad8" y="129.98948"/>
     <use style="fill:#1f77b4;stroke:#ffffff;stroke-width:0.75;" x="509.553197" xlink:href="#m854fb82ad8" y="129.98948"/>
     <use style="fill:#1f77b4;stroke:#ffffff;stroke-width:0.75;" x="516.388029" xlink:href="#m854fb82ad8" y="129.98948"/>
     <use style="fill:#1f77b4;stroke:#ffffff;stroke-width:0.75;" x="523.222862" xlink:href="#m854fb82ad8" y="129.957527"/>
     <use style="fill:#1f77b4;stroke:#ffffff;stroke-width:0.75;" x="530.057694" xlink:href="#m854fb82ad8" y="129.957527"/>
     <use style="fill:#1f77b4;stroke:#ffffff;stroke-width:0.75;" x="536.892527" xlink:href="#m854fb82ad8" y="129.957527"/>
     <use style="fill:#1f77b4;stroke:#ffffff;stroke-width:0.75;" x="543.727359" xlink:href="#m854fb82ad8" y="129.957527"/>
     <use style="fill:#1f77b4;stroke:#ffffff;stroke-width:0.75;" x="550.562192" xlink:href="#m854fb82ad8" y="129.957527"/>
     <use style="fill:#1f77b4;stroke:#ffffff;stroke-width:0.75;" x="557.397025" xlink:href="#m854fb82ad8" y="129.637997"/>
     <use style="fill:#1f77b4;stroke:#ffffff;stroke-width:0.75;" x="564.231857" xlink:href="#m854fb82ad8" y="129.637997"/>
     <use style="fill:#1f77b4;stroke:#ffffff;stroke-width:0.75;" x="571.06669" xlink:href="#m854fb82ad8" y="129.637997"/>
     <use style="fill:#1f77b4;stroke:#ffffff;stroke-width:0.75;" x="577.901522" xlink:href="#m854fb82ad8" y="129.637997"/>
     <use style="fill:#1f77b4;stroke:#ffffff;stroke-width:0.75;" x="584.736355" xlink:href="#m854fb82ad8" y="129.637997"/>
     <use style="fill:#1f77b4;stroke:#ffffff;stroke-width:0.75;" x="591.571187" xlink:href="#m854fb82ad8" y="129.286515"/>
     <use style="fill:#1f77b4;stroke:#ffffff;stroke-width:0.75;" x="598.40602" xlink:href="#m854fb82ad8" y="129.286515"/>
     <use style="fill:#1f77b4;stroke:#ffffff;stroke-width:0.75;" x="605.240852" xlink:href="#m854fb82ad8" y="129.286515"/>
     <use style="fill:#1f77b4;stroke:#ffffff;stroke-width:0.75;" x="612.075685" xlink:href="#m854fb82ad8" y="129.286515"/>
     <use style="fill:#1f77b4;stroke:#ffffff;stroke-width:0.75;" x="618.910517" xlink:href="#m854fb82ad8" y="129.286515"/>
     <use style="fill:#1f77b4;stroke:#ffffff;stroke-width:0.75;" x="625.74535" xlink:href="#m854fb82ad8" y="127.241524"/>
     <use style="fill:#1f77b4;stroke:#ffffff;stroke-width:0.75;" x="632.580182" xlink:href="#m854fb82ad8" y="127.241524"/>
     <use style="fill:#1f77b4;stroke:#ffffff;stroke-width:0.75;" x="639.415015" xlink:href="#m854fb82ad8" y="127.241524"/>
     <use style="fill:#1f77b4;stroke:#ffffff;stroke-width:0.75;" x="646.249847" xlink:href="#m854fb82ad8" y="127.241524"/>
     <use style="fill:#1f77b4;stroke:#ffffff;stroke-width:0.75;" x="653.08468" xlink:href="#m854fb82ad8" y="127.145665"/>
     <use style="fill:#1f77b4;stroke:#ffffff;stroke-width:0.75;" x="659.919513" xlink:href="#m854fb82ad8" y="127.145665"/>
     <use style="fill:#1f77b4;stroke:#ffffff;stroke-width:0.75;" x="666.754345" xlink:href="#m854fb82ad8" y="127.113712"/>
     <use style="fill:#1f77b4;stroke:#ffffff;stroke-width:0.75;" x="673.589178" xlink:href="#m854fb82ad8" y="127.113712"/>
     <use style="fill:#1f77b4;stroke:#ffffff;stroke-width:0.75;" x="680.42401" xlink:href="#m854fb82ad8" y="126.858088"/>
     <use style="fill:#1f77b4;stroke:#ffffff;stroke-width:0.75;" x="687.258843" xlink:href="#m854fb82ad8" y="126.858088"/>
     <use style="fill:#1f77b4;stroke:#ffffff;stroke-width:0.75;" x="694.093675" xlink:href="#m854fb82ad8" y="126.858088"/>
     <use style="fill:#1f77b4;stroke:#ffffff;stroke-width:0.75;" x="700.928508" xlink:href="#m854fb82ad8" y="124.014273"/>
     <use style="fill:#1f77b4;stroke:#ffffff;stroke-width:0.75;" x="707.76334" xlink:href="#m854fb82ad8" y="123.247401"/>
     <use style="fill:#1f77b4;stroke:#ffffff;stroke-width:0.75;" x="714.598173" xlink:href="#m854fb82ad8" y="123.215448"/>
     <use style="fill:#1f77b4;stroke:#ffffff;stroke-width:0.75;" x="721.433005" xlink:href="#m854fb82ad8" y="123.215448"/>
     <use style="fill:#1f77b4;stroke:#ffffff;stroke-width:0.75;" x="728.267838" xlink:href="#m854fb82ad8" y="123.215448"/>
     <use style="fill:#1f77b4;stroke:#ffffff;stroke-width:0.75;" x="735.10267" xlink:href="#m854fb82ad8" y="123.087637"/>
    </g>
   </g>
   <g id="line2d_23"/>
   <g id="line2d_24"/>
   <g id="line2d_25">
    <path clip-path="url(#p1dac2d3f7e)" d="M 735.10267 288.430125 
L 735.10267 22.318125 
" style="fill:none;stroke:#ff0000;stroke-linecap:square;stroke-width:1.5;"/>
   </g>
   <g id="patch_3">
    <path d="M 53.328125 271.956567 
L 53.328125 48.285712 
" style="fill:none;stroke:#000000;stroke-linecap:square;stroke-linejoin:miter;stroke-width:0.8;"/>
   </g>
   <g id="patch_4">
    <path d="M 85.79358 288.430125 
L 687.258843 288.430125 
" style="fill:none;stroke:#000000;stroke-linecap:square;stroke-linejoin:miter;stroke-width:0.8;"/>
   </g>
   <g id="text_23">
    <!-- bloaty_fuzz_target (24h, 10 trials/fuzzer) -->
    <g transform="translate(288.534688 16.318125)scale(0.12 -0.12)">
     <defs>
      <path d="M 603 4863 
L 1178 4863 
L 1178 0 
L 603 0 
L 603 4863 
z
" id="DejaVuSans-6c" transform="scale(0.015625)"/>
      <path d="M 2059 -325 
Q 1816 -950 1584 -1140 
Q 1353 -1331 966 -1331 
L 506 -1331 
L 506 -850 
L 844 -850 
Q 1081 -850 1212 -737 
Q 1344 -625 1503 -206 
L 1606 56 
L 191 3500 
L 800 3500 
L 1894 763 
L 2988 3500 
L 3597 3500 
L 2059 -325 
z
" id="DejaVuSans-79" transform="scale(0.015625)"/>
      <path d="M 3263 -1063 
L 3263 -1509 
L -63 -1509 
L -63 -1063 
L 3263 -1063 
z
" id="DejaVuSans-5f" transform="scale(0.015625)"/>
      <path d="M 2375 4863 
L 2375 4384 
L 1825 4384 
Q 1516 4384 1395 4259 
Q 1275 4134 1275 3809 
L 1275 3500 
L 2222 3500 
L 2222 3053 
L 1275 3053 
L 1275 0 
L 697 0 
L 697 3053 
L 147 3053 
L 147 3500 
L 697 3500 
L 697 3744 
Q 697 4328 969 4595 
Q 1241 4863 1831 4863 
L 2375 4863 
z
" id="DejaVuSans-66" transform="scale(0.015625)"/>
      <path d="M 353 3500 
L 3084 3500 
L 3084 2975 
L 922 459 
L 3084 459 
L 3084 0 
L 275 0 
L 275 525 
L 2438 3041 
L 353 3041 
L 353 3500 
z
" id="DejaVuSans-7a" transform="scale(0.015625)"/>
      <path d="M 750 794 
L 1409 794 
L 1409 256 
L 897 -744 
L 494 -744 
L 750 256 
L 750 794 
z
" id="DejaVuSans-2c" transform="scale(0.015625)"/>
      <path d="M 2834 3397 
L 2834 2853 
Q 2591 2978 2328 3040 
Q 2066 3103 1784 3103 
Q 1356 3103 1142 2972 
Q 928 2841 928 2578 
Q 928 2378 1081 2264 
Q 1234 2150 1697 2047 
L 1894 2003 
Q 2506 1872 2764 1633 
Q 3022 1394 3022 966 
Q 3022 478 2636 193 
Q 2250 -91 1575 -91 
Q 1294 -91 989 -36 
Q 684 19 347 128 
L 347 722 
Q 666 556 975 473 
Q 1284 391 1588 391 
Q 1994 391 2212 530 
Q 2431 669 2431 922 
Q 2431 1156 2273 1281 
Q 2116 1406 1581 1522 
L 1381 1569 
Q 847 1681 609 1914 
Q 372 2147 372 2553 
Q 372 3047 722 3315 
Q 1072 3584 1716 3584 
Q 2034 3584 2315 3537 
Q 2597 3491 2834 3397 
z
" id="DejaVuSans-73" transform="scale(0.015625)"/>
      <path d="M 1625 4666 
L 2156 4666 
L 531 -594 
L 0 -594 
L 1625 4666 
z
" id="DejaVuSans-2f" transform="scale(0.015625)"/>
     </defs>
     <use xlink:href="#DejaVuSans-62"/>
     <use x="63.476562" xlink:href="#DejaVuSans-6c"/>
     <use x="91.259766" xlink:href="#DejaVuSans-6f"/>
     <use x="152.441406" xlink:href="#DejaVuSans-61"/>
     <use x="213.720703" xlink:href="#DejaVuSans-74"/>
     <use x="252.929688" xlink:href="#DejaVuSans-79"/>
     <use x="312.109375" xlink:href="#DejaVuSans-5f"/>
     <use x="362.109375" xlink:href="#DejaVuSans-66"/>
     <use x="397.314453" xlink:href="#DejaVuSans-75"/>
     <use x="460.693359" xlink:href="#DejaVuSans-7a"/>
     <use x="513.183594" xlink:href="#DejaVuSans-7a"/>
     <use x="565.673828" xlink:href="#DejaVuSans-5f"/>
     <use x="615.673828" xlink:href="#DejaVuSans-74"/>
     <use x="654.882812" xlink:href="#DejaVuSans-61"/>
     <use x="716.162109" xlink:href="#DejaVuSans-72"/>
     <use x="755.525391" xlink:href="#DejaVuSans-67"/>
     <use x="819.001953" xlink:href="#DejaVuSans-65"/>
     <use x="880.525391" xlink:href="#DejaVuSans-74"/>
     <use x="919.734375" xlink:href="#DejaVuSans-20"/>
     <use x="951.521484" xlink:href="#DejaVuSans-28"/>
     <use x="990.535156" xlink:href="#DejaVuSans-32"/>
     <use x="1054.158203" xlink:href="#DejaVuSans-34"/>
     <use x="1117.78125" xlink:href="#DejaVuSans-68"/>
     <use x="1181.160156" xlink:href="#DejaVuSans-2c"/>
     <use x="1212.947266" xlink:href="#DejaVuSans-20"/>
     <use x="1244.734375" xlink:href="#DejaVuSans-31"/>
     <use x="1308.357422" xlink:href="#DejaVuSans-30"/>
     <use x="1371.980469" xlink:href="#DejaVuSans-20"/>
     <use x="1403.767578" xlink:href="#DejaVuSans-74"/>
     <use x="1442.976562" xlink:href="#DejaVuSans-72"/>
     <use x="1484.089844" xlink:href="#DejaVuSans-69"/>
     <use x="1511.873047" xlink:href="#DejaVuSans-61"/>
     <use x="1573.152344" xlink:href="#DejaVuSans-6c"/>
     <use x="1600.935547" xlink:href="#DejaVuSans-73"/>
     <use x="1653.035156" xlink:href="#DejaVuSans-2f"/>
     <use x="1686.726562" xlink:href="#DejaVuSans-66"/>
     <use x="1721.931641" xlink:href="#DejaVuSans-75"/>
     <use x="1785.310547" xlink:href="#DejaVuSans-7a"/>
     <use x="1837.800781" xlink:href="#DejaVuSans-7a"/>
     <use x="1890.291016" xlink:href="#DejaVuSans-65"/>
     <use x="1951.814453" xlink:href="#DejaVuSans-72"/>
     <use x="1992.927734" xlink:href="#DejaVuSans-29"/>
    </g>
   </g>
   <g id="legend_1">
    <g id="line2d_26">
     <path d="M 771.568125 30.416562 
L 791.568125 30.416562 
" style="fill:none;stroke:#98df8a;stroke-linecap:square;stroke-width:1.5;"/>
    </g>
    <g id="line2d_27">
     <defs>
      <path d="M -0 3 
L 3 -3 
L -3 -3 
z
" id="m9431513dec" style="stroke:#98df8a;stroke-linejoin:miter;"/>
     </defs>
     <g>
      <use style="fill:#98df8a;stroke:#98df8a;stroke-linejoin:miter;" x="781.568125" xlink:href="#m9431513dec" y="30.416562"/>
     </g>
    </g>
    <g id="text_24">
     <!-- libfuzzer -->
     <g transform="translate(799.568125 33.916562)scale(0.1 -0.1)">
      <use xlink:href="#DejaVuSans-6c"/>
      <use x="27.783203" xlink:href="#DejaVuSans-69"/>
      <use x="55.566406" xlink:href="#DejaVuSans-62"/>
      <use x="119.042969" xlink:href="#DejaVuSans-66"/>
      <use x="154.248047" xlink:href="#DejaVuSans-75"/>
      <use x="217.626953" xlink:href="#DejaVuSans-7a"/>
      <use x="270.117188" xlink:href="#DejaVuSans-7a"/>
      <use x="322.607422" xlink:href="#DejaVuSans-65"/>
      <use x="384.130859" xlink:href="#DejaVuSans-72"/>
     </g>
    </g>
    <g id="line2d_28">
     <path d="M 771.568125 45.094688 
L 791.568125 45.094688 
" style="fill:none;stroke:#1f77b4;stroke-linecap:square;stroke-width:1.5;"/>
    </g>
    <g id="line2d_29">
     <defs>
      <path d="M 0 3 
C 0.795609 3 1.55874 2.683901 2.12132 2.12132 
C 2.683901 1.55874 3 0.795609 3 0 
C 3 -0.795609 2.683901 -1.55874 2.12132 -2.12132 
C 1.55874 -2.683901 0.795609 -3 0 -3 
C -0.795609 -3 -1.55874 -2.683901 -2.12132 -2.12132 
C -2.683901 -1.55874 -3 -0.795609 -3 0 
C -3 0.795609 -2.683901 1.55874 -2.12132 2.12132 
C -1.55874 2.683901 -0.795609 3 0 3 
z
" id="m4a13ad7370" style="stroke:#1f77b4;"/>
     </defs>
     <g>
      <use style="fill:#1f77b4;stroke:#1f77b4;" x="781.568125" xlink:href="#m4a13ad7370" y="45.094688"/>
     </g>
    </g>
    <g id="text_25">
     <!-- aflplusplus -->
     <g transform="translate(799.568125 48.594688)scale(0.1 -0.1)">
      <defs>
       <path d="M 1159 525 
L 1159 -1331 
L 581 -1331 
L 581 3500 
L 1159 3500 
L 1159 2969 
Q 1341 3281 1617 3432 
Q 1894 3584 2278 3584 
Q 2916 3584 3314 3078 
Q 3713 2572 3713 1747 
Q 3713 922 3314 415 
Q 2916 -91 2278 -91 
Q 1894 -91 1617 61 
Q 1341 213 1159 525 
z
M 3116 1747 
Q 3116 2381 2855 2742 
Q 2594 3103 2138 3103 
Q 1681 3103 1420 2742 
Q 1159 2381 1159 1747 
Q 1159 1113 1420 752 
Q 1681 391 2138 391 
Q 2594 391 2855 752 
Q 3116 1113 3116 1747 
z
" id="DejaVuSans-70" transform="scale(0.015625)"/>
      </defs>
      <use xlink:href="#DejaVuSans-61"/>
      <use x="61.279297" xlink:href="#DejaVuSans-66"/>
      <use x="96.484375" xlink:href="#DejaVuSans-6c"/>
      <use x="124.267578" xlink:href="#DejaVuSans-70"/>
      <use x="187.744141" xlink:href="#DejaVuSans-6c"/>
      <use x="215.527344" xlink:href="#DejaVuSans-75"/>
      <use x="278.90625" xlink:href="#DejaVuSans-73"/>
      <use x="331.005859" xlink:href="#DejaVuSans-70"/>
      <use x="394.482422" xlink:href="#DejaVuSans-6c"/>
      <use x="422.265625" xlink:href="#DejaVuSans-75"/>
      <use x="485.644531" xlink:href="#DejaVuSans-73"/>
     </g>
    </g>
   </g>
  </g>
 </g>
 <defs>
  <clipPath id="p1dac2d3f7e">
   <rect height="266.112" width="714.24" x="53.328125" y="22.318125"/>
  </clipPath>
 </defs>
</svg>
