<?xml version="1.0" encoding="utf-8" standalone="no"?>
<!DOCTYPE svg PUBLIC "-//W3C//DTD SVG 1.1//EN"
  "http://www.w3.org/Graphics/SVG/1.1/DTD/svg11.dtd">
<svg height="325.986375pt" version="1.1" viewBox="0 0 864.541562 325.986375" width="864.541562pt" xmlns="http://www.w3.org/2000/svg" xmlns:xlink="http://www.w3.org/1999/xlink">
 <metadata>
  <rdf:RDF xmlns:cc="http://creativecommons.org/ns#" xmlns:dc="http://purl.org/dc/elements/1.1/" xmlns:rdf="http://www.w3.org/1999/02/22-rdf-syntax-ns#">
   <cc:Work>
    <dc:type rdf:resource="http://purl.org/dc/dcmitype/StillImage"/>
    <dc:date>2022-06-14T18:08:26.013373</dc:date>
    <dc:format>image/svg+xml</dc:format>
    <dc:creator>
     <cc:Agent>
      <dc:title>Matplotlib v3.4.1, https://matplotlib.org/</dc:title>
     </cc:Agent>
    </dc:creator>
   </cc:Work>
  </rdf:RDF>
 </metadata>
 <defs>
  <style type="text/css">*{stroke-linecap:butt;stroke-linejoin:round;}</style>
 </defs>
 <g id="figure_1">
  <g id="patch_1">
   <path d="M 0 325.986375 
L 864.541562 325.986375 
L 864.541562 0 
L 0 0 
z
" style="fill:#ffffff;"/>
  </g>
  <g id="axes_1">
   <g id="patch_2">
    <path d="M 53.328125 288.430125 
L 767.568125 288.430125 
L 767.568125 22.318125 
L 53.328125 22.318125 
z
" style="fill:#ffffff;"/>
   </g>
   <g id="PolyCollection_1">
    <defs>
     <path d="M 85.79358 -253.810626 
L 85.79358 -53.643316 
L 92.628412 -56.866869 
L 99.463245 -65.309509 
L 106.298077 -67.151539 
L 113.13291 -67.458544 
L 119.967742 -67.458544 
L 126.802575 -67.765549 
L 133.637407 -67.765549 
L 140.47224 -68.072555 
L 147.307072 -68.072555 
L 154.141905 -68.37956 
L 160.976737 -68.37956 
L 167.81157 -68.37956 
L 174.646403 -68.241407 
L 181.481235 -68.37956 
L 188.316068 -68.37956 
L 195.1509 -68.686565 
L 201.985733 -63.006971 
L 208.820565 -68.99357 
L 215.655398 -68.99357 
L 222.49023 -69.300575 
L 229.325063 -63.313976 
L 236.159895 -69.300575 
L 242.994728 -69.300575 
L 249.82956 -63.313976 
L 256.664393 -63.313976 
L 263.499225 -69.15091 
L 270.334058 -63.467478 
L 277.168891 -69.60758 
L 284.003723 -69.60758 
L 290.838556 -63.467478 
L 297.673388 -69.60758 
L 304.508221 -63.467478 
L 311.343053 -69.60758 
L 318.177886 -69.60758 
L 325.012718 -69.60758 
L 331.847551 -69.60758 
L 338.682383 -69.60758 
L 345.517216 -69.60758 
L 352.352048 -69.60758 
L 359.186881 -69.60758 
L 366.021714 -69.60758 
L 372.856546 -69.60758 
L 379.691379 -69.60758 
L 386.526211 -69.60758 
L 393.361044 -69.60758 
L 400.195876 -69.60758 
L 407.030709 -69.60758 
L 413.865541 -69.60758 
L 420.700374 -69.60758 
L 427.535206 -69.459834 
L 434.370039 -69.60758 
L 441.204871 -69.60758 
L 448.039704 -69.60758 
L 454.874536 -69.60758 
L 461.709369 -63.697732 
L 468.544202 -69.60758 
L 475.379034 -63.697732 
L 482.213867 -69.60758 
L 489.048699 -69.60758 
L 495.883532 -69.60758 
L 502.718364 -69.459834 
L 509.553197 -69.60758 
L 516.388029 -69.60758 
L 523.222862 -69.60758 
L 530.057694 -63.697732 
L 536.892527 -63.697732 
L 543.727359 -63.697732 
L 550.562192 -69.60758 
L 557.397025 -69.60758 
L 564.231857 -69.60758 
L 571.06669 -69.60758 
L 577.901522 -69.60758 
L 584.736355 -69.60758 
L 591.571187 -69.60758 
L 598.40602 -69.60758 
L 605.240852 -69.60758 
L 612.075685 -69.60758 
L 618.910517 -69.60758 
L 625.74535 -69.60758 
L 632.580182 -69.60758 
L 639.415015 -69.60758 
L 646.249847 -69.60758 
L 653.08468 -69.60758 
L 659.919513 -69.60758 
L 666.754345 -69.60758 
L 673.589178 -63.697732 
L 680.42401 -69.60758 
L 687.258843 -69.60758 
L 694.093675 -69.60758 
L 700.928508 -69.60758 
L 707.76334 -69.60758 
L 714.598173 -63.697732 
L 721.433005 -69.60758 
L 728.267838 -69.60758 
L 735.10267 -69.60758 
L 735.10267 -291.57225 
L 735.10267 -291.57225 
L 728.267838 -291.57225 
L 721.433005 -291.57225 
L 714.598173 -291.57225 
L 707.76334 -291.57225 
L 700.928508 -291.57225 
L 694.093675 -291.57225 
L 687.258843 -291.57225 
L 680.42401 -291.57225 
L 673.589178 -291.57225 
L 666.754345 -291.265245 
L 659.919513 -291.265245 
L 653.08468 -291.265245 
L 646.249847 -291.265245 
L 639.415015 -291.265245 
L 632.580182 -291.265245 
L 625.74535 -291.265245 
L 618.910517 -291.418747 
L 612.075685 -291.265245 
L 605.240852 -291.265245 
L 598.40602 -291.418747 
L 591.571187 -291.265245 
L 584.736355 -291.265245 
L 577.901522 -291.269082 
L 571.06669 -291.265245 
L 564.231857 -291.418747 
L 557.397025 -290.95824 
L 550.562192 -290.95824 
L 543.727359 -290.95824 
L 536.892527 -290.965915 
L 530.057694 -290.965915 
L 523.222862 -290.95824 
L 516.388029 -290.95824 
L 509.553197 -290.95824 
L 502.718364 -290.95824 
L 495.883532 -290.95824 
L 489.048699 -290.95824 
L 482.213867 -290.95824 
L 475.379034 -291.265245 
L 468.544202 -290.95824 
L 461.709369 -290.95824 
L 454.874536 -290.95824 
L 448.039704 -290.95824 
L 441.204871 -290.95824 
L 434.370039 -290.95824 
L 427.535206 -290.95824 
L 420.700374 -290.95824 
L 413.865541 -290.95824 
L 407.030709 -290.95824 
L 400.195876 -290.95824 
L 393.361044 -290.95824 
L 386.526211 -290.651235 
L 379.691379 -290.651235 
L 372.856546 -289.423214 
L 366.021714 -289.423214 
L 359.186881 -289.116209 
L 352.352048 -289.116209 
L 345.517216 -289.116209 
L 338.682383 -289.116209 
L 331.847551 -289.116209 
L 325.012718 -289.116209 
L 318.177886 -289.116209 
L 311.343053 -289.116209 
L 304.508221 -288.809204 
L 297.673388 -288.809204 
L 290.838556 -288.809204 
L 284.003723 -288.809204 
L 277.168891 -288.502199 
L 270.334058 -286.890423 
L 263.499225 -284.971641 
L 256.664393 -285.015773 
L 249.82956 -286.813671 
L 242.994728 -286.813671 
L 236.159895 -286.664006 
L 229.325063 -286.199661 
L 222.49023 -285.585651 
L 215.655398 -285.585651 
L 208.820565 -285.585651 
L 201.985733 -285.585651 
L 195.1509 -285.585651 
L 188.316068 -285.355397 
L 181.481235 -284.587885 
L 174.646403 -284.587885 
L 167.81157 -283.12961 
L 160.976737 -283.666869 
L 154.141905 -283.513367 
L 147.307072 -283.513367 
L 140.47224 -283.12961 
L 133.637407 -283.12961 
L 126.802575 -283.12961 
L 119.967742 -282.976108 
L 113.13291 -283.283113 
L 106.298077 -282.976108 
L 99.463245 -282.5156 
L 92.628412 -280.67357 
L 85.79358 -253.810626 
z
" id="m1eaafa6c94" style="stroke:#1f77b4;stroke-opacity:0.2;"/>
    </defs>
    <g clip-path="url(#p4a3f9652cb)">
     <use style="fill:#1f77b4;fill-opacity:0.2;stroke:#1f77b4;stroke-opacity:0.2;" x="0" xlink:href="#m1eaafa6c94" y="325.986375"/>
    </g>
   </g>
   <g id="PolyCollection_2">
    <defs>
     <path d="M 85.79358 -212.595194 
L 85.79358 -49.65225 
L 92.628412 -51.647783 
L 99.463245 -52.415296 
L 106.298077 -52.716544 
L 113.13291 -52.722301 
L 119.967742 -52.720382 
L 126.802575 -52.875803 
L 133.637407 -53.029306 
L 140.47224 -53.182808 
L 147.307072 -53.336311 
L 154.141905 -53.336311 
L 160.976737 -53.489813 
L 167.81157 -53.489813 
L 174.646403 -53.643316 
L 181.481235 -53.643316 
L 188.316068 -57.173874 
L 195.1509 -58.555397 
L 201.985733 -58.7089 
L 208.820565 -84.032981 
L 215.655398 -98.159052 
L 222.49023 -84.032981 
L 229.325063 -98.105326 
L 236.159895 -84.190321 
L 242.994728 -84.190321 
L 249.82956 -76.131438 
L 256.664393 -98.258829 
L 263.499225 -98.61956 
L 270.334058 -98.61956 
L 277.168891 -76.131438 
L 284.003723 -84.190321 
L 290.838556 -98.61956 
L 297.673388 -99.080067 
L 304.508221 -99.080067 
L 311.343053 -99.23357 
L 318.177886 -84.190321 
L 325.012718 -84.190321 
L 331.847551 -83.729813 
L 338.682383 -109.825245 
L 345.517216 -111.653844 
L 352.352048 -111.667275 
L 359.186881 -114.737326 
L 366.021714 -114.737326 
L 372.856546 -115.58159 
L 379.691379 -116.118849 
L 386.526211 -116.118849 
L 393.361044 -116.118849 
L 400.195876 -116.425854 
L 407.030709 -116.425854 
L 413.865541 -116.425854 
L 420.700374 -116.425854 
L 427.535206 -116.425854 
L 434.370039 -115.58159 
L 441.204871 -116.425854 
L 448.039704 -117.960879 
L 454.874536 -117.193367 
L 461.709369 -118.114382 
L 468.544202 -118.114382 
L 475.379034 -118.097113 
L 482.213867 -117.423621 
L 489.048699 -118.114382 
L 495.883532 -118.114382 
L 502.718364 -147.04961 
L 509.553197 -158.792555 
L 516.388029 -158.792555 
L 523.222862 -158.792555 
L 530.057694 -158.792555 
L 536.892527 -158.792555 
L 543.727359 -158.792555 
L 550.562192 -158.792555 
L 557.397025 -158.792555 
L 564.231857 -158.792555 
L 571.06669 -140.525753 
L 577.901522 -160.481082 
L 584.736355 -160.481082 
L 591.571187 -160.481082 
L 598.40602 -160.481082 
L 605.240852 -160.481082 
L 612.075685 -160.481082 
L 618.910517 -160.481082 
L 625.74535 -160.481082 
L 632.580182 -160.481082 
L 639.415015 -160.481082 
L 646.249847 -160.481082 
L 653.08468 -160.481082 
L 659.919513 -160.481082 
L 666.754345 -141.370016 
L 673.589178 -160.481082 
L 680.42401 -160.481082 
L 687.258843 -160.481082 
L 694.093675 -160.634585 
L 700.928508 -161.5556 
L 707.76334 -141.907275 
L 714.598173 -161.5556 
L 721.433005 -161.709103 
L 728.267838 -161.709103 
L 735.10267 -161.709103 
L 735.10267 -262.790524 
L 735.10267 -262.790524 
L 728.267838 -262.790524 
L 721.433005 -262.176514 
L 714.598173 -261.562504 
L 707.76334 -261.409001 
L 700.928508 -260.10423 
L 694.093675 -260.10423 
L 687.258843 -260.10423 
L 680.42401 -260.10423 
L 673.589178 -264.325549 
L 666.754345 -260.10423 
L 659.919513 -260.10423 
L 653.08468 -260.10423 
L 646.249847 -260.10423 
L 639.415015 -260.10423 
L 632.580182 -259.797225 
L 625.74535 -264.172047 
L 618.910517 -264.172047 
L 612.075685 -259.797225 
L 605.240852 -259.797225 
L 598.40602 -264.172047 
L 591.571187 -259.797225 
L 584.736355 -259.797225 
L 577.901522 -259.797225 
L 571.06669 -259.49022 
L 564.231857 -259.49022 
L 557.397025 -259.49022 
L 550.562192 -259.49022 
L 543.727359 -259.49022 
L 536.892527 -259.49022 
L 530.057694 -259.49022 
L 523.222862 -259.49022 
L 516.388029 -259.30026 
L 509.553197 -263.865042 
L 502.718364 -259.183214 
L 495.883532 -259.148676 
L 489.048699 -259.148676 
L 482.213867 -256.880676 
L 475.379034 -255.345651 
L 468.544202 -260.71824 
L 461.709369 -254.731641 
L 454.874536 -256.880676 
L 448.039704 -256.880676 
L 441.204871 -256.880676 
L 434.370039 -254.731641 
L 427.535206 -254.731641 
L 420.700374 -256.650423 
L 413.865541 -256.573671 
L 407.030709 -254.271133 
L 400.195876 -256.189915 
L 393.361044 -256.189915 
L 386.526211 -254.271133 
L 379.691379 -256.189915 
L 372.856546 -256.573671 
L 366.021714 -256.189915 
L 359.186881 -256.036412 
L 352.352048 -256.036412 
L 345.517216 -244.753976 
L 338.682383 -244.600473 
L 331.847551 -244.824971 
L 325.012718 -255.806159 
L 318.177886 -252.352352 
L 311.343053 -253.119864 
L 304.508221 -253.350118 
L 297.673388 -249.81956 
L 290.838556 -251.815093 
L 284.003723 -252.045346 
L 277.168891 -251.815093 
L 270.334058 -251.820849 
L 263.499225 -244.446971 
L 256.664393 -249.589306 
L 249.82956 -249.512555 
L 242.994728 -249.282301 
L 236.159895 -249.282301 
L 229.325063 -244.446971 
L 222.49023 -249.589306 
L 215.655398 -244.446971 
L 208.820565 -248.898544 
L 201.985733 -244.446971 
L 195.1509 -248.898544 
L 188.316068 -244.446971 
L 181.481235 -246.058747 
L 174.646403 -245.751742 
L 167.81157 -244.172585 
L 160.976737 -245.444737 
L 154.141905 -246.289001 
L 147.307072 -246.21225 
L 140.47224 -243.218951 
L 133.637407 -244.063214 
L 126.802575 -242.911945 
L 119.967742 -242.758443 
L 113.13291 -242.60494 
L 106.298077 -243.372453 
L 99.463245 -238.153367 
L 92.628412 -230.631742 
L 85.79358 -212.595194 
z
" id="m617386753b" style="stroke:#98df8a;stroke-opacity:0.2;"/>
    </defs>
    <g clip-path="url(#p4a3f9652cb)">
     <use style="fill:#98df8a;fill-opacity:0.2;stroke:#98df8a;stroke-opacity:0.2;" x="0" xlink:href="#m617386753b" y="325.986375"/>
    </g>
   </g>
   <g id="matplotlib.axis_1">
    <g id="xtick_1">
     <g id="line2d_1">
      <defs>
       <path d="M 0 0 
L 0 3.5 
" id="m65312156dd" style="stroke:#000000;stroke-width:0.8;"/>
      </defs>
      <g>
       <use style="stroke:#000000;stroke-width:0.8;" x="85.79358" xlink:href="#m65312156dd" y="288.430125"/>
      </g>
     </g>
     <g id="text_1">
      <!-- 15m -->
      <g transform="translate(74.560767 303.028562)scale(0.1 -0.1)">
       <defs>
        <path d="M 794 531 
L 1825 531 
L 1825 4091 
L 703 3866 
L 703 4441 
L 1819 4666 
L 2450 4666 
L 2450 531 
L 3481 531 
L 3481 0 
L 794 0 
L 794 531 
z
" id="DejaVuSans-31" transform="scale(0.015625)"/>
        <path d="M 691 4666 
L 3169 4666 
L 3169 4134 
L 1269 4134 
L 1269 2991 
Q 1406 3038 1543 3061 
Q 1681 3084 1819 3084 
Q 2600 3084 3056 2656 
Q 3513 2228 3513 1497 
Q 3513 744 3044 326 
Q 2575 -91 1722 -91 
Q 1428 -91 1123 -41 
Q 819 9 494 109 
L 494 744 
Q 775 591 1075 516 
Q 1375 441 1709 441 
Q 2250 441 2565 725 
Q 2881 1009 2881 1497 
Q 2881 1984 2565 2268 
Q 2250 2553 1709 2553 
Q 1456 2553 1204 2497 
Q 953 2441 691 2322 
L 691 4666 
z
" id="DejaVuSans-35" transform="scale(0.015625)"/>
        <path d="M 3328 2828 
Q 3544 3216 3844 3400 
Q 4144 3584 4550 3584 
Q 5097 3584 5394 3201 
Q 5691 2819 5691 2113 
L 5691 0 
L 5113 0 
L 5113 2094 
Q 5113 2597 4934 2840 
Q 4756 3084 4391 3084 
Q 3944 3084 3684 2787 
Q 3425 2491 3425 1978 
L 3425 0 
L 2847 0 
L 2847 2094 
Q 2847 2600 2669 2842 
Q 2491 3084 2119 3084 
Q 1678 3084 1418 2786 
Q 1159 2488 1159 1978 
L 1159 0 
L 581 0 
L 581 3500 
L 1159 3500 
L 1159 2956 
Q 1356 3278 1631 3431 
Q 1906 3584 2284 3584 
Q 2666 3584 2933 3390 
Q 3200 3197 3328 2828 
z
" id="DejaVuSans-6d" transform="scale(0.015625)"/>
       </defs>
       <use xlink:href="#DejaVuSans-31"/>
       <use x="63.623047" xlink:href="#DejaVuSans-35"/>
       <use x="127.246094" xlink:href="#DejaVuSans-6d"/>
      </g>
     </g>
    </g>
    <g id="xtick_2">
     <g id="line2d_2">
      <g>
       <use style="stroke:#000000;stroke-width:0.8;" x="140.47224" xlink:href="#m65312156dd" y="288.430125"/>
      </g>
     </g>
     <g id="text_2">
      <!-- 2h:15m -->
      <g transform="translate(121.205052 303.028562)scale(0.1 -0.1)">
       <defs>
        <path d="M 1228 531 
L 3431 531 
L 3431 0 
L 469 0 
L 469 531 
Q 828 903 1448 1529 
Q 2069 2156 2228 2338 
Q 2531 2678 2651 2914 
Q 2772 3150 2772 3378 
Q 2772 3750 2511 3984 
Q 2250 4219 1831 4219 
Q 1534 4219 1204 4116 
Q 875 4013 500 3803 
L 500 4441 
Q 881 4594 1212 4672 
Q 1544 4750 1819 4750 
Q 2544 4750 2975 4387 
Q 3406 4025 3406 3419 
Q 3406 3131 3298 2873 
Q 3191 2616 2906 2266 
Q 2828 2175 2409 1742 
Q 1991 1309 1228 531 
z
" id="DejaVuSans-32" transform="scale(0.015625)"/>
        <path d="M 3513 2113 
L 3513 0 
L 2938 0 
L 2938 2094 
Q 2938 2591 2744 2837 
Q 2550 3084 2163 3084 
Q 1697 3084 1428 2787 
Q 1159 2491 1159 1978 
L 1159 0 
L 581 0 
L 581 4863 
L 1159 4863 
L 1159 2956 
Q 1366 3272 1645 3428 
Q 1925 3584 2291 3584 
Q 2894 3584 3203 3211 
Q 3513 2838 3513 2113 
z
" id="DejaVuSans-68" transform="scale(0.015625)"/>
        <path d="M 750 794 
L 1409 794 
L 1409 0 
L 750 0 
L 750 794 
z
M 750 3309 
L 1409 3309 
L 1409 2516 
L 750 2516 
L 750 3309 
z
" id="DejaVuSans-3a" transform="scale(0.015625)"/>
       </defs>
       <use xlink:href="#DejaVuSans-32"/>
       <use x="63.623047" xlink:href="#DejaVuSans-68"/>
       <use x="127.001953" xlink:href="#DejaVuSans-3a"/>
       <use x="160.693359" xlink:href="#DejaVuSans-31"/>
       <use x="224.316406" xlink:href="#DejaVuSans-35"/>
       <use x="287.939453" xlink:href="#DejaVuSans-6d"/>
      </g>
     </g>
    </g>
    <g id="xtick_3">
     <g id="line2d_3">
      <g>
       <use style="stroke:#000000;stroke-width:0.8;" x="195.1509" xlink:href="#m65312156dd" y="288.430125"/>
      </g>
     </g>
     <g id="text_3">
      <!-- 4h:15m -->
      <g transform="translate(175.883713 303.028562)scale(0.1 -0.1)">
       <defs>
        <path d="M 2419 4116 
L 825 1625 
L 2419 1625 
L 2419 4116 
z
M 2253 4666 
L 3047 4666 
L 3047 1625 
L 3713 1625 
L 3713 1100 
L 3047 1100 
L 3047 0 
L 2419 0 
L 2419 1100 
L 313 1100 
L 313 1709 
L 2253 4666 
z
" id="DejaVuSans-34" transform="scale(0.015625)"/>
       </defs>
       <use xlink:href="#DejaVuSans-34"/>
       <use x="63.623047" xlink:href="#DejaVuSans-68"/>
       <use x="127.001953" xlink:href="#DejaVuSans-3a"/>
       <use x="160.693359" xlink:href="#DejaVuSans-31"/>
       <use x="224.316406" xlink:href="#DejaVuSans-35"/>
       <use x="287.939453" xlink:href="#DejaVuSans-6d"/>
      </g>
     </g>
    </g>
    <g id="xtick_4">
     <g id="line2d_4">
      <g>
       <use style="stroke:#000000;stroke-width:0.8;" x="249.82956" xlink:href="#m65312156dd" y="288.430125"/>
      </g>
     </g>
     <g id="text_4">
      <!-- 6h:15m -->
      <g transform="translate(230.562373 303.028562)scale(0.1 -0.1)">
       <defs>
        <path d="M 2113 2584 
Q 1688 2584 1439 2293 
Q 1191 2003 1191 1497 
Q 1191 994 1439 701 
Q 1688 409 2113 409 
Q 2538 409 2786 701 
Q 3034 994 3034 1497 
Q 3034 2003 2786 2293 
Q 2538 2584 2113 2584 
z
M 3366 4563 
L 3366 3988 
Q 3128 4100 2886 4159 
Q 2644 4219 2406 4219 
Q 1781 4219 1451 3797 
Q 1122 3375 1075 2522 
Q 1259 2794 1537 2939 
Q 1816 3084 2150 3084 
Q 2853 3084 3261 2657 
Q 3669 2231 3669 1497 
Q 3669 778 3244 343 
Q 2819 -91 2113 -91 
Q 1303 -91 875 529 
Q 447 1150 447 2328 
Q 447 3434 972 4092 
Q 1497 4750 2381 4750 
Q 2619 4750 2861 4703 
Q 3103 4656 3366 4563 
z
" id="DejaVuSans-36" transform="scale(0.015625)"/>
       </defs>
       <use xlink:href="#DejaVuSans-36"/>
       <use x="63.623047" xlink:href="#DejaVuSans-68"/>
       <use x="127.001953" xlink:href="#DejaVuSans-3a"/>
       <use x="160.693359" xlink:href="#DejaVuSans-31"/>
       <use x="224.316406" xlink:href="#DejaVuSans-35"/>
       <use x="287.939453" xlink:href="#DejaVuSans-6d"/>
      </g>
     </g>
    </g>
    <g id="xtick_5">
     <g id="line2d_5">
      <g>
       <use style="stroke:#000000;stroke-width:0.8;" x="304.508221" xlink:href="#m65312156dd" y="288.430125"/>
      </g>
     </g>
     <g id="text_5">
      <!-- 8h:15m -->
      <g transform="translate(285.241033 303.028562)scale(0.1 -0.1)">
       <defs>
        <path d="M 2034 2216 
Q 1584 2216 1326 1975 
Q 1069 1734 1069 1313 
Q 1069 891 1326 650 
Q 1584 409 2034 409 
Q 2484 409 2743 651 
Q 3003 894 3003 1313 
Q 3003 1734 2745 1975 
Q 2488 2216 2034 2216 
z
M 1403 2484 
Q 997 2584 770 2862 
Q 544 3141 544 3541 
Q 544 4100 942 4425 
Q 1341 4750 2034 4750 
Q 2731 4750 3128 4425 
Q 3525 4100 3525 3541 
Q 3525 3141 3298 2862 
Q 3072 2584 2669 2484 
Q 3125 2378 3379 2068 
Q 3634 1759 3634 1313 
Q 3634 634 3220 271 
Q 2806 -91 2034 -91 
Q 1263 -91 848 271 
Q 434 634 434 1313 
Q 434 1759 690 2068 
Q 947 2378 1403 2484 
z
M 1172 3481 
Q 1172 3119 1398 2916 
Q 1625 2713 2034 2713 
Q 2441 2713 2670 2916 
Q 2900 3119 2900 3481 
Q 2900 3844 2670 4047 
Q 2441 4250 2034 4250 
Q 1625 4250 1398 4047 
Q 1172 3844 1172 3481 
z
" id="DejaVuSans-38" transform="scale(0.015625)"/>
       </defs>
       <use xlink:href="#DejaVuSans-38"/>
       <use x="63.623047" xlink:href="#DejaVuSans-68"/>
       <use x="127.001953" xlink:href="#DejaVuSans-3a"/>
       <use x="160.693359" xlink:href="#DejaVuSans-31"/>
       <use x="224.316406" xlink:href="#DejaVuSans-35"/>
       <use x="287.939453" xlink:href="#DejaVuSans-6d"/>
      </g>
     </g>
    </g>
    <g id="xtick_6">
     <g id="line2d_6">
      <g>
       <use style="stroke:#000000;stroke-width:0.8;" x="359.186881" xlink:href="#m65312156dd" y="288.430125"/>
      </g>
     </g>
     <g id="text_6">
      <!-- 10h:15m -->
      <g transform="translate(336.738443 303.028562)scale(0.1 -0.1)">
       <defs>
        <path d="M 2034 4250 
Q 1547 4250 1301 3770 
Q 1056 3291 1056 2328 
Q 1056 1369 1301 889 
Q 1547 409 2034 409 
Q 2525 409 2770 889 
Q 3016 1369 3016 2328 
Q 3016 3291 2770 3770 
Q 2525 4250 2034 4250 
z
M 2034 4750 
Q 2819 4750 3233 4129 
Q 3647 3509 3647 2328 
Q 3647 1150 3233 529 
Q 2819 -91 2034 -91 
Q 1250 -91 836 529 
Q 422 1150 422 2328 
Q 422 3509 836 4129 
Q 1250 4750 2034 4750 
z
" id="DejaVuSans-30" transform="scale(0.015625)"/>
       </defs>
       <use xlink:href="#DejaVuSans-31"/>
       <use x="63.623047" xlink:href="#DejaVuSans-30"/>
       <use x="127.246094" xlink:href="#DejaVuSans-68"/>
       <use x="190.625" xlink:href="#DejaVuSans-3a"/>
       <use x="224.316406" xlink:href="#DejaVuSans-31"/>
       <use x="287.939453" xlink:href="#DejaVuSans-35"/>
       <use x="351.5625" xlink:href="#DejaVuSans-6d"/>
      </g>
     </g>
    </g>
    <g id="xtick_7">
     <g id="line2d_7">
      <g>
       <use style="stroke:#000000;stroke-width:0.8;" x="413.865541" xlink:href="#m65312156dd" y="288.430125"/>
      </g>
     </g>
     <g id="text_7">
      <!-- 12h:15m -->
      <g transform="translate(391.417104 303.028562)scale(0.1 -0.1)">
       <use xlink:href="#DejaVuSans-31"/>
       <use x="63.623047" xlink:href="#DejaVuSans-32"/>
       <use x="127.246094" xlink:href="#DejaVuSans-68"/>
       <use x="190.625" xlink:href="#DejaVuSans-3a"/>
       <use x="224.316406" xlink:href="#DejaVuSans-31"/>
       <use x="287.939453" xlink:href="#DejaVuSans-35"/>
       <use x="351.5625" xlink:href="#DejaVuSans-6d"/>
      </g>
     </g>
    </g>
    <g id="xtick_8">
     <g id="line2d_8">
      <g>
       <use style="stroke:#000000;stroke-width:0.8;" x="468.544202" xlink:href="#m65312156dd" y="288.430125"/>
      </g>
     </g>
     <g id="text_8">
      <!-- 14h:15m -->
      <g transform="translate(446.095764 303.028562)scale(0.1 -0.1)">
       <use xlink:href="#DejaVuSans-31"/>
       <use x="63.623047" xlink:href="#DejaVuSans-34"/>
       <use x="127.246094" xlink:href="#DejaVuSans-68"/>
       <use x="190.625" xlink:href="#DejaVuSans-3a"/>
       <use x="224.316406" xlink:href="#DejaVuSans-31"/>
       <use x="287.939453" xlink:href="#DejaVuSans-35"/>
       <use x="351.5625" xlink:href="#DejaVuSans-6d"/>
      </g>
     </g>
    </g>
    <g id="xtick_9">
     <g id="line2d_9">
      <g>
       <use style="stroke:#000000;stroke-width:0.8;" x="523.222862" xlink:href="#m65312156dd" y="288.430125"/>
      </g>
     </g>
     <g id="text_9">
      <!-- 16h:15m -->
      <g transform="translate(500.774424 303.028562)scale(0.1 -0.1)">
       <use xlink:href="#DejaVuSans-31"/>
       <use x="63.623047" xlink:href="#DejaVuSans-36"/>
       <use x="127.246094" xlink:href="#DejaVuSans-68"/>
       <use x="190.625" xlink:href="#DejaVuSans-3a"/>
       <use x="224.316406" xlink:href="#DejaVuSans-31"/>
       <use x="287.939453" xlink:href="#DejaVuSans-35"/>
       <use x="351.5625" xlink:href="#DejaVuSans-6d"/>
      </g>
     </g>
    </g>
    <g id="xtick_10">
     <g id="line2d_10">
      <g>
       <use style="stroke:#000000;stroke-width:0.8;" x="577.901522" xlink:href="#m65312156dd" y="288.430125"/>
      </g>
     </g>
     <g id="text_10">
      <!-- 18h:15m -->
      <g transform="translate(555.453085 303.028562)scale(0.1 -0.1)">
       <use xlink:href="#DejaVuSans-31"/>
       <use x="63.623047" xlink:href="#DejaVuSans-38"/>
       <use x="127.246094" xlink:href="#DejaVuSans-68"/>
       <use x="190.625" xlink:href="#DejaVuSans-3a"/>
       <use x="224.316406" xlink:href="#DejaVuSans-31"/>
       <use x="287.939453" xlink:href="#DejaVuSans-35"/>
       <use x="351.5625" xlink:href="#DejaVuSans-6d"/>
      </g>
     </g>
    </g>
    <g id="xtick_11">
     <g id="line2d_11">
      <g>
       <use style="stroke:#000000;stroke-width:0.8;" x="632.580182" xlink:href="#m65312156dd" y="288.430125"/>
      </g>
     </g>
     <g id="text_11">
      <!-- 20h:15m -->
      <g transform="translate(610.131745 303.028562)scale(0.1 -0.1)">
       <use xlink:href="#DejaVuSans-32"/>
       <use x="63.623047" xlink:href="#DejaVuSans-30"/>
       <use x="127.246094" xlink:href="#DejaVuSans-68"/>
       <use x="190.625" xlink:href="#DejaVuSans-3a"/>
       <use x="224.316406" xlink:href="#DejaVuSans-31"/>
       <use x="287.939453" xlink:href="#DejaVuSans-35"/>
       <use x="351.5625" xlink:href="#DejaVuSans-6d"/>
      </g>
     </g>
    </g>
    <g id="xtick_12">
     <g id="line2d_12">
      <g>
       <use style="stroke:#000000;stroke-width:0.8;" x="687.258843" xlink:href="#m65312156dd" y="288.430125"/>
      </g>
     </g>
     <g id="text_12">
      <!-- 22h:15m -->
      <g transform="translate(664.810405 303.028562)scale(0.1 -0.1)">
       <use xlink:href="#DejaVuSans-32"/>
       <use x="63.623047" xlink:href="#DejaVuSans-32"/>
       <use x="127.246094" xlink:href="#DejaVuSans-68"/>
       <use x="190.625" xlink:href="#DejaVuSans-3a"/>
       <use x="224.316406" xlink:href="#DejaVuSans-31"/>
       <use x="287.939453" xlink:href="#DejaVuSans-35"/>
       <use x="351.5625" xlink:href="#DejaVuSans-6d"/>
      </g>
     </g>
    </g>
    <g id="text_13">
     <!-- Time (hour:minute) -->
     <g transform="translate(362.041094 316.706687)scale(0.1 -0.1)">
      <defs>
       <path d="M -19 4666 
L 3928 4666 
L 3928 4134 
L 2272 4134 
L 2272 0 
L 1638 0 
L 1638 4134 
L -19 4134 
L -19 4666 
z
" id="DejaVuSans-54" transform="scale(0.015625)"/>
       <path d="M 603 3500 
L 1178 3500 
L 1178 0 
L 603 0 
L 603 3500 
z
M 603 4863 
L 1178 4863 
L 1178 4134 
L 603 4134 
L 603 4863 
z
" id="DejaVuSans-69" transform="scale(0.015625)"/>
       <path d="M 3597 1894 
L 3597 1613 
L 953 1613 
Q 991 1019 1311 708 
Q 1631 397 2203 397 
Q 2534 397 2845 478 
Q 3156 559 3463 722 
L 3463 178 
Q 3153 47 2828 -22 
Q 2503 -91 2169 -91 
Q 1331 -91 842 396 
Q 353 884 353 1716 
Q 353 2575 817 3079 
Q 1281 3584 2069 3584 
Q 2775 3584 3186 3129 
Q 3597 2675 3597 1894 
z
M 3022 2063 
Q 3016 2534 2758 2815 
Q 2500 3097 2075 3097 
Q 1594 3097 1305 2825 
Q 1016 2553 972 2059 
L 3022 2063 
z
" id="DejaVuSans-65" transform="scale(0.015625)"/>
       <path id="DejaVuSans-20" transform="scale(0.015625)"/>
       <path d="M 1984 4856 
Q 1566 4138 1362 3434 
Q 1159 2731 1159 2009 
Q 1159 1288 1364 580 
Q 1569 -128 1984 -844 
L 1484 -844 
Q 1016 -109 783 600 
Q 550 1309 550 2009 
Q 550 2706 781 3412 
Q 1013 4119 1484 4856 
L 1984 4856 
z
" id="DejaVuSans-28" transform="scale(0.015625)"/>
       <path d="M 1959 3097 
Q 1497 3097 1228 2736 
Q 959 2375 959 1747 
Q 959 1119 1226 758 
Q 1494 397 1959 397 
Q 2419 397 2687 759 
Q 2956 1122 2956 1747 
Q 2956 2369 2687 2733 
Q 2419 3097 1959 3097 
z
M 1959 3584 
Q 2709 3584 3137 3096 
Q 3566 2609 3566 1747 
Q 3566 888 3137 398 
Q 2709 -91 1959 -91 
Q 1206 -91 779 398 
Q 353 888 353 1747 
Q 353 2609 779 3096 
Q 1206 3584 1959 3584 
z
" id="DejaVuSans-6f" transform="scale(0.015625)"/>
       <path d="M 544 1381 
L 544 3500 
L 1119 3500 
L 1119 1403 
Q 1119 906 1312 657 
Q 1506 409 1894 409 
Q 2359 409 2629 706 
Q 2900 1003 2900 1516 
L 2900 3500 
L 3475 3500 
L 3475 0 
L 2900 0 
L 2900 538 
Q 2691 219 2414 64 
Q 2138 -91 1772 -91 
Q 1169 -91 856 284 
Q 544 659 544 1381 
z
M 1991 3584 
L 1991 3584 
z
" id="DejaVuSans-75" transform="scale(0.015625)"/>
       <path d="M 2631 2963 
Q 2534 3019 2420 3045 
Q 2306 3072 2169 3072 
Q 1681 3072 1420 2755 
Q 1159 2438 1159 1844 
L 1159 0 
L 581 0 
L 581 3500 
L 1159 3500 
L 1159 2956 
Q 1341 3275 1631 3429 
Q 1922 3584 2338 3584 
Q 2397 3584 2469 3576 
Q 2541 3569 2628 3553 
L 2631 2963 
z
" id="DejaVuSans-72" transform="scale(0.015625)"/>
       <path d="M 3513 2113 
L 3513 0 
L 2938 0 
L 2938 2094 
Q 2938 2591 2744 2837 
Q 2550 3084 2163 3084 
Q 1697 3084 1428 2787 
Q 1159 2491 1159 1978 
L 1159 0 
L 581 0 
L 581 3500 
L 1159 3500 
L 1159 2956 
Q 1366 3272 1645 3428 
Q 1925 3584 2291 3584 
Q 2894 3584 3203 3211 
Q 3513 2838 3513 2113 
z
" id="DejaVuSans-6e" transform="scale(0.015625)"/>
       <path d="M 1172 4494 
L 1172 3500 
L 2356 3500 
L 2356 3053 
L 1172 3053 
L 1172 1153 
Q 1172 725 1289 603 
Q 1406 481 1766 481 
L 2356 481 
L 2356 0 
L 1766 0 
Q 1100 0 847 248 
Q 594 497 594 1153 
L 594 3053 
L 172 3053 
L 172 3500 
L 594 3500 
L 594 4494 
L 1172 4494 
z
" id="DejaVuSans-74" transform="scale(0.015625)"/>
       <path d="M 513 4856 
L 1013 4856 
Q 1481 4119 1714 3412 
Q 1947 2706 1947 2009 
Q 1947 1309 1714 600 
Q 1481 -109 1013 -844 
L 513 -844 
Q 928 -128 1133 580 
Q 1338 1288 1338 2009 
Q 1338 2731 1133 3434 
Q 928 4138 513 4856 
z
" id="DejaVuSans-29" transform="scale(0.015625)"/>
      </defs>
      <use xlink:href="#DejaVuSans-54"/>
      <use x="57.958984" xlink:href="#DejaVuSans-69"/>
      <use x="85.742188" xlink:href="#DejaVuSans-6d"/>
      <use x="183.154297" xlink:href="#DejaVuSans-65"/>
      <use x="244.677734" xlink:href="#DejaVuSans-20"/>
      <use x="276.464844" xlink:href="#DejaVuSans-28"/>
      <use x="315.478516" xlink:href="#DejaVuSans-68"/>
      <use x="378.857422" xlink:href="#DejaVuSans-6f"/>
      <use x="440.039062" xlink:href="#DejaVuSans-75"/>
      <use x="503.417969" xlink:href="#DejaVuSans-72"/>
      <use x="542.78125" xlink:href="#DejaVuSans-3a"/>
      <use x="576.472656" xlink:href="#DejaVuSans-6d"/>
      <use x="673.884766" xlink:href="#DejaVuSans-69"/>
      <use x="701.667969" xlink:href="#DejaVuSans-6e"/>
      <use x="765.046875" xlink:href="#DejaVuSans-75"/>
      <use x="828.425781" xlink:href="#DejaVuSans-74"/>
      <use x="867.634766" xlink:href="#DejaVuSans-65"/>
      <use x="929.158203" xlink:href="#DejaVuSans-29"/>
     </g>
    </g>
   </g>
   <g id="matplotlib.axis_2">
    <g id="ytick_1">
     <g id="line2d_13">
      <defs>
       <path d="M 0 0 
L -3.5 0 
" id="m4cf332ff26" style="stroke:#000000;stroke-width:0.8;"/>
      </defs>
      <g>
       <use style="stroke:#000000;stroke-width:0.8;" x="53.328125" xlink:href="#m4cf332ff26" y="258.681333"/>
      </g>
     </g>
     <g id="text_14">
      <!-- 600 -->
      <g transform="translate(27.240625 262.480552)scale(0.1 -0.1)">
       <use xlink:href="#DejaVuSans-36"/>
       <use x="63.623047" xlink:href="#DejaVuSans-30"/>
       <use x="127.246094" xlink:href="#DejaVuSans-30"/>
      </g>
     </g>
    </g>
    <g id="ytick_2">
     <g id="line2d_14">
      <g>
       <use style="stroke:#000000;stroke-width:0.8;" x="53.328125" xlink:href="#m4cf332ff26" y="227.980826"/>
      </g>
     </g>
     <g id="text_15">
      <!-- 800 -->
      <g transform="translate(27.240625 231.780044)scale(0.1 -0.1)">
       <use xlink:href="#DejaVuSans-38"/>
       <use x="63.623047" xlink:href="#DejaVuSans-30"/>
       <use x="127.246094" xlink:href="#DejaVuSans-30"/>
      </g>
     </g>
    </g>
    <g id="ytick_3">
     <g id="line2d_15">
      <g>
       <use style="stroke:#000000;stroke-width:0.8;" x="53.328125" xlink:href="#m4cf332ff26" y="197.280318"/>
      </g>
     </g>
     <g id="text_16">
      <!-- 1000 -->
      <g transform="translate(20.878125 201.079537)scale(0.1 -0.1)">
       <use xlink:href="#DejaVuSans-31"/>
       <use x="63.623047" xlink:href="#DejaVuSans-30"/>
       <use x="127.246094" xlink:href="#DejaVuSans-30"/>
       <use x="190.869141" xlink:href="#DejaVuSans-30"/>
      </g>
     </g>
    </g>
    <g id="ytick_4">
     <g id="line2d_16">
      <g>
       <use style="stroke:#000000;stroke-width:0.8;" x="53.328125" xlink:href="#m4cf332ff26" y="166.57981"/>
      </g>
     </g>
     <g id="text_17">
      <!-- 1200 -->
      <g transform="translate(20.878125 170.379029)scale(0.1 -0.1)">
       <use xlink:href="#DejaVuSans-31"/>
       <use x="63.623047" xlink:href="#DejaVuSans-32"/>
       <use x="127.246094" xlink:href="#DejaVuSans-30"/>
       <use x="190.869141" xlink:href="#DejaVuSans-30"/>
      </g>
     </g>
    </g>
    <g id="ytick_5">
     <g id="line2d_17">
      <g>
       <use style="stroke:#000000;stroke-width:0.8;" x="53.328125" xlink:href="#m4cf332ff26" y="135.879303"/>
      </g>
     </g>
     <g id="text_18">
      <!-- 1400 -->
      <g transform="translate(20.878125 139.678521)scale(0.1 -0.1)">
       <use xlink:href="#DejaVuSans-31"/>
       <use x="63.623047" xlink:href="#DejaVuSans-34"/>
       <use x="127.246094" xlink:href="#DejaVuSans-30"/>
       <use x="190.869141" xlink:href="#DejaVuSans-30"/>
      </g>
     </g>
    </g>
    <g id="ytick_6">
     <g id="line2d_18">
      <g>
       <use style="stroke:#000000;stroke-width:0.8;" x="53.328125" xlink:href="#m4cf332ff26" y="105.178795"/>
      </g>
     </g>
     <g id="text_19">
      <!-- 1600 -->
      <g transform="translate(20.878125 108.978014)scale(0.1 -0.1)">
       <use xlink:href="#DejaVuSans-31"/>
       <use x="63.623047" xlink:href="#DejaVuSans-36"/>
       <use x="127.246094" xlink:href="#DejaVuSans-30"/>
       <use x="190.869141" xlink:href="#DejaVuSans-30"/>
      </g>
     </g>
    </g>
    <g id="ytick_7">
     <g id="line2d_19">
      <g>
       <use style="stroke:#000000;stroke-width:0.8;" x="53.328125" xlink:href="#m4cf332ff26" y="74.478287"/>
      </g>
     </g>
     <g id="text_20">
      <!-- 1800 -->
      <g transform="translate(20.878125 78.277506)scale(0.1 -0.1)">
       <use xlink:href="#DejaVuSans-31"/>
       <use x="63.623047" xlink:href="#DejaVuSans-38"/>
       <use x="127.246094" xlink:href="#DejaVuSans-30"/>
       <use x="190.869141" xlink:href="#DejaVuSans-30"/>
      </g>
     </g>
    </g>
    <g id="ytick_8">
     <g id="line2d_20">
      <g>
       <use style="stroke:#000000;stroke-width:0.8;" x="53.328125" xlink:href="#m4cf332ff26" y="43.77778"/>
      </g>
     </g>
     <g id="text_21">
      <!-- 2000 -->
      <g transform="translate(20.878125 47.576999)scale(0.1 -0.1)">
       <use xlink:href="#DejaVuSans-32"/>
       <use x="63.623047" xlink:href="#DejaVuSans-30"/>
       <use x="127.246094" xlink:href="#DejaVuSans-30"/>
       <use x="190.869141" xlink:href="#DejaVuSans-30"/>
      </g>
     </g>
    </g>
    <g id="text_22">
     <!-- Code branch coverage -->
     <g transform="translate(14.798438 211.949125)rotate(-90)scale(0.1 -0.1)">
      <defs>
       <path d="M 4122 4306 
L 4122 3641 
Q 3803 3938 3442 4084 
Q 3081 4231 2675 4231 
Q 1875 4231 1450 3742 
Q 1025 3253 1025 2328 
Q 1025 1406 1450 917 
Q 1875 428 2675 428 
Q 3081 428 3442 575 
Q 3803 722 4122 1019 
L 4122 359 
Q 3791 134 3420 21 
Q 3050 -91 2638 -91 
Q 1578 -91 968 557 
Q 359 1206 359 2328 
Q 359 3453 968 4101 
Q 1578 4750 2638 4750 
Q 3056 4750 3426 4639 
Q 3797 4528 4122 4306 
z
" id="DejaVuSans-43" transform="scale(0.015625)"/>
       <path d="M 2906 2969 
L 2906 4863 
L 3481 4863 
L 3481 0 
L 2906 0 
L 2906 525 
Q 2725 213 2448 61 
Q 2172 -91 1784 -91 
Q 1150 -91 751 415 
Q 353 922 353 1747 
Q 353 2572 751 3078 
Q 1150 3584 1784 3584 
Q 2172 3584 2448 3432 
Q 2725 3281 2906 2969 
z
M 947 1747 
Q 947 1113 1208 752 
Q 1469 391 1925 391 
Q 2381 391 2643 752 
Q 2906 1113 2906 1747 
Q 2906 2381 2643 2742 
Q 2381 3103 1925 3103 
Q 1469 3103 1208 2742 
Q 947 2381 947 1747 
z
" id="DejaVuSans-64" transform="scale(0.015625)"/>
       <path d="M 3116 1747 
Q 3116 2381 2855 2742 
Q 2594 3103 2138 3103 
Q 1681 3103 1420 2742 
Q 1159 2381 1159 1747 
Q 1159 1113 1420 752 
Q 1681 391 2138 391 
Q 2594 391 2855 752 
Q 3116 1113 3116 1747 
z
M 1159 2969 
Q 1341 3281 1617 3432 
Q 1894 3584 2278 3584 
Q 2916 3584 3314 3078 
Q 3713 2572 3713 1747 
Q 3713 922 3314 415 
Q 2916 -91 2278 -91 
Q 1894 -91 1617 61 
Q 1341 213 1159 525 
L 1159 0 
L 581 0 
L 581 4863 
L 1159 4863 
L 1159 2969 
z
" id="DejaVuSans-62" transform="scale(0.015625)"/>
       <path d="M 2194 1759 
Q 1497 1759 1228 1600 
Q 959 1441 959 1056 
Q 959 750 1161 570 
Q 1363 391 1709 391 
Q 2188 391 2477 730 
Q 2766 1069 2766 1631 
L 2766 1759 
L 2194 1759 
z
M 3341 1997 
L 3341 0 
L 2766 0 
L 2766 531 
Q 2569 213 2275 61 
Q 1981 -91 1556 -91 
Q 1019 -91 701 211 
Q 384 513 384 1019 
Q 384 1609 779 1909 
Q 1175 2209 1959 2209 
L 2766 2209 
L 2766 2266 
Q 2766 2663 2505 2880 
Q 2244 3097 1772 3097 
Q 1472 3097 1187 3025 
Q 903 2953 641 2809 
L 641 3341 
Q 956 3463 1253 3523 
Q 1550 3584 1831 3584 
Q 2591 3584 2966 3190 
Q 3341 2797 3341 1997 
z
" id="DejaVuSans-61" transform="scale(0.015625)"/>
       <path d="M 3122 3366 
L 3122 2828 
Q 2878 2963 2633 3030 
Q 2388 3097 2138 3097 
Q 1578 3097 1268 2742 
Q 959 2388 959 1747 
Q 959 1106 1268 751 
Q 1578 397 2138 397 
Q 2388 397 2633 464 
Q 2878 531 3122 666 
L 3122 134 
Q 2881 22 2623 -34 
Q 2366 -91 2075 -91 
Q 1284 -91 818 406 
Q 353 903 353 1747 
Q 353 2603 823 3093 
Q 1294 3584 2113 3584 
Q 2378 3584 2631 3529 
Q 2884 3475 3122 3366 
z
" id="DejaVuSans-63" transform="scale(0.015625)"/>
       <path d="M 191 3500 
L 800 3500 
L 1894 563 
L 2988 3500 
L 3597 3500 
L 2284 0 
L 1503 0 
L 191 3500 
z
" id="DejaVuSans-76" transform="scale(0.015625)"/>
       <path d="M 2906 1791 
Q 2906 2416 2648 2759 
Q 2391 3103 1925 3103 
Q 1463 3103 1205 2759 
Q 947 2416 947 1791 
Q 947 1169 1205 825 
Q 1463 481 1925 481 
Q 2391 481 2648 825 
Q 2906 1169 2906 1791 
z
M 3481 434 
Q 3481 -459 3084 -895 
Q 2688 -1331 1869 -1331 
Q 1566 -1331 1297 -1286 
Q 1028 -1241 775 -1147 
L 775 -588 
Q 1028 -725 1275 -790 
Q 1522 -856 1778 -856 
Q 2344 -856 2625 -561 
Q 2906 -266 2906 331 
L 2906 616 
Q 2728 306 2450 153 
Q 2172 0 1784 0 
Q 1141 0 747 490 
Q 353 981 353 1791 
Q 353 2603 747 3093 
Q 1141 3584 1784 3584 
Q 2172 3584 2450 3431 
Q 2728 3278 2906 2969 
L 2906 3500 
L 3481 3500 
L 3481 434 
z
" id="DejaVuSans-67" transform="scale(0.015625)"/>
      </defs>
      <use xlink:href="#DejaVuSans-43"/>
      <use x="69.824219" xlink:href="#DejaVuSans-6f"/>
      <use x="131.005859" xlink:href="#DejaVuSans-64"/>
      <use x="194.482422" xlink:href="#DejaVuSans-65"/>
      <use x="256.005859" xlink:href="#DejaVuSans-20"/>
      <use x="287.792969" xlink:href="#DejaVuSans-62"/>
      <use x="351.269531" xlink:href="#DejaVuSans-72"/>
      <use x="392.382812" xlink:href="#DejaVuSans-61"/>
      <use x="453.662109" xlink:href="#DejaVuSans-6e"/>
      <use x="517.041016" xlink:href="#DejaVuSans-63"/>
      <use x="572.021484" xlink:href="#DejaVuSans-68"/>
      <use x="635.400391" xlink:href="#DejaVuSans-20"/>
      <use x="667.1875" xlink:href="#DejaVuSans-63"/>
      <use x="722.167969" xlink:href="#DejaVuSans-6f"/>
      <use x="783.349609" xlink:href="#DejaVuSans-76"/>
      <use x="842.529297" xlink:href="#DejaVuSans-65"/>
      <use x="904.052734" xlink:href="#DejaVuSans-72"/>
      <use x="945.166016" xlink:href="#DejaVuSans-61"/>
      <use x="1006.445312" xlink:href="#DejaVuSans-67"/>
      <use x="1069.921875" xlink:href="#DejaVuSans-65"/>
     </g>
    </g>
   </g>
   <g id="line2d_21">
    <path clip-path="url(#p4a3f9652cb)" d="M 85.79358 106.176562 
L 92.628412 84.91646 
L 99.463245 78.776359 
L 106.298077 75.783059 
L 113.13291 75.322551 
L 119.967742 72.713008 
L 126.802575 72.713008 
L 133.637407 69.949963 
L 140.47224 66.265902 
L 147.307072 66.265902 
L 154.141905 65.882145 
L 160.976737 65.805394 
L 167.81157 65.114633 
L 174.646403 65.114633 
L 181.481235 61.046815 
L 188.316068 54.06245 
L 195.1509 53.985699 
L 201.985733 53.985699 
L 208.820565 53.985699 
L 215.655398 53.985699 
L 222.49023 53.908947 
L 229.325063 53.371688 
L 236.159895 53.218186 
L 242.994728 53.141435 
L 249.82956 52.680927 
L 256.664393 52.680927 
L 263.499225 52.680927 
L 270.334058 46.464074 
L 277.168891 42.166003 
L 284.003723 41.782247 
L 290.838556 41.782247 
L 297.673388 41.782247 
L 304.508221 41.782247 
L 311.343053 41.782247 
L 318.177886 41.244988 
L 325.012718 41.244988 
L 331.847551 41.244988 
L 338.682383 41.244988 
L 345.517216 41.168237 
L 352.352048 41.168237 
L 359.186881 41.168237 
L 366.021714 41.168237 
L 372.856546 41.168237 
L 379.691379 41.168237 
L 386.526211 41.091485 
L 393.361044 40.323973 
L 400.195876 39.940216 
L 407.030709 39.940216 
L 413.865541 39.940216 
L 420.700374 39.940216 
L 427.535206 39.940216 
L 434.370039 39.940216 
L 441.204871 39.940216 
L 448.039704 39.786714 
L 454.874536 39.709963 
L 461.709369 39.709963 
L 468.544202 39.709963 
L 475.379034 39.709963 
L 482.213867 39.709963 
L 489.048699 39.709963 
L 495.883532 39.172704 
L 502.718364 39.172704 
L 509.553197 39.172704 
L 516.388029 39.172704 
L 523.222862 39.095952 
L 530.057694 39.095952 
L 536.892527 39.095952 
L 543.727359 39.095952 
L 550.562192 39.095952 
L 557.397025 39.095952 
L 564.231857 39.095952 
L 571.06669 39.095952 
L 577.901522 39.095952 
L 584.736355 38.865699 
L 591.571187 38.865699 
L 598.40602 38.865699 
L 605.240852 38.865699 
L 612.075685 38.865699 
L 618.910517 38.865699 
L 625.74535 38.865699 
L 632.580182 38.865699 
L 639.415015 38.865699 
L 646.249847 38.865699 
L 653.08468 38.865699 
L 659.919513 38.865699 
L 666.754345 38.865699 
L 673.589178 38.174937 
L 680.42401 38.174937 
L 687.258843 38.174937 
L 694.093675 38.174937 
L 700.928508 38.174937 
L 707.76334 38.174937 
L 714.598173 38.174937 
L 721.433005 38.174937 
L 728.267838 38.098186 
L 735.10267 38.098186 
" style="fill:none;stroke:#1f77b4;stroke-linecap:square;stroke-width:1.5;"/>
    <defs>
     <path d="M 0 3 
C 0.795609 3 1.55874 2.683901 2.12132 2.12132 
C 2.683901 1.55874 3 0.795609 3 0 
C 3 -0.795609 2.683901 -1.55874 2.12132 -2.12132 
C 1.55874 -2.683901 0.795609 -3 0 -3 
C -0.795609 -3 -1.55874 -2.683901 -2.12132 -2.12132 
C -2.683901 -1.55874 -3 -0.795609 -3 0 
C -3 0.795609 -2.683901 1.55874 -2.12132 2.12132 
C -1.55874 2.683901 -0.795609 3 0 3 
z
" id="m08ca335e9c" style="stroke:#ffffff;stroke-width:0.75;"/>
    </defs>
    <g clip-path="url(#p4a3f9652cb)">
     <use style="fill:#1f77b4;stroke:#ffffff;stroke-width:0.75;" x="85.79358" xlink:href="#m08ca335e9c" y="106.176562"/>
     <use style="fill:#1f77b4;stroke:#ffffff;stroke-width:0.75;" x="92.628412" xlink:href="#m08ca335e9c" y="84.91646"/>
     <use style="fill:#1f77b4;stroke:#ffffff;stroke-width:0.75;" x="99.463245" xlink:href="#m08ca335e9c" y="78.776359"/>
     <use style="fill:#1f77b4;stroke:#ffffff;stroke-width:0.75;" x="106.298077" xlink:href="#m08ca335e9c" y="75.783059"/>
     <use style="fill:#1f77b4;stroke:#ffffff;stroke-width:0.75;" x="113.13291" xlink:href="#m08ca335e9c" y="75.322551"/>
     <use style="fill:#1f77b4;stroke:#ffffff;stroke-width:0.75;" x="119.967742" xlink:href="#m08ca335e9c" y="72.713008"/>
     <use style="fill:#1f77b4;stroke:#ffffff;stroke-width:0.75;" x="126.802575" xlink:href="#m08ca335e9c" y="72.713008"/>
     <use style="fill:#1f77b4;stroke:#ffffff;stroke-width:0.75;" x="133.637407" xlink:href="#m08ca335e9c" y="69.949963"/>
     <use style="fill:#1f77b4;stroke:#ffffff;stroke-width:0.75;" x="140.47224" xlink:href="#m08ca335e9c" y="66.265902"/>
     <use style="fill:#1f77b4;stroke:#ffffff;stroke-width:0.75;" x="147.307072" xlink:href="#m08ca335e9c" y="66.265902"/>
     <use style="fill:#1f77b4;stroke:#ffffff;stroke-width:0.75;" x="154.141905" xlink:href="#m08ca335e9c" y="65.882145"/>
     <use style="fill:#1f77b4;stroke:#ffffff;stroke-width:0.75;" x="160.976737" xlink:href="#m08ca335e9c" y="65.805394"/>
     <use style="fill:#1f77b4;stroke:#ffffff;stroke-width:0.75;" x="167.81157" xlink:href="#m08ca335e9c" y="65.114633"/>
     <use style="fill:#1f77b4;stroke:#ffffff;stroke-width:0.75;" x="174.646403" xlink:href="#m08ca335e9c" y="65.114633"/>
     <use style="fill:#1f77b4;stroke:#ffffff;stroke-width:0.75;" x="181.481235" xlink:href="#m08ca335e9c" y="61.046815"/>
     <use style="fill:#1f77b4;stroke:#ffffff;stroke-width:0.75;" x="188.316068" xlink:href="#m08ca335e9c" y="54.06245"/>
     <use style="fill:#1f77b4;stroke:#ffffff;stroke-width:0.75;" x="195.1509" xlink:href="#m08ca335e9c" y="53.985699"/>
     <use style="fill:#1f77b4;stroke:#ffffff;stroke-width:0.75;" x="201.985733" xlink:href="#m08ca335e9c" y="53.985699"/>
     <use style="fill:#1f77b4;stroke:#ffffff;stroke-width:0.75;" x="208.820565" xlink:href="#m08ca335e9c" y="53.985699"/>
     <use style="fill:#1f77b4;stroke:#ffffff;stroke-width:0.75;" x="215.655398" xlink:href="#m08ca335e9c" y="53.985699"/>
     <use style="fill:#1f77b4;stroke:#ffffff;stroke-width:0.75;" x="222.49023" xlink:href="#m08ca335e9c" y="53.908947"/>
     <use style="fill:#1f77b4;stroke:#ffffff;stroke-width:0.75;" x="229.325063" xlink:href="#m08ca335e9c" y="53.371688"/>
     <use style="fill:#1f77b4;stroke:#ffffff;stroke-width:0.75;" x="236.159895" xlink:href="#m08ca335e9c" y="53.218186"/>
     <use style="fill:#1f77b4;stroke:#ffffff;stroke-width:0.75;" x="242.994728" xlink:href="#m08ca335e9c" y="53.141435"/>
     <use style="fill:#1f77b4;stroke:#ffffff;stroke-width:0.75;" x="249.82956" xlink:href="#m08ca335e9c" y="52.680927"/>
     <use style="fill:#1f77b4;stroke:#ffffff;stroke-width:0.75;" x="256.664393" xlink:href="#m08ca335e9c" y="52.680927"/>
     <use style="fill:#1f77b4;stroke:#ffffff;stroke-width:0.75;" x="263.499225" xlink:href="#m08ca335e9c" y="52.680927"/>
     <use style="fill:#1f77b4;stroke:#ffffff;stroke-width:0.75;" x="270.334058" xlink:href="#m08ca335e9c" y="46.464074"/>
     <use style="fill:#1f77b4;stroke:#ffffff;stroke-width:0.75;" x="277.168891" xlink:href="#m08ca335e9c" y="42.166003"/>
     <use style="fill:#1f77b4;stroke:#ffffff;stroke-width:0.75;" x="284.003723" xlink:href="#m08ca335e9c" y="41.782247"/>
     <use style="fill:#1f77b4;stroke:#ffffff;stroke-width:0.75;" x="290.838556" xlink:href="#m08ca335e9c" y="41.782247"/>
     <use style="fill:#1f77b4;stroke:#ffffff;stroke-width:0.75;" x="297.673388" xlink:href="#m08ca335e9c" y="41.782247"/>
     <use style="fill:#1f77b4;stroke:#ffffff;stroke-width:0.75;" x="304.508221" xlink:href="#m08ca335e9c" y="41.782247"/>
     <use style="fill:#1f77b4;stroke:#ffffff;stroke-width:0.75;" x="311.343053" xlink:href="#m08ca335e9c" y="41.782247"/>
     <use style="fill:#1f77b4;stroke:#ffffff;stroke-width:0.75;" x="318.177886" xlink:href="#m08ca335e9c" y="41.244988"/>
     <use style="fill:#1f77b4;stroke:#ffffff;stroke-width:0.75;" x="325.012718" xlink:href="#m08ca335e9c" y="41.244988"/>
     <use style="fill:#1f77b4;stroke:#ffffff;stroke-width:0.75;" x="331.847551" xlink:href="#m08ca335e9c" y="41.244988"/>
     <use style="fill:#1f77b4;stroke:#ffffff;stroke-width:0.75;" x="338.682383" xlink:href="#m08ca335e9c" y="41.244988"/>
     <use style="fill:#1f77b4;stroke:#ffffff;stroke-width:0.75;" x="345.517216" xlink:href="#m08ca335e9c" y="41.168237"/>
     <use style="fill:#1f77b4;stroke:#ffffff;stroke-width:0.75;" x="352.352048" xlink:href="#m08ca335e9c" y="41.168237"/>
     <use style="fill:#1f77b4;stroke:#ffffff;stroke-width:0.75;" x="359.186881" xlink:href="#m08ca335e9c" y="41.168237"/>
     <use style="fill:#1f77b4;stroke:#ffffff;stroke-width:0.75;" x="366.021714" xlink:href="#m08ca335e9c" y="41.168237"/>
     <use style="fill:#1f77b4;stroke:#ffffff;stroke-width:0.75;" x="372.856546" xlink:href="#m08ca335e9c" y="41.168237"/>
     <use style="fill:#1f77b4;stroke:#ffffff;stroke-width:0.75;" x="379.691379" xlink:href="#m08ca335e9c" y="41.168237"/>
     <use style="fill:#1f77b4;stroke:#ffffff;stroke-width:0.75;" x="386.526211" xlink:href="#m08ca335e9c" y="41.091485"/>
     <use style="fill:#1f77b4;stroke:#ffffff;stroke-width:0.75;" x="393.361044" xlink:href="#m08ca335e9c" y="40.323973"/>
     <use style="fill:#1f77b4;stroke:#ffffff;stroke-width:0.75;" x="400.195876" xlink:href="#m08ca335e9c" y="39.940216"/>
     <use style="fill:#1f77b4;stroke:#ffffff;stroke-width:0.75;" x="407.030709" xlink:href="#m08ca335e9c" y="39.940216"/>
     <use style="fill:#1f77b4;stroke:#ffffff;stroke-width:0.75;" x="413.865541" xlink:href="#m08ca335e9c" y="39.940216"/>
     <use style="fill:#1f77b4;stroke:#ffffff;stroke-width:0.75;" x="420.700374" xlink:href="#m08ca335e9c" y="39.940216"/>
     <use style="fill:#1f77b4;stroke:#ffffff;stroke-width:0.75;" x="427.535206" xlink:href="#m08ca335e9c" y="39.940216"/>
     <use style="fill:#1f77b4;stroke:#ffffff;stroke-width:0.75;" x="434.370039" xlink:href="#m08ca335e9c" y="39.940216"/>
     <use style="fill:#1f77b4;stroke:#ffffff;stroke-width:0.75;" x="441.204871" xlink:href="#m08ca335e9c" y="39.940216"/>
     <use style="fill:#1f77b4;stroke:#ffffff;stroke-width:0.75;" x="448.039704" xlink:href="#m08ca335e9c" y="39.786714"/>
     <use style="fill:#1f77b4;stroke:#ffffff;stroke-width:0.75;" x="454.874536" xlink:href="#m08ca335e9c" y="39.709963"/>
     <use style="fill:#1f77b4;stroke:#ffffff;stroke-width:0.75;" x="461.709369" xlink:href="#m08ca335e9c" y="39.709963"/>
     <use style="fill:#1f77b4;stroke:#ffffff;stroke-width:0.75;" x="468.544202" xlink:href="#m08ca335e9c" y="39.709963"/>
     <use style="fill:#1f77b4;stroke:#ffffff;stroke-width:0.75;" x="475.379034" xlink:href="#m08ca335e9c" y="39.709963"/>
     <use style="fill:#1f77b4;stroke:#ffffff;stroke-width:0.75;" x="482.213867" xlink:href="#m08ca335e9c" y="39.709963"/>
     <use style="fill:#1f77b4;stroke:#ffffff;stroke-width:0.75;" x="489.048699" xlink:href="#m08ca335e9c" y="39.709963"/>
     <use style="fill:#1f77b4;stroke:#ffffff;stroke-width:0.75;" x="495.883532" xlink:href="#m08ca335e9c" y="39.172704"/>
     <use style="fill:#1f77b4;stroke:#ffffff;stroke-width:0.75;" x="502.718364" xlink:href="#m08ca335e9c" y="39.172704"/>
     <use style="fill:#1f77b4;stroke:#ffffff;stroke-width:0.75;" x="509.553197" xlink:href="#m08ca335e9c" y="39.172704"/>
     <use style="fill:#1f77b4;stroke:#ffffff;stroke-width:0.75;" x="516.388029" xlink:href="#m08ca335e9c" y="39.172704"/>
     <use style="fill:#1f77b4;stroke:#ffffff;stroke-width:0.75;" x="523.222862" xlink:href="#m08ca335e9c" y="39.095952"/>
     <use style="fill:#1f77b4;stroke:#ffffff;stroke-width:0.75;" x="530.057694" xlink:href="#m08ca335e9c" y="39.095952"/>
     <use style="fill:#1f77b4;stroke:#ffffff;stroke-width:0.75;" x="536.892527" xlink:href="#m08ca335e9c" y="39.095952"/>
     <use style="fill:#1f77b4;stroke:#ffffff;stroke-width:0.75;" x="543.727359" xlink:href="#m08ca335e9c" y="39.095952"/>
     <use style="fill:#1f77b4;stroke:#ffffff;stroke-width:0.75;" x="550.562192" xlink:href="#m08ca335e9c" y="39.095952"/>
     <use style="fill:#1f77b4;stroke:#ffffff;stroke-width:0.75;" x="557.397025" xlink:href="#m08ca335e9c" y="39.095952"/>
     <use style="fill:#1f77b4;stroke:#ffffff;stroke-width:0.75;" x="564.231857" xlink:href="#m08ca335e9c" y="39.095952"/>
     <use style="fill:#1f77b4;stroke:#ffffff;stroke-width:0.75;" x="571.06669" xlink:href="#m08ca335e9c" y="39.095952"/>
     <use style="fill:#1f77b4;stroke:#ffffff;stroke-width:0.75;" x="577.901522" xlink:href="#m08ca335e9c" y="39.095952"/>
     <use style="fill:#1f77b4;stroke:#ffffff;stroke-width:0.75;" x="584.736355" xlink:href="#m08ca335e9c" y="38.865699"/>
     <use style="fill:#1f77b4;stroke:#ffffff;stroke-width:0.75;" x="591.571187" xlink:href="#m08ca335e9c" y="38.865699"/>
     <use style="fill:#1f77b4;stroke:#ffffff;stroke-width:0.75;" x="598.40602" xlink:href="#m08ca335e9c" y="38.865699"/>
     <use style="fill:#1f77b4;stroke:#ffffff;stroke-width:0.75;" x="605.240852" xlink:href="#m08ca335e9c" y="38.865699"/>
     <use style="fill:#1f77b4;stroke:#ffffff;stroke-width:0.75;" x="612.075685" xlink:href="#m08ca335e9c" y="38.865699"/>
     <use style="fill:#1f77b4;stroke:#ffffff;stroke-width:0.75;" x="618.910517" xlink:href="#m08ca335e9c" y="38.865699"/>
     <use style="fill:#1f77b4;stroke:#ffffff;stroke-width:0.75;" x="625.74535" xlink:href="#m08ca335e9c" y="38.865699"/>
     <use style="fill:#1f77b4;stroke:#ffffff;stroke-width:0.75;" x="632.580182" xlink:href="#m08ca335e9c" y="38.865699"/>
     <use style="fill:#1f77b4;stroke:#ffffff;stroke-width:0.75;" x="639.415015" xlink:href="#m08ca335e9c" y="38.865699"/>
     <use style="fill:#1f77b4;stroke:#ffffff;stroke-width:0.75;" x="646.249847" xlink:href="#m08ca335e9c" y="38.865699"/>
     <use style="fill:#1f77b4;stroke:#ffffff;stroke-width:0.75;" x="653.08468" xlink:href="#m08ca335e9c" y="38.865699"/>
     <use style="fill:#1f77b4;stroke:#ffffff;stroke-width:0.75;" x="659.919513" xlink:href="#m08ca335e9c" y="38.865699"/>
     <use style="fill:#1f77b4;stroke:#ffffff;stroke-width:0.75;" x="666.754345" xlink:href="#m08ca335e9c" y="38.865699"/>
     <use style="fill:#1f77b4;stroke:#ffffff;stroke-width:0.75;" x="673.589178" xlink:href="#m08ca335e9c" y="38.174937"/>
     <use style="fill:#1f77b4;stroke:#ffffff;stroke-width:0.75;" x="680.42401" xlink:href="#m08ca335e9c" y="38.174937"/>
     <use style="fill:#1f77b4;stroke:#ffffff;stroke-width:0.75;" x="687.258843" xlink:href="#m08ca335e9c" y="38.174937"/>
     <use style="fill:#1f77b4;stroke:#ffffff;stroke-width:0.75;" x="694.093675" xlink:href="#m08ca335e9c" y="38.174937"/>
     <use style="fill:#1f77b4;stroke:#ffffff;stroke-width:0.75;" x="700.928508" xlink:href="#m08ca335e9c" y="38.174937"/>
     <use style="fill:#1f77b4;stroke:#ffffff;stroke-width:0.75;" x="707.76334" xlink:href="#m08ca335e9c" y="38.174937"/>
     <use style="fill:#1f77b4;stroke:#ffffff;stroke-width:0.75;" x="714.598173" xlink:href="#m08ca335e9c" y="38.174937"/>
     <use style="fill:#1f77b4;stroke:#ffffff;stroke-width:0.75;" x="721.433005" xlink:href="#m08ca335e9c" y="38.174937"/>
     <use style="fill:#1f77b4;stroke:#ffffff;stroke-width:0.75;" x="728.267838" xlink:href="#m08ca335e9c" y="38.098186"/>
     <use style="fill:#1f77b4;stroke:#ffffff;stroke-width:0.75;" x="735.10267" xlink:href="#m08ca335e9c" y="38.098186"/>
    </g>
   </g>
   <g id="line2d_22">
    <path clip-path="url(#p4a3f9652cb)" d="M 85.79358 174.485191 
L 92.628412 162.895749 
L 99.463245 150.078287 
L 106.298077 149.00377 
L 113.13291 147.161739 
L 119.967742 146.470978 
L 126.802575 146.240724 
L 133.637407 145.089455 
L 140.47224 143.938186 
L 147.307072 143.170673 
L 154.141905 143.093922 
L 160.976737 142.863668 
L 167.81157 142.863668 
L 174.646403 142.863668 
L 181.481235 142.863668 
L 188.316068 142.863668 
L 195.1509 142.633414 
L 201.985733 142.172907 
L 208.820565 141.942653 
L 215.655398 141.251891 
L 222.49023 141.17514 
L 229.325063 141.17514 
L 236.159895 141.17514 
L 242.994728 132.886003 
L 249.82956 132.271993 
L 256.664393 132.041739 
L 263.499225 131.964988 
L 270.334058 131.964988 
L 277.168891 130.506714 
L 284.003723 129.432196 
L 290.838556 127.743668 
L 297.673388 127.666917 
L 304.508221 126.976155 
L 311.343053 126.822653 
L 318.177886 126.822653 
L 325.012718 126.822653 
L 331.847551 126.822653 
L 338.682383 126.66915 
L 345.517216 126.515648 
L 352.352048 126.515648 
L 359.186881 126.515648 
L 366.021714 126.515648 
L 372.856546 126.515648 
L 379.691379 126.515648 
L 386.526211 126.515648 
L 393.361044 126.515648 
L 400.195876 100.496968 
L 407.030709 100.266714 
L 413.865541 99.806206 
L 420.700374 99.499201 
L 427.535206 99.115445 
L 434.370039 99.115445 
L 441.204871 95.968643 
L 448.039704 95.508135 
L 454.874536 95.431384 
L 461.709369 95.354633 
L 468.544202 95.354633 
L 475.379034 95.354633 
L 482.213867 95.20113 
L 489.048699 95.20113 
L 495.883532 95.20113 
L 502.718364 95.20113 
L 509.553197 87.679506 
L 516.388029 85.683973 
L 523.222862 85.069963 
L 530.057694 84.30245 
L 536.892527 84.225699 
L 543.727359 83.68844 
L 550.562192 83.68844 
L 557.397025 83.68844 
L 564.231857 83.68844 
L 571.06669 83.611688 
L 577.901522 83.611688 
L 584.736355 83.611688 
L 591.571187 83.611688 
L 598.40602 83.611688 
L 605.240852 83.611688 
L 612.075685 83.458186 
L 618.910517 83.458186 
L 625.74535 83.458186 
L 632.580182 83.458186 
L 639.415015 83.458186 
L 646.249847 83.458186 
L 653.08468 83.458186 
L 659.919513 83.458186 
L 666.754345 83.458186 
L 673.589178 83.458186 
L 680.42401 83.458186 
L 687.258843 83.458186 
L 694.093675 81.692907 
L 700.928508 81.692907 
L 707.76334 80.69514 
L 714.598173 80.69514 
L 721.433005 80.69514 
L 728.267838 80.69514 
L 735.10267 80.69514 
" style="fill:none;stroke:#98df8a;stroke-linecap:square;stroke-width:1.5;"/>
    <defs>
     <path d="M -0 3 
L 3 -3 
L -3 -3 
z
" id="m6475eb5df9" style="stroke:#ffffff;stroke-linejoin:miter;stroke-width:0.75;"/>
    </defs>
    <g clip-path="url(#p4a3f9652cb)">
     <use style="fill:#98df8a;stroke:#ffffff;stroke-linejoin:miter;stroke-width:0.75;" x="85.79358" xlink:href="#m6475eb5df9" y="174.485191"/>
     <use style="fill:#98df8a;stroke:#ffffff;stroke-linejoin:miter;stroke-width:0.75;" x="92.628412" xlink:href="#m6475eb5df9" y="162.895749"/>
     <use style="fill:#98df8a;stroke:#ffffff;stroke-linejoin:miter;stroke-width:0.75;" x="99.463245" xlink:href="#m6475eb5df9" y="150.078287"/>
     <use style="fill:#98df8a;stroke:#ffffff;stroke-linejoin:miter;stroke-width:0.75;" x="106.298077" xlink:href="#m6475eb5df9" y="149.00377"/>
     <use style="fill:#98df8a;stroke:#ffffff;stroke-linejoin:miter;stroke-width:0.75;" x="113.13291" xlink:href="#m6475eb5df9" y="147.161739"/>
     <use style="fill:#98df8a;stroke:#ffffff;stroke-linejoin:miter;stroke-width:0.75;" x="119.967742" xlink:href="#m6475eb5df9" y="146.470978"/>
     <use style="fill:#98df8a;stroke:#ffffff;stroke-linejoin:miter;stroke-width:0.75;" x="126.802575" xlink:href="#m6475eb5df9" y="146.240724"/>
     <use style="fill:#98df8a;stroke:#ffffff;stroke-linejoin:miter;stroke-width:0.75;" x="133.637407" xlink:href="#m6475eb5df9" y="145.089455"/>
     <use style="fill:#98df8a;stroke:#ffffff;stroke-linejoin:miter;stroke-width:0.75;" x="140.47224" xlink:href="#m6475eb5df9" y="143.938186"/>
     <use style="fill:#98df8a;stroke:#ffffff;stroke-linejoin:miter;stroke-width:0.75;" x="147.307072" xlink:href="#m6475eb5df9" y="143.170673"/>
     <use style="fill:#98df8a;stroke:#ffffff;stroke-linejoin:miter;stroke-width:0.75;" x="154.141905" xlink:href="#m6475eb5df9" y="143.093922"/>
     <use style="fill:#98df8a;stroke:#ffffff;stroke-linejoin:miter;stroke-width:0.75;" x="160.976737" xlink:href="#m6475eb5df9" y="142.863668"/>
     <use style="fill:#98df8a;stroke:#ffffff;stroke-linejoin:miter;stroke-width:0.75;" x="167.81157" xlink:href="#m6475eb5df9" y="142.863668"/>
     <use style="fill:#98df8a;stroke:#ffffff;stroke-linejoin:miter;stroke-width:0.75;" x="174.646403" xlink:href="#m6475eb5df9" y="142.863668"/>
     <use style="fill:#98df8a;stroke:#ffffff;stroke-linejoin:miter;stroke-width:0.75;" x="181.481235" xlink:href="#m6475eb5df9" y="142.863668"/>
     <use style="fill:#98df8a;stroke:#ffffff;stroke-linejoin:miter;stroke-width:0.75;" x="188.316068" xlink:href="#m6475eb5df9" y="142.863668"/>
     <use style="fill:#98df8a;stroke:#ffffff;stroke-linejoin:miter;stroke-width:0.75;" x="195.1509" xlink:href="#m6475eb5df9" y="142.633414"/>
     <use style="fill:#98df8a;stroke:#ffffff;stroke-linejoin:miter;stroke-width:0.75;" x="201.985733" xlink:href="#m6475eb5df9" y="142.172907"/>
     <use style="fill:#98df8a;stroke:#ffffff;stroke-linejoin:miter;stroke-width:0.75;" x="208.820565" xlink:href="#m6475eb5df9" y="141.942653"/>
     <use style="fill:#98df8a;stroke:#ffffff;stroke-linejoin:miter;stroke-width:0.75;" x="215.655398" xlink:href="#m6475eb5df9" y="141.251891"/>
     <use style="fill:#98df8a;stroke:#ffffff;stroke-linejoin:miter;stroke-width:0.75;" x="222.49023" xlink:href="#m6475eb5df9" y="141.17514"/>
     <use style="fill:#98df8a;stroke:#ffffff;stroke-linejoin:miter;stroke-width:0.75;" x="229.325063" xlink:href="#m6475eb5df9" y="141.17514"/>
     <use style="fill:#98df8a;stroke:#ffffff;stroke-linejoin:miter;stroke-width:0.75;" x="236.159895" xlink:href="#m6475eb5df9" y="141.17514"/>
     <use style="fill:#98df8a;stroke:#ffffff;stroke-linejoin:miter;stroke-width:0.75;" x="242.994728" xlink:href="#m6475eb5df9" y="132.886003"/>
     <use style="fill:#98df8a;stroke:#ffffff;stroke-linejoin:miter;stroke-width:0.75;" x="249.82956" xlink:href="#m6475eb5df9" y="132.271993"/>
     <use style="fill:#98df8a;stroke:#ffffff;stroke-linejoin:miter;stroke-width:0.75;" x="256.664393" xlink:href="#m6475eb5df9" y="132.041739"/>
     <use style="fill:#98df8a;stroke:#ffffff;stroke-linejoin:miter;stroke-width:0.75;" x="263.499225" xlink:href="#m6475eb5df9" y="131.964988"/>
     <use style="fill:#98df8a;stroke:#ffffff;stroke-linejoin:miter;stroke-width:0.75;" x="270.334058" xlink:href="#m6475eb5df9" y="131.964988"/>
     <use style="fill:#98df8a;stroke:#ffffff;stroke-linejoin:miter;stroke-width:0.75;" x="277.168891" xlink:href="#m6475eb5df9" y="130.506714"/>
     <use style="fill:#98df8a;stroke:#ffffff;stroke-linejoin:miter;stroke-width:0.75;" x="284.003723" xlink:href="#m6475eb5df9" y="129.432196"/>
     <use style="fill:#98df8a;stroke:#ffffff;stroke-linejoin:miter;stroke-width:0.75;" x="290.838556" xlink:href="#m6475eb5df9" y="127.743668"/>
     <use style="fill:#98df8a;stroke:#ffffff;stroke-linejoin:miter;stroke-width:0.75;" x="297.673388" xlink:href="#m6475eb5df9" y="127.666917"/>
     <use style="fill:#98df8a;stroke:#ffffff;stroke-linejoin:miter;stroke-width:0.75;" x="304.508221" xlink:href="#m6475eb5df9" y="126.976155"/>
     <use style="fill:#98df8a;stroke:#ffffff;stroke-linejoin:miter;stroke-width:0.75;" x="311.343053" xlink:href="#m6475eb5df9" y="126.822653"/>
     <use style="fill:#98df8a;stroke:#ffffff;stroke-linejoin:miter;stroke-width:0.75;" x="318.177886" xlink:href="#m6475eb5df9" y="126.822653"/>
     <use style="fill:#98df8a;stroke:#ffffff;stroke-linejoin:miter;stroke-width:0.75;" x="325.012718" xlink:href="#m6475eb5df9" y="126.822653"/>
     <use style="fill:#98df8a;stroke:#ffffff;stroke-linejoin:miter;stroke-width:0.75;" x="331.847551" xlink:href="#m6475eb5df9" y="126.822653"/>
     <use style="fill:#98df8a;stroke:#ffffff;stroke-linejoin:miter;stroke-width:0.75;" x="338.682383" xlink:href="#m6475eb5df9" y="126.66915"/>
     <use style="fill:#98df8a;stroke:#ffffff;stroke-linejoin:miter;stroke-width:0.75;" x="345.517216" xlink:href="#m6475eb5df9" y="126.515648"/>
     <use style="fill:#98df8a;stroke:#ffffff;stroke-linejoin:miter;stroke-width:0.75;" x="352.352048" xlink:href="#m6475eb5df9" y="126.515648"/>
     <use style="fill:#98df8a;stroke:#ffffff;stroke-linejoin:miter;stroke-width:0.75;" x="359.186881" xlink:href="#m6475eb5df9" y="126.515648"/>
     <use style="fill:#98df8a;stroke:#ffffff;stroke-linejoin:miter;stroke-width:0.75;" x="366.021714" xlink:href="#m6475eb5df9" y="126.515648"/>
     <use style="fill:#98df8a;stroke:#ffffff;stroke-linejoin:miter;stroke-width:0.75;" x="372.856546" xlink:href="#m6475eb5df9" y="126.515648"/>
     <use style="fill:#98df8a;stroke:#ffffff;stroke-linejoin:miter;stroke-width:0.75;" x="379.691379" xlink:href="#m6475eb5df9" y="126.515648"/>
     <use style="fill:#98df8a;stroke:#ffffff;stroke-linejoin:miter;stroke-width:0.75;" x="386.526211" xlink:href="#m6475eb5df9" y="126.515648"/>
     <use style="fill:#98df8a;stroke:#ffffff;stroke-linejoin:miter;stroke-width:0.75;" x="393.361044" xlink:href="#m6475eb5df9" y="126.515648"/>
     <use style="fill:#98df8a;stroke:#ffffff;stroke-linejoin:miter;stroke-width:0.75;" x="400.195876" xlink:href="#m6475eb5df9" y="100.496968"/>
     <use style="fill:#98df8a;stroke:#ffffff;stroke-linejoin:miter;stroke-width:0.75;" x="407.030709" xlink:href="#m6475eb5df9" y="100.266714"/>
     <use style="fill:#98df8a;stroke:#ffffff;stroke-linejoin:miter;stroke-width:0.75;" x="413.865541" xlink:href="#m6475eb5df9" y="99.806206"/>
     <use style="fill:#98df8a;stroke:#ffffff;stroke-linejoin:miter;stroke-width:0.75;" x="420.700374" xlink:href="#m6475eb5df9" y="99.499201"/>
     <use style="fill:#98df8a;stroke:#ffffff;stroke-linejoin:miter;stroke-width:0.75;" x="427.535206" xlink:href="#m6475eb5df9" y="99.115445"/>
     <use style="fill:#98df8a;stroke:#ffffff;stroke-linejoin:miter;stroke-width:0.75;" x="434.370039" xlink:href="#m6475eb5df9" y="99.115445"/>
     <use style="fill:#98df8a;stroke:#ffffff;stroke-linejoin:miter;stroke-width:0.75;" x="441.204871" xlink:href="#m6475eb5df9" y="95.968643"/>
     <use style="fill:#98df8a;stroke:#ffffff;stroke-linejoin:miter;stroke-width:0.75;" x="448.039704" xlink:href="#m6475eb5df9" y="95.508135"/>
     <use style="fill:#98df8a;stroke:#ffffff;stroke-linejoin:miter;stroke-width:0.75;" x="454.874536" xlink:href="#m6475eb5df9" y="95.431384"/>
     <use style="fill:#98df8a;stroke:#ffffff;stroke-linejoin:miter;stroke-width:0.75;" x="461.709369" xlink:href="#m6475eb5df9" y="95.354633"/>
     <use style="fill:#98df8a;stroke:#ffffff;stroke-linejoin:miter;stroke-width:0.75;" x="468.544202" xlink:href="#m6475eb5df9" y="95.354633"/>
     <use style="fill:#98df8a;stroke:#ffffff;stroke-linejoin:miter;stroke-width:0.75;" x="475.379034" xlink:href="#m6475eb5df9" y="95.354633"/>
     <use style="fill:#98df8a;stroke:#ffffff;stroke-linejoin:miter;stroke-width:0.75;" x="482.213867" xlink:href="#m6475eb5df9" y="95.20113"/>
     <use style="fill:#98df8a;stroke:#ffffff;stroke-linejoin:miter;stroke-width:0.75;" x="489.048699" xlink:href="#m6475eb5df9" y="95.20113"/>
     <use style="fill:#98df8a;stroke:#ffffff;stroke-linejoin:miter;stroke-width:0.75;" x="495.883532" xlink:href="#m6475eb5df9" y="95.20113"/>
     <use style="fill:#98df8a;stroke:#ffffff;stroke-linejoin:miter;stroke-width:0.75;" x="502.718364" xlink:href="#m6475eb5df9" y="95.20113"/>
     <use style="fill:#98df8a;stroke:#ffffff;stroke-linejoin:miter;stroke-width:0.75;" x="509.553197" xlink:href="#m6475eb5df9" y="87.679506"/>
     <use style="fill:#98df8a;stroke:#ffffff;stroke-linejoin:miter;stroke-width:0.75;" x="516.388029" xlink:href="#m6475eb5df9" y="85.683973"/>
     <use style="fill:#98df8a;stroke:#ffffff;stroke-linejoin:miter;stroke-width:0.75;" x="523.222862" xlink:href="#m6475eb5df9" y="85.069963"/>
     <use style="fill:#98df8a;stroke:#ffffff;stroke-linejoin:miter;stroke-width:0.75;" x="530.057694" xlink:href="#m6475eb5df9" y="84.30245"/>
     <use style="fill:#98df8a;stroke:#ffffff;stroke-linejoin:miter;stroke-width:0.75;" x="536.892527" xlink:href="#m6475eb5df9" y="84.225699"/>
     <use style="fill:#98df8a;stroke:#ffffff;stroke-linejoin:miter;stroke-width:0.75;" x="543.727359" xlink:href="#m6475eb5df9" y="83.68844"/>
     <use style="fill:#98df8a;stroke:#ffffff;stroke-linejoin:miter;stroke-width:0.75;" x="550.562192" xlink:href="#m6475eb5df9" y="83.68844"/>
     <use style="fill:#98df8a;stroke:#ffffff;stroke-linejoin:miter;stroke-width:0.75;" x="557.397025" xlink:href="#m6475eb5df9" y="83.68844"/>
     <use style="fill:#98df8a;stroke:#ffffff;stroke-linejoin:miter;stroke-width:0.75;" x="564.231857" xlink:href="#m6475eb5df9" y="83.68844"/>
     <use style="fill:#98df8a;stroke:#ffffff;stroke-linejoin:miter;stroke-width:0.75;" x="571.06669" xlink:href="#m6475eb5df9" y="83.611688"/>
     <use style="fill:#98df8a;stroke:#ffffff;stroke-linejoin:miter;stroke-width:0.75;" x="577.901522" xlink:href="#m6475eb5df9" y="83.611688"/>
     <use style="fill:#98df8a;stroke:#ffffff;stroke-linejoin:miter;stroke-width:0.75;" x="584.736355" xlink:href="#m6475eb5df9" y="83.611688"/>
     <use style="fill:#98df8a;stroke:#ffffff;stroke-linejoin:miter;stroke-width:0.75;" x="591.571187" xlink:href="#m6475eb5df9" y="83.611688"/>
     <use style="fill:#98df8a;stroke:#ffffff;stroke-linejoin:miter;stroke-width:0.75;" x="598.40602" xlink:href="#m6475eb5df9" y="83.611688"/>
     <use style="fill:#98df8a;stroke:#ffffff;stroke-linejoin:miter;stroke-width:0.75;" x="605.240852" xlink:href="#m6475eb5df9" y="83.611688"/>
     <use style="fill:#98df8a;stroke:#ffffff;stroke-linejoin:miter;stroke-width:0.75;" x="612.075685" xlink:href="#m6475eb5df9" y="83.458186"/>
     <use style="fill:#98df8a;stroke:#ffffff;stroke-linejoin:miter;stroke-width:0.75;" x="618.910517" xlink:href="#m6475eb5df9" y="83.458186"/>
     <use style="fill:#98df8a;stroke:#ffffff;stroke-linejoin:miter;stroke-width:0.75;" x="625.74535" xlink:href="#m6475eb5df9" y="83.458186"/>
     <use style="fill:#98df8a;stroke:#ffffff;stroke-linejoin:miter;stroke-width:0.75;" x="632.580182" xlink:href="#m6475eb5df9" y="83.458186"/>
     <use style="fill:#98df8a;stroke:#ffffff;stroke-linejoin:miter;stroke-width:0.75;" x="639.415015" xlink:href="#m6475eb5df9" y="83.458186"/>
     <use style="fill:#98df8a;stroke:#ffffff;stroke-linejoin:miter;stroke-width:0.75;" x="646.249847" xlink:href="#m6475eb5df9" y="83.458186"/>
     <use style="fill:#98df8a;stroke:#ffffff;stroke-linejoin:miter;stroke-width:0.75;" x="653.08468" xlink:href="#m6475eb5df9" y="83.458186"/>
     <use style="fill:#98df8a;stroke:#ffffff;stroke-linejoin:miter;stroke-width:0.75;" x="659.919513" xlink:href="#m6475eb5df9" y="83.458186"/>
     <use style="fill:#98df8a;stroke:#ffffff;stroke-linejoin:miter;stroke-width:0.75;" x="666.754345" xlink:href="#m6475eb5df9" y="83.458186"/>
     <use style="fill:#98df8a;stroke:#ffffff;stroke-linejoin:miter;stroke-width:0.75;" x="673.589178" xlink:href="#m6475eb5df9" y="83.458186"/>
     <use style="fill:#98df8a;stroke:#ffffff;stroke-linejoin:miter;stroke-width:0.75;" x="680.42401" xlink:href="#m6475eb5df9" y="83.458186"/>
     <use style="fill:#98df8a;stroke:#ffffff;stroke-linejoin:miter;stroke-width:0.75;" x="687.258843" xlink:href="#m6475eb5df9" y="83.458186"/>
     <use style="fill:#98df8a;stroke:#ffffff;stroke-linejoin:miter;stroke-width:0.75;" x="694.093675" xlink:href="#m6475eb5df9" y="81.692907"/>
     <use style="fill:#98df8a;stroke:#ffffff;stroke-linejoin:miter;stroke-width:0.75;" x="700.928508" xlink:href="#m6475eb5df9" y="81.692907"/>
     <use style="fill:#98df8a;stroke:#ffffff;stroke-linejoin:miter;stroke-width:0.75;" x="707.76334" xlink:href="#m6475eb5df9" y="80.69514"/>
     <use style="fill:#98df8a;stroke:#ffffff;stroke-linejoin:miter;stroke-width:0.75;" x="714.598173" xlink:href="#m6475eb5df9" y="80.69514"/>
     <use style="fill:#98df8a;stroke:#ffffff;stroke-linejoin:miter;stroke-width:0.75;" x="721.433005" xlink:href="#m6475eb5df9" y="80.69514"/>
     <use style="fill:#98df8a;stroke:#ffffff;stroke-linejoin:miter;stroke-width:0.75;" x="728.267838" xlink:href="#m6475eb5df9" y="80.69514"/>
     <use style="fill:#98df8a;stroke:#ffffff;stroke-linejoin:miter;stroke-width:0.75;" x="735.10267" xlink:href="#m6475eb5df9" y="80.69514"/>
    </g>
   </g>
   <g id="line2d_23"/>
   <g id="line2d_24"/>
   <g id="line2d_25">
    <path clip-path="url(#p4a3f9652cb)" d="M 735.10267 288.430125 
L 735.10267 22.318125 
" style="fill:none;stroke:#ff0000;stroke-linecap:square;stroke-width:1.5;"/>
   </g>
   <g id="patch_3">
    <path d="M 53.328125 258.681333 
L 53.328125 43.77778 
" style="fill:none;stroke:#000000;stroke-linecap:square;stroke-linejoin:miter;stroke-width:0.8;"/>
   </g>
   <g id="patch_4">
    <path d="M 85.79358 288.430125 
L 687.258843 288.430125 
" style="fill:none;stroke:#000000;stroke-linecap:square;stroke-linejoin:miter;stroke-width:0.8;"/>
   </g>
   <g id="text_23">
    <!-- libjpeg-turbo-07-2017 (24h, 10 trials/fuzzer) -->
    <g transform="translate(277.985938 16.318125)scale(0.12 -0.12)">
     <defs>
      <path d="M 603 4863 
L 1178 4863 
L 1178 0 
L 603 0 
L 603 4863 
z
" id="DejaVuSans-6c" transform="scale(0.015625)"/>
      <path d="M 603 3500 
L 1178 3500 
L 1178 -63 
Q 1178 -731 923 -1031 
Q 669 -1331 103 -1331 
L -116 -1331 
L -116 -844 
L 38 -844 
Q 366 -844 484 -692 
Q 603 -541 603 -63 
L 603 3500 
z
M 603 4863 
L 1178 4863 
L 1178 4134 
L 603 4134 
L 603 4863 
z
" id="DejaVuSans-6a" transform="scale(0.015625)"/>
      <path d="M 1159 525 
L 1159 -1331 
L 581 -1331 
L 581 3500 
L 1159 3500 
L 1159 2969 
Q 1341 3281 1617 3432 
Q 1894 3584 2278 3584 
Q 2916 3584 3314 3078 
Q 3713 2572 3713 1747 
Q 3713 922 3314 415 
Q 2916 -91 2278 -91 
Q 1894 -91 1617 61 
Q 1341 213 1159 525 
z
M 3116 1747 
Q 3116 2381 2855 2742 
Q 2594 3103 2138 3103 
Q 1681 3103 1420 2742 
Q 1159 2381 1159 1747 
Q 1159 1113 1420 752 
Q 1681 391 2138 391 
Q 2594 391 2855 752 
Q 3116 1113 3116 1747 
z
" id="DejaVuSans-70" transform="scale(0.015625)"/>
      <path d="M 313 2009 
L 1997 2009 
L 1997 1497 
L 313 1497 
L 313 2009 
z
" id="DejaVuSans-2d" transform="scale(0.015625)"/>
      <path d="M 525 4666 
L 3525 4666 
L 3525 4397 
L 1831 0 
L 1172 0 
L 2766 4134 
L 525 4134 
L 525 4666 
z
" id="DejaVuSans-37" transform="scale(0.015625)"/>
      <path d="M 750 794 
L 1409 794 
L 1409 256 
L 897 -744 
L 494 -744 
L 750 256 
L 750 794 
z
" id="DejaVuSans-2c" transform="scale(0.015625)"/>
      <path d="M 2834 3397 
L 2834 2853 
Q 2591 2978 2328 3040 
Q 2066 3103 1784 3103 
Q 1356 3103 1142 2972 
Q 928 2841 928 2578 
Q 928 2378 1081 2264 
Q 1234 2150 1697 2047 
L 1894 2003 
Q 2506 1872 2764 1633 
Q 3022 1394 3022 966 
Q 3022 478 2636 193 
Q 2250 -91 1575 -91 
Q 1294 -91 989 -36 
Q 684 19 347 128 
L 347 722 
Q 666 556 975 473 
Q 1284 391 1588 391 
Q 1994 391 2212 530 
Q 2431 669 2431 922 
Q 2431 1156 2273 1281 
Q 2116 1406 1581 1522 
L 1381 1569 
Q 847 1681 609 1914 
Q 372 2147 372 2553 
Q 372 3047 722 3315 
Q 1072 3584 1716 3584 
Q 2034 3584 2315 3537 
Q 2597 3491 2834 3397 
z
" id="DejaVuSans-73" transform="scale(0.015625)"/>
      <path d="M 1625 4666 
L 2156 4666 
L 531 -594 
L 0 -594 
L 1625 4666 
z
" id="DejaVuSans-2f" transform="scale(0.015625)"/>
      <path d="M 2375 4863 
L 2375 4384 
L 1825 4384 
Q 1516 4384 1395 4259 
Q 1275 4134 1275 3809 
L 1275 3500 
L 2222 3500 
L 2222 3053 
L 1275 3053 
L 1275 0 
L 697 0 
L 697 3053 
L 147 3053 
L 147 3500 
L 697 3500 
L 697 3744 
Q 697 4328 969 4595 
Q 1241 4863 1831 4863 
L 2375 4863 
z
" id="DejaVuSans-66" transform="scale(0.015625)"/>
      <path d="M 353 3500 
L 3084 3500 
L 3084 2975 
L 922 459 
L 3084 459 
L 3084 0 
L 275 0 
L 275 525 
L 2438 3041 
L 353 3041 
L 353 3500 
z
" id="DejaVuSans-7a" transform="scale(0.015625)"/>
     </defs>
     <use xlink:href="#DejaVuSans-6c"/>
     <use x="27.783203" xlink:href="#DejaVuSans-69"/>
     <use x="55.566406" xlink:href="#DejaVuSans-62"/>
     <use x="119.042969" xlink:href="#DejaVuSans-6a"/>
     <use x="146.826172" xlink:href="#DejaVuSans-70"/>
     <use x="210.302734" xlink:href="#DejaVuSans-65"/>
     <use x="271.826172" xlink:href="#DejaVuSans-67"/>
     <use x="335.302734" xlink:href="#DejaVuSans-2d"/>
     <use x="371.386719" xlink:href="#DejaVuSans-74"/>
     <use x="410.595703" xlink:href="#DejaVuSans-75"/>
     <use x="473.974609" xlink:href="#DejaVuSans-72"/>
     <use x="515.087891" xlink:href="#DejaVuSans-62"/>
     <use x="578.564453" xlink:href="#DejaVuSans-6f"/>
     <use x="641.621094" xlink:href="#DejaVuSans-2d"/>
     <use x="677.705078" xlink:href="#DejaVuSans-30"/>
     <use x="741.328125" xlink:href="#DejaVuSans-37"/>
     <use x="804.951172" xlink:href="#DejaVuSans-2d"/>
     <use x="841.035156" xlink:href="#DejaVuSans-32"/>
     <use x="904.658203" xlink:href="#DejaVuSans-30"/>
     <use x="968.28125" xlink:href="#DejaVuSans-31"/>
     <use x="1031.904297" xlink:href="#DejaVuSans-37"/>
     <use x="1095.527344" xlink:href="#DejaVuSans-20"/>
     <use x="1127.314453" xlink:href="#DejaVuSans-28"/>
     <use x="1166.328125" xlink:href="#DejaVuSans-32"/>
     <use x="1229.951172" xlink:href="#DejaVuSans-34"/>
     <use x="1293.574219" xlink:href="#DejaVuSans-68"/>
     <use x="1356.953125" xlink:href="#DejaVuSans-2c"/>
     <use x="1388.740234" xlink:href="#DejaVuSans-20"/>
     <use x="1420.527344" xlink:href="#DejaVuSans-31"/>
     <use x="1484.150391" xlink:href="#DejaVuSans-30"/>
     <use x="1547.773438" xlink:href="#DejaVuSans-20"/>
     <use x="1579.560547" xlink:href="#DejaVuSans-74"/>
     <use x="1618.769531" xlink:href="#DejaVuSans-72"/>
     <use x="1659.882812" xlink:href="#DejaVuSans-69"/>
     <use x="1687.666016" xlink:href="#DejaVuSans-61"/>
     <use x="1748.945312" xlink:href="#DejaVuSans-6c"/>
     <use x="1776.728516" xlink:href="#DejaVuSans-73"/>
     <use x="1828.828125" xlink:href="#DejaVuSans-2f"/>
     <use x="1862.519531" xlink:href="#DejaVuSans-66"/>
     <use x="1897.724609" xlink:href="#DejaVuSans-75"/>
     <use x="1961.103516" xlink:href="#DejaVuSans-7a"/>
     <use x="2013.59375" xlink:href="#DejaVuSans-7a"/>
     <use x="2066.083984" xlink:href="#DejaVuSans-65"/>
     <use x="2127.607422" xlink:href="#DejaVuSans-72"/>
     <use x="2168.720703" xlink:href="#DejaVuSans-29"/>
    </g>
   </g>
   <g id="legend_1">
    <g id="line2d_26">
     <path d="M 771.568125 30.416562 
L 791.568125 30.416562 
" style="fill:none;stroke:#1f77b4;stroke-linecap:square;stroke-width:1.5;"/>
    </g>
    <g id="line2d_27">
     <defs>
      <path d="M 0 3 
C 0.795609 3 1.55874 2.683901 2.12132 2.12132 
C 2.683901 1.55874 3 0.795609 3 0 
C 3 -0.795609 2.683901 -1.55874 2.12132 -2.12132 
C 1.55874 -2.683901 0.795609 -3 0 -3 
C -0.795609 -3 -1.55874 -2.683901 -2.12132 -2.12132 
C -2.683901 -1.55874 -3 -0.795609 -3 0 
C -3 0.795609 -2.683901 1.55874 -2.12132 2.12132 
C -1.55874 2.683901 -0.795609 3 0 3 
z
" id="me7ecbba2f5" style="stroke:#1f77b4;"/>
     </defs>
     <g>
      <use style="fill:#1f77b4;stroke:#1f77b4;" x="781.568125" xlink:href="#me7ecbba2f5" y="30.416562"/>
     </g>
    </g>
    <g id="text_24">
     <!-- aflplusplus -->
     <g transform="translate(799.568125 33.916562)scale(0.1 -0.1)">
      <use xlink:href="#DejaVuSans-61"/>
      <use x="61.279297" xlink:href="#DejaVuSans-66"/>
      <use x="96.484375" xlink:href="#DejaVuSans-6c"/>
      <use x="124.267578" xlink:href="#DejaVuSans-70"/>
      <use x="187.744141" xlink:href="#DejaVuSans-6c"/>
      <use x="215.527344" xlink:href="#DejaVuSans-75"/>
      <use x="278.90625" xlink:href="#DejaVuSans-73"/>
      <use x="331.005859" xlink:href="#DejaVuSans-70"/>
      <use x="394.482422" xlink:href="#DejaVuSans-6c"/>
      <use x="422.265625" xlink:href="#DejaVuSans-75"/>
      <use x="485.644531" xlink:href="#DejaVuSans-73"/>
     </g>
    </g>
    <g id="line2d_28">
     <path d="M 771.568125 45.094688 
L 791.568125 45.094688 
" style="fill:none;stroke:#98df8a;stroke-linecap:square;stroke-width:1.5;"/>
    </g>
    <g id="line2d_29">
     <defs>
      <path d="M -0 3 
L 3 -3 
L -3 -3 
z
" id="mb9001552f2" style="stroke:#98df8a;stroke-linejoin:miter;"/>
     </defs>
     <g>
      <use style="fill:#98df8a;stroke:#98df8a;stroke-linejoin:miter;" x="781.568125" xlink:href="#mb9001552f2" y="45.094688"/>
     </g>
    </g>
    <g id="text_25">
     <!-- libfuzzer -->
     <g transform="translate(799.568125 48.594688)scale(0.1 -0.1)">
      <use xlink:href="#DejaVuSans-6c"/>
      <use x="27.783203" xlink:href="#DejaVuSans-69"/>
      <use x="55.566406" xlink:href="#DejaVuSans-62"/>
      <use x="119.042969" xlink:href="#DejaVuSans-66"/>
      <use x="154.248047" xlink:href="#DejaVuSans-75"/>
      <use x="217.626953" xlink:href="#DejaVuSans-7a"/>
      <use x="270.117188" xlink:href="#DejaVuSans-7a"/>
      <use x="322.607422" xlink:href="#DejaVuSans-65"/>
      <use x="384.130859" xlink:href="#DejaVuSans-72"/>
     </g>
    </g>
   </g>
  </g>
 </g>
 <defs>
  <clipPath id="p4a3f9652cb">
   <rect height="266.112" width="714.24" x="53.328125" y="22.318125"/>
  </clipPath>
 </defs>
</svg>
