<?xml version="1.0" encoding="utf-8" standalone="no"?>
<!DOCTYPE svg PUBLIC "-//W3C//DTD SVG 1.1//EN"
  "http://www.w3.org/Graphics/SVG/1.1/DTD/svg11.dtd">
<svg xmlns:xlink="http://www.w3.org/1999/xlink" width="864.541562pt" height="325.986375pt" viewBox="0 0 864.541562 325.986375" xmlns="http://www.w3.org/2000/svg" version="1.1">
 <metadata>
  <rdf:RDF xmlns:dc="http://purl.org/dc/elements/1.1/" xmlns:cc="http://creativecommons.org/ns#" xmlns:rdf="http://www.w3.org/1999/02/22-rdf-syntax-ns#">
   <cc:Work>
    <dc:type rdf:resource="http://purl.org/dc/dcmitype/StillImage"/>
    <dc:date>2022-10-22T20:53:50.037483</dc:date>
    <dc:format>image/svg+xml</dc:format>
    <dc:creator>
     <cc:Agent>
      <dc:title>Matplotlib v3.6.0, https://matplotlib.org/</dc:title>
     </cc:Agent>
    </dc:creator>
   </cc:Work>
  </rdf:RDF>
 </metadata>
 <defs>
  <style type="text/css">*{stroke-linejoin: round; stroke-linecap: butt}</style>
 </defs>
 <g id="figure_1">
  <g id="patch_1">
   <path d="M 0 325.986375 
L 864.541562 325.986375 
L 864.541562 0 
L 0 0 
z
" style="fill: #ffffff"/>
  </g>
  <g id="axes_1">
   <g id="patch_2">
    <path d="M 53.328125 288.430125 
L 767.568125 288.430125 
L 767.568125 22.318125 
L 53.328125 22.318125 
z
" style="fill: #ffffff"/>
   </g>
   <g id="PolyCollection_1">
    <defs>
     <path id="m0fdfd5eaf5" d="M 85.79358 -170.505606 
L 85.79358 -124.425122 
L 251.989452 -144.829727 
L 349.207805 -167.255494 
L 418.185324 -180.255939 
L 471.688445 -192.200098 
L 515.403677 -197.644035 
L 552.36438 -205.322423 
L 584.381197 -210.806985 
L 612.622031 -214.376014 
L 637.884317 -222.91365 
L 660.736835 -226.895036 
L 681.59955 -227.866007 
L 700.791387 -235.548457 
L 718.560252 -237.336018 
L 735.10267 -241.886174 
L 735.10267 -291.57225 
L 735.10267 -291.57225 
L 718.560252 -288.322139 
L 700.791387 -273.45288 
L 681.59955 -271.99033 
L 660.736835 -267.03391 
L 637.884317 -258.380489 
L 612.622031 -245.664429 
L 584.381197 -240.342371 
L 552.36438 -235.426578 
L 515.403677 -229.495125 
L 471.688445 -223.482419 
L 418.185324 -217.632219 
L 349.207805 -204.347389 
L 251.989452 -190.454179 
L 85.79358 -170.505606 
z
" style="stroke: #ff7f0e; stroke-opacity: 0.2"/>
    </defs>
    <g clip-path="url(#pf76ab4b984)">
     <use xlink:href="#m0fdfd5eaf5" x="0" y="325.986375" style="fill: #ff7f0e; fill-opacity: 0.2; stroke: #ff7f0e; stroke-opacity: 0.2"/>
    </g>
   </g>
   <g id="PolyCollection_2">
    <defs>
     <path id="m9cff82cc5d" d="M 85.79358 -108.438637 
L 85.79358 -79.136853 
L 251.989452 -105.097117 
L 349.207805 -117.203781 
L 418.185324 -126.710357 
L 471.688445 -134.429371 
L 515.403677 -139.748381 
L 552.36438 -149.866384 
L 584.381197 -160.99903 
L 612.622031 -164.411647 
L 637.884317 -171.236881 
L 660.736835 -175.137014 
L 681.59955 -185.766909 
L 700.791387 -190.656296 
L 718.560252 -198.862826 
L 735.10267 -205.275702 
L 735.10267 -235.264072 
L 735.10267 -235.264072 
L 718.560252 -227.555215 
L 700.791387 -223.910012 
L 681.59955 -224.388388 
L 660.736835 -208.044391 
L 637.884317 -203.819246 
L 612.622031 -193.98766 
L 584.381197 -188.828108 
L 552.36438 -181.282772 
L 515.403677 -173.430706 
L 471.688445 -163.314735 
L 418.185324 -146.942299 
L 349.207805 -141.660868 
L 251.989452 -129.229193 
L 85.79358 -108.438637 
z
" style="stroke: #98df8a; stroke-opacity: 0.2"/>
    </defs>
    <g clip-path="url(#pf76ab4b984)">
     <use xlink:href="#m9cff82cc5d" x="0" y="325.986375" style="fill: #98df8a; fill-opacity: 0.2; stroke: #98df8a; stroke-opacity: 0.2"/>
    </g>
   </g>
   <g id="PolyCollection_3">
    <defs>
     <path id="m318d0b1497" d="M 85.79358 -94.290497 
L 85.79358 -64.714484 
L 251.989452 -80.680656 
L 349.207805 -90.146605 
L 418.185324 -96.803239 
L 471.688445 -109.56602 
L 515.403677 -116.391253 
L 552.36438 -122.005821 
L 584.381197 -128.679721 
L 612.622031 -127.550307 
L 637.884317 -134.023107 
L 660.736835 -137.110713 
L 681.59955 -140.523329 
L 700.791387 -143.732814 
L 718.560252 -141.888376 
L 735.10267 -149.173704 
L 735.10267 -193.261463 
L 735.10267 -193.261463 
L 718.560252 -187.499625 
L 700.791387 -185.618623 
L 681.59955 -182.124753 
L 660.736835 -178.712137 
L 637.884317 -177.046455 
L 612.622031 -172.455672 
L 584.381197 -164.736658 
L 552.36438 -157.952051 
L 515.403677 -150.964312 
L 471.688445 -142.717154 
L 418.185324 -126.954115 
L 349.207805 -121.110009 
L 251.989452 -109.431953 
L 85.79358 -94.290497 
z
" style="stroke: #d62728; stroke-opacity: 0.2"/>
    </defs>
    <g clip-path="url(#pf76ab4b984)">
     <use xlink:href="#m318d0b1497" x="0" y="325.986375" style="fill: #d62728; fill-opacity: 0.2; stroke: #d62728; stroke-opacity: 0.2"/>
    </g>
   </g>
   <g id="PolyCollection_4">
    <defs>
     <path id="mb63a6a0d58" d="M 85.79358 -103.797072 
L 85.79358 -64.105088 
L 251.989452 -75.11484 
L 349.207805 -93.071705 
L 418.185324 -94.127991 
L 471.688445 -104.447094 
L 515.403677 -107.334615 
L 552.36438 -111.794377 
L 584.381197 -113.606314 
L 612.622031 -114.928703 
L 637.884317 -118.922277 
L 660.736835 -123.988388 
L 681.59955 -112.001572 
L 700.791387 -119.397606 
L 718.560252 -128.782302 
L 735.10267 -124.232147 
L 735.10267 -168.397096 
L 735.10267 -168.397096 
L 718.560252 -166.199208 
L 700.791387 -164.980417 
L 681.59955 -161.5678 
L 660.736835 -161.486547 
L 637.884317 -158.040413 
L 612.622031 -153.933085 
L 584.381197 -151.736213 
L 552.36438 -150.19241 
L 515.403677 -147.592321 
L 471.688445 -141.092099 
L 418.185324 -135.607536 
L 349.207805 -133.901228 
L 251.989452 -123.29774 
L 85.79358 -103.797072 
z
" style="stroke: #c7c7c7; stroke-opacity: 0.2"/>
    </defs>
    <g clip-path="url(#pf76ab4b984)">
     <use xlink:href="#mb63a6a0d58" x="0" y="325.986375" style="fill: #c7c7c7; fill-opacity: 0.2; stroke: #c7c7c7; stroke-opacity: 0.2"/>
    </g>
   </g>
   <g id="PolyCollection_5">
    <defs>
     <path id="m8d4e01eadb" d="M 85.79358 -100.953225 
L 85.79358 -49.65225 
L 251.989452 -67.226211 
L 349.207805 -76.780522 
L 418.185324 -93.286009 
L 471.688445 -92.823884 
L 515.403677 -89.374704 
L 552.36438 -107.940964 
L 584.381197 -99.231682 
L 612.622031 -103.75543 
L 637.884317 -106.234656 
L 660.736835 -113.425527 
L 681.59955 -112.572373 
L 700.791387 -111.755782 
L 718.560252 -112.287988 
L 735.10267 -113.791164 
L 735.10267 -150.111158 
L 735.10267 -150.111158 
L 718.560252 -148.689234 
L 700.791387 -146.37353 
L 681.59955 -145.400528 
L 660.736835 -143.285924 
L 637.884317 -142.87966 
L 612.622031 -141.919862 
L 584.381197 -138.979527 
L 552.36438 -134.348118 
L 515.403677 -133.0887 
L 471.688445 -129.188566 
L 418.185324 -126.306124 
L 349.207805 -120.456939 
L 251.989452 -113.303648 
L 85.79358 -100.953225 
z
" style="stroke: #ff9896; stroke-opacity: 0.2"/>
    </defs>
    <g clip-path="url(#pf76ab4b984)">
     <use xlink:href="#m8d4e01eadb" x="0" y="325.986375" style="fill: #ff9896; fill-opacity: 0.2; stroke: #ff9896; stroke-opacity: 0.2"/>
    </g>
   </g>
   <g id="PolyCollection_6">
    <defs>
     <path id="ma4bf15304a" d="M 85.79358 -83.608803 
L 85.79358 -53.867238 
L 251.989452 -67.842716 
L 349.207805 -71.702224 
L 418.185324 -74.708576 
L 471.688445 -77.511797 
L 515.403677 -84.01202 
L 552.36438 -90.227858 
L 584.381197 -97.701082 
L 612.622031 -99.297699 
L 637.884317 -105.828392 
L 660.736835 -111.876646 
L 681.59955 -112.402757 
L 700.791387 -112.978636 
L 718.560252 -119.925749 
L 735.10267 -118.828837 
L 735.10267 -143.367177 
L 735.10267 -143.367177 
L 718.560252 -139.402041 
L 700.791387 -139.873307 
L 681.59955 -138.085746 
L 660.736835 -135.045876 
L 637.884317 -127.319752 
L 612.622031 -120.34217 
L 584.381197 -116.635012 
L 552.36438 -114.402591 
L 515.403677 -112.816131 
L 471.688445 -108.31168 
L 418.185324 -106.356535 
L 349.207805 -104.284589 
L 251.989452 -97.946872 
L 85.79358 -83.608803 
z
" style="stroke: #1f77b4; stroke-opacity: 0.2"/>
    </defs>
    <g clip-path="url(#pf76ab4b984)">
     <use xlink:href="#ma4bf15304a" x="0" y="325.986375" style="fill: #1f77b4; fill-opacity: 0.2; stroke: #1f77b4; stroke-opacity: 0.2"/>
    </g>
   </g>
   <g id="matplotlib.axis_1">
    <g id="xtick_1">
     <g id="line2d_1">
      <defs>
       <path id="m44bfd27a2b" d="M 0 0 
L 0 3.5 
" style="stroke: #000000; stroke-width: 0.8"/>
      </defs>
      <g>
       <use xlink:href="#m44bfd27a2b" x="735.10267" y="288.430125" style="stroke: #000000; stroke-width: 0.8"/>
      </g>
     </g>
     <g id="text_1">
      <!-- 14m -->
      <g transform="translate(723.869858 303.028562) scale(0.1 -0.1)">
       <defs>
        <path id="DejaVuSans-31" d="M 794 531 
L 1825 531 
L 1825 4091 
L 703 3866 
L 703 4441 
L 1819 4666 
L 2450 4666 
L 2450 531 
L 3481 531 
L 3481 0 
L 794 0 
L 794 531 
z
" transform="scale(0.015625)"/>
        <path id="DejaVuSans-34" d="M 2419 4116 
L 825 1625 
L 2419 1625 
L 2419 4116 
z
M 2253 4666 
L 3047 4666 
L 3047 1625 
L 3713 1625 
L 3713 1100 
L 3047 1100 
L 3047 0 
L 2419 0 
L 2419 1100 
L 313 1100 
L 313 1709 
L 2253 4666 
z
" transform="scale(0.015625)"/>
        <path id="DejaVuSans-6d" d="M 3328 2828 
Q 3544 3216 3844 3400 
Q 4144 3584 4550 3584 
Q 5097 3584 5394 3201 
Q 5691 2819 5691 2113 
L 5691 0 
L 5113 0 
L 5113 2094 
Q 5113 2597 4934 2840 
Q 4756 3084 4391 3084 
Q 3944 3084 3684 2787 
Q 3425 2491 3425 1978 
L 3425 0 
L 2847 0 
L 2847 2094 
Q 2847 2600 2669 2842 
Q 2491 3084 2119 3084 
Q 1678 3084 1418 2786 
Q 1159 2488 1159 1978 
L 1159 0 
L 581 0 
L 581 3500 
L 1159 3500 
L 1159 2956 
Q 1356 3278 1631 3431 
Q 1906 3584 2284 3584 
Q 2666 3584 2933 3390 
Q 3200 3197 3328 2828 
z
" transform="scale(0.015625)"/>
       </defs>
       <use xlink:href="#DejaVuSans-31"/>
       <use xlink:href="#DejaVuSans-34" x="63.623047"/>
       <use xlink:href="#DejaVuSans-6d" x="127.246094"/>
      </g>
     </g>
    </g>
    <g id="xtick_2">
     <g id="line2d_2">
      <g>
       <use xlink:href="#m44bfd27a2b" x="735.126876" y="288.430125" style="stroke: #000000; stroke-width: 0.8"/>
      </g>
     </g>
     <g id="text_2">
      <!-- 15m -->
      <g transform="translate(723.894064 303.028562) scale(0.1 -0.1)">
       <defs>
        <path id="DejaVuSans-35" d="M 691 4666 
L 3169 4666 
L 3169 4134 
L 1269 4134 
L 1269 2991 
Q 1406 3038 1543 3061 
Q 1681 3084 1819 3084 
Q 2600 3084 3056 2656 
Q 3513 2228 3513 1497 
Q 3513 744 3044 326 
Q 2575 -91 1722 -91 
Q 1428 -91 1123 -41 
Q 819 9 494 109 
L 494 744 
Q 775 591 1075 516 
Q 1375 441 1709 441 
Q 2250 441 2565 725 
Q 2881 1009 2881 1497 
Q 2881 1984 2565 2268 
Q 2250 2553 1709 2553 
Q 1456 2553 1204 2497 
Q 953 2441 691 2322 
L 691 4666 
z
" transform="scale(0.015625)"/>
       </defs>
       <use xlink:href="#DejaVuSans-31"/>
       <use xlink:href="#DejaVuSans-35" x="63.623047"/>
       <use xlink:href="#DejaVuSans-6d" x="127.246094"/>
      </g>
     </g>
    </g>
    <g id="xtick_3">
     <g id="line2d_3">
      <g>
       <use xlink:href="#m44bfd27a2b" x="735.151082" y="288.430125" style="stroke: #000000; stroke-width: 0.8"/>
      </g>
     </g>
     <g id="text_3">
      <!-- 15m -->
      <g transform="translate(723.918269 303.028562) scale(0.1 -0.1)">
       <use xlink:href="#DejaVuSans-31"/>
       <use xlink:href="#DejaVuSans-35" x="63.623047"/>
       <use xlink:href="#DejaVuSans-6d" x="127.246094"/>
      </g>
     </g>
    </g>
    <g id="xtick_4">
     <g id="line2d_4">
      <g>
       <use xlink:href="#m44bfd27a2b" x="735.175288" y="288.430125" style="stroke: #000000; stroke-width: 0.8"/>
      </g>
     </g>
     <g id="text_4">
      <!-- 15m -->
      <g transform="translate(723.942475 303.028562) scale(0.1 -0.1)">
       <use xlink:href="#DejaVuSans-31"/>
       <use xlink:href="#DejaVuSans-35" x="63.623047"/>
       <use xlink:href="#DejaVuSans-6d" x="127.246094"/>
      </g>
     </g>
    </g>
    <g id="xtick_5">
     <g id="line2d_5">
      <g>
       <use xlink:href="#m44bfd27a2b" x="735.199493" y="288.430125" style="stroke: #000000; stroke-width: 0.8"/>
      </g>
     </g>
     <g id="text_5">
      <!-- 15m -->
      <g transform="translate(723.966681 303.028562) scale(0.1 -0.1)">
       <use xlink:href="#DejaVuSans-31"/>
       <use xlink:href="#DejaVuSans-35" x="63.623047"/>
       <use xlink:href="#DejaVuSans-6d" x="127.246094"/>
      </g>
     </g>
    </g>
    <g id="xtick_6">
     <g id="line2d_6">
      <g>
       <use xlink:href="#m44bfd27a2b" x="735.223699" y="288.430125" style="stroke: #000000; stroke-width: 0.8"/>
      </g>
     </g>
     <g id="text_6">
      <!-- 15m -->
      <g transform="translate(723.990887 303.028562) scale(0.1 -0.1)">
       <use xlink:href="#DejaVuSans-31"/>
       <use xlink:href="#DejaVuSans-35" x="63.623047"/>
       <use xlink:href="#DejaVuSans-6d" x="127.246094"/>
      </g>
     </g>
    </g>
    <g id="xtick_7">
     <g id="line2d_7">
      <g>
       <use xlink:href="#m44bfd27a2b" x="735.247905" y="288.430125" style="stroke: #000000; stroke-width: 0.8"/>
      </g>
     </g>
     <g id="text_7">
      <!-- 15m -->
      <g transform="translate(724.015092 303.028562) scale(0.1 -0.1)">
       <use xlink:href="#DejaVuSans-31"/>
       <use xlink:href="#DejaVuSans-35" x="63.623047"/>
       <use xlink:href="#DejaVuSans-6d" x="127.246094"/>
      </g>
     </g>
    </g>
    <g id="xtick_8">
     <g id="line2d_8">
      <g>
       <use xlink:href="#m44bfd27a2b" x="735.272111" y="288.430125" style="stroke: #000000; stroke-width: 0.8"/>
      </g>
     </g>
     <g id="text_8">
      <!-- 15m -->
      <g transform="translate(724.039298 303.028562) scale(0.1 -0.1)">
       <use xlink:href="#DejaVuSans-31"/>
       <use xlink:href="#DejaVuSans-35" x="63.623047"/>
       <use xlink:href="#DejaVuSans-6d" x="127.246094"/>
      </g>
     </g>
    </g>
    <g id="xtick_9">
     <g id="line2d_9">
      <g>
       <use xlink:href="#m44bfd27a2b" x="735.296316" y="288.430125" style="stroke: #000000; stroke-width: 0.8"/>
      </g>
     </g>
     <g id="text_9">
      <!-- 15m -->
      <g transform="translate(724.063504 303.028562) scale(0.1 -0.1)">
       <use xlink:href="#DejaVuSans-31"/>
       <use xlink:href="#DejaVuSans-35" x="63.623047"/>
       <use xlink:href="#DejaVuSans-6d" x="127.246094"/>
      </g>
     </g>
    </g>
    <g id="xtick_10">
     <g id="line2d_10">
      <g>
       <use xlink:href="#m44bfd27a2b" x="735.320522" y="288.430125" style="stroke: #000000; stroke-width: 0.8"/>
      </g>
     </g>
     <g id="text_10">
      <!-- 15m -->
      <g transform="translate(724.08771 303.028562) scale(0.1 -0.1)">
       <use xlink:href="#DejaVuSans-31"/>
       <use xlink:href="#DejaVuSans-35" x="63.623047"/>
       <use xlink:href="#DejaVuSans-6d" x="127.246094"/>
      </g>
     </g>
    </g>
    <g id="xtick_11">
     <g id="line2d_11">
      <g>
       <use xlink:href="#m44bfd27a2b" x="735.344728" y="288.430125" style="stroke: #000000; stroke-width: 0.8"/>
      </g>
     </g>
     <g id="text_11">
      <!-- 15m -->
      <g transform="translate(724.111915 303.028562) scale(0.1 -0.1)">
       <use xlink:href="#DejaVuSans-31"/>
       <use xlink:href="#DejaVuSans-35" x="63.623047"/>
       <use xlink:href="#DejaVuSans-6d" x="127.246094"/>
      </g>
     </g>
    </g>
    <g id="xtick_12">
     <g id="line2d_12">
      <g>
       <use xlink:href="#m44bfd27a2b" x="735.368934" y="288.430125" style="stroke: #000000; stroke-width: 0.8"/>
      </g>
     </g>
     <g id="text_12">
      <!-- 15m -->
      <g transform="translate(724.136121 303.028562) scale(0.1 -0.1)">
       <use xlink:href="#DejaVuSans-31"/>
       <use xlink:href="#DejaVuSans-35" x="63.623047"/>
       <use xlink:href="#DejaVuSans-6d" x="127.246094"/>
      </g>
     </g>
    </g>
    <g id="xtick_13">
     <g id="line2d_13">
      <defs>
       <path id="mbec4bd08fc" d="M 0 0 
L 0 2 
" style="stroke: #000000; stroke-width: 0.6"/>
      </defs>
      <g>
       <use xlink:href="#mbec4bd08fc" x="85.79358" y="288.430125" style="stroke: #000000; stroke-width: 0.6"/>
      </g>
     </g>
    </g>
    <g id="xtick_14">
     <g id="line2d_14">
      <g>
       <use xlink:href="#mbec4bd08fc" x="122.754282" y="288.430125" style="stroke: #000000; stroke-width: 0.6"/>
      </g>
     </g>
    </g>
    <g id="xtick_15">
     <g id="line2d_15">
      <g>
       <use xlink:href="#mbec4bd08fc" x="154.771099" y="288.430125" style="stroke: #000000; stroke-width: 0.6"/>
      </g>
     </g>
    </g>
    <g id="xtick_16">
     <g id="line2d_16">
      <g>
       <use xlink:href="#mbec4bd08fc" x="183.011933" y="288.430125" style="stroke: #000000; stroke-width: 0.6"/>
      </g>
     </g>
    </g>
    <g id="xtick_17">
     <g id="line2d_17">
      <g>
       <use xlink:href="#mbec4bd08fc" x="374.470092" y="288.430125" style="stroke: #000000; stroke-width: 0.6"/>
      </g>
     </g>
    </g>
    <g id="xtick_18">
     <g id="line2d_18">
      <g>
       <use xlink:href="#mbec4bd08fc" x="471.688445" y="288.430125" style="stroke: #000000; stroke-width: 0.6"/>
      </g>
     </g>
    </g>
    <g id="xtick_19">
     <g id="line2d_19">
      <g>
       <use xlink:href="#mbec4bd08fc" x="540.665964" y="288.430125" style="stroke: #000000; stroke-width: 0.6"/>
      </g>
     </g>
    </g>
    <g id="xtick_20">
     <g id="line2d_20">
      <g>
       <use xlink:href="#mbec4bd08fc" x="594.169085" y="288.430125" style="stroke: #000000; stroke-width: 0.6"/>
      </g>
     </g>
    </g>
    <g id="xtick_21">
     <g id="line2d_21">
      <g>
       <use xlink:href="#mbec4bd08fc" x="637.884317" y="288.430125" style="stroke: #000000; stroke-width: 0.6"/>
      </g>
     </g>
    </g>
    <g id="xtick_22">
     <g id="line2d_22">
      <g>
       <use xlink:href="#mbec4bd08fc" x="674.84502" y="288.430125" style="stroke: #000000; stroke-width: 0.6"/>
      </g>
     </g>
    </g>
    <g id="xtick_23">
     <g id="line2d_23">
      <g>
       <use xlink:href="#mbec4bd08fc" x="706.861837" y="288.430125" style="stroke: #000000; stroke-width: 0.6"/>
      </g>
     </g>
    </g>
    <g id="text_13">
     <!-- Time (hour:minute) -->
     <g transform="translate(362.041094 316.706687) scale(0.1 -0.1)">
      <defs>
       <path id="DejaVuSans-54" d="M -19 4666 
L 3928 4666 
L 3928 4134 
L 2272 4134 
L 2272 0 
L 1638 0 
L 1638 4134 
L -19 4134 
L -19 4666 
z
" transform="scale(0.015625)"/>
       <path id="DejaVuSans-69" d="M 603 3500 
L 1178 3500 
L 1178 0 
L 603 0 
L 603 3500 
z
M 603 4863 
L 1178 4863 
L 1178 4134 
L 603 4134 
L 603 4863 
z
" transform="scale(0.015625)"/>
       <path id="DejaVuSans-65" d="M 3597 1894 
L 3597 1613 
L 953 1613 
Q 991 1019 1311 708 
Q 1631 397 2203 397 
Q 2534 397 2845 478 
Q 3156 559 3463 722 
L 3463 178 
Q 3153 47 2828 -22 
Q 2503 -91 2169 -91 
Q 1331 -91 842 396 
Q 353 884 353 1716 
Q 353 2575 817 3079 
Q 1281 3584 2069 3584 
Q 2775 3584 3186 3129 
Q 3597 2675 3597 1894 
z
M 3022 2063 
Q 3016 2534 2758 2815 
Q 2500 3097 2075 3097 
Q 1594 3097 1305 2825 
Q 1016 2553 972 2059 
L 3022 2063 
z
" transform="scale(0.015625)"/>
       <path id="DejaVuSans-20" transform="scale(0.015625)"/>
       <path id="DejaVuSans-28" d="M 1984 4856 
Q 1566 4138 1362 3434 
Q 1159 2731 1159 2009 
Q 1159 1288 1364 580 
Q 1569 -128 1984 -844 
L 1484 -844 
Q 1016 -109 783 600 
Q 550 1309 550 2009 
Q 550 2706 781 3412 
Q 1013 4119 1484 4856 
L 1984 4856 
z
" transform="scale(0.015625)"/>
       <path id="DejaVuSans-68" d="M 3513 2113 
L 3513 0 
L 2938 0 
L 2938 2094 
Q 2938 2591 2744 2837 
Q 2550 3084 2163 3084 
Q 1697 3084 1428 2787 
Q 1159 2491 1159 1978 
L 1159 0 
L 581 0 
L 581 4863 
L 1159 4863 
L 1159 2956 
Q 1366 3272 1645 3428 
Q 1925 3584 2291 3584 
Q 2894 3584 3203 3211 
Q 3513 2838 3513 2113 
z
" transform="scale(0.015625)"/>
       <path id="DejaVuSans-6f" d="M 1959 3097 
Q 1497 3097 1228 2736 
Q 959 2375 959 1747 
Q 959 1119 1226 758 
Q 1494 397 1959 397 
Q 2419 397 2687 759 
Q 2956 1122 2956 1747 
Q 2956 2369 2687 2733 
Q 2419 3097 1959 3097 
z
M 1959 3584 
Q 2709 3584 3137 3096 
Q 3566 2609 3566 1747 
Q 3566 888 3137 398 
Q 2709 -91 1959 -91 
Q 1206 -91 779 398 
Q 353 888 353 1747 
Q 353 2609 779 3096 
Q 1206 3584 1959 3584 
z
" transform="scale(0.015625)"/>
       <path id="DejaVuSans-75" d="M 544 1381 
L 544 3500 
L 1119 3500 
L 1119 1403 
Q 1119 906 1312 657 
Q 1506 409 1894 409 
Q 2359 409 2629 706 
Q 2900 1003 2900 1516 
L 2900 3500 
L 3475 3500 
L 3475 0 
L 2900 0 
L 2900 538 
Q 2691 219 2414 64 
Q 2138 -91 1772 -91 
Q 1169 -91 856 284 
Q 544 659 544 1381 
z
M 1991 3584 
L 1991 3584 
z
" transform="scale(0.015625)"/>
       <path id="DejaVuSans-72" d="M 2631 2963 
Q 2534 3019 2420 3045 
Q 2306 3072 2169 3072 
Q 1681 3072 1420 2755 
Q 1159 2438 1159 1844 
L 1159 0 
L 581 0 
L 581 3500 
L 1159 3500 
L 1159 2956 
Q 1341 3275 1631 3429 
Q 1922 3584 2338 3584 
Q 2397 3584 2469 3576 
Q 2541 3569 2628 3553 
L 2631 2963 
z
" transform="scale(0.015625)"/>
       <path id="DejaVuSans-3a" d="M 750 794 
L 1409 794 
L 1409 0 
L 750 0 
L 750 794 
z
M 750 3309 
L 1409 3309 
L 1409 2516 
L 750 2516 
L 750 3309 
z
" transform="scale(0.015625)"/>
       <path id="DejaVuSans-6e" d="M 3513 2113 
L 3513 0 
L 2938 0 
L 2938 2094 
Q 2938 2591 2744 2837 
Q 2550 3084 2163 3084 
Q 1697 3084 1428 2787 
Q 1159 2491 1159 1978 
L 1159 0 
L 581 0 
L 581 3500 
L 1159 3500 
L 1159 2956 
Q 1366 3272 1645 3428 
Q 1925 3584 2291 3584 
Q 2894 3584 3203 3211 
Q 3513 2838 3513 2113 
z
" transform="scale(0.015625)"/>
       <path id="DejaVuSans-74" d="M 1172 4494 
L 1172 3500 
L 2356 3500 
L 2356 3053 
L 1172 3053 
L 1172 1153 
Q 1172 725 1289 603 
Q 1406 481 1766 481 
L 2356 481 
L 2356 0 
L 1766 0 
Q 1100 0 847 248 
Q 594 497 594 1153 
L 594 3053 
L 172 3053 
L 172 3500 
L 594 3500 
L 594 4494 
L 1172 4494 
z
" transform="scale(0.015625)"/>
       <path id="DejaVuSans-29" d="M 513 4856 
L 1013 4856 
Q 1481 4119 1714 3412 
Q 1947 2706 1947 2009 
Q 1947 1309 1714 600 
Q 1481 -109 1013 -844 
L 513 -844 
Q 928 -128 1133 580 
Q 1338 1288 1338 2009 
Q 1338 2731 1133 3434 
Q 928 4138 513 4856 
z
" transform="scale(0.015625)"/>
      </defs>
      <use xlink:href="#DejaVuSans-54"/>
      <use xlink:href="#DejaVuSans-69" x="57.958984"/>
      <use xlink:href="#DejaVuSans-6d" x="85.742188"/>
      <use xlink:href="#DejaVuSans-65" x="183.154297"/>
      <use xlink:href="#DejaVuSans-20" x="244.677734"/>
      <use xlink:href="#DejaVuSans-28" x="276.464844"/>
      <use xlink:href="#DejaVuSans-68" x="315.478516"/>
      <use xlink:href="#DejaVuSans-6f" x="378.857422"/>
      <use xlink:href="#DejaVuSans-75" x="440.039062"/>
      <use xlink:href="#DejaVuSans-72" x="503.417969"/>
      <use xlink:href="#DejaVuSans-3a" x="542.78125"/>
      <use xlink:href="#DejaVuSans-6d" x="576.472656"/>
      <use xlink:href="#DejaVuSans-69" x="673.884766"/>
      <use xlink:href="#DejaVuSans-6e" x="701.667969"/>
      <use xlink:href="#DejaVuSans-75" x="765.046875"/>
      <use xlink:href="#DejaVuSans-74" x="828.425781"/>
      <use xlink:href="#DejaVuSans-65" x="867.634766"/>
      <use xlink:href="#DejaVuSans-29" x="929.158203"/>
     </g>
    </g>
   </g>
   <g id="matplotlib.axis_2">
    <g id="ytick_1">
     <g id="line2d_24">
      <defs>
       <path id="m3f7c95d5e4" d="M 0 0 
L -3.5 0 
" style="stroke: #000000; stroke-width: 0.8"/>
      </defs>
      <g>
       <use xlink:href="#m3f7c95d5e4" x="53.328125" y="252.49659" style="stroke: #000000; stroke-width: 0.8"/>
      </g>
     </g>
     <g id="text_14">
      <!-- 2500 -->
      <g transform="translate(20.878125 256.295809) scale(0.1 -0.1)">
       <defs>
        <path id="DejaVuSans-32" d="M 1228 531 
L 3431 531 
L 3431 0 
L 469 0 
L 469 531 
Q 828 903 1448 1529 
Q 2069 2156 2228 2338 
Q 2531 2678 2651 2914 
Q 2772 3150 2772 3378 
Q 2772 3750 2511 3984 
Q 2250 4219 1831 4219 
Q 1534 4219 1204 4116 
Q 875 4013 500 3803 
L 500 4441 
Q 881 4594 1212 4672 
Q 1544 4750 1819 4750 
Q 2544 4750 2975 4387 
Q 3406 4025 3406 3419 
Q 3406 3131 3298 2873 
Q 3191 2616 2906 2266 
Q 2828 2175 2409 1742 
Q 1991 1309 1228 531 
z
" transform="scale(0.015625)"/>
        <path id="DejaVuSans-30" d="M 2034 4250 
Q 1547 4250 1301 3770 
Q 1056 3291 1056 2328 
Q 1056 1369 1301 889 
Q 1547 409 2034 409 
Q 2525 409 2770 889 
Q 3016 1369 3016 2328 
Q 3016 3291 2770 3770 
Q 2525 4250 2034 4250 
z
M 2034 4750 
Q 2819 4750 3233 4129 
Q 3647 3509 3647 2328 
Q 3647 1150 3233 529 
Q 2819 -91 2034 -91 
Q 1250 -91 836 529 
Q 422 1150 422 2328 
Q 422 3509 836 4129 
Q 1250 4750 2034 4750 
z
" transform="scale(0.015625)"/>
       </defs>
       <use xlink:href="#DejaVuSans-32"/>
       <use xlink:href="#DejaVuSans-35" x="63.623047"/>
       <use xlink:href="#DejaVuSans-30" x="127.246094"/>
       <use xlink:href="#DejaVuSans-30" x="190.869141"/>
      </g>
     </g>
    </g>
    <g id="ytick_2">
     <g id="line2d_25">
      <g>
       <use xlink:href="#m3f7c95d5e4" x="53.328125" y="211.8702" style="stroke: #000000; stroke-width: 0.8"/>
      </g>
     </g>
     <g id="text_15">
      <!-- 3000 -->
      <g transform="translate(20.878125 215.669418) scale(0.1 -0.1)">
       <defs>
        <path id="DejaVuSans-33" d="M 2597 2516 
Q 3050 2419 3304 2112 
Q 3559 1806 3559 1356 
Q 3559 666 3084 287 
Q 2609 -91 1734 -91 
Q 1441 -91 1130 -33 
Q 819 25 488 141 
L 488 750 
Q 750 597 1062 519 
Q 1375 441 1716 441 
Q 2309 441 2620 675 
Q 2931 909 2931 1356 
Q 2931 1769 2642 2001 
Q 2353 2234 1838 2234 
L 1294 2234 
L 1294 2753 
L 1863 2753 
Q 2328 2753 2575 2939 
Q 2822 3125 2822 3475 
Q 2822 3834 2567 4026 
Q 2313 4219 1838 4219 
Q 1578 4219 1281 4162 
Q 984 4106 628 3988 
L 628 4550 
Q 988 4650 1302 4700 
Q 1616 4750 1894 4750 
Q 2613 4750 3031 4423 
Q 3450 4097 3450 3541 
Q 3450 3153 3228 2886 
Q 3006 2619 2597 2516 
z
" transform="scale(0.015625)"/>
       </defs>
       <use xlink:href="#DejaVuSans-33"/>
       <use xlink:href="#DejaVuSans-30" x="63.623047"/>
       <use xlink:href="#DejaVuSans-30" x="127.246094"/>
       <use xlink:href="#DejaVuSans-30" x="190.869141"/>
      </g>
     </g>
    </g>
    <g id="ytick_3">
     <g id="line2d_26">
      <g>
       <use xlink:href="#m3f7c95d5e4" x="53.328125" y="171.243809" style="stroke: #000000; stroke-width: 0.8"/>
      </g>
     </g>
     <g id="text_16">
      <!-- 3500 -->
      <g transform="translate(20.878125 175.043028) scale(0.1 -0.1)">
       <use xlink:href="#DejaVuSans-33"/>
       <use xlink:href="#DejaVuSans-35" x="63.623047"/>
       <use xlink:href="#DejaVuSans-30" x="127.246094"/>
       <use xlink:href="#DejaVuSans-30" x="190.869141"/>
      </g>
     </g>
    </g>
    <g id="ytick_4">
     <g id="line2d_27">
      <g>
       <use xlink:href="#m3f7c95d5e4" x="53.328125" y="130.617418" style="stroke: #000000; stroke-width: 0.8"/>
      </g>
     </g>
     <g id="text_17">
      <!-- 4000 -->
      <g transform="translate(20.878125 134.416637) scale(0.1 -0.1)">
       <use xlink:href="#DejaVuSans-34"/>
       <use xlink:href="#DejaVuSans-30" x="63.623047"/>
       <use xlink:href="#DejaVuSans-30" x="127.246094"/>
       <use xlink:href="#DejaVuSans-30" x="190.869141"/>
      </g>
     </g>
    </g>
    <g id="ytick_5">
     <g id="line2d_28">
      <g>
       <use xlink:href="#m3f7c95d5e4" x="53.328125" y="89.991027" style="stroke: #000000; stroke-width: 0.8"/>
      </g>
     </g>
     <g id="text_18">
      <!-- 4500 -->
      <g transform="translate(20.878125 93.790246) scale(0.1 -0.1)">
       <use xlink:href="#DejaVuSans-34"/>
       <use xlink:href="#DejaVuSans-35" x="63.623047"/>
       <use xlink:href="#DejaVuSans-30" x="127.246094"/>
       <use xlink:href="#DejaVuSans-30" x="190.869141"/>
      </g>
     </g>
    </g>
    <g id="ytick_6">
     <g id="line2d_29">
      <g>
       <use xlink:href="#m3f7c95d5e4" x="53.328125" y="49.364637" style="stroke: #000000; stroke-width: 0.8"/>
      </g>
     </g>
     <g id="text_19">
      <!-- 5000 -->
      <g transform="translate(20.878125 53.163856) scale(0.1 -0.1)">
       <use xlink:href="#DejaVuSans-35"/>
       <use xlink:href="#DejaVuSans-30" x="63.623047"/>
       <use xlink:href="#DejaVuSans-30" x="127.246094"/>
       <use xlink:href="#DejaVuSans-30" x="190.869141"/>
      </g>
     </g>
    </g>
    <g id="text_20">
     <!-- Code branch coverage -->
     <g transform="translate(14.798438 211.949125) rotate(-90) scale(0.1 -0.1)">
      <defs>
       <path id="DejaVuSans-43" d="M 4122 4306 
L 4122 3641 
Q 3803 3938 3442 4084 
Q 3081 4231 2675 4231 
Q 1875 4231 1450 3742 
Q 1025 3253 1025 2328 
Q 1025 1406 1450 917 
Q 1875 428 2675 428 
Q 3081 428 3442 575 
Q 3803 722 4122 1019 
L 4122 359 
Q 3791 134 3420 21 
Q 3050 -91 2638 -91 
Q 1578 -91 968 557 
Q 359 1206 359 2328 
Q 359 3453 968 4101 
Q 1578 4750 2638 4750 
Q 3056 4750 3426 4639 
Q 3797 4528 4122 4306 
z
" transform="scale(0.015625)"/>
       <path id="DejaVuSans-64" d="M 2906 2969 
L 2906 4863 
L 3481 4863 
L 3481 0 
L 2906 0 
L 2906 525 
Q 2725 213 2448 61 
Q 2172 -91 1784 -91 
Q 1150 -91 751 415 
Q 353 922 353 1747 
Q 353 2572 751 3078 
Q 1150 3584 1784 3584 
Q 2172 3584 2448 3432 
Q 2725 3281 2906 2969 
z
M 947 1747 
Q 947 1113 1208 752 
Q 1469 391 1925 391 
Q 2381 391 2643 752 
Q 2906 1113 2906 1747 
Q 2906 2381 2643 2742 
Q 2381 3103 1925 3103 
Q 1469 3103 1208 2742 
Q 947 2381 947 1747 
z
" transform="scale(0.015625)"/>
       <path id="DejaVuSans-62" d="M 3116 1747 
Q 3116 2381 2855 2742 
Q 2594 3103 2138 3103 
Q 1681 3103 1420 2742 
Q 1159 2381 1159 1747 
Q 1159 1113 1420 752 
Q 1681 391 2138 391 
Q 2594 391 2855 752 
Q 3116 1113 3116 1747 
z
M 1159 2969 
Q 1341 3281 1617 3432 
Q 1894 3584 2278 3584 
Q 2916 3584 3314 3078 
Q 3713 2572 3713 1747 
Q 3713 922 3314 415 
Q 2916 -91 2278 -91 
Q 1894 -91 1617 61 
Q 1341 213 1159 525 
L 1159 0 
L 581 0 
L 581 4863 
L 1159 4863 
L 1159 2969 
z
" transform="scale(0.015625)"/>
       <path id="DejaVuSans-61" d="M 2194 1759 
Q 1497 1759 1228 1600 
Q 959 1441 959 1056 
Q 959 750 1161 570 
Q 1363 391 1709 391 
Q 2188 391 2477 730 
Q 2766 1069 2766 1631 
L 2766 1759 
L 2194 1759 
z
M 3341 1997 
L 3341 0 
L 2766 0 
L 2766 531 
Q 2569 213 2275 61 
Q 1981 -91 1556 -91 
Q 1019 -91 701 211 
Q 384 513 384 1019 
Q 384 1609 779 1909 
Q 1175 2209 1959 2209 
L 2766 2209 
L 2766 2266 
Q 2766 2663 2505 2880 
Q 2244 3097 1772 3097 
Q 1472 3097 1187 3025 
Q 903 2953 641 2809 
L 641 3341 
Q 956 3463 1253 3523 
Q 1550 3584 1831 3584 
Q 2591 3584 2966 3190 
Q 3341 2797 3341 1997 
z
" transform="scale(0.015625)"/>
       <path id="DejaVuSans-63" d="M 3122 3366 
L 3122 2828 
Q 2878 2963 2633 3030 
Q 2388 3097 2138 3097 
Q 1578 3097 1268 2742 
Q 959 2388 959 1747 
Q 959 1106 1268 751 
Q 1578 397 2138 397 
Q 2388 397 2633 464 
Q 2878 531 3122 666 
L 3122 134 
Q 2881 22 2623 -34 
Q 2366 -91 2075 -91 
Q 1284 -91 818 406 
Q 353 903 353 1747 
Q 353 2603 823 3093 
Q 1294 3584 2113 3584 
Q 2378 3584 2631 3529 
Q 2884 3475 3122 3366 
z
" transform="scale(0.015625)"/>
       <path id="DejaVuSans-76" d="M 191 3500 
L 800 3500 
L 1894 563 
L 2988 3500 
L 3597 3500 
L 2284 0 
L 1503 0 
L 191 3500 
z
" transform="scale(0.015625)"/>
       <path id="DejaVuSans-67" d="M 2906 1791 
Q 2906 2416 2648 2759 
Q 2391 3103 1925 3103 
Q 1463 3103 1205 2759 
Q 947 2416 947 1791 
Q 947 1169 1205 825 
Q 1463 481 1925 481 
Q 2391 481 2648 825 
Q 2906 1169 2906 1791 
z
M 3481 434 
Q 3481 -459 3084 -895 
Q 2688 -1331 1869 -1331 
Q 1566 -1331 1297 -1286 
Q 1028 -1241 775 -1147 
L 775 -588 
Q 1028 -725 1275 -790 
Q 1522 -856 1778 -856 
Q 2344 -856 2625 -561 
Q 2906 -266 2906 331 
L 2906 616 
Q 2728 306 2450 153 
Q 2172 0 1784 0 
Q 1141 0 747 490 
Q 353 981 353 1791 
Q 353 2603 747 3093 
Q 1141 3584 1784 3584 
Q 2172 3584 2450 3431 
Q 2728 3278 2906 2969 
L 2906 3500 
L 3481 3500 
L 3481 434 
z
" transform="scale(0.015625)"/>
      </defs>
      <use xlink:href="#DejaVuSans-43"/>
      <use xlink:href="#DejaVuSans-6f" x="69.824219"/>
      <use xlink:href="#DejaVuSans-64" x="131.005859"/>
      <use xlink:href="#DejaVuSans-65" x="194.482422"/>
      <use xlink:href="#DejaVuSans-20" x="256.005859"/>
      <use xlink:href="#DejaVuSans-62" x="287.792969"/>
      <use xlink:href="#DejaVuSans-72" x="351.269531"/>
      <use xlink:href="#DejaVuSans-61" x="392.382812"/>
      <use xlink:href="#DejaVuSans-6e" x="453.662109"/>
      <use xlink:href="#DejaVuSans-63" x="517.041016"/>
      <use xlink:href="#DejaVuSans-68" x="572.021484"/>
      <use xlink:href="#DejaVuSans-20" x="635.400391"/>
      <use xlink:href="#DejaVuSans-63" x="667.1875"/>
      <use xlink:href="#DejaVuSans-6f" x="722.167969"/>
      <use xlink:href="#DejaVuSans-76" x="783.349609"/>
      <use xlink:href="#DejaVuSans-65" x="842.529297"/>
      <use xlink:href="#DejaVuSans-72" x="904.052734"/>
      <use xlink:href="#DejaVuSans-61" x="945.166016"/>
      <use xlink:href="#DejaVuSans-67" x="1006.445312"/>
      <use xlink:href="#DejaVuSans-65" x="1069.921875"/>
     </g>
    </g>
   </g>
   <g id="line2d_30">
    <path d="M 85.79358 164.70296 
L 251.989452 144.877281 
L 349.207805 132.120595 
L 418.185324 120.01393 
L 471.688445 112.579301 
L 515.403677 103.844627 
L 552.36438 97.50691 
L 584.381197 94.378678 
L 612.622031 92.266105 
L 637.884317 87.675323 
L 660.736835 84.140827 
L 681.59955 77.640605 
L 700.791387 73.090449 
L 718.560252 68.377788 
L 735.10267 64.518281 
" clip-path="url(#pf76ab4b984)" style="fill: none; stroke: #ff7f0e; stroke-width: 1.5; stroke-linecap: square"/>
    <defs>
     <path id="m20a90bd223" d="M 3 0 
L -3 -3 
L -3 3 
z
" style="stroke: #ffffff; stroke-width: 0.75; stroke-linejoin: miter"/>
    </defs>
    <g clip-path="url(#pf76ab4b984)">
     <use xlink:href="#m20a90bd223" x="85.79358" y="164.70296" style="fill: #ff7f0e; stroke: #ffffff; stroke-width: 0.75; stroke-linejoin: miter"/>
     <use xlink:href="#m20a90bd223" x="251.989452" y="144.877281" style="fill: #ff7f0e; stroke: #ffffff; stroke-width: 0.75; stroke-linejoin: miter"/>
     <use xlink:href="#m20a90bd223" x="349.207805" y="132.120595" style="fill: #ff7f0e; stroke: #ffffff; stroke-width: 0.75; stroke-linejoin: miter"/>
     <use xlink:href="#m20a90bd223" x="418.185324" y="120.01393" style="fill: #ff7f0e; stroke: #ffffff; stroke-width: 0.75; stroke-linejoin: miter"/>
     <use xlink:href="#m20a90bd223" x="471.688445" y="112.579301" style="fill: #ff7f0e; stroke: #ffffff; stroke-width: 0.75; stroke-linejoin: miter"/>
     <use xlink:href="#m20a90bd223" x="515.403677" y="103.844627" style="fill: #ff7f0e; stroke: #ffffff; stroke-width: 0.75; stroke-linejoin: miter"/>
     <use xlink:href="#m20a90bd223" x="552.36438" y="97.50691" style="fill: #ff7f0e; stroke: #ffffff; stroke-width: 0.75; stroke-linejoin: miter"/>
     <use xlink:href="#m20a90bd223" x="584.381197" y="94.378678" style="fill: #ff7f0e; stroke: #ffffff; stroke-width: 0.75; stroke-linejoin: miter"/>
     <use xlink:href="#m20a90bd223" x="612.622031" y="92.266105" style="fill: #ff7f0e; stroke: #ffffff; stroke-width: 0.75; stroke-linejoin: miter"/>
     <use xlink:href="#m20a90bd223" x="637.884317" y="87.675323" style="fill: #ff7f0e; stroke: #ffffff; stroke-width: 0.75; stroke-linejoin: miter"/>
     <use xlink:href="#m20a90bd223" x="660.736835" y="84.140827" style="fill: #ff7f0e; stroke: #ffffff; stroke-width: 0.75; stroke-linejoin: miter"/>
     <use xlink:href="#m20a90bd223" x="681.59955" y="77.640605" style="fill: #ff7f0e; stroke: #ffffff; stroke-width: 0.75; stroke-linejoin: miter"/>
     <use xlink:href="#m20a90bd223" x="700.791387" y="73.090449" style="fill: #ff7f0e; stroke: #ffffff; stroke-width: 0.75; stroke-linejoin: miter"/>
     <use xlink:href="#m20a90bd223" x="718.560252" y="68.377788" style="fill: #ff7f0e; stroke: #ffffff; stroke-width: 0.75; stroke-linejoin: miter"/>
     <use xlink:href="#m20a90bd223" x="735.10267" y="64.518281" style="fill: #ff7f0e; stroke: #ffffff; stroke-width: 0.75; stroke-linejoin: miter"/>
    </g>
   </g>
   <g id="line2d_31">
    <path d="M 85.79358 232.142769 
L 251.989452 210.610781 
L 349.207805 198.463491 
L 418.185324 189.891322 
L 471.688445 179.409713 
L 515.403677 172.01571 
L 552.36438 162.874772 
L 584.381197 152.474416 
L 612.622031 144.308512 
L 637.884317 135.939475 
L 660.736835 129.886143 
L 681.59955 128.707978 
L 700.791387 127.082922 
L 718.560252 114.082477 
L 735.10267 108.394782 
" clip-path="url(#pf76ab4b984)" style="fill: none; stroke: #98df8a; stroke-width: 1.5; stroke-linecap: square"/>
    <defs>
     <path id="me6dd2a3293" d="M -0 3 
L 3 -3 
L -3 -3 
z
" style="stroke: #ffffff; stroke-width: 0.75; stroke-linejoin: miter"/>
    </defs>
    <g clip-path="url(#pf76ab4b984)">
     <use xlink:href="#me6dd2a3293" x="85.79358" y="232.142769" style="fill: #98df8a; stroke: #ffffff; stroke-width: 0.75; stroke-linejoin: miter"/>
     <use xlink:href="#me6dd2a3293" x="251.989452" y="210.610781" style="fill: #98df8a; stroke: #ffffff; stroke-width: 0.75; stroke-linejoin: miter"/>
     <use xlink:href="#me6dd2a3293" x="349.207805" y="198.463491" style="fill: #98df8a; stroke: #ffffff; stroke-width: 0.75; stroke-linejoin: miter"/>
     <use xlink:href="#me6dd2a3293" x="418.185324" y="189.891322" style="fill: #98df8a; stroke: #ffffff; stroke-width: 0.75; stroke-linejoin: miter"/>
     <use xlink:href="#me6dd2a3293" x="471.688445" y="179.409713" style="fill: #98df8a; stroke: #ffffff; stroke-width: 0.75; stroke-linejoin: miter"/>
     <use xlink:href="#me6dd2a3293" x="515.403677" y="172.01571" style="fill: #98df8a; stroke: #ffffff; stroke-width: 0.75; stroke-linejoin: miter"/>
     <use xlink:href="#me6dd2a3293" x="552.36438" y="162.874772" style="fill: #98df8a; stroke: #ffffff; stroke-width: 0.75; stroke-linejoin: miter"/>
     <use xlink:href="#me6dd2a3293" x="584.381197" y="152.474416" style="fill: #98df8a; stroke: #ffffff; stroke-width: 0.75; stroke-linejoin: miter"/>
     <use xlink:href="#me6dd2a3293" x="612.622031" y="144.308512" style="fill: #98df8a; stroke: #ffffff; stroke-width: 0.75; stroke-linejoin: miter"/>
     <use xlink:href="#me6dd2a3293" x="637.884317" y="135.939475" style="fill: #98df8a; stroke: #ffffff; stroke-width: 0.75; stroke-linejoin: miter"/>
     <use xlink:href="#me6dd2a3293" x="660.736835" y="129.886143" style="fill: #98df8a; stroke: #ffffff; stroke-width: 0.75; stroke-linejoin: miter"/>
     <use xlink:href="#me6dd2a3293" x="681.59955" y="128.707978" style="fill: #98df8a; stroke: #ffffff; stroke-width: 0.75; stroke-linejoin: miter"/>
     <use xlink:href="#me6dd2a3293" x="700.791387" y="127.082922" style="fill: #98df8a; stroke: #ffffff; stroke-width: 0.75; stroke-linejoin: miter"/>
     <use xlink:href="#me6dd2a3293" x="718.560252" y="114.082477" style="fill: #98df8a; stroke: #ffffff; stroke-width: 0.75; stroke-linejoin: miter"/>
     <use xlink:href="#me6dd2a3293" x="735.10267" y="108.394782" style="fill: #98df8a; stroke: #ffffff; stroke-width: 0.75; stroke-linejoin: miter"/>
    </g>
   </g>
   <g id="line2d_32">
    <path d="M 85.79358 249.165226 
L 251.989452 231.248988 
L 349.207805 221.498654 
L 418.185324 214.348409 
L 471.688445 200.49481 
L 515.403677 192.978928 
L 552.36438 188.144387 
L 584.381197 178.190922 
L 612.622031 174.656426 
L 637.884317 165.556114 
L 660.736835 163.524795 
L 681.59955 158.040232 
L 700.791387 155.35889 
L 718.560252 152.149405 
L 735.10267 149.50869 
" clip-path="url(#pf76ab4b984)" style="fill: none; stroke: #d62728; stroke-width: 1.5; stroke-linecap: square"/>
    <defs>
     <path id="m7a403e2567" d="M 0 -3 
L -3 3 
L 3 3 
z
" style="stroke: #ffffff; stroke-width: 0.75; stroke-linejoin: miter"/>
    </defs>
    <g clip-path="url(#pf76ab4b984)">
     <use xlink:href="#m7a403e2567" x="85.79358" y="249.165226" style="fill: #d62728; stroke: #ffffff; stroke-width: 0.75; stroke-linejoin: miter"/>
     <use xlink:href="#m7a403e2567" x="251.989452" y="231.248988" style="fill: #d62728; stroke: #ffffff; stroke-width: 0.75; stroke-linejoin: miter"/>
     <use xlink:href="#m7a403e2567" x="349.207805" y="221.498654" style="fill: #d62728; stroke: #ffffff; stroke-width: 0.75; stroke-linejoin: miter"/>
     <use xlink:href="#m7a403e2567" x="418.185324" y="214.348409" style="fill: #d62728; stroke: #ffffff; stroke-width: 0.75; stroke-linejoin: miter"/>
     <use xlink:href="#m7a403e2567" x="471.688445" y="200.49481" style="fill: #d62728; stroke: #ffffff; stroke-width: 0.75; stroke-linejoin: miter"/>
     <use xlink:href="#m7a403e2567" x="515.403677" y="192.978928" style="fill: #d62728; stroke: #ffffff; stroke-width: 0.75; stroke-linejoin: miter"/>
     <use xlink:href="#m7a403e2567" x="552.36438" y="188.144387" style="fill: #d62728; stroke: #ffffff; stroke-width: 0.75; stroke-linejoin: miter"/>
     <use xlink:href="#m7a403e2567" x="584.381197" y="178.190922" style="fill: #d62728; stroke: #ffffff; stroke-width: 0.75; stroke-linejoin: miter"/>
     <use xlink:href="#m7a403e2567" x="612.622031" y="174.656426" style="fill: #d62728; stroke: #ffffff; stroke-width: 0.75; stroke-linejoin: miter"/>
     <use xlink:href="#m7a403e2567" x="637.884317" y="165.556114" style="fill: #d62728; stroke: #ffffff; stroke-width: 0.75; stroke-linejoin: miter"/>
     <use xlink:href="#m7a403e2567" x="660.736835" y="163.524795" style="fill: #d62728; stroke: #ffffff; stroke-width: 0.75; stroke-linejoin: miter"/>
     <use xlink:href="#m7a403e2567" x="681.59955" y="158.040232" style="fill: #d62728; stroke: #ffffff; stroke-width: 0.75; stroke-linejoin: miter"/>
     <use xlink:href="#m7a403e2567" x="700.791387" y="155.35889" style="fill: #d62728; stroke: #ffffff; stroke-width: 0.75; stroke-linejoin: miter"/>
     <use xlink:href="#m7a403e2567" x="718.560252" y="152.149405" style="fill: #d62728; stroke: #ffffff; stroke-width: 0.75; stroke-linejoin: miter"/>
     <use xlink:href="#m7a403e2567" x="735.10267" y="149.50869" style="fill: #d62728; stroke: #ffffff; stroke-width: 0.75; stroke-linejoin: miter"/>
    </g>
   </g>
   <g id="line2d_33">
    <path d="M 85.79358 232.46778 
L 251.989452 218.004785 
L 349.207805 207.766934 
L 418.185324 200.982327 
L 471.688445 195.254006 
L 515.403677 190.338212 
L 552.36438 186.803717 
L 584.381197 183.756737 
L 612.622031 181.441033 
L 637.884317 179.572219 
L 660.736835 176.362734 
L 681.59955 174.575173 
L 700.791387 171.893831 
L 718.560252 170.268775 
L 735.10267 170.228149 
" clip-path="url(#pf76ab4b984)" style="fill: none; stroke: #c7c7c7; stroke-width: 1.5; stroke-linecap: square"/>
    <defs>
     <path id="m37d77295a9" d="M -3 -0 
L 3 3 
L 3 -3 
z
" style="stroke: #ffffff; stroke-width: 0.75; stroke-linejoin: miter"/>
    </defs>
    <g clip-path="url(#pf76ab4b984)">
     <use xlink:href="#m37d77295a9" x="85.79358" y="232.46778" style="fill: #c7c7c7; stroke: #ffffff; stroke-width: 0.75; stroke-linejoin: miter"/>
     <use xlink:href="#m37d77295a9" x="251.989452" y="218.004785" style="fill: #c7c7c7; stroke: #ffffff; stroke-width: 0.75; stroke-linejoin: miter"/>
     <use xlink:href="#m37d77295a9" x="349.207805" y="207.766934" style="fill: #c7c7c7; stroke: #ffffff; stroke-width: 0.75; stroke-linejoin: miter"/>
     <use xlink:href="#m37d77295a9" x="418.185324" y="200.982327" style="fill: #c7c7c7; stroke: #ffffff; stroke-width: 0.75; stroke-linejoin: miter"/>
     <use xlink:href="#m37d77295a9" x="471.688445" y="195.254006" style="fill: #c7c7c7; stroke: #ffffff; stroke-width: 0.75; stroke-linejoin: miter"/>
     <use xlink:href="#m37d77295a9" x="515.403677" y="190.338212" style="fill: #c7c7c7; stroke: #ffffff; stroke-width: 0.75; stroke-linejoin: miter"/>
     <use xlink:href="#m37d77295a9" x="552.36438" y="186.803717" style="fill: #c7c7c7; stroke: #ffffff; stroke-width: 0.75; stroke-linejoin: miter"/>
     <use xlink:href="#m37d77295a9" x="584.381197" y="183.756737" style="fill: #c7c7c7; stroke: #ffffff; stroke-width: 0.75; stroke-linejoin: miter"/>
     <use xlink:href="#m37d77295a9" x="612.622031" y="181.441033" style="fill: #c7c7c7; stroke: #ffffff; stroke-width: 0.75; stroke-linejoin: miter"/>
     <use xlink:href="#m37d77295a9" x="637.884317" y="179.572219" style="fill: #c7c7c7; stroke: #ffffff; stroke-width: 0.75; stroke-linejoin: miter"/>
     <use xlink:href="#m37d77295a9" x="660.736835" y="176.362734" style="fill: #c7c7c7; stroke: #ffffff; stroke-width: 0.75; stroke-linejoin: miter"/>
     <use xlink:href="#m37d77295a9" x="681.59955" y="174.575173" style="fill: #c7c7c7; stroke: #ffffff; stroke-width: 0.75; stroke-linejoin: miter"/>
     <use xlink:href="#m37d77295a9" x="700.791387" y="171.893831" style="fill: #c7c7c7; stroke: #ffffff; stroke-width: 0.75; stroke-linejoin: miter"/>
     <use xlink:href="#m37d77295a9" x="718.560252" y="170.268775" style="fill: #c7c7c7; stroke: #ffffff; stroke-width: 0.75; stroke-linejoin: miter"/>
     <use xlink:href="#m37d77295a9" x="735.10267" y="170.228149" style="fill: #c7c7c7; stroke: #ffffff; stroke-width: 0.75; stroke-linejoin: miter"/>
    </g>
   </g>
   <g id="line2d_34">
    <path d="M 85.79358 246.077621 
L 251.989452 224.423754 
L 349.207805 220.6455 
L 418.185324 211.382683 
L 471.688445 207.726308 
L 515.403677 204.394944 
L 552.36438 203.013646 
L 584.381197 198.951007 
L 612.622031 193.710203 
L 637.884317 192.125774 
L 660.736835 189.972575 
L 681.59955 188.875662 
L 700.791387 188.591278 
L 718.560252 187.697497 
L 735.10267 186.641211 
" clip-path="url(#pf76ab4b984)" style="fill: none; stroke: #ff9896; stroke-width: 1.5; stroke-linecap: square"/>
    <defs>
     <path id="m1d9549fe3f" d="M -1.14805 -2.771639 
L -2.771639 -1.14805 
L -2.771639 1.14805 
L -1.14805 2.771639 
L 1.14805 2.771639 
L 2.771639 1.14805 
L 2.771639 -1.14805 
L 1.14805 -2.771639 
z
" style="stroke: #ffffff; stroke-width: 0.75; stroke-linejoin: miter"/>
    </defs>
    <g clip-path="url(#pf76ab4b984)">
     <use xlink:href="#m1d9549fe3f" x="85.79358" y="246.077621" style="fill: #ff9896; stroke: #ffffff; stroke-width: 0.75; stroke-linejoin: miter"/>
     <use xlink:href="#m1d9549fe3f" x="251.989452" y="224.423754" style="fill: #ff9896; stroke: #ffffff; stroke-width: 0.75; stroke-linejoin: miter"/>
     <use xlink:href="#m1d9549fe3f" x="349.207805" y="220.6455" style="fill: #ff9896; stroke: #ffffff; stroke-width: 0.75; stroke-linejoin: miter"/>
     <use xlink:href="#m1d9549fe3f" x="418.185324" y="211.382683" style="fill: #ff9896; stroke: #ffffff; stroke-width: 0.75; stroke-linejoin: miter"/>
     <use xlink:href="#m1d9549fe3f" x="471.688445" y="207.726308" style="fill: #ff9896; stroke: #ffffff; stroke-width: 0.75; stroke-linejoin: miter"/>
     <use xlink:href="#m1d9549fe3f" x="515.403677" y="204.394944" style="fill: #ff9896; stroke: #ffffff; stroke-width: 0.75; stroke-linejoin: miter"/>
     <use xlink:href="#m1d9549fe3f" x="552.36438" y="203.013646" style="fill: #ff9896; stroke: #ffffff; stroke-width: 0.75; stroke-linejoin: miter"/>
     <use xlink:href="#m1d9549fe3f" x="584.381197" y="198.951007" style="fill: #ff9896; stroke: #ffffff; stroke-width: 0.75; stroke-linejoin: miter"/>
     <use xlink:href="#m1d9549fe3f" x="612.622031" y="193.710203" style="fill: #ff9896; stroke: #ffffff; stroke-width: 0.75; stroke-linejoin: miter"/>
     <use xlink:href="#m1d9549fe3f" x="637.884317" y="192.125774" style="fill: #ff9896; stroke: #ffffff; stroke-width: 0.75; stroke-linejoin: miter"/>
     <use xlink:href="#m1d9549fe3f" x="660.736835" y="189.972575" style="fill: #ff9896; stroke: #ffffff; stroke-width: 0.75; stroke-linejoin: miter"/>
     <use xlink:href="#m1d9549fe3f" x="681.59955" y="188.875662" style="fill: #ff9896; stroke: #ffffff; stroke-width: 0.75; stroke-linejoin: miter"/>
     <use xlink:href="#m1d9549fe3f" x="700.791387" y="188.591278" style="fill: #ff9896; stroke: #ffffff; stroke-width: 0.75; stroke-linejoin: miter"/>
     <use xlink:href="#m1d9549fe3f" x="718.560252" y="187.697497" style="fill: #ff9896; stroke: #ffffff; stroke-width: 0.75; stroke-linejoin: miter"/>
     <use xlink:href="#m1d9549fe3f" x="735.10267" y="186.641211" style="fill: #ff9896; stroke: #ffffff; stroke-width: 0.75; stroke-linejoin: miter"/>
    </g>
   </g>
   <g id="line2d_35">
    <path d="M 85.79358 253.146613 
L 251.989452 242.421245 
L 349.207805 236.652298 
L 418.185324 231.289614 
L 471.688445 227.917624 
L 515.403677 224.911271 
L 552.36438 219.304829 
L 584.381197 216.867246 
L 612.622031 215.404696 
L 637.884317 210.773287 
L 660.736835 208.213824 
L 681.59955 205.735615 
L 700.791387 200.129173 
L 718.560252 197.366578 
L 735.10267 196.10716 
" clip-path="url(#pf76ab4b984)" style="fill: none; stroke: #1f77b4; stroke-width: 1.5; stroke-linecap: square"/>
    <defs>
     <path id="m14f5194349" d="M 0 3 
C 0.795609 3 1.55874 2.683901 2.12132 2.12132 
C 2.683901 1.55874 3 0.795609 3 0 
C 3 -0.795609 2.683901 -1.55874 2.12132 -2.12132 
C 1.55874 -2.683901 0.795609 -3 0 -3 
C -0.795609 -3 -1.55874 -2.683901 -2.12132 -2.12132 
C -2.683901 -1.55874 -3 -0.795609 -3 0 
C -3 0.795609 -2.683901 1.55874 -2.12132 2.12132 
C -1.55874 2.683901 -0.795609 3 0 3 
z
" style="stroke: #ffffff; stroke-width: 0.75"/>
    </defs>
    <g clip-path="url(#pf76ab4b984)">
     <use xlink:href="#m14f5194349" x="85.79358" y="253.146613" style="fill: #1f77b4; stroke: #ffffff; stroke-width: 0.75"/>
     <use xlink:href="#m14f5194349" x="251.989452" y="242.421245" style="fill: #1f77b4; stroke: #ffffff; stroke-width: 0.75"/>
     <use xlink:href="#m14f5194349" x="349.207805" y="236.652298" style="fill: #1f77b4; stroke: #ffffff; stroke-width: 0.75"/>
     <use xlink:href="#m14f5194349" x="418.185324" y="231.289614" style="fill: #1f77b4; stroke: #ffffff; stroke-width: 0.75"/>
     <use xlink:href="#m14f5194349" x="471.688445" y="227.917624" style="fill: #1f77b4; stroke: #ffffff; stroke-width: 0.75"/>
     <use xlink:href="#m14f5194349" x="515.403677" y="224.911271" style="fill: #1f77b4; stroke: #ffffff; stroke-width: 0.75"/>
     <use xlink:href="#m14f5194349" x="552.36438" y="219.304829" style="fill: #1f77b4; stroke: #ffffff; stroke-width: 0.75"/>
     <use xlink:href="#m14f5194349" x="584.381197" y="216.867246" style="fill: #1f77b4; stroke: #ffffff; stroke-width: 0.75"/>
     <use xlink:href="#m14f5194349" x="612.622031" y="215.404696" style="fill: #1f77b4; stroke: #ffffff; stroke-width: 0.75"/>
     <use xlink:href="#m14f5194349" x="637.884317" y="210.773287" style="fill: #1f77b4; stroke: #ffffff; stroke-width: 0.75"/>
     <use xlink:href="#m14f5194349" x="660.736835" y="208.213824" style="fill: #1f77b4; stroke: #ffffff; stroke-width: 0.75"/>
     <use xlink:href="#m14f5194349" x="681.59955" y="205.735615" style="fill: #1f77b4; stroke: #ffffff; stroke-width: 0.75"/>
     <use xlink:href="#m14f5194349" x="700.791387" y="200.129173" style="fill: #1f77b4; stroke: #ffffff; stroke-width: 0.75"/>
     <use xlink:href="#m14f5194349" x="718.560252" y="197.366578" style="fill: #1f77b4; stroke: #ffffff; stroke-width: 0.75"/>
     <use xlink:href="#m14f5194349" x="735.10267" y="196.10716" style="fill: #1f77b4; stroke: #ffffff; stroke-width: 0.75"/>
    </g>
   </g>
   <g id="line2d_36"/>
   <g id="line2d_37"/>
   <g id="line2d_38"/>
   <g id="line2d_39"/>
   <g id="line2d_40"/>
   <g id="line2d_41"/>
   <g id="line2d_42">
    <path d="M 735.10267 288.430125 
L 735.10267 22.318125 
" clip-path="url(#pf76ab4b984)" style="fill: none; stroke: #ff0000; stroke-width: 1.5; stroke-linecap: square"/>
   </g>
   <g id="patch_3">
    <path d="M 53.328125 252.49659 
L 53.328125 49.364637 
" style="fill: none; stroke: #000000; stroke-width: 0.8; stroke-linejoin: miter; stroke-linecap: square"/>
   </g>
   <g id="patch_4">
    <path d="M 735.10267 288.430125 
L 735.368934 288.430125 
" style="fill: none; stroke: #000000; stroke-width: 0.8; stroke-linejoin: miter; stroke-linecap: square"/>
   </g>
   <g id="text_21">
    <!-- freetype2-2017 (15m, 100 trials/fuzzer) -->
    <g transform="translate(291.375313 16.318125) scale(0.12 -0.12)">
     <defs>
      <path id="DejaVuSans-66" d="M 2375 4863 
L 2375 4384 
L 1825 4384 
Q 1516 4384 1395 4259 
Q 1275 4134 1275 3809 
L 1275 3500 
L 2222 3500 
L 2222 3053 
L 1275 3053 
L 1275 0 
L 697 0 
L 697 3053 
L 147 3053 
L 147 3500 
L 697 3500 
L 697 3744 
Q 697 4328 969 4595 
Q 1241 4863 1831 4863 
L 2375 4863 
z
" transform="scale(0.015625)"/>
      <path id="DejaVuSans-79" d="M 2059 -325 
Q 1816 -950 1584 -1140 
Q 1353 -1331 966 -1331 
L 506 -1331 
L 506 -850 
L 844 -850 
Q 1081 -850 1212 -737 
Q 1344 -625 1503 -206 
L 1606 56 
L 191 3500 
L 800 3500 
L 1894 763 
L 2988 3500 
L 3597 3500 
L 2059 -325 
z
" transform="scale(0.015625)"/>
      <path id="DejaVuSans-70" d="M 1159 525 
L 1159 -1331 
L 581 -1331 
L 581 3500 
L 1159 3500 
L 1159 2969 
Q 1341 3281 1617 3432 
Q 1894 3584 2278 3584 
Q 2916 3584 3314 3078 
Q 3713 2572 3713 1747 
Q 3713 922 3314 415 
Q 2916 -91 2278 -91 
Q 1894 -91 1617 61 
Q 1341 213 1159 525 
z
M 3116 1747 
Q 3116 2381 2855 2742 
Q 2594 3103 2138 3103 
Q 1681 3103 1420 2742 
Q 1159 2381 1159 1747 
Q 1159 1113 1420 752 
Q 1681 391 2138 391 
Q 2594 391 2855 752 
Q 3116 1113 3116 1747 
z
" transform="scale(0.015625)"/>
      <path id="DejaVuSans-2d" d="M 313 2009 
L 1997 2009 
L 1997 1497 
L 313 1497 
L 313 2009 
z
" transform="scale(0.015625)"/>
      <path id="DejaVuSans-37" d="M 525 4666 
L 3525 4666 
L 3525 4397 
L 1831 0 
L 1172 0 
L 2766 4134 
L 525 4134 
L 525 4666 
z
" transform="scale(0.015625)"/>
      <path id="DejaVuSans-2c" d="M 750 794 
L 1409 794 
L 1409 256 
L 897 -744 
L 494 -744 
L 750 256 
L 750 794 
z
" transform="scale(0.015625)"/>
      <path id="DejaVuSans-6c" d="M 603 4863 
L 1178 4863 
L 1178 0 
L 603 0 
L 603 4863 
z
" transform="scale(0.015625)"/>
      <path id="DejaVuSans-73" d="M 2834 3397 
L 2834 2853 
Q 2591 2978 2328 3040 
Q 2066 3103 1784 3103 
Q 1356 3103 1142 2972 
Q 928 2841 928 2578 
Q 928 2378 1081 2264 
Q 1234 2150 1697 2047 
L 1894 2003 
Q 2506 1872 2764 1633 
Q 3022 1394 3022 966 
Q 3022 478 2636 193 
Q 2250 -91 1575 -91 
Q 1294 -91 989 -36 
Q 684 19 347 128 
L 347 722 
Q 666 556 975 473 
Q 1284 391 1588 391 
Q 1994 391 2212 530 
Q 2431 669 2431 922 
Q 2431 1156 2273 1281 
Q 2116 1406 1581 1522 
L 1381 1569 
Q 847 1681 609 1914 
Q 372 2147 372 2553 
Q 372 3047 722 3315 
Q 1072 3584 1716 3584 
Q 2034 3584 2315 3537 
Q 2597 3491 2834 3397 
z
" transform="scale(0.015625)"/>
      <path id="DejaVuSans-2f" d="M 1625 4666 
L 2156 4666 
L 531 -594 
L 0 -594 
L 1625 4666 
z
" transform="scale(0.015625)"/>
      <path id="DejaVuSans-7a" d="M 353 3500 
L 3084 3500 
L 3084 2975 
L 922 459 
L 3084 459 
L 3084 0 
L 275 0 
L 275 525 
L 2438 3041 
L 353 3041 
L 353 3500 
z
" transform="scale(0.015625)"/>
     </defs>
     <use xlink:href="#DejaVuSans-66"/>
     <use xlink:href="#DejaVuSans-72" x="35.205078"/>
     <use xlink:href="#DejaVuSans-65" x="74.068359"/>
     <use xlink:href="#DejaVuSans-65" x="135.591797"/>
     <use xlink:href="#DejaVuSans-74" x="197.115234"/>
     <use xlink:href="#DejaVuSans-79" x="236.324219"/>
     <use xlink:href="#DejaVuSans-70" x="295.503906"/>
     <use xlink:href="#DejaVuSans-65" x="358.980469"/>
     <use xlink:href="#DejaVuSans-32" x="420.503906"/>
     <use xlink:href="#DejaVuSans-2d" x="484.126953"/>
     <use xlink:href="#DejaVuSans-32" x="520.210938"/>
     <use xlink:href="#DejaVuSans-30" x="583.833984"/>
     <use xlink:href="#DejaVuSans-31" x="647.457031"/>
     <use xlink:href="#DejaVuSans-37" x="711.080078"/>
     <use xlink:href="#DejaVuSans-20" x="774.703125"/>
     <use xlink:href="#DejaVuSans-28" x="806.490234"/>
     <use xlink:href="#DejaVuSans-31" x="845.503906"/>
     <use xlink:href="#DejaVuSans-35" x="909.126953"/>
     <use xlink:href="#DejaVuSans-6d" x="972.75"/>
     <use xlink:href="#DejaVuSans-2c" x="1070.162109"/>
     <use xlink:href="#DejaVuSans-20" x="1101.949219"/>
     <use xlink:href="#DejaVuSans-31" x="1133.736328"/>
     <use xlink:href="#DejaVuSans-30" x="1197.359375"/>
     <use xlink:href="#DejaVuSans-30" x="1260.982422"/>
     <use xlink:href="#DejaVuSans-20" x="1324.605469"/>
     <use xlink:href="#DejaVuSans-74" x="1356.392578"/>
     <use xlink:href="#DejaVuSans-72" x="1395.601562"/>
     <use xlink:href="#DejaVuSans-69" x="1436.714844"/>
     <use xlink:href="#DejaVuSans-61" x="1464.498047"/>
     <use xlink:href="#DejaVuSans-6c" x="1525.777344"/>
     <use xlink:href="#DejaVuSans-73" x="1553.560547"/>
     <use xlink:href="#DejaVuSans-2f" x="1605.660156"/>
     <use xlink:href="#DejaVuSans-66" x="1639.351562"/>
     <use xlink:href="#DejaVuSans-75" x="1674.556641"/>
     <use xlink:href="#DejaVuSans-7a" x="1737.935547"/>
     <use xlink:href="#DejaVuSans-7a" x="1790.425781"/>
     <use xlink:href="#DejaVuSans-65" x="1842.916016"/>
     <use xlink:href="#DejaVuSans-72" x="1904.439453"/>
     <use xlink:href="#DejaVuSans-29" x="1945.552734"/>
    </g>
   </g>
   <g id="legend_1">
    <g id="line2d_43">
     <path d="M 771.568125 30.416562 
L 781.568125 30.416562 
L 791.568125 30.416562 
" style="fill: none; stroke: #ff7f0e; stroke-width: 1.5; stroke-linecap: square"/>
     <defs>
      <path id="m5471bac8fb" d="M 3 0 
L -3 -3 
L -3 3 
z
" style="stroke: #ff7f0e; stroke-linejoin: miter"/>
     </defs>
     <g>
      <use xlink:href="#m5471bac8fb" x="781.568125" y="30.416562" style="fill: #ff7f0e; stroke: #ff7f0e; stroke-linejoin: miter"/>
     </g>
    </g>
    <g id="text_22">
     <!-- honggfuzz -->
     <g transform="translate(799.568125 33.916562) scale(0.1 -0.1)">
      <use xlink:href="#DejaVuSans-68"/>
      <use xlink:href="#DejaVuSans-6f" x="63.378906"/>
      <use xlink:href="#DejaVuSans-6e" x="124.560547"/>
      <use xlink:href="#DejaVuSans-67" x="187.939453"/>
      <use xlink:href="#DejaVuSans-67" x="251.416016"/>
      <use xlink:href="#DejaVuSans-66" x="314.892578"/>
      <use xlink:href="#DejaVuSans-75" x="350.097656"/>
      <use xlink:href="#DejaVuSans-7a" x="413.476562"/>
      <use xlink:href="#DejaVuSans-7a" x="465.966797"/>
     </g>
    </g>
    <g id="line2d_44">
     <path d="M 771.568125 45.094688 
L 781.568125 45.094688 
L 791.568125 45.094688 
" style="fill: none; stroke: #98df8a; stroke-width: 1.5; stroke-linecap: square"/>
     <defs>
      <path id="m70a4b92252" d="M -0 3 
L 3 -3 
L -3 -3 
z
" style="stroke: #98df8a; stroke-linejoin: miter"/>
     </defs>
     <g>
      <use xlink:href="#m70a4b92252" x="781.568125" y="45.094688" style="fill: #98df8a; stroke: #98df8a; stroke-linejoin: miter"/>
     </g>
    </g>
    <g id="text_23">
     <!-- aflplusplus -->
     <g transform="translate(799.568125 48.594688) scale(0.1 -0.1)">
      <use xlink:href="#DejaVuSans-61"/>
      <use xlink:href="#DejaVuSans-66" x="61.279297"/>
      <use xlink:href="#DejaVuSans-6c" x="96.484375"/>
      <use xlink:href="#DejaVuSans-70" x="124.267578"/>
      <use xlink:href="#DejaVuSans-6c" x="187.744141"/>
      <use xlink:href="#DejaVuSans-75" x="215.527344"/>
      <use xlink:href="#DejaVuSans-73" x="278.90625"/>
      <use xlink:href="#DejaVuSans-70" x="331.005859"/>
      <use xlink:href="#DejaVuSans-6c" x="394.482422"/>
      <use xlink:href="#DejaVuSans-75" x="422.265625"/>
      <use xlink:href="#DejaVuSans-73" x="485.644531"/>
     </g>
    </g>
    <g id="line2d_45">
     <path d="M 771.568125 59.772812 
L 781.568125 59.772812 
L 791.568125 59.772812 
" style="fill: none; stroke: #d62728; stroke-width: 1.5; stroke-linecap: square"/>
     <defs>
      <path id="m94843fbba1" d="M 0 -3 
L -3 3 
L 3 3 
z
" style="stroke: #d62728; stroke-linejoin: miter"/>
     </defs>
     <g>
      <use xlink:href="#m94843fbba1" x="781.568125" y="59.772812" style="fill: #d62728; stroke: #d62728; stroke-linejoin: miter"/>
     </g>
    </g>
    <g id="text_24">
     <!-- eclipser -->
     <g transform="translate(799.568125 63.272812) scale(0.1 -0.1)">
      <use xlink:href="#DejaVuSans-65"/>
      <use xlink:href="#DejaVuSans-63" x="61.523438"/>
      <use xlink:href="#DejaVuSans-6c" x="116.503906"/>
      <use xlink:href="#DejaVuSans-69" x="144.287109"/>
      <use xlink:href="#DejaVuSans-70" x="172.070312"/>
      <use xlink:href="#DejaVuSans-73" x="235.546875"/>
      <use xlink:href="#DejaVuSans-65" x="287.646484"/>
      <use xlink:href="#DejaVuSans-72" x="349.169922"/>
     </g>
    </g>
    <g id="line2d_46">
     <path d="M 771.568125 74.450938 
L 781.568125 74.450938 
L 791.568125 74.450938 
" style="fill: none; stroke: #c7c7c7; stroke-width: 1.5; stroke-linecap: square"/>
     <defs>
      <path id="m771c7cddb0" d="M -3 -0 
L 3 3 
L 3 -3 
z
" style="stroke: #c7c7c7; stroke-linejoin: miter"/>
     </defs>
     <g>
      <use xlink:href="#m771c7cddb0" x="781.568125" y="74.450938" style="fill: #c7c7c7; stroke: #c7c7c7; stroke-linejoin: miter"/>
     </g>
    </g>
    <g id="text_25">
     <!-- entropic -->
     <g transform="translate(799.568125 77.950938) scale(0.1 -0.1)">
      <use xlink:href="#DejaVuSans-65"/>
      <use xlink:href="#DejaVuSans-6e" x="61.523438"/>
      <use xlink:href="#DejaVuSans-74" x="124.902344"/>
      <use xlink:href="#DejaVuSans-72" x="164.111328"/>
      <use xlink:href="#DejaVuSans-6f" x="202.974609"/>
      <use xlink:href="#DejaVuSans-70" x="264.15625"/>
      <use xlink:href="#DejaVuSans-69" x="327.632812"/>
      <use xlink:href="#DejaVuSans-63" x="355.416016"/>
     </g>
    </g>
    <g id="line2d_47">
     <path d="M 771.568125 89.129063 
L 781.568125 89.129063 
L 791.568125 89.129063 
" style="fill: none; stroke: #ff9896; stroke-width: 1.5; stroke-linecap: square"/>
     <defs>
      <path id="m07be60b40f" d="M -1.14805 -2.771639 
L -2.771639 -1.14805 
L -2.771639 1.14805 
L -1.14805 2.771639 
L 1.14805 2.771639 
L 2.771639 1.14805 
L 2.771639 -1.14805 
L 1.14805 -2.771639 
z
" style="stroke: #ff9896; stroke-linejoin: miter"/>
     </defs>
     <g>
      <use xlink:href="#m07be60b40f" x="781.568125" y="89.129063" style="fill: #ff9896; stroke: #ff9896; stroke-linejoin: miter"/>
     </g>
    </g>
    <g id="text_26">
     <!-- libfuzzer -->
     <g transform="translate(799.568125 92.629063) scale(0.1 -0.1)">
      <use xlink:href="#DejaVuSans-6c"/>
      <use xlink:href="#DejaVuSans-69" x="27.783203"/>
      <use xlink:href="#DejaVuSans-62" x="55.566406"/>
      <use xlink:href="#DejaVuSans-66" x="119.042969"/>
      <use xlink:href="#DejaVuSans-75" x="154.248047"/>
      <use xlink:href="#DejaVuSans-7a" x="217.626953"/>
      <use xlink:href="#DejaVuSans-7a" x="270.117188"/>
      <use xlink:href="#DejaVuSans-65" x="322.607422"/>
      <use xlink:href="#DejaVuSans-72" x="384.130859"/>
     </g>
    </g>
    <g id="line2d_48">
     <path d="M 771.568125 103.807187 
L 781.568125 103.807187 
L 791.568125 103.807187 
" style="fill: none; stroke: #1f77b4; stroke-width: 1.5; stroke-linecap: square"/>
     <defs>
      <path id="mfadce5a54f" d="M 0 3 
C 0.795609 3 1.55874 2.683901 2.12132 2.12132 
C 2.683901 1.55874 3 0.795609 3 0 
C 3 -0.795609 2.683901 -1.55874 2.12132 -2.12132 
C 1.55874 -2.683901 0.795609 -3 0 -3 
C -0.795609 -3 -1.55874 -2.683901 -2.12132 -2.12132 
C -2.683901 -1.55874 -3 -0.795609 -3 0 
C -3 0.795609 -2.683901 1.55874 -2.12132 2.12132 
C -1.55874 2.683901 -0.795609 3 0 3 
z
" style="stroke: #1f77b4"/>
     </defs>
     <g>
      <use xlink:href="#mfadce5a54f" x="781.568125" y="103.807187" style="fill: #1f77b4; stroke: #1f77b4"/>
     </g>
    </g>
    <g id="text_27">
     <!-- afl -->
     <g transform="translate(799.568125 107.307187) scale(0.1 -0.1)">
      <use xlink:href="#DejaVuSans-61"/>
      <use xlink:href="#DejaVuSans-66" x="61.279297"/>
      <use xlink:href="#DejaVuSans-6c" x="96.484375"/>
     </g>
    </g>
   </g>
  </g>
 </g>
 <defs>
  <clipPath id="pf76ab4b984">
   <rect x="53.328125" y="22.318125" width="714.24" height="266.112"/>
  </clipPath>
 </defs>
</svg>
