<?xml version="1.0" encoding="utf-8" standalone="no"?>
<!DOCTYPE svg PUBLIC "-//W3C//DTD SVG 1.1//EN"
  "http://www.w3.org/Graphics/SVG/1.1/DTD/svg11.dtd">
<svg height="325.986375pt" version="1.1" viewBox="0 0 864.541562 325.986375" width="864.541562pt" xmlns="http://www.w3.org/2000/svg" xmlns:xlink="http://www.w3.org/1999/xlink">
 <metadata>
  <rdf:RDF xmlns:cc="http://creativecommons.org/ns#" xmlns:dc="http://purl.org/dc/elements/1.1/" xmlns:rdf="http://www.w3.org/1999/02/22-rdf-syntax-ns#">
   <cc:Work>
    <dc:type rdf:resource="http://purl.org/dc/dcmitype/StillImage"/>
    <dc:date>2022-12-21T19:00:56.953504</dc:date>
    <dc:format>image/svg+xml</dc:format>
    <dc:creator>
     <cc:Agent>
      <dc:title>Matplotlib v3.4.2, https://matplotlib.org/</dc:title>
     </cc:Agent>
    </dc:creator>
   </cc:Work>
  </rdf:RDF>
 </metadata>
 <defs>
  <style type="text/css">*{stroke-linecap:butt;stroke-linejoin:round;}</style>
 </defs>
 <g id="figure_1">
  <g id="patch_1">
   <path d="M 0 325.986375 
L 864.541562 325.986375 
L 864.541562 0 
L 0 0 
z
" style="fill:#ffffff;"/>
  </g>
  <g id="axes_1">
   <g id="patch_2">
    <path d="M 53.328125 288.430125 
L 767.568125 288.430125 
L 767.568125 22.318125 
L 53.328125 22.318125 
z
" style="fill:#ffffff;"/>
   </g>
   <g id="PolyCollection_1">
    <defs>
     <path d="M 85.79358 -145.195631 
L 85.79358 -133.931448 
L 132.1728 -185.222473 
L 178.552021 -209.199299 
L 224.931242 -223.055688 
L 271.310463 -236.926519 
L 317.689683 -245.244686 
L 364.068904 -253.620617 
L 410.448125 -260.610187 
L 456.827346 -265.577981 
L 503.206567 -270.776835 
L 549.585787 -275.109213 
L 595.965008 -278.514462 
L 642.344229 -281.636663 
L 688.72345 -284.755975 
L 735.10267 -287.470932 
L 735.10267 -291.57225 
L 735.10267 -291.57225 
L 688.72345 -287.990817 
L 642.344229 -285.333625 
L 595.965008 -282.329843 
L 549.585787 -279.210531 
L 503.206567 -275.282508 
L 456.827346 -271.75884 
L 410.448125 -265.34692 
L 364.068904 -258.877236 
L 317.689683 -251.25225 
L 271.310463 -242.414198 
L 224.931242 -230.110244 
L 178.552021 -214.051562 
L 132.1728 -193.256147 
L 85.79358 -145.195631 
z
" id="me89bacae1d" style="stroke:#c7c7c7;stroke-opacity:0.2;"/>
    </defs>
    <g clip-path="url(#paf67d50ede)">
     <use style="fill:#c7c7c7;fill-opacity:0.2;stroke:#c7c7c7;stroke-opacity:0.2;" x="0" xlink:href="#me89bacae1d" y="325.986375"/>
    </g>
   </g>
   <g id="PolyCollection_2">
    <defs>
     <path d="M 85.79358 -148.323608 
L 85.79358 -136.184284 
L 132.1728 -185.400101 
L 178.552021 -208.043998 
L 224.931242 -221.208651 
L 271.310463 -229.532594 
L 317.689683 -239.063826 
L 364.068904 -246.111161 
L 410.448125 -249.92221 
L 456.827346 -255.526863 
L 503.206567 -260.610187 
L 549.585787 -264.30715 
L 595.965008 -267.479895 
L 642.344229 -271.470015 
L 688.72345 -274.589327 
L 735.10267 -276.49413 
L 735.10267 -284.35162 
L 735.10267 -284.35162 
L 688.72345 -281.756525 
L 642.344229 -279.383826 
L 595.965008 -277.942588 
L 549.585787 -273.260731 
L 503.206567 -270.256949 
L 456.827346 -264.76927 
L 410.448125 -260.148067 
L 364.068904 -254.256032 
L 317.689683 -246.867883 
L 271.310463 -240.103597 
L 224.931242 -229.648124 
L 178.552021 -219.134886 
L 132.1728 -196.95311 
L 85.79358 -148.323608 
z
" id="m63c56c1029" style="stroke:#ff9896;stroke-opacity:0.2;"/>
    </defs>
    <g clip-path="url(#paf67d50ede)">
     <use style="fill:#ff9896;fill-opacity:0.2;stroke:#ff9896;stroke-opacity:0.2;" x="0" xlink:href="#m63c56c1029" y="325.986375"/>
    </g>
   </g>
   <g id="PolyCollection_3">
    <defs>
     <path d="M 85.79358 -96.557465 
L 85.79358 -80.267723 
L 132.1728 -123.705591 
L 178.552021 -158.597121 
L 224.931242 -182.800674 
L 271.310463 -198.686061 
L 317.689683 -211.781396 
L 364.068904 -222.658554 
L 410.448125 -233.785545 
L 456.827346 -240.045832 
L 503.206567 -245.936422 
L 549.585787 -251.36778 
L 595.965008 -256.451104 
L 642.344229 -260.263597 
L 688.72345 -263.90135 
L 735.10267 -267.195402 
L 735.10267 -277.015459 
L 735.10267 -277.015459 
L 688.72345 -274.416032 
L 642.344229 -270.372479 
L 595.965008 -265.11586 
L 549.585787 -261.187837 
L 503.206567 -256.277809 
L 456.827346 -250.618279 
L 410.448125 -243.627264 
L 364.068904 -235.713453 
L 317.689683 -222.950267 
L 271.310463 -214.224857 
L 224.931242 -197.706943 
L 178.552021 -175.637809 
L 132.1728 -146.641201 
L 85.79358 -96.557465 
z
" id="m6ce758819c" style="stroke:#ff7f0e;stroke-opacity:0.2;"/>
    </defs>
    <g clip-path="url(#paf67d50ede)">
     <use style="fill:#ff7f0e;fill-opacity:0.2;stroke:#ff7f0e;stroke-opacity:0.2;" x="0" xlink:href="#m6ce758819c" y="325.986375"/>
    </g>
   </g>
   <g id="PolyCollection_4">
    <defs>
     <path d="M 85.79358 -82.578324 
L 85.79358 -67.039528 
L 132.1728 -112.083264 
L 178.552021 -129.65539 
L 224.931242 -139.245832 
L 271.310463 -152.878382 
L 317.689683 -158.192766 
L 364.068904 -165.98527 
L 410.448125 -170.142909 
L 456.827346 -176.966405 
L 503.206567 -182.973969 
L 549.585787 -185.977751 
L 595.965008 -189.963539 
L 642.344229 -193.949327 
L 688.72345 -196.144399 
L 735.10267 -201.343253 
L 735.10267 -215.094221 
L 735.10267 -215.094221 
L 688.72345 -212.321499 
L 642.344229 -206.776055 
L 595.965008 -199.964112 
L 549.585787 -197.53076 
L 503.206567 -192.158611 
L 456.827346 -189.385889 
L 410.448125 -185.065064 
L 364.068904 -179.450302 
L 317.689683 -172.229671 
L 271.310463 -165.875516 
L 224.931242 -155.190428 
L 178.552021 -140.227837 
L 132.1728 -131.85335 
L 85.79358 -82.578324 
z
" id="mddd22d0838" style="stroke:#98df8a;stroke-opacity:0.2;"/>
    </defs>
    <g clip-path="url(#paf67d50ede)">
     <use style="fill:#98df8a;fill-opacity:0.2;stroke:#98df8a;stroke-opacity:0.2;" x="0" xlink:href="#mddd22d0838" y="325.986375"/>
    </g>
   </g>
   <g id="PolyCollection_5">
    <defs>
     <path d="M 85.79358 -69.523425 
L 85.79358 -49.65225 
L 132.1728 -90.715975 
L 178.552021 -111.749671 
L 224.931242 -122.031849 
L 271.310463 -130.75437 
L 317.689683 -137.16629 
L 364.068904 -142.422909 
L 410.448125 -145.080101 
L 456.827346 -148.546004 
L 503.206567 -150.394485 
L 549.585787 -152.069671 
L 595.965008 -152.878382 
L 642.344229 -155.939929 
L 688.72345 -156.516135 
L 735.10267 -159.405832 
L 735.10267 -165.413396 
L 735.10267 -165.413396 
L 688.72345 -163.795975 
L 642.344229 -162.412502 
L 595.965008 -159.867952 
L 549.585787 -158.077236 
L 503.206567 -154.726863 
L 456.827346 -153.513797 
L 410.448125 -150.741075 
L 364.068904 -146.813052 
L 317.689683 -143.57821 
L 271.310463 -137.570645 
L 224.931242 -131.043196 
L 178.552021 -121.049843 
L 132.1728 -103.084915 
L 85.79358 -69.523425 
z
" id="m89db283f2c" style="stroke:#d62728;stroke-opacity:0.2;"/>
    </defs>
    <g clip-path="url(#paf67d50ede)">
     <use style="fill:#d62728;fill-opacity:0.2;stroke:#d62728;stroke-opacity:0.2;" x="0" xlink:href="#m89db283f2c" y="325.986375"/>
    </g>
   </g>
   <g id="PolyCollection_6">
    <defs>
     <path d="M 85.79358 -71.602966 
L 85.79358 -59.472307 
L 132.1728 -94.765304 
L 178.552021 -113.294886 
L 224.931242 -124.736697 
L 271.310463 -133.527092 
L 317.689683 -137.39735 
L 364.068904 -141.209843 
L 410.448125 -143.751505 
L 456.827346 -147.044112 
L 503.206567 -149.932365 
L 549.585787 -152.241522 
L 595.965008 -156.286519 
L 642.344229 -156.86417 
L 688.72345 -158.423826 
L 735.10267 -160.099012 
L 735.10267 -166.339081 
L 735.10267 -166.339081 
L 688.72345 -164.893511 
L 642.344229 -163.333855 
L 595.965008 -161.543138 
L 549.585787 -159.579127 
L 503.206567 -157.21076 
L 456.827346 -154.900158 
L 410.448125 -151.318726 
L 364.068904 -147.159643 
L 317.689683 -143.57821 
L 271.310463 -139.305041 
L 224.931242 -134.978439 
L 178.552021 -127.580181 
L 132.1728 -111.114256 
L 85.79358 -71.602966 
z
" id="m832a9311ca" style="stroke:#1f77b4;stroke-opacity:0.2;"/>
    </defs>
    <g clip-path="url(#paf67d50ede)">
     <use style="fill:#1f77b4;fill-opacity:0.2;stroke:#1f77b4;stroke-opacity:0.2;" x="0" xlink:href="#m832a9311ca" y="325.986375"/>
    </g>
   </g>
   <g id="matplotlib.axis_1">
    <g id="xtick_1">
     <g id="line2d_1">
      <defs>
       <path d="M 0 0 
L 0 3.5 
" id="m8e975d55f0" style="stroke:#000000;stroke-width:0.8;"/>
      </defs>
      <g>
       <use style="stroke:#000000;stroke-width:0.8;" x="735.10267" xlink:href="#m8e975d55f0" y="288.430125"/>
      </g>
     </g>
     <g id="text_1">
      <!-- 15m -->
      <g transform="translate(723.869858 303.028562)scale(0.1 -0.1)">
       <defs>
        <path d="M 794 531 
L 1825 531 
L 1825 4091 
L 703 3866 
L 703 4441 
L 1819 4666 
L 2450 4666 
L 2450 531 
L 3481 531 
L 3481 0 
L 794 0 
L 794 531 
z
" id="DejaVuSans-31" transform="scale(0.015625)"/>
        <path d="M 691 4666 
L 3169 4666 
L 3169 4134 
L 1269 4134 
L 1269 2991 
Q 1406 3038 1543 3061 
Q 1681 3084 1819 3084 
Q 2600 3084 3056 2656 
Q 3513 2228 3513 1497 
Q 3513 744 3044 326 
Q 2575 -91 1722 -91 
Q 1428 -91 1123 -41 
Q 819 9 494 109 
L 494 744 
Q 775 591 1075 516 
Q 1375 441 1709 441 
Q 2250 441 2565 725 
Q 2881 1009 2881 1497 
Q 2881 1984 2565 2268 
Q 2250 2553 1709 2553 
Q 1456 2553 1204 2497 
Q 953 2441 691 2322 
L 691 4666 
z
" id="DejaVuSans-35" transform="scale(0.015625)"/>
        <path d="M 3328 2828 
Q 3544 3216 3844 3400 
Q 4144 3584 4550 3584 
Q 5097 3584 5394 3201 
Q 5691 2819 5691 2113 
L 5691 0 
L 5113 0 
L 5113 2094 
Q 5113 2597 4934 2840 
Q 4756 3084 4391 3084 
Q 3944 3084 3684 2787 
Q 3425 2491 3425 1978 
L 3425 0 
L 2847 0 
L 2847 2094 
Q 2847 2600 2669 2842 
Q 2491 3084 2119 3084 
Q 1678 3084 1418 2786 
Q 1159 2488 1159 1978 
L 1159 0 
L 581 0 
L 581 3500 
L 1159 3500 
L 1159 2956 
Q 1356 3278 1631 3431 
Q 1906 3584 2284 3584 
Q 2666 3584 2933 3390 
Q 3200 3197 3328 2828 
z
" id="DejaVuSans-6d" transform="scale(0.015625)"/>
       </defs>
       <use xlink:href="#DejaVuSans-31"/>
       <use x="63.623047" xlink:href="#DejaVuSans-35"/>
       <use x="127.246094" xlink:href="#DejaVuSans-6d"/>
      </g>
     </g>
    </g>
    <g id="text_2">
     <!-- Time (hour:minute) -->
     <g transform="translate(362.041094 316.706687)scale(0.1 -0.1)">
      <defs>
       <path d="M -19 4666 
L 3928 4666 
L 3928 4134 
L 2272 4134 
L 2272 0 
L 1638 0 
L 1638 4134 
L -19 4134 
L -19 4666 
z
" id="DejaVuSans-54" transform="scale(0.015625)"/>
       <path d="M 603 3500 
L 1178 3500 
L 1178 0 
L 603 0 
L 603 3500 
z
M 603 4863 
L 1178 4863 
L 1178 4134 
L 603 4134 
L 603 4863 
z
" id="DejaVuSans-69" transform="scale(0.015625)"/>
       <path d="M 3597 1894 
L 3597 1613 
L 953 1613 
Q 991 1019 1311 708 
Q 1631 397 2203 397 
Q 2534 397 2845 478 
Q 3156 559 3463 722 
L 3463 178 
Q 3153 47 2828 -22 
Q 2503 -91 2169 -91 
Q 1331 -91 842 396 
Q 353 884 353 1716 
Q 353 2575 817 3079 
Q 1281 3584 2069 3584 
Q 2775 3584 3186 3129 
Q 3597 2675 3597 1894 
z
M 3022 2063 
Q 3016 2534 2758 2815 
Q 2500 3097 2075 3097 
Q 1594 3097 1305 2825 
Q 1016 2553 972 2059 
L 3022 2063 
z
" id="DejaVuSans-65" transform="scale(0.015625)"/>
       <path id="DejaVuSans-20" transform="scale(0.015625)"/>
       <path d="M 1984 4856 
Q 1566 4138 1362 3434 
Q 1159 2731 1159 2009 
Q 1159 1288 1364 580 
Q 1569 -128 1984 -844 
L 1484 -844 
Q 1016 -109 783 600 
Q 550 1309 550 2009 
Q 550 2706 781 3412 
Q 1013 4119 1484 4856 
L 1984 4856 
z
" id="DejaVuSans-28" transform="scale(0.015625)"/>
       <path d="M 3513 2113 
L 3513 0 
L 2938 0 
L 2938 2094 
Q 2938 2591 2744 2837 
Q 2550 3084 2163 3084 
Q 1697 3084 1428 2787 
Q 1159 2491 1159 1978 
L 1159 0 
L 581 0 
L 581 4863 
L 1159 4863 
L 1159 2956 
Q 1366 3272 1645 3428 
Q 1925 3584 2291 3584 
Q 2894 3584 3203 3211 
Q 3513 2838 3513 2113 
z
" id="DejaVuSans-68" transform="scale(0.015625)"/>
       <path d="M 1959 3097 
Q 1497 3097 1228 2736 
Q 959 2375 959 1747 
Q 959 1119 1226 758 
Q 1494 397 1959 397 
Q 2419 397 2687 759 
Q 2956 1122 2956 1747 
Q 2956 2369 2687 2733 
Q 2419 3097 1959 3097 
z
M 1959 3584 
Q 2709 3584 3137 3096 
Q 3566 2609 3566 1747 
Q 3566 888 3137 398 
Q 2709 -91 1959 -91 
Q 1206 -91 779 398 
Q 353 888 353 1747 
Q 353 2609 779 3096 
Q 1206 3584 1959 3584 
z
" id="DejaVuSans-6f" transform="scale(0.015625)"/>
       <path d="M 544 1381 
L 544 3500 
L 1119 3500 
L 1119 1403 
Q 1119 906 1312 657 
Q 1506 409 1894 409 
Q 2359 409 2629 706 
Q 2900 1003 2900 1516 
L 2900 3500 
L 3475 3500 
L 3475 0 
L 2900 0 
L 2900 538 
Q 2691 219 2414 64 
Q 2138 -91 1772 -91 
Q 1169 -91 856 284 
Q 544 659 544 1381 
z
M 1991 3584 
L 1991 3584 
z
" id="DejaVuSans-75" transform="scale(0.015625)"/>
       <path d="M 2631 2963 
Q 2534 3019 2420 3045 
Q 2306 3072 2169 3072 
Q 1681 3072 1420 2755 
Q 1159 2438 1159 1844 
L 1159 0 
L 581 0 
L 581 3500 
L 1159 3500 
L 1159 2956 
Q 1341 3275 1631 3429 
Q 1922 3584 2338 3584 
Q 2397 3584 2469 3576 
Q 2541 3569 2628 3553 
L 2631 2963 
z
" id="DejaVuSans-72" transform="scale(0.015625)"/>
       <path d="M 750 794 
L 1409 794 
L 1409 0 
L 750 0 
L 750 794 
z
M 750 3309 
L 1409 3309 
L 1409 2516 
L 750 2516 
L 750 3309 
z
" id="DejaVuSans-3a" transform="scale(0.015625)"/>
       <path d="M 3513 2113 
L 3513 0 
L 2938 0 
L 2938 2094 
Q 2938 2591 2744 2837 
Q 2550 3084 2163 3084 
Q 1697 3084 1428 2787 
Q 1159 2491 1159 1978 
L 1159 0 
L 581 0 
L 581 3500 
L 1159 3500 
L 1159 2956 
Q 1366 3272 1645 3428 
Q 1925 3584 2291 3584 
Q 2894 3584 3203 3211 
Q 3513 2838 3513 2113 
z
" id="DejaVuSans-6e" transform="scale(0.015625)"/>
       <path d="M 1172 4494 
L 1172 3500 
L 2356 3500 
L 2356 3053 
L 1172 3053 
L 1172 1153 
Q 1172 725 1289 603 
Q 1406 481 1766 481 
L 2356 481 
L 2356 0 
L 1766 0 
Q 1100 0 847 248 
Q 594 497 594 1153 
L 594 3053 
L 172 3053 
L 172 3500 
L 594 3500 
L 594 4494 
L 1172 4494 
z
" id="DejaVuSans-74" transform="scale(0.015625)"/>
       <path d="M 513 4856 
L 1013 4856 
Q 1481 4119 1714 3412 
Q 1947 2706 1947 2009 
Q 1947 1309 1714 600 
Q 1481 -109 1013 -844 
L 513 -844 
Q 928 -128 1133 580 
Q 1338 1288 1338 2009 
Q 1338 2731 1133 3434 
Q 928 4138 513 4856 
z
" id="DejaVuSans-29" transform="scale(0.015625)"/>
      </defs>
      <use xlink:href="#DejaVuSans-54"/>
      <use x="57.958984" xlink:href="#DejaVuSans-69"/>
      <use x="85.742188" xlink:href="#DejaVuSans-6d"/>
      <use x="183.154297" xlink:href="#DejaVuSans-65"/>
      <use x="244.677734" xlink:href="#DejaVuSans-20"/>
      <use x="276.464844" xlink:href="#DejaVuSans-28"/>
      <use x="315.478516" xlink:href="#DejaVuSans-68"/>
      <use x="378.857422" xlink:href="#DejaVuSans-6f"/>
      <use x="440.039062" xlink:href="#DejaVuSans-75"/>
      <use x="503.417969" xlink:href="#DejaVuSans-72"/>
      <use x="542.78125" xlink:href="#DejaVuSans-3a"/>
      <use x="576.472656" xlink:href="#DejaVuSans-6d"/>
      <use x="673.884766" xlink:href="#DejaVuSans-69"/>
      <use x="701.667969" xlink:href="#DejaVuSans-6e"/>
      <use x="765.046875" xlink:href="#DejaVuSans-75"/>
      <use x="828.425781" xlink:href="#DejaVuSans-74"/>
      <use x="867.634766" xlink:href="#DejaVuSans-65"/>
      <use x="929.158203" xlink:href="#DejaVuSans-29"/>
     </g>
    </g>
   </g>
   <g id="matplotlib.axis_2">
    <g id="ytick_1">
     <g id="line2d_2">
      <defs>
       <path d="M 0 0 
L -3.5 0 
" id="mc574c9a9ce" style="stroke:#000000;stroke-width:0.8;"/>
      </defs>
      <g>
       <use style="stroke:#000000;stroke-width:0.8;" x="53.328125" xlink:href="#mc574c9a9ce" y="240.750859"/>
      </g>
     </g>
     <g id="text_3">
      <!-- 1500 -->
      <g transform="translate(20.878125 244.550077)scale(0.1 -0.1)">
       <defs>
        <path d="M 2034 4250 
Q 1547 4250 1301 3770 
Q 1056 3291 1056 2328 
Q 1056 1369 1301 889 
Q 1547 409 2034 409 
Q 2525 409 2770 889 
Q 3016 1369 3016 2328 
Q 3016 3291 2770 3770 
Q 2525 4250 2034 4250 
z
M 2034 4750 
Q 2819 4750 3233 4129 
Q 3647 3509 3647 2328 
Q 3647 1150 3233 529 
Q 2819 -91 2034 -91 
Q 1250 -91 836 529 
Q 422 1150 422 2328 
Q 422 3509 836 4129 
Q 1250 4750 2034 4750 
z
" id="DejaVuSans-30" transform="scale(0.015625)"/>
       </defs>
       <use xlink:href="#DejaVuSans-31"/>
       <use x="63.623047" xlink:href="#DejaVuSans-35"/>
       <use x="127.246094" xlink:href="#DejaVuSans-30"/>
       <use x="190.869141" xlink:href="#DejaVuSans-30"/>
      </g>
     </g>
    </g>
    <g id="ytick_2">
     <g id="line2d_3">
      <g>
       <use style="stroke:#000000;stroke-width:0.8;" x="53.328125" xlink:href="#mc574c9a9ce" y="182.985816"/>
      </g>
     </g>
     <g id="text_4">
      <!-- 2000 -->
      <g transform="translate(20.878125 186.785034)scale(0.1 -0.1)">
       <defs>
        <path d="M 1228 531 
L 3431 531 
L 3431 0 
L 469 0 
L 469 531 
Q 828 903 1448 1529 
Q 2069 2156 2228 2338 
Q 2531 2678 2651 2914 
Q 2772 3150 2772 3378 
Q 2772 3750 2511 3984 
Q 2250 4219 1831 4219 
Q 1534 4219 1204 4116 
Q 875 4013 500 3803 
L 500 4441 
Q 881 4594 1212 4672 
Q 1544 4750 1819 4750 
Q 2544 4750 2975 4387 
Q 3406 4025 3406 3419 
Q 3406 3131 3298 2873 
Q 3191 2616 2906 2266 
Q 2828 2175 2409 1742 
Q 1991 1309 1228 531 
z
" id="DejaVuSans-32" transform="scale(0.015625)"/>
       </defs>
       <use xlink:href="#DejaVuSans-32"/>
       <use x="63.623047" xlink:href="#DejaVuSans-30"/>
       <use x="127.246094" xlink:href="#DejaVuSans-30"/>
       <use x="190.869141" xlink:href="#DejaVuSans-30"/>
      </g>
     </g>
    </g>
    <g id="ytick_3">
     <g id="line2d_4">
      <g>
       <use style="stroke:#000000;stroke-width:0.8;" x="53.328125" xlink:href="#mc574c9a9ce" y="125.220773"/>
      </g>
     </g>
     <g id="text_5">
      <!-- 2500 -->
      <g transform="translate(20.878125 129.019991)scale(0.1 -0.1)">
       <use xlink:href="#DejaVuSans-32"/>
       <use x="63.623047" xlink:href="#DejaVuSans-35"/>
       <use x="127.246094" xlink:href="#DejaVuSans-30"/>
       <use x="190.869141" xlink:href="#DejaVuSans-30"/>
      </g>
     </g>
    </g>
    <g id="ytick_4">
     <g id="line2d_5">
      <g>
       <use style="stroke:#000000;stroke-width:0.8;" x="53.328125" xlink:href="#mc574c9a9ce" y="67.45573"/>
      </g>
     </g>
     <g id="text_6">
      <!-- 3000 -->
      <g transform="translate(20.878125 71.254948)scale(0.1 -0.1)">
       <defs>
        <path d="M 2597 2516 
Q 3050 2419 3304 2112 
Q 3559 1806 3559 1356 
Q 3559 666 3084 287 
Q 2609 -91 1734 -91 
Q 1441 -91 1130 -33 
Q 819 25 488 141 
L 488 750 
Q 750 597 1062 519 
Q 1375 441 1716 441 
Q 2309 441 2620 675 
Q 2931 909 2931 1356 
Q 2931 1769 2642 2001 
Q 2353 2234 1838 2234 
L 1294 2234 
L 1294 2753 
L 1863 2753 
Q 2328 2753 2575 2939 
Q 2822 3125 2822 3475 
Q 2822 3834 2567 4026 
Q 2313 4219 1838 4219 
Q 1578 4219 1281 4162 
Q 984 4106 628 3988 
L 628 4550 
Q 988 4650 1302 4700 
Q 1616 4750 1894 4750 
Q 2613 4750 3031 4423 
Q 3450 4097 3450 3541 
Q 3450 3153 3228 2886 
Q 3006 2619 2597 2516 
z
" id="DejaVuSans-33" transform="scale(0.015625)"/>
       </defs>
       <use xlink:href="#DejaVuSans-33"/>
       <use x="63.623047" xlink:href="#DejaVuSans-30"/>
       <use x="127.246094" xlink:href="#DejaVuSans-30"/>
       <use x="190.869141" xlink:href="#DejaVuSans-30"/>
      </g>
     </g>
    </g>
    <g id="text_7">
     <!-- Code branch coverage -->
     <g transform="translate(14.798438 211.949125)rotate(-90)scale(0.1 -0.1)">
      <defs>
       <path d="M 4122 4306 
L 4122 3641 
Q 3803 3938 3442 4084 
Q 3081 4231 2675 4231 
Q 1875 4231 1450 3742 
Q 1025 3253 1025 2328 
Q 1025 1406 1450 917 
Q 1875 428 2675 428 
Q 3081 428 3442 575 
Q 3803 722 4122 1019 
L 4122 359 
Q 3791 134 3420 21 
Q 3050 -91 2638 -91 
Q 1578 -91 968 557 
Q 359 1206 359 2328 
Q 359 3453 968 4101 
Q 1578 4750 2638 4750 
Q 3056 4750 3426 4639 
Q 3797 4528 4122 4306 
z
" id="DejaVuSans-43" transform="scale(0.015625)"/>
       <path d="M 2906 2969 
L 2906 4863 
L 3481 4863 
L 3481 0 
L 2906 0 
L 2906 525 
Q 2725 213 2448 61 
Q 2172 -91 1784 -91 
Q 1150 -91 751 415 
Q 353 922 353 1747 
Q 353 2572 751 3078 
Q 1150 3584 1784 3584 
Q 2172 3584 2448 3432 
Q 2725 3281 2906 2969 
z
M 947 1747 
Q 947 1113 1208 752 
Q 1469 391 1925 391 
Q 2381 391 2643 752 
Q 2906 1113 2906 1747 
Q 2906 2381 2643 2742 
Q 2381 3103 1925 3103 
Q 1469 3103 1208 2742 
Q 947 2381 947 1747 
z
" id="DejaVuSans-64" transform="scale(0.015625)"/>
       <path d="M 3116 1747 
Q 3116 2381 2855 2742 
Q 2594 3103 2138 3103 
Q 1681 3103 1420 2742 
Q 1159 2381 1159 1747 
Q 1159 1113 1420 752 
Q 1681 391 2138 391 
Q 2594 391 2855 752 
Q 3116 1113 3116 1747 
z
M 1159 2969 
Q 1341 3281 1617 3432 
Q 1894 3584 2278 3584 
Q 2916 3584 3314 3078 
Q 3713 2572 3713 1747 
Q 3713 922 3314 415 
Q 2916 -91 2278 -91 
Q 1894 -91 1617 61 
Q 1341 213 1159 525 
L 1159 0 
L 581 0 
L 581 4863 
L 1159 4863 
L 1159 2969 
z
" id="DejaVuSans-62" transform="scale(0.015625)"/>
       <path d="M 2194 1759 
Q 1497 1759 1228 1600 
Q 959 1441 959 1056 
Q 959 750 1161 570 
Q 1363 391 1709 391 
Q 2188 391 2477 730 
Q 2766 1069 2766 1631 
L 2766 1759 
L 2194 1759 
z
M 3341 1997 
L 3341 0 
L 2766 0 
L 2766 531 
Q 2569 213 2275 61 
Q 1981 -91 1556 -91 
Q 1019 -91 701 211 
Q 384 513 384 1019 
Q 384 1609 779 1909 
Q 1175 2209 1959 2209 
L 2766 2209 
L 2766 2266 
Q 2766 2663 2505 2880 
Q 2244 3097 1772 3097 
Q 1472 3097 1187 3025 
Q 903 2953 641 2809 
L 641 3341 
Q 956 3463 1253 3523 
Q 1550 3584 1831 3584 
Q 2591 3584 2966 3190 
Q 3341 2797 3341 1997 
z
" id="DejaVuSans-61" transform="scale(0.015625)"/>
       <path d="M 3122 3366 
L 3122 2828 
Q 2878 2963 2633 3030 
Q 2388 3097 2138 3097 
Q 1578 3097 1268 2742 
Q 959 2388 959 1747 
Q 959 1106 1268 751 
Q 1578 397 2138 397 
Q 2388 397 2633 464 
Q 2878 531 3122 666 
L 3122 134 
Q 2881 22 2623 -34 
Q 2366 -91 2075 -91 
Q 1284 -91 818 406 
Q 353 903 353 1747 
Q 353 2603 823 3093 
Q 1294 3584 2113 3584 
Q 2378 3584 2631 3529 
Q 2884 3475 3122 3366 
z
" id="DejaVuSans-63" transform="scale(0.015625)"/>
       <path d="M 191 3500 
L 800 3500 
L 1894 563 
L 2988 3500 
L 3597 3500 
L 2284 0 
L 1503 0 
L 191 3500 
z
" id="DejaVuSans-76" transform="scale(0.015625)"/>
       <path d="M 2906 1791 
Q 2906 2416 2648 2759 
Q 2391 3103 1925 3103 
Q 1463 3103 1205 2759 
Q 947 2416 947 1791 
Q 947 1169 1205 825 
Q 1463 481 1925 481 
Q 2391 481 2648 825 
Q 2906 1169 2906 1791 
z
M 3481 434 
Q 3481 -459 3084 -895 
Q 2688 -1331 1869 -1331 
Q 1566 -1331 1297 -1286 
Q 1028 -1241 775 -1147 
L 775 -588 
Q 1028 -725 1275 -790 
Q 1522 -856 1778 -856 
Q 2344 -856 2625 -561 
Q 2906 -266 2906 331 
L 2906 616 
Q 2728 306 2450 153 
Q 2172 0 1784 0 
Q 1141 0 747 490 
Q 353 981 353 1791 
Q 353 2603 747 3093 
Q 1141 3584 1784 3584 
Q 2172 3584 2450 3431 
Q 2728 3278 2906 2969 
L 2906 3500 
L 3481 3500 
L 3481 434 
z
" id="DejaVuSans-67" transform="scale(0.015625)"/>
      </defs>
      <use xlink:href="#DejaVuSans-43"/>
      <use x="69.824219" xlink:href="#DejaVuSans-6f"/>
      <use x="131.005859" xlink:href="#DejaVuSans-64"/>
      <use x="194.482422" xlink:href="#DejaVuSans-65"/>
      <use x="256.005859" xlink:href="#DejaVuSans-20"/>
      <use x="287.792969" xlink:href="#DejaVuSans-62"/>
      <use x="351.269531" xlink:href="#DejaVuSans-72"/>
      <use x="392.382812" xlink:href="#DejaVuSans-61"/>
      <use x="453.662109" xlink:href="#DejaVuSans-6e"/>
      <use x="517.041016" xlink:href="#DejaVuSans-63"/>
      <use x="572.021484" xlink:href="#DejaVuSans-68"/>
      <use x="635.400391" xlink:href="#DejaVuSans-20"/>
      <use x="667.1875" xlink:href="#DejaVuSans-63"/>
      <use x="722.167969" xlink:href="#DejaVuSans-6f"/>
      <use x="783.349609" xlink:href="#DejaVuSans-76"/>
      <use x="842.529297" xlink:href="#DejaVuSans-65"/>
      <use x="904.052734" xlink:href="#DejaVuSans-72"/>
      <use x="945.166016" xlink:href="#DejaVuSans-61"/>
      <use x="1006.445312" xlink:href="#DejaVuSans-67"/>
      <use x="1069.921875" xlink:href="#DejaVuSans-65"/>
     </g>
    </g>
   </g>
   <g id="line2d_6">
    <path clip-path="url(#paf67d50ede)" d="M 85.79358 184.083351 
L 132.1728 136.658251 
L 178.552021 115.45848 
L 224.931242 99.110973 
L 271.310463 87.095844 
L 317.689683 78.026732 
L 364.068904 70.517277 
L 410.448125 63.527707 
L 456.827346 57.404612 
L 503.206567 51.743638 
L 549.585787 48.508795 
L 595.965008 45.447248 
L 642.344229 42.558996 
L 688.72345 39.439684 
L 735.10267 36.782492 
" style="fill:none;stroke:#c7c7c7;stroke-linecap:square;stroke-width:1.5;"/>
    <defs>
     <path d="M -3 -0 
L 3 3 
L 3 -3 
z
" id="m07b8fd94d0" style="stroke:#ffffff;stroke-linejoin:miter;stroke-width:0.75;"/>
    </defs>
    <g clip-path="url(#paf67d50ede)">
     <use style="fill:#c7c7c7;stroke:#ffffff;stroke-linejoin:miter;stroke-width:0.75;" x="85.79358" xlink:href="#m07b8fd94d0" y="184.083351"/>
     <use style="fill:#c7c7c7;stroke:#ffffff;stroke-linejoin:miter;stroke-width:0.75;" x="132.1728" xlink:href="#m07b8fd94d0" y="136.658251"/>
     <use style="fill:#c7c7c7;stroke:#ffffff;stroke-linejoin:miter;stroke-width:0.75;" x="178.552021" xlink:href="#m07b8fd94d0" y="115.45848"/>
     <use style="fill:#c7c7c7;stroke:#ffffff;stroke-linejoin:miter;stroke-width:0.75;" x="224.931242" xlink:href="#m07b8fd94d0" y="99.110973"/>
     <use style="fill:#c7c7c7;stroke:#ffffff;stroke-linejoin:miter;stroke-width:0.75;" x="271.310463" xlink:href="#m07b8fd94d0" y="87.095844"/>
     <use style="fill:#c7c7c7;stroke:#ffffff;stroke-linejoin:miter;stroke-width:0.75;" x="317.689683" xlink:href="#m07b8fd94d0" y="78.026732"/>
     <use style="fill:#c7c7c7;stroke:#ffffff;stroke-linejoin:miter;stroke-width:0.75;" x="364.068904" xlink:href="#m07b8fd94d0" y="70.517277"/>
     <use style="fill:#c7c7c7;stroke:#ffffff;stroke-linejoin:miter;stroke-width:0.75;" x="410.448125" xlink:href="#m07b8fd94d0" y="63.527707"/>
     <use style="fill:#c7c7c7;stroke:#ffffff;stroke-linejoin:miter;stroke-width:0.75;" x="456.827346" xlink:href="#m07b8fd94d0" y="57.404612"/>
     <use style="fill:#c7c7c7;stroke:#ffffff;stroke-linejoin:miter;stroke-width:0.75;" x="503.206567" xlink:href="#m07b8fd94d0" y="51.743638"/>
     <use style="fill:#c7c7c7;stroke:#ffffff;stroke-linejoin:miter;stroke-width:0.75;" x="549.585787" xlink:href="#m07b8fd94d0" y="48.508795"/>
     <use style="fill:#c7c7c7;stroke:#ffffff;stroke-linejoin:miter;stroke-width:0.75;" x="595.965008" xlink:href="#m07b8fd94d0" y="45.447248"/>
     <use style="fill:#c7c7c7;stroke:#ffffff;stroke-linejoin:miter;stroke-width:0.75;" x="642.344229" xlink:href="#m07b8fd94d0" y="42.558996"/>
     <use style="fill:#c7c7c7;stroke:#ffffff;stroke-linejoin:miter;stroke-width:0.75;" x="688.72345" xlink:href="#m07b8fd94d0" y="39.439684"/>
     <use style="fill:#c7c7c7;stroke:#ffffff;stroke-linejoin:miter;stroke-width:0.75;" x="735.10267" xlink:href="#m07b8fd94d0" y="36.782492"/>
    </g>
   </g>
   <g id="line2d_7">
    <path clip-path="url(#paf67d50ede)" d="M 85.79358 184.256646 
L 132.1728 135.38742 
L 178.552021 111.183867 
L 224.931242 98.706618 
L 271.310463 90.561747 
L 317.689683 83.745472 
L 364.068904 77.911202 
L 410.448125 71.268222 
L 456.827346 66.184899 
L 503.206567 60.69722 
L 549.585787 57.231317 
L 595.965008 53.187764 
L 642.344229 51.512578 
L 688.72345 48.10444 
L 735.10267 45.158423 
" style="fill:none;stroke:#ff9896;stroke-linecap:square;stroke-width:1.5;"/>
    <defs>
     <path d="M -1.14805 -2.771639 
L -2.771639 -1.14805 
L -2.771639 1.14805 
L -1.14805 2.771639 
L 1.14805 2.771639 
L 2.771639 1.14805 
L 2.771639 -1.14805 
L 1.14805 -2.771639 
z
" id="md8549ecd21" style="stroke:#ffffff;stroke-linejoin:miter;stroke-width:0.75;"/>
    </defs>
    <g clip-path="url(#paf67d50ede)">
     <use style="fill:#ff9896;stroke:#ffffff;stroke-linejoin:miter;stroke-width:0.75;" x="85.79358" xlink:href="#md8549ecd21" y="184.256646"/>
     <use style="fill:#ff9896;stroke:#ffffff;stroke-linejoin:miter;stroke-width:0.75;" x="132.1728" xlink:href="#md8549ecd21" y="135.38742"/>
     <use style="fill:#ff9896;stroke:#ffffff;stroke-linejoin:miter;stroke-width:0.75;" x="178.552021" xlink:href="#md8549ecd21" y="111.183867"/>
     <use style="fill:#ff9896;stroke:#ffffff;stroke-linejoin:miter;stroke-width:0.75;" x="224.931242" xlink:href="#md8549ecd21" y="98.706618"/>
     <use style="fill:#ff9896;stroke:#ffffff;stroke-linejoin:miter;stroke-width:0.75;" x="271.310463" xlink:href="#md8549ecd21" y="90.561747"/>
     <use style="fill:#ff9896;stroke:#ffffff;stroke-linejoin:miter;stroke-width:0.75;" x="317.689683" xlink:href="#md8549ecd21" y="83.745472"/>
     <use style="fill:#ff9896;stroke:#ffffff;stroke-linejoin:miter;stroke-width:0.75;" x="364.068904" xlink:href="#md8549ecd21" y="77.911202"/>
     <use style="fill:#ff9896;stroke:#ffffff;stroke-linejoin:miter;stroke-width:0.75;" x="410.448125" xlink:href="#md8549ecd21" y="71.268222"/>
     <use style="fill:#ff9896;stroke:#ffffff;stroke-linejoin:miter;stroke-width:0.75;" x="456.827346" xlink:href="#md8549ecd21" y="66.184899"/>
     <use style="fill:#ff9896;stroke:#ffffff;stroke-linejoin:miter;stroke-width:0.75;" x="503.206567" xlink:href="#md8549ecd21" y="60.69722"/>
     <use style="fill:#ff9896;stroke:#ffffff;stroke-linejoin:miter;stroke-width:0.75;" x="549.585787" xlink:href="#md8549ecd21" y="57.231317"/>
     <use style="fill:#ff9896;stroke:#ffffff;stroke-linejoin:miter;stroke-width:0.75;" x="595.965008" xlink:href="#md8549ecd21" y="53.187764"/>
     <use style="fill:#ff9896;stroke:#ffffff;stroke-linejoin:miter;stroke-width:0.75;" x="642.344229" xlink:href="#md8549ecd21" y="51.512578"/>
     <use style="fill:#ff9896;stroke:#ffffff;stroke-linejoin:miter;stroke-width:0.75;" x="688.72345" xlink:href="#md8549ecd21" y="48.10444"/>
     <use style="fill:#ff9896;stroke:#ffffff;stroke-linejoin:miter;stroke-width:0.75;" x="735.10267" xlink:href="#md8549ecd21" y="45.158423"/>
    </g>
   </g>
   <g id="line2d_8">
    <path clip-path="url(#paf67d50ede)" d="M 85.79358 238.613552 
L 132.1728 192.459283 
L 178.552021 159.590973 
L 224.931242 134.232119 
L 271.310463 119.270973 
L 317.689683 106.735959 
L 364.068904 97.089197 
L 410.448125 89.233151 
L 456.827346 82.994526 
L 503.206567 76.351546 
L 549.585787 70.459512 
L 595.965008 64.971833 
L 642.344229 59.715214 
L 688.72345 55.960486 
L 735.10267 53.534354 
" style="fill:none;stroke:#ff7f0e;stroke-linecap:square;stroke-width:1.5;"/>
    <defs>
     <path d="M 3 0 
L -3 -3 
L -3 3 
z
" id="m305e383d72" style="stroke:#ffffff;stroke-linejoin:miter;stroke-width:0.75;"/>
    </defs>
    <g clip-path="url(#paf67d50ede)">
     <use style="fill:#ff7f0e;stroke:#ffffff;stroke-linejoin:miter;stroke-width:0.75;" x="85.79358" xlink:href="#m305e383d72" y="238.613552"/>
     <use style="fill:#ff7f0e;stroke:#ffffff;stroke-linejoin:miter;stroke-width:0.75;" x="132.1728" xlink:href="#m305e383d72" y="192.459283"/>
     <use style="fill:#ff7f0e;stroke:#ffffff;stroke-linejoin:miter;stroke-width:0.75;" x="178.552021" xlink:href="#m305e383d72" y="159.590973"/>
     <use style="fill:#ff7f0e;stroke:#ffffff;stroke-linejoin:miter;stroke-width:0.75;" x="224.931242" xlink:href="#m305e383d72" y="134.232119"/>
     <use style="fill:#ff7f0e;stroke:#ffffff;stroke-linejoin:miter;stroke-width:0.75;" x="271.310463" xlink:href="#m305e383d72" y="119.270973"/>
     <use style="fill:#ff7f0e;stroke:#ffffff;stroke-linejoin:miter;stroke-width:0.75;" x="317.689683" xlink:href="#m305e383d72" y="106.735959"/>
     <use style="fill:#ff7f0e;stroke:#ffffff;stroke-linejoin:miter;stroke-width:0.75;" x="364.068904" xlink:href="#m305e383d72" y="97.089197"/>
     <use style="fill:#ff7f0e;stroke:#ffffff;stroke-linejoin:miter;stroke-width:0.75;" x="410.448125" xlink:href="#m305e383d72" y="89.233151"/>
     <use style="fill:#ff7f0e;stroke:#ffffff;stroke-linejoin:miter;stroke-width:0.75;" x="456.827346" xlink:href="#m305e383d72" y="82.994526"/>
     <use style="fill:#ff7f0e;stroke:#ffffff;stroke-linejoin:miter;stroke-width:0.75;" x="503.206567" xlink:href="#m305e383d72" y="76.351546"/>
     <use style="fill:#ff7f0e;stroke:#ffffff;stroke-linejoin:miter;stroke-width:0.75;" x="549.585787" xlink:href="#m305e383d72" y="70.459512"/>
     <use style="fill:#ff7f0e;stroke:#ffffff;stroke-linejoin:miter;stroke-width:0.75;" x="595.965008" xlink:href="#m305e383d72" y="64.971833"/>
     <use style="fill:#ff7f0e;stroke:#ffffff;stroke-linejoin:miter;stroke-width:0.75;" x="642.344229" xlink:href="#m305e383d72" y="59.715214"/>
     <use style="fill:#ff7f0e;stroke:#ffffff;stroke-linejoin:miter;stroke-width:0.75;" x="688.72345" xlink:href="#m305e383d72" y="55.960486"/>
     <use style="fill:#ff7f0e;stroke:#ffffff;stroke-linejoin:miter;stroke-width:0.75;" x="735.10267" xlink:href="#m305e383d72" y="53.534354"/>
    </g>
   </g>
   <g id="line2d_9">
    <path clip-path="url(#paf67d50ede)" d="M 85.79358 248.664669 
L 132.1728 202.452635 
L 178.552021 191.881632 
L 224.931242 179.866503 
L 271.310463 168.024669 
L 317.689683 159.764268 
L 364.068904 152.832463 
L 410.448125 146.882664 
L 456.827346 142.37699 
L 503.206567 137.466962 
L 549.585787 135.27189 
L 595.965008 130.477391 
L 642.344229 126.260543 
L 688.72345 121.75487 
L 735.10267 118.231202 
" style="fill:none;stroke:#98df8a;stroke-linecap:square;stroke-width:1.5;"/>
    <defs>
     <path d="M -0 3 
L 3 -3 
L -3 -3 
z
" id="mafa7608095" style="stroke:#ffffff;stroke-linejoin:miter;stroke-width:0.75;"/>
    </defs>
    <g clip-path="url(#paf67d50ede)">
     <use style="fill:#98df8a;stroke:#ffffff;stroke-linejoin:miter;stroke-width:0.75;" x="85.79358" xlink:href="#mafa7608095" y="248.664669"/>
     <use style="fill:#98df8a;stroke:#ffffff;stroke-linejoin:miter;stroke-width:0.75;" x="132.1728" xlink:href="#mafa7608095" y="202.452635"/>
     <use style="fill:#98df8a;stroke:#ffffff;stroke-linejoin:miter;stroke-width:0.75;" x="178.552021" xlink:href="#mafa7608095" y="191.881632"/>
     <use style="fill:#98df8a;stroke:#ffffff;stroke-linejoin:miter;stroke-width:0.75;" x="224.931242" xlink:href="#mafa7608095" y="179.866503"/>
     <use style="fill:#98df8a;stroke:#ffffff;stroke-linejoin:miter;stroke-width:0.75;" x="271.310463" xlink:href="#mafa7608095" y="168.024669"/>
     <use style="fill:#98df8a;stroke:#ffffff;stroke-linejoin:miter;stroke-width:0.75;" x="317.689683" xlink:href="#mafa7608095" y="159.764268"/>
     <use style="fill:#98df8a;stroke:#ffffff;stroke-linejoin:miter;stroke-width:0.75;" x="364.068904" xlink:href="#mafa7608095" y="152.832463"/>
     <use style="fill:#98df8a;stroke:#ffffff;stroke-linejoin:miter;stroke-width:0.75;" x="410.448125" xlink:href="#mafa7608095" y="146.882664"/>
     <use style="fill:#98df8a;stroke:#ffffff;stroke-linejoin:miter;stroke-width:0.75;" x="456.827346" xlink:href="#mafa7608095" y="142.37699"/>
     <use style="fill:#98df8a;stroke:#ffffff;stroke-linejoin:miter;stroke-width:0.75;" x="503.206567" xlink:href="#mafa7608095" y="137.466962"/>
     <use style="fill:#98df8a;stroke:#ffffff;stroke-linejoin:miter;stroke-width:0.75;" x="549.585787" xlink:href="#mafa7608095" y="135.27189"/>
     <use style="fill:#98df8a;stroke:#ffffff;stroke-linejoin:miter;stroke-width:0.75;" x="595.965008" xlink:href="#mafa7608095" y="130.477391"/>
     <use style="fill:#98df8a;stroke:#ffffff;stroke-linejoin:miter;stroke-width:0.75;" x="642.344229" xlink:href="#mafa7608095" y="126.260543"/>
     <use style="fill:#98df8a;stroke:#ffffff;stroke-linejoin:miter;stroke-width:0.75;" x="688.72345" xlink:href="#mafa7608095" y="121.75487"/>
     <use style="fill:#98df8a;stroke:#ffffff;stroke-linejoin:miter;stroke-width:0.75;" x="735.10267" xlink:href="#mafa7608095" y="118.231202"/>
    </g>
   </g>
   <g id="line2d_10">
    <path clip-path="url(#paf67d50ede)" d="M 85.79358 266.571833 
L 132.1728 228.562434 
L 178.552021 211.059626 
L 224.931242 199.391088 
L 271.310463 191.650572 
L 317.689683 185.354182 
L 364.068904 181.65722 
L 410.448125 178.306847 
L 456.827346 175.2453 
L 503.206567 173.107993 
L 549.585787 171.201747 
L 595.965008 169.006675 
L 642.344229 167.100429 
L 688.72345 165.829598 
L 735.10267 164.096646 
" style="fill:none;stroke:#d62728;stroke-linecap:square;stroke-width:1.5;"/>
    <defs>
     <path d="M 0 -3 
L -3 3 
L 3 3 
z
" id="m3725d6d7e5" style="stroke:#ffffff;stroke-linejoin:miter;stroke-width:0.75;"/>
    </defs>
    <g clip-path="url(#paf67d50ede)">
     <use style="fill:#d62728;stroke:#ffffff;stroke-linejoin:miter;stroke-width:0.75;" x="85.79358" xlink:href="#m3725d6d7e5" y="266.571833"/>
     <use style="fill:#d62728;stroke:#ffffff;stroke-linejoin:miter;stroke-width:0.75;" x="132.1728" xlink:href="#m3725d6d7e5" y="228.562434"/>
     <use style="fill:#d62728;stroke:#ffffff;stroke-linejoin:miter;stroke-width:0.75;" x="178.552021" xlink:href="#m3725d6d7e5" y="211.059626"/>
     <use style="fill:#d62728;stroke:#ffffff;stroke-linejoin:miter;stroke-width:0.75;" x="224.931242" xlink:href="#m3725d6d7e5" y="199.391088"/>
     <use style="fill:#d62728;stroke:#ffffff;stroke-linejoin:miter;stroke-width:0.75;" x="271.310463" xlink:href="#m3725d6d7e5" y="191.650572"/>
     <use style="fill:#d62728;stroke:#ffffff;stroke-linejoin:miter;stroke-width:0.75;" x="317.689683" xlink:href="#m3725d6d7e5" y="185.354182"/>
     <use style="fill:#d62728;stroke:#ffffff;stroke-linejoin:miter;stroke-width:0.75;" x="364.068904" xlink:href="#m3725d6d7e5" y="181.65722"/>
     <use style="fill:#d62728;stroke:#ffffff;stroke-linejoin:miter;stroke-width:0.75;" x="410.448125" xlink:href="#m3725d6d7e5" y="178.306847"/>
     <use style="fill:#d62728;stroke:#ffffff;stroke-linejoin:miter;stroke-width:0.75;" x="456.827346" xlink:href="#m3725d6d7e5" y="175.2453"/>
     <use style="fill:#d62728;stroke:#ffffff;stroke-linejoin:miter;stroke-width:0.75;" x="503.206567" xlink:href="#m3725d6d7e5" y="173.107993"/>
     <use style="fill:#d62728;stroke:#ffffff;stroke-linejoin:miter;stroke-width:0.75;" x="549.585787" xlink:href="#m3725d6d7e5" y="171.201747"/>
     <use style="fill:#d62728;stroke:#ffffff;stroke-linejoin:miter;stroke-width:0.75;" x="595.965008" xlink:href="#m3725d6d7e5" y="169.006675"/>
     <use style="fill:#d62728;stroke:#ffffff;stroke-linejoin:miter;stroke-width:0.75;" x="642.344229" xlink:href="#m3725d6d7e5" y="167.100429"/>
     <use style="fill:#d62728;stroke:#ffffff;stroke-linejoin:miter;stroke-width:0.75;" x="688.72345" xlink:href="#m3725d6d7e5" y="165.829598"/>
     <use style="fill:#d62728;stroke:#ffffff;stroke-linejoin:miter;stroke-width:0.75;" x="735.10267" xlink:href="#m3725d6d7e5" y="164.096646"/>
    </g>
   </g>
   <g id="line2d_11">
    <path clip-path="url(#paf67d50ede)" d="M 85.79358 260.217678 
L 132.1728 220.533093 
L 178.552021 204.127821 
L 224.931242 196.09848 
L 271.310463 189.397735 
L 317.689683 185.469712 
L 364.068904 182.00381 
L 410.448125 179.057793 
L 456.827346 174.609884 
L 503.206567 171.490572 
L 549.585787 169.930916 
L 595.965008 166.638308 
L 642.344229 164.212177 
L 688.72345 162.999111 
L 735.10267 160.977334 
" style="fill:none;stroke:#1f77b4;stroke-linecap:square;stroke-width:1.5;"/>
    <defs>
     <path d="M 0 3 
C 0.795609 3 1.55874 2.683901 2.12132 2.12132 
C 2.683901 1.55874 3 0.795609 3 0 
C 3 -0.795609 2.683901 -1.55874 2.12132 -2.12132 
C 1.55874 -2.683901 0.795609 -3 0 -3 
C -0.795609 -3 -1.55874 -2.683901 -2.12132 -2.12132 
C -2.683901 -1.55874 -3 -0.795609 -3 0 
C -3 0.795609 -2.683901 1.55874 -2.12132 2.12132 
C -1.55874 2.683901 -0.795609 3 0 3 
z
" id="ma83fb90bd2" style="stroke:#ffffff;stroke-width:0.75;"/>
    </defs>
    <g clip-path="url(#paf67d50ede)">
     <use style="fill:#1f77b4;stroke:#ffffff;stroke-width:0.75;" x="85.79358" xlink:href="#ma83fb90bd2" y="260.217678"/>
     <use style="fill:#1f77b4;stroke:#ffffff;stroke-width:0.75;" x="132.1728" xlink:href="#ma83fb90bd2" y="220.533093"/>
     <use style="fill:#1f77b4;stroke:#ffffff;stroke-width:0.75;" x="178.552021" xlink:href="#ma83fb90bd2" y="204.127821"/>
     <use style="fill:#1f77b4;stroke:#ffffff;stroke-width:0.75;" x="224.931242" xlink:href="#ma83fb90bd2" y="196.09848"/>
     <use style="fill:#1f77b4;stroke:#ffffff;stroke-width:0.75;" x="271.310463" xlink:href="#ma83fb90bd2" y="189.397735"/>
     <use style="fill:#1f77b4;stroke:#ffffff;stroke-width:0.75;" x="317.689683" xlink:href="#ma83fb90bd2" y="185.469712"/>
     <use style="fill:#1f77b4;stroke:#ffffff;stroke-width:0.75;" x="364.068904" xlink:href="#ma83fb90bd2" y="182.00381"/>
     <use style="fill:#1f77b4;stroke:#ffffff;stroke-width:0.75;" x="410.448125" xlink:href="#ma83fb90bd2" y="179.057793"/>
     <use style="fill:#1f77b4;stroke:#ffffff;stroke-width:0.75;" x="456.827346" xlink:href="#ma83fb90bd2" y="174.609884"/>
     <use style="fill:#1f77b4;stroke:#ffffff;stroke-width:0.75;" x="503.206567" xlink:href="#ma83fb90bd2" y="171.490572"/>
     <use style="fill:#1f77b4;stroke:#ffffff;stroke-width:0.75;" x="549.585787" xlink:href="#ma83fb90bd2" y="169.930916"/>
     <use style="fill:#1f77b4;stroke:#ffffff;stroke-width:0.75;" x="595.965008" xlink:href="#ma83fb90bd2" y="166.638308"/>
     <use style="fill:#1f77b4;stroke:#ffffff;stroke-width:0.75;" x="642.344229" xlink:href="#ma83fb90bd2" y="164.212177"/>
     <use style="fill:#1f77b4;stroke:#ffffff;stroke-width:0.75;" x="688.72345" xlink:href="#ma83fb90bd2" y="162.999111"/>
     <use style="fill:#1f77b4;stroke:#ffffff;stroke-width:0.75;" x="735.10267" xlink:href="#ma83fb90bd2" y="160.977334"/>
    </g>
   </g>
   <g id="line2d_12"/>
   <g id="line2d_13"/>
   <g id="line2d_14"/>
   <g id="line2d_15"/>
   <g id="line2d_16"/>
   <g id="line2d_17"/>
   <g id="line2d_18">
    <path clip-path="url(#paf67d50ede)" d="M 735.10267 288.430125 
L 735.10267 22.318125 
" style="fill:none;stroke:#ff0000;stroke-linecap:square;stroke-width:1.5;"/>
   </g>
   <g id="patch_3">
    <path d="M 53.328125 240.750859 
L 53.328125 67.45573 
" style="fill:none;stroke:#000000;stroke-linecap:square;stroke-linejoin:miter;stroke-width:0.8;"/>
   </g>
   <g id="patch_4">
    <path d="M 735.10267 288.430125 
L 735.10267 288.430125 
" style="fill:none;stroke:#000000;stroke-linecap:square;stroke-linejoin:miter;stroke-width:0.8;"/>
   </g>
   <g id="text_8">
    <!-- proj4-2017-08-14 (15m, 100 trials/fuzzer) -->
    <g transform="translate(285.529063 16.318125)scale(0.12 -0.12)">
     <defs>
      <path d="M 1159 525 
L 1159 -1331 
L 581 -1331 
L 581 3500 
L 1159 3500 
L 1159 2969 
Q 1341 3281 1617 3432 
Q 1894 3584 2278 3584 
Q 2916 3584 3314 3078 
Q 3713 2572 3713 1747 
Q 3713 922 3314 415 
Q 2916 -91 2278 -91 
Q 1894 -91 1617 61 
Q 1341 213 1159 525 
z
M 3116 1747 
Q 3116 2381 2855 2742 
Q 2594 3103 2138 3103 
Q 1681 3103 1420 2742 
Q 1159 2381 1159 1747 
Q 1159 1113 1420 752 
Q 1681 391 2138 391 
Q 2594 391 2855 752 
Q 3116 1113 3116 1747 
z
" id="DejaVuSans-70" transform="scale(0.015625)"/>
      <path d="M 603 3500 
L 1178 3500 
L 1178 -63 
Q 1178 -731 923 -1031 
Q 669 -1331 103 -1331 
L -116 -1331 
L -116 -844 
L 38 -844 
Q 366 -844 484 -692 
Q 603 -541 603 -63 
L 603 3500 
z
M 603 4863 
L 1178 4863 
L 1178 4134 
L 603 4134 
L 603 4863 
z
" id="DejaVuSans-6a" transform="scale(0.015625)"/>
      <path d="M 2419 4116 
L 825 1625 
L 2419 1625 
L 2419 4116 
z
M 2253 4666 
L 3047 4666 
L 3047 1625 
L 3713 1625 
L 3713 1100 
L 3047 1100 
L 3047 0 
L 2419 0 
L 2419 1100 
L 313 1100 
L 313 1709 
L 2253 4666 
z
" id="DejaVuSans-34" transform="scale(0.015625)"/>
      <path d="M 313 2009 
L 1997 2009 
L 1997 1497 
L 313 1497 
L 313 2009 
z
" id="DejaVuSans-2d" transform="scale(0.015625)"/>
      <path d="M 525 4666 
L 3525 4666 
L 3525 4397 
L 1831 0 
L 1172 0 
L 2766 4134 
L 525 4134 
L 525 4666 
z
" id="DejaVuSans-37" transform="scale(0.015625)"/>
      <path d="M 2034 2216 
Q 1584 2216 1326 1975 
Q 1069 1734 1069 1313 
Q 1069 891 1326 650 
Q 1584 409 2034 409 
Q 2484 409 2743 651 
Q 3003 894 3003 1313 
Q 3003 1734 2745 1975 
Q 2488 2216 2034 2216 
z
M 1403 2484 
Q 997 2584 770 2862 
Q 544 3141 544 3541 
Q 544 4100 942 4425 
Q 1341 4750 2034 4750 
Q 2731 4750 3128 4425 
Q 3525 4100 3525 3541 
Q 3525 3141 3298 2862 
Q 3072 2584 2669 2484 
Q 3125 2378 3379 2068 
Q 3634 1759 3634 1313 
Q 3634 634 3220 271 
Q 2806 -91 2034 -91 
Q 1263 -91 848 271 
Q 434 634 434 1313 
Q 434 1759 690 2068 
Q 947 2378 1403 2484 
z
M 1172 3481 
Q 1172 3119 1398 2916 
Q 1625 2713 2034 2713 
Q 2441 2713 2670 2916 
Q 2900 3119 2900 3481 
Q 2900 3844 2670 4047 
Q 2441 4250 2034 4250 
Q 1625 4250 1398 4047 
Q 1172 3844 1172 3481 
z
" id="DejaVuSans-38" transform="scale(0.015625)"/>
      <path d="M 750 794 
L 1409 794 
L 1409 256 
L 897 -744 
L 494 -744 
L 750 256 
L 750 794 
z
" id="DejaVuSans-2c" transform="scale(0.015625)"/>
      <path d="M 603 4863 
L 1178 4863 
L 1178 0 
L 603 0 
L 603 4863 
z
" id="DejaVuSans-6c" transform="scale(0.015625)"/>
      <path d="M 2834 3397 
L 2834 2853 
Q 2591 2978 2328 3040 
Q 2066 3103 1784 3103 
Q 1356 3103 1142 2972 
Q 928 2841 928 2578 
Q 928 2378 1081 2264 
Q 1234 2150 1697 2047 
L 1894 2003 
Q 2506 1872 2764 1633 
Q 3022 1394 3022 966 
Q 3022 478 2636 193 
Q 2250 -91 1575 -91 
Q 1294 -91 989 -36 
Q 684 19 347 128 
L 347 722 
Q 666 556 975 473 
Q 1284 391 1588 391 
Q 1994 391 2212 530 
Q 2431 669 2431 922 
Q 2431 1156 2273 1281 
Q 2116 1406 1581 1522 
L 1381 1569 
Q 847 1681 609 1914 
Q 372 2147 372 2553 
Q 372 3047 722 3315 
Q 1072 3584 1716 3584 
Q 2034 3584 2315 3537 
Q 2597 3491 2834 3397 
z
" id="DejaVuSans-73" transform="scale(0.015625)"/>
      <path d="M 1625 4666 
L 2156 4666 
L 531 -594 
L 0 -594 
L 1625 4666 
z
" id="DejaVuSans-2f" transform="scale(0.015625)"/>
      <path d="M 2375 4863 
L 2375 4384 
L 1825 4384 
Q 1516 4384 1395 4259 
Q 1275 4134 1275 3809 
L 1275 3500 
L 2222 3500 
L 2222 3053 
L 1275 3053 
L 1275 0 
L 697 0 
L 697 3053 
L 147 3053 
L 147 3500 
L 697 3500 
L 697 3744 
Q 697 4328 969 4595 
Q 1241 4863 1831 4863 
L 2375 4863 
z
" id="DejaVuSans-66" transform="scale(0.015625)"/>
      <path d="M 353 3500 
L 3084 3500 
L 3084 2975 
L 922 459 
L 3084 459 
L 3084 0 
L 275 0 
L 275 525 
L 2438 3041 
L 353 3041 
L 353 3500 
z
" id="DejaVuSans-7a" transform="scale(0.015625)"/>
     </defs>
     <use xlink:href="#DejaVuSans-70"/>
     <use x="63.476562" xlink:href="#DejaVuSans-72"/>
     <use x="102.339844" xlink:href="#DejaVuSans-6f"/>
     <use x="163.521484" xlink:href="#DejaVuSans-6a"/>
     <use x="191.304688" xlink:href="#DejaVuSans-34"/>
     <use x="254.927734" xlink:href="#DejaVuSans-2d"/>
     <use x="291.011719" xlink:href="#DejaVuSans-32"/>
     <use x="354.634766" xlink:href="#DejaVuSans-30"/>
     <use x="418.257812" xlink:href="#DejaVuSans-31"/>
     <use x="481.880859" xlink:href="#DejaVuSans-37"/>
     <use x="545.503906" xlink:href="#DejaVuSans-2d"/>
     <use x="581.587891" xlink:href="#DejaVuSans-30"/>
     <use x="645.210938" xlink:href="#DejaVuSans-38"/>
     <use x="708.833984" xlink:href="#DejaVuSans-2d"/>
     <use x="744.917969" xlink:href="#DejaVuSans-31"/>
     <use x="808.541016" xlink:href="#DejaVuSans-34"/>
     <use x="872.164062" xlink:href="#DejaVuSans-20"/>
     <use x="903.951172" xlink:href="#DejaVuSans-28"/>
     <use x="942.964844" xlink:href="#DejaVuSans-31"/>
     <use x="1006.587891" xlink:href="#DejaVuSans-35"/>
     <use x="1070.210938" xlink:href="#DejaVuSans-6d"/>
     <use x="1167.623047" xlink:href="#DejaVuSans-2c"/>
     <use x="1199.410156" xlink:href="#DejaVuSans-20"/>
     <use x="1231.197266" xlink:href="#DejaVuSans-31"/>
     <use x="1294.820312" xlink:href="#DejaVuSans-30"/>
     <use x="1358.443359" xlink:href="#DejaVuSans-30"/>
     <use x="1422.066406" xlink:href="#DejaVuSans-20"/>
     <use x="1453.853516" xlink:href="#DejaVuSans-74"/>
     <use x="1493.0625" xlink:href="#DejaVuSans-72"/>
     <use x="1534.175781" xlink:href="#DejaVuSans-69"/>
     <use x="1561.958984" xlink:href="#DejaVuSans-61"/>
     <use x="1623.238281" xlink:href="#DejaVuSans-6c"/>
     <use x="1651.021484" xlink:href="#DejaVuSans-73"/>
     <use x="1703.121094" xlink:href="#DejaVuSans-2f"/>
     <use x="1736.8125" xlink:href="#DejaVuSans-66"/>
     <use x="1772.017578" xlink:href="#DejaVuSans-75"/>
     <use x="1835.396484" xlink:href="#DejaVuSans-7a"/>
     <use x="1887.886719" xlink:href="#DejaVuSans-7a"/>
     <use x="1940.376953" xlink:href="#DejaVuSans-65"/>
     <use x="2001.900391" xlink:href="#DejaVuSans-72"/>
     <use x="2043.013672" xlink:href="#DejaVuSans-29"/>
    </g>
   </g>
   <g id="legend_1">
    <g id="line2d_19">
     <path d="M 771.568125 30.416562 
L 791.568125 30.416562 
" style="fill:none;stroke:#c7c7c7;stroke-linecap:square;stroke-width:1.5;"/>
    </g>
    <g id="line2d_20">
     <defs>
      <path d="M -3 -0 
L 3 3 
L 3 -3 
z
" id="me3a3deda30" style="stroke:#c7c7c7;stroke-linejoin:miter;"/>
     </defs>
     <g>
      <use style="fill:#c7c7c7;stroke:#c7c7c7;stroke-linejoin:miter;" x="781.568125" xlink:href="#me3a3deda30" y="30.416562"/>
     </g>
    </g>
    <g id="text_9">
     <!-- entropic -->
     <g transform="translate(799.568125 33.916562)scale(0.1 -0.1)">
      <use xlink:href="#DejaVuSans-65"/>
      <use x="61.523438" xlink:href="#DejaVuSans-6e"/>
      <use x="124.902344" xlink:href="#DejaVuSans-74"/>
      <use x="164.111328" xlink:href="#DejaVuSans-72"/>
      <use x="202.974609" xlink:href="#DejaVuSans-6f"/>
      <use x="264.15625" xlink:href="#DejaVuSans-70"/>
      <use x="327.632812" xlink:href="#DejaVuSans-69"/>
      <use x="355.416016" xlink:href="#DejaVuSans-63"/>
     </g>
    </g>
    <g id="line2d_21">
     <path d="M 771.568125 45.094688 
L 791.568125 45.094688 
" style="fill:none;stroke:#ff9896;stroke-linecap:square;stroke-width:1.5;"/>
    </g>
    <g id="line2d_22">
     <defs>
      <path d="M -1.14805 -2.771639 
L -2.771639 -1.14805 
L -2.771639 1.14805 
L -1.14805 2.771639 
L 1.14805 2.771639 
L 2.771639 1.14805 
L 2.771639 -1.14805 
L 1.14805 -2.771639 
z
" id="mb19152d4f9" style="stroke:#ff9896;stroke-linejoin:miter;"/>
     </defs>
     <g>
      <use style="fill:#ff9896;stroke:#ff9896;stroke-linejoin:miter;" x="781.568125" xlink:href="#mb19152d4f9" y="45.094688"/>
     </g>
    </g>
    <g id="text_10">
     <!-- libfuzzer -->
     <g transform="translate(799.568125 48.594688)scale(0.1 -0.1)">
      <use xlink:href="#DejaVuSans-6c"/>
      <use x="27.783203" xlink:href="#DejaVuSans-69"/>
      <use x="55.566406" xlink:href="#DejaVuSans-62"/>
      <use x="119.042969" xlink:href="#DejaVuSans-66"/>
      <use x="154.248047" xlink:href="#DejaVuSans-75"/>
      <use x="217.626953" xlink:href="#DejaVuSans-7a"/>
      <use x="270.117188" xlink:href="#DejaVuSans-7a"/>
      <use x="322.607422" xlink:href="#DejaVuSans-65"/>
      <use x="384.130859" xlink:href="#DejaVuSans-72"/>
     </g>
    </g>
    <g id="line2d_23">
     <path d="M 771.568125 59.772812 
L 791.568125 59.772812 
" style="fill:none;stroke:#ff7f0e;stroke-linecap:square;stroke-width:1.5;"/>
    </g>
    <g id="line2d_24">
     <defs>
      <path d="M 3 0 
L -3 -3 
L -3 3 
z
" id="m3d87275cd9" style="stroke:#ff7f0e;stroke-linejoin:miter;"/>
     </defs>
     <g>
      <use style="fill:#ff7f0e;stroke:#ff7f0e;stroke-linejoin:miter;" x="781.568125" xlink:href="#m3d87275cd9" y="59.772812"/>
     </g>
    </g>
    <g id="text_11">
     <!-- honggfuzz -->
     <g transform="translate(799.568125 63.272812)scale(0.1 -0.1)">
      <use xlink:href="#DejaVuSans-68"/>
      <use x="63.378906" xlink:href="#DejaVuSans-6f"/>
      <use x="124.560547" xlink:href="#DejaVuSans-6e"/>
      <use x="187.939453" xlink:href="#DejaVuSans-67"/>
      <use x="251.416016" xlink:href="#DejaVuSans-67"/>
      <use x="314.892578" xlink:href="#DejaVuSans-66"/>
      <use x="350.097656" xlink:href="#DejaVuSans-75"/>
      <use x="413.476562" xlink:href="#DejaVuSans-7a"/>
      <use x="465.966797" xlink:href="#DejaVuSans-7a"/>
     </g>
    </g>
    <g id="line2d_25">
     <path d="M 771.568125 74.450938 
L 791.568125 74.450938 
" style="fill:none;stroke:#98df8a;stroke-linecap:square;stroke-width:1.5;"/>
    </g>
    <g id="line2d_26">
     <defs>
      <path d="M -0 3 
L 3 -3 
L -3 -3 
z
" id="md44ed61849" style="stroke:#98df8a;stroke-linejoin:miter;"/>
     </defs>
     <g>
      <use style="fill:#98df8a;stroke:#98df8a;stroke-linejoin:miter;" x="781.568125" xlink:href="#md44ed61849" y="74.450938"/>
     </g>
    </g>
    <g id="text_12">
     <!-- aflplusplus -->
     <g transform="translate(799.568125 77.950938)scale(0.1 -0.1)">
      <use xlink:href="#DejaVuSans-61"/>
      <use x="61.279297" xlink:href="#DejaVuSans-66"/>
      <use x="96.484375" xlink:href="#DejaVuSans-6c"/>
      <use x="124.267578" xlink:href="#DejaVuSans-70"/>
      <use x="187.744141" xlink:href="#DejaVuSans-6c"/>
      <use x="215.527344" xlink:href="#DejaVuSans-75"/>
      <use x="278.90625" xlink:href="#DejaVuSans-73"/>
      <use x="331.005859" xlink:href="#DejaVuSans-70"/>
      <use x="394.482422" xlink:href="#DejaVuSans-6c"/>
      <use x="422.265625" xlink:href="#DejaVuSans-75"/>
      <use x="485.644531" xlink:href="#DejaVuSans-73"/>
     </g>
    </g>
    <g id="line2d_27">
     <path d="M 771.568125 89.129063 
L 791.568125 89.129063 
" style="fill:none;stroke:#d62728;stroke-linecap:square;stroke-width:1.5;"/>
    </g>
    <g id="line2d_28">
     <defs>
      <path d="M 0 -3 
L -3 3 
L 3 3 
z
" id="m0d2f05f9cc" style="stroke:#d62728;stroke-linejoin:miter;"/>
     </defs>
     <g>
      <use style="fill:#d62728;stroke:#d62728;stroke-linejoin:miter;" x="781.568125" xlink:href="#m0d2f05f9cc" y="89.129063"/>
     </g>
    </g>
    <g id="text_13">
     <!-- eclipser -->
     <g transform="translate(799.568125 92.629063)scale(0.1 -0.1)">
      <use xlink:href="#DejaVuSans-65"/>
      <use x="61.523438" xlink:href="#DejaVuSans-63"/>
      <use x="116.503906" xlink:href="#DejaVuSans-6c"/>
      <use x="144.287109" xlink:href="#DejaVuSans-69"/>
      <use x="172.070312" xlink:href="#DejaVuSans-70"/>
      <use x="235.546875" xlink:href="#DejaVuSans-73"/>
      <use x="287.646484" xlink:href="#DejaVuSans-65"/>
      <use x="349.169922" xlink:href="#DejaVuSans-72"/>
     </g>
    </g>
    <g id="line2d_29">
     <path d="M 771.568125 103.807187 
L 791.568125 103.807187 
" style="fill:none;stroke:#1f77b4;stroke-linecap:square;stroke-width:1.5;"/>
    </g>
    <g id="line2d_30">
     <defs>
      <path d="M 0 3 
C 0.795609 3 1.55874 2.683901 2.12132 2.12132 
C 2.683901 1.55874 3 0.795609 3 0 
C 3 -0.795609 2.683901 -1.55874 2.12132 -2.12132 
C 1.55874 -2.683901 0.795609 -3 0 -3 
C -0.795609 -3 -1.55874 -2.683901 -2.12132 -2.12132 
C -2.683901 -1.55874 -3 -0.795609 -3 0 
C -3 0.795609 -2.683901 1.55874 -2.12132 2.12132 
C -1.55874 2.683901 -0.795609 3 0 3 
z
" id="m807aca87a6" style="stroke:#1f77b4;"/>
     </defs>
     <g>
      <use style="fill:#1f77b4;stroke:#1f77b4;" x="781.568125" xlink:href="#m807aca87a6" y="103.807187"/>
     </g>
    </g>
    <g id="text_14">
     <!-- afl -->
     <g transform="translate(799.568125 107.307187)scale(0.1 -0.1)">
      <use xlink:href="#DejaVuSans-61"/>
      <use x="61.279297" xlink:href="#DejaVuSans-66"/>
      <use x="96.484375" xlink:href="#DejaVuSans-6c"/>
     </g>
    </g>
   </g>
  </g>
 </g>
 <defs>
  <clipPath id="paf67d50ede">
   <rect height="266.112" width="714.24" x="53.328125" y="22.318125"/>
  </clipPath>
 </defs>
</svg>
