<?xml version="1.0" encoding="utf-8" standalone="no"?>
<!DOCTYPE svg PUBLIC "-//W3C//DTD SVG 1.1//EN"
  "http://www.w3.org/Graphics/SVG/1.1/DTD/svg11.dtd">
<svg height="325.986375pt" version="1.1" viewBox="0 0 864.541562 325.986375" width="864.541562pt" xmlns="http://www.w3.org/2000/svg" xmlns:xlink="http://www.w3.org/1999/xlink">
 <metadata>
  <rdf:RDF xmlns:cc="http://creativecommons.org/ns#" xmlns:dc="http://purl.org/dc/elements/1.1/" xmlns:rdf="http://www.w3.org/1999/02/22-rdf-syntax-ns#">
   <cc:Work>
    <dc:type rdf:resource="http://purl.org/dc/dcmitype/StillImage"/>
    <dc:date>2022-06-11T16:52:07.343366</dc:date>
    <dc:format>image/svg+xml</dc:format>
    <dc:creator>
     <cc:Agent>
      <dc:title>Matplotlib v3.4.1, https://matplotlib.org/</dc:title>
     </cc:Agent>
    </dc:creator>
   </cc:Work>
  </rdf:RDF>
 </metadata>
 <defs>
  <style type="text/css">*{stroke-linecap:butt;stroke-linejoin:round;}</style>
 </defs>
 <g id="figure_1">
  <g id="patch_1">
   <path d="M 0 325.986375 
L 864.541562 325.986375 
L 864.541562 0 
L 0 0 
z
" style="fill:#ffffff;"/>
  </g>
  <g id="axes_1">
   <g id="patch_2">
    <path d="M 53.328125 288.430125 
L 767.568125 288.430125 
L 767.568125 22.318125 
L 53.328125 22.318125 
z
" style="fill:#ffffff;"/>
   </g>
   <g id="PolyCollection_1">
    <defs>
     <path d="M 85.79358 -122.921336 
L 85.79358 -118.135742 
L 92.628412 -125.561663 
L 99.463245 -171.437352 
L 106.298077 -172.097434 
L 113.13291 -173.417598 
L 119.967742 -174.407721 
L 126.802575 -184.473969 
L 133.637407 -192.559972 
L 140.47224 -192.229931 
L 147.307072 -206.751732 
L 154.141905 -219.623328 
L 160.976737 -221.273532 
L 167.81157 -233.650067 
L 174.646403 -237.115497 
L 181.481235 -230.679699 
L 188.316068 -234.920725 
L 195.1509 -236.096496 
L 201.985733 -232.989985 
L 208.820565 -235.630313 
L 215.655398 -236.434788 
L 222.49023 -263.489893 
L 229.325063 -264.178853 
L 236.159895 -235.960354 
L 242.994728 -231.999863 
L 249.82956 -268.469385 
L 256.664393 -268.461134 
L 263.499225 -269.789549 
L 270.334058 -268.799426 
L 277.168891 -269.129467 
L 284.003723 -271.769794 
L 290.838556 -269.789549 
L 297.673388 -272.099835 
L 304.508221 -272.759917 
L 311.343053 -272.751666 
L 318.177886 -272.759917 
L 325.012718 -272.759917 
L 331.847551 -272.759917 
L 338.682383 -272.759917 
L 345.517216 -273.254979 
L 352.352048 -273.254979 
L 359.186881 -273.75004 
L 366.021714 -274.080081 
L 372.856546 -274.080081 
L 379.691379 -274.080081 
L 386.526211 -274.23685 
L 393.361044 -274.245101 
L 400.195876 -274.410122 
L 407.030709 -274.410122 
L 413.865541 -274.740163 
L 420.700374 -274.410122 
L 427.535206 -274.410122 
L 434.370039 -274.740163 
L 441.204871 -274.410122 
L 448.039704 -274.905183 
L 454.874536 -275.070204 
L 461.709369 -274.905183 
L 468.544202 -274.905183 
L 475.379034 -274.905183 
L 482.213867 -275.070204 
L 489.048699 -274.905183 
L 495.883532 -274.905183 
L 502.718364 -274.905183 
L 509.553197 -275.070204 
L 516.388029 -275.066078 
L 523.222862 -274.905183 
L 530.057694 -275.070204 
L 536.892527 -274.905183 
L 543.727359 -275.070204 
L 550.562192 -275.070204 
L 557.397025 -275.070204 
L 564.231857 -275.070204 
L 571.06669 -275.070204 
L 577.901522 -275.070204 
L 584.736355 -275.070204 
L 591.571187 -275.070204 
L 598.40602 -275.070204 
L 605.240852 -275.070204 
L 612.075685 -275.070204 
L 618.910517 -275.070204 
L 625.74535 -275.070204 
L 632.580182 -275.070204 
L 639.415015 -275.070204 
L 646.249847 -275.070204 
L 653.08468 -275.070204 
L 659.919513 -275.070204 
L 666.754345 -275.070204 
L 673.589178 -275.070204 
L 680.42401 -275.070204 
L 687.258843 -275.070204 
L 694.093675 -275.070204 
L 700.928508 -275.070204 
L 707.76334 -275.070204 
L 714.598173 -275.070204 
L 721.433005 -275.070204 
L 728.267838 -275.070204 
L 735.10267 -275.070204 
L 735.10267 -291.57225 
L 735.10267 -291.57225 
L 728.267838 -291.57225 
L 721.433005 -291.57225 
L 714.598173 -291.57225 
L 707.76334 -291.242209 
L 700.928508 -291.242209 
L 694.093675 -291.242209 
L 687.258843 -291.242209 
L 680.42401 -291.242209 
L 673.589178 -291.242209 
L 666.754345 -291.242209 
L 659.919513 -291.242209 
L 653.08468 -291.242209 
L 646.249847 -291.242209 
L 639.415015 -291.242209 
L 632.580182 -291.242209 
L 625.74535 -291.242209 
L 618.910517 -291.242209 
L 612.075685 -291.242209 
L 605.240852 -291.242209 
L 598.40602 -291.242209 
L 591.571187 -290.912168 
L 584.736355 -290.912168 
L 577.901522 -290.912168 
L 571.06669 -290.912168 
L 564.231857 -290.912168 
L 557.397025 -290.912168 
L 550.562192 -290.912168 
L 543.727359 -290.912168 
L 536.892527 -290.582127 
L 530.057694 -290.582127 
L 523.222862 -290.582127 
L 516.388029 -290.582127 
L 509.553197 -290.582127 
L 502.718364 -290.582127 
L 495.883532 -290.582127 
L 489.048699 -290.582127 
L 482.213867 -290.582127 
L 475.379034 -290.582127 
L 468.544202 -290.582127 
L 461.709369 -290.582127 
L 454.874536 -290.252086 
L 448.039704 -290.252086 
L 441.204871 -290.417107 
L 434.370039 -288.10682 
L 427.535206 -288.10682 
L 420.700374 -288.10682 
L 413.865541 -286.980556 
L 407.030709 -288.10682 
L 400.195876 -288.10682 
L 393.361044 -288.601882 
L 386.526211 -288.601882 
L 379.691379 -287.9418 
L 372.856546 -287.958302 
L 366.021714 -286.951677 
L 359.186881 -287.9418 
L 352.352048 -285.631513 
L 345.517216 -285.631513 
L 338.682383 -284.47637 
L 331.847551 -282.001063 
L 325.012718 -282.001063 
L 318.177886 -283.816288 
L 311.343053 -283.816288 
L 304.508221 -283.816288 
L 297.673388 -283.651268 
L 290.838556 -280.020818 
L 284.003723 -278.700654 
L 277.168891 -280.020818 
L 270.334058 -280.020818 
L 263.499225 -280.024943 
L 256.664393 -279.690777 
L 249.82956 -279.525756 
L 242.994728 -278.040572 
L 236.159895 -278.048823 
L 229.325063 -276.060326 
L 222.49023 -275.416747 
L 215.655398 -275.730285 
L 208.820565 -276.060326 
L 201.985733 -276.060326 
L 195.1509 -276.060326 
L 188.316068 -275.400245 
L 181.481235 -276.060326 
L 174.646403 -275.400245 
L 167.81157 -274.080081 
L 160.976737 -273.91506 
L 154.141905 -273.419999 
L 147.307072 -272.759917 
L 140.47224 -272.429876 
L 133.637407 -243.386275 
L 126.802575 -243.386275 
L 119.967742 -243.056234 
L 113.13291 -243.056234 
L 106.298077 -242.396152 
L 99.463245 -228.204392 
L 92.628412 -145.529139 
L 85.79358 -122.921336 
z
" id="mbc7797c26a" style="stroke:#1f77b4;stroke-opacity:0.2;"/>
    </defs>
    <g clip-path="url(#pf22233bfff)">
     <use style="fill:#1f77b4;fill-opacity:0.2;stroke:#1f77b4;stroke-opacity:0.2;" x="0" xlink:href="#mbc7797c26a" y="325.986375"/>
    </g>
   </g>
   <g id="PolyCollection_2">
    <defs>
     <path d="M 85.79358 -113.350149 
L 85.79358 -49.65225 
L 92.628412 -77.210667 
L 99.463245 -102.128758 
L 106.298077 -106.74933 
L 113.13291 -110.874842 
L 119.967742 -114.175251 
L 126.802575 -119.455906 
L 133.637407 -118.630804 
L 140.47224 -121.931213 
L 147.307072 -122.261254 
L 154.141905 -121.436152 
L 160.976737 -122.261254 
L 167.81157 -125.53691 
L 174.646403 -125.561663 
L 181.481235 -125.561663 
L 188.316068 -125.561663 
L 195.1509 -126.551786 
L 201.985733 -129.447895 
L 208.820565 -129.027093 
L 215.655398 -129.522155 
L 222.49023 -129.522155 
L 229.325063 -129.522155 
L 236.159895 -129.522155 
L 242.994728 -129.522155 
L 249.82956 -129.522155 
L 256.664393 -129.522155 
L 263.499225 -129.522155 
L 270.334058 -129.522155 
L 277.168891 -129.522155 
L 284.003723 -130.512277 
L 290.838556 -130.512277 
L 297.673388 -130.512277 
L 304.508221 -130.512277 
L 311.343053 -130.512277 
L 318.177886 -130.512277 
L 325.012718 -131.5024 
L 331.847551 -131.5024 
L 338.682383 -131.5024 
L 345.517216 -131.832441 
L 352.352048 -131.832441 
L 359.186881 -131.832441 
L 366.021714 -133.482646 
L 372.856546 -133.482646 
L 379.691379 -133.482646 
L 386.526211 -133.482646 
L 393.361044 -133.482646 
L 400.195876 -133.482646 
L 407.030709 -133.482646 
L 413.865541 -133.482646 
L 420.700374 -133.482646 
L 427.535206 -133.482646 
L 434.370039 -132.822564 
L 441.204871 -135.13285 
L 448.039704 -139.753423 
L 454.874536 -139.753423 
L 461.709369 -137.443137 
L 468.544202 -142.488637 
L 475.379034 -144.373996 
L 482.213867 -147.344365 
L 489.048699 -148.309734 
L 495.883532 -147.344365 
L 502.718364 -147.839426 
L 509.553197 -148.499508 
L 516.388029 -149.951688 
L 523.222862 -147.344365 
L 530.057694 -147.344365 
L 536.892527 -148.792419 
L 543.727359 -147.344365 
L 550.562192 -147.344365 
L 557.397025 -148.829549 
L 564.231857 -148.792419 
L 571.06669 -150.314733 
L 577.901522 -150.314733 
L 584.736355 -150.149712 
L 591.571187 -150.314733 
L 598.40602 -150.314733 
L 605.240852 -150.974815 
L 612.075685 -150.974815 
L 618.910517 -150.974815 
L 625.74535 -150.479753 
L 632.580182 -150.974815 
L 639.415015 -150.974815 
L 646.249847 -150.974815 
L 653.08468 -150.974815 
L 659.919513 -150.974815 
L 666.754345 -150.974815 
L 673.589178 -150.974815 
L 680.42401 -150.974815 
L 687.258843 -150.974815 
L 694.093675 -150.974815 
L 700.928508 -150.974815 
L 707.76334 -150.974815 
L 714.598173 -151.634897 
L 721.433005 -151.634897 
L 728.267838 -151.634897 
L 735.10267 -151.634897 
L 735.10267 -275.235224 
L 735.10267 -275.235224 
L 728.267838 -275.070204 
L 721.433005 -275.070204 
L 714.598173 -275.070204 
L 707.76334 -275.070204 
L 700.928508 -275.070204 
L 694.093675 -275.235224 
L 687.258843 -275.070204 
L 680.42401 -275.070204 
L 673.589178 -275.070204 
L 666.754345 -275.070204 
L 659.919513 -275.070204 
L 653.08468 -275.070204 
L 646.249847 -275.070204 
L 639.415015 -275.070204 
L 632.580182 -275.070204 
L 625.74535 -275.070204 
L 618.910517 -275.235224 
L 612.075685 -275.070204 
L 605.240852 -275.070204 
L 598.40602 -275.070204 
L 591.571187 -275.070204 
L 584.736355 -275.074329 
L 577.901522 -275.070204 
L 571.06669 -275.070204 
L 564.231857 -275.070204 
L 557.397025 -275.070204 
L 550.562192 -275.070204 
L 543.727359 -275.070204 
L 536.892527 -275.070204 
L 530.057694 -275.070204 
L 523.222862 -275.070204 
L 516.388029 -275.070204 
L 509.553197 -275.070204 
L 502.718364 -275.070204 
L 495.883532 -274.740163 
L 489.048699 -274.740163 
L 482.213867 -274.740163 
L 475.379034 -274.740163 
L 468.544202 -274.740163 
L 461.709369 -274.740163 
L 454.874536 -273.419999 
L 448.039704 -274.080081 
L 441.204871 -271.439753 
L 434.370039 -270.779672 
L 427.535206 -268.799426 
L 420.700374 -261.868567 
L 413.865541 -258.238116 
L 407.030709 -257.578034 
L 400.195876 -249.657052 
L 393.361044 -249.657052 
L 386.526211 -262.363628 
L 379.691379 -247.676807 
L 372.856546 -245.36652 
L 366.021714 -245.36652 
L 359.186881 -245.36652 
L 352.352048 -244.706438 
L 345.517216 -243.716315 
L 338.682383 -231.17476 
L 331.847551 -212.692468 
L 325.012718 -212.362427 
L 318.177886 -212.362427 
L 311.343053 -212.197407 
L 304.508221 -212.032386 
L 297.673388 -212.659464 
L 290.838556 -210.217161 
L 284.003723 -210.217161 
L 277.168891 -210.217161 
L 270.334058 -199.490831 
L 263.499225 -199.8415 
L 256.664393 -199.494957 
L 249.82956 -208.566957 
L 242.994728 -206.586711 
L 236.159895 -205.101527 
L 229.325063 -204.936506 
L 222.49023 -203.286302 
L 215.655398 -202.296179 
L 208.820565 -199.16079 
L 201.985733 -199.16079 
L 195.1509 -198.830749 
L 188.316068 -198.500708 
L 181.481235 -198.500708 
L 174.646403 -198.170667 
L 167.81157 -198.170667 
L 160.976737 -168.962045 
L 154.141905 -153.450122 
L 147.307072 -144.373996 
L 140.47224 -135.462891 
L 133.637407 -132.822564 
L 126.802575 -129.192114 
L 119.967742 -128.201991 
L 113.13291 -127.541909 
L 106.298077 -126.551786 
L 99.463245 -125.231622 
L 92.628412 -124.2415 
L 85.79358 -113.350149 
z
" id="ma6bd7b9f28" style="stroke:#98df8a;stroke-opacity:0.2;"/>
    </defs>
    <g clip-path="url(#pf22233bfff)">
     <use style="fill:#98df8a;fill-opacity:0.2;stroke:#98df8a;stroke-opacity:0.2;" x="0" xlink:href="#ma6bd7b9f28" y="325.986375"/>
    </g>
   </g>
   <g id="matplotlib.axis_1">
    <g id="xtick_1">
     <g id="line2d_1">
      <defs>
       <path d="M 0 0 
L 0 3.5 
" id="m558c717a6d" style="stroke:#000000;stroke-width:0.8;"/>
      </defs>
      <g>
       <use style="stroke:#000000;stroke-width:0.8;" x="85.79358" xlink:href="#m558c717a6d" y="288.430125"/>
      </g>
     </g>
     <g id="text_1">
      <!-- 15m -->
      <g transform="translate(74.560767 303.028562)scale(0.1 -0.1)">
       <defs>
        <path d="M 794 531 
L 1825 531 
L 1825 4091 
L 703 3866 
L 703 4441 
L 1819 4666 
L 2450 4666 
L 2450 531 
L 3481 531 
L 3481 0 
L 794 0 
L 794 531 
z
" id="DejaVuSans-31" transform="scale(0.015625)"/>
        <path d="M 691 4666 
L 3169 4666 
L 3169 4134 
L 1269 4134 
L 1269 2991 
Q 1406 3038 1543 3061 
Q 1681 3084 1819 3084 
Q 2600 3084 3056 2656 
Q 3513 2228 3513 1497 
Q 3513 744 3044 326 
Q 2575 -91 1722 -91 
Q 1428 -91 1123 -41 
Q 819 9 494 109 
L 494 744 
Q 775 591 1075 516 
Q 1375 441 1709 441 
Q 2250 441 2565 725 
Q 2881 1009 2881 1497 
Q 2881 1984 2565 2268 
Q 2250 2553 1709 2553 
Q 1456 2553 1204 2497 
Q 953 2441 691 2322 
L 691 4666 
z
" id="DejaVuSans-35" transform="scale(0.015625)"/>
        <path d="M 3328 2828 
Q 3544 3216 3844 3400 
Q 4144 3584 4550 3584 
Q 5097 3584 5394 3201 
Q 5691 2819 5691 2113 
L 5691 0 
L 5113 0 
L 5113 2094 
Q 5113 2597 4934 2840 
Q 4756 3084 4391 3084 
Q 3944 3084 3684 2787 
Q 3425 2491 3425 1978 
L 3425 0 
L 2847 0 
L 2847 2094 
Q 2847 2600 2669 2842 
Q 2491 3084 2119 3084 
Q 1678 3084 1418 2786 
Q 1159 2488 1159 1978 
L 1159 0 
L 581 0 
L 581 3500 
L 1159 3500 
L 1159 2956 
Q 1356 3278 1631 3431 
Q 1906 3584 2284 3584 
Q 2666 3584 2933 3390 
Q 3200 3197 3328 2828 
z
" id="DejaVuSans-6d" transform="scale(0.015625)"/>
       </defs>
       <use xlink:href="#DejaVuSans-31"/>
       <use x="63.623047" xlink:href="#DejaVuSans-35"/>
       <use x="127.246094" xlink:href="#DejaVuSans-6d"/>
      </g>
     </g>
    </g>
    <g id="xtick_2">
     <g id="line2d_2">
      <g>
       <use style="stroke:#000000;stroke-width:0.8;" x="140.47224" xlink:href="#m558c717a6d" y="288.430125"/>
      </g>
     </g>
     <g id="text_2">
      <!-- 2h:15m -->
      <g transform="translate(121.205052 303.028562)scale(0.1 -0.1)">
       <defs>
        <path d="M 1228 531 
L 3431 531 
L 3431 0 
L 469 0 
L 469 531 
Q 828 903 1448 1529 
Q 2069 2156 2228 2338 
Q 2531 2678 2651 2914 
Q 2772 3150 2772 3378 
Q 2772 3750 2511 3984 
Q 2250 4219 1831 4219 
Q 1534 4219 1204 4116 
Q 875 4013 500 3803 
L 500 4441 
Q 881 4594 1212 4672 
Q 1544 4750 1819 4750 
Q 2544 4750 2975 4387 
Q 3406 4025 3406 3419 
Q 3406 3131 3298 2873 
Q 3191 2616 2906 2266 
Q 2828 2175 2409 1742 
Q 1991 1309 1228 531 
z
" id="DejaVuSans-32" transform="scale(0.015625)"/>
        <path d="M 3513 2113 
L 3513 0 
L 2938 0 
L 2938 2094 
Q 2938 2591 2744 2837 
Q 2550 3084 2163 3084 
Q 1697 3084 1428 2787 
Q 1159 2491 1159 1978 
L 1159 0 
L 581 0 
L 581 4863 
L 1159 4863 
L 1159 2956 
Q 1366 3272 1645 3428 
Q 1925 3584 2291 3584 
Q 2894 3584 3203 3211 
Q 3513 2838 3513 2113 
z
" id="DejaVuSans-68" transform="scale(0.015625)"/>
        <path d="M 750 794 
L 1409 794 
L 1409 0 
L 750 0 
L 750 794 
z
M 750 3309 
L 1409 3309 
L 1409 2516 
L 750 2516 
L 750 3309 
z
" id="DejaVuSans-3a" transform="scale(0.015625)"/>
       </defs>
       <use xlink:href="#DejaVuSans-32"/>
       <use x="63.623047" xlink:href="#DejaVuSans-68"/>
       <use x="127.001953" xlink:href="#DejaVuSans-3a"/>
       <use x="160.693359" xlink:href="#DejaVuSans-31"/>
       <use x="224.316406" xlink:href="#DejaVuSans-35"/>
       <use x="287.939453" xlink:href="#DejaVuSans-6d"/>
      </g>
     </g>
    </g>
    <g id="xtick_3">
     <g id="line2d_3">
      <g>
       <use style="stroke:#000000;stroke-width:0.8;" x="195.1509" xlink:href="#m558c717a6d" y="288.430125"/>
      </g>
     </g>
     <g id="text_3">
      <!-- 4h:15m -->
      <g transform="translate(175.883713 303.028562)scale(0.1 -0.1)">
       <defs>
        <path d="M 2419 4116 
L 825 1625 
L 2419 1625 
L 2419 4116 
z
M 2253 4666 
L 3047 4666 
L 3047 1625 
L 3713 1625 
L 3713 1100 
L 3047 1100 
L 3047 0 
L 2419 0 
L 2419 1100 
L 313 1100 
L 313 1709 
L 2253 4666 
z
" id="DejaVuSans-34" transform="scale(0.015625)"/>
       </defs>
       <use xlink:href="#DejaVuSans-34"/>
       <use x="63.623047" xlink:href="#DejaVuSans-68"/>
       <use x="127.001953" xlink:href="#DejaVuSans-3a"/>
       <use x="160.693359" xlink:href="#DejaVuSans-31"/>
       <use x="224.316406" xlink:href="#DejaVuSans-35"/>
       <use x="287.939453" xlink:href="#DejaVuSans-6d"/>
      </g>
     </g>
    </g>
    <g id="xtick_4">
     <g id="line2d_4">
      <g>
       <use style="stroke:#000000;stroke-width:0.8;" x="249.82956" xlink:href="#m558c717a6d" y="288.430125"/>
      </g>
     </g>
     <g id="text_4">
      <!-- 6h:15m -->
      <g transform="translate(230.562373 303.028562)scale(0.1 -0.1)">
       <defs>
        <path d="M 2113 2584 
Q 1688 2584 1439 2293 
Q 1191 2003 1191 1497 
Q 1191 994 1439 701 
Q 1688 409 2113 409 
Q 2538 409 2786 701 
Q 3034 994 3034 1497 
Q 3034 2003 2786 2293 
Q 2538 2584 2113 2584 
z
M 3366 4563 
L 3366 3988 
Q 3128 4100 2886 4159 
Q 2644 4219 2406 4219 
Q 1781 4219 1451 3797 
Q 1122 3375 1075 2522 
Q 1259 2794 1537 2939 
Q 1816 3084 2150 3084 
Q 2853 3084 3261 2657 
Q 3669 2231 3669 1497 
Q 3669 778 3244 343 
Q 2819 -91 2113 -91 
Q 1303 -91 875 529 
Q 447 1150 447 2328 
Q 447 3434 972 4092 
Q 1497 4750 2381 4750 
Q 2619 4750 2861 4703 
Q 3103 4656 3366 4563 
z
" id="DejaVuSans-36" transform="scale(0.015625)"/>
       </defs>
       <use xlink:href="#DejaVuSans-36"/>
       <use x="63.623047" xlink:href="#DejaVuSans-68"/>
       <use x="127.001953" xlink:href="#DejaVuSans-3a"/>
       <use x="160.693359" xlink:href="#DejaVuSans-31"/>
       <use x="224.316406" xlink:href="#DejaVuSans-35"/>
       <use x="287.939453" xlink:href="#DejaVuSans-6d"/>
      </g>
     </g>
    </g>
    <g id="xtick_5">
     <g id="line2d_5">
      <g>
       <use style="stroke:#000000;stroke-width:0.8;" x="304.508221" xlink:href="#m558c717a6d" y="288.430125"/>
      </g>
     </g>
     <g id="text_5">
      <!-- 8h:15m -->
      <g transform="translate(285.241033 303.028562)scale(0.1 -0.1)">
       <defs>
        <path d="M 2034 2216 
Q 1584 2216 1326 1975 
Q 1069 1734 1069 1313 
Q 1069 891 1326 650 
Q 1584 409 2034 409 
Q 2484 409 2743 651 
Q 3003 894 3003 1313 
Q 3003 1734 2745 1975 
Q 2488 2216 2034 2216 
z
M 1403 2484 
Q 997 2584 770 2862 
Q 544 3141 544 3541 
Q 544 4100 942 4425 
Q 1341 4750 2034 4750 
Q 2731 4750 3128 4425 
Q 3525 4100 3525 3541 
Q 3525 3141 3298 2862 
Q 3072 2584 2669 2484 
Q 3125 2378 3379 2068 
Q 3634 1759 3634 1313 
Q 3634 634 3220 271 
Q 2806 -91 2034 -91 
Q 1263 -91 848 271 
Q 434 634 434 1313 
Q 434 1759 690 2068 
Q 947 2378 1403 2484 
z
M 1172 3481 
Q 1172 3119 1398 2916 
Q 1625 2713 2034 2713 
Q 2441 2713 2670 2916 
Q 2900 3119 2900 3481 
Q 2900 3844 2670 4047 
Q 2441 4250 2034 4250 
Q 1625 4250 1398 4047 
Q 1172 3844 1172 3481 
z
" id="DejaVuSans-38" transform="scale(0.015625)"/>
       </defs>
       <use xlink:href="#DejaVuSans-38"/>
       <use x="63.623047" xlink:href="#DejaVuSans-68"/>
       <use x="127.001953" xlink:href="#DejaVuSans-3a"/>
       <use x="160.693359" xlink:href="#DejaVuSans-31"/>
       <use x="224.316406" xlink:href="#DejaVuSans-35"/>
       <use x="287.939453" xlink:href="#DejaVuSans-6d"/>
      </g>
     </g>
    </g>
    <g id="xtick_6">
     <g id="line2d_6">
      <g>
       <use style="stroke:#000000;stroke-width:0.8;" x="359.186881" xlink:href="#m558c717a6d" y="288.430125"/>
      </g>
     </g>
     <g id="text_6">
      <!-- 10h:15m -->
      <g transform="translate(336.738443 303.028562)scale(0.1 -0.1)">
       <defs>
        <path d="M 2034 4250 
Q 1547 4250 1301 3770 
Q 1056 3291 1056 2328 
Q 1056 1369 1301 889 
Q 1547 409 2034 409 
Q 2525 409 2770 889 
Q 3016 1369 3016 2328 
Q 3016 3291 2770 3770 
Q 2525 4250 2034 4250 
z
M 2034 4750 
Q 2819 4750 3233 4129 
Q 3647 3509 3647 2328 
Q 3647 1150 3233 529 
Q 2819 -91 2034 -91 
Q 1250 -91 836 529 
Q 422 1150 422 2328 
Q 422 3509 836 4129 
Q 1250 4750 2034 4750 
z
" id="DejaVuSans-30" transform="scale(0.015625)"/>
       </defs>
       <use xlink:href="#DejaVuSans-31"/>
       <use x="63.623047" xlink:href="#DejaVuSans-30"/>
       <use x="127.246094" xlink:href="#DejaVuSans-68"/>
       <use x="190.625" xlink:href="#DejaVuSans-3a"/>
       <use x="224.316406" xlink:href="#DejaVuSans-31"/>
       <use x="287.939453" xlink:href="#DejaVuSans-35"/>
       <use x="351.5625" xlink:href="#DejaVuSans-6d"/>
      </g>
     </g>
    </g>
    <g id="xtick_7">
     <g id="line2d_7">
      <g>
       <use style="stroke:#000000;stroke-width:0.8;" x="413.865541" xlink:href="#m558c717a6d" y="288.430125"/>
      </g>
     </g>
     <g id="text_7">
      <!-- 12h:15m -->
      <g transform="translate(391.417104 303.028562)scale(0.1 -0.1)">
       <use xlink:href="#DejaVuSans-31"/>
       <use x="63.623047" xlink:href="#DejaVuSans-32"/>
       <use x="127.246094" xlink:href="#DejaVuSans-68"/>
       <use x="190.625" xlink:href="#DejaVuSans-3a"/>
       <use x="224.316406" xlink:href="#DejaVuSans-31"/>
       <use x="287.939453" xlink:href="#DejaVuSans-35"/>
       <use x="351.5625" xlink:href="#DejaVuSans-6d"/>
      </g>
     </g>
    </g>
    <g id="xtick_8">
     <g id="line2d_8">
      <g>
       <use style="stroke:#000000;stroke-width:0.8;" x="468.544202" xlink:href="#m558c717a6d" y="288.430125"/>
      </g>
     </g>
     <g id="text_8">
      <!-- 14h:15m -->
      <g transform="translate(446.095764 303.028562)scale(0.1 -0.1)">
       <use xlink:href="#DejaVuSans-31"/>
       <use x="63.623047" xlink:href="#DejaVuSans-34"/>
       <use x="127.246094" xlink:href="#DejaVuSans-68"/>
       <use x="190.625" xlink:href="#DejaVuSans-3a"/>
       <use x="224.316406" xlink:href="#DejaVuSans-31"/>
       <use x="287.939453" xlink:href="#DejaVuSans-35"/>
       <use x="351.5625" xlink:href="#DejaVuSans-6d"/>
      </g>
     </g>
    </g>
    <g id="xtick_9">
     <g id="line2d_9">
      <g>
       <use style="stroke:#000000;stroke-width:0.8;" x="523.222862" xlink:href="#m558c717a6d" y="288.430125"/>
      </g>
     </g>
     <g id="text_9">
      <!-- 16h:15m -->
      <g transform="translate(500.774424 303.028562)scale(0.1 -0.1)">
       <use xlink:href="#DejaVuSans-31"/>
       <use x="63.623047" xlink:href="#DejaVuSans-36"/>
       <use x="127.246094" xlink:href="#DejaVuSans-68"/>
       <use x="190.625" xlink:href="#DejaVuSans-3a"/>
       <use x="224.316406" xlink:href="#DejaVuSans-31"/>
       <use x="287.939453" xlink:href="#DejaVuSans-35"/>
       <use x="351.5625" xlink:href="#DejaVuSans-6d"/>
      </g>
     </g>
    </g>
    <g id="xtick_10">
     <g id="line2d_10">
      <g>
       <use style="stroke:#000000;stroke-width:0.8;" x="577.901522" xlink:href="#m558c717a6d" y="288.430125"/>
      </g>
     </g>
     <g id="text_10">
      <!-- 18h:15m -->
      <g transform="translate(555.453085 303.028562)scale(0.1 -0.1)">
       <use xlink:href="#DejaVuSans-31"/>
       <use x="63.623047" xlink:href="#DejaVuSans-38"/>
       <use x="127.246094" xlink:href="#DejaVuSans-68"/>
       <use x="190.625" xlink:href="#DejaVuSans-3a"/>
       <use x="224.316406" xlink:href="#DejaVuSans-31"/>
       <use x="287.939453" xlink:href="#DejaVuSans-35"/>
       <use x="351.5625" xlink:href="#DejaVuSans-6d"/>
      </g>
     </g>
    </g>
    <g id="xtick_11">
     <g id="line2d_11">
      <g>
       <use style="stroke:#000000;stroke-width:0.8;" x="632.580182" xlink:href="#m558c717a6d" y="288.430125"/>
      </g>
     </g>
     <g id="text_11">
      <!-- 20h:15m -->
      <g transform="translate(610.131745 303.028562)scale(0.1 -0.1)">
       <use xlink:href="#DejaVuSans-32"/>
       <use x="63.623047" xlink:href="#DejaVuSans-30"/>
       <use x="127.246094" xlink:href="#DejaVuSans-68"/>
       <use x="190.625" xlink:href="#DejaVuSans-3a"/>
       <use x="224.316406" xlink:href="#DejaVuSans-31"/>
       <use x="287.939453" xlink:href="#DejaVuSans-35"/>
       <use x="351.5625" xlink:href="#DejaVuSans-6d"/>
      </g>
     </g>
    </g>
    <g id="xtick_12">
     <g id="line2d_12">
      <g>
       <use style="stroke:#000000;stroke-width:0.8;" x="687.258843" xlink:href="#m558c717a6d" y="288.430125"/>
      </g>
     </g>
     <g id="text_12">
      <!-- 22h:15m -->
      <g transform="translate(664.810405 303.028562)scale(0.1 -0.1)">
       <use xlink:href="#DejaVuSans-32"/>
       <use x="63.623047" xlink:href="#DejaVuSans-32"/>
       <use x="127.246094" xlink:href="#DejaVuSans-68"/>
       <use x="190.625" xlink:href="#DejaVuSans-3a"/>
       <use x="224.316406" xlink:href="#DejaVuSans-31"/>
       <use x="287.939453" xlink:href="#DejaVuSans-35"/>
       <use x="351.5625" xlink:href="#DejaVuSans-6d"/>
      </g>
     </g>
    </g>
    <g id="text_13">
     <!-- Time (hour:minute) -->
     <g transform="translate(362.041094 316.706687)scale(0.1 -0.1)">
      <defs>
       <path d="M -19 4666 
L 3928 4666 
L 3928 4134 
L 2272 4134 
L 2272 0 
L 1638 0 
L 1638 4134 
L -19 4134 
L -19 4666 
z
" id="DejaVuSans-54" transform="scale(0.015625)"/>
       <path d="M 603 3500 
L 1178 3500 
L 1178 0 
L 603 0 
L 603 3500 
z
M 603 4863 
L 1178 4863 
L 1178 4134 
L 603 4134 
L 603 4863 
z
" id="DejaVuSans-69" transform="scale(0.015625)"/>
       <path d="M 3597 1894 
L 3597 1613 
L 953 1613 
Q 991 1019 1311 708 
Q 1631 397 2203 397 
Q 2534 397 2845 478 
Q 3156 559 3463 722 
L 3463 178 
Q 3153 47 2828 -22 
Q 2503 -91 2169 -91 
Q 1331 -91 842 396 
Q 353 884 353 1716 
Q 353 2575 817 3079 
Q 1281 3584 2069 3584 
Q 2775 3584 3186 3129 
Q 3597 2675 3597 1894 
z
M 3022 2063 
Q 3016 2534 2758 2815 
Q 2500 3097 2075 3097 
Q 1594 3097 1305 2825 
Q 1016 2553 972 2059 
L 3022 2063 
z
" id="DejaVuSans-65" transform="scale(0.015625)"/>
       <path id="DejaVuSans-20" transform="scale(0.015625)"/>
       <path d="M 1984 4856 
Q 1566 4138 1362 3434 
Q 1159 2731 1159 2009 
Q 1159 1288 1364 580 
Q 1569 -128 1984 -844 
L 1484 -844 
Q 1016 -109 783 600 
Q 550 1309 550 2009 
Q 550 2706 781 3412 
Q 1013 4119 1484 4856 
L 1984 4856 
z
" id="DejaVuSans-28" transform="scale(0.015625)"/>
       <path d="M 1959 3097 
Q 1497 3097 1228 2736 
Q 959 2375 959 1747 
Q 959 1119 1226 758 
Q 1494 397 1959 397 
Q 2419 397 2687 759 
Q 2956 1122 2956 1747 
Q 2956 2369 2687 2733 
Q 2419 3097 1959 3097 
z
M 1959 3584 
Q 2709 3584 3137 3096 
Q 3566 2609 3566 1747 
Q 3566 888 3137 398 
Q 2709 -91 1959 -91 
Q 1206 -91 779 398 
Q 353 888 353 1747 
Q 353 2609 779 3096 
Q 1206 3584 1959 3584 
z
" id="DejaVuSans-6f" transform="scale(0.015625)"/>
       <path d="M 544 1381 
L 544 3500 
L 1119 3500 
L 1119 1403 
Q 1119 906 1312 657 
Q 1506 409 1894 409 
Q 2359 409 2629 706 
Q 2900 1003 2900 1516 
L 2900 3500 
L 3475 3500 
L 3475 0 
L 2900 0 
L 2900 538 
Q 2691 219 2414 64 
Q 2138 -91 1772 -91 
Q 1169 -91 856 284 
Q 544 659 544 1381 
z
M 1991 3584 
L 1991 3584 
z
" id="DejaVuSans-75" transform="scale(0.015625)"/>
       <path d="M 2631 2963 
Q 2534 3019 2420 3045 
Q 2306 3072 2169 3072 
Q 1681 3072 1420 2755 
Q 1159 2438 1159 1844 
L 1159 0 
L 581 0 
L 581 3500 
L 1159 3500 
L 1159 2956 
Q 1341 3275 1631 3429 
Q 1922 3584 2338 3584 
Q 2397 3584 2469 3576 
Q 2541 3569 2628 3553 
L 2631 2963 
z
" id="DejaVuSans-72" transform="scale(0.015625)"/>
       <path d="M 3513 2113 
L 3513 0 
L 2938 0 
L 2938 2094 
Q 2938 2591 2744 2837 
Q 2550 3084 2163 3084 
Q 1697 3084 1428 2787 
Q 1159 2491 1159 1978 
L 1159 0 
L 581 0 
L 581 3500 
L 1159 3500 
L 1159 2956 
Q 1366 3272 1645 3428 
Q 1925 3584 2291 3584 
Q 2894 3584 3203 3211 
Q 3513 2838 3513 2113 
z
" id="DejaVuSans-6e" transform="scale(0.015625)"/>
       <path d="M 1172 4494 
L 1172 3500 
L 2356 3500 
L 2356 3053 
L 1172 3053 
L 1172 1153 
Q 1172 725 1289 603 
Q 1406 481 1766 481 
L 2356 481 
L 2356 0 
L 1766 0 
Q 1100 0 847 248 
Q 594 497 594 1153 
L 594 3053 
L 172 3053 
L 172 3500 
L 594 3500 
L 594 4494 
L 1172 4494 
z
" id="DejaVuSans-74" transform="scale(0.015625)"/>
       <path d="M 513 4856 
L 1013 4856 
Q 1481 4119 1714 3412 
Q 1947 2706 1947 2009 
Q 1947 1309 1714 600 
Q 1481 -109 1013 -844 
L 513 -844 
Q 928 -128 1133 580 
Q 1338 1288 1338 2009 
Q 1338 2731 1133 3434 
Q 928 4138 513 4856 
z
" id="DejaVuSans-29" transform="scale(0.015625)"/>
      </defs>
      <use xlink:href="#DejaVuSans-54"/>
      <use x="57.958984" xlink:href="#DejaVuSans-69"/>
      <use x="85.742188" xlink:href="#DejaVuSans-6d"/>
      <use x="183.154297" xlink:href="#DejaVuSans-65"/>
      <use x="244.677734" xlink:href="#DejaVuSans-20"/>
      <use x="276.464844" xlink:href="#DejaVuSans-28"/>
      <use x="315.478516" xlink:href="#DejaVuSans-68"/>
      <use x="378.857422" xlink:href="#DejaVuSans-6f"/>
      <use x="440.039062" xlink:href="#DejaVuSans-75"/>
      <use x="503.417969" xlink:href="#DejaVuSans-72"/>
      <use x="542.78125" xlink:href="#DejaVuSans-3a"/>
      <use x="576.472656" xlink:href="#DejaVuSans-6d"/>
      <use x="673.884766" xlink:href="#DejaVuSans-69"/>
      <use x="701.667969" xlink:href="#DejaVuSans-6e"/>
      <use x="765.046875" xlink:href="#DejaVuSans-75"/>
      <use x="828.425781" xlink:href="#DejaVuSans-74"/>
      <use x="867.634766" xlink:href="#DejaVuSans-65"/>
      <use x="929.158203" xlink:href="#DejaVuSans-29"/>
     </g>
    </g>
   </g>
   <g id="matplotlib.axis_2">
    <g id="ytick_1">
     <g id="line2d_13">
      <defs>
       <path d="M 0 0 
L -3.5 0 
" id="m370e650d15" style="stroke:#000000;stroke-width:0.8;"/>
      </defs>
      <g>
       <use style="stroke:#000000;stroke-width:0.8;" x="53.328125" xlink:href="#m370e650d15" y="285.905312"/>
      </g>
     </g>
     <g id="text_14">
      <!-- 1300 -->
      <g transform="translate(20.878125 289.704531)scale(0.1 -0.1)">
       <defs>
        <path d="M 2597 2516 
Q 3050 2419 3304 2112 
Q 3559 1806 3559 1356 
Q 3559 666 3084 287 
Q 2609 -91 1734 -91 
Q 1441 -91 1130 -33 
Q 819 25 488 141 
L 488 750 
Q 750 597 1062 519 
Q 1375 441 1716 441 
Q 2309 441 2620 675 
Q 2931 909 2931 1356 
Q 2931 1769 2642 2001 
Q 2353 2234 1838 2234 
L 1294 2234 
L 1294 2753 
L 1863 2753 
Q 2328 2753 2575 2939 
Q 2822 3125 2822 3475 
Q 2822 3834 2567 4026 
Q 2313 4219 1838 4219 
Q 1578 4219 1281 4162 
Q 984 4106 628 3988 
L 628 4550 
Q 988 4650 1302 4700 
Q 1616 4750 1894 4750 
Q 2613 4750 3031 4423 
Q 3450 4097 3450 3541 
Q 3450 3153 3228 2886 
Q 3006 2619 2597 2516 
z
" id="DejaVuSans-33" transform="scale(0.015625)"/>
       </defs>
       <use xlink:href="#DejaVuSans-31"/>
       <use x="63.623047" xlink:href="#DejaVuSans-33"/>
       <use x="127.246094" xlink:href="#DejaVuSans-30"/>
       <use x="190.869141" xlink:href="#DejaVuSans-30"/>
      </g>
     </g>
    </g>
    <g id="ytick_2">
     <g id="line2d_14">
      <g>
       <use style="stroke:#000000;stroke-width:0.8;" x="53.328125" xlink:href="#m370e650d15" y="252.901219"/>
      </g>
     </g>
     <g id="text_15">
      <!-- 1400 -->
      <g transform="translate(20.878125 256.700438)scale(0.1 -0.1)">
       <use xlink:href="#DejaVuSans-31"/>
       <use x="63.623047" xlink:href="#DejaVuSans-34"/>
       <use x="127.246094" xlink:href="#DejaVuSans-30"/>
       <use x="190.869141" xlink:href="#DejaVuSans-30"/>
      </g>
     </g>
    </g>
    <g id="ytick_3">
     <g id="line2d_15">
      <g>
       <use style="stroke:#000000;stroke-width:0.8;" x="53.328125" xlink:href="#m370e650d15" y="219.897126"/>
      </g>
     </g>
     <g id="text_16">
      <!-- 1500 -->
      <g transform="translate(20.878125 223.696345)scale(0.1 -0.1)">
       <use xlink:href="#DejaVuSans-31"/>
       <use x="63.623047" xlink:href="#DejaVuSans-35"/>
       <use x="127.246094" xlink:href="#DejaVuSans-30"/>
       <use x="190.869141" xlink:href="#DejaVuSans-30"/>
      </g>
     </g>
    </g>
    <g id="ytick_4">
     <g id="line2d_16">
      <g>
       <use style="stroke:#000000;stroke-width:0.8;" x="53.328125" xlink:href="#m370e650d15" y="186.893034"/>
      </g>
     </g>
     <g id="text_17">
      <!-- 1600 -->
      <g transform="translate(20.878125 190.692252)scale(0.1 -0.1)">
       <use xlink:href="#DejaVuSans-31"/>
       <use x="63.623047" xlink:href="#DejaVuSans-36"/>
       <use x="127.246094" xlink:href="#DejaVuSans-30"/>
       <use x="190.869141" xlink:href="#DejaVuSans-30"/>
      </g>
     </g>
    </g>
    <g id="ytick_5">
     <g id="line2d_17">
      <g>
       <use style="stroke:#000000;stroke-width:0.8;" x="53.328125" xlink:href="#m370e650d15" y="153.888941"/>
      </g>
     </g>
     <g id="text_18">
      <!-- 1700 -->
      <g transform="translate(20.878125 157.68816)scale(0.1 -0.1)">
       <defs>
        <path d="M 525 4666 
L 3525 4666 
L 3525 4397 
L 1831 0 
L 1172 0 
L 2766 4134 
L 525 4134 
L 525 4666 
z
" id="DejaVuSans-37" transform="scale(0.015625)"/>
       </defs>
       <use xlink:href="#DejaVuSans-31"/>
       <use x="63.623047" xlink:href="#DejaVuSans-37"/>
       <use x="127.246094" xlink:href="#DejaVuSans-30"/>
       <use x="190.869141" xlink:href="#DejaVuSans-30"/>
      </g>
     </g>
    </g>
    <g id="ytick_6">
     <g id="line2d_18">
      <g>
       <use style="stroke:#000000;stroke-width:0.8;" x="53.328125" xlink:href="#m370e650d15" y="120.884848"/>
      </g>
     </g>
     <g id="text_19">
      <!-- 1800 -->
      <g transform="translate(20.878125 124.684067)scale(0.1 -0.1)">
       <use xlink:href="#DejaVuSans-31"/>
       <use x="63.623047" xlink:href="#DejaVuSans-38"/>
       <use x="127.246094" xlink:href="#DejaVuSans-30"/>
       <use x="190.869141" xlink:href="#DejaVuSans-30"/>
      </g>
     </g>
    </g>
    <g id="ytick_7">
     <g id="line2d_19">
      <g>
       <use style="stroke:#000000;stroke-width:0.8;" x="53.328125" xlink:href="#m370e650d15" y="87.880755"/>
      </g>
     </g>
     <g id="text_20">
      <!-- 1900 -->
      <g transform="translate(20.878125 91.679974)scale(0.1 -0.1)">
       <defs>
        <path d="M 703 97 
L 703 672 
Q 941 559 1184 500 
Q 1428 441 1663 441 
Q 2288 441 2617 861 
Q 2947 1281 2994 2138 
Q 2813 1869 2534 1725 
Q 2256 1581 1919 1581 
Q 1219 1581 811 2004 
Q 403 2428 403 3163 
Q 403 3881 828 4315 
Q 1253 4750 1959 4750 
Q 2769 4750 3195 4129 
Q 3622 3509 3622 2328 
Q 3622 1225 3098 567 
Q 2575 -91 1691 -91 
Q 1453 -91 1209 -44 
Q 966 3 703 97 
z
M 1959 2075 
Q 2384 2075 2632 2365 
Q 2881 2656 2881 3163 
Q 2881 3666 2632 3958 
Q 2384 4250 1959 4250 
Q 1534 4250 1286 3958 
Q 1038 3666 1038 3163 
Q 1038 2656 1286 2365 
Q 1534 2075 1959 2075 
z
" id="DejaVuSans-39" transform="scale(0.015625)"/>
       </defs>
       <use xlink:href="#DejaVuSans-31"/>
       <use x="63.623047" xlink:href="#DejaVuSans-39"/>
       <use x="127.246094" xlink:href="#DejaVuSans-30"/>
       <use x="190.869141" xlink:href="#DejaVuSans-30"/>
      </g>
     </g>
    </g>
    <g id="ytick_8">
     <g id="line2d_20">
      <g>
       <use style="stroke:#000000;stroke-width:0.8;" x="53.328125" xlink:href="#m370e650d15" y="54.876663"/>
      </g>
     </g>
     <g id="text_21">
      <!-- 2000 -->
      <g transform="translate(20.878125 58.675881)scale(0.1 -0.1)">
       <use xlink:href="#DejaVuSans-32"/>
       <use x="63.623047" xlink:href="#DejaVuSans-30"/>
       <use x="127.246094" xlink:href="#DejaVuSans-30"/>
       <use x="190.869141" xlink:href="#DejaVuSans-30"/>
      </g>
     </g>
    </g>
    <g id="text_22">
     <!-- Code branch coverage -->
     <g transform="translate(14.798438 211.949125)rotate(-90)scale(0.1 -0.1)">
      <defs>
       <path d="M 4122 4306 
L 4122 3641 
Q 3803 3938 3442 4084 
Q 3081 4231 2675 4231 
Q 1875 4231 1450 3742 
Q 1025 3253 1025 2328 
Q 1025 1406 1450 917 
Q 1875 428 2675 428 
Q 3081 428 3442 575 
Q 3803 722 4122 1019 
L 4122 359 
Q 3791 134 3420 21 
Q 3050 -91 2638 -91 
Q 1578 -91 968 557 
Q 359 1206 359 2328 
Q 359 3453 968 4101 
Q 1578 4750 2638 4750 
Q 3056 4750 3426 4639 
Q 3797 4528 4122 4306 
z
" id="DejaVuSans-43" transform="scale(0.015625)"/>
       <path d="M 2906 2969 
L 2906 4863 
L 3481 4863 
L 3481 0 
L 2906 0 
L 2906 525 
Q 2725 213 2448 61 
Q 2172 -91 1784 -91 
Q 1150 -91 751 415 
Q 353 922 353 1747 
Q 353 2572 751 3078 
Q 1150 3584 1784 3584 
Q 2172 3584 2448 3432 
Q 2725 3281 2906 2969 
z
M 947 1747 
Q 947 1113 1208 752 
Q 1469 391 1925 391 
Q 2381 391 2643 752 
Q 2906 1113 2906 1747 
Q 2906 2381 2643 2742 
Q 2381 3103 1925 3103 
Q 1469 3103 1208 2742 
Q 947 2381 947 1747 
z
" id="DejaVuSans-64" transform="scale(0.015625)"/>
       <path d="M 3116 1747 
Q 3116 2381 2855 2742 
Q 2594 3103 2138 3103 
Q 1681 3103 1420 2742 
Q 1159 2381 1159 1747 
Q 1159 1113 1420 752 
Q 1681 391 2138 391 
Q 2594 391 2855 752 
Q 3116 1113 3116 1747 
z
M 1159 2969 
Q 1341 3281 1617 3432 
Q 1894 3584 2278 3584 
Q 2916 3584 3314 3078 
Q 3713 2572 3713 1747 
Q 3713 922 3314 415 
Q 2916 -91 2278 -91 
Q 1894 -91 1617 61 
Q 1341 213 1159 525 
L 1159 0 
L 581 0 
L 581 4863 
L 1159 4863 
L 1159 2969 
z
" id="DejaVuSans-62" transform="scale(0.015625)"/>
       <path d="M 2194 1759 
Q 1497 1759 1228 1600 
Q 959 1441 959 1056 
Q 959 750 1161 570 
Q 1363 391 1709 391 
Q 2188 391 2477 730 
Q 2766 1069 2766 1631 
L 2766 1759 
L 2194 1759 
z
M 3341 1997 
L 3341 0 
L 2766 0 
L 2766 531 
Q 2569 213 2275 61 
Q 1981 -91 1556 -91 
Q 1019 -91 701 211 
Q 384 513 384 1019 
Q 384 1609 779 1909 
Q 1175 2209 1959 2209 
L 2766 2209 
L 2766 2266 
Q 2766 2663 2505 2880 
Q 2244 3097 1772 3097 
Q 1472 3097 1187 3025 
Q 903 2953 641 2809 
L 641 3341 
Q 956 3463 1253 3523 
Q 1550 3584 1831 3584 
Q 2591 3584 2966 3190 
Q 3341 2797 3341 1997 
z
" id="DejaVuSans-61" transform="scale(0.015625)"/>
       <path d="M 3122 3366 
L 3122 2828 
Q 2878 2963 2633 3030 
Q 2388 3097 2138 3097 
Q 1578 3097 1268 2742 
Q 959 2388 959 1747 
Q 959 1106 1268 751 
Q 1578 397 2138 397 
Q 2388 397 2633 464 
Q 2878 531 3122 666 
L 3122 134 
Q 2881 22 2623 -34 
Q 2366 -91 2075 -91 
Q 1284 -91 818 406 
Q 353 903 353 1747 
Q 353 2603 823 3093 
Q 1294 3584 2113 3584 
Q 2378 3584 2631 3529 
Q 2884 3475 3122 3366 
z
" id="DejaVuSans-63" transform="scale(0.015625)"/>
       <path d="M 191 3500 
L 800 3500 
L 1894 563 
L 2988 3500 
L 3597 3500 
L 2284 0 
L 1503 0 
L 191 3500 
z
" id="DejaVuSans-76" transform="scale(0.015625)"/>
       <path d="M 2906 1791 
Q 2906 2416 2648 2759 
Q 2391 3103 1925 3103 
Q 1463 3103 1205 2759 
Q 947 2416 947 1791 
Q 947 1169 1205 825 
Q 1463 481 1925 481 
Q 2391 481 2648 825 
Q 2906 1169 2906 1791 
z
M 3481 434 
Q 3481 -459 3084 -895 
Q 2688 -1331 1869 -1331 
Q 1566 -1331 1297 -1286 
Q 1028 -1241 775 -1147 
L 775 -588 
Q 1028 -725 1275 -790 
Q 1522 -856 1778 -856 
Q 2344 -856 2625 -561 
Q 2906 -266 2906 331 
L 2906 616 
Q 2728 306 2450 153 
Q 2172 0 1784 0 
Q 1141 0 747 490 
Q 353 981 353 1791 
Q 353 2603 747 3093 
Q 1141 3584 1784 3584 
Q 2172 3584 2450 3431 
Q 2728 3278 2906 2969 
L 2906 3500 
L 3481 3500 
L 3481 434 
z
" id="DejaVuSans-67" transform="scale(0.015625)"/>
      </defs>
      <use xlink:href="#DejaVuSans-43"/>
      <use x="69.824219" xlink:href="#DejaVuSans-6f"/>
      <use x="131.005859" xlink:href="#DejaVuSans-64"/>
      <use x="194.482422" xlink:href="#DejaVuSans-65"/>
      <use x="256.005859" xlink:href="#DejaVuSans-20"/>
      <use x="287.792969" xlink:href="#DejaVuSans-62"/>
      <use x="351.269531" xlink:href="#DejaVuSans-72"/>
      <use x="392.382812" xlink:href="#DejaVuSans-61"/>
      <use x="453.662109" xlink:href="#DejaVuSans-6e"/>
      <use x="517.041016" xlink:href="#DejaVuSans-63"/>
      <use x="572.021484" xlink:href="#DejaVuSans-68"/>
      <use x="635.400391" xlink:href="#DejaVuSans-20"/>
      <use x="667.1875" xlink:href="#DejaVuSans-63"/>
      <use x="722.167969" xlink:href="#DejaVuSans-6f"/>
      <use x="783.349609" xlink:href="#DejaVuSans-76"/>
      <use x="842.529297" xlink:href="#DejaVuSans-65"/>
      <use x="904.052734" xlink:href="#DejaVuSans-72"/>
      <use x="945.166016" xlink:href="#DejaVuSans-61"/>
      <use x="1006.445312" xlink:href="#DejaVuSans-67"/>
      <use x="1069.921875" xlink:href="#DejaVuSans-65"/>
     </g>
    </g>
   </g>
   <g id="line2d_21">
    <path clip-path="url(#pf22233bfff)" d="M 85.79358 204.385203 
L 92.628412 199.269568 
L 99.463245 152.733798 
L 106.298077 142.337508 
L 113.13291 130.786076 
L 119.967742 128.475789 
L 126.802575 128.475789 
L 133.637407 127.650687 
L 140.47224 100.917372 
L 147.307072 78.474589 
L 154.141905 66.758136 
L 160.976737 66.593115 
L 167.81157 53.721519 
L 174.646403 53.391478 
L 181.481235 53.061437 
L 188.316068 53.061437 
L 195.1509 53.061437 
L 201.985733 53.061437 
L 208.820565 52.236335 
L 215.655398 52.236335 
L 222.49023 52.236335 
L 229.325063 52.236335 
L 236.159895 51.906294 
L 242.994728 51.906294 
L 249.82956 51.576253 
L 256.664393 50.091069 
L 263.499225 49.926049 
L 270.334058 49.926049 
L 277.168891 49.926049 
L 284.003723 49.926049 
L 290.838556 49.926049 
L 297.673388 49.596008 
L 304.508221 49.596008 
L 311.343053 49.596008 
L 318.177886 49.430987 
L 325.012718 49.430987 
L 331.847551 49.430987 
L 338.682383 48.935926 
L 345.517216 48.935926 
L 352.352048 48.935926 
L 359.186881 43.655271 
L 366.021714 43.655271 
L 372.856546 43.655271 
L 379.691379 43.655271 
L 386.526211 43.655271 
L 393.361044 43.655271 
L 400.195876 43.655271 
L 407.030709 43.655271 
L 413.865541 43.655271 
L 420.700374 43.655271 
L 427.535206 43.655271 
L 434.370039 43.655271 
L 441.204871 43.655271 
L 448.039704 43.655271 
L 454.874536 43.655271 
L 461.709369 43.655271 
L 468.544202 43.655271 
L 475.379034 43.655271 
L 482.213867 43.655271 
L 489.048699 43.490251 
L 495.883532 43.490251 
L 502.718364 43.490251 
L 509.553197 43.490251 
L 516.388029 43.16021 
L 523.222862 43.16021 
L 530.057694 43.16021 
L 536.892527 43.16021 
L 543.727359 43.16021 
L 550.562192 42.995189 
L 557.397025 42.995189 
L 564.231857 42.995189 
L 571.06669 42.995189 
L 577.901522 42.995189 
L 584.736355 42.995189 
L 591.571187 42.995189 
L 598.40602 42.830169 
L 605.240852 42.830169 
L 612.075685 42.830169 
L 618.910517 42.830169 
L 625.74535 42.830169 
L 632.580182 42.830169 
L 639.415015 42.500128 
L 646.249847 42.500128 
L 653.08468 42.170087 
L 659.919513 42.170087 
L 666.754345 42.170087 
L 673.589178 42.170087 
L 680.42401 42.170087 
L 687.258843 42.005066 
L 694.093675 42.005066 
L 700.928508 42.005066 
L 707.76334 42.005066 
L 714.598173 42.005066 
L 721.433005 42.005066 
L 728.267838 42.005066 
L 735.10267 42.005066 
" style="fill:none;stroke:#1f77b4;stroke-linecap:square;stroke-width:1.5;"/>
    <defs>
     <path d="M 0 3 
C 0.795609 3 1.55874 2.683901 2.12132 2.12132 
C 2.683901 1.55874 3 0.795609 3 0 
C 3 -0.795609 2.683901 -1.55874 2.12132 -2.12132 
C 1.55874 -2.683901 0.795609 -3 0 -3 
C -0.795609 -3 -1.55874 -2.683901 -2.12132 -2.12132 
C -2.683901 -1.55874 -3 -0.795609 -3 0 
C -3 0.795609 -2.683901 1.55874 -2.12132 2.12132 
C -1.55874 2.683901 -0.795609 3 0 3 
z
" id="m4bb59b236a" style="stroke:#ffffff;stroke-width:0.75;"/>
    </defs>
    <g clip-path="url(#pf22233bfff)">
     <use style="fill:#1f77b4;stroke:#ffffff;stroke-width:0.75;" x="85.79358" xlink:href="#m4bb59b236a" y="204.385203"/>
     <use style="fill:#1f77b4;stroke:#ffffff;stroke-width:0.75;" x="92.628412" xlink:href="#m4bb59b236a" y="199.269568"/>
     <use style="fill:#1f77b4;stroke:#ffffff;stroke-width:0.75;" x="99.463245" xlink:href="#m4bb59b236a" y="152.733798"/>
     <use style="fill:#1f77b4;stroke:#ffffff;stroke-width:0.75;" x="106.298077" xlink:href="#m4bb59b236a" y="142.337508"/>
     <use style="fill:#1f77b4;stroke:#ffffff;stroke-width:0.75;" x="113.13291" xlink:href="#m4bb59b236a" y="130.786076"/>
     <use style="fill:#1f77b4;stroke:#ffffff;stroke-width:0.75;" x="119.967742" xlink:href="#m4bb59b236a" y="128.475789"/>
     <use style="fill:#1f77b4;stroke:#ffffff;stroke-width:0.75;" x="126.802575" xlink:href="#m4bb59b236a" y="128.475789"/>
     <use style="fill:#1f77b4;stroke:#ffffff;stroke-width:0.75;" x="133.637407" xlink:href="#m4bb59b236a" y="127.650687"/>
     <use style="fill:#1f77b4;stroke:#ffffff;stroke-width:0.75;" x="140.47224" xlink:href="#m4bb59b236a" y="100.917372"/>
     <use style="fill:#1f77b4;stroke:#ffffff;stroke-width:0.75;" x="147.307072" xlink:href="#m4bb59b236a" y="78.474589"/>
     <use style="fill:#1f77b4;stroke:#ffffff;stroke-width:0.75;" x="154.141905" xlink:href="#m4bb59b236a" y="66.758136"/>
     <use style="fill:#1f77b4;stroke:#ffffff;stroke-width:0.75;" x="160.976737" xlink:href="#m4bb59b236a" y="66.593115"/>
     <use style="fill:#1f77b4;stroke:#ffffff;stroke-width:0.75;" x="167.81157" xlink:href="#m4bb59b236a" y="53.721519"/>
     <use style="fill:#1f77b4;stroke:#ffffff;stroke-width:0.75;" x="174.646403" xlink:href="#m4bb59b236a" y="53.391478"/>
     <use style="fill:#1f77b4;stroke:#ffffff;stroke-width:0.75;" x="181.481235" xlink:href="#m4bb59b236a" y="53.061437"/>
     <use style="fill:#1f77b4;stroke:#ffffff;stroke-width:0.75;" x="188.316068" xlink:href="#m4bb59b236a" y="53.061437"/>
     <use style="fill:#1f77b4;stroke:#ffffff;stroke-width:0.75;" x="195.1509" xlink:href="#m4bb59b236a" y="53.061437"/>
     <use style="fill:#1f77b4;stroke:#ffffff;stroke-width:0.75;" x="201.985733" xlink:href="#m4bb59b236a" y="53.061437"/>
     <use style="fill:#1f77b4;stroke:#ffffff;stroke-width:0.75;" x="208.820565" xlink:href="#m4bb59b236a" y="52.236335"/>
     <use style="fill:#1f77b4;stroke:#ffffff;stroke-width:0.75;" x="215.655398" xlink:href="#m4bb59b236a" y="52.236335"/>
     <use style="fill:#1f77b4;stroke:#ffffff;stroke-width:0.75;" x="222.49023" xlink:href="#m4bb59b236a" y="52.236335"/>
     <use style="fill:#1f77b4;stroke:#ffffff;stroke-width:0.75;" x="229.325063" xlink:href="#m4bb59b236a" y="52.236335"/>
     <use style="fill:#1f77b4;stroke:#ffffff;stroke-width:0.75;" x="236.159895" xlink:href="#m4bb59b236a" y="51.906294"/>
     <use style="fill:#1f77b4;stroke:#ffffff;stroke-width:0.75;" x="242.994728" xlink:href="#m4bb59b236a" y="51.906294"/>
     <use style="fill:#1f77b4;stroke:#ffffff;stroke-width:0.75;" x="249.82956" xlink:href="#m4bb59b236a" y="51.576253"/>
     <use style="fill:#1f77b4;stroke:#ffffff;stroke-width:0.75;" x="256.664393" xlink:href="#m4bb59b236a" y="50.091069"/>
     <use style="fill:#1f77b4;stroke:#ffffff;stroke-width:0.75;" x="263.499225" xlink:href="#m4bb59b236a" y="49.926049"/>
     <use style="fill:#1f77b4;stroke:#ffffff;stroke-width:0.75;" x="270.334058" xlink:href="#m4bb59b236a" y="49.926049"/>
     <use style="fill:#1f77b4;stroke:#ffffff;stroke-width:0.75;" x="277.168891" xlink:href="#m4bb59b236a" y="49.926049"/>
     <use style="fill:#1f77b4;stroke:#ffffff;stroke-width:0.75;" x="284.003723" xlink:href="#m4bb59b236a" y="49.926049"/>
     <use style="fill:#1f77b4;stroke:#ffffff;stroke-width:0.75;" x="290.838556" xlink:href="#m4bb59b236a" y="49.926049"/>
     <use style="fill:#1f77b4;stroke:#ffffff;stroke-width:0.75;" x="297.673388" xlink:href="#m4bb59b236a" y="49.596008"/>
     <use style="fill:#1f77b4;stroke:#ffffff;stroke-width:0.75;" x="304.508221" xlink:href="#m4bb59b236a" y="49.596008"/>
     <use style="fill:#1f77b4;stroke:#ffffff;stroke-width:0.75;" x="311.343053" xlink:href="#m4bb59b236a" y="49.596008"/>
     <use style="fill:#1f77b4;stroke:#ffffff;stroke-width:0.75;" x="318.177886" xlink:href="#m4bb59b236a" y="49.430987"/>
     <use style="fill:#1f77b4;stroke:#ffffff;stroke-width:0.75;" x="325.012718" xlink:href="#m4bb59b236a" y="49.430987"/>
     <use style="fill:#1f77b4;stroke:#ffffff;stroke-width:0.75;" x="331.847551" xlink:href="#m4bb59b236a" y="49.430987"/>
     <use style="fill:#1f77b4;stroke:#ffffff;stroke-width:0.75;" x="338.682383" xlink:href="#m4bb59b236a" y="48.935926"/>
     <use style="fill:#1f77b4;stroke:#ffffff;stroke-width:0.75;" x="345.517216" xlink:href="#m4bb59b236a" y="48.935926"/>
     <use style="fill:#1f77b4;stroke:#ffffff;stroke-width:0.75;" x="352.352048" xlink:href="#m4bb59b236a" y="48.935926"/>
     <use style="fill:#1f77b4;stroke:#ffffff;stroke-width:0.75;" x="359.186881" xlink:href="#m4bb59b236a" y="43.655271"/>
     <use style="fill:#1f77b4;stroke:#ffffff;stroke-width:0.75;" x="366.021714" xlink:href="#m4bb59b236a" y="43.655271"/>
     <use style="fill:#1f77b4;stroke:#ffffff;stroke-width:0.75;" x="372.856546" xlink:href="#m4bb59b236a" y="43.655271"/>
     <use style="fill:#1f77b4;stroke:#ffffff;stroke-width:0.75;" x="379.691379" xlink:href="#m4bb59b236a" y="43.655271"/>
     <use style="fill:#1f77b4;stroke:#ffffff;stroke-width:0.75;" x="386.526211" xlink:href="#m4bb59b236a" y="43.655271"/>
     <use style="fill:#1f77b4;stroke:#ffffff;stroke-width:0.75;" x="393.361044" xlink:href="#m4bb59b236a" y="43.655271"/>
     <use style="fill:#1f77b4;stroke:#ffffff;stroke-width:0.75;" x="400.195876" xlink:href="#m4bb59b236a" y="43.655271"/>
     <use style="fill:#1f77b4;stroke:#ffffff;stroke-width:0.75;" x="407.030709" xlink:href="#m4bb59b236a" y="43.655271"/>
     <use style="fill:#1f77b4;stroke:#ffffff;stroke-width:0.75;" x="413.865541" xlink:href="#m4bb59b236a" y="43.655271"/>
     <use style="fill:#1f77b4;stroke:#ffffff;stroke-width:0.75;" x="420.700374" xlink:href="#m4bb59b236a" y="43.655271"/>
     <use style="fill:#1f77b4;stroke:#ffffff;stroke-width:0.75;" x="427.535206" xlink:href="#m4bb59b236a" y="43.655271"/>
     <use style="fill:#1f77b4;stroke:#ffffff;stroke-width:0.75;" x="434.370039" xlink:href="#m4bb59b236a" y="43.655271"/>
     <use style="fill:#1f77b4;stroke:#ffffff;stroke-width:0.75;" x="441.204871" xlink:href="#m4bb59b236a" y="43.655271"/>
     <use style="fill:#1f77b4;stroke:#ffffff;stroke-width:0.75;" x="448.039704" xlink:href="#m4bb59b236a" y="43.655271"/>
     <use style="fill:#1f77b4;stroke:#ffffff;stroke-width:0.75;" x="454.874536" xlink:href="#m4bb59b236a" y="43.655271"/>
     <use style="fill:#1f77b4;stroke:#ffffff;stroke-width:0.75;" x="461.709369" xlink:href="#m4bb59b236a" y="43.655271"/>
     <use style="fill:#1f77b4;stroke:#ffffff;stroke-width:0.75;" x="468.544202" xlink:href="#m4bb59b236a" y="43.655271"/>
     <use style="fill:#1f77b4;stroke:#ffffff;stroke-width:0.75;" x="475.379034" xlink:href="#m4bb59b236a" y="43.655271"/>
     <use style="fill:#1f77b4;stroke:#ffffff;stroke-width:0.75;" x="482.213867" xlink:href="#m4bb59b236a" y="43.655271"/>
     <use style="fill:#1f77b4;stroke:#ffffff;stroke-width:0.75;" x="489.048699" xlink:href="#m4bb59b236a" y="43.490251"/>
     <use style="fill:#1f77b4;stroke:#ffffff;stroke-width:0.75;" x="495.883532" xlink:href="#m4bb59b236a" y="43.490251"/>
     <use style="fill:#1f77b4;stroke:#ffffff;stroke-width:0.75;" x="502.718364" xlink:href="#m4bb59b236a" y="43.490251"/>
     <use style="fill:#1f77b4;stroke:#ffffff;stroke-width:0.75;" x="509.553197" xlink:href="#m4bb59b236a" y="43.490251"/>
     <use style="fill:#1f77b4;stroke:#ffffff;stroke-width:0.75;" x="516.388029" xlink:href="#m4bb59b236a" y="43.16021"/>
     <use style="fill:#1f77b4;stroke:#ffffff;stroke-width:0.75;" x="523.222862" xlink:href="#m4bb59b236a" y="43.16021"/>
     <use style="fill:#1f77b4;stroke:#ffffff;stroke-width:0.75;" x="530.057694" xlink:href="#m4bb59b236a" y="43.16021"/>
     <use style="fill:#1f77b4;stroke:#ffffff;stroke-width:0.75;" x="536.892527" xlink:href="#m4bb59b236a" y="43.16021"/>
     <use style="fill:#1f77b4;stroke:#ffffff;stroke-width:0.75;" x="543.727359" xlink:href="#m4bb59b236a" y="43.16021"/>
     <use style="fill:#1f77b4;stroke:#ffffff;stroke-width:0.75;" x="550.562192" xlink:href="#m4bb59b236a" y="42.995189"/>
     <use style="fill:#1f77b4;stroke:#ffffff;stroke-width:0.75;" x="557.397025" xlink:href="#m4bb59b236a" y="42.995189"/>
     <use style="fill:#1f77b4;stroke:#ffffff;stroke-width:0.75;" x="564.231857" xlink:href="#m4bb59b236a" y="42.995189"/>
     <use style="fill:#1f77b4;stroke:#ffffff;stroke-width:0.75;" x="571.06669" xlink:href="#m4bb59b236a" y="42.995189"/>
     <use style="fill:#1f77b4;stroke:#ffffff;stroke-width:0.75;" x="577.901522" xlink:href="#m4bb59b236a" y="42.995189"/>
     <use style="fill:#1f77b4;stroke:#ffffff;stroke-width:0.75;" x="584.736355" xlink:href="#m4bb59b236a" y="42.995189"/>
     <use style="fill:#1f77b4;stroke:#ffffff;stroke-width:0.75;" x="591.571187" xlink:href="#m4bb59b236a" y="42.995189"/>
     <use style="fill:#1f77b4;stroke:#ffffff;stroke-width:0.75;" x="598.40602" xlink:href="#m4bb59b236a" y="42.830169"/>
     <use style="fill:#1f77b4;stroke:#ffffff;stroke-width:0.75;" x="605.240852" xlink:href="#m4bb59b236a" y="42.830169"/>
     <use style="fill:#1f77b4;stroke:#ffffff;stroke-width:0.75;" x="612.075685" xlink:href="#m4bb59b236a" y="42.830169"/>
     <use style="fill:#1f77b4;stroke:#ffffff;stroke-width:0.75;" x="618.910517" xlink:href="#m4bb59b236a" y="42.830169"/>
     <use style="fill:#1f77b4;stroke:#ffffff;stroke-width:0.75;" x="625.74535" xlink:href="#m4bb59b236a" y="42.830169"/>
     <use style="fill:#1f77b4;stroke:#ffffff;stroke-width:0.75;" x="632.580182" xlink:href="#m4bb59b236a" y="42.830169"/>
     <use style="fill:#1f77b4;stroke:#ffffff;stroke-width:0.75;" x="639.415015" xlink:href="#m4bb59b236a" y="42.500128"/>
     <use style="fill:#1f77b4;stroke:#ffffff;stroke-width:0.75;" x="646.249847" xlink:href="#m4bb59b236a" y="42.500128"/>
     <use style="fill:#1f77b4;stroke:#ffffff;stroke-width:0.75;" x="653.08468" xlink:href="#m4bb59b236a" y="42.170087"/>
     <use style="fill:#1f77b4;stroke:#ffffff;stroke-width:0.75;" x="659.919513" xlink:href="#m4bb59b236a" y="42.170087"/>
     <use style="fill:#1f77b4;stroke:#ffffff;stroke-width:0.75;" x="666.754345" xlink:href="#m4bb59b236a" y="42.170087"/>
     <use style="fill:#1f77b4;stroke:#ffffff;stroke-width:0.75;" x="673.589178" xlink:href="#m4bb59b236a" y="42.170087"/>
     <use style="fill:#1f77b4;stroke:#ffffff;stroke-width:0.75;" x="680.42401" xlink:href="#m4bb59b236a" y="42.170087"/>
     <use style="fill:#1f77b4;stroke:#ffffff;stroke-width:0.75;" x="687.258843" xlink:href="#m4bb59b236a" y="42.005066"/>
     <use style="fill:#1f77b4;stroke:#ffffff;stroke-width:0.75;" x="694.093675" xlink:href="#m4bb59b236a" y="42.005066"/>
     <use style="fill:#1f77b4;stroke:#ffffff;stroke-width:0.75;" x="700.928508" xlink:href="#m4bb59b236a" y="42.005066"/>
     <use style="fill:#1f77b4;stroke:#ffffff;stroke-width:0.75;" x="707.76334" xlink:href="#m4bb59b236a" y="42.005066"/>
     <use style="fill:#1f77b4;stroke:#ffffff;stroke-width:0.75;" x="714.598173" xlink:href="#m4bb59b236a" y="42.005066"/>
     <use style="fill:#1f77b4;stroke:#ffffff;stroke-width:0.75;" x="721.433005" xlink:href="#m4bb59b236a" y="42.005066"/>
     <use style="fill:#1f77b4;stroke:#ffffff;stroke-width:0.75;" x="728.267838" xlink:href="#m4bb59b236a" y="42.005066"/>
     <use style="fill:#1f77b4;stroke:#ffffff;stroke-width:0.75;" x="735.10267" xlink:href="#m4bb59b236a" y="42.005066"/>
    </g>
   </g>
   <g id="line2d_22">
    <path clip-path="url(#pf22233bfff)" d="M 85.79358 233.593825 
L 92.628412 212.141165 
L 99.463245 210.821001 
L 106.298077 207.355571 
L 113.13291 203.725121 
L 119.967742 203.39508 
L 126.802575 201.579855 
L 133.637407 197.124302 
L 140.47224 196.959282 
L 147.307072 196.959282 
L 154.141905 196.959282 
L 160.976737 196.629241 
L 167.81157 191.513607 
L 174.646403 191.348586 
L 181.481235 191.018545 
L 188.316068 191.018545 
L 195.1509 190.523484 
L 201.985733 190.193443 
L 208.820565 190.193443 
L 215.655398 189.863402 
L 222.49023 189.863402 
L 229.325063 189.863402 
L 236.159895 189.533361 
L 242.994728 189.533361 
L 249.82956 189.533361 
L 256.664393 189.533361 
L 263.499225 189.533361 
L 270.334058 189.533361 
L 277.168891 189.368341 
L 284.003723 182.767522 
L 290.838556 180.952297 
L 297.673388 180.787276 
L 304.508221 180.622256 
L 311.343053 180.292215 
L 318.177886 180.292215 
L 325.012718 180.292215 
L 331.847551 180.292215 
L 338.682383 180.292215 
L 345.517216 180.292215 
L 352.352048 180.292215 
L 359.186881 180.292215 
L 366.021714 176.166703 
L 372.856546 176.166703 
L 379.691379 175.506622 
L 386.526211 175.506622 
L 393.361044 175.506622 
L 400.195876 175.506622 
L 407.030709 175.506622 
L 413.865541 175.506622 
L 420.700374 175.506622 
L 427.535206 175.506622 
L 434.370039 175.506622 
L 441.204871 175.506622 
L 448.039704 175.506622 
L 454.874536 175.506622 
L 461.709369 175.506622 
L 468.544202 175.506622 
L 475.379034 175.341601 
L 482.213867 175.341601 
L 489.048699 175.176581 
L 495.883532 174.681519 
L 502.718364 174.681519 
L 509.553197 174.021437 
L 516.388029 173.196335 
L 523.222862 173.196335 
L 530.057694 173.031315 
L 536.892527 172.701274 
L 543.727359 172.701274 
L 550.562192 172.701274 
L 557.397025 172.701274 
L 564.231857 172.701274 
L 571.06669 172.371233 
L 577.901522 172.371233 
L 584.736355 172.371233 
L 591.571187 171.54613 
L 598.40602 171.54613 
L 605.240852 143.822693 
L 612.075685 140.192242 
L 618.910517 138.542038 
L 625.74535 137.551915 
L 632.580182 137.221874 
L 639.415015 137.056854 
L 646.249847 136.561792 
L 653.08468 136.396772 
L 659.919513 136.396772 
L 666.754345 136.231751 
L 673.589178 136.231751 
L 680.42401 135.90171 
L 687.258843 135.90171 
L 694.093675 135.90171 
L 700.928508 135.90171 
L 707.76334 135.73669 
L 714.598173 135.571669 
L 721.433005 134.416526 
L 728.267838 134.416526 
L 735.10267 134.416526 
" style="fill:none;stroke:#98df8a;stroke-linecap:square;stroke-width:1.5;"/>
    <defs>
     <path d="M -0 3 
L 3 -3 
L -3 -3 
z
" id="ma2dac9bd37" style="stroke:#ffffff;stroke-linejoin:miter;stroke-width:0.75;"/>
    </defs>
    <g clip-path="url(#pf22233bfff)">
     <use style="fill:#98df8a;stroke:#ffffff;stroke-linejoin:miter;stroke-width:0.75;" x="85.79358" xlink:href="#ma2dac9bd37" y="233.593825"/>
     <use style="fill:#98df8a;stroke:#ffffff;stroke-linejoin:miter;stroke-width:0.75;" x="92.628412" xlink:href="#ma2dac9bd37" y="212.141165"/>
     <use style="fill:#98df8a;stroke:#ffffff;stroke-linejoin:miter;stroke-width:0.75;" x="99.463245" xlink:href="#ma2dac9bd37" y="210.821001"/>
     <use style="fill:#98df8a;stroke:#ffffff;stroke-linejoin:miter;stroke-width:0.75;" x="106.298077" xlink:href="#ma2dac9bd37" y="207.355571"/>
     <use style="fill:#98df8a;stroke:#ffffff;stroke-linejoin:miter;stroke-width:0.75;" x="113.13291" xlink:href="#ma2dac9bd37" y="203.725121"/>
     <use style="fill:#98df8a;stroke:#ffffff;stroke-linejoin:miter;stroke-width:0.75;" x="119.967742" xlink:href="#ma2dac9bd37" y="203.39508"/>
     <use style="fill:#98df8a;stroke:#ffffff;stroke-linejoin:miter;stroke-width:0.75;" x="126.802575" xlink:href="#ma2dac9bd37" y="201.579855"/>
     <use style="fill:#98df8a;stroke:#ffffff;stroke-linejoin:miter;stroke-width:0.75;" x="133.637407" xlink:href="#ma2dac9bd37" y="197.124302"/>
     <use style="fill:#98df8a;stroke:#ffffff;stroke-linejoin:miter;stroke-width:0.75;" x="140.47224" xlink:href="#ma2dac9bd37" y="196.959282"/>
     <use style="fill:#98df8a;stroke:#ffffff;stroke-linejoin:miter;stroke-width:0.75;" x="147.307072" xlink:href="#ma2dac9bd37" y="196.959282"/>
     <use style="fill:#98df8a;stroke:#ffffff;stroke-linejoin:miter;stroke-width:0.75;" x="154.141905" xlink:href="#ma2dac9bd37" y="196.959282"/>
     <use style="fill:#98df8a;stroke:#ffffff;stroke-linejoin:miter;stroke-width:0.75;" x="160.976737" xlink:href="#ma2dac9bd37" y="196.629241"/>
     <use style="fill:#98df8a;stroke:#ffffff;stroke-linejoin:miter;stroke-width:0.75;" x="167.81157" xlink:href="#ma2dac9bd37" y="191.513607"/>
     <use style="fill:#98df8a;stroke:#ffffff;stroke-linejoin:miter;stroke-width:0.75;" x="174.646403" xlink:href="#ma2dac9bd37" y="191.348586"/>
     <use style="fill:#98df8a;stroke:#ffffff;stroke-linejoin:miter;stroke-width:0.75;" x="181.481235" xlink:href="#ma2dac9bd37" y="191.018545"/>
     <use style="fill:#98df8a;stroke:#ffffff;stroke-linejoin:miter;stroke-width:0.75;" x="188.316068" xlink:href="#ma2dac9bd37" y="191.018545"/>
     <use style="fill:#98df8a;stroke:#ffffff;stroke-linejoin:miter;stroke-width:0.75;" x="195.1509" xlink:href="#ma2dac9bd37" y="190.523484"/>
     <use style="fill:#98df8a;stroke:#ffffff;stroke-linejoin:miter;stroke-width:0.75;" x="201.985733" xlink:href="#ma2dac9bd37" y="190.193443"/>
     <use style="fill:#98df8a;stroke:#ffffff;stroke-linejoin:miter;stroke-width:0.75;" x="208.820565" xlink:href="#ma2dac9bd37" y="190.193443"/>
     <use style="fill:#98df8a;stroke:#ffffff;stroke-linejoin:miter;stroke-width:0.75;" x="215.655398" xlink:href="#ma2dac9bd37" y="189.863402"/>
     <use style="fill:#98df8a;stroke:#ffffff;stroke-linejoin:miter;stroke-width:0.75;" x="222.49023" xlink:href="#ma2dac9bd37" y="189.863402"/>
     <use style="fill:#98df8a;stroke:#ffffff;stroke-linejoin:miter;stroke-width:0.75;" x="229.325063" xlink:href="#ma2dac9bd37" y="189.863402"/>
     <use style="fill:#98df8a;stroke:#ffffff;stroke-linejoin:miter;stroke-width:0.75;" x="236.159895" xlink:href="#ma2dac9bd37" y="189.533361"/>
     <use style="fill:#98df8a;stroke:#ffffff;stroke-linejoin:miter;stroke-width:0.75;" x="242.994728" xlink:href="#ma2dac9bd37" y="189.533361"/>
     <use style="fill:#98df8a;stroke:#ffffff;stroke-linejoin:miter;stroke-width:0.75;" x="249.82956" xlink:href="#ma2dac9bd37" y="189.533361"/>
     <use style="fill:#98df8a;stroke:#ffffff;stroke-linejoin:miter;stroke-width:0.75;" x="256.664393" xlink:href="#ma2dac9bd37" y="189.533361"/>
     <use style="fill:#98df8a;stroke:#ffffff;stroke-linejoin:miter;stroke-width:0.75;" x="263.499225" xlink:href="#ma2dac9bd37" y="189.533361"/>
     <use style="fill:#98df8a;stroke:#ffffff;stroke-linejoin:miter;stroke-width:0.75;" x="270.334058" xlink:href="#ma2dac9bd37" y="189.533361"/>
     <use style="fill:#98df8a;stroke:#ffffff;stroke-linejoin:miter;stroke-width:0.75;" x="277.168891" xlink:href="#ma2dac9bd37" y="189.368341"/>
     <use style="fill:#98df8a;stroke:#ffffff;stroke-linejoin:miter;stroke-width:0.75;" x="284.003723" xlink:href="#ma2dac9bd37" y="182.767522"/>
     <use style="fill:#98df8a;stroke:#ffffff;stroke-linejoin:miter;stroke-width:0.75;" x="290.838556" xlink:href="#ma2dac9bd37" y="180.952297"/>
     <use style="fill:#98df8a;stroke:#ffffff;stroke-linejoin:miter;stroke-width:0.75;" x="297.673388" xlink:href="#ma2dac9bd37" y="180.787276"/>
     <use style="fill:#98df8a;stroke:#ffffff;stroke-linejoin:miter;stroke-width:0.75;" x="304.508221" xlink:href="#ma2dac9bd37" y="180.622256"/>
     <use style="fill:#98df8a;stroke:#ffffff;stroke-linejoin:miter;stroke-width:0.75;" x="311.343053" xlink:href="#ma2dac9bd37" y="180.292215"/>
     <use style="fill:#98df8a;stroke:#ffffff;stroke-linejoin:miter;stroke-width:0.75;" x="318.177886" xlink:href="#ma2dac9bd37" y="180.292215"/>
     <use style="fill:#98df8a;stroke:#ffffff;stroke-linejoin:miter;stroke-width:0.75;" x="325.012718" xlink:href="#ma2dac9bd37" y="180.292215"/>
     <use style="fill:#98df8a;stroke:#ffffff;stroke-linejoin:miter;stroke-width:0.75;" x="331.847551" xlink:href="#ma2dac9bd37" y="180.292215"/>
     <use style="fill:#98df8a;stroke:#ffffff;stroke-linejoin:miter;stroke-width:0.75;" x="338.682383" xlink:href="#ma2dac9bd37" y="180.292215"/>
     <use style="fill:#98df8a;stroke:#ffffff;stroke-linejoin:miter;stroke-width:0.75;" x="345.517216" xlink:href="#ma2dac9bd37" y="180.292215"/>
     <use style="fill:#98df8a;stroke:#ffffff;stroke-linejoin:miter;stroke-width:0.75;" x="352.352048" xlink:href="#ma2dac9bd37" y="180.292215"/>
     <use style="fill:#98df8a;stroke:#ffffff;stroke-linejoin:miter;stroke-width:0.75;" x="359.186881" xlink:href="#ma2dac9bd37" y="180.292215"/>
     <use style="fill:#98df8a;stroke:#ffffff;stroke-linejoin:miter;stroke-width:0.75;" x="366.021714" xlink:href="#ma2dac9bd37" y="176.166703"/>
     <use style="fill:#98df8a;stroke:#ffffff;stroke-linejoin:miter;stroke-width:0.75;" x="372.856546" xlink:href="#ma2dac9bd37" y="176.166703"/>
     <use style="fill:#98df8a;stroke:#ffffff;stroke-linejoin:miter;stroke-width:0.75;" x="379.691379" xlink:href="#ma2dac9bd37" y="175.506622"/>
     <use style="fill:#98df8a;stroke:#ffffff;stroke-linejoin:miter;stroke-width:0.75;" x="386.526211" xlink:href="#ma2dac9bd37" y="175.506622"/>
     <use style="fill:#98df8a;stroke:#ffffff;stroke-linejoin:miter;stroke-width:0.75;" x="393.361044" xlink:href="#ma2dac9bd37" y="175.506622"/>
     <use style="fill:#98df8a;stroke:#ffffff;stroke-linejoin:miter;stroke-width:0.75;" x="400.195876" xlink:href="#ma2dac9bd37" y="175.506622"/>
     <use style="fill:#98df8a;stroke:#ffffff;stroke-linejoin:miter;stroke-width:0.75;" x="407.030709" xlink:href="#ma2dac9bd37" y="175.506622"/>
     <use style="fill:#98df8a;stroke:#ffffff;stroke-linejoin:miter;stroke-width:0.75;" x="413.865541" xlink:href="#ma2dac9bd37" y="175.506622"/>
     <use style="fill:#98df8a;stroke:#ffffff;stroke-linejoin:miter;stroke-width:0.75;" x="420.700374" xlink:href="#ma2dac9bd37" y="175.506622"/>
     <use style="fill:#98df8a;stroke:#ffffff;stroke-linejoin:miter;stroke-width:0.75;" x="427.535206" xlink:href="#ma2dac9bd37" y="175.506622"/>
     <use style="fill:#98df8a;stroke:#ffffff;stroke-linejoin:miter;stroke-width:0.75;" x="434.370039" xlink:href="#ma2dac9bd37" y="175.506622"/>
     <use style="fill:#98df8a;stroke:#ffffff;stroke-linejoin:miter;stroke-width:0.75;" x="441.204871" xlink:href="#ma2dac9bd37" y="175.506622"/>
     <use style="fill:#98df8a;stroke:#ffffff;stroke-linejoin:miter;stroke-width:0.75;" x="448.039704" xlink:href="#ma2dac9bd37" y="175.506622"/>
     <use style="fill:#98df8a;stroke:#ffffff;stroke-linejoin:miter;stroke-width:0.75;" x="454.874536" xlink:href="#ma2dac9bd37" y="175.506622"/>
     <use style="fill:#98df8a;stroke:#ffffff;stroke-linejoin:miter;stroke-width:0.75;" x="461.709369" xlink:href="#ma2dac9bd37" y="175.506622"/>
     <use style="fill:#98df8a;stroke:#ffffff;stroke-linejoin:miter;stroke-width:0.75;" x="468.544202" xlink:href="#ma2dac9bd37" y="175.506622"/>
     <use style="fill:#98df8a;stroke:#ffffff;stroke-linejoin:miter;stroke-width:0.75;" x="475.379034" xlink:href="#ma2dac9bd37" y="175.341601"/>
     <use style="fill:#98df8a;stroke:#ffffff;stroke-linejoin:miter;stroke-width:0.75;" x="482.213867" xlink:href="#ma2dac9bd37" y="175.341601"/>
     <use style="fill:#98df8a;stroke:#ffffff;stroke-linejoin:miter;stroke-width:0.75;" x="489.048699" xlink:href="#ma2dac9bd37" y="175.176581"/>
     <use style="fill:#98df8a;stroke:#ffffff;stroke-linejoin:miter;stroke-width:0.75;" x="495.883532" xlink:href="#ma2dac9bd37" y="174.681519"/>
     <use style="fill:#98df8a;stroke:#ffffff;stroke-linejoin:miter;stroke-width:0.75;" x="502.718364" xlink:href="#ma2dac9bd37" y="174.681519"/>
     <use style="fill:#98df8a;stroke:#ffffff;stroke-linejoin:miter;stroke-width:0.75;" x="509.553197" xlink:href="#ma2dac9bd37" y="174.021437"/>
     <use style="fill:#98df8a;stroke:#ffffff;stroke-linejoin:miter;stroke-width:0.75;" x="516.388029" xlink:href="#ma2dac9bd37" y="173.196335"/>
     <use style="fill:#98df8a;stroke:#ffffff;stroke-linejoin:miter;stroke-width:0.75;" x="523.222862" xlink:href="#ma2dac9bd37" y="173.196335"/>
     <use style="fill:#98df8a;stroke:#ffffff;stroke-linejoin:miter;stroke-width:0.75;" x="530.057694" xlink:href="#ma2dac9bd37" y="173.031315"/>
     <use style="fill:#98df8a;stroke:#ffffff;stroke-linejoin:miter;stroke-width:0.75;" x="536.892527" xlink:href="#ma2dac9bd37" y="172.701274"/>
     <use style="fill:#98df8a;stroke:#ffffff;stroke-linejoin:miter;stroke-width:0.75;" x="543.727359" xlink:href="#ma2dac9bd37" y="172.701274"/>
     <use style="fill:#98df8a;stroke:#ffffff;stroke-linejoin:miter;stroke-width:0.75;" x="550.562192" xlink:href="#ma2dac9bd37" y="172.701274"/>
     <use style="fill:#98df8a;stroke:#ffffff;stroke-linejoin:miter;stroke-width:0.75;" x="557.397025" xlink:href="#ma2dac9bd37" y="172.701274"/>
     <use style="fill:#98df8a;stroke:#ffffff;stroke-linejoin:miter;stroke-width:0.75;" x="564.231857" xlink:href="#ma2dac9bd37" y="172.701274"/>
     <use style="fill:#98df8a;stroke:#ffffff;stroke-linejoin:miter;stroke-width:0.75;" x="571.06669" xlink:href="#ma2dac9bd37" y="172.371233"/>
     <use style="fill:#98df8a;stroke:#ffffff;stroke-linejoin:miter;stroke-width:0.75;" x="577.901522" xlink:href="#ma2dac9bd37" y="172.371233"/>
     <use style="fill:#98df8a;stroke:#ffffff;stroke-linejoin:miter;stroke-width:0.75;" x="584.736355" xlink:href="#ma2dac9bd37" y="172.371233"/>
     <use style="fill:#98df8a;stroke:#ffffff;stroke-linejoin:miter;stroke-width:0.75;" x="591.571187" xlink:href="#ma2dac9bd37" y="171.54613"/>
     <use style="fill:#98df8a;stroke:#ffffff;stroke-linejoin:miter;stroke-width:0.75;" x="598.40602" xlink:href="#ma2dac9bd37" y="171.54613"/>
     <use style="fill:#98df8a;stroke:#ffffff;stroke-linejoin:miter;stroke-width:0.75;" x="605.240852" xlink:href="#ma2dac9bd37" y="143.822693"/>
     <use style="fill:#98df8a;stroke:#ffffff;stroke-linejoin:miter;stroke-width:0.75;" x="612.075685" xlink:href="#ma2dac9bd37" y="140.192242"/>
     <use style="fill:#98df8a;stroke:#ffffff;stroke-linejoin:miter;stroke-width:0.75;" x="618.910517" xlink:href="#ma2dac9bd37" y="138.542038"/>
     <use style="fill:#98df8a;stroke:#ffffff;stroke-linejoin:miter;stroke-width:0.75;" x="625.74535" xlink:href="#ma2dac9bd37" y="137.551915"/>
     <use style="fill:#98df8a;stroke:#ffffff;stroke-linejoin:miter;stroke-width:0.75;" x="632.580182" xlink:href="#ma2dac9bd37" y="137.221874"/>
     <use style="fill:#98df8a;stroke:#ffffff;stroke-linejoin:miter;stroke-width:0.75;" x="639.415015" xlink:href="#ma2dac9bd37" y="137.056854"/>
     <use style="fill:#98df8a;stroke:#ffffff;stroke-linejoin:miter;stroke-width:0.75;" x="646.249847" xlink:href="#ma2dac9bd37" y="136.561792"/>
     <use style="fill:#98df8a;stroke:#ffffff;stroke-linejoin:miter;stroke-width:0.75;" x="653.08468" xlink:href="#ma2dac9bd37" y="136.396772"/>
     <use style="fill:#98df8a;stroke:#ffffff;stroke-linejoin:miter;stroke-width:0.75;" x="659.919513" xlink:href="#ma2dac9bd37" y="136.396772"/>
     <use style="fill:#98df8a;stroke:#ffffff;stroke-linejoin:miter;stroke-width:0.75;" x="666.754345" xlink:href="#ma2dac9bd37" y="136.231751"/>
     <use style="fill:#98df8a;stroke:#ffffff;stroke-linejoin:miter;stroke-width:0.75;" x="673.589178" xlink:href="#ma2dac9bd37" y="136.231751"/>
     <use style="fill:#98df8a;stroke:#ffffff;stroke-linejoin:miter;stroke-width:0.75;" x="680.42401" xlink:href="#ma2dac9bd37" y="135.90171"/>
     <use style="fill:#98df8a;stroke:#ffffff;stroke-linejoin:miter;stroke-width:0.75;" x="687.258843" xlink:href="#ma2dac9bd37" y="135.90171"/>
     <use style="fill:#98df8a;stroke:#ffffff;stroke-linejoin:miter;stroke-width:0.75;" x="694.093675" xlink:href="#ma2dac9bd37" y="135.90171"/>
     <use style="fill:#98df8a;stroke:#ffffff;stroke-linejoin:miter;stroke-width:0.75;" x="700.928508" xlink:href="#ma2dac9bd37" y="135.90171"/>
     <use style="fill:#98df8a;stroke:#ffffff;stroke-linejoin:miter;stroke-width:0.75;" x="707.76334" xlink:href="#ma2dac9bd37" y="135.73669"/>
     <use style="fill:#98df8a;stroke:#ffffff;stroke-linejoin:miter;stroke-width:0.75;" x="714.598173" xlink:href="#ma2dac9bd37" y="135.571669"/>
     <use style="fill:#98df8a;stroke:#ffffff;stroke-linejoin:miter;stroke-width:0.75;" x="721.433005" xlink:href="#ma2dac9bd37" y="134.416526"/>
     <use style="fill:#98df8a;stroke:#ffffff;stroke-linejoin:miter;stroke-width:0.75;" x="728.267838" xlink:href="#ma2dac9bd37" y="134.416526"/>
     <use style="fill:#98df8a;stroke:#ffffff;stroke-linejoin:miter;stroke-width:0.75;" x="735.10267" xlink:href="#ma2dac9bd37" y="134.416526"/>
    </g>
   </g>
   <g id="line2d_23"/>
   <g id="line2d_24"/>
   <g id="line2d_25">
    <path clip-path="url(#pf22233bfff)" d="M 735.10267 288.430125 
L 735.10267 22.318125 
" style="fill:none;stroke:#ff0000;stroke-linecap:square;stroke-width:1.5;"/>
   </g>
   <g id="patch_3">
    <path d="M 53.328125 285.905312 
L 53.328125 54.876663 
" style="fill:none;stroke:#000000;stroke-linecap:square;stroke-linejoin:miter;stroke-width:0.8;"/>
   </g>
   <g id="patch_4">
    <path d="M 85.79358 288.430125 
L 687.258843 288.430125 
" style="fill:none;stroke:#000000;stroke-linecap:square;stroke-linejoin:miter;stroke-width:0.8;"/>
   </g>
   <g id="text_23">
    <!-- libjpeg-turbo-07-2017 (24h, 10 trials/fuzzer) -->
    <g transform="translate(277.985938 16.318125)scale(0.12 -0.12)">
     <defs>
      <path d="M 603 4863 
L 1178 4863 
L 1178 0 
L 603 0 
L 603 4863 
z
" id="DejaVuSans-6c" transform="scale(0.015625)"/>
      <path d="M 603 3500 
L 1178 3500 
L 1178 -63 
Q 1178 -731 923 -1031 
Q 669 -1331 103 -1331 
L -116 -1331 
L -116 -844 
L 38 -844 
Q 366 -844 484 -692 
Q 603 -541 603 -63 
L 603 3500 
z
M 603 4863 
L 1178 4863 
L 1178 4134 
L 603 4134 
L 603 4863 
z
" id="DejaVuSans-6a" transform="scale(0.015625)"/>
      <path d="M 1159 525 
L 1159 -1331 
L 581 -1331 
L 581 3500 
L 1159 3500 
L 1159 2969 
Q 1341 3281 1617 3432 
Q 1894 3584 2278 3584 
Q 2916 3584 3314 3078 
Q 3713 2572 3713 1747 
Q 3713 922 3314 415 
Q 2916 -91 2278 -91 
Q 1894 -91 1617 61 
Q 1341 213 1159 525 
z
M 3116 1747 
Q 3116 2381 2855 2742 
Q 2594 3103 2138 3103 
Q 1681 3103 1420 2742 
Q 1159 2381 1159 1747 
Q 1159 1113 1420 752 
Q 1681 391 2138 391 
Q 2594 391 2855 752 
Q 3116 1113 3116 1747 
z
" id="DejaVuSans-70" transform="scale(0.015625)"/>
      <path d="M 313 2009 
L 1997 2009 
L 1997 1497 
L 313 1497 
L 313 2009 
z
" id="DejaVuSans-2d" transform="scale(0.015625)"/>
      <path d="M 750 794 
L 1409 794 
L 1409 256 
L 897 -744 
L 494 -744 
L 750 256 
L 750 794 
z
" id="DejaVuSans-2c" transform="scale(0.015625)"/>
      <path d="M 2834 3397 
L 2834 2853 
Q 2591 2978 2328 3040 
Q 2066 3103 1784 3103 
Q 1356 3103 1142 2972 
Q 928 2841 928 2578 
Q 928 2378 1081 2264 
Q 1234 2150 1697 2047 
L 1894 2003 
Q 2506 1872 2764 1633 
Q 3022 1394 3022 966 
Q 3022 478 2636 193 
Q 2250 -91 1575 -91 
Q 1294 -91 989 -36 
Q 684 19 347 128 
L 347 722 
Q 666 556 975 473 
Q 1284 391 1588 391 
Q 1994 391 2212 530 
Q 2431 669 2431 922 
Q 2431 1156 2273 1281 
Q 2116 1406 1581 1522 
L 1381 1569 
Q 847 1681 609 1914 
Q 372 2147 372 2553 
Q 372 3047 722 3315 
Q 1072 3584 1716 3584 
Q 2034 3584 2315 3537 
Q 2597 3491 2834 3397 
z
" id="DejaVuSans-73" transform="scale(0.015625)"/>
      <path d="M 1625 4666 
L 2156 4666 
L 531 -594 
L 0 -594 
L 1625 4666 
z
" id="DejaVuSans-2f" transform="scale(0.015625)"/>
      <path d="M 2375 4863 
L 2375 4384 
L 1825 4384 
Q 1516 4384 1395 4259 
Q 1275 4134 1275 3809 
L 1275 3500 
L 2222 3500 
L 2222 3053 
L 1275 3053 
L 1275 0 
L 697 0 
L 697 3053 
L 147 3053 
L 147 3500 
L 697 3500 
L 697 3744 
Q 697 4328 969 4595 
Q 1241 4863 1831 4863 
L 2375 4863 
z
" id="DejaVuSans-66" transform="scale(0.015625)"/>
      <path d="M 353 3500 
L 3084 3500 
L 3084 2975 
L 922 459 
L 3084 459 
L 3084 0 
L 275 0 
L 275 525 
L 2438 3041 
L 353 3041 
L 353 3500 
z
" id="DejaVuSans-7a" transform="scale(0.015625)"/>
     </defs>
     <use xlink:href="#DejaVuSans-6c"/>
     <use x="27.783203" xlink:href="#DejaVuSans-69"/>
     <use x="55.566406" xlink:href="#DejaVuSans-62"/>
     <use x="119.042969" xlink:href="#DejaVuSans-6a"/>
     <use x="146.826172" xlink:href="#DejaVuSans-70"/>
     <use x="210.302734" xlink:href="#DejaVuSans-65"/>
     <use x="271.826172" xlink:href="#DejaVuSans-67"/>
     <use x="335.302734" xlink:href="#DejaVuSans-2d"/>
     <use x="371.386719" xlink:href="#DejaVuSans-74"/>
     <use x="410.595703" xlink:href="#DejaVuSans-75"/>
     <use x="473.974609" xlink:href="#DejaVuSans-72"/>
     <use x="515.087891" xlink:href="#DejaVuSans-62"/>
     <use x="578.564453" xlink:href="#DejaVuSans-6f"/>
     <use x="641.621094" xlink:href="#DejaVuSans-2d"/>
     <use x="677.705078" xlink:href="#DejaVuSans-30"/>
     <use x="741.328125" xlink:href="#DejaVuSans-37"/>
     <use x="804.951172" xlink:href="#DejaVuSans-2d"/>
     <use x="841.035156" xlink:href="#DejaVuSans-32"/>
     <use x="904.658203" xlink:href="#DejaVuSans-30"/>
     <use x="968.28125" xlink:href="#DejaVuSans-31"/>
     <use x="1031.904297" xlink:href="#DejaVuSans-37"/>
     <use x="1095.527344" xlink:href="#DejaVuSans-20"/>
     <use x="1127.314453" xlink:href="#DejaVuSans-28"/>
     <use x="1166.328125" xlink:href="#DejaVuSans-32"/>
     <use x="1229.951172" xlink:href="#DejaVuSans-34"/>
     <use x="1293.574219" xlink:href="#DejaVuSans-68"/>
     <use x="1356.953125" xlink:href="#DejaVuSans-2c"/>
     <use x="1388.740234" xlink:href="#DejaVuSans-20"/>
     <use x="1420.527344" xlink:href="#DejaVuSans-31"/>
     <use x="1484.150391" xlink:href="#DejaVuSans-30"/>
     <use x="1547.773438" xlink:href="#DejaVuSans-20"/>
     <use x="1579.560547" xlink:href="#DejaVuSans-74"/>
     <use x="1618.769531" xlink:href="#DejaVuSans-72"/>
     <use x="1659.882812" xlink:href="#DejaVuSans-69"/>
     <use x="1687.666016" xlink:href="#DejaVuSans-61"/>
     <use x="1748.945312" xlink:href="#DejaVuSans-6c"/>
     <use x="1776.728516" xlink:href="#DejaVuSans-73"/>
     <use x="1828.828125" xlink:href="#DejaVuSans-2f"/>
     <use x="1862.519531" xlink:href="#DejaVuSans-66"/>
     <use x="1897.724609" xlink:href="#DejaVuSans-75"/>
     <use x="1961.103516" xlink:href="#DejaVuSans-7a"/>
     <use x="2013.59375" xlink:href="#DejaVuSans-7a"/>
     <use x="2066.083984" xlink:href="#DejaVuSans-65"/>
     <use x="2127.607422" xlink:href="#DejaVuSans-72"/>
     <use x="2168.720703" xlink:href="#DejaVuSans-29"/>
    </g>
   </g>
   <g id="legend_1">
    <g id="line2d_26">
     <path d="M 771.568125 30.416562 
L 791.568125 30.416562 
" style="fill:none;stroke:#1f77b4;stroke-linecap:square;stroke-width:1.5;"/>
    </g>
    <g id="line2d_27">
     <defs>
      <path d="M 0 3 
C 0.795609 3 1.55874 2.683901 2.12132 2.12132 
C 2.683901 1.55874 3 0.795609 3 0 
C 3 -0.795609 2.683901 -1.55874 2.12132 -2.12132 
C 1.55874 -2.683901 0.795609 -3 0 -3 
C -0.795609 -3 -1.55874 -2.683901 -2.12132 -2.12132 
C -2.683901 -1.55874 -3 -0.795609 -3 0 
C -3 0.795609 -2.683901 1.55874 -2.12132 2.12132 
C -1.55874 2.683901 -0.795609 3 0 3 
z
" id="m16f165d41e" style="stroke:#1f77b4;"/>
     </defs>
     <g>
      <use style="fill:#1f77b4;stroke:#1f77b4;" x="781.568125" xlink:href="#m16f165d41e" y="30.416562"/>
     </g>
    </g>
    <g id="text_24">
     <!-- aflplusplus -->
     <g transform="translate(799.568125 33.916562)scale(0.1 -0.1)">
      <use xlink:href="#DejaVuSans-61"/>
      <use x="61.279297" xlink:href="#DejaVuSans-66"/>
      <use x="96.484375" xlink:href="#DejaVuSans-6c"/>
      <use x="124.267578" xlink:href="#DejaVuSans-70"/>
      <use x="187.744141" xlink:href="#DejaVuSans-6c"/>
      <use x="215.527344" xlink:href="#DejaVuSans-75"/>
      <use x="278.90625" xlink:href="#DejaVuSans-73"/>
      <use x="331.005859" xlink:href="#DejaVuSans-70"/>
      <use x="394.482422" xlink:href="#DejaVuSans-6c"/>
      <use x="422.265625" xlink:href="#DejaVuSans-75"/>
      <use x="485.644531" xlink:href="#DejaVuSans-73"/>
     </g>
    </g>
    <g id="line2d_28">
     <path d="M 771.568125 45.094688 
L 791.568125 45.094688 
" style="fill:none;stroke:#98df8a;stroke-linecap:square;stroke-width:1.5;"/>
    </g>
    <g id="line2d_29">
     <defs>
      <path d="M -0 3 
L 3 -3 
L -3 -3 
z
" id="m2e9b79f298" style="stroke:#98df8a;stroke-linejoin:miter;"/>
     </defs>
     <g>
      <use style="fill:#98df8a;stroke:#98df8a;stroke-linejoin:miter;" x="781.568125" xlink:href="#m2e9b79f298" y="45.094688"/>
     </g>
    </g>
    <g id="text_25">
     <!-- libfuzzer -->
     <g transform="translate(799.568125 48.594688)scale(0.1 -0.1)">
      <use xlink:href="#DejaVuSans-6c"/>
      <use x="27.783203" xlink:href="#DejaVuSans-69"/>
      <use x="55.566406" xlink:href="#DejaVuSans-62"/>
      <use x="119.042969" xlink:href="#DejaVuSans-66"/>
      <use x="154.248047" xlink:href="#DejaVuSans-75"/>
      <use x="217.626953" xlink:href="#DejaVuSans-7a"/>
      <use x="270.117188" xlink:href="#DejaVuSans-7a"/>
      <use x="322.607422" xlink:href="#DejaVuSans-65"/>
      <use x="384.130859" xlink:href="#DejaVuSans-72"/>
     </g>
    </g>
   </g>
  </g>
 </g>
 <defs>
  <clipPath id="pf22233bfff">
   <rect height="266.112" width="714.24" x="53.328125" y="22.318125"/>
  </clipPath>
 </defs>
</svg>
