<?xml version="1.0" encoding="utf-8" standalone="no"?>
<!DOCTYPE svg PUBLIC "-//W3C//DTD SVG 1.1//EN"
  "http://www.w3.org/Graphics/SVG/1.1/DTD/svg11.dtd">
<svg height="325.986375pt" version="1.1" viewBox="0 0 961.185312 325.986375" width="961.185312pt" xmlns="http://www.w3.org/2000/svg" xmlns:xlink="http://www.w3.org/1999/xlink">
 <metadata>
  <rdf:RDF xmlns:cc="http://creativecommons.org/ns#" xmlns:dc="http://purl.org/dc/elements/1.1/" xmlns:rdf="http://www.w3.org/1999/02/22-rdf-syntax-ns#">
   <cc:Work>
    <dc:type rdf:resource="http://purl.org/dc/dcmitype/StillImage"/>
    <dc:date>2021-07-03T02:05:34.093135</dc:date>
    <dc:format>image/svg+xml</dc:format>
    <dc:creator>
     <cc:Agent>
      <dc:title>Matplotlib v3.4.1, https://matplotlib.org/</dc:title>
     </cc:Agent>
    </dc:creator>
   </cc:Work>
  </rdf:RDF>
 </metadata>
 <defs>
  <style type="text/css">*{stroke-linecap:butt;stroke-linejoin:round;}</style>
 </defs>
 <g id="figure_1">
  <g id="patch_1">
   <path d="M 0 325.986375 
L 961.185312 325.986375 
L 961.185312 0 
L 0 0 
z
" style="fill:#ffffff;"/>
  </g>
  <g id="axes_1">
   <g id="patch_2">
    <path d="M 53.328125 288.430125 
L 767.568125 288.430125 
L 767.568125 22.318125 
L 53.328125 22.318125 
z
" style="fill:#ffffff;"/>
   </g>
   <g id="PolyCollection_1">
    <defs>
     <path d="M 85.79358 -258.764943 
L 85.79358 -49.65225 
L 188.501026 -257.680404 
L 248.581031 -258.832726 
L 291.208472 -258.832726 
L 324.272885 -258.832726 
L 351.288477 -260.052833 
L 374.129835 -261.611858 
L 393.915919 -261.611858 
L 411.368482 -261.611858 
L 426.980331 -261.611858 
L 441.102967 -261.611858 
L 453.995923 -261.611858 
L 465.856294 -261.611858 
L 476.837281 -261.611858 
L 487.060336 -261.611858 
L 496.623365 -264.390989 
L 505.60645 -264.390989 
L 514.075928 -264.390989 
L 522.087367 -264.390989 
L 529.687778 -264.390989 
L 536.917286 -264.390989 
L 543.810413 -264.390989 
L 550.397077 -264.390989 
L 556.70337 -264.390989 
L 562.75219 -264.390989 
L 568.56374 -264.390989 
L 574.155933 -264.390989 
L 579.544727 -264.390989 
L 584.744402 -264.390989 
L 589.767782 -264.390989 
L 594.626432 -264.390989 
L 599.330812 -264.390989 
L 603.890418 -264.390989 
L 608.313897 -264.390989 
L 612.60914 -264.390989 
L 616.783374 -264.390989 
L 620.843232 -264.390989 
L 624.794813 -264.390989 
L 628.643745 -266.492284 
L 632.395224 -267.983525 
L 636.054065 -272.389465 
L 639.624732 -273.541788 
L 643.111376 -280.726859 
L 646.51786 -285.742852 
L 649.847787 -287.911931 
L 653.104523 -287.911931 
L 656.291216 -287.911931 
L 659.410816 -287.911931 
L 662.46609 -287.911931 
L 665.459637 -287.911931 
L 668.393901 -287.911931 
L 671.271186 -287.911931 
L 674.093663 -287.911931 
L 676.863379 -287.911931 
L 679.582272 -287.911931 
L 682.252174 -287.911931 
L 684.874818 -287.911931 
L 687.451849 -287.979714 
L 689.984825 -287.979714 
L 692.475229 -287.979714 
L 694.924467 -287.979714 
L 697.333878 -287.979714 
L 699.704737 -287.979714 
L 702.038258 -287.979714 
L 704.335599 -287.979714 
L 706.597865 -287.979714 
L 708.82611 -287.979714 
L 711.021343 -287.979714 
L 713.184528 -287.979714 
L 715.316586 -287.979714 
L 717.418402 -287.979714 
L 719.490821 -287.979714 
L 721.534654 -287.979714 
L 723.550678 -287.979714 
L 725.539641 -287.979714 
L 727.50226 -287.979714 
L 729.439222 -287.979714 
L 731.351191 -287.979714 
L 733.238803 -287.979714 
L 735.10267 -287.979714 
L 735.10267 -290.487711 
L 735.10267 -290.487711 
L 733.238803 -290.487711 
L 731.351191 -290.487711 
L 729.439222 -290.487711 
L 727.50226 -290.487711 
L 725.539641 -290.487711 
L 723.550678 -290.487711 
L 721.534654 -290.487711 
L 719.490821 -290.487711 
L 717.418402 -290.487711 
L 715.316586 -290.487711 
L 713.184528 -290.487711 
L 711.021343 -290.487711 
L 708.82611 -290.487711 
L 706.597865 -290.487711 
L 704.335599 -290.487711 
L 702.038258 -290.487711 
L 699.704737 -290.487711 
L 697.333878 -290.487711 
L 694.924467 -290.487711 
L 692.475229 -290.487711 
L 689.984825 -290.487711 
L 687.451849 -290.487711 
L 684.874818 -290.487711 
L 682.252174 -290.487711 
L 679.582272 -290.487711 
L 676.863379 -290.487711 
L 674.093663 -290.487711 
L 671.271186 -290.487711 
L 668.393901 -290.487711 
L 665.459637 -290.487711 
L 662.46609 -290.487711 
L 659.410816 -290.487711 
L 656.291216 -290.487711 
L 653.104523 -290.487711 
L 649.847787 -290.487711 
L 646.51786 -290.487711 
L 643.111376 -290.487711 
L 639.624732 -290.487711 
L 636.054065 -290.487711 
L 632.395224 -290.419927 
L 628.643745 -290.419927 
L 624.794813 -290.419927 
L 620.843232 -290.419927 
L 616.783374 -290.419927 
L 612.60914 -290.419927 
L 608.313897 -290.419927 
L 603.890418 -290.419927 
L 599.330812 -290.419927 
L 594.626432 -290.419927 
L 589.767782 -289.74209 
L 584.744402 -289.538739 
L 579.544727 -289.335388 
L 574.155933 -289.335388 
L 568.56374 -289.335388 
L 562.75219 -289.335388 
L 556.70337 -289.335388 
L 550.397077 -289.335388 
L 543.810413 -289.335388 
L 536.917286 -289.335388 
L 529.687778 -288.4542 
L 522.087367 -288.4542 
L 514.075928 -288.4542 
L 505.60645 -288.4542 
L 496.623365 -288.4542 
L 487.060336 -288.318633 
L 476.837281 -288.318633 
L 465.856294 -288.318633 
L 453.995923 -288.318633 
L 441.102967 -288.250849 
L 426.980331 -288.183065 
L 411.368482 -287.437445 
L 393.915919 -287.437445 
L 374.129835 -287.437445 
L 351.288477 -286.217338 
L 324.272885 -286.217338 
L 291.208472 -278.625565 
L 248.581031 -274.219625 
L 188.501026 -259.578347 
L 85.79358 -258.764943 
z
" id="m22020e3d7a" style="stroke:#d62728;stroke-opacity:0.2;"/>
    </defs>
    <g clip-path="url(#p3a95a38fe3)">
     <use style="fill:#d62728;fill-opacity:0.2;stroke:#d62728;stroke-opacity:0.2;" x="0" xlink:href="#m22020e3d7a" y="325.986375"/>
    </g>
   </g>
   <g id="PolyCollection_2">
    <defs>
     <path d="M 85.79358 -258.832726 
L 85.79358 -255.03684 
L 188.501026 -255.03684 
L 248.581031 -255.172407 
L 291.208472 -258.968294 
L 324.272885 -259.036077 
L 351.288477 -259.036077 
L 374.129835 -259.171645 
L 393.915919 -259.171645 
L 411.368482 -259.239428 
L 426.980331 -259.374996 
L 441.102967 -259.374996 
L 453.995923 -259.374996 
L 465.856294 -259.374996 
L 476.837281 -259.374996 
L 487.060336 -259.44278 
L 496.623365 -259.44278 
L 505.60645 -259.713914 
L 514.075928 -259.781698 
L 522.087367 -259.781698 
L 529.687778 -259.781698 
L 536.917286 -259.917265 
L 543.810413 -259.917265 
L 550.397077 -265.068826 
L 556.70337 -265.068826 
L 562.75219 -265.13661 
L 568.56374 -265.13661 
L 574.155933 -265.13661 
L 579.544727 -265.13661 
L 584.744402 -265.13661 
L 589.767782 -265.13661 
L 594.626432 -265.13661 
L 599.330812 -265.13661 
L 603.890418 -265.13661 
L 608.313897 -265.13661 
L 612.60914 -265.204393 
L 616.783374 -265.204393 
L 620.843232 -265.204393 
L 624.794813 -265.204393 
L 628.643745 -265.204393 
L 632.395224 -265.204393 
L 636.054065 -265.204393 
L 639.624732 -265.204393 
L 643.111376 -265.204393 
L 646.51786 -265.204393 
L 649.847787 -265.204393 
L 653.104523 -265.204393 
L 656.291216 -265.204393 
L 659.410816 -265.204393 
L 662.46609 -265.204393 
L 665.459637 -265.204393 
L 668.393901 -265.204393 
L 671.271186 -265.204393 
L 674.093663 -265.204393 
L 676.863379 -265.204393 
L 679.582272 -265.204393 
L 682.252174 -265.204393 
L 684.874818 -265.272177 
L 687.451849 -265.272177 
L 689.984825 -265.272177 
L 692.475229 -265.272177 
L 694.924467 -265.272177 
L 697.333878 -265.272177 
L 699.704737 -265.272177 
L 702.038258 -265.272177 
L 704.335599 -265.272177 
L 706.597865 -265.272177 
L 708.82611 -265.272177 
L 711.021343 -265.272177 
L 713.184528 -265.272177 
L 715.316586 -265.272177 
L 717.418402 -265.272177 
L 719.490821 -265.272177 
L 721.534654 -265.272177 
L 723.550678 -265.272177 
L 725.539641 -265.272177 
L 727.50226 -265.272177 
L 729.439222 -265.272177 
L 731.351191 -265.272177 
L 733.238803 -265.272177 
L 735.10267 -265.543312 
L 735.10267 -291.57225 
L 735.10267 -291.57225 
L 733.238803 -291.57225 
L 731.351191 -291.57225 
L 729.439222 -291.57225 
L 727.50226 -290.962197 
L 725.539641 -290.962197 
L 723.550678 -290.962197 
L 721.534654 -290.962197 
L 719.490821 -290.962197 
L 717.418402 -290.962197 
L 715.316586 -290.962197 
L 713.184528 -290.962197 
L 711.021343 -290.962197 
L 708.82611 -290.962197 
L 706.597865 -290.962197 
L 704.335599 -290.962197 
L 702.038258 -290.962197 
L 699.704737 -290.962197 
L 697.333878 -290.962197 
L 694.924467 -290.962197 
L 692.475229 -290.962197 
L 689.984825 -290.962197 
L 687.451849 -290.962197 
L 684.874818 -290.962197 
L 682.252174 -290.962197 
L 679.582272 -290.962197 
L 676.863379 -290.962197 
L 674.093663 -290.962197 
L 671.271186 -290.962197 
L 668.393901 -290.962197 
L 665.459637 -290.962197 
L 662.46609 -290.962197 
L 659.410816 -290.962197 
L 656.291216 -290.962197 
L 653.104523 -290.962197 
L 649.847787 -290.691062 
L 646.51786 -290.691062 
L 643.111376 -290.691062 
L 639.624732 -290.691062 
L 636.054065 -290.691062 
L 632.395224 -290.691062 
L 628.643745 -290.691062 
L 624.794813 -290.691062 
L 620.843232 -290.691062 
L 616.783374 -290.691062 
L 612.60914 -290.691062 
L 608.313897 -290.691062 
L 603.890418 -290.691062 
L 599.330812 -290.691062 
L 594.626432 -290.691062 
L 589.767782 -290.691062 
L 584.744402 -290.691062 
L 579.544727 -290.691062 
L 574.155933 -290.691062 
L 568.56374 -290.691062 
L 562.75219 -290.691062 
L 556.70337 -290.691062 
L 550.397077 -289.877658 
L 543.810413 -289.674307 
L 536.917286 -289.674307 
L 529.687778 -289.674307 
L 522.087367 -289.538739 
L 514.075928 -289.403172 
L 505.60645 -289.403172 
L 496.623365 -289.403172 
L 487.060336 -289.335388 
L 476.837281 -289.335388 
L 465.856294 -288.99647 
L 453.995923 -288.115282 
L 441.102967 -288.115282 
L 426.980331 -288.115282 
L 411.368482 -288.115282 
L 393.915919 -288.115282 
L 374.129835 -288.115282 
L 351.288477 -288.047498 
L 324.272885 -287.911931 
L 291.208472 -280.18459 
L 248.581031 -279.64232 
L 188.501026 -259.036077 
L 85.79358 -258.832726 
z
" id="m95beb38359" style="stroke:#1f77b4;stroke-opacity:0.2;"/>
    </defs>
    <g clip-path="url(#p3a95a38fe3)">
     <use style="fill:#1f77b4;fill-opacity:0.2;stroke:#1f77b4;stroke-opacity:0.2;" x="0" xlink:href="#m95beb38359" y="325.986375"/>
    </g>
   </g>
   <g id="PolyCollection_3">
    <defs>
     <path d="M 85.79358 -258.968294 
L 85.79358 -49.65225 
L 188.501026 -258.35824 
L 248.581031 -258.35824 
L 291.208472 -258.35824 
L 324.272885 -258.35824 
L 351.288477 -259.103861 
L 374.129835 -259.239428 
L 393.915919 -259.239428 
L 411.368482 -259.239428 
L 426.980331 -259.239428 
L 441.102967 -259.239428 
L 453.995923 -259.239428 
L 465.856294 -259.239428 
L 476.837281 -259.239428 
L 487.060336 -259.239428 
L 496.623365 -259.239428 
L 505.60645 -259.239428 
L 514.075928 -259.239428 
L 522.087367 -259.44278 
L 529.687778 -260.323968 
L 536.917286 -260.323968 
L 543.810413 -260.323968 
L 550.397077 -260.323968 
L 556.70337 -260.323968 
L 562.75219 -260.323968 
L 568.56374 -263.984287 
L 574.155933 -266.288933 
L 579.544727 -266.288933 
L 584.744402 -266.4245 
L 589.767782 -266.4245 
L 594.626432 -266.4245 
L 599.330812 -266.4245 
L 603.890418 -266.4245 
L 608.313897 -267.373472 
L 612.60914 -267.373472 
L 616.783374 -267.373472 
L 620.843232 -267.373472 
L 624.794813 -267.373472 
L 628.643745 -267.373472 
L 632.395224 -267.373472 
L 636.054065 -267.373472 
L 639.624732 -267.373472 
L 643.111376 -267.373472 
L 646.51786 -267.373472 
L 649.847787 -267.373472 
L 653.104523 -267.373472 
L 656.291216 -267.373472 
L 659.410816 -267.373472 
L 662.46609 -267.373472 
L 665.459637 -267.373472 
L 668.393901 -267.373472 
L 671.271186 -267.373472 
L 674.093663 -267.373472 
L 676.863379 -267.373472 
L 679.582272 -267.373472 
L 682.252174 -267.373472 
L 684.874818 -267.373472 
L 687.451849 -267.373472 
L 689.984825 -267.373472 
L 692.475229 -267.373472 
L 694.924467 -267.373472 
L 697.333878 -267.373472 
L 699.704737 -267.373472 
L 702.038258 -267.915741 
L 704.335599 -267.915741 
L 706.597865 -267.915741 
L 708.82611 -267.915741 
L 711.021343 -267.915741 
L 713.184528 -267.915741 
L 715.316586 -267.915741 
L 717.418402 -267.915741 
L 719.490821 -267.915741 
L 721.534654 -267.915741 
L 723.550678 -267.915741 
L 725.539641 -267.915741 
L 727.50226 -267.915741 
L 729.439222 -267.915741 
L 731.351191 -267.915741 
L 733.238803 -267.915741 
L 735.10267 -267.915741 
L 735.10267 -289.335388 
L 735.10267 -289.335388 
L 733.238803 -289.335388 
L 731.351191 -289.335388 
L 729.439222 -289.335388 
L 727.50226 -289.335388 
L 725.539641 -289.335388 
L 723.550678 -289.335388 
L 721.534654 -289.335388 
L 719.490821 -289.335388 
L 717.418402 -289.335388 
L 715.316586 -289.335388 
L 713.184528 -289.335388 
L 711.021343 -289.335388 
L 708.82611 -289.335388 
L 706.597865 -289.335388 
L 704.335599 -289.335388 
L 702.038258 -289.335388 
L 699.704737 -289.335388 
L 697.333878 -289.335388 
L 694.924467 -289.335388 
L 692.475229 -289.335388 
L 689.984825 -289.335388 
L 687.451849 -289.335388 
L 684.874818 -289.335388 
L 682.252174 -289.335388 
L 679.582272 -289.335388 
L 676.863379 -289.335388 
L 674.093663 -289.335388 
L 671.271186 -289.335388 
L 668.393901 -289.335388 
L 665.459637 -289.335388 
L 662.46609 -289.199821 
L 659.410816 -289.199821 
L 656.291216 -289.199821 
L 653.104523 -288.318633 
L 649.847787 -288.183065 
L 646.51786 -288.183065 
L 643.111376 -288.183065 
L 639.624732 -288.183065 
L 636.054065 -288.183065 
L 632.395224 -288.183065 
L 628.643745 -288.183065 
L 624.794813 -288.183065 
L 620.843232 -288.183065 
L 616.783374 -288.183065 
L 612.60914 -280.116806 
L 608.313897 -280.116806 
L 603.890418 -280.116806 
L 599.330812 -280.116806 
L 594.626432 -280.116806 
L 589.767782 -280.116806 
L 584.744402 -280.116806 
L 579.544727 -279.710104 
L 574.155933 -279.710104 
L 568.56374 -267.847957 
L 562.75219 -267.847957 
L 556.70337 -267.847957 
L 550.397077 -267.847957 
L 543.810413 -267.847957 
L 536.917286 -267.847957 
L 529.687778 -267.847957 
L 522.087367 -267.847957 
L 514.075928 -267.847957 
L 505.60645 -267.71239 
L 496.623365 -267.71239 
L 487.060336 -266.627851 
L 476.837281 -266.153365 
L 465.856294 -266.153365 
L 453.995923 -266.153365 
L 441.102967 -266.153365 
L 426.980331 -265.88223 
L 411.368482 -265.88223 
L 393.915919 -265.814447 
L 374.129835 -265.814447 
L 351.288477 -265.814447 
L 324.272885 -265.475528 
L 291.208472 -265.339961 
L 248.581031 -264.458773 
L 188.501026 -260.052833 
L 85.79358 -258.968294 
z
" id="m81523f8e09" style="stroke:#98df8a;stroke-opacity:0.2;"/>
    </defs>
    <g clip-path="url(#p3a95a38fe3)">
     <use style="fill:#98df8a;fill-opacity:0.2;stroke:#98df8a;stroke-opacity:0.2;" x="0" xlink:href="#m81523f8e09" y="325.986375"/>
    </g>
   </g>
   <g id="matplotlib.axis_1">
    <g id="xtick_1">
     <g id="line2d_1">
      <defs>
       <path d="M 0 0 
L 0 3.5 
" id="m873eeb211f" style="stroke:#000000;stroke-width:0.8;"/>
      </defs>
      <g>
       <use style="stroke:#000000;stroke-width:0.8;" x="85.79358" xlink:href="#m873eeb211f" y="288.430125"/>
      </g>
     </g>
     <g id="text_1">
      <!-- 14m -->
      <g transform="translate(74.560767 303.028562)scale(0.1 -0.1)">
       <defs>
        <path d="M 794 531 
L 1825 531 
L 1825 4091 
L 703 3866 
L 703 4441 
L 1819 4666 
L 2450 4666 
L 2450 531 
L 3481 531 
L 3481 0 
L 794 0 
L 794 531 
z
" id="DejaVuSans-31" transform="scale(0.015625)"/>
        <path d="M 2419 4116 
L 825 1625 
L 2419 1625 
L 2419 4116 
z
M 2253 4666 
L 3047 4666 
L 3047 1625 
L 3713 1625 
L 3713 1100 
L 3047 1100 
L 3047 0 
L 2419 0 
L 2419 1100 
L 313 1100 
L 313 1709 
L 2253 4666 
z
" id="DejaVuSans-34" transform="scale(0.015625)"/>
        <path d="M 3328 2828 
Q 3544 3216 3844 3400 
Q 4144 3584 4550 3584 
Q 5097 3584 5394 3201 
Q 5691 2819 5691 2113 
L 5691 0 
L 5113 0 
L 5113 2094 
Q 5113 2597 4934 2840 
Q 4756 3084 4391 3084 
Q 3944 3084 3684 2787 
Q 3425 2491 3425 1978 
L 3425 0 
L 2847 0 
L 2847 2094 
Q 2847 2600 2669 2842 
Q 2491 3084 2119 3084 
Q 1678 3084 1418 2786 
Q 1159 2488 1159 1978 
L 1159 0 
L 581 0 
L 581 3500 
L 1159 3500 
L 1159 2956 
Q 1356 3278 1631 3431 
Q 1906 3584 2284 3584 
Q 2666 3584 2933 3390 
Q 3200 3197 3328 2828 
z
" id="DejaVuSans-6d" transform="scale(0.015625)"/>
       </defs>
       <use xlink:href="#DejaVuSans-31"/>
       <use x="63.623047" xlink:href="#DejaVuSans-34"/>
       <use x="127.246094" xlink:href="#DejaVuSans-6d"/>
      </g>
     </g>
    </g>
    <g id="xtick_2">
     <g id="line2d_2">
      <g>
       <use style="stroke:#000000;stroke-width:0.8;" x="144.821866" xlink:href="#m873eeb211f" y="288.430125"/>
      </g>
     </g>
     <g id="text_2">
      <!-- 22m -->
      <g transform="translate(133.589053 303.028562)scale(0.1 -0.1)">
       <defs>
        <path d="M 1228 531 
L 3431 531 
L 3431 0 
L 469 0 
L 469 531 
Q 828 903 1448 1529 
Q 2069 2156 2228 2338 
Q 2531 2678 2651 2914 
Q 2772 3150 2772 3378 
Q 2772 3750 2511 3984 
Q 2250 4219 1831 4219 
Q 1534 4219 1204 4116 
Q 875 4013 500 3803 
L 500 4441 
Q 881 4594 1212 4672 
Q 1544 4750 1819 4750 
Q 2544 4750 2975 4387 
Q 3406 4025 3406 3419 
Q 3406 3131 3298 2873 
Q 3191 2616 2906 2266 
Q 2828 2175 2409 1742 
Q 1991 1309 1228 531 
z
" id="DejaVuSans-32" transform="scale(0.015625)"/>
       </defs>
       <use xlink:href="#DejaVuSans-32"/>
       <use x="63.623047" xlink:href="#DejaVuSans-32"/>
       <use x="127.246094" xlink:href="#DejaVuSans-6d"/>
      </g>
     </g>
    </g>
    <g id="xtick_3">
     <g id="line2d_3">
      <g>
       <use style="stroke:#000000;stroke-width:0.8;" x="203.850152" xlink:href="#m873eeb211f" y="288.430125"/>
      </g>
     </g>
     <g id="text_3">
      <!-- 33m -->
      <g transform="translate(192.61734 303.028562)scale(0.1 -0.1)">
       <defs>
        <path d="M 2597 2516 
Q 3050 2419 3304 2112 
Q 3559 1806 3559 1356 
Q 3559 666 3084 287 
Q 2609 -91 1734 -91 
Q 1441 -91 1130 -33 
Q 819 25 488 141 
L 488 750 
Q 750 597 1062 519 
Q 1375 441 1716 441 
Q 2309 441 2620 675 
Q 2931 909 2931 1356 
Q 2931 1769 2642 2001 
Q 2353 2234 1838 2234 
L 1294 2234 
L 1294 2753 
L 1863 2753 
Q 2328 2753 2575 2939 
Q 2822 3125 2822 3475 
Q 2822 3834 2567 4026 
Q 2313 4219 1838 4219 
Q 1578 4219 1281 4162 
Q 984 4106 628 3988 
L 628 4550 
Q 988 4650 1302 4700 
Q 1616 4750 1894 4750 
Q 2613 4750 3031 4423 
Q 3450 4097 3450 3541 
Q 3450 3153 3228 2886 
Q 3006 2619 2597 2516 
z
" id="DejaVuSans-33" transform="scale(0.015625)"/>
       </defs>
       <use xlink:href="#DejaVuSans-33"/>
       <use x="63.623047" xlink:href="#DejaVuSans-33"/>
       <use x="127.246094" xlink:href="#DejaVuSans-6d"/>
      </g>
     </g>
    </g>
    <g id="xtick_4">
     <g id="line2d_4">
      <g>
       <use style="stroke:#000000;stroke-width:0.8;" x="262.878438" xlink:href="#m873eeb211f" y="288.430125"/>
      </g>
     </g>
     <g id="text_4">
      <!-- 49m -->
      <g transform="translate(251.645626 303.028562)scale(0.1 -0.1)">
       <defs>
        <path d="M 703 97 
L 703 672 
Q 941 559 1184 500 
Q 1428 441 1663 441 
Q 2288 441 2617 861 
Q 2947 1281 2994 2138 
Q 2813 1869 2534 1725 
Q 2256 1581 1919 1581 
Q 1219 1581 811 2004 
Q 403 2428 403 3163 
Q 403 3881 828 4315 
Q 1253 4750 1959 4750 
Q 2769 4750 3195 4129 
Q 3622 3509 3622 2328 
Q 3622 1225 3098 567 
Q 2575 -91 1691 -91 
Q 1453 -91 1209 -44 
Q 966 3 703 97 
z
M 1959 2075 
Q 2384 2075 2632 2365 
Q 2881 2656 2881 3163 
Q 2881 3666 2632 3958 
Q 2384 4250 1959 4250 
Q 1534 4250 1286 3958 
Q 1038 3666 1038 3163 
Q 1038 2656 1286 2365 
Q 1534 2075 1959 2075 
z
" id="DejaVuSans-39" transform="scale(0.015625)"/>
       </defs>
       <use xlink:href="#DejaVuSans-34"/>
       <use x="63.623047" xlink:href="#DejaVuSans-39"/>
       <use x="127.246094" xlink:href="#DejaVuSans-6d"/>
      </g>
     </g>
    </g>
    <g id="xtick_5">
     <g id="line2d_5">
      <g>
       <use style="stroke:#000000;stroke-width:0.8;" x="321.906725" xlink:href="#m873eeb211f" y="288.430125"/>
      </g>
     </g>
     <g id="text_5">
      <!-- 1h:13m -->
      <g transform="translate(302.639537 303.028562)scale(0.1 -0.1)">
       <defs>
        <path d="M 3513 2113 
L 3513 0 
L 2938 0 
L 2938 2094 
Q 2938 2591 2744 2837 
Q 2550 3084 2163 3084 
Q 1697 3084 1428 2787 
Q 1159 2491 1159 1978 
L 1159 0 
L 581 0 
L 581 4863 
L 1159 4863 
L 1159 2956 
Q 1366 3272 1645 3428 
Q 1925 3584 2291 3584 
Q 2894 3584 3203 3211 
Q 3513 2838 3513 2113 
z
" id="DejaVuSans-68" transform="scale(0.015625)"/>
        <path d="M 750 794 
L 1409 794 
L 1409 0 
L 750 0 
L 750 794 
z
M 750 3309 
L 1409 3309 
L 1409 2516 
L 750 2516 
L 750 3309 
z
" id="DejaVuSans-3a" transform="scale(0.015625)"/>
       </defs>
       <use xlink:href="#DejaVuSans-31"/>
       <use x="63.623047" xlink:href="#DejaVuSans-68"/>
       <use x="127.001953" xlink:href="#DejaVuSans-3a"/>
       <use x="160.693359" xlink:href="#DejaVuSans-31"/>
       <use x="224.316406" xlink:href="#DejaVuSans-33"/>
       <use x="287.939453" xlink:href="#DejaVuSans-6d"/>
      </g>
     </g>
    </g>
    <g id="xtick_6">
     <g id="line2d_6">
      <g>
       <use style="stroke:#000000;stroke-width:0.8;" x="380.935011" xlink:href="#m873eeb211f" y="288.430125"/>
      </g>
     </g>
     <g id="text_6">
      <!-- 1h:49m -->
      <g transform="translate(361.667823 303.028562)scale(0.1 -0.1)">
       <use xlink:href="#DejaVuSans-31"/>
       <use x="63.623047" xlink:href="#DejaVuSans-68"/>
       <use x="127.001953" xlink:href="#DejaVuSans-3a"/>
       <use x="160.693359" xlink:href="#DejaVuSans-34"/>
       <use x="224.316406" xlink:href="#DejaVuSans-39"/>
       <use x="287.939453" xlink:href="#DejaVuSans-6d"/>
      </g>
     </g>
    </g>
    <g id="xtick_7">
     <g id="line2d_7">
      <g>
       <use style="stroke:#000000;stroke-width:0.8;" x="439.963297" xlink:href="#m873eeb211f" y="288.430125"/>
      </g>
     </g>
     <g id="text_7">
      <!-- 2h:43m -->
      <g transform="translate(420.69611 303.028562)scale(0.1 -0.1)">
       <use xlink:href="#DejaVuSans-32"/>
       <use x="63.623047" xlink:href="#DejaVuSans-68"/>
       <use x="127.001953" xlink:href="#DejaVuSans-3a"/>
       <use x="160.693359" xlink:href="#DejaVuSans-34"/>
       <use x="224.316406" xlink:href="#DejaVuSans-33"/>
       <use x="287.939453" xlink:href="#DejaVuSans-6d"/>
      </g>
     </g>
    </g>
    <g id="xtick_8">
     <g id="line2d_8">
      <g>
       <use style="stroke:#000000;stroke-width:0.8;" x="498.991583" xlink:href="#m873eeb211f" y="288.430125"/>
      </g>
     </g>
     <g id="text_8">
      <!-- 4h:3m -->
      <g transform="translate(482.905646 303.028562)scale(0.1 -0.1)">
       <use xlink:href="#DejaVuSans-34"/>
       <use x="63.623047" xlink:href="#DejaVuSans-68"/>
       <use x="127.001953" xlink:href="#DejaVuSans-3a"/>
       <use x="160.693359" xlink:href="#DejaVuSans-33"/>
       <use x="224.316406" xlink:href="#DejaVuSans-6d"/>
      </g>
     </g>
    </g>
    <g id="xtick_9">
     <g id="line2d_9">
      <g>
       <use style="stroke:#000000;stroke-width:0.8;" x="558.01987" xlink:href="#m873eeb211f" y="288.430125"/>
      </g>
     </g>
     <g id="text_9">
      <!-- 6h:3m -->
      <g transform="translate(541.933932 303.028562)scale(0.1 -0.1)">
       <defs>
        <path d="M 2113 2584 
Q 1688 2584 1439 2293 
Q 1191 2003 1191 1497 
Q 1191 994 1439 701 
Q 1688 409 2113 409 
Q 2538 409 2786 701 
Q 3034 994 3034 1497 
Q 3034 2003 2786 2293 
Q 2538 2584 2113 2584 
z
M 3366 4563 
L 3366 3988 
Q 3128 4100 2886 4159 
Q 2644 4219 2406 4219 
Q 1781 4219 1451 3797 
Q 1122 3375 1075 2522 
Q 1259 2794 1537 2939 
Q 1816 3084 2150 3084 
Q 2853 3084 3261 2657 
Q 3669 2231 3669 1497 
Q 3669 778 3244 343 
Q 2819 -91 2113 -91 
Q 1303 -91 875 529 
Q 447 1150 447 2328 
Q 447 3434 972 4092 
Q 1497 4750 2381 4750 
Q 2619 4750 2861 4703 
Q 3103 4656 3366 4563 
z
" id="DejaVuSans-36" transform="scale(0.015625)"/>
       </defs>
       <use xlink:href="#DejaVuSans-36"/>
       <use x="63.623047" xlink:href="#DejaVuSans-68"/>
       <use x="127.001953" xlink:href="#DejaVuSans-3a"/>
       <use x="160.693359" xlink:href="#DejaVuSans-33"/>
       <use x="224.316406" xlink:href="#DejaVuSans-6d"/>
      </g>
     </g>
    </g>
    <g id="xtick_10">
     <g id="line2d_10">
      <g>
       <use style="stroke:#000000;stroke-width:0.8;" x="617.048156" xlink:href="#m873eeb211f" y="288.430125"/>
      </g>
     </g>
     <g id="text_10">
      <!-- 9h -->
      <g transform="translate(610.698156 303.028562)scale(0.1 -0.1)">
       <use xlink:href="#DejaVuSans-39"/>
       <use x="63.623047" xlink:href="#DejaVuSans-68"/>
      </g>
     </g>
    </g>
    <g id="xtick_11">
     <g id="line2d_11">
      <g>
       <use style="stroke:#000000;stroke-width:0.8;" x="676.076442" xlink:href="#m873eeb211f" y="288.430125"/>
      </g>
     </g>
     <g id="text_11">
      <!-- 13h:25m -->
      <g transform="translate(653.628005 303.028562)scale(0.1 -0.1)">
       <defs>
        <path d="M 691 4666 
L 3169 4666 
L 3169 4134 
L 1269 4134 
L 1269 2991 
Q 1406 3038 1543 3061 
Q 1681 3084 1819 3084 
Q 2600 3084 3056 2656 
Q 3513 2228 3513 1497 
Q 3513 744 3044 326 
Q 2575 -91 1722 -91 
Q 1428 -91 1123 -41 
Q 819 9 494 109 
L 494 744 
Q 775 591 1075 516 
Q 1375 441 1709 441 
Q 2250 441 2565 725 
Q 2881 1009 2881 1497 
Q 2881 1984 2565 2268 
Q 2250 2553 1709 2553 
Q 1456 2553 1204 2497 
Q 953 2441 691 2322 
L 691 4666 
z
" id="DejaVuSans-35" transform="scale(0.015625)"/>
       </defs>
       <use xlink:href="#DejaVuSans-31"/>
       <use x="63.623047" xlink:href="#DejaVuSans-33"/>
       <use x="127.246094" xlink:href="#DejaVuSans-68"/>
       <use x="190.625" xlink:href="#DejaVuSans-3a"/>
       <use x="224.316406" xlink:href="#DejaVuSans-32"/>
       <use x="287.939453" xlink:href="#DejaVuSans-35"/>
       <use x="351.5625" xlink:href="#DejaVuSans-6d"/>
      </g>
     </g>
    </g>
    <g id="xtick_12">
     <g id="line2d_12">
      <g>
       <use style="stroke:#000000;stroke-width:0.8;" x="735.104728" xlink:href="#m873eeb211f" y="288.430125"/>
      </g>
     </g>
     <g id="text_12">
      <!-- 20h -->
      <g transform="translate(725.573478 303.028562)scale(0.1 -0.1)">
       <defs>
        <path d="M 2034 4250 
Q 1547 4250 1301 3770 
Q 1056 3291 1056 2328 
Q 1056 1369 1301 889 
Q 1547 409 2034 409 
Q 2525 409 2770 889 
Q 3016 1369 3016 2328 
Q 3016 3291 2770 3770 
Q 2525 4250 2034 4250 
z
M 2034 4750 
Q 2819 4750 3233 4129 
Q 3647 3509 3647 2328 
Q 3647 1150 3233 529 
Q 2819 -91 2034 -91 
Q 1250 -91 836 529 
Q 422 1150 422 2328 
Q 422 3509 836 4129 
Q 1250 4750 2034 4750 
z
" id="DejaVuSans-30" transform="scale(0.015625)"/>
       </defs>
       <use xlink:href="#DejaVuSans-32"/>
       <use x="63.623047" xlink:href="#DejaVuSans-30"/>
       <use x="127.246094" xlink:href="#DejaVuSans-68"/>
      </g>
     </g>
    </g>
    <g id="xtick_13">
     <g id="line2d_13">
      <defs>
       <path d="M 0 0 
L 0 2 
" id="mc846e57ec5" style="stroke:#000000;stroke-width:0.6;"/>
      </defs>
      <g>
       <use style="stroke:#000000;stroke-width:0.6;" x="68.341017" xlink:href="#mc846e57ec5" y="288.430125"/>
      </g>
     </g>
    </g>
    <g id="xtick_14">
     <g id="line2d_14">
      <g>
       <use style="stroke:#000000;stroke-width:0.6;" x="204.112876" xlink:href="#mc846e57ec5" y="288.430125"/>
      </g>
     </g>
    </g>
    <g id="xtick_15">
     <g id="line2d_15">
      <g>
       <use style="stroke:#000000;stroke-width:0.6;" x="264.19288" xlink:href="#mc846e57ec5" y="288.430125"/>
      </g>
     </g>
    </g>
    <g id="xtick_16">
     <g id="line2d_16">
      <g>
       <use style="stroke:#000000;stroke-width:0.6;" x="306.820322" xlink:href="#mc846e57ec5" y="288.430125"/>
      </g>
     </g>
    </g>
    <g id="xtick_17">
     <g id="line2d_17">
      <g>
       <use style="stroke:#000000;stroke-width:0.6;" x="339.884734" xlink:href="#mc846e57ec5" y="288.430125"/>
      </g>
     </g>
    </g>
    <g id="xtick_18">
     <g id="line2d_18">
      <g>
       <use style="stroke:#000000;stroke-width:0.6;" x="366.900327" xlink:href="#mc846e57ec5" y="288.430125"/>
      </g>
     </g>
    </g>
    <g id="xtick_19">
     <g id="line2d_19">
      <g>
       <use style="stroke:#000000;stroke-width:0.6;" x="389.741684" xlink:href="#mc846e57ec5" y="288.430125"/>
      </g>
     </g>
    </g>
    <g id="xtick_20">
     <g id="line2d_20">
      <g>
       <use style="stroke:#000000;stroke-width:0.6;" x="409.527768" xlink:href="#mc846e57ec5" y="288.430125"/>
      </g>
     </g>
    </g>
    <g id="xtick_21">
     <g id="line2d_21">
      <g>
       <use style="stroke:#000000;stroke-width:0.6;" x="426.980331" xlink:href="#mc846e57ec5" y="288.430125"/>
      </g>
     </g>
    </g>
    <g id="xtick_22">
     <g id="line2d_22">
      <g>
       <use style="stroke:#000000;stroke-width:0.6;" x="545.299627" xlink:href="#mc846e57ec5" y="288.430125"/>
      </g>
     </g>
    </g>
    <g id="xtick_23">
     <g id="line2d_23">
      <g>
       <use style="stroke:#000000;stroke-width:0.6;" x="605.379632" xlink:href="#mc846e57ec5" y="288.430125"/>
      </g>
     </g>
    </g>
    <g id="xtick_24">
     <g id="line2d_24">
      <g>
       <use style="stroke:#000000;stroke-width:0.6;" x="648.007074" xlink:href="#mc846e57ec5" y="288.430125"/>
      </g>
     </g>
    </g>
    <g id="xtick_25">
     <g id="line2d_25">
      <g>
       <use style="stroke:#000000;stroke-width:0.6;" x="681.071486" xlink:href="#mc846e57ec5" y="288.430125"/>
      </g>
     </g>
    </g>
    <g id="xtick_26">
     <g id="line2d_26">
      <g>
       <use style="stroke:#000000;stroke-width:0.6;" x="708.087078" xlink:href="#mc846e57ec5" y="288.430125"/>
      </g>
     </g>
    </g>
    <g id="xtick_27">
     <g id="line2d_27">
      <g>
       <use style="stroke:#000000;stroke-width:0.6;" x="730.928436" xlink:href="#mc846e57ec5" y="288.430125"/>
      </g>
     </g>
    </g>
    <g id="xtick_28">
     <g id="line2d_28">
      <g>
       <use style="stroke:#000000;stroke-width:0.6;" x="750.71452" xlink:href="#mc846e57ec5" y="288.430125"/>
      </g>
     </g>
    </g>
    <g id="text_13">
     <!-- Time (hour:minute) -->
     <g transform="translate(362.041094 316.706687)scale(0.1 -0.1)">
      <defs>
       <path d="M -19 4666 
L 3928 4666 
L 3928 4134 
L 2272 4134 
L 2272 0 
L 1638 0 
L 1638 4134 
L -19 4134 
L -19 4666 
z
" id="DejaVuSans-54" transform="scale(0.015625)"/>
       <path d="M 603 3500 
L 1178 3500 
L 1178 0 
L 603 0 
L 603 3500 
z
M 603 4863 
L 1178 4863 
L 1178 4134 
L 603 4134 
L 603 4863 
z
" id="DejaVuSans-69" transform="scale(0.015625)"/>
       <path d="M 3597 1894 
L 3597 1613 
L 953 1613 
Q 991 1019 1311 708 
Q 1631 397 2203 397 
Q 2534 397 2845 478 
Q 3156 559 3463 722 
L 3463 178 
Q 3153 47 2828 -22 
Q 2503 -91 2169 -91 
Q 1331 -91 842 396 
Q 353 884 353 1716 
Q 353 2575 817 3079 
Q 1281 3584 2069 3584 
Q 2775 3584 3186 3129 
Q 3597 2675 3597 1894 
z
M 3022 2063 
Q 3016 2534 2758 2815 
Q 2500 3097 2075 3097 
Q 1594 3097 1305 2825 
Q 1016 2553 972 2059 
L 3022 2063 
z
" id="DejaVuSans-65" transform="scale(0.015625)"/>
       <path id="DejaVuSans-20" transform="scale(0.015625)"/>
       <path d="M 1984 4856 
Q 1566 4138 1362 3434 
Q 1159 2731 1159 2009 
Q 1159 1288 1364 580 
Q 1569 -128 1984 -844 
L 1484 -844 
Q 1016 -109 783 600 
Q 550 1309 550 2009 
Q 550 2706 781 3412 
Q 1013 4119 1484 4856 
L 1984 4856 
z
" id="DejaVuSans-28" transform="scale(0.015625)"/>
       <path d="M 1959 3097 
Q 1497 3097 1228 2736 
Q 959 2375 959 1747 
Q 959 1119 1226 758 
Q 1494 397 1959 397 
Q 2419 397 2687 759 
Q 2956 1122 2956 1747 
Q 2956 2369 2687 2733 
Q 2419 3097 1959 3097 
z
M 1959 3584 
Q 2709 3584 3137 3096 
Q 3566 2609 3566 1747 
Q 3566 888 3137 398 
Q 2709 -91 1959 -91 
Q 1206 -91 779 398 
Q 353 888 353 1747 
Q 353 2609 779 3096 
Q 1206 3584 1959 3584 
z
" id="DejaVuSans-6f" transform="scale(0.015625)"/>
       <path d="M 544 1381 
L 544 3500 
L 1119 3500 
L 1119 1403 
Q 1119 906 1312 657 
Q 1506 409 1894 409 
Q 2359 409 2629 706 
Q 2900 1003 2900 1516 
L 2900 3500 
L 3475 3500 
L 3475 0 
L 2900 0 
L 2900 538 
Q 2691 219 2414 64 
Q 2138 -91 1772 -91 
Q 1169 -91 856 284 
Q 544 659 544 1381 
z
M 1991 3584 
L 1991 3584 
z
" id="DejaVuSans-75" transform="scale(0.015625)"/>
       <path d="M 2631 2963 
Q 2534 3019 2420 3045 
Q 2306 3072 2169 3072 
Q 1681 3072 1420 2755 
Q 1159 2438 1159 1844 
L 1159 0 
L 581 0 
L 581 3500 
L 1159 3500 
L 1159 2956 
Q 1341 3275 1631 3429 
Q 1922 3584 2338 3584 
Q 2397 3584 2469 3576 
Q 2541 3569 2628 3553 
L 2631 2963 
z
" id="DejaVuSans-72" transform="scale(0.015625)"/>
       <path d="M 3513 2113 
L 3513 0 
L 2938 0 
L 2938 2094 
Q 2938 2591 2744 2837 
Q 2550 3084 2163 3084 
Q 1697 3084 1428 2787 
Q 1159 2491 1159 1978 
L 1159 0 
L 581 0 
L 581 3500 
L 1159 3500 
L 1159 2956 
Q 1366 3272 1645 3428 
Q 1925 3584 2291 3584 
Q 2894 3584 3203 3211 
Q 3513 2838 3513 2113 
z
" id="DejaVuSans-6e" transform="scale(0.015625)"/>
       <path d="M 1172 4494 
L 1172 3500 
L 2356 3500 
L 2356 3053 
L 1172 3053 
L 1172 1153 
Q 1172 725 1289 603 
Q 1406 481 1766 481 
L 2356 481 
L 2356 0 
L 1766 0 
Q 1100 0 847 248 
Q 594 497 594 1153 
L 594 3053 
L 172 3053 
L 172 3500 
L 594 3500 
L 594 4494 
L 1172 4494 
z
" id="DejaVuSans-74" transform="scale(0.015625)"/>
       <path d="M 513 4856 
L 1013 4856 
Q 1481 4119 1714 3412 
Q 1947 2706 1947 2009 
Q 1947 1309 1714 600 
Q 1481 -109 1013 -844 
L 513 -844 
Q 928 -128 1133 580 
Q 1338 1288 1338 2009 
Q 1338 2731 1133 3434 
Q 928 4138 513 4856 
z
" id="DejaVuSans-29" transform="scale(0.015625)"/>
      </defs>
      <use xlink:href="#DejaVuSans-54"/>
      <use x="57.958984" xlink:href="#DejaVuSans-69"/>
      <use x="85.742188" xlink:href="#DejaVuSans-6d"/>
      <use x="183.154297" xlink:href="#DejaVuSans-65"/>
      <use x="244.677734" xlink:href="#DejaVuSans-20"/>
      <use x="276.464844" xlink:href="#DejaVuSans-28"/>
      <use x="315.478516" xlink:href="#DejaVuSans-68"/>
      <use x="378.857422" xlink:href="#DejaVuSans-6f"/>
      <use x="440.039062" xlink:href="#DejaVuSans-75"/>
      <use x="503.417969" xlink:href="#DejaVuSans-72"/>
      <use x="542.78125" xlink:href="#DejaVuSans-3a"/>
      <use x="576.472656" xlink:href="#DejaVuSans-6d"/>
      <use x="673.884766" xlink:href="#DejaVuSans-69"/>
      <use x="701.667969" xlink:href="#DejaVuSans-6e"/>
      <use x="765.046875" xlink:href="#DejaVuSans-75"/>
      <use x="828.425781" xlink:href="#DejaVuSans-74"/>
      <use x="867.634766" xlink:href="#DejaVuSans-65"/>
      <use x="929.158203" xlink:href="#DejaVuSans-29"/>
     </g>
    </g>
   </g>
   <g id="matplotlib.axis_2">
    <g id="ytick_1">
     <g id="line2d_29">
      <defs>
       <path d="M 0 0 
L -3.5 0 
" id="mf911c808bc" style="stroke:#000000;stroke-width:0.8;"/>
      </defs>
      <g>
       <use style="stroke:#000000;stroke-width:0.8;" x="53.328125" xlink:href="#mf911c808bc" y="258.371446"/>
      </g>
     </g>
     <g id="text_14">
      <!-- 500 -->
      <g transform="translate(27.240625 262.170665)scale(0.1 -0.1)">
       <use xlink:href="#DejaVuSans-35"/>
       <use x="63.623047" xlink:href="#DejaVuSans-30"/>
       <use x="127.246094" xlink:href="#DejaVuSans-30"/>
      </g>
     </g>
    </g>
    <g id="ytick_2">
     <g id="line2d_30">
      <g>
       <use style="stroke:#000000;stroke-width:0.8;" x="53.328125" xlink:href="#mf911c808bc" y="224.4796"/>
      </g>
     </g>
     <g id="text_15">
      <!-- 1000 -->
      <g transform="translate(20.878125 228.278819)scale(0.1 -0.1)">
       <use xlink:href="#DejaVuSans-31"/>
       <use x="63.623047" xlink:href="#DejaVuSans-30"/>
       <use x="127.246094" xlink:href="#DejaVuSans-30"/>
       <use x="190.869141" xlink:href="#DejaVuSans-30"/>
      </g>
     </g>
    </g>
    <g id="ytick_3">
     <g id="line2d_31">
      <g>
       <use style="stroke:#000000;stroke-width:0.8;" x="53.328125" xlink:href="#mf911c808bc" y="190.587753"/>
      </g>
     </g>
     <g id="text_16">
      <!-- 1500 -->
      <g transform="translate(20.878125 194.386972)scale(0.1 -0.1)">
       <use xlink:href="#DejaVuSans-31"/>
       <use x="63.623047" xlink:href="#DejaVuSans-35"/>
       <use x="127.246094" xlink:href="#DejaVuSans-30"/>
       <use x="190.869141" xlink:href="#DejaVuSans-30"/>
      </g>
     </g>
    </g>
    <g id="ytick_4">
     <g id="line2d_32">
      <g>
       <use style="stroke:#000000;stroke-width:0.8;" x="53.328125" xlink:href="#mf911c808bc" y="156.695907"/>
      </g>
     </g>
     <g id="text_17">
      <!-- 2000 -->
      <g transform="translate(20.878125 160.495126)scale(0.1 -0.1)">
       <use xlink:href="#DejaVuSans-32"/>
       <use x="63.623047" xlink:href="#DejaVuSans-30"/>
       <use x="127.246094" xlink:href="#DejaVuSans-30"/>
       <use x="190.869141" xlink:href="#DejaVuSans-30"/>
      </g>
     </g>
    </g>
    <g id="ytick_5">
     <g id="line2d_33">
      <g>
       <use style="stroke:#000000;stroke-width:0.8;" x="53.328125" xlink:href="#mf911c808bc" y="122.804061"/>
      </g>
     </g>
     <g id="text_18">
      <!-- 2500 -->
      <g transform="translate(20.878125 126.603279)scale(0.1 -0.1)">
       <use xlink:href="#DejaVuSans-32"/>
       <use x="63.623047" xlink:href="#DejaVuSans-35"/>
       <use x="127.246094" xlink:href="#DejaVuSans-30"/>
       <use x="190.869141" xlink:href="#DejaVuSans-30"/>
      </g>
     </g>
    </g>
    <g id="ytick_6">
     <g id="line2d_34">
      <g>
       <use style="stroke:#000000;stroke-width:0.8;" x="53.328125" xlink:href="#mf911c808bc" y="88.912214"/>
      </g>
     </g>
     <g id="text_19">
      <!-- 3000 -->
      <g transform="translate(20.878125 92.711433)scale(0.1 -0.1)">
       <use xlink:href="#DejaVuSans-33"/>
       <use x="63.623047" xlink:href="#DejaVuSans-30"/>
       <use x="127.246094" xlink:href="#DejaVuSans-30"/>
       <use x="190.869141" xlink:href="#DejaVuSans-30"/>
      </g>
     </g>
    </g>
    <g id="ytick_7">
     <g id="line2d_35">
      <g>
       <use style="stroke:#000000;stroke-width:0.8;" x="53.328125" xlink:href="#mf911c808bc" y="55.020368"/>
      </g>
     </g>
     <g id="text_20">
      <!-- 3500 -->
      <g transform="translate(20.878125 58.819586)scale(0.1 -0.1)">
       <use xlink:href="#DejaVuSans-33"/>
       <use x="63.623047" xlink:href="#DejaVuSans-35"/>
       <use x="127.246094" xlink:href="#DejaVuSans-30"/>
       <use x="190.869141" xlink:href="#DejaVuSans-30"/>
      </g>
     </g>
    </g>
    <g id="text_21">
     <!-- Code region coverage -->
     <g transform="translate(14.798438 210.379594)rotate(-90)scale(0.1 -0.1)">
      <defs>
       <path d="M 4122 4306 
L 4122 3641 
Q 3803 3938 3442 4084 
Q 3081 4231 2675 4231 
Q 1875 4231 1450 3742 
Q 1025 3253 1025 2328 
Q 1025 1406 1450 917 
Q 1875 428 2675 428 
Q 3081 428 3442 575 
Q 3803 722 4122 1019 
L 4122 359 
Q 3791 134 3420 21 
Q 3050 -91 2638 -91 
Q 1578 -91 968 557 
Q 359 1206 359 2328 
Q 359 3453 968 4101 
Q 1578 4750 2638 4750 
Q 3056 4750 3426 4639 
Q 3797 4528 4122 4306 
z
" id="DejaVuSans-43" transform="scale(0.015625)"/>
       <path d="M 2906 2969 
L 2906 4863 
L 3481 4863 
L 3481 0 
L 2906 0 
L 2906 525 
Q 2725 213 2448 61 
Q 2172 -91 1784 -91 
Q 1150 -91 751 415 
Q 353 922 353 1747 
Q 353 2572 751 3078 
Q 1150 3584 1784 3584 
Q 2172 3584 2448 3432 
Q 2725 3281 2906 2969 
z
M 947 1747 
Q 947 1113 1208 752 
Q 1469 391 1925 391 
Q 2381 391 2643 752 
Q 2906 1113 2906 1747 
Q 2906 2381 2643 2742 
Q 2381 3103 1925 3103 
Q 1469 3103 1208 2742 
Q 947 2381 947 1747 
z
" id="DejaVuSans-64" transform="scale(0.015625)"/>
       <path d="M 2906 1791 
Q 2906 2416 2648 2759 
Q 2391 3103 1925 3103 
Q 1463 3103 1205 2759 
Q 947 2416 947 1791 
Q 947 1169 1205 825 
Q 1463 481 1925 481 
Q 2391 481 2648 825 
Q 2906 1169 2906 1791 
z
M 3481 434 
Q 3481 -459 3084 -895 
Q 2688 -1331 1869 -1331 
Q 1566 -1331 1297 -1286 
Q 1028 -1241 775 -1147 
L 775 -588 
Q 1028 -725 1275 -790 
Q 1522 -856 1778 -856 
Q 2344 -856 2625 -561 
Q 2906 -266 2906 331 
L 2906 616 
Q 2728 306 2450 153 
Q 2172 0 1784 0 
Q 1141 0 747 490 
Q 353 981 353 1791 
Q 353 2603 747 3093 
Q 1141 3584 1784 3584 
Q 2172 3584 2450 3431 
Q 2728 3278 2906 2969 
L 2906 3500 
L 3481 3500 
L 3481 434 
z
" id="DejaVuSans-67" transform="scale(0.015625)"/>
       <path d="M 3122 3366 
L 3122 2828 
Q 2878 2963 2633 3030 
Q 2388 3097 2138 3097 
Q 1578 3097 1268 2742 
Q 959 2388 959 1747 
Q 959 1106 1268 751 
Q 1578 397 2138 397 
Q 2388 397 2633 464 
Q 2878 531 3122 666 
L 3122 134 
Q 2881 22 2623 -34 
Q 2366 -91 2075 -91 
Q 1284 -91 818 406 
Q 353 903 353 1747 
Q 353 2603 823 3093 
Q 1294 3584 2113 3584 
Q 2378 3584 2631 3529 
Q 2884 3475 3122 3366 
z
" id="DejaVuSans-63" transform="scale(0.015625)"/>
       <path d="M 191 3500 
L 800 3500 
L 1894 563 
L 2988 3500 
L 3597 3500 
L 2284 0 
L 1503 0 
L 191 3500 
z
" id="DejaVuSans-76" transform="scale(0.015625)"/>
       <path d="M 2194 1759 
Q 1497 1759 1228 1600 
Q 959 1441 959 1056 
Q 959 750 1161 570 
Q 1363 391 1709 391 
Q 2188 391 2477 730 
Q 2766 1069 2766 1631 
L 2766 1759 
L 2194 1759 
z
M 3341 1997 
L 3341 0 
L 2766 0 
L 2766 531 
Q 2569 213 2275 61 
Q 1981 -91 1556 -91 
Q 1019 -91 701 211 
Q 384 513 384 1019 
Q 384 1609 779 1909 
Q 1175 2209 1959 2209 
L 2766 2209 
L 2766 2266 
Q 2766 2663 2505 2880 
Q 2244 3097 1772 3097 
Q 1472 3097 1187 3025 
Q 903 2953 641 2809 
L 641 3341 
Q 956 3463 1253 3523 
Q 1550 3584 1831 3584 
Q 2591 3584 2966 3190 
Q 3341 2797 3341 1997 
z
" id="DejaVuSans-61" transform="scale(0.015625)"/>
      </defs>
      <use xlink:href="#DejaVuSans-43"/>
      <use x="69.824219" xlink:href="#DejaVuSans-6f"/>
      <use x="131.005859" xlink:href="#DejaVuSans-64"/>
      <use x="194.482422" xlink:href="#DejaVuSans-65"/>
      <use x="256.005859" xlink:href="#DejaVuSans-20"/>
      <use x="287.792969" xlink:href="#DejaVuSans-72"/>
      <use x="326.65625" xlink:href="#DejaVuSans-65"/>
      <use x="388.179688" xlink:href="#DejaVuSans-67"/>
      <use x="451.65625" xlink:href="#DejaVuSans-69"/>
      <use x="479.439453" xlink:href="#DejaVuSans-6f"/>
      <use x="540.621094" xlink:href="#DejaVuSans-6e"/>
      <use x="604" xlink:href="#DejaVuSans-20"/>
      <use x="635.787109" xlink:href="#DejaVuSans-63"/>
      <use x="690.767578" xlink:href="#DejaVuSans-6f"/>
      <use x="751.949219" xlink:href="#DejaVuSans-76"/>
      <use x="811.128906" xlink:href="#DejaVuSans-65"/>
      <use x="872.652344" xlink:href="#DejaVuSans-72"/>
      <use x="913.765625" xlink:href="#DejaVuSans-61"/>
      <use x="975.044922" xlink:href="#DejaVuSans-67"/>
      <use x="1038.521484" xlink:href="#DejaVuSans-65"/>
     </g>
    </g>
   </g>
   <g id="line2d_36">
    <path clip-path="url(#p3a95a38fe3)" d="M 85.79358 68.305971 
L 188.501026 67.085865 
L 248.581031 62.747709 
L 291.208472 62.002088 
L 324.272885 61.866521 
L 351.288477 61.66317 
L 374.129835 60.985333 
L 393.915919 60.849765 
L 411.368482 60.849765 
L 426.980331 60.849765 
L 441.102967 60.849765 
L 453.995923 60.849765 
L 465.856294 60.849765 
L 476.837281 60.849765 
L 487.060336 60.849765 
L 496.623365 44.446112 
L 505.60645 43.49714 
L 514.075928 43.49714 
L 522.087367 43.429356 
L 529.687778 43.429356 
L 536.917286 43.429356 
L 543.810413 43.429356 
L 550.397077 43.429356 
L 556.70337 43.429356 
L 562.75219 43.429356 
L 568.56374 43.429356 
L 574.155933 43.429356 
L 579.544727 43.429356 
L 584.744402 37.871093 
L 589.767782 37.871093 
L 594.626432 37.871093 
L 599.330812 37.871093 
L 603.890418 37.871093 
L 608.313897 37.871093 
L 612.60914 37.871093 
L 616.783374 37.871093 
L 620.843232 37.871093 
L 624.794813 37.871093 
L 628.643745 37.599959 
L 632.395224 37.532175 
L 636.054065 37.532175 
L 639.624732 37.532175 
L 643.111376 37.532175 
L 646.51786 37.532175 
L 649.847787 37.532175 
L 653.104523 37.532175 
L 656.291216 37.532175 
L 659.410816 37.532175 
L 662.46609 37.532175 
L 665.459637 37.532175 
L 668.393901 37.532175 
L 671.271186 37.532175 
L 674.093663 37.532175 
L 676.863379 37.532175 
L 679.582272 36.650987 
L 682.252174 36.650987 
L 684.874818 36.650987 
L 687.451849 36.650987 
L 689.984825 36.650987 
L 692.475229 36.650987 
L 694.924467 36.650987 
L 697.333878 36.650987 
L 699.704737 36.650987 
L 702.038258 36.650987 
L 704.335599 36.650987 
L 706.597865 36.650987 
L 708.82611 36.650987 
L 711.021343 36.650987 
L 713.184528 36.650987 
L 715.316586 36.650987 
L 717.418402 36.650987 
L 719.490821 36.650987 
L 721.534654 36.650987 
L 723.550678 36.650987 
L 725.539641 36.650987 
L 727.50226 36.650987 
L 729.439222 36.650987 
L 731.351191 36.650987 
L 733.238803 36.650987 
L 735.10267 36.650987 
" style="fill:none;stroke:#d62728;stroke-linecap:square;stroke-width:1.5;"/>
    <defs>
     <path d="M 0 -3 
L -3 3 
L 3 3 
z
" id="m637546d683" style="stroke:#ffffff;stroke-linejoin:miter;stroke-width:0.75;"/>
    </defs>
    <g clip-path="url(#p3a95a38fe3)">
     <use style="fill:#d62728;stroke:#ffffff;stroke-linejoin:miter;stroke-width:0.75;" x="85.79358" xlink:href="#m637546d683" y="68.305971"/>
     <use style="fill:#d62728;stroke:#ffffff;stroke-linejoin:miter;stroke-width:0.75;" x="188.501026" xlink:href="#m637546d683" y="67.085865"/>
     <use style="fill:#d62728;stroke:#ffffff;stroke-linejoin:miter;stroke-width:0.75;" x="248.581031" xlink:href="#m637546d683" y="62.747709"/>
     <use style="fill:#d62728;stroke:#ffffff;stroke-linejoin:miter;stroke-width:0.75;" x="291.208472" xlink:href="#m637546d683" y="62.002088"/>
     <use style="fill:#d62728;stroke:#ffffff;stroke-linejoin:miter;stroke-width:0.75;" x="324.272885" xlink:href="#m637546d683" y="61.866521"/>
     <use style="fill:#d62728;stroke:#ffffff;stroke-linejoin:miter;stroke-width:0.75;" x="351.288477" xlink:href="#m637546d683" y="61.66317"/>
     <use style="fill:#d62728;stroke:#ffffff;stroke-linejoin:miter;stroke-width:0.75;" x="374.129835" xlink:href="#m637546d683" y="60.985333"/>
     <use style="fill:#d62728;stroke:#ffffff;stroke-linejoin:miter;stroke-width:0.75;" x="393.915919" xlink:href="#m637546d683" y="60.849765"/>
     <use style="fill:#d62728;stroke:#ffffff;stroke-linejoin:miter;stroke-width:0.75;" x="411.368482" xlink:href="#m637546d683" y="60.849765"/>
     <use style="fill:#d62728;stroke:#ffffff;stroke-linejoin:miter;stroke-width:0.75;" x="426.980331" xlink:href="#m637546d683" y="60.849765"/>
     <use style="fill:#d62728;stroke:#ffffff;stroke-linejoin:miter;stroke-width:0.75;" x="441.102967" xlink:href="#m637546d683" y="60.849765"/>
     <use style="fill:#d62728;stroke:#ffffff;stroke-linejoin:miter;stroke-width:0.75;" x="453.995923" xlink:href="#m637546d683" y="60.849765"/>
     <use style="fill:#d62728;stroke:#ffffff;stroke-linejoin:miter;stroke-width:0.75;" x="465.856294" xlink:href="#m637546d683" y="60.849765"/>
     <use style="fill:#d62728;stroke:#ffffff;stroke-linejoin:miter;stroke-width:0.75;" x="476.837281" xlink:href="#m637546d683" y="60.849765"/>
     <use style="fill:#d62728;stroke:#ffffff;stroke-linejoin:miter;stroke-width:0.75;" x="487.060336" xlink:href="#m637546d683" y="60.849765"/>
     <use style="fill:#d62728;stroke:#ffffff;stroke-linejoin:miter;stroke-width:0.75;" x="496.623365" xlink:href="#m637546d683" y="44.446112"/>
     <use style="fill:#d62728;stroke:#ffffff;stroke-linejoin:miter;stroke-width:0.75;" x="505.60645" xlink:href="#m637546d683" y="43.49714"/>
     <use style="fill:#d62728;stroke:#ffffff;stroke-linejoin:miter;stroke-width:0.75;" x="514.075928" xlink:href="#m637546d683" y="43.49714"/>
     <use style="fill:#d62728;stroke:#ffffff;stroke-linejoin:miter;stroke-width:0.75;" x="522.087367" xlink:href="#m637546d683" y="43.429356"/>
     <use style="fill:#d62728;stroke:#ffffff;stroke-linejoin:miter;stroke-width:0.75;" x="529.687778" xlink:href="#m637546d683" y="43.429356"/>
     <use style="fill:#d62728;stroke:#ffffff;stroke-linejoin:miter;stroke-width:0.75;" x="536.917286" xlink:href="#m637546d683" y="43.429356"/>
     <use style="fill:#d62728;stroke:#ffffff;stroke-linejoin:miter;stroke-width:0.75;" x="543.810413" xlink:href="#m637546d683" y="43.429356"/>
     <use style="fill:#d62728;stroke:#ffffff;stroke-linejoin:miter;stroke-width:0.75;" x="550.397077" xlink:href="#m637546d683" y="43.429356"/>
     <use style="fill:#d62728;stroke:#ffffff;stroke-linejoin:miter;stroke-width:0.75;" x="556.70337" xlink:href="#m637546d683" y="43.429356"/>
     <use style="fill:#d62728;stroke:#ffffff;stroke-linejoin:miter;stroke-width:0.75;" x="562.75219" xlink:href="#m637546d683" y="43.429356"/>
     <use style="fill:#d62728;stroke:#ffffff;stroke-linejoin:miter;stroke-width:0.75;" x="568.56374" xlink:href="#m637546d683" y="43.429356"/>
     <use style="fill:#d62728;stroke:#ffffff;stroke-linejoin:miter;stroke-width:0.75;" x="574.155933" xlink:href="#m637546d683" y="43.429356"/>
     <use style="fill:#d62728;stroke:#ffffff;stroke-linejoin:miter;stroke-width:0.75;" x="579.544727" xlink:href="#m637546d683" y="43.429356"/>
     <use style="fill:#d62728;stroke:#ffffff;stroke-linejoin:miter;stroke-width:0.75;" x="584.744402" xlink:href="#m637546d683" y="37.871093"/>
     <use style="fill:#d62728;stroke:#ffffff;stroke-linejoin:miter;stroke-width:0.75;" x="589.767782" xlink:href="#m637546d683" y="37.871093"/>
     <use style="fill:#d62728;stroke:#ffffff;stroke-linejoin:miter;stroke-width:0.75;" x="594.626432" xlink:href="#m637546d683" y="37.871093"/>
     <use style="fill:#d62728;stroke:#ffffff;stroke-linejoin:miter;stroke-width:0.75;" x="599.330812" xlink:href="#m637546d683" y="37.871093"/>
     <use style="fill:#d62728;stroke:#ffffff;stroke-linejoin:miter;stroke-width:0.75;" x="603.890418" xlink:href="#m637546d683" y="37.871093"/>
     <use style="fill:#d62728;stroke:#ffffff;stroke-linejoin:miter;stroke-width:0.75;" x="608.313897" xlink:href="#m637546d683" y="37.871093"/>
     <use style="fill:#d62728;stroke:#ffffff;stroke-linejoin:miter;stroke-width:0.75;" x="612.60914" xlink:href="#m637546d683" y="37.871093"/>
     <use style="fill:#d62728;stroke:#ffffff;stroke-linejoin:miter;stroke-width:0.75;" x="616.783374" xlink:href="#m637546d683" y="37.871093"/>
     <use style="fill:#d62728;stroke:#ffffff;stroke-linejoin:miter;stroke-width:0.75;" x="620.843232" xlink:href="#m637546d683" y="37.871093"/>
     <use style="fill:#d62728;stroke:#ffffff;stroke-linejoin:miter;stroke-width:0.75;" x="624.794813" xlink:href="#m637546d683" y="37.871093"/>
     <use style="fill:#d62728;stroke:#ffffff;stroke-linejoin:miter;stroke-width:0.75;" x="628.643745" xlink:href="#m637546d683" y="37.599959"/>
     <use style="fill:#d62728;stroke:#ffffff;stroke-linejoin:miter;stroke-width:0.75;" x="632.395224" xlink:href="#m637546d683" y="37.532175"/>
     <use style="fill:#d62728;stroke:#ffffff;stroke-linejoin:miter;stroke-width:0.75;" x="636.054065" xlink:href="#m637546d683" y="37.532175"/>
     <use style="fill:#d62728;stroke:#ffffff;stroke-linejoin:miter;stroke-width:0.75;" x="639.624732" xlink:href="#m637546d683" y="37.532175"/>
     <use style="fill:#d62728;stroke:#ffffff;stroke-linejoin:miter;stroke-width:0.75;" x="643.111376" xlink:href="#m637546d683" y="37.532175"/>
     <use style="fill:#d62728;stroke:#ffffff;stroke-linejoin:miter;stroke-width:0.75;" x="646.51786" xlink:href="#m637546d683" y="37.532175"/>
     <use style="fill:#d62728;stroke:#ffffff;stroke-linejoin:miter;stroke-width:0.75;" x="649.847787" xlink:href="#m637546d683" y="37.532175"/>
     <use style="fill:#d62728;stroke:#ffffff;stroke-linejoin:miter;stroke-width:0.75;" x="653.104523" xlink:href="#m637546d683" y="37.532175"/>
     <use style="fill:#d62728;stroke:#ffffff;stroke-linejoin:miter;stroke-width:0.75;" x="656.291216" xlink:href="#m637546d683" y="37.532175"/>
     <use style="fill:#d62728;stroke:#ffffff;stroke-linejoin:miter;stroke-width:0.75;" x="659.410816" xlink:href="#m637546d683" y="37.532175"/>
     <use style="fill:#d62728;stroke:#ffffff;stroke-linejoin:miter;stroke-width:0.75;" x="662.46609" xlink:href="#m637546d683" y="37.532175"/>
     <use style="fill:#d62728;stroke:#ffffff;stroke-linejoin:miter;stroke-width:0.75;" x="665.459637" xlink:href="#m637546d683" y="37.532175"/>
     <use style="fill:#d62728;stroke:#ffffff;stroke-linejoin:miter;stroke-width:0.75;" x="668.393901" xlink:href="#m637546d683" y="37.532175"/>
     <use style="fill:#d62728;stroke:#ffffff;stroke-linejoin:miter;stroke-width:0.75;" x="671.271186" xlink:href="#m637546d683" y="37.532175"/>
     <use style="fill:#d62728;stroke:#ffffff;stroke-linejoin:miter;stroke-width:0.75;" x="674.093663" xlink:href="#m637546d683" y="37.532175"/>
     <use style="fill:#d62728;stroke:#ffffff;stroke-linejoin:miter;stroke-width:0.75;" x="676.863379" xlink:href="#m637546d683" y="37.532175"/>
     <use style="fill:#d62728;stroke:#ffffff;stroke-linejoin:miter;stroke-width:0.75;" x="679.582272" xlink:href="#m637546d683" y="36.650987"/>
     <use style="fill:#d62728;stroke:#ffffff;stroke-linejoin:miter;stroke-width:0.75;" x="682.252174" xlink:href="#m637546d683" y="36.650987"/>
     <use style="fill:#d62728;stroke:#ffffff;stroke-linejoin:miter;stroke-width:0.75;" x="684.874818" xlink:href="#m637546d683" y="36.650987"/>
     <use style="fill:#d62728;stroke:#ffffff;stroke-linejoin:miter;stroke-width:0.75;" x="687.451849" xlink:href="#m637546d683" y="36.650987"/>
     <use style="fill:#d62728;stroke:#ffffff;stroke-linejoin:miter;stroke-width:0.75;" x="689.984825" xlink:href="#m637546d683" y="36.650987"/>
     <use style="fill:#d62728;stroke:#ffffff;stroke-linejoin:miter;stroke-width:0.75;" x="692.475229" xlink:href="#m637546d683" y="36.650987"/>
     <use style="fill:#d62728;stroke:#ffffff;stroke-linejoin:miter;stroke-width:0.75;" x="694.924467" xlink:href="#m637546d683" y="36.650987"/>
     <use style="fill:#d62728;stroke:#ffffff;stroke-linejoin:miter;stroke-width:0.75;" x="697.333878" xlink:href="#m637546d683" y="36.650987"/>
     <use style="fill:#d62728;stroke:#ffffff;stroke-linejoin:miter;stroke-width:0.75;" x="699.704737" xlink:href="#m637546d683" y="36.650987"/>
     <use style="fill:#d62728;stroke:#ffffff;stroke-linejoin:miter;stroke-width:0.75;" x="702.038258" xlink:href="#m637546d683" y="36.650987"/>
     <use style="fill:#d62728;stroke:#ffffff;stroke-linejoin:miter;stroke-width:0.75;" x="704.335599" xlink:href="#m637546d683" y="36.650987"/>
     <use style="fill:#d62728;stroke:#ffffff;stroke-linejoin:miter;stroke-width:0.75;" x="706.597865" xlink:href="#m637546d683" y="36.650987"/>
     <use style="fill:#d62728;stroke:#ffffff;stroke-linejoin:miter;stroke-width:0.75;" x="708.82611" xlink:href="#m637546d683" y="36.650987"/>
     <use style="fill:#d62728;stroke:#ffffff;stroke-linejoin:miter;stroke-width:0.75;" x="711.021343" xlink:href="#m637546d683" y="36.650987"/>
     <use style="fill:#d62728;stroke:#ffffff;stroke-linejoin:miter;stroke-width:0.75;" x="713.184528" xlink:href="#m637546d683" y="36.650987"/>
     <use style="fill:#d62728;stroke:#ffffff;stroke-linejoin:miter;stroke-width:0.75;" x="715.316586" xlink:href="#m637546d683" y="36.650987"/>
     <use style="fill:#d62728;stroke:#ffffff;stroke-linejoin:miter;stroke-width:0.75;" x="717.418402" xlink:href="#m637546d683" y="36.650987"/>
     <use style="fill:#d62728;stroke:#ffffff;stroke-linejoin:miter;stroke-width:0.75;" x="719.490821" xlink:href="#m637546d683" y="36.650987"/>
     <use style="fill:#d62728;stroke:#ffffff;stroke-linejoin:miter;stroke-width:0.75;" x="721.534654" xlink:href="#m637546d683" y="36.650987"/>
     <use style="fill:#d62728;stroke:#ffffff;stroke-linejoin:miter;stroke-width:0.75;" x="723.550678" xlink:href="#m637546d683" y="36.650987"/>
     <use style="fill:#d62728;stroke:#ffffff;stroke-linejoin:miter;stroke-width:0.75;" x="725.539641" xlink:href="#m637546d683" y="36.650987"/>
     <use style="fill:#d62728;stroke:#ffffff;stroke-linejoin:miter;stroke-width:0.75;" x="727.50226" xlink:href="#m637546d683" y="36.650987"/>
     <use style="fill:#d62728;stroke:#ffffff;stroke-linejoin:miter;stroke-width:0.75;" x="729.439222" xlink:href="#m637546d683" y="36.650987"/>
     <use style="fill:#d62728;stroke:#ffffff;stroke-linejoin:miter;stroke-width:0.75;" x="731.351191" xlink:href="#m637546d683" y="36.650987"/>
     <use style="fill:#d62728;stroke:#ffffff;stroke-linejoin:miter;stroke-width:0.75;" x="733.238803" xlink:href="#m637546d683" y="36.650987"/>
     <use style="fill:#d62728;stroke:#ffffff;stroke-linejoin:miter;stroke-width:0.75;" x="735.10267" xlink:href="#m637546d683" y="36.650987"/>
    </g>
   </g>
   <g id="line2d_37">
    <path clip-path="url(#p3a95a38fe3)" d="M 85.79358 67.289216 
L 188.501026 67.153649 
L 248.581031 66.950298 
L 291.208472 66.950298 
L 324.272885 66.746947 
L 351.288477 66.746947 
L 374.129835 66.543595 
L 393.915919 66.543595 
L 411.368482 66.408028 
L 426.980331 66.408028 
L 441.102967 66.408028 
L 453.995923 66.272461 
L 465.856294 61.256467 
L 476.837281 60.307496 
L 487.060336 59.83301 
L 496.623365 59.765226 
L 505.60645 59.561875 
L 514.075928 59.561875 
L 522.087367 59.561875 
L 529.687778 59.561875 
L 536.917286 59.561875 
L 543.810413 59.561875 
L 550.397077 59.561875 
L 556.70337 59.358524 
L 562.75219 59.358524 
L 568.56374 59.358524 
L 574.155933 58.070634 
L 579.544727 57.935066 
L 584.744402 57.799499 
L 589.767782 57.799499 
L 594.626432 57.799499 
L 599.330812 57.799499 
L 603.890418 57.799499 
L 608.313897 57.799499 
L 612.60914 57.799499 
L 616.783374 57.799499 
L 620.843232 57.799499 
L 624.794813 57.799499 
L 628.643745 57.799499 
L 632.395224 36.312068 
L 636.054065 36.108717 
L 639.624732 36.108717 
L 643.111376 36.108717 
L 646.51786 36.108717 
L 649.847787 36.108717 
L 653.104523 36.108717 
L 656.291216 36.108717 
L 659.410816 36.108717 
L 662.46609 36.108717 
L 665.459637 36.108717 
L 668.393901 36.108717 
L 671.271186 36.108717 
L 674.093663 36.108717 
L 676.863379 36.108717 
L 679.582272 36.108717 
L 682.252174 36.108717 
L 684.874818 36.108717 
L 687.451849 36.108717 
L 689.984825 36.108717 
L 692.475229 36.108717 
L 694.924467 36.108717 
L 697.333878 36.108717 
L 699.704737 36.108717 
L 702.038258 36.108717 
L 704.335599 36.108717 
L 706.597865 36.108717 
L 708.82611 36.108717 
L 711.021343 36.108717 
L 713.184528 36.108717 
L 715.316586 36.108717 
L 717.418402 36.108717 
L 719.490821 36.108717 
L 721.534654 36.108717 
L 723.550678 36.108717 
L 725.539641 36.108717 
L 727.50226 36.108717 
L 729.439222 36.108717 
L 731.351191 36.108717 
L 733.238803 36.108717 
L 735.10267 36.108717 
" style="fill:none;stroke:#1f77b4;stroke-linecap:square;stroke-width:1.5;"/>
    <defs>
     <path d="M 0 3 
C 0.795609 3 1.55874 2.683901 2.12132 2.12132 
C 2.683901 1.55874 3 0.795609 3 0 
C 3 -0.795609 2.683901 -1.55874 2.12132 -2.12132 
C 1.55874 -2.683901 0.795609 -3 0 -3 
C -0.795609 -3 -1.55874 -2.683901 -2.12132 -2.12132 
C -2.683901 -1.55874 -3 -0.795609 -3 0 
C -3 0.795609 -2.683901 1.55874 -2.12132 2.12132 
C -1.55874 2.683901 -0.795609 3 0 3 
z
" id="ma66eff661d" style="stroke:#ffffff;stroke-width:0.75;"/>
    </defs>
    <g clip-path="url(#p3a95a38fe3)">
     <use style="fill:#1f77b4;stroke:#ffffff;stroke-width:0.75;" x="85.79358" xlink:href="#ma66eff661d" y="67.289216"/>
     <use style="fill:#1f77b4;stroke:#ffffff;stroke-width:0.75;" x="188.501026" xlink:href="#ma66eff661d" y="67.153649"/>
     <use style="fill:#1f77b4;stroke:#ffffff;stroke-width:0.75;" x="248.581031" xlink:href="#ma66eff661d" y="66.950298"/>
     <use style="fill:#1f77b4;stroke:#ffffff;stroke-width:0.75;" x="291.208472" xlink:href="#ma66eff661d" y="66.950298"/>
     <use style="fill:#1f77b4;stroke:#ffffff;stroke-width:0.75;" x="324.272885" xlink:href="#ma66eff661d" y="66.746947"/>
     <use style="fill:#1f77b4;stroke:#ffffff;stroke-width:0.75;" x="351.288477" xlink:href="#ma66eff661d" y="66.746947"/>
     <use style="fill:#1f77b4;stroke:#ffffff;stroke-width:0.75;" x="374.129835" xlink:href="#ma66eff661d" y="66.543595"/>
     <use style="fill:#1f77b4;stroke:#ffffff;stroke-width:0.75;" x="393.915919" xlink:href="#ma66eff661d" y="66.543595"/>
     <use style="fill:#1f77b4;stroke:#ffffff;stroke-width:0.75;" x="411.368482" xlink:href="#ma66eff661d" y="66.408028"/>
     <use style="fill:#1f77b4;stroke:#ffffff;stroke-width:0.75;" x="426.980331" xlink:href="#ma66eff661d" y="66.408028"/>
     <use style="fill:#1f77b4;stroke:#ffffff;stroke-width:0.75;" x="441.102967" xlink:href="#ma66eff661d" y="66.408028"/>
     <use style="fill:#1f77b4;stroke:#ffffff;stroke-width:0.75;" x="453.995923" xlink:href="#ma66eff661d" y="66.272461"/>
     <use style="fill:#1f77b4;stroke:#ffffff;stroke-width:0.75;" x="465.856294" xlink:href="#ma66eff661d" y="61.256467"/>
     <use style="fill:#1f77b4;stroke:#ffffff;stroke-width:0.75;" x="476.837281" xlink:href="#ma66eff661d" y="60.307496"/>
     <use style="fill:#1f77b4;stroke:#ffffff;stroke-width:0.75;" x="487.060336" xlink:href="#ma66eff661d" y="59.83301"/>
     <use style="fill:#1f77b4;stroke:#ffffff;stroke-width:0.75;" x="496.623365" xlink:href="#ma66eff661d" y="59.765226"/>
     <use style="fill:#1f77b4;stroke:#ffffff;stroke-width:0.75;" x="505.60645" xlink:href="#ma66eff661d" y="59.561875"/>
     <use style="fill:#1f77b4;stroke:#ffffff;stroke-width:0.75;" x="514.075928" xlink:href="#ma66eff661d" y="59.561875"/>
     <use style="fill:#1f77b4;stroke:#ffffff;stroke-width:0.75;" x="522.087367" xlink:href="#ma66eff661d" y="59.561875"/>
     <use style="fill:#1f77b4;stroke:#ffffff;stroke-width:0.75;" x="529.687778" xlink:href="#ma66eff661d" y="59.561875"/>
     <use style="fill:#1f77b4;stroke:#ffffff;stroke-width:0.75;" x="536.917286" xlink:href="#ma66eff661d" y="59.561875"/>
     <use style="fill:#1f77b4;stroke:#ffffff;stroke-width:0.75;" x="543.810413" xlink:href="#ma66eff661d" y="59.561875"/>
     <use style="fill:#1f77b4;stroke:#ffffff;stroke-width:0.75;" x="550.397077" xlink:href="#ma66eff661d" y="59.561875"/>
     <use style="fill:#1f77b4;stroke:#ffffff;stroke-width:0.75;" x="556.70337" xlink:href="#ma66eff661d" y="59.358524"/>
     <use style="fill:#1f77b4;stroke:#ffffff;stroke-width:0.75;" x="562.75219" xlink:href="#ma66eff661d" y="59.358524"/>
     <use style="fill:#1f77b4;stroke:#ffffff;stroke-width:0.75;" x="568.56374" xlink:href="#ma66eff661d" y="59.358524"/>
     <use style="fill:#1f77b4;stroke:#ffffff;stroke-width:0.75;" x="574.155933" xlink:href="#ma66eff661d" y="58.070634"/>
     <use style="fill:#1f77b4;stroke:#ffffff;stroke-width:0.75;" x="579.544727" xlink:href="#ma66eff661d" y="57.935066"/>
     <use style="fill:#1f77b4;stroke:#ffffff;stroke-width:0.75;" x="584.744402" xlink:href="#ma66eff661d" y="57.799499"/>
     <use style="fill:#1f77b4;stroke:#ffffff;stroke-width:0.75;" x="589.767782" xlink:href="#ma66eff661d" y="57.799499"/>
     <use style="fill:#1f77b4;stroke:#ffffff;stroke-width:0.75;" x="594.626432" xlink:href="#ma66eff661d" y="57.799499"/>
     <use style="fill:#1f77b4;stroke:#ffffff;stroke-width:0.75;" x="599.330812" xlink:href="#ma66eff661d" y="57.799499"/>
     <use style="fill:#1f77b4;stroke:#ffffff;stroke-width:0.75;" x="603.890418" xlink:href="#ma66eff661d" y="57.799499"/>
     <use style="fill:#1f77b4;stroke:#ffffff;stroke-width:0.75;" x="608.313897" xlink:href="#ma66eff661d" y="57.799499"/>
     <use style="fill:#1f77b4;stroke:#ffffff;stroke-width:0.75;" x="612.60914" xlink:href="#ma66eff661d" y="57.799499"/>
     <use style="fill:#1f77b4;stroke:#ffffff;stroke-width:0.75;" x="616.783374" xlink:href="#ma66eff661d" y="57.799499"/>
     <use style="fill:#1f77b4;stroke:#ffffff;stroke-width:0.75;" x="620.843232" xlink:href="#ma66eff661d" y="57.799499"/>
     <use style="fill:#1f77b4;stroke:#ffffff;stroke-width:0.75;" x="624.794813" xlink:href="#ma66eff661d" y="57.799499"/>
     <use style="fill:#1f77b4;stroke:#ffffff;stroke-width:0.75;" x="628.643745" xlink:href="#ma66eff661d" y="57.799499"/>
     <use style="fill:#1f77b4;stroke:#ffffff;stroke-width:0.75;" x="632.395224" xlink:href="#ma66eff661d" y="36.312068"/>
     <use style="fill:#1f77b4;stroke:#ffffff;stroke-width:0.75;" x="636.054065" xlink:href="#ma66eff661d" y="36.108717"/>
     <use style="fill:#1f77b4;stroke:#ffffff;stroke-width:0.75;" x="639.624732" xlink:href="#ma66eff661d" y="36.108717"/>
     <use style="fill:#1f77b4;stroke:#ffffff;stroke-width:0.75;" x="643.111376" xlink:href="#ma66eff661d" y="36.108717"/>
     <use style="fill:#1f77b4;stroke:#ffffff;stroke-width:0.75;" x="646.51786" xlink:href="#ma66eff661d" y="36.108717"/>
     <use style="fill:#1f77b4;stroke:#ffffff;stroke-width:0.75;" x="649.847787" xlink:href="#ma66eff661d" y="36.108717"/>
     <use style="fill:#1f77b4;stroke:#ffffff;stroke-width:0.75;" x="653.104523" xlink:href="#ma66eff661d" y="36.108717"/>
     <use style="fill:#1f77b4;stroke:#ffffff;stroke-width:0.75;" x="656.291216" xlink:href="#ma66eff661d" y="36.108717"/>
     <use style="fill:#1f77b4;stroke:#ffffff;stroke-width:0.75;" x="659.410816" xlink:href="#ma66eff661d" y="36.108717"/>
     <use style="fill:#1f77b4;stroke:#ffffff;stroke-width:0.75;" x="662.46609" xlink:href="#ma66eff661d" y="36.108717"/>
     <use style="fill:#1f77b4;stroke:#ffffff;stroke-width:0.75;" x="665.459637" xlink:href="#ma66eff661d" y="36.108717"/>
     <use style="fill:#1f77b4;stroke:#ffffff;stroke-width:0.75;" x="668.393901" xlink:href="#ma66eff661d" y="36.108717"/>
     <use style="fill:#1f77b4;stroke:#ffffff;stroke-width:0.75;" x="671.271186" xlink:href="#ma66eff661d" y="36.108717"/>
     <use style="fill:#1f77b4;stroke:#ffffff;stroke-width:0.75;" x="674.093663" xlink:href="#ma66eff661d" y="36.108717"/>
     <use style="fill:#1f77b4;stroke:#ffffff;stroke-width:0.75;" x="676.863379" xlink:href="#ma66eff661d" y="36.108717"/>
     <use style="fill:#1f77b4;stroke:#ffffff;stroke-width:0.75;" x="679.582272" xlink:href="#ma66eff661d" y="36.108717"/>
     <use style="fill:#1f77b4;stroke:#ffffff;stroke-width:0.75;" x="682.252174" xlink:href="#ma66eff661d" y="36.108717"/>
     <use style="fill:#1f77b4;stroke:#ffffff;stroke-width:0.75;" x="684.874818" xlink:href="#ma66eff661d" y="36.108717"/>
     <use style="fill:#1f77b4;stroke:#ffffff;stroke-width:0.75;" x="687.451849" xlink:href="#ma66eff661d" y="36.108717"/>
     <use style="fill:#1f77b4;stroke:#ffffff;stroke-width:0.75;" x="689.984825" xlink:href="#ma66eff661d" y="36.108717"/>
     <use style="fill:#1f77b4;stroke:#ffffff;stroke-width:0.75;" x="692.475229" xlink:href="#ma66eff661d" y="36.108717"/>
     <use style="fill:#1f77b4;stroke:#ffffff;stroke-width:0.75;" x="694.924467" xlink:href="#ma66eff661d" y="36.108717"/>
     <use style="fill:#1f77b4;stroke:#ffffff;stroke-width:0.75;" x="697.333878" xlink:href="#ma66eff661d" y="36.108717"/>
     <use style="fill:#1f77b4;stroke:#ffffff;stroke-width:0.75;" x="699.704737" xlink:href="#ma66eff661d" y="36.108717"/>
     <use style="fill:#1f77b4;stroke:#ffffff;stroke-width:0.75;" x="702.038258" xlink:href="#ma66eff661d" y="36.108717"/>
     <use style="fill:#1f77b4;stroke:#ffffff;stroke-width:0.75;" x="704.335599" xlink:href="#ma66eff661d" y="36.108717"/>
     <use style="fill:#1f77b4;stroke:#ffffff;stroke-width:0.75;" x="706.597865" xlink:href="#ma66eff661d" y="36.108717"/>
     <use style="fill:#1f77b4;stroke:#ffffff;stroke-width:0.75;" x="708.82611" xlink:href="#ma66eff661d" y="36.108717"/>
     <use style="fill:#1f77b4;stroke:#ffffff;stroke-width:0.75;" x="711.021343" xlink:href="#ma66eff661d" y="36.108717"/>
     <use style="fill:#1f77b4;stroke:#ffffff;stroke-width:0.75;" x="713.184528" xlink:href="#ma66eff661d" y="36.108717"/>
     <use style="fill:#1f77b4;stroke:#ffffff;stroke-width:0.75;" x="715.316586" xlink:href="#ma66eff661d" y="36.108717"/>
     <use style="fill:#1f77b4;stroke:#ffffff;stroke-width:0.75;" x="717.418402" xlink:href="#ma66eff661d" y="36.108717"/>
     <use style="fill:#1f77b4;stroke:#ffffff;stroke-width:0.75;" x="719.490821" xlink:href="#ma66eff661d" y="36.108717"/>
     <use style="fill:#1f77b4;stroke:#ffffff;stroke-width:0.75;" x="721.534654" xlink:href="#ma66eff661d" y="36.108717"/>
     <use style="fill:#1f77b4;stroke:#ffffff;stroke-width:0.75;" x="723.550678" xlink:href="#ma66eff661d" y="36.108717"/>
     <use style="fill:#1f77b4;stroke:#ffffff;stroke-width:0.75;" x="725.539641" xlink:href="#ma66eff661d" y="36.108717"/>
     <use style="fill:#1f77b4;stroke:#ffffff;stroke-width:0.75;" x="727.50226" xlink:href="#ma66eff661d" y="36.108717"/>
     <use style="fill:#1f77b4;stroke:#ffffff;stroke-width:0.75;" x="729.439222" xlink:href="#ma66eff661d" y="36.108717"/>
     <use style="fill:#1f77b4;stroke:#ffffff;stroke-width:0.75;" x="731.351191" xlink:href="#ma66eff661d" y="36.108717"/>
     <use style="fill:#1f77b4;stroke:#ffffff;stroke-width:0.75;" x="733.238803" xlink:href="#ma66eff661d" y="36.108717"/>
     <use style="fill:#1f77b4;stroke:#ffffff;stroke-width:0.75;" x="735.10267" xlink:href="#ma66eff661d" y="36.108717"/>
    </g>
   </g>
   <g id="line2d_38">
    <path clip-path="url(#p3a95a38fe3)" d="M 85.79358 67.695918 
L 188.501026 66.950298 
L 248.581031 66.882514 
L 291.208472 66.475812 
L 324.272885 65.594624 
L 351.288477 65.391273 
L 374.129835 65.391273 
L 393.915919 64.849003 
L 411.368482 61.324251 
L 426.980331 61.188684 
L 441.102967 60.985333 
L 453.995923 60.917549 
L 465.856294 60.917549 
L 476.837281 60.917549 
L 487.060336 59.83301 
L 496.623365 59.83301 
L 505.60645 59.83301 
L 514.075928 59.765226 
L 522.087367 59.765226 
L 529.687778 59.765226 
L 536.917286 59.697442 
L 543.810413 59.697442 
L 550.397077 59.697442 
L 556.70337 59.697442 
L 562.75219 59.697442 
L 568.56374 59.697442 
L 574.155933 58.612903 
L 579.544727 58.612903 
L 584.744402 58.612903 
L 589.767782 58.612903 
L 594.626432 58.612903 
L 599.330812 58.54512 
L 603.890418 58.54512 
L 608.313897 58.138418 
L 612.60914 58.138418 
L 616.783374 58.138418 
L 620.843232 57.596148 
L 624.794813 57.053878 
L 628.643745 57.053878 
L 632.395224 56.850527 
L 636.054065 56.850527 
L 639.624732 56.850527 
L 643.111376 56.850527 
L 646.51786 56.850527 
L 649.847787 56.850527 
L 653.104523 56.850527 
L 656.291216 56.850527 
L 659.410816 56.850527 
L 662.46609 56.850527 
L 665.459637 56.850527 
L 668.393901 56.850527 
L 671.271186 56.850527 
L 674.093663 56.850527 
L 676.863379 56.850527 
L 679.582272 56.850527 
L 682.252174 56.850527 
L 684.874818 56.850527 
L 687.451849 56.850527 
L 689.984825 56.850527 
L 692.475229 56.850527 
L 694.924467 56.850527 
L 697.333878 56.850527 
L 699.704737 56.850527 
L 702.038258 38.210012 
L 704.335599 38.210012 
L 706.597865 38.210012 
L 708.82611 38.210012 
L 711.021343 38.210012 
L 713.184528 38.210012 
L 715.316586 38.210012 
L 717.418402 38.210012 
L 719.490821 38.210012 
L 721.534654 38.210012 
L 723.550678 38.210012 
L 725.539641 38.210012 
L 727.50226 38.210012 
L 729.439222 38.210012 
L 731.351191 38.210012 
L 733.238803 38.210012 
L 735.10267 38.210012 
" style="fill:none;stroke:#98df8a;stroke-linecap:square;stroke-width:1.5;"/>
    <defs>
     <path d="M -0 3 
L 3 -3 
L -3 -3 
z
" id="m99b0cdbbde" style="stroke:#ffffff;stroke-linejoin:miter;stroke-width:0.75;"/>
    </defs>
    <g clip-path="url(#p3a95a38fe3)">
     <use style="fill:#98df8a;stroke:#ffffff;stroke-linejoin:miter;stroke-width:0.75;" x="85.79358" xlink:href="#m99b0cdbbde" y="67.695918"/>
     <use style="fill:#98df8a;stroke:#ffffff;stroke-linejoin:miter;stroke-width:0.75;" x="188.501026" xlink:href="#m99b0cdbbde" y="66.950298"/>
     <use style="fill:#98df8a;stroke:#ffffff;stroke-linejoin:miter;stroke-width:0.75;" x="248.581031" xlink:href="#m99b0cdbbde" y="66.882514"/>
     <use style="fill:#98df8a;stroke:#ffffff;stroke-linejoin:miter;stroke-width:0.75;" x="291.208472" xlink:href="#m99b0cdbbde" y="66.475812"/>
     <use style="fill:#98df8a;stroke:#ffffff;stroke-linejoin:miter;stroke-width:0.75;" x="324.272885" xlink:href="#m99b0cdbbde" y="65.594624"/>
     <use style="fill:#98df8a;stroke:#ffffff;stroke-linejoin:miter;stroke-width:0.75;" x="351.288477" xlink:href="#m99b0cdbbde" y="65.391273"/>
     <use style="fill:#98df8a;stroke:#ffffff;stroke-linejoin:miter;stroke-width:0.75;" x="374.129835" xlink:href="#m99b0cdbbde" y="65.391273"/>
     <use style="fill:#98df8a;stroke:#ffffff;stroke-linejoin:miter;stroke-width:0.75;" x="393.915919" xlink:href="#m99b0cdbbde" y="64.849003"/>
     <use style="fill:#98df8a;stroke:#ffffff;stroke-linejoin:miter;stroke-width:0.75;" x="411.368482" xlink:href="#m99b0cdbbde" y="61.324251"/>
     <use style="fill:#98df8a;stroke:#ffffff;stroke-linejoin:miter;stroke-width:0.75;" x="426.980331" xlink:href="#m99b0cdbbde" y="61.188684"/>
     <use style="fill:#98df8a;stroke:#ffffff;stroke-linejoin:miter;stroke-width:0.75;" x="441.102967" xlink:href="#m99b0cdbbde" y="60.985333"/>
     <use style="fill:#98df8a;stroke:#ffffff;stroke-linejoin:miter;stroke-width:0.75;" x="453.995923" xlink:href="#m99b0cdbbde" y="60.917549"/>
     <use style="fill:#98df8a;stroke:#ffffff;stroke-linejoin:miter;stroke-width:0.75;" x="465.856294" xlink:href="#m99b0cdbbde" y="60.917549"/>
     <use style="fill:#98df8a;stroke:#ffffff;stroke-linejoin:miter;stroke-width:0.75;" x="476.837281" xlink:href="#m99b0cdbbde" y="60.917549"/>
     <use style="fill:#98df8a;stroke:#ffffff;stroke-linejoin:miter;stroke-width:0.75;" x="487.060336" xlink:href="#m99b0cdbbde" y="59.83301"/>
     <use style="fill:#98df8a;stroke:#ffffff;stroke-linejoin:miter;stroke-width:0.75;" x="496.623365" xlink:href="#m99b0cdbbde" y="59.83301"/>
     <use style="fill:#98df8a;stroke:#ffffff;stroke-linejoin:miter;stroke-width:0.75;" x="505.60645" xlink:href="#m99b0cdbbde" y="59.83301"/>
     <use style="fill:#98df8a;stroke:#ffffff;stroke-linejoin:miter;stroke-width:0.75;" x="514.075928" xlink:href="#m99b0cdbbde" y="59.765226"/>
     <use style="fill:#98df8a;stroke:#ffffff;stroke-linejoin:miter;stroke-width:0.75;" x="522.087367" xlink:href="#m99b0cdbbde" y="59.765226"/>
     <use style="fill:#98df8a;stroke:#ffffff;stroke-linejoin:miter;stroke-width:0.75;" x="529.687778" xlink:href="#m99b0cdbbde" y="59.765226"/>
     <use style="fill:#98df8a;stroke:#ffffff;stroke-linejoin:miter;stroke-width:0.75;" x="536.917286" xlink:href="#m99b0cdbbde" y="59.697442"/>
     <use style="fill:#98df8a;stroke:#ffffff;stroke-linejoin:miter;stroke-width:0.75;" x="543.810413" xlink:href="#m99b0cdbbde" y="59.697442"/>
     <use style="fill:#98df8a;stroke:#ffffff;stroke-linejoin:miter;stroke-width:0.75;" x="550.397077" xlink:href="#m99b0cdbbde" y="59.697442"/>
     <use style="fill:#98df8a;stroke:#ffffff;stroke-linejoin:miter;stroke-width:0.75;" x="556.70337" xlink:href="#m99b0cdbbde" y="59.697442"/>
     <use style="fill:#98df8a;stroke:#ffffff;stroke-linejoin:miter;stroke-width:0.75;" x="562.75219" xlink:href="#m99b0cdbbde" y="59.697442"/>
     <use style="fill:#98df8a;stroke:#ffffff;stroke-linejoin:miter;stroke-width:0.75;" x="568.56374" xlink:href="#m99b0cdbbde" y="59.697442"/>
     <use style="fill:#98df8a;stroke:#ffffff;stroke-linejoin:miter;stroke-width:0.75;" x="574.155933" xlink:href="#m99b0cdbbde" y="58.612903"/>
     <use style="fill:#98df8a;stroke:#ffffff;stroke-linejoin:miter;stroke-width:0.75;" x="579.544727" xlink:href="#m99b0cdbbde" y="58.612903"/>
     <use style="fill:#98df8a;stroke:#ffffff;stroke-linejoin:miter;stroke-width:0.75;" x="584.744402" xlink:href="#m99b0cdbbde" y="58.612903"/>
     <use style="fill:#98df8a;stroke:#ffffff;stroke-linejoin:miter;stroke-width:0.75;" x="589.767782" xlink:href="#m99b0cdbbde" y="58.612903"/>
     <use style="fill:#98df8a;stroke:#ffffff;stroke-linejoin:miter;stroke-width:0.75;" x="594.626432" xlink:href="#m99b0cdbbde" y="58.612903"/>
     <use style="fill:#98df8a;stroke:#ffffff;stroke-linejoin:miter;stroke-width:0.75;" x="599.330812" xlink:href="#m99b0cdbbde" y="58.54512"/>
     <use style="fill:#98df8a;stroke:#ffffff;stroke-linejoin:miter;stroke-width:0.75;" x="603.890418" xlink:href="#m99b0cdbbde" y="58.54512"/>
     <use style="fill:#98df8a;stroke:#ffffff;stroke-linejoin:miter;stroke-width:0.75;" x="608.313897" xlink:href="#m99b0cdbbde" y="58.138418"/>
     <use style="fill:#98df8a;stroke:#ffffff;stroke-linejoin:miter;stroke-width:0.75;" x="612.60914" xlink:href="#m99b0cdbbde" y="58.138418"/>
     <use style="fill:#98df8a;stroke:#ffffff;stroke-linejoin:miter;stroke-width:0.75;" x="616.783374" xlink:href="#m99b0cdbbde" y="58.138418"/>
     <use style="fill:#98df8a;stroke:#ffffff;stroke-linejoin:miter;stroke-width:0.75;" x="620.843232" xlink:href="#m99b0cdbbde" y="57.596148"/>
     <use style="fill:#98df8a;stroke:#ffffff;stroke-linejoin:miter;stroke-width:0.75;" x="624.794813" xlink:href="#m99b0cdbbde" y="57.053878"/>
     <use style="fill:#98df8a;stroke:#ffffff;stroke-linejoin:miter;stroke-width:0.75;" x="628.643745" xlink:href="#m99b0cdbbde" y="57.053878"/>
     <use style="fill:#98df8a;stroke:#ffffff;stroke-linejoin:miter;stroke-width:0.75;" x="632.395224" xlink:href="#m99b0cdbbde" y="56.850527"/>
     <use style="fill:#98df8a;stroke:#ffffff;stroke-linejoin:miter;stroke-width:0.75;" x="636.054065" xlink:href="#m99b0cdbbde" y="56.850527"/>
     <use style="fill:#98df8a;stroke:#ffffff;stroke-linejoin:miter;stroke-width:0.75;" x="639.624732" xlink:href="#m99b0cdbbde" y="56.850527"/>
     <use style="fill:#98df8a;stroke:#ffffff;stroke-linejoin:miter;stroke-width:0.75;" x="643.111376" xlink:href="#m99b0cdbbde" y="56.850527"/>
     <use style="fill:#98df8a;stroke:#ffffff;stroke-linejoin:miter;stroke-width:0.75;" x="646.51786" xlink:href="#m99b0cdbbde" y="56.850527"/>
     <use style="fill:#98df8a;stroke:#ffffff;stroke-linejoin:miter;stroke-width:0.75;" x="649.847787" xlink:href="#m99b0cdbbde" y="56.850527"/>
     <use style="fill:#98df8a;stroke:#ffffff;stroke-linejoin:miter;stroke-width:0.75;" x="653.104523" xlink:href="#m99b0cdbbde" y="56.850527"/>
     <use style="fill:#98df8a;stroke:#ffffff;stroke-linejoin:miter;stroke-width:0.75;" x="656.291216" xlink:href="#m99b0cdbbde" y="56.850527"/>
     <use style="fill:#98df8a;stroke:#ffffff;stroke-linejoin:miter;stroke-width:0.75;" x="659.410816" xlink:href="#m99b0cdbbde" y="56.850527"/>
     <use style="fill:#98df8a;stroke:#ffffff;stroke-linejoin:miter;stroke-width:0.75;" x="662.46609" xlink:href="#m99b0cdbbde" y="56.850527"/>
     <use style="fill:#98df8a;stroke:#ffffff;stroke-linejoin:miter;stroke-width:0.75;" x="665.459637" xlink:href="#m99b0cdbbde" y="56.850527"/>
     <use style="fill:#98df8a;stroke:#ffffff;stroke-linejoin:miter;stroke-width:0.75;" x="668.393901" xlink:href="#m99b0cdbbde" y="56.850527"/>
     <use style="fill:#98df8a;stroke:#ffffff;stroke-linejoin:miter;stroke-width:0.75;" x="671.271186" xlink:href="#m99b0cdbbde" y="56.850527"/>
     <use style="fill:#98df8a;stroke:#ffffff;stroke-linejoin:miter;stroke-width:0.75;" x="674.093663" xlink:href="#m99b0cdbbde" y="56.850527"/>
     <use style="fill:#98df8a;stroke:#ffffff;stroke-linejoin:miter;stroke-width:0.75;" x="676.863379" xlink:href="#m99b0cdbbde" y="56.850527"/>
     <use style="fill:#98df8a;stroke:#ffffff;stroke-linejoin:miter;stroke-width:0.75;" x="679.582272" xlink:href="#m99b0cdbbde" y="56.850527"/>
     <use style="fill:#98df8a;stroke:#ffffff;stroke-linejoin:miter;stroke-width:0.75;" x="682.252174" xlink:href="#m99b0cdbbde" y="56.850527"/>
     <use style="fill:#98df8a;stroke:#ffffff;stroke-linejoin:miter;stroke-width:0.75;" x="684.874818" xlink:href="#m99b0cdbbde" y="56.850527"/>
     <use style="fill:#98df8a;stroke:#ffffff;stroke-linejoin:miter;stroke-width:0.75;" x="687.451849" xlink:href="#m99b0cdbbde" y="56.850527"/>
     <use style="fill:#98df8a;stroke:#ffffff;stroke-linejoin:miter;stroke-width:0.75;" x="689.984825" xlink:href="#m99b0cdbbde" y="56.850527"/>
     <use style="fill:#98df8a;stroke:#ffffff;stroke-linejoin:miter;stroke-width:0.75;" x="692.475229" xlink:href="#m99b0cdbbde" y="56.850527"/>
     <use style="fill:#98df8a;stroke:#ffffff;stroke-linejoin:miter;stroke-width:0.75;" x="694.924467" xlink:href="#m99b0cdbbde" y="56.850527"/>
     <use style="fill:#98df8a;stroke:#ffffff;stroke-linejoin:miter;stroke-width:0.75;" x="697.333878" xlink:href="#m99b0cdbbde" y="56.850527"/>
     <use style="fill:#98df8a;stroke:#ffffff;stroke-linejoin:miter;stroke-width:0.75;" x="699.704737" xlink:href="#m99b0cdbbde" y="56.850527"/>
     <use style="fill:#98df8a;stroke:#ffffff;stroke-linejoin:miter;stroke-width:0.75;" x="702.038258" xlink:href="#m99b0cdbbde" y="38.210012"/>
     <use style="fill:#98df8a;stroke:#ffffff;stroke-linejoin:miter;stroke-width:0.75;" x="704.335599" xlink:href="#m99b0cdbbde" y="38.210012"/>
     <use style="fill:#98df8a;stroke:#ffffff;stroke-linejoin:miter;stroke-width:0.75;" x="706.597865" xlink:href="#m99b0cdbbde" y="38.210012"/>
     <use style="fill:#98df8a;stroke:#ffffff;stroke-linejoin:miter;stroke-width:0.75;" x="708.82611" xlink:href="#m99b0cdbbde" y="38.210012"/>
     <use style="fill:#98df8a;stroke:#ffffff;stroke-linejoin:miter;stroke-width:0.75;" x="711.021343" xlink:href="#m99b0cdbbde" y="38.210012"/>
     <use style="fill:#98df8a;stroke:#ffffff;stroke-linejoin:miter;stroke-width:0.75;" x="713.184528" xlink:href="#m99b0cdbbde" y="38.210012"/>
     <use style="fill:#98df8a;stroke:#ffffff;stroke-linejoin:miter;stroke-width:0.75;" x="715.316586" xlink:href="#m99b0cdbbde" y="38.210012"/>
     <use style="fill:#98df8a;stroke:#ffffff;stroke-linejoin:miter;stroke-width:0.75;" x="717.418402" xlink:href="#m99b0cdbbde" y="38.210012"/>
     <use style="fill:#98df8a;stroke:#ffffff;stroke-linejoin:miter;stroke-width:0.75;" x="719.490821" xlink:href="#m99b0cdbbde" y="38.210012"/>
     <use style="fill:#98df8a;stroke:#ffffff;stroke-linejoin:miter;stroke-width:0.75;" x="721.534654" xlink:href="#m99b0cdbbde" y="38.210012"/>
     <use style="fill:#98df8a;stroke:#ffffff;stroke-linejoin:miter;stroke-width:0.75;" x="723.550678" xlink:href="#m99b0cdbbde" y="38.210012"/>
     <use style="fill:#98df8a;stroke:#ffffff;stroke-linejoin:miter;stroke-width:0.75;" x="725.539641" xlink:href="#m99b0cdbbde" y="38.210012"/>
     <use style="fill:#98df8a;stroke:#ffffff;stroke-linejoin:miter;stroke-width:0.75;" x="727.50226" xlink:href="#m99b0cdbbde" y="38.210012"/>
     <use style="fill:#98df8a;stroke:#ffffff;stroke-linejoin:miter;stroke-width:0.75;" x="729.439222" xlink:href="#m99b0cdbbde" y="38.210012"/>
     <use style="fill:#98df8a;stroke:#ffffff;stroke-linejoin:miter;stroke-width:0.75;" x="731.351191" xlink:href="#m99b0cdbbde" y="38.210012"/>
     <use style="fill:#98df8a;stroke:#ffffff;stroke-linejoin:miter;stroke-width:0.75;" x="733.238803" xlink:href="#m99b0cdbbde" y="38.210012"/>
     <use style="fill:#98df8a;stroke:#ffffff;stroke-linejoin:miter;stroke-width:0.75;" x="735.10267" xlink:href="#m99b0cdbbde" y="38.210012"/>
    </g>
   </g>
   <g id="line2d_39"/>
   <g id="line2d_40"/>
   <g id="line2d_41"/>
   <g id="line2d_42">
    <path clip-path="url(#p3a95a38fe3)" d="M 735.10267 288.430125 
L 735.10267 22.318125 
" style="fill:none;stroke:#ff0000;stroke-linecap:square;stroke-width:1.5;"/>
   </g>
   <g id="patch_3">
    <path d="M 53.328125 258.371446 
L 53.328125 55.020368 
" style="fill:none;stroke:#000000;stroke-linecap:square;stroke-linejoin:miter;stroke-width:0.8;"/>
   </g>
   <g id="patch_4">
    <path d="M 85.79358 288.430125 
L 735.104728 288.430125 
" style="fill:none;stroke:#000000;stroke-linecap:square;stroke-linejoin:miter;stroke-width:0.8;"/>
   </g>
   <g id="text_22">
    <!-- libjpeg-turbo-07-2017 (20h, 5 trials/fuzzer) -->
    <g transform="translate(281.803438 16.318125)scale(0.12 -0.12)">
     <defs>
      <path d="M 603 4863 
L 1178 4863 
L 1178 0 
L 603 0 
L 603 4863 
z
" id="DejaVuSans-6c" transform="scale(0.015625)"/>
      <path d="M 3116 1747 
Q 3116 2381 2855 2742 
Q 2594 3103 2138 3103 
Q 1681 3103 1420 2742 
Q 1159 2381 1159 1747 
Q 1159 1113 1420 752 
Q 1681 391 2138 391 
Q 2594 391 2855 752 
Q 3116 1113 3116 1747 
z
M 1159 2969 
Q 1341 3281 1617 3432 
Q 1894 3584 2278 3584 
Q 2916 3584 3314 3078 
Q 3713 2572 3713 1747 
Q 3713 922 3314 415 
Q 2916 -91 2278 -91 
Q 1894 -91 1617 61 
Q 1341 213 1159 525 
L 1159 0 
L 581 0 
L 581 4863 
L 1159 4863 
L 1159 2969 
z
" id="DejaVuSans-62" transform="scale(0.015625)"/>
      <path d="M 603 3500 
L 1178 3500 
L 1178 -63 
Q 1178 -731 923 -1031 
Q 669 -1331 103 -1331 
L -116 -1331 
L -116 -844 
L 38 -844 
Q 366 -844 484 -692 
Q 603 -541 603 -63 
L 603 3500 
z
M 603 4863 
L 1178 4863 
L 1178 4134 
L 603 4134 
L 603 4863 
z
" id="DejaVuSans-6a" transform="scale(0.015625)"/>
      <path d="M 1159 525 
L 1159 -1331 
L 581 -1331 
L 581 3500 
L 1159 3500 
L 1159 2969 
Q 1341 3281 1617 3432 
Q 1894 3584 2278 3584 
Q 2916 3584 3314 3078 
Q 3713 2572 3713 1747 
Q 3713 922 3314 415 
Q 2916 -91 2278 -91 
Q 1894 -91 1617 61 
Q 1341 213 1159 525 
z
M 3116 1747 
Q 3116 2381 2855 2742 
Q 2594 3103 2138 3103 
Q 1681 3103 1420 2742 
Q 1159 2381 1159 1747 
Q 1159 1113 1420 752 
Q 1681 391 2138 391 
Q 2594 391 2855 752 
Q 3116 1113 3116 1747 
z
" id="DejaVuSans-70" transform="scale(0.015625)"/>
      <path d="M 313 2009 
L 1997 2009 
L 1997 1497 
L 313 1497 
L 313 2009 
z
" id="DejaVuSans-2d" transform="scale(0.015625)"/>
      <path d="M 525 4666 
L 3525 4666 
L 3525 4397 
L 1831 0 
L 1172 0 
L 2766 4134 
L 525 4134 
L 525 4666 
z
" id="DejaVuSans-37" transform="scale(0.015625)"/>
      <path d="M 750 794 
L 1409 794 
L 1409 256 
L 897 -744 
L 494 -744 
L 750 256 
L 750 794 
z
" id="DejaVuSans-2c" transform="scale(0.015625)"/>
      <path d="M 2834 3397 
L 2834 2853 
Q 2591 2978 2328 3040 
Q 2066 3103 1784 3103 
Q 1356 3103 1142 2972 
Q 928 2841 928 2578 
Q 928 2378 1081 2264 
Q 1234 2150 1697 2047 
L 1894 2003 
Q 2506 1872 2764 1633 
Q 3022 1394 3022 966 
Q 3022 478 2636 193 
Q 2250 -91 1575 -91 
Q 1294 -91 989 -36 
Q 684 19 347 128 
L 347 722 
Q 666 556 975 473 
Q 1284 391 1588 391 
Q 1994 391 2212 530 
Q 2431 669 2431 922 
Q 2431 1156 2273 1281 
Q 2116 1406 1581 1522 
L 1381 1569 
Q 847 1681 609 1914 
Q 372 2147 372 2553 
Q 372 3047 722 3315 
Q 1072 3584 1716 3584 
Q 2034 3584 2315 3537 
Q 2597 3491 2834 3397 
z
" id="DejaVuSans-73" transform="scale(0.015625)"/>
      <path d="M 1625 4666 
L 2156 4666 
L 531 -594 
L 0 -594 
L 1625 4666 
z
" id="DejaVuSans-2f" transform="scale(0.015625)"/>
      <path d="M 2375 4863 
L 2375 4384 
L 1825 4384 
Q 1516 4384 1395 4259 
Q 1275 4134 1275 3809 
L 1275 3500 
L 2222 3500 
L 2222 3053 
L 1275 3053 
L 1275 0 
L 697 0 
L 697 3053 
L 147 3053 
L 147 3500 
L 697 3500 
L 697 3744 
Q 697 4328 969 4595 
Q 1241 4863 1831 4863 
L 2375 4863 
z
" id="DejaVuSans-66" transform="scale(0.015625)"/>
      <path d="M 353 3500 
L 3084 3500 
L 3084 2975 
L 922 459 
L 3084 459 
L 3084 0 
L 275 0 
L 275 525 
L 2438 3041 
L 353 3041 
L 353 3500 
z
" id="DejaVuSans-7a" transform="scale(0.015625)"/>
     </defs>
     <use xlink:href="#DejaVuSans-6c"/>
     <use x="27.783203" xlink:href="#DejaVuSans-69"/>
     <use x="55.566406" xlink:href="#DejaVuSans-62"/>
     <use x="119.042969" xlink:href="#DejaVuSans-6a"/>
     <use x="146.826172" xlink:href="#DejaVuSans-70"/>
     <use x="210.302734" xlink:href="#DejaVuSans-65"/>
     <use x="271.826172" xlink:href="#DejaVuSans-67"/>
     <use x="335.302734" xlink:href="#DejaVuSans-2d"/>
     <use x="371.386719" xlink:href="#DejaVuSans-74"/>
     <use x="410.595703" xlink:href="#DejaVuSans-75"/>
     <use x="473.974609" xlink:href="#DejaVuSans-72"/>
     <use x="515.087891" xlink:href="#DejaVuSans-62"/>
     <use x="578.564453" xlink:href="#DejaVuSans-6f"/>
     <use x="641.621094" xlink:href="#DejaVuSans-2d"/>
     <use x="677.705078" xlink:href="#DejaVuSans-30"/>
     <use x="741.328125" xlink:href="#DejaVuSans-37"/>
     <use x="804.951172" xlink:href="#DejaVuSans-2d"/>
     <use x="841.035156" xlink:href="#DejaVuSans-32"/>
     <use x="904.658203" xlink:href="#DejaVuSans-30"/>
     <use x="968.28125" xlink:href="#DejaVuSans-31"/>
     <use x="1031.904297" xlink:href="#DejaVuSans-37"/>
     <use x="1095.527344" xlink:href="#DejaVuSans-20"/>
     <use x="1127.314453" xlink:href="#DejaVuSans-28"/>
     <use x="1166.328125" xlink:href="#DejaVuSans-32"/>
     <use x="1229.951172" xlink:href="#DejaVuSans-30"/>
     <use x="1293.574219" xlink:href="#DejaVuSans-68"/>
     <use x="1356.953125" xlink:href="#DejaVuSans-2c"/>
     <use x="1388.740234" xlink:href="#DejaVuSans-20"/>
     <use x="1420.527344" xlink:href="#DejaVuSans-35"/>
     <use x="1484.150391" xlink:href="#DejaVuSans-20"/>
     <use x="1515.9375" xlink:href="#DejaVuSans-74"/>
     <use x="1555.146484" xlink:href="#DejaVuSans-72"/>
     <use x="1596.259766" xlink:href="#DejaVuSans-69"/>
     <use x="1624.042969" xlink:href="#DejaVuSans-61"/>
     <use x="1685.322266" xlink:href="#DejaVuSans-6c"/>
     <use x="1713.105469" xlink:href="#DejaVuSans-73"/>
     <use x="1765.205078" xlink:href="#DejaVuSans-2f"/>
     <use x="1798.896484" xlink:href="#DejaVuSans-66"/>
     <use x="1834.101562" xlink:href="#DejaVuSans-75"/>
     <use x="1897.480469" xlink:href="#DejaVuSans-7a"/>
     <use x="1949.970703" xlink:href="#DejaVuSans-7a"/>
     <use x="2002.460938" xlink:href="#DejaVuSans-65"/>
     <use x="2063.984375" xlink:href="#DejaVuSans-72"/>
     <use x="2105.097656" xlink:href="#DejaVuSans-29"/>
    </g>
   </g>
   <g id="legend_1">
    <g id="line2d_43">
     <path d="M 771.568125 30.416562 
L 791.568125 30.416562 
" style="fill:none;stroke:#d62728;stroke-linecap:square;stroke-width:1.5;"/>
    </g>
    <g id="line2d_44">
     <defs>
      <path d="M 0 -3 
L -3 3 
L 3 3 
z
" id="mf2d1ce79df" style="stroke:#d62728;stroke-linejoin:miter;"/>
     </defs>
     <g>
      <use style="fill:#d62728;stroke:#d62728;stroke-linejoin:miter;" x="781.568125" xlink:href="#mf2d1ce79df" y="30.416562"/>
     </g>
    </g>
    <g id="text_23">
     <!-- blacklist_new_1bv_1ts_8192 -->
     <g transform="translate(799.568125 33.916562)scale(0.1 -0.1)">
      <defs>
       <path d="M 581 4863 
L 1159 4863 
L 1159 1991 
L 2875 3500 
L 3609 3500 
L 1753 1863 
L 3688 0 
L 2938 0 
L 1159 1709 
L 1159 0 
L 581 0 
L 581 4863 
z
" id="DejaVuSans-6b" transform="scale(0.015625)"/>
       <path d="M 3263 -1063 
L 3263 -1509 
L -63 -1509 
L -63 -1063 
L 3263 -1063 
z
" id="DejaVuSans-5f" transform="scale(0.015625)"/>
       <path d="M 269 3500 
L 844 3500 
L 1563 769 
L 2278 3500 
L 2956 3500 
L 3675 769 
L 4391 3500 
L 4966 3500 
L 4050 0 
L 3372 0 
L 2619 2869 
L 1863 0 
L 1184 0 
L 269 3500 
z
" id="DejaVuSans-77" transform="scale(0.015625)"/>
       <path d="M 2034 2216 
Q 1584 2216 1326 1975 
Q 1069 1734 1069 1313 
Q 1069 891 1326 650 
Q 1584 409 2034 409 
Q 2484 409 2743 651 
Q 3003 894 3003 1313 
Q 3003 1734 2745 1975 
Q 2488 2216 2034 2216 
z
M 1403 2484 
Q 997 2584 770 2862 
Q 544 3141 544 3541 
Q 544 4100 942 4425 
Q 1341 4750 2034 4750 
Q 2731 4750 3128 4425 
Q 3525 4100 3525 3541 
Q 3525 3141 3298 2862 
Q 3072 2584 2669 2484 
Q 3125 2378 3379 2068 
Q 3634 1759 3634 1313 
Q 3634 634 3220 271 
Q 2806 -91 2034 -91 
Q 1263 -91 848 271 
Q 434 634 434 1313 
Q 434 1759 690 2068 
Q 947 2378 1403 2484 
z
M 1172 3481 
Q 1172 3119 1398 2916 
Q 1625 2713 2034 2713 
Q 2441 2713 2670 2916 
Q 2900 3119 2900 3481 
Q 2900 3844 2670 4047 
Q 2441 4250 2034 4250 
Q 1625 4250 1398 4047 
Q 1172 3844 1172 3481 
z
" id="DejaVuSans-38" transform="scale(0.015625)"/>
      </defs>
      <use xlink:href="#DejaVuSans-62"/>
      <use x="63.476562" xlink:href="#DejaVuSans-6c"/>
      <use x="91.259766" xlink:href="#DejaVuSans-61"/>
      <use x="152.539062" xlink:href="#DejaVuSans-63"/>
      <use x="207.519531" xlink:href="#DejaVuSans-6b"/>
      <use x="265.429688" xlink:href="#DejaVuSans-6c"/>
      <use x="293.212891" xlink:href="#DejaVuSans-69"/>
      <use x="320.996094" xlink:href="#DejaVuSans-73"/>
      <use x="373.095703" xlink:href="#DejaVuSans-74"/>
      <use x="412.304688" xlink:href="#DejaVuSans-5f"/>
      <use x="462.304688" xlink:href="#DejaVuSans-6e"/>
      <use x="525.683594" xlink:href="#DejaVuSans-65"/>
      <use x="587.207031" xlink:href="#DejaVuSans-77"/>
      <use x="668.994141" xlink:href="#DejaVuSans-5f"/>
      <use x="718.994141" xlink:href="#DejaVuSans-31"/>
      <use x="782.617188" xlink:href="#DejaVuSans-62"/>
      <use x="846.09375" xlink:href="#DejaVuSans-76"/>
      <use x="905.273438" xlink:href="#DejaVuSans-5f"/>
      <use x="955.273438" xlink:href="#DejaVuSans-31"/>
      <use x="1018.896484" xlink:href="#DejaVuSans-74"/>
      <use x="1058.105469" xlink:href="#DejaVuSans-73"/>
      <use x="1110.205078" xlink:href="#DejaVuSans-5f"/>
      <use x="1160.205078" xlink:href="#DejaVuSans-38"/>
      <use x="1223.828125" xlink:href="#DejaVuSans-31"/>
      <use x="1287.451172" xlink:href="#DejaVuSans-39"/>
      <use x="1351.074219" xlink:href="#DejaVuSans-32"/>
     </g>
    </g>
    <g id="line2d_45">
     <path d="M 771.568125 45.372813 
L 791.568125 45.372813 
" style="fill:none;stroke:#1f77b4;stroke-linecap:square;stroke-width:1.5;"/>
    </g>
    <g id="line2d_46">
     <defs>
      <path d="M 0 3 
C 0.795609 3 1.55874 2.683901 2.12132 2.12132 
C 2.683901 1.55874 3 0.795609 3 0 
C 3 -0.795609 2.683901 -1.55874 2.12132 -2.12132 
C 1.55874 -2.683901 0.795609 -3 0 -3 
C -0.795609 -3 -1.55874 -2.683901 -2.12132 -2.12132 
C -2.683901 -1.55874 -3 -0.795609 -3 0 
C -3 0.795609 -2.683901 1.55874 -2.12132 2.12132 
C -1.55874 2.683901 -0.795609 3 0 3 
z
" id="m53f45e5c27" style="stroke:#1f77b4;"/>
     </defs>
     <g>
      <use style="fill:#1f77b4;stroke:#1f77b4;" x="781.568125" xlink:href="#m53f45e5c27" y="45.372813"/>
     </g>
    </g>
    <g id="text_24">
     <!-- b2_develop -->
     <g transform="translate(799.568125 48.872813)scale(0.1 -0.1)">
      <use xlink:href="#DejaVuSans-62"/>
      <use x="63.476562" xlink:href="#DejaVuSans-32"/>
      <use x="127.099609" xlink:href="#DejaVuSans-5f"/>
      <use x="177.099609" xlink:href="#DejaVuSans-64"/>
      <use x="240.576172" xlink:href="#DejaVuSans-65"/>
      <use x="302.099609" xlink:href="#DejaVuSans-76"/>
      <use x="361.279297" xlink:href="#DejaVuSans-65"/>
      <use x="422.802734" xlink:href="#DejaVuSans-6c"/>
      <use x="450.585938" xlink:href="#DejaVuSans-6f"/>
      <use x="511.767578" xlink:href="#DejaVuSans-70"/>
     </g>
    </g>
    <g id="line2d_47">
     <path d="M 771.568125 60.329063 
L 791.568125 60.329063 
" style="fill:none;stroke:#98df8a;stroke-linecap:square;stroke-width:1.5;"/>
    </g>
    <g id="line2d_48">
     <defs>
      <path d="M -0 3 
L 3 -3 
L -3 -3 
z
" id="m45bcdb62ca" style="stroke:#98df8a;stroke-linejoin:miter;"/>
     </defs>
     <g>
      <use style="fill:#98df8a;stroke:#98df8a;stroke-linejoin:miter;" x="781.568125" xlink:href="#m45bcdb62ca" y="60.329063"/>
     </g>
    </g>
    <g id="text_25">
     <!-- blacklist_cache_1bv_1ts_8192 -->
     <g transform="translate(799.568125 63.829063)scale(0.1 -0.1)">
      <use xlink:href="#DejaVuSans-62"/>
      <use x="63.476562" xlink:href="#DejaVuSans-6c"/>
      <use x="91.259766" xlink:href="#DejaVuSans-61"/>
      <use x="152.539062" xlink:href="#DejaVuSans-63"/>
      <use x="207.519531" xlink:href="#DejaVuSans-6b"/>
      <use x="265.429688" xlink:href="#DejaVuSans-6c"/>
      <use x="293.212891" xlink:href="#DejaVuSans-69"/>
      <use x="320.996094" xlink:href="#DejaVuSans-73"/>
      <use x="373.095703" xlink:href="#DejaVuSans-74"/>
      <use x="412.304688" xlink:href="#DejaVuSans-5f"/>
      <use x="462.304688" xlink:href="#DejaVuSans-63"/>
      <use x="517.285156" xlink:href="#DejaVuSans-61"/>
      <use x="578.564453" xlink:href="#DejaVuSans-63"/>
      <use x="633.544922" xlink:href="#DejaVuSans-68"/>
      <use x="696.923828" xlink:href="#DejaVuSans-65"/>
      <use x="758.447266" xlink:href="#DejaVuSans-5f"/>
      <use x="808.447266" xlink:href="#DejaVuSans-31"/>
      <use x="872.070312" xlink:href="#DejaVuSans-62"/>
      <use x="935.546875" xlink:href="#DejaVuSans-76"/>
      <use x="994.726562" xlink:href="#DejaVuSans-5f"/>
      <use x="1044.726562" xlink:href="#DejaVuSans-31"/>
      <use x="1108.349609" xlink:href="#DejaVuSans-74"/>
      <use x="1147.558594" xlink:href="#DejaVuSans-73"/>
      <use x="1199.658203" xlink:href="#DejaVuSans-5f"/>
      <use x="1249.658203" xlink:href="#DejaVuSans-38"/>
      <use x="1313.28125" xlink:href="#DejaVuSans-31"/>
      <use x="1376.904297" xlink:href="#DejaVuSans-39"/>
      <use x="1440.527344" xlink:href="#DejaVuSans-32"/>
     </g>
    </g>
   </g>
  </g>
 </g>
 <defs>
  <clipPath id="p3a95a38fe3">
   <rect height="266.112" width="714.24" x="53.328125" y="22.318125"/>
  </clipPath>
 </defs>
</svg>
