<?xml version="1.0" encoding="utf-8" standalone="no"?>
<!DOCTYPE svg PUBLIC "-//W3C//DTD SVG 1.1//EN"
  "http://www.w3.org/Graphics/SVG/1.1/DTD/svg11.dtd">
<svg height="325.986375pt" version="1.1" viewBox="0 0 864.541562 325.986375" width="864.541562pt" xmlns="http://www.w3.org/2000/svg" xmlns:xlink="http://www.w3.org/1999/xlink">
 <metadata>
  <rdf:RDF xmlns:cc="http://creativecommons.org/ns#" xmlns:dc="http://purl.org/dc/elements/1.1/" xmlns:rdf="http://www.w3.org/1999/02/22-rdf-syntax-ns#">
   <cc:Work>
    <dc:type rdf:resource="http://purl.org/dc/dcmitype/StillImage"/>
    <dc:date>2022-12-21T18:56:50.917130</dc:date>
    <dc:format>image/svg+xml</dc:format>
    <dc:creator>
     <cc:Agent>
      <dc:title>Matplotlib v3.4.2, https://matplotlib.org/</dc:title>
     </cc:Agent>
    </dc:creator>
   </cc:Work>
  </rdf:RDF>
 </metadata>
 <defs>
  <style type="text/css">*{stroke-linecap:butt;stroke-linejoin:round;}</style>
 </defs>
 <g id="figure_1">
  <g id="patch_1">
   <path d="M 0 325.986375 
L 864.541562 325.986375 
L 864.541562 0 
L 0 0 
z
" style="fill:#ffffff;"/>
  </g>
  <g id="axes_1">
   <g id="patch_2">
    <path d="M 53.328125 288.430125 
L 767.568125 288.430125 
L 767.568125 22.318125 
L 53.328125 22.318125 
z
" style="fill:#ffffff;"/>
   </g>
   <g id="PolyCollection_1">
    <defs>
     <path d="M 85.79358 -161.558802 
L 85.79358 -129.391234 
L 251.989452 -150.256834 
L 349.207805 -164.675563 
L 418.185324 -175.502596 
L 471.688445 -185.973428 
L 515.403677 -193.616913 
L 552.36438 -199.776225 
L 584.381197 -207.344574 
L 612.622031 -213.98717 
L 637.884317 -217.433232 
L 660.736835 -219.367293 
L 681.59955 -225.007146 
L 700.791387 -227.307612 
L 718.560252 -232.056962 
L 735.10267 -237.696814 
L 735.10267 -291.57225 
L 735.10267 -291.57225 
L 718.560252 -281.479882 
L 700.791387 -267.246675 
L 681.59955 -254.690581 
L 660.736835 -251.202778 
L 637.884317 -247.343931 
L 612.622031 -234.505845 
L 584.381197 -226.528422 
L 552.36438 -219.330189 
L 515.403677 -215.545551 
L 471.688445 -209.31945 
L 418.185324 -203.189821 
L 349.207805 -193.097452 
L 251.989452 -181.261183 
L 85.79358 -161.558802 
z
" id="me6316ede8d" style="stroke:#ff7f0e;stroke-opacity:0.2;"/>
    </defs>
    <g clip-path="url(#p3df05bff34)">
     <use style="fill:#ff7f0e;fill-opacity:0.2;stroke:#ff7f0e;stroke-opacity:0.2;" x="0" xlink:href="#me6316ede8d" y="325.986375"/>
    </g>
   </g>
   <g id="PolyCollection_2">
    <defs>
     <path d="M 85.79358 -100.633551 
L 85.79358 -68.181207 
L 251.989452 -88.908594 
L 349.207805 -109.350277 
L 418.185324 -121.782998 
L 471.688445 -132.728765 
L 515.403677 -140.483563 
L 552.36438 -149.240176 
L 584.381197 -155.696324 
L 612.622031 -163.52904 
L 637.884317 -169.239391 
L 660.736835 -173.280049 
L 681.59955 -176.623146 
L 700.791387 -187.080063 
L 718.560252 -190.648569 
L 735.10267 -193.759764 
L 735.10267 -230.841796 
L 735.10267 -230.841796 
L 718.560252 -225.489502 
L 700.791387 -221.816176 
L 681.59955 -211.212697 
L 660.736835 -203.449551 
L 637.884317 -191.687489 
L 612.622031 -185.973428 
L 584.381197 -178.404152 
L 552.36438 -170.686459 
L 515.403677 -162.226679 
L 471.688445 -154.657403 
L 418.185324 -146.275543 
L 349.207805 -130.242778 
L 251.989452 -119.708868 
L 85.79358 -100.633551 
z
" id="mde78eb768e" style="stroke:#98df8a;stroke-opacity:0.2;"/>
    </defs>
    <g clip-path="url(#p3df05bff34)">
     <use style="fill:#98df8a;fill-opacity:0.2;stroke:#98df8a;stroke-opacity:0.2;" x="0" xlink:href="#mde78eb768e" y="325.986375"/>
    </g>
   </g>
   <g id="PolyCollection_3">
    <defs>
     <path d="M 85.79358 -100.118729 
L 85.79358 -68.29623 
L 251.989452 -97.813624 
L 349.207805 -113.286115 
L 418.185324 -120.484348 
L 471.688445 -138.331514 
L 515.403677 -143.389757 
L 552.36438 -154.100839 
L 584.381197 -162.631116 
L 612.622031 -167.124446 
L 637.884317 -174.767931 
L 660.736835 -181.802905 
L 681.59955 -181.595121 
L 700.791387 -184.452152 
L 718.560252 -187.974277 
L 735.10267 -189.01598 
L 735.10267 -219.367293 
L 735.10267 -219.367293 
L 718.560252 -217.141963 
L 700.791387 -214.284005 
L 681.59955 -209.238748 
L 660.736835 -203.115612 
L 637.884317 -200.086974 
L 612.622031 -193.616913 
L 584.381197 -186.047637 
L 552.36438 -176.771563 
L 515.403677 -171.205919 
L 471.688445 -164.824908 
L 418.185324 -157.180495 
L 349.207805 -139.407538 
L 251.989452 -127.50077 
L 85.79358 -100.118729 
z
" id="mda75dff8ef" style="stroke:#d62728;stroke-opacity:0.2;"/>
    </defs>
    <g clip-path="url(#p3df05bff34)">
     <use style="fill:#d62728;fill-opacity:0.2;stroke:#d62728;stroke-opacity:0.2;" x="0" xlink:href="#mda75dff8ef" y="325.986375"/>
    </g>
   </g>
   <g id="PolyCollection_4">
    <defs>
     <path d="M 85.79358 -87.016275 
L 85.79358 -55.588937 
L 251.989452 -71.76641 
L 349.207805 -88.352029 
L 418.185324 -93.917673 
L 471.688445 -102.191931 
L 515.403677 -105.860618 
L 552.36438 -110.65171 
L 584.381197 -116.588397 
L 612.622031 -119.779367 
L 637.884317 -122.74771 
L 660.736835 -130.461693 
L 681.59955 -133.136913 
L 700.791387 -134.398459 
L 718.560252 -135.288962 
L 735.10267 -137.218385 
L 735.10267 -173.061133 
L 735.10267 -173.061133 
L 718.560252 -164.935293 
L 700.791387 -152.060103 
L 681.59955 -150.204888 
L 660.736835 -141.337889 
L 637.884317 -137.700741 
L 612.622031 -137.032863 
L 584.381197 -136.736029 
L 552.36438 -133.593295 
L 515.403677 -130.172279 
L 471.688445 -125.273585 
L 418.185324 -118.146778 
L 349.207805 -112.362218 
L 251.989452 -106.347612 
L 85.79358 -87.016275 
z
" id="m07ad22e913" style="stroke:#1f77b4;stroke-opacity:0.2;"/>
    </defs>
    <g clip-path="url(#p3df05bff34)">
     <use style="fill:#1f77b4;fill-opacity:0.2;stroke:#1f77b4;stroke-opacity:0.2;" x="0" xlink:href="#m07ad22e913" y="325.986375"/>
    </g>
   </g>
   <g id="PolyCollection_5">
    <defs>
     <path d="M 85.79358 -104.771607 
L 85.79358 -49.65225 
L 251.989452 -67.47066 
L 349.207805 -77.109428 
L 418.185324 -92.297143 
L 471.688445 -92.24798 
L 515.403677 -104.640814 
L 552.36438 -97.924937 
L 584.381197 -112.358508 
L 612.622031 -115.40106 
L 637.884317 -116.43998 
L 660.736835 -108.05441 
L 681.59955 -109.464373 
L 700.791387 -116.254459 
L 718.560252 -116.106041 
L 735.10267 -123.192962 
L 735.10267 -171.654881 
L 735.10267 -171.654881 
L 718.560252 -169.83306 
L 700.791387 -168.757035 
L 681.59955 -167.643906 
L 660.736835 -164.197845 
L 637.884317 -161.863057 
L 612.622031 -162.449305 
L 584.381197 -156.178679 
L 552.36438 -148.726282 
L 515.403677 -147.409079 
L 471.688445 -143.319259 
L 418.185324 -138.850974 
L 349.207805 -131.949575 
L 251.989452 -123.238414 
L 85.79358 -104.771607 
z
" id="m5ba17289a6" style="stroke:#c7c7c7;stroke-opacity:0.2;"/>
    </defs>
    <g clip-path="url(#p3df05bff34)">
     <use style="fill:#c7c7c7;fill-opacity:0.2;stroke:#c7c7c7;stroke-opacity:0.2;" x="0" xlink:href="#m5ba17289a6" y="325.986375"/>
    </g>
   </g>
   <g id="PolyCollection_6">
    <defs>
     <path d="M 85.79358 -100.299612 
L 85.79358 -52.415592 
L 251.989452 -63.621089 
L 349.207805 -74.141084 
L 418.185324 -78.222557 
L 471.688445 -84.010827 
L 515.403677 -91.877865 
L 552.36438 -93.954778 
L 584.381197 -94.497428 
L 612.622031 -99.000962 
L 637.884317 -100.967489 
L 660.736835 -110.206459 
L 681.59955 -112.135882 
L 700.791387 -117.391705 
L 718.560252 -118.740446 
L 735.10267 -122.042729 
L 735.10267 -152.319833 
L 735.10267 -152.319833 
L 718.560252 -152.808682 
L 700.791387 -150.946974 
L 681.59955 -147.182743 
L 660.736835 -141.893526 
L 637.884317 -142.308167 
L 612.622031 -142.041943 
L 584.381197 -138.591244 
L 552.36438 -137.069968 
L 515.403677 -134.958733 
L 471.688445 -131.652741 
L 418.185324 -130.465403 
L 349.207805 -122.784814 
L 251.989452 -114.028201 
L 85.79358 -100.299612 
z
" id="me3923d9c77" style="stroke:#ff9896;stroke-opacity:0.2;"/>
    </defs>
    <g clip-path="url(#p3df05bff34)">
     <use style="fill:#ff9896;fill-opacity:0.2;stroke:#ff9896;stroke-opacity:0.2;" x="0" xlink:href="#me3923d9c77" y="325.986375"/>
    </g>
   </g>
   <g id="matplotlib.axis_1">
    <g id="xtick_1">
     <g id="line2d_1">
      <defs>
       <path d="M 0 0 
L 0 3.5 
" id="m1238a202f2" style="stroke:#000000;stroke-width:0.8;"/>
      </defs>
      <g>
       <use style="stroke:#000000;stroke-width:0.8;" x="735.10267" xlink:href="#m1238a202f2" y="288.430125"/>
      </g>
     </g>
     <g id="text_1">
      <!-- 14m -->
      <g transform="translate(723.869858 303.028562)scale(0.1 -0.1)">
       <defs>
        <path d="M 794 531 
L 1825 531 
L 1825 4091 
L 703 3866 
L 703 4441 
L 1819 4666 
L 2450 4666 
L 2450 531 
L 3481 531 
L 3481 0 
L 794 0 
L 794 531 
z
" id="DejaVuSans-31" transform="scale(0.015625)"/>
        <path d="M 2419 4116 
L 825 1625 
L 2419 1625 
L 2419 4116 
z
M 2253 4666 
L 3047 4666 
L 3047 1625 
L 3713 1625 
L 3713 1100 
L 3047 1100 
L 3047 0 
L 2419 0 
L 2419 1100 
L 313 1100 
L 313 1709 
L 2253 4666 
z
" id="DejaVuSans-34" transform="scale(0.015625)"/>
        <path d="M 3328 2828 
Q 3544 3216 3844 3400 
Q 4144 3584 4550 3584 
Q 5097 3584 5394 3201 
Q 5691 2819 5691 2113 
L 5691 0 
L 5113 0 
L 5113 2094 
Q 5113 2597 4934 2840 
Q 4756 3084 4391 3084 
Q 3944 3084 3684 2787 
Q 3425 2491 3425 1978 
L 3425 0 
L 2847 0 
L 2847 2094 
Q 2847 2600 2669 2842 
Q 2491 3084 2119 3084 
Q 1678 3084 1418 2786 
Q 1159 2488 1159 1978 
L 1159 0 
L 581 0 
L 581 3500 
L 1159 3500 
L 1159 2956 
Q 1356 3278 1631 3431 
Q 1906 3584 2284 3584 
Q 2666 3584 2933 3390 
Q 3200 3197 3328 2828 
z
" id="DejaVuSans-6d" transform="scale(0.015625)"/>
       </defs>
       <use xlink:href="#DejaVuSans-31"/>
       <use x="63.623047" xlink:href="#DejaVuSans-34"/>
       <use x="127.246094" xlink:href="#DejaVuSans-6d"/>
      </g>
     </g>
    </g>
    <g id="xtick_2">
     <g id="line2d_2">
      <g>
       <use style="stroke:#000000;stroke-width:0.8;" x="735.126876" xlink:href="#m1238a202f2" y="288.430125"/>
      </g>
     </g>
     <g id="text_2">
      <!-- 15m -->
      <g transform="translate(723.894064 303.028562)scale(0.1 -0.1)">
       <defs>
        <path d="M 691 4666 
L 3169 4666 
L 3169 4134 
L 1269 4134 
L 1269 2991 
Q 1406 3038 1543 3061 
Q 1681 3084 1819 3084 
Q 2600 3084 3056 2656 
Q 3513 2228 3513 1497 
Q 3513 744 3044 326 
Q 2575 -91 1722 -91 
Q 1428 -91 1123 -41 
Q 819 9 494 109 
L 494 744 
Q 775 591 1075 516 
Q 1375 441 1709 441 
Q 2250 441 2565 725 
Q 2881 1009 2881 1497 
Q 2881 1984 2565 2268 
Q 2250 2553 1709 2553 
Q 1456 2553 1204 2497 
Q 953 2441 691 2322 
L 691 4666 
z
" id="DejaVuSans-35" transform="scale(0.015625)"/>
       </defs>
       <use xlink:href="#DejaVuSans-31"/>
       <use x="63.623047" xlink:href="#DejaVuSans-35"/>
       <use x="127.246094" xlink:href="#DejaVuSans-6d"/>
      </g>
     </g>
    </g>
    <g id="xtick_3">
     <g id="line2d_3">
      <g>
       <use style="stroke:#000000;stroke-width:0.8;" x="735.151082" xlink:href="#m1238a202f2" y="288.430125"/>
      </g>
     </g>
     <g id="text_3">
      <!-- 15m -->
      <g transform="translate(723.918269 303.028562)scale(0.1 -0.1)">
       <use xlink:href="#DejaVuSans-31"/>
       <use x="63.623047" xlink:href="#DejaVuSans-35"/>
       <use x="127.246094" xlink:href="#DejaVuSans-6d"/>
      </g>
     </g>
    </g>
    <g id="xtick_4">
     <g id="line2d_4">
      <g>
       <use style="stroke:#000000;stroke-width:0.8;" x="735.175288" xlink:href="#m1238a202f2" y="288.430125"/>
      </g>
     </g>
     <g id="text_4">
      <!-- 15m -->
      <g transform="translate(723.942475 303.028562)scale(0.1 -0.1)">
       <use xlink:href="#DejaVuSans-31"/>
       <use x="63.623047" xlink:href="#DejaVuSans-35"/>
       <use x="127.246094" xlink:href="#DejaVuSans-6d"/>
      </g>
     </g>
    </g>
    <g id="xtick_5">
     <g id="line2d_5">
      <g>
       <use style="stroke:#000000;stroke-width:0.8;" x="735.199493" xlink:href="#m1238a202f2" y="288.430125"/>
      </g>
     </g>
     <g id="text_5">
      <!-- 15m -->
      <g transform="translate(723.966681 303.028562)scale(0.1 -0.1)">
       <use xlink:href="#DejaVuSans-31"/>
       <use x="63.623047" xlink:href="#DejaVuSans-35"/>
       <use x="127.246094" xlink:href="#DejaVuSans-6d"/>
      </g>
     </g>
    </g>
    <g id="xtick_6">
     <g id="line2d_6">
      <g>
       <use style="stroke:#000000;stroke-width:0.8;" x="735.223699" xlink:href="#m1238a202f2" y="288.430125"/>
      </g>
     </g>
     <g id="text_6">
      <!-- 15m -->
      <g transform="translate(723.990887 303.028562)scale(0.1 -0.1)">
       <use xlink:href="#DejaVuSans-31"/>
       <use x="63.623047" xlink:href="#DejaVuSans-35"/>
       <use x="127.246094" xlink:href="#DejaVuSans-6d"/>
      </g>
     </g>
    </g>
    <g id="xtick_7">
     <g id="line2d_7">
      <g>
       <use style="stroke:#000000;stroke-width:0.8;" x="735.247905" xlink:href="#m1238a202f2" y="288.430125"/>
      </g>
     </g>
     <g id="text_7">
      <!-- 15m -->
      <g transform="translate(724.015092 303.028562)scale(0.1 -0.1)">
       <use xlink:href="#DejaVuSans-31"/>
       <use x="63.623047" xlink:href="#DejaVuSans-35"/>
       <use x="127.246094" xlink:href="#DejaVuSans-6d"/>
      </g>
     </g>
    </g>
    <g id="xtick_8">
     <g id="line2d_8">
      <g>
       <use style="stroke:#000000;stroke-width:0.8;" x="735.272111" xlink:href="#m1238a202f2" y="288.430125"/>
      </g>
     </g>
     <g id="text_8">
      <!-- 15m -->
      <g transform="translate(724.039298 303.028562)scale(0.1 -0.1)">
       <use xlink:href="#DejaVuSans-31"/>
       <use x="63.623047" xlink:href="#DejaVuSans-35"/>
       <use x="127.246094" xlink:href="#DejaVuSans-6d"/>
      </g>
     </g>
    </g>
    <g id="xtick_9">
     <g id="line2d_9">
      <g>
       <use style="stroke:#000000;stroke-width:0.8;" x="735.296316" xlink:href="#m1238a202f2" y="288.430125"/>
      </g>
     </g>
     <g id="text_9">
      <!-- 15m -->
      <g transform="translate(724.063504 303.028562)scale(0.1 -0.1)">
       <use xlink:href="#DejaVuSans-31"/>
       <use x="63.623047" xlink:href="#DejaVuSans-35"/>
       <use x="127.246094" xlink:href="#DejaVuSans-6d"/>
      </g>
     </g>
    </g>
    <g id="xtick_10">
     <g id="line2d_10">
      <g>
       <use style="stroke:#000000;stroke-width:0.8;" x="735.320522" xlink:href="#m1238a202f2" y="288.430125"/>
      </g>
     </g>
     <g id="text_10">
      <!-- 15m -->
      <g transform="translate(724.08771 303.028562)scale(0.1 -0.1)">
       <use xlink:href="#DejaVuSans-31"/>
       <use x="63.623047" xlink:href="#DejaVuSans-35"/>
       <use x="127.246094" xlink:href="#DejaVuSans-6d"/>
      </g>
     </g>
    </g>
    <g id="xtick_11">
     <g id="line2d_11">
      <g>
       <use style="stroke:#000000;stroke-width:0.8;" x="735.344728" xlink:href="#m1238a202f2" y="288.430125"/>
      </g>
     </g>
     <g id="text_11">
      <!-- 15m -->
      <g transform="translate(724.111915 303.028562)scale(0.1 -0.1)">
       <use xlink:href="#DejaVuSans-31"/>
       <use x="63.623047" xlink:href="#DejaVuSans-35"/>
       <use x="127.246094" xlink:href="#DejaVuSans-6d"/>
      </g>
     </g>
    </g>
    <g id="xtick_12">
     <g id="line2d_12">
      <g>
       <use style="stroke:#000000;stroke-width:0.8;" x="735.368934" xlink:href="#m1238a202f2" y="288.430125"/>
      </g>
     </g>
     <g id="text_12">
      <!-- 15m -->
      <g transform="translate(724.136121 303.028562)scale(0.1 -0.1)">
       <use xlink:href="#DejaVuSans-31"/>
       <use x="63.623047" xlink:href="#DejaVuSans-35"/>
       <use x="127.246094" xlink:href="#DejaVuSans-6d"/>
      </g>
     </g>
    </g>
    <g id="xtick_13">
     <g id="line2d_13">
      <defs>
       <path d="M 0 0 
L 0 2 
" id="m22af18f51e" style="stroke:#000000;stroke-width:0.6;"/>
      </defs>
      <g>
       <use style="stroke:#000000;stroke-width:0.6;" x="85.79358" xlink:href="#m22af18f51e" y="288.430125"/>
      </g>
     </g>
    </g>
    <g id="xtick_14">
     <g id="line2d_14">
      <g>
       <use style="stroke:#000000;stroke-width:0.6;" x="122.754282" xlink:href="#m22af18f51e" y="288.430125"/>
      </g>
     </g>
    </g>
    <g id="xtick_15">
     <g id="line2d_15">
      <g>
       <use style="stroke:#000000;stroke-width:0.6;" x="154.771099" xlink:href="#m22af18f51e" y="288.430125"/>
      </g>
     </g>
    </g>
    <g id="xtick_16">
     <g id="line2d_16">
      <g>
       <use style="stroke:#000000;stroke-width:0.6;" x="183.011933" xlink:href="#m22af18f51e" y="288.430125"/>
      </g>
     </g>
    </g>
    <g id="xtick_17">
     <g id="line2d_17">
      <g>
       <use style="stroke:#000000;stroke-width:0.6;" x="374.470092" xlink:href="#m22af18f51e" y="288.430125"/>
      </g>
     </g>
    </g>
    <g id="xtick_18">
     <g id="line2d_18">
      <g>
       <use style="stroke:#000000;stroke-width:0.6;" x="471.688445" xlink:href="#m22af18f51e" y="288.430125"/>
      </g>
     </g>
    </g>
    <g id="xtick_19">
     <g id="line2d_19">
      <g>
       <use style="stroke:#000000;stroke-width:0.6;" x="540.665964" xlink:href="#m22af18f51e" y="288.430125"/>
      </g>
     </g>
    </g>
    <g id="xtick_20">
     <g id="line2d_20">
      <g>
       <use style="stroke:#000000;stroke-width:0.6;" x="594.169085" xlink:href="#m22af18f51e" y="288.430125"/>
      </g>
     </g>
    </g>
    <g id="xtick_21">
     <g id="line2d_21">
      <g>
       <use style="stroke:#000000;stroke-width:0.6;" x="637.884317" xlink:href="#m22af18f51e" y="288.430125"/>
      </g>
     </g>
    </g>
    <g id="xtick_22">
     <g id="line2d_22">
      <g>
       <use style="stroke:#000000;stroke-width:0.6;" x="674.84502" xlink:href="#m22af18f51e" y="288.430125"/>
      </g>
     </g>
    </g>
    <g id="xtick_23">
     <g id="line2d_23">
      <g>
       <use style="stroke:#000000;stroke-width:0.6;" x="706.861837" xlink:href="#m22af18f51e" y="288.430125"/>
      </g>
     </g>
    </g>
    <g id="text_13">
     <!-- Time (hour:minute) -->
     <g transform="translate(362.041094 316.706687)scale(0.1 -0.1)">
      <defs>
       <path d="M -19 4666 
L 3928 4666 
L 3928 4134 
L 2272 4134 
L 2272 0 
L 1638 0 
L 1638 4134 
L -19 4134 
L -19 4666 
z
" id="DejaVuSans-54" transform="scale(0.015625)"/>
       <path d="M 603 3500 
L 1178 3500 
L 1178 0 
L 603 0 
L 603 3500 
z
M 603 4863 
L 1178 4863 
L 1178 4134 
L 603 4134 
L 603 4863 
z
" id="DejaVuSans-69" transform="scale(0.015625)"/>
       <path d="M 3597 1894 
L 3597 1613 
L 953 1613 
Q 991 1019 1311 708 
Q 1631 397 2203 397 
Q 2534 397 2845 478 
Q 3156 559 3463 722 
L 3463 178 
Q 3153 47 2828 -22 
Q 2503 -91 2169 -91 
Q 1331 -91 842 396 
Q 353 884 353 1716 
Q 353 2575 817 3079 
Q 1281 3584 2069 3584 
Q 2775 3584 3186 3129 
Q 3597 2675 3597 1894 
z
M 3022 2063 
Q 3016 2534 2758 2815 
Q 2500 3097 2075 3097 
Q 1594 3097 1305 2825 
Q 1016 2553 972 2059 
L 3022 2063 
z
" id="DejaVuSans-65" transform="scale(0.015625)"/>
       <path id="DejaVuSans-20" transform="scale(0.015625)"/>
       <path d="M 1984 4856 
Q 1566 4138 1362 3434 
Q 1159 2731 1159 2009 
Q 1159 1288 1364 580 
Q 1569 -128 1984 -844 
L 1484 -844 
Q 1016 -109 783 600 
Q 550 1309 550 2009 
Q 550 2706 781 3412 
Q 1013 4119 1484 4856 
L 1984 4856 
z
" id="DejaVuSans-28" transform="scale(0.015625)"/>
       <path d="M 3513 2113 
L 3513 0 
L 2938 0 
L 2938 2094 
Q 2938 2591 2744 2837 
Q 2550 3084 2163 3084 
Q 1697 3084 1428 2787 
Q 1159 2491 1159 1978 
L 1159 0 
L 581 0 
L 581 4863 
L 1159 4863 
L 1159 2956 
Q 1366 3272 1645 3428 
Q 1925 3584 2291 3584 
Q 2894 3584 3203 3211 
Q 3513 2838 3513 2113 
z
" id="DejaVuSans-68" transform="scale(0.015625)"/>
       <path d="M 1959 3097 
Q 1497 3097 1228 2736 
Q 959 2375 959 1747 
Q 959 1119 1226 758 
Q 1494 397 1959 397 
Q 2419 397 2687 759 
Q 2956 1122 2956 1747 
Q 2956 2369 2687 2733 
Q 2419 3097 1959 3097 
z
M 1959 3584 
Q 2709 3584 3137 3096 
Q 3566 2609 3566 1747 
Q 3566 888 3137 398 
Q 2709 -91 1959 -91 
Q 1206 -91 779 398 
Q 353 888 353 1747 
Q 353 2609 779 3096 
Q 1206 3584 1959 3584 
z
" id="DejaVuSans-6f" transform="scale(0.015625)"/>
       <path d="M 544 1381 
L 544 3500 
L 1119 3500 
L 1119 1403 
Q 1119 906 1312 657 
Q 1506 409 1894 409 
Q 2359 409 2629 706 
Q 2900 1003 2900 1516 
L 2900 3500 
L 3475 3500 
L 3475 0 
L 2900 0 
L 2900 538 
Q 2691 219 2414 64 
Q 2138 -91 1772 -91 
Q 1169 -91 856 284 
Q 544 659 544 1381 
z
M 1991 3584 
L 1991 3584 
z
" id="DejaVuSans-75" transform="scale(0.015625)"/>
       <path d="M 2631 2963 
Q 2534 3019 2420 3045 
Q 2306 3072 2169 3072 
Q 1681 3072 1420 2755 
Q 1159 2438 1159 1844 
L 1159 0 
L 581 0 
L 581 3500 
L 1159 3500 
L 1159 2956 
Q 1341 3275 1631 3429 
Q 1922 3584 2338 3584 
Q 2397 3584 2469 3576 
Q 2541 3569 2628 3553 
L 2631 2963 
z
" id="DejaVuSans-72" transform="scale(0.015625)"/>
       <path d="M 750 794 
L 1409 794 
L 1409 0 
L 750 0 
L 750 794 
z
M 750 3309 
L 1409 3309 
L 1409 2516 
L 750 2516 
L 750 3309 
z
" id="DejaVuSans-3a" transform="scale(0.015625)"/>
       <path d="M 3513 2113 
L 3513 0 
L 2938 0 
L 2938 2094 
Q 2938 2591 2744 2837 
Q 2550 3084 2163 3084 
Q 1697 3084 1428 2787 
Q 1159 2491 1159 1978 
L 1159 0 
L 581 0 
L 581 3500 
L 1159 3500 
L 1159 2956 
Q 1366 3272 1645 3428 
Q 1925 3584 2291 3584 
Q 2894 3584 3203 3211 
Q 3513 2838 3513 2113 
z
" id="DejaVuSans-6e" transform="scale(0.015625)"/>
       <path d="M 1172 4494 
L 1172 3500 
L 2356 3500 
L 2356 3053 
L 1172 3053 
L 1172 1153 
Q 1172 725 1289 603 
Q 1406 481 1766 481 
L 2356 481 
L 2356 0 
L 1766 0 
Q 1100 0 847 248 
Q 594 497 594 1153 
L 594 3053 
L 172 3053 
L 172 3500 
L 594 3500 
L 594 4494 
L 1172 4494 
z
" id="DejaVuSans-74" transform="scale(0.015625)"/>
       <path d="M 513 4856 
L 1013 4856 
Q 1481 4119 1714 3412 
Q 1947 2706 1947 2009 
Q 1947 1309 1714 600 
Q 1481 -109 1013 -844 
L 513 -844 
Q 928 -128 1133 580 
Q 1338 1288 1338 2009 
Q 1338 2731 1133 3434 
Q 928 4138 513 4856 
z
" id="DejaVuSans-29" transform="scale(0.015625)"/>
      </defs>
      <use xlink:href="#DejaVuSans-54"/>
      <use x="57.958984" xlink:href="#DejaVuSans-69"/>
      <use x="85.742188" xlink:href="#DejaVuSans-6d"/>
      <use x="183.154297" xlink:href="#DejaVuSans-65"/>
      <use x="244.677734" xlink:href="#DejaVuSans-20"/>
      <use x="276.464844" xlink:href="#DejaVuSans-28"/>
      <use x="315.478516" xlink:href="#DejaVuSans-68"/>
      <use x="378.857422" xlink:href="#DejaVuSans-6f"/>
      <use x="440.039062" xlink:href="#DejaVuSans-75"/>
      <use x="503.417969" xlink:href="#DejaVuSans-72"/>
      <use x="542.78125" xlink:href="#DejaVuSans-3a"/>
      <use x="576.472656" xlink:href="#DejaVuSans-6d"/>
      <use x="673.884766" xlink:href="#DejaVuSans-69"/>
      <use x="701.667969" xlink:href="#DejaVuSans-6e"/>
      <use x="765.046875" xlink:href="#DejaVuSans-75"/>
      <use x="828.425781" xlink:href="#DejaVuSans-74"/>
      <use x="867.634766" xlink:href="#DejaVuSans-65"/>
      <use x="929.158203" xlink:href="#DejaVuSans-29"/>
     </g>
    </g>
   </g>
   <g id="matplotlib.axis_2">
    <g id="ytick_1">
     <g id="line2d_24">
      <defs>
       <path d="M 0 0 
L -3.5 0 
" id="m29ff915fe8" style="stroke:#000000;stroke-width:0.8;"/>
      </defs>
      <g>
       <use style="stroke:#000000;stroke-width:0.8;" x="53.328125" xlink:href="#m29ff915fe8" y="284.200235"/>
      </g>
     </g>
     <g id="text_14">
      <!-- 2000 -->
      <g transform="translate(20.878125 287.999454)scale(0.1 -0.1)">
       <defs>
        <path d="M 1228 531 
L 3431 531 
L 3431 0 
L 469 0 
L 469 531 
Q 828 903 1448 1529 
Q 2069 2156 2228 2338 
Q 2531 2678 2651 2914 
Q 2772 3150 2772 3378 
Q 2772 3750 2511 3984 
Q 2250 4219 1831 4219 
Q 1534 4219 1204 4116 
Q 875 4013 500 3803 
L 500 4441 
Q 881 4594 1212 4672 
Q 1544 4750 1819 4750 
Q 2544 4750 2975 4387 
Q 3406 4025 3406 3419 
Q 3406 3131 3298 2873 
Q 3191 2616 2906 2266 
Q 2828 2175 2409 1742 
Q 1991 1309 1228 531 
z
" id="DejaVuSans-32" transform="scale(0.015625)"/>
        <path d="M 2034 4250 
Q 1547 4250 1301 3770 
Q 1056 3291 1056 2328 
Q 1056 1369 1301 889 
Q 1547 409 2034 409 
Q 2525 409 2770 889 
Q 3016 1369 3016 2328 
Q 3016 3291 2770 3770 
Q 2525 4250 2034 4250 
z
M 2034 4750 
Q 2819 4750 3233 4129 
Q 3647 3509 3647 2328 
Q 3647 1150 3233 529 
Q 2819 -91 2034 -91 
Q 1250 -91 836 529 
Q 422 1150 422 2328 
Q 422 3509 836 4129 
Q 1250 4750 2034 4750 
z
" id="DejaVuSans-30" transform="scale(0.015625)"/>
       </defs>
       <use xlink:href="#DejaVuSans-32"/>
       <use x="63.623047" xlink:href="#DejaVuSans-30"/>
       <use x="127.246094" xlink:href="#DejaVuSans-30"/>
       <use x="190.869141" xlink:href="#DejaVuSans-30"/>
      </g>
     </g>
    </g>
    <g id="ytick_2">
     <g id="line2d_25">
      <g>
       <use style="stroke:#000000;stroke-width:0.8;" x="53.328125" xlink:href="#m29ff915fe8" y="247.095941"/>
      </g>
     </g>
     <g id="text_15">
      <!-- 2500 -->
      <g transform="translate(20.878125 250.89516)scale(0.1 -0.1)">
       <use xlink:href="#DejaVuSans-32"/>
       <use x="63.623047" xlink:href="#DejaVuSans-35"/>
       <use x="127.246094" xlink:href="#DejaVuSans-30"/>
       <use x="190.869141" xlink:href="#DejaVuSans-30"/>
      </g>
     </g>
    </g>
    <g id="ytick_3">
     <g id="line2d_26">
      <g>
       <use style="stroke:#000000;stroke-width:0.8;" x="53.328125" xlink:href="#m29ff915fe8" y="209.991646"/>
      </g>
     </g>
     <g id="text_16">
      <!-- 3000 -->
      <g transform="translate(20.878125 213.790865)scale(0.1 -0.1)">
       <defs>
        <path d="M 2597 2516 
Q 3050 2419 3304 2112 
Q 3559 1806 3559 1356 
Q 3559 666 3084 287 
Q 2609 -91 1734 -91 
Q 1441 -91 1130 -33 
Q 819 25 488 141 
L 488 750 
Q 750 597 1062 519 
Q 1375 441 1716 441 
Q 2309 441 2620 675 
Q 2931 909 2931 1356 
Q 2931 1769 2642 2001 
Q 2353 2234 1838 2234 
L 1294 2234 
L 1294 2753 
L 1863 2753 
Q 2328 2753 2575 2939 
Q 2822 3125 2822 3475 
Q 2822 3834 2567 4026 
Q 2313 4219 1838 4219 
Q 1578 4219 1281 4162 
Q 984 4106 628 3988 
L 628 4550 
Q 988 4650 1302 4700 
Q 1616 4750 1894 4750 
Q 2613 4750 3031 4423 
Q 3450 4097 3450 3541 
Q 3450 3153 3228 2886 
Q 3006 2619 2597 2516 
z
" id="DejaVuSans-33" transform="scale(0.015625)"/>
       </defs>
       <use xlink:href="#DejaVuSans-33"/>
       <use x="63.623047" xlink:href="#DejaVuSans-30"/>
       <use x="127.246094" xlink:href="#DejaVuSans-30"/>
       <use x="190.869141" xlink:href="#DejaVuSans-30"/>
      </g>
     </g>
    </g>
    <g id="ytick_4">
     <g id="line2d_27">
      <g>
       <use style="stroke:#000000;stroke-width:0.8;" x="53.328125" xlink:href="#m29ff915fe8" y="172.887352"/>
      </g>
     </g>
     <g id="text_17">
      <!-- 3500 -->
      <g transform="translate(20.878125 176.686571)scale(0.1 -0.1)">
       <use xlink:href="#DejaVuSans-33"/>
       <use x="63.623047" xlink:href="#DejaVuSans-35"/>
       <use x="127.246094" xlink:href="#DejaVuSans-30"/>
       <use x="190.869141" xlink:href="#DejaVuSans-30"/>
      </g>
     </g>
    </g>
    <g id="ytick_5">
     <g id="line2d_28">
      <g>
       <use style="stroke:#000000;stroke-width:0.8;" x="53.328125" xlink:href="#m29ff915fe8" y="135.783058"/>
      </g>
     </g>
     <g id="text_18">
      <!-- 4000 -->
      <g transform="translate(20.878125 139.582276)scale(0.1 -0.1)">
       <use xlink:href="#DejaVuSans-34"/>
       <use x="63.623047" xlink:href="#DejaVuSans-30"/>
       <use x="127.246094" xlink:href="#DejaVuSans-30"/>
       <use x="190.869141" xlink:href="#DejaVuSans-30"/>
      </g>
     </g>
    </g>
    <g id="ytick_6">
     <g id="line2d_29">
      <g>
       <use style="stroke:#000000;stroke-width:0.8;" x="53.328125" xlink:href="#m29ff915fe8" y="98.678763"/>
      </g>
     </g>
     <g id="text_19">
      <!-- 4500 -->
      <g transform="translate(20.878125 102.477982)scale(0.1 -0.1)">
       <use xlink:href="#DejaVuSans-34"/>
       <use x="63.623047" xlink:href="#DejaVuSans-35"/>
       <use x="127.246094" xlink:href="#DejaVuSans-30"/>
       <use x="190.869141" xlink:href="#DejaVuSans-30"/>
      </g>
     </g>
    </g>
    <g id="ytick_7">
     <g id="line2d_30">
      <g>
       <use style="stroke:#000000;stroke-width:0.8;" x="53.328125" xlink:href="#m29ff915fe8" y="61.574469"/>
      </g>
     </g>
     <g id="text_20">
      <!-- 5000 -->
      <g transform="translate(20.878125 65.373687)scale(0.1 -0.1)">
       <use xlink:href="#DejaVuSans-35"/>
       <use x="63.623047" xlink:href="#DejaVuSans-30"/>
       <use x="127.246094" xlink:href="#DejaVuSans-30"/>
       <use x="190.869141" xlink:href="#DejaVuSans-30"/>
      </g>
     </g>
    </g>
    <g id="ytick_8">
     <g id="line2d_31">
      <g>
       <use style="stroke:#000000;stroke-width:0.8;" x="53.328125" xlink:href="#m29ff915fe8" y="24.470174"/>
      </g>
     </g>
     <g id="text_21">
      <!-- 5500 -->
      <g transform="translate(20.878125 28.269393)scale(0.1 -0.1)">
       <use xlink:href="#DejaVuSans-35"/>
       <use x="63.623047" xlink:href="#DejaVuSans-35"/>
       <use x="127.246094" xlink:href="#DejaVuSans-30"/>
       <use x="190.869141" xlink:href="#DejaVuSans-30"/>
      </g>
     </g>
    </g>
    <g id="text_22">
     <!-- Code branch coverage -->
     <g transform="translate(14.798438 211.949125)rotate(-90)scale(0.1 -0.1)">
      <defs>
       <path d="M 4122 4306 
L 4122 3641 
Q 3803 3938 3442 4084 
Q 3081 4231 2675 4231 
Q 1875 4231 1450 3742 
Q 1025 3253 1025 2328 
Q 1025 1406 1450 917 
Q 1875 428 2675 428 
Q 3081 428 3442 575 
Q 3803 722 4122 1019 
L 4122 359 
Q 3791 134 3420 21 
Q 3050 -91 2638 -91 
Q 1578 -91 968 557 
Q 359 1206 359 2328 
Q 359 3453 968 4101 
Q 1578 4750 2638 4750 
Q 3056 4750 3426 4639 
Q 3797 4528 4122 4306 
z
" id="DejaVuSans-43" transform="scale(0.015625)"/>
       <path d="M 2906 2969 
L 2906 4863 
L 3481 4863 
L 3481 0 
L 2906 0 
L 2906 525 
Q 2725 213 2448 61 
Q 2172 -91 1784 -91 
Q 1150 -91 751 415 
Q 353 922 353 1747 
Q 353 2572 751 3078 
Q 1150 3584 1784 3584 
Q 2172 3584 2448 3432 
Q 2725 3281 2906 2969 
z
M 947 1747 
Q 947 1113 1208 752 
Q 1469 391 1925 391 
Q 2381 391 2643 752 
Q 2906 1113 2906 1747 
Q 2906 2381 2643 2742 
Q 2381 3103 1925 3103 
Q 1469 3103 1208 2742 
Q 947 2381 947 1747 
z
" id="DejaVuSans-64" transform="scale(0.015625)"/>
       <path d="M 3116 1747 
Q 3116 2381 2855 2742 
Q 2594 3103 2138 3103 
Q 1681 3103 1420 2742 
Q 1159 2381 1159 1747 
Q 1159 1113 1420 752 
Q 1681 391 2138 391 
Q 2594 391 2855 752 
Q 3116 1113 3116 1747 
z
M 1159 2969 
Q 1341 3281 1617 3432 
Q 1894 3584 2278 3584 
Q 2916 3584 3314 3078 
Q 3713 2572 3713 1747 
Q 3713 922 3314 415 
Q 2916 -91 2278 -91 
Q 1894 -91 1617 61 
Q 1341 213 1159 525 
L 1159 0 
L 581 0 
L 581 4863 
L 1159 4863 
L 1159 2969 
z
" id="DejaVuSans-62" transform="scale(0.015625)"/>
       <path d="M 2194 1759 
Q 1497 1759 1228 1600 
Q 959 1441 959 1056 
Q 959 750 1161 570 
Q 1363 391 1709 391 
Q 2188 391 2477 730 
Q 2766 1069 2766 1631 
L 2766 1759 
L 2194 1759 
z
M 3341 1997 
L 3341 0 
L 2766 0 
L 2766 531 
Q 2569 213 2275 61 
Q 1981 -91 1556 -91 
Q 1019 -91 701 211 
Q 384 513 384 1019 
Q 384 1609 779 1909 
Q 1175 2209 1959 2209 
L 2766 2209 
L 2766 2266 
Q 2766 2663 2505 2880 
Q 2244 3097 1772 3097 
Q 1472 3097 1187 3025 
Q 903 2953 641 2809 
L 641 3341 
Q 956 3463 1253 3523 
Q 1550 3584 1831 3584 
Q 2591 3584 2966 3190 
Q 3341 2797 3341 1997 
z
" id="DejaVuSans-61" transform="scale(0.015625)"/>
       <path d="M 3122 3366 
L 3122 2828 
Q 2878 2963 2633 3030 
Q 2388 3097 2138 3097 
Q 1578 3097 1268 2742 
Q 959 2388 959 1747 
Q 959 1106 1268 751 
Q 1578 397 2138 397 
Q 2388 397 2633 464 
Q 2878 531 3122 666 
L 3122 134 
Q 2881 22 2623 -34 
Q 2366 -91 2075 -91 
Q 1284 -91 818 406 
Q 353 903 353 1747 
Q 353 2603 823 3093 
Q 1294 3584 2113 3584 
Q 2378 3584 2631 3529 
Q 2884 3475 3122 3366 
z
" id="DejaVuSans-63" transform="scale(0.015625)"/>
       <path d="M 191 3500 
L 800 3500 
L 1894 563 
L 2988 3500 
L 3597 3500 
L 2284 0 
L 1503 0 
L 191 3500 
z
" id="DejaVuSans-76" transform="scale(0.015625)"/>
       <path d="M 2906 1791 
Q 2906 2416 2648 2759 
Q 2391 3103 1925 3103 
Q 1463 3103 1205 2759 
Q 947 2416 947 1791 
Q 947 1169 1205 825 
Q 1463 481 1925 481 
Q 2391 481 2648 825 
Q 2906 1169 2906 1791 
z
M 3481 434 
Q 3481 -459 3084 -895 
Q 2688 -1331 1869 -1331 
Q 1566 -1331 1297 -1286 
Q 1028 -1241 775 -1147 
L 775 -588 
Q 1028 -725 1275 -790 
Q 1522 -856 1778 -856 
Q 2344 -856 2625 -561 
Q 2906 -266 2906 331 
L 2906 616 
Q 2728 306 2450 153 
Q 2172 0 1784 0 
Q 1141 0 747 490 
Q 353 981 353 1791 
Q 353 2603 747 3093 
Q 1141 3584 1784 3584 
Q 2172 3584 2450 3431 
Q 2728 3278 2906 2969 
L 2906 3500 
L 3481 3500 
L 3481 434 
z
" id="DejaVuSans-67" transform="scale(0.015625)"/>
      </defs>
      <use xlink:href="#DejaVuSans-43"/>
      <use x="69.824219" xlink:href="#DejaVuSans-6f"/>
      <use x="131.005859" xlink:href="#DejaVuSans-64"/>
      <use x="194.482422" xlink:href="#DejaVuSans-65"/>
      <use x="256.005859" xlink:href="#DejaVuSans-20"/>
      <use x="287.792969" xlink:href="#DejaVuSans-62"/>
      <use x="351.269531" xlink:href="#DejaVuSans-72"/>
      <use x="392.382812" xlink:href="#DejaVuSans-61"/>
      <use x="453.662109" xlink:href="#DejaVuSans-6e"/>
      <use x="517.041016" xlink:href="#DejaVuSans-63"/>
      <use x="572.021484" xlink:href="#DejaVuSans-68"/>
      <use x="635.400391" xlink:href="#DejaVuSans-20"/>
      <use x="667.1875" xlink:href="#DejaVuSans-63"/>
      <use x="722.167969" xlink:href="#DejaVuSans-6f"/>
      <use x="783.349609" xlink:href="#DejaVuSans-76"/>
      <use x="842.529297" xlink:href="#DejaVuSans-65"/>
      <use x="904.052734" xlink:href="#DejaVuSans-72"/>
      <use x="945.166016" xlink:href="#DejaVuSans-61"/>
      <use x="1006.445312" xlink:href="#DejaVuSans-67"/>
      <use x="1069.921875" xlink:href="#DejaVuSans-65"/>
     </g>
    </g>
   </g>
   <g id="line2d_32">
    <path clip-path="url(#p3df05bff34)" d="M 85.79358 175.558861 
L 251.989452 151.997634 
L 349.207805 140.495303 
L 418.185324 132.592088 
L 471.688445 123.909683 
L 515.403677 119.308751 
L 552.36438 114.077045 
L 584.381197 110.700554 
L 612.622031 104.61545 
L 637.884317 99.457953 
L 660.736835 94.597291 
L 681.59955 91.74026 
L 700.791387 86.285929 
L 718.560252 84.467818 
L 735.10267 75.228849 
" style="fill:none;stroke:#ff7f0e;stroke-linecap:square;stroke-width:1.5;"/>
    <defs>
     <path d="M 3 0 
L -3 -3 
L -3 3 
z
" id="md45d1f02d4" style="stroke:#ffffff;stroke-linejoin:miter;stroke-width:0.75;"/>
    </defs>
    <g clip-path="url(#p3df05bff34)">
     <use style="fill:#ff7f0e;stroke:#ffffff;stroke-linejoin:miter;stroke-width:0.75;" x="85.79358" xlink:href="#md45d1f02d4" y="175.558861"/>
     <use style="fill:#ff7f0e;stroke:#ffffff;stroke-linejoin:miter;stroke-width:0.75;" x="251.989452" xlink:href="#md45d1f02d4" y="151.997634"/>
     <use style="fill:#ff7f0e;stroke:#ffffff;stroke-linejoin:miter;stroke-width:0.75;" x="349.207805" xlink:href="#md45d1f02d4" y="140.495303"/>
     <use style="fill:#ff7f0e;stroke:#ffffff;stroke-linejoin:miter;stroke-width:0.75;" x="418.185324" xlink:href="#md45d1f02d4" y="132.592088"/>
     <use style="fill:#ff7f0e;stroke:#ffffff;stroke-linejoin:miter;stroke-width:0.75;" x="471.688445" xlink:href="#md45d1f02d4" y="123.909683"/>
     <use style="fill:#ff7f0e;stroke:#ffffff;stroke-linejoin:miter;stroke-width:0.75;" x="515.403677" xlink:href="#md45d1f02d4" y="119.308751"/>
     <use style="fill:#ff7f0e;stroke:#ffffff;stroke-linejoin:miter;stroke-width:0.75;" x="552.36438" xlink:href="#md45d1f02d4" y="114.077045"/>
     <use style="fill:#ff7f0e;stroke:#ffffff;stroke-linejoin:miter;stroke-width:0.75;" x="584.381197" xlink:href="#md45d1f02d4" y="110.700554"/>
     <use style="fill:#ff7f0e;stroke:#ffffff;stroke-linejoin:miter;stroke-width:0.75;" x="612.622031" xlink:href="#md45d1f02d4" y="104.61545"/>
     <use style="fill:#ff7f0e;stroke:#ffffff;stroke-linejoin:miter;stroke-width:0.75;" x="637.884317" xlink:href="#md45d1f02d4" y="99.457953"/>
     <use style="fill:#ff7f0e;stroke:#ffffff;stroke-linejoin:miter;stroke-width:0.75;" x="660.736835" xlink:href="#md45d1f02d4" y="94.597291"/>
     <use style="fill:#ff7f0e;stroke:#ffffff;stroke-linejoin:miter;stroke-width:0.75;" x="681.59955" xlink:href="#md45d1f02d4" y="91.74026"/>
     <use style="fill:#ff7f0e;stroke:#ffffff;stroke-linejoin:miter;stroke-width:0.75;" x="700.791387" xlink:href="#md45d1f02d4" y="86.285929"/>
     <use style="fill:#ff7f0e;stroke:#ffffff;stroke-linejoin:miter;stroke-width:0.75;" x="718.560252" xlink:href="#md45d1f02d4" y="84.467818"/>
     <use style="fill:#ff7f0e;stroke:#ffffff;stroke-linejoin:miter;stroke-width:0.75;" x="735.10267" xlink:href="#md45d1f02d4" y="75.228849"/>
    </g>
   </g>
   <g id="line2d_33">
    <path clip-path="url(#p3df05bff34)" d="M 85.79358 235.519401 
L 251.989452 214.51837 
L 349.207805 204.722837 
L 418.185324 192.812358 
L 471.688445 182.089217 
L 515.403677 173.555229 
L 552.36438 166.431205 
L 584.381197 161.310812 
L 612.622031 153.370493 
L 637.884317 143.278125 
L 660.736835 140.717929 
L 681.59955 135.152285 
L 700.791387 120.310567 
L 718.560252 114.819131 
L 735.10267 112.407352 
" style="fill:none;stroke:#98df8a;stroke-linecap:square;stroke-width:1.5;"/>
    <defs>
     <path d="M -0 3 
L 3 -3 
L -3 -3 
z
" id="m27f6767566" style="stroke:#ffffff;stroke-linejoin:miter;stroke-width:0.75;"/>
    </defs>
    <g clip-path="url(#p3df05bff34)">
     <use style="fill:#98df8a;stroke:#ffffff;stroke-linejoin:miter;stroke-width:0.75;" x="85.79358" xlink:href="#m27f6767566" y="235.519401"/>
     <use style="fill:#98df8a;stroke:#ffffff;stroke-linejoin:miter;stroke-width:0.75;" x="251.989452" xlink:href="#m27f6767566" y="214.51837"/>
     <use style="fill:#98df8a;stroke:#ffffff;stroke-linejoin:miter;stroke-width:0.75;" x="349.207805" xlink:href="#m27f6767566" y="204.722837"/>
     <use style="fill:#98df8a;stroke:#ffffff;stroke-linejoin:miter;stroke-width:0.75;" x="418.185324" xlink:href="#m27f6767566" y="192.812358"/>
     <use style="fill:#98df8a;stroke:#ffffff;stroke-linejoin:miter;stroke-width:0.75;" x="471.688445" xlink:href="#m27f6767566" y="182.089217"/>
     <use style="fill:#98df8a;stroke:#ffffff;stroke-linejoin:miter;stroke-width:0.75;" x="515.403677" xlink:href="#m27f6767566" y="173.555229"/>
     <use style="fill:#98df8a;stroke:#ffffff;stroke-linejoin:miter;stroke-width:0.75;" x="552.36438" xlink:href="#m27f6767566" y="166.431205"/>
     <use style="fill:#98df8a;stroke:#ffffff;stroke-linejoin:miter;stroke-width:0.75;" x="584.381197" xlink:href="#m27f6767566" y="161.310812"/>
     <use style="fill:#98df8a;stroke:#ffffff;stroke-linejoin:miter;stroke-width:0.75;" x="612.622031" xlink:href="#m27f6767566" y="153.370493"/>
     <use style="fill:#98df8a;stroke:#ffffff;stroke-linejoin:miter;stroke-width:0.75;" x="637.884317" xlink:href="#m27f6767566" y="143.278125"/>
     <use style="fill:#98df8a;stroke:#ffffff;stroke-linejoin:miter;stroke-width:0.75;" x="660.736835" xlink:href="#m27f6767566" y="140.717929"/>
     <use style="fill:#98df8a;stroke:#ffffff;stroke-linejoin:miter;stroke-width:0.75;" x="681.59955" xlink:href="#m27f6767566" y="135.152285"/>
     <use style="fill:#98df8a;stroke:#ffffff;stroke-linejoin:miter;stroke-width:0.75;" x="700.791387" xlink:href="#m27f6767566" y="120.310567"/>
     <use style="fill:#98df8a;stroke:#ffffff;stroke-linejoin:miter;stroke-width:0.75;" x="718.560252" xlink:href="#m27f6767566" y="114.819131"/>
     <use style="fill:#98df8a;stroke:#ffffff;stroke-linejoin:miter;stroke-width:0.75;" x="735.10267" xlink:href="#m27f6767566" y="112.407352"/>
    </g>
   </g>
   <g id="line2d_34">
    <path clip-path="url(#p3df05bff34)" d="M 85.79358 238.487745 
L 251.989452 214.25864 
L 349.207805 194.778886 
L 418.185324 178.749831 
L 471.688445 168.768775 
L 515.403677 163.128923 
L 552.36438 156.932505 
L 584.381197 153.407597 
L 612.622031 148.472726 
L 637.884317 141.200285 
L 660.736835 137.341438 
L 681.59955 133.074444 
L 700.791387 127.360383 
L 718.560252 124.614665 
L 735.10267 122.536824 
" style="fill:none;stroke:#d62728;stroke-linecap:square;stroke-width:1.5;"/>
    <defs>
     <path d="M 0 -3 
L -3 3 
L 3 3 
z
" id="m78850ca779" style="stroke:#ffffff;stroke-linejoin:miter;stroke-width:0.75;"/>
    </defs>
    <g clip-path="url(#p3df05bff34)">
     <use style="fill:#d62728;stroke:#ffffff;stroke-linejoin:miter;stroke-width:0.75;" x="85.79358" xlink:href="#m78850ca779" y="238.487745"/>
     <use style="fill:#d62728;stroke:#ffffff;stroke-linejoin:miter;stroke-width:0.75;" x="251.989452" xlink:href="#m78850ca779" y="214.25864"/>
     <use style="fill:#d62728;stroke:#ffffff;stroke-linejoin:miter;stroke-width:0.75;" x="349.207805" xlink:href="#m78850ca779" y="194.778886"/>
     <use style="fill:#d62728;stroke:#ffffff;stroke-linejoin:miter;stroke-width:0.75;" x="418.185324" xlink:href="#m78850ca779" y="178.749831"/>
     <use style="fill:#d62728;stroke:#ffffff;stroke-linejoin:miter;stroke-width:0.75;" x="471.688445" xlink:href="#m78850ca779" y="168.768775"/>
     <use style="fill:#d62728;stroke:#ffffff;stroke-linejoin:miter;stroke-width:0.75;" x="515.403677" xlink:href="#m78850ca779" y="163.128923"/>
     <use style="fill:#d62728;stroke:#ffffff;stroke-linejoin:miter;stroke-width:0.75;" x="552.36438" xlink:href="#m78850ca779" y="156.932505"/>
     <use style="fill:#d62728;stroke:#ffffff;stroke-linejoin:miter;stroke-width:0.75;" x="584.381197" xlink:href="#m78850ca779" y="153.407597"/>
     <use style="fill:#d62728;stroke:#ffffff;stroke-linejoin:miter;stroke-width:0.75;" x="612.622031" xlink:href="#m78850ca779" y="148.472726"/>
     <use style="fill:#d62728;stroke:#ffffff;stroke-linejoin:miter;stroke-width:0.75;" x="637.884317" xlink:href="#m78850ca779" y="141.200285"/>
     <use style="fill:#d62728;stroke:#ffffff;stroke-linejoin:miter;stroke-width:0.75;" x="660.736835" xlink:href="#m78850ca779" y="137.341438"/>
     <use style="fill:#d62728;stroke:#ffffff;stroke-linejoin:miter;stroke-width:0.75;" x="681.59955" xlink:href="#m78850ca779" y="133.074444"/>
     <use style="fill:#d62728;stroke:#ffffff;stroke-linejoin:miter;stroke-width:0.75;" x="700.791387" xlink:href="#m78850ca779" y="127.360383"/>
     <use style="fill:#d62728;stroke:#ffffff;stroke-linejoin:miter;stroke-width:0.75;" x="718.560252" xlink:href="#m78850ca779" y="124.614665"/>
     <use style="fill:#d62728;stroke:#ffffff;stroke-linejoin:miter;stroke-width:0.75;" x="735.10267" xlink:href="#m78850ca779" y="122.536824"/>
    </g>
   </g>
   <g id="line2d_35">
    <path clip-path="url(#p3df05bff34)" d="M 85.79358 247.578297 
L 251.989452 238.228015 
L 349.207805 228.395377 
L 418.185324 221.827916 
L 471.688445 213.813389 
L 515.403677 205.61334 
L 552.36438 200.492947 
L 584.381197 198.452211 
L 612.622031 197.042248 
L 637.884317 195.669389 
L 660.736835 191.105561 
L 681.59955 187.20961 
L 700.791387 184.983352 
L 718.560252 183.721806 
L 735.10267 182.905512 
" style="fill:none;stroke:#1f77b4;stroke-linecap:square;stroke-width:1.5;"/>
    <defs>
     <path d="M 0 3 
C 0.795609 3 1.55874 2.683901 2.12132 2.12132 
C 2.683901 1.55874 3 0.795609 3 0 
C 3 -0.795609 2.683901 -1.55874 2.12132 -2.12132 
C 1.55874 -2.683901 0.795609 -3 0 -3 
C -0.795609 -3 -1.55874 -2.683901 -2.12132 -2.12132 
C -2.683901 -1.55874 -3 -0.795609 -3 0 
C -3 0.795609 -2.683901 1.55874 -2.12132 2.12132 
C -1.55874 2.683901 -0.795609 3 0 3 
z
" id="mf46e78f8f5" style="stroke:#ffffff;stroke-width:0.75;"/>
    </defs>
    <g clip-path="url(#p3df05bff34)">
     <use style="fill:#1f77b4;stroke:#ffffff;stroke-width:0.75;" x="85.79358" xlink:href="#mf46e78f8f5" y="247.578297"/>
     <use style="fill:#1f77b4;stroke:#ffffff;stroke-width:0.75;" x="251.989452" xlink:href="#mf46e78f8f5" y="238.228015"/>
     <use style="fill:#1f77b4;stroke:#ffffff;stroke-width:0.75;" x="349.207805" xlink:href="#mf46e78f8f5" y="228.395377"/>
     <use style="fill:#1f77b4;stroke:#ffffff;stroke-width:0.75;" x="418.185324" xlink:href="#mf46e78f8f5" y="221.827916"/>
     <use style="fill:#1f77b4;stroke:#ffffff;stroke-width:0.75;" x="471.688445" xlink:href="#mf46e78f8f5" y="213.813389"/>
     <use style="fill:#1f77b4;stroke:#ffffff;stroke-width:0.75;" x="515.403677" xlink:href="#mf46e78f8f5" y="205.61334"/>
     <use style="fill:#1f77b4;stroke:#ffffff;stroke-width:0.75;" x="552.36438" xlink:href="#mf46e78f8f5" y="200.492947"/>
     <use style="fill:#1f77b4;stroke:#ffffff;stroke-width:0.75;" x="584.381197" xlink:href="#mf46e78f8f5" y="198.452211"/>
     <use style="fill:#1f77b4;stroke:#ffffff;stroke-width:0.75;" x="612.622031" xlink:href="#mf46e78f8f5" y="197.042248"/>
     <use style="fill:#1f77b4;stroke:#ffffff;stroke-width:0.75;" x="637.884317" xlink:href="#mf46e78f8f5" y="195.669389"/>
     <use style="fill:#1f77b4;stroke:#ffffff;stroke-width:0.75;" x="660.736835" xlink:href="#mf46e78f8f5" y="191.105561"/>
     <use style="fill:#1f77b4;stroke:#ffffff;stroke-width:0.75;" x="681.59955" xlink:href="#mf46e78f8f5" y="187.20961"/>
     <use style="fill:#1f77b4;stroke:#ffffff;stroke-width:0.75;" x="700.791387" xlink:href="#mf46e78f8f5" y="184.983352"/>
     <use style="fill:#1f77b4;stroke:#ffffff;stroke-width:0.75;" x="718.560252" xlink:href="#mf46e78f8f5" y="183.721806"/>
     <use style="fill:#1f77b4;stroke:#ffffff;stroke-width:0.75;" x="735.10267" xlink:href="#mf46e78f8f5" y="182.905512"/>
    </g>
   </g>
   <g id="line2d_36">
    <path clip-path="url(#p3df05bff34)" d="M 85.79358 233.738395 
L 251.989452 218.080383 
L 349.207805 208.878518 
L 418.185324 198.526419 
L 471.688445 196.188849 
L 515.403677 193.331818 
L 552.36438 187.914591 
L 584.381197 185.873855 
L 612.622031 182.348947 
L 637.884317 178.267475 
L 660.736835 176.857512 
L 681.59955 174.85388 
L 700.791387 172.256579 
L 718.560252 171.625806 
L 735.10267 170.88372 
" style="fill:none;stroke:#c7c7c7;stroke-linecap:square;stroke-width:1.5;"/>
    <defs>
     <path d="M -3 -0 
L 3 3 
L 3 -3 
z
" id="ma68fc1e86b" style="stroke:#ffffff;stroke-linejoin:miter;stroke-width:0.75;"/>
    </defs>
    <g clip-path="url(#p3df05bff34)">
     <use style="fill:#c7c7c7;stroke:#ffffff;stroke-linejoin:miter;stroke-width:0.75;" x="85.79358" xlink:href="#ma68fc1e86b" y="233.738395"/>
     <use style="fill:#c7c7c7;stroke:#ffffff;stroke-linejoin:miter;stroke-width:0.75;" x="251.989452" xlink:href="#ma68fc1e86b" y="218.080383"/>
     <use style="fill:#c7c7c7;stroke:#ffffff;stroke-linejoin:miter;stroke-width:0.75;" x="349.207805" xlink:href="#ma68fc1e86b" y="208.878518"/>
     <use style="fill:#c7c7c7;stroke:#ffffff;stroke-linejoin:miter;stroke-width:0.75;" x="418.185324" xlink:href="#ma68fc1e86b" y="198.526419"/>
     <use style="fill:#c7c7c7;stroke:#ffffff;stroke-linejoin:miter;stroke-width:0.75;" x="471.688445" xlink:href="#ma68fc1e86b" y="196.188849"/>
     <use style="fill:#c7c7c7;stroke:#ffffff;stroke-linejoin:miter;stroke-width:0.75;" x="515.403677" xlink:href="#ma68fc1e86b" y="193.331818"/>
     <use style="fill:#c7c7c7;stroke:#ffffff;stroke-linejoin:miter;stroke-width:0.75;" x="552.36438" xlink:href="#ma68fc1e86b" y="187.914591"/>
     <use style="fill:#c7c7c7;stroke:#ffffff;stroke-linejoin:miter;stroke-width:0.75;" x="584.381197" xlink:href="#ma68fc1e86b" y="185.873855"/>
     <use style="fill:#c7c7c7;stroke:#ffffff;stroke-linejoin:miter;stroke-width:0.75;" x="612.622031" xlink:href="#ma68fc1e86b" y="182.348947"/>
     <use style="fill:#c7c7c7;stroke:#ffffff;stroke-linejoin:miter;stroke-width:0.75;" x="637.884317" xlink:href="#ma68fc1e86b" y="178.267475"/>
     <use style="fill:#c7c7c7;stroke:#ffffff;stroke-linejoin:miter;stroke-width:0.75;" x="660.736835" xlink:href="#ma68fc1e86b" y="176.857512"/>
     <use style="fill:#c7c7c7;stroke:#ffffff;stroke-linejoin:miter;stroke-width:0.75;" x="681.59955" xlink:href="#ma68fc1e86b" y="174.85388"/>
     <use style="fill:#c7c7c7;stroke:#ffffff;stroke-linejoin:miter;stroke-width:0.75;" x="700.791387" xlink:href="#ma68fc1e86b" y="172.256579"/>
     <use style="fill:#c7c7c7;stroke:#ffffff;stroke-linejoin:miter;stroke-width:0.75;" x="718.560252" xlink:href="#ma68fc1e86b" y="171.625806"/>
     <use style="fill:#c7c7c7;stroke:#ffffff;stroke-linejoin:miter;stroke-width:0.75;" x="735.10267" xlink:href="#ma68fc1e86b" y="170.88372"/>
    </g>
   </g>
   <g id="line2d_37">
    <path clip-path="url(#p3df05bff34)" d="M 85.79358 248.543008 
L 251.989452 232.551058 
L 349.207805 223.200775 
L 418.185324 216.336481 
L 471.688445 212.366321 
L 515.403677 206.503843 
L 552.36438 203.572604 
L 584.381197 202.16264 
L 612.622031 200.159008 
L 637.884317 199.082984 
L 660.736835 198.192481 
L 681.59955 193.109192 
L 700.791387 188.916407 
L 718.560252 187.543548 
L 735.10267 186.801462 
" style="fill:none;stroke:#ff9896;stroke-linecap:square;stroke-width:1.5;"/>
    <defs>
     <path d="M -1.14805 -2.771639 
L -2.771639 -1.14805 
L -2.771639 1.14805 
L -1.14805 2.771639 
L 1.14805 2.771639 
L 2.771639 1.14805 
L 2.771639 -1.14805 
L 1.14805 -2.771639 
z
" id="m631191b152" style="stroke:#ffffff;stroke-linejoin:miter;stroke-width:0.75;"/>
    </defs>
    <g clip-path="url(#p3df05bff34)">
     <use style="fill:#ff9896;stroke:#ffffff;stroke-linejoin:miter;stroke-width:0.75;" x="85.79358" xlink:href="#m631191b152" y="248.543008"/>
     <use style="fill:#ff9896;stroke:#ffffff;stroke-linejoin:miter;stroke-width:0.75;" x="251.989452" xlink:href="#m631191b152" y="232.551058"/>
     <use style="fill:#ff9896;stroke:#ffffff;stroke-linejoin:miter;stroke-width:0.75;" x="349.207805" xlink:href="#m631191b152" y="223.200775"/>
     <use style="fill:#ff9896;stroke:#ffffff;stroke-linejoin:miter;stroke-width:0.75;" x="418.185324" xlink:href="#m631191b152" y="216.336481"/>
     <use style="fill:#ff9896;stroke:#ffffff;stroke-linejoin:miter;stroke-width:0.75;" x="471.688445" xlink:href="#m631191b152" y="212.366321"/>
     <use style="fill:#ff9896;stroke:#ffffff;stroke-linejoin:miter;stroke-width:0.75;" x="515.403677" xlink:href="#m631191b152" y="206.503843"/>
     <use style="fill:#ff9896;stroke:#ffffff;stroke-linejoin:miter;stroke-width:0.75;" x="552.36438" xlink:href="#m631191b152" y="203.572604"/>
     <use style="fill:#ff9896;stroke:#ffffff;stroke-linejoin:miter;stroke-width:0.75;" x="584.381197" xlink:href="#m631191b152" y="202.16264"/>
     <use style="fill:#ff9896;stroke:#ffffff;stroke-linejoin:miter;stroke-width:0.75;" x="612.622031" xlink:href="#m631191b152" y="200.159008"/>
     <use style="fill:#ff9896;stroke:#ffffff;stroke-linejoin:miter;stroke-width:0.75;" x="637.884317" xlink:href="#m631191b152" y="199.082984"/>
     <use style="fill:#ff9896;stroke:#ffffff;stroke-linejoin:miter;stroke-width:0.75;" x="660.736835" xlink:href="#m631191b152" y="198.192481"/>
     <use style="fill:#ff9896;stroke:#ffffff;stroke-linejoin:miter;stroke-width:0.75;" x="681.59955" xlink:href="#m631191b152" y="193.109192"/>
     <use style="fill:#ff9896;stroke:#ffffff;stroke-linejoin:miter;stroke-width:0.75;" x="700.791387" xlink:href="#m631191b152" y="188.916407"/>
     <use style="fill:#ff9896;stroke:#ffffff;stroke-linejoin:miter;stroke-width:0.75;" x="718.560252" xlink:href="#m631191b152" y="187.543548"/>
     <use style="fill:#ff9896;stroke:#ffffff;stroke-linejoin:miter;stroke-width:0.75;" x="735.10267" xlink:href="#m631191b152" y="186.801462"/>
    </g>
   </g>
   <g id="line2d_38"/>
   <g id="line2d_39"/>
   <g id="line2d_40"/>
   <g id="line2d_41"/>
   <g id="line2d_42"/>
   <g id="line2d_43"/>
   <g id="line2d_44">
    <path clip-path="url(#p3df05bff34)" d="M 735.10267 288.430125 
L 735.10267 22.318125 
" style="fill:none;stroke:#ff0000;stroke-linecap:square;stroke-width:1.5;"/>
   </g>
   <g id="patch_3">
    <path d="M 53.328125 284.200235 
L 53.328125 24.470174 
" style="fill:none;stroke:#000000;stroke-linecap:square;stroke-linejoin:miter;stroke-width:0.8;"/>
   </g>
   <g id="patch_4">
    <path d="M 735.10267 288.430125 
L 735.368934 288.430125 
" style="fill:none;stroke:#000000;stroke-linecap:square;stroke-linejoin:miter;stroke-width:0.8;"/>
   </g>
   <g id="text_23">
    <!-- freetype2-2017 (15m, 100 trials/fuzzer) -->
    <g transform="translate(291.375313 16.318125)scale(0.12 -0.12)">
     <defs>
      <path d="M 2375 4863 
L 2375 4384 
L 1825 4384 
Q 1516 4384 1395 4259 
Q 1275 4134 1275 3809 
L 1275 3500 
L 2222 3500 
L 2222 3053 
L 1275 3053 
L 1275 0 
L 697 0 
L 697 3053 
L 147 3053 
L 147 3500 
L 697 3500 
L 697 3744 
Q 697 4328 969 4595 
Q 1241 4863 1831 4863 
L 2375 4863 
z
" id="DejaVuSans-66" transform="scale(0.015625)"/>
      <path d="M 2059 -325 
Q 1816 -950 1584 -1140 
Q 1353 -1331 966 -1331 
L 506 -1331 
L 506 -850 
L 844 -850 
Q 1081 -850 1212 -737 
Q 1344 -625 1503 -206 
L 1606 56 
L 191 3500 
L 800 3500 
L 1894 763 
L 2988 3500 
L 3597 3500 
L 2059 -325 
z
" id="DejaVuSans-79" transform="scale(0.015625)"/>
      <path d="M 1159 525 
L 1159 -1331 
L 581 -1331 
L 581 3500 
L 1159 3500 
L 1159 2969 
Q 1341 3281 1617 3432 
Q 1894 3584 2278 3584 
Q 2916 3584 3314 3078 
Q 3713 2572 3713 1747 
Q 3713 922 3314 415 
Q 2916 -91 2278 -91 
Q 1894 -91 1617 61 
Q 1341 213 1159 525 
z
M 3116 1747 
Q 3116 2381 2855 2742 
Q 2594 3103 2138 3103 
Q 1681 3103 1420 2742 
Q 1159 2381 1159 1747 
Q 1159 1113 1420 752 
Q 1681 391 2138 391 
Q 2594 391 2855 752 
Q 3116 1113 3116 1747 
z
" id="DejaVuSans-70" transform="scale(0.015625)"/>
      <path d="M 313 2009 
L 1997 2009 
L 1997 1497 
L 313 1497 
L 313 2009 
z
" id="DejaVuSans-2d" transform="scale(0.015625)"/>
      <path d="M 525 4666 
L 3525 4666 
L 3525 4397 
L 1831 0 
L 1172 0 
L 2766 4134 
L 525 4134 
L 525 4666 
z
" id="DejaVuSans-37" transform="scale(0.015625)"/>
      <path d="M 750 794 
L 1409 794 
L 1409 256 
L 897 -744 
L 494 -744 
L 750 256 
L 750 794 
z
" id="DejaVuSans-2c" transform="scale(0.015625)"/>
      <path d="M 603 4863 
L 1178 4863 
L 1178 0 
L 603 0 
L 603 4863 
z
" id="DejaVuSans-6c" transform="scale(0.015625)"/>
      <path d="M 2834 3397 
L 2834 2853 
Q 2591 2978 2328 3040 
Q 2066 3103 1784 3103 
Q 1356 3103 1142 2972 
Q 928 2841 928 2578 
Q 928 2378 1081 2264 
Q 1234 2150 1697 2047 
L 1894 2003 
Q 2506 1872 2764 1633 
Q 3022 1394 3022 966 
Q 3022 478 2636 193 
Q 2250 -91 1575 -91 
Q 1294 -91 989 -36 
Q 684 19 347 128 
L 347 722 
Q 666 556 975 473 
Q 1284 391 1588 391 
Q 1994 391 2212 530 
Q 2431 669 2431 922 
Q 2431 1156 2273 1281 
Q 2116 1406 1581 1522 
L 1381 1569 
Q 847 1681 609 1914 
Q 372 2147 372 2553 
Q 372 3047 722 3315 
Q 1072 3584 1716 3584 
Q 2034 3584 2315 3537 
Q 2597 3491 2834 3397 
z
" id="DejaVuSans-73" transform="scale(0.015625)"/>
      <path d="M 1625 4666 
L 2156 4666 
L 531 -594 
L 0 -594 
L 1625 4666 
z
" id="DejaVuSans-2f" transform="scale(0.015625)"/>
      <path d="M 353 3500 
L 3084 3500 
L 3084 2975 
L 922 459 
L 3084 459 
L 3084 0 
L 275 0 
L 275 525 
L 2438 3041 
L 353 3041 
L 353 3500 
z
" id="DejaVuSans-7a" transform="scale(0.015625)"/>
     </defs>
     <use xlink:href="#DejaVuSans-66"/>
     <use x="35.205078" xlink:href="#DejaVuSans-72"/>
     <use x="74.068359" xlink:href="#DejaVuSans-65"/>
     <use x="135.591797" xlink:href="#DejaVuSans-65"/>
     <use x="197.115234" xlink:href="#DejaVuSans-74"/>
     <use x="236.324219" xlink:href="#DejaVuSans-79"/>
     <use x="295.503906" xlink:href="#DejaVuSans-70"/>
     <use x="358.980469" xlink:href="#DejaVuSans-65"/>
     <use x="420.503906" xlink:href="#DejaVuSans-32"/>
     <use x="484.126953" xlink:href="#DejaVuSans-2d"/>
     <use x="520.210938" xlink:href="#DejaVuSans-32"/>
     <use x="583.833984" xlink:href="#DejaVuSans-30"/>
     <use x="647.457031" xlink:href="#DejaVuSans-31"/>
     <use x="711.080078" xlink:href="#DejaVuSans-37"/>
     <use x="774.703125" xlink:href="#DejaVuSans-20"/>
     <use x="806.490234" xlink:href="#DejaVuSans-28"/>
     <use x="845.503906" xlink:href="#DejaVuSans-31"/>
     <use x="909.126953" xlink:href="#DejaVuSans-35"/>
     <use x="972.75" xlink:href="#DejaVuSans-6d"/>
     <use x="1070.162109" xlink:href="#DejaVuSans-2c"/>
     <use x="1101.949219" xlink:href="#DejaVuSans-20"/>
     <use x="1133.736328" xlink:href="#DejaVuSans-31"/>
     <use x="1197.359375" xlink:href="#DejaVuSans-30"/>
     <use x="1260.982422" xlink:href="#DejaVuSans-30"/>
     <use x="1324.605469" xlink:href="#DejaVuSans-20"/>
     <use x="1356.392578" xlink:href="#DejaVuSans-74"/>
     <use x="1395.601562" xlink:href="#DejaVuSans-72"/>
     <use x="1436.714844" xlink:href="#DejaVuSans-69"/>
     <use x="1464.498047" xlink:href="#DejaVuSans-61"/>
     <use x="1525.777344" xlink:href="#DejaVuSans-6c"/>
     <use x="1553.560547" xlink:href="#DejaVuSans-73"/>
     <use x="1605.660156" xlink:href="#DejaVuSans-2f"/>
     <use x="1639.351562" xlink:href="#DejaVuSans-66"/>
     <use x="1674.556641" xlink:href="#DejaVuSans-75"/>
     <use x="1737.935547" xlink:href="#DejaVuSans-7a"/>
     <use x="1790.425781" xlink:href="#DejaVuSans-7a"/>
     <use x="1842.916016" xlink:href="#DejaVuSans-65"/>
     <use x="1904.439453" xlink:href="#DejaVuSans-72"/>
     <use x="1945.552734" xlink:href="#DejaVuSans-29"/>
    </g>
   </g>
   <g id="legend_1">
    <g id="line2d_45">
     <path d="M 771.568125 30.416562 
L 791.568125 30.416562 
" style="fill:none;stroke:#ff7f0e;stroke-linecap:square;stroke-width:1.5;"/>
    </g>
    <g id="line2d_46">
     <defs>
      <path d="M 3 0 
L -3 -3 
L -3 3 
z
" id="m9cea834a42" style="stroke:#ff7f0e;stroke-linejoin:miter;"/>
     </defs>
     <g>
      <use style="fill:#ff7f0e;stroke:#ff7f0e;stroke-linejoin:miter;" x="781.568125" xlink:href="#m9cea834a42" y="30.416562"/>
     </g>
    </g>
    <g id="text_24">
     <!-- honggfuzz -->
     <g transform="translate(799.568125 33.916562)scale(0.1 -0.1)">
      <use xlink:href="#DejaVuSans-68"/>
      <use x="63.378906" xlink:href="#DejaVuSans-6f"/>
      <use x="124.560547" xlink:href="#DejaVuSans-6e"/>
      <use x="187.939453" xlink:href="#DejaVuSans-67"/>
      <use x="251.416016" xlink:href="#DejaVuSans-67"/>
      <use x="314.892578" xlink:href="#DejaVuSans-66"/>
      <use x="350.097656" xlink:href="#DejaVuSans-75"/>
      <use x="413.476562" xlink:href="#DejaVuSans-7a"/>
      <use x="465.966797" xlink:href="#DejaVuSans-7a"/>
     </g>
    </g>
    <g id="line2d_47">
     <path d="M 771.568125 45.094688 
L 791.568125 45.094688 
" style="fill:none;stroke:#98df8a;stroke-linecap:square;stroke-width:1.5;"/>
    </g>
    <g id="line2d_48">
     <defs>
      <path d="M -0 3 
L 3 -3 
L -3 -3 
z
" id="m996e56d115" style="stroke:#98df8a;stroke-linejoin:miter;"/>
     </defs>
     <g>
      <use style="fill:#98df8a;stroke:#98df8a;stroke-linejoin:miter;" x="781.568125" xlink:href="#m996e56d115" y="45.094688"/>
     </g>
    </g>
    <g id="text_25">
     <!-- aflplusplus -->
     <g transform="translate(799.568125 48.594688)scale(0.1 -0.1)">
      <use xlink:href="#DejaVuSans-61"/>
      <use x="61.279297" xlink:href="#DejaVuSans-66"/>
      <use x="96.484375" xlink:href="#DejaVuSans-6c"/>
      <use x="124.267578" xlink:href="#DejaVuSans-70"/>
      <use x="187.744141" xlink:href="#DejaVuSans-6c"/>
      <use x="215.527344" xlink:href="#DejaVuSans-75"/>
      <use x="278.90625" xlink:href="#DejaVuSans-73"/>
      <use x="331.005859" xlink:href="#DejaVuSans-70"/>
      <use x="394.482422" xlink:href="#DejaVuSans-6c"/>
      <use x="422.265625" xlink:href="#DejaVuSans-75"/>
      <use x="485.644531" xlink:href="#DejaVuSans-73"/>
     </g>
    </g>
    <g id="line2d_49">
     <path d="M 771.568125 59.772812 
L 791.568125 59.772812 
" style="fill:none;stroke:#d62728;stroke-linecap:square;stroke-width:1.5;"/>
    </g>
    <g id="line2d_50">
     <defs>
      <path d="M 0 -3 
L -3 3 
L 3 3 
z
" id="mec17d052ec" style="stroke:#d62728;stroke-linejoin:miter;"/>
     </defs>
     <g>
      <use style="fill:#d62728;stroke:#d62728;stroke-linejoin:miter;" x="781.568125" xlink:href="#mec17d052ec" y="59.772812"/>
     </g>
    </g>
    <g id="text_26">
     <!-- eclipser -->
     <g transform="translate(799.568125 63.272812)scale(0.1 -0.1)">
      <use xlink:href="#DejaVuSans-65"/>
      <use x="61.523438" xlink:href="#DejaVuSans-63"/>
      <use x="116.503906" xlink:href="#DejaVuSans-6c"/>
      <use x="144.287109" xlink:href="#DejaVuSans-69"/>
      <use x="172.070312" xlink:href="#DejaVuSans-70"/>
      <use x="235.546875" xlink:href="#DejaVuSans-73"/>
      <use x="287.646484" xlink:href="#DejaVuSans-65"/>
      <use x="349.169922" xlink:href="#DejaVuSans-72"/>
     </g>
    </g>
    <g id="line2d_51">
     <path d="M 771.568125 74.450938 
L 791.568125 74.450938 
" style="fill:none;stroke:#1f77b4;stroke-linecap:square;stroke-width:1.5;"/>
    </g>
    <g id="line2d_52">
     <defs>
      <path d="M 0 3 
C 0.795609 3 1.55874 2.683901 2.12132 2.12132 
C 2.683901 1.55874 3 0.795609 3 0 
C 3 -0.795609 2.683901 -1.55874 2.12132 -2.12132 
C 1.55874 -2.683901 0.795609 -3 0 -3 
C -0.795609 -3 -1.55874 -2.683901 -2.12132 -2.12132 
C -2.683901 -1.55874 -3 -0.795609 -3 0 
C -3 0.795609 -2.683901 1.55874 -2.12132 2.12132 
C -1.55874 2.683901 -0.795609 3 0 3 
z
" id="m6a6087c193" style="stroke:#1f77b4;"/>
     </defs>
     <g>
      <use style="fill:#1f77b4;stroke:#1f77b4;" x="781.568125" xlink:href="#m6a6087c193" y="74.450938"/>
     </g>
    </g>
    <g id="text_27">
     <!-- afl -->
     <g transform="translate(799.568125 77.950938)scale(0.1 -0.1)">
      <use xlink:href="#DejaVuSans-61"/>
      <use x="61.279297" xlink:href="#DejaVuSans-66"/>
      <use x="96.484375" xlink:href="#DejaVuSans-6c"/>
     </g>
    </g>
    <g id="line2d_53">
     <path d="M 771.568125 89.129063 
L 791.568125 89.129063 
" style="fill:none;stroke:#c7c7c7;stroke-linecap:square;stroke-width:1.5;"/>
    </g>
    <g id="line2d_54">
     <defs>
      <path d="M -3 -0 
L 3 3 
L 3 -3 
z
" id="m934ac9e277" style="stroke:#c7c7c7;stroke-linejoin:miter;"/>
     </defs>
     <g>
      <use style="fill:#c7c7c7;stroke:#c7c7c7;stroke-linejoin:miter;" x="781.568125" xlink:href="#m934ac9e277" y="89.129063"/>
     </g>
    </g>
    <g id="text_28">
     <!-- entropic -->
     <g transform="translate(799.568125 92.629063)scale(0.1 -0.1)">
      <use xlink:href="#DejaVuSans-65"/>
      <use x="61.523438" xlink:href="#DejaVuSans-6e"/>
      <use x="124.902344" xlink:href="#DejaVuSans-74"/>
      <use x="164.111328" xlink:href="#DejaVuSans-72"/>
      <use x="202.974609" xlink:href="#DejaVuSans-6f"/>
      <use x="264.15625" xlink:href="#DejaVuSans-70"/>
      <use x="327.632812" xlink:href="#DejaVuSans-69"/>
      <use x="355.416016" xlink:href="#DejaVuSans-63"/>
     </g>
    </g>
    <g id="line2d_55">
     <path d="M 771.568125 103.807187 
L 791.568125 103.807187 
" style="fill:none;stroke:#ff9896;stroke-linecap:square;stroke-width:1.5;"/>
    </g>
    <g id="line2d_56">
     <defs>
      <path d="M -1.14805 -2.771639 
L -2.771639 -1.14805 
L -2.771639 1.14805 
L -1.14805 2.771639 
L 1.14805 2.771639 
L 2.771639 1.14805 
L 2.771639 -1.14805 
L 1.14805 -2.771639 
z
" id="m8f407dfc7c" style="stroke:#ff9896;stroke-linejoin:miter;"/>
     </defs>
     <g>
      <use style="fill:#ff9896;stroke:#ff9896;stroke-linejoin:miter;" x="781.568125" xlink:href="#m8f407dfc7c" y="103.807187"/>
     </g>
    </g>
    <g id="text_29">
     <!-- libfuzzer -->
     <g transform="translate(799.568125 107.307187)scale(0.1 -0.1)">
      <use xlink:href="#DejaVuSans-6c"/>
      <use x="27.783203" xlink:href="#DejaVuSans-69"/>
      <use x="55.566406" xlink:href="#DejaVuSans-62"/>
      <use x="119.042969" xlink:href="#DejaVuSans-66"/>
      <use x="154.248047" xlink:href="#DejaVuSans-75"/>
      <use x="217.626953" xlink:href="#DejaVuSans-7a"/>
      <use x="270.117188" xlink:href="#DejaVuSans-7a"/>
      <use x="322.607422" xlink:href="#DejaVuSans-65"/>
      <use x="384.130859" xlink:href="#DejaVuSans-72"/>
     </g>
    </g>
   </g>
  </g>
 </g>
 <defs>
  <clipPath id="p3df05bff34">
   <rect height="266.112" width="714.24" x="53.328125" y="22.318125"/>
  </clipPath>
 </defs>
</svg>
