<?xml version="1.0" encoding="utf-8" standalone="no"?>
<!DOCTYPE svg PUBLIC "-//W3C//DTD SVG 1.1//EN"
  "http://www.w3.org/Graphics/SVG/1.1/DTD/svg11.dtd">
<!-- Created with matplotlib (https://matplotlib.org/) -->
<svg height="356.559522pt" version="1.1" viewBox="0 0 417.648125 356.559522" width="417.648125pt" xmlns="http://www.w3.org/2000/svg" xmlns:xlink="http://www.w3.org/1999/xlink">
 <metadata>
  <rdf:RDF xmlns:cc="http://creativecommons.org/ns#" xmlns:dc="http://purl.org/dc/elements/1.1/" xmlns:rdf="http://www.w3.org/1999/02/22-rdf-syntax-ns#">
   <cc:Work>
    <dc:type rdf:resource="http://purl.org/dc/dcmitype/StillImage"/>
    <dc:date>2020-08-10T10:55:47.752499</dc:date>
    <dc:format>image/svg+xml</dc:format>
    <dc:creator>
     <cc:Agent>
      <dc:title>Matplotlib v3.3.0, https://matplotlib.org/</dc:title>
     </cc:Agent>
    </dc:creator>
   </cc:Work>
  </rdf:RDF>
 </metadata>
 <defs>
  <style type="text/css">*{stroke-linecap:butt;stroke-linejoin:round;}</style>
 </defs>
 <g id="figure_1">
  <g id="patch_1">
   <path d="M 0 356.559522 
L 417.648125 356.559522 
L 417.648125 -0 
L 0 -0 
z
" style="fill:#ffffff;"/>
  </g>
  <g id="axes_1">
   <g id="patch_2">
    <path d="M 53.328125 288.430125 
L 410.448125 288.430125 
L 410.448125 22.318125 
L 53.328125 22.318125 
z
" style="fill:#ffffff;"/>
   </g>
   <g id="PolyCollection_1">
    <defs>
     <path d="M 144.20896 -126.907912 
L 141.00729 -126.907912 
L 140.638753 -128.880008 
L 140.203479 -130.852104 
L 139.69334 -132.8242 
L 139.099881 -134.796295 
L 138.414389 -136.768391 
L 137.627955 -138.740487 
L 136.731533 -140.712583 
L 135.716011 -142.684679 
L 134.572284 -144.656774 
L 133.29135 -146.62887 
L 131.864436 -148.600966 
L 130.283168 -150.573062 
L 128.539804 -152.545158 
L 126.627547 -154.517253 
L 124.540935 -156.489349 
L 122.276339 -158.461445 
L 119.832539 -160.433541 
L 117.211387 -162.405637 
L 114.418515 -164.377732 
L 111.464068 -166.349828 
L 108.363395 -168.321924 
L 105.137656 -170.29402 
L 101.814273 -172.266116 
L 98.427164 -174.238211 
L 95.016696 -176.210307 
L 91.629325 -178.182403 
L 88.316867 -180.154499 
L 85.135415 -182.126595 
L 82.143898 -184.09869 
L 79.402341 -186.070786 
L 76.969882 -188.042882 
L 74.902641 -190.014978 
L 73.251546 -191.987074 
L 72.060246 -193.959169 
L 71.363205 -195.931265 
L 71.184125 -197.903361 
L 71.534761 -199.875457 
L 72.414224 -201.847553 
L 73.80881 -203.819648 
L 75.692366 -205.791744 
L 78.027178 -207.76384 
L 80.765328 -209.735936 
L 83.850438 -211.708032 
L 87.219709 -213.680127 
L 90.806136 -215.652223 
L 94.540785 -217.624319 
L 98.355019 -219.596415 
L 102.182556 -221.568511 
L 105.961294 -223.540607 
L 109.634813 -225.512702 
L 113.153523 -227.484798 
L 116.475449 -229.456894 
L 119.566635 -231.42899 
L 122.40122 -233.401086 
L 124.961208 -235.373181 
L 127.236008 -237.345277 
L 129.221781 -239.317373 
L 130.920682 -241.289469 
L 132.340038 -243.261565 
L 133.491525 -245.23366 
L 134.390379 -247.205756 
L 135.054681 -249.177852 
L 135.504718 -251.149948 
L 135.76244 -253.122044 
L 135.850999 -255.094139 
L 135.794357 -257.066235 
L 135.616953 -259.038331 
L 135.343388 -261.010427 
L 134.998132 -262.982523 
L 134.605217 -264.954618 
L 134.187912 -266.926714 
L 133.768374 -268.89881 
L 133.367283 -270.870906 
L 133.003459 -272.843002 
L 132.693491 -274.815097 
L 132.451393 -276.787193 
L 132.288309 -278.759289 
L 132.212287 -280.731385 
L 132.228152 -282.703481 
L 132.337486 -284.675576 
L 132.538716 -286.647672 
L 132.827331 -288.619768 
L 133.196192 -290.591864 
L 133.635951 -292.56396 
L 134.135531 -294.536055 
L 134.682656 -296.508151 
L 135.264401 -298.480247 
L 135.867725 -300.452343 
L 136.479975 -302.424439 
L 137.08932 -304.396534 
L 137.685111 -306.36863 
L 138.258156 -308.340726 
L 138.800891 -310.312822 
L 139.307467 -312.284918 
L 139.77374 -314.257013 
L 140.197199 -316.229109 
L 140.576817 -318.201205 
L 140.912873 -320.173301 
L 141.206734 -322.145397 
L 144.009516 -322.145397 
L 144.009516 -322.145397 
L 144.303377 -320.173301 
L 144.639433 -318.201205 
L 145.019051 -316.229109 
L 145.44251 -314.257013 
L 145.908783 -312.284918 
L 146.415359 -310.312822 
L 146.958094 -308.340726 
L 147.531139 -306.36863 
L 148.12693 -304.396534 
L 148.736275 -302.424439 
L 149.348525 -300.452343 
L 149.951849 -298.480247 
L 150.533594 -296.508151 
L 151.080719 -294.536055 
L 151.580299 -292.56396 
L 152.020058 -290.591864 
L 152.388919 -288.619768 
L 152.677534 -286.647672 
L 152.878764 -284.675576 
L 152.988098 -282.703481 
L 153.003963 -280.731385 
L 152.927941 -278.759289 
L 152.764857 -276.787193 
L 152.522759 -274.815097 
L 152.212791 -272.843002 
L 151.848967 -270.870906 
L 151.447876 -268.89881 
L 151.028338 -266.926714 
L 150.611033 -264.954618 
L 150.218118 -262.982523 
L 149.872862 -261.010427 
L 149.599297 -259.038331 
L 149.421893 -257.066235 
L 149.365251 -255.094139 
L 149.45381 -253.122044 
L 149.711532 -251.149948 
L 150.161569 -249.177852 
L 150.825871 -247.205756 
L 151.724725 -245.23366 
L 152.876212 -243.261565 
L 154.295568 -241.289469 
L 155.994469 -239.317373 
L 157.980242 -237.345277 
L 160.255042 -235.373181 
L 162.81503 -233.401086 
L 165.649615 -231.42899 
L 168.740801 -229.456894 
L 172.062727 -227.484798 
L 175.581437 -225.512702 
L 179.254956 -223.540607 
L 183.033694 -221.568511 
L 186.861231 -219.596415 
L 190.675465 -217.624319 
L 194.410114 -215.652223 
L 197.996541 -213.680127 
L 201.365812 -211.708032 
L 204.450922 -209.735936 
L 207.189072 -207.76384 
L 209.523884 -205.791744 
L 211.40744 -203.819648 
L 212.802026 -201.847553 
L 213.681489 -199.875457 
L 214.032125 -197.903361 
L 213.853045 -195.931265 
L 213.156004 -193.959169 
L 211.964704 -191.987074 
L 210.313609 -190.014978 
L 208.246368 -188.042882 
L 205.813909 -186.070786 
L 203.072352 -184.09869 
L 200.080835 -182.126595 
L 196.899383 -180.154499 
L 193.586925 -178.182403 
L 190.199554 -176.210307 
L 186.789086 -174.238211 
L 183.401977 -172.266116 
L 180.078594 -170.29402 
L 176.852855 -168.321924 
L 173.752182 -166.349828 
L 170.797735 -164.377732 
L 168.004863 -162.405637 
L 165.383711 -160.433541 
L 162.939911 -158.461445 
L 160.675315 -156.489349 
L 158.588703 -154.517253 
L 156.676446 -152.545158 
L 154.933082 -150.573062 
L 153.351814 -148.600966 
L 151.9249 -146.62887 
L 150.643966 -144.656774 
L 149.500239 -142.684679 
L 148.484717 -140.712583 
L 147.588295 -138.740487 
L 146.801861 -136.768391 
L 146.116369 -134.796295 
L 145.52291 -132.8242 
L 145.012771 -130.852104 
L 144.577497 -128.880008 
L 144.20896 -126.907912 
z
" id="m187501dc4d" style="stroke:#3f3f3f;stroke-width:1.5;"/>
    </defs>
    <g clip-path="url(#pbf1c1dd918)">
     <use style="fill:#b5c8e1;stroke:#3f3f3f;stroke-width:1.5;" x="0" xlink:href="#m187501dc4d" y="356.559522"/>
    </g>
   </g>
   <g id="PolyCollection_2">
    <defs>
     <path d="M 322.526891 -80.225397 
L 319.809359 -80.225397 
L 319.533754 -82.372699 
L 319.215274 -84.520001 
L 318.85002 -86.667304 
L 318.434263 -88.814606 
L 317.964544 -90.961908 
L 317.437782 -93.10921 
L 316.851385 -95.256513 
L 316.203357 -97.403815 
L 315.492391 -99.551117 
L 314.717956 -101.698419 
L 313.880367 -103.845722 
L 312.980829 -105.993024 
L 312.021468 -108.140326 
L 311.00533 -110.287629 
L 309.936357 -112.434931 
L 308.819338 -114.582233 
L 307.659838 -116.729535 
L 306.464097 -118.876838 
L 305.238925 -121.02414 
L 303.991564 -123.171442 
L 302.729558 -125.318745 
L 301.460607 -127.466047 
L 300.192424 -129.613349 
L 298.932599 -131.760651 
L 297.688473 -133.907954 
L 296.467025 -136.055256 
L 295.274778 -138.202558 
L 294.117727 -140.349861 
L 293.001287 -142.497163 
L 291.930261 -144.644465 
L 290.908837 -146.791767 
L 289.940594 -148.93907 
L 289.028527 -151.086372 
L 288.175091 -153.233674 
L 287.382233 -155.380977 
L 286.651448 -157.528279 
L 285.983811 -159.675581 
L 285.380016 -161.822883 
L 284.840395 -163.970186 
L 284.364933 -166.117488 
L 283.953261 -168.26479 
L 283.604647 -170.412093 
L 283.317979 -172.559395 
L 283.091742 -174.706697 
L 282.924004 -176.853999 
L 282.812416 -179.001302 
L 282.754223 -181.148604 
L 282.746306 -183.295906 
L 282.785247 -185.443208 
L 282.867427 -187.590511 
L 282.989154 -189.737813 
L 283.146805 -191.885115 
L 283.337003 -194.032418 
L 283.556789 -196.17972 
L 283.803796 -198.327022 
L 284.07641 -200.474324 
L 284.373901 -202.621627 
L 284.696512 -204.768929 
L 285.045507 -206.916231 
L 285.423154 -209.063534 
L 285.832657 -211.210836 
L 286.278016 -213.358138 
L 286.763849 -215.50544 
L 287.295149 -217.652743 
L 287.877018 -219.800045 
L 288.514372 -221.947347 
L 289.211642 -224.09465 
L 289.972482 -226.241952 
L 290.799508 -228.389254 
L 291.694064 -230.536556 
L 292.656056 -232.683859 
L 293.683829 -234.831161 
L 294.774123 -236.978463 
L 295.922089 -239.125766 
L 297.121372 -241.273068 
L 298.364257 -243.42037 
L 299.641865 -245.567672 
L 300.944396 -247.714975 
L 302.261395 -249.862277 
L 303.582048 -252.009579 
L 304.895471 -254.156881 
L 306.190999 -256.304184 
L 307.458459 -258.451486 
L 308.688408 -260.598788 
L 309.872341 -262.746091 
L 311.002853 -264.893393 
L 312.073762 -267.040695 
L 313.080181 -269.187997 
L 314.018543 -271.3353 
L 314.886593 -273.482602 
L 315.683332 -275.629904 
L 316.408928 -277.777207 
L 317.064608 -279.924509 
L 317.652527 -282.071811 
L 318.175616 -284.219113 
L 318.637437 -286.366416 
L 319.042025 -288.513718 
L 319.393747 -290.66102 
L 319.697158 -292.808323 
L 322.639092 -292.808323 
L 322.639092 -292.808323 
L 322.942503 -290.66102 
L 323.294225 -288.513718 
L 323.698813 -286.366416 
L 324.160634 -284.219113 
L 324.683723 -282.071811 
L 325.271642 -279.924509 
L 325.927322 -277.777207 
L 326.652918 -275.629904 
L 327.449657 -273.482602 
L 328.317707 -271.3353 
L 329.256069 -269.187997 
L 330.262488 -267.040695 
L 331.333397 -264.893393 
L 332.463909 -262.746091 
L 333.647842 -260.598788 
L 334.877791 -258.451486 
L 336.145251 -256.304184 
L 337.440779 -254.156881 
L 338.754202 -252.009579 
L 340.074855 -249.862277 
L 341.391854 -247.714975 
L 342.694385 -245.567672 
L 343.971993 -243.42037 
L 345.214878 -241.273068 
L 346.414161 -239.125766 
L 347.562127 -236.978463 
L 348.652421 -234.831161 
L 349.680194 -232.683859 
L 350.642186 -230.536556 
L 351.536742 -228.389254 
L 352.363768 -226.241952 
L 353.124608 -224.09465 
L 353.821878 -221.947347 
L 354.459232 -219.800045 
L 355.041101 -217.652743 
L 355.572401 -215.50544 
L 356.058234 -213.358138 
L 356.503593 -211.210836 
L 356.913096 -209.063534 
L 357.290743 -206.916231 
L 357.639738 -204.768929 
L 357.962349 -202.621627 
L 358.25984 -200.474324 
L 358.532454 -198.327022 
L 358.779461 -196.17972 
L 358.999247 -194.032418 
L 359.189445 -191.885115 
L 359.347096 -189.737813 
L 359.468823 -187.590511 
L 359.551003 -185.443208 
L 359.589944 -183.295906 
L 359.582027 -181.148604 
L 359.523834 -179.001302 
L 359.412246 -176.853999 
L 359.244508 -174.706697 
L 359.018271 -172.559395 
L 358.731603 -170.412093 
L 358.382989 -168.26479 
L 357.971317 -166.117488 
L 357.495855 -163.970186 
L 356.956234 -161.822883 
L 356.352439 -159.675581 
L 355.684802 -157.528279 
L 354.954017 -155.380977 
L 354.161159 -153.233674 
L 353.307723 -151.086372 
L 352.395656 -148.93907 
L 351.427413 -146.791767 
L 350.405989 -144.644465 
L 349.334963 -142.497163 
L 348.218523 -140.349861 
L 347.061472 -138.202558 
L 345.869225 -136.055256 
L 344.647777 -133.907954 
L 343.403651 -131.760651 
L 342.143826 -129.613349 
L 340.875643 -127.466047 
L 339.606692 -125.318745 
L 338.344686 -123.171442 
L 337.097325 -121.02414 
L 335.872153 -118.876838 
L 334.676412 -116.729535 
L 333.516912 -114.582233 
L 332.399893 -112.434931 
L 331.33092 -110.287629 
L 330.314782 -108.140326 
L 329.355421 -105.993024 
L 328.455883 -103.845722 
L 327.618294 -101.698419 
L 326.843859 -99.551117 
L 326.132893 -97.403815 
L 325.484865 -95.256513 
L 324.898468 -93.10921 
L 324.371706 -90.961908 
L 323.901987 -88.814606 
L 323.48623 -86.667304 
L 323.120976 -84.520001 
L 322.802496 -82.372699 
L 322.526891 -80.225397 
z
" id="m54f285976e" style="stroke:#3f3f3f;stroke-width:1.5;"/>
    </defs>
    <g clip-path="url(#pbf1c1dd918)">
     <use style="fill:#3274a1;stroke:#3f3f3f;stroke-width:1.5;" x="0" xlink:href="#m54f285976e" y="356.559522"/>
    </g>
   </g>
   <g id="matplotlib.axis_1">
    <g id="xtick_1">
     <g id="line2d_1">
      <defs>
       <path d="M 0 0 
L 0 3.5 
" id="mcb8483670c" style="stroke:#000000;stroke-width:0.8;"/>
      </defs>
      <g>
       <use style="stroke:#000000;stroke-width:0.8;" x="142.608125" xlink:href="#mcb8483670c" y="288.430125"/>
      </g>
     </g>
     <g id="text_1">
      <!-- dark_w_prob -->
      <g transform="translate(86.646346 333.639471)rotate(-30)scale(0.1 -0.1)">
       <defs>
        <path d="M 45.40625 46.390625 
L 45.40625 75.984375 
L 54.390625 75.984375 
L 54.390625 0 
L 45.40625 0 
L 45.40625 8.203125 
Q 42.578125 3.328125 38.25 0.953125 
Q 33.9375 -1.421875 27.875 -1.421875 
Q 17.96875 -1.421875 11.734375 6.484375 
Q 5.515625 14.40625 5.515625 27.296875 
Q 5.515625 40.1875 11.734375 48.09375 
Q 17.96875 56 27.875 56 
Q 33.9375 56 38.25 53.625 
Q 42.578125 51.265625 45.40625 46.390625 
z
M 14.796875 27.296875 
Q 14.796875 17.390625 18.875 11.75 
Q 22.953125 6.109375 30.078125 6.109375 
Q 37.203125 6.109375 41.296875 11.75 
Q 45.40625 17.390625 45.40625 27.296875 
Q 45.40625 37.203125 41.296875 42.84375 
Q 37.203125 48.484375 30.078125 48.484375 
Q 22.953125 48.484375 18.875 42.84375 
Q 14.796875 37.203125 14.796875 27.296875 
z
" id="DejaVuSans-100"/>
        <path d="M 34.28125 27.484375 
Q 23.390625 27.484375 19.1875 25 
Q 14.984375 22.515625 14.984375 16.5 
Q 14.984375 11.71875 18.140625 8.90625 
Q 21.296875 6.109375 26.703125 6.109375 
Q 34.1875 6.109375 38.703125 11.40625 
Q 43.21875 16.703125 43.21875 25.484375 
L 43.21875 27.484375 
z
M 52.203125 31.203125 
L 52.203125 0 
L 43.21875 0 
L 43.21875 8.296875 
Q 40.140625 3.328125 35.546875 0.953125 
Q 30.953125 -1.421875 24.3125 -1.421875 
Q 15.921875 -1.421875 10.953125 3.296875 
Q 6 8.015625 6 15.921875 
Q 6 25.140625 12.171875 29.828125 
Q 18.359375 34.515625 30.609375 34.515625 
L 43.21875 34.515625 
L 43.21875 35.40625 
Q 43.21875 41.609375 39.140625 45 
Q 35.0625 48.390625 27.6875 48.390625 
Q 23 48.390625 18.546875 47.265625 
Q 14.109375 46.140625 10.015625 43.890625 
L 10.015625 52.203125 
Q 14.9375 54.109375 19.578125 55.046875 
Q 24.21875 56 28.609375 56 
Q 40.484375 56 46.34375 49.84375 
Q 52.203125 43.703125 52.203125 31.203125 
z
" id="DejaVuSans-97"/>
        <path d="M 41.109375 46.296875 
Q 39.59375 47.171875 37.8125 47.578125 
Q 36.03125 48 33.890625 48 
Q 26.265625 48 22.1875 43.046875 
Q 18.109375 38.09375 18.109375 28.8125 
L 18.109375 0 
L 9.078125 0 
L 9.078125 54.6875 
L 18.109375 54.6875 
L 18.109375 46.1875 
Q 20.953125 51.171875 25.484375 53.578125 
Q 30.03125 56 36.53125 56 
Q 37.453125 56 38.578125 55.875 
Q 39.703125 55.765625 41.0625 55.515625 
z
" id="DejaVuSans-114"/>
        <path d="M 9.078125 75.984375 
L 18.109375 75.984375 
L 18.109375 31.109375 
L 44.921875 54.6875 
L 56.390625 54.6875 
L 27.390625 29.109375 
L 57.625 0 
L 45.90625 0 
L 18.109375 26.703125 
L 18.109375 0 
L 9.078125 0 
z
" id="DejaVuSans-107"/>
        <path d="M 50.984375 -16.609375 
L 50.984375 -23.578125 
L -0.984375 -23.578125 
L -0.984375 -16.609375 
z
" id="DejaVuSans-95"/>
        <path d="M 4.203125 54.6875 
L 13.1875 54.6875 
L 24.421875 12.015625 
L 35.59375 54.6875 
L 46.1875 54.6875 
L 57.421875 12.015625 
L 68.609375 54.6875 
L 77.59375 54.6875 
L 63.28125 0 
L 52.6875 0 
L 40.921875 44.828125 
L 29.109375 0 
L 18.5 0 
z
" id="DejaVuSans-119"/>
        <path d="M 18.109375 8.203125 
L 18.109375 -20.796875 
L 9.078125 -20.796875 
L 9.078125 54.6875 
L 18.109375 54.6875 
L 18.109375 46.390625 
Q 20.953125 51.265625 25.265625 53.625 
Q 29.59375 56 35.59375 56 
Q 45.5625 56 51.78125 48.09375 
Q 58.015625 40.1875 58.015625 27.296875 
Q 58.015625 14.40625 51.78125 6.484375 
Q 45.5625 -1.421875 35.59375 -1.421875 
Q 29.59375 -1.421875 25.265625 0.953125 
Q 20.953125 3.328125 18.109375 8.203125 
z
M 48.6875 27.296875 
Q 48.6875 37.203125 44.609375 42.84375 
Q 40.53125 48.484375 33.40625 48.484375 
Q 26.265625 48.484375 22.1875 42.84375 
Q 18.109375 37.203125 18.109375 27.296875 
Q 18.109375 17.390625 22.1875 11.75 
Q 26.265625 6.109375 33.40625 6.109375 
Q 40.53125 6.109375 44.609375 11.75 
Q 48.6875 17.390625 48.6875 27.296875 
z
" id="DejaVuSans-112"/>
        <path d="M 30.609375 48.390625 
Q 23.390625 48.390625 19.1875 42.75 
Q 14.984375 37.109375 14.984375 27.296875 
Q 14.984375 17.484375 19.15625 11.84375 
Q 23.34375 6.203125 30.609375 6.203125 
Q 37.796875 6.203125 41.984375 11.859375 
Q 46.1875 17.53125 46.1875 27.296875 
Q 46.1875 37.015625 41.984375 42.703125 
Q 37.796875 48.390625 30.609375 48.390625 
z
M 30.609375 56 
Q 42.328125 56 49.015625 48.375 
Q 55.71875 40.765625 55.71875 27.296875 
Q 55.71875 13.875 49.015625 6.21875 
Q 42.328125 -1.421875 30.609375 -1.421875 
Q 18.84375 -1.421875 12.171875 6.21875 
Q 5.515625 13.875 5.515625 27.296875 
Q 5.515625 40.765625 12.171875 48.375 
Q 18.84375 56 30.609375 56 
z
" id="DejaVuSans-111"/>
        <path d="M 48.6875 27.296875 
Q 48.6875 37.203125 44.609375 42.84375 
Q 40.53125 48.484375 33.40625 48.484375 
Q 26.265625 48.484375 22.1875 42.84375 
Q 18.109375 37.203125 18.109375 27.296875 
Q 18.109375 17.390625 22.1875 11.75 
Q 26.265625 6.109375 33.40625 6.109375 
Q 40.53125 6.109375 44.609375 11.75 
Q 48.6875 17.390625 48.6875 27.296875 
z
M 18.109375 46.390625 
Q 20.953125 51.265625 25.265625 53.625 
Q 29.59375 56 35.59375 56 
Q 45.5625 56 51.78125 48.09375 
Q 58.015625 40.1875 58.015625 27.296875 
Q 58.015625 14.40625 51.78125 6.484375 
Q 45.5625 -1.421875 35.59375 -1.421875 
Q 29.59375 -1.421875 25.265625 0.953125 
Q 20.953125 3.328125 18.109375 8.203125 
L 18.109375 0 
L 9.078125 0 
L 9.078125 75.984375 
L 18.109375 75.984375 
z
" id="DejaVuSans-98"/>
       </defs>
       <use xlink:href="#DejaVuSans-100"/>
       <use x="63.476562" xlink:href="#DejaVuSans-97"/>
       <use x="124.755859" xlink:href="#DejaVuSans-114"/>
       <use x="165.869141" xlink:href="#DejaVuSans-107"/>
       <use x="223.779297" xlink:href="#DejaVuSans-95"/>
       <use x="273.779297" xlink:href="#DejaVuSans-119"/>
       <use x="355.566406" xlink:href="#DejaVuSans-95"/>
       <use x="405.566406" xlink:href="#DejaVuSans-112"/>
       <use x="469.042969" xlink:href="#DejaVuSans-114"/>
       <use x="507.90625" xlink:href="#DejaVuSans-111"/>
       <use x="569.087891" xlink:href="#DejaVuSans-98"/>
      </g>
     </g>
    </g>
    <g id="xtick_2">
     <g id="line2d_2">
      <g>
       <use style="stroke:#000000;stroke-width:0.8;" x="321.168125" xlink:href="#mcb8483670c" y="288.430125"/>
      </g>
     </g>
     <g id="text_2">
      <!-- dark -->
      <g transform="translate(300.748257 313.199627)rotate(-30)scale(0.1 -0.1)">
       <use xlink:href="#DejaVuSans-100"/>
       <use x="63.476562" xlink:href="#DejaVuSans-97"/>
       <use x="124.755859" xlink:href="#DejaVuSans-114"/>
       <use x="165.869141" xlink:href="#DejaVuSans-107"/>
      </g>
     </g>
    </g>
    <g id="text_3">
     <!-- Fuzzer (highest median coverage on the left) -->
     <g transform="translate(119.270156 347.279834)scale(0.1 -0.1)">
      <defs>
       <path d="M 9.8125 72.90625 
L 51.703125 72.90625 
L 51.703125 64.59375 
L 19.671875 64.59375 
L 19.671875 43.109375 
L 48.578125 43.109375 
L 48.578125 34.8125 
L 19.671875 34.8125 
L 19.671875 0 
L 9.8125 0 
z
" id="DejaVuSans-70"/>
       <path d="M 8.5 21.578125 
L 8.5 54.6875 
L 17.484375 54.6875 
L 17.484375 21.921875 
Q 17.484375 14.15625 20.5 10.265625 
Q 23.53125 6.390625 29.59375 6.390625 
Q 36.859375 6.390625 41.078125 11.03125 
Q 45.3125 15.671875 45.3125 23.6875 
L 45.3125 54.6875 
L 54.296875 54.6875 
L 54.296875 0 
L 45.3125 0 
L 45.3125 8.40625 
Q 42.046875 3.421875 37.71875 1 
Q 33.40625 -1.421875 27.6875 -1.421875 
Q 18.265625 -1.421875 13.375 4.4375 
Q 8.5 10.296875 8.5 21.578125 
z
M 31.109375 56 
z
" id="DejaVuSans-117"/>
       <path d="M 5.515625 54.6875 
L 48.1875 54.6875 
L 48.1875 46.484375 
L 14.40625 7.171875 
L 48.1875 7.171875 
L 48.1875 0 
L 4.296875 0 
L 4.296875 8.203125 
L 38.09375 47.515625 
L 5.515625 47.515625 
z
" id="DejaVuSans-122"/>
       <path d="M 56.203125 29.59375 
L 56.203125 25.203125 
L 14.890625 25.203125 
Q 15.484375 15.921875 20.484375 11.0625 
Q 25.484375 6.203125 34.421875 6.203125 
Q 39.59375 6.203125 44.453125 7.46875 
Q 49.3125 8.734375 54.109375 11.28125 
L 54.109375 2.78125 
Q 49.265625 0.734375 44.1875 -0.34375 
Q 39.109375 -1.421875 33.890625 -1.421875 
Q 20.796875 -1.421875 13.15625 6.1875 
Q 5.515625 13.8125 5.515625 26.8125 
Q 5.515625 40.234375 12.765625 48.109375 
Q 20.015625 56 32.328125 56 
Q 43.359375 56 49.78125 48.890625 
Q 56.203125 41.796875 56.203125 29.59375 
z
M 47.21875 32.234375 
Q 47.125 39.59375 43.09375 43.984375 
Q 39.0625 48.390625 32.421875 48.390625 
Q 24.90625 48.390625 20.390625 44.140625 
Q 15.875 39.890625 15.1875 32.171875 
z
" id="DejaVuSans-101"/>
       <path id="DejaVuSans-32"/>
       <path d="M 31 75.875 
Q 24.46875 64.65625 21.28125 53.65625 
Q 18.109375 42.671875 18.109375 31.390625 
Q 18.109375 20.125 21.3125 9.0625 
Q 24.515625 -2 31 -13.1875 
L 23.1875 -13.1875 
Q 15.875 -1.703125 12.234375 9.375 
Q 8.59375 20.453125 8.59375 31.390625 
Q 8.59375 42.28125 12.203125 53.3125 
Q 15.828125 64.359375 23.1875 75.875 
z
" id="DejaVuSans-40"/>
       <path d="M 54.890625 33.015625 
L 54.890625 0 
L 45.90625 0 
L 45.90625 32.71875 
Q 45.90625 40.484375 42.875 44.328125 
Q 39.84375 48.1875 33.796875 48.1875 
Q 26.515625 48.1875 22.3125 43.546875 
Q 18.109375 38.921875 18.109375 30.90625 
L 18.109375 0 
L 9.078125 0 
L 9.078125 75.984375 
L 18.109375 75.984375 
L 18.109375 46.1875 
Q 21.34375 51.125 25.703125 53.5625 
Q 30.078125 56 35.796875 56 
Q 45.21875 56 50.046875 50.171875 
Q 54.890625 44.34375 54.890625 33.015625 
z
" id="DejaVuSans-104"/>
       <path d="M 9.421875 54.6875 
L 18.40625 54.6875 
L 18.40625 0 
L 9.421875 0 
z
M 9.421875 75.984375 
L 18.40625 75.984375 
L 18.40625 64.59375 
L 9.421875 64.59375 
z
" id="DejaVuSans-105"/>
       <path d="M 45.40625 27.984375 
Q 45.40625 37.75 41.375 43.109375 
Q 37.359375 48.484375 30.078125 48.484375 
Q 22.859375 48.484375 18.828125 43.109375 
Q 14.796875 37.75 14.796875 27.984375 
Q 14.796875 18.265625 18.828125 12.890625 
Q 22.859375 7.515625 30.078125 7.515625 
Q 37.359375 7.515625 41.375 12.890625 
Q 45.40625 18.265625 45.40625 27.984375 
z
M 54.390625 6.78125 
Q 54.390625 -7.171875 48.1875 -13.984375 
Q 42 -20.796875 29.203125 -20.796875 
Q 24.46875 -20.796875 20.265625 -20.09375 
Q 16.0625 -19.390625 12.109375 -17.921875 
L 12.109375 -9.1875 
Q 16.0625 -11.328125 19.921875 -12.34375 
Q 23.78125 -13.375 27.78125 -13.375 
Q 36.625 -13.375 41.015625 -8.765625 
Q 45.40625 -4.15625 45.40625 5.171875 
L 45.40625 9.625 
Q 42.625 4.78125 38.28125 2.390625 
Q 33.9375 0 27.875 0 
Q 17.828125 0 11.671875 7.65625 
Q 5.515625 15.328125 5.515625 27.984375 
Q 5.515625 40.671875 11.671875 48.328125 
Q 17.828125 56 27.875 56 
Q 33.9375 56 38.28125 53.609375 
Q 42.625 51.21875 45.40625 46.390625 
L 45.40625 54.6875 
L 54.390625 54.6875 
z
" id="DejaVuSans-103"/>
       <path d="M 44.28125 53.078125 
L 44.28125 44.578125 
Q 40.484375 46.53125 36.375 47.5 
Q 32.28125 48.484375 27.875 48.484375 
Q 21.1875 48.484375 17.84375 46.4375 
Q 14.5 44.390625 14.5 40.28125 
Q 14.5 37.15625 16.890625 35.375 
Q 19.28125 33.59375 26.515625 31.984375 
L 29.59375 31.296875 
Q 39.15625 29.25 43.1875 25.515625 
Q 47.21875 21.78125 47.21875 15.09375 
Q 47.21875 7.46875 41.1875 3.015625 
Q 35.15625 -1.421875 24.609375 -1.421875 
Q 20.21875 -1.421875 15.453125 -0.5625 
Q 10.6875 0.296875 5.421875 2 
L 5.421875 11.28125 
Q 10.40625 8.6875 15.234375 7.390625 
Q 20.0625 6.109375 24.8125 6.109375 
Q 31.15625 6.109375 34.5625 8.28125 
Q 37.984375 10.453125 37.984375 14.40625 
Q 37.984375 18.0625 35.515625 20.015625 
Q 33.0625 21.96875 24.703125 23.78125 
L 21.578125 24.515625 
Q 13.234375 26.265625 9.515625 29.90625 
Q 5.8125 33.546875 5.8125 39.890625 
Q 5.8125 47.609375 11.28125 51.796875 
Q 16.75 56 26.8125 56 
Q 31.78125 56 36.171875 55.265625 
Q 40.578125 54.546875 44.28125 53.078125 
z
" id="DejaVuSans-115"/>
       <path d="M 18.3125 70.21875 
L 18.3125 54.6875 
L 36.8125 54.6875 
L 36.8125 47.703125 
L 18.3125 47.703125 
L 18.3125 18.015625 
Q 18.3125 11.328125 20.140625 9.421875 
Q 21.96875 7.515625 27.59375 7.515625 
L 36.8125 7.515625 
L 36.8125 0 
L 27.59375 0 
Q 17.1875 0 13.234375 3.875 
Q 9.28125 7.765625 9.28125 18.015625 
L 9.28125 47.703125 
L 2.6875 47.703125 
L 2.6875 54.6875 
L 9.28125 54.6875 
L 9.28125 70.21875 
z
" id="DejaVuSans-116"/>
       <path d="M 52 44.1875 
Q 55.375 50.25 60.0625 53.125 
Q 64.75 56 71.09375 56 
Q 79.640625 56 84.28125 50.015625 
Q 88.921875 44.046875 88.921875 33.015625 
L 88.921875 0 
L 79.890625 0 
L 79.890625 32.71875 
Q 79.890625 40.578125 77.09375 44.375 
Q 74.3125 48.1875 68.609375 48.1875 
Q 61.625 48.1875 57.5625 43.546875 
Q 53.515625 38.921875 53.515625 30.90625 
L 53.515625 0 
L 44.484375 0 
L 44.484375 32.71875 
Q 44.484375 40.625 41.703125 44.40625 
Q 38.921875 48.1875 33.109375 48.1875 
Q 26.21875 48.1875 22.15625 43.53125 
Q 18.109375 38.875 18.109375 30.90625 
L 18.109375 0 
L 9.078125 0 
L 9.078125 54.6875 
L 18.109375 54.6875 
L 18.109375 46.1875 
Q 21.1875 51.21875 25.484375 53.609375 
Q 29.78125 56 35.6875 56 
Q 41.65625 56 45.828125 52.96875 
Q 50 49.953125 52 44.1875 
z
" id="DejaVuSans-109"/>
       <path d="M 54.890625 33.015625 
L 54.890625 0 
L 45.90625 0 
L 45.90625 32.71875 
Q 45.90625 40.484375 42.875 44.328125 
Q 39.84375 48.1875 33.796875 48.1875 
Q 26.515625 48.1875 22.3125 43.546875 
Q 18.109375 38.921875 18.109375 30.90625 
L 18.109375 0 
L 9.078125 0 
L 9.078125 54.6875 
L 18.109375 54.6875 
L 18.109375 46.1875 
Q 21.34375 51.125 25.703125 53.5625 
Q 30.078125 56 35.796875 56 
Q 45.21875 56 50.046875 50.171875 
Q 54.890625 44.34375 54.890625 33.015625 
z
" id="DejaVuSans-110"/>
       <path d="M 48.78125 52.59375 
L 48.78125 44.1875 
Q 44.96875 46.296875 41.140625 47.34375 
Q 37.3125 48.390625 33.40625 48.390625 
Q 24.65625 48.390625 19.8125 42.84375 
Q 14.984375 37.3125 14.984375 27.296875 
Q 14.984375 17.28125 19.8125 11.734375 
Q 24.65625 6.203125 33.40625 6.203125 
Q 37.3125 6.203125 41.140625 7.25 
Q 44.96875 8.296875 48.78125 10.40625 
L 48.78125 2.09375 
Q 45.015625 0.34375 40.984375 -0.53125 
Q 36.96875 -1.421875 32.421875 -1.421875 
Q 20.0625 -1.421875 12.78125 6.34375 
Q 5.515625 14.109375 5.515625 27.296875 
Q 5.515625 40.671875 12.859375 48.328125 
Q 20.21875 56 33.015625 56 
Q 37.15625 56 41.109375 55.140625 
Q 45.0625 54.296875 48.78125 52.59375 
z
" id="DejaVuSans-99"/>
       <path d="M 2.984375 54.6875 
L 12.5 54.6875 
L 29.59375 8.796875 
L 46.6875 54.6875 
L 56.203125 54.6875 
L 35.6875 0 
L 23.484375 0 
z
" id="DejaVuSans-118"/>
       <path d="M 9.421875 75.984375 
L 18.40625 75.984375 
L 18.40625 0 
L 9.421875 0 
z
" id="DejaVuSans-108"/>
       <path d="M 37.109375 75.984375 
L 37.109375 68.5 
L 28.515625 68.5 
Q 23.6875 68.5 21.796875 66.546875 
Q 19.921875 64.59375 19.921875 59.515625 
L 19.921875 54.6875 
L 34.71875 54.6875 
L 34.71875 47.703125 
L 19.921875 47.703125 
L 19.921875 0 
L 10.890625 0 
L 10.890625 47.703125 
L 2.296875 47.703125 
L 2.296875 54.6875 
L 10.890625 54.6875 
L 10.890625 58.5 
Q 10.890625 67.625 15.140625 71.796875 
Q 19.390625 75.984375 28.609375 75.984375 
z
" id="DejaVuSans-102"/>
       <path d="M 8.015625 75.875 
L 15.828125 75.875 
Q 23.140625 64.359375 26.78125 53.3125 
Q 30.421875 42.28125 30.421875 31.390625 
Q 30.421875 20.453125 26.78125 9.375 
Q 23.140625 -1.703125 15.828125 -13.1875 
L 8.015625 -13.1875 
Q 14.5 -2 17.703125 9.0625 
Q 20.90625 20.125 20.90625 31.390625 
Q 20.90625 42.671875 17.703125 53.65625 
Q 14.5 64.65625 8.015625 75.875 
z
" id="DejaVuSans-41"/>
      </defs>
      <use xlink:href="#DejaVuSans-70"/>
      <use x="52.019531" xlink:href="#DejaVuSans-117"/>
      <use x="115.398438" xlink:href="#DejaVuSans-122"/>
      <use x="167.888672" xlink:href="#DejaVuSans-122"/>
      <use x="220.378906" xlink:href="#DejaVuSans-101"/>
      <use x="281.902344" xlink:href="#DejaVuSans-114"/>
      <use x="323.015625" xlink:href="#DejaVuSans-32"/>
      <use x="354.802734" xlink:href="#DejaVuSans-40"/>
      <use x="393.816406" xlink:href="#DejaVuSans-104"/>
      <use x="457.195312" xlink:href="#DejaVuSans-105"/>
      <use x="484.978516" xlink:href="#DejaVuSans-103"/>
      <use x="548.455078" xlink:href="#DejaVuSans-104"/>
      <use x="611.833984" xlink:href="#DejaVuSans-101"/>
      <use x="673.357422" xlink:href="#DejaVuSans-115"/>
      <use x="725.457031" xlink:href="#DejaVuSans-116"/>
      <use x="764.666016" xlink:href="#DejaVuSans-32"/>
      <use x="796.453125" xlink:href="#DejaVuSans-109"/>
      <use x="893.865234" xlink:href="#DejaVuSans-101"/>
      <use x="955.388672" xlink:href="#DejaVuSans-100"/>
      <use x="1018.865234" xlink:href="#DejaVuSans-105"/>
      <use x="1046.648438" xlink:href="#DejaVuSans-97"/>
      <use x="1107.927734" xlink:href="#DejaVuSans-110"/>
      <use x="1171.306641" xlink:href="#DejaVuSans-32"/>
      <use x="1203.09375" xlink:href="#DejaVuSans-99"/>
      <use x="1258.074219" xlink:href="#DejaVuSans-111"/>
      <use x="1319.255859" xlink:href="#DejaVuSans-118"/>
      <use x="1378.435547" xlink:href="#DejaVuSans-101"/>
      <use x="1439.958984" xlink:href="#DejaVuSans-114"/>
      <use x="1481.072266" xlink:href="#DejaVuSans-97"/>
      <use x="1542.351562" xlink:href="#DejaVuSans-103"/>
      <use x="1605.828125" xlink:href="#DejaVuSans-101"/>
      <use x="1667.351562" xlink:href="#DejaVuSans-32"/>
      <use x="1699.138672" xlink:href="#DejaVuSans-111"/>
      <use x="1760.320312" xlink:href="#DejaVuSans-110"/>
      <use x="1823.699219" xlink:href="#DejaVuSans-32"/>
      <use x="1855.486328" xlink:href="#DejaVuSans-116"/>
      <use x="1894.695312" xlink:href="#DejaVuSans-104"/>
      <use x="1958.074219" xlink:href="#DejaVuSans-101"/>
      <use x="2019.597656" xlink:href="#DejaVuSans-32"/>
      <use x="2051.384766" xlink:href="#DejaVuSans-108"/>
      <use x="2079.167969" xlink:href="#DejaVuSans-101"/>
      <use x="2140.691406" xlink:href="#DejaVuSans-102"/>
      <use x="2174.146484" xlink:href="#DejaVuSans-116"/>
      <use x="2213.355469" xlink:href="#DejaVuSans-41"/>
     </g>
    </g>
   </g>
   <g id="matplotlib.axis_2">
    <g id="ytick_1">
     <g id="line2d_3">
      <defs>
       <path d="M 0 0 
L -3.5 0 
" id="m8326a0cafa" style="stroke:#000000;stroke-width:0.8;"/>
      </defs>
      <g>
       <use style="stroke:#000000;stroke-width:0.8;" x="53.328125" xlink:href="#m8326a0cafa" y="251.122379"/>
      </g>
     </g>
     <g id="text_4">
      <!-- 6000 -->
      <g transform="translate(20.878125 254.921598)scale(0.1 -0.1)">
       <defs>
        <path d="M 33.015625 40.375 
Q 26.375 40.375 22.484375 35.828125 
Q 18.609375 31.296875 18.609375 23.390625 
Q 18.609375 15.53125 22.484375 10.953125 
Q 26.375 6.390625 33.015625 6.390625 
Q 39.65625 6.390625 43.53125 10.953125 
Q 47.40625 15.53125 47.40625 23.390625 
Q 47.40625 31.296875 43.53125 35.828125 
Q 39.65625 40.375 33.015625 40.375 
z
M 52.59375 71.296875 
L 52.59375 62.3125 
Q 48.875 64.0625 45.09375 64.984375 
Q 41.3125 65.921875 37.59375 65.921875 
Q 27.828125 65.921875 22.671875 59.328125 
Q 17.53125 52.734375 16.796875 39.40625 
Q 19.671875 43.65625 24.015625 45.921875 
Q 28.375 48.1875 33.59375 48.1875 
Q 44.578125 48.1875 50.953125 41.515625 
Q 57.328125 34.859375 57.328125 23.390625 
Q 57.328125 12.15625 50.6875 5.359375 
Q 44.046875 -1.421875 33.015625 -1.421875 
Q 20.359375 -1.421875 13.671875 8.265625 
Q 6.984375 17.96875 6.984375 36.375 
Q 6.984375 53.65625 15.1875 63.9375 
Q 23.390625 74.21875 37.203125 74.21875 
Q 40.921875 74.21875 44.703125 73.484375 
Q 48.484375 72.75 52.59375 71.296875 
z
" id="DejaVuSans-54"/>
        <path d="M 31.78125 66.40625 
Q 24.171875 66.40625 20.328125 58.90625 
Q 16.5 51.421875 16.5 36.375 
Q 16.5 21.390625 20.328125 13.890625 
Q 24.171875 6.390625 31.78125 6.390625 
Q 39.453125 6.390625 43.28125 13.890625 
Q 47.125 21.390625 47.125 36.375 
Q 47.125 51.421875 43.28125 58.90625 
Q 39.453125 66.40625 31.78125 66.40625 
z
M 31.78125 74.21875 
Q 44.046875 74.21875 50.515625 64.515625 
Q 56.984375 54.828125 56.984375 36.375 
Q 56.984375 17.96875 50.515625 8.265625 
Q 44.046875 -1.421875 31.78125 -1.421875 
Q 19.53125 -1.421875 13.0625 8.265625 
Q 6.59375 17.96875 6.59375 36.375 
Q 6.59375 54.828125 13.0625 64.515625 
Q 19.53125 74.21875 31.78125 74.21875 
z
" id="DejaVuSans-48"/>
       </defs>
       <use xlink:href="#DejaVuSans-54"/>
       <use x="63.623047" xlink:href="#DejaVuSans-48"/>
       <use x="127.246094" xlink:href="#DejaVuSans-48"/>
       <use x="190.869141" xlink:href="#DejaVuSans-48"/>
      </g>
     </g>
    </g>
    <g id="ytick_2">
     <g id="line2d_4">
      <g>
       <use style="stroke:#000000;stroke-width:0.8;" x="53.328125" xlink:href="#m8326a0cafa" y="204.051426"/>
      </g>
     </g>
     <g id="text_5">
      <!-- 6200 -->
      <g transform="translate(20.878125 207.850645)scale(0.1 -0.1)">
       <defs>
        <path d="M 19.1875 8.296875 
L 53.609375 8.296875 
L 53.609375 0 
L 7.328125 0 
L 7.328125 8.296875 
Q 12.9375 14.109375 22.625 23.890625 
Q 32.328125 33.6875 34.8125 36.53125 
Q 39.546875 41.84375 41.421875 45.53125 
Q 43.3125 49.21875 43.3125 52.78125 
Q 43.3125 58.59375 39.234375 62.25 
Q 35.15625 65.921875 28.609375 65.921875 
Q 23.96875 65.921875 18.8125 64.3125 
Q 13.671875 62.703125 7.8125 59.421875 
L 7.8125 69.390625 
Q 13.765625 71.78125 18.9375 73 
Q 24.125 74.21875 28.421875 74.21875 
Q 39.75 74.21875 46.484375 68.546875 
Q 53.21875 62.890625 53.21875 53.421875 
Q 53.21875 48.921875 51.53125 44.890625 
Q 49.859375 40.875 45.40625 35.40625 
Q 44.1875 33.984375 37.640625 27.21875 
Q 31.109375 20.453125 19.1875 8.296875 
z
" id="DejaVuSans-50"/>
       </defs>
       <use xlink:href="#DejaVuSans-54"/>
       <use x="63.623047" xlink:href="#DejaVuSans-50"/>
       <use x="127.246094" xlink:href="#DejaVuSans-48"/>
       <use x="190.869141" xlink:href="#DejaVuSans-48"/>
      </g>
     </g>
    </g>
    <g id="ytick_3">
     <g id="line2d_5">
      <g>
       <use style="stroke:#000000;stroke-width:0.8;" x="53.328125" xlink:href="#m8326a0cafa" y="156.980473"/>
      </g>
     </g>
     <g id="text_6">
      <!-- 6400 -->
      <g transform="translate(20.878125 160.779691)scale(0.1 -0.1)">
       <defs>
        <path d="M 37.796875 64.3125 
L 12.890625 25.390625 
L 37.796875 25.390625 
z
M 35.203125 72.90625 
L 47.609375 72.90625 
L 47.609375 25.390625 
L 58.015625 25.390625 
L 58.015625 17.1875 
L 47.609375 17.1875 
L 47.609375 0 
L 37.796875 0 
L 37.796875 17.1875 
L 4.890625 17.1875 
L 4.890625 26.703125 
z
" id="DejaVuSans-52"/>
       </defs>
       <use xlink:href="#DejaVuSans-54"/>
       <use x="63.623047" xlink:href="#DejaVuSans-52"/>
       <use x="127.246094" xlink:href="#DejaVuSans-48"/>
       <use x="190.869141" xlink:href="#DejaVuSans-48"/>
      </g>
     </g>
    </g>
    <g id="ytick_4">
     <g id="line2d_6">
      <g>
       <use style="stroke:#000000;stroke-width:0.8;" x="53.328125" xlink:href="#m8326a0cafa" y="109.909519"/>
      </g>
     </g>
     <g id="text_7">
      <!-- 6600 -->
      <g transform="translate(20.878125 113.708738)scale(0.1 -0.1)">
       <use xlink:href="#DejaVuSans-54"/>
       <use x="63.623047" xlink:href="#DejaVuSans-54"/>
       <use x="127.246094" xlink:href="#DejaVuSans-48"/>
       <use x="190.869141" xlink:href="#DejaVuSans-48"/>
      </g>
     </g>
    </g>
    <g id="ytick_5">
     <g id="line2d_7">
      <g>
       <use style="stroke:#000000;stroke-width:0.8;" x="53.328125" xlink:href="#m8326a0cafa" y="62.838566"/>
      </g>
     </g>
     <g id="text_8">
      <!-- 6800 -->
      <g transform="translate(20.878125 66.637785)scale(0.1 -0.1)">
       <defs>
        <path d="M 31.78125 34.625 
Q 24.75 34.625 20.71875 30.859375 
Q 16.703125 27.09375 16.703125 20.515625 
Q 16.703125 13.921875 20.71875 10.15625 
Q 24.75 6.390625 31.78125 6.390625 
Q 38.8125 6.390625 42.859375 10.171875 
Q 46.921875 13.96875 46.921875 20.515625 
Q 46.921875 27.09375 42.890625 30.859375 
Q 38.875 34.625 31.78125 34.625 
z
M 21.921875 38.8125 
Q 15.578125 40.375 12.03125 44.71875 
Q 8.5 49.078125 8.5 55.328125 
Q 8.5 64.0625 14.71875 69.140625 
Q 20.953125 74.21875 31.78125 74.21875 
Q 42.671875 74.21875 48.875 69.140625 
Q 55.078125 64.0625 55.078125 55.328125 
Q 55.078125 49.078125 51.53125 44.71875 
Q 48 40.375 41.703125 38.8125 
Q 48.828125 37.15625 52.796875 32.3125 
Q 56.78125 27.484375 56.78125 20.515625 
Q 56.78125 9.90625 50.3125 4.234375 
Q 43.84375 -1.421875 31.78125 -1.421875 
Q 19.734375 -1.421875 13.25 4.234375 
Q 6.78125 9.90625 6.78125 20.515625 
Q 6.78125 27.484375 10.78125 32.3125 
Q 14.796875 37.15625 21.921875 38.8125 
z
M 18.3125 54.390625 
Q 18.3125 48.734375 21.84375 45.5625 
Q 25.390625 42.390625 31.78125 42.390625 
Q 38.140625 42.390625 41.71875 45.5625 
Q 45.3125 48.734375 45.3125 54.390625 
Q 45.3125 60.0625 41.71875 63.234375 
Q 38.140625 66.40625 31.78125 66.40625 
Q 25.390625 66.40625 21.84375 63.234375 
Q 18.3125 60.0625 18.3125 54.390625 
z
" id="DejaVuSans-56"/>
       </defs>
       <use xlink:href="#DejaVuSans-54"/>
       <use x="63.623047" xlink:href="#DejaVuSans-56"/>
       <use x="127.246094" xlink:href="#DejaVuSans-48"/>
       <use x="190.869141" xlink:href="#DejaVuSans-48"/>
      </g>
     </g>
    </g>
    <g id="text_9">
     <!-- Reached edge coverage -->
     <g transform="translate(14.798438 215.82725)rotate(-90)scale(0.1 -0.1)">
      <defs>
       <path d="M 44.390625 34.1875 
Q 47.5625 33.109375 50.5625 29.59375 
Q 53.5625 26.078125 56.59375 19.921875 
L 66.609375 0 
L 56 0 
L 46.6875 18.703125 
Q 43.0625 26.03125 39.671875 28.421875 
Q 36.28125 30.8125 30.421875 30.8125 
L 19.671875 30.8125 
L 19.671875 0 
L 9.8125 0 
L 9.8125 72.90625 
L 32.078125 72.90625 
Q 44.578125 72.90625 50.734375 67.671875 
Q 56.890625 62.453125 56.890625 51.90625 
Q 56.890625 45.015625 53.6875 40.46875 
Q 50.484375 35.9375 44.390625 34.1875 
z
M 19.671875 64.796875 
L 19.671875 38.921875 
L 32.078125 38.921875 
Q 39.203125 38.921875 42.84375 42.21875 
Q 46.484375 45.515625 46.484375 51.90625 
Q 46.484375 58.296875 42.84375 61.546875 
Q 39.203125 64.796875 32.078125 64.796875 
z
" id="DejaVuSans-82"/>
      </defs>
      <use xlink:href="#DejaVuSans-82"/>
      <use x="64.982422" xlink:href="#DejaVuSans-101"/>
      <use x="126.505859" xlink:href="#DejaVuSans-97"/>
      <use x="187.785156" xlink:href="#DejaVuSans-99"/>
      <use x="242.765625" xlink:href="#DejaVuSans-104"/>
      <use x="306.144531" xlink:href="#DejaVuSans-101"/>
      <use x="367.667969" xlink:href="#DejaVuSans-100"/>
      <use x="431.144531" xlink:href="#DejaVuSans-32"/>
      <use x="462.931641" xlink:href="#DejaVuSans-101"/>
      <use x="524.455078" xlink:href="#DejaVuSans-100"/>
      <use x="587.931641" xlink:href="#DejaVuSans-103"/>
      <use x="651.408203" xlink:href="#DejaVuSans-101"/>
      <use x="712.931641" xlink:href="#DejaVuSans-32"/>
      <use x="744.71875" xlink:href="#DejaVuSans-99"/>
      <use x="799.699219" xlink:href="#DejaVuSans-111"/>
      <use x="860.880859" xlink:href="#DejaVuSans-118"/>
      <use x="920.060547" xlink:href="#DejaVuSans-101"/>
      <use x="981.583984" xlink:href="#DejaVuSans-114"/>
      <use x="1022.697266" xlink:href="#DejaVuSans-97"/>
      <use x="1083.976562" xlink:href="#DejaVuSans-103"/>
      <use x="1147.453125" xlink:href="#DejaVuSans-101"/>
     </g>
    </g>
   </g>
   <g id="line2d_8">
    <path clip-path="url(#pbf1c1dd918)" d="M 142.608125 165.688599 
L 142.608125 144.50667 
" style="fill:none;stroke:#3f3f3f;stroke-linecap:square;stroke-width:1.5;"/>
   </g>
   <g id="line2d_9">
    <path clip-path="url(#pbf1c1dd918)" d="M 142.608125 164.982535 
L 142.608125 151.096603 
" style="fill:none;stroke:#3f3f3f;stroke-linecap:square;stroke-width:4.5;"/>
   </g>
   <g id="line2d_10">
    <path clip-path="url(#pbf1c1dd918)" d="M 321.168125 227.351548 
L 321.168125 112.733776 
" style="fill:none;stroke:#3f3f3f;stroke-linecap:square;stroke-width:1.5;"/>
   </g>
   <g id="line2d_11">
    <path clip-path="url(#pbf1c1dd918)" d="M 321.168125 198.873621 
L 321.168125 136.504608 
" style="fill:none;stroke:#3f3f3f;stroke-linecap:square;stroke-width:4.5;"/>
   </g>
   <g id="patch_3">
    <path d="M 53.328125 251.122379 
L 53.328125 62.838566 
" style="fill:none;stroke:#000000;stroke-linecap:square;stroke-linejoin:miter;stroke-width:0.8;"/>
   </g>
   <g id="patch_4">
    <path d="M 142.608125 288.430125 
L 321.168125 288.430125 
" style="fill:none;stroke:#000000;stroke-linecap:square;stroke-linejoin:miter;stroke-width:0.8;"/>
   </g>
   <g id="PathCollection_1">
    <defs>
     <path d="M 0 1.5 
C 0.397805 1.5 0.77937 1.341951 1.06066 1.06066 
C 1.341951 0.77937 1.5 0.397805 1.5 0 
C 1.5 -0.397805 1.341951 -0.77937 1.06066 -1.06066 
C 0.77937 -1.341951 0.397805 -1.5 0 -1.5 
C -0.397805 -1.5 -0.77937 -1.341951 -1.06066 -1.06066 
C -1.341951 -0.77937 -1.5 -0.397805 -1.5 0 
C -1.5 0.397805 -1.341951 0.77937 -1.06066 1.06066 
C -0.77937 1.341951 -0.397805 1.5 0 1.5 
z
" id="m57b70375be" style="stroke:#3f3f3f;"/>
    </defs>
    <g clip-path="url(#pbf1c1dd918)">
     <use style="fill:#ffffff;stroke:#3f3f3f;" x="142.608125" xlink:href="#m57b70375be" y="159.33402"/>
    </g>
   </g>
   <g id="PathCollection_2">
    <g clip-path="url(#pbf1c1dd918)">
     <use style="fill:#ffffff;stroke:#3f3f3f;" x="321.168125" xlink:href="#m57b70375be" y="174.16137"/>
    </g>
   </g>
   <g id="text_10">
    <!-- bloaty_fuzz_target (24h, 9 trials/fuzzer) -->
    <g transform="translate(113.792188 16.318125)scale(0.12 -0.12)">
     <defs>
      <path d="M 32.171875 -5.078125 
Q 28.375 -14.84375 24.75 -17.8125 
Q 21.140625 -20.796875 15.09375 -20.796875 
L 7.90625 -20.796875 
L 7.90625 -13.28125 
L 13.1875 -13.28125 
Q 16.890625 -13.28125 18.9375 -11.515625 
Q 21 -9.765625 23.484375 -3.21875 
L 25.09375 0.875 
L 2.984375 54.6875 
L 12.5 54.6875 
L 29.59375 11.921875 
L 46.6875 54.6875 
L 56.203125 54.6875 
z
" id="DejaVuSans-121"/>
      <path d="M 11.71875 12.40625 
L 22.015625 12.40625 
L 22.015625 4 
L 14.015625 -11.625 
L 7.71875 -11.625 
L 11.71875 4 
z
" id="DejaVuSans-44"/>
      <path d="M 10.984375 1.515625 
L 10.984375 10.5 
Q 14.703125 8.734375 18.5 7.8125 
Q 22.3125 6.890625 25.984375 6.890625 
Q 35.75 6.890625 40.890625 13.453125 
Q 46.046875 20.015625 46.78125 33.40625 
Q 43.953125 29.203125 39.59375 26.953125 
Q 35.25 24.703125 29.984375 24.703125 
Q 19.046875 24.703125 12.671875 31.3125 
Q 6.296875 37.9375 6.296875 49.421875 
Q 6.296875 60.640625 12.9375 67.421875 
Q 19.578125 74.21875 30.609375 74.21875 
Q 43.265625 74.21875 49.921875 64.515625 
Q 56.59375 54.828125 56.59375 36.375 
Q 56.59375 19.140625 48.40625 8.859375 
Q 40.234375 -1.421875 26.421875 -1.421875 
Q 22.703125 -1.421875 18.890625 -0.6875 
Q 15.09375 0.046875 10.984375 1.515625 
z
M 30.609375 32.421875 
Q 37.25 32.421875 41.125 36.953125 
Q 45.015625 41.5 45.015625 49.421875 
Q 45.015625 57.28125 41.125 61.84375 
Q 37.25 66.40625 30.609375 66.40625 
Q 23.96875 66.40625 20.09375 61.84375 
Q 16.21875 57.28125 16.21875 49.421875 
Q 16.21875 41.5 20.09375 36.953125 
Q 23.96875 32.421875 30.609375 32.421875 
z
" id="DejaVuSans-57"/>
      <path d="M 25.390625 72.90625 
L 33.6875 72.90625 
L 8.296875 -9.28125 
L 0 -9.28125 
z
" id="DejaVuSans-47"/>
     </defs>
     <use xlink:href="#DejaVuSans-98"/>
     <use x="63.476562" xlink:href="#DejaVuSans-108"/>
     <use x="91.259766" xlink:href="#DejaVuSans-111"/>
     <use x="152.441406" xlink:href="#DejaVuSans-97"/>
     <use x="213.720703" xlink:href="#DejaVuSans-116"/>
     <use x="252.929688" xlink:href="#DejaVuSans-121"/>
     <use x="312.109375" xlink:href="#DejaVuSans-95"/>
     <use x="362.109375" xlink:href="#DejaVuSans-102"/>
     <use x="397.314453" xlink:href="#DejaVuSans-117"/>
     <use x="460.693359" xlink:href="#DejaVuSans-122"/>
     <use x="513.183594" xlink:href="#DejaVuSans-122"/>
     <use x="565.673828" xlink:href="#DejaVuSans-95"/>
     <use x="615.673828" xlink:href="#DejaVuSans-116"/>
     <use x="654.882812" xlink:href="#DejaVuSans-97"/>
     <use x="716.162109" xlink:href="#DejaVuSans-114"/>
     <use x="755.525391" xlink:href="#DejaVuSans-103"/>
     <use x="819.001953" xlink:href="#DejaVuSans-101"/>
     <use x="880.525391" xlink:href="#DejaVuSans-116"/>
     <use x="919.734375" xlink:href="#DejaVuSans-32"/>
     <use x="951.521484" xlink:href="#DejaVuSans-40"/>
     <use x="990.535156" xlink:href="#DejaVuSans-50"/>
     <use x="1054.158203" xlink:href="#DejaVuSans-52"/>
     <use x="1117.78125" xlink:href="#DejaVuSans-104"/>
     <use x="1181.160156" xlink:href="#DejaVuSans-44"/>
     <use x="1212.947266" xlink:href="#DejaVuSans-32"/>
     <use x="1244.734375" xlink:href="#DejaVuSans-57"/>
     <use x="1308.357422" xlink:href="#DejaVuSans-32"/>
     <use x="1340.144531" xlink:href="#DejaVuSans-116"/>
     <use x="1379.353516" xlink:href="#DejaVuSans-114"/>
     <use x="1420.466797" xlink:href="#DejaVuSans-105"/>
     <use x="1448.25" xlink:href="#DejaVuSans-97"/>
     <use x="1509.529297" xlink:href="#DejaVuSans-108"/>
     <use x="1537.3125" xlink:href="#DejaVuSans-115"/>
     <use x="1589.412109" xlink:href="#DejaVuSans-47"/>
     <use x="1623.103516" xlink:href="#DejaVuSans-102"/>
     <use x="1658.308594" xlink:href="#DejaVuSans-117"/>
     <use x="1721.6875" xlink:href="#DejaVuSans-122"/>
     <use x="1774.177734" xlink:href="#DejaVuSans-122"/>
     <use x="1826.667969" xlink:href="#DejaVuSans-101"/>
     <use x="1888.191406" xlink:href="#DejaVuSans-114"/>
     <use x="1929.304688" xlink:href="#DejaVuSans-41"/>
    </g>
   </g>
  </g>
 </g>
 <defs>
  <clipPath id="pbf1c1dd918">
   <rect height="266.112" width="357.12" x="53.328125" y="22.318125"/>
  </clipPath>
 </defs>
</svg>
