<?xml version="1.0" encoding="utf-8" standalone="no"?>
<!DOCTYPE svg PUBLIC "-//W3C//DTD SVG 1.1//EN"
  "http://www.w3.org/Graphics/SVG/1.1/DTD/svg11.dtd">
<svg height="325.986375pt" version="1.1" viewBox="0 0 972.105625 325.986375" width="972.105625pt" xmlns="http://www.w3.org/2000/svg" xmlns:xlink="http://www.w3.org/1999/xlink">
 <metadata>
  <rdf:RDF xmlns:cc="http://creativecommons.org/ns#" xmlns:dc="http://purl.org/dc/elements/1.1/" xmlns:rdf="http://www.w3.org/1999/02/22-rdf-syntax-ns#">
   <cc:Work>
    <dc:type rdf:resource="http://purl.org/dc/dcmitype/StillImage"/>
    <dc:date>2021-07-14T12:41:07.957469</dc:date>
    <dc:format>image/svg+xml</dc:format>
    <dc:creator>
     <cc:Agent>
      <dc:title>Matplotlib v3.4.1, https://matplotlib.org/</dc:title>
     </cc:Agent>
    </dc:creator>
   </cc:Work>
  </rdf:RDF>
 </metadata>
 <defs>
  <style type="text/css">*{stroke-linecap:butt;stroke-linejoin:round;}</style>
 </defs>
 <g id="figure_1">
  <g id="patch_1">
   <path d="M 0 325.986375 
L 972.105625 325.986375 
L 972.105625 0 
L 0 0 
z
" style="fill:#ffffff;"/>
  </g>
  <g id="axes_1">
   <g id="patch_2">
    <path d="M 53.328125 288.430125 
L 767.568125 288.430125 
L 767.568125 22.318125 
L 53.328125 22.318125 
z
" style="fill:#ffffff;"/>
   </g>
   <g id="PolyCollection_1">
    <defs>
     <path d="M 85.79358 -255.38382 
L 85.79358 -49.65225 
L 189.097882 -232.86047 
L 249.527025 -233.203814 
L 292.402184 -256.207845 
L 325.658741 -261.151995 
L 352.831327 -261.151995 
L 375.805421 -261.151995 
L 395.706486 -261.151995 
L 413.26047 -261.151995 
L 428.963044 -261.151995 
L 443.167749 -261.151995 
L 456.135629 -261.289332 
L 468.064923 -261.289332 
L 479.109723 -261.289332 
L 489.392187 -261.632676 
L 499.010789 -261.770013 
L 508.046077 -261.770013 
L 516.564772 -262.250695 
L 524.622768 -262.388032 
L 532.267346 -262.388032 
L 539.538866 -267.263513 
L 546.472052 -267.263513 
L 553.096991 -267.263513 
L 559.439932 -267.263513 
L 565.523903 -267.400851 
L 571.369225 -267.400851 
L 576.993915 -267.400851 
L 582.414026 -267.400851 
L 587.643917 -267.400851 
L 592.696489 -267.606857 
L 597.583373 -267.606857 
L 602.315091 -267.606857 
L 606.901195 -267.606857 
L 611.350379 -267.606857 
L 615.670583 -267.606857 
L 619.869075 -267.606857 
L 623.952525 -267.606857 
L 627.92707 -267.606857 
L 631.798368 -267.606857 
L 635.571648 -267.606857 
L 639.251751 -267.606857 
L 642.843169 -267.606857 
L 646.350074 -267.606857 
L 649.776354 -267.606857 
L 653.125632 -267.744194 
L 656.401294 -267.744194 
L 659.606505 -267.744194 
L 662.744234 -267.744194 
L 665.817263 -267.744194 
L 668.828206 -267.744194 
L 671.779522 -267.744194 
L 674.673527 -267.744194 
L 677.512406 -267.744194 
L 680.298218 -267.812863 
L 683.032911 -267.812863 
L 685.718328 -267.812863 
L 688.356213 -267.812863 
L 690.948219 -267.812863 
L 693.495915 -267.881532 
L 696.000791 -267.881532 
L 698.464262 -267.881532 
L 700.887675 -267.881532 
L 703.272312 -267.881532 
L 705.619393 -267.881532 
L 707.930085 -267.881532 
L 710.205497 -267.881532 
L 712.446691 -267.881532 
L 714.654681 -267.881532 
L 716.830437 -267.881532 
L 718.974885 -267.881532 
L 721.088915 -267.950201 
L 723.173377 -267.950201 
L 725.229087 -267.950201 
L 727.256827 -267.950201 
L 729.257349 -267.950201 
L 731.231372 -267.950201 
L 733.179591 -267.950201 
L 735.10267 -267.950201 
L 735.10267 -291.57225 
L 735.10267 -291.57225 
L 733.179591 -291.57225 
L 731.231372 -291.57225 
L 729.257349 -291.57225 
L 727.256827 -291.434913 
L 725.229087 -291.434913 
L 723.173377 -291.434913 
L 721.088915 -291.434913 
L 718.974885 -291.434913 
L 716.830437 -291.434913 
L 714.654681 -291.434913 
L 712.446691 -291.434913 
L 710.205497 -291.434913 
L 707.930085 -291.434913 
L 705.619393 -291.434913 
L 703.272312 -291.434913 
L 700.887675 -291.434913 
L 698.464262 -291.434913 
L 696.000791 -291.434913 
L 693.495915 -291.434913 
L 690.948219 -291.434913 
L 688.356213 -291.434913 
L 685.718328 -291.434913 
L 683.032911 -291.434913 
L 680.298218 -291.434913 
L 677.512406 -291.434913 
L 674.673527 -291.434913 
L 671.779522 -291.434913 
L 668.828206 -291.434913 
L 665.817263 -291.434913 
L 662.744234 -291.434913 
L 659.606505 -291.434913 
L 656.401294 -291.434913 
L 653.125632 -291.434913 
L 649.776354 -291.434913 
L 646.350074 -291.434913 
L 642.843169 -291.434913 
L 639.251751 -291.434913 
L 635.571648 -291.434913 
L 631.798368 -291.434913 
L 627.92707 -291.434913 
L 623.952525 -291.366244 
L 619.869075 -291.366244 
L 615.670583 -291.297575 
L 611.350379 -291.297575 
L 606.901195 -291.297575 
L 602.315091 -291.297575 
L 597.583373 -291.091569 
L 592.696489 -291.091569 
L 587.643917 -289.855531 
L 582.414026 -289.649525 
L 576.993915 -289.237513 
L 571.369225 -287.314788 
L 565.523903 -268.293544 
L 559.439932 -268.293544 
L 553.096991 -268.293544 
L 546.472052 -267.675526 
L 539.538866 -267.675526 
L 532.267346 -267.675526 
L 524.622768 -267.675526 
L 516.564772 -267.675526 
L 508.046077 -267.675526 
L 499.010789 -267.675526 
L 489.392187 -267.675526 
L 479.109723 -267.675526 
L 468.064923 -267.675526 
L 456.135629 -267.469519 
L 443.167749 -267.400851 
L 428.963044 -267.400851 
L 413.26047 -267.400851 
L 395.706486 -266.233482 
L 375.805421 -266.233482 
L 352.831327 -261.97602 
L 325.658741 -261.97602 
L 292.402184 -261.907351 
L 249.527025 -261.907351 
L 189.097882 -261.564007 
L 85.79358 -255.38382 
z
" id="m3170927c4d" style="stroke:#1f77b4;stroke-opacity:0.2;"/>
    </defs>
    <g clip-path="url(#p0fd39b236e)">
     <use style="fill:#1f77b4;fill-opacity:0.2;stroke:#1f77b4;stroke-opacity:0.2;" x="0" xlink:href="#m3170927c4d" y="325.986375"/>
    </g>
   </g>
   <g id="PolyCollection_2">
    <defs>
     <path d="M 85.79358 -240.55137 
L 85.79358 -231.624433 
L 189.097882 -260.396638 
L 249.527025 -260.396638 
L 292.402184 -260.602645 
L 325.658741 -260.602645 
L 352.831327 -260.602645 
L 375.805421 -261.151995 
L 395.706486 -261.151995 
L 413.26047 -261.358001 
L 428.963044 -261.495338 
L 443.167749 -261.495338 
L 456.135629 -261.495338 
L 468.064923 -261.701345 
L 479.109723 -261.701345 
L 489.392187 -261.701345 
L 499.010789 -261.701345 
L 508.046077 -261.701345 
L 516.564772 -261.701345 
L 524.622768 -261.701345 
L 532.267346 -261.701345 
L 539.538866 -261.838682 
L 546.472052 -261.838682 
L 553.096991 -261.838682 
L 559.439932 -261.838682 
L 565.523903 -261.838682 
L 571.369225 -261.838682 
L 576.993915 -261.838682 
L 582.414026 -261.838682 
L 587.643917 -261.838682 
L 592.696489 -261.838682 
L 597.583373 -261.838682 
L 602.315091 -261.838682 
L 606.901195 -261.97602 
L 611.350379 -261.97602 
L 615.670583 -261.97602 
L 619.869075 -261.97602 
L 623.952525 -262.113357 
L 627.92707 -262.113357 
L 631.798368 -262.113357 
L 635.571648 -262.113357 
L 639.251751 -262.113357 
L 642.843169 -262.113357 
L 646.350074 -262.113357 
L 649.776354 -262.113357 
L 653.125632 -262.113357 
L 656.401294 -262.113357 
L 659.606505 -262.250695 
L 662.744234 -262.250695 
L 665.817263 -262.250695 
L 668.828206 -262.250695 
L 671.779522 -262.250695 
L 674.673527 -262.250695 
L 677.512406 -262.250695 
L 680.298218 -262.456701 
L 683.032911 -262.456701 
L 685.718328 -262.456701 
L 688.356213 -262.456701 
L 690.948219 -262.456701 
L 693.495915 -262.456701 
L 696.000791 -262.456701 
L 698.464262 -262.456701 
L 700.887675 -262.456701 
L 703.272312 -262.456701 
L 705.619393 -262.456701 
L 707.930085 -262.456701 
L 710.205497 -262.456701 
L 712.446691 -262.456701 
L 714.654681 -262.456701 
L 716.830437 -262.456701 
L 718.974885 -262.456701 
L 721.088915 -262.456701 
L 723.173377 -262.456701 
L 725.229087 -262.456701 
L 727.256827 -262.456701 
L 729.257349 -262.456701 
L 731.231372 -262.456701 
L 733.179591 -262.456701 
L 735.10267 -262.456701 
L 735.10267 -291.366244 
L 735.10267 -291.366244 
L 733.179591 -291.366244 
L 731.231372 -291.366244 
L 729.257349 -291.366244 
L 727.256827 -291.366244 
L 725.229087 -291.366244 
L 723.173377 -291.366244 
L 721.088915 -291.366244 
L 718.974885 -291.366244 
L 716.830437 -291.366244 
L 714.654681 -291.366244 
L 712.446691 -291.366244 
L 710.205497 -291.366244 
L 707.930085 -291.366244 
L 705.619393 -291.366244 
L 703.272312 -291.366244 
L 700.887675 -291.366244 
L 698.464262 -291.297575 
L 696.000791 -291.297575 
L 693.495915 -291.091569 
L 690.948219 -291.091569 
L 688.356213 -284.362031 
L 685.718328 -284.362031 
L 683.032911 -284.362031 
L 680.298218 -284.362031 
L 677.512406 -284.362031 
L 674.673527 -284.362031 
L 671.779522 -284.362031 
L 668.828206 -284.362031 
L 665.817263 -284.362031 
L 662.744234 -284.362031 
L 659.606505 -284.362031 
L 656.401294 -284.362031 
L 653.125632 -284.362031 
L 649.776354 -284.362031 
L 646.350074 -284.224694 
L 642.843169 -284.224694 
L 639.251751 -284.224694 
L 635.571648 -284.156025 
L 631.798368 -284.156025 
L 627.92707 -284.156025 
L 623.952525 -284.156025 
L 619.869075 -284.156025 
L 615.670583 -283.675344 
L 611.350379 -283.675344 
L 606.901195 -283.675344 
L 602.315091 -283.675344 
L 597.583373 -283.675344 
L 592.696489 -283.675344 
L 587.643917 -283.675344 
L 582.414026 -283.675344 
L 576.993915 -283.400669 
L 571.369225 -283.400669 
L 565.523903 -283.263331 
L 559.439932 -283.263331 
L 553.096991 -283.263331 
L 546.472052 -283.263331 
L 539.538866 -283.263331 
L 532.267346 -283.263331 
L 524.622768 -283.263331 
L 516.564772 -283.263331 
L 508.046077 -270.628282 
L 499.010789 -270.628282 
L 489.392187 -270.628282 
L 479.109723 -270.628282 
L 468.064923 -269.323576 
L 456.135629 -269.323576 
L 443.167749 -265.684132 
L 428.963044 -265.684132 
L 413.26047 -261.838682 
L 395.706486 -261.838682 
L 375.805421 -261.701345 
L 352.831327 -261.701345 
L 325.658741 -261.701345 
L 292.402184 -261.701345 
L 249.527025 -261.289332 
L 189.097882 -261.289332 
L 85.79358 -240.55137 
z
" id="md3edc747b3" style="stroke:#98df8a;stroke-opacity:0.2;"/>
    </defs>
    <g clip-path="url(#p0fd39b236e)">
     <use style="fill:#98df8a;fill-opacity:0.2;stroke:#98df8a;stroke-opacity:0.2;" x="0" xlink:href="#md3edc747b3" y="325.986375"/>
    </g>
   </g>
   <g id="matplotlib.axis_1">
    <g id="xtick_1">
     <g id="line2d_1">
      <defs>
       <path d="M 0 0 
L 0 3.5 
" id="m849be6af73" style="stroke:#000000;stroke-width:0.8;"/>
      </defs>
      <g>
       <use style="stroke:#000000;stroke-width:0.8;" x="85.79358" xlink:href="#m849be6af73" y="288.430125"/>
      </g>
     </g>
     <g id="text_1">
      <!-- 14m -->
      <g transform="translate(74.560767 303.028562)scale(0.1 -0.1)">
       <defs>
        <path d="M 794 531 
L 1825 531 
L 1825 4091 
L 703 3866 
L 703 4441 
L 1819 4666 
L 2450 4666 
L 2450 531 
L 3481 531 
L 3481 0 
L 794 0 
L 794 531 
z
" id="DejaVuSans-31" transform="scale(0.015625)"/>
        <path d="M 2419 4116 
L 825 1625 
L 2419 1625 
L 2419 4116 
z
M 2253 4666 
L 3047 4666 
L 3047 1625 
L 3713 1625 
L 3713 1100 
L 3047 1100 
L 3047 0 
L 2419 0 
L 2419 1100 
L 313 1100 
L 313 1709 
L 2253 4666 
z
" id="DejaVuSans-34" transform="scale(0.015625)"/>
        <path d="M 3328 2828 
Q 3544 3216 3844 3400 
Q 4144 3584 4550 3584 
Q 5097 3584 5394 3201 
Q 5691 2819 5691 2113 
L 5691 0 
L 5113 0 
L 5113 2094 
Q 5113 2597 4934 2840 
Q 4756 3084 4391 3084 
Q 3944 3084 3684 2787 
Q 3425 2491 3425 1978 
L 3425 0 
L 2847 0 
L 2847 2094 
Q 2847 2600 2669 2842 
Q 2491 3084 2119 3084 
Q 1678 3084 1418 2786 
Q 1159 2488 1159 1978 
L 1159 0 
L 581 0 
L 581 3500 
L 1159 3500 
L 1159 2956 
Q 1356 3278 1631 3431 
Q 1906 3584 2284 3584 
Q 2666 3584 2933 3390 
Q 3200 3197 3328 2828 
z
" id="DejaVuSans-6d" transform="scale(0.015625)"/>
       </defs>
       <use xlink:href="#DejaVuSans-31"/>
       <use x="63.623047" xlink:href="#DejaVuSans-34"/>
       <use x="127.246094" xlink:href="#DejaVuSans-6d"/>
      </g>
     </g>
    </g>
    <g id="xtick_2">
     <g id="line2d_2">
      <g>
       <use style="stroke:#000000;stroke-width:0.8;" x="144.821872" xlink:href="#m849be6af73" y="288.430125"/>
      </g>
     </g>
     <g id="text_2">
      <!-- 22m -->
      <g transform="translate(133.589059 303.028562)scale(0.1 -0.1)">
       <defs>
        <path d="M 1228 531 
L 3431 531 
L 3431 0 
L 469 0 
L 469 531 
Q 828 903 1448 1529 
Q 2069 2156 2228 2338 
Q 2531 2678 2651 2914 
Q 2772 3150 2772 3378 
Q 2772 3750 2511 3984 
Q 2250 4219 1831 4219 
Q 1534 4219 1204 4116 
Q 875 4013 500 3803 
L 500 4441 
Q 881 4594 1212 4672 
Q 1544 4750 1819 4750 
Q 2544 4750 2975 4387 
Q 3406 4025 3406 3419 
Q 3406 3131 3298 2873 
Q 3191 2616 2906 2266 
Q 2828 2175 2409 1742 
Q 1991 1309 1228 531 
z
" id="DejaVuSans-32" transform="scale(0.015625)"/>
       </defs>
       <use xlink:href="#DejaVuSans-32"/>
       <use x="63.623047" xlink:href="#DejaVuSans-32"/>
       <use x="127.246094" xlink:href="#DejaVuSans-6d"/>
      </g>
     </g>
    </g>
    <g id="xtick_3">
     <g id="line2d_3">
      <g>
       <use style="stroke:#000000;stroke-width:0.8;" x="203.850164" xlink:href="#m849be6af73" y="288.430125"/>
      </g>
     </g>
     <g id="text_3">
      <!-- 33m -->
      <g transform="translate(192.617351 303.028562)scale(0.1 -0.1)">
       <defs>
        <path d="M 2597 2516 
Q 3050 2419 3304 2112 
Q 3559 1806 3559 1356 
Q 3559 666 3084 287 
Q 2609 -91 1734 -91 
Q 1441 -91 1130 -33 
Q 819 25 488 141 
L 488 750 
Q 750 597 1062 519 
Q 1375 441 1716 441 
Q 2309 441 2620 675 
Q 2931 909 2931 1356 
Q 2931 1769 2642 2001 
Q 2353 2234 1838 2234 
L 1294 2234 
L 1294 2753 
L 1863 2753 
Q 2328 2753 2575 2939 
Q 2822 3125 2822 3475 
Q 2822 3834 2567 4026 
Q 2313 4219 1838 4219 
Q 1578 4219 1281 4162 
Q 984 4106 628 3988 
L 628 4550 
Q 988 4650 1302 4700 
Q 1616 4750 1894 4750 
Q 2613 4750 3031 4423 
Q 3450 4097 3450 3541 
Q 3450 3153 3228 2886 
Q 3006 2619 2597 2516 
z
" id="DejaVuSans-33" transform="scale(0.015625)"/>
       </defs>
       <use xlink:href="#DejaVuSans-33"/>
       <use x="63.623047" xlink:href="#DejaVuSans-33"/>
       <use x="127.246094" xlink:href="#DejaVuSans-6d"/>
      </g>
     </g>
    </g>
    <g id="xtick_4">
     <g id="line2d_4">
      <g>
       <use style="stroke:#000000;stroke-width:0.8;" x="262.878456" xlink:href="#m849be6af73" y="288.430125"/>
      </g>
     </g>
     <g id="text_4">
      <!-- 49m -->
      <g transform="translate(251.645644 303.028562)scale(0.1 -0.1)">
       <defs>
        <path d="M 703 97 
L 703 672 
Q 941 559 1184 500 
Q 1428 441 1663 441 
Q 2288 441 2617 861 
Q 2947 1281 2994 2138 
Q 2813 1869 2534 1725 
Q 2256 1581 1919 1581 
Q 1219 1581 811 2004 
Q 403 2428 403 3163 
Q 403 3881 828 4315 
Q 1253 4750 1959 4750 
Q 2769 4750 3195 4129 
Q 3622 3509 3622 2328 
Q 3622 1225 3098 567 
Q 2575 -91 1691 -91 
Q 1453 -91 1209 -44 
Q 966 3 703 97 
z
M 1959 2075 
Q 2384 2075 2632 2365 
Q 2881 2656 2881 3163 
Q 2881 3666 2632 3958 
Q 2384 4250 1959 4250 
Q 1534 4250 1286 3958 
Q 1038 3666 1038 3163 
Q 1038 2656 1286 2365 
Q 1534 2075 1959 2075 
z
" id="DejaVuSans-39" transform="scale(0.015625)"/>
       </defs>
       <use xlink:href="#DejaVuSans-34"/>
       <use x="63.623047" xlink:href="#DejaVuSans-39"/>
       <use x="127.246094" xlink:href="#DejaVuSans-6d"/>
      </g>
     </g>
    </g>
    <g id="xtick_5">
     <g id="line2d_5">
      <g>
       <use style="stroke:#000000;stroke-width:0.8;" x="321.906748" xlink:href="#m849be6af73" y="288.430125"/>
      </g>
     </g>
     <g id="text_5">
      <!-- 1h:13m -->
      <g transform="translate(302.639561 303.028562)scale(0.1 -0.1)">
       <defs>
        <path d="M 3513 2113 
L 3513 0 
L 2938 0 
L 2938 2094 
Q 2938 2591 2744 2837 
Q 2550 3084 2163 3084 
Q 1697 3084 1428 2787 
Q 1159 2491 1159 1978 
L 1159 0 
L 581 0 
L 581 4863 
L 1159 4863 
L 1159 2956 
Q 1366 3272 1645 3428 
Q 1925 3584 2291 3584 
Q 2894 3584 3203 3211 
Q 3513 2838 3513 2113 
z
" id="DejaVuSans-68" transform="scale(0.015625)"/>
        <path d="M 750 794 
L 1409 794 
L 1409 0 
L 750 0 
L 750 794 
z
M 750 3309 
L 1409 3309 
L 1409 2516 
L 750 2516 
L 750 3309 
z
" id="DejaVuSans-3a" transform="scale(0.015625)"/>
       </defs>
       <use xlink:href="#DejaVuSans-31"/>
       <use x="63.623047" xlink:href="#DejaVuSans-68"/>
       <use x="127.001953" xlink:href="#DejaVuSans-3a"/>
       <use x="160.693359" xlink:href="#DejaVuSans-31"/>
       <use x="224.316406" xlink:href="#DejaVuSans-33"/>
       <use x="287.939453" xlink:href="#DejaVuSans-6d"/>
      </g>
     </g>
    </g>
    <g id="xtick_6">
     <g id="line2d_6">
      <g>
       <use style="stroke:#000000;stroke-width:0.8;" x="380.93504" xlink:href="#m849be6af73" y="288.430125"/>
      </g>
     </g>
     <g id="text_6">
      <!-- 1h:48m -->
      <g transform="translate(361.667853 303.028562)scale(0.1 -0.1)">
       <defs>
        <path d="M 2034 2216 
Q 1584 2216 1326 1975 
Q 1069 1734 1069 1313 
Q 1069 891 1326 650 
Q 1584 409 2034 409 
Q 2484 409 2743 651 
Q 3003 894 3003 1313 
Q 3003 1734 2745 1975 
Q 2488 2216 2034 2216 
z
M 1403 2484 
Q 997 2584 770 2862 
Q 544 3141 544 3541 
Q 544 4100 942 4425 
Q 1341 4750 2034 4750 
Q 2731 4750 3128 4425 
Q 3525 4100 3525 3541 
Q 3525 3141 3298 2862 
Q 3072 2584 2669 2484 
Q 3125 2378 3379 2068 
Q 3634 1759 3634 1313 
Q 3634 634 3220 271 
Q 2806 -91 2034 -91 
Q 1263 -91 848 271 
Q 434 634 434 1313 
Q 434 1759 690 2068 
Q 947 2378 1403 2484 
z
M 1172 3481 
Q 1172 3119 1398 2916 
Q 1625 2713 2034 2713 
Q 2441 2713 2670 2916 
Q 2900 3119 2900 3481 
Q 2900 3844 2670 4047 
Q 2441 4250 2034 4250 
Q 1625 4250 1398 4047 
Q 1172 3844 1172 3481 
z
" id="DejaVuSans-38" transform="scale(0.015625)"/>
       </defs>
       <use xlink:href="#DejaVuSans-31"/>
       <use x="63.623047" xlink:href="#DejaVuSans-68"/>
       <use x="127.001953" xlink:href="#DejaVuSans-3a"/>
       <use x="160.693359" xlink:href="#DejaVuSans-34"/>
       <use x="224.316406" xlink:href="#DejaVuSans-38"/>
       <use x="287.939453" xlink:href="#DejaVuSans-6d"/>
      </g>
     </g>
    </g>
    <g id="xtick_7">
     <g id="line2d_7">
      <g>
       <use style="stroke:#000000;stroke-width:0.8;" x="439.963333" xlink:href="#m849be6af73" y="288.430125"/>
      </g>
     </g>
     <g id="text_7">
      <!-- 2h:41m -->
      <g transform="translate(420.696145 303.028562)scale(0.1 -0.1)">
       <use xlink:href="#DejaVuSans-32"/>
       <use x="63.623047" xlink:href="#DejaVuSans-68"/>
       <use x="127.001953" xlink:href="#DejaVuSans-3a"/>
       <use x="160.693359" xlink:href="#DejaVuSans-34"/>
       <use x="224.316406" xlink:href="#DejaVuSans-31"/>
       <use x="287.939453" xlink:href="#DejaVuSans-6d"/>
      </g>
     </g>
    </g>
    <g id="xtick_8">
     <g id="line2d_8">
      <g>
       <use style="stroke:#000000;stroke-width:0.8;" x="498.991625" xlink:href="#m849be6af73" y="288.430125"/>
      </g>
     </g>
     <g id="text_8">
      <!-- 3h:59m -->
      <g transform="translate(479.724437 303.028562)scale(0.1 -0.1)">
       <defs>
        <path d="M 691 4666 
L 3169 4666 
L 3169 4134 
L 1269 4134 
L 1269 2991 
Q 1406 3038 1543 3061 
Q 1681 3084 1819 3084 
Q 2600 3084 3056 2656 
Q 3513 2228 3513 1497 
Q 3513 744 3044 326 
Q 2575 -91 1722 -91 
Q 1428 -91 1123 -41 
Q 819 9 494 109 
L 494 744 
Q 775 591 1075 516 
Q 1375 441 1709 441 
Q 2250 441 2565 725 
Q 2881 1009 2881 1497 
Q 2881 1984 2565 2268 
Q 2250 2553 1709 2553 
Q 1456 2553 1204 2497 
Q 953 2441 691 2322 
L 691 4666 
z
" id="DejaVuSans-35" transform="scale(0.015625)"/>
       </defs>
       <use xlink:href="#DejaVuSans-33"/>
       <use x="63.623047" xlink:href="#DejaVuSans-68"/>
       <use x="127.001953" xlink:href="#DejaVuSans-3a"/>
       <use x="160.693359" xlink:href="#DejaVuSans-35"/>
       <use x="224.316406" xlink:href="#DejaVuSans-39"/>
       <use x="287.939453" xlink:href="#DejaVuSans-6d"/>
      </g>
     </g>
    </g>
    <g id="xtick_9">
     <g id="line2d_9">
      <g>
       <use style="stroke:#000000;stroke-width:0.8;" x="558.019917" xlink:href="#m849be6af73" y="288.430125"/>
      </g>
     </g>
     <g id="text_9">
      <!-- 5h:56m -->
      <g transform="translate(538.752729 303.028562)scale(0.1 -0.1)">
       <defs>
        <path d="M 2113 2584 
Q 1688 2584 1439 2293 
Q 1191 2003 1191 1497 
Q 1191 994 1439 701 
Q 1688 409 2113 409 
Q 2538 409 2786 701 
Q 3034 994 3034 1497 
Q 3034 2003 2786 2293 
Q 2538 2584 2113 2584 
z
M 3366 4563 
L 3366 3988 
Q 3128 4100 2886 4159 
Q 2644 4219 2406 4219 
Q 1781 4219 1451 3797 
Q 1122 3375 1075 2522 
Q 1259 2794 1537 2939 
Q 1816 3084 2150 3084 
Q 2853 3084 3261 2657 
Q 3669 2231 3669 1497 
Q 3669 778 3244 343 
Q 2819 -91 2113 -91 
Q 1303 -91 875 529 
Q 447 1150 447 2328 
Q 447 3434 972 4092 
Q 1497 4750 2381 4750 
Q 2619 4750 2861 4703 
Q 3103 4656 3366 4563 
z
" id="DejaVuSans-36" transform="scale(0.015625)"/>
       </defs>
       <use xlink:href="#DejaVuSans-35"/>
       <use x="63.623047" xlink:href="#DejaVuSans-68"/>
       <use x="127.001953" xlink:href="#DejaVuSans-3a"/>
       <use x="160.693359" xlink:href="#DejaVuSans-35"/>
       <use x="224.316406" xlink:href="#DejaVuSans-36"/>
       <use x="287.939453" xlink:href="#DejaVuSans-6d"/>
      </g>
     </g>
    </g>
    <g id="xtick_10">
     <g id="line2d_10">
      <g>
       <use style="stroke:#000000;stroke-width:0.8;" x="617.048209" xlink:href="#m849be6af73" y="288.430125"/>
      </g>
     </g>
     <g id="text_10">
      <!-- 8h:49m -->
      <g transform="translate(597.781022 303.028562)scale(0.1 -0.1)">
       <use xlink:href="#DejaVuSans-38"/>
       <use x="63.623047" xlink:href="#DejaVuSans-68"/>
       <use x="127.001953" xlink:href="#DejaVuSans-3a"/>
       <use x="160.693359" xlink:href="#DejaVuSans-34"/>
       <use x="224.316406" xlink:href="#DejaVuSans-39"/>
       <use x="287.939453" xlink:href="#DejaVuSans-6d"/>
      </g>
     </g>
    </g>
    <g id="xtick_11">
     <g id="line2d_11">
      <g>
       <use style="stroke:#000000;stroke-width:0.8;" x="676.076501" xlink:href="#m849be6af73" y="288.430125"/>
      </g>
     </g>
     <g id="text_11">
      <!-- 13h:7m -->
      <g transform="translate(656.809314 303.028562)scale(0.1 -0.1)">
       <defs>
        <path d="M 525 4666 
L 3525 4666 
L 3525 4397 
L 1831 0 
L 1172 0 
L 2766 4134 
L 525 4134 
L 525 4666 
z
" id="DejaVuSans-37" transform="scale(0.015625)"/>
       </defs>
       <use xlink:href="#DejaVuSans-31"/>
       <use x="63.623047" xlink:href="#DejaVuSans-33"/>
       <use x="127.246094" xlink:href="#DejaVuSans-68"/>
       <use x="190.625" xlink:href="#DejaVuSans-3a"/>
       <use x="224.316406" xlink:href="#DejaVuSans-37"/>
       <use x="287.939453" xlink:href="#DejaVuSans-6d"/>
      </g>
     </g>
    </g>
    <g id="xtick_12">
     <g id="line2d_12">
      <g>
       <use style="stroke:#000000;stroke-width:0.8;" x="735.104793" xlink:href="#m849be6af73" y="288.430125"/>
      </g>
     </g>
     <g id="text_12">
      <!-- 19h:30m -->
      <g transform="translate(712.656356 303.028562)scale(0.1 -0.1)">
       <defs>
        <path d="M 2034 4250 
Q 1547 4250 1301 3770 
Q 1056 3291 1056 2328 
Q 1056 1369 1301 889 
Q 1547 409 2034 409 
Q 2525 409 2770 889 
Q 3016 1369 3016 2328 
Q 3016 3291 2770 3770 
Q 2525 4250 2034 4250 
z
M 2034 4750 
Q 2819 4750 3233 4129 
Q 3647 3509 3647 2328 
Q 3647 1150 3233 529 
Q 2819 -91 2034 -91 
Q 1250 -91 836 529 
Q 422 1150 422 2328 
Q 422 3509 836 4129 
Q 1250 4750 2034 4750 
z
" id="DejaVuSans-30" transform="scale(0.015625)"/>
       </defs>
       <use xlink:href="#DejaVuSans-31"/>
       <use x="63.623047" xlink:href="#DejaVuSans-39"/>
       <use x="127.246094" xlink:href="#DejaVuSans-68"/>
       <use x="190.625" xlink:href="#DejaVuSans-3a"/>
       <use x="224.316406" xlink:href="#DejaVuSans-33"/>
       <use x="287.939453" xlink:href="#DejaVuSans-30"/>
       <use x="351.5625" xlink:href="#DejaVuSans-6d"/>
      </g>
     </g>
    </g>
    <g id="xtick_13">
     <g id="line2d_13">
      <defs>
       <path d="M 0 0 
L 0 2 
" id="m558b91cb79" style="stroke:#000000;stroke-width:0.6;"/>
      </defs>
      <g>
       <use style="stroke:#000000;stroke-width:0.6;" x="68.239596" xlink:href="#m558b91cb79" y="288.430125"/>
      </g>
     </g>
    </g>
    <g id="xtick_14">
     <g id="line2d_14">
      <g>
       <use style="stroke:#000000;stroke-width:0.6;" x="204.800455" xlink:href="#m558b91cb79" y="288.430125"/>
      </g>
     </g>
    </g>
    <g id="xtick_15">
     <g id="line2d_15">
      <g>
       <use style="stroke:#000000;stroke-width:0.6;" x="265.229598" xlink:href="#m558b91cb79" y="288.430125"/>
      </g>
     </g>
    </g>
    <g id="xtick_16">
     <g id="line2d_16">
      <g>
       <use style="stroke:#000000;stroke-width:0.6;" x="308.104758" xlink:href="#m558b91cb79" y="288.430125"/>
      </g>
     </g>
    </g>
    <g id="xtick_17">
     <g id="line2d_17">
      <g>
       <use style="stroke:#000000;stroke-width:0.6;" x="341.361315" xlink:href="#m558b91cb79" y="288.430125"/>
      </g>
     </g>
    </g>
    <g id="xtick_18">
     <g id="line2d_18">
      <g>
       <use style="stroke:#000000;stroke-width:0.6;" x="368.533901" xlink:href="#m558b91cb79" y="288.430125"/>
      </g>
     </g>
    </g>
    <g id="xtick_19">
     <g id="line2d_19">
      <g>
       <use style="stroke:#000000;stroke-width:0.6;" x="391.507995" xlink:href="#m558b91cb79" y="288.430125"/>
      </g>
     </g>
    </g>
    <g id="xtick_20">
     <g id="line2d_20">
      <g>
       <use style="stroke:#000000;stroke-width:0.6;" x="411.40906" xlink:href="#m558b91cb79" y="288.430125"/>
      </g>
     </g>
    </g>
    <g id="xtick_21">
     <g id="line2d_21">
      <g>
       <use style="stroke:#000000;stroke-width:0.6;" x="428.963044" xlink:href="#m558b91cb79" y="288.430125"/>
      </g>
     </g>
    </g>
    <g id="xtick_22">
     <g id="line2d_22">
      <g>
       <use style="stroke:#000000;stroke-width:0.6;" x="547.96992" xlink:href="#m558b91cb79" y="288.430125"/>
      </g>
     </g>
    </g>
    <g id="xtick_23">
     <g id="line2d_23">
      <g>
       <use style="stroke:#000000;stroke-width:0.6;" x="608.399063" xlink:href="#m558b91cb79" y="288.430125"/>
      </g>
     </g>
    </g>
    <g id="xtick_24">
     <g id="line2d_24">
      <g>
       <use style="stroke:#000000;stroke-width:0.6;" x="651.274222" xlink:href="#m558b91cb79" y="288.430125"/>
      </g>
     </g>
    </g>
    <g id="xtick_25">
     <g id="line2d_25">
      <g>
       <use style="stroke:#000000;stroke-width:0.6;" x="684.530779" xlink:href="#m558b91cb79" y="288.430125"/>
      </g>
     </g>
    </g>
    <g id="xtick_26">
     <g id="line2d_26">
      <g>
       <use style="stroke:#000000;stroke-width:0.6;" x="711.703365" xlink:href="#m558b91cb79" y="288.430125"/>
      </g>
     </g>
    </g>
    <g id="xtick_27">
     <g id="line2d_27">
      <g>
       <use style="stroke:#000000;stroke-width:0.6;" x="734.677459" xlink:href="#m558b91cb79" y="288.430125"/>
      </g>
     </g>
    </g>
    <g id="xtick_28">
     <g id="line2d_28">
      <g>
       <use style="stroke:#000000;stroke-width:0.6;" x="754.578524" xlink:href="#m558b91cb79" y="288.430125"/>
      </g>
     </g>
    </g>
    <g id="text_13">
     <!-- Time (hour:minute) -->
     <g transform="translate(362.041094 316.706687)scale(0.1 -0.1)">
      <defs>
       <path d="M -19 4666 
L 3928 4666 
L 3928 4134 
L 2272 4134 
L 2272 0 
L 1638 0 
L 1638 4134 
L -19 4134 
L -19 4666 
z
" id="DejaVuSans-54" transform="scale(0.015625)"/>
       <path d="M 603 3500 
L 1178 3500 
L 1178 0 
L 603 0 
L 603 3500 
z
M 603 4863 
L 1178 4863 
L 1178 4134 
L 603 4134 
L 603 4863 
z
" id="DejaVuSans-69" transform="scale(0.015625)"/>
       <path d="M 3597 1894 
L 3597 1613 
L 953 1613 
Q 991 1019 1311 708 
Q 1631 397 2203 397 
Q 2534 397 2845 478 
Q 3156 559 3463 722 
L 3463 178 
Q 3153 47 2828 -22 
Q 2503 -91 2169 -91 
Q 1331 -91 842 396 
Q 353 884 353 1716 
Q 353 2575 817 3079 
Q 1281 3584 2069 3584 
Q 2775 3584 3186 3129 
Q 3597 2675 3597 1894 
z
M 3022 2063 
Q 3016 2534 2758 2815 
Q 2500 3097 2075 3097 
Q 1594 3097 1305 2825 
Q 1016 2553 972 2059 
L 3022 2063 
z
" id="DejaVuSans-65" transform="scale(0.015625)"/>
       <path id="DejaVuSans-20" transform="scale(0.015625)"/>
       <path d="M 1984 4856 
Q 1566 4138 1362 3434 
Q 1159 2731 1159 2009 
Q 1159 1288 1364 580 
Q 1569 -128 1984 -844 
L 1484 -844 
Q 1016 -109 783 600 
Q 550 1309 550 2009 
Q 550 2706 781 3412 
Q 1013 4119 1484 4856 
L 1984 4856 
z
" id="DejaVuSans-28" transform="scale(0.015625)"/>
       <path d="M 1959 3097 
Q 1497 3097 1228 2736 
Q 959 2375 959 1747 
Q 959 1119 1226 758 
Q 1494 397 1959 397 
Q 2419 397 2687 759 
Q 2956 1122 2956 1747 
Q 2956 2369 2687 2733 
Q 2419 3097 1959 3097 
z
M 1959 3584 
Q 2709 3584 3137 3096 
Q 3566 2609 3566 1747 
Q 3566 888 3137 398 
Q 2709 -91 1959 -91 
Q 1206 -91 779 398 
Q 353 888 353 1747 
Q 353 2609 779 3096 
Q 1206 3584 1959 3584 
z
" id="DejaVuSans-6f" transform="scale(0.015625)"/>
       <path d="M 544 1381 
L 544 3500 
L 1119 3500 
L 1119 1403 
Q 1119 906 1312 657 
Q 1506 409 1894 409 
Q 2359 409 2629 706 
Q 2900 1003 2900 1516 
L 2900 3500 
L 3475 3500 
L 3475 0 
L 2900 0 
L 2900 538 
Q 2691 219 2414 64 
Q 2138 -91 1772 -91 
Q 1169 -91 856 284 
Q 544 659 544 1381 
z
M 1991 3584 
L 1991 3584 
z
" id="DejaVuSans-75" transform="scale(0.015625)"/>
       <path d="M 2631 2963 
Q 2534 3019 2420 3045 
Q 2306 3072 2169 3072 
Q 1681 3072 1420 2755 
Q 1159 2438 1159 1844 
L 1159 0 
L 581 0 
L 581 3500 
L 1159 3500 
L 1159 2956 
Q 1341 3275 1631 3429 
Q 1922 3584 2338 3584 
Q 2397 3584 2469 3576 
Q 2541 3569 2628 3553 
L 2631 2963 
z
" id="DejaVuSans-72" transform="scale(0.015625)"/>
       <path d="M 3513 2113 
L 3513 0 
L 2938 0 
L 2938 2094 
Q 2938 2591 2744 2837 
Q 2550 3084 2163 3084 
Q 1697 3084 1428 2787 
Q 1159 2491 1159 1978 
L 1159 0 
L 581 0 
L 581 3500 
L 1159 3500 
L 1159 2956 
Q 1366 3272 1645 3428 
Q 1925 3584 2291 3584 
Q 2894 3584 3203 3211 
Q 3513 2838 3513 2113 
z
" id="DejaVuSans-6e" transform="scale(0.015625)"/>
       <path d="M 1172 4494 
L 1172 3500 
L 2356 3500 
L 2356 3053 
L 1172 3053 
L 1172 1153 
Q 1172 725 1289 603 
Q 1406 481 1766 481 
L 2356 481 
L 2356 0 
L 1766 0 
Q 1100 0 847 248 
Q 594 497 594 1153 
L 594 3053 
L 172 3053 
L 172 3500 
L 594 3500 
L 594 4494 
L 1172 4494 
z
" id="DejaVuSans-74" transform="scale(0.015625)"/>
       <path d="M 513 4856 
L 1013 4856 
Q 1481 4119 1714 3412 
Q 1947 2706 1947 2009 
Q 1947 1309 1714 600 
Q 1481 -109 1013 -844 
L 513 -844 
Q 928 -128 1133 580 
Q 1338 1288 1338 2009 
Q 1338 2731 1133 3434 
Q 928 4138 513 4856 
z
" id="DejaVuSans-29" transform="scale(0.015625)"/>
      </defs>
      <use xlink:href="#DejaVuSans-54"/>
      <use x="57.958984" xlink:href="#DejaVuSans-69"/>
      <use x="85.742188" xlink:href="#DejaVuSans-6d"/>
      <use x="183.154297" xlink:href="#DejaVuSans-65"/>
      <use x="244.677734" xlink:href="#DejaVuSans-20"/>
      <use x="276.464844" xlink:href="#DejaVuSans-28"/>
      <use x="315.478516" xlink:href="#DejaVuSans-68"/>
      <use x="378.857422" xlink:href="#DejaVuSans-6f"/>
      <use x="440.039062" xlink:href="#DejaVuSans-75"/>
      <use x="503.417969" xlink:href="#DejaVuSans-72"/>
      <use x="542.78125" xlink:href="#DejaVuSans-3a"/>
      <use x="576.472656" xlink:href="#DejaVuSans-6d"/>
      <use x="673.884766" xlink:href="#DejaVuSans-69"/>
      <use x="701.667969" xlink:href="#DejaVuSans-6e"/>
      <use x="765.046875" xlink:href="#DejaVuSans-75"/>
      <use x="828.425781" xlink:href="#DejaVuSans-74"/>
      <use x="867.634766" xlink:href="#DejaVuSans-65"/>
      <use x="929.158203" xlink:href="#DejaVuSans-29"/>
     </g>
    </g>
   </g>
   <g id="matplotlib.axis_2">
    <g id="ytick_1">
     <g id="line2d_29">
      <defs>
       <path d="M 0 0 
L -3.5 0 
" id="m2a41ac4a6f" style="stroke:#000000;stroke-width:0.8;"/>
      </defs>
      <g>
       <use style="stroke:#000000;stroke-width:0.8;" x="53.328125" xlink:href="#m2a41ac4a6f" y="258.136907"/>
      </g>
     </g>
     <g id="text_14">
      <!-- 500 -->
      <g transform="translate(27.240625 261.936125)scale(0.1 -0.1)">
       <use xlink:href="#DejaVuSans-35"/>
       <use x="63.623047" xlink:href="#DejaVuSans-30"/>
       <use x="127.246094" xlink:href="#DejaVuSans-30"/>
      </g>
     </g>
    </g>
    <g id="ytick_2">
     <g id="line2d_30">
      <g>
       <use style="stroke:#000000;stroke-width:0.8;" x="53.328125" xlink:href="#m2a41ac4a6f" y="223.802533"/>
      </g>
     </g>
     <g id="text_15">
      <!-- 1000 -->
      <g transform="translate(20.878125 227.601751)scale(0.1 -0.1)">
       <use xlink:href="#DejaVuSans-31"/>
       <use x="63.623047" xlink:href="#DejaVuSans-30"/>
       <use x="127.246094" xlink:href="#DejaVuSans-30"/>
       <use x="190.869141" xlink:href="#DejaVuSans-30"/>
      </g>
     </g>
    </g>
    <g id="ytick_3">
     <g id="line2d_31">
      <g>
       <use style="stroke:#000000;stroke-width:0.8;" x="53.328125" xlink:href="#m2a41ac4a6f" y="189.468158"/>
      </g>
     </g>
     <g id="text_16">
      <!-- 1500 -->
      <g transform="translate(20.878125 193.267377)scale(0.1 -0.1)">
       <use xlink:href="#DejaVuSans-31"/>
       <use x="63.623047" xlink:href="#DejaVuSans-35"/>
       <use x="127.246094" xlink:href="#DejaVuSans-30"/>
       <use x="190.869141" xlink:href="#DejaVuSans-30"/>
      </g>
     </g>
    </g>
    <g id="ytick_4">
     <g id="line2d_32">
      <g>
       <use style="stroke:#000000;stroke-width:0.8;" x="53.328125" xlink:href="#m2a41ac4a6f" y="155.133784"/>
      </g>
     </g>
     <g id="text_17">
      <!-- 2000 -->
      <g transform="translate(20.878125 158.933003)scale(0.1 -0.1)">
       <use xlink:href="#DejaVuSans-32"/>
       <use x="63.623047" xlink:href="#DejaVuSans-30"/>
       <use x="127.246094" xlink:href="#DejaVuSans-30"/>
       <use x="190.869141" xlink:href="#DejaVuSans-30"/>
      </g>
     </g>
    </g>
    <g id="ytick_5">
     <g id="line2d_33">
      <g>
       <use style="stroke:#000000;stroke-width:0.8;" x="53.328125" xlink:href="#m2a41ac4a6f" y="120.79941"/>
      </g>
     </g>
     <g id="text_18">
      <!-- 2500 -->
      <g transform="translate(20.878125 124.598629)scale(0.1 -0.1)">
       <use xlink:href="#DejaVuSans-32"/>
       <use x="63.623047" xlink:href="#DejaVuSans-35"/>
       <use x="127.246094" xlink:href="#DejaVuSans-30"/>
       <use x="190.869141" xlink:href="#DejaVuSans-30"/>
      </g>
     </g>
    </g>
    <g id="ytick_6">
     <g id="line2d_34">
      <g>
       <use style="stroke:#000000;stroke-width:0.8;" x="53.328125" xlink:href="#m2a41ac4a6f" y="86.465036"/>
      </g>
     </g>
     <g id="text_19">
      <!-- 3000 -->
      <g transform="translate(20.878125 90.264255)scale(0.1 -0.1)">
       <use xlink:href="#DejaVuSans-33"/>
       <use x="63.623047" xlink:href="#DejaVuSans-30"/>
       <use x="127.246094" xlink:href="#DejaVuSans-30"/>
       <use x="190.869141" xlink:href="#DejaVuSans-30"/>
      </g>
     </g>
    </g>
    <g id="ytick_7">
     <g id="line2d_35">
      <g>
       <use style="stroke:#000000;stroke-width:0.8;" x="53.328125" xlink:href="#m2a41ac4a6f" y="52.130662"/>
      </g>
     </g>
     <g id="text_20">
      <!-- 3500 -->
      <g transform="translate(20.878125 55.929881)scale(0.1 -0.1)">
       <use xlink:href="#DejaVuSans-33"/>
       <use x="63.623047" xlink:href="#DejaVuSans-35"/>
       <use x="127.246094" xlink:href="#DejaVuSans-30"/>
       <use x="190.869141" xlink:href="#DejaVuSans-30"/>
      </g>
     </g>
    </g>
    <g id="text_21">
     <!-- Code region coverage -->
     <g transform="translate(14.798438 210.379594)rotate(-90)scale(0.1 -0.1)">
      <defs>
       <path d="M 4122 4306 
L 4122 3641 
Q 3803 3938 3442 4084 
Q 3081 4231 2675 4231 
Q 1875 4231 1450 3742 
Q 1025 3253 1025 2328 
Q 1025 1406 1450 917 
Q 1875 428 2675 428 
Q 3081 428 3442 575 
Q 3803 722 4122 1019 
L 4122 359 
Q 3791 134 3420 21 
Q 3050 -91 2638 -91 
Q 1578 -91 968 557 
Q 359 1206 359 2328 
Q 359 3453 968 4101 
Q 1578 4750 2638 4750 
Q 3056 4750 3426 4639 
Q 3797 4528 4122 4306 
z
" id="DejaVuSans-43" transform="scale(0.015625)"/>
       <path d="M 2906 2969 
L 2906 4863 
L 3481 4863 
L 3481 0 
L 2906 0 
L 2906 525 
Q 2725 213 2448 61 
Q 2172 -91 1784 -91 
Q 1150 -91 751 415 
Q 353 922 353 1747 
Q 353 2572 751 3078 
Q 1150 3584 1784 3584 
Q 2172 3584 2448 3432 
Q 2725 3281 2906 2969 
z
M 947 1747 
Q 947 1113 1208 752 
Q 1469 391 1925 391 
Q 2381 391 2643 752 
Q 2906 1113 2906 1747 
Q 2906 2381 2643 2742 
Q 2381 3103 1925 3103 
Q 1469 3103 1208 2742 
Q 947 2381 947 1747 
z
" id="DejaVuSans-64" transform="scale(0.015625)"/>
       <path d="M 2906 1791 
Q 2906 2416 2648 2759 
Q 2391 3103 1925 3103 
Q 1463 3103 1205 2759 
Q 947 2416 947 1791 
Q 947 1169 1205 825 
Q 1463 481 1925 481 
Q 2391 481 2648 825 
Q 2906 1169 2906 1791 
z
M 3481 434 
Q 3481 -459 3084 -895 
Q 2688 -1331 1869 -1331 
Q 1566 -1331 1297 -1286 
Q 1028 -1241 775 -1147 
L 775 -588 
Q 1028 -725 1275 -790 
Q 1522 -856 1778 -856 
Q 2344 -856 2625 -561 
Q 2906 -266 2906 331 
L 2906 616 
Q 2728 306 2450 153 
Q 2172 0 1784 0 
Q 1141 0 747 490 
Q 353 981 353 1791 
Q 353 2603 747 3093 
Q 1141 3584 1784 3584 
Q 2172 3584 2450 3431 
Q 2728 3278 2906 2969 
L 2906 3500 
L 3481 3500 
L 3481 434 
z
" id="DejaVuSans-67" transform="scale(0.015625)"/>
       <path d="M 3122 3366 
L 3122 2828 
Q 2878 2963 2633 3030 
Q 2388 3097 2138 3097 
Q 1578 3097 1268 2742 
Q 959 2388 959 1747 
Q 959 1106 1268 751 
Q 1578 397 2138 397 
Q 2388 397 2633 464 
Q 2878 531 3122 666 
L 3122 134 
Q 2881 22 2623 -34 
Q 2366 -91 2075 -91 
Q 1284 -91 818 406 
Q 353 903 353 1747 
Q 353 2603 823 3093 
Q 1294 3584 2113 3584 
Q 2378 3584 2631 3529 
Q 2884 3475 3122 3366 
z
" id="DejaVuSans-63" transform="scale(0.015625)"/>
       <path d="M 191 3500 
L 800 3500 
L 1894 563 
L 2988 3500 
L 3597 3500 
L 2284 0 
L 1503 0 
L 191 3500 
z
" id="DejaVuSans-76" transform="scale(0.015625)"/>
       <path d="M 2194 1759 
Q 1497 1759 1228 1600 
Q 959 1441 959 1056 
Q 959 750 1161 570 
Q 1363 391 1709 391 
Q 2188 391 2477 730 
Q 2766 1069 2766 1631 
L 2766 1759 
L 2194 1759 
z
M 3341 1997 
L 3341 0 
L 2766 0 
L 2766 531 
Q 2569 213 2275 61 
Q 1981 -91 1556 -91 
Q 1019 -91 701 211 
Q 384 513 384 1019 
Q 384 1609 779 1909 
Q 1175 2209 1959 2209 
L 2766 2209 
L 2766 2266 
Q 2766 2663 2505 2880 
Q 2244 3097 1772 3097 
Q 1472 3097 1187 3025 
Q 903 2953 641 2809 
L 641 3341 
Q 956 3463 1253 3523 
Q 1550 3584 1831 3584 
Q 2591 3584 2966 3190 
Q 3341 2797 3341 1997 
z
" id="DejaVuSans-61" transform="scale(0.015625)"/>
      </defs>
      <use xlink:href="#DejaVuSans-43"/>
      <use x="69.824219" xlink:href="#DejaVuSans-6f"/>
      <use x="131.005859" xlink:href="#DejaVuSans-64"/>
      <use x="194.482422" xlink:href="#DejaVuSans-65"/>
      <use x="256.005859" xlink:href="#DejaVuSans-20"/>
      <use x="287.792969" xlink:href="#DejaVuSans-72"/>
      <use x="326.65625" xlink:href="#DejaVuSans-65"/>
      <use x="388.179688" xlink:href="#DejaVuSans-67"/>
      <use x="451.65625" xlink:href="#DejaVuSans-69"/>
      <use x="479.439453" xlink:href="#DejaVuSans-6f"/>
      <use x="540.621094" xlink:href="#DejaVuSans-6e"/>
      <use x="604" xlink:href="#DejaVuSans-20"/>
      <use x="635.787109" xlink:href="#DejaVuSans-63"/>
      <use x="690.767578" xlink:href="#DejaVuSans-6f"/>
      <use x="751.949219" xlink:href="#DejaVuSans-76"/>
      <use x="811.128906" xlink:href="#DejaVuSans-65"/>
      <use x="872.652344" xlink:href="#DejaVuSans-72"/>
      <use x="913.765625" xlink:href="#DejaVuSans-61"/>
      <use x="975.044922" xlink:href="#DejaVuSans-67"/>
      <use x="1038.521484" xlink:href="#DejaVuSans-65"/>
     </g>
    </g>
   </g>
   <g id="line2d_36">
    <path clip-path="url(#p0fd39b236e)" d="M 85.79358 89.211786 
L 189.097882 65.589737 
L 249.527025 65.040387 
L 292.402184 64.83438 
L 325.658741 64.353699 
L 352.831327 64.353699 
L 375.805421 64.353699 
L 395.706486 64.353699 
L 413.26047 64.353699 
L 428.963044 64.010355 
L 443.167749 60.233574 
L 456.135629 58.860199 
L 468.064923 58.791531 
L 479.109723 58.585524 
L 489.392187 58.585524 
L 499.010789 58.585524 
L 508.046077 58.585524 
L 516.564772 58.585524 
L 524.622768 58.585524 
L 532.267346 58.585524 
L 539.538866 58.448187 
L 546.472052 58.448187 
L 553.096991 58.448187 
L 559.439932 58.448187 
L 565.523903 58.448187 
L 571.369225 58.310849 
L 576.993915 57.692831 
L 582.414026 57.624162 
L 587.643917 57.624162 
L 592.696489 57.624162 
L 597.583373 57.624162 
L 602.315091 57.624162 
L 606.901195 57.624162 
L 611.350379 57.624162 
L 615.670583 57.624162 
L 619.869075 57.624162 
L 623.952525 57.624162 
L 627.92707 57.624162 
L 631.798368 57.624162 
L 635.571648 57.624162 
L 639.251751 57.624162 
L 642.843169 57.280818 
L 646.350074 57.280818 
L 649.776354 56.937474 
L 653.125632 56.937474 
L 656.401294 56.937474 
L 659.606505 56.937474 
L 662.744234 56.937474 
L 665.817263 56.937474 
L 668.828206 56.937474 
L 671.779522 56.937474 
L 674.673527 56.937474 
L 677.512406 56.937474 
L 680.298218 56.937474 
L 683.032911 56.937474 
L 685.718328 56.937474 
L 688.356213 56.937474 
L 690.948219 56.937474 
L 693.495915 56.937474 
L 696.000791 56.937474 
L 698.464262 56.937474 
L 700.887675 56.937474 
L 703.272312 56.937474 
L 705.619393 56.937474 
L 707.930085 56.937474 
L 710.205497 56.937474 
L 712.446691 56.937474 
L 714.654681 56.937474 
L 716.830437 55.632768 
L 718.974885 55.632768 
L 721.088915 55.632768 
L 723.173377 55.632768 
L 725.229087 55.632768 
L 727.256827 55.632768 
L 729.257349 55.632768 
L 731.231372 55.632768 
L 733.179591 55.632768 
L 735.10267 34.551462 
" style="fill:none;stroke:#1f77b4;stroke-linecap:square;stroke-width:1.5;"/>
    <defs>
     <path d="M 0 3 
C 0.795609 3 1.55874 2.683901 2.12132 2.12132 
C 2.683901 1.55874 3 0.795609 3 0 
C 3 -0.795609 2.683901 -1.55874 2.12132 -2.12132 
C 1.55874 -2.683901 0.795609 -3 0 -3 
C -0.795609 -3 -1.55874 -2.683901 -2.12132 -2.12132 
C -2.683901 -1.55874 -3 -0.795609 -3 0 
C -3 0.795609 -2.683901 1.55874 -2.12132 2.12132 
C -1.55874 2.683901 -0.795609 3 0 3 
z
" id="mfd5bf1d7ac" style="stroke:#ffffff;stroke-width:0.75;"/>
    </defs>
    <g clip-path="url(#p0fd39b236e)">
     <use style="fill:#1f77b4;stroke:#ffffff;stroke-width:0.75;" x="85.79358" xlink:href="#mfd5bf1d7ac" y="89.211786"/>
     <use style="fill:#1f77b4;stroke:#ffffff;stroke-width:0.75;" x="189.097882" xlink:href="#mfd5bf1d7ac" y="65.589737"/>
     <use style="fill:#1f77b4;stroke:#ffffff;stroke-width:0.75;" x="249.527025" xlink:href="#mfd5bf1d7ac" y="65.040387"/>
     <use style="fill:#1f77b4;stroke:#ffffff;stroke-width:0.75;" x="292.402184" xlink:href="#mfd5bf1d7ac" y="64.83438"/>
     <use style="fill:#1f77b4;stroke:#ffffff;stroke-width:0.75;" x="325.658741" xlink:href="#mfd5bf1d7ac" y="64.353699"/>
     <use style="fill:#1f77b4;stroke:#ffffff;stroke-width:0.75;" x="352.831327" xlink:href="#mfd5bf1d7ac" y="64.353699"/>
     <use style="fill:#1f77b4;stroke:#ffffff;stroke-width:0.75;" x="375.805421" xlink:href="#mfd5bf1d7ac" y="64.353699"/>
     <use style="fill:#1f77b4;stroke:#ffffff;stroke-width:0.75;" x="395.706486" xlink:href="#mfd5bf1d7ac" y="64.353699"/>
     <use style="fill:#1f77b4;stroke:#ffffff;stroke-width:0.75;" x="413.26047" xlink:href="#mfd5bf1d7ac" y="64.353699"/>
     <use style="fill:#1f77b4;stroke:#ffffff;stroke-width:0.75;" x="428.963044" xlink:href="#mfd5bf1d7ac" y="64.010355"/>
     <use style="fill:#1f77b4;stroke:#ffffff;stroke-width:0.75;" x="443.167749" xlink:href="#mfd5bf1d7ac" y="60.233574"/>
     <use style="fill:#1f77b4;stroke:#ffffff;stroke-width:0.75;" x="456.135629" xlink:href="#mfd5bf1d7ac" y="58.860199"/>
     <use style="fill:#1f77b4;stroke:#ffffff;stroke-width:0.75;" x="468.064923" xlink:href="#mfd5bf1d7ac" y="58.791531"/>
     <use style="fill:#1f77b4;stroke:#ffffff;stroke-width:0.75;" x="479.109723" xlink:href="#mfd5bf1d7ac" y="58.585524"/>
     <use style="fill:#1f77b4;stroke:#ffffff;stroke-width:0.75;" x="489.392187" xlink:href="#mfd5bf1d7ac" y="58.585524"/>
     <use style="fill:#1f77b4;stroke:#ffffff;stroke-width:0.75;" x="499.010789" xlink:href="#mfd5bf1d7ac" y="58.585524"/>
     <use style="fill:#1f77b4;stroke:#ffffff;stroke-width:0.75;" x="508.046077" xlink:href="#mfd5bf1d7ac" y="58.585524"/>
     <use style="fill:#1f77b4;stroke:#ffffff;stroke-width:0.75;" x="516.564772" xlink:href="#mfd5bf1d7ac" y="58.585524"/>
     <use style="fill:#1f77b4;stroke:#ffffff;stroke-width:0.75;" x="524.622768" xlink:href="#mfd5bf1d7ac" y="58.585524"/>
     <use style="fill:#1f77b4;stroke:#ffffff;stroke-width:0.75;" x="532.267346" xlink:href="#mfd5bf1d7ac" y="58.585524"/>
     <use style="fill:#1f77b4;stroke:#ffffff;stroke-width:0.75;" x="539.538866" xlink:href="#mfd5bf1d7ac" y="58.448187"/>
     <use style="fill:#1f77b4;stroke:#ffffff;stroke-width:0.75;" x="546.472052" xlink:href="#mfd5bf1d7ac" y="58.448187"/>
     <use style="fill:#1f77b4;stroke:#ffffff;stroke-width:0.75;" x="553.096991" xlink:href="#mfd5bf1d7ac" y="58.448187"/>
     <use style="fill:#1f77b4;stroke:#ffffff;stroke-width:0.75;" x="559.439932" xlink:href="#mfd5bf1d7ac" y="58.448187"/>
     <use style="fill:#1f77b4;stroke:#ffffff;stroke-width:0.75;" x="565.523903" xlink:href="#mfd5bf1d7ac" y="58.448187"/>
     <use style="fill:#1f77b4;stroke:#ffffff;stroke-width:0.75;" x="571.369225" xlink:href="#mfd5bf1d7ac" y="58.310849"/>
     <use style="fill:#1f77b4;stroke:#ffffff;stroke-width:0.75;" x="576.993915" xlink:href="#mfd5bf1d7ac" y="57.692831"/>
     <use style="fill:#1f77b4;stroke:#ffffff;stroke-width:0.75;" x="582.414026" xlink:href="#mfd5bf1d7ac" y="57.624162"/>
     <use style="fill:#1f77b4;stroke:#ffffff;stroke-width:0.75;" x="587.643917" xlink:href="#mfd5bf1d7ac" y="57.624162"/>
     <use style="fill:#1f77b4;stroke:#ffffff;stroke-width:0.75;" x="592.696489" xlink:href="#mfd5bf1d7ac" y="57.624162"/>
     <use style="fill:#1f77b4;stroke:#ffffff;stroke-width:0.75;" x="597.583373" xlink:href="#mfd5bf1d7ac" y="57.624162"/>
     <use style="fill:#1f77b4;stroke:#ffffff;stroke-width:0.75;" x="602.315091" xlink:href="#mfd5bf1d7ac" y="57.624162"/>
     <use style="fill:#1f77b4;stroke:#ffffff;stroke-width:0.75;" x="606.901195" xlink:href="#mfd5bf1d7ac" y="57.624162"/>
     <use style="fill:#1f77b4;stroke:#ffffff;stroke-width:0.75;" x="611.350379" xlink:href="#mfd5bf1d7ac" y="57.624162"/>
     <use style="fill:#1f77b4;stroke:#ffffff;stroke-width:0.75;" x="615.670583" xlink:href="#mfd5bf1d7ac" y="57.624162"/>
     <use style="fill:#1f77b4;stroke:#ffffff;stroke-width:0.75;" x="619.869075" xlink:href="#mfd5bf1d7ac" y="57.624162"/>
     <use style="fill:#1f77b4;stroke:#ffffff;stroke-width:0.75;" x="623.952525" xlink:href="#mfd5bf1d7ac" y="57.624162"/>
     <use style="fill:#1f77b4;stroke:#ffffff;stroke-width:0.75;" x="627.92707" xlink:href="#mfd5bf1d7ac" y="57.624162"/>
     <use style="fill:#1f77b4;stroke:#ffffff;stroke-width:0.75;" x="631.798368" xlink:href="#mfd5bf1d7ac" y="57.624162"/>
     <use style="fill:#1f77b4;stroke:#ffffff;stroke-width:0.75;" x="635.571648" xlink:href="#mfd5bf1d7ac" y="57.624162"/>
     <use style="fill:#1f77b4;stroke:#ffffff;stroke-width:0.75;" x="639.251751" xlink:href="#mfd5bf1d7ac" y="57.624162"/>
     <use style="fill:#1f77b4;stroke:#ffffff;stroke-width:0.75;" x="642.843169" xlink:href="#mfd5bf1d7ac" y="57.280818"/>
     <use style="fill:#1f77b4;stroke:#ffffff;stroke-width:0.75;" x="646.350074" xlink:href="#mfd5bf1d7ac" y="57.280818"/>
     <use style="fill:#1f77b4;stroke:#ffffff;stroke-width:0.75;" x="649.776354" xlink:href="#mfd5bf1d7ac" y="56.937474"/>
     <use style="fill:#1f77b4;stroke:#ffffff;stroke-width:0.75;" x="653.125632" xlink:href="#mfd5bf1d7ac" y="56.937474"/>
     <use style="fill:#1f77b4;stroke:#ffffff;stroke-width:0.75;" x="656.401294" xlink:href="#mfd5bf1d7ac" y="56.937474"/>
     <use style="fill:#1f77b4;stroke:#ffffff;stroke-width:0.75;" x="659.606505" xlink:href="#mfd5bf1d7ac" y="56.937474"/>
     <use style="fill:#1f77b4;stroke:#ffffff;stroke-width:0.75;" x="662.744234" xlink:href="#mfd5bf1d7ac" y="56.937474"/>
     <use style="fill:#1f77b4;stroke:#ffffff;stroke-width:0.75;" x="665.817263" xlink:href="#mfd5bf1d7ac" y="56.937474"/>
     <use style="fill:#1f77b4;stroke:#ffffff;stroke-width:0.75;" x="668.828206" xlink:href="#mfd5bf1d7ac" y="56.937474"/>
     <use style="fill:#1f77b4;stroke:#ffffff;stroke-width:0.75;" x="671.779522" xlink:href="#mfd5bf1d7ac" y="56.937474"/>
     <use style="fill:#1f77b4;stroke:#ffffff;stroke-width:0.75;" x="674.673527" xlink:href="#mfd5bf1d7ac" y="56.937474"/>
     <use style="fill:#1f77b4;stroke:#ffffff;stroke-width:0.75;" x="677.512406" xlink:href="#mfd5bf1d7ac" y="56.937474"/>
     <use style="fill:#1f77b4;stroke:#ffffff;stroke-width:0.75;" x="680.298218" xlink:href="#mfd5bf1d7ac" y="56.937474"/>
     <use style="fill:#1f77b4;stroke:#ffffff;stroke-width:0.75;" x="683.032911" xlink:href="#mfd5bf1d7ac" y="56.937474"/>
     <use style="fill:#1f77b4;stroke:#ffffff;stroke-width:0.75;" x="685.718328" xlink:href="#mfd5bf1d7ac" y="56.937474"/>
     <use style="fill:#1f77b4;stroke:#ffffff;stroke-width:0.75;" x="688.356213" xlink:href="#mfd5bf1d7ac" y="56.937474"/>
     <use style="fill:#1f77b4;stroke:#ffffff;stroke-width:0.75;" x="690.948219" xlink:href="#mfd5bf1d7ac" y="56.937474"/>
     <use style="fill:#1f77b4;stroke:#ffffff;stroke-width:0.75;" x="693.495915" xlink:href="#mfd5bf1d7ac" y="56.937474"/>
     <use style="fill:#1f77b4;stroke:#ffffff;stroke-width:0.75;" x="696.000791" xlink:href="#mfd5bf1d7ac" y="56.937474"/>
     <use style="fill:#1f77b4;stroke:#ffffff;stroke-width:0.75;" x="698.464262" xlink:href="#mfd5bf1d7ac" y="56.937474"/>
     <use style="fill:#1f77b4;stroke:#ffffff;stroke-width:0.75;" x="700.887675" xlink:href="#mfd5bf1d7ac" y="56.937474"/>
     <use style="fill:#1f77b4;stroke:#ffffff;stroke-width:0.75;" x="703.272312" xlink:href="#mfd5bf1d7ac" y="56.937474"/>
     <use style="fill:#1f77b4;stroke:#ffffff;stroke-width:0.75;" x="705.619393" xlink:href="#mfd5bf1d7ac" y="56.937474"/>
     <use style="fill:#1f77b4;stroke:#ffffff;stroke-width:0.75;" x="707.930085" xlink:href="#mfd5bf1d7ac" y="56.937474"/>
     <use style="fill:#1f77b4;stroke:#ffffff;stroke-width:0.75;" x="710.205497" xlink:href="#mfd5bf1d7ac" y="56.937474"/>
     <use style="fill:#1f77b4;stroke:#ffffff;stroke-width:0.75;" x="712.446691" xlink:href="#mfd5bf1d7ac" y="56.937474"/>
     <use style="fill:#1f77b4;stroke:#ffffff;stroke-width:0.75;" x="714.654681" xlink:href="#mfd5bf1d7ac" y="56.937474"/>
     <use style="fill:#1f77b4;stroke:#ffffff;stroke-width:0.75;" x="716.830437" xlink:href="#mfd5bf1d7ac" y="55.632768"/>
     <use style="fill:#1f77b4;stroke:#ffffff;stroke-width:0.75;" x="718.974885" xlink:href="#mfd5bf1d7ac" y="55.632768"/>
     <use style="fill:#1f77b4;stroke:#ffffff;stroke-width:0.75;" x="721.088915" xlink:href="#mfd5bf1d7ac" y="55.632768"/>
     <use style="fill:#1f77b4;stroke:#ffffff;stroke-width:0.75;" x="723.173377" xlink:href="#mfd5bf1d7ac" y="55.632768"/>
     <use style="fill:#1f77b4;stroke:#ffffff;stroke-width:0.75;" x="725.229087" xlink:href="#mfd5bf1d7ac" y="55.632768"/>
     <use style="fill:#1f77b4;stroke:#ffffff;stroke-width:0.75;" x="727.256827" xlink:href="#mfd5bf1d7ac" y="55.632768"/>
     <use style="fill:#1f77b4;stroke:#ffffff;stroke-width:0.75;" x="729.257349" xlink:href="#mfd5bf1d7ac" y="55.632768"/>
     <use style="fill:#1f77b4;stroke:#ffffff;stroke-width:0.75;" x="731.231372" xlink:href="#mfd5bf1d7ac" y="55.632768"/>
     <use style="fill:#1f77b4;stroke:#ffffff;stroke-width:0.75;" x="733.179591" xlink:href="#mfd5bf1d7ac" y="55.632768"/>
     <use style="fill:#1f77b4;stroke:#ffffff;stroke-width:0.75;" x="735.10267" xlink:href="#mfd5bf1d7ac" y="34.551462"/>
    </g>
   </g>
   <g id="line2d_37">
    <path clip-path="url(#p0fd39b236e)" d="M 85.79358 85.778349 
L 189.097882 65.38373 
L 249.527025 65.246393 
L 292.402184 64.491037 
L 325.658741 64.491037 
L 352.831327 64.491037 
L 375.805421 64.491037 
L 395.706486 64.491037 
L 413.26047 64.28503 
L 428.963044 64.28503 
L 443.167749 64.28503 
L 456.135629 64.079024 
L 468.064923 64.079024 
L 479.109723 64.079024 
L 489.392187 64.079024 
L 499.010789 64.079024 
L 508.046077 64.079024 
L 516.564772 63.048993 
L 524.622768 63.048993 
L 532.267346 58.036174 
L 539.538866 58.036174 
L 546.472052 58.036174 
L 553.096991 58.036174 
L 559.439932 58.036174 
L 565.523903 58.036174 
L 571.369225 58.036174 
L 576.993915 58.036174 
L 582.414026 58.036174 
L 587.643917 56.731468 
L 592.696489 56.731468 
L 597.583373 56.731468 
L 602.315091 56.731468 
L 606.901195 56.731468 
L 611.350379 56.731468 
L 615.670583 56.731468 
L 619.869075 56.731468 
L 623.952525 56.731468 
L 627.92707 56.731468 
L 631.798368 56.731468 
L 635.571648 56.731468 
L 639.251751 56.731468 
L 642.843169 56.731468 
L 646.350074 56.731468 
L 649.776354 56.731468 
L 653.125632 56.731468 
L 656.401294 56.731468 
L 659.606505 56.731468 
L 662.744234 56.731468 
L 665.817263 56.731468 
L 668.828206 56.731468 
L 671.779522 56.731468 
L 674.673527 56.731468 
L 677.512406 56.731468 
L 680.298218 56.731468 
L 683.032911 56.731468 
L 685.718328 56.731468 
L 688.356213 56.731468 
L 690.948219 56.731468 
L 693.495915 56.731468 
L 696.000791 56.731468 
L 698.464262 56.731468 
L 700.887675 56.731468 
L 703.272312 56.731468 
L 705.619393 56.731468 
L 707.930085 56.731468 
L 710.205497 56.731468 
L 712.446691 56.731468 
L 714.654681 56.731468 
L 716.830437 56.731468 
L 718.974885 56.731468 
L 721.088915 56.731468 
L 723.173377 56.731468 
L 725.229087 56.731468 
L 727.256827 56.731468 
L 729.257349 56.731468 
L 731.231372 56.731468 
L 733.179591 56.731468 
L 735.10267 56.731468 
" style="fill:none;stroke:#98df8a;stroke-linecap:square;stroke-width:1.5;"/>
    <defs>
     <path d="M -0 3 
L 3 -3 
L -3 -3 
z
" id="m4a8db4a5ae" style="stroke:#ffffff;stroke-linejoin:miter;stroke-width:0.75;"/>
    </defs>
    <g clip-path="url(#p0fd39b236e)">
     <use style="fill:#98df8a;stroke:#ffffff;stroke-linejoin:miter;stroke-width:0.75;" x="85.79358" xlink:href="#m4a8db4a5ae" y="85.778349"/>
     <use style="fill:#98df8a;stroke:#ffffff;stroke-linejoin:miter;stroke-width:0.75;" x="189.097882" xlink:href="#m4a8db4a5ae" y="65.38373"/>
     <use style="fill:#98df8a;stroke:#ffffff;stroke-linejoin:miter;stroke-width:0.75;" x="249.527025" xlink:href="#m4a8db4a5ae" y="65.246393"/>
     <use style="fill:#98df8a;stroke:#ffffff;stroke-linejoin:miter;stroke-width:0.75;" x="292.402184" xlink:href="#m4a8db4a5ae" y="64.491037"/>
     <use style="fill:#98df8a;stroke:#ffffff;stroke-linejoin:miter;stroke-width:0.75;" x="325.658741" xlink:href="#m4a8db4a5ae" y="64.491037"/>
     <use style="fill:#98df8a;stroke:#ffffff;stroke-linejoin:miter;stroke-width:0.75;" x="352.831327" xlink:href="#m4a8db4a5ae" y="64.491037"/>
     <use style="fill:#98df8a;stroke:#ffffff;stroke-linejoin:miter;stroke-width:0.75;" x="375.805421" xlink:href="#m4a8db4a5ae" y="64.491037"/>
     <use style="fill:#98df8a;stroke:#ffffff;stroke-linejoin:miter;stroke-width:0.75;" x="395.706486" xlink:href="#m4a8db4a5ae" y="64.491037"/>
     <use style="fill:#98df8a;stroke:#ffffff;stroke-linejoin:miter;stroke-width:0.75;" x="413.26047" xlink:href="#m4a8db4a5ae" y="64.28503"/>
     <use style="fill:#98df8a;stroke:#ffffff;stroke-linejoin:miter;stroke-width:0.75;" x="428.963044" xlink:href="#m4a8db4a5ae" y="64.28503"/>
     <use style="fill:#98df8a;stroke:#ffffff;stroke-linejoin:miter;stroke-width:0.75;" x="443.167749" xlink:href="#m4a8db4a5ae" y="64.28503"/>
     <use style="fill:#98df8a;stroke:#ffffff;stroke-linejoin:miter;stroke-width:0.75;" x="456.135629" xlink:href="#m4a8db4a5ae" y="64.079024"/>
     <use style="fill:#98df8a;stroke:#ffffff;stroke-linejoin:miter;stroke-width:0.75;" x="468.064923" xlink:href="#m4a8db4a5ae" y="64.079024"/>
     <use style="fill:#98df8a;stroke:#ffffff;stroke-linejoin:miter;stroke-width:0.75;" x="479.109723" xlink:href="#m4a8db4a5ae" y="64.079024"/>
     <use style="fill:#98df8a;stroke:#ffffff;stroke-linejoin:miter;stroke-width:0.75;" x="489.392187" xlink:href="#m4a8db4a5ae" y="64.079024"/>
     <use style="fill:#98df8a;stroke:#ffffff;stroke-linejoin:miter;stroke-width:0.75;" x="499.010789" xlink:href="#m4a8db4a5ae" y="64.079024"/>
     <use style="fill:#98df8a;stroke:#ffffff;stroke-linejoin:miter;stroke-width:0.75;" x="508.046077" xlink:href="#m4a8db4a5ae" y="64.079024"/>
     <use style="fill:#98df8a;stroke:#ffffff;stroke-linejoin:miter;stroke-width:0.75;" x="516.564772" xlink:href="#m4a8db4a5ae" y="63.048993"/>
     <use style="fill:#98df8a;stroke:#ffffff;stroke-linejoin:miter;stroke-width:0.75;" x="524.622768" xlink:href="#m4a8db4a5ae" y="63.048993"/>
     <use style="fill:#98df8a;stroke:#ffffff;stroke-linejoin:miter;stroke-width:0.75;" x="532.267346" xlink:href="#m4a8db4a5ae" y="58.036174"/>
     <use style="fill:#98df8a;stroke:#ffffff;stroke-linejoin:miter;stroke-width:0.75;" x="539.538866" xlink:href="#m4a8db4a5ae" y="58.036174"/>
     <use style="fill:#98df8a;stroke:#ffffff;stroke-linejoin:miter;stroke-width:0.75;" x="546.472052" xlink:href="#m4a8db4a5ae" y="58.036174"/>
     <use style="fill:#98df8a;stroke:#ffffff;stroke-linejoin:miter;stroke-width:0.75;" x="553.096991" xlink:href="#m4a8db4a5ae" y="58.036174"/>
     <use style="fill:#98df8a;stroke:#ffffff;stroke-linejoin:miter;stroke-width:0.75;" x="559.439932" xlink:href="#m4a8db4a5ae" y="58.036174"/>
     <use style="fill:#98df8a;stroke:#ffffff;stroke-linejoin:miter;stroke-width:0.75;" x="565.523903" xlink:href="#m4a8db4a5ae" y="58.036174"/>
     <use style="fill:#98df8a;stroke:#ffffff;stroke-linejoin:miter;stroke-width:0.75;" x="571.369225" xlink:href="#m4a8db4a5ae" y="58.036174"/>
     <use style="fill:#98df8a;stroke:#ffffff;stroke-linejoin:miter;stroke-width:0.75;" x="576.993915" xlink:href="#m4a8db4a5ae" y="58.036174"/>
     <use style="fill:#98df8a;stroke:#ffffff;stroke-linejoin:miter;stroke-width:0.75;" x="582.414026" xlink:href="#m4a8db4a5ae" y="58.036174"/>
     <use style="fill:#98df8a;stroke:#ffffff;stroke-linejoin:miter;stroke-width:0.75;" x="587.643917" xlink:href="#m4a8db4a5ae" y="56.731468"/>
     <use style="fill:#98df8a;stroke:#ffffff;stroke-linejoin:miter;stroke-width:0.75;" x="592.696489" xlink:href="#m4a8db4a5ae" y="56.731468"/>
     <use style="fill:#98df8a;stroke:#ffffff;stroke-linejoin:miter;stroke-width:0.75;" x="597.583373" xlink:href="#m4a8db4a5ae" y="56.731468"/>
     <use style="fill:#98df8a;stroke:#ffffff;stroke-linejoin:miter;stroke-width:0.75;" x="602.315091" xlink:href="#m4a8db4a5ae" y="56.731468"/>
     <use style="fill:#98df8a;stroke:#ffffff;stroke-linejoin:miter;stroke-width:0.75;" x="606.901195" xlink:href="#m4a8db4a5ae" y="56.731468"/>
     <use style="fill:#98df8a;stroke:#ffffff;stroke-linejoin:miter;stroke-width:0.75;" x="611.350379" xlink:href="#m4a8db4a5ae" y="56.731468"/>
     <use style="fill:#98df8a;stroke:#ffffff;stroke-linejoin:miter;stroke-width:0.75;" x="615.670583" xlink:href="#m4a8db4a5ae" y="56.731468"/>
     <use style="fill:#98df8a;stroke:#ffffff;stroke-linejoin:miter;stroke-width:0.75;" x="619.869075" xlink:href="#m4a8db4a5ae" y="56.731468"/>
     <use style="fill:#98df8a;stroke:#ffffff;stroke-linejoin:miter;stroke-width:0.75;" x="623.952525" xlink:href="#m4a8db4a5ae" y="56.731468"/>
     <use style="fill:#98df8a;stroke:#ffffff;stroke-linejoin:miter;stroke-width:0.75;" x="627.92707" xlink:href="#m4a8db4a5ae" y="56.731468"/>
     <use style="fill:#98df8a;stroke:#ffffff;stroke-linejoin:miter;stroke-width:0.75;" x="631.798368" xlink:href="#m4a8db4a5ae" y="56.731468"/>
     <use style="fill:#98df8a;stroke:#ffffff;stroke-linejoin:miter;stroke-width:0.75;" x="635.571648" xlink:href="#m4a8db4a5ae" y="56.731468"/>
     <use style="fill:#98df8a;stroke:#ffffff;stroke-linejoin:miter;stroke-width:0.75;" x="639.251751" xlink:href="#m4a8db4a5ae" y="56.731468"/>
     <use style="fill:#98df8a;stroke:#ffffff;stroke-linejoin:miter;stroke-width:0.75;" x="642.843169" xlink:href="#m4a8db4a5ae" y="56.731468"/>
     <use style="fill:#98df8a;stroke:#ffffff;stroke-linejoin:miter;stroke-width:0.75;" x="646.350074" xlink:href="#m4a8db4a5ae" y="56.731468"/>
     <use style="fill:#98df8a;stroke:#ffffff;stroke-linejoin:miter;stroke-width:0.75;" x="649.776354" xlink:href="#m4a8db4a5ae" y="56.731468"/>
     <use style="fill:#98df8a;stroke:#ffffff;stroke-linejoin:miter;stroke-width:0.75;" x="653.125632" xlink:href="#m4a8db4a5ae" y="56.731468"/>
     <use style="fill:#98df8a;stroke:#ffffff;stroke-linejoin:miter;stroke-width:0.75;" x="656.401294" xlink:href="#m4a8db4a5ae" y="56.731468"/>
     <use style="fill:#98df8a;stroke:#ffffff;stroke-linejoin:miter;stroke-width:0.75;" x="659.606505" xlink:href="#m4a8db4a5ae" y="56.731468"/>
     <use style="fill:#98df8a;stroke:#ffffff;stroke-linejoin:miter;stroke-width:0.75;" x="662.744234" xlink:href="#m4a8db4a5ae" y="56.731468"/>
     <use style="fill:#98df8a;stroke:#ffffff;stroke-linejoin:miter;stroke-width:0.75;" x="665.817263" xlink:href="#m4a8db4a5ae" y="56.731468"/>
     <use style="fill:#98df8a;stroke:#ffffff;stroke-linejoin:miter;stroke-width:0.75;" x="668.828206" xlink:href="#m4a8db4a5ae" y="56.731468"/>
     <use style="fill:#98df8a;stroke:#ffffff;stroke-linejoin:miter;stroke-width:0.75;" x="671.779522" xlink:href="#m4a8db4a5ae" y="56.731468"/>
     <use style="fill:#98df8a;stroke:#ffffff;stroke-linejoin:miter;stroke-width:0.75;" x="674.673527" xlink:href="#m4a8db4a5ae" y="56.731468"/>
     <use style="fill:#98df8a;stroke:#ffffff;stroke-linejoin:miter;stroke-width:0.75;" x="677.512406" xlink:href="#m4a8db4a5ae" y="56.731468"/>
     <use style="fill:#98df8a;stroke:#ffffff;stroke-linejoin:miter;stroke-width:0.75;" x="680.298218" xlink:href="#m4a8db4a5ae" y="56.731468"/>
     <use style="fill:#98df8a;stroke:#ffffff;stroke-linejoin:miter;stroke-width:0.75;" x="683.032911" xlink:href="#m4a8db4a5ae" y="56.731468"/>
     <use style="fill:#98df8a;stroke:#ffffff;stroke-linejoin:miter;stroke-width:0.75;" x="685.718328" xlink:href="#m4a8db4a5ae" y="56.731468"/>
     <use style="fill:#98df8a;stroke:#ffffff;stroke-linejoin:miter;stroke-width:0.75;" x="688.356213" xlink:href="#m4a8db4a5ae" y="56.731468"/>
     <use style="fill:#98df8a;stroke:#ffffff;stroke-linejoin:miter;stroke-width:0.75;" x="690.948219" xlink:href="#m4a8db4a5ae" y="56.731468"/>
     <use style="fill:#98df8a;stroke:#ffffff;stroke-linejoin:miter;stroke-width:0.75;" x="693.495915" xlink:href="#m4a8db4a5ae" y="56.731468"/>
     <use style="fill:#98df8a;stroke:#ffffff;stroke-linejoin:miter;stroke-width:0.75;" x="696.000791" xlink:href="#m4a8db4a5ae" y="56.731468"/>
     <use style="fill:#98df8a;stroke:#ffffff;stroke-linejoin:miter;stroke-width:0.75;" x="698.464262" xlink:href="#m4a8db4a5ae" y="56.731468"/>
     <use style="fill:#98df8a;stroke:#ffffff;stroke-linejoin:miter;stroke-width:0.75;" x="700.887675" xlink:href="#m4a8db4a5ae" y="56.731468"/>
     <use style="fill:#98df8a;stroke:#ffffff;stroke-linejoin:miter;stroke-width:0.75;" x="703.272312" xlink:href="#m4a8db4a5ae" y="56.731468"/>
     <use style="fill:#98df8a;stroke:#ffffff;stroke-linejoin:miter;stroke-width:0.75;" x="705.619393" xlink:href="#m4a8db4a5ae" y="56.731468"/>
     <use style="fill:#98df8a;stroke:#ffffff;stroke-linejoin:miter;stroke-width:0.75;" x="707.930085" xlink:href="#m4a8db4a5ae" y="56.731468"/>
     <use style="fill:#98df8a;stroke:#ffffff;stroke-linejoin:miter;stroke-width:0.75;" x="710.205497" xlink:href="#m4a8db4a5ae" y="56.731468"/>
     <use style="fill:#98df8a;stroke:#ffffff;stroke-linejoin:miter;stroke-width:0.75;" x="712.446691" xlink:href="#m4a8db4a5ae" y="56.731468"/>
     <use style="fill:#98df8a;stroke:#ffffff;stroke-linejoin:miter;stroke-width:0.75;" x="714.654681" xlink:href="#m4a8db4a5ae" y="56.731468"/>
     <use style="fill:#98df8a;stroke:#ffffff;stroke-linejoin:miter;stroke-width:0.75;" x="716.830437" xlink:href="#m4a8db4a5ae" y="56.731468"/>
     <use style="fill:#98df8a;stroke:#ffffff;stroke-linejoin:miter;stroke-width:0.75;" x="718.974885" xlink:href="#m4a8db4a5ae" y="56.731468"/>
     <use style="fill:#98df8a;stroke:#ffffff;stroke-linejoin:miter;stroke-width:0.75;" x="721.088915" xlink:href="#m4a8db4a5ae" y="56.731468"/>
     <use style="fill:#98df8a;stroke:#ffffff;stroke-linejoin:miter;stroke-width:0.75;" x="723.173377" xlink:href="#m4a8db4a5ae" y="56.731468"/>
     <use style="fill:#98df8a;stroke:#ffffff;stroke-linejoin:miter;stroke-width:0.75;" x="725.229087" xlink:href="#m4a8db4a5ae" y="56.731468"/>
     <use style="fill:#98df8a;stroke:#ffffff;stroke-linejoin:miter;stroke-width:0.75;" x="727.256827" xlink:href="#m4a8db4a5ae" y="56.731468"/>
     <use style="fill:#98df8a;stroke:#ffffff;stroke-linejoin:miter;stroke-width:0.75;" x="729.257349" xlink:href="#m4a8db4a5ae" y="56.731468"/>
     <use style="fill:#98df8a;stroke:#ffffff;stroke-linejoin:miter;stroke-width:0.75;" x="731.231372" xlink:href="#m4a8db4a5ae" y="56.731468"/>
     <use style="fill:#98df8a;stroke:#ffffff;stroke-linejoin:miter;stroke-width:0.75;" x="733.179591" xlink:href="#m4a8db4a5ae" y="56.731468"/>
     <use style="fill:#98df8a;stroke:#ffffff;stroke-linejoin:miter;stroke-width:0.75;" x="735.10267" xlink:href="#m4a8db4a5ae" y="56.731468"/>
    </g>
   </g>
   <g id="line2d_38"/>
   <g id="line2d_39"/>
   <g id="line2d_40">
    <path clip-path="url(#p0fd39b236e)" d="M 735.10267 288.430125 
L 735.10267 22.318125 
" style="fill:none;stroke:#ff0000;stroke-linecap:square;stroke-width:1.5;"/>
   </g>
   <g id="patch_3">
    <path d="M 53.328125 258.136907 
L 53.328125 52.130662 
" style="fill:none;stroke:#000000;stroke-linecap:square;stroke-linejoin:miter;stroke-width:0.8;"/>
   </g>
   <g id="patch_4">
    <path d="M 85.79358 288.430125 
L 735.104793 288.430125 
" style="fill:none;stroke:#000000;stroke-linecap:square;stroke-linejoin:miter;stroke-width:0.8;"/>
   </g>
   <g id="text_22">
    <!-- libjpeg-turbo-07-2017 (19h:30m, 3 trials/fuzzer) -->
    <g transform="translate(266.302813 16.318125)scale(0.12 -0.12)">
     <defs>
      <path d="M 603 4863 
L 1178 4863 
L 1178 0 
L 603 0 
L 603 4863 
z
" id="DejaVuSans-6c" transform="scale(0.015625)"/>
      <path d="M 3116 1747 
Q 3116 2381 2855 2742 
Q 2594 3103 2138 3103 
Q 1681 3103 1420 2742 
Q 1159 2381 1159 1747 
Q 1159 1113 1420 752 
Q 1681 391 2138 391 
Q 2594 391 2855 752 
Q 3116 1113 3116 1747 
z
M 1159 2969 
Q 1341 3281 1617 3432 
Q 1894 3584 2278 3584 
Q 2916 3584 3314 3078 
Q 3713 2572 3713 1747 
Q 3713 922 3314 415 
Q 2916 -91 2278 -91 
Q 1894 -91 1617 61 
Q 1341 213 1159 525 
L 1159 0 
L 581 0 
L 581 4863 
L 1159 4863 
L 1159 2969 
z
" id="DejaVuSans-62" transform="scale(0.015625)"/>
      <path d="M 603 3500 
L 1178 3500 
L 1178 -63 
Q 1178 -731 923 -1031 
Q 669 -1331 103 -1331 
L -116 -1331 
L -116 -844 
L 38 -844 
Q 366 -844 484 -692 
Q 603 -541 603 -63 
L 603 3500 
z
M 603 4863 
L 1178 4863 
L 1178 4134 
L 603 4134 
L 603 4863 
z
" id="DejaVuSans-6a" transform="scale(0.015625)"/>
      <path d="M 1159 525 
L 1159 -1331 
L 581 -1331 
L 581 3500 
L 1159 3500 
L 1159 2969 
Q 1341 3281 1617 3432 
Q 1894 3584 2278 3584 
Q 2916 3584 3314 3078 
Q 3713 2572 3713 1747 
Q 3713 922 3314 415 
Q 2916 -91 2278 -91 
Q 1894 -91 1617 61 
Q 1341 213 1159 525 
z
M 3116 1747 
Q 3116 2381 2855 2742 
Q 2594 3103 2138 3103 
Q 1681 3103 1420 2742 
Q 1159 2381 1159 1747 
Q 1159 1113 1420 752 
Q 1681 391 2138 391 
Q 2594 391 2855 752 
Q 3116 1113 3116 1747 
z
" id="DejaVuSans-70" transform="scale(0.015625)"/>
      <path d="M 313 2009 
L 1997 2009 
L 1997 1497 
L 313 1497 
L 313 2009 
z
" id="DejaVuSans-2d" transform="scale(0.015625)"/>
      <path d="M 750 794 
L 1409 794 
L 1409 256 
L 897 -744 
L 494 -744 
L 750 256 
L 750 794 
z
" id="DejaVuSans-2c" transform="scale(0.015625)"/>
      <path d="M 2834 3397 
L 2834 2853 
Q 2591 2978 2328 3040 
Q 2066 3103 1784 3103 
Q 1356 3103 1142 2972 
Q 928 2841 928 2578 
Q 928 2378 1081 2264 
Q 1234 2150 1697 2047 
L 1894 2003 
Q 2506 1872 2764 1633 
Q 3022 1394 3022 966 
Q 3022 478 2636 193 
Q 2250 -91 1575 -91 
Q 1294 -91 989 -36 
Q 684 19 347 128 
L 347 722 
Q 666 556 975 473 
Q 1284 391 1588 391 
Q 1994 391 2212 530 
Q 2431 669 2431 922 
Q 2431 1156 2273 1281 
Q 2116 1406 1581 1522 
L 1381 1569 
Q 847 1681 609 1914 
Q 372 2147 372 2553 
Q 372 3047 722 3315 
Q 1072 3584 1716 3584 
Q 2034 3584 2315 3537 
Q 2597 3491 2834 3397 
z
" id="DejaVuSans-73" transform="scale(0.015625)"/>
      <path d="M 1625 4666 
L 2156 4666 
L 531 -594 
L 0 -594 
L 1625 4666 
z
" id="DejaVuSans-2f" transform="scale(0.015625)"/>
      <path d="M 2375 4863 
L 2375 4384 
L 1825 4384 
Q 1516 4384 1395 4259 
Q 1275 4134 1275 3809 
L 1275 3500 
L 2222 3500 
L 2222 3053 
L 1275 3053 
L 1275 0 
L 697 0 
L 697 3053 
L 147 3053 
L 147 3500 
L 697 3500 
L 697 3744 
Q 697 4328 969 4595 
Q 1241 4863 1831 4863 
L 2375 4863 
z
" id="DejaVuSans-66" transform="scale(0.015625)"/>
      <path d="M 353 3500 
L 3084 3500 
L 3084 2975 
L 922 459 
L 3084 459 
L 3084 0 
L 275 0 
L 275 525 
L 2438 3041 
L 353 3041 
L 353 3500 
z
" id="DejaVuSans-7a" transform="scale(0.015625)"/>
     </defs>
     <use xlink:href="#DejaVuSans-6c"/>
     <use x="27.783203" xlink:href="#DejaVuSans-69"/>
     <use x="55.566406" xlink:href="#DejaVuSans-62"/>
     <use x="119.042969" xlink:href="#DejaVuSans-6a"/>
     <use x="146.826172" xlink:href="#DejaVuSans-70"/>
     <use x="210.302734" xlink:href="#DejaVuSans-65"/>
     <use x="271.826172" xlink:href="#DejaVuSans-67"/>
     <use x="335.302734" xlink:href="#DejaVuSans-2d"/>
     <use x="371.386719" xlink:href="#DejaVuSans-74"/>
     <use x="410.595703" xlink:href="#DejaVuSans-75"/>
     <use x="473.974609" xlink:href="#DejaVuSans-72"/>
     <use x="515.087891" xlink:href="#DejaVuSans-62"/>
     <use x="578.564453" xlink:href="#DejaVuSans-6f"/>
     <use x="641.621094" xlink:href="#DejaVuSans-2d"/>
     <use x="677.705078" xlink:href="#DejaVuSans-30"/>
     <use x="741.328125" xlink:href="#DejaVuSans-37"/>
     <use x="804.951172" xlink:href="#DejaVuSans-2d"/>
     <use x="841.035156" xlink:href="#DejaVuSans-32"/>
     <use x="904.658203" xlink:href="#DejaVuSans-30"/>
     <use x="968.28125" xlink:href="#DejaVuSans-31"/>
     <use x="1031.904297" xlink:href="#DejaVuSans-37"/>
     <use x="1095.527344" xlink:href="#DejaVuSans-20"/>
     <use x="1127.314453" xlink:href="#DejaVuSans-28"/>
     <use x="1166.328125" xlink:href="#DejaVuSans-31"/>
     <use x="1229.951172" xlink:href="#DejaVuSans-39"/>
     <use x="1293.574219" xlink:href="#DejaVuSans-68"/>
     <use x="1356.953125" xlink:href="#DejaVuSans-3a"/>
     <use x="1390.644531" xlink:href="#DejaVuSans-33"/>
     <use x="1454.267578" xlink:href="#DejaVuSans-30"/>
     <use x="1517.890625" xlink:href="#DejaVuSans-6d"/>
     <use x="1615.302734" xlink:href="#DejaVuSans-2c"/>
     <use x="1647.089844" xlink:href="#DejaVuSans-20"/>
     <use x="1678.876953" xlink:href="#DejaVuSans-33"/>
     <use x="1742.5" xlink:href="#DejaVuSans-20"/>
     <use x="1774.287109" xlink:href="#DejaVuSans-74"/>
     <use x="1813.496094" xlink:href="#DejaVuSans-72"/>
     <use x="1854.609375" xlink:href="#DejaVuSans-69"/>
     <use x="1882.392578" xlink:href="#DejaVuSans-61"/>
     <use x="1943.671875" xlink:href="#DejaVuSans-6c"/>
     <use x="1971.455078" xlink:href="#DejaVuSans-73"/>
     <use x="2023.554688" xlink:href="#DejaVuSans-2f"/>
     <use x="2057.246094" xlink:href="#DejaVuSans-66"/>
     <use x="2092.451172" xlink:href="#DejaVuSans-75"/>
     <use x="2155.830078" xlink:href="#DejaVuSans-7a"/>
     <use x="2208.320312" xlink:href="#DejaVuSans-7a"/>
     <use x="2260.810547" xlink:href="#DejaVuSans-65"/>
     <use x="2322.333984" xlink:href="#DejaVuSans-72"/>
     <use x="2363.447266" xlink:href="#DejaVuSans-29"/>
    </g>
   </g>
   <g id="legend_1">
    <g id="line2d_41">
     <path d="M 771.568125 30.416563 
L 791.568125 30.416563 
" style="fill:none;stroke:#1f77b4;stroke-linecap:square;stroke-width:1.5;"/>
    </g>
    <g id="line2d_42">
     <defs>
      <path d="M 0 3 
C 0.795609 3 1.55874 2.683901 2.12132 2.12132 
C 2.683901 1.55874 3 0.795609 3 0 
C 3 -0.795609 2.683901 -1.55874 2.12132 -2.12132 
C 1.55874 -2.683901 0.795609 -3 0 -3 
C -0.795609 -3 -1.55874 -2.683901 -2.12132 -2.12132 
C -2.683901 -1.55874 -3 -0.795609 -3 0 
C -3 0.795609 -2.683901 1.55874 -2.12132 2.12132 
C -1.55874 2.683901 -0.795609 3 0 3 
z
" id="md4b41c9b44" style="stroke:#1f77b4;"/>
     </defs>
     <g>
      <use style="fill:#1f77b4;stroke:#1f77b4;" x="781.568125" xlink:href="#md4b41c9b44" y="30.416563"/>
     </g>
    </g>
    <g id="text_23">
     <!-- r_increase_boost_inputs -->
     <g transform="translate(799.568125 33.916563)scale(0.1 -0.1)">
      <defs>
       <path d="M 3263 -1063 
L 3263 -1509 
L -63 -1509 
L -63 -1063 
L 3263 -1063 
z
" id="DejaVuSans-5f" transform="scale(0.015625)"/>
      </defs>
      <use xlink:href="#DejaVuSans-72"/>
      <use x="41.113281" xlink:href="#DejaVuSans-5f"/>
      <use x="91.113281" xlink:href="#DejaVuSans-69"/>
      <use x="118.896484" xlink:href="#DejaVuSans-6e"/>
      <use x="182.275391" xlink:href="#DejaVuSans-63"/>
      <use x="237.255859" xlink:href="#DejaVuSans-72"/>
      <use x="276.119141" xlink:href="#DejaVuSans-65"/>
      <use x="337.642578" xlink:href="#DejaVuSans-61"/>
      <use x="398.921875" xlink:href="#DejaVuSans-73"/>
      <use x="451.021484" xlink:href="#DejaVuSans-65"/>
      <use x="512.544922" xlink:href="#DejaVuSans-5f"/>
      <use x="562.544922" xlink:href="#DejaVuSans-62"/>
      <use x="626.021484" xlink:href="#DejaVuSans-6f"/>
      <use x="687.203125" xlink:href="#DejaVuSans-6f"/>
      <use x="748.384766" xlink:href="#DejaVuSans-73"/>
      <use x="800.484375" xlink:href="#DejaVuSans-74"/>
      <use x="839.693359" xlink:href="#DejaVuSans-5f"/>
      <use x="889.693359" xlink:href="#DejaVuSans-69"/>
      <use x="917.476562" xlink:href="#DejaVuSans-6e"/>
      <use x="980.855469" xlink:href="#DejaVuSans-70"/>
      <use x="1044.332031" xlink:href="#DejaVuSans-75"/>
      <use x="1107.710938" xlink:href="#DejaVuSans-74"/>
      <use x="1146.919922" xlink:href="#DejaVuSans-73"/>
     </g>
    </g>
    <g id="line2d_43">
     <path d="M 771.568125 45.372813 
L 791.568125 45.372813 
" style="fill:none;stroke:#98df8a;stroke-linecap:square;stroke-width:1.5;"/>
    </g>
    <g id="line2d_44">
     <defs>
      <path d="M -0 3 
L 3 -3 
L -3 -3 
z
" id="mdabee359f3" style="stroke:#98df8a;stroke-linejoin:miter;"/>
     </defs>
     <g>
      <use style="fill:#98df8a;stroke:#98df8a;stroke-linejoin:miter;" x="781.568125" xlink:href="#mdabee359f3" y="45.372813"/>
     </g>
    </g>
    <g id="text_24">
     <!-- r_new_increase_boost_fast_seqs -->
     <g transform="translate(799.568125 48.872813)scale(0.1 -0.1)">
      <defs>
       <path d="M 269 3500 
L 844 3500 
L 1563 769 
L 2278 3500 
L 2956 3500 
L 3675 769 
L 4391 3500 
L 4966 3500 
L 4050 0 
L 3372 0 
L 2619 2869 
L 1863 0 
L 1184 0 
L 269 3500 
z
" id="DejaVuSans-77" transform="scale(0.015625)"/>
       <path d="M 947 1747 
Q 947 1113 1208 752 
Q 1469 391 1925 391 
Q 2381 391 2643 752 
Q 2906 1113 2906 1747 
Q 2906 2381 2643 2742 
Q 2381 3103 1925 3103 
Q 1469 3103 1208 2742 
Q 947 2381 947 1747 
z
M 2906 525 
Q 2725 213 2448 61 
Q 2172 -91 1784 -91 
Q 1150 -91 751 415 
Q 353 922 353 1747 
Q 353 2572 751 3078 
Q 1150 3584 1784 3584 
Q 2172 3584 2448 3432 
Q 2725 3281 2906 2969 
L 2906 3500 
L 3481 3500 
L 3481 -1331 
L 2906 -1331 
L 2906 525 
z
" id="DejaVuSans-71" transform="scale(0.015625)"/>
      </defs>
      <use xlink:href="#DejaVuSans-72"/>
      <use x="41.113281" xlink:href="#DejaVuSans-5f"/>
      <use x="91.113281" xlink:href="#DejaVuSans-6e"/>
      <use x="154.492188" xlink:href="#DejaVuSans-65"/>
      <use x="216.015625" xlink:href="#DejaVuSans-77"/>
      <use x="297.802734" xlink:href="#DejaVuSans-5f"/>
      <use x="347.802734" xlink:href="#DejaVuSans-69"/>
      <use x="375.585938" xlink:href="#DejaVuSans-6e"/>
      <use x="438.964844" xlink:href="#DejaVuSans-63"/>
      <use x="493.945312" xlink:href="#DejaVuSans-72"/>
      <use x="532.808594" xlink:href="#DejaVuSans-65"/>
      <use x="594.332031" xlink:href="#DejaVuSans-61"/>
      <use x="655.611328" xlink:href="#DejaVuSans-73"/>
      <use x="707.710938" xlink:href="#DejaVuSans-65"/>
      <use x="769.234375" xlink:href="#DejaVuSans-5f"/>
      <use x="819.234375" xlink:href="#DejaVuSans-62"/>
      <use x="882.710938" xlink:href="#DejaVuSans-6f"/>
      <use x="943.892578" xlink:href="#DejaVuSans-6f"/>
      <use x="1005.074219" xlink:href="#DejaVuSans-73"/>
      <use x="1057.173828" xlink:href="#DejaVuSans-74"/>
      <use x="1096.382812" xlink:href="#DejaVuSans-5f"/>
      <use x="1146.382812" xlink:href="#DejaVuSans-66"/>
      <use x="1181.587891" xlink:href="#DejaVuSans-61"/>
      <use x="1242.867188" xlink:href="#DejaVuSans-73"/>
      <use x="1294.966797" xlink:href="#DejaVuSans-74"/>
      <use x="1334.175781" xlink:href="#DejaVuSans-5f"/>
      <use x="1384.175781" xlink:href="#DejaVuSans-73"/>
      <use x="1436.275391" xlink:href="#DejaVuSans-65"/>
      <use x="1497.798828" xlink:href="#DejaVuSans-71"/>
      <use x="1561.275391" xlink:href="#DejaVuSans-73"/>
     </g>
    </g>
   </g>
  </g>
 </g>
 <defs>
  <clipPath id="p0fd39b236e">
   <rect height="266.112" width="714.24" x="53.328125" y="22.318125"/>
  </clipPath>
 </defs>
</svg>
