<?xml version="1.0" encoding="utf-8" standalone="no"?>
<!DOCTYPE svg PUBLIC "-//W3C//DTD SVG 1.1//EN"
  "http://www.w3.org/Graphics/SVG/1.1/DTD/svg11.dtd">
<svg height="325.986375pt" version="1.1" viewBox="0 0 864.541562 325.986375" width="864.541562pt" xmlns="http://www.w3.org/2000/svg" xmlns:xlink="http://www.w3.org/1999/xlink">
 <metadata>
  <rdf:RDF xmlns:cc="http://creativecommons.org/ns#" xmlns:dc="http://purl.org/dc/elements/1.1/" xmlns:rdf="http://www.w3.org/1999/02/22-rdf-syntax-ns#">
   <cc:Work>
    <dc:type rdf:resource="http://purl.org/dc/dcmitype/StillImage"/>
    <dc:date>2022-06-11T16:56:56.075847</dc:date>
    <dc:format>image/svg+xml</dc:format>
    <dc:creator>
     <cc:Agent>
      <dc:title>Matplotlib v3.4.1, https://matplotlib.org/</dc:title>
     </cc:Agent>
    </dc:creator>
   </cc:Work>
  </rdf:RDF>
 </metadata>
 <defs>
  <style type="text/css">*{stroke-linecap:butt;stroke-linejoin:round;}</style>
 </defs>
 <g id="figure_1">
  <g id="patch_1">
   <path d="M 0 325.986375 
L 864.541562 325.986375 
L 864.541562 0 
L 0 0 
z
" style="fill:#ffffff;"/>
  </g>
  <g id="axes_1">
   <g id="patch_2">
    <path d="M 53.328125 288.430125 
L 767.568125 288.430125 
L 767.568125 22.318125 
L 53.328125 22.318125 
z
" style="fill:#ffffff;"/>
   </g>
   <g id="PolyCollection_1">
    <defs>
     <path d="M 85.79358 -141.373575 
L 85.79358 -134.764833 
L 92.628412 -139.97172 
L 99.463245 -192.941786 
L 106.298077 -194.543906 
L 113.13291 -195.645363 
L 119.967742 -195.645363 
L 126.802575 -195.645363 
L 133.637407 -195.645363 
L 140.47224 -198.749469 
L 147.307072 -204.657283 
L 154.141905 -204.642263 
L 160.976737 -204.256753 
L 167.81157 -214.069733 
L 174.646403 -215.827058 
L 181.481235 -215.872118 
L 188.316068 -214.470263 
L 195.1509 -215.771985 
L 201.985733 -216.673177 
L 208.820565 -217.273972 
L 215.655398 -217.273972 
L 222.49023 -217.273972 
L 229.325063 -217.273972 
L 236.159895 -217.273972 
L 242.994728 -217.273972 
L 249.82956 -218.675826 
L 256.664393 -218.675826 
L 263.499225 -217.674502 
L 270.334058 -218.675826 
L 277.168891 -218.675826 
L 284.003723 -218.675826 
L 290.838556 -219.877416 
L 297.673388 -221.079005 
L 304.508221 -222.881389 
L 311.343053 -281.458873 
L 318.177886 -281.458873 
L 325.012718 -281.959535 
L 331.847551 -281.959535 
L 338.682383 -281.959535 
L 345.517216 -281.559005 
L 352.352048 -281.559005 
L 359.186881 -281.959535 
L 366.021714 -282.1598 
L 372.856546 -282.1598 
L 379.691379 -282.1598 
L 386.526211 -282.760594 
L 393.361044 -282.760594 
L 400.195876 -282.660462 
L 407.030709 -282.660462 
L 413.865541 -282.758091 
L 420.700374 -282.460197 
L 427.535206 -282.660462 
L 434.370039 -282.460197 
L 441.204871 -282.760594 
L 448.039704 -282.758091 
L 454.874536 -282.460197 
L 461.709369 -282.660462 
L 468.544202 -283.161124 
L 475.379034 -283.161124 
L 482.213867 -282.660462 
L 489.048699 -283.161124 
L 495.883532 -283.161124 
L 502.718364 -282.660462 
L 509.553197 -283.161124 
L 516.388029 -282.660462 
L 523.222862 -283.161124 
L 530.057694 -283.148608 
L 536.892527 -283.161124 
L 543.727359 -282.660462 
L 550.562192 -282.660462 
L 557.397025 -283.161124 
L 564.231857 -282.660462 
L 571.06669 -282.660462 
L 577.901522 -282.660462 
L 584.736355 -283.161124 
L 591.571187 -282.660462 
L 598.40602 -282.660462 
L 605.240852 -282.860727 
L 612.075685 -282.860727 
L 618.910517 -283.161124 
L 625.74535 -283.161124 
L 632.580182 -283.060992 
L 639.415015 -283.060992 
L 646.249847 -283.158621 
L 653.08468 -283.161124 
L 659.919513 -283.353879 
L 666.754345 -283.361389 
L 673.589178 -283.353879 
L 680.42401 -283.060992 
L 687.258843 -283.060992 
L 694.093675 -283.361389 
L 700.928508 -283.361389 
L 707.76334 -283.060992 
L 714.598173 -283.261257 
L 721.433005 -283.261257 
L 728.267838 -283.261257 
L 735.10267 -283.261257 
L 735.10267 -291.57225 
L 735.10267 -291.57225 
L 728.267838 -291.57225 
L 721.433005 -291.57225 
L 714.598173 -291.57225 
L 707.76334 -291.57225 
L 700.928508 -291.57225 
L 694.093675 -291.57225 
L 687.258843 -291.57225 
L 680.42401 -291.57225 
L 673.589178 -291.57225 
L 666.754345 -291.57225 
L 659.919513 -291.57225 
L 653.08468 -291.57225 
L 646.249847 -291.57225 
L 639.415015 -291.57225 
L 632.580182 -291.57225 
L 625.74535 -291.57225 
L 618.910517 -291.57225 
L 612.075685 -291.57225 
L 605.240852 -290.871323 
L 598.40602 -290.77119 
L 591.571187 -290.773694 
L 584.736355 -290.871323 
L 577.901522 -290.871323 
L 571.06669 -290.170396 
L 564.231857 -290.170396 
L 557.397025 -290.170396 
L 550.562192 -290.170396 
L 543.727359 -290.175402 
L 536.892527 -290.170396 
L 530.057694 -290.170396 
L 523.222862 -290.170396 
L 516.388029 -290.170396 
L 509.553197 -290.170396 
L 502.718364 -290.270528 
L 495.883532 -290.170396 
L 489.048699 -290.170396 
L 482.213867 -290.170396 
L 475.379034 -290.170396 
L 468.544202 -290.170396 
L 461.709369 -289.769866 
L 454.874536 -289.769866 
L 448.039704 -289.769866 
L 441.204871 -289.769866 
L 434.370039 -289.769866 
L 427.535206 -289.769866 
L 420.700374 -289.774873 
L 413.865541 -289.769866 
L 407.030709 -288.368012 
L 400.195876 -288.468144 
L 393.361044 -288.568276 
L 386.526211 -288.568276 
L 379.691379 -287.867349 
L 372.856546 -287.266555 
L 366.021714 -287.867349 
L 359.186881 -287.281575 
L 352.352048 -287.166422 
L 345.517216 -287.867349 
L 338.682383 -287.867349 
L 331.847551 -287.867349 
L 325.012718 -288.167747 
L 318.177886 -285.764568 
L 311.343053 -286.165098 
L 304.508221 -285.764568 
L 297.673388 -285.764568 
L 290.838556 -284.162449 
L 284.003723 -283.361389 
L 277.168891 -283.761919 
L 270.334058 -282.460197 
L 263.499225 -282.560329 
L 256.664393 -282.460197 
L 249.82956 -281.959535 
L 242.994728 -281.959535 
L 236.159895 -281.659137 
L 229.325063 -281.35874 
L 222.49023 -281.35874 
L 215.655398 -281.35874 
L 208.820565 -281.35874 
L 201.985733 -281.35874 
L 195.1509 -281.35874 
L 188.316068 -281.058343 
L 181.481235 -280.95821 
L 174.646403 -280.55768 
L 167.81157 -280.757945 
L 160.976737 -280.357416 
L 154.141905 -280.357416 
L 147.307072 -280.157151 
L 140.47224 -279.155826 
L 133.637407 -268.742051 
L 126.802575 -256.726157 
L 119.967742 -255.524568 
L 113.13291 -254.923773 
L 106.298077 -243.809071 
L 99.463245 -214.675535 
L 92.628412 -168.209071 
L 85.79358 -141.373575 
z
" id="m2d56daa00a" style="stroke:#1f77b4;stroke-opacity:0.2;"/>
    </defs>
    <g clip-path="url(#p9fa436d077)">
     <use style="fill:#1f77b4;fill-opacity:0.2;stroke:#1f77b4;stroke-opacity:0.2;" x="0" xlink:href="#m2d56daa00a" y="325.986375"/>
    </g>
   </g>
   <g id="PolyCollection_2">
    <defs>
     <path d="M 85.79358 -125.775442 
L 85.79358 -49.65225 
L 92.628412 -55.454925 
L 99.463245 -89.805363 
L 106.298077 -121.647482 
L 113.13291 -135.766157 
L 119.967742 -135.966422 
L 126.802575 -139.57119 
L 133.637407 -139.671323 
L 140.47224 -139.97172 
L 147.307072 -141.373575 
L 154.141905 -141.373575 
L 160.976737 -141.371071 
L 167.81157 -141.573839 
L 174.646403 -142.174634 
L 181.481235 -144.277416 
L 188.316068 -144.577813 
L 195.1509 -144.577813 
L 201.985733 -144.577813 
L 208.820565 -146.380197 
L 215.655398 -146.280065 
L 222.49023 -146.260038 
L 229.325063 -146.280065 
L 236.159895 -146.380197 
L 242.994728 -146.780727 
L 249.82956 -146.680594 
L 256.664393 -146.780727 
L 263.499225 -146.780727 
L 270.334058 -147.581786 
L 277.168891 -147.581786 
L 284.003723 -147.581786 
L 290.838556 -153.789998 
L 297.673388 -153.789998 
L 304.508221 -155.592382 
L 311.343053 -162.000859 
L 318.177886 -162.601654 
L 325.012718 -162.601654 
L 331.847551 -163.002184 
L 338.682383 -162.601654 
L 345.517216 -162.601654 
L 352.352048 -162.699283 
L 359.186881 -162.601654 
L 366.021714 -162.601654 
L 372.856546 -163.202449 
L 379.691379 -162.601654 
L 386.526211 -163.192435 
L 393.361044 -162.601654 
L 400.195876 -162.601654 
L 407.030709 -162.601654 
L 413.865541 -162.801919 
L 420.700374 -162.801919 
L 427.535206 -162.801919 
L 434.370039 -163.202449 
L 441.204871 -162.801919 
L 448.039704 -163.202449 
L 454.874536 -162.801919 
L 461.709369 -162.801919 
L 468.544202 -162.801919 
L 475.379034 -162.801919 
L 482.213867 -163.102316 
L 489.048699 -164.203773 
L 495.883532 -163.102316 
L 502.718364 -164.176237 
L 509.553197 -163.502846 
L 516.388029 -164.203773 
L 523.222862 -163.903376 
L 530.057694 -164.203773 
L 536.892527 -164.9047 
L 543.727359 -165.405363 
L 550.562192 -164.902197 
L 557.397025 -165.405363 
L 564.231857 -165.004833 
L 571.06669 -165.004833 
L 577.901522 -167.608276 
L 584.736355 -166.406687 
L 591.571187 -166.406687 
L 598.40602 -168.008806 
L 605.240852 -168.008806 
L 612.075685 -168.008806 
L 618.910517 -168.008806 
L 625.74535 -168.008806 
L 632.580182 -167.608276 
L 639.415015 -168.008806 
L 646.249847 -168.008806 
L 653.08468 -168.008806 
L 659.919513 -168.008806 
L 666.754345 -168.008806 
L 673.589178 -168.008806 
L 680.42401 -176.019402 
L 687.258843 -190.438475 
L 694.093675 -192.841654 
L 700.928508 -192.841654 
L 707.76334 -192.841654 
L 714.598173 -192.841654 
L 721.433005 -192.841654 
L 728.267838 -192.841654 
L 735.10267 -192.841654 
L 735.10267 -280.95821 
L 735.10267 -280.95821 
L 728.267838 -280.757945 
L 721.433005 -280.757945 
L 714.598173 -280.757945 
L 707.76334 -280.757945 
L 700.928508 -280.757945 
L 694.093675 -280.760449 
L 687.258843 -280.757945 
L 680.42401 -280.757945 
L 673.589178 -280.757945 
L 666.754345 -280.757945 
L 659.919513 -280.757945 
L 653.08468 -280.757945 
L 646.249847 -280.757945 
L 639.415015 -280.757945 
L 632.580182 -280.757945 
L 625.74535 -280.757945 
L 618.910517 -280.757945 
L 612.075685 -280.757945 
L 605.240852 -280.757945 
L 598.40602 -280.757945 
L 591.571187 -280.757945 
L 584.736355 -280.757945 
L 577.901522 -280.757945 
L 571.06669 -280.757945 
L 564.231857 -280.757945 
L 557.397025 -280.757945 
L 550.562192 -280.757945 
L 543.727359 -280.757945 
L 536.892527 -280.858078 
L 530.057694 -280.757945 
L 523.222862 -280.757945 
L 516.388029 -280.757945 
L 509.553197 -280.757945 
L 502.718364 -280.757945 
L 495.883532 -280.757945 
L 489.048699 -280.757945 
L 482.213867 -280.357416 
L 475.379034 -280.357416 
L 468.544202 -280.357416 
L 461.709369 -280.357416 
L 454.874536 -280.357416 
L 448.039704 -280.357416 
L 441.204871 -280.357416 
L 434.370039 -280.55768 
L 427.535206 -280.357416 
L 420.700374 -280.55768 
L 413.865541 -279.956886 
L 407.030709 -279.956886 
L 400.195876 -279.956886 
L 393.361044 -279.956886 
L 386.526211 -279.956886 
L 379.691379 -279.956886 
L 372.856546 -265.980899 
L 366.021714 -260.53119 
L 359.186881 -253.922449 
L 352.352048 -253.922449 
L 345.517216 -255.424435 
L 338.682383 -253.321654 
L 331.847551 -239.002714 
L 325.012718 -220.277945 
L 318.177886 -217.474237 
L 311.343053 -226.98682 
L 304.508221 -217.173839 
L 297.673388 -220.678475 
L 290.838556 -208.061786 
L 284.003723 -208.161919 
L 277.168891 -208.06429 
L 270.334058 -207.761389 
L 263.499225 -207.761389 
L 256.664393 -207.463495 
L 249.82956 -207.561124 
L 242.994728 -195.845627 
L 236.159895 -182.628144 
L 229.325063 -161.600329 
L 222.49023 -182.227614 
L 215.655398 -180.42523 
L 208.820565 -181.927217 
L 201.985733 -178.222316 
L 195.1509 -166.907349 
L 188.316068 -164.203773 
L 181.481235 -151.987614 
L 174.646403 -144.87821 
L 167.81157 -144.87821 
L 160.976737 -144.87821 
L 154.141905 -143.984528 
L 147.307072 -143.178462 
L 140.47224 -142.675296 
L 133.637407 -142.274767 
L 126.802575 -142.274767 
L 119.967742 -141.774104 
L 113.13291 -141.373575 
L 106.298077 -140.572515 
L 99.463245 -138.369601 
L 92.628412 -138.369601 
L 85.79358 -125.775442 
z
" id="m85f9b52626" style="stroke:#98df8a;stroke-opacity:0.2;"/>
    </defs>
    <g clip-path="url(#p9fa436d077)">
     <use style="fill:#98df8a;fill-opacity:0.2;stroke:#98df8a;stroke-opacity:0.2;" x="0" xlink:href="#m85f9b52626" y="325.986375"/>
    </g>
   </g>
   <g id="matplotlib.axis_1">
    <g id="xtick_1">
     <g id="line2d_1">
      <defs>
       <path d="M 0 0 
L 0 3.5 
" id="ma94223a34b" style="stroke:#000000;stroke-width:0.8;"/>
      </defs>
      <g>
       <use style="stroke:#000000;stroke-width:0.8;" x="85.79358" xlink:href="#ma94223a34b" y="288.430125"/>
      </g>
     </g>
     <g id="text_1">
      <!-- 15m -->
      <g transform="translate(74.560767 303.028562)scale(0.1 -0.1)">
       <defs>
        <path d="M 794 531 
L 1825 531 
L 1825 4091 
L 703 3866 
L 703 4441 
L 1819 4666 
L 2450 4666 
L 2450 531 
L 3481 531 
L 3481 0 
L 794 0 
L 794 531 
z
" id="DejaVuSans-31" transform="scale(0.015625)"/>
        <path d="M 691 4666 
L 3169 4666 
L 3169 4134 
L 1269 4134 
L 1269 2991 
Q 1406 3038 1543 3061 
Q 1681 3084 1819 3084 
Q 2600 3084 3056 2656 
Q 3513 2228 3513 1497 
Q 3513 744 3044 326 
Q 2575 -91 1722 -91 
Q 1428 -91 1123 -41 
Q 819 9 494 109 
L 494 744 
Q 775 591 1075 516 
Q 1375 441 1709 441 
Q 2250 441 2565 725 
Q 2881 1009 2881 1497 
Q 2881 1984 2565 2268 
Q 2250 2553 1709 2553 
Q 1456 2553 1204 2497 
Q 953 2441 691 2322 
L 691 4666 
z
" id="DejaVuSans-35" transform="scale(0.015625)"/>
        <path d="M 3328 2828 
Q 3544 3216 3844 3400 
Q 4144 3584 4550 3584 
Q 5097 3584 5394 3201 
Q 5691 2819 5691 2113 
L 5691 0 
L 5113 0 
L 5113 2094 
Q 5113 2597 4934 2840 
Q 4756 3084 4391 3084 
Q 3944 3084 3684 2787 
Q 3425 2491 3425 1978 
L 3425 0 
L 2847 0 
L 2847 2094 
Q 2847 2600 2669 2842 
Q 2491 3084 2119 3084 
Q 1678 3084 1418 2786 
Q 1159 2488 1159 1978 
L 1159 0 
L 581 0 
L 581 3500 
L 1159 3500 
L 1159 2956 
Q 1356 3278 1631 3431 
Q 1906 3584 2284 3584 
Q 2666 3584 2933 3390 
Q 3200 3197 3328 2828 
z
" id="DejaVuSans-6d" transform="scale(0.015625)"/>
       </defs>
       <use xlink:href="#DejaVuSans-31"/>
       <use x="63.623047" xlink:href="#DejaVuSans-35"/>
       <use x="127.246094" xlink:href="#DejaVuSans-6d"/>
      </g>
     </g>
    </g>
    <g id="xtick_2">
     <g id="line2d_2">
      <g>
       <use style="stroke:#000000;stroke-width:0.8;" x="140.47224" xlink:href="#ma94223a34b" y="288.430125"/>
      </g>
     </g>
     <g id="text_2">
      <!-- 2h:15m -->
      <g transform="translate(121.205052 303.028562)scale(0.1 -0.1)">
       <defs>
        <path d="M 1228 531 
L 3431 531 
L 3431 0 
L 469 0 
L 469 531 
Q 828 903 1448 1529 
Q 2069 2156 2228 2338 
Q 2531 2678 2651 2914 
Q 2772 3150 2772 3378 
Q 2772 3750 2511 3984 
Q 2250 4219 1831 4219 
Q 1534 4219 1204 4116 
Q 875 4013 500 3803 
L 500 4441 
Q 881 4594 1212 4672 
Q 1544 4750 1819 4750 
Q 2544 4750 2975 4387 
Q 3406 4025 3406 3419 
Q 3406 3131 3298 2873 
Q 3191 2616 2906 2266 
Q 2828 2175 2409 1742 
Q 1991 1309 1228 531 
z
" id="DejaVuSans-32" transform="scale(0.015625)"/>
        <path d="M 3513 2113 
L 3513 0 
L 2938 0 
L 2938 2094 
Q 2938 2591 2744 2837 
Q 2550 3084 2163 3084 
Q 1697 3084 1428 2787 
Q 1159 2491 1159 1978 
L 1159 0 
L 581 0 
L 581 4863 
L 1159 4863 
L 1159 2956 
Q 1366 3272 1645 3428 
Q 1925 3584 2291 3584 
Q 2894 3584 3203 3211 
Q 3513 2838 3513 2113 
z
" id="DejaVuSans-68" transform="scale(0.015625)"/>
        <path d="M 750 794 
L 1409 794 
L 1409 0 
L 750 0 
L 750 794 
z
M 750 3309 
L 1409 3309 
L 1409 2516 
L 750 2516 
L 750 3309 
z
" id="DejaVuSans-3a" transform="scale(0.015625)"/>
       </defs>
       <use xlink:href="#DejaVuSans-32"/>
       <use x="63.623047" xlink:href="#DejaVuSans-68"/>
       <use x="127.001953" xlink:href="#DejaVuSans-3a"/>
       <use x="160.693359" xlink:href="#DejaVuSans-31"/>
       <use x="224.316406" xlink:href="#DejaVuSans-35"/>
       <use x="287.939453" xlink:href="#DejaVuSans-6d"/>
      </g>
     </g>
    </g>
    <g id="xtick_3">
     <g id="line2d_3">
      <g>
       <use style="stroke:#000000;stroke-width:0.8;" x="195.1509" xlink:href="#ma94223a34b" y="288.430125"/>
      </g>
     </g>
     <g id="text_3">
      <!-- 4h:15m -->
      <g transform="translate(175.883713 303.028562)scale(0.1 -0.1)">
       <defs>
        <path d="M 2419 4116 
L 825 1625 
L 2419 1625 
L 2419 4116 
z
M 2253 4666 
L 3047 4666 
L 3047 1625 
L 3713 1625 
L 3713 1100 
L 3047 1100 
L 3047 0 
L 2419 0 
L 2419 1100 
L 313 1100 
L 313 1709 
L 2253 4666 
z
" id="DejaVuSans-34" transform="scale(0.015625)"/>
       </defs>
       <use xlink:href="#DejaVuSans-34"/>
       <use x="63.623047" xlink:href="#DejaVuSans-68"/>
       <use x="127.001953" xlink:href="#DejaVuSans-3a"/>
       <use x="160.693359" xlink:href="#DejaVuSans-31"/>
       <use x="224.316406" xlink:href="#DejaVuSans-35"/>
       <use x="287.939453" xlink:href="#DejaVuSans-6d"/>
      </g>
     </g>
    </g>
    <g id="xtick_4">
     <g id="line2d_4">
      <g>
       <use style="stroke:#000000;stroke-width:0.8;" x="249.82956" xlink:href="#ma94223a34b" y="288.430125"/>
      </g>
     </g>
     <g id="text_4">
      <!-- 6h:15m -->
      <g transform="translate(230.562373 303.028562)scale(0.1 -0.1)">
       <defs>
        <path d="M 2113 2584 
Q 1688 2584 1439 2293 
Q 1191 2003 1191 1497 
Q 1191 994 1439 701 
Q 1688 409 2113 409 
Q 2538 409 2786 701 
Q 3034 994 3034 1497 
Q 3034 2003 2786 2293 
Q 2538 2584 2113 2584 
z
M 3366 4563 
L 3366 3988 
Q 3128 4100 2886 4159 
Q 2644 4219 2406 4219 
Q 1781 4219 1451 3797 
Q 1122 3375 1075 2522 
Q 1259 2794 1537 2939 
Q 1816 3084 2150 3084 
Q 2853 3084 3261 2657 
Q 3669 2231 3669 1497 
Q 3669 778 3244 343 
Q 2819 -91 2113 -91 
Q 1303 -91 875 529 
Q 447 1150 447 2328 
Q 447 3434 972 4092 
Q 1497 4750 2381 4750 
Q 2619 4750 2861 4703 
Q 3103 4656 3366 4563 
z
" id="DejaVuSans-36" transform="scale(0.015625)"/>
       </defs>
       <use xlink:href="#DejaVuSans-36"/>
       <use x="63.623047" xlink:href="#DejaVuSans-68"/>
       <use x="127.001953" xlink:href="#DejaVuSans-3a"/>
       <use x="160.693359" xlink:href="#DejaVuSans-31"/>
       <use x="224.316406" xlink:href="#DejaVuSans-35"/>
       <use x="287.939453" xlink:href="#DejaVuSans-6d"/>
      </g>
     </g>
    </g>
    <g id="xtick_5">
     <g id="line2d_5">
      <g>
       <use style="stroke:#000000;stroke-width:0.8;" x="304.508221" xlink:href="#ma94223a34b" y="288.430125"/>
      </g>
     </g>
     <g id="text_5">
      <!-- 8h:15m -->
      <g transform="translate(285.241033 303.028562)scale(0.1 -0.1)">
       <defs>
        <path d="M 2034 2216 
Q 1584 2216 1326 1975 
Q 1069 1734 1069 1313 
Q 1069 891 1326 650 
Q 1584 409 2034 409 
Q 2484 409 2743 651 
Q 3003 894 3003 1313 
Q 3003 1734 2745 1975 
Q 2488 2216 2034 2216 
z
M 1403 2484 
Q 997 2584 770 2862 
Q 544 3141 544 3541 
Q 544 4100 942 4425 
Q 1341 4750 2034 4750 
Q 2731 4750 3128 4425 
Q 3525 4100 3525 3541 
Q 3525 3141 3298 2862 
Q 3072 2584 2669 2484 
Q 3125 2378 3379 2068 
Q 3634 1759 3634 1313 
Q 3634 634 3220 271 
Q 2806 -91 2034 -91 
Q 1263 -91 848 271 
Q 434 634 434 1313 
Q 434 1759 690 2068 
Q 947 2378 1403 2484 
z
M 1172 3481 
Q 1172 3119 1398 2916 
Q 1625 2713 2034 2713 
Q 2441 2713 2670 2916 
Q 2900 3119 2900 3481 
Q 2900 3844 2670 4047 
Q 2441 4250 2034 4250 
Q 1625 4250 1398 4047 
Q 1172 3844 1172 3481 
z
" id="DejaVuSans-38" transform="scale(0.015625)"/>
       </defs>
       <use xlink:href="#DejaVuSans-38"/>
       <use x="63.623047" xlink:href="#DejaVuSans-68"/>
       <use x="127.001953" xlink:href="#DejaVuSans-3a"/>
       <use x="160.693359" xlink:href="#DejaVuSans-31"/>
       <use x="224.316406" xlink:href="#DejaVuSans-35"/>
       <use x="287.939453" xlink:href="#DejaVuSans-6d"/>
      </g>
     </g>
    </g>
    <g id="xtick_6">
     <g id="line2d_6">
      <g>
       <use style="stroke:#000000;stroke-width:0.8;" x="359.186881" xlink:href="#ma94223a34b" y="288.430125"/>
      </g>
     </g>
     <g id="text_6">
      <!-- 10h:15m -->
      <g transform="translate(336.738443 303.028562)scale(0.1 -0.1)">
       <defs>
        <path d="M 2034 4250 
Q 1547 4250 1301 3770 
Q 1056 3291 1056 2328 
Q 1056 1369 1301 889 
Q 1547 409 2034 409 
Q 2525 409 2770 889 
Q 3016 1369 3016 2328 
Q 3016 3291 2770 3770 
Q 2525 4250 2034 4250 
z
M 2034 4750 
Q 2819 4750 3233 4129 
Q 3647 3509 3647 2328 
Q 3647 1150 3233 529 
Q 2819 -91 2034 -91 
Q 1250 -91 836 529 
Q 422 1150 422 2328 
Q 422 3509 836 4129 
Q 1250 4750 2034 4750 
z
" id="DejaVuSans-30" transform="scale(0.015625)"/>
       </defs>
       <use xlink:href="#DejaVuSans-31"/>
       <use x="63.623047" xlink:href="#DejaVuSans-30"/>
       <use x="127.246094" xlink:href="#DejaVuSans-68"/>
       <use x="190.625" xlink:href="#DejaVuSans-3a"/>
       <use x="224.316406" xlink:href="#DejaVuSans-31"/>
       <use x="287.939453" xlink:href="#DejaVuSans-35"/>
       <use x="351.5625" xlink:href="#DejaVuSans-6d"/>
      </g>
     </g>
    </g>
    <g id="xtick_7">
     <g id="line2d_7">
      <g>
       <use style="stroke:#000000;stroke-width:0.8;" x="413.865541" xlink:href="#ma94223a34b" y="288.430125"/>
      </g>
     </g>
     <g id="text_7">
      <!-- 12h:15m -->
      <g transform="translate(391.417104 303.028562)scale(0.1 -0.1)">
       <use xlink:href="#DejaVuSans-31"/>
       <use x="63.623047" xlink:href="#DejaVuSans-32"/>
       <use x="127.246094" xlink:href="#DejaVuSans-68"/>
       <use x="190.625" xlink:href="#DejaVuSans-3a"/>
       <use x="224.316406" xlink:href="#DejaVuSans-31"/>
       <use x="287.939453" xlink:href="#DejaVuSans-35"/>
       <use x="351.5625" xlink:href="#DejaVuSans-6d"/>
      </g>
     </g>
    </g>
    <g id="xtick_8">
     <g id="line2d_8">
      <g>
       <use style="stroke:#000000;stroke-width:0.8;" x="468.544202" xlink:href="#ma94223a34b" y="288.430125"/>
      </g>
     </g>
     <g id="text_8">
      <!-- 14h:15m -->
      <g transform="translate(446.095764 303.028562)scale(0.1 -0.1)">
       <use xlink:href="#DejaVuSans-31"/>
       <use x="63.623047" xlink:href="#DejaVuSans-34"/>
       <use x="127.246094" xlink:href="#DejaVuSans-68"/>
       <use x="190.625" xlink:href="#DejaVuSans-3a"/>
       <use x="224.316406" xlink:href="#DejaVuSans-31"/>
       <use x="287.939453" xlink:href="#DejaVuSans-35"/>
       <use x="351.5625" xlink:href="#DejaVuSans-6d"/>
      </g>
     </g>
    </g>
    <g id="xtick_9">
     <g id="line2d_9">
      <g>
       <use style="stroke:#000000;stroke-width:0.8;" x="523.222862" xlink:href="#ma94223a34b" y="288.430125"/>
      </g>
     </g>
     <g id="text_9">
      <!-- 16h:15m -->
      <g transform="translate(500.774424 303.028562)scale(0.1 -0.1)">
       <use xlink:href="#DejaVuSans-31"/>
       <use x="63.623047" xlink:href="#DejaVuSans-36"/>
       <use x="127.246094" xlink:href="#DejaVuSans-68"/>
       <use x="190.625" xlink:href="#DejaVuSans-3a"/>
       <use x="224.316406" xlink:href="#DejaVuSans-31"/>
       <use x="287.939453" xlink:href="#DejaVuSans-35"/>
       <use x="351.5625" xlink:href="#DejaVuSans-6d"/>
      </g>
     </g>
    </g>
    <g id="xtick_10">
     <g id="line2d_10">
      <g>
       <use style="stroke:#000000;stroke-width:0.8;" x="577.901522" xlink:href="#ma94223a34b" y="288.430125"/>
      </g>
     </g>
     <g id="text_10">
      <!-- 18h:15m -->
      <g transform="translate(555.453085 303.028562)scale(0.1 -0.1)">
       <use xlink:href="#DejaVuSans-31"/>
       <use x="63.623047" xlink:href="#DejaVuSans-38"/>
       <use x="127.246094" xlink:href="#DejaVuSans-68"/>
       <use x="190.625" xlink:href="#DejaVuSans-3a"/>
       <use x="224.316406" xlink:href="#DejaVuSans-31"/>
       <use x="287.939453" xlink:href="#DejaVuSans-35"/>
       <use x="351.5625" xlink:href="#DejaVuSans-6d"/>
      </g>
     </g>
    </g>
    <g id="xtick_11">
     <g id="line2d_11">
      <g>
       <use style="stroke:#000000;stroke-width:0.8;" x="632.580182" xlink:href="#ma94223a34b" y="288.430125"/>
      </g>
     </g>
     <g id="text_11">
      <!-- 20h:15m -->
      <g transform="translate(610.131745 303.028562)scale(0.1 -0.1)">
       <use xlink:href="#DejaVuSans-32"/>
       <use x="63.623047" xlink:href="#DejaVuSans-30"/>
       <use x="127.246094" xlink:href="#DejaVuSans-68"/>
       <use x="190.625" xlink:href="#DejaVuSans-3a"/>
       <use x="224.316406" xlink:href="#DejaVuSans-31"/>
       <use x="287.939453" xlink:href="#DejaVuSans-35"/>
       <use x="351.5625" xlink:href="#DejaVuSans-6d"/>
      </g>
     </g>
    </g>
    <g id="xtick_12">
     <g id="line2d_12">
      <g>
       <use style="stroke:#000000;stroke-width:0.8;" x="687.258843" xlink:href="#ma94223a34b" y="288.430125"/>
      </g>
     </g>
     <g id="text_12">
      <!-- 22h:15m -->
      <g transform="translate(664.810405 303.028562)scale(0.1 -0.1)">
       <use xlink:href="#DejaVuSans-32"/>
       <use x="63.623047" xlink:href="#DejaVuSans-32"/>
       <use x="127.246094" xlink:href="#DejaVuSans-68"/>
       <use x="190.625" xlink:href="#DejaVuSans-3a"/>
       <use x="224.316406" xlink:href="#DejaVuSans-31"/>
       <use x="287.939453" xlink:href="#DejaVuSans-35"/>
       <use x="351.5625" xlink:href="#DejaVuSans-6d"/>
      </g>
     </g>
    </g>
    <g id="text_13">
     <!-- Time (hour:minute) -->
     <g transform="translate(362.041094 316.706687)scale(0.1 -0.1)">
      <defs>
       <path d="M -19 4666 
L 3928 4666 
L 3928 4134 
L 2272 4134 
L 2272 0 
L 1638 0 
L 1638 4134 
L -19 4134 
L -19 4666 
z
" id="DejaVuSans-54" transform="scale(0.015625)"/>
       <path d="M 603 3500 
L 1178 3500 
L 1178 0 
L 603 0 
L 603 3500 
z
M 603 4863 
L 1178 4863 
L 1178 4134 
L 603 4134 
L 603 4863 
z
" id="DejaVuSans-69" transform="scale(0.015625)"/>
       <path d="M 3597 1894 
L 3597 1613 
L 953 1613 
Q 991 1019 1311 708 
Q 1631 397 2203 397 
Q 2534 397 2845 478 
Q 3156 559 3463 722 
L 3463 178 
Q 3153 47 2828 -22 
Q 2503 -91 2169 -91 
Q 1331 -91 842 396 
Q 353 884 353 1716 
Q 353 2575 817 3079 
Q 1281 3584 2069 3584 
Q 2775 3584 3186 3129 
Q 3597 2675 3597 1894 
z
M 3022 2063 
Q 3016 2534 2758 2815 
Q 2500 3097 2075 3097 
Q 1594 3097 1305 2825 
Q 1016 2553 972 2059 
L 3022 2063 
z
" id="DejaVuSans-65" transform="scale(0.015625)"/>
       <path id="DejaVuSans-20" transform="scale(0.015625)"/>
       <path d="M 1984 4856 
Q 1566 4138 1362 3434 
Q 1159 2731 1159 2009 
Q 1159 1288 1364 580 
Q 1569 -128 1984 -844 
L 1484 -844 
Q 1016 -109 783 600 
Q 550 1309 550 2009 
Q 550 2706 781 3412 
Q 1013 4119 1484 4856 
L 1984 4856 
z
" id="DejaVuSans-28" transform="scale(0.015625)"/>
       <path d="M 1959 3097 
Q 1497 3097 1228 2736 
Q 959 2375 959 1747 
Q 959 1119 1226 758 
Q 1494 397 1959 397 
Q 2419 397 2687 759 
Q 2956 1122 2956 1747 
Q 2956 2369 2687 2733 
Q 2419 3097 1959 3097 
z
M 1959 3584 
Q 2709 3584 3137 3096 
Q 3566 2609 3566 1747 
Q 3566 888 3137 398 
Q 2709 -91 1959 -91 
Q 1206 -91 779 398 
Q 353 888 353 1747 
Q 353 2609 779 3096 
Q 1206 3584 1959 3584 
z
" id="DejaVuSans-6f" transform="scale(0.015625)"/>
       <path d="M 544 1381 
L 544 3500 
L 1119 3500 
L 1119 1403 
Q 1119 906 1312 657 
Q 1506 409 1894 409 
Q 2359 409 2629 706 
Q 2900 1003 2900 1516 
L 2900 3500 
L 3475 3500 
L 3475 0 
L 2900 0 
L 2900 538 
Q 2691 219 2414 64 
Q 2138 -91 1772 -91 
Q 1169 -91 856 284 
Q 544 659 544 1381 
z
M 1991 3584 
L 1991 3584 
z
" id="DejaVuSans-75" transform="scale(0.015625)"/>
       <path d="M 2631 2963 
Q 2534 3019 2420 3045 
Q 2306 3072 2169 3072 
Q 1681 3072 1420 2755 
Q 1159 2438 1159 1844 
L 1159 0 
L 581 0 
L 581 3500 
L 1159 3500 
L 1159 2956 
Q 1341 3275 1631 3429 
Q 1922 3584 2338 3584 
Q 2397 3584 2469 3576 
Q 2541 3569 2628 3553 
L 2631 2963 
z
" id="DejaVuSans-72" transform="scale(0.015625)"/>
       <path d="M 3513 2113 
L 3513 0 
L 2938 0 
L 2938 2094 
Q 2938 2591 2744 2837 
Q 2550 3084 2163 3084 
Q 1697 3084 1428 2787 
Q 1159 2491 1159 1978 
L 1159 0 
L 581 0 
L 581 3500 
L 1159 3500 
L 1159 2956 
Q 1366 3272 1645 3428 
Q 1925 3584 2291 3584 
Q 2894 3584 3203 3211 
Q 3513 2838 3513 2113 
z
" id="DejaVuSans-6e" transform="scale(0.015625)"/>
       <path d="M 1172 4494 
L 1172 3500 
L 2356 3500 
L 2356 3053 
L 1172 3053 
L 1172 1153 
Q 1172 725 1289 603 
Q 1406 481 1766 481 
L 2356 481 
L 2356 0 
L 1766 0 
Q 1100 0 847 248 
Q 594 497 594 1153 
L 594 3053 
L 172 3053 
L 172 3500 
L 594 3500 
L 594 4494 
L 1172 4494 
z
" id="DejaVuSans-74" transform="scale(0.015625)"/>
       <path d="M 513 4856 
L 1013 4856 
Q 1481 4119 1714 3412 
Q 1947 2706 1947 2009 
Q 1947 1309 1714 600 
Q 1481 -109 1013 -844 
L 513 -844 
Q 928 -128 1133 580 
Q 1338 1288 1338 2009 
Q 1338 2731 1133 3434 
Q 928 4138 513 4856 
z
" id="DejaVuSans-29" transform="scale(0.015625)"/>
      </defs>
      <use xlink:href="#DejaVuSans-54"/>
      <use x="57.958984" xlink:href="#DejaVuSans-69"/>
      <use x="85.742188" xlink:href="#DejaVuSans-6d"/>
      <use x="183.154297" xlink:href="#DejaVuSans-65"/>
      <use x="244.677734" xlink:href="#DejaVuSans-20"/>
      <use x="276.464844" xlink:href="#DejaVuSans-28"/>
      <use x="315.478516" xlink:href="#DejaVuSans-68"/>
      <use x="378.857422" xlink:href="#DejaVuSans-6f"/>
      <use x="440.039062" xlink:href="#DejaVuSans-75"/>
      <use x="503.417969" xlink:href="#DejaVuSans-72"/>
      <use x="542.78125" xlink:href="#DejaVuSans-3a"/>
      <use x="576.472656" xlink:href="#DejaVuSans-6d"/>
      <use x="673.884766" xlink:href="#DejaVuSans-69"/>
      <use x="701.667969" xlink:href="#DejaVuSans-6e"/>
      <use x="765.046875" xlink:href="#DejaVuSans-75"/>
      <use x="828.425781" xlink:href="#DejaVuSans-74"/>
      <use x="867.634766" xlink:href="#DejaVuSans-65"/>
      <use x="929.158203" xlink:href="#DejaVuSans-29"/>
     </g>
    </g>
   </g>
   <g id="matplotlib.axis_2">
    <g id="ytick_1">
     <g id="line2d_13">
      <defs>
       <path d="M 0 0 
L -3.5 0 
" id="m5161f10035" style="stroke:#000000;stroke-width:0.8;"/>
      </defs>
      <g>
       <use style="stroke:#000000;stroke-width:0.8;" x="53.328125" xlink:href="#m5161f10035" y="275.933595"/>
      </g>
     </g>
     <g id="text_14">
      <!-- 2600 -->
      <g transform="translate(20.878125 279.732814)scale(0.1 -0.1)">
       <use xlink:href="#DejaVuSans-32"/>
       <use x="63.623047" xlink:href="#DejaVuSans-36"/>
       <use x="127.246094" xlink:href="#DejaVuSans-30"/>
       <use x="190.869141" xlink:href="#DejaVuSans-30"/>
      </g>
     </g>
    </g>
    <g id="ytick_2">
     <g id="line2d_14">
      <g>
       <use style="stroke:#000000;stroke-width:0.8;" x="53.328125" xlink:href="#m5161f10035" y="235.880615"/>
      </g>
     </g>
     <g id="text_15">
      <!-- 2800 -->
      <g transform="translate(20.878125 239.679834)scale(0.1 -0.1)">
       <use xlink:href="#DejaVuSans-32"/>
       <use x="63.623047" xlink:href="#DejaVuSans-38"/>
       <use x="127.246094" xlink:href="#DejaVuSans-30"/>
       <use x="190.869141" xlink:href="#DejaVuSans-30"/>
      </g>
     </g>
    </g>
    <g id="ytick_3">
     <g id="line2d_15">
      <g>
       <use style="stroke:#000000;stroke-width:0.8;" x="53.328125" xlink:href="#m5161f10035" y="195.827635"/>
      </g>
     </g>
     <g id="text_16">
      <!-- 3000 -->
      <g transform="translate(20.878125 199.626854)scale(0.1 -0.1)">
       <defs>
        <path d="M 2597 2516 
Q 3050 2419 3304 2112 
Q 3559 1806 3559 1356 
Q 3559 666 3084 287 
Q 2609 -91 1734 -91 
Q 1441 -91 1130 -33 
Q 819 25 488 141 
L 488 750 
Q 750 597 1062 519 
Q 1375 441 1716 441 
Q 2309 441 2620 675 
Q 2931 909 2931 1356 
Q 2931 1769 2642 2001 
Q 2353 2234 1838 2234 
L 1294 2234 
L 1294 2753 
L 1863 2753 
Q 2328 2753 2575 2939 
Q 2822 3125 2822 3475 
Q 2822 3834 2567 4026 
Q 2313 4219 1838 4219 
Q 1578 4219 1281 4162 
Q 984 4106 628 3988 
L 628 4550 
Q 988 4650 1302 4700 
Q 1616 4750 1894 4750 
Q 2613 4750 3031 4423 
Q 3450 4097 3450 3541 
Q 3450 3153 3228 2886 
Q 3006 2619 2597 2516 
z
" id="DejaVuSans-33" transform="scale(0.015625)"/>
       </defs>
       <use xlink:href="#DejaVuSans-33"/>
       <use x="63.623047" xlink:href="#DejaVuSans-30"/>
       <use x="127.246094" xlink:href="#DejaVuSans-30"/>
       <use x="190.869141" xlink:href="#DejaVuSans-30"/>
      </g>
     </g>
    </g>
    <g id="ytick_4">
     <g id="line2d_16">
      <g>
       <use style="stroke:#000000;stroke-width:0.8;" x="53.328125" xlink:href="#m5161f10035" y="155.774655"/>
      </g>
     </g>
     <g id="text_17">
      <!-- 3200 -->
      <g transform="translate(20.878125 159.573874)scale(0.1 -0.1)">
       <use xlink:href="#DejaVuSans-33"/>
       <use x="63.623047" xlink:href="#DejaVuSans-32"/>
       <use x="127.246094" xlink:href="#DejaVuSans-30"/>
       <use x="190.869141" xlink:href="#DejaVuSans-30"/>
      </g>
     </g>
    </g>
    <g id="ytick_5">
     <g id="line2d_17">
      <g>
       <use style="stroke:#000000;stroke-width:0.8;" x="53.328125" xlink:href="#m5161f10035" y="115.721675"/>
      </g>
     </g>
     <g id="text_18">
      <!-- 3400 -->
      <g transform="translate(20.878125 119.520893)scale(0.1 -0.1)">
       <use xlink:href="#DejaVuSans-33"/>
       <use x="63.623047" xlink:href="#DejaVuSans-34"/>
       <use x="127.246094" xlink:href="#DejaVuSans-30"/>
       <use x="190.869141" xlink:href="#DejaVuSans-30"/>
      </g>
     </g>
    </g>
    <g id="ytick_6">
     <g id="line2d_18">
      <g>
       <use style="stroke:#000000;stroke-width:0.8;" x="53.328125" xlink:href="#m5161f10035" y="75.668695"/>
      </g>
     </g>
     <g id="text_19">
      <!-- 3600 -->
      <g transform="translate(20.878125 79.467913)scale(0.1 -0.1)">
       <use xlink:href="#DejaVuSans-33"/>
       <use x="63.623047" xlink:href="#DejaVuSans-36"/>
       <use x="127.246094" xlink:href="#DejaVuSans-30"/>
       <use x="190.869141" xlink:href="#DejaVuSans-30"/>
      </g>
     </g>
    </g>
    <g id="ytick_7">
     <g id="line2d_19">
      <g>
       <use style="stroke:#000000;stroke-width:0.8;" x="53.328125" xlink:href="#m5161f10035" y="35.615714"/>
      </g>
     </g>
     <g id="text_20">
      <!-- 3800 -->
      <g transform="translate(20.878125 39.414933)scale(0.1 -0.1)">
       <use xlink:href="#DejaVuSans-33"/>
       <use x="63.623047" xlink:href="#DejaVuSans-38"/>
       <use x="127.246094" xlink:href="#DejaVuSans-30"/>
       <use x="190.869141" xlink:href="#DejaVuSans-30"/>
      </g>
     </g>
    </g>
    <g id="text_21">
     <!-- Code branch coverage -->
     <g transform="translate(14.798438 211.949125)rotate(-90)scale(0.1 -0.1)">
      <defs>
       <path d="M 4122 4306 
L 4122 3641 
Q 3803 3938 3442 4084 
Q 3081 4231 2675 4231 
Q 1875 4231 1450 3742 
Q 1025 3253 1025 2328 
Q 1025 1406 1450 917 
Q 1875 428 2675 428 
Q 3081 428 3442 575 
Q 3803 722 4122 1019 
L 4122 359 
Q 3791 134 3420 21 
Q 3050 -91 2638 -91 
Q 1578 -91 968 557 
Q 359 1206 359 2328 
Q 359 3453 968 4101 
Q 1578 4750 2638 4750 
Q 3056 4750 3426 4639 
Q 3797 4528 4122 4306 
z
" id="DejaVuSans-43" transform="scale(0.015625)"/>
       <path d="M 2906 2969 
L 2906 4863 
L 3481 4863 
L 3481 0 
L 2906 0 
L 2906 525 
Q 2725 213 2448 61 
Q 2172 -91 1784 -91 
Q 1150 -91 751 415 
Q 353 922 353 1747 
Q 353 2572 751 3078 
Q 1150 3584 1784 3584 
Q 2172 3584 2448 3432 
Q 2725 3281 2906 2969 
z
M 947 1747 
Q 947 1113 1208 752 
Q 1469 391 1925 391 
Q 2381 391 2643 752 
Q 2906 1113 2906 1747 
Q 2906 2381 2643 2742 
Q 2381 3103 1925 3103 
Q 1469 3103 1208 2742 
Q 947 2381 947 1747 
z
" id="DejaVuSans-64" transform="scale(0.015625)"/>
       <path d="M 3116 1747 
Q 3116 2381 2855 2742 
Q 2594 3103 2138 3103 
Q 1681 3103 1420 2742 
Q 1159 2381 1159 1747 
Q 1159 1113 1420 752 
Q 1681 391 2138 391 
Q 2594 391 2855 752 
Q 3116 1113 3116 1747 
z
M 1159 2969 
Q 1341 3281 1617 3432 
Q 1894 3584 2278 3584 
Q 2916 3584 3314 3078 
Q 3713 2572 3713 1747 
Q 3713 922 3314 415 
Q 2916 -91 2278 -91 
Q 1894 -91 1617 61 
Q 1341 213 1159 525 
L 1159 0 
L 581 0 
L 581 4863 
L 1159 4863 
L 1159 2969 
z
" id="DejaVuSans-62" transform="scale(0.015625)"/>
       <path d="M 2194 1759 
Q 1497 1759 1228 1600 
Q 959 1441 959 1056 
Q 959 750 1161 570 
Q 1363 391 1709 391 
Q 2188 391 2477 730 
Q 2766 1069 2766 1631 
L 2766 1759 
L 2194 1759 
z
M 3341 1997 
L 3341 0 
L 2766 0 
L 2766 531 
Q 2569 213 2275 61 
Q 1981 -91 1556 -91 
Q 1019 -91 701 211 
Q 384 513 384 1019 
Q 384 1609 779 1909 
Q 1175 2209 1959 2209 
L 2766 2209 
L 2766 2266 
Q 2766 2663 2505 2880 
Q 2244 3097 1772 3097 
Q 1472 3097 1187 3025 
Q 903 2953 641 2809 
L 641 3341 
Q 956 3463 1253 3523 
Q 1550 3584 1831 3584 
Q 2591 3584 2966 3190 
Q 3341 2797 3341 1997 
z
" id="DejaVuSans-61" transform="scale(0.015625)"/>
       <path d="M 3122 3366 
L 3122 2828 
Q 2878 2963 2633 3030 
Q 2388 3097 2138 3097 
Q 1578 3097 1268 2742 
Q 959 2388 959 1747 
Q 959 1106 1268 751 
Q 1578 397 2138 397 
Q 2388 397 2633 464 
Q 2878 531 3122 666 
L 3122 134 
Q 2881 22 2623 -34 
Q 2366 -91 2075 -91 
Q 1284 -91 818 406 
Q 353 903 353 1747 
Q 353 2603 823 3093 
Q 1294 3584 2113 3584 
Q 2378 3584 2631 3529 
Q 2884 3475 3122 3366 
z
" id="DejaVuSans-63" transform="scale(0.015625)"/>
       <path d="M 191 3500 
L 800 3500 
L 1894 563 
L 2988 3500 
L 3597 3500 
L 2284 0 
L 1503 0 
L 191 3500 
z
" id="DejaVuSans-76" transform="scale(0.015625)"/>
       <path d="M 2906 1791 
Q 2906 2416 2648 2759 
Q 2391 3103 1925 3103 
Q 1463 3103 1205 2759 
Q 947 2416 947 1791 
Q 947 1169 1205 825 
Q 1463 481 1925 481 
Q 2391 481 2648 825 
Q 2906 1169 2906 1791 
z
M 3481 434 
Q 3481 -459 3084 -895 
Q 2688 -1331 1869 -1331 
Q 1566 -1331 1297 -1286 
Q 1028 -1241 775 -1147 
L 775 -588 
Q 1028 -725 1275 -790 
Q 1522 -856 1778 -856 
Q 2344 -856 2625 -561 
Q 2906 -266 2906 331 
L 2906 616 
Q 2728 306 2450 153 
Q 2172 0 1784 0 
Q 1141 0 747 490 
Q 353 981 353 1791 
Q 353 2603 747 3093 
Q 1141 3584 1784 3584 
Q 2172 3584 2450 3431 
Q 2728 3278 2906 2969 
L 2906 3500 
L 3481 3500 
L 3481 434 
z
" id="DejaVuSans-67" transform="scale(0.015625)"/>
      </defs>
      <use xlink:href="#DejaVuSans-43"/>
      <use x="69.824219" xlink:href="#DejaVuSans-6f"/>
      <use x="131.005859" xlink:href="#DejaVuSans-64"/>
      <use x="194.482422" xlink:href="#DejaVuSans-65"/>
      <use x="256.005859" xlink:href="#DejaVuSans-20"/>
      <use x="287.792969" xlink:href="#DejaVuSans-62"/>
      <use x="351.269531" xlink:href="#DejaVuSans-72"/>
      <use x="392.382812" xlink:href="#DejaVuSans-61"/>
      <use x="453.662109" xlink:href="#DejaVuSans-6e"/>
      <use x="517.041016" xlink:href="#DejaVuSans-63"/>
      <use x="572.021484" xlink:href="#DejaVuSans-68"/>
      <use x="635.400391" xlink:href="#DejaVuSans-20"/>
      <use x="667.1875" xlink:href="#DejaVuSans-63"/>
      <use x="722.167969" xlink:href="#DejaVuSans-6f"/>
      <use x="783.349609" xlink:href="#DejaVuSans-76"/>
      <use x="842.529297" xlink:href="#DejaVuSans-65"/>
      <use x="904.052734" xlink:href="#DejaVuSans-72"/>
      <use x="945.166016" xlink:href="#DejaVuSans-61"/>
      <use x="1006.445312" xlink:href="#DejaVuSans-67"/>
      <use x="1069.921875" xlink:href="#DejaVuSans-65"/>
     </g>
    </g>
   </g>
   <g id="line2d_20">
    <path clip-path="url(#p9fa436d077)" d="M 85.79358 185.714257 
L 92.628412 184.012006 
L 99.463245 132.143397 
L 106.298077 129.039291 
L 113.13291 115.221012 
L 119.967742 114.820483 
L 126.802575 114.820483 
L 133.637407 113.018099 
L 140.47224 112.717701 
L 147.307072 111.01545 
L 154.141905 110.314522 
L 160.976737 110.314522 
L 167.81157 46.530151 
L 174.646403 46.229754 
L 181.481235 45.929357 
L 188.316068 45.729092 
L 195.1509 45.428695 
L 201.985733 45.428695 
L 208.820565 45.428695 
L 215.655398 45.428695 
L 222.49023 45.428695 
L 229.325063 45.428695 
L 236.159895 45.428695 
L 242.994728 45.428695 
L 249.82956 45.128297 
L 256.664393 45.028165 
L 263.499225 45.028165 
L 270.334058 45.028165 
L 277.168891 44.327238 
L 284.003723 44.327238 
L 290.838556 44.02684 
L 297.673388 44.02684 
L 304.508221 44.02684 
L 311.343053 42.124324 
L 318.177886 42.124324 
L 325.012718 42.124324 
L 331.847551 42.124324 
L 338.682383 42.124324 
L 345.517216 42.124324 
L 352.352048 42.024191 
L 359.186881 42.024191 
L 366.021714 42.024191 
L 372.856546 42.024191 
L 379.691379 42.024191 
L 386.526211 40.021542 
L 393.361044 40.021542 
L 400.195876 40.021542 
L 407.030709 39.621012 
L 413.865541 39.621012 
L 420.700374 39.621012 
L 427.535206 39.621012 
L 434.370039 39.621012 
L 441.204871 39.621012 
L 448.039704 39.621012 
L 454.874536 39.621012 
L 461.709369 39.621012 
L 468.544202 39.621012 
L 475.379034 39.621012 
L 482.213867 39.621012 
L 489.048699 39.420748 
L 495.883532 39.420748 
L 502.718364 39.420748 
L 509.553197 39.420748 
L 516.388029 39.420748 
L 523.222862 39.420748 
L 530.057694 39.420748 
L 536.892527 39.420748 
L 543.727359 39.420748 
L 550.562192 39.420748 
L 557.397025 39.420748 
L 564.231857 39.420748 
L 571.06669 39.420748 
L 577.901522 38.519555 
L 584.736355 38.519555 
L 591.571187 38.519555 
L 598.40602 38.419423 
L 605.240852 38.419423 
L 612.075685 38.419423 
L 618.910517 38.419423 
L 625.74535 38.419423 
L 632.580182 38.419423 
L 639.415015 38.419423 
L 646.249847 38.419423 
L 653.08468 38.419423 
L 659.919513 38.419423 
L 666.754345 38.419423 
L 673.589178 38.419423 
L 680.42401 38.419423 
L 687.258843 38.419423 
L 694.093675 38.419423 
L 700.928508 38.419423 
L 707.76334 38.419423 
L 714.598173 38.419423 
L 721.433005 38.419423 
L 728.267838 38.419423 
L 735.10267 38.419423 
" style="fill:none;stroke:#1f77b4;stroke-linecap:square;stroke-width:1.5;"/>
    <defs>
     <path d="M 0 3 
C 0.795609 3 1.55874 2.683901 2.12132 2.12132 
C 2.683901 1.55874 3 0.795609 3 0 
C 3 -0.795609 2.683901 -1.55874 2.12132 -2.12132 
C 1.55874 -2.683901 0.795609 -3 0 -3 
C -0.795609 -3 -1.55874 -2.683901 -2.12132 -2.12132 
C -2.683901 -1.55874 -3 -0.795609 -3 0 
C -3 0.795609 -2.683901 1.55874 -2.12132 2.12132 
C -1.55874 2.683901 -0.795609 3 0 3 
z
" id="m73fc6ebfba" style="stroke:#ffffff;stroke-width:0.75;"/>
    </defs>
    <g clip-path="url(#p9fa436d077)">
     <use style="fill:#1f77b4;stroke:#ffffff;stroke-width:0.75;" x="85.79358" xlink:href="#m73fc6ebfba" y="185.714257"/>
     <use style="fill:#1f77b4;stroke:#ffffff;stroke-width:0.75;" x="92.628412" xlink:href="#m73fc6ebfba" y="184.012006"/>
     <use style="fill:#1f77b4;stroke:#ffffff;stroke-width:0.75;" x="99.463245" xlink:href="#m73fc6ebfba" y="132.143397"/>
     <use style="fill:#1f77b4;stroke:#ffffff;stroke-width:0.75;" x="106.298077" xlink:href="#m73fc6ebfba" y="129.039291"/>
     <use style="fill:#1f77b4;stroke:#ffffff;stroke-width:0.75;" x="113.13291" xlink:href="#m73fc6ebfba" y="115.221012"/>
     <use style="fill:#1f77b4;stroke:#ffffff;stroke-width:0.75;" x="119.967742" xlink:href="#m73fc6ebfba" y="114.820483"/>
     <use style="fill:#1f77b4;stroke:#ffffff;stroke-width:0.75;" x="126.802575" xlink:href="#m73fc6ebfba" y="114.820483"/>
     <use style="fill:#1f77b4;stroke:#ffffff;stroke-width:0.75;" x="133.637407" xlink:href="#m73fc6ebfba" y="113.018099"/>
     <use style="fill:#1f77b4;stroke:#ffffff;stroke-width:0.75;" x="140.47224" xlink:href="#m73fc6ebfba" y="112.717701"/>
     <use style="fill:#1f77b4;stroke:#ffffff;stroke-width:0.75;" x="147.307072" xlink:href="#m73fc6ebfba" y="111.01545"/>
     <use style="fill:#1f77b4;stroke:#ffffff;stroke-width:0.75;" x="154.141905" xlink:href="#m73fc6ebfba" y="110.314522"/>
     <use style="fill:#1f77b4;stroke:#ffffff;stroke-width:0.75;" x="160.976737" xlink:href="#m73fc6ebfba" y="110.314522"/>
     <use style="fill:#1f77b4;stroke:#ffffff;stroke-width:0.75;" x="167.81157" xlink:href="#m73fc6ebfba" y="46.530151"/>
     <use style="fill:#1f77b4;stroke:#ffffff;stroke-width:0.75;" x="174.646403" xlink:href="#m73fc6ebfba" y="46.229754"/>
     <use style="fill:#1f77b4;stroke:#ffffff;stroke-width:0.75;" x="181.481235" xlink:href="#m73fc6ebfba" y="45.929357"/>
     <use style="fill:#1f77b4;stroke:#ffffff;stroke-width:0.75;" x="188.316068" xlink:href="#m73fc6ebfba" y="45.729092"/>
     <use style="fill:#1f77b4;stroke:#ffffff;stroke-width:0.75;" x="195.1509" xlink:href="#m73fc6ebfba" y="45.428695"/>
     <use style="fill:#1f77b4;stroke:#ffffff;stroke-width:0.75;" x="201.985733" xlink:href="#m73fc6ebfba" y="45.428695"/>
     <use style="fill:#1f77b4;stroke:#ffffff;stroke-width:0.75;" x="208.820565" xlink:href="#m73fc6ebfba" y="45.428695"/>
     <use style="fill:#1f77b4;stroke:#ffffff;stroke-width:0.75;" x="215.655398" xlink:href="#m73fc6ebfba" y="45.428695"/>
     <use style="fill:#1f77b4;stroke:#ffffff;stroke-width:0.75;" x="222.49023" xlink:href="#m73fc6ebfba" y="45.428695"/>
     <use style="fill:#1f77b4;stroke:#ffffff;stroke-width:0.75;" x="229.325063" xlink:href="#m73fc6ebfba" y="45.428695"/>
     <use style="fill:#1f77b4;stroke:#ffffff;stroke-width:0.75;" x="236.159895" xlink:href="#m73fc6ebfba" y="45.428695"/>
     <use style="fill:#1f77b4;stroke:#ffffff;stroke-width:0.75;" x="242.994728" xlink:href="#m73fc6ebfba" y="45.428695"/>
     <use style="fill:#1f77b4;stroke:#ffffff;stroke-width:0.75;" x="249.82956" xlink:href="#m73fc6ebfba" y="45.128297"/>
     <use style="fill:#1f77b4;stroke:#ffffff;stroke-width:0.75;" x="256.664393" xlink:href="#m73fc6ebfba" y="45.028165"/>
     <use style="fill:#1f77b4;stroke:#ffffff;stroke-width:0.75;" x="263.499225" xlink:href="#m73fc6ebfba" y="45.028165"/>
     <use style="fill:#1f77b4;stroke:#ffffff;stroke-width:0.75;" x="270.334058" xlink:href="#m73fc6ebfba" y="45.028165"/>
     <use style="fill:#1f77b4;stroke:#ffffff;stroke-width:0.75;" x="277.168891" xlink:href="#m73fc6ebfba" y="44.327238"/>
     <use style="fill:#1f77b4;stroke:#ffffff;stroke-width:0.75;" x="284.003723" xlink:href="#m73fc6ebfba" y="44.327238"/>
     <use style="fill:#1f77b4;stroke:#ffffff;stroke-width:0.75;" x="290.838556" xlink:href="#m73fc6ebfba" y="44.02684"/>
     <use style="fill:#1f77b4;stroke:#ffffff;stroke-width:0.75;" x="297.673388" xlink:href="#m73fc6ebfba" y="44.02684"/>
     <use style="fill:#1f77b4;stroke:#ffffff;stroke-width:0.75;" x="304.508221" xlink:href="#m73fc6ebfba" y="44.02684"/>
     <use style="fill:#1f77b4;stroke:#ffffff;stroke-width:0.75;" x="311.343053" xlink:href="#m73fc6ebfba" y="42.124324"/>
     <use style="fill:#1f77b4;stroke:#ffffff;stroke-width:0.75;" x="318.177886" xlink:href="#m73fc6ebfba" y="42.124324"/>
     <use style="fill:#1f77b4;stroke:#ffffff;stroke-width:0.75;" x="325.012718" xlink:href="#m73fc6ebfba" y="42.124324"/>
     <use style="fill:#1f77b4;stroke:#ffffff;stroke-width:0.75;" x="331.847551" xlink:href="#m73fc6ebfba" y="42.124324"/>
     <use style="fill:#1f77b4;stroke:#ffffff;stroke-width:0.75;" x="338.682383" xlink:href="#m73fc6ebfba" y="42.124324"/>
     <use style="fill:#1f77b4;stroke:#ffffff;stroke-width:0.75;" x="345.517216" xlink:href="#m73fc6ebfba" y="42.124324"/>
     <use style="fill:#1f77b4;stroke:#ffffff;stroke-width:0.75;" x="352.352048" xlink:href="#m73fc6ebfba" y="42.024191"/>
     <use style="fill:#1f77b4;stroke:#ffffff;stroke-width:0.75;" x="359.186881" xlink:href="#m73fc6ebfba" y="42.024191"/>
     <use style="fill:#1f77b4;stroke:#ffffff;stroke-width:0.75;" x="366.021714" xlink:href="#m73fc6ebfba" y="42.024191"/>
     <use style="fill:#1f77b4;stroke:#ffffff;stroke-width:0.75;" x="372.856546" xlink:href="#m73fc6ebfba" y="42.024191"/>
     <use style="fill:#1f77b4;stroke:#ffffff;stroke-width:0.75;" x="379.691379" xlink:href="#m73fc6ebfba" y="42.024191"/>
     <use style="fill:#1f77b4;stroke:#ffffff;stroke-width:0.75;" x="386.526211" xlink:href="#m73fc6ebfba" y="40.021542"/>
     <use style="fill:#1f77b4;stroke:#ffffff;stroke-width:0.75;" x="393.361044" xlink:href="#m73fc6ebfba" y="40.021542"/>
     <use style="fill:#1f77b4;stroke:#ffffff;stroke-width:0.75;" x="400.195876" xlink:href="#m73fc6ebfba" y="40.021542"/>
     <use style="fill:#1f77b4;stroke:#ffffff;stroke-width:0.75;" x="407.030709" xlink:href="#m73fc6ebfba" y="39.621012"/>
     <use style="fill:#1f77b4;stroke:#ffffff;stroke-width:0.75;" x="413.865541" xlink:href="#m73fc6ebfba" y="39.621012"/>
     <use style="fill:#1f77b4;stroke:#ffffff;stroke-width:0.75;" x="420.700374" xlink:href="#m73fc6ebfba" y="39.621012"/>
     <use style="fill:#1f77b4;stroke:#ffffff;stroke-width:0.75;" x="427.535206" xlink:href="#m73fc6ebfba" y="39.621012"/>
     <use style="fill:#1f77b4;stroke:#ffffff;stroke-width:0.75;" x="434.370039" xlink:href="#m73fc6ebfba" y="39.621012"/>
     <use style="fill:#1f77b4;stroke:#ffffff;stroke-width:0.75;" x="441.204871" xlink:href="#m73fc6ebfba" y="39.621012"/>
     <use style="fill:#1f77b4;stroke:#ffffff;stroke-width:0.75;" x="448.039704" xlink:href="#m73fc6ebfba" y="39.621012"/>
     <use style="fill:#1f77b4;stroke:#ffffff;stroke-width:0.75;" x="454.874536" xlink:href="#m73fc6ebfba" y="39.621012"/>
     <use style="fill:#1f77b4;stroke:#ffffff;stroke-width:0.75;" x="461.709369" xlink:href="#m73fc6ebfba" y="39.621012"/>
     <use style="fill:#1f77b4;stroke:#ffffff;stroke-width:0.75;" x="468.544202" xlink:href="#m73fc6ebfba" y="39.621012"/>
     <use style="fill:#1f77b4;stroke:#ffffff;stroke-width:0.75;" x="475.379034" xlink:href="#m73fc6ebfba" y="39.621012"/>
     <use style="fill:#1f77b4;stroke:#ffffff;stroke-width:0.75;" x="482.213867" xlink:href="#m73fc6ebfba" y="39.621012"/>
     <use style="fill:#1f77b4;stroke:#ffffff;stroke-width:0.75;" x="489.048699" xlink:href="#m73fc6ebfba" y="39.420748"/>
     <use style="fill:#1f77b4;stroke:#ffffff;stroke-width:0.75;" x="495.883532" xlink:href="#m73fc6ebfba" y="39.420748"/>
     <use style="fill:#1f77b4;stroke:#ffffff;stroke-width:0.75;" x="502.718364" xlink:href="#m73fc6ebfba" y="39.420748"/>
     <use style="fill:#1f77b4;stroke:#ffffff;stroke-width:0.75;" x="509.553197" xlink:href="#m73fc6ebfba" y="39.420748"/>
     <use style="fill:#1f77b4;stroke:#ffffff;stroke-width:0.75;" x="516.388029" xlink:href="#m73fc6ebfba" y="39.420748"/>
     <use style="fill:#1f77b4;stroke:#ffffff;stroke-width:0.75;" x="523.222862" xlink:href="#m73fc6ebfba" y="39.420748"/>
     <use style="fill:#1f77b4;stroke:#ffffff;stroke-width:0.75;" x="530.057694" xlink:href="#m73fc6ebfba" y="39.420748"/>
     <use style="fill:#1f77b4;stroke:#ffffff;stroke-width:0.75;" x="536.892527" xlink:href="#m73fc6ebfba" y="39.420748"/>
     <use style="fill:#1f77b4;stroke:#ffffff;stroke-width:0.75;" x="543.727359" xlink:href="#m73fc6ebfba" y="39.420748"/>
     <use style="fill:#1f77b4;stroke:#ffffff;stroke-width:0.75;" x="550.562192" xlink:href="#m73fc6ebfba" y="39.420748"/>
     <use style="fill:#1f77b4;stroke:#ffffff;stroke-width:0.75;" x="557.397025" xlink:href="#m73fc6ebfba" y="39.420748"/>
     <use style="fill:#1f77b4;stroke:#ffffff;stroke-width:0.75;" x="564.231857" xlink:href="#m73fc6ebfba" y="39.420748"/>
     <use style="fill:#1f77b4;stroke:#ffffff;stroke-width:0.75;" x="571.06669" xlink:href="#m73fc6ebfba" y="39.420748"/>
     <use style="fill:#1f77b4;stroke:#ffffff;stroke-width:0.75;" x="577.901522" xlink:href="#m73fc6ebfba" y="38.519555"/>
     <use style="fill:#1f77b4;stroke:#ffffff;stroke-width:0.75;" x="584.736355" xlink:href="#m73fc6ebfba" y="38.519555"/>
     <use style="fill:#1f77b4;stroke:#ffffff;stroke-width:0.75;" x="591.571187" xlink:href="#m73fc6ebfba" y="38.519555"/>
     <use style="fill:#1f77b4;stroke:#ffffff;stroke-width:0.75;" x="598.40602" xlink:href="#m73fc6ebfba" y="38.419423"/>
     <use style="fill:#1f77b4;stroke:#ffffff;stroke-width:0.75;" x="605.240852" xlink:href="#m73fc6ebfba" y="38.419423"/>
     <use style="fill:#1f77b4;stroke:#ffffff;stroke-width:0.75;" x="612.075685" xlink:href="#m73fc6ebfba" y="38.419423"/>
     <use style="fill:#1f77b4;stroke:#ffffff;stroke-width:0.75;" x="618.910517" xlink:href="#m73fc6ebfba" y="38.419423"/>
     <use style="fill:#1f77b4;stroke:#ffffff;stroke-width:0.75;" x="625.74535" xlink:href="#m73fc6ebfba" y="38.419423"/>
     <use style="fill:#1f77b4;stroke:#ffffff;stroke-width:0.75;" x="632.580182" xlink:href="#m73fc6ebfba" y="38.419423"/>
     <use style="fill:#1f77b4;stroke:#ffffff;stroke-width:0.75;" x="639.415015" xlink:href="#m73fc6ebfba" y="38.419423"/>
     <use style="fill:#1f77b4;stroke:#ffffff;stroke-width:0.75;" x="646.249847" xlink:href="#m73fc6ebfba" y="38.419423"/>
     <use style="fill:#1f77b4;stroke:#ffffff;stroke-width:0.75;" x="653.08468" xlink:href="#m73fc6ebfba" y="38.419423"/>
     <use style="fill:#1f77b4;stroke:#ffffff;stroke-width:0.75;" x="659.919513" xlink:href="#m73fc6ebfba" y="38.419423"/>
     <use style="fill:#1f77b4;stroke:#ffffff;stroke-width:0.75;" x="666.754345" xlink:href="#m73fc6ebfba" y="38.419423"/>
     <use style="fill:#1f77b4;stroke:#ffffff;stroke-width:0.75;" x="673.589178" xlink:href="#m73fc6ebfba" y="38.419423"/>
     <use style="fill:#1f77b4;stroke:#ffffff;stroke-width:0.75;" x="680.42401" xlink:href="#m73fc6ebfba" y="38.419423"/>
     <use style="fill:#1f77b4;stroke:#ffffff;stroke-width:0.75;" x="687.258843" xlink:href="#m73fc6ebfba" y="38.419423"/>
     <use style="fill:#1f77b4;stroke:#ffffff;stroke-width:0.75;" x="694.093675" xlink:href="#m73fc6ebfba" y="38.419423"/>
     <use style="fill:#1f77b4;stroke:#ffffff;stroke-width:0.75;" x="700.928508" xlink:href="#m73fc6ebfba" y="38.419423"/>
     <use style="fill:#1f77b4;stroke:#ffffff;stroke-width:0.75;" x="707.76334" xlink:href="#m73fc6ebfba" y="38.419423"/>
     <use style="fill:#1f77b4;stroke:#ffffff;stroke-width:0.75;" x="714.598173" xlink:href="#m73fc6ebfba" y="38.419423"/>
     <use style="fill:#1f77b4;stroke:#ffffff;stroke-width:0.75;" x="721.433005" xlink:href="#m73fc6ebfba" y="38.419423"/>
     <use style="fill:#1f77b4;stroke:#ffffff;stroke-width:0.75;" x="728.267838" xlink:href="#m73fc6ebfba" y="38.419423"/>
     <use style="fill:#1f77b4;stroke:#ffffff;stroke-width:0.75;" x="735.10267" xlink:href="#m73fc6ebfba" y="38.419423"/>
    </g>
   </g>
   <g id="line2d_21">
    <path clip-path="url(#p9fa436d077)" d="M 85.79358 272.02843 
L 92.628412 203.237436 
L 99.463245 201.73545 
L 106.298077 190.420483 
L 113.13291 185.914522 
L 119.967742 185.41386 
L 126.802575 185.213595 
L 133.637407 184.412536 
L 140.47224 184.412536 
L 147.307072 183.811741 
L 154.141905 183.811741 
L 160.976737 182.510019 
L 167.81157 182.309754 
L 174.646403 181.909224 
L 181.481235 181.30843 
L 188.316068 176.201675 
L 195.1509 174.499423 
L 201.985733 172.697039 
L 208.820565 171.795847 
L 215.655398 169.993463 
L 222.49023 167.790549 
L 229.325063 165.38737 
L 236.159895 164.686443 
L 242.994728 164.486178 
L 249.82956 164.285913 
L 256.664393 164.285913 
L 263.499225 164.285913 
L 270.334058 163.985516 
L 277.168891 163.685118 
L 284.003723 163.685118 
L 290.838556 163.685118 
L 297.673388 162.984191 
L 304.508221 153.972271 
L 311.343053 151.168562 
L 318.177886 143.458363 
L 325.012718 140.955052 
L 331.847551 140.754787 
L 338.682383 131.04194 
L 345.517216 130.841675 
L 352.352048 130.441145 
L 359.186881 130.441145 
L 366.021714 117.223661 
L 372.856546 117.223661 
L 379.691379 117.123529 
L 386.526211 117.123529 
L 393.361044 117.123529 
L 400.195876 117.123529 
L 407.030709 117.123529 
L 413.865541 116.322469 
L 420.700374 115.721675 
L 427.535206 115.721675 
L 434.370039 115.721675 
L 441.204871 115.421277 
L 448.039704 115.321145 
L 454.874536 115.321145 
L 461.709369 114.920615 
L 468.544202 114.920615 
L 475.379034 114.72035 
L 482.213867 114.72035 
L 489.048699 114.72035 
L 495.883532 114.72035 
L 502.718364 114.72035 
L 509.553197 114.72035 
L 516.388029 114.72035 
L 523.222862 114.620218 
L 530.057694 114.620218 
L 536.892527 114.620218 
L 543.727359 114.620218 
L 550.562192 114.620218 
L 557.397025 114.620218 
L 564.231857 114.620218 
L 571.06669 114.620218 
L 577.901522 111.415979 
L 584.736355 111.215714 
L 591.571187 111.01545 
L 598.40602 111.01545 
L 605.240852 99.19982 
L 612.075685 85.581807 
L 618.910517 84.780748 
L 625.74535 84.780748 
L 632.580182 69.861012 
L 639.415015 69.861012 
L 646.249847 69.861012 
L 653.08468 69.861012 
L 659.919513 69.861012 
L 666.754345 69.861012 
L 673.589178 69.861012 
L 680.42401 69.861012 
L 687.258843 69.861012 
L 694.093675 69.861012 
L 700.928508 67.958496 
L 707.76334 67.758231 
L 714.598173 67.557966 
L 721.433005 67.557966 
L 728.267838 63.352403 
L 735.10267 56.943926 
" style="fill:none;stroke:#98df8a;stroke-linecap:square;stroke-width:1.5;"/>
    <defs>
     <path d="M -0 3 
L 3 -3 
L -3 -3 
z
" id="ma0a9f025c6" style="stroke:#ffffff;stroke-linejoin:miter;stroke-width:0.75;"/>
    </defs>
    <g clip-path="url(#p9fa436d077)">
     <use style="fill:#98df8a;stroke:#ffffff;stroke-linejoin:miter;stroke-width:0.75;" x="85.79358" xlink:href="#ma0a9f025c6" y="272.02843"/>
     <use style="fill:#98df8a;stroke:#ffffff;stroke-linejoin:miter;stroke-width:0.75;" x="92.628412" xlink:href="#ma0a9f025c6" y="203.237436"/>
     <use style="fill:#98df8a;stroke:#ffffff;stroke-linejoin:miter;stroke-width:0.75;" x="99.463245" xlink:href="#ma0a9f025c6" y="201.73545"/>
     <use style="fill:#98df8a;stroke:#ffffff;stroke-linejoin:miter;stroke-width:0.75;" x="106.298077" xlink:href="#ma0a9f025c6" y="190.420483"/>
     <use style="fill:#98df8a;stroke:#ffffff;stroke-linejoin:miter;stroke-width:0.75;" x="113.13291" xlink:href="#ma0a9f025c6" y="185.914522"/>
     <use style="fill:#98df8a;stroke:#ffffff;stroke-linejoin:miter;stroke-width:0.75;" x="119.967742" xlink:href="#ma0a9f025c6" y="185.41386"/>
     <use style="fill:#98df8a;stroke:#ffffff;stroke-linejoin:miter;stroke-width:0.75;" x="126.802575" xlink:href="#ma0a9f025c6" y="185.213595"/>
     <use style="fill:#98df8a;stroke:#ffffff;stroke-linejoin:miter;stroke-width:0.75;" x="133.637407" xlink:href="#ma0a9f025c6" y="184.412536"/>
     <use style="fill:#98df8a;stroke:#ffffff;stroke-linejoin:miter;stroke-width:0.75;" x="140.47224" xlink:href="#ma0a9f025c6" y="184.412536"/>
     <use style="fill:#98df8a;stroke:#ffffff;stroke-linejoin:miter;stroke-width:0.75;" x="147.307072" xlink:href="#ma0a9f025c6" y="183.811741"/>
     <use style="fill:#98df8a;stroke:#ffffff;stroke-linejoin:miter;stroke-width:0.75;" x="154.141905" xlink:href="#ma0a9f025c6" y="183.811741"/>
     <use style="fill:#98df8a;stroke:#ffffff;stroke-linejoin:miter;stroke-width:0.75;" x="160.976737" xlink:href="#ma0a9f025c6" y="182.510019"/>
     <use style="fill:#98df8a;stroke:#ffffff;stroke-linejoin:miter;stroke-width:0.75;" x="167.81157" xlink:href="#ma0a9f025c6" y="182.309754"/>
     <use style="fill:#98df8a;stroke:#ffffff;stroke-linejoin:miter;stroke-width:0.75;" x="174.646403" xlink:href="#ma0a9f025c6" y="181.909224"/>
     <use style="fill:#98df8a;stroke:#ffffff;stroke-linejoin:miter;stroke-width:0.75;" x="181.481235" xlink:href="#ma0a9f025c6" y="181.30843"/>
     <use style="fill:#98df8a;stroke:#ffffff;stroke-linejoin:miter;stroke-width:0.75;" x="188.316068" xlink:href="#ma0a9f025c6" y="176.201675"/>
     <use style="fill:#98df8a;stroke:#ffffff;stroke-linejoin:miter;stroke-width:0.75;" x="195.1509" xlink:href="#ma0a9f025c6" y="174.499423"/>
     <use style="fill:#98df8a;stroke:#ffffff;stroke-linejoin:miter;stroke-width:0.75;" x="201.985733" xlink:href="#ma0a9f025c6" y="172.697039"/>
     <use style="fill:#98df8a;stroke:#ffffff;stroke-linejoin:miter;stroke-width:0.75;" x="208.820565" xlink:href="#ma0a9f025c6" y="171.795847"/>
     <use style="fill:#98df8a;stroke:#ffffff;stroke-linejoin:miter;stroke-width:0.75;" x="215.655398" xlink:href="#ma0a9f025c6" y="169.993463"/>
     <use style="fill:#98df8a;stroke:#ffffff;stroke-linejoin:miter;stroke-width:0.75;" x="222.49023" xlink:href="#ma0a9f025c6" y="167.790549"/>
     <use style="fill:#98df8a;stroke:#ffffff;stroke-linejoin:miter;stroke-width:0.75;" x="229.325063" xlink:href="#ma0a9f025c6" y="165.38737"/>
     <use style="fill:#98df8a;stroke:#ffffff;stroke-linejoin:miter;stroke-width:0.75;" x="236.159895" xlink:href="#ma0a9f025c6" y="164.686443"/>
     <use style="fill:#98df8a;stroke:#ffffff;stroke-linejoin:miter;stroke-width:0.75;" x="242.994728" xlink:href="#ma0a9f025c6" y="164.486178"/>
     <use style="fill:#98df8a;stroke:#ffffff;stroke-linejoin:miter;stroke-width:0.75;" x="249.82956" xlink:href="#ma0a9f025c6" y="164.285913"/>
     <use style="fill:#98df8a;stroke:#ffffff;stroke-linejoin:miter;stroke-width:0.75;" x="256.664393" xlink:href="#ma0a9f025c6" y="164.285913"/>
     <use style="fill:#98df8a;stroke:#ffffff;stroke-linejoin:miter;stroke-width:0.75;" x="263.499225" xlink:href="#ma0a9f025c6" y="164.285913"/>
     <use style="fill:#98df8a;stroke:#ffffff;stroke-linejoin:miter;stroke-width:0.75;" x="270.334058" xlink:href="#ma0a9f025c6" y="163.985516"/>
     <use style="fill:#98df8a;stroke:#ffffff;stroke-linejoin:miter;stroke-width:0.75;" x="277.168891" xlink:href="#ma0a9f025c6" y="163.685118"/>
     <use style="fill:#98df8a;stroke:#ffffff;stroke-linejoin:miter;stroke-width:0.75;" x="284.003723" xlink:href="#ma0a9f025c6" y="163.685118"/>
     <use style="fill:#98df8a;stroke:#ffffff;stroke-linejoin:miter;stroke-width:0.75;" x="290.838556" xlink:href="#ma0a9f025c6" y="163.685118"/>
     <use style="fill:#98df8a;stroke:#ffffff;stroke-linejoin:miter;stroke-width:0.75;" x="297.673388" xlink:href="#ma0a9f025c6" y="162.984191"/>
     <use style="fill:#98df8a;stroke:#ffffff;stroke-linejoin:miter;stroke-width:0.75;" x="304.508221" xlink:href="#ma0a9f025c6" y="153.972271"/>
     <use style="fill:#98df8a;stroke:#ffffff;stroke-linejoin:miter;stroke-width:0.75;" x="311.343053" xlink:href="#ma0a9f025c6" y="151.168562"/>
     <use style="fill:#98df8a;stroke:#ffffff;stroke-linejoin:miter;stroke-width:0.75;" x="318.177886" xlink:href="#ma0a9f025c6" y="143.458363"/>
     <use style="fill:#98df8a;stroke:#ffffff;stroke-linejoin:miter;stroke-width:0.75;" x="325.012718" xlink:href="#ma0a9f025c6" y="140.955052"/>
     <use style="fill:#98df8a;stroke:#ffffff;stroke-linejoin:miter;stroke-width:0.75;" x="331.847551" xlink:href="#ma0a9f025c6" y="140.754787"/>
     <use style="fill:#98df8a;stroke:#ffffff;stroke-linejoin:miter;stroke-width:0.75;" x="338.682383" xlink:href="#ma0a9f025c6" y="131.04194"/>
     <use style="fill:#98df8a;stroke:#ffffff;stroke-linejoin:miter;stroke-width:0.75;" x="345.517216" xlink:href="#ma0a9f025c6" y="130.841675"/>
     <use style="fill:#98df8a;stroke:#ffffff;stroke-linejoin:miter;stroke-width:0.75;" x="352.352048" xlink:href="#ma0a9f025c6" y="130.441145"/>
     <use style="fill:#98df8a;stroke:#ffffff;stroke-linejoin:miter;stroke-width:0.75;" x="359.186881" xlink:href="#ma0a9f025c6" y="130.441145"/>
     <use style="fill:#98df8a;stroke:#ffffff;stroke-linejoin:miter;stroke-width:0.75;" x="366.021714" xlink:href="#ma0a9f025c6" y="117.223661"/>
     <use style="fill:#98df8a;stroke:#ffffff;stroke-linejoin:miter;stroke-width:0.75;" x="372.856546" xlink:href="#ma0a9f025c6" y="117.223661"/>
     <use style="fill:#98df8a;stroke:#ffffff;stroke-linejoin:miter;stroke-width:0.75;" x="379.691379" xlink:href="#ma0a9f025c6" y="117.123529"/>
     <use style="fill:#98df8a;stroke:#ffffff;stroke-linejoin:miter;stroke-width:0.75;" x="386.526211" xlink:href="#ma0a9f025c6" y="117.123529"/>
     <use style="fill:#98df8a;stroke:#ffffff;stroke-linejoin:miter;stroke-width:0.75;" x="393.361044" xlink:href="#ma0a9f025c6" y="117.123529"/>
     <use style="fill:#98df8a;stroke:#ffffff;stroke-linejoin:miter;stroke-width:0.75;" x="400.195876" xlink:href="#ma0a9f025c6" y="117.123529"/>
     <use style="fill:#98df8a;stroke:#ffffff;stroke-linejoin:miter;stroke-width:0.75;" x="407.030709" xlink:href="#ma0a9f025c6" y="117.123529"/>
     <use style="fill:#98df8a;stroke:#ffffff;stroke-linejoin:miter;stroke-width:0.75;" x="413.865541" xlink:href="#ma0a9f025c6" y="116.322469"/>
     <use style="fill:#98df8a;stroke:#ffffff;stroke-linejoin:miter;stroke-width:0.75;" x="420.700374" xlink:href="#ma0a9f025c6" y="115.721675"/>
     <use style="fill:#98df8a;stroke:#ffffff;stroke-linejoin:miter;stroke-width:0.75;" x="427.535206" xlink:href="#ma0a9f025c6" y="115.721675"/>
     <use style="fill:#98df8a;stroke:#ffffff;stroke-linejoin:miter;stroke-width:0.75;" x="434.370039" xlink:href="#ma0a9f025c6" y="115.721675"/>
     <use style="fill:#98df8a;stroke:#ffffff;stroke-linejoin:miter;stroke-width:0.75;" x="441.204871" xlink:href="#ma0a9f025c6" y="115.421277"/>
     <use style="fill:#98df8a;stroke:#ffffff;stroke-linejoin:miter;stroke-width:0.75;" x="448.039704" xlink:href="#ma0a9f025c6" y="115.321145"/>
     <use style="fill:#98df8a;stroke:#ffffff;stroke-linejoin:miter;stroke-width:0.75;" x="454.874536" xlink:href="#ma0a9f025c6" y="115.321145"/>
     <use style="fill:#98df8a;stroke:#ffffff;stroke-linejoin:miter;stroke-width:0.75;" x="461.709369" xlink:href="#ma0a9f025c6" y="114.920615"/>
     <use style="fill:#98df8a;stroke:#ffffff;stroke-linejoin:miter;stroke-width:0.75;" x="468.544202" xlink:href="#ma0a9f025c6" y="114.920615"/>
     <use style="fill:#98df8a;stroke:#ffffff;stroke-linejoin:miter;stroke-width:0.75;" x="475.379034" xlink:href="#ma0a9f025c6" y="114.72035"/>
     <use style="fill:#98df8a;stroke:#ffffff;stroke-linejoin:miter;stroke-width:0.75;" x="482.213867" xlink:href="#ma0a9f025c6" y="114.72035"/>
     <use style="fill:#98df8a;stroke:#ffffff;stroke-linejoin:miter;stroke-width:0.75;" x="489.048699" xlink:href="#ma0a9f025c6" y="114.72035"/>
     <use style="fill:#98df8a;stroke:#ffffff;stroke-linejoin:miter;stroke-width:0.75;" x="495.883532" xlink:href="#ma0a9f025c6" y="114.72035"/>
     <use style="fill:#98df8a;stroke:#ffffff;stroke-linejoin:miter;stroke-width:0.75;" x="502.718364" xlink:href="#ma0a9f025c6" y="114.72035"/>
     <use style="fill:#98df8a;stroke:#ffffff;stroke-linejoin:miter;stroke-width:0.75;" x="509.553197" xlink:href="#ma0a9f025c6" y="114.72035"/>
     <use style="fill:#98df8a;stroke:#ffffff;stroke-linejoin:miter;stroke-width:0.75;" x="516.388029" xlink:href="#ma0a9f025c6" y="114.72035"/>
     <use style="fill:#98df8a;stroke:#ffffff;stroke-linejoin:miter;stroke-width:0.75;" x="523.222862" xlink:href="#ma0a9f025c6" y="114.620218"/>
     <use style="fill:#98df8a;stroke:#ffffff;stroke-linejoin:miter;stroke-width:0.75;" x="530.057694" xlink:href="#ma0a9f025c6" y="114.620218"/>
     <use style="fill:#98df8a;stroke:#ffffff;stroke-linejoin:miter;stroke-width:0.75;" x="536.892527" xlink:href="#ma0a9f025c6" y="114.620218"/>
     <use style="fill:#98df8a;stroke:#ffffff;stroke-linejoin:miter;stroke-width:0.75;" x="543.727359" xlink:href="#ma0a9f025c6" y="114.620218"/>
     <use style="fill:#98df8a;stroke:#ffffff;stroke-linejoin:miter;stroke-width:0.75;" x="550.562192" xlink:href="#ma0a9f025c6" y="114.620218"/>
     <use style="fill:#98df8a;stroke:#ffffff;stroke-linejoin:miter;stroke-width:0.75;" x="557.397025" xlink:href="#ma0a9f025c6" y="114.620218"/>
     <use style="fill:#98df8a;stroke:#ffffff;stroke-linejoin:miter;stroke-width:0.75;" x="564.231857" xlink:href="#ma0a9f025c6" y="114.620218"/>
     <use style="fill:#98df8a;stroke:#ffffff;stroke-linejoin:miter;stroke-width:0.75;" x="571.06669" xlink:href="#ma0a9f025c6" y="114.620218"/>
     <use style="fill:#98df8a;stroke:#ffffff;stroke-linejoin:miter;stroke-width:0.75;" x="577.901522" xlink:href="#ma0a9f025c6" y="111.415979"/>
     <use style="fill:#98df8a;stroke:#ffffff;stroke-linejoin:miter;stroke-width:0.75;" x="584.736355" xlink:href="#ma0a9f025c6" y="111.215714"/>
     <use style="fill:#98df8a;stroke:#ffffff;stroke-linejoin:miter;stroke-width:0.75;" x="591.571187" xlink:href="#ma0a9f025c6" y="111.01545"/>
     <use style="fill:#98df8a;stroke:#ffffff;stroke-linejoin:miter;stroke-width:0.75;" x="598.40602" xlink:href="#ma0a9f025c6" y="111.01545"/>
     <use style="fill:#98df8a;stroke:#ffffff;stroke-linejoin:miter;stroke-width:0.75;" x="605.240852" xlink:href="#ma0a9f025c6" y="99.19982"/>
     <use style="fill:#98df8a;stroke:#ffffff;stroke-linejoin:miter;stroke-width:0.75;" x="612.075685" xlink:href="#ma0a9f025c6" y="85.581807"/>
     <use style="fill:#98df8a;stroke:#ffffff;stroke-linejoin:miter;stroke-width:0.75;" x="618.910517" xlink:href="#ma0a9f025c6" y="84.780748"/>
     <use style="fill:#98df8a;stroke:#ffffff;stroke-linejoin:miter;stroke-width:0.75;" x="625.74535" xlink:href="#ma0a9f025c6" y="84.780748"/>
     <use style="fill:#98df8a;stroke:#ffffff;stroke-linejoin:miter;stroke-width:0.75;" x="632.580182" xlink:href="#ma0a9f025c6" y="69.861012"/>
     <use style="fill:#98df8a;stroke:#ffffff;stroke-linejoin:miter;stroke-width:0.75;" x="639.415015" xlink:href="#ma0a9f025c6" y="69.861012"/>
     <use style="fill:#98df8a;stroke:#ffffff;stroke-linejoin:miter;stroke-width:0.75;" x="646.249847" xlink:href="#ma0a9f025c6" y="69.861012"/>
     <use style="fill:#98df8a;stroke:#ffffff;stroke-linejoin:miter;stroke-width:0.75;" x="653.08468" xlink:href="#ma0a9f025c6" y="69.861012"/>
     <use style="fill:#98df8a;stroke:#ffffff;stroke-linejoin:miter;stroke-width:0.75;" x="659.919513" xlink:href="#ma0a9f025c6" y="69.861012"/>
     <use style="fill:#98df8a;stroke:#ffffff;stroke-linejoin:miter;stroke-width:0.75;" x="666.754345" xlink:href="#ma0a9f025c6" y="69.861012"/>
     <use style="fill:#98df8a;stroke:#ffffff;stroke-linejoin:miter;stroke-width:0.75;" x="673.589178" xlink:href="#ma0a9f025c6" y="69.861012"/>
     <use style="fill:#98df8a;stroke:#ffffff;stroke-linejoin:miter;stroke-width:0.75;" x="680.42401" xlink:href="#ma0a9f025c6" y="69.861012"/>
     <use style="fill:#98df8a;stroke:#ffffff;stroke-linejoin:miter;stroke-width:0.75;" x="687.258843" xlink:href="#ma0a9f025c6" y="69.861012"/>
     <use style="fill:#98df8a;stroke:#ffffff;stroke-linejoin:miter;stroke-width:0.75;" x="694.093675" xlink:href="#ma0a9f025c6" y="69.861012"/>
     <use style="fill:#98df8a;stroke:#ffffff;stroke-linejoin:miter;stroke-width:0.75;" x="700.928508" xlink:href="#ma0a9f025c6" y="67.958496"/>
     <use style="fill:#98df8a;stroke:#ffffff;stroke-linejoin:miter;stroke-width:0.75;" x="707.76334" xlink:href="#ma0a9f025c6" y="67.758231"/>
     <use style="fill:#98df8a;stroke:#ffffff;stroke-linejoin:miter;stroke-width:0.75;" x="714.598173" xlink:href="#ma0a9f025c6" y="67.557966"/>
     <use style="fill:#98df8a;stroke:#ffffff;stroke-linejoin:miter;stroke-width:0.75;" x="721.433005" xlink:href="#ma0a9f025c6" y="67.557966"/>
     <use style="fill:#98df8a;stroke:#ffffff;stroke-linejoin:miter;stroke-width:0.75;" x="728.267838" xlink:href="#ma0a9f025c6" y="63.352403"/>
     <use style="fill:#98df8a;stroke:#ffffff;stroke-linejoin:miter;stroke-width:0.75;" x="735.10267" xlink:href="#ma0a9f025c6" y="56.943926"/>
    </g>
   </g>
   <g id="line2d_22"/>
   <g id="line2d_23"/>
   <g id="line2d_24">
    <path clip-path="url(#p9fa436d077)" d="M 735.10267 288.430125 
L 735.10267 22.318125 
" style="fill:none;stroke:#ff0000;stroke-linecap:square;stroke-width:1.5;"/>
   </g>
   <g id="patch_3">
    <path d="M 53.328125 275.933595 
L 53.328125 35.615714 
" style="fill:none;stroke:#000000;stroke-linecap:square;stroke-linejoin:miter;stroke-width:0.8;"/>
   </g>
   <g id="patch_4">
    <path d="M 85.79358 288.430125 
L 687.258843 288.430125 
" style="fill:none;stroke:#000000;stroke-linecap:square;stroke-linejoin:miter;stroke-width:0.8;"/>
   </g>
   <g id="text_22">
    <!-- libjpeg-turbo-07-2017 (24h, 10 trials/fuzzer) -->
    <g transform="translate(277.985938 16.318125)scale(0.12 -0.12)">
     <defs>
      <path d="M 603 4863 
L 1178 4863 
L 1178 0 
L 603 0 
L 603 4863 
z
" id="DejaVuSans-6c" transform="scale(0.015625)"/>
      <path d="M 603 3500 
L 1178 3500 
L 1178 -63 
Q 1178 -731 923 -1031 
Q 669 -1331 103 -1331 
L -116 -1331 
L -116 -844 
L 38 -844 
Q 366 -844 484 -692 
Q 603 -541 603 -63 
L 603 3500 
z
M 603 4863 
L 1178 4863 
L 1178 4134 
L 603 4134 
L 603 4863 
z
" id="DejaVuSans-6a" transform="scale(0.015625)"/>
      <path d="M 1159 525 
L 1159 -1331 
L 581 -1331 
L 581 3500 
L 1159 3500 
L 1159 2969 
Q 1341 3281 1617 3432 
Q 1894 3584 2278 3584 
Q 2916 3584 3314 3078 
Q 3713 2572 3713 1747 
Q 3713 922 3314 415 
Q 2916 -91 2278 -91 
Q 1894 -91 1617 61 
Q 1341 213 1159 525 
z
M 3116 1747 
Q 3116 2381 2855 2742 
Q 2594 3103 2138 3103 
Q 1681 3103 1420 2742 
Q 1159 2381 1159 1747 
Q 1159 1113 1420 752 
Q 1681 391 2138 391 
Q 2594 391 2855 752 
Q 3116 1113 3116 1747 
z
" id="DejaVuSans-70" transform="scale(0.015625)"/>
      <path d="M 313 2009 
L 1997 2009 
L 1997 1497 
L 313 1497 
L 313 2009 
z
" id="DejaVuSans-2d" transform="scale(0.015625)"/>
      <path d="M 525 4666 
L 3525 4666 
L 3525 4397 
L 1831 0 
L 1172 0 
L 2766 4134 
L 525 4134 
L 525 4666 
z
" id="DejaVuSans-37" transform="scale(0.015625)"/>
      <path d="M 750 794 
L 1409 794 
L 1409 256 
L 897 -744 
L 494 -744 
L 750 256 
L 750 794 
z
" id="DejaVuSans-2c" transform="scale(0.015625)"/>
      <path d="M 2834 3397 
L 2834 2853 
Q 2591 2978 2328 3040 
Q 2066 3103 1784 3103 
Q 1356 3103 1142 2972 
Q 928 2841 928 2578 
Q 928 2378 1081 2264 
Q 1234 2150 1697 2047 
L 1894 2003 
Q 2506 1872 2764 1633 
Q 3022 1394 3022 966 
Q 3022 478 2636 193 
Q 2250 -91 1575 -91 
Q 1294 -91 989 -36 
Q 684 19 347 128 
L 347 722 
Q 666 556 975 473 
Q 1284 391 1588 391 
Q 1994 391 2212 530 
Q 2431 669 2431 922 
Q 2431 1156 2273 1281 
Q 2116 1406 1581 1522 
L 1381 1569 
Q 847 1681 609 1914 
Q 372 2147 372 2553 
Q 372 3047 722 3315 
Q 1072 3584 1716 3584 
Q 2034 3584 2315 3537 
Q 2597 3491 2834 3397 
z
" id="DejaVuSans-73" transform="scale(0.015625)"/>
      <path d="M 1625 4666 
L 2156 4666 
L 531 -594 
L 0 -594 
L 1625 4666 
z
" id="DejaVuSans-2f" transform="scale(0.015625)"/>
      <path d="M 2375 4863 
L 2375 4384 
L 1825 4384 
Q 1516 4384 1395 4259 
Q 1275 4134 1275 3809 
L 1275 3500 
L 2222 3500 
L 2222 3053 
L 1275 3053 
L 1275 0 
L 697 0 
L 697 3053 
L 147 3053 
L 147 3500 
L 697 3500 
L 697 3744 
Q 697 4328 969 4595 
Q 1241 4863 1831 4863 
L 2375 4863 
z
" id="DejaVuSans-66" transform="scale(0.015625)"/>
      <path d="M 353 3500 
L 3084 3500 
L 3084 2975 
L 922 459 
L 3084 459 
L 3084 0 
L 275 0 
L 275 525 
L 2438 3041 
L 353 3041 
L 353 3500 
z
" id="DejaVuSans-7a" transform="scale(0.015625)"/>
     </defs>
     <use xlink:href="#DejaVuSans-6c"/>
     <use x="27.783203" xlink:href="#DejaVuSans-69"/>
     <use x="55.566406" xlink:href="#DejaVuSans-62"/>
     <use x="119.042969" xlink:href="#DejaVuSans-6a"/>
     <use x="146.826172" xlink:href="#DejaVuSans-70"/>
     <use x="210.302734" xlink:href="#DejaVuSans-65"/>
     <use x="271.826172" xlink:href="#DejaVuSans-67"/>
     <use x="335.302734" xlink:href="#DejaVuSans-2d"/>
     <use x="371.386719" xlink:href="#DejaVuSans-74"/>
     <use x="410.595703" xlink:href="#DejaVuSans-75"/>
     <use x="473.974609" xlink:href="#DejaVuSans-72"/>
     <use x="515.087891" xlink:href="#DejaVuSans-62"/>
     <use x="578.564453" xlink:href="#DejaVuSans-6f"/>
     <use x="641.621094" xlink:href="#DejaVuSans-2d"/>
     <use x="677.705078" xlink:href="#DejaVuSans-30"/>
     <use x="741.328125" xlink:href="#DejaVuSans-37"/>
     <use x="804.951172" xlink:href="#DejaVuSans-2d"/>
     <use x="841.035156" xlink:href="#DejaVuSans-32"/>
     <use x="904.658203" xlink:href="#DejaVuSans-30"/>
     <use x="968.28125" xlink:href="#DejaVuSans-31"/>
     <use x="1031.904297" xlink:href="#DejaVuSans-37"/>
     <use x="1095.527344" xlink:href="#DejaVuSans-20"/>
     <use x="1127.314453" xlink:href="#DejaVuSans-28"/>
     <use x="1166.328125" xlink:href="#DejaVuSans-32"/>
     <use x="1229.951172" xlink:href="#DejaVuSans-34"/>
     <use x="1293.574219" xlink:href="#DejaVuSans-68"/>
     <use x="1356.953125" xlink:href="#DejaVuSans-2c"/>
     <use x="1388.740234" xlink:href="#DejaVuSans-20"/>
     <use x="1420.527344" xlink:href="#DejaVuSans-31"/>
     <use x="1484.150391" xlink:href="#DejaVuSans-30"/>
     <use x="1547.773438" xlink:href="#DejaVuSans-20"/>
     <use x="1579.560547" xlink:href="#DejaVuSans-74"/>
     <use x="1618.769531" xlink:href="#DejaVuSans-72"/>
     <use x="1659.882812" xlink:href="#DejaVuSans-69"/>
     <use x="1687.666016" xlink:href="#DejaVuSans-61"/>
     <use x="1748.945312" xlink:href="#DejaVuSans-6c"/>
     <use x="1776.728516" xlink:href="#DejaVuSans-73"/>
     <use x="1828.828125" xlink:href="#DejaVuSans-2f"/>
     <use x="1862.519531" xlink:href="#DejaVuSans-66"/>
     <use x="1897.724609" xlink:href="#DejaVuSans-75"/>
     <use x="1961.103516" xlink:href="#DejaVuSans-7a"/>
     <use x="2013.59375" xlink:href="#DejaVuSans-7a"/>
     <use x="2066.083984" xlink:href="#DejaVuSans-65"/>
     <use x="2127.607422" xlink:href="#DejaVuSans-72"/>
     <use x="2168.720703" xlink:href="#DejaVuSans-29"/>
    </g>
   </g>
   <g id="legend_1">
    <g id="line2d_25">
     <path d="M 771.568125 30.416562 
L 791.568125 30.416562 
" style="fill:none;stroke:#1f77b4;stroke-linecap:square;stroke-width:1.5;"/>
    </g>
    <g id="line2d_26">
     <defs>
      <path d="M 0 3 
C 0.795609 3 1.55874 2.683901 2.12132 2.12132 
C 2.683901 1.55874 3 0.795609 3 0 
C 3 -0.795609 2.683901 -1.55874 2.12132 -2.12132 
C 1.55874 -2.683901 0.795609 -3 0 -3 
C -0.795609 -3 -1.55874 -2.683901 -2.12132 -2.12132 
C -2.683901 -1.55874 -3 -0.795609 -3 0 
C -3 0.795609 -2.683901 1.55874 -2.12132 2.12132 
C -1.55874 2.683901 -0.795609 3 0 3 
z
" id="ma2ac341e4f" style="stroke:#1f77b4;"/>
     </defs>
     <g>
      <use style="fill:#1f77b4;stroke:#1f77b4;" x="781.568125" xlink:href="#ma2ac341e4f" y="30.416562"/>
     </g>
    </g>
    <g id="text_23">
     <!-- aflplusplus -->
     <g transform="translate(799.568125 33.916562)scale(0.1 -0.1)">
      <use xlink:href="#DejaVuSans-61"/>
      <use x="61.279297" xlink:href="#DejaVuSans-66"/>
      <use x="96.484375" xlink:href="#DejaVuSans-6c"/>
      <use x="124.267578" xlink:href="#DejaVuSans-70"/>
      <use x="187.744141" xlink:href="#DejaVuSans-6c"/>
      <use x="215.527344" xlink:href="#DejaVuSans-75"/>
      <use x="278.90625" xlink:href="#DejaVuSans-73"/>
      <use x="331.005859" xlink:href="#DejaVuSans-70"/>
      <use x="394.482422" xlink:href="#DejaVuSans-6c"/>
      <use x="422.265625" xlink:href="#DejaVuSans-75"/>
      <use x="485.644531" xlink:href="#DejaVuSans-73"/>
     </g>
    </g>
    <g id="line2d_27">
     <path d="M 771.568125 45.094688 
L 791.568125 45.094688 
" style="fill:none;stroke:#98df8a;stroke-linecap:square;stroke-width:1.5;"/>
    </g>
    <g id="line2d_28">
     <defs>
      <path d="M -0 3 
L 3 -3 
L -3 -3 
z
" id="m9cbc5ff9d5" style="stroke:#98df8a;stroke-linejoin:miter;"/>
     </defs>
     <g>
      <use style="fill:#98df8a;stroke:#98df8a;stroke-linejoin:miter;" x="781.568125" xlink:href="#m9cbc5ff9d5" y="45.094688"/>
     </g>
    </g>
    <g id="text_24">
     <!-- libfuzzer -->
     <g transform="translate(799.568125 48.594688)scale(0.1 -0.1)">
      <use xlink:href="#DejaVuSans-6c"/>
      <use x="27.783203" xlink:href="#DejaVuSans-69"/>
      <use x="55.566406" xlink:href="#DejaVuSans-62"/>
      <use x="119.042969" xlink:href="#DejaVuSans-66"/>
      <use x="154.248047" xlink:href="#DejaVuSans-75"/>
      <use x="217.626953" xlink:href="#DejaVuSans-7a"/>
      <use x="270.117188" xlink:href="#DejaVuSans-7a"/>
      <use x="322.607422" xlink:href="#DejaVuSans-65"/>
      <use x="384.130859" xlink:href="#DejaVuSans-72"/>
     </g>
    </g>
   </g>
  </g>
 </g>
 <defs>
  <clipPath id="p9fa436d077">
   <rect height="266.112" width="714.24" x="53.328125" y="22.318125"/>
  </clipPath>
 </defs>
</svg>
