<?xml version="1.0" encoding="utf-8" standalone="no"?>
<!DOCTYPE svg PUBLIC "-//W3C//DTD SVG 1.1//EN"
  "http://www.w3.org/Graphics/SVG/1.1/DTD/svg11.dtd">
<!-- Created with matplotlib (https://matplotlib.org/) -->
<svg height="325.986375pt" version="1.1" viewBox="0 0 845.419687 325.986375" width="845.419687pt" xmlns="http://www.w3.org/2000/svg" xmlns:xlink="http://www.w3.org/1999/xlink">
 <metadata>
  <rdf:RDF xmlns:cc="http://creativecommons.org/ns#" xmlns:dc="http://purl.org/dc/elements/1.1/" xmlns:rdf="http://www.w3.org/1999/02/22-rdf-syntax-ns#">
   <cc:Work>
    <dc:type rdf:resource="http://purl.org/dc/dcmitype/StillImage"/>
    <dc:date>2020-08-26T11:43:29.765219</dc:date>
    <dc:format>image/svg+xml</dc:format>
    <dc:creator>
     <cc:Agent>
      <dc:title>Matplotlib v3.3.1, https://matplotlib.org/</dc:title>
     </cc:Agent>
    </dc:creator>
   </cc:Work>
  </rdf:RDF>
 </metadata>
 <defs>
  <style type="text/css">*{stroke-linecap:butt;stroke-linejoin:round;}</style>
 </defs>
 <g id="figure_1">
  <g id="patch_1">
   <path d="M 0 325.986375 
L 845.419687 325.986375 
L 845.419687 0 
L 0 0 
z
" style="fill:#ffffff;"/>
  </g>
  <g id="axes_1">
   <g id="patch_2">
    <path d="M 53.328125 288.430125 
L 767.568125 288.430125 
L 767.568125 22.318125 
L 53.328125 22.318125 
z
" style="fill:#ffffff;"/>
   </g>
   <g id="PolyCollection_1">
    <defs>
     <path d="M 85.79358 -104.899117 
L 85.79358 -75.616412 
L 92.628412 -92.574746 
L 99.463245 -96.584275 
L 106.298077 -97.169272 
L 113.13291 -99.114879 
L 119.967742 -101.275752 
L 126.802575 -99.509259 
L 133.637407 -101.283968 
L 140.47224 -101.283968 
L 147.307072 -101.283968 
L 154.141905 -100.626668 
L 160.976737 -101.744078 
L 167.81157 -112.063684 
L 174.646403 -118.636682 
L 181.481235 -141.412119 
L 188.316068 -142.430933 
L 195.1509 -143.351153 
L 201.985733 -144.567158 
L 208.820565 -147.87584 
L 215.655398 -146.933437 
L 222.49023 -154.590979 
L 229.325063 -156.322964 
L 236.159895 -156.727203 
L 242.994728 -156.201363 
L 249.82956 -158.304723 
L 256.664393 -161.952736 
L 263.499225 -162.610036 
L 270.334058 -163.595986 
L 277.168891 -167.244 
L 284.003723 -167.441189 
L 290.838556 -169.511684 
L 297.673388 -178.483825 
L 304.508221 -180.222383 
L 311.343053 -180.389995 
L 318.177886 -180.9791 
L 325.012718 -180.62005 
L 331.847551 -182.296164 
L 338.682383 -182.723409 
L 345.517216 -182.822004 
L 352.352048 -183.216384 
L 359.186881 -184.169468 
L 366.021714 -184.498118 
L 372.856546 -185.746988 
L 379.691379 -186.962992 
L 386.526211 -188.770567 
L 393.361044 -196.230919 
L 400.195876 -196.263784 
L 407.030709 -196.855354 
L 413.865541 -197.644114 
L 420.700374 -198.498603 
L 427.535206 -199.090173 
L 434.370039 -200.032577 
L 441.204871 -199.529742 
L 448.039704 -199.714608 
L 454.874536 -201.883697 
L 461.709369 -202.245212 
L 468.544202 -202.508132 
L 475.379034 -203.066837 
L 482.213867 -202.902512 
L 489.048699 -203.329757 
L 495.883532 -203.888461 
L 502.718364 -205.268791 
L 509.553197 -206.024686 
L 516.388029 -206.681985 
L 523.222862 -206.681985 
L 530.057694 -209.14686 
L 536.892527 -210.231404 
L 543.727359 -212.794873 
L 550.562192 -211.513139 
L 557.397025 -212.423499 
L 564.231857 -213.616498 
L 571.06669 -214.208068 
L 577.901522 -214.438123 
L 584.736355 -215.226882 
L 591.571187 -216.640077 
L 598.40602 -218.677706 
L 605.240852 -219.893711 
L 612.075685 -220.025171 
L 618.910517 -223.562265 
L 625.74535 -220.025171 
L 632.580182 -221.832745 
L 639.415015 -220.156631 
L 646.249847 -221.832745 
L 653.08468 -223.015885 
L 659.919513 -222.0628 
L 666.754345 -222.227125 
L 673.589178 -225.579354 
L 680.42401 -224.001834 
L 687.258843 -231.429322 
L 694.093675 -233.664141 
L 700.928508 -234.4529 
L 707.76334 -235.63604 
L 714.598173 -236.983505 
L 721.433005 -238.166644 
L 728.267838 -236.75345 
L 735.10267 -239.382649 
L 735.10267 -291.57225 
L 735.10267 -291.57225 
L 728.267838 -290.65203 
L 721.433005 -290.126191 
L 714.598173 -289.797541 
L 707.76334 -288.712996 
L 700.928508 -287.562721 
L 694.093675 -287.168342 
L 687.258843 -285.295037 
L 680.42401 -284.079033 
L 673.589178 -284.046989 
L 666.754345 -282.632973 
L 659.919513 -282.370053 
L 653.08468 -282.304323 
L 646.249847 -282.264064 
L 639.415015 -282.008538 
L 632.580182 -281.745619 
L 625.74535 -282.994488 
L 618.910517 -281.745619 
L 612.075685 -282.370053 
L 605.240852 -278.952095 
L 598.40602 -279.543664 
L 591.571187 -279.412204 
L 584.736355 -278.713823 
L 577.901522 -277.900415 
L 571.06669 -277.571765 
L 564.231857 -275.928516 
L 557.397025 -276.257165 
L 550.562192 -275.238351 
L 543.727359 -274.192423 
L 536.892527 -273.134992 
L 530.057694 -271.541861 
L 523.222862 -270.965902 
L 516.388029 -270.242873 
L 509.553197 -267.153564 
L 502.718364 -266.923509 
L 495.883532 -265.72558 
L 489.048699 -262.552465 
L 482.213867 -266.561994 
L 475.379034 -264.327175 
L 468.544202 -262.25668 
L 461.709369 -259.5256 
L 454.874536 -261.533651 
L 448.039704 -261.040676 
L 441.204871 -257.129742 
L 434.370039 -255.190708 
L 427.535206 -252.229573 
L 420.700374 -251.641289 
L 413.865541 -247.335976 
L 407.030709 -245.298347 
L 400.195876 -244.115207 
L 393.361044 -244.034688 
L 386.526211 -237.476479 
L 379.691379 -236.49053 
L 372.856546 -236.16188 
L 366.021714 -233.894196 
L 359.186881 -232.053756 
L 352.352048 -230.38668 
L 345.517216 -229.325962 
L 338.682383 -227.879903 
L 331.847551 -225.349299 
L 325.012718 -222.65437 
L 318.177886 -221.043985 
L 311.343053 -220.7482 
L 304.508221 -220.058036 
L 297.673388 -219.532196 
L 290.838556 -216.311427 
L 284.003723 -214.799637 
L 277.168891 -214.766773 
L 270.334058 -211.907519 
L 263.499225 -211.907519 
L 256.664393 -208.785345 
L 249.82956 -206.747715 
L 242.994728 -207.89799 
L 236.159895 -210.058863 
L 229.325063 -203.691271 
L 222.49023 -208.589798 
L 215.655398 -203.296892 
L 208.820565 -202.573862 
L 201.985733 -199.981636 
L 195.1509 -187.521697 
L 188.316068 -187.390237 
L 181.481235 -186.502883 
L 174.646403 -175.295922 
L 167.81157 -170.892013 
L 160.976737 -164.844855 
L 154.141905 -153.670759 
L 147.307072 -152.849135 
L 140.47224 -152.09324 
L 133.637407 -151.10729 
L 126.802575 -149.266851 
L 119.967742 -146.703382 
L 113.13291 -139.604544 
L 106.298077 -127.115849 
L 99.463245 -122.810535 
L 92.628412 -109.00724 
L 85.79358 -104.899117 
z
" id="mac91751670" style="stroke:#ffbb78;stroke-opacity:0.2;"/>
    </defs>
    <g clip-path="url(#p89121f5ef7)">
     <use style="fill:#ffbb78;fill-opacity:0.2;stroke:#ffbb78;stroke-opacity:0.2;" x="0" xlink:href="#mac91751670" y="325.986375"/>
    </g>
   </g>
   <g id="PolyCollection_2">
    <defs>
     <path d="M 85.79358 -127.442856 
L 85.79358 -66.414216 
L 92.628412 -90.898632 
L 99.463245 -89.642368 
L 106.298077 -90.668577 
L 113.13291 -90.668577 
L 119.967742 -90.668577 
L 126.802575 -90.668577 
L 133.637407 -89.058193 
L 140.47224 -90.668577 
L 147.307072 -89.649762 
L 154.141905 -90.668577 
L 160.976737 -97.898874 
L 167.81157 -101.185373 
L 174.646403 -101.645483 
L 181.481235 -105.359227 
L 188.316068 -110.19038 
L 195.1509 -113.181094 
L 201.985733 -126.787199 
L 208.820565 -143.482613 
L 215.655398 -146.144677 
L 222.49023 -148.248036 
L 229.325063 -152.126105 
L 236.159895 -152.35616 
L 242.994728 -154.919629 
L 249.82956 -157.285908 
L 256.664393 -157.088718 
L 263.499225 -159.159212 
L 270.334058 -159.422132 
L 277.168891 -160.079432 
L 284.003723 -161.919871 
L 290.838556 -163.181065 
L 297.673388 -165.53502 
L 304.508221 -165.231019 
L 311.343053 -168.788654 
L 318.177886 -177.432146 
L 325.012718 -180.42286 
L 331.847551 -180.915835 
L 338.682383 -181.375944 
L 345.517216 -181.441674 
L 352.352048 -181.638864 
L 359.186881 -183.210632 
L 366.021714 -183.347844 
L 372.856546 -183.674029 
L 379.691379 -183.610764 
L 386.526211 -183.775089 
L 393.361044 -184.530983 
L 400.195876 -185.977043 
L 407.030709 -188.178997 
L 413.865541 -190.118031 
L 420.700374 -190.643871 
L 427.535206 -190.709601 
L 434.370039 -192.451445 
L 441.204871 -193.174475 
L 448.039704 -194.056079 
L 454.874536 -194.06183 
L 461.709369 -194.6534 
L 468.544202 -194.686265 
L 475.379034 -195.639349 
L 482.213867 -195.705079 
L 489.048699 -195.705079 
L 495.883532 -196.526704 
L 502.718364 -196.691029 
L 509.553197 -197.381194 
L 516.388029 -198.005629 
L 523.222862 -199.813203 
L 530.057694 -199.747473 
L 536.892527 -201.550939 
L 543.727359 -202.376672 
L 550.562192 -203.231162 
L 557.397025 -204.315706 
L 564.231857 -204.775816 
L 571.06669 -208.062315 
L 577.901522 -210.618389 
L 584.736355 -209.902754 
L 591.571187 -210.297134 
L 598.40602 -211.118759 
L 605.240852 -211.151624 
L 612.075685 -211.151624 
L 618.910517 -211.151624 
L 625.74535 -214.076608 
L 632.580182 -214.832502 
L 639.415015 -214.339528 
L 646.249847 -217.888946 
L 653.08468 -217.921811 
L 659.919513 -217.823216 
L 666.754345 -217.757486 
L 673.589178 -218.447651 
L 680.42401 -217.987541 
L 687.258843 -220.55101 
L 694.093675 -221.329089 
L 700.928508 -221.438365 
L 707.76334 -221.438365 
L 714.598173 -221.504095 
L 721.433005 -222.39145 
L 728.267838 -222.39145 
L 735.10267 -223.172815 
L 735.10267 -255.464309 
L 735.10267 -255.464309 
L 728.267838 -251.542694 
L 721.433005 -251.509829 
L 714.598173 -251.476964 
L 707.76334 -250.491015 
L 700.928508 -248.979225 
L 694.093675 -248.979225 
L 687.258843 -249.73512 
L 680.42401 -247.040191 
L 673.589178 -246.514351 
L 666.754345 -246.481486 
L 659.919513 -244.871102 
L 653.08468 -245.626996 
L 646.249847 -246.350026 
L 639.415015 -235.43885 
L 632.580182 -235.04447 
L 625.74535 -234.97874 
L 618.910517 -233.567189 
L 612.075685 -233.795601 
L 605.240852 -232.842516 
L 598.40602 -232.941111 
L 591.571187 -232.612461 
L 584.736355 -233.171166 
L 577.901522 -233.171166 
L 571.06669 -231.593646 
L 564.231857 -231.330727 
L 557.397025 -231.297862 
L 550.562192 -230.903482 
L 543.727359 -230.509102 
L 536.892527 -230.094181 
L 530.057694 -228.307148 
L 523.222862 -228.109958 
L 516.388029 -227.879903 
L 509.553197 -229.556017 
L 502.718364 -223.377399 
L 495.883532 -223.475994 
L 489.048699 -223.344534 
L 482.213867 -222.85156 
L 475.379034 -221.60269 
L 468.544202 -220.123766 
L 461.709369 -220.61674 
L 454.874536 -219.630791 
L 448.039704 -219.367871 
L 441.204871 -219.203546 
L 434.370039 -216.837267 
L 427.535206 -215.062557 
L 420.700374 -214.540004 
L 413.865541 -193.897505 
L 407.030709 -193.47026 
L 400.195876 -192.977285 
L 393.361044 -191.564091 
L 386.526211 -190.873926 
L 379.691379 -190.841061 
L 372.856546 -190.545276 
L 366.021714 -190.578141 
L 359.186881 -189.822246 
L 352.352048 -188.211862 
L 345.517216 -187.883212 
L 338.682383 -186.700073 
L 331.847551 -186.305693 
L 325.012718 -186.371423 
L 318.177886 -185.155418 
L 311.343053 -184.235198 
L 304.508221 -180.981565 
L 297.673388 -180.492698 
L 290.838556 -179.009665 
L 284.003723 -177.990851 
L 277.168891 -176.347601 
L 270.334058 -174.375702 
L 263.499225 -174.211377 
L 256.664393 -173.430834 
L 249.82956 -173.455482 
L 242.994728 -170.892013 
L 236.159895 -170.596228 
L 229.325063 -170.004659 
L 222.49023 -168.328544 
L 215.655398 -167.672066 
L 208.820565 -166.52097 
L 201.985733 -160.966787 
L 195.1509 -151.337345 
L 188.316068 -146.046082 
L 181.481235 -146.144677 
L 174.646403 -145.125862 
L 167.81157 -143.646938 
L 160.976737 -140.663619 
L 154.141905 -137.041075 
L 147.307072 -138.363069 
L 140.47224 -136.778155 
L 133.637407 -135.792206 
L 126.802575 -135.989396 
L 119.967742 -135.693611 
L 113.13291 -133.524522 
L 106.298077 -133.031547 
L 99.463245 -132.538572 
L 92.628412 -129.487879 
L 85.79358 -127.442856 
z
" id="mbb2d513e82" style="stroke:#ff7f0e;stroke-opacity:0.2;"/>
    </defs>
    <g clip-path="url(#p89121f5ef7)">
     <use style="fill:#ff7f0e;fill-opacity:0.2;stroke:#ff7f0e;stroke-opacity:0.2;" x="0" xlink:href="#mbb2d513e82" y="325.986375"/>
    </g>
   </g>
   <g id="PolyCollection_3">
    <defs>
     <path d="M 85.79358 -82.64952 
L 85.79358 -49.65225 
L 92.628412 -61.813117 
L 99.463245 -67.926005 
L 106.298077 -70.522339 
L 113.13291 -70.456609 
L 119.967742 -70.522339 
L 126.802575 -70.522339 
L 133.637407 -72.362778 
L 140.47224 -70.522339 
L 147.307072 -70.522339 
L 154.141905 -72.362778 
L 160.976737 -70.916719 
L 167.81157 -74.433273 
L 174.646403 -78.691754 
L 181.481235 -84.161309 
L 188.316068 -86.428993 
L 195.1509 -96.88006 
L 201.985733 -103.354462 
L 208.820565 -103.847437 
L 215.655398 -106.065002 
L 222.49023 -109.188819 
L 229.325063 -110.38757 
L 236.159895 -109.99319 
L 242.994728 -110.128758 
L 249.82956 -110.388392 
L 256.664393 -116.237538 
L 263.499225 -147.305633 
L 270.334058 -158.314582 
L 277.168891 -162.281386 
L 284.003723 -163.037281 
L 290.838556 -164.056096 
L 297.673388 -165.765075 
L 304.508221 -166.159455 
L 311.343053 -166.553835 
L 318.177886 -166.685295 
L 325.012718 -167.145405 
L 331.847551 -168.920114 
L 338.682383 -170.629093 
L 345.517216 -174.507162 
L 352.352048 -175.788896 
L 359.186881 -176.610521 
L 366.021714 -177.826526 
L 372.856546 -176.741981 
L 379.691379 -175.690301 
L 386.526211 -178.00564 
L 393.361044 -177.662201 
L 400.195876 -181.803189 
L 407.030709 -184.333793 
L 413.865541 -188.869162 
L 420.700374 -189.164947 
L 427.535206 -190.348086 
L 434.370039 -188.409052 
L 441.204871 -190.933905 
L 448.039704 -188.934892 
L 454.874536 -191.465496 
L 461.709369 -193.86464 
L 468.544202 -191.859876 
L 475.379034 -192.976464 
L 482.213867 -193.14161 
L 489.048699 -194.226155 
L 495.883532 -193.265676 
L 502.718364 -196.262963 
L 509.553197 -195.409294 
L 516.388029 -196.329514 
L 523.222862 -195.606484 
L 530.057694 -197.414059 
L 536.892527 -196.953949 
L 543.727359 -197.479789 
L 550.562192 -198.005629 
L 557.397025 -201.448236 
L 564.231857 -198.564333 
L 571.06669 -198.717155 
L 577.901522 -198.860118 
L 584.736355 -198.958713 
L 591.571187 -199.057308 
L 598.40602 -199.451688 
L 605.240852 -201.259262 
L 612.075685 -202.639592 
L 618.910517 -202.179482 
L 625.74535 -206.45193 
L 632.580182 -207.30642 
L 639.415015 -207.24069 
L 646.249847 -208.162553 
L 653.08468 -208.785345 
L 659.919513 -208.851075 
L 666.754345 -207.96372 
L 673.589178 -209.212589 
L 680.42401 -209.311184 
L 687.258843 -209.311184 
L 694.093675 -209.316936 
L 700.928508 -210.067079 
L 707.76334 -209.442644 
L 714.598173 -209.464828 
L 721.433005 -210.099944 
L 728.267838 -210.198539 
L 735.10267 -210.527189 
L 735.10267 -251.805614 
L 735.10267 -251.805614 
L 728.267838 -250.755578 
L 721.433005 -250.491015 
L 714.598173 -249.93231 
L 707.76334 -249.80085 
L 700.928508 -248.157601 
L 694.093675 -247.445252 
L 687.258843 -247.697491 
L 680.42401 -247.335976 
L 673.589178 -247.368841 
L 666.754345 -247.171651 
L 659.919513 -246.382891 
L 653.08468 -244.464397 
L 646.249847 -244.424138 
L 639.415015 -244.883426 
L 632.580182 -244.509587 
L 625.74535 -243.852287 
L 618.910517 -243.129257 
L 612.075685 -240.598653 
L 605.240852 -240.270003 
L 598.40602 -239.086864 
L 591.571187 -239.086864 
L 584.736355 -238.922539 
L 577.901522 -238.232374 
L 571.06669 -237.969454 
L 564.231857 -237.969454 
L 557.397025 -237.805129 
L 550.562192 -237.476479 
L 543.727359 -237.249711 
L 536.892527 -236.852045 
L 530.057694 -236.55626 
L 523.222862 -234.38717 
L 516.388029 -233.368356 
L 509.553197 -233.499816 
L 502.718364 -231.626511 
L 495.883532 -232.218081 
L 489.048699 -231.297862 
L 482.213867 -228.405743 
L 475.379034 -227.715578 
L 468.544202 -227.524961 
L 461.709369 -226.762493 
L 454.874536 -225.313147 
L 448.039704 -224.922875 
L 441.204871 -223.738914 
L 434.370039 -223.081615 
L 427.535206 -223.147345 
L 420.700374 -221.07685 
L 413.865541 -221.93134 
L 407.030709 -217.395972 
L 400.195876 -217.987541 
L 393.361044 -217.987541 
L 386.526211 -217.001592 
L 379.691379 -216.681158 
L 372.856546 -214.635313 
L 366.021714 -214.109473 
L 359.186881 -214.043743 
L 352.352048 -213.452173 
L 345.517216 -213.386443 
L 338.682383 -206.45193 
L 331.847551 -204.414301 
L 325.012718 -203.559812 
L 318.177886 -204.512896 
L 311.343053 -199.814846 
L 304.508221 -198.630063 
L 297.673388 -198.695793 
L 290.838556 -197.512654 
L 284.003723 -195.277834 
L 277.168891 -192.221391 
L 270.334058 -190.380951 
L 263.499225 -189.427867 
L 256.664393 -189.247931 
L 249.82956 -186.338558 
L 242.994728 -185.812718 
L 236.159895 -185.093796 
L 229.325063 -184.859633 
L 222.49023 -182.822004 
L 215.655398 -180.521455 
L 208.820565 -173.455482 
L 201.985733 -170.431903 
L 195.1509 -147.196357 
L 188.316068 -141.214929 
L 181.481235 -136.416641 
L 174.646403 -132.374247 
L 167.81157 -128.233258 
L 160.976737 -124.519515 
L 154.141905 -116.975357 
L 147.307072 -116.073213 
L 140.47224 -113.586976 
L 133.637407 -115.678833 
L 126.802575 -112.983904 
L 119.967742 -111.997954 
L 113.13291 -101.941268 
L 106.298077 -98.819094 
L 99.463245 -93.856481 
L 92.628412 -87.349213 
L 85.79358 -82.64952 
z
" id="m169cd60413" style="stroke:#1f77b4;stroke-opacity:0.2;"/>
    </defs>
    <g clip-path="url(#p89121f5ef7)">
     <use style="fill:#1f77b4;fill-opacity:0.2;stroke:#1f77b4;stroke-opacity:0.2;" x="0" xlink:href="#m169cd60413" y="325.986375"/>
    </g>
   </g>
   <g id="PolyCollection_4">
    <defs>
     <path d="M 85.79358 -135.102041 
L 85.79358 -99.055722 
L 92.628412 -100.067964 
L 99.463245 -103.880302 
L 106.298077 -106.772421 
L 113.13291 -113.421008 
L 119.967742 -111.1106 
L 126.802575 -111.603574 
L 133.637407 -112.129414 
L 140.47224 -116.664783 
L 147.307072 -116.664783 
L 154.141905 -115.908888 
L 160.976737 -118.110842 
L 167.81157 -119.622632 
L 174.646403 -135.167771 
L 181.481235 -138.289945 
L 188.316068 -137.59978 
L 195.1509 -140.327574 
L 201.985733 -141.543579 
L 208.820565 -142.463798 
L 215.655398 -144.928673 
L 222.49023 -146.67709 
L 229.325063 -149.949621 
L 236.159895 -150.71291 
L 242.994728 -154.360924 
L 249.82956 -155.478334 
L 256.664393 -156.267093 
L 263.499225 -156.530013 
L 270.334058 -159.685052 
L 277.168891 -163.464526 
L 284.003723 -167.671244 
L 290.838556 -172.863913 
L 297.673388 -174.802947 
L 304.508221 -175.493112 
L 311.343053 -179.10826 
L 318.177886 -179.6341 
L 325.012718 -180.35713 
L 331.847551 -180.42286 
L 338.682383 -180.486947 
L 345.517216 -180.62005 
L 352.352048 -181.178755 
L 359.186881 -181.441674 
L 366.021714 -182.623992 
L 372.856546 -182.355321 
L 379.691379 -182.460489 
L 386.526211 -182.427624 
L 393.361044 -182.624814 
L 400.195876 -183.117789 
L 407.030709 -183.413574 
L 413.865541 -183.873684 
L 420.700374 -185.648393 
L 427.535206 -186.371423 
L 434.370039 -188.014672 
L 441.204871 -188.080402 
L 448.039704 -187.291642 
L 454.874536 -188.737702 
L 461.709369 -189.099217 
L 468.544202 -190.150896 
L 475.379034 -190.085166 
L 482.213867 -191.695551 
L 489.048699 -191.761281 
L 495.883532 -192.385716 
L 502.718364 -191.728416 
L 509.553197 -194.185074 
L 516.388029 -193.01015 
L 523.222862 -195.04778 
L 530.057694 -195.770809 
L 536.892527 -196.789624 
L 543.727359 -196.099459 
L 550.562192 -196.888219 
L 557.397025 -196.493839 
L 564.231857 -197.184004 
L 571.06669 -197.184004 
L 577.901522 -197.512654 
L 584.736355 -200.072015 
L 591.571187 -200.832017 
L 598.40602 -201.094937 
L 605.240852 -203.545844 
L 612.075685 -204.118516 
L 618.910517 -208.604587 
L 625.74535 -205.663171 
L 632.580182 -205.794631 
L 639.415015 -210.165674 
L 646.249847 -211.546004 
L 653.08468 -213.649363 
L 659.919513 -213.747958 
L 666.754345 -213.550768 
L 673.589178 -214.109473 
L 680.42401 -215.785587 
L 687.258843 -215.851317 
L 694.093675 -215.259747 
L 700.928508 -216.640077 
L 707.76334 -216.377157 
L 714.598173 -217.560297 
L 721.433005 -216.604747 
L 728.267838 -216.870132 
L 735.10267 -217.461702 
L 735.10267 -249.899445 
L 735.10267 -249.899445 
L 728.267838 -249.60366 
L 721.433005 -249.34074 
L 714.598173 -247.927546 
L 707.76334 -247.237381 
L 700.928508 -245.462672 
L 694.093675 -244.936832 
L 687.258843 -242.143308 
L 680.42401 -241.781793 
L 673.589178 -242.110443 
L 666.754345 -241.781793 
L 659.919513 -239.875624 
L 653.08468 -240.762978 
L 646.249847 -239.119729 
L 639.415015 -238.265239 
L 632.580182 -237.542209 
L 625.74535 -235.70177 
L 618.910517 -234.71582 
L 612.075685 -232.941111 
L 605.240852 -233.043814 
L 598.40602 -230.456518 
L 591.571187 -228.927474 
L 584.736355 -229.884667 
L 577.901522 -230.509102 
L 571.06669 -229.720342 
L 564.231857 -228.214304 
L 557.397025 -227.091143 
L 550.562192 -224.051953 
L 543.727359 -222.45718 
L 536.892527 -222.490045 
L 530.057694 -219.74171 
L 523.222862 -220.320956 
L 516.388029 -216.015642 
L 509.553197 -215.834885 
L 502.718364 -215.358342 
L 495.883532 -214.227787 
L 489.048699 -214.38636 
L 482.213867 -212.597683 
L 475.379034 -212.104708 
L 468.544202 -212.038978 
L 461.709369 -211.381679 
L 454.874536 -211.177916 
L 448.039704 -210.954434 
L 441.204871 -210.954434 
L 434.370039 -210.428594 
L 427.535206 -208.346597 
L 420.700374 -208.193775 
L 413.865541 -204.217111 
L 407.030709 -200.437638 
L 400.195876 -200.207583 
L 393.361044 -199.550283 
L 386.526211 -199.320228 
L 379.691379 -199.190411 
L 372.856546 -199.188768 
L 366.021714 -198.925848 
L 359.186881 -199.057308 
L 352.352048 -198.367143 
L 345.517216 -197.775574 
L 338.682383 -197.742709 
L 331.847551 -197.939899 
L 325.012718 -197.972764 
L 318.177886 -197.676979 
L 311.343053 -197.742709 
L 304.508221 -195.540754 
L 297.673388 -194.696946 
L 290.838556 -194.52194 
L 284.003723 -192.451445 
L 277.168891 -190.775331 
L 270.334058 -189.263542 
L 263.499225 -187.817482 
L 256.664393 -187.554562 
L 249.82956 -189.887976 
L 242.994728 -186.897262 
L 236.159895 -183.314979 
L 229.325063 -181.047295 
L 222.49023 -177.990851 
L 215.655398 -179.075395 
L 208.820565 -179.04253 
L 201.985733 -177.333551 
L 195.1509 -174.671487 
L 188.316068 -173.488347 
L 181.481235 -168.465755 
L 174.646403 -167.868434 
L 167.81157 -164.74626 
L 160.976737 -157.384503 
L 154.141905 -154.459519 
L 147.307072 -154.426654 
L 140.47224 -153.27638 
L 133.637407 -152.35616 
L 126.802575 -152.42189 
L 119.967742 -151.96178 
L 113.13291 -150.515721 
L 106.298077 -145.848892 
L 99.463245 -143.482613 
L 92.628412 -136.67956 
L 85.79358 -135.102041 
z
" id="meaea6381ec" style="stroke:#aec7e8;stroke-opacity:0.2;"/>
    </defs>
    <g clip-path="url(#p89121f5ef7)">
     <use style="fill:#aec7e8;fill-opacity:0.2;stroke:#aec7e8;stroke-opacity:0.2;" x="0" xlink:href="#meaea6381ec" y="325.986375"/>
    </g>
   </g>
   <g id="matplotlib.axis_1">
    <g id="xtick_1">
     <g id="line2d_1">
      <defs>
       <path d="M 0 0 
L 0 3.5 
" id="mca1f8d2ee1" style="stroke:#000000;stroke-width:0.8;"/>
      </defs>
      <g>
       <use style="stroke:#000000;stroke-width:0.8;" x="85.79358" xlink:href="#mca1f8d2ee1" y="288.430125"/>
      </g>
     </g>
     <g id="text_1">
      <!-- 15m -->
      <g transform="translate(74.560767 303.028562)scale(0.1 -0.1)">
       <defs>
        <path d="M 12.40625 8.296875 
L 28.515625 8.296875 
L 28.515625 63.921875 
L 10.984375 60.40625 
L 10.984375 69.390625 
L 28.421875 72.90625 
L 38.28125 72.90625 
L 38.28125 8.296875 
L 54.390625 8.296875 
L 54.390625 0 
L 12.40625 0 
z
" id="DejaVuSans-49"/>
        <path d="M 10.796875 72.90625 
L 49.515625 72.90625 
L 49.515625 64.59375 
L 19.828125 64.59375 
L 19.828125 46.734375 
Q 21.96875 47.46875 24.109375 47.828125 
Q 26.265625 48.1875 28.421875 48.1875 
Q 40.625 48.1875 47.75 41.5 
Q 54.890625 34.8125 54.890625 23.390625 
Q 54.890625 11.625 47.5625 5.09375 
Q 40.234375 -1.421875 26.90625 -1.421875 
Q 22.3125 -1.421875 17.546875 -0.640625 
Q 12.796875 0.140625 7.71875 1.703125 
L 7.71875 11.625 
Q 12.109375 9.234375 16.796875 8.0625 
Q 21.484375 6.890625 26.703125 6.890625 
Q 35.15625 6.890625 40.078125 11.328125 
Q 45.015625 15.765625 45.015625 23.390625 
Q 45.015625 31 40.078125 35.4375 
Q 35.15625 39.890625 26.703125 39.890625 
Q 22.75 39.890625 18.8125 39.015625 
Q 14.890625 38.140625 10.796875 36.28125 
z
" id="DejaVuSans-53"/>
        <path d="M 52 44.1875 
Q 55.375 50.25 60.0625 53.125 
Q 64.75 56 71.09375 56 
Q 79.640625 56 84.28125 50.015625 
Q 88.921875 44.046875 88.921875 33.015625 
L 88.921875 0 
L 79.890625 0 
L 79.890625 32.71875 
Q 79.890625 40.578125 77.09375 44.375 
Q 74.3125 48.1875 68.609375 48.1875 
Q 61.625 48.1875 57.5625 43.546875 
Q 53.515625 38.921875 53.515625 30.90625 
L 53.515625 0 
L 44.484375 0 
L 44.484375 32.71875 
Q 44.484375 40.625 41.703125 44.40625 
Q 38.921875 48.1875 33.109375 48.1875 
Q 26.21875 48.1875 22.15625 43.53125 
Q 18.109375 38.875 18.109375 30.90625 
L 18.109375 0 
L 9.078125 0 
L 9.078125 54.6875 
L 18.109375 54.6875 
L 18.109375 46.1875 
Q 21.1875 51.21875 25.484375 53.609375 
Q 29.78125 56 35.6875 56 
Q 41.65625 56 45.828125 52.96875 
Q 50 49.953125 52 44.1875 
z
" id="DejaVuSans-109"/>
       </defs>
       <use xlink:href="#DejaVuSans-49"/>
       <use x="63.623047" xlink:href="#DejaVuSans-53"/>
       <use x="127.246094" xlink:href="#DejaVuSans-109"/>
      </g>
     </g>
    </g>
    <g id="xtick_2">
     <g id="line2d_2">
      <g>
       <use style="stroke:#000000;stroke-width:0.8;" x="140.47224" xlink:href="#mca1f8d2ee1" y="288.430125"/>
      </g>
     </g>
     <g id="text_2">
      <!-- 2h:15m -->
      <g transform="translate(121.205052 303.028562)scale(0.1 -0.1)">
       <defs>
        <path d="M 19.1875 8.296875 
L 53.609375 8.296875 
L 53.609375 0 
L 7.328125 0 
L 7.328125 8.296875 
Q 12.9375 14.109375 22.625 23.890625 
Q 32.328125 33.6875 34.8125 36.53125 
Q 39.546875 41.84375 41.421875 45.53125 
Q 43.3125 49.21875 43.3125 52.78125 
Q 43.3125 58.59375 39.234375 62.25 
Q 35.15625 65.921875 28.609375 65.921875 
Q 23.96875 65.921875 18.8125 64.3125 
Q 13.671875 62.703125 7.8125 59.421875 
L 7.8125 69.390625 
Q 13.765625 71.78125 18.9375 73 
Q 24.125 74.21875 28.421875 74.21875 
Q 39.75 74.21875 46.484375 68.546875 
Q 53.21875 62.890625 53.21875 53.421875 
Q 53.21875 48.921875 51.53125 44.890625 
Q 49.859375 40.875 45.40625 35.40625 
Q 44.1875 33.984375 37.640625 27.21875 
Q 31.109375 20.453125 19.1875 8.296875 
z
" id="DejaVuSans-50"/>
        <path d="M 54.890625 33.015625 
L 54.890625 0 
L 45.90625 0 
L 45.90625 32.71875 
Q 45.90625 40.484375 42.875 44.328125 
Q 39.84375 48.1875 33.796875 48.1875 
Q 26.515625 48.1875 22.3125 43.546875 
Q 18.109375 38.921875 18.109375 30.90625 
L 18.109375 0 
L 9.078125 0 
L 9.078125 75.984375 
L 18.109375 75.984375 
L 18.109375 46.1875 
Q 21.34375 51.125 25.703125 53.5625 
Q 30.078125 56 35.796875 56 
Q 45.21875 56 50.046875 50.171875 
Q 54.890625 44.34375 54.890625 33.015625 
z
" id="DejaVuSans-104"/>
        <path d="M 11.71875 12.40625 
L 22.015625 12.40625 
L 22.015625 0 
L 11.71875 0 
z
M 11.71875 51.703125 
L 22.015625 51.703125 
L 22.015625 39.3125 
L 11.71875 39.3125 
z
" id="DejaVuSans-58"/>
       </defs>
       <use xlink:href="#DejaVuSans-50"/>
       <use x="63.623047" xlink:href="#DejaVuSans-104"/>
       <use x="127.001953" xlink:href="#DejaVuSans-58"/>
       <use x="160.693359" xlink:href="#DejaVuSans-49"/>
       <use x="224.316406" xlink:href="#DejaVuSans-53"/>
       <use x="287.939453" xlink:href="#DejaVuSans-109"/>
      </g>
     </g>
    </g>
    <g id="xtick_3">
     <g id="line2d_3">
      <g>
       <use style="stroke:#000000;stroke-width:0.8;" x="195.1509" xlink:href="#mca1f8d2ee1" y="288.430125"/>
      </g>
     </g>
     <g id="text_3">
      <!-- 4h:15m -->
      <g transform="translate(175.883713 303.028562)scale(0.1 -0.1)">
       <defs>
        <path d="M 37.796875 64.3125 
L 12.890625 25.390625 
L 37.796875 25.390625 
z
M 35.203125 72.90625 
L 47.609375 72.90625 
L 47.609375 25.390625 
L 58.015625 25.390625 
L 58.015625 17.1875 
L 47.609375 17.1875 
L 47.609375 0 
L 37.796875 0 
L 37.796875 17.1875 
L 4.890625 17.1875 
L 4.890625 26.703125 
z
" id="DejaVuSans-52"/>
       </defs>
       <use xlink:href="#DejaVuSans-52"/>
       <use x="63.623047" xlink:href="#DejaVuSans-104"/>
       <use x="127.001953" xlink:href="#DejaVuSans-58"/>
       <use x="160.693359" xlink:href="#DejaVuSans-49"/>
       <use x="224.316406" xlink:href="#DejaVuSans-53"/>
       <use x="287.939453" xlink:href="#DejaVuSans-109"/>
      </g>
     </g>
    </g>
    <g id="xtick_4">
     <g id="line2d_4">
      <g>
       <use style="stroke:#000000;stroke-width:0.8;" x="249.82956" xlink:href="#mca1f8d2ee1" y="288.430125"/>
      </g>
     </g>
     <g id="text_4">
      <!-- 6h:15m -->
      <g transform="translate(230.562373 303.028562)scale(0.1 -0.1)">
       <defs>
        <path d="M 33.015625 40.375 
Q 26.375 40.375 22.484375 35.828125 
Q 18.609375 31.296875 18.609375 23.390625 
Q 18.609375 15.53125 22.484375 10.953125 
Q 26.375 6.390625 33.015625 6.390625 
Q 39.65625 6.390625 43.53125 10.953125 
Q 47.40625 15.53125 47.40625 23.390625 
Q 47.40625 31.296875 43.53125 35.828125 
Q 39.65625 40.375 33.015625 40.375 
z
M 52.59375 71.296875 
L 52.59375 62.3125 
Q 48.875 64.0625 45.09375 64.984375 
Q 41.3125 65.921875 37.59375 65.921875 
Q 27.828125 65.921875 22.671875 59.328125 
Q 17.53125 52.734375 16.796875 39.40625 
Q 19.671875 43.65625 24.015625 45.921875 
Q 28.375 48.1875 33.59375 48.1875 
Q 44.578125 48.1875 50.953125 41.515625 
Q 57.328125 34.859375 57.328125 23.390625 
Q 57.328125 12.15625 50.6875 5.359375 
Q 44.046875 -1.421875 33.015625 -1.421875 
Q 20.359375 -1.421875 13.671875 8.265625 
Q 6.984375 17.96875 6.984375 36.375 
Q 6.984375 53.65625 15.1875 63.9375 
Q 23.390625 74.21875 37.203125 74.21875 
Q 40.921875 74.21875 44.703125 73.484375 
Q 48.484375 72.75 52.59375 71.296875 
z
" id="DejaVuSans-54"/>
       </defs>
       <use xlink:href="#DejaVuSans-54"/>
       <use x="63.623047" xlink:href="#DejaVuSans-104"/>
       <use x="127.001953" xlink:href="#DejaVuSans-58"/>
       <use x="160.693359" xlink:href="#DejaVuSans-49"/>
       <use x="224.316406" xlink:href="#DejaVuSans-53"/>
       <use x="287.939453" xlink:href="#DejaVuSans-109"/>
      </g>
     </g>
    </g>
    <g id="xtick_5">
     <g id="line2d_5">
      <g>
       <use style="stroke:#000000;stroke-width:0.8;" x="304.508221" xlink:href="#mca1f8d2ee1" y="288.430125"/>
      </g>
     </g>
     <g id="text_5">
      <!-- 8h:15m -->
      <g transform="translate(285.241033 303.028562)scale(0.1 -0.1)">
       <defs>
        <path d="M 31.78125 34.625 
Q 24.75 34.625 20.71875 30.859375 
Q 16.703125 27.09375 16.703125 20.515625 
Q 16.703125 13.921875 20.71875 10.15625 
Q 24.75 6.390625 31.78125 6.390625 
Q 38.8125 6.390625 42.859375 10.171875 
Q 46.921875 13.96875 46.921875 20.515625 
Q 46.921875 27.09375 42.890625 30.859375 
Q 38.875 34.625 31.78125 34.625 
z
M 21.921875 38.8125 
Q 15.578125 40.375 12.03125 44.71875 
Q 8.5 49.078125 8.5 55.328125 
Q 8.5 64.0625 14.71875 69.140625 
Q 20.953125 74.21875 31.78125 74.21875 
Q 42.671875 74.21875 48.875 69.140625 
Q 55.078125 64.0625 55.078125 55.328125 
Q 55.078125 49.078125 51.53125 44.71875 
Q 48 40.375 41.703125 38.8125 
Q 48.828125 37.15625 52.796875 32.3125 
Q 56.78125 27.484375 56.78125 20.515625 
Q 56.78125 9.90625 50.3125 4.234375 
Q 43.84375 -1.421875 31.78125 -1.421875 
Q 19.734375 -1.421875 13.25 4.234375 
Q 6.78125 9.90625 6.78125 20.515625 
Q 6.78125 27.484375 10.78125 32.3125 
Q 14.796875 37.15625 21.921875 38.8125 
z
M 18.3125 54.390625 
Q 18.3125 48.734375 21.84375 45.5625 
Q 25.390625 42.390625 31.78125 42.390625 
Q 38.140625 42.390625 41.71875 45.5625 
Q 45.3125 48.734375 45.3125 54.390625 
Q 45.3125 60.0625 41.71875 63.234375 
Q 38.140625 66.40625 31.78125 66.40625 
Q 25.390625 66.40625 21.84375 63.234375 
Q 18.3125 60.0625 18.3125 54.390625 
z
" id="DejaVuSans-56"/>
       </defs>
       <use xlink:href="#DejaVuSans-56"/>
       <use x="63.623047" xlink:href="#DejaVuSans-104"/>
       <use x="127.001953" xlink:href="#DejaVuSans-58"/>
       <use x="160.693359" xlink:href="#DejaVuSans-49"/>
       <use x="224.316406" xlink:href="#DejaVuSans-53"/>
       <use x="287.939453" xlink:href="#DejaVuSans-109"/>
      </g>
     </g>
    </g>
    <g id="xtick_6">
     <g id="line2d_6">
      <g>
       <use style="stroke:#000000;stroke-width:0.8;" x="359.186881" xlink:href="#mca1f8d2ee1" y="288.430125"/>
      </g>
     </g>
     <g id="text_6">
      <!-- 10h:15m -->
      <g transform="translate(336.738443 303.028562)scale(0.1 -0.1)">
       <defs>
        <path d="M 31.78125 66.40625 
Q 24.171875 66.40625 20.328125 58.90625 
Q 16.5 51.421875 16.5 36.375 
Q 16.5 21.390625 20.328125 13.890625 
Q 24.171875 6.390625 31.78125 6.390625 
Q 39.453125 6.390625 43.28125 13.890625 
Q 47.125 21.390625 47.125 36.375 
Q 47.125 51.421875 43.28125 58.90625 
Q 39.453125 66.40625 31.78125 66.40625 
z
M 31.78125 74.21875 
Q 44.046875 74.21875 50.515625 64.515625 
Q 56.984375 54.828125 56.984375 36.375 
Q 56.984375 17.96875 50.515625 8.265625 
Q 44.046875 -1.421875 31.78125 -1.421875 
Q 19.53125 -1.421875 13.0625 8.265625 
Q 6.59375 17.96875 6.59375 36.375 
Q 6.59375 54.828125 13.0625 64.515625 
Q 19.53125 74.21875 31.78125 74.21875 
z
" id="DejaVuSans-48"/>
       </defs>
       <use xlink:href="#DejaVuSans-49"/>
       <use x="63.623047" xlink:href="#DejaVuSans-48"/>
       <use x="127.246094" xlink:href="#DejaVuSans-104"/>
       <use x="190.625" xlink:href="#DejaVuSans-58"/>
       <use x="224.316406" xlink:href="#DejaVuSans-49"/>
       <use x="287.939453" xlink:href="#DejaVuSans-53"/>
       <use x="351.5625" xlink:href="#DejaVuSans-109"/>
      </g>
     </g>
    </g>
    <g id="xtick_7">
     <g id="line2d_7">
      <g>
       <use style="stroke:#000000;stroke-width:0.8;" x="413.865541" xlink:href="#mca1f8d2ee1" y="288.430125"/>
      </g>
     </g>
     <g id="text_7">
      <!-- 12h:15m -->
      <g transform="translate(391.417104 303.028562)scale(0.1 -0.1)">
       <use xlink:href="#DejaVuSans-49"/>
       <use x="63.623047" xlink:href="#DejaVuSans-50"/>
       <use x="127.246094" xlink:href="#DejaVuSans-104"/>
       <use x="190.625" xlink:href="#DejaVuSans-58"/>
       <use x="224.316406" xlink:href="#DejaVuSans-49"/>
       <use x="287.939453" xlink:href="#DejaVuSans-53"/>
       <use x="351.5625" xlink:href="#DejaVuSans-109"/>
      </g>
     </g>
    </g>
    <g id="xtick_8">
     <g id="line2d_8">
      <g>
       <use style="stroke:#000000;stroke-width:0.8;" x="468.544202" xlink:href="#mca1f8d2ee1" y="288.430125"/>
      </g>
     </g>
     <g id="text_8">
      <!-- 14h:15m -->
      <g transform="translate(446.095764 303.028562)scale(0.1 -0.1)">
       <use xlink:href="#DejaVuSans-49"/>
       <use x="63.623047" xlink:href="#DejaVuSans-52"/>
       <use x="127.246094" xlink:href="#DejaVuSans-104"/>
       <use x="190.625" xlink:href="#DejaVuSans-58"/>
       <use x="224.316406" xlink:href="#DejaVuSans-49"/>
       <use x="287.939453" xlink:href="#DejaVuSans-53"/>
       <use x="351.5625" xlink:href="#DejaVuSans-109"/>
      </g>
     </g>
    </g>
    <g id="xtick_9">
     <g id="line2d_9">
      <g>
       <use style="stroke:#000000;stroke-width:0.8;" x="523.222862" xlink:href="#mca1f8d2ee1" y="288.430125"/>
      </g>
     </g>
     <g id="text_9">
      <!-- 16h:15m -->
      <g transform="translate(500.774424 303.028562)scale(0.1 -0.1)">
       <use xlink:href="#DejaVuSans-49"/>
       <use x="63.623047" xlink:href="#DejaVuSans-54"/>
       <use x="127.246094" xlink:href="#DejaVuSans-104"/>
       <use x="190.625" xlink:href="#DejaVuSans-58"/>
       <use x="224.316406" xlink:href="#DejaVuSans-49"/>
       <use x="287.939453" xlink:href="#DejaVuSans-53"/>
       <use x="351.5625" xlink:href="#DejaVuSans-109"/>
      </g>
     </g>
    </g>
    <g id="xtick_10">
     <g id="line2d_10">
      <g>
       <use style="stroke:#000000;stroke-width:0.8;" x="577.901522" xlink:href="#mca1f8d2ee1" y="288.430125"/>
      </g>
     </g>
     <g id="text_10">
      <!-- 18h:15m -->
      <g transform="translate(555.453085 303.028562)scale(0.1 -0.1)">
       <use xlink:href="#DejaVuSans-49"/>
       <use x="63.623047" xlink:href="#DejaVuSans-56"/>
       <use x="127.246094" xlink:href="#DejaVuSans-104"/>
       <use x="190.625" xlink:href="#DejaVuSans-58"/>
       <use x="224.316406" xlink:href="#DejaVuSans-49"/>
       <use x="287.939453" xlink:href="#DejaVuSans-53"/>
       <use x="351.5625" xlink:href="#DejaVuSans-109"/>
      </g>
     </g>
    </g>
    <g id="xtick_11">
     <g id="line2d_11">
      <g>
       <use style="stroke:#000000;stroke-width:0.8;" x="632.580182" xlink:href="#mca1f8d2ee1" y="288.430125"/>
      </g>
     </g>
     <g id="text_11">
      <!-- 20h:15m -->
      <g transform="translate(610.131745 303.028562)scale(0.1 -0.1)">
       <use xlink:href="#DejaVuSans-50"/>
       <use x="63.623047" xlink:href="#DejaVuSans-48"/>
       <use x="127.246094" xlink:href="#DejaVuSans-104"/>
       <use x="190.625" xlink:href="#DejaVuSans-58"/>
       <use x="224.316406" xlink:href="#DejaVuSans-49"/>
       <use x="287.939453" xlink:href="#DejaVuSans-53"/>
       <use x="351.5625" xlink:href="#DejaVuSans-109"/>
      </g>
     </g>
    </g>
    <g id="xtick_12">
     <g id="line2d_12">
      <g>
       <use style="stroke:#000000;stroke-width:0.8;" x="687.258843" xlink:href="#mca1f8d2ee1" y="288.430125"/>
      </g>
     </g>
     <g id="text_12">
      <!-- 22h:15m -->
      <g transform="translate(664.810405 303.028562)scale(0.1 -0.1)">
       <use xlink:href="#DejaVuSans-50"/>
       <use x="63.623047" xlink:href="#DejaVuSans-50"/>
       <use x="127.246094" xlink:href="#DejaVuSans-104"/>
       <use x="190.625" xlink:href="#DejaVuSans-58"/>
       <use x="224.316406" xlink:href="#DejaVuSans-49"/>
       <use x="287.939453" xlink:href="#DejaVuSans-53"/>
       <use x="351.5625" xlink:href="#DejaVuSans-109"/>
      </g>
     </g>
    </g>
    <g id="text_13">
     <!-- Time (hour:minute) -->
     <g transform="translate(362.041094 316.706687)scale(0.1 -0.1)">
      <defs>
       <path d="M -0.296875 72.90625 
L 61.375 72.90625 
L 61.375 64.59375 
L 35.5 64.59375 
L 35.5 0 
L 25.59375 0 
L 25.59375 64.59375 
L -0.296875 64.59375 
z
" id="DejaVuSans-84"/>
       <path d="M 9.421875 54.6875 
L 18.40625 54.6875 
L 18.40625 0 
L 9.421875 0 
z
M 9.421875 75.984375 
L 18.40625 75.984375 
L 18.40625 64.59375 
L 9.421875 64.59375 
z
" id="DejaVuSans-105"/>
       <path d="M 56.203125 29.59375 
L 56.203125 25.203125 
L 14.890625 25.203125 
Q 15.484375 15.921875 20.484375 11.0625 
Q 25.484375 6.203125 34.421875 6.203125 
Q 39.59375 6.203125 44.453125 7.46875 
Q 49.3125 8.734375 54.109375 11.28125 
L 54.109375 2.78125 
Q 49.265625 0.734375 44.1875 -0.34375 
Q 39.109375 -1.421875 33.890625 -1.421875 
Q 20.796875 -1.421875 13.15625 6.1875 
Q 5.515625 13.8125 5.515625 26.8125 
Q 5.515625 40.234375 12.765625 48.109375 
Q 20.015625 56 32.328125 56 
Q 43.359375 56 49.78125 48.890625 
Q 56.203125 41.796875 56.203125 29.59375 
z
M 47.21875 32.234375 
Q 47.125 39.59375 43.09375 43.984375 
Q 39.0625 48.390625 32.421875 48.390625 
Q 24.90625 48.390625 20.390625 44.140625 
Q 15.875 39.890625 15.1875 32.171875 
z
" id="DejaVuSans-101"/>
       <path id="DejaVuSans-32"/>
       <path d="M 31 75.875 
Q 24.46875 64.65625 21.28125 53.65625 
Q 18.109375 42.671875 18.109375 31.390625 
Q 18.109375 20.125 21.3125 9.0625 
Q 24.515625 -2 31 -13.1875 
L 23.1875 -13.1875 
Q 15.875 -1.703125 12.234375 9.375 
Q 8.59375 20.453125 8.59375 31.390625 
Q 8.59375 42.28125 12.203125 53.3125 
Q 15.828125 64.359375 23.1875 75.875 
z
" id="DejaVuSans-40"/>
       <path d="M 30.609375 48.390625 
Q 23.390625 48.390625 19.1875 42.75 
Q 14.984375 37.109375 14.984375 27.296875 
Q 14.984375 17.484375 19.15625 11.84375 
Q 23.34375 6.203125 30.609375 6.203125 
Q 37.796875 6.203125 41.984375 11.859375 
Q 46.1875 17.53125 46.1875 27.296875 
Q 46.1875 37.015625 41.984375 42.703125 
Q 37.796875 48.390625 30.609375 48.390625 
z
M 30.609375 56 
Q 42.328125 56 49.015625 48.375 
Q 55.71875 40.765625 55.71875 27.296875 
Q 55.71875 13.875 49.015625 6.21875 
Q 42.328125 -1.421875 30.609375 -1.421875 
Q 18.84375 -1.421875 12.171875 6.21875 
Q 5.515625 13.875 5.515625 27.296875 
Q 5.515625 40.765625 12.171875 48.375 
Q 18.84375 56 30.609375 56 
z
" id="DejaVuSans-111"/>
       <path d="M 8.5 21.578125 
L 8.5 54.6875 
L 17.484375 54.6875 
L 17.484375 21.921875 
Q 17.484375 14.15625 20.5 10.265625 
Q 23.53125 6.390625 29.59375 6.390625 
Q 36.859375 6.390625 41.078125 11.03125 
Q 45.3125 15.671875 45.3125 23.6875 
L 45.3125 54.6875 
L 54.296875 54.6875 
L 54.296875 0 
L 45.3125 0 
L 45.3125 8.40625 
Q 42.046875 3.421875 37.71875 1 
Q 33.40625 -1.421875 27.6875 -1.421875 
Q 18.265625 -1.421875 13.375 4.4375 
Q 8.5 10.296875 8.5 21.578125 
z
M 31.109375 56 
z
" id="DejaVuSans-117"/>
       <path d="M 41.109375 46.296875 
Q 39.59375 47.171875 37.8125 47.578125 
Q 36.03125 48 33.890625 48 
Q 26.265625 48 22.1875 43.046875 
Q 18.109375 38.09375 18.109375 28.8125 
L 18.109375 0 
L 9.078125 0 
L 9.078125 54.6875 
L 18.109375 54.6875 
L 18.109375 46.1875 
Q 20.953125 51.171875 25.484375 53.578125 
Q 30.03125 56 36.53125 56 
Q 37.453125 56 38.578125 55.875 
Q 39.703125 55.765625 41.0625 55.515625 
z
" id="DejaVuSans-114"/>
       <path d="M 54.890625 33.015625 
L 54.890625 0 
L 45.90625 0 
L 45.90625 32.71875 
Q 45.90625 40.484375 42.875 44.328125 
Q 39.84375 48.1875 33.796875 48.1875 
Q 26.515625 48.1875 22.3125 43.546875 
Q 18.109375 38.921875 18.109375 30.90625 
L 18.109375 0 
L 9.078125 0 
L 9.078125 54.6875 
L 18.109375 54.6875 
L 18.109375 46.1875 
Q 21.34375 51.125 25.703125 53.5625 
Q 30.078125 56 35.796875 56 
Q 45.21875 56 50.046875 50.171875 
Q 54.890625 44.34375 54.890625 33.015625 
z
" id="DejaVuSans-110"/>
       <path d="M 18.3125 70.21875 
L 18.3125 54.6875 
L 36.8125 54.6875 
L 36.8125 47.703125 
L 18.3125 47.703125 
L 18.3125 18.015625 
Q 18.3125 11.328125 20.140625 9.421875 
Q 21.96875 7.515625 27.59375 7.515625 
L 36.8125 7.515625 
L 36.8125 0 
L 27.59375 0 
Q 17.1875 0 13.234375 3.875 
Q 9.28125 7.765625 9.28125 18.015625 
L 9.28125 47.703125 
L 2.6875 47.703125 
L 2.6875 54.6875 
L 9.28125 54.6875 
L 9.28125 70.21875 
z
" id="DejaVuSans-116"/>
       <path d="M 8.015625 75.875 
L 15.828125 75.875 
Q 23.140625 64.359375 26.78125 53.3125 
Q 30.421875 42.28125 30.421875 31.390625 
Q 30.421875 20.453125 26.78125 9.375 
Q 23.140625 -1.703125 15.828125 -13.1875 
L 8.015625 -13.1875 
Q 14.5 -2 17.703125 9.0625 
Q 20.90625 20.125 20.90625 31.390625 
Q 20.90625 42.671875 17.703125 53.65625 
Q 14.5 64.65625 8.015625 75.875 
z
" id="DejaVuSans-41"/>
      </defs>
      <use xlink:href="#DejaVuSans-84"/>
      <use x="57.958984" xlink:href="#DejaVuSans-105"/>
      <use x="85.742188" xlink:href="#DejaVuSans-109"/>
      <use x="183.154297" xlink:href="#DejaVuSans-101"/>
      <use x="244.677734" xlink:href="#DejaVuSans-32"/>
      <use x="276.464844" xlink:href="#DejaVuSans-40"/>
      <use x="315.478516" xlink:href="#DejaVuSans-104"/>
      <use x="378.857422" xlink:href="#DejaVuSans-111"/>
      <use x="440.039062" xlink:href="#DejaVuSans-117"/>
      <use x="503.417969" xlink:href="#DejaVuSans-114"/>
      <use x="542.78125" xlink:href="#DejaVuSans-58"/>
      <use x="576.472656" xlink:href="#DejaVuSans-109"/>
      <use x="673.884766" xlink:href="#DejaVuSans-105"/>
      <use x="701.667969" xlink:href="#DejaVuSans-110"/>
      <use x="765.046875" xlink:href="#DejaVuSans-117"/>
      <use x="828.425781" xlink:href="#DejaVuSans-116"/>
      <use x="867.634766" xlink:href="#DejaVuSans-101"/>
      <use x="929.158203" xlink:href="#DejaVuSans-41"/>
     </g>
    </g>
   </g>
   <g id="matplotlib.axis_2">
    <g id="ytick_1">
     <g id="line2d_13">
      <defs>
       <path d="M 0 0 
L -3.5 0 
" id="m50bccf9e53" style="stroke:#000000;stroke-width:0.8;"/>
      </defs>
      <g>
       <use style="stroke:#000000;stroke-width:0.8;" x="53.328125" xlink:href="#m50bccf9e53" y="258.684805"/>
      </g>
     </g>
     <g id="text_14">
      <!-- 5200 -->
      <g transform="translate(20.878125 262.484023)scale(0.1 -0.1)">
       <use xlink:href="#DejaVuSans-53"/>
       <use x="63.623047" xlink:href="#DejaVuSans-50"/>
       <use x="127.246094" xlink:href="#DejaVuSans-48"/>
       <use x="190.869141" xlink:href="#DejaVuSans-48"/>
      </g>
     </g>
    </g>
    <g id="ytick_2">
     <g id="line2d_14">
      <g>
       <use style="stroke:#000000;stroke-width:0.8;" x="53.328125" xlink:href="#m50bccf9e53" y="225.819816"/>
      </g>
     </g>
     <g id="text_15">
      <!-- 5400 -->
      <g transform="translate(20.878125 229.619035)scale(0.1 -0.1)">
       <use xlink:href="#DejaVuSans-53"/>
       <use x="63.623047" xlink:href="#DejaVuSans-52"/>
       <use x="127.246094" xlink:href="#DejaVuSans-48"/>
       <use x="190.869141" xlink:href="#DejaVuSans-48"/>
      </g>
     </g>
    </g>
    <g id="ytick_3">
     <g id="line2d_15">
      <g>
       <use style="stroke:#000000;stroke-width:0.8;" x="53.328125" xlink:href="#m50bccf9e53" y="192.954828"/>
      </g>
     </g>
     <g id="text_16">
      <!-- 5600 -->
      <g transform="translate(20.878125 196.754047)scale(0.1 -0.1)">
       <use xlink:href="#DejaVuSans-53"/>
       <use x="63.623047" xlink:href="#DejaVuSans-54"/>
       <use x="127.246094" xlink:href="#DejaVuSans-48"/>
       <use x="190.869141" xlink:href="#DejaVuSans-48"/>
      </g>
     </g>
    </g>
    <g id="ytick_4">
     <g id="line2d_16">
      <g>
       <use style="stroke:#000000;stroke-width:0.8;" x="53.328125" xlink:href="#m50bccf9e53" y="160.08984"/>
      </g>
     </g>
     <g id="text_17">
      <!-- 5800 -->
      <g transform="translate(20.878125 163.889059)scale(0.1 -0.1)">
       <use xlink:href="#DejaVuSans-53"/>
       <use x="63.623047" xlink:href="#DejaVuSans-56"/>
       <use x="127.246094" xlink:href="#DejaVuSans-48"/>
       <use x="190.869141" xlink:href="#DejaVuSans-48"/>
      </g>
     </g>
    </g>
    <g id="ytick_5">
     <g id="line2d_17">
      <g>
       <use style="stroke:#000000;stroke-width:0.8;" x="53.328125" xlink:href="#m50bccf9e53" y="127.224852"/>
      </g>
     </g>
     <g id="text_18">
      <!-- 6000 -->
      <g transform="translate(20.878125 131.024071)scale(0.1 -0.1)">
       <use xlink:href="#DejaVuSans-54"/>
       <use x="63.623047" xlink:href="#DejaVuSans-48"/>
       <use x="127.246094" xlink:href="#DejaVuSans-48"/>
       <use x="190.869141" xlink:href="#DejaVuSans-48"/>
      </g>
     </g>
    </g>
    <g id="ytick_6">
     <g id="line2d_18">
      <g>
       <use style="stroke:#000000;stroke-width:0.8;" x="53.328125" xlink:href="#m50bccf9e53" y="94.359864"/>
      </g>
     </g>
     <g id="text_19">
      <!-- 6200 -->
      <g transform="translate(20.878125 98.159082)scale(0.1 -0.1)">
       <use xlink:href="#DejaVuSans-54"/>
       <use x="63.623047" xlink:href="#DejaVuSans-50"/>
       <use x="127.246094" xlink:href="#DejaVuSans-48"/>
       <use x="190.869141" xlink:href="#DejaVuSans-48"/>
      </g>
     </g>
    </g>
    <g id="ytick_7">
     <g id="line2d_19">
      <g>
       <use style="stroke:#000000;stroke-width:0.8;" x="53.328125" xlink:href="#m50bccf9e53" y="61.494875"/>
      </g>
     </g>
     <g id="text_20">
      <!-- 6400 -->
      <g transform="translate(20.878125 65.294094)scale(0.1 -0.1)">
       <use xlink:href="#DejaVuSans-54"/>
       <use x="63.623047" xlink:href="#DejaVuSans-52"/>
       <use x="127.246094" xlink:href="#DejaVuSans-48"/>
       <use x="190.869141" xlink:href="#DejaVuSans-48"/>
      </g>
     </g>
    </g>
    <g id="ytick_8">
     <g id="line2d_20">
      <g>
       <use style="stroke:#000000;stroke-width:0.8;" x="53.328125" xlink:href="#m50bccf9e53" y="28.629887"/>
      </g>
     </g>
     <g id="text_21">
      <!-- 6600 -->
      <g transform="translate(20.878125 32.429106)scale(0.1 -0.1)">
       <use xlink:href="#DejaVuSans-54"/>
       <use x="63.623047" xlink:href="#DejaVuSans-54"/>
       <use x="127.246094" xlink:href="#DejaVuSans-48"/>
       <use x="190.869141" xlink:href="#DejaVuSans-48"/>
      </g>
     </g>
    </g>
    <g id="text_22">
     <!-- Edge coverage -->
     <g transform="translate(14.798438 192.762406)rotate(-90)scale(0.1 -0.1)">
      <defs>
       <path d="M 9.8125 72.90625 
L 55.90625 72.90625 
L 55.90625 64.59375 
L 19.671875 64.59375 
L 19.671875 43.015625 
L 54.390625 43.015625 
L 54.390625 34.71875 
L 19.671875 34.71875 
L 19.671875 8.296875 
L 56.78125 8.296875 
L 56.78125 0 
L 9.8125 0 
z
" id="DejaVuSans-69"/>
       <path d="M 45.40625 46.390625 
L 45.40625 75.984375 
L 54.390625 75.984375 
L 54.390625 0 
L 45.40625 0 
L 45.40625 8.203125 
Q 42.578125 3.328125 38.25 0.953125 
Q 33.9375 -1.421875 27.875 -1.421875 
Q 17.96875 -1.421875 11.734375 6.484375 
Q 5.515625 14.40625 5.515625 27.296875 
Q 5.515625 40.1875 11.734375 48.09375 
Q 17.96875 56 27.875 56 
Q 33.9375 56 38.25 53.625 
Q 42.578125 51.265625 45.40625 46.390625 
z
M 14.796875 27.296875 
Q 14.796875 17.390625 18.875 11.75 
Q 22.953125 6.109375 30.078125 6.109375 
Q 37.203125 6.109375 41.296875 11.75 
Q 45.40625 17.390625 45.40625 27.296875 
Q 45.40625 37.203125 41.296875 42.84375 
Q 37.203125 48.484375 30.078125 48.484375 
Q 22.953125 48.484375 18.875 42.84375 
Q 14.796875 37.203125 14.796875 27.296875 
z
" id="DejaVuSans-100"/>
       <path d="M 45.40625 27.984375 
Q 45.40625 37.75 41.375 43.109375 
Q 37.359375 48.484375 30.078125 48.484375 
Q 22.859375 48.484375 18.828125 43.109375 
Q 14.796875 37.75 14.796875 27.984375 
Q 14.796875 18.265625 18.828125 12.890625 
Q 22.859375 7.515625 30.078125 7.515625 
Q 37.359375 7.515625 41.375 12.890625 
Q 45.40625 18.265625 45.40625 27.984375 
z
M 54.390625 6.78125 
Q 54.390625 -7.171875 48.1875 -13.984375 
Q 42 -20.796875 29.203125 -20.796875 
Q 24.46875 -20.796875 20.265625 -20.09375 
Q 16.0625 -19.390625 12.109375 -17.921875 
L 12.109375 -9.1875 
Q 16.0625 -11.328125 19.921875 -12.34375 
Q 23.78125 -13.375 27.78125 -13.375 
Q 36.625 -13.375 41.015625 -8.765625 
Q 45.40625 -4.15625 45.40625 5.171875 
L 45.40625 9.625 
Q 42.625 4.78125 38.28125 2.390625 
Q 33.9375 0 27.875 0 
Q 17.828125 0 11.671875 7.65625 
Q 5.515625 15.328125 5.515625 27.984375 
Q 5.515625 40.671875 11.671875 48.328125 
Q 17.828125 56 27.875 56 
Q 33.9375 56 38.28125 53.609375 
Q 42.625 51.21875 45.40625 46.390625 
L 45.40625 54.6875 
L 54.390625 54.6875 
z
" id="DejaVuSans-103"/>
       <path d="M 48.78125 52.59375 
L 48.78125 44.1875 
Q 44.96875 46.296875 41.140625 47.34375 
Q 37.3125 48.390625 33.40625 48.390625 
Q 24.65625 48.390625 19.8125 42.84375 
Q 14.984375 37.3125 14.984375 27.296875 
Q 14.984375 17.28125 19.8125 11.734375 
Q 24.65625 6.203125 33.40625 6.203125 
Q 37.3125 6.203125 41.140625 7.25 
Q 44.96875 8.296875 48.78125 10.40625 
L 48.78125 2.09375 
Q 45.015625 0.34375 40.984375 -0.53125 
Q 36.96875 -1.421875 32.421875 -1.421875 
Q 20.0625 -1.421875 12.78125 6.34375 
Q 5.515625 14.109375 5.515625 27.296875 
Q 5.515625 40.671875 12.859375 48.328125 
Q 20.21875 56 33.015625 56 
Q 37.15625 56 41.109375 55.140625 
Q 45.0625 54.296875 48.78125 52.59375 
z
" id="DejaVuSans-99"/>
       <path d="M 2.984375 54.6875 
L 12.5 54.6875 
L 29.59375 8.796875 
L 46.6875 54.6875 
L 56.203125 54.6875 
L 35.6875 0 
L 23.484375 0 
z
" id="DejaVuSans-118"/>
       <path d="M 34.28125 27.484375 
Q 23.390625 27.484375 19.1875 25 
Q 14.984375 22.515625 14.984375 16.5 
Q 14.984375 11.71875 18.140625 8.90625 
Q 21.296875 6.109375 26.703125 6.109375 
Q 34.1875 6.109375 38.703125 11.40625 
Q 43.21875 16.703125 43.21875 25.484375 
L 43.21875 27.484375 
z
M 52.203125 31.203125 
L 52.203125 0 
L 43.21875 0 
L 43.21875 8.296875 
Q 40.140625 3.328125 35.546875 0.953125 
Q 30.953125 -1.421875 24.3125 -1.421875 
Q 15.921875 -1.421875 10.953125 3.296875 
Q 6 8.015625 6 15.921875 
Q 6 25.140625 12.171875 29.828125 
Q 18.359375 34.515625 30.609375 34.515625 
L 43.21875 34.515625 
L 43.21875 35.40625 
Q 43.21875 41.609375 39.140625 45 
Q 35.0625 48.390625 27.6875 48.390625 
Q 23 48.390625 18.546875 47.265625 
Q 14.109375 46.140625 10.015625 43.890625 
L 10.015625 52.203125 
Q 14.9375 54.109375 19.578125 55.046875 
Q 24.21875 56 28.609375 56 
Q 40.484375 56 46.34375 49.84375 
Q 52.203125 43.703125 52.203125 31.203125 
z
" id="DejaVuSans-97"/>
      </defs>
      <use xlink:href="#DejaVuSans-69"/>
      <use x="63.183594" xlink:href="#DejaVuSans-100"/>
      <use x="126.660156" xlink:href="#DejaVuSans-103"/>
      <use x="190.136719" xlink:href="#DejaVuSans-101"/>
      <use x="251.660156" xlink:href="#DejaVuSans-32"/>
      <use x="283.447266" xlink:href="#DejaVuSans-99"/>
      <use x="338.427734" xlink:href="#DejaVuSans-111"/>
      <use x="399.609375" xlink:href="#DejaVuSans-118"/>
      <use x="458.789062" xlink:href="#DejaVuSans-101"/>
      <use x="520.3125" xlink:href="#DejaVuSans-114"/>
      <use x="561.425781" xlink:href="#DejaVuSans-97"/>
      <use x="622.705078" xlink:href="#DejaVuSans-103"/>
      <use x="686.181641" xlink:href="#DejaVuSans-101"/>
     </g>
    </g>
   </g>
   <g id="line2d_21">
    <path clip-path="url(#p89121f5ef7)" d="M 85.79358 233.181574 
L 92.628412 224.932462 
L 99.463245 216.68335 
L 106.298077 215.533075 
L 113.13291 205.542119 
L 119.967742 201.9927 
L 126.802575 200.710965 
L 133.637407 199.725016 
L 140.47224 199.264906 
L 147.307072 198.640471 
L 154.141905 198.509011 
L 160.976737 192.691908 
L 167.81157 186.579021 
L 174.646403 180.334673 
L 181.481235 161.897414 
L 188.316068 161.07579 
L 195.1509 160.54995 
L 201.985733 154.897172 
L 208.820565 153.352517 
L 215.655398 152.498028 
L 222.49023 146.97671 
L 229.325063 146.746655 
L 236.159895 145.92503 
L 242.994728 144.87335 
L 249.82956 143.755941 
L 256.664393 141.915502 
L 263.499225 141.323932 
L 270.334058 139.187707 
L 277.168891 136.558508 
L 284.003723 135.539694 
L 290.838556 133.764984 
L 297.673388 128.835236 
L 304.508221 127.816422 
L 311.343053 127.520637 
L 318.177886 127.257717 
L 325.012718 126.699012 
L 331.847551 124.562788 
L 338.682383 123.182458 
L 345.517216 122.623753 
L 352.352048 122.065049 
L 359.186881 121.013369 
L 366.021714 119.56731 
L 372.856546 117.694005 
L 379.691379 116.280811 
L 386.526211 114.045991 
L 393.361044 105.501095 
L 400.195876 105.4025 
L 407.030709 104.909525 
L 413.865541 103.49633 
L 420.700374 100.867131 
L 427.535206 99.749722 
L 434.370039 97.876417 
L 441.204871 96.660413 
L 448.039704 96.561818 
L 454.874536 94.951433 
L 461.709369 94.524188 
L 468.544202 94.096944 
L 475.379034 92.289369 
L 482.213867 92.190774 
L 489.048699 91.993584 
L 495.883532 91.30342 
L 502.718364 89.890225 
L 509.553197 88.641356 
L 516.388029 87.523946 
L 523.222862 87.162431 
L 530.057694 84.927612 
L 536.892527 83.678742 
L 543.727359 82.495603 
L 550.562192 81.772573 
L 557.397025 81.148138 
L 564.231857 80.326514 
L 571.06669 79.504889 
L 577.901522 79.241969 
L 584.736355 78.420344 
L 591.571187 77.237205 
L 598.40602 76.316985 
L 605.240852 75.988335 
L 612.075685 75.49536 
L 618.910517 74.213626 
L 625.74535 73.950706 
L 632.580182 73.950706 
L 639.415015 73.753516 
L 646.249847 73.523461 
L 653.08468 73.326271 
L 659.919513 73.260541 
L 666.754345 73.030486 
L 673.589178 71.157182 
L 680.42401 70.664207 
L 687.258843 67.344843 
L 694.093675 65.570134 
L 700.928508 64.978564 
L 707.76334 64.321264 
L 714.598173 62.3165 
L 721.433005 61.79066 
L 728.267838 60.804711 
L 735.10267 59.720166 
" style="fill:none;stroke:#ffbb78;stroke-linecap:square;stroke-width:1.5;"/>
   </g>
   <g id="line2d_22">
    <path clip-path="url(#p89121f5ef7)" d="M 85.79358 228.350421 
L 92.628412 217.373514 
L 99.463245 216.28897 
L 106.298077 216.124645 
L 113.13291 215.96032 
L 119.967742 215.23729 
L 126.802575 215.23729 
L 133.637407 215.204425 
L 140.47224 214.97437 
L 147.307072 214.349936 
L 154.141905 214.349936 
L 160.976737 210.406137 
L 167.81157 207.448288 
L 174.646403 206.495203 
L 181.481235 204.490439 
L 188.316068 201.828375 
L 195.1509 194.926728 
L 201.985733 181.254892 
L 208.820565 171.526856 
L 215.655398 169.785012 
L 222.49023 168.667602 
L 229.325063 165.446833 
L 236.159895 165.183913 
L 242.994728 163.573529 
L 249.82956 160.94433 
L 256.664393 160.385625 
L 263.499225 159.36681 
L 270.334058 159.071025 
L 277.168891 156.967666 
L 284.003723 154.897172 
L 290.838556 153.681167 
L 297.673388 151.873593 
L 304.508221 151.643538 
L 311.343053 148.389904 
L 318.177886 145.07054 
L 325.012718 142.769991 
L 331.847551 142.375611 
L 338.682383 141.948366 
L 345.517216 141.291067 
L 352.352048 141.061012 
L 359.186881 139.582087 
L 366.021714 138.990518 
L 372.856546 138.859058 
L 379.691379 138.793328 
L 386.526211 138.629003 
L 393.361044 137.905973 
L 400.195876 136.591373 
L 407.030709 134.783799 
L 413.865541 133.995039 
L 420.700374 126.699012 
L 427.535206 126.600417 
L 434.370039 124.990033 
L 441.204871 122.590888 
L 448.039704 121.637804 
L 454.874536 121.440614 
L 461.709369 120.191744 
L 468.544202 119.830229 
L 475.379034 118.679955 
L 482.213867 117.72687 
L 489.048699 117.168165 
L 495.883532 116.412271 
L 502.718364 115.952161 
L 509.553197 114.144586 
L 516.388029 113.750207 
L 523.222862 112.928582 
L 530.057694 112.599932 
L 536.892527 111.449657 
L 543.727359 110.102193 
L 550.562192 109.477758 
L 557.397025 108.919053 
L 564.231857 108.426078 
L 571.06669 106.026934 
L 577.901522 104.94239 
L 584.736355 104.909525 
L 591.571187 104.712335 
L 598.40602 104.383685 
L 605.240852 103.989305 
L 612.075685 103.62779 
L 618.910517 103.62779 
L 625.74535 101.458701 
L 632.580182 101.294376 
L 639.415015 101.195781 
L 646.249847 94.458458 
L 653.08468 94.392729 
L 659.919513 94.228404 
L 666.754345 93.768294 
L 673.589178 93.505374 
L 680.42401 93.012399 
L 687.258843 92.092179 
L 694.093675 91.0405 
L 700.928508 90.77758 
L 707.76334 90.021685 
L 714.598173 89.955955 
L 721.433005 89.035735 
L 728.267838 89.035735 
L 735.10267 86.965241 
" style="fill:none;stroke:#ff7f0e;stroke-linecap:square;stroke-width:1.5;"/>
   </g>
   <g id="line2d_23">
    <path clip-path="url(#p89121f5ef7)" d="M 85.79358 262.267088 
L 92.628412 252.769107 
L 99.463245 243.468315 
L 106.298077 240.313276 
L 113.13291 238.834352 
L 119.967742 234.561903 
L 126.802575 234.233253 
L 133.637407 234.167523 
L 140.47224 234.036064 
L 147.307072 234.036064 
L 154.141905 233.543089 
L 160.976737 230.25659 
L 167.81157 228.449016 
L 174.646403 223.552132 
L 181.481235 216.124645 
L 188.316068 210.439002 
L 195.1509 199.363501 
L 201.985733 185.527341 
L 208.820565 184.607121 
L 215.655398 178.198449 
L 222.49023 174.97768 
L 229.325063 173.761675 
L 236.159895 173.170105 
L 242.994728 172.545671 
L 249.82956 172.184156 
L 256.664393 167.714517 
L 263.499225 157.099126 
L 270.334058 151.512078 
L 277.168891 149.342989 
L 284.003723 147.10817 
L 290.838556 145.202 
L 297.673388 144.051726 
L 304.508221 143.657346 
L 311.343053 143.131506 
L 318.177886 141.192472 
L 325.012718 140.633767 
L 331.847551 139.319167 
L 338.682383 137.445863 
L 345.517216 131.464435 
L 352.352048 130.807135 
L 359.186881 130.116971 
L 366.021714 130.018376 
L 372.856546 129.722591 
L 379.691379 128.670911 
L 386.526211 128.177936 
L 393.361044 127.882152 
L 400.195876 126.633282 
L 407.030709 123.971218 
L 413.865541 121.243424 
L 420.700374 120.618989 
L 427.535206 119.271525 
L 434.370039 119.271525 
L 441.204871 118.614225 
L 448.039704 117.956925 
L 454.874536 116.970975 
L 461.709369 116.543731 
L 468.544202 116.412271 
L 475.379034 115.656376 
L 482.213867 115.130536 
L 489.048699 113.224367 
L 495.883532 112.369877 
L 502.718364 112.041227 
L 509.553197 110.135058 
L 516.388029 110.135058 
L 523.222862 109.510623 
L 530.057694 107.998834 
L 536.892527 107.604454 
L 543.727359 107.144344 
L 550.562192 106.881424 
L 557.397025 106.322719 
L 564.231857 106.224124 
L 571.06669 106.059799 
L 577.901522 105.632554 
L 584.736355 105.20531 
L 591.571187 105.106715 
L 598.40602 105.07385 
L 605.240852 102.576111 
L 612.075685 101.885946 
L 618.910517 100.078371 
L 625.74535 98.895232 
L 632.580182 98.369392 
L 639.415015 97.843552 
L 646.249847 97.482037 
L 653.08468 97.087658 
L 659.919513 96.430358 
L 666.754345 95.740193 
L 673.589178 95.674463 
L 680.42401 95.411543 
L 687.258843 95.411543 
L 694.093675 95.345813 
L 700.928508 94.852838 
L 707.76334 94.031214 
L 714.598173 93.965484 
L 721.433005 93.242454 
L 728.267838 93.045264 
L 735.10267 92.322234 
" style="fill:none;stroke:#1f77b4;stroke-linecap:square;stroke-width:1.5;"/>
   </g>
   <g id="line2d_24">
    <path clip-path="url(#p89121f5ef7)" d="M 85.79358 209.420187 
L 92.628412 207.448288 
L 99.463245 202.65 
L 106.298077 200.973885 
L 113.13291 194.137968 
L 119.967742 192.954828 
L 126.802575 192.560448 
L 133.637407 192.297528 
L 140.47224 191.015794 
L 147.307072 190.752874 
L 154.141905 190.325629 
L 160.976737 188.649515 
L 167.81157 185.001501 
L 174.646403 176.456604 
L 181.481235 173.53162 
L 188.316068 171.888371 
L 195.1509 169.620687 
L 201.985733 168.076032 
L 208.820565 167.188677 
L 215.655398 165.742618 
L 222.49023 164.953858 
L 229.325063 162.028874 
L 236.159895 159.465405 
L 242.994728 156.277501 
L 249.82956 155.685932 
L 256.664393 155.094362 
L 263.499225 154.469927 
L 270.334058 152.596623 
L 277.168891 150.526128 
L 284.003723 147.929794 
L 290.838556 144.93908 
L 297.673388 143.164371 
L 304.508221 142.671396 
L 311.343053 140.173657 
L 318.177886 139.680682 
L 325.012718 138.957653 
L 331.847551 138.826193 
L 338.682383 138.826193 
L 345.517216 138.727598 
L 352.352048 137.511593 
L 359.186881 137.182943 
L 366.021714 136.821428 
L 372.856546 136.788563 
L 379.691379 136.722833 
L 386.526211 136.657103 
L 393.361044 135.736884 
L 400.195876 135.145314 
L 407.030709 134.816664 
L 413.865541 133.40347 
L 420.700374 130.577081 
L 427.535206 129.492536 
L 434.370039 127.586367 
L 441.204871 127.290582 
L 448.039704 126.994797 
L 454.874536 126.666147 
L 461.709369 126.238902 
L 468.544202 125.055763 
L 475.379034 124.858573 
L 482.213867 123.774028 
L 489.048699 122.558023 
L 495.883532 122.492293 
L 502.718364 122.032184 
L 509.553197 120.750449 
L 516.388029 120.454664 
L 523.222862 119.402985 
L 530.057694 118.71282 
L 536.892527 117.891195 
L 543.727359 117.496815 
L 550.562192 116.543731 
L 557.397025 115.393456 
L 564.231857 114.604696 
L 571.06669 114.604696 
L 577.901522 114.440371 
L 584.736355 112.468472 
L 591.571187 112.008362 
L 598.40602 111.581117 
L 605.240852 108.787593 
L 612.075685 107.210074 
L 618.910517 106.125529 
L 625.74535 105.303905 
L 632.580182 104.61374 
L 639.415015 102.411786 
L 646.249847 101.754486 
L 653.08468 99.815452 
L 659.919513 99.585397 
L 666.754345 98.665177 
L 673.589178 98.435122 
L 680.42401 98.205067 
L 687.258843 98.106472 
L 694.093675 96.824738 
L 700.928508 96.627548 
L 707.76334 95.444408 
L 714.598173 95.214353 
L 721.433005 94.524188 
L 728.267838 93.735429 
L 735.10267 92.453694 
" style="fill:none;stroke:#aec7e8;stroke-linecap:square;stroke-width:1.5;"/>
   </g>
   <g id="line2d_25"/>
   <g id="line2d_26"/>
   <g id="line2d_27"/>
   <g id="line2d_28"/>
   <g id="line2d_29"/>
   <g id="line2d_30">
    <path clip-path="url(#p89121f5ef7)" d="M 735.10267 288.430125 
L 735.10267 22.318125 
" style="fill:none;stroke:#ff0000;stroke-linecap:square;stroke-width:1.5;"/>
   </g>
   <g id="patch_3">
    <path d="M 53.328125 258.684805 
L 53.328125 28.629887 
" style="fill:none;stroke:#000000;stroke-linecap:square;stroke-linejoin:miter;stroke-width:0.8;"/>
   </g>
   <g id="patch_4">
    <path d="M 85.79358 288.430125 
L 687.258843 288.430125 
" style="fill:none;stroke:#000000;stroke-linecap:square;stroke-linejoin:miter;stroke-width:0.8;"/>
   </g>
   <g id="text_23">
    <!-- bloaty_fuzz_target (24h, 5 trials/fuzzer) -->
    <g transform="translate(292.352188 16.318125)scale(0.12 -0.12)">
     <defs>
      <path d="M 48.6875 27.296875 
Q 48.6875 37.203125 44.609375 42.84375 
Q 40.53125 48.484375 33.40625 48.484375 
Q 26.265625 48.484375 22.1875 42.84375 
Q 18.109375 37.203125 18.109375 27.296875 
Q 18.109375 17.390625 22.1875 11.75 
Q 26.265625 6.109375 33.40625 6.109375 
Q 40.53125 6.109375 44.609375 11.75 
Q 48.6875 17.390625 48.6875 27.296875 
z
M 18.109375 46.390625 
Q 20.953125 51.265625 25.265625 53.625 
Q 29.59375 56 35.59375 56 
Q 45.5625 56 51.78125 48.09375 
Q 58.015625 40.1875 58.015625 27.296875 
Q 58.015625 14.40625 51.78125 6.484375 
Q 45.5625 -1.421875 35.59375 -1.421875 
Q 29.59375 -1.421875 25.265625 0.953125 
Q 20.953125 3.328125 18.109375 8.203125 
L 18.109375 0 
L 9.078125 0 
L 9.078125 75.984375 
L 18.109375 75.984375 
z
" id="DejaVuSans-98"/>
      <path d="M 9.421875 75.984375 
L 18.40625 75.984375 
L 18.40625 0 
L 9.421875 0 
z
" id="DejaVuSans-108"/>
      <path d="M 32.171875 -5.078125 
Q 28.375 -14.84375 24.75 -17.8125 
Q 21.140625 -20.796875 15.09375 -20.796875 
L 7.90625 -20.796875 
L 7.90625 -13.28125 
L 13.1875 -13.28125 
Q 16.890625 -13.28125 18.9375 -11.515625 
Q 21 -9.765625 23.484375 -3.21875 
L 25.09375 0.875 
L 2.984375 54.6875 
L 12.5 54.6875 
L 29.59375 11.921875 
L 46.6875 54.6875 
L 56.203125 54.6875 
z
" id="DejaVuSans-121"/>
      <path d="M 50.984375 -16.609375 
L 50.984375 -23.578125 
L -0.984375 -23.578125 
L -0.984375 -16.609375 
z
" id="DejaVuSans-95"/>
      <path d="M 37.109375 75.984375 
L 37.109375 68.5 
L 28.515625 68.5 
Q 23.6875 68.5 21.796875 66.546875 
Q 19.921875 64.59375 19.921875 59.515625 
L 19.921875 54.6875 
L 34.71875 54.6875 
L 34.71875 47.703125 
L 19.921875 47.703125 
L 19.921875 0 
L 10.890625 0 
L 10.890625 47.703125 
L 2.296875 47.703125 
L 2.296875 54.6875 
L 10.890625 54.6875 
L 10.890625 58.5 
Q 10.890625 67.625 15.140625 71.796875 
Q 19.390625 75.984375 28.609375 75.984375 
z
" id="DejaVuSans-102"/>
      <path d="M 5.515625 54.6875 
L 48.1875 54.6875 
L 48.1875 46.484375 
L 14.40625 7.171875 
L 48.1875 7.171875 
L 48.1875 0 
L 4.296875 0 
L 4.296875 8.203125 
L 38.09375 47.515625 
L 5.515625 47.515625 
z
" id="DejaVuSans-122"/>
      <path d="M 11.71875 12.40625 
L 22.015625 12.40625 
L 22.015625 4 
L 14.015625 -11.625 
L 7.71875 -11.625 
L 11.71875 4 
z
" id="DejaVuSans-44"/>
      <path d="M 44.28125 53.078125 
L 44.28125 44.578125 
Q 40.484375 46.53125 36.375 47.5 
Q 32.28125 48.484375 27.875 48.484375 
Q 21.1875 48.484375 17.84375 46.4375 
Q 14.5 44.390625 14.5 40.28125 
Q 14.5 37.15625 16.890625 35.375 
Q 19.28125 33.59375 26.515625 31.984375 
L 29.59375 31.296875 
Q 39.15625 29.25 43.1875 25.515625 
Q 47.21875 21.78125 47.21875 15.09375 
Q 47.21875 7.46875 41.1875 3.015625 
Q 35.15625 -1.421875 24.609375 -1.421875 
Q 20.21875 -1.421875 15.453125 -0.5625 
Q 10.6875 0.296875 5.421875 2 
L 5.421875 11.28125 
Q 10.40625 8.6875 15.234375 7.390625 
Q 20.0625 6.109375 24.8125 6.109375 
Q 31.15625 6.109375 34.5625 8.28125 
Q 37.984375 10.453125 37.984375 14.40625 
Q 37.984375 18.0625 35.515625 20.015625 
Q 33.0625 21.96875 24.703125 23.78125 
L 21.578125 24.515625 
Q 13.234375 26.265625 9.515625 29.90625 
Q 5.8125 33.546875 5.8125 39.890625 
Q 5.8125 47.609375 11.28125 51.796875 
Q 16.75 56 26.8125 56 
Q 31.78125 56 36.171875 55.265625 
Q 40.578125 54.546875 44.28125 53.078125 
z
" id="DejaVuSans-115"/>
      <path d="M 25.390625 72.90625 
L 33.6875 72.90625 
L 8.296875 -9.28125 
L 0 -9.28125 
z
" id="DejaVuSans-47"/>
     </defs>
     <use xlink:href="#DejaVuSans-98"/>
     <use x="63.476562" xlink:href="#DejaVuSans-108"/>
     <use x="91.259766" xlink:href="#DejaVuSans-111"/>
     <use x="152.441406" xlink:href="#DejaVuSans-97"/>
     <use x="213.720703" xlink:href="#DejaVuSans-116"/>
     <use x="252.929688" xlink:href="#DejaVuSans-121"/>
     <use x="312.109375" xlink:href="#DejaVuSans-95"/>
     <use x="362.109375" xlink:href="#DejaVuSans-102"/>
     <use x="397.314453" xlink:href="#DejaVuSans-117"/>
     <use x="460.693359" xlink:href="#DejaVuSans-122"/>
     <use x="513.183594" xlink:href="#DejaVuSans-122"/>
     <use x="565.673828" xlink:href="#DejaVuSans-95"/>
     <use x="615.673828" xlink:href="#DejaVuSans-116"/>
     <use x="654.882812" xlink:href="#DejaVuSans-97"/>
     <use x="716.162109" xlink:href="#DejaVuSans-114"/>
     <use x="755.525391" xlink:href="#DejaVuSans-103"/>
     <use x="819.001953" xlink:href="#DejaVuSans-101"/>
     <use x="880.525391" xlink:href="#DejaVuSans-116"/>
     <use x="919.734375" xlink:href="#DejaVuSans-32"/>
     <use x="951.521484" xlink:href="#DejaVuSans-40"/>
     <use x="990.535156" xlink:href="#DejaVuSans-50"/>
     <use x="1054.158203" xlink:href="#DejaVuSans-52"/>
     <use x="1117.78125" xlink:href="#DejaVuSans-104"/>
     <use x="1181.160156" xlink:href="#DejaVuSans-44"/>
     <use x="1212.947266" xlink:href="#DejaVuSans-32"/>
     <use x="1244.734375" xlink:href="#DejaVuSans-53"/>
     <use x="1308.357422" xlink:href="#DejaVuSans-32"/>
     <use x="1340.144531" xlink:href="#DejaVuSans-116"/>
     <use x="1379.353516" xlink:href="#DejaVuSans-114"/>
     <use x="1420.466797" xlink:href="#DejaVuSans-105"/>
     <use x="1448.25" xlink:href="#DejaVuSans-97"/>
     <use x="1509.529297" xlink:href="#DejaVuSans-108"/>
     <use x="1537.3125" xlink:href="#DejaVuSans-115"/>
     <use x="1589.412109" xlink:href="#DejaVuSans-47"/>
     <use x="1623.103516" xlink:href="#DejaVuSans-102"/>
     <use x="1658.308594" xlink:href="#DejaVuSans-117"/>
     <use x="1721.6875" xlink:href="#DejaVuSans-122"/>
     <use x="1774.177734" xlink:href="#DejaVuSans-122"/>
     <use x="1826.667969" xlink:href="#DejaVuSans-101"/>
     <use x="1888.191406" xlink:href="#DejaVuSans-114"/>
     <use x="1929.304688" xlink:href="#DejaVuSans-41"/>
    </g>
   </g>
   <g id="legend_1">
    <g id="line2d_31">
     <path d="M 771.568125 30.416563 
L 791.568125 30.416563 
" style="fill:none;"/>
    </g>
    <g id="line2d_32"/>
    <g id="text_24">
     <!-- fuzzer -->
     <g transform="translate(799.568125 33.916563)scale(0.1 -0.1)">
      <use xlink:href="#DejaVuSans-102"/>
      <use x="35.205078" xlink:href="#DejaVuSans-117"/>
      <use x="98.583984" xlink:href="#DejaVuSans-122"/>
      <use x="151.074219" xlink:href="#DejaVuSans-122"/>
      <use x="203.564453" xlink:href="#DejaVuSans-101"/>
      <use x="265.087891" xlink:href="#DejaVuSans-114"/>
     </g>
    </g>
    <g id="line2d_33">
     <path d="M 771.568125 45.094688 
L 791.568125 45.094688 
" style="fill:none;stroke:#ffbb78;stroke-linecap:square;stroke-width:1.5;"/>
    </g>
    <g id="line2d_34"/>
    <g id="text_25">
     <!-- start_3 -->
     <g transform="translate(799.568125 48.594688)scale(0.1 -0.1)">
      <defs>
       <path d="M 40.578125 39.3125 
Q 47.65625 37.796875 51.625 33 
Q 55.609375 28.21875 55.609375 21.1875 
Q 55.609375 10.40625 48.1875 4.484375 
Q 40.765625 -1.421875 27.09375 -1.421875 
Q 22.515625 -1.421875 17.65625 -0.515625 
Q 12.796875 0.390625 7.625 2.203125 
L 7.625 11.71875 
Q 11.71875 9.328125 16.59375 8.109375 
Q 21.484375 6.890625 26.8125 6.890625 
Q 36.078125 6.890625 40.9375 10.546875 
Q 45.796875 14.203125 45.796875 21.1875 
Q 45.796875 27.640625 41.28125 31.265625 
Q 36.765625 34.90625 28.71875 34.90625 
L 20.21875 34.90625 
L 20.21875 43.015625 
L 29.109375 43.015625 
Q 36.375 43.015625 40.234375 45.921875 
Q 44.09375 48.828125 44.09375 54.296875 
Q 44.09375 59.90625 40.109375 62.90625 
Q 36.140625 65.921875 28.71875 65.921875 
Q 24.65625 65.921875 20.015625 65.03125 
Q 15.375 64.15625 9.8125 62.3125 
L 9.8125 71.09375 
Q 15.4375 72.65625 20.34375 73.4375 
Q 25.25 74.21875 29.59375 74.21875 
Q 40.828125 74.21875 47.359375 69.109375 
Q 53.90625 64.015625 53.90625 55.328125 
Q 53.90625 49.265625 50.4375 45.09375 
Q 46.96875 40.921875 40.578125 39.3125 
z
" id="DejaVuSans-51"/>
      </defs>
      <use xlink:href="#DejaVuSans-115"/>
      <use x="52.099609" xlink:href="#DejaVuSans-116"/>
      <use x="91.308594" xlink:href="#DejaVuSans-97"/>
      <use x="152.587891" xlink:href="#DejaVuSans-114"/>
      <use x="193.701172" xlink:href="#DejaVuSans-116"/>
      <use x="232.910156" xlink:href="#DejaVuSans-95"/>
      <use x="282.910156" xlink:href="#DejaVuSans-51"/>
     </g>
    </g>
    <g id="line2d_35">
     <path d="M 771.568125 60.050938 
L 791.568125 60.050938 
" style="fill:none;stroke:#ff7f0e;stroke-linecap:square;stroke-width:1.5;"/>
    </g>
    <g id="line2d_36"/>
    <g id="text_26">
     <!-- start_2 -->
     <g transform="translate(799.568125 63.550938)scale(0.1 -0.1)">
      <use xlink:href="#DejaVuSans-115"/>
      <use x="52.099609" xlink:href="#DejaVuSans-116"/>
      <use x="91.308594" xlink:href="#DejaVuSans-97"/>
      <use x="152.587891" xlink:href="#DejaVuSans-114"/>
      <use x="193.701172" xlink:href="#DejaVuSans-116"/>
      <use x="232.910156" xlink:href="#DejaVuSans-95"/>
      <use x="282.910156" xlink:href="#DejaVuSans-50"/>
     </g>
    </g>
    <g id="line2d_37">
     <path d="M 771.568125 75.007188 
L 791.568125 75.007188 
" style="fill:none;stroke:#1f77b4;stroke-linecap:square;stroke-width:1.5;"/>
    </g>
    <g id="line2d_38"/>
    <g id="text_27">
     <!-- start_0 -->
     <g transform="translate(799.568125 78.507188)scale(0.1 -0.1)">
      <use xlink:href="#DejaVuSans-115"/>
      <use x="52.099609" xlink:href="#DejaVuSans-116"/>
      <use x="91.308594" xlink:href="#DejaVuSans-97"/>
      <use x="152.587891" xlink:href="#DejaVuSans-114"/>
      <use x="193.701172" xlink:href="#DejaVuSans-116"/>
      <use x="232.910156" xlink:href="#DejaVuSans-95"/>
      <use x="282.910156" xlink:href="#DejaVuSans-48"/>
     </g>
    </g>
    <g id="line2d_39">
     <path d="M 771.568125 89.963438 
L 791.568125 89.963438 
" style="fill:none;stroke:#aec7e8;stroke-linecap:square;stroke-width:1.5;"/>
    </g>
    <g id="line2d_40"/>
    <g id="text_28">
     <!-- start_1 -->
     <g transform="translate(799.568125 93.463438)scale(0.1 -0.1)">
      <use xlink:href="#DejaVuSans-115"/>
      <use x="52.099609" xlink:href="#DejaVuSans-116"/>
      <use x="91.308594" xlink:href="#DejaVuSans-97"/>
      <use x="152.587891" xlink:href="#DejaVuSans-114"/>
      <use x="193.701172" xlink:href="#DejaVuSans-116"/>
      <use x="232.910156" xlink:href="#DejaVuSans-95"/>
      <use x="282.910156" xlink:href="#DejaVuSans-49"/>
     </g>
    </g>
   </g>
  </g>
 </g>
 <defs>
  <clipPath id="p89121f5ef7">
   <rect height="266.112" width="714.24" x="53.328125" y="22.318125"/>
  </clipPath>
 </defs>
</svg>
