<?xml version="1.0" encoding="utf-8" standalone="no"?>
<!DOCTYPE svg PUBLIC "-//W3C//DTD SVG 1.1//EN"
  "http://www.w3.org/Graphics/SVG/1.1/DTD/svg11.dtd">
<!-- Created with matplotlib (https://matplotlib.org/) -->
<svg height="325.986375pt" version="1.1" viewBox="0 0 845.419687 325.986375" width="845.419687pt" xmlns="http://www.w3.org/2000/svg" xmlns:xlink="http://www.w3.org/1999/xlink">
 <metadata>
  <rdf:RDF xmlns:cc="http://creativecommons.org/ns#" xmlns:dc="http://purl.org/dc/elements/1.1/" xmlns:rdf="http://www.w3.org/1999/02/22-rdf-syntax-ns#">
   <cc:Work>
    <dc:type rdf:resource="http://purl.org/dc/dcmitype/StillImage"/>
    <dc:date>2020-08-26T11:44:21.663911</dc:date>
    <dc:format>image/svg+xml</dc:format>
    <dc:creator>
     <cc:Agent>
      <dc:title>Matplotlib v3.3.1, https://matplotlib.org/</dc:title>
     </cc:Agent>
    </dc:creator>
   </cc:Work>
  </rdf:RDF>
 </metadata>
 <defs>
  <style type="text/css">*{stroke-linecap:butt;stroke-linejoin:round;}</style>
 </defs>
 <g id="figure_1">
  <g id="patch_1">
   <path d="M 0 325.986375 
L 845.419687 325.986375 
L 845.419687 0 
L 0 0 
z
" style="fill:#ffffff;"/>
  </g>
  <g id="axes_1">
   <g id="patch_2">
    <path d="M 53.328125 288.430125 
L 767.568125 288.430125 
L 767.568125 22.318125 
L 53.328125 22.318125 
z
" style="fill:#ffffff;"/>
   </g>
   <g id="PolyCollection_1">
    <defs>
     <path d="M 85.79358 -63.10881 
L 85.79358 -53.220794 
L 92.628412 -53.22931 
L 99.463245 -53.484815 
L 106.298077 -54.592 
L 113.13291 -55.95469 
L 119.967742 -56.976707 
L 126.802575 -56.125026 
L 133.637407 -56.631776 
L 140.47224 -56.891539 
L 147.307072 -57.658052 
L 154.141905 -60.937024 
L 160.976737 -60.937024 
L 167.81157 -61.022192 
L 174.646403 -61.360735 
L 181.481235 -61.277696 
L 188.316068 -61.277696 
L 195.1509 -61.277696 
L 201.985733 -61.533201 
L 208.820565 -61.660953 
L 215.655398 -61.959041 
L 222.49023 -61.959041 
L 229.325063 -62.171961 
L 236.159895 -62.257129 
L 242.994728 -62.342298 
L 249.82956 -62.555218 
L 256.664393 -62.89589 
L 263.499225 -63.619819 
L 270.334058 -65.323181 
L 277.168891 -65.749022 
L 284.003723 -66.430367 
L 290.838556 -66.430367 
L 297.673388 -66.898791 
L 304.508221 -67.239464 
L 311.343053 -66.941375 
L 318.177886 -68.857657 
L 325.012718 -68.346649 
L 331.847551 -67.665304 
L 338.682383 -68.516985 
L 345.517216 -72.434718 
L 352.352048 -74.351 
L 359.186881 -75.245265 
L 366.021714 -77.71514 
L 372.856546 -79.524963 
L 379.691379 -78.694574 
L 386.526211 -78.822326 
L 393.361044 -79.066119 
L 400.195876 -79.07783 
L 407.030709 -82.867811 
L 413.865541 -80.476716 
L 420.700374 -81.249617 
L 427.535206 -81.334785 
L 434.370039 -81.845793 
L 441.204871 -81.845793 
L 448.039704 -82.740058 
L 454.874536 -85.252518 
L 461.709369 -82.740058 
L 468.544202 -90.32002 
L 475.379034 -89.255418 
L 482.213867 -90.32002 
L 489.048699 -89.255418 
L 495.883532 -89.255418 
L 502.718364 -90.32002 
L 509.553197 -90.788444 
L 516.388029 -89.681259 
L 523.222862 -90.873612 
L 530.057694 -91.299453 
L 536.892527 -91.512373 
L 543.727359 -91.549634 
L 550.562192 -92.10855 
L 557.397025 -89.340587 
L 564.231857 -89.936763 
L 571.06669 -92.960231 
L 577.901522 -95.983699 
L 584.736355 -95.983699 
L 591.571187 -95.958148 
L 598.40602 -97.985149 
L 605.240852 -92.960231 
L 612.075685 -92.960231 
L 618.910517 -92.960231 
L 625.74535 -93.130567 
L 632.580182 -93.300903 
L 639.415015 -93.47124 
L 646.249847 -95.600442 
L 653.08468 -95.941115 
L 659.919513 -96.154035 
L 666.754345 -96.196619 
L 673.589178 -96.622459 
L 680.42401 -100.918126 
L 687.258843 -96.622459 
L 694.093675 -96.792796 
L 700.928508 -101.086333 
L 707.76334 -96.792796 
L 714.598173 -97.133468 
L 721.433005 -96.111451 
L 728.267838 -97.133468 
L 735.10267 -96.111451 
L 735.10267 -291.57225 
L 735.10267 -291.57225 
L 728.267838 -290.976073 
L 721.433005 -291.487082 
L 714.598173 -289.698552 
L 707.76334 -288.250694 
L 700.928508 -291.146409 
L 694.093675 -289.698552 
L 687.258843 -289.698552 
L 680.42401 -289.698552 
L 673.589178 -288.42103 
L 666.754345 -288.42103 
L 659.919513 -288.378446 
L 653.08468 -288.335862 
L 646.249847 -287.824853 
L 639.415015 -285.525315 
L 632.580182 -285.014306 
L 625.74535 -284.503297 
L 618.910517 -284.077457 
L 612.075685 -280.372644 
L 605.240852 -282.299573 
L 598.40602 -282.544431 
L 591.571187 -282.203759 
L 584.736355 -282.544431 
L 577.901522 -282.203759 
L 571.06669 -282.212275 
L 564.231857 -281.403178 
L 557.397025 -281.735334 
L 550.562192 -281.69275 
L 543.727359 -281.352077 
L 536.892527 -281.607582 
L 530.057694 -280.457812 
L 523.222862 -280.031972 
L 516.388029 -279.946804 
L 509.553197 -279.946804 
L 502.718364 -279.520963 
L 495.883532 -279.520963 
L 489.048699 -279.095123 
L 482.213867 -279.009955 
L 475.379034 -278.669282 
L 468.544202 -277.314045 
L 461.709369 -276.582664 
L 454.874536 -276.923336 
L 448.039704 -276.923336 
L 441.204871 -275.432894 
L 434.370039 -275.347726 
L 427.535206 -274.921886 
L 420.700374 -274.027621 
L 413.865541 -274.751549 
L 407.030709 -273.218524 
L 400.195876 -273.090771 
L 393.361044 -273.005603 
L 386.526211 -272.750099 
L 379.691379 -272.111338 
L 372.856546 -269.556295 
L 366.021714 -224.757872 
L 359.186881 -223.948775 
L 352.352048 -223.05451 
L 345.517216 -223.05451 
L 338.682383 -220.243963 
L 331.847551 -219.66269 
L 325.012718 -220.371715 
L 318.177886 -219.349698 
L 311.343053 -219.221945 
L 304.508221 -215.652337 
L 297.673388 -218.199928 
L 290.838556 -212.493665 
L 284.003723 -212.498988 
L 277.168891 -212.706586 
L 270.334058 -215.815221 
L 263.499225 -211.86555 
L 256.664393 -211.514232 
L 249.82956 -211.737798 
L 242.994728 -212.152993 
L 236.159895 -211.088392 
L 229.325063 -211.003223 
L 222.49023 -210.790303 
L 215.655398 -210.151542 
L 208.820565 -209.896038 
L 201.985733 -208.107508 
L 195.1509 -207.937172 
L 188.316068 -207.939301 
L 181.481235 -207.639083 
L 174.646403 -206.489314 
L 167.81157 -72.264382 
L 160.976737 -71.838541 
L 154.141905 -71.327533 
L 147.307072 -66.430367 
L 140.47224 -66.004526 
L 133.637407 -66.004526 
L 126.802575 -66.430367 
L 119.967742 -65.749022 
L 113.13291 -65.28592 
L 106.298077 -64.556668 
L 99.463245 -64.215996 
L 92.628412 -63.619819 
L 85.79358 -63.10881 
z
" id="mcc4c5fdb7f" style="stroke:#ffbb78;stroke-opacity:0.2;"/>
    </defs>
    <g clip-path="url(#p296a05e091)">
     <use style="fill:#ffbb78;fill-opacity:0.2;stroke:#ffbb78;stroke-opacity:0.2;" x="0" xlink:href="#mcc4c5fdb7f" y="325.986375"/>
    </g>
   </g>
   <g id="PolyCollection_2">
    <defs>
     <path d="M 85.79358 -66.04711 
L 85.79358 -49.65225 
L 92.628412 -52.454281 
L 99.463245 -51.824037 
L 106.298077 -52.164709 
L 113.13291 -56.806371 
L 119.967742 -57.019291 
L 126.802575 -57.189627 
L 133.637407 -57.189627 
L 140.47224 -57.189627 
L 147.307072 -57.402547 
L 154.141905 -57.402547 
L 160.976737 -58.083892 
L 167.81157 -63.662403 
L 174.646403 -64.000946 
L 181.481235 -64.003076 
L 188.316068 -64.599252 
L 195.1509 -64.590735 
L 201.985733 -64.386332 
L 208.820565 -64.343748 
L 215.655398 -64.763201 
L 222.49023 -64.641836 
L 229.325063 -64.727004 
L 236.159895 -64.727004 
L 242.994728 -63.492067 
L 249.82956 -64.68442 
L 256.664393 -66.004526 
L 263.499225 -65.493517 
L 270.334058 -65.749022 
L 277.168891 -66.302614 
L 284.003723 -67.026543 
L 290.838556 -68.635156 
L 297.673388 -70.901692 
L 304.508221 -70.944276 
L 311.343053 -70.092595 
L 318.177886 -70.348099 
L 325.012718 -71.753373 
L 331.847551 -72.008877 
L 338.682383 -72.008877 
L 345.517216 -70.749454 
L 352.352048 -72.392134 
L 359.186881 -73.267236 
L 366.021714 -73.286399 
L 372.856546 -72.519886 
L 379.691379 -73.350275 
L 386.526211 -72.690222 
L 393.361044 -73.456735 
L 400.195876 -73.456735 
L 407.030709 -74.819425 
L 413.865541 -74.819425 
L 420.700374 -72.434718 
L 427.535206 -71.370117 
L 434.370039 -71.455285 
L 441.204871 -73.030895 
L 448.039704 -73.030895 
L 454.874536 -73.456735 
L 461.709369 -76.280058 
L 468.544202 -74.206214 
L 475.379034 -76.820875 
L 482.213867 -73.541903 
L 489.048699 -73.541903 
L 495.883532 -76.735707 
L 502.718364 -76.672896 
L 509.553197 -76.838973 
L 516.388029 -74.223248 
L 523.222862 -74.862009 
L 530.057694 -74.862009 
L 536.892527 -77.187098 
L 543.727359 -74.862009 
L 550.562192 -77.707688 
L 557.397025 -74.862009 
L 564.231857 -77.76837 
L 571.06669 -77.928061 
L 577.901522 -75.245265 
L 584.736355 -78.396485 
L 591.571187 -74.904593 
L 598.40602 -78.651989 
L 605.240852 -78.651989 
L 612.075685 -78.651989 
L 618.910517 -78.651989 
L 625.74535 -76.607955 
L 632.580182 -78.439069 
L 639.415015 -78.688186 
L 646.249847 -76.607955 
L 653.08468 -76.607955 
L 659.919513 -79.120414 
L 666.754345 -76.991211 
L 673.589178 -78.901106 
L 680.42401 -79.120414 
L 687.258843 -78.950078 
L 694.093675 -79.162998 
L 700.928508 -77.885477 
L 707.76334 -80.047682 
L 714.598173 -80.047682 
L 721.433005 -80.130721 
L 728.267838 -78.353901 
L 735.10267 -80.610856 
L 735.10267 -231.060312 
L 735.10267 -231.060312 
L 728.267838 -230.421551 
L 721.433005 -230.667474 
L 714.598173 -228.377517 
L 707.76334 -230.166047 
L 700.928508 -230.166047 
L 694.093675 -229.961643 
L 687.258843 -228.462685 
L 680.42401 -228.462685 
L 673.589178 -228.296607 
L 666.754345 -228.462685 
L 659.919513 -228.334933 
L 653.08468 -228.164596 
L 646.249847 -227.014827 
L 639.415015 -227.014827 
L 632.580182 -227.142579 
L 625.74535 -229.058862 
L 618.910517 -226.120562 
L 612.075685 -225.822474 
L 605.240852 -226.120562 
L 598.40602 -225.481801 
L 591.571187 -225.481801 
L 584.736355 -222.077206 
L 577.901522 -225.481801 
L 571.06669 -225.354049 
L 564.231857 -225.311465 
L 557.397025 -228.718189 
L 550.562192 -225.013377 
L 543.727359 -225.226297 
L 536.892527 -225.226297 
L 530.057694 -225.301884 
L 523.222862 -224.935661 
L 516.388029 -224.4172 
L 509.553197 -227.785598 
L 502.718364 -224.332032 
L 495.883532 -224.332032 
L 489.048699 -224.4172 
L 482.213867 -224.4172 
L 475.379034 -224.332032 
L 468.544202 -224.4172 
L 461.709369 -224.033943 
L 454.874536 -224.119111 
L 448.039704 -224.033943 
L 441.204871 -224.033943 
L 434.370039 -224.036073 
L 427.535206 -223.650687 
L 420.700374 -223.650687 
L 413.865541 -227.099995 
L 407.030709 -219.520034 
L 400.195876 -222.245413 
L 393.361044 -222.799006 
L 386.526211 -219.167651 
L 379.691379 -221.564068 
L 372.856546 -221.564068 
L 366.021714 -221.564068 
L 359.186881 -222.075077 
L 352.352048 -221.436316 
L 345.517216 -220.286547 
L 338.682383 -220.669803 
L 331.847551 -216.709486 
L 325.012718 -220.286547 
L 318.177886 -220.243963 
L 311.343053 -216.453982 
L 304.508221 -216.198478 
L 297.673388 -215.815221 
L 290.838556 -214.419529 
L 284.003723 -88.275985 
L 277.168891 -87.59464 
L 270.334058 -87.083632 
L 263.499225 -87.552056 
L 256.664393 -87.211384 
L 249.82956 -86.95588 
L 242.994728 -85.082181 
L 236.159895 -83.165899 
L 229.325063 -83.123315 
L 222.49023 -82.151334 
L 215.655398 -82.01613 
L 208.820565 -80.483104 
L 201.985733 -80.314897 
L 195.1509 -80.270183 
L 188.316068 -80.185015 
L 181.481235 -79.162998 
L 174.646403 -79.418502 
L 167.81157 -79.418502 
L 160.976737 -78.013229 
L 154.141905 -77.886541 
L 147.307072 -77.672556 
L 140.47224 -76.397164 
L 133.637407 -76.309867 
L 126.802575 -76.237474 
L 119.967742 -75.373017 
L 113.13291 -74.691673 
L 106.298077 -72.221798 
L 99.463245 -66.219575 
L 92.628412 -66.600703 
L 85.79358 -66.04711 
z
" id="m7d01556ad9" style="stroke:#aec7e8;stroke-opacity:0.2;"/>
    </defs>
    <g clip-path="url(#p296a05e091)">
     <use style="fill:#aec7e8;fill-opacity:0.2;stroke:#aec7e8;stroke-opacity:0.2;" x="0" xlink:href="#m7d01556ad9" y="325.986375"/>
    </g>
   </g>
   <g id="PolyCollection_3">
    <defs>
     <path d="M 85.79358 -59.574334 
L 85.79358 -52.420213 
L 92.628412 -52.164709 
L 99.463245 -52.675718 
L 106.298077 -53.396453 
L 113.13291 -53.740319 
L 119.967742 -53.612567 
L 126.802575 -53.612567 
L 133.637407 -54.80492 
L 140.47224 -54.802791 
L 147.307072 -54.975257 
L 154.141905 -55.991951 
L 160.976737 -55.997274 
L 167.81157 -55.997274 
L 174.646403 -55.997274 
L 181.481235 -56.082442 
L 188.316068 -56.38053 
L 195.1509 -57.104459 
L 201.985733 -57.317379 
L 208.820565 -57.314186 
L 215.655398 -58.509733 
L 222.49023 -58.637485 
L 229.325063 -59.262406 
L 236.159895 -59.787254 
L 242.994728 -59.784061 
L 249.82956 -60.330201 
L 256.664393 -59.782996 
L 263.499225 -59.787254 
L 270.334058 -65.152845 
L 277.168891 -65.152845 
L 284.003723 -65.578685 
L 290.838556 -65.493517 
L 297.673388 -66.600703 
L 304.508221 -67.963392 
L 311.343053 -67.963392 
L 318.177886 -70.262931 
L 325.012718 -70.135179 
L 331.847551 -70.259737 
L 338.682383 -70.262931 
L 345.517216 -70.135179 
L 352.352048 -70.348099 
L 359.186881 -70.688772 
L 366.021714 -70.688772 
L 372.856546 -70.433267 
L 379.691379 -71.370117 
L 386.526211 -71.710789 
L 393.361044 -71.710789 
L 400.195876 -71.966293 
L 407.030709 -73.669655 
L 413.865541 -74.095496 
L 420.700374 -74.095496 
L 427.535206 -73.667526 
L 434.370039 -74.521336 
L 441.204871 -73.669655 
L 448.039704 -73.669655 
L 454.874536 -73.669655 
L 461.709369 -73.669655 
L 468.544202 -76.13953 
L 475.379034 -75.202681 
L 482.213867 -75.187777 
L 489.048699 -75.783954 
L 495.883532 -74.947177 
L 502.718364 -75.875509 
L 509.553197 -75.202681 
L 516.388029 -75.202681 
L 523.222862 -75.202681 
L 530.057694 -76.224699 
L 536.892527 -76.820875 
L 543.727359 -76.352451 
L 550.562192 -77.2893 
L 557.397025 -76.352451 
L 564.231857 -77.331884 
L 571.06669 -76.693123 
L 577.901522 -76.054362 
L 584.736355 -76.735707 
L 591.571187 -77.885477 
L 598.40602 -76.480203 
L 605.240852 -77.672556 
L 612.075685 -78.760579 
L 618.910517 -77.672556 
L 625.74535 -77.672556 
L 632.580182 -77.842892 
L 639.415015 -79.248166 
L 646.249847 -78.098397 
L 653.08468 -78.098397 
L 659.919513 -78.098397 
L 666.754345 -78.183565 
L 673.589178 -79.333334 
L 680.42401 -76.948627 
L 687.258843 -78.183565 
L 694.093675 -78.694574 
L 700.928508 -78.694574 
L 707.76334 -79.333334 
L 714.598173 -78.694574 
L 721.433005 -79.322688 
L 728.267838 -78.907494 
L 735.10267 -79.333334 
L 735.10267 -228.931109 
L 735.10267 -228.931109 
L 728.267838 -227.355499 
L 721.433005 -228.713931 
L 714.598173 -228.675605 
L 707.76334 -227.355499 
L 700.928508 -231.741657 
L 694.093675 -228.675605 
L 687.258843 -226.20573 
L 680.42401 -227.355499 
L 673.589178 -228.675605 
L 666.754345 -228.677734 
L 659.919513 -227.355499 
L 653.08468 -227.355499 
L 646.249847 -228.590437 
L 639.415015 -227.909092 
L 632.580182 -227.78134 
L 625.74535 -226.588986 
L 618.910517 -227.696172 
L 612.075685 -227.696172 
L 605.240852 -226.588986 
L 598.40602 -225.822474 
L 591.571187 -225.141129 
L 584.736355 -224.305417 
L 577.901522 -224.289448 
L 571.06669 -224.289448 
L 564.231857 -224.289448 
L 557.397025 -224.757872 
L 550.562192 -224.289448 
L 543.727359 -224.459784 
L 536.892527 -223.991359 
L 530.057694 -223.670914 
L 523.222862 -224.289448 
L 516.388029 -224.289448 
L 509.553197 -100.242104 
L 502.718364 -100.497608 
L 495.883532 -100.497608 
L 489.048699 -99.328676 
L 482.213867 -100.497608 
L 475.379034 -100.497608 
L 468.544202 -100.156936 
L 461.709369 -98.634556 
L 454.874536 -99.04975 
L 448.039704 -98.879414 
L 441.204871 -97.695578 
L 434.370039 -97.772229 
L 427.535206 -98.027733 
L 420.700374 -96.877964 
L 413.865541 -96.963132 
L 407.030709 -94.876513 
L 400.195876 -91.214285 
L 393.361044 -91.853046 
L 386.526211 -91.479371 
L 379.691379 -90.981137 
L 372.856546 -91.853046 
L 366.021714 -92.449222 
L 359.186881 -90.064515 
L 352.352048 -90.886388 
L 345.517216 -91.256869 
L 338.682383 -90.74586 
L 331.847551 -91.214285 
L 325.012718 -90.703276 
L 318.177886 -91.217479 
L 311.343053 -90.660692 
L 304.508221 -89.383171 
L 297.673388 -88.616658 
L 290.838556 -88.105649 
L 284.003723 -87.679809 
L 277.168891 -86.428902 
L 270.334058 -87.126216 
L 263.499225 -83.724815 
L 256.664393 -82.314218 
L 249.82956 -82.867811 
L 242.994728 -82.867811 
L 236.159895 -82.867811 
L 229.325063 -82.115138 
L 222.49023 -82.01613 
L 215.655398 -81.845793 
L 208.820565 -81.339043 
L 201.985733 -81.334785 
L 195.1509 -81.292201 
L 188.316068 -80.951528 
L 181.481235 -79.929511 
L 174.646403 -75.71369 
L 167.81157 -74.734257 
L 160.976737 -75.543354 
L 154.141905 -75.417731 
L 147.307072 -74.776841 
L 140.47224 -74.308416 
L 133.637407 -72.647638 
L 126.802575 -60.851856 
L 119.967742 -60.851856 
L 113.13291 -60.851856 
L 106.298077 -60.851856 
L 99.463245 -60.255679 
L 92.628412 -60.170511 
L 85.79358 -59.574334 
z
" id="m795d5baaf4" style="stroke:#1f77b4;stroke-opacity:0.2;"/>
    </defs>
    <g clip-path="url(#p296a05e091)">
     <use style="fill:#1f77b4;fill-opacity:0.2;stroke:#1f77b4;stroke-opacity:0.2;" x="0" xlink:href="#m795d5baaf4" y="325.986375"/>
    </g>
   </g>
   <g id="PolyCollection_4">
    <defs>
     <path d="M 85.79358 -61.788705 
L 85.79358 -51.355612 
L 92.628412 -52.846054 
L 99.463245 -52.888638 
L 106.298077 -53.48375 
L 113.13291 -53.612567 
L 119.967742 -53.399647 
L 126.802575 -54.37908 
L 133.637407 -54.37908 
L 140.47224 -54.932672 
L 147.307072 -54.502574 
L 154.141905 -58.083892 
L 160.976737 -58.850405 
L 167.81157 -59.276246 
L 174.646403 -58.925992 
L 181.481235 -60.809272 
L 188.316068 -60.681519 
L 195.1509 -60.979608 
L 201.985733 -61.277696 
L 208.820565 -61.064776 
L 215.655398 -61.916457 
L 222.49023 -62.086793 
L 229.325063 -61.986721 
L 236.159895 -61.405448 
L 242.994728 -62.89589 
L 249.82956 -63.697535 
L 256.664393 -63.704987 
L 263.499225 -63.704987 
L 270.334058 -63.449483 
L 277.168891 -63.449483 
L 284.003723 -64.088244 
L 290.838556 -64.130828 
L 297.673388 -65.749022 
L 304.508221 -64.173412 
L 311.343053 -64.173412 
L 318.177886 -64.511955 
L 325.012718 -64.599252 
L 331.847551 -64.641836 
L 338.682383 -64.641836 
L 345.517216 -64.641836 
L 352.352048 -64.854757 
L 359.186881 -64.25858 
L 366.021714 -64.2309 
L 372.856546 -67.62272 
L 379.691379 -67.62272 
L 386.526211 -67.62272 
L 393.361044 -67.494968 
L 400.195876 -68.559569 
L 407.030709 -67.62272 
L 413.865541 -67.62272 
L 420.700374 -67.878224 
L 427.535206 -68.133729 
L 434.370039 -68.133729 
L 441.204871 -69.027994 
L 448.039704 -68.133729 
L 454.874536 -68.715001 
L 461.709369 -69.326082 
L 468.544202 -68.729905 
L 475.379034 -68.729905 
L 482.213867 -71.658624 
L 489.048699 -72.264382 
L 495.883532 -71.881125 
L 502.718364 -72.647638 
L 509.553197 -71.795957 
L 516.388029 -72.434718 
L 523.222862 -72.008877 
L 530.057694 -73.201231 
L 536.892527 -72.434718 
L 543.727359 -72.860558 
L 550.562192 -73.243815 
L 557.397025 -73.030895 
L 564.231857 -73.243815 
L 571.06669 -73.030895 
L 577.901522 -73.243815 
L 584.736355 -73.116063 
L 591.571187 -73.116063 
L 598.40602 -73.116063 
L 605.240852 -73.116063 
L 612.075685 -73.116063 
L 618.910517 -73.116063 
L 625.74535 -73.116063 
L 632.580182 -73.371567 
L 639.415015 -73.662203 
L 646.249847 -73.371567 
L 653.08468 -73.371567 
L 659.919513 -74.265832 
L 666.754345 -73.669655 
L 673.589178 -73.92516 
L 680.42401 -73.92516 
L 687.258843 -74.519207 
L 694.093675 -74.432975 
L 700.928508 -74.308416 
L 707.76334 -74.308416 
L 714.598173 -74.862009 
L 721.433005 -74.556468 
L 728.267838 -74.56392 
L 735.10267 -74.862009 
L 735.10267 -234.594788 
L 735.10267 -234.594788 
L 728.267838 -228.931109 
L 721.433005 -224.20428 
L 714.598173 -223.906191 
L 707.76334 -223.612361 
L 700.928508 -224.20428 
L 694.093675 -224.161696 
L 687.258843 -224.161696 
L 680.42401 -223.395183 
L 673.589178 -223.395183 
L 666.754345 -223.399441 
L 659.919513 -223.395183 
L 653.08468 -223.26743 
L 646.249847 -223.26743 
L 639.415015 -223.26743 
L 632.580182 -223.26743 
L 625.74535 -222.543502 
L 618.910517 -223.382407 
L 612.075685 -222.713838 
L 605.240852 -223.26743 
L 598.40602 -223.224846 
L 591.571187 -223.224846 
L 584.736355 -223.224846 
L 577.901522 -223.224846 
L 571.06669 -100.710528 
L 564.231857 -100.710528 
L 557.397025 -101.477041 
L 550.562192 -101.477041 
L 543.727359 -100.710528 
L 536.892527 -99.944016 
L 530.057694 -101.477041 
L 523.222862 -101.477041 
L 516.388029 -101.496204 
L 509.553197 -101.264121 
L 502.718364 -101.264121 
L 495.883532 -100.029184 
L 489.048699 -101.008617 
L 482.213867 -98.198069 
L 475.379034 -92.406638 
L 468.544202 -91.983992 
L 461.709369 -91.299453 
L 454.874536 -91.086533 
L 448.039704 -91.554957 
L 441.204871 -92.449222 
L 434.370039 -91.810462 
L 427.535206 -90.831028 
L 420.700374 -90.878935 
L 413.865541 -90.749054 
L 407.030709 -90.873612 
L 400.195876 -90.447772 
L 393.361044 -90.447772 
L 386.526211 -90.107099 
L 379.691379 -90.447772 
L 372.856546 -90.021931 
L 366.021714 -89.258612 
L 359.186881 -89.596091 
L 352.352048 -89.383171 
L 345.517216 -89.085082 
L 338.682383 -89.085082 
L 331.847551 -88.616658 
L 325.012718 -87.637224 
L 318.177886 -88.627304 
L 311.343053 -88.275985 
L 304.508221 -88.514456 
L 297.673388 -88.361153 
L 290.838556 -87.637224 
L 284.003723 -87.637224 
L 277.168891 -87.211384 
L 270.334058 -87.296552 
L 263.499225 -85.422854 
L 256.664393 -85.337686 
L 249.82956 -85.252518 
L 242.994728 -84.741509 
L 236.159895 -83.719492 
L 229.325063 -83.038147 
L 222.49023 -82.65489 
L 215.655398 -82.44197 
L 208.820565 -81.760625 
L 201.985733 -81.760625 
L 195.1509 -81.760625 
L 188.316068 -81.377369 
L 181.481235 -81.419953 
L 174.646403 -79.205582 
L 167.81157 -77.848215 
L 160.976737 -76.991211 
L 154.141905 -76.650539 
L 147.307072 -70.731356 
L 140.47224 -70.177763 
L 133.637407 -70.220347 
L 126.802575 -70.220347 
L 119.967742 -65.152845 
L 113.13291 -63.747571 
L 106.298077 -63.747571 
L 99.463245 -63.364315 
L 92.628412 -63.368573 
L 85.79358 -61.788705 
z
" id="m6240ef2e0c" style="stroke:#ff7f0e;stroke-opacity:0.2;"/>
    </defs>
    <g clip-path="url(#p296a05e091)">
     <use style="fill:#ff7f0e;fill-opacity:0.2;stroke:#ff7f0e;stroke-opacity:0.2;" x="0" xlink:href="#m6240ef2e0c" y="325.986375"/>
    </g>
   </g>
   <g id="matplotlib.axis_1">
    <g id="xtick_1">
     <g id="line2d_1">
      <defs>
       <path d="M 0 0 
L 0 3.5 
" id="m38f29c1744" style="stroke:#000000;stroke-width:0.8;"/>
      </defs>
      <g>
       <use style="stroke:#000000;stroke-width:0.8;" x="85.79358" xlink:href="#m38f29c1744" y="288.430125"/>
      </g>
     </g>
     <g id="text_1">
      <!-- 15m -->
      <g transform="translate(74.560767 303.028562)scale(0.1 -0.1)">
       <defs>
        <path d="M 12.40625 8.296875 
L 28.515625 8.296875 
L 28.515625 63.921875 
L 10.984375 60.40625 
L 10.984375 69.390625 
L 28.421875 72.90625 
L 38.28125 72.90625 
L 38.28125 8.296875 
L 54.390625 8.296875 
L 54.390625 0 
L 12.40625 0 
z
" id="DejaVuSans-49"/>
        <path d="M 10.796875 72.90625 
L 49.515625 72.90625 
L 49.515625 64.59375 
L 19.828125 64.59375 
L 19.828125 46.734375 
Q 21.96875 47.46875 24.109375 47.828125 
Q 26.265625 48.1875 28.421875 48.1875 
Q 40.625 48.1875 47.75 41.5 
Q 54.890625 34.8125 54.890625 23.390625 
Q 54.890625 11.625 47.5625 5.09375 
Q 40.234375 -1.421875 26.90625 -1.421875 
Q 22.3125 -1.421875 17.546875 -0.640625 
Q 12.796875 0.140625 7.71875 1.703125 
L 7.71875 11.625 
Q 12.109375 9.234375 16.796875 8.0625 
Q 21.484375 6.890625 26.703125 6.890625 
Q 35.15625 6.890625 40.078125 11.328125 
Q 45.015625 15.765625 45.015625 23.390625 
Q 45.015625 31 40.078125 35.4375 
Q 35.15625 39.890625 26.703125 39.890625 
Q 22.75 39.890625 18.8125 39.015625 
Q 14.890625 38.140625 10.796875 36.28125 
z
" id="DejaVuSans-53"/>
        <path d="M 52 44.1875 
Q 55.375 50.25 60.0625 53.125 
Q 64.75 56 71.09375 56 
Q 79.640625 56 84.28125 50.015625 
Q 88.921875 44.046875 88.921875 33.015625 
L 88.921875 0 
L 79.890625 0 
L 79.890625 32.71875 
Q 79.890625 40.578125 77.09375 44.375 
Q 74.3125 48.1875 68.609375 48.1875 
Q 61.625 48.1875 57.5625 43.546875 
Q 53.515625 38.921875 53.515625 30.90625 
L 53.515625 0 
L 44.484375 0 
L 44.484375 32.71875 
Q 44.484375 40.625 41.703125 44.40625 
Q 38.921875 48.1875 33.109375 48.1875 
Q 26.21875 48.1875 22.15625 43.53125 
Q 18.109375 38.875 18.109375 30.90625 
L 18.109375 0 
L 9.078125 0 
L 9.078125 54.6875 
L 18.109375 54.6875 
L 18.109375 46.1875 
Q 21.1875 51.21875 25.484375 53.609375 
Q 29.78125 56 35.6875 56 
Q 41.65625 56 45.828125 52.96875 
Q 50 49.953125 52 44.1875 
z
" id="DejaVuSans-109"/>
       </defs>
       <use xlink:href="#DejaVuSans-49"/>
       <use x="63.623047" xlink:href="#DejaVuSans-53"/>
       <use x="127.246094" xlink:href="#DejaVuSans-109"/>
      </g>
     </g>
    </g>
    <g id="xtick_2">
     <g id="line2d_2">
      <g>
       <use style="stroke:#000000;stroke-width:0.8;" x="140.47224" xlink:href="#m38f29c1744" y="288.430125"/>
      </g>
     </g>
     <g id="text_2">
      <!-- 2h:15m -->
      <g transform="translate(121.205052 303.028562)scale(0.1 -0.1)">
       <defs>
        <path d="M 19.1875 8.296875 
L 53.609375 8.296875 
L 53.609375 0 
L 7.328125 0 
L 7.328125 8.296875 
Q 12.9375 14.109375 22.625 23.890625 
Q 32.328125 33.6875 34.8125 36.53125 
Q 39.546875 41.84375 41.421875 45.53125 
Q 43.3125 49.21875 43.3125 52.78125 
Q 43.3125 58.59375 39.234375 62.25 
Q 35.15625 65.921875 28.609375 65.921875 
Q 23.96875 65.921875 18.8125 64.3125 
Q 13.671875 62.703125 7.8125 59.421875 
L 7.8125 69.390625 
Q 13.765625 71.78125 18.9375 73 
Q 24.125 74.21875 28.421875 74.21875 
Q 39.75 74.21875 46.484375 68.546875 
Q 53.21875 62.890625 53.21875 53.421875 
Q 53.21875 48.921875 51.53125 44.890625 
Q 49.859375 40.875 45.40625 35.40625 
Q 44.1875 33.984375 37.640625 27.21875 
Q 31.109375 20.453125 19.1875 8.296875 
z
" id="DejaVuSans-50"/>
        <path d="M 54.890625 33.015625 
L 54.890625 0 
L 45.90625 0 
L 45.90625 32.71875 
Q 45.90625 40.484375 42.875 44.328125 
Q 39.84375 48.1875 33.796875 48.1875 
Q 26.515625 48.1875 22.3125 43.546875 
Q 18.109375 38.921875 18.109375 30.90625 
L 18.109375 0 
L 9.078125 0 
L 9.078125 75.984375 
L 18.109375 75.984375 
L 18.109375 46.1875 
Q 21.34375 51.125 25.703125 53.5625 
Q 30.078125 56 35.796875 56 
Q 45.21875 56 50.046875 50.171875 
Q 54.890625 44.34375 54.890625 33.015625 
z
" id="DejaVuSans-104"/>
        <path d="M 11.71875 12.40625 
L 22.015625 12.40625 
L 22.015625 0 
L 11.71875 0 
z
M 11.71875 51.703125 
L 22.015625 51.703125 
L 22.015625 39.3125 
L 11.71875 39.3125 
z
" id="DejaVuSans-58"/>
       </defs>
       <use xlink:href="#DejaVuSans-50"/>
       <use x="63.623047" xlink:href="#DejaVuSans-104"/>
       <use x="127.001953" xlink:href="#DejaVuSans-58"/>
       <use x="160.693359" xlink:href="#DejaVuSans-49"/>
       <use x="224.316406" xlink:href="#DejaVuSans-53"/>
       <use x="287.939453" xlink:href="#DejaVuSans-109"/>
      </g>
     </g>
    </g>
    <g id="xtick_3">
     <g id="line2d_3">
      <g>
       <use style="stroke:#000000;stroke-width:0.8;" x="195.1509" xlink:href="#m38f29c1744" y="288.430125"/>
      </g>
     </g>
     <g id="text_3">
      <!-- 4h:15m -->
      <g transform="translate(175.883713 303.028562)scale(0.1 -0.1)">
       <defs>
        <path d="M 37.796875 64.3125 
L 12.890625 25.390625 
L 37.796875 25.390625 
z
M 35.203125 72.90625 
L 47.609375 72.90625 
L 47.609375 25.390625 
L 58.015625 25.390625 
L 58.015625 17.1875 
L 47.609375 17.1875 
L 47.609375 0 
L 37.796875 0 
L 37.796875 17.1875 
L 4.890625 17.1875 
L 4.890625 26.703125 
z
" id="DejaVuSans-52"/>
       </defs>
       <use xlink:href="#DejaVuSans-52"/>
       <use x="63.623047" xlink:href="#DejaVuSans-104"/>
       <use x="127.001953" xlink:href="#DejaVuSans-58"/>
       <use x="160.693359" xlink:href="#DejaVuSans-49"/>
       <use x="224.316406" xlink:href="#DejaVuSans-53"/>
       <use x="287.939453" xlink:href="#DejaVuSans-109"/>
      </g>
     </g>
    </g>
    <g id="xtick_4">
     <g id="line2d_4">
      <g>
       <use style="stroke:#000000;stroke-width:0.8;" x="249.82956" xlink:href="#m38f29c1744" y="288.430125"/>
      </g>
     </g>
     <g id="text_4">
      <!-- 6h:15m -->
      <g transform="translate(230.562373 303.028562)scale(0.1 -0.1)">
       <defs>
        <path d="M 33.015625 40.375 
Q 26.375 40.375 22.484375 35.828125 
Q 18.609375 31.296875 18.609375 23.390625 
Q 18.609375 15.53125 22.484375 10.953125 
Q 26.375 6.390625 33.015625 6.390625 
Q 39.65625 6.390625 43.53125 10.953125 
Q 47.40625 15.53125 47.40625 23.390625 
Q 47.40625 31.296875 43.53125 35.828125 
Q 39.65625 40.375 33.015625 40.375 
z
M 52.59375 71.296875 
L 52.59375 62.3125 
Q 48.875 64.0625 45.09375 64.984375 
Q 41.3125 65.921875 37.59375 65.921875 
Q 27.828125 65.921875 22.671875 59.328125 
Q 17.53125 52.734375 16.796875 39.40625 
Q 19.671875 43.65625 24.015625 45.921875 
Q 28.375 48.1875 33.59375 48.1875 
Q 44.578125 48.1875 50.953125 41.515625 
Q 57.328125 34.859375 57.328125 23.390625 
Q 57.328125 12.15625 50.6875 5.359375 
Q 44.046875 -1.421875 33.015625 -1.421875 
Q 20.359375 -1.421875 13.671875 8.265625 
Q 6.984375 17.96875 6.984375 36.375 
Q 6.984375 53.65625 15.1875 63.9375 
Q 23.390625 74.21875 37.203125 74.21875 
Q 40.921875 74.21875 44.703125 73.484375 
Q 48.484375 72.75 52.59375 71.296875 
z
" id="DejaVuSans-54"/>
       </defs>
       <use xlink:href="#DejaVuSans-54"/>
       <use x="63.623047" xlink:href="#DejaVuSans-104"/>
       <use x="127.001953" xlink:href="#DejaVuSans-58"/>
       <use x="160.693359" xlink:href="#DejaVuSans-49"/>
       <use x="224.316406" xlink:href="#DejaVuSans-53"/>
       <use x="287.939453" xlink:href="#DejaVuSans-109"/>
      </g>
     </g>
    </g>
    <g id="xtick_5">
     <g id="line2d_5">
      <g>
       <use style="stroke:#000000;stroke-width:0.8;" x="304.508221" xlink:href="#m38f29c1744" y="288.430125"/>
      </g>
     </g>
     <g id="text_5">
      <!-- 8h:15m -->
      <g transform="translate(285.241033 303.028562)scale(0.1 -0.1)">
       <defs>
        <path d="M 31.78125 34.625 
Q 24.75 34.625 20.71875 30.859375 
Q 16.703125 27.09375 16.703125 20.515625 
Q 16.703125 13.921875 20.71875 10.15625 
Q 24.75 6.390625 31.78125 6.390625 
Q 38.8125 6.390625 42.859375 10.171875 
Q 46.921875 13.96875 46.921875 20.515625 
Q 46.921875 27.09375 42.890625 30.859375 
Q 38.875 34.625 31.78125 34.625 
z
M 21.921875 38.8125 
Q 15.578125 40.375 12.03125 44.71875 
Q 8.5 49.078125 8.5 55.328125 
Q 8.5 64.0625 14.71875 69.140625 
Q 20.953125 74.21875 31.78125 74.21875 
Q 42.671875 74.21875 48.875 69.140625 
Q 55.078125 64.0625 55.078125 55.328125 
Q 55.078125 49.078125 51.53125 44.71875 
Q 48 40.375 41.703125 38.8125 
Q 48.828125 37.15625 52.796875 32.3125 
Q 56.78125 27.484375 56.78125 20.515625 
Q 56.78125 9.90625 50.3125 4.234375 
Q 43.84375 -1.421875 31.78125 -1.421875 
Q 19.734375 -1.421875 13.25 4.234375 
Q 6.78125 9.90625 6.78125 20.515625 
Q 6.78125 27.484375 10.78125 32.3125 
Q 14.796875 37.15625 21.921875 38.8125 
z
M 18.3125 54.390625 
Q 18.3125 48.734375 21.84375 45.5625 
Q 25.390625 42.390625 31.78125 42.390625 
Q 38.140625 42.390625 41.71875 45.5625 
Q 45.3125 48.734375 45.3125 54.390625 
Q 45.3125 60.0625 41.71875 63.234375 
Q 38.140625 66.40625 31.78125 66.40625 
Q 25.390625 66.40625 21.84375 63.234375 
Q 18.3125 60.0625 18.3125 54.390625 
z
" id="DejaVuSans-56"/>
       </defs>
       <use xlink:href="#DejaVuSans-56"/>
       <use x="63.623047" xlink:href="#DejaVuSans-104"/>
       <use x="127.001953" xlink:href="#DejaVuSans-58"/>
       <use x="160.693359" xlink:href="#DejaVuSans-49"/>
       <use x="224.316406" xlink:href="#DejaVuSans-53"/>
       <use x="287.939453" xlink:href="#DejaVuSans-109"/>
      </g>
     </g>
    </g>
    <g id="xtick_6">
     <g id="line2d_6">
      <g>
       <use style="stroke:#000000;stroke-width:0.8;" x="359.186881" xlink:href="#m38f29c1744" y="288.430125"/>
      </g>
     </g>
     <g id="text_6">
      <!-- 10h:15m -->
      <g transform="translate(336.738443 303.028562)scale(0.1 -0.1)">
       <defs>
        <path d="M 31.78125 66.40625 
Q 24.171875 66.40625 20.328125 58.90625 
Q 16.5 51.421875 16.5 36.375 
Q 16.5 21.390625 20.328125 13.890625 
Q 24.171875 6.390625 31.78125 6.390625 
Q 39.453125 6.390625 43.28125 13.890625 
Q 47.125 21.390625 47.125 36.375 
Q 47.125 51.421875 43.28125 58.90625 
Q 39.453125 66.40625 31.78125 66.40625 
z
M 31.78125 74.21875 
Q 44.046875 74.21875 50.515625 64.515625 
Q 56.984375 54.828125 56.984375 36.375 
Q 56.984375 17.96875 50.515625 8.265625 
Q 44.046875 -1.421875 31.78125 -1.421875 
Q 19.53125 -1.421875 13.0625 8.265625 
Q 6.59375 17.96875 6.59375 36.375 
Q 6.59375 54.828125 13.0625 64.515625 
Q 19.53125 74.21875 31.78125 74.21875 
z
" id="DejaVuSans-48"/>
       </defs>
       <use xlink:href="#DejaVuSans-49"/>
       <use x="63.623047" xlink:href="#DejaVuSans-48"/>
       <use x="127.246094" xlink:href="#DejaVuSans-104"/>
       <use x="190.625" xlink:href="#DejaVuSans-58"/>
       <use x="224.316406" xlink:href="#DejaVuSans-49"/>
       <use x="287.939453" xlink:href="#DejaVuSans-53"/>
       <use x="351.5625" xlink:href="#DejaVuSans-109"/>
      </g>
     </g>
    </g>
    <g id="xtick_7">
     <g id="line2d_7">
      <g>
       <use style="stroke:#000000;stroke-width:0.8;" x="413.865541" xlink:href="#m38f29c1744" y="288.430125"/>
      </g>
     </g>
     <g id="text_7">
      <!-- 12h:15m -->
      <g transform="translate(391.417104 303.028562)scale(0.1 -0.1)">
       <use xlink:href="#DejaVuSans-49"/>
       <use x="63.623047" xlink:href="#DejaVuSans-50"/>
       <use x="127.246094" xlink:href="#DejaVuSans-104"/>
       <use x="190.625" xlink:href="#DejaVuSans-58"/>
       <use x="224.316406" xlink:href="#DejaVuSans-49"/>
       <use x="287.939453" xlink:href="#DejaVuSans-53"/>
       <use x="351.5625" xlink:href="#DejaVuSans-109"/>
      </g>
     </g>
    </g>
    <g id="xtick_8">
     <g id="line2d_8">
      <g>
       <use style="stroke:#000000;stroke-width:0.8;" x="468.544202" xlink:href="#m38f29c1744" y="288.430125"/>
      </g>
     </g>
     <g id="text_8">
      <!-- 14h:15m -->
      <g transform="translate(446.095764 303.028562)scale(0.1 -0.1)">
       <use xlink:href="#DejaVuSans-49"/>
       <use x="63.623047" xlink:href="#DejaVuSans-52"/>
       <use x="127.246094" xlink:href="#DejaVuSans-104"/>
       <use x="190.625" xlink:href="#DejaVuSans-58"/>
       <use x="224.316406" xlink:href="#DejaVuSans-49"/>
       <use x="287.939453" xlink:href="#DejaVuSans-53"/>
       <use x="351.5625" xlink:href="#DejaVuSans-109"/>
      </g>
     </g>
    </g>
    <g id="xtick_9">
     <g id="line2d_9">
      <g>
       <use style="stroke:#000000;stroke-width:0.8;" x="523.222862" xlink:href="#m38f29c1744" y="288.430125"/>
      </g>
     </g>
     <g id="text_9">
      <!-- 16h:15m -->
      <g transform="translate(500.774424 303.028562)scale(0.1 -0.1)">
       <use xlink:href="#DejaVuSans-49"/>
       <use x="63.623047" xlink:href="#DejaVuSans-54"/>
       <use x="127.246094" xlink:href="#DejaVuSans-104"/>
       <use x="190.625" xlink:href="#DejaVuSans-58"/>
       <use x="224.316406" xlink:href="#DejaVuSans-49"/>
       <use x="287.939453" xlink:href="#DejaVuSans-53"/>
       <use x="351.5625" xlink:href="#DejaVuSans-109"/>
      </g>
     </g>
    </g>
    <g id="xtick_10">
     <g id="line2d_10">
      <g>
       <use style="stroke:#000000;stroke-width:0.8;" x="577.901522" xlink:href="#m38f29c1744" y="288.430125"/>
      </g>
     </g>
     <g id="text_10">
      <!-- 18h:15m -->
      <g transform="translate(555.453085 303.028562)scale(0.1 -0.1)">
       <use xlink:href="#DejaVuSans-49"/>
       <use x="63.623047" xlink:href="#DejaVuSans-56"/>
       <use x="127.246094" xlink:href="#DejaVuSans-104"/>
       <use x="190.625" xlink:href="#DejaVuSans-58"/>
       <use x="224.316406" xlink:href="#DejaVuSans-49"/>
       <use x="287.939453" xlink:href="#DejaVuSans-53"/>
       <use x="351.5625" xlink:href="#DejaVuSans-109"/>
      </g>
     </g>
    </g>
    <g id="xtick_11">
     <g id="line2d_11">
      <g>
       <use style="stroke:#000000;stroke-width:0.8;" x="632.580182" xlink:href="#m38f29c1744" y="288.430125"/>
      </g>
     </g>
     <g id="text_11">
      <!-- 20h:15m -->
      <g transform="translate(610.131745 303.028562)scale(0.1 -0.1)">
       <use xlink:href="#DejaVuSans-50"/>
       <use x="63.623047" xlink:href="#DejaVuSans-48"/>
       <use x="127.246094" xlink:href="#DejaVuSans-104"/>
       <use x="190.625" xlink:href="#DejaVuSans-58"/>
       <use x="224.316406" xlink:href="#DejaVuSans-49"/>
       <use x="287.939453" xlink:href="#DejaVuSans-53"/>
       <use x="351.5625" xlink:href="#DejaVuSans-109"/>
      </g>
     </g>
    </g>
    <g id="xtick_12">
     <g id="line2d_12">
      <g>
       <use style="stroke:#000000;stroke-width:0.8;" x="687.258843" xlink:href="#m38f29c1744" y="288.430125"/>
      </g>
     </g>
     <g id="text_12">
      <!-- 22h:15m -->
      <g transform="translate(664.810405 303.028562)scale(0.1 -0.1)">
       <use xlink:href="#DejaVuSans-50"/>
       <use x="63.623047" xlink:href="#DejaVuSans-50"/>
       <use x="127.246094" xlink:href="#DejaVuSans-104"/>
       <use x="190.625" xlink:href="#DejaVuSans-58"/>
       <use x="224.316406" xlink:href="#DejaVuSans-49"/>
       <use x="287.939453" xlink:href="#DejaVuSans-53"/>
       <use x="351.5625" xlink:href="#DejaVuSans-109"/>
      </g>
     </g>
    </g>
    <g id="text_13">
     <!-- Time (hour:minute) -->
     <g transform="translate(362.041094 316.706687)scale(0.1 -0.1)">
      <defs>
       <path d="M -0.296875 72.90625 
L 61.375 72.90625 
L 61.375 64.59375 
L 35.5 64.59375 
L 35.5 0 
L 25.59375 0 
L 25.59375 64.59375 
L -0.296875 64.59375 
z
" id="DejaVuSans-84"/>
       <path d="M 9.421875 54.6875 
L 18.40625 54.6875 
L 18.40625 0 
L 9.421875 0 
z
M 9.421875 75.984375 
L 18.40625 75.984375 
L 18.40625 64.59375 
L 9.421875 64.59375 
z
" id="DejaVuSans-105"/>
       <path d="M 56.203125 29.59375 
L 56.203125 25.203125 
L 14.890625 25.203125 
Q 15.484375 15.921875 20.484375 11.0625 
Q 25.484375 6.203125 34.421875 6.203125 
Q 39.59375 6.203125 44.453125 7.46875 
Q 49.3125 8.734375 54.109375 11.28125 
L 54.109375 2.78125 
Q 49.265625 0.734375 44.1875 -0.34375 
Q 39.109375 -1.421875 33.890625 -1.421875 
Q 20.796875 -1.421875 13.15625 6.1875 
Q 5.515625 13.8125 5.515625 26.8125 
Q 5.515625 40.234375 12.765625 48.109375 
Q 20.015625 56 32.328125 56 
Q 43.359375 56 49.78125 48.890625 
Q 56.203125 41.796875 56.203125 29.59375 
z
M 47.21875 32.234375 
Q 47.125 39.59375 43.09375 43.984375 
Q 39.0625 48.390625 32.421875 48.390625 
Q 24.90625 48.390625 20.390625 44.140625 
Q 15.875 39.890625 15.1875 32.171875 
z
" id="DejaVuSans-101"/>
       <path id="DejaVuSans-32"/>
       <path d="M 31 75.875 
Q 24.46875 64.65625 21.28125 53.65625 
Q 18.109375 42.671875 18.109375 31.390625 
Q 18.109375 20.125 21.3125 9.0625 
Q 24.515625 -2 31 -13.1875 
L 23.1875 -13.1875 
Q 15.875 -1.703125 12.234375 9.375 
Q 8.59375 20.453125 8.59375 31.390625 
Q 8.59375 42.28125 12.203125 53.3125 
Q 15.828125 64.359375 23.1875 75.875 
z
" id="DejaVuSans-40"/>
       <path d="M 30.609375 48.390625 
Q 23.390625 48.390625 19.1875 42.75 
Q 14.984375 37.109375 14.984375 27.296875 
Q 14.984375 17.484375 19.15625 11.84375 
Q 23.34375 6.203125 30.609375 6.203125 
Q 37.796875 6.203125 41.984375 11.859375 
Q 46.1875 17.53125 46.1875 27.296875 
Q 46.1875 37.015625 41.984375 42.703125 
Q 37.796875 48.390625 30.609375 48.390625 
z
M 30.609375 56 
Q 42.328125 56 49.015625 48.375 
Q 55.71875 40.765625 55.71875 27.296875 
Q 55.71875 13.875 49.015625 6.21875 
Q 42.328125 -1.421875 30.609375 -1.421875 
Q 18.84375 -1.421875 12.171875 6.21875 
Q 5.515625 13.875 5.515625 27.296875 
Q 5.515625 40.765625 12.171875 48.375 
Q 18.84375 56 30.609375 56 
z
" id="DejaVuSans-111"/>
       <path d="M 8.5 21.578125 
L 8.5 54.6875 
L 17.484375 54.6875 
L 17.484375 21.921875 
Q 17.484375 14.15625 20.5 10.265625 
Q 23.53125 6.390625 29.59375 6.390625 
Q 36.859375 6.390625 41.078125 11.03125 
Q 45.3125 15.671875 45.3125 23.6875 
L 45.3125 54.6875 
L 54.296875 54.6875 
L 54.296875 0 
L 45.3125 0 
L 45.3125 8.40625 
Q 42.046875 3.421875 37.71875 1 
Q 33.40625 -1.421875 27.6875 -1.421875 
Q 18.265625 -1.421875 13.375 4.4375 
Q 8.5 10.296875 8.5 21.578125 
z
M 31.109375 56 
z
" id="DejaVuSans-117"/>
       <path d="M 41.109375 46.296875 
Q 39.59375 47.171875 37.8125 47.578125 
Q 36.03125 48 33.890625 48 
Q 26.265625 48 22.1875 43.046875 
Q 18.109375 38.09375 18.109375 28.8125 
L 18.109375 0 
L 9.078125 0 
L 9.078125 54.6875 
L 18.109375 54.6875 
L 18.109375 46.1875 
Q 20.953125 51.171875 25.484375 53.578125 
Q 30.03125 56 36.53125 56 
Q 37.453125 56 38.578125 55.875 
Q 39.703125 55.765625 41.0625 55.515625 
z
" id="DejaVuSans-114"/>
       <path d="M 54.890625 33.015625 
L 54.890625 0 
L 45.90625 0 
L 45.90625 32.71875 
Q 45.90625 40.484375 42.875 44.328125 
Q 39.84375 48.1875 33.796875 48.1875 
Q 26.515625 48.1875 22.3125 43.546875 
Q 18.109375 38.921875 18.109375 30.90625 
L 18.109375 0 
L 9.078125 0 
L 9.078125 54.6875 
L 18.109375 54.6875 
L 18.109375 46.1875 
Q 21.34375 51.125 25.703125 53.5625 
Q 30.078125 56 35.796875 56 
Q 45.21875 56 50.046875 50.171875 
Q 54.890625 44.34375 54.890625 33.015625 
z
" id="DejaVuSans-110"/>
       <path d="M 18.3125 70.21875 
L 18.3125 54.6875 
L 36.8125 54.6875 
L 36.8125 47.703125 
L 18.3125 47.703125 
L 18.3125 18.015625 
Q 18.3125 11.328125 20.140625 9.421875 
Q 21.96875 7.515625 27.59375 7.515625 
L 36.8125 7.515625 
L 36.8125 0 
L 27.59375 0 
Q 17.1875 0 13.234375 3.875 
Q 9.28125 7.765625 9.28125 18.015625 
L 9.28125 47.703125 
L 2.6875 47.703125 
L 2.6875 54.6875 
L 9.28125 54.6875 
L 9.28125 70.21875 
z
" id="DejaVuSans-116"/>
       <path d="M 8.015625 75.875 
L 15.828125 75.875 
Q 23.140625 64.359375 26.78125 53.3125 
Q 30.421875 42.28125 30.421875 31.390625 
Q 30.421875 20.453125 26.78125 9.375 
Q 23.140625 -1.703125 15.828125 -13.1875 
L 8.015625 -13.1875 
Q 14.5 -2 17.703125 9.0625 
Q 20.90625 20.125 20.90625 31.390625 
Q 20.90625 42.671875 17.703125 53.65625 
Q 14.5 64.65625 8.015625 75.875 
z
" id="DejaVuSans-41"/>
      </defs>
      <use xlink:href="#DejaVuSans-84"/>
      <use x="57.958984" xlink:href="#DejaVuSans-105"/>
      <use x="85.742188" xlink:href="#DejaVuSans-109"/>
      <use x="183.154297" xlink:href="#DejaVuSans-101"/>
      <use x="244.677734" xlink:href="#DejaVuSans-32"/>
      <use x="276.464844" xlink:href="#DejaVuSans-40"/>
      <use x="315.478516" xlink:href="#DejaVuSans-104"/>
      <use x="378.857422" xlink:href="#DejaVuSans-111"/>
      <use x="440.039062" xlink:href="#DejaVuSans-117"/>
      <use x="503.417969" xlink:href="#DejaVuSans-114"/>
      <use x="542.78125" xlink:href="#DejaVuSans-58"/>
      <use x="576.472656" xlink:href="#DejaVuSans-109"/>
      <use x="673.884766" xlink:href="#DejaVuSans-105"/>
      <use x="701.667969" xlink:href="#DejaVuSans-110"/>
      <use x="765.046875" xlink:href="#DejaVuSans-117"/>
      <use x="828.425781" xlink:href="#DejaVuSans-116"/>
      <use x="867.634766" xlink:href="#DejaVuSans-101"/>
      <use x="929.158203" xlink:href="#DejaVuSans-41"/>
     </g>
    </g>
   </g>
   <g id="matplotlib.axis_2">
    <g id="ytick_1">
     <g id="line2d_13">
      <defs>
       <path d="M 0 0 
L -3.5 0 
" id="m742e211ab1" style="stroke:#000000;stroke-width:0.8;"/>
      </defs>
      <g>
       <use style="stroke:#000000;stroke-width:0.8;" x="53.328125" xlink:href="#m742e211ab1" y="250.272685"/>
      </g>
     </g>
     <g id="text_14">
      <!-- 1200 -->
      <g transform="translate(20.878125 254.071904)scale(0.1 -0.1)">
       <use xlink:href="#DejaVuSans-49"/>
       <use x="63.623047" xlink:href="#DejaVuSans-50"/>
       <use x="127.246094" xlink:href="#DejaVuSans-48"/>
       <use x="190.869141" xlink:href="#DejaVuSans-48"/>
      </g>
     </g>
    </g>
    <g id="ytick_2">
     <g id="line2d_14">
      <g>
       <use style="stroke:#000000;stroke-width:0.8;" x="53.328125" xlink:href="#m742e211ab1" y="207.688633"/>
      </g>
     </g>
     <g id="text_15">
      <!-- 1400 -->
      <g transform="translate(20.878125 211.487852)scale(0.1 -0.1)">
       <use xlink:href="#DejaVuSans-49"/>
       <use x="63.623047" xlink:href="#DejaVuSans-52"/>
       <use x="127.246094" xlink:href="#DejaVuSans-48"/>
       <use x="190.869141" xlink:href="#DejaVuSans-48"/>
      </g>
     </g>
    </g>
    <g id="ytick_3">
     <g id="line2d_15">
      <g>
       <use style="stroke:#000000;stroke-width:0.8;" x="53.328125" xlink:href="#m742e211ab1" y="165.104581"/>
      </g>
     </g>
     <g id="text_16">
      <!-- 1600 -->
      <g transform="translate(20.878125 168.9038)scale(0.1 -0.1)">
       <use xlink:href="#DejaVuSans-49"/>
       <use x="63.623047" xlink:href="#DejaVuSans-54"/>
       <use x="127.246094" xlink:href="#DejaVuSans-48"/>
       <use x="190.869141" xlink:href="#DejaVuSans-48"/>
      </g>
     </g>
    </g>
    <g id="ytick_4">
     <g id="line2d_16">
      <g>
       <use style="stroke:#000000;stroke-width:0.8;" x="53.328125" xlink:href="#m742e211ab1" y="122.520529"/>
      </g>
     </g>
     <g id="text_17">
      <!-- 1800 -->
      <g transform="translate(20.878125 126.319748)scale(0.1 -0.1)">
       <use xlink:href="#DejaVuSans-49"/>
       <use x="63.623047" xlink:href="#DejaVuSans-56"/>
       <use x="127.246094" xlink:href="#DejaVuSans-48"/>
       <use x="190.869141" xlink:href="#DejaVuSans-48"/>
      </g>
     </g>
    </g>
    <g id="ytick_5">
     <g id="line2d_17">
      <g>
       <use style="stroke:#000000;stroke-width:0.8;" x="53.328125" xlink:href="#m742e211ab1" y="79.936477"/>
      </g>
     </g>
     <g id="text_18">
      <!-- 2000 -->
      <g transform="translate(20.878125 83.735695)scale(0.1 -0.1)">
       <use xlink:href="#DejaVuSans-50"/>
       <use x="63.623047" xlink:href="#DejaVuSans-48"/>
       <use x="127.246094" xlink:href="#DejaVuSans-48"/>
       <use x="190.869141" xlink:href="#DejaVuSans-48"/>
      </g>
     </g>
    </g>
    <g id="ytick_6">
     <g id="line2d_18">
      <g>
       <use style="stroke:#000000;stroke-width:0.8;" x="53.328125" xlink:href="#m742e211ab1" y="37.352425"/>
      </g>
     </g>
     <g id="text_19">
      <!-- 2200 -->
      <g transform="translate(20.878125 41.151643)scale(0.1 -0.1)">
       <use xlink:href="#DejaVuSans-50"/>
       <use x="63.623047" xlink:href="#DejaVuSans-50"/>
       <use x="127.246094" xlink:href="#DejaVuSans-48"/>
       <use x="190.869141" xlink:href="#DejaVuSans-48"/>
      </g>
     </g>
    </g>
    <g id="text_20">
     <!-- Edge coverage -->
     <g transform="translate(14.798438 192.762406)rotate(-90)scale(0.1 -0.1)">
      <defs>
       <path d="M 9.8125 72.90625 
L 55.90625 72.90625 
L 55.90625 64.59375 
L 19.671875 64.59375 
L 19.671875 43.015625 
L 54.390625 43.015625 
L 54.390625 34.71875 
L 19.671875 34.71875 
L 19.671875 8.296875 
L 56.78125 8.296875 
L 56.78125 0 
L 9.8125 0 
z
" id="DejaVuSans-69"/>
       <path d="M 45.40625 46.390625 
L 45.40625 75.984375 
L 54.390625 75.984375 
L 54.390625 0 
L 45.40625 0 
L 45.40625 8.203125 
Q 42.578125 3.328125 38.25 0.953125 
Q 33.9375 -1.421875 27.875 -1.421875 
Q 17.96875 -1.421875 11.734375 6.484375 
Q 5.515625 14.40625 5.515625 27.296875 
Q 5.515625 40.1875 11.734375 48.09375 
Q 17.96875 56 27.875 56 
Q 33.9375 56 38.25 53.625 
Q 42.578125 51.265625 45.40625 46.390625 
z
M 14.796875 27.296875 
Q 14.796875 17.390625 18.875 11.75 
Q 22.953125 6.109375 30.078125 6.109375 
Q 37.203125 6.109375 41.296875 11.75 
Q 45.40625 17.390625 45.40625 27.296875 
Q 45.40625 37.203125 41.296875 42.84375 
Q 37.203125 48.484375 30.078125 48.484375 
Q 22.953125 48.484375 18.875 42.84375 
Q 14.796875 37.203125 14.796875 27.296875 
z
" id="DejaVuSans-100"/>
       <path d="M 45.40625 27.984375 
Q 45.40625 37.75 41.375 43.109375 
Q 37.359375 48.484375 30.078125 48.484375 
Q 22.859375 48.484375 18.828125 43.109375 
Q 14.796875 37.75 14.796875 27.984375 
Q 14.796875 18.265625 18.828125 12.890625 
Q 22.859375 7.515625 30.078125 7.515625 
Q 37.359375 7.515625 41.375 12.890625 
Q 45.40625 18.265625 45.40625 27.984375 
z
M 54.390625 6.78125 
Q 54.390625 -7.171875 48.1875 -13.984375 
Q 42 -20.796875 29.203125 -20.796875 
Q 24.46875 -20.796875 20.265625 -20.09375 
Q 16.0625 -19.390625 12.109375 -17.921875 
L 12.109375 -9.1875 
Q 16.0625 -11.328125 19.921875 -12.34375 
Q 23.78125 -13.375 27.78125 -13.375 
Q 36.625 -13.375 41.015625 -8.765625 
Q 45.40625 -4.15625 45.40625 5.171875 
L 45.40625 9.625 
Q 42.625 4.78125 38.28125 2.390625 
Q 33.9375 0 27.875 0 
Q 17.828125 0 11.671875 7.65625 
Q 5.515625 15.328125 5.515625 27.984375 
Q 5.515625 40.671875 11.671875 48.328125 
Q 17.828125 56 27.875 56 
Q 33.9375 56 38.28125 53.609375 
Q 42.625 51.21875 45.40625 46.390625 
L 45.40625 54.6875 
L 54.390625 54.6875 
z
" id="DejaVuSans-103"/>
       <path d="M 48.78125 52.59375 
L 48.78125 44.1875 
Q 44.96875 46.296875 41.140625 47.34375 
Q 37.3125 48.390625 33.40625 48.390625 
Q 24.65625 48.390625 19.8125 42.84375 
Q 14.984375 37.3125 14.984375 27.296875 
Q 14.984375 17.28125 19.8125 11.734375 
Q 24.65625 6.203125 33.40625 6.203125 
Q 37.3125 6.203125 41.140625 7.25 
Q 44.96875 8.296875 48.78125 10.40625 
L 48.78125 2.09375 
Q 45.015625 0.34375 40.984375 -0.53125 
Q 36.96875 -1.421875 32.421875 -1.421875 
Q 20.0625 -1.421875 12.78125 6.34375 
Q 5.515625 14.109375 5.515625 27.296875 
Q 5.515625 40.671875 12.859375 48.328125 
Q 20.21875 56 33.015625 56 
Q 37.15625 56 41.109375 55.140625 
Q 45.0625 54.296875 48.78125 52.59375 
z
" id="DejaVuSans-99"/>
       <path d="M 2.984375 54.6875 
L 12.5 54.6875 
L 29.59375 8.796875 
L 46.6875 54.6875 
L 56.203125 54.6875 
L 35.6875 0 
L 23.484375 0 
z
" id="DejaVuSans-118"/>
       <path d="M 34.28125 27.484375 
Q 23.390625 27.484375 19.1875 25 
Q 14.984375 22.515625 14.984375 16.5 
Q 14.984375 11.71875 18.140625 8.90625 
Q 21.296875 6.109375 26.703125 6.109375 
Q 34.1875 6.109375 38.703125 11.40625 
Q 43.21875 16.703125 43.21875 25.484375 
L 43.21875 27.484375 
z
M 52.203125 31.203125 
L 52.203125 0 
L 43.21875 0 
L 43.21875 8.296875 
Q 40.140625 3.328125 35.546875 0.953125 
Q 30.953125 -1.421875 24.3125 -1.421875 
Q 15.921875 -1.421875 10.953125 3.296875 
Q 6 8.015625 6 15.921875 
Q 6 25.140625 12.171875 29.828125 
Q 18.359375 34.515625 30.609375 34.515625 
L 43.21875 34.515625 
L 43.21875 35.40625 
Q 43.21875 41.609375 39.140625 45 
Q 35.0625 48.390625 27.6875 48.390625 
Q 23 48.390625 18.546875 47.265625 
Q 14.109375 46.140625 10.015625 43.890625 
L 10.015625 52.203125 
Q 14.9375 54.109375 19.578125 55.046875 
Q 24.21875 56 28.609375 56 
Q 40.484375 56 46.34375 49.84375 
Q 52.203125 43.703125 52.203125 31.203125 
z
" id="DejaVuSans-97"/>
      </defs>
      <use xlink:href="#DejaVuSans-69"/>
      <use x="63.183594" xlink:href="#DejaVuSans-100"/>
      <use x="126.660156" xlink:href="#DejaVuSans-103"/>
      <use x="190.136719" xlink:href="#DejaVuSans-101"/>
      <use x="251.660156" xlink:href="#DejaVuSans-32"/>
      <use x="283.447266" xlink:href="#DejaVuSans-99"/>
      <use x="338.427734" xlink:href="#DejaVuSans-111"/>
      <use x="399.609375" xlink:href="#DejaVuSans-118"/>
      <use x="458.789062" xlink:href="#DejaVuSans-101"/>
      <use x="520.3125" xlink:href="#DejaVuSans-114"/>
      <use x="561.425781" xlink:href="#DejaVuSans-97"/>
      <use x="622.705078" xlink:href="#DejaVuSans-103"/>
      <use x="686.181641" xlink:href="#DejaVuSans-101"/>
     </g>
    </g>
   </g>
   <g id="line2d_19">
    <path clip-path="url(#p296a05e091)" d="M 85.79358 268.072819 
L 92.628412 267.56181 
L 99.463245 267.13597 
L 106.298077 266.454625 
L 113.13291 265.219687 
L 119.967742 265.049351 
L 126.802575 264.921599 
L 133.637407 264.751263 
L 140.47224 264.538343 
L 147.307072 264.155086 
L 154.141905 259.896681 
L 160.976737 259.598593 
L 167.81157 259.556008 
L 174.646403 215.140842 
L 181.481235 214.331745 
L 188.316068 214.203993 
L 195.1509 214.203993 
L 201.985733 213.905905 
L 208.820565 213.309728 
L 215.655398 213.054224 
L 222.49023 212.841303 
L 229.325063 212.628383 
L 236.159895 212.543215 
L 242.994728 212.458047 
L 249.82956 212.245127 
L 256.664393 212.202543 
L 263.499225 211.86187 
L 270.334058 207.688633 
L 277.168891 207.688633 
L 284.003723 205.814935 
L 290.838556 205.602014 
L 297.673388 204.750333 
L 304.508221 204.239325 
L 311.343053 204.239325 
L 318.177886 202.791467 
L 325.012718 202.706299 
L 331.847551 202.408211 
L 338.682383 202.323042 
L 345.517216 198.234973 
L 352.352048 197.596213 
L 359.186881 196.616779 
L 366.021714 195.424426 
L 372.856546 151.860941 
L 379.691379 150.583419 
L 386.526211 150.200163 
L 393.361044 149.944658 
L 400.195876 149.902074 
L 407.030709 149.305898 
L 413.865541 148.496801 
L 420.700374 148.241296 
L 427.535206 147.64512 
L 434.370039 147.389615 
L 441.204871 147.347031 
L 448.039704 146.154678 
L 454.874536 146.154678 
L 461.709369 146.154678 
L 468.544202 142.364697 
L 475.379034 142.024025 
L 482.213867 141.853688 
L 489.048699 141.811104 
L 495.883532 141.598184 
L 502.718364 141.598184 
L 509.553197 140.618751 
L 516.388029 140.576167 
L 523.222862 140.533583 
L 530.057694 140.107742 
L 536.892527 139.596734 
L 543.727359 139.511566 
L 550.562192 139.085725 
L 557.397025 139.043141 
L 564.231857 139.043141 
L 571.06669 138.234044 
L 577.901522 138.234044 
L 584.736355 138.234044 
L 591.571187 138.234044 
L 598.40602 138.234044 
L 605.240852 138.148876 
L 612.075685 138.063708 
L 618.910517 137.467531 
L 625.74535 137.169443 
L 632.580182 136.82877 
L 639.415015 136.488098 
L 646.249847 134.273727 
L 653.08468 133.847887 
L 659.919513 133.720135 
L 666.754345 133.67755 
L 673.589178 133.46463 
L 680.42401 132.825869 
L 687.258843 132.825869 
L 694.093675 132.740701 
L 700.928508 132.740701 
L 707.76334 132.740701 
L 714.598173 132.570365 
L 721.433005 131.6761 
L 728.267838 131.633516 
L 735.10267 131.633516 
" style="fill:none;stroke:#ffbb78;stroke-linecap:square;stroke-width:1.5;"/>
   </g>
   <g id="line2d_20">
    <path clip-path="url(#p296a05e091)" d="M 85.79358 267.945067 
L 92.628412 266.624961 
L 99.463245 266.582377 
L 106.298077 264.240254 
L 113.13291 259.939265 
L 119.967742 259.598593 
L 126.802575 259.172752 
L 133.637407 259.130168 
L 140.47224 259.087584 
L 147.307072 258.448823 
L 154.141905 258.321071 
L 160.976737 258.193319 
L 167.81157 253.89233 
L 174.646403 253.551657 
L 181.481235 253.551657 
L 188.316068 253.296153 
L 195.1509 253.210985 
L 201.985733 252.912896 
L 208.820565 252.785144 
L 215.655398 251.805711 
L 222.49023 251.209534 
L 229.325063 251.124366 
L 236.159895 251.081782 
L 242.994728 250.102349 
L 249.82956 249.1655 
L 256.664393 249.037748 
L 263.499225 248.824827 
L 270.334058 248.739659 
L 277.168891 248.569323 
L 284.003723 247.164049 
L 290.838556 202.280458 
L 297.673388 201.812034 
L 304.508221 201.599114 
L 311.343053 201.513945 
L 318.177886 200.19384 
L 325.012718 199.555079 
L 331.847551 199.342159 
L 338.682383 199.342159 
L 345.517216 199.342159 
L 352.352048 199.086654 
L 359.186881 198.192389 
L 366.021714 198.107221 
L 372.856546 198.107221 
L 379.691379 198.022053 
L 386.526211 197.809133 
L 393.361044 197.809133 
L 400.195876 197.596213 
L 407.030709 196.233523 
L 413.865541 196.233523 
L 420.700374 195.892851 
L 427.535206 195.892851 
L 434.370039 195.67993 
L 441.204871 195.381842 
L 448.039704 195.381842 
L 454.874536 195.168922 
L 461.709369 195.168922 
L 468.544202 194.828249 
L 475.379034 194.828249 
L 482.213867 194.828249 
L 489.048699 194.828249 
L 495.883532 194.828249 
L 502.718364 194.657913 
L 509.553197 194.572745 
L 516.388029 194.572745 
L 523.222862 193.848816 
L 530.057694 193.848816 
L 536.892527 193.848816 
L 543.727359 193.848816 
L 550.562192 193.67848 
L 557.397025 193.67848 
L 564.231857 193.46556 
L 571.06669 193.422976 
L 577.901522 193.082303 
L 584.736355 192.997135 
L 591.571187 192.997135 
L 598.40602 192.911967 
L 605.240852 192.571295 
L 612.075685 192.571295 
L 618.910517 192.571295 
L 625.74535 192.52871 
L 632.580182 192.188038 
L 639.415015 192.145454 
L 646.249847 192.145454 
L 653.08468 191.421525 
L 659.919513 191.421525 
L 666.754345 191.293773 
L 673.589178 191.293773 
L 680.42401 191.123437 
L 687.258843 191.123437 
L 694.093675 189.973667 
L 700.928508 189.505243 
L 707.76334 189.505243 
L 714.598173 189.121986 
L 721.433005 189.036818 
L 728.267838 188.781314 
L 735.10267 187.461208 
" style="fill:none;stroke:#aec7e8;stroke-linecap:square;stroke-width:1.5;"/>
   </g>
   <g id="line2d_21">
    <path clip-path="url(#p296a05e091)" d="M 85.79358 270.116853 
L 92.628412 269.818765 
L 99.463245 269.478093 
L 106.298077 268.9245 
L 113.13291 268.754164 
L 119.967742 268.754164 
L 126.802575 268.754164 
L 133.637407 264.155086 
L 140.47224 263.601493 
L 147.307072 263.431157 
L 154.141905 262.536892 
L 160.976737 262.281388 
L 167.81157 262.111052 
L 174.646403 262.111052 
L 181.481235 260.62061 
L 188.316068 260.109601 
L 195.1509 259.385672 
L 201.985733 259.087584 
L 208.820565 258.959832 
L 215.655398 257.937814 
L 222.49023 257.937814 
L 229.325063 257.299054 
L 236.159895 257.043549 
L 242.994728 257.043549 
L 249.82956 257.043549 
L 256.664393 257.043549 
L 263.499225 256.702877 
L 270.334058 251.805711 
L 277.168891 251.209534 
L 284.003723 250.996614 
L 290.838556 250.485605 
L 297.673388 249.335836 
L 304.508221 248.782243 
L 311.343053 248.356403 
L 318.177886 247.164049 
L 325.012718 247.164049 
L 331.847551 247.164049 
L 338.682383 247.121465 
L 345.517216 247.121465 
L 352.352048 246.780793 
L 359.186881 246.610457 
L 366.021714 246.312368 
L 372.856546 246.099448 
L 379.691379 245.886528 
L 386.526211 245.460687 
L 393.361044 245.460687 
L 400.195876 245.460687 
L 407.030709 241.330034 
L 413.865541 240.776441 
L 420.700374 240.776441 
L 427.535206 240.393185 
L 434.370039 240.265433 
L 441.204871 240.137681 
L 448.039704 239.71184 
L 454.874536 239.626672 
L 461.709369 239.626672 
L 468.544202 238.434319 
L 475.379034 238.434319 
L 482.213867 238.434319 
L 489.048699 238.349151 
L 495.883532 238.263982 
L 502.718364 238.263982 
L 509.553197 238.13623 
L 516.388029 196.361275 
L 523.222862 196.361275 
L 530.057694 196.190939 
L 536.892527 195.381842 
L 543.727359 195.381842 
L 550.562192 195.083754 
L 557.397025 195.083754 
L 564.231857 194.913417 
L 571.06669 194.913417 
L 577.901522 194.913417 
L 584.736355 194.870833 
L 591.571187 194.657913 
L 598.40602 193.8914 
L 605.240852 193.550728 
L 612.075685 193.550728 
L 618.910517 193.550728 
L 625.74535 193.550728 
L 632.580182 193.46556 
L 639.415015 193.337807 
L 646.249847 193.082303 
L 653.08468 193.082303 
L 659.919513 193.082303 
L 666.754345 192.997135 
L 673.589178 192.997135 
L 680.42401 192.997135 
L 687.258843 192.997135 
L 694.093675 192.486126 
L 700.928508 192.486126 
L 707.76334 192.486126 
L 714.598173 192.486126 
L 721.433005 192.273206 
L 728.267838 192.273206 
L 735.10267 191.591861 
" style="fill:none;stroke:#1f77b4;stroke-linecap:square;stroke-width:1.5;"/>
   </g>
   <g id="line2d_22">
    <path clip-path="url(#p296a05e091)" d="M 85.79358 270.159437 
L 92.628412 269.222588 
L 99.463245 269.222588 
L 106.298077 268.498659 
L 113.13291 268.498659 
L 119.967742 268.072819 
L 126.802575 263.686662 
L 133.637407 263.686662 
L 140.47224 263.558909 
L 147.307072 263.345989 
L 154.141905 258.619159 
L 160.976737 258.065567 
L 167.81157 257.937814 
L 174.646403 256.404789 
L 181.481235 254.744011 
L 188.316068 254.488506 
L 195.1509 254.275586 
L 201.985733 254.275586 
L 208.820565 254.10525 
L 215.655398 253.509073 
L 222.49023 253.338737 
L 229.325063 252.998064 
L 236.159895 252.657392 
L 242.994728 251.933463 
L 249.82956 251.507623 
L 256.664393 251.465039 
L 263.499225 251.422455 
L 270.334058 250.485605 
L 277.168891 250.357853 
L 284.003723 250.102349 
L 290.838556 250.102349 
L 297.673388 249.804261 
L 304.508221 249.676508 
L 311.343053 249.676508 
L 318.177886 249.421004 
L 325.012718 249.37842 
L 331.847551 249.037748 
L 338.682383 249.037748 
L 345.517216 249.037748 
L 352.352048 248.569323 
L 359.186881 248.569323 
L 366.021714 248.569323 
L 372.856546 247.164049 
L 379.691379 246.951129 
L 386.526211 246.951129 
L 393.361044 246.951129 
L 400.195876 246.951129 
L 407.030709 246.738209 
L 413.865541 246.738209 
L 420.700374 246.610457 
L 427.535206 246.397536 
L 434.370039 246.397536 
L 441.204871 246.142032 
L 448.039704 246.142032 
L 454.874536 245.843944 
L 461.709369 245.631023 
L 468.544202 245.631023 
L 475.379034 245.418103 
L 482.213867 240.946778 
L 489.048699 239.541504 
L 495.883532 239.541504 
L 502.718364 239.243416 
L 509.553197 239.243416 
L 516.388029 239.030495 
L 523.222862 239.030495 
L 530.057694 239.030495 
L 536.892527 239.030495 
L 543.727359 238.817575 
L 550.562192 238.732407 
L 557.397025 238.732407 
L 564.231857 238.732407 
L 571.06669 238.732407 
L 577.901522 196.957452 
L 584.736355 196.872284 
L 591.571187 196.872284 
L 598.40602 196.872284 
L 605.240852 196.8297 
L 612.075685 196.8297 
L 618.910517 196.8297 
L 625.74535 196.8297 
L 632.580182 196.701948 
L 639.415015 196.701948 
L 646.249847 196.701948 
L 653.08468 196.701948 
L 659.919513 195.765098 
L 666.754345 195.765098 
L 673.589178 195.67993 
L 680.42401 195.67993 
L 687.258843 195.168922 
L 694.093675 194.956001 
L 700.928508 194.913417 
L 707.76334 194.913417 
L 714.598173 194.785665 
L 721.433005 194.785665 
L 728.267838 193.210055 
L 735.10267 193.210055 
" style="fill:none;stroke:#ff7f0e;stroke-linecap:square;stroke-width:1.5;"/>
   </g>
   <g id="line2d_23"/>
   <g id="line2d_24"/>
   <g id="line2d_25"/>
   <g id="line2d_26"/>
   <g id="line2d_27"/>
   <g id="line2d_28">
    <path clip-path="url(#p296a05e091)" d="M 735.10267 288.430125 
L 735.10267 22.318125 
" style="fill:none;stroke:#ff0000;stroke-linecap:square;stroke-width:1.5;"/>
   </g>
   <g id="patch_3">
    <path d="M 53.328125 250.272685 
L 53.328125 37.352425 
" style="fill:none;stroke:#000000;stroke-linecap:square;stroke-linejoin:miter;stroke-width:0.8;"/>
   </g>
   <g id="patch_4">
    <path d="M 85.79358 288.430125 
L 687.258843 288.430125 
" style="fill:none;stroke:#000000;stroke-linecap:square;stroke-linejoin:miter;stroke-width:0.8;"/>
   </g>
   <g id="text_21">
    <!-- lcms-2017-03-21 (24h, 5 trials/fuzzer) -->
    <g transform="translate(296.56625 16.318125)scale(0.12 -0.12)">
     <defs>
      <path d="M 9.421875 75.984375 
L 18.40625 75.984375 
L 18.40625 0 
L 9.421875 0 
z
" id="DejaVuSans-108"/>
      <path d="M 44.28125 53.078125 
L 44.28125 44.578125 
Q 40.484375 46.53125 36.375 47.5 
Q 32.28125 48.484375 27.875 48.484375 
Q 21.1875 48.484375 17.84375 46.4375 
Q 14.5 44.390625 14.5 40.28125 
Q 14.5 37.15625 16.890625 35.375 
Q 19.28125 33.59375 26.515625 31.984375 
L 29.59375 31.296875 
Q 39.15625 29.25 43.1875 25.515625 
Q 47.21875 21.78125 47.21875 15.09375 
Q 47.21875 7.46875 41.1875 3.015625 
Q 35.15625 -1.421875 24.609375 -1.421875 
Q 20.21875 -1.421875 15.453125 -0.5625 
Q 10.6875 0.296875 5.421875 2 
L 5.421875 11.28125 
Q 10.40625 8.6875 15.234375 7.390625 
Q 20.0625 6.109375 24.8125 6.109375 
Q 31.15625 6.109375 34.5625 8.28125 
Q 37.984375 10.453125 37.984375 14.40625 
Q 37.984375 18.0625 35.515625 20.015625 
Q 33.0625 21.96875 24.703125 23.78125 
L 21.578125 24.515625 
Q 13.234375 26.265625 9.515625 29.90625 
Q 5.8125 33.546875 5.8125 39.890625 
Q 5.8125 47.609375 11.28125 51.796875 
Q 16.75 56 26.8125 56 
Q 31.78125 56 36.171875 55.265625 
Q 40.578125 54.546875 44.28125 53.078125 
z
" id="DejaVuSans-115"/>
      <path d="M 4.890625 31.390625 
L 31.203125 31.390625 
L 31.203125 23.390625 
L 4.890625 23.390625 
z
" id="DejaVuSans-45"/>
      <path d="M 8.203125 72.90625 
L 55.078125 72.90625 
L 55.078125 68.703125 
L 28.609375 0 
L 18.3125 0 
L 43.21875 64.59375 
L 8.203125 64.59375 
z
" id="DejaVuSans-55"/>
      <path d="M 40.578125 39.3125 
Q 47.65625 37.796875 51.625 33 
Q 55.609375 28.21875 55.609375 21.1875 
Q 55.609375 10.40625 48.1875 4.484375 
Q 40.765625 -1.421875 27.09375 -1.421875 
Q 22.515625 -1.421875 17.65625 -0.515625 
Q 12.796875 0.390625 7.625 2.203125 
L 7.625 11.71875 
Q 11.71875 9.328125 16.59375 8.109375 
Q 21.484375 6.890625 26.8125 6.890625 
Q 36.078125 6.890625 40.9375 10.546875 
Q 45.796875 14.203125 45.796875 21.1875 
Q 45.796875 27.640625 41.28125 31.265625 
Q 36.765625 34.90625 28.71875 34.90625 
L 20.21875 34.90625 
L 20.21875 43.015625 
L 29.109375 43.015625 
Q 36.375 43.015625 40.234375 45.921875 
Q 44.09375 48.828125 44.09375 54.296875 
Q 44.09375 59.90625 40.109375 62.90625 
Q 36.140625 65.921875 28.71875 65.921875 
Q 24.65625 65.921875 20.015625 65.03125 
Q 15.375 64.15625 9.8125 62.3125 
L 9.8125 71.09375 
Q 15.4375 72.65625 20.34375 73.4375 
Q 25.25 74.21875 29.59375 74.21875 
Q 40.828125 74.21875 47.359375 69.109375 
Q 53.90625 64.015625 53.90625 55.328125 
Q 53.90625 49.265625 50.4375 45.09375 
Q 46.96875 40.921875 40.578125 39.3125 
z
" id="DejaVuSans-51"/>
      <path d="M 11.71875 12.40625 
L 22.015625 12.40625 
L 22.015625 4 
L 14.015625 -11.625 
L 7.71875 -11.625 
L 11.71875 4 
z
" id="DejaVuSans-44"/>
      <path d="M 25.390625 72.90625 
L 33.6875 72.90625 
L 8.296875 -9.28125 
L 0 -9.28125 
z
" id="DejaVuSans-47"/>
      <path d="M 37.109375 75.984375 
L 37.109375 68.5 
L 28.515625 68.5 
Q 23.6875 68.5 21.796875 66.546875 
Q 19.921875 64.59375 19.921875 59.515625 
L 19.921875 54.6875 
L 34.71875 54.6875 
L 34.71875 47.703125 
L 19.921875 47.703125 
L 19.921875 0 
L 10.890625 0 
L 10.890625 47.703125 
L 2.296875 47.703125 
L 2.296875 54.6875 
L 10.890625 54.6875 
L 10.890625 58.5 
Q 10.890625 67.625 15.140625 71.796875 
Q 19.390625 75.984375 28.609375 75.984375 
z
" id="DejaVuSans-102"/>
      <path d="M 5.515625 54.6875 
L 48.1875 54.6875 
L 48.1875 46.484375 
L 14.40625 7.171875 
L 48.1875 7.171875 
L 48.1875 0 
L 4.296875 0 
L 4.296875 8.203125 
L 38.09375 47.515625 
L 5.515625 47.515625 
z
" id="DejaVuSans-122"/>
     </defs>
     <use xlink:href="#DejaVuSans-108"/>
     <use x="27.783203" xlink:href="#DejaVuSans-99"/>
     <use x="82.763672" xlink:href="#DejaVuSans-109"/>
     <use x="180.175781" xlink:href="#DejaVuSans-115"/>
     <use x="232.275391" xlink:href="#DejaVuSans-45"/>
     <use x="268.359375" xlink:href="#DejaVuSans-50"/>
     <use x="331.982422" xlink:href="#DejaVuSans-48"/>
     <use x="395.605469" xlink:href="#DejaVuSans-49"/>
     <use x="459.228516" xlink:href="#DejaVuSans-55"/>
     <use x="522.851562" xlink:href="#DejaVuSans-45"/>
     <use x="558.935547" xlink:href="#DejaVuSans-48"/>
     <use x="622.558594" xlink:href="#DejaVuSans-51"/>
     <use x="686.181641" xlink:href="#DejaVuSans-45"/>
     <use x="722.265625" xlink:href="#DejaVuSans-50"/>
     <use x="785.888672" xlink:href="#DejaVuSans-49"/>
     <use x="849.511719" xlink:href="#DejaVuSans-32"/>
     <use x="881.298828" xlink:href="#DejaVuSans-40"/>
     <use x="920.3125" xlink:href="#DejaVuSans-50"/>
     <use x="983.935547" xlink:href="#DejaVuSans-52"/>
     <use x="1047.558594" xlink:href="#DejaVuSans-104"/>
     <use x="1110.9375" xlink:href="#DejaVuSans-44"/>
     <use x="1142.724609" xlink:href="#DejaVuSans-32"/>
     <use x="1174.511719" xlink:href="#DejaVuSans-53"/>
     <use x="1238.134766" xlink:href="#DejaVuSans-32"/>
     <use x="1269.921875" xlink:href="#DejaVuSans-116"/>
     <use x="1309.130859" xlink:href="#DejaVuSans-114"/>
     <use x="1350.244141" xlink:href="#DejaVuSans-105"/>
     <use x="1378.027344" xlink:href="#DejaVuSans-97"/>
     <use x="1439.306641" xlink:href="#DejaVuSans-108"/>
     <use x="1467.089844" xlink:href="#DejaVuSans-115"/>
     <use x="1519.189453" xlink:href="#DejaVuSans-47"/>
     <use x="1552.880859" xlink:href="#DejaVuSans-102"/>
     <use x="1588.085938" xlink:href="#DejaVuSans-117"/>
     <use x="1651.464844" xlink:href="#DejaVuSans-122"/>
     <use x="1703.955078" xlink:href="#DejaVuSans-122"/>
     <use x="1756.445312" xlink:href="#DejaVuSans-101"/>
     <use x="1817.96875" xlink:href="#DejaVuSans-114"/>
     <use x="1859.082031" xlink:href="#DejaVuSans-41"/>
    </g>
   </g>
   <g id="legend_1">
    <g id="line2d_29">
     <path d="M 771.568125 30.416563 
L 791.568125 30.416563 
" style="fill:none;"/>
    </g>
    <g id="line2d_30"/>
    <g id="text_22">
     <!-- fuzzer -->
     <g transform="translate(799.568125 33.916563)scale(0.1 -0.1)">
      <use xlink:href="#DejaVuSans-102"/>
      <use x="35.205078" xlink:href="#DejaVuSans-117"/>
      <use x="98.583984" xlink:href="#DejaVuSans-122"/>
      <use x="151.074219" xlink:href="#DejaVuSans-122"/>
      <use x="203.564453" xlink:href="#DejaVuSans-101"/>
      <use x="265.087891" xlink:href="#DejaVuSans-114"/>
     </g>
    </g>
    <g id="line2d_31">
     <path d="M 771.568125 45.094688 
L 791.568125 45.094688 
" style="fill:none;stroke:#ffbb78;stroke-linecap:square;stroke-width:1.5;"/>
    </g>
    <g id="line2d_32"/>
    <g id="text_23">
     <!-- start_3 -->
     <g transform="translate(799.568125 48.594688)scale(0.1 -0.1)">
      <defs>
       <path d="M 50.984375 -16.609375 
L 50.984375 -23.578125 
L -0.984375 -23.578125 
L -0.984375 -16.609375 
z
" id="DejaVuSans-95"/>
      </defs>
      <use xlink:href="#DejaVuSans-115"/>
      <use x="52.099609" xlink:href="#DejaVuSans-116"/>
      <use x="91.308594" xlink:href="#DejaVuSans-97"/>
      <use x="152.587891" xlink:href="#DejaVuSans-114"/>
      <use x="193.701172" xlink:href="#DejaVuSans-116"/>
      <use x="232.910156" xlink:href="#DejaVuSans-95"/>
      <use x="282.910156" xlink:href="#DejaVuSans-51"/>
     </g>
    </g>
    <g id="line2d_33">
     <path d="M 771.568125 60.050938 
L 791.568125 60.050938 
" style="fill:none;stroke:#aec7e8;stroke-linecap:square;stroke-width:1.5;"/>
    </g>
    <g id="line2d_34"/>
    <g id="text_24">
     <!-- start_1 -->
     <g transform="translate(799.568125 63.550938)scale(0.1 -0.1)">
      <use xlink:href="#DejaVuSans-115"/>
      <use x="52.099609" xlink:href="#DejaVuSans-116"/>
      <use x="91.308594" xlink:href="#DejaVuSans-97"/>
      <use x="152.587891" xlink:href="#DejaVuSans-114"/>
      <use x="193.701172" xlink:href="#DejaVuSans-116"/>
      <use x="232.910156" xlink:href="#DejaVuSans-95"/>
      <use x="282.910156" xlink:href="#DejaVuSans-49"/>
     </g>
    </g>
    <g id="line2d_35">
     <path d="M 771.568125 75.007188 
L 791.568125 75.007188 
" style="fill:none;stroke:#1f77b4;stroke-linecap:square;stroke-width:1.5;"/>
    </g>
    <g id="line2d_36"/>
    <g id="text_25">
     <!-- start_0 -->
     <g transform="translate(799.568125 78.507188)scale(0.1 -0.1)">
      <use xlink:href="#DejaVuSans-115"/>
      <use x="52.099609" xlink:href="#DejaVuSans-116"/>
      <use x="91.308594" xlink:href="#DejaVuSans-97"/>
      <use x="152.587891" xlink:href="#DejaVuSans-114"/>
      <use x="193.701172" xlink:href="#DejaVuSans-116"/>
      <use x="232.910156" xlink:href="#DejaVuSans-95"/>
      <use x="282.910156" xlink:href="#DejaVuSans-48"/>
     </g>
    </g>
    <g id="line2d_37">
     <path d="M 771.568125 89.963438 
L 791.568125 89.963438 
" style="fill:none;stroke:#ff7f0e;stroke-linecap:square;stroke-width:1.5;"/>
    </g>
    <g id="line2d_38"/>
    <g id="text_26">
     <!-- start_2 -->
     <g transform="translate(799.568125 93.463438)scale(0.1 -0.1)">
      <use xlink:href="#DejaVuSans-115"/>
      <use x="52.099609" xlink:href="#DejaVuSans-116"/>
      <use x="91.308594" xlink:href="#DejaVuSans-97"/>
      <use x="152.587891" xlink:href="#DejaVuSans-114"/>
      <use x="193.701172" xlink:href="#DejaVuSans-116"/>
      <use x="232.910156" xlink:href="#DejaVuSans-95"/>
      <use x="282.910156" xlink:href="#DejaVuSans-50"/>
     </g>
    </g>
   </g>
  </g>
 </g>
 <defs>
  <clipPath id="p296a05e091">
   <rect height="266.112" width="714.24" x="53.328125" y="22.318125"/>
  </clipPath>
 </defs>
</svg>
