<?xml version="1.0" encoding="utf-8" standalone="no"?>
<!DOCTYPE svg PUBLIC "-//W3C//DTD SVG 1.1//EN"
  "http://www.w3.org/Graphics/SVG/1.1/DTD/svg11.dtd">
<!-- Created with matplotlib (https://matplotlib.org/) -->
<svg height="342.103489pt" version="1.1" viewBox="0 0 417.648125 342.103489" width="417.648125pt" xmlns="http://www.w3.org/2000/svg" xmlns:xlink="http://www.w3.org/1999/xlink">
 <metadata>
  <rdf:RDF xmlns:cc="http://creativecommons.org/ns#" xmlns:dc="http://purl.org/dc/elements/1.1/" xmlns:rdf="http://www.w3.org/1999/02/22-rdf-syntax-ns#">
   <cc:Work>
    <dc:type rdf:resource="http://purl.org/dc/dcmitype/StillImage"/>
    <dc:date>2020-08-26T11:44:22.938466</dc:date>
    <dc:format>image/svg+xml</dc:format>
    <dc:creator>
     <cc:Agent>
      <dc:title>Matplotlib v3.3.1, https://matplotlib.org/</dc:title>
     </cc:Agent>
    </dc:creator>
   </cc:Work>
  </rdf:RDF>
 </metadata>
 <defs>
  <style type="text/css">*{stroke-linecap:butt;stroke-linejoin:round;}</style>
 </defs>
 <g id="figure_1">
  <g id="patch_1">
   <path d="M 0 342.103489 
L 417.648125 342.103489 
L 417.648125 0 
L 0 0 
z
" style="fill:#ffffff;"/>
  </g>
  <g id="axes_1">
   <g id="patch_2">
    <path d="M 53.328125 288.430125 
L 410.448125 288.430125 
L 410.448125 22.318125 
L 53.328125 22.318125 
z
" style="fill:#ffffff;"/>
   </g>
   <g id="PolyCollection_1">
    <defs>
     <path d="M 98.66795 -65.769364 
L 97.2683 -65.769364 
L 97.15786 -68.213 
L 97.034351 -70.656637 
L 96.896996 -73.100273 
L 96.745099 -75.54391 
L 96.578065 -77.987546 
L 96.395429 -80.431182 
L 96.196876 -82.874819 
L 95.982263 -85.318455 
L 95.751643 -87.762091 
L 95.505282 -90.205728 
L 95.243676 -92.649364 
L 94.967557 -95.093 
L 94.67791 -97.536637 
L 94.375964 -99.980273 
L 94.063195 -102.42391 
L 93.741313 -104.867546 
L 93.412243 -107.311182 
L 93.078106 -109.754819 
L 92.741184 -112.198455 
L 92.403886 -114.642091 
L 92.068704 -117.085728 
L 91.738168 -119.529364 
L 91.414792 -121.973 
L 91.10102 -124.416637 
L 90.79917 -126.860273 
L 90.511374 -129.30391 
L 90.239528 -131.747546 
L 89.985229 -134.191182 
L 89.749735 -136.634819 
L 89.533914 -139.078455 
L 89.338211 -141.522091 
L 89.162618 -143.965728 
L 89.006658 -146.409364 
L 88.869377 -148.853 
L 88.749353 -151.296637 
L 88.644708 -153.740273 
L 88.553149 -156.18391 
L 88.472004 -158.627546 
L 88.39829 -161.071182 
L 88.328775 -163.514819 
L 88.260064 -165.958455 
L 88.188688 -168.402091 
L 88.111206 -170.845728 
L 88.024304 -173.289364 
L 87.924901 -175.733 
L 87.810259 -178.176637 
L 87.678079 -180.620273 
L 87.526595 -183.06391 
L 87.354661 -185.507546 
L 87.161818 -187.951182 
L 86.948347 -190.394819 
L 86.715307 -192.838455 
L 86.464544 -195.282091 
L 86.198684 -197.725728 
L 85.921101 -200.169364 
L 85.635861 -202.613 
L 85.347645 -205.056637 
L 85.06165 -207.500273 
L 84.78347 -209.94391 
L 84.518969 -212.387546 
L 84.274135 -214.831182 
L 84.05493 -217.274819 
L 83.867136 -219.718455 
L 83.716205 -222.162091 
L 83.607117 -224.605728 
L 83.544244 -227.049364 
L 83.531237 -229.493 
L 83.570928 -231.936637 
L 83.665255 -234.380273 
L 83.815212 -236.82391 
L 84.020827 -239.267546 
L 84.281165 -241.711182 
L 84.594354 -244.154819 
L 84.95764 -246.598455 
L 85.367464 -249.042091 
L 85.819553 -251.485728 
L 86.309034 -253.929364 
L 86.830557 -256.373 
L 87.378419 -258.816637 
L 87.946707 -261.260273 
L 88.52942 -263.70391 
L 89.120606 -266.147546 
L 89.714475 -268.591182 
L 90.305511 -271.034819 
L 90.888563 -273.478455 
L 91.458927 -275.922091 
L 92.012405 -278.365728 
L 92.545349 -280.809364 
L 93.054692 -283.253 
L 93.537954 -285.696637 
L 93.99324 -288.140273 
L 94.419221 -290.58391 
L 94.815104 -293.027546 
L 95.180591 -295.471182 
L 95.515835 -297.914819 
L 95.82138 -300.358455 
L 96.098115 -302.802091 
L 96.347207 -305.245728 
L 96.57005 -307.689364 
L 99.3662 -307.689364 
L 99.3662 -307.689364 
L 99.589043 -305.245728 
L 99.838135 -302.802091 
L 100.11487 -300.358455 
L 100.420415 -297.914819 
L 100.755659 -295.471182 
L 101.121146 -293.027546 
L 101.517029 -290.58391 
L 101.94301 -288.140273 
L 102.398296 -285.696637 
L 102.881558 -283.253 
L 103.390901 -280.809364 
L 103.923845 -278.365728 
L 104.477323 -275.922091 
L 105.047687 -273.478455 
L 105.630739 -271.034819 
L 106.221775 -268.591182 
L 106.815644 -266.147546 
L 107.40683 -263.70391 
L 107.989543 -261.260273 
L 108.557831 -258.816637 
L 109.105693 -256.373 
L 109.627216 -253.929364 
L 110.116697 -251.485728 
L 110.568786 -249.042091 
L 110.97861 -246.598455 
L 111.341896 -244.154819 
L 111.655085 -241.711182 
L 111.915423 -239.267546 
L 112.121038 -236.82391 
L 112.270995 -234.380273 
L 112.365322 -231.936637 
L 112.405013 -229.493 
L 112.392006 -227.049364 
L 112.329133 -224.605728 
L 112.220045 -222.162091 
L 112.069114 -219.718455 
L 111.88132 -217.274819 
L 111.662115 -214.831182 
L 111.417281 -212.387546 
L 111.15278 -209.94391 
L 110.8746 -207.500273 
L 110.588605 -205.056637 
L 110.300389 -202.613 
L 110.015149 -200.169364 
L 109.737566 -197.725728 
L 109.471706 -195.282091 
L 109.220943 -192.838455 
L 108.987903 -190.394819 
L 108.774432 -187.951182 
L 108.581589 -185.507546 
L 108.409655 -183.06391 
L 108.258171 -180.620273 
L 108.125991 -178.176637 
L 108.011349 -175.733 
L 107.911946 -173.289364 
L 107.825044 -170.845728 
L 107.747562 -168.402091 
L 107.676186 -165.958455 
L 107.607475 -163.514819 
L 107.53796 -161.071182 
L 107.464246 -158.627546 
L 107.383101 -156.18391 
L 107.291542 -153.740273 
L 107.186897 -151.296637 
L 107.066873 -148.853 
L 106.929592 -146.409364 
L 106.773632 -143.965728 
L 106.598039 -141.522091 
L 106.402336 -139.078455 
L 106.186515 -136.634819 
L 105.951021 -134.191182 
L 105.696722 -131.747546 
L 105.424876 -129.30391 
L 105.13708 -126.860273 
L 104.83523 -124.416637 
L 104.521458 -121.973 
L 104.198082 -119.529364 
L 103.867546 -117.085728 
L 103.532364 -114.642091 
L 103.195066 -112.198455 
L 102.858144 -109.754819 
L 102.524007 -107.311182 
L 102.194937 -104.867546 
L 101.873055 -102.42391 
L 101.560286 -99.980273 
L 101.25834 -97.536637 
L 100.968693 -95.093 
L 100.692574 -92.649364 
L 100.430968 -90.205728 
L 100.184607 -87.762091 
L 99.953987 -85.318455 
L 99.739374 -82.874819 
L 99.540821 -80.431182 
L 99.358185 -77.987546 
L 99.191151 -75.54391 
L 99.039254 -73.100273 
L 98.901899 -70.656637 
L 98.77839 -68.213 
L 98.66795 -65.769364 
z
" id="maf4f77c01e" style="stroke:#3f3f3f;stroke-width:1.5;"/>
    </defs>
    <g clip-path="url(#p3750ff5ec8)">
     <use style="fill:#e1812c;stroke:#3f3f3f;stroke-width:1.5;" x="0" xlink:href="#maf4f77c01e" y="342.103489"/>
    </g>
   </g>
   <g id="PolyCollection_2">
    <defs>
     <path d="M 188.36484 -121.652861 
L 186.13141 -121.652861 
L 185.939326 -123.215621 
L 185.723094 -124.778381 
L 185.48134 -126.341141 
L 185.212885 -127.903901 
L 184.916791 -129.466662 
L 184.592389 -131.029422 
L 184.239319 -132.592182 
L 183.85754 -134.154942 
L 183.447344 -135.717702 
L 183.009353 -137.280462 
L 182.544501 -138.843222 
L 182.054 -140.405982 
L 181.539304 -141.968742 
L 181.002044 -143.531502 
L 180.443974 -145.094262 
L 179.86689 -146.657022 
L 179.272565 -148.219782 
L 178.662677 -149.782542 
L 178.038744 -151.345302 
L 177.402075 -152.908063 
L 176.75374 -154.470823 
L 176.094552 -156.033583 
L 175.425084 -157.596343 
L 174.745703 -159.159103 
L 174.056634 -160.721863 
L 173.35805 -162.284623 
L 172.650183 -163.847383 
L 171.933445 -165.410143 
L 171.208571 -166.972903 
L 170.476756 -168.535663 
L 169.739785 -170.098423 
L 169.000157 -171.661183 
L 168.261173 -173.223943 
L 167.527 -174.786703 
L 166.802695 -176.349464 
L 166.094177 -177.912224 
L 165.408162 -179.474984 
L 164.75204 -181.037744 
L 164.133712 -182.600504 
L 163.561382 -184.163264 
L 163.043316 -185.726024 
L 162.587578 -187.288784 
L 162.201748 -188.851544 
L 161.892648 -190.414304 
L 161.666073 -191.977064 
L 161.526555 -193.539824 
L 161.477158 -195.102584 
L 161.51933 -196.665344 
L 161.65281 -198.228104 
L 161.875595 -199.790865 
L 162.183978 -201.353625 
L 162.57265 -202.916385 
L 163.034863 -204.479145 
L 163.562648 -206.041905 
L 164.14708 -207.604665 
L 164.778572 -209.167425 
L 165.447192 -210.730185 
L 166.142989 -212.292945 
L 166.856299 -213.855705 
L 167.578041 -215.418465 
L 168.299971 -216.981225 
L 169.014892 -218.543985 
L 169.716811 -220.106745 
L 170.40104 -221.669505 
L 171.064235 -223.232266 
L 171.704375 -224.795026 
L 172.32069 -226.357786 
L 172.913537 -227.920546 
L 173.484238 -229.483306 
L 174.034887 -231.046066 
L 174.568138 -232.608826 
L 175.086984 -234.171586 
L 175.594545 -235.734346 
L 176.093863 -237.297106 
L 176.587721 -238.859866 
L 177.078496 -240.422626 
L 177.568035 -241.985386 
L 178.057583 -243.548146 
L 178.547737 -245.110906 
L 179.038442 -246.673667 
L 179.52902 -248.236427 
L 180.01823 -249.799187 
L 180.504347 -251.361947 
L 180.985266 -252.924707 
L 181.45861 -254.487467 
L 181.921847 -256.050227 
L 182.372404 -257.612987 
L 182.807775 -259.175747 
L 183.225616 -260.738507 
L 183.62383 -262.301267 
L 184.000626 -263.864027 
L 184.354574 -265.426787 
L 184.684626 -266.989547 
L 184.990128 -268.552307 
L 185.270821 -270.115068 
L 185.526813 -271.677828 
L 185.758557 -273.240588 
L 185.966805 -274.803348 
L 186.152566 -276.366108 
L 188.343684 -276.366108 
L 188.343684 -276.366108 
L 188.529445 -274.803348 
L 188.737693 -273.240588 
L 188.969437 -271.677828 
L 189.225429 -270.115068 
L 189.506122 -268.552307 
L 189.811624 -266.989547 
L 190.141676 -265.426787 
L 190.495624 -263.864027 
L 190.87242 -262.301267 
L 191.270634 -260.738507 
L 191.688475 -259.175747 
L 192.123846 -257.612987 
L 192.574403 -256.050227 
L 193.03764 -254.487467 
L 193.510984 -252.924707 
L 193.991903 -251.361947 
L 194.47802 -249.799187 
L 194.96723 -248.236427 
L 195.457808 -246.673667 
L 195.948513 -245.110906 
L 196.438667 -243.548146 
L 196.928215 -241.985386 
L 197.417754 -240.422626 
L 197.908529 -238.859866 
L 198.402387 -237.297106 
L 198.901705 -235.734346 
L 199.409266 -234.171586 
L 199.928112 -232.608826 
L 200.461363 -231.046066 
L 201.012012 -229.483306 
L 201.582713 -227.920546 
L 202.17556 -226.357786 
L 202.791875 -224.795026 
L 203.432015 -223.232266 
L 204.09521 -221.669505 
L 204.779439 -220.106745 
L 205.481358 -218.543985 
L 206.196279 -216.981225 
L 206.918209 -215.418465 
L 207.639951 -213.855705 
L 208.353261 -212.292945 
L 209.049058 -210.730185 
L 209.717678 -209.167425 
L 210.34917 -207.604665 
L 210.933602 -206.041905 
L 211.461387 -204.479145 
L 211.9236 -202.916385 
L 212.312272 -201.353625 
L 212.620655 -199.790865 
L 212.84344 -198.228104 
L 212.97692 -196.665344 
L 213.019092 -195.102584 
L 212.969695 -193.539824 
L 212.830177 -191.977064 
L 212.603602 -190.414304 
L 212.294502 -188.851544 
L 211.908672 -187.288784 
L 211.452934 -185.726024 
L 210.934868 -184.163264 
L 210.362538 -182.600504 
L 209.74421 -181.037744 
L 209.088088 -179.474984 
L 208.402073 -177.912224 
L 207.693555 -176.349464 
L 206.96925 -174.786703 
L 206.235077 -173.223943 
L 205.496093 -171.661183 
L 204.756465 -170.098423 
L 204.019494 -168.535663 
L 203.287679 -166.972903 
L 202.562805 -165.410143 
L 201.846067 -163.847383 
L 201.1382 -162.284623 
L 200.439616 -160.721863 
L 199.750547 -159.159103 
L 199.071166 -157.596343 
L 198.401698 -156.033583 
L 197.74251 -154.470823 
L 197.094175 -152.908063 
L 196.457506 -151.345302 
L 195.833573 -149.782542 
L 195.223685 -148.219782 
L 194.62936 -146.657022 
L 194.052276 -145.094262 
L 193.494206 -143.531502 
L 192.956946 -141.968742 
L 192.44225 -140.405982 
L 191.951749 -138.843222 
L 191.486897 -137.280462 
L 191.048906 -135.717702 
L 190.63871 -134.154942 
L 190.256931 -132.592182 
L 189.903861 -131.029422 
L 189.579459 -129.466662 
L 189.283365 -127.903901 
L 189.01491 -126.341141 
L 188.773156 -124.778381 
L 188.556924 -123.215621 
L 188.36484 -121.652861 
z
" id="m774c53465e" style="stroke:#3f3f3f;stroke-width:1.5;"/>
    </defs>
    <g clip-path="url(#p3750ff5ec8)">
     <use style="fill:#3274a1;stroke:#3f3f3f;stroke-width:1.5;" x="0" xlink:href="#m774c53465e" y="342.103489"/>
    </g>
   </g>
   <g id="PolyCollection_3">
    <defs>
     <path d="M 278.97701 -138.715784 
L 274.07924 -138.715784 
L 273.696813 -139.644408 
L 273.270267 -140.573032 
L 272.797311 -141.501656 
L 272.276022 -142.43028 
L 271.704926 -143.358904 
L 271.083093 -144.287529 
L 270.410224 -145.216153 
L 269.686728 -146.144777 
L 268.9138 -147.073401 
L 268.093477 -148.002025 
L 267.228684 -148.930649 
L 266.323262 -149.859273 
L 265.381964 -150.787897 
L 264.410443 -151.716521 
L 263.415196 -152.645146 
L 262.403493 -153.57377 
L 261.383272 -154.502394 
L 260.363006 -155.431018 
L 259.351552 -156.359642 
L 258.357963 -157.288266 
L 257.391296 -158.21689 
L 256.4604 -159.145514 
L 255.573689 -160.074138 
L 254.738925 -161.002763 
L 253.962999 -161.931387 
L 253.251724 -162.860011 
L 252.60965 -163.788635 
L 252.039905 -164.717259 
L 251.544068 -165.645883 
L 251.122084 -166.574507 
L 250.772215 -167.503131 
L 250.491047 -168.431755 
L 250.273538 -169.36038 
L 250.113123 -170.289004 
L 250.001857 -171.217628 
L 249.930612 -172.146252 
L 249.889306 -173.074876 
L 249.86718 -174.0035 
L 249.853083 -174.932124 
L 249.835795 -175.860748 
L 249.80435 -176.789372 
L 249.748357 -177.717997 
L 249.658323 -178.646621 
L 249.525946 -179.575245 
L 249.344384 -180.503869 
L 249.10849 -181.432493 
L 248.814999 -182.361117 
L 248.462667 -183.289741 
L 248.052356 -184.218365 
L 247.587057 -185.146989 
L 247.071861 -186.075613 
L 246.513865 -187.004238 
L 245.922025 -187.932862 
L 245.306957 -188.861486 
L 244.680688 -189.79011 
L 244.056371 -190.718734 
L 243.447964 -191.647358 
L 242.869893 -192.575982 
L 242.336693 -193.504606 
L 241.862653 -194.43323 
L 241.461463 -195.361855 
L 241.145885 -196.290479 
L 240.927436 -197.219103 
L 240.816125 -198.147727 
L 240.82021 -199.076351 
L 240.946019 -200.004975 
L 241.197813 -200.933599 
L 241.577704 -201.862223 
L 242.085635 -202.790847 
L 242.719403 -203.719472 
L 243.474743 -204.648096 
L 244.345458 -205.57672 
L 245.323588 -206.505344 
L 246.399626 -207.433968 
L 247.562747 -208.362592 
L 248.801078 -209.291216 
L 250.101967 -210.21984 
L 251.452267 -211.148464 
L 252.838609 -212.077089 
L 254.247677 -213.005713 
L 255.666454 -213.934337 
L 257.082454 -214.862961 
L 258.483926 -215.791585 
L 259.860026 -216.720209 
L 261.200954 -217.648833 
L 262.498062 -218.577457 
L 263.743919 -219.506081 
L 264.932357 -220.434706 
L 266.058468 -221.36333 
L 267.118583 -222.291954 
L 268.110227 -223.220578 
L 269.032043 -224.149202 
L 269.883705 -225.077826 
L 270.665817 -226.00645 
L 271.379802 -226.935074 
L 272.027781 -227.863698 
L 272.612462 -228.792323 
L 273.137014 -229.720947 
L 273.604962 -230.649571 
L 279.451288 -230.649571 
L 279.451288 -230.649571 
L 279.919236 -229.720947 
L 280.443788 -228.792323 
L 281.028469 -227.863698 
L 281.676448 -226.935074 
L 282.390433 -226.00645 
L 283.172545 -225.077826 
L 284.024207 -224.149202 
L 284.946023 -223.220578 
L 285.937667 -222.291954 
L 286.997782 -221.36333 
L 288.123893 -220.434706 
L 289.312331 -219.506081 
L 290.558188 -218.577457 
L 291.855296 -217.648833 
L 293.196224 -216.720209 
L 294.572324 -215.791585 
L 295.973796 -214.862961 
L 297.389796 -213.934337 
L 298.808573 -213.005713 
L 300.217641 -212.077089 
L 301.603983 -211.148464 
L 302.954283 -210.21984 
L 304.255172 -209.291216 
L 305.493503 -208.362592 
L 306.656624 -207.433968 
L 307.732662 -206.505344 
L 308.710792 -205.57672 
L 309.581507 -204.648096 
L 310.336847 -203.719472 
L 310.970615 -202.790847 
L 311.478546 -201.862223 
L 311.858437 -200.933599 
L 312.110231 -200.004975 
L 312.23604 -199.076351 
L 312.240125 -198.147727 
L 312.128814 -197.219103 
L 311.910365 -196.290479 
L 311.594787 -195.361855 
L 311.193597 -194.43323 
L 310.719557 -193.504606 
L 310.186357 -192.575982 
L 309.608286 -191.647358 
L 308.999879 -190.718734 
L 308.375562 -189.79011 
L 307.749293 -188.861486 
L 307.134225 -187.932862 
L 306.542385 -187.004238 
L 305.984389 -186.075613 
L 305.469193 -185.146989 
L 305.003894 -184.218365 
L 304.593583 -183.289741 
L 304.241251 -182.361117 
L 303.94776 -181.432493 
L 303.711866 -180.503869 
L 303.530304 -179.575245 
L 303.397927 -178.646621 
L 303.307893 -177.717997 
L 303.2519 -176.789372 
L 303.220455 -175.860748 
L 303.203167 -174.932124 
L 303.18907 -174.0035 
L 303.166944 -173.074876 
L 303.125638 -172.146252 
L 303.054393 -171.217628 
L 302.943127 -170.289004 
L 302.782712 -169.36038 
L 302.565203 -168.431755 
L 302.284035 -167.503131 
L 301.934166 -166.574507 
L 301.512182 -165.645883 
L 301.016345 -164.717259 
L 300.4466 -163.788635 
L 299.804526 -162.860011 
L 299.093251 -161.931387 
L 298.317325 -161.002763 
L 297.482561 -160.074138 
L 296.59585 -159.145514 
L 295.664954 -158.21689 
L 294.698287 -157.288266 
L 293.704698 -156.359642 
L 292.693244 -155.431018 
L 291.672978 -154.502394 
L 290.652757 -153.57377 
L 289.641054 -152.645146 
L 288.645807 -151.716521 
L 287.674286 -150.787897 
L 286.732988 -149.859273 
L 285.827566 -148.930649 
L 284.962773 -148.002025 
L 284.14245 -147.073401 
L 283.369522 -146.144777 
L 282.646026 -145.216153 
L 281.973157 -144.287529 
L 281.351324 -143.358904 
L 280.780228 -142.43028 
L 280.258939 -141.501656 
L 279.785983 -140.573032 
L 279.359437 -139.644408 
L 278.97701 -138.715784 
z
" id="m2b3d7718e2" style="stroke:#3f3f3f;stroke-width:1.5;"/>
    </defs>
    <g clip-path="url(#p3750ff5ec8)">
     <use style="fill:#eebb89;stroke:#3f3f3f;stroke-width:1.5;" x="0" xlink:href="#m2b3d7718e2" y="342.103489"/>
    </g>
   </g>
   <g id="PolyCollection_4">
    <defs>
     <path d="M 367.728112 -123.216846 
L 363.888138 -123.216846 
L 363.572554 -124.779021 
L 363.218736 -126.341195 
L 362.824566 -127.90337 
L 362.388241 -129.465545 
L 361.908351 -131.02772 
L 361.383958 -132.589895 
L 360.814664 -134.15207 
L 360.200682 -135.714244 
L 359.54289 -137.276419 
L 358.842871 -138.838594 
L 358.102951 -140.400769 
L 357.326198 -141.962944 
L 356.516426 -143.525119 
L 355.678157 -145.087293 
L 354.81658 -146.649468 
L 353.937477 -148.211643 
L 353.047141 -149.773818 
L 352.152266 -151.335993 
L 351.259838 -152.898167 
L 350.376998 -154.460342 
L 349.510919 -156.022517 
L 348.668662 -157.584692 
L 347.857051 -159.146867 
L 347.082544 -160.709042 
L 346.351124 -162.271216 
L 345.668197 -163.833391 
L 345.038514 -165.395566 
L 344.46611 -166.957741 
L 343.954263 -168.519916 
L 343.505478 -170.082091 
L 343.121484 -171.644265 
L 342.803256 -173.20644 
L 342.551048 -174.768615 
L 342.364443 -176.33079 
L 342.242406 -177.892965 
L 342.183349 -179.455139 
L 342.185195 -181.017314 
L 342.245445 -182.579489 
L 342.361236 -184.141664 
L 342.529402 -185.703839 
L 342.746523 -187.266014 
L 343.008969 -188.828188 
L 343.312943 -190.390363 
L 343.654508 -191.952538 
L 344.029627 -193.514713 
L 344.434184 -195.076888 
L 344.864018 -196.639063 
L 345.31495 -198.201237 
L 345.782823 -199.763412 
L 346.263539 -201.325587 
L 346.753103 -202.887762 
L 347.247675 -204.449937 
L 347.743622 -206.012111 
L 348.237579 -207.574286 
L 348.7265 -209.136461 
L 349.207721 -210.698636 
L 349.679008 -212.260811 
L 350.138597 -213.822986 
L 350.585232 -215.38516 
L 351.018184 -216.947335 
L 351.43725 -218.50951 
L 351.842746 -220.071685 
L 352.235478 -221.63386 
L 352.61669 -223.196035 
L 352.98801 -224.758209 
L 353.351366 -226.320384 
L 353.708906 -227.882559 
L 354.0629 -229.444734 
L 354.415641 -231.006909 
L 354.76935 -232.569083 
L 355.12608 -234.131258 
L 355.487629 -235.693433 
L 355.855468 -237.255608 
L 356.23068 -238.817783 
L 356.613917 -240.379958 
L 357.005371 -241.942132 
L 357.404773 -243.504307 
L 357.811399 -245.066482 
L 358.224101 -246.628657 
L 358.641349 -248.190832 
L 359.061288 -249.753007 
L 359.481803 -251.315181 
L 359.900592 -252.877356 
L 360.315245 -254.439531 
L 360.723314 -256.001706 
L 361.122393 -257.563881 
L 361.510184 -259.126055 
L 361.884557 -260.68823 
L 362.2436 -262.250405 
L 362.585664 -263.81258 
L 362.909387 -265.374755 
L 363.213715 -266.93693 
L 363.497911 -268.499104 
L 363.761544 -270.061279 
L 364.004487 -271.623454 
L 364.226887 -273.185629 
L 364.429146 -274.747804 
L 364.611889 -276.309979 
L 364.775925 -277.872153 
L 366.840325 -277.872153 
L 366.840325 -277.872153 
L 367.004361 -276.309979 
L 367.187104 -274.747804 
L 367.389363 -273.185629 
L 367.611763 -271.623454 
L 367.854706 -270.061279 
L 368.118339 -268.499104 
L 368.402535 -266.93693 
L 368.706863 -265.374755 
L 369.030586 -263.81258 
L 369.37265 -262.250405 
L 369.731693 -260.68823 
L 370.106066 -259.126055 
L 370.493857 -257.563881 
L 370.892936 -256.001706 
L 371.301005 -254.439531 
L 371.715658 -252.877356 
L 372.134447 -251.315181 
L 372.554962 -249.753007 
L 372.974901 -248.190832 
L 373.392149 -246.628657 
L 373.804851 -245.066482 
L 374.211477 -243.504307 
L 374.610879 -241.942132 
L 375.002333 -240.379958 
L 375.38557 -238.817783 
L 375.760782 -237.255608 
L 376.128621 -235.693433 
L 376.49017 -234.131258 
L 376.8469 -232.569083 
L 377.200609 -231.006909 
L 377.55335 -229.444734 
L 377.907344 -227.882559 
L 378.264884 -226.320384 
L 378.62824 -224.758209 
L 378.99956 -223.196035 
L 379.380772 -221.63386 
L 379.773504 -220.071685 
L 380.179 -218.50951 
L 380.598066 -216.947335 
L 381.031018 -215.38516 
L 381.477653 -213.822986 
L 381.937242 -212.260811 
L 382.408529 -210.698636 
L 382.88975 -209.136461 
L 383.378671 -207.574286 
L 383.872628 -206.012111 
L 384.368575 -204.449937 
L 384.863147 -202.887762 
L 385.352711 -201.325587 
L 385.833427 -199.763412 
L 386.3013 -198.201237 
L 386.752232 -196.639063 
L 387.182066 -195.076888 
L 387.586623 -193.514713 
L 387.961742 -191.952538 
L 388.303307 -190.390363 
L 388.607281 -188.828188 
L 388.869727 -187.266014 
L 389.086848 -185.703839 
L 389.255014 -184.141664 
L 389.370805 -182.579489 
L 389.431055 -181.017314 
L 389.432901 -179.455139 
L 389.373844 -177.892965 
L 389.251807 -176.33079 
L 389.065202 -174.768615 
L 388.812994 -173.20644 
L 388.494766 -171.644265 
L 388.110772 -170.082091 
L 387.661987 -168.519916 
L 387.15014 -166.957741 
L 386.577736 -165.395566 
L 385.948053 -163.833391 
L 385.265126 -162.271216 
L 384.533706 -160.709042 
L 383.759199 -159.146867 
L 382.947588 -157.584692 
L 382.105331 -156.022517 
L 381.239252 -154.460342 
L 380.356412 -152.898167 
L 379.463984 -151.335993 
L 378.569109 -149.773818 
L 377.678773 -148.211643 
L 376.79967 -146.649468 
L 375.938093 -145.087293 
L 375.099824 -143.525119 
L 374.290052 -141.962944 
L 373.513299 -140.400769 
L 372.773379 -138.838594 
L 372.07336 -137.276419 
L 371.415568 -135.714244 
L 370.801586 -134.15207 
L 370.232292 -132.589895 
L 369.707899 -131.02772 
L 369.228009 -129.465545 
L 368.791684 -127.90337 
L 368.397514 -126.341195 
L 368.043696 -124.779021 
L 367.728112 -123.216846 
z
" id="m8486bd15b8" style="stroke:#3f3f3f;stroke-width:1.5;"/>
    </defs>
    <g clip-path="url(#p3750ff5ec8)">
     <use style="fill:#b5c8e1;stroke:#3f3f3f;stroke-width:1.5;" x="0" xlink:href="#m8486bd15b8" y="342.103489"/>
    </g>
   </g>
   <g id="matplotlib.axis_1">
    <g id="xtick_1">
     <g id="line2d_1">
      <defs>
       <path d="M 0 0 
L 0 3.5 
" id="mf1d0fe3472" style="stroke:#000000;stroke-width:0.8;"/>
      </defs>
      <g>
       <use style="stroke:#000000;stroke-width:0.8;" x="97.968125" xlink:href="#mf1d0fe3472" y="288.430125"/>
      </g>
     </g>
     <g id="text_1">
      <!-- start_2 -->
      <g transform="translate(66.780085 319.183439)rotate(-30)scale(0.1 -0.1)">
       <defs>
        <path d="M 44.28125 53.078125 
L 44.28125 44.578125 
Q 40.484375 46.53125 36.375 47.5 
Q 32.28125 48.484375 27.875 48.484375 
Q 21.1875 48.484375 17.84375 46.4375 
Q 14.5 44.390625 14.5 40.28125 
Q 14.5 37.15625 16.890625 35.375 
Q 19.28125 33.59375 26.515625 31.984375 
L 29.59375 31.296875 
Q 39.15625 29.25 43.1875 25.515625 
Q 47.21875 21.78125 47.21875 15.09375 
Q 47.21875 7.46875 41.1875 3.015625 
Q 35.15625 -1.421875 24.609375 -1.421875 
Q 20.21875 -1.421875 15.453125 -0.5625 
Q 10.6875 0.296875 5.421875 2 
L 5.421875 11.28125 
Q 10.40625 8.6875 15.234375 7.390625 
Q 20.0625 6.109375 24.8125 6.109375 
Q 31.15625 6.109375 34.5625 8.28125 
Q 37.984375 10.453125 37.984375 14.40625 
Q 37.984375 18.0625 35.515625 20.015625 
Q 33.0625 21.96875 24.703125 23.78125 
L 21.578125 24.515625 
Q 13.234375 26.265625 9.515625 29.90625 
Q 5.8125 33.546875 5.8125 39.890625 
Q 5.8125 47.609375 11.28125 51.796875 
Q 16.75 56 26.8125 56 
Q 31.78125 56 36.171875 55.265625 
Q 40.578125 54.546875 44.28125 53.078125 
z
" id="DejaVuSans-115"/>
        <path d="M 18.3125 70.21875 
L 18.3125 54.6875 
L 36.8125 54.6875 
L 36.8125 47.703125 
L 18.3125 47.703125 
L 18.3125 18.015625 
Q 18.3125 11.328125 20.140625 9.421875 
Q 21.96875 7.515625 27.59375 7.515625 
L 36.8125 7.515625 
L 36.8125 0 
L 27.59375 0 
Q 17.1875 0 13.234375 3.875 
Q 9.28125 7.765625 9.28125 18.015625 
L 9.28125 47.703125 
L 2.6875 47.703125 
L 2.6875 54.6875 
L 9.28125 54.6875 
L 9.28125 70.21875 
z
" id="DejaVuSans-116"/>
        <path d="M 34.28125 27.484375 
Q 23.390625 27.484375 19.1875 25 
Q 14.984375 22.515625 14.984375 16.5 
Q 14.984375 11.71875 18.140625 8.90625 
Q 21.296875 6.109375 26.703125 6.109375 
Q 34.1875 6.109375 38.703125 11.40625 
Q 43.21875 16.703125 43.21875 25.484375 
L 43.21875 27.484375 
z
M 52.203125 31.203125 
L 52.203125 0 
L 43.21875 0 
L 43.21875 8.296875 
Q 40.140625 3.328125 35.546875 0.953125 
Q 30.953125 -1.421875 24.3125 -1.421875 
Q 15.921875 -1.421875 10.953125 3.296875 
Q 6 8.015625 6 15.921875 
Q 6 25.140625 12.171875 29.828125 
Q 18.359375 34.515625 30.609375 34.515625 
L 43.21875 34.515625 
L 43.21875 35.40625 
Q 43.21875 41.609375 39.140625 45 
Q 35.0625 48.390625 27.6875 48.390625 
Q 23 48.390625 18.546875 47.265625 
Q 14.109375 46.140625 10.015625 43.890625 
L 10.015625 52.203125 
Q 14.9375 54.109375 19.578125 55.046875 
Q 24.21875 56 28.609375 56 
Q 40.484375 56 46.34375 49.84375 
Q 52.203125 43.703125 52.203125 31.203125 
z
" id="DejaVuSans-97"/>
        <path d="M 41.109375 46.296875 
Q 39.59375 47.171875 37.8125 47.578125 
Q 36.03125 48 33.890625 48 
Q 26.265625 48 22.1875 43.046875 
Q 18.109375 38.09375 18.109375 28.8125 
L 18.109375 0 
L 9.078125 0 
L 9.078125 54.6875 
L 18.109375 54.6875 
L 18.109375 46.1875 
Q 20.953125 51.171875 25.484375 53.578125 
Q 30.03125 56 36.53125 56 
Q 37.453125 56 38.578125 55.875 
Q 39.703125 55.765625 41.0625 55.515625 
z
" id="DejaVuSans-114"/>
        <path d="M 50.984375 -16.609375 
L 50.984375 -23.578125 
L -0.984375 -23.578125 
L -0.984375 -16.609375 
z
" id="DejaVuSans-95"/>
        <path d="M 19.1875 8.296875 
L 53.609375 8.296875 
L 53.609375 0 
L 7.328125 0 
L 7.328125 8.296875 
Q 12.9375 14.109375 22.625 23.890625 
Q 32.328125 33.6875 34.8125 36.53125 
Q 39.546875 41.84375 41.421875 45.53125 
Q 43.3125 49.21875 43.3125 52.78125 
Q 43.3125 58.59375 39.234375 62.25 
Q 35.15625 65.921875 28.609375 65.921875 
Q 23.96875 65.921875 18.8125 64.3125 
Q 13.671875 62.703125 7.8125 59.421875 
L 7.8125 69.390625 
Q 13.765625 71.78125 18.9375 73 
Q 24.125 74.21875 28.421875 74.21875 
Q 39.75 74.21875 46.484375 68.546875 
Q 53.21875 62.890625 53.21875 53.421875 
Q 53.21875 48.921875 51.53125 44.890625 
Q 49.859375 40.875 45.40625 35.40625 
Q 44.1875 33.984375 37.640625 27.21875 
Q 31.109375 20.453125 19.1875 8.296875 
z
" id="DejaVuSans-50"/>
       </defs>
       <use xlink:href="#DejaVuSans-115"/>
       <use x="52.099609" xlink:href="#DejaVuSans-116"/>
       <use x="91.308594" xlink:href="#DejaVuSans-97"/>
       <use x="152.587891" xlink:href="#DejaVuSans-114"/>
       <use x="193.701172" xlink:href="#DejaVuSans-116"/>
       <use x="232.910156" xlink:href="#DejaVuSans-95"/>
       <use x="282.910156" xlink:href="#DejaVuSans-50"/>
      </g>
     </g>
    </g>
    <g id="xtick_2">
     <g id="line2d_2">
      <g>
       <use style="stroke:#000000;stroke-width:0.8;" x="187.248125" xlink:href="#mf1d0fe3472" y="288.430125"/>
      </g>
     </g>
     <g id="text_2">
      <!-- start_0 -->
      <g transform="translate(156.060085 319.183439)rotate(-30)scale(0.1 -0.1)">
       <defs>
        <path d="M 31.78125 66.40625 
Q 24.171875 66.40625 20.328125 58.90625 
Q 16.5 51.421875 16.5 36.375 
Q 16.5 21.390625 20.328125 13.890625 
Q 24.171875 6.390625 31.78125 6.390625 
Q 39.453125 6.390625 43.28125 13.890625 
Q 47.125 21.390625 47.125 36.375 
Q 47.125 51.421875 43.28125 58.90625 
Q 39.453125 66.40625 31.78125 66.40625 
z
M 31.78125 74.21875 
Q 44.046875 74.21875 50.515625 64.515625 
Q 56.984375 54.828125 56.984375 36.375 
Q 56.984375 17.96875 50.515625 8.265625 
Q 44.046875 -1.421875 31.78125 -1.421875 
Q 19.53125 -1.421875 13.0625 8.265625 
Q 6.59375 17.96875 6.59375 36.375 
Q 6.59375 54.828125 13.0625 64.515625 
Q 19.53125 74.21875 31.78125 74.21875 
z
" id="DejaVuSans-48"/>
       </defs>
       <use xlink:href="#DejaVuSans-115"/>
       <use x="52.099609" xlink:href="#DejaVuSans-116"/>
       <use x="91.308594" xlink:href="#DejaVuSans-97"/>
       <use x="152.587891" xlink:href="#DejaVuSans-114"/>
       <use x="193.701172" xlink:href="#DejaVuSans-116"/>
       <use x="232.910156" xlink:href="#DejaVuSans-95"/>
       <use x="282.910156" xlink:href="#DejaVuSans-48"/>
      </g>
     </g>
    </g>
    <g id="xtick_3">
     <g id="line2d_3">
      <g>
       <use style="stroke:#000000;stroke-width:0.8;" x="276.528125" xlink:href="#mf1d0fe3472" y="288.430125"/>
      </g>
     </g>
     <g id="text_3">
      <!-- start_3 -->
      <g transform="translate(245.340085 319.183439)rotate(-30)scale(0.1 -0.1)">
       <defs>
        <path d="M 40.578125 39.3125 
Q 47.65625 37.796875 51.625 33 
Q 55.609375 28.21875 55.609375 21.1875 
Q 55.609375 10.40625 48.1875 4.484375 
Q 40.765625 -1.421875 27.09375 -1.421875 
Q 22.515625 -1.421875 17.65625 -0.515625 
Q 12.796875 0.390625 7.625 2.203125 
L 7.625 11.71875 
Q 11.71875 9.328125 16.59375 8.109375 
Q 21.484375 6.890625 26.8125 6.890625 
Q 36.078125 6.890625 40.9375 10.546875 
Q 45.796875 14.203125 45.796875 21.1875 
Q 45.796875 27.640625 41.28125 31.265625 
Q 36.765625 34.90625 28.71875 34.90625 
L 20.21875 34.90625 
L 20.21875 43.015625 
L 29.109375 43.015625 
Q 36.375 43.015625 40.234375 45.921875 
Q 44.09375 48.828125 44.09375 54.296875 
Q 44.09375 59.90625 40.109375 62.90625 
Q 36.140625 65.921875 28.71875 65.921875 
Q 24.65625 65.921875 20.015625 65.03125 
Q 15.375 64.15625 9.8125 62.3125 
L 9.8125 71.09375 
Q 15.4375 72.65625 20.34375 73.4375 
Q 25.25 74.21875 29.59375 74.21875 
Q 40.828125 74.21875 47.359375 69.109375 
Q 53.90625 64.015625 53.90625 55.328125 
Q 53.90625 49.265625 50.4375 45.09375 
Q 46.96875 40.921875 40.578125 39.3125 
z
" id="DejaVuSans-51"/>
       </defs>
       <use xlink:href="#DejaVuSans-115"/>
       <use x="52.099609" xlink:href="#DejaVuSans-116"/>
       <use x="91.308594" xlink:href="#DejaVuSans-97"/>
       <use x="152.587891" xlink:href="#DejaVuSans-114"/>
       <use x="193.701172" xlink:href="#DejaVuSans-116"/>
       <use x="232.910156" xlink:href="#DejaVuSans-95"/>
       <use x="282.910156" xlink:href="#DejaVuSans-51"/>
      </g>
     </g>
    </g>
    <g id="xtick_4">
     <g id="line2d_4">
      <g>
       <use style="stroke:#000000;stroke-width:0.8;" x="365.808125" xlink:href="#mf1d0fe3472" y="288.430125"/>
      </g>
     </g>
     <g id="text_4">
      <!-- start_1 -->
      <g transform="translate(334.620085 319.095483)rotate(-30)scale(0.1 -0.1)">
       <defs>
        <path d="M 12.40625 8.296875 
L 28.515625 8.296875 
L 28.515625 63.921875 
L 10.984375 60.40625 
L 10.984375 69.390625 
L 28.421875 72.90625 
L 38.28125 72.90625 
L 38.28125 8.296875 
L 54.390625 8.296875 
L 54.390625 0 
L 12.40625 0 
z
" id="DejaVuSans-49"/>
       </defs>
       <use xlink:href="#DejaVuSans-115"/>
       <use x="52.099609" xlink:href="#DejaVuSans-116"/>
       <use x="91.308594" xlink:href="#DejaVuSans-97"/>
       <use x="152.587891" xlink:href="#DejaVuSans-114"/>
       <use x="193.701172" xlink:href="#DejaVuSans-116"/>
       <use x="232.910156" xlink:href="#DejaVuSans-95"/>
       <use x="282.910156" xlink:href="#DejaVuSans-49"/>
      </g>
     </g>
    </g>
    <g id="text_5">
     <!-- Fuzzer (highest median coverage on the left) -->
     <g transform="translate(119.270156 332.823802)scale(0.1 -0.1)">
      <defs>
       <path d="M 9.8125 72.90625 
L 51.703125 72.90625 
L 51.703125 64.59375 
L 19.671875 64.59375 
L 19.671875 43.109375 
L 48.578125 43.109375 
L 48.578125 34.8125 
L 19.671875 34.8125 
L 19.671875 0 
L 9.8125 0 
z
" id="DejaVuSans-70"/>
       <path d="M 8.5 21.578125 
L 8.5 54.6875 
L 17.484375 54.6875 
L 17.484375 21.921875 
Q 17.484375 14.15625 20.5 10.265625 
Q 23.53125 6.390625 29.59375 6.390625 
Q 36.859375 6.390625 41.078125 11.03125 
Q 45.3125 15.671875 45.3125 23.6875 
L 45.3125 54.6875 
L 54.296875 54.6875 
L 54.296875 0 
L 45.3125 0 
L 45.3125 8.40625 
Q 42.046875 3.421875 37.71875 1 
Q 33.40625 -1.421875 27.6875 -1.421875 
Q 18.265625 -1.421875 13.375 4.4375 
Q 8.5 10.296875 8.5 21.578125 
z
M 31.109375 56 
z
" id="DejaVuSans-117"/>
       <path d="M 5.515625 54.6875 
L 48.1875 54.6875 
L 48.1875 46.484375 
L 14.40625 7.171875 
L 48.1875 7.171875 
L 48.1875 0 
L 4.296875 0 
L 4.296875 8.203125 
L 38.09375 47.515625 
L 5.515625 47.515625 
z
" id="DejaVuSans-122"/>
       <path d="M 56.203125 29.59375 
L 56.203125 25.203125 
L 14.890625 25.203125 
Q 15.484375 15.921875 20.484375 11.0625 
Q 25.484375 6.203125 34.421875 6.203125 
Q 39.59375 6.203125 44.453125 7.46875 
Q 49.3125 8.734375 54.109375 11.28125 
L 54.109375 2.78125 
Q 49.265625 0.734375 44.1875 -0.34375 
Q 39.109375 -1.421875 33.890625 -1.421875 
Q 20.796875 -1.421875 13.15625 6.1875 
Q 5.515625 13.8125 5.515625 26.8125 
Q 5.515625 40.234375 12.765625 48.109375 
Q 20.015625 56 32.328125 56 
Q 43.359375 56 49.78125 48.890625 
Q 56.203125 41.796875 56.203125 29.59375 
z
M 47.21875 32.234375 
Q 47.125 39.59375 43.09375 43.984375 
Q 39.0625 48.390625 32.421875 48.390625 
Q 24.90625 48.390625 20.390625 44.140625 
Q 15.875 39.890625 15.1875 32.171875 
z
" id="DejaVuSans-101"/>
       <path id="DejaVuSans-32"/>
       <path d="M 31 75.875 
Q 24.46875 64.65625 21.28125 53.65625 
Q 18.109375 42.671875 18.109375 31.390625 
Q 18.109375 20.125 21.3125 9.0625 
Q 24.515625 -2 31 -13.1875 
L 23.1875 -13.1875 
Q 15.875 -1.703125 12.234375 9.375 
Q 8.59375 20.453125 8.59375 31.390625 
Q 8.59375 42.28125 12.203125 53.3125 
Q 15.828125 64.359375 23.1875 75.875 
z
" id="DejaVuSans-40"/>
       <path d="M 54.890625 33.015625 
L 54.890625 0 
L 45.90625 0 
L 45.90625 32.71875 
Q 45.90625 40.484375 42.875 44.328125 
Q 39.84375 48.1875 33.796875 48.1875 
Q 26.515625 48.1875 22.3125 43.546875 
Q 18.109375 38.921875 18.109375 30.90625 
L 18.109375 0 
L 9.078125 0 
L 9.078125 75.984375 
L 18.109375 75.984375 
L 18.109375 46.1875 
Q 21.34375 51.125 25.703125 53.5625 
Q 30.078125 56 35.796875 56 
Q 45.21875 56 50.046875 50.171875 
Q 54.890625 44.34375 54.890625 33.015625 
z
" id="DejaVuSans-104"/>
       <path d="M 9.421875 54.6875 
L 18.40625 54.6875 
L 18.40625 0 
L 9.421875 0 
z
M 9.421875 75.984375 
L 18.40625 75.984375 
L 18.40625 64.59375 
L 9.421875 64.59375 
z
" id="DejaVuSans-105"/>
       <path d="M 45.40625 27.984375 
Q 45.40625 37.75 41.375 43.109375 
Q 37.359375 48.484375 30.078125 48.484375 
Q 22.859375 48.484375 18.828125 43.109375 
Q 14.796875 37.75 14.796875 27.984375 
Q 14.796875 18.265625 18.828125 12.890625 
Q 22.859375 7.515625 30.078125 7.515625 
Q 37.359375 7.515625 41.375 12.890625 
Q 45.40625 18.265625 45.40625 27.984375 
z
M 54.390625 6.78125 
Q 54.390625 -7.171875 48.1875 -13.984375 
Q 42 -20.796875 29.203125 -20.796875 
Q 24.46875 -20.796875 20.265625 -20.09375 
Q 16.0625 -19.390625 12.109375 -17.921875 
L 12.109375 -9.1875 
Q 16.0625 -11.328125 19.921875 -12.34375 
Q 23.78125 -13.375 27.78125 -13.375 
Q 36.625 -13.375 41.015625 -8.765625 
Q 45.40625 -4.15625 45.40625 5.171875 
L 45.40625 9.625 
Q 42.625 4.78125 38.28125 2.390625 
Q 33.9375 0 27.875 0 
Q 17.828125 0 11.671875 7.65625 
Q 5.515625 15.328125 5.515625 27.984375 
Q 5.515625 40.671875 11.671875 48.328125 
Q 17.828125 56 27.875 56 
Q 33.9375 56 38.28125 53.609375 
Q 42.625 51.21875 45.40625 46.390625 
L 45.40625 54.6875 
L 54.390625 54.6875 
z
" id="DejaVuSans-103"/>
       <path d="M 52 44.1875 
Q 55.375 50.25 60.0625 53.125 
Q 64.75 56 71.09375 56 
Q 79.640625 56 84.28125 50.015625 
Q 88.921875 44.046875 88.921875 33.015625 
L 88.921875 0 
L 79.890625 0 
L 79.890625 32.71875 
Q 79.890625 40.578125 77.09375 44.375 
Q 74.3125 48.1875 68.609375 48.1875 
Q 61.625 48.1875 57.5625 43.546875 
Q 53.515625 38.921875 53.515625 30.90625 
L 53.515625 0 
L 44.484375 0 
L 44.484375 32.71875 
Q 44.484375 40.625 41.703125 44.40625 
Q 38.921875 48.1875 33.109375 48.1875 
Q 26.21875 48.1875 22.15625 43.53125 
Q 18.109375 38.875 18.109375 30.90625 
L 18.109375 0 
L 9.078125 0 
L 9.078125 54.6875 
L 18.109375 54.6875 
L 18.109375 46.1875 
Q 21.1875 51.21875 25.484375 53.609375 
Q 29.78125 56 35.6875 56 
Q 41.65625 56 45.828125 52.96875 
Q 50 49.953125 52 44.1875 
z
" id="DejaVuSans-109"/>
       <path d="M 45.40625 46.390625 
L 45.40625 75.984375 
L 54.390625 75.984375 
L 54.390625 0 
L 45.40625 0 
L 45.40625 8.203125 
Q 42.578125 3.328125 38.25 0.953125 
Q 33.9375 -1.421875 27.875 -1.421875 
Q 17.96875 -1.421875 11.734375 6.484375 
Q 5.515625 14.40625 5.515625 27.296875 
Q 5.515625 40.1875 11.734375 48.09375 
Q 17.96875 56 27.875 56 
Q 33.9375 56 38.25 53.625 
Q 42.578125 51.265625 45.40625 46.390625 
z
M 14.796875 27.296875 
Q 14.796875 17.390625 18.875 11.75 
Q 22.953125 6.109375 30.078125 6.109375 
Q 37.203125 6.109375 41.296875 11.75 
Q 45.40625 17.390625 45.40625 27.296875 
Q 45.40625 37.203125 41.296875 42.84375 
Q 37.203125 48.484375 30.078125 48.484375 
Q 22.953125 48.484375 18.875 42.84375 
Q 14.796875 37.203125 14.796875 27.296875 
z
" id="DejaVuSans-100"/>
       <path d="M 54.890625 33.015625 
L 54.890625 0 
L 45.90625 0 
L 45.90625 32.71875 
Q 45.90625 40.484375 42.875 44.328125 
Q 39.84375 48.1875 33.796875 48.1875 
Q 26.515625 48.1875 22.3125 43.546875 
Q 18.109375 38.921875 18.109375 30.90625 
L 18.109375 0 
L 9.078125 0 
L 9.078125 54.6875 
L 18.109375 54.6875 
L 18.109375 46.1875 
Q 21.34375 51.125 25.703125 53.5625 
Q 30.078125 56 35.796875 56 
Q 45.21875 56 50.046875 50.171875 
Q 54.890625 44.34375 54.890625 33.015625 
z
" id="DejaVuSans-110"/>
       <path d="M 48.78125 52.59375 
L 48.78125 44.1875 
Q 44.96875 46.296875 41.140625 47.34375 
Q 37.3125 48.390625 33.40625 48.390625 
Q 24.65625 48.390625 19.8125 42.84375 
Q 14.984375 37.3125 14.984375 27.296875 
Q 14.984375 17.28125 19.8125 11.734375 
Q 24.65625 6.203125 33.40625 6.203125 
Q 37.3125 6.203125 41.140625 7.25 
Q 44.96875 8.296875 48.78125 10.40625 
L 48.78125 2.09375 
Q 45.015625 0.34375 40.984375 -0.53125 
Q 36.96875 -1.421875 32.421875 -1.421875 
Q 20.0625 -1.421875 12.78125 6.34375 
Q 5.515625 14.109375 5.515625 27.296875 
Q 5.515625 40.671875 12.859375 48.328125 
Q 20.21875 56 33.015625 56 
Q 37.15625 56 41.109375 55.140625 
Q 45.0625 54.296875 48.78125 52.59375 
z
" id="DejaVuSans-99"/>
       <path d="M 30.609375 48.390625 
Q 23.390625 48.390625 19.1875 42.75 
Q 14.984375 37.109375 14.984375 27.296875 
Q 14.984375 17.484375 19.15625 11.84375 
Q 23.34375 6.203125 30.609375 6.203125 
Q 37.796875 6.203125 41.984375 11.859375 
Q 46.1875 17.53125 46.1875 27.296875 
Q 46.1875 37.015625 41.984375 42.703125 
Q 37.796875 48.390625 30.609375 48.390625 
z
M 30.609375 56 
Q 42.328125 56 49.015625 48.375 
Q 55.71875 40.765625 55.71875 27.296875 
Q 55.71875 13.875 49.015625 6.21875 
Q 42.328125 -1.421875 30.609375 -1.421875 
Q 18.84375 -1.421875 12.171875 6.21875 
Q 5.515625 13.875 5.515625 27.296875 
Q 5.515625 40.765625 12.171875 48.375 
Q 18.84375 56 30.609375 56 
z
" id="DejaVuSans-111"/>
       <path d="M 2.984375 54.6875 
L 12.5 54.6875 
L 29.59375 8.796875 
L 46.6875 54.6875 
L 56.203125 54.6875 
L 35.6875 0 
L 23.484375 0 
z
" id="DejaVuSans-118"/>
       <path d="M 9.421875 75.984375 
L 18.40625 75.984375 
L 18.40625 0 
L 9.421875 0 
z
" id="DejaVuSans-108"/>
       <path d="M 37.109375 75.984375 
L 37.109375 68.5 
L 28.515625 68.5 
Q 23.6875 68.5 21.796875 66.546875 
Q 19.921875 64.59375 19.921875 59.515625 
L 19.921875 54.6875 
L 34.71875 54.6875 
L 34.71875 47.703125 
L 19.921875 47.703125 
L 19.921875 0 
L 10.890625 0 
L 10.890625 47.703125 
L 2.296875 47.703125 
L 2.296875 54.6875 
L 10.890625 54.6875 
L 10.890625 58.5 
Q 10.890625 67.625 15.140625 71.796875 
Q 19.390625 75.984375 28.609375 75.984375 
z
" id="DejaVuSans-102"/>
       <path d="M 8.015625 75.875 
L 15.828125 75.875 
Q 23.140625 64.359375 26.78125 53.3125 
Q 30.421875 42.28125 30.421875 31.390625 
Q 30.421875 20.453125 26.78125 9.375 
Q 23.140625 -1.703125 15.828125 -13.1875 
L 8.015625 -13.1875 
Q 14.5 -2 17.703125 9.0625 
Q 20.90625 20.125 20.90625 31.390625 
Q 20.90625 42.671875 17.703125 53.65625 
Q 14.5 64.65625 8.015625 75.875 
z
" id="DejaVuSans-41"/>
      </defs>
      <use xlink:href="#DejaVuSans-70"/>
      <use x="52.019531" xlink:href="#DejaVuSans-117"/>
      <use x="115.398438" xlink:href="#DejaVuSans-122"/>
      <use x="167.888672" xlink:href="#DejaVuSans-122"/>
      <use x="220.378906" xlink:href="#DejaVuSans-101"/>
      <use x="281.902344" xlink:href="#DejaVuSans-114"/>
      <use x="323.015625" xlink:href="#DejaVuSans-32"/>
      <use x="354.802734" xlink:href="#DejaVuSans-40"/>
      <use x="393.816406" xlink:href="#DejaVuSans-104"/>
      <use x="457.195312" xlink:href="#DejaVuSans-105"/>
      <use x="484.978516" xlink:href="#DejaVuSans-103"/>
      <use x="548.455078" xlink:href="#DejaVuSans-104"/>
      <use x="611.833984" xlink:href="#DejaVuSans-101"/>
      <use x="673.357422" xlink:href="#DejaVuSans-115"/>
      <use x="725.457031" xlink:href="#DejaVuSans-116"/>
      <use x="764.666016" xlink:href="#DejaVuSans-32"/>
      <use x="796.453125" xlink:href="#DejaVuSans-109"/>
      <use x="893.865234" xlink:href="#DejaVuSans-101"/>
      <use x="955.388672" xlink:href="#DejaVuSans-100"/>
      <use x="1018.865234" xlink:href="#DejaVuSans-105"/>
      <use x="1046.648438" xlink:href="#DejaVuSans-97"/>
      <use x="1107.927734" xlink:href="#DejaVuSans-110"/>
      <use x="1171.306641" xlink:href="#DejaVuSans-32"/>
      <use x="1203.09375" xlink:href="#DejaVuSans-99"/>
      <use x="1258.074219" xlink:href="#DejaVuSans-111"/>
      <use x="1319.255859" xlink:href="#DejaVuSans-118"/>
      <use x="1378.435547" xlink:href="#DejaVuSans-101"/>
      <use x="1439.958984" xlink:href="#DejaVuSans-114"/>
      <use x="1481.072266" xlink:href="#DejaVuSans-97"/>
      <use x="1542.351562" xlink:href="#DejaVuSans-103"/>
      <use x="1605.828125" xlink:href="#DejaVuSans-101"/>
      <use x="1667.351562" xlink:href="#DejaVuSans-32"/>
      <use x="1699.138672" xlink:href="#DejaVuSans-111"/>
      <use x="1760.320312" xlink:href="#DejaVuSans-110"/>
      <use x="1823.699219" xlink:href="#DejaVuSans-32"/>
      <use x="1855.486328" xlink:href="#DejaVuSans-116"/>
      <use x="1894.695312" xlink:href="#DejaVuSans-104"/>
      <use x="1958.074219" xlink:href="#DejaVuSans-101"/>
      <use x="2019.597656" xlink:href="#DejaVuSans-32"/>
      <use x="2051.384766" xlink:href="#DejaVuSans-108"/>
      <use x="2079.167969" xlink:href="#DejaVuSans-101"/>
      <use x="2140.691406" xlink:href="#DejaVuSans-102"/>
      <use x="2174.146484" xlink:href="#DejaVuSans-116"/>
      <use x="2213.355469" xlink:href="#DejaVuSans-41"/>
     </g>
    </g>
   </g>
   <g id="matplotlib.axis_2">
    <g id="ytick_1">
     <g id="line2d_5">
      <defs>
       <path d="M 0 0 
L -3.5 0 
" id="m30ad4dac55" style="stroke:#000000;stroke-width:0.8;"/>
      </defs>
      <g>
       <use style="stroke:#000000;stroke-width:0.8;" x="53.328125" xlink:href="#m30ad4dac55" y="247.475028"/>
      </g>
     </g>
     <g id="text_6">
      <!-- 1800 -->
      <g transform="translate(20.878125 251.274247)scale(0.1 -0.1)">
       <defs>
        <path d="M 31.78125 34.625 
Q 24.75 34.625 20.71875 30.859375 
Q 16.703125 27.09375 16.703125 20.515625 
Q 16.703125 13.921875 20.71875 10.15625 
Q 24.75 6.390625 31.78125 6.390625 
Q 38.8125 6.390625 42.859375 10.171875 
Q 46.921875 13.96875 46.921875 20.515625 
Q 46.921875 27.09375 42.890625 30.859375 
Q 38.875 34.625 31.78125 34.625 
z
M 21.921875 38.8125 
Q 15.578125 40.375 12.03125 44.71875 
Q 8.5 49.078125 8.5 55.328125 
Q 8.5 64.0625 14.71875 69.140625 
Q 20.953125 74.21875 31.78125 74.21875 
Q 42.671875 74.21875 48.875 69.140625 
Q 55.078125 64.0625 55.078125 55.328125 
Q 55.078125 49.078125 51.53125 44.71875 
Q 48 40.375 41.703125 38.8125 
Q 48.828125 37.15625 52.796875 32.3125 
Q 56.78125 27.484375 56.78125 20.515625 
Q 56.78125 9.90625 50.3125 4.234375 
Q 43.84375 -1.421875 31.78125 -1.421875 
Q 19.734375 -1.421875 13.25 4.234375 
Q 6.78125 9.90625 6.78125 20.515625 
Q 6.78125 27.484375 10.78125 32.3125 
Q 14.796875 37.15625 21.921875 38.8125 
z
M 18.3125 54.390625 
Q 18.3125 48.734375 21.84375 45.5625 
Q 25.390625 42.390625 31.78125 42.390625 
Q 38.140625 42.390625 41.71875 45.5625 
Q 45.3125 48.734375 45.3125 54.390625 
Q 45.3125 60.0625 41.71875 63.234375 
Q 38.140625 66.40625 31.78125 66.40625 
Q 25.390625 66.40625 21.84375 63.234375 
Q 18.3125 60.0625 18.3125 54.390625 
z
" id="DejaVuSans-56"/>
       </defs>
       <use xlink:href="#DejaVuSans-49"/>
       <use x="63.623047" xlink:href="#DejaVuSans-56"/>
       <use x="127.246094" xlink:href="#DejaVuSans-48"/>
       <use x="190.869141" xlink:href="#DejaVuSans-48"/>
      </g>
     </g>
    </g>
    <g id="ytick_2">
     <g id="line2d_6">
      <g>
       <use style="stroke:#000000;stroke-width:0.8;" x="53.328125" xlink:href="#m30ad4dac55" y="196.30786"/>
      </g>
     </g>
     <g id="text_7">
      <!-- 1850 -->
      <g transform="translate(20.878125 200.107079)scale(0.1 -0.1)">
       <defs>
        <path d="M 10.796875 72.90625 
L 49.515625 72.90625 
L 49.515625 64.59375 
L 19.828125 64.59375 
L 19.828125 46.734375 
Q 21.96875 47.46875 24.109375 47.828125 
Q 26.265625 48.1875 28.421875 48.1875 
Q 40.625 48.1875 47.75 41.5 
Q 54.890625 34.8125 54.890625 23.390625 
Q 54.890625 11.625 47.5625 5.09375 
Q 40.234375 -1.421875 26.90625 -1.421875 
Q 22.3125 -1.421875 17.546875 -0.640625 
Q 12.796875 0.140625 7.71875 1.703125 
L 7.71875 11.625 
Q 12.109375 9.234375 16.796875 8.0625 
Q 21.484375 6.890625 26.703125 6.890625 
Q 35.15625 6.890625 40.078125 11.328125 
Q 45.015625 15.765625 45.015625 23.390625 
Q 45.015625 31 40.078125 35.4375 
Q 35.15625 39.890625 26.703125 39.890625 
Q 22.75 39.890625 18.8125 39.015625 
Q 14.890625 38.140625 10.796875 36.28125 
z
" id="DejaVuSans-53"/>
       </defs>
       <use xlink:href="#DejaVuSans-49"/>
       <use x="63.623047" xlink:href="#DejaVuSans-56"/>
       <use x="127.246094" xlink:href="#DejaVuSans-53"/>
       <use x="190.869141" xlink:href="#DejaVuSans-48"/>
      </g>
     </g>
    </g>
    <g id="ytick_3">
     <g id="line2d_7">
      <g>
       <use style="stroke:#000000;stroke-width:0.8;" x="53.328125" xlink:href="#m30ad4dac55" y="145.140691"/>
      </g>
     </g>
     <g id="text_8">
      <!-- 1900 -->
      <g transform="translate(20.878125 148.93991)scale(0.1 -0.1)">
       <defs>
        <path d="M 10.984375 1.515625 
L 10.984375 10.5 
Q 14.703125 8.734375 18.5 7.8125 
Q 22.3125 6.890625 25.984375 6.890625 
Q 35.75 6.890625 40.890625 13.453125 
Q 46.046875 20.015625 46.78125 33.40625 
Q 43.953125 29.203125 39.59375 26.953125 
Q 35.25 24.703125 29.984375 24.703125 
Q 19.046875 24.703125 12.671875 31.3125 
Q 6.296875 37.9375 6.296875 49.421875 
Q 6.296875 60.640625 12.9375 67.421875 
Q 19.578125 74.21875 30.609375 74.21875 
Q 43.265625 74.21875 49.921875 64.515625 
Q 56.59375 54.828125 56.59375 36.375 
Q 56.59375 19.140625 48.40625 8.859375 
Q 40.234375 -1.421875 26.421875 -1.421875 
Q 22.703125 -1.421875 18.890625 -0.6875 
Q 15.09375 0.046875 10.984375 1.515625 
z
M 30.609375 32.421875 
Q 37.25 32.421875 41.125 36.953125 
Q 45.015625 41.5 45.015625 49.421875 
Q 45.015625 57.28125 41.125 61.84375 
Q 37.25 66.40625 30.609375 66.40625 
Q 23.96875 66.40625 20.09375 61.84375 
Q 16.21875 57.28125 16.21875 49.421875 
Q 16.21875 41.5 20.09375 36.953125 
Q 23.96875 32.421875 30.609375 32.421875 
z
" id="DejaVuSans-57"/>
       </defs>
       <use xlink:href="#DejaVuSans-49"/>
       <use x="63.623047" xlink:href="#DejaVuSans-57"/>
       <use x="127.246094" xlink:href="#DejaVuSans-48"/>
       <use x="190.869141" xlink:href="#DejaVuSans-48"/>
      </g>
     </g>
    </g>
    <g id="ytick_4">
     <g id="line2d_8">
      <g>
       <use style="stroke:#000000;stroke-width:0.8;" x="53.328125" xlink:href="#m30ad4dac55" y="93.973523"/>
      </g>
     </g>
     <g id="text_9">
      <!-- 1950 -->
      <g transform="translate(20.878125 97.772741)scale(0.1 -0.1)">
       <use xlink:href="#DejaVuSans-49"/>
       <use x="63.623047" xlink:href="#DejaVuSans-57"/>
       <use x="127.246094" xlink:href="#DejaVuSans-53"/>
       <use x="190.869141" xlink:href="#DejaVuSans-48"/>
      </g>
     </g>
    </g>
    <g id="ytick_5">
     <g id="line2d_9">
      <g>
       <use style="stroke:#000000;stroke-width:0.8;" x="53.328125" xlink:href="#m30ad4dac55" y="42.806354"/>
      </g>
     </g>
     <g id="text_10">
      <!-- 2000 -->
      <g transform="translate(20.878125 46.605573)scale(0.1 -0.1)">
       <use xlink:href="#DejaVuSans-50"/>
       <use x="63.623047" xlink:href="#DejaVuSans-48"/>
       <use x="127.246094" xlink:href="#DejaVuSans-48"/>
       <use x="190.869141" xlink:href="#DejaVuSans-48"/>
      </g>
     </g>
    </g>
    <g id="text_11">
     <!-- Reached edge coverage -->
     <g transform="translate(14.798438 215.82725)rotate(-90)scale(0.1 -0.1)">
      <defs>
       <path d="M 44.390625 34.1875 
Q 47.5625 33.109375 50.5625 29.59375 
Q 53.5625 26.078125 56.59375 19.921875 
L 66.609375 0 
L 56 0 
L 46.6875 18.703125 
Q 43.0625 26.03125 39.671875 28.421875 
Q 36.28125 30.8125 30.421875 30.8125 
L 19.671875 30.8125 
L 19.671875 0 
L 9.8125 0 
L 9.8125 72.90625 
L 32.078125 72.90625 
Q 44.578125 72.90625 50.734375 67.671875 
Q 56.890625 62.453125 56.890625 51.90625 
Q 56.890625 45.015625 53.6875 40.46875 
Q 50.484375 35.9375 44.390625 34.1875 
z
M 19.671875 64.796875 
L 19.671875 38.921875 
L 32.078125 38.921875 
Q 39.203125 38.921875 42.84375 42.21875 
Q 46.484375 45.515625 46.484375 51.90625 
Q 46.484375 58.296875 42.84375 61.546875 
Q 39.203125 64.796875 32.078125 64.796875 
z
" id="DejaVuSans-82"/>
      </defs>
      <use xlink:href="#DejaVuSans-82"/>
      <use x="64.982422" xlink:href="#DejaVuSans-101"/>
      <use x="126.505859" xlink:href="#DejaVuSans-97"/>
      <use x="187.785156" xlink:href="#DejaVuSans-99"/>
      <use x="242.765625" xlink:href="#DejaVuSans-104"/>
      <use x="306.144531" xlink:href="#DejaVuSans-101"/>
      <use x="367.667969" xlink:href="#DejaVuSans-100"/>
      <use x="431.144531" xlink:href="#DejaVuSans-32"/>
      <use x="462.931641" xlink:href="#DejaVuSans-101"/>
      <use x="524.455078" xlink:href="#DejaVuSans-100"/>
      <use x="587.931641" xlink:href="#DejaVuSans-103"/>
      <use x="651.408203" xlink:href="#DejaVuSans-101"/>
      <use x="712.931641" xlink:href="#DejaVuSans-32"/>
      <use x="744.71875" xlink:href="#DejaVuSans-99"/>
      <use x="799.699219" xlink:href="#DejaVuSans-111"/>
      <use x="860.880859" xlink:href="#DejaVuSans-118"/>
      <use x="920.060547" xlink:href="#DejaVuSans-101"/>
      <use x="981.583984" xlink:href="#DejaVuSans-114"/>
      <use x="1022.697266" xlink:href="#DejaVuSans-97"/>
      <use x="1083.976562" xlink:href="#DejaVuSans-103"/>
      <use x="1147.453125" xlink:href="#DejaVuSans-101"/>
     </g>
    </g>
   </g>
   <g id="line2d_10">
    <path clip-path="url(#p3750ff5ec8)" d="M 97.968125 207.564637 
L 97.968125 103.183613 
" style="fill:none;stroke:#3f3f3f;stroke-linecap:square;stroke-width:1.5;"/>
   </g>
   <g id="line2d_11">
    <path clip-path="url(#p3750ff5ec8)" d="M 97.968125 177.887679 
L 97.968125 107.276987 
" style="fill:none;stroke:#3f3f3f;stroke-linecap:square;stroke-width:4.5;"/>
   </g>
   <g id="line2d_12">
    <path clip-path="url(#p3750ff5ec8)" d="M 187.248125 153.327438 
L 187.248125 140.023974 
" style="fill:none;stroke:#3f3f3f;stroke-linecap:square;stroke-width:1.5;"/>
   </g>
   <g id="line2d_13">
    <path clip-path="url(#p3750ff5ec8)" d="M 187.248125 153.327438 
L 187.248125 140.023974 
" style="fill:none;stroke:#3f3f3f;stroke-linecap:square;stroke-width:4.5;"/>
   </g>
   <g id="line2d_14">
    <path clip-path="url(#p3750ff5ec8)" d="M 276.528125 176.864336 
L 276.528125 137.977288 
" style="fill:none;stroke:#3f3f3f;stroke-linecap:square;stroke-width:1.5;"/>
   </g>
   <g id="line2d_15">
    <path clip-path="url(#p3750ff5ec8)" d="M 276.528125 172.770962 
L 276.528125 141.047318 
" style="fill:none;stroke:#3f3f3f;stroke-linecap:square;stroke-width:4.5;"/>
   </g>
   <g id="line2d_16">
    <path clip-path="url(#p3750ff5ec8)" d="M 365.808125 176.864336 
L 365.808125 106.253643 
" style="fill:none;stroke:#3f3f3f;stroke-linecap:square;stroke-width:1.5;"/>
   </g>
   <g id="line2d_17">
    <path clip-path="url(#p3750ff5ec8)" d="M 365.808125 174.817649 
L 365.808125 140.023974 
" style="fill:none;stroke:#3f3f3f;stroke-linecap:square;stroke-width:4.5;"/>
   </g>
   <g id="patch_3">
    <path d="M 53.328125 247.475028 
L 53.328125 42.806354 
" style="fill:none;stroke:#000000;stroke-linecap:square;stroke-linejoin:miter;stroke-width:0.8;"/>
   </g>
   <g id="patch_4">
    <path d="M 97.968125 288.430125 
L 365.808125 288.430125 
" style="fill:none;stroke:#000000;stroke-linecap:square;stroke-linejoin:miter;stroke-width:0.8;"/>
   </g>
   <g id="PathCollection_1">
    <defs>
     <path d="M 0 1.5 
C 0.397805 1.5 0.77937 1.341951 1.06066 1.06066 
C 1.341951 0.77937 1.5 0.397805 1.5 0 
C 1.5 -0.397805 1.341951 -0.77937 1.06066 -1.06066 
C 0.77937 -1.341951 0.397805 -1.5 0 -1.5 
C -0.397805 -1.5 -0.77937 -1.341951 -1.06066 -1.06066 
C -1.341951 -0.77937 -1.5 -0.397805 -1.5 0 
C -1.5 0.397805 -1.341951 0.77937 -1.06066 1.06066 
C -0.77937 1.341951 -0.397805 1.5 0 1.5 
z
" id="m2ba8d18971" style="stroke:#3f3f3f;"/>
    </defs>
    <g clip-path="url(#p3750ff5ec8)">
     <use style="fill:#ffffff;stroke:#3f3f3f;" x="97.968125" xlink:href="#m2ba8d18971" y="115.463734"/>
    </g>
   </g>
   <g id="PathCollection_2">
    <g clip-path="url(#p3750ff5ec8)">
     <use style="fill:#ffffff;stroke:#3f3f3f;" x="187.248125" xlink:href="#m2ba8d18971" y="144.117348"/>
    </g>
   </g>
   <g id="PathCollection_3">
    <g clip-path="url(#p3750ff5ec8)">
     <use style="fill:#ffffff;stroke:#3f3f3f;" x="276.528125" xlink:href="#m2ba8d18971" y="147.187378"/>
    </g>
   </g>
   <g id="PathCollection_4">
    <g clip-path="url(#p3750ff5ec8)">
     <use style="fill:#ffffff;stroke:#3f3f3f;" x="365.808125" xlink:href="#m2ba8d18971" y="153.327438"/>
    </g>
   </g>
   <g id="text_12">
    <!-- libpng-1.2.56 (24h, 5 trials/fuzzer) -->
    <g transform="translate(129.164375 16.318125)scale(0.12 -0.12)">
     <defs>
      <path d="M 48.6875 27.296875 
Q 48.6875 37.203125 44.609375 42.84375 
Q 40.53125 48.484375 33.40625 48.484375 
Q 26.265625 48.484375 22.1875 42.84375 
Q 18.109375 37.203125 18.109375 27.296875 
Q 18.109375 17.390625 22.1875 11.75 
Q 26.265625 6.109375 33.40625 6.109375 
Q 40.53125 6.109375 44.609375 11.75 
Q 48.6875 17.390625 48.6875 27.296875 
z
M 18.109375 46.390625 
Q 20.953125 51.265625 25.265625 53.625 
Q 29.59375 56 35.59375 56 
Q 45.5625 56 51.78125 48.09375 
Q 58.015625 40.1875 58.015625 27.296875 
Q 58.015625 14.40625 51.78125 6.484375 
Q 45.5625 -1.421875 35.59375 -1.421875 
Q 29.59375 -1.421875 25.265625 0.953125 
Q 20.953125 3.328125 18.109375 8.203125 
L 18.109375 0 
L 9.078125 0 
L 9.078125 75.984375 
L 18.109375 75.984375 
z
" id="DejaVuSans-98"/>
      <path d="M 18.109375 8.203125 
L 18.109375 -20.796875 
L 9.078125 -20.796875 
L 9.078125 54.6875 
L 18.109375 54.6875 
L 18.109375 46.390625 
Q 20.953125 51.265625 25.265625 53.625 
Q 29.59375 56 35.59375 56 
Q 45.5625 56 51.78125 48.09375 
Q 58.015625 40.1875 58.015625 27.296875 
Q 58.015625 14.40625 51.78125 6.484375 
Q 45.5625 -1.421875 35.59375 -1.421875 
Q 29.59375 -1.421875 25.265625 0.953125 
Q 20.953125 3.328125 18.109375 8.203125 
z
M 48.6875 27.296875 
Q 48.6875 37.203125 44.609375 42.84375 
Q 40.53125 48.484375 33.40625 48.484375 
Q 26.265625 48.484375 22.1875 42.84375 
Q 18.109375 37.203125 18.109375 27.296875 
Q 18.109375 17.390625 22.1875 11.75 
Q 26.265625 6.109375 33.40625 6.109375 
Q 40.53125 6.109375 44.609375 11.75 
Q 48.6875 17.390625 48.6875 27.296875 
z
" id="DejaVuSans-112"/>
      <path d="M 4.890625 31.390625 
L 31.203125 31.390625 
L 31.203125 23.390625 
L 4.890625 23.390625 
z
" id="DejaVuSans-45"/>
      <path d="M 10.6875 12.40625 
L 21 12.40625 
L 21 0 
L 10.6875 0 
z
" id="DejaVuSans-46"/>
      <path d="M 33.015625 40.375 
Q 26.375 40.375 22.484375 35.828125 
Q 18.609375 31.296875 18.609375 23.390625 
Q 18.609375 15.53125 22.484375 10.953125 
Q 26.375 6.390625 33.015625 6.390625 
Q 39.65625 6.390625 43.53125 10.953125 
Q 47.40625 15.53125 47.40625 23.390625 
Q 47.40625 31.296875 43.53125 35.828125 
Q 39.65625 40.375 33.015625 40.375 
z
M 52.59375 71.296875 
L 52.59375 62.3125 
Q 48.875 64.0625 45.09375 64.984375 
Q 41.3125 65.921875 37.59375 65.921875 
Q 27.828125 65.921875 22.671875 59.328125 
Q 17.53125 52.734375 16.796875 39.40625 
Q 19.671875 43.65625 24.015625 45.921875 
Q 28.375 48.1875 33.59375 48.1875 
Q 44.578125 48.1875 50.953125 41.515625 
Q 57.328125 34.859375 57.328125 23.390625 
Q 57.328125 12.15625 50.6875 5.359375 
Q 44.046875 -1.421875 33.015625 -1.421875 
Q 20.359375 -1.421875 13.671875 8.265625 
Q 6.984375 17.96875 6.984375 36.375 
Q 6.984375 53.65625 15.1875 63.9375 
Q 23.390625 74.21875 37.203125 74.21875 
Q 40.921875 74.21875 44.703125 73.484375 
Q 48.484375 72.75 52.59375 71.296875 
z
" id="DejaVuSans-54"/>
      <path d="M 37.796875 64.3125 
L 12.890625 25.390625 
L 37.796875 25.390625 
z
M 35.203125 72.90625 
L 47.609375 72.90625 
L 47.609375 25.390625 
L 58.015625 25.390625 
L 58.015625 17.1875 
L 47.609375 17.1875 
L 47.609375 0 
L 37.796875 0 
L 37.796875 17.1875 
L 4.890625 17.1875 
L 4.890625 26.703125 
z
" id="DejaVuSans-52"/>
      <path d="M 11.71875 12.40625 
L 22.015625 12.40625 
L 22.015625 4 
L 14.015625 -11.625 
L 7.71875 -11.625 
L 11.71875 4 
z
" id="DejaVuSans-44"/>
      <path d="M 25.390625 72.90625 
L 33.6875 72.90625 
L 8.296875 -9.28125 
L 0 -9.28125 
z
" id="DejaVuSans-47"/>
     </defs>
     <use xlink:href="#DejaVuSans-108"/>
     <use x="27.783203" xlink:href="#DejaVuSans-105"/>
     <use x="55.566406" xlink:href="#DejaVuSans-98"/>
     <use x="119.042969" xlink:href="#DejaVuSans-112"/>
     <use x="182.519531" xlink:href="#DejaVuSans-110"/>
     <use x="245.898438" xlink:href="#DejaVuSans-103"/>
     <use x="309.375" xlink:href="#DejaVuSans-45"/>
     <use x="345.458984" xlink:href="#DejaVuSans-49"/>
     <use x="409.082031" xlink:href="#DejaVuSans-46"/>
     <use x="440.869141" xlink:href="#DejaVuSans-50"/>
     <use x="504.492188" xlink:href="#DejaVuSans-46"/>
     <use x="536.279297" xlink:href="#DejaVuSans-53"/>
     <use x="599.902344" xlink:href="#DejaVuSans-54"/>
     <use x="663.525391" xlink:href="#DejaVuSans-32"/>
     <use x="695.3125" xlink:href="#DejaVuSans-40"/>
     <use x="734.326172" xlink:href="#DejaVuSans-50"/>
     <use x="797.949219" xlink:href="#DejaVuSans-52"/>
     <use x="861.572266" xlink:href="#DejaVuSans-104"/>
     <use x="924.951172" xlink:href="#DejaVuSans-44"/>
     <use x="956.738281" xlink:href="#DejaVuSans-32"/>
     <use x="988.525391" xlink:href="#DejaVuSans-53"/>
     <use x="1052.148438" xlink:href="#DejaVuSans-32"/>
     <use x="1083.935547" xlink:href="#DejaVuSans-116"/>
     <use x="1123.144531" xlink:href="#DejaVuSans-114"/>
     <use x="1164.257812" xlink:href="#DejaVuSans-105"/>
     <use x="1192.041016" xlink:href="#DejaVuSans-97"/>
     <use x="1253.320312" xlink:href="#DejaVuSans-108"/>
     <use x="1281.103516" xlink:href="#DejaVuSans-115"/>
     <use x="1333.203125" xlink:href="#DejaVuSans-47"/>
     <use x="1366.894531" xlink:href="#DejaVuSans-102"/>
     <use x="1402.099609" xlink:href="#DejaVuSans-117"/>
     <use x="1465.478516" xlink:href="#DejaVuSans-122"/>
     <use x="1517.96875" xlink:href="#DejaVuSans-122"/>
     <use x="1570.458984" xlink:href="#DejaVuSans-101"/>
     <use x="1631.982422" xlink:href="#DejaVuSans-114"/>
     <use x="1673.095703" xlink:href="#DejaVuSans-41"/>
    </g>
   </g>
  </g>
 </g>
 <defs>
  <clipPath id="p3750ff5ec8">
   <rect height="266.112" width="357.12" x="53.328125" y="22.318125"/>
  </clipPath>
 </defs>
</svg>
