<?xml version="1.0" encoding="utf-8" standalone="no"?>
<!DOCTYPE svg PUBLIC "-//W3C//DTD SVG 1.1//EN"
  "http://www.w3.org/Graphics/SVG/1.1/DTD/svg11.dtd">
<!-- Created with matplotlib (https://matplotlib.org/) -->
<svg height="325.986375pt" version="1.1" viewBox="0 0 851.782187 325.986375" width="851.782187pt" xmlns="http://www.w3.org/2000/svg" xmlns:xlink="http://www.w3.org/1999/xlink">
 <metadata>
  <rdf:RDF xmlns:cc="http://creativecommons.org/ns#" xmlns:dc="http://purl.org/dc/elements/1.1/" xmlns:rdf="http://www.w3.org/1999/02/22-rdf-syntax-ns#">
   <cc:Work>
    <dc:type rdf:resource="http://purl.org/dc/dcmitype/StillImage"/>
    <dc:date>2020-08-26T11:45:39.754796</dc:date>
    <dc:format>image/svg+xml</dc:format>
    <dc:creator>
     <cc:Agent>
      <dc:title>Matplotlib v3.3.1, https://matplotlib.org/</dc:title>
     </cc:Agent>
    </dc:creator>
   </cc:Work>
  </rdf:RDF>
 </metadata>
 <defs>
  <style type="text/css">*{stroke-linecap:butt;stroke-linejoin:round;}</style>
 </defs>
 <g id="figure_1">
  <g id="patch_1">
   <path d="M 0 325.986375 
L 851.782187 325.986375 
L 851.782187 0 
L 0 0 
z
" style="fill:#ffffff;"/>
  </g>
  <g id="axes_1">
   <g id="patch_2">
    <path d="M 59.690625 288.430125 
L 773.930625 288.430125 
L 773.930625 22.318125 
L 59.690625 22.318125 
z
" style="fill:#ffffff;"/>
   </g>
   <g id="PolyCollection_1">
    <defs>
     <path d="M 92.15608 -90.81107 
L 92.15608 -49.65225 
L 98.990912 -55.247287 
L 105.825745 -75.75153 
L 112.660577 -81.000146 
L 119.49541 -84.606363 
L 126.330242 -85.568991 
L 133.165075 -84.621233 
L 139.999907 -89.20315 
L 146.83474 -91.183637 
L 153.669572 -91.87648 
L 160.504405 -93.497472 
L 167.339237 -98.912435 
L 174.17407 -100.151383 
L 181.008903 -102.322075 
L 187.843735 -110.34811 
L 194.678568 -134.989641 
L 201.5134 -140.349373 
L 208.348233 -148.331779 
L 215.183065 -163.912585 
L 222.017898 -165.638157 
L 228.85273 -169.225419 
L 235.687563 -167.801659 
L 242.522395 -176.358438 
L 249.357228 -177.043928 
L 256.19206 -175.926228 
L 263.026893 -182.03763 
L 269.861725 -181.671599 
L 276.696558 -182.083384 
L 283.531391 -184.632525 
L 290.366223 -186.29927 
L 297.201056 -188.175177 
L 304.035888 -191.136102 
L 310.870721 -191.234146 
L 317.705553 -193.561054 
L 324.540386 -194.809479 
L 331.375218 -197.763868 
L 338.210051 -201.450318 
L 345.044883 -201.247694 
L 351.879716 -205.587769 
L 358.714548 -208.006185 
L 365.549381 -213.09793 
L 372.384214 -217.405325 
L 379.219046 -219.706088 
L 386.053879 -219.758378 
L 392.888711 -219.914104 
L 399.723544 -220.67999 
L 406.558376 -221.059093 
L 413.393209 -221.209427 
L 420.228041 -222.457853 
L 427.062874 -222.823883 
L 433.897706 -225.32727 
L 440.732539 -226.327318 
L 447.567371 -227.723953 
L 454.402204 -227.887359 
L 461.237036 -229.085619 
L 468.071869 -231.345693 
L 474.906702 -231.915819 
L 481.741534 -232.079225 
L 488.576367 -230.327508 
L 495.411199 -232.497546 
L 502.246032 -234.752555 
L 509.080864 -235.340818 
L 515.915697 -235.745086 
L 522.750529 -236.00098 
L 529.585362 -236.190532 
L 536.420194 -236.706896 
L 543.255027 -237.134694 
L 550.089859 -237.589291 
L 556.924692 -239.079558 
L 563.759525 -239.524023 
L 570.594357 -241.511046 
L 577.42919 -241.981657 
L 584.264022 -242.537239 
L 591.098855 -243.112429 
L 597.933687 -243.295445 
L 604.76852 -245.923021 
L 611.603352 -247.119156 
L 618.438185 -247.210663 
L 625.273017 -247.831608 
L 632.10785 -248.12574 
L 638.942682 -248.844728 
L 645.777515 -251.367724 
L 652.612347 -251.021302 
L 659.44718 -251.021302 
L 666.282013 -251.674928 
L 673.116845 -252.223974 
L 679.951678 -253.184804 
L 686.78651 -253.341674 
L 693.621343 -253.45279 
L 700.456175 -253.83843 
L 707.291008 -253.773067 
L 714.12584 -254.498592 
L 720.960673 -254.877695 
L 727.795505 -254.838477 
L 734.630338 -255.524784 
L 741.46517 -255.881991 
L 741.46517 -291.57225 
L 741.46517 -291.57225 
L 734.630338 -291.251973 
L 727.795505 -290.774826 
L 720.960673 -290.448014 
L 714.12584 -290.029693 
L 707.291008 -289.787851 
L 700.456175 -289.644054 
L 693.621343 -288.957747 
L 686.78651 -288.387295 
L 679.951678 -287.794293 
L 673.116845 -287.3629 
L 666.282013 -286.71581 
L 659.44718 -285.885705 
L 652.612347 -285.232079 
L 645.777515 -284.624207 
L 638.942682 -283.120868 
L 632.10785 -285.110832 
L 625.273017 -281.957414 
L 618.438185 -283.656841 
L 611.603352 -281.689427 
L 604.76852 -280.486756 
L 597.933687 -277.087901 
L 591.098855 -277.47354 
L 584.264022 -271.688952 
L 577.42919 -271.55169 
L 570.594357 -271.460183 
L 563.759525 -270.69544 
L 556.924692 -270.610469 
L 550.089859 -270.009133 
L 543.255027 -269.484762 
L 536.420194 -268.969868 
L 529.585362 -267.355412 
L 522.750529 -266.79983 
L 515.915697 -266.786758 
L 509.080864 -266.100451 
L 502.246032 -265.917435 
L 495.411199 -265.536698 
L 488.576367 -265.002359 
L 481.741534 -264.98275 
L 474.906702 -263.518628 
L 468.071869 -261.825738 
L 461.237036 -259.766816 
L 454.402204 -259.753744 
L 447.567371 -259.583801 
L 440.732539 -254.269823 
L 433.897706 -253.8399 
L 427.062874 -252.446207 
L 420.228041 -251.472304 
L 413.393209 -246.475334 
L 406.558376 -244.981799 
L 399.723544 -241.700598 
L 392.888711 -242.249643 
L 386.053879 -240.860362 
L 379.219046 -240.471781 
L 372.384214 -240.661332 
L 365.549381 -239.615531 
L 358.714548 -238.380178 
L 351.879716 -237.829008 
L 345.044883 -237.399739 
L 338.210051 -237.321304 
L 331.375218 -235.353891 
L 324.540386 -234.634902 
L 317.705553 -234.151219 
L 310.870721 -234.353843 
L 304.035888 -226.641058 
L 297.201056 -220.634236 
L 290.366223 -217.856327 
L 283.531391 -217.699456 
L 276.696558 -216.477176 
L 269.861725 -216.300697 
L 263.026893 -215.250647 
L 256.19206 -210.02932 
L 249.357228 -209.588286 
L 242.522395 -209.404944 
L 235.687563 -206.483237 
L 228.85273 -203.07131 
L 222.017898 -204.326271 
L 215.183065 -201.711768 
L 208.348233 -198.770452 
L 201.5134 -195.992542 
L 194.678568 -193.057762 
L 187.843735 -187.75032 
L 181.008903 -179.991781 
L 174.17407 -175.442545 
L 167.339237 -174.344454 
L 160.504405 -173.645074 
L 153.669572 -164.618501 
L 146.83474 -161.520314 
L 139.999907 -158.043025 
L 133.165075 -153.303911 
L 126.330242 -147.179763 
L 119.49541 -143.630575 
L 112.660577 -131.305806 
L 105.825745 -122.975998 
L 98.990912 -101.569751 
L 92.15608 -90.81107 
z
" id="m33d13dedad" style="stroke:#1f77b4;stroke-opacity:0.2;"/>
    </defs>
    <g clip-path="url(#p257bad8bf0)">
     <use style="fill:#1f77b4;fill-opacity:0.2;stroke:#1f77b4;stroke-opacity:0.2;" x="0" xlink:href="#m33d13dedad" y="325.986375"/>
    </g>
   </g>
   <g id="PolyCollection_2">
    <defs>
     <path d="M 92.15608 -106.596134 
L 92.15608 -59.698479 
L 98.990912 -86.523284 
L 105.825745 -96.8375 
L 112.660577 -101.648186 
L 119.49541 -102.818177 
L 126.330242 -105.216984 
L 133.165075 -109.491697 
L 139.999907 -109.811973 
L 146.83474 -110.596324 
L 153.669572 -109.393653 
L 160.504405 -110.844702 
L 167.339237 -117.282917 
L 174.17407 -124.341913 
L 181.008903 -127.100377 
L 187.843735 -133.499374 
L 194.678568 -142.120699 
L 201.5134 -143.461449 
L 208.348233 -145.748323 
L 215.183065 -148.232101 
L 222.017898 -147.428141 
L 228.85273 -151.659388 
L 235.687563 -152.317262 
L 242.522395 -162.727561 
L 249.357228 -163.50603 
L 256.19206 -171.52079 
L 263.026893 -172.399753 
L 269.861725 -174.390207 
L 276.696558 -175.194167 
L 283.531391 -176.030808 
L 290.366223 -176.135388 
L 297.201056 -177.159784 
L 304.035888 -178.385495 
L 310.870721 -178.956928 
L 317.705553 -181.344786 
L 324.540386 -182.063775 
L 331.375218 -181.279424 
L 338.210051 -183.313998 
L 345.044883 -186.554185 
L 351.879716 -187.20781 
L 358.714548 -187.59345 
L 365.549381 -190.364823 
L 372.384214 -189.456283 
L 379.219046 -191.443306 
L 386.053879 -196.794868 
L 392.888711 -196.927227 
L 399.723544 -197.519248 
L 406.558376 -198.280232 
L 413.393209 -199.005757 
L 420.228041 -199.960051 
L 427.062874 -200.567923 
L 433.897706 -207.824804 
L 440.732539 -207.901605 
L 447.567371 -208.300317 
L 454.402204 -209.496452 
L 461.237036 -209.672931 
L 468.071869 -209.843691 
L 474.906702 -211.490011 
L 481.741534 -211.025936 
L 488.576367 -211.261242 
L 495.411199 -212.535812 
L 502.246032 -212.104419 
L 509.080864 -212.333188 
L 515.915697 -213.614295 
L 522.750529 -213.614295 
L 529.585362 -214.143732 
L 536.420194 -214.490153 
L 543.255027 -213.372453 
L 550.089859 -215.424838 
L 556.924692 -215.856231 
L 563.759525 -216.57522 
L 570.594357 -216.65774 
L 577.42919 -216.451031 
L 584.264022 -216.730619 
L 591.098855 -217.359571 
L 597.933687 -218.091632 
L 604.76852 -218.581198 
L 611.603352 -219.19626 
L 618.438185 -223.09187 
L 625.273017 -223.202986 
L 632.10785 -222.934999 
L 638.942682 -223.837003 
L 645.777515 -223.987337 
L 652.612347 -224.786558 
L 659.44718 -224.163816 
L 666.282013 -225.686764 
L 673.116845 -227.007088 
L 679.951678 -227.288148 
L 686.78651 -225.837098 
L 693.621343 -227.536525 
L 700.456175 -227.543062 
L 707.291008 -227.941773 
L 714.12584 -229.850361 
L 720.960673 -231.606817 
L 727.795505 -231.432135 
L 734.630338 -231.79163 
L 741.46517 -231.778557 
L 741.46517 -279.392586 
L 741.46517 -279.392586 
L 734.630338 -278.76772 
L 727.795505 -279.571679 
L 720.960673 -279.67626 
L 714.12584 -276.689189 
L 707.291008 -277.728454 
L 700.456175 -273.708655 
L 693.621343 -271.780459 
L 686.78651 -271.75987 
L 679.951678 -270.264047 
L 673.116845 -267.986651 
L 666.282013 -268.368532 
L 659.44718 -270.43399 
L 652.612347 -269.250927 
L 645.777515 -268.081917 
L 638.942682 -268.418208 
L 632.10785 -264.603647 
L 625.273017 -264.07421 
L 618.438185 -263.753934 
L 611.603352 -263.237569 
L 604.76852 -263.106844 
L 597.933687 -261.47278 
L 591.098855 -259.682825 
L 584.264022 -257.89091 
L 577.42919 -256.412735 
L 570.594357 -255.648973 
L 563.759525 -255.152218 
L 556.924692 -254.105109 
L 550.089859 -253.557371 
L 543.255027 -253.511617 
L 536.420194 -253.237094 
L 529.585362 -249.524499 
L 522.750529 -251.361188 
L 515.915697 -249.112715 
L 509.080864 -241.687525 
L 502.246032 -241.582945 
L 495.411199 -238.661237 
L 488.576367 -235.177412 
L 481.741534 -235.177412 
L 474.906702 -234.765627 
L 468.071869 -232.189524 
L 461.237036 -232.987765 
L 454.402204 -231.641296 
L 447.567371 -231.556324 
L 440.732539 -230.471305 
L 433.897706 -230.098739 
L 427.062874 -219.725696 
L 420.228041 -217.804036 
L 413.393209 -215.542491 
L 406.558376 -215.032663 
L 399.723544 -215.35294 
L 392.888711 -213.267873 
L 386.053879 -214.607806 
L 379.219046 -213.280946 
L 372.384214 -212.005231 
L 365.549381 -211.208952 
L 358.714548 -211.117444 
L 351.879716 -208.587095 
L 345.044883 -210.725268 
L 338.210051 -208.710957 
L 331.375218 -206.528991 
L 324.540386 -209.176175 
L 317.705553 -208.529086 
L 310.870721 -204.685766 
L 304.035888 -205.476653 
L 297.201056 -200.476415 
L 290.366223 -200.058095 
L 283.531391 -200.03195 
L 276.696558 -196.718066 
L 269.861725 -196.110194 
L 263.026893 -194.521884 
L 256.19206 -193.332285 
L 249.357228 -190.338678 
L 242.522395 -187.247028 
L 235.687563 -179.292401 
L 228.85273 -179.120988 
L 222.017898 -176.547173 
L 215.183065 -174.776337 
L 208.348233 -173.403559 
L 201.5134 -171.41621 
L 194.678568 -169.619229 
L 187.843735 -167.83434 
L 181.008903 -161.069313 
L 174.17407 -157.114876 
L 167.339237 -154.415401 
L 160.504405 -153.899037 
L 153.669572 -153.291165 
L 146.83474 -153.173512 
L 139.999907 -149.748513 
L 133.165075 -146.42123 
L 126.330242 -140.020436 
L 119.49541 -143.545604 
L 112.660577 -139.836277 
L 105.825745 -137.545318 
L 98.990912 -122.505387 
L 92.15608 -106.596134 
z
" id="m5a7646a181" style="stroke:#aec7e8;stroke-opacity:0.2;"/>
    </defs>
    <g clip-path="url(#p257bad8bf0)">
     <use style="fill:#aec7e8;fill-opacity:0.2;stroke:#aec7e8;stroke-opacity:0.2;" x="0" xlink:href="#m5a7646a181" y="325.986375"/>
    </g>
   </g>
   <g id="PolyCollection_3">
    <defs>
     <path d="M 92.15608 -105.203911 
L 92.15608 -56.188509 
L 98.990912 -75.64695 
L 105.825745 -89.340412 
L 112.660577 -117.093365 
L 119.49541 -121.747181 
L 126.330242 -121.799471 
L 133.165075 -123.891074 
L 139.999907 -124.546497 
L 146.83474 -124.139452 
L 153.669572 -125.028383 
L 160.504405 -126.767028 
L 167.339237 -131.381626 
L 174.17407 -134.087637 
L 181.008903 -134.153 
L 187.843735 -138.74799 
L 194.678568 -150.389066 
L 201.5134 -151.683245 
L 208.348233 -152.271509 
L 215.183065 -154.114734 
L 222.017898 -156.507004 
L 228.85273 -160.879761 
L 235.687563 -161.31769 
L 242.522395 -163.52041 
L 249.357228 -167.429092 
L 256.19206 -169.233099 
L 263.026893 -170.45538 
L 269.861725 -170.618786 
L 276.696558 -172.233242 
L 283.531391 -174.456224 
L 290.366223 -176.122316 
L 297.201056 -177.311915 
L 304.035888 -179.834911 
L 310.870721 -180.253231 
L 317.705553 -181.299033 
L 324.540386 -186.181618 
L 331.375218 -191.926989 
L 338.210051 -192.358382 
L 345.044883 -192.750558 
L 351.879716 -193.347318 
L 358.714548 -193.587199 
L 365.549381 -195.495786 
L 372.384214 -196.3455 
L 379.219046 -196.972981 
L 386.053879 -197.437055 
L 392.888711 -196.855328 
L 399.723544 -198.025318 
L 406.558376 -198.234478 
L 413.393209 -198.051463 
L 420.228041 -198.665872 
L 427.062874 -198.430566 
L 433.897706 -199.515585 
L 440.732539 -200.260719 
L 447.567371 -200.358762 
L 454.402204 -200.541778 
L 461.237036 -203.411195 
L 468.071869 -206.091061 
L 474.906702 -207.640154 
L 481.741534 -208.359143 
L 488.576367 -205.823075 
L 495.411199 -209.483379 
L 502.246032 -210.674122 
L 509.080864 -210.688175 
L 515.915697 -212.490058 
L 522.750529 -213.124075 
L 529.585362 -212.999886 
L 536.420194 -213.463961 
L 543.255027 -213.228655 
L 550.089859 -214.562052 
L 556.924692 -214.692777 
L 563.759525 -214.169877 
L 570.594357 -216.228798 
L 577.42919 -222.953791 
L 584.264022 -223.634379 
L 591.098855 -226.817537 
L 597.933687 -226.634522 
L 604.76852 -227.791439 
L 611.603352 -228.255514 
L 618.438185 -229.477794 
L 625.273017 -229.347069 
L 632.10785 -230.046449 
L 638.942682 -230.046449 
L 645.777515 -231.236048 
L 652.612347 -232.20995 
L 659.44718 -231.96435 
L 666.282013 -231.745876 
L 673.116845 -233.194474 
L 679.951678 -234.421493 
L 686.78651 -234.700265 
L 693.621343 -234.929034 
L 700.456175 -236.085952 
L 707.291008 -233.915914 
L 714.12584 -234.157755 
L 720.960673 -235.432326 
L 727.795505 -238.441129 
L 734.630338 -239.504415 
L 741.46517 -238.955369 
L 741.46517 -259.91715 
L 741.46517 -259.91715 
L 734.630338 -259.557656 
L 727.795505 -258.721015 
L 720.960673 -258.054316 
L 714.12584 -257.466053 
L 707.291008 -257.337452 
L 700.456175 -257.13826 
L 693.621343 -256.505223 
L 686.78651 -256.570586 
L 679.951678 -256.191483 
L 673.116845 -255.845061 
L 666.282013 -255.7078 
L 659.44718 -255.309088 
L 652.612347 -255.211044 
L 645.777515 -254.374403 
L 638.942682 -252.210901 
L 632.10785 -251.871016 
L 625.273017 -250.949403 
L 618.438185 -250.923258 
L 611.603352 -250.62259 
L 604.76852 -250.158516 
L 597.933687 -250.341531 
L 591.098855 -250.15198 
L 584.264022 -247.491723 
L 577.42919 -246.766198 
L 570.594357 -246.635473 
L 563.759525 -246.76244 
L 556.924692 -246.550501 
L 550.089859 -246.112572 
L 543.255027 -245.034089 
L 536.420194 -242.288861 
L 529.585362 -241.491437 
L 522.750529 -241.5568 
L 515.915697 -241.532616 
L 509.080864 -235.8964 
L 502.246032 -235.255847 
L 495.411199 -234.949786 
L 488.576367 -234.438814 
L 481.741534 -234.458423 
L 474.906702 -231.850456 
L 468.071869 -232.702621 
L 461.237036 -229.235953 
L 454.402204 -226.346926 
L 447.567371 -225.987432 
L 440.732539 -225.144255 
L 433.897706 -218.86291 
L 427.062874 -216.745163 
L 420.228041 -214.071833 
L 413.393209 -214.516298 
L 406.558376 -214.647024 
L 399.723544 -214.509762 
L 392.888711 -213.182902 
L 386.053879 -214.019543 
L 379.219046 -211.686098 
L 372.384214 -210.888675 
L 365.549381 -210.764486 
L 358.714548 -205.522407 
L 351.879716 -205.09755 
L 345.044883 -204.470069 
L 338.210051 -203.568065 
L 331.375218 -202.901367 
L 324.540386 -202.535663 
L 317.705553 -201.626797 
L 310.870721 -201.247694 
L 304.035888 -199.992732 
L 297.201056 -198.855423 
L 290.366223 -197.77694 
L 283.531391 -196.123267 
L 276.696558 -195.373722 
L 269.861725 -192.953182 
L 263.026893 -191.985815 
L 256.19206 -190.846219 
L 249.357228 -189.037963 
L 242.522395 -188.521598 
L 235.687563 -187.318927 
L 228.85273 -187.077085 
L 222.017898 -184.547553 
L 215.183065 -181.253279 
L 208.348233 -179.193377 
L 201.5134 -175.919692 
L 194.678568 -172.024082 
L 187.843735 -170.448844 
L 181.008903 -162.108578 
L 174.17407 -159.113337 
L 167.339237 -155.513493 
L 160.504405 -150.245268 
L 153.669572 -147.879143 
L 146.83474 -143.173037 
L 139.999907 -144.088113 
L 133.165075 -137.08778 
L 126.330242 -136.211921 
L 119.49541 -134.571321 
L 112.660577 -133.447084 
L 105.825745 -125.695082 
L 98.990912 -119.335302 
L 92.15608 -105.203911 
z
" id="m81999fec8a" style="stroke:#ffbb78;stroke-opacity:0.2;"/>
    </defs>
    <g clip-path="url(#p257bad8bf0)">
     <use style="fill:#ffbb78;fill-opacity:0.2;stroke:#ffbb78;stroke-opacity:0.2;" x="0" xlink:href="#m81999fec8a" y="325.986375"/>
    </g>
   </g>
   <g id="PolyCollection_4">
    <defs>
     <path d="M 92.15608 -127.551379 
L 92.15608 -81.261433 
L 98.990912 -113.776541 
L 105.825745 -114.112831 
L 112.660577 -116.603146 
L 119.49541 -117.355796 
L 126.330242 -116.85806 
L 133.165075 -114.668413 
L 139.999907 -117.498613 
L 146.83474 -119.79284 
L 153.669572 -122.211256 
L 160.504405 -119.79284 
L 167.339237 -126.048039 
L 174.17407 -131.473134 
L 181.008903 -136.244603 
L 187.843735 -137.303477 
L 194.678568 -141.623944 
L 201.5134 -145.73525 
L 208.348233 -146.793634 
L 215.183065 -150.078921 
L 222.017898 -149.375946 
L 228.85273 -153.833674 
L 235.687563 -156.598512 
L 242.522395 -157.206384 
L 249.357228 -159.402567 
L 256.19206 -159.720392 
L 263.026893 -160.088874 
L 269.861725 -163.507337 
L 276.696558 -164.285152 
L 283.531391 -164.625037 
L 290.366223 -166.082623 
L 297.201056 -170.187393 
L 304.035888 -174.252946 
L 310.870721 -175.834721 
L 317.705553 -179.074907 
L 324.540386 -178.187774 
L 331.375218 -176.873986 
L 338.210051 -187.469261 
L 345.044883 -187.240492 
L 351.879716 -188.018306 
L 358.714548 -193.820216 
L 365.549381 -194.679081 
L 372.384214 -195.327968 
L 379.219046 -196.757284 
L 386.053879 -196.535051 
L 392.888711 -198.770452 
L 399.723544 -200.580995 
L 406.558376 -199.809717 
L 413.393209 -202.123552 
L 420.228041 -203.012483 
L 427.062874 -204.094888 
L 433.897706 -204.313199 
L 440.732539 -204.94068 
L 447.567371 -208.934334 
L 454.402204 -208.529086 
L 461.237036 -210.333093 
L 468.071869 -210.666442 
L 474.906702 -211.346213 
L 481.741534 -212.039056 
L 488.576367 -213.424743 
L 495.411199 -212.372406 
L 502.246032 -210.640297 
L 509.080864 -212.843016 
L 515.915697 -213.586679 
L 522.750529 -213.398598 
L 529.585362 -213.457425 
L 536.420194 -214.540809 
L 543.255027 -215.745115 
L 550.089859 -214.666632 
L 556.924692 -213.58815 
L 563.759525 -215.503273 
L 570.594357 -215.424838 
L 577.42919 -217.248454 
L 584.264022 -217.84832 
L 591.098855 -215.712434 
L 597.933687 -216.745163 
L 604.76852 -217.058903 
L 611.603352 -216.875888 
L 618.438185 -222.934999 
L 625.273017 -220.549265 
L 632.10785 -220.849933 
L 638.942682 -221.215963 
L 645.777515 -224.935094 
L 652.612347 -229.700027 
L 659.44718 -229.915723 
L 666.282013 -231.203366 
L 673.116845 -230.320971 
L 679.951678 -230.334044 
L 686.78651 -232.397868 
L 693.621343 -232.676639 
L 700.456175 -230.536668 
L 707.291008 -230.58569 
L 714.12584 -230.814459 
L 720.960673 -231.141272 
L 727.795505 -233.298237 
L 734.630338 -233.298237 
L 741.46517 -233.404451 
L 741.46517 -247.694347 
L 741.46517 -247.694347 
L 734.630338 -247.073402 
L 727.795505 -247.073402 
L 720.960673 -245.619085 
L 714.12584 -245.341294 
L 707.291008 -244.883755 
L 700.456175 -244.867415 
L 693.621343 -277.231699 
L 686.78651 -277.179409 
L 679.951678 -277.140191 
L 673.116845 -275.702214 
L 666.282013 -262.381319 
L 659.44718 -262.172159 
L 652.612347 -261.113285 
L 645.777515 -261.126358 
L 638.942682 -260.551167 
L 632.10785 -260.165528 
L 625.273017 -259.616482 
L 618.438185 -261.68194 
L 611.603352 -258.656306 
L 604.76852 -260.472732 
L 597.933687 -257.479126 
L 591.098855 -254.133378 
L 584.264022 -256.17841 
L 577.42919 -256.015004 
L 570.594357 -255.871206 
L 563.759525 -254.675071 
L 556.924692 -253.597732 
L 550.089859 -253.478935 
L 543.255027 -254.537809 
L 536.420194 -253.420109 
L 529.585362 -254.478983 
L 522.750529 -251.851407 
L 515.915697 -252.406989 
L 509.080864 -250.967541 
L 502.246032 -252.047495 
L 495.411199 -245.792295 
L 488.576367 -246.668154 
L 481.741534 -245.635425 
L 474.906702 -245.511236 
L 468.071869 -245.45241 
L 461.237036 -245.890339 
L 454.402204 -246.040673 
L 447.567371 -243.668175 
L 440.732539 -240.4391 
L 433.897706 -240.609042 
L 427.062874 -237.0141 
L 420.228041 -238.706991 
L 413.393209 -238.51744 
L 406.558376 -236.360474 
L 399.723544 -236.255894 
L 392.888711 -237.811524 
L 386.053879 -234.203509 
L 379.219046 -233.674072 
L 372.384214 -235.817965 
L 365.549381 -231.484426 
L 358.714548 -231.543252 
L 351.879716 -228.242441 
L 345.044883 -227.601888 
L 338.210051 -227.932459 
L 331.375218 -222.255228 
L 324.540386 -223.183377 
L 317.705553 -221.281326 
L 310.870721 -220.6277 
L 304.035888 -219.843349 
L 297.201056 -217.111193 
L 290.366223 -216.048888 
L 283.531391 -215.313722 
L 276.696558 -213.802539 
L 269.861725 -213.058713 
L 263.026893 -210.148444 
L 256.19206 -209.169639 
L 249.357228 -208.797072 
L 242.522395 -204.463533 
L 235.687563 -206.306758 
L 228.85273 -201.071215 
L 222.017898 -200.221501 
L 215.183065 -197.721709 
L 208.348233 -195.783382 
L 201.5134 -194.642151 
L 194.678568 -193.175414 
L 187.843735 -194.012055 
L 181.008903 -191.162247 
L 174.17407 -190.495548 
L 167.339237 -184.456046 
L 160.504405 -178.881924 
L 153.669572 -178.658384 
L 146.83474 -177.972077 
L 139.999907 -173.618929 
L 133.165075 -170.069741 
L 126.330242 -168.520647 
L 119.49541 -169.867117 
L 112.660577 -167.285294 
L 105.825745 -148.39469 
L 98.990912 -137.015881 
L 92.15608 -127.551379 
z
" id="m9582eb28ef" style="stroke:#ff7f0e;stroke-opacity:0.2;"/>
    </defs>
    <g clip-path="url(#p257bad8bf0)">
     <use style="fill:#ff7f0e;fill-opacity:0.2;stroke:#ff7f0e;stroke-opacity:0.2;" x="0" xlink:href="#m9582eb28ef" y="325.986375"/>
    </g>
   </g>
   <g id="matplotlib.axis_1">
    <g id="xtick_1">
     <g id="line2d_1">
      <defs>
       <path d="M 0 0 
L 0 3.5 
" id="m97b2a4d426" style="stroke:#000000;stroke-width:0.8;"/>
      </defs>
      <g>
       <use style="stroke:#000000;stroke-width:0.8;" x="92.15608" xlink:href="#m97b2a4d426" y="288.430125"/>
      </g>
     </g>
     <g id="text_1">
      <!-- 15m -->
      <g transform="translate(80.923267 303.028562)scale(0.1 -0.1)">
       <defs>
        <path d="M 12.40625 8.296875 
L 28.515625 8.296875 
L 28.515625 63.921875 
L 10.984375 60.40625 
L 10.984375 69.390625 
L 28.421875 72.90625 
L 38.28125 72.90625 
L 38.28125 8.296875 
L 54.390625 8.296875 
L 54.390625 0 
L 12.40625 0 
z
" id="DejaVuSans-49"/>
        <path d="M 10.796875 72.90625 
L 49.515625 72.90625 
L 49.515625 64.59375 
L 19.828125 64.59375 
L 19.828125 46.734375 
Q 21.96875 47.46875 24.109375 47.828125 
Q 26.265625 48.1875 28.421875 48.1875 
Q 40.625 48.1875 47.75 41.5 
Q 54.890625 34.8125 54.890625 23.390625 
Q 54.890625 11.625 47.5625 5.09375 
Q 40.234375 -1.421875 26.90625 -1.421875 
Q 22.3125 -1.421875 17.546875 -0.640625 
Q 12.796875 0.140625 7.71875 1.703125 
L 7.71875 11.625 
Q 12.109375 9.234375 16.796875 8.0625 
Q 21.484375 6.890625 26.703125 6.890625 
Q 35.15625 6.890625 40.078125 11.328125 
Q 45.015625 15.765625 45.015625 23.390625 
Q 45.015625 31 40.078125 35.4375 
Q 35.15625 39.890625 26.703125 39.890625 
Q 22.75 39.890625 18.8125 39.015625 
Q 14.890625 38.140625 10.796875 36.28125 
z
" id="DejaVuSans-53"/>
        <path d="M 52 44.1875 
Q 55.375 50.25 60.0625 53.125 
Q 64.75 56 71.09375 56 
Q 79.640625 56 84.28125 50.015625 
Q 88.921875 44.046875 88.921875 33.015625 
L 88.921875 0 
L 79.890625 0 
L 79.890625 32.71875 
Q 79.890625 40.578125 77.09375 44.375 
Q 74.3125 48.1875 68.609375 48.1875 
Q 61.625 48.1875 57.5625 43.546875 
Q 53.515625 38.921875 53.515625 30.90625 
L 53.515625 0 
L 44.484375 0 
L 44.484375 32.71875 
Q 44.484375 40.625 41.703125 44.40625 
Q 38.921875 48.1875 33.109375 48.1875 
Q 26.21875 48.1875 22.15625 43.53125 
Q 18.109375 38.875 18.109375 30.90625 
L 18.109375 0 
L 9.078125 0 
L 9.078125 54.6875 
L 18.109375 54.6875 
L 18.109375 46.1875 
Q 21.1875 51.21875 25.484375 53.609375 
Q 29.78125 56 35.6875 56 
Q 41.65625 56 45.828125 52.96875 
Q 50 49.953125 52 44.1875 
z
" id="DejaVuSans-109"/>
       </defs>
       <use xlink:href="#DejaVuSans-49"/>
       <use x="63.623047" xlink:href="#DejaVuSans-53"/>
       <use x="127.246094" xlink:href="#DejaVuSans-109"/>
      </g>
     </g>
    </g>
    <g id="xtick_2">
     <g id="line2d_2">
      <g>
       <use style="stroke:#000000;stroke-width:0.8;" x="146.83474" xlink:href="#m97b2a4d426" y="288.430125"/>
      </g>
     </g>
     <g id="text_2">
      <!-- 2h:15m -->
      <g transform="translate(127.567552 303.028562)scale(0.1 -0.1)">
       <defs>
        <path d="M 19.1875 8.296875 
L 53.609375 8.296875 
L 53.609375 0 
L 7.328125 0 
L 7.328125 8.296875 
Q 12.9375 14.109375 22.625 23.890625 
Q 32.328125 33.6875 34.8125 36.53125 
Q 39.546875 41.84375 41.421875 45.53125 
Q 43.3125 49.21875 43.3125 52.78125 
Q 43.3125 58.59375 39.234375 62.25 
Q 35.15625 65.921875 28.609375 65.921875 
Q 23.96875 65.921875 18.8125 64.3125 
Q 13.671875 62.703125 7.8125 59.421875 
L 7.8125 69.390625 
Q 13.765625 71.78125 18.9375 73 
Q 24.125 74.21875 28.421875 74.21875 
Q 39.75 74.21875 46.484375 68.546875 
Q 53.21875 62.890625 53.21875 53.421875 
Q 53.21875 48.921875 51.53125 44.890625 
Q 49.859375 40.875 45.40625 35.40625 
Q 44.1875 33.984375 37.640625 27.21875 
Q 31.109375 20.453125 19.1875 8.296875 
z
" id="DejaVuSans-50"/>
        <path d="M 54.890625 33.015625 
L 54.890625 0 
L 45.90625 0 
L 45.90625 32.71875 
Q 45.90625 40.484375 42.875 44.328125 
Q 39.84375 48.1875 33.796875 48.1875 
Q 26.515625 48.1875 22.3125 43.546875 
Q 18.109375 38.921875 18.109375 30.90625 
L 18.109375 0 
L 9.078125 0 
L 9.078125 75.984375 
L 18.109375 75.984375 
L 18.109375 46.1875 
Q 21.34375 51.125 25.703125 53.5625 
Q 30.078125 56 35.796875 56 
Q 45.21875 56 50.046875 50.171875 
Q 54.890625 44.34375 54.890625 33.015625 
z
" id="DejaVuSans-104"/>
        <path d="M 11.71875 12.40625 
L 22.015625 12.40625 
L 22.015625 0 
L 11.71875 0 
z
M 11.71875 51.703125 
L 22.015625 51.703125 
L 22.015625 39.3125 
L 11.71875 39.3125 
z
" id="DejaVuSans-58"/>
       </defs>
       <use xlink:href="#DejaVuSans-50"/>
       <use x="63.623047" xlink:href="#DejaVuSans-104"/>
       <use x="127.001953" xlink:href="#DejaVuSans-58"/>
       <use x="160.693359" xlink:href="#DejaVuSans-49"/>
       <use x="224.316406" xlink:href="#DejaVuSans-53"/>
       <use x="287.939453" xlink:href="#DejaVuSans-109"/>
      </g>
     </g>
    </g>
    <g id="xtick_3">
     <g id="line2d_3">
      <g>
       <use style="stroke:#000000;stroke-width:0.8;" x="201.5134" xlink:href="#m97b2a4d426" y="288.430125"/>
      </g>
     </g>
     <g id="text_3">
      <!-- 4h:15m -->
      <g transform="translate(182.246213 303.028562)scale(0.1 -0.1)">
       <defs>
        <path d="M 37.796875 64.3125 
L 12.890625 25.390625 
L 37.796875 25.390625 
z
M 35.203125 72.90625 
L 47.609375 72.90625 
L 47.609375 25.390625 
L 58.015625 25.390625 
L 58.015625 17.1875 
L 47.609375 17.1875 
L 47.609375 0 
L 37.796875 0 
L 37.796875 17.1875 
L 4.890625 17.1875 
L 4.890625 26.703125 
z
" id="DejaVuSans-52"/>
       </defs>
       <use xlink:href="#DejaVuSans-52"/>
       <use x="63.623047" xlink:href="#DejaVuSans-104"/>
       <use x="127.001953" xlink:href="#DejaVuSans-58"/>
       <use x="160.693359" xlink:href="#DejaVuSans-49"/>
       <use x="224.316406" xlink:href="#DejaVuSans-53"/>
       <use x="287.939453" xlink:href="#DejaVuSans-109"/>
      </g>
     </g>
    </g>
    <g id="xtick_4">
     <g id="line2d_4">
      <g>
       <use style="stroke:#000000;stroke-width:0.8;" x="256.19206" xlink:href="#m97b2a4d426" y="288.430125"/>
      </g>
     </g>
     <g id="text_4">
      <!-- 6h:15m -->
      <g transform="translate(236.924873 303.028562)scale(0.1 -0.1)">
       <defs>
        <path d="M 33.015625 40.375 
Q 26.375 40.375 22.484375 35.828125 
Q 18.609375 31.296875 18.609375 23.390625 
Q 18.609375 15.53125 22.484375 10.953125 
Q 26.375 6.390625 33.015625 6.390625 
Q 39.65625 6.390625 43.53125 10.953125 
Q 47.40625 15.53125 47.40625 23.390625 
Q 47.40625 31.296875 43.53125 35.828125 
Q 39.65625 40.375 33.015625 40.375 
z
M 52.59375 71.296875 
L 52.59375 62.3125 
Q 48.875 64.0625 45.09375 64.984375 
Q 41.3125 65.921875 37.59375 65.921875 
Q 27.828125 65.921875 22.671875 59.328125 
Q 17.53125 52.734375 16.796875 39.40625 
Q 19.671875 43.65625 24.015625 45.921875 
Q 28.375 48.1875 33.59375 48.1875 
Q 44.578125 48.1875 50.953125 41.515625 
Q 57.328125 34.859375 57.328125 23.390625 
Q 57.328125 12.15625 50.6875 5.359375 
Q 44.046875 -1.421875 33.015625 -1.421875 
Q 20.359375 -1.421875 13.671875 8.265625 
Q 6.984375 17.96875 6.984375 36.375 
Q 6.984375 53.65625 15.1875 63.9375 
Q 23.390625 74.21875 37.203125 74.21875 
Q 40.921875 74.21875 44.703125 73.484375 
Q 48.484375 72.75 52.59375 71.296875 
z
" id="DejaVuSans-54"/>
       </defs>
       <use xlink:href="#DejaVuSans-54"/>
       <use x="63.623047" xlink:href="#DejaVuSans-104"/>
       <use x="127.001953" xlink:href="#DejaVuSans-58"/>
       <use x="160.693359" xlink:href="#DejaVuSans-49"/>
       <use x="224.316406" xlink:href="#DejaVuSans-53"/>
       <use x="287.939453" xlink:href="#DejaVuSans-109"/>
      </g>
     </g>
    </g>
    <g id="xtick_5">
     <g id="line2d_5">
      <g>
       <use style="stroke:#000000;stroke-width:0.8;" x="310.870721" xlink:href="#m97b2a4d426" y="288.430125"/>
      </g>
     </g>
     <g id="text_5">
      <!-- 8h:15m -->
      <g transform="translate(291.603533 303.028562)scale(0.1 -0.1)">
       <defs>
        <path d="M 31.78125 34.625 
Q 24.75 34.625 20.71875 30.859375 
Q 16.703125 27.09375 16.703125 20.515625 
Q 16.703125 13.921875 20.71875 10.15625 
Q 24.75 6.390625 31.78125 6.390625 
Q 38.8125 6.390625 42.859375 10.171875 
Q 46.921875 13.96875 46.921875 20.515625 
Q 46.921875 27.09375 42.890625 30.859375 
Q 38.875 34.625 31.78125 34.625 
z
M 21.921875 38.8125 
Q 15.578125 40.375 12.03125 44.71875 
Q 8.5 49.078125 8.5 55.328125 
Q 8.5 64.0625 14.71875 69.140625 
Q 20.953125 74.21875 31.78125 74.21875 
Q 42.671875 74.21875 48.875 69.140625 
Q 55.078125 64.0625 55.078125 55.328125 
Q 55.078125 49.078125 51.53125 44.71875 
Q 48 40.375 41.703125 38.8125 
Q 48.828125 37.15625 52.796875 32.3125 
Q 56.78125 27.484375 56.78125 20.515625 
Q 56.78125 9.90625 50.3125 4.234375 
Q 43.84375 -1.421875 31.78125 -1.421875 
Q 19.734375 -1.421875 13.25 4.234375 
Q 6.78125 9.90625 6.78125 20.515625 
Q 6.78125 27.484375 10.78125 32.3125 
Q 14.796875 37.15625 21.921875 38.8125 
z
M 18.3125 54.390625 
Q 18.3125 48.734375 21.84375 45.5625 
Q 25.390625 42.390625 31.78125 42.390625 
Q 38.140625 42.390625 41.71875 45.5625 
Q 45.3125 48.734375 45.3125 54.390625 
Q 45.3125 60.0625 41.71875 63.234375 
Q 38.140625 66.40625 31.78125 66.40625 
Q 25.390625 66.40625 21.84375 63.234375 
Q 18.3125 60.0625 18.3125 54.390625 
z
" id="DejaVuSans-56"/>
       </defs>
       <use xlink:href="#DejaVuSans-56"/>
       <use x="63.623047" xlink:href="#DejaVuSans-104"/>
       <use x="127.001953" xlink:href="#DejaVuSans-58"/>
       <use x="160.693359" xlink:href="#DejaVuSans-49"/>
       <use x="224.316406" xlink:href="#DejaVuSans-53"/>
       <use x="287.939453" xlink:href="#DejaVuSans-109"/>
      </g>
     </g>
    </g>
    <g id="xtick_6">
     <g id="line2d_6">
      <g>
       <use style="stroke:#000000;stroke-width:0.8;" x="365.549381" xlink:href="#m97b2a4d426" y="288.430125"/>
      </g>
     </g>
     <g id="text_6">
      <!-- 10h:15m -->
      <g transform="translate(343.100943 303.028562)scale(0.1 -0.1)">
       <defs>
        <path d="M 31.78125 66.40625 
Q 24.171875 66.40625 20.328125 58.90625 
Q 16.5 51.421875 16.5 36.375 
Q 16.5 21.390625 20.328125 13.890625 
Q 24.171875 6.390625 31.78125 6.390625 
Q 39.453125 6.390625 43.28125 13.890625 
Q 47.125 21.390625 47.125 36.375 
Q 47.125 51.421875 43.28125 58.90625 
Q 39.453125 66.40625 31.78125 66.40625 
z
M 31.78125 74.21875 
Q 44.046875 74.21875 50.515625 64.515625 
Q 56.984375 54.828125 56.984375 36.375 
Q 56.984375 17.96875 50.515625 8.265625 
Q 44.046875 -1.421875 31.78125 -1.421875 
Q 19.53125 -1.421875 13.0625 8.265625 
Q 6.59375 17.96875 6.59375 36.375 
Q 6.59375 54.828125 13.0625 64.515625 
Q 19.53125 74.21875 31.78125 74.21875 
z
" id="DejaVuSans-48"/>
       </defs>
       <use xlink:href="#DejaVuSans-49"/>
       <use x="63.623047" xlink:href="#DejaVuSans-48"/>
       <use x="127.246094" xlink:href="#DejaVuSans-104"/>
       <use x="190.625" xlink:href="#DejaVuSans-58"/>
       <use x="224.316406" xlink:href="#DejaVuSans-49"/>
       <use x="287.939453" xlink:href="#DejaVuSans-53"/>
       <use x="351.5625" xlink:href="#DejaVuSans-109"/>
      </g>
     </g>
    </g>
    <g id="xtick_7">
     <g id="line2d_7">
      <g>
       <use style="stroke:#000000;stroke-width:0.8;" x="420.228041" xlink:href="#m97b2a4d426" y="288.430125"/>
      </g>
     </g>
     <g id="text_7">
      <!-- 12h:15m -->
      <g transform="translate(397.779604 303.028562)scale(0.1 -0.1)">
       <use xlink:href="#DejaVuSans-49"/>
       <use x="63.623047" xlink:href="#DejaVuSans-50"/>
       <use x="127.246094" xlink:href="#DejaVuSans-104"/>
       <use x="190.625" xlink:href="#DejaVuSans-58"/>
       <use x="224.316406" xlink:href="#DejaVuSans-49"/>
       <use x="287.939453" xlink:href="#DejaVuSans-53"/>
       <use x="351.5625" xlink:href="#DejaVuSans-109"/>
      </g>
     </g>
    </g>
    <g id="xtick_8">
     <g id="line2d_8">
      <g>
       <use style="stroke:#000000;stroke-width:0.8;" x="474.906702" xlink:href="#m97b2a4d426" y="288.430125"/>
      </g>
     </g>
     <g id="text_8">
      <!-- 14h:15m -->
      <g transform="translate(452.458264 303.028562)scale(0.1 -0.1)">
       <use xlink:href="#DejaVuSans-49"/>
       <use x="63.623047" xlink:href="#DejaVuSans-52"/>
       <use x="127.246094" xlink:href="#DejaVuSans-104"/>
       <use x="190.625" xlink:href="#DejaVuSans-58"/>
       <use x="224.316406" xlink:href="#DejaVuSans-49"/>
       <use x="287.939453" xlink:href="#DejaVuSans-53"/>
       <use x="351.5625" xlink:href="#DejaVuSans-109"/>
      </g>
     </g>
    </g>
    <g id="xtick_9">
     <g id="line2d_9">
      <g>
       <use style="stroke:#000000;stroke-width:0.8;" x="529.585362" xlink:href="#m97b2a4d426" y="288.430125"/>
      </g>
     </g>
     <g id="text_9">
      <!-- 16h:15m -->
      <g transform="translate(507.136924 303.028562)scale(0.1 -0.1)">
       <use xlink:href="#DejaVuSans-49"/>
       <use x="63.623047" xlink:href="#DejaVuSans-54"/>
       <use x="127.246094" xlink:href="#DejaVuSans-104"/>
       <use x="190.625" xlink:href="#DejaVuSans-58"/>
       <use x="224.316406" xlink:href="#DejaVuSans-49"/>
       <use x="287.939453" xlink:href="#DejaVuSans-53"/>
       <use x="351.5625" xlink:href="#DejaVuSans-109"/>
      </g>
     </g>
    </g>
    <g id="xtick_10">
     <g id="line2d_10">
      <g>
       <use style="stroke:#000000;stroke-width:0.8;" x="584.264022" xlink:href="#m97b2a4d426" y="288.430125"/>
      </g>
     </g>
     <g id="text_10">
      <!-- 18h:15m -->
      <g transform="translate(561.815585 303.028562)scale(0.1 -0.1)">
       <use xlink:href="#DejaVuSans-49"/>
       <use x="63.623047" xlink:href="#DejaVuSans-56"/>
       <use x="127.246094" xlink:href="#DejaVuSans-104"/>
       <use x="190.625" xlink:href="#DejaVuSans-58"/>
       <use x="224.316406" xlink:href="#DejaVuSans-49"/>
       <use x="287.939453" xlink:href="#DejaVuSans-53"/>
       <use x="351.5625" xlink:href="#DejaVuSans-109"/>
      </g>
     </g>
    </g>
    <g id="xtick_11">
     <g id="line2d_11">
      <g>
       <use style="stroke:#000000;stroke-width:0.8;" x="638.942682" xlink:href="#m97b2a4d426" y="288.430125"/>
      </g>
     </g>
     <g id="text_11">
      <!-- 20h:15m -->
      <g transform="translate(616.494245 303.028562)scale(0.1 -0.1)">
       <use xlink:href="#DejaVuSans-50"/>
       <use x="63.623047" xlink:href="#DejaVuSans-48"/>
       <use x="127.246094" xlink:href="#DejaVuSans-104"/>
       <use x="190.625" xlink:href="#DejaVuSans-58"/>
       <use x="224.316406" xlink:href="#DejaVuSans-49"/>
       <use x="287.939453" xlink:href="#DejaVuSans-53"/>
       <use x="351.5625" xlink:href="#DejaVuSans-109"/>
      </g>
     </g>
    </g>
    <g id="xtick_12">
     <g id="line2d_12">
      <g>
       <use style="stroke:#000000;stroke-width:0.8;" x="693.621343" xlink:href="#m97b2a4d426" y="288.430125"/>
      </g>
     </g>
     <g id="text_12">
      <!-- 22h:15m -->
      <g transform="translate(671.172905 303.028562)scale(0.1 -0.1)">
       <use xlink:href="#DejaVuSans-50"/>
       <use x="63.623047" xlink:href="#DejaVuSans-50"/>
       <use x="127.246094" xlink:href="#DejaVuSans-104"/>
       <use x="190.625" xlink:href="#DejaVuSans-58"/>
       <use x="224.316406" xlink:href="#DejaVuSans-49"/>
       <use x="287.939453" xlink:href="#DejaVuSans-53"/>
       <use x="351.5625" xlink:href="#DejaVuSans-109"/>
      </g>
     </g>
    </g>
    <g id="text_13">
     <!-- Time (hour:minute) -->
     <g transform="translate(368.403594 316.706687)scale(0.1 -0.1)">
      <defs>
       <path d="M -0.296875 72.90625 
L 61.375 72.90625 
L 61.375 64.59375 
L 35.5 64.59375 
L 35.5 0 
L 25.59375 0 
L 25.59375 64.59375 
L -0.296875 64.59375 
z
" id="DejaVuSans-84"/>
       <path d="M 9.421875 54.6875 
L 18.40625 54.6875 
L 18.40625 0 
L 9.421875 0 
z
M 9.421875 75.984375 
L 18.40625 75.984375 
L 18.40625 64.59375 
L 9.421875 64.59375 
z
" id="DejaVuSans-105"/>
       <path d="M 56.203125 29.59375 
L 56.203125 25.203125 
L 14.890625 25.203125 
Q 15.484375 15.921875 20.484375 11.0625 
Q 25.484375 6.203125 34.421875 6.203125 
Q 39.59375 6.203125 44.453125 7.46875 
Q 49.3125 8.734375 54.109375 11.28125 
L 54.109375 2.78125 
Q 49.265625 0.734375 44.1875 -0.34375 
Q 39.109375 -1.421875 33.890625 -1.421875 
Q 20.796875 -1.421875 13.15625 6.1875 
Q 5.515625 13.8125 5.515625 26.8125 
Q 5.515625 40.234375 12.765625 48.109375 
Q 20.015625 56 32.328125 56 
Q 43.359375 56 49.78125 48.890625 
Q 56.203125 41.796875 56.203125 29.59375 
z
M 47.21875 32.234375 
Q 47.125 39.59375 43.09375 43.984375 
Q 39.0625 48.390625 32.421875 48.390625 
Q 24.90625 48.390625 20.390625 44.140625 
Q 15.875 39.890625 15.1875 32.171875 
z
" id="DejaVuSans-101"/>
       <path id="DejaVuSans-32"/>
       <path d="M 31 75.875 
Q 24.46875 64.65625 21.28125 53.65625 
Q 18.109375 42.671875 18.109375 31.390625 
Q 18.109375 20.125 21.3125 9.0625 
Q 24.515625 -2 31 -13.1875 
L 23.1875 -13.1875 
Q 15.875 -1.703125 12.234375 9.375 
Q 8.59375 20.453125 8.59375 31.390625 
Q 8.59375 42.28125 12.203125 53.3125 
Q 15.828125 64.359375 23.1875 75.875 
z
" id="DejaVuSans-40"/>
       <path d="M 30.609375 48.390625 
Q 23.390625 48.390625 19.1875 42.75 
Q 14.984375 37.109375 14.984375 27.296875 
Q 14.984375 17.484375 19.15625 11.84375 
Q 23.34375 6.203125 30.609375 6.203125 
Q 37.796875 6.203125 41.984375 11.859375 
Q 46.1875 17.53125 46.1875 27.296875 
Q 46.1875 37.015625 41.984375 42.703125 
Q 37.796875 48.390625 30.609375 48.390625 
z
M 30.609375 56 
Q 42.328125 56 49.015625 48.375 
Q 55.71875 40.765625 55.71875 27.296875 
Q 55.71875 13.875 49.015625 6.21875 
Q 42.328125 -1.421875 30.609375 -1.421875 
Q 18.84375 -1.421875 12.171875 6.21875 
Q 5.515625 13.875 5.515625 27.296875 
Q 5.515625 40.765625 12.171875 48.375 
Q 18.84375 56 30.609375 56 
z
" id="DejaVuSans-111"/>
       <path d="M 8.5 21.578125 
L 8.5 54.6875 
L 17.484375 54.6875 
L 17.484375 21.921875 
Q 17.484375 14.15625 20.5 10.265625 
Q 23.53125 6.390625 29.59375 6.390625 
Q 36.859375 6.390625 41.078125 11.03125 
Q 45.3125 15.671875 45.3125 23.6875 
L 45.3125 54.6875 
L 54.296875 54.6875 
L 54.296875 0 
L 45.3125 0 
L 45.3125 8.40625 
Q 42.046875 3.421875 37.71875 1 
Q 33.40625 -1.421875 27.6875 -1.421875 
Q 18.265625 -1.421875 13.375 4.4375 
Q 8.5 10.296875 8.5 21.578125 
z
M 31.109375 56 
z
" id="DejaVuSans-117"/>
       <path d="M 41.109375 46.296875 
Q 39.59375 47.171875 37.8125 47.578125 
Q 36.03125 48 33.890625 48 
Q 26.265625 48 22.1875 43.046875 
Q 18.109375 38.09375 18.109375 28.8125 
L 18.109375 0 
L 9.078125 0 
L 9.078125 54.6875 
L 18.109375 54.6875 
L 18.109375 46.1875 
Q 20.953125 51.171875 25.484375 53.578125 
Q 30.03125 56 36.53125 56 
Q 37.453125 56 38.578125 55.875 
Q 39.703125 55.765625 41.0625 55.515625 
z
" id="DejaVuSans-114"/>
       <path d="M 54.890625 33.015625 
L 54.890625 0 
L 45.90625 0 
L 45.90625 32.71875 
Q 45.90625 40.484375 42.875 44.328125 
Q 39.84375 48.1875 33.796875 48.1875 
Q 26.515625 48.1875 22.3125 43.546875 
Q 18.109375 38.921875 18.109375 30.90625 
L 18.109375 0 
L 9.078125 0 
L 9.078125 54.6875 
L 18.109375 54.6875 
L 18.109375 46.1875 
Q 21.34375 51.125 25.703125 53.5625 
Q 30.078125 56 35.796875 56 
Q 45.21875 56 50.046875 50.171875 
Q 54.890625 44.34375 54.890625 33.015625 
z
" id="DejaVuSans-110"/>
       <path d="M 18.3125 70.21875 
L 18.3125 54.6875 
L 36.8125 54.6875 
L 36.8125 47.703125 
L 18.3125 47.703125 
L 18.3125 18.015625 
Q 18.3125 11.328125 20.140625 9.421875 
Q 21.96875 7.515625 27.59375 7.515625 
L 36.8125 7.515625 
L 36.8125 0 
L 27.59375 0 
Q 17.1875 0 13.234375 3.875 
Q 9.28125 7.765625 9.28125 18.015625 
L 9.28125 47.703125 
L 2.6875 47.703125 
L 2.6875 54.6875 
L 9.28125 54.6875 
L 9.28125 70.21875 
z
" id="DejaVuSans-116"/>
       <path d="M 8.015625 75.875 
L 15.828125 75.875 
Q 23.140625 64.359375 26.78125 53.3125 
Q 30.421875 42.28125 30.421875 31.390625 
Q 30.421875 20.453125 26.78125 9.375 
Q 23.140625 -1.703125 15.828125 -13.1875 
L 8.015625 -13.1875 
Q 14.5 -2 17.703125 9.0625 
Q 20.90625 20.125 20.90625 31.390625 
Q 20.90625 42.671875 17.703125 53.65625 
Q 14.5 64.65625 8.015625 75.875 
z
" id="DejaVuSans-41"/>
      </defs>
      <use xlink:href="#DejaVuSans-84"/>
      <use x="57.958984" xlink:href="#DejaVuSans-105"/>
      <use x="85.742188" xlink:href="#DejaVuSans-109"/>
      <use x="183.154297" xlink:href="#DejaVuSans-101"/>
      <use x="244.677734" xlink:href="#DejaVuSans-32"/>
      <use x="276.464844" xlink:href="#DejaVuSans-40"/>
      <use x="315.478516" xlink:href="#DejaVuSans-104"/>
      <use x="378.857422" xlink:href="#DejaVuSans-111"/>
      <use x="440.039062" xlink:href="#DejaVuSans-117"/>
      <use x="503.417969" xlink:href="#DejaVuSans-114"/>
      <use x="542.78125" xlink:href="#DejaVuSans-58"/>
      <use x="576.472656" xlink:href="#DejaVuSans-109"/>
      <use x="673.884766" xlink:href="#DejaVuSans-105"/>
      <use x="701.667969" xlink:href="#DejaVuSans-110"/>
      <use x="765.046875" xlink:href="#DejaVuSans-117"/>
      <use x="828.425781" xlink:href="#DejaVuSans-116"/>
      <use x="867.634766" xlink:href="#DejaVuSans-101"/>
      <use x="929.158203" xlink:href="#DejaVuSans-41"/>
     </g>
    </g>
   </g>
   <g id="matplotlib.axis_2">
    <g id="ytick_1">
     <g id="line2d_13">
      <defs>
       <path d="M 0 0 
L -3.5 0 
" id="m8f51e578fe" style="stroke:#000000;stroke-width:0.8;"/>
      </defs>
      <g>
       <use style="stroke:#000000;stroke-width:0.8;" x="59.690625" xlink:href="#m8f51e578fe" y="283.073008"/>
      </g>
     </g>
     <g id="text_14">
      <!-- 16000 -->
      <g transform="translate(20.878125 286.872226)scale(0.1 -0.1)">
       <use xlink:href="#DejaVuSans-49"/>
       <use x="63.623047" xlink:href="#DejaVuSans-54"/>
       <use x="127.246094" xlink:href="#DejaVuSans-48"/>
       <use x="190.869141" xlink:href="#DejaVuSans-48"/>
       <use x="254.492188" xlink:href="#DejaVuSans-48"/>
      </g>
     </g>
    </g>
    <g id="ytick_2">
     <g id="line2d_14">
      <g>
       <use style="stroke:#000000;stroke-width:0.8;" x="59.690625" xlink:href="#m8f51e578fe" y="250.391715"/>
      </g>
     </g>
     <g id="text_15">
      <!-- 17000 -->
      <g transform="translate(20.878125 254.190934)scale(0.1 -0.1)">
       <defs>
        <path d="M 8.203125 72.90625 
L 55.078125 72.90625 
L 55.078125 68.703125 
L 28.609375 0 
L 18.3125 0 
L 43.21875 64.59375 
L 8.203125 64.59375 
z
" id="DejaVuSans-55"/>
       </defs>
       <use xlink:href="#DejaVuSans-49"/>
       <use x="63.623047" xlink:href="#DejaVuSans-55"/>
       <use x="127.246094" xlink:href="#DejaVuSans-48"/>
       <use x="190.869141" xlink:href="#DejaVuSans-48"/>
       <use x="254.492188" xlink:href="#DejaVuSans-48"/>
      </g>
     </g>
    </g>
    <g id="ytick_3">
     <g id="line2d_15">
      <g>
       <use style="stroke:#000000;stroke-width:0.8;" x="59.690625" xlink:href="#m8f51e578fe" y="217.710422"/>
      </g>
     </g>
     <g id="text_16">
      <!-- 18000 -->
      <g transform="translate(20.878125 221.509641)scale(0.1 -0.1)">
       <use xlink:href="#DejaVuSans-49"/>
       <use x="63.623047" xlink:href="#DejaVuSans-56"/>
       <use x="127.246094" xlink:href="#DejaVuSans-48"/>
       <use x="190.869141" xlink:href="#DejaVuSans-48"/>
       <use x="254.492188" xlink:href="#DejaVuSans-48"/>
      </g>
     </g>
    </g>
    <g id="ytick_4">
     <g id="line2d_16">
      <g>
       <use style="stroke:#000000;stroke-width:0.8;" x="59.690625" xlink:href="#m8f51e578fe" y="185.02913"/>
      </g>
     </g>
     <g id="text_17">
      <!-- 19000 -->
      <g transform="translate(20.878125 188.828349)scale(0.1 -0.1)">
       <defs>
        <path d="M 10.984375 1.515625 
L 10.984375 10.5 
Q 14.703125 8.734375 18.5 7.8125 
Q 22.3125 6.890625 25.984375 6.890625 
Q 35.75 6.890625 40.890625 13.453125 
Q 46.046875 20.015625 46.78125 33.40625 
Q 43.953125 29.203125 39.59375 26.953125 
Q 35.25 24.703125 29.984375 24.703125 
Q 19.046875 24.703125 12.671875 31.3125 
Q 6.296875 37.9375 6.296875 49.421875 
Q 6.296875 60.640625 12.9375 67.421875 
Q 19.578125 74.21875 30.609375 74.21875 
Q 43.265625 74.21875 49.921875 64.515625 
Q 56.59375 54.828125 56.59375 36.375 
Q 56.59375 19.140625 48.40625 8.859375 
Q 40.234375 -1.421875 26.421875 -1.421875 
Q 22.703125 -1.421875 18.890625 -0.6875 
Q 15.09375 0.046875 10.984375 1.515625 
z
M 30.609375 32.421875 
Q 37.25 32.421875 41.125 36.953125 
Q 45.015625 41.5 45.015625 49.421875 
Q 45.015625 57.28125 41.125 61.84375 
Q 37.25 66.40625 30.609375 66.40625 
Q 23.96875 66.40625 20.09375 61.84375 
Q 16.21875 57.28125 16.21875 49.421875 
Q 16.21875 41.5 20.09375 36.953125 
Q 23.96875 32.421875 30.609375 32.421875 
z
" id="DejaVuSans-57"/>
       </defs>
       <use xlink:href="#DejaVuSans-49"/>
       <use x="63.623047" xlink:href="#DejaVuSans-57"/>
       <use x="127.246094" xlink:href="#DejaVuSans-48"/>
       <use x="190.869141" xlink:href="#DejaVuSans-48"/>
       <use x="254.492188" xlink:href="#DejaVuSans-48"/>
      </g>
     </g>
    </g>
    <g id="ytick_5">
     <g id="line2d_17">
      <g>
       <use style="stroke:#000000;stroke-width:0.8;" x="59.690625" xlink:href="#m8f51e578fe" y="152.347837"/>
      </g>
     </g>
     <g id="text_18">
      <!-- 20000 -->
      <g transform="translate(20.878125 156.147056)scale(0.1 -0.1)">
       <use xlink:href="#DejaVuSans-50"/>
       <use x="63.623047" xlink:href="#DejaVuSans-48"/>
       <use x="127.246094" xlink:href="#DejaVuSans-48"/>
       <use x="190.869141" xlink:href="#DejaVuSans-48"/>
       <use x="254.492188" xlink:href="#DejaVuSans-48"/>
      </g>
     </g>
    </g>
    <g id="ytick_6">
     <g id="line2d_18">
      <g>
       <use style="stroke:#000000;stroke-width:0.8;" x="59.690625" xlink:href="#m8f51e578fe" y="119.666545"/>
      </g>
     </g>
     <g id="text_19">
      <!-- 21000 -->
      <g transform="translate(20.878125 123.465764)scale(0.1 -0.1)">
       <use xlink:href="#DejaVuSans-50"/>
       <use x="63.623047" xlink:href="#DejaVuSans-49"/>
       <use x="127.246094" xlink:href="#DejaVuSans-48"/>
       <use x="190.869141" xlink:href="#DejaVuSans-48"/>
       <use x="254.492188" xlink:href="#DejaVuSans-48"/>
      </g>
     </g>
    </g>
    <g id="ytick_7">
     <g id="line2d_19">
      <g>
       <use style="stroke:#000000;stroke-width:0.8;" x="59.690625" xlink:href="#m8f51e578fe" y="86.985252"/>
      </g>
     </g>
     <g id="text_20">
      <!-- 22000 -->
      <g transform="translate(20.878125 90.784471)scale(0.1 -0.1)">
       <use xlink:href="#DejaVuSans-50"/>
       <use x="63.623047" xlink:href="#DejaVuSans-50"/>
       <use x="127.246094" xlink:href="#DejaVuSans-48"/>
       <use x="190.869141" xlink:href="#DejaVuSans-48"/>
       <use x="254.492188" xlink:href="#DejaVuSans-48"/>
      </g>
     </g>
    </g>
    <g id="ytick_8">
     <g id="line2d_20">
      <g>
       <use style="stroke:#000000;stroke-width:0.8;" x="59.690625" xlink:href="#m8f51e578fe" y="54.30396"/>
      </g>
     </g>
     <g id="text_21">
      <!-- 23000 -->
      <g transform="translate(20.878125 58.103178)scale(0.1 -0.1)">
       <defs>
        <path d="M 40.578125 39.3125 
Q 47.65625 37.796875 51.625 33 
Q 55.609375 28.21875 55.609375 21.1875 
Q 55.609375 10.40625 48.1875 4.484375 
Q 40.765625 -1.421875 27.09375 -1.421875 
Q 22.515625 -1.421875 17.65625 -0.515625 
Q 12.796875 0.390625 7.625 2.203125 
L 7.625 11.71875 
Q 11.71875 9.328125 16.59375 8.109375 
Q 21.484375 6.890625 26.8125 6.890625 
Q 36.078125 6.890625 40.9375 10.546875 
Q 45.796875 14.203125 45.796875 21.1875 
Q 45.796875 27.640625 41.28125 31.265625 
Q 36.765625 34.90625 28.71875 34.90625 
L 20.21875 34.90625 
L 20.21875 43.015625 
L 29.109375 43.015625 
Q 36.375 43.015625 40.234375 45.921875 
Q 44.09375 48.828125 44.09375 54.296875 
Q 44.09375 59.90625 40.109375 62.90625 
Q 36.140625 65.921875 28.71875 65.921875 
Q 24.65625 65.921875 20.015625 65.03125 
Q 15.375 64.15625 9.8125 62.3125 
L 9.8125 71.09375 
Q 15.4375 72.65625 20.34375 73.4375 
Q 25.25 74.21875 29.59375 74.21875 
Q 40.828125 74.21875 47.359375 69.109375 
Q 53.90625 64.015625 53.90625 55.328125 
Q 53.90625 49.265625 50.4375 45.09375 
Q 46.96875 40.921875 40.578125 39.3125 
z
" id="DejaVuSans-51"/>
       </defs>
       <use xlink:href="#DejaVuSans-50"/>
       <use x="63.623047" xlink:href="#DejaVuSans-51"/>
       <use x="127.246094" xlink:href="#DejaVuSans-48"/>
       <use x="190.869141" xlink:href="#DejaVuSans-48"/>
       <use x="254.492188" xlink:href="#DejaVuSans-48"/>
      </g>
     </g>
    </g>
    <g id="text_22">
     <!-- Edge coverage -->
     <g transform="translate(14.798437 192.762406)rotate(-90)scale(0.1 -0.1)">
      <defs>
       <path d="M 9.8125 72.90625 
L 55.90625 72.90625 
L 55.90625 64.59375 
L 19.671875 64.59375 
L 19.671875 43.015625 
L 54.390625 43.015625 
L 54.390625 34.71875 
L 19.671875 34.71875 
L 19.671875 8.296875 
L 56.78125 8.296875 
L 56.78125 0 
L 9.8125 0 
z
" id="DejaVuSans-69"/>
       <path d="M 45.40625 46.390625 
L 45.40625 75.984375 
L 54.390625 75.984375 
L 54.390625 0 
L 45.40625 0 
L 45.40625 8.203125 
Q 42.578125 3.328125 38.25 0.953125 
Q 33.9375 -1.421875 27.875 -1.421875 
Q 17.96875 -1.421875 11.734375 6.484375 
Q 5.515625 14.40625 5.515625 27.296875 
Q 5.515625 40.1875 11.734375 48.09375 
Q 17.96875 56 27.875 56 
Q 33.9375 56 38.25 53.625 
Q 42.578125 51.265625 45.40625 46.390625 
z
M 14.796875 27.296875 
Q 14.796875 17.390625 18.875 11.75 
Q 22.953125 6.109375 30.078125 6.109375 
Q 37.203125 6.109375 41.296875 11.75 
Q 45.40625 17.390625 45.40625 27.296875 
Q 45.40625 37.203125 41.296875 42.84375 
Q 37.203125 48.484375 30.078125 48.484375 
Q 22.953125 48.484375 18.875 42.84375 
Q 14.796875 37.203125 14.796875 27.296875 
z
" id="DejaVuSans-100"/>
       <path d="M 45.40625 27.984375 
Q 45.40625 37.75 41.375 43.109375 
Q 37.359375 48.484375 30.078125 48.484375 
Q 22.859375 48.484375 18.828125 43.109375 
Q 14.796875 37.75 14.796875 27.984375 
Q 14.796875 18.265625 18.828125 12.890625 
Q 22.859375 7.515625 30.078125 7.515625 
Q 37.359375 7.515625 41.375 12.890625 
Q 45.40625 18.265625 45.40625 27.984375 
z
M 54.390625 6.78125 
Q 54.390625 -7.171875 48.1875 -13.984375 
Q 42 -20.796875 29.203125 -20.796875 
Q 24.46875 -20.796875 20.265625 -20.09375 
Q 16.0625 -19.390625 12.109375 -17.921875 
L 12.109375 -9.1875 
Q 16.0625 -11.328125 19.921875 -12.34375 
Q 23.78125 -13.375 27.78125 -13.375 
Q 36.625 -13.375 41.015625 -8.765625 
Q 45.40625 -4.15625 45.40625 5.171875 
L 45.40625 9.625 
Q 42.625 4.78125 38.28125 2.390625 
Q 33.9375 0 27.875 0 
Q 17.828125 0 11.671875 7.65625 
Q 5.515625 15.328125 5.515625 27.984375 
Q 5.515625 40.671875 11.671875 48.328125 
Q 17.828125 56 27.875 56 
Q 33.9375 56 38.28125 53.609375 
Q 42.625 51.21875 45.40625 46.390625 
L 45.40625 54.6875 
L 54.390625 54.6875 
z
" id="DejaVuSans-103"/>
       <path d="M 48.78125 52.59375 
L 48.78125 44.1875 
Q 44.96875 46.296875 41.140625 47.34375 
Q 37.3125 48.390625 33.40625 48.390625 
Q 24.65625 48.390625 19.8125 42.84375 
Q 14.984375 37.3125 14.984375 27.296875 
Q 14.984375 17.28125 19.8125 11.734375 
Q 24.65625 6.203125 33.40625 6.203125 
Q 37.3125 6.203125 41.140625 7.25 
Q 44.96875 8.296875 48.78125 10.40625 
L 48.78125 2.09375 
Q 45.015625 0.34375 40.984375 -0.53125 
Q 36.96875 -1.421875 32.421875 -1.421875 
Q 20.0625 -1.421875 12.78125 6.34375 
Q 5.515625 14.109375 5.515625 27.296875 
Q 5.515625 40.671875 12.859375 48.328125 
Q 20.21875 56 33.015625 56 
Q 37.15625 56 41.109375 55.140625 
Q 45.0625 54.296875 48.78125 52.59375 
z
" id="DejaVuSans-99"/>
       <path d="M 2.984375 54.6875 
L 12.5 54.6875 
L 29.59375 8.796875 
L 46.6875 54.6875 
L 56.203125 54.6875 
L 35.6875 0 
L 23.484375 0 
z
" id="DejaVuSans-118"/>
       <path d="M 34.28125 27.484375 
Q 23.390625 27.484375 19.1875 25 
Q 14.984375 22.515625 14.984375 16.5 
Q 14.984375 11.71875 18.140625 8.90625 
Q 21.296875 6.109375 26.703125 6.109375 
Q 34.1875 6.109375 38.703125 11.40625 
Q 43.21875 16.703125 43.21875 25.484375 
L 43.21875 27.484375 
z
M 52.203125 31.203125 
L 52.203125 0 
L 43.21875 0 
L 43.21875 8.296875 
Q 40.140625 3.328125 35.546875 0.953125 
Q 30.953125 -1.421875 24.3125 -1.421875 
Q 15.921875 -1.421875 10.953125 3.296875 
Q 6 8.015625 6 15.921875 
Q 6 25.140625 12.171875 29.828125 
Q 18.359375 34.515625 30.609375 34.515625 
L 43.21875 34.515625 
L 43.21875 35.40625 
Q 43.21875 41.609375 39.140625 45 
Q 35.0625 48.390625 27.6875 48.390625 
Q 23 48.390625 18.546875 47.265625 
Q 14.109375 46.140625 10.015625 43.890625 
L 10.015625 52.203125 
Q 14.9375 54.109375 19.578125 55.046875 
Q 24.21875 56 28.609375 56 
Q 40.484375 56 46.34375 49.84375 
Q 52.203125 43.703125 52.203125 31.203125 
z
" id="DejaVuSans-97"/>
      </defs>
      <use xlink:href="#DejaVuSans-69"/>
      <use x="63.183594" xlink:href="#DejaVuSans-100"/>
      <use x="126.660156" xlink:href="#DejaVuSans-103"/>
      <use x="190.136719" xlink:href="#DejaVuSans-101"/>
      <use x="251.660156" xlink:href="#DejaVuSans-32"/>
      <use x="283.447266" xlink:href="#DejaVuSans-99"/>
      <use x="338.427734" xlink:href="#DejaVuSans-111"/>
      <use x="399.609375" xlink:href="#DejaVuSans-118"/>
      <use x="458.789062" xlink:href="#DejaVuSans-101"/>
      <use x="520.3125" xlink:href="#DejaVuSans-114"/>
      <use x="561.425781" xlink:href="#DejaVuSans-97"/>
      <use x="622.705078" xlink:href="#DejaVuSans-103"/>
      <use x="686.181641" xlink:href="#DejaVuSans-101"/>
     </g>
    </g>
   </g>
   <g id="line2d_21">
    <path clip-path="url(#p257bad8bf0)" d="M 92.15608 261.156933 
L 98.990912 250.744673 
L 105.825745 221.834802 
L 112.660577 213.932465 
L 119.49541 203.945062 
L 126.330242 201.886141 
L 133.165075 198.506895 
L 139.999907 194.395588 
L 146.83474 190.009759 
L 153.669572 187.976982 
L 160.504405 183.198977 
L 167.339237 180.257661 
L 174.17407 178.231421 
L 181.008903 175.486192 
L 187.843735 168.577367 
L 194.678568 157.949411 
L 201.5134 153.988438 
L 208.348233 151.498124 
L 215.183065 141.464967 
L 222.017898 140.39302 
L 228.85273 139.386437 
L 235.687563 138.236055 
L 242.522395 132.634482 
L 249.357228 132.222697 
L 256.19206 130.889301 
L 263.026893 125.163538 
L 269.861725 124.170027 
L 276.696558 122.88892 
L 283.531391 121.294073 
L 290.366223 120.450896 
L 297.201056 118.176278 
L 304.035888 114.633626 
L 310.870721 110.535392 
L 317.705553 110.0321 
L 324.540386 109.365401 
L 331.375218 107.30648 
L 338.210051 105.626661 
L 345.044883 105.495936 
L 351.879716 102.848752 
L 358.714548 101.410775 
L 365.549381 98.7113 
L 372.384214 96.953046 
L 379.219046 95.750375 
L 386.053879 95.678476 
L 392.888711 95.142503 
L 399.723544 94.456196 
L 406.558376 92.965929 
L 413.393209 91.952809 
L 420.228041 89.789307 
L 427.062874 88.697752 
L 433.897706 86.16822 
L 440.732539 85.579957 
L 447.567371 82.788974 
L 454.402204 82.619032 
L 461.237036 81.560158 
L 468.071869 79.932629 
L 474.906702 78.233202 
L 481.741534 77.481532 
L 488.576367 77.350807 
L 495.411199 76.971704 
L 502.246032 75.65138 
L 509.080864 75.324567 
L 515.915697 74.867029 
L 522.750529 74.684014 
L 529.585362 74.213403 
L 536.420194 73.102239 
L 543.255027 72.350569 
L 550.089859 72.187163 
L 556.924692 71.141362 
L 563.759525 70.827621 
L 570.594357 69.500761 
L 577.42919 69.219702 
L 584.264022 68.945179 
L 591.098855 65.984254 
L 597.933687 65.794702 
L 604.76852 63.382823 
L 611.603352 62.010208 
L 618.438185 61.774903 
L 625.273017 61.369655 
L 632.10785 60.683348 
L 638.942682 60.258491 
L 645.777515 58.186497 
L 652.612347 57.859684 
L 659.44718 57.532871 
L 666.282013 56.8531 
L 673.116845 56.362881 
L 679.951678 55.748473 
L 686.78651 54.977194 
L 693.621343 54.781107 
L 700.456175 54.362786 
L 707.291008 54.205916 
L 714.12584 53.722233 
L 720.960673 53.513072 
L 727.795505 53.179723 
L 734.630338 52.597996 
L 741.46517 52.258111 
" style="fill:none;stroke:#1f77b4;stroke-linecap:square;stroke-width:1.5;"/>
   </g>
   <g id="line2d_22">
    <path clip-path="url(#p257bad8bf0)" d="M 92.15608 244.143052 
L 98.990912 223.325068 
L 105.825745 211.788572 
L 112.660577 205.637953 
L 119.49541 204.598688 
L 126.330242 203.487524 
L 133.165075 198.389242 
L 139.999907 195.918537 
L 146.83474 193.983804 
L 153.669572 193.362859 
L 160.504405 192.944539 
L 167.339237 189.663337 
L 174.17407 184.761143 
L 181.008903 180.728272 
L 187.843735 174.544971 
L 194.678568 170.12646 
L 201.5134 168.498932 
L 208.348233 166.080516 
L 215.183065 164.668685 
L 222.017898 163.485622 
L 228.85273 161.446309 
L 235.687563 161.001844 
L 242.522395 152.694259 
L 249.357228 151.419689 
L 256.19206 145.308287 
L 263.026893 144.77885 
L 269.861725 142.661102 
L 276.696558 141.680663 
L 283.531391 139.164204 
L 290.366223 138.870072 
L 297.201056 138.111866 
L 304.035888 135.883002 
L 310.870721 135.523508 
L 317.705553 132.523365 
L 324.540386 131.765159 
L 331.375218 131.569072 
L 338.210051 130.582096 
L 345.044883 128.666973 
L 351.879716 128.104854 
L 358.714548 127.732288 
L 365.549381 126.098223 
L 372.384214 125.686439 
L 379.219046 124.196172 
L 386.053879 121.575132 
L 392.888711 121.013014 
L 399.723544 120.686201 
L 406.558376 119.529283 
L 413.393209 118.882194 
L 420.228041 117.986726 
L 427.062874 117.306955 
L 433.897706 109.17585 
L 440.732539 108.247701 
L 447.567371 107.502568 
L 454.402204 106.247606 
L 461.237036 106.012301 
L 468.071869 105.75085 
L 474.906702 104.227902 
L 481.741534 103.51545 
L 488.576367 103.489305 
L 495.411199 101.927139 
L 502.246032 101.012063 
L 509.080864 100.881338 
L 515.915697 98.175327 
L 522.750529 97.319077 
L 529.585362 96.743886 
L 536.420194 96.011825 
L 543.255027 95.606577 
L 550.089859 94.586921 
L 556.924692 94.155528 
L 563.759525 93.31235 
L 570.594357 93.090118 
L 577.42919 91.972417 
L 584.264022 91.384154 
L 591.098855 89.926569 
L 597.933687 88.874231 
L 604.76852 87.49508 
L 611.603352 87.083296 
L 618.438185 84.29885 
L 625.273017 83.70405 
L 632.10785 83.33802 
L 638.942682 82.194175 
L 645.777515 81.821608 
L 652.612347 81.285635 
L 659.44718 80.671226 
L 666.282013 80.318269 
L 673.116845 79.775759 
L 679.951678 79.481627 
L 686.78651 79.448946 
L 693.621343 78.357391 
L 700.456175 77.644939 
L 707.291008 76.056628 
L 714.12584 75.736351 
L 720.960673 74.53368 
L 727.795505 73.683966 
L 734.630338 73.180674 
L 741.46517 72.860398 
" style="fill:none;stroke:#aec7e8;stroke-linecap:square;stroke-width:1.5;"/>
   </g>
   <g id="line2d_23">
    <path clip-path="url(#p257bad8bf0)" d="M 92.15608 245.77058 
L 98.990912 224.815335 
L 105.825745 214.749497 
L 112.660577 200.840339 
L 119.49541 198.010139 
L 126.330242 197.480702 
L 133.165075 195.539434 
L 139.999907 192.447783 
L 146.83474 192.330131 
L 153.669572 189.532612 
L 160.504405 187.480227 
L 167.339237 182.336191 
L 174.17407 178.551698 
L 181.008903 176.355515 
L 187.843735 170.570926 
L 194.678568 165.577225 
L 201.5134 161.799267 
L 208.348233 159.478895 
L 215.183065 158.302369 
L 222.017898 155.459096 
L 228.85273 152.007952 
L 235.687563 151.668066 
L 242.522395 149.785624 
L 249.357228 147.210338 
L 256.19206 145.863869 
L 263.026893 144.922648 
L 269.861725 144.432428 
L 276.696558 142.014013 
L 283.531391 140.693688 
L 290.366223 138.968116 
L 297.201056 137.713155 
L 304.035888 135.673842 
L 310.870721 135.235913 
L 317.705553 134.634577 
L 324.540386 130.974272 
L 331.375218 128.568929 
L 338.210051 127.876085 
L 345.044883 127.22246 
L 351.879716 126.634196 
L 358.714548 126.431572 
L 365.549381 122.78434 
L 372.384214 122.431382 
L 379.219046 122.013062 
L 386.053879 121.12413 
L 392.888711 120.993405 
L 399.723544 120.248272 
L 406.558376 120.019503 
L 413.393209 119.882241 
L 420.228041 119.764589 
L 427.062874 118.810295 
L 433.897706 116.450706 
L 440.732539 114.091116 
L 447.567371 113.98 
L 454.402204 113.28062 
L 461.237036 110.182434 
L 468.071869 106.914304 
L 474.906702 106.24107 
L 481.741534 104.58086 
L 488.576367 104.456671 
L 495.411199 103.652711 
L 502.246032 103.325898 
L 509.080864 102.561156 
L 515.915697 97.240642 
L 522.750529 97.005336 
L 529.585362 96.770031 
L 536.420194 96.606625 
L 543.255027 94.985633 
L 550.089859 94.756864 
L 556.924692 94.684965 
L 563.759525 94.005194 
L 570.594357 92.593362 
L 577.42919 90.194555 
L 584.264022 89.031101 
L 591.098855 87.142122 
L 597.933687 86.410061 
L 604.76852 86.370844 
L 611.603352 86.01135 
L 618.438185 85.383869 
L 625.273017 84.939403 
L 632.10785 83.671369 
L 638.942682 83.344556 
L 645.777515 82.122276 
L 652.612347 82.050377 
L 659.44718 81.494795 
L 666.282013 81.266026 
L 673.116845 80.886923 
L 679.951678 80.553574 
L 686.78651 80.272515 
L 693.621343 80.037209 
L 700.456175 79.429337 
L 707.291008 79.18096 
L 714.12584 78.991408 
L 720.960673 78.409681 
L 727.795505 77.396561 
L 734.630338 76.148136 
L 741.46517 75.840931 
" style="fill:none;stroke:#ffbb78;stroke-linecap:square;stroke-width:1.5;"/>
   </g>
   <g id="line2d_24">
    <path clip-path="url(#p257bad8bf0)" d="M 92.15608 219.435995 
L 98.990912 200.853412 
L 105.825745 195.742058 
L 112.660577 184.042155 
L 119.49541 183.643443 
L 126.330242 183.297021 
L 133.165075 182.551888 
L 139.999907 180.447213 
L 146.83474 176.179036 
L 153.669572 175.708425 
L 160.504405 175.440439 
L 167.339237 170.734333 
L 174.17407 165.002034 
L 181.008903 162.400603 
L 187.843735 160.328609 
L 194.678568 157.890585 
L 201.5134 155.491778 
L 208.348233 154.962341 
L 215.183065 153.759669 
L 222.017898 151.256282 
L 228.85273 149.020882 
L 235.687563 146.569785 
L 242.522395 145.229852 
L 249.357228 143.105568 
L 256.19206 142.040158 
L 263.026893 141.79178 
L 269.861725 138.798173 
L 276.696558 138.340635 
L 283.531391 137.425559 
L 290.366223 136.203279 
L 297.201056 132.49722 
L 304.035888 129.758528 
L 310.870721 128.954568 
L 317.705553 128.124463 
L 324.540386 127.320503 
L 331.375218 126.26163 
L 338.210051 120.941115 
L 345.044883 120.418214 
L 351.879716 120.130619 
L 358.714548 116.450706 
L 365.549381 115.535629 
L 372.384214 114.751278 
L 379.219046 113.881956 
L 386.053879 113.247939 
L 392.888711 112.064876 
L 399.723544 111.25438 
L 406.558376 111.130191 
L 413.393209 109.652997 
L 420.228041 107.986251 
L 427.062874 107.417596 
L 433.897706 106.201852 
L 440.732539 105.54169 
L 447.567371 101.391166 
L 454.402204 100.312683 
L 461.237036 99.737493 
L 468.071869 99.476042 
L 474.906702 98.639401 
L 481.741534 98.521748 
L 488.576367 98.149182 
L 495.411199 97.920413 
L 502.246032 96.482436 
L 509.080864 96.312493 
L 515.915697 95.77652 
L 522.750529 95.417026 
L 529.585362 94.135919 
L 536.420194 93.979049 
L 543.255027 93.939831 
L 550.089859 93.920222 
L 556.924692 93.848324 
L 563.759525 92.920175 
L 570.594357 92.031244 
L 577.42919 90.998515 
L 584.264022 90.573658 
L 591.098855 90.2207 
L 597.933687 89.835061 
L 604.76852 89.495175 
L 611.603352 88.743506 
L 618.438185 87.28592 
L 625.273017 87.02447 
L 632.10785 86.488497 
L 638.942682 85.808726 
L 645.777515 85.030911 
L 652.612347 82.53406 
L 659.44718 81.880434 
L 666.282013 81.41636 
L 673.116845 76.344223 
L 679.951678 76.213498 
L 686.78651 75.749424 
L 693.621343 75.553336 
L 700.456175 88.284334 
L 707.291008 88.251652 
L 714.12584 87.908499 
L 720.960673 87.606197 
L 727.795505 83.856018 
L 734.630338 83.782486 
L 741.46517 83.472013 
" style="fill:none;stroke:#ff7f0e;stroke-linecap:square;stroke-width:1.5;"/>
   </g>
   <g id="line2d_25"/>
   <g id="line2d_26"/>
   <g id="line2d_27"/>
   <g id="line2d_28"/>
   <g id="line2d_29"/>
   <g id="line2d_30">
    <path clip-path="url(#p257bad8bf0)" d="M 741.46517 288.430125 
L 741.46517 22.318125 
" style="fill:none;stroke:#ff0000;stroke-linecap:square;stroke-width:1.5;"/>
   </g>
   <g id="patch_3">
    <path d="M 59.690625 283.073008 
L 59.690625 54.30396 
" style="fill:none;stroke:#000000;stroke-linecap:square;stroke-linejoin:miter;stroke-width:0.8;"/>
   </g>
   <g id="patch_4">
    <path d="M 92.15608 288.430125 
L 693.621343 288.430125 
" style="fill:none;stroke:#000000;stroke-linecap:square;stroke-linejoin:miter;stroke-width:0.8;"/>
   </g>
   <g id="text_23">
    <!-- sqlite3_ossfuzz (24h, 4 trials/fuzzer) -->
    <g transform="translate(308.633438 16.318125)scale(0.12 -0.12)">
     <defs>
      <path d="M 44.28125 53.078125 
L 44.28125 44.578125 
Q 40.484375 46.53125 36.375 47.5 
Q 32.28125 48.484375 27.875 48.484375 
Q 21.1875 48.484375 17.84375 46.4375 
Q 14.5 44.390625 14.5 40.28125 
Q 14.5 37.15625 16.890625 35.375 
Q 19.28125 33.59375 26.515625 31.984375 
L 29.59375 31.296875 
Q 39.15625 29.25 43.1875 25.515625 
Q 47.21875 21.78125 47.21875 15.09375 
Q 47.21875 7.46875 41.1875 3.015625 
Q 35.15625 -1.421875 24.609375 -1.421875 
Q 20.21875 -1.421875 15.453125 -0.5625 
Q 10.6875 0.296875 5.421875 2 
L 5.421875 11.28125 
Q 10.40625 8.6875 15.234375 7.390625 
Q 20.0625 6.109375 24.8125 6.109375 
Q 31.15625 6.109375 34.5625 8.28125 
Q 37.984375 10.453125 37.984375 14.40625 
Q 37.984375 18.0625 35.515625 20.015625 
Q 33.0625 21.96875 24.703125 23.78125 
L 21.578125 24.515625 
Q 13.234375 26.265625 9.515625 29.90625 
Q 5.8125 33.546875 5.8125 39.890625 
Q 5.8125 47.609375 11.28125 51.796875 
Q 16.75 56 26.8125 56 
Q 31.78125 56 36.171875 55.265625 
Q 40.578125 54.546875 44.28125 53.078125 
z
" id="DejaVuSans-115"/>
      <path d="M 14.796875 27.296875 
Q 14.796875 17.390625 18.875 11.75 
Q 22.953125 6.109375 30.078125 6.109375 
Q 37.203125 6.109375 41.296875 11.75 
Q 45.40625 17.390625 45.40625 27.296875 
Q 45.40625 37.203125 41.296875 42.84375 
Q 37.203125 48.484375 30.078125 48.484375 
Q 22.953125 48.484375 18.875 42.84375 
Q 14.796875 37.203125 14.796875 27.296875 
z
M 45.40625 8.203125 
Q 42.578125 3.328125 38.25 0.953125 
Q 33.9375 -1.421875 27.875 -1.421875 
Q 17.96875 -1.421875 11.734375 6.484375 
Q 5.515625 14.40625 5.515625 27.296875 
Q 5.515625 40.1875 11.734375 48.09375 
Q 17.96875 56 27.875 56 
Q 33.9375 56 38.25 53.625 
Q 42.578125 51.265625 45.40625 46.390625 
L 45.40625 54.6875 
L 54.390625 54.6875 
L 54.390625 -20.796875 
L 45.40625 -20.796875 
z
" id="DejaVuSans-113"/>
      <path d="M 9.421875 75.984375 
L 18.40625 75.984375 
L 18.40625 0 
L 9.421875 0 
z
" id="DejaVuSans-108"/>
      <path d="M 50.984375 -16.609375 
L 50.984375 -23.578125 
L -0.984375 -23.578125 
L -0.984375 -16.609375 
z
" id="DejaVuSans-95"/>
      <path d="M 37.109375 75.984375 
L 37.109375 68.5 
L 28.515625 68.5 
Q 23.6875 68.5 21.796875 66.546875 
Q 19.921875 64.59375 19.921875 59.515625 
L 19.921875 54.6875 
L 34.71875 54.6875 
L 34.71875 47.703125 
L 19.921875 47.703125 
L 19.921875 0 
L 10.890625 0 
L 10.890625 47.703125 
L 2.296875 47.703125 
L 2.296875 54.6875 
L 10.890625 54.6875 
L 10.890625 58.5 
Q 10.890625 67.625 15.140625 71.796875 
Q 19.390625 75.984375 28.609375 75.984375 
z
" id="DejaVuSans-102"/>
      <path d="M 5.515625 54.6875 
L 48.1875 54.6875 
L 48.1875 46.484375 
L 14.40625 7.171875 
L 48.1875 7.171875 
L 48.1875 0 
L 4.296875 0 
L 4.296875 8.203125 
L 38.09375 47.515625 
L 5.515625 47.515625 
z
" id="DejaVuSans-122"/>
      <path d="M 11.71875 12.40625 
L 22.015625 12.40625 
L 22.015625 4 
L 14.015625 -11.625 
L 7.71875 -11.625 
L 11.71875 4 
z
" id="DejaVuSans-44"/>
      <path d="M 25.390625 72.90625 
L 33.6875 72.90625 
L 8.296875 -9.28125 
L 0 -9.28125 
z
" id="DejaVuSans-47"/>
     </defs>
     <use xlink:href="#DejaVuSans-115"/>
     <use x="52.099609" xlink:href="#DejaVuSans-113"/>
     <use x="115.576172" xlink:href="#DejaVuSans-108"/>
     <use x="143.359375" xlink:href="#DejaVuSans-105"/>
     <use x="171.142578" xlink:href="#DejaVuSans-116"/>
     <use x="210.351562" xlink:href="#DejaVuSans-101"/>
     <use x="271.875" xlink:href="#DejaVuSans-51"/>
     <use x="335.498047" xlink:href="#DejaVuSans-95"/>
     <use x="385.498047" xlink:href="#DejaVuSans-111"/>
     <use x="446.679688" xlink:href="#DejaVuSans-115"/>
     <use x="498.779297" xlink:href="#DejaVuSans-115"/>
     <use x="550.878906" xlink:href="#DejaVuSans-102"/>
     <use x="586.083984" xlink:href="#DejaVuSans-117"/>
     <use x="649.462891" xlink:href="#DejaVuSans-122"/>
     <use x="701.953125" xlink:href="#DejaVuSans-122"/>
     <use x="754.443359" xlink:href="#DejaVuSans-32"/>
     <use x="786.230469" xlink:href="#DejaVuSans-40"/>
     <use x="825.244141" xlink:href="#DejaVuSans-50"/>
     <use x="888.867188" xlink:href="#DejaVuSans-52"/>
     <use x="952.490234" xlink:href="#DejaVuSans-104"/>
     <use x="1015.869141" xlink:href="#DejaVuSans-44"/>
     <use x="1047.65625" xlink:href="#DejaVuSans-32"/>
     <use x="1079.443359" xlink:href="#DejaVuSans-52"/>
     <use x="1143.066406" xlink:href="#DejaVuSans-32"/>
     <use x="1174.853516" xlink:href="#DejaVuSans-116"/>
     <use x="1214.0625" xlink:href="#DejaVuSans-114"/>
     <use x="1255.175781" xlink:href="#DejaVuSans-105"/>
     <use x="1282.958984" xlink:href="#DejaVuSans-97"/>
     <use x="1344.238281" xlink:href="#DejaVuSans-108"/>
     <use x="1372.021484" xlink:href="#DejaVuSans-115"/>
     <use x="1424.121094" xlink:href="#DejaVuSans-47"/>
     <use x="1457.8125" xlink:href="#DejaVuSans-102"/>
     <use x="1493.017578" xlink:href="#DejaVuSans-117"/>
     <use x="1556.396484" xlink:href="#DejaVuSans-122"/>
     <use x="1608.886719" xlink:href="#DejaVuSans-122"/>
     <use x="1661.376953" xlink:href="#DejaVuSans-101"/>
     <use x="1722.900391" xlink:href="#DejaVuSans-114"/>
     <use x="1764.013672" xlink:href="#DejaVuSans-41"/>
    </g>
   </g>
   <g id="legend_1">
    <g id="line2d_31">
     <path d="M 777.930625 30.416563 
L 797.930625 30.416563 
" style="fill:none;"/>
    </g>
    <g id="line2d_32"/>
    <g id="text_24">
     <!-- fuzzer -->
     <g transform="translate(805.930625 33.916563)scale(0.1 -0.1)">
      <use xlink:href="#DejaVuSans-102"/>
      <use x="35.205078" xlink:href="#DejaVuSans-117"/>
      <use x="98.583984" xlink:href="#DejaVuSans-122"/>
      <use x="151.074219" xlink:href="#DejaVuSans-122"/>
      <use x="203.564453" xlink:href="#DejaVuSans-101"/>
      <use x="265.087891" xlink:href="#DejaVuSans-114"/>
     </g>
    </g>
    <g id="line2d_33">
     <path d="M 777.930625 45.094688 
L 797.930625 45.094688 
" style="fill:none;stroke:#1f77b4;stroke-linecap:square;stroke-width:1.5;"/>
    </g>
    <g id="line2d_34"/>
    <g id="text_25">
     <!-- start_0 -->
     <g transform="translate(805.930625 48.594688)scale(0.1 -0.1)">
      <use xlink:href="#DejaVuSans-115"/>
      <use x="52.099609" xlink:href="#DejaVuSans-116"/>
      <use x="91.308594" xlink:href="#DejaVuSans-97"/>
      <use x="152.587891" xlink:href="#DejaVuSans-114"/>
      <use x="193.701172" xlink:href="#DejaVuSans-116"/>
      <use x="232.910156" xlink:href="#DejaVuSans-95"/>
      <use x="282.910156" xlink:href="#DejaVuSans-48"/>
     </g>
    </g>
    <g id="line2d_35">
     <path d="M 777.930625 60.050938 
L 797.930625 60.050938 
" style="fill:none;stroke:#aec7e8;stroke-linecap:square;stroke-width:1.5;"/>
    </g>
    <g id="line2d_36"/>
    <g id="text_26">
     <!-- start_1 -->
     <g transform="translate(805.930625 63.550938)scale(0.1 -0.1)">
      <use xlink:href="#DejaVuSans-115"/>
      <use x="52.099609" xlink:href="#DejaVuSans-116"/>
      <use x="91.308594" xlink:href="#DejaVuSans-97"/>
      <use x="152.587891" xlink:href="#DejaVuSans-114"/>
      <use x="193.701172" xlink:href="#DejaVuSans-116"/>
      <use x="232.910156" xlink:href="#DejaVuSans-95"/>
      <use x="282.910156" xlink:href="#DejaVuSans-49"/>
     </g>
    </g>
    <g id="line2d_37">
     <path d="M 777.930625 75.007188 
L 797.930625 75.007188 
" style="fill:none;stroke:#ffbb78;stroke-linecap:square;stroke-width:1.5;"/>
    </g>
    <g id="line2d_38"/>
    <g id="text_27">
     <!-- start_3 -->
     <g transform="translate(805.930625 78.507188)scale(0.1 -0.1)">
      <use xlink:href="#DejaVuSans-115"/>
      <use x="52.099609" xlink:href="#DejaVuSans-116"/>
      <use x="91.308594" xlink:href="#DejaVuSans-97"/>
      <use x="152.587891" xlink:href="#DejaVuSans-114"/>
      <use x="193.701172" xlink:href="#DejaVuSans-116"/>
      <use x="232.910156" xlink:href="#DejaVuSans-95"/>
      <use x="282.910156" xlink:href="#DejaVuSans-51"/>
     </g>
    </g>
    <g id="line2d_39">
     <path d="M 777.930625 89.963438 
L 797.930625 89.963438 
" style="fill:none;stroke:#ff7f0e;stroke-linecap:square;stroke-width:1.5;"/>
    </g>
    <g id="line2d_40"/>
    <g id="text_28">
     <!-- start_2 -->
     <g transform="translate(805.930625 93.463438)scale(0.1 -0.1)">
      <use xlink:href="#DejaVuSans-115"/>
      <use x="52.099609" xlink:href="#DejaVuSans-116"/>
      <use x="91.308594" xlink:href="#DejaVuSans-97"/>
      <use x="152.587891" xlink:href="#DejaVuSans-114"/>
      <use x="193.701172" xlink:href="#DejaVuSans-116"/>
      <use x="232.910156" xlink:href="#DejaVuSans-95"/>
      <use x="282.910156" xlink:href="#DejaVuSans-50"/>
     </g>
    </g>
   </g>
  </g>
 </g>
 <defs>
  <clipPath id="p257bad8bf0">
   <rect height="266.112" width="714.24" x="59.690625" y="22.318125"/>
  </clipPath>
 </defs>
</svg>
