<?xml version="1.0" encoding="utf-8" standalone="no"?>
<!DOCTYPE svg PUBLIC "-//W3C//DTD SVG 1.1//EN"
  "http://www.w3.org/Graphics/SVG/1.1/DTD/svg11.dtd">
<!-- Created with matplotlib (https://matplotlib.org/) -->
<svg height="358.280615pt" version="1.1" viewBox="0 0 424.010625 358.280615" width="424.010625pt" xmlns="http://www.w3.org/2000/svg" xmlns:xlink="http://www.w3.org/1999/xlink">
 <metadata>
  <rdf:RDF xmlns:cc="http://creativecommons.org/ns#" xmlns:dc="http://purl.org/dc/elements/1.1/" xmlns:rdf="http://www.w3.org/1999/02/22-rdf-syntax-ns#">
   <cc:Work>
    <dc:type rdf:resource="http://purl.org/dc/dcmitype/StillImage"/>
    <dc:date>2021-01-07T15:48:45.619329</dc:date>
    <dc:format>image/svg+xml</dc:format>
    <dc:creator>
     <cc:Agent>
      <dc:title>Matplotlib v3.3.2, https://matplotlib.org/</dc:title>
     </cc:Agent>
    </dc:creator>
   </cc:Work>
  </rdf:RDF>
 </metadata>
 <defs>
  <style type="text/css">*{stroke-linecap:butt;stroke-linejoin:round;}</style>
 </defs>
 <g id="figure_1">
  <g id="patch_1">
   <path d="M 0 358.280615 
L 424.010625 358.280615 
L 424.010625 -0 
L 0 -0 
z
" style="fill:#ffffff;"/>
  </g>
  <g id="axes_1">
   <g id="patch_2">
    <path d="M 59.690625 288.430125 
L 416.810625 288.430125 
L 416.810625 22.318125 
L 59.690625 22.318125 
z
" style="fill:#ffffff;"/>
   </g>
   <g id="PolyCollection_1">
    <defs>
     <path d="M 120.852867 -81.94649 
L 117.568383 -81.94649 
L 117.302792 -83.958785 
L 117.004959 -85.97108 
L 116.672931 -87.983375 
L 116.304975 -89.99567 
L 115.899648 -92.007965 
L 115.455859 -94.02026 
L 114.972943 -96.032555 
L 114.450721 -98.04485 
L 113.889564 -100.057145 
L 113.290444 -102.06944 
L 112.65498 -104.081735 
L 111.985468 -106.09403 
L 111.284897 -108.106325 
L 110.556947 -110.11862 
L 109.805974 -112.130915 
L 109.036964 -114.14321 
L 108.255476 -116.155505 
L 107.467559 -118.1678 
L 106.679648 -120.180095 
L 105.898441 -122.19239 
L 105.130765 -124.204685 
L 104.383414 -126.21698 
L 103.662993 -128.229275 
L 102.975746 -130.24157 
L 102.327384 -132.253865 
L 101.722917 -134.26616 
L 101.166505 -136.278455 
L 100.661307 -138.29075 
L 100.20937 -140.303045 
L 99.811531 -142.31534 
L 99.467351 -144.327635 
L 99.175095 -146.33993 
L 98.931731 -148.352225 
L 98.732984 -150.36452 
L 98.573421 -152.376815 
L 98.446574 -154.38911 
L 98.345107 -156.401404 
L 98.261006 -158.413699 
L 98.185806 -160.425994 
L 98.110835 -162.438289 
L 98.027475 -164.450584 
L 97.927429 -166.462879 
L 97.802995 -168.475174 
L 97.647319 -170.487469 
L 97.454645 -172.499764 
L 97.220524 -174.512059 
L 96.942004 -176.524354 
L 96.617773 -178.536649 
L 96.248255 -180.548944 
L 95.835665 -182.561239 
L 95.384001 -184.573534 
L 94.898991 -186.585829 
L 94.387984 -188.598124 
L 93.859792 -190.610419 
L 93.324484 -192.622714 
L 92.793146 -194.635009 
L 92.277602 -196.647304 
L 91.790109 -198.659599 
L 91.343048 -200.671894 
L 90.948594 -202.684189 
L 90.618402 -204.696484 
L 90.3633 -206.708779 
L 90.19301 -208.721074 
L 90.115898 -210.733369 
L 90.138758 -212.745664 
L 90.266656 -214.757959 
L 90.502801 -216.770254 
L 90.84849 -218.782549 
L 91.303084 -220.794844 
L 91.864057 -222.807139 
L 92.527072 -224.819434 
L 93.286123 -226.831729 
L 94.133697 -228.844024 
L 95.060982 -230.856319 
L 96.058095 -232.868614 
L 97.114326 -234.880908 
L 98.218397 -236.893203 
L 99.358715 -238.905498 
L 100.523625 -240.917793 
L 101.70165 -242.930088 
L 102.881705 -244.942383 
L 104.053295 -246.954678 
L 105.206684 -248.966973 
L 106.333026 -250.979268 
L 107.424477 -252.991563 
L 108.474263 -255.003858 
L 109.476721 -257.016153 
L 110.427313 -259.028448 
L 111.322605 -261.040743 
L 112.16023 -263.053038 
L 112.938827 -265.065333 
L 113.657959 -267.077628 
L 114.318026 -269.089923 
L 114.920162 -271.102218 
L 115.466132 -273.114513 
L 115.958224 -275.126808 
L 116.399142 -277.139103 
L 116.791908 -279.151398 
L 117.139765 -281.163693 
L 121.281485 -281.163693 
L 121.281485 -281.163693 
L 121.629342 -279.151398 
L 122.022108 -277.139103 
L 122.463026 -275.126808 
L 122.955118 -273.114513 
L 123.501088 -271.102218 
L 124.103224 -269.089923 
L 124.763291 -267.077628 
L 125.482423 -265.065333 
L 126.26102 -263.053038 
L 127.098645 -261.040743 
L 127.993937 -259.028448 
L 128.944529 -257.016153 
L 129.946987 -255.003858 
L 130.996773 -252.991563 
L 132.088224 -250.979268 
L 133.214566 -248.966973 
L 134.367955 -246.954678 
L 135.539545 -244.942383 
L 136.7196 -242.930088 
L 137.897625 -240.917793 
L 139.062535 -238.905498 
L 140.202853 -236.893203 
L 141.306924 -234.880908 
L 142.363155 -232.868614 
L 143.360268 -230.856319 
L 144.287553 -228.844024 
L 145.135127 -226.831729 
L 145.894178 -224.819434 
L 146.557193 -222.807139 
L 147.118166 -220.794844 
L 147.57276 -218.782549 
L 147.918449 -216.770254 
L 148.154594 -214.757959 
L 148.282492 -212.745664 
L 148.305352 -210.733369 
L 148.22824 -208.721074 
L 148.05795 -206.708779 
L 147.802848 -204.696484 
L 147.472656 -202.684189 
L 147.078202 -200.671894 
L 146.631141 -198.659599 
L 146.143648 -196.647304 
L 145.628104 -194.635009 
L 145.096766 -192.622714 
L 144.561458 -190.610419 
L 144.033266 -188.598124 
L 143.522259 -186.585829 
L 143.037249 -184.573534 
L 142.585585 -182.561239 
L 142.172995 -180.548944 
L 141.803477 -178.536649 
L 141.479246 -176.524354 
L 141.200726 -174.512059 
L 140.966605 -172.499764 
L 140.773931 -170.487469 
L 140.618255 -168.475174 
L 140.493821 -166.462879 
L 140.393775 -164.450584 
L 140.310415 -162.438289 
L 140.235444 -160.425994 
L 140.160244 -158.413699 
L 140.076143 -156.401404 
L 139.974676 -154.38911 
L 139.847829 -152.376815 
L 139.688266 -150.36452 
L 139.489519 -148.352225 
L 139.246155 -146.33993 
L 138.953899 -144.327635 
L 138.609719 -142.31534 
L 138.21188 -140.303045 
L 137.759943 -138.29075 
L 137.254745 -136.278455 
L 136.698333 -134.26616 
L 136.093866 -132.253865 
L 135.445504 -130.24157 
L 134.758257 -128.229275 
L 134.037836 -126.21698 
L 133.290485 -124.204685 
L 132.522809 -122.19239 
L 131.741602 -120.180095 
L 130.953691 -118.1678 
L 130.165774 -116.155505 
L 129.384286 -114.14321 
L 128.615276 -112.130915 
L 127.864303 -110.11862 
L 127.136353 -108.106325 
L 126.435782 -106.09403 
L 125.76627 -104.081735 
L 125.130806 -102.06944 
L 124.531686 -100.057145 
L 123.970529 -98.04485 
L 123.448307 -96.032555 
L 122.965391 -94.02026 
L 122.521602 -92.007965 
L 122.116275 -89.99567 
L 121.748319 -87.983375 
L 121.416291 -85.97108 
L 121.118458 -83.958785 
L 120.852867 -81.94649 
z
" id="md7c8f2b6a0" style="stroke:#3f3f3f;stroke-width:1.5;"/>
    </defs>
    <g clip-path="url(#p3edca32f85)">
     <use style="fill:#3274a1;stroke:#3f3f3f;stroke-width:1.5;" x="0" xlink:href="#md7c8f2b6a0" y="358.280615"/>
    </g>
   </g>
   <g id="PolyCollection_2">
    <defs>
     <path d="M 239.496564 -108.650562 
L 237.004686 -108.650562 
L 236.775782 -110.221633 
L 236.517589 -111.792703 
L 236.229059 -113.363774 
L 235.909668 -114.934845 
L 235.559509 -116.505916 
L 235.179377 -118.076987 
L 234.770836 -119.648057 
L 234.336262 -121.219128 
L 233.878857 -122.790199 
L 233.402628 -124.36127 
L 232.912326 -125.932341 
L 232.413351 -127.503411 
L 231.911608 -129.074482 
L 231.41333 -130.645553 
L 230.924862 -132.216624 
L 230.452425 -133.787695 
L 230.001848 -135.358765 
L 229.578309 -136.929836 
L 229.186063 -138.500907 
L 228.828198 -140.071978 
L 228.506414 -141.643048 
L 228.22085 -143.214119 
L 227.969951 -144.78519 
L 227.75041 -146.356261 
L 227.557165 -147.927332 
L 227.383471 -149.498402 
L 227.221038 -151.069473 
L 227.060234 -152.640544 
L 226.890345 -154.211615 
L 226.699884 -155.782686 
L 226.476932 -157.353756 
L 226.20951 -158.924827 
L 225.885945 -160.495898 
L 225.495241 -162.066969 
L 225.027425 -163.63804 
L 224.47386 -165.20911 
L 223.827516 -166.780181 
L 223.083188 -168.351252 
L 222.237659 -169.922323 
L 221.289804 -171.493394 
L 220.240627 -173.064464 
L 219.093247 -174.635535 
L 217.852825 -176.206606 
L 216.526439 -177.777677 
L 215.122928 -179.348748 
L 213.652683 -180.919818 
L 212.127429 -182.490889 
L 210.559981 -184.06196 
L 208.963994 -185.633031 
L 207.353709 -187.204101 
L 205.743714 -188.775172 
L 204.148713 -190.346243 
L 202.583322 -191.917314 
L 201.061883 -193.488385 
L 199.598314 -195.059455 
L 198.205988 -196.630526 
L 196.897638 -198.201597 
L 195.685298 -199.772668 
L 194.580258 -201.343739 
L 193.593048 -202.914809 
L 192.733422 -204.48588 
L 192.010356 -206.056951 
L 191.432027 -207.628022 
L 191.005795 -209.199093 
L 190.738147 -210.770163 
L 190.634625 -212.341234 
L 190.699726 -213.912305 
L 190.936769 -215.483376 
L 191.347744 -217.054447 
L 191.933142 -218.625517 
L 192.691778 -220.196588 
L 193.620625 -221.767659 
L 194.714669 -223.33873 
L 195.966793 -224.909801 
L 197.367726 -226.480871 
L 198.906041 -228.051942 
L 200.568232 -229.623013 
L 202.338863 -231.194084 
L 204.200805 -232.765154 
L 206.135527 -234.336225 
L 208.12347 -235.907296 
L 210.144458 -237.478367 
L 212.178146 -239.049438 
L 214.204485 -240.620508 
L 216.204175 -242.191579 
L 218.159099 -243.76265 
L 220.052703 -245.333721 
L 221.870327 -246.904792 
L 223.599454 -248.475862 
L 225.229889 -250.046933 
L 226.753843 -251.618004 
L 228.165945 -253.189075 
L 229.463175 -254.760146 
L 230.644719 -256.331216 
L 231.711784 -257.902287 
L 232.66735 -259.473358 
L 233.515907 -261.044429 
L 234.263165 -262.6155 
L 234.915763 -264.18657 
L 241.585487 -264.18657 
L 241.585487 -264.18657 
L 242.238085 -262.6155 
L 242.985343 -261.044429 
L 243.8339 -259.473358 
L 244.789466 -257.902287 
L 245.856531 -256.331216 
L 247.038075 -254.760146 
L 248.335305 -253.189075 
L 249.747407 -251.618004 
L 251.271361 -250.046933 
L 252.901796 -248.475862 
L 254.630923 -246.904792 
L 256.448547 -245.333721 
L 258.342151 -243.76265 
L 260.297075 -242.191579 
L 262.296765 -240.620508 
L 264.323104 -239.049438 
L 266.356792 -237.478367 
L 268.37778 -235.907296 
L 270.365723 -234.336225 
L 272.300445 -232.765154 
L 274.162387 -231.194084 
L 275.933018 -229.623013 
L 277.595209 -228.051942 
L 279.133524 -226.480871 
L 280.534457 -224.909801 
L 281.786581 -223.33873 
L 282.880625 -221.767659 
L 283.809472 -220.196588 
L 284.568108 -218.625517 
L 285.153506 -217.054447 
L 285.564481 -215.483376 
L 285.801524 -213.912305 
L 285.866625 -212.341234 
L 285.763103 -210.770163 
L 285.495455 -209.199093 
L 285.069223 -207.628022 
L 284.490894 -206.056951 
L 283.767828 -204.48588 
L 282.908202 -202.914809 
L 281.920992 -201.343739 
L 280.815952 -199.772668 
L 279.603612 -198.201597 
L 278.295262 -196.630526 
L 276.902936 -195.059455 
L 275.439367 -193.488385 
L 273.917928 -191.917314 
L 272.352537 -190.346243 
L 270.757536 -188.775172 
L 269.147541 -187.204101 
L 267.537256 -185.633031 
L 265.941269 -184.06196 
L 264.373821 -182.490889 
L 262.848567 -180.919818 
L 261.378322 -179.348748 
L 259.974811 -177.777677 
L 258.648425 -176.206606 
L 257.408003 -174.635535 
L 256.260623 -173.064464 
L 255.211446 -171.493394 
L 254.263591 -169.922323 
L 253.418062 -168.351252 
L 252.673734 -166.780181 
L 252.02739 -165.20911 
L 251.473825 -163.63804 
L 251.006009 -162.066969 
L 250.615305 -160.495898 
L 250.29174 -158.924827 
L 250.024318 -157.353756 
L 249.801366 -155.782686 
L 249.610905 -154.211615 
L 249.441016 -152.640544 
L 249.280212 -151.069473 
L 249.117779 -149.498402 
L 248.944085 -147.927332 
L 248.75084 -146.356261 
L 248.531299 -144.78519 
L 248.2804 -143.214119 
L 247.994836 -141.643048 
L 247.673052 -140.071978 
L 247.315187 -138.500907 
L 246.922941 -136.929836 
L 246.499402 -135.358765 
L 246.048825 -133.787695 
L 245.576388 -132.216624 
L 245.08792 -130.645553 
L 244.589642 -129.074482 
L 244.087899 -127.503411 
L 243.588924 -125.932341 
L 243.098622 -124.36127 
L 242.622393 -122.790199 
L 242.164988 -121.219128 
L 241.730414 -119.648057 
L 241.321873 -118.076987 
L 240.941741 -116.505916 
L 240.591582 -114.934845 
L 240.272191 -113.363774 
L 239.983661 -111.792703 
L 239.725468 -110.221633 
L 239.496564 -108.650562 
z
" id="m9c1475e1e0" style="stroke:#3f3f3f;stroke-width:1.5;"/>
    </defs>
    <g clip-path="url(#p3edca32f85)">
     <use style="fill:#c03d3e;stroke:#3f3f3f;stroke-width:1.5;" x="0" xlink:href="#m9c1475e1e0" y="358.280615"/>
    </g>
   </g>
   <g id="PolyCollection_3">
    <defs>
     <path d="M 358.763197 -84.445396 
L 355.818053 -84.445396 
L 355.56141 -86.863791 
L 355.270409 -89.282186 
L 354.942475 -91.700581 
L 354.57521 -94.118976 
L 354.166475 -96.537371 
L 353.714471 -98.955766 
L 353.217829 -101.374161 
L 352.675699 -103.792555 
L 352.087834 -106.21095 
L 351.454674 -108.629345 
L 350.777416 -111.04774 
L 350.058076 -113.466135 
L 349.299531 -115.88453 
L 348.505545 -118.302925 
L 347.680777 -120.72132 
L 346.83075 -123.139715 
L 345.961812 -125.558109 
L 345.081057 -127.976504 
L 344.19622 -130.394899 
L 343.315552 -132.813294 
L 342.44766 -135.231689 
L 341.601337 -137.650084 
L 340.785365 -140.068479 
L 340.00831 -142.486874 
L 339.278313 -144.905269 
L 338.602877 -147.323663 
L 337.988667 -149.742058 
L 337.441315 -152.160453 
L 336.965263 -154.578848 
L 336.563614 -156.997243 
L 336.238037 -159.415638 
L 335.988697 -161.834033 
L 335.814229 -164.252428 
L 335.711765 -166.670823 
L 335.676997 -169.089218 
L 335.704287 -171.507612 
L 335.786815 -173.926007 
L 335.916772 -176.344402 
L 336.085576 -178.762797 
L 336.284112 -181.181192 
L 336.502996 -183.599587 
L 336.732841 -186.017982 
L 336.964523 -188.436377 
L 337.18944 -190.854772 
L 337.399757 -193.273166 
L 337.588616 -195.691561 
L 337.750327 -198.109956 
L 337.880512 -200.528351 
L 337.976219 -202.946746 
L 338.03598 -205.365141 
L 338.059833 -207.783536 
L 338.049297 -210.201931 
L 338.007307 -212.620326 
L 337.938102 -215.03872 
L 337.847085 -217.457115 
L 337.740649 -219.87551 
L 337.625978 -222.293905 
L 337.510832 -224.7123 
L 337.403318 -227.130695 
L 337.311659 -229.54909 
L 337.243964 -231.967485 
L 337.208003 -234.38588 
L 337.211005 -236.804274 
L 337.259467 -239.222669 
L 337.358994 -241.641064 
L 337.514164 -244.059459 
L 337.728423 -246.477854 
L 338.004017 -248.896249 
L 338.341953 -251.314644 
L 338.741996 -253.733039 
L 339.202702 -256.151434 
L 339.72147 -258.569828 
L 340.294636 -260.988223 
L 340.917581 -263.406618 
L 341.584859 -265.825013 
L 342.290349 -268.243408 
L 343.027409 -270.661803 
L 343.789038 -273.080198 
L 344.568042 -275.498593 
L 345.357193 -277.916988 
L 346.149379 -280.335382 
L 346.937747 -282.753777 
L 347.715829 -285.172172 
L 348.477645 -287.590567 
L 349.217797 -290.008962 
L 349.931533 -292.427357 
L 350.614793 -294.845752 
L 351.264239 -297.264147 
L 351.877259 -299.682542 
L 352.451954 -302.100936 
L 352.987116 -304.519331 
L 353.48218 -306.937726 
L 353.937174 -309.356121 
L 354.352659 -311.774516 
L 354.729657 -314.192911 
L 355.069587 -316.611306 
L 355.374186 -319.029701 
L 355.645443 -321.448096 
L 355.885528 -323.86649 
L 358.695722 -323.86649 
L 358.695722 -323.86649 
L 358.935807 -321.448096 
L 359.207064 -319.029701 
L 359.511663 -316.611306 
L 359.851593 -314.192911 
L 360.228591 -311.774516 
L 360.644076 -309.356121 
L 361.09907 -306.937726 
L 361.594134 -304.519331 
L 362.129296 -302.100936 
L 362.703991 -299.682542 
L 363.317011 -297.264147 
L 363.966457 -294.845752 
L 364.649717 -292.427357 
L 365.363453 -290.008962 
L 366.103605 -287.590567 
L 366.865421 -285.172172 
L 367.643503 -282.753777 
L 368.431871 -280.335382 
L 369.224057 -277.916988 
L 370.013208 -275.498593 
L 370.792212 -273.080198 
L 371.553841 -270.661803 
L 372.290901 -268.243408 
L 372.996391 -265.825013 
L 373.663669 -263.406618 
L 374.286614 -260.988223 
L 374.85978 -258.569828 
L 375.378548 -256.151434 
L 375.839254 -253.733039 
L 376.239297 -251.314644 
L 376.577233 -248.896249 
L 376.852827 -246.477854 
L 377.067086 -244.059459 
L 377.222256 -241.641064 
L 377.321783 -239.222669 
L 377.370245 -236.804274 
L 377.373247 -234.38588 
L 377.337286 -231.967485 
L 377.269591 -229.54909 
L 377.177932 -227.130695 
L 377.070418 -224.7123 
L 376.955272 -222.293905 
L 376.840601 -219.87551 
L 376.734165 -217.457115 
L 376.643148 -215.03872 
L 376.573943 -212.620326 
L 376.531953 -210.201931 
L 376.521417 -207.783536 
L 376.54527 -205.365141 
L 376.605031 -202.946746 
L 376.700738 -200.528351 
L 376.830923 -198.109956 
L 376.992634 -195.691561 
L 377.181493 -193.273166 
L 377.39181 -190.854772 
L 377.616727 -188.436377 
L 377.848409 -186.017982 
L 378.078254 -183.599587 
L 378.297138 -181.181192 
L 378.495674 -178.762797 
L 378.664478 -176.344402 
L 378.794435 -173.926007 
L 378.876963 -171.507612 
L 378.904253 -169.089218 
L 378.869485 -166.670823 
L 378.767021 -164.252428 
L 378.592553 -161.834033 
L 378.343213 -159.415638 
L 378.017636 -156.997243 
L 377.615987 -154.578848 
L 377.139935 -152.160453 
L 376.592583 -149.742058 
L 375.978373 -147.323663 
L 375.302937 -144.905269 
L 374.57294 -142.486874 
L 373.795885 -140.068479 
L 372.979913 -137.650084 
L 372.13359 -135.231689 
L 371.265698 -132.813294 
L 370.38503 -130.394899 
L 369.500193 -127.976504 
L 368.619438 -125.558109 
L 367.7505 -123.139715 
L 366.900473 -120.72132 
L 366.075705 -118.302925 
L 365.281719 -115.88453 
L 364.523174 -113.466135 
L 363.803834 -111.04774 
L 363.126576 -108.629345 
L 362.493416 -106.21095 
L 361.905551 -103.792555 
L 361.363421 -101.374161 
L 360.866779 -98.955766 
L 360.414775 -96.537371 
L 360.00604 -94.118976 
L 359.638775 -91.700581 
L 359.310841 -89.282186 
L 359.01984 -86.863791 
L 358.763197 -84.445396 
z
" id="m01bdf80f5c" style="stroke:#3f3f3f;stroke-width:1.5;"/>
    </defs>
    <g clip-path="url(#p3edca32f85)">
     <use style="fill:#9fd495;stroke:#3f3f3f;stroke-width:1.5;" x="0" xlink:href="#m01bdf80f5c" y="358.280615"/>
    </g>
   </g>
   <g id="matplotlib.axis_1">
    <g id="xtick_1">
     <g id="line2d_1">
      <defs>
       <path d="M 0 0 
L 0 3.5 
" id="mbd5be2873c" style="stroke:#000000;stroke-width:0.8;"/>
      </defs>
      <g>
       <use style="stroke:#000000;stroke-width:0.8;" x="119.210625" xlink:href="#mbd5be2873c" y="288.430125"/>
      </g>
     </g>
     <g id="text_1">
      <!-- dark_stop_32 -->
      <g transform="translate(60.267824 335.360565)rotate(-30)scale(0.1 -0.1)">
       <defs>
        <path d="M 45.40625 46.390625 
L 45.40625 75.984375 
L 54.390625 75.984375 
L 54.390625 0 
L 45.40625 0 
L 45.40625 8.203125 
Q 42.578125 3.328125 38.25 0.953125 
Q 33.9375 -1.421875 27.875 -1.421875 
Q 17.96875 -1.421875 11.734375 6.484375 
Q 5.515625 14.40625 5.515625 27.296875 
Q 5.515625 40.1875 11.734375 48.09375 
Q 17.96875 56 27.875 56 
Q 33.9375 56 38.25 53.625 
Q 42.578125 51.265625 45.40625 46.390625 
z
M 14.796875 27.296875 
Q 14.796875 17.390625 18.875 11.75 
Q 22.953125 6.109375 30.078125 6.109375 
Q 37.203125 6.109375 41.296875 11.75 
Q 45.40625 17.390625 45.40625 27.296875 
Q 45.40625 37.203125 41.296875 42.84375 
Q 37.203125 48.484375 30.078125 48.484375 
Q 22.953125 48.484375 18.875 42.84375 
Q 14.796875 37.203125 14.796875 27.296875 
z
" id="DejaVuSans-100"/>
        <path d="M 34.28125 27.484375 
Q 23.390625 27.484375 19.1875 25 
Q 14.984375 22.515625 14.984375 16.5 
Q 14.984375 11.71875 18.140625 8.90625 
Q 21.296875 6.109375 26.703125 6.109375 
Q 34.1875 6.109375 38.703125 11.40625 
Q 43.21875 16.703125 43.21875 25.484375 
L 43.21875 27.484375 
z
M 52.203125 31.203125 
L 52.203125 0 
L 43.21875 0 
L 43.21875 8.296875 
Q 40.140625 3.328125 35.546875 0.953125 
Q 30.953125 -1.421875 24.3125 -1.421875 
Q 15.921875 -1.421875 10.953125 3.296875 
Q 6 8.015625 6 15.921875 
Q 6 25.140625 12.171875 29.828125 
Q 18.359375 34.515625 30.609375 34.515625 
L 43.21875 34.515625 
L 43.21875 35.40625 
Q 43.21875 41.609375 39.140625 45 
Q 35.0625 48.390625 27.6875 48.390625 
Q 23 48.390625 18.546875 47.265625 
Q 14.109375 46.140625 10.015625 43.890625 
L 10.015625 52.203125 
Q 14.9375 54.109375 19.578125 55.046875 
Q 24.21875 56 28.609375 56 
Q 40.484375 56 46.34375 49.84375 
Q 52.203125 43.703125 52.203125 31.203125 
z
" id="DejaVuSans-97"/>
        <path d="M 41.109375 46.296875 
Q 39.59375 47.171875 37.8125 47.578125 
Q 36.03125 48 33.890625 48 
Q 26.265625 48 22.1875 43.046875 
Q 18.109375 38.09375 18.109375 28.8125 
L 18.109375 0 
L 9.078125 0 
L 9.078125 54.6875 
L 18.109375 54.6875 
L 18.109375 46.1875 
Q 20.953125 51.171875 25.484375 53.578125 
Q 30.03125 56 36.53125 56 
Q 37.453125 56 38.578125 55.875 
Q 39.703125 55.765625 41.0625 55.515625 
z
" id="DejaVuSans-114"/>
        <path d="M 9.078125 75.984375 
L 18.109375 75.984375 
L 18.109375 31.109375 
L 44.921875 54.6875 
L 56.390625 54.6875 
L 27.390625 29.109375 
L 57.625 0 
L 45.90625 0 
L 18.109375 26.703125 
L 18.109375 0 
L 9.078125 0 
z
" id="DejaVuSans-107"/>
        <path d="M 50.984375 -16.609375 
L 50.984375 -23.578125 
L -0.984375 -23.578125 
L -0.984375 -16.609375 
z
" id="DejaVuSans-95"/>
        <path d="M 44.28125 53.078125 
L 44.28125 44.578125 
Q 40.484375 46.53125 36.375 47.5 
Q 32.28125 48.484375 27.875 48.484375 
Q 21.1875 48.484375 17.84375 46.4375 
Q 14.5 44.390625 14.5 40.28125 
Q 14.5 37.15625 16.890625 35.375 
Q 19.28125 33.59375 26.515625 31.984375 
L 29.59375 31.296875 
Q 39.15625 29.25 43.1875 25.515625 
Q 47.21875 21.78125 47.21875 15.09375 
Q 47.21875 7.46875 41.1875 3.015625 
Q 35.15625 -1.421875 24.609375 -1.421875 
Q 20.21875 -1.421875 15.453125 -0.5625 
Q 10.6875 0.296875 5.421875 2 
L 5.421875 11.28125 
Q 10.40625 8.6875 15.234375 7.390625 
Q 20.0625 6.109375 24.8125 6.109375 
Q 31.15625 6.109375 34.5625 8.28125 
Q 37.984375 10.453125 37.984375 14.40625 
Q 37.984375 18.0625 35.515625 20.015625 
Q 33.0625 21.96875 24.703125 23.78125 
L 21.578125 24.515625 
Q 13.234375 26.265625 9.515625 29.90625 
Q 5.8125 33.546875 5.8125 39.890625 
Q 5.8125 47.609375 11.28125 51.796875 
Q 16.75 56 26.8125 56 
Q 31.78125 56 36.171875 55.265625 
Q 40.578125 54.546875 44.28125 53.078125 
z
" id="DejaVuSans-115"/>
        <path d="M 18.3125 70.21875 
L 18.3125 54.6875 
L 36.8125 54.6875 
L 36.8125 47.703125 
L 18.3125 47.703125 
L 18.3125 18.015625 
Q 18.3125 11.328125 20.140625 9.421875 
Q 21.96875 7.515625 27.59375 7.515625 
L 36.8125 7.515625 
L 36.8125 0 
L 27.59375 0 
Q 17.1875 0 13.234375 3.875 
Q 9.28125 7.765625 9.28125 18.015625 
L 9.28125 47.703125 
L 2.6875 47.703125 
L 2.6875 54.6875 
L 9.28125 54.6875 
L 9.28125 70.21875 
z
" id="DejaVuSans-116"/>
        <path d="M 30.609375 48.390625 
Q 23.390625 48.390625 19.1875 42.75 
Q 14.984375 37.109375 14.984375 27.296875 
Q 14.984375 17.484375 19.15625 11.84375 
Q 23.34375 6.203125 30.609375 6.203125 
Q 37.796875 6.203125 41.984375 11.859375 
Q 46.1875 17.53125 46.1875 27.296875 
Q 46.1875 37.015625 41.984375 42.703125 
Q 37.796875 48.390625 30.609375 48.390625 
z
M 30.609375 56 
Q 42.328125 56 49.015625 48.375 
Q 55.71875 40.765625 55.71875 27.296875 
Q 55.71875 13.875 49.015625 6.21875 
Q 42.328125 -1.421875 30.609375 -1.421875 
Q 18.84375 -1.421875 12.171875 6.21875 
Q 5.515625 13.875 5.515625 27.296875 
Q 5.515625 40.765625 12.171875 48.375 
Q 18.84375 56 30.609375 56 
z
" id="DejaVuSans-111"/>
        <path d="M 18.109375 8.203125 
L 18.109375 -20.796875 
L 9.078125 -20.796875 
L 9.078125 54.6875 
L 18.109375 54.6875 
L 18.109375 46.390625 
Q 20.953125 51.265625 25.265625 53.625 
Q 29.59375 56 35.59375 56 
Q 45.5625 56 51.78125 48.09375 
Q 58.015625 40.1875 58.015625 27.296875 
Q 58.015625 14.40625 51.78125 6.484375 
Q 45.5625 -1.421875 35.59375 -1.421875 
Q 29.59375 -1.421875 25.265625 0.953125 
Q 20.953125 3.328125 18.109375 8.203125 
z
M 48.6875 27.296875 
Q 48.6875 37.203125 44.609375 42.84375 
Q 40.53125 48.484375 33.40625 48.484375 
Q 26.265625 48.484375 22.1875 42.84375 
Q 18.109375 37.203125 18.109375 27.296875 
Q 18.109375 17.390625 22.1875 11.75 
Q 26.265625 6.109375 33.40625 6.109375 
Q 40.53125 6.109375 44.609375 11.75 
Q 48.6875 17.390625 48.6875 27.296875 
z
" id="DejaVuSans-112"/>
        <path d="M 40.578125 39.3125 
Q 47.65625 37.796875 51.625 33 
Q 55.609375 28.21875 55.609375 21.1875 
Q 55.609375 10.40625 48.1875 4.484375 
Q 40.765625 -1.421875 27.09375 -1.421875 
Q 22.515625 -1.421875 17.65625 -0.515625 
Q 12.796875 0.390625 7.625 2.203125 
L 7.625 11.71875 
Q 11.71875 9.328125 16.59375 8.109375 
Q 21.484375 6.890625 26.8125 6.890625 
Q 36.078125 6.890625 40.9375 10.546875 
Q 45.796875 14.203125 45.796875 21.1875 
Q 45.796875 27.640625 41.28125 31.265625 
Q 36.765625 34.90625 28.71875 34.90625 
L 20.21875 34.90625 
L 20.21875 43.015625 
L 29.109375 43.015625 
Q 36.375 43.015625 40.234375 45.921875 
Q 44.09375 48.828125 44.09375 54.296875 
Q 44.09375 59.90625 40.109375 62.90625 
Q 36.140625 65.921875 28.71875 65.921875 
Q 24.65625 65.921875 20.015625 65.03125 
Q 15.375 64.15625 9.8125 62.3125 
L 9.8125 71.09375 
Q 15.4375 72.65625 20.34375 73.4375 
Q 25.25 74.21875 29.59375 74.21875 
Q 40.828125 74.21875 47.359375 69.109375 
Q 53.90625 64.015625 53.90625 55.328125 
Q 53.90625 49.265625 50.4375 45.09375 
Q 46.96875 40.921875 40.578125 39.3125 
z
" id="DejaVuSans-51"/>
        <path d="M 19.1875 8.296875 
L 53.609375 8.296875 
L 53.609375 0 
L 7.328125 0 
L 7.328125 8.296875 
Q 12.9375 14.109375 22.625 23.890625 
Q 32.328125 33.6875 34.8125 36.53125 
Q 39.546875 41.84375 41.421875 45.53125 
Q 43.3125 49.21875 43.3125 52.78125 
Q 43.3125 58.59375 39.234375 62.25 
Q 35.15625 65.921875 28.609375 65.921875 
Q 23.96875 65.921875 18.8125 64.3125 
Q 13.671875 62.703125 7.8125 59.421875 
L 7.8125 69.390625 
Q 13.765625 71.78125 18.9375 73 
Q 24.125 74.21875 28.421875 74.21875 
Q 39.75 74.21875 46.484375 68.546875 
Q 53.21875 62.890625 53.21875 53.421875 
Q 53.21875 48.921875 51.53125 44.890625 
Q 49.859375 40.875 45.40625 35.40625 
Q 44.1875 33.984375 37.640625 27.21875 
Q 31.109375 20.453125 19.1875 8.296875 
z
" id="DejaVuSans-50"/>
       </defs>
       <use xlink:href="#DejaVuSans-100"/>
       <use x="63.476562" xlink:href="#DejaVuSans-97"/>
       <use x="124.755859" xlink:href="#DejaVuSans-114"/>
       <use x="165.869141" xlink:href="#DejaVuSans-107"/>
       <use x="223.779297" xlink:href="#DejaVuSans-95"/>
       <use x="273.779297" xlink:href="#DejaVuSans-115"/>
       <use x="325.878906" xlink:href="#DejaVuSans-116"/>
       <use x="365.087891" xlink:href="#DejaVuSans-111"/>
       <use x="426.269531" xlink:href="#DejaVuSans-112"/>
       <use x="489.746094" xlink:href="#DejaVuSans-95"/>
       <use x="539.746094" xlink:href="#DejaVuSans-51"/>
       <use x="603.369141" xlink:href="#DejaVuSans-50"/>
      </g>
     </g>
    </g>
    <g id="xtick_2">
     <g id="line2d_2">
      <g>
       <use style="stroke:#000000;stroke-width:0.8;" x="238.250625" xlink:href="#mbd5be2873c" y="288.430125"/>
      </g>
     </g>
     <g id="text_2">
      <!-- develop_32 -->
      <g transform="translate(187.237369 330.78244)rotate(-30)scale(0.1 -0.1)">
       <defs>
        <path d="M 56.203125 29.59375 
L 56.203125 25.203125 
L 14.890625 25.203125 
Q 15.484375 15.921875 20.484375 11.0625 
Q 25.484375 6.203125 34.421875 6.203125 
Q 39.59375 6.203125 44.453125 7.46875 
Q 49.3125 8.734375 54.109375 11.28125 
L 54.109375 2.78125 
Q 49.265625 0.734375 44.1875 -0.34375 
Q 39.109375 -1.421875 33.890625 -1.421875 
Q 20.796875 -1.421875 13.15625 6.1875 
Q 5.515625 13.8125 5.515625 26.8125 
Q 5.515625 40.234375 12.765625 48.109375 
Q 20.015625 56 32.328125 56 
Q 43.359375 56 49.78125 48.890625 
Q 56.203125 41.796875 56.203125 29.59375 
z
M 47.21875 32.234375 
Q 47.125 39.59375 43.09375 43.984375 
Q 39.0625 48.390625 32.421875 48.390625 
Q 24.90625 48.390625 20.390625 44.140625 
Q 15.875 39.890625 15.1875 32.171875 
z
" id="DejaVuSans-101"/>
        <path d="M 2.984375 54.6875 
L 12.5 54.6875 
L 29.59375 8.796875 
L 46.6875 54.6875 
L 56.203125 54.6875 
L 35.6875 0 
L 23.484375 0 
z
" id="DejaVuSans-118"/>
        <path d="M 9.421875 75.984375 
L 18.40625 75.984375 
L 18.40625 0 
L 9.421875 0 
z
" id="DejaVuSans-108"/>
       </defs>
       <use xlink:href="#DejaVuSans-100"/>
       <use x="63.476562" xlink:href="#DejaVuSans-101"/>
       <use x="125" xlink:href="#DejaVuSans-118"/>
       <use x="184.179688" xlink:href="#DejaVuSans-101"/>
       <use x="245.703125" xlink:href="#DejaVuSans-108"/>
       <use x="273.486328" xlink:href="#DejaVuSans-111"/>
       <use x="334.667969" xlink:href="#DejaVuSans-112"/>
       <use x="398.144531" xlink:href="#DejaVuSans-95"/>
       <use x="448.144531" xlink:href="#DejaVuSans-51"/>
       <use x="511.767578" xlink:href="#DejaVuSans-50"/>
      </g>
     </g>
    </g>
    <g id="xtick_3">
     <g id="line2d_3">
      <g>
       <use style="stroke:#000000;stroke-width:0.8;" x="357.290625" xlink:href="#mbd5be2873c" y="288.430125"/>
      </g>
     </g>
     <g id="text_3">
      <!-- develop_16 -->
      <g transform="translate(306.277369 330.78244)rotate(-30)scale(0.1 -0.1)">
       <defs>
        <path d="M 12.40625 8.296875 
L 28.515625 8.296875 
L 28.515625 63.921875 
L 10.984375 60.40625 
L 10.984375 69.390625 
L 28.421875 72.90625 
L 38.28125 72.90625 
L 38.28125 8.296875 
L 54.390625 8.296875 
L 54.390625 0 
L 12.40625 0 
z
" id="DejaVuSans-49"/>
        <path d="M 33.015625 40.375 
Q 26.375 40.375 22.484375 35.828125 
Q 18.609375 31.296875 18.609375 23.390625 
Q 18.609375 15.53125 22.484375 10.953125 
Q 26.375 6.390625 33.015625 6.390625 
Q 39.65625 6.390625 43.53125 10.953125 
Q 47.40625 15.53125 47.40625 23.390625 
Q 47.40625 31.296875 43.53125 35.828125 
Q 39.65625 40.375 33.015625 40.375 
z
M 52.59375 71.296875 
L 52.59375 62.3125 
Q 48.875 64.0625 45.09375 64.984375 
Q 41.3125 65.921875 37.59375 65.921875 
Q 27.828125 65.921875 22.671875 59.328125 
Q 17.53125 52.734375 16.796875 39.40625 
Q 19.671875 43.65625 24.015625 45.921875 
Q 28.375 48.1875 33.59375 48.1875 
Q 44.578125 48.1875 50.953125 41.515625 
Q 57.328125 34.859375 57.328125 23.390625 
Q 57.328125 12.15625 50.6875 5.359375 
Q 44.046875 -1.421875 33.015625 -1.421875 
Q 20.359375 -1.421875 13.671875 8.265625 
Q 6.984375 17.96875 6.984375 36.375 
Q 6.984375 53.65625 15.1875 63.9375 
Q 23.390625 74.21875 37.203125 74.21875 
Q 40.921875 74.21875 44.703125 73.484375 
Q 48.484375 72.75 52.59375 71.296875 
z
" id="DejaVuSans-54"/>
       </defs>
       <use xlink:href="#DejaVuSans-100"/>
       <use x="63.476562" xlink:href="#DejaVuSans-101"/>
       <use x="125" xlink:href="#DejaVuSans-118"/>
       <use x="184.179688" xlink:href="#DejaVuSans-101"/>
       <use x="245.703125" xlink:href="#DejaVuSans-108"/>
       <use x="273.486328" xlink:href="#DejaVuSans-111"/>
       <use x="334.667969" xlink:href="#DejaVuSans-112"/>
       <use x="398.144531" xlink:href="#DejaVuSans-95"/>
       <use x="448.144531" xlink:href="#DejaVuSans-49"/>
       <use x="511.767578" xlink:href="#DejaVuSans-54"/>
      </g>
     </g>
    </g>
    <g id="text_4">
     <!-- Fuzzer (highest median coverage on the left) -->
     <g transform="translate(125.632656 349.000928)scale(0.1 -0.1)">
      <defs>
       <path d="M 9.8125 72.90625 
L 51.703125 72.90625 
L 51.703125 64.59375 
L 19.671875 64.59375 
L 19.671875 43.109375 
L 48.578125 43.109375 
L 48.578125 34.8125 
L 19.671875 34.8125 
L 19.671875 0 
L 9.8125 0 
z
" id="DejaVuSans-70"/>
       <path d="M 8.5 21.578125 
L 8.5 54.6875 
L 17.484375 54.6875 
L 17.484375 21.921875 
Q 17.484375 14.15625 20.5 10.265625 
Q 23.53125 6.390625 29.59375 6.390625 
Q 36.859375 6.390625 41.078125 11.03125 
Q 45.3125 15.671875 45.3125 23.6875 
L 45.3125 54.6875 
L 54.296875 54.6875 
L 54.296875 0 
L 45.3125 0 
L 45.3125 8.40625 
Q 42.046875 3.421875 37.71875 1 
Q 33.40625 -1.421875 27.6875 -1.421875 
Q 18.265625 -1.421875 13.375 4.4375 
Q 8.5 10.296875 8.5 21.578125 
z
M 31.109375 56 
z
" id="DejaVuSans-117"/>
       <path d="M 5.515625 54.6875 
L 48.1875 54.6875 
L 48.1875 46.484375 
L 14.40625 7.171875 
L 48.1875 7.171875 
L 48.1875 0 
L 4.296875 0 
L 4.296875 8.203125 
L 38.09375 47.515625 
L 5.515625 47.515625 
z
" id="DejaVuSans-122"/>
       <path id="DejaVuSans-32"/>
       <path d="M 31 75.875 
Q 24.46875 64.65625 21.28125 53.65625 
Q 18.109375 42.671875 18.109375 31.390625 
Q 18.109375 20.125 21.3125 9.0625 
Q 24.515625 -2 31 -13.1875 
L 23.1875 -13.1875 
Q 15.875 -1.703125 12.234375 9.375 
Q 8.59375 20.453125 8.59375 31.390625 
Q 8.59375 42.28125 12.203125 53.3125 
Q 15.828125 64.359375 23.1875 75.875 
z
" id="DejaVuSans-40"/>
       <path d="M 54.890625 33.015625 
L 54.890625 0 
L 45.90625 0 
L 45.90625 32.71875 
Q 45.90625 40.484375 42.875 44.328125 
Q 39.84375 48.1875 33.796875 48.1875 
Q 26.515625 48.1875 22.3125 43.546875 
Q 18.109375 38.921875 18.109375 30.90625 
L 18.109375 0 
L 9.078125 0 
L 9.078125 75.984375 
L 18.109375 75.984375 
L 18.109375 46.1875 
Q 21.34375 51.125 25.703125 53.5625 
Q 30.078125 56 35.796875 56 
Q 45.21875 56 50.046875 50.171875 
Q 54.890625 44.34375 54.890625 33.015625 
z
" id="DejaVuSans-104"/>
       <path d="M 9.421875 54.6875 
L 18.40625 54.6875 
L 18.40625 0 
L 9.421875 0 
z
M 9.421875 75.984375 
L 18.40625 75.984375 
L 18.40625 64.59375 
L 9.421875 64.59375 
z
" id="DejaVuSans-105"/>
       <path d="M 45.40625 27.984375 
Q 45.40625 37.75 41.375 43.109375 
Q 37.359375 48.484375 30.078125 48.484375 
Q 22.859375 48.484375 18.828125 43.109375 
Q 14.796875 37.75 14.796875 27.984375 
Q 14.796875 18.265625 18.828125 12.890625 
Q 22.859375 7.515625 30.078125 7.515625 
Q 37.359375 7.515625 41.375 12.890625 
Q 45.40625 18.265625 45.40625 27.984375 
z
M 54.390625 6.78125 
Q 54.390625 -7.171875 48.1875 -13.984375 
Q 42 -20.796875 29.203125 -20.796875 
Q 24.46875 -20.796875 20.265625 -20.09375 
Q 16.0625 -19.390625 12.109375 -17.921875 
L 12.109375 -9.1875 
Q 16.0625 -11.328125 19.921875 -12.34375 
Q 23.78125 -13.375 27.78125 -13.375 
Q 36.625 -13.375 41.015625 -8.765625 
Q 45.40625 -4.15625 45.40625 5.171875 
L 45.40625 9.625 
Q 42.625 4.78125 38.28125 2.390625 
Q 33.9375 0 27.875 0 
Q 17.828125 0 11.671875 7.65625 
Q 5.515625 15.328125 5.515625 27.984375 
Q 5.515625 40.671875 11.671875 48.328125 
Q 17.828125 56 27.875 56 
Q 33.9375 56 38.28125 53.609375 
Q 42.625 51.21875 45.40625 46.390625 
L 45.40625 54.6875 
L 54.390625 54.6875 
z
" id="DejaVuSans-103"/>
       <path d="M 52 44.1875 
Q 55.375 50.25 60.0625 53.125 
Q 64.75 56 71.09375 56 
Q 79.640625 56 84.28125 50.015625 
Q 88.921875 44.046875 88.921875 33.015625 
L 88.921875 0 
L 79.890625 0 
L 79.890625 32.71875 
Q 79.890625 40.578125 77.09375 44.375 
Q 74.3125 48.1875 68.609375 48.1875 
Q 61.625 48.1875 57.5625 43.546875 
Q 53.515625 38.921875 53.515625 30.90625 
L 53.515625 0 
L 44.484375 0 
L 44.484375 32.71875 
Q 44.484375 40.625 41.703125 44.40625 
Q 38.921875 48.1875 33.109375 48.1875 
Q 26.21875 48.1875 22.15625 43.53125 
Q 18.109375 38.875 18.109375 30.90625 
L 18.109375 0 
L 9.078125 0 
L 9.078125 54.6875 
L 18.109375 54.6875 
L 18.109375 46.1875 
Q 21.1875 51.21875 25.484375 53.609375 
Q 29.78125 56 35.6875 56 
Q 41.65625 56 45.828125 52.96875 
Q 50 49.953125 52 44.1875 
z
" id="DejaVuSans-109"/>
       <path d="M 54.890625 33.015625 
L 54.890625 0 
L 45.90625 0 
L 45.90625 32.71875 
Q 45.90625 40.484375 42.875 44.328125 
Q 39.84375 48.1875 33.796875 48.1875 
Q 26.515625 48.1875 22.3125 43.546875 
Q 18.109375 38.921875 18.109375 30.90625 
L 18.109375 0 
L 9.078125 0 
L 9.078125 54.6875 
L 18.109375 54.6875 
L 18.109375 46.1875 
Q 21.34375 51.125 25.703125 53.5625 
Q 30.078125 56 35.796875 56 
Q 45.21875 56 50.046875 50.171875 
Q 54.890625 44.34375 54.890625 33.015625 
z
" id="DejaVuSans-110"/>
       <path d="M 48.78125 52.59375 
L 48.78125 44.1875 
Q 44.96875 46.296875 41.140625 47.34375 
Q 37.3125 48.390625 33.40625 48.390625 
Q 24.65625 48.390625 19.8125 42.84375 
Q 14.984375 37.3125 14.984375 27.296875 
Q 14.984375 17.28125 19.8125 11.734375 
Q 24.65625 6.203125 33.40625 6.203125 
Q 37.3125 6.203125 41.140625 7.25 
Q 44.96875 8.296875 48.78125 10.40625 
L 48.78125 2.09375 
Q 45.015625 0.34375 40.984375 -0.53125 
Q 36.96875 -1.421875 32.421875 -1.421875 
Q 20.0625 -1.421875 12.78125 6.34375 
Q 5.515625 14.109375 5.515625 27.296875 
Q 5.515625 40.671875 12.859375 48.328125 
Q 20.21875 56 33.015625 56 
Q 37.15625 56 41.109375 55.140625 
Q 45.0625 54.296875 48.78125 52.59375 
z
" id="DejaVuSans-99"/>
       <path d="M 37.109375 75.984375 
L 37.109375 68.5 
L 28.515625 68.5 
Q 23.6875 68.5 21.796875 66.546875 
Q 19.921875 64.59375 19.921875 59.515625 
L 19.921875 54.6875 
L 34.71875 54.6875 
L 34.71875 47.703125 
L 19.921875 47.703125 
L 19.921875 0 
L 10.890625 0 
L 10.890625 47.703125 
L 2.296875 47.703125 
L 2.296875 54.6875 
L 10.890625 54.6875 
L 10.890625 58.5 
Q 10.890625 67.625 15.140625 71.796875 
Q 19.390625 75.984375 28.609375 75.984375 
z
" id="DejaVuSans-102"/>
       <path d="M 8.015625 75.875 
L 15.828125 75.875 
Q 23.140625 64.359375 26.78125 53.3125 
Q 30.421875 42.28125 30.421875 31.390625 
Q 30.421875 20.453125 26.78125 9.375 
Q 23.140625 -1.703125 15.828125 -13.1875 
L 8.015625 -13.1875 
Q 14.5 -2 17.703125 9.0625 
Q 20.90625 20.125 20.90625 31.390625 
Q 20.90625 42.671875 17.703125 53.65625 
Q 14.5 64.65625 8.015625 75.875 
z
" id="DejaVuSans-41"/>
      </defs>
      <use xlink:href="#DejaVuSans-70"/>
      <use x="52.019531" xlink:href="#DejaVuSans-117"/>
      <use x="115.398438" xlink:href="#DejaVuSans-122"/>
      <use x="167.888672" xlink:href="#DejaVuSans-122"/>
      <use x="220.378906" xlink:href="#DejaVuSans-101"/>
      <use x="281.902344" xlink:href="#DejaVuSans-114"/>
      <use x="323.015625" xlink:href="#DejaVuSans-32"/>
      <use x="354.802734" xlink:href="#DejaVuSans-40"/>
      <use x="393.816406" xlink:href="#DejaVuSans-104"/>
      <use x="457.195312" xlink:href="#DejaVuSans-105"/>
      <use x="484.978516" xlink:href="#DejaVuSans-103"/>
      <use x="548.455078" xlink:href="#DejaVuSans-104"/>
      <use x="611.833984" xlink:href="#DejaVuSans-101"/>
      <use x="673.357422" xlink:href="#DejaVuSans-115"/>
      <use x="725.457031" xlink:href="#DejaVuSans-116"/>
      <use x="764.666016" xlink:href="#DejaVuSans-32"/>
      <use x="796.453125" xlink:href="#DejaVuSans-109"/>
      <use x="893.865234" xlink:href="#DejaVuSans-101"/>
      <use x="955.388672" xlink:href="#DejaVuSans-100"/>
      <use x="1018.865234" xlink:href="#DejaVuSans-105"/>
      <use x="1046.648438" xlink:href="#DejaVuSans-97"/>
      <use x="1107.927734" xlink:href="#DejaVuSans-110"/>
      <use x="1171.306641" xlink:href="#DejaVuSans-32"/>
      <use x="1203.09375" xlink:href="#DejaVuSans-99"/>
      <use x="1258.074219" xlink:href="#DejaVuSans-111"/>
      <use x="1319.255859" xlink:href="#DejaVuSans-118"/>
      <use x="1378.435547" xlink:href="#DejaVuSans-101"/>
      <use x="1439.958984" xlink:href="#DejaVuSans-114"/>
      <use x="1481.072266" xlink:href="#DejaVuSans-97"/>
      <use x="1542.351562" xlink:href="#DejaVuSans-103"/>
      <use x="1605.828125" xlink:href="#DejaVuSans-101"/>
      <use x="1667.351562" xlink:href="#DejaVuSans-32"/>
      <use x="1699.138672" xlink:href="#DejaVuSans-111"/>
      <use x="1760.320312" xlink:href="#DejaVuSans-110"/>
      <use x="1823.699219" xlink:href="#DejaVuSans-32"/>
      <use x="1855.486328" xlink:href="#DejaVuSans-116"/>
      <use x="1894.695312" xlink:href="#DejaVuSans-104"/>
      <use x="1958.074219" xlink:href="#DejaVuSans-101"/>
      <use x="2019.597656" xlink:href="#DejaVuSans-32"/>
      <use x="2051.384766" xlink:href="#DejaVuSans-108"/>
      <use x="2079.167969" xlink:href="#DejaVuSans-101"/>
      <use x="2140.691406" xlink:href="#DejaVuSans-102"/>
      <use x="2174.146484" xlink:href="#DejaVuSans-116"/>
      <use x="2213.355469" xlink:href="#DejaVuSans-41"/>
     </g>
    </g>
   </g>
   <g id="matplotlib.axis_2">
    <g id="ytick_1">
     <g id="line2d_4">
      <defs>
       <path d="M 0 0 
L -3.5 0 
" id="mb4d2d11a5d" style="stroke:#000000;stroke-width:0.8;"/>
      </defs>
      <g>
       <use style="stroke:#000000;stroke-width:0.8;" x="59.690625" xlink:href="#mb4d2d11a5d" y="254.493433"/>
      </g>
     </g>
     <g id="text_5">
      <!-- 16000 -->
      <g transform="translate(20.878125 258.292652)scale(0.1 -0.1)">
       <defs>
        <path d="M 31.78125 66.40625 
Q 24.171875 66.40625 20.328125 58.90625 
Q 16.5 51.421875 16.5 36.375 
Q 16.5 21.390625 20.328125 13.890625 
Q 24.171875 6.390625 31.78125 6.390625 
Q 39.453125 6.390625 43.28125 13.890625 
Q 47.125 21.390625 47.125 36.375 
Q 47.125 51.421875 43.28125 58.90625 
Q 39.453125 66.40625 31.78125 66.40625 
z
M 31.78125 74.21875 
Q 44.046875 74.21875 50.515625 64.515625 
Q 56.984375 54.828125 56.984375 36.375 
Q 56.984375 17.96875 50.515625 8.265625 
Q 44.046875 -1.421875 31.78125 -1.421875 
Q 19.53125 -1.421875 13.0625 8.265625 
Q 6.59375 17.96875 6.59375 36.375 
Q 6.59375 54.828125 13.0625 64.515625 
Q 19.53125 74.21875 31.78125 74.21875 
z
" id="DejaVuSans-48"/>
       </defs>
       <use xlink:href="#DejaVuSans-49"/>
       <use x="63.623047" xlink:href="#DejaVuSans-54"/>
       <use x="127.246094" xlink:href="#DejaVuSans-48"/>
       <use x="190.869141" xlink:href="#DejaVuSans-48"/>
       <use x="254.492188" xlink:href="#DejaVuSans-48"/>
      </g>
     </g>
    </g>
    <g id="ytick_2">
     <g id="line2d_5">
      <g>
       <use style="stroke:#000000;stroke-width:0.8;" x="59.690625" xlink:href="#mb4d2d11a5d" y="206.812312"/>
      </g>
     </g>
     <g id="text_6">
      <!-- 16500 -->
      <g transform="translate(20.878125 210.61153)scale(0.1 -0.1)">
       <defs>
        <path d="M 10.796875 72.90625 
L 49.515625 72.90625 
L 49.515625 64.59375 
L 19.828125 64.59375 
L 19.828125 46.734375 
Q 21.96875 47.46875 24.109375 47.828125 
Q 26.265625 48.1875 28.421875 48.1875 
Q 40.625 48.1875 47.75 41.5 
Q 54.890625 34.8125 54.890625 23.390625 
Q 54.890625 11.625 47.5625 5.09375 
Q 40.234375 -1.421875 26.90625 -1.421875 
Q 22.3125 -1.421875 17.546875 -0.640625 
Q 12.796875 0.140625 7.71875 1.703125 
L 7.71875 11.625 
Q 12.109375 9.234375 16.796875 8.0625 
Q 21.484375 6.890625 26.703125 6.890625 
Q 35.15625 6.890625 40.078125 11.328125 
Q 45.015625 15.765625 45.015625 23.390625 
Q 45.015625 31 40.078125 35.4375 
Q 35.15625 39.890625 26.703125 39.890625 
Q 22.75 39.890625 18.8125 39.015625 
Q 14.890625 38.140625 10.796875 36.28125 
z
" id="DejaVuSans-53"/>
       </defs>
       <use xlink:href="#DejaVuSans-49"/>
       <use x="63.623047" xlink:href="#DejaVuSans-54"/>
       <use x="127.246094" xlink:href="#DejaVuSans-53"/>
       <use x="190.869141" xlink:href="#DejaVuSans-48"/>
       <use x="254.492188" xlink:href="#DejaVuSans-48"/>
      </g>
     </g>
    </g>
    <g id="ytick_3">
     <g id="line2d_6">
      <g>
       <use style="stroke:#000000;stroke-width:0.8;" x="59.690625" xlink:href="#mb4d2d11a5d" y="159.13119"/>
      </g>
     </g>
     <g id="text_7">
      <!-- 17000 -->
      <g transform="translate(20.878125 162.930409)scale(0.1 -0.1)">
       <defs>
        <path d="M 8.203125 72.90625 
L 55.078125 72.90625 
L 55.078125 68.703125 
L 28.609375 0 
L 18.3125 0 
L 43.21875 64.59375 
L 8.203125 64.59375 
z
" id="DejaVuSans-55"/>
       </defs>
       <use xlink:href="#DejaVuSans-49"/>
       <use x="63.623047" xlink:href="#DejaVuSans-55"/>
       <use x="127.246094" xlink:href="#DejaVuSans-48"/>
       <use x="190.869141" xlink:href="#DejaVuSans-48"/>
       <use x="254.492188" xlink:href="#DejaVuSans-48"/>
      </g>
     </g>
    </g>
    <g id="ytick_4">
     <g id="line2d_7">
      <g>
       <use style="stroke:#000000;stroke-width:0.8;" x="59.690625" xlink:href="#mb4d2d11a5d" y="111.450068"/>
      </g>
     </g>
     <g id="text_8">
      <!-- 17500 -->
      <g transform="translate(20.878125 115.249287)scale(0.1 -0.1)">
       <use xlink:href="#DejaVuSans-49"/>
       <use x="63.623047" xlink:href="#DejaVuSans-55"/>
       <use x="127.246094" xlink:href="#DejaVuSans-53"/>
       <use x="190.869141" xlink:href="#DejaVuSans-48"/>
       <use x="254.492188" xlink:href="#DejaVuSans-48"/>
      </g>
     </g>
    </g>
    <g id="ytick_5">
     <g id="line2d_8">
      <g>
       <use style="stroke:#000000;stroke-width:0.8;" x="59.690625" xlink:href="#mb4d2d11a5d" y="63.768946"/>
      </g>
     </g>
     <g id="text_9">
      <!-- 18000 -->
      <g transform="translate(20.878125 67.568165)scale(0.1 -0.1)">
       <defs>
        <path d="M 31.78125 34.625 
Q 24.75 34.625 20.71875 30.859375 
Q 16.703125 27.09375 16.703125 20.515625 
Q 16.703125 13.921875 20.71875 10.15625 
Q 24.75 6.390625 31.78125 6.390625 
Q 38.8125 6.390625 42.859375 10.171875 
Q 46.921875 13.96875 46.921875 20.515625 
Q 46.921875 27.09375 42.890625 30.859375 
Q 38.875 34.625 31.78125 34.625 
z
M 21.921875 38.8125 
Q 15.578125 40.375 12.03125 44.71875 
Q 8.5 49.078125 8.5 55.328125 
Q 8.5 64.0625 14.71875 69.140625 
Q 20.953125 74.21875 31.78125 74.21875 
Q 42.671875 74.21875 48.875 69.140625 
Q 55.078125 64.0625 55.078125 55.328125 
Q 55.078125 49.078125 51.53125 44.71875 
Q 48 40.375 41.703125 38.8125 
Q 48.828125 37.15625 52.796875 32.3125 
Q 56.78125 27.484375 56.78125 20.515625 
Q 56.78125 9.90625 50.3125 4.234375 
Q 43.84375 -1.421875 31.78125 -1.421875 
Q 19.734375 -1.421875 13.25 4.234375 
Q 6.78125 9.90625 6.78125 20.515625 
Q 6.78125 27.484375 10.78125 32.3125 
Q 14.796875 37.15625 21.921875 38.8125 
z
M 18.3125 54.390625 
Q 18.3125 48.734375 21.84375 45.5625 
Q 25.390625 42.390625 31.78125 42.390625 
Q 38.140625 42.390625 41.71875 45.5625 
Q 45.3125 48.734375 45.3125 54.390625 
Q 45.3125 60.0625 41.71875 63.234375 
Q 38.140625 66.40625 31.78125 66.40625 
Q 25.390625 66.40625 21.84375 63.234375 
Q 18.3125 60.0625 18.3125 54.390625 
z
" id="DejaVuSans-56"/>
       </defs>
       <use xlink:href="#DejaVuSans-49"/>
       <use x="63.623047" xlink:href="#DejaVuSans-56"/>
       <use x="127.246094" xlink:href="#DejaVuSans-48"/>
       <use x="190.869141" xlink:href="#DejaVuSans-48"/>
       <use x="254.492188" xlink:href="#DejaVuSans-48"/>
      </g>
     </g>
    </g>
    <g id="text_10">
     <!-- Reached region coverage -->
     <g transform="translate(14.798438 219.136625)rotate(-90)scale(0.1 -0.1)">
      <defs>
       <path d="M 44.390625 34.1875 
Q 47.5625 33.109375 50.5625 29.59375 
Q 53.5625 26.078125 56.59375 19.921875 
L 66.609375 0 
L 56 0 
L 46.6875 18.703125 
Q 43.0625 26.03125 39.671875 28.421875 
Q 36.28125 30.8125 30.421875 30.8125 
L 19.671875 30.8125 
L 19.671875 0 
L 9.8125 0 
L 9.8125 72.90625 
L 32.078125 72.90625 
Q 44.578125 72.90625 50.734375 67.671875 
Q 56.890625 62.453125 56.890625 51.90625 
Q 56.890625 45.015625 53.6875 40.46875 
Q 50.484375 35.9375 44.390625 34.1875 
z
M 19.671875 64.796875 
L 19.671875 38.921875 
L 32.078125 38.921875 
Q 39.203125 38.921875 42.84375 42.21875 
Q 46.484375 45.515625 46.484375 51.90625 
Q 46.484375 58.296875 42.84375 61.546875 
Q 39.203125 64.796875 32.078125 64.796875 
z
" id="DejaVuSans-82"/>
      </defs>
      <use xlink:href="#DejaVuSans-82"/>
      <use x="64.982422" xlink:href="#DejaVuSans-101"/>
      <use x="126.505859" xlink:href="#DejaVuSans-97"/>
      <use x="187.785156" xlink:href="#DejaVuSans-99"/>
      <use x="242.765625" xlink:href="#DejaVuSans-104"/>
      <use x="306.144531" xlink:href="#DejaVuSans-101"/>
      <use x="367.667969" xlink:href="#DejaVuSans-100"/>
      <use x="431.144531" xlink:href="#DejaVuSans-32"/>
      <use x="462.931641" xlink:href="#DejaVuSans-114"/>
      <use x="501.794922" xlink:href="#DejaVuSans-101"/>
      <use x="563.318359" xlink:href="#DejaVuSans-103"/>
      <use x="626.794922" xlink:href="#DejaVuSans-105"/>
      <use x="654.578125" xlink:href="#DejaVuSans-111"/>
      <use x="715.759766" xlink:href="#DejaVuSans-110"/>
      <use x="779.138672" xlink:href="#DejaVuSans-32"/>
      <use x="810.925781" xlink:href="#DejaVuSans-99"/>
      <use x="865.90625" xlink:href="#DejaVuSans-111"/>
      <use x="927.087891" xlink:href="#DejaVuSans-118"/>
      <use x="986.267578" xlink:href="#DejaVuSans-101"/>
      <use x="1047.791016" xlink:href="#DejaVuSans-114"/>
      <use x="1088.904297" xlink:href="#DejaVuSans-97"/>
      <use x="1150.183594" xlink:href="#DejaVuSans-103"/>
      <use x="1213.660156" xlink:href="#DejaVuSans-101"/>
     </g>
    </g>
   </g>
   <g id="line2d_9">
    <path clip-path="url(#p3edca32f85)" d="M 119.210625 220.258388 
L 119.210625 133.19266 
" style="fill:none;stroke:#3f3f3f;stroke-linecap:square;stroke-width:1.5;"/>
   </g>
   <g id="line2d_10">
    <path clip-path="url(#p3edca32f85)" d="M 119.210625 204.046807 
L 119.210625 146.257287 
" style="fill:none;stroke:#3f3f3f;stroke-linecap:square;stroke-width:4.5;"/>
   </g>
   <g id="line2d_11">
    <path clip-path="url(#p3edca32f85)" d="M 238.250625 174.103062 
L 238.250625 130.617879 
" style="fill:none;stroke:#3f3f3f;stroke-linecap:square;stroke-width:1.5;"/>
   </g>
   <g id="line2d_12">
    <path clip-path="url(#p3edca32f85)" d="M 238.250625 163.446331 
L 238.250625 132.882732 
" style="fill:none;stroke:#3f3f3f;stroke-linecap:square;stroke-width:4.5;"/>
   </g>
   <g id="line2d_13">
    <path clip-path="url(#p3edca32f85)" d="M 357.290625 208.719557 
L 357.290625 99.529788 
" style="fill:none;stroke:#3f3f3f;stroke-linecap:square;stroke-width:1.5;"/>
   </g>
   <g id="line2d_14">
    <path clip-path="url(#p3edca32f85)" d="M 357.290625 192.126526 
L 357.290625 117.267165 
" style="fill:none;stroke:#3f3f3f;stroke-linecap:square;stroke-width:4.5;"/>
   </g>
   <g id="patch_3">
    <path d="M 59.690625 254.493433 
L 59.690625 63.768946 
" style="fill:none;stroke:#000000;stroke-linecap:square;stroke-linejoin:miter;stroke-width:0.8;"/>
   </g>
   <g id="patch_4">
    <path d="M 119.210625 288.430125 
L 357.290625 288.430125 
" style="fill:none;stroke:#000000;stroke-linecap:square;stroke-linejoin:miter;stroke-width:0.8;"/>
   </g>
   <g id="PathCollection_1">
    <defs>
     <path d="M 0 1.5 
C 0.397805 1.5 0.77937 1.341951 1.06066 1.06066 
C 1.341951 0.77937 1.5 0.397805 1.5 0 
C 1.5 -0.397805 1.341951 -0.77937 1.06066 -1.06066 
C 0.77937 -1.341951 0.397805 -1.5 0 -1.5 
C -0.397805 -1.5 -0.77937 -1.341951 -1.06066 -1.06066 
C -1.341951 -0.77937 -1.5 -0.397805 -1.5 0 
C -1.5 0.397805 -1.341951 0.77937 -1.06066 1.06066 
C -0.77937 1.341951 -0.397805 1.5 0 1.5 
z
" id="m5938d06e21" style="stroke:#3f3f3f;"/>
    </defs>
    <g clip-path="url(#p3edca32f85)">
     <use style="fill:#ffffff;stroke:#3f3f3f;" x="119.210625" xlink:href="#m5938d06e21" y="150.357863"/>
    </g>
   </g>
   <g id="PathCollection_2">
    <g clip-path="url(#p3edca32f85)">
     <use style="fill:#ffffff;stroke:#3f3f3f;" x="238.250625" xlink:href="#m5938d06e21" y="152.122065"/>
    </g>
   </g>
   <g id="PathCollection_3">
    <g clip-path="url(#p3edca32f85)">
     <use style="fill:#ffffff;stroke:#3f3f3f;" x="357.290625" xlink:href="#m5938d06e21" y="160.990754"/>
    </g>
   </g>
   <g id="text_11">
    <!-- freetype2-2017 (24h, 5 trials/fuzzer) -->
    <g transform="translate(128.854688 16.318125)scale(0.12 -0.12)">
     <defs>
      <path d="M 32.171875 -5.078125 
Q 28.375 -14.84375 24.75 -17.8125 
Q 21.140625 -20.796875 15.09375 -20.796875 
L 7.90625 -20.796875 
L 7.90625 -13.28125 
L 13.1875 -13.28125 
Q 16.890625 -13.28125 18.9375 -11.515625 
Q 21 -9.765625 23.484375 -3.21875 
L 25.09375 0.875 
L 2.984375 54.6875 
L 12.5 54.6875 
L 29.59375 11.921875 
L 46.6875 54.6875 
L 56.203125 54.6875 
z
" id="DejaVuSans-121"/>
      <path d="M 4.890625 31.390625 
L 31.203125 31.390625 
L 31.203125 23.390625 
L 4.890625 23.390625 
z
" id="DejaVuSans-45"/>
      <path d="M 37.796875 64.3125 
L 12.890625 25.390625 
L 37.796875 25.390625 
z
M 35.203125 72.90625 
L 47.609375 72.90625 
L 47.609375 25.390625 
L 58.015625 25.390625 
L 58.015625 17.1875 
L 47.609375 17.1875 
L 47.609375 0 
L 37.796875 0 
L 37.796875 17.1875 
L 4.890625 17.1875 
L 4.890625 26.703125 
z
" id="DejaVuSans-52"/>
      <path d="M 11.71875 12.40625 
L 22.015625 12.40625 
L 22.015625 4 
L 14.015625 -11.625 
L 7.71875 -11.625 
L 11.71875 4 
z
" id="DejaVuSans-44"/>
      <path d="M 25.390625 72.90625 
L 33.6875 72.90625 
L 8.296875 -9.28125 
L 0 -9.28125 
z
" id="DejaVuSans-47"/>
     </defs>
     <use xlink:href="#DejaVuSans-102"/>
     <use x="35.205078" xlink:href="#DejaVuSans-114"/>
     <use x="74.068359" xlink:href="#DejaVuSans-101"/>
     <use x="135.591797" xlink:href="#DejaVuSans-101"/>
     <use x="197.115234" xlink:href="#DejaVuSans-116"/>
     <use x="236.324219" xlink:href="#DejaVuSans-121"/>
     <use x="295.503906" xlink:href="#DejaVuSans-112"/>
     <use x="358.980469" xlink:href="#DejaVuSans-101"/>
     <use x="420.503906" xlink:href="#DejaVuSans-50"/>
     <use x="484.126953" xlink:href="#DejaVuSans-45"/>
     <use x="520.210938" xlink:href="#DejaVuSans-50"/>
     <use x="583.833984" xlink:href="#DejaVuSans-48"/>
     <use x="647.457031" xlink:href="#DejaVuSans-49"/>
     <use x="711.080078" xlink:href="#DejaVuSans-55"/>
     <use x="774.703125" xlink:href="#DejaVuSans-32"/>
     <use x="806.490234" xlink:href="#DejaVuSans-40"/>
     <use x="845.503906" xlink:href="#DejaVuSans-50"/>
     <use x="909.126953" xlink:href="#DejaVuSans-52"/>
     <use x="972.75" xlink:href="#DejaVuSans-104"/>
     <use x="1036.128906" xlink:href="#DejaVuSans-44"/>
     <use x="1067.916016" xlink:href="#DejaVuSans-32"/>
     <use x="1099.703125" xlink:href="#DejaVuSans-53"/>
     <use x="1163.326172" xlink:href="#DejaVuSans-32"/>
     <use x="1195.113281" xlink:href="#DejaVuSans-116"/>
     <use x="1234.322266" xlink:href="#DejaVuSans-114"/>
     <use x="1275.435547" xlink:href="#DejaVuSans-105"/>
     <use x="1303.21875" xlink:href="#DejaVuSans-97"/>
     <use x="1364.498047" xlink:href="#DejaVuSans-108"/>
     <use x="1392.28125" xlink:href="#DejaVuSans-115"/>
     <use x="1444.380859" xlink:href="#DejaVuSans-47"/>
     <use x="1478.072266" xlink:href="#DejaVuSans-102"/>
     <use x="1513.277344" xlink:href="#DejaVuSans-117"/>
     <use x="1576.65625" xlink:href="#DejaVuSans-122"/>
     <use x="1629.146484" xlink:href="#DejaVuSans-122"/>
     <use x="1681.636719" xlink:href="#DejaVuSans-101"/>
     <use x="1743.160156" xlink:href="#DejaVuSans-114"/>
     <use x="1784.273438" xlink:href="#DejaVuSans-41"/>
    </g>
   </g>
  </g>
 </g>
 <defs>
  <clipPath id="p3edca32f85">
   <rect height="266.112" width="357.12" x="59.690625" y="22.318125"/>
  </clipPath>
 </defs>
</svg>
