<?xml version="1.0" encoding="utf-8" standalone="no"?>
<!DOCTYPE svg PUBLIC "-//W3C//DTD SVG 1.1//EN"
  "http://www.w3.org/Graphics/SVG/1.1/DTD/svg11.dtd">
<!-- Created with matplotlib (https://matplotlib.org/) -->
<svg height="358.280615pt" version="1.1" viewBox="0 0 424.010625 358.280615" width="424.010625pt" xmlns="http://www.w3.org/2000/svg" xmlns:xlink="http://www.w3.org/1999/xlink">
 <metadata>
  <rdf:RDF xmlns:cc="http://creativecommons.org/ns#" xmlns:dc="http://purl.org/dc/elements/1.1/" xmlns:rdf="http://www.w3.org/1999/02/22-rdf-syntax-ns#">
   <cc:Work>
    <dc:type rdf:resource="http://purl.org/dc/dcmitype/StillImage"/>
    <dc:date>2021-01-07T15:49:26.100030</dc:date>
    <dc:format>image/svg+xml</dc:format>
    <dc:creator>
     <cc:Agent>
      <dc:title>Matplotlib v3.3.2, https://matplotlib.org/</dc:title>
     </cc:Agent>
    </dc:creator>
   </cc:Work>
  </rdf:RDF>
 </metadata>
 <defs>
  <style type="text/css">*{stroke-linecap:butt;stroke-linejoin:round;}</style>
 </defs>
 <g id="figure_1">
  <g id="patch_1">
   <path d="M 0 358.280615 
L 424.010625 358.280615 
L 424.010625 -0 
L 0 -0 
z
" style="fill:#ffffff;"/>
  </g>
  <g id="axes_1">
   <g id="patch_2">
    <path d="M 59.690625 288.430125 
L 416.810625 288.430125 
L 416.810625 22.318125 
L 59.690625 22.318125 
z
" style="fill:#ffffff;"/>
   </g>
   <g id="PolyCollection_1">
    <defs>
     <path d="M 120.650661 -122.395218 
L 117.770589 -122.395218 
L 117.513737 -124.430282 
L 117.221535 -126.465345 
L 116.891187 -128.500408 
L 116.520058 -130.535472 
L 116.105753 -132.570535 
L 115.646207 -134.605598 
L 115.139776 -136.640662 
L 114.585324 -138.675725 
L 113.982324 -140.710788 
L 113.330932 -142.745852 
L 112.632072 -144.780915 
L 111.887497 -146.815978 
L 111.099839 -148.851042 
L 110.272642 -150.886105 
L 109.410362 -152.921169 
L 108.51836 -154.956232 
L 107.60285 -156.991295 
L 106.670834 -159.026359 
L 105.730002 -161.061422 
L 104.788605 -163.096485 
L 103.855313 -165.131549 
L 102.939036 -167.166612 
L 102.048749 -169.201675 
L 101.193285 -171.236739 
L 100.381139 -173.271802 
L 99.620264 -175.306865 
L 98.917875 -177.341929 
L 98.280277 -179.376992 
L 97.712698 -181.412056 
L 97.219161 -183.447119 
L 96.802387 -185.482182 
L 96.463724 -187.517246 
L 96.203127 -189.552309 
L 96.019164 -191.587372 
L 95.909073 -193.622436 
L 95.868848 -195.657499 
L 95.893362 -197.692562 
L 95.976523 -199.727626 
L 96.111447 -201.762689 
L 96.290659 -203.797752 
L 96.506299 -205.832816 
L 96.750339 -207.867879 
L 97.014793 -209.902942 
L 97.291927 -211.938006 
L 97.574448 -213.973069 
L 97.855681 -216.008133 
L 98.129719 -218.043196 
L 98.391552 -220.078259 
L 98.637161 -222.113323 
L 98.863589 -224.148386 
L 99.068977 -226.183449 
L 99.252576 -228.218513 
L 99.414721 -230.253576 
L 99.556787 -232.288639 
L 99.681117 -234.323703 
L 99.790923 -236.358766 
L 99.890175 -238.393829 
L 99.983466 -240.428893 
L 100.075874 -242.463956 
L 100.172801 -244.49902 
L 100.279822 -246.534083 
L 100.402518 -248.569146 
L 100.546319 -250.60421 
L 100.716354 -252.639273 
L 100.917302 -254.674336 
L 101.153268 -256.7094 
L 101.427662 -258.744463 
L 101.743109 -260.779526 
L 102.101379 -262.81459 
L 102.503329 -264.849653 
L 102.94889 -266.884716 
L 103.43706 -268.91978 
L 103.965936 -270.954843 
L 104.532767 -272.989907 
L 105.134022 -275.02497 
L 105.765488 -277.060033 
L 106.422379 -279.095097 
L 107.099457 -281.13016 
L 107.791166 -283.165223 
L 108.491766 -285.200287 
L 109.195467 -287.23535 
L 109.896562 -289.270413 
L 110.589548 -291.305477 
L 111.269237 -293.34054 
L 111.930853 -295.375603 
L 112.570109 -297.410667 
L 113.18327 -299.44573 
L 113.767196 -301.480794 
L 114.319364 -303.515857 
L 114.837875 -305.55092 
L 115.32144 -307.585984 
L 115.769359 -309.621047 
L 116.181478 -311.65611 
L 116.558141 -313.691174 
L 116.900134 -315.726237 
L 117.208625 -317.7613 
L 117.485093 -319.796364 
L 117.731273 -321.831427 
L 117.949084 -323.86649 
L 120.472166 -323.86649 
L 120.472166 -323.86649 
L 120.689977 -321.831427 
L 120.936157 -319.796364 
L 121.212625 -317.7613 
L 121.521116 -315.726237 
L 121.863109 -313.691174 
L 122.239772 -311.65611 
L 122.651891 -309.621047 
L 123.09981 -307.585984 
L 123.583375 -305.55092 
L 124.101886 -303.515857 
L 124.654054 -301.480794 
L 125.23798 -299.44573 
L 125.851141 -297.410667 
L 126.490397 -295.375603 
L 127.152013 -293.34054 
L 127.831702 -291.305477 
L 128.524688 -289.270413 
L 129.225783 -287.23535 
L 129.929484 -285.200287 
L 130.630084 -283.165223 
L 131.321793 -281.13016 
L 131.998871 -279.095097 
L 132.655762 -277.060033 
L 133.287228 -275.02497 
L 133.888483 -272.989907 
L 134.455314 -270.954843 
L 134.98419 -268.91978 
L 135.47236 -266.884716 
L 135.917921 -264.849653 
L 136.319871 -262.81459 
L 136.678141 -260.779526 
L 136.993588 -258.744463 
L 137.267982 -256.7094 
L 137.503948 -254.674336 
L 137.704896 -252.639273 
L 137.874931 -250.60421 
L 138.018732 -248.569146 
L 138.141428 -246.534083 
L 138.248449 -244.49902 
L 138.345376 -242.463956 
L 138.437784 -240.428893 
L 138.531075 -238.393829 
L 138.630327 -236.358766 
L 138.740133 -234.323703 
L 138.864463 -232.288639 
L 139.006529 -230.253576 
L 139.168674 -228.218513 
L 139.352273 -226.183449 
L 139.557661 -224.148386 
L 139.784089 -222.113323 
L 140.029698 -220.078259 
L 140.291531 -218.043196 
L 140.565569 -216.008133 
L 140.846802 -213.973069 
L 141.129323 -211.938006 
L 141.406457 -209.902942 
L 141.670911 -207.867879 
L 141.914951 -205.832816 
L 142.130591 -203.797752 
L 142.309803 -201.762689 
L 142.444727 -199.727626 
L 142.527888 -197.692562 
L 142.552402 -195.657499 
L 142.512177 -193.622436 
L 142.402086 -191.587372 
L 142.218123 -189.552309 
L 141.957526 -187.517246 
L 141.618863 -185.482182 
L 141.202089 -183.447119 
L 140.708552 -181.412056 
L 140.140973 -179.376992 
L 139.503375 -177.341929 
L 138.800986 -175.306865 
L 138.040111 -173.271802 
L 137.227965 -171.236739 
L 136.372501 -169.201675 
L 135.482214 -167.166612 
L 134.565937 -165.131549 
L 133.632645 -163.096485 
L 132.691248 -161.061422 
L 131.750416 -159.026359 
L 130.8184 -156.991295 
L 129.90289 -154.956232 
L 129.010888 -152.921169 
L 128.148608 -150.886105 
L 127.321411 -148.851042 
L 126.533753 -146.815978 
L 125.789178 -144.780915 
L 125.090318 -142.745852 
L 124.438926 -140.710788 
L 123.835926 -138.675725 
L 123.281474 -136.640662 
L 122.775043 -134.605598 
L 122.315497 -132.570535 
L 121.901192 -130.535472 
L 121.530063 -128.500408 
L 121.199715 -126.465345 
L 120.907513 -124.430282 
L 120.650661 -122.395218 
z
" id="m8991bf65ef" style="stroke:#3f3f3f;stroke-width:1.5;"/>
    </defs>
    <g clip-path="url(#p37203fc5eb)">
     <use style="fill:#3274a1;stroke:#3f3f3f;stroke-width:1.5;" x="0" xlink:href="#m8991bf65ef" y="358.280615"/>
    </g>
   </g>
   <g id="PolyCollection_2">
    <defs>
     <path d="M 239.75563 -81.94649 
L 236.74562 -81.94649 
L 236.522915 -83.731534 
L 236.276926 -85.516578 
L 236.006893 -87.301621 
L 235.712321 -89.086665 
L 235.393015 -90.871709 
L 235.049127 -92.656752 
L 234.681191 -94.441796 
L 234.290148 -96.22684 
L 233.877368 -98.011883 
L 233.444664 -99.796927 
L 232.994285 -101.581971 
L 232.528906 -103.367014 
L 232.051597 -105.152058 
L 231.565778 -106.937101 
L 231.075163 -108.722145 
L 230.583682 -110.507189 
L 230.095397 -112.292232 
L 229.614402 -114.077276 
L 229.14471 -115.86232 
L 228.690135 -117.647363 
L 228.254175 -119.432407 
L 227.839881 -121.217451 
L 227.449747 -123.002494 
L 227.085589 -124.787538 
L 226.748451 -126.572582 
L 226.438519 -128.357625 
L 226.155053 -130.142669 
L 225.896351 -131.927713 
L 225.65973 -133.712756 
L 225.441542 -135.4978 
L 225.237214 -137.282843 
L 225.041329 -139.067887 
L 224.847723 -140.852931 
L 224.649623 -142.637974 
L 224.439808 -144.423018 
L 224.21079 -146.208062 
L 223.955018 -147.993105 
L 223.665094 -149.778149 
L 223.334002 -151.563193 
L 222.95533 -153.348236 
L 222.523498 -155.13328 
L 222.033973 -156.918324 
L 221.483456 -158.703367 
L 220.870062 -160.488411 
L 220.193456 -162.273455 
L 219.454964 -164.058498 
L 218.657635 -165.843542 
L 217.806269 -167.628585 
L 216.907397 -169.413629 
L 215.969207 -171.198673 
L 215.00144 -172.983716 
L 214.015228 -174.76876 
L 213.022896 -176.553804 
L 212.037732 -178.338847 
L 211.073716 -180.123891 
L 210.145235 -181.908935 
L 209.266778 -183.693978 
L 208.452615 -185.479022 
L 207.716492 -187.264066 
L 207.071317 -189.049109 
L 206.528876 -190.834153 
L 206.099569 -192.619197 
L 205.792179 -194.40424 
L 205.613681 -196.189284 
L 205.569092 -197.974327 
L 205.661377 -199.759371 
L 205.891389 -201.544415 
L 206.257881 -203.329458 
L 206.757548 -205.114502 
L 207.385128 -206.899546 
L 208.133546 -208.684589 
L 208.99409 -210.469633 
L 209.956627 -212.254677 
L 211.00984 -214.03972 
L 212.141485 -215.824764 
L 213.338657 -217.609808 
L 214.588064 -219.394851 
L 215.876287 -221.179895 
L 217.190041 -222.964938 
L 218.516406 -224.749982 
L 219.843043 -226.535026 
L 221.158383 -228.320069 
L 222.451782 -230.105113 
L 223.713647 -231.890157 
L 224.935525 -233.6752 
L 226.110168 -235.460244 
L 227.231557 -237.245288 
L 228.294898 -239.030331 
L 229.296599 -240.815375 
L 230.234214 -242.600419 
L 231.106371 -244.385462 
L 231.912687 -246.170506 
L 232.653665 -247.95555 
L 233.330587 -249.740593 
L 233.945403 -251.525637 
L 234.500617 -253.31068 
L 234.999174 -255.095724 
L 235.444357 -256.880768 
L 235.839684 -258.665811 
L 240.661566 -258.665811 
L 240.661566 -258.665811 
L 241.056893 -256.880768 
L 241.502076 -255.095724 
L 242.000633 -253.31068 
L 242.555847 -251.525637 
L 243.170663 -249.740593 
L 243.847585 -247.95555 
L 244.588563 -246.170506 
L 245.394879 -244.385462 
L 246.267036 -242.600419 
L 247.204651 -240.815375 
L 248.206352 -239.030331 
L 249.269693 -237.245288 
L 250.391082 -235.460244 
L 251.565725 -233.6752 
L 252.787603 -231.890157 
L 254.049468 -230.105113 
L 255.342867 -228.320069 
L 256.658207 -226.535026 
L 257.984844 -224.749982 
L 259.311209 -222.964938 
L 260.624963 -221.179895 
L 261.913186 -219.394851 
L 263.162593 -217.609808 
L 264.359765 -215.824764 
L 265.49141 -214.03972 
L 266.544623 -212.254677 
L 267.50716 -210.469633 
L 268.367704 -208.684589 
L 269.116122 -206.899546 
L 269.743702 -205.114502 
L 270.243369 -203.329458 
L 270.609861 -201.544415 
L 270.839873 -199.759371 
L 270.932158 -197.974327 
L 270.887569 -196.189284 
L 270.709071 -194.40424 
L 270.401681 -192.619197 
L 269.972374 -190.834153 
L 269.429933 -189.049109 
L 268.784758 -187.264066 
L 268.048635 -185.479022 
L 267.234472 -183.693978 
L 266.356015 -181.908935 
L 265.427534 -180.123891 
L 264.463518 -178.338847 
L 263.478354 -176.553804 
L 262.486022 -174.76876 
L 261.49981 -172.983716 
L 260.532043 -171.198673 
L 259.593853 -169.413629 
L 258.694981 -167.628585 
L 257.843615 -165.843542 
L 257.046286 -164.058498 
L 256.307794 -162.273455 
L 255.631188 -160.488411 
L 255.017794 -158.703367 
L 254.467277 -156.918324 
L 253.977752 -155.13328 
L 253.54592 -153.348236 
L 253.167248 -151.563193 
L 252.836156 -149.778149 
L 252.546232 -147.993105 
L 252.29046 -146.208062 
L 252.061442 -144.423018 
L 251.851627 -142.637974 
L 251.653527 -140.852931 
L 251.459921 -139.067887 
L 251.264036 -137.282843 
L 251.059708 -135.4978 
L 250.84152 -133.712756 
L 250.604899 -131.927713 
L 250.346197 -130.142669 
L 250.062731 -128.357625 
L 249.752799 -126.572582 
L 249.415661 -124.787538 
L 249.051503 -123.002494 
L 248.661369 -121.217451 
L 248.247075 -119.432407 
L 247.811115 -117.647363 
L 247.35654 -115.86232 
L 246.886848 -114.077276 
L 246.405853 -112.292232 
L 245.917568 -110.507189 
L 245.426087 -108.722145 
L 244.935472 -106.937101 
L 244.449653 -105.152058 
L 243.972344 -103.367014 
L 243.506965 -101.581971 
L 243.056586 -99.796927 
L 242.623882 -98.011883 
L 242.211102 -96.22684 
L 241.820059 -94.441796 
L 241.452123 -92.656752 
L 241.108235 -90.871709 
L 240.788929 -89.086665 
L 240.494357 -87.301621 
L 240.224324 -85.516578 
L 239.978335 -83.731534 
L 239.75563 -81.94649 
z
" id="med75edf975" style="stroke:#3f3f3f;stroke-width:1.5;"/>
    </defs>
    <g clip-path="url(#p37203fc5eb)">
     <use style="fill:#c03d3e;stroke:#3f3f3f;stroke-width:1.5;" x="0" xlink:href="#med75edf975" y="358.280615"/>
    </g>
   </g>
   <g id="PolyCollection_3">
    <defs>
     <path d="M 359.852575 -99.271427 
L 354.728675 -99.271427 
L 354.301655 -100.295373 
L 353.821175 -101.319318 
L 353.28382 -102.343264 
L 352.686525 -103.36721 
L 352.026674 -104.391156 
L 351.302219 -105.415101 
L 350.511778 -106.439047 
L 349.654745 -107.462993 
L 348.731381 -108.486939 
L 347.742896 -109.510884 
L 346.691508 -110.53483 
L 345.580492 -111.558776 
L 344.414195 -112.582722 
L 343.198024 -113.606668 
L 341.938408 -114.630613 
L 340.642728 -115.654559 
L 339.319211 -116.678505 
L 337.976798 -117.702451 
L 336.624979 -118.726396 
L 335.273607 -119.750342 
L 333.932684 -120.774288 
L 332.612135 -121.798234 
L 331.321575 -122.82218 
L 330.070064 -123.846125 
L 328.865878 -124.870071 
L 327.716285 -125.894017 
L 326.62735 -126.917963 
L 325.603761 -127.941908 
L 324.648698 -128.965854 
L 323.763741 -129.9898 
L 322.948825 -131.013746 
L 322.202247 -132.037692 
L 321.520728 -133.061637 
L 320.89952 -134.085583 
L 320.332574 -135.109529 
L 319.812748 -136.133475 
L 319.332056 -137.15742 
L 318.881954 -138.181366 
L 318.453651 -139.205312 
L 318.038431 -140.229258 
L 317.627984 -141.253204 
L 317.214727 -142.277149 
L 316.792108 -143.301095 
L 316.354879 -144.325041 
L 315.899336 -145.348987 
L 315.423502 -146.372932 
L 314.927263 -147.396878 
L 314.412443 -148.420824 
L 313.882812 -149.44477 
L 313.344036 -150.468716 
L 312.803563 -151.492661 
L 312.270448 -152.516607 
L 311.755126 -153.540553 
L 311.269148 -154.564499 
L 310.824865 -155.588444 
L 310.435103 -156.61239 
L 310.112806 -157.636336 
L 309.870689 -158.660282 
L 309.720887 -159.684228 
L 309.674625 -160.708173 
L 309.741915 -161.732119 
L 309.931287 -162.756065 
L 310.249558 -163.780011 
L 310.701654 -164.803956 
L 311.290479 -165.827902 
L 312.01684 -166.851848 
L 312.879421 -167.875794 
L 313.874813 -168.89974 
L 314.997591 -169.923685 
L 316.240442 -170.947631 
L 317.594324 -171.971577 
L 319.048673 -172.995523 
L 320.591624 -174.019468 
L 322.210266 -175.043414 
L 323.890905 -176.06736 
L 325.619333 -177.091306 
L 327.381102 -178.115252 
L 329.161789 -179.139197 
L 330.947244 -180.163143 
L 332.72383 -181.187089 
L 334.478631 -182.211035 
L 336.199636 -183.23498 
L 337.875896 -184.258926 
L 339.497647 -185.282872 
L 341.056402 -186.306818 
L 342.545005 -187.330763 
L 343.957664 -188.354709 
L 345.289939 -189.378655 
L 346.538718 -190.402601 
L 347.702154 -191.426547 
L 348.779588 -192.450492 
L 349.771454 -193.474438 
L 350.679166 -194.498384 
L 351.504999 -195.52233 
L 352.251963 -196.546275 
L 352.923672 -197.570221 
L 353.524218 -198.594167 
L 354.058051 -199.618113 
L 354.529855 -200.642059 
L 360.051395 -200.642059 
L 360.051395 -200.642059 
L 360.523199 -199.618113 
L 361.057032 -198.594167 
L 361.657578 -197.570221 
L 362.329287 -196.546275 
L 363.076251 -195.52233 
L 363.902084 -194.498384 
L 364.809796 -193.474438 
L 365.801662 -192.450492 
L 366.879096 -191.426547 
L 368.042532 -190.402601 
L 369.291311 -189.378655 
L 370.623586 -188.354709 
L 372.036245 -187.330763 
L 373.524848 -186.306818 
L 375.083603 -185.282872 
L 376.705354 -184.258926 
L 378.381614 -183.23498 
L 380.102619 -182.211035 
L 381.85742 -181.187089 
L 383.634006 -180.163143 
L 385.419461 -179.139197 
L 387.200148 -178.115252 
L 388.961917 -177.091306 
L 390.690345 -176.06736 
L 392.370984 -175.043414 
L 393.989626 -174.019468 
L 395.532577 -172.995523 
L 396.986926 -171.971577 
L 398.340808 -170.947631 
L 399.583659 -169.923685 
L 400.706437 -168.89974 
L 401.701829 -167.875794 
L 402.56441 -166.851848 
L 403.290771 -165.827902 
L 403.879596 -164.803956 
L 404.331692 -163.780011 
L 404.649963 -162.756065 
L 404.839335 -161.732119 
L 404.906625 -160.708173 
L 404.860363 -159.684228 
L 404.710561 -158.660282 
L 404.468444 -157.636336 
L 404.146147 -156.61239 
L 403.756385 -155.588444 
L 403.312102 -154.564499 
L 402.826124 -153.540553 
L 402.310802 -152.516607 
L 401.777687 -151.492661 
L 401.237214 -150.468716 
L 400.698438 -149.44477 
L 400.168807 -148.420824 
L 399.653987 -147.396878 
L 399.157748 -146.372932 
L 398.681914 -145.348987 
L 398.226371 -144.325041 
L 397.789142 -143.301095 
L 397.366523 -142.277149 
L 396.953266 -141.253204 
L 396.542819 -140.229258 
L 396.127599 -139.205312 
L 395.699296 -138.181366 
L 395.249194 -137.15742 
L 394.768502 -136.133475 
L 394.248676 -135.109529 
L 393.68173 -134.085583 
L 393.060522 -133.061637 
L 392.379003 -132.037692 
L 391.632425 -131.013746 
L 390.817509 -129.9898 
L 389.932552 -128.965854 
L 388.977489 -127.941908 
L 387.9539 -126.917963 
L 386.864965 -125.894017 
L 385.715372 -124.870071 
L 384.511186 -123.846125 
L 383.259675 -122.82218 
L 381.969115 -121.798234 
L 380.648566 -120.774288 
L 379.307643 -119.750342 
L 377.956271 -118.726396 
L 376.604452 -117.702451 
L 375.262039 -116.678505 
L 373.938522 -115.654559 
L 372.642842 -114.630613 
L 371.383226 -113.606668 
L 370.167055 -112.582722 
L 369.000758 -111.558776 
L 367.889742 -110.53483 
L 366.838354 -109.510884 
L 365.849869 -108.486939 
L 364.926505 -107.462993 
L 364.069472 -106.439047 
L 363.279031 -105.415101 
L 362.554576 -104.391156 
L 361.894725 -103.36721 
L 361.29743 -102.343264 
L 360.760075 -101.319318 
L 360.279595 -100.295373 
L 359.852575 -99.271427 
z
" id="m7b98d0bac5" style="stroke:#3f3f3f;stroke-width:1.5;"/>
    </defs>
    <g clip-path="url(#p37203fc5eb)">
     <use style="fill:#9fd495;stroke:#3f3f3f;stroke-width:1.5;" x="0" xlink:href="#m7b98d0bac5" y="358.280615"/>
    </g>
   </g>
   <g id="matplotlib.axis_1">
    <g id="xtick_1">
     <g id="line2d_1">
      <defs>
       <path d="M 0 0 
L 0 3.5 
" id="m486b5dcb8b" style="stroke:#000000;stroke-width:0.8;"/>
      </defs>
      <g>
       <use style="stroke:#000000;stroke-width:0.8;" x="119.210625" xlink:href="#m486b5dcb8b" y="288.430125"/>
      </g>
     </g>
     <g id="text_1">
      <!-- dark_stop_32 -->
      <g transform="translate(60.267824 335.360565)rotate(-30)scale(0.1 -0.1)">
       <defs>
        <path d="M 45.40625 46.390625 
L 45.40625 75.984375 
L 54.390625 75.984375 
L 54.390625 0 
L 45.40625 0 
L 45.40625 8.203125 
Q 42.578125 3.328125 38.25 0.953125 
Q 33.9375 -1.421875 27.875 -1.421875 
Q 17.96875 -1.421875 11.734375 6.484375 
Q 5.515625 14.40625 5.515625 27.296875 
Q 5.515625 40.1875 11.734375 48.09375 
Q 17.96875 56 27.875 56 
Q 33.9375 56 38.25 53.625 
Q 42.578125 51.265625 45.40625 46.390625 
z
M 14.796875 27.296875 
Q 14.796875 17.390625 18.875 11.75 
Q 22.953125 6.109375 30.078125 6.109375 
Q 37.203125 6.109375 41.296875 11.75 
Q 45.40625 17.390625 45.40625 27.296875 
Q 45.40625 37.203125 41.296875 42.84375 
Q 37.203125 48.484375 30.078125 48.484375 
Q 22.953125 48.484375 18.875 42.84375 
Q 14.796875 37.203125 14.796875 27.296875 
z
" id="DejaVuSans-100"/>
        <path d="M 34.28125 27.484375 
Q 23.390625 27.484375 19.1875 25 
Q 14.984375 22.515625 14.984375 16.5 
Q 14.984375 11.71875 18.140625 8.90625 
Q 21.296875 6.109375 26.703125 6.109375 
Q 34.1875 6.109375 38.703125 11.40625 
Q 43.21875 16.703125 43.21875 25.484375 
L 43.21875 27.484375 
z
M 52.203125 31.203125 
L 52.203125 0 
L 43.21875 0 
L 43.21875 8.296875 
Q 40.140625 3.328125 35.546875 0.953125 
Q 30.953125 -1.421875 24.3125 -1.421875 
Q 15.921875 -1.421875 10.953125 3.296875 
Q 6 8.015625 6 15.921875 
Q 6 25.140625 12.171875 29.828125 
Q 18.359375 34.515625 30.609375 34.515625 
L 43.21875 34.515625 
L 43.21875 35.40625 
Q 43.21875 41.609375 39.140625 45 
Q 35.0625 48.390625 27.6875 48.390625 
Q 23 48.390625 18.546875 47.265625 
Q 14.109375 46.140625 10.015625 43.890625 
L 10.015625 52.203125 
Q 14.9375 54.109375 19.578125 55.046875 
Q 24.21875 56 28.609375 56 
Q 40.484375 56 46.34375 49.84375 
Q 52.203125 43.703125 52.203125 31.203125 
z
" id="DejaVuSans-97"/>
        <path d="M 41.109375 46.296875 
Q 39.59375 47.171875 37.8125 47.578125 
Q 36.03125 48 33.890625 48 
Q 26.265625 48 22.1875 43.046875 
Q 18.109375 38.09375 18.109375 28.8125 
L 18.109375 0 
L 9.078125 0 
L 9.078125 54.6875 
L 18.109375 54.6875 
L 18.109375 46.1875 
Q 20.953125 51.171875 25.484375 53.578125 
Q 30.03125 56 36.53125 56 
Q 37.453125 56 38.578125 55.875 
Q 39.703125 55.765625 41.0625 55.515625 
z
" id="DejaVuSans-114"/>
        <path d="M 9.078125 75.984375 
L 18.109375 75.984375 
L 18.109375 31.109375 
L 44.921875 54.6875 
L 56.390625 54.6875 
L 27.390625 29.109375 
L 57.625 0 
L 45.90625 0 
L 18.109375 26.703125 
L 18.109375 0 
L 9.078125 0 
z
" id="DejaVuSans-107"/>
        <path d="M 50.984375 -16.609375 
L 50.984375 -23.578125 
L -0.984375 -23.578125 
L -0.984375 -16.609375 
z
" id="DejaVuSans-95"/>
        <path d="M 44.28125 53.078125 
L 44.28125 44.578125 
Q 40.484375 46.53125 36.375 47.5 
Q 32.28125 48.484375 27.875 48.484375 
Q 21.1875 48.484375 17.84375 46.4375 
Q 14.5 44.390625 14.5 40.28125 
Q 14.5 37.15625 16.890625 35.375 
Q 19.28125 33.59375 26.515625 31.984375 
L 29.59375 31.296875 
Q 39.15625 29.25 43.1875 25.515625 
Q 47.21875 21.78125 47.21875 15.09375 
Q 47.21875 7.46875 41.1875 3.015625 
Q 35.15625 -1.421875 24.609375 -1.421875 
Q 20.21875 -1.421875 15.453125 -0.5625 
Q 10.6875 0.296875 5.421875 2 
L 5.421875 11.28125 
Q 10.40625 8.6875 15.234375 7.390625 
Q 20.0625 6.109375 24.8125 6.109375 
Q 31.15625 6.109375 34.5625 8.28125 
Q 37.984375 10.453125 37.984375 14.40625 
Q 37.984375 18.0625 35.515625 20.015625 
Q 33.0625 21.96875 24.703125 23.78125 
L 21.578125 24.515625 
Q 13.234375 26.265625 9.515625 29.90625 
Q 5.8125 33.546875 5.8125 39.890625 
Q 5.8125 47.609375 11.28125 51.796875 
Q 16.75 56 26.8125 56 
Q 31.78125 56 36.171875 55.265625 
Q 40.578125 54.546875 44.28125 53.078125 
z
" id="DejaVuSans-115"/>
        <path d="M 18.3125 70.21875 
L 18.3125 54.6875 
L 36.8125 54.6875 
L 36.8125 47.703125 
L 18.3125 47.703125 
L 18.3125 18.015625 
Q 18.3125 11.328125 20.140625 9.421875 
Q 21.96875 7.515625 27.59375 7.515625 
L 36.8125 7.515625 
L 36.8125 0 
L 27.59375 0 
Q 17.1875 0 13.234375 3.875 
Q 9.28125 7.765625 9.28125 18.015625 
L 9.28125 47.703125 
L 2.6875 47.703125 
L 2.6875 54.6875 
L 9.28125 54.6875 
L 9.28125 70.21875 
z
" id="DejaVuSans-116"/>
        <path d="M 30.609375 48.390625 
Q 23.390625 48.390625 19.1875 42.75 
Q 14.984375 37.109375 14.984375 27.296875 
Q 14.984375 17.484375 19.15625 11.84375 
Q 23.34375 6.203125 30.609375 6.203125 
Q 37.796875 6.203125 41.984375 11.859375 
Q 46.1875 17.53125 46.1875 27.296875 
Q 46.1875 37.015625 41.984375 42.703125 
Q 37.796875 48.390625 30.609375 48.390625 
z
M 30.609375 56 
Q 42.328125 56 49.015625 48.375 
Q 55.71875 40.765625 55.71875 27.296875 
Q 55.71875 13.875 49.015625 6.21875 
Q 42.328125 -1.421875 30.609375 -1.421875 
Q 18.84375 -1.421875 12.171875 6.21875 
Q 5.515625 13.875 5.515625 27.296875 
Q 5.515625 40.765625 12.171875 48.375 
Q 18.84375 56 30.609375 56 
z
" id="DejaVuSans-111"/>
        <path d="M 18.109375 8.203125 
L 18.109375 -20.796875 
L 9.078125 -20.796875 
L 9.078125 54.6875 
L 18.109375 54.6875 
L 18.109375 46.390625 
Q 20.953125 51.265625 25.265625 53.625 
Q 29.59375 56 35.59375 56 
Q 45.5625 56 51.78125 48.09375 
Q 58.015625 40.1875 58.015625 27.296875 
Q 58.015625 14.40625 51.78125 6.484375 
Q 45.5625 -1.421875 35.59375 -1.421875 
Q 29.59375 -1.421875 25.265625 0.953125 
Q 20.953125 3.328125 18.109375 8.203125 
z
M 48.6875 27.296875 
Q 48.6875 37.203125 44.609375 42.84375 
Q 40.53125 48.484375 33.40625 48.484375 
Q 26.265625 48.484375 22.1875 42.84375 
Q 18.109375 37.203125 18.109375 27.296875 
Q 18.109375 17.390625 22.1875 11.75 
Q 26.265625 6.109375 33.40625 6.109375 
Q 40.53125 6.109375 44.609375 11.75 
Q 48.6875 17.390625 48.6875 27.296875 
z
" id="DejaVuSans-112"/>
        <path d="M 40.578125 39.3125 
Q 47.65625 37.796875 51.625 33 
Q 55.609375 28.21875 55.609375 21.1875 
Q 55.609375 10.40625 48.1875 4.484375 
Q 40.765625 -1.421875 27.09375 -1.421875 
Q 22.515625 -1.421875 17.65625 -0.515625 
Q 12.796875 0.390625 7.625 2.203125 
L 7.625 11.71875 
Q 11.71875 9.328125 16.59375 8.109375 
Q 21.484375 6.890625 26.8125 6.890625 
Q 36.078125 6.890625 40.9375 10.546875 
Q 45.796875 14.203125 45.796875 21.1875 
Q 45.796875 27.640625 41.28125 31.265625 
Q 36.765625 34.90625 28.71875 34.90625 
L 20.21875 34.90625 
L 20.21875 43.015625 
L 29.109375 43.015625 
Q 36.375 43.015625 40.234375 45.921875 
Q 44.09375 48.828125 44.09375 54.296875 
Q 44.09375 59.90625 40.109375 62.90625 
Q 36.140625 65.921875 28.71875 65.921875 
Q 24.65625 65.921875 20.015625 65.03125 
Q 15.375 64.15625 9.8125 62.3125 
L 9.8125 71.09375 
Q 15.4375 72.65625 20.34375 73.4375 
Q 25.25 74.21875 29.59375 74.21875 
Q 40.828125 74.21875 47.359375 69.109375 
Q 53.90625 64.015625 53.90625 55.328125 
Q 53.90625 49.265625 50.4375 45.09375 
Q 46.96875 40.921875 40.578125 39.3125 
z
" id="DejaVuSans-51"/>
        <path d="M 19.1875 8.296875 
L 53.609375 8.296875 
L 53.609375 0 
L 7.328125 0 
L 7.328125 8.296875 
Q 12.9375 14.109375 22.625 23.890625 
Q 32.328125 33.6875 34.8125 36.53125 
Q 39.546875 41.84375 41.421875 45.53125 
Q 43.3125 49.21875 43.3125 52.78125 
Q 43.3125 58.59375 39.234375 62.25 
Q 35.15625 65.921875 28.609375 65.921875 
Q 23.96875 65.921875 18.8125 64.3125 
Q 13.671875 62.703125 7.8125 59.421875 
L 7.8125 69.390625 
Q 13.765625 71.78125 18.9375 73 
Q 24.125 74.21875 28.421875 74.21875 
Q 39.75 74.21875 46.484375 68.546875 
Q 53.21875 62.890625 53.21875 53.421875 
Q 53.21875 48.921875 51.53125 44.890625 
Q 49.859375 40.875 45.40625 35.40625 
Q 44.1875 33.984375 37.640625 27.21875 
Q 31.109375 20.453125 19.1875 8.296875 
z
" id="DejaVuSans-50"/>
       </defs>
       <use xlink:href="#DejaVuSans-100"/>
       <use x="63.476562" xlink:href="#DejaVuSans-97"/>
       <use x="124.755859" xlink:href="#DejaVuSans-114"/>
       <use x="165.869141" xlink:href="#DejaVuSans-107"/>
       <use x="223.779297" xlink:href="#DejaVuSans-95"/>
       <use x="273.779297" xlink:href="#DejaVuSans-115"/>
       <use x="325.878906" xlink:href="#DejaVuSans-116"/>
       <use x="365.087891" xlink:href="#DejaVuSans-111"/>
       <use x="426.269531" xlink:href="#DejaVuSans-112"/>
       <use x="489.746094" xlink:href="#DejaVuSans-95"/>
       <use x="539.746094" xlink:href="#DejaVuSans-51"/>
       <use x="603.369141" xlink:href="#DejaVuSans-50"/>
      </g>
     </g>
    </g>
    <g id="xtick_2">
     <g id="line2d_2">
      <g>
       <use style="stroke:#000000;stroke-width:0.8;" x="238.250625" xlink:href="#m486b5dcb8b" y="288.430125"/>
      </g>
     </g>
     <g id="text_2">
      <!-- develop_32 -->
      <g transform="translate(187.237369 330.78244)rotate(-30)scale(0.1 -0.1)">
       <defs>
        <path d="M 56.203125 29.59375 
L 56.203125 25.203125 
L 14.890625 25.203125 
Q 15.484375 15.921875 20.484375 11.0625 
Q 25.484375 6.203125 34.421875 6.203125 
Q 39.59375 6.203125 44.453125 7.46875 
Q 49.3125 8.734375 54.109375 11.28125 
L 54.109375 2.78125 
Q 49.265625 0.734375 44.1875 -0.34375 
Q 39.109375 -1.421875 33.890625 -1.421875 
Q 20.796875 -1.421875 13.15625 6.1875 
Q 5.515625 13.8125 5.515625 26.8125 
Q 5.515625 40.234375 12.765625 48.109375 
Q 20.015625 56 32.328125 56 
Q 43.359375 56 49.78125 48.890625 
Q 56.203125 41.796875 56.203125 29.59375 
z
M 47.21875 32.234375 
Q 47.125 39.59375 43.09375 43.984375 
Q 39.0625 48.390625 32.421875 48.390625 
Q 24.90625 48.390625 20.390625 44.140625 
Q 15.875 39.890625 15.1875 32.171875 
z
" id="DejaVuSans-101"/>
        <path d="M 2.984375 54.6875 
L 12.5 54.6875 
L 29.59375 8.796875 
L 46.6875 54.6875 
L 56.203125 54.6875 
L 35.6875 0 
L 23.484375 0 
z
" id="DejaVuSans-118"/>
        <path d="M 9.421875 75.984375 
L 18.40625 75.984375 
L 18.40625 0 
L 9.421875 0 
z
" id="DejaVuSans-108"/>
       </defs>
       <use xlink:href="#DejaVuSans-100"/>
       <use x="63.476562" xlink:href="#DejaVuSans-101"/>
       <use x="125" xlink:href="#DejaVuSans-118"/>
       <use x="184.179688" xlink:href="#DejaVuSans-101"/>
       <use x="245.703125" xlink:href="#DejaVuSans-108"/>
       <use x="273.486328" xlink:href="#DejaVuSans-111"/>
       <use x="334.667969" xlink:href="#DejaVuSans-112"/>
       <use x="398.144531" xlink:href="#DejaVuSans-95"/>
       <use x="448.144531" xlink:href="#DejaVuSans-51"/>
       <use x="511.767578" xlink:href="#DejaVuSans-50"/>
      </g>
     </g>
    </g>
    <g id="xtick_3">
     <g id="line2d_3">
      <g>
       <use style="stroke:#000000;stroke-width:0.8;" x="357.290625" xlink:href="#m486b5dcb8b" y="288.430125"/>
      </g>
     </g>
     <g id="text_3">
      <!-- develop_16 -->
      <g transform="translate(306.277369 330.78244)rotate(-30)scale(0.1 -0.1)">
       <defs>
        <path d="M 12.40625 8.296875 
L 28.515625 8.296875 
L 28.515625 63.921875 
L 10.984375 60.40625 
L 10.984375 69.390625 
L 28.421875 72.90625 
L 38.28125 72.90625 
L 38.28125 8.296875 
L 54.390625 8.296875 
L 54.390625 0 
L 12.40625 0 
z
" id="DejaVuSans-49"/>
        <path d="M 33.015625 40.375 
Q 26.375 40.375 22.484375 35.828125 
Q 18.609375 31.296875 18.609375 23.390625 
Q 18.609375 15.53125 22.484375 10.953125 
Q 26.375 6.390625 33.015625 6.390625 
Q 39.65625 6.390625 43.53125 10.953125 
Q 47.40625 15.53125 47.40625 23.390625 
Q 47.40625 31.296875 43.53125 35.828125 
Q 39.65625 40.375 33.015625 40.375 
z
M 52.59375 71.296875 
L 52.59375 62.3125 
Q 48.875 64.0625 45.09375 64.984375 
Q 41.3125 65.921875 37.59375 65.921875 
Q 27.828125 65.921875 22.671875 59.328125 
Q 17.53125 52.734375 16.796875 39.40625 
Q 19.671875 43.65625 24.015625 45.921875 
Q 28.375 48.1875 33.59375 48.1875 
Q 44.578125 48.1875 50.953125 41.515625 
Q 57.328125 34.859375 57.328125 23.390625 
Q 57.328125 12.15625 50.6875 5.359375 
Q 44.046875 -1.421875 33.015625 -1.421875 
Q 20.359375 -1.421875 13.671875 8.265625 
Q 6.984375 17.96875 6.984375 36.375 
Q 6.984375 53.65625 15.1875 63.9375 
Q 23.390625 74.21875 37.203125 74.21875 
Q 40.921875 74.21875 44.703125 73.484375 
Q 48.484375 72.75 52.59375 71.296875 
z
" id="DejaVuSans-54"/>
       </defs>
       <use xlink:href="#DejaVuSans-100"/>
       <use x="63.476562" xlink:href="#DejaVuSans-101"/>
       <use x="125" xlink:href="#DejaVuSans-118"/>
       <use x="184.179688" xlink:href="#DejaVuSans-101"/>
       <use x="245.703125" xlink:href="#DejaVuSans-108"/>
       <use x="273.486328" xlink:href="#DejaVuSans-111"/>
       <use x="334.667969" xlink:href="#DejaVuSans-112"/>
       <use x="398.144531" xlink:href="#DejaVuSans-95"/>
       <use x="448.144531" xlink:href="#DejaVuSans-49"/>
       <use x="511.767578" xlink:href="#DejaVuSans-54"/>
      </g>
     </g>
    </g>
    <g id="text_4">
     <!-- Fuzzer (highest median coverage on the left) -->
     <g transform="translate(125.632656 349.000928)scale(0.1 -0.1)">
      <defs>
       <path d="M 9.8125 72.90625 
L 51.703125 72.90625 
L 51.703125 64.59375 
L 19.671875 64.59375 
L 19.671875 43.109375 
L 48.578125 43.109375 
L 48.578125 34.8125 
L 19.671875 34.8125 
L 19.671875 0 
L 9.8125 0 
z
" id="DejaVuSans-70"/>
       <path d="M 8.5 21.578125 
L 8.5 54.6875 
L 17.484375 54.6875 
L 17.484375 21.921875 
Q 17.484375 14.15625 20.5 10.265625 
Q 23.53125 6.390625 29.59375 6.390625 
Q 36.859375 6.390625 41.078125 11.03125 
Q 45.3125 15.671875 45.3125 23.6875 
L 45.3125 54.6875 
L 54.296875 54.6875 
L 54.296875 0 
L 45.3125 0 
L 45.3125 8.40625 
Q 42.046875 3.421875 37.71875 1 
Q 33.40625 -1.421875 27.6875 -1.421875 
Q 18.265625 -1.421875 13.375 4.4375 
Q 8.5 10.296875 8.5 21.578125 
z
M 31.109375 56 
z
" id="DejaVuSans-117"/>
       <path d="M 5.515625 54.6875 
L 48.1875 54.6875 
L 48.1875 46.484375 
L 14.40625 7.171875 
L 48.1875 7.171875 
L 48.1875 0 
L 4.296875 0 
L 4.296875 8.203125 
L 38.09375 47.515625 
L 5.515625 47.515625 
z
" id="DejaVuSans-122"/>
       <path id="DejaVuSans-32"/>
       <path d="M 31 75.875 
Q 24.46875 64.65625 21.28125 53.65625 
Q 18.109375 42.671875 18.109375 31.390625 
Q 18.109375 20.125 21.3125 9.0625 
Q 24.515625 -2 31 -13.1875 
L 23.1875 -13.1875 
Q 15.875 -1.703125 12.234375 9.375 
Q 8.59375 20.453125 8.59375 31.390625 
Q 8.59375 42.28125 12.203125 53.3125 
Q 15.828125 64.359375 23.1875 75.875 
z
" id="DejaVuSans-40"/>
       <path d="M 54.890625 33.015625 
L 54.890625 0 
L 45.90625 0 
L 45.90625 32.71875 
Q 45.90625 40.484375 42.875 44.328125 
Q 39.84375 48.1875 33.796875 48.1875 
Q 26.515625 48.1875 22.3125 43.546875 
Q 18.109375 38.921875 18.109375 30.90625 
L 18.109375 0 
L 9.078125 0 
L 9.078125 75.984375 
L 18.109375 75.984375 
L 18.109375 46.1875 
Q 21.34375 51.125 25.703125 53.5625 
Q 30.078125 56 35.796875 56 
Q 45.21875 56 50.046875 50.171875 
Q 54.890625 44.34375 54.890625 33.015625 
z
" id="DejaVuSans-104"/>
       <path d="M 9.421875 54.6875 
L 18.40625 54.6875 
L 18.40625 0 
L 9.421875 0 
z
M 9.421875 75.984375 
L 18.40625 75.984375 
L 18.40625 64.59375 
L 9.421875 64.59375 
z
" id="DejaVuSans-105"/>
       <path d="M 45.40625 27.984375 
Q 45.40625 37.75 41.375 43.109375 
Q 37.359375 48.484375 30.078125 48.484375 
Q 22.859375 48.484375 18.828125 43.109375 
Q 14.796875 37.75 14.796875 27.984375 
Q 14.796875 18.265625 18.828125 12.890625 
Q 22.859375 7.515625 30.078125 7.515625 
Q 37.359375 7.515625 41.375 12.890625 
Q 45.40625 18.265625 45.40625 27.984375 
z
M 54.390625 6.78125 
Q 54.390625 -7.171875 48.1875 -13.984375 
Q 42 -20.796875 29.203125 -20.796875 
Q 24.46875 -20.796875 20.265625 -20.09375 
Q 16.0625 -19.390625 12.109375 -17.921875 
L 12.109375 -9.1875 
Q 16.0625 -11.328125 19.921875 -12.34375 
Q 23.78125 -13.375 27.78125 -13.375 
Q 36.625 -13.375 41.015625 -8.765625 
Q 45.40625 -4.15625 45.40625 5.171875 
L 45.40625 9.625 
Q 42.625 4.78125 38.28125 2.390625 
Q 33.9375 0 27.875 0 
Q 17.828125 0 11.671875 7.65625 
Q 5.515625 15.328125 5.515625 27.984375 
Q 5.515625 40.671875 11.671875 48.328125 
Q 17.828125 56 27.875 56 
Q 33.9375 56 38.28125 53.609375 
Q 42.625 51.21875 45.40625 46.390625 
L 45.40625 54.6875 
L 54.390625 54.6875 
z
" id="DejaVuSans-103"/>
       <path d="M 52 44.1875 
Q 55.375 50.25 60.0625 53.125 
Q 64.75 56 71.09375 56 
Q 79.640625 56 84.28125 50.015625 
Q 88.921875 44.046875 88.921875 33.015625 
L 88.921875 0 
L 79.890625 0 
L 79.890625 32.71875 
Q 79.890625 40.578125 77.09375 44.375 
Q 74.3125 48.1875 68.609375 48.1875 
Q 61.625 48.1875 57.5625 43.546875 
Q 53.515625 38.921875 53.515625 30.90625 
L 53.515625 0 
L 44.484375 0 
L 44.484375 32.71875 
Q 44.484375 40.625 41.703125 44.40625 
Q 38.921875 48.1875 33.109375 48.1875 
Q 26.21875 48.1875 22.15625 43.53125 
Q 18.109375 38.875 18.109375 30.90625 
L 18.109375 0 
L 9.078125 0 
L 9.078125 54.6875 
L 18.109375 54.6875 
L 18.109375 46.1875 
Q 21.1875 51.21875 25.484375 53.609375 
Q 29.78125 56 35.6875 56 
Q 41.65625 56 45.828125 52.96875 
Q 50 49.953125 52 44.1875 
z
" id="DejaVuSans-109"/>
       <path d="M 54.890625 33.015625 
L 54.890625 0 
L 45.90625 0 
L 45.90625 32.71875 
Q 45.90625 40.484375 42.875 44.328125 
Q 39.84375 48.1875 33.796875 48.1875 
Q 26.515625 48.1875 22.3125 43.546875 
Q 18.109375 38.921875 18.109375 30.90625 
L 18.109375 0 
L 9.078125 0 
L 9.078125 54.6875 
L 18.109375 54.6875 
L 18.109375 46.1875 
Q 21.34375 51.125 25.703125 53.5625 
Q 30.078125 56 35.796875 56 
Q 45.21875 56 50.046875 50.171875 
Q 54.890625 44.34375 54.890625 33.015625 
z
" id="DejaVuSans-110"/>
       <path d="M 48.78125 52.59375 
L 48.78125 44.1875 
Q 44.96875 46.296875 41.140625 47.34375 
Q 37.3125 48.390625 33.40625 48.390625 
Q 24.65625 48.390625 19.8125 42.84375 
Q 14.984375 37.3125 14.984375 27.296875 
Q 14.984375 17.28125 19.8125 11.734375 
Q 24.65625 6.203125 33.40625 6.203125 
Q 37.3125 6.203125 41.140625 7.25 
Q 44.96875 8.296875 48.78125 10.40625 
L 48.78125 2.09375 
Q 45.015625 0.34375 40.984375 -0.53125 
Q 36.96875 -1.421875 32.421875 -1.421875 
Q 20.0625 -1.421875 12.78125 6.34375 
Q 5.515625 14.109375 5.515625 27.296875 
Q 5.515625 40.671875 12.859375 48.328125 
Q 20.21875 56 33.015625 56 
Q 37.15625 56 41.109375 55.140625 
Q 45.0625 54.296875 48.78125 52.59375 
z
" id="DejaVuSans-99"/>
       <path d="M 37.109375 75.984375 
L 37.109375 68.5 
L 28.515625 68.5 
Q 23.6875 68.5 21.796875 66.546875 
Q 19.921875 64.59375 19.921875 59.515625 
L 19.921875 54.6875 
L 34.71875 54.6875 
L 34.71875 47.703125 
L 19.921875 47.703125 
L 19.921875 0 
L 10.890625 0 
L 10.890625 47.703125 
L 2.296875 47.703125 
L 2.296875 54.6875 
L 10.890625 54.6875 
L 10.890625 58.5 
Q 10.890625 67.625 15.140625 71.796875 
Q 19.390625 75.984375 28.609375 75.984375 
z
" id="DejaVuSans-102"/>
       <path d="M 8.015625 75.875 
L 15.828125 75.875 
Q 23.140625 64.359375 26.78125 53.3125 
Q 30.421875 42.28125 30.421875 31.390625 
Q 30.421875 20.453125 26.78125 9.375 
Q 23.140625 -1.703125 15.828125 -13.1875 
L 8.015625 -13.1875 
Q 14.5 -2 17.703125 9.0625 
Q 20.90625 20.125 20.90625 31.390625 
Q 20.90625 42.671875 17.703125 53.65625 
Q 14.5 64.65625 8.015625 75.875 
z
" id="DejaVuSans-41"/>
      </defs>
      <use xlink:href="#DejaVuSans-70"/>
      <use x="52.019531" xlink:href="#DejaVuSans-117"/>
      <use x="115.398438" xlink:href="#DejaVuSans-122"/>
      <use x="167.888672" xlink:href="#DejaVuSans-122"/>
      <use x="220.378906" xlink:href="#DejaVuSans-101"/>
      <use x="281.902344" xlink:href="#DejaVuSans-114"/>
      <use x="323.015625" xlink:href="#DejaVuSans-32"/>
      <use x="354.802734" xlink:href="#DejaVuSans-40"/>
      <use x="393.816406" xlink:href="#DejaVuSans-104"/>
      <use x="457.195312" xlink:href="#DejaVuSans-105"/>
      <use x="484.978516" xlink:href="#DejaVuSans-103"/>
      <use x="548.455078" xlink:href="#DejaVuSans-104"/>
      <use x="611.833984" xlink:href="#DejaVuSans-101"/>
      <use x="673.357422" xlink:href="#DejaVuSans-115"/>
      <use x="725.457031" xlink:href="#DejaVuSans-116"/>
      <use x="764.666016" xlink:href="#DejaVuSans-32"/>
      <use x="796.453125" xlink:href="#DejaVuSans-109"/>
      <use x="893.865234" xlink:href="#DejaVuSans-101"/>
      <use x="955.388672" xlink:href="#DejaVuSans-100"/>
      <use x="1018.865234" xlink:href="#DejaVuSans-105"/>
      <use x="1046.648438" xlink:href="#DejaVuSans-97"/>
      <use x="1107.927734" xlink:href="#DejaVuSans-110"/>
      <use x="1171.306641" xlink:href="#DejaVuSans-32"/>
      <use x="1203.09375" xlink:href="#DejaVuSans-99"/>
      <use x="1258.074219" xlink:href="#DejaVuSans-111"/>
      <use x="1319.255859" xlink:href="#DejaVuSans-118"/>
      <use x="1378.435547" xlink:href="#DejaVuSans-101"/>
      <use x="1439.958984" xlink:href="#DejaVuSans-114"/>
      <use x="1481.072266" xlink:href="#DejaVuSans-97"/>
      <use x="1542.351562" xlink:href="#DejaVuSans-103"/>
      <use x="1605.828125" xlink:href="#DejaVuSans-101"/>
      <use x="1667.351562" xlink:href="#DejaVuSans-32"/>
      <use x="1699.138672" xlink:href="#DejaVuSans-111"/>
      <use x="1760.320312" xlink:href="#DejaVuSans-110"/>
      <use x="1823.699219" xlink:href="#DejaVuSans-32"/>
      <use x="1855.486328" xlink:href="#DejaVuSans-116"/>
      <use x="1894.695312" xlink:href="#DejaVuSans-104"/>
      <use x="1958.074219" xlink:href="#DejaVuSans-101"/>
      <use x="2019.597656" xlink:href="#DejaVuSans-32"/>
      <use x="2051.384766" xlink:href="#DejaVuSans-108"/>
      <use x="2079.167969" xlink:href="#DejaVuSans-101"/>
      <use x="2140.691406" xlink:href="#DejaVuSans-102"/>
      <use x="2174.146484" xlink:href="#DejaVuSans-116"/>
      <use x="2213.355469" xlink:href="#DejaVuSans-41"/>
     </g>
    </g>
   </g>
   <g id="matplotlib.axis_2">
    <g id="ytick_1">
     <g id="line2d_4">
      <defs>
       <path d="M 0 0 
L -3.5 0 
" id="m4566980ec0" style="stroke:#000000;stroke-width:0.8;"/>
      </defs>
      <g>
       <use style="stroke:#000000;stroke-width:0.8;" x="59.690625" xlink:href="#m4566980ec0" y="274.664086"/>
      </g>
     </g>
     <g id="text_5">
      <!-- 22000 -->
      <g transform="translate(20.878125 278.463305)scale(0.1 -0.1)">
       <defs>
        <path d="M 31.78125 66.40625 
Q 24.171875 66.40625 20.328125 58.90625 
Q 16.5 51.421875 16.5 36.375 
Q 16.5 21.390625 20.328125 13.890625 
Q 24.171875 6.390625 31.78125 6.390625 
Q 39.453125 6.390625 43.28125 13.890625 
Q 47.125 21.390625 47.125 36.375 
Q 47.125 51.421875 43.28125 58.90625 
Q 39.453125 66.40625 31.78125 66.40625 
z
M 31.78125 74.21875 
Q 44.046875 74.21875 50.515625 64.515625 
Q 56.984375 54.828125 56.984375 36.375 
Q 56.984375 17.96875 50.515625 8.265625 
Q 44.046875 -1.421875 31.78125 -1.421875 
Q 19.53125 -1.421875 13.0625 8.265625 
Q 6.59375 17.96875 6.59375 36.375 
Q 6.59375 54.828125 13.0625 64.515625 
Q 19.53125 74.21875 31.78125 74.21875 
z
" id="DejaVuSans-48"/>
       </defs>
       <use xlink:href="#DejaVuSans-50"/>
       <use x="63.623047" xlink:href="#DejaVuSans-50"/>
       <use x="127.246094" xlink:href="#DejaVuSans-48"/>
       <use x="190.869141" xlink:href="#DejaVuSans-48"/>
       <use x="254.492188" xlink:href="#DejaVuSans-48"/>
      </g>
     </g>
    </g>
    <g id="ytick_2">
     <g id="line2d_5">
      <g>
       <use style="stroke:#000000;stroke-width:0.8;" x="59.690625" xlink:href="#m4566980ec0" y="236.592228"/>
      </g>
     </g>
     <g id="text_6">
      <!-- 23000 -->
      <g transform="translate(20.878125 240.391446)scale(0.1 -0.1)">
       <use xlink:href="#DejaVuSans-50"/>
       <use x="63.623047" xlink:href="#DejaVuSans-51"/>
       <use x="127.246094" xlink:href="#DejaVuSans-48"/>
       <use x="190.869141" xlink:href="#DejaVuSans-48"/>
       <use x="254.492188" xlink:href="#DejaVuSans-48"/>
      </g>
     </g>
    </g>
    <g id="ytick_3">
     <g id="line2d_6">
      <g>
       <use style="stroke:#000000;stroke-width:0.8;" x="59.690625" xlink:href="#m4566980ec0" y="198.520369"/>
      </g>
     </g>
     <g id="text_7">
      <!-- 24000 -->
      <g transform="translate(20.878125 202.319588)scale(0.1 -0.1)">
       <defs>
        <path d="M 37.796875 64.3125 
L 12.890625 25.390625 
L 37.796875 25.390625 
z
M 35.203125 72.90625 
L 47.609375 72.90625 
L 47.609375 25.390625 
L 58.015625 25.390625 
L 58.015625 17.1875 
L 47.609375 17.1875 
L 47.609375 0 
L 37.796875 0 
L 37.796875 17.1875 
L 4.890625 17.1875 
L 4.890625 26.703125 
z
" id="DejaVuSans-52"/>
       </defs>
       <use xlink:href="#DejaVuSans-50"/>
       <use x="63.623047" xlink:href="#DejaVuSans-52"/>
       <use x="127.246094" xlink:href="#DejaVuSans-48"/>
       <use x="190.869141" xlink:href="#DejaVuSans-48"/>
       <use x="254.492188" xlink:href="#DejaVuSans-48"/>
      </g>
     </g>
    </g>
    <g id="ytick_4">
     <g id="line2d_7">
      <g>
       <use style="stroke:#000000;stroke-width:0.8;" x="59.690625" xlink:href="#m4566980ec0" y="160.448511"/>
      </g>
     </g>
     <g id="text_8">
      <!-- 25000 -->
      <g transform="translate(20.878125 164.24773)scale(0.1 -0.1)">
       <defs>
        <path d="M 10.796875 72.90625 
L 49.515625 72.90625 
L 49.515625 64.59375 
L 19.828125 64.59375 
L 19.828125 46.734375 
Q 21.96875 47.46875 24.109375 47.828125 
Q 26.265625 48.1875 28.421875 48.1875 
Q 40.625 48.1875 47.75 41.5 
Q 54.890625 34.8125 54.890625 23.390625 
Q 54.890625 11.625 47.5625 5.09375 
Q 40.234375 -1.421875 26.90625 -1.421875 
Q 22.3125 -1.421875 17.546875 -0.640625 
Q 12.796875 0.140625 7.71875 1.703125 
L 7.71875 11.625 
Q 12.109375 9.234375 16.796875 8.0625 
Q 21.484375 6.890625 26.703125 6.890625 
Q 35.15625 6.890625 40.078125 11.328125 
Q 45.015625 15.765625 45.015625 23.390625 
Q 45.015625 31 40.078125 35.4375 
Q 35.15625 39.890625 26.703125 39.890625 
Q 22.75 39.890625 18.8125 39.015625 
Q 14.890625 38.140625 10.796875 36.28125 
z
" id="DejaVuSans-53"/>
       </defs>
       <use xlink:href="#DejaVuSans-50"/>
       <use x="63.623047" xlink:href="#DejaVuSans-53"/>
       <use x="127.246094" xlink:href="#DejaVuSans-48"/>
       <use x="190.869141" xlink:href="#DejaVuSans-48"/>
       <use x="254.492188" xlink:href="#DejaVuSans-48"/>
      </g>
     </g>
    </g>
    <g id="ytick_5">
     <g id="line2d_8">
      <g>
       <use style="stroke:#000000;stroke-width:0.8;" x="59.690625" xlink:href="#m4566980ec0" y="122.376653"/>
      </g>
     </g>
     <g id="text_9">
      <!-- 26000 -->
      <g transform="translate(20.878125 126.175871)scale(0.1 -0.1)">
       <use xlink:href="#DejaVuSans-50"/>
       <use x="63.623047" xlink:href="#DejaVuSans-54"/>
       <use x="127.246094" xlink:href="#DejaVuSans-48"/>
       <use x="190.869141" xlink:href="#DejaVuSans-48"/>
       <use x="254.492188" xlink:href="#DejaVuSans-48"/>
      </g>
     </g>
    </g>
    <g id="ytick_6">
     <g id="line2d_9">
      <g>
       <use style="stroke:#000000;stroke-width:0.8;" x="59.690625" xlink:href="#m4566980ec0" y="84.304794"/>
      </g>
     </g>
     <g id="text_10">
      <!-- 27000 -->
      <g transform="translate(20.878125 88.104013)scale(0.1 -0.1)">
       <defs>
        <path d="M 8.203125 72.90625 
L 55.078125 72.90625 
L 55.078125 68.703125 
L 28.609375 0 
L 18.3125 0 
L 43.21875 64.59375 
L 8.203125 64.59375 
z
" id="DejaVuSans-55"/>
       </defs>
       <use xlink:href="#DejaVuSans-50"/>
       <use x="63.623047" xlink:href="#DejaVuSans-55"/>
       <use x="127.246094" xlink:href="#DejaVuSans-48"/>
       <use x="190.869141" xlink:href="#DejaVuSans-48"/>
       <use x="254.492188" xlink:href="#DejaVuSans-48"/>
      </g>
     </g>
    </g>
    <g id="ytick_7">
     <g id="line2d_10">
      <g>
       <use style="stroke:#000000;stroke-width:0.8;" x="59.690625" xlink:href="#m4566980ec0" y="46.232936"/>
      </g>
     </g>
     <g id="text_11">
      <!-- 28000 -->
      <g transform="translate(20.878125 50.032155)scale(0.1 -0.1)">
       <defs>
        <path d="M 31.78125 34.625 
Q 24.75 34.625 20.71875 30.859375 
Q 16.703125 27.09375 16.703125 20.515625 
Q 16.703125 13.921875 20.71875 10.15625 
Q 24.75 6.390625 31.78125 6.390625 
Q 38.8125 6.390625 42.859375 10.171875 
Q 46.921875 13.96875 46.921875 20.515625 
Q 46.921875 27.09375 42.890625 30.859375 
Q 38.875 34.625 31.78125 34.625 
z
M 21.921875 38.8125 
Q 15.578125 40.375 12.03125 44.71875 
Q 8.5 49.078125 8.5 55.328125 
Q 8.5 64.0625 14.71875 69.140625 
Q 20.953125 74.21875 31.78125 74.21875 
Q 42.671875 74.21875 48.875 69.140625 
Q 55.078125 64.0625 55.078125 55.328125 
Q 55.078125 49.078125 51.53125 44.71875 
Q 48 40.375 41.703125 38.8125 
Q 48.828125 37.15625 52.796875 32.3125 
Q 56.78125 27.484375 56.78125 20.515625 
Q 56.78125 9.90625 50.3125 4.234375 
Q 43.84375 -1.421875 31.78125 -1.421875 
Q 19.734375 -1.421875 13.25 4.234375 
Q 6.78125 9.90625 6.78125 20.515625 
Q 6.78125 27.484375 10.78125 32.3125 
Q 14.796875 37.15625 21.921875 38.8125 
z
M 18.3125 54.390625 
Q 18.3125 48.734375 21.84375 45.5625 
Q 25.390625 42.390625 31.78125 42.390625 
Q 38.140625 42.390625 41.71875 45.5625 
Q 45.3125 48.734375 45.3125 54.390625 
Q 45.3125 60.0625 41.71875 63.234375 
Q 38.140625 66.40625 31.78125 66.40625 
Q 25.390625 66.40625 21.84375 63.234375 
Q 18.3125 60.0625 18.3125 54.390625 
z
" id="DejaVuSans-56"/>
       </defs>
       <use xlink:href="#DejaVuSans-50"/>
       <use x="63.623047" xlink:href="#DejaVuSans-56"/>
       <use x="127.246094" xlink:href="#DejaVuSans-48"/>
       <use x="190.869141" xlink:href="#DejaVuSans-48"/>
       <use x="254.492188" xlink:href="#DejaVuSans-48"/>
      </g>
     </g>
    </g>
    <g id="text_12">
     <!-- Reached region coverage -->
     <g transform="translate(14.798438 219.136625)rotate(-90)scale(0.1 -0.1)">
      <defs>
       <path d="M 44.390625 34.1875 
Q 47.5625 33.109375 50.5625 29.59375 
Q 53.5625 26.078125 56.59375 19.921875 
L 66.609375 0 
L 56 0 
L 46.6875 18.703125 
Q 43.0625 26.03125 39.671875 28.421875 
Q 36.28125 30.8125 30.421875 30.8125 
L 19.671875 30.8125 
L 19.671875 0 
L 9.8125 0 
L 9.8125 72.90625 
L 32.078125 72.90625 
Q 44.578125 72.90625 50.734375 67.671875 
Q 56.890625 62.453125 56.890625 51.90625 
Q 56.890625 45.015625 53.6875 40.46875 
Q 50.484375 35.9375 44.390625 34.1875 
z
M 19.671875 64.796875 
L 19.671875 38.921875 
L 32.078125 38.921875 
Q 39.203125 38.921875 42.84375 42.21875 
Q 46.484375 45.515625 46.484375 51.90625 
Q 46.484375 58.296875 42.84375 61.546875 
Q 39.203125 64.796875 32.078125 64.796875 
z
" id="DejaVuSans-82"/>
      </defs>
      <use xlink:href="#DejaVuSans-82"/>
      <use x="64.982422" xlink:href="#DejaVuSans-101"/>
      <use x="126.505859" xlink:href="#DejaVuSans-97"/>
      <use x="187.785156" xlink:href="#DejaVuSans-99"/>
      <use x="242.765625" xlink:href="#DejaVuSans-104"/>
      <use x="306.144531" xlink:href="#DejaVuSans-101"/>
      <use x="367.667969" xlink:href="#DejaVuSans-100"/>
      <use x="431.144531" xlink:href="#DejaVuSans-32"/>
      <use x="462.931641" xlink:href="#DejaVuSans-114"/>
      <use x="501.794922" xlink:href="#DejaVuSans-101"/>
      <use x="563.318359" xlink:href="#DejaVuSans-103"/>
      <use x="626.794922" xlink:href="#DejaVuSans-105"/>
      <use x="654.578125" xlink:href="#DejaVuSans-111"/>
      <use x="715.759766" xlink:href="#DejaVuSans-110"/>
      <use x="779.138672" xlink:href="#DejaVuSans-32"/>
      <use x="810.925781" xlink:href="#DejaVuSans-99"/>
      <use x="865.90625" xlink:href="#DejaVuSans-111"/>
      <use x="927.087891" xlink:href="#DejaVuSans-118"/>
      <use x="986.267578" xlink:href="#DejaVuSans-101"/>
      <use x="1047.791016" xlink:href="#DejaVuSans-114"/>
      <use x="1088.904297" xlink:href="#DejaVuSans-97"/>
      <use x="1150.183594" xlink:href="#DejaVuSans-103"/>
      <use x="1213.660156" xlink:href="#DejaVuSans-101"/>
     </g>
    </g>
   </g>
   <g id="line2d_11">
    <path clip-path="url(#p37203fc5eb)" d="M 119.210625 182.187542 
L 119.210625 88.11198 
" style="fill:none;stroke:#3f3f3f;stroke-linecap:square;stroke-width:1.5;"/>
   </g>
   <g id="line2d_12">
    <path clip-path="url(#p37203fc5eb)" d="M 119.210625 167.291927 
L 119.210625 108.965841 
" style="fill:none;stroke:#3f3f3f;stroke-linecap:square;stroke-width:4.5;"/>
   </g>
   <g id="line2d_13">
    <path clip-path="url(#p37203fc5eb)" d="M 238.250625 165.512068 
L 238.250625 150.511756 
" style="fill:none;stroke:#3f3f3f;stroke-linecap:square;stroke-width:1.5;"/>
   </g>
   <g id="line2d_14">
    <path clip-path="url(#p37203fc5eb)" d="M 238.250625 180.493344 
L 238.250625 159.591894 
" style="fill:none;stroke:#3f3f3f;stroke-linecap:square;stroke-width:4.5;"/>
   </g>
   <g id="line2d_15">
    <path clip-path="url(#p37203fc5eb)" d="M 357.290625 231.490599 
L 357.290625 185.157147 
" style="fill:none;stroke:#3f3f3f;stroke-linecap:square;stroke-width:1.5;"/>
   </g>
   <g id="line2d_16">
    <path clip-path="url(#p37203fc5eb)" d="M 357.290625 220.602047 
L 357.290625 194.713183 
" style="fill:none;stroke:#3f3f3f;stroke-linecap:square;stroke-width:4.5;"/>
   </g>
   <g id="patch_3">
    <path d="M 59.690625 274.664086 
L 59.690625 46.232936 
" style="fill:none;stroke:#000000;stroke-linecap:square;stroke-linejoin:miter;stroke-width:0.8;"/>
   </g>
   <g id="patch_4">
    <path d="M 119.210625 288.430125 
L 357.290625 288.430125 
" style="fill:none;stroke:#000000;stroke-linecap:square;stroke-linejoin:miter;stroke-width:0.8;"/>
   </g>
   <g id="PathCollection_1">
    <defs>
     <path d="M 0 1.5 
C 0.397805 1.5 0.77937 1.341951 1.06066 1.06066 
C 1.341951 0.77937 1.5 0.397805 1.5 0 
C 1.5 -0.397805 1.341951 -0.77937 1.06066 -1.06066 
C 0.77937 -1.341951 0.397805 -1.5 0 -1.5 
C -0.397805 -1.5 -0.77937 -1.341951 -1.06066 -1.06066 
C -1.341951 -0.77937 -1.5 -0.397805 -1.5 0 
C -1.5 0.397805 -1.341951 0.77937 -1.06066 1.06066 
C -0.77937 1.341951 -0.397805 1.5 0 1.5 
z
" id="m0b59458b4b" style="stroke:#3f3f3f;"/>
    </defs>
    <g clip-path="url(#p37203fc5eb)">
     <use style="fill:#ffffff;stroke:#3f3f3f;" x="119.210625" xlink:href="#m0b59458b4b" y="146.837822"/>
    </g>
   </g>
   <g id="PathCollection_2">
    <g clip-path="url(#p37203fc5eb)">
     <use style="fill:#ffffff;stroke:#3f3f3f;" x="238.250625" xlink:href="#m0b59458b4b" y="164.065337"/>
    </g>
   </g>
   <g id="PathCollection_3">
    <g clip-path="url(#p37203fc5eb)">
     <use style="fill:#ffffff;stroke:#3f3f3f;" x="357.290625" xlink:href="#m0b59458b4b" y="201.60419"/>
    </g>
   </g>
   <g id="text_13">
    <!-- sqlite3_ossfuzz (23h:45m, 4 trials/fuzzer) -->
    <g transform="translate(114.572813 16.318125)scale(0.12 -0.12)">
     <defs>
      <path d="M 14.796875 27.296875 
Q 14.796875 17.390625 18.875 11.75 
Q 22.953125 6.109375 30.078125 6.109375 
Q 37.203125 6.109375 41.296875 11.75 
Q 45.40625 17.390625 45.40625 27.296875 
Q 45.40625 37.203125 41.296875 42.84375 
Q 37.203125 48.484375 30.078125 48.484375 
Q 22.953125 48.484375 18.875 42.84375 
Q 14.796875 37.203125 14.796875 27.296875 
z
M 45.40625 8.203125 
Q 42.578125 3.328125 38.25 0.953125 
Q 33.9375 -1.421875 27.875 -1.421875 
Q 17.96875 -1.421875 11.734375 6.484375 
Q 5.515625 14.40625 5.515625 27.296875 
Q 5.515625 40.1875 11.734375 48.09375 
Q 17.96875 56 27.875 56 
Q 33.9375 56 38.25 53.625 
Q 42.578125 51.265625 45.40625 46.390625 
L 45.40625 54.6875 
L 54.390625 54.6875 
L 54.390625 -20.796875 
L 45.40625 -20.796875 
z
" id="DejaVuSans-113"/>
      <path d="M 11.71875 12.40625 
L 22.015625 12.40625 
L 22.015625 0 
L 11.71875 0 
z
M 11.71875 51.703125 
L 22.015625 51.703125 
L 22.015625 39.3125 
L 11.71875 39.3125 
z
" id="DejaVuSans-58"/>
      <path d="M 11.71875 12.40625 
L 22.015625 12.40625 
L 22.015625 4 
L 14.015625 -11.625 
L 7.71875 -11.625 
L 11.71875 4 
z
" id="DejaVuSans-44"/>
      <path d="M 25.390625 72.90625 
L 33.6875 72.90625 
L 8.296875 -9.28125 
L 0 -9.28125 
z
" id="DejaVuSans-47"/>
     </defs>
     <use xlink:href="#DejaVuSans-115"/>
     <use x="52.099609" xlink:href="#DejaVuSans-113"/>
     <use x="115.576172" xlink:href="#DejaVuSans-108"/>
     <use x="143.359375" xlink:href="#DejaVuSans-105"/>
     <use x="171.142578" xlink:href="#DejaVuSans-116"/>
     <use x="210.351562" xlink:href="#DejaVuSans-101"/>
     <use x="271.875" xlink:href="#DejaVuSans-51"/>
     <use x="335.498047" xlink:href="#DejaVuSans-95"/>
     <use x="385.498047" xlink:href="#DejaVuSans-111"/>
     <use x="446.679688" xlink:href="#DejaVuSans-115"/>
     <use x="498.779297" xlink:href="#DejaVuSans-115"/>
     <use x="550.878906" xlink:href="#DejaVuSans-102"/>
     <use x="586.083984" xlink:href="#DejaVuSans-117"/>
     <use x="649.462891" xlink:href="#DejaVuSans-122"/>
     <use x="701.953125" xlink:href="#DejaVuSans-122"/>
     <use x="754.443359" xlink:href="#DejaVuSans-32"/>
     <use x="786.230469" xlink:href="#DejaVuSans-40"/>
     <use x="825.244141" xlink:href="#DejaVuSans-50"/>
     <use x="888.867188" xlink:href="#DejaVuSans-51"/>
     <use x="952.490234" xlink:href="#DejaVuSans-104"/>
     <use x="1015.869141" xlink:href="#DejaVuSans-58"/>
     <use x="1049.560547" xlink:href="#DejaVuSans-52"/>
     <use x="1113.183594" xlink:href="#DejaVuSans-53"/>
     <use x="1176.806641" xlink:href="#DejaVuSans-109"/>
     <use x="1274.21875" xlink:href="#DejaVuSans-44"/>
     <use x="1306.005859" xlink:href="#DejaVuSans-32"/>
     <use x="1337.792969" xlink:href="#DejaVuSans-52"/>
     <use x="1401.416016" xlink:href="#DejaVuSans-32"/>
     <use x="1433.203125" xlink:href="#DejaVuSans-116"/>
     <use x="1472.412109" xlink:href="#DejaVuSans-114"/>
     <use x="1513.525391" xlink:href="#DejaVuSans-105"/>
     <use x="1541.308594" xlink:href="#DejaVuSans-97"/>
     <use x="1602.587891" xlink:href="#DejaVuSans-108"/>
     <use x="1630.371094" xlink:href="#DejaVuSans-115"/>
     <use x="1682.470703" xlink:href="#DejaVuSans-47"/>
     <use x="1716.162109" xlink:href="#DejaVuSans-102"/>
     <use x="1751.367188" xlink:href="#DejaVuSans-117"/>
     <use x="1814.746094" xlink:href="#DejaVuSans-122"/>
     <use x="1867.236328" xlink:href="#DejaVuSans-122"/>
     <use x="1919.726562" xlink:href="#DejaVuSans-101"/>
     <use x="1981.25" xlink:href="#DejaVuSans-114"/>
     <use x="2022.363281" xlink:href="#DejaVuSans-41"/>
    </g>
   </g>
  </g>
 </g>
 <defs>
  <clipPath id="p37203fc5eb">
   <rect height="266.112" width="357.12" x="59.690625" y="22.318125"/>
  </clipPath>
 </defs>
</svg>
