<?xml version="1.0" encoding="utf-8" standalone="no"?>
<!DOCTYPE svg PUBLIC "-//W3C//DTD SVG 1.1//EN"
  "http://www.w3.org/Graphics/SVG/1.1/DTD/svg11.dtd">
<!-- Created with matplotlib (https://matplotlib.org/) -->
<svg height="358.280615pt" version="1.1" viewBox="0 0 417.648125 358.280615" width="417.648125pt" xmlns="http://www.w3.org/2000/svg" xmlns:xlink="http://www.w3.org/1999/xlink">
 <metadata>
  <rdf:RDF xmlns:cc="http://creativecommons.org/ns#" xmlns:dc="http://purl.org/dc/elements/1.1/" xmlns:rdf="http://www.w3.org/1999/02/22-rdf-syntax-ns#">
   <cc:Work>
    <dc:type rdf:resource="http://purl.org/dc/dcmitype/StillImage"/>
    <dc:date>2021-01-07T20:12:06.456206</dc:date>
    <dc:format>image/svg+xml</dc:format>
    <dc:creator>
     <cc:Agent>
      <dc:title>Matplotlib v3.3.3, https://matplotlib.org/</dc:title>
     </cc:Agent>
    </dc:creator>
   </cc:Work>
  </rdf:RDF>
 </metadata>
 <defs>
  <style type="text/css">*{stroke-linecap:butt;stroke-linejoin:round;}</style>
 </defs>
 <g id="figure_1">
  <g id="patch_1">
   <path d="M 0 358.280615 
L 417.648125 358.280615 
L 417.648125 -0 
L 0 -0 
z
" style="fill:#ffffff;"/>
  </g>
  <g id="axes_1">
   <g id="patch_2">
    <path d="M 53.328125 288.430125 
L 410.448125 288.430125 
L 410.448125 22.318125 
L 53.328125 22.318125 
z
" style="fill:#ffffff;"/>
   </g>
   <g id="PolyCollection_1">
    <defs>
     <path d="M 114.187328 -99.638149 
L 111.508922 -99.638149 
L 111.249342 -101.876519 
L 110.952773 -104.114889 
L 110.616721 -106.35326 
L 110.239044 -108.59163 
L 109.818039 -110.83 
L 109.352529 -113.06837 
L 108.841934 -115.30674 
L 108.286328 -117.545111 
L 107.68647 -119.783481 
L 107.043808 -122.021851 
L 106.360454 -124.260221 
L 105.639134 -126.498591 
L 104.883092 -128.736961 
L 104.095984 -130.975332 
L 103.281731 -133.213702 
L 102.444362 -135.452072 
L 101.587844 -137.690442 
L 100.715909 -139.928812 
L 99.831888 -142.167182 
L 98.938562 -144.405553 
L 98.038039 -146.643923 
L 97.131668 -148.882293 
L 96.219997 -151.120663 
L 95.302771 -153.359033 
L 94.378991 -155.597404 
L 93.447021 -157.835774 
L 92.504741 -160.074144 
L 91.549749 -162.312514 
L 90.579601 -164.550884 
L 89.592074 -166.789254 
L 88.585451 -169.027625 
L 87.558807 -171.265995 
L 86.512289 -173.504365 
L 85.447365 -175.742735 
L 84.367042 -177.981105 
L 83.276031 -180.219476 
L 82.180847 -182.457846 
L 81.089842 -184.696216 
L 80.013148 -186.934586 
L 78.962552 -189.172956 
L 77.951266 -191.411326 
L 76.993638 -193.649697 
L 76.104765 -195.888067 
L 75.300065 -198.126437 
L 74.594783 -200.364807 
L 74.003478 -202.603177 
L 73.539494 -204.841547 
L 73.214454 -207.079918 
L 73.037782 -209.318288 
L 73.016291 -211.556658 
L 73.15386 -213.795028 
L 73.451197 -216.033398 
L 73.905738 -218.271769 
L 74.511653 -220.510139 
L 75.259989 -222.748509 
L 76.13894 -224.986879 
L 77.134223 -227.225249 
L 78.229556 -229.463619 
L 79.407221 -231.70199 
L 80.648662 -233.94036 
L 81.93512 -236.17873 
L 83.248253 -238.4171 
L 84.570718 -240.65547 
L 85.886699 -242.89384 
L 87.182331 -245.132211 
L 88.446034 -247.370581 
L 89.66872 -249.608951 
L 90.843877 -251.847321 
L 91.967536 -254.085691 
L 93.038119 -256.324062 
L 94.056189 -258.562432 
L 95.024122 -260.800802 
L 95.945716 -263.039172 
L 96.82577 -265.277542 
L 97.669655 -267.515912 
L 98.482896 -269.754283 
L 99.270799 -271.992653 
L 100.038123 -274.231023 
L 100.788829 -276.469393 
L 101.525894 -278.707763 
L 102.251219 -280.946133 
L 102.965597 -283.184504 
L 103.668767 -285.422874 
L 104.359516 -287.661244 
L 105.035837 -289.899614 
L 105.695115 -292.137984 
L 106.334337 -294.376355 
L 106.950303 -296.614725 
L 107.539826 -298.853095 
L 108.099923 -301.091465 
L 108.627962 -303.329835 
L 109.12179 -305.568205 
L 109.579819 -307.806576 
L 110.001071 -310.044946 
L 110.385193 -312.283316 
L 110.732443 -314.521686 
L 111.043639 -316.760056 
L 111.320101 -318.998426 
L 111.56357 -321.236797 
L 114.13268 -321.236797 
L 114.13268 -321.236797 
L 114.376149 -318.998426 
L 114.652611 -316.760056 
L 114.963807 -314.521686 
L 115.311057 -312.283316 
L 115.695179 -310.044946 
L 116.116431 -307.806576 
L 116.57446 -305.568205 
L 117.068288 -303.329835 
L 117.596327 -301.091465 
L 118.156424 -298.853095 
L 118.745947 -296.614725 
L 119.361913 -294.376355 
L 120.001135 -292.137984 
L 120.660413 -289.899614 
L 121.336734 -287.661244 
L 122.027483 -285.422874 
L 122.730653 -283.184504 
L 123.445031 -280.946133 
L 124.170356 -278.707763 
L 124.907421 -276.469393 
L 125.658127 -274.231023 
L 126.425451 -271.992653 
L 127.213354 -269.754283 
L 128.026595 -267.515912 
L 128.87048 -265.277542 
L 129.750534 -263.039172 
L 130.672128 -260.800802 
L 131.640061 -258.562432 
L 132.658131 -256.324062 
L 133.728714 -254.085691 
L 134.852373 -251.847321 
L 136.02753 -249.608951 
L 137.250216 -247.370581 
L 138.513919 -245.132211 
L 139.809551 -242.89384 
L 141.125532 -240.65547 
L 142.447997 -238.4171 
L 143.76113 -236.17873 
L 145.047588 -233.94036 
L 146.289029 -231.70199 
L 147.466694 -229.463619 
L 148.562027 -227.225249 
L 149.55731 -224.986879 
L 150.436261 -222.748509 
L 151.184597 -220.510139 
L 151.790512 -218.271769 
L 152.245053 -216.033398 
L 152.54239 -213.795028 
L 152.679959 -211.556658 
L 152.658468 -209.318288 
L 152.481796 -207.079918 
L 152.156756 -204.841547 
L 151.692772 -202.603177 
L 151.101467 -200.364807 
L 150.396185 -198.126437 
L 149.591485 -195.888067 
L 148.702612 -193.649697 
L 147.744984 -191.411326 
L 146.733698 -189.172956 
L 145.683102 -186.934586 
L 144.606408 -184.696216 
L 143.515403 -182.457846 
L 142.420219 -180.219476 
L 141.329208 -177.981105 
L 140.248885 -175.742735 
L 139.183961 -173.504365 
L 138.137443 -171.265995 
L 137.110799 -169.027625 
L 136.104176 -166.789254 
L 135.116649 -164.550884 
L 134.146501 -162.312514 
L 133.191509 -160.074144 
L 132.249229 -157.835774 
L 131.317259 -155.597404 
L 130.393479 -153.359033 
L 129.476253 -151.120663 
L 128.564582 -148.882293 
L 127.658211 -146.643923 
L 126.757688 -144.405553 
L 125.864362 -142.167182 
L 124.980341 -139.928812 
L 124.108406 -137.690442 
L 123.251888 -135.452072 
L 122.414519 -133.213702 
L 121.600266 -130.975332 
L 120.813158 -128.736961 
L 120.057116 -126.498591 
L 119.335796 -124.260221 
L 118.652442 -122.021851 
L 118.00978 -119.783481 
L 117.409922 -117.545111 
L 116.854316 -115.30674 
L 116.343721 -113.06837 
L 115.878211 -110.83 
L 115.457206 -108.59163 
L 115.079529 -106.35326 
L 114.743477 -104.114889 
L 114.446908 -101.876519 
L 114.187328 -99.638149 
z
" id="mc612ee74d2" style="stroke:#3f3f3f;stroke-width:1.5;"/>
    </defs>
    <g clip-path="url(#p5cc88099f5)">
     <use style="fill:#3274a1;stroke:#3f3f3f;stroke-width:1.5;" x="0" xlink:href="#mc612ee74d2" y="358.280615"/>
    </g>
   </g>
   <g id="PolyCollection_2">
    <defs>
     <path d="M 233.217252 -81.94649 
L 230.558998 -81.94649 
L 230.315388 -84.390127 
L 230.039857 -86.833763 
L 229.73079 -89.2774 
L 229.386963 -91.721036 
L 229.007612 -94.164672 
L 228.592491 -96.608309 
L 228.141914 -99.051945 
L 227.656773 -101.495581 
L 227.13853 -103.939218 
L 226.589177 -106.382854 
L 226.011164 -108.82649 
L 225.407296 -111.270127 
L 224.780601 -113.713763 
L 224.134164 -116.1574 
L 223.470952 -118.601036 
L 222.79362 -121.044672 
L 222.104322 -123.488309 
L 221.404529 -125.931945 
L 220.694879 -128.375581 
L 219.975058 -130.819218 
L 219.243735 -133.262854 
L 218.498553 -135.70649 
L 217.736193 -138.150127 
L 216.952504 -140.593763 
L 216.142707 -143.0374 
L 215.301667 -145.481036 
L 214.424227 -147.924672 
L 213.505581 -150.368309 
L 212.541677 -152.811945 
L 211.52964 -155.255581 
L 210.468165 -157.699218 
L 209.357888 -160.142854 
L 208.201689 -162.58649 
L 207.004922 -165.030127 
L 205.775541 -167.473763 
L 204.524121 -169.9174 
L 203.263754 -172.361036 
L 202.009825 -174.804672 
L 200.779671 -177.248309 
L 199.592123 -179.691945 
L 198.466966 -182.135581 
L 197.424318 -184.579218 
L 196.483964 -187.022854 
L 195.664675 -189.46649 
L 194.983534 -191.910127 
L 194.455307 -194.353763 
L 194.091884 -196.7974 
L 193.901816 -199.241036 
L 193.88997 -201.684672 
L 194.057323 -204.128309 
L 194.400897 -206.571945 
L 194.913843 -209.015581 
L 195.585679 -211.459218 
L 196.402648 -213.902854 
L 197.348212 -216.34649 
L 198.403633 -218.790127 
L 199.548627 -221.233763 
L 200.762065 -223.6774 
L 202.022679 -226.121036 
L 203.309752 -228.564672 
L 204.60376 -231.008309 
L 205.886937 -233.451945 
L 207.143748 -235.895581 
L 208.361239 -238.339218 
L 209.529271 -240.782854 
L 210.640626 -243.22649 
L 211.690973 -245.670127 
L 212.678731 -248.113763 
L 213.604817 -250.5574 
L 214.472306 -253.001036 
L 215.286029 -255.444672 
L 216.052126 -257.888309 
L 216.777581 -260.331945 
L 217.469759 -262.775581 
L 218.135978 -265.219218 
L 218.783119 -267.662854 
L 219.4173 -270.10649 
L 220.043625 -272.550127 
L 220.666011 -274.993763 
L 221.287085 -277.4374 
L 221.908175 -279.881036 
L 222.529356 -282.324672 
L 223.149568 -284.768309 
L 223.76677 -287.211945 
L 224.378143 -289.655581 
L 224.980302 -292.099218 
L 225.569521 -294.542854 
L 226.141954 -296.98649 
L 226.693832 -299.430127 
L 227.221646 -301.873763 
L 227.722289 -304.3174 
L 228.193171 -306.761036 
L 228.632293 -309.204672 
L 229.038289 -311.648309 
L 229.410432 -314.091945 
L 229.748611 -316.535581 
L 230.053289 -318.979218 
L 230.325438 -321.422854 
L 230.56646 -323.86649 
L 233.20979 -323.86649 
L 233.20979 -323.86649 
L 233.450812 -321.422854 
L 233.722961 -318.979218 
L 234.027639 -316.535581 
L 234.365818 -314.091945 
L 234.737961 -311.648309 
L 235.143957 -309.204672 
L 235.583079 -306.761036 
L 236.053961 -304.3174 
L 236.554604 -301.873763 
L 237.082418 -299.430127 
L 237.634296 -296.98649 
L 238.206729 -294.542854 
L 238.795948 -292.099218 
L 239.398107 -289.655581 
L 240.00948 -287.211945 
L 240.626682 -284.768309 
L 241.246894 -282.324672 
L 241.868075 -279.881036 
L 242.489165 -277.4374 
L 243.110239 -274.993763 
L 243.732625 -272.550127 
L 244.35895 -270.10649 
L 244.993131 -267.662854 
L 245.640272 -265.219218 
L 246.306491 -262.775581 
L 246.998669 -260.331945 
L 247.724124 -257.888309 
L 248.490221 -255.444672 
L 249.303944 -253.001036 
L 250.171433 -250.5574 
L 251.097519 -248.113763 
L 252.085277 -245.670127 
L 253.135624 -243.22649 
L 254.246979 -240.782854 
L 255.415011 -238.339218 
L 256.632502 -235.895581 
L 257.889313 -233.451945 
L 259.17249 -231.008309 
L 260.466498 -228.564672 
L 261.753571 -226.121036 
L 263.014185 -223.6774 
L 264.227623 -221.233763 
L 265.372617 -218.790127 
L 266.428038 -216.34649 
L 267.373602 -213.902854 
L 268.190571 -211.459218 
L 268.862407 -209.015581 
L 269.375353 -206.571945 
L 269.718927 -204.128309 
L 269.88628 -201.684672 
L 269.874434 -199.241036 
L 269.684366 -196.7974 
L 269.320943 -194.353763 
L 268.792716 -191.910127 
L 268.111575 -189.46649 
L 267.292286 -187.022854 
L 266.351932 -184.579218 
L 265.309284 -182.135581 
L 264.184127 -179.691945 
L 262.996579 -177.248309 
L 261.766425 -174.804672 
L 260.512496 -172.361036 
L 259.252129 -169.9174 
L 258.000709 -167.473763 
L 256.771328 -165.030127 
L 255.574561 -162.58649 
L 254.418362 -160.142854 
L 253.308085 -157.699218 
L 252.24661 -155.255581 
L 251.234573 -152.811945 
L 250.270669 -150.368309 
L 249.352023 -147.924672 
L 248.474583 -145.481036 
L 247.633543 -143.0374 
L 246.823746 -140.593763 
L 246.040057 -138.150127 
L 245.277697 -135.70649 
L 244.532515 -133.262854 
L 243.801192 -130.819218 
L 243.081371 -128.375581 
L 242.371721 -125.931945 
L 241.671928 -123.488309 
L 240.98263 -121.044672 
L 240.305298 -118.601036 
L 239.642086 -116.1574 
L 238.995649 -113.713763 
L 238.368954 -111.270127 
L 237.765086 -108.82649 
L 237.187073 -106.382854 
L 236.63772 -103.939218 
L 236.119477 -101.495581 
L 235.634336 -99.051945 
L 235.183759 -96.608309 
L 234.768638 -94.164672 
L 234.389287 -91.721036 
L 234.04546 -89.2774 
L 233.736393 -86.833763 
L 233.460862 -84.390127 
L 233.217252 -81.94649 
z
" id="m3167fad1dd" style="stroke:#3f3f3f;stroke-width:1.5;"/>
    </defs>
    <g clip-path="url(#p5cc88099f5)">
     <use style="fill:#9fd495;stroke:#3f3f3f;stroke-width:1.5;" x="0" xlink:href="#m3167fad1dd" y="358.280615"/>
    </g>
   </g>
   <g id="PolyCollection_3">
    <defs>
     <path d="M 353.074133 -129.852361 
L 348.782117 -129.852361 
L 348.373476 -131.480343 
L 347.904976 -133.108325 
L 347.371505 -134.736307 
L 346.768186 -136.364289 
L 346.090503 -137.992271 
L 345.334446 -139.620253 
L 344.49665 -141.248235 
L 343.574535 -142.876217 
L 342.566438 -144.504199 
L 341.471726 -146.132182 
L 340.290902 -147.760164 
L 339.025677 -149.388146 
L 337.679024 -151.016128 
L 336.255198 -152.64411 
L 334.759729 -154.272092 
L 333.199383 -155.900074 
L 331.582089 -157.528056 
L 329.916847 -159.156038 
L 328.213603 -160.78402 
L 326.483115 -162.412002 
L 324.736788 -164.039984 
L 322.986521 -165.667966 
L 321.244529 -167.295948 
L 319.523185 -168.92393 
L 317.834849 -170.551912 
L 316.191721 -172.179895 
L 314.605691 -173.807877 
L 313.08821 -175.435859 
L 311.650166 -177.063841 
L 310.30177 -178.691823 
L 309.052453 -180.319805 
L 307.910764 -181.947787 
L 306.884272 -183.575769 
L 305.979477 -185.203751 
L 305.201709 -186.831733 
L 304.555044 -188.459715 
L 304.042209 -190.087697 
L 303.664504 -191.715679 
L 303.421727 -193.343661 
L 303.312125 -194.971643 
L 303.332354 -196.599625 
L 303.47748 -198.227607 
L 303.74101 -199.85559 
L 304.114959 -201.483572 
L 304.589969 -203.111554 
L 305.155469 -204.739536 
L 305.799884 -206.367518 
L 306.510879 -207.9955 
L 307.275657 -209.623482 
L 308.081266 -211.251464 
L 308.914945 -212.879446 
L 309.764468 -214.507428 
L 310.61848 -216.13541 
L 311.46682 -217.763392 
L 312.30081 -219.391374 
L 313.113491 -221.019356 
L 313.899811 -222.647338 
L 314.656735 -224.27532 
L 315.38329 -225.903302 
L 316.080528 -227.531285 
L 316.751419 -229.159267 
L 317.400659 -230.787249 
L 318.03443 -232.415231 
L 318.660083 -234.043213 
L 319.285801 -235.671195 
L 319.920212 -237.299177 
L 320.57201 -238.927159 
L 321.24956 -240.555141 
L 321.960541 -242.183123 
L 322.71161 -243.811105 
L 323.508122 -245.439087 
L 324.353903 -247.067069 
L 325.251093 -248.695051 
L 326.200054 -250.323033 
L 327.199357 -251.951015 
L 328.245834 -253.578997 
L 329.334692 -255.20698 
L 330.459693 -256.834962 
L 331.613372 -258.462944 
L 332.7873 -260.090926 
L 333.972364 -261.718908 
L 335.159058 -263.34689 
L 336.337783 -264.974872 
L 337.499123 -266.602854 
L 338.634101 -268.230836 
L 339.734411 -269.858818 
L 340.792601 -271.4868 
L 341.802227 -273.114782 
L 342.757951 -274.742764 
L 343.655602 -276.370746 
L 344.492197 -277.998728 
L 345.265912 -279.62671 
L 345.976034 -281.254692 
L 346.62287 -282.882675 
L 347.207647 -284.510657 
L 347.732385 -286.138639 
L 348.199765 -287.766621 
L 348.612998 -289.394603 
L 348.975686 -291.022585 
L 352.880564 -291.022585 
L 352.880564 -291.022585 
L 353.243252 -289.394603 
L 353.656485 -287.766621 
L 354.123865 -286.138639 
L 354.648603 -284.510657 
L 355.23338 -282.882675 
L 355.880216 -281.254692 
L 356.590338 -279.62671 
L 357.364053 -277.998728 
L 358.200648 -276.370746 
L 359.098299 -274.742764 
L 360.054023 -273.114782 
L 361.063649 -271.4868 
L 362.121839 -269.858818 
L 363.222149 -268.230836 
L 364.357127 -266.602854 
L 365.518467 -264.974872 
L 366.697192 -263.34689 
L 367.883886 -261.718908 
L 369.06895 -260.090926 
L 370.242878 -258.462944 
L 371.396557 -256.834962 
L 372.521558 -255.20698 
L 373.610416 -253.578997 
L 374.656893 -251.951015 
L 375.656196 -250.323033 
L 376.605157 -248.695051 
L 377.502347 -247.067069 
L 378.348128 -245.439087 
L 379.14464 -243.811105 
L 379.895709 -242.183123 
L 380.60669 -240.555141 
L 381.28424 -238.927159 
L 381.936038 -237.299177 
L 382.570449 -235.671195 
L 383.196167 -234.043213 
L 383.82182 -232.415231 
L 384.455591 -230.787249 
L 385.104831 -229.159267 
L 385.775722 -227.531285 
L 386.47296 -225.903302 
L 387.199515 -224.27532 
L 387.956439 -222.647338 
L 388.742759 -221.019356 
L 389.55544 -219.391374 
L 390.38943 -217.763392 
L 391.23777 -216.13541 
L 392.091782 -214.507428 
L 392.941305 -212.879446 
L 393.774984 -211.251464 
L 394.580593 -209.623482 
L 395.345371 -207.9955 
L 396.056366 -206.367518 
L 396.700781 -204.739536 
L 397.266281 -203.111554 
L 397.741291 -201.483572 
L 398.11524 -199.85559 
L 398.37877 -198.227607 
L 398.523896 -196.599625 
L 398.544125 -194.971643 
L 398.434523 -193.343661 
L 398.191746 -191.715679 
L 397.814041 -190.087697 
L 397.301206 -188.459715 
L 396.654541 -186.831733 
L 395.876773 -185.203751 
L 394.971978 -183.575769 
L 393.945486 -181.947787 
L 392.803797 -180.319805 
L 391.55448 -178.691823 
L 390.206084 -177.063841 
L 388.76804 -175.435859 
L 387.250559 -173.807877 
L 385.664529 -172.179895 
L 384.021401 -170.551912 
L 382.333065 -168.92393 
L 380.611721 -167.295948 
L 378.869729 -165.667966 
L 377.119462 -164.039984 
L 375.373135 -162.412002 
L 373.642647 -160.78402 
L 371.939403 -159.156038 
L 370.274161 -157.528056 
L 368.656867 -155.900074 
L 367.096521 -154.272092 
L 365.601052 -152.64411 
L 364.177226 -151.016128 
L 362.830573 -149.388146 
L 361.565348 -147.760164 
L 360.384524 -146.132182 
L 359.289812 -144.504199 
L 358.281715 -142.876217 
L 357.3596 -141.248235 
L 356.521804 -139.620253 
L 355.765747 -137.992271 
L 355.088064 -136.364289 
L 354.484745 -134.736307 
L 353.951274 -133.108325 
L 353.482774 -131.480343 
L 353.074133 -129.852361 
z
" id="m6764310988" style="stroke:#3f3f3f;stroke-width:1.5;"/>
    </defs>
    <g clip-path="url(#p5cc88099f5)">
     <use style="fill:#c03d3e;stroke:#3f3f3f;stroke-width:1.5;" x="0" xlink:href="#m6764310988" y="358.280615"/>
    </g>
   </g>
   <g id="matplotlib.axis_1">
    <g id="xtick_1">
     <g id="line2d_1">
      <defs>
       <path d="M 0 0 
L 0 3.5 
" id="mf8230bedef" style="stroke:#000000;stroke-width:0.8;"/>
      </defs>
      <g>
       <use style="stroke:#000000;stroke-width:0.8;" x="112.848125" xlink:href="#mf8230bedef" y="288.430125"/>
      </g>
     </g>
     <g id="text_1">
      <!-- dark_stop_32 -->
      <g transform="translate(53.905324 335.360565)rotate(-30)scale(0.1 -0.1)">
       <defs>
        <path d="M 45.40625 46.390625 
L 45.40625 75.984375 
L 54.390625 75.984375 
L 54.390625 0 
L 45.40625 0 
L 45.40625 8.203125 
Q 42.578125 3.328125 38.25 0.953125 
Q 33.9375 -1.421875 27.875 -1.421875 
Q 17.96875 -1.421875 11.734375 6.484375 
Q 5.515625 14.40625 5.515625 27.296875 
Q 5.515625 40.1875 11.734375 48.09375 
Q 17.96875 56 27.875 56 
Q 33.9375 56 38.25 53.625 
Q 42.578125 51.265625 45.40625 46.390625 
z
M 14.796875 27.296875 
Q 14.796875 17.390625 18.875 11.75 
Q 22.953125 6.109375 30.078125 6.109375 
Q 37.203125 6.109375 41.296875 11.75 
Q 45.40625 17.390625 45.40625 27.296875 
Q 45.40625 37.203125 41.296875 42.84375 
Q 37.203125 48.484375 30.078125 48.484375 
Q 22.953125 48.484375 18.875 42.84375 
Q 14.796875 37.203125 14.796875 27.296875 
z
" id="DejaVuSans-100"/>
        <path d="M 34.28125 27.484375 
Q 23.390625 27.484375 19.1875 25 
Q 14.984375 22.515625 14.984375 16.5 
Q 14.984375 11.71875 18.140625 8.90625 
Q 21.296875 6.109375 26.703125 6.109375 
Q 34.1875 6.109375 38.703125 11.40625 
Q 43.21875 16.703125 43.21875 25.484375 
L 43.21875 27.484375 
z
M 52.203125 31.203125 
L 52.203125 0 
L 43.21875 0 
L 43.21875 8.296875 
Q 40.140625 3.328125 35.546875 0.953125 
Q 30.953125 -1.421875 24.3125 -1.421875 
Q 15.921875 -1.421875 10.953125 3.296875 
Q 6 8.015625 6 15.921875 
Q 6 25.140625 12.171875 29.828125 
Q 18.359375 34.515625 30.609375 34.515625 
L 43.21875 34.515625 
L 43.21875 35.40625 
Q 43.21875 41.609375 39.140625 45 
Q 35.0625 48.390625 27.6875 48.390625 
Q 23 48.390625 18.546875 47.265625 
Q 14.109375 46.140625 10.015625 43.890625 
L 10.015625 52.203125 
Q 14.9375 54.109375 19.578125 55.046875 
Q 24.21875 56 28.609375 56 
Q 40.484375 56 46.34375 49.84375 
Q 52.203125 43.703125 52.203125 31.203125 
z
" id="DejaVuSans-97"/>
        <path d="M 41.109375 46.296875 
Q 39.59375 47.171875 37.8125 47.578125 
Q 36.03125 48 33.890625 48 
Q 26.265625 48 22.1875 43.046875 
Q 18.109375 38.09375 18.109375 28.8125 
L 18.109375 0 
L 9.078125 0 
L 9.078125 54.6875 
L 18.109375 54.6875 
L 18.109375 46.1875 
Q 20.953125 51.171875 25.484375 53.578125 
Q 30.03125 56 36.53125 56 
Q 37.453125 56 38.578125 55.875 
Q 39.703125 55.765625 41.0625 55.515625 
z
" id="DejaVuSans-114"/>
        <path d="M 9.078125 75.984375 
L 18.109375 75.984375 
L 18.109375 31.109375 
L 44.921875 54.6875 
L 56.390625 54.6875 
L 27.390625 29.109375 
L 57.625 0 
L 45.90625 0 
L 18.109375 26.703125 
L 18.109375 0 
L 9.078125 0 
z
" id="DejaVuSans-107"/>
        <path d="M 50.984375 -16.609375 
L 50.984375 -23.578125 
L -0.984375 -23.578125 
L -0.984375 -16.609375 
z
" id="DejaVuSans-95"/>
        <path d="M 44.28125 53.078125 
L 44.28125 44.578125 
Q 40.484375 46.53125 36.375 47.5 
Q 32.28125 48.484375 27.875 48.484375 
Q 21.1875 48.484375 17.84375 46.4375 
Q 14.5 44.390625 14.5 40.28125 
Q 14.5 37.15625 16.890625 35.375 
Q 19.28125 33.59375 26.515625 31.984375 
L 29.59375 31.296875 
Q 39.15625 29.25 43.1875 25.515625 
Q 47.21875 21.78125 47.21875 15.09375 
Q 47.21875 7.46875 41.1875 3.015625 
Q 35.15625 -1.421875 24.609375 -1.421875 
Q 20.21875 -1.421875 15.453125 -0.5625 
Q 10.6875 0.296875 5.421875 2 
L 5.421875 11.28125 
Q 10.40625 8.6875 15.234375 7.390625 
Q 20.0625 6.109375 24.8125 6.109375 
Q 31.15625 6.109375 34.5625 8.28125 
Q 37.984375 10.453125 37.984375 14.40625 
Q 37.984375 18.0625 35.515625 20.015625 
Q 33.0625 21.96875 24.703125 23.78125 
L 21.578125 24.515625 
Q 13.234375 26.265625 9.515625 29.90625 
Q 5.8125 33.546875 5.8125 39.890625 
Q 5.8125 47.609375 11.28125 51.796875 
Q 16.75 56 26.8125 56 
Q 31.78125 56 36.171875 55.265625 
Q 40.578125 54.546875 44.28125 53.078125 
z
" id="DejaVuSans-115"/>
        <path d="M 18.3125 70.21875 
L 18.3125 54.6875 
L 36.8125 54.6875 
L 36.8125 47.703125 
L 18.3125 47.703125 
L 18.3125 18.015625 
Q 18.3125 11.328125 20.140625 9.421875 
Q 21.96875 7.515625 27.59375 7.515625 
L 36.8125 7.515625 
L 36.8125 0 
L 27.59375 0 
Q 17.1875 0 13.234375 3.875 
Q 9.28125 7.765625 9.28125 18.015625 
L 9.28125 47.703125 
L 2.6875 47.703125 
L 2.6875 54.6875 
L 9.28125 54.6875 
L 9.28125 70.21875 
z
" id="DejaVuSans-116"/>
        <path d="M 30.609375 48.390625 
Q 23.390625 48.390625 19.1875 42.75 
Q 14.984375 37.109375 14.984375 27.296875 
Q 14.984375 17.484375 19.15625 11.84375 
Q 23.34375 6.203125 30.609375 6.203125 
Q 37.796875 6.203125 41.984375 11.859375 
Q 46.1875 17.53125 46.1875 27.296875 
Q 46.1875 37.015625 41.984375 42.703125 
Q 37.796875 48.390625 30.609375 48.390625 
z
M 30.609375 56 
Q 42.328125 56 49.015625 48.375 
Q 55.71875 40.765625 55.71875 27.296875 
Q 55.71875 13.875 49.015625 6.21875 
Q 42.328125 -1.421875 30.609375 -1.421875 
Q 18.84375 -1.421875 12.171875 6.21875 
Q 5.515625 13.875 5.515625 27.296875 
Q 5.515625 40.765625 12.171875 48.375 
Q 18.84375 56 30.609375 56 
z
" id="DejaVuSans-111"/>
        <path d="M 18.109375 8.203125 
L 18.109375 -20.796875 
L 9.078125 -20.796875 
L 9.078125 54.6875 
L 18.109375 54.6875 
L 18.109375 46.390625 
Q 20.953125 51.265625 25.265625 53.625 
Q 29.59375 56 35.59375 56 
Q 45.5625 56 51.78125 48.09375 
Q 58.015625 40.1875 58.015625 27.296875 
Q 58.015625 14.40625 51.78125 6.484375 
Q 45.5625 -1.421875 35.59375 -1.421875 
Q 29.59375 -1.421875 25.265625 0.953125 
Q 20.953125 3.328125 18.109375 8.203125 
z
M 48.6875 27.296875 
Q 48.6875 37.203125 44.609375 42.84375 
Q 40.53125 48.484375 33.40625 48.484375 
Q 26.265625 48.484375 22.1875 42.84375 
Q 18.109375 37.203125 18.109375 27.296875 
Q 18.109375 17.390625 22.1875 11.75 
Q 26.265625 6.109375 33.40625 6.109375 
Q 40.53125 6.109375 44.609375 11.75 
Q 48.6875 17.390625 48.6875 27.296875 
z
" id="DejaVuSans-112"/>
        <path d="M 40.578125 39.3125 
Q 47.65625 37.796875 51.625 33 
Q 55.609375 28.21875 55.609375 21.1875 
Q 55.609375 10.40625 48.1875 4.484375 
Q 40.765625 -1.421875 27.09375 -1.421875 
Q 22.515625 -1.421875 17.65625 -0.515625 
Q 12.796875 0.390625 7.625 2.203125 
L 7.625 11.71875 
Q 11.71875 9.328125 16.59375 8.109375 
Q 21.484375 6.890625 26.8125 6.890625 
Q 36.078125 6.890625 40.9375 10.546875 
Q 45.796875 14.203125 45.796875 21.1875 
Q 45.796875 27.640625 41.28125 31.265625 
Q 36.765625 34.90625 28.71875 34.90625 
L 20.21875 34.90625 
L 20.21875 43.015625 
L 29.109375 43.015625 
Q 36.375 43.015625 40.234375 45.921875 
Q 44.09375 48.828125 44.09375 54.296875 
Q 44.09375 59.90625 40.109375 62.90625 
Q 36.140625 65.921875 28.71875 65.921875 
Q 24.65625 65.921875 20.015625 65.03125 
Q 15.375 64.15625 9.8125 62.3125 
L 9.8125 71.09375 
Q 15.4375 72.65625 20.34375 73.4375 
Q 25.25 74.21875 29.59375 74.21875 
Q 40.828125 74.21875 47.359375 69.109375 
Q 53.90625 64.015625 53.90625 55.328125 
Q 53.90625 49.265625 50.4375 45.09375 
Q 46.96875 40.921875 40.578125 39.3125 
z
" id="DejaVuSans-51"/>
        <path d="M 19.1875 8.296875 
L 53.609375 8.296875 
L 53.609375 0 
L 7.328125 0 
L 7.328125 8.296875 
Q 12.9375 14.109375 22.625 23.890625 
Q 32.328125 33.6875 34.8125 36.53125 
Q 39.546875 41.84375 41.421875 45.53125 
Q 43.3125 49.21875 43.3125 52.78125 
Q 43.3125 58.59375 39.234375 62.25 
Q 35.15625 65.921875 28.609375 65.921875 
Q 23.96875 65.921875 18.8125 64.3125 
Q 13.671875 62.703125 7.8125 59.421875 
L 7.8125 69.390625 
Q 13.765625 71.78125 18.9375 73 
Q 24.125 74.21875 28.421875 74.21875 
Q 39.75 74.21875 46.484375 68.546875 
Q 53.21875 62.890625 53.21875 53.421875 
Q 53.21875 48.921875 51.53125 44.890625 
Q 49.859375 40.875 45.40625 35.40625 
Q 44.1875 33.984375 37.640625 27.21875 
Q 31.109375 20.453125 19.1875 8.296875 
z
" id="DejaVuSans-50"/>
       </defs>
       <use xlink:href="#DejaVuSans-100"/>
       <use x="63.476562" xlink:href="#DejaVuSans-97"/>
       <use x="124.755859" xlink:href="#DejaVuSans-114"/>
       <use x="165.869141" xlink:href="#DejaVuSans-107"/>
       <use x="223.779297" xlink:href="#DejaVuSans-95"/>
       <use x="273.779297" xlink:href="#DejaVuSans-115"/>
       <use x="325.878906" xlink:href="#DejaVuSans-116"/>
       <use x="365.087891" xlink:href="#DejaVuSans-111"/>
       <use x="426.269531" xlink:href="#DejaVuSans-112"/>
       <use x="489.746094" xlink:href="#DejaVuSans-95"/>
       <use x="539.746094" xlink:href="#DejaVuSans-51"/>
       <use x="603.369141" xlink:href="#DejaVuSans-50"/>
      </g>
     </g>
    </g>
    <g id="xtick_2">
     <g id="line2d_2">
      <g>
       <use style="stroke:#000000;stroke-width:0.8;" x="231.888125" xlink:href="#mf8230bedef" y="288.430125"/>
      </g>
     </g>
     <g id="text_2">
      <!-- develop_16 -->
      <g transform="translate(180.874869 330.78244)rotate(-30)scale(0.1 -0.1)">
       <defs>
        <path d="M 56.203125 29.59375 
L 56.203125 25.203125 
L 14.890625 25.203125 
Q 15.484375 15.921875 20.484375 11.0625 
Q 25.484375 6.203125 34.421875 6.203125 
Q 39.59375 6.203125 44.453125 7.46875 
Q 49.3125 8.734375 54.109375 11.28125 
L 54.109375 2.78125 
Q 49.265625 0.734375 44.1875 -0.34375 
Q 39.109375 -1.421875 33.890625 -1.421875 
Q 20.796875 -1.421875 13.15625 6.1875 
Q 5.515625 13.8125 5.515625 26.8125 
Q 5.515625 40.234375 12.765625 48.109375 
Q 20.015625 56 32.328125 56 
Q 43.359375 56 49.78125 48.890625 
Q 56.203125 41.796875 56.203125 29.59375 
z
M 47.21875 32.234375 
Q 47.125 39.59375 43.09375 43.984375 
Q 39.0625 48.390625 32.421875 48.390625 
Q 24.90625 48.390625 20.390625 44.140625 
Q 15.875 39.890625 15.1875 32.171875 
z
" id="DejaVuSans-101"/>
        <path d="M 2.984375 54.6875 
L 12.5 54.6875 
L 29.59375 8.796875 
L 46.6875 54.6875 
L 56.203125 54.6875 
L 35.6875 0 
L 23.484375 0 
z
" id="DejaVuSans-118"/>
        <path d="M 9.421875 75.984375 
L 18.40625 75.984375 
L 18.40625 0 
L 9.421875 0 
z
" id="DejaVuSans-108"/>
        <path d="M 12.40625 8.296875 
L 28.515625 8.296875 
L 28.515625 63.921875 
L 10.984375 60.40625 
L 10.984375 69.390625 
L 28.421875 72.90625 
L 38.28125 72.90625 
L 38.28125 8.296875 
L 54.390625 8.296875 
L 54.390625 0 
L 12.40625 0 
z
" id="DejaVuSans-49"/>
        <path d="M 33.015625 40.375 
Q 26.375 40.375 22.484375 35.828125 
Q 18.609375 31.296875 18.609375 23.390625 
Q 18.609375 15.53125 22.484375 10.953125 
Q 26.375 6.390625 33.015625 6.390625 
Q 39.65625 6.390625 43.53125 10.953125 
Q 47.40625 15.53125 47.40625 23.390625 
Q 47.40625 31.296875 43.53125 35.828125 
Q 39.65625 40.375 33.015625 40.375 
z
M 52.59375 71.296875 
L 52.59375 62.3125 
Q 48.875 64.0625 45.09375 64.984375 
Q 41.3125 65.921875 37.59375 65.921875 
Q 27.828125 65.921875 22.671875 59.328125 
Q 17.53125 52.734375 16.796875 39.40625 
Q 19.671875 43.65625 24.015625 45.921875 
Q 28.375 48.1875 33.59375 48.1875 
Q 44.578125 48.1875 50.953125 41.515625 
Q 57.328125 34.859375 57.328125 23.390625 
Q 57.328125 12.15625 50.6875 5.359375 
Q 44.046875 -1.421875 33.015625 -1.421875 
Q 20.359375 -1.421875 13.671875 8.265625 
Q 6.984375 17.96875 6.984375 36.375 
Q 6.984375 53.65625 15.1875 63.9375 
Q 23.390625 74.21875 37.203125 74.21875 
Q 40.921875 74.21875 44.703125 73.484375 
Q 48.484375 72.75 52.59375 71.296875 
z
" id="DejaVuSans-54"/>
       </defs>
       <use xlink:href="#DejaVuSans-100"/>
       <use x="63.476562" xlink:href="#DejaVuSans-101"/>
       <use x="125" xlink:href="#DejaVuSans-118"/>
       <use x="184.179688" xlink:href="#DejaVuSans-101"/>
       <use x="245.703125" xlink:href="#DejaVuSans-108"/>
       <use x="273.486328" xlink:href="#DejaVuSans-111"/>
       <use x="334.667969" xlink:href="#DejaVuSans-112"/>
       <use x="398.144531" xlink:href="#DejaVuSans-95"/>
       <use x="448.144531" xlink:href="#DejaVuSans-49"/>
       <use x="511.767578" xlink:href="#DejaVuSans-54"/>
      </g>
     </g>
    </g>
    <g id="xtick_3">
     <g id="line2d_3">
      <g>
       <use style="stroke:#000000;stroke-width:0.8;" x="350.928125" xlink:href="#mf8230bedef" y="288.430125"/>
      </g>
     </g>
     <g id="text_3">
      <!-- develop_32 -->
      <g transform="translate(299.914869 330.78244)rotate(-30)scale(0.1 -0.1)">
       <use xlink:href="#DejaVuSans-100"/>
       <use x="63.476562" xlink:href="#DejaVuSans-101"/>
       <use x="125" xlink:href="#DejaVuSans-118"/>
       <use x="184.179688" xlink:href="#DejaVuSans-101"/>
       <use x="245.703125" xlink:href="#DejaVuSans-108"/>
       <use x="273.486328" xlink:href="#DejaVuSans-111"/>
       <use x="334.667969" xlink:href="#DejaVuSans-112"/>
       <use x="398.144531" xlink:href="#DejaVuSans-95"/>
       <use x="448.144531" xlink:href="#DejaVuSans-51"/>
       <use x="511.767578" xlink:href="#DejaVuSans-50"/>
      </g>
     </g>
    </g>
    <g id="text_4">
     <!-- Fuzzer (highest median coverage on the left) -->
     <g transform="translate(119.270156 349.000928)scale(0.1 -0.1)">
      <defs>
       <path d="M 9.8125 72.90625 
L 51.703125 72.90625 
L 51.703125 64.59375 
L 19.671875 64.59375 
L 19.671875 43.109375 
L 48.578125 43.109375 
L 48.578125 34.8125 
L 19.671875 34.8125 
L 19.671875 0 
L 9.8125 0 
z
" id="DejaVuSans-70"/>
       <path d="M 8.5 21.578125 
L 8.5 54.6875 
L 17.484375 54.6875 
L 17.484375 21.921875 
Q 17.484375 14.15625 20.5 10.265625 
Q 23.53125 6.390625 29.59375 6.390625 
Q 36.859375 6.390625 41.078125 11.03125 
Q 45.3125 15.671875 45.3125 23.6875 
L 45.3125 54.6875 
L 54.296875 54.6875 
L 54.296875 0 
L 45.3125 0 
L 45.3125 8.40625 
Q 42.046875 3.421875 37.71875 1 
Q 33.40625 -1.421875 27.6875 -1.421875 
Q 18.265625 -1.421875 13.375 4.4375 
Q 8.5 10.296875 8.5 21.578125 
z
M 31.109375 56 
z
" id="DejaVuSans-117"/>
       <path d="M 5.515625 54.6875 
L 48.1875 54.6875 
L 48.1875 46.484375 
L 14.40625 7.171875 
L 48.1875 7.171875 
L 48.1875 0 
L 4.296875 0 
L 4.296875 8.203125 
L 38.09375 47.515625 
L 5.515625 47.515625 
z
" id="DejaVuSans-122"/>
       <path id="DejaVuSans-32"/>
       <path d="M 31 75.875 
Q 24.46875 64.65625 21.28125 53.65625 
Q 18.109375 42.671875 18.109375 31.390625 
Q 18.109375 20.125 21.3125 9.0625 
Q 24.515625 -2 31 -13.1875 
L 23.1875 -13.1875 
Q 15.875 -1.703125 12.234375 9.375 
Q 8.59375 20.453125 8.59375 31.390625 
Q 8.59375 42.28125 12.203125 53.3125 
Q 15.828125 64.359375 23.1875 75.875 
z
" id="DejaVuSans-40"/>
       <path d="M 54.890625 33.015625 
L 54.890625 0 
L 45.90625 0 
L 45.90625 32.71875 
Q 45.90625 40.484375 42.875 44.328125 
Q 39.84375 48.1875 33.796875 48.1875 
Q 26.515625 48.1875 22.3125 43.546875 
Q 18.109375 38.921875 18.109375 30.90625 
L 18.109375 0 
L 9.078125 0 
L 9.078125 75.984375 
L 18.109375 75.984375 
L 18.109375 46.1875 
Q 21.34375 51.125 25.703125 53.5625 
Q 30.078125 56 35.796875 56 
Q 45.21875 56 50.046875 50.171875 
Q 54.890625 44.34375 54.890625 33.015625 
z
" id="DejaVuSans-104"/>
       <path d="M 9.421875 54.6875 
L 18.40625 54.6875 
L 18.40625 0 
L 9.421875 0 
z
M 9.421875 75.984375 
L 18.40625 75.984375 
L 18.40625 64.59375 
L 9.421875 64.59375 
z
" id="DejaVuSans-105"/>
       <path d="M 45.40625 27.984375 
Q 45.40625 37.75 41.375 43.109375 
Q 37.359375 48.484375 30.078125 48.484375 
Q 22.859375 48.484375 18.828125 43.109375 
Q 14.796875 37.75 14.796875 27.984375 
Q 14.796875 18.265625 18.828125 12.890625 
Q 22.859375 7.515625 30.078125 7.515625 
Q 37.359375 7.515625 41.375 12.890625 
Q 45.40625 18.265625 45.40625 27.984375 
z
M 54.390625 6.78125 
Q 54.390625 -7.171875 48.1875 -13.984375 
Q 42 -20.796875 29.203125 -20.796875 
Q 24.46875 -20.796875 20.265625 -20.09375 
Q 16.0625 -19.390625 12.109375 -17.921875 
L 12.109375 -9.1875 
Q 16.0625 -11.328125 19.921875 -12.34375 
Q 23.78125 -13.375 27.78125 -13.375 
Q 36.625 -13.375 41.015625 -8.765625 
Q 45.40625 -4.15625 45.40625 5.171875 
L 45.40625 9.625 
Q 42.625 4.78125 38.28125 2.390625 
Q 33.9375 0 27.875 0 
Q 17.828125 0 11.671875 7.65625 
Q 5.515625 15.328125 5.515625 27.984375 
Q 5.515625 40.671875 11.671875 48.328125 
Q 17.828125 56 27.875 56 
Q 33.9375 56 38.28125 53.609375 
Q 42.625 51.21875 45.40625 46.390625 
L 45.40625 54.6875 
L 54.390625 54.6875 
z
" id="DejaVuSans-103"/>
       <path d="M 52 44.1875 
Q 55.375 50.25 60.0625 53.125 
Q 64.75 56 71.09375 56 
Q 79.640625 56 84.28125 50.015625 
Q 88.921875 44.046875 88.921875 33.015625 
L 88.921875 0 
L 79.890625 0 
L 79.890625 32.71875 
Q 79.890625 40.578125 77.09375 44.375 
Q 74.3125 48.1875 68.609375 48.1875 
Q 61.625 48.1875 57.5625 43.546875 
Q 53.515625 38.921875 53.515625 30.90625 
L 53.515625 0 
L 44.484375 0 
L 44.484375 32.71875 
Q 44.484375 40.625 41.703125 44.40625 
Q 38.921875 48.1875 33.109375 48.1875 
Q 26.21875 48.1875 22.15625 43.53125 
Q 18.109375 38.875 18.109375 30.90625 
L 18.109375 0 
L 9.078125 0 
L 9.078125 54.6875 
L 18.109375 54.6875 
L 18.109375 46.1875 
Q 21.1875 51.21875 25.484375 53.609375 
Q 29.78125 56 35.6875 56 
Q 41.65625 56 45.828125 52.96875 
Q 50 49.953125 52 44.1875 
z
" id="DejaVuSans-109"/>
       <path d="M 54.890625 33.015625 
L 54.890625 0 
L 45.90625 0 
L 45.90625 32.71875 
Q 45.90625 40.484375 42.875 44.328125 
Q 39.84375 48.1875 33.796875 48.1875 
Q 26.515625 48.1875 22.3125 43.546875 
Q 18.109375 38.921875 18.109375 30.90625 
L 18.109375 0 
L 9.078125 0 
L 9.078125 54.6875 
L 18.109375 54.6875 
L 18.109375 46.1875 
Q 21.34375 51.125 25.703125 53.5625 
Q 30.078125 56 35.796875 56 
Q 45.21875 56 50.046875 50.171875 
Q 54.890625 44.34375 54.890625 33.015625 
z
" id="DejaVuSans-110"/>
       <path d="M 48.78125 52.59375 
L 48.78125 44.1875 
Q 44.96875 46.296875 41.140625 47.34375 
Q 37.3125 48.390625 33.40625 48.390625 
Q 24.65625 48.390625 19.8125 42.84375 
Q 14.984375 37.3125 14.984375 27.296875 
Q 14.984375 17.28125 19.8125 11.734375 
Q 24.65625 6.203125 33.40625 6.203125 
Q 37.3125 6.203125 41.140625 7.25 
Q 44.96875 8.296875 48.78125 10.40625 
L 48.78125 2.09375 
Q 45.015625 0.34375 40.984375 -0.53125 
Q 36.96875 -1.421875 32.421875 -1.421875 
Q 20.0625 -1.421875 12.78125 6.34375 
Q 5.515625 14.109375 5.515625 27.296875 
Q 5.515625 40.671875 12.859375 48.328125 
Q 20.21875 56 33.015625 56 
Q 37.15625 56 41.109375 55.140625 
Q 45.0625 54.296875 48.78125 52.59375 
z
" id="DejaVuSans-99"/>
       <path d="M 37.109375 75.984375 
L 37.109375 68.5 
L 28.515625 68.5 
Q 23.6875 68.5 21.796875 66.546875 
Q 19.921875 64.59375 19.921875 59.515625 
L 19.921875 54.6875 
L 34.71875 54.6875 
L 34.71875 47.703125 
L 19.921875 47.703125 
L 19.921875 0 
L 10.890625 0 
L 10.890625 47.703125 
L 2.296875 47.703125 
L 2.296875 54.6875 
L 10.890625 54.6875 
L 10.890625 58.5 
Q 10.890625 67.625 15.140625 71.796875 
Q 19.390625 75.984375 28.609375 75.984375 
z
" id="DejaVuSans-102"/>
       <path d="M 8.015625 75.875 
L 15.828125 75.875 
Q 23.140625 64.359375 26.78125 53.3125 
Q 30.421875 42.28125 30.421875 31.390625 
Q 30.421875 20.453125 26.78125 9.375 
Q 23.140625 -1.703125 15.828125 -13.1875 
L 8.015625 -13.1875 
Q 14.5 -2 17.703125 9.0625 
Q 20.90625 20.125 20.90625 31.390625 
Q 20.90625 42.671875 17.703125 53.65625 
Q 14.5 64.65625 8.015625 75.875 
z
" id="DejaVuSans-41"/>
      </defs>
      <use xlink:href="#DejaVuSans-70"/>
      <use x="52.019531" xlink:href="#DejaVuSans-117"/>
      <use x="115.398438" xlink:href="#DejaVuSans-122"/>
      <use x="167.888672" xlink:href="#DejaVuSans-122"/>
      <use x="220.378906" xlink:href="#DejaVuSans-101"/>
      <use x="281.902344" xlink:href="#DejaVuSans-114"/>
      <use x="323.015625" xlink:href="#DejaVuSans-32"/>
      <use x="354.802734" xlink:href="#DejaVuSans-40"/>
      <use x="393.816406" xlink:href="#DejaVuSans-104"/>
      <use x="457.195312" xlink:href="#DejaVuSans-105"/>
      <use x="484.978516" xlink:href="#DejaVuSans-103"/>
      <use x="548.455078" xlink:href="#DejaVuSans-104"/>
      <use x="611.833984" xlink:href="#DejaVuSans-101"/>
      <use x="673.357422" xlink:href="#DejaVuSans-115"/>
      <use x="725.457031" xlink:href="#DejaVuSans-116"/>
      <use x="764.666016" xlink:href="#DejaVuSans-32"/>
      <use x="796.453125" xlink:href="#DejaVuSans-109"/>
      <use x="893.865234" xlink:href="#DejaVuSans-101"/>
      <use x="955.388672" xlink:href="#DejaVuSans-100"/>
      <use x="1018.865234" xlink:href="#DejaVuSans-105"/>
      <use x="1046.648438" xlink:href="#DejaVuSans-97"/>
      <use x="1107.927734" xlink:href="#DejaVuSans-110"/>
      <use x="1171.306641" xlink:href="#DejaVuSans-32"/>
      <use x="1203.09375" xlink:href="#DejaVuSans-99"/>
      <use x="1258.074219" xlink:href="#DejaVuSans-111"/>
      <use x="1319.255859" xlink:href="#DejaVuSans-118"/>
      <use x="1378.435547" xlink:href="#DejaVuSans-101"/>
      <use x="1439.958984" xlink:href="#DejaVuSans-114"/>
      <use x="1481.072266" xlink:href="#DejaVuSans-97"/>
      <use x="1542.351562" xlink:href="#DejaVuSans-103"/>
      <use x="1605.828125" xlink:href="#DejaVuSans-101"/>
      <use x="1667.351562" xlink:href="#DejaVuSans-32"/>
      <use x="1699.138672" xlink:href="#DejaVuSans-111"/>
      <use x="1760.320312" xlink:href="#DejaVuSans-110"/>
      <use x="1823.699219" xlink:href="#DejaVuSans-32"/>
      <use x="1855.486328" xlink:href="#DejaVuSans-116"/>
      <use x="1894.695312" xlink:href="#DejaVuSans-104"/>
      <use x="1958.074219" xlink:href="#DejaVuSans-101"/>
      <use x="2019.597656" xlink:href="#DejaVuSans-32"/>
      <use x="2051.384766" xlink:href="#DejaVuSans-108"/>
      <use x="2079.167969" xlink:href="#DejaVuSans-101"/>
      <use x="2140.691406" xlink:href="#DejaVuSans-102"/>
      <use x="2174.146484" xlink:href="#DejaVuSans-116"/>
      <use x="2213.355469" xlink:href="#DejaVuSans-41"/>
     </g>
    </g>
   </g>
   <g id="matplotlib.axis_2">
    <g id="ytick_1">
     <g id="line2d_4">
      <defs>
       <path d="M 0 0 
L -3.5 0 
" id="mefcf12b43b" style="stroke:#000000;stroke-width:0.8;"/>
      </defs>
      <g>
       <use style="stroke:#000000;stroke-width:0.8;" x="53.328125" xlink:href="#mefcf12b43b" y="266.456116"/>
      </g>
     </g>
     <g id="text_5">
      <!-- 1975 -->
      <g transform="translate(20.878125 270.255335)scale(0.1 -0.1)">
       <defs>
        <path d="M 10.984375 1.515625 
L 10.984375 10.5 
Q 14.703125 8.734375 18.5 7.8125 
Q 22.3125 6.890625 25.984375 6.890625 
Q 35.75 6.890625 40.890625 13.453125 
Q 46.046875 20.015625 46.78125 33.40625 
Q 43.953125 29.203125 39.59375 26.953125 
Q 35.25 24.703125 29.984375 24.703125 
Q 19.046875 24.703125 12.671875 31.3125 
Q 6.296875 37.9375 6.296875 49.421875 
Q 6.296875 60.640625 12.9375 67.421875 
Q 19.578125 74.21875 30.609375 74.21875 
Q 43.265625 74.21875 49.921875 64.515625 
Q 56.59375 54.828125 56.59375 36.375 
Q 56.59375 19.140625 48.40625 8.859375 
Q 40.234375 -1.421875 26.421875 -1.421875 
Q 22.703125 -1.421875 18.890625 -0.6875 
Q 15.09375 0.046875 10.984375 1.515625 
z
M 30.609375 32.421875 
Q 37.25 32.421875 41.125 36.953125 
Q 45.015625 41.5 45.015625 49.421875 
Q 45.015625 57.28125 41.125 61.84375 
Q 37.25 66.40625 30.609375 66.40625 
Q 23.96875 66.40625 20.09375 61.84375 
Q 16.21875 57.28125 16.21875 49.421875 
Q 16.21875 41.5 20.09375 36.953125 
Q 23.96875 32.421875 30.609375 32.421875 
z
" id="DejaVuSans-57"/>
        <path d="M 8.203125 72.90625 
L 55.078125 72.90625 
L 55.078125 68.703125 
L 28.609375 0 
L 18.3125 0 
L 43.21875 64.59375 
L 8.203125 64.59375 
z
" id="DejaVuSans-55"/>
        <path d="M 10.796875 72.90625 
L 49.515625 72.90625 
L 49.515625 64.59375 
L 19.828125 64.59375 
L 19.828125 46.734375 
Q 21.96875 47.46875 24.109375 47.828125 
Q 26.265625 48.1875 28.421875 48.1875 
Q 40.625 48.1875 47.75 41.5 
Q 54.890625 34.8125 54.890625 23.390625 
Q 54.890625 11.625 47.5625 5.09375 
Q 40.234375 -1.421875 26.90625 -1.421875 
Q 22.3125 -1.421875 17.546875 -0.640625 
Q 12.796875 0.140625 7.71875 1.703125 
L 7.71875 11.625 
Q 12.109375 9.234375 16.796875 8.0625 
Q 21.484375 6.890625 26.703125 6.890625 
Q 35.15625 6.890625 40.078125 11.328125 
Q 45.015625 15.765625 45.015625 23.390625 
Q 45.015625 31 40.078125 35.4375 
Q 35.15625 39.890625 26.703125 39.890625 
Q 22.75 39.890625 18.8125 39.015625 
Q 14.890625 38.140625 10.796875 36.28125 
z
" id="DejaVuSans-53"/>
       </defs>
       <use xlink:href="#DejaVuSans-49"/>
       <use x="63.623047" xlink:href="#DejaVuSans-57"/>
       <use x="127.246094" xlink:href="#DejaVuSans-55"/>
       <use x="190.869141" xlink:href="#DejaVuSans-53"/>
      </g>
     </g>
    </g>
    <g id="ytick_2">
     <g id="line2d_5">
      <g>
       <use style="stroke:#000000;stroke-width:0.8;" x="53.328125" xlink:href="#mefcf12b43b" y="235.077023"/>
      </g>
     </g>
     <g id="text_6">
      <!-- 2000 -->
      <g transform="translate(20.878125 238.876242)scale(0.1 -0.1)">
       <defs>
        <path d="M 31.78125 66.40625 
Q 24.171875 66.40625 20.328125 58.90625 
Q 16.5 51.421875 16.5 36.375 
Q 16.5 21.390625 20.328125 13.890625 
Q 24.171875 6.390625 31.78125 6.390625 
Q 39.453125 6.390625 43.28125 13.890625 
Q 47.125 21.390625 47.125 36.375 
Q 47.125 51.421875 43.28125 58.90625 
Q 39.453125 66.40625 31.78125 66.40625 
z
M 31.78125 74.21875 
Q 44.046875 74.21875 50.515625 64.515625 
Q 56.984375 54.828125 56.984375 36.375 
Q 56.984375 17.96875 50.515625 8.265625 
Q 44.046875 -1.421875 31.78125 -1.421875 
Q 19.53125 -1.421875 13.0625 8.265625 
Q 6.59375 17.96875 6.59375 36.375 
Q 6.59375 54.828125 13.0625 64.515625 
Q 19.53125 74.21875 31.78125 74.21875 
z
" id="DejaVuSans-48"/>
       </defs>
       <use xlink:href="#DejaVuSans-50"/>
       <use x="63.623047" xlink:href="#DejaVuSans-48"/>
       <use x="127.246094" xlink:href="#DejaVuSans-48"/>
       <use x="190.869141" xlink:href="#DejaVuSans-48"/>
      </g>
     </g>
    </g>
    <g id="ytick_3">
     <g id="line2d_6">
      <g>
       <use style="stroke:#000000;stroke-width:0.8;" x="53.328125" xlink:href="#mefcf12b43b" y="203.697929"/>
      </g>
     </g>
     <g id="text_7">
      <!-- 2025 -->
      <g transform="translate(20.878125 207.497148)scale(0.1 -0.1)">
       <use xlink:href="#DejaVuSans-50"/>
       <use x="63.623047" xlink:href="#DejaVuSans-48"/>
       <use x="127.246094" xlink:href="#DejaVuSans-50"/>
       <use x="190.869141" xlink:href="#DejaVuSans-53"/>
      </g>
     </g>
    </g>
    <g id="ytick_4">
     <g id="line2d_7">
      <g>
       <use style="stroke:#000000;stroke-width:0.8;" x="53.328125" xlink:href="#mefcf12b43b" y="172.318836"/>
      </g>
     </g>
     <g id="text_8">
      <!-- 2050 -->
      <g transform="translate(20.878125 176.118054)scale(0.1 -0.1)">
       <use xlink:href="#DejaVuSans-50"/>
       <use x="63.623047" xlink:href="#DejaVuSans-48"/>
       <use x="127.246094" xlink:href="#DejaVuSans-53"/>
       <use x="190.869141" xlink:href="#DejaVuSans-48"/>
      </g>
     </g>
    </g>
    <g id="ytick_5">
     <g id="line2d_8">
      <g>
       <use style="stroke:#000000;stroke-width:0.8;" x="53.328125" xlink:href="#mefcf12b43b" y="140.939742"/>
      </g>
     </g>
     <g id="text_9">
      <!-- 2075 -->
      <g transform="translate(20.878125 144.738961)scale(0.1 -0.1)">
       <use xlink:href="#DejaVuSans-50"/>
       <use x="63.623047" xlink:href="#DejaVuSans-48"/>
       <use x="127.246094" xlink:href="#DejaVuSans-55"/>
       <use x="190.869141" xlink:href="#DejaVuSans-53"/>
      </g>
     </g>
    </g>
    <g id="ytick_6">
     <g id="line2d_9">
      <g>
       <use style="stroke:#000000;stroke-width:0.8;" x="53.328125" xlink:href="#mefcf12b43b" y="109.560648"/>
      </g>
     </g>
     <g id="text_10">
      <!-- 2100 -->
      <g transform="translate(20.878125 113.359867)scale(0.1 -0.1)">
       <use xlink:href="#DejaVuSans-50"/>
       <use x="63.623047" xlink:href="#DejaVuSans-49"/>
       <use x="127.246094" xlink:href="#DejaVuSans-48"/>
       <use x="190.869141" xlink:href="#DejaVuSans-48"/>
      </g>
     </g>
    </g>
    <g id="ytick_7">
     <g id="line2d_10">
      <g>
       <use style="stroke:#000000;stroke-width:0.8;" x="53.328125" xlink:href="#mefcf12b43b" y="78.181555"/>
      </g>
     </g>
     <g id="text_11">
      <!-- 2125 -->
      <g transform="translate(20.878125 81.980773)scale(0.1 -0.1)">
       <use xlink:href="#DejaVuSans-50"/>
       <use x="63.623047" xlink:href="#DejaVuSans-49"/>
       <use x="127.246094" xlink:href="#DejaVuSans-50"/>
       <use x="190.869141" xlink:href="#DejaVuSans-53"/>
      </g>
     </g>
    </g>
    <g id="ytick_8">
     <g id="line2d_11">
      <g>
       <use style="stroke:#000000;stroke-width:0.8;" x="53.328125" xlink:href="#mefcf12b43b" y="46.802461"/>
      </g>
     </g>
     <g id="text_12">
      <!-- 2150 -->
      <g transform="translate(20.878125 50.60168)scale(0.1 -0.1)">
       <use xlink:href="#DejaVuSans-50"/>
       <use x="63.623047" xlink:href="#DejaVuSans-49"/>
       <use x="127.246094" xlink:href="#DejaVuSans-53"/>
       <use x="190.869141" xlink:href="#DejaVuSans-48"/>
      </g>
     </g>
    </g>
    <g id="text_13">
     <!-- Reached region coverage -->
     <g transform="translate(14.798438 219.136625)rotate(-90)scale(0.1 -0.1)">
      <defs>
       <path d="M 44.390625 34.1875 
Q 47.5625 33.109375 50.5625 29.59375 
Q 53.5625 26.078125 56.59375 19.921875 
L 66.609375 0 
L 56 0 
L 46.6875 18.703125 
Q 43.0625 26.03125 39.671875 28.421875 
Q 36.28125 30.8125 30.421875 30.8125 
L 19.671875 30.8125 
L 19.671875 0 
L 9.8125 0 
L 9.8125 72.90625 
L 32.078125 72.90625 
Q 44.578125 72.90625 50.734375 67.671875 
Q 56.890625 62.453125 56.890625 51.90625 
Q 56.890625 45.015625 53.6875 40.46875 
Q 50.484375 35.9375 44.390625 34.1875 
z
M 19.671875 64.796875 
L 19.671875 38.921875 
L 32.078125 38.921875 
Q 39.203125 38.921875 42.84375 42.21875 
Q 46.484375 45.515625 46.484375 51.90625 
Q 46.484375 58.296875 42.84375 61.546875 
Q 39.203125 64.796875 32.078125 64.796875 
z
" id="DejaVuSans-82"/>
      </defs>
      <use xlink:href="#DejaVuSans-82"/>
      <use x="64.982422" xlink:href="#DejaVuSans-101"/>
      <use x="126.505859" xlink:href="#DejaVuSans-97"/>
      <use x="187.785156" xlink:href="#DejaVuSans-99"/>
      <use x="242.765625" xlink:href="#DejaVuSans-104"/>
      <use x="306.144531" xlink:href="#DejaVuSans-101"/>
      <use x="367.667969" xlink:href="#DejaVuSans-100"/>
      <use x="431.144531" xlink:href="#DejaVuSans-32"/>
      <use x="462.931641" xlink:href="#DejaVuSans-114"/>
      <use x="501.794922" xlink:href="#DejaVuSans-101"/>
      <use x="563.318359" xlink:href="#DejaVuSans-103"/>
      <use x="626.794922" xlink:href="#DejaVuSans-105"/>
      <use x="654.578125" xlink:href="#DejaVuSans-111"/>
      <use x="715.759766" xlink:href="#DejaVuSans-110"/>
      <use x="779.138672" xlink:href="#DejaVuSans-32"/>
      <use x="810.925781" xlink:href="#DejaVuSans-99"/>
      <use x="865.90625" xlink:href="#DejaVuSans-111"/>
      <use x="927.087891" xlink:href="#DejaVuSans-118"/>
      <use x="986.267578" xlink:href="#DejaVuSans-101"/>
      <use x="1047.791016" xlink:href="#DejaVuSans-114"/>
      <use x="1088.904297" xlink:href="#DejaVuSans-97"/>
      <use x="1150.183594" xlink:href="#DejaVuSans-103"/>
      <use x="1213.660156" xlink:href="#DejaVuSans-101"/>
     </g>
    </g>
   </g>
   <g id="line2d_12">
    <path clip-path="url(#p5cc88099f5)" d="M 112.848125 207.46342 
L 112.848125 88.222865 
" style="fill:none;stroke:#3f3f3f;stroke-linecap:square;stroke-width:1.5;"/>
   </g>
   <g id="line2d_13">
    <path clip-path="url(#p5cc88099f5)" d="M 112.848125 167.925762 
L 112.848125 135.291505 
" style="fill:none;stroke:#3f3f3f;stroke-linecap:square;stroke-width:4.5;"/>
   </g>
   <g id="line2d_14">
    <path clip-path="url(#p5cc88099f5)" d="M 231.888125 171.063672 
L 231.888125 144.705233 
" style="fill:none;stroke:#3f3f3f;stroke-linecap:square;stroke-width:1.5;"/>
   </g>
   <g id="line2d_15">
    <path clip-path="url(#p5cc88099f5)" d="M 231.888125 169.180926 
L 231.888125 145.960397 
" style="fill:none;stroke:#3f3f3f;stroke-linecap:square;stroke-width:4.5;"/>
   </g>
   <g id="line2d_16">
    <path clip-path="url(#p5cc88099f5)" d="M 350.928125 188.635964 
L 350.928125 107.050321 
" style="fill:none;stroke:#3f3f3f;stroke-linecap:square;stroke-width:1.5;"/>
   </g>
   <g id="line2d_17">
    <path clip-path="url(#p5cc88099f5)" d="M 350.928125 169.808508 
L 350.928125 132.781178 
" style="fill:none;stroke:#3f3f3f;stroke-linecap:square;stroke-width:4.5;"/>
   </g>
   <g id="patch_3">
    <path d="M 53.328125 266.456116 
L 53.328125 46.802461 
" style="fill:none;stroke:#000000;stroke-linecap:square;stroke-linejoin:miter;stroke-width:0.8;"/>
   </g>
   <g id="patch_4">
    <path d="M 112.848125 288.430125 
L 350.928125 288.430125 
" style="fill:none;stroke:#000000;stroke-linecap:square;stroke-linejoin:miter;stroke-width:0.8;"/>
   </g>
   <g id="PathCollection_1">
    <defs>
     <path d="M 0 1.5 
C 0.397805 1.5 0.77937 1.341951 1.06066 1.06066 
C 1.341951 0.77937 1.5 0.397805 1.5 0 
C 1.5 -0.397805 1.341951 -0.77937 1.06066 -1.06066 
C 0.77937 -1.341951 0.397805 -1.5 0 -1.5 
C -0.397805 -1.5 -0.77937 -1.341951 -1.06066 -1.06066 
C -1.341951 -0.77937 -1.5 -0.397805 -1.5 0 
C -1.5 0.397805 -1.341951 0.77937 -1.06066 1.06066 
C -0.77937 1.341951 -0.397805 1.5 0 1.5 
z
" id="m98e498f643" style="stroke:#3f3f3f;"/>
    </defs>
    <g clip-path="url(#p5cc88099f5)">
     <use style="fill:#ffffff;stroke:#3f3f3f;" x="112.848125" xlink:href="#m98e498f643" y="143.450069"/>
    </g>
   </g>
   <g id="PathCollection_2">
    <g clip-path="url(#p5cc88099f5)">
     <use style="fill:#ffffff;stroke:#3f3f3f;" x="231.888125" xlink:href="#m98e498f643" y="156.629289"/>
    </g>
   </g>
   <g id="PathCollection_3">
    <g clip-path="url(#p5cc88099f5)">
     <use style="fill:#ffffff;stroke:#3f3f3f;" x="350.928125" xlink:href="#m98e498f643" y="158.512034"/>
    </g>
   </g>
   <g id="text_14">
    <!-- vorbis-2017-12-11 (24h, 6 trials/fuzzer) -->
    <g transform="translate(113.651563 16.318125)scale(0.12 -0.12)">
     <defs>
      <path d="M 48.6875 27.296875 
Q 48.6875 37.203125 44.609375 42.84375 
Q 40.53125 48.484375 33.40625 48.484375 
Q 26.265625 48.484375 22.1875 42.84375 
Q 18.109375 37.203125 18.109375 27.296875 
Q 18.109375 17.390625 22.1875 11.75 
Q 26.265625 6.109375 33.40625 6.109375 
Q 40.53125 6.109375 44.609375 11.75 
Q 48.6875 17.390625 48.6875 27.296875 
z
M 18.109375 46.390625 
Q 20.953125 51.265625 25.265625 53.625 
Q 29.59375 56 35.59375 56 
Q 45.5625 56 51.78125 48.09375 
Q 58.015625 40.1875 58.015625 27.296875 
Q 58.015625 14.40625 51.78125 6.484375 
Q 45.5625 -1.421875 35.59375 -1.421875 
Q 29.59375 -1.421875 25.265625 0.953125 
Q 20.953125 3.328125 18.109375 8.203125 
L 18.109375 0 
L 9.078125 0 
L 9.078125 75.984375 
L 18.109375 75.984375 
z
" id="DejaVuSans-98"/>
      <path d="M 4.890625 31.390625 
L 31.203125 31.390625 
L 31.203125 23.390625 
L 4.890625 23.390625 
z
" id="DejaVuSans-45"/>
      <path d="M 37.796875 64.3125 
L 12.890625 25.390625 
L 37.796875 25.390625 
z
M 35.203125 72.90625 
L 47.609375 72.90625 
L 47.609375 25.390625 
L 58.015625 25.390625 
L 58.015625 17.1875 
L 47.609375 17.1875 
L 47.609375 0 
L 37.796875 0 
L 37.796875 17.1875 
L 4.890625 17.1875 
L 4.890625 26.703125 
z
" id="DejaVuSans-52"/>
      <path d="M 11.71875 12.40625 
L 22.015625 12.40625 
L 22.015625 4 
L 14.015625 -11.625 
L 7.71875 -11.625 
L 11.71875 4 
z
" id="DejaVuSans-44"/>
      <path d="M 25.390625 72.90625 
L 33.6875 72.90625 
L 8.296875 -9.28125 
L 0 -9.28125 
z
" id="DejaVuSans-47"/>
     </defs>
     <use xlink:href="#DejaVuSans-118"/>
     <use x="59.179688" xlink:href="#DejaVuSans-111"/>
     <use x="120.361328" xlink:href="#DejaVuSans-114"/>
     <use x="161.474609" xlink:href="#DejaVuSans-98"/>
     <use x="224.951172" xlink:href="#DejaVuSans-105"/>
     <use x="252.734375" xlink:href="#DejaVuSans-115"/>
     <use x="304.833984" xlink:href="#DejaVuSans-45"/>
     <use x="340.917969" xlink:href="#DejaVuSans-50"/>
     <use x="404.541016" xlink:href="#DejaVuSans-48"/>
     <use x="468.164062" xlink:href="#DejaVuSans-49"/>
     <use x="531.787109" xlink:href="#DejaVuSans-55"/>
     <use x="595.410156" xlink:href="#DejaVuSans-45"/>
     <use x="631.494141" xlink:href="#DejaVuSans-49"/>
     <use x="695.117188" xlink:href="#DejaVuSans-50"/>
     <use x="758.740234" xlink:href="#DejaVuSans-45"/>
     <use x="794.824219" xlink:href="#DejaVuSans-49"/>
     <use x="858.447266" xlink:href="#DejaVuSans-49"/>
     <use x="922.070312" xlink:href="#DejaVuSans-32"/>
     <use x="953.857422" xlink:href="#DejaVuSans-40"/>
     <use x="992.871094" xlink:href="#DejaVuSans-50"/>
     <use x="1056.494141" xlink:href="#DejaVuSans-52"/>
     <use x="1120.117188" xlink:href="#DejaVuSans-104"/>
     <use x="1183.496094" xlink:href="#DejaVuSans-44"/>
     <use x="1215.283203" xlink:href="#DejaVuSans-32"/>
     <use x="1247.070312" xlink:href="#DejaVuSans-54"/>
     <use x="1310.693359" xlink:href="#DejaVuSans-32"/>
     <use x="1342.480469" xlink:href="#DejaVuSans-116"/>
     <use x="1381.689453" xlink:href="#DejaVuSans-114"/>
     <use x="1422.802734" xlink:href="#DejaVuSans-105"/>
     <use x="1450.585938" xlink:href="#DejaVuSans-97"/>
     <use x="1511.865234" xlink:href="#DejaVuSans-108"/>
     <use x="1539.648438" xlink:href="#DejaVuSans-115"/>
     <use x="1591.748047" xlink:href="#DejaVuSans-47"/>
     <use x="1625.439453" xlink:href="#DejaVuSans-102"/>
     <use x="1660.644531" xlink:href="#DejaVuSans-117"/>
     <use x="1724.023438" xlink:href="#DejaVuSans-122"/>
     <use x="1776.513672" xlink:href="#DejaVuSans-122"/>
     <use x="1829.003906" xlink:href="#DejaVuSans-101"/>
     <use x="1890.527344" xlink:href="#DejaVuSans-114"/>
     <use x="1931.640625" xlink:href="#DejaVuSans-41"/>
    </g>
   </g>
  </g>
 </g>
 <defs>
  <clipPath id="p5cc88099f5">
   <rect height="266.112" width="357.12" x="53.328125" y="22.318125"/>
  </clipPath>
 </defs>
</svg>
