<?xml version="1.0" encoding="utf-8" standalone="no"?>
<!DOCTYPE svg PUBLIC "-//W3C//DTD SVG 1.1//EN"
  "http://www.w3.org/Graphics/SVG/1.1/DTD/svg11.dtd">
<!-- Created with matplotlib (https://matplotlib.org/) -->
<svg height="385.164209pt" version="1.1" viewBox="0 0 417.648125 385.164209" width="417.648125pt" xmlns="http://www.w3.org/2000/svg" xmlns:xlink="http://www.w3.org/1999/xlink">
 <metadata>
  <rdf:RDF xmlns:cc="http://creativecommons.org/ns#" xmlns:dc="http://purl.org/dc/elements/1.1/" xmlns:rdf="http://www.w3.org/1999/02/22-rdf-syntax-ns#">
   <cc:Work>
    <dc:type rdf:resource="http://purl.org/dc/dcmitype/StillImage"/>
    <dc:date>2020-11-23T03:23:25.840306</dc:date>
    <dc:format>image/svg+xml</dc:format>
    <dc:creator>
     <cc:Agent>
      <dc:title>Matplotlib v3.3.2, https://matplotlib.org/</dc:title>
     </cc:Agent>
    </dc:creator>
   </cc:Work>
  </rdf:RDF>
 </metadata>
 <defs>
  <style type="text/css">*{stroke-linecap:butt;stroke-linejoin:round;}</style>
 </defs>
 <g id="figure_1">
  <g id="patch_1">
   <path d="M 0 385.164209 
L 417.648125 385.164209 
L 417.648125 0 
L 0 0 
z
" style="fill:#ffffff;"/>
  </g>
  <g id="axes_1">
   <g id="patch_2">
    <path d="M 53.328125 288.430125 
L 410.448125 288.430125 
L 410.448125 22.318125 
L 53.328125 22.318125 
z
" style="fill:#ffffff;"/>
   </g>
   <g id="PolyCollection_1">
    <defs>
     <path d="M 148.727428 -124.083569 
L 136.488822 -124.083569 
L 135.63259 -126.37313 
L 134.687856 -128.662691 
L 133.650559 -130.952252 
L 132.517252 -133.241812 
L 131.285239 -135.531373 
L 129.952712 -137.820934 
L 128.518882 -140.110495 
L 126.98411 -142.400055 
L 125.350028 -144.689616 
L 123.619636 -146.979177 
L 121.797395 -149.268738 
L 119.889289 -151.558298 
L 117.902861 -153.847859 
L 115.84722 -156.13742 
L 113.733018 -158.426981 
L 111.572389 -160.716541 
L 109.378851 -163.006102 
L 107.16717 -165.295663 
L 104.953194 -167.585224 
L 102.753644 -169.874784 
L 100.585877 -172.164345 
L 98.467623 -174.453906 
L 96.416691 -176.743467 
L 94.45067 -179.033028 
L 92.586612 -181.322588 
L 90.84071 -183.612149 
L 89.227993 -185.90171 
L 87.762024 -188.191271 
L 86.454628 -190.480831 
L 85.315644 -192.770392 
L 84.35272 -195.059953 
L 83.57115 -197.349514 
L 82.97376 -199.639074 
L 82.560852 -201.928635 
L 82.330199 -204.218196 
L 82.277102 -206.507757 
L 82.394499 -208.797317 
L 82.673139 -211.086878 
L 83.101795 -213.376439 
L 83.66753 -215.666 
L 84.355998 -217.95556 
L 85.151779 -220.245121 
L 86.038731 -222.534682 
L 87.000359 -224.824243 
L 88.02018 -227.113803 
L 89.082086 -229.403364 
L 90.170686 -231.692925 
L 91.27162 -233.982486 
L 92.371841 -236.272046 
L 93.459855 -238.561607 
L 94.525908 -240.851168 
L 95.562128 -243.140729 
L 96.562606 -245.430289 
L 97.52343 -247.71985 
L 98.442653 -250.009411 
L 99.32022 -252.298972 
L 100.157839 -254.588532 
L 100.958812 -256.878093 
L 101.72783 -259.167654 
L 102.470736 -261.457215 
L 103.194268 -263.746775 
L 103.905793 -266.036336 
L 104.613024 -268.325897 
L 105.323755 -270.615458 
L 106.045598 -272.905018 
L 106.785739 -275.194579 
L 107.55072 -277.48414 
L 108.346252 -279.773701 
L 109.177056 -282.063262 
L 110.046747 -284.352822 
L 110.95775 -286.642383 
L 111.91126 -288.931944 
L 112.907233 -291.221505 
L 113.944417 -293.511065 
L 115.020413 -295.800626 
L 116.131767 -298.090187 
L 117.274085 -300.379748 
L 118.442167 -302.669308 
L 119.630153 -304.958869 
L 120.831689 -307.24843 
L 122.04008 -309.537991 
L 123.248458 -311.827551 
L 124.449935 -314.117112 
L 125.637752 -316.406673 
L 126.805413 -318.696234 
L 127.9468 -320.985794 
L 129.056283 -323.275355 
L 130.128793 -325.564916 
L 131.159896 -327.854477 
L 132.145825 -330.144037 
L 133.083517 -332.433598 
L 133.970611 -334.723159 
L 134.805446 -337.01272 
L 135.58703 -339.30228 
L 136.31501 -341.591841 
L 136.989623 -343.881402 
L 137.61164 -346.170963 
L 138.182309 -348.460523 
L 138.703285 -350.750084 
L 146.512965 -350.750084 
L 146.512965 -350.750084 
L 147.033941 -348.460523 
L 147.60461 -346.170963 
L 148.226627 -343.881402 
L 148.90124 -341.591841 
L 149.62922 -339.30228 
L 150.410804 -337.01272 
L 151.245639 -334.723159 
L 152.132733 -332.433598 
L 153.070425 -330.144037 
L 154.056354 -327.854477 
L 155.087457 -325.564916 
L 156.159967 -323.275355 
L 157.26945 -320.985794 
L 158.410837 -318.696234 
L 159.578498 -316.406673 
L 160.766315 -314.117112 
L 161.967792 -311.827551 
L 163.17617 -309.537991 
L 164.384561 -307.24843 
L 165.586097 -304.958869 
L 166.774083 -302.669308 
L 167.942165 -300.379748 
L 169.084483 -298.090187 
L 170.195837 -295.800626 
L 171.271833 -293.511065 
L 172.309017 -291.221505 
L 173.30499 -288.931944 
L 174.2585 -286.642383 
L 175.169503 -284.352822 
L 176.039194 -282.063262 
L 176.869998 -279.773701 
L 177.66553 -277.48414 
L 178.430511 -275.194579 
L 179.170652 -272.905018 
L 179.892495 -270.615458 
L 180.603226 -268.325897 
L 181.310457 -266.036336 
L 182.021982 -263.746775 
L 182.745514 -261.457215 
L 183.48842 -259.167654 
L 184.257438 -256.878093 
L 185.058411 -254.588532 
L 185.89603 -252.298972 
L 186.773597 -250.009411 
L 187.69282 -247.71985 
L 188.653644 -245.430289 
L 189.654122 -243.140729 
L 190.690342 -240.851168 
L 191.756395 -238.561607 
L 192.844409 -236.272046 
L 193.94463 -233.982486 
L 195.045564 -231.692925 
L 196.134164 -229.403364 
L 197.19607 -227.113803 
L 198.215891 -224.824243 
L 199.177519 -222.534682 
L 200.064471 -220.245121 
L 200.860252 -217.95556 
L 201.54872 -215.666 
L 202.114455 -213.376439 
L 202.543111 -211.086878 
L 202.821751 -208.797317 
L 202.939148 -206.507757 
L 202.886051 -204.218196 
L 202.655398 -201.928635 
L 202.24249 -199.639074 
L 201.6451 -197.349514 
L 200.86353 -195.059953 
L 199.900606 -192.770392 
L 198.761622 -190.480831 
L 197.454226 -188.191271 
L 195.988257 -185.90171 
L 194.37554 -183.612149 
L 192.629638 -181.322588 
L 190.76558 -179.033028 
L 188.799559 -176.743467 
L 186.748627 -174.453906 
L 184.630373 -172.164345 
L 182.462606 -169.874784 
L 180.263056 -167.585224 
L 178.04908 -165.295663 
L 175.837399 -163.006102 
L 173.643861 -160.716541 
L 171.483232 -158.426981 
L 169.36903 -156.13742 
L 167.313389 -153.847859 
L 165.326961 -151.558298 
L 163.418855 -149.268738 
L 161.596614 -146.979177 
L 159.866222 -144.689616 
L 158.23214 -142.400055 
L 156.697368 -140.110495 
L 155.263538 -137.820934 
L 153.931011 -135.531373 
L 152.698998 -133.241812 
L 151.565691 -130.952252 
L 150.528394 -128.662691 
L 149.58366 -126.37313 
L 148.727428 -124.083569 
z
" id="mc783933891" style="stroke:#3f3f3f;stroke-width:1.5;"/>
    </defs>
    <g clip-path="url(#pd58ac7f943)">
     <use style="fill:#9fd495;stroke:#3f3f3f;stroke-width:1.5;" x="0" xlink:href="#mc783933891" y="385.164209"/>
    </g>
   </g>
   <g id="PolyCollection_2">
    <defs>
     <path d="M 326.395191 -108.830084 
L 315.941059 -108.830084 
L 315.202511 -110.661138 
L 314.387037 -112.492193 
L 313.490975 -114.323247 
L 312.511133 -116.154301 
L 311.444884 -117.985355 
L 310.290261 -119.81641 
L 309.046047 -121.647464 
L 307.711855 -123.478518 
L 306.288203 -125.309572 
L 304.77657 -127.140627 
L 303.179438 -128.971681 
L 301.500316 -130.802735 
L 299.743747 -132.63379 
L 297.915288 -134.464844 
L 296.021474 -136.295898 
L 294.069752 -138.126952 
L 292.068408 -139.958007 
L 290.026455 -141.789061 
L 287.953522 -143.620115 
L 285.859711 -145.451169 
L 283.755458 -147.282224 
L 281.651371 -149.113278 
L 279.558075 -150.944332 
L 277.486054 -152.775386 
L 275.445492 -154.606441 
L 273.446132 -156.437495 
L 271.497139 -158.268549 
L 269.606989 -160.099603 
L 267.783365 -161.930658 
L 266.033084 -163.761712 
L 264.362043 -165.592766 
L 262.775188 -167.42382 
L 261.27651 -169.254875 
L 259.869061 -171.085929 
L 258.554994 -172.916983 
L 257.335617 -174.748037 
L 256.211474 -176.579092 
L 255.182434 -178.410146 
L 254.247786 -180.2412 
L 253.406354 -182.072254 
L 252.656606 -183.903309 
L 251.996769 -185.734363 
L 251.42494 -187.565417 
L 250.939191 -189.396472 
L 250.537672 -191.227526 
L 250.218696 -193.05858 
L 249.980815 -194.889634 
L 249.822887 -196.720689 
L 249.744125 -198.551743 
L 249.744125 -200.382797 
L 249.822887 -202.213851 
L 249.980815 -204.044906 
L 250.218696 -205.87596 
L 250.537672 -207.707014 
L 250.939191 -209.538068 
L 251.42494 -211.369123 
L 251.996769 -213.200177 
L 252.656606 -215.031231 
L 253.406354 -216.862285 
L 254.247786 -218.69334 
L 255.182434 -220.524394 
L 256.211474 -222.355448 
L 257.335617 -224.186502 
L 258.554994 -226.017557 
L 259.869061 -227.848611 
L 261.27651 -229.679665 
L 262.775188 -231.510719 
L 264.362043 -233.341774 
L 266.033084 -235.172828 
L 267.783365 -237.003882 
L 269.606989 -238.834936 
L 271.497139 -240.665991 
L 273.446132 -242.497045 
L 275.445492 -244.328099 
L 277.486054 -246.159153 
L 279.558075 -247.990208 
L 281.651371 -249.821262 
L 283.755458 -251.652316 
L 285.859711 -253.483371 
L 287.953522 -255.314425 
L 290.026455 -257.145479 
L 292.068408 -258.976533 
L 294.069752 -260.807588 
L 296.021474 -262.638642 
L 297.915288 -264.469696 
L 299.743747 -266.30075 
L 301.500316 -268.131805 
L 303.179438 -269.962859 
L 304.77657 -271.793913 
L 306.288203 -273.624967 
L 307.711855 -275.456022 
L 309.046047 -277.287076 
L 310.290261 -279.11813 
L 311.444884 -280.949184 
L 312.511133 -282.780239 
L 313.490975 -284.611293 
L 314.387037 -286.442347 
L 315.202511 -288.273401 
L 315.941059 -290.104456 
L 326.395191 -290.104456 
L 326.395191 -290.104456 
L 327.133739 -288.273401 
L 327.949213 -286.442347 
L 328.845275 -284.611293 
L 329.825117 -282.780239 
L 330.891366 -280.949184 
L 332.045989 -279.11813 
L 333.290203 -277.287076 
L 334.624395 -275.456022 
L 336.048047 -273.624967 
L 337.55968 -271.793913 
L 339.156812 -269.962859 
L 340.835934 -268.131805 
L 342.592503 -266.30075 
L 344.420962 -264.469696 
L 346.314776 -262.638642 
L 348.266498 -260.807588 
L 350.267842 -258.976533 
L 352.309795 -257.145479 
L 354.382728 -255.314425 
L 356.476539 -253.483371 
L 358.580792 -251.652316 
L 360.684879 -249.821262 
L 362.778175 -247.990208 
L 364.850196 -246.159153 
L 366.890758 -244.328099 
L 368.890118 -242.497045 
L 370.839111 -240.665991 
L 372.729261 -238.834936 
L 374.552885 -237.003882 
L 376.303166 -235.172828 
L 377.974207 -233.341774 
L 379.561062 -231.510719 
L 381.05974 -229.679665 
L 382.467189 -227.848611 
L 383.781256 -226.017557 
L 385.000633 -224.186502 
L 386.124776 -222.355448 
L 387.153816 -220.524394 
L 388.088464 -218.69334 
L 388.929896 -216.862285 
L 389.679644 -215.031231 
L 390.339481 -213.200177 
L 390.91131 -211.369123 
L 391.397059 -209.538068 
L 391.798578 -207.707014 
L 392.117554 -205.87596 
L 392.355435 -204.044906 
L 392.513363 -202.213851 
L 392.592125 -200.382797 
L 392.592125 -198.551743 
L 392.513363 -196.720689 
L 392.355435 -194.889634 
L 392.117554 -193.05858 
L 391.798578 -191.227526 
L 391.397059 -189.396472 
L 390.91131 -187.565417 
L 390.339481 -185.734363 
L 389.679644 -183.903309 
L 388.929896 -182.072254 
L 388.088464 -180.2412 
L 387.153816 -178.410146 
L 386.124776 -176.579092 
L 385.000633 -174.748037 
L 383.781256 -172.916983 
L 382.467189 -171.085929 
L 381.05974 -169.254875 
L 379.561062 -167.42382 
L 377.974207 -165.592766 
L 376.303166 -163.761712 
L 374.552885 -161.930658 
L 372.729261 -160.099603 
L 370.839111 -158.268549 
L 368.890118 -156.437495 
L 366.890758 -154.606441 
L 364.850196 -152.775386 
L 362.778175 -150.944332 
L 360.684879 -149.113278 
L 358.580792 -147.282224 
L 356.476539 -145.451169 
L 354.382728 -143.620115 
L 352.309795 -141.789061 
L 350.267842 -139.958007 
L 348.266498 -138.126952 
L 346.314776 -136.295898 
L 344.420962 -134.464844 
L 342.592503 -132.63379 
L 340.835934 -130.802735 
L 339.156812 -128.971681 
L 337.55968 -127.140627 
L 336.048047 -125.309572 
L 334.624395 -123.478518 
L 333.290203 -121.647464 
L 332.045989 -119.81641 
L 330.891366 -117.985355 
L 329.825117 -116.154301 
L 328.845275 -114.323247 
L 327.949213 -112.492193 
L 327.133739 -110.661138 
L 326.395191 -108.830084 
z
" id="m7c1060a4e6" style="stroke:#3f3f3f;stroke-width:1.5;"/>
    </defs>
    <g clip-path="url(#pd58ac7f943)">
     <use style="fill:#3274a1;stroke:#3f3f3f;stroke-width:1.5;" x="0" xlink:href="#m7c1060a4e6" y="385.164209"/>
    </g>
   </g>
   <g id="matplotlib.axis_1">
    <g id="xtick_1">
     <g id="line2d_1">
      <defs>
       <path d="M 0 0 
L 0 3.5 
" id="md729fb4a4a" style="stroke:#000000;stroke-width:0.8;"/>
      </defs>
      <g>
       <use style="stroke:#000000;stroke-width:0.8;" x="142.608125" xlink:href="#md729fb4a4a" y="288.430125"/>
      </g>
     </g>
     <g id="text_1">
      <!-- afldark_optimize_cksum -->
      <g transform="translate(37.101574 362.244159)rotate(-30)scale(0.1 -0.1)">
       <defs>
        <path d="M 34.28125 27.484375 
Q 23.390625 27.484375 19.1875 25 
Q 14.984375 22.515625 14.984375 16.5 
Q 14.984375 11.71875 18.140625 8.90625 
Q 21.296875 6.109375 26.703125 6.109375 
Q 34.1875 6.109375 38.703125 11.40625 
Q 43.21875 16.703125 43.21875 25.484375 
L 43.21875 27.484375 
z
M 52.203125 31.203125 
L 52.203125 0 
L 43.21875 0 
L 43.21875 8.296875 
Q 40.140625 3.328125 35.546875 0.953125 
Q 30.953125 -1.421875 24.3125 -1.421875 
Q 15.921875 -1.421875 10.953125 3.296875 
Q 6 8.015625 6 15.921875 
Q 6 25.140625 12.171875 29.828125 
Q 18.359375 34.515625 30.609375 34.515625 
L 43.21875 34.515625 
L 43.21875 35.40625 
Q 43.21875 41.609375 39.140625 45 
Q 35.0625 48.390625 27.6875 48.390625 
Q 23 48.390625 18.546875 47.265625 
Q 14.109375 46.140625 10.015625 43.890625 
L 10.015625 52.203125 
Q 14.9375 54.109375 19.578125 55.046875 
Q 24.21875 56 28.609375 56 
Q 40.484375 56 46.34375 49.84375 
Q 52.203125 43.703125 52.203125 31.203125 
z
" id="DejaVuSans-97"/>
        <path d="M 37.109375 75.984375 
L 37.109375 68.5 
L 28.515625 68.5 
Q 23.6875 68.5 21.796875 66.546875 
Q 19.921875 64.59375 19.921875 59.515625 
L 19.921875 54.6875 
L 34.71875 54.6875 
L 34.71875 47.703125 
L 19.921875 47.703125 
L 19.921875 0 
L 10.890625 0 
L 10.890625 47.703125 
L 2.296875 47.703125 
L 2.296875 54.6875 
L 10.890625 54.6875 
L 10.890625 58.5 
Q 10.890625 67.625 15.140625 71.796875 
Q 19.390625 75.984375 28.609375 75.984375 
z
" id="DejaVuSans-102"/>
        <path d="M 9.421875 75.984375 
L 18.40625 75.984375 
L 18.40625 0 
L 9.421875 0 
z
" id="DejaVuSans-108"/>
        <path d="M 45.40625 46.390625 
L 45.40625 75.984375 
L 54.390625 75.984375 
L 54.390625 0 
L 45.40625 0 
L 45.40625 8.203125 
Q 42.578125 3.328125 38.25 0.953125 
Q 33.9375 -1.421875 27.875 -1.421875 
Q 17.96875 -1.421875 11.734375 6.484375 
Q 5.515625 14.40625 5.515625 27.296875 
Q 5.515625 40.1875 11.734375 48.09375 
Q 17.96875 56 27.875 56 
Q 33.9375 56 38.25 53.625 
Q 42.578125 51.265625 45.40625 46.390625 
z
M 14.796875 27.296875 
Q 14.796875 17.390625 18.875 11.75 
Q 22.953125 6.109375 30.078125 6.109375 
Q 37.203125 6.109375 41.296875 11.75 
Q 45.40625 17.390625 45.40625 27.296875 
Q 45.40625 37.203125 41.296875 42.84375 
Q 37.203125 48.484375 30.078125 48.484375 
Q 22.953125 48.484375 18.875 42.84375 
Q 14.796875 37.203125 14.796875 27.296875 
z
" id="DejaVuSans-100"/>
        <path d="M 41.109375 46.296875 
Q 39.59375 47.171875 37.8125 47.578125 
Q 36.03125 48 33.890625 48 
Q 26.265625 48 22.1875 43.046875 
Q 18.109375 38.09375 18.109375 28.8125 
L 18.109375 0 
L 9.078125 0 
L 9.078125 54.6875 
L 18.109375 54.6875 
L 18.109375 46.1875 
Q 20.953125 51.171875 25.484375 53.578125 
Q 30.03125 56 36.53125 56 
Q 37.453125 56 38.578125 55.875 
Q 39.703125 55.765625 41.0625 55.515625 
z
" id="DejaVuSans-114"/>
        <path d="M 9.078125 75.984375 
L 18.109375 75.984375 
L 18.109375 31.109375 
L 44.921875 54.6875 
L 56.390625 54.6875 
L 27.390625 29.109375 
L 57.625 0 
L 45.90625 0 
L 18.109375 26.703125 
L 18.109375 0 
L 9.078125 0 
z
" id="DejaVuSans-107"/>
        <path d="M 50.984375 -16.609375 
L 50.984375 -23.578125 
L -0.984375 -23.578125 
L -0.984375 -16.609375 
z
" id="DejaVuSans-95"/>
        <path d="M 30.609375 48.390625 
Q 23.390625 48.390625 19.1875 42.75 
Q 14.984375 37.109375 14.984375 27.296875 
Q 14.984375 17.484375 19.15625 11.84375 
Q 23.34375 6.203125 30.609375 6.203125 
Q 37.796875 6.203125 41.984375 11.859375 
Q 46.1875 17.53125 46.1875 27.296875 
Q 46.1875 37.015625 41.984375 42.703125 
Q 37.796875 48.390625 30.609375 48.390625 
z
M 30.609375 56 
Q 42.328125 56 49.015625 48.375 
Q 55.71875 40.765625 55.71875 27.296875 
Q 55.71875 13.875 49.015625 6.21875 
Q 42.328125 -1.421875 30.609375 -1.421875 
Q 18.84375 -1.421875 12.171875 6.21875 
Q 5.515625 13.875 5.515625 27.296875 
Q 5.515625 40.765625 12.171875 48.375 
Q 18.84375 56 30.609375 56 
z
" id="DejaVuSans-111"/>
        <path d="M 18.109375 8.203125 
L 18.109375 -20.796875 
L 9.078125 -20.796875 
L 9.078125 54.6875 
L 18.109375 54.6875 
L 18.109375 46.390625 
Q 20.953125 51.265625 25.265625 53.625 
Q 29.59375 56 35.59375 56 
Q 45.5625 56 51.78125 48.09375 
Q 58.015625 40.1875 58.015625 27.296875 
Q 58.015625 14.40625 51.78125 6.484375 
Q 45.5625 -1.421875 35.59375 -1.421875 
Q 29.59375 -1.421875 25.265625 0.953125 
Q 20.953125 3.328125 18.109375 8.203125 
z
M 48.6875 27.296875 
Q 48.6875 37.203125 44.609375 42.84375 
Q 40.53125 48.484375 33.40625 48.484375 
Q 26.265625 48.484375 22.1875 42.84375 
Q 18.109375 37.203125 18.109375 27.296875 
Q 18.109375 17.390625 22.1875 11.75 
Q 26.265625 6.109375 33.40625 6.109375 
Q 40.53125 6.109375 44.609375 11.75 
Q 48.6875 17.390625 48.6875 27.296875 
z
" id="DejaVuSans-112"/>
        <path d="M 18.3125 70.21875 
L 18.3125 54.6875 
L 36.8125 54.6875 
L 36.8125 47.703125 
L 18.3125 47.703125 
L 18.3125 18.015625 
Q 18.3125 11.328125 20.140625 9.421875 
Q 21.96875 7.515625 27.59375 7.515625 
L 36.8125 7.515625 
L 36.8125 0 
L 27.59375 0 
Q 17.1875 0 13.234375 3.875 
Q 9.28125 7.765625 9.28125 18.015625 
L 9.28125 47.703125 
L 2.6875 47.703125 
L 2.6875 54.6875 
L 9.28125 54.6875 
L 9.28125 70.21875 
z
" id="DejaVuSans-116"/>
        <path d="M 9.421875 54.6875 
L 18.40625 54.6875 
L 18.40625 0 
L 9.421875 0 
z
M 9.421875 75.984375 
L 18.40625 75.984375 
L 18.40625 64.59375 
L 9.421875 64.59375 
z
" id="DejaVuSans-105"/>
        <path d="M 52 44.1875 
Q 55.375 50.25 60.0625 53.125 
Q 64.75 56 71.09375 56 
Q 79.640625 56 84.28125 50.015625 
Q 88.921875 44.046875 88.921875 33.015625 
L 88.921875 0 
L 79.890625 0 
L 79.890625 32.71875 
Q 79.890625 40.578125 77.09375 44.375 
Q 74.3125 48.1875 68.609375 48.1875 
Q 61.625 48.1875 57.5625 43.546875 
Q 53.515625 38.921875 53.515625 30.90625 
L 53.515625 0 
L 44.484375 0 
L 44.484375 32.71875 
Q 44.484375 40.625 41.703125 44.40625 
Q 38.921875 48.1875 33.109375 48.1875 
Q 26.21875 48.1875 22.15625 43.53125 
Q 18.109375 38.875 18.109375 30.90625 
L 18.109375 0 
L 9.078125 0 
L 9.078125 54.6875 
L 18.109375 54.6875 
L 18.109375 46.1875 
Q 21.1875 51.21875 25.484375 53.609375 
Q 29.78125 56 35.6875 56 
Q 41.65625 56 45.828125 52.96875 
Q 50 49.953125 52 44.1875 
z
" id="DejaVuSans-109"/>
        <path d="M 5.515625 54.6875 
L 48.1875 54.6875 
L 48.1875 46.484375 
L 14.40625 7.171875 
L 48.1875 7.171875 
L 48.1875 0 
L 4.296875 0 
L 4.296875 8.203125 
L 38.09375 47.515625 
L 5.515625 47.515625 
z
" id="DejaVuSans-122"/>
        <path d="M 56.203125 29.59375 
L 56.203125 25.203125 
L 14.890625 25.203125 
Q 15.484375 15.921875 20.484375 11.0625 
Q 25.484375 6.203125 34.421875 6.203125 
Q 39.59375 6.203125 44.453125 7.46875 
Q 49.3125 8.734375 54.109375 11.28125 
L 54.109375 2.78125 
Q 49.265625 0.734375 44.1875 -0.34375 
Q 39.109375 -1.421875 33.890625 -1.421875 
Q 20.796875 -1.421875 13.15625 6.1875 
Q 5.515625 13.8125 5.515625 26.8125 
Q 5.515625 40.234375 12.765625 48.109375 
Q 20.015625 56 32.328125 56 
Q 43.359375 56 49.78125 48.890625 
Q 56.203125 41.796875 56.203125 29.59375 
z
M 47.21875 32.234375 
Q 47.125 39.59375 43.09375 43.984375 
Q 39.0625 48.390625 32.421875 48.390625 
Q 24.90625 48.390625 20.390625 44.140625 
Q 15.875 39.890625 15.1875 32.171875 
z
" id="DejaVuSans-101"/>
        <path d="M 48.78125 52.59375 
L 48.78125 44.1875 
Q 44.96875 46.296875 41.140625 47.34375 
Q 37.3125 48.390625 33.40625 48.390625 
Q 24.65625 48.390625 19.8125 42.84375 
Q 14.984375 37.3125 14.984375 27.296875 
Q 14.984375 17.28125 19.8125 11.734375 
Q 24.65625 6.203125 33.40625 6.203125 
Q 37.3125 6.203125 41.140625 7.25 
Q 44.96875 8.296875 48.78125 10.40625 
L 48.78125 2.09375 
Q 45.015625 0.34375 40.984375 -0.53125 
Q 36.96875 -1.421875 32.421875 -1.421875 
Q 20.0625 -1.421875 12.78125 6.34375 
Q 5.515625 14.109375 5.515625 27.296875 
Q 5.515625 40.671875 12.859375 48.328125 
Q 20.21875 56 33.015625 56 
Q 37.15625 56 41.109375 55.140625 
Q 45.0625 54.296875 48.78125 52.59375 
z
" id="DejaVuSans-99"/>
        <path d="M 44.28125 53.078125 
L 44.28125 44.578125 
Q 40.484375 46.53125 36.375 47.5 
Q 32.28125 48.484375 27.875 48.484375 
Q 21.1875 48.484375 17.84375 46.4375 
Q 14.5 44.390625 14.5 40.28125 
Q 14.5 37.15625 16.890625 35.375 
Q 19.28125 33.59375 26.515625 31.984375 
L 29.59375 31.296875 
Q 39.15625 29.25 43.1875 25.515625 
Q 47.21875 21.78125 47.21875 15.09375 
Q 47.21875 7.46875 41.1875 3.015625 
Q 35.15625 -1.421875 24.609375 -1.421875 
Q 20.21875 -1.421875 15.453125 -0.5625 
Q 10.6875 0.296875 5.421875 2 
L 5.421875 11.28125 
Q 10.40625 8.6875 15.234375 7.390625 
Q 20.0625 6.109375 24.8125 6.109375 
Q 31.15625 6.109375 34.5625 8.28125 
Q 37.984375 10.453125 37.984375 14.40625 
Q 37.984375 18.0625 35.515625 20.015625 
Q 33.0625 21.96875 24.703125 23.78125 
L 21.578125 24.515625 
Q 13.234375 26.265625 9.515625 29.90625 
Q 5.8125 33.546875 5.8125 39.890625 
Q 5.8125 47.609375 11.28125 51.796875 
Q 16.75 56 26.8125 56 
Q 31.78125 56 36.171875 55.265625 
Q 40.578125 54.546875 44.28125 53.078125 
z
" id="DejaVuSans-115"/>
        <path d="M 8.5 21.578125 
L 8.5 54.6875 
L 17.484375 54.6875 
L 17.484375 21.921875 
Q 17.484375 14.15625 20.5 10.265625 
Q 23.53125 6.390625 29.59375 6.390625 
Q 36.859375 6.390625 41.078125 11.03125 
Q 45.3125 15.671875 45.3125 23.6875 
L 45.3125 54.6875 
L 54.296875 54.6875 
L 54.296875 0 
L 45.3125 0 
L 45.3125 8.40625 
Q 42.046875 3.421875 37.71875 1 
Q 33.40625 -1.421875 27.6875 -1.421875 
Q 18.265625 -1.421875 13.375 4.4375 
Q 8.5 10.296875 8.5 21.578125 
z
M 31.109375 56 
z
" id="DejaVuSans-117"/>
       </defs>
       <use xlink:href="#DejaVuSans-97"/>
       <use x="61.279297" xlink:href="#DejaVuSans-102"/>
       <use x="96.484375" xlink:href="#DejaVuSans-108"/>
       <use x="124.267578" xlink:href="#DejaVuSans-100"/>
       <use x="187.744141" xlink:href="#DejaVuSans-97"/>
       <use x="249.023438" xlink:href="#DejaVuSans-114"/>
       <use x="290.136719" xlink:href="#DejaVuSans-107"/>
       <use x="348.046875" xlink:href="#DejaVuSans-95"/>
       <use x="398.046875" xlink:href="#DejaVuSans-111"/>
       <use x="459.228516" xlink:href="#DejaVuSans-112"/>
       <use x="522.705078" xlink:href="#DejaVuSans-116"/>
       <use x="561.914062" xlink:href="#DejaVuSans-105"/>
       <use x="589.697266" xlink:href="#DejaVuSans-109"/>
       <use x="687.109375" xlink:href="#DejaVuSans-105"/>
       <use x="714.892578" xlink:href="#DejaVuSans-122"/>
       <use x="767.382812" xlink:href="#DejaVuSans-101"/>
       <use x="828.90625" xlink:href="#DejaVuSans-95"/>
       <use x="878.90625" xlink:href="#DejaVuSans-99"/>
       <use x="933.886719" xlink:href="#DejaVuSans-107"/>
       <use x="991.796875" xlink:href="#DejaVuSans-115"/>
       <use x="1043.896484" xlink:href="#DejaVuSans-117"/>
       <use x="1107.275391" xlink:href="#DejaVuSans-109"/>
      </g>
     </g>
    </g>
    <g id="xtick_2">
     <g id="line2d_2">
      <g>
       <use style="stroke:#000000;stroke-width:0.8;" x="321.168125" xlink:href="#md729fb4a4a" y="288.430125"/>
      </g>
     </g>
     <g id="text_2">
      <!-- afldark_dev -->
      <g transform="translate(269.56489 331.123065)rotate(-30)scale(0.1 -0.1)">
       <defs>
        <path d="M 2.984375 54.6875 
L 12.5 54.6875 
L 29.59375 8.796875 
L 46.6875 54.6875 
L 56.203125 54.6875 
L 35.6875 0 
L 23.484375 0 
z
" id="DejaVuSans-118"/>
       </defs>
       <use xlink:href="#DejaVuSans-97"/>
       <use x="61.279297" xlink:href="#DejaVuSans-102"/>
       <use x="96.484375" xlink:href="#DejaVuSans-108"/>
       <use x="124.267578" xlink:href="#DejaVuSans-100"/>
       <use x="187.744141" xlink:href="#DejaVuSans-97"/>
       <use x="249.023438" xlink:href="#DejaVuSans-114"/>
       <use x="290.136719" xlink:href="#DejaVuSans-107"/>
       <use x="348.046875" xlink:href="#DejaVuSans-95"/>
       <use x="398.046875" xlink:href="#DejaVuSans-100"/>
       <use x="461.523438" xlink:href="#DejaVuSans-101"/>
       <use x="523.046875" xlink:href="#DejaVuSans-118"/>
      </g>
     </g>
    </g>
    <g id="text_3">
     <!-- Fuzzer (highest median coverage on the left) -->
     <g transform="translate(119.270156 375.884522)scale(0.1 -0.1)">
      <defs>
       <path d="M 9.8125 72.90625 
L 51.703125 72.90625 
L 51.703125 64.59375 
L 19.671875 64.59375 
L 19.671875 43.109375 
L 48.578125 43.109375 
L 48.578125 34.8125 
L 19.671875 34.8125 
L 19.671875 0 
L 9.8125 0 
z
" id="DejaVuSans-70"/>
       <path id="DejaVuSans-32"/>
       <path d="M 31 75.875 
Q 24.46875 64.65625 21.28125 53.65625 
Q 18.109375 42.671875 18.109375 31.390625 
Q 18.109375 20.125 21.3125 9.0625 
Q 24.515625 -2 31 -13.1875 
L 23.1875 -13.1875 
Q 15.875 -1.703125 12.234375 9.375 
Q 8.59375 20.453125 8.59375 31.390625 
Q 8.59375 42.28125 12.203125 53.3125 
Q 15.828125 64.359375 23.1875 75.875 
z
" id="DejaVuSans-40"/>
       <path d="M 54.890625 33.015625 
L 54.890625 0 
L 45.90625 0 
L 45.90625 32.71875 
Q 45.90625 40.484375 42.875 44.328125 
Q 39.84375 48.1875 33.796875 48.1875 
Q 26.515625 48.1875 22.3125 43.546875 
Q 18.109375 38.921875 18.109375 30.90625 
L 18.109375 0 
L 9.078125 0 
L 9.078125 75.984375 
L 18.109375 75.984375 
L 18.109375 46.1875 
Q 21.34375 51.125 25.703125 53.5625 
Q 30.078125 56 35.796875 56 
Q 45.21875 56 50.046875 50.171875 
Q 54.890625 44.34375 54.890625 33.015625 
z
" id="DejaVuSans-104"/>
       <path d="M 45.40625 27.984375 
Q 45.40625 37.75 41.375 43.109375 
Q 37.359375 48.484375 30.078125 48.484375 
Q 22.859375 48.484375 18.828125 43.109375 
Q 14.796875 37.75 14.796875 27.984375 
Q 14.796875 18.265625 18.828125 12.890625 
Q 22.859375 7.515625 30.078125 7.515625 
Q 37.359375 7.515625 41.375 12.890625 
Q 45.40625 18.265625 45.40625 27.984375 
z
M 54.390625 6.78125 
Q 54.390625 -7.171875 48.1875 -13.984375 
Q 42 -20.796875 29.203125 -20.796875 
Q 24.46875 -20.796875 20.265625 -20.09375 
Q 16.0625 -19.390625 12.109375 -17.921875 
L 12.109375 -9.1875 
Q 16.0625 -11.328125 19.921875 -12.34375 
Q 23.78125 -13.375 27.78125 -13.375 
Q 36.625 -13.375 41.015625 -8.765625 
Q 45.40625 -4.15625 45.40625 5.171875 
L 45.40625 9.625 
Q 42.625 4.78125 38.28125 2.390625 
Q 33.9375 0 27.875 0 
Q 17.828125 0 11.671875 7.65625 
Q 5.515625 15.328125 5.515625 27.984375 
Q 5.515625 40.671875 11.671875 48.328125 
Q 17.828125 56 27.875 56 
Q 33.9375 56 38.28125 53.609375 
Q 42.625 51.21875 45.40625 46.390625 
L 45.40625 54.6875 
L 54.390625 54.6875 
z
" id="DejaVuSans-103"/>
       <path d="M 54.890625 33.015625 
L 54.890625 0 
L 45.90625 0 
L 45.90625 32.71875 
Q 45.90625 40.484375 42.875 44.328125 
Q 39.84375 48.1875 33.796875 48.1875 
Q 26.515625 48.1875 22.3125 43.546875 
Q 18.109375 38.921875 18.109375 30.90625 
L 18.109375 0 
L 9.078125 0 
L 9.078125 54.6875 
L 18.109375 54.6875 
L 18.109375 46.1875 
Q 21.34375 51.125 25.703125 53.5625 
Q 30.078125 56 35.796875 56 
Q 45.21875 56 50.046875 50.171875 
Q 54.890625 44.34375 54.890625 33.015625 
z
" id="DejaVuSans-110"/>
       <path d="M 8.015625 75.875 
L 15.828125 75.875 
Q 23.140625 64.359375 26.78125 53.3125 
Q 30.421875 42.28125 30.421875 31.390625 
Q 30.421875 20.453125 26.78125 9.375 
Q 23.140625 -1.703125 15.828125 -13.1875 
L 8.015625 -13.1875 
Q 14.5 -2 17.703125 9.0625 
Q 20.90625 20.125 20.90625 31.390625 
Q 20.90625 42.671875 17.703125 53.65625 
Q 14.5 64.65625 8.015625 75.875 
z
" id="DejaVuSans-41"/>
      </defs>
      <use xlink:href="#DejaVuSans-70"/>
      <use x="52.019531" xlink:href="#DejaVuSans-117"/>
      <use x="115.398438" xlink:href="#DejaVuSans-122"/>
      <use x="167.888672" xlink:href="#DejaVuSans-122"/>
      <use x="220.378906" xlink:href="#DejaVuSans-101"/>
      <use x="281.902344" xlink:href="#DejaVuSans-114"/>
      <use x="323.015625" xlink:href="#DejaVuSans-32"/>
      <use x="354.802734" xlink:href="#DejaVuSans-40"/>
      <use x="393.816406" xlink:href="#DejaVuSans-104"/>
      <use x="457.195312" xlink:href="#DejaVuSans-105"/>
      <use x="484.978516" xlink:href="#DejaVuSans-103"/>
      <use x="548.455078" xlink:href="#DejaVuSans-104"/>
      <use x="611.833984" xlink:href="#DejaVuSans-101"/>
      <use x="673.357422" xlink:href="#DejaVuSans-115"/>
      <use x="725.457031" xlink:href="#DejaVuSans-116"/>
      <use x="764.666016" xlink:href="#DejaVuSans-32"/>
      <use x="796.453125" xlink:href="#DejaVuSans-109"/>
      <use x="893.865234" xlink:href="#DejaVuSans-101"/>
      <use x="955.388672" xlink:href="#DejaVuSans-100"/>
      <use x="1018.865234" xlink:href="#DejaVuSans-105"/>
      <use x="1046.648438" xlink:href="#DejaVuSans-97"/>
      <use x="1107.927734" xlink:href="#DejaVuSans-110"/>
      <use x="1171.306641" xlink:href="#DejaVuSans-32"/>
      <use x="1203.09375" xlink:href="#DejaVuSans-99"/>
      <use x="1258.074219" xlink:href="#DejaVuSans-111"/>
      <use x="1319.255859" xlink:href="#DejaVuSans-118"/>
      <use x="1378.435547" xlink:href="#DejaVuSans-101"/>
      <use x="1439.958984" xlink:href="#DejaVuSans-114"/>
      <use x="1481.072266" xlink:href="#DejaVuSans-97"/>
      <use x="1542.351562" xlink:href="#DejaVuSans-103"/>
      <use x="1605.828125" xlink:href="#DejaVuSans-101"/>
      <use x="1667.351562" xlink:href="#DejaVuSans-32"/>
      <use x="1699.138672" xlink:href="#DejaVuSans-111"/>
      <use x="1760.320312" xlink:href="#DejaVuSans-110"/>
      <use x="1823.699219" xlink:href="#DejaVuSans-32"/>
      <use x="1855.486328" xlink:href="#DejaVuSans-116"/>
      <use x="1894.695312" xlink:href="#DejaVuSans-104"/>
      <use x="1958.074219" xlink:href="#DejaVuSans-101"/>
      <use x="2019.597656" xlink:href="#DejaVuSans-32"/>
      <use x="2051.384766" xlink:href="#DejaVuSans-108"/>
      <use x="2079.167969" xlink:href="#DejaVuSans-101"/>
      <use x="2140.691406" xlink:href="#DejaVuSans-102"/>
      <use x="2174.146484" xlink:href="#DejaVuSans-116"/>
      <use x="2213.355469" xlink:href="#DejaVuSans-41"/>
     </g>
    </g>
   </g>
   <g id="matplotlib.axis_2">
    <g id="ytick_1">
     <g id="line2d_3">
      <defs>
       <path d="M 0 0 
L -3.5 0 
" id="mcd0cf6efeb" style="stroke:#000000;stroke-width:0.8;"/>
      </defs>
      <g>
       <use style="stroke:#000000;stroke-width:0.8;" x="53.328125" xlink:href="#mcd0cf6efeb" y="271.083442"/>
      </g>
     </g>
     <g id="text_4">
      <!-- 5150 -->
      <g transform="translate(20.878125 274.882661)scale(0.1 -0.1)">
       <defs>
        <path d="M 10.796875 72.90625 
L 49.515625 72.90625 
L 49.515625 64.59375 
L 19.828125 64.59375 
L 19.828125 46.734375 
Q 21.96875 47.46875 24.109375 47.828125 
Q 26.265625 48.1875 28.421875 48.1875 
Q 40.625 48.1875 47.75 41.5 
Q 54.890625 34.8125 54.890625 23.390625 
Q 54.890625 11.625 47.5625 5.09375 
Q 40.234375 -1.421875 26.90625 -1.421875 
Q 22.3125 -1.421875 17.546875 -0.640625 
Q 12.796875 0.140625 7.71875 1.703125 
L 7.71875 11.625 
Q 12.109375 9.234375 16.796875 8.0625 
Q 21.484375 6.890625 26.703125 6.890625 
Q 35.15625 6.890625 40.078125 11.328125 
Q 45.015625 15.765625 45.015625 23.390625 
Q 45.015625 31 40.078125 35.4375 
Q 35.15625 39.890625 26.703125 39.890625 
Q 22.75 39.890625 18.8125 39.015625 
Q 14.890625 38.140625 10.796875 36.28125 
z
" id="DejaVuSans-53"/>
        <path d="M 12.40625 8.296875 
L 28.515625 8.296875 
L 28.515625 63.921875 
L 10.984375 60.40625 
L 10.984375 69.390625 
L 28.421875 72.90625 
L 38.28125 72.90625 
L 38.28125 8.296875 
L 54.390625 8.296875 
L 54.390625 0 
L 12.40625 0 
z
" id="DejaVuSans-49"/>
        <path d="M 31.78125 66.40625 
Q 24.171875 66.40625 20.328125 58.90625 
Q 16.5 51.421875 16.5 36.375 
Q 16.5 21.390625 20.328125 13.890625 
Q 24.171875 6.390625 31.78125 6.390625 
Q 39.453125 6.390625 43.28125 13.890625 
Q 47.125 21.390625 47.125 36.375 
Q 47.125 51.421875 43.28125 58.90625 
Q 39.453125 66.40625 31.78125 66.40625 
z
M 31.78125 74.21875 
Q 44.046875 74.21875 50.515625 64.515625 
Q 56.984375 54.828125 56.984375 36.375 
Q 56.984375 17.96875 50.515625 8.265625 
Q 44.046875 -1.421875 31.78125 -1.421875 
Q 19.53125 -1.421875 13.0625 8.265625 
Q 6.59375 17.96875 6.59375 36.375 
Q 6.59375 54.828125 13.0625 64.515625 
Q 19.53125 74.21875 31.78125 74.21875 
z
" id="DejaVuSans-48"/>
       </defs>
       <use xlink:href="#DejaVuSans-53"/>
       <use x="63.623047" xlink:href="#DejaVuSans-49"/>
       <use x="127.246094" xlink:href="#DejaVuSans-53"/>
       <use x="190.869141" xlink:href="#DejaVuSans-48"/>
      </g>
     </g>
    </g>
    <g id="ytick_2">
     <g id="line2d_4">
      <g>
       <use style="stroke:#000000;stroke-width:0.8;" x="53.328125" xlink:href="#mcd0cf6efeb" y="239.458811"/>
      </g>
     </g>
     <g id="text_5">
      <!-- 5160 -->
      <g transform="translate(20.878125 243.25803)scale(0.1 -0.1)">
       <defs>
        <path d="M 33.015625 40.375 
Q 26.375 40.375 22.484375 35.828125 
Q 18.609375 31.296875 18.609375 23.390625 
Q 18.609375 15.53125 22.484375 10.953125 
Q 26.375 6.390625 33.015625 6.390625 
Q 39.65625 6.390625 43.53125 10.953125 
Q 47.40625 15.53125 47.40625 23.390625 
Q 47.40625 31.296875 43.53125 35.828125 
Q 39.65625 40.375 33.015625 40.375 
z
M 52.59375 71.296875 
L 52.59375 62.3125 
Q 48.875 64.0625 45.09375 64.984375 
Q 41.3125 65.921875 37.59375 65.921875 
Q 27.828125 65.921875 22.671875 59.328125 
Q 17.53125 52.734375 16.796875 39.40625 
Q 19.671875 43.65625 24.015625 45.921875 
Q 28.375 48.1875 33.59375 48.1875 
Q 44.578125 48.1875 50.953125 41.515625 
Q 57.328125 34.859375 57.328125 23.390625 
Q 57.328125 12.15625 50.6875 5.359375 
Q 44.046875 -1.421875 33.015625 -1.421875 
Q 20.359375 -1.421875 13.671875 8.265625 
Q 6.984375 17.96875 6.984375 36.375 
Q 6.984375 53.65625 15.1875 63.9375 
Q 23.390625 74.21875 37.203125 74.21875 
Q 40.921875 74.21875 44.703125 73.484375 
Q 48.484375 72.75 52.59375 71.296875 
z
" id="DejaVuSans-54"/>
       </defs>
       <use xlink:href="#DejaVuSans-53"/>
       <use x="63.623047" xlink:href="#DejaVuSans-49"/>
       <use x="127.246094" xlink:href="#DejaVuSans-54"/>
       <use x="190.869141" xlink:href="#DejaVuSans-48"/>
      </g>
     </g>
    </g>
    <g id="ytick_3">
     <g id="line2d_5">
      <g>
       <use style="stroke:#000000;stroke-width:0.8;" x="53.328125" xlink:href="#mcd0cf6efeb" y="207.834181"/>
      </g>
     </g>
     <g id="text_6">
      <!-- 5170 -->
      <g transform="translate(20.878125 211.633399)scale(0.1 -0.1)">
       <defs>
        <path d="M 8.203125 72.90625 
L 55.078125 72.90625 
L 55.078125 68.703125 
L 28.609375 0 
L 18.3125 0 
L 43.21875 64.59375 
L 8.203125 64.59375 
z
" id="DejaVuSans-55"/>
       </defs>
       <use xlink:href="#DejaVuSans-53"/>
       <use x="63.623047" xlink:href="#DejaVuSans-49"/>
       <use x="127.246094" xlink:href="#DejaVuSans-55"/>
       <use x="190.869141" xlink:href="#DejaVuSans-48"/>
      </g>
     </g>
    </g>
    <g id="ytick_4">
     <g id="line2d_6">
      <g>
       <use style="stroke:#000000;stroke-width:0.8;" x="53.328125" xlink:href="#mcd0cf6efeb" y="176.20955"/>
      </g>
     </g>
     <g id="text_7">
      <!-- 5180 -->
      <g transform="translate(20.878125 180.008769)scale(0.1 -0.1)">
       <defs>
        <path d="M 31.78125 34.625 
Q 24.75 34.625 20.71875 30.859375 
Q 16.703125 27.09375 16.703125 20.515625 
Q 16.703125 13.921875 20.71875 10.15625 
Q 24.75 6.390625 31.78125 6.390625 
Q 38.8125 6.390625 42.859375 10.171875 
Q 46.921875 13.96875 46.921875 20.515625 
Q 46.921875 27.09375 42.890625 30.859375 
Q 38.875 34.625 31.78125 34.625 
z
M 21.921875 38.8125 
Q 15.578125 40.375 12.03125 44.71875 
Q 8.5 49.078125 8.5 55.328125 
Q 8.5 64.0625 14.71875 69.140625 
Q 20.953125 74.21875 31.78125 74.21875 
Q 42.671875 74.21875 48.875 69.140625 
Q 55.078125 64.0625 55.078125 55.328125 
Q 55.078125 49.078125 51.53125 44.71875 
Q 48 40.375 41.703125 38.8125 
Q 48.828125 37.15625 52.796875 32.3125 
Q 56.78125 27.484375 56.78125 20.515625 
Q 56.78125 9.90625 50.3125 4.234375 
Q 43.84375 -1.421875 31.78125 -1.421875 
Q 19.734375 -1.421875 13.25 4.234375 
Q 6.78125 9.90625 6.78125 20.515625 
Q 6.78125 27.484375 10.78125 32.3125 
Q 14.796875 37.15625 21.921875 38.8125 
z
M 18.3125 54.390625 
Q 18.3125 48.734375 21.84375 45.5625 
Q 25.390625 42.390625 31.78125 42.390625 
Q 38.140625 42.390625 41.71875 45.5625 
Q 45.3125 48.734375 45.3125 54.390625 
Q 45.3125 60.0625 41.71875 63.234375 
Q 38.140625 66.40625 31.78125 66.40625 
Q 25.390625 66.40625 21.84375 63.234375 
Q 18.3125 60.0625 18.3125 54.390625 
z
" id="DejaVuSans-56"/>
       </defs>
       <use xlink:href="#DejaVuSans-53"/>
       <use x="63.623047" xlink:href="#DejaVuSans-49"/>
       <use x="127.246094" xlink:href="#DejaVuSans-56"/>
       <use x="190.869141" xlink:href="#DejaVuSans-48"/>
      </g>
     </g>
    </g>
    <g id="ytick_5">
     <g id="line2d_7">
      <g>
       <use style="stroke:#000000;stroke-width:0.8;" x="53.328125" xlink:href="#mcd0cf6efeb" y="144.584919"/>
      </g>
     </g>
     <g id="text_8">
      <!-- 5190 -->
      <g transform="translate(20.878125 148.384138)scale(0.1 -0.1)">
       <defs>
        <path d="M 10.984375 1.515625 
L 10.984375 10.5 
Q 14.703125 8.734375 18.5 7.8125 
Q 22.3125 6.890625 25.984375 6.890625 
Q 35.75 6.890625 40.890625 13.453125 
Q 46.046875 20.015625 46.78125 33.40625 
Q 43.953125 29.203125 39.59375 26.953125 
Q 35.25 24.703125 29.984375 24.703125 
Q 19.046875 24.703125 12.671875 31.3125 
Q 6.296875 37.9375 6.296875 49.421875 
Q 6.296875 60.640625 12.9375 67.421875 
Q 19.578125 74.21875 30.609375 74.21875 
Q 43.265625 74.21875 49.921875 64.515625 
Q 56.59375 54.828125 56.59375 36.375 
Q 56.59375 19.140625 48.40625 8.859375 
Q 40.234375 -1.421875 26.421875 -1.421875 
Q 22.703125 -1.421875 18.890625 -0.6875 
Q 15.09375 0.046875 10.984375 1.515625 
z
M 30.609375 32.421875 
Q 37.25 32.421875 41.125 36.953125 
Q 45.015625 41.5 45.015625 49.421875 
Q 45.015625 57.28125 41.125 61.84375 
Q 37.25 66.40625 30.609375 66.40625 
Q 23.96875 66.40625 20.09375 61.84375 
Q 16.21875 57.28125 16.21875 49.421875 
Q 16.21875 41.5 20.09375 36.953125 
Q 23.96875 32.421875 30.609375 32.421875 
z
" id="DejaVuSans-57"/>
       </defs>
       <use xlink:href="#DejaVuSans-53"/>
       <use x="63.623047" xlink:href="#DejaVuSans-49"/>
       <use x="127.246094" xlink:href="#DejaVuSans-57"/>
       <use x="190.869141" xlink:href="#DejaVuSans-48"/>
      </g>
     </g>
    </g>
    <g id="ytick_6">
     <g id="line2d_8">
      <g>
       <use style="stroke:#000000;stroke-width:0.8;" x="53.328125" xlink:href="#mcd0cf6efeb" y="112.960289"/>
      </g>
     </g>
     <g id="text_9">
      <!-- 5200 -->
      <g transform="translate(20.878125 116.759507)scale(0.1 -0.1)">
       <defs>
        <path d="M 19.1875 8.296875 
L 53.609375 8.296875 
L 53.609375 0 
L 7.328125 0 
L 7.328125 8.296875 
Q 12.9375 14.109375 22.625 23.890625 
Q 32.328125 33.6875 34.8125 36.53125 
Q 39.546875 41.84375 41.421875 45.53125 
Q 43.3125 49.21875 43.3125 52.78125 
Q 43.3125 58.59375 39.234375 62.25 
Q 35.15625 65.921875 28.609375 65.921875 
Q 23.96875 65.921875 18.8125 64.3125 
Q 13.671875 62.703125 7.8125 59.421875 
L 7.8125 69.390625 
Q 13.765625 71.78125 18.9375 73 
Q 24.125 74.21875 28.421875 74.21875 
Q 39.75 74.21875 46.484375 68.546875 
Q 53.21875 62.890625 53.21875 53.421875 
Q 53.21875 48.921875 51.53125 44.890625 
Q 49.859375 40.875 45.40625 35.40625 
Q 44.1875 33.984375 37.640625 27.21875 
Q 31.109375 20.453125 19.1875 8.296875 
z
" id="DejaVuSans-50"/>
       </defs>
       <use xlink:href="#DejaVuSans-53"/>
       <use x="63.623047" xlink:href="#DejaVuSans-50"/>
       <use x="127.246094" xlink:href="#DejaVuSans-48"/>
       <use x="190.869141" xlink:href="#DejaVuSans-48"/>
      </g>
     </g>
    </g>
    <g id="ytick_7">
     <g id="line2d_9">
      <g>
       <use style="stroke:#000000;stroke-width:0.8;" x="53.328125" xlink:href="#mcd0cf6efeb" y="81.335658"/>
      </g>
     </g>
     <g id="text_10">
      <!-- 5210 -->
      <g transform="translate(20.878125 85.134877)scale(0.1 -0.1)">
       <use xlink:href="#DejaVuSans-53"/>
       <use x="63.623047" xlink:href="#DejaVuSans-50"/>
       <use x="127.246094" xlink:href="#DejaVuSans-49"/>
       <use x="190.869141" xlink:href="#DejaVuSans-48"/>
      </g>
     </g>
    </g>
    <g id="ytick_8">
     <g id="line2d_10">
      <g>
       <use style="stroke:#000000;stroke-width:0.8;" x="53.328125" xlink:href="#mcd0cf6efeb" y="49.711027"/>
      </g>
     </g>
     <g id="text_11">
      <!-- 5220 -->
      <g transform="translate(20.878125 53.510246)scale(0.1 -0.1)">
       <use xlink:href="#DejaVuSans-53"/>
       <use x="63.623047" xlink:href="#DejaVuSans-50"/>
       <use x="127.246094" xlink:href="#DejaVuSans-50"/>
       <use x="190.869141" xlink:href="#DejaVuSans-48"/>
      </g>
     </g>
    </g>
    <g id="text_12">
     <!-- Reached region coverage -->
     <g transform="translate(14.798438 219.136625)rotate(-90)scale(0.1 -0.1)">
      <defs>
       <path d="M 44.390625 34.1875 
Q 47.5625 33.109375 50.5625 29.59375 
Q 53.5625 26.078125 56.59375 19.921875 
L 66.609375 0 
L 56 0 
L 46.6875 18.703125 
Q 43.0625 26.03125 39.671875 28.421875 
Q 36.28125 30.8125 30.421875 30.8125 
L 19.671875 30.8125 
L 19.671875 0 
L 9.8125 0 
L 9.8125 72.90625 
L 32.078125 72.90625 
Q 44.578125 72.90625 50.734375 67.671875 
Q 56.890625 62.453125 56.890625 51.90625 
Q 56.890625 45.015625 53.6875 40.46875 
Q 50.484375 35.9375 44.390625 34.1875 
z
M 19.671875 64.796875 
L 19.671875 38.921875 
L 32.078125 38.921875 
Q 39.203125 38.921875 42.84375 42.21875 
Q 46.484375 45.515625 46.484375 51.90625 
Q 46.484375 58.296875 42.84375 61.546875 
Q 39.203125 64.796875 32.078125 64.796875 
z
" id="DejaVuSans-82"/>
      </defs>
      <use xlink:href="#DejaVuSans-82"/>
      <use x="64.982422" xlink:href="#DejaVuSans-101"/>
      <use x="126.505859" xlink:href="#DejaVuSans-97"/>
      <use x="187.785156" xlink:href="#DejaVuSans-99"/>
      <use x="242.765625" xlink:href="#DejaVuSans-104"/>
      <use x="306.144531" xlink:href="#DejaVuSans-101"/>
      <use x="367.667969" xlink:href="#DejaVuSans-100"/>
      <use x="431.144531" xlink:href="#DejaVuSans-32"/>
      <use x="462.931641" xlink:href="#DejaVuSans-114"/>
      <use x="501.794922" xlink:href="#DejaVuSans-101"/>
      <use x="563.318359" xlink:href="#DejaVuSans-103"/>
      <use x="626.794922" xlink:href="#DejaVuSans-105"/>
      <use x="654.578125" xlink:href="#DejaVuSans-111"/>
      <use x="715.759766" xlink:href="#DejaVuSans-110"/>
      <use x="779.138672" xlink:href="#DejaVuSans-32"/>
      <use x="810.925781" xlink:href="#DejaVuSans-99"/>
      <use x="865.90625" xlink:href="#DejaVuSans-111"/>
      <use x="927.087891" xlink:href="#DejaVuSans-118"/>
      <use x="986.267578" xlink:href="#DejaVuSans-101"/>
      <use x="1047.791016" xlink:href="#DejaVuSans-114"/>
      <use x="1088.904297" xlink:href="#DejaVuSans-97"/>
      <use x="1150.183594" xlink:href="#DejaVuSans-103"/>
      <use x="1213.660156" xlink:href="#DejaVuSans-101"/>
     </g>
    </g>
   </g>
   <g id="line2d_11">
    <path clip-path="url(#pd58ac7f943)" d="M 142.608125 188.859402 
L 142.608125 106.635362 
" style="fill:none;stroke:#3f3f3f;stroke-linecap:square;stroke-width:1.5;"/>
   </g>
   <g id="line2d_12">
    <path clip-path="url(#pd58ac7f943)" d="M 142.608125 184.115708 
L 142.608125 143.003688 
" style="fill:none;stroke:#3f3f3f;stroke-linecap:square;stroke-width:4.5;"/>
   </g>
   <g id="line2d_13">
    <path clip-path="url(#pd58ac7f943)" d="M 321.168125 220.484033 
L 321.168125 150.909845 
" style="fill:none;stroke:#3f3f3f;stroke-linecap:square;stroke-width:1.5;"/>
   </g>
   <g id="line2d_14">
    <path clip-path="url(#pd58ac7f943)" d="M 321.168125 203.090486 
L 321.168125 168.303392 
" style="fill:none;stroke:#3f3f3f;stroke-linecap:square;stroke-width:4.5;"/>
   </g>
   <g id="patch_3">
    <path d="M 53.328125 271.083442 
L 53.328125 49.711027 
" style="fill:none;stroke:#000000;stroke-linecap:square;stroke-linejoin:miter;stroke-width:0.8;"/>
   </g>
   <g id="patch_4">
    <path d="M 142.608125 288.430125 
L 321.168125 288.430125 
" style="fill:none;stroke:#000000;stroke-linecap:square;stroke-linejoin:miter;stroke-width:0.8;"/>
   </g>
   <g id="PathCollection_1">
    <defs>
     <path d="M 0 1.5 
C 0.397805 1.5 0.77937 1.341951 1.06066 1.06066 
C 1.341951 0.77937 1.5 0.397805 1.5 0 
C 1.5 -0.397805 1.341951 -0.77937 1.06066 -1.06066 
C 0.77937 -1.341951 0.397805 -1.5 0 -1.5 
C -0.397805 -1.5 -0.77937 -1.341951 -1.06066 -1.06066 
C -1.341951 -0.77937 -1.5 -0.397805 -1.5 0 
C -1.5 0.397805 -1.341951 0.77937 -1.06066 1.06066 
C -0.77937 1.341951 -0.397805 1.5 0 1.5 
z
" id="m0f75e1e7e3" style="stroke:#3f3f3f;"/>
    </defs>
    <g clip-path="url(#pd58ac7f943)">
     <use style="fill:#ffffff;stroke:#3f3f3f;" x="142.608125" xlink:href="#m0f75e1e7e3" y="179.372013"/>
    </g>
   </g>
   <g id="PathCollection_2">
    <g clip-path="url(#pd58ac7f943)">
     <use style="fill:#ffffff;stroke:#3f3f3f;" x="321.168125" xlink:href="#m0f75e1e7e3" y="185.696939"/>
    </g>
   </g>
   <g id="text_13">
    <!-- openthread-2019-12-23 (24h, 3 trials/fuzzer) -->
    <g transform="translate(97.303438 16.318125)scale(0.12 -0.12)">
     <defs>
      <path d="M 4.890625 31.390625 
L 31.203125 31.390625 
L 31.203125 23.390625 
L 4.890625 23.390625 
z
" id="DejaVuSans-45"/>
      <path d="M 40.578125 39.3125 
Q 47.65625 37.796875 51.625 33 
Q 55.609375 28.21875 55.609375 21.1875 
Q 55.609375 10.40625 48.1875 4.484375 
Q 40.765625 -1.421875 27.09375 -1.421875 
Q 22.515625 -1.421875 17.65625 -0.515625 
Q 12.796875 0.390625 7.625 2.203125 
L 7.625 11.71875 
Q 11.71875 9.328125 16.59375 8.109375 
Q 21.484375 6.890625 26.8125 6.890625 
Q 36.078125 6.890625 40.9375 10.546875 
Q 45.796875 14.203125 45.796875 21.1875 
Q 45.796875 27.640625 41.28125 31.265625 
Q 36.765625 34.90625 28.71875 34.90625 
L 20.21875 34.90625 
L 20.21875 43.015625 
L 29.109375 43.015625 
Q 36.375 43.015625 40.234375 45.921875 
Q 44.09375 48.828125 44.09375 54.296875 
Q 44.09375 59.90625 40.109375 62.90625 
Q 36.140625 65.921875 28.71875 65.921875 
Q 24.65625 65.921875 20.015625 65.03125 
Q 15.375 64.15625 9.8125 62.3125 
L 9.8125 71.09375 
Q 15.4375 72.65625 20.34375 73.4375 
Q 25.25 74.21875 29.59375 74.21875 
Q 40.828125 74.21875 47.359375 69.109375 
Q 53.90625 64.015625 53.90625 55.328125 
Q 53.90625 49.265625 50.4375 45.09375 
Q 46.96875 40.921875 40.578125 39.3125 
z
" id="DejaVuSans-51"/>
      <path d="M 37.796875 64.3125 
L 12.890625 25.390625 
L 37.796875 25.390625 
z
M 35.203125 72.90625 
L 47.609375 72.90625 
L 47.609375 25.390625 
L 58.015625 25.390625 
L 58.015625 17.1875 
L 47.609375 17.1875 
L 47.609375 0 
L 37.796875 0 
L 37.796875 17.1875 
L 4.890625 17.1875 
L 4.890625 26.703125 
z
" id="DejaVuSans-52"/>
      <path d="M 11.71875 12.40625 
L 22.015625 12.40625 
L 22.015625 4 
L 14.015625 -11.625 
L 7.71875 -11.625 
L 11.71875 4 
z
" id="DejaVuSans-44"/>
      <path d="M 25.390625 72.90625 
L 33.6875 72.90625 
L 8.296875 -9.28125 
L 0 -9.28125 
z
" id="DejaVuSans-47"/>
     </defs>
     <use xlink:href="#DejaVuSans-111"/>
     <use x="61.181641" xlink:href="#DejaVuSans-112"/>
     <use x="124.658203" xlink:href="#DejaVuSans-101"/>
     <use x="186.181641" xlink:href="#DejaVuSans-110"/>
     <use x="249.560547" xlink:href="#DejaVuSans-116"/>
     <use x="288.769531" xlink:href="#DejaVuSans-104"/>
     <use x="352.148438" xlink:href="#DejaVuSans-114"/>
     <use x="391.011719" xlink:href="#DejaVuSans-101"/>
     <use x="452.535156" xlink:href="#DejaVuSans-97"/>
     <use x="513.814453" xlink:href="#DejaVuSans-100"/>
     <use x="577.291016" xlink:href="#DejaVuSans-45"/>
     <use x="613.375" xlink:href="#DejaVuSans-50"/>
     <use x="676.998047" xlink:href="#DejaVuSans-48"/>
     <use x="740.621094" xlink:href="#DejaVuSans-49"/>
     <use x="804.244141" xlink:href="#DejaVuSans-57"/>
     <use x="867.867188" xlink:href="#DejaVuSans-45"/>
     <use x="903.951172" xlink:href="#DejaVuSans-49"/>
     <use x="967.574219" xlink:href="#DejaVuSans-50"/>
     <use x="1031.197266" xlink:href="#DejaVuSans-45"/>
     <use x="1067.28125" xlink:href="#DejaVuSans-50"/>
     <use x="1130.904297" xlink:href="#DejaVuSans-51"/>
     <use x="1194.527344" xlink:href="#DejaVuSans-32"/>
     <use x="1226.314453" xlink:href="#DejaVuSans-40"/>
     <use x="1265.328125" xlink:href="#DejaVuSans-50"/>
     <use x="1328.951172" xlink:href="#DejaVuSans-52"/>
     <use x="1392.574219" xlink:href="#DejaVuSans-104"/>
     <use x="1455.953125" xlink:href="#DejaVuSans-44"/>
     <use x="1487.740234" xlink:href="#DejaVuSans-32"/>
     <use x="1519.527344" xlink:href="#DejaVuSans-51"/>
     <use x="1583.150391" xlink:href="#DejaVuSans-32"/>
     <use x="1614.9375" xlink:href="#DejaVuSans-116"/>
     <use x="1654.146484" xlink:href="#DejaVuSans-114"/>
     <use x="1695.259766" xlink:href="#DejaVuSans-105"/>
     <use x="1723.042969" xlink:href="#DejaVuSans-97"/>
     <use x="1784.322266" xlink:href="#DejaVuSans-108"/>
     <use x="1812.105469" xlink:href="#DejaVuSans-115"/>
     <use x="1864.205078" xlink:href="#DejaVuSans-47"/>
     <use x="1897.896484" xlink:href="#DejaVuSans-102"/>
     <use x="1933.101562" xlink:href="#DejaVuSans-117"/>
     <use x="1996.480469" xlink:href="#DejaVuSans-122"/>
     <use x="2048.970703" xlink:href="#DejaVuSans-122"/>
     <use x="2101.460938" xlink:href="#DejaVuSans-101"/>
     <use x="2162.984375" xlink:href="#DejaVuSans-114"/>
     <use x="2204.097656" xlink:href="#DejaVuSans-41"/>
    </g>
   </g>
  </g>
 </g>
 <defs>
  <clipPath id="pd58ac7f943">
   <rect height="266.112" width="357.12" x="53.328125" y="22.318125"/>
  </clipPath>
 </defs>
</svg>
