<?xml version="1.0" encoding="utf-8" standalone="no"?>
<!DOCTYPE svg PUBLIC "-//W3C//DTD SVG 1.1//EN"
  "http://www.w3.org/Graphics/SVG/1.1/DTD/svg11.dtd">
<!-- Created with matplotlib (https://matplotlib.org/) -->
<svg height="325.986375pt" version="1.1" viewBox="0 0 931.235312 325.986375" width="931.235312pt" xmlns="http://www.w3.org/2000/svg" xmlns:xlink="http://www.w3.org/1999/xlink">
 <metadata>
  <rdf:RDF xmlns:cc="http://creativecommons.org/ns#" xmlns:dc="http://purl.org/dc/elements/1.1/" xmlns:rdf="http://www.w3.org/1999/02/22-rdf-syntax-ns#">
   <cc:Work>
    <dc:type rdf:resource="http://purl.org/dc/dcmitype/StillImage"/>
    <dc:date>2020-11-23T03:23:38.885381</dc:date>
    <dc:format>image/svg+xml</dc:format>
    <dc:creator>
     <cc:Agent>
      <dc:title>Matplotlib v3.3.2, https://matplotlib.org/</dc:title>
     </cc:Agent>
    </dc:creator>
   </cc:Work>
  </rdf:RDF>
 </metadata>
 <defs>
  <style type="text/css">*{stroke-linecap:butt;stroke-linejoin:round;}</style>
 </defs>
 <g id="figure_1">
  <g id="patch_1">
   <path d="M 0 325.986375 
L 931.235313 325.986375 
L 931.235313 0 
L 0 0 
z
" style="fill:#ffffff;"/>
  </g>
  <g id="axes_1">
   <g id="patch_2">
    <path d="M 53.328125 288.430125 
L 767.568125 288.430125 
L 767.568125 22.318125 
L 53.328125 22.318125 
z
" style="fill:#ffffff;"/>
   </g>
   <g id="PolyCollection_1">
    <defs>
     <path d="M 85.79358 -102.731744 
L 85.79358 -62.922123 
L 92.628412 -111.918579 
L 99.463245 -167.039592 
L 106.298077 -171.12263 
L 113.13291 -174.184908 
L 119.967742 -175.205668 
L 126.802575 -188.475541 
L 133.637407 -191.53782 
L 140.47224 -194.600098 
L 147.307072 -196.641617 
L 154.141905 -196.641617 
L 160.976737 -217.056807 
L 167.81157 -218.077566 
L 174.646403 -218.077566 
L 181.481235 -218.077566 
L 188.316068 -218.077566 
L 195.1509 -218.077566 
L 201.985733 -219.098326 
L 208.820565 -220.119085 
L 215.655398 -220.119085 
L 222.49023 -220.119085 
L 229.325063 -221.139845 
L 236.159895 -222.160604 
L 242.994728 -223.181364 
L 249.82956 -243.596554 
L 256.664393 -246.582275 
L 263.499225 -243.596554 
L 270.334058 -243.596554 
L 277.168891 -243.596554 
L 284.003723 -243.596554 
L 290.838556 -243.596554 
L 297.673388 -244.617313 
L 304.508221 -244.617313 
L 311.343053 -244.617313 
L 318.177886 -244.617313 
L 325.012718 -244.617313 
L 331.847551 -244.617313 
L 338.682383 -247.603035 
L 345.517216 -244.617313 
L 352.352048 -244.617313 
L 359.186881 -244.617313 
L 366.021714 -253.804149 
L 372.856546 -253.804149 
L 379.691379 -253.804149 
L 386.526211 -260.949465 
L 393.361044 -260.949465 
L 400.195876 -260.949465 
L 407.030709 -260.949465 
L 413.865541 -262.990984 
L 420.700374 -262.990984 
L 427.535206 -262.990984 
L 434.370039 -262.990984 
L 441.204871 -262.990984 
L 448.039704 -262.990984 
L 454.874536 -262.990984 
L 461.709369 -262.990984 
L 468.544202 -262.990984 
L 475.379034 -262.990984 
L 482.213867 -262.990984 
L 489.048699 -262.990984 
L 495.883532 -262.990984 
L 502.718364 -262.990984 
L 509.553197 -262.990984 
L 516.388029 -262.990984 
L 523.222862 -262.990984 
L 530.057694 -262.990984 
L 536.892527 -262.990984 
L 543.727359 -262.990984 
L 550.562192 -262.990984 
L 557.397025 -262.990984 
L 564.231857 -262.990984 
L 571.06669 -262.990984 
L 577.901522 -262.990984 
L 584.736355 -262.990984 
L 591.571187 -262.990984 
L 598.40602 -262.990984 
L 605.240852 -262.990984 
L 612.075685 -262.990984 
L 618.910517 -262.990984 
L 625.74535 -262.990984 
L 632.580182 -262.990984 
L 639.415015 -262.990984 
L 646.249847 -262.990984 
L 653.08468 -262.990984 
L 659.919513 -262.990984 
L 666.754345 -262.990984 
L 673.589178 -262.990984 
L 680.42401 -262.990984 
L 687.258843 -262.990984 
L 694.093675 -262.990984 
L 700.928508 -262.990984 
L 707.76334 -265.032503 
L 714.598173 -265.032503 
L 721.433005 -265.032503 
L 728.267838 -265.032503 
L 735.10267 -265.032503 
L 735.10267 -291.57225 
L 735.10267 -291.57225 
L 728.267838 -291.57225 
L 721.433005 -291.57225 
L 714.598173 -291.57225 
L 707.76334 -291.57225 
L 700.928508 -291.57225 
L 694.093675 -291.57225 
L 687.258843 -291.57225 
L 680.42401 -291.57225 
L 673.589178 -291.57225 
L 666.754345 -291.57225 
L 659.919513 -291.57225 
L 653.08468 -291.57225 
L 646.249847 -291.57225 
L 639.415015 -291.57225 
L 632.580182 -291.57225 
L 625.74535 -291.57225 
L 618.910517 -291.57225 
L 612.075685 -291.57225 
L 605.240852 -291.57225 
L 598.40602 -291.57225 
L 591.571187 -291.57225 
L 584.736355 -291.57225 
L 577.901522 -291.57225 
L 571.06669 -291.57225 
L 564.231857 -291.57225 
L 557.397025 -291.57225 
L 550.562192 -291.57225 
L 543.727359 -291.57225 
L 536.892527 -291.57225 
L 530.057694 -291.57225 
L 523.222862 -291.57225 
L 516.388029 -291.57225 
L 509.553197 -291.57225 
L 502.718364 -291.57225 
L 495.883532 -291.57225 
L 489.048699 -291.57225 
L 482.213867 -291.57225 
L 475.379034 -291.57225 
L 468.544202 -291.57225 
L 461.709369 -291.57225 
L 454.874536 -291.57225 
L 448.039704 -291.57225 
L 441.204871 -291.57225 
L 434.370039 -283.610326 
L 427.535206 -291.57225 
L 420.700374 -291.57225 
L 413.865541 -291.57225 
L 407.030709 -291.57225 
L 400.195876 -291.57225 
L 393.361044 -291.57225 
L 386.526211 -291.57225 
L 379.691379 -281.364655 
L 372.856546 -291.57225 
L 366.021714 -291.57225 
L 359.186881 -291.57225 
L 352.352048 -291.57225 
L 345.517216 -291.57225 
L 338.682383 -291.57225 
L 331.847551 -291.57225 
L 325.012718 -291.57225 
L 318.177886 -291.57225 
L 311.343053 -291.57225 
L 304.508221 -289.530731 
L 297.673388 -289.530731 
L 290.838556 -289.530731 
L 284.003723 -289.530731 
L 277.168891 -289.530731 
L 270.334058 -289.530731 
L 263.499225 -289.530731 
L 256.664393 -289.530731 
L 249.82956 -289.530731 
L 242.994728 -289.530731 
L 236.159895 -289.530731 
L 229.325063 -289.530731 
L 222.49023 -289.530731 
L 215.655398 -289.530731 
L 208.820565 -289.530731 
L 201.985733 -284.426934 
L 195.1509 -284.426934 
L 188.316068 -284.426934 
L 181.481235 -278.302377 
L 174.646403 -278.302377 
L 167.81157 -278.302377 
L 160.976737 -278.302377 
L 154.141905 -278.302377 
L 147.307072 -278.302377 
L 140.47224 -277.281617 
L 133.637407 -277.281617 
L 126.802575 -277.281617 
L 119.967742 -237.471997 
L 113.13291 -223.181364 
L 106.298077 -190.857313 
L 99.463245 -186.434022 
L 92.628412 -138.458326 
L 85.79358 -102.731744 
z
" id="m71dcb69142" style="stroke:#98df8a;stroke-opacity:0.2;"/>
    </defs>
    <g clip-path="url(#p676b7cd46c)">
     <use style="fill:#98df8a;fill-opacity:0.2;stroke:#98df8a;stroke-opacity:0.2;" x="0" xlink:href="#m71dcb69142" y="325.986375"/>
    </g>
   </g>
   <g id="PolyCollection_2">
    <defs>
     <path d="M 85.79358 -127.229972 
L 85.79358 -49.65225 
L 92.628412 -130.29225 
L 99.463245 -136.416807 
L 106.298077 -138.458326 
L 113.13291 -174.184908 
L 119.967742 -177.247187 
L 126.802575 -177.247187 
L 133.637407 -177.247187 
L 140.47224 -177.247187 
L 147.307072 -178.267946 
L 154.141905 -178.267946 
L 160.976737 -180.309465 
L 167.81157 -195.620858 
L 174.646403 -195.620858 
L 181.481235 -198.683136 
L 188.316068 -198.683136 
L 195.1509 -198.683136 
L 201.985733 -198.683136 
L 208.820565 -199.703896 
L 215.655398 -200.724655 
L 222.49023 -200.724655 
L 229.325063 -201.745415 
L 236.159895 -201.745415 
L 242.994728 -201.745415 
L 249.82956 -201.745415 
L 256.664393 -201.745415 
L 263.499225 -201.745415 
L 270.334058 -208.890731 
L 277.168891 -208.890731 
L 284.003723 -222.160604 
L 290.838556 -222.160604 
L 297.673388 -222.160604 
L 304.508221 -222.160604 
L 311.343053 -222.160604 
L 318.177886 -230.32668 
L 325.012718 -230.32668 
L 331.847551 -230.32668 
L 338.682383 -230.32668 
L 345.517216 -230.32668 
L 352.352048 -244.617313 
L 359.186881 -244.617313 
L 366.021714 -244.617313 
L 372.856546 -244.617313 
L 379.691379 -244.617313 
L 386.526211 -244.617313 
L 393.361044 -244.617313 
L 400.195876 -244.617313 
L 407.030709 -244.617313 
L 413.865541 -244.617313 
L 420.700374 -244.617313 
L 427.535206 -244.617313 
L 434.370039 -244.617313 
L 441.204871 -244.617313 
L 448.039704 -244.617313 
L 454.874536 -244.617313 
L 461.709369 -244.617313 
L 468.544202 -244.617313 
L 475.379034 -244.617313 
L 482.213867 -244.617313 
L 489.048699 -244.617313 
L 495.883532 -244.617313 
L 502.718364 -244.617313 
L 509.553197 -244.617313 
L 516.388029 -244.617313 
L 523.222862 -244.617313 
L 530.057694 -244.617313 
L 536.892527 -252.783389 
L 543.727359 -252.783389 
L 550.562192 -252.783389 
L 557.397025 -252.783389 
L 564.231857 -252.783389 
L 571.06669 -252.783389 
L 577.901522 -252.783389 
L 584.736355 -252.783389 
L 591.571187 -252.783389 
L 598.40602 -252.783389 
L 605.240852 -252.783389 
L 612.075685 -252.783389 
L 618.910517 -252.783389 
L 625.74535 -252.783389 
L 632.580182 -252.783389 
L 639.415015 -252.783389 
L 646.249847 -252.783389 
L 653.08468 -252.783389 
L 659.919513 -252.783389 
L 666.754345 -252.783389 
L 673.589178 -252.783389 
L 680.42401 -252.783389 
L 687.258843 -252.783389 
L 694.093675 -254.824908 
L 700.928508 -254.824908 
L 707.76334 -254.824908 
L 714.598173 -254.824908 
L 721.433005 -254.824908 
L 728.267838 -254.824908 
L 735.10267 -254.824908 
L 735.10267 -277.281617 
L 735.10267 -277.281617 
L 728.267838 -277.281617 
L 721.433005 -277.281617 
L 714.598173 -277.281617 
L 707.76334 -277.281617 
L 700.928508 -277.281617 
L 694.093675 -277.281617 
L 687.258843 -277.281617 
L 680.42401 -277.281617 
L 673.589178 -277.281617 
L 666.754345 -277.281617 
L 659.919513 -277.281617 
L 653.08468 -277.281617 
L 646.249847 -275.240098 
L 639.415015 -275.240098 
L 632.580182 -275.240098 
L 625.74535 -275.240098 
L 618.910517 -275.240098 
L 612.075685 -275.240098 
L 605.240852 -275.240098 
L 598.40602 -275.240098 
L 591.571187 -275.240098 
L 584.736355 -275.240098 
L 577.901522 -275.240098 
L 571.06669 -275.240098 
L 564.231857 -275.240098 
L 557.397025 -275.240098 
L 550.562192 -275.240098 
L 543.727359 -275.240098 
L 536.892527 -275.240098 
L 530.057694 -275.240098 
L 523.222862 -252.783389 
L 516.388029 -252.783389 
L 509.553197 -252.783389 
L 502.718364 -252.783389 
L 495.883532 -252.783389 
L 489.048699 -252.783389 
L 482.213867 -252.783389 
L 475.379034 -252.783389 
L 468.544202 -252.783389 
L 461.709369 -252.783389 
L 454.874536 -252.783389 
L 448.039704 -252.783389 
L 441.204871 -252.783389 
L 434.370039 -252.783389 
L 427.535206 -252.783389 
L 420.700374 -252.783389 
L 413.865541 -252.783389 
L 407.030709 -252.783389 
L 400.195876 -252.783389 
L 393.361044 -252.783389 
L 386.526211 -252.783389 
L 379.691379 -252.783389 
L 372.856546 -252.783389 
L 366.021714 -252.783389 
L 359.186881 -252.783389 
L 352.352048 -252.783389 
L 345.517216 -244.617313 
L 338.682383 -244.617313 
L 331.847551 -244.617313 
L 325.012718 -241.555035 
L 318.177886 -241.555035 
L 311.343053 -241.555035 
L 304.508221 -241.555035 
L 297.673388 -241.555035 
L 290.838556 -241.555035 
L 284.003723 -241.555035 
L 277.168891 -241.555035 
L 270.334058 -241.555035 
L 263.499225 -241.555035 
L 256.664393 -241.555035 
L 249.82956 -241.555035 
L 242.994728 -241.555035 
L 236.159895 -241.555035 
L 229.325063 -241.555035 
L 222.49023 -241.555035 
L 215.655398 -241.555035 
L 208.820565 -241.555035 
L 201.985733 -241.555035 
L 195.1509 -221.139845 
L 188.316068 -221.139845 
L 181.481235 -221.139845 
L 174.646403 -221.139845 
L 167.81157 -221.139845 
L 160.976737 -206.849212 
L 154.141905 -206.849212 
L 147.307072 -206.849212 
L 140.47224 -199.703896 
L 133.637407 -199.703896 
L 126.802575 -197.662377 
L 119.967742 -197.662377 
L 113.13291 -197.662377 
L 106.298077 -193.579339 
L 99.463245 -175.205668 
L 92.628412 -174.184908 
L 85.79358 -127.229972 
z
" id="m8db654b085" style="stroke:#1f77b4;stroke-opacity:0.2;"/>
    </defs>
    <g clip-path="url(#p676b7cd46c)">
     <use style="fill:#1f77b4;fill-opacity:0.2;stroke:#1f77b4;stroke-opacity:0.2;" x="0" xlink:href="#m8db654b085" y="325.986375"/>
    </g>
   </g>
   <g id="matplotlib.axis_1">
    <g id="xtick_1">
     <g id="line2d_1">
      <defs>
       <path d="M 0 0 
L 0 3.5 
" id="macf45aa7c7" style="stroke:#000000;stroke-width:0.8;"/>
      </defs>
      <g>
       <use style="stroke:#000000;stroke-width:0.8;" x="85.79358" xlink:href="#macf45aa7c7" y="288.430125"/>
      </g>
     </g>
     <g id="text_1">
      <!-- 15m -->
      <g transform="translate(74.560767 303.028562)scale(0.1 -0.1)">
       <defs>
        <path d="M 12.40625 8.296875 
L 28.515625 8.296875 
L 28.515625 63.921875 
L 10.984375 60.40625 
L 10.984375 69.390625 
L 28.421875 72.90625 
L 38.28125 72.90625 
L 38.28125 8.296875 
L 54.390625 8.296875 
L 54.390625 0 
L 12.40625 0 
z
" id="DejaVuSans-49"/>
        <path d="M 10.796875 72.90625 
L 49.515625 72.90625 
L 49.515625 64.59375 
L 19.828125 64.59375 
L 19.828125 46.734375 
Q 21.96875 47.46875 24.109375 47.828125 
Q 26.265625 48.1875 28.421875 48.1875 
Q 40.625 48.1875 47.75 41.5 
Q 54.890625 34.8125 54.890625 23.390625 
Q 54.890625 11.625 47.5625 5.09375 
Q 40.234375 -1.421875 26.90625 -1.421875 
Q 22.3125 -1.421875 17.546875 -0.640625 
Q 12.796875 0.140625 7.71875 1.703125 
L 7.71875 11.625 
Q 12.109375 9.234375 16.796875 8.0625 
Q 21.484375 6.890625 26.703125 6.890625 
Q 35.15625 6.890625 40.078125 11.328125 
Q 45.015625 15.765625 45.015625 23.390625 
Q 45.015625 31 40.078125 35.4375 
Q 35.15625 39.890625 26.703125 39.890625 
Q 22.75 39.890625 18.8125 39.015625 
Q 14.890625 38.140625 10.796875 36.28125 
z
" id="DejaVuSans-53"/>
        <path d="M 52 44.1875 
Q 55.375 50.25 60.0625 53.125 
Q 64.75 56 71.09375 56 
Q 79.640625 56 84.28125 50.015625 
Q 88.921875 44.046875 88.921875 33.015625 
L 88.921875 0 
L 79.890625 0 
L 79.890625 32.71875 
Q 79.890625 40.578125 77.09375 44.375 
Q 74.3125 48.1875 68.609375 48.1875 
Q 61.625 48.1875 57.5625 43.546875 
Q 53.515625 38.921875 53.515625 30.90625 
L 53.515625 0 
L 44.484375 0 
L 44.484375 32.71875 
Q 44.484375 40.625 41.703125 44.40625 
Q 38.921875 48.1875 33.109375 48.1875 
Q 26.21875 48.1875 22.15625 43.53125 
Q 18.109375 38.875 18.109375 30.90625 
L 18.109375 0 
L 9.078125 0 
L 9.078125 54.6875 
L 18.109375 54.6875 
L 18.109375 46.1875 
Q 21.1875 51.21875 25.484375 53.609375 
Q 29.78125 56 35.6875 56 
Q 41.65625 56 45.828125 52.96875 
Q 50 49.953125 52 44.1875 
z
" id="DejaVuSans-109"/>
       </defs>
       <use xlink:href="#DejaVuSans-49"/>
       <use x="63.623047" xlink:href="#DejaVuSans-53"/>
       <use x="127.246094" xlink:href="#DejaVuSans-109"/>
      </g>
     </g>
    </g>
    <g id="xtick_2">
     <g id="line2d_2">
      <g>
       <use style="stroke:#000000;stroke-width:0.8;" x="140.47224" xlink:href="#macf45aa7c7" y="288.430125"/>
      </g>
     </g>
     <g id="text_2">
      <!-- 2h:15m -->
      <g transform="translate(121.205052 303.028562)scale(0.1 -0.1)">
       <defs>
        <path d="M 19.1875 8.296875 
L 53.609375 8.296875 
L 53.609375 0 
L 7.328125 0 
L 7.328125 8.296875 
Q 12.9375 14.109375 22.625 23.890625 
Q 32.328125 33.6875 34.8125 36.53125 
Q 39.546875 41.84375 41.421875 45.53125 
Q 43.3125 49.21875 43.3125 52.78125 
Q 43.3125 58.59375 39.234375 62.25 
Q 35.15625 65.921875 28.609375 65.921875 
Q 23.96875 65.921875 18.8125 64.3125 
Q 13.671875 62.703125 7.8125 59.421875 
L 7.8125 69.390625 
Q 13.765625 71.78125 18.9375 73 
Q 24.125 74.21875 28.421875 74.21875 
Q 39.75 74.21875 46.484375 68.546875 
Q 53.21875 62.890625 53.21875 53.421875 
Q 53.21875 48.921875 51.53125 44.890625 
Q 49.859375 40.875 45.40625 35.40625 
Q 44.1875 33.984375 37.640625 27.21875 
Q 31.109375 20.453125 19.1875 8.296875 
z
" id="DejaVuSans-50"/>
        <path d="M 54.890625 33.015625 
L 54.890625 0 
L 45.90625 0 
L 45.90625 32.71875 
Q 45.90625 40.484375 42.875 44.328125 
Q 39.84375 48.1875 33.796875 48.1875 
Q 26.515625 48.1875 22.3125 43.546875 
Q 18.109375 38.921875 18.109375 30.90625 
L 18.109375 0 
L 9.078125 0 
L 9.078125 75.984375 
L 18.109375 75.984375 
L 18.109375 46.1875 
Q 21.34375 51.125 25.703125 53.5625 
Q 30.078125 56 35.796875 56 
Q 45.21875 56 50.046875 50.171875 
Q 54.890625 44.34375 54.890625 33.015625 
z
" id="DejaVuSans-104"/>
        <path d="M 11.71875 12.40625 
L 22.015625 12.40625 
L 22.015625 0 
L 11.71875 0 
z
M 11.71875 51.703125 
L 22.015625 51.703125 
L 22.015625 39.3125 
L 11.71875 39.3125 
z
" id="DejaVuSans-58"/>
       </defs>
       <use xlink:href="#DejaVuSans-50"/>
       <use x="63.623047" xlink:href="#DejaVuSans-104"/>
       <use x="127.001953" xlink:href="#DejaVuSans-58"/>
       <use x="160.693359" xlink:href="#DejaVuSans-49"/>
       <use x="224.316406" xlink:href="#DejaVuSans-53"/>
       <use x="287.939453" xlink:href="#DejaVuSans-109"/>
      </g>
     </g>
    </g>
    <g id="xtick_3">
     <g id="line2d_3">
      <g>
       <use style="stroke:#000000;stroke-width:0.8;" x="195.1509" xlink:href="#macf45aa7c7" y="288.430125"/>
      </g>
     </g>
     <g id="text_3">
      <!-- 4h:15m -->
      <g transform="translate(175.883713 303.028562)scale(0.1 -0.1)">
       <defs>
        <path d="M 37.796875 64.3125 
L 12.890625 25.390625 
L 37.796875 25.390625 
z
M 35.203125 72.90625 
L 47.609375 72.90625 
L 47.609375 25.390625 
L 58.015625 25.390625 
L 58.015625 17.1875 
L 47.609375 17.1875 
L 47.609375 0 
L 37.796875 0 
L 37.796875 17.1875 
L 4.890625 17.1875 
L 4.890625 26.703125 
z
" id="DejaVuSans-52"/>
       </defs>
       <use xlink:href="#DejaVuSans-52"/>
       <use x="63.623047" xlink:href="#DejaVuSans-104"/>
       <use x="127.001953" xlink:href="#DejaVuSans-58"/>
       <use x="160.693359" xlink:href="#DejaVuSans-49"/>
       <use x="224.316406" xlink:href="#DejaVuSans-53"/>
       <use x="287.939453" xlink:href="#DejaVuSans-109"/>
      </g>
     </g>
    </g>
    <g id="xtick_4">
     <g id="line2d_4">
      <g>
       <use style="stroke:#000000;stroke-width:0.8;" x="249.82956" xlink:href="#macf45aa7c7" y="288.430125"/>
      </g>
     </g>
     <g id="text_4">
      <!-- 6h:15m -->
      <g transform="translate(230.562373 303.028562)scale(0.1 -0.1)">
       <defs>
        <path d="M 33.015625 40.375 
Q 26.375 40.375 22.484375 35.828125 
Q 18.609375 31.296875 18.609375 23.390625 
Q 18.609375 15.53125 22.484375 10.953125 
Q 26.375 6.390625 33.015625 6.390625 
Q 39.65625 6.390625 43.53125 10.953125 
Q 47.40625 15.53125 47.40625 23.390625 
Q 47.40625 31.296875 43.53125 35.828125 
Q 39.65625 40.375 33.015625 40.375 
z
M 52.59375 71.296875 
L 52.59375 62.3125 
Q 48.875 64.0625 45.09375 64.984375 
Q 41.3125 65.921875 37.59375 65.921875 
Q 27.828125 65.921875 22.671875 59.328125 
Q 17.53125 52.734375 16.796875 39.40625 
Q 19.671875 43.65625 24.015625 45.921875 
Q 28.375 48.1875 33.59375 48.1875 
Q 44.578125 48.1875 50.953125 41.515625 
Q 57.328125 34.859375 57.328125 23.390625 
Q 57.328125 12.15625 50.6875 5.359375 
Q 44.046875 -1.421875 33.015625 -1.421875 
Q 20.359375 -1.421875 13.671875 8.265625 
Q 6.984375 17.96875 6.984375 36.375 
Q 6.984375 53.65625 15.1875 63.9375 
Q 23.390625 74.21875 37.203125 74.21875 
Q 40.921875 74.21875 44.703125 73.484375 
Q 48.484375 72.75 52.59375 71.296875 
z
" id="DejaVuSans-54"/>
       </defs>
       <use xlink:href="#DejaVuSans-54"/>
       <use x="63.623047" xlink:href="#DejaVuSans-104"/>
       <use x="127.001953" xlink:href="#DejaVuSans-58"/>
       <use x="160.693359" xlink:href="#DejaVuSans-49"/>
       <use x="224.316406" xlink:href="#DejaVuSans-53"/>
       <use x="287.939453" xlink:href="#DejaVuSans-109"/>
      </g>
     </g>
    </g>
    <g id="xtick_5">
     <g id="line2d_5">
      <g>
       <use style="stroke:#000000;stroke-width:0.8;" x="304.508221" xlink:href="#macf45aa7c7" y="288.430125"/>
      </g>
     </g>
     <g id="text_5">
      <!-- 8h:15m -->
      <g transform="translate(285.241033 303.028562)scale(0.1 -0.1)">
       <defs>
        <path d="M 31.78125 34.625 
Q 24.75 34.625 20.71875 30.859375 
Q 16.703125 27.09375 16.703125 20.515625 
Q 16.703125 13.921875 20.71875 10.15625 
Q 24.75 6.390625 31.78125 6.390625 
Q 38.8125 6.390625 42.859375 10.171875 
Q 46.921875 13.96875 46.921875 20.515625 
Q 46.921875 27.09375 42.890625 30.859375 
Q 38.875 34.625 31.78125 34.625 
z
M 21.921875 38.8125 
Q 15.578125 40.375 12.03125 44.71875 
Q 8.5 49.078125 8.5 55.328125 
Q 8.5 64.0625 14.71875 69.140625 
Q 20.953125 74.21875 31.78125 74.21875 
Q 42.671875 74.21875 48.875 69.140625 
Q 55.078125 64.0625 55.078125 55.328125 
Q 55.078125 49.078125 51.53125 44.71875 
Q 48 40.375 41.703125 38.8125 
Q 48.828125 37.15625 52.796875 32.3125 
Q 56.78125 27.484375 56.78125 20.515625 
Q 56.78125 9.90625 50.3125 4.234375 
Q 43.84375 -1.421875 31.78125 -1.421875 
Q 19.734375 -1.421875 13.25 4.234375 
Q 6.78125 9.90625 6.78125 20.515625 
Q 6.78125 27.484375 10.78125 32.3125 
Q 14.796875 37.15625 21.921875 38.8125 
z
M 18.3125 54.390625 
Q 18.3125 48.734375 21.84375 45.5625 
Q 25.390625 42.390625 31.78125 42.390625 
Q 38.140625 42.390625 41.71875 45.5625 
Q 45.3125 48.734375 45.3125 54.390625 
Q 45.3125 60.0625 41.71875 63.234375 
Q 38.140625 66.40625 31.78125 66.40625 
Q 25.390625 66.40625 21.84375 63.234375 
Q 18.3125 60.0625 18.3125 54.390625 
z
" id="DejaVuSans-56"/>
       </defs>
       <use xlink:href="#DejaVuSans-56"/>
       <use x="63.623047" xlink:href="#DejaVuSans-104"/>
       <use x="127.001953" xlink:href="#DejaVuSans-58"/>
       <use x="160.693359" xlink:href="#DejaVuSans-49"/>
       <use x="224.316406" xlink:href="#DejaVuSans-53"/>
       <use x="287.939453" xlink:href="#DejaVuSans-109"/>
      </g>
     </g>
    </g>
    <g id="xtick_6">
     <g id="line2d_6">
      <g>
       <use style="stroke:#000000;stroke-width:0.8;" x="359.186881" xlink:href="#macf45aa7c7" y="288.430125"/>
      </g>
     </g>
     <g id="text_6">
      <!-- 10h:15m -->
      <g transform="translate(336.738443 303.028562)scale(0.1 -0.1)">
       <defs>
        <path d="M 31.78125 66.40625 
Q 24.171875 66.40625 20.328125 58.90625 
Q 16.5 51.421875 16.5 36.375 
Q 16.5 21.390625 20.328125 13.890625 
Q 24.171875 6.390625 31.78125 6.390625 
Q 39.453125 6.390625 43.28125 13.890625 
Q 47.125 21.390625 47.125 36.375 
Q 47.125 51.421875 43.28125 58.90625 
Q 39.453125 66.40625 31.78125 66.40625 
z
M 31.78125 74.21875 
Q 44.046875 74.21875 50.515625 64.515625 
Q 56.984375 54.828125 56.984375 36.375 
Q 56.984375 17.96875 50.515625 8.265625 
Q 44.046875 -1.421875 31.78125 -1.421875 
Q 19.53125 -1.421875 13.0625 8.265625 
Q 6.59375 17.96875 6.59375 36.375 
Q 6.59375 54.828125 13.0625 64.515625 
Q 19.53125 74.21875 31.78125 74.21875 
z
" id="DejaVuSans-48"/>
       </defs>
       <use xlink:href="#DejaVuSans-49"/>
       <use x="63.623047" xlink:href="#DejaVuSans-48"/>
       <use x="127.246094" xlink:href="#DejaVuSans-104"/>
       <use x="190.625" xlink:href="#DejaVuSans-58"/>
       <use x="224.316406" xlink:href="#DejaVuSans-49"/>
       <use x="287.939453" xlink:href="#DejaVuSans-53"/>
       <use x="351.5625" xlink:href="#DejaVuSans-109"/>
      </g>
     </g>
    </g>
    <g id="xtick_7">
     <g id="line2d_7">
      <g>
       <use style="stroke:#000000;stroke-width:0.8;" x="413.865541" xlink:href="#macf45aa7c7" y="288.430125"/>
      </g>
     </g>
     <g id="text_7">
      <!-- 12h:15m -->
      <g transform="translate(391.417104 303.028562)scale(0.1 -0.1)">
       <use xlink:href="#DejaVuSans-49"/>
       <use x="63.623047" xlink:href="#DejaVuSans-50"/>
       <use x="127.246094" xlink:href="#DejaVuSans-104"/>
       <use x="190.625" xlink:href="#DejaVuSans-58"/>
       <use x="224.316406" xlink:href="#DejaVuSans-49"/>
       <use x="287.939453" xlink:href="#DejaVuSans-53"/>
       <use x="351.5625" xlink:href="#DejaVuSans-109"/>
      </g>
     </g>
    </g>
    <g id="xtick_8">
     <g id="line2d_8">
      <g>
       <use style="stroke:#000000;stroke-width:0.8;" x="468.544202" xlink:href="#macf45aa7c7" y="288.430125"/>
      </g>
     </g>
     <g id="text_8">
      <!-- 14h:15m -->
      <g transform="translate(446.095764 303.028562)scale(0.1 -0.1)">
       <use xlink:href="#DejaVuSans-49"/>
       <use x="63.623047" xlink:href="#DejaVuSans-52"/>
       <use x="127.246094" xlink:href="#DejaVuSans-104"/>
       <use x="190.625" xlink:href="#DejaVuSans-58"/>
       <use x="224.316406" xlink:href="#DejaVuSans-49"/>
       <use x="287.939453" xlink:href="#DejaVuSans-53"/>
       <use x="351.5625" xlink:href="#DejaVuSans-109"/>
      </g>
     </g>
    </g>
    <g id="xtick_9">
     <g id="line2d_9">
      <g>
       <use style="stroke:#000000;stroke-width:0.8;" x="523.222862" xlink:href="#macf45aa7c7" y="288.430125"/>
      </g>
     </g>
     <g id="text_9">
      <!-- 16h:15m -->
      <g transform="translate(500.774424 303.028562)scale(0.1 -0.1)">
       <use xlink:href="#DejaVuSans-49"/>
       <use x="63.623047" xlink:href="#DejaVuSans-54"/>
       <use x="127.246094" xlink:href="#DejaVuSans-104"/>
       <use x="190.625" xlink:href="#DejaVuSans-58"/>
       <use x="224.316406" xlink:href="#DejaVuSans-49"/>
       <use x="287.939453" xlink:href="#DejaVuSans-53"/>
       <use x="351.5625" xlink:href="#DejaVuSans-109"/>
      </g>
     </g>
    </g>
    <g id="xtick_10">
     <g id="line2d_10">
      <g>
       <use style="stroke:#000000;stroke-width:0.8;" x="577.901522" xlink:href="#macf45aa7c7" y="288.430125"/>
      </g>
     </g>
     <g id="text_10">
      <!-- 18h:15m -->
      <g transform="translate(555.453085 303.028562)scale(0.1 -0.1)">
       <use xlink:href="#DejaVuSans-49"/>
       <use x="63.623047" xlink:href="#DejaVuSans-56"/>
       <use x="127.246094" xlink:href="#DejaVuSans-104"/>
       <use x="190.625" xlink:href="#DejaVuSans-58"/>
       <use x="224.316406" xlink:href="#DejaVuSans-49"/>
       <use x="287.939453" xlink:href="#DejaVuSans-53"/>
       <use x="351.5625" xlink:href="#DejaVuSans-109"/>
      </g>
     </g>
    </g>
    <g id="xtick_11">
     <g id="line2d_11">
      <g>
       <use style="stroke:#000000;stroke-width:0.8;" x="632.580182" xlink:href="#macf45aa7c7" y="288.430125"/>
      </g>
     </g>
     <g id="text_11">
      <!-- 20h:15m -->
      <g transform="translate(610.131745 303.028562)scale(0.1 -0.1)">
       <use xlink:href="#DejaVuSans-50"/>
       <use x="63.623047" xlink:href="#DejaVuSans-48"/>
       <use x="127.246094" xlink:href="#DejaVuSans-104"/>
       <use x="190.625" xlink:href="#DejaVuSans-58"/>
       <use x="224.316406" xlink:href="#DejaVuSans-49"/>
       <use x="287.939453" xlink:href="#DejaVuSans-53"/>
       <use x="351.5625" xlink:href="#DejaVuSans-109"/>
      </g>
     </g>
    </g>
    <g id="xtick_12">
     <g id="line2d_12">
      <g>
       <use style="stroke:#000000;stroke-width:0.8;" x="687.258843" xlink:href="#macf45aa7c7" y="288.430125"/>
      </g>
     </g>
     <g id="text_12">
      <!-- 22h:15m -->
      <g transform="translate(664.810405 303.028562)scale(0.1 -0.1)">
       <use xlink:href="#DejaVuSans-50"/>
       <use x="63.623047" xlink:href="#DejaVuSans-50"/>
       <use x="127.246094" xlink:href="#DejaVuSans-104"/>
       <use x="190.625" xlink:href="#DejaVuSans-58"/>
       <use x="224.316406" xlink:href="#DejaVuSans-49"/>
       <use x="287.939453" xlink:href="#DejaVuSans-53"/>
       <use x="351.5625" xlink:href="#DejaVuSans-109"/>
      </g>
     </g>
    </g>
    <g id="text_13">
     <!-- Time (hour:minute) -->
     <g transform="translate(362.041094 316.706687)scale(0.1 -0.1)">
      <defs>
       <path d="M -0.296875 72.90625 
L 61.375 72.90625 
L 61.375 64.59375 
L 35.5 64.59375 
L 35.5 0 
L 25.59375 0 
L 25.59375 64.59375 
L -0.296875 64.59375 
z
" id="DejaVuSans-84"/>
       <path d="M 9.421875 54.6875 
L 18.40625 54.6875 
L 18.40625 0 
L 9.421875 0 
z
M 9.421875 75.984375 
L 18.40625 75.984375 
L 18.40625 64.59375 
L 9.421875 64.59375 
z
" id="DejaVuSans-105"/>
       <path d="M 56.203125 29.59375 
L 56.203125 25.203125 
L 14.890625 25.203125 
Q 15.484375 15.921875 20.484375 11.0625 
Q 25.484375 6.203125 34.421875 6.203125 
Q 39.59375 6.203125 44.453125 7.46875 
Q 49.3125 8.734375 54.109375 11.28125 
L 54.109375 2.78125 
Q 49.265625 0.734375 44.1875 -0.34375 
Q 39.109375 -1.421875 33.890625 -1.421875 
Q 20.796875 -1.421875 13.15625 6.1875 
Q 5.515625 13.8125 5.515625 26.8125 
Q 5.515625 40.234375 12.765625 48.109375 
Q 20.015625 56 32.328125 56 
Q 43.359375 56 49.78125 48.890625 
Q 56.203125 41.796875 56.203125 29.59375 
z
M 47.21875 32.234375 
Q 47.125 39.59375 43.09375 43.984375 
Q 39.0625 48.390625 32.421875 48.390625 
Q 24.90625 48.390625 20.390625 44.140625 
Q 15.875 39.890625 15.1875 32.171875 
z
" id="DejaVuSans-101"/>
       <path id="DejaVuSans-32"/>
       <path d="M 31 75.875 
Q 24.46875 64.65625 21.28125 53.65625 
Q 18.109375 42.671875 18.109375 31.390625 
Q 18.109375 20.125 21.3125 9.0625 
Q 24.515625 -2 31 -13.1875 
L 23.1875 -13.1875 
Q 15.875 -1.703125 12.234375 9.375 
Q 8.59375 20.453125 8.59375 31.390625 
Q 8.59375 42.28125 12.203125 53.3125 
Q 15.828125 64.359375 23.1875 75.875 
z
" id="DejaVuSans-40"/>
       <path d="M 30.609375 48.390625 
Q 23.390625 48.390625 19.1875 42.75 
Q 14.984375 37.109375 14.984375 27.296875 
Q 14.984375 17.484375 19.15625 11.84375 
Q 23.34375 6.203125 30.609375 6.203125 
Q 37.796875 6.203125 41.984375 11.859375 
Q 46.1875 17.53125 46.1875 27.296875 
Q 46.1875 37.015625 41.984375 42.703125 
Q 37.796875 48.390625 30.609375 48.390625 
z
M 30.609375 56 
Q 42.328125 56 49.015625 48.375 
Q 55.71875 40.765625 55.71875 27.296875 
Q 55.71875 13.875 49.015625 6.21875 
Q 42.328125 -1.421875 30.609375 -1.421875 
Q 18.84375 -1.421875 12.171875 6.21875 
Q 5.515625 13.875 5.515625 27.296875 
Q 5.515625 40.765625 12.171875 48.375 
Q 18.84375 56 30.609375 56 
z
" id="DejaVuSans-111"/>
       <path d="M 8.5 21.578125 
L 8.5 54.6875 
L 17.484375 54.6875 
L 17.484375 21.921875 
Q 17.484375 14.15625 20.5 10.265625 
Q 23.53125 6.390625 29.59375 6.390625 
Q 36.859375 6.390625 41.078125 11.03125 
Q 45.3125 15.671875 45.3125 23.6875 
L 45.3125 54.6875 
L 54.296875 54.6875 
L 54.296875 0 
L 45.3125 0 
L 45.3125 8.40625 
Q 42.046875 3.421875 37.71875 1 
Q 33.40625 -1.421875 27.6875 -1.421875 
Q 18.265625 -1.421875 13.375 4.4375 
Q 8.5 10.296875 8.5 21.578125 
z
M 31.109375 56 
z
" id="DejaVuSans-117"/>
       <path d="M 41.109375 46.296875 
Q 39.59375 47.171875 37.8125 47.578125 
Q 36.03125 48 33.890625 48 
Q 26.265625 48 22.1875 43.046875 
Q 18.109375 38.09375 18.109375 28.8125 
L 18.109375 0 
L 9.078125 0 
L 9.078125 54.6875 
L 18.109375 54.6875 
L 18.109375 46.1875 
Q 20.953125 51.171875 25.484375 53.578125 
Q 30.03125 56 36.53125 56 
Q 37.453125 56 38.578125 55.875 
Q 39.703125 55.765625 41.0625 55.515625 
z
" id="DejaVuSans-114"/>
       <path d="M 54.890625 33.015625 
L 54.890625 0 
L 45.90625 0 
L 45.90625 32.71875 
Q 45.90625 40.484375 42.875 44.328125 
Q 39.84375 48.1875 33.796875 48.1875 
Q 26.515625 48.1875 22.3125 43.546875 
Q 18.109375 38.921875 18.109375 30.90625 
L 18.109375 0 
L 9.078125 0 
L 9.078125 54.6875 
L 18.109375 54.6875 
L 18.109375 46.1875 
Q 21.34375 51.125 25.703125 53.5625 
Q 30.078125 56 35.796875 56 
Q 45.21875 56 50.046875 50.171875 
Q 54.890625 44.34375 54.890625 33.015625 
z
" id="DejaVuSans-110"/>
       <path d="M 18.3125 70.21875 
L 18.3125 54.6875 
L 36.8125 54.6875 
L 36.8125 47.703125 
L 18.3125 47.703125 
L 18.3125 18.015625 
Q 18.3125 11.328125 20.140625 9.421875 
Q 21.96875 7.515625 27.59375 7.515625 
L 36.8125 7.515625 
L 36.8125 0 
L 27.59375 0 
Q 17.1875 0 13.234375 3.875 
Q 9.28125 7.765625 9.28125 18.015625 
L 9.28125 47.703125 
L 2.6875 47.703125 
L 2.6875 54.6875 
L 9.28125 54.6875 
L 9.28125 70.21875 
z
" id="DejaVuSans-116"/>
       <path d="M 8.015625 75.875 
L 15.828125 75.875 
Q 23.140625 64.359375 26.78125 53.3125 
Q 30.421875 42.28125 30.421875 31.390625 
Q 30.421875 20.453125 26.78125 9.375 
Q 23.140625 -1.703125 15.828125 -13.1875 
L 8.015625 -13.1875 
Q 14.5 -2 17.703125 9.0625 
Q 20.90625 20.125 20.90625 31.390625 
Q 20.90625 42.671875 17.703125 53.65625 
Q 14.5 64.65625 8.015625 75.875 
z
" id="DejaVuSans-41"/>
      </defs>
      <use xlink:href="#DejaVuSans-84"/>
      <use x="57.958984" xlink:href="#DejaVuSans-105"/>
      <use x="85.742188" xlink:href="#DejaVuSans-109"/>
      <use x="183.154297" xlink:href="#DejaVuSans-101"/>
      <use x="244.677734" xlink:href="#DejaVuSans-32"/>
      <use x="276.464844" xlink:href="#DejaVuSans-40"/>
      <use x="315.478516" xlink:href="#DejaVuSans-104"/>
      <use x="378.857422" xlink:href="#DejaVuSans-111"/>
      <use x="440.039062" xlink:href="#DejaVuSans-117"/>
      <use x="503.417969" xlink:href="#DejaVuSans-114"/>
      <use x="542.78125" xlink:href="#DejaVuSans-58"/>
      <use x="576.472656" xlink:href="#DejaVuSans-109"/>
      <use x="673.884766" xlink:href="#DejaVuSans-105"/>
      <use x="701.667969" xlink:href="#DejaVuSans-110"/>
      <use x="765.046875" xlink:href="#DejaVuSans-117"/>
      <use x="828.425781" xlink:href="#DejaVuSans-116"/>
      <use x="867.634766" xlink:href="#DejaVuSans-101"/>
      <use x="929.158203" xlink:href="#DejaVuSans-41"/>
     </g>
    </g>
   </g>
   <g id="matplotlib.axis_2">
    <g id="ytick_1">
     <g id="line2d_13">
      <defs>
       <path d="M 0 0 
L -3.5 0 
" id="m3072e36203" style="stroke:#000000;stroke-width:0.8;"/>
      </defs>
      <g>
       <use style="stroke:#000000;stroke-width:0.8;" x="53.328125" xlink:href="#m3072e36203" y="240.607543"/>
      </g>
     </g>
     <g id="text_14">
      <!-- 5000 -->
      <g transform="translate(20.878125 244.406761)scale(0.1 -0.1)">
       <use xlink:href="#DejaVuSans-53"/>
       <use x="63.623047" xlink:href="#DejaVuSans-48"/>
       <use x="127.246094" xlink:href="#DejaVuSans-48"/>
       <use x="190.869141" xlink:href="#DejaVuSans-48"/>
      </g>
     </g>
    </g>
    <g id="ytick_2">
     <g id="line2d_14">
      <g>
       <use style="stroke:#000000;stroke-width:0.8;" x="53.328125" xlink:href="#m3072e36203" y="189.569568"/>
      </g>
     </g>
     <g id="text_15">
      <!-- 5050 -->
      <g transform="translate(20.878125 193.368787)scale(0.1 -0.1)">
       <use xlink:href="#DejaVuSans-53"/>
       <use x="63.623047" xlink:href="#DejaVuSans-48"/>
       <use x="127.246094" xlink:href="#DejaVuSans-53"/>
       <use x="190.869141" xlink:href="#DejaVuSans-48"/>
      </g>
     </g>
    </g>
    <g id="ytick_3">
     <g id="line2d_15">
      <g>
       <use style="stroke:#000000;stroke-width:0.8;" x="53.328125" xlink:href="#m3072e36203" y="138.531593"/>
      </g>
     </g>
     <g id="text_16">
      <!-- 5100 -->
      <g transform="translate(20.878125 142.330812)scale(0.1 -0.1)">
       <use xlink:href="#DejaVuSans-53"/>
       <use x="63.623047" xlink:href="#DejaVuSans-49"/>
       <use x="127.246094" xlink:href="#DejaVuSans-48"/>
       <use x="190.869141" xlink:href="#DejaVuSans-48"/>
      </g>
     </g>
    </g>
    <g id="ytick_4">
     <g id="line2d_16">
      <g>
       <use style="stroke:#000000;stroke-width:0.8;" x="53.328125" xlink:href="#m3072e36203" y="87.493619"/>
      </g>
     </g>
     <g id="text_17">
      <!-- 5150 -->
      <g transform="translate(20.878125 91.292837)scale(0.1 -0.1)">
       <use xlink:href="#DejaVuSans-53"/>
       <use x="63.623047" xlink:href="#DejaVuSans-49"/>
       <use x="127.246094" xlink:href="#DejaVuSans-53"/>
       <use x="190.869141" xlink:href="#DejaVuSans-48"/>
      </g>
     </g>
    </g>
    <g id="ytick_5">
     <g id="line2d_17">
      <g>
       <use style="stroke:#000000;stroke-width:0.8;" x="53.328125" xlink:href="#m3072e36203" y="36.455644"/>
      </g>
     </g>
     <g id="text_18">
      <!-- 5200 -->
      <g transform="translate(20.878125 40.254863)scale(0.1 -0.1)">
       <use xlink:href="#DejaVuSans-53"/>
       <use x="63.623047" xlink:href="#DejaVuSans-50"/>
       <use x="127.246094" xlink:href="#DejaVuSans-48"/>
       <use x="190.869141" xlink:href="#DejaVuSans-48"/>
      </g>
     </g>
    </g>
    <g id="text_19">
     <!-- Edge coverage -->
     <g transform="translate(14.798438 192.762406)rotate(-90)scale(0.1 -0.1)">
      <defs>
       <path d="M 9.8125 72.90625 
L 55.90625 72.90625 
L 55.90625 64.59375 
L 19.671875 64.59375 
L 19.671875 43.015625 
L 54.390625 43.015625 
L 54.390625 34.71875 
L 19.671875 34.71875 
L 19.671875 8.296875 
L 56.78125 8.296875 
L 56.78125 0 
L 9.8125 0 
z
" id="DejaVuSans-69"/>
       <path d="M 45.40625 46.390625 
L 45.40625 75.984375 
L 54.390625 75.984375 
L 54.390625 0 
L 45.40625 0 
L 45.40625 8.203125 
Q 42.578125 3.328125 38.25 0.953125 
Q 33.9375 -1.421875 27.875 -1.421875 
Q 17.96875 -1.421875 11.734375 6.484375 
Q 5.515625 14.40625 5.515625 27.296875 
Q 5.515625 40.1875 11.734375 48.09375 
Q 17.96875 56 27.875 56 
Q 33.9375 56 38.25 53.625 
Q 42.578125 51.265625 45.40625 46.390625 
z
M 14.796875 27.296875 
Q 14.796875 17.390625 18.875 11.75 
Q 22.953125 6.109375 30.078125 6.109375 
Q 37.203125 6.109375 41.296875 11.75 
Q 45.40625 17.390625 45.40625 27.296875 
Q 45.40625 37.203125 41.296875 42.84375 
Q 37.203125 48.484375 30.078125 48.484375 
Q 22.953125 48.484375 18.875 42.84375 
Q 14.796875 37.203125 14.796875 27.296875 
z
" id="DejaVuSans-100"/>
       <path d="M 45.40625 27.984375 
Q 45.40625 37.75 41.375 43.109375 
Q 37.359375 48.484375 30.078125 48.484375 
Q 22.859375 48.484375 18.828125 43.109375 
Q 14.796875 37.75 14.796875 27.984375 
Q 14.796875 18.265625 18.828125 12.890625 
Q 22.859375 7.515625 30.078125 7.515625 
Q 37.359375 7.515625 41.375 12.890625 
Q 45.40625 18.265625 45.40625 27.984375 
z
M 54.390625 6.78125 
Q 54.390625 -7.171875 48.1875 -13.984375 
Q 42 -20.796875 29.203125 -20.796875 
Q 24.46875 -20.796875 20.265625 -20.09375 
Q 16.0625 -19.390625 12.109375 -17.921875 
L 12.109375 -9.1875 
Q 16.0625 -11.328125 19.921875 -12.34375 
Q 23.78125 -13.375 27.78125 -13.375 
Q 36.625 -13.375 41.015625 -8.765625 
Q 45.40625 -4.15625 45.40625 5.171875 
L 45.40625 9.625 
Q 42.625 4.78125 38.28125 2.390625 
Q 33.9375 0 27.875 0 
Q 17.828125 0 11.671875 7.65625 
Q 5.515625 15.328125 5.515625 27.984375 
Q 5.515625 40.671875 11.671875 48.328125 
Q 17.828125 56 27.875 56 
Q 33.9375 56 38.28125 53.609375 
Q 42.625 51.21875 45.40625 46.390625 
L 45.40625 54.6875 
L 54.390625 54.6875 
z
" id="DejaVuSans-103"/>
       <path d="M 48.78125 52.59375 
L 48.78125 44.1875 
Q 44.96875 46.296875 41.140625 47.34375 
Q 37.3125 48.390625 33.40625 48.390625 
Q 24.65625 48.390625 19.8125 42.84375 
Q 14.984375 37.3125 14.984375 27.296875 
Q 14.984375 17.28125 19.8125 11.734375 
Q 24.65625 6.203125 33.40625 6.203125 
Q 37.3125 6.203125 41.140625 7.25 
Q 44.96875 8.296875 48.78125 10.40625 
L 48.78125 2.09375 
Q 45.015625 0.34375 40.984375 -0.53125 
Q 36.96875 -1.421875 32.421875 -1.421875 
Q 20.0625 -1.421875 12.78125 6.34375 
Q 5.515625 14.109375 5.515625 27.296875 
Q 5.515625 40.671875 12.859375 48.328125 
Q 20.21875 56 33.015625 56 
Q 37.15625 56 41.109375 55.140625 
Q 45.0625 54.296875 48.78125 52.59375 
z
" id="DejaVuSans-99"/>
       <path d="M 2.984375 54.6875 
L 12.5 54.6875 
L 29.59375 8.796875 
L 46.6875 54.6875 
L 56.203125 54.6875 
L 35.6875 0 
L 23.484375 0 
z
" id="DejaVuSans-118"/>
       <path d="M 34.28125 27.484375 
Q 23.390625 27.484375 19.1875 25 
Q 14.984375 22.515625 14.984375 16.5 
Q 14.984375 11.71875 18.140625 8.90625 
Q 21.296875 6.109375 26.703125 6.109375 
Q 34.1875 6.109375 38.703125 11.40625 
Q 43.21875 16.703125 43.21875 25.484375 
L 43.21875 27.484375 
z
M 52.203125 31.203125 
L 52.203125 0 
L 43.21875 0 
L 43.21875 8.296875 
Q 40.140625 3.328125 35.546875 0.953125 
Q 30.953125 -1.421875 24.3125 -1.421875 
Q 15.921875 -1.421875 10.953125 3.296875 
Q 6 8.015625 6 15.921875 
Q 6 25.140625 12.171875 29.828125 
Q 18.359375 34.515625 30.609375 34.515625 
L 43.21875 34.515625 
L 43.21875 35.40625 
Q 43.21875 41.609375 39.140625 45 
Q 35.0625 48.390625 27.6875 48.390625 
Q 23 48.390625 18.546875 47.265625 
Q 14.109375 46.140625 10.015625 43.890625 
L 10.015625 52.203125 
Q 14.9375 54.109375 19.578125 55.046875 
Q 24.21875 56 28.609375 56 
Q 40.484375 56 46.34375 49.84375 
Q 52.203125 43.703125 52.203125 31.203125 
z
" id="DejaVuSans-97"/>
      </defs>
      <use xlink:href="#DejaVuSans-69"/>
      <use x="63.183594" xlink:href="#DejaVuSans-100"/>
      <use x="126.660156" xlink:href="#DejaVuSans-103"/>
      <use x="190.136719" xlink:href="#DejaVuSans-101"/>
      <use x="251.660156" xlink:href="#DejaVuSans-32"/>
      <use x="283.447266" xlink:href="#DejaVuSans-99"/>
      <use x="338.427734" xlink:href="#DejaVuSans-111"/>
      <use x="399.609375" xlink:href="#DejaVuSans-118"/>
      <use x="458.789062" xlink:href="#DejaVuSans-101"/>
      <use x="520.3125" xlink:href="#DejaVuSans-114"/>
      <use x="561.425781" xlink:href="#DejaVuSans-97"/>
      <use x="622.705078" xlink:href="#DejaVuSans-103"/>
      <use x="686.181641" xlink:href="#DejaVuSans-101"/>
     </g>
    </g>
   </g>
   <g id="line2d_18">
    <path clip-path="url(#p676b7cd46c)" d="M 85.79358 236.864758 
L 92.628412 196.714884 
L 99.463245 147.378176 
L 106.298077 141.934125 
L 113.13291 121.859188 
L 119.967742 109.269821 
L 126.802575 91.576657 
L 133.637407 90.215644 
L 140.47224 89.194884 
L 147.307072 88.174125 
L 154.141905 88.174125 
L 160.976737 77.96653 
L 167.81157 77.626277 
L 174.646403 77.626277 
L 181.481235 77.626277 
L 188.316068 75.584758 
L 195.1509 75.584758 
L 201.985733 75.244505 
L 208.820565 73.202986 
L 215.655398 73.202986 
L 222.49023 73.202986 
L 229.325063 72.862733 
L 236.159895 71.50172 
L 242.994728 70.821214 
L 249.82956 64.01615 
L 256.664393 64.01615 
L 263.499225 64.01615 
L 270.334058 64.01615 
L 277.168891 64.01615 
L 284.003723 64.01615 
L 290.838556 64.01615 
L 297.673388 63.675897 
L 304.508221 63.675897 
L 311.343053 62.995391 
L 318.177886 62.655138 
L 325.012718 62.655138 
L 331.847551 62.655138 
L 338.682383 62.655138 
L 345.517216 62.655138 
L 352.352048 62.655138 
L 359.186881 62.655138 
L 366.021714 57.211087 
L 372.856546 57.211087 
L 379.691379 57.211087 
L 386.526211 54.148809 
L 393.361044 54.148809 
L 400.195876 54.148809 
L 407.030709 54.148809 
L 413.865541 52.10729 
L 420.700374 52.10729 
L 427.535206 52.10729 
L 434.370039 52.10729 
L 441.204871 52.10729 
L 448.039704 52.10729 
L 454.874536 52.10729 
L 461.709369 52.10729 
L 468.544202 52.10729 
L 475.379034 52.10729 
L 482.213867 52.10729 
L 489.048699 52.10729 
L 495.883532 52.10729 
L 502.718364 52.10729 
L 509.553197 52.10729 
L 516.388029 52.10729 
L 523.222862 52.10729 
L 530.057694 52.10729 
L 536.892527 52.10729 
L 543.727359 51.767036 
L 550.562192 51.767036 
L 557.397025 51.767036 
L 564.231857 51.767036 
L 571.06669 51.767036 
L 577.901522 51.767036 
L 584.736355 51.767036 
L 591.571187 51.767036 
L 598.40602 51.767036 
L 605.240852 51.767036 
L 612.075685 51.767036 
L 618.910517 51.767036 
L 625.74535 51.767036 
L 632.580182 51.767036 
L 639.415015 51.767036 
L 646.249847 51.767036 
L 653.08468 51.767036 
L 659.919513 51.767036 
L 666.754345 51.767036 
L 673.589178 51.767036 
L 680.42401 51.767036 
L 687.258843 51.767036 
L 694.093675 51.767036 
L 700.928508 51.767036 
L 707.76334 51.08653 
L 714.598173 51.08653 
L 721.433005 51.08653 
L 728.267838 51.08653 
L 735.10267 51.08653 
" style="fill:none;stroke:#98df8a;stroke-linecap:square;stroke-width:1.5;"/>
   </g>
   <g id="line2d_19">
    <path clip-path="url(#p676b7cd46c)" d="M 85.79358 243.329568 
L 92.628412 179.02172 
L 99.463245 175.278935 
L 106.298077 168.473872 
L 113.13291 141.593872 
L 119.967742 137.170581 
L 126.802575 136.830328 
L 133.637407 134.448555 
L 140.47224 134.448555 
L 147.307072 131.046024 
L 154.141905 131.046024 
L 160.976737 130.365517 
L 167.81157 118.116403 
L 174.646403 118.116403 
L 181.481235 117.095644 
L 188.316068 116.755391 
L 195.1509 116.755391 
L 201.985733 109.950328 
L 208.820565 109.610074 
L 215.655398 109.269821 
L 222.49023 109.269821 
L 229.325063 108.929568 
L 236.159895 108.929568 
L 242.994728 108.929568 
L 249.82956 108.929568 
L 256.664393 108.589315 
L 263.499225 108.589315 
L 270.334058 101.784252 
L 277.168891 101.784252 
L 284.003723 94.979188 
L 290.838556 94.979188 
L 297.673388 94.979188 
L 304.508221 94.979188 
L 311.343053 94.979188 
L 318.177886 89.194884 
L 325.012718 89.194884 
L 331.847551 86.813112 
L 338.682383 86.813112 
L 345.517216 86.813112 
L 352.352048 76.605517 
L 359.186881 76.605517 
L 366.021714 76.605517 
L 372.856546 76.605517 
L 379.691379 76.605517 
L 386.526211 76.605517 
L 393.361044 76.605517 
L 400.195876 76.605517 
L 407.030709 76.605517 
L 413.865541 76.605517 
L 420.700374 76.605517 
L 427.535206 76.605517 
L 434.370039 75.925011 
L 441.204871 75.925011 
L 448.039704 75.925011 
L 454.874536 75.925011 
L 461.709369 75.925011 
L 468.544202 75.925011 
L 475.379034 75.925011 
L 482.213867 75.925011 
L 489.048699 75.925011 
L 495.883532 75.925011 
L 502.718364 75.925011 
L 509.553197 75.925011 
L 516.388029 75.925011 
L 523.222862 75.925011 
L 530.057694 68.439441 
L 536.892527 61.634378 
L 543.727359 61.634378 
L 550.562192 61.634378 
L 557.397025 61.634378 
L 564.231857 61.634378 
L 571.06669 61.294125 
L 577.901522 61.294125 
L 584.736355 61.294125 
L 591.571187 61.294125 
L 598.40602 61.294125 
L 605.240852 61.294125 
L 612.075685 61.294125 
L 618.910517 61.294125 
L 625.74535 61.294125 
L 632.580182 61.294125 
L 639.415015 61.294125 
L 646.249847 61.294125 
L 653.08468 60.613619 
L 659.919513 60.613619 
L 666.754345 60.613619 
L 673.589178 60.613619 
L 680.42401 60.613619 
L 687.258843 60.613619 
L 694.093675 59.933112 
L 700.928508 59.933112 
L 707.76334 59.933112 
L 714.598173 59.933112 
L 721.433005 59.933112 
L 728.267838 59.933112 
L 735.10267 59.933112 
" style="fill:none;stroke:#1f77b4;stroke-linecap:square;stroke-width:1.5;"/>
   </g>
   <g id="line2d_20"/>
   <g id="line2d_21"/>
   <g id="line2d_22"/>
   <g id="line2d_23">
    <path clip-path="url(#p676b7cd46c)" d="M 735.10267 288.430125 
L 735.10267 22.318125 
" style="fill:none;stroke:#ff0000;stroke-linecap:square;stroke-width:1.5;"/>
   </g>
   <g id="patch_3">
    <path d="M 53.328125 240.607543 
L 53.328125 36.455644 
" style="fill:none;stroke:#000000;stroke-linecap:square;stroke-linejoin:miter;stroke-width:0.8;"/>
   </g>
   <g id="patch_4">
    <path d="M 85.79358 288.430125 
L 687.258843 288.430125 
" style="fill:none;stroke:#000000;stroke-linecap:square;stroke-linejoin:miter;stroke-width:0.8;"/>
   </g>
   <g id="text_20">
    <!-- openthread-2019-12-23 (24h, 3 trials/fuzzer) -->
    <g transform="translate(275.863438 16.318125)scale(0.12 -0.12)">
     <defs>
      <path d="M 18.109375 8.203125 
L 18.109375 -20.796875 
L 9.078125 -20.796875 
L 9.078125 54.6875 
L 18.109375 54.6875 
L 18.109375 46.390625 
Q 20.953125 51.265625 25.265625 53.625 
Q 29.59375 56 35.59375 56 
Q 45.5625 56 51.78125 48.09375 
Q 58.015625 40.1875 58.015625 27.296875 
Q 58.015625 14.40625 51.78125 6.484375 
Q 45.5625 -1.421875 35.59375 -1.421875 
Q 29.59375 -1.421875 25.265625 0.953125 
Q 20.953125 3.328125 18.109375 8.203125 
z
M 48.6875 27.296875 
Q 48.6875 37.203125 44.609375 42.84375 
Q 40.53125 48.484375 33.40625 48.484375 
Q 26.265625 48.484375 22.1875 42.84375 
Q 18.109375 37.203125 18.109375 27.296875 
Q 18.109375 17.390625 22.1875 11.75 
Q 26.265625 6.109375 33.40625 6.109375 
Q 40.53125 6.109375 44.609375 11.75 
Q 48.6875 17.390625 48.6875 27.296875 
z
" id="DejaVuSans-112"/>
      <path d="M 4.890625 31.390625 
L 31.203125 31.390625 
L 31.203125 23.390625 
L 4.890625 23.390625 
z
" id="DejaVuSans-45"/>
      <path d="M 10.984375 1.515625 
L 10.984375 10.5 
Q 14.703125 8.734375 18.5 7.8125 
Q 22.3125 6.890625 25.984375 6.890625 
Q 35.75 6.890625 40.890625 13.453125 
Q 46.046875 20.015625 46.78125 33.40625 
Q 43.953125 29.203125 39.59375 26.953125 
Q 35.25 24.703125 29.984375 24.703125 
Q 19.046875 24.703125 12.671875 31.3125 
Q 6.296875 37.9375 6.296875 49.421875 
Q 6.296875 60.640625 12.9375 67.421875 
Q 19.578125 74.21875 30.609375 74.21875 
Q 43.265625 74.21875 49.921875 64.515625 
Q 56.59375 54.828125 56.59375 36.375 
Q 56.59375 19.140625 48.40625 8.859375 
Q 40.234375 -1.421875 26.421875 -1.421875 
Q 22.703125 -1.421875 18.890625 -0.6875 
Q 15.09375 0.046875 10.984375 1.515625 
z
M 30.609375 32.421875 
Q 37.25 32.421875 41.125 36.953125 
Q 45.015625 41.5 45.015625 49.421875 
Q 45.015625 57.28125 41.125 61.84375 
Q 37.25 66.40625 30.609375 66.40625 
Q 23.96875 66.40625 20.09375 61.84375 
Q 16.21875 57.28125 16.21875 49.421875 
Q 16.21875 41.5 20.09375 36.953125 
Q 23.96875 32.421875 30.609375 32.421875 
z
" id="DejaVuSans-57"/>
      <path d="M 40.578125 39.3125 
Q 47.65625 37.796875 51.625 33 
Q 55.609375 28.21875 55.609375 21.1875 
Q 55.609375 10.40625 48.1875 4.484375 
Q 40.765625 -1.421875 27.09375 -1.421875 
Q 22.515625 -1.421875 17.65625 -0.515625 
Q 12.796875 0.390625 7.625 2.203125 
L 7.625 11.71875 
Q 11.71875 9.328125 16.59375 8.109375 
Q 21.484375 6.890625 26.8125 6.890625 
Q 36.078125 6.890625 40.9375 10.546875 
Q 45.796875 14.203125 45.796875 21.1875 
Q 45.796875 27.640625 41.28125 31.265625 
Q 36.765625 34.90625 28.71875 34.90625 
L 20.21875 34.90625 
L 20.21875 43.015625 
L 29.109375 43.015625 
Q 36.375 43.015625 40.234375 45.921875 
Q 44.09375 48.828125 44.09375 54.296875 
Q 44.09375 59.90625 40.109375 62.90625 
Q 36.140625 65.921875 28.71875 65.921875 
Q 24.65625 65.921875 20.015625 65.03125 
Q 15.375 64.15625 9.8125 62.3125 
L 9.8125 71.09375 
Q 15.4375 72.65625 20.34375 73.4375 
Q 25.25 74.21875 29.59375 74.21875 
Q 40.828125 74.21875 47.359375 69.109375 
Q 53.90625 64.015625 53.90625 55.328125 
Q 53.90625 49.265625 50.4375 45.09375 
Q 46.96875 40.921875 40.578125 39.3125 
z
" id="DejaVuSans-51"/>
      <path d="M 11.71875 12.40625 
L 22.015625 12.40625 
L 22.015625 4 
L 14.015625 -11.625 
L 7.71875 -11.625 
L 11.71875 4 
z
" id="DejaVuSans-44"/>
      <path d="M 9.421875 75.984375 
L 18.40625 75.984375 
L 18.40625 0 
L 9.421875 0 
z
" id="DejaVuSans-108"/>
      <path d="M 44.28125 53.078125 
L 44.28125 44.578125 
Q 40.484375 46.53125 36.375 47.5 
Q 32.28125 48.484375 27.875 48.484375 
Q 21.1875 48.484375 17.84375 46.4375 
Q 14.5 44.390625 14.5 40.28125 
Q 14.5 37.15625 16.890625 35.375 
Q 19.28125 33.59375 26.515625 31.984375 
L 29.59375 31.296875 
Q 39.15625 29.25 43.1875 25.515625 
Q 47.21875 21.78125 47.21875 15.09375 
Q 47.21875 7.46875 41.1875 3.015625 
Q 35.15625 -1.421875 24.609375 -1.421875 
Q 20.21875 -1.421875 15.453125 -0.5625 
Q 10.6875 0.296875 5.421875 2 
L 5.421875 11.28125 
Q 10.40625 8.6875 15.234375 7.390625 
Q 20.0625 6.109375 24.8125 6.109375 
Q 31.15625 6.109375 34.5625 8.28125 
Q 37.984375 10.453125 37.984375 14.40625 
Q 37.984375 18.0625 35.515625 20.015625 
Q 33.0625 21.96875 24.703125 23.78125 
L 21.578125 24.515625 
Q 13.234375 26.265625 9.515625 29.90625 
Q 5.8125 33.546875 5.8125 39.890625 
Q 5.8125 47.609375 11.28125 51.796875 
Q 16.75 56 26.8125 56 
Q 31.78125 56 36.171875 55.265625 
Q 40.578125 54.546875 44.28125 53.078125 
z
" id="DejaVuSans-115"/>
      <path d="M 25.390625 72.90625 
L 33.6875 72.90625 
L 8.296875 -9.28125 
L 0 -9.28125 
z
" id="DejaVuSans-47"/>
      <path d="M 37.109375 75.984375 
L 37.109375 68.5 
L 28.515625 68.5 
Q 23.6875 68.5 21.796875 66.546875 
Q 19.921875 64.59375 19.921875 59.515625 
L 19.921875 54.6875 
L 34.71875 54.6875 
L 34.71875 47.703125 
L 19.921875 47.703125 
L 19.921875 0 
L 10.890625 0 
L 10.890625 47.703125 
L 2.296875 47.703125 
L 2.296875 54.6875 
L 10.890625 54.6875 
L 10.890625 58.5 
Q 10.890625 67.625 15.140625 71.796875 
Q 19.390625 75.984375 28.609375 75.984375 
z
" id="DejaVuSans-102"/>
      <path d="M 5.515625 54.6875 
L 48.1875 54.6875 
L 48.1875 46.484375 
L 14.40625 7.171875 
L 48.1875 7.171875 
L 48.1875 0 
L 4.296875 0 
L 4.296875 8.203125 
L 38.09375 47.515625 
L 5.515625 47.515625 
z
" id="DejaVuSans-122"/>
     </defs>
     <use xlink:href="#DejaVuSans-111"/>
     <use x="61.181641" xlink:href="#DejaVuSans-112"/>
     <use x="124.658203" xlink:href="#DejaVuSans-101"/>
     <use x="186.181641" xlink:href="#DejaVuSans-110"/>
     <use x="249.560547" xlink:href="#DejaVuSans-116"/>
     <use x="288.769531" xlink:href="#DejaVuSans-104"/>
     <use x="352.148438" xlink:href="#DejaVuSans-114"/>
     <use x="391.011719" xlink:href="#DejaVuSans-101"/>
     <use x="452.535156" xlink:href="#DejaVuSans-97"/>
     <use x="513.814453" xlink:href="#DejaVuSans-100"/>
     <use x="577.291016" xlink:href="#DejaVuSans-45"/>
     <use x="613.375" xlink:href="#DejaVuSans-50"/>
     <use x="676.998047" xlink:href="#DejaVuSans-48"/>
     <use x="740.621094" xlink:href="#DejaVuSans-49"/>
     <use x="804.244141" xlink:href="#DejaVuSans-57"/>
     <use x="867.867188" xlink:href="#DejaVuSans-45"/>
     <use x="903.951172" xlink:href="#DejaVuSans-49"/>
     <use x="967.574219" xlink:href="#DejaVuSans-50"/>
     <use x="1031.197266" xlink:href="#DejaVuSans-45"/>
     <use x="1067.28125" xlink:href="#DejaVuSans-50"/>
     <use x="1130.904297" xlink:href="#DejaVuSans-51"/>
     <use x="1194.527344" xlink:href="#DejaVuSans-32"/>
     <use x="1226.314453" xlink:href="#DejaVuSans-40"/>
     <use x="1265.328125" xlink:href="#DejaVuSans-50"/>
     <use x="1328.951172" xlink:href="#DejaVuSans-52"/>
     <use x="1392.574219" xlink:href="#DejaVuSans-104"/>
     <use x="1455.953125" xlink:href="#DejaVuSans-44"/>
     <use x="1487.740234" xlink:href="#DejaVuSans-32"/>
     <use x="1519.527344" xlink:href="#DejaVuSans-51"/>
     <use x="1583.150391" xlink:href="#DejaVuSans-32"/>
     <use x="1614.9375" xlink:href="#DejaVuSans-116"/>
     <use x="1654.146484" xlink:href="#DejaVuSans-114"/>
     <use x="1695.259766" xlink:href="#DejaVuSans-105"/>
     <use x="1723.042969" xlink:href="#DejaVuSans-97"/>
     <use x="1784.322266" xlink:href="#DejaVuSans-108"/>
     <use x="1812.105469" xlink:href="#DejaVuSans-115"/>
     <use x="1864.205078" xlink:href="#DejaVuSans-47"/>
     <use x="1897.896484" xlink:href="#DejaVuSans-102"/>
     <use x="1933.101562" xlink:href="#DejaVuSans-117"/>
     <use x="1996.480469" xlink:href="#DejaVuSans-122"/>
     <use x="2048.970703" xlink:href="#DejaVuSans-122"/>
     <use x="2101.460938" xlink:href="#DejaVuSans-101"/>
     <use x="2162.984375" xlink:href="#DejaVuSans-114"/>
     <use x="2204.097656" xlink:href="#DejaVuSans-41"/>
    </g>
   </g>
   <g id="legend_1">
    <g id="line2d_24">
     <path d="M 771.568125 30.416562 
L 791.568125 30.416562 
" style="fill:none;"/>
    </g>
    <g id="line2d_25"/>
    <g id="text_21">
     <!-- fuzzer -->
     <g transform="translate(799.568125 33.916562)scale(0.1 -0.1)">
      <use xlink:href="#DejaVuSans-102"/>
      <use x="35.205078" xlink:href="#DejaVuSans-117"/>
      <use x="98.583984" xlink:href="#DejaVuSans-122"/>
      <use x="151.074219" xlink:href="#DejaVuSans-122"/>
      <use x="203.564453" xlink:href="#DejaVuSans-101"/>
      <use x="265.087891" xlink:href="#DejaVuSans-114"/>
     </g>
    </g>
    <g id="line2d_26">
     <path d="M 771.568125 45.094688 
L 791.568125 45.094688 
" style="fill:none;stroke:#98df8a;stroke-linecap:square;stroke-width:1.5;"/>
    </g>
    <g id="line2d_27"/>
    <g id="text_22">
     <!-- afldark_optimize_cksum -->
     <g transform="translate(799.568125 48.594688)scale(0.1 -0.1)">
      <defs>
       <path d="M 9.078125 75.984375 
L 18.109375 75.984375 
L 18.109375 31.109375 
L 44.921875 54.6875 
L 56.390625 54.6875 
L 27.390625 29.109375 
L 57.625 0 
L 45.90625 0 
L 18.109375 26.703125 
L 18.109375 0 
L 9.078125 0 
z
" id="DejaVuSans-107"/>
       <path d="M 50.984375 -16.609375 
L 50.984375 -23.578125 
L -0.984375 -23.578125 
L -0.984375 -16.609375 
z
" id="DejaVuSans-95"/>
      </defs>
      <use xlink:href="#DejaVuSans-97"/>
      <use x="61.279297" xlink:href="#DejaVuSans-102"/>
      <use x="96.484375" xlink:href="#DejaVuSans-108"/>
      <use x="124.267578" xlink:href="#DejaVuSans-100"/>
      <use x="187.744141" xlink:href="#DejaVuSans-97"/>
      <use x="249.023438" xlink:href="#DejaVuSans-114"/>
      <use x="290.136719" xlink:href="#DejaVuSans-107"/>
      <use x="348.046875" xlink:href="#DejaVuSans-95"/>
      <use x="398.046875" xlink:href="#DejaVuSans-111"/>
      <use x="459.228516" xlink:href="#DejaVuSans-112"/>
      <use x="522.705078" xlink:href="#DejaVuSans-116"/>
      <use x="561.914062" xlink:href="#DejaVuSans-105"/>
      <use x="589.697266" xlink:href="#DejaVuSans-109"/>
      <use x="687.109375" xlink:href="#DejaVuSans-105"/>
      <use x="714.892578" xlink:href="#DejaVuSans-122"/>
      <use x="767.382812" xlink:href="#DejaVuSans-101"/>
      <use x="828.90625" xlink:href="#DejaVuSans-95"/>
      <use x="878.90625" xlink:href="#DejaVuSans-99"/>
      <use x="933.886719" xlink:href="#DejaVuSans-107"/>
      <use x="991.796875" xlink:href="#DejaVuSans-115"/>
      <use x="1043.896484" xlink:href="#DejaVuSans-117"/>
      <use x="1107.275391" xlink:href="#DejaVuSans-109"/>
     </g>
    </g>
    <g id="line2d_28">
     <path d="M 771.568125 60.050937 
L 791.568125 60.050937 
" style="fill:none;stroke:#1f77b4;stroke-linecap:square;stroke-width:1.5;"/>
    </g>
    <g id="line2d_29"/>
    <g id="text_23">
     <!-- afldark_dev -->
     <g transform="translate(799.568125 63.550937)scale(0.1 -0.1)">
      <use xlink:href="#DejaVuSans-97"/>
      <use x="61.279297" xlink:href="#DejaVuSans-102"/>
      <use x="96.484375" xlink:href="#DejaVuSans-108"/>
      <use x="124.267578" xlink:href="#DejaVuSans-100"/>
      <use x="187.744141" xlink:href="#DejaVuSans-97"/>
      <use x="249.023438" xlink:href="#DejaVuSans-114"/>
      <use x="290.136719" xlink:href="#DejaVuSans-107"/>
      <use x="348.046875" xlink:href="#DejaVuSans-95"/>
      <use x="398.046875" xlink:href="#DejaVuSans-100"/>
      <use x="461.523438" xlink:href="#DejaVuSans-101"/>
      <use x="523.046875" xlink:href="#DejaVuSans-118"/>
     </g>
    </g>
   </g>
  </g>
 </g>
 <defs>
  <clipPath id="p676b7cd46c">
   <rect height="266.112" width="714.24" x="53.328125" y="22.318125"/>
  </clipPath>
 </defs>
</svg>
