<?xml version="1.0" encoding="utf-8" standalone="no"?>
<!DOCTYPE svg PUBLIC "-//W3C//DTD SVG 1.1//EN"
  "http://www.w3.org/Graphics/SVG/1.1/DTD/svg11.dtd">
<svg height="325.986375pt" version="1.1" viewBox="0 0 864.541562 325.986375" width="864.541562pt" xmlns="http://www.w3.org/2000/svg" xmlns:xlink="http://www.w3.org/1999/xlink">
 <metadata>
  <rdf:RDF xmlns:cc="http://creativecommons.org/ns#" xmlns:dc="http://purl.org/dc/elements/1.1/" xmlns:rdf="http://www.w3.org/1999/02/22-rdf-syntax-ns#">
   <cc:Work>
    <dc:type rdf:resource="http://purl.org/dc/dcmitype/StillImage"/>
    <dc:date>2022-06-11T16:51:49.394961</dc:date>
    <dc:format>image/svg+xml</dc:format>
    <dc:creator>
     <cc:Agent>
      <dc:title>Matplotlib v3.4.1, https://matplotlib.org/</dc:title>
     </cc:Agent>
    </dc:creator>
   </cc:Work>
  </rdf:RDF>
 </metadata>
 <defs>
  <style type="text/css">*{stroke-linecap:butt;stroke-linejoin:round;}</style>
 </defs>
 <g id="figure_1">
  <g id="patch_1">
   <path d="M 0 325.986375 
L 864.541562 325.986375 
L 864.541562 0 
L 0 0 
z
" style="fill:#ffffff;"/>
  </g>
  <g id="axes_1">
   <g id="patch_2">
    <path d="M 53.328125 288.430125 
L 767.568125 288.430125 
L 767.568125 22.318125 
L 53.328125 22.318125 
z
" style="fill:#ffffff;"/>
   </g>
   <g id="PolyCollection_1">
    <defs>
     <path d="M 85.79358 -196.701662 
L 85.79358 -181.104294 
L 184.398407 -188.661781 
L 242.078533 -201.203995 
L 283.003234 -202.811971 
L 314.746899 -205.867125 
L 340.683361 -206.91231 
L 362.612327 -210.851851 
L 381.608062 -219.69572 
L 398.363487 -216.763173 
L 413.351726 -216.140083 
L 426.910237 -222.027285 
L 439.288188 -221.223297 
L 450.674799 -225.404035 
L 461.217155 -225.910547 
L 471.031852 -228.053175 
L 480.212889 -228.195883 
L 488.837148 -228.539588 
L 496.968315 -231.594743 
L 504.659739 -230.549558 
L 511.956553 -232.881123 
L 518.897281 -230.629957 
L 525.515065 -233.041921 
L 531.838626 -233.363516 
L 537.893016 -233.542404 
L 543.700218 -233.845909 
L 549.279627 -234.006707 
L 554.648441 -234.328302 
L 559.821982 -242.295823 
L 564.813957 -235.855879 
L 569.63668 -236.177474 
L 574.301252 -236.338272 
L 578.817717 -236.49907 
L 583.195191 -236.659867 
L 587.441975 -236.971413 
L 591.565646 -237.061861 
L 595.573142 -243.976158 
L 599.47083 -242.046587 
L 603.264566 -244.619349 
L 606.959753 -242.287783 
L 610.561381 -242.287783 
L 614.07407 -243.815361 
L 617.502108 -242.770176 
L 620.849479 -243.976158 
L 624.119892 -242.850575 
L 627.316806 -244.271624 
L 630.443453 -243.332968 
L 633.502855 -243.244529 
L 636.497843 -243.574164 
L 639.431075 -245.021343 
L 642.305045 -243.734962 
L 645.122101 -251.372848 
L 647.884454 -244.458551 
L 650.594187 -249.712613 
L 653.253268 -243.815361 
L 655.863556 -244.619349 
L 658.426809 -251.533646 
L 660.944693 -250.166866 
L 663.418785 -244.780146 
L 665.850582 -250.327664 
L 668.241507 -250.649259 
L 670.592911 -250.729658 
L 672.906079 -250.729658 
L 675.182235 -253.061223 
L 677.422544 -253.222021 
L 679.628118 -252.096437 
L 681.800019 -252.176836 
L 683.939257 -252.176836 
L 686.046802 -253.94561 
L 688.123579 -254.235046 
L 690.170474 -258.502212 
L 692.188333 -259.503177 
L 694.177969 -254.508402 
L 696.140162 -254.5888 
L 698.075657 -254.562671 
L 699.985172 -253.543616 
L 701.869394 -253.624015 
L 703.728985 -253.94561 
L 705.564581 -259.895121 
L 707.376792 -254.106408 
L 709.166208 -254.186806 
L 710.933395 -256.59877 
L 712.678898 -256.679169 
L 714.403242 -256.920366 
L 716.106936 -260.377514 
L 717.790467 -260.305155 
L 719.454307 -257.563556 
L 721.098911 -257.241961 
L 722.724719 -257.563556 
L 724.332157 -257.402758 
L 725.921634 -257.32035 
L 727.493547 -249.92567 
L 729.04828 -260.154408 
L 730.586206 -250.166866 
L 732.107682 -257.885151 
L 733.613058 -260.457913 
L 735.10267 -260.538312 
L 735.10267 -291.57225 
L 735.10267 -291.57225 
L 733.613058 -291.57225 
L 732.107682 -291.250655 
L 730.586206 -291.250655 
L 729.04828 -291.250655 
L 727.493547 -291.089857 
L 725.921634 -290.92906 
L 724.332157 -290.92906 
L 722.724719 -290.768262 
L 721.098911 -290.768262 
L 719.454307 -290.768262 
L 717.790467 -290.446667 
L 716.106936 -290.446667 
L 714.403242 -290.446667 
L 712.678898 -290.446667 
L 710.933395 -290.125072 
L 709.166208 -289.964274 
L 707.376792 -289.646699 
L 705.564581 -289.642679 
L 703.728985 -288.999488 
L 701.869394 -288.517095 
L 699.985172 -288.1955 
L 698.075657 -287.713107 
L 696.140162 -287.391512 
L 694.177969 -287.230715 
L 692.188333 -286.748322 
L 690.170474 -286.667923 
L 688.123579 -286.587524 
L 686.046802 -286.426727 
L 683.939257 -285.486061 
L 681.800019 -285.461941 
L 679.628118 -285.301143 
L 677.422544 -284.81875 
L 675.182235 -284.657953 
L 672.906079 -282.085191 
L 670.592911 -282.326388 
L 668.241507 -282.245989 
L 665.850582 -278.708441 
L 663.418785 -279.030037 
L 660.944693 -279.030037 
L 658.426809 -278.869239 
L 655.863556 -278.306447 
L 653.253268 -279.432031 
L 650.594187 -277.743656 
L 647.884454 -277.743656 
L 645.122101 -277.582858 
L 642.305045 -277.422061 
L 639.431075 -277.422061 
L 636.497843 -276.77887 
L 633.502855 -277.261263 
L 630.443453 -276.13568 
L 627.316806 -276.390946 
L 624.119892 -275.974882 
L 620.849479 -275.974882 
L 617.502108 -275.492489 
L 614.07407 -275.492489 
L 610.561381 -275.172904 
L 606.959753 -274.366906 
L 603.264566 -274.206108 
L 599.47083 -273.884513 
L 595.573142 -273.723716 
L 591.565646 -273.000126 
L 587.441975 -272.437335 
L 583.195191 -271.152964 
L 578.817717 -271.472549 
L 574.301252 -267.613407 
L 569.63668 -267.774204 
L 564.813957 -265.215512 
L 559.821982 -264.558252 
L 554.648441 -264.558252 
L 549.279627 -264.236657 
L 543.700218 -263.927121 
L 537.893016 -263.754264 
L 531.838626 -254.767688 
L 525.515065 -254.685279 
L 518.897281 -254.267205 
L 511.956553 -251.855241 
L 504.659739 -249.282479 
L 496.968315 -247.381048 
L 488.837148 -247.352908 
L 480.212889 -246.227325 
L 471.031852 -243.654563 
L 461.217155 -243.493765 
L 450.674799 -243.332968 
L 439.288188 -243.011373 
L 426.910237 -236.740266 
L 413.351726 -235.13229 
L 398.363487 -234.730296 
L 381.608062 -234.167504 
L 362.612327 -233.202719 
L 340.683361 -231.594743 
L 314.746899 -228.700386 
L 283.003234 -221.625291 
L 242.078533 -218.730934 
L 184.398407 -209.404673 
L 85.79358 -196.701662 
z
" id="me59a935dd1" style="stroke:#98df8a;stroke-opacity:0.2;"/>
    </defs>
    <g clip-path="url(#pa09d69884d)">
     <use style="fill:#98df8a;fill-opacity:0.2;stroke:#98df8a;stroke-opacity:0.2;" x="0" xlink:href="#me59a935dd1" y="325.986375"/>
    </g>
   </g>
   <g id="PolyCollection_2">
    <defs>
     <path d="M 85.79358 -134.392589 
L 85.79358 -51.340625 
L 184.398407 -51.340625 
L 242.078533 -49.65225 
L 283.003234 -51.340625 
L 314.746899 -51.340625 
L 340.683361 -51.66222 
L 362.612327 -51.66222 
L 381.608062 -52.144613 
L 398.363487 -52.707405 
L 413.351726 -52.707405 
L 426.910237 -52.707405 
L 439.288188 -52.707405 
L 450.674799 -52.707405 
L 461.217155 -53.913387 
L 471.031852 -53.913387 
L 480.212889 -53.913387 
L 488.837148 -53.913387 
L 496.968315 -53.913387 
L 504.659739 -53.913387 
L 511.956553 -54.074184 
L 518.897281 -54.074184 
L 525.515065 -54.074184 
L 531.838626 -54.074184 
L 537.893016 -54.074184 
L 543.700218 -54.074184 
L 549.279627 -54.074184 
L 554.648441 -54.074184 
L 559.821982 -54.074184 
L 564.813957 -54.074184 
L 569.63668 -54.074184 
L 574.301252 -54.074184 
L 578.817717 -54.074184 
L 583.195191 -54.074184 
L 587.441975 -54.074184 
L 591.565646 -54.074184 
L 595.573142 -54.074184 
L 599.47083 -54.074184 
L 603.264566 -54.074184 
L 606.959753 -54.072174 
L 610.561381 -54.234982 
L 614.07407 -54.234982 
L 617.502108 -54.234982 
L 620.849479 -54.234982 
L 624.119892 -54.234982 
L 627.316806 -54.234982 
L 630.443453 -54.234982 
L 633.502855 -54.234982 
L 636.497843 -54.232972 
L 639.431075 -54.234982 
L 642.305045 -54.234982 
L 645.122101 -54.234982 
L 647.884454 -54.234982 
L 650.594187 -54.234982 
L 653.253268 -54.234982 
L 655.863556 -54.234982 
L 658.426809 -54.234982 
L 660.944693 -54.234982 
L 663.418785 -54.234982 
L 665.850582 -54.234982 
L 668.241507 -54.234982 
L 670.592911 -54.234982 
L 672.906079 -54.234982 
L 675.182235 -54.234982 
L 677.422544 -54.234982 
L 679.628118 -54.234982 
L 681.800019 -54.234982 
L 683.939257 -54.234982 
L 686.046802 -54.234982 
L 688.123579 -54.234982 
L 690.170474 -54.234982 
L 692.188333 -54.234982 
L 694.177969 -54.234982 
L 696.140162 -54.234982 
L 698.075657 -54.230962 
L 699.985172 -54.234982 
L 701.869394 -54.074184 
L 703.728985 -54.234982 
L 705.564581 -54.234982 
L 707.376792 -54.074184 
L 709.166208 -54.234982 
L 710.933395 -54.234982 
L 712.678898 -54.234982 
L 714.403242 -54.234982 
L 716.106936 -54.234982 
L 717.790467 -54.074184 
L 719.454307 -54.234982 
L 721.098911 -54.234982 
L 722.724719 -54.234982 
L 724.332157 -54.234982 
L 725.921634 -54.234982 
L 727.493547 -54.234982 
L 729.04828 -54.234982 
L 730.586206 -54.074184 
L 732.107682 -54.234982 
L 733.613058 -54.234982 
L 735.10267 -54.234982 
L 735.10267 -166.897825 
L 735.10267 -166.897825 
L 733.613058 -166.793307 
L 732.107682 -166.793307 
L 730.586206 -166.793307 
L 729.04828 -166.793307 
L 727.493547 -166.793307 
L 725.921634 -166.793307 
L 724.332157 -166.793307 
L 722.724719 -166.793307 
L 721.098911 -166.793307 
L 719.454307 -170.974045 
L 717.790467 -170.974045 
L 716.106936 -166.793307 
L 714.403242 -166.793307 
L 712.678898 -166.793307 
L 710.933395 -166.793307 
L 709.166208 -166.793307 
L 707.376792 -166.793307 
L 705.564581 -166.793307 
L 703.728985 -166.793307 
L 701.869394 -166.793307 
L 699.985172 -166.897825 
L 698.075657 -166.793307 
L 696.140162 -166.793307 
L 694.177969 -166.793307 
L 692.188333 -166.793307 
L 690.170474 -166.793307 
L 688.123579 -166.793307 
L 686.046802 -170.974045 
L 683.939257 -166.793307 
L 681.800019 -170.974045 
L 679.628118 -170.974045 
L 677.422544 -166.793307 
L 675.182235 -166.793307 
L 672.906079 -166.793307 
L 670.592911 -166.793307 
L 668.241507 -166.793307 
L 665.850582 -166.58025 
L 663.418785 -166.310914 
L 660.944693 -166.310914 
L 658.426809 -166.310914 
L 655.863556 -166.310914 
L 653.253268 -166.310914 
L 650.594187 -166.310914 
L 647.884454 -166.310914 
L 645.122101 -166.310914 
L 642.305045 -166.310914 
L 639.431075 -166.310914 
L 636.497843 -166.310914 
L 633.502855 -166.310914 
L 630.443453 -166.310914 
L 627.316806 -166.310914 
L 624.119892 -166.310914 
L 620.849479 -166.310914 
L 617.502108 -165.024533 
L 614.07407 -165.024533 
L 610.561381 -170.089658 
L 606.959753 -165.024533 
L 603.264566 -165.024533 
L 599.47083 -165.024533 
L 595.573142 -165.024533 
L 591.565646 -165.024533 
L 587.441975 -157.708242 
L 583.195191 -157.708242 
L 578.817717 -156.984653 
L 574.301252 -157.708242 
L 569.63668 -152.836075 
L 564.813957 -156.663058 
L 559.821982 -155.457076 
L 554.648441 -155.457076 
L 549.279627 -155.457076 
L 543.700218 -161.571405 
L 537.893016 -155.457076 
L 531.838626 -152.852154 
L 525.515065 -155.457076 
L 518.897281 -152.852154 
L 511.956553 -140.261702 
L 504.659739 -154.751576 
L 496.968315 -154.733486 
L 488.837148 -140.261702 
L 480.212889 -154.733486 
L 471.031852 -154.733486 
L 461.217155 -154.733486 
L 450.674799 -154.733486 
L 439.288188 -140.261702 
L 426.910237 -140.623496 
L 413.351726 -154.733486 
L 398.363487 -154.733486 
L 381.608062 -154.733486 
L 362.612327 -140.261702 
L 340.683361 -140.623496 
L 314.746899 -154.733486 
L 283.003234 -155.457076 
L 242.078533 -140.623496 
L 184.398407 -139.538112 
L 85.79358 -134.392589 
z
" id="mff67e82f13" style="stroke:#1f77b4;stroke-opacity:0.2;"/>
    </defs>
    <g clip-path="url(#pa09d69884d)">
     <use style="fill:#1f77b4;fill-opacity:0.2;stroke:#1f77b4;stroke-opacity:0.2;" x="0" xlink:href="#mff67e82f13" y="325.986375"/>
    </g>
   </g>
   <g id="matplotlib.axis_1">
    <g id="xtick_1">
     <g id="line2d_1">
      <defs>
       <path d="M 0 0 
L 0 3.5 
" id="m6cb629e490" style="stroke:#000000;stroke-width:0.8;"/>
      </defs>
      <g>
       <use style="stroke:#000000;stroke-width:0.8;" x="85.79358" xlink:href="#m6cb629e490" y="288.430125"/>
      </g>
     </g>
     <g id="text_1">
      <!-- 14m -->
      <g transform="translate(74.560767 303.028562)scale(0.1 -0.1)">
       <defs>
        <path d="M 794 531 
L 1825 531 
L 1825 4091 
L 703 3866 
L 703 4441 
L 1819 4666 
L 2450 4666 
L 2450 531 
L 3481 531 
L 3481 0 
L 794 0 
L 794 531 
z
" id="DejaVuSans-31" transform="scale(0.015625)"/>
        <path d="M 2419 4116 
L 825 1625 
L 2419 1625 
L 2419 4116 
z
M 2253 4666 
L 3047 4666 
L 3047 1625 
L 3713 1625 
L 3713 1100 
L 3047 1100 
L 3047 0 
L 2419 0 
L 2419 1100 
L 313 1100 
L 313 1709 
L 2253 4666 
z
" id="DejaVuSans-34" transform="scale(0.015625)"/>
        <path d="M 3328 2828 
Q 3544 3216 3844 3400 
Q 4144 3584 4550 3584 
Q 5097 3584 5394 3201 
Q 5691 2819 5691 2113 
L 5691 0 
L 5113 0 
L 5113 2094 
Q 5113 2597 4934 2840 
Q 4756 3084 4391 3084 
Q 3944 3084 3684 2787 
Q 3425 2491 3425 1978 
L 3425 0 
L 2847 0 
L 2847 2094 
Q 2847 2600 2669 2842 
Q 2491 3084 2119 3084 
Q 1678 3084 1418 2786 
Q 1159 2488 1159 1978 
L 1159 0 
L 581 0 
L 581 3500 
L 1159 3500 
L 1159 2956 
Q 1356 3278 1631 3431 
Q 1906 3584 2284 3584 
Q 2666 3584 2933 3390 
Q 3200 3197 3328 2828 
z
" id="DejaVuSans-6d" transform="scale(0.015625)"/>
       </defs>
       <use xlink:href="#DejaVuSans-31"/>
       <use x="63.623047" xlink:href="#DejaVuSans-34"/>
       <use x="127.246094" xlink:href="#DejaVuSans-6d"/>
      </g>
     </g>
    </g>
    <g id="xtick_2">
     <g id="line2d_2">
      <g>
       <use style="stroke:#000000;stroke-width:0.8;" x="144.821828" xlink:href="#m6cb629e490" y="288.430125"/>
      </g>
     </g>
     <g id="text_2">
      <!-- 22m -->
      <g transform="translate(133.589016 303.028562)scale(0.1 -0.1)">
       <defs>
        <path d="M 1228 531 
L 3431 531 
L 3431 0 
L 469 0 
L 469 531 
Q 828 903 1448 1529 
Q 2069 2156 2228 2338 
Q 2531 2678 2651 2914 
Q 2772 3150 2772 3378 
Q 2772 3750 2511 3984 
Q 2250 4219 1831 4219 
Q 1534 4219 1204 4116 
Q 875 4013 500 3803 
L 500 4441 
Q 881 4594 1212 4672 
Q 1544 4750 1819 4750 
Q 2544 4750 2975 4387 
Q 3406 4025 3406 3419 
Q 3406 3131 3298 2873 
Q 3191 2616 2906 2266 
Q 2828 2175 2409 1742 
Q 1991 1309 1228 531 
z
" id="DejaVuSans-32" transform="scale(0.015625)"/>
       </defs>
       <use xlink:href="#DejaVuSans-32"/>
       <use x="63.623047" xlink:href="#DejaVuSans-32"/>
       <use x="127.246094" xlink:href="#DejaVuSans-6d"/>
      </g>
     </g>
    </g>
    <g id="xtick_3">
     <g id="line2d_3">
      <g>
       <use style="stroke:#000000;stroke-width:0.8;" x="203.850077" xlink:href="#m6cb629e490" y="288.430125"/>
      </g>
     </g>
     <g id="text_3">
      <!-- 34m -->
      <g transform="translate(192.617265 303.028562)scale(0.1 -0.1)">
       <defs>
        <path d="M 2597 2516 
Q 3050 2419 3304 2112 
Q 3559 1806 3559 1356 
Q 3559 666 3084 287 
Q 2609 -91 1734 -91 
Q 1441 -91 1130 -33 
Q 819 25 488 141 
L 488 750 
Q 750 597 1062 519 
Q 1375 441 1716 441 
Q 2309 441 2620 675 
Q 2931 909 2931 1356 
Q 2931 1769 2642 2001 
Q 2353 2234 1838 2234 
L 1294 2234 
L 1294 2753 
L 1863 2753 
Q 2328 2753 2575 2939 
Q 2822 3125 2822 3475 
Q 2822 3834 2567 4026 
Q 2313 4219 1838 4219 
Q 1578 4219 1281 4162 
Q 984 4106 628 3988 
L 628 4550 
Q 988 4650 1302 4700 
Q 1616 4750 1894 4750 
Q 2613 4750 3031 4423 
Q 3450 4097 3450 3541 
Q 3450 3153 3228 2886 
Q 3006 2619 2597 2516 
z
" id="DejaVuSans-33" transform="scale(0.015625)"/>
       </defs>
       <use xlink:href="#DejaVuSans-33"/>
       <use x="63.623047" xlink:href="#DejaVuSans-34"/>
       <use x="127.246094" xlink:href="#DejaVuSans-6d"/>
      </g>
     </g>
    </g>
    <g id="xtick_4">
     <g id="line2d_4">
      <g>
       <use style="stroke:#000000;stroke-width:0.8;" x="262.878326" xlink:href="#m6cb629e490" y="288.430125"/>
      </g>
     </g>
     <g id="text_4">
      <!-- 52m -->
      <g transform="translate(251.645514 303.028562)scale(0.1 -0.1)">
       <defs>
        <path d="M 691 4666 
L 3169 4666 
L 3169 4134 
L 1269 4134 
L 1269 2991 
Q 1406 3038 1543 3061 
Q 1681 3084 1819 3084 
Q 2600 3084 3056 2656 
Q 3513 2228 3513 1497 
Q 3513 744 3044 326 
Q 2575 -91 1722 -91 
Q 1428 -91 1123 -41 
Q 819 9 494 109 
L 494 744 
Q 775 591 1075 516 
Q 1375 441 1709 441 
Q 2250 441 2565 725 
Q 2881 1009 2881 1497 
Q 2881 1984 2565 2268 
Q 2250 2553 1709 2553 
Q 1456 2553 1204 2497 
Q 953 2441 691 2322 
L 691 4666 
z
" id="DejaVuSans-35" transform="scale(0.015625)"/>
       </defs>
       <use xlink:href="#DejaVuSans-35"/>
       <use x="63.623047" xlink:href="#DejaVuSans-32"/>
       <use x="127.246094" xlink:href="#DejaVuSans-6d"/>
      </g>
     </g>
    </g>
    <g id="xtick_5">
     <g id="line2d_5">
      <g>
       <use style="stroke:#000000;stroke-width:0.8;" x="321.906575" xlink:href="#m6cb629e490" y="288.430125"/>
      </g>
     </g>
     <g id="text_5">
      <!-- 1h:18m -->
      <g transform="translate(302.639387 303.028562)scale(0.1 -0.1)">
       <defs>
        <path d="M 3513 2113 
L 3513 0 
L 2938 0 
L 2938 2094 
Q 2938 2591 2744 2837 
Q 2550 3084 2163 3084 
Q 1697 3084 1428 2787 
Q 1159 2491 1159 1978 
L 1159 0 
L 581 0 
L 581 4863 
L 1159 4863 
L 1159 2956 
Q 1366 3272 1645 3428 
Q 1925 3584 2291 3584 
Q 2894 3584 3203 3211 
Q 3513 2838 3513 2113 
z
" id="DejaVuSans-68" transform="scale(0.015625)"/>
        <path d="M 750 794 
L 1409 794 
L 1409 0 
L 750 0 
L 750 794 
z
M 750 3309 
L 1409 3309 
L 1409 2516 
L 750 2516 
L 750 3309 
z
" id="DejaVuSans-3a" transform="scale(0.015625)"/>
        <path d="M 2034 2216 
Q 1584 2216 1326 1975 
Q 1069 1734 1069 1313 
Q 1069 891 1326 650 
Q 1584 409 2034 409 
Q 2484 409 2743 651 
Q 3003 894 3003 1313 
Q 3003 1734 2745 1975 
Q 2488 2216 2034 2216 
z
M 1403 2484 
Q 997 2584 770 2862 
Q 544 3141 544 3541 
Q 544 4100 942 4425 
Q 1341 4750 2034 4750 
Q 2731 4750 3128 4425 
Q 3525 4100 3525 3541 
Q 3525 3141 3298 2862 
Q 3072 2584 2669 2484 
Q 3125 2378 3379 2068 
Q 3634 1759 3634 1313 
Q 3634 634 3220 271 
Q 2806 -91 2034 -91 
Q 1263 -91 848 271 
Q 434 634 434 1313 
Q 434 1759 690 2068 
Q 947 2378 1403 2484 
z
M 1172 3481 
Q 1172 3119 1398 2916 
Q 1625 2713 2034 2713 
Q 2441 2713 2670 2916 
Q 2900 3119 2900 3481 
Q 2900 3844 2670 4047 
Q 2441 4250 2034 4250 
Q 1625 4250 1398 4047 
Q 1172 3844 1172 3481 
z
" id="DejaVuSans-38" transform="scale(0.015625)"/>
       </defs>
       <use xlink:href="#DejaVuSans-31"/>
       <use x="63.623047" xlink:href="#DejaVuSans-68"/>
       <use x="127.001953" xlink:href="#DejaVuSans-3a"/>
       <use x="160.693359" xlink:href="#DejaVuSans-31"/>
       <use x="224.316406" xlink:href="#DejaVuSans-38"/>
       <use x="287.939453" xlink:href="#DejaVuSans-6d"/>
      </g>
     </g>
    </g>
    <g id="xtick_6">
     <g id="line2d_6">
      <g>
       <use style="stroke:#000000;stroke-width:0.8;" x="380.934824" xlink:href="#m6cb629e490" y="288.430125"/>
      </g>
     </g>
     <g id="text_6">
      <!-- 1h:59m -->
      <g transform="translate(361.667636 303.028562)scale(0.1 -0.1)">
       <defs>
        <path d="M 703 97 
L 703 672 
Q 941 559 1184 500 
Q 1428 441 1663 441 
Q 2288 441 2617 861 
Q 2947 1281 2994 2138 
Q 2813 1869 2534 1725 
Q 2256 1581 1919 1581 
Q 1219 1581 811 2004 
Q 403 2428 403 3163 
Q 403 3881 828 4315 
Q 1253 4750 1959 4750 
Q 2769 4750 3195 4129 
Q 3622 3509 3622 2328 
Q 3622 1225 3098 567 
Q 2575 -91 1691 -91 
Q 1453 -91 1209 -44 
Q 966 3 703 97 
z
M 1959 2075 
Q 2384 2075 2632 2365 
Q 2881 2656 2881 3163 
Q 2881 3666 2632 3958 
Q 2384 4250 1959 4250 
Q 1534 4250 1286 3958 
Q 1038 3666 1038 3163 
Q 1038 2656 1286 2365 
Q 1534 2075 1959 2075 
z
" id="DejaVuSans-39" transform="scale(0.015625)"/>
       </defs>
       <use xlink:href="#DejaVuSans-31"/>
       <use x="63.623047" xlink:href="#DejaVuSans-68"/>
       <use x="127.001953" xlink:href="#DejaVuSans-3a"/>
       <use x="160.693359" xlink:href="#DejaVuSans-35"/>
       <use x="224.316406" xlink:href="#DejaVuSans-39"/>
       <use x="287.939453" xlink:href="#DejaVuSans-6d"/>
      </g>
     </g>
    </g>
    <g id="xtick_7">
     <g id="line2d_7">
      <g>
       <use style="stroke:#000000;stroke-width:0.8;" x="439.963073" xlink:href="#m6cb629e490" y="288.430125"/>
      </g>
     </g>
     <g id="text_7">
      <!-- 3h -->
      <g transform="translate(433.613073 303.028562)scale(0.1 -0.1)">
       <use xlink:href="#DejaVuSans-33"/>
       <use x="63.623047" xlink:href="#DejaVuSans-68"/>
      </g>
     </g>
    </g>
    <g id="xtick_8">
     <g id="line2d_8">
      <g>
       <use style="stroke:#000000;stroke-width:0.8;" x="498.991322" xlink:href="#m6cb629e490" y="288.430125"/>
      </g>
     </g>
     <g id="text_8">
      <!-- 4h:33m -->
      <g transform="translate(479.724134 303.028562)scale(0.1 -0.1)">
       <use xlink:href="#DejaVuSans-34"/>
       <use x="63.623047" xlink:href="#DejaVuSans-68"/>
       <use x="127.001953" xlink:href="#DejaVuSans-3a"/>
       <use x="160.693359" xlink:href="#DejaVuSans-33"/>
       <use x="224.316406" xlink:href="#DejaVuSans-33"/>
       <use x="287.939453" xlink:href="#DejaVuSans-6d"/>
      </g>
     </g>
    </g>
    <g id="xtick_9">
     <g id="line2d_9">
      <g>
       <use style="stroke:#000000;stroke-width:0.8;" x="558.01957" xlink:href="#m6cb629e490" y="288.430125"/>
      </g>
     </g>
     <g id="text_9">
      <!-- 6h:54m -->
      <g transform="translate(538.752383 303.028562)scale(0.1 -0.1)">
       <defs>
        <path d="M 2113 2584 
Q 1688 2584 1439 2293 
Q 1191 2003 1191 1497 
Q 1191 994 1439 701 
Q 1688 409 2113 409 
Q 2538 409 2786 701 
Q 3034 994 3034 1497 
Q 3034 2003 2786 2293 
Q 2538 2584 2113 2584 
z
M 3366 4563 
L 3366 3988 
Q 3128 4100 2886 4159 
Q 2644 4219 2406 4219 
Q 1781 4219 1451 3797 
Q 1122 3375 1075 2522 
Q 1259 2794 1537 2939 
Q 1816 3084 2150 3084 
Q 2853 3084 3261 2657 
Q 3669 2231 3669 1497 
Q 3669 778 3244 343 
Q 2819 -91 2113 -91 
Q 1303 -91 875 529 
Q 447 1150 447 2328 
Q 447 3434 972 4092 
Q 1497 4750 2381 4750 
Q 2619 4750 2861 4703 
Q 3103 4656 3366 4563 
z
" id="DejaVuSans-36" transform="scale(0.015625)"/>
       </defs>
       <use xlink:href="#DejaVuSans-36"/>
       <use x="63.623047" xlink:href="#DejaVuSans-68"/>
       <use x="127.001953" xlink:href="#DejaVuSans-3a"/>
       <use x="160.693359" xlink:href="#DejaVuSans-35"/>
       <use x="224.316406" xlink:href="#DejaVuSans-34"/>
       <use x="287.939453" xlink:href="#DejaVuSans-6d"/>
      </g>
     </g>
    </g>
    <g id="xtick_10">
     <g id="line2d_10">
      <g>
       <use style="stroke:#000000;stroke-width:0.8;" x="617.047819" xlink:href="#m6cb629e490" y="288.430125"/>
      </g>
     </g>
     <g id="text_10">
      <!-- 10h:27m -->
      <g transform="translate(594.599382 303.028562)scale(0.1 -0.1)">
       <defs>
        <path d="M 2034 4250 
Q 1547 4250 1301 3770 
Q 1056 3291 1056 2328 
Q 1056 1369 1301 889 
Q 1547 409 2034 409 
Q 2525 409 2770 889 
Q 3016 1369 3016 2328 
Q 3016 3291 2770 3770 
Q 2525 4250 2034 4250 
z
M 2034 4750 
Q 2819 4750 3233 4129 
Q 3647 3509 3647 2328 
Q 3647 1150 3233 529 
Q 2819 -91 2034 -91 
Q 1250 -91 836 529 
Q 422 1150 422 2328 
Q 422 3509 836 4129 
Q 1250 4750 2034 4750 
z
" id="DejaVuSans-30" transform="scale(0.015625)"/>
        <path d="M 525 4666 
L 3525 4666 
L 3525 4397 
L 1831 0 
L 1172 0 
L 2766 4134 
L 525 4134 
L 525 4666 
z
" id="DejaVuSans-37" transform="scale(0.015625)"/>
       </defs>
       <use xlink:href="#DejaVuSans-31"/>
       <use x="63.623047" xlink:href="#DejaVuSans-30"/>
       <use x="127.246094" xlink:href="#DejaVuSans-68"/>
       <use x="190.625" xlink:href="#DejaVuSans-3a"/>
       <use x="224.316406" xlink:href="#DejaVuSans-32"/>
       <use x="287.939453" xlink:href="#DejaVuSans-37"/>
       <use x="351.5625" xlink:href="#DejaVuSans-6d"/>
      </g>
     </g>
    </g>
    <g id="xtick_11">
     <g id="line2d_11">
      <g>
       <use style="stroke:#000000;stroke-width:0.8;" x="676.076068" xlink:href="#m6cb629e490" y="288.430125"/>
      </g>
     </g>
     <g id="text_11">
      <!-- 15h:50m -->
      <g transform="translate(653.627631 303.028562)scale(0.1 -0.1)">
       <use xlink:href="#DejaVuSans-31"/>
       <use x="63.623047" xlink:href="#DejaVuSans-35"/>
       <use x="127.246094" xlink:href="#DejaVuSans-68"/>
       <use x="190.625" xlink:href="#DejaVuSans-3a"/>
       <use x="224.316406" xlink:href="#DejaVuSans-35"/>
       <use x="287.939453" xlink:href="#DejaVuSans-30"/>
       <use x="351.5625" xlink:href="#DejaVuSans-6d"/>
      </g>
     </g>
    </g>
    <g id="xtick_12">
     <g id="line2d_12">
      <g>
       <use style="stroke:#000000;stroke-width:0.8;" x="735.104317" xlink:href="#m6cb629e490" y="288.430125"/>
      </g>
     </g>
     <g id="text_12">
      <!-- 24h -->
      <g transform="translate(725.573067 303.028562)scale(0.1 -0.1)">
       <use xlink:href="#DejaVuSans-32"/>
       <use x="63.623047" xlink:href="#DejaVuSans-34"/>
       <use x="127.246094" xlink:href="#DejaVuSans-68"/>
      </g>
     </g>
    </g>
    <g id="xtick_13">
     <g id="line2d_13">
      <defs>
       <path d="M 0 0 
L 0 2 
" id="mb098f9ee79" style="stroke:#000000;stroke-width:0.6;"/>
      </defs>
      <g>
       <use style="stroke:#000000;stroke-width:0.6;" x="69.038154" xlink:href="#mb098f9ee79" y="288.430125"/>
      </g>
     </g>
    </g>
    <g id="xtick_14">
     <g id="line2d_14">
      <g>
       <use style="stroke:#000000;stroke-width:0.6;" x="199.386646" xlink:href="#mb098f9ee79" y="288.430125"/>
      </g>
     </g>
    </g>
    <g id="xtick_15">
     <g id="line2d_15">
      <g>
       <use style="stroke:#000000;stroke-width:0.6;" x="257.066772" xlink:href="#mb098f9ee79" y="288.430125"/>
      </g>
     </g>
    </g>
    <g id="xtick_16">
     <g id="line2d_16">
      <g>
       <use style="stroke:#000000;stroke-width:0.6;" x="297.991473" xlink:href="#mb098f9ee79" y="288.430125"/>
      </g>
     </g>
    </g>
    <g id="xtick_17">
     <g id="line2d_17">
      <g>
       <use style="stroke:#000000;stroke-width:0.6;" x="329.735137" xlink:href="#mb098f9ee79" y="288.430125"/>
      </g>
     </g>
    </g>
    <g id="xtick_18">
     <g id="line2d_18">
      <g>
       <use style="stroke:#000000;stroke-width:0.6;" x="355.6716" xlink:href="#mb098f9ee79" y="288.430125"/>
      </g>
     </g>
    </g>
    <g id="xtick_19">
     <g id="line2d_19">
      <g>
       <use style="stroke:#000000;stroke-width:0.6;" x="377.600566" xlink:href="#mb098f9ee79" y="288.430125"/>
      </g>
     </g>
    </g>
    <g id="xtick_20">
     <g id="line2d_20">
      <g>
       <use style="stroke:#000000;stroke-width:0.6;" x="396.596301" xlink:href="#mb098f9ee79" y="288.430125"/>
      </g>
     </g>
    </g>
    <g id="xtick_21">
     <g id="line2d_21">
      <g>
       <use style="stroke:#000000;stroke-width:0.6;" x="413.351726" xlink:href="#mb098f9ee79" y="288.430125"/>
      </g>
     </g>
    </g>
    <g id="xtick_22">
     <g id="line2d_22">
      <g>
       <use style="stroke:#000000;stroke-width:0.6;" x="526.944792" xlink:href="#mb098f9ee79" y="288.430125"/>
      </g>
     </g>
    </g>
    <g id="xtick_23">
     <g id="line2d_23">
      <g>
       <use style="stroke:#000000;stroke-width:0.6;" x="584.624919" xlink:href="#mb098f9ee79" y="288.430125"/>
      </g>
     </g>
    </g>
    <g id="xtick_24">
     <g id="line2d_24">
      <g>
       <use style="stroke:#000000;stroke-width:0.6;" x="625.54962" xlink:href="#mb098f9ee79" y="288.430125"/>
      </g>
     </g>
    </g>
    <g id="xtick_25">
     <g id="line2d_25">
      <g>
       <use style="stroke:#000000;stroke-width:0.6;" x="657.293284" xlink:href="#mb098f9ee79" y="288.430125"/>
      </g>
     </g>
    </g>
    <g id="xtick_26">
     <g id="line2d_26">
      <g>
       <use style="stroke:#000000;stroke-width:0.6;" x="683.229746" xlink:href="#mb098f9ee79" y="288.430125"/>
      </g>
     </g>
    </g>
    <g id="xtick_27">
     <g id="line2d_27">
      <g>
       <use style="stroke:#000000;stroke-width:0.6;" x="705.158712" xlink:href="#mb098f9ee79" y="288.430125"/>
      </g>
     </g>
    </g>
    <g id="xtick_28">
     <g id="line2d_28">
      <g>
       <use style="stroke:#000000;stroke-width:0.6;" x="724.154447" xlink:href="#mb098f9ee79" y="288.430125"/>
      </g>
     </g>
    </g>
    <g id="xtick_29">
     <g id="line2d_29">
      <g>
       <use style="stroke:#000000;stroke-width:0.6;" x="740.909872" xlink:href="#mb098f9ee79" y="288.430125"/>
      </g>
     </g>
    </g>
    <g id="text_13">
     <!-- Time (hour:minute) -->
     <g transform="translate(362.041094 316.706687)scale(0.1 -0.1)">
      <defs>
       <path d="M -19 4666 
L 3928 4666 
L 3928 4134 
L 2272 4134 
L 2272 0 
L 1638 0 
L 1638 4134 
L -19 4134 
L -19 4666 
z
" id="DejaVuSans-54" transform="scale(0.015625)"/>
       <path d="M 603 3500 
L 1178 3500 
L 1178 0 
L 603 0 
L 603 3500 
z
M 603 4863 
L 1178 4863 
L 1178 4134 
L 603 4134 
L 603 4863 
z
" id="DejaVuSans-69" transform="scale(0.015625)"/>
       <path d="M 3597 1894 
L 3597 1613 
L 953 1613 
Q 991 1019 1311 708 
Q 1631 397 2203 397 
Q 2534 397 2845 478 
Q 3156 559 3463 722 
L 3463 178 
Q 3153 47 2828 -22 
Q 2503 -91 2169 -91 
Q 1331 -91 842 396 
Q 353 884 353 1716 
Q 353 2575 817 3079 
Q 1281 3584 2069 3584 
Q 2775 3584 3186 3129 
Q 3597 2675 3597 1894 
z
M 3022 2063 
Q 3016 2534 2758 2815 
Q 2500 3097 2075 3097 
Q 1594 3097 1305 2825 
Q 1016 2553 972 2059 
L 3022 2063 
z
" id="DejaVuSans-65" transform="scale(0.015625)"/>
       <path id="DejaVuSans-20" transform="scale(0.015625)"/>
       <path d="M 1984 4856 
Q 1566 4138 1362 3434 
Q 1159 2731 1159 2009 
Q 1159 1288 1364 580 
Q 1569 -128 1984 -844 
L 1484 -844 
Q 1016 -109 783 600 
Q 550 1309 550 2009 
Q 550 2706 781 3412 
Q 1013 4119 1484 4856 
L 1984 4856 
z
" id="DejaVuSans-28" transform="scale(0.015625)"/>
       <path d="M 1959 3097 
Q 1497 3097 1228 2736 
Q 959 2375 959 1747 
Q 959 1119 1226 758 
Q 1494 397 1959 397 
Q 2419 397 2687 759 
Q 2956 1122 2956 1747 
Q 2956 2369 2687 2733 
Q 2419 3097 1959 3097 
z
M 1959 3584 
Q 2709 3584 3137 3096 
Q 3566 2609 3566 1747 
Q 3566 888 3137 398 
Q 2709 -91 1959 -91 
Q 1206 -91 779 398 
Q 353 888 353 1747 
Q 353 2609 779 3096 
Q 1206 3584 1959 3584 
z
" id="DejaVuSans-6f" transform="scale(0.015625)"/>
       <path d="M 544 1381 
L 544 3500 
L 1119 3500 
L 1119 1403 
Q 1119 906 1312 657 
Q 1506 409 1894 409 
Q 2359 409 2629 706 
Q 2900 1003 2900 1516 
L 2900 3500 
L 3475 3500 
L 3475 0 
L 2900 0 
L 2900 538 
Q 2691 219 2414 64 
Q 2138 -91 1772 -91 
Q 1169 -91 856 284 
Q 544 659 544 1381 
z
M 1991 3584 
L 1991 3584 
z
" id="DejaVuSans-75" transform="scale(0.015625)"/>
       <path d="M 2631 2963 
Q 2534 3019 2420 3045 
Q 2306 3072 2169 3072 
Q 1681 3072 1420 2755 
Q 1159 2438 1159 1844 
L 1159 0 
L 581 0 
L 581 3500 
L 1159 3500 
L 1159 2956 
Q 1341 3275 1631 3429 
Q 1922 3584 2338 3584 
Q 2397 3584 2469 3576 
Q 2541 3569 2628 3553 
L 2631 2963 
z
" id="DejaVuSans-72" transform="scale(0.015625)"/>
       <path d="M 3513 2113 
L 3513 0 
L 2938 0 
L 2938 2094 
Q 2938 2591 2744 2837 
Q 2550 3084 2163 3084 
Q 1697 3084 1428 2787 
Q 1159 2491 1159 1978 
L 1159 0 
L 581 0 
L 581 3500 
L 1159 3500 
L 1159 2956 
Q 1366 3272 1645 3428 
Q 1925 3584 2291 3584 
Q 2894 3584 3203 3211 
Q 3513 2838 3513 2113 
z
" id="DejaVuSans-6e" transform="scale(0.015625)"/>
       <path d="M 1172 4494 
L 1172 3500 
L 2356 3500 
L 2356 3053 
L 1172 3053 
L 1172 1153 
Q 1172 725 1289 603 
Q 1406 481 1766 481 
L 2356 481 
L 2356 0 
L 1766 0 
Q 1100 0 847 248 
Q 594 497 594 1153 
L 594 3053 
L 172 3053 
L 172 3500 
L 594 3500 
L 594 4494 
L 1172 4494 
z
" id="DejaVuSans-74" transform="scale(0.015625)"/>
       <path d="M 513 4856 
L 1013 4856 
Q 1481 4119 1714 3412 
Q 1947 2706 1947 2009 
Q 1947 1309 1714 600 
Q 1481 -109 1013 -844 
L 513 -844 
Q 928 -128 1133 580 
Q 1338 1288 1338 2009 
Q 1338 2731 1133 3434 
Q 928 4138 513 4856 
z
" id="DejaVuSans-29" transform="scale(0.015625)"/>
      </defs>
      <use xlink:href="#DejaVuSans-54"/>
      <use x="57.958984" xlink:href="#DejaVuSans-69"/>
      <use x="85.742188" xlink:href="#DejaVuSans-6d"/>
      <use x="183.154297" xlink:href="#DejaVuSans-65"/>
      <use x="244.677734" xlink:href="#DejaVuSans-20"/>
      <use x="276.464844" xlink:href="#DejaVuSans-28"/>
      <use x="315.478516" xlink:href="#DejaVuSans-68"/>
      <use x="378.857422" xlink:href="#DejaVuSans-6f"/>
      <use x="440.039062" xlink:href="#DejaVuSans-75"/>
      <use x="503.417969" xlink:href="#DejaVuSans-72"/>
      <use x="542.78125" xlink:href="#DejaVuSans-3a"/>
      <use x="576.472656" xlink:href="#DejaVuSans-6d"/>
      <use x="673.884766" xlink:href="#DejaVuSans-69"/>
      <use x="701.667969" xlink:href="#DejaVuSans-6e"/>
      <use x="765.046875" xlink:href="#DejaVuSans-75"/>
      <use x="828.425781" xlink:href="#DejaVuSans-74"/>
      <use x="867.634766" xlink:href="#DejaVuSans-65"/>
      <use x="929.158203" xlink:href="#DejaVuSans-29"/>
     </g>
    </g>
   </g>
   <g id="matplotlib.axis_2">
    <g id="ytick_1">
     <g id="line2d_30">
      <defs>
       <path d="M 0 0 
L -3.5 0 
" id="me9c3ea834e" style="stroke:#000000;stroke-width:0.8;"/>
      </defs>
      <g>
       <use style="stroke:#000000;stroke-width:0.8;" x="53.328125" xlink:href="#me9c3ea834e" y="272.072988"/>
      </g>
     </g>
     <g id="text_14">
      <!-- 4000 -->
      <g transform="translate(20.878125 275.872207)scale(0.1 -0.1)">
       <use xlink:href="#DejaVuSans-34"/>
       <use x="63.623047" xlink:href="#DejaVuSans-30"/>
       <use x="127.246094" xlink:href="#DejaVuSans-30"/>
       <use x="190.869141" xlink:href="#DejaVuSans-30"/>
      </g>
     </g>
    </g>
    <g id="ytick_2">
     <g id="line2d_31">
      <g>
       <use style="stroke:#000000;stroke-width:0.8;" x="53.328125" xlink:href="#me9c3ea834e" y="239.913467"/>
      </g>
     </g>
     <g id="text_15">
      <!-- 4200 -->
      <g transform="translate(20.878125 243.712686)scale(0.1 -0.1)">
       <use xlink:href="#DejaVuSans-34"/>
       <use x="63.623047" xlink:href="#DejaVuSans-32"/>
       <use x="127.246094" xlink:href="#DejaVuSans-30"/>
       <use x="190.869141" xlink:href="#DejaVuSans-30"/>
      </g>
     </g>
    </g>
    <g id="ytick_3">
     <g id="line2d_32">
      <g>
       <use style="stroke:#000000;stroke-width:0.8;" x="53.328125" xlink:href="#me9c3ea834e" y="207.753946"/>
      </g>
     </g>
     <g id="text_16">
      <!-- 4400 -->
      <g transform="translate(20.878125 211.553164)scale(0.1 -0.1)">
       <use xlink:href="#DejaVuSans-34"/>
       <use x="63.623047" xlink:href="#DejaVuSans-34"/>
       <use x="127.246094" xlink:href="#DejaVuSans-30"/>
       <use x="190.869141" xlink:href="#DejaVuSans-30"/>
      </g>
     </g>
    </g>
    <g id="ytick_4">
     <g id="line2d_33">
      <g>
       <use style="stroke:#000000;stroke-width:0.8;" x="53.328125" xlink:href="#me9c3ea834e" y="175.594424"/>
      </g>
     </g>
     <g id="text_17">
      <!-- 4600 -->
      <g transform="translate(20.878125 179.393643)scale(0.1 -0.1)">
       <use xlink:href="#DejaVuSans-34"/>
       <use x="63.623047" xlink:href="#DejaVuSans-36"/>
       <use x="127.246094" xlink:href="#DejaVuSans-30"/>
       <use x="190.869141" xlink:href="#DejaVuSans-30"/>
      </g>
     </g>
    </g>
    <g id="ytick_5">
     <g id="line2d_34">
      <g>
       <use style="stroke:#000000;stroke-width:0.8;" x="53.328125" xlink:href="#me9c3ea834e" y="143.434903"/>
      </g>
     </g>
     <g id="text_18">
      <!-- 4800 -->
      <g transform="translate(20.878125 147.234121)scale(0.1 -0.1)">
       <use xlink:href="#DejaVuSans-34"/>
       <use x="63.623047" xlink:href="#DejaVuSans-38"/>
       <use x="127.246094" xlink:href="#DejaVuSans-30"/>
       <use x="190.869141" xlink:href="#DejaVuSans-30"/>
      </g>
     </g>
    </g>
    <g id="ytick_6">
     <g id="line2d_35">
      <g>
       <use style="stroke:#000000;stroke-width:0.8;" x="53.328125" xlink:href="#me9c3ea834e" y="111.275381"/>
      </g>
     </g>
     <g id="text_19">
      <!-- 5000 -->
      <g transform="translate(20.878125 115.0746)scale(0.1 -0.1)">
       <use xlink:href="#DejaVuSans-35"/>
       <use x="63.623047" xlink:href="#DejaVuSans-30"/>
       <use x="127.246094" xlink:href="#DejaVuSans-30"/>
       <use x="190.869141" xlink:href="#DejaVuSans-30"/>
      </g>
     </g>
    </g>
    <g id="ytick_7">
     <g id="line2d_36">
      <g>
       <use style="stroke:#000000;stroke-width:0.8;" x="53.328125" xlink:href="#me9c3ea834e" y="79.11586"/>
      </g>
     </g>
     <g id="text_20">
      <!-- 5200 -->
      <g transform="translate(20.878125 82.915079)scale(0.1 -0.1)">
       <use xlink:href="#DejaVuSans-35"/>
       <use x="63.623047" xlink:href="#DejaVuSans-32"/>
       <use x="127.246094" xlink:href="#DejaVuSans-30"/>
       <use x="190.869141" xlink:href="#DejaVuSans-30"/>
      </g>
     </g>
    </g>
    <g id="ytick_8">
     <g id="line2d_37">
      <g>
       <use style="stroke:#000000;stroke-width:0.8;" x="53.328125" xlink:href="#me9c3ea834e" y="46.956338"/>
      </g>
     </g>
     <g id="text_21">
      <!-- 5400 -->
      <g transform="translate(20.878125 50.755557)scale(0.1 -0.1)">
       <use xlink:href="#DejaVuSans-35"/>
       <use x="63.623047" xlink:href="#DejaVuSans-34"/>
       <use x="127.246094" xlink:href="#DejaVuSans-30"/>
       <use x="190.869141" xlink:href="#DejaVuSans-30"/>
      </g>
     </g>
    </g>
    <g id="text_22">
     <!-- Code branch coverage -->
     <g transform="translate(14.798438 211.949125)rotate(-90)scale(0.1 -0.1)">
      <defs>
       <path d="M 4122 4306 
L 4122 3641 
Q 3803 3938 3442 4084 
Q 3081 4231 2675 4231 
Q 1875 4231 1450 3742 
Q 1025 3253 1025 2328 
Q 1025 1406 1450 917 
Q 1875 428 2675 428 
Q 3081 428 3442 575 
Q 3803 722 4122 1019 
L 4122 359 
Q 3791 134 3420 21 
Q 3050 -91 2638 -91 
Q 1578 -91 968 557 
Q 359 1206 359 2328 
Q 359 3453 968 4101 
Q 1578 4750 2638 4750 
Q 3056 4750 3426 4639 
Q 3797 4528 4122 4306 
z
" id="DejaVuSans-43" transform="scale(0.015625)"/>
       <path d="M 2906 2969 
L 2906 4863 
L 3481 4863 
L 3481 0 
L 2906 0 
L 2906 525 
Q 2725 213 2448 61 
Q 2172 -91 1784 -91 
Q 1150 -91 751 415 
Q 353 922 353 1747 
Q 353 2572 751 3078 
Q 1150 3584 1784 3584 
Q 2172 3584 2448 3432 
Q 2725 3281 2906 2969 
z
M 947 1747 
Q 947 1113 1208 752 
Q 1469 391 1925 391 
Q 2381 391 2643 752 
Q 2906 1113 2906 1747 
Q 2906 2381 2643 2742 
Q 2381 3103 1925 3103 
Q 1469 3103 1208 2742 
Q 947 2381 947 1747 
z
" id="DejaVuSans-64" transform="scale(0.015625)"/>
       <path d="M 3116 1747 
Q 3116 2381 2855 2742 
Q 2594 3103 2138 3103 
Q 1681 3103 1420 2742 
Q 1159 2381 1159 1747 
Q 1159 1113 1420 752 
Q 1681 391 2138 391 
Q 2594 391 2855 752 
Q 3116 1113 3116 1747 
z
M 1159 2969 
Q 1341 3281 1617 3432 
Q 1894 3584 2278 3584 
Q 2916 3584 3314 3078 
Q 3713 2572 3713 1747 
Q 3713 922 3314 415 
Q 2916 -91 2278 -91 
Q 1894 -91 1617 61 
Q 1341 213 1159 525 
L 1159 0 
L 581 0 
L 581 4863 
L 1159 4863 
L 1159 2969 
z
" id="DejaVuSans-62" transform="scale(0.015625)"/>
       <path d="M 2194 1759 
Q 1497 1759 1228 1600 
Q 959 1441 959 1056 
Q 959 750 1161 570 
Q 1363 391 1709 391 
Q 2188 391 2477 730 
Q 2766 1069 2766 1631 
L 2766 1759 
L 2194 1759 
z
M 3341 1997 
L 3341 0 
L 2766 0 
L 2766 531 
Q 2569 213 2275 61 
Q 1981 -91 1556 -91 
Q 1019 -91 701 211 
Q 384 513 384 1019 
Q 384 1609 779 1909 
Q 1175 2209 1959 2209 
L 2766 2209 
L 2766 2266 
Q 2766 2663 2505 2880 
Q 2244 3097 1772 3097 
Q 1472 3097 1187 3025 
Q 903 2953 641 2809 
L 641 3341 
Q 956 3463 1253 3523 
Q 1550 3584 1831 3584 
Q 2591 3584 2966 3190 
Q 3341 2797 3341 1997 
z
" id="DejaVuSans-61" transform="scale(0.015625)"/>
       <path d="M 3122 3366 
L 3122 2828 
Q 2878 2963 2633 3030 
Q 2388 3097 2138 3097 
Q 1578 3097 1268 2742 
Q 959 2388 959 1747 
Q 959 1106 1268 751 
Q 1578 397 2138 397 
Q 2388 397 2633 464 
Q 2878 531 3122 666 
L 3122 134 
Q 2881 22 2623 -34 
Q 2366 -91 2075 -91 
Q 1284 -91 818 406 
Q 353 903 353 1747 
Q 353 2603 823 3093 
Q 1294 3584 2113 3584 
Q 2378 3584 2631 3529 
Q 2884 3475 3122 3366 
z
" id="DejaVuSans-63" transform="scale(0.015625)"/>
       <path d="M 191 3500 
L 800 3500 
L 1894 563 
L 2988 3500 
L 3597 3500 
L 2284 0 
L 1503 0 
L 191 3500 
z
" id="DejaVuSans-76" transform="scale(0.015625)"/>
       <path d="M 2906 1791 
Q 2906 2416 2648 2759 
Q 2391 3103 1925 3103 
Q 1463 3103 1205 2759 
Q 947 2416 947 1791 
Q 947 1169 1205 825 
Q 1463 481 1925 481 
Q 2391 481 2648 825 
Q 2906 1169 2906 1791 
z
M 3481 434 
Q 3481 -459 3084 -895 
Q 2688 -1331 1869 -1331 
Q 1566 -1331 1297 -1286 
Q 1028 -1241 775 -1147 
L 775 -588 
Q 1028 -725 1275 -790 
Q 1522 -856 1778 -856 
Q 2344 -856 2625 -561 
Q 2906 -266 2906 331 
L 2906 616 
Q 2728 306 2450 153 
Q 2172 0 1784 0 
Q 1141 0 747 490 
Q 353 981 353 1791 
Q 353 2603 747 3093 
Q 1141 3584 1784 3584 
Q 2172 3584 2450 3431 
Q 2728 3278 2906 2969 
L 2906 3500 
L 3481 3500 
L 3481 434 
z
" id="DejaVuSans-67" transform="scale(0.015625)"/>
      </defs>
      <use xlink:href="#DejaVuSans-43"/>
      <use x="69.824219" xlink:href="#DejaVuSans-6f"/>
      <use x="131.005859" xlink:href="#DejaVuSans-64"/>
      <use x="194.482422" xlink:href="#DejaVuSans-65"/>
      <use x="256.005859" xlink:href="#DejaVuSans-20"/>
      <use x="287.792969" xlink:href="#DejaVuSans-62"/>
      <use x="351.269531" xlink:href="#DejaVuSans-72"/>
      <use x="392.382812" xlink:href="#DejaVuSans-61"/>
      <use x="453.662109" xlink:href="#DejaVuSans-6e"/>
      <use x="517.041016" xlink:href="#DejaVuSans-63"/>
      <use x="572.021484" xlink:href="#DejaVuSans-68"/>
      <use x="635.400391" xlink:href="#DejaVuSans-20"/>
      <use x="667.1875" xlink:href="#DejaVuSans-63"/>
      <use x="722.167969" xlink:href="#DejaVuSans-6f"/>
      <use x="783.349609" xlink:href="#DejaVuSans-76"/>
      <use x="842.529297" xlink:href="#DejaVuSans-65"/>
      <use x="904.052734" xlink:href="#DejaVuSans-72"/>
      <use x="945.166016" xlink:href="#DejaVuSans-61"/>
      <use x="1006.445312" xlink:href="#DejaVuSans-67"/>
      <use x="1069.921875" xlink:href="#DejaVuSans-65"/>
     </g>
    </g>
   </g>
   <g id="line2d_38">
    <path clip-path="url(#pa09d69884d)" d="M 85.79358 137.967784 
L 184.398407 122.048821 
L 242.078533 116.662101 
L 283.003234 110.069399 
L 314.746899 106.371054 
L 340.683361 100.341144 
L 362.612327 99.617555 
L 381.608062 96.964394 
L 398.363487 96.482001 
L 413.351726 94.793626 
L 426.910237 93.989638 
L 439.288188 90.934484 
L 450.674799 90.693288 
L 461.217155 90.452091 
L 471.031852 90.050097 
L 480.212889 88.52252 
L 488.837148 86.51255 
L 496.968315 85.467365 
L 504.659739 84.50258 
L 511.956553 83.1358 
L 518.897281 82.894604 
L 525.515065 82.814205 
L 531.838626 78.392271 
L 537.893016 77.74908 
L 543.700218 76.623497 
L 549.279627 75.899908 
L 554.648441 75.256717 
L 559.821982 74.935122 
L 564.813957 74.774324 
L 569.63668 73.568342 
L 574.301252 73.407545 
L 578.817717 72.603557 
L 583.195191 72.36236 
L 587.441975 71.236777 
L 591.565646 64.724474 
L 595.573142 64.32248 
L 599.47083 64.32248 
L 603.264566 64.32248 
L 606.959753 63.840087 
L 610.561381 63.277295 
L 614.07407 62.9557 
L 617.502108 62.714504 
L 620.849479 62.714504 
L 624.119892 62.714504 
L 627.316806 61.910516 
L 630.443453 61.669319 
L 633.502855 61.428123 
L 636.497843 61.267325 
L 639.431075 60.94573 
L 642.305045 59.418153 
L 645.122101 57.890576 
L 647.884454 56.92579 
L 650.594187 56.604195 
L 653.253268 56.041403 
L 655.863556 55.800207 
L 658.426809 54.594225 
L 660.944693 54.433427 
L 663.418785 53.951034 
L 665.850582 52.343058 
L 668.241507 51.137076 
L 670.592911 50.011493 
L 672.906079 50.011493 
L 675.182235 49.850695 
L 677.422544 49.609499 
L 679.628118 49.5291 
L 681.800019 49.5291 
L 683.939257 49.448701 
L 686.046802 48.805511 
L 688.123579 48.564314 
L 690.170474 48.483916 
L 692.188333 48.483916 
L 694.177969 48.403517 
L 696.140162 48.323118 
L 698.075657 48.242719 
L 699.985172 48.16232 
L 701.869394 48.16232 
L 703.728985 48.16232 
L 705.564581 48.001523 
L 707.376792 48.001523 
L 709.166208 47.921124 
L 710.933395 47.921124 
L 712.678898 47.921124 
L 714.403242 47.921124 
L 716.106936 47.921124 
L 717.790467 47.840725 
L 719.454307 47.840725 
L 721.098911 47.840725 
L 722.724719 47.760326 
L 724.332157 47.760326 
L 725.921634 47.760326 
L 727.493547 47.760326 
L 729.04828 47.51913 
L 730.586206 47.51913 
L 732.107682 47.438731 
L 733.613058 47.438731 
L 735.10267 47.438731 
" style="fill:none;stroke:#98df8a;stroke-linecap:square;stroke-width:1.5;"/>
    <defs>
     <path d="M -0 3 
L 3 -3 
L -3 -3 
z
" id="mce1096a2c2" style="stroke:#ffffff;stroke-linejoin:miter;stroke-width:0.75;"/>
    </defs>
    <g clip-path="url(#pa09d69884d)">
     <use style="fill:#98df8a;stroke:#ffffff;stroke-linejoin:miter;stroke-width:0.75;" x="85.79358" xlink:href="#mce1096a2c2" y="137.967784"/>
     <use style="fill:#98df8a;stroke:#ffffff;stroke-linejoin:miter;stroke-width:0.75;" x="184.398407" xlink:href="#mce1096a2c2" y="122.048821"/>
     <use style="fill:#98df8a;stroke:#ffffff;stroke-linejoin:miter;stroke-width:0.75;" x="242.078533" xlink:href="#mce1096a2c2" y="116.662101"/>
     <use style="fill:#98df8a;stroke:#ffffff;stroke-linejoin:miter;stroke-width:0.75;" x="283.003234" xlink:href="#mce1096a2c2" y="110.069399"/>
     <use style="fill:#98df8a;stroke:#ffffff;stroke-linejoin:miter;stroke-width:0.75;" x="314.746899" xlink:href="#mce1096a2c2" y="106.371054"/>
     <use style="fill:#98df8a;stroke:#ffffff;stroke-linejoin:miter;stroke-width:0.75;" x="340.683361" xlink:href="#mce1096a2c2" y="100.341144"/>
     <use style="fill:#98df8a;stroke:#ffffff;stroke-linejoin:miter;stroke-width:0.75;" x="362.612327" xlink:href="#mce1096a2c2" y="99.617555"/>
     <use style="fill:#98df8a;stroke:#ffffff;stroke-linejoin:miter;stroke-width:0.75;" x="381.608062" xlink:href="#mce1096a2c2" y="96.964394"/>
     <use style="fill:#98df8a;stroke:#ffffff;stroke-linejoin:miter;stroke-width:0.75;" x="398.363487" xlink:href="#mce1096a2c2" y="96.482001"/>
     <use style="fill:#98df8a;stroke:#ffffff;stroke-linejoin:miter;stroke-width:0.75;" x="413.351726" xlink:href="#mce1096a2c2" y="94.793626"/>
     <use style="fill:#98df8a;stroke:#ffffff;stroke-linejoin:miter;stroke-width:0.75;" x="426.910237" xlink:href="#mce1096a2c2" y="93.989638"/>
     <use style="fill:#98df8a;stroke:#ffffff;stroke-linejoin:miter;stroke-width:0.75;" x="439.288188" xlink:href="#mce1096a2c2" y="90.934484"/>
     <use style="fill:#98df8a;stroke:#ffffff;stroke-linejoin:miter;stroke-width:0.75;" x="450.674799" xlink:href="#mce1096a2c2" y="90.693288"/>
     <use style="fill:#98df8a;stroke:#ffffff;stroke-linejoin:miter;stroke-width:0.75;" x="461.217155" xlink:href="#mce1096a2c2" y="90.452091"/>
     <use style="fill:#98df8a;stroke:#ffffff;stroke-linejoin:miter;stroke-width:0.75;" x="471.031852" xlink:href="#mce1096a2c2" y="90.050097"/>
     <use style="fill:#98df8a;stroke:#ffffff;stroke-linejoin:miter;stroke-width:0.75;" x="480.212889" xlink:href="#mce1096a2c2" y="88.52252"/>
     <use style="fill:#98df8a;stroke:#ffffff;stroke-linejoin:miter;stroke-width:0.75;" x="488.837148" xlink:href="#mce1096a2c2" y="86.51255"/>
     <use style="fill:#98df8a;stroke:#ffffff;stroke-linejoin:miter;stroke-width:0.75;" x="496.968315" xlink:href="#mce1096a2c2" y="85.467365"/>
     <use style="fill:#98df8a;stroke:#ffffff;stroke-linejoin:miter;stroke-width:0.75;" x="504.659739" xlink:href="#mce1096a2c2" y="84.50258"/>
     <use style="fill:#98df8a;stroke:#ffffff;stroke-linejoin:miter;stroke-width:0.75;" x="511.956553" xlink:href="#mce1096a2c2" y="83.1358"/>
     <use style="fill:#98df8a;stroke:#ffffff;stroke-linejoin:miter;stroke-width:0.75;" x="518.897281" xlink:href="#mce1096a2c2" y="82.894604"/>
     <use style="fill:#98df8a;stroke:#ffffff;stroke-linejoin:miter;stroke-width:0.75;" x="525.515065" xlink:href="#mce1096a2c2" y="82.814205"/>
     <use style="fill:#98df8a;stroke:#ffffff;stroke-linejoin:miter;stroke-width:0.75;" x="531.838626" xlink:href="#mce1096a2c2" y="78.392271"/>
     <use style="fill:#98df8a;stroke:#ffffff;stroke-linejoin:miter;stroke-width:0.75;" x="537.893016" xlink:href="#mce1096a2c2" y="77.74908"/>
     <use style="fill:#98df8a;stroke:#ffffff;stroke-linejoin:miter;stroke-width:0.75;" x="543.700218" xlink:href="#mce1096a2c2" y="76.623497"/>
     <use style="fill:#98df8a;stroke:#ffffff;stroke-linejoin:miter;stroke-width:0.75;" x="549.279627" xlink:href="#mce1096a2c2" y="75.899908"/>
     <use style="fill:#98df8a;stroke:#ffffff;stroke-linejoin:miter;stroke-width:0.75;" x="554.648441" xlink:href="#mce1096a2c2" y="75.256717"/>
     <use style="fill:#98df8a;stroke:#ffffff;stroke-linejoin:miter;stroke-width:0.75;" x="559.821982" xlink:href="#mce1096a2c2" y="74.935122"/>
     <use style="fill:#98df8a;stroke:#ffffff;stroke-linejoin:miter;stroke-width:0.75;" x="564.813957" xlink:href="#mce1096a2c2" y="74.774324"/>
     <use style="fill:#98df8a;stroke:#ffffff;stroke-linejoin:miter;stroke-width:0.75;" x="569.63668" xlink:href="#mce1096a2c2" y="73.568342"/>
     <use style="fill:#98df8a;stroke:#ffffff;stroke-linejoin:miter;stroke-width:0.75;" x="574.301252" xlink:href="#mce1096a2c2" y="73.407545"/>
     <use style="fill:#98df8a;stroke:#ffffff;stroke-linejoin:miter;stroke-width:0.75;" x="578.817717" xlink:href="#mce1096a2c2" y="72.603557"/>
     <use style="fill:#98df8a;stroke:#ffffff;stroke-linejoin:miter;stroke-width:0.75;" x="583.195191" xlink:href="#mce1096a2c2" y="72.36236"/>
     <use style="fill:#98df8a;stroke:#ffffff;stroke-linejoin:miter;stroke-width:0.75;" x="587.441975" xlink:href="#mce1096a2c2" y="71.236777"/>
     <use style="fill:#98df8a;stroke:#ffffff;stroke-linejoin:miter;stroke-width:0.75;" x="591.565646" xlink:href="#mce1096a2c2" y="64.724474"/>
     <use style="fill:#98df8a;stroke:#ffffff;stroke-linejoin:miter;stroke-width:0.75;" x="595.573142" xlink:href="#mce1096a2c2" y="64.32248"/>
     <use style="fill:#98df8a;stroke:#ffffff;stroke-linejoin:miter;stroke-width:0.75;" x="599.47083" xlink:href="#mce1096a2c2" y="64.32248"/>
     <use style="fill:#98df8a;stroke:#ffffff;stroke-linejoin:miter;stroke-width:0.75;" x="603.264566" xlink:href="#mce1096a2c2" y="64.32248"/>
     <use style="fill:#98df8a;stroke:#ffffff;stroke-linejoin:miter;stroke-width:0.75;" x="606.959753" xlink:href="#mce1096a2c2" y="63.840087"/>
     <use style="fill:#98df8a;stroke:#ffffff;stroke-linejoin:miter;stroke-width:0.75;" x="610.561381" xlink:href="#mce1096a2c2" y="63.277295"/>
     <use style="fill:#98df8a;stroke:#ffffff;stroke-linejoin:miter;stroke-width:0.75;" x="614.07407" xlink:href="#mce1096a2c2" y="62.9557"/>
     <use style="fill:#98df8a;stroke:#ffffff;stroke-linejoin:miter;stroke-width:0.75;" x="617.502108" xlink:href="#mce1096a2c2" y="62.714504"/>
     <use style="fill:#98df8a;stroke:#ffffff;stroke-linejoin:miter;stroke-width:0.75;" x="620.849479" xlink:href="#mce1096a2c2" y="62.714504"/>
     <use style="fill:#98df8a;stroke:#ffffff;stroke-linejoin:miter;stroke-width:0.75;" x="624.119892" xlink:href="#mce1096a2c2" y="62.714504"/>
     <use style="fill:#98df8a;stroke:#ffffff;stroke-linejoin:miter;stroke-width:0.75;" x="627.316806" xlink:href="#mce1096a2c2" y="61.910516"/>
     <use style="fill:#98df8a;stroke:#ffffff;stroke-linejoin:miter;stroke-width:0.75;" x="630.443453" xlink:href="#mce1096a2c2" y="61.669319"/>
     <use style="fill:#98df8a;stroke:#ffffff;stroke-linejoin:miter;stroke-width:0.75;" x="633.502855" xlink:href="#mce1096a2c2" y="61.428123"/>
     <use style="fill:#98df8a;stroke:#ffffff;stroke-linejoin:miter;stroke-width:0.75;" x="636.497843" xlink:href="#mce1096a2c2" y="61.267325"/>
     <use style="fill:#98df8a;stroke:#ffffff;stroke-linejoin:miter;stroke-width:0.75;" x="639.431075" xlink:href="#mce1096a2c2" y="60.94573"/>
     <use style="fill:#98df8a;stroke:#ffffff;stroke-linejoin:miter;stroke-width:0.75;" x="642.305045" xlink:href="#mce1096a2c2" y="59.418153"/>
     <use style="fill:#98df8a;stroke:#ffffff;stroke-linejoin:miter;stroke-width:0.75;" x="645.122101" xlink:href="#mce1096a2c2" y="57.890576"/>
     <use style="fill:#98df8a;stroke:#ffffff;stroke-linejoin:miter;stroke-width:0.75;" x="647.884454" xlink:href="#mce1096a2c2" y="56.92579"/>
     <use style="fill:#98df8a;stroke:#ffffff;stroke-linejoin:miter;stroke-width:0.75;" x="650.594187" xlink:href="#mce1096a2c2" y="56.604195"/>
     <use style="fill:#98df8a;stroke:#ffffff;stroke-linejoin:miter;stroke-width:0.75;" x="653.253268" xlink:href="#mce1096a2c2" y="56.041403"/>
     <use style="fill:#98df8a;stroke:#ffffff;stroke-linejoin:miter;stroke-width:0.75;" x="655.863556" xlink:href="#mce1096a2c2" y="55.800207"/>
     <use style="fill:#98df8a;stroke:#ffffff;stroke-linejoin:miter;stroke-width:0.75;" x="658.426809" xlink:href="#mce1096a2c2" y="54.594225"/>
     <use style="fill:#98df8a;stroke:#ffffff;stroke-linejoin:miter;stroke-width:0.75;" x="660.944693" xlink:href="#mce1096a2c2" y="54.433427"/>
     <use style="fill:#98df8a;stroke:#ffffff;stroke-linejoin:miter;stroke-width:0.75;" x="663.418785" xlink:href="#mce1096a2c2" y="53.951034"/>
     <use style="fill:#98df8a;stroke:#ffffff;stroke-linejoin:miter;stroke-width:0.75;" x="665.850582" xlink:href="#mce1096a2c2" y="52.343058"/>
     <use style="fill:#98df8a;stroke:#ffffff;stroke-linejoin:miter;stroke-width:0.75;" x="668.241507" xlink:href="#mce1096a2c2" y="51.137076"/>
     <use style="fill:#98df8a;stroke:#ffffff;stroke-linejoin:miter;stroke-width:0.75;" x="670.592911" xlink:href="#mce1096a2c2" y="50.011493"/>
     <use style="fill:#98df8a;stroke:#ffffff;stroke-linejoin:miter;stroke-width:0.75;" x="672.906079" xlink:href="#mce1096a2c2" y="50.011493"/>
     <use style="fill:#98df8a;stroke:#ffffff;stroke-linejoin:miter;stroke-width:0.75;" x="675.182235" xlink:href="#mce1096a2c2" y="49.850695"/>
     <use style="fill:#98df8a;stroke:#ffffff;stroke-linejoin:miter;stroke-width:0.75;" x="677.422544" xlink:href="#mce1096a2c2" y="49.609499"/>
     <use style="fill:#98df8a;stroke:#ffffff;stroke-linejoin:miter;stroke-width:0.75;" x="679.628118" xlink:href="#mce1096a2c2" y="49.5291"/>
     <use style="fill:#98df8a;stroke:#ffffff;stroke-linejoin:miter;stroke-width:0.75;" x="681.800019" xlink:href="#mce1096a2c2" y="49.5291"/>
     <use style="fill:#98df8a;stroke:#ffffff;stroke-linejoin:miter;stroke-width:0.75;" x="683.939257" xlink:href="#mce1096a2c2" y="49.448701"/>
     <use style="fill:#98df8a;stroke:#ffffff;stroke-linejoin:miter;stroke-width:0.75;" x="686.046802" xlink:href="#mce1096a2c2" y="48.805511"/>
     <use style="fill:#98df8a;stroke:#ffffff;stroke-linejoin:miter;stroke-width:0.75;" x="688.123579" xlink:href="#mce1096a2c2" y="48.564314"/>
     <use style="fill:#98df8a;stroke:#ffffff;stroke-linejoin:miter;stroke-width:0.75;" x="690.170474" xlink:href="#mce1096a2c2" y="48.483916"/>
     <use style="fill:#98df8a;stroke:#ffffff;stroke-linejoin:miter;stroke-width:0.75;" x="692.188333" xlink:href="#mce1096a2c2" y="48.483916"/>
     <use style="fill:#98df8a;stroke:#ffffff;stroke-linejoin:miter;stroke-width:0.75;" x="694.177969" xlink:href="#mce1096a2c2" y="48.403517"/>
     <use style="fill:#98df8a;stroke:#ffffff;stroke-linejoin:miter;stroke-width:0.75;" x="696.140162" xlink:href="#mce1096a2c2" y="48.323118"/>
     <use style="fill:#98df8a;stroke:#ffffff;stroke-linejoin:miter;stroke-width:0.75;" x="698.075657" xlink:href="#mce1096a2c2" y="48.242719"/>
     <use style="fill:#98df8a;stroke:#ffffff;stroke-linejoin:miter;stroke-width:0.75;" x="699.985172" xlink:href="#mce1096a2c2" y="48.16232"/>
     <use style="fill:#98df8a;stroke:#ffffff;stroke-linejoin:miter;stroke-width:0.75;" x="701.869394" xlink:href="#mce1096a2c2" y="48.16232"/>
     <use style="fill:#98df8a;stroke:#ffffff;stroke-linejoin:miter;stroke-width:0.75;" x="703.728985" xlink:href="#mce1096a2c2" y="48.16232"/>
     <use style="fill:#98df8a;stroke:#ffffff;stroke-linejoin:miter;stroke-width:0.75;" x="705.564581" xlink:href="#mce1096a2c2" y="48.001523"/>
     <use style="fill:#98df8a;stroke:#ffffff;stroke-linejoin:miter;stroke-width:0.75;" x="707.376792" xlink:href="#mce1096a2c2" y="48.001523"/>
     <use style="fill:#98df8a;stroke:#ffffff;stroke-linejoin:miter;stroke-width:0.75;" x="709.166208" xlink:href="#mce1096a2c2" y="47.921124"/>
     <use style="fill:#98df8a;stroke:#ffffff;stroke-linejoin:miter;stroke-width:0.75;" x="710.933395" xlink:href="#mce1096a2c2" y="47.921124"/>
     <use style="fill:#98df8a;stroke:#ffffff;stroke-linejoin:miter;stroke-width:0.75;" x="712.678898" xlink:href="#mce1096a2c2" y="47.921124"/>
     <use style="fill:#98df8a;stroke:#ffffff;stroke-linejoin:miter;stroke-width:0.75;" x="714.403242" xlink:href="#mce1096a2c2" y="47.921124"/>
     <use style="fill:#98df8a;stroke:#ffffff;stroke-linejoin:miter;stroke-width:0.75;" x="716.106936" xlink:href="#mce1096a2c2" y="47.921124"/>
     <use style="fill:#98df8a;stroke:#ffffff;stroke-linejoin:miter;stroke-width:0.75;" x="717.790467" xlink:href="#mce1096a2c2" y="47.840725"/>
     <use style="fill:#98df8a;stroke:#ffffff;stroke-linejoin:miter;stroke-width:0.75;" x="719.454307" xlink:href="#mce1096a2c2" y="47.840725"/>
     <use style="fill:#98df8a;stroke:#ffffff;stroke-linejoin:miter;stroke-width:0.75;" x="721.098911" xlink:href="#mce1096a2c2" y="47.840725"/>
     <use style="fill:#98df8a;stroke:#ffffff;stroke-linejoin:miter;stroke-width:0.75;" x="722.724719" xlink:href="#mce1096a2c2" y="47.760326"/>
     <use style="fill:#98df8a;stroke:#ffffff;stroke-linejoin:miter;stroke-width:0.75;" x="724.332157" xlink:href="#mce1096a2c2" y="47.760326"/>
     <use style="fill:#98df8a;stroke:#ffffff;stroke-linejoin:miter;stroke-width:0.75;" x="725.921634" xlink:href="#mce1096a2c2" y="47.760326"/>
     <use style="fill:#98df8a;stroke:#ffffff;stroke-linejoin:miter;stroke-width:0.75;" x="727.493547" xlink:href="#mce1096a2c2" y="47.760326"/>
     <use style="fill:#98df8a;stroke:#ffffff;stroke-linejoin:miter;stroke-width:0.75;" x="729.04828" xlink:href="#mce1096a2c2" y="47.51913"/>
     <use style="fill:#98df8a;stroke:#ffffff;stroke-linejoin:miter;stroke-width:0.75;" x="730.586206" xlink:href="#mce1096a2c2" y="47.51913"/>
     <use style="fill:#98df8a;stroke:#ffffff;stroke-linejoin:miter;stroke-width:0.75;" x="732.107682" xlink:href="#mce1096a2c2" y="47.438731"/>
     <use style="fill:#98df8a;stroke:#ffffff;stroke-linejoin:miter;stroke-width:0.75;" x="733.613058" xlink:href="#mce1096a2c2" y="47.438731"/>
     <use style="fill:#98df8a;stroke:#ffffff;stroke-linejoin:miter;stroke-width:0.75;" x="735.10267" xlink:href="#mce1096a2c2" y="47.438731"/>
    </g>
   </g>
   <g id="line2d_39">
    <path clip-path="url(#pa09d69884d)" d="M 85.79358 255.993228 
L 184.398407 255.993228 
L 242.078533 255.993228 
L 283.003234 255.993228 
L 314.746899 255.993228 
L 340.683361 255.993228 
L 362.612327 255.912829 
L 381.608062 249.320127 
L 398.363487 247.872949 
L 413.351726 247.872949 
L 426.910237 247.872949 
L 439.288188 247.872949 
L 450.674799 247.872949 
L 461.217155 247.872949 
L 471.031852 247.872949 
L 480.212889 247.872949 
L 488.837148 247.872949 
L 496.968315 247.872949 
L 504.659739 247.872949 
L 511.956553 246.42577 
L 518.897281 206.949958 
L 525.515065 194.809738 
L 531.838626 194.086149 
L 537.893016 193.925351 
L 543.700218 193.925351 
L 549.279627 193.925351 
L 554.648441 193.925351 
L 559.821982 193.925351 
L 564.813957 193.925351 
L 569.63668 193.925351 
L 574.301252 193.925351 
L 578.817717 193.925351 
L 583.195191 193.925351 
L 587.441975 193.925351 
L 591.565646 193.925351 
L 595.573142 193.925351 
L 599.47083 193.925351 
L 603.264566 193.925351 
L 606.959753 193.925351 
L 610.561381 193.925351 
L 614.07407 193.925351 
L 617.502108 193.925351 
L 620.849479 193.925351 
L 624.119892 193.925351 
L 627.316806 193.925351 
L 630.443453 193.925351 
L 633.502855 193.925351 
L 636.497843 193.925351 
L 639.431075 193.925351 
L 642.305045 193.925351 
L 645.122101 193.925351 
L 647.884454 193.925351 
L 650.594187 193.925351 
L 653.253268 193.925351 
L 655.863556 193.925351 
L 658.426809 193.925351 
L 660.944693 193.925351 
L 663.418785 193.925351 
L 665.850582 193.925351 
L 668.241507 193.925351 
L 670.592911 193.925351 
L 672.906079 193.925351 
L 675.182235 193.925351 
L 677.422544 193.925351 
L 679.628118 193.925351 
L 681.800019 193.925351 
L 683.939257 193.925351 
L 686.046802 193.925351 
L 688.123579 193.603756 
L 690.170474 193.603756 
L 692.188333 193.603756 
L 694.177969 193.603756 
L 696.140162 193.603756 
L 698.075657 193.603756 
L 699.985172 193.603756 
L 701.869394 193.603756 
L 703.728985 193.603756 
L 705.564581 193.603756 
L 707.376792 193.603756 
L 709.166208 193.603756 
L 710.933395 193.603756 
L 712.678898 193.603756 
L 714.403242 193.603756 
L 716.106936 193.603756 
L 717.790467 193.603756 
L 719.454307 193.603756 
L 721.098911 190.709399 
L 722.724719 190.709399 
L 724.332157 190.709399 
L 725.921634 190.709399 
L 727.493547 190.709399 
L 729.04828 190.709399 
L 730.586206 190.709399 
L 732.107682 190.709399 
L 733.613058 190.709399 
L 735.10267 190.709399 
" style="fill:none;stroke:#1f77b4;stroke-linecap:square;stroke-width:1.5;"/>
    <defs>
     <path d="M 0 3 
C 0.795609 3 1.55874 2.683901 2.12132 2.12132 
C 2.683901 1.55874 3 0.795609 3 0 
C 3 -0.795609 2.683901 -1.55874 2.12132 -2.12132 
C 1.55874 -2.683901 0.795609 -3 0 -3 
C -0.795609 -3 -1.55874 -2.683901 -2.12132 -2.12132 
C -2.683901 -1.55874 -3 -0.795609 -3 0 
C -3 0.795609 -2.683901 1.55874 -2.12132 2.12132 
C -1.55874 2.683901 -0.795609 3 0 3 
z
" id="m9bf56f7f8c" style="stroke:#ffffff;stroke-width:0.75;"/>
    </defs>
    <g clip-path="url(#pa09d69884d)">
     <use style="fill:#1f77b4;stroke:#ffffff;stroke-width:0.75;" x="85.79358" xlink:href="#m9bf56f7f8c" y="255.993228"/>
     <use style="fill:#1f77b4;stroke:#ffffff;stroke-width:0.75;" x="184.398407" xlink:href="#m9bf56f7f8c" y="255.993228"/>
     <use style="fill:#1f77b4;stroke:#ffffff;stroke-width:0.75;" x="242.078533" xlink:href="#m9bf56f7f8c" y="255.993228"/>
     <use style="fill:#1f77b4;stroke:#ffffff;stroke-width:0.75;" x="283.003234" xlink:href="#m9bf56f7f8c" y="255.993228"/>
     <use style="fill:#1f77b4;stroke:#ffffff;stroke-width:0.75;" x="314.746899" xlink:href="#m9bf56f7f8c" y="255.993228"/>
     <use style="fill:#1f77b4;stroke:#ffffff;stroke-width:0.75;" x="340.683361" xlink:href="#m9bf56f7f8c" y="255.993228"/>
     <use style="fill:#1f77b4;stroke:#ffffff;stroke-width:0.75;" x="362.612327" xlink:href="#m9bf56f7f8c" y="255.912829"/>
     <use style="fill:#1f77b4;stroke:#ffffff;stroke-width:0.75;" x="381.608062" xlink:href="#m9bf56f7f8c" y="249.320127"/>
     <use style="fill:#1f77b4;stroke:#ffffff;stroke-width:0.75;" x="398.363487" xlink:href="#m9bf56f7f8c" y="247.872949"/>
     <use style="fill:#1f77b4;stroke:#ffffff;stroke-width:0.75;" x="413.351726" xlink:href="#m9bf56f7f8c" y="247.872949"/>
     <use style="fill:#1f77b4;stroke:#ffffff;stroke-width:0.75;" x="426.910237" xlink:href="#m9bf56f7f8c" y="247.872949"/>
     <use style="fill:#1f77b4;stroke:#ffffff;stroke-width:0.75;" x="439.288188" xlink:href="#m9bf56f7f8c" y="247.872949"/>
     <use style="fill:#1f77b4;stroke:#ffffff;stroke-width:0.75;" x="450.674799" xlink:href="#m9bf56f7f8c" y="247.872949"/>
     <use style="fill:#1f77b4;stroke:#ffffff;stroke-width:0.75;" x="461.217155" xlink:href="#m9bf56f7f8c" y="247.872949"/>
     <use style="fill:#1f77b4;stroke:#ffffff;stroke-width:0.75;" x="471.031852" xlink:href="#m9bf56f7f8c" y="247.872949"/>
     <use style="fill:#1f77b4;stroke:#ffffff;stroke-width:0.75;" x="480.212889" xlink:href="#m9bf56f7f8c" y="247.872949"/>
     <use style="fill:#1f77b4;stroke:#ffffff;stroke-width:0.75;" x="488.837148" xlink:href="#m9bf56f7f8c" y="247.872949"/>
     <use style="fill:#1f77b4;stroke:#ffffff;stroke-width:0.75;" x="496.968315" xlink:href="#m9bf56f7f8c" y="247.872949"/>
     <use style="fill:#1f77b4;stroke:#ffffff;stroke-width:0.75;" x="504.659739" xlink:href="#m9bf56f7f8c" y="247.872949"/>
     <use style="fill:#1f77b4;stroke:#ffffff;stroke-width:0.75;" x="511.956553" xlink:href="#m9bf56f7f8c" y="246.42577"/>
     <use style="fill:#1f77b4;stroke:#ffffff;stroke-width:0.75;" x="518.897281" xlink:href="#m9bf56f7f8c" y="206.949958"/>
     <use style="fill:#1f77b4;stroke:#ffffff;stroke-width:0.75;" x="525.515065" xlink:href="#m9bf56f7f8c" y="194.809738"/>
     <use style="fill:#1f77b4;stroke:#ffffff;stroke-width:0.75;" x="531.838626" xlink:href="#m9bf56f7f8c" y="194.086149"/>
     <use style="fill:#1f77b4;stroke:#ffffff;stroke-width:0.75;" x="537.893016" xlink:href="#m9bf56f7f8c" y="193.925351"/>
     <use style="fill:#1f77b4;stroke:#ffffff;stroke-width:0.75;" x="543.700218" xlink:href="#m9bf56f7f8c" y="193.925351"/>
     <use style="fill:#1f77b4;stroke:#ffffff;stroke-width:0.75;" x="549.279627" xlink:href="#m9bf56f7f8c" y="193.925351"/>
     <use style="fill:#1f77b4;stroke:#ffffff;stroke-width:0.75;" x="554.648441" xlink:href="#m9bf56f7f8c" y="193.925351"/>
     <use style="fill:#1f77b4;stroke:#ffffff;stroke-width:0.75;" x="559.821982" xlink:href="#m9bf56f7f8c" y="193.925351"/>
     <use style="fill:#1f77b4;stroke:#ffffff;stroke-width:0.75;" x="564.813957" xlink:href="#m9bf56f7f8c" y="193.925351"/>
     <use style="fill:#1f77b4;stroke:#ffffff;stroke-width:0.75;" x="569.63668" xlink:href="#m9bf56f7f8c" y="193.925351"/>
     <use style="fill:#1f77b4;stroke:#ffffff;stroke-width:0.75;" x="574.301252" xlink:href="#m9bf56f7f8c" y="193.925351"/>
     <use style="fill:#1f77b4;stroke:#ffffff;stroke-width:0.75;" x="578.817717" xlink:href="#m9bf56f7f8c" y="193.925351"/>
     <use style="fill:#1f77b4;stroke:#ffffff;stroke-width:0.75;" x="583.195191" xlink:href="#m9bf56f7f8c" y="193.925351"/>
     <use style="fill:#1f77b4;stroke:#ffffff;stroke-width:0.75;" x="587.441975" xlink:href="#m9bf56f7f8c" y="193.925351"/>
     <use style="fill:#1f77b4;stroke:#ffffff;stroke-width:0.75;" x="591.565646" xlink:href="#m9bf56f7f8c" y="193.925351"/>
     <use style="fill:#1f77b4;stroke:#ffffff;stroke-width:0.75;" x="595.573142" xlink:href="#m9bf56f7f8c" y="193.925351"/>
     <use style="fill:#1f77b4;stroke:#ffffff;stroke-width:0.75;" x="599.47083" xlink:href="#m9bf56f7f8c" y="193.925351"/>
     <use style="fill:#1f77b4;stroke:#ffffff;stroke-width:0.75;" x="603.264566" xlink:href="#m9bf56f7f8c" y="193.925351"/>
     <use style="fill:#1f77b4;stroke:#ffffff;stroke-width:0.75;" x="606.959753" xlink:href="#m9bf56f7f8c" y="193.925351"/>
     <use style="fill:#1f77b4;stroke:#ffffff;stroke-width:0.75;" x="610.561381" xlink:href="#m9bf56f7f8c" y="193.925351"/>
     <use style="fill:#1f77b4;stroke:#ffffff;stroke-width:0.75;" x="614.07407" xlink:href="#m9bf56f7f8c" y="193.925351"/>
     <use style="fill:#1f77b4;stroke:#ffffff;stroke-width:0.75;" x="617.502108" xlink:href="#m9bf56f7f8c" y="193.925351"/>
     <use style="fill:#1f77b4;stroke:#ffffff;stroke-width:0.75;" x="620.849479" xlink:href="#m9bf56f7f8c" y="193.925351"/>
     <use style="fill:#1f77b4;stroke:#ffffff;stroke-width:0.75;" x="624.119892" xlink:href="#m9bf56f7f8c" y="193.925351"/>
     <use style="fill:#1f77b4;stroke:#ffffff;stroke-width:0.75;" x="627.316806" xlink:href="#m9bf56f7f8c" y="193.925351"/>
     <use style="fill:#1f77b4;stroke:#ffffff;stroke-width:0.75;" x="630.443453" xlink:href="#m9bf56f7f8c" y="193.925351"/>
     <use style="fill:#1f77b4;stroke:#ffffff;stroke-width:0.75;" x="633.502855" xlink:href="#m9bf56f7f8c" y="193.925351"/>
     <use style="fill:#1f77b4;stroke:#ffffff;stroke-width:0.75;" x="636.497843" xlink:href="#m9bf56f7f8c" y="193.925351"/>
     <use style="fill:#1f77b4;stroke:#ffffff;stroke-width:0.75;" x="639.431075" xlink:href="#m9bf56f7f8c" y="193.925351"/>
     <use style="fill:#1f77b4;stroke:#ffffff;stroke-width:0.75;" x="642.305045" xlink:href="#m9bf56f7f8c" y="193.925351"/>
     <use style="fill:#1f77b4;stroke:#ffffff;stroke-width:0.75;" x="645.122101" xlink:href="#m9bf56f7f8c" y="193.925351"/>
     <use style="fill:#1f77b4;stroke:#ffffff;stroke-width:0.75;" x="647.884454" xlink:href="#m9bf56f7f8c" y="193.925351"/>
     <use style="fill:#1f77b4;stroke:#ffffff;stroke-width:0.75;" x="650.594187" xlink:href="#m9bf56f7f8c" y="193.925351"/>
     <use style="fill:#1f77b4;stroke:#ffffff;stroke-width:0.75;" x="653.253268" xlink:href="#m9bf56f7f8c" y="193.925351"/>
     <use style="fill:#1f77b4;stroke:#ffffff;stroke-width:0.75;" x="655.863556" xlink:href="#m9bf56f7f8c" y="193.925351"/>
     <use style="fill:#1f77b4;stroke:#ffffff;stroke-width:0.75;" x="658.426809" xlink:href="#m9bf56f7f8c" y="193.925351"/>
     <use style="fill:#1f77b4;stroke:#ffffff;stroke-width:0.75;" x="660.944693" xlink:href="#m9bf56f7f8c" y="193.925351"/>
     <use style="fill:#1f77b4;stroke:#ffffff;stroke-width:0.75;" x="663.418785" xlink:href="#m9bf56f7f8c" y="193.925351"/>
     <use style="fill:#1f77b4;stroke:#ffffff;stroke-width:0.75;" x="665.850582" xlink:href="#m9bf56f7f8c" y="193.925351"/>
     <use style="fill:#1f77b4;stroke:#ffffff;stroke-width:0.75;" x="668.241507" xlink:href="#m9bf56f7f8c" y="193.925351"/>
     <use style="fill:#1f77b4;stroke:#ffffff;stroke-width:0.75;" x="670.592911" xlink:href="#m9bf56f7f8c" y="193.925351"/>
     <use style="fill:#1f77b4;stroke:#ffffff;stroke-width:0.75;" x="672.906079" xlink:href="#m9bf56f7f8c" y="193.925351"/>
     <use style="fill:#1f77b4;stroke:#ffffff;stroke-width:0.75;" x="675.182235" xlink:href="#m9bf56f7f8c" y="193.925351"/>
     <use style="fill:#1f77b4;stroke:#ffffff;stroke-width:0.75;" x="677.422544" xlink:href="#m9bf56f7f8c" y="193.925351"/>
     <use style="fill:#1f77b4;stroke:#ffffff;stroke-width:0.75;" x="679.628118" xlink:href="#m9bf56f7f8c" y="193.925351"/>
     <use style="fill:#1f77b4;stroke:#ffffff;stroke-width:0.75;" x="681.800019" xlink:href="#m9bf56f7f8c" y="193.925351"/>
     <use style="fill:#1f77b4;stroke:#ffffff;stroke-width:0.75;" x="683.939257" xlink:href="#m9bf56f7f8c" y="193.925351"/>
     <use style="fill:#1f77b4;stroke:#ffffff;stroke-width:0.75;" x="686.046802" xlink:href="#m9bf56f7f8c" y="193.925351"/>
     <use style="fill:#1f77b4;stroke:#ffffff;stroke-width:0.75;" x="688.123579" xlink:href="#m9bf56f7f8c" y="193.603756"/>
     <use style="fill:#1f77b4;stroke:#ffffff;stroke-width:0.75;" x="690.170474" xlink:href="#m9bf56f7f8c" y="193.603756"/>
     <use style="fill:#1f77b4;stroke:#ffffff;stroke-width:0.75;" x="692.188333" xlink:href="#m9bf56f7f8c" y="193.603756"/>
     <use style="fill:#1f77b4;stroke:#ffffff;stroke-width:0.75;" x="694.177969" xlink:href="#m9bf56f7f8c" y="193.603756"/>
     <use style="fill:#1f77b4;stroke:#ffffff;stroke-width:0.75;" x="696.140162" xlink:href="#m9bf56f7f8c" y="193.603756"/>
     <use style="fill:#1f77b4;stroke:#ffffff;stroke-width:0.75;" x="698.075657" xlink:href="#m9bf56f7f8c" y="193.603756"/>
     <use style="fill:#1f77b4;stroke:#ffffff;stroke-width:0.75;" x="699.985172" xlink:href="#m9bf56f7f8c" y="193.603756"/>
     <use style="fill:#1f77b4;stroke:#ffffff;stroke-width:0.75;" x="701.869394" xlink:href="#m9bf56f7f8c" y="193.603756"/>
     <use style="fill:#1f77b4;stroke:#ffffff;stroke-width:0.75;" x="703.728985" xlink:href="#m9bf56f7f8c" y="193.603756"/>
     <use style="fill:#1f77b4;stroke:#ffffff;stroke-width:0.75;" x="705.564581" xlink:href="#m9bf56f7f8c" y="193.603756"/>
     <use style="fill:#1f77b4;stroke:#ffffff;stroke-width:0.75;" x="707.376792" xlink:href="#m9bf56f7f8c" y="193.603756"/>
     <use style="fill:#1f77b4;stroke:#ffffff;stroke-width:0.75;" x="709.166208" xlink:href="#m9bf56f7f8c" y="193.603756"/>
     <use style="fill:#1f77b4;stroke:#ffffff;stroke-width:0.75;" x="710.933395" xlink:href="#m9bf56f7f8c" y="193.603756"/>
     <use style="fill:#1f77b4;stroke:#ffffff;stroke-width:0.75;" x="712.678898" xlink:href="#m9bf56f7f8c" y="193.603756"/>
     <use style="fill:#1f77b4;stroke:#ffffff;stroke-width:0.75;" x="714.403242" xlink:href="#m9bf56f7f8c" y="193.603756"/>
     <use style="fill:#1f77b4;stroke:#ffffff;stroke-width:0.75;" x="716.106936" xlink:href="#m9bf56f7f8c" y="193.603756"/>
     <use style="fill:#1f77b4;stroke:#ffffff;stroke-width:0.75;" x="717.790467" xlink:href="#m9bf56f7f8c" y="193.603756"/>
     <use style="fill:#1f77b4;stroke:#ffffff;stroke-width:0.75;" x="719.454307" xlink:href="#m9bf56f7f8c" y="193.603756"/>
     <use style="fill:#1f77b4;stroke:#ffffff;stroke-width:0.75;" x="721.098911" xlink:href="#m9bf56f7f8c" y="190.709399"/>
     <use style="fill:#1f77b4;stroke:#ffffff;stroke-width:0.75;" x="722.724719" xlink:href="#m9bf56f7f8c" y="190.709399"/>
     <use style="fill:#1f77b4;stroke:#ffffff;stroke-width:0.75;" x="724.332157" xlink:href="#m9bf56f7f8c" y="190.709399"/>
     <use style="fill:#1f77b4;stroke:#ffffff;stroke-width:0.75;" x="725.921634" xlink:href="#m9bf56f7f8c" y="190.709399"/>
     <use style="fill:#1f77b4;stroke:#ffffff;stroke-width:0.75;" x="727.493547" xlink:href="#m9bf56f7f8c" y="190.709399"/>
     <use style="fill:#1f77b4;stroke:#ffffff;stroke-width:0.75;" x="729.04828" xlink:href="#m9bf56f7f8c" y="190.709399"/>
     <use style="fill:#1f77b4;stroke:#ffffff;stroke-width:0.75;" x="730.586206" xlink:href="#m9bf56f7f8c" y="190.709399"/>
     <use style="fill:#1f77b4;stroke:#ffffff;stroke-width:0.75;" x="732.107682" xlink:href="#m9bf56f7f8c" y="190.709399"/>
     <use style="fill:#1f77b4;stroke:#ffffff;stroke-width:0.75;" x="733.613058" xlink:href="#m9bf56f7f8c" y="190.709399"/>
     <use style="fill:#1f77b4;stroke:#ffffff;stroke-width:0.75;" x="735.10267" xlink:href="#m9bf56f7f8c" y="190.709399"/>
    </g>
   </g>
   <g id="line2d_40"/>
   <g id="line2d_41"/>
   <g id="line2d_42">
    <path clip-path="url(#pa09d69884d)" d="M 735.10267 288.430125 
L 735.10267 22.318125 
" style="fill:none;stroke:#ff0000;stroke-linecap:square;stroke-width:1.5;"/>
   </g>
   <g id="patch_3">
    <path d="M 53.328125 272.072988 
L 53.328125 46.956338 
" style="fill:none;stroke:#000000;stroke-linecap:square;stroke-linejoin:miter;stroke-width:0.8;"/>
   </g>
   <g id="patch_4">
    <path d="M 85.79358 288.430125 
L 735.104317 288.430125 
" style="fill:none;stroke:#000000;stroke-linecap:square;stroke-linejoin:miter;stroke-width:0.8;"/>
   </g>
   <g id="text_23">
    <!-- bloaty_fuzz_target (24h, 10 trials/fuzzer) -->
    <g transform="translate(288.534688 16.318125)scale(0.12 -0.12)">
     <defs>
      <path d="M 603 4863 
L 1178 4863 
L 1178 0 
L 603 0 
L 603 4863 
z
" id="DejaVuSans-6c" transform="scale(0.015625)"/>
      <path d="M 2059 -325 
Q 1816 -950 1584 -1140 
Q 1353 -1331 966 -1331 
L 506 -1331 
L 506 -850 
L 844 -850 
Q 1081 -850 1212 -737 
Q 1344 -625 1503 -206 
L 1606 56 
L 191 3500 
L 800 3500 
L 1894 763 
L 2988 3500 
L 3597 3500 
L 2059 -325 
z
" id="DejaVuSans-79" transform="scale(0.015625)"/>
      <path d="M 3263 -1063 
L 3263 -1509 
L -63 -1509 
L -63 -1063 
L 3263 -1063 
z
" id="DejaVuSans-5f" transform="scale(0.015625)"/>
      <path d="M 2375 4863 
L 2375 4384 
L 1825 4384 
Q 1516 4384 1395 4259 
Q 1275 4134 1275 3809 
L 1275 3500 
L 2222 3500 
L 2222 3053 
L 1275 3053 
L 1275 0 
L 697 0 
L 697 3053 
L 147 3053 
L 147 3500 
L 697 3500 
L 697 3744 
Q 697 4328 969 4595 
Q 1241 4863 1831 4863 
L 2375 4863 
z
" id="DejaVuSans-66" transform="scale(0.015625)"/>
      <path d="M 353 3500 
L 3084 3500 
L 3084 2975 
L 922 459 
L 3084 459 
L 3084 0 
L 275 0 
L 275 525 
L 2438 3041 
L 353 3041 
L 353 3500 
z
" id="DejaVuSans-7a" transform="scale(0.015625)"/>
      <path d="M 750 794 
L 1409 794 
L 1409 256 
L 897 -744 
L 494 -744 
L 750 256 
L 750 794 
z
" id="DejaVuSans-2c" transform="scale(0.015625)"/>
      <path d="M 2834 3397 
L 2834 2853 
Q 2591 2978 2328 3040 
Q 2066 3103 1784 3103 
Q 1356 3103 1142 2972 
Q 928 2841 928 2578 
Q 928 2378 1081 2264 
Q 1234 2150 1697 2047 
L 1894 2003 
Q 2506 1872 2764 1633 
Q 3022 1394 3022 966 
Q 3022 478 2636 193 
Q 2250 -91 1575 -91 
Q 1294 -91 989 -36 
Q 684 19 347 128 
L 347 722 
Q 666 556 975 473 
Q 1284 391 1588 391 
Q 1994 391 2212 530 
Q 2431 669 2431 922 
Q 2431 1156 2273 1281 
Q 2116 1406 1581 1522 
L 1381 1569 
Q 847 1681 609 1914 
Q 372 2147 372 2553 
Q 372 3047 722 3315 
Q 1072 3584 1716 3584 
Q 2034 3584 2315 3537 
Q 2597 3491 2834 3397 
z
" id="DejaVuSans-73" transform="scale(0.015625)"/>
      <path d="M 1625 4666 
L 2156 4666 
L 531 -594 
L 0 -594 
L 1625 4666 
z
" id="DejaVuSans-2f" transform="scale(0.015625)"/>
     </defs>
     <use xlink:href="#DejaVuSans-62"/>
     <use x="63.476562" xlink:href="#DejaVuSans-6c"/>
     <use x="91.259766" xlink:href="#DejaVuSans-6f"/>
     <use x="152.441406" xlink:href="#DejaVuSans-61"/>
     <use x="213.720703" xlink:href="#DejaVuSans-74"/>
     <use x="252.929688" xlink:href="#DejaVuSans-79"/>
     <use x="312.109375" xlink:href="#DejaVuSans-5f"/>
     <use x="362.109375" xlink:href="#DejaVuSans-66"/>
     <use x="397.314453" xlink:href="#DejaVuSans-75"/>
     <use x="460.693359" xlink:href="#DejaVuSans-7a"/>
     <use x="513.183594" xlink:href="#DejaVuSans-7a"/>
     <use x="565.673828" xlink:href="#DejaVuSans-5f"/>
     <use x="615.673828" xlink:href="#DejaVuSans-74"/>
     <use x="654.882812" xlink:href="#DejaVuSans-61"/>
     <use x="716.162109" xlink:href="#DejaVuSans-72"/>
     <use x="755.525391" xlink:href="#DejaVuSans-67"/>
     <use x="819.001953" xlink:href="#DejaVuSans-65"/>
     <use x="880.525391" xlink:href="#DejaVuSans-74"/>
     <use x="919.734375" xlink:href="#DejaVuSans-20"/>
     <use x="951.521484" xlink:href="#DejaVuSans-28"/>
     <use x="990.535156" xlink:href="#DejaVuSans-32"/>
     <use x="1054.158203" xlink:href="#DejaVuSans-34"/>
     <use x="1117.78125" xlink:href="#DejaVuSans-68"/>
     <use x="1181.160156" xlink:href="#DejaVuSans-2c"/>
     <use x="1212.947266" xlink:href="#DejaVuSans-20"/>
     <use x="1244.734375" xlink:href="#DejaVuSans-31"/>
     <use x="1308.357422" xlink:href="#DejaVuSans-30"/>
     <use x="1371.980469" xlink:href="#DejaVuSans-20"/>
     <use x="1403.767578" xlink:href="#DejaVuSans-74"/>
     <use x="1442.976562" xlink:href="#DejaVuSans-72"/>
     <use x="1484.089844" xlink:href="#DejaVuSans-69"/>
     <use x="1511.873047" xlink:href="#DejaVuSans-61"/>
     <use x="1573.152344" xlink:href="#DejaVuSans-6c"/>
     <use x="1600.935547" xlink:href="#DejaVuSans-73"/>
     <use x="1653.035156" xlink:href="#DejaVuSans-2f"/>
     <use x="1686.726562" xlink:href="#DejaVuSans-66"/>
     <use x="1721.931641" xlink:href="#DejaVuSans-75"/>
     <use x="1785.310547" xlink:href="#DejaVuSans-7a"/>
     <use x="1837.800781" xlink:href="#DejaVuSans-7a"/>
     <use x="1890.291016" xlink:href="#DejaVuSans-65"/>
     <use x="1951.814453" xlink:href="#DejaVuSans-72"/>
     <use x="1992.927734" xlink:href="#DejaVuSans-29"/>
    </g>
   </g>
   <g id="legend_1">
    <g id="line2d_43">
     <path d="M 771.568125 30.416562 
L 791.568125 30.416562 
" style="fill:none;stroke:#98df8a;stroke-linecap:square;stroke-width:1.5;"/>
    </g>
    <g id="line2d_44">
     <defs>
      <path d="M -0 3 
L 3 -3 
L -3 -3 
z
" id="m41b5045f7b" style="stroke:#98df8a;stroke-linejoin:miter;"/>
     </defs>
     <g>
      <use style="fill:#98df8a;stroke:#98df8a;stroke-linejoin:miter;" x="781.568125" xlink:href="#m41b5045f7b" y="30.416562"/>
     </g>
    </g>
    <g id="text_24">
     <!-- libfuzzer -->
     <g transform="translate(799.568125 33.916562)scale(0.1 -0.1)">
      <use xlink:href="#DejaVuSans-6c"/>
      <use x="27.783203" xlink:href="#DejaVuSans-69"/>
      <use x="55.566406" xlink:href="#DejaVuSans-62"/>
      <use x="119.042969" xlink:href="#DejaVuSans-66"/>
      <use x="154.248047" xlink:href="#DejaVuSans-75"/>
      <use x="217.626953" xlink:href="#DejaVuSans-7a"/>
      <use x="270.117188" xlink:href="#DejaVuSans-7a"/>
      <use x="322.607422" xlink:href="#DejaVuSans-65"/>
      <use x="384.130859" xlink:href="#DejaVuSans-72"/>
     </g>
    </g>
    <g id="line2d_45">
     <path d="M 771.568125 45.094688 
L 791.568125 45.094688 
" style="fill:none;stroke:#1f77b4;stroke-linecap:square;stroke-width:1.5;"/>
    </g>
    <g id="line2d_46">
     <defs>
      <path d="M 0 3 
C 0.795609 3 1.55874 2.683901 2.12132 2.12132 
C 2.683901 1.55874 3 0.795609 3 0 
C 3 -0.795609 2.683901 -1.55874 2.12132 -2.12132 
C 1.55874 -2.683901 0.795609 -3 0 -3 
C -0.795609 -3 -1.55874 -2.683901 -2.12132 -2.12132 
C -2.683901 -1.55874 -3 -0.795609 -3 0 
C -3 0.795609 -2.683901 1.55874 -2.12132 2.12132 
C -1.55874 2.683901 -0.795609 3 0 3 
z
" id="m950c567a6c" style="stroke:#1f77b4;"/>
     </defs>
     <g>
      <use style="fill:#1f77b4;stroke:#1f77b4;" x="781.568125" xlink:href="#m950c567a6c" y="45.094688"/>
     </g>
    </g>
    <g id="text_25">
     <!-- aflplusplus -->
     <g transform="translate(799.568125 48.594688)scale(0.1 -0.1)">
      <defs>
       <path d="M 1159 525 
L 1159 -1331 
L 581 -1331 
L 581 3500 
L 1159 3500 
L 1159 2969 
Q 1341 3281 1617 3432 
Q 1894 3584 2278 3584 
Q 2916 3584 3314 3078 
Q 3713 2572 3713 1747 
Q 3713 922 3314 415 
Q 2916 -91 2278 -91 
Q 1894 -91 1617 61 
Q 1341 213 1159 525 
z
M 3116 1747 
Q 3116 2381 2855 2742 
Q 2594 3103 2138 3103 
Q 1681 3103 1420 2742 
Q 1159 2381 1159 1747 
Q 1159 1113 1420 752 
Q 1681 391 2138 391 
Q 2594 391 2855 752 
Q 3116 1113 3116 1747 
z
" id="DejaVuSans-70" transform="scale(0.015625)"/>
      </defs>
      <use xlink:href="#DejaVuSans-61"/>
      <use x="61.279297" xlink:href="#DejaVuSans-66"/>
      <use x="96.484375" xlink:href="#DejaVuSans-6c"/>
      <use x="124.267578" xlink:href="#DejaVuSans-70"/>
      <use x="187.744141" xlink:href="#DejaVuSans-6c"/>
      <use x="215.527344" xlink:href="#DejaVuSans-75"/>
      <use x="278.90625" xlink:href="#DejaVuSans-73"/>
      <use x="331.005859" xlink:href="#DejaVuSans-70"/>
      <use x="394.482422" xlink:href="#DejaVuSans-6c"/>
      <use x="422.265625" xlink:href="#DejaVuSans-75"/>
      <use x="485.644531" xlink:href="#DejaVuSans-73"/>
     </g>
    </g>
   </g>
  </g>
 </g>
 <defs>
  <clipPath id="pa09d69884d">
   <rect height="266.112" width="714.24" x="53.328125" y="22.318125"/>
  </clipPath>
 </defs>
</svg>
