<?xml version="1.0" encoding="utf-8" standalone="no"?>
<!DOCTYPE svg PUBLIC "-//W3C//DTD SVG 1.1//EN"
  "http://www.w3.org/Graphics/SVG/1.1/DTD/svg11.dtd">
<svg height="325.986375pt" version="1.1" viewBox="0 0 864.541562 325.986375" width="864.541562pt" xmlns="http://www.w3.org/2000/svg" xmlns:xlink="http://www.w3.org/1999/xlink">
 <metadata>
  <rdf:RDF xmlns:cc="http://creativecommons.org/ns#" xmlns:dc="http://purl.org/dc/elements/1.1/" xmlns:rdf="http://www.w3.org/1999/02/22-rdf-syntax-ns#">
   <cc:Work>
    <dc:type rdf:resource="http://purl.org/dc/dcmitype/StillImage"/>
    <dc:date>2022-06-11T16:52:24.546606</dc:date>
    <dc:format>image/svg+xml</dc:format>
    <dc:creator>
     <cc:Agent>
      <dc:title>Matplotlib v3.4.1, https://matplotlib.org/</dc:title>
     </cc:Agent>
    </dc:creator>
   </cc:Work>
  </rdf:RDF>
 </metadata>
 <defs>
  <style type="text/css">*{stroke-linecap:butt;stroke-linejoin:round;}</style>
 </defs>
 <g id="figure_1">
  <g id="patch_1">
   <path d="M 0 325.986375 
L 864.541562 325.986375 
L 864.541562 0 
L 0 0 
z
" style="fill:#ffffff;"/>
  </g>
  <g id="axes_1">
   <g id="patch_2">
    <path d="M 53.328125 288.430125 
L 767.568125 288.430125 
L 767.568125 22.318125 
L 53.328125 22.318125 
z
" style="fill:#ffffff;"/>
   </g>
   <g id="PolyCollection_1">
    <defs>
     <path d="M 85.79358 -122.921336 
L 85.79358 -118.135742 
L 184.398407 -125.891704 
L 242.078533 -171.107311 
L 283.003234 -172.097434 
L 314.746899 -173.417598 
L 340.683361 -174.407721 
L 362.612327 -184.473969 
L 381.608062 -184.473969 
L 398.363487 -186.619235 
L 413.351726 -206.751732 
L 426.910237 -219.623328 
L 439.288188 -221.273532 
L 450.674799 -228.864474 
L 461.217155 -216.322918 
L 471.031852 -216.322918 
L 480.212889 -232.989985 
L 488.837148 -232.989985 
L 496.968315 -232.989985 
L 504.659739 -264.178853 
L 511.956553 -236.434788 
L 518.897281 -236.950476 
L 525.515065 -235.960354 
L 531.838626 -236.950476 
L 537.893016 -236.950476 
L 543.700218 -268.469385 
L 549.279627 -269.129467 
L 554.648441 -271.769794 
L 559.821982 -269.129467 
L 564.813957 -271.720288 
L 569.63668 -269.129467 
L 574.301252 -271.769794 
L 578.817717 -269.789549 
L 583.195191 -272.429876 
L 587.441975 -272.759917 
L 591.565646 -272.759917 
L 595.573142 -272.759917 
L 599.47083 -272.759917 
L 603.264566 -272.759917 
L 606.959753 -273.254979 
L 610.561381 -273.419999 
L 614.07407 -274.080081 
L 617.502108 -274.080081 
L 620.849479 -273.75004 
L 624.119892 -274.080081 
L 627.316806 -274.410122 
L 630.443453 -274.405996 
L 633.502855 -274.740163 
L 636.497843 -274.740163 
L 639.431075 -274.740163 
L 642.305045 -274.410122 
L 645.122101 -274.410122 
L 647.884454 -274.740163 
L 650.594187 -274.740163 
L 653.253268 -274.905183 
L 655.863556 -274.905183 
L 658.426809 -274.905183 
L 660.944693 -275.070204 
L 663.418785 -274.905183 
L 665.850582 -274.905183 
L 668.241507 -275.070204 
L 670.592911 -275.070204 
L 672.906079 -275.066078 
L 675.182235 -274.905183 
L 677.422544 -274.905183 
L 679.628118 -274.905183 
L 681.800019 -275.070204 
L 683.939257 -274.905183 
L 686.046802 -275.070204 
L 688.123579 -275.070204 
L 690.170474 -275.070204 
L 692.188333 -275.070204 
L 694.177969 -275.070204 
L 696.140162 -275.070204 
L 698.075657 -275.070204 
L 699.985172 -275.070204 
L 701.869394 -275.070204 
L 703.728985 -275.070204 
L 705.564581 -275.070204 
L 707.376792 -275.070204 
L 709.166208 -275.070204 
L 710.933395 -275.070204 
L 712.678898 -275.070204 
L 714.403242 -275.070204 
L 716.106936 -275.070204 
L 717.790467 -275.070204 
L 719.454307 -275.070204 
L 721.098911 -275.070204 
L 722.724719 -275.070204 
L 724.332157 -275.070204 
L 725.921634 -275.070204 
L 727.493547 -275.070204 
L 729.04828 -275.070204 
L 730.586206 -275.070204 
L 732.107682 -275.070204 
L 733.613058 -275.070204 
L 735.10267 -275.070204 
L 735.10267 -291.57225 
L 735.10267 -291.57225 
L 733.613058 -291.57225 
L 732.107682 -291.57225 
L 730.586206 -291.57225 
L 729.04828 -291.242209 
L 727.493547 -291.242209 
L 725.921634 -291.242209 
L 724.332157 -291.242209 
L 722.724719 -291.242209 
L 721.098911 -291.242209 
L 719.454307 -291.242209 
L 717.790467 -291.242209 
L 716.106936 -291.242209 
L 714.403242 -291.242209 
L 712.678898 -291.242209 
L 710.933395 -291.242209 
L 709.166208 -291.242209 
L 707.376792 -291.242209 
L 705.564581 -291.242209 
L 703.728985 -291.242209 
L 701.869394 -291.242209 
L 699.985172 -290.912168 
L 698.075657 -290.912168 
L 696.140162 -291.077189 
L 694.177969 -290.912168 
L 692.188333 -290.912168 
L 690.170474 -290.912168 
L 688.123579 -290.916294 
L 686.046802 -290.912168 
L 683.939257 -290.912168 
L 681.800019 -290.582127 
L 679.628118 -290.912168 
L 677.422544 -290.582127 
L 675.182235 -290.912168 
L 672.906079 -290.582127 
L 670.592911 -290.582127 
L 668.241507 -290.582127 
L 665.850582 -290.582127 
L 663.418785 -290.582127 
L 660.944693 -290.582127 
L 658.426809 -290.582127 
L 655.863556 -290.252086 
L 653.253268 -290.417107 
L 650.594187 -290.252086 
L 647.884454 -288.10682 
L 645.122101 -288.10682 
L 642.305045 -288.10682 
L 639.431075 -288.10682 
L 636.497843 -288.10682 
L 633.502855 -286.951677 
L 630.443453 -287.9418 
L 627.316806 -286.951677 
L 624.119892 -287.9418 
L 620.849479 -287.9418 
L 617.502108 -286.951677 
L 614.07407 -287.9418 
L 610.561381 -285.631513 
L 606.959753 -285.631513 
L 603.264566 -285.631513 
L 599.47083 -282.001063 
L 595.573142 -282.025816 
L 591.565646 -282.025816 
L 587.441975 -282.021691 
L 583.195191 -282.826165 
L 578.817717 -283.651268 
L 574.301252 -279.690777 
L 569.63668 -280.185838 
L 564.813957 -278.370613 
L 559.821982 -280.020818 
L 554.648441 -280.020818 
L 549.279627 -279.525756 
L 543.700218 -278.040572 
L 537.893016 -279.525756 
L 531.838626 -278.370613 
L 525.515065 -276.060326 
L 518.897281 -275.416747 
L 511.956553 -275.400245 
L 504.659739 -276.060326 
L 496.968315 -275.416747 
L 488.837148 -276.060326 
L 480.212889 -275.400245 
L 471.031852 -276.076828 
L 461.217155 -275.565265 
L 450.674799 -273.419999 
L 439.288188 -273.585019 
L 426.910237 -273.91506 
L 413.351726 -272.429876 
L 398.363487 -272.429876 
L 381.608062 -243.386275 
L 362.612327 -243.386275 
L 340.683361 -243.056234 
L 314.746899 -243.056234 
L 283.003234 -242.396152 
L 242.078533 -214.012632 
L 184.398407 -145.529139 
L 85.79358 -122.921336 
z
" id="mbb1fa331b3" style="stroke:#1f77b4;stroke-opacity:0.2;"/>
    </defs>
    <g clip-path="url(#p2f160e5f45)">
     <use style="fill:#1f77b4;fill-opacity:0.2;stroke:#1f77b4;stroke-opacity:0.2;" x="0" xlink:href="#mbb1fa331b3" y="325.986375"/>
    </g>
   </g>
   <g id="PolyCollection_2">
    <defs>
     <path d="M 85.79358 -112.360026 
L 85.79358 -49.65225 
L 184.398407 -77.210667 
L 242.078533 -105.713827 
L 283.003234 -106.74933 
L 314.746899 -113.127371 
L 340.683361 -111.534924 
L 362.612327 -119.266133 
L 381.608062 -121.601172 
L 398.363487 -121.931213 
L 413.351726 -122.261254 
L 426.910237 -122.261254 
L 439.288188 -122.261254 
L 450.674799 -125.561663 
L 461.217155 -125.561663 
L 471.031852 -125.561663 
L 480.212889 -128.862073 
L 488.837148 -129.522155 
L 496.968315 -126.551786 
L 504.659739 -129.027093 
L 511.956553 -129.522155 
L 518.897281 -129.522155 
L 525.515065 -129.522155 
L 531.838626 -129.522155 
L 537.893016 -129.522155 
L 543.700218 -129.522155 
L 549.279627 -129.522155 
L 554.648441 -129.522155 
L 559.821982 -129.522155 
L 564.813957 -129.522155 
L 569.63668 -130.512277 
L 574.301252 -130.512277 
L 578.817717 -130.512277 
L 583.195191 -130.512277 
L 587.441975 -130.512277 
L 591.565646 -130.512277 
L 595.573142 -131.5024 
L 599.47083 -131.5024 
L 603.264566 -131.5024 
L 606.959753 -131.832441 
L 610.561381 -131.007339 
L 614.07407 -131.832441 
L 617.502108 -133.482646 
L 620.849479 -133.482646 
L 624.119892 -133.482646 
L 627.316806 -133.482646 
L 630.443453 -133.482646 
L 633.502855 -133.482646 
L 636.497843 -133.462018 
L 639.431075 -132.657543 
L 642.305045 -133.482646 
L 645.122101 -133.482646 
L 647.884454 -133.812687 
L 650.594187 -135.13285 
L 653.253268 -139.753423 
L 655.863556 -139.753423 
L 658.426809 -139.753423 
L 660.944693 -142.488637 
L 663.418785 -144.373996 
L 665.850582 -145.85918 
L 668.241507 -147.344365 
L 670.592911 -147.344365 
L 672.906079 -147.839426 
L 675.182235 -149.984692 
L 677.422544 -149.984692 
L 679.628118 -148.470629 
L 681.800019 -147.344365 
L 683.939257 -147.344365 
L 686.046802 -148.829549 
L 688.123579 -149.151339 
L 690.170474 -148.829549 
L 692.188333 -147.344365 
L 694.177969 -150.314733 
L 696.140162 -150.314733 
L 698.075657 -150.314733 
L 699.985172 -150.314733 
L 701.869394 -150.314733 
L 703.728985 -150.974815 
L 705.564581 -150.479753 
L 707.376792 -150.974815 
L 709.166208 -150.479753 
L 710.933395 -150.974815 
L 712.678898 -150.974815 
L 714.403242 -150.974815 
L 716.106936 -150.479753 
L 717.790467 -150.974815 
L 719.454307 -150.479753 
L 721.098911 -150.479753 
L 722.724719 -150.974815 
L 724.332157 -150.974815 
L 725.921634 -150.974815 
L 727.493547 -150.974815 
L 729.04828 -150.974815 
L 730.586206 -151.634897 
L 732.107682 -151.634897 
L 733.613058 -150.809794 
L 735.10267 -150.809794 
L 735.10267 -275.070204 
L 735.10267 -275.070204 
L 733.613058 -275.070204 
L 732.107682 -275.070204 
L 730.586206 -275.070204 
L 729.04828 -275.070204 
L 727.493547 -275.070204 
L 725.921634 -275.070204 
L 724.332157 -275.070204 
L 722.724719 -275.070204 
L 721.098911 -275.070204 
L 719.454307 -275.074329 
L 717.790467 -275.235224 
L 716.106936 -275.070204 
L 714.403242 -275.070204 
L 712.678898 -275.070204 
L 710.933395 -275.070204 
L 709.166208 -275.070204 
L 707.376792 -275.074329 
L 705.564581 -275.070204 
L 703.728985 -275.070204 
L 701.869394 -275.235224 
L 699.985172 -275.070204 
L 698.075657 -275.235224 
L 696.140162 -275.070204 
L 694.177969 -275.070204 
L 692.188333 -275.070204 
L 690.170474 -275.070204 
L 688.123579 -275.235224 
L 686.046802 -275.070204 
L 683.939257 -275.070204 
L 681.800019 -275.070204 
L 679.628118 -275.070204 
L 677.422544 -275.070204 
L 675.182235 -275.070204 
L 672.906079 -275.074329 
L 670.592911 -274.740163 
L 668.241507 -274.740163 
L 665.850582 -274.740163 
L 663.418785 -274.740163 
L 660.944693 -274.740163 
L 658.426809 -274.740163 
L 655.863556 -273.419999 
L 653.253268 -273.114711 
L 650.594187 -271.439753 
L 647.884454 -272.924938 
L 645.122101 -268.877811 
L 642.305045 -261.868567 
L 639.431075 -258.238116 
L 636.497843 -257.578034 
L 633.502855 -249.657052 
L 630.443453 -249.657052 
L 627.316806 -249.657052 
L 624.119892 -248.019224 
L 620.849479 -245.36652 
L 617.502108 -245.36652 
L 614.07407 -260.218362 
L 610.561381 -244.706438 
L 606.959753 -243.716315 
L 603.264566 -231.17476 
L 599.47083 -212.692468 
L 595.573142 -212.362427 
L 591.565646 -212.989505 
L 587.441975 -212.989505 
L 583.195191 -212.053014 
L 578.817717 -200.480954 
L 574.301252 -209.7221 
L 569.63668 -207.906875 
L 564.813957 -206.194788 
L 559.821982 -209.7221 
L 554.648441 -205.596588 
L 549.279627 -208.731977 
L 543.700218 -208.566957 
L 537.893016 -206.586711 
L 531.838626 -230.679699 
L 525.515065 -204.936506 
L 518.897281 -203.286302 
L 511.956553 -202.296179 
L 504.659739 -199.16079 
L 496.968315 -205.761609 
L 488.837148 -205.596588 
L 480.212889 -198.500708 
L 471.031852 -198.500708 
L 461.217155 -198.170667 
L 450.674799 -198.170667 
L 439.288188 -172.592496 
L 426.910237 -149.15959 
L 413.351726 -144.373996 
L 398.363487 -134.142727 
L 381.608062 -132.492523 
L 362.612327 -129.192114 
L 340.683361 -128.201991 
L 314.746899 -127.541909 
L 283.003234 -126.551786 
L 242.078533 -125.231622 
L 184.398407 -124.2415 
L 85.79358 -112.360026 
z
" id="m3625628d4f" style="stroke:#98df8a;stroke-opacity:0.2;"/>
    </defs>
    <g clip-path="url(#p2f160e5f45)">
     <use style="fill:#98df8a;fill-opacity:0.2;stroke:#98df8a;stroke-opacity:0.2;" x="0" xlink:href="#m3625628d4f" y="325.986375"/>
    </g>
   </g>
   <g id="matplotlib.axis_1">
    <g id="xtick_1">
     <g id="line2d_1">
      <defs>
       <path d="M 0 0 
L 0 3.5 
" id="mccd7f41e2f" style="stroke:#000000;stroke-width:0.8;"/>
      </defs>
      <g>
       <use style="stroke:#000000;stroke-width:0.8;" x="85.79358" xlink:href="#mccd7f41e2f" y="288.430125"/>
      </g>
     </g>
     <g id="text_1">
      <!-- 14m -->
      <g transform="translate(74.560767 303.028562)scale(0.1 -0.1)">
       <defs>
        <path d="M 794 531 
L 1825 531 
L 1825 4091 
L 703 3866 
L 703 4441 
L 1819 4666 
L 2450 4666 
L 2450 531 
L 3481 531 
L 3481 0 
L 794 0 
L 794 531 
z
" id="DejaVuSans-31" transform="scale(0.015625)"/>
        <path d="M 2419 4116 
L 825 1625 
L 2419 1625 
L 2419 4116 
z
M 2253 4666 
L 3047 4666 
L 3047 1625 
L 3713 1625 
L 3713 1100 
L 3047 1100 
L 3047 0 
L 2419 0 
L 2419 1100 
L 313 1100 
L 313 1709 
L 2253 4666 
z
" id="DejaVuSans-34" transform="scale(0.015625)"/>
        <path d="M 3328 2828 
Q 3544 3216 3844 3400 
Q 4144 3584 4550 3584 
Q 5097 3584 5394 3201 
Q 5691 2819 5691 2113 
L 5691 0 
L 5113 0 
L 5113 2094 
Q 5113 2597 4934 2840 
Q 4756 3084 4391 3084 
Q 3944 3084 3684 2787 
Q 3425 2491 3425 1978 
L 3425 0 
L 2847 0 
L 2847 2094 
Q 2847 2600 2669 2842 
Q 2491 3084 2119 3084 
Q 1678 3084 1418 2786 
Q 1159 2488 1159 1978 
L 1159 0 
L 581 0 
L 581 3500 
L 1159 3500 
L 1159 2956 
Q 1356 3278 1631 3431 
Q 1906 3584 2284 3584 
Q 2666 3584 2933 3390 
Q 3200 3197 3328 2828 
z
" id="DejaVuSans-6d" transform="scale(0.015625)"/>
       </defs>
       <use xlink:href="#DejaVuSans-31"/>
       <use x="63.623047" xlink:href="#DejaVuSans-34"/>
       <use x="127.246094" xlink:href="#DejaVuSans-6d"/>
      </g>
     </g>
    </g>
    <g id="xtick_2">
     <g id="line2d_2">
      <g>
       <use style="stroke:#000000;stroke-width:0.8;" x="144.821828" xlink:href="#mccd7f41e2f" y="288.430125"/>
      </g>
     </g>
     <g id="text_2">
      <!-- 22m -->
      <g transform="translate(133.589016 303.028562)scale(0.1 -0.1)">
       <defs>
        <path d="M 1228 531 
L 3431 531 
L 3431 0 
L 469 0 
L 469 531 
Q 828 903 1448 1529 
Q 2069 2156 2228 2338 
Q 2531 2678 2651 2914 
Q 2772 3150 2772 3378 
Q 2772 3750 2511 3984 
Q 2250 4219 1831 4219 
Q 1534 4219 1204 4116 
Q 875 4013 500 3803 
L 500 4441 
Q 881 4594 1212 4672 
Q 1544 4750 1819 4750 
Q 2544 4750 2975 4387 
Q 3406 4025 3406 3419 
Q 3406 3131 3298 2873 
Q 3191 2616 2906 2266 
Q 2828 2175 2409 1742 
Q 1991 1309 1228 531 
z
" id="DejaVuSans-32" transform="scale(0.015625)"/>
       </defs>
       <use xlink:href="#DejaVuSans-32"/>
       <use x="63.623047" xlink:href="#DejaVuSans-32"/>
       <use x="127.246094" xlink:href="#DejaVuSans-6d"/>
      </g>
     </g>
    </g>
    <g id="xtick_3">
     <g id="line2d_3">
      <g>
       <use style="stroke:#000000;stroke-width:0.8;" x="203.850077" xlink:href="#mccd7f41e2f" y="288.430125"/>
      </g>
     </g>
     <g id="text_3">
      <!-- 34m -->
      <g transform="translate(192.617265 303.028562)scale(0.1 -0.1)">
       <defs>
        <path d="M 2597 2516 
Q 3050 2419 3304 2112 
Q 3559 1806 3559 1356 
Q 3559 666 3084 287 
Q 2609 -91 1734 -91 
Q 1441 -91 1130 -33 
Q 819 25 488 141 
L 488 750 
Q 750 597 1062 519 
Q 1375 441 1716 441 
Q 2309 441 2620 675 
Q 2931 909 2931 1356 
Q 2931 1769 2642 2001 
Q 2353 2234 1838 2234 
L 1294 2234 
L 1294 2753 
L 1863 2753 
Q 2328 2753 2575 2939 
Q 2822 3125 2822 3475 
Q 2822 3834 2567 4026 
Q 2313 4219 1838 4219 
Q 1578 4219 1281 4162 
Q 984 4106 628 3988 
L 628 4550 
Q 988 4650 1302 4700 
Q 1616 4750 1894 4750 
Q 2613 4750 3031 4423 
Q 3450 4097 3450 3541 
Q 3450 3153 3228 2886 
Q 3006 2619 2597 2516 
z
" id="DejaVuSans-33" transform="scale(0.015625)"/>
       </defs>
       <use xlink:href="#DejaVuSans-33"/>
       <use x="63.623047" xlink:href="#DejaVuSans-34"/>
       <use x="127.246094" xlink:href="#DejaVuSans-6d"/>
      </g>
     </g>
    </g>
    <g id="xtick_4">
     <g id="line2d_4">
      <g>
       <use style="stroke:#000000;stroke-width:0.8;" x="262.878326" xlink:href="#mccd7f41e2f" y="288.430125"/>
      </g>
     </g>
     <g id="text_4">
      <!-- 52m -->
      <g transform="translate(251.645514 303.028562)scale(0.1 -0.1)">
       <defs>
        <path d="M 691 4666 
L 3169 4666 
L 3169 4134 
L 1269 4134 
L 1269 2991 
Q 1406 3038 1543 3061 
Q 1681 3084 1819 3084 
Q 2600 3084 3056 2656 
Q 3513 2228 3513 1497 
Q 3513 744 3044 326 
Q 2575 -91 1722 -91 
Q 1428 -91 1123 -41 
Q 819 9 494 109 
L 494 744 
Q 775 591 1075 516 
Q 1375 441 1709 441 
Q 2250 441 2565 725 
Q 2881 1009 2881 1497 
Q 2881 1984 2565 2268 
Q 2250 2553 1709 2553 
Q 1456 2553 1204 2497 
Q 953 2441 691 2322 
L 691 4666 
z
" id="DejaVuSans-35" transform="scale(0.015625)"/>
       </defs>
       <use xlink:href="#DejaVuSans-35"/>
       <use x="63.623047" xlink:href="#DejaVuSans-32"/>
       <use x="127.246094" xlink:href="#DejaVuSans-6d"/>
      </g>
     </g>
    </g>
    <g id="xtick_5">
     <g id="line2d_5">
      <g>
       <use style="stroke:#000000;stroke-width:0.8;" x="321.906575" xlink:href="#mccd7f41e2f" y="288.430125"/>
      </g>
     </g>
     <g id="text_5">
      <!-- 1h:18m -->
      <g transform="translate(302.639387 303.028562)scale(0.1 -0.1)">
       <defs>
        <path d="M 3513 2113 
L 3513 0 
L 2938 0 
L 2938 2094 
Q 2938 2591 2744 2837 
Q 2550 3084 2163 3084 
Q 1697 3084 1428 2787 
Q 1159 2491 1159 1978 
L 1159 0 
L 581 0 
L 581 4863 
L 1159 4863 
L 1159 2956 
Q 1366 3272 1645 3428 
Q 1925 3584 2291 3584 
Q 2894 3584 3203 3211 
Q 3513 2838 3513 2113 
z
" id="DejaVuSans-68" transform="scale(0.015625)"/>
        <path d="M 750 794 
L 1409 794 
L 1409 0 
L 750 0 
L 750 794 
z
M 750 3309 
L 1409 3309 
L 1409 2516 
L 750 2516 
L 750 3309 
z
" id="DejaVuSans-3a" transform="scale(0.015625)"/>
        <path d="M 2034 2216 
Q 1584 2216 1326 1975 
Q 1069 1734 1069 1313 
Q 1069 891 1326 650 
Q 1584 409 2034 409 
Q 2484 409 2743 651 
Q 3003 894 3003 1313 
Q 3003 1734 2745 1975 
Q 2488 2216 2034 2216 
z
M 1403 2484 
Q 997 2584 770 2862 
Q 544 3141 544 3541 
Q 544 4100 942 4425 
Q 1341 4750 2034 4750 
Q 2731 4750 3128 4425 
Q 3525 4100 3525 3541 
Q 3525 3141 3298 2862 
Q 3072 2584 2669 2484 
Q 3125 2378 3379 2068 
Q 3634 1759 3634 1313 
Q 3634 634 3220 271 
Q 2806 -91 2034 -91 
Q 1263 -91 848 271 
Q 434 634 434 1313 
Q 434 1759 690 2068 
Q 947 2378 1403 2484 
z
M 1172 3481 
Q 1172 3119 1398 2916 
Q 1625 2713 2034 2713 
Q 2441 2713 2670 2916 
Q 2900 3119 2900 3481 
Q 2900 3844 2670 4047 
Q 2441 4250 2034 4250 
Q 1625 4250 1398 4047 
Q 1172 3844 1172 3481 
z
" id="DejaVuSans-38" transform="scale(0.015625)"/>
       </defs>
       <use xlink:href="#DejaVuSans-31"/>
       <use x="63.623047" xlink:href="#DejaVuSans-68"/>
       <use x="127.001953" xlink:href="#DejaVuSans-3a"/>
       <use x="160.693359" xlink:href="#DejaVuSans-31"/>
       <use x="224.316406" xlink:href="#DejaVuSans-38"/>
       <use x="287.939453" xlink:href="#DejaVuSans-6d"/>
      </g>
     </g>
    </g>
    <g id="xtick_6">
     <g id="line2d_6">
      <g>
       <use style="stroke:#000000;stroke-width:0.8;" x="380.934824" xlink:href="#mccd7f41e2f" y="288.430125"/>
      </g>
     </g>
     <g id="text_6">
      <!-- 1h:59m -->
      <g transform="translate(361.667636 303.028562)scale(0.1 -0.1)">
       <defs>
        <path d="M 703 97 
L 703 672 
Q 941 559 1184 500 
Q 1428 441 1663 441 
Q 2288 441 2617 861 
Q 2947 1281 2994 2138 
Q 2813 1869 2534 1725 
Q 2256 1581 1919 1581 
Q 1219 1581 811 2004 
Q 403 2428 403 3163 
Q 403 3881 828 4315 
Q 1253 4750 1959 4750 
Q 2769 4750 3195 4129 
Q 3622 3509 3622 2328 
Q 3622 1225 3098 567 
Q 2575 -91 1691 -91 
Q 1453 -91 1209 -44 
Q 966 3 703 97 
z
M 1959 2075 
Q 2384 2075 2632 2365 
Q 2881 2656 2881 3163 
Q 2881 3666 2632 3958 
Q 2384 4250 1959 4250 
Q 1534 4250 1286 3958 
Q 1038 3666 1038 3163 
Q 1038 2656 1286 2365 
Q 1534 2075 1959 2075 
z
" id="DejaVuSans-39" transform="scale(0.015625)"/>
       </defs>
       <use xlink:href="#DejaVuSans-31"/>
       <use x="63.623047" xlink:href="#DejaVuSans-68"/>
       <use x="127.001953" xlink:href="#DejaVuSans-3a"/>
       <use x="160.693359" xlink:href="#DejaVuSans-35"/>
       <use x="224.316406" xlink:href="#DejaVuSans-39"/>
       <use x="287.939453" xlink:href="#DejaVuSans-6d"/>
      </g>
     </g>
    </g>
    <g id="xtick_7">
     <g id="line2d_7">
      <g>
       <use style="stroke:#000000;stroke-width:0.8;" x="439.963073" xlink:href="#mccd7f41e2f" y="288.430125"/>
      </g>
     </g>
     <g id="text_7">
      <!-- 3h -->
      <g transform="translate(433.613073 303.028562)scale(0.1 -0.1)">
       <use xlink:href="#DejaVuSans-33"/>
       <use x="63.623047" xlink:href="#DejaVuSans-68"/>
      </g>
     </g>
    </g>
    <g id="xtick_8">
     <g id="line2d_8">
      <g>
       <use style="stroke:#000000;stroke-width:0.8;" x="498.991322" xlink:href="#mccd7f41e2f" y="288.430125"/>
      </g>
     </g>
     <g id="text_8">
      <!-- 4h:33m -->
      <g transform="translate(479.724134 303.028562)scale(0.1 -0.1)">
       <use xlink:href="#DejaVuSans-34"/>
       <use x="63.623047" xlink:href="#DejaVuSans-68"/>
       <use x="127.001953" xlink:href="#DejaVuSans-3a"/>
       <use x="160.693359" xlink:href="#DejaVuSans-33"/>
       <use x="224.316406" xlink:href="#DejaVuSans-33"/>
       <use x="287.939453" xlink:href="#DejaVuSans-6d"/>
      </g>
     </g>
    </g>
    <g id="xtick_9">
     <g id="line2d_9">
      <g>
       <use style="stroke:#000000;stroke-width:0.8;" x="558.01957" xlink:href="#mccd7f41e2f" y="288.430125"/>
      </g>
     </g>
     <g id="text_9">
      <!-- 6h:54m -->
      <g transform="translate(538.752383 303.028562)scale(0.1 -0.1)">
       <defs>
        <path d="M 2113 2584 
Q 1688 2584 1439 2293 
Q 1191 2003 1191 1497 
Q 1191 994 1439 701 
Q 1688 409 2113 409 
Q 2538 409 2786 701 
Q 3034 994 3034 1497 
Q 3034 2003 2786 2293 
Q 2538 2584 2113 2584 
z
M 3366 4563 
L 3366 3988 
Q 3128 4100 2886 4159 
Q 2644 4219 2406 4219 
Q 1781 4219 1451 3797 
Q 1122 3375 1075 2522 
Q 1259 2794 1537 2939 
Q 1816 3084 2150 3084 
Q 2853 3084 3261 2657 
Q 3669 2231 3669 1497 
Q 3669 778 3244 343 
Q 2819 -91 2113 -91 
Q 1303 -91 875 529 
Q 447 1150 447 2328 
Q 447 3434 972 4092 
Q 1497 4750 2381 4750 
Q 2619 4750 2861 4703 
Q 3103 4656 3366 4563 
z
" id="DejaVuSans-36" transform="scale(0.015625)"/>
       </defs>
       <use xlink:href="#DejaVuSans-36"/>
       <use x="63.623047" xlink:href="#DejaVuSans-68"/>
       <use x="127.001953" xlink:href="#DejaVuSans-3a"/>
       <use x="160.693359" xlink:href="#DejaVuSans-35"/>
       <use x="224.316406" xlink:href="#DejaVuSans-34"/>
       <use x="287.939453" xlink:href="#DejaVuSans-6d"/>
      </g>
     </g>
    </g>
    <g id="xtick_10">
     <g id="line2d_10">
      <g>
       <use style="stroke:#000000;stroke-width:0.8;" x="617.047819" xlink:href="#mccd7f41e2f" y="288.430125"/>
      </g>
     </g>
     <g id="text_10">
      <!-- 10h:27m -->
      <g transform="translate(594.599382 303.028562)scale(0.1 -0.1)">
       <defs>
        <path d="M 2034 4250 
Q 1547 4250 1301 3770 
Q 1056 3291 1056 2328 
Q 1056 1369 1301 889 
Q 1547 409 2034 409 
Q 2525 409 2770 889 
Q 3016 1369 3016 2328 
Q 3016 3291 2770 3770 
Q 2525 4250 2034 4250 
z
M 2034 4750 
Q 2819 4750 3233 4129 
Q 3647 3509 3647 2328 
Q 3647 1150 3233 529 
Q 2819 -91 2034 -91 
Q 1250 -91 836 529 
Q 422 1150 422 2328 
Q 422 3509 836 4129 
Q 1250 4750 2034 4750 
z
" id="DejaVuSans-30" transform="scale(0.015625)"/>
        <path d="M 525 4666 
L 3525 4666 
L 3525 4397 
L 1831 0 
L 1172 0 
L 2766 4134 
L 525 4134 
L 525 4666 
z
" id="DejaVuSans-37" transform="scale(0.015625)"/>
       </defs>
       <use xlink:href="#DejaVuSans-31"/>
       <use x="63.623047" xlink:href="#DejaVuSans-30"/>
       <use x="127.246094" xlink:href="#DejaVuSans-68"/>
       <use x="190.625" xlink:href="#DejaVuSans-3a"/>
       <use x="224.316406" xlink:href="#DejaVuSans-32"/>
       <use x="287.939453" xlink:href="#DejaVuSans-37"/>
       <use x="351.5625" xlink:href="#DejaVuSans-6d"/>
      </g>
     </g>
    </g>
    <g id="xtick_11">
     <g id="line2d_11">
      <g>
       <use style="stroke:#000000;stroke-width:0.8;" x="676.076068" xlink:href="#mccd7f41e2f" y="288.430125"/>
      </g>
     </g>
     <g id="text_11">
      <!-- 15h:50m -->
      <g transform="translate(653.627631 303.028562)scale(0.1 -0.1)">
       <use xlink:href="#DejaVuSans-31"/>
       <use x="63.623047" xlink:href="#DejaVuSans-35"/>
       <use x="127.246094" xlink:href="#DejaVuSans-68"/>
       <use x="190.625" xlink:href="#DejaVuSans-3a"/>
       <use x="224.316406" xlink:href="#DejaVuSans-35"/>
       <use x="287.939453" xlink:href="#DejaVuSans-30"/>
       <use x="351.5625" xlink:href="#DejaVuSans-6d"/>
      </g>
     </g>
    </g>
    <g id="xtick_12">
     <g id="line2d_12">
      <g>
       <use style="stroke:#000000;stroke-width:0.8;" x="735.104317" xlink:href="#mccd7f41e2f" y="288.430125"/>
      </g>
     </g>
     <g id="text_12">
      <!-- 24h -->
      <g transform="translate(725.573067 303.028562)scale(0.1 -0.1)">
       <use xlink:href="#DejaVuSans-32"/>
       <use x="63.623047" xlink:href="#DejaVuSans-34"/>
       <use x="127.246094" xlink:href="#DejaVuSans-68"/>
      </g>
     </g>
    </g>
    <g id="xtick_13">
     <g id="line2d_13">
      <defs>
       <path d="M 0 0 
L 0 2 
" id="m88b0cfc95d" style="stroke:#000000;stroke-width:0.6;"/>
      </defs>
      <g>
       <use style="stroke:#000000;stroke-width:0.6;" x="69.038154" xlink:href="#m88b0cfc95d" y="288.430125"/>
      </g>
     </g>
    </g>
    <g id="xtick_14">
     <g id="line2d_14">
      <g>
       <use style="stroke:#000000;stroke-width:0.6;" x="199.386646" xlink:href="#m88b0cfc95d" y="288.430125"/>
      </g>
     </g>
    </g>
    <g id="xtick_15">
     <g id="line2d_15">
      <g>
       <use style="stroke:#000000;stroke-width:0.6;" x="257.066772" xlink:href="#m88b0cfc95d" y="288.430125"/>
      </g>
     </g>
    </g>
    <g id="xtick_16">
     <g id="line2d_16">
      <g>
       <use style="stroke:#000000;stroke-width:0.6;" x="297.991473" xlink:href="#m88b0cfc95d" y="288.430125"/>
      </g>
     </g>
    </g>
    <g id="xtick_17">
     <g id="line2d_17">
      <g>
       <use style="stroke:#000000;stroke-width:0.6;" x="329.735137" xlink:href="#m88b0cfc95d" y="288.430125"/>
      </g>
     </g>
    </g>
    <g id="xtick_18">
     <g id="line2d_18">
      <g>
       <use style="stroke:#000000;stroke-width:0.6;" x="355.6716" xlink:href="#m88b0cfc95d" y="288.430125"/>
      </g>
     </g>
    </g>
    <g id="xtick_19">
     <g id="line2d_19">
      <g>
       <use style="stroke:#000000;stroke-width:0.6;" x="377.600566" xlink:href="#m88b0cfc95d" y="288.430125"/>
      </g>
     </g>
    </g>
    <g id="xtick_20">
     <g id="line2d_20">
      <g>
       <use style="stroke:#000000;stroke-width:0.6;" x="396.596301" xlink:href="#m88b0cfc95d" y="288.430125"/>
      </g>
     </g>
    </g>
    <g id="xtick_21">
     <g id="line2d_21">
      <g>
       <use style="stroke:#000000;stroke-width:0.6;" x="413.351726" xlink:href="#m88b0cfc95d" y="288.430125"/>
      </g>
     </g>
    </g>
    <g id="xtick_22">
     <g id="line2d_22">
      <g>
       <use style="stroke:#000000;stroke-width:0.6;" x="526.944792" xlink:href="#m88b0cfc95d" y="288.430125"/>
      </g>
     </g>
    </g>
    <g id="xtick_23">
     <g id="line2d_23">
      <g>
       <use style="stroke:#000000;stroke-width:0.6;" x="584.624919" xlink:href="#m88b0cfc95d" y="288.430125"/>
      </g>
     </g>
    </g>
    <g id="xtick_24">
     <g id="line2d_24">
      <g>
       <use style="stroke:#000000;stroke-width:0.6;" x="625.54962" xlink:href="#m88b0cfc95d" y="288.430125"/>
      </g>
     </g>
    </g>
    <g id="xtick_25">
     <g id="line2d_25">
      <g>
       <use style="stroke:#000000;stroke-width:0.6;" x="657.293284" xlink:href="#m88b0cfc95d" y="288.430125"/>
      </g>
     </g>
    </g>
    <g id="xtick_26">
     <g id="line2d_26">
      <g>
       <use style="stroke:#000000;stroke-width:0.6;" x="683.229746" xlink:href="#m88b0cfc95d" y="288.430125"/>
      </g>
     </g>
    </g>
    <g id="xtick_27">
     <g id="line2d_27">
      <g>
       <use style="stroke:#000000;stroke-width:0.6;" x="705.158712" xlink:href="#m88b0cfc95d" y="288.430125"/>
      </g>
     </g>
    </g>
    <g id="xtick_28">
     <g id="line2d_28">
      <g>
       <use style="stroke:#000000;stroke-width:0.6;" x="724.154447" xlink:href="#m88b0cfc95d" y="288.430125"/>
      </g>
     </g>
    </g>
    <g id="xtick_29">
     <g id="line2d_29">
      <g>
       <use style="stroke:#000000;stroke-width:0.6;" x="740.909872" xlink:href="#m88b0cfc95d" y="288.430125"/>
      </g>
     </g>
    </g>
    <g id="text_13">
     <!-- Time (hour:minute) -->
     <g transform="translate(362.041094 316.706687)scale(0.1 -0.1)">
      <defs>
       <path d="M -19 4666 
L 3928 4666 
L 3928 4134 
L 2272 4134 
L 2272 0 
L 1638 0 
L 1638 4134 
L -19 4134 
L -19 4666 
z
" id="DejaVuSans-54" transform="scale(0.015625)"/>
       <path d="M 603 3500 
L 1178 3500 
L 1178 0 
L 603 0 
L 603 3500 
z
M 603 4863 
L 1178 4863 
L 1178 4134 
L 603 4134 
L 603 4863 
z
" id="DejaVuSans-69" transform="scale(0.015625)"/>
       <path d="M 3597 1894 
L 3597 1613 
L 953 1613 
Q 991 1019 1311 708 
Q 1631 397 2203 397 
Q 2534 397 2845 478 
Q 3156 559 3463 722 
L 3463 178 
Q 3153 47 2828 -22 
Q 2503 -91 2169 -91 
Q 1331 -91 842 396 
Q 353 884 353 1716 
Q 353 2575 817 3079 
Q 1281 3584 2069 3584 
Q 2775 3584 3186 3129 
Q 3597 2675 3597 1894 
z
M 3022 2063 
Q 3016 2534 2758 2815 
Q 2500 3097 2075 3097 
Q 1594 3097 1305 2825 
Q 1016 2553 972 2059 
L 3022 2063 
z
" id="DejaVuSans-65" transform="scale(0.015625)"/>
       <path id="DejaVuSans-20" transform="scale(0.015625)"/>
       <path d="M 1984 4856 
Q 1566 4138 1362 3434 
Q 1159 2731 1159 2009 
Q 1159 1288 1364 580 
Q 1569 -128 1984 -844 
L 1484 -844 
Q 1016 -109 783 600 
Q 550 1309 550 2009 
Q 550 2706 781 3412 
Q 1013 4119 1484 4856 
L 1984 4856 
z
" id="DejaVuSans-28" transform="scale(0.015625)"/>
       <path d="M 1959 3097 
Q 1497 3097 1228 2736 
Q 959 2375 959 1747 
Q 959 1119 1226 758 
Q 1494 397 1959 397 
Q 2419 397 2687 759 
Q 2956 1122 2956 1747 
Q 2956 2369 2687 2733 
Q 2419 3097 1959 3097 
z
M 1959 3584 
Q 2709 3584 3137 3096 
Q 3566 2609 3566 1747 
Q 3566 888 3137 398 
Q 2709 -91 1959 -91 
Q 1206 -91 779 398 
Q 353 888 353 1747 
Q 353 2609 779 3096 
Q 1206 3584 1959 3584 
z
" id="DejaVuSans-6f" transform="scale(0.015625)"/>
       <path d="M 544 1381 
L 544 3500 
L 1119 3500 
L 1119 1403 
Q 1119 906 1312 657 
Q 1506 409 1894 409 
Q 2359 409 2629 706 
Q 2900 1003 2900 1516 
L 2900 3500 
L 3475 3500 
L 3475 0 
L 2900 0 
L 2900 538 
Q 2691 219 2414 64 
Q 2138 -91 1772 -91 
Q 1169 -91 856 284 
Q 544 659 544 1381 
z
M 1991 3584 
L 1991 3584 
z
" id="DejaVuSans-75" transform="scale(0.015625)"/>
       <path d="M 2631 2963 
Q 2534 3019 2420 3045 
Q 2306 3072 2169 3072 
Q 1681 3072 1420 2755 
Q 1159 2438 1159 1844 
L 1159 0 
L 581 0 
L 581 3500 
L 1159 3500 
L 1159 2956 
Q 1341 3275 1631 3429 
Q 1922 3584 2338 3584 
Q 2397 3584 2469 3576 
Q 2541 3569 2628 3553 
L 2631 2963 
z
" id="DejaVuSans-72" transform="scale(0.015625)"/>
       <path d="M 3513 2113 
L 3513 0 
L 2938 0 
L 2938 2094 
Q 2938 2591 2744 2837 
Q 2550 3084 2163 3084 
Q 1697 3084 1428 2787 
Q 1159 2491 1159 1978 
L 1159 0 
L 581 0 
L 581 3500 
L 1159 3500 
L 1159 2956 
Q 1366 3272 1645 3428 
Q 1925 3584 2291 3584 
Q 2894 3584 3203 3211 
Q 3513 2838 3513 2113 
z
" id="DejaVuSans-6e" transform="scale(0.015625)"/>
       <path d="M 1172 4494 
L 1172 3500 
L 2356 3500 
L 2356 3053 
L 1172 3053 
L 1172 1153 
Q 1172 725 1289 603 
Q 1406 481 1766 481 
L 2356 481 
L 2356 0 
L 1766 0 
Q 1100 0 847 248 
Q 594 497 594 1153 
L 594 3053 
L 172 3053 
L 172 3500 
L 594 3500 
L 594 4494 
L 1172 4494 
z
" id="DejaVuSans-74" transform="scale(0.015625)"/>
       <path d="M 513 4856 
L 1013 4856 
Q 1481 4119 1714 3412 
Q 1947 2706 1947 2009 
Q 1947 1309 1714 600 
Q 1481 -109 1013 -844 
L 513 -844 
Q 928 -128 1133 580 
Q 1338 1288 1338 2009 
Q 1338 2731 1133 3434 
Q 928 4138 513 4856 
z
" id="DejaVuSans-29" transform="scale(0.015625)"/>
      </defs>
      <use xlink:href="#DejaVuSans-54"/>
      <use x="57.958984" xlink:href="#DejaVuSans-69"/>
      <use x="85.742188" xlink:href="#DejaVuSans-6d"/>
      <use x="183.154297" xlink:href="#DejaVuSans-65"/>
      <use x="244.677734" xlink:href="#DejaVuSans-20"/>
      <use x="276.464844" xlink:href="#DejaVuSans-28"/>
      <use x="315.478516" xlink:href="#DejaVuSans-68"/>
      <use x="378.857422" xlink:href="#DejaVuSans-6f"/>
      <use x="440.039062" xlink:href="#DejaVuSans-75"/>
      <use x="503.417969" xlink:href="#DejaVuSans-72"/>
      <use x="542.78125" xlink:href="#DejaVuSans-3a"/>
      <use x="576.472656" xlink:href="#DejaVuSans-6d"/>
      <use x="673.884766" xlink:href="#DejaVuSans-69"/>
      <use x="701.667969" xlink:href="#DejaVuSans-6e"/>
      <use x="765.046875" xlink:href="#DejaVuSans-75"/>
      <use x="828.425781" xlink:href="#DejaVuSans-74"/>
      <use x="867.634766" xlink:href="#DejaVuSans-65"/>
      <use x="929.158203" xlink:href="#DejaVuSans-29"/>
     </g>
    </g>
   </g>
   <g id="matplotlib.axis_2">
    <g id="ytick_1">
     <g id="line2d_30">
      <defs>
       <path d="M 0 0 
L -3.5 0 
" id="mc3da989129" style="stroke:#000000;stroke-width:0.8;"/>
      </defs>
      <g>
       <use style="stroke:#000000;stroke-width:0.8;" x="53.328125" xlink:href="#mc3da989129" y="285.905312"/>
      </g>
     </g>
     <g id="text_14">
      <!-- 1300 -->
      <g transform="translate(20.878125 289.704531)scale(0.1 -0.1)">
       <use xlink:href="#DejaVuSans-31"/>
       <use x="63.623047" xlink:href="#DejaVuSans-33"/>
       <use x="127.246094" xlink:href="#DejaVuSans-30"/>
       <use x="190.869141" xlink:href="#DejaVuSans-30"/>
      </g>
     </g>
    </g>
    <g id="ytick_2">
     <g id="line2d_31">
      <g>
       <use style="stroke:#000000;stroke-width:0.8;" x="53.328125" xlink:href="#mc3da989129" y="252.901219"/>
      </g>
     </g>
     <g id="text_15">
      <!-- 1400 -->
      <g transform="translate(20.878125 256.700438)scale(0.1 -0.1)">
       <use xlink:href="#DejaVuSans-31"/>
       <use x="63.623047" xlink:href="#DejaVuSans-34"/>
       <use x="127.246094" xlink:href="#DejaVuSans-30"/>
       <use x="190.869141" xlink:href="#DejaVuSans-30"/>
      </g>
     </g>
    </g>
    <g id="ytick_3">
     <g id="line2d_32">
      <g>
       <use style="stroke:#000000;stroke-width:0.8;" x="53.328125" xlink:href="#mc3da989129" y="219.897126"/>
      </g>
     </g>
     <g id="text_16">
      <!-- 1500 -->
      <g transform="translate(20.878125 223.696345)scale(0.1 -0.1)">
       <use xlink:href="#DejaVuSans-31"/>
       <use x="63.623047" xlink:href="#DejaVuSans-35"/>
       <use x="127.246094" xlink:href="#DejaVuSans-30"/>
       <use x="190.869141" xlink:href="#DejaVuSans-30"/>
      </g>
     </g>
    </g>
    <g id="ytick_4">
     <g id="line2d_33">
      <g>
       <use style="stroke:#000000;stroke-width:0.8;" x="53.328125" xlink:href="#mc3da989129" y="186.893034"/>
      </g>
     </g>
     <g id="text_17">
      <!-- 1600 -->
      <g transform="translate(20.878125 190.692252)scale(0.1 -0.1)">
       <use xlink:href="#DejaVuSans-31"/>
       <use x="63.623047" xlink:href="#DejaVuSans-36"/>
       <use x="127.246094" xlink:href="#DejaVuSans-30"/>
       <use x="190.869141" xlink:href="#DejaVuSans-30"/>
      </g>
     </g>
    </g>
    <g id="ytick_5">
     <g id="line2d_34">
      <g>
       <use style="stroke:#000000;stroke-width:0.8;" x="53.328125" xlink:href="#mc3da989129" y="153.888941"/>
      </g>
     </g>
     <g id="text_18">
      <!-- 1700 -->
      <g transform="translate(20.878125 157.68816)scale(0.1 -0.1)">
       <use xlink:href="#DejaVuSans-31"/>
       <use x="63.623047" xlink:href="#DejaVuSans-37"/>
       <use x="127.246094" xlink:href="#DejaVuSans-30"/>
       <use x="190.869141" xlink:href="#DejaVuSans-30"/>
      </g>
     </g>
    </g>
    <g id="ytick_6">
     <g id="line2d_35">
      <g>
       <use style="stroke:#000000;stroke-width:0.8;" x="53.328125" xlink:href="#mc3da989129" y="120.884848"/>
      </g>
     </g>
     <g id="text_19">
      <!-- 1800 -->
      <g transform="translate(20.878125 124.684067)scale(0.1 -0.1)">
       <use xlink:href="#DejaVuSans-31"/>
       <use x="63.623047" xlink:href="#DejaVuSans-38"/>
       <use x="127.246094" xlink:href="#DejaVuSans-30"/>
       <use x="190.869141" xlink:href="#DejaVuSans-30"/>
      </g>
     </g>
    </g>
    <g id="ytick_7">
     <g id="line2d_36">
      <g>
       <use style="stroke:#000000;stroke-width:0.8;" x="53.328125" xlink:href="#mc3da989129" y="87.880755"/>
      </g>
     </g>
     <g id="text_20">
      <!-- 1900 -->
      <g transform="translate(20.878125 91.679974)scale(0.1 -0.1)">
       <use xlink:href="#DejaVuSans-31"/>
       <use x="63.623047" xlink:href="#DejaVuSans-39"/>
       <use x="127.246094" xlink:href="#DejaVuSans-30"/>
       <use x="190.869141" xlink:href="#DejaVuSans-30"/>
      </g>
     </g>
    </g>
    <g id="ytick_8">
     <g id="line2d_37">
      <g>
       <use style="stroke:#000000;stroke-width:0.8;" x="53.328125" xlink:href="#mc3da989129" y="54.876663"/>
      </g>
     </g>
     <g id="text_21">
      <!-- 2000 -->
      <g transform="translate(20.878125 58.675881)scale(0.1 -0.1)">
       <use xlink:href="#DejaVuSans-32"/>
       <use x="63.623047" xlink:href="#DejaVuSans-30"/>
       <use x="127.246094" xlink:href="#DejaVuSans-30"/>
       <use x="190.869141" xlink:href="#DejaVuSans-30"/>
      </g>
     </g>
    </g>
    <g id="text_22">
     <!-- Code branch coverage -->
     <g transform="translate(14.798438 211.949125)rotate(-90)scale(0.1 -0.1)">
      <defs>
       <path d="M 4122 4306 
L 4122 3641 
Q 3803 3938 3442 4084 
Q 3081 4231 2675 4231 
Q 1875 4231 1450 3742 
Q 1025 3253 1025 2328 
Q 1025 1406 1450 917 
Q 1875 428 2675 428 
Q 3081 428 3442 575 
Q 3803 722 4122 1019 
L 4122 359 
Q 3791 134 3420 21 
Q 3050 -91 2638 -91 
Q 1578 -91 968 557 
Q 359 1206 359 2328 
Q 359 3453 968 4101 
Q 1578 4750 2638 4750 
Q 3056 4750 3426 4639 
Q 3797 4528 4122 4306 
z
" id="DejaVuSans-43" transform="scale(0.015625)"/>
       <path d="M 2906 2969 
L 2906 4863 
L 3481 4863 
L 3481 0 
L 2906 0 
L 2906 525 
Q 2725 213 2448 61 
Q 2172 -91 1784 -91 
Q 1150 -91 751 415 
Q 353 922 353 1747 
Q 353 2572 751 3078 
Q 1150 3584 1784 3584 
Q 2172 3584 2448 3432 
Q 2725 3281 2906 2969 
z
M 947 1747 
Q 947 1113 1208 752 
Q 1469 391 1925 391 
Q 2381 391 2643 752 
Q 2906 1113 2906 1747 
Q 2906 2381 2643 2742 
Q 2381 3103 1925 3103 
Q 1469 3103 1208 2742 
Q 947 2381 947 1747 
z
" id="DejaVuSans-64" transform="scale(0.015625)"/>
       <path d="M 3116 1747 
Q 3116 2381 2855 2742 
Q 2594 3103 2138 3103 
Q 1681 3103 1420 2742 
Q 1159 2381 1159 1747 
Q 1159 1113 1420 752 
Q 1681 391 2138 391 
Q 2594 391 2855 752 
Q 3116 1113 3116 1747 
z
M 1159 2969 
Q 1341 3281 1617 3432 
Q 1894 3584 2278 3584 
Q 2916 3584 3314 3078 
Q 3713 2572 3713 1747 
Q 3713 922 3314 415 
Q 2916 -91 2278 -91 
Q 1894 -91 1617 61 
Q 1341 213 1159 525 
L 1159 0 
L 581 0 
L 581 4863 
L 1159 4863 
L 1159 2969 
z
" id="DejaVuSans-62" transform="scale(0.015625)"/>
       <path d="M 2194 1759 
Q 1497 1759 1228 1600 
Q 959 1441 959 1056 
Q 959 750 1161 570 
Q 1363 391 1709 391 
Q 2188 391 2477 730 
Q 2766 1069 2766 1631 
L 2766 1759 
L 2194 1759 
z
M 3341 1997 
L 3341 0 
L 2766 0 
L 2766 531 
Q 2569 213 2275 61 
Q 1981 -91 1556 -91 
Q 1019 -91 701 211 
Q 384 513 384 1019 
Q 384 1609 779 1909 
Q 1175 2209 1959 2209 
L 2766 2209 
L 2766 2266 
Q 2766 2663 2505 2880 
Q 2244 3097 1772 3097 
Q 1472 3097 1187 3025 
Q 903 2953 641 2809 
L 641 3341 
Q 956 3463 1253 3523 
Q 1550 3584 1831 3584 
Q 2591 3584 2966 3190 
Q 3341 2797 3341 1997 
z
" id="DejaVuSans-61" transform="scale(0.015625)"/>
       <path d="M 3122 3366 
L 3122 2828 
Q 2878 2963 2633 3030 
Q 2388 3097 2138 3097 
Q 1578 3097 1268 2742 
Q 959 2388 959 1747 
Q 959 1106 1268 751 
Q 1578 397 2138 397 
Q 2388 397 2633 464 
Q 2878 531 3122 666 
L 3122 134 
Q 2881 22 2623 -34 
Q 2366 -91 2075 -91 
Q 1284 -91 818 406 
Q 353 903 353 1747 
Q 353 2603 823 3093 
Q 1294 3584 2113 3584 
Q 2378 3584 2631 3529 
Q 2884 3475 3122 3366 
z
" id="DejaVuSans-63" transform="scale(0.015625)"/>
       <path d="M 191 3500 
L 800 3500 
L 1894 563 
L 2988 3500 
L 3597 3500 
L 2284 0 
L 1503 0 
L 191 3500 
z
" id="DejaVuSans-76" transform="scale(0.015625)"/>
       <path d="M 2906 1791 
Q 2906 2416 2648 2759 
Q 2391 3103 1925 3103 
Q 1463 3103 1205 2759 
Q 947 2416 947 1791 
Q 947 1169 1205 825 
Q 1463 481 1925 481 
Q 2391 481 2648 825 
Q 2906 1169 2906 1791 
z
M 3481 434 
Q 3481 -459 3084 -895 
Q 2688 -1331 1869 -1331 
Q 1566 -1331 1297 -1286 
Q 1028 -1241 775 -1147 
L 775 -588 
Q 1028 -725 1275 -790 
Q 1522 -856 1778 -856 
Q 2344 -856 2625 -561 
Q 2906 -266 2906 331 
L 2906 616 
Q 2728 306 2450 153 
Q 2172 0 1784 0 
Q 1141 0 747 490 
Q 353 981 353 1791 
Q 353 2603 747 3093 
Q 1141 3584 1784 3584 
Q 2172 3584 2450 3431 
Q 2728 3278 2906 2969 
L 2906 3500 
L 3481 3500 
L 3481 434 
z
" id="DejaVuSans-67" transform="scale(0.015625)"/>
      </defs>
      <use xlink:href="#DejaVuSans-43"/>
      <use x="69.824219" xlink:href="#DejaVuSans-6f"/>
      <use x="131.005859" xlink:href="#DejaVuSans-64"/>
      <use x="194.482422" xlink:href="#DejaVuSans-65"/>
      <use x="256.005859" xlink:href="#DejaVuSans-20"/>
      <use x="287.792969" xlink:href="#DejaVuSans-62"/>
      <use x="351.269531" xlink:href="#DejaVuSans-72"/>
      <use x="392.382812" xlink:href="#DejaVuSans-61"/>
      <use x="453.662109" xlink:href="#DejaVuSans-6e"/>
      <use x="517.041016" xlink:href="#DejaVuSans-63"/>
      <use x="572.021484" xlink:href="#DejaVuSans-68"/>
      <use x="635.400391" xlink:href="#DejaVuSans-20"/>
      <use x="667.1875" xlink:href="#DejaVuSans-63"/>
      <use x="722.167969" xlink:href="#DejaVuSans-6f"/>
      <use x="783.349609" xlink:href="#DejaVuSans-76"/>
      <use x="842.529297" xlink:href="#DejaVuSans-65"/>
      <use x="904.052734" xlink:href="#DejaVuSans-72"/>
      <use x="945.166016" xlink:href="#DejaVuSans-61"/>
      <use x="1006.445312" xlink:href="#DejaVuSans-67"/>
      <use x="1069.921875" xlink:href="#DejaVuSans-65"/>
     </g>
    </g>
   </g>
   <g id="line2d_38">
    <path clip-path="url(#p2f160e5f45)" d="M 85.79358 204.385203 
L 184.398407 199.269568 
L 242.078533 152.733798 
L 283.003234 142.337508 
L 314.746899 130.786076 
L 340.683361 128.475789 
L 362.612327 128.475789 
L 381.608062 127.650687 
L 398.363487 100.917372 
L 413.351726 78.474589 
L 426.910237 66.758136 
L 439.288188 66.593115 
L 450.674799 53.721519 
L 461.217155 53.391478 
L 471.031852 53.061437 
L 480.212889 53.061437 
L 488.837148 53.061437 
L 496.968315 53.061437 
L 504.659739 52.236335 
L 511.956553 52.236335 
L 518.897281 52.236335 
L 525.515065 52.236335 
L 531.838626 51.906294 
L 537.893016 51.906294 
L 543.700218 51.576253 
L 549.279627 50.091069 
L 554.648441 49.926049 
L 559.821982 49.926049 
L 564.813957 49.926049 
L 569.63668 49.926049 
L 574.301252 49.926049 
L 578.817717 49.596008 
L 583.195191 49.596008 
L 587.441975 49.596008 
L 591.565646 49.430987 
L 595.573142 49.430987 
L 599.47083 49.430987 
L 603.264566 48.935926 
L 606.959753 48.935926 
L 610.561381 48.935926 
L 614.07407 43.655271 
L 617.502108 43.655271 
L 620.849479 43.655271 
L 624.119892 43.655271 
L 627.316806 43.655271 
L 630.443453 43.655271 
L 633.502855 43.655271 
L 636.497843 43.655271 
L 639.431075 43.655271 
L 642.305045 43.655271 
L 645.122101 43.655271 
L 647.884454 43.655271 
L 650.594187 43.655271 
L 653.253268 43.655271 
L 655.863556 43.655271 
L 658.426809 43.655271 
L 660.944693 43.655271 
L 663.418785 43.655271 
L 665.850582 43.655271 
L 668.241507 43.490251 
L 670.592911 43.490251 
L 672.906079 43.490251 
L 675.182235 43.490251 
L 677.422544 43.16021 
L 679.628118 43.16021 
L 681.800019 43.16021 
L 683.939257 43.16021 
L 686.046802 43.16021 
L 688.123579 42.995189 
L 690.170474 42.995189 
L 692.188333 42.995189 
L 694.177969 42.995189 
L 696.140162 42.995189 
L 698.075657 42.995189 
L 699.985172 42.995189 
L 701.869394 42.830169 
L 703.728985 42.830169 
L 705.564581 42.830169 
L 707.376792 42.830169 
L 709.166208 42.830169 
L 710.933395 42.830169 
L 712.678898 42.500128 
L 714.403242 42.500128 
L 716.106936 42.170087 
L 717.790467 42.170087 
L 719.454307 42.170087 
L 721.098911 42.170087 
L 722.724719 42.170087 
L 724.332157 42.005066 
L 725.921634 42.005066 
L 727.493547 42.005066 
L 729.04828 42.005066 
L 730.586206 42.005066 
L 732.107682 42.005066 
L 733.613058 42.005066 
L 735.10267 42.005066 
" style="fill:none;stroke:#1f77b4;stroke-linecap:square;stroke-width:1.5;"/>
    <defs>
     <path d="M 0 3 
C 0.795609 3 1.55874 2.683901 2.12132 2.12132 
C 2.683901 1.55874 3 0.795609 3 0 
C 3 -0.795609 2.683901 -1.55874 2.12132 -2.12132 
C 1.55874 -2.683901 0.795609 -3 0 -3 
C -0.795609 -3 -1.55874 -2.683901 -2.12132 -2.12132 
C -2.683901 -1.55874 -3 -0.795609 -3 0 
C -3 0.795609 -2.683901 1.55874 -2.12132 2.12132 
C -1.55874 2.683901 -0.795609 3 0 3 
z
" id="mb3ea753330" style="stroke:#ffffff;stroke-width:0.75;"/>
    </defs>
    <g clip-path="url(#p2f160e5f45)">
     <use style="fill:#1f77b4;stroke:#ffffff;stroke-width:0.75;" x="85.79358" xlink:href="#mb3ea753330" y="204.385203"/>
     <use style="fill:#1f77b4;stroke:#ffffff;stroke-width:0.75;" x="184.398407" xlink:href="#mb3ea753330" y="199.269568"/>
     <use style="fill:#1f77b4;stroke:#ffffff;stroke-width:0.75;" x="242.078533" xlink:href="#mb3ea753330" y="152.733798"/>
     <use style="fill:#1f77b4;stroke:#ffffff;stroke-width:0.75;" x="283.003234" xlink:href="#mb3ea753330" y="142.337508"/>
     <use style="fill:#1f77b4;stroke:#ffffff;stroke-width:0.75;" x="314.746899" xlink:href="#mb3ea753330" y="130.786076"/>
     <use style="fill:#1f77b4;stroke:#ffffff;stroke-width:0.75;" x="340.683361" xlink:href="#mb3ea753330" y="128.475789"/>
     <use style="fill:#1f77b4;stroke:#ffffff;stroke-width:0.75;" x="362.612327" xlink:href="#mb3ea753330" y="128.475789"/>
     <use style="fill:#1f77b4;stroke:#ffffff;stroke-width:0.75;" x="381.608062" xlink:href="#mb3ea753330" y="127.650687"/>
     <use style="fill:#1f77b4;stroke:#ffffff;stroke-width:0.75;" x="398.363487" xlink:href="#mb3ea753330" y="100.917372"/>
     <use style="fill:#1f77b4;stroke:#ffffff;stroke-width:0.75;" x="413.351726" xlink:href="#mb3ea753330" y="78.474589"/>
     <use style="fill:#1f77b4;stroke:#ffffff;stroke-width:0.75;" x="426.910237" xlink:href="#mb3ea753330" y="66.758136"/>
     <use style="fill:#1f77b4;stroke:#ffffff;stroke-width:0.75;" x="439.288188" xlink:href="#mb3ea753330" y="66.593115"/>
     <use style="fill:#1f77b4;stroke:#ffffff;stroke-width:0.75;" x="450.674799" xlink:href="#mb3ea753330" y="53.721519"/>
     <use style="fill:#1f77b4;stroke:#ffffff;stroke-width:0.75;" x="461.217155" xlink:href="#mb3ea753330" y="53.391478"/>
     <use style="fill:#1f77b4;stroke:#ffffff;stroke-width:0.75;" x="471.031852" xlink:href="#mb3ea753330" y="53.061437"/>
     <use style="fill:#1f77b4;stroke:#ffffff;stroke-width:0.75;" x="480.212889" xlink:href="#mb3ea753330" y="53.061437"/>
     <use style="fill:#1f77b4;stroke:#ffffff;stroke-width:0.75;" x="488.837148" xlink:href="#mb3ea753330" y="53.061437"/>
     <use style="fill:#1f77b4;stroke:#ffffff;stroke-width:0.75;" x="496.968315" xlink:href="#mb3ea753330" y="53.061437"/>
     <use style="fill:#1f77b4;stroke:#ffffff;stroke-width:0.75;" x="504.659739" xlink:href="#mb3ea753330" y="52.236335"/>
     <use style="fill:#1f77b4;stroke:#ffffff;stroke-width:0.75;" x="511.956553" xlink:href="#mb3ea753330" y="52.236335"/>
     <use style="fill:#1f77b4;stroke:#ffffff;stroke-width:0.75;" x="518.897281" xlink:href="#mb3ea753330" y="52.236335"/>
     <use style="fill:#1f77b4;stroke:#ffffff;stroke-width:0.75;" x="525.515065" xlink:href="#mb3ea753330" y="52.236335"/>
     <use style="fill:#1f77b4;stroke:#ffffff;stroke-width:0.75;" x="531.838626" xlink:href="#mb3ea753330" y="51.906294"/>
     <use style="fill:#1f77b4;stroke:#ffffff;stroke-width:0.75;" x="537.893016" xlink:href="#mb3ea753330" y="51.906294"/>
     <use style="fill:#1f77b4;stroke:#ffffff;stroke-width:0.75;" x="543.700218" xlink:href="#mb3ea753330" y="51.576253"/>
     <use style="fill:#1f77b4;stroke:#ffffff;stroke-width:0.75;" x="549.279627" xlink:href="#mb3ea753330" y="50.091069"/>
     <use style="fill:#1f77b4;stroke:#ffffff;stroke-width:0.75;" x="554.648441" xlink:href="#mb3ea753330" y="49.926049"/>
     <use style="fill:#1f77b4;stroke:#ffffff;stroke-width:0.75;" x="559.821982" xlink:href="#mb3ea753330" y="49.926049"/>
     <use style="fill:#1f77b4;stroke:#ffffff;stroke-width:0.75;" x="564.813957" xlink:href="#mb3ea753330" y="49.926049"/>
     <use style="fill:#1f77b4;stroke:#ffffff;stroke-width:0.75;" x="569.63668" xlink:href="#mb3ea753330" y="49.926049"/>
     <use style="fill:#1f77b4;stroke:#ffffff;stroke-width:0.75;" x="574.301252" xlink:href="#mb3ea753330" y="49.926049"/>
     <use style="fill:#1f77b4;stroke:#ffffff;stroke-width:0.75;" x="578.817717" xlink:href="#mb3ea753330" y="49.596008"/>
     <use style="fill:#1f77b4;stroke:#ffffff;stroke-width:0.75;" x="583.195191" xlink:href="#mb3ea753330" y="49.596008"/>
     <use style="fill:#1f77b4;stroke:#ffffff;stroke-width:0.75;" x="587.441975" xlink:href="#mb3ea753330" y="49.596008"/>
     <use style="fill:#1f77b4;stroke:#ffffff;stroke-width:0.75;" x="591.565646" xlink:href="#mb3ea753330" y="49.430987"/>
     <use style="fill:#1f77b4;stroke:#ffffff;stroke-width:0.75;" x="595.573142" xlink:href="#mb3ea753330" y="49.430987"/>
     <use style="fill:#1f77b4;stroke:#ffffff;stroke-width:0.75;" x="599.47083" xlink:href="#mb3ea753330" y="49.430987"/>
     <use style="fill:#1f77b4;stroke:#ffffff;stroke-width:0.75;" x="603.264566" xlink:href="#mb3ea753330" y="48.935926"/>
     <use style="fill:#1f77b4;stroke:#ffffff;stroke-width:0.75;" x="606.959753" xlink:href="#mb3ea753330" y="48.935926"/>
     <use style="fill:#1f77b4;stroke:#ffffff;stroke-width:0.75;" x="610.561381" xlink:href="#mb3ea753330" y="48.935926"/>
     <use style="fill:#1f77b4;stroke:#ffffff;stroke-width:0.75;" x="614.07407" xlink:href="#mb3ea753330" y="43.655271"/>
     <use style="fill:#1f77b4;stroke:#ffffff;stroke-width:0.75;" x="617.502108" xlink:href="#mb3ea753330" y="43.655271"/>
     <use style="fill:#1f77b4;stroke:#ffffff;stroke-width:0.75;" x="620.849479" xlink:href="#mb3ea753330" y="43.655271"/>
     <use style="fill:#1f77b4;stroke:#ffffff;stroke-width:0.75;" x="624.119892" xlink:href="#mb3ea753330" y="43.655271"/>
     <use style="fill:#1f77b4;stroke:#ffffff;stroke-width:0.75;" x="627.316806" xlink:href="#mb3ea753330" y="43.655271"/>
     <use style="fill:#1f77b4;stroke:#ffffff;stroke-width:0.75;" x="630.443453" xlink:href="#mb3ea753330" y="43.655271"/>
     <use style="fill:#1f77b4;stroke:#ffffff;stroke-width:0.75;" x="633.502855" xlink:href="#mb3ea753330" y="43.655271"/>
     <use style="fill:#1f77b4;stroke:#ffffff;stroke-width:0.75;" x="636.497843" xlink:href="#mb3ea753330" y="43.655271"/>
     <use style="fill:#1f77b4;stroke:#ffffff;stroke-width:0.75;" x="639.431075" xlink:href="#mb3ea753330" y="43.655271"/>
     <use style="fill:#1f77b4;stroke:#ffffff;stroke-width:0.75;" x="642.305045" xlink:href="#mb3ea753330" y="43.655271"/>
     <use style="fill:#1f77b4;stroke:#ffffff;stroke-width:0.75;" x="645.122101" xlink:href="#mb3ea753330" y="43.655271"/>
     <use style="fill:#1f77b4;stroke:#ffffff;stroke-width:0.75;" x="647.884454" xlink:href="#mb3ea753330" y="43.655271"/>
     <use style="fill:#1f77b4;stroke:#ffffff;stroke-width:0.75;" x="650.594187" xlink:href="#mb3ea753330" y="43.655271"/>
     <use style="fill:#1f77b4;stroke:#ffffff;stroke-width:0.75;" x="653.253268" xlink:href="#mb3ea753330" y="43.655271"/>
     <use style="fill:#1f77b4;stroke:#ffffff;stroke-width:0.75;" x="655.863556" xlink:href="#mb3ea753330" y="43.655271"/>
     <use style="fill:#1f77b4;stroke:#ffffff;stroke-width:0.75;" x="658.426809" xlink:href="#mb3ea753330" y="43.655271"/>
     <use style="fill:#1f77b4;stroke:#ffffff;stroke-width:0.75;" x="660.944693" xlink:href="#mb3ea753330" y="43.655271"/>
     <use style="fill:#1f77b4;stroke:#ffffff;stroke-width:0.75;" x="663.418785" xlink:href="#mb3ea753330" y="43.655271"/>
     <use style="fill:#1f77b4;stroke:#ffffff;stroke-width:0.75;" x="665.850582" xlink:href="#mb3ea753330" y="43.655271"/>
     <use style="fill:#1f77b4;stroke:#ffffff;stroke-width:0.75;" x="668.241507" xlink:href="#mb3ea753330" y="43.490251"/>
     <use style="fill:#1f77b4;stroke:#ffffff;stroke-width:0.75;" x="670.592911" xlink:href="#mb3ea753330" y="43.490251"/>
     <use style="fill:#1f77b4;stroke:#ffffff;stroke-width:0.75;" x="672.906079" xlink:href="#mb3ea753330" y="43.490251"/>
     <use style="fill:#1f77b4;stroke:#ffffff;stroke-width:0.75;" x="675.182235" xlink:href="#mb3ea753330" y="43.490251"/>
     <use style="fill:#1f77b4;stroke:#ffffff;stroke-width:0.75;" x="677.422544" xlink:href="#mb3ea753330" y="43.16021"/>
     <use style="fill:#1f77b4;stroke:#ffffff;stroke-width:0.75;" x="679.628118" xlink:href="#mb3ea753330" y="43.16021"/>
     <use style="fill:#1f77b4;stroke:#ffffff;stroke-width:0.75;" x="681.800019" xlink:href="#mb3ea753330" y="43.16021"/>
     <use style="fill:#1f77b4;stroke:#ffffff;stroke-width:0.75;" x="683.939257" xlink:href="#mb3ea753330" y="43.16021"/>
     <use style="fill:#1f77b4;stroke:#ffffff;stroke-width:0.75;" x="686.046802" xlink:href="#mb3ea753330" y="43.16021"/>
     <use style="fill:#1f77b4;stroke:#ffffff;stroke-width:0.75;" x="688.123579" xlink:href="#mb3ea753330" y="42.995189"/>
     <use style="fill:#1f77b4;stroke:#ffffff;stroke-width:0.75;" x="690.170474" xlink:href="#mb3ea753330" y="42.995189"/>
     <use style="fill:#1f77b4;stroke:#ffffff;stroke-width:0.75;" x="692.188333" xlink:href="#mb3ea753330" y="42.995189"/>
     <use style="fill:#1f77b4;stroke:#ffffff;stroke-width:0.75;" x="694.177969" xlink:href="#mb3ea753330" y="42.995189"/>
     <use style="fill:#1f77b4;stroke:#ffffff;stroke-width:0.75;" x="696.140162" xlink:href="#mb3ea753330" y="42.995189"/>
     <use style="fill:#1f77b4;stroke:#ffffff;stroke-width:0.75;" x="698.075657" xlink:href="#mb3ea753330" y="42.995189"/>
     <use style="fill:#1f77b4;stroke:#ffffff;stroke-width:0.75;" x="699.985172" xlink:href="#mb3ea753330" y="42.995189"/>
     <use style="fill:#1f77b4;stroke:#ffffff;stroke-width:0.75;" x="701.869394" xlink:href="#mb3ea753330" y="42.830169"/>
     <use style="fill:#1f77b4;stroke:#ffffff;stroke-width:0.75;" x="703.728985" xlink:href="#mb3ea753330" y="42.830169"/>
     <use style="fill:#1f77b4;stroke:#ffffff;stroke-width:0.75;" x="705.564581" xlink:href="#mb3ea753330" y="42.830169"/>
     <use style="fill:#1f77b4;stroke:#ffffff;stroke-width:0.75;" x="707.376792" xlink:href="#mb3ea753330" y="42.830169"/>
     <use style="fill:#1f77b4;stroke:#ffffff;stroke-width:0.75;" x="709.166208" xlink:href="#mb3ea753330" y="42.830169"/>
     <use style="fill:#1f77b4;stroke:#ffffff;stroke-width:0.75;" x="710.933395" xlink:href="#mb3ea753330" y="42.830169"/>
     <use style="fill:#1f77b4;stroke:#ffffff;stroke-width:0.75;" x="712.678898" xlink:href="#mb3ea753330" y="42.500128"/>
     <use style="fill:#1f77b4;stroke:#ffffff;stroke-width:0.75;" x="714.403242" xlink:href="#mb3ea753330" y="42.500128"/>
     <use style="fill:#1f77b4;stroke:#ffffff;stroke-width:0.75;" x="716.106936" xlink:href="#mb3ea753330" y="42.170087"/>
     <use style="fill:#1f77b4;stroke:#ffffff;stroke-width:0.75;" x="717.790467" xlink:href="#mb3ea753330" y="42.170087"/>
     <use style="fill:#1f77b4;stroke:#ffffff;stroke-width:0.75;" x="719.454307" xlink:href="#mb3ea753330" y="42.170087"/>
     <use style="fill:#1f77b4;stroke:#ffffff;stroke-width:0.75;" x="721.098911" xlink:href="#mb3ea753330" y="42.170087"/>
     <use style="fill:#1f77b4;stroke:#ffffff;stroke-width:0.75;" x="722.724719" xlink:href="#mb3ea753330" y="42.170087"/>
     <use style="fill:#1f77b4;stroke:#ffffff;stroke-width:0.75;" x="724.332157" xlink:href="#mb3ea753330" y="42.005066"/>
     <use style="fill:#1f77b4;stroke:#ffffff;stroke-width:0.75;" x="725.921634" xlink:href="#mb3ea753330" y="42.005066"/>
     <use style="fill:#1f77b4;stroke:#ffffff;stroke-width:0.75;" x="727.493547" xlink:href="#mb3ea753330" y="42.005066"/>
     <use style="fill:#1f77b4;stroke:#ffffff;stroke-width:0.75;" x="729.04828" xlink:href="#mb3ea753330" y="42.005066"/>
     <use style="fill:#1f77b4;stroke:#ffffff;stroke-width:0.75;" x="730.586206" xlink:href="#mb3ea753330" y="42.005066"/>
     <use style="fill:#1f77b4;stroke:#ffffff;stroke-width:0.75;" x="732.107682" xlink:href="#mb3ea753330" y="42.005066"/>
     <use style="fill:#1f77b4;stroke:#ffffff;stroke-width:0.75;" x="733.613058" xlink:href="#mb3ea753330" y="42.005066"/>
     <use style="fill:#1f77b4;stroke:#ffffff;stroke-width:0.75;" x="735.10267" xlink:href="#mb3ea753330" y="42.005066"/>
    </g>
   </g>
   <g id="line2d_39">
    <path clip-path="url(#p2f160e5f45)" d="M 85.79358 233.593825 
L 184.398407 212.141165 
L 242.078533 210.821001 
L 283.003234 207.355571 
L 314.746899 203.725121 
L 340.683361 203.39508 
L 362.612327 201.579855 
L 381.608062 197.124302 
L 398.363487 196.959282 
L 413.351726 196.959282 
L 426.910237 196.959282 
L 439.288188 196.629241 
L 450.674799 191.513607 
L 461.217155 191.348586 
L 471.031852 191.018545 
L 480.212889 191.018545 
L 488.837148 190.523484 
L 496.968315 190.193443 
L 504.659739 190.193443 
L 511.956553 189.863402 
L 518.897281 189.863402 
L 525.515065 189.863402 
L 531.838626 189.533361 
L 537.893016 189.533361 
L 543.700218 189.533361 
L 549.279627 189.533361 
L 554.648441 189.533361 
L 559.821982 189.533361 
L 564.813957 189.368341 
L 569.63668 182.767522 
L 574.301252 180.952297 
L 578.817717 180.787276 
L 583.195191 180.622256 
L 587.441975 180.292215 
L 591.565646 180.292215 
L 595.573142 180.292215 
L 599.47083 180.292215 
L 603.264566 180.292215 
L 606.959753 180.292215 
L 610.561381 180.292215 
L 614.07407 180.292215 
L 617.502108 176.166703 
L 620.849479 176.166703 
L 624.119892 175.506622 
L 627.316806 175.506622 
L 630.443453 175.506622 
L 633.502855 175.506622 
L 636.497843 175.506622 
L 639.431075 175.506622 
L 642.305045 175.506622 
L 645.122101 175.506622 
L 647.884454 175.506622 
L 650.594187 175.506622 
L 653.253268 175.506622 
L 655.863556 175.506622 
L 658.426809 175.506622 
L 660.944693 175.506622 
L 663.418785 175.341601 
L 665.850582 175.341601 
L 668.241507 175.176581 
L 670.592911 174.681519 
L 672.906079 174.681519 
L 675.182235 174.021437 
L 677.422544 173.196335 
L 679.628118 173.196335 
L 681.800019 173.031315 
L 683.939257 172.701274 
L 686.046802 172.701274 
L 688.123579 172.701274 
L 690.170474 172.701274 
L 692.188333 172.701274 
L 694.177969 172.371233 
L 696.140162 172.371233 
L 698.075657 172.371233 
L 699.985172 171.54613 
L 701.869394 171.54613 
L 703.728985 143.822693 
L 705.564581 140.192242 
L 707.376792 138.542038 
L 709.166208 137.551915 
L 710.933395 137.221874 
L 712.678898 137.056854 
L 714.403242 136.561792 
L 716.106936 136.396772 
L 717.790467 136.396772 
L 719.454307 136.231751 
L 721.098911 136.231751 
L 722.724719 135.90171 
L 724.332157 135.90171 
L 725.921634 135.90171 
L 727.493547 135.90171 
L 729.04828 135.73669 
L 730.586206 135.571669 
L 732.107682 134.416526 
L 733.613058 134.416526 
L 735.10267 134.416526 
" style="fill:none;stroke:#98df8a;stroke-linecap:square;stroke-width:1.5;"/>
    <defs>
     <path d="M -0 3 
L 3 -3 
L -3 -3 
z
" id="ma29bc887c8" style="stroke:#ffffff;stroke-linejoin:miter;stroke-width:0.75;"/>
    </defs>
    <g clip-path="url(#p2f160e5f45)">
     <use style="fill:#98df8a;stroke:#ffffff;stroke-linejoin:miter;stroke-width:0.75;" x="85.79358" xlink:href="#ma29bc887c8" y="233.593825"/>
     <use style="fill:#98df8a;stroke:#ffffff;stroke-linejoin:miter;stroke-width:0.75;" x="184.398407" xlink:href="#ma29bc887c8" y="212.141165"/>
     <use style="fill:#98df8a;stroke:#ffffff;stroke-linejoin:miter;stroke-width:0.75;" x="242.078533" xlink:href="#ma29bc887c8" y="210.821001"/>
     <use style="fill:#98df8a;stroke:#ffffff;stroke-linejoin:miter;stroke-width:0.75;" x="283.003234" xlink:href="#ma29bc887c8" y="207.355571"/>
     <use style="fill:#98df8a;stroke:#ffffff;stroke-linejoin:miter;stroke-width:0.75;" x="314.746899" xlink:href="#ma29bc887c8" y="203.725121"/>
     <use style="fill:#98df8a;stroke:#ffffff;stroke-linejoin:miter;stroke-width:0.75;" x="340.683361" xlink:href="#ma29bc887c8" y="203.39508"/>
     <use style="fill:#98df8a;stroke:#ffffff;stroke-linejoin:miter;stroke-width:0.75;" x="362.612327" xlink:href="#ma29bc887c8" y="201.579855"/>
     <use style="fill:#98df8a;stroke:#ffffff;stroke-linejoin:miter;stroke-width:0.75;" x="381.608062" xlink:href="#ma29bc887c8" y="197.124302"/>
     <use style="fill:#98df8a;stroke:#ffffff;stroke-linejoin:miter;stroke-width:0.75;" x="398.363487" xlink:href="#ma29bc887c8" y="196.959282"/>
     <use style="fill:#98df8a;stroke:#ffffff;stroke-linejoin:miter;stroke-width:0.75;" x="413.351726" xlink:href="#ma29bc887c8" y="196.959282"/>
     <use style="fill:#98df8a;stroke:#ffffff;stroke-linejoin:miter;stroke-width:0.75;" x="426.910237" xlink:href="#ma29bc887c8" y="196.959282"/>
     <use style="fill:#98df8a;stroke:#ffffff;stroke-linejoin:miter;stroke-width:0.75;" x="439.288188" xlink:href="#ma29bc887c8" y="196.629241"/>
     <use style="fill:#98df8a;stroke:#ffffff;stroke-linejoin:miter;stroke-width:0.75;" x="450.674799" xlink:href="#ma29bc887c8" y="191.513607"/>
     <use style="fill:#98df8a;stroke:#ffffff;stroke-linejoin:miter;stroke-width:0.75;" x="461.217155" xlink:href="#ma29bc887c8" y="191.348586"/>
     <use style="fill:#98df8a;stroke:#ffffff;stroke-linejoin:miter;stroke-width:0.75;" x="471.031852" xlink:href="#ma29bc887c8" y="191.018545"/>
     <use style="fill:#98df8a;stroke:#ffffff;stroke-linejoin:miter;stroke-width:0.75;" x="480.212889" xlink:href="#ma29bc887c8" y="191.018545"/>
     <use style="fill:#98df8a;stroke:#ffffff;stroke-linejoin:miter;stroke-width:0.75;" x="488.837148" xlink:href="#ma29bc887c8" y="190.523484"/>
     <use style="fill:#98df8a;stroke:#ffffff;stroke-linejoin:miter;stroke-width:0.75;" x="496.968315" xlink:href="#ma29bc887c8" y="190.193443"/>
     <use style="fill:#98df8a;stroke:#ffffff;stroke-linejoin:miter;stroke-width:0.75;" x="504.659739" xlink:href="#ma29bc887c8" y="190.193443"/>
     <use style="fill:#98df8a;stroke:#ffffff;stroke-linejoin:miter;stroke-width:0.75;" x="511.956553" xlink:href="#ma29bc887c8" y="189.863402"/>
     <use style="fill:#98df8a;stroke:#ffffff;stroke-linejoin:miter;stroke-width:0.75;" x="518.897281" xlink:href="#ma29bc887c8" y="189.863402"/>
     <use style="fill:#98df8a;stroke:#ffffff;stroke-linejoin:miter;stroke-width:0.75;" x="525.515065" xlink:href="#ma29bc887c8" y="189.863402"/>
     <use style="fill:#98df8a;stroke:#ffffff;stroke-linejoin:miter;stroke-width:0.75;" x="531.838626" xlink:href="#ma29bc887c8" y="189.533361"/>
     <use style="fill:#98df8a;stroke:#ffffff;stroke-linejoin:miter;stroke-width:0.75;" x="537.893016" xlink:href="#ma29bc887c8" y="189.533361"/>
     <use style="fill:#98df8a;stroke:#ffffff;stroke-linejoin:miter;stroke-width:0.75;" x="543.700218" xlink:href="#ma29bc887c8" y="189.533361"/>
     <use style="fill:#98df8a;stroke:#ffffff;stroke-linejoin:miter;stroke-width:0.75;" x="549.279627" xlink:href="#ma29bc887c8" y="189.533361"/>
     <use style="fill:#98df8a;stroke:#ffffff;stroke-linejoin:miter;stroke-width:0.75;" x="554.648441" xlink:href="#ma29bc887c8" y="189.533361"/>
     <use style="fill:#98df8a;stroke:#ffffff;stroke-linejoin:miter;stroke-width:0.75;" x="559.821982" xlink:href="#ma29bc887c8" y="189.533361"/>
     <use style="fill:#98df8a;stroke:#ffffff;stroke-linejoin:miter;stroke-width:0.75;" x="564.813957" xlink:href="#ma29bc887c8" y="189.368341"/>
     <use style="fill:#98df8a;stroke:#ffffff;stroke-linejoin:miter;stroke-width:0.75;" x="569.63668" xlink:href="#ma29bc887c8" y="182.767522"/>
     <use style="fill:#98df8a;stroke:#ffffff;stroke-linejoin:miter;stroke-width:0.75;" x="574.301252" xlink:href="#ma29bc887c8" y="180.952297"/>
     <use style="fill:#98df8a;stroke:#ffffff;stroke-linejoin:miter;stroke-width:0.75;" x="578.817717" xlink:href="#ma29bc887c8" y="180.787276"/>
     <use style="fill:#98df8a;stroke:#ffffff;stroke-linejoin:miter;stroke-width:0.75;" x="583.195191" xlink:href="#ma29bc887c8" y="180.622256"/>
     <use style="fill:#98df8a;stroke:#ffffff;stroke-linejoin:miter;stroke-width:0.75;" x="587.441975" xlink:href="#ma29bc887c8" y="180.292215"/>
     <use style="fill:#98df8a;stroke:#ffffff;stroke-linejoin:miter;stroke-width:0.75;" x="591.565646" xlink:href="#ma29bc887c8" y="180.292215"/>
     <use style="fill:#98df8a;stroke:#ffffff;stroke-linejoin:miter;stroke-width:0.75;" x="595.573142" xlink:href="#ma29bc887c8" y="180.292215"/>
     <use style="fill:#98df8a;stroke:#ffffff;stroke-linejoin:miter;stroke-width:0.75;" x="599.47083" xlink:href="#ma29bc887c8" y="180.292215"/>
     <use style="fill:#98df8a;stroke:#ffffff;stroke-linejoin:miter;stroke-width:0.75;" x="603.264566" xlink:href="#ma29bc887c8" y="180.292215"/>
     <use style="fill:#98df8a;stroke:#ffffff;stroke-linejoin:miter;stroke-width:0.75;" x="606.959753" xlink:href="#ma29bc887c8" y="180.292215"/>
     <use style="fill:#98df8a;stroke:#ffffff;stroke-linejoin:miter;stroke-width:0.75;" x="610.561381" xlink:href="#ma29bc887c8" y="180.292215"/>
     <use style="fill:#98df8a;stroke:#ffffff;stroke-linejoin:miter;stroke-width:0.75;" x="614.07407" xlink:href="#ma29bc887c8" y="180.292215"/>
     <use style="fill:#98df8a;stroke:#ffffff;stroke-linejoin:miter;stroke-width:0.75;" x="617.502108" xlink:href="#ma29bc887c8" y="176.166703"/>
     <use style="fill:#98df8a;stroke:#ffffff;stroke-linejoin:miter;stroke-width:0.75;" x="620.849479" xlink:href="#ma29bc887c8" y="176.166703"/>
     <use style="fill:#98df8a;stroke:#ffffff;stroke-linejoin:miter;stroke-width:0.75;" x="624.119892" xlink:href="#ma29bc887c8" y="175.506622"/>
     <use style="fill:#98df8a;stroke:#ffffff;stroke-linejoin:miter;stroke-width:0.75;" x="627.316806" xlink:href="#ma29bc887c8" y="175.506622"/>
     <use style="fill:#98df8a;stroke:#ffffff;stroke-linejoin:miter;stroke-width:0.75;" x="630.443453" xlink:href="#ma29bc887c8" y="175.506622"/>
     <use style="fill:#98df8a;stroke:#ffffff;stroke-linejoin:miter;stroke-width:0.75;" x="633.502855" xlink:href="#ma29bc887c8" y="175.506622"/>
     <use style="fill:#98df8a;stroke:#ffffff;stroke-linejoin:miter;stroke-width:0.75;" x="636.497843" xlink:href="#ma29bc887c8" y="175.506622"/>
     <use style="fill:#98df8a;stroke:#ffffff;stroke-linejoin:miter;stroke-width:0.75;" x="639.431075" xlink:href="#ma29bc887c8" y="175.506622"/>
     <use style="fill:#98df8a;stroke:#ffffff;stroke-linejoin:miter;stroke-width:0.75;" x="642.305045" xlink:href="#ma29bc887c8" y="175.506622"/>
     <use style="fill:#98df8a;stroke:#ffffff;stroke-linejoin:miter;stroke-width:0.75;" x="645.122101" xlink:href="#ma29bc887c8" y="175.506622"/>
     <use style="fill:#98df8a;stroke:#ffffff;stroke-linejoin:miter;stroke-width:0.75;" x="647.884454" xlink:href="#ma29bc887c8" y="175.506622"/>
     <use style="fill:#98df8a;stroke:#ffffff;stroke-linejoin:miter;stroke-width:0.75;" x="650.594187" xlink:href="#ma29bc887c8" y="175.506622"/>
     <use style="fill:#98df8a;stroke:#ffffff;stroke-linejoin:miter;stroke-width:0.75;" x="653.253268" xlink:href="#ma29bc887c8" y="175.506622"/>
     <use style="fill:#98df8a;stroke:#ffffff;stroke-linejoin:miter;stroke-width:0.75;" x="655.863556" xlink:href="#ma29bc887c8" y="175.506622"/>
     <use style="fill:#98df8a;stroke:#ffffff;stroke-linejoin:miter;stroke-width:0.75;" x="658.426809" xlink:href="#ma29bc887c8" y="175.506622"/>
     <use style="fill:#98df8a;stroke:#ffffff;stroke-linejoin:miter;stroke-width:0.75;" x="660.944693" xlink:href="#ma29bc887c8" y="175.506622"/>
     <use style="fill:#98df8a;stroke:#ffffff;stroke-linejoin:miter;stroke-width:0.75;" x="663.418785" xlink:href="#ma29bc887c8" y="175.341601"/>
     <use style="fill:#98df8a;stroke:#ffffff;stroke-linejoin:miter;stroke-width:0.75;" x="665.850582" xlink:href="#ma29bc887c8" y="175.341601"/>
     <use style="fill:#98df8a;stroke:#ffffff;stroke-linejoin:miter;stroke-width:0.75;" x="668.241507" xlink:href="#ma29bc887c8" y="175.176581"/>
     <use style="fill:#98df8a;stroke:#ffffff;stroke-linejoin:miter;stroke-width:0.75;" x="670.592911" xlink:href="#ma29bc887c8" y="174.681519"/>
     <use style="fill:#98df8a;stroke:#ffffff;stroke-linejoin:miter;stroke-width:0.75;" x="672.906079" xlink:href="#ma29bc887c8" y="174.681519"/>
     <use style="fill:#98df8a;stroke:#ffffff;stroke-linejoin:miter;stroke-width:0.75;" x="675.182235" xlink:href="#ma29bc887c8" y="174.021437"/>
     <use style="fill:#98df8a;stroke:#ffffff;stroke-linejoin:miter;stroke-width:0.75;" x="677.422544" xlink:href="#ma29bc887c8" y="173.196335"/>
     <use style="fill:#98df8a;stroke:#ffffff;stroke-linejoin:miter;stroke-width:0.75;" x="679.628118" xlink:href="#ma29bc887c8" y="173.196335"/>
     <use style="fill:#98df8a;stroke:#ffffff;stroke-linejoin:miter;stroke-width:0.75;" x="681.800019" xlink:href="#ma29bc887c8" y="173.031315"/>
     <use style="fill:#98df8a;stroke:#ffffff;stroke-linejoin:miter;stroke-width:0.75;" x="683.939257" xlink:href="#ma29bc887c8" y="172.701274"/>
     <use style="fill:#98df8a;stroke:#ffffff;stroke-linejoin:miter;stroke-width:0.75;" x="686.046802" xlink:href="#ma29bc887c8" y="172.701274"/>
     <use style="fill:#98df8a;stroke:#ffffff;stroke-linejoin:miter;stroke-width:0.75;" x="688.123579" xlink:href="#ma29bc887c8" y="172.701274"/>
     <use style="fill:#98df8a;stroke:#ffffff;stroke-linejoin:miter;stroke-width:0.75;" x="690.170474" xlink:href="#ma29bc887c8" y="172.701274"/>
     <use style="fill:#98df8a;stroke:#ffffff;stroke-linejoin:miter;stroke-width:0.75;" x="692.188333" xlink:href="#ma29bc887c8" y="172.701274"/>
     <use style="fill:#98df8a;stroke:#ffffff;stroke-linejoin:miter;stroke-width:0.75;" x="694.177969" xlink:href="#ma29bc887c8" y="172.371233"/>
     <use style="fill:#98df8a;stroke:#ffffff;stroke-linejoin:miter;stroke-width:0.75;" x="696.140162" xlink:href="#ma29bc887c8" y="172.371233"/>
     <use style="fill:#98df8a;stroke:#ffffff;stroke-linejoin:miter;stroke-width:0.75;" x="698.075657" xlink:href="#ma29bc887c8" y="172.371233"/>
     <use style="fill:#98df8a;stroke:#ffffff;stroke-linejoin:miter;stroke-width:0.75;" x="699.985172" xlink:href="#ma29bc887c8" y="171.54613"/>
     <use style="fill:#98df8a;stroke:#ffffff;stroke-linejoin:miter;stroke-width:0.75;" x="701.869394" xlink:href="#ma29bc887c8" y="171.54613"/>
     <use style="fill:#98df8a;stroke:#ffffff;stroke-linejoin:miter;stroke-width:0.75;" x="703.728985" xlink:href="#ma29bc887c8" y="143.822693"/>
     <use style="fill:#98df8a;stroke:#ffffff;stroke-linejoin:miter;stroke-width:0.75;" x="705.564581" xlink:href="#ma29bc887c8" y="140.192242"/>
     <use style="fill:#98df8a;stroke:#ffffff;stroke-linejoin:miter;stroke-width:0.75;" x="707.376792" xlink:href="#ma29bc887c8" y="138.542038"/>
     <use style="fill:#98df8a;stroke:#ffffff;stroke-linejoin:miter;stroke-width:0.75;" x="709.166208" xlink:href="#ma29bc887c8" y="137.551915"/>
     <use style="fill:#98df8a;stroke:#ffffff;stroke-linejoin:miter;stroke-width:0.75;" x="710.933395" xlink:href="#ma29bc887c8" y="137.221874"/>
     <use style="fill:#98df8a;stroke:#ffffff;stroke-linejoin:miter;stroke-width:0.75;" x="712.678898" xlink:href="#ma29bc887c8" y="137.056854"/>
     <use style="fill:#98df8a;stroke:#ffffff;stroke-linejoin:miter;stroke-width:0.75;" x="714.403242" xlink:href="#ma29bc887c8" y="136.561792"/>
     <use style="fill:#98df8a;stroke:#ffffff;stroke-linejoin:miter;stroke-width:0.75;" x="716.106936" xlink:href="#ma29bc887c8" y="136.396772"/>
     <use style="fill:#98df8a;stroke:#ffffff;stroke-linejoin:miter;stroke-width:0.75;" x="717.790467" xlink:href="#ma29bc887c8" y="136.396772"/>
     <use style="fill:#98df8a;stroke:#ffffff;stroke-linejoin:miter;stroke-width:0.75;" x="719.454307" xlink:href="#ma29bc887c8" y="136.231751"/>
     <use style="fill:#98df8a;stroke:#ffffff;stroke-linejoin:miter;stroke-width:0.75;" x="721.098911" xlink:href="#ma29bc887c8" y="136.231751"/>
     <use style="fill:#98df8a;stroke:#ffffff;stroke-linejoin:miter;stroke-width:0.75;" x="722.724719" xlink:href="#ma29bc887c8" y="135.90171"/>
     <use style="fill:#98df8a;stroke:#ffffff;stroke-linejoin:miter;stroke-width:0.75;" x="724.332157" xlink:href="#ma29bc887c8" y="135.90171"/>
     <use style="fill:#98df8a;stroke:#ffffff;stroke-linejoin:miter;stroke-width:0.75;" x="725.921634" xlink:href="#ma29bc887c8" y="135.90171"/>
     <use style="fill:#98df8a;stroke:#ffffff;stroke-linejoin:miter;stroke-width:0.75;" x="727.493547" xlink:href="#ma29bc887c8" y="135.90171"/>
     <use style="fill:#98df8a;stroke:#ffffff;stroke-linejoin:miter;stroke-width:0.75;" x="729.04828" xlink:href="#ma29bc887c8" y="135.73669"/>
     <use style="fill:#98df8a;stroke:#ffffff;stroke-linejoin:miter;stroke-width:0.75;" x="730.586206" xlink:href="#ma29bc887c8" y="135.571669"/>
     <use style="fill:#98df8a;stroke:#ffffff;stroke-linejoin:miter;stroke-width:0.75;" x="732.107682" xlink:href="#ma29bc887c8" y="134.416526"/>
     <use style="fill:#98df8a;stroke:#ffffff;stroke-linejoin:miter;stroke-width:0.75;" x="733.613058" xlink:href="#ma29bc887c8" y="134.416526"/>
     <use style="fill:#98df8a;stroke:#ffffff;stroke-linejoin:miter;stroke-width:0.75;" x="735.10267" xlink:href="#ma29bc887c8" y="134.416526"/>
    </g>
   </g>
   <g id="line2d_40"/>
   <g id="line2d_41"/>
   <g id="line2d_42">
    <path clip-path="url(#p2f160e5f45)" d="M 735.10267 288.430125 
L 735.10267 22.318125 
" style="fill:none;stroke:#ff0000;stroke-linecap:square;stroke-width:1.5;"/>
   </g>
   <g id="patch_3">
    <path d="M 53.328125 285.905312 
L 53.328125 54.876663 
" style="fill:none;stroke:#000000;stroke-linecap:square;stroke-linejoin:miter;stroke-width:0.8;"/>
   </g>
   <g id="patch_4">
    <path d="M 85.79358 288.430125 
L 735.104317 288.430125 
" style="fill:none;stroke:#000000;stroke-linecap:square;stroke-linejoin:miter;stroke-width:0.8;"/>
   </g>
   <g id="text_23">
    <!-- libjpeg-turbo-07-2017 (24h, 10 trials/fuzzer) -->
    <g transform="translate(277.985938 16.318125)scale(0.12 -0.12)">
     <defs>
      <path d="M 603 4863 
L 1178 4863 
L 1178 0 
L 603 0 
L 603 4863 
z
" id="DejaVuSans-6c" transform="scale(0.015625)"/>
      <path d="M 603 3500 
L 1178 3500 
L 1178 -63 
Q 1178 -731 923 -1031 
Q 669 -1331 103 -1331 
L -116 -1331 
L -116 -844 
L 38 -844 
Q 366 -844 484 -692 
Q 603 -541 603 -63 
L 603 3500 
z
M 603 4863 
L 1178 4863 
L 1178 4134 
L 603 4134 
L 603 4863 
z
" id="DejaVuSans-6a" transform="scale(0.015625)"/>
      <path d="M 1159 525 
L 1159 -1331 
L 581 -1331 
L 581 3500 
L 1159 3500 
L 1159 2969 
Q 1341 3281 1617 3432 
Q 1894 3584 2278 3584 
Q 2916 3584 3314 3078 
Q 3713 2572 3713 1747 
Q 3713 922 3314 415 
Q 2916 -91 2278 -91 
Q 1894 -91 1617 61 
Q 1341 213 1159 525 
z
M 3116 1747 
Q 3116 2381 2855 2742 
Q 2594 3103 2138 3103 
Q 1681 3103 1420 2742 
Q 1159 2381 1159 1747 
Q 1159 1113 1420 752 
Q 1681 391 2138 391 
Q 2594 391 2855 752 
Q 3116 1113 3116 1747 
z
" id="DejaVuSans-70" transform="scale(0.015625)"/>
      <path d="M 313 2009 
L 1997 2009 
L 1997 1497 
L 313 1497 
L 313 2009 
z
" id="DejaVuSans-2d" transform="scale(0.015625)"/>
      <path d="M 750 794 
L 1409 794 
L 1409 256 
L 897 -744 
L 494 -744 
L 750 256 
L 750 794 
z
" id="DejaVuSans-2c" transform="scale(0.015625)"/>
      <path d="M 2834 3397 
L 2834 2853 
Q 2591 2978 2328 3040 
Q 2066 3103 1784 3103 
Q 1356 3103 1142 2972 
Q 928 2841 928 2578 
Q 928 2378 1081 2264 
Q 1234 2150 1697 2047 
L 1894 2003 
Q 2506 1872 2764 1633 
Q 3022 1394 3022 966 
Q 3022 478 2636 193 
Q 2250 -91 1575 -91 
Q 1294 -91 989 -36 
Q 684 19 347 128 
L 347 722 
Q 666 556 975 473 
Q 1284 391 1588 391 
Q 1994 391 2212 530 
Q 2431 669 2431 922 
Q 2431 1156 2273 1281 
Q 2116 1406 1581 1522 
L 1381 1569 
Q 847 1681 609 1914 
Q 372 2147 372 2553 
Q 372 3047 722 3315 
Q 1072 3584 1716 3584 
Q 2034 3584 2315 3537 
Q 2597 3491 2834 3397 
z
" id="DejaVuSans-73" transform="scale(0.015625)"/>
      <path d="M 1625 4666 
L 2156 4666 
L 531 -594 
L 0 -594 
L 1625 4666 
z
" id="DejaVuSans-2f" transform="scale(0.015625)"/>
      <path d="M 2375 4863 
L 2375 4384 
L 1825 4384 
Q 1516 4384 1395 4259 
Q 1275 4134 1275 3809 
L 1275 3500 
L 2222 3500 
L 2222 3053 
L 1275 3053 
L 1275 0 
L 697 0 
L 697 3053 
L 147 3053 
L 147 3500 
L 697 3500 
L 697 3744 
Q 697 4328 969 4595 
Q 1241 4863 1831 4863 
L 2375 4863 
z
" id="DejaVuSans-66" transform="scale(0.015625)"/>
      <path d="M 353 3500 
L 3084 3500 
L 3084 2975 
L 922 459 
L 3084 459 
L 3084 0 
L 275 0 
L 275 525 
L 2438 3041 
L 353 3041 
L 353 3500 
z
" id="DejaVuSans-7a" transform="scale(0.015625)"/>
     </defs>
     <use xlink:href="#DejaVuSans-6c"/>
     <use x="27.783203" xlink:href="#DejaVuSans-69"/>
     <use x="55.566406" xlink:href="#DejaVuSans-62"/>
     <use x="119.042969" xlink:href="#DejaVuSans-6a"/>
     <use x="146.826172" xlink:href="#DejaVuSans-70"/>
     <use x="210.302734" xlink:href="#DejaVuSans-65"/>
     <use x="271.826172" xlink:href="#DejaVuSans-67"/>
     <use x="335.302734" xlink:href="#DejaVuSans-2d"/>
     <use x="371.386719" xlink:href="#DejaVuSans-74"/>
     <use x="410.595703" xlink:href="#DejaVuSans-75"/>
     <use x="473.974609" xlink:href="#DejaVuSans-72"/>
     <use x="515.087891" xlink:href="#DejaVuSans-62"/>
     <use x="578.564453" xlink:href="#DejaVuSans-6f"/>
     <use x="641.621094" xlink:href="#DejaVuSans-2d"/>
     <use x="677.705078" xlink:href="#DejaVuSans-30"/>
     <use x="741.328125" xlink:href="#DejaVuSans-37"/>
     <use x="804.951172" xlink:href="#DejaVuSans-2d"/>
     <use x="841.035156" xlink:href="#DejaVuSans-32"/>
     <use x="904.658203" xlink:href="#DejaVuSans-30"/>
     <use x="968.28125" xlink:href="#DejaVuSans-31"/>
     <use x="1031.904297" xlink:href="#DejaVuSans-37"/>
     <use x="1095.527344" xlink:href="#DejaVuSans-20"/>
     <use x="1127.314453" xlink:href="#DejaVuSans-28"/>
     <use x="1166.328125" xlink:href="#DejaVuSans-32"/>
     <use x="1229.951172" xlink:href="#DejaVuSans-34"/>
     <use x="1293.574219" xlink:href="#DejaVuSans-68"/>
     <use x="1356.953125" xlink:href="#DejaVuSans-2c"/>
     <use x="1388.740234" xlink:href="#DejaVuSans-20"/>
     <use x="1420.527344" xlink:href="#DejaVuSans-31"/>
     <use x="1484.150391" xlink:href="#DejaVuSans-30"/>
     <use x="1547.773438" xlink:href="#DejaVuSans-20"/>
     <use x="1579.560547" xlink:href="#DejaVuSans-74"/>
     <use x="1618.769531" xlink:href="#DejaVuSans-72"/>
     <use x="1659.882812" xlink:href="#DejaVuSans-69"/>
     <use x="1687.666016" xlink:href="#DejaVuSans-61"/>
     <use x="1748.945312" xlink:href="#DejaVuSans-6c"/>
     <use x="1776.728516" xlink:href="#DejaVuSans-73"/>
     <use x="1828.828125" xlink:href="#DejaVuSans-2f"/>
     <use x="1862.519531" xlink:href="#DejaVuSans-66"/>
     <use x="1897.724609" xlink:href="#DejaVuSans-75"/>
     <use x="1961.103516" xlink:href="#DejaVuSans-7a"/>
     <use x="2013.59375" xlink:href="#DejaVuSans-7a"/>
     <use x="2066.083984" xlink:href="#DejaVuSans-65"/>
     <use x="2127.607422" xlink:href="#DejaVuSans-72"/>
     <use x="2168.720703" xlink:href="#DejaVuSans-29"/>
    </g>
   </g>
   <g id="legend_1">
    <g id="line2d_43">
     <path d="M 771.568125 30.416562 
L 791.568125 30.416562 
" style="fill:none;stroke:#1f77b4;stroke-linecap:square;stroke-width:1.5;"/>
    </g>
    <g id="line2d_44">
     <defs>
      <path d="M 0 3 
C 0.795609 3 1.55874 2.683901 2.12132 2.12132 
C 2.683901 1.55874 3 0.795609 3 0 
C 3 -0.795609 2.683901 -1.55874 2.12132 -2.12132 
C 1.55874 -2.683901 0.795609 -3 0 -3 
C -0.795609 -3 -1.55874 -2.683901 -2.12132 -2.12132 
C -2.683901 -1.55874 -3 -0.795609 -3 0 
C -3 0.795609 -2.683901 1.55874 -2.12132 2.12132 
C -1.55874 2.683901 -0.795609 3 0 3 
z
" id="me7d8f5e489" style="stroke:#1f77b4;"/>
     </defs>
     <g>
      <use style="fill:#1f77b4;stroke:#1f77b4;" x="781.568125" xlink:href="#me7d8f5e489" y="30.416562"/>
     </g>
    </g>
    <g id="text_24">
     <!-- aflplusplus -->
     <g transform="translate(799.568125 33.916562)scale(0.1 -0.1)">
      <use xlink:href="#DejaVuSans-61"/>
      <use x="61.279297" xlink:href="#DejaVuSans-66"/>
      <use x="96.484375" xlink:href="#DejaVuSans-6c"/>
      <use x="124.267578" xlink:href="#DejaVuSans-70"/>
      <use x="187.744141" xlink:href="#DejaVuSans-6c"/>
      <use x="215.527344" xlink:href="#DejaVuSans-75"/>
      <use x="278.90625" xlink:href="#DejaVuSans-73"/>
      <use x="331.005859" xlink:href="#DejaVuSans-70"/>
      <use x="394.482422" xlink:href="#DejaVuSans-6c"/>
      <use x="422.265625" xlink:href="#DejaVuSans-75"/>
      <use x="485.644531" xlink:href="#DejaVuSans-73"/>
     </g>
    </g>
    <g id="line2d_45">
     <path d="M 771.568125 45.094688 
L 791.568125 45.094688 
" style="fill:none;stroke:#98df8a;stroke-linecap:square;stroke-width:1.5;"/>
    </g>
    <g id="line2d_46">
     <defs>
      <path d="M -0 3 
L 3 -3 
L -3 -3 
z
" id="m00cc028646" style="stroke:#98df8a;stroke-linejoin:miter;"/>
     </defs>
     <g>
      <use style="fill:#98df8a;stroke:#98df8a;stroke-linejoin:miter;" x="781.568125" xlink:href="#m00cc028646" y="45.094688"/>
     </g>
    </g>
    <g id="text_25">
     <!-- libfuzzer -->
     <g transform="translate(799.568125 48.594688)scale(0.1 -0.1)">
      <use xlink:href="#DejaVuSans-6c"/>
      <use x="27.783203" xlink:href="#DejaVuSans-69"/>
      <use x="55.566406" xlink:href="#DejaVuSans-62"/>
      <use x="119.042969" xlink:href="#DejaVuSans-66"/>
      <use x="154.248047" xlink:href="#DejaVuSans-75"/>
      <use x="217.626953" xlink:href="#DejaVuSans-7a"/>
      <use x="270.117188" xlink:href="#DejaVuSans-7a"/>
      <use x="322.607422" xlink:href="#DejaVuSans-65"/>
      <use x="384.130859" xlink:href="#DejaVuSans-72"/>
     </g>
    </g>
   </g>
  </g>
 </g>
 <defs>
  <clipPath id="p2f160e5f45">
   <rect height="266.112" width="714.24" x="53.328125" y="22.318125"/>
  </clipPath>
 </defs>
</svg>
