<?xml version="1.0" encoding="utf-8" standalone="no"?>
<!DOCTYPE svg PUBLIC "-//W3C//DTD SVG 1.1//EN"
  "http://www.w3.org/Graphics/SVG/1.1/DTD/svg11.dtd">
<svg height="325.986375pt" version="1.1" viewBox="0 0 864.541562 325.986375" width="864.541562pt" xmlns="http://www.w3.org/2000/svg" xmlns:xlink="http://www.w3.org/1999/xlink">
 <metadata>
  <rdf:RDF xmlns:cc="http://creativecommons.org/ns#" xmlns:dc="http://purl.org/dc/elements/1.1/" xmlns:rdf="http://www.w3.org/1999/02/22-rdf-syntax-ns#">
   <cc:Work>
    <dc:type rdf:resource="http://purl.org/dc/dcmitype/StillImage"/>
    <dc:date>2022-06-12T09:51:32.096887</dc:date>
    <dc:format>image/svg+xml</dc:format>
    <dc:creator>
     <cc:Agent>
      <dc:title>Matplotlib v3.4.1, https://matplotlib.org/</dc:title>
     </cc:Agent>
    </dc:creator>
   </cc:Work>
  </rdf:RDF>
 </metadata>
 <defs>
  <style type="text/css">*{stroke-linecap:butt;stroke-linejoin:round;}</style>
 </defs>
 <g id="figure_1">
  <g id="patch_1">
   <path d="M 0 325.986375 
L 864.541562 325.986375 
L 864.541562 0 
L 0 0 
z
" style="fill:#ffffff;"/>
  </g>
  <g id="axes_1">
   <g id="patch_2">
    <path d="M 53.328125 288.430125 
L 767.568125 288.430125 
L 767.568125 22.318125 
L 53.328125 22.318125 
z
" style="fill:#ffffff;"/>
   </g>
   <g id="PolyCollection_1">
    <defs>
     <path d="M 85.79358 -109.963111 
L 85.79358 -93.833403 
L 193.609826 -101.521538 
L 256.678287 -114.027572 
L 301.426072 -116.077742 
L 336.135151 -119.358013 
L 364.494533 -120.998148 
L 388.472049 -143.75503 
L 409.242318 -146.830284 
L 427.562994 -148.880453 
L 443.951397 -148.470419 
L 458.776511 -160.566419 
L 472.310779 -167.029579 
L 484.761099 -157.491165 
L 496.288295 -168.562081 
L 507.019858 -161.796521 
L 517.058564 -168.285308 
L 526.48848 -168.972114 
L 535.37924 -168.972114 
L 543.789178 -168.972114 
L 551.767643 -168.900358 
L 559.356756 -169.792182 
L 566.592757 -181.273131 
L 573.507049 -189.883843 
L 580.127025 -188.089945 
L 586.476722 -190.683409 
L 592.577346 -191.523979 
L 598.447701 -194.394216 
L 604.104541 -197.264453 
L 609.562855 -197.264453 
L 614.836104 -197.264453 
L 619.936429 -197.46947 
L 624.874811 -198.904589 
L 629.661218 -203.004928 
L 634.304726 -207.515301 
L 638.81362 -207.515301 
L 643.195486 -207.925335 
L 647.457286 -210.385538 
L 651.605424 -213.665809 
L 655.645807 -214.075843 
L 659.583889 -219.201267 
L 663.424726 -219.816318 
L 667.173002 -220.021335 
L 670.833076 -221.866487 
L 674.409003 -222.071504 
L 677.904565 -224.531708 
L 681.323295 -228.016996 
L 684.668499 -228.016996 
L 687.943272 -230.272182 
L 691.150519 -231.297267 
L 694.292968 -233.552453 
L 697.373187 -233.75747 
L 700.393592 -235.397606 
L 703.356462 -238.062826 
L 706.263947 -240.692169 
L 709.118082 -240.728047 
L 711.920788 -240.112996 
L 714.673885 -241.548114 
L 717.379101 -241.522487 
L 720.038071 -243.18825 
L 722.65235 -244.828386 
L 725.223417 -246.058487 
L 727.752675 -246.058487 
L 730.241463 -253.367342 
L 732.691057 -254.259165 
L 735.10267 -255.28425 
L 735.10267 -291.162216 
L 735.10267 -291.162216 
L 732.691057 -291.172467 
L 730.241463 -291.57225 
L 727.752675 -291.162216 
L 725.223417 -291.162216 
L 722.65235 -291.162216 
L 720.038071 -291.162216 
L 717.379101 -290.752182 
L 714.673885 -290.342148 
L 711.920788 -290.342148 
L 709.118082 -290.347274 
L 706.263947 -290.342148 
L 703.356462 -288.702013 
L 700.393592 -283.781606 
L 697.373187 -283.371572 
L 694.292968 -278.451165 
L 691.150519 -271.480589 
L 687.943272 -268.610352 
L 684.668499 -264.510013 
L 681.323295 -263.689945 
L 677.904565 -263.689945 
L 674.409003 -263.689945 
L 670.833076 -263.689945 
L 667.173002 -263.689945 
L 663.424726 -272.710691 
L 659.583889 -262.869877 
L 655.645807 -262.869877 
L 651.605424 -262.459843 
L 647.457286 -262.639233 
L 643.195486 -269.635436 
L 638.81362 -262.459843 
L 634.304726 -262.459843 
L 629.661218 -262.459843 
L 624.874811 -262.459843 
L 619.936429 -262.459843 
L 614.836104 -262.59823 
L 609.562855 -262.459843 
L 604.104541 -262.459843 
L 598.447701 -261.229742 
L 592.577346 -248.723708 
L 586.476722 -245.443436 
L 580.127025 -234.167504 
L 573.507049 -234.177755 
L 566.592757 -237.242758 
L 559.356756 -228.837064 
L 551.767643 -228.872942 
L 543.789178 -220.636386 
L 535.37924 -220.636386 
L 526.48848 -220.226352 
L 517.058564 -217.356114 
L 507.019858 -214.075843 
L 496.288295 -214.075843 
L 484.761099 -211.205606 
L 472.310779 -203.004928 
L 458.776511 -206.080182 
L 443.951397 -203.004928 
L 427.562994 -203.004928 
L 409.242318 -199.314623 
L 388.472049 -188.715247 
L 364.494533 -188.448725 
L 336.135151 -187.013606 
L 301.426072 -160.448535 
L 256.678287 -156.671097 
L 193.609826 -128.788792 
L 85.79358 -109.963111 
z
" id="m0f1d9b82ab" style="stroke:#1f77b4;stroke-opacity:0.2;"/>
    </defs>
    <g clip-path="url(#pf33fed2e2e)">
     <use style="fill:#1f77b4;fill-opacity:0.2;stroke:#1f77b4;stroke-opacity:0.2;" x="0" xlink:href="#m0f1d9b82ab" y="325.986375"/>
    </g>
   </g>
   <g id="PolyCollection_2">
    <defs>
     <path d="M 85.79358 -76.714487 
L 85.79358 -49.65225 
L 193.609826 -80.814826 
L 256.678287 -97.216182 
L 301.426072 -106.646962 
L 336.135151 -112.79747 
L 364.494533 -119.56303 
L 388.472049 -123.868386 
L 409.242318 -128.378758 
L 427.562994 -129.60886 
L 443.951397 -137.194487 
L 458.776511 -140.679775 
L 472.310779 -147.035301 
L 484.761099 -152.975667 
L 496.288295 -154.415911 
L 507.019858 -155.830528 
L 517.058564 -156.671097 
L 526.48848 -157.696182 
L 535.37924 -158.106216 
L 543.789178 -160.771436 
L 551.767643 -160.976453 
L 559.356756 -161.591504 
L 566.592757 -163.23164 
L 573.507049 -164.256725 
L 580.127025 -167.870148 
L 586.476722 -165.281809 
L 592.577346 -165.89686 
L 598.447701 -166.716928 
L 604.104541 -169.792182 
L 609.562855 -171.022284 
L 614.836104 -171.432318 
L 619.936429 -177.910853 
L 624.874811 -173.072453 
L 629.661218 -175.32764 
L 634.304726 -174.097538 
L 638.81362 -177.172792 
L 643.195486 -177.111287 
L 647.457286 -182.503233 
L 651.605424 -179.222962 
L 655.645807 -181.068114 
L 659.583889 -180.658081 
L 663.424726 -184.553403 
L 667.173002 -178.402894 
L 670.833076 -184.553403 
L 674.409003 -189.05865 
L 677.904565 -189.063775 
L 681.323295 -191.934013 
L 684.668499 -191.934013 
L 687.943272 -191.934013 
L 691.150519 -191.934013 
L 694.292968 -191.318962 
L 697.373187 -191.934013 
L 700.393592 -191.728996 
L 703.356462 -191.934013 
L 706.263947 -192.754081 
L 709.118082 -193.164114 
L 711.920788 -193.574148 
L 714.673885 -193.574148 
L 717.379101 -193.574148 
L 720.038071 -193.574148 
L 722.65235 -195.829335 
L 725.223417 -196.034352 
L 727.752675 -196.034352 
L 730.241463 -196.649403 
L 732.691057 -196.649403 
L 735.10267 -197.264453 
L 735.10267 -236.627708 
L 735.10267 -236.627708 
L 732.691057 -236.627708 
L 730.241463 -236.217674 
L 727.752675 -235.397606 
L 725.223417 -234.987572 
L 722.65235 -234.987572 
L 720.038071 -233.347436 
L 717.379101 -233.352562 
L 714.673885 -233.347436 
L 711.920788 -233.347436 
L 709.118082 -232.937403 
L 706.263947 -232.117335 
L 703.356462 -231.707301 
L 700.393592 -231.707301 
L 697.373187 -231.707301 
L 694.292968 -231.707301 
L 691.150519 -230.477199 
L 687.943272 -230.482325 
L 684.668499 -228.837064 
L 681.323295 -228.837064 
L 677.904565 -227.842731 
L 674.409003 -227.606962 
L 670.833076 -223.096589 
L 667.173002 -223.096589 
L 663.424726 -222.276521 
L 659.583889 -221.046419 
L 655.645807 -220.636386 
L 651.605424 -210.795572 
L 647.457286 -210.385538 
L 643.195486 -208.540386 
L 638.81362 -205.875165 
L 634.304726 -204.850081 
L 629.661218 -193.676657 
L 624.874811 -193.574148 
L 619.936429 -202.389877 
L 614.836104 -200.749742 
L 609.562855 -196.100982 
L 604.104541 -197.879504 
L 598.447701 -191.611111 
L 592.577346 -194.599233 
L 586.476722 -192.13903 
L 580.127025 -191.318962 
L 573.507049 -190.703911 
L 566.592757 -189.678826 
L 559.356756 -187.628657 
L 551.767643 -185.37347 
L 543.789178 -183.118284 
L 535.37924 -181.478148 
L 526.48848 -169.792182 
L 517.058564 -166.101877 
L 507.019858 -175.532657 
L 496.288295 -174.507572 
L 484.761099 -169.802433 
L 472.310779 -159.541335 
L 458.776511 -156.261064 
L 443.951397 -153.80086 
L 427.562994 -153.80086 
L 409.242318 -148.060386 
L 388.472049 -144.370081 
L 364.494533 -140.679775 
L 336.135151 -132.069064 
L 301.426072 -124.688453 
L 256.678287 -121.408182 
L 193.609826 -103.981742 
L 85.79358 -76.714487 
z
" id="m399b83f6d4" style="stroke:#98df8a;stroke-opacity:0.2;"/>
    </defs>
    <g clip-path="url(#pf33fed2e2e)">
     <use style="fill:#98df8a;fill-opacity:0.2;stroke:#98df8a;stroke-opacity:0.2;" x="0" xlink:href="#m399b83f6d4" y="325.986375"/>
    </g>
   </g>
   <g id="matplotlib.axis_1">
    <g id="xtick_1">
     <g id="line2d_1">
      <defs>
       <path d="M 0 0 
L 0 3.5 
" id="m74e25675c8" style="stroke:#000000;stroke-width:0.8;"/>
      </defs>
      <g>
       <use style="stroke:#000000;stroke-width:0.8;" x="85.79358" xlink:href="#m74e25675c8" y="288.430125"/>
      </g>
     </g>
     <g id="text_1">
      <!-- 14m -->
      <g transform="translate(74.560767 303.028562)scale(0.1 -0.1)">
       <defs>
        <path d="M 794 531 
L 1825 531 
L 1825 4091 
L 703 3866 
L 703 4441 
L 1819 4666 
L 2450 4666 
L 2450 531 
L 3481 531 
L 3481 0 
L 794 0 
L 794 531 
z
" id="DejaVuSans-31" transform="scale(0.015625)"/>
        <path d="M 2419 4116 
L 825 1625 
L 2419 1625 
L 2419 4116 
z
M 2253 4666 
L 3047 4666 
L 3047 1625 
L 3713 1625 
L 3713 1100 
L 3047 1100 
L 3047 0 
L 2419 0 
L 2419 1100 
L 313 1100 
L 313 1709 
L 2253 4666 
z
" id="DejaVuSans-34" transform="scale(0.015625)"/>
        <path d="M 3328 2828 
Q 3544 3216 3844 3400 
Q 4144 3584 4550 3584 
Q 5097 3584 5394 3201 
Q 5691 2819 5691 2113 
L 5691 0 
L 5113 0 
L 5113 2094 
Q 5113 2597 4934 2840 
Q 4756 3084 4391 3084 
Q 3944 3084 3684 2787 
Q 3425 2491 3425 1978 
L 3425 0 
L 2847 0 
L 2847 2094 
Q 2847 2600 2669 2842 
Q 2491 3084 2119 3084 
Q 1678 3084 1418 2786 
Q 1159 2488 1159 1978 
L 1159 0 
L 581 0 
L 581 3500 
L 1159 3500 
L 1159 2956 
Q 1356 3278 1631 3431 
Q 1906 3584 2284 3584 
Q 2666 3584 2933 3390 
Q 3200 3197 3328 2828 
z
" id="DejaVuSans-6d" transform="scale(0.015625)"/>
       </defs>
       <use xlink:href="#DejaVuSans-31"/>
       <use x="63.623047" xlink:href="#DejaVuSans-34"/>
       <use x="127.246094" xlink:href="#DejaVuSans-6d"/>
      </g>
     </g>
    </g>
    <g id="xtick_2">
     <g id="line2d_2">
      <g>
       <use style="stroke:#000000;stroke-width:0.8;" x="144.82192" xlink:href="#m74e25675c8" y="288.430125"/>
      </g>
     </g>
     <g id="text_2">
      <!-- 21m -->
      <g transform="translate(133.589108 303.028562)scale(0.1 -0.1)">
       <defs>
        <path d="M 1228 531 
L 3431 531 
L 3431 0 
L 469 0 
L 469 531 
Q 828 903 1448 1529 
Q 2069 2156 2228 2338 
Q 2531 2678 2651 2914 
Q 2772 3150 2772 3378 
Q 2772 3750 2511 3984 
Q 2250 4219 1831 4219 
Q 1534 4219 1204 4116 
Q 875 4013 500 3803 
L 500 4441 
Q 881 4594 1212 4672 
Q 1544 4750 1819 4750 
Q 2544 4750 2975 4387 
Q 3406 4025 3406 3419 
Q 3406 3131 3298 2873 
Q 3191 2616 2906 2266 
Q 2828 2175 2409 1742 
Q 1991 1309 1228 531 
z
" id="DejaVuSans-32" transform="scale(0.015625)"/>
       </defs>
       <use xlink:href="#DejaVuSans-32"/>
       <use x="63.623047" xlink:href="#DejaVuSans-31"/>
       <use x="127.246094" xlink:href="#DejaVuSans-6d"/>
      </g>
     </g>
    </g>
    <g id="xtick_3">
     <g id="line2d_3">
      <g>
       <use style="stroke:#000000;stroke-width:0.8;" x="203.850261" xlink:href="#m74e25675c8" y="288.430125"/>
      </g>
     </g>
     <g id="text_3">
      <!-- 32m -->
      <g transform="translate(192.617449 303.028562)scale(0.1 -0.1)">
       <defs>
        <path d="M 2597 2516 
Q 3050 2419 3304 2112 
Q 3559 1806 3559 1356 
Q 3559 666 3084 287 
Q 2609 -91 1734 -91 
Q 1441 -91 1130 -33 
Q 819 25 488 141 
L 488 750 
Q 750 597 1062 519 
Q 1375 441 1716 441 
Q 2309 441 2620 675 
Q 2931 909 2931 1356 
Q 2931 1769 2642 2001 
Q 2353 2234 1838 2234 
L 1294 2234 
L 1294 2753 
L 1863 2753 
Q 2328 2753 2575 2939 
Q 2822 3125 2822 3475 
Q 2822 3834 2567 4026 
Q 2313 4219 1838 4219 
Q 1578 4219 1281 4162 
Q 984 4106 628 3988 
L 628 4550 
Q 988 4650 1302 4700 
Q 1616 4750 1894 4750 
Q 2613 4750 3031 4423 
Q 3450 4097 3450 3541 
Q 3450 3153 3228 2886 
Q 3006 2619 2597 2516 
z
" id="DejaVuSans-33" transform="scale(0.015625)"/>
       </defs>
       <use xlink:href="#DejaVuSans-33"/>
       <use x="63.623047" xlink:href="#DejaVuSans-32"/>
       <use x="127.246094" xlink:href="#DejaVuSans-6d"/>
      </g>
     </g>
    </g>
    <g id="xtick_4">
     <g id="line2d_4">
      <g>
       <use style="stroke:#000000;stroke-width:0.8;" x="262.878602" xlink:href="#m74e25675c8" y="288.430125"/>
      </g>
     </g>
     <g id="text_4">
      <!-- 46m -->
      <g transform="translate(251.64579 303.028562)scale(0.1 -0.1)">
       <defs>
        <path d="M 2113 2584 
Q 1688 2584 1439 2293 
Q 1191 2003 1191 1497 
Q 1191 994 1439 701 
Q 1688 409 2113 409 
Q 2538 409 2786 701 
Q 3034 994 3034 1497 
Q 3034 2003 2786 2293 
Q 2538 2584 2113 2584 
z
M 3366 4563 
L 3366 3988 
Q 3128 4100 2886 4159 
Q 2644 4219 2406 4219 
Q 1781 4219 1451 3797 
Q 1122 3375 1075 2522 
Q 1259 2794 1537 2939 
Q 1816 3084 2150 3084 
Q 2853 3084 3261 2657 
Q 3669 2231 3669 1497 
Q 3669 778 3244 343 
Q 2819 -91 2113 -91 
Q 1303 -91 875 529 
Q 447 1150 447 2328 
Q 447 3434 972 4092 
Q 1497 4750 2381 4750 
Q 2619 4750 2861 4703 
Q 3103 4656 3366 4563 
z
" id="DejaVuSans-36" transform="scale(0.015625)"/>
       </defs>
       <use xlink:href="#DejaVuSans-34"/>
       <use x="63.623047" xlink:href="#DejaVuSans-36"/>
       <use x="127.246094" xlink:href="#DejaVuSans-6d"/>
      </g>
     </g>
    </g>
    <g id="xtick_5">
     <g id="line2d_5">
      <g>
       <use style="stroke:#000000;stroke-width:0.8;" x="321.906943" xlink:href="#m74e25675c8" y="288.430125"/>
      </g>
     </g>
     <g id="text_5">
      <!-- 1h:8m -->
      <g transform="translate(305.821006 303.028562)scale(0.1 -0.1)">
       <defs>
        <path d="M 3513 2113 
L 3513 0 
L 2938 0 
L 2938 2094 
Q 2938 2591 2744 2837 
Q 2550 3084 2163 3084 
Q 1697 3084 1428 2787 
Q 1159 2491 1159 1978 
L 1159 0 
L 581 0 
L 581 4863 
L 1159 4863 
L 1159 2956 
Q 1366 3272 1645 3428 
Q 1925 3584 2291 3584 
Q 2894 3584 3203 3211 
Q 3513 2838 3513 2113 
z
" id="DejaVuSans-68" transform="scale(0.015625)"/>
        <path d="M 750 794 
L 1409 794 
L 1409 0 
L 750 0 
L 750 794 
z
M 750 3309 
L 1409 3309 
L 1409 2516 
L 750 2516 
L 750 3309 
z
" id="DejaVuSans-3a" transform="scale(0.015625)"/>
        <path d="M 2034 2216 
Q 1584 2216 1326 1975 
Q 1069 1734 1069 1313 
Q 1069 891 1326 650 
Q 1584 409 2034 409 
Q 2484 409 2743 651 
Q 3003 894 3003 1313 
Q 3003 1734 2745 1975 
Q 2488 2216 2034 2216 
z
M 1403 2484 
Q 997 2584 770 2862 
Q 544 3141 544 3541 
Q 544 4100 942 4425 
Q 1341 4750 2034 4750 
Q 2731 4750 3128 4425 
Q 3525 4100 3525 3541 
Q 3525 3141 3298 2862 
Q 3072 2584 2669 2484 
Q 3125 2378 3379 2068 
Q 3634 1759 3634 1313 
Q 3634 634 3220 271 
Q 2806 -91 2034 -91 
Q 1263 -91 848 271 
Q 434 634 434 1313 
Q 434 1759 690 2068 
Q 947 2378 1403 2484 
z
M 1172 3481 
Q 1172 3119 1398 2916 
Q 1625 2713 2034 2713 
Q 2441 2713 2670 2916 
Q 2900 3119 2900 3481 
Q 2900 3844 2670 4047 
Q 2441 4250 2034 4250 
Q 1625 4250 1398 4047 
Q 1172 3844 1172 3481 
z
" id="DejaVuSans-38" transform="scale(0.015625)"/>
       </defs>
       <use xlink:href="#DejaVuSans-31"/>
       <use x="63.623047" xlink:href="#DejaVuSans-68"/>
       <use x="127.001953" xlink:href="#DejaVuSans-3a"/>
       <use x="160.693359" xlink:href="#DejaVuSans-38"/>
       <use x="224.316406" xlink:href="#DejaVuSans-6d"/>
      </g>
     </g>
    </g>
    <g id="xtick_6">
     <g id="line2d_6">
      <g>
       <use style="stroke:#000000;stroke-width:0.8;" x="380.935284" xlink:href="#m74e25675c8" y="288.430125"/>
      </g>
     </g>
     <g id="text_6">
      <!-- 1h:40m -->
      <g transform="translate(361.668096 303.028562)scale(0.1 -0.1)">
       <defs>
        <path d="M 2034 4250 
Q 1547 4250 1301 3770 
Q 1056 3291 1056 2328 
Q 1056 1369 1301 889 
Q 1547 409 2034 409 
Q 2525 409 2770 889 
Q 3016 1369 3016 2328 
Q 3016 3291 2770 3770 
Q 2525 4250 2034 4250 
z
M 2034 4750 
Q 2819 4750 3233 4129 
Q 3647 3509 3647 2328 
Q 3647 1150 3233 529 
Q 2819 -91 2034 -91 
Q 1250 -91 836 529 
Q 422 1150 422 2328 
Q 422 3509 836 4129 
Q 1250 4750 2034 4750 
z
" id="DejaVuSans-30" transform="scale(0.015625)"/>
       </defs>
       <use xlink:href="#DejaVuSans-31"/>
       <use x="63.623047" xlink:href="#DejaVuSans-68"/>
       <use x="127.001953" xlink:href="#DejaVuSans-3a"/>
       <use x="160.693359" xlink:href="#DejaVuSans-34"/>
       <use x="224.316406" xlink:href="#DejaVuSans-30"/>
       <use x="287.939453" xlink:href="#DejaVuSans-6d"/>
      </g>
     </g>
    </g>
    <g id="xtick_7">
     <g id="line2d_7">
      <g>
       <use style="stroke:#000000;stroke-width:0.8;" x="439.963625" xlink:href="#m74e25675c8" y="288.430125"/>
      </g>
     </g>
     <g id="text_7">
      <!-- 2h:26m -->
      <g transform="translate(420.696437 303.028562)scale(0.1 -0.1)">
       <use xlink:href="#DejaVuSans-32"/>
       <use x="63.623047" xlink:href="#DejaVuSans-68"/>
       <use x="127.001953" xlink:href="#DejaVuSans-3a"/>
       <use x="160.693359" xlink:href="#DejaVuSans-32"/>
       <use x="224.316406" xlink:href="#DejaVuSans-36"/>
       <use x="287.939453" xlink:href="#DejaVuSans-6d"/>
      </g>
     </g>
    </g>
    <g id="xtick_8">
     <g id="line2d_8">
      <g>
       <use style="stroke:#000000;stroke-width:0.8;" x="498.991966" xlink:href="#m74e25675c8" y="288.430125"/>
      </g>
     </g>
     <g id="text_8">
      <!-- 3h:33m -->
      <g transform="translate(479.724778 303.028562)scale(0.1 -0.1)">
       <use xlink:href="#DejaVuSans-33"/>
       <use x="63.623047" xlink:href="#DejaVuSans-68"/>
       <use x="127.001953" xlink:href="#DejaVuSans-3a"/>
       <use x="160.693359" xlink:href="#DejaVuSans-33"/>
       <use x="224.316406" xlink:href="#DejaVuSans-33"/>
       <use x="287.939453" xlink:href="#DejaVuSans-6d"/>
      </g>
     </g>
    </g>
    <g id="xtick_9">
     <g id="line2d_9">
      <g>
       <use style="stroke:#000000;stroke-width:0.8;" x="558.020307" xlink:href="#m74e25675c8" y="288.430125"/>
      </g>
     </g>
     <g id="text_9">
      <!-- 5h:12m -->
      <g transform="translate(538.753119 303.028562)scale(0.1 -0.1)">
       <defs>
        <path d="M 691 4666 
L 3169 4666 
L 3169 4134 
L 1269 4134 
L 1269 2991 
Q 1406 3038 1543 3061 
Q 1681 3084 1819 3084 
Q 2600 3084 3056 2656 
Q 3513 2228 3513 1497 
Q 3513 744 3044 326 
Q 2575 -91 1722 -91 
Q 1428 -91 1123 -41 
Q 819 9 494 109 
L 494 744 
Q 775 591 1075 516 
Q 1375 441 1709 441 
Q 2250 441 2565 725 
Q 2881 1009 2881 1497 
Q 2881 1984 2565 2268 
Q 2250 2553 1709 2553 
Q 1456 2553 1204 2497 
Q 953 2441 691 2322 
L 691 4666 
z
" id="DejaVuSans-35" transform="scale(0.015625)"/>
       </defs>
       <use xlink:href="#DejaVuSans-35"/>
       <use x="63.623047" xlink:href="#DejaVuSans-68"/>
       <use x="127.001953" xlink:href="#DejaVuSans-3a"/>
       <use x="160.693359" xlink:href="#DejaVuSans-31"/>
       <use x="224.316406" xlink:href="#DejaVuSans-32"/>
       <use x="287.939453" xlink:href="#DejaVuSans-6d"/>
      </g>
     </g>
    </g>
    <g id="xtick_10">
     <g id="line2d_10">
      <g>
       <use style="stroke:#000000;stroke-width:0.8;" x="617.048648" xlink:href="#m74e25675c8" y="288.430125"/>
      </g>
     </g>
     <g id="text_10">
      <!-- 7h:36m -->
      <g transform="translate(597.78146 303.028562)scale(0.1 -0.1)">
       <defs>
        <path d="M 525 4666 
L 3525 4666 
L 3525 4397 
L 1831 0 
L 1172 0 
L 2766 4134 
L 525 4134 
L 525 4666 
z
" id="DejaVuSans-37" transform="scale(0.015625)"/>
       </defs>
       <use xlink:href="#DejaVuSans-37"/>
       <use x="63.623047" xlink:href="#DejaVuSans-68"/>
       <use x="127.001953" xlink:href="#DejaVuSans-3a"/>
       <use x="160.693359" xlink:href="#DejaVuSans-33"/>
       <use x="224.316406" xlink:href="#DejaVuSans-36"/>
       <use x="287.939453" xlink:href="#DejaVuSans-6d"/>
      </g>
     </g>
    </g>
    <g id="xtick_11">
     <g id="line2d_11">
      <g>
       <use style="stroke:#000000;stroke-width:0.8;" x="676.076988" xlink:href="#m74e25675c8" y="288.430125"/>
      </g>
     </g>
     <g id="text_11">
      <!-- 11h:7m -->
      <g transform="translate(656.809801 303.028562)scale(0.1 -0.1)">
       <use xlink:href="#DejaVuSans-31"/>
       <use x="63.623047" xlink:href="#DejaVuSans-31"/>
       <use x="127.246094" xlink:href="#DejaVuSans-68"/>
       <use x="190.625" xlink:href="#DejaVuSans-3a"/>
       <use x="224.316406" xlink:href="#DejaVuSans-37"/>
       <use x="287.939453" xlink:href="#DejaVuSans-6d"/>
      </g>
     </g>
    </g>
    <g id="xtick_12">
     <g id="line2d_12">
      <g>
       <use style="stroke:#000000;stroke-width:0.8;" x="735.105329" xlink:href="#m74e25675c8" y="288.430125"/>
      </g>
     </g>
     <g id="text_12">
      <!-- 16h:15m -->
      <g transform="translate(712.656892 303.028562)scale(0.1 -0.1)">
       <use xlink:href="#DejaVuSans-31"/>
       <use x="63.623047" xlink:href="#DejaVuSans-36"/>
       <use x="127.246094" xlink:href="#DejaVuSans-68"/>
       <use x="190.625" xlink:href="#DejaVuSans-3a"/>
       <use x="224.316406" xlink:href="#DejaVuSans-31"/>
       <use x="287.939453" xlink:href="#DejaVuSans-35"/>
       <use x="351.5625" xlink:href="#DejaVuSans-6d"/>
      </g>
     </g>
    </g>
    <g id="xtick_13">
     <g id="line2d_13">
      <defs>
       <path d="M 0 0 
L 0 2 
" id="mbcf7f62d41" style="stroke:#000000;stroke-width:0.6;"/>
      </defs>
      <g>
       <use style="stroke:#000000;stroke-width:0.6;" x="67.472904" xlink:href="#mbcf7f62d41" y="288.430125"/>
      </g>
     </g>
    </g>
    <g id="xtick_14">
     <g id="line2d_14">
      <g>
       <use style="stroke:#000000;stroke-width:0.6;" x="209.998229" xlink:href="#mbcf7f62d41" y="288.430125"/>
      </g>
     </g>
    </g>
    <g id="xtick_15">
     <g id="line2d_15">
      <g>
       <use style="stroke:#000000;stroke-width:0.6;" x="273.06669" xlink:href="#mbcf7f62d41" y="288.430125"/>
      </g>
     </g>
    </g>
    <g id="xtick_16">
     <g id="line2d_16">
      <g>
       <use style="stroke:#000000;stroke-width:0.6;" x="317.814475" xlink:href="#mbcf7f62d41" y="288.430125"/>
      </g>
     </g>
    </g>
    <g id="xtick_17">
     <g id="line2d_17">
      <g>
       <use style="stroke:#000000;stroke-width:0.6;" x="352.523554" xlink:href="#mbcf7f62d41" y="288.430125"/>
      </g>
     </g>
    </g>
    <g id="xtick_18">
     <g id="line2d_18">
      <g>
       <use style="stroke:#000000;stroke-width:0.6;" x="380.882936" xlink:href="#mbcf7f62d41" y="288.430125"/>
      </g>
     </g>
    </g>
    <g id="xtick_19">
     <g id="line2d_19">
      <g>
       <use style="stroke:#000000;stroke-width:0.6;" x="404.860452" xlink:href="#mbcf7f62d41" y="288.430125"/>
      </g>
     </g>
    </g>
    <g id="xtick_20">
     <g id="line2d_20">
      <g>
       <use style="stroke:#000000;stroke-width:0.6;" x="425.630721" xlink:href="#mbcf7f62d41" y="288.430125"/>
      </g>
     </g>
    </g>
    <g id="xtick_21">
     <g id="line2d_21">
      <g>
       <use style="stroke:#000000;stroke-width:0.6;" x="443.951397" xlink:href="#mbcf7f62d41" y="288.430125"/>
      </g>
     </g>
    </g>
    <g id="xtick_22">
     <g id="line2d_22">
      <g>
       <use style="stroke:#000000;stroke-width:0.6;" x="568.156046" xlink:href="#mbcf7f62d41" y="288.430125"/>
      </g>
     </g>
    </g>
    <g id="xtick_23">
     <g id="line2d_23">
      <g>
       <use style="stroke:#000000;stroke-width:0.6;" x="631.224507" xlink:href="#mbcf7f62d41" y="288.430125"/>
      </g>
     </g>
    </g>
    <g id="xtick_24">
     <g id="line2d_24">
      <g>
       <use style="stroke:#000000;stroke-width:0.6;" x="675.972292" xlink:href="#mbcf7f62d41" y="288.430125"/>
      </g>
     </g>
    </g>
    <g id="xtick_25">
     <g id="line2d_25">
      <g>
       <use style="stroke:#000000;stroke-width:0.6;" x="710.681371" xlink:href="#mbcf7f62d41" y="288.430125"/>
      </g>
     </g>
    </g>
    <g id="xtick_26">
     <g id="line2d_26">
      <g>
       <use style="stroke:#000000;stroke-width:0.6;" x="739.040753" xlink:href="#mbcf7f62d41" y="288.430125"/>
      </g>
     </g>
    </g>
    <g id="xtick_27">
     <g id="line2d_27">
      <g>
       <use style="stroke:#000000;stroke-width:0.6;" x="763.018269" xlink:href="#mbcf7f62d41" y="288.430125"/>
      </g>
     </g>
    </g>
    <g id="text_13">
     <!-- Time (hour:minute) -->
     <g transform="translate(362.041094 316.706687)scale(0.1 -0.1)">
      <defs>
       <path d="M -19 4666 
L 3928 4666 
L 3928 4134 
L 2272 4134 
L 2272 0 
L 1638 0 
L 1638 4134 
L -19 4134 
L -19 4666 
z
" id="DejaVuSans-54" transform="scale(0.015625)"/>
       <path d="M 603 3500 
L 1178 3500 
L 1178 0 
L 603 0 
L 603 3500 
z
M 603 4863 
L 1178 4863 
L 1178 4134 
L 603 4134 
L 603 4863 
z
" id="DejaVuSans-69" transform="scale(0.015625)"/>
       <path d="M 3597 1894 
L 3597 1613 
L 953 1613 
Q 991 1019 1311 708 
Q 1631 397 2203 397 
Q 2534 397 2845 478 
Q 3156 559 3463 722 
L 3463 178 
Q 3153 47 2828 -22 
Q 2503 -91 2169 -91 
Q 1331 -91 842 396 
Q 353 884 353 1716 
Q 353 2575 817 3079 
Q 1281 3584 2069 3584 
Q 2775 3584 3186 3129 
Q 3597 2675 3597 1894 
z
M 3022 2063 
Q 3016 2534 2758 2815 
Q 2500 3097 2075 3097 
Q 1594 3097 1305 2825 
Q 1016 2553 972 2059 
L 3022 2063 
z
" id="DejaVuSans-65" transform="scale(0.015625)"/>
       <path id="DejaVuSans-20" transform="scale(0.015625)"/>
       <path d="M 1984 4856 
Q 1566 4138 1362 3434 
Q 1159 2731 1159 2009 
Q 1159 1288 1364 580 
Q 1569 -128 1984 -844 
L 1484 -844 
Q 1016 -109 783 600 
Q 550 1309 550 2009 
Q 550 2706 781 3412 
Q 1013 4119 1484 4856 
L 1984 4856 
z
" id="DejaVuSans-28" transform="scale(0.015625)"/>
       <path d="M 1959 3097 
Q 1497 3097 1228 2736 
Q 959 2375 959 1747 
Q 959 1119 1226 758 
Q 1494 397 1959 397 
Q 2419 397 2687 759 
Q 2956 1122 2956 1747 
Q 2956 2369 2687 2733 
Q 2419 3097 1959 3097 
z
M 1959 3584 
Q 2709 3584 3137 3096 
Q 3566 2609 3566 1747 
Q 3566 888 3137 398 
Q 2709 -91 1959 -91 
Q 1206 -91 779 398 
Q 353 888 353 1747 
Q 353 2609 779 3096 
Q 1206 3584 1959 3584 
z
" id="DejaVuSans-6f" transform="scale(0.015625)"/>
       <path d="M 544 1381 
L 544 3500 
L 1119 3500 
L 1119 1403 
Q 1119 906 1312 657 
Q 1506 409 1894 409 
Q 2359 409 2629 706 
Q 2900 1003 2900 1516 
L 2900 3500 
L 3475 3500 
L 3475 0 
L 2900 0 
L 2900 538 
Q 2691 219 2414 64 
Q 2138 -91 1772 -91 
Q 1169 -91 856 284 
Q 544 659 544 1381 
z
M 1991 3584 
L 1991 3584 
z
" id="DejaVuSans-75" transform="scale(0.015625)"/>
       <path d="M 2631 2963 
Q 2534 3019 2420 3045 
Q 2306 3072 2169 3072 
Q 1681 3072 1420 2755 
Q 1159 2438 1159 1844 
L 1159 0 
L 581 0 
L 581 3500 
L 1159 3500 
L 1159 2956 
Q 1341 3275 1631 3429 
Q 1922 3584 2338 3584 
Q 2397 3584 2469 3576 
Q 2541 3569 2628 3553 
L 2631 2963 
z
" id="DejaVuSans-72" transform="scale(0.015625)"/>
       <path d="M 3513 2113 
L 3513 0 
L 2938 0 
L 2938 2094 
Q 2938 2591 2744 2837 
Q 2550 3084 2163 3084 
Q 1697 3084 1428 2787 
Q 1159 2491 1159 1978 
L 1159 0 
L 581 0 
L 581 3500 
L 1159 3500 
L 1159 2956 
Q 1366 3272 1645 3428 
Q 1925 3584 2291 3584 
Q 2894 3584 3203 3211 
Q 3513 2838 3513 2113 
z
" id="DejaVuSans-6e" transform="scale(0.015625)"/>
       <path d="M 1172 4494 
L 1172 3500 
L 2356 3500 
L 2356 3053 
L 1172 3053 
L 1172 1153 
Q 1172 725 1289 603 
Q 1406 481 1766 481 
L 2356 481 
L 2356 0 
L 1766 0 
Q 1100 0 847 248 
Q 594 497 594 1153 
L 594 3053 
L 172 3053 
L 172 3500 
L 594 3500 
L 594 4494 
L 1172 4494 
z
" id="DejaVuSans-74" transform="scale(0.015625)"/>
       <path d="M 513 4856 
L 1013 4856 
Q 1481 4119 1714 3412 
Q 1947 2706 1947 2009 
Q 1947 1309 1714 600 
Q 1481 -109 1013 -844 
L 513 -844 
Q 928 -128 1133 580 
Q 1338 1288 1338 2009 
Q 1338 2731 1133 3434 
Q 928 4138 513 4856 
z
" id="DejaVuSans-29" transform="scale(0.015625)"/>
      </defs>
      <use xlink:href="#DejaVuSans-54"/>
      <use x="57.958984" xlink:href="#DejaVuSans-69"/>
      <use x="85.742188" xlink:href="#DejaVuSans-6d"/>
      <use x="183.154297" xlink:href="#DejaVuSans-65"/>
      <use x="244.677734" xlink:href="#DejaVuSans-20"/>
      <use x="276.464844" xlink:href="#DejaVuSans-28"/>
      <use x="315.478516" xlink:href="#DejaVuSans-68"/>
      <use x="378.857422" xlink:href="#DejaVuSans-6f"/>
      <use x="440.039062" xlink:href="#DejaVuSans-75"/>
      <use x="503.417969" xlink:href="#DejaVuSans-72"/>
      <use x="542.78125" xlink:href="#DejaVuSans-3a"/>
      <use x="576.472656" xlink:href="#DejaVuSans-6d"/>
      <use x="673.884766" xlink:href="#DejaVuSans-69"/>
      <use x="701.667969" xlink:href="#DejaVuSans-6e"/>
      <use x="765.046875" xlink:href="#DejaVuSans-75"/>
      <use x="828.425781" xlink:href="#DejaVuSans-74"/>
      <use x="867.634766" xlink:href="#DejaVuSans-65"/>
      <use x="929.158203" xlink:href="#DejaVuSans-29"/>
     </g>
    </g>
   </g>
   <g id="matplotlib.axis_2">
    <g id="ytick_1">
     <g id="line2d_28">
      <defs>
       <path d="M 0 0 
L -3.5 0 
" id="mfac06eeabb" style="stroke:#000000;stroke-width:0.8;"/>
      </defs>
      <g>
       <use style="stroke:#000000;stroke-width:0.8;" x="53.328125" xlink:href="#mfac06eeabb" y="261.572905"/>
      </g>
     </g>
     <g id="text_14">
      <!-- 5300 -->
      <g transform="translate(20.878125 265.372123)scale(0.1 -0.1)">
       <use xlink:href="#DejaVuSans-35"/>
       <use x="63.623047" xlink:href="#DejaVuSans-33"/>
       <use x="127.246094" xlink:href="#DejaVuSans-30"/>
       <use x="190.869141" xlink:href="#DejaVuSans-30"/>
      </g>
     </g>
    </g>
    <g id="ytick_2">
     <g id="line2d_29">
      <g>
       <use style="stroke:#000000;stroke-width:0.8;" x="53.328125" xlink:href="#mfac06eeabb" y="220.569515"/>
      </g>
     </g>
     <g id="text_15">
      <!-- 5400 -->
      <g transform="translate(20.878125 224.368734)scale(0.1 -0.1)">
       <use xlink:href="#DejaVuSans-35"/>
       <use x="63.623047" xlink:href="#DejaVuSans-34"/>
       <use x="127.246094" xlink:href="#DejaVuSans-30"/>
       <use x="190.869141" xlink:href="#DejaVuSans-30"/>
      </g>
     </g>
    </g>
    <g id="ytick_3">
     <g id="line2d_30">
      <g>
       <use style="stroke:#000000;stroke-width:0.8;" x="53.328125" xlink:href="#mfac06eeabb" y="179.566125"/>
      </g>
     </g>
     <g id="text_16">
      <!-- 5500 -->
      <g transform="translate(20.878125 183.365344)scale(0.1 -0.1)">
       <use xlink:href="#DejaVuSans-35"/>
       <use x="63.623047" xlink:href="#DejaVuSans-35"/>
       <use x="127.246094" xlink:href="#DejaVuSans-30"/>
       <use x="190.869141" xlink:href="#DejaVuSans-30"/>
      </g>
     </g>
    </g>
    <g id="ytick_4">
     <g id="line2d_31">
      <g>
       <use style="stroke:#000000;stroke-width:0.8;" x="53.328125" xlink:href="#mfac06eeabb" y="138.562735"/>
      </g>
     </g>
     <g id="text_17">
      <!-- 5600 -->
      <g transform="translate(20.878125 142.361954)scale(0.1 -0.1)">
       <use xlink:href="#DejaVuSans-35"/>
       <use x="63.623047" xlink:href="#DejaVuSans-36"/>
       <use x="127.246094" xlink:href="#DejaVuSans-30"/>
       <use x="190.869141" xlink:href="#DejaVuSans-30"/>
      </g>
     </g>
    </g>
    <g id="ytick_5">
     <g id="line2d_32">
      <g>
       <use style="stroke:#000000;stroke-width:0.8;" x="53.328125" xlink:href="#mfac06eeabb" y="97.559345"/>
      </g>
     </g>
     <g id="text_18">
      <!-- 5700 -->
      <g transform="translate(20.878125 101.358564)scale(0.1 -0.1)">
       <use xlink:href="#DejaVuSans-35"/>
       <use x="63.623047" xlink:href="#DejaVuSans-37"/>
       <use x="127.246094" xlink:href="#DejaVuSans-30"/>
       <use x="190.869141" xlink:href="#DejaVuSans-30"/>
      </g>
     </g>
    </g>
    <g id="ytick_6">
     <g id="line2d_33">
      <g>
       <use style="stroke:#000000;stroke-width:0.8;" x="53.328125" xlink:href="#mfac06eeabb" y="56.555956"/>
      </g>
     </g>
     <g id="text_19">
      <!-- 5800 -->
      <g transform="translate(20.878125 60.355174)scale(0.1 -0.1)">
       <use xlink:href="#DejaVuSans-35"/>
       <use x="63.623047" xlink:href="#DejaVuSans-38"/>
       <use x="127.246094" xlink:href="#DejaVuSans-30"/>
       <use x="190.869141" xlink:href="#DejaVuSans-30"/>
      </g>
     </g>
    </g>
    <g id="text_20">
     <!-- Code branch coverage -->
     <g transform="translate(14.798438 211.949125)rotate(-90)scale(0.1 -0.1)">
      <defs>
       <path d="M 4122 4306 
L 4122 3641 
Q 3803 3938 3442 4084 
Q 3081 4231 2675 4231 
Q 1875 4231 1450 3742 
Q 1025 3253 1025 2328 
Q 1025 1406 1450 917 
Q 1875 428 2675 428 
Q 3081 428 3442 575 
Q 3803 722 4122 1019 
L 4122 359 
Q 3791 134 3420 21 
Q 3050 -91 2638 -91 
Q 1578 -91 968 557 
Q 359 1206 359 2328 
Q 359 3453 968 4101 
Q 1578 4750 2638 4750 
Q 3056 4750 3426 4639 
Q 3797 4528 4122 4306 
z
" id="DejaVuSans-43" transform="scale(0.015625)"/>
       <path d="M 2906 2969 
L 2906 4863 
L 3481 4863 
L 3481 0 
L 2906 0 
L 2906 525 
Q 2725 213 2448 61 
Q 2172 -91 1784 -91 
Q 1150 -91 751 415 
Q 353 922 353 1747 
Q 353 2572 751 3078 
Q 1150 3584 1784 3584 
Q 2172 3584 2448 3432 
Q 2725 3281 2906 2969 
z
M 947 1747 
Q 947 1113 1208 752 
Q 1469 391 1925 391 
Q 2381 391 2643 752 
Q 2906 1113 2906 1747 
Q 2906 2381 2643 2742 
Q 2381 3103 1925 3103 
Q 1469 3103 1208 2742 
Q 947 2381 947 1747 
z
" id="DejaVuSans-64" transform="scale(0.015625)"/>
       <path d="M 3116 1747 
Q 3116 2381 2855 2742 
Q 2594 3103 2138 3103 
Q 1681 3103 1420 2742 
Q 1159 2381 1159 1747 
Q 1159 1113 1420 752 
Q 1681 391 2138 391 
Q 2594 391 2855 752 
Q 3116 1113 3116 1747 
z
M 1159 2969 
Q 1341 3281 1617 3432 
Q 1894 3584 2278 3584 
Q 2916 3584 3314 3078 
Q 3713 2572 3713 1747 
Q 3713 922 3314 415 
Q 2916 -91 2278 -91 
Q 1894 -91 1617 61 
Q 1341 213 1159 525 
L 1159 0 
L 581 0 
L 581 4863 
L 1159 4863 
L 1159 2969 
z
" id="DejaVuSans-62" transform="scale(0.015625)"/>
       <path d="M 2194 1759 
Q 1497 1759 1228 1600 
Q 959 1441 959 1056 
Q 959 750 1161 570 
Q 1363 391 1709 391 
Q 2188 391 2477 730 
Q 2766 1069 2766 1631 
L 2766 1759 
L 2194 1759 
z
M 3341 1997 
L 3341 0 
L 2766 0 
L 2766 531 
Q 2569 213 2275 61 
Q 1981 -91 1556 -91 
Q 1019 -91 701 211 
Q 384 513 384 1019 
Q 384 1609 779 1909 
Q 1175 2209 1959 2209 
L 2766 2209 
L 2766 2266 
Q 2766 2663 2505 2880 
Q 2244 3097 1772 3097 
Q 1472 3097 1187 3025 
Q 903 2953 641 2809 
L 641 3341 
Q 956 3463 1253 3523 
Q 1550 3584 1831 3584 
Q 2591 3584 2966 3190 
Q 3341 2797 3341 1997 
z
" id="DejaVuSans-61" transform="scale(0.015625)"/>
       <path d="M 3122 3366 
L 3122 2828 
Q 2878 2963 2633 3030 
Q 2388 3097 2138 3097 
Q 1578 3097 1268 2742 
Q 959 2388 959 1747 
Q 959 1106 1268 751 
Q 1578 397 2138 397 
Q 2388 397 2633 464 
Q 2878 531 3122 666 
L 3122 134 
Q 2881 22 2623 -34 
Q 2366 -91 2075 -91 
Q 1284 -91 818 406 
Q 353 903 353 1747 
Q 353 2603 823 3093 
Q 1294 3584 2113 3584 
Q 2378 3584 2631 3529 
Q 2884 3475 3122 3366 
z
" id="DejaVuSans-63" transform="scale(0.015625)"/>
       <path d="M 191 3500 
L 800 3500 
L 1894 563 
L 2988 3500 
L 3597 3500 
L 2284 0 
L 1503 0 
L 191 3500 
z
" id="DejaVuSans-76" transform="scale(0.015625)"/>
       <path d="M 2906 1791 
Q 2906 2416 2648 2759 
Q 2391 3103 1925 3103 
Q 1463 3103 1205 2759 
Q 947 2416 947 1791 
Q 947 1169 1205 825 
Q 1463 481 1925 481 
Q 2391 481 2648 825 
Q 2906 1169 2906 1791 
z
M 3481 434 
Q 3481 -459 3084 -895 
Q 2688 -1331 1869 -1331 
Q 1566 -1331 1297 -1286 
Q 1028 -1241 775 -1147 
L 775 -588 
Q 1028 -725 1275 -790 
Q 1522 -856 1778 -856 
Q 2344 -856 2625 -561 
Q 2906 -266 2906 331 
L 2906 616 
Q 2728 306 2450 153 
Q 2172 0 1784 0 
Q 1141 0 747 490 
Q 353 981 353 1791 
Q 353 2603 747 3093 
Q 1141 3584 1784 3584 
Q 2172 3584 2450 3431 
Q 2728 3278 2906 2969 
L 2906 3500 
L 3481 3500 
L 3481 434 
z
" id="DejaVuSans-67" transform="scale(0.015625)"/>
      </defs>
      <use xlink:href="#DejaVuSans-43"/>
      <use x="69.824219" xlink:href="#DejaVuSans-6f"/>
      <use x="131.005859" xlink:href="#DejaVuSans-64"/>
      <use x="194.482422" xlink:href="#DejaVuSans-65"/>
      <use x="256.005859" xlink:href="#DejaVuSans-20"/>
      <use x="287.792969" xlink:href="#DejaVuSans-62"/>
      <use x="351.269531" xlink:href="#DejaVuSans-72"/>
      <use x="392.382812" xlink:href="#DejaVuSans-61"/>
      <use x="453.662109" xlink:href="#DejaVuSans-6e"/>
      <use x="517.041016" xlink:href="#DejaVuSans-63"/>
      <use x="572.021484" xlink:href="#DejaVuSans-68"/>
      <use x="635.400391" xlink:href="#DejaVuSans-20"/>
      <use x="667.1875" xlink:href="#DejaVuSans-63"/>
      <use x="722.167969" xlink:href="#DejaVuSans-6f"/>
      <use x="783.349609" xlink:href="#DejaVuSans-76"/>
      <use x="842.529297" xlink:href="#DejaVuSans-65"/>
      <use x="904.052734" xlink:href="#DejaVuSans-72"/>
      <use x="945.166016" xlink:href="#DejaVuSans-61"/>
      <use x="1006.445312" xlink:href="#DejaVuSans-67"/>
      <use x="1069.921875" xlink:href="#DejaVuSans-65"/>
     </g>
    </g>
   </g>
   <g id="line2d_34">
    <path clip-path="url(#pf33fed2e2e)" d="M 85.79358 225.694939 
L 193.609826 216.264159 
L 256.678287 209.088566 
L 301.426072 191.662125 
L 336.135151 159.06443 
L 364.494533 155.989176 
L 388.472049 153.323956 
L 409.242318 143.688159 
L 427.562994 142.458057 
L 443.951397 139.382803 
L 458.776511 138.562735 
L 472.310779 136.512566 
L 484.761099 135.077447 
L 496.288295 134.462396 
L 507.019858 134.257379 
L 517.058564 132.412227 
L 526.48848 130.362057 
L 535.37924 129.541989 
L 543.789178 129.541989 
L 551.767643 129.541989 
L 559.356756 128.516905 
L 566.592757 115.805854 
L 573.507049 115.190803 
L 580.127025 114.370735 
L 586.476722 114.370735 
L 592.577346 114.370735 
L 598.447701 114.370735 
L 604.104541 113.755684 
L 609.562855 110.68043 
L 614.836104 110.270396 
L 619.936429 109.245311 
L 624.874811 108.220227 
L 629.661218 106.990125 
L 634.304726 106.580091 
L 638.81362 103.504837 
L 643.195486 98.994464 
L 647.457286 98.994464 
L 651.605424 98.174396 
L 655.645807 97.149311 
L 659.583889 96.739278 
L 663.424726 96.739278 
L 667.173002 96.124227 
L 670.833076 95.304159 
L 674.409003 95.304159 
L 677.904565 93.048972 
L 681.323295 91.818871 
L 684.668499 91.408837 
L 687.943272 86.283413 
L 691.150519 84.643278 
L 694.292968 80.337922 
L 697.373187 79.722871 
L 700.393592 79.722871 
L 703.356462 78.697786 
L 706.263947 78.082735 
L 709.118082 75.417515 
L 711.920788 73.367345 
L 714.673885 72.752294 
L 717.379101 72.547278 
L 720.038071 71.932227 
L 722.65235 71.522193 
L 725.223417 71.317176 
L 727.752675 70.702125 
L 730.241463 66.601786 
L 732.691057 64.96165 
L 735.10267 64.141583 
" style="fill:none;stroke:#1f77b4;stroke-linecap:square;stroke-width:1.5;"/>
    <defs>
     <path d="M 0 3 
C 0.795609 3 1.55874 2.683901 2.12132 2.12132 
C 2.683901 1.55874 3 0.795609 3 0 
C 3 -0.795609 2.683901 -1.55874 2.12132 -2.12132 
C 1.55874 -2.683901 0.795609 -3 0 -3 
C -0.795609 -3 -1.55874 -2.683901 -2.12132 -2.12132 
C -2.683901 -1.55874 -3 -0.795609 -3 0 
C -3 0.795609 -2.683901 1.55874 -2.12132 2.12132 
C -1.55874 2.683901 -0.795609 3 0 3 
z
" id="mea7b10384d" style="stroke:#ffffff;stroke-width:0.75;"/>
    </defs>
    <g clip-path="url(#pf33fed2e2e)">
     <use style="fill:#1f77b4;stroke:#ffffff;stroke-width:0.75;" x="85.79358" xlink:href="#mea7b10384d" y="225.694939"/>
     <use style="fill:#1f77b4;stroke:#ffffff;stroke-width:0.75;" x="193.609826" xlink:href="#mea7b10384d" y="216.264159"/>
     <use style="fill:#1f77b4;stroke:#ffffff;stroke-width:0.75;" x="256.678287" xlink:href="#mea7b10384d" y="209.088566"/>
     <use style="fill:#1f77b4;stroke:#ffffff;stroke-width:0.75;" x="301.426072" xlink:href="#mea7b10384d" y="191.662125"/>
     <use style="fill:#1f77b4;stroke:#ffffff;stroke-width:0.75;" x="336.135151" xlink:href="#mea7b10384d" y="159.06443"/>
     <use style="fill:#1f77b4;stroke:#ffffff;stroke-width:0.75;" x="364.494533" xlink:href="#mea7b10384d" y="155.989176"/>
     <use style="fill:#1f77b4;stroke:#ffffff;stroke-width:0.75;" x="388.472049" xlink:href="#mea7b10384d" y="153.323956"/>
     <use style="fill:#1f77b4;stroke:#ffffff;stroke-width:0.75;" x="409.242318" xlink:href="#mea7b10384d" y="143.688159"/>
     <use style="fill:#1f77b4;stroke:#ffffff;stroke-width:0.75;" x="427.562994" xlink:href="#mea7b10384d" y="142.458057"/>
     <use style="fill:#1f77b4;stroke:#ffffff;stroke-width:0.75;" x="443.951397" xlink:href="#mea7b10384d" y="139.382803"/>
     <use style="fill:#1f77b4;stroke:#ffffff;stroke-width:0.75;" x="458.776511" xlink:href="#mea7b10384d" y="138.562735"/>
     <use style="fill:#1f77b4;stroke:#ffffff;stroke-width:0.75;" x="472.310779" xlink:href="#mea7b10384d" y="136.512566"/>
     <use style="fill:#1f77b4;stroke:#ffffff;stroke-width:0.75;" x="484.761099" xlink:href="#mea7b10384d" y="135.077447"/>
     <use style="fill:#1f77b4;stroke:#ffffff;stroke-width:0.75;" x="496.288295" xlink:href="#mea7b10384d" y="134.462396"/>
     <use style="fill:#1f77b4;stroke:#ffffff;stroke-width:0.75;" x="507.019858" xlink:href="#mea7b10384d" y="134.257379"/>
     <use style="fill:#1f77b4;stroke:#ffffff;stroke-width:0.75;" x="517.058564" xlink:href="#mea7b10384d" y="132.412227"/>
     <use style="fill:#1f77b4;stroke:#ffffff;stroke-width:0.75;" x="526.48848" xlink:href="#mea7b10384d" y="130.362057"/>
     <use style="fill:#1f77b4;stroke:#ffffff;stroke-width:0.75;" x="535.37924" xlink:href="#mea7b10384d" y="129.541989"/>
     <use style="fill:#1f77b4;stroke:#ffffff;stroke-width:0.75;" x="543.789178" xlink:href="#mea7b10384d" y="129.541989"/>
     <use style="fill:#1f77b4;stroke:#ffffff;stroke-width:0.75;" x="551.767643" xlink:href="#mea7b10384d" y="129.541989"/>
     <use style="fill:#1f77b4;stroke:#ffffff;stroke-width:0.75;" x="559.356756" xlink:href="#mea7b10384d" y="128.516905"/>
     <use style="fill:#1f77b4;stroke:#ffffff;stroke-width:0.75;" x="566.592757" xlink:href="#mea7b10384d" y="115.805854"/>
     <use style="fill:#1f77b4;stroke:#ffffff;stroke-width:0.75;" x="573.507049" xlink:href="#mea7b10384d" y="115.190803"/>
     <use style="fill:#1f77b4;stroke:#ffffff;stroke-width:0.75;" x="580.127025" xlink:href="#mea7b10384d" y="114.370735"/>
     <use style="fill:#1f77b4;stroke:#ffffff;stroke-width:0.75;" x="586.476722" xlink:href="#mea7b10384d" y="114.370735"/>
     <use style="fill:#1f77b4;stroke:#ffffff;stroke-width:0.75;" x="592.577346" xlink:href="#mea7b10384d" y="114.370735"/>
     <use style="fill:#1f77b4;stroke:#ffffff;stroke-width:0.75;" x="598.447701" xlink:href="#mea7b10384d" y="114.370735"/>
     <use style="fill:#1f77b4;stroke:#ffffff;stroke-width:0.75;" x="604.104541" xlink:href="#mea7b10384d" y="113.755684"/>
     <use style="fill:#1f77b4;stroke:#ffffff;stroke-width:0.75;" x="609.562855" xlink:href="#mea7b10384d" y="110.68043"/>
     <use style="fill:#1f77b4;stroke:#ffffff;stroke-width:0.75;" x="614.836104" xlink:href="#mea7b10384d" y="110.270396"/>
     <use style="fill:#1f77b4;stroke:#ffffff;stroke-width:0.75;" x="619.936429" xlink:href="#mea7b10384d" y="109.245311"/>
     <use style="fill:#1f77b4;stroke:#ffffff;stroke-width:0.75;" x="624.874811" xlink:href="#mea7b10384d" y="108.220227"/>
     <use style="fill:#1f77b4;stroke:#ffffff;stroke-width:0.75;" x="629.661218" xlink:href="#mea7b10384d" y="106.990125"/>
     <use style="fill:#1f77b4;stroke:#ffffff;stroke-width:0.75;" x="634.304726" xlink:href="#mea7b10384d" y="106.580091"/>
     <use style="fill:#1f77b4;stroke:#ffffff;stroke-width:0.75;" x="638.81362" xlink:href="#mea7b10384d" y="103.504837"/>
     <use style="fill:#1f77b4;stroke:#ffffff;stroke-width:0.75;" x="643.195486" xlink:href="#mea7b10384d" y="98.994464"/>
     <use style="fill:#1f77b4;stroke:#ffffff;stroke-width:0.75;" x="647.457286" xlink:href="#mea7b10384d" y="98.994464"/>
     <use style="fill:#1f77b4;stroke:#ffffff;stroke-width:0.75;" x="651.605424" xlink:href="#mea7b10384d" y="98.174396"/>
     <use style="fill:#1f77b4;stroke:#ffffff;stroke-width:0.75;" x="655.645807" xlink:href="#mea7b10384d" y="97.149311"/>
     <use style="fill:#1f77b4;stroke:#ffffff;stroke-width:0.75;" x="659.583889" xlink:href="#mea7b10384d" y="96.739278"/>
     <use style="fill:#1f77b4;stroke:#ffffff;stroke-width:0.75;" x="663.424726" xlink:href="#mea7b10384d" y="96.739278"/>
     <use style="fill:#1f77b4;stroke:#ffffff;stroke-width:0.75;" x="667.173002" xlink:href="#mea7b10384d" y="96.124227"/>
     <use style="fill:#1f77b4;stroke:#ffffff;stroke-width:0.75;" x="670.833076" xlink:href="#mea7b10384d" y="95.304159"/>
     <use style="fill:#1f77b4;stroke:#ffffff;stroke-width:0.75;" x="674.409003" xlink:href="#mea7b10384d" y="95.304159"/>
     <use style="fill:#1f77b4;stroke:#ffffff;stroke-width:0.75;" x="677.904565" xlink:href="#mea7b10384d" y="93.048972"/>
     <use style="fill:#1f77b4;stroke:#ffffff;stroke-width:0.75;" x="681.323295" xlink:href="#mea7b10384d" y="91.818871"/>
     <use style="fill:#1f77b4;stroke:#ffffff;stroke-width:0.75;" x="684.668499" xlink:href="#mea7b10384d" y="91.408837"/>
     <use style="fill:#1f77b4;stroke:#ffffff;stroke-width:0.75;" x="687.943272" xlink:href="#mea7b10384d" y="86.283413"/>
     <use style="fill:#1f77b4;stroke:#ffffff;stroke-width:0.75;" x="691.150519" xlink:href="#mea7b10384d" y="84.643278"/>
     <use style="fill:#1f77b4;stroke:#ffffff;stroke-width:0.75;" x="694.292968" xlink:href="#mea7b10384d" y="80.337922"/>
     <use style="fill:#1f77b4;stroke:#ffffff;stroke-width:0.75;" x="697.373187" xlink:href="#mea7b10384d" y="79.722871"/>
     <use style="fill:#1f77b4;stroke:#ffffff;stroke-width:0.75;" x="700.393592" xlink:href="#mea7b10384d" y="79.722871"/>
     <use style="fill:#1f77b4;stroke:#ffffff;stroke-width:0.75;" x="703.356462" xlink:href="#mea7b10384d" y="78.697786"/>
     <use style="fill:#1f77b4;stroke:#ffffff;stroke-width:0.75;" x="706.263947" xlink:href="#mea7b10384d" y="78.082735"/>
     <use style="fill:#1f77b4;stroke:#ffffff;stroke-width:0.75;" x="709.118082" xlink:href="#mea7b10384d" y="75.417515"/>
     <use style="fill:#1f77b4;stroke:#ffffff;stroke-width:0.75;" x="711.920788" xlink:href="#mea7b10384d" y="73.367345"/>
     <use style="fill:#1f77b4;stroke:#ffffff;stroke-width:0.75;" x="714.673885" xlink:href="#mea7b10384d" y="72.752294"/>
     <use style="fill:#1f77b4;stroke:#ffffff;stroke-width:0.75;" x="717.379101" xlink:href="#mea7b10384d" y="72.547278"/>
     <use style="fill:#1f77b4;stroke:#ffffff;stroke-width:0.75;" x="720.038071" xlink:href="#mea7b10384d" y="71.932227"/>
     <use style="fill:#1f77b4;stroke:#ffffff;stroke-width:0.75;" x="722.65235" xlink:href="#mea7b10384d" y="71.522193"/>
     <use style="fill:#1f77b4;stroke:#ffffff;stroke-width:0.75;" x="725.223417" xlink:href="#mea7b10384d" y="71.317176"/>
     <use style="fill:#1f77b4;stroke:#ffffff;stroke-width:0.75;" x="727.752675" xlink:href="#mea7b10384d" y="70.702125"/>
     <use style="fill:#1f77b4;stroke:#ffffff;stroke-width:0.75;" x="730.241463" xlink:href="#mea7b10384d" y="66.601786"/>
     <use style="fill:#1f77b4;stroke:#ffffff;stroke-width:0.75;" x="732.691057" xlink:href="#mea7b10384d" y="64.96165"/>
     <use style="fill:#1f77b4;stroke:#ffffff;stroke-width:0.75;" x="735.10267" xlink:href="#mea7b10384d" y="64.141583"/>
    </g>
   </g>
   <g id="line2d_35">
    <path clip-path="url(#pf33fed2e2e)" d="M 85.79358 263.21304 
L 193.609826 234.715684 
L 256.678287 218.929379 
L 301.426072 210.523684 
L 336.135151 203.758125 
L 364.494533 195.147413 
L 388.472049 193.507278 
L 409.242318 189.816972 
L 427.562994 183.666464 
L 443.951397 178.336023 
L 458.776511 174.030667 
L 472.310779 171.365447 
L 484.761099 168.085176 
L 496.288295 165.214939 
L 507.019858 163.574803 
L 517.058564 161.524633 
L 526.48848 160.294532 
L 535.37924 158.859413 
L 543.789178 156.604227 
L 551.767643 155.169108 
L 559.356756 154.759074 
L 566.592757 151.68382 
L 573.507049 151.068769 
L 580.127025 147.993515 
L 586.476722 147.173447 
L 592.577346 146.558396 
L 598.447701 144.713244 
L 604.104541 144.30321 
L 609.562855 143.688159 
L 614.836104 143.483142 
L 619.936429 142.868091 
L 624.874811 141.843006 
L 629.661218 137.127617 
L 634.304726 137.127617 
L 638.81362 132.617244 
L 643.195486 132.20721 
L 647.457286 131.797176 
L 651.605424 131.387142 
L 655.645807 130.15704 
L 659.583889 128.516905 
L 663.424726 127.696837 
L 667.173002 122.161379 
L 670.833076 118.471074 
L 674.409003 117.035956 
L 677.904565 116.215888 
L 681.323295 115.805854 
L 684.668499 114.985786 
L 687.943272 113.140633 
L 691.150519 112.7306 
L 694.292968 112.320566 
L 697.373187 111.295481 
L 700.393592 111.090464 
L 703.356462 108.835278 
L 706.263947 108.630261 
L 709.118082 108.220227 
L 711.920788 106.990125 
L 714.673885 106.785108 
L 717.379101 105.555006 
L 720.038071 104.939956 
L 722.65235 104.119888 
L 725.223417 103.914871 
L 727.752675 103.29982 
L 730.241463 102.889786 
L 732.691057 102.684769 
L 735.10267 102.274735 
" style="fill:none;stroke:#98df8a;stroke-linecap:square;stroke-width:1.5;"/>
    <defs>
     <path d="M -0 3 
L 3 -3 
L -3 -3 
z
" id="m85332a83b7" style="stroke:#ffffff;stroke-linejoin:miter;stroke-width:0.75;"/>
    </defs>
    <g clip-path="url(#pf33fed2e2e)">
     <use style="fill:#98df8a;stroke:#ffffff;stroke-linejoin:miter;stroke-width:0.75;" x="85.79358" xlink:href="#m85332a83b7" y="263.21304"/>
     <use style="fill:#98df8a;stroke:#ffffff;stroke-linejoin:miter;stroke-width:0.75;" x="193.609826" xlink:href="#m85332a83b7" y="234.715684"/>
     <use style="fill:#98df8a;stroke:#ffffff;stroke-linejoin:miter;stroke-width:0.75;" x="256.678287" xlink:href="#m85332a83b7" y="218.929379"/>
     <use style="fill:#98df8a;stroke:#ffffff;stroke-linejoin:miter;stroke-width:0.75;" x="301.426072" xlink:href="#m85332a83b7" y="210.523684"/>
     <use style="fill:#98df8a;stroke:#ffffff;stroke-linejoin:miter;stroke-width:0.75;" x="336.135151" xlink:href="#m85332a83b7" y="203.758125"/>
     <use style="fill:#98df8a;stroke:#ffffff;stroke-linejoin:miter;stroke-width:0.75;" x="364.494533" xlink:href="#m85332a83b7" y="195.147413"/>
     <use style="fill:#98df8a;stroke:#ffffff;stroke-linejoin:miter;stroke-width:0.75;" x="388.472049" xlink:href="#m85332a83b7" y="193.507278"/>
     <use style="fill:#98df8a;stroke:#ffffff;stroke-linejoin:miter;stroke-width:0.75;" x="409.242318" xlink:href="#m85332a83b7" y="189.816972"/>
     <use style="fill:#98df8a;stroke:#ffffff;stroke-linejoin:miter;stroke-width:0.75;" x="427.562994" xlink:href="#m85332a83b7" y="183.666464"/>
     <use style="fill:#98df8a;stroke:#ffffff;stroke-linejoin:miter;stroke-width:0.75;" x="443.951397" xlink:href="#m85332a83b7" y="178.336023"/>
     <use style="fill:#98df8a;stroke:#ffffff;stroke-linejoin:miter;stroke-width:0.75;" x="458.776511" xlink:href="#m85332a83b7" y="174.030667"/>
     <use style="fill:#98df8a;stroke:#ffffff;stroke-linejoin:miter;stroke-width:0.75;" x="472.310779" xlink:href="#m85332a83b7" y="171.365447"/>
     <use style="fill:#98df8a;stroke:#ffffff;stroke-linejoin:miter;stroke-width:0.75;" x="484.761099" xlink:href="#m85332a83b7" y="168.085176"/>
     <use style="fill:#98df8a;stroke:#ffffff;stroke-linejoin:miter;stroke-width:0.75;" x="496.288295" xlink:href="#m85332a83b7" y="165.214939"/>
     <use style="fill:#98df8a;stroke:#ffffff;stroke-linejoin:miter;stroke-width:0.75;" x="507.019858" xlink:href="#m85332a83b7" y="163.574803"/>
     <use style="fill:#98df8a;stroke:#ffffff;stroke-linejoin:miter;stroke-width:0.75;" x="517.058564" xlink:href="#m85332a83b7" y="161.524633"/>
     <use style="fill:#98df8a;stroke:#ffffff;stroke-linejoin:miter;stroke-width:0.75;" x="526.48848" xlink:href="#m85332a83b7" y="160.294532"/>
     <use style="fill:#98df8a;stroke:#ffffff;stroke-linejoin:miter;stroke-width:0.75;" x="535.37924" xlink:href="#m85332a83b7" y="158.859413"/>
     <use style="fill:#98df8a;stroke:#ffffff;stroke-linejoin:miter;stroke-width:0.75;" x="543.789178" xlink:href="#m85332a83b7" y="156.604227"/>
     <use style="fill:#98df8a;stroke:#ffffff;stroke-linejoin:miter;stroke-width:0.75;" x="551.767643" xlink:href="#m85332a83b7" y="155.169108"/>
     <use style="fill:#98df8a;stroke:#ffffff;stroke-linejoin:miter;stroke-width:0.75;" x="559.356756" xlink:href="#m85332a83b7" y="154.759074"/>
     <use style="fill:#98df8a;stroke:#ffffff;stroke-linejoin:miter;stroke-width:0.75;" x="566.592757" xlink:href="#m85332a83b7" y="151.68382"/>
     <use style="fill:#98df8a;stroke:#ffffff;stroke-linejoin:miter;stroke-width:0.75;" x="573.507049" xlink:href="#m85332a83b7" y="151.068769"/>
     <use style="fill:#98df8a;stroke:#ffffff;stroke-linejoin:miter;stroke-width:0.75;" x="580.127025" xlink:href="#m85332a83b7" y="147.993515"/>
     <use style="fill:#98df8a;stroke:#ffffff;stroke-linejoin:miter;stroke-width:0.75;" x="586.476722" xlink:href="#m85332a83b7" y="147.173447"/>
     <use style="fill:#98df8a;stroke:#ffffff;stroke-linejoin:miter;stroke-width:0.75;" x="592.577346" xlink:href="#m85332a83b7" y="146.558396"/>
     <use style="fill:#98df8a;stroke:#ffffff;stroke-linejoin:miter;stroke-width:0.75;" x="598.447701" xlink:href="#m85332a83b7" y="144.713244"/>
     <use style="fill:#98df8a;stroke:#ffffff;stroke-linejoin:miter;stroke-width:0.75;" x="604.104541" xlink:href="#m85332a83b7" y="144.30321"/>
     <use style="fill:#98df8a;stroke:#ffffff;stroke-linejoin:miter;stroke-width:0.75;" x="609.562855" xlink:href="#m85332a83b7" y="143.688159"/>
     <use style="fill:#98df8a;stroke:#ffffff;stroke-linejoin:miter;stroke-width:0.75;" x="614.836104" xlink:href="#m85332a83b7" y="143.483142"/>
     <use style="fill:#98df8a;stroke:#ffffff;stroke-linejoin:miter;stroke-width:0.75;" x="619.936429" xlink:href="#m85332a83b7" y="142.868091"/>
     <use style="fill:#98df8a;stroke:#ffffff;stroke-linejoin:miter;stroke-width:0.75;" x="624.874811" xlink:href="#m85332a83b7" y="141.843006"/>
     <use style="fill:#98df8a;stroke:#ffffff;stroke-linejoin:miter;stroke-width:0.75;" x="629.661218" xlink:href="#m85332a83b7" y="137.127617"/>
     <use style="fill:#98df8a;stroke:#ffffff;stroke-linejoin:miter;stroke-width:0.75;" x="634.304726" xlink:href="#m85332a83b7" y="137.127617"/>
     <use style="fill:#98df8a;stroke:#ffffff;stroke-linejoin:miter;stroke-width:0.75;" x="638.81362" xlink:href="#m85332a83b7" y="132.617244"/>
     <use style="fill:#98df8a;stroke:#ffffff;stroke-linejoin:miter;stroke-width:0.75;" x="643.195486" xlink:href="#m85332a83b7" y="132.20721"/>
     <use style="fill:#98df8a;stroke:#ffffff;stroke-linejoin:miter;stroke-width:0.75;" x="647.457286" xlink:href="#m85332a83b7" y="131.797176"/>
     <use style="fill:#98df8a;stroke:#ffffff;stroke-linejoin:miter;stroke-width:0.75;" x="651.605424" xlink:href="#m85332a83b7" y="131.387142"/>
     <use style="fill:#98df8a;stroke:#ffffff;stroke-linejoin:miter;stroke-width:0.75;" x="655.645807" xlink:href="#m85332a83b7" y="130.15704"/>
     <use style="fill:#98df8a;stroke:#ffffff;stroke-linejoin:miter;stroke-width:0.75;" x="659.583889" xlink:href="#m85332a83b7" y="128.516905"/>
     <use style="fill:#98df8a;stroke:#ffffff;stroke-linejoin:miter;stroke-width:0.75;" x="663.424726" xlink:href="#m85332a83b7" y="127.696837"/>
     <use style="fill:#98df8a;stroke:#ffffff;stroke-linejoin:miter;stroke-width:0.75;" x="667.173002" xlink:href="#m85332a83b7" y="122.161379"/>
     <use style="fill:#98df8a;stroke:#ffffff;stroke-linejoin:miter;stroke-width:0.75;" x="670.833076" xlink:href="#m85332a83b7" y="118.471074"/>
     <use style="fill:#98df8a;stroke:#ffffff;stroke-linejoin:miter;stroke-width:0.75;" x="674.409003" xlink:href="#m85332a83b7" y="117.035956"/>
     <use style="fill:#98df8a;stroke:#ffffff;stroke-linejoin:miter;stroke-width:0.75;" x="677.904565" xlink:href="#m85332a83b7" y="116.215888"/>
     <use style="fill:#98df8a;stroke:#ffffff;stroke-linejoin:miter;stroke-width:0.75;" x="681.323295" xlink:href="#m85332a83b7" y="115.805854"/>
     <use style="fill:#98df8a;stroke:#ffffff;stroke-linejoin:miter;stroke-width:0.75;" x="684.668499" xlink:href="#m85332a83b7" y="114.985786"/>
     <use style="fill:#98df8a;stroke:#ffffff;stroke-linejoin:miter;stroke-width:0.75;" x="687.943272" xlink:href="#m85332a83b7" y="113.140633"/>
     <use style="fill:#98df8a;stroke:#ffffff;stroke-linejoin:miter;stroke-width:0.75;" x="691.150519" xlink:href="#m85332a83b7" y="112.7306"/>
     <use style="fill:#98df8a;stroke:#ffffff;stroke-linejoin:miter;stroke-width:0.75;" x="694.292968" xlink:href="#m85332a83b7" y="112.320566"/>
     <use style="fill:#98df8a;stroke:#ffffff;stroke-linejoin:miter;stroke-width:0.75;" x="697.373187" xlink:href="#m85332a83b7" y="111.295481"/>
     <use style="fill:#98df8a;stroke:#ffffff;stroke-linejoin:miter;stroke-width:0.75;" x="700.393592" xlink:href="#m85332a83b7" y="111.090464"/>
     <use style="fill:#98df8a;stroke:#ffffff;stroke-linejoin:miter;stroke-width:0.75;" x="703.356462" xlink:href="#m85332a83b7" y="108.835278"/>
     <use style="fill:#98df8a;stroke:#ffffff;stroke-linejoin:miter;stroke-width:0.75;" x="706.263947" xlink:href="#m85332a83b7" y="108.630261"/>
     <use style="fill:#98df8a;stroke:#ffffff;stroke-linejoin:miter;stroke-width:0.75;" x="709.118082" xlink:href="#m85332a83b7" y="108.220227"/>
     <use style="fill:#98df8a;stroke:#ffffff;stroke-linejoin:miter;stroke-width:0.75;" x="711.920788" xlink:href="#m85332a83b7" y="106.990125"/>
     <use style="fill:#98df8a;stroke:#ffffff;stroke-linejoin:miter;stroke-width:0.75;" x="714.673885" xlink:href="#m85332a83b7" y="106.785108"/>
     <use style="fill:#98df8a;stroke:#ffffff;stroke-linejoin:miter;stroke-width:0.75;" x="717.379101" xlink:href="#m85332a83b7" y="105.555006"/>
     <use style="fill:#98df8a;stroke:#ffffff;stroke-linejoin:miter;stroke-width:0.75;" x="720.038071" xlink:href="#m85332a83b7" y="104.939956"/>
     <use style="fill:#98df8a;stroke:#ffffff;stroke-linejoin:miter;stroke-width:0.75;" x="722.65235" xlink:href="#m85332a83b7" y="104.119888"/>
     <use style="fill:#98df8a;stroke:#ffffff;stroke-linejoin:miter;stroke-width:0.75;" x="725.223417" xlink:href="#m85332a83b7" y="103.914871"/>
     <use style="fill:#98df8a;stroke:#ffffff;stroke-linejoin:miter;stroke-width:0.75;" x="727.752675" xlink:href="#m85332a83b7" y="103.29982"/>
     <use style="fill:#98df8a;stroke:#ffffff;stroke-linejoin:miter;stroke-width:0.75;" x="730.241463" xlink:href="#m85332a83b7" y="102.889786"/>
     <use style="fill:#98df8a;stroke:#ffffff;stroke-linejoin:miter;stroke-width:0.75;" x="732.691057" xlink:href="#m85332a83b7" y="102.684769"/>
     <use style="fill:#98df8a;stroke:#ffffff;stroke-linejoin:miter;stroke-width:0.75;" x="735.10267" xlink:href="#m85332a83b7" y="102.274735"/>
    </g>
   </g>
   <g id="line2d_36"/>
   <g id="line2d_37"/>
   <g id="line2d_38">
    <path clip-path="url(#pf33fed2e2e)" d="M 735.10267 288.430125 
L 735.10267 22.318125 
" style="fill:none;stroke:#ff0000;stroke-linecap:square;stroke-width:1.5;"/>
   </g>
   <g id="patch_3">
    <path d="M 53.328125 261.572905 
L 53.328125 56.555956 
" style="fill:none;stroke:#000000;stroke-linecap:square;stroke-linejoin:miter;stroke-width:0.8;"/>
   </g>
   <g id="patch_4">
    <path d="M 85.79358 288.430125 
L 735.105329 288.430125 
" style="fill:none;stroke:#000000;stroke-linecap:square;stroke-linejoin:miter;stroke-width:0.8;"/>
   </g>
   <g id="text_21">
    <!-- bloaty_fuzz_target (16h:15m, 10 trials/fuzzer) -->
    <g transform="translate(273.034063 16.318125)scale(0.12 -0.12)">
     <defs>
      <path d="M 603 4863 
L 1178 4863 
L 1178 0 
L 603 0 
L 603 4863 
z
" id="DejaVuSans-6c" transform="scale(0.015625)"/>
      <path d="M 2059 -325 
Q 1816 -950 1584 -1140 
Q 1353 -1331 966 -1331 
L 506 -1331 
L 506 -850 
L 844 -850 
Q 1081 -850 1212 -737 
Q 1344 -625 1503 -206 
L 1606 56 
L 191 3500 
L 800 3500 
L 1894 763 
L 2988 3500 
L 3597 3500 
L 2059 -325 
z
" id="DejaVuSans-79" transform="scale(0.015625)"/>
      <path d="M 3263 -1063 
L 3263 -1509 
L -63 -1509 
L -63 -1063 
L 3263 -1063 
z
" id="DejaVuSans-5f" transform="scale(0.015625)"/>
      <path d="M 2375 4863 
L 2375 4384 
L 1825 4384 
Q 1516 4384 1395 4259 
Q 1275 4134 1275 3809 
L 1275 3500 
L 2222 3500 
L 2222 3053 
L 1275 3053 
L 1275 0 
L 697 0 
L 697 3053 
L 147 3053 
L 147 3500 
L 697 3500 
L 697 3744 
Q 697 4328 969 4595 
Q 1241 4863 1831 4863 
L 2375 4863 
z
" id="DejaVuSans-66" transform="scale(0.015625)"/>
      <path d="M 353 3500 
L 3084 3500 
L 3084 2975 
L 922 459 
L 3084 459 
L 3084 0 
L 275 0 
L 275 525 
L 2438 3041 
L 353 3041 
L 353 3500 
z
" id="DejaVuSans-7a" transform="scale(0.015625)"/>
      <path d="M 750 794 
L 1409 794 
L 1409 256 
L 897 -744 
L 494 -744 
L 750 256 
L 750 794 
z
" id="DejaVuSans-2c" transform="scale(0.015625)"/>
      <path d="M 2834 3397 
L 2834 2853 
Q 2591 2978 2328 3040 
Q 2066 3103 1784 3103 
Q 1356 3103 1142 2972 
Q 928 2841 928 2578 
Q 928 2378 1081 2264 
Q 1234 2150 1697 2047 
L 1894 2003 
Q 2506 1872 2764 1633 
Q 3022 1394 3022 966 
Q 3022 478 2636 193 
Q 2250 -91 1575 -91 
Q 1294 -91 989 -36 
Q 684 19 347 128 
L 347 722 
Q 666 556 975 473 
Q 1284 391 1588 391 
Q 1994 391 2212 530 
Q 2431 669 2431 922 
Q 2431 1156 2273 1281 
Q 2116 1406 1581 1522 
L 1381 1569 
Q 847 1681 609 1914 
Q 372 2147 372 2553 
Q 372 3047 722 3315 
Q 1072 3584 1716 3584 
Q 2034 3584 2315 3537 
Q 2597 3491 2834 3397 
z
" id="DejaVuSans-73" transform="scale(0.015625)"/>
      <path d="M 1625 4666 
L 2156 4666 
L 531 -594 
L 0 -594 
L 1625 4666 
z
" id="DejaVuSans-2f" transform="scale(0.015625)"/>
     </defs>
     <use xlink:href="#DejaVuSans-62"/>
     <use x="63.476562" xlink:href="#DejaVuSans-6c"/>
     <use x="91.259766" xlink:href="#DejaVuSans-6f"/>
     <use x="152.441406" xlink:href="#DejaVuSans-61"/>
     <use x="213.720703" xlink:href="#DejaVuSans-74"/>
     <use x="252.929688" xlink:href="#DejaVuSans-79"/>
     <use x="312.109375" xlink:href="#DejaVuSans-5f"/>
     <use x="362.109375" xlink:href="#DejaVuSans-66"/>
     <use x="397.314453" xlink:href="#DejaVuSans-75"/>
     <use x="460.693359" xlink:href="#DejaVuSans-7a"/>
     <use x="513.183594" xlink:href="#DejaVuSans-7a"/>
     <use x="565.673828" xlink:href="#DejaVuSans-5f"/>
     <use x="615.673828" xlink:href="#DejaVuSans-74"/>
     <use x="654.882812" xlink:href="#DejaVuSans-61"/>
     <use x="716.162109" xlink:href="#DejaVuSans-72"/>
     <use x="755.525391" xlink:href="#DejaVuSans-67"/>
     <use x="819.001953" xlink:href="#DejaVuSans-65"/>
     <use x="880.525391" xlink:href="#DejaVuSans-74"/>
     <use x="919.734375" xlink:href="#DejaVuSans-20"/>
     <use x="951.521484" xlink:href="#DejaVuSans-28"/>
     <use x="990.535156" xlink:href="#DejaVuSans-31"/>
     <use x="1054.158203" xlink:href="#DejaVuSans-36"/>
     <use x="1117.78125" xlink:href="#DejaVuSans-68"/>
     <use x="1181.160156" xlink:href="#DejaVuSans-3a"/>
     <use x="1214.851562" xlink:href="#DejaVuSans-31"/>
     <use x="1278.474609" xlink:href="#DejaVuSans-35"/>
     <use x="1342.097656" xlink:href="#DejaVuSans-6d"/>
     <use x="1439.509766" xlink:href="#DejaVuSans-2c"/>
     <use x="1471.296875" xlink:href="#DejaVuSans-20"/>
     <use x="1503.083984" xlink:href="#DejaVuSans-31"/>
     <use x="1566.707031" xlink:href="#DejaVuSans-30"/>
     <use x="1630.330078" xlink:href="#DejaVuSans-20"/>
     <use x="1662.117188" xlink:href="#DejaVuSans-74"/>
     <use x="1701.326172" xlink:href="#DejaVuSans-72"/>
     <use x="1742.439453" xlink:href="#DejaVuSans-69"/>
     <use x="1770.222656" xlink:href="#DejaVuSans-61"/>
     <use x="1831.501953" xlink:href="#DejaVuSans-6c"/>
     <use x="1859.285156" xlink:href="#DejaVuSans-73"/>
     <use x="1911.384766" xlink:href="#DejaVuSans-2f"/>
     <use x="1945.076172" xlink:href="#DejaVuSans-66"/>
     <use x="1980.28125" xlink:href="#DejaVuSans-75"/>
     <use x="2043.660156" xlink:href="#DejaVuSans-7a"/>
     <use x="2096.150391" xlink:href="#DejaVuSans-7a"/>
     <use x="2148.640625" xlink:href="#DejaVuSans-65"/>
     <use x="2210.164062" xlink:href="#DejaVuSans-72"/>
     <use x="2251.277344" xlink:href="#DejaVuSans-29"/>
    </g>
   </g>
   <g id="legend_1">
    <g id="line2d_39">
     <path d="M 771.568125 30.416562 
L 791.568125 30.416562 
" style="fill:none;stroke:#1f77b4;stroke-linecap:square;stroke-width:1.5;"/>
    </g>
    <g id="line2d_40">
     <defs>
      <path d="M 0 3 
C 0.795609 3 1.55874 2.683901 2.12132 2.12132 
C 2.683901 1.55874 3 0.795609 3 0 
C 3 -0.795609 2.683901 -1.55874 2.12132 -2.12132 
C 1.55874 -2.683901 0.795609 -3 0 -3 
C -0.795609 -3 -1.55874 -2.683901 -2.12132 -2.12132 
C -2.683901 -1.55874 -3 -0.795609 -3 0 
C -3 0.795609 -2.683901 1.55874 -2.12132 2.12132 
C -1.55874 2.683901 -0.795609 3 0 3 
z
" id="md02e98357b" style="stroke:#1f77b4;"/>
     </defs>
     <g>
      <use style="fill:#1f77b4;stroke:#1f77b4;" x="781.568125" xlink:href="#md02e98357b" y="30.416562"/>
     </g>
    </g>
    <g id="text_22">
     <!-- aflplusplus -->
     <g transform="translate(799.568125 33.916562)scale(0.1 -0.1)">
      <defs>
       <path d="M 1159 525 
L 1159 -1331 
L 581 -1331 
L 581 3500 
L 1159 3500 
L 1159 2969 
Q 1341 3281 1617 3432 
Q 1894 3584 2278 3584 
Q 2916 3584 3314 3078 
Q 3713 2572 3713 1747 
Q 3713 922 3314 415 
Q 2916 -91 2278 -91 
Q 1894 -91 1617 61 
Q 1341 213 1159 525 
z
M 3116 1747 
Q 3116 2381 2855 2742 
Q 2594 3103 2138 3103 
Q 1681 3103 1420 2742 
Q 1159 2381 1159 1747 
Q 1159 1113 1420 752 
Q 1681 391 2138 391 
Q 2594 391 2855 752 
Q 3116 1113 3116 1747 
z
" id="DejaVuSans-70" transform="scale(0.015625)"/>
      </defs>
      <use xlink:href="#DejaVuSans-61"/>
      <use x="61.279297" xlink:href="#DejaVuSans-66"/>
      <use x="96.484375" xlink:href="#DejaVuSans-6c"/>
      <use x="124.267578" xlink:href="#DejaVuSans-70"/>
      <use x="187.744141" xlink:href="#DejaVuSans-6c"/>
      <use x="215.527344" xlink:href="#DejaVuSans-75"/>
      <use x="278.90625" xlink:href="#DejaVuSans-73"/>
      <use x="331.005859" xlink:href="#DejaVuSans-70"/>
      <use x="394.482422" xlink:href="#DejaVuSans-6c"/>
      <use x="422.265625" xlink:href="#DejaVuSans-75"/>
      <use x="485.644531" xlink:href="#DejaVuSans-73"/>
     </g>
    </g>
    <g id="line2d_41">
     <path d="M 771.568125 45.094688 
L 791.568125 45.094688 
" style="fill:none;stroke:#98df8a;stroke-linecap:square;stroke-width:1.5;"/>
    </g>
    <g id="line2d_42">
     <defs>
      <path d="M -0 3 
L 3 -3 
L -3 -3 
z
" id="m9cd8a89306" style="stroke:#98df8a;stroke-linejoin:miter;"/>
     </defs>
     <g>
      <use style="fill:#98df8a;stroke:#98df8a;stroke-linejoin:miter;" x="781.568125" xlink:href="#m9cd8a89306" y="45.094688"/>
     </g>
    </g>
    <g id="text_23">
     <!-- libfuzzer -->
     <g transform="translate(799.568125 48.594688)scale(0.1 -0.1)">
      <use xlink:href="#DejaVuSans-6c"/>
      <use x="27.783203" xlink:href="#DejaVuSans-69"/>
      <use x="55.566406" xlink:href="#DejaVuSans-62"/>
      <use x="119.042969" xlink:href="#DejaVuSans-66"/>
      <use x="154.248047" xlink:href="#DejaVuSans-75"/>
      <use x="217.626953" xlink:href="#DejaVuSans-7a"/>
      <use x="270.117188" xlink:href="#DejaVuSans-7a"/>
      <use x="322.607422" xlink:href="#DejaVuSans-65"/>
      <use x="384.130859" xlink:href="#DejaVuSans-72"/>
     </g>
    </g>
   </g>
  </g>
 </g>
 <defs>
  <clipPath id="pf33fed2e2e">
   <rect height="266.112" width="714.24" x="53.328125" y="22.318125"/>
  </clipPath>
 </defs>
</svg>
