<?xml version="1.0" encoding="utf-8" standalone="no"?>
<!DOCTYPE svg PUBLIC "-//W3C//DTD SVG 1.1//EN"
  "http://www.w3.org/Graphics/SVG/1.1/DTD/svg11.dtd">
<svg height="325.986375pt" version="1.1" viewBox="0 0 870.904062 325.986375" width="870.904062pt" xmlns="http://www.w3.org/2000/svg" xmlns:xlink="http://www.w3.org/1999/xlink">
 <metadata>
  <rdf:RDF xmlns:cc="http://creativecommons.org/ns#" xmlns:dc="http://purl.org/dc/elements/1.1/" xmlns:rdf="http://www.w3.org/1999/02/22-rdf-syntax-ns#">
   <cc:Work>
    <dc:type rdf:resource="http://purl.org/dc/dcmitype/StillImage"/>
    <dc:date>2022-06-12T10:04:01.102118</dc:date>
    <dc:format>image/svg+xml</dc:format>
    <dc:creator>
     <cc:Agent>
      <dc:title>Matplotlib v3.4.1, https://matplotlib.org/</dc:title>
     </cc:Agent>
    </dc:creator>
   </cc:Work>
  </rdf:RDF>
 </metadata>
 <defs>
  <style type="text/css">*{stroke-linecap:butt;stroke-linejoin:round;}</style>
 </defs>
 <g id="figure_1">
  <g id="patch_1">
   <path d="M 0 325.986375 
L 870.904062 325.986375 
L 870.904062 0 
L 0 0 
z
" style="fill:#ffffff;"/>
  </g>
  <g id="axes_1">
   <g id="patch_2">
    <path d="M 59.690625 288.430125 
L 773.930625 288.430125 
L 773.930625 22.318125 
L 59.690625 22.318125 
z
" style="fill:#ffffff;"/>
   </g>
   <g id="PolyCollection_1">
    <defs>
     <path d="M 92.15608 -50.319984 
L 92.15608 -49.65225 
L 199.579434 -50.05289 
L 262.418068 -50.319984 
L 307.002788 -50.987718 
L 341.585384 -51.321585 
L 369.841422 -51.855772 
L 393.731562 -53.573517 
L 414.426142 -54.126067 
L 432.680056 -54.793801 
L 449.008738 -56.529909 
L 463.779828 -57.795265 
L 477.264776 -58.728423 
L 489.669726 -59.467939 
L 501.154916 -61.0705 
L 511.847372 -61.0705 
L 521.849497 -61.337594 
L 531.245048 -61.604687 
L 540.10341 -62.673061 
L 548.482702 -66.345598 
L 556.432092 -70.285228 
L 563.99355 -76.294833 
L 571.203182 -79.36641 
L 578.092278 -80.768651 
L 584.688131 -81.770252 
L 591.014688 -87.512763 
L 597.093081 -94.190103 
L 602.942044 -94.92461 
L 608.578271 -98.86424 
L 614.016693 -102.069363 
L 619.270726 -110.215717 
L 624.352465 -112.991821 
L 629.272851 -113.955027 
L 634.041816 -118.629164 
L 638.668403 -119.363671 
L 643.160866 -124.104582 
L 647.526765 -126.641971 
L 651.773034 -127.042612 
L 655.906056 -130.047414 
L 659.931715 -133.987044 
L 663.855447 -142.066625 
L 667.682287 -151.949087 
L 671.416904 -153.685195 
L 675.063641 -156.890318 
L 678.626536 -159.227387 
L 682.10936 -175.787188 
L 685.515632 -161.965096 
L 688.848646 -172.448518 
L 692.111485 -185.202236 
L 695.307044 -186.804798 
L 698.438043 -189.475733 
L 701.507037 -207.771643 
L 704.516435 -213.434026 
L 707.468508 -199.091102 
L 710.365399 -211.377406 
L 713.209132 -215.116716 
L 716.001625 -222.194695 
L 718.74469 -232.477798 
L 721.440047 -236.217108 
L 724.089328 -239.622551 
L 726.694081 -240.357058 
L 729.255778 -243.695728 
L 731.775819 -244.497008 
L 734.255538 -246.166343 
L 736.696205 -248.035998 
L 739.099031 -255.447845 
L 741.46517 -260.522623 
L 741.46517 -290.904516 
L 741.46517 -290.904516 
L 739.099031 -291.57225 
L 736.696205 -287.83294 
L 734.255538 -289.368728 
L 731.775819 -287.63262 
L 729.255778 -287.098433 
L 726.694081 -285.762965 
L 724.089328 -275.818737 
L 721.440047 -278.684985 
L 718.74469 -278.084025 
L 716.001625 -276.948877 
L 713.209132 -267.800922 
L 710.365399 -269.537031 
L 707.468508 -260.522623 
L 704.516435 -239.756098 
L 701.507037 -255.714938 
L 698.438043 -248.169545 
L 695.307044 -239.555777 
L 692.111485 -238.353856 
L 688.848646 -233.946813 
L 685.515632 -228.671715 
L 682.10936 -223.129523 
L 678.626536 -218.856026 
L 675.063641 -217.119918 
L 671.416904 -212.312233 
L 667.682287 -210.509352 
L 663.855447 -193.74923 
L 659.931715 -189.8096 
L 655.906056 -146.986154 
L 651.773034 -175.052681 
L 647.526765 -170.845957 
L 643.160866 -163.23379 
L 638.668403 -151.61522 
L 634.041816 -132.584803 
L 629.272851 -130.514828 
L 624.352465 -128.311306 
L 619.270726 -126.708745 
L 614.016693 -124.171356 
L 608.578271 -121.50042 
L 602.942044 -113.973389 
L 597.093081 -117.694337 
L 591.014688 -111.484411 
L 584.688131 -103.271284 
L 578.092278 -96.460398 
L 571.203182 -93.033254 
L 563.99355 -94.590743 
L 556.432092 -89.315645 
L 548.482702 -81.169291 
L 540.10341 -74.224858 
L 531.245048 -70.218455 
L 521.849497 -67.146879 
L 511.847372 -66.278825 
L 501.154916 -65.878184 
L 489.669726 -65.410771 
L 477.264776 -65.143677 
L 463.779828 -65.076904 
L 449.008738 -64.676263 
L 432.680056 -62.405968 
L 414.426142 -60.402766 
L 393.731562 -58.466338 
L 369.841422 -57.932151 
L 341.585384 -56.463136 
L 307.002788 -53.236312 
L 262.418068 -54.059294 
L 199.579434 -50.453531 
L 92.15608 -50.319984 
z
" id="m3e9591e4e3" style="stroke:#1f77b4;stroke-opacity:0.2;"/>
    </defs>
    <g clip-path="url(#p75da8889f2)">
     <use style="fill:#1f77b4;fill-opacity:0.2;stroke:#1f77b4;stroke-opacity:0.2;" x="0" xlink:href="#m3e9591e4e3" y="325.986375"/>
    </g>
   </g>
   <g id="PolyCollection_2">
    <defs>
     <path d="M 92.15608 -55.798741 
L 92.15608 -51.421745 
L 199.579434 -52.389959 
L 262.418068 -52.723826 
L 307.002788 -63.474342 
L 341.585384 -63.830745 
L 369.841422 -65.01013 
L 393.731562 -65.477544 
L 414.426142 -65.611091 
L 432.680056 -71.086509 
L 449.008738 -70.585708 
L 463.779828 -70.652482 
L 477.264776 -73.223257 
L 489.669726 -74.258245 
L 501.154916 -74.491952 
L 511.847372 -74.959366 
L 521.849497 -75.426779 
L 531.245048 -76.995954 
L 540.10341 -77.263048 
L 548.482702 -77.630301 
L 556.432092 -81.436385 
L 563.99355 -83.172493 
L 571.203182 -83.172493 
L 578.092278 -83.172493 
L 584.688131 -83.30604 
L 591.014688 -84.775054 
L 597.093081 -84.775054 
L 602.942044 -84.840993 
L 608.578271 -84.975374 
L 614.016693 -85.042148 
L 619.270726 -86.845029 
L 624.352465 -86.845029 
L 629.272851 -87.04535 
L 634.041816 -87.04535 
L 638.668403 -86.845029 
L 643.160866 -87.412603 
L 647.526765 -88.480978 
L 651.773034 -88.614524 
L 655.906056 -87.763998 
L 659.931715 -87.880017 
L 663.855447 -88.681298 
L 667.682287 -87.880017 
L 671.416904 -89.783059 
L 675.063641 -88.547751 
L 678.626536 -88.547751 
L 682.10936 -87.54615 
L 685.515632 -89.783059 
L 688.848646 -91.853034 
L 692.111485 -91.48578 
L 695.307044 -91.552554 
L 698.438043 -91.352233 
L 701.507037 -91.652714 
L 704.516435 -92.564171 
L 707.468508 -93.11839 
L 710.365399 -92.520768 
L 713.209132 -92.520768 
L 716.001625 -93.322049 
L 718.74469 -93.287827 
L 721.440047 -93.255275 
L 724.089328 -93.589142 
L 726.694081 -93.58163 
L 729.255778 -95.258477 
L 731.775819 -93.522369 
L 734.255538 -93.550747 
L 736.696205 -93.550747 
L 739.099031 -94.483906 
L 741.46517 -90.918206 
L 741.46517 -104.139338 
L 741.46517 -104.139338 
L 739.099031 -103.479951 
L 736.696205 -103.471604 
L 734.255538 -103.471604 
L 731.775819 -103.404831 
L 729.255778 -103.070964 
L 726.694081 -102.937417 
L 724.089328 -102.541785 
L 721.440047 -102.536777 
L 718.74469 -102.40323 
L 716.001625 -102.40323 
L 713.209132 -101.268082 
L 710.365399 -100.800668 
L 707.468508 -101.167922 
L 704.516435 -101.034375 
L 701.507037 -100.800668 
L 698.438043 -101.000989 
L 695.307044 -101.000989 
L 692.111485 -100.099548 
L 688.848646 -99.131334 
L 685.515632 -98.931013 
L 682.10936 -99.431814 
L 678.626536 -98.931013 
L 675.063641 -98.797467 
L 671.416904 -98.797467 
L 667.682287 -98.797467 
L 663.855447 -98.797467 
L 659.931715 -98.730693 
L 655.906056 -98.730693 
L 651.773034 -98.597146 
L 647.526765 -98.597146 
L 643.160866 -98.597146 
L 638.668403 -98.597146 
L 634.041816 -98.530373 
L 629.272851 -97.528772 
L 624.352465 -97.495386 
L 619.270726 -95.992984 
L 614.016693 -95.592344 
L 608.578271 -95.592344 
L 602.942044 -95.592344 
L 597.093081 -95.592344 
L 591.014688 -95.659117 
L 584.688131 -95.392024 
L 578.092278 -95.392024 
L 571.203182 -91.490788 
L 563.99355 -89.515965 
L 556.432092 -90.851433 
L 548.482702 -90.691177 
L 540.10341 -88.581138 
L 531.245048 -88.150449 
L 521.849497 -88.180497 
L 511.847372 -89.849832 
L 501.154916 -86.778256 
L 489.669726 -86.511163 
L 477.264776 -85.008761 
L 463.779828 -84.541347 
L 449.008738 -79.499956 
L 432.680056 -78.131102 
L 414.426142 -77.630301 
L 393.731562 -77.229661 
L 369.841422 -76.829021 
L 341.585384 -70.452162 
L 307.002788 -68.816214 
L 262.418068 -63.307409 
L 199.579434 -61.504527 
L 92.15608 -55.798741 
z
" id="m4928487726" style="stroke:#98df8a;stroke-opacity:0.2;"/>
    </defs>
    <g clip-path="url(#p75da8889f2)">
     <use style="fill:#98df8a;fill-opacity:0.2;stroke:#98df8a;stroke-opacity:0.2;" x="0" xlink:href="#m4928487726" y="325.986375"/>
    </g>
   </g>
   <g id="matplotlib.axis_1">
    <g id="xtick_1">
     <g id="line2d_1">
      <defs>
       <path d="M 0 0 
L 0 3.5 
" id="me1042c687b" style="stroke:#000000;stroke-width:0.8;"/>
      </defs>
      <g>
       <use style="stroke:#000000;stroke-width:0.8;" x="92.15608" xlink:href="#me1042c687b" y="288.430125"/>
      </g>
     </g>
     <g id="text_1">
      <!-- 14m -->
      <g transform="translate(80.923267 303.028562)scale(0.1 -0.1)">
       <defs>
        <path d="M 794 531 
L 1825 531 
L 1825 4091 
L 703 3866 
L 703 4441 
L 1819 4666 
L 2450 4666 
L 2450 531 
L 3481 531 
L 3481 0 
L 794 0 
L 794 531 
z
" id="DejaVuSans-31" transform="scale(0.015625)"/>
        <path d="M 2419 4116 
L 825 1625 
L 2419 1625 
L 2419 4116 
z
M 2253 4666 
L 3047 4666 
L 3047 1625 
L 3713 1625 
L 3713 1100 
L 3047 1100 
L 3047 0 
L 2419 0 
L 2419 1100 
L 313 1100 
L 313 1709 
L 2253 4666 
z
" id="DejaVuSans-34" transform="scale(0.015625)"/>
        <path d="M 3328 2828 
Q 3544 3216 3844 3400 
Q 4144 3584 4550 3584 
Q 5097 3584 5394 3201 
Q 5691 2819 5691 2113 
L 5691 0 
L 5113 0 
L 5113 2094 
Q 5113 2597 4934 2840 
Q 4756 3084 4391 3084 
Q 3944 3084 3684 2787 
Q 3425 2491 3425 1978 
L 3425 0 
L 2847 0 
L 2847 2094 
Q 2847 2600 2669 2842 
Q 2491 3084 2119 3084 
Q 1678 3084 1418 2786 
Q 1159 2488 1159 1978 
L 1159 0 
L 581 0 
L 581 3500 
L 1159 3500 
L 1159 2956 
Q 1356 3278 1631 3431 
Q 1906 3584 2284 3584 
Q 2666 3584 2933 3390 
Q 3200 3197 3328 2828 
z
" id="DejaVuSans-6d" transform="scale(0.015625)"/>
       </defs>
       <use xlink:href="#DejaVuSans-31"/>
       <use x="63.623047" xlink:href="#DejaVuSans-34"/>
       <use x="127.246094" xlink:href="#DejaVuSans-6d"/>
      </g>
     </g>
    </g>
    <g id="xtick_2">
     <g id="line2d_2">
      <g>
       <use style="stroke:#000000;stroke-width:0.8;" x="151.184416" xlink:href="#me1042c687b" y="288.430125"/>
      </g>
     </g>
     <g id="text_2">
      <!-- 21m -->
      <g transform="translate(139.951603 303.028562)scale(0.1 -0.1)">
       <defs>
        <path d="M 1228 531 
L 3431 531 
L 3431 0 
L 469 0 
L 469 531 
Q 828 903 1448 1529 
Q 2069 2156 2228 2338 
Q 2531 2678 2651 2914 
Q 2772 3150 2772 3378 
Q 2772 3750 2511 3984 
Q 2250 4219 1831 4219 
Q 1534 4219 1204 4116 
Q 875 4013 500 3803 
L 500 4441 
Q 881 4594 1212 4672 
Q 1544 4750 1819 4750 
Q 2544 4750 2975 4387 
Q 3406 4025 3406 3419 
Q 3406 3131 3298 2873 
Q 3191 2616 2906 2266 
Q 2828 2175 2409 1742 
Q 1991 1309 1228 531 
z
" id="DejaVuSans-32" transform="scale(0.015625)"/>
       </defs>
       <use xlink:href="#DejaVuSans-32"/>
       <use x="63.623047" xlink:href="#DejaVuSans-31"/>
       <use x="127.246094" xlink:href="#DejaVuSans-6d"/>
      </g>
     </g>
    </g>
    <g id="xtick_3">
     <g id="line2d_3">
      <g>
       <use style="stroke:#000000;stroke-width:0.8;" x="210.212752" xlink:href="#me1042c687b" y="288.430125"/>
      </g>
     </g>
     <g id="text_3">
      <!-- 32m -->
      <g transform="translate(198.97994 303.028562)scale(0.1 -0.1)">
       <defs>
        <path d="M 2597 2516 
Q 3050 2419 3304 2112 
Q 3559 1806 3559 1356 
Q 3559 666 3084 287 
Q 2609 -91 1734 -91 
Q 1441 -91 1130 -33 
Q 819 25 488 141 
L 488 750 
Q 750 597 1062 519 
Q 1375 441 1716 441 
Q 2309 441 2620 675 
Q 2931 909 2931 1356 
Q 2931 1769 2642 2001 
Q 2353 2234 1838 2234 
L 1294 2234 
L 1294 2753 
L 1863 2753 
Q 2328 2753 2575 2939 
Q 2822 3125 2822 3475 
Q 2822 3834 2567 4026 
Q 2313 4219 1838 4219 
Q 1578 4219 1281 4162 
Q 984 4106 628 3988 
L 628 4550 
Q 988 4650 1302 4700 
Q 1616 4750 1894 4750 
Q 2613 4750 3031 4423 
Q 3450 4097 3450 3541 
Q 3450 3153 3228 2886 
Q 3006 2619 2597 2516 
z
" id="DejaVuSans-33" transform="scale(0.015625)"/>
       </defs>
       <use xlink:href="#DejaVuSans-33"/>
       <use x="63.623047" xlink:href="#DejaVuSans-32"/>
       <use x="127.246094" xlink:href="#DejaVuSans-6d"/>
      </g>
     </g>
    </g>
    <g id="xtick_4">
     <g id="line2d_4">
      <g>
       <use style="stroke:#000000;stroke-width:0.8;" x="269.241089" xlink:href="#me1042c687b" y="288.430125"/>
      </g>
     </g>
     <g id="text_4">
      <!-- 47m -->
      <g transform="translate(258.008276 303.028562)scale(0.1 -0.1)">
       <defs>
        <path d="M 525 4666 
L 3525 4666 
L 3525 4397 
L 1831 0 
L 1172 0 
L 2766 4134 
L 525 4134 
L 525 4666 
z
" id="DejaVuSans-37" transform="scale(0.015625)"/>
       </defs>
       <use xlink:href="#DejaVuSans-34"/>
       <use x="63.623047" xlink:href="#DejaVuSans-37"/>
       <use x="127.246094" xlink:href="#DejaVuSans-6d"/>
      </g>
     </g>
    </g>
    <g id="xtick_5">
     <g id="line2d_5">
      <g>
       <use style="stroke:#000000;stroke-width:0.8;" x="328.269425" xlink:href="#me1042c687b" y="288.430125"/>
      </g>
     </g>
     <g id="text_5">
      <!-- 1h:8m -->
      <g transform="translate(312.183487 303.028562)scale(0.1 -0.1)">
       <defs>
        <path d="M 3513 2113 
L 3513 0 
L 2938 0 
L 2938 2094 
Q 2938 2591 2744 2837 
Q 2550 3084 2163 3084 
Q 1697 3084 1428 2787 
Q 1159 2491 1159 1978 
L 1159 0 
L 581 0 
L 581 4863 
L 1159 4863 
L 1159 2956 
Q 1366 3272 1645 3428 
Q 1925 3584 2291 3584 
Q 2894 3584 3203 3211 
Q 3513 2838 3513 2113 
z
" id="DejaVuSans-68" transform="scale(0.015625)"/>
        <path d="M 750 794 
L 1409 794 
L 1409 0 
L 750 0 
L 750 794 
z
M 750 3309 
L 1409 3309 
L 1409 2516 
L 750 2516 
L 750 3309 
z
" id="DejaVuSans-3a" transform="scale(0.015625)"/>
        <path d="M 2034 2216 
Q 1584 2216 1326 1975 
Q 1069 1734 1069 1313 
Q 1069 891 1326 650 
Q 1584 409 2034 409 
Q 2484 409 2743 651 
Q 3003 894 3003 1313 
Q 3003 1734 2745 1975 
Q 2488 2216 2034 2216 
z
M 1403 2484 
Q 997 2584 770 2862 
Q 544 3141 544 3541 
Q 544 4100 942 4425 
Q 1341 4750 2034 4750 
Q 2731 4750 3128 4425 
Q 3525 4100 3525 3541 
Q 3525 3141 3298 2862 
Q 3072 2584 2669 2484 
Q 3125 2378 3379 2068 
Q 3634 1759 3634 1313 
Q 3634 634 3220 271 
Q 2806 -91 2034 -91 
Q 1263 -91 848 271 
Q 434 634 434 1313 
Q 434 1759 690 2068 
Q 947 2378 1403 2484 
z
M 1172 3481 
Q 1172 3119 1398 2916 
Q 1625 2713 2034 2713 
Q 2441 2713 2670 2916 
Q 2900 3119 2900 3481 
Q 2900 3844 2670 4047 
Q 2441 4250 2034 4250 
Q 1625 4250 1398 4047 
Q 1172 3844 1172 3481 
z
" id="DejaVuSans-38" transform="scale(0.015625)"/>
       </defs>
       <use xlink:href="#DejaVuSans-31"/>
       <use x="63.623047" xlink:href="#DejaVuSans-68"/>
       <use x="127.001953" xlink:href="#DejaVuSans-3a"/>
       <use x="160.693359" xlink:href="#DejaVuSans-38"/>
       <use x="224.316406" xlink:href="#DejaVuSans-6d"/>
      </g>
     </g>
    </g>
    <g id="xtick_6">
     <g id="line2d_6">
      <g>
       <use style="stroke:#000000;stroke-width:0.8;" x="387.297761" xlink:href="#me1042c687b" y="288.430125"/>
      </g>
     </g>
     <g id="text_6">
      <!-- 1h:40m -->
      <g transform="translate(368.030574 303.028562)scale(0.1 -0.1)">
       <defs>
        <path d="M 2034 4250 
Q 1547 4250 1301 3770 
Q 1056 3291 1056 2328 
Q 1056 1369 1301 889 
Q 1547 409 2034 409 
Q 2525 409 2770 889 
Q 3016 1369 3016 2328 
Q 3016 3291 2770 3770 
Q 2525 4250 2034 4250 
z
M 2034 4750 
Q 2819 4750 3233 4129 
Q 3647 3509 3647 2328 
Q 3647 1150 3233 529 
Q 2819 -91 2034 -91 
Q 1250 -91 836 529 
Q 422 1150 422 2328 
Q 422 3509 836 4129 
Q 1250 4750 2034 4750 
z
" id="DejaVuSans-30" transform="scale(0.015625)"/>
       </defs>
       <use xlink:href="#DejaVuSans-31"/>
       <use x="63.623047" xlink:href="#DejaVuSans-68"/>
       <use x="127.001953" xlink:href="#DejaVuSans-3a"/>
       <use x="160.693359" xlink:href="#DejaVuSans-34"/>
       <use x="224.316406" xlink:href="#DejaVuSans-30"/>
       <use x="287.939453" xlink:href="#DejaVuSans-6d"/>
      </g>
     </g>
    </g>
    <g id="xtick_7">
     <g id="line2d_7">
      <g>
       <use style="stroke:#000000;stroke-width:0.8;" x="446.326098" xlink:href="#me1042c687b" y="288.430125"/>
      </g>
     </g>
     <g id="text_7">
      <!-- 2h:27m -->
      <g transform="translate(427.05891 303.028562)scale(0.1 -0.1)">
       <use xlink:href="#DejaVuSans-32"/>
       <use x="63.623047" xlink:href="#DejaVuSans-68"/>
       <use x="127.001953" xlink:href="#DejaVuSans-3a"/>
       <use x="160.693359" xlink:href="#DejaVuSans-32"/>
       <use x="224.316406" xlink:href="#DejaVuSans-37"/>
       <use x="287.939453" xlink:href="#DejaVuSans-6d"/>
      </g>
     </g>
    </g>
    <g id="xtick_8">
     <g id="line2d_8">
      <g>
       <use style="stroke:#000000;stroke-width:0.8;" x="505.354434" xlink:href="#me1042c687b" y="288.430125"/>
      </g>
     </g>
     <g id="text_8">
      <!-- 3h:35m -->
      <g transform="translate(486.087247 303.028562)scale(0.1 -0.1)">
       <defs>
        <path d="M 691 4666 
L 3169 4666 
L 3169 4134 
L 1269 4134 
L 1269 2991 
Q 1406 3038 1543 3061 
Q 1681 3084 1819 3084 
Q 2600 3084 3056 2656 
Q 3513 2228 3513 1497 
Q 3513 744 3044 326 
Q 2575 -91 1722 -91 
Q 1428 -91 1123 -41 
Q 819 9 494 109 
L 494 744 
Q 775 591 1075 516 
Q 1375 441 1709 441 
Q 2250 441 2565 725 
Q 2881 1009 2881 1497 
Q 2881 1984 2565 2268 
Q 2250 2553 1709 2553 
Q 1456 2553 1204 2497 
Q 953 2441 691 2322 
L 691 4666 
z
" id="DejaVuSans-35" transform="scale(0.015625)"/>
       </defs>
       <use xlink:href="#DejaVuSans-33"/>
       <use x="63.623047" xlink:href="#DejaVuSans-68"/>
       <use x="127.001953" xlink:href="#DejaVuSans-3a"/>
       <use x="160.693359" xlink:href="#DejaVuSans-33"/>
       <use x="224.316406" xlink:href="#DejaVuSans-35"/>
       <use x="287.939453" xlink:href="#DejaVuSans-6d"/>
      </g>
     </g>
    </g>
    <g id="xtick_9">
     <g id="line2d_9">
      <g>
       <use style="stroke:#000000;stroke-width:0.8;" x="564.38277" xlink:href="#me1042c687b" y="288.430125"/>
      </g>
     </g>
     <g id="text_9">
      <!-- 5h:15m -->
      <g transform="translate(545.115583 303.028562)scale(0.1 -0.1)">
       <use xlink:href="#DejaVuSans-35"/>
       <use x="63.623047" xlink:href="#DejaVuSans-68"/>
       <use x="127.001953" xlink:href="#DejaVuSans-3a"/>
       <use x="160.693359" xlink:href="#DejaVuSans-31"/>
       <use x="224.316406" xlink:href="#DejaVuSans-35"/>
       <use x="287.939453" xlink:href="#DejaVuSans-6d"/>
      </g>
     </g>
    </g>
    <g id="xtick_10">
     <g id="line2d_10">
      <g>
       <use style="stroke:#000000;stroke-width:0.8;" x="623.411107" xlink:href="#me1042c687b" y="288.430125"/>
      </g>
     </g>
     <g id="text_10">
      <!-- 7h:42m -->
      <g transform="translate(604.143919 303.028562)scale(0.1 -0.1)">
       <use xlink:href="#DejaVuSans-37"/>
       <use x="63.623047" xlink:href="#DejaVuSans-68"/>
       <use x="127.001953" xlink:href="#DejaVuSans-3a"/>
       <use x="160.693359" xlink:href="#DejaVuSans-34"/>
       <use x="224.316406" xlink:href="#DejaVuSans-32"/>
       <use x="287.939453" xlink:href="#DejaVuSans-6d"/>
      </g>
     </g>
    </g>
    <g id="xtick_11">
     <g id="line2d_11">
      <g>
       <use style="stroke:#000000;stroke-width:0.8;" x="682.439443" xlink:href="#me1042c687b" y="288.430125"/>
      </g>
     </g>
     <g id="text_11">
      <!-- 11h:16m -->
      <g transform="translate(659.991006 303.028562)scale(0.1 -0.1)">
       <defs>
        <path d="M 2113 2584 
Q 1688 2584 1439 2293 
Q 1191 2003 1191 1497 
Q 1191 994 1439 701 
Q 1688 409 2113 409 
Q 2538 409 2786 701 
Q 3034 994 3034 1497 
Q 3034 2003 2786 2293 
Q 2538 2584 2113 2584 
z
M 3366 4563 
L 3366 3988 
Q 3128 4100 2886 4159 
Q 2644 4219 2406 4219 
Q 1781 4219 1451 3797 
Q 1122 3375 1075 2522 
Q 1259 2794 1537 2939 
Q 1816 3084 2150 3084 
Q 2853 3084 3261 2657 
Q 3669 2231 3669 1497 
Q 3669 778 3244 343 
Q 2819 -91 2113 -91 
Q 1303 -91 875 529 
Q 447 1150 447 2328 
Q 447 3434 972 4092 
Q 1497 4750 2381 4750 
Q 2619 4750 2861 4703 
Q 3103 4656 3366 4563 
z
" id="DejaVuSans-36" transform="scale(0.015625)"/>
       </defs>
       <use xlink:href="#DejaVuSans-31"/>
       <use x="63.623047" xlink:href="#DejaVuSans-31"/>
       <use x="127.246094" xlink:href="#DejaVuSans-68"/>
       <use x="190.625" xlink:href="#DejaVuSans-3a"/>
       <use x="224.316406" xlink:href="#DejaVuSans-31"/>
       <use x="287.939453" xlink:href="#DejaVuSans-36"/>
       <use x="351.5625" xlink:href="#DejaVuSans-6d"/>
      </g>
     </g>
    </g>
    <g id="xtick_12">
     <g id="line2d_12">
      <g>
       <use style="stroke:#000000;stroke-width:0.8;" x="741.46778" xlink:href="#me1042c687b" y="288.430125"/>
      </g>
     </g>
     <g id="text_12">
      <!-- 16h:30m -->
      <g transform="translate(719.019342 303.028562)scale(0.1 -0.1)">
       <use xlink:href="#DejaVuSans-31"/>
       <use x="63.623047" xlink:href="#DejaVuSans-36"/>
       <use x="127.246094" xlink:href="#DejaVuSans-68"/>
       <use x="190.625" xlink:href="#DejaVuSans-3a"/>
       <use x="224.316406" xlink:href="#DejaVuSans-33"/>
       <use x="287.939453" xlink:href="#DejaVuSans-30"/>
       <use x="351.5625" xlink:href="#DejaVuSans-6d"/>
      </g>
     </g>
    </g>
    <g id="xtick_13">
     <g id="line2d_13">
      <defs>
       <path d="M 0 0 
L 0 2 
" id="m8a475bb4da" style="stroke:#000000;stroke-width:0.6;"/>
      </defs>
      <g>
       <use style="stroke:#000000;stroke-width:0.6;" x="73.902166" xlink:href="#m8a475bb4da" y="288.430125"/>
      </g>
     </g>
    </g>
    <g id="xtick_14">
     <g id="line2d_14">
      <g>
       <use style="stroke:#000000;stroke-width:0.6;" x="215.908116" xlink:href="#m8a475bb4da" y="288.430125"/>
      </g>
     </g>
    </g>
    <g id="xtick_15">
     <g id="line2d_15">
      <g>
       <use style="stroke:#000000;stroke-width:0.6;" x="278.74675" xlink:href="#m8a475bb4da" y="288.430125"/>
      </g>
     </g>
    </g>
    <g id="xtick_16">
     <g id="line2d_16">
      <g>
       <use style="stroke:#000000;stroke-width:0.6;" x="323.33147" xlink:href="#m8a475bb4da" y="288.430125"/>
      </g>
     </g>
    </g>
    <g id="xtick_17">
     <g id="line2d_17">
      <g>
       <use style="stroke:#000000;stroke-width:0.6;" x="357.914066" xlink:href="#m8a475bb4da" y="288.430125"/>
      </g>
     </g>
    </g>
    <g id="xtick_18">
     <g id="line2d_18">
      <g>
       <use style="stroke:#000000;stroke-width:0.6;" x="386.170104" xlink:href="#m8a475bb4da" y="288.430125"/>
      </g>
     </g>
    </g>
    <g id="xtick_19">
     <g id="line2d_19">
      <g>
       <use style="stroke:#000000;stroke-width:0.6;" x="410.060244" xlink:href="#m8a475bb4da" y="288.430125"/>
      </g>
     </g>
    </g>
    <g id="xtick_20">
     <g id="line2d_20">
      <g>
       <use style="stroke:#000000;stroke-width:0.6;" x="430.754825" xlink:href="#m8a475bb4da" y="288.430125"/>
      </g>
     </g>
    </g>
    <g id="xtick_21">
     <g id="line2d_21">
      <g>
       <use style="stroke:#000000;stroke-width:0.6;" x="449.008738" xlink:href="#m8a475bb4da" y="288.430125"/>
      </g>
     </g>
    </g>
    <g id="xtick_22">
     <g id="line2d_22">
      <g>
       <use style="stroke:#000000;stroke-width:0.6;" x="572.760775" xlink:href="#m8a475bb4da" y="288.430125"/>
      </g>
     </g>
    </g>
    <g id="xtick_23">
     <g id="line2d_23">
      <g>
       <use style="stroke:#000000;stroke-width:0.6;" x="635.599409" xlink:href="#m8a475bb4da" y="288.430125"/>
      </g>
     </g>
    </g>
    <g id="xtick_24">
     <g id="line2d_24">
      <g>
       <use style="stroke:#000000;stroke-width:0.6;" x="680.184129" xlink:href="#m8a475bb4da" y="288.430125"/>
      </g>
     </g>
    </g>
    <g id="xtick_25">
     <g id="line2d_25">
      <g>
       <use style="stroke:#000000;stroke-width:0.6;" x="714.766725" xlink:href="#m8a475bb4da" y="288.430125"/>
      </g>
     </g>
    </g>
    <g id="xtick_26">
     <g id="line2d_26">
      <g>
       <use style="stroke:#000000;stroke-width:0.6;" x="743.022763" xlink:href="#m8a475bb4da" y="288.430125"/>
      </g>
     </g>
    </g>
    <g id="xtick_27">
     <g id="line2d_27">
      <g>
       <use style="stroke:#000000;stroke-width:0.6;" x="766.912903" xlink:href="#m8a475bb4da" y="288.430125"/>
      </g>
     </g>
    </g>
    <g id="text_13">
     <!-- Time (hour:minute) -->
     <g transform="translate(368.403594 316.706687)scale(0.1 -0.1)">
      <defs>
       <path d="M -19 4666 
L 3928 4666 
L 3928 4134 
L 2272 4134 
L 2272 0 
L 1638 0 
L 1638 4134 
L -19 4134 
L -19 4666 
z
" id="DejaVuSans-54" transform="scale(0.015625)"/>
       <path d="M 603 3500 
L 1178 3500 
L 1178 0 
L 603 0 
L 603 3500 
z
M 603 4863 
L 1178 4863 
L 1178 4134 
L 603 4134 
L 603 4863 
z
" id="DejaVuSans-69" transform="scale(0.015625)"/>
       <path d="M 3597 1894 
L 3597 1613 
L 953 1613 
Q 991 1019 1311 708 
Q 1631 397 2203 397 
Q 2534 397 2845 478 
Q 3156 559 3463 722 
L 3463 178 
Q 3153 47 2828 -22 
Q 2503 -91 2169 -91 
Q 1331 -91 842 396 
Q 353 884 353 1716 
Q 353 2575 817 3079 
Q 1281 3584 2069 3584 
Q 2775 3584 3186 3129 
Q 3597 2675 3597 1894 
z
M 3022 2063 
Q 3016 2534 2758 2815 
Q 2500 3097 2075 3097 
Q 1594 3097 1305 2825 
Q 1016 2553 972 2059 
L 3022 2063 
z
" id="DejaVuSans-65" transform="scale(0.015625)"/>
       <path id="DejaVuSans-20" transform="scale(0.015625)"/>
       <path d="M 1984 4856 
Q 1566 4138 1362 3434 
Q 1159 2731 1159 2009 
Q 1159 1288 1364 580 
Q 1569 -128 1984 -844 
L 1484 -844 
Q 1016 -109 783 600 
Q 550 1309 550 2009 
Q 550 2706 781 3412 
Q 1013 4119 1484 4856 
L 1984 4856 
z
" id="DejaVuSans-28" transform="scale(0.015625)"/>
       <path d="M 1959 3097 
Q 1497 3097 1228 2736 
Q 959 2375 959 1747 
Q 959 1119 1226 758 
Q 1494 397 1959 397 
Q 2419 397 2687 759 
Q 2956 1122 2956 1747 
Q 2956 2369 2687 2733 
Q 2419 3097 1959 3097 
z
M 1959 3584 
Q 2709 3584 3137 3096 
Q 3566 2609 3566 1747 
Q 3566 888 3137 398 
Q 2709 -91 1959 -91 
Q 1206 -91 779 398 
Q 353 888 353 1747 
Q 353 2609 779 3096 
Q 1206 3584 1959 3584 
z
" id="DejaVuSans-6f" transform="scale(0.015625)"/>
       <path d="M 544 1381 
L 544 3500 
L 1119 3500 
L 1119 1403 
Q 1119 906 1312 657 
Q 1506 409 1894 409 
Q 2359 409 2629 706 
Q 2900 1003 2900 1516 
L 2900 3500 
L 3475 3500 
L 3475 0 
L 2900 0 
L 2900 538 
Q 2691 219 2414 64 
Q 2138 -91 1772 -91 
Q 1169 -91 856 284 
Q 544 659 544 1381 
z
M 1991 3584 
L 1991 3584 
z
" id="DejaVuSans-75" transform="scale(0.015625)"/>
       <path d="M 2631 2963 
Q 2534 3019 2420 3045 
Q 2306 3072 2169 3072 
Q 1681 3072 1420 2755 
Q 1159 2438 1159 1844 
L 1159 0 
L 581 0 
L 581 3500 
L 1159 3500 
L 1159 2956 
Q 1341 3275 1631 3429 
Q 1922 3584 2338 3584 
Q 2397 3584 2469 3576 
Q 2541 3569 2628 3553 
L 2631 2963 
z
" id="DejaVuSans-72" transform="scale(0.015625)"/>
       <path d="M 3513 2113 
L 3513 0 
L 2938 0 
L 2938 2094 
Q 2938 2591 2744 2837 
Q 2550 3084 2163 3084 
Q 1697 3084 1428 2787 
Q 1159 2491 1159 1978 
L 1159 0 
L 581 0 
L 581 3500 
L 1159 3500 
L 1159 2956 
Q 1366 3272 1645 3428 
Q 1925 3584 2291 3584 
Q 2894 3584 3203 3211 
Q 3513 2838 3513 2113 
z
" id="DejaVuSans-6e" transform="scale(0.015625)"/>
       <path d="M 1172 4494 
L 1172 3500 
L 2356 3500 
L 2356 3053 
L 1172 3053 
L 1172 1153 
Q 1172 725 1289 603 
Q 1406 481 1766 481 
L 2356 481 
L 2356 0 
L 1766 0 
Q 1100 0 847 248 
Q 594 497 594 1153 
L 594 3053 
L 172 3053 
L 172 3500 
L 594 3500 
L 594 4494 
L 1172 4494 
z
" id="DejaVuSans-74" transform="scale(0.015625)"/>
       <path d="M 513 4856 
L 1013 4856 
Q 1481 4119 1714 3412 
Q 1947 2706 1947 2009 
Q 1947 1309 1714 600 
Q 1481 -109 1013 -844 
L 513 -844 
Q 928 -128 1133 580 
Q 1338 1288 1338 2009 
Q 1338 2731 1133 3434 
Q 928 4138 513 4856 
z
" id="DejaVuSans-29" transform="scale(0.015625)"/>
      </defs>
      <use xlink:href="#DejaVuSans-54"/>
      <use x="57.958984" xlink:href="#DejaVuSans-69"/>
      <use x="85.742188" xlink:href="#DejaVuSans-6d"/>
      <use x="183.154297" xlink:href="#DejaVuSans-65"/>
      <use x="244.677734" xlink:href="#DejaVuSans-20"/>
      <use x="276.464844" xlink:href="#DejaVuSans-28"/>
      <use x="315.478516" xlink:href="#DejaVuSans-68"/>
      <use x="378.857422" xlink:href="#DejaVuSans-6f"/>
      <use x="440.039062" xlink:href="#DejaVuSans-75"/>
      <use x="503.417969" xlink:href="#DejaVuSans-72"/>
      <use x="542.78125" xlink:href="#DejaVuSans-3a"/>
      <use x="576.472656" xlink:href="#DejaVuSans-6d"/>
      <use x="673.884766" xlink:href="#DejaVuSans-69"/>
      <use x="701.667969" xlink:href="#DejaVuSans-6e"/>
      <use x="765.046875" xlink:href="#DejaVuSans-75"/>
      <use x="828.425781" xlink:href="#DejaVuSans-74"/>
      <use x="867.634766" xlink:href="#DejaVuSans-65"/>
      <use x="929.158203" xlink:href="#DejaVuSans-29"/>
     </g>
    </g>
   </g>
   <g id="matplotlib.axis_2">
    <g id="ytick_1">
     <g id="line2d_28">
      <defs>
       <path d="M 0 0 
L -3.5 0 
" id="m7185df7625" style="stroke:#000000;stroke-width:0.8;"/>
      </defs>
      <g>
       <use style="stroke:#000000;stroke-width:0.8;" x="59.690625" xlink:href="#m7185df7625" y="284.747572"/>
      </g>
     </g>
     <g id="text_14">
      <!-- 14000 -->
      <g transform="translate(20.878125 288.546791)scale(0.1 -0.1)">
       <use xlink:href="#DejaVuSans-31"/>
       <use x="63.623047" xlink:href="#DejaVuSans-34"/>
       <use x="127.246094" xlink:href="#DejaVuSans-30"/>
       <use x="190.869141" xlink:href="#DejaVuSans-30"/>
       <use x="254.492188" xlink:href="#DejaVuSans-30"/>
      </g>
     </g>
    </g>
    <g id="ytick_2">
     <g id="line2d_29">
      <g>
       <use style="stroke:#000000;stroke-width:0.8;" x="59.690625" xlink:href="#m7185df7625" y="251.360876"/>
      </g>
     </g>
     <g id="text_15">
      <!-- 14500 -->
      <g transform="translate(20.878125 255.160095)scale(0.1 -0.1)">
       <use xlink:href="#DejaVuSans-31"/>
       <use x="63.623047" xlink:href="#DejaVuSans-34"/>
       <use x="127.246094" xlink:href="#DejaVuSans-35"/>
       <use x="190.869141" xlink:href="#DejaVuSans-30"/>
       <use x="254.492188" xlink:href="#DejaVuSans-30"/>
      </g>
     </g>
    </g>
    <g id="ytick_3">
     <g id="line2d_30">
      <g>
       <use style="stroke:#000000;stroke-width:0.8;" x="59.690625" xlink:href="#m7185df7625" y="217.97418"/>
      </g>
     </g>
     <g id="text_16">
      <!-- 15000 -->
      <g transform="translate(20.878125 221.773399)scale(0.1 -0.1)">
       <use xlink:href="#DejaVuSans-31"/>
       <use x="63.623047" xlink:href="#DejaVuSans-35"/>
       <use x="127.246094" xlink:href="#DejaVuSans-30"/>
       <use x="190.869141" xlink:href="#DejaVuSans-30"/>
       <use x="254.492188" xlink:href="#DejaVuSans-30"/>
      </g>
     </g>
    </g>
    <g id="ytick_4">
     <g id="line2d_31">
      <g>
       <use style="stroke:#000000;stroke-width:0.8;" x="59.690625" xlink:href="#m7185df7625" y="184.587484"/>
      </g>
     </g>
     <g id="text_17">
      <!-- 15500 -->
      <g transform="translate(20.878125 188.386703)scale(0.1 -0.1)">
       <use xlink:href="#DejaVuSans-31"/>
       <use x="63.623047" xlink:href="#DejaVuSans-35"/>
       <use x="127.246094" xlink:href="#DejaVuSans-35"/>
       <use x="190.869141" xlink:href="#DejaVuSans-30"/>
       <use x="254.492188" xlink:href="#DejaVuSans-30"/>
      </g>
     </g>
    </g>
    <g id="ytick_5">
     <g id="line2d_32">
      <g>
       <use style="stroke:#000000;stroke-width:0.8;" x="59.690625" xlink:href="#m7185df7625" y="151.200788"/>
      </g>
     </g>
     <g id="text_18">
      <!-- 16000 -->
      <g transform="translate(20.878125 155.000007)scale(0.1 -0.1)">
       <use xlink:href="#DejaVuSans-31"/>
       <use x="63.623047" xlink:href="#DejaVuSans-36"/>
       <use x="127.246094" xlink:href="#DejaVuSans-30"/>
       <use x="190.869141" xlink:href="#DejaVuSans-30"/>
       <use x="254.492188" xlink:href="#DejaVuSans-30"/>
      </g>
     </g>
    </g>
    <g id="ytick_6">
     <g id="line2d_33">
      <g>
       <use style="stroke:#000000;stroke-width:0.8;" x="59.690625" xlink:href="#m7185df7625" y="117.814092"/>
      </g>
     </g>
     <g id="text_19">
      <!-- 16500 -->
      <g transform="translate(20.878125 121.613311)scale(0.1 -0.1)">
       <use xlink:href="#DejaVuSans-31"/>
       <use x="63.623047" xlink:href="#DejaVuSans-36"/>
       <use x="127.246094" xlink:href="#DejaVuSans-35"/>
       <use x="190.869141" xlink:href="#DejaVuSans-30"/>
       <use x="254.492188" xlink:href="#DejaVuSans-30"/>
      </g>
     </g>
    </g>
    <g id="ytick_7">
     <g id="line2d_34">
      <g>
       <use style="stroke:#000000;stroke-width:0.8;" x="59.690625" xlink:href="#m7185df7625" y="84.427396"/>
      </g>
     </g>
     <g id="text_20">
      <!-- 17000 -->
      <g transform="translate(20.878125 88.226615)scale(0.1 -0.1)">
       <use xlink:href="#DejaVuSans-31"/>
       <use x="63.623047" xlink:href="#DejaVuSans-37"/>
       <use x="127.246094" xlink:href="#DejaVuSans-30"/>
       <use x="190.869141" xlink:href="#DejaVuSans-30"/>
       <use x="254.492188" xlink:href="#DejaVuSans-30"/>
      </g>
     </g>
    </g>
    <g id="ytick_8">
     <g id="line2d_35">
      <g>
       <use style="stroke:#000000;stroke-width:0.8;" x="59.690625" xlink:href="#m7185df7625" y="51.0407"/>
      </g>
     </g>
     <g id="text_21">
      <!-- 17500 -->
      <g transform="translate(20.878125 54.839918)scale(0.1 -0.1)">
       <use xlink:href="#DejaVuSans-31"/>
       <use x="63.623047" xlink:href="#DejaVuSans-37"/>
       <use x="127.246094" xlink:href="#DejaVuSans-35"/>
       <use x="190.869141" xlink:href="#DejaVuSans-30"/>
       <use x="254.492188" xlink:href="#DejaVuSans-30"/>
      </g>
     </g>
    </g>
    <g id="text_22">
     <!-- Code branch coverage -->
     <g transform="translate(14.798438 211.949125)rotate(-90)scale(0.1 -0.1)">
      <defs>
       <path d="M 4122 4306 
L 4122 3641 
Q 3803 3938 3442 4084 
Q 3081 4231 2675 4231 
Q 1875 4231 1450 3742 
Q 1025 3253 1025 2328 
Q 1025 1406 1450 917 
Q 1875 428 2675 428 
Q 3081 428 3442 575 
Q 3803 722 4122 1019 
L 4122 359 
Q 3791 134 3420 21 
Q 3050 -91 2638 -91 
Q 1578 -91 968 557 
Q 359 1206 359 2328 
Q 359 3453 968 4101 
Q 1578 4750 2638 4750 
Q 3056 4750 3426 4639 
Q 3797 4528 4122 4306 
z
" id="DejaVuSans-43" transform="scale(0.015625)"/>
       <path d="M 2906 2969 
L 2906 4863 
L 3481 4863 
L 3481 0 
L 2906 0 
L 2906 525 
Q 2725 213 2448 61 
Q 2172 -91 1784 -91 
Q 1150 -91 751 415 
Q 353 922 353 1747 
Q 353 2572 751 3078 
Q 1150 3584 1784 3584 
Q 2172 3584 2448 3432 
Q 2725 3281 2906 2969 
z
M 947 1747 
Q 947 1113 1208 752 
Q 1469 391 1925 391 
Q 2381 391 2643 752 
Q 2906 1113 2906 1747 
Q 2906 2381 2643 2742 
Q 2381 3103 1925 3103 
Q 1469 3103 1208 2742 
Q 947 2381 947 1747 
z
" id="DejaVuSans-64" transform="scale(0.015625)"/>
       <path d="M 3116 1747 
Q 3116 2381 2855 2742 
Q 2594 3103 2138 3103 
Q 1681 3103 1420 2742 
Q 1159 2381 1159 1747 
Q 1159 1113 1420 752 
Q 1681 391 2138 391 
Q 2594 391 2855 752 
Q 3116 1113 3116 1747 
z
M 1159 2969 
Q 1341 3281 1617 3432 
Q 1894 3584 2278 3584 
Q 2916 3584 3314 3078 
Q 3713 2572 3713 1747 
Q 3713 922 3314 415 
Q 2916 -91 2278 -91 
Q 1894 -91 1617 61 
Q 1341 213 1159 525 
L 1159 0 
L 581 0 
L 581 4863 
L 1159 4863 
L 1159 2969 
z
" id="DejaVuSans-62" transform="scale(0.015625)"/>
       <path d="M 2194 1759 
Q 1497 1759 1228 1600 
Q 959 1441 959 1056 
Q 959 750 1161 570 
Q 1363 391 1709 391 
Q 2188 391 2477 730 
Q 2766 1069 2766 1631 
L 2766 1759 
L 2194 1759 
z
M 3341 1997 
L 3341 0 
L 2766 0 
L 2766 531 
Q 2569 213 2275 61 
Q 1981 -91 1556 -91 
Q 1019 -91 701 211 
Q 384 513 384 1019 
Q 384 1609 779 1909 
Q 1175 2209 1959 2209 
L 2766 2209 
L 2766 2266 
Q 2766 2663 2505 2880 
Q 2244 3097 1772 3097 
Q 1472 3097 1187 3025 
Q 903 2953 641 2809 
L 641 3341 
Q 956 3463 1253 3523 
Q 1550 3584 1831 3584 
Q 2591 3584 2966 3190 
Q 3341 2797 3341 1997 
z
" id="DejaVuSans-61" transform="scale(0.015625)"/>
       <path d="M 3122 3366 
L 3122 2828 
Q 2878 2963 2633 3030 
Q 2388 3097 2138 3097 
Q 1578 3097 1268 2742 
Q 959 2388 959 1747 
Q 959 1106 1268 751 
Q 1578 397 2138 397 
Q 2388 397 2633 464 
Q 2878 531 3122 666 
L 3122 134 
Q 2881 22 2623 -34 
Q 2366 -91 2075 -91 
Q 1284 -91 818 406 
Q 353 903 353 1747 
Q 353 2603 823 3093 
Q 1294 3584 2113 3584 
Q 2378 3584 2631 3529 
Q 2884 3475 3122 3366 
z
" id="DejaVuSans-63" transform="scale(0.015625)"/>
       <path d="M 191 3500 
L 800 3500 
L 1894 563 
L 2988 3500 
L 3597 3500 
L 2284 0 
L 1503 0 
L 191 3500 
z
" id="DejaVuSans-76" transform="scale(0.015625)"/>
       <path d="M 2906 1791 
Q 2906 2416 2648 2759 
Q 2391 3103 1925 3103 
Q 1463 3103 1205 2759 
Q 947 2416 947 1791 
Q 947 1169 1205 825 
Q 1463 481 1925 481 
Q 2391 481 2648 825 
Q 2906 1169 2906 1791 
z
M 3481 434 
Q 3481 -459 3084 -895 
Q 2688 -1331 1869 -1331 
Q 1566 -1331 1297 -1286 
Q 1028 -1241 775 -1147 
L 775 -588 
Q 1028 -725 1275 -790 
Q 1522 -856 1778 -856 
Q 2344 -856 2625 -561 
Q 2906 -266 2906 331 
L 2906 616 
Q 2728 306 2450 153 
Q 2172 0 1784 0 
Q 1141 0 747 490 
Q 353 981 353 1791 
Q 353 2603 747 3093 
Q 1141 3584 1784 3584 
Q 2172 3584 2450 3431 
Q 2728 3278 2906 2969 
L 2906 3500 
L 3481 3500 
L 3481 434 
z
" id="DejaVuSans-67" transform="scale(0.015625)"/>
      </defs>
      <use xlink:href="#DejaVuSans-43"/>
      <use x="69.824219" xlink:href="#DejaVuSans-6f"/>
      <use x="131.005859" xlink:href="#DejaVuSans-64"/>
      <use x="194.482422" xlink:href="#DejaVuSans-65"/>
      <use x="256.005859" xlink:href="#DejaVuSans-20"/>
      <use x="287.792969" xlink:href="#DejaVuSans-62"/>
      <use x="351.269531" xlink:href="#DejaVuSans-72"/>
      <use x="392.382812" xlink:href="#DejaVuSans-61"/>
      <use x="453.662109" xlink:href="#DejaVuSans-6e"/>
      <use x="517.041016" xlink:href="#DejaVuSans-63"/>
      <use x="572.021484" xlink:href="#DejaVuSans-68"/>
      <use x="635.400391" xlink:href="#DejaVuSans-20"/>
      <use x="667.1875" xlink:href="#DejaVuSans-63"/>
      <use x="722.167969" xlink:href="#DejaVuSans-6f"/>
      <use x="783.349609" xlink:href="#DejaVuSans-76"/>
      <use x="842.529297" xlink:href="#DejaVuSans-65"/>
      <use x="904.052734" xlink:href="#DejaVuSans-72"/>
      <use x="945.166016" xlink:href="#DejaVuSans-61"/>
      <use x="1006.445312" xlink:href="#DejaVuSans-67"/>
      <use x="1069.921875" xlink:href="#DejaVuSans-65"/>
     </g>
    </g>
   </g>
   <g id="line2d_36">
    <path clip-path="url(#p75da8889f2)" d="M 92.15608 276.067031 
L 199.579434 275.666391 
L 262.418068 275.198977 
L 307.002788 273.796736 
L 341.585384 273.195776 
L 369.841422 272.594815 
L 393.731562 272.260948 
L 414.426142 267.586811 
L 432.680056 266.852303 
L 449.008738 266.718757 
L 463.779828 266.184569 
L 477.264776 264.381688 
L 489.669726 264.314914 
L 501.154916 262.779126 
L 511.847372 261.310112 
L 521.849497 260.775925 
L 531.245048 259.50723 
L 540.10341 258.772723 
L 548.482702 255.96824 
L 556.432092 252.963438 
L 563.99355 242.813882 
L 571.203182 242.012601 
L 578.092278 238.874252 
L 584.688131 231.195312 
L 591.014688 227.723095 
L 597.093081 223.249278 
L 602.942044 221.646717 
L 608.578271 216.104525 
L 614.016693 212.966176 
L 619.270726 211.897802 
L 624.352465 210.29524 
L 629.272851 206.15529 
L 634.041816 201.347606 
L 638.668403 199.678271 
L 643.160866 191.79901 
L 647.526765 191.264823 
L 651.773034 189.862582 
L 655.906056 184.12007 
L 659.931715 180.914948 
L 663.855447 169.029284 
L 667.682287 160.949703 
L 671.416904 155.541058 
L 675.063641 151.801749 
L 678.626536 145.92569 
L 682.10936 128.297514 
L 685.515632 126.361086 
L 688.848646 121.085988 
L 692.111485 115.61057 
L 695.307044 113.073181 
L 698.438043 111.47062 
L 701.507037 107.263896 
L 704.516435 100.786877 
L 707.468508 95.445005 
L 710.365399 92.173109 
L 713.209132 90.103134 
L 716.001625 85.562543 
L 718.74469 84.093529 
L 721.440047 80.955179 
L 724.089328 75.012347 
L 726.694081 67.867595 
L 729.255778 66.331806 
L 731.775819 65.330206 
L 734.255538 59.721241 
L 736.696205 53.110675 
L 739.099031 50.573286 
L 741.46517 49.738619 
" style="fill:none;stroke:#1f77b4;stroke-linecap:square;stroke-width:1.5;"/>
    <defs>
     <path d="M 0 3 
C 0.795609 3 1.55874 2.683901 2.12132 2.12132 
C 2.683901 1.55874 3 0.795609 3 0 
C 3 -0.795609 2.683901 -1.55874 2.12132 -2.12132 
C 1.55874 -2.683901 0.795609 -3 0 -3 
C -0.795609 -3 -1.55874 -2.683901 -2.12132 -2.12132 
C -2.683901 -1.55874 -3 -0.795609 -3 0 
C -3 0.795609 -2.683901 1.55874 -2.12132 2.12132 
C -1.55874 2.683901 -0.795609 3 0 3 
z
" id="mcb3a424cba" style="stroke:#ffffff;stroke-width:0.75;"/>
    </defs>
    <g clip-path="url(#p75da8889f2)">
     <use style="fill:#1f77b4;stroke:#ffffff;stroke-width:0.75;" x="92.15608" xlink:href="#mcb3a424cba" y="276.067031"/>
     <use style="fill:#1f77b4;stroke:#ffffff;stroke-width:0.75;" x="199.579434" xlink:href="#mcb3a424cba" y="275.666391"/>
     <use style="fill:#1f77b4;stroke:#ffffff;stroke-width:0.75;" x="262.418068" xlink:href="#mcb3a424cba" y="275.198977"/>
     <use style="fill:#1f77b4;stroke:#ffffff;stroke-width:0.75;" x="307.002788" xlink:href="#mcb3a424cba" y="273.796736"/>
     <use style="fill:#1f77b4;stroke:#ffffff;stroke-width:0.75;" x="341.585384" xlink:href="#mcb3a424cba" y="273.195776"/>
     <use style="fill:#1f77b4;stroke:#ffffff;stroke-width:0.75;" x="369.841422" xlink:href="#mcb3a424cba" y="272.594815"/>
     <use style="fill:#1f77b4;stroke:#ffffff;stroke-width:0.75;" x="393.731562" xlink:href="#mcb3a424cba" y="272.260948"/>
     <use style="fill:#1f77b4;stroke:#ffffff;stroke-width:0.75;" x="414.426142" xlink:href="#mcb3a424cba" y="267.586811"/>
     <use style="fill:#1f77b4;stroke:#ffffff;stroke-width:0.75;" x="432.680056" xlink:href="#mcb3a424cba" y="266.852303"/>
     <use style="fill:#1f77b4;stroke:#ffffff;stroke-width:0.75;" x="449.008738" xlink:href="#mcb3a424cba" y="266.718757"/>
     <use style="fill:#1f77b4;stroke:#ffffff;stroke-width:0.75;" x="463.779828" xlink:href="#mcb3a424cba" y="266.184569"/>
     <use style="fill:#1f77b4;stroke:#ffffff;stroke-width:0.75;" x="477.264776" xlink:href="#mcb3a424cba" y="264.381688"/>
     <use style="fill:#1f77b4;stroke:#ffffff;stroke-width:0.75;" x="489.669726" xlink:href="#mcb3a424cba" y="264.314914"/>
     <use style="fill:#1f77b4;stroke:#ffffff;stroke-width:0.75;" x="501.154916" xlink:href="#mcb3a424cba" y="262.779126"/>
     <use style="fill:#1f77b4;stroke:#ffffff;stroke-width:0.75;" x="511.847372" xlink:href="#mcb3a424cba" y="261.310112"/>
     <use style="fill:#1f77b4;stroke:#ffffff;stroke-width:0.75;" x="521.849497" xlink:href="#mcb3a424cba" y="260.775925"/>
     <use style="fill:#1f77b4;stroke:#ffffff;stroke-width:0.75;" x="531.245048" xlink:href="#mcb3a424cba" y="259.50723"/>
     <use style="fill:#1f77b4;stroke:#ffffff;stroke-width:0.75;" x="540.10341" xlink:href="#mcb3a424cba" y="258.772723"/>
     <use style="fill:#1f77b4;stroke:#ffffff;stroke-width:0.75;" x="548.482702" xlink:href="#mcb3a424cba" y="255.96824"/>
     <use style="fill:#1f77b4;stroke:#ffffff;stroke-width:0.75;" x="556.432092" xlink:href="#mcb3a424cba" y="252.963438"/>
     <use style="fill:#1f77b4;stroke:#ffffff;stroke-width:0.75;" x="563.99355" xlink:href="#mcb3a424cba" y="242.813882"/>
     <use style="fill:#1f77b4;stroke:#ffffff;stroke-width:0.75;" x="571.203182" xlink:href="#mcb3a424cba" y="242.012601"/>
     <use style="fill:#1f77b4;stroke:#ffffff;stroke-width:0.75;" x="578.092278" xlink:href="#mcb3a424cba" y="238.874252"/>
     <use style="fill:#1f77b4;stroke:#ffffff;stroke-width:0.75;" x="584.688131" xlink:href="#mcb3a424cba" y="231.195312"/>
     <use style="fill:#1f77b4;stroke:#ffffff;stroke-width:0.75;" x="591.014688" xlink:href="#mcb3a424cba" y="227.723095"/>
     <use style="fill:#1f77b4;stroke:#ffffff;stroke-width:0.75;" x="597.093081" xlink:href="#mcb3a424cba" y="223.249278"/>
     <use style="fill:#1f77b4;stroke:#ffffff;stroke-width:0.75;" x="602.942044" xlink:href="#mcb3a424cba" y="221.646717"/>
     <use style="fill:#1f77b4;stroke:#ffffff;stroke-width:0.75;" x="608.578271" xlink:href="#mcb3a424cba" y="216.104525"/>
     <use style="fill:#1f77b4;stroke:#ffffff;stroke-width:0.75;" x="614.016693" xlink:href="#mcb3a424cba" y="212.966176"/>
     <use style="fill:#1f77b4;stroke:#ffffff;stroke-width:0.75;" x="619.270726" xlink:href="#mcb3a424cba" y="211.897802"/>
     <use style="fill:#1f77b4;stroke:#ffffff;stroke-width:0.75;" x="624.352465" xlink:href="#mcb3a424cba" y="210.29524"/>
     <use style="fill:#1f77b4;stroke:#ffffff;stroke-width:0.75;" x="629.272851" xlink:href="#mcb3a424cba" y="206.15529"/>
     <use style="fill:#1f77b4;stroke:#ffffff;stroke-width:0.75;" x="634.041816" xlink:href="#mcb3a424cba" y="201.347606"/>
     <use style="fill:#1f77b4;stroke:#ffffff;stroke-width:0.75;" x="638.668403" xlink:href="#mcb3a424cba" y="199.678271"/>
     <use style="fill:#1f77b4;stroke:#ffffff;stroke-width:0.75;" x="643.160866" xlink:href="#mcb3a424cba" y="191.79901"/>
     <use style="fill:#1f77b4;stroke:#ffffff;stroke-width:0.75;" x="647.526765" xlink:href="#mcb3a424cba" y="191.264823"/>
     <use style="fill:#1f77b4;stroke:#ffffff;stroke-width:0.75;" x="651.773034" xlink:href="#mcb3a424cba" y="189.862582"/>
     <use style="fill:#1f77b4;stroke:#ffffff;stroke-width:0.75;" x="655.906056" xlink:href="#mcb3a424cba" y="184.12007"/>
     <use style="fill:#1f77b4;stroke:#ffffff;stroke-width:0.75;" x="659.931715" xlink:href="#mcb3a424cba" y="180.914948"/>
     <use style="fill:#1f77b4;stroke:#ffffff;stroke-width:0.75;" x="663.855447" xlink:href="#mcb3a424cba" y="169.029284"/>
     <use style="fill:#1f77b4;stroke:#ffffff;stroke-width:0.75;" x="667.682287" xlink:href="#mcb3a424cba" y="160.949703"/>
     <use style="fill:#1f77b4;stroke:#ffffff;stroke-width:0.75;" x="671.416904" xlink:href="#mcb3a424cba" y="155.541058"/>
     <use style="fill:#1f77b4;stroke:#ffffff;stroke-width:0.75;" x="675.063641" xlink:href="#mcb3a424cba" y="151.801749"/>
     <use style="fill:#1f77b4;stroke:#ffffff;stroke-width:0.75;" x="678.626536" xlink:href="#mcb3a424cba" y="145.92569"/>
     <use style="fill:#1f77b4;stroke:#ffffff;stroke-width:0.75;" x="682.10936" xlink:href="#mcb3a424cba" y="128.297514"/>
     <use style="fill:#1f77b4;stroke:#ffffff;stroke-width:0.75;" x="685.515632" xlink:href="#mcb3a424cba" y="126.361086"/>
     <use style="fill:#1f77b4;stroke:#ffffff;stroke-width:0.75;" x="688.848646" xlink:href="#mcb3a424cba" y="121.085988"/>
     <use style="fill:#1f77b4;stroke:#ffffff;stroke-width:0.75;" x="692.111485" xlink:href="#mcb3a424cba" y="115.61057"/>
     <use style="fill:#1f77b4;stroke:#ffffff;stroke-width:0.75;" x="695.307044" xlink:href="#mcb3a424cba" y="113.073181"/>
     <use style="fill:#1f77b4;stroke:#ffffff;stroke-width:0.75;" x="698.438043" xlink:href="#mcb3a424cba" y="111.47062"/>
     <use style="fill:#1f77b4;stroke:#ffffff;stroke-width:0.75;" x="701.507037" xlink:href="#mcb3a424cba" y="107.263896"/>
     <use style="fill:#1f77b4;stroke:#ffffff;stroke-width:0.75;" x="704.516435" xlink:href="#mcb3a424cba" y="100.786877"/>
     <use style="fill:#1f77b4;stroke:#ffffff;stroke-width:0.75;" x="707.468508" xlink:href="#mcb3a424cba" y="95.445005"/>
     <use style="fill:#1f77b4;stroke:#ffffff;stroke-width:0.75;" x="710.365399" xlink:href="#mcb3a424cba" y="92.173109"/>
     <use style="fill:#1f77b4;stroke:#ffffff;stroke-width:0.75;" x="713.209132" xlink:href="#mcb3a424cba" y="90.103134"/>
     <use style="fill:#1f77b4;stroke:#ffffff;stroke-width:0.75;" x="716.001625" xlink:href="#mcb3a424cba" y="85.562543"/>
     <use style="fill:#1f77b4;stroke:#ffffff;stroke-width:0.75;" x="718.74469" xlink:href="#mcb3a424cba" y="84.093529"/>
     <use style="fill:#1f77b4;stroke:#ffffff;stroke-width:0.75;" x="721.440047" xlink:href="#mcb3a424cba" y="80.955179"/>
     <use style="fill:#1f77b4;stroke:#ffffff;stroke-width:0.75;" x="724.089328" xlink:href="#mcb3a424cba" y="75.012347"/>
     <use style="fill:#1f77b4;stroke:#ffffff;stroke-width:0.75;" x="726.694081" xlink:href="#mcb3a424cba" y="67.867595"/>
     <use style="fill:#1f77b4;stroke:#ffffff;stroke-width:0.75;" x="729.255778" xlink:href="#mcb3a424cba" y="66.331806"/>
     <use style="fill:#1f77b4;stroke:#ffffff;stroke-width:0.75;" x="731.775819" xlink:href="#mcb3a424cba" y="65.330206"/>
     <use style="fill:#1f77b4;stroke:#ffffff;stroke-width:0.75;" x="734.255538" xlink:href="#mcb3a424cba" y="59.721241"/>
     <use style="fill:#1f77b4;stroke:#ffffff;stroke-width:0.75;" x="736.696205" xlink:href="#mcb3a424cba" y="53.110675"/>
     <use style="fill:#1f77b4;stroke:#ffffff;stroke-width:0.75;" x="739.099031" xlink:href="#mcb3a424cba" y="50.573286"/>
     <use style="fill:#1f77b4;stroke:#ffffff;stroke-width:0.75;" x="741.46517" xlink:href="#mcb3a424cba" y="49.738619"/>
    </g>
   </g>
   <g id="line2d_37">
    <path clip-path="url(#p75da8889f2)" d="M 92.15608 273.763349 
L 199.579434 271.927081 
L 262.418068 268.955665 
L 307.002788 260.275124 
L 341.585384 260.008031 
L 369.841422 256.535814 
L 393.731562 255.500827 
L 414.426142 255.0668 
L 432.680056 251.494423 
L 449.008738 251.42765 
L 463.779828 250.826689 
L 477.264776 247.621566 
L 489.669726 247.321086 
L 501.154916 245.484818 
L 511.847372 244.850471 
L 521.849497 244.850471 
L 531.245048 244.516604 
L 540.10341 244.34967 
L 548.482702 243.314683 
L 556.432092 239.875853 
L 563.99355 237.238304 
L 571.203182 237.07137 
L 578.092278 236.87105 
L 584.688131 236.103156 
L 591.014688 236.002996 
L 597.093081 235.836063 
L 602.942044 235.502196 
L 608.578271 234.634142 
L 614.016693 233.565767 
L 619.270726 232.998193 
L 624.352465 232.964807 
L 629.272851 232.964807 
L 634.041816 232.964807 
L 638.668403 232.83126 
L 643.160866 232.53078 
L 647.526765 232.497393 
L 651.773034 232.497393 
L 655.906056 232.43062 
L 659.931715 232.43062 
L 663.855447 232.43062 
L 667.682287 232.43062 
L 671.416904 232.230299 
L 675.063641 232.196913 
L 678.626536 232.196913 
L 682.10936 232.196913 
L 685.515632 231.929819 
L 688.848646 230.794672 
L 692.111485 230.460805 
L 695.307044 230.394031 
L 698.438043 230.394031 
L 701.507037 230.394031 
L 704.516435 230.394031 
L 707.468508 230.394031 
L 710.365399 230.360644 
L 713.209132 230.327258 
L 716.001625 230.293871 
L 718.74469 230.260484 
L 721.440047 230.260484 
L 724.089328 230.227098 
L 726.694081 229.759684 
L 729.255778 229.09195 
L 731.775819 229.09195 
L 734.255538 228.758083 
L 736.696205 228.424216 
L 739.099031 227.322455 
L 741.46517 230.327258 
" style="fill:none;stroke:#98df8a;stroke-linecap:square;stroke-width:1.5;"/>
    <defs>
     <path d="M -0 3 
L 3 -3 
L -3 -3 
z
" id="mfb6e3af9c9" style="stroke:#ffffff;stroke-linejoin:miter;stroke-width:0.75;"/>
    </defs>
    <g clip-path="url(#p75da8889f2)">
     <use style="fill:#98df8a;stroke:#ffffff;stroke-linejoin:miter;stroke-width:0.75;" x="92.15608" xlink:href="#mfb6e3af9c9" y="273.763349"/>
     <use style="fill:#98df8a;stroke:#ffffff;stroke-linejoin:miter;stroke-width:0.75;" x="199.579434" xlink:href="#mfb6e3af9c9" y="271.927081"/>
     <use style="fill:#98df8a;stroke:#ffffff;stroke-linejoin:miter;stroke-width:0.75;" x="262.418068" xlink:href="#mfb6e3af9c9" y="268.955665"/>
     <use style="fill:#98df8a;stroke:#ffffff;stroke-linejoin:miter;stroke-width:0.75;" x="307.002788" xlink:href="#mfb6e3af9c9" y="260.275124"/>
     <use style="fill:#98df8a;stroke:#ffffff;stroke-linejoin:miter;stroke-width:0.75;" x="341.585384" xlink:href="#mfb6e3af9c9" y="260.008031"/>
     <use style="fill:#98df8a;stroke:#ffffff;stroke-linejoin:miter;stroke-width:0.75;" x="369.841422" xlink:href="#mfb6e3af9c9" y="256.535814"/>
     <use style="fill:#98df8a;stroke:#ffffff;stroke-linejoin:miter;stroke-width:0.75;" x="393.731562" xlink:href="#mfb6e3af9c9" y="255.500827"/>
     <use style="fill:#98df8a;stroke:#ffffff;stroke-linejoin:miter;stroke-width:0.75;" x="414.426142" xlink:href="#mfb6e3af9c9" y="255.0668"/>
     <use style="fill:#98df8a;stroke:#ffffff;stroke-linejoin:miter;stroke-width:0.75;" x="432.680056" xlink:href="#mfb6e3af9c9" y="251.494423"/>
     <use style="fill:#98df8a;stroke:#ffffff;stroke-linejoin:miter;stroke-width:0.75;" x="449.008738" xlink:href="#mfb6e3af9c9" y="251.42765"/>
     <use style="fill:#98df8a;stroke:#ffffff;stroke-linejoin:miter;stroke-width:0.75;" x="463.779828" xlink:href="#mfb6e3af9c9" y="250.826689"/>
     <use style="fill:#98df8a;stroke:#ffffff;stroke-linejoin:miter;stroke-width:0.75;" x="477.264776" xlink:href="#mfb6e3af9c9" y="247.621566"/>
     <use style="fill:#98df8a;stroke:#ffffff;stroke-linejoin:miter;stroke-width:0.75;" x="489.669726" xlink:href="#mfb6e3af9c9" y="247.321086"/>
     <use style="fill:#98df8a;stroke:#ffffff;stroke-linejoin:miter;stroke-width:0.75;" x="501.154916" xlink:href="#mfb6e3af9c9" y="245.484818"/>
     <use style="fill:#98df8a;stroke:#ffffff;stroke-linejoin:miter;stroke-width:0.75;" x="511.847372" xlink:href="#mfb6e3af9c9" y="244.850471"/>
     <use style="fill:#98df8a;stroke:#ffffff;stroke-linejoin:miter;stroke-width:0.75;" x="521.849497" xlink:href="#mfb6e3af9c9" y="244.850471"/>
     <use style="fill:#98df8a;stroke:#ffffff;stroke-linejoin:miter;stroke-width:0.75;" x="531.245048" xlink:href="#mfb6e3af9c9" y="244.516604"/>
     <use style="fill:#98df8a;stroke:#ffffff;stroke-linejoin:miter;stroke-width:0.75;" x="540.10341" xlink:href="#mfb6e3af9c9" y="244.34967"/>
     <use style="fill:#98df8a;stroke:#ffffff;stroke-linejoin:miter;stroke-width:0.75;" x="548.482702" xlink:href="#mfb6e3af9c9" y="243.314683"/>
     <use style="fill:#98df8a;stroke:#ffffff;stroke-linejoin:miter;stroke-width:0.75;" x="556.432092" xlink:href="#mfb6e3af9c9" y="239.875853"/>
     <use style="fill:#98df8a;stroke:#ffffff;stroke-linejoin:miter;stroke-width:0.75;" x="563.99355" xlink:href="#mfb6e3af9c9" y="237.238304"/>
     <use style="fill:#98df8a;stroke:#ffffff;stroke-linejoin:miter;stroke-width:0.75;" x="571.203182" xlink:href="#mfb6e3af9c9" y="237.07137"/>
     <use style="fill:#98df8a;stroke:#ffffff;stroke-linejoin:miter;stroke-width:0.75;" x="578.092278" xlink:href="#mfb6e3af9c9" y="236.87105"/>
     <use style="fill:#98df8a;stroke:#ffffff;stroke-linejoin:miter;stroke-width:0.75;" x="584.688131" xlink:href="#mfb6e3af9c9" y="236.103156"/>
     <use style="fill:#98df8a;stroke:#ffffff;stroke-linejoin:miter;stroke-width:0.75;" x="591.014688" xlink:href="#mfb6e3af9c9" y="236.002996"/>
     <use style="fill:#98df8a;stroke:#ffffff;stroke-linejoin:miter;stroke-width:0.75;" x="597.093081" xlink:href="#mfb6e3af9c9" y="235.836063"/>
     <use style="fill:#98df8a;stroke:#ffffff;stroke-linejoin:miter;stroke-width:0.75;" x="602.942044" xlink:href="#mfb6e3af9c9" y="235.502196"/>
     <use style="fill:#98df8a;stroke:#ffffff;stroke-linejoin:miter;stroke-width:0.75;" x="608.578271" xlink:href="#mfb6e3af9c9" y="234.634142"/>
     <use style="fill:#98df8a;stroke:#ffffff;stroke-linejoin:miter;stroke-width:0.75;" x="614.016693" xlink:href="#mfb6e3af9c9" y="233.565767"/>
     <use style="fill:#98df8a;stroke:#ffffff;stroke-linejoin:miter;stroke-width:0.75;" x="619.270726" xlink:href="#mfb6e3af9c9" y="232.998193"/>
     <use style="fill:#98df8a;stroke:#ffffff;stroke-linejoin:miter;stroke-width:0.75;" x="624.352465" xlink:href="#mfb6e3af9c9" y="232.964807"/>
     <use style="fill:#98df8a;stroke:#ffffff;stroke-linejoin:miter;stroke-width:0.75;" x="629.272851" xlink:href="#mfb6e3af9c9" y="232.964807"/>
     <use style="fill:#98df8a;stroke:#ffffff;stroke-linejoin:miter;stroke-width:0.75;" x="634.041816" xlink:href="#mfb6e3af9c9" y="232.964807"/>
     <use style="fill:#98df8a;stroke:#ffffff;stroke-linejoin:miter;stroke-width:0.75;" x="638.668403" xlink:href="#mfb6e3af9c9" y="232.83126"/>
     <use style="fill:#98df8a;stroke:#ffffff;stroke-linejoin:miter;stroke-width:0.75;" x="643.160866" xlink:href="#mfb6e3af9c9" y="232.53078"/>
     <use style="fill:#98df8a;stroke:#ffffff;stroke-linejoin:miter;stroke-width:0.75;" x="647.526765" xlink:href="#mfb6e3af9c9" y="232.497393"/>
     <use style="fill:#98df8a;stroke:#ffffff;stroke-linejoin:miter;stroke-width:0.75;" x="651.773034" xlink:href="#mfb6e3af9c9" y="232.497393"/>
     <use style="fill:#98df8a;stroke:#ffffff;stroke-linejoin:miter;stroke-width:0.75;" x="655.906056" xlink:href="#mfb6e3af9c9" y="232.43062"/>
     <use style="fill:#98df8a;stroke:#ffffff;stroke-linejoin:miter;stroke-width:0.75;" x="659.931715" xlink:href="#mfb6e3af9c9" y="232.43062"/>
     <use style="fill:#98df8a;stroke:#ffffff;stroke-linejoin:miter;stroke-width:0.75;" x="663.855447" xlink:href="#mfb6e3af9c9" y="232.43062"/>
     <use style="fill:#98df8a;stroke:#ffffff;stroke-linejoin:miter;stroke-width:0.75;" x="667.682287" xlink:href="#mfb6e3af9c9" y="232.43062"/>
     <use style="fill:#98df8a;stroke:#ffffff;stroke-linejoin:miter;stroke-width:0.75;" x="671.416904" xlink:href="#mfb6e3af9c9" y="232.230299"/>
     <use style="fill:#98df8a;stroke:#ffffff;stroke-linejoin:miter;stroke-width:0.75;" x="675.063641" xlink:href="#mfb6e3af9c9" y="232.196913"/>
     <use style="fill:#98df8a;stroke:#ffffff;stroke-linejoin:miter;stroke-width:0.75;" x="678.626536" xlink:href="#mfb6e3af9c9" y="232.196913"/>
     <use style="fill:#98df8a;stroke:#ffffff;stroke-linejoin:miter;stroke-width:0.75;" x="682.10936" xlink:href="#mfb6e3af9c9" y="232.196913"/>
     <use style="fill:#98df8a;stroke:#ffffff;stroke-linejoin:miter;stroke-width:0.75;" x="685.515632" xlink:href="#mfb6e3af9c9" y="231.929819"/>
     <use style="fill:#98df8a;stroke:#ffffff;stroke-linejoin:miter;stroke-width:0.75;" x="688.848646" xlink:href="#mfb6e3af9c9" y="230.794672"/>
     <use style="fill:#98df8a;stroke:#ffffff;stroke-linejoin:miter;stroke-width:0.75;" x="692.111485" xlink:href="#mfb6e3af9c9" y="230.460805"/>
     <use style="fill:#98df8a;stroke:#ffffff;stroke-linejoin:miter;stroke-width:0.75;" x="695.307044" xlink:href="#mfb6e3af9c9" y="230.394031"/>
     <use style="fill:#98df8a;stroke:#ffffff;stroke-linejoin:miter;stroke-width:0.75;" x="698.438043" xlink:href="#mfb6e3af9c9" y="230.394031"/>
     <use style="fill:#98df8a;stroke:#ffffff;stroke-linejoin:miter;stroke-width:0.75;" x="701.507037" xlink:href="#mfb6e3af9c9" y="230.394031"/>
     <use style="fill:#98df8a;stroke:#ffffff;stroke-linejoin:miter;stroke-width:0.75;" x="704.516435" xlink:href="#mfb6e3af9c9" y="230.394031"/>
     <use style="fill:#98df8a;stroke:#ffffff;stroke-linejoin:miter;stroke-width:0.75;" x="707.468508" xlink:href="#mfb6e3af9c9" y="230.394031"/>
     <use style="fill:#98df8a;stroke:#ffffff;stroke-linejoin:miter;stroke-width:0.75;" x="710.365399" xlink:href="#mfb6e3af9c9" y="230.360644"/>
     <use style="fill:#98df8a;stroke:#ffffff;stroke-linejoin:miter;stroke-width:0.75;" x="713.209132" xlink:href="#mfb6e3af9c9" y="230.327258"/>
     <use style="fill:#98df8a;stroke:#ffffff;stroke-linejoin:miter;stroke-width:0.75;" x="716.001625" xlink:href="#mfb6e3af9c9" y="230.293871"/>
     <use style="fill:#98df8a;stroke:#ffffff;stroke-linejoin:miter;stroke-width:0.75;" x="718.74469" xlink:href="#mfb6e3af9c9" y="230.260484"/>
     <use style="fill:#98df8a;stroke:#ffffff;stroke-linejoin:miter;stroke-width:0.75;" x="721.440047" xlink:href="#mfb6e3af9c9" y="230.260484"/>
     <use style="fill:#98df8a;stroke:#ffffff;stroke-linejoin:miter;stroke-width:0.75;" x="724.089328" xlink:href="#mfb6e3af9c9" y="230.227098"/>
     <use style="fill:#98df8a;stroke:#ffffff;stroke-linejoin:miter;stroke-width:0.75;" x="726.694081" xlink:href="#mfb6e3af9c9" y="229.759684"/>
     <use style="fill:#98df8a;stroke:#ffffff;stroke-linejoin:miter;stroke-width:0.75;" x="729.255778" xlink:href="#mfb6e3af9c9" y="229.09195"/>
     <use style="fill:#98df8a;stroke:#ffffff;stroke-linejoin:miter;stroke-width:0.75;" x="731.775819" xlink:href="#mfb6e3af9c9" y="229.09195"/>
     <use style="fill:#98df8a;stroke:#ffffff;stroke-linejoin:miter;stroke-width:0.75;" x="734.255538" xlink:href="#mfb6e3af9c9" y="228.758083"/>
     <use style="fill:#98df8a;stroke:#ffffff;stroke-linejoin:miter;stroke-width:0.75;" x="736.696205" xlink:href="#mfb6e3af9c9" y="228.424216"/>
     <use style="fill:#98df8a;stroke:#ffffff;stroke-linejoin:miter;stroke-width:0.75;" x="739.099031" xlink:href="#mfb6e3af9c9" y="227.322455"/>
     <use style="fill:#98df8a;stroke:#ffffff;stroke-linejoin:miter;stroke-width:0.75;" x="741.46517" xlink:href="#mfb6e3af9c9" y="230.327258"/>
    </g>
   </g>
   <g id="line2d_38"/>
   <g id="line2d_39"/>
   <g id="line2d_40">
    <path clip-path="url(#p75da8889f2)" d="M 741.46517 288.430125 
L 741.46517 22.318125 
" style="fill:none;stroke:#ff0000;stroke-linecap:square;stroke-width:1.5;"/>
   </g>
   <g id="patch_3">
    <path d="M 59.690625 284.747572 
L 59.690625 51.0407 
" style="fill:none;stroke:#000000;stroke-linecap:square;stroke-linejoin:miter;stroke-width:0.8;"/>
   </g>
   <g id="patch_4">
    <path d="M 92.15608 288.430125 
L 741.46778 288.430125 
" style="fill:none;stroke:#000000;stroke-linecap:square;stroke-linejoin:miter;stroke-width:0.8;"/>
   </g>
   <g id="text_23">
    <!-- sqlite3_ossfuzz (16h:30m, 5 trials/fuzzer) -->
    <g transform="translate(293.132812 16.318125)scale(0.12 -0.12)">
     <defs>
      <path d="M 2834 3397 
L 2834 2853 
Q 2591 2978 2328 3040 
Q 2066 3103 1784 3103 
Q 1356 3103 1142 2972 
Q 928 2841 928 2578 
Q 928 2378 1081 2264 
Q 1234 2150 1697 2047 
L 1894 2003 
Q 2506 1872 2764 1633 
Q 3022 1394 3022 966 
Q 3022 478 2636 193 
Q 2250 -91 1575 -91 
Q 1294 -91 989 -36 
Q 684 19 347 128 
L 347 722 
Q 666 556 975 473 
Q 1284 391 1588 391 
Q 1994 391 2212 530 
Q 2431 669 2431 922 
Q 2431 1156 2273 1281 
Q 2116 1406 1581 1522 
L 1381 1569 
Q 847 1681 609 1914 
Q 372 2147 372 2553 
Q 372 3047 722 3315 
Q 1072 3584 1716 3584 
Q 2034 3584 2315 3537 
Q 2597 3491 2834 3397 
z
" id="DejaVuSans-73" transform="scale(0.015625)"/>
      <path d="M 947 1747 
Q 947 1113 1208 752 
Q 1469 391 1925 391 
Q 2381 391 2643 752 
Q 2906 1113 2906 1747 
Q 2906 2381 2643 2742 
Q 2381 3103 1925 3103 
Q 1469 3103 1208 2742 
Q 947 2381 947 1747 
z
M 2906 525 
Q 2725 213 2448 61 
Q 2172 -91 1784 -91 
Q 1150 -91 751 415 
Q 353 922 353 1747 
Q 353 2572 751 3078 
Q 1150 3584 1784 3584 
Q 2172 3584 2448 3432 
Q 2725 3281 2906 2969 
L 2906 3500 
L 3481 3500 
L 3481 -1331 
L 2906 -1331 
L 2906 525 
z
" id="DejaVuSans-71" transform="scale(0.015625)"/>
      <path d="M 603 4863 
L 1178 4863 
L 1178 0 
L 603 0 
L 603 4863 
z
" id="DejaVuSans-6c" transform="scale(0.015625)"/>
      <path d="M 3263 -1063 
L 3263 -1509 
L -63 -1509 
L -63 -1063 
L 3263 -1063 
z
" id="DejaVuSans-5f" transform="scale(0.015625)"/>
      <path d="M 2375 4863 
L 2375 4384 
L 1825 4384 
Q 1516 4384 1395 4259 
Q 1275 4134 1275 3809 
L 1275 3500 
L 2222 3500 
L 2222 3053 
L 1275 3053 
L 1275 0 
L 697 0 
L 697 3053 
L 147 3053 
L 147 3500 
L 697 3500 
L 697 3744 
Q 697 4328 969 4595 
Q 1241 4863 1831 4863 
L 2375 4863 
z
" id="DejaVuSans-66" transform="scale(0.015625)"/>
      <path d="M 353 3500 
L 3084 3500 
L 3084 2975 
L 922 459 
L 3084 459 
L 3084 0 
L 275 0 
L 275 525 
L 2438 3041 
L 353 3041 
L 353 3500 
z
" id="DejaVuSans-7a" transform="scale(0.015625)"/>
      <path d="M 750 794 
L 1409 794 
L 1409 256 
L 897 -744 
L 494 -744 
L 750 256 
L 750 794 
z
" id="DejaVuSans-2c" transform="scale(0.015625)"/>
      <path d="M 1625 4666 
L 2156 4666 
L 531 -594 
L 0 -594 
L 1625 4666 
z
" id="DejaVuSans-2f" transform="scale(0.015625)"/>
     </defs>
     <use xlink:href="#DejaVuSans-73"/>
     <use x="52.099609" xlink:href="#DejaVuSans-71"/>
     <use x="115.576172" xlink:href="#DejaVuSans-6c"/>
     <use x="143.359375" xlink:href="#DejaVuSans-69"/>
     <use x="171.142578" xlink:href="#DejaVuSans-74"/>
     <use x="210.351562" xlink:href="#DejaVuSans-65"/>
     <use x="271.875" xlink:href="#DejaVuSans-33"/>
     <use x="335.498047" xlink:href="#DejaVuSans-5f"/>
     <use x="385.498047" xlink:href="#DejaVuSans-6f"/>
     <use x="446.679688" xlink:href="#DejaVuSans-73"/>
     <use x="498.779297" xlink:href="#DejaVuSans-73"/>
     <use x="550.878906" xlink:href="#DejaVuSans-66"/>
     <use x="586.083984" xlink:href="#DejaVuSans-75"/>
     <use x="649.462891" xlink:href="#DejaVuSans-7a"/>
     <use x="701.953125" xlink:href="#DejaVuSans-7a"/>
     <use x="754.443359" xlink:href="#DejaVuSans-20"/>
     <use x="786.230469" xlink:href="#DejaVuSans-28"/>
     <use x="825.244141" xlink:href="#DejaVuSans-31"/>
     <use x="888.867188" xlink:href="#DejaVuSans-36"/>
     <use x="952.490234" xlink:href="#DejaVuSans-68"/>
     <use x="1015.869141" xlink:href="#DejaVuSans-3a"/>
     <use x="1049.560547" xlink:href="#DejaVuSans-33"/>
     <use x="1113.183594" xlink:href="#DejaVuSans-30"/>
     <use x="1176.806641" xlink:href="#DejaVuSans-6d"/>
     <use x="1274.21875" xlink:href="#DejaVuSans-2c"/>
     <use x="1306.005859" xlink:href="#DejaVuSans-20"/>
     <use x="1337.792969" xlink:href="#DejaVuSans-35"/>
     <use x="1401.416016" xlink:href="#DejaVuSans-20"/>
     <use x="1433.203125" xlink:href="#DejaVuSans-74"/>
     <use x="1472.412109" xlink:href="#DejaVuSans-72"/>
     <use x="1513.525391" xlink:href="#DejaVuSans-69"/>
     <use x="1541.308594" xlink:href="#DejaVuSans-61"/>
     <use x="1602.587891" xlink:href="#DejaVuSans-6c"/>
     <use x="1630.371094" xlink:href="#DejaVuSans-73"/>
     <use x="1682.470703" xlink:href="#DejaVuSans-2f"/>
     <use x="1716.162109" xlink:href="#DejaVuSans-66"/>
     <use x="1751.367188" xlink:href="#DejaVuSans-75"/>
     <use x="1814.746094" xlink:href="#DejaVuSans-7a"/>
     <use x="1867.236328" xlink:href="#DejaVuSans-7a"/>
     <use x="1919.726562" xlink:href="#DejaVuSans-65"/>
     <use x="1981.25" xlink:href="#DejaVuSans-72"/>
     <use x="2022.363281" xlink:href="#DejaVuSans-29"/>
    </g>
   </g>
   <g id="legend_1">
    <g id="line2d_41">
     <path d="M 777.930625 30.416562 
L 797.930625 30.416562 
" style="fill:none;stroke:#1f77b4;stroke-linecap:square;stroke-width:1.5;"/>
    </g>
    <g id="line2d_42">
     <defs>
      <path d="M 0 3 
C 0.795609 3 1.55874 2.683901 2.12132 2.12132 
C 2.683901 1.55874 3 0.795609 3 0 
C 3 -0.795609 2.683901 -1.55874 2.12132 -2.12132 
C 1.55874 -2.683901 0.795609 -3 0 -3 
C -0.795609 -3 -1.55874 -2.683901 -2.12132 -2.12132 
C -2.683901 -1.55874 -3 -0.795609 -3 0 
C -3 0.795609 -2.683901 1.55874 -2.12132 2.12132 
C -1.55874 2.683901 -0.795609 3 0 3 
z
" id="m6ee2778039" style="stroke:#1f77b4;"/>
     </defs>
     <g>
      <use style="fill:#1f77b4;stroke:#1f77b4;" x="787.930625" xlink:href="#m6ee2778039" y="30.416562"/>
     </g>
    </g>
    <g id="text_24">
     <!-- aflplusplus -->
     <g transform="translate(805.930625 33.916562)scale(0.1 -0.1)">
      <defs>
       <path d="M 1159 525 
L 1159 -1331 
L 581 -1331 
L 581 3500 
L 1159 3500 
L 1159 2969 
Q 1341 3281 1617 3432 
Q 1894 3584 2278 3584 
Q 2916 3584 3314 3078 
Q 3713 2572 3713 1747 
Q 3713 922 3314 415 
Q 2916 -91 2278 -91 
Q 1894 -91 1617 61 
Q 1341 213 1159 525 
z
M 3116 1747 
Q 3116 2381 2855 2742 
Q 2594 3103 2138 3103 
Q 1681 3103 1420 2742 
Q 1159 2381 1159 1747 
Q 1159 1113 1420 752 
Q 1681 391 2138 391 
Q 2594 391 2855 752 
Q 3116 1113 3116 1747 
z
" id="DejaVuSans-70" transform="scale(0.015625)"/>
      </defs>
      <use xlink:href="#DejaVuSans-61"/>
      <use x="61.279297" xlink:href="#DejaVuSans-66"/>
      <use x="96.484375" xlink:href="#DejaVuSans-6c"/>
      <use x="124.267578" xlink:href="#DejaVuSans-70"/>
      <use x="187.744141" xlink:href="#DejaVuSans-6c"/>
      <use x="215.527344" xlink:href="#DejaVuSans-75"/>
      <use x="278.90625" xlink:href="#DejaVuSans-73"/>
      <use x="331.005859" xlink:href="#DejaVuSans-70"/>
      <use x="394.482422" xlink:href="#DejaVuSans-6c"/>
      <use x="422.265625" xlink:href="#DejaVuSans-75"/>
      <use x="485.644531" xlink:href="#DejaVuSans-73"/>
     </g>
    </g>
    <g id="line2d_43">
     <path d="M 777.930625 45.094688 
L 797.930625 45.094688 
" style="fill:none;stroke:#98df8a;stroke-linecap:square;stroke-width:1.5;"/>
    </g>
    <g id="line2d_44">
     <defs>
      <path d="M -0 3 
L 3 -3 
L -3 -3 
z
" id="m81d47ed8df" style="stroke:#98df8a;stroke-linejoin:miter;"/>
     </defs>
     <g>
      <use style="fill:#98df8a;stroke:#98df8a;stroke-linejoin:miter;" x="787.930625" xlink:href="#m81d47ed8df" y="45.094688"/>
     </g>
    </g>
    <g id="text_25">
     <!-- libfuzzer -->
     <g transform="translate(805.930625 48.594688)scale(0.1 -0.1)">
      <use xlink:href="#DejaVuSans-6c"/>
      <use x="27.783203" xlink:href="#DejaVuSans-69"/>
      <use x="55.566406" xlink:href="#DejaVuSans-62"/>
      <use x="119.042969" xlink:href="#DejaVuSans-66"/>
      <use x="154.248047" xlink:href="#DejaVuSans-75"/>
      <use x="217.626953" xlink:href="#DejaVuSans-7a"/>
      <use x="270.117188" xlink:href="#DejaVuSans-7a"/>
      <use x="322.607422" xlink:href="#DejaVuSans-65"/>
      <use x="384.130859" xlink:href="#DejaVuSans-72"/>
     </g>
    </g>
   </g>
  </g>
 </g>
 <defs>
  <clipPath id="p75da8889f2">
   <rect height="266.112" width="714.24" x="59.690625" y="22.318125"/>
  </clipPath>
 </defs>
</svg>
