<?xml version="1.0" encoding="utf-8" standalone="no"?>
<!DOCTYPE svg PUBLIC "-//W3C//DTD SVG 1.1//EN"
  "http://www.w3.org/Graphics/SVG/1.1/DTD/svg11.dtd">
<svg height="325.986375pt" version="1.1" viewBox="0 0 870.904062 325.986375" width="870.904062pt" xmlns="http://www.w3.org/2000/svg" xmlns:xlink="http://www.w3.org/1999/xlink">
 <metadata>
  <rdf:RDF xmlns:cc="http://creativecommons.org/ns#" xmlns:dc="http://purl.org/dc/elements/1.1/" xmlns:rdf="http://www.w3.org/1999/02/22-rdf-syntax-ns#">
   <cc:Work>
    <dc:type rdf:resource="http://purl.org/dc/dcmitype/StillImage"/>
    <dc:date>2022-06-11T16:57:31.284977</dc:date>
    <dc:format>image/svg+xml</dc:format>
    <dc:creator>
     <cc:Agent>
      <dc:title>Matplotlib v3.4.1, https://matplotlib.org/</dc:title>
     </cc:Agent>
    </dc:creator>
   </cc:Work>
  </rdf:RDF>
 </metadata>
 <defs>
  <style type="text/css">*{stroke-linecap:butt;stroke-linejoin:round;}</style>
 </defs>
 <g id="figure_1">
  <g id="patch_1">
   <path d="M 0 325.986375 
L 870.904062 325.986375 
L 870.904062 0 
L 0 0 
z
" style="fill:#ffffff;"/>
  </g>
  <g id="axes_1">
   <g id="patch_2">
    <path d="M 59.690625 288.430125 
L 773.930625 288.430125 
L 773.930625 22.318125 
L 59.690625 22.318125 
z
" style="fill:#ffffff;"/>
   </g>
   <g id="PolyCollection_1">
    <defs>
     <path d="M 92.15608 -92.36212 
L 92.15608 -49.65225 
L 98.990912 -59.935479 
L 105.825745 -96.299973 
L 112.660577 -102.555276 
L 119.49541 -112.313911 
L 126.330242 -119.773202 
L 133.165075 -122.86917 
L 139.999907 -129.640467 
L 146.83474 -131.632025 
L 153.669572 -133.641689 
L 160.504405 -136.176399 
L 167.339237 -137.371334 
L 174.17407 -137.687946 
L 181.008903 -138.910265 
L 187.843735 -140.847508 
L 194.678568 -140.883718 
L 201.5134 -142.712331 
L 208.348233 -142.947697 
L 215.183065 -142.947697 
L 222.017898 -143.346008 
L 228.85273 -144.92115 
L 235.687563 -145.263788 
L 242.522395 -145.609143 
L 249.357228 -145.989349 
L 256.19206 -146.06177 
L 263.026893 -147.220494 
L 269.861725 -147.698695 
L 276.696558 -148.831846 
L 283.531391 -149.193947 
L 290.366223 -149.193947 
L 297.201056 -149.193947 
L 304.035888 -144.903045 
L 310.870721 -149.193947 
L 317.705553 -149.193947 
L 324.540386 -149.193947 
L 331.375218 -149.465523 
L 338.210051 -149.465523 
L 345.044883 -149.465523 
L 351.879716 -149.465523 
L 358.714548 -149.465523 
L 365.549381 -149.465523 
L 372.384214 -147.546386 
L 379.219046 -148.071433 
L 386.053879 -149.465523 
L 392.888711 -149.465523 
L 399.723544 -149.465523 
L 406.558376 -149.465523 
L 413.393209 -149.465523 
L 420.228041 -151.113085 
L 427.062874 -151.113085 
L 433.897706 -151.819183 
L 440.732539 -152.30802 
L 447.567371 -153.539165 
L 454.402204 -153.883162 
L 461.237036 -153.883162 
L 468.071869 -153.883162 
L 474.906702 -153.883162 
L 481.741534 -153.883162 
L 488.576367 -153.883162 
L 495.411199 -153.883162 
L 502.246032 -153.883162 
L 509.080864 -154.84273 
L 515.915697 -156.073876 
L 522.750529 -156.110086 
L 529.585362 -156.110086 
L 536.420194 -156.063239 
L 543.255027 -156.110086 
L 550.089859 -156.110086 
L 556.924692 -156.110086 
L 563.759525 -156.110086 
L 570.594357 -156.110086 
L 577.42919 -156.110086 
L 584.264022 -156.110086 
L 591.098855 -156.072065 
L 597.933687 -156.110086 
L 604.76852 -156.104428 
L 611.603352 -156.110086 
L 618.438185 -157.830068 
L 625.273017 -157.639964 
L 632.10785 -157.667122 
L 638.942682 -159.477629 
L 645.777515 -159.839731 
L 652.612347 -159.857836 
L 659.44718 -160.238043 
L 666.282013 -159.957414 
L 673.116845 -161.288137 
L 679.951678 -161.432977 
L 686.78651 -161.432977 
L 693.621343 -161.632133 
L 700.456175 -162.501177 
L 707.291008 -163.714217 
L 714.12584 -163.424536 
L 720.960673 -165.397536 
L 727.795505 -165.886826 
L 734.630338 -166.152065 
L 741.46517 -166.194612 
L 741.46517 -291.57225 
L 741.46517 -291.57225 
L 734.630338 -290.069529 
L 727.795505 -289.580692 
L 720.960673 -288.983224 
L 714.12584 -288.494387 
L 707.291008 -287.012487 
L 700.456175 -286.158833 
L 693.621343 -285.47084 
L 686.78651 -285.289789 
L 679.951678 -284.909583 
L 673.116845 -284.547481 
L 666.282013 -279.827036 
L 659.44718 -281.18899 
L 652.612347 -278.609017 
L 645.777515 -278.391756 
L 638.942682 -278.391756 
L 632.10785 -278.391756 
L 625.273017 -278.319336 
L 618.438185 -277.305452 
L 611.603352 -275.404419 
L 604.76852 -267.908918 
L 597.933687 -267.727867 
L 591.098855 -267.583027 
L 584.264022 -265.700099 
L 577.42919 -269.456902 
L 570.594357 -265.030211 
L 563.759525 -264.722425 
L 556.924692 -263.871487 
L 550.089859 -263.835276 
L 543.255027 -263.799066 
L 536.420194 -263.708541 
L 529.585362 -262.893813 
L 522.750529 -262.875708 
L 515.915697 -261.02899 
L 509.080864 -254.601689 
L 502.246032 -257.380818 
L 495.411199 -251.813507 
L 488.576367 -245.712097 
L 481.741534 -241.294459 
L 474.906702 -238.805012 
L 468.071869 -229.062219 
L 461.237036 -241.104356 
L 454.402204 -234.314953 
L 447.567371 -225.251779 
L 440.732539 -215.693884 
L 433.897706 -224.583476 
L 427.062874 -225.407257 
L 420.228041 -221.478456 
L 413.393209 -211.620243 
L 406.558376 -227.570813 
L 399.723544 -221.32841 
L 392.888711 -205.989565 
L 386.053879 -220.971514 
L 379.219046 -217.10608 
L 372.384214 -221.306457 
L 365.549381 -218.844167 
L 358.714548 -218.844167 
L 351.879716 -217.372225 
L 345.044883 -219.242479 
L 338.210051 -217.051765 
L 331.375218 -215.530939 
L 324.540386 -213.992008 
L 317.705553 -219.043323 
L 310.870721 -213.294962 
L 304.035888 -216.562928 
L 297.201056 -212.516444 
L 290.366223 -215.621464 
L 283.531391 -210.389098 
L 276.696558 -210.579201 
L 269.861725 -197.37155 
L 263.026893 -202.142237 
L 256.19206 -199.915312 
L 249.357228 -197.208604 
L 242.522395 -196.556821 
L 235.687563 -193.098752 
L 228.85273 -191.032737 
L 222.017898 -186.789134 
L 215.183065 -181.873606 
L 208.348233 -180.950247 
L 201.5134 -179.429421 
L 194.678568 -171.93392 
L 187.843735 -169.706996 
L 181.008903 -165.488514 
L 174.17407 -163.768532 
L 167.339237 -161.324347 
L 160.504405 -156.399767 
L 153.669572 -152.742542 
L 146.83474 -150.171621 
L 139.999907 -145.464302 
L 133.165075 -137.67912 
L 126.330242 -130.095131 
L 119.49541 -119.877985 
L 112.660577 -114.088209 
L 105.825745 -105.216722 
L 98.990912 -96.055555 
L 92.15608 -92.36212 
z
" id="m7c74877b0f" style="stroke:#1f77b4;stroke-opacity:0.2;"/>
    </defs>
    <g clip-path="url(#ped426b0583)">
     <use style="fill:#1f77b4;fill-opacity:0.2;stroke:#1f77b4;stroke-opacity:0.2;" x="0" xlink:href="#m7c74877b0f" y="325.986375"/>
    </g>
   </g>
   <g id="PolyCollection_2">
    <defs>
     <path d="M 92.15608 -86.26071 
L 92.15608 -70.692836 
L 98.990912 -82.494854 
L 105.825745 -86.097764 
L 112.660577 -96.408604 
L 119.49541 -109.733938 
L 126.330242 -118.433426 
L 133.165075 -121.167293 
L 139.999907 -126.009042 
L 146.83474 -126.960916 
L 153.669572 -128.871002 
L 160.504405 -128.644688 
L 167.339237 -129.133525 
L 174.17407 -130.25604 
L 181.008903 -130.274145 
L 187.843735 -131.097926 
L 194.678568 -131.206556 
L 201.5134 -132.464859 
L 208.348233 -135.524616 
L 215.183065 -136.518132 
L 222.017898 -135.910707 
L 228.85273 -138.85595 
L 235.687563 -139.924149 
L 242.522395 -139.978465 
L 249.357228 -139.878887 
L 256.19206 -140.03278 
L 263.026893 -140.03278 
L 269.861725 -142.947697 
L 276.696558 -143.074432 
L 283.531391 -147.980907 
L 290.366223 -148.324677 
L 297.201056 -148.415429 
L 304.035888 -148.74132 
L 310.870721 -148.868056 
L 317.705553 -148.868056 
L 324.540386 -149.193947 
L 331.375218 -149.193947 
L 338.210051 -149.230157 
L 345.044883 -149.7371 
L 351.879716 -149.7371 
L 358.714548 -149.77331 
L 365.549381 -150.171621 
L 372.384214 -150.244042 
L 379.219046 -149.945308 
L 386.053879 -150.479408 
L 392.888711 -151.203611 
L 399.723544 -151.221716 
L 406.558376 -150.642353 
L 413.393209 -152.151638 
L 420.228041 -152.19939 
L 427.062874 -151.429924 
L 433.897706 -153.48485 
L 440.732539 -153.539165 
L 447.567371 -153.955582 
L 454.402204 -152.253705 
L 461.237036 -154.126448 
L 468.071869 -153.783584 
L 474.906702 -155.385883 
L 481.741534 -157.029823 
L 488.576367 -155.768352 
L 495.411199 -155.919982 
L 502.246032 -155.322515 
L 509.080864 -156.236821 
L 515.915697 -156.245874 
L 522.750529 -157.775752 
L 529.585362 -157.8054 
L 536.420194 -157.830068 
L 543.255027 -157.823278 
L 550.089859 -160.056992 
L 556.924692 -160.147517 
L 563.759525 -160.201832 
L 570.594357 -160.346673 
L 577.42919 -160.382883 
L 584.264022 -160.509619 
L 591.098855 -160.853615 
L 597.933687 -160.527724 
L 604.76852 -160.853615 
L 611.603352 -160.247095 
L 618.438185 -160.853615 
L 625.273017 -160.292358 
L 632.10785 -160.83551 
L 638.942682 -161.233822 
L 645.777515 -161.251927 
L 652.612347 -161.251927 
L 659.44718 -161.523503 
L 666.282013 -161.50404 
L 673.116845 -161.523503 
L 679.951678 -161.523503 
L 686.78651 -161.668343 
L 693.621343 -161.686448 
L 700.456175 -161.686448 
L 707.291008 -162.265811 
L 714.12584 -162.718438 
L 720.960673 -162.736543 
L 727.795505 -162.808963 
L 734.630338 -162.292968 
L 741.46517 -162.329179 
L 741.46517 -183.792744 
L 741.46517 -183.792744 
L 734.630338 -183.756534 
L 727.795505 -183.756534 
L 720.960673 -183.702219 
L 714.12584 -183.104751 
L 707.291008 -183.104751 
L 700.456175 -183.104751 
L 693.621343 -183.050436 
L 686.78651 -182.996121 
L 679.951678 -182.833175 
L 673.116845 -182.833175 
L 666.282013 -184.335896 
L 659.44718 -182.670229 
L 652.612347 -182.326233 
L 645.777515 -182.308128 
L 638.942682 -182.271918 
L 632.10785 -182.271918 
L 625.273017 -182.271918 
L 618.438185 -182.271918 
L 611.603352 -182.271918 
L 604.76852 -183.213382 
L 597.933687 -182.253813 
L 591.098855 -182.253813 
L 584.264022 -182.108972 
L 577.42919 -181.439084 
L 570.594357 -181.439084 
L 563.759525 -181.439084 
L 556.924692 -181.439084 
L 550.089859 -181.439084 
L 543.255027 -181.439084 
L 536.420194 -180.932142 
L 529.585362 -180.877827 
L 522.750529 -180.877827 
L 515.915697 -180.769197 
L 509.080864 -180.769197 
L 502.246032 -180.780286 
L 495.411199 -180.751091 
L 488.576367 -180.153624 
L 481.741534 -179.863943 
L 474.906702 -179.863943 
L 468.071869 -179.863943 
L 461.237036 -180.579093 
L 454.402204 -176.061877 
L 447.567371 -176.043772 
L 440.732539 -175.554935 
L 433.897706 -175.102308 
L 427.062874 -174.993678 
L 420.228041 -174.957468 
L 413.393209 -173.43732 
L 406.558376 -173.056435 
L 399.723544 -173.03833 
L 392.888711 -173.03833 
L 386.053879 -173.03833 
L 379.219046 -172.386547 
L 372.384214 -172.314127 
L 365.549381 -172.314127 
L 358.714548 -174.676839 
L 351.879716 -172.205044 
L 345.044883 -172.133076 
L 338.210051 -172.006341 
L 331.375218 -162.474019 
L 324.540386 -164.673786 
L 317.705553 -162.781805 
L 310.870721 -162.320126 
L 304.035888 -161.641186 
L 297.201056 -161.586871 
L 290.366223 -160.509619 
L 283.531391 -160.772142 
L 276.696558 -159.441419 
L 269.861725 -157.024392 
L 263.026893 -159.332789 
L 256.19206 -157.368388 
L 249.357228 -155.83851 
L 242.522395 -152.476624 
L 235.687563 -155.512618 
L 228.85273 -154.23621 
L 222.017898 -151.7015 
L 215.183065 -153.367167 
L 208.348233 -149.556049 
L 201.5134 -151.13119 
L 194.678568 -145.591038 
L 187.843735 -148.859003 
L 181.008903 -148.641743 
L 174.17407 -143.020117 
L 167.339237 -142.712331 
L 160.504405 -139.67792 
L 153.669572 -140.385829 
L 146.83474 -137.584748 
L 139.999907 -136.900602 
L 133.165075 -135.651352 
L 126.330242 -132.356228 
L 119.49541 -126.263871 
L 112.660577 -122.271702 
L 105.825745 -118.035115 
L 98.990912 -107.697118 
L 92.15608 -86.26071 
z
" id="m75b28ead6b" style="stroke:#98df8a;stroke-opacity:0.2;"/>
    </defs>
    <g clip-path="url(#ped426b0583)">
     <use style="fill:#98df8a;fill-opacity:0.2;stroke:#98df8a;stroke-opacity:0.2;" x="0" xlink:href="#m75b28ead6b" y="325.986375"/>
    </g>
   </g>
   <g id="matplotlib.axis_1">
    <g id="xtick_1">
     <g id="line2d_1">
      <defs>
       <path d="M 0 0 
L 0 3.5 
" id="m9c69ac0c0f" style="stroke:#000000;stroke-width:0.8;"/>
      </defs>
      <g>
       <use style="stroke:#000000;stroke-width:0.8;" x="92.15608" xlink:href="#m9c69ac0c0f" y="288.430125"/>
      </g>
     </g>
     <g id="text_1">
      <!-- 15m -->
      <g transform="translate(80.923267 303.028562)scale(0.1 -0.1)">
       <defs>
        <path d="M 794 531 
L 1825 531 
L 1825 4091 
L 703 3866 
L 703 4441 
L 1819 4666 
L 2450 4666 
L 2450 531 
L 3481 531 
L 3481 0 
L 794 0 
L 794 531 
z
" id="DejaVuSans-31" transform="scale(0.015625)"/>
        <path d="M 691 4666 
L 3169 4666 
L 3169 4134 
L 1269 4134 
L 1269 2991 
Q 1406 3038 1543 3061 
Q 1681 3084 1819 3084 
Q 2600 3084 3056 2656 
Q 3513 2228 3513 1497 
Q 3513 744 3044 326 
Q 2575 -91 1722 -91 
Q 1428 -91 1123 -41 
Q 819 9 494 109 
L 494 744 
Q 775 591 1075 516 
Q 1375 441 1709 441 
Q 2250 441 2565 725 
Q 2881 1009 2881 1497 
Q 2881 1984 2565 2268 
Q 2250 2553 1709 2553 
Q 1456 2553 1204 2497 
Q 953 2441 691 2322 
L 691 4666 
z
" id="DejaVuSans-35" transform="scale(0.015625)"/>
        <path d="M 3328 2828 
Q 3544 3216 3844 3400 
Q 4144 3584 4550 3584 
Q 5097 3584 5394 3201 
Q 5691 2819 5691 2113 
L 5691 0 
L 5113 0 
L 5113 2094 
Q 5113 2597 4934 2840 
Q 4756 3084 4391 3084 
Q 3944 3084 3684 2787 
Q 3425 2491 3425 1978 
L 3425 0 
L 2847 0 
L 2847 2094 
Q 2847 2600 2669 2842 
Q 2491 3084 2119 3084 
Q 1678 3084 1418 2786 
Q 1159 2488 1159 1978 
L 1159 0 
L 581 0 
L 581 3500 
L 1159 3500 
L 1159 2956 
Q 1356 3278 1631 3431 
Q 1906 3584 2284 3584 
Q 2666 3584 2933 3390 
Q 3200 3197 3328 2828 
z
" id="DejaVuSans-6d" transform="scale(0.015625)"/>
       </defs>
       <use xlink:href="#DejaVuSans-31"/>
       <use x="63.623047" xlink:href="#DejaVuSans-35"/>
       <use x="127.246094" xlink:href="#DejaVuSans-6d"/>
      </g>
     </g>
    </g>
    <g id="xtick_2">
     <g id="line2d_2">
      <g>
       <use style="stroke:#000000;stroke-width:0.8;" x="146.83474" xlink:href="#m9c69ac0c0f" y="288.430125"/>
      </g>
     </g>
     <g id="text_2">
      <!-- 2h:15m -->
      <g transform="translate(127.567552 303.028562)scale(0.1 -0.1)">
       <defs>
        <path d="M 1228 531 
L 3431 531 
L 3431 0 
L 469 0 
L 469 531 
Q 828 903 1448 1529 
Q 2069 2156 2228 2338 
Q 2531 2678 2651 2914 
Q 2772 3150 2772 3378 
Q 2772 3750 2511 3984 
Q 2250 4219 1831 4219 
Q 1534 4219 1204 4116 
Q 875 4013 500 3803 
L 500 4441 
Q 881 4594 1212 4672 
Q 1544 4750 1819 4750 
Q 2544 4750 2975 4387 
Q 3406 4025 3406 3419 
Q 3406 3131 3298 2873 
Q 3191 2616 2906 2266 
Q 2828 2175 2409 1742 
Q 1991 1309 1228 531 
z
" id="DejaVuSans-32" transform="scale(0.015625)"/>
        <path d="M 3513 2113 
L 3513 0 
L 2938 0 
L 2938 2094 
Q 2938 2591 2744 2837 
Q 2550 3084 2163 3084 
Q 1697 3084 1428 2787 
Q 1159 2491 1159 1978 
L 1159 0 
L 581 0 
L 581 4863 
L 1159 4863 
L 1159 2956 
Q 1366 3272 1645 3428 
Q 1925 3584 2291 3584 
Q 2894 3584 3203 3211 
Q 3513 2838 3513 2113 
z
" id="DejaVuSans-68" transform="scale(0.015625)"/>
        <path d="M 750 794 
L 1409 794 
L 1409 0 
L 750 0 
L 750 794 
z
M 750 3309 
L 1409 3309 
L 1409 2516 
L 750 2516 
L 750 3309 
z
" id="DejaVuSans-3a" transform="scale(0.015625)"/>
       </defs>
       <use xlink:href="#DejaVuSans-32"/>
       <use x="63.623047" xlink:href="#DejaVuSans-68"/>
       <use x="127.001953" xlink:href="#DejaVuSans-3a"/>
       <use x="160.693359" xlink:href="#DejaVuSans-31"/>
       <use x="224.316406" xlink:href="#DejaVuSans-35"/>
       <use x="287.939453" xlink:href="#DejaVuSans-6d"/>
      </g>
     </g>
    </g>
    <g id="xtick_3">
     <g id="line2d_3">
      <g>
       <use style="stroke:#000000;stroke-width:0.8;" x="201.5134" xlink:href="#m9c69ac0c0f" y="288.430125"/>
      </g>
     </g>
     <g id="text_3">
      <!-- 4h:15m -->
      <g transform="translate(182.246213 303.028562)scale(0.1 -0.1)">
       <defs>
        <path d="M 2419 4116 
L 825 1625 
L 2419 1625 
L 2419 4116 
z
M 2253 4666 
L 3047 4666 
L 3047 1625 
L 3713 1625 
L 3713 1100 
L 3047 1100 
L 3047 0 
L 2419 0 
L 2419 1100 
L 313 1100 
L 313 1709 
L 2253 4666 
z
" id="DejaVuSans-34" transform="scale(0.015625)"/>
       </defs>
       <use xlink:href="#DejaVuSans-34"/>
       <use x="63.623047" xlink:href="#DejaVuSans-68"/>
       <use x="127.001953" xlink:href="#DejaVuSans-3a"/>
       <use x="160.693359" xlink:href="#DejaVuSans-31"/>
       <use x="224.316406" xlink:href="#DejaVuSans-35"/>
       <use x="287.939453" xlink:href="#DejaVuSans-6d"/>
      </g>
     </g>
    </g>
    <g id="xtick_4">
     <g id="line2d_4">
      <g>
       <use style="stroke:#000000;stroke-width:0.8;" x="256.19206" xlink:href="#m9c69ac0c0f" y="288.430125"/>
      </g>
     </g>
     <g id="text_4">
      <!-- 6h:15m -->
      <g transform="translate(236.924873 303.028562)scale(0.1 -0.1)">
       <defs>
        <path d="M 2113 2584 
Q 1688 2584 1439 2293 
Q 1191 2003 1191 1497 
Q 1191 994 1439 701 
Q 1688 409 2113 409 
Q 2538 409 2786 701 
Q 3034 994 3034 1497 
Q 3034 2003 2786 2293 
Q 2538 2584 2113 2584 
z
M 3366 4563 
L 3366 3988 
Q 3128 4100 2886 4159 
Q 2644 4219 2406 4219 
Q 1781 4219 1451 3797 
Q 1122 3375 1075 2522 
Q 1259 2794 1537 2939 
Q 1816 3084 2150 3084 
Q 2853 3084 3261 2657 
Q 3669 2231 3669 1497 
Q 3669 778 3244 343 
Q 2819 -91 2113 -91 
Q 1303 -91 875 529 
Q 447 1150 447 2328 
Q 447 3434 972 4092 
Q 1497 4750 2381 4750 
Q 2619 4750 2861 4703 
Q 3103 4656 3366 4563 
z
" id="DejaVuSans-36" transform="scale(0.015625)"/>
       </defs>
       <use xlink:href="#DejaVuSans-36"/>
       <use x="63.623047" xlink:href="#DejaVuSans-68"/>
       <use x="127.001953" xlink:href="#DejaVuSans-3a"/>
       <use x="160.693359" xlink:href="#DejaVuSans-31"/>
       <use x="224.316406" xlink:href="#DejaVuSans-35"/>
       <use x="287.939453" xlink:href="#DejaVuSans-6d"/>
      </g>
     </g>
    </g>
    <g id="xtick_5">
     <g id="line2d_5">
      <g>
       <use style="stroke:#000000;stroke-width:0.8;" x="310.870721" xlink:href="#m9c69ac0c0f" y="288.430125"/>
      </g>
     </g>
     <g id="text_5">
      <!-- 8h:15m -->
      <g transform="translate(291.603533 303.028562)scale(0.1 -0.1)">
       <defs>
        <path d="M 2034 2216 
Q 1584 2216 1326 1975 
Q 1069 1734 1069 1313 
Q 1069 891 1326 650 
Q 1584 409 2034 409 
Q 2484 409 2743 651 
Q 3003 894 3003 1313 
Q 3003 1734 2745 1975 
Q 2488 2216 2034 2216 
z
M 1403 2484 
Q 997 2584 770 2862 
Q 544 3141 544 3541 
Q 544 4100 942 4425 
Q 1341 4750 2034 4750 
Q 2731 4750 3128 4425 
Q 3525 4100 3525 3541 
Q 3525 3141 3298 2862 
Q 3072 2584 2669 2484 
Q 3125 2378 3379 2068 
Q 3634 1759 3634 1313 
Q 3634 634 3220 271 
Q 2806 -91 2034 -91 
Q 1263 -91 848 271 
Q 434 634 434 1313 
Q 434 1759 690 2068 
Q 947 2378 1403 2484 
z
M 1172 3481 
Q 1172 3119 1398 2916 
Q 1625 2713 2034 2713 
Q 2441 2713 2670 2916 
Q 2900 3119 2900 3481 
Q 2900 3844 2670 4047 
Q 2441 4250 2034 4250 
Q 1625 4250 1398 4047 
Q 1172 3844 1172 3481 
z
" id="DejaVuSans-38" transform="scale(0.015625)"/>
       </defs>
       <use xlink:href="#DejaVuSans-38"/>
       <use x="63.623047" xlink:href="#DejaVuSans-68"/>
       <use x="127.001953" xlink:href="#DejaVuSans-3a"/>
       <use x="160.693359" xlink:href="#DejaVuSans-31"/>
       <use x="224.316406" xlink:href="#DejaVuSans-35"/>
       <use x="287.939453" xlink:href="#DejaVuSans-6d"/>
      </g>
     </g>
    </g>
    <g id="xtick_6">
     <g id="line2d_6">
      <g>
       <use style="stroke:#000000;stroke-width:0.8;" x="365.549381" xlink:href="#m9c69ac0c0f" y="288.430125"/>
      </g>
     </g>
     <g id="text_6">
      <!-- 10h:15m -->
      <g transform="translate(343.100943 303.028562)scale(0.1 -0.1)">
       <defs>
        <path d="M 2034 4250 
Q 1547 4250 1301 3770 
Q 1056 3291 1056 2328 
Q 1056 1369 1301 889 
Q 1547 409 2034 409 
Q 2525 409 2770 889 
Q 3016 1369 3016 2328 
Q 3016 3291 2770 3770 
Q 2525 4250 2034 4250 
z
M 2034 4750 
Q 2819 4750 3233 4129 
Q 3647 3509 3647 2328 
Q 3647 1150 3233 529 
Q 2819 -91 2034 -91 
Q 1250 -91 836 529 
Q 422 1150 422 2328 
Q 422 3509 836 4129 
Q 1250 4750 2034 4750 
z
" id="DejaVuSans-30" transform="scale(0.015625)"/>
       </defs>
       <use xlink:href="#DejaVuSans-31"/>
       <use x="63.623047" xlink:href="#DejaVuSans-30"/>
       <use x="127.246094" xlink:href="#DejaVuSans-68"/>
       <use x="190.625" xlink:href="#DejaVuSans-3a"/>
       <use x="224.316406" xlink:href="#DejaVuSans-31"/>
       <use x="287.939453" xlink:href="#DejaVuSans-35"/>
       <use x="351.5625" xlink:href="#DejaVuSans-6d"/>
      </g>
     </g>
    </g>
    <g id="xtick_7">
     <g id="line2d_7">
      <g>
       <use style="stroke:#000000;stroke-width:0.8;" x="420.228041" xlink:href="#m9c69ac0c0f" y="288.430125"/>
      </g>
     </g>
     <g id="text_7">
      <!-- 12h:15m -->
      <g transform="translate(397.779604 303.028562)scale(0.1 -0.1)">
       <use xlink:href="#DejaVuSans-31"/>
       <use x="63.623047" xlink:href="#DejaVuSans-32"/>
       <use x="127.246094" xlink:href="#DejaVuSans-68"/>
       <use x="190.625" xlink:href="#DejaVuSans-3a"/>
       <use x="224.316406" xlink:href="#DejaVuSans-31"/>
       <use x="287.939453" xlink:href="#DejaVuSans-35"/>
       <use x="351.5625" xlink:href="#DejaVuSans-6d"/>
      </g>
     </g>
    </g>
    <g id="xtick_8">
     <g id="line2d_8">
      <g>
       <use style="stroke:#000000;stroke-width:0.8;" x="474.906702" xlink:href="#m9c69ac0c0f" y="288.430125"/>
      </g>
     </g>
     <g id="text_8">
      <!-- 14h:15m -->
      <g transform="translate(452.458264 303.028562)scale(0.1 -0.1)">
       <use xlink:href="#DejaVuSans-31"/>
       <use x="63.623047" xlink:href="#DejaVuSans-34"/>
       <use x="127.246094" xlink:href="#DejaVuSans-68"/>
       <use x="190.625" xlink:href="#DejaVuSans-3a"/>
       <use x="224.316406" xlink:href="#DejaVuSans-31"/>
       <use x="287.939453" xlink:href="#DejaVuSans-35"/>
       <use x="351.5625" xlink:href="#DejaVuSans-6d"/>
      </g>
     </g>
    </g>
    <g id="xtick_9">
     <g id="line2d_9">
      <g>
       <use style="stroke:#000000;stroke-width:0.8;" x="529.585362" xlink:href="#m9c69ac0c0f" y="288.430125"/>
      </g>
     </g>
     <g id="text_9">
      <!-- 16h:15m -->
      <g transform="translate(507.136924 303.028562)scale(0.1 -0.1)">
       <use xlink:href="#DejaVuSans-31"/>
       <use x="63.623047" xlink:href="#DejaVuSans-36"/>
       <use x="127.246094" xlink:href="#DejaVuSans-68"/>
       <use x="190.625" xlink:href="#DejaVuSans-3a"/>
       <use x="224.316406" xlink:href="#DejaVuSans-31"/>
       <use x="287.939453" xlink:href="#DejaVuSans-35"/>
       <use x="351.5625" xlink:href="#DejaVuSans-6d"/>
      </g>
     </g>
    </g>
    <g id="xtick_10">
     <g id="line2d_10">
      <g>
       <use style="stroke:#000000;stroke-width:0.8;" x="584.264022" xlink:href="#m9c69ac0c0f" y="288.430125"/>
      </g>
     </g>
     <g id="text_10">
      <!-- 18h:15m -->
      <g transform="translate(561.815585 303.028562)scale(0.1 -0.1)">
       <use xlink:href="#DejaVuSans-31"/>
       <use x="63.623047" xlink:href="#DejaVuSans-38"/>
       <use x="127.246094" xlink:href="#DejaVuSans-68"/>
       <use x="190.625" xlink:href="#DejaVuSans-3a"/>
       <use x="224.316406" xlink:href="#DejaVuSans-31"/>
       <use x="287.939453" xlink:href="#DejaVuSans-35"/>
       <use x="351.5625" xlink:href="#DejaVuSans-6d"/>
      </g>
     </g>
    </g>
    <g id="xtick_11">
     <g id="line2d_11">
      <g>
       <use style="stroke:#000000;stroke-width:0.8;" x="638.942682" xlink:href="#m9c69ac0c0f" y="288.430125"/>
      </g>
     </g>
     <g id="text_11">
      <!-- 20h:15m -->
      <g transform="translate(616.494245 303.028562)scale(0.1 -0.1)">
       <use xlink:href="#DejaVuSans-32"/>
       <use x="63.623047" xlink:href="#DejaVuSans-30"/>
       <use x="127.246094" xlink:href="#DejaVuSans-68"/>
       <use x="190.625" xlink:href="#DejaVuSans-3a"/>
       <use x="224.316406" xlink:href="#DejaVuSans-31"/>
       <use x="287.939453" xlink:href="#DejaVuSans-35"/>
       <use x="351.5625" xlink:href="#DejaVuSans-6d"/>
      </g>
     </g>
    </g>
    <g id="xtick_12">
     <g id="line2d_12">
      <g>
       <use style="stroke:#000000;stroke-width:0.8;" x="693.621343" xlink:href="#m9c69ac0c0f" y="288.430125"/>
      </g>
     </g>
     <g id="text_12">
      <!-- 22h:15m -->
      <g transform="translate(671.172905 303.028562)scale(0.1 -0.1)">
       <use xlink:href="#DejaVuSans-32"/>
       <use x="63.623047" xlink:href="#DejaVuSans-32"/>
       <use x="127.246094" xlink:href="#DejaVuSans-68"/>
       <use x="190.625" xlink:href="#DejaVuSans-3a"/>
       <use x="224.316406" xlink:href="#DejaVuSans-31"/>
       <use x="287.939453" xlink:href="#DejaVuSans-35"/>
       <use x="351.5625" xlink:href="#DejaVuSans-6d"/>
      </g>
     </g>
    </g>
    <g id="text_13">
     <!-- Time (hour:minute) -->
     <g transform="translate(368.403594 316.706687)scale(0.1 -0.1)">
      <defs>
       <path d="M -19 4666 
L 3928 4666 
L 3928 4134 
L 2272 4134 
L 2272 0 
L 1638 0 
L 1638 4134 
L -19 4134 
L -19 4666 
z
" id="DejaVuSans-54" transform="scale(0.015625)"/>
       <path d="M 603 3500 
L 1178 3500 
L 1178 0 
L 603 0 
L 603 3500 
z
M 603 4863 
L 1178 4863 
L 1178 4134 
L 603 4134 
L 603 4863 
z
" id="DejaVuSans-69" transform="scale(0.015625)"/>
       <path d="M 3597 1894 
L 3597 1613 
L 953 1613 
Q 991 1019 1311 708 
Q 1631 397 2203 397 
Q 2534 397 2845 478 
Q 3156 559 3463 722 
L 3463 178 
Q 3153 47 2828 -22 
Q 2503 -91 2169 -91 
Q 1331 -91 842 396 
Q 353 884 353 1716 
Q 353 2575 817 3079 
Q 1281 3584 2069 3584 
Q 2775 3584 3186 3129 
Q 3597 2675 3597 1894 
z
M 3022 2063 
Q 3016 2534 2758 2815 
Q 2500 3097 2075 3097 
Q 1594 3097 1305 2825 
Q 1016 2553 972 2059 
L 3022 2063 
z
" id="DejaVuSans-65" transform="scale(0.015625)"/>
       <path id="DejaVuSans-20" transform="scale(0.015625)"/>
       <path d="M 1984 4856 
Q 1566 4138 1362 3434 
Q 1159 2731 1159 2009 
Q 1159 1288 1364 580 
Q 1569 -128 1984 -844 
L 1484 -844 
Q 1016 -109 783 600 
Q 550 1309 550 2009 
Q 550 2706 781 3412 
Q 1013 4119 1484 4856 
L 1984 4856 
z
" id="DejaVuSans-28" transform="scale(0.015625)"/>
       <path d="M 1959 3097 
Q 1497 3097 1228 2736 
Q 959 2375 959 1747 
Q 959 1119 1226 758 
Q 1494 397 1959 397 
Q 2419 397 2687 759 
Q 2956 1122 2956 1747 
Q 2956 2369 2687 2733 
Q 2419 3097 1959 3097 
z
M 1959 3584 
Q 2709 3584 3137 3096 
Q 3566 2609 3566 1747 
Q 3566 888 3137 398 
Q 2709 -91 1959 -91 
Q 1206 -91 779 398 
Q 353 888 353 1747 
Q 353 2609 779 3096 
Q 1206 3584 1959 3584 
z
" id="DejaVuSans-6f" transform="scale(0.015625)"/>
       <path d="M 544 1381 
L 544 3500 
L 1119 3500 
L 1119 1403 
Q 1119 906 1312 657 
Q 1506 409 1894 409 
Q 2359 409 2629 706 
Q 2900 1003 2900 1516 
L 2900 3500 
L 3475 3500 
L 3475 0 
L 2900 0 
L 2900 538 
Q 2691 219 2414 64 
Q 2138 -91 1772 -91 
Q 1169 -91 856 284 
Q 544 659 544 1381 
z
M 1991 3584 
L 1991 3584 
z
" id="DejaVuSans-75" transform="scale(0.015625)"/>
       <path d="M 2631 2963 
Q 2534 3019 2420 3045 
Q 2306 3072 2169 3072 
Q 1681 3072 1420 2755 
Q 1159 2438 1159 1844 
L 1159 0 
L 581 0 
L 581 3500 
L 1159 3500 
L 1159 2956 
Q 1341 3275 1631 3429 
Q 1922 3584 2338 3584 
Q 2397 3584 2469 3576 
Q 2541 3569 2628 3553 
L 2631 2963 
z
" id="DejaVuSans-72" transform="scale(0.015625)"/>
       <path d="M 3513 2113 
L 3513 0 
L 2938 0 
L 2938 2094 
Q 2938 2591 2744 2837 
Q 2550 3084 2163 3084 
Q 1697 3084 1428 2787 
Q 1159 2491 1159 1978 
L 1159 0 
L 581 0 
L 581 3500 
L 1159 3500 
L 1159 2956 
Q 1366 3272 1645 3428 
Q 1925 3584 2291 3584 
Q 2894 3584 3203 3211 
Q 3513 2838 3513 2113 
z
" id="DejaVuSans-6e" transform="scale(0.015625)"/>
       <path d="M 1172 4494 
L 1172 3500 
L 2356 3500 
L 2356 3053 
L 1172 3053 
L 1172 1153 
Q 1172 725 1289 603 
Q 1406 481 1766 481 
L 2356 481 
L 2356 0 
L 1766 0 
Q 1100 0 847 248 
Q 594 497 594 1153 
L 594 3053 
L 172 3053 
L 172 3500 
L 594 3500 
L 594 4494 
L 1172 4494 
z
" id="DejaVuSans-74" transform="scale(0.015625)"/>
       <path d="M 513 4856 
L 1013 4856 
Q 1481 4119 1714 3412 
Q 1947 2706 1947 2009 
Q 1947 1309 1714 600 
Q 1481 -109 1013 -844 
L 513 -844 
Q 928 -128 1133 580 
Q 1338 1288 1338 2009 
Q 1338 2731 1133 3434 
Q 928 4138 513 4856 
z
" id="DejaVuSans-29" transform="scale(0.015625)"/>
      </defs>
      <use xlink:href="#DejaVuSans-54"/>
      <use x="57.958984" xlink:href="#DejaVuSans-69"/>
      <use x="85.742188" xlink:href="#DejaVuSans-6d"/>
      <use x="183.154297" xlink:href="#DejaVuSans-65"/>
      <use x="244.677734" xlink:href="#DejaVuSans-20"/>
      <use x="276.464844" xlink:href="#DejaVuSans-28"/>
      <use x="315.478516" xlink:href="#DejaVuSans-68"/>
      <use x="378.857422" xlink:href="#DejaVuSans-6f"/>
      <use x="440.039062" xlink:href="#DejaVuSans-75"/>
      <use x="503.417969" xlink:href="#DejaVuSans-72"/>
      <use x="542.78125" xlink:href="#DejaVuSans-3a"/>
      <use x="576.472656" xlink:href="#DejaVuSans-6d"/>
      <use x="673.884766" xlink:href="#DejaVuSans-69"/>
      <use x="701.667969" xlink:href="#DejaVuSans-6e"/>
      <use x="765.046875" xlink:href="#DejaVuSans-75"/>
      <use x="828.425781" xlink:href="#DejaVuSans-74"/>
      <use x="867.634766" xlink:href="#DejaVuSans-65"/>
      <use x="929.158203" xlink:href="#DejaVuSans-29"/>
     </g>
    </g>
   </g>
   <g id="matplotlib.axis_2">
    <g id="ytick_1">
     <g id="line2d_13">
      <defs>
       <path d="M 0 0 
L -3.5 0 
" id="m4c6a251680" style="stroke:#000000;stroke-width:0.8;"/>
      </defs>
      <g>
       <use style="stroke:#000000;stroke-width:0.8;" x="59.690625" xlink:href="#m4c6a251680" y="255.332239"/>
      </g>
     </g>
     <g id="text_14">
      <!-- 18000 -->
      <g transform="translate(20.878125 259.131458)scale(0.1 -0.1)">
       <use xlink:href="#DejaVuSans-31"/>
       <use x="63.623047" xlink:href="#DejaVuSans-38"/>
       <use x="127.246094" xlink:href="#DejaVuSans-30"/>
       <use x="190.869141" xlink:href="#DejaVuSans-30"/>
       <use x="254.492188" xlink:href="#DejaVuSans-30"/>
      </g>
     </g>
    </g>
    <g id="ytick_2">
     <g id="line2d_14">
      <g>
       <use style="stroke:#000000;stroke-width:0.8;" x="59.690625" xlink:href="#m4c6a251680" y="219.122091"/>
      </g>
     </g>
     <g id="text_15">
      <!-- 20000 -->
      <g transform="translate(20.878125 222.92131)scale(0.1 -0.1)">
       <use xlink:href="#DejaVuSans-32"/>
       <use x="63.623047" xlink:href="#DejaVuSans-30"/>
       <use x="127.246094" xlink:href="#DejaVuSans-30"/>
       <use x="190.869141" xlink:href="#DejaVuSans-30"/>
       <use x="254.492188" xlink:href="#DejaVuSans-30"/>
      </g>
     </g>
    </g>
    <g id="ytick_3">
     <g id="line2d_15">
      <g>
       <use style="stroke:#000000;stroke-width:0.8;" x="59.690625" xlink:href="#m4c6a251680" y="182.911943"/>
      </g>
     </g>
     <g id="text_16">
      <!-- 22000 -->
      <g transform="translate(20.878125 186.711161)scale(0.1 -0.1)">
       <use xlink:href="#DejaVuSans-32"/>
       <use x="63.623047" xlink:href="#DejaVuSans-32"/>
       <use x="127.246094" xlink:href="#DejaVuSans-30"/>
       <use x="190.869141" xlink:href="#DejaVuSans-30"/>
       <use x="254.492188" xlink:href="#DejaVuSans-30"/>
      </g>
     </g>
    </g>
    <g id="ytick_4">
     <g id="line2d_16">
      <g>
       <use style="stroke:#000000;stroke-width:0.8;" x="59.690625" xlink:href="#m4c6a251680" y="146.701795"/>
      </g>
     </g>
     <g id="text_17">
      <!-- 24000 -->
      <g transform="translate(20.878125 150.501013)scale(0.1 -0.1)">
       <use xlink:href="#DejaVuSans-32"/>
       <use x="63.623047" xlink:href="#DejaVuSans-34"/>
       <use x="127.246094" xlink:href="#DejaVuSans-30"/>
       <use x="190.869141" xlink:href="#DejaVuSans-30"/>
       <use x="254.492188" xlink:href="#DejaVuSans-30"/>
      </g>
     </g>
    </g>
    <g id="ytick_5">
     <g id="line2d_17">
      <g>
       <use style="stroke:#000000;stroke-width:0.8;" x="59.690625" xlink:href="#m4c6a251680" y="110.491646"/>
      </g>
     </g>
     <g id="text_18">
      <!-- 26000 -->
      <g transform="translate(20.878125 114.290865)scale(0.1 -0.1)">
       <use xlink:href="#DejaVuSans-32"/>
       <use x="63.623047" xlink:href="#DejaVuSans-36"/>
       <use x="127.246094" xlink:href="#DejaVuSans-30"/>
       <use x="190.869141" xlink:href="#DejaVuSans-30"/>
       <use x="254.492188" xlink:href="#DejaVuSans-30"/>
      </g>
     </g>
    </g>
    <g id="ytick_6">
     <g id="line2d_18">
      <g>
       <use style="stroke:#000000;stroke-width:0.8;" x="59.690625" xlink:href="#m4c6a251680" y="74.281498"/>
      </g>
     </g>
     <g id="text_19">
      <!-- 28000 -->
      <g transform="translate(20.878125 78.080717)scale(0.1 -0.1)">
       <use xlink:href="#DejaVuSans-32"/>
       <use x="63.623047" xlink:href="#DejaVuSans-38"/>
       <use x="127.246094" xlink:href="#DejaVuSans-30"/>
       <use x="190.869141" xlink:href="#DejaVuSans-30"/>
       <use x="254.492188" xlink:href="#DejaVuSans-30"/>
      </g>
     </g>
    </g>
    <g id="ytick_7">
     <g id="line2d_19">
      <g>
       <use style="stroke:#000000;stroke-width:0.8;" x="59.690625" xlink:href="#m4c6a251680" y="38.07135"/>
      </g>
     </g>
     <g id="text_20">
      <!-- 30000 -->
      <g transform="translate(20.878125 41.870569)scale(0.1 -0.1)">
       <defs>
        <path d="M 2597 2516 
Q 3050 2419 3304 2112 
Q 3559 1806 3559 1356 
Q 3559 666 3084 287 
Q 2609 -91 1734 -91 
Q 1441 -91 1130 -33 
Q 819 25 488 141 
L 488 750 
Q 750 597 1062 519 
Q 1375 441 1716 441 
Q 2309 441 2620 675 
Q 2931 909 2931 1356 
Q 2931 1769 2642 2001 
Q 2353 2234 1838 2234 
L 1294 2234 
L 1294 2753 
L 1863 2753 
Q 2328 2753 2575 2939 
Q 2822 3125 2822 3475 
Q 2822 3834 2567 4026 
Q 2313 4219 1838 4219 
Q 1578 4219 1281 4162 
Q 984 4106 628 3988 
L 628 4550 
Q 988 4650 1302 4700 
Q 1616 4750 1894 4750 
Q 2613 4750 3031 4423 
Q 3450 4097 3450 3541 
Q 3450 3153 3228 2886 
Q 3006 2619 2597 2516 
z
" id="DejaVuSans-33" transform="scale(0.015625)"/>
       </defs>
       <use xlink:href="#DejaVuSans-33"/>
       <use x="63.623047" xlink:href="#DejaVuSans-30"/>
       <use x="127.246094" xlink:href="#DejaVuSans-30"/>
       <use x="190.869141" xlink:href="#DejaVuSans-30"/>
       <use x="254.492188" xlink:href="#DejaVuSans-30"/>
      </g>
     </g>
    </g>
    <g id="text_21">
     <!-- Code branch coverage -->
     <g transform="translate(14.798438 211.949125)rotate(-90)scale(0.1 -0.1)">
      <defs>
       <path d="M 4122 4306 
L 4122 3641 
Q 3803 3938 3442 4084 
Q 3081 4231 2675 4231 
Q 1875 4231 1450 3742 
Q 1025 3253 1025 2328 
Q 1025 1406 1450 917 
Q 1875 428 2675 428 
Q 3081 428 3442 575 
Q 3803 722 4122 1019 
L 4122 359 
Q 3791 134 3420 21 
Q 3050 -91 2638 -91 
Q 1578 -91 968 557 
Q 359 1206 359 2328 
Q 359 3453 968 4101 
Q 1578 4750 2638 4750 
Q 3056 4750 3426 4639 
Q 3797 4528 4122 4306 
z
" id="DejaVuSans-43" transform="scale(0.015625)"/>
       <path d="M 2906 2969 
L 2906 4863 
L 3481 4863 
L 3481 0 
L 2906 0 
L 2906 525 
Q 2725 213 2448 61 
Q 2172 -91 1784 -91 
Q 1150 -91 751 415 
Q 353 922 353 1747 
Q 353 2572 751 3078 
Q 1150 3584 1784 3584 
Q 2172 3584 2448 3432 
Q 2725 3281 2906 2969 
z
M 947 1747 
Q 947 1113 1208 752 
Q 1469 391 1925 391 
Q 2381 391 2643 752 
Q 2906 1113 2906 1747 
Q 2906 2381 2643 2742 
Q 2381 3103 1925 3103 
Q 1469 3103 1208 2742 
Q 947 2381 947 1747 
z
" id="DejaVuSans-64" transform="scale(0.015625)"/>
       <path d="M 3116 1747 
Q 3116 2381 2855 2742 
Q 2594 3103 2138 3103 
Q 1681 3103 1420 2742 
Q 1159 2381 1159 1747 
Q 1159 1113 1420 752 
Q 1681 391 2138 391 
Q 2594 391 2855 752 
Q 3116 1113 3116 1747 
z
M 1159 2969 
Q 1341 3281 1617 3432 
Q 1894 3584 2278 3584 
Q 2916 3584 3314 3078 
Q 3713 2572 3713 1747 
Q 3713 922 3314 415 
Q 2916 -91 2278 -91 
Q 1894 -91 1617 61 
Q 1341 213 1159 525 
L 1159 0 
L 581 0 
L 581 4863 
L 1159 4863 
L 1159 2969 
z
" id="DejaVuSans-62" transform="scale(0.015625)"/>
       <path d="M 2194 1759 
Q 1497 1759 1228 1600 
Q 959 1441 959 1056 
Q 959 750 1161 570 
Q 1363 391 1709 391 
Q 2188 391 2477 730 
Q 2766 1069 2766 1631 
L 2766 1759 
L 2194 1759 
z
M 3341 1997 
L 3341 0 
L 2766 0 
L 2766 531 
Q 2569 213 2275 61 
Q 1981 -91 1556 -91 
Q 1019 -91 701 211 
Q 384 513 384 1019 
Q 384 1609 779 1909 
Q 1175 2209 1959 2209 
L 2766 2209 
L 2766 2266 
Q 2766 2663 2505 2880 
Q 2244 3097 1772 3097 
Q 1472 3097 1187 3025 
Q 903 2953 641 2809 
L 641 3341 
Q 956 3463 1253 3523 
Q 1550 3584 1831 3584 
Q 2591 3584 2966 3190 
Q 3341 2797 3341 1997 
z
" id="DejaVuSans-61" transform="scale(0.015625)"/>
       <path d="M 3122 3366 
L 3122 2828 
Q 2878 2963 2633 3030 
Q 2388 3097 2138 3097 
Q 1578 3097 1268 2742 
Q 959 2388 959 1747 
Q 959 1106 1268 751 
Q 1578 397 2138 397 
Q 2388 397 2633 464 
Q 2878 531 3122 666 
L 3122 134 
Q 2881 22 2623 -34 
Q 2366 -91 2075 -91 
Q 1284 -91 818 406 
Q 353 903 353 1747 
Q 353 2603 823 3093 
Q 1294 3584 2113 3584 
Q 2378 3584 2631 3529 
Q 2884 3475 3122 3366 
z
" id="DejaVuSans-63" transform="scale(0.015625)"/>
       <path d="M 191 3500 
L 800 3500 
L 1894 563 
L 2988 3500 
L 3597 3500 
L 2284 0 
L 1503 0 
L 191 3500 
z
" id="DejaVuSans-76" transform="scale(0.015625)"/>
       <path d="M 2906 1791 
Q 2906 2416 2648 2759 
Q 2391 3103 1925 3103 
Q 1463 3103 1205 2759 
Q 947 2416 947 1791 
Q 947 1169 1205 825 
Q 1463 481 1925 481 
Q 2391 481 2648 825 
Q 2906 1169 2906 1791 
z
M 3481 434 
Q 3481 -459 3084 -895 
Q 2688 -1331 1869 -1331 
Q 1566 -1331 1297 -1286 
Q 1028 -1241 775 -1147 
L 775 -588 
Q 1028 -725 1275 -790 
Q 1522 -856 1778 -856 
Q 2344 -856 2625 -561 
Q 2906 -266 2906 331 
L 2906 616 
Q 2728 306 2450 153 
Q 2172 0 1784 0 
Q 1141 0 747 490 
Q 353 981 353 1791 
Q 353 2603 747 3093 
Q 1141 3584 1784 3584 
Q 2172 3584 2450 3431 
Q 2728 3278 2906 2969 
L 2906 3500 
L 3481 3500 
L 3481 434 
z
" id="DejaVuSans-67" transform="scale(0.015625)"/>
      </defs>
      <use xlink:href="#DejaVuSans-43"/>
      <use x="69.824219" xlink:href="#DejaVuSans-6f"/>
      <use x="131.005859" xlink:href="#DejaVuSans-64"/>
      <use x="194.482422" xlink:href="#DejaVuSans-65"/>
      <use x="256.005859" xlink:href="#DejaVuSans-20"/>
      <use x="287.792969" xlink:href="#DejaVuSans-62"/>
      <use x="351.269531" xlink:href="#DejaVuSans-72"/>
      <use x="392.382812" xlink:href="#DejaVuSans-61"/>
      <use x="453.662109" xlink:href="#DejaVuSans-6e"/>
      <use x="517.041016" xlink:href="#DejaVuSans-63"/>
      <use x="572.021484" xlink:href="#DejaVuSans-68"/>
      <use x="635.400391" xlink:href="#DejaVuSans-20"/>
      <use x="667.1875" xlink:href="#DejaVuSans-63"/>
      <use x="722.167969" xlink:href="#DejaVuSans-6f"/>
      <use x="783.349609" xlink:href="#DejaVuSans-76"/>
      <use x="842.529297" xlink:href="#DejaVuSans-65"/>
      <use x="904.052734" xlink:href="#DejaVuSans-72"/>
      <use x="945.166016" xlink:href="#DejaVuSans-61"/>
      <use x="1006.445312" xlink:href="#DejaVuSans-67"/>
      <use x="1069.921875" xlink:href="#DejaVuSans-65"/>
     </g>
    </g>
   </g>
   <g id="line2d_20">
    <path clip-path="url(#ped426b0583)" d="M 92.15608 253.612257 
L 98.990912 240.513236 
L 105.825745 225.368341 
L 112.660577 217.945261 
L 119.49541 209.689347 
L 126.330242 201.044174 
L 133.165075 193.774987 
L 139.999907 189.447874 
L 146.83474 182.767102 
L 153.669572 179.426716 
L 160.504405 177.616209 
L 167.339237 173.325306 
L 174.17407 169.885342 
L 181.008903 165.042235 
L 187.843735 163.159307 
L 194.678568 162.643312 
L 201.5134 157.899783 
L 208.348233 156.904004 
L 215.183065 155.881067 
L 222.017898 154.025297 
L 228.85273 153.681301 
L 235.687563 153.382567 
L 242.522395 153.101938 
L 249.357228 147.317367 
L 256.19206 146.575059 
L 263.026893 145.868961 
L 269.861725 144.855077 
L 276.696558 144.36624 
L 283.531391 142.972149 
L 290.366223 142.818256 
L 297.201056 142.211736 
L 304.035888 141.840582 
L 310.870721 136.5539 
L 317.705553 135.893065 
L 324.540386 135.23223 
L 331.375218 133.521301 
L 338.210051 133.023411 
L 345.044883 132.833308 
L 351.879716 132.000474 
L 358.714548 131.973317 
L 365.549381 130.488701 
L 372.384214 130.488701 
L 379.219046 130.262387 
L 386.053879 130.108494 
L 392.888711 130.036074 
L 399.723544 130.017969 
L 406.558376 129.764498 
L 413.393209 129.692077 
L 420.228041 129.692077 
L 427.062874 129.329976 
L 433.897706 129.320923 
L 440.732539 129.302818 
L 447.567371 129.230398 
L 454.402204 128.813981 
L 461.237036 128.768719 
L 468.071869 128.569563 
L 474.906702 128.569563 
L 481.741534 127.863465 
L 488.576367 125.020968 
L 495.411199 122.947937 
L 502.246032 121.807318 
L 509.080864 121.481426 
L 515.915697 120.675751 
L 522.750529 120.259334 
L 529.585362 120.087336 
L 536.420194 119.99681 
L 543.255027 118.159145 
L 550.089859 118.113883 
L 556.924692 115.226123 
L 563.759525 114.583393 
L 570.594357 114.248449 
L 577.42919 114.248449 
L 584.264022 114.248449 
L 591.098855 114.248449 
L 597.933687 114.248449 
L 604.76852 114.248449 
L 611.603352 114.248449 
L 618.438185 114.248449 
L 625.273017 113.515194 
L 632.10785 112.492257 
L 638.942682 112.428889 
L 645.777515 112.139208 
L 652.612347 111.867632 
L 659.44718 111.387847 
L 666.282013 110.292491 
L 673.116845 109.450605 
L 679.951678 109.387237 
L 686.78651 109.360079 
L 693.621343 108.844085 
L 700.456175 108.807874 
L 707.291008 108.780717 
L 714.12584 108.780717 
L 720.960673 108.699244 
L 727.795505 108.065566 
L 734.630338 108.020304 
L 741.46517 107.640097 
" style="fill:none;stroke:#1f77b4;stroke-linecap:square;stroke-width:1.5;"/>
    <defs>
     <path d="M 0 3 
C 0.795609 3 1.55874 2.683901 2.12132 2.12132 
C 2.683901 1.55874 3 0.795609 3 0 
C 3 -0.795609 2.683901 -1.55874 2.12132 -2.12132 
C 1.55874 -2.683901 0.795609 -3 0 -3 
C -0.795609 -3 -1.55874 -2.683901 -2.12132 -2.12132 
C -2.683901 -1.55874 -3 -0.795609 -3 0 
C -3 0.795609 -2.683901 1.55874 -2.12132 2.12132 
C -1.55874 2.683901 -0.795609 3 0 3 
z
" id="m434e43679f" style="stroke:#ffffff;stroke-width:0.75;"/>
    </defs>
    <g clip-path="url(#ped426b0583)">
     <use style="fill:#1f77b4;stroke:#ffffff;stroke-width:0.75;" x="92.15608" xlink:href="#m434e43679f" y="253.612257"/>
     <use style="fill:#1f77b4;stroke:#ffffff;stroke-width:0.75;" x="98.990912" xlink:href="#m434e43679f" y="240.513236"/>
     <use style="fill:#1f77b4;stroke:#ffffff;stroke-width:0.75;" x="105.825745" xlink:href="#m434e43679f" y="225.368341"/>
     <use style="fill:#1f77b4;stroke:#ffffff;stroke-width:0.75;" x="112.660577" xlink:href="#m434e43679f" y="217.945261"/>
     <use style="fill:#1f77b4;stroke:#ffffff;stroke-width:0.75;" x="119.49541" xlink:href="#m434e43679f" y="209.689347"/>
     <use style="fill:#1f77b4;stroke:#ffffff;stroke-width:0.75;" x="126.330242" xlink:href="#m434e43679f" y="201.044174"/>
     <use style="fill:#1f77b4;stroke:#ffffff;stroke-width:0.75;" x="133.165075" xlink:href="#m434e43679f" y="193.774987"/>
     <use style="fill:#1f77b4;stroke:#ffffff;stroke-width:0.75;" x="139.999907" xlink:href="#m434e43679f" y="189.447874"/>
     <use style="fill:#1f77b4;stroke:#ffffff;stroke-width:0.75;" x="146.83474" xlink:href="#m434e43679f" y="182.767102"/>
     <use style="fill:#1f77b4;stroke:#ffffff;stroke-width:0.75;" x="153.669572" xlink:href="#m434e43679f" y="179.426716"/>
     <use style="fill:#1f77b4;stroke:#ffffff;stroke-width:0.75;" x="160.504405" xlink:href="#m434e43679f" y="177.616209"/>
     <use style="fill:#1f77b4;stroke:#ffffff;stroke-width:0.75;" x="167.339237" xlink:href="#m434e43679f" y="173.325306"/>
     <use style="fill:#1f77b4;stroke:#ffffff;stroke-width:0.75;" x="174.17407" xlink:href="#m434e43679f" y="169.885342"/>
     <use style="fill:#1f77b4;stroke:#ffffff;stroke-width:0.75;" x="181.008903" xlink:href="#m434e43679f" y="165.042235"/>
     <use style="fill:#1f77b4;stroke:#ffffff;stroke-width:0.75;" x="187.843735" xlink:href="#m434e43679f" y="163.159307"/>
     <use style="fill:#1f77b4;stroke:#ffffff;stroke-width:0.75;" x="194.678568" xlink:href="#m434e43679f" y="162.643312"/>
     <use style="fill:#1f77b4;stroke:#ffffff;stroke-width:0.75;" x="201.5134" xlink:href="#m434e43679f" y="157.899783"/>
     <use style="fill:#1f77b4;stroke:#ffffff;stroke-width:0.75;" x="208.348233" xlink:href="#m434e43679f" y="156.904004"/>
     <use style="fill:#1f77b4;stroke:#ffffff;stroke-width:0.75;" x="215.183065" xlink:href="#m434e43679f" y="155.881067"/>
     <use style="fill:#1f77b4;stroke:#ffffff;stroke-width:0.75;" x="222.017898" xlink:href="#m434e43679f" y="154.025297"/>
     <use style="fill:#1f77b4;stroke:#ffffff;stroke-width:0.75;" x="228.85273" xlink:href="#m434e43679f" y="153.681301"/>
     <use style="fill:#1f77b4;stroke:#ffffff;stroke-width:0.75;" x="235.687563" xlink:href="#m434e43679f" y="153.382567"/>
     <use style="fill:#1f77b4;stroke:#ffffff;stroke-width:0.75;" x="242.522395" xlink:href="#m434e43679f" y="153.101938"/>
     <use style="fill:#1f77b4;stroke:#ffffff;stroke-width:0.75;" x="249.357228" xlink:href="#m434e43679f" y="147.317367"/>
     <use style="fill:#1f77b4;stroke:#ffffff;stroke-width:0.75;" x="256.19206" xlink:href="#m434e43679f" y="146.575059"/>
     <use style="fill:#1f77b4;stroke:#ffffff;stroke-width:0.75;" x="263.026893" xlink:href="#m434e43679f" y="145.868961"/>
     <use style="fill:#1f77b4;stroke:#ffffff;stroke-width:0.75;" x="269.861725" xlink:href="#m434e43679f" y="144.855077"/>
     <use style="fill:#1f77b4;stroke:#ffffff;stroke-width:0.75;" x="276.696558" xlink:href="#m434e43679f" y="144.36624"/>
     <use style="fill:#1f77b4;stroke:#ffffff;stroke-width:0.75;" x="283.531391" xlink:href="#m434e43679f" y="142.972149"/>
     <use style="fill:#1f77b4;stroke:#ffffff;stroke-width:0.75;" x="290.366223" xlink:href="#m434e43679f" y="142.818256"/>
     <use style="fill:#1f77b4;stroke:#ffffff;stroke-width:0.75;" x="297.201056" xlink:href="#m434e43679f" y="142.211736"/>
     <use style="fill:#1f77b4;stroke:#ffffff;stroke-width:0.75;" x="304.035888" xlink:href="#m434e43679f" y="141.840582"/>
     <use style="fill:#1f77b4;stroke:#ffffff;stroke-width:0.75;" x="310.870721" xlink:href="#m434e43679f" y="136.5539"/>
     <use style="fill:#1f77b4;stroke:#ffffff;stroke-width:0.75;" x="317.705553" xlink:href="#m434e43679f" y="135.893065"/>
     <use style="fill:#1f77b4;stroke:#ffffff;stroke-width:0.75;" x="324.540386" xlink:href="#m434e43679f" y="135.23223"/>
     <use style="fill:#1f77b4;stroke:#ffffff;stroke-width:0.75;" x="331.375218" xlink:href="#m434e43679f" y="133.521301"/>
     <use style="fill:#1f77b4;stroke:#ffffff;stroke-width:0.75;" x="338.210051" xlink:href="#m434e43679f" y="133.023411"/>
     <use style="fill:#1f77b4;stroke:#ffffff;stroke-width:0.75;" x="345.044883" xlink:href="#m434e43679f" y="132.833308"/>
     <use style="fill:#1f77b4;stroke:#ffffff;stroke-width:0.75;" x="351.879716" xlink:href="#m434e43679f" y="132.000474"/>
     <use style="fill:#1f77b4;stroke:#ffffff;stroke-width:0.75;" x="358.714548" xlink:href="#m434e43679f" y="131.973317"/>
     <use style="fill:#1f77b4;stroke:#ffffff;stroke-width:0.75;" x="365.549381" xlink:href="#m434e43679f" y="130.488701"/>
     <use style="fill:#1f77b4;stroke:#ffffff;stroke-width:0.75;" x="372.384214" xlink:href="#m434e43679f" y="130.488701"/>
     <use style="fill:#1f77b4;stroke:#ffffff;stroke-width:0.75;" x="379.219046" xlink:href="#m434e43679f" y="130.262387"/>
     <use style="fill:#1f77b4;stroke:#ffffff;stroke-width:0.75;" x="386.053879" xlink:href="#m434e43679f" y="130.108494"/>
     <use style="fill:#1f77b4;stroke:#ffffff;stroke-width:0.75;" x="392.888711" xlink:href="#m434e43679f" y="130.036074"/>
     <use style="fill:#1f77b4;stroke:#ffffff;stroke-width:0.75;" x="399.723544" xlink:href="#m434e43679f" y="130.017969"/>
     <use style="fill:#1f77b4;stroke:#ffffff;stroke-width:0.75;" x="406.558376" xlink:href="#m434e43679f" y="129.764498"/>
     <use style="fill:#1f77b4;stroke:#ffffff;stroke-width:0.75;" x="413.393209" xlink:href="#m434e43679f" y="129.692077"/>
     <use style="fill:#1f77b4;stroke:#ffffff;stroke-width:0.75;" x="420.228041" xlink:href="#m434e43679f" y="129.692077"/>
     <use style="fill:#1f77b4;stroke:#ffffff;stroke-width:0.75;" x="427.062874" xlink:href="#m434e43679f" y="129.329976"/>
     <use style="fill:#1f77b4;stroke:#ffffff;stroke-width:0.75;" x="433.897706" xlink:href="#m434e43679f" y="129.320923"/>
     <use style="fill:#1f77b4;stroke:#ffffff;stroke-width:0.75;" x="440.732539" xlink:href="#m434e43679f" y="129.302818"/>
     <use style="fill:#1f77b4;stroke:#ffffff;stroke-width:0.75;" x="447.567371" xlink:href="#m434e43679f" y="129.230398"/>
     <use style="fill:#1f77b4;stroke:#ffffff;stroke-width:0.75;" x="454.402204" xlink:href="#m434e43679f" y="128.813981"/>
     <use style="fill:#1f77b4;stroke:#ffffff;stroke-width:0.75;" x="461.237036" xlink:href="#m434e43679f" y="128.768719"/>
     <use style="fill:#1f77b4;stroke:#ffffff;stroke-width:0.75;" x="468.071869" xlink:href="#m434e43679f" y="128.569563"/>
     <use style="fill:#1f77b4;stroke:#ffffff;stroke-width:0.75;" x="474.906702" xlink:href="#m434e43679f" y="128.569563"/>
     <use style="fill:#1f77b4;stroke:#ffffff;stroke-width:0.75;" x="481.741534" xlink:href="#m434e43679f" y="127.863465"/>
     <use style="fill:#1f77b4;stroke:#ffffff;stroke-width:0.75;" x="488.576367" xlink:href="#m434e43679f" y="125.020968"/>
     <use style="fill:#1f77b4;stroke:#ffffff;stroke-width:0.75;" x="495.411199" xlink:href="#m434e43679f" y="122.947937"/>
     <use style="fill:#1f77b4;stroke:#ffffff;stroke-width:0.75;" x="502.246032" xlink:href="#m434e43679f" y="121.807318"/>
     <use style="fill:#1f77b4;stroke:#ffffff;stroke-width:0.75;" x="509.080864" xlink:href="#m434e43679f" y="121.481426"/>
     <use style="fill:#1f77b4;stroke:#ffffff;stroke-width:0.75;" x="515.915697" xlink:href="#m434e43679f" y="120.675751"/>
     <use style="fill:#1f77b4;stroke:#ffffff;stroke-width:0.75;" x="522.750529" xlink:href="#m434e43679f" y="120.259334"/>
     <use style="fill:#1f77b4;stroke:#ffffff;stroke-width:0.75;" x="529.585362" xlink:href="#m434e43679f" y="120.087336"/>
     <use style="fill:#1f77b4;stroke:#ffffff;stroke-width:0.75;" x="536.420194" xlink:href="#m434e43679f" y="119.99681"/>
     <use style="fill:#1f77b4;stroke:#ffffff;stroke-width:0.75;" x="543.255027" xlink:href="#m434e43679f" y="118.159145"/>
     <use style="fill:#1f77b4;stroke:#ffffff;stroke-width:0.75;" x="550.089859" xlink:href="#m434e43679f" y="118.113883"/>
     <use style="fill:#1f77b4;stroke:#ffffff;stroke-width:0.75;" x="556.924692" xlink:href="#m434e43679f" y="115.226123"/>
     <use style="fill:#1f77b4;stroke:#ffffff;stroke-width:0.75;" x="563.759525" xlink:href="#m434e43679f" y="114.583393"/>
     <use style="fill:#1f77b4;stroke:#ffffff;stroke-width:0.75;" x="570.594357" xlink:href="#m434e43679f" y="114.248449"/>
     <use style="fill:#1f77b4;stroke:#ffffff;stroke-width:0.75;" x="577.42919" xlink:href="#m434e43679f" y="114.248449"/>
     <use style="fill:#1f77b4;stroke:#ffffff;stroke-width:0.75;" x="584.264022" xlink:href="#m434e43679f" y="114.248449"/>
     <use style="fill:#1f77b4;stroke:#ffffff;stroke-width:0.75;" x="591.098855" xlink:href="#m434e43679f" y="114.248449"/>
     <use style="fill:#1f77b4;stroke:#ffffff;stroke-width:0.75;" x="597.933687" xlink:href="#m434e43679f" y="114.248449"/>
     <use style="fill:#1f77b4;stroke:#ffffff;stroke-width:0.75;" x="604.76852" xlink:href="#m434e43679f" y="114.248449"/>
     <use style="fill:#1f77b4;stroke:#ffffff;stroke-width:0.75;" x="611.603352" xlink:href="#m434e43679f" y="114.248449"/>
     <use style="fill:#1f77b4;stroke:#ffffff;stroke-width:0.75;" x="618.438185" xlink:href="#m434e43679f" y="114.248449"/>
     <use style="fill:#1f77b4;stroke:#ffffff;stroke-width:0.75;" x="625.273017" xlink:href="#m434e43679f" y="113.515194"/>
     <use style="fill:#1f77b4;stroke:#ffffff;stroke-width:0.75;" x="632.10785" xlink:href="#m434e43679f" y="112.492257"/>
     <use style="fill:#1f77b4;stroke:#ffffff;stroke-width:0.75;" x="638.942682" xlink:href="#m434e43679f" y="112.428889"/>
     <use style="fill:#1f77b4;stroke:#ffffff;stroke-width:0.75;" x="645.777515" xlink:href="#m434e43679f" y="112.139208"/>
     <use style="fill:#1f77b4;stroke:#ffffff;stroke-width:0.75;" x="652.612347" xlink:href="#m434e43679f" y="111.867632"/>
     <use style="fill:#1f77b4;stroke:#ffffff;stroke-width:0.75;" x="659.44718" xlink:href="#m434e43679f" y="111.387847"/>
     <use style="fill:#1f77b4;stroke:#ffffff;stroke-width:0.75;" x="666.282013" xlink:href="#m434e43679f" y="110.292491"/>
     <use style="fill:#1f77b4;stroke:#ffffff;stroke-width:0.75;" x="673.116845" xlink:href="#m434e43679f" y="109.450605"/>
     <use style="fill:#1f77b4;stroke:#ffffff;stroke-width:0.75;" x="679.951678" xlink:href="#m434e43679f" y="109.387237"/>
     <use style="fill:#1f77b4;stroke:#ffffff;stroke-width:0.75;" x="686.78651" xlink:href="#m434e43679f" y="109.360079"/>
     <use style="fill:#1f77b4;stroke:#ffffff;stroke-width:0.75;" x="693.621343" xlink:href="#m434e43679f" y="108.844085"/>
     <use style="fill:#1f77b4;stroke:#ffffff;stroke-width:0.75;" x="700.456175" xlink:href="#m434e43679f" y="108.807874"/>
     <use style="fill:#1f77b4;stroke:#ffffff;stroke-width:0.75;" x="707.291008" xlink:href="#m434e43679f" y="108.780717"/>
     <use style="fill:#1f77b4;stroke:#ffffff;stroke-width:0.75;" x="714.12584" xlink:href="#m434e43679f" y="108.780717"/>
     <use style="fill:#1f77b4;stroke:#ffffff;stroke-width:0.75;" x="720.960673" xlink:href="#m434e43679f" y="108.699244"/>
     <use style="fill:#1f77b4;stroke:#ffffff;stroke-width:0.75;" x="727.795505" xlink:href="#m434e43679f" y="108.065566"/>
     <use style="fill:#1f77b4;stroke:#ffffff;stroke-width:0.75;" x="734.630338" xlink:href="#m434e43679f" y="108.020304"/>
     <use style="fill:#1f77b4;stroke:#ffffff;stroke-width:0.75;" x="741.46517" xlink:href="#m434e43679f" y="107.640097"/>
    </g>
   </g>
   <g id="line2d_21">
    <path clip-path="url(#ped426b0583)" d="M 92.15608 245.148135 
L 98.990912 231.650802 
L 105.825745 215.365288 
L 112.660577 206.77443 
L 119.49541 202.365845 
L 126.330242 201.496801 
L 133.165075 199.260825 
L 139.999907 193.92888 
L 146.83474 193.195625 
L 153.669572 192.199846 
L 160.504405 190.769545 
L 167.339237 190.298813 
L 174.17407 190.027237 
L 181.008903 187.782208 
L 187.843735 186.985584 
L 194.678568 186.65064 
L 201.5134 186.288539 
L 208.348233 184.414664 
L 215.183065 183.898669 
L 222.017898 183.826249 
L 228.85273 183.264992 
L 235.687563 183.138256 
L 242.522395 180.295759 
L 249.357228 180.159971 
L 256.19206 179.517241 
L 263.026893 178.304201 
L 269.861725 178.077888 
L 276.696558 178.01452 
L 283.531391 175.144866 
L 290.366223 171.532904 
L 297.201056 171.532904 
L 304.035888 171.37901 
L 310.870721 171.134592 
L 317.705553 171.107434 
L 324.540386 170.890173 
L 331.375218 170.70007 
L 338.210051 170.691018 
L 345.044883 170.356074 
L 351.879716 170.265548 
L 358.714548 169.315032 
L 365.549381 169.188297 
L 372.384214 169.161139 
L 379.219046 168.418831 
L 386.053879 168.409778 
L 392.888711 168.346411 
L 399.723544 168.3102 
L 406.558376 168.219675 
L 413.393209 168.074834 
L 420.228041 167.848521 
L 427.062874 167.821363 
L 433.897706 166.934215 
L 440.732539 166.671691 
L 447.567371 166.572113 
L 454.402204 165.214233 
L 461.237036 164.897394 
L 468.071869 164.897394 
L 474.906702 163.856352 
L 481.741534 163.765827 
L 488.576367 163.467093 
L 495.411199 163.448988 
L 502.246032 163.448988 
L 509.080864 163.394673 
L 515.915697 163.213622 
L 522.750529 163.213622 
L 529.585362 163.132149 
L 536.420194 162.878678 
L 543.255027 162.878678 
L 550.089859 161.928162 
L 556.924692 160.878068 
L 563.759525 160.742279 
L 570.594357 160.742279 
L 577.42919 160.615544 
L 584.264022 160.606491 
L 591.098855 160.325863 
L 597.933687 160.31681 
L 604.76852 160.253442 
L 611.603352 160.217232 
L 618.438185 160.217232 
L 625.273017 159.855131 
L 632.10785 159.837026 
L 638.942682 159.837026 
L 645.777515 159.837026 
L 652.612347 159.827973 
L 659.44718 159.827973 
L 666.282013 159.809868 
L 673.116845 159.438714 
L 679.951678 158.805037 
L 686.78651 158.795984 
L 693.621343 158.714511 
L 700.456175 158.714511 
L 707.291008 158.651143 
L 714.12584 158.642091 
L 720.960673 158.642091 
L 727.795505 158.433883 
L 734.630338 158.433883 
L 741.46517 158.433883 
" style="fill:none;stroke:#98df8a;stroke-linecap:square;stroke-width:1.5;"/>
    <defs>
     <path d="M -0 3 
L 3 -3 
L -3 -3 
z
" id="m552dc64082" style="stroke:#ffffff;stroke-linejoin:miter;stroke-width:0.75;"/>
    </defs>
    <g clip-path="url(#ped426b0583)">
     <use style="fill:#98df8a;stroke:#ffffff;stroke-linejoin:miter;stroke-width:0.75;" x="92.15608" xlink:href="#m552dc64082" y="245.148135"/>
     <use style="fill:#98df8a;stroke:#ffffff;stroke-linejoin:miter;stroke-width:0.75;" x="98.990912" xlink:href="#m552dc64082" y="231.650802"/>
     <use style="fill:#98df8a;stroke:#ffffff;stroke-linejoin:miter;stroke-width:0.75;" x="105.825745" xlink:href="#m552dc64082" y="215.365288"/>
     <use style="fill:#98df8a;stroke:#ffffff;stroke-linejoin:miter;stroke-width:0.75;" x="112.660577" xlink:href="#m552dc64082" y="206.77443"/>
     <use style="fill:#98df8a;stroke:#ffffff;stroke-linejoin:miter;stroke-width:0.75;" x="119.49541" xlink:href="#m552dc64082" y="202.365845"/>
     <use style="fill:#98df8a;stroke:#ffffff;stroke-linejoin:miter;stroke-width:0.75;" x="126.330242" xlink:href="#m552dc64082" y="201.496801"/>
     <use style="fill:#98df8a;stroke:#ffffff;stroke-linejoin:miter;stroke-width:0.75;" x="133.165075" xlink:href="#m552dc64082" y="199.260825"/>
     <use style="fill:#98df8a;stroke:#ffffff;stroke-linejoin:miter;stroke-width:0.75;" x="139.999907" xlink:href="#m552dc64082" y="193.92888"/>
     <use style="fill:#98df8a;stroke:#ffffff;stroke-linejoin:miter;stroke-width:0.75;" x="146.83474" xlink:href="#m552dc64082" y="193.195625"/>
     <use style="fill:#98df8a;stroke:#ffffff;stroke-linejoin:miter;stroke-width:0.75;" x="153.669572" xlink:href="#m552dc64082" y="192.199846"/>
     <use style="fill:#98df8a;stroke:#ffffff;stroke-linejoin:miter;stroke-width:0.75;" x="160.504405" xlink:href="#m552dc64082" y="190.769545"/>
     <use style="fill:#98df8a;stroke:#ffffff;stroke-linejoin:miter;stroke-width:0.75;" x="167.339237" xlink:href="#m552dc64082" y="190.298813"/>
     <use style="fill:#98df8a;stroke:#ffffff;stroke-linejoin:miter;stroke-width:0.75;" x="174.17407" xlink:href="#m552dc64082" y="190.027237"/>
     <use style="fill:#98df8a;stroke:#ffffff;stroke-linejoin:miter;stroke-width:0.75;" x="181.008903" xlink:href="#m552dc64082" y="187.782208"/>
     <use style="fill:#98df8a;stroke:#ffffff;stroke-linejoin:miter;stroke-width:0.75;" x="187.843735" xlink:href="#m552dc64082" y="186.985584"/>
     <use style="fill:#98df8a;stroke:#ffffff;stroke-linejoin:miter;stroke-width:0.75;" x="194.678568" xlink:href="#m552dc64082" y="186.65064"/>
     <use style="fill:#98df8a;stroke:#ffffff;stroke-linejoin:miter;stroke-width:0.75;" x="201.5134" xlink:href="#m552dc64082" y="186.288539"/>
     <use style="fill:#98df8a;stroke:#ffffff;stroke-linejoin:miter;stroke-width:0.75;" x="208.348233" xlink:href="#m552dc64082" y="184.414664"/>
     <use style="fill:#98df8a;stroke:#ffffff;stroke-linejoin:miter;stroke-width:0.75;" x="215.183065" xlink:href="#m552dc64082" y="183.898669"/>
     <use style="fill:#98df8a;stroke:#ffffff;stroke-linejoin:miter;stroke-width:0.75;" x="222.017898" xlink:href="#m552dc64082" y="183.826249"/>
     <use style="fill:#98df8a;stroke:#ffffff;stroke-linejoin:miter;stroke-width:0.75;" x="228.85273" xlink:href="#m552dc64082" y="183.264992"/>
     <use style="fill:#98df8a;stroke:#ffffff;stroke-linejoin:miter;stroke-width:0.75;" x="235.687563" xlink:href="#m552dc64082" y="183.138256"/>
     <use style="fill:#98df8a;stroke:#ffffff;stroke-linejoin:miter;stroke-width:0.75;" x="242.522395" xlink:href="#m552dc64082" y="180.295759"/>
     <use style="fill:#98df8a;stroke:#ffffff;stroke-linejoin:miter;stroke-width:0.75;" x="249.357228" xlink:href="#m552dc64082" y="180.159971"/>
     <use style="fill:#98df8a;stroke:#ffffff;stroke-linejoin:miter;stroke-width:0.75;" x="256.19206" xlink:href="#m552dc64082" y="179.517241"/>
     <use style="fill:#98df8a;stroke:#ffffff;stroke-linejoin:miter;stroke-width:0.75;" x="263.026893" xlink:href="#m552dc64082" y="178.304201"/>
     <use style="fill:#98df8a;stroke:#ffffff;stroke-linejoin:miter;stroke-width:0.75;" x="269.861725" xlink:href="#m552dc64082" y="178.077888"/>
     <use style="fill:#98df8a;stroke:#ffffff;stroke-linejoin:miter;stroke-width:0.75;" x="276.696558" xlink:href="#m552dc64082" y="178.01452"/>
     <use style="fill:#98df8a;stroke:#ffffff;stroke-linejoin:miter;stroke-width:0.75;" x="283.531391" xlink:href="#m552dc64082" y="175.144866"/>
     <use style="fill:#98df8a;stroke:#ffffff;stroke-linejoin:miter;stroke-width:0.75;" x="290.366223" xlink:href="#m552dc64082" y="171.532904"/>
     <use style="fill:#98df8a;stroke:#ffffff;stroke-linejoin:miter;stroke-width:0.75;" x="297.201056" xlink:href="#m552dc64082" y="171.532904"/>
     <use style="fill:#98df8a;stroke:#ffffff;stroke-linejoin:miter;stroke-width:0.75;" x="304.035888" xlink:href="#m552dc64082" y="171.37901"/>
     <use style="fill:#98df8a;stroke:#ffffff;stroke-linejoin:miter;stroke-width:0.75;" x="310.870721" xlink:href="#m552dc64082" y="171.134592"/>
     <use style="fill:#98df8a;stroke:#ffffff;stroke-linejoin:miter;stroke-width:0.75;" x="317.705553" xlink:href="#m552dc64082" y="171.107434"/>
     <use style="fill:#98df8a;stroke:#ffffff;stroke-linejoin:miter;stroke-width:0.75;" x="324.540386" xlink:href="#m552dc64082" y="170.890173"/>
     <use style="fill:#98df8a;stroke:#ffffff;stroke-linejoin:miter;stroke-width:0.75;" x="331.375218" xlink:href="#m552dc64082" y="170.70007"/>
     <use style="fill:#98df8a;stroke:#ffffff;stroke-linejoin:miter;stroke-width:0.75;" x="338.210051" xlink:href="#m552dc64082" y="170.691018"/>
     <use style="fill:#98df8a;stroke:#ffffff;stroke-linejoin:miter;stroke-width:0.75;" x="345.044883" xlink:href="#m552dc64082" y="170.356074"/>
     <use style="fill:#98df8a;stroke:#ffffff;stroke-linejoin:miter;stroke-width:0.75;" x="351.879716" xlink:href="#m552dc64082" y="170.265548"/>
     <use style="fill:#98df8a;stroke:#ffffff;stroke-linejoin:miter;stroke-width:0.75;" x="358.714548" xlink:href="#m552dc64082" y="169.315032"/>
     <use style="fill:#98df8a;stroke:#ffffff;stroke-linejoin:miter;stroke-width:0.75;" x="365.549381" xlink:href="#m552dc64082" y="169.188297"/>
     <use style="fill:#98df8a;stroke:#ffffff;stroke-linejoin:miter;stroke-width:0.75;" x="372.384214" xlink:href="#m552dc64082" y="169.161139"/>
     <use style="fill:#98df8a;stroke:#ffffff;stroke-linejoin:miter;stroke-width:0.75;" x="379.219046" xlink:href="#m552dc64082" y="168.418831"/>
     <use style="fill:#98df8a;stroke:#ffffff;stroke-linejoin:miter;stroke-width:0.75;" x="386.053879" xlink:href="#m552dc64082" y="168.409778"/>
     <use style="fill:#98df8a;stroke:#ffffff;stroke-linejoin:miter;stroke-width:0.75;" x="392.888711" xlink:href="#m552dc64082" y="168.346411"/>
     <use style="fill:#98df8a;stroke:#ffffff;stroke-linejoin:miter;stroke-width:0.75;" x="399.723544" xlink:href="#m552dc64082" y="168.3102"/>
     <use style="fill:#98df8a;stroke:#ffffff;stroke-linejoin:miter;stroke-width:0.75;" x="406.558376" xlink:href="#m552dc64082" y="168.219675"/>
     <use style="fill:#98df8a;stroke:#ffffff;stroke-linejoin:miter;stroke-width:0.75;" x="413.393209" xlink:href="#m552dc64082" y="168.074834"/>
     <use style="fill:#98df8a;stroke:#ffffff;stroke-linejoin:miter;stroke-width:0.75;" x="420.228041" xlink:href="#m552dc64082" y="167.848521"/>
     <use style="fill:#98df8a;stroke:#ffffff;stroke-linejoin:miter;stroke-width:0.75;" x="427.062874" xlink:href="#m552dc64082" y="167.821363"/>
     <use style="fill:#98df8a;stroke:#ffffff;stroke-linejoin:miter;stroke-width:0.75;" x="433.897706" xlink:href="#m552dc64082" y="166.934215"/>
     <use style="fill:#98df8a;stroke:#ffffff;stroke-linejoin:miter;stroke-width:0.75;" x="440.732539" xlink:href="#m552dc64082" y="166.671691"/>
     <use style="fill:#98df8a;stroke:#ffffff;stroke-linejoin:miter;stroke-width:0.75;" x="447.567371" xlink:href="#m552dc64082" y="166.572113"/>
     <use style="fill:#98df8a;stroke:#ffffff;stroke-linejoin:miter;stroke-width:0.75;" x="454.402204" xlink:href="#m552dc64082" y="165.214233"/>
     <use style="fill:#98df8a;stroke:#ffffff;stroke-linejoin:miter;stroke-width:0.75;" x="461.237036" xlink:href="#m552dc64082" y="164.897394"/>
     <use style="fill:#98df8a;stroke:#ffffff;stroke-linejoin:miter;stroke-width:0.75;" x="468.071869" xlink:href="#m552dc64082" y="164.897394"/>
     <use style="fill:#98df8a;stroke:#ffffff;stroke-linejoin:miter;stroke-width:0.75;" x="474.906702" xlink:href="#m552dc64082" y="163.856352"/>
     <use style="fill:#98df8a;stroke:#ffffff;stroke-linejoin:miter;stroke-width:0.75;" x="481.741534" xlink:href="#m552dc64082" y="163.765827"/>
     <use style="fill:#98df8a;stroke:#ffffff;stroke-linejoin:miter;stroke-width:0.75;" x="488.576367" xlink:href="#m552dc64082" y="163.467093"/>
     <use style="fill:#98df8a;stroke:#ffffff;stroke-linejoin:miter;stroke-width:0.75;" x="495.411199" xlink:href="#m552dc64082" y="163.448988"/>
     <use style="fill:#98df8a;stroke:#ffffff;stroke-linejoin:miter;stroke-width:0.75;" x="502.246032" xlink:href="#m552dc64082" y="163.448988"/>
     <use style="fill:#98df8a;stroke:#ffffff;stroke-linejoin:miter;stroke-width:0.75;" x="509.080864" xlink:href="#m552dc64082" y="163.394673"/>
     <use style="fill:#98df8a;stroke:#ffffff;stroke-linejoin:miter;stroke-width:0.75;" x="515.915697" xlink:href="#m552dc64082" y="163.213622"/>
     <use style="fill:#98df8a;stroke:#ffffff;stroke-linejoin:miter;stroke-width:0.75;" x="522.750529" xlink:href="#m552dc64082" y="163.213622"/>
     <use style="fill:#98df8a;stroke:#ffffff;stroke-linejoin:miter;stroke-width:0.75;" x="529.585362" xlink:href="#m552dc64082" y="163.132149"/>
     <use style="fill:#98df8a;stroke:#ffffff;stroke-linejoin:miter;stroke-width:0.75;" x="536.420194" xlink:href="#m552dc64082" y="162.878678"/>
     <use style="fill:#98df8a;stroke:#ffffff;stroke-linejoin:miter;stroke-width:0.75;" x="543.255027" xlink:href="#m552dc64082" y="162.878678"/>
     <use style="fill:#98df8a;stroke:#ffffff;stroke-linejoin:miter;stroke-width:0.75;" x="550.089859" xlink:href="#m552dc64082" y="161.928162"/>
     <use style="fill:#98df8a;stroke:#ffffff;stroke-linejoin:miter;stroke-width:0.75;" x="556.924692" xlink:href="#m552dc64082" y="160.878068"/>
     <use style="fill:#98df8a;stroke:#ffffff;stroke-linejoin:miter;stroke-width:0.75;" x="563.759525" xlink:href="#m552dc64082" y="160.742279"/>
     <use style="fill:#98df8a;stroke:#ffffff;stroke-linejoin:miter;stroke-width:0.75;" x="570.594357" xlink:href="#m552dc64082" y="160.742279"/>
     <use style="fill:#98df8a;stroke:#ffffff;stroke-linejoin:miter;stroke-width:0.75;" x="577.42919" xlink:href="#m552dc64082" y="160.615544"/>
     <use style="fill:#98df8a;stroke:#ffffff;stroke-linejoin:miter;stroke-width:0.75;" x="584.264022" xlink:href="#m552dc64082" y="160.606491"/>
     <use style="fill:#98df8a;stroke:#ffffff;stroke-linejoin:miter;stroke-width:0.75;" x="591.098855" xlink:href="#m552dc64082" y="160.325863"/>
     <use style="fill:#98df8a;stroke:#ffffff;stroke-linejoin:miter;stroke-width:0.75;" x="597.933687" xlink:href="#m552dc64082" y="160.31681"/>
     <use style="fill:#98df8a;stroke:#ffffff;stroke-linejoin:miter;stroke-width:0.75;" x="604.76852" xlink:href="#m552dc64082" y="160.253442"/>
     <use style="fill:#98df8a;stroke:#ffffff;stroke-linejoin:miter;stroke-width:0.75;" x="611.603352" xlink:href="#m552dc64082" y="160.217232"/>
     <use style="fill:#98df8a;stroke:#ffffff;stroke-linejoin:miter;stroke-width:0.75;" x="618.438185" xlink:href="#m552dc64082" y="160.217232"/>
     <use style="fill:#98df8a;stroke:#ffffff;stroke-linejoin:miter;stroke-width:0.75;" x="625.273017" xlink:href="#m552dc64082" y="159.855131"/>
     <use style="fill:#98df8a;stroke:#ffffff;stroke-linejoin:miter;stroke-width:0.75;" x="632.10785" xlink:href="#m552dc64082" y="159.837026"/>
     <use style="fill:#98df8a;stroke:#ffffff;stroke-linejoin:miter;stroke-width:0.75;" x="638.942682" xlink:href="#m552dc64082" y="159.837026"/>
     <use style="fill:#98df8a;stroke:#ffffff;stroke-linejoin:miter;stroke-width:0.75;" x="645.777515" xlink:href="#m552dc64082" y="159.837026"/>
     <use style="fill:#98df8a;stroke:#ffffff;stroke-linejoin:miter;stroke-width:0.75;" x="652.612347" xlink:href="#m552dc64082" y="159.827973"/>
     <use style="fill:#98df8a;stroke:#ffffff;stroke-linejoin:miter;stroke-width:0.75;" x="659.44718" xlink:href="#m552dc64082" y="159.827973"/>
     <use style="fill:#98df8a;stroke:#ffffff;stroke-linejoin:miter;stroke-width:0.75;" x="666.282013" xlink:href="#m552dc64082" y="159.809868"/>
     <use style="fill:#98df8a;stroke:#ffffff;stroke-linejoin:miter;stroke-width:0.75;" x="673.116845" xlink:href="#m552dc64082" y="159.438714"/>
     <use style="fill:#98df8a;stroke:#ffffff;stroke-linejoin:miter;stroke-width:0.75;" x="679.951678" xlink:href="#m552dc64082" y="158.805037"/>
     <use style="fill:#98df8a;stroke:#ffffff;stroke-linejoin:miter;stroke-width:0.75;" x="686.78651" xlink:href="#m552dc64082" y="158.795984"/>
     <use style="fill:#98df8a;stroke:#ffffff;stroke-linejoin:miter;stroke-width:0.75;" x="693.621343" xlink:href="#m552dc64082" y="158.714511"/>
     <use style="fill:#98df8a;stroke:#ffffff;stroke-linejoin:miter;stroke-width:0.75;" x="700.456175" xlink:href="#m552dc64082" y="158.714511"/>
     <use style="fill:#98df8a;stroke:#ffffff;stroke-linejoin:miter;stroke-width:0.75;" x="707.291008" xlink:href="#m552dc64082" y="158.651143"/>
     <use style="fill:#98df8a;stroke:#ffffff;stroke-linejoin:miter;stroke-width:0.75;" x="714.12584" xlink:href="#m552dc64082" y="158.642091"/>
     <use style="fill:#98df8a;stroke:#ffffff;stroke-linejoin:miter;stroke-width:0.75;" x="720.960673" xlink:href="#m552dc64082" y="158.642091"/>
     <use style="fill:#98df8a;stroke:#ffffff;stroke-linejoin:miter;stroke-width:0.75;" x="727.795505" xlink:href="#m552dc64082" y="158.433883"/>
     <use style="fill:#98df8a;stroke:#ffffff;stroke-linejoin:miter;stroke-width:0.75;" x="734.630338" xlink:href="#m552dc64082" y="158.433883"/>
     <use style="fill:#98df8a;stroke:#ffffff;stroke-linejoin:miter;stroke-width:0.75;" x="741.46517" xlink:href="#m552dc64082" y="158.433883"/>
    </g>
   </g>
   <g id="line2d_22"/>
   <g id="line2d_23"/>
   <g id="line2d_24">
    <path clip-path="url(#ped426b0583)" d="M 741.46517 288.430125 
L 741.46517 22.318125 
" style="fill:none;stroke:#ff0000;stroke-linecap:square;stroke-width:1.5;"/>
   </g>
   <g id="patch_3">
    <path d="M 59.690625 255.332239 
L 59.690625 38.07135 
" style="fill:none;stroke:#000000;stroke-linecap:square;stroke-linejoin:miter;stroke-width:0.8;"/>
   </g>
   <g id="patch_4">
    <path d="M 92.15608 288.430125 
L 693.621343 288.430125 
" style="fill:none;stroke:#000000;stroke-linecap:square;stroke-linejoin:miter;stroke-width:0.8;"/>
   </g>
   <g id="text_22">
    <!-- sqlite3_ossfuzz (24h, 10 trials/fuzzer) -->
    <g transform="translate(304.815938 16.318125)scale(0.12 -0.12)">
     <defs>
      <path d="M 2834 3397 
L 2834 2853 
Q 2591 2978 2328 3040 
Q 2066 3103 1784 3103 
Q 1356 3103 1142 2972 
Q 928 2841 928 2578 
Q 928 2378 1081 2264 
Q 1234 2150 1697 2047 
L 1894 2003 
Q 2506 1872 2764 1633 
Q 3022 1394 3022 966 
Q 3022 478 2636 193 
Q 2250 -91 1575 -91 
Q 1294 -91 989 -36 
Q 684 19 347 128 
L 347 722 
Q 666 556 975 473 
Q 1284 391 1588 391 
Q 1994 391 2212 530 
Q 2431 669 2431 922 
Q 2431 1156 2273 1281 
Q 2116 1406 1581 1522 
L 1381 1569 
Q 847 1681 609 1914 
Q 372 2147 372 2553 
Q 372 3047 722 3315 
Q 1072 3584 1716 3584 
Q 2034 3584 2315 3537 
Q 2597 3491 2834 3397 
z
" id="DejaVuSans-73" transform="scale(0.015625)"/>
      <path d="M 947 1747 
Q 947 1113 1208 752 
Q 1469 391 1925 391 
Q 2381 391 2643 752 
Q 2906 1113 2906 1747 
Q 2906 2381 2643 2742 
Q 2381 3103 1925 3103 
Q 1469 3103 1208 2742 
Q 947 2381 947 1747 
z
M 2906 525 
Q 2725 213 2448 61 
Q 2172 -91 1784 -91 
Q 1150 -91 751 415 
Q 353 922 353 1747 
Q 353 2572 751 3078 
Q 1150 3584 1784 3584 
Q 2172 3584 2448 3432 
Q 2725 3281 2906 2969 
L 2906 3500 
L 3481 3500 
L 3481 -1331 
L 2906 -1331 
L 2906 525 
z
" id="DejaVuSans-71" transform="scale(0.015625)"/>
      <path d="M 603 4863 
L 1178 4863 
L 1178 0 
L 603 0 
L 603 4863 
z
" id="DejaVuSans-6c" transform="scale(0.015625)"/>
      <path d="M 3263 -1063 
L 3263 -1509 
L -63 -1509 
L -63 -1063 
L 3263 -1063 
z
" id="DejaVuSans-5f" transform="scale(0.015625)"/>
      <path d="M 2375 4863 
L 2375 4384 
L 1825 4384 
Q 1516 4384 1395 4259 
Q 1275 4134 1275 3809 
L 1275 3500 
L 2222 3500 
L 2222 3053 
L 1275 3053 
L 1275 0 
L 697 0 
L 697 3053 
L 147 3053 
L 147 3500 
L 697 3500 
L 697 3744 
Q 697 4328 969 4595 
Q 1241 4863 1831 4863 
L 2375 4863 
z
" id="DejaVuSans-66" transform="scale(0.015625)"/>
      <path d="M 353 3500 
L 3084 3500 
L 3084 2975 
L 922 459 
L 3084 459 
L 3084 0 
L 275 0 
L 275 525 
L 2438 3041 
L 353 3041 
L 353 3500 
z
" id="DejaVuSans-7a" transform="scale(0.015625)"/>
      <path d="M 750 794 
L 1409 794 
L 1409 256 
L 897 -744 
L 494 -744 
L 750 256 
L 750 794 
z
" id="DejaVuSans-2c" transform="scale(0.015625)"/>
      <path d="M 1625 4666 
L 2156 4666 
L 531 -594 
L 0 -594 
L 1625 4666 
z
" id="DejaVuSans-2f" transform="scale(0.015625)"/>
     </defs>
     <use xlink:href="#DejaVuSans-73"/>
     <use x="52.099609" xlink:href="#DejaVuSans-71"/>
     <use x="115.576172" xlink:href="#DejaVuSans-6c"/>
     <use x="143.359375" xlink:href="#DejaVuSans-69"/>
     <use x="171.142578" xlink:href="#DejaVuSans-74"/>
     <use x="210.351562" xlink:href="#DejaVuSans-65"/>
     <use x="271.875" xlink:href="#DejaVuSans-33"/>
     <use x="335.498047" xlink:href="#DejaVuSans-5f"/>
     <use x="385.498047" xlink:href="#DejaVuSans-6f"/>
     <use x="446.679688" xlink:href="#DejaVuSans-73"/>
     <use x="498.779297" xlink:href="#DejaVuSans-73"/>
     <use x="550.878906" xlink:href="#DejaVuSans-66"/>
     <use x="586.083984" xlink:href="#DejaVuSans-75"/>
     <use x="649.462891" xlink:href="#DejaVuSans-7a"/>
     <use x="701.953125" xlink:href="#DejaVuSans-7a"/>
     <use x="754.443359" xlink:href="#DejaVuSans-20"/>
     <use x="786.230469" xlink:href="#DejaVuSans-28"/>
     <use x="825.244141" xlink:href="#DejaVuSans-32"/>
     <use x="888.867188" xlink:href="#DejaVuSans-34"/>
     <use x="952.490234" xlink:href="#DejaVuSans-68"/>
     <use x="1015.869141" xlink:href="#DejaVuSans-2c"/>
     <use x="1047.65625" xlink:href="#DejaVuSans-20"/>
     <use x="1079.443359" xlink:href="#DejaVuSans-31"/>
     <use x="1143.066406" xlink:href="#DejaVuSans-30"/>
     <use x="1206.689453" xlink:href="#DejaVuSans-20"/>
     <use x="1238.476562" xlink:href="#DejaVuSans-74"/>
     <use x="1277.685547" xlink:href="#DejaVuSans-72"/>
     <use x="1318.798828" xlink:href="#DejaVuSans-69"/>
     <use x="1346.582031" xlink:href="#DejaVuSans-61"/>
     <use x="1407.861328" xlink:href="#DejaVuSans-6c"/>
     <use x="1435.644531" xlink:href="#DejaVuSans-73"/>
     <use x="1487.744141" xlink:href="#DejaVuSans-2f"/>
     <use x="1521.435547" xlink:href="#DejaVuSans-66"/>
     <use x="1556.640625" xlink:href="#DejaVuSans-75"/>
     <use x="1620.019531" xlink:href="#DejaVuSans-7a"/>
     <use x="1672.509766" xlink:href="#DejaVuSans-7a"/>
     <use x="1725" xlink:href="#DejaVuSans-65"/>
     <use x="1786.523438" xlink:href="#DejaVuSans-72"/>
     <use x="1827.636719" xlink:href="#DejaVuSans-29"/>
    </g>
   </g>
   <g id="legend_1">
    <g id="line2d_25">
     <path d="M 777.930625 30.416562 
L 797.930625 30.416562 
" style="fill:none;stroke:#1f77b4;stroke-linecap:square;stroke-width:1.5;"/>
    </g>
    <g id="line2d_26">
     <defs>
      <path d="M 0 3 
C 0.795609 3 1.55874 2.683901 2.12132 2.12132 
C 2.683901 1.55874 3 0.795609 3 0 
C 3 -0.795609 2.683901 -1.55874 2.12132 -2.12132 
C 1.55874 -2.683901 0.795609 -3 0 -3 
C -0.795609 -3 -1.55874 -2.683901 -2.12132 -2.12132 
C -2.683901 -1.55874 -3 -0.795609 -3 0 
C -3 0.795609 -2.683901 1.55874 -2.12132 2.12132 
C -1.55874 2.683901 -0.795609 3 0 3 
z
" id="mfb7d9ce96c" style="stroke:#1f77b4;"/>
     </defs>
     <g>
      <use style="fill:#1f77b4;stroke:#1f77b4;" x="787.930625" xlink:href="#mfb7d9ce96c" y="30.416562"/>
     </g>
    </g>
    <g id="text_23">
     <!-- aflplusplus -->
     <g transform="translate(805.930625 33.916562)scale(0.1 -0.1)">
      <defs>
       <path d="M 1159 525 
L 1159 -1331 
L 581 -1331 
L 581 3500 
L 1159 3500 
L 1159 2969 
Q 1341 3281 1617 3432 
Q 1894 3584 2278 3584 
Q 2916 3584 3314 3078 
Q 3713 2572 3713 1747 
Q 3713 922 3314 415 
Q 2916 -91 2278 -91 
Q 1894 -91 1617 61 
Q 1341 213 1159 525 
z
M 3116 1747 
Q 3116 2381 2855 2742 
Q 2594 3103 2138 3103 
Q 1681 3103 1420 2742 
Q 1159 2381 1159 1747 
Q 1159 1113 1420 752 
Q 1681 391 2138 391 
Q 2594 391 2855 752 
Q 3116 1113 3116 1747 
z
" id="DejaVuSans-70" transform="scale(0.015625)"/>
      </defs>
      <use xlink:href="#DejaVuSans-61"/>
      <use x="61.279297" xlink:href="#DejaVuSans-66"/>
      <use x="96.484375" xlink:href="#DejaVuSans-6c"/>
      <use x="124.267578" xlink:href="#DejaVuSans-70"/>
      <use x="187.744141" xlink:href="#DejaVuSans-6c"/>
      <use x="215.527344" xlink:href="#DejaVuSans-75"/>
      <use x="278.90625" xlink:href="#DejaVuSans-73"/>
      <use x="331.005859" xlink:href="#DejaVuSans-70"/>
      <use x="394.482422" xlink:href="#DejaVuSans-6c"/>
      <use x="422.265625" xlink:href="#DejaVuSans-75"/>
      <use x="485.644531" xlink:href="#DejaVuSans-73"/>
     </g>
    </g>
    <g id="line2d_27">
     <path d="M 777.930625 45.094688 
L 797.930625 45.094688 
" style="fill:none;stroke:#98df8a;stroke-linecap:square;stroke-width:1.5;"/>
    </g>
    <g id="line2d_28">
     <defs>
      <path d="M -0 3 
L 3 -3 
L -3 -3 
z
" id="m355dbb781f" style="stroke:#98df8a;stroke-linejoin:miter;"/>
     </defs>
     <g>
      <use style="fill:#98df8a;stroke:#98df8a;stroke-linejoin:miter;" x="787.930625" xlink:href="#m355dbb781f" y="45.094688"/>
     </g>
    </g>
    <g id="text_24">
     <!-- libfuzzer -->
     <g transform="translate(805.930625 48.594688)scale(0.1 -0.1)">
      <use xlink:href="#DejaVuSans-6c"/>
      <use x="27.783203" xlink:href="#DejaVuSans-69"/>
      <use x="55.566406" xlink:href="#DejaVuSans-62"/>
      <use x="119.042969" xlink:href="#DejaVuSans-66"/>
      <use x="154.248047" xlink:href="#DejaVuSans-75"/>
      <use x="217.626953" xlink:href="#DejaVuSans-7a"/>
      <use x="270.117188" xlink:href="#DejaVuSans-7a"/>
      <use x="322.607422" xlink:href="#DejaVuSans-65"/>
      <use x="384.130859" xlink:href="#DejaVuSans-72"/>
     </g>
    </g>
   </g>
  </g>
 </g>
 <defs>
  <clipPath id="ped426b0583">
   <rect height="266.112" width="714.24" x="59.690625" y="22.318125"/>
  </clipPath>
 </defs>
</svg>
