<?xml version="1.0" encoding="utf-8" standalone="no"?>
<!DOCTYPE svg PUBLIC "-//W3C//DTD SVG 1.1//EN"
  "http://www.w3.org/Graphics/SVG/1.1/DTD/svg11.dtd">
<svg xmlns:xlink="http://www.w3.org/1999/xlink" width="870.904062pt" height="325.986375pt" viewBox="0 0 870.904062 325.986375" xmlns="http://www.w3.org/2000/svg" version="1.1">
 <metadata>
  <rdf:RDF xmlns:dc="http://purl.org/dc/elements/1.1/" xmlns:cc="http://creativecommons.org/ns#" xmlns:rdf="http://www.w3.org/1999/02/22-rdf-syntax-ns#">
   <cc:Work>
    <dc:type rdf:resource="http://purl.org/dc/dcmitype/StillImage"/>
    <dc:date>2022-10-22T20:51:03.175907</dc:date>
    <dc:format>image/svg+xml</dc:format>
    <dc:creator>
     <cc:Agent>
      <dc:title>Matplotlib v3.6.0, https://matplotlib.org/</dc:title>
     </cc:Agent>
    </dc:creator>
   </cc:Work>
  </rdf:RDF>
 </metadata>
 <defs>
  <style type="text/css">*{stroke-linejoin: round; stroke-linecap: butt}</style>
 </defs>
 <g id="figure_1">
  <g id="patch_1">
   <path d="M 0 325.986375 
L 870.904062 325.986375 
L 870.904062 0 
L 0 0 
z
" style="fill: #ffffff"/>
  </g>
  <g id="axes_1">
   <g id="patch_2">
    <path d="M 59.690625 288.430125 
L 773.930625 288.430125 
L 773.930625 22.318125 
L 59.690625 22.318125 
z
" style="fill: #ffffff"/>
   </g>
   <g id="PolyCollection_1">
    <defs>
     <path id="mae7f0d5b98" d="M 92.15608 -154.815239 
L 92.15608 -132.835663 
L 138.5353 -156.875015 
L 184.914521 -171.137989 
L 231.293742 -184.308462 
L 277.672963 -195.18166 
L 324.052183 -200.372121 
L 370.431404 -206.115311 
L 416.810625 -213.413049 
L 463.189846 -222.17897 
L 509.569067 -227.058523 
L 555.948287 -231.290347 
L 602.327508 -241.999453 
L 648.706729 -250.160828 
L 695.08595 -252.881286 
L 741.46517 -255.817654 
L 741.46517 -285.613151 
L 741.46517 -285.613151 
L 695.08595 -282.763147 
L 648.706729 -278.099504 
L 602.327508 -269.735174 
L 555.948287 -267.779035 
L 509.569067 -260.99948 
L 463.189846 -256.897201 
L 416.810625 -247.397188 
L 370.431404 -240.79036 
L 324.052183 -227.663069 
L 277.672963 -218.206238 
L 231.293742 -208.878952 
L 184.914521 -191.649382 
L 138.5353 -177.491123 
L 92.15608 -154.815239 
z
" style="stroke: #ff7f0e; stroke-opacity: 0.2"/>
    </defs>
    <g clip-path="url(#p0514c312d3)">
     <use xlink:href="#mae7f0d5b98" x="0" y="325.986375" style="fill: #ff7f0e; fill-opacity: 0.2; stroke: #ff7f0e; stroke-opacity: 0.2"/>
    </g>
   </g>
   <g id="PolyCollection_2">
    <defs>
     <path id="mc4d2ceb5bc" d="M 92.15608 -124.242469 
L 92.15608 -79.203769 
L 138.5353 -121.590022 
L 184.914521 -138.147034 
L 231.293742 -155.29024 
L 277.672963 -168.503895 
L 324.052183 -175.75845 
L 370.431404 -184.049371 
L 416.810625 -190.138016 
L 463.189846 -194.283477 
L 509.569067 -197.435754 
L 555.948287 -206.244857 
L 602.327508 -207.194858 
L 648.706729 -211.772138 
L 695.08595 -213.67214 
L 741.46517 -215.26987 
L 741.46517 -259.142659 
L 741.46517 -259.142659 
L 695.08595 -255.299472 
L 648.706729 -253.442651 
L 602.327508 -250.765374 
L 555.948287 -247.613097 
L 509.569067 -241.472634 
L 463.189846 -233.103986 
L 416.810625 -230.685801 
L 370.431404 -222.351698 
L 324.052183 -218.508511 
L 277.672963 -211.383501 
L 231.293742 -202.18576 
L 184.914521 -186.165283 
L 138.5353 -170.576625 
L 92.15608 -124.242469 
z
" style="stroke: #c7c7c7; stroke-opacity: 0.2"/>
    </defs>
    <g clip-path="url(#p0514c312d3)">
     <use xlink:href="#mc4d2ceb5bc" x="0" y="325.986375" style="fill: #c7c7c7; fill-opacity: 0.2; stroke: #c7c7c7; stroke-opacity: 0.2"/>
    </g>
   </g>
   <g id="PolyCollection_3">
    <defs>
     <path id="m95a289cbe6" d="M 92.15608 -96.00152 
L 92.15608 -67.458298 
L 138.5353 -93.583335 
L 184.914521 -97.771977 
L 231.293742 -105.976534 
L 277.672963 -110.985632 
L 324.052183 -118.283369 
L 370.431404 -122.860649 
L 416.810625 -123.983377 
L 463.189846 -125.667471 
L 509.569067 -131.108388 
L 555.948287 -133.656118 
L 602.327508 -134.951575 
L 648.706729 -137.197032 
L 695.08595 -139.399308 
L 741.46517 -142.42204 
L 741.46517 -291.57225 
L 741.46517 -291.57225 
L 695.08595 -281.726782 
L 648.706729 -277.149502 
L 602.327508 -271.794949 
L 555.948287 -264.713121 
L 509.569067 -246.149231 
L 463.189846 -237.920924 
L 416.810625 -235.73808 
L 370.431404 -230.513073 
L 324.052183 -208.360769 
L 277.672963 -207.756223 
L 231.293742 -192.685747 
L 184.914521 -178.910728 
L 138.5353 -158.356153 
L 92.15608 -96.00152 
z
" style="stroke: #98df8a; stroke-opacity: 0.2"/>
    </defs>
    <g clip-path="url(#p0514c312d3)">
     <use xlink:href="#m95a289cbe6" x="0" y="325.986375" style="fill: #98df8a; fill-opacity: 0.2; stroke: #98df8a; stroke-opacity: 0.2"/>
    </g>
   </g>
   <g id="PolyCollection_4">
    <defs>
     <path id="ma6243c4ba2" d="M 92.15608 -87.813156 
L 92.15608 -51.221911 
L 138.5353 -74.41058 
L 184.914521 -88.790146 
L 231.293742 -100.190162 
L 277.672963 -108.567447 
L 324.052183 -113.835636 
L 370.431404 -117.592459 
L 416.810625 -131.065206 
L 463.189846 -137.499306 
L 509.569067 -142.681131 
L 555.948287 -146.351591 
L 602.327508 -151.922053 
L 648.706729 -157.837971 
L 695.08595 -162.501614 
L 741.46517 -165.956164 
L 741.46517 -193.53535 
L 741.46517 -193.53535 
L 695.08595 -196.313025 
L 648.706729 -184.740281 
L 602.327508 -180.11982 
L 555.948287 -174.117539 
L 509.569067 -170.706171 
L 463.189846 -165.597754 
L 416.810625 -147.301592 
L 370.431404 -141.73113 
L 324.052183 -136.333395 
L 277.672963 -129.985659 
L 231.293742 -122.21292 
L 184.914521 -110.726541 
L 138.5353 -102.781075 
L 92.15608 -87.813156 
z
" style="stroke: #1f77b4; stroke-opacity: 0.2"/>
    </defs>
    <g clip-path="url(#p0514c312d3)">
     <use xlink:href="#ma6243c4ba2" x="0" y="325.986375" style="fill: #1f77b4; fill-opacity: 0.2; stroke: #1f77b4; stroke-opacity: 0.2"/>
    </g>
   </g>
   <g id="PolyCollection_5">
    <defs>
     <path id="m2e1359eae4" d="M 92.15608 -97.512886 
L 92.15608 -68.796936 
L 138.5353 -100.103798 
L 184.914521 -109.1083 
L 231.293742 -114.397 
L 277.672963 -117.981096 
L 324.052183 -129.597022 
L 370.431404 -128.517475 
L 416.810625 -132.015207 
L 463.189846 -136.074304 
L 509.569067 -136.981123 
L 555.948287 -137.628851 
L 602.327508 -139.6584 
L 648.706729 -138.881126 
L 695.08595 -135.685667 
L 741.46517 -143.328859 
L 741.46517 -206.07213 
L 741.46517 -206.07213 
L 695.08595 -213.067594 
L 648.706729 -201.278941 
L 602.327508 -199.681211 
L 555.948287 -195.406205 
L 509.569067 -192.728929 
L 463.189846 -188.84256 
L 416.810625 -188.885742 
L 370.431404 -185.517555 
L 324.052183 -181.544822 
L 277.672963 -173.340265 
L 231.293742 -171.094807 
L 184.914521 -160.385701 
L 138.5353 -147.647047 
L 92.15608 -97.512886 
z
" style="stroke: #ff9896; stroke-opacity: 0.2"/>
    </defs>
    <g clip-path="url(#p0514c312d3)">
     <use xlink:href="#m2e1359eae4" x="0" y="325.986375" style="fill: #ff9896; fill-opacity: 0.2; stroke: #ff9896; stroke-opacity: 0.2"/>
    </g>
   </g>
   <g id="PolyCollection_6">
    <defs>
     <path id="m5eef9c44f1" d="M 92.15608 -86.501506 
L 92.15608 -49.65225 
L 138.5353 -60.549197 
L 184.914521 -82.113148 
L 231.293742 -94.317427 
L 277.672963 -99.974253 
L 324.052183 -104.721021 
L 370.431404 -111.201541 
L 416.810625 -112.799271 
L 463.189846 -115.99473 
L 509.569067 -118.024278 
L 555.948287 -119.66519 
L 602.327508 -121.565192 
L 648.706729 -121.910647 
L 695.08595 -123.11974 
L 741.46517 -124.069741 
L 741.46517 -189.447106 
L 741.46517 -189.447106 
L 695.08595 -186.07892 
L 648.706729 -180.465275 
L 602.327508 -176.751634 
L 555.948287 -174.635722 
L 509.569067 -164.272071 
L 463.189846 -158.572063 
L 416.810625 -153.044782 
L 370.431404 -147.085683 
L 324.052183 -142.724313 
L 277.672963 -134.001573 
L 231.293742 -121.997011 
L 184.914521 -113.533363 
L 138.5353 -93.194698 
L 92.15608 -86.501506 
z
" style="stroke: #d62728; stroke-opacity: 0.2"/>
    </defs>
    <g clip-path="url(#p0514c312d3)">
     <use xlink:href="#m5eef9c44f1" x="0" y="325.986375" style="fill: #d62728; fill-opacity: 0.2; stroke: #d62728; stroke-opacity: 0.2"/>
    </g>
   </g>
   <g id="matplotlib.axis_1">
    <g id="xtick_1">
     <g id="line2d_1">
      <defs>
       <path id="m1f2ab4eb40" d="M 0 0 
L 0 3.5 
" style="stroke: #000000; stroke-width: 0.8"/>
      </defs>
      <g>
       <use xlink:href="#m1f2ab4eb40" x="741.46517" y="288.430125" style="stroke: #000000; stroke-width: 0.8"/>
      </g>
     </g>
     <g id="text_1">
      <!-- 15m -->
      <g transform="translate(730.232358 303.028562) scale(0.1 -0.1)">
       <defs>
        <path id="DejaVuSans-31" d="M 794 531 
L 1825 531 
L 1825 4091 
L 703 3866 
L 703 4441 
L 1819 4666 
L 2450 4666 
L 2450 531 
L 3481 531 
L 3481 0 
L 794 0 
L 794 531 
z
" transform="scale(0.015625)"/>
        <path id="DejaVuSans-35" d="M 691 4666 
L 3169 4666 
L 3169 4134 
L 1269 4134 
L 1269 2991 
Q 1406 3038 1543 3061 
Q 1681 3084 1819 3084 
Q 2600 3084 3056 2656 
Q 3513 2228 3513 1497 
Q 3513 744 3044 326 
Q 2575 -91 1722 -91 
Q 1428 -91 1123 -41 
Q 819 9 494 109 
L 494 744 
Q 775 591 1075 516 
Q 1375 441 1709 441 
Q 2250 441 2565 725 
Q 2881 1009 2881 1497 
Q 2881 1984 2565 2268 
Q 2250 2553 1709 2553 
Q 1456 2553 1204 2497 
Q 953 2441 691 2322 
L 691 4666 
z
" transform="scale(0.015625)"/>
        <path id="DejaVuSans-6d" d="M 3328 2828 
Q 3544 3216 3844 3400 
Q 4144 3584 4550 3584 
Q 5097 3584 5394 3201 
Q 5691 2819 5691 2113 
L 5691 0 
L 5113 0 
L 5113 2094 
Q 5113 2597 4934 2840 
Q 4756 3084 4391 3084 
Q 3944 3084 3684 2787 
Q 3425 2491 3425 1978 
L 3425 0 
L 2847 0 
L 2847 2094 
Q 2847 2600 2669 2842 
Q 2491 3084 2119 3084 
Q 1678 3084 1418 2786 
Q 1159 2488 1159 1978 
L 1159 0 
L 581 0 
L 581 3500 
L 1159 3500 
L 1159 2956 
Q 1356 3278 1631 3431 
Q 1906 3584 2284 3584 
Q 2666 3584 2933 3390 
Q 3200 3197 3328 2828 
z
" transform="scale(0.015625)"/>
       </defs>
       <use xlink:href="#DejaVuSans-31"/>
       <use xlink:href="#DejaVuSans-35" x="63.623047"/>
       <use xlink:href="#DejaVuSans-6d" x="127.246094"/>
      </g>
     </g>
    </g>
    <g id="text_2">
     <!-- Time (hour:minute) -->
     <g transform="translate(368.403594 316.706687) scale(0.1 -0.1)">
      <defs>
       <path id="DejaVuSans-54" d="M -19 4666 
L 3928 4666 
L 3928 4134 
L 2272 4134 
L 2272 0 
L 1638 0 
L 1638 4134 
L -19 4134 
L -19 4666 
z
" transform="scale(0.015625)"/>
       <path id="DejaVuSans-69" d="M 603 3500 
L 1178 3500 
L 1178 0 
L 603 0 
L 603 3500 
z
M 603 4863 
L 1178 4863 
L 1178 4134 
L 603 4134 
L 603 4863 
z
" transform="scale(0.015625)"/>
       <path id="DejaVuSans-65" d="M 3597 1894 
L 3597 1613 
L 953 1613 
Q 991 1019 1311 708 
Q 1631 397 2203 397 
Q 2534 397 2845 478 
Q 3156 559 3463 722 
L 3463 178 
Q 3153 47 2828 -22 
Q 2503 -91 2169 -91 
Q 1331 -91 842 396 
Q 353 884 353 1716 
Q 353 2575 817 3079 
Q 1281 3584 2069 3584 
Q 2775 3584 3186 3129 
Q 3597 2675 3597 1894 
z
M 3022 2063 
Q 3016 2534 2758 2815 
Q 2500 3097 2075 3097 
Q 1594 3097 1305 2825 
Q 1016 2553 972 2059 
L 3022 2063 
z
" transform="scale(0.015625)"/>
       <path id="DejaVuSans-20" transform="scale(0.015625)"/>
       <path id="DejaVuSans-28" d="M 1984 4856 
Q 1566 4138 1362 3434 
Q 1159 2731 1159 2009 
Q 1159 1288 1364 580 
Q 1569 -128 1984 -844 
L 1484 -844 
Q 1016 -109 783 600 
Q 550 1309 550 2009 
Q 550 2706 781 3412 
Q 1013 4119 1484 4856 
L 1984 4856 
z
" transform="scale(0.015625)"/>
       <path id="DejaVuSans-68" d="M 3513 2113 
L 3513 0 
L 2938 0 
L 2938 2094 
Q 2938 2591 2744 2837 
Q 2550 3084 2163 3084 
Q 1697 3084 1428 2787 
Q 1159 2491 1159 1978 
L 1159 0 
L 581 0 
L 581 4863 
L 1159 4863 
L 1159 2956 
Q 1366 3272 1645 3428 
Q 1925 3584 2291 3584 
Q 2894 3584 3203 3211 
Q 3513 2838 3513 2113 
z
" transform="scale(0.015625)"/>
       <path id="DejaVuSans-6f" d="M 1959 3097 
Q 1497 3097 1228 2736 
Q 959 2375 959 1747 
Q 959 1119 1226 758 
Q 1494 397 1959 397 
Q 2419 397 2687 759 
Q 2956 1122 2956 1747 
Q 2956 2369 2687 2733 
Q 2419 3097 1959 3097 
z
M 1959 3584 
Q 2709 3584 3137 3096 
Q 3566 2609 3566 1747 
Q 3566 888 3137 398 
Q 2709 -91 1959 -91 
Q 1206 -91 779 398 
Q 353 888 353 1747 
Q 353 2609 779 3096 
Q 1206 3584 1959 3584 
z
" transform="scale(0.015625)"/>
       <path id="DejaVuSans-75" d="M 544 1381 
L 544 3500 
L 1119 3500 
L 1119 1403 
Q 1119 906 1312 657 
Q 1506 409 1894 409 
Q 2359 409 2629 706 
Q 2900 1003 2900 1516 
L 2900 3500 
L 3475 3500 
L 3475 0 
L 2900 0 
L 2900 538 
Q 2691 219 2414 64 
Q 2138 -91 1772 -91 
Q 1169 -91 856 284 
Q 544 659 544 1381 
z
M 1991 3584 
L 1991 3584 
z
" transform="scale(0.015625)"/>
       <path id="DejaVuSans-72" d="M 2631 2963 
Q 2534 3019 2420 3045 
Q 2306 3072 2169 3072 
Q 1681 3072 1420 2755 
Q 1159 2438 1159 1844 
L 1159 0 
L 581 0 
L 581 3500 
L 1159 3500 
L 1159 2956 
Q 1341 3275 1631 3429 
Q 1922 3584 2338 3584 
Q 2397 3584 2469 3576 
Q 2541 3569 2628 3553 
L 2631 2963 
z
" transform="scale(0.015625)"/>
       <path id="DejaVuSans-3a" d="M 750 794 
L 1409 794 
L 1409 0 
L 750 0 
L 750 794 
z
M 750 3309 
L 1409 3309 
L 1409 2516 
L 750 2516 
L 750 3309 
z
" transform="scale(0.015625)"/>
       <path id="DejaVuSans-6e" d="M 3513 2113 
L 3513 0 
L 2938 0 
L 2938 2094 
Q 2938 2591 2744 2837 
Q 2550 3084 2163 3084 
Q 1697 3084 1428 2787 
Q 1159 2491 1159 1978 
L 1159 0 
L 581 0 
L 581 3500 
L 1159 3500 
L 1159 2956 
Q 1366 3272 1645 3428 
Q 1925 3584 2291 3584 
Q 2894 3584 3203 3211 
Q 3513 2838 3513 2113 
z
" transform="scale(0.015625)"/>
       <path id="DejaVuSans-74" d="M 1172 4494 
L 1172 3500 
L 2356 3500 
L 2356 3053 
L 1172 3053 
L 1172 1153 
Q 1172 725 1289 603 
Q 1406 481 1766 481 
L 2356 481 
L 2356 0 
L 1766 0 
Q 1100 0 847 248 
Q 594 497 594 1153 
L 594 3053 
L 172 3053 
L 172 3500 
L 594 3500 
L 594 4494 
L 1172 4494 
z
" transform="scale(0.015625)"/>
       <path id="DejaVuSans-29" d="M 513 4856 
L 1013 4856 
Q 1481 4119 1714 3412 
Q 1947 2706 1947 2009 
Q 1947 1309 1714 600 
Q 1481 -109 1013 -844 
L 513 -844 
Q 928 -128 1133 580 
Q 1338 1288 1338 2009 
Q 1338 2731 1133 3434 
Q 928 4138 513 4856 
z
" transform="scale(0.015625)"/>
      </defs>
      <use xlink:href="#DejaVuSans-54"/>
      <use xlink:href="#DejaVuSans-69" x="57.958984"/>
      <use xlink:href="#DejaVuSans-6d" x="85.742188"/>
      <use xlink:href="#DejaVuSans-65" x="183.154297"/>
      <use xlink:href="#DejaVuSans-20" x="244.677734"/>
      <use xlink:href="#DejaVuSans-28" x="276.464844"/>
      <use xlink:href="#DejaVuSans-68" x="315.478516"/>
      <use xlink:href="#DejaVuSans-6f" x="378.857422"/>
      <use xlink:href="#DejaVuSans-75" x="440.039062"/>
      <use xlink:href="#DejaVuSans-72" x="503.417969"/>
      <use xlink:href="#DejaVuSans-3a" x="542.78125"/>
      <use xlink:href="#DejaVuSans-6d" x="576.472656"/>
      <use xlink:href="#DejaVuSans-69" x="673.884766"/>
      <use xlink:href="#DejaVuSans-6e" x="701.667969"/>
      <use xlink:href="#DejaVuSans-75" x="765.046875"/>
      <use xlink:href="#DejaVuSans-74" x="828.425781"/>
      <use xlink:href="#DejaVuSans-65" x="867.634766"/>
      <use xlink:href="#DejaVuSans-29" x="929.158203"/>
     </g>
    </g>
   </g>
   <g id="matplotlib.axis_2">
    <g id="ytick_1">
     <g id="line2d_2">
      <defs>
       <path id="m83bb457420" d="M 0 0 
L -3.5 0 
" style="stroke: #000000; stroke-width: 0.8"/>
      </defs>
      <g>
       <use xlink:href="#m83bb457420" x="59.690625" y="270.705367" style="stroke: #000000; stroke-width: 0.8"/>
      </g>
     </g>
     <g id="text_3">
      <!-- 7500 -->
      <g transform="translate(27.240625 274.504586) scale(0.1 -0.1)">
       <defs>
        <path id="DejaVuSans-37" d="M 525 4666 
L 3525 4666 
L 3525 4397 
L 1831 0 
L 1172 0 
L 2766 4134 
L 525 4134 
L 525 4666 
z
" transform="scale(0.015625)"/>
        <path id="DejaVuSans-30" d="M 2034 4250 
Q 1547 4250 1301 3770 
Q 1056 3291 1056 2328 
Q 1056 1369 1301 889 
Q 1547 409 2034 409 
Q 2525 409 2770 889 
Q 3016 1369 3016 2328 
Q 3016 3291 2770 3770 
Q 2525 4250 2034 4250 
z
M 2034 4750 
Q 2819 4750 3233 4129 
Q 3647 3509 3647 2328 
Q 3647 1150 3233 529 
Q 2819 -91 2034 -91 
Q 1250 -91 836 529 
Q 422 1150 422 2328 
Q 422 3509 836 4129 
Q 1250 4750 2034 4750 
z
" transform="scale(0.015625)"/>
       </defs>
       <use xlink:href="#DejaVuSans-37"/>
       <use xlink:href="#DejaVuSans-35" x="63.623047"/>
       <use xlink:href="#DejaVuSans-30" x="127.246094"/>
       <use xlink:href="#DejaVuSans-30" x="190.869141"/>
      </g>
     </g>
    </g>
    <g id="ytick_2">
     <g id="line2d_3">
      <g>
       <use xlink:href="#m83bb457420" x="59.690625" y="227.523488" style="stroke: #000000; stroke-width: 0.8"/>
      </g>
     </g>
     <g id="text_4">
      <!-- 8000 -->
      <g transform="translate(27.240625 231.322707) scale(0.1 -0.1)">
       <defs>
        <path id="DejaVuSans-38" d="M 2034 2216 
Q 1584 2216 1326 1975 
Q 1069 1734 1069 1313 
Q 1069 891 1326 650 
Q 1584 409 2034 409 
Q 2484 409 2743 651 
Q 3003 894 3003 1313 
Q 3003 1734 2745 1975 
Q 2488 2216 2034 2216 
z
M 1403 2484 
Q 997 2584 770 2862 
Q 544 3141 544 3541 
Q 544 4100 942 4425 
Q 1341 4750 2034 4750 
Q 2731 4750 3128 4425 
Q 3525 4100 3525 3541 
Q 3525 3141 3298 2862 
Q 3072 2584 2669 2484 
Q 3125 2378 3379 2068 
Q 3634 1759 3634 1313 
Q 3634 634 3220 271 
Q 2806 -91 2034 -91 
Q 1263 -91 848 271 
Q 434 634 434 1313 
Q 434 1759 690 2068 
Q 947 2378 1403 2484 
z
M 1172 3481 
Q 1172 3119 1398 2916 
Q 1625 2713 2034 2713 
Q 2441 2713 2670 2916 
Q 2900 3119 2900 3481 
Q 2900 3844 2670 4047 
Q 2441 4250 2034 4250 
Q 1625 4250 1398 4047 
Q 1172 3844 1172 3481 
z
" transform="scale(0.015625)"/>
       </defs>
       <use xlink:href="#DejaVuSans-38"/>
       <use xlink:href="#DejaVuSans-30" x="63.623047"/>
       <use xlink:href="#DejaVuSans-30" x="127.246094"/>
       <use xlink:href="#DejaVuSans-30" x="190.869141"/>
      </g>
     </g>
    </g>
    <g id="ytick_3">
     <g id="line2d_4">
      <g>
       <use xlink:href="#m83bb457420" x="59.690625" y="184.341609" style="stroke: #000000; stroke-width: 0.8"/>
      </g>
     </g>
     <g id="text_5">
      <!-- 8500 -->
      <g transform="translate(27.240625 188.140828) scale(0.1 -0.1)">
       <use xlink:href="#DejaVuSans-38"/>
       <use xlink:href="#DejaVuSans-35" x="63.623047"/>
       <use xlink:href="#DejaVuSans-30" x="127.246094"/>
       <use xlink:href="#DejaVuSans-30" x="190.869141"/>
      </g>
     </g>
    </g>
    <g id="ytick_4">
     <g id="line2d_5">
      <g>
       <use xlink:href="#m83bb457420" x="59.690625" y="141.15973" style="stroke: #000000; stroke-width: 0.8"/>
      </g>
     </g>
     <g id="text_6">
      <!-- 9000 -->
      <g transform="translate(27.240625 144.958949) scale(0.1 -0.1)">
       <defs>
        <path id="DejaVuSans-39" d="M 703 97 
L 703 672 
Q 941 559 1184 500 
Q 1428 441 1663 441 
Q 2288 441 2617 861 
Q 2947 1281 2994 2138 
Q 2813 1869 2534 1725 
Q 2256 1581 1919 1581 
Q 1219 1581 811 2004 
Q 403 2428 403 3163 
Q 403 3881 828 4315 
Q 1253 4750 1959 4750 
Q 2769 4750 3195 4129 
Q 3622 3509 3622 2328 
Q 3622 1225 3098 567 
Q 2575 -91 1691 -91 
Q 1453 -91 1209 -44 
Q 966 3 703 97 
z
M 1959 2075 
Q 2384 2075 2632 2365 
Q 2881 2656 2881 3163 
Q 2881 3666 2632 3958 
Q 2384 4250 1959 4250 
Q 1534 4250 1286 3958 
Q 1038 3666 1038 3163 
Q 1038 2656 1286 2365 
Q 1534 2075 1959 2075 
z
" transform="scale(0.015625)"/>
       </defs>
       <use xlink:href="#DejaVuSans-39"/>
       <use xlink:href="#DejaVuSans-30" x="63.623047"/>
       <use xlink:href="#DejaVuSans-30" x="127.246094"/>
       <use xlink:href="#DejaVuSans-30" x="190.869141"/>
      </g>
     </g>
    </g>
    <g id="ytick_5">
     <g id="line2d_6">
      <g>
       <use xlink:href="#m83bb457420" x="59.690625" y="97.977851" style="stroke: #000000; stroke-width: 0.8"/>
      </g>
     </g>
     <g id="text_7">
      <!-- 9500 -->
      <g transform="translate(27.240625 101.77707) scale(0.1 -0.1)">
       <use xlink:href="#DejaVuSans-39"/>
       <use xlink:href="#DejaVuSans-35" x="63.623047"/>
       <use xlink:href="#DejaVuSans-30" x="127.246094"/>
       <use xlink:href="#DejaVuSans-30" x="190.869141"/>
      </g>
     </g>
    </g>
    <g id="ytick_6">
     <g id="line2d_7">
      <g>
       <use xlink:href="#m83bb457420" x="59.690625" y="54.795972" style="stroke: #000000; stroke-width: 0.8"/>
      </g>
     </g>
     <g id="text_8">
      <!-- 10000 -->
      <g transform="translate(20.878125 58.595191) scale(0.1 -0.1)">
       <use xlink:href="#DejaVuSans-31"/>
       <use xlink:href="#DejaVuSans-30" x="63.623047"/>
       <use xlink:href="#DejaVuSans-30" x="127.246094"/>
       <use xlink:href="#DejaVuSans-30" x="190.869141"/>
       <use xlink:href="#DejaVuSans-30" x="254.492188"/>
      </g>
     </g>
    </g>
    <g id="text_9">
     <!-- Code branch coverage -->
     <g transform="translate(14.798438 211.949125) rotate(-90) scale(0.1 -0.1)">
      <defs>
       <path id="DejaVuSans-43" d="M 4122 4306 
L 4122 3641 
Q 3803 3938 3442 4084 
Q 3081 4231 2675 4231 
Q 1875 4231 1450 3742 
Q 1025 3253 1025 2328 
Q 1025 1406 1450 917 
Q 1875 428 2675 428 
Q 3081 428 3442 575 
Q 3803 722 4122 1019 
L 4122 359 
Q 3791 134 3420 21 
Q 3050 -91 2638 -91 
Q 1578 -91 968 557 
Q 359 1206 359 2328 
Q 359 3453 968 4101 
Q 1578 4750 2638 4750 
Q 3056 4750 3426 4639 
Q 3797 4528 4122 4306 
z
" transform="scale(0.015625)"/>
       <path id="DejaVuSans-64" d="M 2906 2969 
L 2906 4863 
L 3481 4863 
L 3481 0 
L 2906 0 
L 2906 525 
Q 2725 213 2448 61 
Q 2172 -91 1784 -91 
Q 1150 -91 751 415 
Q 353 922 353 1747 
Q 353 2572 751 3078 
Q 1150 3584 1784 3584 
Q 2172 3584 2448 3432 
Q 2725 3281 2906 2969 
z
M 947 1747 
Q 947 1113 1208 752 
Q 1469 391 1925 391 
Q 2381 391 2643 752 
Q 2906 1113 2906 1747 
Q 2906 2381 2643 2742 
Q 2381 3103 1925 3103 
Q 1469 3103 1208 2742 
Q 947 2381 947 1747 
z
" transform="scale(0.015625)"/>
       <path id="DejaVuSans-62" d="M 3116 1747 
Q 3116 2381 2855 2742 
Q 2594 3103 2138 3103 
Q 1681 3103 1420 2742 
Q 1159 2381 1159 1747 
Q 1159 1113 1420 752 
Q 1681 391 2138 391 
Q 2594 391 2855 752 
Q 3116 1113 3116 1747 
z
M 1159 2969 
Q 1341 3281 1617 3432 
Q 1894 3584 2278 3584 
Q 2916 3584 3314 3078 
Q 3713 2572 3713 1747 
Q 3713 922 3314 415 
Q 2916 -91 2278 -91 
Q 1894 -91 1617 61 
Q 1341 213 1159 525 
L 1159 0 
L 581 0 
L 581 4863 
L 1159 4863 
L 1159 2969 
z
" transform="scale(0.015625)"/>
       <path id="DejaVuSans-61" d="M 2194 1759 
Q 1497 1759 1228 1600 
Q 959 1441 959 1056 
Q 959 750 1161 570 
Q 1363 391 1709 391 
Q 2188 391 2477 730 
Q 2766 1069 2766 1631 
L 2766 1759 
L 2194 1759 
z
M 3341 1997 
L 3341 0 
L 2766 0 
L 2766 531 
Q 2569 213 2275 61 
Q 1981 -91 1556 -91 
Q 1019 -91 701 211 
Q 384 513 384 1019 
Q 384 1609 779 1909 
Q 1175 2209 1959 2209 
L 2766 2209 
L 2766 2266 
Q 2766 2663 2505 2880 
Q 2244 3097 1772 3097 
Q 1472 3097 1187 3025 
Q 903 2953 641 2809 
L 641 3341 
Q 956 3463 1253 3523 
Q 1550 3584 1831 3584 
Q 2591 3584 2966 3190 
Q 3341 2797 3341 1997 
z
" transform="scale(0.015625)"/>
       <path id="DejaVuSans-63" d="M 3122 3366 
L 3122 2828 
Q 2878 2963 2633 3030 
Q 2388 3097 2138 3097 
Q 1578 3097 1268 2742 
Q 959 2388 959 1747 
Q 959 1106 1268 751 
Q 1578 397 2138 397 
Q 2388 397 2633 464 
Q 2878 531 3122 666 
L 3122 134 
Q 2881 22 2623 -34 
Q 2366 -91 2075 -91 
Q 1284 -91 818 406 
Q 353 903 353 1747 
Q 353 2603 823 3093 
Q 1294 3584 2113 3584 
Q 2378 3584 2631 3529 
Q 2884 3475 3122 3366 
z
" transform="scale(0.015625)"/>
       <path id="DejaVuSans-76" d="M 191 3500 
L 800 3500 
L 1894 563 
L 2988 3500 
L 3597 3500 
L 2284 0 
L 1503 0 
L 191 3500 
z
" transform="scale(0.015625)"/>
       <path id="DejaVuSans-67" d="M 2906 1791 
Q 2906 2416 2648 2759 
Q 2391 3103 1925 3103 
Q 1463 3103 1205 2759 
Q 947 2416 947 1791 
Q 947 1169 1205 825 
Q 1463 481 1925 481 
Q 2391 481 2648 825 
Q 2906 1169 2906 1791 
z
M 3481 434 
Q 3481 -459 3084 -895 
Q 2688 -1331 1869 -1331 
Q 1566 -1331 1297 -1286 
Q 1028 -1241 775 -1147 
L 775 -588 
Q 1028 -725 1275 -790 
Q 1522 -856 1778 -856 
Q 2344 -856 2625 -561 
Q 2906 -266 2906 331 
L 2906 616 
Q 2728 306 2450 153 
Q 2172 0 1784 0 
Q 1141 0 747 490 
Q 353 981 353 1791 
Q 353 2603 747 3093 
Q 1141 3584 1784 3584 
Q 2172 3584 2450 3431 
Q 2728 3278 2906 2969 
L 2906 3500 
L 3481 3500 
L 3481 434 
z
" transform="scale(0.015625)"/>
      </defs>
      <use xlink:href="#DejaVuSans-43"/>
      <use xlink:href="#DejaVuSans-6f" x="69.824219"/>
      <use xlink:href="#DejaVuSans-64" x="131.005859"/>
      <use xlink:href="#DejaVuSans-65" x="194.482422"/>
      <use xlink:href="#DejaVuSans-20" x="256.005859"/>
      <use xlink:href="#DejaVuSans-62" x="287.792969"/>
      <use xlink:href="#DejaVuSans-72" x="351.269531"/>
      <use xlink:href="#DejaVuSans-61" x="392.382812"/>
      <use xlink:href="#DejaVuSans-6e" x="453.662109"/>
      <use xlink:href="#DejaVuSans-63" x="517.041016"/>
      <use xlink:href="#DejaVuSans-68" x="572.021484"/>
      <use xlink:href="#DejaVuSans-20" x="635.400391"/>
      <use xlink:href="#DejaVuSans-63" x="667.1875"/>
      <use xlink:href="#DejaVuSans-6f" x="722.167969"/>
      <use xlink:href="#DejaVuSans-76" x="783.349609"/>
      <use xlink:href="#DejaVuSans-65" x="842.529297"/>
      <use xlink:href="#DejaVuSans-72" x="904.052734"/>
      <use xlink:href="#DejaVuSans-61" x="945.166016"/>
      <use xlink:href="#DejaVuSans-67" x="1006.445312"/>
      <use xlink:href="#DejaVuSans-65" x="1069.921875"/>
     </g>
    </g>
   </g>
   <g id="line2d_8">
    <path d="M 92.15608 181.707514 
L 138.5353 153.812021 
L 184.914521 142.584732 
L 231.293742 134.898358 
L 277.672963 124.966525 
L 324.052183 115.639239 
L 370.431404 110.802869 
L 416.810625 104.671042 
L 463.189846 98.668761 
L 509.569067 84.15965 
L 555.948287 78.373278 
L 602.327508 73.536907 
L 648.706729 69.21872 
L 695.08595 60.884617 
L 741.46517 56.609611 
" clip-path="url(#p0514c312d3)" style="fill: none; stroke: #ff7f0e; stroke-width: 1.5; stroke-linecap: square"/>
    <defs>
     <path id="m180b35deef" d="M 3 0 
L -3 -3 
L -3 3 
z
" style="stroke: #ffffff; stroke-width: 0.75; stroke-linejoin: miter"/>
    </defs>
    <g clip-path="url(#p0514c312d3)">
     <use xlink:href="#m180b35deef" x="92.15608" y="181.707514" style="fill: #ff7f0e; stroke: #ffffff; stroke-width: 0.75; stroke-linejoin: miter"/>
     <use xlink:href="#m180b35deef" x="138.5353" y="153.812021" style="fill: #ff7f0e; stroke: #ffffff; stroke-width: 0.75; stroke-linejoin: miter"/>
     <use xlink:href="#m180b35deef" x="184.914521" y="142.584732" style="fill: #ff7f0e; stroke: #ffffff; stroke-width: 0.75; stroke-linejoin: miter"/>
     <use xlink:href="#m180b35deef" x="231.293742" y="134.898358" style="fill: #ff7f0e; stroke: #ffffff; stroke-width: 0.75; stroke-linejoin: miter"/>
     <use xlink:href="#m180b35deef" x="277.672963" y="124.966525" style="fill: #ff7f0e; stroke: #ffffff; stroke-width: 0.75; stroke-linejoin: miter"/>
     <use xlink:href="#m180b35deef" x="324.052183" y="115.639239" style="fill: #ff7f0e; stroke: #ffffff; stroke-width: 0.75; stroke-linejoin: miter"/>
     <use xlink:href="#m180b35deef" x="370.431404" y="110.802869" style="fill: #ff7f0e; stroke: #ffffff; stroke-width: 0.75; stroke-linejoin: miter"/>
     <use xlink:href="#m180b35deef" x="416.810625" y="104.671042" style="fill: #ff7f0e; stroke: #ffffff; stroke-width: 0.75; stroke-linejoin: miter"/>
     <use xlink:href="#m180b35deef" x="463.189846" y="98.668761" style="fill: #ff7f0e; stroke: #ffffff; stroke-width: 0.75; stroke-linejoin: miter"/>
     <use xlink:href="#m180b35deef" x="509.569067" y="84.15965" style="fill: #ff7f0e; stroke: #ffffff; stroke-width: 0.75; stroke-linejoin: miter"/>
     <use xlink:href="#m180b35deef" x="555.948287" y="78.373278" style="fill: #ff7f0e; stroke: #ffffff; stroke-width: 0.75; stroke-linejoin: miter"/>
     <use xlink:href="#m180b35deef" x="602.327508" y="73.536907" style="fill: #ff7f0e; stroke: #ffffff; stroke-width: 0.75; stroke-linejoin: miter"/>
     <use xlink:href="#m180b35deef" x="648.706729" y="69.21872" style="fill: #ff7f0e; stroke: #ffffff; stroke-width: 0.75; stroke-linejoin: miter"/>
     <use xlink:href="#m180b35deef" x="695.08595" y="60.884617" style="fill: #ff7f0e; stroke: #ffffff; stroke-width: 0.75; stroke-linejoin: miter"/>
     <use xlink:href="#m180b35deef" x="741.46517" y="56.609611" style="fill: #ff7f0e; stroke: #ffffff; stroke-width: 0.75; stroke-linejoin: miter"/>
    </g>
   </g>
   <g id="line2d_9">
    <path d="M 92.15608 231.280312 
L 138.5353 189.005252 
L 184.914521 176.396143 
L 231.293742 160.332484 
L 277.672963 149.277923 
L 324.052183 143.837006 
L 370.431404 138.18018 
L 416.810625 134.380175 
L 463.189846 126.477891 
L 509.569067 121.943794 
L 555.948287 111.882416 
L 602.327508 110.716505 
L 648.706729 106.096044 
L 695.08595 104.411951 
L 741.46517 100.050581 
" clip-path="url(#p0514c312d3)" style="fill: none; stroke: #c7c7c7; stroke-width: 1.5; stroke-linecap: square"/>
    <defs>
     <path id="m78159ffed7" d="M -3 -0 
L 3 3 
L 3 -3 
z
" style="stroke: #ffffff; stroke-width: 0.75; stroke-linejoin: miter"/>
    </defs>
    <g clip-path="url(#p0514c312d3)">
     <use xlink:href="#m78159ffed7" x="92.15608" y="231.280312" style="fill: #c7c7c7; stroke: #ffffff; stroke-width: 0.75; stroke-linejoin: miter"/>
     <use xlink:href="#m78159ffed7" x="138.5353" y="189.005252" style="fill: #c7c7c7; stroke: #ffffff; stroke-width: 0.75; stroke-linejoin: miter"/>
     <use xlink:href="#m78159ffed7" x="184.914521" y="176.396143" style="fill: #c7c7c7; stroke: #ffffff; stroke-width: 0.75; stroke-linejoin: miter"/>
     <use xlink:href="#m78159ffed7" x="231.293742" y="160.332484" style="fill: #c7c7c7; stroke: #ffffff; stroke-width: 0.75; stroke-linejoin: miter"/>
     <use xlink:href="#m78159ffed7" x="277.672963" y="149.277923" style="fill: #c7c7c7; stroke: #ffffff; stroke-width: 0.75; stroke-linejoin: miter"/>
     <use xlink:href="#m78159ffed7" x="324.052183" y="143.837006" style="fill: #c7c7c7; stroke: #ffffff; stroke-width: 0.75; stroke-linejoin: miter"/>
     <use xlink:href="#m78159ffed7" x="370.431404" y="138.18018" style="fill: #c7c7c7; stroke: #ffffff; stroke-width: 0.75; stroke-linejoin: miter"/>
     <use xlink:href="#m78159ffed7" x="416.810625" y="134.380175" style="fill: #c7c7c7; stroke: #ffffff; stroke-width: 0.75; stroke-linejoin: miter"/>
     <use xlink:href="#m78159ffed7" x="463.189846" y="126.477891" style="fill: #c7c7c7; stroke: #ffffff; stroke-width: 0.75; stroke-linejoin: miter"/>
     <use xlink:href="#m78159ffed7" x="509.569067" y="121.943794" style="fill: #c7c7c7; stroke: #ffffff; stroke-width: 0.75; stroke-linejoin: miter"/>
     <use xlink:href="#m78159ffed7" x="555.948287" y="111.882416" style="fill: #c7c7c7; stroke: #ffffff; stroke-width: 0.75; stroke-linejoin: miter"/>
     <use xlink:href="#m78159ffed7" x="602.327508" y="110.716505" style="fill: #c7c7c7; stroke: #ffffff; stroke-width: 0.75; stroke-linejoin: miter"/>
     <use xlink:href="#m78159ffed7" x="648.706729" y="106.096044" style="fill: #c7c7c7; stroke: #ffffff; stroke-width: 0.75; stroke-linejoin: miter"/>
     <use xlink:href="#m78159ffed7" x="695.08595" y="104.411951" style="fill: #c7c7c7; stroke: #ffffff; stroke-width: 0.75; stroke-linejoin: miter"/>
     <use xlink:href="#m78159ffed7" x="741.46517" y="100.050581" style="fill: #c7c7c7; stroke: #ffffff; stroke-width: 0.75; stroke-linejoin: miter"/>
    </g>
   </g>
   <g id="line2d_10">
    <path d="M 92.15608 240.823507 
L 138.5353 202.737089 
L 184.914521 192.675712 
L 231.293742 186.975704 
L 277.672963 175.014323 
L 324.052183 161.066576 
L 370.431404 155.625659 
L 416.810625 147.421102 
L 463.189846 144.225643 
L 509.569067 134.336993 
L 555.948287 127.773347 
L 602.327508 126.564255 
L 648.706729 120.432428 
L 695.08595 106.700591 
L 741.46517 106.571045 
" clip-path="url(#p0514c312d3)" style="fill: none; stroke: #98df8a; stroke-width: 1.5; stroke-linecap: square"/>
    <defs>
     <path id="m06d00da9d5" d="M -0 3 
L 3 -3 
L -3 -3 
z
" style="stroke: #ffffff; stroke-width: 0.75; stroke-linejoin: miter"/>
    </defs>
    <g clip-path="url(#p0514c312d3)">
     <use xlink:href="#m06d00da9d5" x="92.15608" y="240.823507" style="fill: #98df8a; stroke: #ffffff; stroke-width: 0.75; stroke-linejoin: miter"/>
     <use xlink:href="#m06d00da9d5" x="138.5353" y="202.737089" style="fill: #98df8a; stroke: #ffffff; stroke-width: 0.75; stroke-linejoin: miter"/>
     <use xlink:href="#m06d00da9d5" x="184.914521" y="192.675712" style="fill: #98df8a; stroke: #ffffff; stroke-width: 0.75; stroke-linejoin: miter"/>
     <use xlink:href="#m06d00da9d5" x="231.293742" y="186.975704" style="fill: #98df8a; stroke: #ffffff; stroke-width: 0.75; stroke-linejoin: miter"/>
     <use xlink:href="#m06d00da9d5" x="277.672963" y="175.014323" style="fill: #98df8a; stroke: #ffffff; stroke-width: 0.75; stroke-linejoin: miter"/>
     <use xlink:href="#m06d00da9d5" x="324.052183" y="161.066576" style="fill: #98df8a; stroke: #ffffff; stroke-width: 0.75; stroke-linejoin: miter"/>
     <use xlink:href="#m06d00da9d5" x="370.431404" y="155.625659" style="fill: #98df8a; stroke: #ffffff; stroke-width: 0.75; stroke-linejoin: miter"/>
     <use xlink:href="#m06d00da9d5" x="416.810625" y="147.421102" style="fill: #98df8a; stroke: #ffffff; stroke-width: 0.75; stroke-linejoin: miter"/>
     <use xlink:href="#m06d00da9d5" x="463.189846" y="144.225643" style="fill: #98df8a; stroke: #ffffff; stroke-width: 0.75; stroke-linejoin: miter"/>
     <use xlink:href="#m06d00da9d5" x="509.569067" y="134.336993" style="fill: #98df8a; stroke: #ffffff; stroke-width: 0.75; stroke-linejoin: miter"/>
     <use xlink:href="#m06d00da9d5" x="555.948287" y="127.773347" style="fill: #98df8a; stroke: #ffffff; stroke-width: 0.75; stroke-linejoin: miter"/>
     <use xlink:href="#m06d00da9d5" x="602.327508" y="126.564255" style="fill: #98df8a; stroke: #ffffff; stroke-width: 0.75; stroke-linejoin: miter"/>
     <use xlink:href="#m06d00da9d5" x="648.706729" y="120.432428" style="fill: #98df8a; stroke: #ffffff; stroke-width: 0.75; stroke-linejoin: miter"/>
     <use xlink:href="#m06d00da9d5" x="695.08595" y="106.700591" style="fill: #98df8a; stroke: #ffffff; stroke-width: 0.75; stroke-linejoin: miter"/>
     <use xlink:href="#m06d00da9d5" x="741.46517" y="106.571045" style="fill: #98df8a; stroke: #ffffff; stroke-width: 0.75; stroke-linejoin: miter"/>
    </g>
   </g>
   <g id="line2d_11">
    <path d="M 92.15608 255.203072 
L 138.5353 240.348506 
L 184.914521 230.978038 
L 231.293742 217.893929 
L 277.672963 207.443914 
L 324.052183 196.302989 
L 370.431404 191.768892 
L 416.810625 186.414339 
L 463.189846 177.605236 
L 509.569067 172.509774 
L 555.948287 169.702952 
L 602.327508 164.909763 
L 648.706729 158.8643 
L 695.08595 152.818837 
L 741.46517 149.752924 
" clip-path="url(#p0514c312d3)" style="fill: none; stroke: #1f77b4; stroke-width: 1.5; stroke-linecap: square"/>
    <defs>
     <path id="ma565e15e9b" d="M 0 3 
C 0.795609 3 1.55874 2.683901 2.12132 2.12132 
C 2.683901 1.55874 3 0.795609 3 0 
C 3 -0.795609 2.683901 -1.55874 2.12132 -2.12132 
C 1.55874 -2.683901 0.795609 -3 0 -3 
C -0.795609 -3 -1.55874 -2.683901 -2.12132 -2.12132 
C -2.683901 -1.55874 -3 -0.795609 -3 0 
C -3 0.795609 -2.683901 1.55874 -2.12132 2.12132 
C -1.55874 2.683901 -0.795609 3 0 3 
z
" style="stroke: #ffffff; stroke-width: 0.75"/>
    </defs>
    <g clip-path="url(#p0514c312d3)">
     <use xlink:href="#ma565e15e9b" x="92.15608" y="255.203072" style="fill: #1f77b4; stroke: #ffffff; stroke-width: 0.75"/>
     <use xlink:href="#ma565e15e9b" x="138.5353" y="240.348506" style="fill: #1f77b4; stroke: #ffffff; stroke-width: 0.75"/>
     <use xlink:href="#ma565e15e9b" x="184.914521" y="230.978038" style="fill: #1f77b4; stroke: #ffffff; stroke-width: 0.75"/>
     <use xlink:href="#ma565e15e9b" x="231.293742" y="217.893929" style="fill: #1f77b4; stroke: #ffffff; stroke-width: 0.75"/>
     <use xlink:href="#ma565e15e9b" x="277.672963" y="207.443914" style="fill: #1f77b4; stroke: #ffffff; stroke-width: 0.75"/>
     <use xlink:href="#ma565e15e9b" x="324.052183" y="196.302989" style="fill: #1f77b4; stroke: #ffffff; stroke-width: 0.75"/>
     <use xlink:href="#ma565e15e9b" x="370.431404" y="191.768892" style="fill: #1f77b4; stroke: #ffffff; stroke-width: 0.75"/>
     <use xlink:href="#ma565e15e9b" x="416.810625" y="186.414339" style="fill: #1f77b4; stroke: #ffffff; stroke-width: 0.75"/>
     <use xlink:href="#ma565e15e9b" x="463.189846" y="177.605236" style="fill: #1f77b4; stroke: #ffffff; stroke-width: 0.75"/>
     <use xlink:href="#ma565e15e9b" x="509.569067" y="172.509774" style="fill: #1f77b4; stroke: #ffffff; stroke-width: 0.75"/>
     <use xlink:href="#ma565e15e9b" x="555.948287" y="169.702952" style="fill: #1f77b4; stroke: #ffffff; stroke-width: 0.75"/>
     <use xlink:href="#ma565e15e9b" x="602.327508" y="164.909763" style="fill: #1f77b4; stroke: #ffffff; stroke-width: 0.75"/>
     <use xlink:href="#ma565e15e9b" x="648.706729" y="158.8643" style="fill: #1f77b4; stroke: #ffffff; stroke-width: 0.75"/>
     <use xlink:href="#ma565e15e9b" x="695.08595" y="152.818837" style="fill: #1f77b4; stroke: #ffffff; stroke-width: 0.75"/>
     <use xlink:href="#ma565e15e9b" x="741.46517" y="149.752924" style="fill: #1f77b4; stroke: #ffffff; stroke-width: 0.75"/>
    </g>
   </g>
   <g id="line2d_12">
    <path d="M 92.15608 235.771227 
L 138.5353 210.3371 
L 184.914521 198.246174 
L 231.293742 187.062067 
L 277.672963 177.648418 
L 324.052183 177.043871 
L 370.431404 170.868863 
L 416.810625 165.341582 
L 463.189846 164.650672 
L 509.569067 161.455213 
L 555.948287 156.187024 
L 602.327508 151.307472 
L 648.706729 149.88247 
L 695.08595 149.018832 
L 741.46517 146.773374 
" clip-path="url(#p0514c312d3)" style="fill: none; stroke: #ff9896; stroke-width: 1.5; stroke-linecap: square"/>
    <defs>
     <path id="m1215cf2c0f" d="M -1.14805 -2.771639 
L -2.771639 -1.14805 
L -2.771639 1.14805 
L -1.14805 2.771639 
L 1.14805 2.771639 
L 2.771639 1.14805 
L 2.771639 -1.14805 
L 1.14805 -2.771639 
z
" style="stroke: #ffffff; stroke-width: 0.75; stroke-linejoin: miter"/>
    </defs>
    <g clip-path="url(#p0514c312d3)">
     <use xlink:href="#m1215cf2c0f" x="92.15608" y="235.771227" style="fill: #ff9896; stroke: #ffffff; stroke-width: 0.75; stroke-linejoin: miter"/>
     <use xlink:href="#m1215cf2c0f" x="138.5353" y="210.3371" style="fill: #ff9896; stroke: #ffffff; stroke-width: 0.75; stroke-linejoin: miter"/>
     <use xlink:href="#m1215cf2c0f" x="184.914521" y="198.246174" style="fill: #ff9896; stroke: #ffffff; stroke-width: 0.75; stroke-linejoin: miter"/>
     <use xlink:href="#m1215cf2c0f" x="231.293742" y="187.062067" style="fill: #ff9896; stroke: #ffffff; stroke-width: 0.75; stroke-linejoin: miter"/>
     <use xlink:href="#m1215cf2c0f" x="277.672963" y="177.648418" style="fill: #ff9896; stroke: #ffffff; stroke-width: 0.75; stroke-linejoin: miter"/>
     <use xlink:href="#m1215cf2c0f" x="324.052183" y="177.043871" style="fill: #ff9896; stroke: #ffffff; stroke-width: 0.75; stroke-linejoin: miter"/>
     <use xlink:href="#m1215cf2c0f" x="370.431404" y="170.868863" style="fill: #ff9896; stroke: #ffffff; stroke-width: 0.75; stroke-linejoin: miter"/>
     <use xlink:href="#m1215cf2c0f" x="416.810625" y="165.341582" style="fill: #ff9896; stroke: #ffffff; stroke-width: 0.75; stroke-linejoin: miter"/>
     <use xlink:href="#m1215cf2c0f" x="463.189846" y="164.650672" style="fill: #ff9896; stroke: #ffffff; stroke-width: 0.75; stroke-linejoin: miter"/>
     <use xlink:href="#m1215cf2c0f" x="509.569067" y="161.455213" style="fill: #ff9896; stroke: #ffffff; stroke-width: 0.75; stroke-linejoin: miter"/>
     <use xlink:href="#m1215cf2c0f" x="555.948287" y="156.187024" style="fill: #ff9896; stroke: #ffffff; stroke-width: 0.75; stroke-linejoin: miter"/>
     <use xlink:href="#m1215cf2c0f" x="602.327508" y="151.307472" style="fill: #ff9896; stroke: #ffffff; stroke-width: 0.75; stroke-linejoin: miter"/>
     <use xlink:href="#m1215cf2c0f" x="648.706729" y="149.88247" style="fill: #ff9896; stroke: #ffffff; stroke-width: 0.75; stroke-linejoin: miter"/>
     <use xlink:href="#m1215cf2c0f" x="695.08595" y="149.018832" style="fill: #ff9896; stroke: #ffffff; stroke-width: 0.75; stroke-linejoin: miter"/>
     <use xlink:href="#m1215cf2c0f" x="741.46517" y="146.773374" style="fill: #ff9896; stroke: #ffffff; stroke-width: 0.75; stroke-linejoin: miter"/>
    </g>
   </g>
   <g id="line2d_13">
    <path d="M 92.15608 265.696269 
L 138.5353 242.032599 
L 184.914521 228.516671 
L 231.293742 219.405295 
L 277.672963 217.807565 
L 324.052183 208.350734 
L 370.431404 206.148458 
L 416.810625 204.421183 
L 463.189846 198.893902 
L 509.569067 192.977985 
L 555.948287 179.54842 
L 602.327508 173.287048 
L 648.706729 164.909763 
L 695.08595 160.764303 
L 741.46517 159.08021 
" clip-path="url(#p0514c312d3)" style="fill: none; stroke: #d62728; stroke-width: 1.5; stroke-linecap: square"/>
    <defs>
     <path id="m2f3432b1eb" d="M 0 -3 
L -3 3 
L 3 3 
z
" style="stroke: #ffffff; stroke-width: 0.75; stroke-linejoin: miter"/>
    </defs>
    <g clip-path="url(#p0514c312d3)">
     <use xlink:href="#m2f3432b1eb" x="92.15608" y="265.696269" style="fill: #d62728; stroke: #ffffff; stroke-width: 0.75; stroke-linejoin: miter"/>
     <use xlink:href="#m2f3432b1eb" x="138.5353" y="242.032599" style="fill: #d62728; stroke: #ffffff; stroke-width: 0.75; stroke-linejoin: miter"/>
     <use xlink:href="#m2f3432b1eb" x="184.914521" y="228.516671" style="fill: #d62728; stroke: #ffffff; stroke-width: 0.75; stroke-linejoin: miter"/>
     <use xlink:href="#m2f3432b1eb" x="231.293742" y="219.405295" style="fill: #d62728; stroke: #ffffff; stroke-width: 0.75; stroke-linejoin: miter"/>
     <use xlink:href="#m2f3432b1eb" x="277.672963" y="217.807565" style="fill: #d62728; stroke: #ffffff; stroke-width: 0.75; stroke-linejoin: miter"/>
     <use xlink:href="#m2f3432b1eb" x="324.052183" y="208.350734" style="fill: #d62728; stroke: #ffffff; stroke-width: 0.75; stroke-linejoin: miter"/>
     <use xlink:href="#m2f3432b1eb" x="370.431404" y="206.148458" style="fill: #d62728; stroke: #ffffff; stroke-width: 0.75; stroke-linejoin: miter"/>
     <use xlink:href="#m2f3432b1eb" x="416.810625" y="204.421183" style="fill: #d62728; stroke: #ffffff; stroke-width: 0.75; stroke-linejoin: miter"/>
     <use xlink:href="#m2f3432b1eb" x="463.189846" y="198.893902" style="fill: #d62728; stroke: #ffffff; stroke-width: 0.75; stroke-linejoin: miter"/>
     <use xlink:href="#m2f3432b1eb" x="509.569067" y="192.977985" style="fill: #d62728; stroke: #ffffff; stroke-width: 0.75; stroke-linejoin: miter"/>
     <use xlink:href="#m2f3432b1eb" x="555.948287" y="179.54842" style="fill: #d62728; stroke: #ffffff; stroke-width: 0.75; stroke-linejoin: miter"/>
     <use xlink:href="#m2f3432b1eb" x="602.327508" y="173.287048" style="fill: #d62728; stroke: #ffffff; stroke-width: 0.75; stroke-linejoin: miter"/>
     <use xlink:href="#m2f3432b1eb" x="648.706729" y="164.909763" style="fill: #d62728; stroke: #ffffff; stroke-width: 0.75; stroke-linejoin: miter"/>
     <use xlink:href="#m2f3432b1eb" x="695.08595" y="160.764303" style="fill: #d62728; stroke: #ffffff; stroke-width: 0.75; stroke-linejoin: miter"/>
     <use xlink:href="#m2f3432b1eb" x="741.46517" y="159.08021" style="fill: #d62728; stroke: #ffffff; stroke-width: 0.75; stroke-linejoin: miter"/>
    </g>
   </g>
   <g id="line2d_14"/>
   <g id="line2d_15"/>
   <g id="line2d_16"/>
   <g id="line2d_17"/>
   <g id="line2d_18"/>
   <g id="line2d_19"/>
   <g id="line2d_20">
    <path d="M 741.46517 288.430125 
L 741.46517 22.318125 
" clip-path="url(#p0514c312d3)" style="fill: none; stroke: #ff0000; stroke-width: 1.5; stroke-linecap: square"/>
   </g>
   <g id="patch_3">
    <path d="M 59.690625 270.705367 
L 59.690625 54.795972 
" style="fill: none; stroke: #000000; stroke-width: 0.8; stroke-linejoin: miter; stroke-linecap: square"/>
   </g>
   <g id="patch_4">
    <path d="M 741.46517 288.430125 
L 741.46517 288.430125 
" style="fill: none; stroke: #000000; stroke-width: 0.8; stroke-linejoin: miter; stroke-linecap: square"/>
   </g>
   <g id="text_10">
    <!-- php_php-fuzz-parser (15m, 20 trials/fuzzer) -->
    <g transform="translate(286.419375 16.318125) scale(0.12 -0.12)">
     <defs>
      <path id="DejaVuSans-70" d="M 1159 525 
L 1159 -1331 
L 581 -1331 
L 581 3500 
L 1159 3500 
L 1159 2969 
Q 1341 3281 1617 3432 
Q 1894 3584 2278 3584 
Q 2916 3584 3314 3078 
Q 3713 2572 3713 1747 
Q 3713 922 3314 415 
Q 2916 -91 2278 -91 
Q 1894 -91 1617 61 
Q 1341 213 1159 525 
z
M 3116 1747 
Q 3116 2381 2855 2742 
Q 2594 3103 2138 3103 
Q 1681 3103 1420 2742 
Q 1159 2381 1159 1747 
Q 1159 1113 1420 752 
Q 1681 391 2138 391 
Q 2594 391 2855 752 
Q 3116 1113 3116 1747 
z
" transform="scale(0.015625)"/>
      <path id="DejaVuSans-5f" d="M 3263 -1063 
L 3263 -1509 
L -63 -1509 
L -63 -1063 
L 3263 -1063 
z
" transform="scale(0.015625)"/>
      <path id="DejaVuSans-2d" d="M 313 2009 
L 1997 2009 
L 1997 1497 
L 313 1497 
L 313 2009 
z
" transform="scale(0.015625)"/>
      <path id="DejaVuSans-66" d="M 2375 4863 
L 2375 4384 
L 1825 4384 
Q 1516 4384 1395 4259 
Q 1275 4134 1275 3809 
L 1275 3500 
L 2222 3500 
L 2222 3053 
L 1275 3053 
L 1275 0 
L 697 0 
L 697 3053 
L 147 3053 
L 147 3500 
L 697 3500 
L 697 3744 
Q 697 4328 969 4595 
Q 1241 4863 1831 4863 
L 2375 4863 
z
" transform="scale(0.015625)"/>
      <path id="DejaVuSans-7a" d="M 353 3500 
L 3084 3500 
L 3084 2975 
L 922 459 
L 3084 459 
L 3084 0 
L 275 0 
L 275 525 
L 2438 3041 
L 353 3041 
L 353 3500 
z
" transform="scale(0.015625)"/>
      <path id="DejaVuSans-73" d="M 2834 3397 
L 2834 2853 
Q 2591 2978 2328 3040 
Q 2066 3103 1784 3103 
Q 1356 3103 1142 2972 
Q 928 2841 928 2578 
Q 928 2378 1081 2264 
Q 1234 2150 1697 2047 
L 1894 2003 
Q 2506 1872 2764 1633 
Q 3022 1394 3022 966 
Q 3022 478 2636 193 
Q 2250 -91 1575 -91 
Q 1294 -91 989 -36 
Q 684 19 347 128 
L 347 722 
Q 666 556 975 473 
Q 1284 391 1588 391 
Q 1994 391 2212 530 
Q 2431 669 2431 922 
Q 2431 1156 2273 1281 
Q 2116 1406 1581 1522 
L 1381 1569 
Q 847 1681 609 1914 
Q 372 2147 372 2553 
Q 372 3047 722 3315 
Q 1072 3584 1716 3584 
Q 2034 3584 2315 3537 
Q 2597 3491 2834 3397 
z
" transform="scale(0.015625)"/>
      <path id="DejaVuSans-2c" d="M 750 794 
L 1409 794 
L 1409 256 
L 897 -744 
L 494 -744 
L 750 256 
L 750 794 
z
" transform="scale(0.015625)"/>
      <path id="DejaVuSans-32" d="M 1228 531 
L 3431 531 
L 3431 0 
L 469 0 
L 469 531 
Q 828 903 1448 1529 
Q 2069 2156 2228 2338 
Q 2531 2678 2651 2914 
Q 2772 3150 2772 3378 
Q 2772 3750 2511 3984 
Q 2250 4219 1831 4219 
Q 1534 4219 1204 4116 
Q 875 4013 500 3803 
L 500 4441 
Q 881 4594 1212 4672 
Q 1544 4750 1819 4750 
Q 2544 4750 2975 4387 
Q 3406 4025 3406 3419 
Q 3406 3131 3298 2873 
Q 3191 2616 2906 2266 
Q 2828 2175 2409 1742 
Q 1991 1309 1228 531 
z
" transform="scale(0.015625)"/>
      <path id="DejaVuSans-6c" d="M 603 4863 
L 1178 4863 
L 1178 0 
L 603 0 
L 603 4863 
z
" transform="scale(0.015625)"/>
      <path id="DejaVuSans-2f" d="M 1625 4666 
L 2156 4666 
L 531 -594 
L 0 -594 
L 1625 4666 
z
" transform="scale(0.015625)"/>
     </defs>
     <use xlink:href="#DejaVuSans-70"/>
     <use xlink:href="#DejaVuSans-68" x="63.476562"/>
     <use xlink:href="#DejaVuSans-70" x="126.855469"/>
     <use xlink:href="#DejaVuSans-5f" x="190.332031"/>
     <use xlink:href="#DejaVuSans-70" x="240.332031"/>
     <use xlink:href="#DejaVuSans-68" x="303.808594"/>
     <use xlink:href="#DejaVuSans-70" x="367.1875"/>
     <use xlink:href="#DejaVuSans-2d" x="430.664062"/>
     <use xlink:href="#DejaVuSans-66" x="466.748047"/>
     <use xlink:href="#DejaVuSans-75" x="501.953125"/>
     <use xlink:href="#DejaVuSans-7a" x="565.332031"/>
     <use xlink:href="#DejaVuSans-7a" x="617.822266"/>
     <use xlink:href="#DejaVuSans-2d" x="670.3125"/>
     <use xlink:href="#DejaVuSans-70" x="706.396484"/>
     <use xlink:href="#DejaVuSans-61" x="769.873047"/>
     <use xlink:href="#DejaVuSans-72" x="831.152344"/>
     <use xlink:href="#DejaVuSans-73" x="872.265625"/>
     <use xlink:href="#DejaVuSans-65" x="924.365234"/>
     <use xlink:href="#DejaVuSans-72" x="985.888672"/>
     <use xlink:href="#DejaVuSans-20" x="1027.001953"/>
     <use xlink:href="#DejaVuSans-28" x="1058.789062"/>
     <use xlink:href="#DejaVuSans-31" x="1097.802734"/>
     <use xlink:href="#DejaVuSans-35" x="1161.425781"/>
     <use xlink:href="#DejaVuSans-6d" x="1225.048828"/>
     <use xlink:href="#DejaVuSans-2c" x="1322.460938"/>
     <use xlink:href="#DejaVuSans-20" x="1354.248047"/>
     <use xlink:href="#DejaVuSans-32" x="1386.035156"/>
     <use xlink:href="#DejaVuSans-30" x="1449.658203"/>
     <use xlink:href="#DejaVuSans-20" x="1513.28125"/>
     <use xlink:href="#DejaVuSans-74" x="1545.068359"/>
     <use xlink:href="#DejaVuSans-72" x="1584.277344"/>
     <use xlink:href="#DejaVuSans-69" x="1625.390625"/>
     <use xlink:href="#DejaVuSans-61" x="1653.173828"/>
     <use xlink:href="#DejaVuSans-6c" x="1714.453125"/>
     <use xlink:href="#DejaVuSans-73" x="1742.236328"/>
     <use xlink:href="#DejaVuSans-2f" x="1794.335938"/>
     <use xlink:href="#DejaVuSans-66" x="1828.027344"/>
     <use xlink:href="#DejaVuSans-75" x="1863.232422"/>
     <use xlink:href="#DejaVuSans-7a" x="1926.611328"/>
     <use xlink:href="#DejaVuSans-7a" x="1979.101562"/>
     <use xlink:href="#DejaVuSans-65" x="2031.591797"/>
     <use xlink:href="#DejaVuSans-72" x="2093.115234"/>
     <use xlink:href="#DejaVuSans-29" x="2134.228516"/>
    </g>
   </g>
   <g id="legend_1">
    <g id="line2d_21">
     <path d="M 777.930625 30.416562 
L 787.930625 30.416562 
L 797.930625 30.416562 
" style="fill: none; stroke: #ff7f0e; stroke-width: 1.5; stroke-linecap: square"/>
     <defs>
      <path id="mbd7151bac3" d="M 3 0 
L -3 -3 
L -3 3 
z
" style="stroke: #ff7f0e; stroke-linejoin: miter"/>
     </defs>
     <g>
      <use xlink:href="#mbd7151bac3" x="787.930625" y="30.416562" style="fill: #ff7f0e; stroke: #ff7f0e; stroke-linejoin: miter"/>
     </g>
    </g>
    <g id="text_11">
     <!-- honggfuzz -->
     <g transform="translate(805.930625 33.916562) scale(0.1 -0.1)">
      <use xlink:href="#DejaVuSans-68"/>
      <use xlink:href="#DejaVuSans-6f" x="63.378906"/>
      <use xlink:href="#DejaVuSans-6e" x="124.560547"/>
      <use xlink:href="#DejaVuSans-67" x="187.939453"/>
      <use xlink:href="#DejaVuSans-67" x="251.416016"/>
      <use xlink:href="#DejaVuSans-66" x="314.892578"/>
      <use xlink:href="#DejaVuSans-75" x="350.097656"/>
      <use xlink:href="#DejaVuSans-7a" x="413.476562"/>
      <use xlink:href="#DejaVuSans-7a" x="465.966797"/>
     </g>
    </g>
    <g id="line2d_22">
     <path d="M 777.930625 45.094688 
L 787.930625 45.094688 
L 797.930625 45.094688 
" style="fill: none; stroke: #c7c7c7; stroke-width: 1.5; stroke-linecap: square"/>
     <defs>
      <path id="m2de12b6177" d="M -3 -0 
L 3 3 
L 3 -3 
z
" style="stroke: #c7c7c7; stroke-linejoin: miter"/>
     </defs>
     <g>
      <use xlink:href="#m2de12b6177" x="787.930625" y="45.094688" style="fill: #c7c7c7; stroke: #c7c7c7; stroke-linejoin: miter"/>
     </g>
    </g>
    <g id="text_12">
     <!-- entropic -->
     <g transform="translate(805.930625 48.594688) scale(0.1 -0.1)">
      <use xlink:href="#DejaVuSans-65"/>
      <use xlink:href="#DejaVuSans-6e" x="61.523438"/>
      <use xlink:href="#DejaVuSans-74" x="124.902344"/>
      <use xlink:href="#DejaVuSans-72" x="164.111328"/>
      <use xlink:href="#DejaVuSans-6f" x="202.974609"/>
      <use xlink:href="#DejaVuSans-70" x="264.15625"/>
      <use xlink:href="#DejaVuSans-69" x="327.632812"/>
      <use xlink:href="#DejaVuSans-63" x="355.416016"/>
     </g>
    </g>
    <g id="line2d_23">
     <path d="M 777.930625 59.772812 
L 787.930625 59.772812 
L 797.930625 59.772812 
" style="fill: none; stroke: #98df8a; stroke-width: 1.5; stroke-linecap: square"/>
     <defs>
      <path id="m710ec6d014" d="M -0 3 
L 3 -3 
L -3 -3 
z
" style="stroke: #98df8a; stroke-linejoin: miter"/>
     </defs>
     <g>
      <use xlink:href="#m710ec6d014" x="787.930625" y="59.772812" style="fill: #98df8a; stroke: #98df8a; stroke-linejoin: miter"/>
     </g>
    </g>
    <g id="text_13">
     <!-- aflplusplus -->
     <g transform="translate(805.930625 63.272812) scale(0.1 -0.1)">
      <use xlink:href="#DejaVuSans-61"/>
      <use xlink:href="#DejaVuSans-66" x="61.279297"/>
      <use xlink:href="#DejaVuSans-6c" x="96.484375"/>
      <use xlink:href="#DejaVuSans-70" x="124.267578"/>
      <use xlink:href="#DejaVuSans-6c" x="187.744141"/>
      <use xlink:href="#DejaVuSans-75" x="215.527344"/>
      <use xlink:href="#DejaVuSans-73" x="278.90625"/>
      <use xlink:href="#DejaVuSans-70" x="331.005859"/>
      <use xlink:href="#DejaVuSans-6c" x="394.482422"/>
      <use xlink:href="#DejaVuSans-75" x="422.265625"/>
      <use xlink:href="#DejaVuSans-73" x="485.644531"/>
     </g>
    </g>
    <g id="line2d_24">
     <path d="M 777.930625 74.450938 
L 787.930625 74.450938 
L 797.930625 74.450938 
" style="fill: none; stroke: #1f77b4; stroke-width: 1.5; stroke-linecap: square"/>
     <defs>
      <path id="m057bb18228" d="M 0 3 
C 0.795609 3 1.55874 2.683901 2.12132 2.12132 
C 2.683901 1.55874 3 0.795609 3 0 
C 3 -0.795609 2.683901 -1.55874 2.12132 -2.12132 
C 1.55874 -2.683901 0.795609 -3 0 -3 
C -0.795609 -3 -1.55874 -2.683901 -2.12132 -2.12132 
C -2.683901 -1.55874 -3 -0.795609 -3 0 
C -3 0.795609 -2.683901 1.55874 -2.12132 2.12132 
C -1.55874 2.683901 -0.795609 3 0 3 
z
" style="stroke: #1f77b4"/>
     </defs>
     <g>
      <use xlink:href="#m057bb18228" x="787.930625" y="74.450938" style="fill: #1f77b4; stroke: #1f77b4"/>
     </g>
    </g>
    <g id="text_14">
     <!-- afl -->
     <g transform="translate(805.930625 77.950938) scale(0.1 -0.1)">
      <use xlink:href="#DejaVuSans-61"/>
      <use xlink:href="#DejaVuSans-66" x="61.279297"/>
      <use xlink:href="#DejaVuSans-6c" x="96.484375"/>
     </g>
    </g>
    <g id="line2d_25">
     <path d="M 777.930625 89.129063 
L 787.930625 89.129063 
L 797.930625 89.129063 
" style="fill: none; stroke: #ff9896; stroke-width: 1.5; stroke-linecap: square"/>
     <defs>
      <path id="m5bfce6e689" d="M -1.14805 -2.771639 
L -2.771639 -1.14805 
L -2.771639 1.14805 
L -1.14805 2.771639 
L 1.14805 2.771639 
L 2.771639 1.14805 
L 2.771639 -1.14805 
L 1.14805 -2.771639 
z
" style="stroke: #ff9896; stroke-linejoin: miter"/>
     </defs>
     <g>
      <use xlink:href="#m5bfce6e689" x="787.930625" y="89.129063" style="fill: #ff9896; stroke: #ff9896; stroke-linejoin: miter"/>
     </g>
    </g>
    <g id="text_15">
     <!-- libfuzzer -->
     <g transform="translate(805.930625 92.629063) scale(0.1 -0.1)">
      <use xlink:href="#DejaVuSans-6c"/>
      <use xlink:href="#DejaVuSans-69" x="27.783203"/>
      <use xlink:href="#DejaVuSans-62" x="55.566406"/>
      <use xlink:href="#DejaVuSans-66" x="119.042969"/>
      <use xlink:href="#DejaVuSans-75" x="154.248047"/>
      <use xlink:href="#DejaVuSans-7a" x="217.626953"/>
      <use xlink:href="#DejaVuSans-7a" x="270.117188"/>
      <use xlink:href="#DejaVuSans-65" x="322.607422"/>
      <use xlink:href="#DejaVuSans-72" x="384.130859"/>
     </g>
    </g>
    <g id="line2d_26">
     <path d="M 777.930625 103.807187 
L 787.930625 103.807187 
L 797.930625 103.807187 
" style="fill: none; stroke: #d62728; stroke-width: 1.5; stroke-linecap: square"/>
     <defs>
      <path id="mce7a8dd306" d="M 0 -3 
L -3 3 
L 3 3 
z
" style="stroke: #d62728; stroke-linejoin: miter"/>
     </defs>
     <g>
      <use xlink:href="#mce7a8dd306" x="787.930625" y="103.807187" style="fill: #d62728; stroke: #d62728; stroke-linejoin: miter"/>
     </g>
    </g>
    <g id="text_16">
     <!-- eclipser -->
     <g transform="translate(805.930625 107.307187) scale(0.1 -0.1)">
      <use xlink:href="#DejaVuSans-65"/>
      <use xlink:href="#DejaVuSans-63" x="61.523438"/>
      <use xlink:href="#DejaVuSans-6c" x="116.503906"/>
      <use xlink:href="#DejaVuSans-69" x="144.287109"/>
      <use xlink:href="#DejaVuSans-70" x="172.070312"/>
      <use xlink:href="#DejaVuSans-73" x="235.546875"/>
      <use xlink:href="#DejaVuSans-65" x="287.646484"/>
      <use xlink:href="#DejaVuSans-72" x="349.169922"/>
     </g>
    </g>
   </g>
  </g>
 </g>
 <defs>
  <clipPath id="p0514c312d3">
   <rect x="59.690625" y="22.318125" width="714.24" height="266.112"/>
  </clipPath>
 </defs>
</svg>
