<?xml version="1.0" encoding="utf-8" standalone="no"?>
<!DOCTYPE svg PUBLIC "-//W3C//DTD SVG 1.1//EN"
  "http://www.w3.org/Graphics/SVG/1.1/DTD/svg11.dtd">
<!-- Created with matplotlib (https://matplotlib.org/) -->
<svg height="325.986375pt" version="1.1" viewBox="0 0 896.143125 325.986375" width="896.143125pt" xmlns="http://www.w3.org/2000/svg" xmlns:xlink="http://www.w3.org/1999/xlink">
 <metadata>
  <rdf:RDF xmlns:cc="http://creativecommons.org/ns#" xmlns:dc="http://purl.org/dc/elements/1.1/" xmlns:rdf="http://www.w3.org/1999/02/22-rdf-syntax-ns#">
   <cc:Work>
    <dc:type rdf:resource="http://purl.org/dc/dcmitype/StillImage"/>
    <dc:date>2020-12-29T19:01:50.953259</dc:date>
    <dc:format>image/svg+xml</dc:format>
    <dc:creator>
     <cc:Agent>
      <dc:title>Matplotlib v3.3.2, https://matplotlib.org/</dc:title>
     </cc:Agent>
    </dc:creator>
   </cc:Work>
  </rdf:RDF>
 </metadata>
 <defs>
  <style type="text/css">*{stroke-linecap:butt;stroke-linejoin:round;}</style>
 </defs>
 <g id="figure_1">
  <g id="patch_1">
   <path d="M 0 325.986375 
L 896.143125 325.986375 
L 896.143125 0 
L 0 0 
z
" style="fill:#ffffff;"/>
  </g>
  <g id="axes_1">
   <g id="patch_2">
    <path d="M 53.328125 288.430125 
L 767.568125 288.430125 
L 767.568125 22.318125 
L 53.328125 22.318125 
z
" style="fill:#ffffff;"/>
   </g>
   <g id="PolyCollection_1">
    <defs>
     <path d="M 85.79358 -86.788031 
L 85.79358 -49.65225 
L 92.628412 -85.498221 
L 99.463245 -103.904886 
L 106.298077 -126.039236 
L 113.13291 -138.998468 
L 119.967742 -147.113523 
L 126.802575 -150.203693 
L 133.637407 -159.447332 
L 140.47224 -163.504859 
L 147.307072 -175.973023 
L 154.141905 -177.585286 
L 160.976737 -180.023833 
L 167.81157 -184.759854 
L 174.646403 -189.462287 
L 181.481235 -191.880681 
L 188.316068 -194.70214 
L 195.1509 -195.588884 
L 201.985733 -196.663726 
L 208.820565 -198.786539 
L 215.655398 -199.704185 
L 222.49023 -200.022607 
L 229.325063 -202.736582 
L 236.159895 -205.289331 
L 242.994728 -209.427472 
L 249.82956 -208.728824 
L 256.664393 -209.427472 
L 263.499225 -211.561032 
L 270.334058 -211.684639 
L 277.168891 -212.410157 
L 284.003723 -213.028191 
L 290.838556 -215.070391 
L 297.673388 -217.085719 
L 304.508221 -217.784366 
L 311.343053 -218.375529 
L 318.177886 -219.235402 
L 325.012718 -219.638468 
L 331.847551 -219.984433 
L 338.682383 -220.686439 
L 345.517216 -221.600054 
L 352.352048 -222.27183 
L 359.186881 -223.776609 
L 366.021714 -224.528998 
L 372.856546 -225.816121 
L 379.691379 -225.817464 
L 386.526211 -227.323586 
L 393.361044 -226.866107 
L 400.195876 -227.834136 
L 407.030709 -228.694009 
L 413.865541 -230.25253 
L 420.700374 -230.650893 
L 427.535206 -232.267858 
L 434.370039 -232.933588 
L 441.204871 -233.3427 
L 448.039704 -233.3427 
L 454.874536 -235.035576 
L 461.709369 -236.137288 
L 468.544202 -236.164159 
L 475.379034 -236.19103 
L 482.213867 -236.782193 
L 489.048699 -237.104646 
L 495.883532 -240.03359 
L 502.718364 -239.979847 
L 509.553197 -240.248558 
L 516.388029 -240.947205 
L 523.222862 -241.3234 
L 530.057694 -242.075789 
L 536.892527 -242.210144 
L 543.727359 -242.586339 
L 550.562192 -245.217014 
L 557.397025 -245.622766 
L 564.231857 -245.70338 
L 571.06669 -245.97209 
L 577.901522 -246.025832 
L 584.736355 -247.046932 
L 591.571187 -247.127545 
L 598.40602 -259.273256 
L 605.240852 -259.461354 
L 612.075685 -260.106259 
L 618.910517 -261.076975 
L 625.74535 -259.541967 
L 632.580182 -261.261714 
L 639.415015 -261.641267 
L 646.249847 -261.641939 
L 653.08468 -260.993003 
L 659.919513 -262.2022 
L 666.754345 -261.240888 
L 673.589178 -263.008331 
L 680.42401 -262.793363 
L 687.258843 -261.879748 
L 694.093675 -263.384526 
L 700.928508 -264.217528 
L 707.76334 -264.351883 
L 714.598173 -265.050531 
L 721.433005 -264.674336 
L 728.267838 -266.528438 
L 735.10267 -265.131144 
L 735.10267 -291.57225 
L 735.10267 -291.57225 
L 728.267838 -289.745019 
L 721.433005 -291.115442 
L 714.598173 -289.852503 
L 707.76334 -289.610664 
L 700.928508 -289.243202 
L 694.093675 -290.228698 
L 687.258843 -287.772685 
L 680.42401 -288.408856 
L 673.589178 -287.321251 
L 666.754345 -288.105885 
L 659.919513 -288.695705 
L 653.08468 -287.194285 
L 646.249847 -286.869817 
L 639.415015 -287.729691 
L 632.580182 -286.816075 
L 625.74535 -286.564831 
L 618.910517 -286.388826 
L 612.075685 -286.386139 
L 605.240852 -286.144299 
L 598.40602 -285.096329 
L 591.571187 -280.877575 
L 584.736355 -280.313283 
L 577.901522 -271.392097 
L 571.06669 -272.735649 
L 564.231857 -272.923746 
L 557.397025 -272.681907 
L 550.562192 -272.493809 
L 543.727359 -267.468924 
L 536.892527 -267.657022 
L 530.057694 -267.038988 
L 523.222862 -266.689664 
L 516.388029 -266.501567 
L 509.553197 -266.179114 
L 502.718364 -265.883533 
L 495.883532 -265.587951 
L 489.048699 -265.399854 
L 482.213867 -264.599097 
L 475.379034 -263.653236 
L 468.544202 -262.2022 
L 461.709369 -261.879748 
L 454.874536 -261.046745 
L 448.039704 -259.192643 
L 441.204871 -258.768081 
L 434.370039 -257.849091 
L 427.535206 -257.365412 
L 420.700374 -255.887505 
L 413.865541 -255.726279 
L 407.030709 -255.376955 
L 400.195876 -255.323213 
L 393.361044 -253.146659 
L 386.526211 -253.505387 
L 379.691379 -247.584353 
L 372.856546 -249.196615 
L 366.021714 -246.402027 
L 359.186881 -245.380927 
L 352.352048 -242.885279 
L 345.517216 -242.37137 
L 338.682383 -238.824393 
L 331.847551 -236.164159 
L 325.012718 -235.761094 
L 318.177886 -235.548141 
L 311.343053 -235.062447 
L 304.508221 -235.035576 
L 297.673388 -233.933863 
L 290.838556 -231.004919 
L 284.003723 -231.649824 
L 277.168891 -228.694009 
L 270.334058 -227.889893 
L 263.499225 -227.643352 
L 256.664393 -227.216102 
L 249.82956 -227.028005 
L 242.994728 -226.866778 
L 236.159895 -224.824579 
L 229.325063 -223.024219 
L 222.49023 -222.674896 
L 215.655398 -222.594283 
L 208.820565 -218.886079 
L 201.985733 -218.026205 
L 195.1509 -215.500327 
L 188.316068 -216.951364 
L 181.481235 -214.02242 
L 174.646403 -212.74403 
L 167.81157 -208.567598 
L 160.976737 -206.095462 
L 154.141905 -206.122333 
L 147.307072 -195.293303 
L 140.47224 -190.913323 
L 133.637407 -186.859826 
L 126.802575 -181.132263 
L 119.967742 -173.877082 
L 113.13291 -165.815769 
L 106.298077 -140.610731 
L 99.463245 -120.296222 
L 92.628412 -110.842317 
L 85.79358 -86.788031 
z
" id="m3b94005547" style="stroke:#98df8a;stroke-opacity:0.2;"/>
    </defs>
    <g clip-path="url(#p62721be7bc)">
     <use style="fill:#98df8a;fill-opacity:0.2;stroke:#98df8a;stroke-opacity:0.2;" x="0" xlink:href="#m3b94005547" y="325.986375"/>
    </g>
   </g>
   <g id="PolyCollection_2">
    <defs>
     <path d="M 85.79358 -84.987672 
L 85.79358 -74.266125 
L 92.628412 -90.200654 
L 99.463245 -106.108311 
L 106.298077 -120.994869 
L 113.13291 -139.912083 
L 119.967742 -144.641387 
L 126.802575 -151.896569 
L 133.637407 -154.637415 
L 140.47224 -157.378261 
L 147.307072 -159.581687 
L 154.141905 -160.145979 
L 160.976737 -161.704499 
L 167.81157 -165.036509 
L 174.646403 -167.213063 
L 181.481235 -167.347418 
L 188.316068 -169.953909 
L 195.1509 -170.545072 
L 201.985733 -173.31279 
L 208.820565 -174.307018 
L 215.655398 -177.070033 
L 222.49023 -176.886639 
L 229.325063 -177.907738 
L 236.159895 -179.143806 
L 242.994728 -181.384851 
L 249.82956 -181.5622 
L 256.664393 -182.798268 
L 263.499225 -183.36256 
L 270.334058 -184.329917 
L 277.168891 -185.512243 
L 284.003723 -190.375902 
L 290.838556 -191.413124 
L 297.673388 -193.492943 
L 304.508221 -195.400787 
L 311.343053 -202.102425 
L 318.177886 -215.849651 
L 325.012718 -223.104832 
L 331.847551 -223.767204 
L 338.682383 -226.275616 
L 345.517216 -227.404199 
L 352.352048 -228.505912 
L 359.186881 -231.325356 
L 366.021714 -231.676695 
L 372.856546 -230.789951 
L 379.691379 -232.292042 
L 386.526211 -233.61141 
L 393.361044 -234.014476 
L 400.195876 -234.847478 
L 407.030709 -235.599196 
L 413.865541 -236.056675 
L 420.700374 -235.949191 
L 427.535206 -237.131517 
L 434.370039 -237.346485 
L 441.204871 -237.290728 
L 448.039704 -238.014231 
L 454.874536 -237.857035 
L 461.709369 -238.152617 
L 468.544202 -238.582553 
L 475.379034 -238.582553 
L 482.213867 -239.227458 
L 489.048699 -239.776299 
L 495.883532 -239.845492 
L 502.718364 -240.651624 
L 509.553197 -240.947205 
L 516.388029 -243.956762 
L 523.222862 -244.95099 
L 530.057694 -245.085346 
L 536.892527 -246.267672 
L 543.727359 -246.48264 
L 550.562192 -246.509511 
L 557.397025 -247.100674 
L 564.231857 -247.100674 
L 571.06669 -247.423126 
L 577.901522 -247.421111 
L 584.736355 -247.664966 
L 591.571187 -247.987418 
L 598.40602 -248.328681 
L 605.240852 -249.707165 
L 612.075685 -251.104459 
L 618.910517 -252.300221 
L 625.74535 -251.856848 
L 632.580182 -251.991204 
L 639.415015 -251.991204 
L 646.249847 -252.716722 
L 653.08468 -252.367398 
L 659.919513 -252.555496 
L 666.754345 -253.348863 
L 673.589178 -254.947018 
L 680.42401 -255.591923 
L 687.258843 -255.591923 
L 694.093675 -256.048731 
L 700.928508 -257.123573 
L 707.76334 -257.795349 
L 714.598173 -257.499767 
L 721.433005 -257.55351 
L 728.267838 -258.386512 
L 735.10267 -258.816449 
L 735.10267 -282.758548 
L 735.10267 -282.758548 
L 728.267838 -281.898675 
L 721.433005 -281.898675 
L 714.598173 -280.74322 
L 707.76334 -281.038801 
L 700.928508 -280.74322 
L 694.093675 -280.770091 
L 687.258843 -280.581993 
L 680.42401 -280.420767 
L 673.589178 -280.420767 
L 666.754345 -280.286412 
L 659.919513 -279.050344 
L 653.08468 -278.378568 
L 646.249847 -277.716868 
L 639.415015 -277.841147 
L 632.580182 -277.679921 
L 625.74535 -277.223113 
L 618.910517 -276.900661 
L 612.075685 -276.524466 
L 605.240852 -268.924663 
L 598.40602 -268.627738 
L 591.571187 -268.731863 
L 584.736355 -268.436282 
L 577.901522 -267.657022 
L 571.06669 -268.355669 
L 564.231857 -267.827653 
L 557.397025 -267.529384 
L 550.562192 -268.060087 
L 543.727359 -266.85089 
L 536.892527 -266.85089 
L 530.057694 -266.367212 
L 523.222862 -265.80292 
L 516.388029 -265.587951 
L 509.553197 -263.629724 
L 502.718364 -264.996788 
L 495.883532 -264.110044 
L 489.048699 -264.325012 
L 482.213867 -264.27127 
L 475.379034 -262.793363 
L 468.544202 -260.428711 
L 461.709369 -260.374969 
L 454.874536 -258.60148 
L 448.039704 -259.703193 
L 441.204871 -259.380741 
L 434.370039 -259.192643 
L 427.535206 -259.488225 
L 420.700374 -257.509172 
L 413.865541 -257.875962 
L 407.030709 -257.55351 
L 400.195876 -257.153803 
L 393.361044 -258.84332 
L 386.526211 -256.774249 
L 379.691379 -255.51131 
L 372.856546 -254.785792 
L 366.021714 -254.275242 
L 359.186881 -252.559526 
L 352.352048 -240.436655 
L 345.517216 -239.684266 
L 338.682383 -236.540354 
L 331.847551 -235.626739 
L 325.012718 -233.530797 
L 318.177886 -231.945406 
L 311.343053 -230.709338 
L 304.508221 -225.012677 
L 297.673388 -225.523226 
L 290.838556 -223.163949 
L 284.003723 -223.830351 
L 277.168891 -223.507898 
L 270.334058 -222.056862 
L 263.499225 -220.71331 
L 256.664393 -220.095276 
L 249.82956 -219.772823 
L 242.994728 -218.321787 
L 236.159895 -217.838108 
L 229.325063 -217.273816 
L 222.49023 -213.699967 
L 215.655398 -210.367958 
L 208.820565 -202.441 
L 201.985733 -200.936222 
L 195.1509 -199.605434 
L 188.316068 -198.249118 
L 181.481235 -197.577342 
L 174.646403 -192.371077 
L 167.81157 -190.993936 
L 160.976737 -189.354802 
L 154.141905 -187.661927 
L 147.307072 -186.45273 
L 140.47224 -184.034336 
L 133.637407 -181.58504 
L 126.802575 -179.385646 
L 119.967742 -176.080507 
L 113.13291 -169.873296 
L 106.298077 -151.305406 
L 99.463245 -138.165466 
L 92.628412 -116.937342 
L 85.79358 -84.987672 
z
" id="m8173276432" style="stroke:#1f77b4;stroke-opacity:0.2;"/>
    </defs>
    <g clip-path="url(#p62721be7bc)">
     <use style="fill:#1f77b4;fill-opacity:0.2;stroke:#1f77b4;stroke-opacity:0.2;" x="0" xlink:href="#m8173276432" y="325.986375"/>
    </g>
   </g>
   <g id="matplotlib.axis_1">
    <g id="xtick_1">
     <g id="line2d_1">
      <defs>
       <path d="M 0 0 
L 0 3.5 
" id="m5da1b033d9" style="stroke:#000000;stroke-width:0.8;"/>
      </defs>
      <g>
       <use style="stroke:#000000;stroke-width:0.8;" x="85.79358" xlink:href="#m5da1b033d9" y="288.430125"/>
      </g>
     </g>
     <g id="text_1">
      <!-- 15m -->
      <g transform="translate(74.560767 303.028562)scale(0.1 -0.1)">
       <defs>
        <path d="M 12.40625 8.296875 
L 28.515625 8.296875 
L 28.515625 63.921875 
L 10.984375 60.40625 
L 10.984375 69.390625 
L 28.421875 72.90625 
L 38.28125 72.90625 
L 38.28125 8.296875 
L 54.390625 8.296875 
L 54.390625 0 
L 12.40625 0 
z
" id="DejaVuSans-49"/>
        <path d="M 10.796875 72.90625 
L 49.515625 72.90625 
L 49.515625 64.59375 
L 19.828125 64.59375 
L 19.828125 46.734375 
Q 21.96875 47.46875 24.109375 47.828125 
Q 26.265625 48.1875 28.421875 48.1875 
Q 40.625 48.1875 47.75 41.5 
Q 54.890625 34.8125 54.890625 23.390625 
Q 54.890625 11.625 47.5625 5.09375 
Q 40.234375 -1.421875 26.90625 -1.421875 
Q 22.3125 -1.421875 17.546875 -0.640625 
Q 12.796875 0.140625 7.71875 1.703125 
L 7.71875 11.625 
Q 12.109375 9.234375 16.796875 8.0625 
Q 21.484375 6.890625 26.703125 6.890625 
Q 35.15625 6.890625 40.078125 11.328125 
Q 45.015625 15.765625 45.015625 23.390625 
Q 45.015625 31 40.078125 35.4375 
Q 35.15625 39.890625 26.703125 39.890625 
Q 22.75 39.890625 18.8125 39.015625 
Q 14.890625 38.140625 10.796875 36.28125 
z
" id="DejaVuSans-53"/>
        <path d="M 52 44.1875 
Q 55.375 50.25 60.0625 53.125 
Q 64.75 56 71.09375 56 
Q 79.640625 56 84.28125 50.015625 
Q 88.921875 44.046875 88.921875 33.015625 
L 88.921875 0 
L 79.890625 0 
L 79.890625 32.71875 
Q 79.890625 40.578125 77.09375 44.375 
Q 74.3125 48.1875 68.609375 48.1875 
Q 61.625 48.1875 57.5625 43.546875 
Q 53.515625 38.921875 53.515625 30.90625 
L 53.515625 0 
L 44.484375 0 
L 44.484375 32.71875 
Q 44.484375 40.625 41.703125 44.40625 
Q 38.921875 48.1875 33.109375 48.1875 
Q 26.21875 48.1875 22.15625 43.53125 
Q 18.109375 38.875 18.109375 30.90625 
L 18.109375 0 
L 9.078125 0 
L 9.078125 54.6875 
L 18.109375 54.6875 
L 18.109375 46.1875 
Q 21.1875 51.21875 25.484375 53.609375 
Q 29.78125 56 35.6875 56 
Q 41.65625 56 45.828125 52.96875 
Q 50 49.953125 52 44.1875 
z
" id="DejaVuSans-109"/>
       </defs>
       <use xlink:href="#DejaVuSans-49"/>
       <use x="63.623047" xlink:href="#DejaVuSans-53"/>
       <use x="127.246094" xlink:href="#DejaVuSans-109"/>
      </g>
     </g>
    </g>
    <g id="xtick_2">
     <g id="line2d_2">
      <g>
       <use style="stroke:#000000;stroke-width:0.8;" x="140.47224" xlink:href="#m5da1b033d9" y="288.430125"/>
      </g>
     </g>
     <g id="text_2">
      <!-- 2h:15m -->
      <g transform="translate(121.205052 303.028562)scale(0.1 -0.1)">
       <defs>
        <path d="M 19.1875 8.296875 
L 53.609375 8.296875 
L 53.609375 0 
L 7.328125 0 
L 7.328125 8.296875 
Q 12.9375 14.109375 22.625 23.890625 
Q 32.328125 33.6875 34.8125 36.53125 
Q 39.546875 41.84375 41.421875 45.53125 
Q 43.3125 49.21875 43.3125 52.78125 
Q 43.3125 58.59375 39.234375 62.25 
Q 35.15625 65.921875 28.609375 65.921875 
Q 23.96875 65.921875 18.8125 64.3125 
Q 13.671875 62.703125 7.8125 59.421875 
L 7.8125 69.390625 
Q 13.765625 71.78125 18.9375 73 
Q 24.125 74.21875 28.421875 74.21875 
Q 39.75 74.21875 46.484375 68.546875 
Q 53.21875 62.890625 53.21875 53.421875 
Q 53.21875 48.921875 51.53125 44.890625 
Q 49.859375 40.875 45.40625 35.40625 
Q 44.1875 33.984375 37.640625 27.21875 
Q 31.109375 20.453125 19.1875 8.296875 
z
" id="DejaVuSans-50"/>
        <path d="M 54.890625 33.015625 
L 54.890625 0 
L 45.90625 0 
L 45.90625 32.71875 
Q 45.90625 40.484375 42.875 44.328125 
Q 39.84375 48.1875 33.796875 48.1875 
Q 26.515625 48.1875 22.3125 43.546875 
Q 18.109375 38.921875 18.109375 30.90625 
L 18.109375 0 
L 9.078125 0 
L 9.078125 75.984375 
L 18.109375 75.984375 
L 18.109375 46.1875 
Q 21.34375 51.125 25.703125 53.5625 
Q 30.078125 56 35.796875 56 
Q 45.21875 56 50.046875 50.171875 
Q 54.890625 44.34375 54.890625 33.015625 
z
" id="DejaVuSans-104"/>
        <path d="M 11.71875 12.40625 
L 22.015625 12.40625 
L 22.015625 0 
L 11.71875 0 
z
M 11.71875 51.703125 
L 22.015625 51.703125 
L 22.015625 39.3125 
L 11.71875 39.3125 
z
" id="DejaVuSans-58"/>
       </defs>
       <use xlink:href="#DejaVuSans-50"/>
       <use x="63.623047" xlink:href="#DejaVuSans-104"/>
       <use x="127.001953" xlink:href="#DejaVuSans-58"/>
       <use x="160.693359" xlink:href="#DejaVuSans-49"/>
       <use x="224.316406" xlink:href="#DejaVuSans-53"/>
       <use x="287.939453" xlink:href="#DejaVuSans-109"/>
      </g>
     </g>
    </g>
    <g id="xtick_3">
     <g id="line2d_3">
      <g>
       <use style="stroke:#000000;stroke-width:0.8;" x="195.1509" xlink:href="#m5da1b033d9" y="288.430125"/>
      </g>
     </g>
     <g id="text_3">
      <!-- 4h:15m -->
      <g transform="translate(175.883713 303.028562)scale(0.1 -0.1)">
       <defs>
        <path d="M 37.796875 64.3125 
L 12.890625 25.390625 
L 37.796875 25.390625 
z
M 35.203125 72.90625 
L 47.609375 72.90625 
L 47.609375 25.390625 
L 58.015625 25.390625 
L 58.015625 17.1875 
L 47.609375 17.1875 
L 47.609375 0 
L 37.796875 0 
L 37.796875 17.1875 
L 4.890625 17.1875 
L 4.890625 26.703125 
z
" id="DejaVuSans-52"/>
       </defs>
       <use xlink:href="#DejaVuSans-52"/>
       <use x="63.623047" xlink:href="#DejaVuSans-104"/>
       <use x="127.001953" xlink:href="#DejaVuSans-58"/>
       <use x="160.693359" xlink:href="#DejaVuSans-49"/>
       <use x="224.316406" xlink:href="#DejaVuSans-53"/>
       <use x="287.939453" xlink:href="#DejaVuSans-109"/>
      </g>
     </g>
    </g>
    <g id="xtick_4">
     <g id="line2d_4">
      <g>
       <use style="stroke:#000000;stroke-width:0.8;" x="249.82956" xlink:href="#m5da1b033d9" y="288.430125"/>
      </g>
     </g>
     <g id="text_4">
      <!-- 6h:15m -->
      <g transform="translate(230.562373 303.028562)scale(0.1 -0.1)">
       <defs>
        <path d="M 33.015625 40.375 
Q 26.375 40.375 22.484375 35.828125 
Q 18.609375 31.296875 18.609375 23.390625 
Q 18.609375 15.53125 22.484375 10.953125 
Q 26.375 6.390625 33.015625 6.390625 
Q 39.65625 6.390625 43.53125 10.953125 
Q 47.40625 15.53125 47.40625 23.390625 
Q 47.40625 31.296875 43.53125 35.828125 
Q 39.65625 40.375 33.015625 40.375 
z
M 52.59375 71.296875 
L 52.59375 62.3125 
Q 48.875 64.0625 45.09375 64.984375 
Q 41.3125 65.921875 37.59375 65.921875 
Q 27.828125 65.921875 22.671875 59.328125 
Q 17.53125 52.734375 16.796875 39.40625 
Q 19.671875 43.65625 24.015625 45.921875 
Q 28.375 48.1875 33.59375 48.1875 
Q 44.578125 48.1875 50.953125 41.515625 
Q 57.328125 34.859375 57.328125 23.390625 
Q 57.328125 12.15625 50.6875 5.359375 
Q 44.046875 -1.421875 33.015625 -1.421875 
Q 20.359375 -1.421875 13.671875 8.265625 
Q 6.984375 17.96875 6.984375 36.375 
Q 6.984375 53.65625 15.1875 63.9375 
Q 23.390625 74.21875 37.203125 74.21875 
Q 40.921875 74.21875 44.703125 73.484375 
Q 48.484375 72.75 52.59375 71.296875 
z
" id="DejaVuSans-54"/>
       </defs>
       <use xlink:href="#DejaVuSans-54"/>
       <use x="63.623047" xlink:href="#DejaVuSans-104"/>
       <use x="127.001953" xlink:href="#DejaVuSans-58"/>
       <use x="160.693359" xlink:href="#DejaVuSans-49"/>
       <use x="224.316406" xlink:href="#DejaVuSans-53"/>
       <use x="287.939453" xlink:href="#DejaVuSans-109"/>
      </g>
     </g>
    </g>
    <g id="xtick_5">
     <g id="line2d_5">
      <g>
       <use style="stroke:#000000;stroke-width:0.8;" x="304.508221" xlink:href="#m5da1b033d9" y="288.430125"/>
      </g>
     </g>
     <g id="text_5">
      <!-- 8h:15m -->
      <g transform="translate(285.241033 303.028562)scale(0.1 -0.1)">
       <defs>
        <path d="M 31.78125 34.625 
Q 24.75 34.625 20.71875 30.859375 
Q 16.703125 27.09375 16.703125 20.515625 
Q 16.703125 13.921875 20.71875 10.15625 
Q 24.75 6.390625 31.78125 6.390625 
Q 38.8125 6.390625 42.859375 10.171875 
Q 46.921875 13.96875 46.921875 20.515625 
Q 46.921875 27.09375 42.890625 30.859375 
Q 38.875 34.625 31.78125 34.625 
z
M 21.921875 38.8125 
Q 15.578125 40.375 12.03125 44.71875 
Q 8.5 49.078125 8.5 55.328125 
Q 8.5 64.0625 14.71875 69.140625 
Q 20.953125 74.21875 31.78125 74.21875 
Q 42.671875 74.21875 48.875 69.140625 
Q 55.078125 64.0625 55.078125 55.328125 
Q 55.078125 49.078125 51.53125 44.71875 
Q 48 40.375 41.703125 38.8125 
Q 48.828125 37.15625 52.796875 32.3125 
Q 56.78125 27.484375 56.78125 20.515625 
Q 56.78125 9.90625 50.3125 4.234375 
Q 43.84375 -1.421875 31.78125 -1.421875 
Q 19.734375 -1.421875 13.25 4.234375 
Q 6.78125 9.90625 6.78125 20.515625 
Q 6.78125 27.484375 10.78125 32.3125 
Q 14.796875 37.15625 21.921875 38.8125 
z
M 18.3125 54.390625 
Q 18.3125 48.734375 21.84375 45.5625 
Q 25.390625 42.390625 31.78125 42.390625 
Q 38.140625 42.390625 41.71875 45.5625 
Q 45.3125 48.734375 45.3125 54.390625 
Q 45.3125 60.0625 41.71875 63.234375 
Q 38.140625 66.40625 31.78125 66.40625 
Q 25.390625 66.40625 21.84375 63.234375 
Q 18.3125 60.0625 18.3125 54.390625 
z
" id="DejaVuSans-56"/>
       </defs>
       <use xlink:href="#DejaVuSans-56"/>
       <use x="63.623047" xlink:href="#DejaVuSans-104"/>
       <use x="127.001953" xlink:href="#DejaVuSans-58"/>
       <use x="160.693359" xlink:href="#DejaVuSans-49"/>
       <use x="224.316406" xlink:href="#DejaVuSans-53"/>
       <use x="287.939453" xlink:href="#DejaVuSans-109"/>
      </g>
     </g>
    </g>
    <g id="xtick_6">
     <g id="line2d_6">
      <g>
       <use style="stroke:#000000;stroke-width:0.8;" x="359.186881" xlink:href="#m5da1b033d9" y="288.430125"/>
      </g>
     </g>
     <g id="text_6">
      <!-- 10h:15m -->
      <g transform="translate(336.738443 303.028562)scale(0.1 -0.1)">
       <defs>
        <path d="M 31.78125 66.40625 
Q 24.171875 66.40625 20.328125 58.90625 
Q 16.5 51.421875 16.5 36.375 
Q 16.5 21.390625 20.328125 13.890625 
Q 24.171875 6.390625 31.78125 6.390625 
Q 39.453125 6.390625 43.28125 13.890625 
Q 47.125 21.390625 47.125 36.375 
Q 47.125 51.421875 43.28125 58.90625 
Q 39.453125 66.40625 31.78125 66.40625 
z
M 31.78125 74.21875 
Q 44.046875 74.21875 50.515625 64.515625 
Q 56.984375 54.828125 56.984375 36.375 
Q 56.984375 17.96875 50.515625 8.265625 
Q 44.046875 -1.421875 31.78125 -1.421875 
Q 19.53125 -1.421875 13.0625 8.265625 
Q 6.59375 17.96875 6.59375 36.375 
Q 6.59375 54.828125 13.0625 64.515625 
Q 19.53125 74.21875 31.78125 74.21875 
z
" id="DejaVuSans-48"/>
       </defs>
       <use xlink:href="#DejaVuSans-49"/>
       <use x="63.623047" xlink:href="#DejaVuSans-48"/>
       <use x="127.246094" xlink:href="#DejaVuSans-104"/>
       <use x="190.625" xlink:href="#DejaVuSans-58"/>
       <use x="224.316406" xlink:href="#DejaVuSans-49"/>
       <use x="287.939453" xlink:href="#DejaVuSans-53"/>
       <use x="351.5625" xlink:href="#DejaVuSans-109"/>
      </g>
     </g>
    </g>
    <g id="xtick_7">
     <g id="line2d_7">
      <g>
       <use style="stroke:#000000;stroke-width:0.8;" x="413.865541" xlink:href="#m5da1b033d9" y="288.430125"/>
      </g>
     </g>
     <g id="text_7">
      <!-- 12h:15m -->
      <g transform="translate(391.417104 303.028562)scale(0.1 -0.1)">
       <use xlink:href="#DejaVuSans-49"/>
       <use x="63.623047" xlink:href="#DejaVuSans-50"/>
       <use x="127.246094" xlink:href="#DejaVuSans-104"/>
       <use x="190.625" xlink:href="#DejaVuSans-58"/>
       <use x="224.316406" xlink:href="#DejaVuSans-49"/>
       <use x="287.939453" xlink:href="#DejaVuSans-53"/>
       <use x="351.5625" xlink:href="#DejaVuSans-109"/>
      </g>
     </g>
    </g>
    <g id="xtick_8">
     <g id="line2d_8">
      <g>
       <use style="stroke:#000000;stroke-width:0.8;" x="468.544202" xlink:href="#m5da1b033d9" y="288.430125"/>
      </g>
     </g>
     <g id="text_8">
      <!-- 14h:15m -->
      <g transform="translate(446.095764 303.028562)scale(0.1 -0.1)">
       <use xlink:href="#DejaVuSans-49"/>
       <use x="63.623047" xlink:href="#DejaVuSans-52"/>
       <use x="127.246094" xlink:href="#DejaVuSans-104"/>
       <use x="190.625" xlink:href="#DejaVuSans-58"/>
       <use x="224.316406" xlink:href="#DejaVuSans-49"/>
       <use x="287.939453" xlink:href="#DejaVuSans-53"/>
       <use x="351.5625" xlink:href="#DejaVuSans-109"/>
      </g>
     </g>
    </g>
    <g id="xtick_9">
     <g id="line2d_9">
      <g>
       <use style="stroke:#000000;stroke-width:0.8;" x="523.222862" xlink:href="#m5da1b033d9" y="288.430125"/>
      </g>
     </g>
     <g id="text_9">
      <!-- 16h:15m -->
      <g transform="translate(500.774424 303.028562)scale(0.1 -0.1)">
       <use xlink:href="#DejaVuSans-49"/>
       <use x="63.623047" xlink:href="#DejaVuSans-54"/>
       <use x="127.246094" xlink:href="#DejaVuSans-104"/>
       <use x="190.625" xlink:href="#DejaVuSans-58"/>
       <use x="224.316406" xlink:href="#DejaVuSans-49"/>
       <use x="287.939453" xlink:href="#DejaVuSans-53"/>
       <use x="351.5625" xlink:href="#DejaVuSans-109"/>
      </g>
     </g>
    </g>
    <g id="xtick_10">
     <g id="line2d_10">
      <g>
       <use style="stroke:#000000;stroke-width:0.8;" x="577.901522" xlink:href="#m5da1b033d9" y="288.430125"/>
      </g>
     </g>
     <g id="text_10">
      <!-- 18h:15m -->
      <g transform="translate(555.453085 303.028562)scale(0.1 -0.1)">
       <use xlink:href="#DejaVuSans-49"/>
       <use x="63.623047" xlink:href="#DejaVuSans-56"/>
       <use x="127.246094" xlink:href="#DejaVuSans-104"/>
       <use x="190.625" xlink:href="#DejaVuSans-58"/>
       <use x="224.316406" xlink:href="#DejaVuSans-49"/>
       <use x="287.939453" xlink:href="#DejaVuSans-53"/>
       <use x="351.5625" xlink:href="#DejaVuSans-109"/>
      </g>
     </g>
    </g>
    <g id="xtick_11">
     <g id="line2d_11">
      <g>
       <use style="stroke:#000000;stroke-width:0.8;" x="632.580182" xlink:href="#m5da1b033d9" y="288.430125"/>
      </g>
     </g>
     <g id="text_11">
      <!-- 20h:15m -->
      <g transform="translate(610.131745 303.028562)scale(0.1 -0.1)">
       <use xlink:href="#DejaVuSans-50"/>
       <use x="63.623047" xlink:href="#DejaVuSans-48"/>
       <use x="127.246094" xlink:href="#DejaVuSans-104"/>
       <use x="190.625" xlink:href="#DejaVuSans-58"/>
       <use x="224.316406" xlink:href="#DejaVuSans-49"/>
       <use x="287.939453" xlink:href="#DejaVuSans-53"/>
       <use x="351.5625" xlink:href="#DejaVuSans-109"/>
      </g>
     </g>
    </g>
    <g id="xtick_12">
     <g id="line2d_12">
      <g>
       <use style="stroke:#000000;stroke-width:0.8;" x="687.258843" xlink:href="#m5da1b033d9" y="288.430125"/>
      </g>
     </g>
     <g id="text_12">
      <!-- 22h:15m -->
      <g transform="translate(664.810405 303.028562)scale(0.1 -0.1)">
       <use xlink:href="#DejaVuSans-50"/>
       <use x="63.623047" xlink:href="#DejaVuSans-50"/>
       <use x="127.246094" xlink:href="#DejaVuSans-104"/>
       <use x="190.625" xlink:href="#DejaVuSans-58"/>
       <use x="224.316406" xlink:href="#DejaVuSans-49"/>
       <use x="287.939453" xlink:href="#DejaVuSans-53"/>
       <use x="351.5625" xlink:href="#DejaVuSans-109"/>
      </g>
     </g>
    </g>
    <g id="text_13">
     <!-- Time (hour:minute) -->
     <g transform="translate(362.041094 316.706687)scale(0.1 -0.1)">
      <defs>
       <path d="M -0.296875 72.90625 
L 61.375 72.90625 
L 61.375 64.59375 
L 35.5 64.59375 
L 35.5 0 
L 25.59375 0 
L 25.59375 64.59375 
L -0.296875 64.59375 
z
" id="DejaVuSans-84"/>
       <path d="M 9.421875 54.6875 
L 18.40625 54.6875 
L 18.40625 0 
L 9.421875 0 
z
M 9.421875 75.984375 
L 18.40625 75.984375 
L 18.40625 64.59375 
L 9.421875 64.59375 
z
" id="DejaVuSans-105"/>
       <path d="M 56.203125 29.59375 
L 56.203125 25.203125 
L 14.890625 25.203125 
Q 15.484375 15.921875 20.484375 11.0625 
Q 25.484375 6.203125 34.421875 6.203125 
Q 39.59375 6.203125 44.453125 7.46875 
Q 49.3125 8.734375 54.109375 11.28125 
L 54.109375 2.78125 
Q 49.265625 0.734375 44.1875 -0.34375 
Q 39.109375 -1.421875 33.890625 -1.421875 
Q 20.796875 -1.421875 13.15625 6.1875 
Q 5.515625 13.8125 5.515625 26.8125 
Q 5.515625 40.234375 12.765625 48.109375 
Q 20.015625 56 32.328125 56 
Q 43.359375 56 49.78125 48.890625 
Q 56.203125 41.796875 56.203125 29.59375 
z
M 47.21875 32.234375 
Q 47.125 39.59375 43.09375 43.984375 
Q 39.0625 48.390625 32.421875 48.390625 
Q 24.90625 48.390625 20.390625 44.140625 
Q 15.875 39.890625 15.1875 32.171875 
z
" id="DejaVuSans-101"/>
       <path id="DejaVuSans-32"/>
       <path d="M 31 75.875 
Q 24.46875 64.65625 21.28125 53.65625 
Q 18.109375 42.671875 18.109375 31.390625 
Q 18.109375 20.125 21.3125 9.0625 
Q 24.515625 -2 31 -13.1875 
L 23.1875 -13.1875 
Q 15.875 -1.703125 12.234375 9.375 
Q 8.59375 20.453125 8.59375 31.390625 
Q 8.59375 42.28125 12.203125 53.3125 
Q 15.828125 64.359375 23.1875 75.875 
z
" id="DejaVuSans-40"/>
       <path d="M 30.609375 48.390625 
Q 23.390625 48.390625 19.1875 42.75 
Q 14.984375 37.109375 14.984375 27.296875 
Q 14.984375 17.484375 19.15625 11.84375 
Q 23.34375 6.203125 30.609375 6.203125 
Q 37.796875 6.203125 41.984375 11.859375 
Q 46.1875 17.53125 46.1875 27.296875 
Q 46.1875 37.015625 41.984375 42.703125 
Q 37.796875 48.390625 30.609375 48.390625 
z
M 30.609375 56 
Q 42.328125 56 49.015625 48.375 
Q 55.71875 40.765625 55.71875 27.296875 
Q 55.71875 13.875 49.015625 6.21875 
Q 42.328125 -1.421875 30.609375 -1.421875 
Q 18.84375 -1.421875 12.171875 6.21875 
Q 5.515625 13.875 5.515625 27.296875 
Q 5.515625 40.765625 12.171875 48.375 
Q 18.84375 56 30.609375 56 
z
" id="DejaVuSans-111"/>
       <path d="M 8.5 21.578125 
L 8.5 54.6875 
L 17.484375 54.6875 
L 17.484375 21.921875 
Q 17.484375 14.15625 20.5 10.265625 
Q 23.53125 6.390625 29.59375 6.390625 
Q 36.859375 6.390625 41.078125 11.03125 
Q 45.3125 15.671875 45.3125 23.6875 
L 45.3125 54.6875 
L 54.296875 54.6875 
L 54.296875 0 
L 45.3125 0 
L 45.3125 8.40625 
Q 42.046875 3.421875 37.71875 1 
Q 33.40625 -1.421875 27.6875 -1.421875 
Q 18.265625 -1.421875 13.375 4.4375 
Q 8.5 10.296875 8.5 21.578125 
z
M 31.109375 56 
z
" id="DejaVuSans-117"/>
       <path d="M 41.109375 46.296875 
Q 39.59375 47.171875 37.8125 47.578125 
Q 36.03125 48 33.890625 48 
Q 26.265625 48 22.1875 43.046875 
Q 18.109375 38.09375 18.109375 28.8125 
L 18.109375 0 
L 9.078125 0 
L 9.078125 54.6875 
L 18.109375 54.6875 
L 18.109375 46.1875 
Q 20.953125 51.171875 25.484375 53.578125 
Q 30.03125 56 36.53125 56 
Q 37.453125 56 38.578125 55.875 
Q 39.703125 55.765625 41.0625 55.515625 
z
" id="DejaVuSans-114"/>
       <path d="M 54.890625 33.015625 
L 54.890625 0 
L 45.90625 0 
L 45.90625 32.71875 
Q 45.90625 40.484375 42.875 44.328125 
Q 39.84375 48.1875 33.796875 48.1875 
Q 26.515625 48.1875 22.3125 43.546875 
Q 18.109375 38.921875 18.109375 30.90625 
L 18.109375 0 
L 9.078125 0 
L 9.078125 54.6875 
L 18.109375 54.6875 
L 18.109375 46.1875 
Q 21.34375 51.125 25.703125 53.5625 
Q 30.078125 56 35.796875 56 
Q 45.21875 56 50.046875 50.171875 
Q 54.890625 44.34375 54.890625 33.015625 
z
" id="DejaVuSans-110"/>
       <path d="M 18.3125 70.21875 
L 18.3125 54.6875 
L 36.8125 54.6875 
L 36.8125 47.703125 
L 18.3125 47.703125 
L 18.3125 18.015625 
Q 18.3125 11.328125 20.140625 9.421875 
Q 21.96875 7.515625 27.59375 7.515625 
L 36.8125 7.515625 
L 36.8125 0 
L 27.59375 0 
Q 17.1875 0 13.234375 3.875 
Q 9.28125 7.765625 9.28125 18.015625 
L 9.28125 47.703125 
L 2.6875 47.703125 
L 2.6875 54.6875 
L 9.28125 54.6875 
L 9.28125 70.21875 
z
" id="DejaVuSans-116"/>
       <path d="M 8.015625 75.875 
L 15.828125 75.875 
Q 23.140625 64.359375 26.78125 53.3125 
Q 30.421875 42.28125 30.421875 31.390625 
Q 30.421875 20.453125 26.78125 9.375 
Q 23.140625 -1.703125 15.828125 -13.1875 
L 8.015625 -13.1875 
Q 14.5 -2 17.703125 9.0625 
Q 20.90625 20.125 20.90625 31.390625 
Q 20.90625 42.671875 17.703125 53.65625 
Q 14.5 64.65625 8.015625 75.875 
z
" id="DejaVuSans-41"/>
      </defs>
      <use xlink:href="#DejaVuSans-84"/>
      <use x="57.958984" xlink:href="#DejaVuSans-105"/>
      <use x="85.742188" xlink:href="#DejaVuSans-109"/>
      <use x="183.154297" xlink:href="#DejaVuSans-101"/>
      <use x="244.677734" xlink:href="#DejaVuSans-32"/>
      <use x="276.464844" xlink:href="#DejaVuSans-40"/>
      <use x="315.478516" xlink:href="#DejaVuSans-104"/>
      <use x="378.857422" xlink:href="#DejaVuSans-111"/>
      <use x="440.039062" xlink:href="#DejaVuSans-117"/>
      <use x="503.417969" xlink:href="#DejaVuSans-114"/>
      <use x="542.78125" xlink:href="#DejaVuSans-58"/>
      <use x="576.472656" xlink:href="#DejaVuSans-109"/>
      <use x="673.884766" xlink:href="#DejaVuSans-105"/>
      <use x="701.667969" xlink:href="#DejaVuSans-110"/>
      <use x="765.046875" xlink:href="#DejaVuSans-117"/>
      <use x="828.425781" xlink:href="#DejaVuSans-116"/>
      <use x="867.634766" xlink:href="#DejaVuSans-101"/>
      <use x="929.158203" xlink:href="#DejaVuSans-41"/>
     </g>
    </g>
   </g>
   <g id="matplotlib.axis_2">
    <g id="ytick_1">
     <g id="line2d_13">
      <defs>
       <path d="M 0 0 
L -3.5 0 
" id="m921ce1b086" style="stroke:#000000;stroke-width:0.8;"/>
      </defs>
      <g>
       <use style="stroke:#000000;stroke-width:0.8;" x="53.328125" xlink:href="#m921ce1b086" y="259.539723"/>
      </g>
     </g>
     <g id="text_14">
      <!-- 5250 -->
      <g transform="translate(20.878125 263.338942)scale(0.1 -0.1)">
       <use xlink:href="#DejaVuSans-53"/>
       <use x="63.623047" xlink:href="#DejaVuSans-50"/>
       <use x="127.246094" xlink:href="#DejaVuSans-53"/>
       <use x="190.869141" xlink:href="#DejaVuSans-48"/>
      </g>
     </g>
    </g>
    <g id="ytick_2">
     <g id="line2d_14">
      <g>
       <use style="stroke:#000000;stroke-width:0.8;" x="53.328125" xlink:href="#m921ce1b086" y="225.950919"/>
      </g>
     </g>
     <g id="text_15">
      <!-- 5500 -->
      <g transform="translate(20.878125 229.750138)scale(0.1 -0.1)">
       <use xlink:href="#DejaVuSans-53"/>
       <use x="63.623047" xlink:href="#DejaVuSans-53"/>
       <use x="127.246094" xlink:href="#DejaVuSans-48"/>
       <use x="190.869141" xlink:href="#DejaVuSans-48"/>
      </g>
     </g>
    </g>
    <g id="ytick_3">
     <g id="line2d_15">
      <g>
       <use style="stroke:#000000;stroke-width:0.8;" x="53.328125" xlink:href="#m921ce1b086" y="192.362116"/>
      </g>
     </g>
     <g id="text_16">
      <!-- 5750 -->
      <g transform="translate(20.878125 196.161334)scale(0.1 -0.1)">
       <defs>
        <path d="M 8.203125 72.90625 
L 55.078125 72.90625 
L 55.078125 68.703125 
L 28.609375 0 
L 18.3125 0 
L 43.21875 64.59375 
L 8.203125 64.59375 
z
" id="DejaVuSans-55"/>
       </defs>
       <use xlink:href="#DejaVuSans-53"/>
       <use x="63.623047" xlink:href="#DejaVuSans-55"/>
       <use x="127.246094" xlink:href="#DejaVuSans-53"/>
       <use x="190.869141" xlink:href="#DejaVuSans-48"/>
      </g>
     </g>
    </g>
    <g id="ytick_4">
     <g id="line2d_16">
      <g>
       <use style="stroke:#000000;stroke-width:0.8;" x="53.328125" xlink:href="#m921ce1b086" y="158.773312"/>
      </g>
     </g>
     <g id="text_17">
      <!-- 6000 -->
      <g transform="translate(20.878125 162.572531)scale(0.1 -0.1)">
       <use xlink:href="#DejaVuSans-54"/>
       <use x="63.623047" xlink:href="#DejaVuSans-48"/>
       <use x="127.246094" xlink:href="#DejaVuSans-48"/>
       <use x="190.869141" xlink:href="#DejaVuSans-48"/>
      </g>
     </g>
    </g>
    <g id="ytick_5">
     <g id="line2d_17">
      <g>
       <use style="stroke:#000000;stroke-width:0.8;" x="53.328125" xlink:href="#m921ce1b086" y="125.184508"/>
      </g>
     </g>
     <g id="text_18">
      <!-- 6250 -->
      <g transform="translate(20.878125 128.983727)scale(0.1 -0.1)">
       <use xlink:href="#DejaVuSans-54"/>
       <use x="63.623047" xlink:href="#DejaVuSans-50"/>
       <use x="127.246094" xlink:href="#DejaVuSans-53"/>
       <use x="190.869141" xlink:href="#DejaVuSans-48"/>
      </g>
     </g>
    </g>
    <g id="ytick_6">
     <g id="line2d_18">
      <g>
       <use style="stroke:#000000;stroke-width:0.8;" x="53.328125" xlink:href="#m921ce1b086" y="91.595704"/>
      </g>
     </g>
     <g id="text_19">
      <!-- 6500 -->
      <g transform="translate(20.878125 95.394923)scale(0.1 -0.1)">
       <use xlink:href="#DejaVuSans-54"/>
       <use x="63.623047" xlink:href="#DejaVuSans-53"/>
       <use x="127.246094" xlink:href="#DejaVuSans-48"/>
       <use x="190.869141" xlink:href="#DejaVuSans-48"/>
      </g>
     </g>
    </g>
    <g id="ytick_7">
     <g id="line2d_19">
      <g>
       <use style="stroke:#000000;stroke-width:0.8;" x="53.328125" xlink:href="#m921ce1b086" y="58.006901"/>
      </g>
     </g>
     <g id="text_20">
      <!-- 6750 -->
      <g transform="translate(20.878125 61.806119)scale(0.1 -0.1)">
       <use xlink:href="#DejaVuSans-54"/>
       <use x="63.623047" xlink:href="#DejaVuSans-55"/>
       <use x="127.246094" xlink:href="#DejaVuSans-53"/>
       <use x="190.869141" xlink:href="#DejaVuSans-48"/>
      </g>
     </g>
    </g>
    <g id="ytick_8">
     <g id="line2d_20">
      <g>
       <use style="stroke:#000000;stroke-width:0.8;" x="53.328125" xlink:href="#m921ce1b086" y="24.418097"/>
      </g>
     </g>
     <g id="text_21">
      <!-- 7000 -->
      <g transform="translate(20.878125 28.217316)scale(0.1 -0.1)">
       <use xlink:href="#DejaVuSans-55"/>
       <use x="63.623047" xlink:href="#DejaVuSans-48"/>
       <use x="127.246094" xlink:href="#DejaVuSans-48"/>
       <use x="190.869141" xlink:href="#DejaVuSans-48"/>
      </g>
     </g>
    </g>
    <g id="text_22">
     <!-- Edge coverage -->
     <g transform="translate(14.798438 192.762406)rotate(-90)scale(0.1 -0.1)">
      <defs>
       <path d="M 9.8125 72.90625 
L 55.90625 72.90625 
L 55.90625 64.59375 
L 19.671875 64.59375 
L 19.671875 43.015625 
L 54.390625 43.015625 
L 54.390625 34.71875 
L 19.671875 34.71875 
L 19.671875 8.296875 
L 56.78125 8.296875 
L 56.78125 0 
L 9.8125 0 
z
" id="DejaVuSans-69"/>
       <path d="M 45.40625 46.390625 
L 45.40625 75.984375 
L 54.390625 75.984375 
L 54.390625 0 
L 45.40625 0 
L 45.40625 8.203125 
Q 42.578125 3.328125 38.25 0.953125 
Q 33.9375 -1.421875 27.875 -1.421875 
Q 17.96875 -1.421875 11.734375 6.484375 
Q 5.515625 14.40625 5.515625 27.296875 
Q 5.515625 40.1875 11.734375 48.09375 
Q 17.96875 56 27.875 56 
Q 33.9375 56 38.25 53.625 
Q 42.578125 51.265625 45.40625 46.390625 
z
M 14.796875 27.296875 
Q 14.796875 17.390625 18.875 11.75 
Q 22.953125 6.109375 30.078125 6.109375 
Q 37.203125 6.109375 41.296875 11.75 
Q 45.40625 17.390625 45.40625 27.296875 
Q 45.40625 37.203125 41.296875 42.84375 
Q 37.203125 48.484375 30.078125 48.484375 
Q 22.953125 48.484375 18.875 42.84375 
Q 14.796875 37.203125 14.796875 27.296875 
z
" id="DejaVuSans-100"/>
       <path d="M 45.40625 27.984375 
Q 45.40625 37.75 41.375 43.109375 
Q 37.359375 48.484375 30.078125 48.484375 
Q 22.859375 48.484375 18.828125 43.109375 
Q 14.796875 37.75 14.796875 27.984375 
Q 14.796875 18.265625 18.828125 12.890625 
Q 22.859375 7.515625 30.078125 7.515625 
Q 37.359375 7.515625 41.375 12.890625 
Q 45.40625 18.265625 45.40625 27.984375 
z
M 54.390625 6.78125 
Q 54.390625 -7.171875 48.1875 -13.984375 
Q 42 -20.796875 29.203125 -20.796875 
Q 24.46875 -20.796875 20.265625 -20.09375 
Q 16.0625 -19.390625 12.109375 -17.921875 
L 12.109375 -9.1875 
Q 16.0625 -11.328125 19.921875 -12.34375 
Q 23.78125 -13.375 27.78125 -13.375 
Q 36.625 -13.375 41.015625 -8.765625 
Q 45.40625 -4.15625 45.40625 5.171875 
L 45.40625 9.625 
Q 42.625 4.78125 38.28125 2.390625 
Q 33.9375 0 27.875 0 
Q 17.828125 0 11.671875 7.65625 
Q 5.515625 15.328125 5.515625 27.984375 
Q 5.515625 40.671875 11.671875 48.328125 
Q 17.828125 56 27.875 56 
Q 33.9375 56 38.28125 53.609375 
Q 42.625 51.21875 45.40625 46.390625 
L 45.40625 54.6875 
L 54.390625 54.6875 
z
" id="DejaVuSans-103"/>
       <path d="M 48.78125 52.59375 
L 48.78125 44.1875 
Q 44.96875 46.296875 41.140625 47.34375 
Q 37.3125 48.390625 33.40625 48.390625 
Q 24.65625 48.390625 19.8125 42.84375 
Q 14.984375 37.3125 14.984375 27.296875 
Q 14.984375 17.28125 19.8125 11.734375 
Q 24.65625 6.203125 33.40625 6.203125 
Q 37.3125 6.203125 41.140625 7.25 
Q 44.96875 8.296875 48.78125 10.40625 
L 48.78125 2.09375 
Q 45.015625 0.34375 40.984375 -0.53125 
Q 36.96875 -1.421875 32.421875 -1.421875 
Q 20.0625 -1.421875 12.78125 6.34375 
Q 5.515625 14.109375 5.515625 27.296875 
Q 5.515625 40.671875 12.859375 48.328125 
Q 20.21875 56 33.015625 56 
Q 37.15625 56 41.109375 55.140625 
Q 45.0625 54.296875 48.78125 52.59375 
z
" id="DejaVuSans-99"/>
       <path d="M 2.984375 54.6875 
L 12.5 54.6875 
L 29.59375 8.796875 
L 46.6875 54.6875 
L 56.203125 54.6875 
L 35.6875 0 
L 23.484375 0 
z
" id="DejaVuSans-118"/>
       <path d="M 34.28125 27.484375 
Q 23.390625 27.484375 19.1875 25 
Q 14.984375 22.515625 14.984375 16.5 
Q 14.984375 11.71875 18.140625 8.90625 
Q 21.296875 6.109375 26.703125 6.109375 
Q 34.1875 6.109375 38.703125 11.40625 
Q 43.21875 16.703125 43.21875 25.484375 
L 43.21875 27.484375 
z
M 52.203125 31.203125 
L 52.203125 0 
L 43.21875 0 
L 43.21875 8.296875 
Q 40.140625 3.328125 35.546875 0.953125 
Q 30.953125 -1.421875 24.3125 -1.421875 
Q 15.921875 -1.421875 10.953125 3.296875 
Q 6 8.015625 6 15.921875 
Q 6 25.140625 12.171875 29.828125 
Q 18.359375 34.515625 30.609375 34.515625 
L 43.21875 34.515625 
L 43.21875 35.40625 
Q 43.21875 41.609375 39.140625 45 
Q 35.0625 48.390625 27.6875 48.390625 
Q 23 48.390625 18.546875 47.265625 
Q 14.109375 46.140625 10.015625 43.890625 
L 10.015625 52.203125 
Q 14.9375 54.109375 19.578125 55.046875 
Q 24.21875 56 28.609375 56 
Q 40.484375 56 46.34375 49.84375 
Q 52.203125 43.703125 52.203125 31.203125 
z
" id="DejaVuSans-97"/>
      </defs>
      <use xlink:href="#DejaVuSans-69"/>
      <use x="63.183594" xlink:href="#DejaVuSans-100"/>
      <use x="126.660156" xlink:href="#DejaVuSans-103"/>
      <use x="190.136719" xlink:href="#DejaVuSans-101"/>
      <use x="251.660156" xlink:href="#DejaVuSans-32"/>
      <use x="283.447266" xlink:href="#DejaVuSans-99"/>
      <use x="338.427734" xlink:href="#DejaVuSans-111"/>
      <use x="399.609375" xlink:href="#DejaVuSans-118"/>
      <use x="458.789062" xlink:href="#DejaVuSans-101"/>
      <use x="520.3125" xlink:href="#DejaVuSans-114"/>
      <use x="561.425781" xlink:href="#DejaVuSans-97"/>
      <use x="622.705078" xlink:href="#DejaVuSans-103"/>
      <use x="686.181641" xlink:href="#DejaVuSans-101"/>
     </g>
    </g>
   </g>
   <g id="line2d_21">
    <path clip-path="url(#p62721be7bc)" d="M 85.79358 256.718264 
L 92.628412 228.2887 
L 99.463245 214.154532 
L 106.298077 192.657697 
L 113.13291 173.579257 
L 119.967742 163.233905 
L 126.802575 157.832825 
L 133.637407 151.625615 
L 140.47224 147.218763 
L 147.307072 140.124808 
L 154.141905 134.589373 
L 160.976737 132.923369 
L 167.81157 129.671972 
L 174.646403 125.103895 
L 181.481235 123.034825 
L 188.316068 120.965754 
L 195.1509 120.213365 
L 201.985733 119.246008 
L 208.820565 117.7681 
L 215.655398 115.860256 
L 222.49023 115.672159 
L 229.325063 113.710573 
L 236.159895 111.399663 
L 242.994728 108.954398 
L 249.82956 108.470719 
L 256.664393 108.255751 
L 263.499225 107.20778 
L 270.334058 106.42852 
L 277.168891 105.622389 
L 284.003723 104.090739 
L 290.838556 102.800929 
L 297.673388 101.323022 
L 304.508221 100.678117 
L 311.343053 99.925728 
L 318.177886 99.227081 
L 325.012718 98.824015 
L 331.847551 98.420949 
L 338.682383 96.566847 
L 345.517216 95.572619 
L 352.352048 93.987227 
L 359.186881 92.50932 
L 366.021714 91.837544 
L 372.856546 90.816444 
L 379.691379 90.762702 
L 386.526211 88.451792 
L 393.361044 88.12934 
L 400.195876 87.457564 
L 407.030709 86.705175 
L 413.865541 85.764688 
L 420.700374 85.603462 
L 427.535206 83.829973 
L 434.370039 83.426907 
L 441.204871 82.889487 
L 448.039704 82.45955 
L 454.874536 81.196611 
L 461.709369 80.282995 
L 468.544202 80.229253 
L 475.379034 79.315638 
L 482.213867 78.751346 
L 489.048699 78.375151 
L 495.883532 77.004728 
L 502.718364 76.816631 
L 509.553197 76.386694 
L 516.388029 76.037371 
L 523.222862 75.714918 
L 530.057694 74.855045 
L 536.892527 74.693818 
L 543.727359 74.290753 
L 550.562192 68.513479 
L 557.397025 68.217897 
L 564.231857 68.056671 
L 571.06669 67.868574 
L 577.901522 67.304282 
L 584.736355 62.816817 
L 591.571187 62.574978 
L 598.40602 52.659563 
L 605.240852 51.826561 
L 612.075685 51.423495 
L 618.910517 51.369753 
L 625.74535 51.154785 
L 632.580182 50.912945 
L 639.415015 50.77859 
L 646.249847 50.724848 
L 653.08468 50.348653 
L 659.919513 49.945588 
L 666.754345 49.864975 
L 673.589178 49.757491 
L 680.42401 49.408167 
L 687.258843 49.031972 
L 694.093675 48.494552 
L 700.928508 48.19897 
L 707.76334 47.957131 
L 714.598173 47.849646 
L 721.433005 47.554065 
L 728.267838 47.527194 
L 735.10267 46.962902 
" style="fill:none;stroke:#98df8a;stroke-linecap:square;stroke-width:1.5;"/>
    <defs>
     <path d="M -0 3 
L 3 -3 
L -3 -3 
z
" id="m05d49352d7" style="stroke:#ffffff;stroke-linejoin:miter;stroke-width:0.75;"/>
    </defs>
    <g clip-path="url(#p62721be7bc)">
     <use style="fill:#98df8a;stroke:#ffffff;stroke-linejoin:miter;stroke-width:0.75;" x="85.79358" xlink:href="#m05d49352d7" y="256.718264"/>
     <use style="fill:#98df8a;stroke:#ffffff;stroke-linejoin:miter;stroke-width:0.75;" x="92.628412" xlink:href="#m05d49352d7" y="228.2887"/>
     <use style="fill:#98df8a;stroke:#ffffff;stroke-linejoin:miter;stroke-width:0.75;" x="99.463245" xlink:href="#m05d49352d7" y="214.154532"/>
     <use style="fill:#98df8a;stroke:#ffffff;stroke-linejoin:miter;stroke-width:0.75;" x="106.298077" xlink:href="#m05d49352d7" y="192.657697"/>
     <use style="fill:#98df8a;stroke:#ffffff;stroke-linejoin:miter;stroke-width:0.75;" x="113.13291" xlink:href="#m05d49352d7" y="173.579257"/>
     <use style="fill:#98df8a;stroke:#ffffff;stroke-linejoin:miter;stroke-width:0.75;" x="119.967742" xlink:href="#m05d49352d7" y="163.233905"/>
     <use style="fill:#98df8a;stroke:#ffffff;stroke-linejoin:miter;stroke-width:0.75;" x="126.802575" xlink:href="#m05d49352d7" y="157.832825"/>
     <use style="fill:#98df8a;stroke:#ffffff;stroke-linejoin:miter;stroke-width:0.75;" x="133.637407" xlink:href="#m05d49352d7" y="151.625615"/>
     <use style="fill:#98df8a;stroke:#ffffff;stroke-linejoin:miter;stroke-width:0.75;" x="140.47224" xlink:href="#m05d49352d7" y="147.218763"/>
     <use style="fill:#98df8a;stroke:#ffffff;stroke-linejoin:miter;stroke-width:0.75;" x="147.307072" xlink:href="#m05d49352d7" y="140.124808"/>
     <use style="fill:#98df8a;stroke:#ffffff;stroke-linejoin:miter;stroke-width:0.75;" x="154.141905" xlink:href="#m05d49352d7" y="134.589373"/>
     <use style="fill:#98df8a;stroke:#ffffff;stroke-linejoin:miter;stroke-width:0.75;" x="160.976737" xlink:href="#m05d49352d7" y="132.923369"/>
     <use style="fill:#98df8a;stroke:#ffffff;stroke-linejoin:miter;stroke-width:0.75;" x="167.81157" xlink:href="#m05d49352d7" y="129.671972"/>
     <use style="fill:#98df8a;stroke:#ffffff;stroke-linejoin:miter;stroke-width:0.75;" x="174.646403" xlink:href="#m05d49352d7" y="125.103895"/>
     <use style="fill:#98df8a;stroke:#ffffff;stroke-linejoin:miter;stroke-width:0.75;" x="181.481235" xlink:href="#m05d49352d7" y="123.034825"/>
     <use style="fill:#98df8a;stroke:#ffffff;stroke-linejoin:miter;stroke-width:0.75;" x="188.316068" xlink:href="#m05d49352d7" y="120.965754"/>
     <use style="fill:#98df8a;stroke:#ffffff;stroke-linejoin:miter;stroke-width:0.75;" x="195.1509" xlink:href="#m05d49352d7" y="120.213365"/>
     <use style="fill:#98df8a;stroke:#ffffff;stroke-linejoin:miter;stroke-width:0.75;" x="201.985733" xlink:href="#m05d49352d7" y="119.246008"/>
     <use style="fill:#98df8a;stroke:#ffffff;stroke-linejoin:miter;stroke-width:0.75;" x="208.820565" xlink:href="#m05d49352d7" y="117.7681"/>
     <use style="fill:#98df8a;stroke:#ffffff;stroke-linejoin:miter;stroke-width:0.75;" x="215.655398" xlink:href="#m05d49352d7" y="115.860256"/>
     <use style="fill:#98df8a;stroke:#ffffff;stroke-linejoin:miter;stroke-width:0.75;" x="222.49023" xlink:href="#m05d49352d7" y="115.672159"/>
     <use style="fill:#98df8a;stroke:#ffffff;stroke-linejoin:miter;stroke-width:0.75;" x="229.325063" xlink:href="#m05d49352d7" y="113.710573"/>
     <use style="fill:#98df8a;stroke:#ffffff;stroke-linejoin:miter;stroke-width:0.75;" x="236.159895" xlink:href="#m05d49352d7" y="111.399663"/>
     <use style="fill:#98df8a;stroke:#ffffff;stroke-linejoin:miter;stroke-width:0.75;" x="242.994728" xlink:href="#m05d49352d7" y="108.954398"/>
     <use style="fill:#98df8a;stroke:#ffffff;stroke-linejoin:miter;stroke-width:0.75;" x="249.82956" xlink:href="#m05d49352d7" y="108.470719"/>
     <use style="fill:#98df8a;stroke:#ffffff;stroke-linejoin:miter;stroke-width:0.75;" x="256.664393" xlink:href="#m05d49352d7" y="108.255751"/>
     <use style="fill:#98df8a;stroke:#ffffff;stroke-linejoin:miter;stroke-width:0.75;" x="263.499225" xlink:href="#m05d49352d7" y="107.20778"/>
     <use style="fill:#98df8a;stroke:#ffffff;stroke-linejoin:miter;stroke-width:0.75;" x="270.334058" xlink:href="#m05d49352d7" y="106.42852"/>
     <use style="fill:#98df8a;stroke:#ffffff;stroke-linejoin:miter;stroke-width:0.75;" x="277.168891" xlink:href="#m05d49352d7" y="105.622389"/>
     <use style="fill:#98df8a;stroke:#ffffff;stroke-linejoin:miter;stroke-width:0.75;" x="284.003723" xlink:href="#m05d49352d7" y="104.090739"/>
     <use style="fill:#98df8a;stroke:#ffffff;stroke-linejoin:miter;stroke-width:0.75;" x="290.838556" xlink:href="#m05d49352d7" y="102.800929"/>
     <use style="fill:#98df8a;stroke:#ffffff;stroke-linejoin:miter;stroke-width:0.75;" x="297.673388" xlink:href="#m05d49352d7" y="101.323022"/>
     <use style="fill:#98df8a;stroke:#ffffff;stroke-linejoin:miter;stroke-width:0.75;" x="304.508221" xlink:href="#m05d49352d7" y="100.678117"/>
     <use style="fill:#98df8a;stroke:#ffffff;stroke-linejoin:miter;stroke-width:0.75;" x="311.343053" xlink:href="#m05d49352d7" y="99.925728"/>
     <use style="fill:#98df8a;stroke:#ffffff;stroke-linejoin:miter;stroke-width:0.75;" x="318.177886" xlink:href="#m05d49352d7" y="99.227081"/>
     <use style="fill:#98df8a;stroke:#ffffff;stroke-linejoin:miter;stroke-width:0.75;" x="325.012718" xlink:href="#m05d49352d7" y="98.824015"/>
     <use style="fill:#98df8a;stroke:#ffffff;stroke-linejoin:miter;stroke-width:0.75;" x="331.847551" xlink:href="#m05d49352d7" y="98.420949"/>
     <use style="fill:#98df8a;stroke:#ffffff;stroke-linejoin:miter;stroke-width:0.75;" x="338.682383" xlink:href="#m05d49352d7" y="96.566847"/>
     <use style="fill:#98df8a;stroke:#ffffff;stroke-linejoin:miter;stroke-width:0.75;" x="345.517216" xlink:href="#m05d49352d7" y="95.572619"/>
     <use style="fill:#98df8a;stroke:#ffffff;stroke-linejoin:miter;stroke-width:0.75;" x="352.352048" xlink:href="#m05d49352d7" y="93.987227"/>
     <use style="fill:#98df8a;stroke:#ffffff;stroke-linejoin:miter;stroke-width:0.75;" x="359.186881" xlink:href="#m05d49352d7" y="92.50932"/>
     <use style="fill:#98df8a;stroke:#ffffff;stroke-linejoin:miter;stroke-width:0.75;" x="366.021714" xlink:href="#m05d49352d7" y="91.837544"/>
     <use style="fill:#98df8a;stroke:#ffffff;stroke-linejoin:miter;stroke-width:0.75;" x="372.856546" xlink:href="#m05d49352d7" y="90.816444"/>
     <use style="fill:#98df8a;stroke:#ffffff;stroke-linejoin:miter;stroke-width:0.75;" x="379.691379" xlink:href="#m05d49352d7" y="90.762702"/>
     <use style="fill:#98df8a;stroke:#ffffff;stroke-linejoin:miter;stroke-width:0.75;" x="386.526211" xlink:href="#m05d49352d7" y="88.451792"/>
     <use style="fill:#98df8a;stroke:#ffffff;stroke-linejoin:miter;stroke-width:0.75;" x="393.361044" xlink:href="#m05d49352d7" y="88.12934"/>
     <use style="fill:#98df8a;stroke:#ffffff;stroke-linejoin:miter;stroke-width:0.75;" x="400.195876" xlink:href="#m05d49352d7" y="87.457564"/>
     <use style="fill:#98df8a;stroke:#ffffff;stroke-linejoin:miter;stroke-width:0.75;" x="407.030709" xlink:href="#m05d49352d7" y="86.705175"/>
     <use style="fill:#98df8a;stroke:#ffffff;stroke-linejoin:miter;stroke-width:0.75;" x="413.865541" xlink:href="#m05d49352d7" y="85.764688"/>
     <use style="fill:#98df8a;stroke:#ffffff;stroke-linejoin:miter;stroke-width:0.75;" x="420.700374" xlink:href="#m05d49352d7" y="85.603462"/>
     <use style="fill:#98df8a;stroke:#ffffff;stroke-linejoin:miter;stroke-width:0.75;" x="427.535206" xlink:href="#m05d49352d7" y="83.829973"/>
     <use style="fill:#98df8a;stroke:#ffffff;stroke-linejoin:miter;stroke-width:0.75;" x="434.370039" xlink:href="#m05d49352d7" y="83.426907"/>
     <use style="fill:#98df8a;stroke:#ffffff;stroke-linejoin:miter;stroke-width:0.75;" x="441.204871" xlink:href="#m05d49352d7" y="82.889487"/>
     <use style="fill:#98df8a;stroke:#ffffff;stroke-linejoin:miter;stroke-width:0.75;" x="448.039704" xlink:href="#m05d49352d7" y="82.45955"/>
     <use style="fill:#98df8a;stroke:#ffffff;stroke-linejoin:miter;stroke-width:0.75;" x="454.874536" xlink:href="#m05d49352d7" y="81.196611"/>
     <use style="fill:#98df8a;stroke:#ffffff;stroke-linejoin:miter;stroke-width:0.75;" x="461.709369" xlink:href="#m05d49352d7" y="80.282995"/>
     <use style="fill:#98df8a;stroke:#ffffff;stroke-linejoin:miter;stroke-width:0.75;" x="468.544202" xlink:href="#m05d49352d7" y="80.229253"/>
     <use style="fill:#98df8a;stroke:#ffffff;stroke-linejoin:miter;stroke-width:0.75;" x="475.379034" xlink:href="#m05d49352d7" y="79.315638"/>
     <use style="fill:#98df8a;stroke:#ffffff;stroke-linejoin:miter;stroke-width:0.75;" x="482.213867" xlink:href="#m05d49352d7" y="78.751346"/>
     <use style="fill:#98df8a;stroke:#ffffff;stroke-linejoin:miter;stroke-width:0.75;" x="489.048699" xlink:href="#m05d49352d7" y="78.375151"/>
     <use style="fill:#98df8a;stroke:#ffffff;stroke-linejoin:miter;stroke-width:0.75;" x="495.883532" xlink:href="#m05d49352d7" y="77.004728"/>
     <use style="fill:#98df8a;stroke:#ffffff;stroke-linejoin:miter;stroke-width:0.75;" x="502.718364" xlink:href="#m05d49352d7" y="76.816631"/>
     <use style="fill:#98df8a;stroke:#ffffff;stroke-linejoin:miter;stroke-width:0.75;" x="509.553197" xlink:href="#m05d49352d7" y="76.386694"/>
     <use style="fill:#98df8a;stroke:#ffffff;stroke-linejoin:miter;stroke-width:0.75;" x="516.388029" xlink:href="#m05d49352d7" y="76.037371"/>
     <use style="fill:#98df8a;stroke:#ffffff;stroke-linejoin:miter;stroke-width:0.75;" x="523.222862" xlink:href="#m05d49352d7" y="75.714918"/>
     <use style="fill:#98df8a;stroke:#ffffff;stroke-linejoin:miter;stroke-width:0.75;" x="530.057694" xlink:href="#m05d49352d7" y="74.855045"/>
     <use style="fill:#98df8a;stroke:#ffffff;stroke-linejoin:miter;stroke-width:0.75;" x="536.892527" xlink:href="#m05d49352d7" y="74.693818"/>
     <use style="fill:#98df8a;stroke:#ffffff;stroke-linejoin:miter;stroke-width:0.75;" x="543.727359" xlink:href="#m05d49352d7" y="74.290753"/>
     <use style="fill:#98df8a;stroke:#ffffff;stroke-linejoin:miter;stroke-width:0.75;" x="550.562192" xlink:href="#m05d49352d7" y="68.513479"/>
     <use style="fill:#98df8a;stroke:#ffffff;stroke-linejoin:miter;stroke-width:0.75;" x="557.397025" xlink:href="#m05d49352d7" y="68.217897"/>
     <use style="fill:#98df8a;stroke:#ffffff;stroke-linejoin:miter;stroke-width:0.75;" x="564.231857" xlink:href="#m05d49352d7" y="68.056671"/>
     <use style="fill:#98df8a;stroke:#ffffff;stroke-linejoin:miter;stroke-width:0.75;" x="571.06669" xlink:href="#m05d49352d7" y="67.868574"/>
     <use style="fill:#98df8a;stroke:#ffffff;stroke-linejoin:miter;stroke-width:0.75;" x="577.901522" xlink:href="#m05d49352d7" y="67.304282"/>
     <use style="fill:#98df8a;stroke:#ffffff;stroke-linejoin:miter;stroke-width:0.75;" x="584.736355" xlink:href="#m05d49352d7" y="62.816817"/>
     <use style="fill:#98df8a;stroke:#ffffff;stroke-linejoin:miter;stroke-width:0.75;" x="591.571187" xlink:href="#m05d49352d7" y="62.574978"/>
     <use style="fill:#98df8a;stroke:#ffffff;stroke-linejoin:miter;stroke-width:0.75;" x="598.40602" xlink:href="#m05d49352d7" y="52.659563"/>
     <use style="fill:#98df8a;stroke:#ffffff;stroke-linejoin:miter;stroke-width:0.75;" x="605.240852" xlink:href="#m05d49352d7" y="51.826561"/>
     <use style="fill:#98df8a;stroke:#ffffff;stroke-linejoin:miter;stroke-width:0.75;" x="612.075685" xlink:href="#m05d49352d7" y="51.423495"/>
     <use style="fill:#98df8a;stroke:#ffffff;stroke-linejoin:miter;stroke-width:0.75;" x="618.910517" xlink:href="#m05d49352d7" y="51.369753"/>
     <use style="fill:#98df8a;stroke:#ffffff;stroke-linejoin:miter;stroke-width:0.75;" x="625.74535" xlink:href="#m05d49352d7" y="51.154785"/>
     <use style="fill:#98df8a;stroke:#ffffff;stroke-linejoin:miter;stroke-width:0.75;" x="632.580182" xlink:href="#m05d49352d7" y="50.912945"/>
     <use style="fill:#98df8a;stroke:#ffffff;stroke-linejoin:miter;stroke-width:0.75;" x="639.415015" xlink:href="#m05d49352d7" y="50.77859"/>
     <use style="fill:#98df8a;stroke:#ffffff;stroke-linejoin:miter;stroke-width:0.75;" x="646.249847" xlink:href="#m05d49352d7" y="50.724848"/>
     <use style="fill:#98df8a;stroke:#ffffff;stroke-linejoin:miter;stroke-width:0.75;" x="653.08468" xlink:href="#m05d49352d7" y="50.348653"/>
     <use style="fill:#98df8a;stroke:#ffffff;stroke-linejoin:miter;stroke-width:0.75;" x="659.919513" xlink:href="#m05d49352d7" y="49.945588"/>
     <use style="fill:#98df8a;stroke:#ffffff;stroke-linejoin:miter;stroke-width:0.75;" x="666.754345" xlink:href="#m05d49352d7" y="49.864975"/>
     <use style="fill:#98df8a;stroke:#ffffff;stroke-linejoin:miter;stroke-width:0.75;" x="673.589178" xlink:href="#m05d49352d7" y="49.757491"/>
     <use style="fill:#98df8a;stroke:#ffffff;stroke-linejoin:miter;stroke-width:0.75;" x="680.42401" xlink:href="#m05d49352d7" y="49.408167"/>
     <use style="fill:#98df8a;stroke:#ffffff;stroke-linejoin:miter;stroke-width:0.75;" x="687.258843" xlink:href="#m05d49352d7" y="49.031972"/>
     <use style="fill:#98df8a;stroke:#ffffff;stroke-linejoin:miter;stroke-width:0.75;" x="694.093675" xlink:href="#m05d49352d7" y="48.494552"/>
     <use style="fill:#98df8a;stroke:#ffffff;stroke-linejoin:miter;stroke-width:0.75;" x="700.928508" xlink:href="#m05d49352d7" y="48.19897"/>
     <use style="fill:#98df8a;stroke:#ffffff;stroke-linejoin:miter;stroke-width:0.75;" x="707.76334" xlink:href="#m05d49352d7" y="47.957131"/>
     <use style="fill:#98df8a;stroke:#ffffff;stroke-linejoin:miter;stroke-width:0.75;" x="714.598173" xlink:href="#m05d49352d7" y="47.849646"/>
     <use style="fill:#98df8a;stroke:#ffffff;stroke-linejoin:miter;stroke-width:0.75;" x="721.433005" xlink:href="#m05d49352d7" y="47.554065"/>
     <use style="fill:#98df8a;stroke:#ffffff;stroke-linejoin:miter;stroke-width:0.75;" x="728.267838" xlink:href="#m05d49352d7" y="47.527194"/>
     <use style="fill:#98df8a;stroke:#ffffff;stroke-linejoin:miter;stroke-width:0.75;" x="735.10267" xlink:href="#m05d49352d7" y="46.962902"/>
    </g>
   </g>
   <g id="line2d_22">
    <path clip-path="url(#p62721be7bc)" d="M 85.79358 245.674265 
L 92.628412 224.553625 
L 99.463245 203.943535 
L 106.298077 190.964821 
L 113.13291 174.654098 
L 119.967742 168.608114 
L 126.802575 162.642742 
L 133.637407 159.740669 
L 140.47224 156.811726 
L 147.307072 154.447074 
L 154.141905 153.399103 
L 160.976737 151.383775 
L 167.81157 148.750413 
L 174.646403 146.923182 
L 181.481235 145.230306 
L 188.316068 143.806141 
L 195.1509 141.790813 
L 201.985733 139.963582 
L 208.820565 138.834998 
L 215.655398 132.359077 
L 222.49023 130.693072 
L 229.325063 128.785228 
L 236.159895 127.495418 
L 242.994728 126.984868 
L 249.82956 125.318863 
L 256.664393 124.539603 
L 263.499225 123.94844 
L 270.334058 122.792985 
L 277.168891 121.476304 
L 284.003723 118.681716 
L 290.838556 118.063682 
L 297.673388 116.47829 
L 304.508221 115.295964 
L 311.343053 108.040783 
L 318.177886 101.564861 
L 325.012718 96.674332 
L 331.847551 95.518877 
L 338.682383 93.906614 
L 345.517216 92.079383 
L 352.352048 91.541962 
L 359.186881 84.851073 
L 366.021714 84.474878 
L 372.856546 83.158197 
L 379.691379 82.782002 
L 386.526211 81.814645 
L 393.361044 81.545934 
L 400.195876 81.062256 
L 407.030709 80.793545 
L 413.865541 80.417351 
L 420.700374 80.14864 
L 427.535206 79.557477 
L 434.370039 78.85883 
L 441.204871 78.616991 
L 448.039704 78.213925 
L 454.874536 78.106441 
L 461.709369 77.83773 
L 468.544202 77.56902 
L 475.379034 76.682276 
L 482.213867 76.252339 
L 489.048699 75.76866 
L 495.883532 75.311852 
L 502.718364 74.962529 
L 509.553197 74.774432 
L 516.388029 72.893459 
L 523.222862 72.302296 
L 530.057694 71.926101 
L 536.892527 71.200583 
L 543.727359 71.012486 
L 550.562192 70.716904 
L 557.397025 70.367581 
L 564.231857 70.340709 
L 571.06669 69.910773 
L 577.901522 69.883902 
L 584.736355 69.83016 
L 591.571187 69.427094 
L 598.40602 69.373352 
L 605.240852 68.29851 
L 612.075685 62.11817 
L 618.910517 61.500136 
L 625.74535 61.446394 
L 632.580182 61.150813 
L 639.415015 61.0702 
L 646.249847 60.935844 
L 653.08468 60.613392 
L 659.919513 60.075971 
L 666.754345 59.162356 
L 673.589178 58.302482 
L 680.42401 57.98003 
L 687.258843 57.872546 
L 694.093675 57.576964 
L 700.928508 56.905188 
L 707.76334 56.878317 
L 714.598173 56.717091 
L 721.433005 56.287154 
L 728.267838 56.125928 
L 735.10267 55.534765 
" style="fill:none;stroke:#1f77b4;stroke-linecap:square;stroke-width:1.5;"/>
    <defs>
     <path d="M 0 3 
C 0.795609 3 1.55874 2.683901 2.12132 2.12132 
C 2.683901 1.55874 3 0.795609 3 0 
C 3 -0.795609 2.683901 -1.55874 2.12132 -2.12132 
C 1.55874 -2.683901 0.795609 -3 0 -3 
C -0.795609 -3 -1.55874 -2.683901 -2.12132 -2.12132 
C -2.683901 -1.55874 -3 -0.795609 -3 0 
C -3 0.795609 -2.683901 1.55874 -2.12132 2.12132 
C -1.55874 2.683901 -0.795609 3 0 3 
z
" id="mcbd13946be" style="stroke:#ffffff;stroke-width:0.75;"/>
    </defs>
    <g clip-path="url(#p62721be7bc)">
     <use style="fill:#1f77b4;stroke:#ffffff;stroke-width:0.75;" x="85.79358" xlink:href="#mcbd13946be" y="245.674265"/>
     <use style="fill:#1f77b4;stroke:#ffffff;stroke-width:0.75;" x="92.628412" xlink:href="#mcbd13946be" y="224.553625"/>
     <use style="fill:#1f77b4;stroke:#ffffff;stroke-width:0.75;" x="99.463245" xlink:href="#mcbd13946be" y="203.943535"/>
     <use style="fill:#1f77b4;stroke:#ffffff;stroke-width:0.75;" x="106.298077" xlink:href="#mcbd13946be" y="190.964821"/>
     <use style="fill:#1f77b4;stroke:#ffffff;stroke-width:0.75;" x="113.13291" xlink:href="#mcbd13946be" y="174.654098"/>
     <use style="fill:#1f77b4;stroke:#ffffff;stroke-width:0.75;" x="119.967742" xlink:href="#mcbd13946be" y="168.608114"/>
     <use style="fill:#1f77b4;stroke:#ffffff;stroke-width:0.75;" x="126.802575" xlink:href="#mcbd13946be" y="162.642742"/>
     <use style="fill:#1f77b4;stroke:#ffffff;stroke-width:0.75;" x="133.637407" xlink:href="#mcbd13946be" y="159.740669"/>
     <use style="fill:#1f77b4;stroke:#ffffff;stroke-width:0.75;" x="140.47224" xlink:href="#mcbd13946be" y="156.811726"/>
     <use style="fill:#1f77b4;stroke:#ffffff;stroke-width:0.75;" x="147.307072" xlink:href="#mcbd13946be" y="154.447074"/>
     <use style="fill:#1f77b4;stroke:#ffffff;stroke-width:0.75;" x="154.141905" xlink:href="#mcbd13946be" y="153.399103"/>
     <use style="fill:#1f77b4;stroke:#ffffff;stroke-width:0.75;" x="160.976737" xlink:href="#mcbd13946be" y="151.383775"/>
     <use style="fill:#1f77b4;stroke:#ffffff;stroke-width:0.75;" x="167.81157" xlink:href="#mcbd13946be" y="148.750413"/>
     <use style="fill:#1f77b4;stroke:#ffffff;stroke-width:0.75;" x="174.646403" xlink:href="#mcbd13946be" y="146.923182"/>
     <use style="fill:#1f77b4;stroke:#ffffff;stroke-width:0.75;" x="181.481235" xlink:href="#mcbd13946be" y="145.230306"/>
     <use style="fill:#1f77b4;stroke:#ffffff;stroke-width:0.75;" x="188.316068" xlink:href="#mcbd13946be" y="143.806141"/>
     <use style="fill:#1f77b4;stroke:#ffffff;stroke-width:0.75;" x="195.1509" xlink:href="#mcbd13946be" y="141.790813"/>
     <use style="fill:#1f77b4;stroke:#ffffff;stroke-width:0.75;" x="201.985733" xlink:href="#mcbd13946be" y="139.963582"/>
     <use style="fill:#1f77b4;stroke:#ffffff;stroke-width:0.75;" x="208.820565" xlink:href="#mcbd13946be" y="138.834998"/>
     <use style="fill:#1f77b4;stroke:#ffffff;stroke-width:0.75;" x="215.655398" xlink:href="#mcbd13946be" y="132.359077"/>
     <use style="fill:#1f77b4;stroke:#ffffff;stroke-width:0.75;" x="222.49023" xlink:href="#mcbd13946be" y="130.693072"/>
     <use style="fill:#1f77b4;stroke:#ffffff;stroke-width:0.75;" x="229.325063" xlink:href="#mcbd13946be" y="128.785228"/>
     <use style="fill:#1f77b4;stroke:#ffffff;stroke-width:0.75;" x="236.159895" xlink:href="#mcbd13946be" y="127.495418"/>
     <use style="fill:#1f77b4;stroke:#ffffff;stroke-width:0.75;" x="242.994728" xlink:href="#mcbd13946be" y="126.984868"/>
     <use style="fill:#1f77b4;stroke:#ffffff;stroke-width:0.75;" x="249.82956" xlink:href="#mcbd13946be" y="125.318863"/>
     <use style="fill:#1f77b4;stroke:#ffffff;stroke-width:0.75;" x="256.664393" xlink:href="#mcbd13946be" y="124.539603"/>
     <use style="fill:#1f77b4;stroke:#ffffff;stroke-width:0.75;" x="263.499225" xlink:href="#mcbd13946be" y="123.94844"/>
     <use style="fill:#1f77b4;stroke:#ffffff;stroke-width:0.75;" x="270.334058" xlink:href="#mcbd13946be" y="122.792985"/>
     <use style="fill:#1f77b4;stroke:#ffffff;stroke-width:0.75;" x="277.168891" xlink:href="#mcbd13946be" y="121.476304"/>
     <use style="fill:#1f77b4;stroke:#ffffff;stroke-width:0.75;" x="284.003723" xlink:href="#mcbd13946be" y="118.681716"/>
     <use style="fill:#1f77b4;stroke:#ffffff;stroke-width:0.75;" x="290.838556" xlink:href="#mcbd13946be" y="118.063682"/>
     <use style="fill:#1f77b4;stroke:#ffffff;stroke-width:0.75;" x="297.673388" xlink:href="#mcbd13946be" y="116.47829"/>
     <use style="fill:#1f77b4;stroke:#ffffff;stroke-width:0.75;" x="304.508221" xlink:href="#mcbd13946be" y="115.295964"/>
     <use style="fill:#1f77b4;stroke:#ffffff;stroke-width:0.75;" x="311.343053" xlink:href="#mcbd13946be" y="108.040783"/>
     <use style="fill:#1f77b4;stroke:#ffffff;stroke-width:0.75;" x="318.177886" xlink:href="#mcbd13946be" y="101.564861"/>
     <use style="fill:#1f77b4;stroke:#ffffff;stroke-width:0.75;" x="325.012718" xlink:href="#mcbd13946be" y="96.674332"/>
     <use style="fill:#1f77b4;stroke:#ffffff;stroke-width:0.75;" x="331.847551" xlink:href="#mcbd13946be" y="95.518877"/>
     <use style="fill:#1f77b4;stroke:#ffffff;stroke-width:0.75;" x="338.682383" xlink:href="#mcbd13946be" y="93.906614"/>
     <use style="fill:#1f77b4;stroke:#ffffff;stroke-width:0.75;" x="345.517216" xlink:href="#mcbd13946be" y="92.079383"/>
     <use style="fill:#1f77b4;stroke:#ffffff;stroke-width:0.75;" x="352.352048" xlink:href="#mcbd13946be" y="91.541962"/>
     <use style="fill:#1f77b4;stroke:#ffffff;stroke-width:0.75;" x="359.186881" xlink:href="#mcbd13946be" y="84.851073"/>
     <use style="fill:#1f77b4;stroke:#ffffff;stroke-width:0.75;" x="366.021714" xlink:href="#mcbd13946be" y="84.474878"/>
     <use style="fill:#1f77b4;stroke:#ffffff;stroke-width:0.75;" x="372.856546" xlink:href="#mcbd13946be" y="83.158197"/>
     <use style="fill:#1f77b4;stroke:#ffffff;stroke-width:0.75;" x="379.691379" xlink:href="#mcbd13946be" y="82.782002"/>
     <use style="fill:#1f77b4;stroke:#ffffff;stroke-width:0.75;" x="386.526211" xlink:href="#mcbd13946be" y="81.814645"/>
     <use style="fill:#1f77b4;stroke:#ffffff;stroke-width:0.75;" x="393.361044" xlink:href="#mcbd13946be" y="81.545934"/>
     <use style="fill:#1f77b4;stroke:#ffffff;stroke-width:0.75;" x="400.195876" xlink:href="#mcbd13946be" y="81.062256"/>
     <use style="fill:#1f77b4;stroke:#ffffff;stroke-width:0.75;" x="407.030709" xlink:href="#mcbd13946be" y="80.793545"/>
     <use style="fill:#1f77b4;stroke:#ffffff;stroke-width:0.75;" x="413.865541" xlink:href="#mcbd13946be" y="80.417351"/>
     <use style="fill:#1f77b4;stroke:#ffffff;stroke-width:0.75;" x="420.700374" xlink:href="#mcbd13946be" y="80.14864"/>
     <use style="fill:#1f77b4;stroke:#ffffff;stroke-width:0.75;" x="427.535206" xlink:href="#mcbd13946be" y="79.557477"/>
     <use style="fill:#1f77b4;stroke:#ffffff;stroke-width:0.75;" x="434.370039" xlink:href="#mcbd13946be" y="78.85883"/>
     <use style="fill:#1f77b4;stroke:#ffffff;stroke-width:0.75;" x="441.204871" xlink:href="#mcbd13946be" y="78.616991"/>
     <use style="fill:#1f77b4;stroke:#ffffff;stroke-width:0.75;" x="448.039704" xlink:href="#mcbd13946be" y="78.213925"/>
     <use style="fill:#1f77b4;stroke:#ffffff;stroke-width:0.75;" x="454.874536" xlink:href="#mcbd13946be" y="78.106441"/>
     <use style="fill:#1f77b4;stroke:#ffffff;stroke-width:0.75;" x="461.709369" xlink:href="#mcbd13946be" y="77.83773"/>
     <use style="fill:#1f77b4;stroke:#ffffff;stroke-width:0.75;" x="468.544202" xlink:href="#mcbd13946be" y="77.56902"/>
     <use style="fill:#1f77b4;stroke:#ffffff;stroke-width:0.75;" x="475.379034" xlink:href="#mcbd13946be" y="76.682276"/>
     <use style="fill:#1f77b4;stroke:#ffffff;stroke-width:0.75;" x="482.213867" xlink:href="#mcbd13946be" y="76.252339"/>
     <use style="fill:#1f77b4;stroke:#ffffff;stroke-width:0.75;" x="489.048699" xlink:href="#mcbd13946be" y="75.76866"/>
     <use style="fill:#1f77b4;stroke:#ffffff;stroke-width:0.75;" x="495.883532" xlink:href="#mcbd13946be" y="75.311852"/>
     <use style="fill:#1f77b4;stroke:#ffffff;stroke-width:0.75;" x="502.718364" xlink:href="#mcbd13946be" y="74.962529"/>
     <use style="fill:#1f77b4;stroke:#ffffff;stroke-width:0.75;" x="509.553197" xlink:href="#mcbd13946be" y="74.774432"/>
     <use style="fill:#1f77b4;stroke:#ffffff;stroke-width:0.75;" x="516.388029" xlink:href="#mcbd13946be" y="72.893459"/>
     <use style="fill:#1f77b4;stroke:#ffffff;stroke-width:0.75;" x="523.222862" xlink:href="#mcbd13946be" y="72.302296"/>
     <use style="fill:#1f77b4;stroke:#ffffff;stroke-width:0.75;" x="530.057694" xlink:href="#mcbd13946be" y="71.926101"/>
     <use style="fill:#1f77b4;stroke:#ffffff;stroke-width:0.75;" x="536.892527" xlink:href="#mcbd13946be" y="71.200583"/>
     <use style="fill:#1f77b4;stroke:#ffffff;stroke-width:0.75;" x="543.727359" xlink:href="#mcbd13946be" y="71.012486"/>
     <use style="fill:#1f77b4;stroke:#ffffff;stroke-width:0.75;" x="550.562192" xlink:href="#mcbd13946be" y="70.716904"/>
     <use style="fill:#1f77b4;stroke:#ffffff;stroke-width:0.75;" x="557.397025" xlink:href="#mcbd13946be" y="70.367581"/>
     <use style="fill:#1f77b4;stroke:#ffffff;stroke-width:0.75;" x="564.231857" xlink:href="#mcbd13946be" y="70.340709"/>
     <use style="fill:#1f77b4;stroke:#ffffff;stroke-width:0.75;" x="571.06669" xlink:href="#mcbd13946be" y="69.910773"/>
     <use style="fill:#1f77b4;stroke:#ffffff;stroke-width:0.75;" x="577.901522" xlink:href="#mcbd13946be" y="69.883902"/>
     <use style="fill:#1f77b4;stroke:#ffffff;stroke-width:0.75;" x="584.736355" xlink:href="#mcbd13946be" y="69.83016"/>
     <use style="fill:#1f77b4;stroke:#ffffff;stroke-width:0.75;" x="591.571187" xlink:href="#mcbd13946be" y="69.427094"/>
     <use style="fill:#1f77b4;stroke:#ffffff;stroke-width:0.75;" x="598.40602" xlink:href="#mcbd13946be" y="69.373352"/>
     <use style="fill:#1f77b4;stroke:#ffffff;stroke-width:0.75;" x="605.240852" xlink:href="#mcbd13946be" y="68.29851"/>
     <use style="fill:#1f77b4;stroke:#ffffff;stroke-width:0.75;" x="612.075685" xlink:href="#mcbd13946be" y="62.11817"/>
     <use style="fill:#1f77b4;stroke:#ffffff;stroke-width:0.75;" x="618.910517" xlink:href="#mcbd13946be" y="61.500136"/>
     <use style="fill:#1f77b4;stroke:#ffffff;stroke-width:0.75;" x="625.74535" xlink:href="#mcbd13946be" y="61.446394"/>
     <use style="fill:#1f77b4;stroke:#ffffff;stroke-width:0.75;" x="632.580182" xlink:href="#mcbd13946be" y="61.150813"/>
     <use style="fill:#1f77b4;stroke:#ffffff;stroke-width:0.75;" x="639.415015" xlink:href="#mcbd13946be" y="61.0702"/>
     <use style="fill:#1f77b4;stroke:#ffffff;stroke-width:0.75;" x="646.249847" xlink:href="#mcbd13946be" y="60.935844"/>
     <use style="fill:#1f77b4;stroke:#ffffff;stroke-width:0.75;" x="653.08468" xlink:href="#mcbd13946be" y="60.613392"/>
     <use style="fill:#1f77b4;stroke:#ffffff;stroke-width:0.75;" x="659.919513" xlink:href="#mcbd13946be" y="60.075971"/>
     <use style="fill:#1f77b4;stroke:#ffffff;stroke-width:0.75;" x="666.754345" xlink:href="#mcbd13946be" y="59.162356"/>
     <use style="fill:#1f77b4;stroke:#ffffff;stroke-width:0.75;" x="673.589178" xlink:href="#mcbd13946be" y="58.302482"/>
     <use style="fill:#1f77b4;stroke:#ffffff;stroke-width:0.75;" x="680.42401" xlink:href="#mcbd13946be" y="57.98003"/>
     <use style="fill:#1f77b4;stroke:#ffffff;stroke-width:0.75;" x="687.258843" xlink:href="#mcbd13946be" y="57.872546"/>
     <use style="fill:#1f77b4;stroke:#ffffff;stroke-width:0.75;" x="694.093675" xlink:href="#mcbd13946be" y="57.576964"/>
     <use style="fill:#1f77b4;stroke:#ffffff;stroke-width:0.75;" x="700.928508" xlink:href="#mcbd13946be" y="56.905188"/>
     <use style="fill:#1f77b4;stroke:#ffffff;stroke-width:0.75;" x="707.76334" xlink:href="#mcbd13946be" y="56.878317"/>
     <use style="fill:#1f77b4;stroke:#ffffff;stroke-width:0.75;" x="714.598173" xlink:href="#mcbd13946be" y="56.717091"/>
     <use style="fill:#1f77b4;stroke:#ffffff;stroke-width:0.75;" x="721.433005" xlink:href="#mcbd13946be" y="56.287154"/>
     <use style="fill:#1f77b4;stroke:#ffffff;stroke-width:0.75;" x="728.267838" xlink:href="#mcbd13946be" y="56.125928"/>
     <use style="fill:#1f77b4;stroke:#ffffff;stroke-width:0.75;" x="735.10267" xlink:href="#mcbd13946be" y="55.534765"/>
    </g>
   </g>
   <g id="line2d_23"/>
   <g id="line2d_24"/>
   <g id="line2d_25"/>
   <g id="line2d_26">
    <path clip-path="url(#p62721be7bc)" d="M 735.10267 288.430125 
L 735.10267 22.318125 
" style="fill:none;stroke:#ff0000;stroke-linecap:square;stroke-width:1.5;"/>
   </g>
   <g id="patch_3">
    <path d="M 53.328125 259.539723 
L 53.328125 24.418097 
" style="fill:none;stroke:#000000;stroke-linecap:square;stroke-linejoin:miter;stroke-width:0.8;"/>
   </g>
   <g id="patch_4">
    <path d="M 85.79358 288.430125 
L 687.258843 288.430125 
" style="fill:none;stroke:#000000;stroke-linecap:square;stroke-linejoin:miter;stroke-width:0.8;"/>
   </g>
   <g id="text_23">
    <!-- bloaty_fuzz_target (24h, 5 trials/fuzzer) -->
    <g transform="translate(292.352188 16.318125)scale(0.12 -0.12)">
     <defs>
      <path d="M 48.6875 27.296875 
Q 48.6875 37.203125 44.609375 42.84375 
Q 40.53125 48.484375 33.40625 48.484375 
Q 26.265625 48.484375 22.1875 42.84375 
Q 18.109375 37.203125 18.109375 27.296875 
Q 18.109375 17.390625 22.1875 11.75 
Q 26.265625 6.109375 33.40625 6.109375 
Q 40.53125 6.109375 44.609375 11.75 
Q 48.6875 17.390625 48.6875 27.296875 
z
M 18.109375 46.390625 
Q 20.953125 51.265625 25.265625 53.625 
Q 29.59375 56 35.59375 56 
Q 45.5625 56 51.78125 48.09375 
Q 58.015625 40.1875 58.015625 27.296875 
Q 58.015625 14.40625 51.78125 6.484375 
Q 45.5625 -1.421875 35.59375 -1.421875 
Q 29.59375 -1.421875 25.265625 0.953125 
Q 20.953125 3.328125 18.109375 8.203125 
L 18.109375 0 
L 9.078125 0 
L 9.078125 75.984375 
L 18.109375 75.984375 
z
" id="DejaVuSans-98"/>
      <path d="M 9.421875 75.984375 
L 18.40625 75.984375 
L 18.40625 0 
L 9.421875 0 
z
" id="DejaVuSans-108"/>
      <path d="M 32.171875 -5.078125 
Q 28.375 -14.84375 24.75 -17.8125 
Q 21.140625 -20.796875 15.09375 -20.796875 
L 7.90625 -20.796875 
L 7.90625 -13.28125 
L 13.1875 -13.28125 
Q 16.890625 -13.28125 18.9375 -11.515625 
Q 21 -9.765625 23.484375 -3.21875 
L 25.09375 0.875 
L 2.984375 54.6875 
L 12.5 54.6875 
L 29.59375 11.921875 
L 46.6875 54.6875 
L 56.203125 54.6875 
z
" id="DejaVuSans-121"/>
      <path d="M 50.984375 -16.609375 
L 50.984375 -23.578125 
L -0.984375 -23.578125 
L -0.984375 -16.609375 
z
" id="DejaVuSans-95"/>
      <path d="M 37.109375 75.984375 
L 37.109375 68.5 
L 28.515625 68.5 
Q 23.6875 68.5 21.796875 66.546875 
Q 19.921875 64.59375 19.921875 59.515625 
L 19.921875 54.6875 
L 34.71875 54.6875 
L 34.71875 47.703125 
L 19.921875 47.703125 
L 19.921875 0 
L 10.890625 0 
L 10.890625 47.703125 
L 2.296875 47.703125 
L 2.296875 54.6875 
L 10.890625 54.6875 
L 10.890625 58.5 
Q 10.890625 67.625 15.140625 71.796875 
Q 19.390625 75.984375 28.609375 75.984375 
z
" id="DejaVuSans-102"/>
      <path d="M 5.515625 54.6875 
L 48.1875 54.6875 
L 48.1875 46.484375 
L 14.40625 7.171875 
L 48.1875 7.171875 
L 48.1875 0 
L 4.296875 0 
L 4.296875 8.203125 
L 38.09375 47.515625 
L 5.515625 47.515625 
z
" id="DejaVuSans-122"/>
      <path d="M 11.71875 12.40625 
L 22.015625 12.40625 
L 22.015625 4 
L 14.015625 -11.625 
L 7.71875 -11.625 
L 11.71875 4 
z
" id="DejaVuSans-44"/>
      <path d="M 44.28125 53.078125 
L 44.28125 44.578125 
Q 40.484375 46.53125 36.375 47.5 
Q 32.28125 48.484375 27.875 48.484375 
Q 21.1875 48.484375 17.84375 46.4375 
Q 14.5 44.390625 14.5 40.28125 
Q 14.5 37.15625 16.890625 35.375 
Q 19.28125 33.59375 26.515625 31.984375 
L 29.59375 31.296875 
Q 39.15625 29.25 43.1875 25.515625 
Q 47.21875 21.78125 47.21875 15.09375 
Q 47.21875 7.46875 41.1875 3.015625 
Q 35.15625 -1.421875 24.609375 -1.421875 
Q 20.21875 -1.421875 15.453125 -0.5625 
Q 10.6875 0.296875 5.421875 2 
L 5.421875 11.28125 
Q 10.40625 8.6875 15.234375 7.390625 
Q 20.0625 6.109375 24.8125 6.109375 
Q 31.15625 6.109375 34.5625 8.28125 
Q 37.984375 10.453125 37.984375 14.40625 
Q 37.984375 18.0625 35.515625 20.015625 
Q 33.0625 21.96875 24.703125 23.78125 
L 21.578125 24.515625 
Q 13.234375 26.265625 9.515625 29.90625 
Q 5.8125 33.546875 5.8125 39.890625 
Q 5.8125 47.609375 11.28125 51.796875 
Q 16.75 56 26.8125 56 
Q 31.78125 56 36.171875 55.265625 
Q 40.578125 54.546875 44.28125 53.078125 
z
" id="DejaVuSans-115"/>
      <path d="M 25.390625 72.90625 
L 33.6875 72.90625 
L 8.296875 -9.28125 
L 0 -9.28125 
z
" id="DejaVuSans-47"/>
     </defs>
     <use xlink:href="#DejaVuSans-98"/>
     <use x="63.476562" xlink:href="#DejaVuSans-108"/>
     <use x="91.259766" xlink:href="#DejaVuSans-111"/>
     <use x="152.441406" xlink:href="#DejaVuSans-97"/>
     <use x="213.720703" xlink:href="#DejaVuSans-116"/>
     <use x="252.929688" xlink:href="#DejaVuSans-121"/>
     <use x="312.109375" xlink:href="#DejaVuSans-95"/>
     <use x="362.109375" xlink:href="#DejaVuSans-102"/>
     <use x="397.314453" xlink:href="#DejaVuSans-117"/>
     <use x="460.693359" xlink:href="#DejaVuSans-122"/>
     <use x="513.183594" xlink:href="#DejaVuSans-122"/>
     <use x="565.673828" xlink:href="#DejaVuSans-95"/>
     <use x="615.673828" xlink:href="#DejaVuSans-116"/>
     <use x="654.882812" xlink:href="#DejaVuSans-97"/>
     <use x="716.162109" xlink:href="#DejaVuSans-114"/>
     <use x="755.525391" xlink:href="#DejaVuSans-103"/>
     <use x="819.001953" xlink:href="#DejaVuSans-101"/>
     <use x="880.525391" xlink:href="#DejaVuSans-116"/>
     <use x="919.734375" xlink:href="#DejaVuSans-32"/>
     <use x="951.521484" xlink:href="#DejaVuSans-40"/>
     <use x="990.535156" xlink:href="#DejaVuSans-50"/>
     <use x="1054.158203" xlink:href="#DejaVuSans-52"/>
     <use x="1117.78125" xlink:href="#DejaVuSans-104"/>
     <use x="1181.160156" xlink:href="#DejaVuSans-44"/>
     <use x="1212.947266" xlink:href="#DejaVuSans-32"/>
     <use x="1244.734375" xlink:href="#DejaVuSans-53"/>
     <use x="1308.357422" xlink:href="#DejaVuSans-32"/>
     <use x="1340.144531" xlink:href="#DejaVuSans-116"/>
     <use x="1379.353516" xlink:href="#DejaVuSans-114"/>
     <use x="1420.466797" xlink:href="#DejaVuSans-105"/>
     <use x="1448.25" xlink:href="#DejaVuSans-97"/>
     <use x="1509.529297" xlink:href="#DejaVuSans-108"/>
     <use x="1537.3125" xlink:href="#DejaVuSans-115"/>
     <use x="1589.412109" xlink:href="#DejaVuSans-47"/>
     <use x="1623.103516" xlink:href="#DejaVuSans-102"/>
     <use x="1658.308594" xlink:href="#DejaVuSans-117"/>
     <use x="1721.6875" xlink:href="#DejaVuSans-122"/>
     <use x="1774.177734" xlink:href="#DejaVuSans-122"/>
     <use x="1826.667969" xlink:href="#DejaVuSans-101"/>
     <use x="1888.191406" xlink:href="#DejaVuSans-114"/>
     <use x="1929.304688" xlink:href="#DejaVuSans-41"/>
    </g>
   </g>
   <g id="legend_1">
    <g id="line2d_27">
     <path d="M 771.568125 30.416562 
L 791.568125 30.416562 
" style="fill:none;"/>
    </g>
    <g id="line2d_28"/>
    <g id="text_24">
     <!-- fuzzer -->
     <g transform="translate(799.568125 33.916562)scale(0.1 -0.1)">
      <use xlink:href="#DejaVuSans-102"/>
      <use x="35.205078" xlink:href="#DejaVuSans-117"/>
      <use x="98.583984" xlink:href="#DejaVuSans-122"/>
      <use x="151.074219" xlink:href="#DejaVuSans-122"/>
      <use x="203.564453" xlink:href="#DejaVuSans-101"/>
      <use x="265.087891" xlink:href="#DejaVuSans-114"/>
     </g>
    </g>
    <g id="line2d_29">
     <path d="M 771.568125 45.094688 
L 791.568125 45.094688 
" style="fill:none;stroke:#98df8a;stroke-linecap:square;stroke-width:1.5;"/>
    </g>
    <g id="line2d_30">
     <defs>
      <path d="M -0 3 
L 3 -3 
L -3 -3 
z
" id="m07a9390e16" style="stroke:#98df8a;stroke-linejoin:miter;"/>
     </defs>
     <g>
      <use style="fill:#98df8a;stroke:#98df8a;stroke-linejoin:miter;" x="781.568125" xlink:href="#m07a9390e16" y="45.094688"/>
     </g>
    </g>
    <g id="text_25">
     <!-- dark_instru_cond -->
     <g transform="translate(799.568125 48.594688)scale(0.1 -0.1)">
      <defs>
       <path d="M 9.078125 75.984375 
L 18.109375 75.984375 
L 18.109375 31.109375 
L 44.921875 54.6875 
L 56.390625 54.6875 
L 27.390625 29.109375 
L 57.625 0 
L 45.90625 0 
L 18.109375 26.703125 
L 18.109375 0 
L 9.078125 0 
z
" id="DejaVuSans-107"/>
      </defs>
      <use xlink:href="#DejaVuSans-100"/>
      <use x="63.476562" xlink:href="#DejaVuSans-97"/>
      <use x="124.755859" xlink:href="#DejaVuSans-114"/>
      <use x="165.869141" xlink:href="#DejaVuSans-107"/>
      <use x="223.779297" xlink:href="#DejaVuSans-95"/>
      <use x="273.779297" xlink:href="#DejaVuSans-105"/>
      <use x="301.5625" xlink:href="#DejaVuSans-110"/>
      <use x="364.941406" xlink:href="#DejaVuSans-115"/>
      <use x="417.041016" xlink:href="#DejaVuSans-116"/>
      <use x="456.25" xlink:href="#DejaVuSans-114"/>
      <use x="497.363281" xlink:href="#DejaVuSans-117"/>
      <use x="560.742188" xlink:href="#DejaVuSans-95"/>
      <use x="610.742188" xlink:href="#DejaVuSans-99"/>
      <use x="665.722656" xlink:href="#DejaVuSans-111"/>
      <use x="726.904297" xlink:href="#DejaVuSans-110"/>
      <use x="790.283203" xlink:href="#DejaVuSans-100"/>
     </g>
    </g>
    <g id="line2d_31">
     <path d="M 771.568125 60.050937 
L 791.568125 60.050937 
" style="fill:none;stroke:#1f77b4;stroke-linecap:square;stroke-width:1.5;"/>
    </g>
    <g id="line2d_32">
     <defs>
      <path d="M 0 3 
C 0.795609 3 1.55874 2.683901 2.12132 2.12132 
C 2.683901 1.55874 3 0.795609 3 0 
C 3 -0.795609 2.683901 -1.55874 2.12132 -2.12132 
C 1.55874 -2.683901 0.795609 -3 0 -3 
C -0.795609 -3 -1.55874 -2.683901 -2.12132 -2.12132 
C -2.683901 -1.55874 -3 -0.795609 -3 0 
C -3 0.795609 -2.683901 1.55874 -2.12132 2.12132 
C -1.55874 2.683901 -0.795609 3 0 3 
z
" id="m3fc177d00f" style="stroke:#1f77b4;"/>
     </defs>
     <g>
      <use style="fill:#1f77b4;stroke:#1f77b4;" x="781.568125" xlink:href="#m3fc177d00f" y="60.050937"/>
     </g>
    </g>
    <g id="text_26">
     <!-- afldark_dev -->
     <g transform="translate(799.568125 63.550937)scale(0.1 -0.1)">
      <use xlink:href="#DejaVuSans-97"/>
      <use x="61.279297" xlink:href="#DejaVuSans-102"/>
      <use x="96.484375" xlink:href="#DejaVuSans-108"/>
      <use x="124.267578" xlink:href="#DejaVuSans-100"/>
      <use x="187.744141" xlink:href="#DejaVuSans-97"/>
      <use x="249.023438" xlink:href="#DejaVuSans-114"/>
      <use x="290.136719" xlink:href="#DejaVuSans-107"/>
      <use x="348.046875" xlink:href="#DejaVuSans-95"/>
      <use x="398.046875" xlink:href="#DejaVuSans-100"/>
      <use x="461.523438" xlink:href="#DejaVuSans-101"/>
      <use x="523.046875" xlink:href="#DejaVuSans-118"/>
     </g>
    </g>
   </g>
  </g>
 </g>
 <defs>
  <clipPath id="p62721be7bc">
   <rect height="266.112" width="714.24" x="53.328125" y="22.318125"/>
  </clipPath>
 </defs>
</svg>
