<?xml version="1.0" encoding="utf-8" standalone="no"?>
<!DOCTYPE svg PUBLIC "-//W3C//DTD SVG 1.1//EN"
  "http://www.w3.org/Graphics/SVG/1.1/DTD/svg11.dtd">
<!-- Created with matplotlib (https://matplotlib.org/) -->
<svg height="325.986375pt" version="1.1" viewBox="0 0 896.143125 325.986375" width="896.143125pt" xmlns="http://www.w3.org/2000/svg" xmlns:xlink="http://www.w3.org/1999/xlink">
 <metadata>
  <rdf:RDF xmlns:cc="http://creativecommons.org/ns#" xmlns:dc="http://purl.org/dc/elements/1.1/" xmlns:rdf="http://www.w3.org/1999/02/22-rdf-syntax-ns#">
   <cc:Work>
    <dc:type rdf:resource="http://purl.org/dc/dcmitype/StillImage"/>
    <dc:date>2020-12-29T17:05:48.729288</dc:date>
    <dc:format>image/svg+xml</dc:format>
    <dc:creator>
     <cc:Agent>
      <dc:title>Matplotlib v3.3.2, https://matplotlib.org/</dc:title>
     </cc:Agent>
    </dc:creator>
   </cc:Work>
  </rdf:RDF>
 </metadata>
 <defs>
  <style type="text/css">*{stroke-linecap:butt;stroke-linejoin:round;}</style>
 </defs>
 <g id="figure_1">
  <g id="patch_1">
   <path d="M 0 325.986375 
L 896.143125 325.986375 
L 896.143125 0 
L 0 0 
z
" style="fill:#ffffff;"/>
  </g>
  <g id="axes_1">
   <g id="patch_2">
    <path d="M 53.328125 288.430125 
L 767.568125 288.430125 
L 767.568125 22.318125 
L 53.328125 22.318125 
z
" style="fill:#ffffff;"/>
   </g>
   <g id="PolyCollection_1">
    <defs>
     <path d="M 85.79358 -87.169081 
L 85.79358 -49.65225 
L 186.061618 -85.868014 
L 244.714661 -103.893223 
L 286.329657 -126.390854 
L 318.608756 -137.775197 
L 344.9827 -148.021105 
L 367.281552 -151.138247 
L 386.597696 -160.299933 
L 403.635743 -164.148925 
L 418.876795 -176.642564 
L 432.664003 -179.571999 
L 445.250739 -181.225439 
L 456.829413 -185.996021 
L 467.549591 -191.390031 
L 477.529837 -193.164091 
L 486.865735 -196.025085 
L 495.635462 -197.89537 
L 503.903781 -198.003793 
L 511.72494 -199.621318 
L 519.144833 -200.172239 
L 526.202633 -201.797218 
L 532.932042 -204.725976 
L 539.362265 -206.704683 
L 545.518777 -210.445253 
L 551.423932 -210.309725 
L 557.097452 -210.363936 
L 562.556824 -212.396855 
L 567.817629 -213.155811 
L 572.893806 -214.456879 
L 577.797876 -214.971885 
L 582.541127 -216.869275 
L 587.133774 -218.441399 
L 591.585085 -219.308777 
L 595.903501 -219.9051 
L 600.096728 -220.772479 
L 604.17182 -221.179062 
L 608.135252 -221.666963 
L 611.992979 -222.23618 
L 615.750494 -223.157769 
L 619.412872 -223.835409 
L 622.984812 -225.597272 
L 626.470672 -226.112278 
L 629.874505 -227.304923 
L 633.200081 -227.223606 
L 636.450919 -228.931258 
L 639.630304 -228.958363 
L 642.74131 -229.690214 
L 645.786816 -230.422065 
L 648.769524 -231.777344 
L 651.691971 -231.777344 
L 654.556544 -233.918684 
L 657.36549 -234.596324 
L 660.12093 -234.997486 
L 662.824863 -235.460992 
L 665.47918 -236.439503 
L 668.085668 -237.442409 
L 670.646022 -237.68636 
L 673.161845 -238.065838 
L 675.634661 -238.472421 
L 678.065915 -238.797688 
L 680.456981 -241.643774 
L 682.809166 -241.697985 
L 685.123715 -241.969041 
L 687.401812 -242.75307 
L 689.644589 -243.134581 
L 691.853124 -243.775628 
L 694.028446 -243.947071 
L 696.17154 -244.354332 
L 698.283347 -246.980863 
L 700.364767 -247.390157 
L 702.416662 -247.471474 
L 704.439859 -247.742529 
L 706.435149 -247.742529 
L 708.403291 -248.420169 
L 710.345014 -248.908069 
L 712.261018 -261.159791 
L 714.151976 -261.34953 
L 716.018533 -262.000064 
L 717.861312 -262.054275 
L 719.680911 -263.138498 
L 721.477906 -260.536362 
L 723.252851 -262.623492 
L 725.006281 -262.650598 
L 726.738711 -263.843243 
L 728.450639 -262.325331 
L 730.142543 -263.165604 
L 731.814888 -264.16851 
L 733.46812 -261.756113 
L 735.10267 -266.190586 
L 735.10267 -291.57225 
L 735.10267 -291.57225 
L 733.46812 -291.148725 
L 731.814888 -291.165666 
L 730.142543 -290.894611 
L 728.450639 -290.813294 
L 726.738711 -289.48512 
L 725.006281 -289.973021 
L 723.252851 -288.943009 
L 721.477906 -288.943009 
L 719.680911 -288.644848 
L 717.861312 -288.50932 
L 716.018533 -288.50932 
L 714.151976 -288.265369 
L 712.261018 -287.217739 
L 710.345014 -281.768162 
L 708.403291 -281.976875 
L 706.435149 -275.642979 
L 704.439859 -274.739686 
L 702.416662 -274.631263 
L 700.364767 -274.766791 
L 698.283347 -274.495735 
L 696.17154 -269.433769 
L 694.028446 -269.048192 
L 691.853124 -269.020409 
L 689.644589 -268.64093 
L 687.401812 -268.451191 
L 685.123715 -268.125924 
L 682.809166 -267.990397 
L 680.456981 -267.583813 
L 678.065915 -266.879745 
L 675.634661 -266.526695 
L 673.161845 -265.930373 
L 670.646022 -264.114299 
L 668.085668 -263.789032 
L 665.47918 -262.948759 
L 662.824863 -261.078474 
L 660.12093 -261.051368 
L 657.36549 -259.723195 
L 654.556544 -259.858723 
L 651.691971 -257.744488 
L 648.769524 -257.581854 
L 645.786816 -257.229482 
L 642.74131 -256.19947 
L 639.630304 -254.491818 
L 636.450919 -254.274974 
L 633.200081 -249.124914 
L 629.874505 -249.368864 
L 626.470672 -248.176219 
L 622.984812 -247.390157 
L 619.412872 -244.760916 
L 615.750494 -241.725091 
L 611.992979 -240.000498 
L 608.135252 -237.848993 
L 604.17182 -239.122955 
L 600.096728 -237.306882 
L 595.903501 -236.747829 
L 591.585085 -236.249764 
L 587.133774 -235.59923 
L 582.541127 -233.26815 
L 577.797876 -233.132622 
L 572.893806 -230.882859 
L 567.817629 -229.581792 
L 562.556824 -229.229419 
L 557.097452 -228.846553 
L 551.423932 -228.660202 
L 545.518777 -228.253618 
L 539.362265 -228.090985 
L 532.932042 -224.613339 
L 526.202633 -224.241993 
L 519.144833 -224.160676 
L 511.72494 -220.772479 
L 503.903781 -219.565603 
L 495.635462 -218.956405 
L 486.865735 -217.57402 
L 477.529837 -215.513996 
L 467.549591 -214.673723 
L 456.829413 -209.577875 
L 445.250739 -209.008657 
L 432.664003 -205.810199 
L 418.876795 -197.082203 
L 403.635743 -191.959248 
L 386.597696 -188.27289 
L 367.281552 -182.20124 
L 344.9827 -175.15379 
L 318.608756 -166.886588 
L 286.329657 -141.461555 
L 244.714661 -120.969738 
L 186.061618 -110.669618 
L 85.79358 -87.169081 
z
" id="mac8423ffb1" style="stroke:#98df8a;stroke-opacity:0.2;"/>
    </defs>
    <g clip-path="url(#p2366b39d18)">
     <use style="fill:#98df8a;fill-opacity:0.2;stroke:#98df8a;stroke-opacity:0.2;" x="0" xlink:href="#mac8423ffb1" y="325.986375"/>
    </g>
   </g>
   <g id="PolyCollection_2">
    <defs>
     <path d="M 85.79358 -85.355718 
L 85.79358 -74.321037 
L 186.061618 -90.448856 
L 244.714661 -106.766415 
L 286.329657 -121.159477 
L 318.608756 -140.75681 
L 344.9827 -145.527392 
L 367.281552 -152.303787 
L 386.597696 -155.068556 
L 403.635743 -158.375437 
L 418.876795 -160.598094 
L 432.664003 -161.595579 
L 445.250739 -163.146018 
L 456.829413 -165.910787 
L 467.549591 -167.97691 
L 477.529837 -168.415343 
L 486.865735 -170.356102 
L 495.635462 -172.090859 
L 503.903781 -174.449045 
L 511.72494 -174.882734 
L 519.144833 -178.054087 
L 526.202633 -178.054087 
L 532.932042 -179.084099 
L 539.362265 -182.146351 
L 545.518777 -182.634929 
L 551.423932 -183.935997 
L 557.097452 -182.933091 
L 562.556824 -184.586531 
L 567.817629 -185.562332 
L 572.893806 -186.754977 
L 577.797876 -191.661087 
L 582.541127 -192.718205 
L 587.133774 -193.473773 
L 591.585085 -196.72983 
L 595.903501 -202.846204 
L 600.096728 -218.414293 
L 604.17182 -224.675682 
L 608.135252 -225.461744 
L 611.992979 -227.521768 
L 615.750494 -229.011219 
L 619.412872 -231.460208 
L 622.984812 -232.888672 
L 626.470672 -233.322361 
L 629.874505 -233.810262 
L 633.200081 -233.837367 
L 636.450919 -235.273963 
L 639.630304 -236.358186 
L 642.74131 -236.52082 
L 645.786816 -237.245216 
L 648.769524 -237.740571 
L 651.691971 -237.632148 
L 654.556544 -239.285589 
L 657.36549 -239.030119 
L 660.12093 -239.475328 
L 662.824863 -239.556645 
L 665.47918 -239.556645 
L 668.085668 -239.854806 
L 670.646022 -239.8277 
L 673.161845 -240.830607 
L 675.634661 -240.939029 
L 678.065915 -241.508246 
L 680.456981 -241.853165 
L 682.809166 -241.508246 
L 685.123715 -242.673786 
L 687.401812 -245.815323 
L 689.644589 -246.685412 
L 691.853124 -246.956468 
L 694.028446 -248.311746 
L 696.17154 -248.664119 
L 698.283347 -248.447274 
L 700.364767 -249.070703 
L 702.416662 -249.065959 
L 704.439859 -249.206231 
L 706.435149 -249.285514 
L 708.403291 -249.60536 
L 710.345014 -249.775448 
L 712.261018 -250.119689 
L 714.151976 -250.913882 
L 716.018533 -252.919695 
L 717.861312 -254.125893 
L 719.680911 -253.082328 
L 721.477906 -253.814179 
L 723.252851 -253.082328 
L 725.006281 -254.54603 
L 726.738711 -255.092207 
L 728.450639 -254.383396 
L 730.142543 -255.711569 
L 731.814888 -256.795793 
L 733.46812 -257.446326 
L 735.10267 -257.78989 
L 735.10267 -282.708726 
L 735.10267 -282.708726 
L 733.46812 -282.491881 
L 731.814888 -282.735831 
L 730.142543 -282.356353 
L 728.450639 -281.326341 
L 726.738711 -280.160801 
L 725.006281 -280.160801 
L 723.252851 -279.889746 
L 721.477906 -279.266317 
L 719.680911 -279.266317 
L 717.861312 -279.246666 
L 716.018533 -278.669995 
L 714.151976 -272.218867 
L 712.261018 -271.053327 
L 710.345014 -270.700954 
L 708.403291 -270.413635 
L 706.435149 -270.348582 
L 704.439859 -269.616731 
L 702.416662 -270.158843 
L 700.364767 -270.131737 
L 698.283347 -268.695142 
L 696.17154 -268.81034 
L 694.028446 -268.803564 
L 691.853124 -268.424086 
L 689.644589 -267.720018 
L 687.401812 -267.529602 
L 685.123715 -265.686422 
L 682.809166 -266.933279 
L 680.456981 -266.038795 
L 678.065915 -266.879068 
L 675.634661 -264.039758 
L 673.161845 -264.735694 
L 670.646022 -261.392899 
L 668.085668 -261.945853 
L 665.47918 -262.650598 
L 662.824863 -261.620586 
L 660.12093 -261.268213 
L 657.36549 -261.078474 
L 654.556544 -259.831617 
L 651.691971 -259.750301 
L 648.769524 -260.265307 
L 645.786816 -260.048462 
L 642.74131 -259.153978 
L 639.630304 -258.855817 
L 636.450919 -259.912934 
L 633.200081 -258.123966 
L 629.874505 -257.229482 
L 626.470672 -256.118153 
L 622.984812 -255.657358 
L 619.412872 -242.15878 
L 615.750494 -241.291402 
L 611.992979 -238.580844 
L 608.135252 -237.415304 
L 604.17182 -235.11133 
L 600.096728 -233.593417 
L 595.903501 -232.346561 
L 591.585085 -225.965907 
L 587.133774 -226.058066 
L 582.541127 -226.003855 
L 577.797876 -225.839866 
L 572.893806 -225.082266 
L 567.817629 -223.618564 
L 562.556824 -221.523303 
L 557.097452 -221.639857 
L 551.423932 -219.708585 
L 545.518777 -219.850889 
L 539.362265 -219.362988 
L 532.932042 -218.00771 
L 526.202633 -215.188729 
L 519.144833 -213.182917 
L 511.72494 -202.991219 
L 503.903781 -204.45492 
L 495.635462 -200.958301 
L 486.865735 -198.12509 
L 477.529837 -197.732737 
L 467.549591 -194.805334 
L 456.829413 -192.284515 
L 445.250739 -190.147241 
L 432.664003 -188.706579 
L 418.876795 -187.703673 
L 403.635743 -184.234159 
L 386.597696 -183.692047 
L 367.281552 -180.602011 
L 344.9827 -176.021168 
L 318.608756 -170.979531 
L 286.329657 -152.265839 
L 244.714661 -139.10337 
L 186.061618 -117.856662 
L 85.79358 -85.355718 
z
" id="ma6c8e08a62" style="stroke:#1f77b4;stroke-opacity:0.2;"/>
    </defs>
    <g clip-path="url(#p2366b39d18)">
     <use style="fill:#1f77b4;fill-opacity:0.2;stroke:#1f77b4;stroke-opacity:0.2;" x="0" xlink:href="#ma6c8e08a62" y="325.986375"/>
    </g>
   </g>
   <g id="matplotlib.axis_1">
    <g id="xtick_1">
     <g id="line2d_1">
      <defs>
       <path d="M 0 0 
L 0 3.5 
" id="maaac62a980" style="stroke:#000000;stroke-width:0.8;"/>
      </defs>
      <g>
       <use style="stroke:#000000;stroke-width:0.8;" x="85.79358" xlink:href="#maaac62a980" y="288.430125"/>
      </g>
     </g>
     <g id="text_1">
      <!-- 14m -->
      <g transform="translate(74.560767 303.028562)scale(0.1 -0.1)">
       <defs>
        <path d="M 12.40625 8.296875 
L 28.515625 8.296875 
L 28.515625 63.921875 
L 10.984375 60.40625 
L 10.984375 69.390625 
L 28.421875 72.90625 
L 38.28125 72.90625 
L 38.28125 8.296875 
L 54.390625 8.296875 
L 54.390625 0 
L 12.40625 0 
z
" id="DejaVuSans-49"/>
        <path d="M 37.796875 64.3125 
L 12.890625 25.390625 
L 37.796875 25.390625 
z
M 35.203125 72.90625 
L 47.609375 72.90625 
L 47.609375 25.390625 
L 58.015625 25.390625 
L 58.015625 17.1875 
L 47.609375 17.1875 
L 47.609375 0 
L 37.796875 0 
L 37.796875 17.1875 
L 4.890625 17.1875 
L 4.890625 26.703125 
z
" id="DejaVuSans-52"/>
        <path d="M 52 44.1875 
Q 55.375 50.25 60.0625 53.125 
Q 64.75 56 71.09375 56 
Q 79.640625 56 84.28125 50.015625 
Q 88.921875 44.046875 88.921875 33.015625 
L 88.921875 0 
L 79.890625 0 
L 79.890625 32.71875 
Q 79.890625 40.578125 77.09375 44.375 
Q 74.3125 48.1875 68.609375 48.1875 
Q 61.625 48.1875 57.5625 43.546875 
Q 53.515625 38.921875 53.515625 30.90625 
L 53.515625 0 
L 44.484375 0 
L 44.484375 32.71875 
Q 44.484375 40.625 41.703125 44.40625 
Q 38.921875 48.1875 33.109375 48.1875 
Q 26.21875 48.1875 22.15625 43.53125 
Q 18.109375 38.875 18.109375 30.90625 
L 18.109375 0 
L 9.078125 0 
L 9.078125 54.6875 
L 18.109375 54.6875 
L 18.109375 46.1875 
Q 21.1875 51.21875 25.484375 53.609375 
Q 29.78125 56 35.6875 56 
Q 41.65625 56 45.828125 52.96875 
Q 50 49.953125 52 44.1875 
z
" id="DejaVuSans-109"/>
       </defs>
       <use xlink:href="#DejaVuSans-49"/>
       <use x="63.623047" xlink:href="#DejaVuSans-52"/>
       <use x="127.246094" xlink:href="#DejaVuSans-109"/>
      </g>
     </g>
    </g>
    <g id="xtick_2">
     <g id="line2d_2">
      <g>
       <use style="stroke:#000000;stroke-width:0.8;" x="144.821843" xlink:href="#maaac62a980" y="288.430125"/>
      </g>
     </g>
     <g id="text_2">
      <!-- 22m -->
      <g transform="translate(133.58903 303.028562)scale(0.1 -0.1)">
       <defs>
        <path d="M 19.1875 8.296875 
L 53.609375 8.296875 
L 53.609375 0 
L 7.328125 0 
L 7.328125 8.296875 
Q 12.9375 14.109375 22.625 23.890625 
Q 32.328125 33.6875 34.8125 36.53125 
Q 39.546875 41.84375 41.421875 45.53125 
Q 43.3125 49.21875 43.3125 52.78125 
Q 43.3125 58.59375 39.234375 62.25 
Q 35.15625 65.921875 28.609375 65.921875 
Q 23.96875 65.921875 18.8125 64.3125 
Q 13.671875 62.703125 7.8125 59.421875 
L 7.8125 69.390625 
Q 13.765625 71.78125 18.9375 73 
Q 24.125 74.21875 28.421875 74.21875 
Q 39.75 74.21875 46.484375 68.546875 
Q 53.21875 62.890625 53.21875 53.421875 
Q 53.21875 48.921875 51.53125 44.890625 
Q 49.859375 40.875 45.40625 35.40625 
Q 44.1875 33.984375 37.640625 27.21875 
Q 31.109375 20.453125 19.1875 8.296875 
z
" id="DejaVuSans-50"/>
       </defs>
       <use xlink:href="#DejaVuSans-50"/>
       <use x="63.623047" xlink:href="#DejaVuSans-50"/>
       <use x="127.246094" xlink:href="#DejaVuSans-109"/>
      </g>
     </g>
    </g>
    <g id="xtick_3">
     <g id="line2d_3">
      <g>
       <use style="stroke:#000000;stroke-width:0.8;" x="203.850106" xlink:href="#maaac62a980" y="288.430125"/>
      </g>
     </g>
     <g id="text_3">
      <!-- 33m -->
      <g transform="translate(192.617294 303.028562)scale(0.1 -0.1)">
       <defs>
        <path d="M 40.578125 39.3125 
Q 47.65625 37.796875 51.625 33 
Q 55.609375 28.21875 55.609375 21.1875 
Q 55.609375 10.40625 48.1875 4.484375 
Q 40.765625 -1.421875 27.09375 -1.421875 
Q 22.515625 -1.421875 17.65625 -0.515625 
Q 12.796875 0.390625 7.625 2.203125 
L 7.625 11.71875 
Q 11.71875 9.328125 16.59375 8.109375 
Q 21.484375 6.890625 26.8125 6.890625 
Q 36.078125 6.890625 40.9375 10.546875 
Q 45.796875 14.203125 45.796875 21.1875 
Q 45.796875 27.640625 41.28125 31.265625 
Q 36.765625 34.90625 28.71875 34.90625 
L 20.21875 34.90625 
L 20.21875 43.015625 
L 29.109375 43.015625 
Q 36.375 43.015625 40.234375 45.921875 
Q 44.09375 48.828125 44.09375 54.296875 
Q 44.09375 59.90625 40.109375 62.90625 
Q 36.140625 65.921875 28.71875 65.921875 
Q 24.65625 65.921875 20.015625 65.03125 
Q 15.375 64.15625 9.8125 62.3125 
L 9.8125 71.09375 
Q 15.4375 72.65625 20.34375 73.4375 
Q 25.25 74.21875 29.59375 74.21875 
Q 40.828125 74.21875 47.359375 69.109375 
Q 53.90625 64.015625 53.90625 55.328125 
Q 53.90625 49.265625 50.4375 45.09375 
Q 46.96875 40.921875 40.578125 39.3125 
z
" id="DejaVuSans-51"/>
       </defs>
       <use xlink:href="#DejaVuSans-51"/>
       <use x="63.623047" xlink:href="#DejaVuSans-51"/>
       <use x="127.246094" xlink:href="#DejaVuSans-109"/>
      </g>
     </g>
    </g>
    <g id="xtick_4">
     <g id="line2d_4">
      <g>
       <use style="stroke:#000000;stroke-width:0.8;" x="262.87837" xlink:href="#maaac62a980" y="288.430125"/>
      </g>
     </g>
     <g id="text_4">
      <!-- 51m -->
      <g transform="translate(251.645557 303.028562)scale(0.1 -0.1)">
       <defs>
        <path d="M 10.796875 72.90625 
L 49.515625 72.90625 
L 49.515625 64.59375 
L 19.828125 64.59375 
L 19.828125 46.734375 
Q 21.96875 47.46875 24.109375 47.828125 
Q 26.265625 48.1875 28.421875 48.1875 
Q 40.625 48.1875 47.75 41.5 
Q 54.890625 34.8125 54.890625 23.390625 
Q 54.890625 11.625 47.5625 5.09375 
Q 40.234375 -1.421875 26.90625 -1.421875 
Q 22.3125 -1.421875 17.546875 -0.640625 
Q 12.796875 0.140625 7.71875 1.703125 
L 7.71875 11.625 
Q 12.109375 9.234375 16.796875 8.0625 
Q 21.484375 6.890625 26.703125 6.890625 
Q 35.15625 6.890625 40.078125 11.328125 
Q 45.015625 15.765625 45.015625 23.390625 
Q 45.015625 31 40.078125 35.4375 
Q 35.15625 39.890625 26.703125 39.890625 
Q 22.75 39.890625 18.8125 39.015625 
Q 14.890625 38.140625 10.796875 36.28125 
z
" id="DejaVuSans-53"/>
       </defs>
       <use xlink:href="#DejaVuSans-53"/>
       <use x="63.623047" xlink:href="#DejaVuSans-49"/>
       <use x="127.246094" xlink:href="#DejaVuSans-109"/>
      </g>
     </g>
    </g>
    <g id="xtick_5">
     <g id="line2d_5">
      <g>
       <use style="stroke:#000000;stroke-width:0.8;" x="321.906633" xlink:href="#maaac62a980" y="288.430125"/>
      </g>
     </g>
     <g id="text_5">
      <!-- 1h:16m -->
      <g transform="translate(302.639445 303.028562)scale(0.1 -0.1)">
       <defs>
        <path d="M 54.890625 33.015625 
L 54.890625 0 
L 45.90625 0 
L 45.90625 32.71875 
Q 45.90625 40.484375 42.875 44.328125 
Q 39.84375 48.1875 33.796875 48.1875 
Q 26.515625 48.1875 22.3125 43.546875 
Q 18.109375 38.921875 18.109375 30.90625 
L 18.109375 0 
L 9.078125 0 
L 9.078125 75.984375 
L 18.109375 75.984375 
L 18.109375 46.1875 
Q 21.34375 51.125 25.703125 53.5625 
Q 30.078125 56 35.796875 56 
Q 45.21875 56 50.046875 50.171875 
Q 54.890625 44.34375 54.890625 33.015625 
z
" id="DejaVuSans-104"/>
        <path d="M 11.71875 12.40625 
L 22.015625 12.40625 
L 22.015625 0 
L 11.71875 0 
z
M 11.71875 51.703125 
L 22.015625 51.703125 
L 22.015625 39.3125 
L 11.71875 39.3125 
z
" id="DejaVuSans-58"/>
        <path d="M 33.015625 40.375 
Q 26.375 40.375 22.484375 35.828125 
Q 18.609375 31.296875 18.609375 23.390625 
Q 18.609375 15.53125 22.484375 10.953125 
Q 26.375 6.390625 33.015625 6.390625 
Q 39.65625 6.390625 43.53125 10.953125 
Q 47.40625 15.53125 47.40625 23.390625 
Q 47.40625 31.296875 43.53125 35.828125 
Q 39.65625 40.375 33.015625 40.375 
z
M 52.59375 71.296875 
L 52.59375 62.3125 
Q 48.875 64.0625 45.09375 64.984375 
Q 41.3125 65.921875 37.59375 65.921875 
Q 27.828125 65.921875 22.671875 59.328125 
Q 17.53125 52.734375 16.796875 39.40625 
Q 19.671875 43.65625 24.015625 45.921875 
Q 28.375 48.1875 33.59375 48.1875 
Q 44.578125 48.1875 50.953125 41.515625 
Q 57.328125 34.859375 57.328125 23.390625 
Q 57.328125 12.15625 50.6875 5.359375 
Q 44.046875 -1.421875 33.015625 -1.421875 
Q 20.359375 -1.421875 13.671875 8.265625 
Q 6.984375 17.96875 6.984375 36.375 
Q 6.984375 53.65625 15.1875 63.9375 
Q 23.390625 74.21875 37.203125 74.21875 
Q 40.921875 74.21875 44.703125 73.484375 
Q 48.484375 72.75 52.59375 71.296875 
z
" id="DejaVuSans-54"/>
       </defs>
       <use xlink:href="#DejaVuSans-49"/>
       <use x="63.623047" xlink:href="#DejaVuSans-104"/>
       <use x="127.001953" xlink:href="#DejaVuSans-58"/>
       <use x="160.693359" xlink:href="#DejaVuSans-49"/>
       <use x="224.316406" xlink:href="#DejaVuSans-54"/>
       <use x="287.939453" xlink:href="#DejaVuSans-109"/>
      </g>
     </g>
    </g>
    <g id="xtick_6">
     <g id="line2d_6">
      <g>
       <use style="stroke:#000000;stroke-width:0.8;" x="380.934896" xlink:href="#maaac62a980" y="288.430125"/>
      </g>
     </g>
     <g id="text_6">
      <!-- 1h:55m -->
      <g transform="translate(361.667709 303.028562)scale(0.1 -0.1)">
       <use xlink:href="#DejaVuSans-49"/>
       <use x="63.623047" xlink:href="#DejaVuSans-104"/>
       <use x="127.001953" xlink:href="#DejaVuSans-58"/>
       <use x="160.693359" xlink:href="#DejaVuSans-53"/>
       <use x="224.316406" xlink:href="#DejaVuSans-53"/>
       <use x="287.939453" xlink:href="#DejaVuSans-109"/>
      </g>
     </g>
    </g>
    <g id="xtick_7">
     <g id="line2d_7">
      <g>
       <use style="stroke:#000000;stroke-width:0.8;" x="439.96316" xlink:href="#maaac62a980" y="288.430125"/>
      </g>
     </g>
     <g id="text_7">
      <!-- 2h:53m -->
      <g transform="translate(420.695972 303.028562)scale(0.1 -0.1)">
       <use xlink:href="#DejaVuSans-50"/>
       <use x="63.623047" xlink:href="#DejaVuSans-104"/>
       <use x="127.001953" xlink:href="#DejaVuSans-58"/>
       <use x="160.693359" xlink:href="#DejaVuSans-53"/>
       <use x="224.316406" xlink:href="#DejaVuSans-51"/>
       <use x="287.939453" xlink:href="#DejaVuSans-109"/>
      </g>
     </g>
    </g>
    <g id="xtick_8">
     <g id="line2d_8">
      <g>
       <use style="stroke:#000000;stroke-width:0.8;" x="498.991423" xlink:href="#maaac62a980" y="288.430125"/>
      </g>
     </g>
     <g id="text_8">
      <!-- 4h:20m -->
      <g transform="translate(479.724235 303.028562)scale(0.1 -0.1)">
       <defs>
        <path d="M 31.78125 66.40625 
Q 24.171875 66.40625 20.328125 58.90625 
Q 16.5 51.421875 16.5 36.375 
Q 16.5 21.390625 20.328125 13.890625 
Q 24.171875 6.390625 31.78125 6.390625 
Q 39.453125 6.390625 43.28125 13.890625 
Q 47.125 21.390625 47.125 36.375 
Q 47.125 51.421875 43.28125 58.90625 
Q 39.453125 66.40625 31.78125 66.40625 
z
M 31.78125 74.21875 
Q 44.046875 74.21875 50.515625 64.515625 
Q 56.984375 54.828125 56.984375 36.375 
Q 56.984375 17.96875 50.515625 8.265625 
Q 44.046875 -1.421875 31.78125 -1.421875 
Q 19.53125 -1.421875 13.0625 8.265625 
Q 6.59375 17.96875 6.59375 36.375 
Q 6.59375 54.828125 13.0625 64.515625 
Q 19.53125 74.21875 31.78125 74.21875 
z
" id="DejaVuSans-48"/>
       </defs>
       <use xlink:href="#DejaVuSans-52"/>
       <use x="63.623047" xlink:href="#DejaVuSans-104"/>
       <use x="127.001953" xlink:href="#DejaVuSans-58"/>
       <use x="160.693359" xlink:href="#DejaVuSans-50"/>
       <use x="224.316406" xlink:href="#DejaVuSans-48"/>
       <use x="287.939453" xlink:href="#DejaVuSans-109"/>
      </g>
     </g>
    </g>
    <g id="xtick_9">
     <g id="line2d_9">
      <g>
       <use style="stroke:#000000;stroke-width:0.8;" x="558.019686" xlink:href="#maaac62a980" y="288.430125"/>
      </g>
     </g>
     <g id="text_9">
      <!-- 6h:32m -->
      <g transform="translate(538.752499 303.028562)scale(0.1 -0.1)">
       <use xlink:href="#DejaVuSans-54"/>
       <use x="63.623047" xlink:href="#DejaVuSans-104"/>
       <use x="127.001953" xlink:href="#DejaVuSans-58"/>
       <use x="160.693359" xlink:href="#DejaVuSans-51"/>
       <use x="224.316406" xlink:href="#DejaVuSans-50"/>
       <use x="287.939453" xlink:href="#DejaVuSans-109"/>
      </g>
     </g>
    </g>
    <g id="xtick_10">
     <g id="line2d_10">
      <g>
       <use style="stroke:#000000;stroke-width:0.8;" x="617.04795" xlink:href="#maaac62a980" y="288.430125"/>
      </g>
     </g>
     <g id="text_10">
      <!-- 9h:50m -->
      <g transform="translate(597.780762 303.028562)scale(0.1 -0.1)">
       <defs>
        <path d="M 10.984375 1.515625 
L 10.984375 10.5 
Q 14.703125 8.734375 18.5 7.8125 
Q 22.3125 6.890625 25.984375 6.890625 
Q 35.75 6.890625 40.890625 13.453125 
Q 46.046875 20.015625 46.78125 33.40625 
Q 43.953125 29.203125 39.59375 26.953125 
Q 35.25 24.703125 29.984375 24.703125 
Q 19.046875 24.703125 12.671875 31.3125 
Q 6.296875 37.9375 6.296875 49.421875 
Q 6.296875 60.640625 12.9375 67.421875 
Q 19.578125 74.21875 30.609375 74.21875 
Q 43.265625 74.21875 49.921875 64.515625 
Q 56.59375 54.828125 56.59375 36.375 
Q 56.59375 19.140625 48.40625 8.859375 
Q 40.234375 -1.421875 26.421875 -1.421875 
Q 22.703125 -1.421875 18.890625 -0.6875 
Q 15.09375 0.046875 10.984375 1.515625 
z
M 30.609375 32.421875 
Q 37.25 32.421875 41.125 36.953125 
Q 45.015625 41.5 45.015625 49.421875 
Q 45.015625 57.28125 41.125 61.84375 
Q 37.25 66.40625 30.609375 66.40625 
Q 23.96875 66.40625 20.09375 61.84375 
Q 16.21875 57.28125 16.21875 49.421875 
Q 16.21875 41.5 20.09375 36.953125 
Q 23.96875 32.421875 30.609375 32.421875 
z
" id="DejaVuSans-57"/>
       </defs>
       <use xlink:href="#DejaVuSans-57"/>
       <use x="63.623047" xlink:href="#DejaVuSans-104"/>
       <use x="127.001953" xlink:href="#DejaVuSans-58"/>
       <use x="160.693359" xlink:href="#DejaVuSans-53"/>
       <use x="224.316406" xlink:href="#DejaVuSans-48"/>
       <use x="287.939453" xlink:href="#DejaVuSans-109"/>
      </g>
     </g>
    </g>
    <g id="xtick_11">
     <g id="line2d_11">
      <g>
       <use style="stroke:#000000;stroke-width:0.8;" x="676.076213" xlink:href="#maaac62a980" y="288.430125"/>
      </g>
     </g>
     <g id="text_11">
      <!-- 14h:47m -->
      <g transform="translate(653.627776 303.028562)scale(0.1 -0.1)">
       <defs>
        <path d="M 8.203125 72.90625 
L 55.078125 72.90625 
L 55.078125 68.703125 
L 28.609375 0 
L 18.3125 0 
L 43.21875 64.59375 
L 8.203125 64.59375 
z
" id="DejaVuSans-55"/>
       </defs>
       <use xlink:href="#DejaVuSans-49"/>
       <use x="63.623047" xlink:href="#DejaVuSans-52"/>
       <use x="127.246094" xlink:href="#DejaVuSans-104"/>
       <use x="190.625" xlink:href="#DejaVuSans-58"/>
       <use x="224.316406" xlink:href="#DejaVuSans-52"/>
       <use x="287.939453" xlink:href="#DejaVuSans-55"/>
       <use x="351.5625" xlink:href="#DejaVuSans-109"/>
      </g>
     </g>
    </g>
    <g id="xtick_12">
     <g id="line2d_12">
      <g>
       <use style="stroke:#000000;stroke-width:0.8;" x="735.104476" xlink:href="#maaac62a980" y="288.430125"/>
      </g>
     </g>
     <g id="text_12">
      <!-- 22h:15m -->
      <g transform="translate(712.656039 303.028562)scale(0.1 -0.1)">
       <use xlink:href="#DejaVuSans-50"/>
       <use x="63.623047" xlink:href="#DejaVuSans-50"/>
       <use x="127.246094" xlink:href="#DejaVuSans-104"/>
       <use x="190.625" xlink:href="#DejaVuSans-58"/>
       <use x="224.316406" xlink:href="#DejaVuSans-49"/>
       <use x="287.939453" xlink:href="#DejaVuSans-53"/>
       <use x="351.5625" xlink:href="#DejaVuSans-109"/>
      </g>
     </g>
    </g>
    <g id="xtick_13">
     <g id="line2d_13">
      <defs>
       <path d="M 0 0 
L 0 2 
" id="m2251af3fa9" style="stroke:#000000;stroke-width:0.6;"/>
      </defs>
      <g>
       <use style="stroke:#000000;stroke-width:0.6;" x="68.755533" xlink:href="#m2251af3fa9" y="288.430125"/>
      </g>
     </g>
    </g>
    <g id="xtick_14">
     <g id="line2d_14">
      <g>
       <use style="stroke:#000000;stroke-width:0.6;" x="201.30267" xlink:href="#m2251af3fa9" y="288.430125"/>
      </g>
     </g>
    </g>
    <g id="xtick_15">
     <g id="line2d_15">
      <g>
       <use style="stroke:#000000;stroke-width:0.6;" x="259.955713" xlink:href="#m2251af3fa9" y="288.430125"/>
      </g>
     </g>
    </g>
    <g id="xtick_16">
     <g id="line2d_16">
      <g>
       <use style="stroke:#000000;stroke-width:0.6;" x="301.570709" xlink:href="#m2251af3fa9" y="288.430125"/>
      </g>
     </g>
    </g>
    <g id="xtick_17">
     <g id="line2d_17">
      <g>
       <use style="stroke:#000000;stroke-width:0.6;" x="333.849808" xlink:href="#m2251af3fa9" y="288.430125"/>
      </g>
     </g>
    </g>
    <g id="xtick_18">
     <g id="line2d_18">
      <g>
       <use style="stroke:#000000;stroke-width:0.6;" x="360.223752" xlink:href="#m2251af3fa9" y="288.430125"/>
      </g>
     </g>
    </g>
    <g id="xtick_19">
     <g id="line2d_19">
      <g>
       <use style="stroke:#000000;stroke-width:0.6;" x="382.522604" xlink:href="#m2251af3fa9" y="288.430125"/>
      </g>
     </g>
    </g>
    <g id="xtick_20">
     <g id="line2d_20">
      <g>
       <use style="stroke:#000000;stroke-width:0.6;" x="401.838748" xlink:href="#m2251af3fa9" y="288.430125"/>
      </g>
     </g>
    </g>
    <g id="xtick_21">
     <g id="line2d_21">
      <g>
       <use style="stroke:#000000;stroke-width:0.6;" x="418.876795" xlink:href="#m2251af3fa9" y="288.430125"/>
      </g>
     </g>
    </g>
    <g id="xtick_22">
     <g id="line2d_22">
      <g>
       <use style="stroke:#000000;stroke-width:0.6;" x="534.385886" xlink:href="#m2251af3fa9" y="288.430125"/>
      </g>
     </g>
    </g>
    <g id="xtick_23">
     <g id="line2d_23">
      <g>
       <use style="stroke:#000000;stroke-width:0.6;" x="593.038928" xlink:href="#m2251af3fa9" y="288.430125"/>
      </g>
     </g>
    </g>
    <g id="xtick_24">
     <g id="line2d_24">
      <g>
       <use style="stroke:#000000;stroke-width:0.6;" x="634.653924" xlink:href="#m2251af3fa9" y="288.430125"/>
      </g>
     </g>
    </g>
    <g id="xtick_25">
     <g id="line2d_25">
      <g>
       <use style="stroke:#000000;stroke-width:0.6;" x="666.933023" xlink:href="#m2251af3fa9" y="288.430125"/>
      </g>
     </g>
    </g>
    <g id="xtick_26">
     <g id="line2d_26">
      <g>
       <use style="stroke:#000000;stroke-width:0.6;" x="693.306967" xlink:href="#m2251af3fa9" y="288.430125"/>
      </g>
     </g>
    </g>
    <g id="xtick_27">
     <g id="line2d_27">
      <g>
       <use style="stroke:#000000;stroke-width:0.6;" x="715.605819" xlink:href="#m2251af3fa9" y="288.430125"/>
      </g>
     </g>
    </g>
    <g id="xtick_28">
     <g id="line2d_28">
      <g>
       <use style="stroke:#000000;stroke-width:0.6;" x="734.921963" xlink:href="#m2251af3fa9" y="288.430125"/>
      </g>
     </g>
    </g>
    <g id="xtick_29">
     <g id="line2d_29">
      <g>
       <use style="stroke:#000000;stroke-width:0.6;" x="751.96001" xlink:href="#m2251af3fa9" y="288.430125"/>
      </g>
     </g>
    </g>
    <g id="text_13">
     <!-- Time (hour:minute) -->
     <g transform="translate(362.041094 316.706687)scale(0.1 -0.1)">
      <defs>
       <path d="M -0.296875 72.90625 
L 61.375 72.90625 
L 61.375 64.59375 
L 35.5 64.59375 
L 35.5 0 
L 25.59375 0 
L 25.59375 64.59375 
L -0.296875 64.59375 
z
" id="DejaVuSans-84"/>
       <path d="M 9.421875 54.6875 
L 18.40625 54.6875 
L 18.40625 0 
L 9.421875 0 
z
M 9.421875 75.984375 
L 18.40625 75.984375 
L 18.40625 64.59375 
L 9.421875 64.59375 
z
" id="DejaVuSans-105"/>
       <path d="M 56.203125 29.59375 
L 56.203125 25.203125 
L 14.890625 25.203125 
Q 15.484375 15.921875 20.484375 11.0625 
Q 25.484375 6.203125 34.421875 6.203125 
Q 39.59375 6.203125 44.453125 7.46875 
Q 49.3125 8.734375 54.109375 11.28125 
L 54.109375 2.78125 
Q 49.265625 0.734375 44.1875 -0.34375 
Q 39.109375 -1.421875 33.890625 -1.421875 
Q 20.796875 -1.421875 13.15625 6.1875 
Q 5.515625 13.8125 5.515625 26.8125 
Q 5.515625 40.234375 12.765625 48.109375 
Q 20.015625 56 32.328125 56 
Q 43.359375 56 49.78125 48.890625 
Q 56.203125 41.796875 56.203125 29.59375 
z
M 47.21875 32.234375 
Q 47.125 39.59375 43.09375 43.984375 
Q 39.0625 48.390625 32.421875 48.390625 
Q 24.90625 48.390625 20.390625 44.140625 
Q 15.875 39.890625 15.1875 32.171875 
z
" id="DejaVuSans-101"/>
       <path id="DejaVuSans-32"/>
       <path d="M 31 75.875 
Q 24.46875 64.65625 21.28125 53.65625 
Q 18.109375 42.671875 18.109375 31.390625 
Q 18.109375 20.125 21.3125 9.0625 
Q 24.515625 -2 31 -13.1875 
L 23.1875 -13.1875 
Q 15.875 -1.703125 12.234375 9.375 
Q 8.59375 20.453125 8.59375 31.390625 
Q 8.59375 42.28125 12.203125 53.3125 
Q 15.828125 64.359375 23.1875 75.875 
z
" id="DejaVuSans-40"/>
       <path d="M 30.609375 48.390625 
Q 23.390625 48.390625 19.1875 42.75 
Q 14.984375 37.109375 14.984375 27.296875 
Q 14.984375 17.484375 19.15625 11.84375 
Q 23.34375 6.203125 30.609375 6.203125 
Q 37.796875 6.203125 41.984375 11.859375 
Q 46.1875 17.53125 46.1875 27.296875 
Q 46.1875 37.015625 41.984375 42.703125 
Q 37.796875 48.390625 30.609375 48.390625 
z
M 30.609375 56 
Q 42.328125 56 49.015625 48.375 
Q 55.71875 40.765625 55.71875 27.296875 
Q 55.71875 13.875 49.015625 6.21875 
Q 42.328125 -1.421875 30.609375 -1.421875 
Q 18.84375 -1.421875 12.171875 6.21875 
Q 5.515625 13.875 5.515625 27.296875 
Q 5.515625 40.765625 12.171875 48.375 
Q 18.84375 56 30.609375 56 
z
" id="DejaVuSans-111"/>
       <path d="M 8.5 21.578125 
L 8.5 54.6875 
L 17.484375 54.6875 
L 17.484375 21.921875 
Q 17.484375 14.15625 20.5 10.265625 
Q 23.53125 6.390625 29.59375 6.390625 
Q 36.859375 6.390625 41.078125 11.03125 
Q 45.3125 15.671875 45.3125 23.6875 
L 45.3125 54.6875 
L 54.296875 54.6875 
L 54.296875 0 
L 45.3125 0 
L 45.3125 8.40625 
Q 42.046875 3.421875 37.71875 1 
Q 33.40625 -1.421875 27.6875 -1.421875 
Q 18.265625 -1.421875 13.375 4.4375 
Q 8.5 10.296875 8.5 21.578125 
z
M 31.109375 56 
z
" id="DejaVuSans-117"/>
       <path d="M 41.109375 46.296875 
Q 39.59375 47.171875 37.8125 47.578125 
Q 36.03125 48 33.890625 48 
Q 26.265625 48 22.1875 43.046875 
Q 18.109375 38.09375 18.109375 28.8125 
L 18.109375 0 
L 9.078125 0 
L 9.078125 54.6875 
L 18.109375 54.6875 
L 18.109375 46.1875 
Q 20.953125 51.171875 25.484375 53.578125 
Q 30.03125 56 36.53125 56 
Q 37.453125 56 38.578125 55.875 
Q 39.703125 55.765625 41.0625 55.515625 
z
" id="DejaVuSans-114"/>
       <path d="M 54.890625 33.015625 
L 54.890625 0 
L 45.90625 0 
L 45.90625 32.71875 
Q 45.90625 40.484375 42.875 44.328125 
Q 39.84375 48.1875 33.796875 48.1875 
Q 26.515625 48.1875 22.3125 43.546875 
Q 18.109375 38.921875 18.109375 30.90625 
L 18.109375 0 
L 9.078125 0 
L 9.078125 54.6875 
L 18.109375 54.6875 
L 18.109375 46.1875 
Q 21.34375 51.125 25.703125 53.5625 
Q 30.078125 56 35.796875 56 
Q 45.21875 56 50.046875 50.171875 
Q 54.890625 44.34375 54.890625 33.015625 
z
" id="DejaVuSans-110"/>
       <path d="M 18.3125 70.21875 
L 18.3125 54.6875 
L 36.8125 54.6875 
L 36.8125 47.703125 
L 18.3125 47.703125 
L 18.3125 18.015625 
Q 18.3125 11.328125 20.140625 9.421875 
Q 21.96875 7.515625 27.59375 7.515625 
L 36.8125 7.515625 
L 36.8125 0 
L 27.59375 0 
Q 17.1875 0 13.234375 3.875 
Q 9.28125 7.765625 9.28125 18.015625 
L 9.28125 47.703125 
L 2.6875 47.703125 
L 2.6875 54.6875 
L 9.28125 54.6875 
L 9.28125 70.21875 
z
" id="DejaVuSans-116"/>
       <path d="M 8.015625 75.875 
L 15.828125 75.875 
Q 23.140625 64.359375 26.78125 53.3125 
Q 30.421875 42.28125 30.421875 31.390625 
Q 30.421875 20.453125 26.78125 9.375 
Q 23.140625 -1.703125 15.828125 -13.1875 
L 8.015625 -13.1875 
Q 14.5 -2 17.703125 9.0625 
Q 20.90625 20.125 20.90625 31.390625 
Q 20.90625 42.671875 17.703125 53.65625 
Q 14.5 64.65625 8.015625 75.875 
z
" id="DejaVuSans-41"/>
      </defs>
      <use xlink:href="#DejaVuSans-84"/>
      <use x="57.958984" xlink:href="#DejaVuSans-105"/>
      <use x="85.742188" xlink:href="#DejaVuSans-109"/>
      <use x="183.154297" xlink:href="#DejaVuSans-101"/>
      <use x="244.677734" xlink:href="#DejaVuSans-32"/>
      <use x="276.464844" xlink:href="#DejaVuSans-40"/>
      <use x="315.478516" xlink:href="#DejaVuSans-104"/>
      <use x="378.857422" xlink:href="#DejaVuSans-111"/>
      <use x="440.039062" xlink:href="#DejaVuSans-117"/>
      <use x="503.417969" xlink:href="#DejaVuSans-114"/>
      <use x="542.78125" xlink:href="#DejaVuSans-58"/>
      <use x="576.472656" xlink:href="#DejaVuSans-109"/>
      <use x="673.884766" xlink:href="#DejaVuSans-105"/>
      <use x="701.667969" xlink:href="#DejaVuSans-110"/>
      <use x="765.046875" xlink:href="#DejaVuSans-117"/>
      <use x="828.425781" xlink:href="#DejaVuSans-116"/>
      <use x="867.634766" xlink:href="#DejaVuSans-101"/>
      <use x="929.158203" xlink:href="#DejaVuSans-41"/>
     </g>
    </g>
   </g>
   <g id="matplotlib.axis_2">
    <g id="ytick_1">
     <g id="line2d_30">
      <defs>
       <path d="M 0 0 
L -3.5 0 
" id="maa8d9eac00" style="stroke:#000000;stroke-width:0.8;"/>
      </defs>
      <g>
       <use style="stroke:#000000;stroke-width:0.8;" x="53.328125" xlink:href="#maa8d9eac00" y="259.336217"/>
      </g>
     </g>
     <g id="text_14">
      <!-- 5250 -->
      <g transform="translate(20.878125 263.135435)scale(0.1 -0.1)">
       <use xlink:href="#DejaVuSans-53"/>
       <use x="63.623047" xlink:href="#DejaVuSans-50"/>
       <use x="127.246094" xlink:href="#DejaVuSans-53"/>
       <use x="190.869141" xlink:href="#DejaVuSans-48"/>
      </g>
     </g>
    </g>
    <g id="ytick_2">
     <g id="line2d_31">
      <g>
       <use style="stroke:#000000;stroke-width:0.8;" x="53.328125" xlink:href="#maa8d9eac00" y="225.454243"/>
      </g>
     </g>
     <g id="text_15">
      <!-- 5500 -->
      <g transform="translate(20.878125 229.253462)scale(0.1 -0.1)">
       <use xlink:href="#DejaVuSans-53"/>
       <use x="63.623047" xlink:href="#DejaVuSans-53"/>
       <use x="127.246094" xlink:href="#DejaVuSans-48"/>
       <use x="190.869141" xlink:href="#DejaVuSans-48"/>
      </g>
     </g>
    </g>
    <g id="ytick_3">
     <g id="line2d_32">
      <g>
       <use style="stroke:#000000;stroke-width:0.8;" x="53.328125" xlink:href="#maa8d9eac00" y="191.57227"/>
      </g>
     </g>
     <g id="text_16">
      <!-- 5750 -->
      <g transform="translate(20.878125 195.371489)scale(0.1 -0.1)">
       <use xlink:href="#DejaVuSans-53"/>
       <use x="63.623047" xlink:href="#DejaVuSans-55"/>
       <use x="127.246094" xlink:href="#DejaVuSans-53"/>
       <use x="190.869141" xlink:href="#DejaVuSans-48"/>
      </g>
     </g>
    </g>
    <g id="ytick_4">
     <g id="line2d_33">
      <g>
       <use style="stroke:#000000;stroke-width:0.8;" x="53.328125" xlink:href="#maa8d9eac00" y="157.690297"/>
      </g>
     </g>
     <g id="text_17">
      <!-- 6000 -->
      <g transform="translate(20.878125 161.489515)scale(0.1 -0.1)">
       <use xlink:href="#DejaVuSans-54"/>
       <use x="63.623047" xlink:href="#DejaVuSans-48"/>
       <use x="127.246094" xlink:href="#DejaVuSans-48"/>
       <use x="190.869141" xlink:href="#DejaVuSans-48"/>
      </g>
     </g>
    </g>
    <g id="ytick_5">
     <g id="line2d_34">
      <g>
       <use style="stroke:#000000;stroke-width:0.8;" x="53.328125" xlink:href="#maa8d9eac00" y="123.808323"/>
      </g>
     </g>
     <g id="text_18">
      <!-- 6250 -->
      <g transform="translate(20.878125 127.607542)scale(0.1 -0.1)">
       <use xlink:href="#DejaVuSans-54"/>
       <use x="63.623047" xlink:href="#DejaVuSans-50"/>
       <use x="127.246094" xlink:href="#DejaVuSans-53"/>
       <use x="190.869141" xlink:href="#DejaVuSans-48"/>
      </g>
     </g>
    </g>
    <g id="ytick_6">
     <g id="line2d_35">
      <g>
       <use style="stroke:#000000;stroke-width:0.8;" x="53.328125" xlink:href="#maa8d9eac00" y="89.92635"/>
      </g>
     </g>
     <g id="text_19">
      <!-- 6500 -->
      <g transform="translate(20.878125 93.725569)scale(0.1 -0.1)">
       <use xlink:href="#DejaVuSans-54"/>
       <use x="63.623047" xlink:href="#DejaVuSans-53"/>
       <use x="127.246094" xlink:href="#DejaVuSans-48"/>
       <use x="190.869141" xlink:href="#DejaVuSans-48"/>
      </g>
     </g>
    </g>
    <g id="ytick_7">
     <g id="line2d_36">
      <g>
       <use style="stroke:#000000;stroke-width:0.8;" x="53.328125" xlink:href="#maa8d9eac00" y="56.044377"/>
      </g>
     </g>
     <g id="text_20">
      <!-- 6750 -->
      <g transform="translate(20.878125 59.843596)scale(0.1 -0.1)">
       <use xlink:href="#DejaVuSans-54"/>
       <use x="63.623047" xlink:href="#DejaVuSans-55"/>
       <use x="127.246094" xlink:href="#DejaVuSans-53"/>
       <use x="190.869141" xlink:href="#DejaVuSans-48"/>
      </g>
     </g>
    </g>
    <g id="text_21">
     <!-- Edge coverage -->
     <g transform="translate(14.798438 192.762406)rotate(-90)scale(0.1 -0.1)">
      <defs>
       <path d="M 9.8125 72.90625 
L 55.90625 72.90625 
L 55.90625 64.59375 
L 19.671875 64.59375 
L 19.671875 43.015625 
L 54.390625 43.015625 
L 54.390625 34.71875 
L 19.671875 34.71875 
L 19.671875 8.296875 
L 56.78125 8.296875 
L 56.78125 0 
L 9.8125 0 
z
" id="DejaVuSans-69"/>
       <path d="M 45.40625 46.390625 
L 45.40625 75.984375 
L 54.390625 75.984375 
L 54.390625 0 
L 45.40625 0 
L 45.40625 8.203125 
Q 42.578125 3.328125 38.25 0.953125 
Q 33.9375 -1.421875 27.875 -1.421875 
Q 17.96875 -1.421875 11.734375 6.484375 
Q 5.515625 14.40625 5.515625 27.296875 
Q 5.515625 40.1875 11.734375 48.09375 
Q 17.96875 56 27.875 56 
Q 33.9375 56 38.25 53.625 
Q 42.578125 51.265625 45.40625 46.390625 
z
M 14.796875 27.296875 
Q 14.796875 17.390625 18.875 11.75 
Q 22.953125 6.109375 30.078125 6.109375 
Q 37.203125 6.109375 41.296875 11.75 
Q 45.40625 17.390625 45.40625 27.296875 
Q 45.40625 37.203125 41.296875 42.84375 
Q 37.203125 48.484375 30.078125 48.484375 
Q 22.953125 48.484375 18.875 42.84375 
Q 14.796875 37.203125 14.796875 27.296875 
z
" id="DejaVuSans-100"/>
       <path d="M 45.40625 27.984375 
Q 45.40625 37.75 41.375 43.109375 
Q 37.359375 48.484375 30.078125 48.484375 
Q 22.859375 48.484375 18.828125 43.109375 
Q 14.796875 37.75 14.796875 27.984375 
Q 14.796875 18.265625 18.828125 12.890625 
Q 22.859375 7.515625 30.078125 7.515625 
Q 37.359375 7.515625 41.375 12.890625 
Q 45.40625 18.265625 45.40625 27.984375 
z
M 54.390625 6.78125 
Q 54.390625 -7.171875 48.1875 -13.984375 
Q 42 -20.796875 29.203125 -20.796875 
Q 24.46875 -20.796875 20.265625 -20.09375 
Q 16.0625 -19.390625 12.109375 -17.921875 
L 12.109375 -9.1875 
Q 16.0625 -11.328125 19.921875 -12.34375 
Q 23.78125 -13.375 27.78125 -13.375 
Q 36.625 -13.375 41.015625 -8.765625 
Q 45.40625 -4.15625 45.40625 5.171875 
L 45.40625 9.625 
Q 42.625 4.78125 38.28125 2.390625 
Q 33.9375 0 27.875 0 
Q 17.828125 0 11.671875 7.65625 
Q 5.515625 15.328125 5.515625 27.984375 
Q 5.515625 40.671875 11.671875 48.328125 
Q 17.828125 56 27.875 56 
Q 33.9375 56 38.28125 53.609375 
Q 42.625 51.21875 45.40625 46.390625 
L 45.40625 54.6875 
L 54.390625 54.6875 
z
" id="DejaVuSans-103"/>
       <path d="M 48.78125 52.59375 
L 48.78125 44.1875 
Q 44.96875 46.296875 41.140625 47.34375 
Q 37.3125 48.390625 33.40625 48.390625 
Q 24.65625 48.390625 19.8125 42.84375 
Q 14.984375 37.3125 14.984375 27.296875 
Q 14.984375 17.28125 19.8125 11.734375 
Q 24.65625 6.203125 33.40625 6.203125 
Q 37.3125 6.203125 41.140625 7.25 
Q 44.96875 8.296875 48.78125 10.40625 
L 48.78125 2.09375 
Q 45.015625 0.34375 40.984375 -0.53125 
Q 36.96875 -1.421875 32.421875 -1.421875 
Q 20.0625 -1.421875 12.78125 6.34375 
Q 5.515625 14.109375 5.515625 27.296875 
Q 5.515625 40.671875 12.859375 48.328125 
Q 20.21875 56 33.015625 56 
Q 37.15625 56 41.109375 55.140625 
Q 45.0625 54.296875 48.78125 52.59375 
z
" id="DejaVuSans-99"/>
       <path d="M 2.984375 54.6875 
L 12.5 54.6875 
L 29.59375 8.796875 
L 46.6875 54.6875 
L 56.203125 54.6875 
L 35.6875 0 
L 23.484375 0 
z
" id="DejaVuSans-118"/>
       <path d="M 34.28125 27.484375 
Q 23.390625 27.484375 19.1875 25 
Q 14.984375 22.515625 14.984375 16.5 
Q 14.984375 11.71875 18.140625 8.90625 
Q 21.296875 6.109375 26.703125 6.109375 
Q 34.1875 6.109375 38.703125 11.40625 
Q 43.21875 16.703125 43.21875 25.484375 
L 43.21875 27.484375 
z
M 52.203125 31.203125 
L 52.203125 0 
L 43.21875 0 
L 43.21875 8.296875 
Q 40.140625 3.328125 35.546875 0.953125 
Q 30.953125 -1.421875 24.3125 -1.421875 
Q 15.921875 -1.421875 10.953125 3.296875 
Q 6 8.015625 6 15.921875 
Q 6 25.140625 12.171875 29.828125 
Q 18.359375 34.515625 30.609375 34.515625 
L 43.21875 34.515625 
L 43.21875 35.40625 
Q 43.21875 41.609375 39.140625 45 
Q 35.0625 48.390625 27.6875 48.390625 
Q 23 48.390625 18.546875 47.265625 
Q 14.109375 46.140625 10.015625 43.890625 
L 10.015625 52.203125 
Q 14.9375 54.109375 19.578125 55.046875 
Q 24.21875 56 28.609375 56 
Q 40.484375 56 46.34375 49.84375 
Q 52.203125 43.703125 52.203125 31.203125 
z
" id="DejaVuSans-97"/>
      </defs>
      <use xlink:href="#DejaVuSans-69"/>
      <use x="63.183594" xlink:href="#DejaVuSans-100"/>
      <use x="126.660156" xlink:href="#DejaVuSans-103"/>
      <use x="190.136719" xlink:href="#DejaVuSans-101"/>
      <use x="251.660156" xlink:href="#DejaVuSans-32"/>
      <use x="283.447266" xlink:href="#DejaVuSans-99"/>
      <use x="338.427734" xlink:href="#DejaVuSans-111"/>
      <use x="399.609375" xlink:href="#DejaVuSans-118"/>
      <use x="458.789062" xlink:href="#DejaVuSans-101"/>
      <use x="520.3125" xlink:href="#DejaVuSans-114"/>
      <use x="561.425781" xlink:href="#DejaVuSans-97"/>
      <use x="622.705078" xlink:href="#DejaVuSans-103"/>
      <use x="686.181641" xlink:href="#DejaVuSans-101"/>
     </g>
    </g>
   </g>
   <g id="line2d_37">
    <path clip-path="url(#p2366b39d18)" d="M 85.79358 256.490131 
L 186.061618 227.812429 
L 244.714661 213.554894 
L 286.329657 191.870431 
L 318.608756 172.625471 
L 344.9827 162.189823 
L 367.281552 156.741601 
L 386.597696 150.480213 
L 403.635743 146.034898 
L 418.876795 138.879025 
L 432.664003 133.295276 
L 445.250739 131.61473 
L 456.829413 128.334955 
L 467.549591 123.727007 
L 477.529837 121.639877 
L 486.865735 119.552748 
L 495.635462 118.793791 
L 503.903781 117.817991 
L 511.72494 116.327184 
L 519.144833 114.402688 
L 526.202633 114.212949 
L 532.932042 112.234241 
L 539.362265 109.903162 
L 545.518777 107.436554 
L 551.423932 106.948653 
L 557.097452 106.731809 
L 562.556824 105.674691 
L 567.817629 104.888629 
L 572.893806 104.075462 
L 577.797876 102.530444 
L 582.541127 101.229376 
L 587.133774 99.73857 
L 591.585085 99.088036 
L 595.903501 98.329079 
L 600.096728 97.624334 
L 604.17182 97.217751 
L 608.135252 96.811167 
L 611.992979 94.940882 
L 615.750494 93.937976 
L 619.412872 92.338747 
L 622.984812 90.84794 
L 626.470672 90.1703 
L 629.874505 89.140288 
L 633.200081 89.086077 
L 636.450919 86.754997 
L 639.630304 86.42973 
L 642.74131 85.752091 
L 645.786816 84.993135 
L 648.769524 84.04444 
L 651.691971 83.881806 
L 654.556544 82.092838 
L 657.36549 81.686254 
L 660.12093 81.144143 
L 662.824863 80.710453 
L 665.47918 79.436491 
L 668.085668 78.514901 
L 670.646022 78.46069 
L 673.161845 77.539101 
L 675.634661 76.969883 
L 678.065915 76.590405 
L 680.456981 75.208021 
L 682.809166 75.018282 
L 685.123715 74.584593 
L 687.401812 74.23222 
L 689.644589 73.906953 
L 691.853124 73.039575 
L 694.028446 72.876941 
L 696.17154 72.470357 
L 698.283347 66.642658 
L 700.364767 66.344497 
L 702.416662 66.181863 
L 704.439859 65.992124 
L 706.435149 65.422907 
L 708.403291 60.896275 
L 710.345014 60.652325 
L 712.261018 50.650367 
L 714.151976 49.810094 
L 716.018533 49.40351 
L 717.861312 49.349299 
L 719.680911 49.132454 
L 721.477906 48.888504 
L 723.252851 48.752976 
L 725.006281 48.698765 
L 726.738711 48.319287 
L 728.450639 47.912703 
L 730.142543 47.831386 
L 731.814888 47.722964 
L 733.46812 47.370592 
L 735.10267 46.991113 
" style="fill:none;stroke:#98df8a;stroke-linecap:square;stroke-width:1.5;"/>
    <defs>
     <path d="M -0 3 
L 3 -3 
L -3 -3 
z
" id="m748f41eb69" style="stroke:#ffffff;stroke-linejoin:miter;stroke-width:0.75;"/>
    </defs>
    <g clip-path="url(#p2366b39d18)">
     <use style="fill:#98df8a;stroke:#ffffff;stroke-linejoin:miter;stroke-width:0.75;" x="85.79358" xlink:href="#m748f41eb69" y="256.490131"/>
     <use style="fill:#98df8a;stroke:#ffffff;stroke-linejoin:miter;stroke-width:0.75;" x="186.061618" xlink:href="#m748f41eb69" y="227.812429"/>
     <use style="fill:#98df8a;stroke:#ffffff;stroke-linejoin:miter;stroke-width:0.75;" x="244.714661" xlink:href="#m748f41eb69" y="213.554894"/>
     <use style="fill:#98df8a;stroke:#ffffff;stroke-linejoin:miter;stroke-width:0.75;" x="286.329657" xlink:href="#m748f41eb69" y="191.870431"/>
     <use style="fill:#98df8a;stroke:#ffffff;stroke-linejoin:miter;stroke-width:0.75;" x="318.608756" xlink:href="#m748f41eb69" y="172.625471"/>
     <use style="fill:#98df8a;stroke:#ffffff;stroke-linejoin:miter;stroke-width:0.75;" x="344.9827" xlink:href="#m748f41eb69" y="162.189823"/>
     <use style="fill:#98df8a;stroke:#ffffff;stroke-linejoin:miter;stroke-width:0.75;" x="367.281552" xlink:href="#m748f41eb69" y="156.741601"/>
     <use style="fill:#98df8a;stroke:#ffffff;stroke-linejoin:miter;stroke-width:0.75;" x="386.597696" xlink:href="#m748f41eb69" y="150.480213"/>
     <use style="fill:#98df8a;stroke:#ffffff;stroke-linejoin:miter;stroke-width:0.75;" x="403.635743" xlink:href="#m748f41eb69" y="146.034898"/>
     <use style="fill:#98df8a;stroke:#ffffff;stroke-linejoin:miter;stroke-width:0.75;" x="418.876795" xlink:href="#m748f41eb69" y="138.879025"/>
     <use style="fill:#98df8a;stroke:#ffffff;stroke-linejoin:miter;stroke-width:0.75;" x="432.664003" xlink:href="#m748f41eb69" y="133.295276"/>
     <use style="fill:#98df8a;stroke:#ffffff;stroke-linejoin:miter;stroke-width:0.75;" x="445.250739" xlink:href="#m748f41eb69" y="131.61473"/>
     <use style="fill:#98df8a;stroke:#ffffff;stroke-linejoin:miter;stroke-width:0.75;" x="456.829413" xlink:href="#m748f41eb69" y="128.334955"/>
     <use style="fill:#98df8a;stroke:#ffffff;stroke-linejoin:miter;stroke-width:0.75;" x="467.549591" xlink:href="#m748f41eb69" y="123.727007"/>
     <use style="fill:#98df8a;stroke:#ffffff;stroke-linejoin:miter;stroke-width:0.75;" x="477.529837" xlink:href="#m748f41eb69" y="121.639877"/>
     <use style="fill:#98df8a;stroke:#ffffff;stroke-linejoin:miter;stroke-width:0.75;" x="486.865735" xlink:href="#m748f41eb69" y="119.552748"/>
     <use style="fill:#98df8a;stroke:#ffffff;stroke-linejoin:miter;stroke-width:0.75;" x="495.635462" xlink:href="#m748f41eb69" y="118.793791"/>
     <use style="fill:#98df8a;stroke:#ffffff;stroke-linejoin:miter;stroke-width:0.75;" x="503.903781" xlink:href="#m748f41eb69" y="117.817991"/>
     <use style="fill:#98df8a;stroke:#ffffff;stroke-linejoin:miter;stroke-width:0.75;" x="511.72494" xlink:href="#m748f41eb69" y="116.327184"/>
     <use style="fill:#98df8a;stroke:#ffffff;stroke-linejoin:miter;stroke-width:0.75;" x="519.144833" xlink:href="#m748f41eb69" y="114.402688"/>
     <use style="fill:#98df8a;stroke:#ffffff;stroke-linejoin:miter;stroke-width:0.75;" x="526.202633" xlink:href="#m748f41eb69" y="114.212949"/>
     <use style="fill:#98df8a;stroke:#ffffff;stroke-linejoin:miter;stroke-width:0.75;" x="532.932042" xlink:href="#m748f41eb69" y="112.234241"/>
     <use style="fill:#98df8a;stroke:#ffffff;stroke-linejoin:miter;stroke-width:0.75;" x="539.362265" xlink:href="#m748f41eb69" y="109.903162"/>
     <use style="fill:#98df8a;stroke:#ffffff;stroke-linejoin:miter;stroke-width:0.75;" x="545.518777" xlink:href="#m748f41eb69" y="107.436554"/>
     <use style="fill:#98df8a;stroke:#ffffff;stroke-linejoin:miter;stroke-width:0.75;" x="551.423932" xlink:href="#m748f41eb69" y="106.948653"/>
     <use style="fill:#98df8a;stroke:#ffffff;stroke-linejoin:miter;stroke-width:0.75;" x="557.097452" xlink:href="#m748f41eb69" y="106.731809"/>
     <use style="fill:#98df8a;stroke:#ffffff;stroke-linejoin:miter;stroke-width:0.75;" x="562.556824" xlink:href="#m748f41eb69" y="105.674691"/>
     <use style="fill:#98df8a;stroke:#ffffff;stroke-linejoin:miter;stroke-width:0.75;" x="567.817629" xlink:href="#m748f41eb69" y="104.888629"/>
     <use style="fill:#98df8a;stroke:#ffffff;stroke-linejoin:miter;stroke-width:0.75;" x="572.893806" xlink:href="#m748f41eb69" y="104.075462"/>
     <use style="fill:#98df8a;stroke:#ffffff;stroke-linejoin:miter;stroke-width:0.75;" x="577.797876" xlink:href="#m748f41eb69" y="102.530444"/>
     <use style="fill:#98df8a;stroke:#ffffff;stroke-linejoin:miter;stroke-width:0.75;" x="582.541127" xlink:href="#m748f41eb69" y="101.229376"/>
     <use style="fill:#98df8a;stroke:#ffffff;stroke-linejoin:miter;stroke-width:0.75;" x="587.133774" xlink:href="#m748f41eb69" y="99.73857"/>
     <use style="fill:#98df8a;stroke:#ffffff;stroke-linejoin:miter;stroke-width:0.75;" x="591.585085" xlink:href="#m748f41eb69" y="99.088036"/>
     <use style="fill:#98df8a;stroke:#ffffff;stroke-linejoin:miter;stroke-width:0.75;" x="595.903501" xlink:href="#m748f41eb69" y="98.329079"/>
     <use style="fill:#98df8a;stroke:#ffffff;stroke-linejoin:miter;stroke-width:0.75;" x="600.096728" xlink:href="#m748f41eb69" y="97.624334"/>
     <use style="fill:#98df8a;stroke:#ffffff;stroke-linejoin:miter;stroke-width:0.75;" x="604.17182" xlink:href="#m748f41eb69" y="97.217751"/>
     <use style="fill:#98df8a;stroke:#ffffff;stroke-linejoin:miter;stroke-width:0.75;" x="608.135252" xlink:href="#m748f41eb69" y="96.811167"/>
     <use style="fill:#98df8a;stroke:#ffffff;stroke-linejoin:miter;stroke-width:0.75;" x="611.992979" xlink:href="#m748f41eb69" y="94.940882"/>
     <use style="fill:#98df8a;stroke:#ffffff;stroke-linejoin:miter;stroke-width:0.75;" x="615.750494" xlink:href="#m748f41eb69" y="93.937976"/>
     <use style="fill:#98df8a;stroke:#ffffff;stroke-linejoin:miter;stroke-width:0.75;" x="619.412872" xlink:href="#m748f41eb69" y="92.338747"/>
     <use style="fill:#98df8a;stroke:#ffffff;stroke-linejoin:miter;stroke-width:0.75;" x="622.984812" xlink:href="#m748f41eb69" y="90.84794"/>
     <use style="fill:#98df8a;stroke:#ffffff;stroke-linejoin:miter;stroke-width:0.75;" x="626.470672" xlink:href="#m748f41eb69" y="90.1703"/>
     <use style="fill:#98df8a;stroke:#ffffff;stroke-linejoin:miter;stroke-width:0.75;" x="629.874505" xlink:href="#m748f41eb69" y="89.140288"/>
     <use style="fill:#98df8a;stroke:#ffffff;stroke-linejoin:miter;stroke-width:0.75;" x="633.200081" xlink:href="#m748f41eb69" y="89.086077"/>
     <use style="fill:#98df8a;stroke:#ffffff;stroke-linejoin:miter;stroke-width:0.75;" x="636.450919" xlink:href="#m748f41eb69" y="86.754997"/>
     <use style="fill:#98df8a;stroke:#ffffff;stroke-linejoin:miter;stroke-width:0.75;" x="639.630304" xlink:href="#m748f41eb69" y="86.42973"/>
     <use style="fill:#98df8a;stroke:#ffffff;stroke-linejoin:miter;stroke-width:0.75;" x="642.74131" xlink:href="#m748f41eb69" y="85.752091"/>
     <use style="fill:#98df8a;stroke:#ffffff;stroke-linejoin:miter;stroke-width:0.75;" x="645.786816" xlink:href="#m748f41eb69" y="84.993135"/>
     <use style="fill:#98df8a;stroke:#ffffff;stroke-linejoin:miter;stroke-width:0.75;" x="648.769524" xlink:href="#m748f41eb69" y="84.04444"/>
     <use style="fill:#98df8a;stroke:#ffffff;stroke-linejoin:miter;stroke-width:0.75;" x="651.691971" xlink:href="#m748f41eb69" y="83.881806"/>
     <use style="fill:#98df8a;stroke:#ffffff;stroke-linejoin:miter;stroke-width:0.75;" x="654.556544" xlink:href="#m748f41eb69" y="82.092838"/>
     <use style="fill:#98df8a;stroke:#ffffff;stroke-linejoin:miter;stroke-width:0.75;" x="657.36549" xlink:href="#m748f41eb69" y="81.686254"/>
     <use style="fill:#98df8a;stroke:#ffffff;stroke-linejoin:miter;stroke-width:0.75;" x="660.12093" xlink:href="#m748f41eb69" y="81.144143"/>
     <use style="fill:#98df8a;stroke:#ffffff;stroke-linejoin:miter;stroke-width:0.75;" x="662.824863" xlink:href="#m748f41eb69" y="80.710453"/>
     <use style="fill:#98df8a;stroke:#ffffff;stroke-linejoin:miter;stroke-width:0.75;" x="665.47918" xlink:href="#m748f41eb69" y="79.436491"/>
     <use style="fill:#98df8a;stroke:#ffffff;stroke-linejoin:miter;stroke-width:0.75;" x="668.085668" xlink:href="#m748f41eb69" y="78.514901"/>
     <use style="fill:#98df8a;stroke:#ffffff;stroke-linejoin:miter;stroke-width:0.75;" x="670.646022" xlink:href="#m748f41eb69" y="78.46069"/>
     <use style="fill:#98df8a;stroke:#ffffff;stroke-linejoin:miter;stroke-width:0.75;" x="673.161845" xlink:href="#m748f41eb69" y="77.539101"/>
     <use style="fill:#98df8a;stroke:#ffffff;stroke-linejoin:miter;stroke-width:0.75;" x="675.634661" xlink:href="#m748f41eb69" y="76.969883"/>
     <use style="fill:#98df8a;stroke:#ffffff;stroke-linejoin:miter;stroke-width:0.75;" x="678.065915" xlink:href="#m748f41eb69" y="76.590405"/>
     <use style="fill:#98df8a;stroke:#ffffff;stroke-linejoin:miter;stroke-width:0.75;" x="680.456981" xlink:href="#m748f41eb69" y="75.208021"/>
     <use style="fill:#98df8a;stroke:#ffffff;stroke-linejoin:miter;stroke-width:0.75;" x="682.809166" xlink:href="#m748f41eb69" y="75.018282"/>
     <use style="fill:#98df8a;stroke:#ffffff;stroke-linejoin:miter;stroke-width:0.75;" x="685.123715" xlink:href="#m748f41eb69" y="74.584593"/>
     <use style="fill:#98df8a;stroke:#ffffff;stroke-linejoin:miter;stroke-width:0.75;" x="687.401812" xlink:href="#m748f41eb69" y="74.23222"/>
     <use style="fill:#98df8a;stroke:#ffffff;stroke-linejoin:miter;stroke-width:0.75;" x="689.644589" xlink:href="#m748f41eb69" y="73.906953"/>
     <use style="fill:#98df8a;stroke:#ffffff;stroke-linejoin:miter;stroke-width:0.75;" x="691.853124" xlink:href="#m748f41eb69" y="73.039575"/>
     <use style="fill:#98df8a;stroke:#ffffff;stroke-linejoin:miter;stroke-width:0.75;" x="694.028446" xlink:href="#m748f41eb69" y="72.876941"/>
     <use style="fill:#98df8a;stroke:#ffffff;stroke-linejoin:miter;stroke-width:0.75;" x="696.17154" xlink:href="#m748f41eb69" y="72.470357"/>
     <use style="fill:#98df8a;stroke:#ffffff;stroke-linejoin:miter;stroke-width:0.75;" x="698.283347" xlink:href="#m748f41eb69" y="66.642658"/>
     <use style="fill:#98df8a;stroke:#ffffff;stroke-linejoin:miter;stroke-width:0.75;" x="700.364767" xlink:href="#m748f41eb69" y="66.344497"/>
     <use style="fill:#98df8a;stroke:#ffffff;stroke-linejoin:miter;stroke-width:0.75;" x="702.416662" xlink:href="#m748f41eb69" y="66.181863"/>
     <use style="fill:#98df8a;stroke:#ffffff;stroke-linejoin:miter;stroke-width:0.75;" x="704.439859" xlink:href="#m748f41eb69" y="65.992124"/>
     <use style="fill:#98df8a;stroke:#ffffff;stroke-linejoin:miter;stroke-width:0.75;" x="706.435149" xlink:href="#m748f41eb69" y="65.422907"/>
     <use style="fill:#98df8a;stroke:#ffffff;stroke-linejoin:miter;stroke-width:0.75;" x="708.403291" xlink:href="#m748f41eb69" y="60.896275"/>
     <use style="fill:#98df8a;stroke:#ffffff;stroke-linejoin:miter;stroke-width:0.75;" x="710.345014" xlink:href="#m748f41eb69" y="60.652325"/>
     <use style="fill:#98df8a;stroke:#ffffff;stroke-linejoin:miter;stroke-width:0.75;" x="712.261018" xlink:href="#m748f41eb69" y="50.650367"/>
     <use style="fill:#98df8a;stroke:#ffffff;stroke-linejoin:miter;stroke-width:0.75;" x="714.151976" xlink:href="#m748f41eb69" y="49.810094"/>
     <use style="fill:#98df8a;stroke:#ffffff;stroke-linejoin:miter;stroke-width:0.75;" x="716.018533" xlink:href="#m748f41eb69" y="49.40351"/>
     <use style="fill:#98df8a;stroke:#ffffff;stroke-linejoin:miter;stroke-width:0.75;" x="717.861312" xlink:href="#m748f41eb69" y="49.349299"/>
     <use style="fill:#98df8a;stroke:#ffffff;stroke-linejoin:miter;stroke-width:0.75;" x="719.680911" xlink:href="#m748f41eb69" y="49.132454"/>
     <use style="fill:#98df8a;stroke:#ffffff;stroke-linejoin:miter;stroke-width:0.75;" x="721.477906" xlink:href="#m748f41eb69" y="48.888504"/>
     <use style="fill:#98df8a;stroke:#ffffff;stroke-linejoin:miter;stroke-width:0.75;" x="723.252851" xlink:href="#m748f41eb69" y="48.752976"/>
     <use style="fill:#98df8a;stroke:#ffffff;stroke-linejoin:miter;stroke-width:0.75;" x="725.006281" xlink:href="#m748f41eb69" y="48.698765"/>
     <use style="fill:#98df8a;stroke:#ffffff;stroke-linejoin:miter;stroke-width:0.75;" x="726.738711" xlink:href="#m748f41eb69" y="48.319287"/>
     <use style="fill:#98df8a;stroke:#ffffff;stroke-linejoin:miter;stroke-width:0.75;" x="728.450639" xlink:href="#m748f41eb69" y="47.912703"/>
     <use style="fill:#98df8a;stroke:#ffffff;stroke-linejoin:miter;stroke-width:0.75;" x="730.142543" xlink:href="#m748f41eb69" y="47.831386"/>
     <use style="fill:#98df8a;stroke:#ffffff;stroke-linejoin:miter;stroke-width:0.75;" x="731.814888" xlink:href="#m748f41eb69" y="47.722964"/>
     <use style="fill:#98df8a;stroke:#ffffff;stroke-linejoin:miter;stroke-width:0.75;" x="733.46812" xlink:href="#m748f41eb69" y="47.370592"/>
     <use style="fill:#98df8a;stroke:#ffffff;stroke-linejoin:miter;stroke-width:0.75;" x="735.10267" xlink:href="#m748f41eb69" y="46.991113"/>
    </g>
   </g>
   <g id="line2d_38">
    <path clip-path="url(#p2366b39d18)" d="M 85.79358 245.349738 
L 186.061618 224.044753 
L 244.714661 203.254774 
L 286.329657 190.16278 
L 318.608756 173.709694 
L 344.9827 167.610938 
L 367.281552 161.5935 
L 386.597696 158.666098 
L 403.635743 155.711589 
L 418.876795 153.326299 
L 432.664003 152.269181 
L 445.250739 150.236263 
L 456.829413 147.579916 
L 467.549591 145.736737 
L 477.529837 144.029085 
L 486.865735 142.592489 
L 495.635462 140.559571 
L 503.903781 138.716392 
L 511.72494 137.577957 
L 519.144833 131.045513 
L 526.202633 129.364967 
L 532.932042 127.440471 
L 539.362265 126.139403 
L 545.518777 125.624397 
L 551.423932 123.943851 
L 557.097452 123.157789 
L 562.556824 122.561467 
L 567.817629 121.395927 
L 572.893806 120.067754 
L 577.797876 117.248773 
L 582.541127 116.625345 
L 587.133774 115.026116 
L 591.585085 113.83347 
L 595.903501 106.514964 
L 600.096728 99.98252 
L 604.17182 95.049304 
L 608.135252 93.883765 
L 611.992979 92.25743 
L 615.750494 90.41425 
L 619.412872 89.872139 
L 622.984812 83.12285 
L 626.470672 82.743372 
L 629.874505 81.415198 
L 633.200081 81.03572 
L 636.450919 80.059919 
L 639.630304 79.788864 
L 642.74131 79.300963 
L 645.786816 79.029907 
L 648.769524 78.650429 
L 651.691971 78.379374 
L 654.556544 77.783051 
L 657.36549 77.078306 
L 660.12093 76.834356 
L 662.824863 76.427772 
L 665.47918 76.31935 
L 668.085668 76.048294 
L 670.646022 75.777238 
L 673.161845 74.882754 
L 675.634661 74.449065 
L 678.065915 73.961164 
L 680.456981 73.500369 
L 682.809166 73.147997 
L 685.123715 72.958258 
L 687.401812 71.060867 
L 689.644589 70.464545 
L 691.853124 70.085067 
L 694.028446 69.353216 
L 696.17154 69.163477 
L 698.283347 68.865315 
L 700.364767 68.512943 
L 702.416662 68.485837 
L 704.439859 68.052148 
L 706.435149 68.025043 
L 708.403291 67.970831 
L 710.345014 67.564248 
L 712.261018 67.510037 
L 714.151976 66.425813 
L 716.018533 60.19153 
L 717.861312 59.568102 
L 719.680911 59.513891 
L 721.477906 59.215729 
L 723.252851 59.134413 
L 725.006281 58.998885 
L 726.738711 58.673618 
L 728.450639 58.131506 
L 730.142543 57.209917 
L 731.814888 56.342538 
L 733.46812 56.017271 
L 735.10267 55.908849 
" style="fill:none;stroke:#1f77b4;stroke-linecap:square;stroke-width:1.5;"/>
    <defs>
     <path d="M 0 3 
C 0.795609 3 1.55874 2.683901 2.12132 2.12132 
C 2.683901 1.55874 3 0.795609 3 0 
C 3 -0.795609 2.683901 -1.55874 2.12132 -2.12132 
C 1.55874 -2.683901 0.795609 -3 0 -3 
C -0.795609 -3 -1.55874 -2.683901 -2.12132 -2.12132 
C -2.683901 -1.55874 -3 -0.795609 -3 0 
C -3 0.795609 -2.683901 1.55874 -2.12132 2.12132 
C -1.55874 2.683901 -0.795609 3 0 3 
z
" id="m3dc35b9f60" style="stroke:#ffffff;stroke-width:0.75;"/>
    </defs>
    <g clip-path="url(#p2366b39d18)">
     <use style="fill:#1f77b4;stroke:#ffffff;stroke-width:0.75;" x="85.79358" xlink:href="#m3dc35b9f60" y="245.349738"/>
     <use style="fill:#1f77b4;stroke:#ffffff;stroke-width:0.75;" x="186.061618" xlink:href="#m3dc35b9f60" y="224.044753"/>
     <use style="fill:#1f77b4;stroke:#ffffff;stroke-width:0.75;" x="244.714661" xlink:href="#m3dc35b9f60" y="203.254774"/>
     <use style="fill:#1f77b4;stroke:#ffffff;stroke-width:0.75;" x="286.329657" xlink:href="#m3dc35b9f60" y="190.16278"/>
     <use style="fill:#1f77b4;stroke:#ffffff;stroke-width:0.75;" x="318.608756" xlink:href="#m3dc35b9f60" y="173.709694"/>
     <use style="fill:#1f77b4;stroke:#ffffff;stroke-width:0.75;" x="344.9827" xlink:href="#m3dc35b9f60" y="167.610938"/>
     <use style="fill:#1f77b4;stroke:#ffffff;stroke-width:0.75;" x="367.281552" xlink:href="#m3dc35b9f60" y="161.5935"/>
     <use style="fill:#1f77b4;stroke:#ffffff;stroke-width:0.75;" x="386.597696" xlink:href="#m3dc35b9f60" y="158.666098"/>
     <use style="fill:#1f77b4;stroke:#ffffff;stroke-width:0.75;" x="403.635743" xlink:href="#m3dc35b9f60" y="155.711589"/>
     <use style="fill:#1f77b4;stroke:#ffffff;stroke-width:0.75;" x="418.876795" xlink:href="#m3dc35b9f60" y="153.326299"/>
     <use style="fill:#1f77b4;stroke:#ffffff;stroke-width:0.75;" x="432.664003" xlink:href="#m3dc35b9f60" y="152.269181"/>
     <use style="fill:#1f77b4;stroke:#ffffff;stroke-width:0.75;" x="445.250739" xlink:href="#m3dc35b9f60" y="150.236263"/>
     <use style="fill:#1f77b4;stroke:#ffffff;stroke-width:0.75;" x="456.829413" xlink:href="#m3dc35b9f60" y="147.579916"/>
     <use style="fill:#1f77b4;stroke:#ffffff;stroke-width:0.75;" x="467.549591" xlink:href="#m3dc35b9f60" y="145.736737"/>
     <use style="fill:#1f77b4;stroke:#ffffff;stroke-width:0.75;" x="477.529837" xlink:href="#m3dc35b9f60" y="144.029085"/>
     <use style="fill:#1f77b4;stroke:#ffffff;stroke-width:0.75;" x="486.865735" xlink:href="#m3dc35b9f60" y="142.592489"/>
     <use style="fill:#1f77b4;stroke:#ffffff;stroke-width:0.75;" x="495.635462" xlink:href="#m3dc35b9f60" y="140.559571"/>
     <use style="fill:#1f77b4;stroke:#ffffff;stroke-width:0.75;" x="503.903781" xlink:href="#m3dc35b9f60" y="138.716392"/>
     <use style="fill:#1f77b4;stroke:#ffffff;stroke-width:0.75;" x="511.72494" xlink:href="#m3dc35b9f60" y="137.577957"/>
     <use style="fill:#1f77b4;stroke:#ffffff;stroke-width:0.75;" x="519.144833" xlink:href="#m3dc35b9f60" y="131.045513"/>
     <use style="fill:#1f77b4;stroke:#ffffff;stroke-width:0.75;" x="526.202633" xlink:href="#m3dc35b9f60" y="129.364967"/>
     <use style="fill:#1f77b4;stroke:#ffffff;stroke-width:0.75;" x="532.932042" xlink:href="#m3dc35b9f60" y="127.440471"/>
     <use style="fill:#1f77b4;stroke:#ffffff;stroke-width:0.75;" x="539.362265" xlink:href="#m3dc35b9f60" y="126.139403"/>
     <use style="fill:#1f77b4;stroke:#ffffff;stroke-width:0.75;" x="545.518777" xlink:href="#m3dc35b9f60" y="125.624397"/>
     <use style="fill:#1f77b4;stroke:#ffffff;stroke-width:0.75;" x="551.423932" xlink:href="#m3dc35b9f60" y="123.943851"/>
     <use style="fill:#1f77b4;stroke:#ffffff;stroke-width:0.75;" x="557.097452" xlink:href="#m3dc35b9f60" y="123.157789"/>
     <use style="fill:#1f77b4;stroke:#ffffff;stroke-width:0.75;" x="562.556824" xlink:href="#m3dc35b9f60" y="122.561467"/>
     <use style="fill:#1f77b4;stroke:#ffffff;stroke-width:0.75;" x="567.817629" xlink:href="#m3dc35b9f60" y="121.395927"/>
     <use style="fill:#1f77b4;stroke:#ffffff;stroke-width:0.75;" x="572.893806" xlink:href="#m3dc35b9f60" y="120.067754"/>
     <use style="fill:#1f77b4;stroke:#ffffff;stroke-width:0.75;" x="577.797876" xlink:href="#m3dc35b9f60" y="117.248773"/>
     <use style="fill:#1f77b4;stroke:#ffffff;stroke-width:0.75;" x="582.541127" xlink:href="#m3dc35b9f60" y="116.625345"/>
     <use style="fill:#1f77b4;stroke:#ffffff;stroke-width:0.75;" x="587.133774" xlink:href="#m3dc35b9f60" y="115.026116"/>
     <use style="fill:#1f77b4;stroke:#ffffff;stroke-width:0.75;" x="591.585085" xlink:href="#m3dc35b9f60" y="113.83347"/>
     <use style="fill:#1f77b4;stroke:#ffffff;stroke-width:0.75;" x="595.903501" xlink:href="#m3dc35b9f60" y="106.514964"/>
     <use style="fill:#1f77b4;stroke:#ffffff;stroke-width:0.75;" x="600.096728" xlink:href="#m3dc35b9f60" y="99.98252"/>
     <use style="fill:#1f77b4;stroke:#ffffff;stroke-width:0.75;" x="604.17182" xlink:href="#m3dc35b9f60" y="95.049304"/>
     <use style="fill:#1f77b4;stroke:#ffffff;stroke-width:0.75;" x="608.135252" xlink:href="#m3dc35b9f60" y="93.883765"/>
     <use style="fill:#1f77b4;stroke:#ffffff;stroke-width:0.75;" x="611.992979" xlink:href="#m3dc35b9f60" y="92.25743"/>
     <use style="fill:#1f77b4;stroke:#ffffff;stroke-width:0.75;" x="615.750494" xlink:href="#m3dc35b9f60" y="90.41425"/>
     <use style="fill:#1f77b4;stroke:#ffffff;stroke-width:0.75;" x="619.412872" xlink:href="#m3dc35b9f60" y="89.872139"/>
     <use style="fill:#1f77b4;stroke:#ffffff;stroke-width:0.75;" x="622.984812" xlink:href="#m3dc35b9f60" y="83.12285"/>
     <use style="fill:#1f77b4;stroke:#ffffff;stroke-width:0.75;" x="626.470672" xlink:href="#m3dc35b9f60" y="82.743372"/>
     <use style="fill:#1f77b4;stroke:#ffffff;stroke-width:0.75;" x="629.874505" xlink:href="#m3dc35b9f60" y="81.415198"/>
     <use style="fill:#1f77b4;stroke:#ffffff;stroke-width:0.75;" x="633.200081" xlink:href="#m3dc35b9f60" y="81.03572"/>
     <use style="fill:#1f77b4;stroke:#ffffff;stroke-width:0.75;" x="636.450919" xlink:href="#m3dc35b9f60" y="80.059919"/>
     <use style="fill:#1f77b4;stroke:#ffffff;stroke-width:0.75;" x="639.630304" xlink:href="#m3dc35b9f60" y="79.788864"/>
     <use style="fill:#1f77b4;stroke:#ffffff;stroke-width:0.75;" x="642.74131" xlink:href="#m3dc35b9f60" y="79.300963"/>
     <use style="fill:#1f77b4;stroke:#ffffff;stroke-width:0.75;" x="645.786816" xlink:href="#m3dc35b9f60" y="79.029907"/>
     <use style="fill:#1f77b4;stroke:#ffffff;stroke-width:0.75;" x="648.769524" xlink:href="#m3dc35b9f60" y="78.650429"/>
     <use style="fill:#1f77b4;stroke:#ffffff;stroke-width:0.75;" x="651.691971" xlink:href="#m3dc35b9f60" y="78.379374"/>
     <use style="fill:#1f77b4;stroke:#ffffff;stroke-width:0.75;" x="654.556544" xlink:href="#m3dc35b9f60" y="77.783051"/>
     <use style="fill:#1f77b4;stroke:#ffffff;stroke-width:0.75;" x="657.36549" xlink:href="#m3dc35b9f60" y="77.078306"/>
     <use style="fill:#1f77b4;stroke:#ffffff;stroke-width:0.75;" x="660.12093" xlink:href="#m3dc35b9f60" y="76.834356"/>
     <use style="fill:#1f77b4;stroke:#ffffff;stroke-width:0.75;" x="662.824863" xlink:href="#m3dc35b9f60" y="76.427772"/>
     <use style="fill:#1f77b4;stroke:#ffffff;stroke-width:0.75;" x="665.47918" xlink:href="#m3dc35b9f60" y="76.31935"/>
     <use style="fill:#1f77b4;stroke:#ffffff;stroke-width:0.75;" x="668.085668" xlink:href="#m3dc35b9f60" y="76.048294"/>
     <use style="fill:#1f77b4;stroke:#ffffff;stroke-width:0.75;" x="670.646022" xlink:href="#m3dc35b9f60" y="75.777238"/>
     <use style="fill:#1f77b4;stroke:#ffffff;stroke-width:0.75;" x="673.161845" xlink:href="#m3dc35b9f60" y="74.882754"/>
     <use style="fill:#1f77b4;stroke:#ffffff;stroke-width:0.75;" x="675.634661" xlink:href="#m3dc35b9f60" y="74.449065"/>
     <use style="fill:#1f77b4;stroke:#ffffff;stroke-width:0.75;" x="678.065915" xlink:href="#m3dc35b9f60" y="73.961164"/>
     <use style="fill:#1f77b4;stroke:#ffffff;stroke-width:0.75;" x="680.456981" xlink:href="#m3dc35b9f60" y="73.500369"/>
     <use style="fill:#1f77b4;stroke:#ffffff;stroke-width:0.75;" x="682.809166" xlink:href="#m3dc35b9f60" y="73.147997"/>
     <use style="fill:#1f77b4;stroke:#ffffff;stroke-width:0.75;" x="685.123715" xlink:href="#m3dc35b9f60" y="72.958258"/>
     <use style="fill:#1f77b4;stroke:#ffffff;stroke-width:0.75;" x="687.401812" xlink:href="#m3dc35b9f60" y="71.060867"/>
     <use style="fill:#1f77b4;stroke:#ffffff;stroke-width:0.75;" x="689.644589" xlink:href="#m3dc35b9f60" y="70.464545"/>
     <use style="fill:#1f77b4;stroke:#ffffff;stroke-width:0.75;" x="691.853124" xlink:href="#m3dc35b9f60" y="70.085067"/>
     <use style="fill:#1f77b4;stroke:#ffffff;stroke-width:0.75;" x="694.028446" xlink:href="#m3dc35b9f60" y="69.353216"/>
     <use style="fill:#1f77b4;stroke:#ffffff;stroke-width:0.75;" x="696.17154" xlink:href="#m3dc35b9f60" y="69.163477"/>
     <use style="fill:#1f77b4;stroke:#ffffff;stroke-width:0.75;" x="698.283347" xlink:href="#m3dc35b9f60" y="68.865315"/>
     <use style="fill:#1f77b4;stroke:#ffffff;stroke-width:0.75;" x="700.364767" xlink:href="#m3dc35b9f60" y="68.512943"/>
     <use style="fill:#1f77b4;stroke:#ffffff;stroke-width:0.75;" x="702.416662" xlink:href="#m3dc35b9f60" y="68.485837"/>
     <use style="fill:#1f77b4;stroke:#ffffff;stroke-width:0.75;" x="704.439859" xlink:href="#m3dc35b9f60" y="68.052148"/>
     <use style="fill:#1f77b4;stroke:#ffffff;stroke-width:0.75;" x="706.435149" xlink:href="#m3dc35b9f60" y="68.025043"/>
     <use style="fill:#1f77b4;stroke:#ffffff;stroke-width:0.75;" x="708.403291" xlink:href="#m3dc35b9f60" y="67.970831"/>
     <use style="fill:#1f77b4;stroke:#ffffff;stroke-width:0.75;" x="710.345014" xlink:href="#m3dc35b9f60" y="67.564248"/>
     <use style="fill:#1f77b4;stroke:#ffffff;stroke-width:0.75;" x="712.261018" xlink:href="#m3dc35b9f60" y="67.510037"/>
     <use style="fill:#1f77b4;stroke:#ffffff;stroke-width:0.75;" x="714.151976" xlink:href="#m3dc35b9f60" y="66.425813"/>
     <use style="fill:#1f77b4;stroke:#ffffff;stroke-width:0.75;" x="716.018533" xlink:href="#m3dc35b9f60" y="60.19153"/>
     <use style="fill:#1f77b4;stroke:#ffffff;stroke-width:0.75;" x="717.861312" xlink:href="#m3dc35b9f60" y="59.568102"/>
     <use style="fill:#1f77b4;stroke:#ffffff;stroke-width:0.75;" x="719.680911" xlink:href="#m3dc35b9f60" y="59.513891"/>
     <use style="fill:#1f77b4;stroke:#ffffff;stroke-width:0.75;" x="721.477906" xlink:href="#m3dc35b9f60" y="59.215729"/>
     <use style="fill:#1f77b4;stroke:#ffffff;stroke-width:0.75;" x="723.252851" xlink:href="#m3dc35b9f60" y="59.134413"/>
     <use style="fill:#1f77b4;stroke:#ffffff;stroke-width:0.75;" x="725.006281" xlink:href="#m3dc35b9f60" y="58.998885"/>
     <use style="fill:#1f77b4;stroke:#ffffff;stroke-width:0.75;" x="726.738711" xlink:href="#m3dc35b9f60" y="58.673618"/>
     <use style="fill:#1f77b4;stroke:#ffffff;stroke-width:0.75;" x="728.450639" xlink:href="#m3dc35b9f60" y="58.131506"/>
     <use style="fill:#1f77b4;stroke:#ffffff;stroke-width:0.75;" x="730.142543" xlink:href="#m3dc35b9f60" y="57.209917"/>
     <use style="fill:#1f77b4;stroke:#ffffff;stroke-width:0.75;" x="731.814888" xlink:href="#m3dc35b9f60" y="56.342538"/>
     <use style="fill:#1f77b4;stroke:#ffffff;stroke-width:0.75;" x="733.46812" xlink:href="#m3dc35b9f60" y="56.017271"/>
     <use style="fill:#1f77b4;stroke:#ffffff;stroke-width:0.75;" x="735.10267" xlink:href="#m3dc35b9f60" y="55.908849"/>
    </g>
   </g>
   <g id="line2d_39"/>
   <g id="line2d_40"/>
   <g id="line2d_41"/>
   <g id="line2d_42">
    <path clip-path="url(#p2366b39d18)" d="M 735.10267 288.430125 
L 735.10267 22.318125 
" style="fill:none;stroke:#ff0000;stroke-linecap:square;stroke-width:1.5;"/>
   </g>
   <g id="patch_3">
    <path d="M 53.328125 259.336217 
L 53.328125 56.044377 
" style="fill:none;stroke:#000000;stroke-linecap:square;stroke-linejoin:miter;stroke-width:0.8;"/>
   </g>
   <g id="patch_4">
    <path d="M 85.79358 288.430125 
L 735.104476 288.430125 
" style="fill:none;stroke:#000000;stroke-linecap:square;stroke-linejoin:miter;stroke-width:0.8;"/>
   </g>
   <g id="text_22">
    <!-- bloaty_fuzz_target (22h:15m, 5 trials/fuzzer) -->
    <g transform="translate(276.851563 16.318125)scale(0.12 -0.12)">
     <defs>
      <path d="M 48.6875 27.296875 
Q 48.6875 37.203125 44.609375 42.84375 
Q 40.53125 48.484375 33.40625 48.484375 
Q 26.265625 48.484375 22.1875 42.84375 
Q 18.109375 37.203125 18.109375 27.296875 
Q 18.109375 17.390625 22.1875 11.75 
Q 26.265625 6.109375 33.40625 6.109375 
Q 40.53125 6.109375 44.609375 11.75 
Q 48.6875 17.390625 48.6875 27.296875 
z
M 18.109375 46.390625 
Q 20.953125 51.265625 25.265625 53.625 
Q 29.59375 56 35.59375 56 
Q 45.5625 56 51.78125 48.09375 
Q 58.015625 40.1875 58.015625 27.296875 
Q 58.015625 14.40625 51.78125 6.484375 
Q 45.5625 -1.421875 35.59375 -1.421875 
Q 29.59375 -1.421875 25.265625 0.953125 
Q 20.953125 3.328125 18.109375 8.203125 
L 18.109375 0 
L 9.078125 0 
L 9.078125 75.984375 
L 18.109375 75.984375 
z
" id="DejaVuSans-98"/>
      <path d="M 9.421875 75.984375 
L 18.40625 75.984375 
L 18.40625 0 
L 9.421875 0 
z
" id="DejaVuSans-108"/>
      <path d="M 32.171875 -5.078125 
Q 28.375 -14.84375 24.75 -17.8125 
Q 21.140625 -20.796875 15.09375 -20.796875 
L 7.90625 -20.796875 
L 7.90625 -13.28125 
L 13.1875 -13.28125 
Q 16.890625 -13.28125 18.9375 -11.515625 
Q 21 -9.765625 23.484375 -3.21875 
L 25.09375 0.875 
L 2.984375 54.6875 
L 12.5 54.6875 
L 29.59375 11.921875 
L 46.6875 54.6875 
L 56.203125 54.6875 
z
" id="DejaVuSans-121"/>
      <path d="M 50.984375 -16.609375 
L 50.984375 -23.578125 
L -0.984375 -23.578125 
L -0.984375 -16.609375 
z
" id="DejaVuSans-95"/>
      <path d="M 37.109375 75.984375 
L 37.109375 68.5 
L 28.515625 68.5 
Q 23.6875 68.5 21.796875 66.546875 
Q 19.921875 64.59375 19.921875 59.515625 
L 19.921875 54.6875 
L 34.71875 54.6875 
L 34.71875 47.703125 
L 19.921875 47.703125 
L 19.921875 0 
L 10.890625 0 
L 10.890625 47.703125 
L 2.296875 47.703125 
L 2.296875 54.6875 
L 10.890625 54.6875 
L 10.890625 58.5 
Q 10.890625 67.625 15.140625 71.796875 
Q 19.390625 75.984375 28.609375 75.984375 
z
" id="DejaVuSans-102"/>
      <path d="M 5.515625 54.6875 
L 48.1875 54.6875 
L 48.1875 46.484375 
L 14.40625 7.171875 
L 48.1875 7.171875 
L 48.1875 0 
L 4.296875 0 
L 4.296875 8.203125 
L 38.09375 47.515625 
L 5.515625 47.515625 
z
" id="DejaVuSans-122"/>
      <path d="M 11.71875 12.40625 
L 22.015625 12.40625 
L 22.015625 4 
L 14.015625 -11.625 
L 7.71875 -11.625 
L 11.71875 4 
z
" id="DejaVuSans-44"/>
      <path d="M 44.28125 53.078125 
L 44.28125 44.578125 
Q 40.484375 46.53125 36.375 47.5 
Q 32.28125 48.484375 27.875 48.484375 
Q 21.1875 48.484375 17.84375 46.4375 
Q 14.5 44.390625 14.5 40.28125 
Q 14.5 37.15625 16.890625 35.375 
Q 19.28125 33.59375 26.515625 31.984375 
L 29.59375 31.296875 
Q 39.15625 29.25 43.1875 25.515625 
Q 47.21875 21.78125 47.21875 15.09375 
Q 47.21875 7.46875 41.1875 3.015625 
Q 35.15625 -1.421875 24.609375 -1.421875 
Q 20.21875 -1.421875 15.453125 -0.5625 
Q 10.6875 0.296875 5.421875 2 
L 5.421875 11.28125 
Q 10.40625 8.6875 15.234375 7.390625 
Q 20.0625 6.109375 24.8125 6.109375 
Q 31.15625 6.109375 34.5625 8.28125 
Q 37.984375 10.453125 37.984375 14.40625 
Q 37.984375 18.0625 35.515625 20.015625 
Q 33.0625 21.96875 24.703125 23.78125 
L 21.578125 24.515625 
Q 13.234375 26.265625 9.515625 29.90625 
Q 5.8125 33.546875 5.8125 39.890625 
Q 5.8125 47.609375 11.28125 51.796875 
Q 16.75 56 26.8125 56 
Q 31.78125 56 36.171875 55.265625 
Q 40.578125 54.546875 44.28125 53.078125 
z
" id="DejaVuSans-115"/>
      <path d="M 25.390625 72.90625 
L 33.6875 72.90625 
L 8.296875 -9.28125 
L 0 -9.28125 
z
" id="DejaVuSans-47"/>
     </defs>
     <use xlink:href="#DejaVuSans-98"/>
     <use x="63.476562" xlink:href="#DejaVuSans-108"/>
     <use x="91.259766" xlink:href="#DejaVuSans-111"/>
     <use x="152.441406" xlink:href="#DejaVuSans-97"/>
     <use x="213.720703" xlink:href="#DejaVuSans-116"/>
     <use x="252.929688" xlink:href="#DejaVuSans-121"/>
     <use x="312.109375" xlink:href="#DejaVuSans-95"/>
     <use x="362.109375" xlink:href="#DejaVuSans-102"/>
     <use x="397.314453" xlink:href="#DejaVuSans-117"/>
     <use x="460.693359" xlink:href="#DejaVuSans-122"/>
     <use x="513.183594" xlink:href="#DejaVuSans-122"/>
     <use x="565.673828" xlink:href="#DejaVuSans-95"/>
     <use x="615.673828" xlink:href="#DejaVuSans-116"/>
     <use x="654.882812" xlink:href="#DejaVuSans-97"/>
     <use x="716.162109" xlink:href="#DejaVuSans-114"/>
     <use x="755.525391" xlink:href="#DejaVuSans-103"/>
     <use x="819.001953" xlink:href="#DejaVuSans-101"/>
     <use x="880.525391" xlink:href="#DejaVuSans-116"/>
     <use x="919.734375" xlink:href="#DejaVuSans-32"/>
     <use x="951.521484" xlink:href="#DejaVuSans-40"/>
     <use x="990.535156" xlink:href="#DejaVuSans-50"/>
     <use x="1054.158203" xlink:href="#DejaVuSans-50"/>
     <use x="1117.78125" xlink:href="#DejaVuSans-104"/>
     <use x="1181.160156" xlink:href="#DejaVuSans-58"/>
     <use x="1214.851562" xlink:href="#DejaVuSans-49"/>
     <use x="1278.474609" xlink:href="#DejaVuSans-53"/>
     <use x="1342.097656" xlink:href="#DejaVuSans-109"/>
     <use x="1439.509766" xlink:href="#DejaVuSans-44"/>
     <use x="1471.296875" xlink:href="#DejaVuSans-32"/>
     <use x="1503.083984" xlink:href="#DejaVuSans-53"/>
     <use x="1566.707031" xlink:href="#DejaVuSans-32"/>
     <use x="1598.494141" xlink:href="#DejaVuSans-116"/>
     <use x="1637.703125" xlink:href="#DejaVuSans-114"/>
     <use x="1678.816406" xlink:href="#DejaVuSans-105"/>
     <use x="1706.599609" xlink:href="#DejaVuSans-97"/>
     <use x="1767.878906" xlink:href="#DejaVuSans-108"/>
     <use x="1795.662109" xlink:href="#DejaVuSans-115"/>
     <use x="1847.761719" xlink:href="#DejaVuSans-47"/>
     <use x="1881.453125" xlink:href="#DejaVuSans-102"/>
     <use x="1916.658203" xlink:href="#DejaVuSans-117"/>
     <use x="1980.037109" xlink:href="#DejaVuSans-122"/>
     <use x="2032.527344" xlink:href="#DejaVuSans-122"/>
     <use x="2085.017578" xlink:href="#DejaVuSans-101"/>
     <use x="2146.541016" xlink:href="#DejaVuSans-114"/>
     <use x="2187.654297" xlink:href="#DejaVuSans-41"/>
    </g>
   </g>
   <g id="legend_1">
    <g id="line2d_43">
     <path d="M 771.568125 30.416562 
L 791.568125 30.416562 
" style="fill:none;"/>
    </g>
    <g id="line2d_44"/>
    <g id="text_23">
     <!-- fuzzer -->
     <g transform="translate(799.568125 33.916562)scale(0.1 -0.1)">
      <use xlink:href="#DejaVuSans-102"/>
      <use x="35.205078" xlink:href="#DejaVuSans-117"/>
      <use x="98.583984" xlink:href="#DejaVuSans-122"/>
      <use x="151.074219" xlink:href="#DejaVuSans-122"/>
      <use x="203.564453" xlink:href="#DejaVuSans-101"/>
      <use x="265.087891" xlink:href="#DejaVuSans-114"/>
     </g>
    </g>
    <g id="line2d_45">
     <path d="M 771.568125 45.094688 
L 791.568125 45.094688 
" style="fill:none;stroke:#98df8a;stroke-linecap:square;stroke-width:1.5;"/>
    </g>
    <g id="line2d_46">
     <defs>
      <path d="M -0 3 
L 3 -3 
L -3 -3 
z
" id="m763637de56" style="stroke:#98df8a;stroke-linejoin:miter;"/>
     </defs>
     <g>
      <use style="fill:#98df8a;stroke:#98df8a;stroke-linejoin:miter;" x="781.568125" xlink:href="#m763637de56" y="45.094688"/>
     </g>
    </g>
    <g id="text_24">
     <!-- dark_instru_cond -->
     <g transform="translate(799.568125 48.594688)scale(0.1 -0.1)">
      <defs>
       <path d="M 9.078125 75.984375 
L 18.109375 75.984375 
L 18.109375 31.109375 
L 44.921875 54.6875 
L 56.390625 54.6875 
L 27.390625 29.109375 
L 57.625 0 
L 45.90625 0 
L 18.109375 26.703125 
L 18.109375 0 
L 9.078125 0 
z
" id="DejaVuSans-107"/>
      </defs>
      <use xlink:href="#DejaVuSans-100"/>
      <use x="63.476562" xlink:href="#DejaVuSans-97"/>
      <use x="124.755859" xlink:href="#DejaVuSans-114"/>
      <use x="165.869141" xlink:href="#DejaVuSans-107"/>
      <use x="223.779297" xlink:href="#DejaVuSans-95"/>
      <use x="273.779297" xlink:href="#DejaVuSans-105"/>
      <use x="301.5625" xlink:href="#DejaVuSans-110"/>
      <use x="364.941406" xlink:href="#DejaVuSans-115"/>
      <use x="417.041016" xlink:href="#DejaVuSans-116"/>
      <use x="456.25" xlink:href="#DejaVuSans-114"/>
      <use x="497.363281" xlink:href="#DejaVuSans-117"/>
      <use x="560.742188" xlink:href="#DejaVuSans-95"/>
      <use x="610.742188" xlink:href="#DejaVuSans-99"/>
      <use x="665.722656" xlink:href="#DejaVuSans-111"/>
      <use x="726.904297" xlink:href="#DejaVuSans-110"/>
      <use x="790.283203" xlink:href="#DejaVuSans-100"/>
     </g>
    </g>
    <g id="line2d_47">
     <path d="M 771.568125 60.050937 
L 791.568125 60.050937 
" style="fill:none;stroke:#1f77b4;stroke-linecap:square;stroke-width:1.5;"/>
    </g>
    <g id="line2d_48">
     <defs>
      <path d="M 0 3 
C 0.795609 3 1.55874 2.683901 2.12132 2.12132 
C 2.683901 1.55874 3 0.795609 3 0 
C 3 -0.795609 2.683901 -1.55874 2.12132 -2.12132 
C 1.55874 -2.683901 0.795609 -3 0 -3 
C -0.795609 -3 -1.55874 -2.683901 -2.12132 -2.12132 
C -2.683901 -1.55874 -3 -0.795609 -3 0 
C -3 0.795609 -2.683901 1.55874 -2.12132 2.12132 
C -1.55874 2.683901 -0.795609 3 0 3 
z
" id="m8ad215ac74" style="stroke:#1f77b4;"/>
     </defs>
     <g>
      <use style="fill:#1f77b4;stroke:#1f77b4;" x="781.568125" xlink:href="#m8ad215ac74" y="60.050937"/>
     </g>
    </g>
    <g id="text_25">
     <!-- afldark_dev -->
     <g transform="translate(799.568125 63.550937)scale(0.1 -0.1)">
      <use xlink:href="#DejaVuSans-97"/>
      <use x="61.279297" xlink:href="#DejaVuSans-102"/>
      <use x="96.484375" xlink:href="#DejaVuSans-108"/>
      <use x="124.267578" xlink:href="#DejaVuSans-100"/>
      <use x="187.744141" xlink:href="#DejaVuSans-97"/>
      <use x="249.023438" xlink:href="#DejaVuSans-114"/>
      <use x="290.136719" xlink:href="#DejaVuSans-107"/>
      <use x="348.046875" xlink:href="#DejaVuSans-95"/>
      <use x="398.046875" xlink:href="#DejaVuSans-100"/>
      <use x="461.523438" xlink:href="#DejaVuSans-101"/>
      <use x="523.046875" xlink:href="#DejaVuSans-118"/>
     </g>
    </g>
   </g>
  </g>
 </g>
 <defs>
  <clipPath id="p2366b39d18">
   <rect height="266.112" width="714.24" x="53.328125" y="22.318125"/>
  </clipPath>
 </defs>
</svg>
