<?xml version="1.0" encoding="utf-8" standalone="no"?>
<!DOCTYPE svg PUBLIC "-//W3C//DTD SVG 1.1//EN"
  "http://www.w3.org/Graphics/SVG/1.1/DTD/svg11.dtd">
<!-- Created with matplotlib (https://matplotlib.org/) -->
<svg height="367.618115pt" version="1.1" viewBox="0 0 417.648125 367.618115" width="417.648125pt" xmlns="http://www.w3.org/2000/svg" xmlns:xlink="http://www.w3.org/1999/xlink">
 <metadata>
  <rdf:RDF xmlns:cc="http://creativecommons.org/ns#" xmlns:dc="http://purl.org/dc/elements/1.1/" xmlns:rdf="http://www.w3.org/1999/02/22-rdf-syntax-ns#">
   <cc:Work>
    <dc:type rdf:resource="http://purl.org/dc/dcmitype/StillImage"/>
    <dc:date>2020-12-29T17:05:23.816178</dc:date>
    <dc:format>image/svg+xml</dc:format>
    <dc:creator>
     <cc:Agent>
      <dc:title>Matplotlib v3.3.2, https://matplotlib.org/</dc:title>
     </cc:Agent>
    </dc:creator>
   </cc:Work>
  </rdf:RDF>
 </metadata>
 <defs>
  <style type="text/css">*{stroke-linecap:butt;stroke-linejoin:round;}</style>
 </defs>
 <g id="figure_1">
  <g id="patch_1">
   <path d="M 0 367.618115 
L 417.648125 367.618115 
L 417.648125 0 
L 0 0 
z
" style="fill:#ffffff;"/>
  </g>
  <g id="axes_1">
   <g id="patch_2">
    <path d="M 53.328125 288.430125 
L 410.448125 288.430125 
L 410.448125 22.318125 
L 53.328125 22.318125 
z
" style="fill:#ffffff;"/>
   </g>
   <g id="PolyCollection_1">
    <defs>
     <path d="M 145.682285 -94.513973 
L 139.533965 -94.513973 
L 139.02764 -96.924983 
L 138.461923 -99.335994 
L 137.834329 -101.747004 
L 137.143058 -104.158014 
L 136.387113 -106.569025 
L 135.566412 -108.980035 
L 134.681875 -111.391045 
L 133.735481 -113.802055 
L 132.730304 -116.213066 
L 131.670504 -118.624076 
L 130.561271 -121.035086 
L 129.408738 -123.446096 
L 128.219837 -125.857107 
L 127.002117 -128.268117 
L 125.763517 -130.679127 
L 124.512109 -133.090138 
L 123.255815 -135.501148 
L 122.002105 -137.912158 
L 120.757697 -140.323168 
L 119.528266 -142.734179 
L 118.318179 -145.145189 
L 117.130268 -147.556199 
L 115.965664 -149.96721 
L 114.823684 -152.37822 
L 113.701804 -154.78923 
L 112.595707 -157.20024 
L 111.499416 -159.611251 
L 110.40551 -162.022261 
L 109.305415 -164.433271 
L 108.189765 -166.844281 
L 107.048816 -169.255292 
L 105.872896 -171.666302 
L 104.652877 -174.077312 
L 103.380644 -176.488323 
L 102.049543 -178.899333 
L 100.654782 -181.310343 
L 99.193778 -183.721353 
L 97.666422 -186.132364 
L 96.075258 -188.543374 
L 94.425564 -190.954384 
L 92.72533 -193.365394 
L 90.985142 -195.776405 
L 89.217969 -198.187415 
L 87.438869 -200.598425 
L 85.664628 -203.009436 
L 83.913342 -205.420446 
L 82.203969 -207.831456 
L 80.555871 -210.242466 
L 78.988348 -212.653477 
L 77.520212 -215.064487 
L 76.169382 -217.475497 
L 74.952539 -219.886507 
L 73.88484 -222.297518 
L 72.979689 -224.708528 
L 72.248578 -227.119538 
L 71.700993 -229.530549 
L 71.344373 -231.941559 
L 71.184125 -234.352569 
L 71.223669 -236.763579 
L 71.464528 -239.17459 
L 71.906424 -241.5856 
L 72.547391 -243.99661 
L 73.383891 -246.407621 
L 74.410918 -248.818631 
L 75.622098 -251.229641 
L 77.009775 -253.640651 
L 78.565084 -256.051662 
L 80.278018 -258.462672 
L 82.137487 -260.873682 
L 84.131373 -263.284692 
L 86.246595 -265.695703 
L 88.469182 -268.106713 
L 90.784363 -270.517723 
L 93.17667 -272.928734 
L 95.630076 -275.339744 
L 98.128139 -277.750754 
L 100.654188 -280.161764 
L 103.191509 -282.572775 
L 105.723564 -284.983785 
L 108.234207 -287.394795 
L 110.707908 -289.805805 
L 113.129972 -292.216816 
L 115.486751 -294.627826 
L 117.765823 -297.038836 
L 119.956163 -299.449847 
L 122.048266 -301.860857 
L 124.034246 -304.271867 
L 125.907892 -306.682877 
L 127.664686 -309.093888 
L 129.301777 -311.504898 
L 130.817927 -313.915908 
L 132.213421 -316.326918 
L 133.489941 -318.737929 
L 134.650427 -321.148939 
L 135.698916 -323.559949 
L 136.640368 -325.97096 
L 137.480489 -328.38197 
L 138.225553 -330.79298 
L 138.882235 -333.20399 
L 146.334015 -333.20399 
L 146.334015 -333.20399 
L 146.990697 -330.79298 
L 147.735761 -328.38197 
L 148.575882 -325.97096 
L 149.517334 -323.559949 
L 150.565823 -321.148939 
L 151.726309 -318.737929 
L 153.002829 -316.326918 
L 154.398323 -313.915908 
L 155.914473 -311.504898 
L 157.551564 -309.093888 
L 159.308358 -306.682877 
L 161.182004 -304.271867 
L 163.167984 -301.860857 
L 165.260087 -299.449847 
L 167.450427 -297.038836 
L 169.729499 -294.627826 
L 172.086278 -292.216816 
L 174.508342 -289.805805 
L 176.982043 -287.394795 
L 179.492686 -284.983785 
L 182.024741 -282.572775 
L 184.562062 -280.161764 
L 187.088111 -277.750754 
L 189.586174 -275.339744 
L 192.03958 -272.928734 
L 194.431887 -270.517723 
L 196.747068 -268.106713 
L 198.969655 -265.695703 
L 201.084877 -263.284692 
L 203.078763 -260.873682 
L 204.938232 -258.462672 
L 206.651166 -256.051662 
L 208.206475 -253.640651 
L 209.594152 -251.229641 
L 210.805332 -248.818631 
L 211.832359 -246.407621 
L 212.668859 -243.99661 
L 213.309826 -241.5856 
L 213.751722 -239.17459 
L 213.992581 -236.763579 
L 214.032125 -234.352569 
L 213.871877 -231.941559 
L 213.515257 -229.530549 
L 212.967672 -227.119538 
L 212.236561 -224.708528 
L 211.33141 -222.297518 
L 210.263711 -219.886507 
L 209.046868 -217.475497 
L 207.696038 -215.064487 
L 206.227902 -212.653477 
L 204.660379 -210.242466 
L 203.012281 -207.831456 
L 201.302908 -205.420446 
L 199.551622 -203.009436 
L 197.777381 -200.598425 
L 195.998281 -198.187415 
L 194.231108 -195.776405 
L 192.49092 -193.365394 
L 190.790686 -190.954384 
L 189.140992 -188.543374 
L 187.549828 -186.132364 
L 186.022472 -183.721353 
L 184.561468 -181.310343 
L 183.166707 -178.899333 
L 181.835606 -176.488323 
L 180.563373 -174.077312 
L 179.343354 -171.666302 
L 178.167434 -169.255292 
L 177.026485 -166.844281 
L 175.910835 -164.433271 
L 174.81074 -162.022261 
L 173.716834 -159.611251 
L 172.620543 -157.20024 
L 171.514446 -154.78923 
L 170.392566 -152.37822 
L 169.250586 -149.96721 
L 168.085982 -147.556199 
L 166.898071 -145.145189 
L 165.687984 -142.734179 
L 164.458553 -140.323168 
L 163.214145 -137.912158 
L 161.960435 -135.501148 
L 160.704141 -133.090138 
L 159.452733 -130.679127 
L 158.214133 -128.268117 
L 156.996413 -125.857107 
L 155.807512 -123.446096 
L 154.654979 -121.035086 
L 153.545746 -118.624076 
L 152.485946 -116.213066 
L 151.480769 -113.802055 
L 150.534375 -111.391045 
L 149.649838 -108.980035 
L 148.829137 -106.569025 
L 148.073192 -104.158014 
L 147.381921 -101.747004 
L 146.754327 -99.335994 
L 146.18861 -96.924983 
L 145.682285 -94.513973 
z
" id="m056c3cfc8f" style="stroke:#3f3f3f;stroke-width:1.5;"/>
    </defs>
    <g clip-path="url(#pc360d3d6ed)">
     <use style="fill:#9fd495;stroke:#3f3f3f;stroke-width:1.5;" x="0" xlink:href="#m056c3cfc8f" y="367.618115"/>
    </g>
   </g>
   <g id="PolyCollection_2">
    <defs>
     <path d="M 325.127215 -91.28399 
L 317.209035 -91.28399 
L 316.555498 -93.477585 
L 315.818095 -95.671179 
L 314.990416 -97.864773 
L 314.066289 -100.058368 
L 313.039928 -102.251962 
L 311.906086 -104.445556 
L 310.660221 -106.639151 
L 309.298665 -108.832745 
L 307.818802 -111.026339 
L 306.219236 -113.219934 
L 304.49996 -115.413528 
L 302.662511 -117.607122 
L 300.71011 -119.800717 
L 298.647777 -121.994311 
L 296.482425 -124.187905 
L 294.222915 -126.3815 
L 291.880078 -128.575094 
L 289.466696 -130.768688 
L 286.997433 -132.962283 
L 284.488726 -135.155877 
L 281.95862 -137.349471 
L 279.426556 -139.543066 
L 276.913112 -141.73666 
L 274.439698 -143.930254 
L 272.028206 -146.123849 
L 269.700627 -148.317443 
L 267.478644 -150.511037 
L 265.383192 -152.704632 
L 263.434025 -154.898226 
L 261.649272 -157.09182 
L 260.04501 -159.285415 
L 258.63487 -161.479009 
L 257.429666 -163.672603 
L 256.437094 -165.866198 
L 255.66148 -168.059792 
L 255.103603 -170.253386 
L 254.760611 -172.446981 
L 254.626009 -174.640575 
L 254.689757 -176.834169 
L 254.93845 -179.027764 
L 255.355602 -181.221358 
L 255.922014 -183.414952 
L 256.616226 -185.608547 
L 257.41504 -187.802141 
L 258.294106 -189.995735 
L 259.228544 -192.18933 
L 260.193596 -194.382924 
L 261.165284 -196.576518 
L 262.12105 -198.770113 
L 263.040366 -200.963707 
L 263.905287 -203.157301 
L 264.700935 -205.350896 
L 265.415887 -207.54449 
L 266.042473 -209.738084 
L 266.576949 -211.931679 
L 267.019559 -214.125273 
L 267.374471 -216.318867 
L 267.649597 -218.512462 
L 267.856295 -220.706056 
L 268.008964 -222.89965 
L 268.124559 -225.093244 
L 268.222018 -227.286839 
L 268.32164 -229.480433 
L 268.444431 -231.674027 
L 268.611432 -233.867622 
L 268.843063 -236.061216 
L 269.158493 -238.25481 
L 269.575063 -240.448405 
L 270.107783 -242.641999 
L 270.768908 -244.835593 
L 271.567611 -247.029188 
L 272.509762 -249.222782 
L 273.597814 -251.416376 
L 274.830792 -253.609971 
L 276.204396 -255.803565 
L 277.711188 -257.997159 
L 279.34087 -260.190754 
L 281.080637 -262.384348 
L 282.915584 -264.577942 
L 284.829152 -266.771537 
L 286.803599 -268.965131 
L 288.820485 -271.158725 
L 290.861134 -273.35232 
L 292.907091 -275.545914 
L 294.940526 -277.739508 
L 296.944603 -279.933103 
L 298.903793 -282.126697 
L 300.804125 -284.320291 
L 302.633374 -286.513886 
L 304.381189 -288.70748 
L 306.039164 -290.901074 
L 307.600838 -293.094669 
L 309.061663 -295.288263 
L 310.41891 -297.481857 
L 311.671543 -299.675452 
L 312.820073 -301.869046 
L 313.866372 -304.06264 
L 314.813491 -306.256235 
L 315.66546 -308.449829 
L 326.67079 -308.449829 
L 326.67079 -308.449829 
L 327.522759 -306.256235 
L 328.469878 -304.06264 
L 329.516177 -301.869046 
L 330.664707 -299.675452 
L 331.91734 -297.481857 
L 333.274587 -295.288263 
L 334.735412 -293.094669 
L 336.297086 -290.901074 
L 337.955061 -288.70748 
L 339.702876 -286.513886 
L 341.532125 -284.320291 
L 343.432457 -282.126697 
L 345.391647 -279.933103 
L 347.395724 -277.739508 
L 349.429159 -275.545914 
L 351.475116 -273.35232 
L 353.515765 -271.158725 
L 355.532651 -268.965131 
L 357.507098 -266.771537 
L 359.420666 -264.577942 
L 361.255613 -262.384348 
L 362.99538 -260.190754 
L 364.625062 -257.997159 
L 366.131854 -255.803565 
L 367.505458 -253.609971 
L 368.738436 -251.416376 
L 369.826488 -249.222782 
L 370.768639 -247.029188 
L 371.567342 -244.835593 
L 372.228467 -242.641999 
L 372.761187 -240.448405 
L 373.177757 -238.25481 
L 373.493187 -236.061216 
L 373.724818 -233.867622 
L 373.891819 -231.674027 
L 374.01461 -229.480433 
L 374.114232 -227.286839 
L 374.211691 -225.093244 
L 374.327286 -222.89965 
L 374.479955 -220.706056 
L 374.686653 -218.512462 
L 374.961779 -216.318867 
L 375.316691 -214.125273 
L 375.759301 -211.931679 
L 376.293777 -209.738084 
L 376.920363 -207.54449 
L 377.635315 -205.350896 
L 378.430963 -203.157301 
L 379.295884 -200.963707 
L 380.2152 -198.770113 
L 381.170966 -196.576518 
L 382.142654 -194.382924 
L 383.107706 -192.18933 
L 384.042144 -189.995735 
L 384.92121 -187.802141 
L 385.720024 -185.608547 
L 386.414236 -183.414952 
L 386.980648 -181.221358 
L 387.3978 -179.027764 
L 387.646493 -176.834169 
L 387.710241 -174.640575 
L 387.575639 -172.446981 
L 387.232647 -170.253386 
L 386.67477 -168.059792 
L 385.899156 -165.866198 
L 384.906584 -163.672603 
L 383.70138 -161.479009 
L 382.29124 -159.285415 
L 380.686978 -157.09182 
L 378.902225 -154.898226 
L 376.953058 -152.704632 
L 374.857606 -150.511037 
L 372.635623 -148.317443 
L 370.308044 -146.123849 
L 367.896552 -143.930254 
L 365.423138 -141.73666 
L 362.909694 -139.543066 
L 360.37763 -137.349471 
L 357.847524 -135.155877 
L 355.338817 -132.962283 
L 352.869554 -130.768688 
L 350.456172 -128.575094 
L 348.113335 -126.3815 
L 345.853825 -124.187905 
L 343.688473 -121.994311 
L 341.62614 -119.800717 
L 339.673739 -117.607122 
L 337.83629 -115.413528 
L 336.117014 -113.219934 
L 334.517448 -111.026339 
L 333.037585 -108.832745 
L 331.676029 -106.639151 
L 330.430164 -104.445556 
L 329.296322 -102.251962 
L 328.269961 -100.058368 
L 327.345834 -97.864773 
L 326.518155 -95.671179 
L 325.780752 -93.477585 
L 325.127215 -91.28399 
z
" id="m4cc44b5d06" style="stroke:#3f3f3f;stroke-width:1.5;"/>
    </defs>
    <g clip-path="url(#pc360d3d6ed)">
     <use style="fill:#3274a1;stroke:#3f3f3f;stroke-width:1.5;" x="0" xlink:href="#m4cc44b5d06" y="367.618115"/>
    </g>
   </g>
   <g id="matplotlib.axis_1">
    <g id="xtick_1">
     <g id="line2d_1">
      <defs>
       <path d="M 0 0 
L 0 3.5 
" id="m69a292e3a0" style="stroke:#000000;stroke-width:0.8;"/>
      </defs>
      <g>
       <use style="stroke:#000000;stroke-width:0.8;" x="142.608125" xlink:href="#m69a292e3a0" y="288.430125"/>
      </g>
     </g>
     <g id="text_1">
      <!-- dark_instru_cond -->
      <g transform="translate(67.4923 344.698065)rotate(-30)scale(0.1 -0.1)">
       <defs>
        <path d="M 45.40625 46.390625 
L 45.40625 75.984375 
L 54.390625 75.984375 
L 54.390625 0 
L 45.40625 0 
L 45.40625 8.203125 
Q 42.578125 3.328125 38.25 0.953125 
Q 33.9375 -1.421875 27.875 -1.421875 
Q 17.96875 -1.421875 11.734375 6.484375 
Q 5.515625 14.40625 5.515625 27.296875 
Q 5.515625 40.1875 11.734375 48.09375 
Q 17.96875 56 27.875 56 
Q 33.9375 56 38.25 53.625 
Q 42.578125 51.265625 45.40625 46.390625 
z
M 14.796875 27.296875 
Q 14.796875 17.390625 18.875 11.75 
Q 22.953125 6.109375 30.078125 6.109375 
Q 37.203125 6.109375 41.296875 11.75 
Q 45.40625 17.390625 45.40625 27.296875 
Q 45.40625 37.203125 41.296875 42.84375 
Q 37.203125 48.484375 30.078125 48.484375 
Q 22.953125 48.484375 18.875 42.84375 
Q 14.796875 37.203125 14.796875 27.296875 
z
" id="DejaVuSans-100"/>
        <path d="M 34.28125 27.484375 
Q 23.390625 27.484375 19.1875 25 
Q 14.984375 22.515625 14.984375 16.5 
Q 14.984375 11.71875 18.140625 8.90625 
Q 21.296875 6.109375 26.703125 6.109375 
Q 34.1875 6.109375 38.703125 11.40625 
Q 43.21875 16.703125 43.21875 25.484375 
L 43.21875 27.484375 
z
M 52.203125 31.203125 
L 52.203125 0 
L 43.21875 0 
L 43.21875 8.296875 
Q 40.140625 3.328125 35.546875 0.953125 
Q 30.953125 -1.421875 24.3125 -1.421875 
Q 15.921875 -1.421875 10.953125 3.296875 
Q 6 8.015625 6 15.921875 
Q 6 25.140625 12.171875 29.828125 
Q 18.359375 34.515625 30.609375 34.515625 
L 43.21875 34.515625 
L 43.21875 35.40625 
Q 43.21875 41.609375 39.140625 45 
Q 35.0625 48.390625 27.6875 48.390625 
Q 23 48.390625 18.546875 47.265625 
Q 14.109375 46.140625 10.015625 43.890625 
L 10.015625 52.203125 
Q 14.9375 54.109375 19.578125 55.046875 
Q 24.21875 56 28.609375 56 
Q 40.484375 56 46.34375 49.84375 
Q 52.203125 43.703125 52.203125 31.203125 
z
" id="DejaVuSans-97"/>
        <path d="M 41.109375 46.296875 
Q 39.59375 47.171875 37.8125 47.578125 
Q 36.03125 48 33.890625 48 
Q 26.265625 48 22.1875 43.046875 
Q 18.109375 38.09375 18.109375 28.8125 
L 18.109375 0 
L 9.078125 0 
L 9.078125 54.6875 
L 18.109375 54.6875 
L 18.109375 46.1875 
Q 20.953125 51.171875 25.484375 53.578125 
Q 30.03125 56 36.53125 56 
Q 37.453125 56 38.578125 55.875 
Q 39.703125 55.765625 41.0625 55.515625 
z
" id="DejaVuSans-114"/>
        <path d="M 9.078125 75.984375 
L 18.109375 75.984375 
L 18.109375 31.109375 
L 44.921875 54.6875 
L 56.390625 54.6875 
L 27.390625 29.109375 
L 57.625 0 
L 45.90625 0 
L 18.109375 26.703125 
L 18.109375 0 
L 9.078125 0 
z
" id="DejaVuSans-107"/>
        <path d="M 50.984375 -16.609375 
L 50.984375 -23.578125 
L -0.984375 -23.578125 
L -0.984375 -16.609375 
z
" id="DejaVuSans-95"/>
        <path d="M 9.421875 54.6875 
L 18.40625 54.6875 
L 18.40625 0 
L 9.421875 0 
z
M 9.421875 75.984375 
L 18.40625 75.984375 
L 18.40625 64.59375 
L 9.421875 64.59375 
z
" id="DejaVuSans-105"/>
        <path d="M 54.890625 33.015625 
L 54.890625 0 
L 45.90625 0 
L 45.90625 32.71875 
Q 45.90625 40.484375 42.875 44.328125 
Q 39.84375 48.1875 33.796875 48.1875 
Q 26.515625 48.1875 22.3125 43.546875 
Q 18.109375 38.921875 18.109375 30.90625 
L 18.109375 0 
L 9.078125 0 
L 9.078125 54.6875 
L 18.109375 54.6875 
L 18.109375 46.1875 
Q 21.34375 51.125 25.703125 53.5625 
Q 30.078125 56 35.796875 56 
Q 45.21875 56 50.046875 50.171875 
Q 54.890625 44.34375 54.890625 33.015625 
z
" id="DejaVuSans-110"/>
        <path d="M 44.28125 53.078125 
L 44.28125 44.578125 
Q 40.484375 46.53125 36.375 47.5 
Q 32.28125 48.484375 27.875 48.484375 
Q 21.1875 48.484375 17.84375 46.4375 
Q 14.5 44.390625 14.5 40.28125 
Q 14.5 37.15625 16.890625 35.375 
Q 19.28125 33.59375 26.515625 31.984375 
L 29.59375 31.296875 
Q 39.15625 29.25 43.1875 25.515625 
Q 47.21875 21.78125 47.21875 15.09375 
Q 47.21875 7.46875 41.1875 3.015625 
Q 35.15625 -1.421875 24.609375 -1.421875 
Q 20.21875 -1.421875 15.453125 -0.5625 
Q 10.6875 0.296875 5.421875 2 
L 5.421875 11.28125 
Q 10.40625 8.6875 15.234375 7.390625 
Q 20.0625 6.109375 24.8125 6.109375 
Q 31.15625 6.109375 34.5625 8.28125 
Q 37.984375 10.453125 37.984375 14.40625 
Q 37.984375 18.0625 35.515625 20.015625 
Q 33.0625 21.96875 24.703125 23.78125 
L 21.578125 24.515625 
Q 13.234375 26.265625 9.515625 29.90625 
Q 5.8125 33.546875 5.8125 39.890625 
Q 5.8125 47.609375 11.28125 51.796875 
Q 16.75 56 26.8125 56 
Q 31.78125 56 36.171875 55.265625 
Q 40.578125 54.546875 44.28125 53.078125 
z
" id="DejaVuSans-115"/>
        <path d="M 18.3125 70.21875 
L 18.3125 54.6875 
L 36.8125 54.6875 
L 36.8125 47.703125 
L 18.3125 47.703125 
L 18.3125 18.015625 
Q 18.3125 11.328125 20.140625 9.421875 
Q 21.96875 7.515625 27.59375 7.515625 
L 36.8125 7.515625 
L 36.8125 0 
L 27.59375 0 
Q 17.1875 0 13.234375 3.875 
Q 9.28125 7.765625 9.28125 18.015625 
L 9.28125 47.703125 
L 2.6875 47.703125 
L 2.6875 54.6875 
L 9.28125 54.6875 
L 9.28125 70.21875 
z
" id="DejaVuSans-116"/>
        <path d="M 8.5 21.578125 
L 8.5 54.6875 
L 17.484375 54.6875 
L 17.484375 21.921875 
Q 17.484375 14.15625 20.5 10.265625 
Q 23.53125 6.390625 29.59375 6.390625 
Q 36.859375 6.390625 41.078125 11.03125 
Q 45.3125 15.671875 45.3125 23.6875 
L 45.3125 54.6875 
L 54.296875 54.6875 
L 54.296875 0 
L 45.3125 0 
L 45.3125 8.40625 
Q 42.046875 3.421875 37.71875 1 
Q 33.40625 -1.421875 27.6875 -1.421875 
Q 18.265625 -1.421875 13.375 4.4375 
Q 8.5 10.296875 8.5 21.578125 
z
M 31.109375 56 
z
" id="DejaVuSans-117"/>
        <path d="M 48.78125 52.59375 
L 48.78125 44.1875 
Q 44.96875 46.296875 41.140625 47.34375 
Q 37.3125 48.390625 33.40625 48.390625 
Q 24.65625 48.390625 19.8125 42.84375 
Q 14.984375 37.3125 14.984375 27.296875 
Q 14.984375 17.28125 19.8125 11.734375 
Q 24.65625 6.203125 33.40625 6.203125 
Q 37.3125 6.203125 41.140625 7.25 
Q 44.96875 8.296875 48.78125 10.40625 
L 48.78125 2.09375 
Q 45.015625 0.34375 40.984375 -0.53125 
Q 36.96875 -1.421875 32.421875 -1.421875 
Q 20.0625 -1.421875 12.78125 6.34375 
Q 5.515625 14.109375 5.515625 27.296875 
Q 5.515625 40.671875 12.859375 48.328125 
Q 20.21875 56 33.015625 56 
Q 37.15625 56 41.109375 55.140625 
Q 45.0625 54.296875 48.78125 52.59375 
z
" id="DejaVuSans-99"/>
        <path d="M 30.609375 48.390625 
Q 23.390625 48.390625 19.1875 42.75 
Q 14.984375 37.109375 14.984375 27.296875 
Q 14.984375 17.484375 19.15625 11.84375 
Q 23.34375 6.203125 30.609375 6.203125 
Q 37.796875 6.203125 41.984375 11.859375 
Q 46.1875 17.53125 46.1875 27.296875 
Q 46.1875 37.015625 41.984375 42.703125 
Q 37.796875 48.390625 30.609375 48.390625 
z
M 30.609375 56 
Q 42.328125 56 49.015625 48.375 
Q 55.71875 40.765625 55.71875 27.296875 
Q 55.71875 13.875 49.015625 6.21875 
Q 42.328125 -1.421875 30.609375 -1.421875 
Q 18.84375 -1.421875 12.171875 6.21875 
Q 5.515625 13.875 5.515625 27.296875 
Q 5.515625 40.765625 12.171875 48.375 
Q 18.84375 56 30.609375 56 
z
" id="DejaVuSans-111"/>
       </defs>
       <use xlink:href="#DejaVuSans-100"/>
       <use x="63.476562" xlink:href="#DejaVuSans-97"/>
       <use x="124.755859" xlink:href="#DejaVuSans-114"/>
       <use x="165.869141" xlink:href="#DejaVuSans-107"/>
       <use x="223.779297" xlink:href="#DejaVuSans-95"/>
       <use x="273.779297" xlink:href="#DejaVuSans-105"/>
       <use x="301.5625" xlink:href="#DejaVuSans-110"/>
       <use x="364.941406" xlink:href="#DejaVuSans-115"/>
       <use x="417.041016" xlink:href="#DejaVuSans-116"/>
       <use x="456.25" xlink:href="#DejaVuSans-114"/>
       <use x="497.363281" xlink:href="#DejaVuSans-117"/>
       <use x="560.742188" xlink:href="#DejaVuSans-95"/>
       <use x="610.742188" xlink:href="#DejaVuSans-99"/>
       <use x="665.722656" xlink:href="#DejaVuSans-111"/>
       <use x="726.904297" xlink:href="#DejaVuSans-110"/>
       <use x="790.283203" xlink:href="#DejaVuSans-100"/>
      </g>
     </g>
    </g>
    <g id="xtick_2">
     <g id="line2d_2">
      <g>
       <use style="stroke:#000000;stroke-width:0.8;" x="321.168125" xlink:href="#m69a292e3a0" y="288.430125"/>
      </g>
     </g>
     <g id="text_2">
      <!-- afldark_dev -->
      <g transform="translate(269.56489 331.123065)rotate(-30)scale(0.1 -0.1)">
       <defs>
        <path d="M 37.109375 75.984375 
L 37.109375 68.5 
L 28.515625 68.5 
Q 23.6875 68.5 21.796875 66.546875 
Q 19.921875 64.59375 19.921875 59.515625 
L 19.921875 54.6875 
L 34.71875 54.6875 
L 34.71875 47.703125 
L 19.921875 47.703125 
L 19.921875 0 
L 10.890625 0 
L 10.890625 47.703125 
L 2.296875 47.703125 
L 2.296875 54.6875 
L 10.890625 54.6875 
L 10.890625 58.5 
Q 10.890625 67.625 15.140625 71.796875 
Q 19.390625 75.984375 28.609375 75.984375 
z
" id="DejaVuSans-102"/>
        <path d="M 9.421875 75.984375 
L 18.40625 75.984375 
L 18.40625 0 
L 9.421875 0 
z
" id="DejaVuSans-108"/>
        <path d="M 56.203125 29.59375 
L 56.203125 25.203125 
L 14.890625 25.203125 
Q 15.484375 15.921875 20.484375 11.0625 
Q 25.484375 6.203125 34.421875 6.203125 
Q 39.59375 6.203125 44.453125 7.46875 
Q 49.3125 8.734375 54.109375 11.28125 
L 54.109375 2.78125 
Q 49.265625 0.734375 44.1875 -0.34375 
Q 39.109375 -1.421875 33.890625 -1.421875 
Q 20.796875 -1.421875 13.15625 6.1875 
Q 5.515625 13.8125 5.515625 26.8125 
Q 5.515625 40.234375 12.765625 48.109375 
Q 20.015625 56 32.328125 56 
Q 43.359375 56 49.78125 48.890625 
Q 56.203125 41.796875 56.203125 29.59375 
z
M 47.21875 32.234375 
Q 47.125 39.59375 43.09375 43.984375 
Q 39.0625 48.390625 32.421875 48.390625 
Q 24.90625 48.390625 20.390625 44.140625 
Q 15.875 39.890625 15.1875 32.171875 
z
" id="DejaVuSans-101"/>
        <path d="M 2.984375 54.6875 
L 12.5 54.6875 
L 29.59375 8.796875 
L 46.6875 54.6875 
L 56.203125 54.6875 
L 35.6875 0 
L 23.484375 0 
z
" id="DejaVuSans-118"/>
       </defs>
       <use xlink:href="#DejaVuSans-97"/>
       <use x="61.279297" xlink:href="#DejaVuSans-102"/>
       <use x="96.484375" xlink:href="#DejaVuSans-108"/>
       <use x="124.267578" xlink:href="#DejaVuSans-100"/>
       <use x="187.744141" xlink:href="#DejaVuSans-97"/>
       <use x="249.023438" xlink:href="#DejaVuSans-114"/>
       <use x="290.136719" xlink:href="#DejaVuSans-107"/>
       <use x="348.046875" xlink:href="#DejaVuSans-95"/>
       <use x="398.046875" xlink:href="#DejaVuSans-100"/>
       <use x="461.523438" xlink:href="#DejaVuSans-101"/>
       <use x="523.046875" xlink:href="#DejaVuSans-118"/>
      </g>
     </g>
    </g>
    <g id="text_3">
     <!-- Fuzzer (highest median coverage on the left) -->
     <g transform="translate(119.270156 358.338428)scale(0.1 -0.1)">
      <defs>
       <path d="M 9.8125 72.90625 
L 51.703125 72.90625 
L 51.703125 64.59375 
L 19.671875 64.59375 
L 19.671875 43.109375 
L 48.578125 43.109375 
L 48.578125 34.8125 
L 19.671875 34.8125 
L 19.671875 0 
L 9.8125 0 
z
" id="DejaVuSans-70"/>
       <path d="M 5.515625 54.6875 
L 48.1875 54.6875 
L 48.1875 46.484375 
L 14.40625 7.171875 
L 48.1875 7.171875 
L 48.1875 0 
L 4.296875 0 
L 4.296875 8.203125 
L 38.09375 47.515625 
L 5.515625 47.515625 
z
" id="DejaVuSans-122"/>
       <path id="DejaVuSans-32"/>
       <path d="M 31 75.875 
Q 24.46875 64.65625 21.28125 53.65625 
Q 18.109375 42.671875 18.109375 31.390625 
Q 18.109375 20.125 21.3125 9.0625 
Q 24.515625 -2 31 -13.1875 
L 23.1875 -13.1875 
Q 15.875 -1.703125 12.234375 9.375 
Q 8.59375 20.453125 8.59375 31.390625 
Q 8.59375 42.28125 12.203125 53.3125 
Q 15.828125 64.359375 23.1875 75.875 
z
" id="DejaVuSans-40"/>
       <path d="M 54.890625 33.015625 
L 54.890625 0 
L 45.90625 0 
L 45.90625 32.71875 
Q 45.90625 40.484375 42.875 44.328125 
Q 39.84375 48.1875 33.796875 48.1875 
Q 26.515625 48.1875 22.3125 43.546875 
Q 18.109375 38.921875 18.109375 30.90625 
L 18.109375 0 
L 9.078125 0 
L 9.078125 75.984375 
L 18.109375 75.984375 
L 18.109375 46.1875 
Q 21.34375 51.125 25.703125 53.5625 
Q 30.078125 56 35.796875 56 
Q 45.21875 56 50.046875 50.171875 
Q 54.890625 44.34375 54.890625 33.015625 
z
" id="DejaVuSans-104"/>
       <path d="M 45.40625 27.984375 
Q 45.40625 37.75 41.375 43.109375 
Q 37.359375 48.484375 30.078125 48.484375 
Q 22.859375 48.484375 18.828125 43.109375 
Q 14.796875 37.75 14.796875 27.984375 
Q 14.796875 18.265625 18.828125 12.890625 
Q 22.859375 7.515625 30.078125 7.515625 
Q 37.359375 7.515625 41.375 12.890625 
Q 45.40625 18.265625 45.40625 27.984375 
z
M 54.390625 6.78125 
Q 54.390625 -7.171875 48.1875 -13.984375 
Q 42 -20.796875 29.203125 -20.796875 
Q 24.46875 -20.796875 20.265625 -20.09375 
Q 16.0625 -19.390625 12.109375 -17.921875 
L 12.109375 -9.1875 
Q 16.0625 -11.328125 19.921875 -12.34375 
Q 23.78125 -13.375 27.78125 -13.375 
Q 36.625 -13.375 41.015625 -8.765625 
Q 45.40625 -4.15625 45.40625 5.171875 
L 45.40625 9.625 
Q 42.625 4.78125 38.28125 2.390625 
Q 33.9375 0 27.875 0 
Q 17.828125 0 11.671875 7.65625 
Q 5.515625 15.328125 5.515625 27.984375 
Q 5.515625 40.671875 11.671875 48.328125 
Q 17.828125 56 27.875 56 
Q 33.9375 56 38.28125 53.609375 
Q 42.625 51.21875 45.40625 46.390625 
L 45.40625 54.6875 
L 54.390625 54.6875 
z
" id="DejaVuSans-103"/>
       <path d="M 52 44.1875 
Q 55.375 50.25 60.0625 53.125 
Q 64.75 56 71.09375 56 
Q 79.640625 56 84.28125 50.015625 
Q 88.921875 44.046875 88.921875 33.015625 
L 88.921875 0 
L 79.890625 0 
L 79.890625 32.71875 
Q 79.890625 40.578125 77.09375 44.375 
Q 74.3125 48.1875 68.609375 48.1875 
Q 61.625 48.1875 57.5625 43.546875 
Q 53.515625 38.921875 53.515625 30.90625 
L 53.515625 0 
L 44.484375 0 
L 44.484375 32.71875 
Q 44.484375 40.625 41.703125 44.40625 
Q 38.921875 48.1875 33.109375 48.1875 
Q 26.21875 48.1875 22.15625 43.53125 
Q 18.109375 38.875 18.109375 30.90625 
L 18.109375 0 
L 9.078125 0 
L 9.078125 54.6875 
L 18.109375 54.6875 
L 18.109375 46.1875 
Q 21.1875 51.21875 25.484375 53.609375 
Q 29.78125 56 35.6875 56 
Q 41.65625 56 45.828125 52.96875 
Q 50 49.953125 52 44.1875 
z
" id="DejaVuSans-109"/>
       <path d="M 8.015625 75.875 
L 15.828125 75.875 
Q 23.140625 64.359375 26.78125 53.3125 
Q 30.421875 42.28125 30.421875 31.390625 
Q 30.421875 20.453125 26.78125 9.375 
Q 23.140625 -1.703125 15.828125 -13.1875 
L 8.015625 -13.1875 
Q 14.5 -2 17.703125 9.0625 
Q 20.90625 20.125 20.90625 31.390625 
Q 20.90625 42.671875 17.703125 53.65625 
Q 14.5 64.65625 8.015625 75.875 
z
" id="DejaVuSans-41"/>
      </defs>
      <use xlink:href="#DejaVuSans-70"/>
      <use x="52.019531" xlink:href="#DejaVuSans-117"/>
      <use x="115.398438" xlink:href="#DejaVuSans-122"/>
      <use x="167.888672" xlink:href="#DejaVuSans-122"/>
      <use x="220.378906" xlink:href="#DejaVuSans-101"/>
      <use x="281.902344" xlink:href="#DejaVuSans-114"/>
      <use x="323.015625" xlink:href="#DejaVuSans-32"/>
      <use x="354.802734" xlink:href="#DejaVuSans-40"/>
      <use x="393.816406" xlink:href="#DejaVuSans-104"/>
      <use x="457.195312" xlink:href="#DejaVuSans-105"/>
      <use x="484.978516" xlink:href="#DejaVuSans-103"/>
      <use x="548.455078" xlink:href="#DejaVuSans-104"/>
      <use x="611.833984" xlink:href="#DejaVuSans-101"/>
      <use x="673.357422" xlink:href="#DejaVuSans-115"/>
      <use x="725.457031" xlink:href="#DejaVuSans-116"/>
      <use x="764.666016" xlink:href="#DejaVuSans-32"/>
      <use x="796.453125" xlink:href="#DejaVuSans-109"/>
      <use x="893.865234" xlink:href="#DejaVuSans-101"/>
      <use x="955.388672" xlink:href="#DejaVuSans-100"/>
      <use x="1018.865234" xlink:href="#DejaVuSans-105"/>
      <use x="1046.648438" xlink:href="#DejaVuSans-97"/>
      <use x="1107.927734" xlink:href="#DejaVuSans-110"/>
      <use x="1171.306641" xlink:href="#DejaVuSans-32"/>
      <use x="1203.09375" xlink:href="#DejaVuSans-99"/>
      <use x="1258.074219" xlink:href="#DejaVuSans-111"/>
      <use x="1319.255859" xlink:href="#DejaVuSans-118"/>
      <use x="1378.435547" xlink:href="#DejaVuSans-101"/>
      <use x="1439.958984" xlink:href="#DejaVuSans-114"/>
      <use x="1481.072266" xlink:href="#DejaVuSans-97"/>
      <use x="1542.351562" xlink:href="#DejaVuSans-103"/>
      <use x="1605.828125" xlink:href="#DejaVuSans-101"/>
      <use x="1667.351562" xlink:href="#DejaVuSans-32"/>
      <use x="1699.138672" xlink:href="#DejaVuSans-111"/>
      <use x="1760.320312" xlink:href="#DejaVuSans-110"/>
      <use x="1823.699219" xlink:href="#DejaVuSans-32"/>
      <use x="1855.486328" xlink:href="#DejaVuSans-116"/>
      <use x="1894.695312" xlink:href="#DejaVuSans-104"/>
      <use x="1958.074219" xlink:href="#DejaVuSans-101"/>
      <use x="2019.597656" xlink:href="#DejaVuSans-32"/>
      <use x="2051.384766" xlink:href="#DejaVuSans-108"/>
      <use x="2079.167969" xlink:href="#DejaVuSans-101"/>
      <use x="2140.691406" xlink:href="#DejaVuSans-102"/>
      <use x="2174.146484" xlink:href="#DejaVuSans-116"/>
      <use x="2213.355469" xlink:href="#DejaVuSans-41"/>
     </g>
    </g>
   </g>
   <g id="matplotlib.axis_2">
    <g id="ytick_1">
     <g id="line2d_3">
      <defs>
       <path d="M 0 0 
L -3.5 0 
" id="m0812937fdd" style="stroke:#000000;stroke-width:0.8;"/>
      </defs>
      <g>
       <use style="stroke:#000000;stroke-width:0.8;" x="53.328125" xlink:href="#m0812937fdd" y="254.467504"/>
      </g>
     </g>
     <g id="text_4">
      <!-- 6500 -->
      <g transform="translate(20.878125 258.266723)scale(0.1 -0.1)">
       <defs>
        <path d="M 33.015625 40.375 
Q 26.375 40.375 22.484375 35.828125 
Q 18.609375 31.296875 18.609375 23.390625 
Q 18.609375 15.53125 22.484375 10.953125 
Q 26.375 6.390625 33.015625 6.390625 
Q 39.65625 6.390625 43.53125 10.953125 
Q 47.40625 15.53125 47.40625 23.390625 
Q 47.40625 31.296875 43.53125 35.828125 
Q 39.65625 40.375 33.015625 40.375 
z
M 52.59375 71.296875 
L 52.59375 62.3125 
Q 48.875 64.0625 45.09375 64.984375 
Q 41.3125 65.921875 37.59375 65.921875 
Q 27.828125 65.921875 22.671875 59.328125 
Q 17.53125 52.734375 16.796875 39.40625 
Q 19.671875 43.65625 24.015625 45.921875 
Q 28.375 48.1875 33.59375 48.1875 
Q 44.578125 48.1875 50.953125 41.515625 
Q 57.328125 34.859375 57.328125 23.390625 
Q 57.328125 12.15625 50.6875 5.359375 
Q 44.046875 -1.421875 33.015625 -1.421875 
Q 20.359375 -1.421875 13.671875 8.265625 
Q 6.984375 17.96875 6.984375 36.375 
Q 6.984375 53.65625 15.1875 63.9375 
Q 23.390625 74.21875 37.203125 74.21875 
Q 40.921875 74.21875 44.703125 73.484375 
Q 48.484375 72.75 52.59375 71.296875 
z
" id="DejaVuSans-54"/>
        <path d="M 10.796875 72.90625 
L 49.515625 72.90625 
L 49.515625 64.59375 
L 19.828125 64.59375 
L 19.828125 46.734375 
Q 21.96875 47.46875 24.109375 47.828125 
Q 26.265625 48.1875 28.421875 48.1875 
Q 40.625 48.1875 47.75 41.5 
Q 54.890625 34.8125 54.890625 23.390625 
Q 54.890625 11.625 47.5625 5.09375 
Q 40.234375 -1.421875 26.90625 -1.421875 
Q 22.3125 -1.421875 17.546875 -0.640625 
Q 12.796875 0.140625 7.71875 1.703125 
L 7.71875 11.625 
Q 12.109375 9.234375 16.796875 8.0625 
Q 21.484375 6.890625 26.703125 6.890625 
Q 35.15625 6.890625 40.078125 11.328125 
Q 45.015625 15.765625 45.015625 23.390625 
Q 45.015625 31 40.078125 35.4375 
Q 35.15625 39.890625 26.703125 39.890625 
Q 22.75 39.890625 18.8125 39.015625 
Q 14.890625 38.140625 10.796875 36.28125 
z
" id="DejaVuSans-53"/>
        <path d="M 31.78125 66.40625 
Q 24.171875 66.40625 20.328125 58.90625 
Q 16.5 51.421875 16.5 36.375 
Q 16.5 21.390625 20.328125 13.890625 
Q 24.171875 6.390625 31.78125 6.390625 
Q 39.453125 6.390625 43.28125 13.890625 
Q 47.125 21.390625 47.125 36.375 
Q 47.125 51.421875 43.28125 58.90625 
Q 39.453125 66.40625 31.78125 66.40625 
z
M 31.78125 74.21875 
Q 44.046875 74.21875 50.515625 64.515625 
Q 56.984375 54.828125 56.984375 36.375 
Q 56.984375 17.96875 50.515625 8.265625 
Q 44.046875 -1.421875 31.78125 -1.421875 
Q 19.53125 -1.421875 13.0625 8.265625 
Q 6.59375 17.96875 6.59375 36.375 
Q 6.59375 54.828125 13.0625 64.515625 
Q 19.53125 74.21875 31.78125 74.21875 
z
" id="DejaVuSans-48"/>
       </defs>
       <use xlink:href="#DejaVuSans-54"/>
       <use x="63.623047" xlink:href="#DejaVuSans-53"/>
       <use x="127.246094" xlink:href="#DejaVuSans-48"/>
       <use x="190.869141" xlink:href="#DejaVuSans-48"/>
      </g>
     </g>
    </g>
    <g id="ytick_2">
     <g id="line2d_4">
      <g>
       <use style="stroke:#000000;stroke-width:0.8;" x="53.328125" xlink:href="#m0812937fdd" y="219.919178"/>
      </g>
     </g>
     <g id="text_5">
      <!-- 6600 -->
      <g transform="translate(20.878125 223.718397)scale(0.1 -0.1)">
       <use xlink:href="#DejaVuSans-54"/>
       <use x="63.623047" xlink:href="#DejaVuSans-54"/>
       <use x="127.246094" xlink:href="#DejaVuSans-48"/>
       <use x="190.869141" xlink:href="#DejaVuSans-48"/>
      </g>
     </g>
    </g>
    <g id="ytick_3">
     <g id="line2d_5">
      <g>
       <use style="stroke:#000000;stroke-width:0.8;" x="53.328125" xlink:href="#m0812937fdd" y="185.370852"/>
      </g>
     </g>
     <g id="text_6">
      <!-- 6700 -->
      <g transform="translate(20.878125 189.170071)scale(0.1 -0.1)">
       <defs>
        <path d="M 8.203125 72.90625 
L 55.078125 72.90625 
L 55.078125 68.703125 
L 28.609375 0 
L 18.3125 0 
L 43.21875 64.59375 
L 8.203125 64.59375 
z
" id="DejaVuSans-55"/>
       </defs>
       <use xlink:href="#DejaVuSans-54"/>
       <use x="63.623047" xlink:href="#DejaVuSans-55"/>
       <use x="127.246094" xlink:href="#DejaVuSans-48"/>
       <use x="190.869141" xlink:href="#DejaVuSans-48"/>
      </g>
     </g>
    </g>
    <g id="ytick_4">
     <g id="line2d_6">
      <g>
       <use style="stroke:#000000;stroke-width:0.8;" x="53.328125" xlink:href="#m0812937fdd" y="150.822526"/>
      </g>
     </g>
     <g id="text_7">
      <!-- 6800 -->
      <g transform="translate(20.878125 154.621745)scale(0.1 -0.1)">
       <defs>
        <path d="M 31.78125 34.625 
Q 24.75 34.625 20.71875 30.859375 
Q 16.703125 27.09375 16.703125 20.515625 
Q 16.703125 13.921875 20.71875 10.15625 
Q 24.75 6.390625 31.78125 6.390625 
Q 38.8125 6.390625 42.859375 10.171875 
Q 46.921875 13.96875 46.921875 20.515625 
Q 46.921875 27.09375 42.890625 30.859375 
Q 38.875 34.625 31.78125 34.625 
z
M 21.921875 38.8125 
Q 15.578125 40.375 12.03125 44.71875 
Q 8.5 49.078125 8.5 55.328125 
Q 8.5 64.0625 14.71875 69.140625 
Q 20.953125 74.21875 31.78125 74.21875 
Q 42.671875 74.21875 48.875 69.140625 
Q 55.078125 64.0625 55.078125 55.328125 
Q 55.078125 49.078125 51.53125 44.71875 
Q 48 40.375 41.703125 38.8125 
Q 48.828125 37.15625 52.796875 32.3125 
Q 56.78125 27.484375 56.78125 20.515625 
Q 56.78125 9.90625 50.3125 4.234375 
Q 43.84375 -1.421875 31.78125 -1.421875 
Q 19.734375 -1.421875 13.25 4.234375 
Q 6.78125 9.90625 6.78125 20.515625 
Q 6.78125 27.484375 10.78125 32.3125 
Q 14.796875 37.15625 21.921875 38.8125 
z
M 18.3125 54.390625 
Q 18.3125 48.734375 21.84375 45.5625 
Q 25.390625 42.390625 31.78125 42.390625 
Q 38.140625 42.390625 41.71875 45.5625 
Q 45.3125 48.734375 45.3125 54.390625 
Q 45.3125 60.0625 41.71875 63.234375 
Q 38.140625 66.40625 31.78125 66.40625 
Q 25.390625 66.40625 21.84375 63.234375 
Q 18.3125 60.0625 18.3125 54.390625 
z
" id="DejaVuSans-56"/>
       </defs>
       <use xlink:href="#DejaVuSans-54"/>
       <use x="63.623047" xlink:href="#DejaVuSans-56"/>
       <use x="127.246094" xlink:href="#DejaVuSans-48"/>
       <use x="190.869141" xlink:href="#DejaVuSans-48"/>
      </g>
     </g>
    </g>
    <g id="ytick_5">
     <g id="line2d_7">
      <g>
       <use style="stroke:#000000;stroke-width:0.8;" x="53.328125" xlink:href="#m0812937fdd" y="116.2742"/>
      </g>
     </g>
     <g id="text_8">
      <!-- 6900 -->
      <g transform="translate(20.878125 120.073418)scale(0.1 -0.1)">
       <defs>
        <path d="M 10.984375 1.515625 
L 10.984375 10.5 
Q 14.703125 8.734375 18.5 7.8125 
Q 22.3125 6.890625 25.984375 6.890625 
Q 35.75 6.890625 40.890625 13.453125 
Q 46.046875 20.015625 46.78125 33.40625 
Q 43.953125 29.203125 39.59375 26.953125 
Q 35.25 24.703125 29.984375 24.703125 
Q 19.046875 24.703125 12.671875 31.3125 
Q 6.296875 37.9375 6.296875 49.421875 
Q 6.296875 60.640625 12.9375 67.421875 
Q 19.578125 74.21875 30.609375 74.21875 
Q 43.265625 74.21875 49.921875 64.515625 
Q 56.59375 54.828125 56.59375 36.375 
Q 56.59375 19.140625 48.40625 8.859375 
Q 40.234375 -1.421875 26.421875 -1.421875 
Q 22.703125 -1.421875 18.890625 -0.6875 
Q 15.09375 0.046875 10.984375 1.515625 
z
M 30.609375 32.421875 
Q 37.25 32.421875 41.125 36.953125 
Q 45.015625 41.5 45.015625 49.421875 
Q 45.015625 57.28125 41.125 61.84375 
Q 37.25 66.40625 30.609375 66.40625 
Q 23.96875 66.40625 20.09375 61.84375 
Q 16.21875 57.28125 16.21875 49.421875 
Q 16.21875 41.5 20.09375 36.953125 
Q 23.96875 32.421875 30.609375 32.421875 
z
" id="DejaVuSans-57"/>
       </defs>
       <use xlink:href="#DejaVuSans-54"/>
       <use x="63.623047" xlink:href="#DejaVuSans-57"/>
       <use x="127.246094" xlink:href="#DejaVuSans-48"/>
       <use x="190.869141" xlink:href="#DejaVuSans-48"/>
      </g>
     </g>
    </g>
    <g id="ytick_6">
     <g id="line2d_8">
      <g>
       <use style="stroke:#000000;stroke-width:0.8;" x="53.328125" xlink:href="#m0812937fdd" y="81.725874"/>
      </g>
     </g>
     <g id="text_9">
      <!-- 7000 -->
      <g transform="translate(20.878125 85.525092)scale(0.1 -0.1)">
       <use xlink:href="#DejaVuSans-55"/>
       <use x="63.623047" xlink:href="#DejaVuSans-48"/>
       <use x="127.246094" xlink:href="#DejaVuSans-48"/>
       <use x="190.869141" xlink:href="#DejaVuSans-48"/>
      </g>
     </g>
    </g>
    <g id="ytick_7">
     <g id="line2d_9">
      <g>
       <use style="stroke:#000000;stroke-width:0.8;" x="53.328125" xlink:href="#m0812937fdd" y="47.177547"/>
      </g>
     </g>
     <g id="text_10">
      <!-- 7100 -->
      <g transform="translate(20.878125 50.976766)scale(0.1 -0.1)">
       <defs>
        <path d="M 12.40625 8.296875 
L 28.515625 8.296875 
L 28.515625 63.921875 
L 10.984375 60.40625 
L 10.984375 69.390625 
L 28.421875 72.90625 
L 38.28125 72.90625 
L 38.28125 8.296875 
L 54.390625 8.296875 
L 54.390625 0 
L 12.40625 0 
z
" id="DejaVuSans-49"/>
       </defs>
       <use xlink:href="#DejaVuSans-55"/>
       <use x="63.623047" xlink:href="#DejaVuSans-49"/>
       <use x="127.246094" xlink:href="#DejaVuSans-48"/>
       <use x="190.869141" xlink:href="#DejaVuSans-48"/>
      </g>
     </g>
    </g>
    <g id="text_11">
     <!-- Reached region coverage -->
     <g transform="translate(14.798438 219.136625)rotate(-90)scale(0.1 -0.1)">
      <defs>
       <path d="M 44.390625 34.1875 
Q 47.5625 33.109375 50.5625 29.59375 
Q 53.5625 26.078125 56.59375 19.921875 
L 66.609375 0 
L 56 0 
L 46.6875 18.703125 
Q 43.0625 26.03125 39.671875 28.421875 
Q 36.28125 30.8125 30.421875 30.8125 
L 19.671875 30.8125 
L 19.671875 0 
L 9.8125 0 
L 9.8125 72.90625 
L 32.078125 72.90625 
Q 44.578125 72.90625 50.734375 67.671875 
Q 56.890625 62.453125 56.890625 51.90625 
Q 56.890625 45.015625 53.6875 40.46875 
Q 50.484375 35.9375 44.390625 34.1875 
z
M 19.671875 64.796875 
L 19.671875 38.921875 
L 32.078125 38.921875 
Q 39.203125 38.921875 42.84375 42.21875 
Q 46.484375 45.515625 46.484375 51.90625 
Q 46.484375 58.296875 42.84375 61.546875 
Q 39.203125 64.796875 32.078125 64.796875 
z
" id="DejaVuSans-82"/>
      </defs>
      <use xlink:href="#DejaVuSans-82"/>
      <use x="64.982422" xlink:href="#DejaVuSans-101"/>
      <use x="126.505859" xlink:href="#DejaVuSans-97"/>
      <use x="187.785156" xlink:href="#DejaVuSans-99"/>
      <use x="242.765625" xlink:href="#DejaVuSans-104"/>
      <use x="306.144531" xlink:href="#DejaVuSans-101"/>
      <use x="367.667969" xlink:href="#DejaVuSans-100"/>
      <use x="431.144531" xlink:href="#DejaVuSans-32"/>
      <use x="462.931641" xlink:href="#DejaVuSans-114"/>
      <use x="501.794922" xlink:href="#DejaVuSans-101"/>
      <use x="563.318359" xlink:href="#DejaVuSans-103"/>
      <use x="626.794922" xlink:href="#DejaVuSans-105"/>
      <use x="654.578125" xlink:href="#DejaVuSans-111"/>
      <use x="715.759766" xlink:href="#DejaVuSans-110"/>
      <use x="779.138672" xlink:href="#DejaVuSans-32"/>
      <use x="810.925781" xlink:href="#DejaVuSans-99"/>
      <use x="865.90625" xlink:href="#DejaVuSans-111"/>
      <use x="927.087891" xlink:href="#DejaVuSans-118"/>
      <use x="986.267578" xlink:href="#DejaVuSans-101"/>
      <use x="1047.791016" xlink:href="#DejaVuSans-114"/>
      <use x="1088.904297" xlink:href="#DejaVuSans-97"/>
      <use x="1150.183594" xlink:href="#DejaVuSans-103"/>
      <use x="1213.660156" xlink:href="#DejaVuSans-101"/>
     </g>
    </g>
   </g>
   <g id="line2d_10">
    <path clip-path="url(#pc360d3d6ed)" d="M 142.608125 210.59113 
L 142.608125 96.927137 
" style="fill:none;stroke:#3f3f3f;stroke-linecap:square;stroke-width:1.5;"/>
   </g>
   <g id="line2d_11">
    <path clip-path="url(#pc360d3d6ed)" d="M 142.608125 155.659292 
L 142.608125 118.347099 
" style="fill:none;stroke:#3f3f3f;stroke-linecap:square;stroke-width:4.5;"/>
   </g>
   <g id="line2d_12">
    <path clip-path="url(#pc360d3d6ed)" d="M 321.168125 214.736929 
L 321.168125 120.765482 
" style="fill:none;stroke:#3f3f3f;stroke-linecap:square;stroke-width:1.5;"/>
   </g>
   <g id="line2d_13">
    <path clip-path="url(#pc360d3d6ed)" d="M 321.168125 191.589551 
L 321.168125 124.565798 
" style="fill:none;stroke:#3f3f3f;stroke-linecap:square;stroke-width:4.5;"/>
   </g>
   <g id="patch_3">
    <path d="M 53.328125 254.467504 
L 53.328125 47.177547 
" style="fill:none;stroke:#000000;stroke-linecap:square;stroke-linejoin:miter;stroke-width:0.8;"/>
   </g>
   <g id="patch_4">
    <path d="M 142.608125 288.430125 
L 321.168125 288.430125 
" style="fill:none;stroke:#000000;stroke-linecap:square;stroke-linejoin:miter;stroke-width:0.8;"/>
   </g>
   <g id="PathCollection_1">
    <defs>
     <path d="M 0 1.5 
C 0.397805 1.5 0.77937 1.341951 1.06066 1.06066 
C 1.341951 0.77937 1.5 0.397805 1.5 0 
C 1.5 -0.397805 1.341951 -0.77937 1.06066 -1.06066 
C 0.77937 -1.341951 0.397805 -1.5 0 -1.5 
C -0.397805 -1.5 -0.77937 -1.341951 -1.06066 -1.06066 
C -1.341951 -0.77937 -1.5 -0.397805 -1.5 0 
C -1.5 0.397805 -1.341951 0.77937 -1.06066 1.06066 
C -0.77937 1.341951 -0.397805 1.5 0 1.5 
z
" id="m5261d7faf8" style="stroke:#3f3f3f;"/>
    </defs>
    <g clip-path="url(#pc360d3d6ed)">
     <use style="fill:#ffffff;stroke:#3f3f3f;" x="142.608125" xlink:href="#m5261d7faf8" y="143.567377"/>
    </g>
   </g>
   <g id="PathCollection_2">
    <g clip-path="url(#pc360d3d6ed)">
     <use style="fill:#ffffff;stroke:#3f3f3f;" x="321.168125" xlink:href="#m5261d7faf8" y="187.098268"/>
    </g>
   </g>
   <g id="text_12">
    <!-- bloaty_fuzz_target (22h:15m, 5 trials/fuzzer) -->
    <g transform="translate(98.291563 16.318125)scale(0.12 -0.12)">
     <defs>
      <path d="M 48.6875 27.296875 
Q 48.6875 37.203125 44.609375 42.84375 
Q 40.53125 48.484375 33.40625 48.484375 
Q 26.265625 48.484375 22.1875 42.84375 
Q 18.109375 37.203125 18.109375 27.296875 
Q 18.109375 17.390625 22.1875 11.75 
Q 26.265625 6.109375 33.40625 6.109375 
Q 40.53125 6.109375 44.609375 11.75 
Q 48.6875 17.390625 48.6875 27.296875 
z
M 18.109375 46.390625 
Q 20.953125 51.265625 25.265625 53.625 
Q 29.59375 56 35.59375 56 
Q 45.5625 56 51.78125 48.09375 
Q 58.015625 40.1875 58.015625 27.296875 
Q 58.015625 14.40625 51.78125 6.484375 
Q 45.5625 -1.421875 35.59375 -1.421875 
Q 29.59375 -1.421875 25.265625 0.953125 
Q 20.953125 3.328125 18.109375 8.203125 
L 18.109375 0 
L 9.078125 0 
L 9.078125 75.984375 
L 18.109375 75.984375 
z
" id="DejaVuSans-98"/>
      <path d="M 32.171875 -5.078125 
Q 28.375 -14.84375 24.75 -17.8125 
Q 21.140625 -20.796875 15.09375 -20.796875 
L 7.90625 -20.796875 
L 7.90625 -13.28125 
L 13.1875 -13.28125 
Q 16.890625 -13.28125 18.9375 -11.515625 
Q 21 -9.765625 23.484375 -3.21875 
L 25.09375 0.875 
L 2.984375 54.6875 
L 12.5 54.6875 
L 29.59375 11.921875 
L 46.6875 54.6875 
L 56.203125 54.6875 
z
" id="DejaVuSans-121"/>
      <path d="M 19.1875 8.296875 
L 53.609375 8.296875 
L 53.609375 0 
L 7.328125 0 
L 7.328125 8.296875 
Q 12.9375 14.109375 22.625 23.890625 
Q 32.328125 33.6875 34.8125 36.53125 
Q 39.546875 41.84375 41.421875 45.53125 
Q 43.3125 49.21875 43.3125 52.78125 
Q 43.3125 58.59375 39.234375 62.25 
Q 35.15625 65.921875 28.609375 65.921875 
Q 23.96875 65.921875 18.8125 64.3125 
Q 13.671875 62.703125 7.8125 59.421875 
L 7.8125 69.390625 
Q 13.765625 71.78125 18.9375 73 
Q 24.125 74.21875 28.421875 74.21875 
Q 39.75 74.21875 46.484375 68.546875 
Q 53.21875 62.890625 53.21875 53.421875 
Q 53.21875 48.921875 51.53125 44.890625 
Q 49.859375 40.875 45.40625 35.40625 
Q 44.1875 33.984375 37.640625 27.21875 
Q 31.109375 20.453125 19.1875 8.296875 
z
" id="DejaVuSans-50"/>
      <path d="M 11.71875 12.40625 
L 22.015625 12.40625 
L 22.015625 0 
L 11.71875 0 
z
M 11.71875 51.703125 
L 22.015625 51.703125 
L 22.015625 39.3125 
L 11.71875 39.3125 
z
" id="DejaVuSans-58"/>
      <path d="M 11.71875 12.40625 
L 22.015625 12.40625 
L 22.015625 4 
L 14.015625 -11.625 
L 7.71875 -11.625 
L 11.71875 4 
z
" id="DejaVuSans-44"/>
      <path d="M 25.390625 72.90625 
L 33.6875 72.90625 
L 8.296875 -9.28125 
L 0 -9.28125 
z
" id="DejaVuSans-47"/>
     </defs>
     <use xlink:href="#DejaVuSans-98"/>
     <use x="63.476562" xlink:href="#DejaVuSans-108"/>
     <use x="91.259766" xlink:href="#DejaVuSans-111"/>
     <use x="152.441406" xlink:href="#DejaVuSans-97"/>
     <use x="213.720703" xlink:href="#DejaVuSans-116"/>
     <use x="252.929688" xlink:href="#DejaVuSans-121"/>
     <use x="312.109375" xlink:href="#DejaVuSans-95"/>
     <use x="362.109375" xlink:href="#DejaVuSans-102"/>
     <use x="397.314453" xlink:href="#DejaVuSans-117"/>
     <use x="460.693359" xlink:href="#DejaVuSans-122"/>
     <use x="513.183594" xlink:href="#DejaVuSans-122"/>
     <use x="565.673828" xlink:href="#DejaVuSans-95"/>
     <use x="615.673828" xlink:href="#DejaVuSans-116"/>
     <use x="654.882812" xlink:href="#DejaVuSans-97"/>
     <use x="716.162109" xlink:href="#DejaVuSans-114"/>
     <use x="755.525391" xlink:href="#DejaVuSans-103"/>
     <use x="819.001953" xlink:href="#DejaVuSans-101"/>
     <use x="880.525391" xlink:href="#DejaVuSans-116"/>
     <use x="919.734375" xlink:href="#DejaVuSans-32"/>
     <use x="951.521484" xlink:href="#DejaVuSans-40"/>
     <use x="990.535156" xlink:href="#DejaVuSans-50"/>
     <use x="1054.158203" xlink:href="#DejaVuSans-50"/>
     <use x="1117.78125" xlink:href="#DejaVuSans-104"/>
     <use x="1181.160156" xlink:href="#DejaVuSans-58"/>
     <use x="1214.851562" xlink:href="#DejaVuSans-49"/>
     <use x="1278.474609" xlink:href="#DejaVuSans-53"/>
     <use x="1342.097656" xlink:href="#DejaVuSans-109"/>
     <use x="1439.509766" xlink:href="#DejaVuSans-44"/>
     <use x="1471.296875" xlink:href="#DejaVuSans-32"/>
     <use x="1503.083984" xlink:href="#DejaVuSans-53"/>
     <use x="1566.707031" xlink:href="#DejaVuSans-32"/>
     <use x="1598.494141" xlink:href="#DejaVuSans-116"/>
     <use x="1637.703125" xlink:href="#DejaVuSans-114"/>
     <use x="1678.816406" xlink:href="#DejaVuSans-105"/>
     <use x="1706.599609" xlink:href="#DejaVuSans-97"/>
     <use x="1767.878906" xlink:href="#DejaVuSans-108"/>
     <use x="1795.662109" xlink:href="#DejaVuSans-115"/>
     <use x="1847.761719" xlink:href="#DejaVuSans-47"/>
     <use x="1881.453125" xlink:href="#DejaVuSans-102"/>
     <use x="1916.658203" xlink:href="#DejaVuSans-117"/>
     <use x="1980.037109" xlink:href="#DejaVuSans-122"/>
     <use x="2032.527344" xlink:href="#DejaVuSans-122"/>
     <use x="2085.017578" xlink:href="#DejaVuSans-101"/>
     <use x="2146.541016" xlink:href="#DejaVuSans-114"/>
     <use x="2187.654297" xlink:href="#DejaVuSans-41"/>
    </g>
   </g>
  </g>
 </g>
 <defs>
  <clipPath id="pc360d3d6ed">
   <rect height="266.112" width="357.12" x="53.328125" y="22.318125"/>
  </clipPath>
 </defs>
</svg>
