<?xml version="1.0" encoding="utf-8" standalone="no"?>
<!DOCTYPE svg PUBLIC "-//W3C//DTD SVG 1.1//EN"
  "http://www.w3.org/Graphics/SVG/1.1/DTD/svg11.dtd">
<!-- Created with matplotlib (https://matplotlib.org/) -->
<svg height="325.986375pt" version="1.1" viewBox="0 0 902.505625 325.986375" width="902.505625pt" xmlns="http://www.w3.org/2000/svg" xmlns:xlink="http://www.w3.org/1999/xlink">
 <metadata>
  <rdf:RDF xmlns:cc="http://creativecommons.org/ns#" xmlns:dc="http://purl.org/dc/elements/1.1/" xmlns:rdf="http://www.w3.org/1999/02/22-rdf-syntax-ns#">
   <cc:Work>
    <dc:type rdf:resource="http://purl.org/dc/dcmitype/StillImage"/>
    <dc:date>2020-12-29T17:06:15.818399</dc:date>
    <dc:format>image/svg+xml</dc:format>
    <dc:creator>
     <cc:Agent>
      <dc:title>Matplotlib v3.3.2, https://matplotlib.org/</dc:title>
     </cc:Agent>
    </dc:creator>
   </cc:Work>
  </rdf:RDF>
 </metadata>
 <defs>
  <style type="text/css">*{stroke-linecap:butt;stroke-linejoin:round;}</style>
 </defs>
 <g id="figure_1">
  <g id="patch_1">
   <path d="M 0 325.986375 
L 902.505625 325.986375 
L 902.505625 0 
L 0 0 
z
" style="fill:#ffffff;"/>
  </g>
  <g id="axes_1">
   <g id="patch_2">
    <path d="M 59.690625 288.430125 
L 773.930625 288.430125 
L 773.930625 22.318125 
L 59.690625 22.318125 
z
" style="fill:#ffffff;"/>
   </g>
   <g id="PolyCollection_1">
    <defs>
     <path d="M 92.15608 -81.403315 
L 92.15608 -49.65225 
L 192.424118 -63.314723 
L 251.077161 -75.993571 
L 292.692157 -101.006942 
L 324.971256 -106.791618 
L 351.3452 -117.08314 
L 373.644052 -119.761231 
L 392.960196 -122.982592 
L 409.998243 -126.249863 
L 425.239295 -129.451521 
L 439.026503 -131.942719 
L 451.613239 -132.156967 
L 463.191913 -134.506035 
L 473.912091 -138.867498 
L 483.892337 -164.179284 
L 493.228235 -176.942301 
L 501.997962 -181.500029 
L 510.266281 -182.182751 
L 518.08744 -185.397417 
L 525.507333 -186.886244 
L 532.565133 -193.43169 
L 539.294542 -194.602398 
L 545.724765 -195.10741 
L 551.881277 -195.688938 
L 557.786432 -196.83057 
L 563.459952 -196.530433 
L 568.919324 -197.181018 
L 574.180129 -197.379961 
L 579.256306 -201.198154 
L 584.160376 -201.454677 
L 588.903627 -201.802638 
L 593.496274 -202.192874 
L 597.947585 -202.713189 
L 602.266001 -202.789705 
L 606.459228 -203.26411 
L 610.53432 -203.700256 
L 614.497752 -204.748538 
L 618.355479 -204.89392 
L 622.112994 -205.177032 
L 625.775372 -204.955133 
L 629.347312 -205.781516 
L 632.833172 -206.760932 
L 636.237005 -206.987039 
L 639.562581 -207.071782 
L 642.813419 -208.444303 
L 645.992804 -208.222404 
L 649.10381 -213.374478 
L 652.149316 -213.196002 
L 655.132024 -215.093621 
L 658.054471 -215.284913 
L 660.919044 -215.506812 
L 663.72799 -217.08306 
L 666.48343 -217.519206 
L 669.187363 -219.003634 
L 671.84168 -218.200207 
L 674.448168 -218.253768 
L 677.008522 -218.345589 
L 679.524345 -218.411967 
L 681.997161 -219.721171 
L 684.428415 -218.536881 
L 686.819481 -219.906533 
L 689.171666 -220.166691 
L 691.486215 -219.676982 
L 693.764312 -220.541623 
L 696.007089 -219.998353 
L 698.215624 -220.748219 
L 700.390946 -222.691748 
L 702.53404 -226.854267 
L 704.645847 -225.767727 
L 706.727267 -228.736582 
L 708.779162 -229.2722 
L 710.802359 -229.738953 
L 712.797649 -230.97164 
L 714.765791 -231.131561 
L 716.707514 -231.667179 
L 718.623518 -232.12628 
L 720.514476 -232.210449 
L 722.381033 -232.233404 
L 724.223812 -232.707808 
L 726.043411 -232.952662 
L 727.840406 -233.748438 
L 729.615351 -233.93973 
L 731.368781 -234.360573 
L 733.101211 -234.84263 
L 734.813139 -235.010967 
L 736.505043 -235.194607 
L 738.177388 -235.545246 
L 739.83062 -236.074551 
L 741.46517 -235.806742 
L 741.46517 -291.57225 
L 741.46517 -291.57225 
L 739.83062 -290.84534 
L 738.177388 -289.001283 
L 736.505043 -288.1749 
L 734.813139 -289.674631 
L 733.101211 -287.456024 
L 731.368781 -287.225899 
L 729.615351 -288.504114 
L 727.840406 -285.716795 
L 726.043411 -287.623979 
L 724.223812 -287.140009 
L 722.381033 -282.987055 
L 720.514476 -286.881765 
L 718.623518 -281.387852 
L 716.707514 -279.398413 
L 714.765791 -283.132437 
L 712.797649 -278.824537 
L 710.802359 -281.732178 
L 708.779162 -278.464907 
L 706.727267 -280.921099 
L 704.645847 -277.768603 
L 702.53404 -279.312332 
L 700.390946 -277.715042 
L 698.215624 -273.919804 
L 696.007089 -273.032208 
L 693.764312 -263.429339 
L 691.486215 -258.838326 
L 689.171666 -258.807719 
L 686.819481 -255.555751 
L 684.428415 -254.859447 
L 681.997161 -253.60457 
L 679.524345 -254.652852 
L 677.008522 -253.55866 
L 674.448168 -254.444726 
L 671.84168 -254.377391 
L 669.187363 -252.862357 
L 666.48343 -252.494119 
L 663.72799 -251.898244 
L 660.919044 -253.091907 
L 658.054471 -251.079513 
L 655.132024 -249.893501 
L 652.149316 -248.248388 
L 649.10381 -245.21832 
L 645.992804 -234.429438 
L 642.813419 -233.312483 
L 639.562581 -234.054506 
L 636.237005 -232.106386 
L 632.833172 -231.850819 
L 629.347312 -229.501751 
L 625.775372 -228.04793 
L 622.112994 -227.633208 
L 618.355479 -227.41284 
L 614.497752 -227.971413 
L 610.53432 -226.770098 
L 606.459228 -227.428143 
L 602.266001 -226.46996 
L 597.947585 -226.196221 
L 593.496274 -225.454007 
L 588.903627 -224.704525 
L 584.160376 -224.903086 
L 579.256306 -223.931321 
L 574.180129 -222.668793 
L 568.919324 -223.028422 
L 563.459952 -218.07778 
L 557.786432 -216.99124 
L 551.881277 -214.787553 
L 545.724765 -213.440474 
L 539.294542 -209.821607 
L 532.565133 -208.513169 
L 525.507333 -208.38309 
L 518.08744 -206.898662 
L 510.266281 -205.888639 
L 501.997962 -202.973346 
L 493.228235 -200.807918 
L 483.892337 -199.920322 
L 473.912091 -193.622982 
L 463.191913 -190.103205 
L 451.613239 -188.08316 
L 439.026503 -187.126699 
L 425.239295 -184.609293 
L 409.998243 -176.674492 
L 392.960196 -164.791419 
L 373.644052 -157.621787 
L 351.3452 -146.075388 
L 324.971256 -128.522414 
L 292.692157 -120.419276 
L 251.077161 -108.452035 
L 192.424118 -96.798513 
L 92.15608 -81.403315 
z
" id="mb58cc5ceff" style="stroke:#98df8a;stroke-opacity:0.2;"/>
    </defs>
    <g clip-path="url(#pdc5e933554)">
     <use style="fill:#98df8a;fill-opacity:0.2;stroke:#98df8a;stroke-opacity:0.2;" x="0" xlink:href="#mb58cc5ceff" y="325.986375"/>
    </g>
   </g>
   <g id="PolyCollection_2">
    <defs>
     <path d="M 92.15608 -90.914364 
L 92.15608 -81.531481 
L 192.424118 -92.368185 
L 251.077161 -100.345071 
L 292.692157 -111.956508 
L 324.971256 -116.778029 
L 351.3452 -125.21282 
L 373.644052 -140.268474 
L 392.960196 -148.168125 
L 409.998243 -159.85608 
L 425.239295 -164.210847 
L 439.026503 -167.233264 
L 451.613239 -180.917353 
L 463.191913 -184.571034 
L 473.912091 -186.694378 
L 483.892337 -197.64251 
L 493.228235 -199.9318 
L 501.997962 -204.044582 
L 510.266281 -206.024457 
L 518.08744 -208.205188 
L 525.507333 -210.519824 
L 532.565133 -211.332816 
L 539.294542 -212.442311 
L 545.724765 -216.038604 
L 551.881277 -216.803773 
L 557.786432 -217.014195 
L 563.459952 -217.760234 
L 568.919324 -217.87501 
L 574.180129 -219.338395 
L 579.256306 -220.065306 
L 584.160376 -220.438326 
L 588.903627 -220.438326 
L 593.496274 -220.954815 
L 597.947585 -226.865744 
L 602.266001 -227.860464 
L 606.459228 -229.314284 
L 610.53432 -229.42906 
L 614.497752 -229.448189 
L 618.355479 -228.912571 
L 622.112994 -230.481167 
L 625.775372 -230.796799 
L 629.347312 -232.193232 
L 632.833172 -233.054047 
L 636.237005 -233.063612 
L 639.562581 -233.22621 
L 642.813419 -233.293163 
L 645.992804 -233.790522 
L 649.10381 -233.828781 
L 652.149316 -233.111435 
L 655.132024 -233.379244 
L 658.054471 -234.813936 
L 660.919044 -234.928711 
L 663.72799 -235.330425 
L 666.48343 -235.406942 
L 669.187363 -235.253908 
L 671.84168 -236.656319 
L 674.448168 -236.946844 
L 677.008522 -237.16683 
L 679.524345 -238.668474 
L 681.997161 -239.194528 
L 684.428415 -239.223221 
L 686.819481 -239.318868 
L 689.171666 -239.357126 
L 691.486215 -239.816227 
L 693.764312 -239.902309 
L 696.007089 -240.332716 
L 698.215624 -240.332716 
L 700.390946 -240.992674 
L 702.53404 -241.83723 
L 704.645847 -241.968265 
L 706.727267 -242.283897 
L 708.779162 -242.283897 
L 710.802359 -245.268056 
L 712.797649 -245.574123 
L 714.765791 -246.061918 
L 716.707514 -246.683618 
L 718.623518 -248.577411 
L 720.514476 -248.988689 
L 722.381033 -249.21824 
L 724.223812 -249.313886 
L 726.043411 -249.313886 
L 727.840406 -249.457355 
L 729.615351 -249.878915 
L 731.368781 -249.94515 
L 733.101211 -249.973844 
L 734.813139 -250.088619 
L 736.505043 -250.098184 
L 738.177388 -250.098184 
L 739.83062 -250.136442 
L 741.46517 -250.136442 
L 741.46517 -255.942161 
L 741.46517 -255.942161 
L 739.83062 -255.942161 
L 738.177388 -255.913467 
L 736.505043 -255.85608 
L 734.813139 -255.85608 
L 733.101211 -255.85608 
L 731.368781 -255.846515 
L 729.615351 -255.562446 
L 727.840406 -255.674352 
L 726.043411 -255.674352 
L 724.223812 -255.913467 
L 722.381033 -255.674352 
L 720.514476 -255.674352 
L 718.623518 -255.616965 
L 716.707514 -255.569142 
L 714.765791 -255.530883 
L 712.797649 -255.559577 
L 710.802359 -254.650939 
L 708.779162 -254.306613 
L 706.727267 -254.220531 
L 704.645847 -253.03452 
L 702.53404 -251.236373 
L 700.390946 -250.729448 
L 698.215624 -249.533872 
L 696.007089 -249.113029 
L 693.764312 -247.793113 
L 691.486215 -246.855781 
L 689.171666 -246.836652 
L 686.819481 -246.760135 
L 684.428415 -246.530584 
L 681.997161 -246.530584 
L 679.524345 -245.975837 
L 677.008522 -245.382831 
L 674.448168 -245.000246 
L 671.84168 -244.847213 
L 669.187363 -244.694179 
L 666.48343 -244.675767 
L 663.72799 -244.435934 
L 660.919044 -244.206384 
L 658.054471 -243.890752 
L 655.132024 -243.68033 
L 652.149316 -242.465625 
L 649.10381 -242.360414 
L 645.992804 -241.882183 
L 642.813419 -241.403953 
L 639.562581 -241.346565 
L 636.237005 -241.757843 
L 632.833172 -241.23179 
L 629.347312 -240.581396 
L 625.775372 -239.98839 
L 622.112994 -239.75884 
L 618.355479 -239.299738 
L 614.497752 -237.807659 
L 610.53432 -236.679035 
L 606.459228 -234.84263 
L 602.266001 -234.09659 
L 597.947585 -230.538555 
L 593.496274 -230.538555 
L 588.903627 -229.352543 
L 584.160376 -229.122992 
L 579.256306 -227.879593 
L 574.180129 -226.808356 
L 568.919324 -225.73712 
L 563.459952 -225.354536 
L 557.786432 -224.780659 
L 551.881277 -224.378945 
L 545.724765 -223.977232 
L 539.294542 -218.12369 
L 532.565133 -217.473296 
L 525.507333 -217.262875 
L 518.08744 -215.866441 
L 510.266281 -215.694278 
L 501.997962 -215.03432 
L 493.228235 -213.111834 
L 483.892337 -211.849305 
L 473.912091 -209.123391 
L 463.191913 -208.578208 
L 451.613239 -207.181775 
L 439.026503 -198.994468 
L 425.239295 -197.291967 
L 409.998243 -195.168623 
L 392.960196 -184.102369 
L 373.644052 -173.60999 
L 351.3452 -156.278915 
L 324.971256 -141.91287 
L 292.692157 -135.294159 
L 251.077161 -120.679433 
L 192.424118 -99.273834 
L 92.15608 -90.914364 
z
" id="m27db3fbce2" style="stroke:#1f77b4;stroke-opacity:0.2;"/>
    </defs>
    <g clip-path="url(#pdc5e933554)">
     <use style="fill:#1f77b4;fill-opacity:0.2;stroke:#1f77b4;stroke-opacity:0.2;" x="0" xlink:href="#m27db3fbce2" y="325.986375"/>
    </g>
   </g>
   <g id="matplotlib.axis_1">
    <g id="xtick_1">
     <g id="line2d_1">
      <defs>
       <path d="M 0 0 
L 0 3.5 
" id="mfd0f01e5e1" style="stroke:#000000;stroke-width:0.8;"/>
      </defs>
      <g>
       <use style="stroke:#000000;stroke-width:0.8;" x="92.15608" xlink:href="#mfd0f01e5e1" y="288.430125"/>
      </g>
     </g>
     <g id="text_1">
      <!-- 14m -->
      <g transform="translate(80.923267 303.028562)scale(0.1 -0.1)">
       <defs>
        <path d="M 12.40625 8.296875 
L 28.515625 8.296875 
L 28.515625 63.921875 
L 10.984375 60.40625 
L 10.984375 69.390625 
L 28.421875 72.90625 
L 38.28125 72.90625 
L 38.28125 8.296875 
L 54.390625 8.296875 
L 54.390625 0 
L 12.40625 0 
z
" id="DejaVuSans-49"/>
        <path d="M 37.796875 64.3125 
L 12.890625 25.390625 
L 37.796875 25.390625 
z
M 35.203125 72.90625 
L 47.609375 72.90625 
L 47.609375 25.390625 
L 58.015625 25.390625 
L 58.015625 17.1875 
L 47.609375 17.1875 
L 47.609375 0 
L 37.796875 0 
L 37.796875 17.1875 
L 4.890625 17.1875 
L 4.890625 26.703125 
z
" id="DejaVuSans-52"/>
        <path d="M 52 44.1875 
Q 55.375 50.25 60.0625 53.125 
Q 64.75 56 71.09375 56 
Q 79.640625 56 84.28125 50.015625 
Q 88.921875 44.046875 88.921875 33.015625 
L 88.921875 0 
L 79.890625 0 
L 79.890625 32.71875 
Q 79.890625 40.578125 77.09375 44.375 
Q 74.3125 48.1875 68.609375 48.1875 
Q 61.625 48.1875 57.5625 43.546875 
Q 53.515625 38.921875 53.515625 30.90625 
L 53.515625 0 
L 44.484375 0 
L 44.484375 32.71875 
Q 44.484375 40.625 41.703125 44.40625 
Q 38.921875 48.1875 33.109375 48.1875 
Q 26.21875 48.1875 22.15625 43.53125 
Q 18.109375 38.875 18.109375 30.90625 
L 18.109375 0 
L 9.078125 0 
L 9.078125 54.6875 
L 18.109375 54.6875 
L 18.109375 46.1875 
Q 21.1875 51.21875 25.484375 53.609375 
Q 29.78125 56 35.6875 56 
Q 41.65625 56 45.828125 52.96875 
Q 50 49.953125 52 44.1875 
z
" id="DejaVuSans-109"/>
       </defs>
       <use xlink:href="#DejaVuSans-49"/>
       <use x="63.623047" xlink:href="#DejaVuSans-52"/>
       <use x="127.246094" xlink:href="#DejaVuSans-109"/>
      </g>
     </g>
    </g>
    <g id="xtick_2">
     <g id="line2d_2">
      <g>
       <use style="stroke:#000000;stroke-width:0.8;" x="151.184343" xlink:href="#mfd0f01e5e1" y="288.430125"/>
      </g>
     </g>
     <g id="text_2">
      <!-- 22m -->
      <g transform="translate(139.95153 303.028562)scale(0.1 -0.1)">
       <defs>
        <path d="M 19.1875 8.296875 
L 53.609375 8.296875 
L 53.609375 0 
L 7.328125 0 
L 7.328125 8.296875 
Q 12.9375 14.109375 22.625 23.890625 
Q 32.328125 33.6875 34.8125 36.53125 
Q 39.546875 41.84375 41.421875 45.53125 
Q 43.3125 49.21875 43.3125 52.78125 
Q 43.3125 58.59375 39.234375 62.25 
Q 35.15625 65.921875 28.609375 65.921875 
Q 23.96875 65.921875 18.8125 64.3125 
Q 13.671875 62.703125 7.8125 59.421875 
L 7.8125 69.390625 
Q 13.765625 71.78125 18.9375 73 
Q 24.125 74.21875 28.421875 74.21875 
Q 39.75 74.21875 46.484375 68.546875 
Q 53.21875 62.890625 53.21875 53.421875 
Q 53.21875 48.921875 51.53125 44.890625 
Q 49.859375 40.875 45.40625 35.40625 
Q 44.1875 33.984375 37.640625 27.21875 
Q 31.109375 20.453125 19.1875 8.296875 
z
" id="DejaVuSans-50"/>
       </defs>
       <use xlink:href="#DejaVuSans-50"/>
       <use x="63.623047" xlink:href="#DejaVuSans-50"/>
       <use x="127.246094" xlink:href="#DejaVuSans-109"/>
      </g>
     </g>
    </g>
    <g id="xtick_3">
     <g id="line2d_3">
      <g>
       <use style="stroke:#000000;stroke-width:0.8;" x="210.212606" xlink:href="#mfd0f01e5e1" y="288.430125"/>
      </g>
     </g>
     <g id="text_3">
      <!-- 33m -->
      <g transform="translate(198.979794 303.028562)scale(0.1 -0.1)">
       <defs>
        <path d="M 40.578125 39.3125 
Q 47.65625 37.796875 51.625 33 
Q 55.609375 28.21875 55.609375 21.1875 
Q 55.609375 10.40625 48.1875 4.484375 
Q 40.765625 -1.421875 27.09375 -1.421875 
Q 22.515625 -1.421875 17.65625 -0.515625 
Q 12.796875 0.390625 7.625 2.203125 
L 7.625 11.71875 
Q 11.71875 9.328125 16.59375 8.109375 
Q 21.484375 6.890625 26.8125 6.890625 
Q 36.078125 6.890625 40.9375 10.546875 
Q 45.796875 14.203125 45.796875 21.1875 
Q 45.796875 27.640625 41.28125 31.265625 
Q 36.765625 34.90625 28.71875 34.90625 
L 20.21875 34.90625 
L 20.21875 43.015625 
L 29.109375 43.015625 
Q 36.375 43.015625 40.234375 45.921875 
Q 44.09375 48.828125 44.09375 54.296875 
Q 44.09375 59.90625 40.109375 62.90625 
Q 36.140625 65.921875 28.71875 65.921875 
Q 24.65625 65.921875 20.015625 65.03125 
Q 15.375 64.15625 9.8125 62.3125 
L 9.8125 71.09375 
Q 15.4375 72.65625 20.34375 73.4375 
Q 25.25 74.21875 29.59375 74.21875 
Q 40.828125 74.21875 47.359375 69.109375 
Q 53.90625 64.015625 53.90625 55.328125 
Q 53.90625 49.265625 50.4375 45.09375 
Q 46.96875 40.921875 40.578125 39.3125 
z
" id="DejaVuSans-51"/>
       </defs>
       <use xlink:href="#DejaVuSans-51"/>
       <use x="63.623047" xlink:href="#DejaVuSans-51"/>
       <use x="127.246094" xlink:href="#DejaVuSans-109"/>
      </g>
     </g>
    </g>
    <g id="xtick_4">
     <g id="line2d_4">
      <g>
       <use style="stroke:#000000;stroke-width:0.8;" x="269.24087" xlink:href="#mfd0f01e5e1" y="288.430125"/>
      </g>
     </g>
     <g id="text_4">
      <!-- 51m -->
      <g transform="translate(258.008057 303.028562)scale(0.1 -0.1)">
       <defs>
        <path d="M 10.796875 72.90625 
L 49.515625 72.90625 
L 49.515625 64.59375 
L 19.828125 64.59375 
L 19.828125 46.734375 
Q 21.96875 47.46875 24.109375 47.828125 
Q 26.265625 48.1875 28.421875 48.1875 
Q 40.625 48.1875 47.75 41.5 
Q 54.890625 34.8125 54.890625 23.390625 
Q 54.890625 11.625 47.5625 5.09375 
Q 40.234375 -1.421875 26.90625 -1.421875 
Q 22.3125 -1.421875 17.546875 -0.640625 
Q 12.796875 0.140625 7.71875 1.703125 
L 7.71875 11.625 
Q 12.109375 9.234375 16.796875 8.0625 
Q 21.484375 6.890625 26.703125 6.890625 
Q 35.15625 6.890625 40.078125 11.328125 
Q 45.015625 15.765625 45.015625 23.390625 
Q 45.015625 31 40.078125 35.4375 
Q 35.15625 39.890625 26.703125 39.890625 
Q 22.75 39.890625 18.8125 39.015625 
Q 14.890625 38.140625 10.796875 36.28125 
z
" id="DejaVuSans-53"/>
       </defs>
       <use xlink:href="#DejaVuSans-53"/>
       <use x="63.623047" xlink:href="#DejaVuSans-49"/>
       <use x="127.246094" xlink:href="#DejaVuSans-109"/>
      </g>
     </g>
    </g>
    <g id="xtick_5">
     <g id="line2d_5">
      <g>
       <use style="stroke:#000000;stroke-width:0.8;" x="328.269133" xlink:href="#mfd0f01e5e1" y="288.430125"/>
      </g>
     </g>
     <g id="text_5">
      <!-- 1h:16m -->
      <g transform="translate(309.001945 303.028562)scale(0.1 -0.1)">
       <defs>
        <path d="M 54.890625 33.015625 
L 54.890625 0 
L 45.90625 0 
L 45.90625 32.71875 
Q 45.90625 40.484375 42.875 44.328125 
Q 39.84375 48.1875 33.796875 48.1875 
Q 26.515625 48.1875 22.3125 43.546875 
Q 18.109375 38.921875 18.109375 30.90625 
L 18.109375 0 
L 9.078125 0 
L 9.078125 75.984375 
L 18.109375 75.984375 
L 18.109375 46.1875 
Q 21.34375 51.125 25.703125 53.5625 
Q 30.078125 56 35.796875 56 
Q 45.21875 56 50.046875 50.171875 
Q 54.890625 44.34375 54.890625 33.015625 
z
" id="DejaVuSans-104"/>
        <path d="M 11.71875 12.40625 
L 22.015625 12.40625 
L 22.015625 0 
L 11.71875 0 
z
M 11.71875 51.703125 
L 22.015625 51.703125 
L 22.015625 39.3125 
L 11.71875 39.3125 
z
" id="DejaVuSans-58"/>
        <path d="M 33.015625 40.375 
Q 26.375 40.375 22.484375 35.828125 
Q 18.609375 31.296875 18.609375 23.390625 
Q 18.609375 15.53125 22.484375 10.953125 
Q 26.375 6.390625 33.015625 6.390625 
Q 39.65625 6.390625 43.53125 10.953125 
Q 47.40625 15.53125 47.40625 23.390625 
Q 47.40625 31.296875 43.53125 35.828125 
Q 39.65625 40.375 33.015625 40.375 
z
M 52.59375 71.296875 
L 52.59375 62.3125 
Q 48.875 64.0625 45.09375 64.984375 
Q 41.3125 65.921875 37.59375 65.921875 
Q 27.828125 65.921875 22.671875 59.328125 
Q 17.53125 52.734375 16.796875 39.40625 
Q 19.671875 43.65625 24.015625 45.921875 
Q 28.375 48.1875 33.59375 48.1875 
Q 44.578125 48.1875 50.953125 41.515625 
Q 57.328125 34.859375 57.328125 23.390625 
Q 57.328125 12.15625 50.6875 5.359375 
Q 44.046875 -1.421875 33.015625 -1.421875 
Q 20.359375 -1.421875 13.671875 8.265625 
Q 6.984375 17.96875 6.984375 36.375 
Q 6.984375 53.65625 15.1875 63.9375 
Q 23.390625 74.21875 37.203125 74.21875 
Q 40.921875 74.21875 44.703125 73.484375 
Q 48.484375 72.75 52.59375 71.296875 
z
" id="DejaVuSans-54"/>
       </defs>
       <use xlink:href="#DejaVuSans-49"/>
       <use x="63.623047" xlink:href="#DejaVuSans-104"/>
       <use x="127.001953" xlink:href="#DejaVuSans-58"/>
       <use x="160.693359" xlink:href="#DejaVuSans-49"/>
       <use x="224.316406" xlink:href="#DejaVuSans-54"/>
       <use x="287.939453" xlink:href="#DejaVuSans-109"/>
      </g>
     </g>
    </g>
    <g id="xtick_6">
     <g id="line2d_6">
      <g>
       <use style="stroke:#000000;stroke-width:0.8;" x="387.297396" xlink:href="#mfd0f01e5e1" y="288.430125"/>
      </g>
     </g>
     <g id="text_6">
      <!-- 1h:55m -->
      <g transform="translate(368.030209 303.028562)scale(0.1 -0.1)">
       <use xlink:href="#DejaVuSans-49"/>
       <use x="63.623047" xlink:href="#DejaVuSans-104"/>
       <use x="127.001953" xlink:href="#DejaVuSans-58"/>
       <use x="160.693359" xlink:href="#DejaVuSans-53"/>
       <use x="224.316406" xlink:href="#DejaVuSans-53"/>
       <use x="287.939453" xlink:href="#DejaVuSans-109"/>
      </g>
     </g>
    </g>
    <g id="xtick_7">
     <g id="line2d_7">
      <g>
       <use style="stroke:#000000;stroke-width:0.8;" x="446.32566" xlink:href="#mfd0f01e5e1" y="288.430125"/>
      </g>
     </g>
     <g id="text_7">
      <!-- 2h:53m -->
      <g transform="translate(427.058472 303.028562)scale(0.1 -0.1)">
       <use xlink:href="#DejaVuSans-50"/>
       <use x="63.623047" xlink:href="#DejaVuSans-104"/>
       <use x="127.001953" xlink:href="#DejaVuSans-58"/>
       <use x="160.693359" xlink:href="#DejaVuSans-53"/>
       <use x="224.316406" xlink:href="#DejaVuSans-51"/>
       <use x="287.939453" xlink:href="#DejaVuSans-109"/>
      </g>
     </g>
    </g>
    <g id="xtick_8">
     <g id="line2d_8">
      <g>
       <use style="stroke:#000000;stroke-width:0.8;" x="505.353923" xlink:href="#mfd0f01e5e1" y="288.430125"/>
      </g>
     </g>
     <g id="text_8">
      <!-- 4h:20m -->
      <g transform="translate(486.086735 303.028562)scale(0.1 -0.1)">
       <defs>
        <path d="M 31.78125 66.40625 
Q 24.171875 66.40625 20.328125 58.90625 
Q 16.5 51.421875 16.5 36.375 
Q 16.5 21.390625 20.328125 13.890625 
Q 24.171875 6.390625 31.78125 6.390625 
Q 39.453125 6.390625 43.28125 13.890625 
Q 47.125 21.390625 47.125 36.375 
Q 47.125 51.421875 43.28125 58.90625 
Q 39.453125 66.40625 31.78125 66.40625 
z
M 31.78125 74.21875 
Q 44.046875 74.21875 50.515625 64.515625 
Q 56.984375 54.828125 56.984375 36.375 
Q 56.984375 17.96875 50.515625 8.265625 
Q 44.046875 -1.421875 31.78125 -1.421875 
Q 19.53125 -1.421875 13.0625 8.265625 
Q 6.59375 17.96875 6.59375 36.375 
Q 6.59375 54.828125 13.0625 64.515625 
Q 19.53125 74.21875 31.78125 74.21875 
z
" id="DejaVuSans-48"/>
       </defs>
       <use xlink:href="#DejaVuSans-52"/>
       <use x="63.623047" xlink:href="#DejaVuSans-104"/>
       <use x="127.001953" xlink:href="#DejaVuSans-58"/>
       <use x="160.693359" xlink:href="#DejaVuSans-50"/>
       <use x="224.316406" xlink:href="#DejaVuSans-48"/>
       <use x="287.939453" xlink:href="#DejaVuSans-109"/>
      </g>
     </g>
    </g>
    <g id="xtick_9">
     <g id="line2d_9">
      <g>
       <use style="stroke:#000000;stroke-width:0.8;" x="564.382186" xlink:href="#mfd0f01e5e1" y="288.430125"/>
      </g>
     </g>
     <g id="text_9">
      <!-- 6h:32m -->
      <g transform="translate(545.114999 303.028562)scale(0.1 -0.1)">
       <use xlink:href="#DejaVuSans-54"/>
       <use x="63.623047" xlink:href="#DejaVuSans-104"/>
       <use x="127.001953" xlink:href="#DejaVuSans-58"/>
       <use x="160.693359" xlink:href="#DejaVuSans-51"/>
       <use x="224.316406" xlink:href="#DejaVuSans-50"/>
       <use x="287.939453" xlink:href="#DejaVuSans-109"/>
      </g>
     </g>
    </g>
    <g id="xtick_10">
     <g id="line2d_10">
      <g>
       <use style="stroke:#000000;stroke-width:0.8;" x="623.41045" xlink:href="#mfd0f01e5e1" y="288.430125"/>
      </g>
     </g>
     <g id="text_10">
      <!-- 9h:50m -->
      <g transform="translate(604.143262 303.028562)scale(0.1 -0.1)">
       <defs>
        <path d="M 10.984375 1.515625 
L 10.984375 10.5 
Q 14.703125 8.734375 18.5 7.8125 
Q 22.3125 6.890625 25.984375 6.890625 
Q 35.75 6.890625 40.890625 13.453125 
Q 46.046875 20.015625 46.78125 33.40625 
Q 43.953125 29.203125 39.59375 26.953125 
Q 35.25 24.703125 29.984375 24.703125 
Q 19.046875 24.703125 12.671875 31.3125 
Q 6.296875 37.9375 6.296875 49.421875 
Q 6.296875 60.640625 12.9375 67.421875 
Q 19.578125 74.21875 30.609375 74.21875 
Q 43.265625 74.21875 49.921875 64.515625 
Q 56.59375 54.828125 56.59375 36.375 
Q 56.59375 19.140625 48.40625 8.859375 
Q 40.234375 -1.421875 26.421875 -1.421875 
Q 22.703125 -1.421875 18.890625 -0.6875 
Q 15.09375 0.046875 10.984375 1.515625 
z
M 30.609375 32.421875 
Q 37.25 32.421875 41.125 36.953125 
Q 45.015625 41.5 45.015625 49.421875 
Q 45.015625 57.28125 41.125 61.84375 
Q 37.25 66.40625 30.609375 66.40625 
Q 23.96875 66.40625 20.09375 61.84375 
Q 16.21875 57.28125 16.21875 49.421875 
Q 16.21875 41.5 20.09375 36.953125 
Q 23.96875 32.421875 30.609375 32.421875 
z
" id="DejaVuSans-57"/>
       </defs>
       <use xlink:href="#DejaVuSans-57"/>
       <use x="63.623047" xlink:href="#DejaVuSans-104"/>
       <use x="127.001953" xlink:href="#DejaVuSans-58"/>
       <use x="160.693359" xlink:href="#DejaVuSans-53"/>
       <use x="224.316406" xlink:href="#DejaVuSans-48"/>
       <use x="287.939453" xlink:href="#DejaVuSans-109"/>
      </g>
     </g>
    </g>
    <g id="xtick_11">
     <g id="line2d_11">
      <g>
       <use style="stroke:#000000;stroke-width:0.8;" x="682.438713" xlink:href="#mfd0f01e5e1" y="288.430125"/>
      </g>
     </g>
     <g id="text_11">
      <!-- 14h:47m -->
      <g transform="translate(659.990276 303.028562)scale(0.1 -0.1)">
       <defs>
        <path d="M 8.203125 72.90625 
L 55.078125 72.90625 
L 55.078125 68.703125 
L 28.609375 0 
L 18.3125 0 
L 43.21875 64.59375 
L 8.203125 64.59375 
z
" id="DejaVuSans-55"/>
       </defs>
       <use xlink:href="#DejaVuSans-49"/>
       <use x="63.623047" xlink:href="#DejaVuSans-52"/>
       <use x="127.246094" xlink:href="#DejaVuSans-104"/>
       <use x="190.625" xlink:href="#DejaVuSans-58"/>
       <use x="224.316406" xlink:href="#DejaVuSans-52"/>
       <use x="287.939453" xlink:href="#DejaVuSans-55"/>
       <use x="351.5625" xlink:href="#DejaVuSans-109"/>
      </g>
     </g>
    </g>
    <g id="xtick_12">
     <g id="line2d_12">
      <g>
       <use style="stroke:#000000;stroke-width:0.8;" x="741.466976" xlink:href="#mfd0f01e5e1" y="288.430125"/>
      </g>
     </g>
     <g id="text_12">
      <!-- 22h:15m -->
      <g transform="translate(719.018539 303.028562)scale(0.1 -0.1)">
       <use xlink:href="#DejaVuSans-50"/>
       <use x="63.623047" xlink:href="#DejaVuSans-50"/>
       <use x="127.246094" xlink:href="#DejaVuSans-104"/>
       <use x="190.625" xlink:href="#DejaVuSans-58"/>
       <use x="224.316406" xlink:href="#DejaVuSans-49"/>
       <use x="287.939453" xlink:href="#DejaVuSans-53"/>
       <use x="351.5625" xlink:href="#DejaVuSans-109"/>
      </g>
     </g>
    </g>
    <g id="xtick_13">
     <g id="line2d_13">
      <defs>
       <path d="M 0 0 
L 0 2 
" id="mea2f607762" style="stroke:#000000;stroke-width:0.6;"/>
      </defs>
      <g>
       <use style="stroke:#000000;stroke-width:0.6;" x="75.118033" xlink:href="#mea2f607762" y="288.430125"/>
      </g>
     </g>
    </g>
    <g id="xtick_14">
     <g id="line2d_14">
      <g>
       <use style="stroke:#000000;stroke-width:0.6;" x="207.66517" xlink:href="#mea2f607762" y="288.430125"/>
      </g>
     </g>
    </g>
    <g id="xtick_15">
     <g id="line2d_15">
      <g>
       <use style="stroke:#000000;stroke-width:0.6;" x="266.318213" xlink:href="#mea2f607762" y="288.430125"/>
      </g>
     </g>
    </g>
    <g id="xtick_16">
     <g id="line2d_16">
      <g>
       <use style="stroke:#000000;stroke-width:0.6;" x="307.933209" xlink:href="#mea2f607762" y="288.430125"/>
      </g>
     </g>
    </g>
    <g id="xtick_17">
     <g id="line2d_17">
      <g>
       <use style="stroke:#000000;stroke-width:0.6;" x="340.212308" xlink:href="#mea2f607762" y="288.430125"/>
      </g>
     </g>
    </g>
    <g id="xtick_18">
     <g id="line2d_18">
      <g>
       <use style="stroke:#000000;stroke-width:0.6;" x="366.586252" xlink:href="#mea2f607762" y="288.430125"/>
      </g>
     </g>
    </g>
    <g id="xtick_19">
     <g id="line2d_19">
      <g>
       <use style="stroke:#000000;stroke-width:0.6;" x="388.885104" xlink:href="#mea2f607762" y="288.430125"/>
      </g>
     </g>
    </g>
    <g id="xtick_20">
     <g id="line2d_20">
      <g>
       <use style="stroke:#000000;stroke-width:0.6;" x="408.201248" xlink:href="#mea2f607762" y="288.430125"/>
      </g>
     </g>
    </g>
    <g id="xtick_21">
     <g id="line2d_21">
      <g>
       <use style="stroke:#000000;stroke-width:0.6;" x="425.239295" xlink:href="#mea2f607762" y="288.430125"/>
      </g>
     </g>
    </g>
    <g id="xtick_22">
     <g id="line2d_22">
      <g>
       <use style="stroke:#000000;stroke-width:0.6;" x="540.748386" xlink:href="#mea2f607762" y="288.430125"/>
      </g>
     </g>
    </g>
    <g id="xtick_23">
     <g id="line2d_23">
      <g>
       <use style="stroke:#000000;stroke-width:0.6;" x="599.401428" xlink:href="#mea2f607762" y="288.430125"/>
      </g>
     </g>
    </g>
    <g id="xtick_24">
     <g id="line2d_24">
      <g>
       <use style="stroke:#000000;stroke-width:0.6;" x="641.016424" xlink:href="#mea2f607762" y="288.430125"/>
      </g>
     </g>
    </g>
    <g id="xtick_25">
     <g id="line2d_25">
      <g>
       <use style="stroke:#000000;stroke-width:0.6;" x="673.295523" xlink:href="#mea2f607762" y="288.430125"/>
      </g>
     </g>
    </g>
    <g id="xtick_26">
     <g id="line2d_26">
      <g>
       <use style="stroke:#000000;stroke-width:0.6;" x="699.669467" xlink:href="#mea2f607762" y="288.430125"/>
      </g>
     </g>
    </g>
    <g id="xtick_27">
     <g id="line2d_27">
      <g>
       <use style="stroke:#000000;stroke-width:0.6;" x="721.968319" xlink:href="#mea2f607762" y="288.430125"/>
      </g>
     </g>
    </g>
    <g id="xtick_28">
     <g id="line2d_28">
      <g>
       <use style="stroke:#000000;stroke-width:0.6;" x="741.284463" xlink:href="#mea2f607762" y="288.430125"/>
      </g>
     </g>
    </g>
    <g id="xtick_29">
     <g id="line2d_29">
      <g>
       <use style="stroke:#000000;stroke-width:0.6;" x="758.32251" xlink:href="#mea2f607762" y="288.430125"/>
      </g>
     </g>
    </g>
    <g id="text_13">
     <!-- Time (hour:minute) -->
     <g transform="translate(368.403594 316.706687)scale(0.1 -0.1)">
      <defs>
       <path d="M -0.296875 72.90625 
L 61.375 72.90625 
L 61.375 64.59375 
L 35.5 64.59375 
L 35.5 0 
L 25.59375 0 
L 25.59375 64.59375 
L -0.296875 64.59375 
z
" id="DejaVuSans-84"/>
       <path d="M 9.421875 54.6875 
L 18.40625 54.6875 
L 18.40625 0 
L 9.421875 0 
z
M 9.421875 75.984375 
L 18.40625 75.984375 
L 18.40625 64.59375 
L 9.421875 64.59375 
z
" id="DejaVuSans-105"/>
       <path d="M 56.203125 29.59375 
L 56.203125 25.203125 
L 14.890625 25.203125 
Q 15.484375 15.921875 20.484375 11.0625 
Q 25.484375 6.203125 34.421875 6.203125 
Q 39.59375 6.203125 44.453125 7.46875 
Q 49.3125 8.734375 54.109375 11.28125 
L 54.109375 2.78125 
Q 49.265625 0.734375 44.1875 -0.34375 
Q 39.109375 -1.421875 33.890625 -1.421875 
Q 20.796875 -1.421875 13.15625 6.1875 
Q 5.515625 13.8125 5.515625 26.8125 
Q 5.515625 40.234375 12.765625 48.109375 
Q 20.015625 56 32.328125 56 
Q 43.359375 56 49.78125 48.890625 
Q 56.203125 41.796875 56.203125 29.59375 
z
M 47.21875 32.234375 
Q 47.125 39.59375 43.09375 43.984375 
Q 39.0625 48.390625 32.421875 48.390625 
Q 24.90625 48.390625 20.390625 44.140625 
Q 15.875 39.890625 15.1875 32.171875 
z
" id="DejaVuSans-101"/>
       <path id="DejaVuSans-32"/>
       <path d="M 31 75.875 
Q 24.46875 64.65625 21.28125 53.65625 
Q 18.109375 42.671875 18.109375 31.390625 
Q 18.109375 20.125 21.3125 9.0625 
Q 24.515625 -2 31 -13.1875 
L 23.1875 -13.1875 
Q 15.875 -1.703125 12.234375 9.375 
Q 8.59375 20.453125 8.59375 31.390625 
Q 8.59375 42.28125 12.203125 53.3125 
Q 15.828125 64.359375 23.1875 75.875 
z
" id="DejaVuSans-40"/>
       <path d="M 30.609375 48.390625 
Q 23.390625 48.390625 19.1875 42.75 
Q 14.984375 37.109375 14.984375 27.296875 
Q 14.984375 17.484375 19.15625 11.84375 
Q 23.34375 6.203125 30.609375 6.203125 
Q 37.796875 6.203125 41.984375 11.859375 
Q 46.1875 17.53125 46.1875 27.296875 
Q 46.1875 37.015625 41.984375 42.703125 
Q 37.796875 48.390625 30.609375 48.390625 
z
M 30.609375 56 
Q 42.328125 56 49.015625 48.375 
Q 55.71875 40.765625 55.71875 27.296875 
Q 55.71875 13.875 49.015625 6.21875 
Q 42.328125 -1.421875 30.609375 -1.421875 
Q 18.84375 -1.421875 12.171875 6.21875 
Q 5.515625 13.875 5.515625 27.296875 
Q 5.515625 40.765625 12.171875 48.375 
Q 18.84375 56 30.609375 56 
z
" id="DejaVuSans-111"/>
       <path d="M 8.5 21.578125 
L 8.5 54.6875 
L 17.484375 54.6875 
L 17.484375 21.921875 
Q 17.484375 14.15625 20.5 10.265625 
Q 23.53125 6.390625 29.59375 6.390625 
Q 36.859375 6.390625 41.078125 11.03125 
Q 45.3125 15.671875 45.3125 23.6875 
L 45.3125 54.6875 
L 54.296875 54.6875 
L 54.296875 0 
L 45.3125 0 
L 45.3125 8.40625 
Q 42.046875 3.421875 37.71875 1 
Q 33.40625 -1.421875 27.6875 -1.421875 
Q 18.265625 -1.421875 13.375 4.4375 
Q 8.5 10.296875 8.5 21.578125 
z
M 31.109375 56 
z
" id="DejaVuSans-117"/>
       <path d="M 41.109375 46.296875 
Q 39.59375 47.171875 37.8125 47.578125 
Q 36.03125 48 33.890625 48 
Q 26.265625 48 22.1875 43.046875 
Q 18.109375 38.09375 18.109375 28.8125 
L 18.109375 0 
L 9.078125 0 
L 9.078125 54.6875 
L 18.109375 54.6875 
L 18.109375 46.1875 
Q 20.953125 51.171875 25.484375 53.578125 
Q 30.03125 56 36.53125 56 
Q 37.453125 56 38.578125 55.875 
Q 39.703125 55.765625 41.0625 55.515625 
z
" id="DejaVuSans-114"/>
       <path d="M 54.890625 33.015625 
L 54.890625 0 
L 45.90625 0 
L 45.90625 32.71875 
Q 45.90625 40.484375 42.875 44.328125 
Q 39.84375 48.1875 33.796875 48.1875 
Q 26.515625 48.1875 22.3125 43.546875 
Q 18.109375 38.921875 18.109375 30.90625 
L 18.109375 0 
L 9.078125 0 
L 9.078125 54.6875 
L 18.109375 54.6875 
L 18.109375 46.1875 
Q 21.34375 51.125 25.703125 53.5625 
Q 30.078125 56 35.796875 56 
Q 45.21875 56 50.046875 50.171875 
Q 54.890625 44.34375 54.890625 33.015625 
z
" id="DejaVuSans-110"/>
       <path d="M 18.3125 70.21875 
L 18.3125 54.6875 
L 36.8125 54.6875 
L 36.8125 47.703125 
L 18.3125 47.703125 
L 18.3125 18.015625 
Q 18.3125 11.328125 20.140625 9.421875 
Q 21.96875 7.515625 27.59375 7.515625 
L 36.8125 7.515625 
L 36.8125 0 
L 27.59375 0 
Q 17.1875 0 13.234375 3.875 
Q 9.28125 7.765625 9.28125 18.015625 
L 9.28125 47.703125 
L 2.6875 47.703125 
L 2.6875 54.6875 
L 9.28125 54.6875 
L 9.28125 70.21875 
z
" id="DejaVuSans-116"/>
       <path d="M 8.015625 75.875 
L 15.828125 75.875 
Q 23.140625 64.359375 26.78125 53.3125 
Q 30.421875 42.28125 30.421875 31.390625 
Q 30.421875 20.453125 26.78125 9.375 
Q 23.140625 -1.703125 15.828125 -13.1875 
L 8.015625 -13.1875 
Q 14.5 -2 17.703125 9.0625 
Q 20.90625 20.125 20.90625 31.390625 
Q 20.90625 42.671875 17.703125 53.65625 
Q 14.5 64.65625 8.015625 75.875 
z
" id="DejaVuSans-41"/>
      </defs>
      <use xlink:href="#DejaVuSans-84"/>
      <use x="57.958984" xlink:href="#DejaVuSans-105"/>
      <use x="85.742188" xlink:href="#DejaVuSans-109"/>
      <use x="183.154297" xlink:href="#DejaVuSans-101"/>
      <use x="244.677734" xlink:href="#DejaVuSans-32"/>
      <use x="276.464844" xlink:href="#DejaVuSans-40"/>
      <use x="315.478516" xlink:href="#DejaVuSans-104"/>
      <use x="378.857422" xlink:href="#DejaVuSans-111"/>
      <use x="440.039062" xlink:href="#DejaVuSans-117"/>
      <use x="503.417969" xlink:href="#DejaVuSans-114"/>
      <use x="542.78125" xlink:href="#DejaVuSans-58"/>
      <use x="576.472656" xlink:href="#DejaVuSans-109"/>
      <use x="673.884766" xlink:href="#DejaVuSans-105"/>
      <use x="701.667969" xlink:href="#DejaVuSans-110"/>
      <use x="765.046875" xlink:href="#DejaVuSans-117"/>
      <use x="828.425781" xlink:href="#DejaVuSans-116"/>
      <use x="867.634766" xlink:href="#DejaVuSans-101"/>
      <use x="929.158203" xlink:href="#DejaVuSans-41"/>
     </g>
    </g>
   </g>
   <g id="matplotlib.axis_2">
    <g id="ytick_1">
     <g id="line2d_30">
      <defs>
       <path d="M 0 0 
L -3.5 0 
" id="m201aab9f05" style="stroke:#000000;stroke-width:0.8;"/>
      </defs>
      <g>
       <use style="stroke:#000000;stroke-width:0.8;" x="59.690625" xlink:href="#m201aab9f05" y="255.540278"/>
      </g>
     </g>
     <g id="text_14">
      <!-- 13000 -->
      <g transform="translate(20.878125 259.339497)scale(0.1 -0.1)">
       <use xlink:href="#DejaVuSans-49"/>
       <use x="63.623047" xlink:href="#DejaVuSans-51"/>
       <use x="127.246094" xlink:href="#DejaVuSans-48"/>
       <use x="190.869141" xlink:href="#DejaVuSans-48"/>
       <use x="254.492188" xlink:href="#DejaVuSans-48"/>
      </g>
     </g>
    </g>
    <g id="ytick_2">
     <g id="line2d_31">
      <g>
       <use style="stroke:#000000;stroke-width:0.8;" x="59.690625" xlink:href="#m201aab9f05" y="217.281834"/>
      </g>
     </g>
     <g id="text_15">
      <!-- 14000 -->
      <g transform="translate(20.878125 221.081053)scale(0.1 -0.1)">
       <use xlink:href="#DejaVuSans-49"/>
       <use x="63.623047" xlink:href="#DejaVuSans-52"/>
       <use x="127.246094" xlink:href="#DejaVuSans-48"/>
       <use x="190.869141" xlink:href="#DejaVuSans-48"/>
       <use x="254.492188" xlink:href="#DejaVuSans-48"/>
      </g>
     </g>
    </g>
    <g id="ytick_3">
     <g id="line2d_32">
      <g>
       <use style="stroke:#000000;stroke-width:0.8;" x="59.690625" xlink:href="#m201aab9f05" y="179.023391"/>
      </g>
     </g>
     <g id="text_16">
      <!-- 15000 -->
      <g transform="translate(20.878125 182.822609)scale(0.1 -0.1)">
       <use xlink:href="#DejaVuSans-49"/>
       <use x="63.623047" xlink:href="#DejaVuSans-53"/>
       <use x="127.246094" xlink:href="#DejaVuSans-48"/>
       <use x="190.869141" xlink:href="#DejaVuSans-48"/>
       <use x="254.492188" xlink:href="#DejaVuSans-48"/>
      </g>
     </g>
    </g>
    <g id="ytick_4">
     <g id="line2d_33">
      <g>
       <use style="stroke:#000000;stroke-width:0.8;" x="59.690625" xlink:href="#m201aab9f05" y="140.764947"/>
      </g>
     </g>
     <g id="text_17">
      <!-- 16000 -->
      <g transform="translate(20.878125 144.564166)scale(0.1 -0.1)">
       <use xlink:href="#DejaVuSans-49"/>
       <use x="63.623047" xlink:href="#DejaVuSans-54"/>
       <use x="127.246094" xlink:href="#DejaVuSans-48"/>
       <use x="190.869141" xlink:href="#DejaVuSans-48"/>
       <use x="254.492188" xlink:href="#DejaVuSans-48"/>
      </g>
     </g>
    </g>
    <g id="ytick_5">
     <g id="line2d_34">
      <g>
       <use style="stroke:#000000;stroke-width:0.8;" x="59.690625" xlink:href="#m201aab9f05" y="102.506503"/>
      </g>
     </g>
     <g id="text_18">
      <!-- 17000 -->
      <g transform="translate(20.878125 106.305722)scale(0.1 -0.1)">
       <use xlink:href="#DejaVuSans-49"/>
       <use x="63.623047" xlink:href="#DejaVuSans-55"/>
       <use x="127.246094" xlink:href="#DejaVuSans-48"/>
       <use x="190.869141" xlink:href="#DejaVuSans-48"/>
       <use x="254.492188" xlink:href="#DejaVuSans-48"/>
      </g>
     </g>
    </g>
    <g id="ytick_6">
     <g id="line2d_35">
      <g>
       <use style="stroke:#000000;stroke-width:0.8;" x="59.690625" xlink:href="#m201aab9f05" y="64.248059"/>
      </g>
     </g>
     <g id="text_19">
      <!-- 18000 -->
      <g transform="translate(20.878125 68.047278)scale(0.1 -0.1)">
       <defs>
        <path d="M 31.78125 34.625 
Q 24.75 34.625 20.71875 30.859375 
Q 16.703125 27.09375 16.703125 20.515625 
Q 16.703125 13.921875 20.71875 10.15625 
Q 24.75 6.390625 31.78125 6.390625 
Q 38.8125 6.390625 42.859375 10.171875 
Q 46.921875 13.96875 46.921875 20.515625 
Q 46.921875 27.09375 42.890625 30.859375 
Q 38.875 34.625 31.78125 34.625 
z
M 21.921875 38.8125 
Q 15.578125 40.375 12.03125 44.71875 
Q 8.5 49.078125 8.5 55.328125 
Q 8.5 64.0625 14.71875 69.140625 
Q 20.953125 74.21875 31.78125 74.21875 
Q 42.671875 74.21875 48.875 69.140625 
Q 55.078125 64.0625 55.078125 55.328125 
Q 55.078125 49.078125 51.53125 44.71875 
Q 48 40.375 41.703125 38.8125 
Q 48.828125 37.15625 52.796875 32.3125 
Q 56.78125 27.484375 56.78125 20.515625 
Q 56.78125 9.90625 50.3125 4.234375 
Q 43.84375 -1.421875 31.78125 -1.421875 
Q 19.734375 -1.421875 13.25 4.234375 
Q 6.78125 9.90625 6.78125 20.515625 
Q 6.78125 27.484375 10.78125 32.3125 
Q 14.796875 37.15625 21.921875 38.8125 
z
M 18.3125 54.390625 
Q 18.3125 48.734375 21.84375 45.5625 
Q 25.390625 42.390625 31.78125 42.390625 
Q 38.140625 42.390625 41.71875 45.5625 
Q 45.3125 48.734375 45.3125 54.390625 
Q 45.3125 60.0625 41.71875 63.234375 
Q 38.140625 66.40625 31.78125 66.40625 
Q 25.390625 66.40625 21.84375 63.234375 
Q 18.3125 60.0625 18.3125 54.390625 
z
" id="DejaVuSans-56"/>
       </defs>
       <use xlink:href="#DejaVuSans-49"/>
       <use x="63.623047" xlink:href="#DejaVuSans-56"/>
       <use x="127.246094" xlink:href="#DejaVuSans-48"/>
       <use x="190.869141" xlink:href="#DejaVuSans-48"/>
       <use x="254.492188" xlink:href="#DejaVuSans-48"/>
      </g>
     </g>
    </g>
    <g id="ytick_7">
     <g id="line2d_36">
      <g>
       <use style="stroke:#000000;stroke-width:0.8;" x="59.690625" xlink:href="#m201aab9f05" y="25.989616"/>
      </g>
     </g>
     <g id="text_20">
      <!-- 19000 -->
      <g transform="translate(20.878125 29.788834)scale(0.1 -0.1)">
       <use xlink:href="#DejaVuSans-49"/>
       <use x="63.623047" xlink:href="#DejaVuSans-57"/>
       <use x="127.246094" xlink:href="#DejaVuSans-48"/>
       <use x="190.869141" xlink:href="#DejaVuSans-48"/>
       <use x="254.492188" xlink:href="#DejaVuSans-48"/>
      </g>
     </g>
    </g>
    <g id="text_21">
     <!-- Edge coverage -->
     <g transform="translate(14.798437 192.762406)rotate(-90)scale(0.1 -0.1)">
      <defs>
       <path d="M 9.8125 72.90625 
L 55.90625 72.90625 
L 55.90625 64.59375 
L 19.671875 64.59375 
L 19.671875 43.015625 
L 54.390625 43.015625 
L 54.390625 34.71875 
L 19.671875 34.71875 
L 19.671875 8.296875 
L 56.78125 8.296875 
L 56.78125 0 
L 9.8125 0 
z
" id="DejaVuSans-69"/>
       <path d="M 45.40625 46.390625 
L 45.40625 75.984375 
L 54.390625 75.984375 
L 54.390625 0 
L 45.40625 0 
L 45.40625 8.203125 
Q 42.578125 3.328125 38.25 0.953125 
Q 33.9375 -1.421875 27.875 -1.421875 
Q 17.96875 -1.421875 11.734375 6.484375 
Q 5.515625 14.40625 5.515625 27.296875 
Q 5.515625 40.1875 11.734375 48.09375 
Q 17.96875 56 27.875 56 
Q 33.9375 56 38.25 53.625 
Q 42.578125 51.265625 45.40625 46.390625 
z
M 14.796875 27.296875 
Q 14.796875 17.390625 18.875 11.75 
Q 22.953125 6.109375 30.078125 6.109375 
Q 37.203125 6.109375 41.296875 11.75 
Q 45.40625 17.390625 45.40625 27.296875 
Q 45.40625 37.203125 41.296875 42.84375 
Q 37.203125 48.484375 30.078125 48.484375 
Q 22.953125 48.484375 18.875 42.84375 
Q 14.796875 37.203125 14.796875 27.296875 
z
" id="DejaVuSans-100"/>
       <path d="M 45.40625 27.984375 
Q 45.40625 37.75 41.375 43.109375 
Q 37.359375 48.484375 30.078125 48.484375 
Q 22.859375 48.484375 18.828125 43.109375 
Q 14.796875 37.75 14.796875 27.984375 
Q 14.796875 18.265625 18.828125 12.890625 
Q 22.859375 7.515625 30.078125 7.515625 
Q 37.359375 7.515625 41.375 12.890625 
Q 45.40625 18.265625 45.40625 27.984375 
z
M 54.390625 6.78125 
Q 54.390625 -7.171875 48.1875 -13.984375 
Q 42 -20.796875 29.203125 -20.796875 
Q 24.46875 -20.796875 20.265625 -20.09375 
Q 16.0625 -19.390625 12.109375 -17.921875 
L 12.109375 -9.1875 
Q 16.0625 -11.328125 19.921875 -12.34375 
Q 23.78125 -13.375 27.78125 -13.375 
Q 36.625 -13.375 41.015625 -8.765625 
Q 45.40625 -4.15625 45.40625 5.171875 
L 45.40625 9.625 
Q 42.625 4.78125 38.28125 2.390625 
Q 33.9375 0 27.875 0 
Q 17.828125 0 11.671875 7.65625 
Q 5.515625 15.328125 5.515625 27.984375 
Q 5.515625 40.671875 11.671875 48.328125 
Q 17.828125 56 27.875 56 
Q 33.9375 56 38.28125 53.609375 
Q 42.625 51.21875 45.40625 46.390625 
L 45.40625 54.6875 
L 54.390625 54.6875 
z
" id="DejaVuSans-103"/>
       <path d="M 48.78125 52.59375 
L 48.78125 44.1875 
Q 44.96875 46.296875 41.140625 47.34375 
Q 37.3125 48.390625 33.40625 48.390625 
Q 24.65625 48.390625 19.8125 42.84375 
Q 14.984375 37.3125 14.984375 27.296875 
Q 14.984375 17.28125 19.8125 11.734375 
Q 24.65625 6.203125 33.40625 6.203125 
Q 37.3125 6.203125 41.140625 7.25 
Q 44.96875 8.296875 48.78125 10.40625 
L 48.78125 2.09375 
Q 45.015625 0.34375 40.984375 -0.53125 
Q 36.96875 -1.421875 32.421875 -1.421875 
Q 20.0625 -1.421875 12.78125 6.34375 
Q 5.515625 14.109375 5.515625 27.296875 
Q 5.515625 40.671875 12.859375 48.328125 
Q 20.21875 56 33.015625 56 
Q 37.15625 56 41.109375 55.140625 
Q 45.0625 54.296875 48.78125 52.59375 
z
" id="DejaVuSans-99"/>
       <path d="M 2.984375 54.6875 
L 12.5 54.6875 
L 29.59375 8.796875 
L 46.6875 54.6875 
L 56.203125 54.6875 
L 35.6875 0 
L 23.484375 0 
z
" id="DejaVuSans-118"/>
       <path d="M 34.28125 27.484375 
Q 23.390625 27.484375 19.1875 25 
Q 14.984375 22.515625 14.984375 16.5 
Q 14.984375 11.71875 18.140625 8.90625 
Q 21.296875 6.109375 26.703125 6.109375 
Q 34.1875 6.109375 38.703125 11.40625 
Q 43.21875 16.703125 43.21875 25.484375 
L 43.21875 27.484375 
z
M 52.203125 31.203125 
L 52.203125 0 
L 43.21875 0 
L 43.21875 8.296875 
Q 40.140625 3.328125 35.546875 0.953125 
Q 30.953125 -1.421875 24.3125 -1.421875 
Q 15.921875 -1.421875 10.953125 3.296875 
Q 6 8.015625 6 15.921875 
Q 6 25.140625 12.171875 29.828125 
Q 18.359375 34.515625 30.609375 34.515625 
L 43.21875 34.515625 
L 43.21875 35.40625 
Q 43.21875 41.609375 39.140625 45 
Q 35.0625 48.390625 27.6875 48.390625 
Q 23 48.390625 18.546875 47.265625 
Q 14.109375 46.140625 10.015625 43.890625 
L 10.015625 52.203125 
Q 14.9375 54.109375 19.578125 55.046875 
Q 24.21875 56 28.609375 56 
Q 40.484375 56 46.34375 49.84375 
Q 52.203125 43.703125 52.203125 31.203125 
z
" id="DejaVuSans-97"/>
      </defs>
      <use xlink:href="#DejaVuSans-69"/>
      <use x="63.183594" xlink:href="#DejaVuSans-100"/>
      <use x="126.660156" xlink:href="#DejaVuSans-103"/>
      <use x="190.136719" xlink:href="#DejaVuSans-101"/>
      <use x="251.660156" xlink:href="#DejaVuSans-32"/>
      <use x="283.447266" xlink:href="#DejaVuSans-99"/>
      <use x="338.427734" xlink:href="#DejaVuSans-111"/>
      <use x="399.609375" xlink:href="#DejaVuSans-118"/>
      <use x="458.789062" xlink:href="#DejaVuSans-101"/>
      <use x="520.3125" xlink:href="#DejaVuSans-114"/>
      <use x="561.425781" xlink:href="#DejaVuSans-97"/>
      <use x="622.705078" xlink:href="#DejaVuSans-103"/>
      <use x="686.181641" xlink:href="#DejaVuSans-101"/>
     </g>
    </g>
   </g>
   <g id="line2d_37">
    <path clip-path="url(#pdc5e933554)" d="M 92.15608 255.968773 
L 192.424118 241.698373 
L 251.077161 229.715829 
L 292.692157 215.988699 
L 324.971256 207.740179 
L 351.3452 192.880599 
L 373.644052 185.596191 
L 392.960196 181.089347 
L 409.998243 172.106264 
L 425.239295 167.890184 
L 439.026503 164.944283 
L 451.613239 164.140856 
L 463.191913 161.990732 
L 473.912091 154.530335 
L 483.892337 142.517184 
L 493.228235 136.510608 
L 501.997962 133.25864 
L 510.266281 130.741235 
L 518.08744 129.073167 
L 525.507333 127.50457 
L 532.565133 125.178457 
L 539.294542 124.122524 
L 545.724765 122.523321 
L 551.881277 121.628073 
L 557.786432 120.97768 
L 563.459952 120.29668 
L 568.919324 118.154207 
L 574.180129 117.848139 
L 579.256306 116.027037 
L 584.160376 115.67506 
L 588.903627 115.368992 
L 593.496274 115.093531 
L 597.947585 114.381924 
L 602.266001 114.022295 
L 606.459228 113.769789 
L 610.53432 113.387205 
L 614.497752 112.713856 
L 618.355479 112.583777 
L 622.112994 112.254755 
L 625.775372 111.956339 
L 629.347312 111.290642 
L 632.833172 107.587225 
L 636.237005 107.334719 
L 639.562581 106.952134 
L 642.813419 106.003325 
L 645.992804 105.789078 
L 649.10381 97.571164 
L 652.149316 95.750062 
L 655.132024 93.492814 
L 658.054471 92.804162 
L 660.919044 92.444532 
L 663.72799 91.495723 
L 666.48343 91.067229 
L 669.187363 90.715251 
L 671.84168 90.462745 
L 674.448168 90.424487 
L 677.008522 90.187284 
L 679.524345 90.141374 
L 681.997161 90.110767 
L 684.428415 89.919475 
L 686.819481 88.297317 
L 689.171666 87.04244 
L 691.486215 86.728721 
L 693.764312 84.402608 
L 696.007089 79.490223 
L 698.215624 79.054077 
L 700.390946 76.957514 
L 702.53404 75.411873 
L 704.645847 75.013986 
L 706.727267 73.437738 
L 708.779162 72.817951 
L 710.802359 72.580748 
L 712.797649 71.739063 
L 714.765791 71.524815 
L 716.707514 71.027456 
L 718.623518 69.229309 
L 720.514476 68.402926 
L 722.381033 68.311106 
L 724.223812 67.530634 
L 726.043411 67.094488 
L 727.840406 66.268105 
L 729.615351 65.686577 
L 731.368781 65.602408 
L 733.101211 64.844891 
L 734.813139 64.393442 
L 736.505043 64.301621 
L 738.177388 63.88843 
L 739.83062 63.482891 
L 741.46517 62.296879 
" style="fill:none;stroke:#98df8a;stroke-linecap:square;stroke-width:1.5;"/>
    <defs>
     <path d="M -0 3 
L 3 -3 
L -3 -3 
z
" id="m70318f2fb5" style="stroke:#ffffff;stroke-linejoin:miter;stroke-width:0.75;"/>
    </defs>
    <g clip-path="url(#pdc5e933554)">
     <use style="fill:#98df8a;stroke:#ffffff;stroke-linejoin:miter;stroke-width:0.75;" x="92.15608" xlink:href="#m70318f2fb5" y="255.968773"/>
     <use style="fill:#98df8a;stroke:#ffffff;stroke-linejoin:miter;stroke-width:0.75;" x="192.424118" xlink:href="#m70318f2fb5" y="241.698373"/>
     <use style="fill:#98df8a;stroke:#ffffff;stroke-linejoin:miter;stroke-width:0.75;" x="251.077161" xlink:href="#m70318f2fb5" y="229.715829"/>
     <use style="fill:#98df8a;stroke:#ffffff;stroke-linejoin:miter;stroke-width:0.75;" x="292.692157" xlink:href="#m70318f2fb5" y="215.988699"/>
     <use style="fill:#98df8a;stroke:#ffffff;stroke-linejoin:miter;stroke-width:0.75;" x="324.971256" xlink:href="#m70318f2fb5" y="207.740179"/>
     <use style="fill:#98df8a;stroke:#ffffff;stroke-linejoin:miter;stroke-width:0.75;" x="351.3452" xlink:href="#m70318f2fb5" y="192.880599"/>
     <use style="fill:#98df8a;stroke:#ffffff;stroke-linejoin:miter;stroke-width:0.75;" x="373.644052" xlink:href="#m70318f2fb5" y="185.596191"/>
     <use style="fill:#98df8a;stroke:#ffffff;stroke-linejoin:miter;stroke-width:0.75;" x="392.960196" xlink:href="#m70318f2fb5" y="181.089347"/>
     <use style="fill:#98df8a;stroke:#ffffff;stroke-linejoin:miter;stroke-width:0.75;" x="409.998243" xlink:href="#m70318f2fb5" y="172.106264"/>
     <use style="fill:#98df8a;stroke:#ffffff;stroke-linejoin:miter;stroke-width:0.75;" x="425.239295" xlink:href="#m70318f2fb5" y="167.890184"/>
     <use style="fill:#98df8a;stroke:#ffffff;stroke-linejoin:miter;stroke-width:0.75;" x="439.026503" xlink:href="#m70318f2fb5" y="164.944283"/>
     <use style="fill:#98df8a;stroke:#ffffff;stroke-linejoin:miter;stroke-width:0.75;" x="451.613239" xlink:href="#m70318f2fb5" y="164.140856"/>
     <use style="fill:#98df8a;stroke:#ffffff;stroke-linejoin:miter;stroke-width:0.75;" x="463.191913" xlink:href="#m70318f2fb5" y="161.990732"/>
     <use style="fill:#98df8a;stroke:#ffffff;stroke-linejoin:miter;stroke-width:0.75;" x="473.912091" xlink:href="#m70318f2fb5" y="154.530335"/>
     <use style="fill:#98df8a;stroke:#ffffff;stroke-linejoin:miter;stroke-width:0.75;" x="483.892337" xlink:href="#m70318f2fb5" y="142.517184"/>
     <use style="fill:#98df8a;stroke:#ffffff;stroke-linejoin:miter;stroke-width:0.75;" x="493.228235" xlink:href="#m70318f2fb5" y="136.510608"/>
     <use style="fill:#98df8a;stroke:#ffffff;stroke-linejoin:miter;stroke-width:0.75;" x="501.997962" xlink:href="#m70318f2fb5" y="133.25864"/>
     <use style="fill:#98df8a;stroke:#ffffff;stroke-linejoin:miter;stroke-width:0.75;" x="510.266281" xlink:href="#m70318f2fb5" y="130.741235"/>
     <use style="fill:#98df8a;stroke:#ffffff;stroke-linejoin:miter;stroke-width:0.75;" x="518.08744" xlink:href="#m70318f2fb5" y="129.073167"/>
     <use style="fill:#98df8a;stroke:#ffffff;stroke-linejoin:miter;stroke-width:0.75;" x="525.507333" xlink:href="#m70318f2fb5" y="127.50457"/>
     <use style="fill:#98df8a;stroke:#ffffff;stroke-linejoin:miter;stroke-width:0.75;" x="532.565133" xlink:href="#m70318f2fb5" y="125.178457"/>
     <use style="fill:#98df8a;stroke:#ffffff;stroke-linejoin:miter;stroke-width:0.75;" x="539.294542" xlink:href="#m70318f2fb5" y="124.122524"/>
     <use style="fill:#98df8a;stroke:#ffffff;stroke-linejoin:miter;stroke-width:0.75;" x="545.724765" xlink:href="#m70318f2fb5" y="122.523321"/>
     <use style="fill:#98df8a;stroke:#ffffff;stroke-linejoin:miter;stroke-width:0.75;" x="551.881277" xlink:href="#m70318f2fb5" y="121.628073"/>
     <use style="fill:#98df8a;stroke:#ffffff;stroke-linejoin:miter;stroke-width:0.75;" x="557.786432" xlink:href="#m70318f2fb5" y="120.97768"/>
     <use style="fill:#98df8a;stroke:#ffffff;stroke-linejoin:miter;stroke-width:0.75;" x="563.459952" xlink:href="#m70318f2fb5" y="120.29668"/>
     <use style="fill:#98df8a;stroke:#ffffff;stroke-linejoin:miter;stroke-width:0.75;" x="568.919324" xlink:href="#m70318f2fb5" y="118.154207"/>
     <use style="fill:#98df8a;stroke:#ffffff;stroke-linejoin:miter;stroke-width:0.75;" x="574.180129" xlink:href="#m70318f2fb5" y="117.848139"/>
     <use style="fill:#98df8a;stroke:#ffffff;stroke-linejoin:miter;stroke-width:0.75;" x="579.256306" xlink:href="#m70318f2fb5" y="116.027037"/>
     <use style="fill:#98df8a;stroke:#ffffff;stroke-linejoin:miter;stroke-width:0.75;" x="584.160376" xlink:href="#m70318f2fb5" y="115.67506"/>
     <use style="fill:#98df8a;stroke:#ffffff;stroke-linejoin:miter;stroke-width:0.75;" x="588.903627" xlink:href="#m70318f2fb5" y="115.368992"/>
     <use style="fill:#98df8a;stroke:#ffffff;stroke-linejoin:miter;stroke-width:0.75;" x="593.496274" xlink:href="#m70318f2fb5" y="115.093531"/>
     <use style="fill:#98df8a;stroke:#ffffff;stroke-linejoin:miter;stroke-width:0.75;" x="597.947585" xlink:href="#m70318f2fb5" y="114.381924"/>
     <use style="fill:#98df8a;stroke:#ffffff;stroke-linejoin:miter;stroke-width:0.75;" x="602.266001" xlink:href="#m70318f2fb5" y="114.022295"/>
     <use style="fill:#98df8a;stroke:#ffffff;stroke-linejoin:miter;stroke-width:0.75;" x="606.459228" xlink:href="#m70318f2fb5" y="113.769789"/>
     <use style="fill:#98df8a;stroke:#ffffff;stroke-linejoin:miter;stroke-width:0.75;" x="610.53432" xlink:href="#m70318f2fb5" y="113.387205"/>
     <use style="fill:#98df8a;stroke:#ffffff;stroke-linejoin:miter;stroke-width:0.75;" x="614.497752" xlink:href="#m70318f2fb5" y="112.713856"/>
     <use style="fill:#98df8a;stroke:#ffffff;stroke-linejoin:miter;stroke-width:0.75;" x="618.355479" xlink:href="#m70318f2fb5" y="112.583777"/>
     <use style="fill:#98df8a;stroke:#ffffff;stroke-linejoin:miter;stroke-width:0.75;" x="622.112994" xlink:href="#m70318f2fb5" y="112.254755"/>
     <use style="fill:#98df8a;stroke:#ffffff;stroke-linejoin:miter;stroke-width:0.75;" x="625.775372" xlink:href="#m70318f2fb5" y="111.956339"/>
     <use style="fill:#98df8a;stroke:#ffffff;stroke-linejoin:miter;stroke-width:0.75;" x="629.347312" xlink:href="#m70318f2fb5" y="111.290642"/>
     <use style="fill:#98df8a;stroke:#ffffff;stroke-linejoin:miter;stroke-width:0.75;" x="632.833172" xlink:href="#m70318f2fb5" y="107.587225"/>
     <use style="fill:#98df8a;stroke:#ffffff;stroke-linejoin:miter;stroke-width:0.75;" x="636.237005" xlink:href="#m70318f2fb5" y="107.334719"/>
     <use style="fill:#98df8a;stroke:#ffffff;stroke-linejoin:miter;stroke-width:0.75;" x="639.562581" xlink:href="#m70318f2fb5" y="106.952134"/>
     <use style="fill:#98df8a;stroke:#ffffff;stroke-linejoin:miter;stroke-width:0.75;" x="642.813419" xlink:href="#m70318f2fb5" y="106.003325"/>
     <use style="fill:#98df8a;stroke:#ffffff;stroke-linejoin:miter;stroke-width:0.75;" x="645.992804" xlink:href="#m70318f2fb5" y="105.789078"/>
     <use style="fill:#98df8a;stroke:#ffffff;stroke-linejoin:miter;stroke-width:0.75;" x="649.10381" xlink:href="#m70318f2fb5" y="97.571164"/>
     <use style="fill:#98df8a;stroke:#ffffff;stroke-linejoin:miter;stroke-width:0.75;" x="652.149316" xlink:href="#m70318f2fb5" y="95.750062"/>
     <use style="fill:#98df8a;stroke:#ffffff;stroke-linejoin:miter;stroke-width:0.75;" x="655.132024" xlink:href="#m70318f2fb5" y="93.492814"/>
     <use style="fill:#98df8a;stroke:#ffffff;stroke-linejoin:miter;stroke-width:0.75;" x="658.054471" xlink:href="#m70318f2fb5" y="92.804162"/>
     <use style="fill:#98df8a;stroke:#ffffff;stroke-linejoin:miter;stroke-width:0.75;" x="660.919044" xlink:href="#m70318f2fb5" y="92.444532"/>
     <use style="fill:#98df8a;stroke:#ffffff;stroke-linejoin:miter;stroke-width:0.75;" x="663.72799" xlink:href="#m70318f2fb5" y="91.495723"/>
     <use style="fill:#98df8a;stroke:#ffffff;stroke-linejoin:miter;stroke-width:0.75;" x="666.48343" xlink:href="#m70318f2fb5" y="91.067229"/>
     <use style="fill:#98df8a;stroke:#ffffff;stroke-linejoin:miter;stroke-width:0.75;" x="669.187363" xlink:href="#m70318f2fb5" y="90.715251"/>
     <use style="fill:#98df8a;stroke:#ffffff;stroke-linejoin:miter;stroke-width:0.75;" x="671.84168" xlink:href="#m70318f2fb5" y="90.462745"/>
     <use style="fill:#98df8a;stroke:#ffffff;stroke-linejoin:miter;stroke-width:0.75;" x="674.448168" xlink:href="#m70318f2fb5" y="90.424487"/>
     <use style="fill:#98df8a;stroke:#ffffff;stroke-linejoin:miter;stroke-width:0.75;" x="677.008522" xlink:href="#m70318f2fb5" y="90.187284"/>
     <use style="fill:#98df8a;stroke:#ffffff;stroke-linejoin:miter;stroke-width:0.75;" x="679.524345" xlink:href="#m70318f2fb5" y="90.141374"/>
     <use style="fill:#98df8a;stroke:#ffffff;stroke-linejoin:miter;stroke-width:0.75;" x="681.997161" xlink:href="#m70318f2fb5" y="90.110767"/>
     <use style="fill:#98df8a;stroke:#ffffff;stroke-linejoin:miter;stroke-width:0.75;" x="684.428415" xlink:href="#m70318f2fb5" y="89.919475"/>
     <use style="fill:#98df8a;stroke:#ffffff;stroke-linejoin:miter;stroke-width:0.75;" x="686.819481" xlink:href="#m70318f2fb5" y="88.297317"/>
     <use style="fill:#98df8a;stroke:#ffffff;stroke-linejoin:miter;stroke-width:0.75;" x="689.171666" xlink:href="#m70318f2fb5" y="87.04244"/>
     <use style="fill:#98df8a;stroke:#ffffff;stroke-linejoin:miter;stroke-width:0.75;" x="691.486215" xlink:href="#m70318f2fb5" y="86.728721"/>
     <use style="fill:#98df8a;stroke:#ffffff;stroke-linejoin:miter;stroke-width:0.75;" x="693.764312" xlink:href="#m70318f2fb5" y="84.402608"/>
     <use style="fill:#98df8a;stroke:#ffffff;stroke-linejoin:miter;stroke-width:0.75;" x="696.007089" xlink:href="#m70318f2fb5" y="79.490223"/>
     <use style="fill:#98df8a;stroke:#ffffff;stroke-linejoin:miter;stroke-width:0.75;" x="698.215624" xlink:href="#m70318f2fb5" y="79.054077"/>
     <use style="fill:#98df8a;stroke:#ffffff;stroke-linejoin:miter;stroke-width:0.75;" x="700.390946" xlink:href="#m70318f2fb5" y="76.957514"/>
     <use style="fill:#98df8a;stroke:#ffffff;stroke-linejoin:miter;stroke-width:0.75;" x="702.53404" xlink:href="#m70318f2fb5" y="75.411873"/>
     <use style="fill:#98df8a;stroke:#ffffff;stroke-linejoin:miter;stroke-width:0.75;" x="704.645847" xlink:href="#m70318f2fb5" y="75.013986"/>
     <use style="fill:#98df8a;stroke:#ffffff;stroke-linejoin:miter;stroke-width:0.75;" x="706.727267" xlink:href="#m70318f2fb5" y="73.437738"/>
     <use style="fill:#98df8a;stroke:#ffffff;stroke-linejoin:miter;stroke-width:0.75;" x="708.779162" xlink:href="#m70318f2fb5" y="72.817951"/>
     <use style="fill:#98df8a;stroke:#ffffff;stroke-linejoin:miter;stroke-width:0.75;" x="710.802359" xlink:href="#m70318f2fb5" y="72.580748"/>
     <use style="fill:#98df8a;stroke:#ffffff;stroke-linejoin:miter;stroke-width:0.75;" x="712.797649" xlink:href="#m70318f2fb5" y="71.739063"/>
     <use style="fill:#98df8a;stroke:#ffffff;stroke-linejoin:miter;stroke-width:0.75;" x="714.765791" xlink:href="#m70318f2fb5" y="71.524815"/>
     <use style="fill:#98df8a;stroke:#ffffff;stroke-linejoin:miter;stroke-width:0.75;" x="716.707514" xlink:href="#m70318f2fb5" y="71.027456"/>
     <use style="fill:#98df8a;stroke:#ffffff;stroke-linejoin:miter;stroke-width:0.75;" x="718.623518" xlink:href="#m70318f2fb5" y="69.229309"/>
     <use style="fill:#98df8a;stroke:#ffffff;stroke-linejoin:miter;stroke-width:0.75;" x="720.514476" xlink:href="#m70318f2fb5" y="68.402926"/>
     <use style="fill:#98df8a;stroke:#ffffff;stroke-linejoin:miter;stroke-width:0.75;" x="722.381033" xlink:href="#m70318f2fb5" y="68.311106"/>
     <use style="fill:#98df8a;stroke:#ffffff;stroke-linejoin:miter;stroke-width:0.75;" x="724.223812" xlink:href="#m70318f2fb5" y="67.530634"/>
     <use style="fill:#98df8a;stroke:#ffffff;stroke-linejoin:miter;stroke-width:0.75;" x="726.043411" xlink:href="#m70318f2fb5" y="67.094488"/>
     <use style="fill:#98df8a;stroke:#ffffff;stroke-linejoin:miter;stroke-width:0.75;" x="727.840406" xlink:href="#m70318f2fb5" y="66.268105"/>
     <use style="fill:#98df8a;stroke:#ffffff;stroke-linejoin:miter;stroke-width:0.75;" x="729.615351" xlink:href="#m70318f2fb5" y="65.686577"/>
     <use style="fill:#98df8a;stroke:#ffffff;stroke-linejoin:miter;stroke-width:0.75;" x="731.368781" xlink:href="#m70318f2fb5" y="65.602408"/>
     <use style="fill:#98df8a;stroke:#ffffff;stroke-linejoin:miter;stroke-width:0.75;" x="733.101211" xlink:href="#m70318f2fb5" y="64.844891"/>
     <use style="fill:#98df8a;stroke:#ffffff;stroke-linejoin:miter;stroke-width:0.75;" x="734.813139" xlink:href="#m70318f2fb5" y="64.393442"/>
     <use style="fill:#98df8a;stroke:#ffffff;stroke-linejoin:miter;stroke-width:0.75;" x="736.505043" xlink:href="#m70318f2fb5" y="64.301621"/>
     <use style="fill:#98df8a;stroke:#ffffff;stroke-linejoin:miter;stroke-width:0.75;" x="738.177388" xlink:href="#m70318f2fb5" y="63.88843"/>
     <use style="fill:#98df8a;stroke:#ffffff;stroke-linejoin:miter;stroke-width:0.75;" x="739.83062" xlink:href="#m70318f2fb5" y="63.482891"/>
     <use style="fill:#98df8a;stroke:#ffffff;stroke-linejoin:miter;stroke-width:0.75;" x="741.46517" xlink:href="#m70318f2fb5" y="62.296879"/>
    </g>
   </g>
   <g id="line2d_38">
    <path clip-path="url(#pdc5e933554)" d="M 92.15608 239.519555 
L 192.424118 230.165365 
L 251.077161 216.507101 
L 292.692157 202.504511 
L 324.971256 196.603146 
L 351.3452 185.240388 
L 373.644052 169.018808 
L 392.960196 160.955841 
L 409.998243 146.293292 
L 425.239295 142.295285 
L 439.026503 140.248458 
L 451.613239 130.798622 
L 463.191913 128.522245 
L 473.912091 127.326669 
L 483.892337 120.507101 
L 493.228235 118.230724 
L 501.997962 115.543068 
L 510.266281 114.13707 
L 518.08744 112.78846 
L 525.507333 111.43985 
L 532.565133 110.952055 
L 539.294542 110.119934 
L 545.724765 105.978457 
L 551.881277 105.395016 
L 557.786432 105.088948 
L 563.459952 104.42899 
L 568.919324 104.18031 
L 574.180129 102.095225 
L 579.256306 101.272668 
L 584.160376 100.38316 
L 588.903627 100.287513 
L 593.496274 99.570168 
L 597.947585 97.284226 
L 602.266001 95.438256 
L 606.459228 94.462665 
L 610.53432 92.932328 
L 614.497752 92.358451 
L 618.355479 91.191568 
L 622.112994 90.866372 
L 625.775372 90.455093 
L 629.347312 89.536891 
L 632.833172 88.695205 
L 636.237005 88.666511 
L 639.562581 88.570865 
L 642.813419 88.513477 
L 645.992804 87.910907 
L 649.10381 87.604839 
L 652.149316 87.470935 
L 655.132024 86.906623 
L 658.054471 85.98842 
L 660.919044 85.825822 
L 663.72799 85.194557 
L 666.48343 85.022394 
L 669.187363 84.917184 
L 671.84168 84.51547 
L 674.448168 84.372001 
L 677.008522 84.161579 
L 679.524345 83.41554 
L 681.997161 83.004261 
L 684.428415 82.956438 
L 686.819481 82.832098 
L 689.171666 82.726888 
L 691.486215 82.506902 
L 693.764312 82.019107 
L 696.007089 81.19655 
L 698.215624 80.966999 
L 700.390946 79.321886 
L 702.53404 78.814962 
L 704.645847 77.02638 
L 706.727267 76.251646 
L 708.779162 76.079483 
L 710.802359 74.969988 
L 712.797649 74.55871 
L 714.765791 74.348289 
L 716.707514 74.090044 
L 718.623518 73.410957 
L 720.514476 73.229229 
L 722.381033 73.152712 
L 724.223812 73.095325 
L 726.043411 73.095325 
L 727.840406 72.970985 
L 729.615351 72.827515 
L 731.368781 72.636223 
L 733.101211 72.617094 
L 734.813139 72.578836 
L 736.505043 72.569271 
L 738.177388 72.550142 
L 739.83062 72.502319 
L 741.46517 72.502319 
" style="fill:none;stroke:#1f77b4;stroke-linecap:square;stroke-width:1.5;"/>
    <defs>
     <path d="M 0 3 
C 0.795609 3 1.55874 2.683901 2.12132 2.12132 
C 2.683901 1.55874 3 0.795609 3 0 
C 3 -0.795609 2.683901 -1.55874 2.12132 -2.12132 
C 1.55874 -2.683901 0.795609 -3 0 -3 
C -0.795609 -3 -1.55874 -2.683901 -2.12132 -2.12132 
C -2.683901 -1.55874 -3 -0.795609 -3 0 
C -3 0.795609 -2.683901 1.55874 -2.12132 2.12132 
C -1.55874 2.683901 -0.795609 3 0 3 
z
" id="m83d207fe43" style="stroke:#ffffff;stroke-width:0.75;"/>
    </defs>
    <g clip-path="url(#pdc5e933554)">
     <use style="fill:#1f77b4;stroke:#ffffff;stroke-width:0.75;" x="92.15608" xlink:href="#m83d207fe43" y="239.519555"/>
     <use style="fill:#1f77b4;stroke:#ffffff;stroke-width:0.75;" x="192.424118" xlink:href="#m83d207fe43" y="230.165365"/>
     <use style="fill:#1f77b4;stroke:#ffffff;stroke-width:0.75;" x="251.077161" xlink:href="#m83d207fe43" y="216.507101"/>
     <use style="fill:#1f77b4;stroke:#ffffff;stroke-width:0.75;" x="292.692157" xlink:href="#m83d207fe43" y="202.504511"/>
     <use style="fill:#1f77b4;stroke:#ffffff;stroke-width:0.75;" x="324.971256" xlink:href="#m83d207fe43" y="196.603146"/>
     <use style="fill:#1f77b4;stroke:#ffffff;stroke-width:0.75;" x="351.3452" xlink:href="#m83d207fe43" y="185.240388"/>
     <use style="fill:#1f77b4;stroke:#ffffff;stroke-width:0.75;" x="373.644052" xlink:href="#m83d207fe43" y="169.018808"/>
     <use style="fill:#1f77b4;stroke:#ffffff;stroke-width:0.75;" x="392.960196" xlink:href="#m83d207fe43" y="160.955841"/>
     <use style="fill:#1f77b4;stroke:#ffffff;stroke-width:0.75;" x="409.998243" xlink:href="#m83d207fe43" y="146.293292"/>
     <use style="fill:#1f77b4;stroke:#ffffff;stroke-width:0.75;" x="425.239295" xlink:href="#m83d207fe43" y="142.295285"/>
     <use style="fill:#1f77b4;stroke:#ffffff;stroke-width:0.75;" x="439.026503" xlink:href="#m83d207fe43" y="140.248458"/>
     <use style="fill:#1f77b4;stroke:#ffffff;stroke-width:0.75;" x="451.613239" xlink:href="#m83d207fe43" y="130.798622"/>
     <use style="fill:#1f77b4;stroke:#ffffff;stroke-width:0.75;" x="463.191913" xlink:href="#m83d207fe43" y="128.522245"/>
     <use style="fill:#1f77b4;stroke:#ffffff;stroke-width:0.75;" x="473.912091" xlink:href="#m83d207fe43" y="127.326669"/>
     <use style="fill:#1f77b4;stroke:#ffffff;stroke-width:0.75;" x="483.892337" xlink:href="#m83d207fe43" y="120.507101"/>
     <use style="fill:#1f77b4;stroke:#ffffff;stroke-width:0.75;" x="493.228235" xlink:href="#m83d207fe43" y="118.230724"/>
     <use style="fill:#1f77b4;stroke:#ffffff;stroke-width:0.75;" x="501.997962" xlink:href="#m83d207fe43" y="115.543068"/>
     <use style="fill:#1f77b4;stroke:#ffffff;stroke-width:0.75;" x="510.266281" xlink:href="#m83d207fe43" y="114.13707"/>
     <use style="fill:#1f77b4;stroke:#ffffff;stroke-width:0.75;" x="518.08744" xlink:href="#m83d207fe43" y="112.78846"/>
     <use style="fill:#1f77b4;stroke:#ffffff;stroke-width:0.75;" x="525.507333" xlink:href="#m83d207fe43" y="111.43985"/>
     <use style="fill:#1f77b4;stroke:#ffffff;stroke-width:0.75;" x="532.565133" xlink:href="#m83d207fe43" y="110.952055"/>
     <use style="fill:#1f77b4;stroke:#ffffff;stroke-width:0.75;" x="539.294542" xlink:href="#m83d207fe43" y="110.119934"/>
     <use style="fill:#1f77b4;stroke:#ffffff;stroke-width:0.75;" x="545.724765" xlink:href="#m83d207fe43" y="105.978457"/>
     <use style="fill:#1f77b4;stroke:#ffffff;stroke-width:0.75;" x="551.881277" xlink:href="#m83d207fe43" y="105.395016"/>
     <use style="fill:#1f77b4;stroke:#ffffff;stroke-width:0.75;" x="557.786432" xlink:href="#m83d207fe43" y="105.088948"/>
     <use style="fill:#1f77b4;stroke:#ffffff;stroke-width:0.75;" x="563.459952" xlink:href="#m83d207fe43" y="104.42899"/>
     <use style="fill:#1f77b4;stroke:#ffffff;stroke-width:0.75;" x="568.919324" xlink:href="#m83d207fe43" y="104.18031"/>
     <use style="fill:#1f77b4;stroke:#ffffff;stroke-width:0.75;" x="574.180129" xlink:href="#m83d207fe43" y="102.095225"/>
     <use style="fill:#1f77b4;stroke:#ffffff;stroke-width:0.75;" x="579.256306" xlink:href="#m83d207fe43" y="101.272668"/>
     <use style="fill:#1f77b4;stroke:#ffffff;stroke-width:0.75;" x="584.160376" xlink:href="#m83d207fe43" y="100.38316"/>
     <use style="fill:#1f77b4;stroke:#ffffff;stroke-width:0.75;" x="588.903627" xlink:href="#m83d207fe43" y="100.287513"/>
     <use style="fill:#1f77b4;stroke:#ffffff;stroke-width:0.75;" x="593.496274" xlink:href="#m83d207fe43" y="99.570168"/>
     <use style="fill:#1f77b4;stroke:#ffffff;stroke-width:0.75;" x="597.947585" xlink:href="#m83d207fe43" y="97.284226"/>
     <use style="fill:#1f77b4;stroke:#ffffff;stroke-width:0.75;" x="602.266001" xlink:href="#m83d207fe43" y="95.438256"/>
     <use style="fill:#1f77b4;stroke:#ffffff;stroke-width:0.75;" x="606.459228" xlink:href="#m83d207fe43" y="94.462665"/>
     <use style="fill:#1f77b4;stroke:#ffffff;stroke-width:0.75;" x="610.53432" xlink:href="#m83d207fe43" y="92.932328"/>
     <use style="fill:#1f77b4;stroke:#ffffff;stroke-width:0.75;" x="614.497752" xlink:href="#m83d207fe43" y="92.358451"/>
     <use style="fill:#1f77b4;stroke:#ffffff;stroke-width:0.75;" x="618.355479" xlink:href="#m83d207fe43" y="91.191568"/>
     <use style="fill:#1f77b4;stroke:#ffffff;stroke-width:0.75;" x="622.112994" xlink:href="#m83d207fe43" y="90.866372"/>
     <use style="fill:#1f77b4;stroke:#ffffff;stroke-width:0.75;" x="625.775372" xlink:href="#m83d207fe43" y="90.455093"/>
     <use style="fill:#1f77b4;stroke:#ffffff;stroke-width:0.75;" x="629.347312" xlink:href="#m83d207fe43" y="89.536891"/>
     <use style="fill:#1f77b4;stroke:#ffffff;stroke-width:0.75;" x="632.833172" xlink:href="#m83d207fe43" y="88.695205"/>
     <use style="fill:#1f77b4;stroke:#ffffff;stroke-width:0.75;" x="636.237005" xlink:href="#m83d207fe43" y="88.666511"/>
     <use style="fill:#1f77b4;stroke:#ffffff;stroke-width:0.75;" x="639.562581" xlink:href="#m83d207fe43" y="88.570865"/>
     <use style="fill:#1f77b4;stroke:#ffffff;stroke-width:0.75;" x="642.813419" xlink:href="#m83d207fe43" y="88.513477"/>
     <use style="fill:#1f77b4;stroke:#ffffff;stroke-width:0.75;" x="645.992804" xlink:href="#m83d207fe43" y="87.910907"/>
     <use style="fill:#1f77b4;stroke:#ffffff;stroke-width:0.75;" x="649.10381" xlink:href="#m83d207fe43" y="87.604839"/>
     <use style="fill:#1f77b4;stroke:#ffffff;stroke-width:0.75;" x="652.149316" xlink:href="#m83d207fe43" y="87.470935"/>
     <use style="fill:#1f77b4;stroke:#ffffff;stroke-width:0.75;" x="655.132024" xlink:href="#m83d207fe43" y="86.906623"/>
     <use style="fill:#1f77b4;stroke:#ffffff;stroke-width:0.75;" x="658.054471" xlink:href="#m83d207fe43" y="85.98842"/>
     <use style="fill:#1f77b4;stroke:#ffffff;stroke-width:0.75;" x="660.919044" xlink:href="#m83d207fe43" y="85.825822"/>
     <use style="fill:#1f77b4;stroke:#ffffff;stroke-width:0.75;" x="663.72799" xlink:href="#m83d207fe43" y="85.194557"/>
     <use style="fill:#1f77b4;stroke:#ffffff;stroke-width:0.75;" x="666.48343" xlink:href="#m83d207fe43" y="85.022394"/>
     <use style="fill:#1f77b4;stroke:#ffffff;stroke-width:0.75;" x="669.187363" xlink:href="#m83d207fe43" y="84.917184"/>
     <use style="fill:#1f77b4;stroke:#ffffff;stroke-width:0.75;" x="671.84168" xlink:href="#m83d207fe43" y="84.51547"/>
     <use style="fill:#1f77b4;stroke:#ffffff;stroke-width:0.75;" x="674.448168" xlink:href="#m83d207fe43" y="84.372001"/>
     <use style="fill:#1f77b4;stroke:#ffffff;stroke-width:0.75;" x="677.008522" xlink:href="#m83d207fe43" y="84.161579"/>
     <use style="fill:#1f77b4;stroke:#ffffff;stroke-width:0.75;" x="679.524345" xlink:href="#m83d207fe43" y="83.41554"/>
     <use style="fill:#1f77b4;stroke:#ffffff;stroke-width:0.75;" x="681.997161" xlink:href="#m83d207fe43" y="83.004261"/>
     <use style="fill:#1f77b4;stroke:#ffffff;stroke-width:0.75;" x="684.428415" xlink:href="#m83d207fe43" y="82.956438"/>
     <use style="fill:#1f77b4;stroke:#ffffff;stroke-width:0.75;" x="686.819481" xlink:href="#m83d207fe43" y="82.832098"/>
     <use style="fill:#1f77b4;stroke:#ffffff;stroke-width:0.75;" x="689.171666" xlink:href="#m83d207fe43" y="82.726888"/>
     <use style="fill:#1f77b4;stroke:#ffffff;stroke-width:0.75;" x="691.486215" xlink:href="#m83d207fe43" y="82.506902"/>
     <use style="fill:#1f77b4;stroke:#ffffff;stroke-width:0.75;" x="693.764312" xlink:href="#m83d207fe43" y="82.019107"/>
     <use style="fill:#1f77b4;stroke:#ffffff;stroke-width:0.75;" x="696.007089" xlink:href="#m83d207fe43" y="81.19655"/>
     <use style="fill:#1f77b4;stroke:#ffffff;stroke-width:0.75;" x="698.215624" xlink:href="#m83d207fe43" y="80.966999"/>
     <use style="fill:#1f77b4;stroke:#ffffff;stroke-width:0.75;" x="700.390946" xlink:href="#m83d207fe43" y="79.321886"/>
     <use style="fill:#1f77b4;stroke:#ffffff;stroke-width:0.75;" x="702.53404" xlink:href="#m83d207fe43" y="78.814962"/>
     <use style="fill:#1f77b4;stroke:#ffffff;stroke-width:0.75;" x="704.645847" xlink:href="#m83d207fe43" y="77.02638"/>
     <use style="fill:#1f77b4;stroke:#ffffff;stroke-width:0.75;" x="706.727267" xlink:href="#m83d207fe43" y="76.251646"/>
     <use style="fill:#1f77b4;stroke:#ffffff;stroke-width:0.75;" x="708.779162" xlink:href="#m83d207fe43" y="76.079483"/>
     <use style="fill:#1f77b4;stroke:#ffffff;stroke-width:0.75;" x="710.802359" xlink:href="#m83d207fe43" y="74.969988"/>
     <use style="fill:#1f77b4;stroke:#ffffff;stroke-width:0.75;" x="712.797649" xlink:href="#m83d207fe43" y="74.55871"/>
     <use style="fill:#1f77b4;stroke:#ffffff;stroke-width:0.75;" x="714.765791" xlink:href="#m83d207fe43" y="74.348289"/>
     <use style="fill:#1f77b4;stroke:#ffffff;stroke-width:0.75;" x="716.707514" xlink:href="#m83d207fe43" y="74.090044"/>
     <use style="fill:#1f77b4;stroke:#ffffff;stroke-width:0.75;" x="718.623518" xlink:href="#m83d207fe43" y="73.410957"/>
     <use style="fill:#1f77b4;stroke:#ffffff;stroke-width:0.75;" x="720.514476" xlink:href="#m83d207fe43" y="73.229229"/>
     <use style="fill:#1f77b4;stroke:#ffffff;stroke-width:0.75;" x="722.381033" xlink:href="#m83d207fe43" y="73.152712"/>
     <use style="fill:#1f77b4;stroke:#ffffff;stroke-width:0.75;" x="724.223812" xlink:href="#m83d207fe43" y="73.095325"/>
     <use style="fill:#1f77b4;stroke:#ffffff;stroke-width:0.75;" x="726.043411" xlink:href="#m83d207fe43" y="73.095325"/>
     <use style="fill:#1f77b4;stroke:#ffffff;stroke-width:0.75;" x="727.840406" xlink:href="#m83d207fe43" y="72.970985"/>
     <use style="fill:#1f77b4;stroke:#ffffff;stroke-width:0.75;" x="729.615351" xlink:href="#m83d207fe43" y="72.827515"/>
     <use style="fill:#1f77b4;stroke:#ffffff;stroke-width:0.75;" x="731.368781" xlink:href="#m83d207fe43" y="72.636223"/>
     <use style="fill:#1f77b4;stroke:#ffffff;stroke-width:0.75;" x="733.101211" xlink:href="#m83d207fe43" y="72.617094"/>
     <use style="fill:#1f77b4;stroke:#ffffff;stroke-width:0.75;" x="734.813139" xlink:href="#m83d207fe43" y="72.578836"/>
     <use style="fill:#1f77b4;stroke:#ffffff;stroke-width:0.75;" x="736.505043" xlink:href="#m83d207fe43" y="72.569271"/>
     <use style="fill:#1f77b4;stroke:#ffffff;stroke-width:0.75;" x="738.177388" xlink:href="#m83d207fe43" y="72.550142"/>
     <use style="fill:#1f77b4;stroke:#ffffff;stroke-width:0.75;" x="739.83062" xlink:href="#m83d207fe43" y="72.502319"/>
     <use style="fill:#1f77b4;stroke:#ffffff;stroke-width:0.75;" x="741.46517" xlink:href="#m83d207fe43" y="72.502319"/>
    </g>
   </g>
   <g id="line2d_39"/>
   <g id="line2d_40"/>
   <g id="line2d_41"/>
   <g id="line2d_42">
    <path clip-path="url(#pdc5e933554)" d="M 741.46517 288.430125 
L 741.46517 22.318125 
" style="fill:none;stroke:#ff0000;stroke-linecap:square;stroke-width:1.5;"/>
   </g>
   <g id="patch_3">
    <path d="M 59.690625 255.540278 
L 59.690625 25.989616 
" style="fill:none;stroke:#000000;stroke-linecap:square;stroke-linejoin:miter;stroke-width:0.8;"/>
   </g>
   <g id="patch_4">
    <path d="M 92.15608 288.430125 
L 741.466976 288.430125 
" style="fill:none;stroke:#000000;stroke-linecap:square;stroke-linejoin:miter;stroke-width:0.8;"/>
   </g>
   <g id="text_22">
    <!-- freetype2-2017 (22h:15m, 4 trials/fuzzer) -->
    <g transform="translate(291.914063 16.318125)scale(0.12 -0.12)">
     <defs>
      <path d="M 37.109375 75.984375 
L 37.109375 68.5 
L 28.515625 68.5 
Q 23.6875 68.5 21.796875 66.546875 
Q 19.921875 64.59375 19.921875 59.515625 
L 19.921875 54.6875 
L 34.71875 54.6875 
L 34.71875 47.703125 
L 19.921875 47.703125 
L 19.921875 0 
L 10.890625 0 
L 10.890625 47.703125 
L 2.296875 47.703125 
L 2.296875 54.6875 
L 10.890625 54.6875 
L 10.890625 58.5 
Q 10.890625 67.625 15.140625 71.796875 
Q 19.390625 75.984375 28.609375 75.984375 
z
" id="DejaVuSans-102"/>
      <path d="M 32.171875 -5.078125 
Q 28.375 -14.84375 24.75 -17.8125 
Q 21.140625 -20.796875 15.09375 -20.796875 
L 7.90625 -20.796875 
L 7.90625 -13.28125 
L 13.1875 -13.28125 
Q 16.890625 -13.28125 18.9375 -11.515625 
Q 21 -9.765625 23.484375 -3.21875 
L 25.09375 0.875 
L 2.984375 54.6875 
L 12.5 54.6875 
L 29.59375 11.921875 
L 46.6875 54.6875 
L 56.203125 54.6875 
z
" id="DejaVuSans-121"/>
      <path d="M 18.109375 8.203125 
L 18.109375 -20.796875 
L 9.078125 -20.796875 
L 9.078125 54.6875 
L 18.109375 54.6875 
L 18.109375 46.390625 
Q 20.953125 51.265625 25.265625 53.625 
Q 29.59375 56 35.59375 56 
Q 45.5625 56 51.78125 48.09375 
Q 58.015625 40.1875 58.015625 27.296875 
Q 58.015625 14.40625 51.78125 6.484375 
Q 45.5625 -1.421875 35.59375 -1.421875 
Q 29.59375 -1.421875 25.265625 0.953125 
Q 20.953125 3.328125 18.109375 8.203125 
z
M 48.6875 27.296875 
Q 48.6875 37.203125 44.609375 42.84375 
Q 40.53125 48.484375 33.40625 48.484375 
Q 26.265625 48.484375 22.1875 42.84375 
Q 18.109375 37.203125 18.109375 27.296875 
Q 18.109375 17.390625 22.1875 11.75 
Q 26.265625 6.109375 33.40625 6.109375 
Q 40.53125 6.109375 44.609375 11.75 
Q 48.6875 17.390625 48.6875 27.296875 
z
" id="DejaVuSans-112"/>
      <path d="M 4.890625 31.390625 
L 31.203125 31.390625 
L 31.203125 23.390625 
L 4.890625 23.390625 
z
" id="DejaVuSans-45"/>
      <path d="M 11.71875 12.40625 
L 22.015625 12.40625 
L 22.015625 4 
L 14.015625 -11.625 
L 7.71875 -11.625 
L 11.71875 4 
z
" id="DejaVuSans-44"/>
      <path d="M 9.421875 75.984375 
L 18.40625 75.984375 
L 18.40625 0 
L 9.421875 0 
z
" id="DejaVuSans-108"/>
      <path d="M 44.28125 53.078125 
L 44.28125 44.578125 
Q 40.484375 46.53125 36.375 47.5 
Q 32.28125 48.484375 27.875 48.484375 
Q 21.1875 48.484375 17.84375 46.4375 
Q 14.5 44.390625 14.5 40.28125 
Q 14.5 37.15625 16.890625 35.375 
Q 19.28125 33.59375 26.515625 31.984375 
L 29.59375 31.296875 
Q 39.15625 29.25 43.1875 25.515625 
Q 47.21875 21.78125 47.21875 15.09375 
Q 47.21875 7.46875 41.1875 3.015625 
Q 35.15625 -1.421875 24.609375 -1.421875 
Q 20.21875 -1.421875 15.453125 -0.5625 
Q 10.6875 0.296875 5.421875 2 
L 5.421875 11.28125 
Q 10.40625 8.6875 15.234375 7.390625 
Q 20.0625 6.109375 24.8125 6.109375 
Q 31.15625 6.109375 34.5625 8.28125 
Q 37.984375 10.453125 37.984375 14.40625 
Q 37.984375 18.0625 35.515625 20.015625 
Q 33.0625 21.96875 24.703125 23.78125 
L 21.578125 24.515625 
Q 13.234375 26.265625 9.515625 29.90625 
Q 5.8125 33.546875 5.8125 39.890625 
Q 5.8125 47.609375 11.28125 51.796875 
Q 16.75 56 26.8125 56 
Q 31.78125 56 36.171875 55.265625 
Q 40.578125 54.546875 44.28125 53.078125 
z
" id="DejaVuSans-115"/>
      <path d="M 25.390625 72.90625 
L 33.6875 72.90625 
L 8.296875 -9.28125 
L 0 -9.28125 
z
" id="DejaVuSans-47"/>
      <path d="M 5.515625 54.6875 
L 48.1875 54.6875 
L 48.1875 46.484375 
L 14.40625 7.171875 
L 48.1875 7.171875 
L 48.1875 0 
L 4.296875 0 
L 4.296875 8.203125 
L 38.09375 47.515625 
L 5.515625 47.515625 
z
" id="DejaVuSans-122"/>
     </defs>
     <use xlink:href="#DejaVuSans-102"/>
     <use x="35.205078" xlink:href="#DejaVuSans-114"/>
     <use x="74.068359" xlink:href="#DejaVuSans-101"/>
     <use x="135.591797" xlink:href="#DejaVuSans-101"/>
     <use x="197.115234" xlink:href="#DejaVuSans-116"/>
     <use x="236.324219" xlink:href="#DejaVuSans-121"/>
     <use x="295.503906" xlink:href="#DejaVuSans-112"/>
     <use x="358.980469" xlink:href="#DejaVuSans-101"/>
     <use x="420.503906" xlink:href="#DejaVuSans-50"/>
     <use x="484.126953" xlink:href="#DejaVuSans-45"/>
     <use x="520.210938" xlink:href="#DejaVuSans-50"/>
     <use x="583.833984" xlink:href="#DejaVuSans-48"/>
     <use x="647.457031" xlink:href="#DejaVuSans-49"/>
     <use x="711.080078" xlink:href="#DejaVuSans-55"/>
     <use x="774.703125" xlink:href="#DejaVuSans-32"/>
     <use x="806.490234" xlink:href="#DejaVuSans-40"/>
     <use x="845.503906" xlink:href="#DejaVuSans-50"/>
     <use x="909.126953" xlink:href="#DejaVuSans-50"/>
     <use x="972.75" xlink:href="#DejaVuSans-104"/>
     <use x="1036.128906" xlink:href="#DejaVuSans-58"/>
     <use x="1069.820312" xlink:href="#DejaVuSans-49"/>
     <use x="1133.443359" xlink:href="#DejaVuSans-53"/>
     <use x="1197.066406" xlink:href="#DejaVuSans-109"/>
     <use x="1294.478516" xlink:href="#DejaVuSans-44"/>
     <use x="1326.265625" xlink:href="#DejaVuSans-32"/>
     <use x="1358.052734" xlink:href="#DejaVuSans-52"/>
     <use x="1421.675781" xlink:href="#DejaVuSans-32"/>
     <use x="1453.462891" xlink:href="#DejaVuSans-116"/>
     <use x="1492.671875" xlink:href="#DejaVuSans-114"/>
     <use x="1533.785156" xlink:href="#DejaVuSans-105"/>
     <use x="1561.568359" xlink:href="#DejaVuSans-97"/>
     <use x="1622.847656" xlink:href="#DejaVuSans-108"/>
     <use x="1650.630859" xlink:href="#DejaVuSans-115"/>
     <use x="1702.730469" xlink:href="#DejaVuSans-47"/>
     <use x="1736.421875" xlink:href="#DejaVuSans-102"/>
     <use x="1771.626953" xlink:href="#DejaVuSans-117"/>
     <use x="1835.005859" xlink:href="#DejaVuSans-122"/>
     <use x="1887.496094" xlink:href="#DejaVuSans-122"/>
     <use x="1939.986328" xlink:href="#DejaVuSans-101"/>
     <use x="2001.509766" xlink:href="#DejaVuSans-114"/>
     <use x="2042.623047" xlink:href="#DejaVuSans-41"/>
    </g>
   </g>
   <g id="legend_1">
    <g id="line2d_43">
     <path d="M 777.930625 30.416562 
L 797.930625 30.416562 
" style="fill:none;"/>
    </g>
    <g id="line2d_44"/>
    <g id="text_23">
     <!-- fuzzer -->
     <g transform="translate(805.930625 33.916562)scale(0.1 -0.1)">
      <use xlink:href="#DejaVuSans-102"/>
      <use x="35.205078" xlink:href="#DejaVuSans-117"/>
      <use x="98.583984" xlink:href="#DejaVuSans-122"/>
      <use x="151.074219" xlink:href="#DejaVuSans-122"/>
      <use x="203.564453" xlink:href="#DejaVuSans-101"/>
      <use x="265.087891" xlink:href="#DejaVuSans-114"/>
     </g>
    </g>
    <g id="line2d_45">
     <path d="M 777.930625 45.094688 
L 797.930625 45.094688 
" style="fill:none;stroke:#98df8a;stroke-linecap:square;stroke-width:1.5;"/>
    </g>
    <g id="line2d_46">
     <defs>
      <path d="M -0 3 
L 3 -3 
L -3 -3 
z
" id="m0a876c4f86" style="stroke:#98df8a;stroke-linejoin:miter;"/>
     </defs>
     <g>
      <use style="fill:#98df8a;stroke:#98df8a;stroke-linejoin:miter;" x="787.930625" xlink:href="#m0a876c4f86" y="45.094688"/>
     </g>
    </g>
    <g id="text_24">
     <!-- dark_instru_cond -->
     <g transform="translate(805.930625 48.594688)scale(0.1 -0.1)">
      <defs>
       <path d="M 9.078125 75.984375 
L 18.109375 75.984375 
L 18.109375 31.109375 
L 44.921875 54.6875 
L 56.390625 54.6875 
L 27.390625 29.109375 
L 57.625 0 
L 45.90625 0 
L 18.109375 26.703125 
L 18.109375 0 
L 9.078125 0 
z
" id="DejaVuSans-107"/>
       <path d="M 50.984375 -16.609375 
L 50.984375 -23.578125 
L -0.984375 -23.578125 
L -0.984375 -16.609375 
z
" id="DejaVuSans-95"/>
      </defs>
      <use xlink:href="#DejaVuSans-100"/>
      <use x="63.476562" xlink:href="#DejaVuSans-97"/>
      <use x="124.755859" xlink:href="#DejaVuSans-114"/>
      <use x="165.869141" xlink:href="#DejaVuSans-107"/>
      <use x="223.779297" xlink:href="#DejaVuSans-95"/>
      <use x="273.779297" xlink:href="#DejaVuSans-105"/>
      <use x="301.5625" xlink:href="#DejaVuSans-110"/>
      <use x="364.941406" xlink:href="#DejaVuSans-115"/>
      <use x="417.041016" xlink:href="#DejaVuSans-116"/>
      <use x="456.25" xlink:href="#DejaVuSans-114"/>
      <use x="497.363281" xlink:href="#DejaVuSans-117"/>
      <use x="560.742188" xlink:href="#DejaVuSans-95"/>
      <use x="610.742188" xlink:href="#DejaVuSans-99"/>
      <use x="665.722656" xlink:href="#DejaVuSans-111"/>
      <use x="726.904297" xlink:href="#DejaVuSans-110"/>
      <use x="790.283203" xlink:href="#DejaVuSans-100"/>
     </g>
    </g>
    <g id="line2d_47">
     <path d="M 777.930625 60.050937 
L 797.930625 60.050937 
" style="fill:none;stroke:#1f77b4;stroke-linecap:square;stroke-width:1.5;"/>
    </g>
    <g id="line2d_48">
     <defs>
      <path d="M 0 3 
C 0.795609 3 1.55874 2.683901 2.12132 2.12132 
C 2.683901 1.55874 3 0.795609 3 0 
C 3 -0.795609 2.683901 -1.55874 2.12132 -2.12132 
C 1.55874 -2.683901 0.795609 -3 0 -3 
C -0.795609 -3 -1.55874 -2.683901 -2.12132 -2.12132 
C -2.683901 -1.55874 -3 -0.795609 -3 0 
C -3 0.795609 -2.683901 1.55874 -2.12132 2.12132 
C -1.55874 2.683901 -0.795609 3 0 3 
z
" id="m5888fa1dd7" style="stroke:#1f77b4;"/>
     </defs>
     <g>
      <use style="fill:#1f77b4;stroke:#1f77b4;" x="787.930625" xlink:href="#m5888fa1dd7" y="60.050937"/>
     </g>
    </g>
    <g id="text_25">
     <!-- afldark_dev -->
     <g transform="translate(805.930625 63.550937)scale(0.1 -0.1)">
      <use xlink:href="#DejaVuSans-97"/>
      <use x="61.279297" xlink:href="#DejaVuSans-102"/>
      <use x="96.484375" xlink:href="#DejaVuSans-108"/>
      <use x="124.267578" xlink:href="#DejaVuSans-100"/>
      <use x="187.744141" xlink:href="#DejaVuSans-97"/>
      <use x="249.023438" xlink:href="#DejaVuSans-114"/>
      <use x="290.136719" xlink:href="#DejaVuSans-107"/>
      <use x="348.046875" xlink:href="#DejaVuSans-95"/>
      <use x="398.046875" xlink:href="#DejaVuSans-100"/>
      <use x="461.523438" xlink:href="#DejaVuSans-101"/>
      <use x="523.046875" xlink:href="#DejaVuSans-118"/>
     </g>
    </g>
   </g>
  </g>
 </g>
 <defs>
  <clipPath id="pdc5e933554">
   <rect height="266.112" width="714.24" x="59.690625" y="22.318125"/>
  </clipPath>
 </defs>
</svg>
