<?xml version="1.0" encoding="utf-8" standalone="no"?>
<!DOCTYPE svg PUBLIC "-//W3C//DTD SVG 1.1//EN"
  "http://www.w3.org/Graphics/SVG/1.1/DTD/svg11.dtd">
<!-- Created with matplotlib (https://matplotlib.org/) -->
<svg height="325.986375pt" version="1.1" viewBox="0 0 902.505625 325.986375" width="902.505625pt" xmlns="http://www.w3.org/2000/svg" xmlns:xlink="http://www.w3.org/1999/xlink">
 <metadata>
  <rdf:RDF xmlns:cc="http://creativecommons.org/ns#" xmlns:dc="http://purl.org/dc/elements/1.1/" xmlns:rdf="http://www.w3.org/1999/02/22-rdf-syntax-ns#">
   <cc:Work>
    <dc:type rdf:resource="http://purl.org/dc/dcmitype/StillImage"/>
    <dc:date>2020-12-29T17:56:49.826102</dc:date>
    <dc:format>image/svg+xml</dc:format>
    <dc:creator>
     <cc:Agent>
      <dc:title>Matplotlib v3.3.2, https://matplotlib.org/</dc:title>
     </cc:Agent>
    </dc:creator>
   </cc:Work>
  </rdf:RDF>
 </metadata>
 <defs>
  <style type="text/css">*{stroke-linecap:butt;stroke-linejoin:round;}</style>
 </defs>
 <g id="figure_1">
  <g id="patch_1">
   <path d="M 0 325.986375 
L 902.505625 325.986375 
L 902.505625 0 
L 0 0 
z
" style="fill:#ffffff;"/>
  </g>
  <g id="axes_1">
   <g id="patch_2">
    <path d="M 59.690625 288.430125 
L 773.930625 288.430125 
L 773.930625 22.318125 
L 59.690625 22.318125 
z
" style="fill:#ffffff;"/>
   </g>
   <g id="PolyCollection_1">
    <defs>
     <path d="M 92.15608 -79.575284 
L 92.15608 -49.65225 
L 191.451587 -62.543103 
L 249.535735 -75.825874 
L 290.747094 -98.1345 
L 322.713107 -103.899489 
L 348.831242 -111.802868 
L 370.91381 -115.84125 
L 390.042601 -118.059109 
L 406.91539 -126.352601 
L 422.008615 -122.422584 
L 435.662097 -127.342329 
L 448.126749 -127.631301 
L 459.593118 -127.298983 
L 470.209318 -139.06989 
L 480.092763 -157.778288 
L 489.338108 -168.809788 
L 498.022776 -173.469459 
L 506.210898 -175.044717 
L 513.956197 -177.811261 
L 521.304122 -179.219999 
L 528.293466 -185.136697 
L 534.957604 -186.747715 
L 541.325458 -186.783837 
L 547.422257 -187.730219 
L 553.270135 -187.766341 
L 558.888625 -188.315387 
L 564.295046 -189.102836 
L 569.504825 -189.124508 
L 574.531766 -192.724014 
L 579.38827 -192.975058 
L 584.085515 -193.300152 
L 588.633616 -193.068974 
L 593.041752 -194.159843 
L 597.318283 -194.232086 
L 601.470838 -194.607749 
L 605.506405 -195.06288 
L 609.431394 -196.081506 
L 613.251704 -196.225811 
L 616.972774 -196.486066 
L 620.599629 -196.54386 
L 624.136923 -197.050825 
L 627.588973 -198.689476 
L 630.959791 -198.068187 
L 634.253111 -198.884532 
L 637.472418 -199.57084 
L 640.620966 -199.072364 
L 643.701797 -203.47196 
L 646.717764 -203.139643 
L 649.671541 -205.848754 
L 652.565643 -206.029361 
L 655.402431 -205.798184 
L 658.184133 -207.727071 
L 660.912846 -208.181118 
L 663.590553 -208.521743 
L 666.219125 -208.781818 
L 668.800332 -208.832388 
L 671.335852 -208.91908 
L 673.827274 -208.984098 
L 676.276105 -208.984098 
L 678.683777 -209.019858 
L 681.051652 -210.362855 
L 683.381022 -209.612612 
L 685.673121 -210.176107 
L 687.929123 -210.233901 
L 690.150146 -210.479527 
L 692.337259 -211.638305 
L 694.491483 -213.02248 
L 696.61379 -215.47874 
L 698.705114 -215.898111 
L 700.766346 -218.729673 
L 702.798339 -219.235374 
L 704.801912 -219.676056 
L 706.777849 -221.698859 
L 708.726901 -220.990878 
L 710.649791 -221.496579 
L 712.547211 -221.496579 
L 714.419828 -222.009504 
L 716.268281 -222.15399 
L 718.093186 -222.479083 
L 719.895136 -222.710261 
L 721.674701 -223.461587 
L 723.43243 -223.945615 
L 725.168853 -224.039531 
L 726.88448 -224.494662 
L 728.579803 -224.653596 
L 730.255298 -224.826979 
L 731.911422 -224.826979 
L 733.548618 -225.38325 
L 735.167315 -228.047029 
L 736.767926 -225.426596 
L 738.350849 -225.513287 
L 739.916473 -226.640278 
L 741.46517 -212.321723 
L 741.46517 -291.57225 
L 741.46517 -291.57225 
L 739.916473 -278.734676 
L 738.350849 -278.293994 
L 736.767926 -278.517947 
L 735.167315 -278.055592 
L 733.548618 -277.369284 
L 731.911422 -275.662905 
L 730.255298 -276.375943 
L 728.579803 -274.848005 
L 726.88448 -274.154472 
L 725.168853 -275.071958 
L 723.43243 -275.014164 
L 721.674701 -273.590435 
L 719.895136 -273.547631 
L 718.093186 -273.858276 
L 716.268281 -273.244211 
L 714.419828 -269.921035 
L 712.547211 -272.124445 
L 710.649791 -265.35528 
L 708.726901 -266.4317 
L 706.777849 -266.019915 
L 704.801912 -265.680373 
L 702.798339 -265.680373 
L 700.766346 -263.706876 
L 698.705114 -265.022962 
L 696.61379 -266.480464 
L 694.491483 -264.972392 
L 692.337259 -265.153 
L 690.150146 -260.551123 
L 687.929123 -251.239005 
L 685.673121 -247.150054 
L 683.381022 -247.121157 
L 681.051652 -245.170597 
L 678.683777 -244.592653 
L 676.276105 -243.198364 
L 673.827274 -242.179738 
L 671.335852 -242.16529 
L 668.800332 -241.869094 
L 666.219125 -241.861869 
L 663.590553 -241.507879 
L 660.912846 -241.132215 
L 658.184133 -240.872141 
L 655.402431 -241.724608 
L 652.565643 -239.824618 
L 649.671541 -238.011319 
L 646.717764 -237.109366 
L 643.701797 -234.290807 
L 640.620966 -224.10455 
L 637.472418 -223.902269 
L 634.253111 -222.211784 
L 630.959791 -222.587448 
L 627.588973 -222.377943 
L 624.136923 -218.717392 
L 620.599629 -218.356177 
L 616.972774 -218.258649 
L 613.251704 -217.47987 
L 609.431394 -218.007244 
L 605.506405 -217.515992 
L 601.470838 -217.284814 
L 597.318283 -216.30231 
L 593.041752 -215.608778 
L 588.633616 -214.749086 
L 584.085515 -214.541749 
L 579.38827 -214.575703 
L 574.531766 -214.192816 
L 569.504825 -213.023202 
L 564.295046 -212.318653 
L 558.888625 -207.734295 
L 553.270135 -206.881828 
L 547.422257 -205.762062 
L 541.325458 -204.083678 
L 534.957604 -200.104355 
L 528.293466 -199.375785 
L 521.304122 -199.173504 
L 513.956197 -198.183776 
L 506.210898 -197.157926 
L 498.022776 -194.737786 
L 489.338108 -192.360993 
L 480.092763 -191.522975 
L 470.209318 -185.591828 
L 459.593118 -181.824538 
L 448.126749 -180.260297 
L 435.662097 -179.443952 
L 422.008615 -177.237471 
L 406.91539 -169.756171 
L 390.042601 -158.356232 
L 370.91381 -151.587066 
L 348.831242 -140.562791 
L 322.713107 -124.228658 
L 290.747094 -115.949614 
L 249.535735 -104.918114 
L 191.451587 -94.088895 
L 92.15608 -79.575284 
z
" id="m9fbcea0f2c" style="stroke:#98df8a;stroke-opacity:0.2;"/>
    </defs>
    <g clip-path="url(#p0dcd44500b)">
     <use style="fill:#98df8a;fill-opacity:0.2;stroke:#98df8a;stroke-opacity:0.2;" x="0" xlink:href="#m9fbcea0f2c" y="325.986375"/>
    </g>
   </g>
   <g id="PolyCollection_2">
    <defs>
     <path d="M 92.15608 -88.605654 
L 92.15608 -80.378987 
L 191.451587 -89.97827 
L 249.535735 -97.509599 
L 290.747094 -108.472468 
L 322.713107 -113.024678 
L 348.831242 -120.988561 
L 370.91381 -135.256545 
L 390.042601 -142.661449 
L 406.91539 -153.696561 
L 422.008615 -157.859561 
L 435.662097 -160.722189 
L 448.126749 -172.208819 
L 459.593118 -177.031037 
L 470.209318 -179.035779 
L 480.092763 -190.432106 
L 489.338108 -191.533811 
L 498.022776 -195.41687 
L 506.210898 -197.286157 
L 513.956197 -199.453446 
L 521.304122 -201.530431 
L 528.293466 -202.298012 
L 534.957604 -203.968631 
L 541.325458 -206.740954 
L 547.422257 -207.463384 
L 553.270135 -207.662052 
L 558.888625 -208.366421 
L 564.295046 -208.474785 
L 569.504825 -209.856432 
L 574.531766 -210.54274 
L 579.38827 -210.894924 
L 584.085515 -210.894924 
L 588.633616 -211.382564 
L 593.041752 -216.963333 
L 597.318283 -217.902492 
L 601.470838 -218.236615 
L 605.506405 -219.383472 
L 609.431394 -219.401533 
L 613.251704 -220.196206 
L 616.972774 -220.376813 
L 620.599629 -220.674815 
L 624.136923 -221.993249 
L 627.588973 -222.805982 
L 630.959791 -221.839733 
L 634.253111 -221.975188 
L 637.472418 -223.031742 
L 640.620966 -222.670527 
L 643.701797 -222.73374 
L 646.717764 -223.582594 
L 649.671541 -223.844475 
L 652.565643 -224.467571 
L 655.402431 -224.575935 
L 658.184133 -224.955211 
L 660.912846 -225.027454 
L 663.590553 -225.280304 
L 666.219125 -226.219462 
L 668.800332 -226.481343 
L 671.335852 -226.689042 
L 673.827274 -228.10681 
L 676.276105 -227.583048 
L 678.683777 -228.630571 
L 681.051652 -228.720875 
L 683.381022 -228.756996 
L 685.673121 -229.190454 
L 687.929123 -229.271727 
L 690.150146 -229.678094 
L 692.337259 -229.678094 
L 694.491483 -230.120582 
L 696.61379 -230.499858 
L 698.705114 -231.222287 
L 700.766346 -231.141014 
L 702.798339 -231.52029 
L 704.801912 -234.193279 
L 706.777849 -234.46419 
L 708.726901 -234.924739 
L 710.649791 -235.67426 
L 712.547211 -237.462273 
L 714.419828 -237.845838 
L 716.268281 -237.87767 
L 718.093186 -238.157611 
L 719.895136 -238.157611 
L 721.674701 -237.958943 
L 723.43243 -238.699434 
L 725.168853 -238.753616 
L 726.88448 -238.780707 
L 728.579803 -238.889071 
L 730.255298 -238.898102 
L 731.911422 -238.898102 
L 733.548618 -238.934223 
L 735.167315 -238.934223 
L 736.767926 -239.494106 
L 738.350849 -239.530228 
L 739.916473 -238.934223 
L 741.46517 -238.004095 
L 741.46517 -243.350074 
L 741.46517 -243.350074 
L 739.916473 -245.255482 
L 738.350849 -244.930389 
L 736.767926 -244.822025 
L 735.167315 -244.623356 
L 733.548618 -244.415658 
L 731.911422 -244.388567 
L 730.255298 -244.334385 
L 728.579803 -244.334385 
L 726.88448 -244.334385 
L 725.168853 -244.496931 
L 723.43243 -244.162808 
L 721.674701 -244.162808 
L 719.895136 -244.162808 
L 718.093186 -244.162808 
L 716.268281 -244.162808 
L 714.419828 -244.352445 
L 712.547211 -244.108625 
L 710.649791 -244.207959 
L 708.726901 -244.027352 
L 706.777849 -243.891896 
L 704.801912 -243.052072 
L 702.798339 -242.871465 
L 700.766346 -242.790191 
L 698.705114 -241.670425 
L 696.61379 -239.972716 
L 694.491483 -239.494106 
L 692.337259 -238.36531 
L 690.150146 -237.967974 
L 687.929123 -236.721783 
L 685.673121 -235.836806 
L 683.381022 -235.818746 
L 681.051652 -235.746503 
L 678.683777 -235.529774 
L 676.276105 -235.529774 
L 673.827274 -235.006012 
L 671.335852 -234.446129 
L 668.800332 -234.084915 
L 666.219125 -233.940429 
L 663.590553 -233.795943 
L 660.912846 -234.157158 
L 658.184133 -233.552123 
L 655.402431 -233.335394 
L 652.565643 -233.037392 
L 649.671541 -232.24001 
L 646.717764 -231.691867 
L 643.701797 -231.592532 
L 640.620966 -231.141014 
L 637.472418 -230.689495 
L 634.253111 -230.635313 
L 630.959791 -230.54501 
L 627.588973 -230.526949 
L 624.136923 -229.912884 
L 620.599629 -229.353001 
L 616.972774 -229.136272 
L 613.251704 -228.702814 
L 609.431394 -227.294076 
L 605.506405 -226.228493 
L 601.470838 -224.494662 
L 597.318283 -223.203319 
L 593.041752 -220.430995 
L 588.633616 -220.430995 
L 584.085515 -219.311229 
L 579.38827 -219.0945 
L 574.531766 -217.920552 
L 569.504825 -216.914343 
L 564.295046 -215.897749 
L 558.888625 -215.536535 
L 553.270135 -214.994712 
L 547.422257 -214.615437 
L 541.325458 -214.236161 
L 534.957604 -208.709575 
L 528.293466 -208.09551 
L 521.304122 -207.923933 
L 513.956197 -206.686772 
L 506.210898 -206.325557 
L 498.022776 -205.449611 
L 489.338108 -203.977661 
L 480.092763 -202.785652 
L 470.209318 -200.211997 
L 459.593118 -199.697266 
L 448.126749 -198.378832 
L 435.662097 -190.648835 
L 422.008615 -189.041429 
L 406.91539 -187.045717 
L 390.042601 -176.588549 
L 370.91381 -166.682233 
L 348.831242 -150.319203 
L 322.713107 -136.755587 
L 290.747094 -130.506571 
L 249.535735 -118.785151 
L 191.451587 -96.498197 
L 92.15608 -88.605654 
z
" id="m72793a801e" style="stroke:#1f77b4;stroke-opacity:0.2;"/>
    </defs>
    <g clip-path="url(#p0dcd44500b)">
     <use style="fill:#1f77b4;fill-opacity:0.2;stroke:#1f77b4;stroke-opacity:0.2;" x="0" xlink:href="#m72793a801e" y="325.986375"/>
    </g>
   </g>
   <g id="matplotlib.axis_1">
    <g id="xtick_1">
     <g id="line2d_1">
      <defs>
       <path d="M 0 0 
L 0 3.5 
" id="mb5c9ca09d8" style="stroke:#000000;stroke-width:0.8;"/>
      </defs>
      <g>
       <use style="stroke:#000000;stroke-width:0.8;" x="92.15608" xlink:href="#mb5c9ca09d8" y="288.430125"/>
      </g>
     </g>
     <g id="text_1">
      <!-- 14m -->
      <g transform="translate(80.923267 303.028562)scale(0.1 -0.1)">
       <defs>
        <path d="M 12.40625 8.296875 
L 28.515625 8.296875 
L 28.515625 63.921875 
L 10.984375 60.40625 
L 10.984375 69.390625 
L 28.421875 72.90625 
L 38.28125 72.90625 
L 38.28125 8.296875 
L 54.390625 8.296875 
L 54.390625 0 
L 12.40625 0 
z
" id="DejaVuSans-49"/>
        <path d="M 37.796875 64.3125 
L 12.890625 25.390625 
L 37.796875 25.390625 
z
M 35.203125 72.90625 
L 47.609375 72.90625 
L 47.609375 25.390625 
L 58.015625 25.390625 
L 58.015625 17.1875 
L 47.609375 17.1875 
L 47.609375 0 
L 37.796875 0 
L 37.796875 17.1875 
L 4.890625 17.1875 
L 4.890625 26.703125 
z
" id="DejaVuSans-52"/>
        <path d="M 52 44.1875 
Q 55.375 50.25 60.0625 53.125 
Q 64.75 56 71.09375 56 
Q 79.640625 56 84.28125 50.015625 
Q 88.921875 44.046875 88.921875 33.015625 
L 88.921875 0 
L 79.890625 0 
L 79.890625 32.71875 
Q 79.890625 40.578125 77.09375 44.375 
Q 74.3125 48.1875 68.609375 48.1875 
Q 61.625 48.1875 57.5625 43.546875 
Q 53.515625 38.921875 53.515625 30.90625 
L 53.515625 0 
L 44.484375 0 
L 44.484375 32.71875 
Q 44.484375 40.625 41.703125 44.40625 
Q 38.921875 48.1875 33.109375 48.1875 
Q 26.21875 48.1875 22.15625 43.53125 
Q 18.109375 38.875 18.109375 30.90625 
L 18.109375 0 
L 9.078125 0 
L 9.078125 54.6875 
L 18.109375 54.6875 
L 18.109375 46.1875 
Q 21.1875 51.21875 25.484375 53.609375 
Q 29.78125 56 35.6875 56 
Q 41.65625 56 45.828125 52.96875 
Q 50 49.953125 52 44.1875 
z
" id="DejaVuSans-109"/>
       </defs>
       <use xlink:href="#DejaVuSans-49"/>
       <use x="63.623047" xlink:href="#DejaVuSans-52"/>
       <use x="127.246094" xlink:href="#DejaVuSans-109"/>
      </g>
     </g>
    </g>
    <g id="xtick_2">
     <g id="line2d_2">
      <g>
       <use style="stroke:#000000;stroke-width:0.8;" x="151.184334" xlink:href="#mb5c9ca09d8" y="288.430125"/>
      </g>
     </g>
     <g id="text_2">
      <!-- 22m -->
      <g transform="translate(139.951522 303.028562)scale(0.1 -0.1)">
       <defs>
        <path d="M 19.1875 8.296875 
L 53.609375 8.296875 
L 53.609375 0 
L 7.328125 0 
L 7.328125 8.296875 
Q 12.9375 14.109375 22.625 23.890625 
Q 32.328125 33.6875 34.8125 36.53125 
Q 39.546875 41.84375 41.421875 45.53125 
Q 43.3125 49.21875 43.3125 52.78125 
Q 43.3125 58.59375 39.234375 62.25 
Q 35.15625 65.921875 28.609375 65.921875 
Q 23.96875 65.921875 18.8125 64.3125 
Q 13.671875 62.703125 7.8125 59.421875 
L 7.8125 69.390625 
Q 13.765625 71.78125 18.9375 73 
Q 24.125 74.21875 28.421875 74.21875 
Q 39.75 74.21875 46.484375 68.546875 
Q 53.21875 62.890625 53.21875 53.421875 
Q 53.21875 48.921875 51.53125 44.890625 
Q 49.859375 40.875 45.40625 35.40625 
Q 44.1875 33.984375 37.640625 27.21875 
Q 31.109375 20.453125 19.1875 8.296875 
z
" id="DejaVuSans-50"/>
       </defs>
       <use xlink:href="#DejaVuSans-50"/>
       <use x="63.623047" xlink:href="#DejaVuSans-50"/>
       <use x="127.246094" xlink:href="#DejaVuSans-109"/>
      </g>
     </g>
    </g>
    <g id="xtick_3">
     <g id="line2d_3">
      <g>
       <use style="stroke:#000000;stroke-width:0.8;" x="210.212589" xlink:href="#mb5c9ca09d8" y="288.430125"/>
      </g>
     </g>
     <g id="text_3">
      <!-- 34m -->
      <g transform="translate(198.979777 303.028562)scale(0.1 -0.1)">
       <defs>
        <path d="M 40.578125 39.3125 
Q 47.65625 37.796875 51.625 33 
Q 55.609375 28.21875 55.609375 21.1875 
Q 55.609375 10.40625 48.1875 4.484375 
Q 40.765625 -1.421875 27.09375 -1.421875 
Q 22.515625 -1.421875 17.65625 -0.515625 
Q 12.796875 0.390625 7.625 2.203125 
L 7.625 11.71875 
Q 11.71875 9.328125 16.59375 8.109375 
Q 21.484375 6.890625 26.8125 6.890625 
Q 36.078125 6.890625 40.9375 10.546875 
Q 45.796875 14.203125 45.796875 21.1875 
Q 45.796875 27.640625 41.28125 31.265625 
Q 36.765625 34.90625 28.71875 34.90625 
L 20.21875 34.90625 
L 20.21875 43.015625 
L 29.109375 43.015625 
Q 36.375 43.015625 40.234375 45.921875 
Q 44.09375 48.828125 44.09375 54.296875 
Q 44.09375 59.90625 40.109375 62.90625 
Q 36.140625 65.921875 28.71875 65.921875 
Q 24.65625 65.921875 20.015625 65.03125 
Q 15.375 64.15625 9.8125 62.3125 
L 9.8125 71.09375 
Q 15.4375 72.65625 20.34375 73.4375 
Q 25.25 74.21875 29.59375 74.21875 
Q 40.828125 74.21875 47.359375 69.109375 
Q 53.90625 64.015625 53.90625 55.328125 
Q 53.90625 49.265625 50.4375 45.09375 
Q 46.96875 40.921875 40.578125 39.3125 
z
" id="DejaVuSans-51"/>
       </defs>
       <use xlink:href="#DejaVuSans-51"/>
       <use x="63.623047" xlink:href="#DejaVuSans-52"/>
       <use x="127.246094" xlink:href="#DejaVuSans-109"/>
      </g>
     </g>
    </g>
    <g id="xtick_4">
     <g id="line2d_4">
      <g>
       <use style="stroke:#000000;stroke-width:0.8;" x="269.240844" xlink:href="#mb5c9ca09d8" y="288.430125"/>
      </g>
     </g>
     <g id="text_4">
      <!-- 51m -->
      <g transform="translate(258.008031 303.028562)scale(0.1 -0.1)">
       <defs>
        <path d="M 10.796875 72.90625 
L 49.515625 72.90625 
L 49.515625 64.59375 
L 19.828125 64.59375 
L 19.828125 46.734375 
Q 21.96875 47.46875 24.109375 47.828125 
Q 26.265625 48.1875 28.421875 48.1875 
Q 40.625 48.1875 47.75 41.5 
Q 54.890625 34.8125 54.890625 23.390625 
Q 54.890625 11.625 47.5625 5.09375 
Q 40.234375 -1.421875 26.90625 -1.421875 
Q 22.3125 -1.421875 17.546875 -0.640625 
Q 12.796875 0.140625 7.71875 1.703125 
L 7.71875 11.625 
Q 12.109375 9.234375 16.796875 8.0625 
Q 21.484375 6.890625 26.703125 6.890625 
Q 35.15625 6.890625 40.078125 11.328125 
Q 45.015625 15.765625 45.015625 23.390625 
Q 45.015625 31 40.078125 35.4375 
Q 35.15625 39.890625 26.703125 39.890625 
Q 22.75 39.890625 18.8125 39.015625 
Q 14.890625 38.140625 10.796875 36.28125 
z
" id="DejaVuSans-53"/>
       </defs>
       <use xlink:href="#DejaVuSans-53"/>
       <use x="63.623047" xlink:href="#DejaVuSans-49"/>
       <use x="127.246094" xlink:href="#DejaVuSans-109"/>
      </g>
     </g>
    </g>
    <g id="xtick_5">
     <g id="line2d_5">
      <g>
       <use style="stroke:#000000;stroke-width:0.8;" x="328.269099" xlink:href="#mb5c9ca09d8" y="288.430125"/>
      </g>
     </g>
     <g id="text_5">
      <!-- 1h:17m -->
      <g transform="translate(309.001911 303.028562)scale(0.1 -0.1)">
       <defs>
        <path d="M 54.890625 33.015625 
L 54.890625 0 
L 45.90625 0 
L 45.90625 32.71875 
Q 45.90625 40.484375 42.875 44.328125 
Q 39.84375 48.1875 33.796875 48.1875 
Q 26.515625 48.1875 22.3125 43.546875 
Q 18.109375 38.921875 18.109375 30.90625 
L 18.109375 0 
L 9.078125 0 
L 9.078125 75.984375 
L 18.109375 75.984375 
L 18.109375 46.1875 
Q 21.34375 51.125 25.703125 53.5625 
Q 30.078125 56 35.796875 56 
Q 45.21875 56 50.046875 50.171875 
Q 54.890625 44.34375 54.890625 33.015625 
z
" id="DejaVuSans-104"/>
        <path d="M 11.71875 12.40625 
L 22.015625 12.40625 
L 22.015625 0 
L 11.71875 0 
z
M 11.71875 51.703125 
L 22.015625 51.703125 
L 22.015625 39.3125 
L 11.71875 39.3125 
z
" id="DejaVuSans-58"/>
        <path d="M 8.203125 72.90625 
L 55.078125 72.90625 
L 55.078125 68.703125 
L 28.609375 0 
L 18.3125 0 
L 43.21875 64.59375 
L 8.203125 64.59375 
z
" id="DejaVuSans-55"/>
       </defs>
       <use xlink:href="#DejaVuSans-49"/>
       <use x="63.623047" xlink:href="#DejaVuSans-104"/>
       <use x="127.001953" xlink:href="#DejaVuSans-58"/>
       <use x="160.693359" xlink:href="#DejaVuSans-49"/>
       <use x="224.316406" xlink:href="#DejaVuSans-55"/>
       <use x="287.939453" xlink:href="#DejaVuSans-109"/>
      </g>
     </g>
    </g>
    <g id="xtick_6">
     <g id="line2d_6">
      <g>
       <use style="stroke:#000000;stroke-width:0.8;" x="387.297353" xlink:href="#mb5c9ca09d8" y="288.430125"/>
      </g>
     </g>
     <g id="text_6">
      <!-- 1h:57m -->
      <g transform="translate(368.030166 303.028562)scale(0.1 -0.1)">
       <use xlink:href="#DejaVuSans-49"/>
       <use x="63.623047" xlink:href="#DejaVuSans-104"/>
       <use x="127.001953" xlink:href="#DejaVuSans-58"/>
       <use x="160.693359" xlink:href="#DejaVuSans-53"/>
       <use x="224.316406" xlink:href="#DejaVuSans-55"/>
       <use x="287.939453" xlink:href="#DejaVuSans-109"/>
      </g>
     </g>
    </g>
    <g id="xtick_7">
     <g id="line2d_7">
      <g>
       <use style="stroke:#000000;stroke-width:0.8;" x="446.325608" xlink:href="#mb5c9ca09d8" y="288.430125"/>
      </g>
     </g>
     <g id="text_7">
      <!-- 2h:57m -->
      <g transform="translate(427.058421 303.028562)scale(0.1 -0.1)">
       <use xlink:href="#DejaVuSans-50"/>
       <use x="63.623047" xlink:href="#DejaVuSans-104"/>
       <use x="127.001953" xlink:href="#DejaVuSans-58"/>
       <use x="160.693359" xlink:href="#DejaVuSans-53"/>
       <use x="224.316406" xlink:href="#DejaVuSans-55"/>
       <use x="287.939453" xlink:href="#DejaVuSans-109"/>
      </g>
     </g>
    </g>
    <g id="xtick_8">
     <g id="line2d_8">
      <g>
       <use style="stroke:#000000;stroke-width:0.8;" x="505.353863" xlink:href="#mb5c9ca09d8" y="288.430125"/>
      </g>
     </g>
     <g id="text_8">
      <!-- 4h:28m -->
      <g transform="translate(486.086675 303.028562)scale(0.1 -0.1)">
       <defs>
        <path d="M 31.78125 34.625 
Q 24.75 34.625 20.71875 30.859375 
Q 16.703125 27.09375 16.703125 20.515625 
Q 16.703125 13.921875 20.71875 10.15625 
Q 24.75 6.390625 31.78125 6.390625 
Q 38.8125 6.390625 42.859375 10.171875 
Q 46.921875 13.96875 46.921875 20.515625 
Q 46.921875 27.09375 42.890625 30.859375 
Q 38.875 34.625 31.78125 34.625 
z
M 21.921875 38.8125 
Q 15.578125 40.375 12.03125 44.71875 
Q 8.5 49.078125 8.5 55.328125 
Q 8.5 64.0625 14.71875 69.140625 
Q 20.953125 74.21875 31.78125 74.21875 
Q 42.671875 74.21875 48.875 69.140625 
Q 55.078125 64.0625 55.078125 55.328125 
Q 55.078125 49.078125 51.53125 44.71875 
Q 48 40.375 41.703125 38.8125 
Q 48.828125 37.15625 52.796875 32.3125 
Q 56.78125 27.484375 56.78125 20.515625 
Q 56.78125 9.90625 50.3125 4.234375 
Q 43.84375 -1.421875 31.78125 -1.421875 
Q 19.734375 -1.421875 13.25 4.234375 
Q 6.78125 9.90625 6.78125 20.515625 
Q 6.78125 27.484375 10.78125 32.3125 
Q 14.796875 37.15625 21.921875 38.8125 
z
M 18.3125 54.390625 
Q 18.3125 48.734375 21.84375 45.5625 
Q 25.390625 42.390625 31.78125 42.390625 
Q 38.140625 42.390625 41.71875 45.5625 
Q 45.3125 48.734375 45.3125 54.390625 
Q 45.3125 60.0625 41.71875 63.234375 
Q 38.140625 66.40625 31.78125 66.40625 
Q 25.390625 66.40625 21.84375 63.234375 
Q 18.3125 60.0625 18.3125 54.390625 
z
" id="DejaVuSans-56"/>
       </defs>
       <use xlink:href="#DejaVuSans-52"/>
       <use x="63.623047" xlink:href="#DejaVuSans-104"/>
       <use x="127.001953" xlink:href="#DejaVuSans-58"/>
       <use x="160.693359" xlink:href="#DejaVuSans-50"/>
       <use x="224.316406" xlink:href="#DejaVuSans-56"/>
       <use x="287.939453" xlink:href="#DejaVuSans-109"/>
      </g>
     </g>
    </g>
    <g id="xtick_9">
     <g id="line2d_9">
      <g>
       <use style="stroke:#000000;stroke-width:0.8;" x="564.382118" xlink:href="#mb5c9ca09d8" y="288.430125"/>
      </g>
     </g>
     <g id="text_9">
      <!-- 6h:45m -->
      <g transform="translate(545.11493 303.028562)scale(0.1 -0.1)">
       <defs>
        <path d="M 33.015625 40.375 
Q 26.375 40.375 22.484375 35.828125 
Q 18.609375 31.296875 18.609375 23.390625 
Q 18.609375 15.53125 22.484375 10.953125 
Q 26.375 6.390625 33.015625 6.390625 
Q 39.65625 6.390625 43.53125 10.953125 
Q 47.40625 15.53125 47.40625 23.390625 
Q 47.40625 31.296875 43.53125 35.828125 
Q 39.65625 40.375 33.015625 40.375 
z
M 52.59375 71.296875 
L 52.59375 62.3125 
Q 48.875 64.0625 45.09375 64.984375 
Q 41.3125 65.921875 37.59375 65.921875 
Q 27.828125 65.921875 22.671875 59.328125 
Q 17.53125 52.734375 16.796875 39.40625 
Q 19.671875 43.65625 24.015625 45.921875 
Q 28.375 48.1875 33.59375 48.1875 
Q 44.578125 48.1875 50.953125 41.515625 
Q 57.328125 34.859375 57.328125 23.390625 
Q 57.328125 12.15625 50.6875 5.359375 
Q 44.046875 -1.421875 33.015625 -1.421875 
Q 20.359375 -1.421875 13.671875 8.265625 
Q 6.984375 17.96875 6.984375 36.375 
Q 6.984375 53.65625 15.1875 63.9375 
Q 23.390625 74.21875 37.203125 74.21875 
Q 40.921875 74.21875 44.703125 73.484375 
Q 48.484375 72.75 52.59375 71.296875 
z
" id="DejaVuSans-54"/>
       </defs>
       <use xlink:href="#DejaVuSans-54"/>
       <use x="63.623047" xlink:href="#DejaVuSans-104"/>
       <use x="127.001953" xlink:href="#DejaVuSans-58"/>
       <use x="160.693359" xlink:href="#DejaVuSans-52"/>
       <use x="224.316406" xlink:href="#DejaVuSans-53"/>
       <use x="287.939453" xlink:href="#DejaVuSans-109"/>
      </g>
     </g>
    </g>
    <g id="xtick_10">
     <g id="line2d_10">
      <g>
       <use style="stroke:#000000;stroke-width:0.8;" x="623.410372" xlink:href="#mb5c9ca09d8" y="288.430125"/>
      </g>
     </g>
     <g id="text_10">
      <!-- 10h:11m -->
      <g transform="translate(600.961935 303.028562)scale(0.1 -0.1)">
       <defs>
        <path d="M 31.78125 66.40625 
Q 24.171875 66.40625 20.328125 58.90625 
Q 16.5 51.421875 16.5 36.375 
Q 16.5 21.390625 20.328125 13.890625 
Q 24.171875 6.390625 31.78125 6.390625 
Q 39.453125 6.390625 43.28125 13.890625 
Q 47.125 21.390625 47.125 36.375 
Q 47.125 51.421875 43.28125 58.90625 
Q 39.453125 66.40625 31.78125 66.40625 
z
M 31.78125 74.21875 
Q 44.046875 74.21875 50.515625 64.515625 
Q 56.984375 54.828125 56.984375 36.375 
Q 56.984375 17.96875 50.515625 8.265625 
Q 44.046875 -1.421875 31.78125 -1.421875 
Q 19.53125 -1.421875 13.0625 8.265625 
Q 6.59375 17.96875 6.59375 36.375 
Q 6.59375 54.828125 13.0625 64.515625 
Q 19.53125 74.21875 31.78125 74.21875 
z
" id="DejaVuSans-48"/>
       </defs>
       <use xlink:href="#DejaVuSans-49"/>
       <use x="63.623047" xlink:href="#DejaVuSans-48"/>
       <use x="127.246094" xlink:href="#DejaVuSans-104"/>
       <use x="190.625" xlink:href="#DejaVuSans-58"/>
       <use x="224.316406" xlink:href="#DejaVuSans-49"/>
       <use x="287.939453" xlink:href="#DejaVuSans-49"/>
       <use x="351.5625" xlink:href="#DejaVuSans-109"/>
      </g>
     </g>
    </g>
    <g id="xtick_11">
     <g id="line2d_11">
      <g>
       <use style="stroke:#000000;stroke-width:0.8;" x="682.438627" xlink:href="#mb5c9ca09d8" y="288.430125"/>
      </g>
     </g>
     <g id="text_11">
      <!-- 15h:23m -->
      <g transform="translate(659.99019 303.028562)scale(0.1 -0.1)">
       <use xlink:href="#DejaVuSans-49"/>
       <use x="63.623047" xlink:href="#DejaVuSans-53"/>
       <use x="127.246094" xlink:href="#DejaVuSans-104"/>
       <use x="190.625" xlink:href="#DejaVuSans-58"/>
       <use x="224.316406" xlink:href="#DejaVuSans-50"/>
       <use x="287.939453" xlink:href="#DejaVuSans-51"/>
       <use x="351.5625" xlink:href="#DejaVuSans-109"/>
      </g>
     </g>
    </g>
    <g id="xtick_12">
     <g id="line2d_12">
      <g>
       <use style="stroke:#000000;stroke-width:0.8;" x="741.466882" xlink:href="#mb5c9ca09d8" y="288.430125"/>
      </g>
     </g>
     <g id="text_12">
      <!-- 23h:15m -->
      <g transform="translate(719.018444 303.028562)scale(0.1 -0.1)">
       <use xlink:href="#DejaVuSans-50"/>
       <use x="63.623047" xlink:href="#DejaVuSans-51"/>
       <use x="127.246094" xlink:href="#DejaVuSans-104"/>
       <use x="190.625" xlink:href="#DejaVuSans-58"/>
       <use x="224.316406" xlink:href="#DejaVuSans-49"/>
       <use x="287.939453" xlink:href="#DejaVuSans-53"/>
       <use x="351.5625" xlink:href="#DejaVuSans-109"/>
      </g>
     </g>
    </g>
    <g id="xtick_13">
     <g id="line2d_13">
      <defs>
       <path d="M 0 0 
L 0 2 
" id="me825fd6446" style="stroke:#000000;stroke-width:0.6;"/>
      </defs>
      <g>
       <use style="stroke:#000000;stroke-width:0.6;" x="75.28329" xlink:href="#me825fd6446" y="288.430125"/>
      </g>
     </g>
    </g>
    <g id="xtick_14">
     <g id="line2d_14">
      <g>
       <use style="stroke:#000000;stroke-width:0.6;" x="206.544811" xlink:href="#me825fd6446" y="288.430125"/>
      </g>
     </g>
    </g>
    <g id="xtick_15">
     <g id="line2d_15">
      <g>
       <use style="stroke:#000000;stroke-width:0.6;" x="264.628959" xlink:href="#me825fd6446" y="288.430125"/>
      </g>
     </g>
    </g>
    <g id="xtick_16">
     <g id="line2d_16">
      <g>
       <use style="stroke:#000000;stroke-width:0.6;" x="305.840318" xlink:href="#me825fd6446" y="288.430125"/>
      </g>
     </g>
    </g>
    <g id="xtick_17">
     <g id="line2d_17">
      <g>
       <use style="stroke:#000000;stroke-width:0.6;" x="337.806332" xlink:href="#me825fd6446" y="288.430125"/>
      </g>
     </g>
    </g>
    <g id="xtick_18">
     <g id="line2d_18">
      <g>
       <use style="stroke:#000000;stroke-width:0.6;" x="363.924466" xlink:href="#me825fd6446" y="288.430125"/>
      </g>
     </g>
    </g>
    <g id="xtick_19">
     <g id="line2d_19">
      <g>
       <use style="stroke:#000000;stroke-width:0.6;" x="386.007035" xlink:href="#me825fd6446" y="288.430125"/>
      </g>
     </g>
    </g>
    <g id="xtick_20">
     <g id="line2d_20">
      <g>
       <use style="stroke:#000000;stroke-width:0.6;" x="405.135825" xlink:href="#me825fd6446" y="288.430125"/>
      </g>
     </g>
    </g>
    <g id="xtick_21">
     <g id="line2d_21">
      <g>
       <use style="stroke:#000000;stroke-width:0.6;" x="422.008615" xlink:href="#me825fd6446" y="288.430125"/>
      </g>
     </g>
    </g>
    <g id="xtick_22">
     <g id="line2d_22">
      <g>
       <use style="stroke:#000000;stroke-width:0.6;" x="536.397346" xlink:href="#me825fd6446" y="288.430125"/>
      </g>
     </g>
    </g>
    <g id="xtick_23">
     <g id="line2d_23">
      <g>
       <use style="stroke:#000000;stroke-width:0.6;" x="594.481494" xlink:href="#me825fd6446" y="288.430125"/>
      </g>
     </g>
    </g>
    <g id="xtick_24">
     <g id="line2d_24">
      <g>
       <use style="stroke:#000000;stroke-width:0.6;" x="635.692853" xlink:href="#me825fd6446" y="288.430125"/>
      </g>
     </g>
    </g>
    <g id="xtick_25">
     <g id="line2d_25">
      <g>
       <use style="stroke:#000000;stroke-width:0.6;" x="667.658867" xlink:href="#me825fd6446" y="288.430125"/>
      </g>
     </g>
    </g>
    <g id="xtick_26">
     <g id="line2d_26">
      <g>
       <use style="stroke:#000000;stroke-width:0.6;" x="693.777002" xlink:href="#me825fd6446" y="288.430125"/>
      </g>
     </g>
    </g>
    <g id="xtick_27">
     <g id="line2d_27">
      <g>
       <use style="stroke:#000000;stroke-width:0.6;" x="715.85957" xlink:href="#me825fd6446" y="288.430125"/>
      </g>
     </g>
    </g>
    <g id="xtick_28">
     <g id="line2d_28">
      <g>
       <use style="stroke:#000000;stroke-width:0.6;" x="734.988361" xlink:href="#me825fd6446" y="288.430125"/>
      </g>
     </g>
    </g>
    <g id="xtick_29">
     <g id="line2d_29">
      <g>
       <use style="stroke:#000000;stroke-width:0.6;" x="751.86115" xlink:href="#me825fd6446" y="288.430125"/>
      </g>
     </g>
    </g>
    <g id="text_13">
     <!-- Time (hour:minute) -->
     <g transform="translate(368.403594 316.706687)scale(0.1 -0.1)">
      <defs>
       <path d="M -0.296875 72.90625 
L 61.375 72.90625 
L 61.375 64.59375 
L 35.5 64.59375 
L 35.5 0 
L 25.59375 0 
L 25.59375 64.59375 
L -0.296875 64.59375 
z
" id="DejaVuSans-84"/>
       <path d="M 9.421875 54.6875 
L 18.40625 54.6875 
L 18.40625 0 
L 9.421875 0 
z
M 9.421875 75.984375 
L 18.40625 75.984375 
L 18.40625 64.59375 
L 9.421875 64.59375 
z
" id="DejaVuSans-105"/>
       <path d="M 56.203125 29.59375 
L 56.203125 25.203125 
L 14.890625 25.203125 
Q 15.484375 15.921875 20.484375 11.0625 
Q 25.484375 6.203125 34.421875 6.203125 
Q 39.59375 6.203125 44.453125 7.46875 
Q 49.3125 8.734375 54.109375 11.28125 
L 54.109375 2.78125 
Q 49.265625 0.734375 44.1875 -0.34375 
Q 39.109375 -1.421875 33.890625 -1.421875 
Q 20.796875 -1.421875 13.15625 6.1875 
Q 5.515625 13.8125 5.515625 26.8125 
Q 5.515625 40.234375 12.765625 48.109375 
Q 20.015625 56 32.328125 56 
Q 43.359375 56 49.78125 48.890625 
Q 56.203125 41.796875 56.203125 29.59375 
z
M 47.21875 32.234375 
Q 47.125 39.59375 43.09375 43.984375 
Q 39.0625 48.390625 32.421875 48.390625 
Q 24.90625 48.390625 20.390625 44.140625 
Q 15.875 39.890625 15.1875 32.171875 
z
" id="DejaVuSans-101"/>
       <path id="DejaVuSans-32"/>
       <path d="M 31 75.875 
Q 24.46875 64.65625 21.28125 53.65625 
Q 18.109375 42.671875 18.109375 31.390625 
Q 18.109375 20.125 21.3125 9.0625 
Q 24.515625 -2 31 -13.1875 
L 23.1875 -13.1875 
Q 15.875 -1.703125 12.234375 9.375 
Q 8.59375 20.453125 8.59375 31.390625 
Q 8.59375 42.28125 12.203125 53.3125 
Q 15.828125 64.359375 23.1875 75.875 
z
" id="DejaVuSans-40"/>
       <path d="M 30.609375 48.390625 
Q 23.390625 48.390625 19.1875 42.75 
Q 14.984375 37.109375 14.984375 27.296875 
Q 14.984375 17.484375 19.15625 11.84375 
Q 23.34375 6.203125 30.609375 6.203125 
Q 37.796875 6.203125 41.984375 11.859375 
Q 46.1875 17.53125 46.1875 27.296875 
Q 46.1875 37.015625 41.984375 42.703125 
Q 37.796875 48.390625 30.609375 48.390625 
z
M 30.609375 56 
Q 42.328125 56 49.015625 48.375 
Q 55.71875 40.765625 55.71875 27.296875 
Q 55.71875 13.875 49.015625 6.21875 
Q 42.328125 -1.421875 30.609375 -1.421875 
Q 18.84375 -1.421875 12.171875 6.21875 
Q 5.515625 13.875 5.515625 27.296875 
Q 5.515625 40.765625 12.171875 48.375 
Q 18.84375 56 30.609375 56 
z
" id="DejaVuSans-111"/>
       <path d="M 8.5 21.578125 
L 8.5 54.6875 
L 17.484375 54.6875 
L 17.484375 21.921875 
Q 17.484375 14.15625 20.5 10.265625 
Q 23.53125 6.390625 29.59375 6.390625 
Q 36.859375 6.390625 41.078125 11.03125 
Q 45.3125 15.671875 45.3125 23.6875 
L 45.3125 54.6875 
L 54.296875 54.6875 
L 54.296875 0 
L 45.3125 0 
L 45.3125 8.40625 
Q 42.046875 3.421875 37.71875 1 
Q 33.40625 -1.421875 27.6875 -1.421875 
Q 18.265625 -1.421875 13.375 4.4375 
Q 8.5 10.296875 8.5 21.578125 
z
M 31.109375 56 
z
" id="DejaVuSans-117"/>
       <path d="M 41.109375 46.296875 
Q 39.59375 47.171875 37.8125 47.578125 
Q 36.03125 48 33.890625 48 
Q 26.265625 48 22.1875 43.046875 
Q 18.109375 38.09375 18.109375 28.8125 
L 18.109375 0 
L 9.078125 0 
L 9.078125 54.6875 
L 18.109375 54.6875 
L 18.109375 46.1875 
Q 20.953125 51.171875 25.484375 53.578125 
Q 30.03125 56 36.53125 56 
Q 37.453125 56 38.578125 55.875 
Q 39.703125 55.765625 41.0625 55.515625 
z
" id="DejaVuSans-114"/>
       <path d="M 54.890625 33.015625 
L 54.890625 0 
L 45.90625 0 
L 45.90625 32.71875 
Q 45.90625 40.484375 42.875 44.328125 
Q 39.84375 48.1875 33.796875 48.1875 
Q 26.515625 48.1875 22.3125 43.546875 
Q 18.109375 38.921875 18.109375 30.90625 
L 18.109375 0 
L 9.078125 0 
L 9.078125 54.6875 
L 18.109375 54.6875 
L 18.109375 46.1875 
Q 21.34375 51.125 25.703125 53.5625 
Q 30.078125 56 35.796875 56 
Q 45.21875 56 50.046875 50.171875 
Q 54.890625 44.34375 54.890625 33.015625 
z
" id="DejaVuSans-110"/>
       <path d="M 18.3125 70.21875 
L 18.3125 54.6875 
L 36.8125 54.6875 
L 36.8125 47.703125 
L 18.3125 47.703125 
L 18.3125 18.015625 
Q 18.3125 11.328125 20.140625 9.421875 
Q 21.96875 7.515625 27.59375 7.515625 
L 36.8125 7.515625 
L 36.8125 0 
L 27.59375 0 
Q 17.1875 0 13.234375 3.875 
Q 9.28125 7.765625 9.28125 18.015625 
L 9.28125 47.703125 
L 2.6875 47.703125 
L 2.6875 54.6875 
L 9.28125 54.6875 
L 9.28125 70.21875 
z
" id="DejaVuSans-116"/>
       <path d="M 8.015625 75.875 
L 15.828125 75.875 
Q 23.140625 64.359375 26.78125 53.3125 
Q 30.421875 42.28125 30.421875 31.390625 
Q 30.421875 20.453125 26.78125 9.375 
Q 23.140625 -1.703125 15.828125 -13.1875 
L 8.015625 -13.1875 
Q 14.5 -2 17.703125 9.0625 
Q 20.90625 20.125 20.90625 31.390625 
Q 20.90625 42.671875 17.703125 53.65625 
Q 14.5 64.65625 8.015625 75.875 
z
" id="DejaVuSans-41"/>
      </defs>
      <use xlink:href="#DejaVuSans-84"/>
      <use x="57.958984" xlink:href="#DejaVuSans-105"/>
      <use x="85.742188" xlink:href="#DejaVuSans-109"/>
      <use x="183.154297" xlink:href="#DejaVuSans-101"/>
      <use x="244.677734" xlink:href="#DejaVuSans-32"/>
      <use x="276.464844" xlink:href="#DejaVuSans-40"/>
      <use x="315.478516" xlink:href="#DejaVuSans-104"/>
      <use x="378.857422" xlink:href="#DejaVuSans-111"/>
      <use x="440.039062" xlink:href="#DejaVuSans-117"/>
      <use x="503.417969" xlink:href="#DejaVuSans-114"/>
      <use x="542.78125" xlink:href="#DejaVuSans-58"/>
      <use x="576.472656" xlink:href="#DejaVuSans-109"/>
      <use x="673.884766" xlink:href="#DejaVuSans-105"/>
      <use x="701.667969" xlink:href="#DejaVuSans-110"/>
      <use x="765.046875" xlink:href="#DejaVuSans-117"/>
      <use x="828.425781" xlink:href="#DejaVuSans-116"/>
      <use x="867.634766" xlink:href="#DejaVuSans-101"/>
      <use x="929.158203" xlink:href="#DejaVuSans-41"/>
     </g>
    </g>
   </g>
   <g id="matplotlib.axis_2">
    <g id="ytick_1">
     <g id="line2d_30">
      <defs>
       <path d="M 0 0 
L -3.5 0 
" id="mb73e473cb9" style="stroke:#000000;stroke-width:0.8;"/>
      </defs>
      <g>
       <use style="stroke:#000000;stroke-width:0.8;" x="59.690625" xlink:href="#mb73e473cb9" y="256.705713"/>
      </g>
     </g>
     <g id="text_14">
      <!-- 13000 -->
      <g transform="translate(20.878125 260.504932)scale(0.1 -0.1)">
       <use xlink:href="#DejaVuSans-49"/>
       <use x="63.623047" xlink:href="#DejaVuSans-51"/>
       <use x="127.246094" xlink:href="#DejaVuSans-48"/>
       <use x="190.869141" xlink:href="#DejaVuSans-48"/>
       <use x="254.492188" xlink:href="#DejaVuSans-48"/>
      </g>
     </g>
    </g>
    <g id="ytick_2">
     <g id="line2d_31">
      <g>
       <use style="stroke:#000000;stroke-width:0.8;" x="59.690625" xlink:href="#mb73e473cb9" y="220.584233"/>
      </g>
     </g>
     <g id="text_15">
      <!-- 14000 -->
      <g transform="translate(20.878125 224.383452)scale(0.1 -0.1)">
       <use xlink:href="#DejaVuSans-49"/>
       <use x="63.623047" xlink:href="#DejaVuSans-52"/>
       <use x="127.246094" xlink:href="#DejaVuSans-48"/>
       <use x="190.869141" xlink:href="#DejaVuSans-48"/>
       <use x="254.492188" xlink:href="#DejaVuSans-48"/>
      </g>
     </g>
    </g>
    <g id="ytick_3">
     <g id="line2d_32">
      <g>
       <use style="stroke:#000000;stroke-width:0.8;" x="59.690625" xlink:href="#mb73e473cb9" y="184.462753"/>
      </g>
     </g>
     <g id="text_16">
      <!-- 15000 -->
      <g transform="translate(20.878125 188.261972)scale(0.1 -0.1)">
       <use xlink:href="#DejaVuSans-49"/>
       <use x="63.623047" xlink:href="#DejaVuSans-53"/>
       <use x="127.246094" xlink:href="#DejaVuSans-48"/>
       <use x="190.869141" xlink:href="#DejaVuSans-48"/>
       <use x="254.492188" xlink:href="#DejaVuSans-48"/>
      </g>
     </g>
    </g>
    <g id="ytick_4">
     <g id="line2d_33">
      <g>
       <use style="stroke:#000000;stroke-width:0.8;" x="59.690625" xlink:href="#mb73e473cb9" y="148.341273"/>
      </g>
     </g>
     <g id="text_17">
      <!-- 16000 -->
      <g transform="translate(20.878125 152.140492)scale(0.1 -0.1)">
       <use xlink:href="#DejaVuSans-49"/>
       <use x="63.623047" xlink:href="#DejaVuSans-54"/>
       <use x="127.246094" xlink:href="#DejaVuSans-48"/>
       <use x="190.869141" xlink:href="#DejaVuSans-48"/>
       <use x="254.492188" xlink:href="#DejaVuSans-48"/>
      </g>
     </g>
    </g>
    <g id="ytick_5">
     <g id="line2d_34">
      <g>
       <use style="stroke:#000000;stroke-width:0.8;" x="59.690625" xlink:href="#mb73e473cb9" y="112.219793"/>
      </g>
     </g>
     <g id="text_18">
      <!-- 17000 -->
      <g transform="translate(20.878125 116.019012)scale(0.1 -0.1)">
       <use xlink:href="#DejaVuSans-49"/>
       <use x="63.623047" xlink:href="#DejaVuSans-55"/>
       <use x="127.246094" xlink:href="#DejaVuSans-48"/>
       <use x="190.869141" xlink:href="#DejaVuSans-48"/>
       <use x="254.492188" xlink:href="#DejaVuSans-48"/>
      </g>
     </g>
    </g>
    <g id="ytick_6">
     <g id="line2d_35">
      <g>
       <use style="stroke:#000000;stroke-width:0.8;" x="59.690625" xlink:href="#mb73e473cb9" y="76.098313"/>
      </g>
     </g>
     <g id="text_19">
      <!-- 18000 -->
      <g transform="translate(20.878125 79.897532)scale(0.1 -0.1)">
       <use xlink:href="#DejaVuSans-49"/>
       <use x="63.623047" xlink:href="#DejaVuSans-56"/>
       <use x="127.246094" xlink:href="#DejaVuSans-48"/>
       <use x="190.869141" xlink:href="#DejaVuSans-48"/>
       <use x="254.492188" xlink:href="#DejaVuSans-48"/>
      </g>
     </g>
    </g>
    <g id="ytick_7">
     <g id="line2d_36">
      <g>
       <use style="stroke:#000000;stroke-width:0.8;" x="59.690625" xlink:href="#mb73e473cb9" y="39.976833"/>
      </g>
     </g>
     <g id="text_20">
      <!-- 19000 -->
      <g transform="translate(20.878125 43.776052)scale(0.1 -0.1)">
       <defs>
        <path d="M 10.984375 1.515625 
L 10.984375 10.5 
Q 14.703125 8.734375 18.5 7.8125 
Q 22.3125 6.890625 25.984375 6.890625 
Q 35.75 6.890625 40.890625 13.453125 
Q 46.046875 20.015625 46.78125 33.40625 
Q 43.953125 29.203125 39.59375 26.953125 
Q 35.25 24.703125 29.984375 24.703125 
Q 19.046875 24.703125 12.671875 31.3125 
Q 6.296875 37.9375 6.296875 49.421875 
Q 6.296875 60.640625 12.9375 67.421875 
Q 19.578125 74.21875 30.609375 74.21875 
Q 43.265625 74.21875 49.921875 64.515625 
Q 56.59375 54.828125 56.59375 36.375 
Q 56.59375 19.140625 48.40625 8.859375 
Q 40.234375 -1.421875 26.421875 -1.421875 
Q 22.703125 -1.421875 18.890625 -0.6875 
Q 15.09375 0.046875 10.984375 1.515625 
z
M 30.609375 32.421875 
Q 37.25 32.421875 41.125 36.953125 
Q 45.015625 41.5 45.015625 49.421875 
Q 45.015625 57.28125 41.125 61.84375 
Q 37.25 66.40625 30.609375 66.40625 
Q 23.96875 66.40625 20.09375 61.84375 
Q 16.21875 57.28125 16.21875 49.421875 
Q 16.21875 41.5 20.09375 36.953125 
Q 23.96875 32.421875 30.609375 32.421875 
z
" id="DejaVuSans-57"/>
       </defs>
       <use xlink:href="#DejaVuSans-49"/>
       <use x="63.623047" xlink:href="#DejaVuSans-57"/>
       <use x="127.246094" xlink:href="#DejaVuSans-48"/>
       <use x="190.869141" xlink:href="#DejaVuSans-48"/>
       <use x="254.492188" xlink:href="#DejaVuSans-48"/>
      </g>
     </g>
    </g>
    <g id="text_21">
     <!-- Edge coverage -->
     <g transform="translate(14.798437 192.762406)rotate(-90)scale(0.1 -0.1)">
      <defs>
       <path d="M 9.8125 72.90625 
L 55.90625 72.90625 
L 55.90625 64.59375 
L 19.671875 64.59375 
L 19.671875 43.015625 
L 54.390625 43.015625 
L 54.390625 34.71875 
L 19.671875 34.71875 
L 19.671875 8.296875 
L 56.78125 8.296875 
L 56.78125 0 
L 9.8125 0 
z
" id="DejaVuSans-69"/>
       <path d="M 45.40625 46.390625 
L 45.40625 75.984375 
L 54.390625 75.984375 
L 54.390625 0 
L 45.40625 0 
L 45.40625 8.203125 
Q 42.578125 3.328125 38.25 0.953125 
Q 33.9375 -1.421875 27.875 -1.421875 
Q 17.96875 -1.421875 11.734375 6.484375 
Q 5.515625 14.40625 5.515625 27.296875 
Q 5.515625 40.1875 11.734375 48.09375 
Q 17.96875 56 27.875 56 
Q 33.9375 56 38.25 53.625 
Q 42.578125 51.265625 45.40625 46.390625 
z
M 14.796875 27.296875 
Q 14.796875 17.390625 18.875 11.75 
Q 22.953125 6.109375 30.078125 6.109375 
Q 37.203125 6.109375 41.296875 11.75 
Q 45.40625 17.390625 45.40625 27.296875 
Q 45.40625 37.203125 41.296875 42.84375 
Q 37.203125 48.484375 30.078125 48.484375 
Q 22.953125 48.484375 18.875 42.84375 
Q 14.796875 37.203125 14.796875 27.296875 
z
" id="DejaVuSans-100"/>
       <path d="M 45.40625 27.984375 
Q 45.40625 37.75 41.375 43.109375 
Q 37.359375 48.484375 30.078125 48.484375 
Q 22.859375 48.484375 18.828125 43.109375 
Q 14.796875 37.75 14.796875 27.984375 
Q 14.796875 18.265625 18.828125 12.890625 
Q 22.859375 7.515625 30.078125 7.515625 
Q 37.359375 7.515625 41.375 12.890625 
Q 45.40625 18.265625 45.40625 27.984375 
z
M 54.390625 6.78125 
Q 54.390625 -7.171875 48.1875 -13.984375 
Q 42 -20.796875 29.203125 -20.796875 
Q 24.46875 -20.796875 20.265625 -20.09375 
Q 16.0625 -19.390625 12.109375 -17.921875 
L 12.109375 -9.1875 
Q 16.0625 -11.328125 19.921875 -12.34375 
Q 23.78125 -13.375 27.78125 -13.375 
Q 36.625 -13.375 41.015625 -8.765625 
Q 45.40625 -4.15625 45.40625 5.171875 
L 45.40625 9.625 
Q 42.625 4.78125 38.28125 2.390625 
Q 33.9375 0 27.875 0 
Q 17.828125 0 11.671875 7.65625 
Q 5.515625 15.328125 5.515625 27.984375 
Q 5.515625 40.671875 11.671875 48.328125 
Q 17.828125 56 27.875 56 
Q 33.9375 56 38.28125 53.609375 
Q 42.625 51.21875 45.40625 46.390625 
L 45.40625 54.6875 
L 54.390625 54.6875 
z
" id="DejaVuSans-103"/>
       <path d="M 48.78125 52.59375 
L 48.78125 44.1875 
Q 44.96875 46.296875 41.140625 47.34375 
Q 37.3125 48.390625 33.40625 48.390625 
Q 24.65625 48.390625 19.8125 42.84375 
Q 14.984375 37.3125 14.984375 27.296875 
Q 14.984375 17.28125 19.8125 11.734375 
Q 24.65625 6.203125 33.40625 6.203125 
Q 37.3125 6.203125 41.140625 7.25 
Q 44.96875 8.296875 48.78125 10.40625 
L 48.78125 2.09375 
Q 45.015625 0.34375 40.984375 -0.53125 
Q 36.96875 -1.421875 32.421875 -1.421875 
Q 20.0625 -1.421875 12.78125 6.34375 
Q 5.515625 14.109375 5.515625 27.296875 
Q 5.515625 40.671875 12.859375 48.328125 
Q 20.21875 56 33.015625 56 
Q 37.15625 56 41.109375 55.140625 
Q 45.0625 54.296875 48.78125 52.59375 
z
" id="DejaVuSans-99"/>
       <path d="M 2.984375 54.6875 
L 12.5 54.6875 
L 29.59375 8.796875 
L 46.6875 54.6875 
L 56.203125 54.6875 
L 35.6875 0 
L 23.484375 0 
z
" id="DejaVuSans-118"/>
       <path d="M 34.28125 27.484375 
Q 23.390625 27.484375 19.1875 25 
Q 14.984375 22.515625 14.984375 16.5 
Q 14.984375 11.71875 18.140625 8.90625 
Q 21.296875 6.109375 26.703125 6.109375 
Q 34.1875 6.109375 38.703125 11.40625 
Q 43.21875 16.703125 43.21875 25.484375 
L 43.21875 27.484375 
z
M 52.203125 31.203125 
L 52.203125 0 
L 43.21875 0 
L 43.21875 8.296875 
Q 40.140625 3.328125 35.546875 0.953125 
Q 30.953125 -1.421875 24.3125 -1.421875 
Q 15.921875 -1.421875 10.953125 3.296875 
Q 6 8.015625 6 15.921875 
Q 6 25.140625 12.171875 29.828125 
Q 18.359375 34.515625 30.609375 34.515625 
L 43.21875 34.515625 
L 43.21875 35.40625 
Q 43.21875 41.609375 39.140625 45 
Q 35.0625 48.390625 27.6875 48.390625 
Q 23 48.390625 18.546875 47.265625 
Q 14.109375 46.140625 10.015625 43.890625 
L 10.015625 52.203125 
Q 14.9375 54.109375 19.578125 55.046875 
Q 24.21875 56 28.609375 56 
Q 40.484375 56 46.34375 49.84375 
Q 52.203125 43.703125 52.203125 31.203125 
z
" id="DejaVuSans-97"/>
      </defs>
      <use xlink:href="#DejaVuSans-69"/>
      <use x="63.183594" xlink:href="#DejaVuSans-100"/>
      <use x="126.660156" xlink:href="#DejaVuSans-103"/>
      <use x="190.136719" xlink:href="#DejaVuSans-101"/>
      <use x="251.660156" xlink:href="#DejaVuSans-32"/>
      <use x="283.447266" xlink:href="#DejaVuSans-99"/>
      <use x="338.427734" xlink:href="#DejaVuSans-111"/>
      <use x="399.609375" xlink:href="#DejaVuSans-118"/>
      <use x="458.789062" xlink:href="#DejaVuSans-101"/>
      <use x="520.3125" xlink:href="#DejaVuSans-114"/>
      <use x="561.425781" xlink:href="#DejaVuSans-97"/>
      <use x="622.705078" xlink:href="#DejaVuSans-103"/>
      <use x="686.181641" xlink:href="#DejaVuSans-101"/>
     </g>
    </g>
   </g>
   <g id="line2d_37">
    <path clip-path="url(#p0dcd44500b)" d="M 92.15608 257.110273 
L 191.451587 243.636961 
L 249.535735 232.323714 
L 290.747094 219.363327 
L 322.713107 211.575536 
L 348.831242 197.545953 
L 370.91381 190.668423 
L 390.042601 186.413313 
L 406.91539 177.931989 
L 422.008615 173.951402 
L 435.662097 171.170048 
L 448.126749 170.411497 
L 459.593118 168.38147 
L 470.209318 161.337781 
L 480.092763 149.995637 
L 489.338108 144.324564 
L 498.022776 141.254238 
L 506.210898 138.877445 
L 513.956197 137.302549 
L 521.304122 135.821568 
L 528.293466 133.625382 
L 534.957604 132.628429 
L 541.325458 131.118551 
L 547.422257 130.273309 
L 553.270135 129.659243 
L 558.888625 129.016281 
L 564.295046 126.993478 
L 569.504825 126.704506 
L 574.531766 124.985124 
L 579.38827 124.652806 
L 584.085515 124.363834 
L 588.633616 124.10376 
L 593.041752 123.4319 
L 597.318283 123.092358 
L 601.470838 122.853957 
L 605.506405 122.492742 
L 609.431394 121.857004 
L 613.251704 121.734191 
L 616.972774 121.423546 
L 620.599629 121.141798 
L 624.136923 120.513285 
L 627.588973 117.016725 
L 630.959791 116.778324 
L 634.253111 116.417109 
L 637.472418 115.521296 
L 640.620966 115.319016 
L 643.701797 107.560122 
L 646.717764 105.84074 
L 649.671541 103.709572 
L 652.565643 103.059386 
L 655.402431 102.719844 
L 658.184133 101.824031 
L 660.912846 101.41947 
L 663.590553 101.087153 
L 666.219125 100.848751 
L 668.800332 100.812629 
L 671.335852 100.588676 
L 673.827274 100.545331 
L 676.276105 100.516433 
L 678.683777 100.335826 
L 681.051652 98.804275 
L 683.381022 97.619491 
L 685.673121 97.323295 
L 687.929123 95.127109 
L 690.150146 90.489111 
L 692.337259 90.077326 
L 694.491483 88.097869 
L 696.61379 86.638561 
L 698.705114 86.262897 
L 700.766346 84.774692 
L 702.798339 84.189524 
L 704.801912 83.965571 
L 706.777849 83.170899 
L 708.726901 82.968618 
L 710.649791 82.499039 
L 712.547211 80.80133 
L 714.419828 80.021106 
L 716.268281 79.934414 
L 718.093186 79.197536 
L 719.895136 78.785751 
L 721.674701 78.005527 
L 723.43243 77.456481 
L 725.168853 77.377013 
L 726.88448 76.661808 
L 728.579803 76.235575 
L 730.255298 76.148883 
L 731.911422 75.758771 
L 733.548618 75.375883 
L 735.167315 74.256117 
L 736.767926 74.205547 
L 738.350849 74.082734 
L 739.916473 73.844333 
L 741.46517 78.735181 
" style="fill:none;stroke:#98df8a;stroke-linecap:square;stroke-width:1.5;"/>
    <defs>
     <path d="M -0 3 
L 3 -3 
L -3 -3 
z
" id="ma50335be3d" style="stroke:#ffffff;stroke-linejoin:miter;stroke-width:0.75;"/>
    </defs>
    <g clip-path="url(#p0dcd44500b)">
     <use style="fill:#98df8a;stroke:#ffffff;stroke-linejoin:miter;stroke-width:0.75;" x="92.15608" xlink:href="#ma50335be3d" y="257.110273"/>
     <use style="fill:#98df8a;stroke:#ffffff;stroke-linejoin:miter;stroke-width:0.75;" x="191.451587" xlink:href="#ma50335be3d" y="243.636961"/>
     <use style="fill:#98df8a;stroke:#ffffff;stroke-linejoin:miter;stroke-width:0.75;" x="249.535735" xlink:href="#ma50335be3d" y="232.323714"/>
     <use style="fill:#98df8a;stroke:#ffffff;stroke-linejoin:miter;stroke-width:0.75;" x="290.747094" xlink:href="#ma50335be3d" y="219.363327"/>
     <use style="fill:#98df8a;stroke:#ffffff;stroke-linejoin:miter;stroke-width:0.75;" x="322.713107" xlink:href="#ma50335be3d" y="211.575536"/>
     <use style="fill:#98df8a;stroke:#ffffff;stroke-linejoin:miter;stroke-width:0.75;" x="348.831242" xlink:href="#ma50335be3d" y="197.545953"/>
     <use style="fill:#98df8a;stroke:#ffffff;stroke-linejoin:miter;stroke-width:0.75;" x="370.91381" xlink:href="#ma50335be3d" y="190.668423"/>
     <use style="fill:#98df8a;stroke:#ffffff;stroke-linejoin:miter;stroke-width:0.75;" x="390.042601" xlink:href="#ma50335be3d" y="186.413313"/>
     <use style="fill:#98df8a;stroke:#ffffff;stroke-linejoin:miter;stroke-width:0.75;" x="406.91539" xlink:href="#ma50335be3d" y="177.931989"/>
     <use style="fill:#98df8a;stroke:#ffffff;stroke-linejoin:miter;stroke-width:0.75;" x="422.008615" xlink:href="#ma50335be3d" y="173.951402"/>
     <use style="fill:#98df8a;stroke:#ffffff;stroke-linejoin:miter;stroke-width:0.75;" x="435.662097" xlink:href="#ma50335be3d" y="171.170048"/>
     <use style="fill:#98df8a;stroke:#ffffff;stroke-linejoin:miter;stroke-width:0.75;" x="448.126749" xlink:href="#ma50335be3d" y="170.411497"/>
     <use style="fill:#98df8a;stroke:#ffffff;stroke-linejoin:miter;stroke-width:0.75;" x="459.593118" xlink:href="#ma50335be3d" y="168.38147"/>
     <use style="fill:#98df8a;stroke:#ffffff;stroke-linejoin:miter;stroke-width:0.75;" x="470.209318" xlink:href="#ma50335be3d" y="161.337781"/>
     <use style="fill:#98df8a;stroke:#ffffff;stroke-linejoin:miter;stroke-width:0.75;" x="480.092763" xlink:href="#ma50335be3d" y="149.995637"/>
     <use style="fill:#98df8a;stroke:#ffffff;stroke-linejoin:miter;stroke-width:0.75;" x="489.338108" xlink:href="#ma50335be3d" y="144.324564"/>
     <use style="fill:#98df8a;stroke:#ffffff;stroke-linejoin:miter;stroke-width:0.75;" x="498.022776" xlink:href="#ma50335be3d" y="141.254238"/>
     <use style="fill:#98df8a;stroke:#ffffff;stroke-linejoin:miter;stroke-width:0.75;" x="506.210898" xlink:href="#ma50335be3d" y="138.877445"/>
     <use style="fill:#98df8a;stroke:#ffffff;stroke-linejoin:miter;stroke-width:0.75;" x="513.956197" xlink:href="#ma50335be3d" y="137.302549"/>
     <use style="fill:#98df8a;stroke:#ffffff;stroke-linejoin:miter;stroke-width:0.75;" x="521.304122" xlink:href="#ma50335be3d" y="135.821568"/>
     <use style="fill:#98df8a;stroke:#ffffff;stroke-linejoin:miter;stroke-width:0.75;" x="528.293466" xlink:href="#ma50335be3d" y="133.625382"/>
     <use style="fill:#98df8a;stroke:#ffffff;stroke-linejoin:miter;stroke-width:0.75;" x="534.957604" xlink:href="#ma50335be3d" y="132.628429"/>
     <use style="fill:#98df8a;stroke:#ffffff;stroke-linejoin:miter;stroke-width:0.75;" x="541.325458" xlink:href="#ma50335be3d" y="131.118551"/>
     <use style="fill:#98df8a;stroke:#ffffff;stroke-linejoin:miter;stroke-width:0.75;" x="547.422257" xlink:href="#ma50335be3d" y="130.273309"/>
     <use style="fill:#98df8a;stroke:#ffffff;stroke-linejoin:miter;stroke-width:0.75;" x="553.270135" xlink:href="#ma50335be3d" y="129.659243"/>
     <use style="fill:#98df8a;stroke:#ffffff;stroke-linejoin:miter;stroke-width:0.75;" x="558.888625" xlink:href="#ma50335be3d" y="129.016281"/>
     <use style="fill:#98df8a;stroke:#ffffff;stroke-linejoin:miter;stroke-width:0.75;" x="564.295046" xlink:href="#ma50335be3d" y="126.993478"/>
     <use style="fill:#98df8a;stroke:#ffffff;stroke-linejoin:miter;stroke-width:0.75;" x="569.504825" xlink:href="#ma50335be3d" y="126.704506"/>
     <use style="fill:#98df8a;stroke:#ffffff;stroke-linejoin:miter;stroke-width:0.75;" x="574.531766" xlink:href="#ma50335be3d" y="124.985124"/>
     <use style="fill:#98df8a;stroke:#ffffff;stroke-linejoin:miter;stroke-width:0.75;" x="579.38827" xlink:href="#ma50335be3d" y="124.652806"/>
     <use style="fill:#98df8a;stroke:#ffffff;stroke-linejoin:miter;stroke-width:0.75;" x="584.085515" xlink:href="#ma50335be3d" y="124.363834"/>
     <use style="fill:#98df8a;stroke:#ffffff;stroke-linejoin:miter;stroke-width:0.75;" x="588.633616" xlink:href="#ma50335be3d" y="124.10376"/>
     <use style="fill:#98df8a;stroke:#ffffff;stroke-linejoin:miter;stroke-width:0.75;" x="593.041752" xlink:href="#ma50335be3d" y="123.4319"/>
     <use style="fill:#98df8a;stroke:#ffffff;stroke-linejoin:miter;stroke-width:0.75;" x="597.318283" xlink:href="#ma50335be3d" y="123.092358"/>
     <use style="fill:#98df8a;stroke:#ffffff;stroke-linejoin:miter;stroke-width:0.75;" x="601.470838" xlink:href="#ma50335be3d" y="122.853957"/>
     <use style="fill:#98df8a;stroke:#ffffff;stroke-linejoin:miter;stroke-width:0.75;" x="605.506405" xlink:href="#ma50335be3d" y="122.492742"/>
     <use style="fill:#98df8a;stroke:#ffffff;stroke-linejoin:miter;stroke-width:0.75;" x="609.431394" xlink:href="#ma50335be3d" y="121.857004"/>
     <use style="fill:#98df8a;stroke:#ffffff;stroke-linejoin:miter;stroke-width:0.75;" x="613.251704" xlink:href="#ma50335be3d" y="121.734191"/>
     <use style="fill:#98df8a;stroke:#ffffff;stroke-linejoin:miter;stroke-width:0.75;" x="616.972774" xlink:href="#ma50335be3d" y="121.423546"/>
     <use style="fill:#98df8a;stroke:#ffffff;stroke-linejoin:miter;stroke-width:0.75;" x="620.599629" xlink:href="#ma50335be3d" y="121.141798"/>
     <use style="fill:#98df8a;stroke:#ffffff;stroke-linejoin:miter;stroke-width:0.75;" x="624.136923" xlink:href="#ma50335be3d" y="120.513285"/>
     <use style="fill:#98df8a;stroke:#ffffff;stroke-linejoin:miter;stroke-width:0.75;" x="627.588973" xlink:href="#ma50335be3d" y="117.016725"/>
     <use style="fill:#98df8a;stroke:#ffffff;stroke-linejoin:miter;stroke-width:0.75;" x="630.959791" xlink:href="#ma50335be3d" y="116.778324"/>
     <use style="fill:#98df8a;stroke:#ffffff;stroke-linejoin:miter;stroke-width:0.75;" x="634.253111" xlink:href="#ma50335be3d" y="116.417109"/>
     <use style="fill:#98df8a;stroke:#ffffff;stroke-linejoin:miter;stroke-width:0.75;" x="637.472418" xlink:href="#ma50335be3d" y="115.521296"/>
     <use style="fill:#98df8a;stroke:#ffffff;stroke-linejoin:miter;stroke-width:0.75;" x="640.620966" xlink:href="#ma50335be3d" y="115.319016"/>
     <use style="fill:#98df8a;stroke:#ffffff;stroke-linejoin:miter;stroke-width:0.75;" x="643.701797" xlink:href="#ma50335be3d" y="107.560122"/>
     <use style="fill:#98df8a;stroke:#ffffff;stroke-linejoin:miter;stroke-width:0.75;" x="646.717764" xlink:href="#ma50335be3d" y="105.84074"/>
     <use style="fill:#98df8a;stroke:#ffffff;stroke-linejoin:miter;stroke-width:0.75;" x="649.671541" xlink:href="#ma50335be3d" y="103.709572"/>
     <use style="fill:#98df8a;stroke:#ffffff;stroke-linejoin:miter;stroke-width:0.75;" x="652.565643" xlink:href="#ma50335be3d" y="103.059386"/>
     <use style="fill:#98df8a;stroke:#ffffff;stroke-linejoin:miter;stroke-width:0.75;" x="655.402431" xlink:href="#ma50335be3d" y="102.719844"/>
     <use style="fill:#98df8a;stroke:#ffffff;stroke-linejoin:miter;stroke-width:0.75;" x="658.184133" xlink:href="#ma50335be3d" y="101.824031"/>
     <use style="fill:#98df8a;stroke:#ffffff;stroke-linejoin:miter;stroke-width:0.75;" x="660.912846" xlink:href="#ma50335be3d" y="101.41947"/>
     <use style="fill:#98df8a;stroke:#ffffff;stroke-linejoin:miter;stroke-width:0.75;" x="663.590553" xlink:href="#ma50335be3d" y="101.087153"/>
     <use style="fill:#98df8a;stroke:#ffffff;stroke-linejoin:miter;stroke-width:0.75;" x="666.219125" xlink:href="#ma50335be3d" y="100.848751"/>
     <use style="fill:#98df8a;stroke:#ffffff;stroke-linejoin:miter;stroke-width:0.75;" x="668.800332" xlink:href="#ma50335be3d" y="100.812629"/>
     <use style="fill:#98df8a;stroke:#ffffff;stroke-linejoin:miter;stroke-width:0.75;" x="671.335852" xlink:href="#ma50335be3d" y="100.588676"/>
     <use style="fill:#98df8a;stroke:#ffffff;stroke-linejoin:miter;stroke-width:0.75;" x="673.827274" xlink:href="#ma50335be3d" y="100.545331"/>
     <use style="fill:#98df8a;stroke:#ffffff;stroke-linejoin:miter;stroke-width:0.75;" x="676.276105" xlink:href="#ma50335be3d" y="100.516433"/>
     <use style="fill:#98df8a;stroke:#ffffff;stroke-linejoin:miter;stroke-width:0.75;" x="678.683777" xlink:href="#ma50335be3d" y="100.335826"/>
     <use style="fill:#98df8a;stroke:#ffffff;stroke-linejoin:miter;stroke-width:0.75;" x="681.051652" xlink:href="#ma50335be3d" y="98.804275"/>
     <use style="fill:#98df8a;stroke:#ffffff;stroke-linejoin:miter;stroke-width:0.75;" x="683.381022" xlink:href="#ma50335be3d" y="97.619491"/>
     <use style="fill:#98df8a;stroke:#ffffff;stroke-linejoin:miter;stroke-width:0.75;" x="685.673121" xlink:href="#ma50335be3d" y="97.323295"/>
     <use style="fill:#98df8a;stroke:#ffffff;stroke-linejoin:miter;stroke-width:0.75;" x="687.929123" xlink:href="#ma50335be3d" y="95.127109"/>
     <use style="fill:#98df8a;stroke:#ffffff;stroke-linejoin:miter;stroke-width:0.75;" x="690.150146" xlink:href="#ma50335be3d" y="90.489111"/>
     <use style="fill:#98df8a;stroke:#ffffff;stroke-linejoin:miter;stroke-width:0.75;" x="692.337259" xlink:href="#ma50335be3d" y="90.077326"/>
     <use style="fill:#98df8a;stroke:#ffffff;stroke-linejoin:miter;stroke-width:0.75;" x="694.491483" xlink:href="#ma50335be3d" y="88.097869"/>
     <use style="fill:#98df8a;stroke:#ffffff;stroke-linejoin:miter;stroke-width:0.75;" x="696.61379" xlink:href="#ma50335be3d" y="86.638561"/>
     <use style="fill:#98df8a;stroke:#ffffff;stroke-linejoin:miter;stroke-width:0.75;" x="698.705114" xlink:href="#ma50335be3d" y="86.262897"/>
     <use style="fill:#98df8a;stroke:#ffffff;stroke-linejoin:miter;stroke-width:0.75;" x="700.766346" xlink:href="#ma50335be3d" y="84.774692"/>
     <use style="fill:#98df8a;stroke:#ffffff;stroke-linejoin:miter;stroke-width:0.75;" x="702.798339" xlink:href="#ma50335be3d" y="84.189524"/>
     <use style="fill:#98df8a;stroke:#ffffff;stroke-linejoin:miter;stroke-width:0.75;" x="704.801912" xlink:href="#ma50335be3d" y="83.965571"/>
     <use style="fill:#98df8a;stroke:#ffffff;stroke-linejoin:miter;stroke-width:0.75;" x="706.777849" xlink:href="#ma50335be3d" y="83.170899"/>
     <use style="fill:#98df8a;stroke:#ffffff;stroke-linejoin:miter;stroke-width:0.75;" x="708.726901" xlink:href="#ma50335be3d" y="82.968618"/>
     <use style="fill:#98df8a;stroke:#ffffff;stroke-linejoin:miter;stroke-width:0.75;" x="710.649791" xlink:href="#ma50335be3d" y="82.499039"/>
     <use style="fill:#98df8a;stroke:#ffffff;stroke-linejoin:miter;stroke-width:0.75;" x="712.547211" xlink:href="#ma50335be3d" y="80.80133"/>
     <use style="fill:#98df8a;stroke:#ffffff;stroke-linejoin:miter;stroke-width:0.75;" x="714.419828" xlink:href="#ma50335be3d" y="80.021106"/>
     <use style="fill:#98df8a;stroke:#ffffff;stroke-linejoin:miter;stroke-width:0.75;" x="716.268281" xlink:href="#ma50335be3d" y="79.934414"/>
     <use style="fill:#98df8a;stroke:#ffffff;stroke-linejoin:miter;stroke-width:0.75;" x="718.093186" xlink:href="#ma50335be3d" y="79.197536"/>
     <use style="fill:#98df8a;stroke:#ffffff;stroke-linejoin:miter;stroke-width:0.75;" x="719.895136" xlink:href="#ma50335be3d" y="78.785751"/>
     <use style="fill:#98df8a;stroke:#ffffff;stroke-linejoin:miter;stroke-width:0.75;" x="721.674701" xlink:href="#ma50335be3d" y="78.005527"/>
     <use style="fill:#98df8a;stroke:#ffffff;stroke-linejoin:miter;stroke-width:0.75;" x="723.43243" xlink:href="#ma50335be3d" y="77.456481"/>
     <use style="fill:#98df8a;stroke:#ffffff;stroke-linejoin:miter;stroke-width:0.75;" x="725.168853" xlink:href="#ma50335be3d" y="77.377013"/>
     <use style="fill:#98df8a;stroke:#ffffff;stroke-linejoin:miter;stroke-width:0.75;" x="726.88448" xlink:href="#ma50335be3d" y="76.661808"/>
     <use style="fill:#98df8a;stroke:#ffffff;stroke-linejoin:miter;stroke-width:0.75;" x="728.579803" xlink:href="#ma50335be3d" y="76.235575"/>
     <use style="fill:#98df8a;stroke:#ffffff;stroke-linejoin:miter;stroke-width:0.75;" x="730.255298" xlink:href="#ma50335be3d" y="76.148883"/>
     <use style="fill:#98df8a;stroke:#ffffff;stroke-linejoin:miter;stroke-width:0.75;" x="731.911422" xlink:href="#ma50335be3d" y="75.758771"/>
     <use style="fill:#98df8a;stroke:#ffffff;stroke-linejoin:miter;stroke-width:0.75;" x="733.548618" xlink:href="#ma50335be3d" y="75.375883"/>
     <use style="fill:#98df8a;stroke:#ffffff;stroke-linejoin:miter;stroke-width:0.75;" x="735.167315" xlink:href="#ma50335be3d" y="74.256117"/>
     <use style="fill:#98df8a;stroke:#ffffff;stroke-linejoin:miter;stroke-width:0.75;" x="736.767926" xlink:href="#ma50335be3d" y="74.205547"/>
     <use style="fill:#98df8a;stroke:#ffffff;stroke-linejoin:miter;stroke-width:0.75;" x="738.350849" xlink:href="#ma50335be3d" y="74.082734"/>
     <use style="fill:#98df8a;stroke:#ffffff;stroke-linejoin:miter;stroke-width:0.75;" x="739.916473" xlink:href="#ma50335be3d" y="73.844333"/>
     <use style="fill:#98df8a;stroke:#ffffff;stroke-linejoin:miter;stroke-width:0.75;" x="741.46517" xlink:href="#ma50335be3d" y="78.735181"/>
    </g>
   </g>
   <g id="line2d_38">
    <path clip-path="url(#p0dcd44500b)" d="M 92.15608 241.579843 
L 191.451587 232.748141 
L 249.535735 219.852773 
L 290.747094 206.632311 
L 322.713107 201.060573 
L 348.831242 190.332493 
L 370.91381 175.016986 
L 390.042601 167.404384 
L 406.91539 153.560827 
L 422.008615 149.786132 
L 435.662097 147.853633 
L 448.126749 138.931627 
L 459.593118 136.782399 
L 470.209318 135.653603 
L 480.092763 129.214949 
L 489.338108 127.065721 
L 498.022776 124.528187 
L 506.210898 123.200723 
L 513.956197 121.927441 
L 521.304122 120.654158 
L 528.293466 120.19361 
L 534.957604 119.407967 
L 541.325458 115.497817 
L 547.422257 114.946965 
L 553.270135 114.657993 
L 558.888625 114.034897 
L 564.295046 113.800108 
L 569.504825 111.831487 
L 574.531766 111.054875 
L 579.38827 110.215051 
L 584.085515 110.124747 
L 588.633616 109.447469 
L 593.041752 107.289211 
L 597.318283 105.546349 
L 601.470838 104.625252 
L 605.506405 103.180393 
L 609.431394 102.63857 
L 613.251704 101.536865 
L 616.972774 101.229833 
L 620.599629 100.841527 
L 624.136923 99.974611 
L 627.588973 99.179939 
L 630.959791 99.152847 
L 634.253111 99.062544 
L 637.472418 99.008362 
L 640.620966 98.439448 
L 643.701797 98.150476 
L 646.717764 98.024051 
L 649.671541 97.491259 
L 652.565643 96.624344 
L 655.402431 96.470828 
L 658.184133 95.874823 
L 660.912846 95.712277 
L 663.590553 95.612942 
L 666.219125 95.233667 
L 668.800332 95.098211 
L 671.335852 94.899543 
L 673.827274 94.195174 
L 676.276105 93.806868 
L 678.683777 93.761717 
L 681.051652 93.644322 
L 683.381022 93.544988 
L 685.673121 93.337289 
L 687.929123 92.87674 
L 690.150146 92.100129 
L 692.337259 91.8834 
L 694.491483 90.330176 
L 696.61379 89.851566 
L 698.705114 88.162887 
L 700.766346 87.431427 
L 702.798339 87.268881 
L 704.801912 86.221358 
L 706.777849 85.833052 
L 708.726901 85.634384 
L 710.649791 85.390564 
L 712.547211 84.749407 
L 714.419828 84.57783 
L 716.268281 84.505587 
L 718.093186 84.451405 
L 719.895136 84.451405 
L 721.674701 84.33401 
L 723.43243 84.198555 
L 725.168853 84.017947 
L 726.88448 83.999887 
L 728.579803 83.963765 
L 730.255298 83.954735 
L 731.911422 83.936674 
L 733.548618 83.891522 
L 735.167315 83.891522 
L 736.767926 83.756067 
L 738.350849 83.719945 
L 739.916473 83.611581 
L 741.46517 84.622982 
" style="fill:none;stroke:#1f77b4;stroke-linecap:square;stroke-width:1.5;"/>
    <defs>
     <path d="M 0 3 
C 0.795609 3 1.55874 2.683901 2.12132 2.12132 
C 2.683901 1.55874 3 0.795609 3 0 
C 3 -0.795609 2.683901 -1.55874 2.12132 -2.12132 
C 1.55874 -2.683901 0.795609 -3 0 -3 
C -0.795609 -3 -1.55874 -2.683901 -2.12132 -2.12132 
C -2.683901 -1.55874 -3 -0.795609 -3 0 
C -3 0.795609 -2.683901 1.55874 -2.12132 2.12132 
C -1.55874 2.683901 -0.795609 3 0 3 
z
" id="m587bdc5f5e" style="stroke:#ffffff;stroke-width:0.75;"/>
    </defs>
    <g clip-path="url(#p0dcd44500b)">
     <use style="fill:#1f77b4;stroke:#ffffff;stroke-width:0.75;" x="92.15608" xlink:href="#m587bdc5f5e" y="241.579843"/>
     <use style="fill:#1f77b4;stroke:#ffffff;stroke-width:0.75;" x="191.451587" xlink:href="#m587bdc5f5e" y="232.748141"/>
     <use style="fill:#1f77b4;stroke:#ffffff;stroke-width:0.75;" x="249.535735" xlink:href="#m587bdc5f5e" y="219.852773"/>
     <use style="fill:#1f77b4;stroke:#ffffff;stroke-width:0.75;" x="290.747094" xlink:href="#m587bdc5f5e" y="206.632311"/>
     <use style="fill:#1f77b4;stroke:#ffffff;stroke-width:0.75;" x="322.713107" xlink:href="#m587bdc5f5e" y="201.060573"/>
     <use style="fill:#1f77b4;stroke:#ffffff;stroke-width:0.75;" x="348.831242" xlink:href="#m587bdc5f5e" y="190.332493"/>
     <use style="fill:#1f77b4;stroke:#ffffff;stroke-width:0.75;" x="370.91381" xlink:href="#m587bdc5f5e" y="175.016986"/>
     <use style="fill:#1f77b4;stroke:#ffffff;stroke-width:0.75;" x="390.042601" xlink:href="#m587bdc5f5e" y="167.404384"/>
     <use style="fill:#1f77b4;stroke:#ffffff;stroke-width:0.75;" x="406.91539" xlink:href="#m587bdc5f5e" y="153.560827"/>
     <use style="fill:#1f77b4;stroke:#ffffff;stroke-width:0.75;" x="422.008615" xlink:href="#m587bdc5f5e" y="149.786132"/>
     <use style="fill:#1f77b4;stroke:#ffffff;stroke-width:0.75;" x="435.662097" xlink:href="#m587bdc5f5e" y="147.853633"/>
     <use style="fill:#1f77b4;stroke:#ffffff;stroke-width:0.75;" x="448.126749" xlink:href="#m587bdc5f5e" y="138.931627"/>
     <use style="fill:#1f77b4;stroke:#ffffff;stroke-width:0.75;" x="459.593118" xlink:href="#m587bdc5f5e" y="136.782399"/>
     <use style="fill:#1f77b4;stroke:#ffffff;stroke-width:0.75;" x="470.209318" xlink:href="#m587bdc5f5e" y="135.653603"/>
     <use style="fill:#1f77b4;stroke:#ffffff;stroke-width:0.75;" x="480.092763" xlink:href="#m587bdc5f5e" y="129.214949"/>
     <use style="fill:#1f77b4;stroke:#ffffff;stroke-width:0.75;" x="489.338108" xlink:href="#m587bdc5f5e" y="127.065721"/>
     <use style="fill:#1f77b4;stroke:#ffffff;stroke-width:0.75;" x="498.022776" xlink:href="#m587bdc5f5e" y="124.528187"/>
     <use style="fill:#1f77b4;stroke:#ffffff;stroke-width:0.75;" x="506.210898" xlink:href="#m587bdc5f5e" y="123.200723"/>
     <use style="fill:#1f77b4;stroke:#ffffff;stroke-width:0.75;" x="513.956197" xlink:href="#m587bdc5f5e" y="121.927441"/>
     <use style="fill:#1f77b4;stroke:#ffffff;stroke-width:0.75;" x="521.304122" xlink:href="#m587bdc5f5e" y="120.654158"/>
     <use style="fill:#1f77b4;stroke:#ffffff;stroke-width:0.75;" x="528.293466" xlink:href="#m587bdc5f5e" y="120.19361"/>
     <use style="fill:#1f77b4;stroke:#ffffff;stroke-width:0.75;" x="534.957604" xlink:href="#m587bdc5f5e" y="119.407967"/>
     <use style="fill:#1f77b4;stroke:#ffffff;stroke-width:0.75;" x="541.325458" xlink:href="#m587bdc5f5e" y="115.497817"/>
     <use style="fill:#1f77b4;stroke:#ffffff;stroke-width:0.75;" x="547.422257" xlink:href="#m587bdc5f5e" y="114.946965"/>
     <use style="fill:#1f77b4;stroke:#ffffff;stroke-width:0.75;" x="553.270135" xlink:href="#m587bdc5f5e" y="114.657993"/>
     <use style="fill:#1f77b4;stroke:#ffffff;stroke-width:0.75;" x="558.888625" xlink:href="#m587bdc5f5e" y="114.034897"/>
     <use style="fill:#1f77b4;stroke:#ffffff;stroke-width:0.75;" x="564.295046" xlink:href="#m587bdc5f5e" y="113.800108"/>
     <use style="fill:#1f77b4;stroke:#ffffff;stroke-width:0.75;" x="569.504825" xlink:href="#m587bdc5f5e" y="111.831487"/>
     <use style="fill:#1f77b4;stroke:#ffffff;stroke-width:0.75;" x="574.531766" xlink:href="#m587bdc5f5e" y="111.054875"/>
     <use style="fill:#1f77b4;stroke:#ffffff;stroke-width:0.75;" x="579.38827" xlink:href="#m587bdc5f5e" y="110.215051"/>
     <use style="fill:#1f77b4;stroke:#ffffff;stroke-width:0.75;" x="584.085515" xlink:href="#m587bdc5f5e" y="110.124747"/>
     <use style="fill:#1f77b4;stroke:#ffffff;stroke-width:0.75;" x="588.633616" xlink:href="#m587bdc5f5e" y="109.447469"/>
     <use style="fill:#1f77b4;stroke:#ffffff;stroke-width:0.75;" x="593.041752" xlink:href="#m587bdc5f5e" y="107.289211"/>
     <use style="fill:#1f77b4;stroke:#ffffff;stroke-width:0.75;" x="597.318283" xlink:href="#m587bdc5f5e" y="105.546349"/>
     <use style="fill:#1f77b4;stroke:#ffffff;stroke-width:0.75;" x="601.470838" xlink:href="#m587bdc5f5e" y="104.625252"/>
     <use style="fill:#1f77b4;stroke:#ffffff;stroke-width:0.75;" x="605.506405" xlink:href="#m587bdc5f5e" y="103.180393"/>
     <use style="fill:#1f77b4;stroke:#ffffff;stroke-width:0.75;" x="609.431394" xlink:href="#m587bdc5f5e" y="102.63857"/>
     <use style="fill:#1f77b4;stroke:#ffffff;stroke-width:0.75;" x="613.251704" xlink:href="#m587bdc5f5e" y="101.536865"/>
     <use style="fill:#1f77b4;stroke:#ffffff;stroke-width:0.75;" x="616.972774" xlink:href="#m587bdc5f5e" y="101.229833"/>
     <use style="fill:#1f77b4;stroke:#ffffff;stroke-width:0.75;" x="620.599629" xlink:href="#m587bdc5f5e" y="100.841527"/>
     <use style="fill:#1f77b4;stroke:#ffffff;stroke-width:0.75;" x="624.136923" xlink:href="#m587bdc5f5e" y="99.974611"/>
     <use style="fill:#1f77b4;stroke:#ffffff;stroke-width:0.75;" x="627.588973" xlink:href="#m587bdc5f5e" y="99.179939"/>
     <use style="fill:#1f77b4;stroke:#ffffff;stroke-width:0.75;" x="630.959791" xlink:href="#m587bdc5f5e" y="99.152847"/>
     <use style="fill:#1f77b4;stroke:#ffffff;stroke-width:0.75;" x="634.253111" xlink:href="#m587bdc5f5e" y="99.062544"/>
     <use style="fill:#1f77b4;stroke:#ffffff;stroke-width:0.75;" x="637.472418" xlink:href="#m587bdc5f5e" y="99.008362"/>
     <use style="fill:#1f77b4;stroke:#ffffff;stroke-width:0.75;" x="640.620966" xlink:href="#m587bdc5f5e" y="98.439448"/>
     <use style="fill:#1f77b4;stroke:#ffffff;stroke-width:0.75;" x="643.701797" xlink:href="#m587bdc5f5e" y="98.150476"/>
     <use style="fill:#1f77b4;stroke:#ffffff;stroke-width:0.75;" x="646.717764" xlink:href="#m587bdc5f5e" y="98.024051"/>
     <use style="fill:#1f77b4;stroke:#ffffff;stroke-width:0.75;" x="649.671541" xlink:href="#m587bdc5f5e" y="97.491259"/>
     <use style="fill:#1f77b4;stroke:#ffffff;stroke-width:0.75;" x="652.565643" xlink:href="#m587bdc5f5e" y="96.624344"/>
     <use style="fill:#1f77b4;stroke:#ffffff;stroke-width:0.75;" x="655.402431" xlink:href="#m587bdc5f5e" y="96.470828"/>
     <use style="fill:#1f77b4;stroke:#ffffff;stroke-width:0.75;" x="658.184133" xlink:href="#m587bdc5f5e" y="95.874823"/>
     <use style="fill:#1f77b4;stroke:#ffffff;stroke-width:0.75;" x="660.912846" xlink:href="#m587bdc5f5e" y="95.712277"/>
     <use style="fill:#1f77b4;stroke:#ffffff;stroke-width:0.75;" x="663.590553" xlink:href="#m587bdc5f5e" y="95.612942"/>
     <use style="fill:#1f77b4;stroke:#ffffff;stroke-width:0.75;" x="666.219125" xlink:href="#m587bdc5f5e" y="95.233667"/>
     <use style="fill:#1f77b4;stroke:#ffffff;stroke-width:0.75;" x="668.800332" xlink:href="#m587bdc5f5e" y="95.098211"/>
     <use style="fill:#1f77b4;stroke:#ffffff;stroke-width:0.75;" x="671.335852" xlink:href="#m587bdc5f5e" y="94.899543"/>
     <use style="fill:#1f77b4;stroke:#ffffff;stroke-width:0.75;" x="673.827274" xlink:href="#m587bdc5f5e" y="94.195174"/>
     <use style="fill:#1f77b4;stroke:#ffffff;stroke-width:0.75;" x="676.276105" xlink:href="#m587bdc5f5e" y="93.806868"/>
     <use style="fill:#1f77b4;stroke:#ffffff;stroke-width:0.75;" x="678.683777" xlink:href="#m587bdc5f5e" y="93.761717"/>
     <use style="fill:#1f77b4;stroke:#ffffff;stroke-width:0.75;" x="681.051652" xlink:href="#m587bdc5f5e" y="93.644322"/>
     <use style="fill:#1f77b4;stroke:#ffffff;stroke-width:0.75;" x="683.381022" xlink:href="#m587bdc5f5e" y="93.544988"/>
     <use style="fill:#1f77b4;stroke:#ffffff;stroke-width:0.75;" x="685.673121" xlink:href="#m587bdc5f5e" y="93.337289"/>
     <use style="fill:#1f77b4;stroke:#ffffff;stroke-width:0.75;" x="687.929123" xlink:href="#m587bdc5f5e" y="92.87674"/>
     <use style="fill:#1f77b4;stroke:#ffffff;stroke-width:0.75;" x="690.150146" xlink:href="#m587bdc5f5e" y="92.100129"/>
     <use style="fill:#1f77b4;stroke:#ffffff;stroke-width:0.75;" x="692.337259" xlink:href="#m587bdc5f5e" y="91.8834"/>
     <use style="fill:#1f77b4;stroke:#ffffff;stroke-width:0.75;" x="694.491483" xlink:href="#m587bdc5f5e" y="90.330176"/>
     <use style="fill:#1f77b4;stroke:#ffffff;stroke-width:0.75;" x="696.61379" xlink:href="#m587bdc5f5e" y="89.851566"/>
     <use style="fill:#1f77b4;stroke:#ffffff;stroke-width:0.75;" x="698.705114" xlink:href="#m587bdc5f5e" y="88.162887"/>
     <use style="fill:#1f77b4;stroke:#ffffff;stroke-width:0.75;" x="700.766346" xlink:href="#m587bdc5f5e" y="87.431427"/>
     <use style="fill:#1f77b4;stroke:#ffffff;stroke-width:0.75;" x="702.798339" xlink:href="#m587bdc5f5e" y="87.268881"/>
     <use style="fill:#1f77b4;stroke:#ffffff;stroke-width:0.75;" x="704.801912" xlink:href="#m587bdc5f5e" y="86.221358"/>
     <use style="fill:#1f77b4;stroke:#ffffff;stroke-width:0.75;" x="706.777849" xlink:href="#m587bdc5f5e" y="85.833052"/>
     <use style="fill:#1f77b4;stroke:#ffffff;stroke-width:0.75;" x="708.726901" xlink:href="#m587bdc5f5e" y="85.634384"/>
     <use style="fill:#1f77b4;stroke:#ffffff;stroke-width:0.75;" x="710.649791" xlink:href="#m587bdc5f5e" y="85.390564"/>
     <use style="fill:#1f77b4;stroke:#ffffff;stroke-width:0.75;" x="712.547211" xlink:href="#m587bdc5f5e" y="84.749407"/>
     <use style="fill:#1f77b4;stroke:#ffffff;stroke-width:0.75;" x="714.419828" xlink:href="#m587bdc5f5e" y="84.57783"/>
     <use style="fill:#1f77b4;stroke:#ffffff;stroke-width:0.75;" x="716.268281" xlink:href="#m587bdc5f5e" y="84.505587"/>
     <use style="fill:#1f77b4;stroke:#ffffff;stroke-width:0.75;" x="718.093186" xlink:href="#m587bdc5f5e" y="84.451405"/>
     <use style="fill:#1f77b4;stroke:#ffffff;stroke-width:0.75;" x="719.895136" xlink:href="#m587bdc5f5e" y="84.451405"/>
     <use style="fill:#1f77b4;stroke:#ffffff;stroke-width:0.75;" x="721.674701" xlink:href="#m587bdc5f5e" y="84.33401"/>
     <use style="fill:#1f77b4;stroke:#ffffff;stroke-width:0.75;" x="723.43243" xlink:href="#m587bdc5f5e" y="84.198555"/>
     <use style="fill:#1f77b4;stroke:#ffffff;stroke-width:0.75;" x="725.168853" xlink:href="#m587bdc5f5e" y="84.017947"/>
     <use style="fill:#1f77b4;stroke:#ffffff;stroke-width:0.75;" x="726.88448" xlink:href="#m587bdc5f5e" y="83.999887"/>
     <use style="fill:#1f77b4;stroke:#ffffff;stroke-width:0.75;" x="728.579803" xlink:href="#m587bdc5f5e" y="83.963765"/>
     <use style="fill:#1f77b4;stroke:#ffffff;stroke-width:0.75;" x="730.255298" xlink:href="#m587bdc5f5e" y="83.954735"/>
     <use style="fill:#1f77b4;stroke:#ffffff;stroke-width:0.75;" x="731.911422" xlink:href="#m587bdc5f5e" y="83.936674"/>
     <use style="fill:#1f77b4;stroke:#ffffff;stroke-width:0.75;" x="733.548618" xlink:href="#m587bdc5f5e" y="83.891522"/>
     <use style="fill:#1f77b4;stroke:#ffffff;stroke-width:0.75;" x="735.167315" xlink:href="#m587bdc5f5e" y="83.891522"/>
     <use style="fill:#1f77b4;stroke:#ffffff;stroke-width:0.75;" x="736.767926" xlink:href="#m587bdc5f5e" y="83.756067"/>
     <use style="fill:#1f77b4;stroke:#ffffff;stroke-width:0.75;" x="738.350849" xlink:href="#m587bdc5f5e" y="83.719945"/>
     <use style="fill:#1f77b4;stroke:#ffffff;stroke-width:0.75;" x="739.916473" xlink:href="#m587bdc5f5e" y="83.611581"/>
     <use style="fill:#1f77b4;stroke:#ffffff;stroke-width:0.75;" x="741.46517" xlink:href="#m587bdc5f5e" y="84.622982"/>
    </g>
   </g>
   <g id="line2d_39"/>
   <g id="line2d_40"/>
   <g id="line2d_41"/>
   <g id="line2d_42">
    <path clip-path="url(#p0dcd44500b)" d="M 741.46517 288.430125 
L 741.46517 22.318125 
" style="fill:none;stroke:#ff0000;stroke-linecap:square;stroke-width:1.5;"/>
   </g>
   <g id="patch_3">
    <path d="M 59.690625 256.705713 
L 59.690625 39.976833 
" style="fill:none;stroke:#000000;stroke-linecap:square;stroke-linejoin:miter;stroke-width:0.8;"/>
   </g>
   <g id="patch_4">
    <path d="M 92.15608 288.430125 
L 741.466882 288.430125 
" style="fill:none;stroke:#000000;stroke-linecap:square;stroke-linejoin:miter;stroke-width:0.8;"/>
   </g>
   <g id="text_22">
    <!-- freetype2-2017 (23h:15m, 3 trials/fuzzer) -->
    <g transform="translate(291.914063 16.318125)scale(0.12 -0.12)">
     <defs>
      <path d="M 37.109375 75.984375 
L 37.109375 68.5 
L 28.515625 68.5 
Q 23.6875 68.5 21.796875 66.546875 
Q 19.921875 64.59375 19.921875 59.515625 
L 19.921875 54.6875 
L 34.71875 54.6875 
L 34.71875 47.703125 
L 19.921875 47.703125 
L 19.921875 0 
L 10.890625 0 
L 10.890625 47.703125 
L 2.296875 47.703125 
L 2.296875 54.6875 
L 10.890625 54.6875 
L 10.890625 58.5 
Q 10.890625 67.625 15.140625 71.796875 
Q 19.390625 75.984375 28.609375 75.984375 
z
" id="DejaVuSans-102"/>
      <path d="M 32.171875 -5.078125 
Q 28.375 -14.84375 24.75 -17.8125 
Q 21.140625 -20.796875 15.09375 -20.796875 
L 7.90625 -20.796875 
L 7.90625 -13.28125 
L 13.1875 -13.28125 
Q 16.890625 -13.28125 18.9375 -11.515625 
Q 21 -9.765625 23.484375 -3.21875 
L 25.09375 0.875 
L 2.984375 54.6875 
L 12.5 54.6875 
L 29.59375 11.921875 
L 46.6875 54.6875 
L 56.203125 54.6875 
z
" id="DejaVuSans-121"/>
      <path d="M 18.109375 8.203125 
L 18.109375 -20.796875 
L 9.078125 -20.796875 
L 9.078125 54.6875 
L 18.109375 54.6875 
L 18.109375 46.390625 
Q 20.953125 51.265625 25.265625 53.625 
Q 29.59375 56 35.59375 56 
Q 45.5625 56 51.78125 48.09375 
Q 58.015625 40.1875 58.015625 27.296875 
Q 58.015625 14.40625 51.78125 6.484375 
Q 45.5625 -1.421875 35.59375 -1.421875 
Q 29.59375 -1.421875 25.265625 0.953125 
Q 20.953125 3.328125 18.109375 8.203125 
z
M 48.6875 27.296875 
Q 48.6875 37.203125 44.609375 42.84375 
Q 40.53125 48.484375 33.40625 48.484375 
Q 26.265625 48.484375 22.1875 42.84375 
Q 18.109375 37.203125 18.109375 27.296875 
Q 18.109375 17.390625 22.1875 11.75 
Q 26.265625 6.109375 33.40625 6.109375 
Q 40.53125 6.109375 44.609375 11.75 
Q 48.6875 17.390625 48.6875 27.296875 
z
" id="DejaVuSans-112"/>
      <path d="M 4.890625 31.390625 
L 31.203125 31.390625 
L 31.203125 23.390625 
L 4.890625 23.390625 
z
" id="DejaVuSans-45"/>
      <path d="M 11.71875 12.40625 
L 22.015625 12.40625 
L 22.015625 4 
L 14.015625 -11.625 
L 7.71875 -11.625 
L 11.71875 4 
z
" id="DejaVuSans-44"/>
      <path d="M 9.421875 75.984375 
L 18.40625 75.984375 
L 18.40625 0 
L 9.421875 0 
z
" id="DejaVuSans-108"/>
      <path d="M 44.28125 53.078125 
L 44.28125 44.578125 
Q 40.484375 46.53125 36.375 47.5 
Q 32.28125 48.484375 27.875 48.484375 
Q 21.1875 48.484375 17.84375 46.4375 
Q 14.5 44.390625 14.5 40.28125 
Q 14.5 37.15625 16.890625 35.375 
Q 19.28125 33.59375 26.515625 31.984375 
L 29.59375 31.296875 
Q 39.15625 29.25 43.1875 25.515625 
Q 47.21875 21.78125 47.21875 15.09375 
Q 47.21875 7.46875 41.1875 3.015625 
Q 35.15625 -1.421875 24.609375 -1.421875 
Q 20.21875 -1.421875 15.453125 -0.5625 
Q 10.6875 0.296875 5.421875 2 
L 5.421875 11.28125 
Q 10.40625 8.6875 15.234375 7.390625 
Q 20.0625 6.109375 24.8125 6.109375 
Q 31.15625 6.109375 34.5625 8.28125 
Q 37.984375 10.453125 37.984375 14.40625 
Q 37.984375 18.0625 35.515625 20.015625 
Q 33.0625 21.96875 24.703125 23.78125 
L 21.578125 24.515625 
Q 13.234375 26.265625 9.515625 29.90625 
Q 5.8125 33.546875 5.8125 39.890625 
Q 5.8125 47.609375 11.28125 51.796875 
Q 16.75 56 26.8125 56 
Q 31.78125 56 36.171875 55.265625 
Q 40.578125 54.546875 44.28125 53.078125 
z
" id="DejaVuSans-115"/>
      <path d="M 25.390625 72.90625 
L 33.6875 72.90625 
L 8.296875 -9.28125 
L 0 -9.28125 
z
" id="DejaVuSans-47"/>
      <path d="M 5.515625 54.6875 
L 48.1875 54.6875 
L 48.1875 46.484375 
L 14.40625 7.171875 
L 48.1875 7.171875 
L 48.1875 0 
L 4.296875 0 
L 4.296875 8.203125 
L 38.09375 47.515625 
L 5.515625 47.515625 
z
" id="DejaVuSans-122"/>
     </defs>
     <use xlink:href="#DejaVuSans-102"/>
     <use x="35.205078" xlink:href="#DejaVuSans-114"/>
     <use x="74.068359" xlink:href="#DejaVuSans-101"/>
     <use x="135.591797" xlink:href="#DejaVuSans-101"/>
     <use x="197.115234" xlink:href="#DejaVuSans-116"/>
     <use x="236.324219" xlink:href="#DejaVuSans-121"/>
     <use x="295.503906" xlink:href="#DejaVuSans-112"/>
     <use x="358.980469" xlink:href="#DejaVuSans-101"/>
     <use x="420.503906" xlink:href="#DejaVuSans-50"/>
     <use x="484.126953" xlink:href="#DejaVuSans-45"/>
     <use x="520.210938" xlink:href="#DejaVuSans-50"/>
     <use x="583.833984" xlink:href="#DejaVuSans-48"/>
     <use x="647.457031" xlink:href="#DejaVuSans-49"/>
     <use x="711.080078" xlink:href="#DejaVuSans-55"/>
     <use x="774.703125" xlink:href="#DejaVuSans-32"/>
     <use x="806.490234" xlink:href="#DejaVuSans-40"/>
     <use x="845.503906" xlink:href="#DejaVuSans-50"/>
     <use x="909.126953" xlink:href="#DejaVuSans-51"/>
     <use x="972.75" xlink:href="#DejaVuSans-104"/>
     <use x="1036.128906" xlink:href="#DejaVuSans-58"/>
     <use x="1069.820312" xlink:href="#DejaVuSans-49"/>
     <use x="1133.443359" xlink:href="#DejaVuSans-53"/>
     <use x="1197.066406" xlink:href="#DejaVuSans-109"/>
     <use x="1294.478516" xlink:href="#DejaVuSans-44"/>
     <use x="1326.265625" xlink:href="#DejaVuSans-32"/>
     <use x="1358.052734" xlink:href="#DejaVuSans-51"/>
     <use x="1421.675781" xlink:href="#DejaVuSans-32"/>
     <use x="1453.462891" xlink:href="#DejaVuSans-116"/>
     <use x="1492.671875" xlink:href="#DejaVuSans-114"/>
     <use x="1533.785156" xlink:href="#DejaVuSans-105"/>
     <use x="1561.568359" xlink:href="#DejaVuSans-97"/>
     <use x="1622.847656" xlink:href="#DejaVuSans-108"/>
     <use x="1650.630859" xlink:href="#DejaVuSans-115"/>
     <use x="1702.730469" xlink:href="#DejaVuSans-47"/>
     <use x="1736.421875" xlink:href="#DejaVuSans-102"/>
     <use x="1771.626953" xlink:href="#DejaVuSans-117"/>
     <use x="1835.005859" xlink:href="#DejaVuSans-122"/>
     <use x="1887.496094" xlink:href="#DejaVuSans-122"/>
     <use x="1939.986328" xlink:href="#DejaVuSans-101"/>
     <use x="2001.509766" xlink:href="#DejaVuSans-114"/>
     <use x="2042.623047" xlink:href="#DejaVuSans-41"/>
    </g>
   </g>
   <g id="legend_1">
    <g id="line2d_43">
     <path d="M 777.930625 30.416562 
L 797.930625 30.416562 
" style="fill:none;"/>
    </g>
    <g id="line2d_44"/>
    <g id="text_23">
     <!-- fuzzer -->
     <g transform="translate(805.930625 33.916562)scale(0.1 -0.1)">
      <use xlink:href="#DejaVuSans-102"/>
      <use x="35.205078" xlink:href="#DejaVuSans-117"/>
      <use x="98.583984" xlink:href="#DejaVuSans-122"/>
      <use x="151.074219" xlink:href="#DejaVuSans-122"/>
      <use x="203.564453" xlink:href="#DejaVuSans-101"/>
      <use x="265.087891" xlink:href="#DejaVuSans-114"/>
     </g>
    </g>
    <g id="line2d_45">
     <path d="M 777.930625 45.094688 
L 797.930625 45.094688 
" style="fill:none;stroke:#98df8a;stroke-linecap:square;stroke-width:1.5;"/>
    </g>
    <g id="line2d_46">
     <defs>
      <path d="M -0 3 
L 3 -3 
L -3 -3 
z
" id="mb89e2dc25b" style="stroke:#98df8a;stroke-linejoin:miter;"/>
     </defs>
     <g>
      <use style="fill:#98df8a;stroke:#98df8a;stroke-linejoin:miter;" x="787.930625" xlink:href="#mb89e2dc25b" y="45.094688"/>
     </g>
    </g>
    <g id="text_24">
     <!-- dark_instru_cond -->
     <g transform="translate(805.930625 48.594688)scale(0.1 -0.1)">
      <defs>
       <path d="M 9.078125 75.984375 
L 18.109375 75.984375 
L 18.109375 31.109375 
L 44.921875 54.6875 
L 56.390625 54.6875 
L 27.390625 29.109375 
L 57.625 0 
L 45.90625 0 
L 18.109375 26.703125 
L 18.109375 0 
L 9.078125 0 
z
" id="DejaVuSans-107"/>
       <path d="M 50.984375 -16.609375 
L 50.984375 -23.578125 
L -0.984375 -23.578125 
L -0.984375 -16.609375 
z
" id="DejaVuSans-95"/>
      </defs>
      <use xlink:href="#DejaVuSans-100"/>
      <use x="63.476562" xlink:href="#DejaVuSans-97"/>
      <use x="124.755859" xlink:href="#DejaVuSans-114"/>
      <use x="165.869141" xlink:href="#DejaVuSans-107"/>
      <use x="223.779297" xlink:href="#DejaVuSans-95"/>
      <use x="273.779297" xlink:href="#DejaVuSans-105"/>
      <use x="301.5625" xlink:href="#DejaVuSans-110"/>
      <use x="364.941406" xlink:href="#DejaVuSans-115"/>
      <use x="417.041016" xlink:href="#DejaVuSans-116"/>
      <use x="456.25" xlink:href="#DejaVuSans-114"/>
      <use x="497.363281" xlink:href="#DejaVuSans-117"/>
      <use x="560.742188" xlink:href="#DejaVuSans-95"/>
      <use x="610.742188" xlink:href="#DejaVuSans-99"/>
      <use x="665.722656" xlink:href="#DejaVuSans-111"/>
      <use x="726.904297" xlink:href="#DejaVuSans-110"/>
      <use x="790.283203" xlink:href="#DejaVuSans-100"/>
     </g>
    </g>
    <g id="line2d_47">
     <path d="M 777.930625 60.050937 
L 797.930625 60.050937 
" style="fill:none;stroke:#1f77b4;stroke-linecap:square;stroke-width:1.5;"/>
    </g>
    <g id="line2d_48">
     <defs>
      <path d="M 0 3 
C 0.795609 3 1.55874 2.683901 2.12132 2.12132 
C 2.683901 1.55874 3 0.795609 3 0 
C 3 -0.795609 2.683901 -1.55874 2.12132 -2.12132 
C 1.55874 -2.683901 0.795609 -3 0 -3 
C -0.795609 -3 -1.55874 -2.683901 -2.12132 -2.12132 
C -2.683901 -1.55874 -3 -0.795609 -3 0 
C -3 0.795609 -2.683901 1.55874 -2.12132 2.12132 
C -1.55874 2.683901 -0.795609 3 0 3 
z
" id="m80815f5d76" style="stroke:#1f77b4;"/>
     </defs>
     <g>
      <use style="fill:#1f77b4;stroke:#1f77b4;" x="787.930625" xlink:href="#m80815f5d76" y="60.050937"/>
     </g>
    </g>
    <g id="text_25">
     <!-- afldark_dev -->
     <g transform="translate(805.930625 63.550937)scale(0.1 -0.1)">
      <use xlink:href="#DejaVuSans-97"/>
      <use x="61.279297" xlink:href="#DejaVuSans-102"/>
      <use x="96.484375" xlink:href="#DejaVuSans-108"/>
      <use x="124.267578" xlink:href="#DejaVuSans-100"/>
      <use x="187.744141" xlink:href="#DejaVuSans-97"/>
      <use x="249.023438" xlink:href="#DejaVuSans-114"/>
      <use x="290.136719" xlink:href="#DejaVuSans-107"/>
      <use x="348.046875" xlink:href="#DejaVuSans-95"/>
      <use x="398.046875" xlink:href="#DejaVuSans-100"/>
      <use x="461.523438" xlink:href="#DejaVuSans-101"/>
      <use x="523.046875" xlink:href="#DejaVuSans-118"/>
     </g>
    </g>
   </g>
  </g>
 </g>
 <defs>
  <clipPath id="p0dcd44500b">
   <rect height="266.112" width="714.24" x="59.690625" y="22.318125"/>
  </clipPath>
 </defs>
</svg>
