<?xml version="1.0" encoding="utf-8" standalone="no"?>
<!DOCTYPE svg PUBLIC "-//W3C//DTD SVG 1.1//EN"
  "http://www.w3.org/Graphics/SVG/1.1/DTD/svg11.dtd">
<!-- Created with matplotlib (https://matplotlib.org/) -->
<svg height="325.986375pt" version="1.1" viewBox="0 0 902.505625 325.986375" width="902.505625pt" xmlns="http://www.w3.org/2000/svg" xmlns:xlink="http://www.w3.org/1999/xlink">
 <metadata>
  <rdf:RDF xmlns:cc="http://creativecommons.org/ns#" xmlns:dc="http://purl.org/dc/elements/1.1/" xmlns:rdf="http://www.w3.org/1999/02/22-rdf-syntax-ns#">
   <cc:Work>
    <dc:type rdf:resource="http://purl.org/dc/dcmitype/StillImage"/>
    <dc:date>2020-12-29T19:02:17.411649</dc:date>
    <dc:format>image/svg+xml</dc:format>
    <dc:creator>
     <cc:Agent>
      <dc:title>Matplotlib v3.3.2, https://matplotlib.org/</dc:title>
     </cc:Agent>
    </dc:creator>
   </cc:Work>
  </rdf:RDF>
 </metadata>
 <defs>
  <style type="text/css">*{stroke-linecap:butt;stroke-linejoin:round;}</style>
 </defs>
 <g id="figure_1">
  <g id="patch_1">
   <path d="M 0 325.986375 
L 902.505625 325.986375 
L 902.505625 0 
L 0 0 
z
" style="fill:#ffffff;"/>
  </g>
  <g id="axes_1">
   <g id="patch_2">
    <path d="M 59.690625 288.430125 
L 773.930625 288.430125 
L 773.930625 22.318125 
L 59.690625 22.318125 
z
" style="fill:#ffffff;"/>
   </g>
   <g id="PolyCollection_1">
    <defs>
     <path d="M 92.15608 -79.468438 
L 92.15608 -49.65225 
L 98.990912 -62.321611 
L 105.825745 -75.977166 
L 112.660577 -97.961386 
L 119.49541 -104.396845 
L 126.330242 -113.085435 
L 133.165075 -114.6907 
L 139.999907 -117.814849 
L 146.83474 -122.591054 
L 153.669572 -124.559844 
L 160.504405 -127.064922 
L 167.339237 -127.26648 
L 174.17407 -129.465442 
L 181.008903 -133.414 
L 187.843735 -157.392204 
L 194.678568 -167.340532 
L 201.5134 -173.027347 
L 208.348233 -174.288344 
L 215.183065 -177.351846 
L 222.017898 -179.095683 
L 228.85273 -184.912071 
L 235.687563 -186.25819 
L 242.522395 -186.488542 
L 249.357228 -187.035628 
L 256.19206 -187.323568 
L 263.026893 -187.827463 
L 269.861725 -188.439336 
L 276.696558 -188.626497 
L 283.531391 -192.247343 
L 290.366223 -192.463298 
L 297.201056 -192.866414 
L 304.035888 -193.231558 
L 310.870721 -193.643852 
L 317.705553 -193.773425 
L 324.540386 -194.090159 
L 331.375218 -194.572458 
L 338.210051 -195.558653 
L 345.044883 -195.695424 
L 351.879716 -195.904181 
L 358.714548 -196.019357 
L 365.549381 -196.524512 
L 372.384214 -197.451858 
L 379.219046 -197.53824 
L 386.053879 -198.351671 
L 392.888711 -198.16451 
L 399.723544 -198.538832 
L 406.558376 -202.015708 
L 413.393209 -202.591588 
L 420.228041 -205.291025 
L 427.062874 -206.139189 
L 433.897706 -205.679744 
L 440.732539 -207.134021 
L 447.567371 -207.57295 
L 454.402204 -207.95447 
L 461.237036 -208.213616 
L 468.071869 -209.264597 
L 474.906702 -208.2928 
L 481.741534 -208.415174 
L 488.576367 -208.415174 
L 495.411199 -208.53035 
L 502.246032 -209.789008 
L 509.080864 -209.041444 
L 515.915697 -212.453533 
L 522.750529 -209.660515 
L 529.585362 -209.905264 
L 536.420194 -210.610717 
L 543.255027 -212.777466 
L 550.089859 -214.886626 
L 556.924692 -215.332933 
L 563.759525 -219.244058 
L 570.594357 -218.629846 
L 577.42919 -219.068955 
L 584.264022 -220.249509 
L 591.098855 -220.379082 
L 597.933687 -221.314887 
L 604.76852 -221.746797 
L 611.603352 -221.408467 
L 618.438185 -221.948355 
L 625.273017 -221.861973 
L 632.10785 -222.092325 
L 638.942682 -222.840969 
L 645.777515 -223.020932 
L 652.612347 -223.416849 
L 659.44718 -223.870355 
L 666.282013 -225.122894 
L 673.116845 -224.201486 
L 679.951678 -225.209276 
L 686.78651 -224.75577 
L 693.621343 -224.777366 
L 700.456175 -225.655583 
L 707.291008 -224.885343 
L 714.12584 -225.007718 
L 720.960673 -224.503823 
L 727.795505 -225.338849 
L 734.630338 -225.374841 
L 741.46517 -224.51822 
L 741.46517 -291.57225 
L 741.46517 -291.57225 
L 734.630338 -280.010559 
L 727.795505 -279.190829 
L 720.960673 -278.08226 
L 714.12584 -277.830313 
L 707.291008 -277.772725 
L 700.456175 -277.319219 
L 693.621343 -277.240036 
L 686.78651 -274.180673 
L 679.951678 -274.82134 
L 673.116845 -274.043902 
L 666.282013 -274.043902 
L 659.44718 -277.93829 
L 652.612347 -272.399584 
L 645.777515 -272.316262 
L 638.942682 -273.065626 
L 632.10785 -273.52561 
L 625.273017 -273.057707 
L 618.438185 -272.445835 
L 611.603352 -269.134525 
L 604.76852 -271.330067 
L 597.933687 -265.787222 
L 591.098855 -265.657649 
L 584.264022 -264.174758 
L 577.42919 -264.985849 
L 570.594357 -267.802082 
L 563.759525 -264.426705 
L 556.924692 -264.253941 
L 550.089859 -264.181956 
L 543.255027 -263.865222 
L 536.420194 -260.172392 
L 529.585362 -259.79807 
L 522.750529 -250.763952 
L 515.915697 -248.129301 
L 509.080864 -246.416058 
L 502.246032 -244.472462 
L 495.411199 -241.614658 
L 488.576367 -241.26913 
L 481.741534 -241.492283 
L 474.906702 -243.941573 
L 468.071869 -241.182748 
L 461.237036 -240.808426 
L 454.402204 -240.59823 
L 447.567371 -240.448501 
L 440.732539 -240.189355 
L 433.897706 -239.613475 
L 427.062874 -241.320059 
L 420.228041 -238.029805 
L 413.393209 -235.870255 
L 406.558376 -233.631521 
L 399.723544 -222.481044 
L 392.888711 -223.280078 
L 386.053879 -222.30828 
L 379.219046 -221.96995 
L 372.384214 -219.960849 
L 365.549381 -218.845801 
L 358.714548 -217.744431 
L 351.879716 -217.087928 
L 345.044883 -217.492483 
L 338.210051 -216.801427 
L 331.375218 -216.916603 
L 324.540386 -215.980798 
L 317.705553 -215.764843 
L 310.870721 -215.736049 
L 304.035888 -214.361136 
L 297.201056 -214.030185 
L 290.366223 -214.000131 
L 283.531391 -213.359644 
L 276.696558 -212.622338 
L 269.861725 -211.903388 
L 263.026893 -207.169834 
L 256.19206 -206.271281 
L 249.357228 -205.204643 
L 242.522395 -203.527393 
L 235.687563 -199.811887 
L 228.85273 -199.108413 
L 222.017898 -199.100315 
L 215.183065 -197.322285 
L 208.348233 -196.631229 
L 201.5134 -193.79502 
L 194.678568 -191.851425 
L 187.843735 -191.016399 
L 181.008903 -185.10643 
L 174.17407 -180.902506 
L 167.339237 -179.966701 
L 160.504405 -178.980507 
L 153.669572 -176.777766 
L 146.83474 -169.327318 
L 139.999907 -158.788713 
L 133.165075 -151.223089 
L 126.330242 -140.241237 
L 119.49541 -123.962369 
L 112.660577 -115.712887 
L 105.825745 -105.469421 
L 98.990912 -93.498315 
L 92.15608 -79.468438 
z
" id="ma7aa1a728f" style="stroke:#98df8a;stroke-opacity:0.2;"/>
    </defs>
    <g clip-path="url(#p18412ff032)">
     <use style="fill:#98df8a;fill-opacity:0.2;stroke:#98df8a;stroke-opacity:0.2;" x="0" xlink:href="#ma7aa1a728f" y="325.986375"/>
    </g>
   </g>
   <g id="PolyCollection_2">
    <defs>
     <path d="M 92.15608 -88.466564 
L 92.15608 -80.699157 
L 98.990912 -89.834279 
L 105.825745 -97.338715 
L 112.660577 -108.26244 
L 119.49541 -112.86948 
L 126.330242 -120.733841 
L 133.165075 -134.950879 
L 139.999907 -142.329342 
L 146.83474 -153.325051 
L 153.669572 -157.473187 
L 160.504405 -160.325593 
L 167.339237 -173.138924 
L 174.17407 -176.576208 
L 181.008903 -178.573791 
L 187.843735 -188.903639 
L 194.678568 -191.027197 
L 201.5134 -194.896391 
L 208.348233 -196.759003 
L 215.183065 -198.918553 
L 222.017898 -200.988122 
L 228.85273 -201.752962 
L 235.687563 -203.201661 
L 242.522395 -206.18004 
L 249.357228 -206.89989 
L 256.19206 -207.097849 
L 263.026893 -207.799703 
L 269.861725 -207.484768 
L 276.696558 -209.284393 
L 283.531391 -209.554337 
L 290.366223 -210.319178 
L 297.201056 -210.319178 
L 304.035888 -210.805076 
L 310.870721 -216.365918 
L 317.705553 -217.301723 
L 324.540386 -217.634654 
L 331.375218 -218.777416 
L 338.210051 -218.795412 
L 345.044883 -219.587247 
L 351.879716 -219.767209 
L 358.714548 -220.064148 
L 365.549381 -221.377874 
L 372.384214 -222.187705 
L 379.219046 -222.196703 
L 386.053879 -222.349671 
L 392.888711 -222.412658 
L 399.723544 -222.880561 
L 406.558376 -223.456441 
L 413.393209 -222.943548 
L 420.228041 -223.22249 
L 427.062874 -223.84336 
L 433.897706 -223.951338 
L 440.732539 -224.329259 
L 447.567371 -224.401244 
L 454.402204 -224.643294 
L 461.237036 -225.588997 
L 468.071869 -225.849942 
L 474.906702 -226.056899 
L 481.741534 -227.447109 
L 488.576367 -228.025914 
L 495.411199 -228.052908 
L 502.246032 -228.081477 
L 509.080864 -228.11747 
L 515.915697 -228.54938 
L 522.750529 -228.630363 
L 529.585362 -229.035279 
L 536.420194 -229.035279 
L 543.255027 -229.656149 
L 550.089859 -229.854108 
L 556.924692 -230.573958 
L 563.759525 -230.870896 
L 570.594357 -230.870896 
L 577.42919 -233.678311 
L 584.264022 -233.966251 
L 591.098855 -235.064023 
L 597.933687 -235.010034 
L 604.76852 -236.791663 
L 611.603352 -237.178582 
L 618.438185 -237.394537 
L 625.273017 -237.484518 
L 632.10785 -237.484518 
L 638.942682 -237.611167 
L 645.777515 -238.024406 
L 652.612347 -238.078395 
L 659.44718 -238.105389 
L 666.282013 -238.213366 
L 673.116845 -238.222365 
L 679.951678 -238.222365 
L 686.78651 -238.258357 
L 693.621343 -238.0514 
L 700.456175 -238.258357 
L 707.291008 -238.258357 
L 714.12584 -238.258357 
L 720.960673 -238.663273 
L 727.795505 -239.689059 
L 734.630338 -238.663273 
L 741.46517 -238.537299 
L 741.46517 -246.50064 
L 741.46517 -246.50064 
L 734.630338 -246.473646 
L 727.795505 -245.906764 
L 720.960673 -245.852775 
L 714.12584 -244.557045 
L 707.291008 -244.233112 
L 700.456175 -244.332092 
L 693.621343 -243.720219 
L 686.78651 -243.720219 
L 679.951678 -243.693225 
L 673.116845 -243.639236 
L 666.282013 -243.639236 
L 659.44718 -243.639236 
L 652.612347 -243.360294 
L 645.777515 -243.468272 
L 638.942682 -243.476595 
L 632.10785 -243.468272 
L 625.273017 -243.468272 
L 618.438185 -243.468272 
L 611.603352 -243.468272 
L 604.76852 -243.414283 
L 597.933687 -243.369292 
L 591.098855 -243.3333 
L 584.264022 -243.198328 
L 577.42919 -242.361502 
L 570.594357 -242.18154 
L 563.759525 -242.100557 
L 556.924692 -240.984789 
L 550.089859 -239.293141 
L 543.255027 -238.816241 
L 536.420194 -237.691475 
L 529.585362 -238.213366 
L 522.750529 -236.053816 
L 515.915697 -235.172 
L 509.080864 -235.154004 
L 502.246032 -235.082019 
L 495.411199 -234.866064 
L 488.576367 -234.866064 
L 481.741534 -234.344173 
L 474.906702 -233.786289 
L 468.071869 -233.426364 
L 461.237036 -233.282394 
L 454.402204 -233.138424 
L 447.567371 -233.111429 
L 440.732539 -232.895474 
L 433.897706 -232.679519 
L 427.062874 -232.382581 
L 420.228041 -232.184622 
L 413.393209 -231.04186 
L 406.558376 -230.942881 
L 399.723544 -230.492975 
L 392.888711 -230.043069 
L 386.053879 -230.474979 
L 379.219046 -229.899099 
L 372.384214 -229.881102 
L 365.549381 -229.26923 
L 358.714548 -228.711346 
L 351.879716 -228.495391 
L 345.044883 -228.063481 
L 338.210051 -226.659773 
L 331.375218 -225.606543 
L 324.540386 -223.870355 
L 317.705553 -222.583623 
L 310.870721 -220.064148 
L 304.035888 -219.821198 
L 297.201056 -218.705431 
L 290.366223 -218.822406 
L 283.531391 -217.319719 
L 276.696558 -216.311929 
L 269.861725 -215.304139 
L 263.026893 -214.944214 
L 256.19206 -214.566293 
L 249.357228 -214.026405 
L 242.522395 -213.648484 
L 235.687563 -208.141631 
L 228.85273 -207.529759 
L 222.017898 -207.3318 
L 215.183065 -206.018074 
L 208.348233 -205.766126 
L 201.5134 -204.893308 
L 194.678568 -203.426614 
L 187.843735 -202.238861 
L 181.008903 -199.674395 
L 174.17407 -200.89814 
L 167.339237 -197.847776 
L 160.504405 -190.145381 
L 153.669572 -188.543714 
L 146.83474 -186.54613 
L 139.999907 -176.135299 
L 133.165075 -166.264356 
L 126.330242 -149.959753 
L 119.49541 -136.444568 
L 112.660577 -130.217865 
L 105.825745 -116.520469 
L 98.990912 -96.330925 
L 92.15608 -88.466564 
z
" id="mff277027ff" style="stroke:#1f77b4;stroke-opacity:0.2;"/>
    </defs>
    <g clip-path="url(#p18412ff032)">
     <use style="fill:#1f77b4;fill-opacity:0.2;stroke:#1f77b4;stroke-opacity:0.2;" x="0" xlink:href="#mff277027ff" y="325.986375"/>
    </g>
   </g>
   <g id="matplotlib.axis_1">
    <g id="xtick_1">
     <g id="line2d_1">
      <defs>
       <path d="M 0 0 
L 0 3.5 
" id="m8800523d13" style="stroke:#000000;stroke-width:0.8;"/>
      </defs>
      <g>
       <use style="stroke:#000000;stroke-width:0.8;" x="92.15608" xlink:href="#m8800523d13" y="288.430125"/>
      </g>
     </g>
     <g id="text_1">
      <!-- 15m -->
      <g transform="translate(80.923267 303.028562)scale(0.1 -0.1)">
       <defs>
        <path d="M 12.40625 8.296875 
L 28.515625 8.296875 
L 28.515625 63.921875 
L 10.984375 60.40625 
L 10.984375 69.390625 
L 28.421875 72.90625 
L 38.28125 72.90625 
L 38.28125 8.296875 
L 54.390625 8.296875 
L 54.390625 0 
L 12.40625 0 
z
" id="DejaVuSans-49"/>
        <path d="M 10.796875 72.90625 
L 49.515625 72.90625 
L 49.515625 64.59375 
L 19.828125 64.59375 
L 19.828125 46.734375 
Q 21.96875 47.46875 24.109375 47.828125 
Q 26.265625 48.1875 28.421875 48.1875 
Q 40.625 48.1875 47.75 41.5 
Q 54.890625 34.8125 54.890625 23.390625 
Q 54.890625 11.625 47.5625 5.09375 
Q 40.234375 -1.421875 26.90625 -1.421875 
Q 22.3125 -1.421875 17.546875 -0.640625 
Q 12.796875 0.140625 7.71875 1.703125 
L 7.71875 11.625 
Q 12.109375 9.234375 16.796875 8.0625 
Q 21.484375 6.890625 26.703125 6.890625 
Q 35.15625 6.890625 40.078125 11.328125 
Q 45.015625 15.765625 45.015625 23.390625 
Q 45.015625 31 40.078125 35.4375 
Q 35.15625 39.890625 26.703125 39.890625 
Q 22.75 39.890625 18.8125 39.015625 
Q 14.890625 38.140625 10.796875 36.28125 
z
" id="DejaVuSans-53"/>
        <path d="M 52 44.1875 
Q 55.375 50.25 60.0625 53.125 
Q 64.75 56 71.09375 56 
Q 79.640625 56 84.28125 50.015625 
Q 88.921875 44.046875 88.921875 33.015625 
L 88.921875 0 
L 79.890625 0 
L 79.890625 32.71875 
Q 79.890625 40.578125 77.09375 44.375 
Q 74.3125 48.1875 68.609375 48.1875 
Q 61.625 48.1875 57.5625 43.546875 
Q 53.515625 38.921875 53.515625 30.90625 
L 53.515625 0 
L 44.484375 0 
L 44.484375 32.71875 
Q 44.484375 40.625 41.703125 44.40625 
Q 38.921875 48.1875 33.109375 48.1875 
Q 26.21875 48.1875 22.15625 43.53125 
Q 18.109375 38.875 18.109375 30.90625 
L 18.109375 0 
L 9.078125 0 
L 9.078125 54.6875 
L 18.109375 54.6875 
L 18.109375 46.1875 
Q 21.1875 51.21875 25.484375 53.609375 
Q 29.78125 56 35.6875 56 
Q 41.65625 56 45.828125 52.96875 
Q 50 49.953125 52 44.1875 
z
" id="DejaVuSans-109"/>
       </defs>
       <use xlink:href="#DejaVuSans-49"/>
       <use x="63.623047" xlink:href="#DejaVuSans-53"/>
       <use x="127.246094" xlink:href="#DejaVuSans-109"/>
      </g>
     </g>
    </g>
    <g id="xtick_2">
     <g id="line2d_2">
      <g>
       <use style="stroke:#000000;stroke-width:0.8;" x="146.83474" xlink:href="#m8800523d13" y="288.430125"/>
      </g>
     </g>
     <g id="text_2">
      <!-- 2h:15m -->
      <g transform="translate(127.567552 303.028562)scale(0.1 -0.1)">
       <defs>
        <path d="M 19.1875 8.296875 
L 53.609375 8.296875 
L 53.609375 0 
L 7.328125 0 
L 7.328125 8.296875 
Q 12.9375 14.109375 22.625 23.890625 
Q 32.328125 33.6875 34.8125 36.53125 
Q 39.546875 41.84375 41.421875 45.53125 
Q 43.3125 49.21875 43.3125 52.78125 
Q 43.3125 58.59375 39.234375 62.25 
Q 35.15625 65.921875 28.609375 65.921875 
Q 23.96875 65.921875 18.8125 64.3125 
Q 13.671875 62.703125 7.8125 59.421875 
L 7.8125 69.390625 
Q 13.765625 71.78125 18.9375 73 
Q 24.125 74.21875 28.421875 74.21875 
Q 39.75 74.21875 46.484375 68.546875 
Q 53.21875 62.890625 53.21875 53.421875 
Q 53.21875 48.921875 51.53125 44.890625 
Q 49.859375 40.875 45.40625 35.40625 
Q 44.1875 33.984375 37.640625 27.21875 
Q 31.109375 20.453125 19.1875 8.296875 
z
" id="DejaVuSans-50"/>
        <path d="M 54.890625 33.015625 
L 54.890625 0 
L 45.90625 0 
L 45.90625 32.71875 
Q 45.90625 40.484375 42.875 44.328125 
Q 39.84375 48.1875 33.796875 48.1875 
Q 26.515625 48.1875 22.3125 43.546875 
Q 18.109375 38.921875 18.109375 30.90625 
L 18.109375 0 
L 9.078125 0 
L 9.078125 75.984375 
L 18.109375 75.984375 
L 18.109375 46.1875 
Q 21.34375 51.125 25.703125 53.5625 
Q 30.078125 56 35.796875 56 
Q 45.21875 56 50.046875 50.171875 
Q 54.890625 44.34375 54.890625 33.015625 
z
" id="DejaVuSans-104"/>
        <path d="M 11.71875 12.40625 
L 22.015625 12.40625 
L 22.015625 0 
L 11.71875 0 
z
M 11.71875 51.703125 
L 22.015625 51.703125 
L 22.015625 39.3125 
L 11.71875 39.3125 
z
" id="DejaVuSans-58"/>
       </defs>
       <use xlink:href="#DejaVuSans-50"/>
       <use x="63.623047" xlink:href="#DejaVuSans-104"/>
       <use x="127.001953" xlink:href="#DejaVuSans-58"/>
       <use x="160.693359" xlink:href="#DejaVuSans-49"/>
       <use x="224.316406" xlink:href="#DejaVuSans-53"/>
       <use x="287.939453" xlink:href="#DejaVuSans-109"/>
      </g>
     </g>
    </g>
    <g id="xtick_3">
     <g id="line2d_3">
      <g>
       <use style="stroke:#000000;stroke-width:0.8;" x="201.5134" xlink:href="#m8800523d13" y="288.430125"/>
      </g>
     </g>
     <g id="text_3">
      <!-- 4h:15m -->
      <g transform="translate(182.246213 303.028562)scale(0.1 -0.1)">
       <defs>
        <path d="M 37.796875 64.3125 
L 12.890625 25.390625 
L 37.796875 25.390625 
z
M 35.203125 72.90625 
L 47.609375 72.90625 
L 47.609375 25.390625 
L 58.015625 25.390625 
L 58.015625 17.1875 
L 47.609375 17.1875 
L 47.609375 0 
L 37.796875 0 
L 37.796875 17.1875 
L 4.890625 17.1875 
L 4.890625 26.703125 
z
" id="DejaVuSans-52"/>
       </defs>
       <use xlink:href="#DejaVuSans-52"/>
       <use x="63.623047" xlink:href="#DejaVuSans-104"/>
       <use x="127.001953" xlink:href="#DejaVuSans-58"/>
       <use x="160.693359" xlink:href="#DejaVuSans-49"/>
       <use x="224.316406" xlink:href="#DejaVuSans-53"/>
       <use x="287.939453" xlink:href="#DejaVuSans-109"/>
      </g>
     </g>
    </g>
    <g id="xtick_4">
     <g id="line2d_4">
      <g>
       <use style="stroke:#000000;stroke-width:0.8;" x="256.19206" xlink:href="#m8800523d13" y="288.430125"/>
      </g>
     </g>
     <g id="text_4">
      <!-- 6h:15m -->
      <g transform="translate(236.924873 303.028562)scale(0.1 -0.1)">
       <defs>
        <path d="M 33.015625 40.375 
Q 26.375 40.375 22.484375 35.828125 
Q 18.609375 31.296875 18.609375 23.390625 
Q 18.609375 15.53125 22.484375 10.953125 
Q 26.375 6.390625 33.015625 6.390625 
Q 39.65625 6.390625 43.53125 10.953125 
Q 47.40625 15.53125 47.40625 23.390625 
Q 47.40625 31.296875 43.53125 35.828125 
Q 39.65625 40.375 33.015625 40.375 
z
M 52.59375 71.296875 
L 52.59375 62.3125 
Q 48.875 64.0625 45.09375 64.984375 
Q 41.3125 65.921875 37.59375 65.921875 
Q 27.828125 65.921875 22.671875 59.328125 
Q 17.53125 52.734375 16.796875 39.40625 
Q 19.671875 43.65625 24.015625 45.921875 
Q 28.375 48.1875 33.59375 48.1875 
Q 44.578125 48.1875 50.953125 41.515625 
Q 57.328125 34.859375 57.328125 23.390625 
Q 57.328125 12.15625 50.6875 5.359375 
Q 44.046875 -1.421875 33.015625 -1.421875 
Q 20.359375 -1.421875 13.671875 8.265625 
Q 6.984375 17.96875 6.984375 36.375 
Q 6.984375 53.65625 15.1875 63.9375 
Q 23.390625 74.21875 37.203125 74.21875 
Q 40.921875 74.21875 44.703125 73.484375 
Q 48.484375 72.75 52.59375 71.296875 
z
" id="DejaVuSans-54"/>
       </defs>
       <use xlink:href="#DejaVuSans-54"/>
       <use x="63.623047" xlink:href="#DejaVuSans-104"/>
       <use x="127.001953" xlink:href="#DejaVuSans-58"/>
       <use x="160.693359" xlink:href="#DejaVuSans-49"/>
       <use x="224.316406" xlink:href="#DejaVuSans-53"/>
       <use x="287.939453" xlink:href="#DejaVuSans-109"/>
      </g>
     </g>
    </g>
    <g id="xtick_5">
     <g id="line2d_5">
      <g>
       <use style="stroke:#000000;stroke-width:0.8;" x="310.870721" xlink:href="#m8800523d13" y="288.430125"/>
      </g>
     </g>
     <g id="text_5">
      <!-- 8h:15m -->
      <g transform="translate(291.603533 303.028562)scale(0.1 -0.1)">
       <defs>
        <path d="M 31.78125 34.625 
Q 24.75 34.625 20.71875 30.859375 
Q 16.703125 27.09375 16.703125 20.515625 
Q 16.703125 13.921875 20.71875 10.15625 
Q 24.75 6.390625 31.78125 6.390625 
Q 38.8125 6.390625 42.859375 10.171875 
Q 46.921875 13.96875 46.921875 20.515625 
Q 46.921875 27.09375 42.890625 30.859375 
Q 38.875 34.625 31.78125 34.625 
z
M 21.921875 38.8125 
Q 15.578125 40.375 12.03125 44.71875 
Q 8.5 49.078125 8.5 55.328125 
Q 8.5 64.0625 14.71875 69.140625 
Q 20.953125 74.21875 31.78125 74.21875 
Q 42.671875 74.21875 48.875 69.140625 
Q 55.078125 64.0625 55.078125 55.328125 
Q 55.078125 49.078125 51.53125 44.71875 
Q 48 40.375 41.703125 38.8125 
Q 48.828125 37.15625 52.796875 32.3125 
Q 56.78125 27.484375 56.78125 20.515625 
Q 56.78125 9.90625 50.3125 4.234375 
Q 43.84375 -1.421875 31.78125 -1.421875 
Q 19.734375 -1.421875 13.25 4.234375 
Q 6.78125 9.90625 6.78125 20.515625 
Q 6.78125 27.484375 10.78125 32.3125 
Q 14.796875 37.15625 21.921875 38.8125 
z
M 18.3125 54.390625 
Q 18.3125 48.734375 21.84375 45.5625 
Q 25.390625 42.390625 31.78125 42.390625 
Q 38.140625 42.390625 41.71875 45.5625 
Q 45.3125 48.734375 45.3125 54.390625 
Q 45.3125 60.0625 41.71875 63.234375 
Q 38.140625 66.40625 31.78125 66.40625 
Q 25.390625 66.40625 21.84375 63.234375 
Q 18.3125 60.0625 18.3125 54.390625 
z
" id="DejaVuSans-56"/>
       </defs>
       <use xlink:href="#DejaVuSans-56"/>
       <use x="63.623047" xlink:href="#DejaVuSans-104"/>
       <use x="127.001953" xlink:href="#DejaVuSans-58"/>
       <use x="160.693359" xlink:href="#DejaVuSans-49"/>
       <use x="224.316406" xlink:href="#DejaVuSans-53"/>
       <use x="287.939453" xlink:href="#DejaVuSans-109"/>
      </g>
     </g>
    </g>
    <g id="xtick_6">
     <g id="line2d_6">
      <g>
       <use style="stroke:#000000;stroke-width:0.8;" x="365.549381" xlink:href="#m8800523d13" y="288.430125"/>
      </g>
     </g>
     <g id="text_6">
      <!-- 10h:15m -->
      <g transform="translate(343.100943 303.028562)scale(0.1 -0.1)">
       <defs>
        <path d="M 31.78125 66.40625 
Q 24.171875 66.40625 20.328125 58.90625 
Q 16.5 51.421875 16.5 36.375 
Q 16.5 21.390625 20.328125 13.890625 
Q 24.171875 6.390625 31.78125 6.390625 
Q 39.453125 6.390625 43.28125 13.890625 
Q 47.125 21.390625 47.125 36.375 
Q 47.125 51.421875 43.28125 58.90625 
Q 39.453125 66.40625 31.78125 66.40625 
z
M 31.78125 74.21875 
Q 44.046875 74.21875 50.515625 64.515625 
Q 56.984375 54.828125 56.984375 36.375 
Q 56.984375 17.96875 50.515625 8.265625 
Q 44.046875 -1.421875 31.78125 -1.421875 
Q 19.53125 -1.421875 13.0625 8.265625 
Q 6.59375 17.96875 6.59375 36.375 
Q 6.59375 54.828125 13.0625 64.515625 
Q 19.53125 74.21875 31.78125 74.21875 
z
" id="DejaVuSans-48"/>
       </defs>
       <use xlink:href="#DejaVuSans-49"/>
       <use x="63.623047" xlink:href="#DejaVuSans-48"/>
       <use x="127.246094" xlink:href="#DejaVuSans-104"/>
       <use x="190.625" xlink:href="#DejaVuSans-58"/>
       <use x="224.316406" xlink:href="#DejaVuSans-49"/>
       <use x="287.939453" xlink:href="#DejaVuSans-53"/>
       <use x="351.5625" xlink:href="#DejaVuSans-109"/>
      </g>
     </g>
    </g>
    <g id="xtick_7">
     <g id="line2d_7">
      <g>
       <use style="stroke:#000000;stroke-width:0.8;" x="420.228041" xlink:href="#m8800523d13" y="288.430125"/>
      </g>
     </g>
     <g id="text_7">
      <!-- 12h:15m -->
      <g transform="translate(397.779604 303.028562)scale(0.1 -0.1)">
       <use xlink:href="#DejaVuSans-49"/>
       <use x="63.623047" xlink:href="#DejaVuSans-50"/>
       <use x="127.246094" xlink:href="#DejaVuSans-104"/>
       <use x="190.625" xlink:href="#DejaVuSans-58"/>
       <use x="224.316406" xlink:href="#DejaVuSans-49"/>
       <use x="287.939453" xlink:href="#DejaVuSans-53"/>
       <use x="351.5625" xlink:href="#DejaVuSans-109"/>
      </g>
     </g>
    </g>
    <g id="xtick_8">
     <g id="line2d_8">
      <g>
       <use style="stroke:#000000;stroke-width:0.8;" x="474.906702" xlink:href="#m8800523d13" y="288.430125"/>
      </g>
     </g>
     <g id="text_8">
      <!-- 14h:15m -->
      <g transform="translate(452.458264 303.028562)scale(0.1 -0.1)">
       <use xlink:href="#DejaVuSans-49"/>
       <use x="63.623047" xlink:href="#DejaVuSans-52"/>
       <use x="127.246094" xlink:href="#DejaVuSans-104"/>
       <use x="190.625" xlink:href="#DejaVuSans-58"/>
       <use x="224.316406" xlink:href="#DejaVuSans-49"/>
       <use x="287.939453" xlink:href="#DejaVuSans-53"/>
       <use x="351.5625" xlink:href="#DejaVuSans-109"/>
      </g>
     </g>
    </g>
    <g id="xtick_9">
     <g id="line2d_9">
      <g>
       <use style="stroke:#000000;stroke-width:0.8;" x="529.585362" xlink:href="#m8800523d13" y="288.430125"/>
      </g>
     </g>
     <g id="text_9">
      <!-- 16h:15m -->
      <g transform="translate(507.136924 303.028562)scale(0.1 -0.1)">
       <use xlink:href="#DejaVuSans-49"/>
       <use x="63.623047" xlink:href="#DejaVuSans-54"/>
       <use x="127.246094" xlink:href="#DejaVuSans-104"/>
       <use x="190.625" xlink:href="#DejaVuSans-58"/>
       <use x="224.316406" xlink:href="#DejaVuSans-49"/>
       <use x="287.939453" xlink:href="#DejaVuSans-53"/>
       <use x="351.5625" xlink:href="#DejaVuSans-109"/>
      </g>
     </g>
    </g>
    <g id="xtick_10">
     <g id="line2d_10">
      <g>
       <use style="stroke:#000000;stroke-width:0.8;" x="584.264022" xlink:href="#m8800523d13" y="288.430125"/>
      </g>
     </g>
     <g id="text_10">
      <!-- 18h:15m -->
      <g transform="translate(561.815585 303.028562)scale(0.1 -0.1)">
       <use xlink:href="#DejaVuSans-49"/>
       <use x="63.623047" xlink:href="#DejaVuSans-56"/>
       <use x="127.246094" xlink:href="#DejaVuSans-104"/>
       <use x="190.625" xlink:href="#DejaVuSans-58"/>
       <use x="224.316406" xlink:href="#DejaVuSans-49"/>
       <use x="287.939453" xlink:href="#DejaVuSans-53"/>
       <use x="351.5625" xlink:href="#DejaVuSans-109"/>
      </g>
     </g>
    </g>
    <g id="xtick_11">
     <g id="line2d_11">
      <g>
       <use style="stroke:#000000;stroke-width:0.8;" x="638.942682" xlink:href="#m8800523d13" y="288.430125"/>
      </g>
     </g>
     <g id="text_11">
      <!-- 20h:15m -->
      <g transform="translate(616.494245 303.028562)scale(0.1 -0.1)">
       <use xlink:href="#DejaVuSans-50"/>
       <use x="63.623047" xlink:href="#DejaVuSans-48"/>
       <use x="127.246094" xlink:href="#DejaVuSans-104"/>
       <use x="190.625" xlink:href="#DejaVuSans-58"/>
       <use x="224.316406" xlink:href="#DejaVuSans-49"/>
       <use x="287.939453" xlink:href="#DejaVuSans-53"/>
       <use x="351.5625" xlink:href="#DejaVuSans-109"/>
      </g>
     </g>
    </g>
    <g id="xtick_12">
     <g id="line2d_12">
      <g>
       <use style="stroke:#000000;stroke-width:0.8;" x="693.621343" xlink:href="#m8800523d13" y="288.430125"/>
      </g>
     </g>
     <g id="text_12">
      <!-- 22h:15m -->
      <g transform="translate(671.172905 303.028562)scale(0.1 -0.1)">
       <use xlink:href="#DejaVuSans-50"/>
       <use x="63.623047" xlink:href="#DejaVuSans-50"/>
       <use x="127.246094" xlink:href="#DejaVuSans-104"/>
       <use x="190.625" xlink:href="#DejaVuSans-58"/>
       <use x="224.316406" xlink:href="#DejaVuSans-49"/>
       <use x="287.939453" xlink:href="#DejaVuSans-53"/>
       <use x="351.5625" xlink:href="#DejaVuSans-109"/>
      </g>
     </g>
    </g>
    <g id="text_13">
     <!-- Time (hour:minute) -->
     <g transform="translate(368.403594 316.706687)scale(0.1 -0.1)">
      <defs>
       <path d="M -0.296875 72.90625 
L 61.375 72.90625 
L 61.375 64.59375 
L 35.5 64.59375 
L 35.5 0 
L 25.59375 0 
L 25.59375 64.59375 
L -0.296875 64.59375 
z
" id="DejaVuSans-84"/>
       <path d="M 9.421875 54.6875 
L 18.40625 54.6875 
L 18.40625 0 
L 9.421875 0 
z
M 9.421875 75.984375 
L 18.40625 75.984375 
L 18.40625 64.59375 
L 9.421875 64.59375 
z
" id="DejaVuSans-105"/>
       <path d="M 56.203125 29.59375 
L 56.203125 25.203125 
L 14.890625 25.203125 
Q 15.484375 15.921875 20.484375 11.0625 
Q 25.484375 6.203125 34.421875 6.203125 
Q 39.59375 6.203125 44.453125 7.46875 
Q 49.3125 8.734375 54.109375 11.28125 
L 54.109375 2.78125 
Q 49.265625 0.734375 44.1875 -0.34375 
Q 39.109375 -1.421875 33.890625 -1.421875 
Q 20.796875 -1.421875 13.15625 6.1875 
Q 5.515625 13.8125 5.515625 26.8125 
Q 5.515625 40.234375 12.765625 48.109375 
Q 20.015625 56 32.328125 56 
Q 43.359375 56 49.78125 48.890625 
Q 56.203125 41.796875 56.203125 29.59375 
z
M 47.21875 32.234375 
Q 47.125 39.59375 43.09375 43.984375 
Q 39.0625 48.390625 32.421875 48.390625 
Q 24.90625 48.390625 20.390625 44.140625 
Q 15.875 39.890625 15.1875 32.171875 
z
" id="DejaVuSans-101"/>
       <path id="DejaVuSans-32"/>
       <path d="M 31 75.875 
Q 24.46875 64.65625 21.28125 53.65625 
Q 18.109375 42.671875 18.109375 31.390625 
Q 18.109375 20.125 21.3125 9.0625 
Q 24.515625 -2 31 -13.1875 
L 23.1875 -13.1875 
Q 15.875 -1.703125 12.234375 9.375 
Q 8.59375 20.453125 8.59375 31.390625 
Q 8.59375 42.28125 12.203125 53.3125 
Q 15.828125 64.359375 23.1875 75.875 
z
" id="DejaVuSans-40"/>
       <path d="M 30.609375 48.390625 
Q 23.390625 48.390625 19.1875 42.75 
Q 14.984375 37.109375 14.984375 27.296875 
Q 14.984375 17.484375 19.15625 11.84375 
Q 23.34375 6.203125 30.609375 6.203125 
Q 37.796875 6.203125 41.984375 11.859375 
Q 46.1875 17.53125 46.1875 27.296875 
Q 46.1875 37.015625 41.984375 42.703125 
Q 37.796875 48.390625 30.609375 48.390625 
z
M 30.609375 56 
Q 42.328125 56 49.015625 48.375 
Q 55.71875 40.765625 55.71875 27.296875 
Q 55.71875 13.875 49.015625 6.21875 
Q 42.328125 -1.421875 30.609375 -1.421875 
Q 18.84375 -1.421875 12.171875 6.21875 
Q 5.515625 13.875 5.515625 27.296875 
Q 5.515625 40.765625 12.171875 48.375 
Q 18.84375 56 30.609375 56 
z
" id="DejaVuSans-111"/>
       <path d="M 8.5 21.578125 
L 8.5 54.6875 
L 17.484375 54.6875 
L 17.484375 21.921875 
Q 17.484375 14.15625 20.5 10.265625 
Q 23.53125 6.390625 29.59375 6.390625 
Q 36.859375 6.390625 41.078125 11.03125 
Q 45.3125 15.671875 45.3125 23.6875 
L 45.3125 54.6875 
L 54.296875 54.6875 
L 54.296875 0 
L 45.3125 0 
L 45.3125 8.40625 
Q 42.046875 3.421875 37.71875 1 
Q 33.40625 -1.421875 27.6875 -1.421875 
Q 18.265625 -1.421875 13.375 4.4375 
Q 8.5 10.296875 8.5 21.578125 
z
M 31.109375 56 
z
" id="DejaVuSans-117"/>
       <path d="M 41.109375 46.296875 
Q 39.59375 47.171875 37.8125 47.578125 
Q 36.03125 48 33.890625 48 
Q 26.265625 48 22.1875 43.046875 
Q 18.109375 38.09375 18.109375 28.8125 
L 18.109375 0 
L 9.078125 0 
L 9.078125 54.6875 
L 18.109375 54.6875 
L 18.109375 46.1875 
Q 20.953125 51.171875 25.484375 53.578125 
Q 30.03125 56 36.53125 56 
Q 37.453125 56 38.578125 55.875 
Q 39.703125 55.765625 41.0625 55.515625 
z
" id="DejaVuSans-114"/>
       <path d="M 54.890625 33.015625 
L 54.890625 0 
L 45.90625 0 
L 45.90625 32.71875 
Q 45.90625 40.484375 42.875 44.328125 
Q 39.84375 48.1875 33.796875 48.1875 
Q 26.515625 48.1875 22.3125 43.546875 
Q 18.109375 38.921875 18.109375 30.90625 
L 18.109375 0 
L 9.078125 0 
L 9.078125 54.6875 
L 18.109375 54.6875 
L 18.109375 46.1875 
Q 21.34375 51.125 25.703125 53.5625 
Q 30.078125 56 35.796875 56 
Q 45.21875 56 50.046875 50.171875 
Q 54.890625 44.34375 54.890625 33.015625 
z
" id="DejaVuSans-110"/>
       <path d="M 18.3125 70.21875 
L 18.3125 54.6875 
L 36.8125 54.6875 
L 36.8125 47.703125 
L 18.3125 47.703125 
L 18.3125 18.015625 
Q 18.3125 11.328125 20.140625 9.421875 
Q 21.96875 7.515625 27.59375 7.515625 
L 36.8125 7.515625 
L 36.8125 0 
L 27.59375 0 
Q 17.1875 0 13.234375 3.875 
Q 9.28125 7.765625 9.28125 18.015625 
L 9.28125 47.703125 
L 2.6875 47.703125 
L 2.6875 54.6875 
L 9.28125 54.6875 
L 9.28125 70.21875 
z
" id="DejaVuSans-116"/>
       <path d="M 8.015625 75.875 
L 15.828125 75.875 
Q 23.140625 64.359375 26.78125 53.3125 
Q 30.421875 42.28125 30.421875 31.390625 
Q 30.421875 20.453125 26.78125 9.375 
Q 23.140625 -1.703125 15.828125 -13.1875 
L 8.015625 -13.1875 
Q 14.5 -2 17.703125 9.0625 
Q 20.90625 20.125 20.90625 31.390625 
Q 20.90625 42.671875 17.703125 53.65625 
Q 14.5 64.65625 8.015625 75.875 
z
" id="DejaVuSans-41"/>
      </defs>
      <use xlink:href="#DejaVuSans-84"/>
      <use x="57.958984" xlink:href="#DejaVuSans-105"/>
      <use x="85.742188" xlink:href="#DejaVuSans-109"/>
      <use x="183.154297" xlink:href="#DejaVuSans-101"/>
      <use x="244.677734" xlink:href="#DejaVuSans-32"/>
      <use x="276.464844" xlink:href="#DejaVuSans-40"/>
      <use x="315.478516" xlink:href="#DejaVuSans-104"/>
      <use x="378.857422" xlink:href="#DejaVuSans-111"/>
      <use x="440.039062" xlink:href="#DejaVuSans-117"/>
      <use x="503.417969" xlink:href="#DejaVuSans-114"/>
      <use x="542.78125" xlink:href="#DejaVuSans-58"/>
      <use x="576.472656" xlink:href="#DejaVuSans-109"/>
      <use x="673.884766" xlink:href="#DejaVuSans-105"/>
      <use x="701.667969" xlink:href="#DejaVuSans-110"/>
      <use x="765.046875" xlink:href="#DejaVuSans-117"/>
      <use x="828.425781" xlink:href="#DejaVuSans-116"/>
      <use x="867.634766" xlink:href="#DejaVuSans-101"/>
      <use x="929.158203" xlink:href="#DejaVuSans-41"/>
     </g>
    </g>
   </g>
   <g id="matplotlib.axis_2">
    <g id="ytick_1">
     <g id="line2d_13">
      <defs>
       <path d="M 0 0 
L -3.5 0 
" id="m339d6f3c88" style="stroke:#000000;stroke-width:0.8;"/>
      </defs>
      <g>
       <use style="stroke:#000000;stroke-width:0.8;" x="59.690625" xlink:href="#m339d6f3c88" y="256.7758"/>
      </g>
     </g>
     <g id="text_14">
      <!-- 13000 -->
      <g transform="translate(20.878125 260.575018)scale(0.1 -0.1)">
       <defs>
        <path d="M 40.578125 39.3125 
Q 47.65625 37.796875 51.625 33 
Q 55.609375 28.21875 55.609375 21.1875 
Q 55.609375 10.40625 48.1875 4.484375 
Q 40.765625 -1.421875 27.09375 -1.421875 
Q 22.515625 -1.421875 17.65625 -0.515625 
Q 12.796875 0.390625 7.625 2.203125 
L 7.625 11.71875 
Q 11.71875 9.328125 16.59375 8.109375 
Q 21.484375 6.890625 26.8125 6.890625 
Q 36.078125 6.890625 40.9375 10.546875 
Q 45.796875 14.203125 45.796875 21.1875 
Q 45.796875 27.640625 41.28125 31.265625 
Q 36.765625 34.90625 28.71875 34.90625 
L 20.21875 34.90625 
L 20.21875 43.015625 
L 29.109375 43.015625 
Q 36.375 43.015625 40.234375 45.921875 
Q 44.09375 48.828125 44.09375 54.296875 
Q 44.09375 59.90625 40.109375 62.90625 
Q 36.140625 65.921875 28.71875 65.921875 
Q 24.65625 65.921875 20.015625 65.03125 
Q 15.375 64.15625 9.8125 62.3125 
L 9.8125 71.09375 
Q 15.4375 72.65625 20.34375 73.4375 
Q 25.25 74.21875 29.59375 74.21875 
Q 40.828125 74.21875 47.359375 69.109375 
Q 53.90625 64.015625 53.90625 55.328125 
Q 53.90625 49.265625 50.4375 45.09375 
Q 46.96875 40.921875 40.578125 39.3125 
z
" id="DejaVuSans-51"/>
       </defs>
       <use xlink:href="#DejaVuSans-49"/>
       <use x="63.623047" xlink:href="#DejaVuSans-51"/>
       <use x="127.246094" xlink:href="#DejaVuSans-48"/>
       <use x="190.869141" xlink:href="#DejaVuSans-48"/>
       <use x="254.492188" xlink:href="#DejaVuSans-48"/>
      </g>
     </g>
    </g>
    <g id="ytick_2">
     <g id="line2d_14">
      <g>
       <use style="stroke:#000000;stroke-width:0.8;" x="59.690625" xlink:href="#m339d6f3c88" y="220.783298"/>
      </g>
     </g>
     <g id="text_15">
      <!-- 14000 -->
      <g transform="translate(20.878125 224.582517)scale(0.1 -0.1)">
       <use xlink:href="#DejaVuSans-49"/>
       <use x="63.623047" xlink:href="#DejaVuSans-52"/>
       <use x="127.246094" xlink:href="#DejaVuSans-48"/>
       <use x="190.869141" xlink:href="#DejaVuSans-48"/>
       <use x="254.492188" xlink:href="#DejaVuSans-48"/>
      </g>
     </g>
    </g>
    <g id="ytick_3">
     <g id="line2d_15">
      <g>
       <use style="stroke:#000000;stroke-width:0.8;" x="59.690625" xlink:href="#m339d6f3c88" y="184.790797"/>
      </g>
     </g>
     <g id="text_16">
      <!-- 15000 -->
      <g transform="translate(20.878125 188.590015)scale(0.1 -0.1)">
       <use xlink:href="#DejaVuSans-49"/>
       <use x="63.623047" xlink:href="#DejaVuSans-53"/>
       <use x="127.246094" xlink:href="#DejaVuSans-48"/>
       <use x="190.869141" xlink:href="#DejaVuSans-48"/>
       <use x="254.492188" xlink:href="#DejaVuSans-48"/>
      </g>
     </g>
    </g>
    <g id="ytick_4">
     <g id="line2d_16">
      <g>
       <use style="stroke:#000000;stroke-width:0.8;" x="59.690625" xlink:href="#m339d6f3c88" y="148.798295"/>
      </g>
     </g>
     <g id="text_17">
      <!-- 16000 -->
      <g transform="translate(20.878125 152.597514)scale(0.1 -0.1)">
       <use xlink:href="#DejaVuSans-49"/>
       <use x="63.623047" xlink:href="#DejaVuSans-54"/>
       <use x="127.246094" xlink:href="#DejaVuSans-48"/>
       <use x="190.869141" xlink:href="#DejaVuSans-48"/>
       <use x="254.492188" xlink:href="#DejaVuSans-48"/>
      </g>
     </g>
    </g>
    <g id="ytick_5">
     <g id="line2d_17">
      <g>
       <use style="stroke:#000000;stroke-width:0.8;" x="59.690625" xlink:href="#m339d6f3c88" y="112.805793"/>
      </g>
     </g>
     <g id="text_18">
      <!-- 17000 -->
      <g transform="translate(20.878125 116.605012)scale(0.1 -0.1)">
       <defs>
        <path d="M 8.203125 72.90625 
L 55.078125 72.90625 
L 55.078125 68.703125 
L 28.609375 0 
L 18.3125 0 
L 43.21875 64.59375 
L 8.203125 64.59375 
z
" id="DejaVuSans-55"/>
       </defs>
       <use xlink:href="#DejaVuSans-49"/>
       <use x="63.623047" xlink:href="#DejaVuSans-55"/>
       <use x="127.246094" xlink:href="#DejaVuSans-48"/>
       <use x="190.869141" xlink:href="#DejaVuSans-48"/>
       <use x="254.492188" xlink:href="#DejaVuSans-48"/>
      </g>
     </g>
    </g>
    <g id="ytick_6">
     <g id="line2d_18">
      <g>
       <use style="stroke:#000000;stroke-width:0.8;" x="59.690625" xlink:href="#m339d6f3c88" y="76.813292"/>
      </g>
     </g>
     <g id="text_19">
      <!-- 18000 -->
      <g transform="translate(20.878125 80.612511)scale(0.1 -0.1)">
       <use xlink:href="#DejaVuSans-49"/>
       <use x="63.623047" xlink:href="#DejaVuSans-56"/>
       <use x="127.246094" xlink:href="#DejaVuSans-48"/>
       <use x="190.869141" xlink:href="#DejaVuSans-48"/>
       <use x="254.492188" xlink:href="#DejaVuSans-48"/>
      </g>
     </g>
    </g>
    <g id="ytick_7">
     <g id="line2d_19">
      <g>
       <use style="stroke:#000000;stroke-width:0.8;" x="59.690625" xlink:href="#m339d6f3c88" y="40.82079"/>
      </g>
     </g>
     <g id="text_20">
      <!-- 19000 -->
      <g transform="translate(20.878125 44.620009)scale(0.1 -0.1)">
       <defs>
        <path d="M 10.984375 1.515625 
L 10.984375 10.5 
Q 14.703125 8.734375 18.5 7.8125 
Q 22.3125 6.890625 25.984375 6.890625 
Q 35.75 6.890625 40.890625 13.453125 
Q 46.046875 20.015625 46.78125 33.40625 
Q 43.953125 29.203125 39.59375 26.953125 
Q 35.25 24.703125 29.984375 24.703125 
Q 19.046875 24.703125 12.671875 31.3125 
Q 6.296875 37.9375 6.296875 49.421875 
Q 6.296875 60.640625 12.9375 67.421875 
Q 19.578125 74.21875 30.609375 74.21875 
Q 43.265625 74.21875 49.921875 64.515625 
Q 56.59375 54.828125 56.59375 36.375 
Q 56.59375 19.140625 48.40625 8.859375 
Q 40.234375 -1.421875 26.421875 -1.421875 
Q 22.703125 -1.421875 18.890625 -0.6875 
Q 15.09375 0.046875 10.984375 1.515625 
z
M 30.609375 32.421875 
Q 37.25 32.421875 41.125 36.953125 
Q 45.015625 41.5 45.015625 49.421875 
Q 45.015625 57.28125 41.125 61.84375 
Q 37.25 66.40625 30.609375 66.40625 
Q 23.96875 66.40625 20.09375 61.84375 
Q 16.21875 57.28125 16.21875 49.421875 
Q 16.21875 41.5 20.09375 36.953125 
Q 23.96875 32.421875 30.609375 32.421875 
z
" id="DejaVuSans-57"/>
       </defs>
       <use xlink:href="#DejaVuSans-49"/>
       <use x="63.623047" xlink:href="#DejaVuSans-57"/>
       <use x="127.246094" xlink:href="#DejaVuSans-48"/>
       <use x="190.869141" xlink:href="#DejaVuSans-48"/>
       <use x="254.492188" xlink:href="#DejaVuSans-48"/>
      </g>
     </g>
    </g>
    <g id="text_21">
     <!-- Edge coverage -->
     <g transform="translate(14.798437 192.762406)rotate(-90)scale(0.1 -0.1)">
      <defs>
       <path d="M 9.8125 72.90625 
L 55.90625 72.90625 
L 55.90625 64.59375 
L 19.671875 64.59375 
L 19.671875 43.015625 
L 54.390625 43.015625 
L 54.390625 34.71875 
L 19.671875 34.71875 
L 19.671875 8.296875 
L 56.78125 8.296875 
L 56.78125 0 
L 9.8125 0 
z
" id="DejaVuSans-69"/>
       <path d="M 45.40625 46.390625 
L 45.40625 75.984375 
L 54.390625 75.984375 
L 54.390625 0 
L 45.40625 0 
L 45.40625 8.203125 
Q 42.578125 3.328125 38.25 0.953125 
Q 33.9375 -1.421875 27.875 -1.421875 
Q 17.96875 -1.421875 11.734375 6.484375 
Q 5.515625 14.40625 5.515625 27.296875 
Q 5.515625 40.1875 11.734375 48.09375 
Q 17.96875 56 27.875 56 
Q 33.9375 56 38.25 53.625 
Q 42.578125 51.265625 45.40625 46.390625 
z
M 14.796875 27.296875 
Q 14.796875 17.390625 18.875 11.75 
Q 22.953125 6.109375 30.078125 6.109375 
Q 37.203125 6.109375 41.296875 11.75 
Q 45.40625 17.390625 45.40625 27.296875 
Q 45.40625 37.203125 41.296875 42.84375 
Q 37.203125 48.484375 30.078125 48.484375 
Q 22.953125 48.484375 18.875 42.84375 
Q 14.796875 37.203125 14.796875 27.296875 
z
" id="DejaVuSans-100"/>
       <path d="M 45.40625 27.984375 
Q 45.40625 37.75 41.375 43.109375 
Q 37.359375 48.484375 30.078125 48.484375 
Q 22.859375 48.484375 18.828125 43.109375 
Q 14.796875 37.75 14.796875 27.984375 
Q 14.796875 18.265625 18.828125 12.890625 
Q 22.859375 7.515625 30.078125 7.515625 
Q 37.359375 7.515625 41.375 12.890625 
Q 45.40625 18.265625 45.40625 27.984375 
z
M 54.390625 6.78125 
Q 54.390625 -7.171875 48.1875 -13.984375 
Q 42 -20.796875 29.203125 -20.796875 
Q 24.46875 -20.796875 20.265625 -20.09375 
Q 16.0625 -19.390625 12.109375 -17.921875 
L 12.109375 -9.1875 
Q 16.0625 -11.328125 19.921875 -12.34375 
Q 23.78125 -13.375 27.78125 -13.375 
Q 36.625 -13.375 41.015625 -8.765625 
Q 45.40625 -4.15625 45.40625 5.171875 
L 45.40625 9.625 
Q 42.625 4.78125 38.28125 2.390625 
Q 33.9375 0 27.875 0 
Q 17.828125 0 11.671875 7.65625 
Q 5.515625 15.328125 5.515625 27.984375 
Q 5.515625 40.671875 11.671875 48.328125 
Q 17.828125 56 27.875 56 
Q 33.9375 56 38.28125 53.609375 
Q 42.625 51.21875 45.40625 46.390625 
L 45.40625 54.6875 
L 54.390625 54.6875 
z
" id="DejaVuSans-103"/>
       <path d="M 48.78125 52.59375 
L 48.78125 44.1875 
Q 44.96875 46.296875 41.140625 47.34375 
Q 37.3125 48.390625 33.40625 48.390625 
Q 24.65625 48.390625 19.8125 42.84375 
Q 14.984375 37.3125 14.984375 27.296875 
Q 14.984375 17.28125 19.8125 11.734375 
Q 24.65625 6.203125 33.40625 6.203125 
Q 37.3125 6.203125 41.140625 7.25 
Q 44.96875 8.296875 48.78125 10.40625 
L 48.78125 2.09375 
Q 45.015625 0.34375 40.984375 -0.53125 
Q 36.96875 -1.421875 32.421875 -1.421875 
Q 20.0625 -1.421875 12.78125 6.34375 
Q 5.515625 14.109375 5.515625 27.296875 
Q 5.515625 40.671875 12.859375 48.328125 
Q 20.21875 56 33.015625 56 
Q 37.15625 56 41.109375 55.140625 
Q 45.0625 54.296875 48.78125 52.59375 
z
" id="DejaVuSans-99"/>
       <path d="M 2.984375 54.6875 
L 12.5 54.6875 
L 29.59375 8.796875 
L 46.6875 54.6875 
L 56.203125 54.6875 
L 35.6875 0 
L 23.484375 0 
z
" id="DejaVuSans-118"/>
       <path d="M 34.28125 27.484375 
Q 23.390625 27.484375 19.1875 25 
Q 14.984375 22.515625 14.984375 16.5 
Q 14.984375 11.71875 18.140625 8.90625 
Q 21.296875 6.109375 26.703125 6.109375 
Q 34.1875 6.109375 38.703125 11.40625 
Q 43.21875 16.703125 43.21875 25.484375 
L 43.21875 27.484375 
z
M 52.203125 31.203125 
L 52.203125 0 
L 43.21875 0 
L 43.21875 8.296875 
Q 40.140625 3.328125 35.546875 0.953125 
Q 30.953125 -1.421875 24.3125 -1.421875 
Q 15.921875 -1.421875 10.953125 3.296875 
Q 6 8.015625 6 15.921875 
Q 6 25.140625 12.171875 29.828125 
Q 18.359375 34.515625 30.609375 34.515625 
L 43.21875 34.515625 
L 43.21875 35.40625 
Q 43.21875 41.609375 39.140625 45 
Q 35.0625 48.390625 27.6875 48.390625 
Q 23 48.390625 18.546875 47.265625 
Q 14.109375 46.140625 10.015625 43.890625 
L 10.015625 52.203125 
Q 14.9375 54.109375 19.578125 55.046875 
Q 24.21875 56 28.609375 56 
Q 40.484375 56 46.34375 49.84375 
Q 52.203125 43.703125 52.203125 31.203125 
z
" id="DejaVuSans-97"/>
      </defs>
      <use xlink:href="#DejaVuSans-69"/>
      <use x="63.183594" xlink:href="#DejaVuSans-100"/>
      <use x="126.660156" xlink:href="#DejaVuSans-103"/>
      <use x="190.136719" xlink:href="#DejaVuSans-101"/>
      <use x="251.660156" xlink:href="#DejaVuSans-32"/>
      <use x="283.447266" xlink:href="#DejaVuSans-99"/>
      <use x="338.427734" xlink:href="#DejaVuSans-111"/>
      <use x="399.609375" xlink:href="#DejaVuSans-118"/>
      <use x="458.789062" xlink:href="#DejaVuSans-101"/>
      <use x="520.3125" xlink:href="#DejaVuSans-114"/>
      <use x="561.425781" xlink:href="#DejaVuSans-97"/>
      <use x="622.705078" xlink:href="#DejaVuSans-103"/>
      <use x="686.181641" xlink:href="#DejaVuSans-101"/>
     </g>
    </g>
   </g>
   <g id="line2d_20">
    <path clip-path="url(#p18412ff032)" d="M 92.15608 257.178916 
L 98.990912 243.753713 
L 105.825745 232.480861 
L 112.660577 219.566752 
L 119.49541 211.806768 
L 126.330242 197.827281 
L 133.165075 190.974308 
L 139.999907 186.734392 
L 146.83474 178.283352 
L 153.669572 174.316979 
L 160.504405 171.545556 
L 167.339237 170.789713 
L 174.17407 168.766935 
L 181.008903 161.748397 
L 187.843735 150.446752 
L 194.678568 144.795929 
L 201.5134 141.736566 
L 208.348233 139.36826 
L 215.183065 137.798986 
L 222.017898 136.323294 
L 228.85273 134.13495 
L 235.687563 133.141557 
L 242.522395 131.63707 
L 249.357228 130.794846 
L 256.19206 130.182973 
L 263.026893 129.542307 
L 269.861725 127.526727 
L 276.696558 127.238787 
L 283.531391 125.525543 
L 290.366223 125.194412 
L 297.201056 124.906472 
L 304.035888 124.647326 
L 310.870721 123.977866 
L 317.705553 123.639536 
L 324.540386 123.401986 
L 331.375218 123.042061 
L 338.210051 122.408593 
L 345.044883 122.286218 
L 351.879716 121.976683 
L 358.714548 121.695941 
L 365.549381 121.069672 
L 372.384214 117.585598 
L 379.219046 117.348047 
L 386.053879 116.988122 
L 392.888711 116.095508 
L 399.723544 115.89395 
L 406.558376 108.162761 
L 413.393209 106.449518 
L 420.228041 104.32596 
L 427.062874 103.678095 
L 433.897706 103.339765 
L 440.732539 102.447151 
L 447.567371 102.044035 
L 454.402204 101.712904 
L 461.237036 101.475354 
L 468.071869 101.439361 
L 474.906702 101.216208 
L 481.741534 101.173017 
L 488.576367 101.144223 
L 495.411199 100.96426 
L 502.246032 99.438178 
L 509.080864 98.257624 
L 515.915697 97.962486 
L 522.750529 95.774142 
L 529.585362 91.152704 
L 536.420194 90.74239 
L 543.255027 88.770001 
L 550.089859 87.315904 
L 556.924692 86.941582 
L 563.759525 85.458691 
L 570.594357 84.875612 
L 577.42919 84.652459 
L 584.264022 83.860624 
L 591.098855 83.659066 
L 597.933687 83.191163 
L 604.76852 81.499516 
L 611.603352 80.722078 
L 618.438185 80.635696 
L 625.273017 79.901448 
L 632.10785 79.491134 
L 638.942682 78.713696 
L 645.777515 78.16661 
L 652.612347 78.087426 
L 659.44718 77.374775 
L 666.282013 76.950063 
L 673.116845 76.863681 
L 679.951678 76.474962 
L 686.78651 76.093442 
L 693.621343 74.977674 
L 700.456175 74.927285 
L 707.291008 74.80491 
L 714.12584 74.56736 
L 720.960673 74.401794 
L 727.795505 74.272221 
L 734.630338 73.307622 
L 741.46517 67.94114 
" style="fill:none;stroke:#98df8a;stroke-linecap:square;stroke-width:1.5;"/>
    <defs>
     <path d="M -0 3 
L 3 -3 
L -3 -3 
z
" id="mca96c9ce36" style="stroke:#ffffff;stroke-linejoin:miter;stroke-width:0.75;"/>
    </defs>
    <g clip-path="url(#p18412ff032)">
     <use style="fill:#98df8a;stroke:#ffffff;stroke-linejoin:miter;stroke-width:0.75;" x="92.15608" xlink:href="#mca96c9ce36" y="257.178916"/>
     <use style="fill:#98df8a;stroke:#ffffff;stroke-linejoin:miter;stroke-width:0.75;" x="98.990912" xlink:href="#mca96c9ce36" y="243.753713"/>
     <use style="fill:#98df8a;stroke:#ffffff;stroke-linejoin:miter;stroke-width:0.75;" x="105.825745" xlink:href="#mca96c9ce36" y="232.480861"/>
     <use style="fill:#98df8a;stroke:#ffffff;stroke-linejoin:miter;stroke-width:0.75;" x="112.660577" xlink:href="#mca96c9ce36" y="219.566752"/>
     <use style="fill:#98df8a;stroke:#ffffff;stroke-linejoin:miter;stroke-width:0.75;" x="119.49541" xlink:href="#mca96c9ce36" y="211.806768"/>
     <use style="fill:#98df8a;stroke:#ffffff;stroke-linejoin:miter;stroke-width:0.75;" x="126.330242" xlink:href="#mca96c9ce36" y="197.827281"/>
     <use style="fill:#98df8a;stroke:#ffffff;stroke-linejoin:miter;stroke-width:0.75;" x="133.165075" xlink:href="#mca96c9ce36" y="190.974308"/>
     <use style="fill:#98df8a;stroke:#ffffff;stroke-linejoin:miter;stroke-width:0.75;" x="139.999907" xlink:href="#mca96c9ce36" y="186.734392"/>
     <use style="fill:#98df8a;stroke:#ffffff;stroke-linejoin:miter;stroke-width:0.75;" x="146.83474" xlink:href="#mca96c9ce36" y="178.283352"/>
     <use style="fill:#98df8a;stroke:#ffffff;stroke-linejoin:miter;stroke-width:0.75;" x="153.669572" xlink:href="#mca96c9ce36" y="174.316979"/>
     <use style="fill:#98df8a;stroke:#ffffff;stroke-linejoin:miter;stroke-width:0.75;" x="160.504405" xlink:href="#mca96c9ce36" y="171.545556"/>
     <use style="fill:#98df8a;stroke:#ffffff;stroke-linejoin:miter;stroke-width:0.75;" x="167.339237" xlink:href="#mca96c9ce36" y="170.789713"/>
     <use style="fill:#98df8a;stroke:#ffffff;stroke-linejoin:miter;stroke-width:0.75;" x="174.17407" xlink:href="#mca96c9ce36" y="168.766935"/>
     <use style="fill:#98df8a;stroke:#ffffff;stroke-linejoin:miter;stroke-width:0.75;" x="181.008903" xlink:href="#mca96c9ce36" y="161.748397"/>
     <use style="fill:#98df8a;stroke:#ffffff;stroke-linejoin:miter;stroke-width:0.75;" x="187.843735" xlink:href="#mca96c9ce36" y="150.446752"/>
     <use style="fill:#98df8a;stroke:#ffffff;stroke-linejoin:miter;stroke-width:0.75;" x="194.678568" xlink:href="#mca96c9ce36" y="144.795929"/>
     <use style="fill:#98df8a;stroke:#ffffff;stroke-linejoin:miter;stroke-width:0.75;" x="201.5134" xlink:href="#mca96c9ce36" y="141.736566"/>
     <use style="fill:#98df8a;stroke:#ffffff;stroke-linejoin:miter;stroke-width:0.75;" x="208.348233" xlink:href="#mca96c9ce36" y="139.36826"/>
     <use style="fill:#98df8a;stroke:#ffffff;stroke-linejoin:miter;stroke-width:0.75;" x="215.183065" xlink:href="#mca96c9ce36" y="137.798986"/>
     <use style="fill:#98df8a;stroke:#ffffff;stroke-linejoin:miter;stroke-width:0.75;" x="222.017898" xlink:href="#mca96c9ce36" y="136.323294"/>
     <use style="fill:#98df8a;stroke:#ffffff;stroke-linejoin:miter;stroke-width:0.75;" x="228.85273" xlink:href="#mca96c9ce36" y="134.13495"/>
     <use style="fill:#98df8a;stroke:#ffffff;stroke-linejoin:miter;stroke-width:0.75;" x="235.687563" xlink:href="#mca96c9ce36" y="133.141557"/>
     <use style="fill:#98df8a;stroke:#ffffff;stroke-linejoin:miter;stroke-width:0.75;" x="242.522395" xlink:href="#mca96c9ce36" y="131.63707"/>
     <use style="fill:#98df8a;stroke:#ffffff;stroke-linejoin:miter;stroke-width:0.75;" x="249.357228" xlink:href="#mca96c9ce36" y="130.794846"/>
     <use style="fill:#98df8a;stroke:#ffffff;stroke-linejoin:miter;stroke-width:0.75;" x="256.19206" xlink:href="#mca96c9ce36" y="130.182973"/>
     <use style="fill:#98df8a;stroke:#ffffff;stroke-linejoin:miter;stroke-width:0.75;" x="263.026893" xlink:href="#mca96c9ce36" y="129.542307"/>
     <use style="fill:#98df8a;stroke:#ffffff;stroke-linejoin:miter;stroke-width:0.75;" x="269.861725" xlink:href="#mca96c9ce36" y="127.526727"/>
     <use style="fill:#98df8a;stroke:#ffffff;stroke-linejoin:miter;stroke-width:0.75;" x="276.696558" xlink:href="#mca96c9ce36" y="127.238787"/>
     <use style="fill:#98df8a;stroke:#ffffff;stroke-linejoin:miter;stroke-width:0.75;" x="283.531391" xlink:href="#mca96c9ce36" y="125.525543"/>
     <use style="fill:#98df8a;stroke:#ffffff;stroke-linejoin:miter;stroke-width:0.75;" x="290.366223" xlink:href="#mca96c9ce36" y="125.194412"/>
     <use style="fill:#98df8a;stroke:#ffffff;stroke-linejoin:miter;stroke-width:0.75;" x="297.201056" xlink:href="#mca96c9ce36" y="124.906472"/>
     <use style="fill:#98df8a;stroke:#ffffff;stroke-linejoin:miter;stroke-width:0.75;" x="304.035888" xlink:href="#mca96c9ce36" y="124.647326"/>
     <use style="fill:#98df8a;stroke:#ffffff;stroke-linejoin:miter;stroke-width:0.75;" x="310.870721" xlink:href="#mca96c9ce36" y="123.977866"/>
     <use style="fill:#98df8a;stroke:#ffffff;stroke-linejoin:miter;stroke-width:0.75;" x="317.705553" xlink:href="#mca96c9ce36" y="123.639536"/>
     <use style="fill:#98df8a;stroke:#ffffff;stroke-linejoin:miter;stroke-width:0.75;" x="324.540386" xlink:href="#mca96c9ce36" y="123.401986"/>
     <use style="fill:#98df8a;stroke:#ffffff;stroke-linejoin:miter;stroke-width:0.75;" x="331.375218" xlink:href="#mca96c9ce36" y="123.042061"/>
     <use style="fill:#98df8a;stroke:#ffffff;stroke-linejoin:miter;stroke-width:0.75;" x="338.210051" xlink:href="#mca96c9ce36" y="122.408593"/>
     <use style="fill:#98df8a;stroke:#ffffff;stroke-linejoin:miter;stroke-width:0.75;" x="345.044883" xlink:href="#mca96c9ce36" y="122.286218"/>
     <use style="fill:#98df8a;stroke:#ffffff;stroke-linejoin:miter;stroke-width:0.75;" x="351.879716" xlink:href="#mca96c9ce36" y="121.976683"/>
     <use style="fill:#98df8a;stroke:#ffffff;stroke-linejoin:miter;stroke-width:0.75;" x="358.714548" xlink:href="#mca96c9ce36" y="121.695941"/>
     <use style="fill:#98df8a;stroke:#ffffff;stroke-linejoin:miter;stroke-width:0.75;" x="365.549381" xlink:href="#mca96c9ce36" y="121.069672"/>
     <use style="fill:#98df8a;stroke:#ffffff;stroke-linejoin:miter;stroke-width:0.75;" x="372.384214" xlink:href="#mca96c9ce36" y="117.585598"/>
     <use style="fill:#98df8a;stroke:#ffffff;stroke-linejoin:miter;stroke-width:0.75;" x="379.219046" xlink:href="#mca96c9ce36" y="117.348047"/>
     <use style="fill:#98df8a;stroke:#ffffff;stroke-linejoin:miter;stroke-width:0.75;" x="386.053879" xlink:href="#mca96c9ce36" y="116.988122"/>
     <use style="fill:#98df8a;stroke:#ffffff;stroke-linejoin:miter;stroke-width:0.75;" x="392.888711" xlink:href="#mca96c9ce36" y="116.095508"/>
     <use style="fill:#98df8a;stroke:#ffffff;stroke-linejoin:miter;stroke-width:0.75;" x="399.723544" xlink:href="#mca96c9ce36" y="115.89395"/>
     <use style="fill:#98df8a;stroke:#ffffff;stroke-linejoin:miter;stroke-width:0.75;" x="406.558376" xlink:href="#mca96c9ce36" y="108.162761"/>
     <use style="fill:#98df8a;stroke:#ffffff;stroke-linejoin:miter;stroke-width:0.75;" x="413.393209" xlink:href="#mca96c9ce36" y="106.449518"/>
     <use style="fill:#98df8a;stroke:#ffffff;stroke-linejoin:miter;stroke-width:0.75;" x="420.228041" xlink:href="#mca96c9ce36" y="104.32596"/>
     <use style="fill:#98df8a;stroke:#ffffff;stroke-linejoin:miter;stroke-width:0.75;" x="427.062874" xlink:href="#mca96c9ce36" y="103.678095"/>
     <use style="fill:#98df8a;stroke:#ffffff;stroke-linejoin:miter;stroke-width:0.75;" x="433.897706" xlink:href="#mca96c9ce36" y="103.339765"/>
     <use style="fill:#98df8a;stroke:#ffffff;stroke-linejoin:miter;stroke-width:0.75;" x="440.732539" xlink:href="#mca96c9ce36" y="102.447151"/>
     <use style="fill:#98df8a;stroke:#ffffff;stroke-linejoin:miter;stroke-width:0.75;" x="447.567371" xlink:href="#mca96c9ce36" y="102.044035"/>
     <use style="fill:#98df8a;stroke:#ffffff;stroke-linejoin:miter;stroke-width:0.75;" x="454.402204" xlink:href="#mca96c9ce36" y="101.712904"/>
     <use style="fill:#98df8a;stroke:#ffffff;stroke-linejoin:miter;stroke-width:0.75;" x="461.237036" xlink:href="#mca96c9ce36" y="101.475354"/>
     <use style="fill:#98df8a;stroke:#ffffff;stroke-linejoin:miter;stroke-width:0.75;" x="468.071869" xlink:href="#mca96c9ce36" y="101.439361"/>
     <use style="fill:#98df8a;stroke:#ffffff;stroke-linejoin:miter;stroke-width:0.75;" x="474.906702" xlink:href="#mca96c9ce36" y="101.216208"/>
     <use style="fill:#98df8a;stroke:#ffffff;stroke-linejoin:miter;stroke-width:0.75;" x="481.741534" xlink:href="#mca96c9ce36" y="101.173017"/>
     <use style="fill:#98df8a;stroke:#ffffff;stroke-linejoin:miter;stroke-width:0.75;" x="488.576367" xlink:href="#mca96c9ce36" y="101.144223"/>
     <use style="fill:#98df8a;stroke:#ffffff;stroke-linejoin:miter;stroke-width:0.75;" x="495.411199" xlink:href="#mca96c9ce36" y="100.96426"/>
     <use style="fill:#98df8a;stroke:#ffffff;stroke-linejoin:miter;stroke-width:0.75;" x="502.246032" xlink:href="#mca96c9ce36" y="99.438178"/>
     <use style="fill:#98df8a;stroke:#ffffff;stroke-linejoin:miter;stroke-width:0.75;" x="509.080864" xlink:href="#mca96c9ce36" y="98.257624"/>
     <use style="fill:#98df8a;stroke:#ffffff;stroke-linejoin:miter;stroke-width:0.75;" x="515.915697" xlink:href="#mca96c9ce36" y="97.962486"/>
     <use style="fill:#98df8a;stroke:#ffffff;stroke-linejoin:miter;stroke-width:0.75;" x="522.750529" xlink:href="#mca96c9ce36" y="95.774142"/>
     <use style="fill:#98df8a;stroke:#ffffff;stroke-linejoin:miter;stroke-width:0.75;" x="529.585362" xlink:href="#mca96c9ce36" y="91.152704"/>
     <use style="fill:#98df8a;stroke:#ffffff;stroke-linejoin:miter;stroke-width:0.75;" x="536.420194" xlink:href="#mca96c9ce36" y="90.74239"/>
     <use style="fill:#98df8a;stroke:#ffffff;stroke-linejoin:miter;stroke-width:0.75;" x="543.255027" xlink:href="#mca96c9ce36" y="88.770001"/>
     <use style="fill:#98df8a;stroke:#ffffff;stroke-linejoin:miter;stroke-width:0.75;" x="550.089859" xlink:href="#mca96c9ce36" y="87.315904"/>
     <use style="fill:#98df8a;stroke:#ffffff;stroke-linejoin:miter;stroke-width:0.75;" x="556.924692" xlink:href="#mca96c9ce36" y="86.941582"/>
     <use style="fill:#98df8a;stroke:#ffffff;stroke-linejoin:miter;stroke-width:0.75;" x="563.759525" xlink:href="#mca96c9ce36" y="85.458691"/>
     <use style="fill:#98df8a;stroke:#ffffff;stroke-linejoin:miter;stroke-width:0.75;" x="570.594357" xlink:href="#mca96c9ce36" y="84.875612"/>
     <use style="fill:#98df8a;stroke:#ffffff;stroke-linejoin:miter;stroke-width:0.75;" x="577.42919" xlink:href="#mca96c9ce36" y="84.652459"/>
     <use style="fill:#98df8a;stroke:#ffffff;stroke-linejoin:miter;stroke-width:0.75;" x="584.264022" xlink:href="#mca96c9ce36" y="83.860624"/>
     <use style="fill:#98df8a;stroke:#ffffff;stroke-linejoin:miter;stroke-width:0.75;" x="591.098855" xlink:href="#mca96c9ce36" y="83.659066"/>
     <use style="fill:#98df8a;stroke:#ffffff;stroke-linejoin:miter;stroke-width:0.75;" x="597.933687" xlink:href="#mca96c9ce36" y="83.191163"/>
     <use style="fill:#98df8a;stroke:#ffffff;stroke-linejoin:miter;stroke-width:0.75;" x="604.76852" xlink:href="#mca96c9ce36" y="81.499516"/>
     <use style="fill:#98df8a;stroke:#ffffff;stroke-linejoin:miter;stroke-width:0.75;" x="611.603352" xlink:href="#mca96c9ce36" y="80.722078"/>
     <use style="fill:#98df8a;stroke:#ffffff;stroke-linejoin:miter;stroke-width:0.75;" x="618.438185" xlink:href="#mca96c9ce36" y="80.635696"/>
     <use style="fill:#98df8a;stroke:#ffffff;stroke-linejoin:miter;stroke-width:0.75;" x="625.273017" xlink:href="#mca96c9ce36" y="79.901448"/>
     <use style="fill:#98df8a;stroke:#ffffff;stroke-linejoin:miter;stroke-width:0.75;" x="632.10785" xlink:href="#mca96c9ce36" y="79.491134"/>
     <use style="fill:#98df8a;stroke:#ffffff;stroke-linejoin:miter;stroke-width:0.75;" x="638.942682" xlink:href="#mca96c9ce36" y="78.713696"/>
     <use style="fill:#98df8a;stroke:#ffffff;stroke-linejoin:miter;stroke-width:0.75;" x="645.777515" xlink:href="#mca96c9ce36" y="78.16661"/>
     <use style="fill:#98df8a;stroke:#ffffff;stroke-linejoin:miter;stroke-width:0.75;" x="652.612347" xlink:href="#mca96c9ce36" y="78.087426"/>
     <use style="fill:#98df8a;stroke:#ffffff;stroke-linejoin:miter;stroke-width:0.75;" x="659.44718" xlink:href="#mca96c9ce36" y="77.374775"/>
     <use style="fill:#98df8a;stroke:#ffffff;stroke-linejoin:miter;stroke-width:0.75;" x="666.282013" xlink:href="#mca96c9ce36" y="76.950063"/>
     <use style="fill:#98df8a;stroke:#ffffff;stroke-linejoin:miter;stroke-width:0.75;" x="673.116845" xlink:href="#mca96c9ce36" y="76.863681"/>
     <use style="fill:#98df8a;stroke:#ffffff;stroke-linejoin:miter;stroke-width:0.75;" x="679.951678" xlink:href="#mca96c9ce36" y="76.474962"/>
     <use style="fill:#98df8a;stroke:#ffffff;stroke-linejoin:miter;stroke-width:0.75;" x="686.78651" xlink:href="#mca96c9ce36" y="76.093442"/>
     <use style="fill:#98df8a;stroke:#ffffff;stroke-linejoin:miter;stroke-width:0.75;" x="693.621343" xlink:href="#mca96c9ce36" y="74.977674"/>
     <use style="fill:#98df8a;stroke:#ffffff;stroke-linejoin:miter;stroke-width:0.75;" x="700.456175" xlink:href="#mca96c9ce36" y="74.927285"/>
     <use style="fill:#98df8a;stroke:#ffffff;stroke-linejoin:miter;stroke-width:0.75;" x="707.291008" xlink:href="#mca96c9ce36" y="74.80491"/>
     <use style="fill:#98df8a;stroke:#ffffff;stroke-linejoin:miter;stroke-width:0.75;" x="714.12584" xlink:href="#mca96c9ce36" y="74.56736"/>
     <use style="fill:#98df8a;stroke:#ffffff;stroke-linejoin:miter;stroke-width:0.75;" x="720.960673" xlink:href="#mca96c9ce36" y="74.401794"/>
     <use style="fill:#98df8a;stroke:#ffffff;stroke-linejoin:miter;stroke-width:0.75;" x="727.795505" xlink:href="#mca96c9ce36" y="74.272221"/>
     <use style="fill:#98df8a;stroke:#ffffff;stroke-linejoin:miter;stroke-width:0.75;" x="734.630338" xlink:href="#mca96c9ce36" y="73.307622"/>
     <use style="fill:#98df8a;stroke:#ffffff;stroke-linejoin:miter;stroke-width:0.75;" x="741.46517" xlink:href="#mca96c9ce36" y="67.94114"/>
    </g>
   </g>
   <g id="line2d_21">
    <path clip-path="url(#p18412ff032)" d="M 92.15608 241.70394 
L 98.990912 232.903773 
L 105.825745 220.05445 
L 112.660577 206.881194 
L 119.49541 201.329351 
L 126.330242 190.639578 
L 133.165075 175.378757 
L 139.999907 167.793338 
L 146.83474 153.999211 
L 153.669572 150.237995 
L 160.504405 148.312396 
L 167.339237 139.422248 
L 174.17407 137.280694 
L 181.008903 136.155929 
L 187.843735 129.740265 
L 194.678568 127.598712 
L 201.5134 125.070238 
L 208.348233 123.747514 
L 215.183065 122.478778 
L 222.017898 121.210043 
L 228.85273 120.751138 
L 235.687563 119.968301 
L 242.522395 116.072113 
L 249.357228 115.523227 
L 256.19206 115.235287 
L 263.026893 114.614417 
L 269.861725 114.380465 
L 276.696558 112.418874 
L 283.531391 111.645035 
L 290.366223 110.80821 
L 297.201056 110.718228 
L 304.035888 110.043369 
L 310.870721 107.892817 
L 317.705553 106.156179 
L 324.540386 105.23837 
L 331.375218 103.79867 
L 338.210051 103.258782 
L 345.044883 102.161011 
L 351.879716 101.855075 
L 358.714548 101.468155 
L 365.549381 100.604335 
L 372.384214 99.8125 
L 379.219046 99.785506 
L 386.053879 99.695525 
L 392.888711 99.641536 
L 399.723544 99.074654 
L 406.558376 98.786714 
L 413.393209 98.66074 
L 420.228041 98.129851 
L 427.062874 97.266031 
L 433.897706 97.113063 
L 440.732539 96.519186 
L 447.567371 96.35722 
L 454.402204 96.258241 
L 461.237036 95.88032 
L 468.071869 95.745348 
L 474.906702 95.547389 
L 481.741534 94.845535 
L 488.576367 94.458616 
L 495.411199 94.413625 
L 502.246032 94.296649 
L 509.080864 94.19767 
L 515.915697 93.990713 
L 522.750529 93.531809 
L 529.585362 92.75797 
L 536.420194 92.542015 
L 543.255027 90.994337 
L 550.089859 90.517437 
L 556.924692 88.834787 
L 563.759525 88.105939 
L 570.594357 87.943973 
L 577.42919 86.90019 
L 584.264022 86.513271 
L 591.098855 86.315312 
L 597.933687 86.072363 
L 604.76852 85.433496 
L 611.603352 85.262532 
L 618.438185 85.190547 
L 625.273017 85.136558 
L 632.10785 85.136558 
L 638.942682 85.019582 
L 645.777515 84.88461 
L 652.612347 84.704648 
L 659.44718 84.686652 
L 666.282013 84.650659 
L 673.116845 84.641661 
L 679.951678 84.623665 
L 686.78651 84.578674 
L 693.621343 84.578674 
L 700.456175 84.443702 
L 707.291008 84.40771 
L 714.12584 84.299732 
L 720.960673 83.696858 
L 727.795505 83.678862 
L 734.630338 83.489901 
L 741.46517 83.417916 
" style="fill:none;stroke:#1f77b4;stroke-linecap:square;stroke-width:1.5;"/>
    <defs>
     <path d="M 0 3 
C 0.795609 3 1.55874 2.683901 2.12132 2.12132 
C 2.683901 1.55874 3 0.795609 3 0 
C 3 -0.795609 2.683901 -1.55874 2.12132 -2.12132 
C 1.55874 -2.683901 0.795609 -3 0 -3 
C -0.795609 -3 -1.55874 -2.683901 -2.12132 -2.12132 
C -2.683901 -1.55874 -3 -0.795609 -3 0 
C -3 0.795609 -2.683901 1.55874 -2.12132 2.12132 
C -1.55874 2.683901 -0.795609 3 0 3 
z
" id="m8305dd84a7" style="stroke:#ffffff;stroke-width:0.75;"/>
    </defs>
    <g clip-path="url(#p18412ff032)">
     <use style="fill:#1f77b4;stroke:#ffffff;stroke-width:0.75;" x="92.15608" xlink:href="#m8305dd84a7" y="241.70394"/>
     <use style="fill:#1f77b4;stroke:#ffffff;stroke-width:0.75;" x="98.990912" xlink:href="#m8305dd84a7" y="232.903773"/>
     <use style="fill:#1f77b4;stroke:#ffffff;stroke-width:0.75;" x="105.825745" xlink:href="#m8305dd84a7" y="220.05445"/>
     <use style="fill:#1f77b4;stroke:#ffffff;stroke-width:0.75;" x="112.660577" xlink:href="#m8305dd84a7" y="206.881194"/>
     <use style="fill:#1f77b4;stroke:#ffffff;stroke-width:0.75;" x="119.49541" xlink:href="#m8305dd84a7" y="201.329351"/>
     <use style="fill:#1f77b4;stroke:#ffffff;stroke-width:0.75;" x="126.330242" xlink:href="#m8305dd84a7" y="190.639578"/>
     <use style="fill:#1f77b4;stroke:#ffffff;stroke-width:0.75;" x="133.165075" xlink:href="#m8305dd84a7" y="175.378757"/>
     <use style="fill:#1f77b4;stroke:#ffffff;stroke-width:0.75;" x="139.999907" xlink:href="#m8305dd84a7" y="167.793338"/>
     <use style="fill:#1f77b4;stroke:#ffffff;stroke-width:0.75;" x="146.83474" xlink:href="#m8305dd84a7" y="153.999211"/>
     <use style="fill:#1f77b4;stroke:#ffffff;stroke-width:0.75;" x="153.669572" xlink:href="#m8305dd84a7" y="150.237995"/>
     <use style="fill:#1f77b4;stroke:#ffffff;stroke-width:0.75;" x="160.504405" xlink:href="#m8305dd84a7" y="148.312396"/>
     <use style="fill:#1f77b4;stroke:#ffffff;stroke-width:0.75;" x="167.339237" xlink:href="#m8305dd84a7" y="139.422248"/>
     <use style="fill:#1f77b4;stroke:#ffffff;stroke-width:0.75;" x="174.17407" xlink:href="#m8305dd84a7" y="137.280694"/>
     <use style="fill:#1f77b4;stroke:#ffffff;stroke-width:0.75;" x="181.008903" xlink:href="#m8305dd84a7" y="136.155929"/>
     <use style="fill:#1f77b4;stroke:#ffffff;stroke-width:0.75;" x="187.843735" xlink:href="#m8305dd84a7" y="129.740265"/>
     <use style="fill:#1f77b4;stroke:#ffffff;stroke-width:0.75;" x="194.678568" xlink:href="#m8305dd84a7" y="127.598712"/>
     <use style="fill:#1f77b4;stroke:#ffffff;stroke-width:0.75;" x="201.5134" xlink:href="#m8305dd84a7" y="125.070238"/>
     <use style="fill:#1f77b4;stroke:#ffffff;stroke-width:0.75;" x="208.348233" xlink:href="#m8305dd84a7" y="123.747514"/>
     <use style="fill:#1f77b4;stroke:#ffffff;stroke-width:0.75;" x="215.183065" xlink:href="#m8305dd84a7" y="122.478778"/>
     <use style="fill:#1f77b4;stroke:#ffffff;stroke-width:0.75;" x="222.017898" xlink:href="#m8305dd84a7" y="121.210043"/>
     <use style="fill:#1f77b4;stroke:#ffffff;stroke-width:0.75;" x="228.85273" xlink:href="#m8305dd84a7" y="120.751138"/>
     <use style="fill:#1f77b4;stroke:#ffffff;stroke-width:0.75;" x="235.687563" xlink:href="#m8305dd84a7" y="119.968301"/>
     <use style="fill:#1f77b4;stroke:#ffffff;stroke-width:0.75;" x="242.522395" xlink:href="#m8305dd84a7" y="116.072113"/>
     <use style="fill:#1f77b4;stroke:#ffffff;stroke-width:0.75;" x="249.357228" xlink:href="#m8305dd84a7" y="115.523227"/>
     <use style="fill:#1f77b4;stroke:#ffffff;stroke-width:0.75;" x="256.19206" xlink:href="#m8305dd84a7" y="115.235287"/>
     <use style="fill:#1f77b4;stroke:#ffffff;stroke-width:0.75;" x="263.026893" xlink:href="#m8305dd84a7" y="114.614417"/>
     <use style="fill:#1f77b4;stroke:#ffffff;stroke-width:0.75;" x="269.861725" xlink:href="#m8305dd84a7" y="114.380465"/>
     <use style="fill:#1f77b4;stroke:#ffffff;stroke-width:0.75;" x="276.696558" xlink:href="#m8305dd84a7" y="112.418874"/>
     <use style="fill:#1f77b4;stroke:#ffffff;stroke-width:0.75;" x="283.531391" xlink:href="#m8305dd84a7" y="111.645035"/>
     <use style="fill:#1f77b4;stroke:#ffffff;stroke-width:0.75;" x="290.366223" xlink:href="#m8305dd84a7" y="110.80821"/>
     <use style="fill:#1f77b4;stroke:#ffffff;stroke-width:0.75;" x="297.201056" xlink:href="#m8305dd84a7" y="110.718228"/>
     <use style="fill:#1f77b4;stroke:#ffffff;stroke-width:0.75;" x="304.035888" xlink:href="#m8305dd84a7" y="110.043369"/>
     <use style="fill:#1f77b4;stroke:#ffffff;stroke-width:0.75;" x="310.870721" xlink:href="#m8305dd84a7" y="107.892817"/>
     <use style="fill:#1f77b4;stroke:#ffffff;stroke-width:0.75;" x="317.705553" xlink:href="#m8305dd84a7" y="106.156179"/>
     <use style="fill:#1f77b4;stroke:#ffffff;stroke-width:0.75;" x="324.540386" xlink:href="#m8305dd84a7" y="105.23837"/>
     <use style="fill:#1f77b4;stroke:#ffffff;stroke-width:0.75;" x="331.375218" xlink:href="#m8305dd84a7" y="103.79867"/>
     <use style="fill:#1f77b4;stroke:#ffffff;stroke-width:0.75;" x="338.210051" xlink:href="#m8305dd84a7" y="103.258782"/>
     <use style="fill:#1f77b4;stroke:#ffffff;stroke-width:0.75;" x="345.044883" xlink:href="#m8305dd84a7" y="102.161011"/>
     <use style="fill:#1f77b4;stroke:#ffffff;stroke-width:0.75;" x="351.879716" xlink:href="#m8305dd84a7" y="101.855075"/>
     <use style="fill:#1f77b4;stroke:#ffffff;stroke-width:0.75;" x="358.714548" xlink:href="#m8305dd84a7" y="101.468155"/>
     <use style="fill:#1f77b4;stroke:#ffffff;stroke-width:0.75;" x="365.549381" xlink:href="#m8305dd84a7" y="100.604335"/>
     <use style="fill:#1f77b4;stroke:#ffffff;stroke-width:0.75;" x="372.384214" xlink:href="#m8305dd84a7" y="99.8125"/>
     <use style="fill:#1f77b4;stroke:#ffffff;stroke-width:0.75;" x="379.219046" xlink:href="#m8305dd84a7" y="99.785506"/>
     <use style="fill:#1f77b4;stroke:#ffffff;stroke-width:0.75;" x="386.053879" xlink:href="#m8305dd84a7" y="99.695525"/>
     <use style="fill:#1f77b4;stroke:#ffffff;stroke-width:0.75;" x="392.888711" xlink:href="#m8305dd84a7" y="99.641536"/>
     <use style="fill:#1f77b4;stroke:#ffffff;stroke-width:0.75;" x="399.723544" xlink:href="#m8305dd84a7" y="99.074654"/>
     <use style="fill:#1f77b4;stroke:#ffffff;stroke-width:0.75;" x="406.558376" xlink:href="#m8305dd84a7" y="98.786714"/>
     <use style="fill:#1f77b4;stroke:#ffffff;stroke-width:0.75;" x="413.393209" xlink:href="#m8305dd84a7" y="98.66074"/>
     <use style="fill:#1f77b4;stroke:#ffffff;stroke-width:0.75;" x="420.228041" xlink:href="#m8305dd84a7" y="98.129851"/>
     <use style="fill:#1f77b4;stroke:#ffffff;stroke-width:0.75;" x="427.062874" xlink:href="#m8305dd84a7" y="97.266031"/>
     <use style="fill:#1f77b4;stroke:#ffffff;stroke-width:0.75;" x="433.897706" xlink:href="#m8305dd84a7" y="97.113063"/>
     <use style="fill:#1f77b4;stroke:#ffffff;stroke-width:0.75;" x="440.732539" xlink:href="#m8305dd84a7" y="96.519186"/>
     <use style="fill:#1f77b4;stroke:#ffffff;stroke-width:0.75;" x="447.567371" xlink:href="#m8305dd84a7" y="96.35722"/>
     <use style="fill:#1f77b4;stroke:#ffffff;stroke-width:0.75;" x="454.402204" xlink:href="#m8305dd84a7" y="96.258241"/>
     <use style="fill:#1f77b4;stroke:#ffffff;stroke-width:0.75;" x="461.237036" xlink:href="#m8305dd84a7" y="95.88032"/>
     <use style="fill:#1f77b4;stroke:#ffffff;stroke-width:0.75;" x="468.071869" xlink:href="#m8305dd84a7" y="95.745348"/>
     <use style="fill:#1f77b4;stroke:#ffffff;stroke-width:0.75;" x="474.906702" xlink:href="#m8305dd84a7" y="95.547389"/>
     <use style="fill:#1f77b4;stroke:#ffffff;stroke-width:0.75;" x="481.741534" xlink:href="#m8305dd84a7" y="94.845535"/>
     <use style="fill:#1f77b4;stroke:#ffffff;stroke-width:0.75;" x="488.576367" xlink:href="#m8305dd84a7" y="94.458616"/>
     <use style="fill:#1f77b4;stroke:#ffffff;stroke-width:0.75;" x="495.411199" xlink:href="#m8305dd84a7" y="94.413625"/>
     <use style="fill:#1f77b4;stroke:#ffffff;stroke-width:0.75;" x="502.246032" xlink:href="#m8305dd84a7" y="94.296649"/>
     <use style="fill:#1f77b4;stroke:#ffffff;stroke-width:0.75;" x="509.080864" xlink:href="#m8305dd84a7" y="94.19767"/>
     <use style="fill:#1f77b4;stroke:#ffffff;stroke-width:0.75;" x="515.915697" xlink:href="#m8305dd84a7" y="93.990713"/>
     <use style="fill:#1f77b4;stroke:#ffffff;stroke-width:0.75;" x="522.750529" xlink:href="#m8305dd84a7" y="93.531809"/>
     <use style="fill:#1f77b4;stroke:#ffffff;stroke-width:0.75;" x="529.585362" xlink:href="#m8305dd84a7" y="92.75797"/>
     <use style="fill:#1f77b4;stroke:#ffffff;stroke-width:0.75;" x="536.420194" xlink:href="#m8305dd84a7" y="92.542015"/>
     <use style="fill:#1f77b4;stroke:#ffffff;stroke-width:0.75;" x="543.255027" xlink:href="#m8305dd84a7" y="90.994337"/>
     <use style="fill:#1f77b4;stroke:#ffffff;stroke-width:0.75;" x="550.089859" xlink:href="#m8305dd84a7" y="90.517437"/>
     <use style="fill:#1f77b4;stroke:#ffffff;stroke-width:0.75;" x="556.924692" xlink:href="#m8305dd84a7" y="88.834787"/>
     <use style="fill:#1f77b4;stroke:#ffffff;stroke-width:0.75;" x="563.759525" xlink:href="#m8305dd84a7" y="88.105939"/>
     <use style="fill:#1f77b4;stroke:#ffffff;stroke-width:0.75;" x="570.594357" xlink:href="#m8305dd84a7" y="87.943973"/>
     <use style="fill:#1f77b4;stroke:#ffffff;stroke-width:0.75;" x="577.42919" xlink:href="#m8305dd84a7" y="86.90019"/>
     <use style="fill:#1f77b4;stroke:#ffffff;stroke-width:0.75;" x="584.264022" xlink:href="#m8305dd84a7" y="86.513271"/>
     <use style="fill:#1f77b4;stroke:#ffffff;stroke-width:0.75;" x="591.098855" xlink:href="#m8305dd84a7" y="86.315312"/>
     <use style="fill:#1f77b4;stroke:#ffffff;stroke-width:0.75;" x="597.933687" xlink:href="#m8305dd84a7" y="86.072363"/>
     <use style="fill:#1f77b4;stroke:#ffffff;stroke-width:0.75;" x="604.76852" xlink:href="#m8305dd84a7" y="85.433496"/>
     <use style="fill:#1f77b4;stroke:#ffffff;stroke-width:0.75;" x="611.603352" xlink:href="#m8305dd84a7" y="85.262532"/>
     <use style="fill:#1f77b4;stroke:#ffffff;stroke-width:0.75;" x="618.438185" xlink:href="#m8305dd84a7" y="85.190547"/>
     <use style="fill:#1f77b4;stroke:#ffffff;stroke-width:0.75;" x="625.273017" xlink:href="#m8305dd84a7" y="85.136558"/>
     <use style="fill:#1f77b4;stroke:#ffffff;stroke-width:0.75;" x="632.10785" xlink:href="#m8305dd84a7" y="85.136558"/>
     <use style="fill:#1f77b4;stroke:#ffffff;stroke-width:0.75;" x="638.942682" xlink:href="#m8305dd84a7" y="85.019582"/>
     <use style="fill:#1f77b4;stroke:#ffffff;stroke-width:0.75;" x="645.777515" xlink:href="#m8305dd84a7" y="84.88461"/>
     <use style="fill:#1f77b4;stroke:#ffffff;stroke-width:0.75;" x="652.612347" xlink:href="#m8305dd84a7" y="84.704648"/>
     <use style="fill:#1f77b4;stroke:#ffffff;stroke-width:0.75;" x="659.44718" xlink:href="#m8305dd84a7" y="84.686652"/>
     <use style="fill:#1f77b4;stroke:#ffffff;stroke-width:0.75;" x="666.282013" xlink:href="#m8305dd84a7" y="84.650659"/>
     <use style="fill:#1f77b4;stroke:#ffffff;stroke-width:0.75;" x="673.116845" xlink:href="#m8305dd84a7" y="84.641661"/>
     <use style="fill:#1f77b4;stroke:#ffffff;stroke-width:0.75;" x="679.951678" xlink:href="#m8305dd84a7" y="84.623665"/>
     <use style="fill:#1f77b4;stroke:#ffffff;stroke-width:0.75;" x="686.78651" xlink:href="#m8305dd84a7" y="84.578674"/>
     <use style="fill:#1f77b4;stroke:#ffffff;stroke-width:0.75;" x="693.621343" xlink:href="#m8305dd84a7" y="84.578674"/>
     <use style="fill:#1f77b4;stroke:#ffffff;stroke-width:0.75;" x="700.456175" xlink:href="#m8305dd84a7" y="84.443702"/>
     <use style="fill:#1f77b4;stroke:#ffffff;stroke-width:0.75;" x="707.291008" xlink:href="#m8305dd84a7" y="84.40771"/>
     <use style="fill:#1f77b4;stroke:#ffffff;stroke-width:0.75;" x="714.12584" xlink:href="#m8305dd84a7" y="84.299732"/>
     <use style="fill:#1f77b4;stroke:#ffffff;stroke-width:0.75;" x="720.960673" xlink:href="#m8305dd84a7" y="83.696858"/>
     <use style="fill:#1f77b4;stroke:#ffffff;stroke-width:0.75;" x="727.795505" xlink:href="#m8305dd84a7" y="83.678862"/>
     <use style="fill:#1f77b4;stroke:#ffffff;stroke-width:0.75;" x="734.630338" xlink:href="#m8305dd84a7" y="83.489901"/>
     <use style="fill:#1f77b4;stroke:#ffffff;stroke-width:0.75;" x="741.46517" xlink:href="#m8305dd84a7" y="83.417916"/>
    </g>
   </g>
   <g id="line2d_22"/>
   <g id="line2d_23"/>
   <g id="line2d_24"/>
   <g id="line2d_25">
    <path clip-path="url(#p18412ff032)" d="M 741.46517 288.430125 
L 741.46517 22.318125 
" style="fill:none;stroke:#ff0000;stroke-linecap:square;stroke-width:1.5;"/>
   </g>
   <g id="patch_3">
    <path d="M 59.690625 256.7758 
L 59.690625 40.82079 
" style="fill:none;stroke:#000000;stroke-linecap:square;stroke-linejoin:miter;stroke-width:0.8;"/>
   </g>
   <g id="patch_4">
    <path d="M 92.15608 288.430125 
L 693.621343 288.430125 
" style="fill:none;stroke:#000000;stroke-linecap:square;stroke-linejoin:miter;stroke-width:0.8;"/>
   </g>
   <g id="text_22">
    <!-- freetype2-2017 (24h, 4 trials/fuzzer) -->
    <g transform="translate(307.414688 16.318125)scale(0.12 -0.12)">
     <defs>
      <path d="M 37.109375 75.984375 
L 37.109375 68.5 
L 28.515625 68.5 
Q 23.6875 68.5 21.796875 66.546875 
Q 19.921875 64.59375 19.921875 59.515625 
L 19.921875 54.6875 
L 34.71875 54.6875 
L 34.71875 47.703125 
L 19.921875 47.703125 
L 19.921875 0 
L 10.890625 0 
L 10.890625 47.703125 
L 2.296875 47.703125 
L 2.296875 54.6875 
L 10.890625 54.6875 
L 10.890625 58.5 
Q 10.890625 67.625 15.140625 71.796875 
Q 19.390625 75.984375 28.609375 75.984375 
z
" id="DejaVuSans-102"/>
      <path d="M 32.171875 -5.078125 
Q 28.375 -14.84375 24.75 -17.8125 
Q 21.140625 -20.796875 15.09375 -20.796875 
L 7.90625 -20.796875 
L 7.90625 -13.28125 
L 13.1875 -13.28125 
Q 16.890625 -13.28125 18.9375 -11.515625 
Q 21 -9.765625 23.484375 -3.21875 
L 25.09375 0.875 
L 2.984375 54.6875 
L 12.5 54.6875 
L 29.59375 11.921875 
L 46.6875 54.6875 
L 56.203125 54.6875 
z
" id="DejaVuSans-121"/>
      <path d="M 18.109375 8.203125 
L 18.109375 -20.796875 
L 9.078125 -20.796875 
L 9.078125 54.6875 
L 18.109375 54.6875 
L 18.109375 46.390625 
Q 20.953125 51.265625 25.265625 53.625 
Q 29.59375 56 35.59375 56 
Q 45.5625 56 51.78125 48.09375 
Q 58.015625 40.1875 58.015625 27.296875 
Q 58.015625 14.40625 51.78125 6.484375 
Q 45.5625 -1.421875 35.59375 -1.421875 
Q 29.59375 -1.421875 25.265625 0.953125 
Q 20.953125 3.328125 18.109375 8.203125 
z
M 48.6875 27.296875 
Q 48.6875 37.203125 44.609375 42.84375 
Q 40.53125 48.484375 33.40625 48.484375 
Q 26.265625 48.484375 22.1875 42.84375 
Q 18.109375 37.203125 18.109375 27.296875 
Q 18.109375 17.390625 22.1875 11.75 
Q 26.265625 6.109375 33.40625 6.109375 
Q 40.53125 6.109375 44.609375 11.75 
Q 48.6875 17.390625 48.6875 27.296875 
z
" id="DejaVuSans-112"/>
      <path d="M 4.890625 31.390625 
L 31.203125 31.390625 
L 31.203125 23.390625 
L 4.890625 23.390625 
z
" id="DejaVuSans-45"/>
      <path d="M 11.71875 12.40625 
L 22.015625 12.40625 
L 22.015625 4 
L 14.015625 -11.625 
L 7.71875 -11.625 
L 11.71875 4 
z
" id="DejaVuSans-44"/>
      <path d="M 9.421875 75.984375 
L 18.40625 75.984375 
L 18.40625 0 
L 9.421875 0 
z
" id="DejaVuSans-108"/>
      <path d="M 44.28125 53.078125 
L 44.28125 44.578125 
Q 40.484375 46.53125 36.375 47.5 
Q 32.28125 48.484375 27.875 48.484375 
Q 21.1875 48.484375 17.84375 46.4375 
Q 14.5 44.390625 14.5 40.28125 
Q 14.5 37.15625 16.890625 35.375 
Q 19.28125 33.59375 26.515625 31.984375 
L 29.59375 31.296875 
Q 39.15625 29.25 43.1875 25.515625 
Q 47.21875 21.78125 47.21875 15.09375 
Q 47.21875 7.46875 41.1875 3.015625 
Q 35.15625 -1.421875 24.609375 -1.421875 
Q 20.21875 -1.421875 15.453125 -0.5625 
Q 10.6875 0.296875 5.421875 2 
L 5.421875 11.28125 
Q 10.40625 8.6875 15.234375 7.390625 
Q 20.0625 6.109375 24.8125 6.109375 
Q 31.15625 6.109375 34.5625 8.28125 
Q 37.984375 10.453125 37.984375 14.40625 
Q 37.984375 18.0625 35.515625 20.015625 
Q 33.0625 21.96875 24.703125 23.78125 
L 21.578125 24.515625 
Q 13.234375 26.265625 9.515625 29.90625 
Q 5.8125 33.546875 5.8125 39.890625 
Q 5.8125 47.609375 11.28125 51.796875 
Q 16.75 56 26.8125 56 
Q 31.78125 56 36.171875 55.265625 
Q 40.578125 54.546875 44.28125 53.078125 
z
" id="DejaVuSans-115"/>
      <path d="M 25.390625 72.90625 
L 33.6875 72.90625 
L 8.296875 -9.28125 
L 0 -9.28125 
z
" id="DejaVuSans-47"/>
      <path d="M 5.515625 54.6875 
L 48.1875 54.6875 
L 48.1875 46.484375 
L 14.40625 7.171875 
L 48.1875 7.171875 
L 48.1875 0 
L 4.296875 0 
L 4.296875 8.203125 
L 38.09375 47.515625 
L 5.515625 47.515625 
z
" id="DejaVuSans-122"/>
     </defs>
     <use xlink:href="#DejaVuSans-102"/>
     <use x="35.205078" xlink:href="#DejaVuSans-114"/>
     <use x="74.068359" xlink:href="#DejaVuSans-101"/>
     <use x="135.591797" xlink:href="#DejaVuSans-101"/>
     <use x="197.115234" xlink:href="#DejaVuSans-116"/>
     <use x="236.324219" xlink:href="#DejaVuSans-121"/>
     <use x="295.503906" xlink:href="#DejaVuSans-112"/>
     <use x="358.980469" xlink:href="#DejaVuSans-101"/>
     <use x="420.503906" xlink:href="#DejaVuSans-50"/>
     <use x="484.126953" xlink:href="#DejaVuSans-45"/>
     <use x="520.210938" xlink:href="#DejaVuSans-50"/>
     <use x="583.833984" xlink:href="#DejaVuSans-48"/>
     <use x="647.457031" xlink:href="#DejaVuSans-49"/>
     <use x="711.080078" xlink:href="#DejaVuSans-55"/>
     <use x="774.703125" xlink:href="#DejaVuSans-32"/>
     <use x="806.490234" xlink:href="#DejaVuSans-40"/>
     <use x="845.503906" xlink:href="#DejaVuSans-50"/>
     <use x="909.126953" xlink:href="#DejaVuSans-52"/>
     <use x="972.75" xlink:href="#DejaVuSans-104"/>
     <use x="1036.128906" xlink:href="#DejaVuSans-44"/>
     <use x="1067.916016" xlink:href="#DejaVuSans-32"/>
     <use x="1099.703125" xlink:href="#DejaVuSans-52"/>
     <use x="1163.326172" xlink:href="#DejaVuSans-32"/>
     <use x="1195.113281" xlink:href="#DejaVuSans-116"/>
     <use x="1234.322266" xlink:href="#DejaVuSans-114"/>
     <use x="1275.435547" xlink:href="#DejaVuSans-105"/>
     <use x="1303.21875" xlink:href="#DejaVuSans-97"/>
     <use x="1364.498047" xlink:href="#DejaVuSans-108"/>
     <use x="1392.28125" xlink:href="#DejaVuSans-115"/>
     <use x="1444.380859" xlink:href="#DejaVuSans-47"/>
     <use x="1478.072266" xlink:href="#DejaVuSans-102"/>
     <use x="1513.277344" xlink:href="#DejaVuSans-117"/>
     <use x="1576.65625" xlink:href="#DejaVuSans-122"/>
     <use x="1629.146484" xlink:href="#DejaVuSans-122"/>
     <use x="1681.636719" xlink:href="#DejaVuSans-101"/>
     <use x="1743.160156" xlink:href="#DejaVuSans-114"/>
     <use x="1784.273438" xlink:href="#DejaVuSans-41"/>
    </g>
   </g>
   <g id="legend_1">
    <g id="line2d_26">
     <path d="M 777.930625 30.416562 
L 797.930625 30.416562 
" style="fill:none;"/>
    </g>
    <g id="line2d_27"/>
    <g id="text_23">
     <!-- fuzzer -->
     <g transform="translate(805.930625 33.916562)scale(0.1 -0.1)">
      <use xlink:href="#DejaVuSans-102"/>
      <use x="35.205078" xlink:href="#DejaVuSans-117"/>
      <use x="98.583984" xlink:href="#DejaVuSans-122"/>
      <use x="151.074219" xlink:href="#DejaVuSans-122"/>
      <use x="203.564453" xlink:href="#DejaVuSans-101"/>
      <use x="265.087891" xlink:href="#DejaVuSans-114"/>
     </g>
    </g>
    <g id="line2d_28">
     <path d="M 777.930625 45.094688 
L 797.930625 45.094688 
" style="fill:none;stroke:#98df8a;stroke-linecap:square;stroke-width:1.5;"/>
    </g>
    <g id="line2d_29">
     <defs>
      <path d="M -0 3 
L 3 -3 
L -3 -3 
z
" id="m60b4103cc8" style="stroke:#98df8a;stroke-linejoin:miter;"/>
     </defs>
     <g>
      <use style="fill:#98df8a;stroke:#98df8a;stroke-linejoin:miter;" x="787.930625" xlink:href="#m60b4103cc8" y="45.094688"/>
     </g>
    </g>
    <g id="text_24">
     <!-- dark_instru_cond -->
     <g transform="translate(805.930625 48.594688)scale(0.1 -0.1)">
      <defs>
       <path d="M 9.078125 75.984375 
L 18.109375 75.984375 
L 18.109375 31.109375 
L 44.921875 54.6875 
L 56.390625 54.6875 
L 27.390625 29.109375 
L 57.625 0 
L 45.90625 0 
L 18.109375 26.703125 
L 18.109375 0 
L 9.078125 0 
z
" id="DejaVuSans-107"/>
       <path d="M 50.984375 -16.609375 
L 50.984375 -23.578125 
L -0.984375 -23.578125 
L -0.984375 -16.609375 
z
" id="DejaVuSans-95"/>
      </defs>
      <use xlink:href="#DejaVuSans-100"/>
      <use x="63.476562" xlink:href="#DejaVuSans-97"/>
      <use x="124.755859" xlink:href="#DejaVuSans-114"/>
      <use x="165.869141" xlink:href="#DejaVuSans-107"/>
      <use x="223.779297" xlink:href="#DejaVuSans-95"/>
      <use x="273.779297" xlink:href="#DejaVuSans-105"/>
      <use x="301.5625" xlink:href="#DejaVuSans-110"/>
      <use x="364.941406" xlink:href="#DejaVuSans-115"/>
      <use x="417.041016" xlink:href="#DejaVuSans-116"/>
      <use x="456.25" xlink:href="#DejaVuSans-114"/>
      <use x="497.363281" xlink:href="#DejaVuSans-117"/>
      <use x="560.742188" xlink:href="#DejaVuSans-95"/>
      <use x="610.742188" xlink:href="#DejaVuSans-99"/>
      <use x="665.722656" xlink:href="#DejaVuSans-111"/>
      <use x="726.904297" xlink:href="#DejaVuSans-110"/>
      <use x="790.283203" xlink:href="#DejaVuSans-100"/>
     </g>
    </g>
    <g id="line2d_30">
     <path d="M 777.930625 60.050937 
L 797.930625 60.050937 
" style="fill:none;stroke:#1f77b4;stroke-linecap:square;stroke-width:1.5;"/>
    </g>
    <g id="line2d_31">
     <defs>
      <path d="M 0 3 
C 0.795609 3 1.55874 2.683901 2.12132 2.12132 
C 2.683901 1.55874 3 0.795609 3 0 
C 3 -0.795609 2.683901 -1.55874 2.12132 -2.12132 
C 1.55874 -2.683901 0.795609 -3 0 -3 
C -0.795609 -3 -1.55874 -2.683901 -2.12132 -2.12132 
C -2.683901 -1.55874 -3 -0.795609 -3 0 
C -3 0.795609 -2.683901 1.55874 -2.12132 2.12132 
C -1.55874 2.683901 -0.795609 3 0 3 
z
" id="madabf961dc" style="stroke:#1f77b4;"/>
     </defs>
     <g>
      <use style="fill:#1f77b4;stroke:#1f77b4;" x="787.930625" xlink:href="#madabf961dc" y="60.050937"/>
     </g>
    </g>
    <g id="text_25">
     <!-- afldark_dev -->
     <g transform="translate(805.930625 63.550937)scale(0.1 -0.1)">
      <use xlink:href="#DejaVuSans-97"/>
      <use x="61.279297" xlink:href="#DejaVuSans-102"/>
      <use x="96.484375" xlink:href="#DejaVuSans-108"/>
      <use x="124.267578" xlink:href="#DejaVuSans-100"/>
      <use x="187.744141" xlink:href="#DejaVuSans-97"/>
      <use x="249.023438" xlink:href="#DejaVuSans-114"/>
      <use x="290.136719" xlink:href="#DejaVuSans-107"/>
      <use x="348.046875" xlink:href="#DejaVuSans-95"/>
      <use x="398.046875" xlink:href="#DejaVuSans-100"/>
      <use x="461.523438" xlink:href="#DejaVuSans-101"/>
      <use x="523.046875" xlink:href="#DejaVuSans-118"/>
     </g>
    </g>
   </g>
  </g>
 </g>
 <defs>
  <clipPath id="p18412ff032">
   <rect height="266.112" width="714.24" x="59.690625" y="22.318125"/>
  </clipPath>
 </defs>
</svg>
