<?xml version="1.0" encoding="utf-8" standalone="no"?>
<!DOCTYPE svg PUBLIC "-//W3C//DTD SVG 1.1//EN"
  "http://www.w3.org/Graphics/SVG/1.1/DTD/svg11.dtd">
<!-- Created with matplotlib (https://matplotlib.org/) -->
<svg height="325.986375pt" version="1.1" viewBox="0 0 896.143125 325.986375" width="896.143125pt" xmlns="http://www.w3.org/2000/svg" xmlns:xlink="http://www.w3.org/1999/xlink">
 <metadata>
  <rdf:RDF xmlns:cc="http://creativecommons.org/ns#" xmlns:dc="http://purl.org/dc/elements/1.1/" xmlns:rdf="http://www.w3.org/1999/02/22-rdf-syntax-ns#">
   <cc:Work>
    <dc:type rdf:resource="http://purl.org/dc/dcmitype/StillImage"/>
    <dc:date>2020-12-29T17:06:40.862588</dc:date>
    <dc:format>image/svg+xml</dc:format>
    <dc:creator>
     <cc:Agent>
      <dc:title>Matplotlib v3.3.2, https://matplotlib.org/</dc:title>
     </cc:Agent>
    </dc:creator>
   </cc:Work>
  </rdf:RDF>
 </metadata>
 <defs>
  <style type="text/css">*{stroke-linecap:butt;stroke-linejoin:round;}</style>
 </defs>
 <g id="figure_1">
  <g id="patch_1">
   <path d="M 0 325.986375 
L 896.143125 325.986375 
L 896.143125 0 
L 0 0 
z
" style="fill:#ffffff;"/>
  </g>
  <g id="axes_1">
   <g id="patch_2">
    <path d="M 53.328125 288.430125 
L 767.568125 288.430125 
L 767.568125 22.318125 
L 53.328125 22.318125 
z
" style="fill:#ffffff;"/>
   </g>
   <g id="PolyCollection_1">
    <defs>
     <path d="M 85.79358 -84.553734 
L 85.79358 -73.678796 
L 186.061618 -76.615497 
L 244.714661 -107.595433 
L 286.329657 -121.450184 
L 318.608756 -132.866974 
L 344.9827 -134.769772 
L 367.281552 -136.315796 
L 386.597696 -137.980745 
L 403.635743 -142.737741 
L 418.876795 -149.338072 
L 432.664003 -150.557053 
L 445.250739 -159.506151 
L 456.829413 -164.917234 
L 467.549591 -166.582183 
L 477.529837 -167.652507 
L 486.865735 -171.993265 
L 495.635462 -181.507257 
L 503.903781 -186.561565 
L 511.72494 -188.553557 
L 519.144833 -183.885755 
L 526.202633 -189.861731 
L 532.932042 -190.159043 
L 539.362265 -190.486087 
L 545.518777 -191.169905 
L 551.423932 -191.169905 
L 557.097452 -192.061842 
L 562.556824 -192.597004 
L 567.817629 -193.310553 
L 572.893806 -194.648458 
L 577.797876 -195.332277 
L 582.541127 -196.580988 
L 587.133774 -196.580988 
L 591.585085 -196.580988 
L 595.903501 -208.205897 
L 600.096728 -210.406007 
L 604.17182 -212.606118 
L 608.135252 -214.211604 
L 611.992979 -215.103541 
L 615.750494 -215.222466 
L 619.412872 -221.466023 
L 622.984812 -226.966299 
L 626.470672 -227.293343 
L 629.874505 -225.836513 
L 633.200081 -228.363667 
L 636.450919 -228.423129 
L 639.630304 -228.542054 
L 642.74131 -228.631248 
L 645.786816 -226.223019 
L 648.769524 -228.898829 
L 651.691971 -229.850228 
L 654.556544 -230.177272 
L 657.36549 -230.177272 
L 660.12093 -230.177272 
L 662.824863 -230.236734 
L 665.47918 -229.16641 
L 668.085668 -230.236734 
L 670.646022 -230.236734 
L 673.161845 -230.236734 
L 675.634661 -230.236734 
L 678.065915 -230.236734 
L 680.456981 -230.415121 
L 682.809166 -230.415121 
L 685.123715 -230.415121 
L 687.401812 -230.415121 
L 689.644589 -231.158402 
L 691.853124 -237.361822 
L 694.028446 -231.158402 
L 696.17154 -231.158402 
L 698.283347 -231.158402 
L 700.364767 -231.158402 
L 702.416662 -237.610078 
L 704.439859 -231.396252 
L 706.435149 -231.485445 
L 708.403291 -231.663833 
L 710.345014 -231.663833 
L 712.261018 -231.663833 
L 714.151976 -231.663833 
L 716.018533 -231.663833 
L 717.861312 -247.540307 
L 719.680911 -267.371033 
L 721.477906 -266.984527 
L 723.252851 -267.430496 
L 725.006281 -267.162915 
L 726.738711 -267.668346 
L 728.450639 -267.668346 
L 730.142543 -267.727808 
L 731.814888 -267.727808 
L 733.46812 -267.727808 
L 735.10267 -267.727808 
L 735.10267 -286.934179 
L 735.10267 -286.934179 
L 733.46812 -286.934179 
L 731.814888 -286.934179 
L 730.142543 -286.934179 
L 728.450639 -286.696329 
L 726.738711 -286.696329 
L 725.006281 -286.696329 
L 723.252851 -286.517942 
L 721.477906 -286.517942 
L 719.680911 -286.517942 
L 717.861312 -286.101705 
L 716.018533 -286.101705 
L 714.151976 -286.101705 
L 712.261018 -286.101705 
L 710.345014 -286.042242 
L 708.403291 -286.042242 
L 706.435149 -286.042242 
L 704.439859 -280.214922 
L 702.416662 -285.893586 
L 700.364767 -285.893586 
L 698.283347 -286.190898 
L 696.17154 -285.061112 
L 694.028446 -284.377294 
L 691.853124 -284.377294 
L 689.644589 -278.371586 
L 687.401812 -279.204061 
L 685.123715 -278.193199 
L 682.809166 -278.193199 
L 680.456981 -278.193199 
L 678.065915 -279.204061 
L 675.634661 -278.193199 
L 673.161845 -277.033681 
L 670.646022 -278.044543 
L 668.085668 -277.033681 
L 665.47918 -276.974219 
L 662.824863 -271.890179 
L 660.12093 -271.711792 
L 657.36549 -271.711792 
L 654.556544 -271.711792 
L 651.691971 -271.444211 
L 648.769524 -268.946788 
L 645.786816 -268.857595 
L 642.74131 -267.222377 
L 639.630304 -258.957097 
L 636.450919 -258.689516 
L 633.200081 -258.570591 
L 629.874505 -258.035429 
L 626.470672 -255.954243 
L 622.984812 -255.240694 
L 619.412872 -250.305311 
L 615.750494 -249.472836 
L 611.992979 -248.997137 
L 608.135252 -248.997137 
L 604.17182 -248.640362 
L 600.096728 -251.910797 
L 595.903501 -248.580899 
L 591.585085 -248.164662 
L 587.133774 -248.164662 
L 582.541127 -247.926813 
L 577.797876 -245.19154 
L 572.893806 -243.169817 
L 567.817629 -242.842773 
L 562.556824 -242.604923 
L 557.097452 -242.337342 
L 551.423932 -241.683255 
L 545.518777 -241.207556 
L 539.362265 -239.691263 
L 532.932042 -236.361366 
L 526.202633 -235.915398 
L 519.144833 -233.745018 
L 511.72494 -233.745018 
L 503.903781 -219.860537 
L 495.635462 -215.936015 
L 486.865735 -215.014347 
L 477.529837 -209.454608 
L 467.549591 -207.135573 
L 456.829413 -207.135573 
L 445.250739 -204.578687 
L 432.664003 -203.746213 
L 418.876795 -198.81083 
L 403.635743 -191.913186 
L 386.597696 -185.823488 
L 367.281552 -171.13106 
L 344.9827 -165.036159 
L 318.608756 -157.484428 
L 286.329657 -127.872128 
L 244.714661 -117.845273 
L 186.061618 -97.486817 
L 85.79358 -84.553734 
z
" id="mce28bd7f6a" style="stroke:#98df8a;stroke-opacity:0.2;"/>
    </defs>
    <g clip-path="url(#p2e9d641d9a)">
     <use style="fill:#98df8a;fill-opacity:0.2;stroke:#98df8a;stroke-opacity:0.2;" x="0" xlink:href="#mce28bd7f6a" y="325.986375"/>
    </g>
   </g>
   <g id="PolyCollection_2">
    <defs>
     <path d="M 85.79358 -81.366547 
L 85.79358 -49.65225 
L 186.061618 -76.34197 
L 244.714661 -98.291939 
L 286.329657 -111.091825 
L 318.608756 -116.630158 
L 344.9827 -122.86539 
L 367.281552 -126.766127 
L 386.597696 -129.525184 
L 403.635743 -132.070177 
L 418.876795 -133.663771 
L 432.664003 -134.28218 
L 445.250739 -138.057451 
L 456.829413 -139.91922 
L 467.549591 -147.030929 
L 477.529837 -148.196393 
L 486.865735 -150.408396 
L 495.635462 -152.501475 
L 503.903781 -154.761048 
L 511.72494 -159.993743 
L 519.144833 -161.634907 
L 526.202633 -164.489104 
L 532.932042 -166.510828 
L 539.362265 -173.637402 
L 545.518777 -173.527397 
L 551.423932 -174.954495 
L 557.097452 -175.049635 
L 562.556824 -176.262669 
L 567.817629 -181.271786 
L 572.893806 -178.522242 
L 577.797876 -182.716723 
L 582.541127 -186.44264 
L 587.133774 -188.464364 
L 591.585085 -187.845954 
L 595.903501 -190.057957 
L 600.096728 -188.297869 
L 604.17182 -188.451282 
L 608.135252 -197.846349 
L 611.992979 -189.130343 
L 615.750494 -190.985572 
L 619.412872 -193.649489 
L 622.984812 -198.33513 
L 626.470672 -199.524379 
L 629.874505 -202.473717 
L 633.200081 -202.687781 
L 636.450919 -204.844484 
L 639.630304 -205.423054 
L 642.74131 -205.208989 
L 645.786816 -206.065249 
L 648.769524 -206.065249 
L 651.691971 -207.920477 
L 654.556544 -208.419962 
L 657.36549 -208.277252 
L 660.12093 -208.729166 
L 662.824863 -207.777767 
L 665.47918 -209.171567 
L 668.085668 -208.800521 
L 670.646022 -211.321729 
L 673.161845 -207.777767 
L 675.634661 -209.228651 
L 678.065915 -208.634026 
L 680.456981 -209.276221 
L 682.809166 -219.979462 
L 685.123715 -222.334175 
L 687.401812 -224.641318 
L 689.644589 -224.784027 
L 691.853124 -227.23388 
L 694.028446 -227.42416 
L 696.17154 -227.495515 
L 698.283347 -227.590655 
L 700.364767 -227.28145 
L 702.416662 -249.044707 
L 704.439859 -250.44802 
L 706.435149 -250.35288 
L 708.403291 -250.40045 
L 710.345014 -250.87615 
L 712.261018 -250.563972 
L 714.151976 -250.92372 
L 716.018533 -250.6383 
L 717.861312 -250.986156 
L 719.680911 -258.332741 
L 721.477906 -253.483578 
L 723.252851 -253.135723 
L 725.006281 -253.492498 
L 726.738711 -253.302218 
L 728.450639 -253.492498 
L 730.142543 -253.468713 
L 731.814888 -254.158477 
L 733.46812 -254.229832 
L 735.10267 -254.039552 
L 735.10267 -291.23926 
L 735.10267 -291.23926 
L 733.46812 -291.053737 
L 731.814888 -291.23926 
L 730.142543 -291.57225 
L 728.450639 -291.38197 
L 726.738711 -291.19169 
L 725.006281 -291.38197 
L 723.252851 -291.3344 
L 721.477906 -290.583389 
L 719.680911 -290.442463 
L 717.861312 -291.263045 
L 716.018533 -291.263045 
L 714.151976 -290.906271 
L 712.261018 -291.263045 
L 710.345014 -290.430571 
L 708.403291 -291.28683 
L 706.435149 -291.28683 
L 704.439859 -290.787346 
L 702.416662 -291.14412 
L 700.364767 -290.240291 
L 698.283347 -290.644636 
L 696.17154 -289.788377 
L 694.028446 -289.740807 
L 691.853124 -289.645667 
L 689.644589 -288.958281 
L 687.401812 -288.863141 
L 685.123715 -288.884547 
L 682.809166 -288.884547 
L 680.456981 -288.218568 
L 678.065915 -287.195814 
L 675.634661 -286.794442 
L 673.161845 -283.984842 
L 670.646022 -283.342647 
L 668.085668 -282.852677 
L 665.47918 -283.842132 
L 662.824863 -281.822192 
L 660.12093 -278.157522 
L 657.36549 -277.776962 
L 654.556544 -277.705607 
L 651.691971 -277.000977 
L 648.769524 -270.427403 
L 645.786816 -270.070628 
L 642.74131 -269.720989 
L 639.630304 -269.761424 
L 636.450919 -269.713854 
L 633.200081 -267.668346 
L 629.874505 -268.2154 
L 626.470672 -268.216589 
L 622.984812 -267.049936 
L 619.412872 -266.098537 
L 615.750494 -265.908257 
L 611.992979 -265.908257 
L 608.135252 -265.860687 
L 604.17182 -265.575267 
L 600.096728 -265.218493 
L 595.903501 -264.457373 
L 591.585085 -261.698316 
L 587.133774 -258.415989 
L 582.541127 -255.228801 
L 577.797876 -248.768206 
L 572.893806 -250.40045 
L 567.817629 -241.331238 
L 562.556824 -240.981599 
L 557.097452 -237.746841 
L 551.423932 -237.912147 
L 545.518777 -236.034323 
L 539.362265 -235.130494 
L 532.932042 -232.91849 
L 526.202633 -228.470699 
L 519.144833 -223.975338 
L 511.72494 -218.647503 
L 503.903781 -217.291759 
L 495.635462 -211.886028 
L 486.865735 -212.158366 
L 477.529837 -187.15619 
L 467.549591 -185.547136 
L 456.829413 -172.480857 
L 445.250739 -172.100298 
L 432.664003 -170.649414 
L 418.876795 -169.57909 
L 403.635743 -166.629752 
L 386.597696 -164.869664 
L 367.281552 -164.08476 
L 344.9827 -160.517013 
L 318.608756 -155.199286 
L 286.329657 -146.757402 
L 244.714661 -137.754787 
L 186.061618 -115.396907 
L 85.79358 -81.366547 
z
" id="m168a3836e1" style="stroke:#1f77b4;stroke-opacity:0.2;"/>
    </defs>
    <g clip-path="url(#p2e9d641d9a)">
     <use style="fill:#1f77b4;fill-opacity:0.2;stroke:#1f77b4;stroke-opacity:0.2;" x="0" xlink:href="#m168a3836e1" y="325.986375"/>
    </g>
   </g>
   <g id="matplotlib.axis_1">
    <g id="xtick_1">
     <g id="line2d_1">
      <defs>
       <path d="M 0 0 
L 0 3.5 
" id="m781c93db51" style="stroke:#000000;stroke-width:0.8;"/>
      </defs>
      <g>
       <use style="stroke:#000000;stroke-width:0.8;" x="85.79358" xlink:href="#m781c93db51" y="288.430125"/>
      </g>
     </g>
     <g id="text_1">
      <!-- 14m -->
      <g transform="translate(74.560767 303.028562)scale(0.1 -0.1)">
       <defs>
        <path d="M 12.40625 8.296875 
L 28.515625 8.296875 
L 28.515625 63.921875 
L 10.984375 60.40625 
L 10.984375 69.390625 
L 28.421875 72.90625 
L 38.28125 72.90625 
L 38.28125 8.296875 
L 54.390625 8.296875 
L 54.390625 0 
L 12.40625 0 
z
" id="DejaVuSans-49"/>
        <path d="M 37.796875 64.3125 
L 12.890625 25.390625 
L 37.796875 25.390625 
z
M 35.203125 72.90625 
L 47.609375 72.90625 
L 47.609375 25.390625 
L 58.015625 25.390625 
L 58.015625 17.1875 
L 47.609375 17.1875 
L 47.609375 0 
L 37.796875 0 
L 37.796875 17.1875 
L 4.890625 17.1875 
L 4.890625 26.703125 
z
" id="DejaVuSans-52"/>
        <path d="M 52 44.1875 
Q 55.375 50.25 60.0625 53.125 
Q 64.75 56 71.09375 56 
Q 79.640625 56 84.28125 50.015625 
Q 88.921875 44.046875 88.921875 33.015625 
L 88.921875 0 
L 79.890625 0 
L 79.890625 32.71875 
Q 79.890625 40.578125 77.09375 44.375 
Q 74.3125 48.1875 68.609375 48.1875 
Q 61.625 48.1875 57.5625 43.546875 
Q 53.515625 38.921875 53.515625 30.90625 
L 53.515625 0 
L 44.484375 0 
L 44.484375 32.71875 
Q 44.484375 40.625 41.703125 44.40625 
Q 38.921875 48.1875 33.109375 48.1875 
Q 26.21875 48.1875 22.15625 43.53125 
Q 18.109375 38.875 18.109375 30.90625 
L 18.109375 0 
L 9.078125 0 
L 9.078125 54.6875 
L 18.109375 54.6875 
L 18.109375 46.1875 
Q 21.1875 51.21875 25.484375 53.609375 
Q 29.78125 56 35.6875 56 
Q 41.65625 56 45.828125 52.96875 
Q 50 49.953125 52 44.1875 
z
" id="DejaVuSans-109"/>
       </defs>
       <use xlink:href="#DejaVuSans-49"/>
       <use x="63.623047" xlink:href="#DejaVuSans-52"/>
       <use x="127.246094" xlink:href="#DejaVuSans-109"/>
      </g>
     </g>
    </g>
    <g id="xtick_2">
     <g id="line2d_2">
      <g>
       <use style="stroke:#000000;stroke-width:0.8;" x="144.821843" xlink:href="#m781c93db51" y="288.430125"/>
      </g>
     </g>
     <g id="text_2">
      <!-- 22m -->
      <g transform="translate(133.58903 303.028562)scale(0.1 -0.1)">
       <defs>
        <path d="M 19.1875 8.296875 
L 53.609375 8.296875 
L 53.609375 0 
L 7.328125 0 
L 7.328125 8.296875 
Q 12.9375 14.109375 22.625 23.890625 
Q 32.328125 33.6875 34.8125 36.53125 
Q 39.546875 41.84375 41.421875 45.53125 
Q 43.3125 49.21875 43.3125 52.78125 
Q 43.3125 58.59375 39.234375 62.25 
Q 35.15625 65.921875 28.609375 65.921875 
Q 23.96875 65.921875 18.8125 64.3125 
Q 13.671875 62.703125 7.8125 59.421875 
L 7.8125 69.390625 
Q 13.765625 71.78125 18.9375 73 
Q 24.125 74.21875 28.421875 74.21875 
Q 39.75 74.21875 46.484375 68.546875 
Q 53.21875 62.890625 53.21875 53.421875 
Q 53.21875 48.921875 51.53125 44.890625 
Q 49.859375 40.875 45.40625 35.40625 
Q 44.1875 33.984375 37.640625 27.21875 
Q 31.109375 20.453125 19.1875 8.296875 
z
" id="DejaVuSans-50"/>
       </defs>
       <use xlink:href="#DejaVuSans-50"/>
       <use x="63.623047" xlink:href="#DejaVuSans-50"/>
       <use x="127.246094" xlink:href="#DejaVuSans-109"/>
      </g>
     </g>
    </g>
    <g id="xtick_3">
     <g id="line2d_3">
      <g>
       <use style="stroke:#000000;stroke-width:0.8;" x="203.850106" xlink:href="#m781c93db51" y="288.430125"/>
      </g>
     </g>
     <g id="text_3">
      <!-- 33m -->
      <g transform="translate(192.617294 303.028562)scale(0.1 -0.1)">
       <defs>
        <path d="M 40.578125 39.3125 
Q 47.65625 37.796875 51.625 33 
Q 55.609375 28.21875 55.609375 21.1875 
Q 55.609375 10.40625 48.1875 4.484375 
Q 40.765625 -1.421875 27.09375 -1.421875 
Q 22.515625 -1.421875 17.65625 -0.515625 
Q 12.796875 0.390625 7.625 2.203125 
L 7.625 11.71875 
Q 11.71875 9.328125 16.59375 8.109375 
Q 21.484375 6.890625 26.8125 6.890625 
Q 36.078125 6.890625 40.9375 10.546875 
Q 45.796875 14.203125 45.796875 21.1875 
Q 45.796875 27.640625 41.28125 31.265625 
Q 36.765625 34.90625 28.71875 34.90625 
L 20.21875 34.90625 
L 20.21875 43.015625 
L 29.109375 43.015625 
Q 36.375 43.015625 40.234375 45.921875 
Q 44.09375 48.828125 44.09375 54.296875 
Q 44.09375 59.90625 40.109375 62.90625 
Q 36.140625 65.921875 28.71875 65.921875 
Q 24.65625 65.921875 20.015625 65.03125 
Q 15.375 64.15625 9.8125 62.3125 
L 9.8125 71.09375 
Q 15.4375 72.65625 20.34375 73.4375 
Q 25.25 74.21875 29.59375 74.21875 
Q 40.828125 74.21875 47.359375 69.109375 
Q 53.90625 64.015625 53.90625 55.328125 
Q 53.90625 49.265625 50.4375 45.09375 
Q 46.96875 40.921875 40.578125 39.3125 
z
" id="DejaVuSans-51"/>
       </defs>
       <use xlink:href="#DejaVuSans-51"/>
       <use x="63.623047" xlink:href="#DejaVuSans-51"/>
       <use x="127.246094" xlink:href="#DejaVuSans-109"/>
      </g>
     </g>
    </g>
    <g id="xtick_4">
     <g id="line2d_4">
      <g>
       <use style="stroke:#000000;stroke-width:0.8;" x="262.87837" xlink:href="#m781c93db51" y="288.430125"/>
      </g>
     </g>
     <g id="text_4">
      <!-- 51m -->
      <g transform="translate(251.645557 303.028562)scale(0.1 -0.1)">
       <defs>
        <path d="M 10.796875 72.90625 
L 49.515625 72.90625 
L 49.515625 64.59375 
L 19.828125 64.59375 
L 19.828125 46.734375 
Q 21.96875 47.46875 24.109375 47.828125 
Q 26.265625 48.1875 28.421875 48.1875 
Q 40.625 48.1875 47.75 41.5 
Q 54.890625 34.8125 54.890625 23.390625 
Q 54.890625 11.625 47.5625 5.09375 
Q 40.234375 -1.421875 26.90625 -1.421875 
Q 22.3125 -1.421875 17.546875 -0.640625 
Q 12.796875 0.140625 7.71875 1.703125 
L 7.71875 11.625 
Q 12.109375 9.234375 16.796875 8.0625 
Q 21.484375 6.890625 26.703125 6.890625 
Q 35.15625 6.890625 40.078125 11.328125 
Q 45.015625 15.765625 45.015625 23.390625 
Q 45.015625 31 40.078125 35.4375 
Q 35.15625 39.890625 26.703125 39.890625 
Q 22.75 39.890625 18.8125 39.015625 
Q 14.890625 38.140625 10.796875 36.28125 
z
" id="DejaVuSans-53"/>
       </defs>
       <use xlink:href="#DejaVuSans-53"/>
       <use x="63.623047" xlink:href="#DejaVuSans-49"/>
       <use x="127.246094" xlink:href="#DejaVuSans-109"/>
      </g>
     </g>
    </g>
    <g id="xtick_5">
     <g id="line2d_5">
      <g>
       <use style="stroke:#000000;stroke-width:0.8;" x="321.906633" xlink:href="#m781c93db51" y="288.430125"/>
      </g>
     </g>
     <g id="text_5">
      <!-- 1h:16m -->
      <g transform="translate(302.639445 303.028562)scale(0.1 -0.1)">
       <defs>
        <path d="M 54.890625 33.015625 
L 54.890625 0 
L 45.90625 0 
L 45.90625 32.71875 
Q 45.90625 40.484375 42.875 44.328125 
Q 39.84375 48.1875 33.796875 48.1875 
Q 26.515625 48.1875 22.3125 43.546875 
Q 18.109375 38.921875 18.109375 30.90625 
L 18.109375 0 
L 9.078125 0 
L 9.078125 75.984375 
L 18.109375 75.984375 
L 18.109375 46.1875 
Q 21.34375 51.125 25.703125 53.5625 
Q 30.078125 56 35.796875 56 
Q 45.21875 56 50.046875 50.171875 
Q 54.890625 44.34375 54.890625 33.015625 
z
" id="DejaVuSans-104"/>
        <path d="M 11.71875 12.40625 
L 22.015625 12.40625 
L 22.015625 0 
L 11.71875 0 
z
M 11.71875 51.703125 
L 22.015625 51.703125 
L 22.015625 39.3125 
L 11.71875 39.3125 
z
" id="DejaVuSans-58"/>
        <path d="M 33.015625 40.375 
Q 26.375 40.375 22.484375 35.828125 
Q 18.609375 31.296875 18.609375 23.390625 
Q 18.609375 15.53125 22.484375 10.953125 
Q 26.375 6.390625 33.015625 6.390625 
Q 39.65625 6.390625 43.53125 10.953125 
Q 47.40625 15.53125 47.40625 23.390625 
Q 47.40625 31.296875 43.53125 35.828125 
Q 39.65625 40.375 33.015625 40.375 
z
M 52.59375 71.296875 
L 52.59375 62.3125 
Q 48.875 64.0625 45.09375 64.984375 
Q 41.3125 65.921875 37.59375 65.921875 
Q 27.828125 65.921875 22.671875 59.328125 
Q 17.53125 52.734375 16.796875 39.40625 
Q 19.671875 43.65625 24.015625 45.921875 
Q 28.375 48.1875 33.59375 48.1875 
Q 44.578125 48.1875 50.953125 41.515625 
Q 57.328125 34.859375 57.328125 23.390625 
Q 57.328125 12.15625 50.6875 5.359375 
Q 44.046875 -1.421875 33.015625 -1.421875 
Q 20.359375 -1.421875 13.671875 8.265625 
Q 6.984375 17.96875 6.984375 36.375 
Q 6.984375 53.65625 15.1875 63.9375 
Q 23.390625 74.21875 37.203125 74.21875 
Q 40.921875 74.21875 44.703125 73.484375 
Q 48.484375 72.75 52.59375 71.296875 
z
" id="DejaVuSans-54"/>
       </defs>
       <use xlink:href="#DejaVuSans-49"/>
       <use x="63.623047" xlink:href="#DejaVuSans-104"/>
       <use x="127.001953" xlink:href="#DejaVuSans-58"/>
       <use x="160.693359" xlink:href="#DejaVuSans-49"/>
       <use x="224.316406" xlink:href="#DejaVuSans-54"/>
       <use x="287.939453" xlink:href="#DejaVuSans-109"/>
      </g>
     </g>
    </g>
    <g id="xtick_6">
     <g id="line2d_6">
      <g>
       <use style="stroke:#000000;stroke-width:0.8;" x="380.934896" xlink:href="#m781c93db51" y="288.430125"/>
      </g>
     </g>
     <g id="text_6">
      <!-- 1h:55m -->
      <g transform="translate(361.667709 303.028562)scale(0.1 -0.1)">
       <use xlink:href="#DejaVuSans-49"/>
       <use x="63.623047" xlink:href="#DejaVuSans-104"/>
       <use x="127.001953" xlink:href="#DejaVuSans-58"/>
       <use x="160.693359" xlink:href="#DejaVuSans-53"/>
       <use x="224.316406" xlink:href="#DejaVuSans-53"/>
       <use x="287.939453" xlink:href="#DejaVuSans-109"/>
      </g>
     </g>
    </g>
    <g id="xtick_7">
     <g id="line2d_7">
      <g>
       <use style="stroke:#000000;stroke-width:0.8;" x="439.96316" xlink:href="#m781c93db51" y="288.430125"/>
      </g>
     </g>
     <g id="text_7">
      <!-- 2h:53m -->
      <g transform="translate(420.695972 303.028562)scale(0.1 -0.1)">
       <use xlink:href="#DejaVuSans-50"/>
       <use x="63.623047" xlink:href="#DejaVuSans-104"/>
       <use x="127.001953" xlink:href="#DejaVuSans-58"/>
       <use x="160.693359" xlink:href="#DejaVuSans-53"/>
       <use x="224.316406" xlink:href="#DejaVuSans-51"/>
       <use x="287.939453" xlink:href="#DejaVuSans-109"/>
      </g>
     </g>
    </g>
    <g id="xtick_8">
     <g id="line2d_8">
      <g>
       <use style="stroke:#000000;stroke-width:0.8;" x="498.991423" xlink:href="#m781c93db51" y="288.430125"/>
      </g>
     </g>
     <g id="text_8">
      <!-- 4h:20m -->
      <g transform="translate(479.724235 303.028562)scale(0.1 -0.1)">
       <defs>
        <path d="M 31.78125 66.40625 
Q 24.171875 66.40625 20.328125 58.90625 
Q 16.5 51.421875 16.5 36.375 
Q 16.5 21.390625 20.328125 13.890625 
Q 24.171875 6.390625 31.78125 6.390625 
Q 39.453125 6.390625 43.28125 13.890625 
Q 47.125 21.390625 47.125 36.375 
Q 47.125 51.421875 43.28125 58.90625 
Q 39.453125 66.40625 31.78125 66.40625 
z
M 31.78125 74.21875 
Q 44.046875 74.21875 50.515625 64.515625 
Q 56.984375 54.828125 56.984375 36.375 
Q 56.984375 17.96875 50.515625 8.265625 
Q 44.046875 -1.421875 31.78125 -1.421875 
Q 19.53125 -1.421875 13.0625 8.265625 
Q 6.59375 17.96875 6.59375 36.375 
Q 6.59375 54.828125 13.0625 64.515625 
Q 19.53125 74.21875 31.78125 74.21875 
z
" id="DejaVuSans-48"/>
       </defs>
       <use xlink:href="#DejaVuSans-52"/>
       <use x="63.623047" xlink:href="#DejaVuSans-104"/>
       <use x="127.001953" xlink:href="#DejaVuSans-58"/>
       <use x="160.693359" xlink:href="#DejaVuSans-50"/>
       <use x="224.316406" xlink:href="#DejaVuSans-48"/>
       <use x="287.939453" xlink:href="#DejaVuSans-109"/>
      </g>
     </g>
    </g>
    <g id="xtick_9">
     <g id="line2d_9">
      <g>
       <use style="stroke:#000000;stroke-width:0.8;" x="558.019686" xlink:href="#m781c93db51" y="288.430125"/>
      </g>
     </g>
     <g id="text_9">
      <!-- 6h:32m -->
      <g transform="translate(538.752499 303.028562)scale(0.1 -0.1)">
       <use xlink:href="#DejaVuSans-54"/>
       <use x="63.623047" xlink:href="#DejaVuSans-104"/>
       <use x="127.001953" xlink:href="#DejaVuSans-58"/>
       <use x="160.693359" xlink:href="#DejaVuSans-51"/>
       <use x="224.316406" xlink:href="#DejaVuSans-50"/>
       <use x="287.939453" xlink:href="#DejaVuSans-109"/>
      </g>
     </g>
    </g>
    <g id="xtick_10">
     <g id="line2d_10">
      <g>
       <use style="stroke:#000000;stroke-width:0.8;" x="617.04795" xlink:href="#m781c93db51" y="288.430125"/>
      </g>
     </g>
     <g id="text_10">
      <!-- 9h:50m -->
      <g transform="translate(597.780762 303.028562)scale(0.1 -0.1)">
       <defs>
        <path d="M 10.984375 1.515625 
L 10.984375 10.5 
Q 14.703125 8.734375 18.5 7.8125 
Q 22.3125 6.890625 25.984375 6.890625 
Q 35.75 6.890625 40.890625 13.453125 
Q 46.046875 20.015625 46.78125 33.40625 
Q 43.953125 29.203125 39.59375 26.953125 
Q 35.25 24.703125 29.984375 24.703125 
Q 19.046875 24.703125 12.671875 31.3125 
Q 6.296875 37.9375 6.296875 49.421875 
Q 6.296875 60.640625 12.9375 67.421875 
Q 19.578125 74.21875 30.609375 74.21875 
Q 43.265625 74.21875 49.921875 64.515625 
Q 56.59375 54.828125 56.59375 36.375 
Q 56.59375 19.140625 48.40625 8.859375 
Q 40.234375 -1.421875 26.421875 -1.421875 
Q 22.703125 -1.421875 18.890625 -0.6875 
Q 15.09375 0.046875 10.984375 1.515625 
z
M 30.609375 32.421875 
Q 37.25 32.421875 41.125 36.953125 
Q 45.015625 41.5 45.015625 49.421875 
Q 45.015625 57.28125 41.125 61.84375 
Q 37.25 66.40625 30.609375 66.40625 
Q 23.96875 66.40625 20.09375 61.84375 
Q 16.21875 57.28125 16.21875 49.421875 
Q 16.21875 41.5 20.09375 36.953125 
Q 23.96875 32.421875 30.609375 32.421875 
z
" id="DejaVuSans-57"/>
       </defs>
       <use xlink:href="#DejaVuSans-57"/>
       <use x="63.623047" xlink:href="#DejaVuSans-104"/>
       <use x="127.001953" xlink:href="#DejaVuSans-58"/>
       <use x="160.693359" xlink:href="#DejaVuSans-53"/>
       <use x="224.316406" xlink:href="#DejaVuSans-48"/>
       <use x="287.939453" xlink:href="#DejaVuSans-109"/>
      </g>
     </g>
    </g>
    <g id="xtick_11">
     <g id="line2d_11">
      <g>
       <use style="stroke:#000000;stroke-width:0.8;" x="676.076213" xlink:href="#m781c93db51" y="288.430125"/>
      </g>
     </g>
     <g id="text_11">
      <!-- 14h:47m -->
      <g transform="translate(653.627776 303.028562)scale(0.1 -0.1)">
       <defs>
        <path d="M 8.203125 72.90625 
L 55.078125 72.90625 
L 55.078125 68.703125 
L 28.609375 0 
L 18.3125 0 
L 43.21875 64.59375 
L 8.203125 64.59375 
z
" id="DejaVuSans-55"/>
       </defs>
       <use xlink:href="#DejaVuSans-49"/>
       <use x="63.623047" xlink:href="#DejaVuSans-52"/>
       <use x="127.246094" xlink:href="#DejaVuSans-104"/>
       <use x="190.625" xlink:href="#DejaVuSans-58"/>
       <use x="224.316406" xlink:href="#DejaVuSans-52"/>
       <use x="287.939453" xlink:href="#DejaVuSans-55"/>
       <use x="351.5625" xlink:href="#DejaVuSans-109"/>
      </g>
     </g>
    </g>
    <g id="xtick_12">
     <g id="line2d_12">
      <g>
       <use style="stroke:#000000;stroke-width:0.8;" x="735.104476" xlink:href="#m781c93db51" y="288.430125"/>
      </g>
     </g>
     <g id="text_12">
      <!-- 22h:15m -->
      <g transform="translate(712.656039 303.028562)scale(0.1 -0.1)">
       <use xlink:href="#DejaVuSans-50"/>
       <use x="63.623047" xlink:href="#DejaVuSans-50"/>
       <use x="127.246094" xlink:href="#DejaVuSans-104"/>
       <use x="190.625" xlink:href="#DejaVuSans-58"/>
       <use x="224.316406" xlink:href="#DejaVuSans-49"/>
       <use x="287.939453" xlink:href="#DejaVuSans-53"/>
       <use x="351.5625" xlink:href="#DejaVuSans-109"/>
      </g>
     </g>
    </g>
    <g id="xtick_13">
     <g id="line2d_13">
      <defs>
       <path d="M 0 0 
L 0 2 
" id="m88c8f3874f" style="stroke:#000000;stroke-width:0.6;"/>
      </defs>
      <g>
       <use style="stroke:#000000;stroke-width:0.6;" x="68.755533" xlink:href="#m88c8f3874f" y="288.430125"/>
      </g>
     </g>
    </g>
    <g id="xtick_14">
     <g id="line2d_14">
      <g>
       <use style="stroke:#000000;stroke-width:0.6;" x="201.30267" xlink:href="#m88c8f3874f" y="288.430125"/>
      </g>
     </g>
    </g>
    <g id="xtick_15">
     <g id="line2d_15">
      <g>
       <use style="stroke:#000000;stroke-width:0.6;" x="259.955713" xlink:href="#m88c8f3874f" y="288.430125"/>
      </g>
     </g>
    </g>
    <g id="xtick_16">
     <g id="line2d_16">
      <g>
       <use style="stroke:#000000;stroke-width:0.6;" x="301.570709" xlink:href="#m88c8f3874f" y="288.430125"/>
      </g>
     </g>
    </g>
    <g id="xtick_17">
     <g id="line2d_17">
      <g>
       <use style="stroke:#000000;stroke-width:0.6;" x="333.849808" xlink:href="#m88c8f3874f" y="288.430125"/>
      </g>
     </g>
    </g>
    <g id="xtick_18">
     <g id="line2d_18">
      <g>
       <use style="stroke:#000000;stroke-width:0.6;" x="360.223752" xlink:href="#m88c8f3874f" y="288.430125"/>
      </g>
     </g>
    </g>
    <g id="xtick_19">
     <g id="line2d_19">
      <g>
       <use style="stroke:#000000;stroke-width:0.6;" x="382.522604" xlink:href="#m88c8f3874f" y="288.430125"/>
      </g>
     </g>
    </g>
    <g id="xtick_20">
     <g id="line2d_20">
      <g>
       <use style="stroke:#000000;stroke-width:0.6;" x="401.838748" xlink:href="#m88c8f3874f" y="288.430125"/>
      </g>
     </g>
    </g>
    <g id="xtick_21">
     <g id="line2d_21">
      <g>
       <use style="stroke:#000000;stroke-width:0.6;" x="418.876795" xlink:href="#m88c8f3874f" y="288.430125"/>
      </g>
     </g>
    </g>
    <g id="xtick_22">
     <g id="line2d_22">
      <g>
       <use style="stroke:#000000;stroke-width:0.6;" x="534.385886" xlink:href="#m88c8f3874f" y="288.430125"/>
      </g>
     </g>
    </g>
    <g id="xtick_23">
     <g id="line2d_23">
      <g>
       <use style="stroke:#000000;stroke-width:0.6;" x="593.038928" xlink:href="#m88c8f3874f" y="288.430125"/>
      </g>
     </g>
    </g>
    <g id="xtick_24">
     <g id="line2d_24">
      <g>
       <use style="stroke:#000000;stroke-width:0.6;" x="634.653924" xlink:href="#m88c8f3874f" y="288.430125"/>
      </g>
     </g>
    </g>
    <g id="xtick_25">
     <g id="line2d_25">
      <g>
       <use style="stroke:#000000;stroke-width:0.6;" x="666.933023" xlink:href="#m88c8f3874f" y="288.430125"/>
      </g>
     </g>
    </g>
    <g id="xtick_26">
     <g id="line2d_26">
      <g>
       <use style="stroke:#000000;stroke-width:0.6;" x="693.306967" xlink:href="#m88c8f3874f" y="288.430125"/>
      </g>
     </g>
    </g>
    <g id="xtick_27">
     <g id="line2d_27">
      <g>
       <use style="stroke:#000000;stroke-width:0.6;" x="715.605819" xlink:href="#m88c8f3874f" y="288.430125"/>
      </g>
     </g>
    </g>
    <g id="xtick_28">
     <g id="line2d_28">
      <g>
       <use style="stroke:#000000;stroke-width:0.6;" x="734.921963" xlink:href="#m88c8f3874f" y="288.430125"/>
      </g>
     </g>
    </g>
    <g id="xtick_29">
     <g id="line2d_29">
      <g>
       <use style="stroke:#000000;stroke-width:0.6;" x="751.96001" xlink:href="#m88c8f3874f" y="288.430125"/>
      </g>
     </g>
    </g>
    <g id="text_13">
     <!-- Time (hour:minute) -->
     <g transform="translate(362.041094 316.706687)scale(0.1 -0.1)">
      <defs>
       <path d="M -0.296875 72.90625 
L 61.375 72.90625 
L 61.375 64.59375 
L 35.5 64.59375 
L 35.5 0 
L 25.59375 0 
L 25.59375 64.59375 
L -0.296875 64.59375 
z
" id="DejaVuSans-84"/>
       <path d="M 9.421875 54.6875 
L 18.40625 54.6875 
L 18.40625 0 
L 9.421875 0 
z
M 9.421875 75.984375 
L 18.40625 75.984375 
L 18.40625 64.59375 
L 9.421875 64.59375 
z
" id="DejaVuSans-105"/>
       <path d="M 56.203125 29.59375 
L 56.203125 25.203125 
L 14.890625 25.203125 
Q 15.484375 15.921875 20.484375 11.0625 
Q 25.484375 6.203125 34.421875 6.203125 
Q 39.59375 6.203125 44.453125 7.46875 
Q 49.3125 8.734375 54.109375 11.28125 
L 54.109375 2.78125 
Q 49.265625 0.734375 44.1875 -0.34375 
Q 39.109375 -1.421875 33.890625 -1.421875 
Q 20.796875 -1.421875 13.15625 6.1875 
Q 5.515625 13.8125 5.515625 26.8125 
Q 5.515625 40.234375 12.765625 48.109375 
Q 20.015625 56 32.328125 56 
Q 43.359375 56 49.78125 48.890625 
Q 56.203125 41.796875 56.203125 29.59375 
z
M 47.21875 32.234375 
Q 47.125 39.59375 43.09375 43.984375 
Q 39.0625 48.390625 32.421875 48.390625 
Q 24.90625 48.390625 20.390625 44.140625 
Q 15.875 39.890625 15.1875 32.171875 
z
" id="DejaVuSans-101"/>
       <path id="DejaVuSans-32"/>
       <path d="M 31 75.875 
Q 24.46875 64.65625 21.28125 53.65625 
Q 18.109375 42.671875 18.109375 31.390625 
Q 18.109375 20.125 21.3125 9.0625 
Q 24.515625 -2 31 -13.1875 
L 23.1875 -13.1875 
Q 15.875 -1.703125 12.234375 9.375 
Q 8.59375 20.453125 8.59375 31.390625 
Q 8.59375 42.28125 12.203125 53.3125 
Q 15.828125 64.359375 23.1875 75.875 
z
" id="DejaVuSans-40"/>
       <path d="M 30.609375 48.390625 
Q 23.390625 48.390625 19.1875 42.75 
Q 14.984375 37.109375 14.984375 27.296875 
Q 14.984375 17.484375 19.15625 11.84375 
Q 23.34375 6.203125 30.609375 6.203125 
Q 37.796875 6.203125 41.984375 11.859375 
Q 46.1875 17.53125 46.1875 27.296875 
Q 46.1875 37.015625 41.984375 42.703125 
Q 37.796875 48.390625 30.609375 48.390625 
z
M 30.609375 56 
Q 42.328125 56 49.015625 48.375 
Q 55.71875 40.765625 55.71875 27.296875 
Q 55.71875 13.875 49.015625 6.21875 
Q 42.328125 -1.421875 30.609375 -1.421875 
Q 18.84375 -1.421875 12.171875 6.21875 
Q 5.515625 13.875 5.515625 27.296875 
Q 5.515625 40.765625 12.171875 48.375 
Q 18.84375 56 30.609375 56 
z
" id="DejaVuSans-111"/>
       <path d="M 8.5 21.578125 
L 8.5 54.6875 
L 17.484375 54.6875 
L 17.484375 21.921875 
Q 17.484375 14.15625 20.5 10.265625 
Q 23.53125 6.390625 29.59375 6.390625 
Q 36.859375 6.390625 41.078125 11.03125 
Q 45.3125 15.671875 45.3125 23.6875 
L 45.3125 54.6875 
L 54.296875 54.6875 
L 54.296875 0 
L 45.3125 0 
L 45.3125 8.40625 
Q 42.046875 3.421875 37.71875 1 
Q 33.40625 -1.421875 27.6875 -1.421875 
Q 18.265625 -1.421875 13.375 4.4375 
Q 8.5 10.296875 8.5 21.578125 
z
M 31.109375 56 
z
" id="DejaVuSans-117"/>
       <path d="M 41.109375 46.296875 
Q 39.59375 47.171875 37.8125 47.578125 
Q 36.03125 48 33.890625 48 
Q 26.265625 48 22.1875 43.046875 
Q 18.109375 38.09375 18.109375 28.8125 
L 18.109375 0 
L 9.078125 0 
L 9.078125 54.6875 
L 18.109375 54.6875 
L 18.109375 46.1875 
Q 20.953125 51.171875 25.484375 53.578125 
Q 30.03125 56 36.53125 56 
Q 37.453125 56 38.578125 55.875 
Q 39.703125 55.765625 41.0625 55.515625 
z
" id="DejaVuSans-114"/>
       <path d="M 54.890625 33.015625 
L 54.890625 0 
L 45.90625 0 
L 45.90625 32.71875 
Q 45.90625 40.484375 42.875 44.328125 
Q 39.84375 48.1875 33.796875 48.1875 
Q 26.515625 48.1875 22.3125 43.546875 
Q 18.109375 38.921875 18.109375 30.90625 
L 18.109375 0 
L 9.078125 0 
L 9.078125 54.6875 
L 18.109375 54.6875 
L 18.109375 46.1875 
Q 21.34375 51.125 25.703125 53.5625 
Q 30.078125 56 35.796875 56 
Q 45.21875 56 50.046875 50.171875 
Q 54.890625 44.34375 54.890625 33.015625 
z
" id="DejaVuSans-110"/>
       <path d="M 18.3125 70.21875 
L 18.3125 54.6875 
L 36.8125 54.6875 
L 36.8125 47.703125 
L 18.3125 47.703125 
L 18.3125 18.015625 
Q 18.3125 11.328125 20.140625 9.421875 
Q 21.96875 7.515625 27.59375 7.515625 
L 36.8125 7.515625 
L 36.8125 0 
L 27.59375 0 
Q 17.1875 0 13.234375 3.875 
Q 9.28125 7.765625 9.28125 18.015625 
L 9.28125 47.703125 
L 2.6875 47.703125 
L 2.6875 54.6875 
L 9.28125 54.6875 
L 9.28125 70.21875 
z
" id="DejaVuSans-116"/>
       <path d="M 8.015625 75.875 
L 15.828125 75.875 
Q 23.140625 64.359375 26.78125 53.3125 
Q 30.421875 42.28125 30.421875 31.390625 
Q 30.421875 20.453125 26.78125 9.375 
Q 23.140625 -1.703125 15.828125 -13.1875 
L 8.015625 -13.1875 
Q 14.5 -2 17.703125 9.0625 
Q 20.90625 20.125 20.90625 31.390625 
Q 20.90625 42.671875 17.703125 53.65625 
Q 14.5 64.65625 8.015625 75.875 
z
" id="DejaVuSans-41"/>
      </defs>
      <use xlink:href="#DejaVuSans-84"/>
      <use x="57.958984" xlink:href="#DejaVuSans-105"/>
      <use x="85.742188" xlink:href="#DejaVuSans-109"/>
      <use x="183.154297" xlink:href="#DejaVuSans-101"/>
      <use x="244.677734" xlink:href="#DejaVuSans-32"/>
      <use x="276.464844" xlink:href="#DejaVuSans-40"/>
      <use x="315.478516" xlink:href="#DejaVuSans-104"/>
      <use x="378.857422" xlink:href="#DejaVuSans-111"/>
      <use x="440.039062" xlink:href="#DejaVuSans-117"/>
      <use x="503.417969" xlink:href="#DejaVuSans-114"/>
      <use x="542.78125" xlink:href="#DejaVuSans-58"/>
      <use x="576.472656" xlink:href="#DejaVuSans-109"/>
      <use x="673.884766" xlink:href="#DejaVuSans-105"/>
      <use x="701.667969" xlink:href="#DejaVuSans-110"/>
      <use x="765.046875" xlink:href="#DejaVuSans-117"/>
      <use x="828.425781" xlink:href="#DejaVuSans-116"/>
      <use x="867.634766" xlink:href="#DejaVuSans-101"/>
      <use x="929.158203" xlink:href="#DejaVuSans-41"/>
     </g>
    </g>
   </g>
   <g id="matplotlib.axis_2">
    <g id="ytick_1">
     <g id="line2d_30">
      <defs>
       <path d="M 0 0 
L -3.5 0 
" id="mb802a02406" style="stroke:#000000;stroke-width:0.8;"/>
      </defs>
      <g>
       <use style="stroke:#000000;stroke-width:0.8;" x="53.328125" xlink:href="#mb802a02406" y="274.404569"/>
      </g>
     </g>
     <g id="text_14">
      <!-- 4000 -->
      <g transform="translate(20.878125 278.203787)scale(0.1 -0.1)">
       <use xlink:href="#DejaVuSans-52"/>
       <use x="63.623047" xlink:href="#DejaVuSans-48"/>
       <use x="127.246094" xlink:href="#DejaVuSans-48"/>
       <use x="190.869141" xlink:href="#DejaVuSans-48"/>
      </g>
     </g>
    </g>
    <g id="ytick_2">
     <g id="line2d_31">
      <g>
       <use style="stroke:#000000;stroke-width:0.8;" x="53.328125" xlink:href="#mb802a02406" y="244.673344"/>
      </g>
     </g>
     <g id="text_15">
      <!-- 4250 -->
      <g transform="translate(20.878125 248.472563)scale(0.1 -0.1)">
       <use xlink:href="#DejaVuSans-52"/>
       <use x="63.623047" xlink:href="#DejaVuSans-50"/>
       <use x="127.246094" xlink:href="#DejaVuSans-53"/>
       <use x="190.869141" xlink:href="#DejaVuSans-48"/>
      </g>
     </g>
    </g>
    <g id="ytick_3">
     <g id="line2d_32">
      <g>
       <use style="stroke:#000000;stroke-width:0.8;" x="53.328125" xlink:href="#mb802a02406" y="214.94212"/>
      </g>
     </g>
     <g id="text_16">
      <!-- 4500 -->
      <g transform="translate(20.878125 218.741338)scale(0.1 -0.1)">
       <use xlink:href="#DejaVuSans-52"/>
       <use x="63.623047" xlink:href="#DejaVuSans-53"/>
       <use x="127.246094" xlink:href="#DejaVuSans-48"/>
       <use x="190.869141" xlink:href="#DejaVuSans-48"/>
      </g>
     </g>
    </g>
    <g id="ytick_4">
     <g id="line2d_33">
      <g>
       <use style="stroke:#000000;stroke-width:0.8;" x="53.328125" xlink:href="#mb802a02406" y="185.210895"/>
      </g>
     </g>
     <g id="text_17">
      <!-- 4750 -->
      <g transform="translate(20.878125 189.010114)scale(0.1 -0.1)">
       <use xlink:href="#DejaVuSans-52"/>
       <use x="63.623047" xlink:href="#DejaVuSans-55"/>
       <use x="127.246094" xlink:href="#DejaVuSans-53"/>
       <use x="190.869141" xlink:href="#DejaVuSans-48"/>
      </g>
     </g>
    </g>
    <g id="ytick_5">
     <g id="line2d_34">
      <g>
       <use style="stroke:#000000;stroke-width:0.8;" x="53.328125" xlink:href="#mb802a02406" y="155.479671"/>
      </g>
     </g>
     <g id="text_18">
      <!-- 5000 -->
      <g transform="translate(20.878125 159.27889)scale(0.1 -0.1)">
       <use xlink:href="#DejaVuSans-53"/>
       <use x="63.623047" xlink:href="#DejaVuSans-48"/>
       <use x="127.246094" xlink:href="#DejaVuSans-48"/>
       <use x="190.869141" xlink:href="#DejaVuSans-48"/>
      </g>
     </g>
    </g>
    <g id="ytick_6">
     <g id="line2d_35">
      <g>
       <use style="stroke:#000000;stroke-width:0.8;" x="53.328125" xlink:href="#mb802a02406" y="125.748446"/>
      </g>
     </g>
     <g id="text_19">
      <!-- 5250 -->
      <g transform="translate(20.878125 129.547665)scale(0.1 -0.1)">
       <use xlink:href="#DejaVuSans-53"/>
       <use x="63.623047" xlink:href="#DejaVuSans-50"/>
       <use x="127.246094" xlink:href="#DejaVuSans-53"/>
       <use x="190.869141" xlink:href="#DejaVuSans-48"/>
      </g>
     </g>
    </g>
    <g id="ytick_7">
     <g id="line2d_36">
      <g>
       <use style="stroke:#000000;stroke-width:0.8;" x="53.328125" xlink:href="#mb802a02406" y="96.017222"/>
      </g>
     </g>
     <g id="text_20">
      <!-- 5500 -->
      <g transform="translate(20.878125 99.816441)scale(0.1 -0.1)">
       <use xlink:href="#DejaVuSans-53"/>
       <use x="63.623047" xlink:href="#DejaVuSans-53"/>
       <use x="127.246094" xlink:href="#DejaVuSans-48"/>
       <use x="190.869141" xlink:href="#DejaVuSans-48"/>
      </g>
     </g>
    </g>
    <g id="ytick_8">
     <g id="line2d_37">
      <g>
       <use style="stroke:#000000;stroke-width:0.8;" x="53.328125" xlink:href="#mb802a02406" y="66.285998"/>
      </g>
     </g>
     <g id="text_21">
      <!-- 5750 -->
      <g transform="translate(20.878125 70.085216)scale(0.1 -0.1)">
       <use xlink:href="#DejaVuSans-53"/>
       <use x="63.623047" xlink:href="#DejaVuSans-55"/>
       <use x="127.246094" xlink:href="#DejaVuSans-53"/>
       <use x="190.869141" xlink:href="#DejaVuSans-48"/>
      </g>
     </g>
    </g>
    <g id="ytick_9">
     <g id="line2d_38">
      <g>
       <use style="stroke:#000000;stroke-width:0.8;" x="53.328125" xlink:href="#mb802a02406" y="36.554773"/>
      </g>
     </g>
     <g id="text_22">
      <!-- 6000 -->
      <g transform="translate(20.878125 40.353992)scale(0.1 -0.1)">
       <use xlink:href="#DejaVuSans-54"/>
       <use x="63.623047" xlink:href="#DejaVuSans-48"/>
       <use x="127.246094" xlink:href="#DejaVuSans-48"/>
       <use x="190.869141" xlink:href="#DejaVuSans-48"/>
      </g>
     </g>
    </g>
    <g id="text_23">
     <!-- Edge coverage -->
     <g transform="translate(14.798438 192.762406)rotate(-90)scale(0.1 -0.1)">
      <defs>
       <path d="M 9.8125 72.90625 
L 55.90625 72.90625 
L 55.90625 64.59375 
L 19.671875 64.59375 
L 19.671875 43.015625 
L 54.390625 43.015625 
L 54.390625 34.71875 
L 19.671875 34.71875 
L 19.671875 8.296875 
L 56.78125 8.296875 
L 56.78125 0 
L 9.8125 0 
z
" id="DejaVuSans-69"/>
       <path d="M 45.40625 46.390625 
L 45.40625 75.984375 
L 54.390625 75.984375 
L 54.390625 0 
L 45.40625 0 
L 45.40625 8.203125 
Q 42.578125 3.328125 38.25 0.953125 
Q 33.9375 -1.421875 27.875 -1.421875 
Q 17.96875 -1.421875 11.734375 6.484375 
Q 5.515625 14.40625 5.515625 27.296875 
Q 5.515625 40.1875 11.734375 48.09375 
Q 17.96875 56 27.875 56 
Q 33.9375 56 38.25 53.625 
Q 42.578125 51.265625 45.40625 46.390625 
z
M 14.796875 27.296875 
Q 14.796875 17.390625 18.875 11.75 
Q 22.953125 6.109375 30.078125 6.109375 
Q 37.203125 6.109375 41.296875 11.75 
Q 45.40625 17.390625 45.40625 27.296875 
Q 45.40625 37.203125 41.296875 42.84375 
Q 37.203125 48.484375 30.078125 48.484375 
Q 22.953125 48.484375 18.875 42.84375 
Q 14.796875 37.203125 14.796875 27.296875 
z
" id="DejaVuSans-100"/>
       <path d="M 45.40625 27.984375 
Q 45.40625 37.75 41.375 43.109375 
Q 37.359375 48.484375 30.078125 48.484375 
Q 22.859375 48.484375 18.828125 43.109375 
Q 14.796875 37.75 14.796875 27.984375 
Q 14.796875 18.265625 18.828125 12.890625 
Q 22.859375 7.515625 30.078125 7.515625 
Q 37.359375 7.515625 41.375 12.890625 
Q 45.40625 18.265625 45.40625 27.984375 
z
M 54.390625 6.78125 
Q 54.390625 -7.171875 48.1875 -13.984375 
Q 42 -20.796875 29.203125 -20.796875 
Q 24.46875 -20.796875 20.265625 -20.09375 
Q 16.0625 -19.390625 12.109375 -17.921875 
L 12.109375 -9.1875 
Q 16.0625 -11.328125 19.921875 -12.34375 
Q 23.78125 -13.375 27.78125 -13.375 
Q 36.625 -13.375 41.015625 -8.765625 
Q 45.40625 -4.15625 45.40625 5.171875 
L 45.40625 9.625 
Q 42.625 4.78125 38.28125 2.390625 
Q 33.9375 0 27.875 0 
Q 17.828125 0 11.671875 7.65625 
Q 5.515625 15.328125 5.515625 27.984375 
Q 5.515625 40.671875 11.671875 48.328125 
Q 17.828125 56 27.875 56 
Q 33.9375 56 38.28125 53.609375 
Q 42.625 51.21875 45.40625 46.390625 
L 45.40625 54.6875 
L 54.390625 54.6875 
z
" id="DejaVuSans-103"/>
       <path d="M 48.78125 52.59375 
L 48.78125 44.1875 
Q 44.96875 46.296875 41.140625 47.34375 
Q 37.3125 48.390625 33.40625 48.390625 
Q 24.65625 48.390625 19.8125 42.84375 
Q 14.984375 37.3125 14.984375 27.296875 
Q 14.984375 17.28125 19.8125 11.734375 
Q 24.65625 6.203125 33.40625 6.203125 
Q 37.3125 6.203125 41.140625 7.25 
Q 44.96875 8.296875 48.78125 10.40625 
L 48.78125 2.09375 
Q 45.015625 0.34375 40.984375 -0.53125 
Q 36.96875 -1.421875 32.421875 -1.421875 
Q 20.0625 -1.421875 12.78125 6.34375 
Q 5.515625 14.109375 5.515625 27.296875 
Q 5.515625 40.671875 12.859375 48.328125 
Q 20.21875 56 33.015625 56 
Q 37.15625 56 41.109375 55.140625 
Q 45.0625 54.296875 48.78125 52.59375 
z
" id="DejaVuSans-99"/>
       <path d="M 2.984375 54.6875 
L 12.5 54.6875 
L 29.59375 8.796875 
L 46.6875 54.6875 
L 56.203125 54.6875 
L 35.6875 0 
L 23.484375 0 
z
" id="DejaVuSans-118"/>
       <path d="M 34.28125 27.484375 
Q 23.390625 27.484375 19.1875 25 
Q 14.984375 22.515625 14.984375 16.5 
Q 14.984375 11.71875 18.140625 8.90625 
Q 21.296875 6.109375 26.703125 6.109375 
Q 34.1875 6.109375 38.703125 11.40625 
Q 43.21875 16.703125 43.21875 25.484375 
L 43.21875 27.484375 
z
M 52.203125 31.203125 
L 52.203125 0 
L 43.21875 0 
L 43.21875 8.296875 
Q 40.140625 3.328125 35.546875 0.953125 
Q 30.953125 -1.421875 24.3125 -1.421875 
Q 15.921875 -1.421875 10.953125 3.296875 
Q 6 8.015625 6 15.921875 
Q 6 25.140625 12.171875 29.828125 
Q 18.359375 34.515625 30.609375 34.515625 
L 43.21875 34.515625 
L 43.21875 35.40625 
Q 43.21875 41.609375 39.140625 45 
Q 35.0625 48.390625 27.6875 48.390625 
Q 23 48.390625 18.546875 47.265625 
Q 14.109375 46.140625 10.015625 43.890625 
L 10.015625 52.203125 
Q 14.9375 54.109375 19.578125 55.046875 
Q 24.21875 56 28.609375 56 
Q 40.484375 56 46.34375 49.84375 
Q 52.203125 43.703125 52.203125 31.203125 
z
" id="DejaVuSans-97"/>
      </defs>
      <use xlink:href="#DejaVuSans-69"/>
      <use x="63.183594" xlink:href="#DejaVuSans-100"/>
      <use x="126.660156" xlink:href="#DejaVuSans-103"/>
      <use x="190.136719" xlink:href="#DejaVuSans-101"/>
      <use x="251.660156" xlink:href="#DejaVuSans-32"/>
      <use x="283.447266" xlink:href="#DejaVuSans-99"/>
      <use x="338.427734" xlink:href="#DejaVuSans-111"/>
      <use x="399.609375" xlink:href="#DejaVuSans-118"/>
      <use x="458.789062" xlink:href="#DejaVuSans-101"/>
      <use x="520.3125" xlink:href="#DejaVuSans-114"/>
      <use x="561.425781" xlink:href="#DejaVuSans-97"/>
      <use x="622.705078" xlink:href="#DejaVuSans-103"/>
      <use x="686.181641" xlink:href="#DejaVuSans-101"/>
     </g>
    </g>
   </g>
   <g id="line2d_39">
    <path clip-path="url(#p2e9d641d9a)" d="M 85.79358 247.378886 
L 186.061618 238.935218 
L 244.714661 213.931258 
L 286.329657 201.325219 
L 318.608756 182.059385 
L 344.9827 179.353844 
L 367.281552 173.496793 
L 386.597696 164.101726 
L 403.635743 158.660912 
L 418.876795 151.911924 
L 432.664003 145.668367 
L 445.250739 142.070889 
L 456.829413 139.959972 
L 467.549591 139.127497 
L 477.529837 137.432818 
L 486.865735 134.727276 
L 495.635462 129.405387 
L 503.903781 120.634676 
L 511.72494 113.618107 
L 519.144833 113.588376 
L 526.202633 111.685577 
L 532.932042 111.239609 
L 539.362265 109.842241 
L 545.518777 107.998905 
L 551.423932 107.820518 
L 557.097452 107.285356 
L 562.556824 106.958313 
L 567.817629 106.006913 
L 572.893806 105.055514 
L 577.797876 103.479759 
L 582.541127 102.112123 
L 587.133774 101.963467 
L 591.585085 101.963467 
L 595.903501 97.592977 
L 600.096728 96.46319 
L 604.17182 95.363135 
L 608.135252 94.382005 
L 611.992979 93.936036 
L 615.750494 93.638724 
L 619.412872 90.100708 
L 622.984812 81.865159 
L 626.470672 81.508384 
L 629.874505 80.348867 
L 633.200081 80.081286 
L 636.450919 79.724511 
L 639.630304 79.575855 
L 642.74131 75.918914 
L 645.786816 75.354021 
L 648.769524 75.235096 
L 651.691971 71.964661 
L 654.556544 71.548424 
L 657.36549 71.548424 
L 660.12093 71.548424 
L 662.824863 71.429499 
L 665.47918 69.675357 
L 668.085668 69.615895 
L 670.646022 69.615895 
L 673.161845 69.615895 
L 675.634661 69.229389 
L 678.065915 69.229389 
L 680.456981 69.169926 
L 682.809166 69.169926 
L 685.123715 69.169926 
L 687.401812 69.169926 
L 689.644589 68.248258 
L 691.853124 66.226535 
L 694.028446 66.226535 
L 696.17154 65.602179 
L 698.283347 65.512986 
L 700.364767 64.88863 
L 702.416662 64.680511 
L 704.439859 64.502124 
L 706.435149 64.41293 
L 708.403291 64.353468 
L 710.345014 64.353468 
L 712.261018 64.294006 
L 714.151976 64.294006 
L 716.018533 64.294006 
L 717.861312 59.001848 
L 719.680911 49.725706 
L 721.477906 49.695974 
L 723.252851 49.487856 
L 725.006281 48.833769 
L 726.738711 48.804038 
L 728.450639 48.804038 
L 730.142543 48.655381 
L 731.814888 48.655381 
L 733.46812 48.655381 
L 735.10267 48.655381 
" style="fill:none;stroke:#98df8a;stroke-linecap:square;stroke-width:1.5;"/>
    <defs>
     <path d="M -0 3 
L 3 -3 
L -3 -3 
z
" id="m403da7f3fe" style="stroke:#ffffff;stroke-linejoin:miter;stroke-width:0.75;"/>
    </defs>
    <g clip-path="url(#p2e9d641d9a)">
     <use style="fill:#98df8a;stroke:#ffffff;stroke-linejoin:miter;stroke-width:0.75;" x="85.79358" xlink:href="#m403da7f3fe" y="247.378886"/>
     <use style="fill:#98df8a;stroke:#ffffff;stroke-linejoin:miter;stroke-width:0.75;" x="186.061618" xlink:href="#m403da7f3fe" y="238.935218"/>
     <use style="fill:#98df8a;stroke:#ffffff;stroke-linejoin:miter;stroke-width:0.75;" x="244.714661" xlink:href="#m403da7f3fe" y="213.931258"/>
     <use style="fill:#98df8a;stroke:#ffffff;stroke-linejoin:miter;stroke-width:0.75;" x="286.329657" xlink:href="#m403da7f3fe" y="201.325219"/>
     <use style="fill:#98df8a;stroke:#ffffff;stroke-linejoin:miter;stroke-width:0.75;" x="318.608756" xlink:href="#m403da7f3fe" y="182.059385"/>
     <use style="fill:#98df8a;stroke:#ffffff;stroke-linejoin:miter;stroke-width:0.75;" x="344.9827" xlink:href="#m403da7f3fe" y="179.353844"/>
     <use style="fill:#98df8a;stroke:#ffffff;stroke-linejoin:miter;stroke-width:0.75;" x="367.281552" xlink:href="#m403da7f3fe" y="173.496793"/>
     <use style="fill:#98df8a;stroke:#ffffff;stroke-linejoin:miter;stroke-width:0.75;" x="386.597696" xlink:href="#m403da7f3fe" y="164.101726"/>
     <use style="fill:#98df8a;stroke:#ffffff;stroke-linejoin:miter;stroke-width:0.75;" x="403.635743" xlink:href="#m403da7f3fe" y="158.660912"/>
     <use style="fill:#98df8a;stroke:#ffffff;stroke-linejoin:miter;stroke-width:0.75;" x="418.876795" xlink:href="#m403da7f3fe" y="151.911924"/>
     <use style="fill:#98df8a;stroke:#ffffff;stroke-linejoin:miter;stroke-width:0.75;" x="432.664003" xlink:href="#m403da7f3fe" y="145.668367"/>
     <use style="fill:#98df8a;stroke:#ffffff;stroke-linejoin:miter;stroke-width:0.75;" x="445.250739" xlink:href="#m403da7f3fe" y="142.070889"/>
     <use style="fill:#98df8a;stroke:#ffffff;stroke-linejoin:miter;stroke-width:0.75;" x="456.829413" xlink:href="#m403da7f3fe" y="139.959972"/>
     <use style="fill:#98df8a;stroke:#ffffff;stroke-linejoin:miter;stroke-width:0.75;" x="467.549591" xlink:href="#m403da7f3fe" y="139.127497"/>
     <use style="fill:#98df8a;stroke:#ffffff;stroke-linejoin:miter;stroke-width:0.75;" x="477.529837" xlink:href="#m403da7f3fe" y="137.432818"/>
     <use style="fill:#98df8a;stroke:#ffffff;stroke-linejoin:miter;stroke-width:0.75;" x="486.865735" xlink:href="#m403da7f3fe" y="134.727276"/>
     <use style="fill:#98df8a;stroke:#ffffff;stroke-linejoin:miter;stroke-width:0.75;" x="495.635462" xlink:href="#m403da7f3fe" y="129.405387"/>
     <use style="fill:#98df8a;stroke:#ffffff;stroke-linejoin:miter;stroke-width:0.75;" x="503.903781" xlink:href="#m403da7f3fe" y="120.634676"/>
     <use style="fill:#98df8a;stroke:#ffffff;stroke-linejoin:miter;stroke-width:0.75;" x="511.72494" xlink:href="#m403da7f3fe" y="113.618107"/>
     <use style="fill:#98df8a;stroke:#ffffff;stroke-linejoin:miter;stroke-width:0.75;" x="519.144833" xlink:href="#m403da7f3fe" y="113.588376"/>
     <use style="fill:#98df8a;stroke:#ffffff;stroke-linejoin:miter;stroke-width:0.75;" x="526.202633" xlink:href="#m403da7f3fe" y="111.685577"/>
     <use style="fill:#98df8a;stroke:#ffffff;stroke-linejoin:miter;stroke-width:0.75;" x="532.932042" xlink:href="#m403da7f3fe" y="111.239609"/>
     <use style="fill:#98df8a;stroke:#ffffff;stroke-linejoin:miter;stroke-width:0.75;" x="539.362265" xlink:href="#m403da7f3fe" y="109.842241"/>
     <use style="fill:#98df8a;stroke:#ffffff;stroke-linejoin:miter;stroke-width:0.75;" x="545.518777" xlink:href="#m403da7f3fe" y="107.998905"/>
     <use style="fill:#98df8a;stroke:#ffffff;stroke-linejoin:miter;stroke-width:0.75;" x="551.423932" xlink:href="#m403da7f3fe" y="107.820518"/>
     <use style="fill:#98df8a;stroke:#ffffff;stroke-linejoin:miter;stroke-width:0.75;" x="557.097452" xlink:href="#m403da7f3fe" y="107.285356"/>
     <use style="fill:#98df8a;stroke:#ffffff;stroke-linejoin:miter;stroke-width:0.75;" x="562.556824" xlink:href="#m403da7f3fe" y="106.958313"/>
     <use style="fill:#98df8a;stroke:#ffffff;stroke-linejoin:miter;stroke-width:0.75;" x="567.817629" xlink:href="#m403da7f3fe" y="106.006913"/>
     <use style="fill:#98df8a;stroke:#ffffff;stroke-linejoin:miter;stroke-width:0.75;" x="572.893806" xlink:href="#m403da7f3fe" y="105.055514"/>
     <use style="fill:#98df8a;stroke:#ffffff;stroke-linejoin:miter;stroke-width:0.75;" x="577.797876" xlink:href="#m403da7f3fe" y="103.479759"/>
     <use style="fill:#98df8a;stroke:#ffffff;stroke-linejoin:miter;stroke-width:0.75;" x="582.541127" xlink:href="#m403da7f3fe" y="102.112123"/>
     <use style="fill:#98df8a;stroke:#ffffff;stroke-linejoin:miter;stroke-width:0.75;" x="587.133774" xlink:href="#m403da7f3fe" y="101.963467"/>
     <use style="fill:#98df8a;stroke:#ffffff;stroke-linejoin:miter;stroke-width:0.75;" x="591.585085" xlink:href="#m403da7f3fe" y="101.963467"/>
     <use style="fill:#98df8a;stroke:#ffffff;stroke-linejoin:miter;stroke-width:0.75;" x="595.903501" xlink:href="#m403da7f3fe" y="97.592977"/>
     <use style="fill:#98df8a;stroke:#ffffff;stroke-linejoin:miter;stroke-width:0.75;" x="600.096728" xlink:href="#m403da7f3fe" y="96.46319"/>
     <use style="fill:#98df8a;stroke:#ffffff;stroke-linejoin:miter;stroke-width:0.75;" x="604.17182" xlink:href="#m403da7f3fe" y="95.363135"/>
     <use style="fill:#98df8a;stroke:#ffffff;stroke-linejoin:miter;stroke-width:0.75;" x="608.135252" xlink:href="#m403da7f3fe" y="94.382005"/>
     <use style="fill:#98df8a;stroke:#ffffff;stroke-linejoin:miter;stroke-width:0.75;" x="611.992979" xlink:href="#m403da7f3fe" y="93.936036"/>
     <use style="fill:#98df8a;stroke:#ffffff;stroke-linejoin:miter;stroke-width:0.75;" x="615.750494" xlink:href="#m403da7f3fe" y="93.638724"/>
     <use style="fill:#98df8a;stroke:#ffffff;stroke-linejoin:miter;stroke-width:0.75;" x="619.412872" xlink:href="#m403da7f3fe" y="90.100708"/>
     <use style="fill:#98df8a;stroke:#ffffff;stroke-linejoin:miter;stroke-width:0.75;" x="622.984812" xlink:href="#m403da7f3fe" y="81.865159"/>
     <use style="fill:#98df8a;stroke:#ffffff;stroke-linejoin:miter;stroke-width:0.75;" x="626.470672" xlink:href="#m403da7f3fe" y="81.508384"/>
     <use style="fill:#98df8a;stroke:#ffffff;stroke-linejoin:miter;stroke-width:0.75;" x="629.874505" xlink:href="#m403da7f3fe" y="80.348867"/>
     <use style="fill:#98df8a;stroke:#ffffff;stroke-linejoin:miter;stroke-width:0.75;" x="633.200081" xlink:href="#m403da7f3fe" y="80.081286"/>
     <use style="fill:#98df8a;stroke:#ffffff;stroke-linejoin:miter;stroke-width:0.75;" x="636.450919" xlink:href="#m403da7f3fe" y="79.724511"/>
     <use style="fill:#98df8a;stroke:#ffffff;stroke-linejoin:miter;stroke-width:0.75;" x="639.630304" xlink:href="#m403da7f3fe" y="79.575855"/>
     <use style="fill:#98df8a;stroke:#ffffff;stroke-linejoin:miter;stroke-width:0.75;" x="642.74131" xlink:href="#m403da7f3fe" y="75.918914"/>
     <use style="fill:#98df8a;stroke:#ffffff;stroke-linejoin:miter;stroke-width:0.75;" x="645.786816" xlink:href="#m403da7f3fe" y="75.354021"/>
     <use style="fill:#98df8a;stroke:#ffffff;stroke-linejoin:miter;stroke-width:0.75;" x="648.769524" xlink:href="#m403da7f3fe" y="75.235096"/>
     <use style="fill:#98df8a;stroke:#ffffff;stroke-linejoin:miter;stroke-width:0.75;" x="651.691971" xlink:href="#m403da7f3fe" y="71.964661"/>
     <use style="fill:#98df8a;stroke:#ffffff;stroke-linejoin:miter;stroke-width:0.75;" x="654.556544" xlink:href="#m403da7f3fe" y="71.548424"/>
     <use style="fill:#98df8a;stroke:#ffffff;stroke-linejoin:miter;stroke-width:0.75;" x="657.36549" xlink:href="#m403da7f3fe" y="71.548424"/>
     <use style="fill:#98df8a;stroke:#ffffff;stroke-linejoin:miter;stroke-width:0.75;" x="660.12093" xlink:href="#m403da7f3fe" y="71.548424"/>
     <use style="fill:#98df8a;stroke:#ffffff;stroke-linejoin:miter;stroke-width:0.75;" x="662.824863" xlink:href="#m403da7f3fe" y="71.429499"/>
     <use style="fill:#98df8a;stroke:#ffffff;stroke-linejoin:miter;stroke-width:0.75;" x="665.47918" xlink:href="#m403da7f3fe" y="69.675357"/>
     <use style="fill:#98df8a;stroke:#ffffff;stroke-linejoin:miter;stroke-width:0.75;" x="668.085668" xlink:href="#m403da7f3fe" y="69.615895"/>
     <use style="fill:#98df8a;stroke:#ffffff;stroke-linejoin:miter;stroke-width:0.75;" x="670.646022" xlink:href="#m403da7f3fe" y="69.615895"/>
     <use style="fill:#98df8a;stroke:#ffffff;stroke-linejoin:miter;stroke-width:0.75;" x="673.161845" xlink:href="#m403da7f3fe" y="69.615895"/>
     <use style="fill:#98df8a;stroke:#ffffff;stroke-linejoin:miter;stroke-width:0.75;" x="675.634661" xlink:href="#m403da7f3fe" y="69.229389"/>
     <use style="fill:#98df8a;stroke:#ffffff;stroke-linejoin:miter;stroke-width:0.75;" x="678.065915" xlink:href="#m403da7f3fe" y="69.229389"/>
     <use style="fill:#98df8a;stroke:#ffffff;stroke-linejoin:miter;stroke-width:0.75;" x="680.456981" xlink:href="#m403da7f3fe" y="69.169926"/>
     <use style="fill:#98df8a;stroke:#ffffff;stroke-linejoin:miter;stroke-width:0.75;" x="682.809166" xlink:href="#m403da7f3fe" y="69.169926"/>
     <use style="fill:#98df8a;stroke:#ffffff;stroke-linejoin:miter;stroke-width:0.75;" x="685.123715" xlink:href="#m403da7f3fe" y="69.169926"/>
     <use style="fill:#98df8a;stroke:#ffffff;stroke-linejoin:miter;stroke-width:0.75;" x="687.401812" xlink:href="#m403da7f3fe" y="69.169926"/>
     <use style="fill:#98df8a;stroke:#ffffff;stroke-linejoin:miter;stroke-width:0.75;" x="689.644589" xlink:href="#m403da7f3fe" y="68.248258"/>
     <use style="fill:#98df8a;stroke:#ffffff;stroke-linejoin:miter;stroke-width:0.75;" x="691.853124" xlink:href="#m403da7f3fe" y="66.226535"/>
     <use style="fill:#98df8a;stroke:#ffffff;stroke-linejoin:miter;stroke-width:0.75;" x="694.028446" xlink:href="#m403da7f3fe" y="66.226535"/>
     <use style="fill:#98df8a;stroke:#ffffff;stroke-linejoin:miter;stroke-width:0.75;" x="696.17154" xlink:href="#m403da7f3fe" y="65.602179"/>
     <use style="fill:#98df8a;stroke:#ffffff;stroke-linejoin:miter;stroke-width:0.75;" x="698.283347" xlink:href="#m403da7f3fe" y="65.512986"/>
     <use style="fill:#98df8a;stroke:#ffffff;stroke-linejoin:miter;stroke-width:0.75;" x="700.364767" xlink:href="#m403da7f3fe" y="64.88863"/>
     <use style="fill:#98df8a;stroke:#ffffff;stroke-linejoin:miter;stroke-width:0.75;" x="702.416662" xlink:href="#m403da7f3fe" y="64.680511"/>
     <use style="fill:#98df8a;stroke:#ffffff;stroke-linejoin:miter;stroke-width:0.75;" x="704.439859" xlink:href="#m403da7f3fe" y="64.502124"/>
     <use style="fill:#98df8a;stroke:#ffffff;stroke-linejoin:miter;stroke-width:0.75;" x="706.435149" xlink:href="#m403da7f3fe" y="64.41293"/>
     <use style="fill:#98df8a;stroke:#ffffff;stroke-linejoin:miter;stroke-width:0.75;" x="708.403291" xlink:href="#m403da7f3fe" y="64.353468"/>
     <use style="fill:#98df8a;stroke:#ffffff;stroke-linejoin:miter;stroke-width:0.75;" x="710.345014" xlink:href="#m403da7f3fe" y="64.353468"/>
     <use style="fill:#98df8a;stroke:#ffffff;stroke-linejoin:miter;stroke-width:0.75;" x="712.261018" xlink:href="#m403da7f3fe" y="64.294006"/>
     <use style="fill:#98df8a;stroke:#ffffff;stroke-linejoin:miter;stroke-width:0.75;" x="714.151976" xlink:href="#m403da7f3fe" y="64.294006"/>
     <use style="fill:#98df8a;stroke:#ffffff;stroke-linejoin:miter;stroke-width:0.75;" x="716.018533" xlink:href="#m403da7f3fe" y="64.294006"/>
     <use style="fill:#98df8a;stroke:#ffffff;stroke-linejoin:miter;stroke-width:0.75;" x="717.861312" xlink:href="#m403da7f3fe" y="59.001848"/>
     <use style="fill:#98df8a;stroke:#ffffff;stroke-linejoin:miter;stroke-width:0.75;" x="719.680911" xlink:href="#m403da7f3fe" y="49.725706"/>
     <use style="fill:#98df8a;stroke:#ffffff;stroke-linejoin:miter;stroke-width:0.75;" x="721.477906" xlink:href="#m403da7f3fe" y="49.695974"/>
     <use style="fill:#98df8a;stroke:#ffffff;stroke-linejoin:miter;stroke-width:0.75;" x="723.252851" xlink:href="#m403da7f3fe" y="49.487856"/>
     <use style="fill:#98df8a;stroke:#ffffff;stroke-linejoin:miter;stroke-width:0.75;" x="725.006281" xlink:href="#m403da7f3fe" y="48.833769"/>
     <use style="fill:#98df8a;stroke:#ffffff;stroke-linejoin:miter;stroke-width:0.75;" x="726.738711" xlink:href="#m403da7f3fe" y="48.804038"/>
     <use style="fill:#98df8a;stroke:#ffffff;stroke-linejoin:miter;stroke-width:0.75;" x="728.450639" xlink:href="#m403da7f3fe" y="48.804038"/>
     <use style="fill:#98df8a;stroke:#ffffff;stroke-linejoin:miter;stroke-width:0.75;" x="730.142543" xlink:href="#m403da7f3fe" y="48.655381"/>
     <use style="fill:#98df8a;stroke:#ffffff;stroke-linejoin:miter;stroke-width:0.75;" x="731.814888" xlink:href="#m403da7f3fe" y="48.655381"/>
     <use style="fill:#98df8a;stroke:#ffffff;stroke-linejoin:miter;stroke-width:0.75;" x="733.46812" xlink:href="#m403da7f3fe" y="48.655381"/>
     <use style="fill:#98df8a;stroke:#ffffff;stroke-linejoin:miter;stroke-width:0.75;" x="735.10267" xlink:href="#m403da7f3fe" y="48.655381"/>
    </g>
   </g>
   <g id="line2d_40">
    <path clip-path="url(#p2e9d641d9a)" d="M 85.79358 260.181151 
L 186.061618 232.638144 
L 244.714661 211.493298 
L 286.329657 199.362958 
L 318.608756 193.702133 
L 344.9827 188.350513 
L 367.281552 183.450807 
L 386.597696 181.904783 
L 403.635743 179.31222 
L 418.876795 176.767228 
L 432.664003 175.601764 
L 445.250739 174.031955 
L 456.829413 172.937846 
L 467.549591 164.232543 
L 477.529837 163.090864 
L 486.865735 153.006033 
L 495.635462 151.388654 
L 503.903781 146.798153 
L 511.72494 141.089758 
L 519.144833 134.596459 
L 526.202633 133.145575 
L 532.932042 126.271716 
L 539.362265 121.13416 
L 545.518777 120.563321 
L 551.423932 119.635707 
L 557.097452 119.588137 
L 562.556824 117.804263 
L 567.817629 111.596384 
L 572.893806 109.598445 
L 577.797876 109.075176 
L 582.541127 104.770094 
L 587.133774 99.608754 
L 591.585085 96.611846 
L 595.903501 94.233349 
L 600.096728 93.710079 
L 604.17182 93.472229 
L 608.135252 93.329519 
L 611.992979 92.94896 
L 615.750494 92.94896 
L 619.412872 88.477383 
L 622.984812 85.599401 
L 626.470672 84.315012 
L 629.874505 81.603524 
L 633.200081 81.603524 
L 636.450919 79.462876 
L 639.630304 79.320166 
L 642.74131 78.987177 
L 645.786816 78.915822 
L 648.769524 78.868252 
L 651.691971 74.515601 
L 654.556544 73.944761 
L 657.36549 73.730696 
L 660.12093 73.611771 
L 662.824863 71.732758 
L 665.47918 71.732758 
L 668.085668 71.708973 
L 670.646022 71.518693 
L 673.161845 70.995424 
L 675.634661 69.35426 
L 678.065915 69.11641 
L 680.456981 68.712065 
L 682.809166 64.787544 
L 685.123715 64.169134 
L 687.401812 63.360445 
L 689.644589 63.312875 
L 691.853124 62.313906 
L 694.028446 62.123626 
L 696.17154 61.909561 
L 698.283347 61.552787 
L 700.364767 61.505217 
L 702.416662 54.179443 
L 704.439859 53.798883 
L 706.435149 53.632388 
L 708.403291 53.608603 
L 710.345014 53.584819 
L 712.261018 53.537249 
L 714.151976 53.537249 
L 716.018533 53.513464 
L 717.861312 53.513464 
L 719.680911 52.680989 
L 721.477906 52.609634 
L 723.252851 52.609634 
L 725.006281 52.39557 
L 726.738711 52.39557 
L 728.450639 52.39557 
L 730.142543 52.30043 
L 731.814888 52.133935 
L 733.46812 52.11015 
L 735.10267 52.11015 
" style="fill:none;stroke:#1f77b4;stroke-linecap:square;stroke-width:1.5;"/>
    <defs>
     <path d="M 0 3 
C 0.795609 3 1.55874 2.683901 2.12132 2.12132 
C 2.683901 1.55874 3 0.795609 3 0 
C 3 -0.795609 2.683901 -1.55874 2.12132 -2.12132 
C 1.55874 -2.683901 0.795609 -3 0 -3 
C -0.795609 -3 -1.55874 -2.683901 -2.12132 -2.12132 
C -2.683901 -1.55874 -3 -0.795609 -3 0 
C -3 0.795609 -2.683901 1.55874 -2.12132 2.12132 
C -1.55874 2.683901 -0.795609 3 0 3 
z
" id="m48ca8eaf67" style="stroke:#ffffff;stroke-width:0.75;"/>
    </defs>
    <g clip-path="url(#p2e9d641d9a)">
     <use style="fill:#1f77b4;stroke:#ffffff;stroke-width:0.75;" x="85.79358" xlink:href="#m48ca8eaf67" y="260.181151"/>
     <use style="fill:#1f77b4;stroke:#ffffff;stroke-width:0.75;" x="186.061618" xlink:href="#m48ca8eaf67" y="232.638144"/>
     <use style="fill:#1f77b4;stroke:#ffffff;stroke-width:0.75;" x="244.714661" xlink:href="#m48ca8eaf67" y="211.493298"/>
     <use style="fill:#1f77b4;stroke:#ffffff;stroke-width:0.75;" x="286.329657" xlink:href="#m48ca8eaf67" y="199.362958"/>
     <use style="fill:#1f77b4;stroke:#ffffff;stroke-width:0.75;" x="318.608756" xlink:href="#m48ca8eaf67" y="193.702133"/>
     <use style="fill:#1f77b4;stroke:#ffffff;stroke-width:0.75;" x="344.9827" xlink:href="#m48ca8eaf67" y="188.350513"/>
     <use style="fill:#1f77b4;stroke:#ffffff;stroke-width:0.75;" x="367.281552" xlink:href="#m48ca8eaf67" y="183.450807"/>
     <use style="fill:#1f77b4;stroke:#ffffff;stroke-width:0.75;" x="386.597696" xlink:href="#m48ca8eaf67" y="181.904783"/>
     <use style="fill:#1f77b4;stroke:#ffffff;stroke-width:0.75;" x="403.635743" xlink:href="#m48ca8eaf67" y="179.31222"/>
     <use style="fill:#1f77b4;stroke:#ffffff;stroke-width:0.75;" x="418.876795" xlink:href="#m48ca8eaf67" y="176.767228"/>
     <use style="fill:#1f77b4;stroke:#ffffff;stroke-width:0.75;" x="432.664003" xlink:href="#m48ca8eaf67" y="175.601764"/>
     <use style="fill:#1f77b4;stroke:#ffffff;stroke-width:0.75;" x="445.250739" xlink:href="#m48ca8eaf67" y="174.031955"/>
     <use style="fill:#1f77b4;stroke:#ffffff;stroke-width:0.75;" x="456.829413" xlink:href="#m48ca8eaf67" y="172.937846"/>
     <use style="fill:#1f77b4;stroke:#ffffff;stroke-width:0.75;" x="467.549591" xlink:href="#m48ca8eaf67" y="164.232543"/>
     <use style="fill:#1f77b4;stroke:#ffffff;stroke-width:0.75;" x="477.529837" xlink:href="#m48ca8eaf67" y="163.090864"/>
     <use style="fill:#1f77b4;stroke:#ffffff;stroke-width:0.75;" x="486.865735" xlink:href="#m48ca8eaf67" y="153.006033"/>
     <use style="fill:#1f77b4;stroke:#ffffff;stroke-width:0.75;" x="495.635462" xlink:href="#m48ca8eaf67" y="151.388654"/>
     <use style="fill:#1f77b4;stroke:#ffffff;stroke-width:0.75;" x="503.903781" xlink:href="#m48ca8eaf67" y="146.798153"/>
     <use style="fill:#1f77b4;stroke:#ffffff;stroke-width:0.75;" x="511.72494" xlink:href="#m48ca8eaf67" y="141.089758"/>
     <use style="fill:#1f77b4;stroke:#ffffff;stroke-width:0.75;" x="519.144833" xlink:href="#m48ca8eaf67" y="134.596459"/>
     <use style="fill:#1f77b4;stroke:#ffffff;stroke-width:0.75;" x="526.202633" xlink:href="#m48ca8eaf67" y="133.145575"/>
     <use style="fill:#1f77b4;stroke:#ffffff;stroke-width:0.75;" x="532.932042" xlink:href="#m48ca8eaf67" y="126.271716"/>
     <use style="fill:#1f77b4;stroke:#ffffff;stroke-width:0.75;" x="539.362265" xlink:href="#m48ca8eaf67" y="121.13416"/>
     <use style="fill:#1f77b4;stroke:#ffffff;stroke-width:0.75;" x="545.518777" xlink:href="#m48ca8eaf67" y="120.563321"/>
     <use style="fill:#1f77b4;stroke:#ffffff;stroke-width:0.75;" x="551.423932" xlink:href="#m48ca8eaf67" y="119.635707"/>
     <use style="fill:#1f77b4;stroke:#ffffff;stroke-width:0.75;" x="557.097452" xlink:href="#m48ca8eaf67" y="119.588137"/>
     <use style="fill:#1f77b4;stroke:#ffffff;stroke-width:0.75;" x="562.556824" xlink:href="#m48ca8eaf67" y="117.804263"/>
     <use style="fill:#1f77b4;stroke:#ffffff;stroke-width:0.75;" x="567.817629" xlink:href="#m48ca8eaf67" y="111.596384"/>
     <use style="fill:#1f77b4;stroke:#ffffff;stroke-width:0.75;" x="572.893806" xlink:href="#m48ca8eaf67" y="109.598445"/>
     <use style="fill:#1f77b4;stroke:#ffffff;stroke-width:0.75;" x="577.797876" xlink:href="#m48ca8eaf67" y="109.075176"/>
     <use style="fill:#1f77b4;stroke:#ffffff;stroke-width:0.75;" x="582.541127" xlink:href="#m48ca8eaf67" y="104.770094"/>
     <use style="fill:#1f77b4;stroke:#ffffff;stroke-width:0.75;" x="587.133774" xlink:href="#m48ca8eaf67" y="99.608754"/>
     <use style="fill:#1f77b4;stroke:#ffffff;stroke-width:0.75;" x="591.585085" xlink:href="#m48ca8eaf67" y="96.611846"/>
     <use style="fill:#1f77b4;stroke:#ffffff;stroke-width:0.75;" x="595.903501" xlink:href="#m48ca8eaf67" y="94.233349"/>
     <use style="fill:#1f77b4;stroke:#ffffff;stroke-width:0.75;" x="600.096728" xlink:href="#m48ca8eaf67" y="93.710079"/>
     <use style="fill:#1f77b4;stroke:#ffffff;stroke-width:0.75;" x="604.17182" xlink:href="#m48ca8eaf67" y="93.472229"/>
     <use style="fill:#1f77b4;stroke:#ffffff;stroke-width:0.75;" x="608.135252" xlink:href="#m48ca8eaf67" y="93.329519"/>
     <use style="fill:#1f77b4;stroke:#ffffff;stroke-width:0.75;" x="611.992979" xlink:href="#m48ca8eaf67" y="92.94896"/>
     <use style="fill:#1f77b4;stroke:#ffffff;stroke-width:0.75;" x="615.750494" xlink:href="#m48ca8eaf67" y="92.94896"/>
     <use style="fill:#1f77b4;stroke:#ffffff;stroke-width:0.75;" x="619.412872" xlink:href="#m48ca8eaf67" y="88.477383"/>
     <use style="fill:#1f77b4;stroke:#ffffff;stroke-width:0.75;" x="622.984812" xlink:href="#m48ca8eaf67" y="85.599401"/>
     <use style="fill:#1f77b4;stroke:#ffffff;stroke-width:0.75;" x="626.470672" xlink:href="#m48ca8eaf67" y="84.315012"/>
     <use style="fill:#1f77b4;stroke:#ffffff;stroke-width:0.75;" x="629.874505" xlink:href="#m48ca8eaf67" y="81.603524"/>
     <use style="fill:#1f77b4;stroke:#ffffff;stroke-width:0.75;" x="633.200081" xlink:href="#m48ca8eaf67" y="81.603524"/>
     <use style="fill:#1f77b4;stroke:#ffffff;stroke-width:0.75;" x="636.450919" xlink:href="#m48ca8eaf67" y="79.462876"/>
     <use style="fill:#1f77b4;stroke:#ffffff;stroke-width:0.75;" x="639.630304" xlink:href="#m48ca8eaf67" y="79.320166"/>
     <use style="fill:#1f77b4;stroke:#ffffff;stroke-width:0.75;" x="642.74131" xlink:href="#m48ca8eaf67" y="78.987177"/>
     <use style="fill:#1f77b4;stroke:#ffffff;stroke-width:0.75;" x="645.786816" xlink:href="#m48ca8eaf67" y="78.915822"/>
     <use style="fill:#1f77b4;stroke:#ffffff;stroke-width:0.75;" x="648.769524" xlink:href="#m48ca8eaf67" y="78.868252"/>
     <use style="fill:#1f77b4;stroke:#ffffff;stroke-width:0.75;" x="651.691971" xlink:href="#m48ca8eaf67" y="74.515601"/>
     <use style="fill:#1f77b4;stroke:#ffffff;stroke-width:0.75;" x="654.556544" xlink:href="#m48ca8eaf67" y="73.944761"/>
     <use style="fill:#1f77b4;stroke:#ffffff;stroke-width:0.75;" x="657.36549" xlink:href="#m48ca8eaf67" y="73.730696"/>
     <use style="fill:#1f77b4;stroke:#ffffff;stroke-width:0.75;" x="660.12093" xlink:href="#m48ca8eaf67" y="73.611771"/>
     <use style="fill:#1f77b4;stroke:#ffffff;stroke-width:0.75;" x="662.824863" xlink:href="#m48ca8eaf67" y="71.732758"/>
     <use style="fill:#1f77b4;stroke:#ffffff;stroke-width:0.75;" x="665.47918" xlink:href="#m48ca8eaf67" y="71.732758"/>
     <use style="fill:#1f77b4;stroke:#ffffff;stroke-width:0.75;" x="668.085668" xlink:href="#m48ca8eaf67" y="71.708973"/>
     <use style="fill:#1f77b4;stroke:#ffffff;stroke-width:0.75;" x="670.646022" xlink:href="#m48ca8eaf67" y="71.518693"/>
     <use style="fill:#1f77b4;stroke:#ffffff;stroke-width:0.75;" x="673.161845" xlink:href="#m48ca8eaf67" y="70.995424"/>
     <use style="fill:#1f77b4;stroke:#ffffff;stroke-width:0.75;" x="675.634661" xlink:href="#m48ca8eaf67" y="69.35426"/>
     <use style="fill:#1f77b4;stroke:#ffffff;stroke-width:0.75;" x="678.065915" xlink:href="#m48ca8eaf67" y="69.11641"/>
     <use style="fill:#1f77b4;stroke:#ffffff;stroke-width:0.75;" x="680.456981" xlink:href="#m48ca8eaf67" y="68.712065"/>
     <use style="fill:#1f77b4;stroke:#ffffff;stroke-width:0.75;" x="682.809166" xlink:href="#m48ca8eaf67" y="64.787544"/>
     <use style="fill:#1f77b4;stroke:#ffffff;stroke-width:0.75;" x="685.123715" xlink:href="#m48ca8eaf67" y="64.169134"/>
     <use style="fill:#1f77b4;stroke:#ffffff;stroke-width:0.75;" x="687.401812" xlink:href="#m48ca8eaf67" y="63.360445"/>
     <use style="fill:#1f77b4;stroke:#ffffff;stroke-width:0.75;" x="689.644589" xlink:href="#m48ca8eaf67" y="63.312875"/>
     <use style="fill:#1f77b4;stroke:#ffffff;stroke-width:0.75;" x="691.853124" xlink:href="#m48ca8eaf67" y="62.313906"/>
     <use style="fill:#1f77b4;stroke:#ffffff;stroke-width:0.75;" x="694.028446" xlink:href="#m48ca8eaf67" y="62.123626"/>
     <use style="fill:#1f77b4;stroke:#ffffff;stroke-width:0.75;" x="696.17154" xlink:href="#m48ca8eaf67" y="61.909561"/>
     <use style="fill:#1f77b4;stroke:#ffffff;stroke-width:0.75;" x="698.283347" xlink:href="#m48ca8eaf67" y="61.552787"/>
     <use style="fill:#1f77b4;stroke:#ffffff;stroke-width:0.75;" x="700.364767" xlink:href="#m48ca8eaf67" y="61.505217"/>
     <use style="fill:#1f77b4;stroke:#ffffff;stroke-width:0.75;" x="702.416662" xlink:href="#m48ca8eaf67" y="54.179443"/>
     <use style="fill:#1f77b4;stroke:#ffffff;stroke-width:0.75;" x="704.439859" xlink:href="#m48ca8eaf67" y="53.798883"/>
     <use style="fill:#1f77b4;stroke:#ffffff;stroke-width:0.75;" x="706.435149" xlink:href="#m48ca8eaf67" y="53.632388"/>
     <use style="fill:#1f77b4;stroke:#ffffff;stroke-width:0.75;" x="708.403291" xlink:href="#m48ca8eaf67" y="53.608603"/>
     <use style="fill:#1f77b4;stroke:#ffffff;stroke-width:0.75;" x="710.345014" xlink:href="#m48ca8eaf67" y="53.584819"/>
     <use style="fill:#1f77b4;stroke:#ffffff;stroke-width:0.75;" x="712.261018" xlink:href="#m48ca8eaf67" y="53.537249"/>
     <use style="fill:#1f77b4;stroke:#ffffff;stroke-width:0.75;" x="714.151976" xlink:href="#m48ca8eaf67" y="53.537249"/>
     <use style="fill:#1f77b4;stroke:#ffffff;stroke-width:0.75;" x="716.018533" xlink:href="#m48ca8eaf67" y="53.513464"/>
     <use style="fill:#1f77b4;stroke:#ffffff;stroke-width:0.75;" x="717.861312" xlink:href="#m48ca8eaf67" y="53.513464"/>
     <use style="fill:#1f77b4;stroke:#ffffff;stroke-width:0.75;" x="719.680911" xlink:href="#m48ca8eaf67" y="52.680989"/>
     <use style="fill:#1f77b4;stroke:#ffffff;stroke-width:0.75;" x="721.477906" xlink:href="#m48ca8eaf67" y="52.609634"/>
     <use style="fill:#1f77b4;stroke:#ffffff;stroke-width:0.75;" x="723.252851" xlink:href="#m48ca8eaf67" y="52.609634"/>
     <use style="fill:#1f77b4;stroke:#ffffff;stroke-width:0.75;" x="725.006281" xlink:href="#m48ca8eaf67" y="52.39557"/>
     <use style="fill:#1f77b4;stroke:#ffffff;stroke-width:0.75;" x="726.738711" xlink:href="#m48ca8eaf67" y="52.39557"/>
     <use style="fill:#1f77b4;stroke:#ffffff;stroke-width:0.75;" x="728.450639" xlink:href="#m48ca8eaf67" y="52.39557"/>
     <use style="fill:#1f77b4;stroke:#ffffff;stroke-width:0.75;" x="730.142543" xlink:href="#m48ca8eaf67" y="52.30043"/>
     <use style="fill:#1f77b4;stroke:#ffffff;stroke-width:0.75;" x="731.814888" xlink:href="#m48ca8eaf67" y="52.133935"/>
     <use style="fill:#1f77b4;stroke:#ffffff;stroke-width:0.75;" x="733.46812" xlink:href="#m48ca8eaf67" y="52.11015"/>
     <use style="fill:#1f77b4;stroke:#ffffff;stroke-width:0.75;" x="735.10267" xlink:href="#m48ca8eaf67" y="52.11015"/>
    </g>
   </g>
   <g id="line2d_41"/>
   <g id="line2d_42"/>
   <g id="line2d_43"/>
   <g id="line2d_44">
    <path clip-path="url(#p2e9d641d9a)" d="M 735.10267 288.430125 
L 735.10267 22.318125 
" style="fill:none;stroke:#ff0000;stroke-linecap:square;stroke-width:1.5;"/>
   </g>
   <g id="patch_3">
    <path d="M 53.328125 274.404569 
L 53.328125 36.554773 
" style="fill:none;stroke:#000000;stroke-linecap:square;stroke-linejoin:miter;stroke-width:0.8;"/>
   </g>
   <g id="patch_4">
    <path d="M 85.79358 288.430125 
L 735.104476 288.430125 
" style="fill:none;stroke:#000000;stroke-linecap:square;stroke-linejoin:miter;stroke-width:0.8;"/>
   </g>
   <g id="text_24">
    <!-- libxml2-v2.9.2 (22h:15m, 4 trials/fuzzer) -->
    <g transform="translate(289.188125 16.318125)scale(0.12 -0.12)">
     <defs>
      <path d="M 9.421875 75.984375 
L 18.40625 75.984375 
L 18.40625 0 
L 9.421875 0 
z
" id="DejaVuSans-108"/>
      <path d="M 48.6875 27.296875 
Q 48.6875 37.203125 44.609375 42.84375 
Q 40.53125 48.484375 33.40625 48.484375 
Q 26.265625 48.484375 22.1875 42.84375 
Q 18.109375 37.203125 18.109375 27.296875 
Q 18.109375 17.390625 22.1875 11.75 
Q 26.265625 6.109375 33.40625 6.109375 
Q 40.53125 6.109375 44.609375 11.75 
Q 48.6875 17.390625 48.6875 27.296875 
z
M 18.109375 46.390625 
Q 20.953125 51.265625 25.265625 53.625 
Q 29.59375 56 35.59375 56 
Q 45.5625 56 51.78125 48.09375 
Q 58.015625 40.1875 58.015625 27.296875 
Q 58.015625 14.40625 51.78125 6.484375 
Q 45.5625 -1.421875 35.59375 -1.421875 
Q 29.59375 -1.421875 25.265625 0.953125 
Q 20.953125 3.328125 18.109375 8.203125 
L 18.109375 0 
L 9.078125 0 
L 9.078125 75.984375 
L 18.109375 75.984375 
z
" id="DejaVuSans-98"/>
      <path d="M 54.890625 54.6875 
L 35.109375 28.078125 
L 55.90625 0 
L 45.3125 0 
L 29.390625 21.484375 
L 13.484375 0 
L 2.875 0 
L 24.125 28.609375 
L 4.6875 54.6875 
L 15.28125 54.6875 
L 29.78125 35.203125 
L 44.28125 54.6875 
z
" id="DejaVuSans-120"/>
      <path d="M 4.890625 31.390625 
L 31.203125 31.390625 
L 31.203125 23.390625 
L 4.890625 23.390625 
z
" id="DejaVuSans-45"/>
      <path d="M 10.6875 12.40625 
L 21 12.40625 
L 21 0 
L 10.6875 0 
z
" id="DejaVuSans-46"/>
      <path d="M 11.71875 12.40625 
L 22.015625 12.40625 
L 22.015625 4 
L 14.015625 -11.625 
L 7.71875 -11.625 
L 11.71875 4 
z
" id="DejaVuSans-44"/>
      <path d="M 44.28125 53.078125 
L 44.28125 44.578125 
Q 40.484375 46.53125 36.375 47.5 
Q 32.28125 48.484375 27.875 48.484375 
Q 21.1875 48.484375 17.84375 46.4375 
Q 14.5 44.390625 14.5 40.28125 
Q 14.5 37.15625 16.890625 35.375 
Q 19.28125 33.59375 26.515625 31.984375 
L 29.59375 31.296875 
Q 39.15625 29.25 43.1875 25.515625 
Q 47.21875 21.78125 47.21875 15.09375 
Q 47.21875 7.46875 41.1875 3.015625 
Q 35.15625 -1.421875 24.609375 -1.421875 
Q 20.21875 -1.421875 15.453125 -0.5625 
Q 10.6875 0.296875 5.421875 2 
L 5.421875 11.28125 
Q 10.40625 8.6875 15.234375 7.390625 
Q 20.0625 6.109375 24.8125 6.109375 
Q 31.15625 6.109375 34.5625 8.28125 
Q 37.984375 10.453125 37.984375 14.40625 
Q 37.984375 18.0625 35.515625 20.015625 
Q 33.0625 21.96875 24.703125 23.78125 
L 21.578125 24.515625 
Q 13.234375 26.265625 9.515625 29.90625 
Q 5.8125 33.546875 5.8125 39.890625 
Q 5.8125 47.609375 11.28125 51.796875 
Q 16.75 56 26.8125 56 
Q 31.78125 56 36.171875 55.265625 
Q 40.578125 54.546875 44.28125 53.078125 
z
" id="DejaVuSans-115"/>
      <path d="M 25.390625 72.90625 
L 33.6875 72.90625 
L 8.296875 -9.28125 
L 0 -9.28125 
z
" id="DejaVuSans-47"/>
      <path d="M 37.109375 75.984375 
L 37.109375 68.5 
L 28.515625 68.5 
Q 23.6875 68.5 21.796875 66.546875 
Q 19.921875 64.59375 19.921875 59.515625 
L 19.921875 54.6875 
L 34.71875 54.6875 
L 34.71875 47.703125 
L 19.921875 47.703125 
L 19.921875 0 
L 10.890625 0 
L 10.890625 47.703125 
L 2.296875 47.703125 
L 2.296875 54.6875 
L 10.890625 54.6875 
L 10.890625 58.5 
Q 10.890625 67.625 15.140625 71.796875 
Q 19.390625 75.984375 28.609375 75.984375 
z
" id="DejaVuSans-102"/>
      <path d="M 5.515625 54.6875 
L 48.1875 54.6875 
L 48.1875 46.484375 
L 14.40625 7.171875 
L 48.1875 7.171875 
L 48.1875 0 
L 4.296875 0 
L 4.296875 8.203125 
L 38.09375 47.515625 
L 5.515625 47.515625 
z
" id="DejaVuSans-122"/>
     </defs>
     <use xlink:href="#DejaVuSans-108"/>
     <use x="27.783203" xlink:href="#DejaVuSans-105"/>
     <use x="55.566406" xlink:href="#DejaVuSans-98"/>
     <use x="119.042969" xlink:href="#DejaVuSans-120"/>
     <use x="178.222656" xlink:href="#DejaVuSans-109"/>
     <use x="275.634766" xlink:href="#DejaVuSans-108"/>
     <use x="303.417969" xlink:href="#DejaVuSans-50"/>
     <use x="367.041016" xlink:href="#DejaVuSans-45"/>
     <use x="400.5" xlink:href="#DejaVuSans-118"/>
     <use x="459.679688" xlink:href="#DejaVuSans-50"/>
     <use x="523.302734" xlink:href="#DejaVuSans-46"/>
     <use x="555.089844" xlink:href="#DejaVuSans-57"/>
     <use x="618.712891" xlink:href="#DejaVuSans-46"/>
     <use x="650.5" xlink:href="#DejaVuSans-50"/>
     <use x="714.123047" xlink:href="#DejaVuSans-32"/>
     <use x="745.910156" xlink:href="#DejaVuSans-40"/>
     <use x="784.923828" xlink:href="#DejaVuSans-50"/>
     <use x="848.546875" xlink:href="#DejaVuSans-50"/>
     <use x="912.169922" xlink:href="#DejaVuSans-104"/>
     <use x="975.548828" xlink:href="#DejaVuSans-58"/>
     <use x="1009.240234" xlink:href="#DejaVuSans-49"/>
     <use x="1072.863281" xlink:href="#DejaVuSans-53"/>
     <use x="1136.486328" xlink:href="#DejaVuSans-109"/>
     <use x="1233.898438" xlink:href="#DejaVuSans-44"/>
     <use x="1265.685547" xlink:href="#DejaVuSans-32"/>
     <use x="1297.472656" xlink:href="#DejaVuSans-52"/>
     <use x="1361.095703" xlink:href="#DejaVuSans-32"/>
     <use x="1392.882812" xlink:href="#DejaVuSans-116"/>
     <use x="1432.091797" xlink:href="#DejaVuSans-114"/>
     <use x="1473.205078" xlink:href="#DejaVuSans-105"/>
     <use x="1500.988281" xlink:href="#DejaVuSans-97"/>
     <use x="1562.267578" xlink:href="#DejaVuSans-108"/>
     <use x="1590.050781" xlink:href="#DejaVuSans-115"/>
     <use x="1642.150391" xlink:href="#DejaVuSans-47"/>
     <use x="1675.841797" xlink:href="#DejaVuSans-102"/>
     <use x="1711.046875" xlink:href="#DejaVuSans-117"/>
     <use x="1774.425781" xlink:href="#DejaVuSans-122"/>
     <use x="1826.916016" xlink:href="#DejaVuSans-122"/>
     <use x="1879.40625" xlink:href="#DejaVuSans-101"/>
     <use x="1940.929688" xlink:href="#DejaVuSans-114"/>
     <use x="1982.042969" xlink:href="#DejaVuSans-41"/>
    </g>
   </g>
   <g id="legend_1">
    <g id="line2d_45">
     <path d="M 771.568125 30.416562 
L 791.568125 30.416562 
" style="fill:none;"/>
    </g>
    <g id="line2d_46"/>
    <g id="text_25">
     <!-- fuzzer -->
     <g transform="translate(799.568125 33.916562)scale(0.1 -0.1)">
      <use xlink:href="#DejaVuSans-102"/>
      <use x="35.205078" xlink:href="#DejaVuSans-117"/>
      <use x="98.583984" xlink:href="#DejaVuSans-122"/>
      <use x="151.074219" xlink:href="#DejaVuSans-122"/>
      <use x="203.564453" xlink:href="#DejaVuSans-101"/>
      <use x="265.087891" xlink:href="#DejaVuSans-114"/>
     </g>
    </g>
    <g id="line2d_47">
     <path d="M 771.568125 45.094688 
L 791.568125 45.094688 
" style="fill:none;stroke:#98df8a;stroke-linecap:square;stroke-width:1.5;"/>
    </g>
    <g id="line2d_48">
     <defs>
      <path d="M -0 3 
L 3 -3 
L -3 -3 
z
" id="m8bab414468" style="stroke:#98df8a;stroke-linejoin:miter;"/>
     </defs>
     <g>
      <use style="fill:#98df8a;stroke:#98df8a;stroke-linejoin:miter;" x="781.568125" xlink:href="#m8bab414468" y="45.094688"/>
     </g>
    </g>
    <g id="text_26">
     <!-- dark_instru_cond -->
     <g transform="translate(799.568125 48.594688)scale(0.1 -0.1)">
      <defs>
       <path d="M 9.078125 75.984375 
L 18.109375 75.984375 
L 18.109375 31.109375 
L 44.921875 54.6875 
L 56.390625 54.6875 
L 27.390625 29.109375 
L 57.625 0 
L 45.90625 0 
L 18.109375 26.703125 
L 18.109375 0 
L 9.078125 0 
z
" id="DejaVuSans-107"/>
       <path d="M 50.984375 -16.609375 
L 50.984375 -23.578125 
L -0.984375 -23.578125 
L -0.984375 -16.609375 
z
" id="DejaVuSans-95"/>
      </defs>
      <use xlink:href="#DejaVuSans-100"/>
      <use x="63.476562" xlink:href="#DejaVuSans-97"/>
      <use x="124.755859" xlink:href="#DejaVuSans-114"/>
      <use x="165.869141" xlink:href="#DejaVuSans-107"/>
      <use x="223.779297" xlink:href="#DejaVuSans-95"/>
      <use x="273.779297" xlink:href="#DejaVuSans-105"/>
      <use x="301.5625" xlink:href="#DejaVuSans-110"/>
      <use x="364.941406" xlink:href="#DejaVuSans-115"/>
      <use x="417.041016" xlink:href="#DejaVuSans-116"/>
      <use x="456.25" xlink:href="#DejaVuSans-114"/>
      <use x="497.363281" xlink:href="#DejaVuSans-117"/>
      <use x="560.742188" xlink:href="#DejaVuSans-95"/>
      <use x="610.742188" xlink:href="#DejaVuSans-99"/>
      <use x="665.722656" xlink:href="#DejaVuSans-111"/>
      <use x="726.904297" xlink:href="#DejaVuSans-110"/>
      <use x="790.283203" xlink:href="#DejaVuSans-100"/>
     </g>
    </g>
    <g id="line2d_49">
     <path d="M 771.568125 60.050937 
L 791.568125 60.050937 
" style="fill:none;stroke:#1f77b4;stroke-linecap:square;stroke-width:1.5;"/>
    </g>
    <g id="line2d_50">
     <defs>
      <path d="M 0 3 
C 0.795609 3 1.55874 2.683901 2.12132 2.12132 
C 2.683901 1.55874 3 0.795609 3 0 
C 3 -0.795609 2.683901 -1.55874 2.12132 -2.12132 
C 1.55874 -2.683901 0.795609 -3 0 -3 
C -0.795609 -3 -1.55874 -2.683901 -2.12132 -2.12132 
C -2.683901 -1.55874 -3 -0.795609 -3 0 
C -3 0.795609 -2.683901 1.55874 -2.12132 2.12132 
C -1.55874 2.683901 -0.795609 3 0 3 
z
" id="mba5b1456e2" style="stroke:#1f77b4;"/>
     </defs>
     <g>
      <use style="fill:#1f77b4;stroke:#1f77b4;" x="781.568125" xlink:href="#mba5b1456e2" y="60.050937"/>
     </g>
    </g>
    <g id="text_27">
     <!-- afldark_dev -->
     <g transform="translate(799.568125 63.550937)scale(0.1 -0.1)">
      <use xlink:href="#DejaVuSans-97"/>
      <use x="61.279297" xlink:href="#DejaVuSans-102"/>
      <use x="96.484375" xlink:href="#DejaVuSans-108"/>
      <use x="124.267578" xlink:href="#DejaVuSans-100"/>
      <use x="187.744141" xlink:href="#DejaVuSans-97"/>
      <use x="249.023438" xlink:href="#DejaVuSans-114"/>
      <use x="290.136719" xlink:href="#DejaVuSans-107"/>
      <use x="348.046875" xlink:href="#DejaVuSans-95"/>
      <use x="398.046875" xlink:href="#DejaVuSans-100"/>
      <use x="461.523438" xlink:href="#DejaVuSans-101"/>
      <use x="523.046875" xlink:href="#DejaVuSans-118"/>
     </g>
    </g>
   </g>
  </g>
 </g>
 <defs>
  <clipPath id="p2e9d641d9a">
   <rect height="266.112" width="714.24" x="53.328125" y="22.318125"/>
  </clipPath>
 </defs>
</svg>
