<?xml version="1.0" encoding="utf-8" standalone="no"?>
<!DOCTYPE svg PUBLIC "-//W3C//DTD SVG 1.1//EN"
  "http://www.w3.org/Graphics/SVG/1.1/DTD/svg11.dtd">
<!-- Created with matplotlib (https://matplotlib.org/) -->
<svg height="325.986375pt" version="1.1" viewBox="0 0 896.143125 325.986375" width="896.143125pt" xmlns="http://www.w3.org/2000/svg" xmlns:xlink="http://www.w3.org/1999/xlink">
 <metadata>
  <rdf:RDF xmlns:cc="http://creativecommons.org/ns#" xmlns:dc="http://purl.org/dc/elements/1.1/" xmlns:rdf="http://www.w3.org/1999/02/22-rdf-syntax-ns#">
   <cc:Work>
    <dc:type rdf:resource="http://purl.org/dc/dcmitype/StillImage"/>
    <dc:date>2020-12-29T17:57:03.362359</dc:date>
    <dc:format>image/svg+xml</dc:format>
    <dc:creator>
     <cc:Agent>
      <dc:title>Matplotlib v3.3.2, https://matplotlib.org/</dc:title>
     </cc:Agent>
    </dc:creator>
   </cc:Work>
  </rdf:RDF>
 </metadata>
 <defs>
  <style type="text/css">*{stroke-linecap:butt;stroke-linejoin:round;}</style>
 </defs>
 <g id="figure_1">
  <g id="patch_1">
   <path d="M 0 325.986375 
L 896.143125 325.986375 
L 896.143125 0 
L 0 0 
z
" style="fill:#ffffff;"/>
  </g>
  <g id="axes_1">
   <g id="patch_2">
    <path d="M 53.328125 288.430125 
L 767.568125 288.430125 
L 767.568125 22.318125 
L 53.328125 22.318125 
z
" style="fill:#ffffff;"/>
   </g>
   <g id="PolyCollection_1">
    <defs>
     <path d="M 85.79358 -83.912227 
L 85.79358 -73.295066 
L 92.851287 -76.145701 
L 99.908995 -106.455513 
L 106.966702 -119.992392 
L 114.02441 -131.180407 
L 121.082117 -133.042046 
L 128.139825 -134.554628 
L 135.197532 -136.183562 
L 142.25524 -140.83766 
L 149.312947 -147.29522 
L 156.370655 -148.487833 
L 163.428362 -160.908456 
L 170.48607 -162.53739 
L 177.543777 -160.559399 
L 184.601485 -165.213497 
L 191.659192 -169.460361 
L 198.7169 -178.768556 
L 205.774607 -183.713535 
L 212.832315 -188.134928 
L 219.890022 -185.691527 
L 226.94773 -186.942315 
L 234.005437 -187.128479 
L 241.063145 -187.553166 
L 248.120852 -188.222192 
L 255.17856 -188.222192 
L 262.236267 -189.094836 
L 269.293975 -189.618422 
L 276.351682 -190.316536 
L 283.40939 -191.625501 
L 290.467097 -192.294528 
L 297.524805 -193.516228 
L 304.582512 -193.516228 
L 311.64022 -193.516228 
L 318.697927 -204.88968 
L 325.755635 -207.0422 
L 332.813342 -209.19472 
L 339.87105 -208.758399 
L 346.928757 -211.638121 
L 353.986465 -211.754474 
L 361.044172 -217.862977 
L 368.10188 -223.244278 
L 375.159587 -223.564247 
L 382.217295 -224.322719 
L 389.275002 -224.611419 
L 396.33271 -224.669595 
L 403.390417 -224.785948 
L 410.448125 -224.873212 
L 417.505833 -224.873212 
L 424.56354 -228.992088 
L 431.621248 -226.065824 
L 438.678955 -226.385794 
L 445.736663 -225.309534 
L 452.79437 -226.385794 
L 459.852078 -226.415609 
L 466.909785 -226.44397 
L 473.967493 -226.44397 
L 481.0252 -226.44397 
L 488.082908 -226.44397 
L 495.140615 -226.44397 
L 502.198323 -226.44397 
L 509.25603 -226.618499 
L 516.313738 -226.618499 
L 523.371445 -226.618499 
L 530.429153 -226.618499 
L 537.48686 -227.345701 
L 544.544568 -227.345701 
L 551.602275 -227.345701 
L 558.659983 -227.345701 
L 565.71769 -227.345701 
L 572.775398 -227.345701 
L 579.833105 -227.05482 
L 586.890813 -227.578406 
L 593.94852 -227.665671 
L 601.006228 -227.840199 
L 608.063935 -227.840199 
L 615.121643 -227.840199 
L 622.17935 -227.840199 
L 629.237058 -227.840199 
L 636.294765 -243.36307 
L 643.352473 -262.77502 
L 650.41018 -262.77502 
L 657.467888 -262.833197 
L 664.525595 -263.007725 
L 671.583303 -263.065901 
L 678.64101 -263.065901 
L 685.698718 -263.124078 
L 692.756425 -263.124078 
L 699.814133 -263.124078 
L 706.87184 -263.124078 
L 713.929548 -263.124078 
L 720.987255 -263.298606 
L 728.044963 -263.298606 
L 735.10267 -262.367787 
L 735.10267 -291.57225 
L 735.10267 -291.57225 
L 728.044963 -282.043712 
L 720.987255 -284.79472 
L 713.929548 -282.043712 
L 706.87184 -281.914997 
L 699.814133 -281.914997 
L 692.756425 -281.914997 
L 685.698718 -281.914997 
L 678.64101 -281.682292 
L 671.583303 -281.682292 
L 664.525595 -281.682292 
L 657.467888 -281.507764 
L 650.41018 -281.507764 
L 643.352473 -281.507764 
L 636.294765 -281.507764 
L 629.237058 -281.10053 
L 622.17935 -281.10053 
L 615.121643 -281.10053 
L 608.063935 -281.042354 
L 601.006228 -281.042354 
L 593.94852 -281.042354 
L 586.890813 -281.042354 
L 579.833105 -281.391411 
L 572.775398 -280.896913 
L 565.71769 -280.286063 
L 558.659983 -280.082446 
L 551.602275 -279.41342 
L 544.544568 -279.41342 
L 537.48686 -273.537621 
L 530.429153 -273.363093 
L 523.371445 -273.363093 
L 516.313738 -273.387818 
L 509.25603 -273.363093 
L 502.198323 -269.449287 
L 495.140615 -273.387818 
L 488.082908 -272.228656 
L 481.0252 -272.228656 
L 473.967493 -272.228656 
L 466.909785 -272.17048 
L 459.852078 -267.224774 
L 452.79437 -267.021884 
L 445.736663 -267.021884 
L 438.678955 -267.021884 
L 431.621248 -266.760091 
L 424.56354 -262.75684 
L 417.505833 -266.585563 
L 410.448125 -262.62958 
L 403.390417 -254.513997 
L 396.33271 -254.281292 
L 389.275002 -254.164939 
L 382.217295 -253.641354 
L 375.159587 -251.605186 
L 368.10188 -250.907071 
L 361.044172 -246.078445 
L 353.986465 -245.263978 
L 346.928757 -244.798568 
L 339.87105 -244.798568 
L 332.813342 -244.44951 
L 325.755635 -244.44951 
L 318.697927 -244.391334 
L 311.64022 -243.984101 
L 304.582512 -243.984101 
L 297.524805 -243.751396 
L 290.467097 -241.07529 
L 283.40939 -239.097298 
L 276.351682 -238.777329 
L 269.293975 -238.544624 
L 262.236267 -238.282831 
L 255.17856 -237.642893 
L 248.120852 -237.177483 
L 241.063145 -235.693989 
L 234.005437 -232.436121 
L 226.94773 -231.999799 
L 219.890022 -229.876367 
L 212.832315 -229.876367 
L 205.774607 -216.292219 
L 198.7169 -208.438429 
L 191.659192 -207.158552 
L 184.601485 -206.11138 
L 177.543777 -203.842508 
L 170.48607 -203.842508 
L 163.428362 -201.34093 
L 156.370655 -200.526463 
L 149.312947 -195.697837 
L 142.25524 -188.483985 
L 135.197532 -182.957244 
L 128.139825 -168.616806 
L 121.082117 -160.763016 
L 114.02441 -155.265363 
L 106.966702 -126.293604 
L 99.908995 -116.461823 
L 92.851287 -96.565555 
L 85.79358 -83.912227 
z
" id="m95c33ef5d3" style="stroke:#98df8a;stroke-opacity:0.2;"/>
    </defs>
    <g clip-path="url(#p2a0a7e1733)">
     <use style="fill:#98df8a;fill-opacity:0.2;stroke:#98df8a;stroke-opacity:0.2;" x="0" xlink:href="#m95c33ef5d3" y="325.986375"/>
    </g>
   </g>
   <g id="PolyCollection_2">
    <defs>
     <path d="M 85.79358 -81.020869 
L 85.79358 -49.65225 
L 92.851287 -76.506394 
L 99.908995 -97.217129 
L 106.966702 -109.922816 
L 114.02441 -115.158676 
L 121.082117 -121.395167 
L 128.139825 -125.979453 
L 135.197532 -127.910903 
L 142.25524 -130.394446 
L 149.312947 -131.750534 
L 156.370655 -133.146763 
L 163.428362 -136.816519 
L 170.48607 -138.68514 
L 177.543777 -144.782008 
L 184.601485 -146.177655 
L 191.659192 -148.482015 
L 198.7169 -150.413466 
L 205.774607 -152.600892 
L 212.832315 -158.092727 
L 219.890022 -160.675751 
L 226.94773 -163.343713 
L 234.005437 -164.096513 
L 241.063145 -170.725694 
L 248.120852 -170.956071 
L 255.17856 -172.33892 
L 262.236267 -167.354382 
L 269.293975 -173.637414 
L 276.351682 -178.640569 
L 283.40939 -179.920445 
L 290.467097 -179.361954 
L 297.524805 -186.31983 
L 304.582512 -186.110395 
L 311.64022 -187.087756 
L 318.697927 -186.78524 
L 325.755635 -187.064485 
L 332.813342 -187.250649 
L 339.87105 -185.575174 
L 346.928757 -188.018576 
L 353.986465 -187.97378 
L 361.044172 -192.304418 
L 368.10188 -194.992159 
L 375.159587 -196.209788 
L 382.217295 -199.490926 
L 389.275002 -199.490926 
L 396.33271 -202.795336 
L 403.390417 -202.167033 
L 410.448125 -202.236844 
L 417.505833 -201.957598 
L 424.56354 -202.795336 
L 431.621248 -204.610434 
L 438.678955 -204.959491 
L 445.736663 -204.051942 
L 452.79437 -204.145024 
L 459.852078 -204.470811 
L 466.909785 -204.470811 
L 473.967493 -205.471442 
L 481.0252 -204.610434 
L 488.082908 -205.122385 
L 495.140615 -205.890311 
L 502.198323 -209.985917 
L 509.25603 -206.029934 
L 516.313738 -216.408572 
L 523.371445 -223.296636 
L 530.429153 -221.062669 
L 537.48686 -221.10921 
L 544.544568 -223.180284 
L 551.602275 -223.296636 
L 558.659983 -223.343177 
L 565.71769 -223.845238 
L 572.775398 -223.552612 
L 579.833105 -244.845109 
L 586.890813 -245.820142 
L 593.94852 -246.171527 
L 601.006228 -246.567125 
L 608.063935 -246.636936 
L 615.121643 -246.33442 
L 622.17935 -246.331511 
L 629.237058 -246.404232 
L 636.294765 -246.404232 
L 643.352473 -249.19669 
L 650.41018 -248.847633 
L 657.467888 -248.801092 
L 664.525595 -249.010526 
L 671.583303 -249.010526 
L 678.64101 -253.652407 
L 685.698718 -249.354929 
L 692.756425 -249.84361 
L 699.814133 -249.731911 
L 706.87184 -250.243862 
L 713.929548 -250.63946 
L 720.987255 -250.63946 
L 728.044963 -250.63946 
L 735.10267 -271.210572 
L 735.10267 -272.723154 
L 735.10267 -272.723154 
L 728.044963 -286.522554 
L 720.987255 -286.359661 
L 713.929548 -286.150226 
L 706.87184 -286.126956 
L 699.814133 -285.940792 
L 692.756425 -285.940792 
L 685.698718 -286.126956 
L 678.64101 -286.080415 
L 671.583303 -286.270651 
L 664.525595 -286.080415 
L 657.467888 -286.220038 
L 650.41018 -285.87098 
L 643.352473 -286.150226 
L 636.294765 -285.801169 
L 629.237058 -286.150226 
L 622.17935 -285.347394 
L 615.121643 -285.801169 
L 608.063935 -286.150226 
L 601.006228 -285.335759 
L 593.94852 -286.126956 
L 586.890813 -285.684816 
L 579.833105 -282.161083 
L 572.775398 -285.545193 
L 565.71769 -285.940792 
L 558.659983 -284.707456 
L 551.602275 -284.265317 
L 544.544568 -284.242046 
L 537.48686 -283.892989 
L 530.429153 -283.892989 
L 523.371445 -283.916259 
L 516.313738 -283.732422 
L 509.25603 -283.357768 
L 502.198323 -282.217514 
L 495.140615 -281.775374 
L 488.082908 -277.493604 
L 481.0252 -278.401153 
L 473.967493 -277.912473 
L 466.909785 -277.898511 
L 459.852078 -277.889203 
L 452.79437 -273.328187 
L 445.736663 -272.606802 
L 438.678955 -272.746425 
L 431.621248 -272.550953 
L 424.56354 -265.416221 
L 417.505833 -265.765278 
L 410.448125 -265.625655 
L 403.390417 -264.741377 
L 396.33271 -265.067163 
L 389.275002 -263.601123 
L 382.217295 -263.071137 
L 375.159587 -262.577221 
L 368.10188 -262.322991 
L 361.044172 -261.530049 
L 353.986465 -260.808664 
L 346.928757 -261.343885 
L 339.87105 -260.785394 
L 332.813342 -261.018098 
L 325.755635 -260.237955 
L 318.697927 -260.13382 
L 311.64022 -257.597337 
L 304.582512 -254.013681 
L 297.524805 -250.895436 
L 290.467097 -247.335051 
L 283.40939 -242.452321 
L 276.351682 -241.796675 
L 269.293975 -235.885971 
L 262.236267 -233.791627 
L 255.17856 -233.793954 
L 248.120852 -233.791627 
L 241.063145 -231.231873 
L 234.005437 -229.067717 
L 226.94773 -222.226194 
L 219.890022 -220.322668 
L 212.832315 -214.175187 
L 205.774607 -212.755105 
L 198.7169 -207.542515 
L 191.659192 -208.612958 
L 184.601485 -185.575174 
L 177.543777 -184.318568 
L 170.48607 -169.937406 
L 163.428362 -169.309103 
L 156.370655 -168.145578 
L 149.312947 -167.098406 
L 142.25524 -164.212866 
L 135.197532 -161.210973 
L 128.139825 -160.142857 
L 121.082117 -155.556244 
L 114.02441 -155.137375 
L 106.966702 -147.039245 
L 99.908995 -133.868148 
L 92.851287 -111.761184 
L 85.79358 -81.020869 
z
" id="m4e1de386fb" style="stroke:#1f77b4;stroke-opacity:0.2;"/>
    </defs>
    <g clip-path="url(#p2a0a7e1733)">
     <use style="fill:#1f77b4;fill-opacity:0.2;stroke:#1f77b4;stroke-opacity:0.2;" x="0" xlink:href="#m4e1de386fb" y="325.986375"/>
    </g>
   </g>
   <g id="matplotlib.axis_1">
    <g id="xtick_1">
     <g id="line2d_1">
      <defs>
       <path d="M 0 0 
L 0 3.5 
" id="m4eaa7dff20" style="stroke:#000000;stroke-width:0.8;"/>
      </defs>
      <g>
       <use style="stroke:#000000;stroke-width:0.8;" x="85.79358" xlink:href="#m4eaa7dff20" y="288.430125"/>
      </g>
     </g>
     <g id="text_1">
      <!-- 15m -->
      <g transform="translate(74.560767 303.028562)scale(0.1 -0.1)">
       <defs>
        <path d="M 12.40625 8.296875 
L 28.515625 8.296875 
L 28.515625 63.921875 
L 10.984375 60.40625 
L 10.984375 69.390625 
L 28.421875 72.90625 
L 38.28125 72.90625 
L 38.28125 8.296875 
L 54.390625 8.296875 
L 54.390625 0 
L 12.40625 0 
z
" id="DejaVuSans-49"/>
        <path d="M 10.796875 72.90625 
L 49.515625 72.90625 
L 49.515625 64.59375 
L 19.828125 64.59375 
L 19.828125 46.734375 
Q 21.96875 47.46875 24.109375 47.828125 
Q 26.265625 48.1875 28.421875 48.1875 
Q 40.625 48.1875 47.75 41.5 
Q 54.890625 34.8125 54.890625 23.390625 
Q 54.890625 11.625 47.5625 5.09375 
Q 40.234375 -1.421875 26.90625 -1.421875 
Q 22.3125 -1.421875 17.546875 -0.640625 
Q 12.796875 0.140625 7.71875 1.703125 
L 7.71875 11.625 
Q 12.109375 9.234375 16.796875 8.0625 
Q 21.484375 6.890625 26.703125 6.890625 
Q 35.15625 6.890625 40.078125 11.328125 
Q 45.015625 15.765625 45.015625 23.390625 
Q 45.015625 31 40.078125 35.4375 
Q 35.15625 39.890625 26.703125 39.890625 
Q 22.75 39.890625 18.8125 39.015625 
Q 14.890625 38.140625 10.796875 36.28125 
z
" id="DejaVuSans-53"/>
        <path d="M 52 44.1875 
Q 55.375 50.25 60.0625 53.125 
Q 64.75 56 71.09375 56 
Q 79.640625 56 84.28125 50.015625 
Q 88.921875 44.046875 88.921875 33.015625 
L 88.921875 0 
L 79.890625 0 
L 79.890625 32.71875 
Q 79.890625 40.578125 77.09375 44.375 
Q 74.3125 48.1875 68.609375 48.1875 
Q 61.625 48.1875 57.5625 43.546875 
Q 53.515625 38.921875 53.515625 30.90625 
L 53.515625 0 
L 44.484375 0 
L 44.484375 32.71875 
Q 44.484375 40.625 41.703125 44.40625 
Q 38.921875 48.1875 33.109375 48.1875 
Q 26.21875 48.1875 22.15625 43.53125 
Q 18.109375 38.875 18.109375 30.90625 
L 18.109375 0 
L 9.078125 0 
L 9.078125 54.6875 
L 18.109375 54.6875 
L 18.109375 46.1875 
Q 21.1875 51.21875 25.484375 53.609375 
Q 29.78125 56 35.6875 56 
Q 41.65625 56 45.828125 52.96875 
Q 50 49.953125 52 44.1875 
z
" id="DejaVuSans-109"/>
       </defs>
       <use xlink:href="#DejaVuSans-49"/>
       <use x="63.623047" xlink:href="#DejaVuSans-53"/>
       <use x="127.246094" xlink:href="#DejaVuSans-109"/>
      </g>
     </g>
    </g>
    <g id="xtick_2">
     <g id="line2d_2">
      <g>
       <use style="stroke:#000000;stroke-width:0.8;" x="140.490813" xlink:href="#m4eaa7dff20" y="288.430125"/>
      </g>
     </g>
     <g id="text_2">
      <!-- 2h:11m -->
      <g transform="translate(121.223625 303.028562)scale(0.1 -0.1)">
       <defs>
        <path d="M 19.1875 8.296875 
L 53.609375 8.296875 
L 53.609375 0 
L 7.328125 0 
L 7.328125 8.296875 
Q 12.9375 14.109375 22.625 23.890625 
Q 32.328125 33.6875 34.8125 36.53125 
Q 39.546875 41.84375 41.421875 45.53125 
Q 43.3125 49.21875 43.3125 52.78125 
Q 43.3125 58.59375 39.234375 62.25 
Q 35.15625 65.921875 28.609375 65.921875 
Q 23.96875 65.921875 18.8125 64.3125 
Q 13.671875 62.703125 7.8125 59.421875 
L 7.8125 69.390625 
Q 13.765625 71.78125 18.9375 73 
Q 24.125 74.21875 28.421875 74.21875 
Q 39.75 74.21875 46.484375 68.546875 
Q 53.21875 62.890625 53.21875 53.421875 
Q 53.21875 48.921875 51.53125 44.890625 
Q 49.859375 40.875 45.40625 35.40625 
Q 44.1875 33.984375 37.640625 27.21875 
Q 31.109375 20.453125 19.1875 8.296875 
z
" id="DejaVuSans-50"/>
        <path d="M 54.890625 33.015625 
L 54.890625 0 
L 45.90625 0 
L 45.90625 32.71875 
Q 45.90625 40.484375 42.875 44.328125 
Q 39.84375 48.1875 33.796875 48.1875 
Q 26.515625 48.1875 22.3125 43.546875 
Q 18.109375 38.921875 18.109375 30.90625 
L 18.109375 0 
L 9.078125 0 
L 9.078125 75.984375 
L 18.109375 75.984375 
L 18.109375 46.1875 
Q 21.34375 51.125 25.703125 53.5625 
Q 30.078125 56 35.796875 56 
Q 45.21875 56 50.046875 50.171875 
Q 54.890625 44.34375 54.890625 33.015625 
z
" id="DejaVuSans-104"/>
        <path d="M 11.71875 12.40625 
L 22.015625 12.40625 
L 22.015625 0 
L 11.71875 0 
z
M 11.71875 51.703125 
L 22.015625 51.703125 
L 22.015625 39.3125 
L 11.71875 39.3125 
z
" id="DejaVuSans-58"/>
       </defs>
       <use xlink:href="#DejaVuSans-50"/>
       <use x="63.623047" xlink:href="#DejaVuSans-104"/>
       <use x="127.001953" xlink:href="#DejaVuSans-58"/>
       <use x="160.693359" xlink:href="#DejaVuSans-49"/>
       <use x="224.316406" xlink:href="#DejaVuSans-49"/>
       <use x="287.939453" xlink:href="#DejaVuSans-109"/>
      </g>
     </g>
    </g>
    <g id="xtick_3">
     <g id="line2d_3">
      <g>
       <use style="stroke:#000000;stroke-width:0.8;" x="195.188046" xlink:href="#m4eaa7dff20" y="288.430125"/>
      </g>
     </g>
     <g id="text_3">
      <!-- 4h:7m -->
      <g transform="translate(179.102108 303.028562)scale(0.1 -0.1)">
       <defs>
        <path d="M 37.796875 64.3125 
L 12.890625 25.390625 
L 37.796875 25.390625 
z
M 35.203125 72.90625 
L 47.609375 72.90625 
L 47.609375 25.390625 
L 58.015625 25.390625 
L 58.015625 17.1875 
L 47.609375 17.1875 
L 47.609375 0 
L 37.796875 0 
L 37.796875 17.1875 
L 4.890625 17.1875 
L 4.890625 26.703125 
z
" id="DejaVuSans-52"/>
        <path d="M 8.203125 72.90625 
L 55.078125 72.90625 
L 55.078125 68.703125 
L 28.609375 0 
L 18.3125 0 
L 43.21875 64.59375 
L 8.203125 64.59375 
z
" id="DejaVuSans-55"/>
       </defs>
       <use xlink:href="#DejaVuSans-52"/>
       <use x="63.623047" xlink:href="#DejaVuSans-104"/>
       <use x="127.001953" xlink:href="#DejaVuSans-58"/>
       <use x="160.693359" xlink:href="#DejaVuSans-55"/>
       <use x="224.316406" xlink:href="#DejaVuSans-109"/>
      </g>
     </g>
    </g>
    <g id="xtick_4">
     <g id="line2d_4">
      <g>
       <use style="stroke:#000000;stroke-width:0.8;" x="249.885279" xlink:href="#m4eaa7dff20" y="288.430125"/>
      </g>
     </g>
     <g id="text_4">
      <!-- 6h:3m -->
      <g transform="translate(233.799342 303.028562)scale(0.1 -0.1)">
       <defs>
        <path d="M 33.015625 40.375 
Q 26.375 40.375 22.484375 35.828125 
Q 18.609375 31.296875 18.609375 23.390625 
Q 18.609375 15.53125 22.484375 10.953125 
Q 26.375 6.390625 33.015625 6.390625 
Q 39.65625 6.390625 43.53125 10.953125 
Q 47.40625 15.53125 47.40625 23.390625 
Q 47.40625 31.296875 43.53125 35.828125 
Q 39.65625 40.375 33.015625 40.375 
z
M 52.59375 71.296875 
L 52.59375 62.3125 
Q 48.875 64.0625 45.09375 64.984375 
Q 41.3125 65.921875 37.59375 65.921875 
Q 27.828125 65.921875 22.671875 59.328125 
Q 17.53125 52.734375 16.796875 39.40625 
Q 19.671875 43.65625 24.015625 45.921875 
Q 28.375 48.1875 33.59375 48.1875 
Q 44.578125 48.1875 50.953125 41.515625 
Q 57.328125 34.859375 57.328125 23.390625 
Q 57.328125 12.15625 50.6875 5.359375 
Q 44.046875 -1.421875 33.015625 -1.421875 
Q 20.359375 -1.421875 13.671875 8.265625 
Q 6.984375 17.96875 6.984375 36.375 
Q 6.984375 53.65625 15.1875 63.9375 
Q 23.390625 74.21875 37.203125 74.21875 
Q 40.921875 74.21875 44.703125 73.484375 
Q 48.484375 72.75 52.59375 71.296875 
z
" id="DejaVuSans-54"/>
        <path d="M 40.578125 39.3125 
Q 47.65625 37.796875 51.625 33 
Q 55.609375 28.21875 55.609375 21.1875 
Q 55.609375 10.40625 48.1875 4.484375 
Q 40.765625 -1.421875 27.09375 -1.421875 
Q 22.515625 -1.421875 17.65625 -0.515625 
Q 12.796875 0.390625 7.625 2.203125 
L 7.625 11.71875 
Q 11.71875 9.328125 16.59375 8.109375 
Q 21.484375 6.890625 26.8125 6.890625 
Q 36.078125 6.890625 40.9375 10.546875 
Q 45.796875 14.203125 45.796875 21.1875 
Q 45.796875 27.640625 41.28125 31.265625 
Q 36.765625 34.90625 28.71875 34.90625 
L 20.21875 34.90625 
L 20.21875 43.015625 
L 29.109375 43.015625 
Q 36.375 43.015625 40.234375 45.921875 
Q 44.09375 48.828125 44.09375 54.296875 
Q 44.09375 59.90625 40.109375 62.90625 
Q 36.140625 65.921875 28.71875 65.921875 
Q 24.65625 65.921875 20.015625 65.03125 
Q 15.375 64.15625 9.8125 62.3125 
L 9.8125 71.09375 
Q 15.4375 72.65625 20.34375 73.4375 
Q 25.25 74.21875 29.59375 74.21875 
Q 40.828125 74.21875 47.359375 69.109375 
Q 53.90625 64.015625 53.90625 55.328125 
Q 53.90625 49.265625 50.4375 45.09375 
Q 46.96875 40.921875 40.578125 39.3125 
z
" id="DejaVuSans-51"/>
       </defs>
       <use xlink:href="#DejaVuSans-54"/>
       <use x="63.623047" xlink:href="#DejaVuSans-104"/>
       <use x="127.001953" xlink:href="#DejaVuSans-58"/>
       <use x="160.693359" xlink:href="#DejaVuSans-51"/>
       <use x="224.316406" xlink:href="#DejaVuSans-109"/>
      </g>
     </g>
    </g>
    <g id="xtick_5">
     <g id="line2d_5">
      <g>
       <use style="stroke:#000000;stroke-width:0.8;" x="304.582512" xlink:href="#m4eaa7dff20" y="288.430125"/>
      </g>
     </g>
     <g id="text_5">
      <!-- 8h -->
      <g transform="translate(298.232512 303.028562)scale(0.1 -0.1)">
       <defs>
        <path d="M 31.78125 34.625 
Q 24.75 34.625 20.71875 30.859375 
Q 16.703125 27.09375 16.703125 20.515625 
Q 16.703125 13.921875 20.71875 10.15625 
Q 24.75 6.390625 31.78125 6.390625 
Q 38.8125 6.390625 42.859375 10.171875 
Q 46.921875 13.96875 46.921875 20.515625 
Q 46.921875 27.09375 42.890625 30.859375 
Q 38.875 34.625 31.78125 34.625 
z
M 21.921875 38.8125 
Q 15.578125 40.375 12.03125 44.71875 
Q 8.5 49.078125 8.5 55.328125 
Q 8.5 64.0625 14.71875 69.140625 
Q 20.953125 74.21875 31.78125 74.21875 
Q 42.671875 74.21875 48.875 69.140625 
Q 55.078125 64.0625 55.078125 55.328125 
Q 55.078125 49.078125 51.53125 44.71875 
Q 48 40.375 41.703125 38.8125 
Q 48.828125 37.15625 52.796875 32.3125 
Q 56.78125 27.484375 56.78125 20.515625 
Q 56.78125 9.90625 50.3125 4.234375 
Q 43.84375 -1.421875 31.78125 -1.421875 
Q 19.734375 -1.421875 13.25 4.234375 
Q 6.78125 9.90625 6.78125 20.515625 
Q 6.78125 27.484375 10.78125 32.3125 
Q 14.796875 37.15625 21.921875 38.8125 
z
M 18.3125 54.390625 
Q 18.3125 48.734375 21.84375 45.5625 
Q 25.390625 42.390625 31.78125 42.390625 
Q 38.140625 42.390625 41.71875 45.5625 
Q 45.3125 48.734375 45.3125 54.390625 
Q 45.3125 60.0625 41.71875 63.234375 
Q 38.140625 66.40625 31.78125 66.40625 
Q 25.390625 66.40625 21.84375 63.234375 
Q 18.3125 60.0625 18.3125 54.390625 
z
" id="DejaVuSans-56"/>
       </defs>
       <use xlink:href="#DejaVuSans-56"/>
       <use x="63.623047" xlink:href="#DejaVuSans-104"/>
      </g>
     </g>
    </g>
    <g id="xtick_6">
     <g id="line2d_6">
      <g>
       <use style="stroke:#000000;stroke-width:0.8;" x="359.279746" xlink:href="#m4eaa7dff20" y="288.430125"/>
      </g>
     </g>
     <g id="text_6">
      <!-- 9h:56m -->
      <g transform="translate(340.012558 303.028562)scale(0.1 -0.1)">
       <defs>
        <path d="M 10.984375 1.515625 
L 10.984375 10.5 
Q 14.703125 8.734375 18.5 7.8125 
Q 22.3125 6.890625 25.984375 6.890625 
Q 35.75 6.890625 40.890625 13.453125 
Q 46.046875 20.015625 46.78125 33.40625 
Q 43.953125 29.203125 39.59375 26.953125 
Q 35.25 24.703125 29.984375 24.703125 
Q 19.046875 24.703125 12.671875 31.3125 
Q 6.296875 37.9375 6.296875 49.421875 
Q 6.296875 60.640625 12.9375 67.421875 
Q 19.578125 74.21875 30.609375 74.21875 
Q 43.265625 74.21875 49.921875 64.515625 
Q 56.59375 54.828125 56.59375 36.375 
Q 56.59375 19.140625 48.40625 8.859375 
Q 40.234375 -1.421875 26.421875 -1.421875 
Q 22.703125 -1.421875 18.890625 -0.6875 
Q 15.09375 0.046875 10.984375 1.515625 
z
M 30.609375 32.421875 
Q 37.25 32.421875 41.125 36.953125 
Q 45.015625 41.5 45.015625 49.421875 
Q 45.015625 57.28125 41.125 61.84375 
Q 37.25 66.40625 30.609375 66.40625 
Q 23.96875 66.40625 20.09375 61.84375 
Q 16.21875 57.28125 16.21875 49.421875 
Q 16.21875 41.5 20.09375 36.953125 
Q 23.96875 32.421875 30.609375 32.421875 
z
" id="DejaVuSans-57"/>
       </defs>
       <use xlink:href="#DejaVuSans-57"/>
       <use x="63.623047" xlink:href="#DejaVuSans-104"/>
       <use x="127.001953" xlink:href="#DejaVuSans-58"/>
       <use x="160.693359" xlink:href="#DejaVuSans-53"/>
       <use x="224.316406" xlink:href="#DejaVuSans-54"/>
       <use x="287.939453" xlink:href="#DejaVuSans-109"/>
      </g>
     </g>
    </g>
    <g id="xtick_7">
     <g id="line2d_7">
      <g>
       <use style="stroke:#000000;stroke-width:0.8;" x="413.976979" xlink:href="#m4eaa7dff20" y="288.430125"/>
      </g>
     </g>
     <g id="text_7">
      <!-- 11h:52m -->
      <g transform="translate(391.528541 303.028562)scale(0.1 -0.1)">
       <use xlink:href="#DejaVuSans-49"/>
       <use x="63.623047" xlink:href="#DejaVuSans-49"/>
       <use x="127.246094" xlink:href="#DejaVuSans-104"/>
       <use x="190.625" xlink:href="#DejaVuSans-58"/>
       <use x="224.316406" xlink:href="#DejaVuSans-53"/>
       <use x="287.939453" xlink:href="#DejaVuSans-50"/>
       <use x="351.5625" xlink:href="#DejaVuSans-109"/>
      </g>
     </g>
    </g>
    <g id="xtick_8">
     <g id="line2d_8">
      <g>
       <use style="stroke:#000000;stroke-width:0.8;" x="468.674212" xlink:href="#m4eaa7dff20" y="288.430125"/>
      </g>
     </g>
     <g id="text_8">
      <!-- 13h:48m -->
      <g transform="translate(446.225774 303.028562)scale(0.1 -0.1)">
       <use xlink:href="#DejaVuSans-49"/>
       <use x="63.623047" xlink:href="#DejaVuSans-51"/>
       <use x="127.246094" xlink:href="#DejaVuSans-104"/>
       <use x="190.625" xlink:href="#DejaVuSans-58"/>
       <use x="224.316406" xlink:href="#DejaVuSans-52"/>
       <use x="287.939453" xlink:href="#DejaVuSans-56"/>
       <use x="351.5625" xlink:href="#DejaVuSans-109"/>
      </g>
     </g>
    </g>
    <g id="xtick_9">
     <g id="line2d_9">
      <g>
       <use style="stroke:#000000;stroke-width:0.8;" x="523.371445" xlink:href="#m4eaa7dff20" y="288.430125"/>
      </g>
     </g>
     <g id="text_9">
      <!-- 15h:45m -->
      <g transform="translate(500.923008 303.028562)scale(0.1 -0.1)">
       <use xlink:href="#DejaVuSans-49"/>
       <use x="63.623047" xlink:href="#DejaVuSans-53"/>
       <use x="127.246094" xlink:href="#DejaVuSans-104"/>
       <use x="190.625" xlink:href="#DejaVuSans-58"/>
       <use x="224.316406" xlink:href="#DejaVuSans-52"/>
       <use x="287.939453" xlink:href="#DejaVuSans-53"/>
       <use x="351.5625" xlink:href="#DejaVuSans-109"/>
      </g>
     </g>
    </g>
    <g id="xtick_10">
     <g id="line2d_10">
      <g>
       <use style="stroke:#000000;stroke-width:0.8;" x="578.068678" xlink:href="#m4eaa7dff20" y="288.430125"/>
      </g>
     </g>
     <g id="text_10">
      <!-- 17h:41m -->
      <g transform="translate(555.620241 303.028562)scale(0.1 -0.1)">
       <use xlink:href="#DejaVuSans-49"/>
       <use x="63.623047" xlink:href="#DejaVuSans-55"/>
       <use x="127.246094" xlink:href="#DejaVuSans-104"/>
       <use x="190.625" xlink:href="#DejaVuSans-58"/>
       <use x="224.316406" xlink:href="#DejaVuSans-52"/>
       <use x="287.939453" xlink:href="#DejaVuSans-49"/>
       <use x="351.5625" xlink:href="#DejaVuSans-109"/>
      </g>
     </g>
    </g>
    <g id="xtick_11">
     <g id="line2d_11">
      <g>
       <use style="stroke:#000000;stroke-width:0.8;" x="632.765912" xlink:href="#m4eaa7dff20" y="288.430125"/>
      </g>
     </g>
     <g id="text_11">
      <!-- 19h:37m -->
      <g transform="translate(610.317474 303.028562)scale(0.1 -0.1)">
       <use xlink:href="#DejaVuSans-49"/>
       <use x="63.623047" xlink:href="#DejaVuSans-57"/>
       <use x="127.246094" xlink:href="#DejaVuSans-104"/>
       <use x="190.625" xlink:href="#DejaVuSans-58"/>
       <use x="224.316406" xlink:href="#DejaVuSans-51"/>
       <use x="287.939453" xlink:href="#DejaVuSans-55"/>
       <use x="351.5625" xlink:href="#DejaVuSans-109"/>
      </g>
     </g>
    </g>
    <g id="xtick_12">
     <g id="line2d_12">
      <g>
       <use style="stroke:#000000;stroke-width:0.8;" x="687.463145" xlink:href="#m4eaa7dff20" y="288.430125"/>
      </g>
     </g>
     <g id="text_12">
      <!-- 21h:33m -->
      <g transform="translate(665.014707 303.028562)scale(0.1 -0.1)">
       <use xlink:href="#DejaVuSans-50"/>
       <use x="63.623047" xlink:href="#DejaVuSans-49"/>
       <use x="127.246094" xlink:href="#DejaVuSans-104"/>
       <use x="190.625" xlink:href="#DejaVuSans-58"/>
       <use x="224.316406" xlink:href="#DejaVuSans-51"/>
       <use x="287.939453" xlink:href="#DejaVuSans-51"/>
       <use x="351.5625" xlink:href="#DejaVuSans-109"/>
      </g>
     </g>
    </g>
    <g id="text_13">
     <!-- Time (hour:minute) -->
     <g transform="translate(362.041094 316.706687)scale(0.1 -0.1)">
      <defs>
       <path d="M -0.296875 72.90625 
L 61.375 72.90625 
L 61.375 64.59375 
L 35.5 64.59375 
L 35.5 0 
L 25.59375 0 
L 25.59375 64.59375 
L -0.296875 64.59375 
z
" id="DejaVuSans-84"/>
       <path d="M 9.421875 54.6875 
L 18.40625 54.6875 
L 18.40625 0 
L 9.421875 0 
z
M 9.421875 75.984375 
L 18.40625 75.984375 
L 18.40625 64.59375 
L 9.421875 64.59375 
z
" id="DejaVuSans-105"/>
       <path d="M 56.203125 29.59375 
L 56.203125 25.203125 
L 14.890625 25.203125 
Q 15.484375 15.921875 20.484375 11.0625 
Q 25.484375 6.203125 34.421875 6.203125 
Q 39.59375 6.203125 44.453125 7.46875 
Q 49.3125 8.734375 54.109375 11.28125 
L 54.109375 2.78125 
Q 49.265625 0.734375 44.1875 -0.34375 
Q 39.109375 -1.421875 33.890625 -1.421875 
Q 20.796875 -1.421875 13.15625 6.1875 
Q 5.515625 13.8125 5.515625 26.8125 
Q 5.515625 40.234375 12.765625 48.109375 
Q 20.015625 56 32.328125 56 
Q 43.359375 56 49.78125 48.890625 
Q 56.203125 41.796875 56.203125 29.59375 
z
M 47.21875 32.234375 
Q 47.125 39.59375 43.09375 43.984375 
Q 39.0625 48.390625 32.421875 48.390625 
Q 24.90625 48.390625 20.390625 44.140625 
Q 15.875 39.890625 15.1875 32.171875 
z
" id="DejaVuSans-101"/>
       <path id="DejaVuSans-32"/>
       <path d="M 31 75.875 
Q 24.46875 64.65625 21.28125 53.65625 
Q 18.109375 42.671875 18.109375 31.390625 
Q 18.109375 20.125 21.3125 9.0625 
Q 24.515625 -2 31 -13.1875 
L 23.1875 -13.1875 
Q 15.875 -1.703125 12.234375 9.375 
Q 8.59375 20.453125 8.59375 31.390625 
Q 8.59375 42.28125 12.203125 53.3125 
Q 15.828125 64.359375 23.1875 75.875 
z
" id="DejaVuSans-40"/>
       <path d="M 30.609375 48.390625 
Q 23.390625 48.390625 19.1875 42.75 
Q 14.984375 37.109375 14.984375 27.296875 
Q 14.984375 17.484375 19.15625 11.84375 
Q 23.34375 6.203125 30.609375 6.203125 
Q 37.796875 6.203125 41.984375 11.859375 
Q 46.1875 17.53125 46.1875 27.296875 
Q 46.1875 37.015625 41.984375 42.703125 
Q 37.796875 48.390625 30.609375 48.390625 
z
M 30.609375 56 
Q 42.328125 56 49.015625 48.375 
Q 55.71875 40.765625 55.71875 27.296875 
Q 55.71875 13.875 49.015625 6.21875 
Q 42.328125 -1.421875 30.609375 -1.421875 
Q 18.84375 -1.421875 12.171875 6.21875 
Q 5.515625 13.875 5.515625 27.296875 
Q 5.515625 40.765625 12.171875 48.375 
Q 18.84375 56 30.609375 56 
z
" id="DejaVuSans-111"/>
       <path d="M 8.5 21.578125 
L 8.5 54.6875 
L 17.484375 54.6875 
L 17.484375 21.921875 
Q 17.484375 14.15625 20.5 10.265625 
Q 23.53125 6.390625 29.59375 6.390625 
Q 36.859375 6.390625 41.078125 11.03125 
Q 45.3125 15.671875 45.3125 23.6875 
L 45.3125 54.6875 
L 54.296875 54.6875 
L 54.296875 0 
L 45.3125 0 
L 45.3125 8.40625 
Q 42.046875 3.421875 37.71875 1 
Q 33.40625 -1.421875 27.6875 -1.421875 
Q 18.265625 -1.421875 13.375 4.4375 
Q 8.5 10.296875 8.5 21.578125 
z
M 31.109375 56 
z
" id="DejaVuSans-117"/>
       <path d="M 41.109375 46.296875 
Q 39.59375 47.171875 37.8125 47.578125 
Q 36.03125 48 33.890625 48 
Q 26.265625 48 22.1875 43.046875 
Q 18.109375 38.09375 18.109375 28.8125 
L 18.109375 0 
L 9.078125 0 
L 9.078125 54.6875 
L 18.109375 54.6875 
L 18.109375 46.1875 
Q 20.953125 51.171875 25.484375 53.578125 
Q 30.03125 56 36.53125 56 
Q 37.453125 56 38.578125 55.875 
Q 39.703125 55.765625 41.0625 55.515625 
z
" id="DejaVuSans-114"/>
       <path d="M 54.890625 33.015625 
L 54.890625 0 
L 45.90625 0 
L 45.90625 32.71875 
Q 45.90625 40.484375 42.875 44.328125 
Q 39.84375 48.1875 33.796875 48.1875 
Q 26.515625 48.1875 22.3125 43.546875 
Q 18.109375 38.921875 18.109375 30.90625 
L 18.109375 0 
L 9.078125 0 
L 9.078125 54.6875 
L 18.109375 54.6875 
L 18.109375 46.1875 
Q 21.34375 51.125 25.703125 53.5625 
Q 30.078125 56 35.796875 56 
Q 45.21875 56 50.046875 50.171875 
Q 54.890625 44.34375 54.890625 33.015625 
z
" id="DejaVuSans-110"/>
       <path d="M 18.3125 70.21875 
L 18.3125 54.6875 
L 36.8125 54.6875 
L 36.8125 47.703125 
L 18.3125 47.703125 
L 18.3125 18.015625 
Q 18.3125 11.328125 20.140625 9.421875 
Q 21.96875 7.515625 27.59375 7.515625 
L 36.8125 7.515625 
L 36.8125 0 
L 27.59375 0 
Q 17.1875 0 13.234375 3.875 
Q 9.28125 7.765625 9.28125 18.015625 
L 9.28125 47.703125 
L 2.6875 47.703125 
L 2.6875 54.6875 
L 9.28125 54.6875 
L 9.28125 70.21875 
z
" id="DejaVuSans-116"/>
       <path d="M 8.015625 75.875 
L 15.828125 75.875 
Q 23.140625 64.359375 26.78125 53.3125 
Q 30.421875 42.28125 30.421875 31.390625 
Q 30.421875 20.453125 26.78125 9.375 
Q 23.140625 -1.703125 15.828125 -13.1875 
L 8.015625 -13.1875 
Q 14.5 -2 17.703125 9.0625 
Q 20.90625 20.125 20.90625 31.390625 
Q 20.90625 42.671875 17.703125 53.65625 
Q 14.5 64.65625 8.015625 75.875 
z
" id="DejaVuSans-41"/>
      </defs>
      <use xlink:href="#DejaVuSans-84"/>
      <use x="57.958984" xlink:href="#DejaVuSans-105"/>
      <use x="85.742188" xlink:href="#DejaVuSans-109"/>
      <use x="183.154297" xlink:href="#DejaVuSans-101"/>
      <use x="244.677734" xlink:href="#DejaVuSans-32"/>
      <use x="276.464844" xlink:href="#DejaVuSans-40"/>
      <use x="315.478516" xlink:href="#DejaVuSans-104"/>
      <use x="378.857422" xlink:href="#DejaVuSans-111"/>
      <use x="440.039062" xlink:href="#DejaVuSans-117"/>
      <use x="503.417969" xlink:href="#DejaVuSans-114"/>
      <use x="542.78125" xlink:href="#DejaVuSans-58"/>
      <use x="576.472656" xlink:href="#DejaVuSans-109"/>
      <use x="673.884766" xlink:href="#DejaVuSans-105"/>
      <use x="701.667969" xlink:href="#DejaVuSans-110"/>
      <use x="765.046875" xlink:href="#DejaVuSans-117"/>
      <use x="828.425781" xlink:href="#DejaVuSans-116"/>
      <use x="867.634766" xlink:href="#DejaVuSans-101"/>
      <use x="929.158203" xlink:href="#DejaVuSans-41"/>
     </g>
    </g>
   </g>
   <g id="matplotlib.axis_2">
    <g id="ytick_1">
     <g id="line2d_13">
      <defs>
       <path d="M 0 0 
L -3.5 0 
" id="m2f9c673ef5" style="stroke:#000000;stroke-width:0.8;"/>
      </defs>
      <g>
       <use style="stroke:#000000;stroke-width:0.8;" x="53.328125" xlink:href="#m2f9c673ef5" y="274.332863"/>
      </g>
     </g>
     <g id="text_14">
      <!-- 4000 -->
      <g transform="translate(20.878125 278.132082)scale(0.1 -0.1)">
       <defs>
        <path d="M 31.78125 66.40625 
Q 24.171875 66.40625 20.328125 58.90625 
Q 16.5 51.421875 16.5 36.375 
Q 16.5 21.390625 20.328125 13.890625 
Q 24.171875 6.390625 31.78125 6.390625 
Q 39.453125 6.390625 43.28125 13.890625 
Q 47.125 21.390625 47.125 36.375 
Q 47.125 51.421875 43.28125 58.90625 
Q 39.453125 66.40625 31.78125 66.40625 
z
M 31.78125 74.21875 
Q 44.046875 74.21875 50.515625 64.515625 
Q 56.984375 54.828125 56.984375 36.375 
Q 56.984375 17.96875 50.515625 8.265625 
Q 44.046875 -1.421875 31.78125 -1.421875 
Q 19.53125 -1.421875 13.0625 8.265625 
Q 6.59375 17.96875 6.59375 36.375 
Q 6.59375 54.828125 13.0625 64.515625 
Q 19.53125 74.21875 31.78125 74.21875 
z
" id="DejaVuSans-48"/>
       </defs>
       <use xlink:href="#DejaVuSans-52"/>
       <use x="63.623047" xlink:href="#DejaVuSans-48"/>
       <use x="127.246094" xlink:href="#DejaVuSans-48"/>
       <use x="190.869141" xlink:href="#DejaVuSans-48"/>
      </g>
     </g>
    </g>
    <g id="ytick_2">
     <g id="line2d_14">
      <g>
       <use style="stroke:#000000;stroke-width:0.8;" x="53.328125" xlink:href="#m2f9c673ef5" y="216.156641"/>
      </g>
     </g>
     <g id="text_15">
      <!-- 4500 -->
      <g transform="translate(20.878125 219.95586)scale(0.1 -0.1)">
       <use xlink:href="#DejaVuSans-52"/>
       <use x="63.623047" xlink:href="#DejaVuSans-53"/>
       <use x="127.246094" xlink:href="#DejaVuSans-48"/>
       <use x="190.869141" xlink:href="#DejaVuSans-48"/>
      </g>
     </g>
    </g>
    <g id="ytick_3">
     <g id="line2d_15">
      <g>
       <use style="stroke:#000000;stroke-width:0.8;" x="53.328125" xlink:href="#m2f9c673ef5" y="157.98042"/>
      </g>
     </g>
     <g id="text_16">
      <!-- 5000 -->
      <g transform="translate(20.878125 161.779638)scale(0.1 -0.1)">
       <use xlink:href="#DejaVuSans-53"/>
       <use x="63.623047" xlink:href="#DejaVuSans-48"/>
       <use x="127.246094" xlink:href="#DejaVuSans-48"/>
       <use x="190.869141" xlink:href="#DejaVuSans-48"/>
      </g>
     </g>
    </g>
    <g id="ytick_4">
     <g id="line2d_16">
      <g>
       <use style="stroke:#000000;stroke-width:0.8;" x="53.328125" xlink:href="#m2f9c673ef5" y="99.804198"/>
      </g>
     </g>
     <g id="text_17">
      <!-- 5500 -->
      <g transform="translate(20.878125 103.603417)scale(0.1 -0.1)">
       <use xlink:href="#DejaVuSans-53"/>
       <use x="63.623047" xlink:href="#DejaVuSans-53"/>
       <use x="127.246094" xlink:href="#DejaVuSans-48"/>
       <use x="190.869141" xlink:href="#DejaVuSans-48"/>
      </g>
     </g>
    </g>
    <g id="ytick_5">
     <g id="line2d_17">
      <g>
       <use style="stroke:#000000;stroke-width:0.8;" x="53.328125" xlink:href="#m2f9c673ef5" y="41.627976"/>
      </g>
     </g>
     <g id="text_18">
      <!-- 6000 -->
      <g transform="translate(20.878125 45.427195)scale(0.1 -0.1)">
       <use xlink:href="#DejaVuSans-54"/>
       <use x="63.623047" xlink:href="#DejaVuSans-48"/>
       <use x="127.246094" xlink:href="#DejaVuSans-48"/>
       <use x="190.869141" xlink:href="#DejaVuSans-48"/>
      </g>
     </g>
    </g>
    <g id="text_19">
     <!-- Edge coverage -->
     <g transform="translate(14.798438 192.762406)rotate(-90)scale(0.1 -0.1)">
      <defs>
       <path d="M 9.8125 72.90625 
L 55.90625 72.90625 
L 55.90625 64.59375 
L 19.671875 64.59375 
L 19.671875 43.015625 
L 54.390625 43.015625 
L 54.390625 34.71875 
L 19.671875 34.71875 
L 19.671875 8.296875 
L 56.78125 8.296875 
L 56.78125 0 
L 9.8125 0 
z
" id="DejaVuSans-69"/>
       <path d="M 45.40625 46.390625 
L 45.40625 75.984375 
L 54.390625 75.984375 
L 54.390625 0 
L 45.40625 0 
L 45.40625 8.203125 
Q 42.578125 3.328125 38.25 0.953125 
Q 33.9375 -1.421875 27.875 -1.421875 
Q 17.96875 -1.421875 11.734375 6.484375 
Q 5.515625 14.40625 5.515625 27.296875 
Q 5.515625 40.1875 11.734375 48.09375 
Q 17.96875 56 27.875 56 
Q 33.9375 56 38.25 53.625 
Q 42.578125 51.265625 45.40625 46.390625 
z
M 14.796875 27.296875 
Q 14.796875 17.390625 18.875 11.75 
Q 22.953125 6.109375 30.078125 6.109375 
Q 37.203125 6.109375 41.296875 11.75 
Q 45.40625 17.390625 45.40625 27.296875 
Q 45.40625 37.203125 41.296875 42.84375 
Q 37.203125 48.484375 30.078125 48.484375 
Q 22.953125 48.484375 18.875 42.84375 
Q 14.796875 37.203125 14.796875 27.296875 
z
" id="DejaVuSans-100"/>
       <path d="M 45.40625 27.984375 
Q 45.40625 37.75 41.375 43.109375 
Q 37.359375 48.484375 30.078125 48.484375 
Q 22.859375 48.484375 18.828125 43.109375 
Q 14.796875 37.75 14.796875 27.984375 
Q 14.796875 18.265625 18.828125 12.890625 
Q 22.859375 7.515625 30.078125 7.515625 
Q 37.359375 7.515625 41.375 12.890625 
Q 45.40625 18.265625 45.40625 27.984375 
z
M 54.390625 6.78125 
Q 54.390625 -7.171875 48.1875 -13.984375 
Q 42 -20.796875 29.203125 -20.796875 
Q 24.46875 -20.796875 20.265625 -20.09375 
Q 16.0625 -19.390625 12.109375 -17.921875 
L 12.109375 -9.1875 
Q 16.0625 -11.328125 19.921875 -12.34375 
Q 23.78125 -13.375 27.78125 -13.375 
Q 36.625 -13.375 41.015625 -8.765625 
Q 45.40625 -4.15625 45.40625 5.171875 
L 45.40625 9.625 
Q 42.625 4.78125 38.28125 2.390625 
Q 33.9375 0 27.875 0 
Q 17.828125 0 11.671875 7.65625 
Q 5.515625 15.328125 5.515625 27.984375 
Q 5.515625 40.671875 11.671875 48.328125 
Q 17.828125 56 27.875 56 
Q 33.9375 56 38.28125 53.609375 
Q 42.625 51.21875 45.40625 46.390625 
L 45.40625 54.6875 
L 54.390625 54.6875 
z
" id="DejaVuSans-103"/>
       <path d="M 48.78125 52.59375 
L 48.78125 44.1875 
Q 44.96875 46.296875 41.140625 47.34375 
Q 37.3125 48.390625 33.40625 48.390625 
Q 24.65625 48.390625 19.8125 42.84375 
Q 14.984375 37.3125 14.984375 27.296875 
Q 14.984375 17.28125 19.8125 11.734375 
Q 24.65625 6.203125 33.40625 6.203125 
Q 37.3125 6.203125 41.140625 7.25 
Q 44.96875 8.296875 48.78125 10.40625 
L 48.78125 2.09375 
Q 45.015625 0.34375 40.984375 -0.53125 
Q 36.96875 -1.421875 32.421875 -1.421875 
Q 20.0625 -1.421875 12.78125 6.34375 
Q 5.515625 14.109375 5.515625 27.296875 
Q 5.515625 40.671875 12.859375 48.328125 
Q 20.21875 56 33.015625 56 
Q 37.15625 56 41.109375 55.140625 
Q 45.0625 54.296875 48.78125 52.59375 
z
" id="DejaVuSans-99"/>
       <path d="M 2.984375 54.6875 
L 12.5 54.6875 
L 29.59375 8.796875 
L 46.6875 54.6875 
L 56.203125 54.6875 
L 35.6875 0 
L 23.484375 0 
z
" id="DejaVuSans-118"/>
       <path d="M 34.28125 27.484375 
Q 23.390625 27.484375 19.1875 25 
Q 14.984375 22.515625 14.984375 16.5 
Q 14.984375 11.71875 18.140625 8.90625 
Q 21.296875 6.109375 26.703125 6.109375 
Q 34.1875 6.109375 38.703125 11.40625 
Q 43.21875 16.703125 43.21875 25.484375 
L 43.21875 27.484375 
z
M 52.203125 31.203125 
L 52.203125 0 
L 43.21875 0 
L 43.21875 8.296875 
Q 40.140625 3.328125 35.546875 0.953125 
Q 30.953125 -1.421875 24.3125 -1.421875 
Q 15.921875 -1.421875 10.953125 3.296875 
Q 6 8.015625 6 15.921875 
Q 6 25.140625 12.171875 29.828125 
Q 18.359375 34.515625 30.609375 34.515625 
L 43.21875 34.515625 
L 43.21875 35.40625 
Q 43.21875 41.609375 39.140625 45 
Q 35.0625 48.390625 27.6875 48.390625 
Q 23 48.390625 18.546875 47.265625 
Q 14.109375 46.140625 10.015625 43.890625 
L 10.015625 52.203125 
Q 14.9375 54.109375 19.578125 55.046875 
Q 24.21875 56 28.609375 56 
Q 40.484375 56 46.34375 49.84375 
Q 52.203125 43.703125 52.203125 31.203125 
z
" id="DejaVuSans-97"/>
      </defs>
      <use xlink:href="#DejaVuSans-69"/>
      <use x="63.183594" xlink:href="#DejaVuSans-100"/>
      <use x="126.660156" xlink:href="#DejaVuSans-103"/>
      <use x="190.136719" xlink:href="#DejaVuSans-101"/>
      <use x="251.660156" xlink:href="#DejaVuSans-32"/>
      <use x="283.447266" xlink:href="#DejaVuSans-99"/>
      <use x="338.427734" xlink:href="#DejaVuSans-111"/>
      <use x="399.609375" xlink:href="#DejaVuSans-118"/>
      <use x="458.789062" xlink:href="#DejaVuSans-101"/>
      <use x="520.3125" xlink:href="#DejaVuSans-114"/>
      <use x="561.425781" xlink:href="#DejaVuSans-97"/>
      <use x="622.705078" xlink:href="#DejaVuSans-103"/>
      <use x="686.181641" xlink:href="#DejaVuSans-101"/>
     </g>
    </g>
   </g>
   <g id="line2d_18">
    <path clip-path="url(#p2a0a7e1733)" d="M 85.79358 247.89177 
L 92.851287 239.630747 
L 99.908995 215.167646 
L 106.966702 202.834287 
L 114.02441 183.985191 
L 121.082117 181.338173 
L 128.139825 175.607815 
L 135.197532 166.415972 
L 142.25524 161.092848 
L 149.312947 154.489846 
L 156.370655 148.381343 
L 163.428362 144.861682 
L 170.48607 142.796426 
L 177.543777 141.981959 
L 184.601485 140.323936 
L 191.659192 137.676918 
L 198.7169 132.470147 
L 205.774607 123.889154 
L 212.832315 117.02436 
L 219.890022 116.995272 
L 226.94773 115.133633 
L 234.005437 114.697311 
L 241.063145 113.33017 
L 248.120852 111.526707 
L 255.17856 111.352178 
L 262.236267 110.828592 
L 269.293975 110.508623 
L 276.351682 109.577803 
L 283.40939 108.646984 
L 290.467097 107.105314 
L 297.524805 105.767261 
L 304.582512 105.62182 
L 311.64022 105.62182 
L 318.697927 101.345868 
L 325.755635 100.24052 
L 332.813342 99.16426 
L 339.87105 98.204352 
L 346.928757 97.76803 
L 353.986465 97.477149 
L 361.044172 94.015664 
L 368.10188 85.958257 
L 375.159587 85.6092 
L 382.217295 84.474764 
L 389.275002 84.212971 
L 396.33271 83.863913 
L 403.390417 83.718473 
L 410.448125 80.140635 
L 417.505833 79.587961 
L 424.56354 79.471609 
L 431.621248 76.271916 
L 438.678955 75.864683 
L 445.736663 75.864683 
L 452.79437 75.864683 
L 459.852078 75.74833 
L 466.909785 74.032132 
L 473.967493 73.973956 
L 481.0252 73.973956 
L 488.082908 73.973956 
L 495.140615 73.59581 
L 502.198323 73.59581 
L 509.25603 73.537634 
L 516.313738 73.537634 
L 523.371445 73.537634 
L 530.429153 73.537634 
L 537.48686 72.635903 
L 544.544568 70.657911 
L 551.602275 70.657911 
L 558.659983 70.047061 
L 565.71769 69.959796 
L 572.775398 69.348946 
L 579.833105 69.145329 
L 586.890813 68.970801 
L 593.94852 68.883536 
L 601.006228 68.82536 
L 608.063935 68.82536 
L 615.121643 68.767184 
L 622.17935 68.767184 
L 629.237058 68.767184 
L 636.294765 63.5895 
L 643.352473 54.51401 
L 650.41018 54.484921 
L 657.467888 54.281305 
L 664.525595 53.641366 
L 671.583303 53.612278 
L 678.64101 53.612278 
L 685.698718 53.466838 
L 692.756425 53.466838 
L 699.814133 53.466838 
L 706.87184 53.466838 
L 713.929548 53.437749 
L 720.987255 53.350485 
L 728.044963 53.350485 
L 735.10267 45.467607 
" style="fill:none;stroke:#98df8a;stroke-linecap:square;stroke-width:1.5;"/>
    <defs>
     <path d="M -0 3 
L 3 -3 
L -3 -3 
z
" id="mcb4c7617cc" style="stroke:#ffffff;stroke-linejoin:miter;stroke-width:0.75;"/>
    </defs>
    <g clip-path="url(#p2a0a7e1733)">
     <use style="fill:#98df8a;stroke:#ffffff;stroke-linejoin:miter;stroke-width:0.75;" x="85.79358" xlink:href="#mcb4c7617cc" y="247.89177"/>
     <use style="fill:#98df8a;stroke:#ffffff;stroke-linejoin:miter;stroke-width:0.75;" x="92.851287" xlink:href="#mcb4c7617cc" y="239.630747"/>
     <use style="fill:#98df8a;stroke:#ffffff;stroke-linejoin:miter;stroke-width:0.75;" x="99.908995" xlink:href="#mcb4c7617cc" y="215.167646"/>
     <use style="fill:#98df8a;stroke:#ffffff;stroke-linejoin:miter;stroke-width:0.75;" x="106.966702" xlink:href="#mcb4c7617cc" y="202.834287"/>
     <use style="fill:#98df8a;stroke:#ffffff;stroke-linejoin:miter;stroke-width:0.75;" x="114.02441" xlink:href="#mcb4c7617cc" y="183.985191"/>
     <use style="fill:#98df8a;stroke:#ffffff;stroke-linejoin:miter;stroke-width:0.75;" x="121.082117" xlink:href="#mcb4c7617cc" y="181.338173"/>
     <use style="fill:#98df8a;stroke:#ffffff;stroke-linejoin:miter;stroke-width:0.75;" x="128.139825" xlink:href="#mcb4c7617cc" y="175.607815"/>
     <use style="fill:#98df8a;stroke:#ffffff;stroke-linejoin:miter;stroke-width:0.75;" x="135.197532" xlink:href="#mcb4c7617cc" y="166.415972"/>
     <use style="fill:#98df8a;stroke:#ffffff;stroke-linejoin:miter;stroke-width:0.75;" x="142.25524" xlink:href="#mcb4c7617cc" y="161.092848"/>
     <use style="fill:#98df8a;stroke:#ffffff;stroke-linejoin:miter;stroke-width:0.75;" x="149.312947" xlink:href="#mcb4c7617cc" y="154.489846"/>
     <use style="fill:#98df8a;stroke:#ffffff;stroke-linejoin:miter;stroke-width:0.75;" x="156.370655" xlink:href="#mcb4c7617cc" y="148.381343"/>
     <use style="fill:#98df8a;stroke:#ffffff;stroke-linejoin:miter;stroke-width:0.75;" x="163.428362" xlink:href="#mcb4c7617cc" y="144.861682"/>
     <use style="fill:#98df8a;stroke:#ffffff;stroke-linejoin:miter;stroke-width:0.75;" x="170.48607" xlink:href="#mcb4c7617cc" y="142.796426"/>
     <use style="fill:#98df8a;stroke:#ffffff;stroke-linejoin:miter;stroke-width:0.75;" x="177.543777" xlink:href="#mcb4c7617cc" y="141.981959"/>
     <use style="fill:#98df8a;stroke:#ffffff;stroke-linejoin:miter;stroke-width:0.75;" x="184.601485" xlink:href="#mcb4c7617cc" y="140.323936"/>
     <use style="fill:#98df8a;stroke:#ffffff;stroke-linejoin:miter;stroke-width:0.75;" x="191.659192" xlink:href="#mcb4c7617cc" y="137.676918"/>
     <use style="fill:#98df8a;stroke:#ffffff;stroke-linejoin:miter;stroke-width:0.75;" x="198.7169" xlink:href="#mcb4c7617cc" y="132.470147"/>
     <use style="fill:#98df8a;stroke:#ffffff;stroke-linejoin:miter;stroke-width:0.75;" x="205.774607" xlink:href="#mcb4c7617cc" y="123.889154"/>
     <use style="fill:#98df8a;stroke:#ffffff;stroke-linejoin:miter;stroke-width:0.75;" x="212.832315" xlink:href="#mcb4c7617cc" y="117.02436"/>
     <use style="fill:#98df8a;stroke:#ffffff;stroke-linejoin:miter;stroke-width:0.75;" x="219.890022" xlink:href="#mcb4c7617cc" y="116.995272"/>
     <use style="fill:#98df8a;stroke:#ffffff;stroke-linejoin:miter;stroke-width:0.75;" x="226.94773" xlink:href="#mcb4c7617cc" y="115.133633"/>
     <use style="fill:#98df8a;stroke:#ffffff;stroke-linejoin:miter;stroke-width:0.75;" x="234.005437" xlink:href="#mcb4c7617cc" y="114.697311"/>
     <use style="fill:#98df8a;stroke:#ffffff;stroke-linejoin:miter;stroke-width:0.75;" x="241.063145" xlink:href="#mcb4c7617cc" y="113.33017"/>
     <use style="fill:#98df8a;stroke:#ffffff;stroke-linejoin:miter;stroke-width:0.75;" x="248.120852" xlink:href="#mcb4c7617cc" y="111.526707"/>
     <use style="fill:#98df8a;stroke:#ffffff;stroke-linejoin:miter;stroke-width:0.75;" x="255.17856" xlink:href="#mcb4c7617cc" y="111.352178"/>
     <use style="fill:#98df8a;stroke:#ffffff;stroke-linejoin:miter;stroke-width:0.75;" x="262.236267" xlink:href="#mcb4c7617cc" y="110.828592"/>
     <use style="fill:#98df8a;stroke:#ffffff;stroke-linejoin:miter;stroke-width:0.75;" x="269.293975" xlink:href="#mcb4c7617cc" y="110.508623"/>
     <use style="fill:#98df8a;stroke:#ffffff;stroke-linejoin:miter;stroke-width:0.75;" x="276.351682" xlink:href="#mcb4c7617cc" y="109.577803"/>
     <use style="fill:#98df8a;stroke:#ffffff;stroke-linejoin:miter;stroke-width:0.75;" x="283.40939" xlink:href="#mcb4c7617cc" y="108.646984"/>
     <use style="fill:#98df8a;stroke:#ffffff;stroke-linejoin:miter;stroke-width:0.75;" x="290.467097" xlink:href="#mcb4c7617cc" y="107.105314"/>
     <use style="fill:#98df8a;stroke:#ffffff;stroke-linejoin:miter;stroke-width:0.75;" x="297.524805" xlink:href="#mcb4c7617cc" y="105.767261"/>
     <use style="fill:#98df8a;stroke:#ffffff;stroke-linejoin:miter;stroke-width:0.75;" x="304.582512" xlink:href="#mcb4c7617cc" y="105.62182"/>
     <use style="fill:#98df8a;stroke:#ffffff;stroke-linejoin:miter;stroke-width:0.75;" x="311.64022" xlink:href="#mcb4c7617cc" y="105.62182"/>
     <use style="fill:#98df8a;stroke:#ffffff;stroke-linejoin:miter;stroke-width:0.75;" x="318.697927" xlink:href="#mcb4c7617cc" y="101.345868"/>
     <use style="fill:#98df8a;stroke:#ffffff;stroke-linejoin:miter;stroke-width:0.75;" x="325.755635" xlink:href="#mcb4c7617cc" y="100.24052"/>
     <use style="fill:#98df8a;stroke:#ffffff;stroke-linejoin:miter;stroke-width:0.75;" x="332.813342" xlink:href="#mcb4c7617cc" y="99.16426"/>
     <use style="fill:#98df8a;stroke:#ffffff;stroke-linejoin:miter;stroke-width:0.75;" x="339.87105" xlink:href="#mcb4c7617cc" y="98.204352"/>
     <use style="fill:#98df8a;stroke:#ffffff;stroke-linejoin:miter;stroke-width:0.75;" x="346.928757" xlink:href="#mcb4c7617cc" y="97.76803"/>
     <use style="fill:#98df8a;stroke:#ffffff;stroke-linejoin:miter;stroke-width:0.75;" x="353.986465" xlink:href="#mcb4c7617cc" y="97.477149"/>
     <use style="fill:#98df8a;stroke:#ffffff;stroke-linejoin:miter;stroke-width:0.75;" x="361.044172" xlink:href="#mcb4c7617cc" y="94.015664"/>
     <use style="fill:#98df8a;stroke:#ffffff;stroke-linejoin:miter;stroke-width:0.75;" x="368.10188" xlink:href="#mcb4c7617cc" y="85.958257"/>
     <use style="fill:#98df8a;stroke:#ffffff;stroke-linejoin:miter;stroke-width:0.75;" x="375.159587" xlink:href="#mcb4c7617cc" y="85.6092"/>
     <use style="fill:#98df8a;stroke:#ffffff;stroke-linejoin:miter;stroke-width:0.75;" x="382.217295" xlink:href="#mcb4c7617cc" y="84.474764"/>
     <use style="fill:#98df8a;stroke:#ffffff;stroke-linejoin:miter;stroke-width:0.75;" x="389.275002" xlink:href="#mcb4c7617cc" y="84.212971"/>
     <use style="fill:#98df8a;stroke:#ffffff;stroke-linejoin:miter;stroke-width:0.75;" x="396.33271" xlink:href="#mcb4c7617cc" y="83.863913"/>
     <use style="fill:#98df8a;stroke:#ffffff;stroke-linejoin:miter;stroke-width:0.75;" x="403.390417" xlink:href="#mcb4c7617cc" y="83.718473"/>
     <use style="fill:#98df8a;stroke:#ffffff;stroke-linejoin:miter;stroke-width:0.75;" x="410.448125" xlink:href="#mcb4c7617cc" y="80.140635"/>
     <use style="fill:#98df8a;stroke:#ffffff;stroke-linejoin:miter;stroke-width:0.75;" x="417.505833" xlink:href="#mcb4c7617cc" y="79.587961"/>
     <use style="fill:#98df8a;stroke:#ffffff;stroke-linejoin:miter;stroke-width:0.75;" x="424.56354" xlink:href="#mcb4c7617cc" y="79.471609"/>
     <use style="fill:#98df8a;stroke:#ffffff;stroke-linejoin:miter;stroke-width:0.75;" x="431.621248" xlink:href="#mcb4c7617cc" y="76.271916"/>
     <use style="fill:#98df8a;stroke:#ffffff;stroke-linejoin:miter;stroke-width:0.75;" x="438.678955" xlink:href="#mcb4c7617cc" y="75.864683"/>
     <use style="fill:#98df8a;stroke:#ffffff;stroke-linejoin:miter;stroke-width:0.75;" x="445.736663" xlink:href="#mcb4c7617cc" y="75.864683"/>
     <use style="fill:#98df8a;stroke:#ffffff;stroke-linejoin:miter;stroke-width:0.75;" x="452.79437" xlink:href="#mcb4c7617cc" y="75.864683"/>
     <use style="fill:#98df8a;stroke:#ffffff;stroke-linejoin:miter;stroke-width:0.75;" x="459.852078" xlink:href="#mcb4c7617cc" y="75.74833"/>
     <use style="fill:#98df8a;stroke:#ffffff;stroke-linejoin:miter;stroke-width:0.75;" x="466.909785" xlink:href="#mcb4c7617cc" y="74.032132"/>
     <use style="fill:#98df8a;stroke:#ffffff;stroke-linejoin:miter;stroke-width:0.75;" x="473.967493" xlink:href="#mcb4c7617cc" y="73.973956"/>
     <use style="fill:#98df8a;stroke:#ffffff;stroke-linejoin:miter;stroke-width:0.75;" x="481.0252" xlink:href="#mcb4c7617cc" y="73.973956"/>
     <use style="fill:#98df8a;stroke:#ffffff;stroke-linejoin:miter;stroke-width:0.75;" x="488.082908" xlink:href="#mcb4c7617cc" y="73.973956"/>
     <use style="fill:#98df8a;stroke:#ffffff;stroke-linejoin:miter;stroke-width:0.75;" x="495.140615" xlink:href="#mcb4c7617cc" y="73.59581"/>
     <use style="fill:#98df8a;stroke:#ffffff;stroke-linejoin:miter;stroke-width:0.75;" x="502.198323" xlink:href="#mcb4c7617cc" y="73.59581"/>
     <use style="fill:#98df8a;stroke:#ffffff;stroke-linejoin:miter;stroke-width:0.75;" x="509.25603" xlink:href="#mcb4c7617cc" y="73.537634"/>
     <use style="fill:#98df8a;stroke:#ffffff;stroke-linejoin:miter;stroke-width:0.75;" x="516.313738" xlink:href="#mcb4c7617cc" y="73.537634"/>
     <use style="fill:#98df8a;stroke:#ffffff;stroke-linejoin:miter;stroke-width:0.75;" x="523.371445" xlink:href="#mcb4c7617cc" y="73.537634"/>
     <use style="fill:#98df8a;stroke:#ffffff;stroke-linejoin:miter;stroke-width:0.75;" x="530.429153" xlink:href="#mcb4c7617cc" y="73.537634"/>
     <use style="fill:#98df8a;stroke:#ffffff;stroke-linejoin:miter;stroke-width:0.75;" x="537.48686" xlink:href="#mcb4c7617cc" y="72.635903"/>
     <use style="fill:#98df8a;stroke:#ffffff;stroke-linejoin:miter;stroke-width:0.75;" x="544.544568" xlink:href="#mcb4c7617cc" y="70.657911"/>
     <use style="fill:#98df8a;stroke:#ffffff;stroke-linejoin:miter;stroke-width:0.75;" x="551.602275" xlink:href="#mcb4c7617cc" y="70.657911"/>
     <use style="fill:#98df8a;stroke:#ffffff;stroke-linejoin:miter;stroke-width:0.75;" x="558.659983" xlink:href="#mcb4c7617cc" y="70.047061"/>
     <use style="fill:#98df8a;stroke:#ffffff;stroke-linejoin:miter;stroke-width:0.75;" x="565.71769" xlink:href="#mcb4c7617cc" y="69.959796"/>
     <use style="fill:#98df8a;stroke:#ffffff;stroke-linejoin:miter;stroke-width:0.75;" x="572.775398" xlink:href="#mcb4c7617cc" y="69.348946"/>
     <use style="fill:#98df8a;stroke:#ffffff;stroke-linejoin:miter;stroke-width:0.75;" x="579.833105" xlink:href="#mcb4c7617cc" y="69.145329"/>
     <use style="fill:#98df8a;stroke:#ffffff;stroke-linejoin:miter;stroke-width:0.75;" x="586.890813" xlink:href="#mcb4c7617cc" y="68.970801"/>
     <use style="fill:#98df8a;stroke:#ffffff;stroke-linejoin:miter;stroke-width:0.75;" x="593.94852" xlink:href="#mcb4c7617cc" y="68.883536"/>
     <use style="fill:#98df8a;stroke:#ffffff;stroke-linejoin:miter;stroke-width:0.75;" x="601.006228" xlink:href="#mcb4c7617cc" y="68.82536"/>
     <use style="fill:#98df8a;stroke:#ffffff;stroke-linejoin:miter;stroke-width:0.75;" x="608.063935" xlink:href="#mcb4c7617cc" y="68.82536"/>
     <use style="fill:#98df8a;stroke:#ffffff;stroke-linejoin:miter;stroke-width:0.75;" x="615.121643" xlink:href="#mcb4c7617cc" y="68.767184"/>
     <use style="fill:#98df8a;stroke:#ffffff;stroke-linejoin:miter;stroke-width:0.75;" x="622.17935" xlink:href="#mcb4c7617cc" y="68.767184"/>
     <use style="fill:#98df8a;stroke:#ffffff;stroke-linejoin:miter;stroke-width:0.75;" x="629.237058" xlink:href="#mcb4c7617cc" y="68.767184"/>
     <use style="fill:#98df8a;stroke:#ffffff;stroke-linejoin:miter;stroke-width:0.75;" x="636.294765" xlink:href="#mcb4c7617cc" y="63.5895"/>
     <use style="fill:#98df8a;stroke:#ffffff;stroke-linejoin:miter;stroke-width:0.75;" x="643.352473" xlink:href="#mcb4c7617cc" y="54.51401"/>
     <use style="fill:#98df8a;stroke:#ffffff;stroke-linejoin:miter;stroke-width:0.75;" x="650.41018" xlink:href="#mcb4c7617cc" y="54.484921"/>
     <use style="fill:#98df8a;stroke:#ffffff;stroke-linejoin:miter;stroke-width:0.75;" x="657.467888" xlink:href="#mcb4c7617cc" y="54.281305"/>
     <use style="fill:#98df8a;stroke:#ffffff;stroke-linejoin:miter;stroke-width:0.75;" x="664.525595" xlink:href="#mcb4c7617cc" y="53.641366"/>
     <use style="fill:#98df8a;stroke:#ffffff;stroke-linejoin:miter;stroke-width:0.75;" x="671.583303" xlink:href="#mcb4c7617cc" y="53.612278"/>
     <use style="fill:#98df8a;stroke:#ffffff;stroke-linejoin:miter;stroke-width:0.75;" x="678.64101" xlink:href="#mcb4c7617cc" y="53.612278"/>
     <use style="fill:#98df8a;stroke:#ffffff;stroke-linejoin:miter;stroke-width:0.75;" x="685.698718" xlink:href="#mcb4c7617cc" y="53.466838"/>
     <use style="fill:#98df8a;stroke:#ffffff;stroke-linejoin:miter;stroke-width:0.75;" x="692.756425" xlink:href="#mcb4c7617cc" y="53.466838"/>
     <use style="fill:#98df8a;stroke:#ffffff;stroke-linejoin:miter;stroke-width:0.75;" x="699.814133" xlink:href="#mcb4c7617cc" y="53.466838"/>
     <use style="fill:#98df8a;stroke:#ffffff;stroke-linejoin:miter;stroke-width:0.75;" x="706.87184" xlink:href="#mcb4c7617cc" y="53.466838"/>
     <use style="fill:#98df8a;stroke:#ffffff;stroke-linejoin:miter;stroke-width:0.75;" x="713.929548" xlink:href="#mcb4c7617cc" y="53.437749"/>
     <use style="fill:#98df8a;stroke:#ffffff;stroke-linejoin:miter;stroke-width:0.75;" x="720.987255" xlink:href="#mcb4c7617cc" y="53.350485"/>
     <use style="fill:#98df8a;stroke:#ffffff;stroke-linejoin:miter;stroke-width:0.75;" x="728.044963" xlink:href="#mcb4c7617cc" y="53.350485"/>
     <use style="fill:#98df8a;stroke:#ffffff;stroke-linejoin:miter;stroke-width:0.75;" x="735.10267" xlink:href="#mcb4c7617cc" y="45.467607"/>
    </g>
   </g>
   <g id="line2d_19">
    <path clip-path="url(#p2a0a7e1733)" d="M 85.79358 260.417111 
L 92.851287 233.469885 
L 99.908995 212.78242 
L 106.966702 200.914471 
L 114.02441 195.376095 
L 121.082117 190.140235 
L 128.139825 185.346514 
L 135.197532 183.833933 
L 142.25524 181.297449 
L 149.312947 178.807507 
L 156.370655 177.667253 
L 163.428362 176.131401 
L 170.48607 175.060958 
L 177.543777 166.54396 
L 184.601485 165.426976 
L 191.659192 155.560289 
L 198.7169 153.977896 
L 205.774607 149.486691 
L 212.832315 143.901774 
L 219.890022 137.548931 
L 226.94773 136.129431 
L 234.005437 129.40426 
L 241.063145 124.377834 
L 248.120852 123.819342 
L 255.17856 122.911793 
L 262.236267 122.865252 
L 269.293975 121.119966 
L 276.351682 115.046368 
L 283.40939 113.091647 
L 290.467097 112.579696 
L 297.524805 108.367738 
L 304.582512 103.318042 
L 311.64022 100.38596 
L 318.697927 98.058911 
L 325.755635 97.546961 
L 332.813342 97.314256 
L 339.87105 97.174633 
L 346.928757 96.802305 
L 353.986465 96.802305 
L 361.044172 92.427453 
L 368.10188 89.611724 
L 375.159587 88.355118 
L 382.217295 85.702282 
L 389.275002 85.702282 
L 396.33271 83.607938 
L 403.390417 83.468315 
L 410.448125 83.142528 
L 417.505833 83.072717 
L 424.56354 83.026176 
L 431.621248 78.767676 
L 438.678955 78.209185 
L 445.736663 77.99975 
L 452.79437 77.883398 
L 459.852078 76.045029 
L 466.909785 76.045029 
L 473.967493 76.021759 
L 481.0252 75.835595 
L 488.082908 75.323644 
L 495.140615 73.71798 
L 502.198323 73.485275 
L 509.25603 73.089677 
L 516.313738 69.250047 
L 523.371445 68.645014 
L 530.429153 67.853817 
L 537.48686 67.807276 
L 544.544568 66.829916 
L 551.602275 66.643752 
L 558.659983 66.434317 
L 565.71769 66.08526 
L 572.775398 66.038719 
L 579.833105 58.871409 
L 586.890813 58.499081 
L 593.94852 58.336187 
L 601.006228 58.312917 
L 608.063935 58.289646 
L 615.121643 58.243105 
L 622.17935 58.243105 
L 629.237058 58.219835 
L 636.294765 58.219835 
L 643.352473 57.405368 
L 650.41018 57.335556 
L 657.467888 57.335556 
L 664.525595 57.126122 
L 671.583303 57.126122 
L 678.64101 57.126122 
L 685.698718 57.03304 
L 692.756425 56.870147 
L 699.814133 56.846876 
L 706.87184 56.846876 
L 713.929548 56.521089 
L 720.987255 56.521089 
L 728.044963 56.497819 
L 735.10267 54.019512 
" style="fill:none;stroke:#1f77b4;stroke-linecap:square;stroke-width:1.5;"/>
    <defs>
     <path d="M 0 3 
C 0.795609 3 1.55874 2.683901 2.12132 2.12132 
C 2.683901 1.55874 3 0.795609 3 0 
C 3 -0.795609 2.683901 -1.55874 2.12132 -2.12132 
C 1.55874 -2.683901 0.795609 -3 0 -3 
C -0.795609 -3 -1.55874 -2.683901 -2.12132 -2.12132 
C -2.683901 -1.55874 -3 -0.795609 -3 0 
C -3 0.795609 -2.683901 1.55874 -2.12132 2.12132 
C -1.55874 2.683901 -0.795609 3 0 3 
z
" id="m5c9e2f5758" style="stroke:#ffffff;stroke-width:0.75;"/>
    </defs>
    <g clip-path="url(#p2a0a7e1733)">
     <use style="fill:#1f77b4;stroke:#ffffff;stroke-width:0.75;" x="85.79358" xlink:href="#m5c9e2f5758" y="260.417111"/>
     <use style="fill:#1f77b4;stroke:#ffffff;stroke-width:0.75;" x="92.851287" xlink:href="#m5c9e2f5758" y="233.469885"/>
     <use style="fill:#1f77b4;stroke:#ffffff;stroke-width:0.75;" x="99.908995" xlink:href="#m5c9e2f5758" y="212.78242"/>
     <use style="fill:#1f77b4;stroke:#ffffff;stroke-width:0.75;" x="106.966702" xlink:href="#m5c9e2f5758" y="200.914471"/>
     <use style="fill:#1f77b4;stroke:#ffffff;stroke-width:0.75;" x="114.02441" xlink:href="#m5c9e2f5758" y="195.376095"/>
     <use style="fill:#1f77b4;stroke:#ffffff;stroke-width:0.75;" x="121.082117" xlink:href="#m5c9e2f5758" y="190.140235"/>
     <use style="fill:#1f77b4;stroke:#ffffff;stroke-width:0.75;" x="128.139825" xlink:href="#m5c9e2f5758" y="185.346514"/>
     <use style="fill:#1f77b4;stroke:#ffffff;stroke-width:0.75;" x="135.197532" xlink:href="#m5c9e2f5758" y="183.833933"/>
     <use style="fill:#1f77b4;stroke:#ffffff;stroke-width:0.75;" x="142.25524" xlink:href="#m5c9e2f5758" y="181.297449"/>
     <use style="fill:#1f77b4;stroke:#ffffff;stroke-width:0.75;" x="149.312947" xlink:href="#m5c9e2f5758" y="178.807507"/>
     <use style="fill:#1f77b4;stroke:#ffffff;stroke-width:0.75;" x="156.370655" xlink:href="#m5c9e2f5758" y="177.667253"/>
     <use style="fill:#1f77b4;stroke:#ffffff;stroke-width:0.75;" x="163.428362" xlink:href="#m5c9e2f5758" y="176.131401"/>
     <use style="fill:#1f77b4;stroke:#ffffff;stroke-width:0.75;" x="170.48607" xlink:href="#m5c9e2f5758" y="175.060958"/>
     <use style="fill:#1f77b4;stroke:#ffffff;stroke-width:0.75;" x="177.543777" xlink:href="#m5c9e2f5758" y="166.54396"/>
     <use style="fill:#1f77b4;stroke:#ffffff;stroke-width:0.75;" x="184.601485" xlink:href="#m5c9e2f5758" y="165.426976"/>
     <use style="fill:#1f77b4;stroke:#ffffff;stroke-width:0.75;" x="191.659192" xlink:href="#m5c9e2f5758" y="155.560289"/>
     <use style="fill:#1f77b4;stroke:#ffffff;stroke-width:0.75;" x="198.7169" xlink:href="#m5c9e2f5758" y="153.977896"/>
     <use style="fill:#1f77b4;stroke:#ffffff;stroke-width:0.75;" x="205.774607" xlink:href="#m5c9e2f5758" y="149.486691"/>
     <use style="fill:#1f77b4;stroke:#ffffff;stroke-width:0.75;" x="212.832315" xlink:href="#m5c9e2f5758" y="143.901774"/>
     <use style="fill:#1f77b4;stroke:#ffffff;stroke-width:0.75;" x="219.890022" xlink:href="#m5c9e2f5758" y="137.548931"/>
     <use style="fill:#1f77b4;stroke:#ffffff;stroke-width:0.75;" x="226.94773" xlink:href="#m5c9e2f5758" y="136.129431"/>
     <use style="fill:#1f77b4;stroke:#ffffff;stroke-width:0.75;" x="234.005437" xlink:href="#m5c9e2f5758" y="129.40426"/>
     <use style="fill:#1f77b4;stroke:#ffffff;stroke-width:0.75;" x="241.063145" xlink:href="#m5c9e2f5758" y="124.377834"/>
     <use style="fill:#1f77b4;stroke:#ffffff;stroke-width:0.75;" x="248.120852" xlink:href="#m5c9e2f5758" y="123.819342"/>
     <use style="fill:#1f77b4;stroke:#ffffff;stroke-width:0.75;" x="255.17856" xlink:href="#m5c9e2f5758" y="122.911793"/>
     <use style="fill:#1f77b4;stroke:#ffffff;stroke-width:0.75;" x="262.236267" xlink:href="#m5c9e2f5758" y="122.865252"/>
     <use style="fill:#1f77b4;stroke:#ffffff;stroke-width:0.75;" x="269.293975" xlink:href="#m5c9e2f5758" y="121.119966"/>
     <use style="fill:#1f77b4;stroke:#ffffff;stroke-width:0.75;" x="276.351682" xlink:href="#m5c9e2f5758" y="115.046368"/>
     <use style="fill:#1f77b4;stroke:#ffffff;stroke-width:0.75;" x="283.40939" xlink:href="#m5c9e2f5758" y="113.091647"/>
     <use style="fill:#1f77b4;stroke:#ffffff;stroke-width:0.75;" x="290.467097" xlink:href="#m5c9e2f5758" y="112.579696"/>
     <use style="fill:#1f77b4;stroke:#ffffff;stroke-width:0.75;" x="297.524805" xlink:href="#m5c9e2f5758" y="108.367738"/>
     <use style="fill:#1f77b4;stroke:#ffffff;stroke-width:0.75;" x="304.582512" xlink:href="#m5c9e2f5758" y="103.318042"/>
     <use style="fill:#1f77b4;stroke:#ffffff;stroke-width:0.75;" x="311.64022" xlink:href="#m5c9e2f5758" y="100.38596"/>
     <use style="fill:#1f77b4;stroke:#ffffff;stroke-width:0.75;" x="318.697927" xlink:href="#m5c9e2f5758" y="98.058911"/>
     <use style="fill:#1f77b4;stroke:#ffffff;stroke-width:0.75;" x="325.755635" xlink:href="#m5c9e2f5758" y="97.546961"/>
     <use style="fill:#1f77b4;stroke:#ffffff;stroke-width:0.75;" x="332.813342" xlink:href="#m5c9e2f5758" y="97.314256"/>
     <use style="fill:#1f77b4;stroke:#ffffff;stroke-width:0.75;" x="339.87105" xlink:href="#m5c9e2f5758" y="97.174633"/>
     <use style="fill:#1f77b4;stroke:#ffffff;stroke-width:0.75;" x="346.928757" xlink:href="#m5c9e2f5758" y="96.802305"/>
     <use style="fill:#1f77b4;stroke:#ffffff;stroke-width:0.75;" x="353.986465" xlink:href="#m5c9e2f5758" y="96.802305"/>
     <use style="fill:#1f77b4;stroke:#ffffff;stroke-width:0.75;" x="361.044172" xlink:href="#m5c9e2f5758" y="92.427453"/>
     <use style="fill:#1f77b4;stroke:#ffffff;stroke-width:0.75;" x="368.10188" xlink:href="#m5c9e2f5758" y="89.611724"/>
     <use style="fill:#1f77b4;stroke:#ffffff;stroke-width:0.75;" x="375.159587" xlink:href="#m5c9e2f5758" y="88.355118"/>
     <use style="fill:#1f77b4;stroke:#ffffff;stroke-width:0.75;" x="382.217295" xlink:href="#m5c9e2f5758" y="85.702282"/>
     <use style="fill:#1f77b4;stroke:#ffffff;stroke-width:0.75;" x="389.275002" xlink:href="#m5c9e2f5758" y="85.702282"/>
     <use style="fill:#1f77b4;stroke:#ffffff;stroke-width:0.75;" x="396.33271" xlink:href="#m5c9e2f5758" y="83.607938"/>
     <use style="fill:#1f77b4;stroke:#ffffff;stroke-width:0.75;" x="403.390417" xlink:href="#m5c9e2f5758" y="83.468315"/>
     <use style="fill:#1f77b4;stroke:#ffffff;stroke-width:0.75;" x="410.448125" xlink:href="#m5c9e2f5758" y="83.142528"/>
     <use style="fill:#1f77b4;stroke:#ffffff;stroke-width:0.75;" x="417.505833" xlink:href="#m5c9e2f5758" y="83.072717"/>
     <use style="fill:#1f77b4;stroke:#ffffff;stroke-width:0.75;" x="424.56354" xlink:href="#m5c9e2f5758" y="83.026176"/>
     <use style="fill:#1f77b4;stroke:#ffffff;stroke-width:0.75;" x="431.621248" xlink:href="#m5c9e2f5758" y="78.767676"/>
     <use style="fill:#1f77b4;stroke:#ffffff;stroke-width:0.75;" x="438.678955" xlink:href="#m5c9e2f5758" y="78.209185"/>
     <use style="fill:#1f77b4;stroke:#ffffff;stroke-width:0.75;" x="445.736663" xlink:href="#m5c9e2f5758" y="77.99975"/>
     <use style="fill:#1f77b4;stroke:#ffffff;stroke-width:0.75;" x="452.79437" xlink:href="#m5c9e2f5758" y="77.883398"/>
     <use style="fill:#1f77b4;stroke:#ffffff;stroke-width:0.75;" x="459.852078" xlink:href="#m5c9e2f5758" y="76.045029"/>
     <use style="fill:#1f77b4;stroke:#ffffff;stroke-width:0.75;" x="466.909785" xlink:href="#m5c9e2f5758" y="76.045029"/>
     <use style="fill:#1f77b4;stroke:#ffffff;stroke-width:0.75;" x="473.967493" xlink:href="#m5c9e2f5758" y="76.021759"/>
     <use style="fill:#1f77b4;stroke:#ffffff;stroke-width:0.75;" x="481.0252" xlink:href="#m5c9e2f5758" y="75.835595"/>
     <use style="fill:#1f77b4;stroke:#ffffff;stroke-width:0.75;" x="488.082908" xlink:href="#m5c9e2f5758" y="75.323644"/>
     <use style="fill:#1f77b4;stroke:#ffffff;stroke-width:0.75;" x="495.140615" xlink:href="#m5c9e2f5758" y="73.71798"/>
     <use style="fill:#1f77b4;stroke:#ffffff;stroke-width:0.75;" x="502.198323" xlink:href="#m5c9e2f5758" y="73.485275"/>
     <use style="fill:#1f77b4;stroke:#ffffff;stroke-width:0.75;" x="509.25603" xlink:href="#m5c9e2f5758" y="73.089677"/>
     <use style="fill:#1f77b4;stroke:#ffffff;stroke-width:0.75;" x="516.313738" xlink:href="#m5c9e2f5758" y="69.250047"/>
     <use style="fill:#1f77b4;stroke:#ffffff;stroke-width:0.75;" x="523.371445" xlink:href="#m5c9e2f5758" y="68.645014"/>
     <use style="fill:#1f77b4;stroke:#ffffff;stroke-width:0.75;" x="530.429153" xlink:href="#m5c9e2f5758" y="67.853817"/>
     <use style="fill:#1f77b4;stroke:#ffffff;stroke-width:0.75;" x="537.48686" xlink:href="#m5c9e2f5758" y="67.807276"/>
     <use style="fill:#1f77b4;stroke:#ffffff;stroke-width:0.75;" x="544.544568" xlink:href="#m5c9e2f5758" y="66.829916"/>
     <use style="fill:#1f77b4;stroke:#ffffff;stroke-width:0.75;" x="551.602275" xlink:href="#m5c9e2f5758" y="66.643752"/>
     <use style="fill:#1f77b4;stroke:#ffffff;stroke-width:0.75;" x="558.659983" xlink:href="#m5c9e2f5758" y="66.434317"/>
     <use style="fill:#1f77b4;stroke:#ffffff;stroke-width:0.75;" x="565.71769" xlink:href="#m5c9e2f5758" y="66.08526"/>
     <use style="fill:#1f77b4;stroke:#ffffff;stroke-width:0.75;" x="572.775398" xlink:href="#m5c9e2f5758" y="66.038719"/>
     <use style="fill:#1f77b4;stroke:#ffffff;stroke-width:0.75;" x="579.833105" xlink:href="#m5c9e2f5758" y="58.871409"/>
     <use style="fill:#1f77b4;stroke:#ffffff;stroke-width:0.75;" x="586.890813" xlink:href="#m5c9e2f5758" y="58.499081"/>
     <use style="fill:#1f77b4;stroke:#ffffff;stroke-width:0.75;" x="593.94852" xlink:href="#m5c9e2f5758" y="58.336187"/>
     <use style="fill:#1f77b4;stroke:#ffffff;stroke-width:0.75;" x="601.006228" xlink:href="#m5c9e2f5758" y="58.312917"/>
     <use style="fill:#1f77b4;stroke:#ffffff;stroke-width:0.75;" x="608.063935" xlink:href="#m5c9e2f5758" y="58.289646"/>
     <use style="fill:#1f77b4;stroke:#ffffff;stroke-width:0.75;" x="615.121643" xlink:href="#m5c9e2f5758" y="58.243105"/>
     <use style="fill:#1f77b4;stroke:#ffffff;stroke-width:0.75;" x="622.17935" xlink:href="#m5c9e2f5758" y="58.243105"/>
     <use style="fill:#1f77b4;stroke:#ffffff;stroke-width:0.75;" x="629.237058" xlink:href="#m5c9e2f5758" y="58.219835"/>
     <use style="fill:#1f77b4;stroke:#ffffff;stroke-width:0.75;" x="636.294765" xlink:href="#m5c9e2f5758" y="58.219835"/>
     <use style="fill:#1f77b4;stroke:#ffffff;stroke-width:0.75;" x="643.352473" xlink:href="#m5c9e2f5758" y="57.405368"/>
     <use style="fill:#1f77b4;stroke:#ffffff;stroke-width:0.75;" x="650.41018" xlink:href="#m5c9e2f5758" y="57.335556"/>
     <use style="fill:#1f77b4;stroke:#ffffff;stroke-width:0.75;" x="657.467888" xlink:href="#m5c9e2f5758" y="57.335556"/>
     <use style="fill:#1f77b4;stroke:#ffffff;stroke-width:0.75;" x="664.525595" xlink:href="#m5c9e2f5758" y="57.126122"/>
     <use style="fill:#1f77b4;stroke:#ffffff;stroke-width:0.75;" x="671.583303" xlink:href="#m5c9e2f5758" y="57.126122"/>
     <use style="fill:#1f77b4;stroke:#ffffff;stroke-width:0.75;" x="678.64101" xlink:href="#m5c9e2f5758" y="57.126122"/>
     <use style="fill:#1f77b4;stroke:#ffffff;stroke-width:0.75;" x="685.698718" xlink:href="#m5c9e2f5758" y="57.03304"/>
     <use style="fill:#1f77b4;stroke:#ffffff;stroke-width:0.75;" x="692.756425" xlink:href="#m5c9e2f5758" y="56.870147"/>
     <use style="fill:#1f77b4;stroke:#ffffff;stroke-width:0.75;" x="699.814133" xlink:href="#m5c9e2f5758" y="56.846876"/>
     <use style="fill:#1f77b4;stroke:#ffffff;stroke-width:0.75;" x="706.87184" xlink:href="#m5c9e2f5758" y="56.846876"/>
     <use style="fill:#1f77b4;stroke:#ffffff;stroke-width:0.75;" x="713.929548" xlink:href="#m5c9e2f5758" y="56.521089"/>
     <use style="fill:#1f77b4;stroke:#ffffff;stroke-width:0.75;" x="720.987255" xlink:href="#m5c9e2f5758" y="56.521089"/>
     <use style="fill:#1f77b4;stroke:#ffffff;stroke-width:0.75;" x="728.044963" xlink:href="#m5c9e2f5758" y="56.497819"/>
     <use style="fill:#1f77b4;stroke:#ffffff;stroke-width:0.75;" x="735.10267" xlink:href="#m5c9e2f5758" y="54.019512"/>
    </g>
   </g>
   <g id="line2d_20"/>
   <g id="line2d_21"/>
   <g id="line2d_22"/>
   <g id="line2d_23">
    <path clip-path="url(#p2a0a7e1733)" d="M 735.10267 288.430125 
L 735.10267 22.318125 
" style="fill:none;stroke:#ff0000;stroke-linecap:square;stroke-width:1.5;"/>
   </g>
   <g id="patch_3">
    <path d="M 53.328125 274.332863 
L 53.328125 41.627976 
" style="fill:none;stroke:#000000;stroke-linecap:square;stroke-linejoin:miter;stroke-width:0.8;"/>
   </g>
   <g id="patch_4">
    <path d="M 85.79358 288.430125 
L 687.463145 288.430125 
" style="fill:none;stroke:#000000;stroke-linecap:square;stroke-linejoin:miter;stroke-width:0.8;"/>
   </g>
   <g id="text_20">
    <!-- libxml2-v2.9.2 (23h:15m, 2 trials/fuzzer) -->
    <g transform="translate(289.188125 16.318125)scale(0.12 -0.12)">
     <defs>
      <path d="M 9.421875 75.984375 
L 18.40625 75.984375 
L 18.40625 0 
L 9.421875 0 
z
" id="DejaVuSans-108"/>
      <path d="M 48.6875 27.296875 
Q 48.6875 37.203125 44.609375 42.84375 
Q 40.53125 48.484375 33.40625 48.484375 
Q 26.265625 48.484375 22.1875 42.84375 
Q 18.109375 37.203125 18.109375 27.296875 
Q 18.109375 17.390625 22.1875 11.75 
Q 26.265625 6.109375 33.40625 6.109375 
Q 40.53125 6.109375 44.609375 11.75 
Q 48.6875 17.390625 48.6875 27.296875 
z
M 18.109375 46.390625 
Q 20.953125 51.265625 25.265625 53.625 
Q 29.59375 56 35.59375 56 
Q 45.5625 56 51.78125 48.09375 
Q 58.015625 40.1875 58.015625 27.296875 
Q 58.015625 14.40625 51.78125 6.484375 
Q 45.5625 -1.421875 35.59375 -1.421875 
Q 29.59375 -1.421875 25.265625 0.953125 
Q 20.953125 3.328125 18.109375 8.203125 
L 18.109375 0 
L 9.078125 0 
L 9.078125 75.984375 
L 18.109375 75.984375 
z
" id="DejaVuSans-98"/>
      <path d="M 54.890625 54.6875 
L 35.109375 28.078125 
L 55.90625 0 
L 45.3125 0 
L 29.390625 21.484375 
L 13.484375 0 
L 2.875 0 
L 24.125 28.609375 
L 4.6875 54.6875 
L 15.28125 54.6875 
L 29.78125 35.203125 
L 44.28125 54.6875 
z
" id="DejaVuSans-120"/>
      <path d="M 4.890625 31.390625 
L 31.203125 31.390625 
L 31.203125 23.390625 
L 4.890625 23.390625 
z
" id="DejaVuSans-45"/>
      <path d="M 10.6875 12.40625 
L 21 12.40625 
L 21 0 
L 10.6875 0 
z
" id="DejaVuSans-46"/>
      <path d="M 11.71875 12.40625 
L 22.015625 12.40625 
L 22.015625 4 
L 14.015625 -11.625 
L 7.71875 -11.625 
L 11.71875 4 
z
" id="DejaVuSans-44"/>
      <path d="M 44.28125 53.078125 
L 44.28125 44.578125 
Q 40.484375 46.53125 36.375 47.5 
Q 32.28125 48.484375 27.875 48.484375 
Q 21.1875 48.484375 17.84375 46.4375 
Q 14.5 44.390625 14.5 40.28125 
Q 14.5 37.15625 16.890625 35.375 
Q 19.28125 33.59375 26.515625 31.984375 
L 29.59375 31.296875 
Q 39.15625 29.25 43.1875 25.515625 
Q 47.21875 21.78125 47.21875 15.09375 
Q 47.21875 7.46875 41.1875 3.015625 
Q 35.15625 -1.421875 24.609375 -1.421875 
Q 20.21875 -1.421875 15.453125 -0.5625 
Q 10.6875 0.296875 5.421875 2 
L 5.421875 11.28125 
Q 10.40625 8.6875 15.234375 7.390625 
Q 20.0625 6.109375 24.8125 6.109375 
Q 31.15625 6.109375 34.5625 8.28125 
Q 37.984375 10.453125 37.984375 14.40625 
Q 37.984375 18.0625 35.515625 20.015625 
Q 33.0625 21.96875 24.703125 23.78125 
L 21.578125 24.515625 
Q 13.234375 26.265625 9.515625 29.90625 
Q 5.8125 33.546875 5.8125 39.890625 
Q 5.8125 47.609375 11.28125 51.796875 
Q 16.75 56 26.8125 56 
Q 31.78125 56 36.171875 55.265625 
Q 40.578125 54.546875 44.28125 53.078125 
z
" id="DejaVuSans-115"/>
      <path d="M 25.390625 72.90625 
L 33.6875 72.90625 
L 8.296875 -9.28125 
L 0 -9.28125 
z
" id="DejaVuSans-47"/>
      <path d="M 37.109375 75.984375 
L 37.109375 68.5 
L 28.515625 68.5 
Q 23.6875 68.5 21.796875 66.546875 
Q 19.921875 64.59375 19.921875 59.515625 
L 19.921875 54.6875 
L 34.71875 54.6875 
L 34.71875 47.703125 
L 19.921875 47.703125 
L 19.921875 0 
L 10.890625 0 
L 10.890625 47.703125 
L 2.296875 47.703125 
L 2.296875 54.6875 
L 10.890625 54.6875 
L 10.890625 58.5 
Q 10.890625 67.625 15.140625 71.796875 
Q 19.390625 75.984375 28.609375 75.984375 
z
" id="DejaVuSans-102"/>
      <path d="M 5.515625 54.6875 
L 48.1875 54.6875 
L 48.1875 46.484375 
L 14.40625 7.171875 
L 48.1875 7.171875 
L 48.1875 0 
L 4.296875 0 
L 4.296875 8.203125 
L 38.09375 47.515625 
L 5.515625 47.515625 
z
" id="DejaVuSans-122"/>
     </defs>
     <use xlink:href="#DejaVuSans-108"/>
     <use x="27.783203" xlink:href="#DejaVuSans-105"/>
     <use x="55.566406" xlink:href="#DejaVuSans-98"/>
     <use x="119.042969" xlink:href="#DejaVuSans-120"/>
     <use x="178.222656" xlink:href="#DejaVuSans-109"/>
     <use x="275.634766" xlink:href="#DejaVuSans-108"/>
     <use x="303.417969" xlink:href="#DejaVuSans-50"/>
     <use x="367.041016" xlink:href="#DejaVuSans-45"/>
     <use x="400.5" xlink:href="#DejaVuSans-118"/>
     <use x="459.679688" xlink:href="#DejaVuSans-50"/>
     <use x="523.302734" xlink:href="#DejaVuSans-46"/>
     <use x="555.089844" xlink:href="#DejaVuSans-57"/>
     <use x="618.712891" xlink:href="#DejaVuSans-46"/>
     <use x="650.5" xlink:href="#DejaVuSans-50"/>
     <use x="714.123047" xlink:href="#DejaVuSans-32"/>
     <use x="745.910156" xlink:href="#DejaVuSans-40"/>
     <use x="784.923828" xlink:href="#DejaVuSans-50"/>
     <use x="848.546875" xlink:href="#DejaVuSans-51"/>
     <use x="912.169922" xlink:href="#DejaVuSans-104"/>
     <use x="975.548828" xlink:href="#DejaVuSans-58"/>
     <use x="1009.240234" xlink:href="#DejaVuSans-49"/>
     <use x="1072.863281" xlink:href="#DejaVuSans-53"/>
     <use x="1136.486328" xlink:href="#DejaVuSans-109"/>
     <use x="1233.898438" xlink:href="#DejaVuSans-44"/>
     <use x="1265.685547" xlink:href="#DejaVuSans-32"/>
     <use x="1297.472656" xlink:href="#DejaVuSans-50"/>
     <use x="1361.095703" xlink:href="#DejaVuSans-32"/>
     <use x="1392.882812" xlink:href="#DejaVuSans-116"/>
     <use x="1432.091797" xlink:href="#DejaVuSans-114"/>
     <use x="1473.205078" xlink:href="#DejaVuSans-105"/>
     <use x="1500.988281" xlink:href="#DejaVuSans-97"/>
     <use x="1562.267578" xlink:href="#DejaVuSans-108"/>
     <use x="1590.050781" xlink:href="#DejaVuSans-115"/>
     <use x="1642.150391" xlink:href="#DejaVuSans-47"/>
     <use x="1675.841797" xlink:href="#DejaVuSans-102"/>
     <use x="1711.046875" xlink:href="#DejaVuSans-117"/>
     <use x="1774.425781" xlink:href="#DejaVuSans-122"/>
     <use x="1826.916016" xlink:href="#DejaVuSans-122"/>
     <use x="1879.40625" xlink:href="#DejaVuSans-101"/>
     <use x="1940.929688" xlink:href="#DejaVuSans-114"/>
     <use x="1982.042969" xlink:href="#DejaVuSans-41"/>
    </g>
   </g>
   <g id="legend_1">
    <g id="line2d_24">
     <path d="M 771.568125 30.416562 
L 791.568125 30.416562 
" style="fill:none;"/>
    </g>
    <g id="line2d_25"/>
    <g id="text_21">
     <!-- fuzzer -->
     <g transform="translate(799.568125 33.916562)scale(0.1 -0.1)">
      <use xlink:href="#DejaVuSans-102"/>
      <use x="35.205078" xlink:href="#DejaVuSans-117"/>
      <use x="98.583984" xlink:href="#DejaVuSans-122"/>
      <use x="151.074219" xlink:href="#DejaVuSans-122"/>
      <use x="203.564453" xlink:href="#DejaVuSans-101"/>
      <use x="265.087891" xlink:href="#DejaVuSans-114"/>
     </g>
    </g>
    <g id="line2d_26">
     <path d="M 771.568125 45.094688 
L 791.568125 45.094688 
" style="fill:none;stroke:#98df8a;stroke-linecap:square;stroke-width:1.5;"/>
    </g>
    <g id="line2d_27">
     <defs>
      <path d="M -0 3 
L 3 -3 
L -3 -3 
z
" id="m876d5d4071" style="stroke:#98df8a;stroke-linejoin:miter;"/>
     </defs>
     <g>
      <use style="fill:#98df8a;stroke:#98df8a;stroke-linejoin:miter;" x="781.568125" xlink:href="#m876d5d4071" y="45.094688"/>
     </g>
    </g>
    <g id="text_22">
     <!-- dark_instru_cond -->
     <g transform="translate(799.568125 48.594688)scale(0.1 -0.1)">
      <defs>
       <path d="M 9.078125 75.984375 
L 18.109375 75.984375 
L 18.109375 31.109375 
L 44.921875 54.6875 
L 56.390625 54.6875 
L 27.390625 29.109375 
L 57.625 0 
L 45.90625 0 
L 18.109375 26.703125 
L 18.109375 0 
L 9.078125 0 
z
" id="DejaVuSans-107"/>
       <path d="M 50.984375 -16.609375 
L 50.984375 -23.578125 
L -0.984375 -23.578125 
L -0.984375 -16.609375 
z
" id="DejaVuSans-95"/>
      </defs>
      <use xlink:href="#DejaVuSans-100"/>
      <use x="63.476562" xlink:href="#DejaVuSans-97"/>
      <use x="124.755859" xlink:href="#DejaVuSans-114"/>
      <use x="165.869141" xlink:href="#DejaVuSans-107"/>
      <use x="223.779297" xlink:href="#DejaVuSans-95"/>
      <use x="273.779297" xlink:href="#DejaVuSans-105"/>
      <use x="301.5625" xlink:href="#DejaVuSans-110"/>
      <use x="364.941406" xlink:href="#DejaVuSans-115"/>
      <use x="417.041016" xlink:href="#DejaVuSans-116"/>
      <use x="456.25" xlink:href="#DejaVuSans-114"/>
      <use x="497.363281" xlink:href="#DejaVuSans-117"/>
      <use x="560.742188" xlink:href="#DejaVuSans-95"/>
      <use x="610.742188" xlink:href="#DejaVuSans-99"/>
      <use x="665.722656" xlink:href="#DejaVuSans-111"/>
      <use x="726.904297" xlink:href="#DejaVuSans-110"/>
      <use x="790.283203" xlink:href="#DejaVuSans-100"/>
     </g>
    </g>
    <g id="line2d_28">
     <path d="M 771.568125 60.050937 
L 791.568125 60.050937 
" style="fill:none;stroke:#1f77b4;stroke-linecap:square;stroke-width:1.5;"/>
    </g>
    <g id="line2d_29">
     <defs>
      <path d="M 0 3 
C 0.795609 3 1.55874 2.683901 2.12132 2.12132 
C 2.683901 1.55874 3 0.795609 3 0 
C 3 -0.795609 2.683901 -1.55874 2.12132 -2.12132 
C 1.55874 -2.683901 0.795609 -3 0 -3 
C -0.795609 -3 -1.55874 -2.683901 -2.12132 -2.12132 
C -2.683901 -1.55874 -3 -0.795609 -3 0 
C -3 0.795609 -2.683901 1.55874 -2.12132 2.12132 
C -1.55874 2.683901 -0.795609 3 0 3 
z
" id="m82b2d9b694" style="stroke:#1f77b4;"/>
     </defs>
     <g>
      <use style="fill:#1f77b4;stroke:#1f77b4;" x="781.568125" xlink:href="#m82b2d9b694" y="60.050937"/>
     </g>
    </g>
    <g id="text_23">
     <!-- afldark_dev -->
     <g transform="translate(799.568125 63.550937)scale(0.1 -0.1)">
      <use xlink:href="#DejaVuSans-97"/>
      <use x="61.279297" xlink:href="#DejaVuSans-102"/>
      <use x="96.484375" xlink:href="#DejaVuSans-108"/>
      <use x="124.267578" xlink:href="#DejaVuSans-100"/>
      <use x="187.744141" xlink:href="#DejaVuSans-97"/>
      <use x="249.023438" xlink:href="#DejaVuSans-114"/>
      <use x="290.136719" xlink:href="#DejaVuSans-107"/>
      <use x="348.046875" xlink:href="#DejaVuSans-95"/>
      <use x="398.046875" xlink:href="#DejaVuSans-100"/>
      <use x="461.523438" xlink:href="#DejaVuSans-101"/>
      <use x="523.046875" xlink:href="#DejaVuSans-118"/>
     </g>
    </g>
   </g>
  </g>
 </g>
 <defs>
  <clipPath id="p2a0a7e1733">
   <rect height="266.112" width="714.24" x="53.328125" y="22.318125"/>
  </clipPath>
 </defs>
</svg>
