<?xml version="1.0" encoding="utf-8" standalone="no"?>
<!DOCTYPE svg PUBLIC "-//W3C//DTD SVG 1.1//EN"
  "http://www.w3.org/Graphics/SVG/1.1/DTD/svg11.dtd">
<!-- Created with matplotlib (https://matplotlib.org/) -->
<svg height="367.618115pt" version="1.1" viewBox="0 0 417.648125 367.618115" width="417.648125pt" xmlns="http://www.w3.org/2000/svg" xmlns:xlink="http://www.w3.org/1999/xlink">
 <metadata>
  <rdf:RDF xmlns:cc="http://creativecommons.org/ns#" xmlns:dc="http://purl.org/dc/elements/1.1/" xmlns:rdf="http://www.w3.org/1999/02/22-rdf-syntax-ns#">
   <cc:Work>
    <dc:type rdf:resource="http://purl.org/dc/dcmitype/StillImage"/>
    <dc:date>2020-12-29T17:06:41.884242</dc:date>
    <dc:format>image/svg+xml</dc:format>
    <dc:creator>
     <cc:Agent>
      <dc:title>Matplotlib v3.3.2, https://matplotlib.org/</dc:title>
     </cc:Agent>
    </dc:creator>
   </cc:Work>
  </rdf:RDF>
 </metadata>
 <defs>
  <style type="text/css">*{stroke-linecap:butt;stroke-linejoin:round;}</style>
 </defs>
 <g id="figure_1">
  <g id="patch_1">
   <path d="M 0 367.618115 
L 417.648125 367.618115 
L 417.648125 0 
L 0 0 
z
" style="fill:#ffffff;"/>
  </g>
  <g id="axes_1">
   <g id="patch_2">
    <path d="M 53.328125 288.430125 
L 410.448125 288.430125 
L 410.448125 22.318125 
L 53.328125 22.318125 
z
" style="fill:#ffffff;"/>
   </g>
   <g id="PolyCollection_1">
    <defs>
     <path d="M 144.445105 -91.28399 
L 140.771145 -91.28399 
L 140.469153 -93.727627 
L 140.132226 -96.171263 
L 139.75912 -98.6149 
L 139.349063 -101.058536 
L 138.901843 -103.502172 
L 138.417876 -105.945809 
L 137.898271 -108.389445 
L 137.344879 -110.833081 
L 136.760311 -113.276718 
L 136.147944 -115.720354 
L 135.51189 -118.16399 
L 134.856941 -120.607627 
L 134.188474 -123.051263 
L 133.512333 -125.4949 
L 132.834672 -127.938536 
L 132.161779 -130.382172 
L 131.499867 -132.825809 
L 130.85486 -135.269445 
L 130.232156 -137.713081 
L 129.636397 -140.156718 
L 129.071248 -142.600354 
L 128.539188 -145.04399 
L 128.041333 -147.487627 
L 127.577293 -149.931263 
L 127.14508 -152.3749 
L 126.741057 -154.818536 
L 126.359958 -157.262172 
L 125.994957 -159.705809 
L 125.637807 -162.149445 
L 125.279035 -164.593081 
L 124.908189 -167.036718 
L 124.514147 -169.480354 
L 124.085452 -171.92399 
L 123.610686 -174.367627 
L 123.078863 -176.811263 
L 122.479821 -179.2549 
L 121.804613 -181.698536 
L 121.04587 -184.142172 
L 120.198136 -186.585809 
L 119.258148 -189.029445 
L 118.225066 -191.473081 
L 117.100632 -193.916718 
L 115.889262 -196.360354 
L 114.598057 -198.80399 
L 113.236737 -201.247627 
L 111.817503 -203.691263 
L 110.35482 -206.1349 
L 108.865143 -208.578536 
L 107.366575 -211.022172 
L 105.878483 -213.465809 
L 104.42108 -215.909445 
L 103.014979 -218.353081 
L 101.680737 -220.796718 
L 100.438407 -223.240354 
L 99.3071 -225.68399 
L 98.304576 -228.127627 
L 97.446878 -230.571263 
L 96.748007 -233.0149 
L 96.219653 -235.458536 
L 95.870992 -237.902172 
L 95.708543 -240.345809 
L 95.736083 -242.789445 
L 95.954641 -245.233081 
L 96.362536 -247.676718 
L 96.955488 -250.120354 
L 97.726767 -252.56399 
L 98.667394 -255.007627 
L 99.766381 -257.451263 
L 101.010988 -259.8949 
L 102.387018 -262.338536 
L 103.879107 -264.782172 
L 105.471037 -267.225809 
L 107.146032 -269.669445 
L 108.887055 -272.113081 
L 110.677089 -274.556718 
L 112.499398 -277.000354 
L 114.337771 -279.44399 
L 116.17673 -281.887627 
L 118.001726 -284.331263 
L 119.799291 -286.7749 
L 121.557169 -289.218536 
L 123.264418 -291.662172 
L 124.911474 -294.105809 
L 126.490193 -296.549445 
L 127.993865 -298.993081 
L 129.417202 -301.436718 
L 130.756298 -303.880354 
L 132.008573 -306.32399 
L 133.172695 -308.767627 
L 134.248488 -311.211263 
L 135.236827 -313.6549 
L 136.139522 -316.098536 
L 136.959194 -318.542172 
L 137.699153 -320.985809 
L 138.36327 -323.429445 
L 138.955856 -325.873081 
L 139.481538 -328.316718 
L 139.945154 -330.760354 
L 140.351645 -333.20399 
L 144.864605 -333.20399 
L 144.864605 -333.20399 
L 145.271096 -330.760354 
L 145.734712 -328.316718 
L 146.260394 -325.873081 
L 146.85298 -323.429445 
L 147.517097 -320.985809 
L 148.257056 -318.542172 
L 149.076728 -316.098536 
L 149.979423 -313.6549 
L 150.967762 -311.211263 
L 152.043555 -308.767627 
L 153.207677 -306.32399 
L 154.459952 -303.880354 
L 155.799048 -301.436718 
L 157.222385 -298.993081 
L 158.726057 -296.549445 
L 160.304776 -294.105809 
L 161.951832 -291.662172 
L 163.659081 -289.218536 
L 165.416959 -286.7749 
L 167.214524 -284.331263 
L 169.03952 -281.887627 
L 170.878479 -279.44399 
L 172.716852 -277.000354 
L 174.539161 -274.556718 
L 176.329195 -272.113081 
L 178.070218 -269.669445 
L 179.745213 -267.225809 
L 181.337143 -264.782172 
L 182.829232 -262.338536 
L 184.205262 -259.8949 
L 185.449869 -257.451263 
L 186.548856 -255.007627 
L 187.489483 -252.56399 
L 188.260762 -250.120354 
L 188.853714 -247.676718 
L 189.261609 -245.233081 
L 189.480167 -242.789445 
L 189.507707 -240.345809 
L 189.345258 -237.902172 
L 188.996597 -235.458536 
L 188.468243 -233.0149 
L 187.769372 -230.571263 
L 186.911674 -228.127627 
L 185.90915 -225.68399 
L 184.777843 -223.240354 
L 183.535513 -220.796718 
L 182.201271 -218.353081 
L 180.79517 -215.909445 
L 179.337767 -213.465809 
L 177.849675 -211.022172 
L 176.351107 -208.578536 
L 174.86143 -206.1349 
L 173.398747 -203.691263 
L 171.979513 -201.247627 
L 170.618193 -198.80399 
L 169.326988 -196.360354 
L 168.115618 -193.916718 
L 166.991184 -191.473081 
L 165.958102 -189.029445 
L 165.018114 -186.585809 
L 164.17038 -184.142172 
L 163.411637 -181.698536 
L 162.736429 -179.2549 
L 162.137387 -176.811263 
L 161.605564 -174.367627 
L 161.130798 -171.92399 
L 160.702103 -169.480354 
L 160.308061 -167.036718 
L 159.937215 -164.593081 
L 159.578443 -162.149445 
L 159.221293 -159.705809 
L 158.856292 -157.262172 
L 158.475193 -154.818536 
L 158.07117 -152.3749 
L 157.638957 -149.931263 
L 157.174917 -147.487627 
L 156.677062 -145.04399 
L 156.145002 -142.600354 
L 155.579853 -140.156718 
L 154.984094 -137.713081 
L 154.36139 -135.269445 
L 153.716383 -132.825809 
L 153.054471 -130.382172 
L 152.381578 -127.938536 
L 151.703917 -125.4949 
L 151.027776 -123.051263 
L 150.359309 -120.607627 
L 149.70436 -118.16399 
L 149.068306 -115.720354 
L 148.455939 -113.276718 
L 147.871371 -110.833081 
L 147.317979 -108.389445 
L 146.798374 -105.945809 
L 146.314407 -103.502172 
L 145.867187 -101.058536 
L 145.45713 -98.6149 
L 145.084024 -96.171263 
L 144.747097 -93.727627 
L 144.445105 -91.28399 
z
" id="m5d41a83323" style="stroke:#3f3f3f;stroke-width:1.5;"/>
    </defs>
    <g clip-path="url(#pff27df6708)">
     <use style="fill:#3274a1;stroke:#3f3f3f;stroke-width:1.5;" x="0" xlink:href="#m5d41a83323" y="367.618115"/>
    </g>
   </g>
   <g id="PolyCollection_2">
    <defs>
     <path d="M 324.449776 -137.714598 
L 317.886474 -137.714598 
L 317.40542 -139.248343 
L 316.87451 -140.782088 
L 316.292126 -142.315833 
L 315.657197 -143.849578 
L 314.969294 -145.383323 
L 314.228706 -146.917068 
L 313.436523 -148.450813 
L 312.594693 -149.984558 
L 311.706066 -151.518303 
L 310.77442 -153.052048 
L 309.804459 -154.585793 
L 308.801784 -156.119538 
L 307.772841 -157.653283 
L 306.724827 -159.187029 
L 305.665578 -160.720774 
L 304.603412 -162.254519 
L 303.546957 -163.788264 
L 302.504945 -165.322009 
L 301.485984 -166.855754 
L 300.498314 -168.389499 
L 299.549559 -169.923244 
L 298.646467 -171.456989 
L 297.794659 -172.990734 
L 296.998395 -174.524479 
L 296.260352 -176.058224 
L 295.581446 -177.591969 
L 294.960681 -179.125714 
L 294.395048 -180.659459 
L 293.87948 -182.193204 
L 293.406859 -183.726949 
L 292.968085 -185.260694 
L 292.55221 -186.794439 
L 292.146633 -188.328184 
L 291.737352 -189.861929 
L 291.309283 -191.395674 
L 290.846613 -192.929419 
L 290.333214 -194.463164 
L 289.753077 -195.99691 
L 289.090773 -197.530655 
L 288.331928 -199.0644 
L 287.463691 -200.598145 
L 286.475189 -202.13189 
L 285.357952 -203.665635 
L 284.106296 -205.19938 
L 282.717657 -206.733125 
L 281.192846 -208.26687 
L 279.536246 -209.800615 
L 277.75591 -211.33436 
L 275.863579 -212.868105 
L 273.874599 -214.40185 
L 271.807751 -215.935595 
L 269.684983 -217.46934 
L 267.531052 -219.003085 
L 265.37309 -220.53683 
L 263.240093 -222.070575 
L 261.162349 -223.60432 
L 259.170825 -225.138065 
L 257.296515 -226.67181 
L 255.569784 -228.205555 
L 254.019704 -229.7393 
L 252.673423 -231.273046 
L 251.555563 -232.806791 
L 250.687681 -234.340536 
L 250.087794 -235.874281 
L 249.769988 -237.408026 
L 249.744125 -238.941771 
L 250.015646 -240.475516 
L 250.58548 -242.009261 
L 251.450061 -243.543006 
L 252.601447 -245.076751 
L 254.027545 -246.610496 
L 255.71242 -248.144241 
L 257.636689 -249.677986 
L 259.777981 -251.211731 
L 262.111455 -252.745476 
L 264.610347 -254.279221 
L 267.246549 -255.812966 
L 269.991188 -257.346711 
L 272.815191 -258.880456 
L 275.689834 -260.414201 
L 278.587244 -261.947946 
L 281.480858 -263.481691 
L 284.34582 -265.015436 
L 287.159315 -266.549181 
L 289.900832 -268.082927 
L 292.552358 -269.616672 
L 295.098499 -271.150417 
L 297.526536 -272.684162 
L 299.826412 -274.217907 
L 301.990671 -275.751652 
L 304.014334 -277.285397 
L 305.894743 -278.819142 
L 307.631363 -280.352887 
L 309.225566 -281.886632 
L 310.680393 -283.420377 
L 312.000308 -284.954122 
L 313.19095 -286.487867 
L 314.258895 -288.021612 
L 315.211417 -289.555357 
L 327.124833 -289.555357 
L 327.124833 -289.555357 
L 328.077355 -288.021612 
L 329.1453 -286.487867 
L 330.335942 -284.954122 
L 331.655857 -283.420377 
L 333.110684 -281.886632 
L 334.704887 -280.352887 
L 336.441507 -278.819142 
L 338.321916 -277.285397 
L 340.345579 -275.751652 
L 342.509838 -274.217907 
L 344.809714 -272.684162 
L 347.237751 -271.150417 
L 349.783892 -269.616672 
L 352.435418 -268.082927 
L 355.176935 -266.549181 
L 357.99043 -265.015436 
L 360.855392 -263.481691 
L 363.749006 -261.947946 
L 366.646416 -260.414201 
L 369.521059 -258.880456 
L 372.345062 -257.346711 
L 375.089701 -255.812966 
L 377.725903 -254.279221 
L 380.224795 -252.745476 
L 382.558269 -251.211731 
L 384.699561 -249.677986 
L 386.62383 -248.144241 
L 388.308705 -246.610496 
L 389.734803 -245.076751 
L 390.886189 -243.543006 
L 391.75077 -242.009261 
L 392.320604 -240.475516 
L 392.592125 -238.941771 
L 392.566262 -237.408026 
L 392.248456 -235.874281 
L 391.648569 -234.340536 
L 390.780687 -232.806791 
L 389.662827 -231.273046 
L 388.316546 -229.7393 
L 386.766466 -228.205555 
L 385.039735 -226.67181 
L 383.165425 -225.138065 
L 381.173901 -223.60432 
L 379.096157 -222.070575 
L 376.96316 -220.53683 
L 374.805198 -219.003085 
L 372.651267 -217.46934 
L 370.528499 -215.935595 
L 368.461651 -214.40185 
L 366.472671 -212.868105 
L 364.58034 -211.33436 
L 362.800004 -209.800615 
L 361.143404 -208.26687 
L 359.618593 -206.733125 
L 358.229954 -205.19938 
L 356.978298 -203.665635 
L 355.861061 -202.13189 
L 354.872559 -200.598145 
L 354.004322 -199.0644 
L 353.245477 -197.530655 
L 352.583173 -195.99691 
L 352.003036 -194.463164 
L 351.489637 -192.929419 
L 351.026967 -191.395674 
L 350.598898 -189.861929 
L 350.189617 -188.328184 
L 349.78404 -186.794439 
L 349.368165 -185.260694 
L 348.929391 -183.726949 
L 348.45677 -182.193204 
L 347.941202 -180.659459 
L 347.375569 -179.125714 
L 346.754804 -177.591969 
L 346.075898 -176.058224 
L 345.337855 -174.524479 
L 344.541591 -172.990734 
L 343.689783 -171.456989 
L 342.786691 -169.923244 
L 341.837936 -168.389499 
L 340.850266 -166.855754 
L 339.831305 -165.322009 
L 338.789293 -163.788264 
L 337.732838 -162.254519 
L 336.670672 -160.720774 
L 335.611423 -159.187029 
L 334.563409 -157.653283 
L 333.534466 -156.119538 
L 332.531791 -154.585793 
L 331.56183 -153.052048 
L 330.630184 -151.518303 
L 329.741557 -149.984558 
L 328.899727 -148.450813 
L 328.107544 -146.917068 
L 327.366956 -145.383323 
L 326.679053 -143.849578 
L 326.044124 -142.315833 
L 325.46174 -140.782088 
L 324.93083 -139.248343 
L 324.449776 -137.714598 
z
" id="m62406c0210" style="stroke:#3f3f3f;stroke-width:1.5;"/>
    </defs>
    <g clip-path="url(#pff27df6708)">
     <use style="fill:#9fd495;stroke:#3f3f3f;stroke-width:1.5;" x="0" xlink:href="#m62406c0210" y="367.618115"/>
    </g>
   </g>
   <g id="matplotlib.axis_1">
    <g id="xtick_1">
     <g id="line2d_1">
      <defs>
       <path d="M 0 0 
L 0 3.5 
" id="m8adb77d74f" style="stroke:#000000;stroke-width:0.8;"/>
      </defs>
      <g>
       <use style="stroke:#000000;stroke-width:0.8;" x="142.608125" xlink:href="#m8adb77d74f" y="288.430125"/>
      </g>
     </g>
     <g id="text_1">
      <!-- afldark_dev -->
      <g transform="translate(91.00489 331.123065)rotate(-30)scale(0.1 -0.1)">
       <defs>
        <path d="M 34.28125 27.484375 
Q 23.390625 27.484375 19.1875 25 
Q 14.984375 22.515625 14.984375 16.5 
Q 14.984375 11.71875 18.140625 8.90625 
Q 21.296875 6.109375 26.703125 6.109375 
Q 34.1875 6.109375 38.703125 11.40625 
Q 43.21875 16.703125 43.21875 25.484375 
L 43.21875 27.484375 
z
M 52.203125 31.203125 
L 52.203125 0 
L 43.21875 0 
L 43.21875 8.296875 
Q 40.140625 3.328125 35.546875 0.953125 
Q 30.953125 -1.421875 24.3125 -1.421875 
Q 15.921875 -1.421875 10.953125 3.296875 
Q 6 8.015625 6 15.921875 
Q 6 25.140625 12.171875 29.828125 
Q 18.359375 34.515625 30.609375 34.515625 
L 43.21875 34.515625 
L 43.21875 35.40625 
Q 43.21875 41.609375 39.140625 45 
Q 35.0625 48.390625 27.6875 48.390625 
Q 23 48.390625 18.546875 47.265625 
Q 14.109375 46.140625 10.015625 43.890625 
L 10.015625 52.203125 
Q 14.9375 54.109375 19.578125 55.046875 
Q 24.21875 56 28.609375 56 
Q 40.484375 56 46.34375 49.84375 
Q 52.203125 43.703125 52.203125 31.203125 
z
" id="DejaVuSans-97"/>
        <path d="M 37.109375 75.984375 
L 37.109375 68.5 
L 28.515625 68.5 
Q 23.6875 68.5 21.796875 66.546875 
Q 19.921875 64.59375 19.921875 59.515625 
L 19.921875 54.6875 
L 34.71875 54.6875 
L 34.71875 47.703125 
L 19.921875 47.703125 
L 19.921875 0 
L 10.890625 0 
L 10.890625 47.703125 
L 2.296875 47.703125 
L 2.296875 54.6875 
L 10.890625 54.6875 
L 10.890625 58.5 
Q 10.890625 67.625 15.140625 71.796875 
Q 19.390625 75.984375 28.609375 75.984375 
z
" id="DejaVuSans-102"/>
        <path d="M 9.421875 75.984375 
L 18.40625 75.984375 
L 18.40625 0 
L 9.421875 0 
z
" id="DejaVuSans-108"/>
        <path d="M 45.40625 46.390625 
L 45.40625 75.984375 
L 54.390625 75.984375 
L 54.390625 0 
L 45.40625 0 
L 45.40625 8.203125 
Q 42.578125 3.328125 38.25 0.953125 
Q 33.9375 -1.421875 27.875 -1.421875 
Q 17.96875 -1.421875 11.734375 6.484375 
Q 5.515625 14.40625 5.515625 27.296875 
Q 5.515625 40.1875 11.734375 48.09375 
Q 17.96875 56 27.875 56 
Q 33.9375 56 38.25 53.625 
Q 42.578125 51.265625 45.40625 46.390625 
z
M 14.796875 27.296875 
Q 14.796875 17.390625 18.875 11.75 
Q 22.953125 6.109375 30.078125 6.109375 
Q 37.203125 6.109375 41.296875 11.75 
Q 45.40625 17.390625 45.40625 27.296875 
Q 45.40625 37.203125 41.296875 42.84375 
Q 37.203125 48.484375 30.078125 48.484375 
Q 22.953125 48.484375 18.875 42.84375 
Q 14.796875 37.203125 14.796875 27.296875 
z
" id="DejaVuSans-100"/>
        <path d="M 41.109375 46.296875 
Q 39.59375 47.171875 37.8125 47.578125 
Q 36.03125 48 33.890625 48 
Q 26.265625 48 22.1875 43.046875 
Q 18.109375 38.09375 18.109375 28.8125 
L 18.109375 0 
L 9.078125 0 
L 9.078125 54.6875 
L 18.109375 54.6875 
L 18.109375 46.1875 
Q 20.953125 51.171875 25.484375 53.578125 
Q 30.03125 56 36.53125 56 
Q 37.453125 56 38.578125 55.875 
Q 39.703125 55.765625 41.0625 55.515625 
z
" id="DejaVuSans-114"/>
        <path d="M 9.078125 75.984375 
L 18.109375 75.984375 
L 18.109375 31.109375 
L 44.921875 54.6875 
L 56.390625 54.6875 
L 27.390625 29.109375 
L 57.625 0 
L 45.90625 0 
L 18.109375 26.703125 
L 18.109375 0 
L 9.078125 0 
z
" id="DejaVuSans-107"/>
        <path d="M 50.984375 -16.609375 
L 50.984375 -23.578125 
L -0.984375 -23.578125 
L -0.984375 -16.609375 
z
" id="DejaVuSans-95"/>
        <path d="M 56.203125 29.59375 
L 56.203125 25.203125 
L 14.890625 25.203125 
Q 15.484375 15.921875 20.484375 11.0625 
Q 25.484375 6.203125 34.421875 6.203125 
Q 39.59375 6.203125 44.453125 7.46875 
Q 49.3125 8.734375 54.109375 11.28125 
L 54.109375 2.78125 
Q 49.265625 0.734375 44.1875 -0.34375 
Q 39.109375 -1.421875 33.890625 -1.421875 
Q 20.796875 -1.421875 13.15625 6.1875 
Q 5.515625 13.8125 5.515625 26.8125 
Q 5.515625 40.234375 12.765625 48.109375 
Q 20.015625 56 32.328125 56 
Q 43.359375 56 49.78125 48.890625 
Q 56.203125 41.796875 56.203125 29.59375 
z
M 47.21875 32.234375 
Q 47.125 39.59375 43.09375 43.984375 
Q 39.0625 48.390625 32.421875 48.390625 
Q 24.90625 48.390625 20.390625 44.140625 
Q 15.875 39.890625 15.1875 32.171875 
z
" id="DejaVuSans-101"/>
        <path d="M 2.984375 54.6875 
L 12.5 54.6875 
L 29.59375 8.796875 
L 46.6875 54.6875 
L 56.203125 54.6875 
L 35.6875 0 
L 23.484375 0 
z
" id="DejaVuSans-118"/>
       </defs>
       <use xlink:href="#DejaVuSans-97"/>
       <use x="61.279297" xlink:href="#DejaVuSans-102"/>
       <use x="96.484375" xlink:href="#DejaVuSans-108"/>
       <use x="124.267578" xlink:href="#DejaVuSans-100"/>
       <use x="187.744141" xlink:href="#DejaVuSans-97"/>
       <use x="249.023438" xlink:href="#DejaVuSans-114"/>
       <use x="290.136719" xlink:href="#DejaVuSans-107"/>
       <use x="348.046875" xlink:href="#DejaVuSans-95"/>
       <use x="398.046875" xlink:href="#DejaVuSans-100"/>
       <use x="461.523438" xlink:href="#DejaVuSans-101"/>
       <use x="523.046875" xlink:href="#DejaVuSans-118"/>
      </g>
     </g>
    </g>
    <g id="xtick_2">
     <g id="line2d_2">
      <g>
       <use style="stroke:#000000;stroke-width:0.8;" x="321.168125" xlink:href="#m8adb77d74f" y="288.430125"/>
      </g>
     </g>
     <g id="text_2">
      <!-- dark_instru_cond -->
      <g transform="translate(246.0523 344.698065)rotate(-30)scale(0.1 -0.1)">
       <defs>
        <path d="M 9.421875 54.6875 
L 18.40625 54.6875 
L 18.40625 0 
L 9.421875 0 
z
M 9.421875 75.984375 
L 18.40625 75.984375 
L 18.40625 64.59375 
L 9.421875 64.59375 
z
" id="DejaVuSans-105"/>
        <path d="M 54.890625 33.015625 
L 54.890625 0 
L 45.90625 0 
L 45.90625 32.71875 
Q 45.90625 40.484375 42.875 44.328125 
Q 39.84375 48.1875 33.796875 48.1875 
Q 26.515625 48.1875 22.3125 43.546875 
Q 18.109375 38.921875 18.109375 30.90625 
L 18.109375 0 
L 9.078125 0 
L 9.078125 54.6875 
L 18.109375 54.6875 
L 18.109375 46.1875 
Q 21.34375 51.125 25.703125 53.5625 
Q 30.078125 56 35.796875 56 
Q 45.21875 56 50.046875 50.171875 
Q 54.890625 44.34375 54.890625 33.015625 
z
" id="DejaVuSans-110"/>
        <path d="M 44.28125 53.078125 
L 44.28125 44.578125 
Q 40.484375 46.53125 36.375 47.5 
Q 32.28125 48.484375 27.875 48.484375 
Q 21.1875 48.484375 17.84375 46.4375 
Q 14.5 44.390625 14.5 40.28125 
Q 14.5 37.15625 16.890625 35.375 
Q 19.28125 33.59375 26.515625 31.984375 
L 29.59375 31.296875 
Q 39.15625 29.25 43.1875 25.515625 
Q 47.21875 21.78125 47.21875 15.09375 
Q 47.21875 7.46875 41.1875 3.015625 
Q 35.15625 -1.421875 24.609375 -1.421875 
Q 20.21875 -1.421875 15.453125 -0.5625 
Q 10.6875 0.296875 5.421875 2 
L 5.421875 11.28125 
Q 10.40625 8.6875 15.234375 7.390625 
Q 20.0625 6.109375 24.8125 6.109375 
Q 31.15625 6.109375 34.5625 8.28125 
Q 37.984375 10.453125 37.984375 14.40625 
Q 37.984375 18.0625 35.515625 20.015625 
Q 33.0625 21.96875 24.703125 23.78125 
L 21.578125 24.515625 
Q 13.234375 26.265625 9.515625 29.90625 
Q 5.8125 33.546875 5.8125 39.890625 
Q 5.8125 47.609375 11.28125 51.796875 
Q 16.75 56 26.8125 56 
Q 31.78125 56 36.171875 55.265625 
Q 40.578125 54.546875 44.28125 53.078125 
z
" id="DejaVuSans-115"/>
        <path d="M 18.3125 70.21875 
L 18.3125 54.6875 
L 36.8125 54.6875 
L 36.8125 47.703125 
L 18.3125 47.703125 
L 18.3125 18.015625 
Q 18.3125 11.328125 20.140625 9.421875 
Q 21.96875 7.515625 27.59375 7.515625 
L 36.8125 7.515625 
L 36.8125 0 
L 27.59375 0 
Q 17.1875 0 13.234375 3.875 
Q 9.28125 7.765625 9.28125 18.015625 
L 9.28125 47.703125 
L 2.6875 47.703125 
L 2.6875 54.6875 
L 9.28125 54.6875 
L 9.28125 70.21875 
z
" id="DejaVuSans-116"/>
        <path d="M 8.5 21.578125 
L 8.5 54.6875 
L 17.484375 54.6875 
L 17.484375 21.921875 
Q 17.484375 14.15625 20.5 10.265625 
Q 23.53125 6.390625 29.59375 6.390625 
Q 36.859375 6.390625 41.078125 11.03125 
Q 45.3125 15.671875 45.3125 23.6875 
L 45.3125 54.6875 
L 54.296875 54.6875 
L 54.296875 0 
L 45.3125 0 
L 45.3125 8.40625 
Q 42.046875 3.421875 37.71875 1 
Q 33.40625 -1.421875 27.6875 -1.421875 
Q 18.265625 -1.421875 13.375 4.4375 
Q 8.5 10.296875 8.5 21.578125 
z
M 31.109375 56 
z
" id="DejaVuSans-117"/>
        <path d="M 48.78125 52.59375 
L 48.78125 44.1875 
Q 44.96875 46.296875 41.140625 47.34375 
Q 37.3125 48.390625 33.40625 48.390625 
Q 24.65625 48.390625 19.8125 42.84375 
Q 14.984375 37.3125 14.984375 27.296875 
Q 14.984375 17.28125 19.8125 11.734375 
Q 24.65625 6.203125 33.40625 6.203125 
Q 37.3125 6.203125 41.140625 7.25 
Q 44.96875 8.296875 48.78125 10.40625 
L 48.78125 2.09375 
Q 45.015625 0.34375 40.984375 -0.53125 
Q 36.96875 -1.421875 32.421875 -1.421875 
Q 20.0625 -1.421875 12.78125 6.34375 
Q 5.515625 14.109375 5.515625 27.296875 
Q 5.515625 40.671875 12.859375 48.328125 
Q 20.21875 56 33.015625 56 
Q 37.15625 56 41.109375 55.140625 
Q 45.0625 54.296875 48.78125 52.59375 
z
" id="DejaVuSans-99"/>
        <path d="M 30.609375 48.390625 
Q 23.390625 48.390625 19.1875 42.75 
Q 14.984375 37.109375 14.984375 27.296875 
Q 14.984375 17.484375 19.15625 11.84375 
Q 23.34375 6.203125 30.609375 6.203125 
Q 37.796875 6.203125 41.984375 11.859375 
Q 46.1875 17.53125 46.1875 27.296875 
Q 46.1875 37.015625 41.984375 42.703125 
Q 37.796875 48.390625 30.609375 48.390625 
z
M 30.609375 56 
Q 42.328125 56 49.015625 48.375 
Q 55.71875 40.765625 55.71875 27.296875 
Q 55.71875 13.875 49.015625 6.21875 
Q 42.328125 -1.421875 30.609375 -1.421875 
Q 18.84375 -1.421875 12.171875 6.21875 
Q 5.515625 13.875 5.515625 27.296875 
Q 5.515625 40.765625 12.171875 48.375 
Q 18.84375 56 30.609375 56 
z
" id="DejaVuSans-111"/>
       </defs>
       <use xlink:href="#DejaVuSans-100"/>
       <use x="63.476562" xlink:href="#DejaVuSans-97"/>
       <use x="124.755859" xlink:href="#DejaVuSans-114"/>
       <use x="165.869141" xlink:href="#DejaVuSans-107"/>
       <use x="223.779297" xlink:href="#DejaVuSans-95"/>
       <use x="273.779297" xlink:href="#DejaVuSans-105"/>
       <use x="301.5625" xlink:href="#DejaVuSans-110"/>
       <use x="364.941406" xlink:href="#DejaVuSans-115"/>
       <use x="417.041016" xlink:href="#DejaVuSans-116"/>
       <use x="456.25" xlink:href="#DejaVuSans-114"/>
       <use x="497.363281" xlink:href="#DejaVuSans-117"/>
       <use x="560.742188" xlink:href="#DejaVuSans-95"/>
       <use x="610.742188" xlink:href="#DejaVuSans-99"/>
       <use x="665.722656" xlink:href="#DejaVuSans-111"/>
       <use x="726.904297" xlink:href="#DejaVuSans-110"/>
       <use x="790.283203" xlink:href="#DejaVuSans-100"/>
      </g>
     </g>
    </g>
    <g id="text_3">
     <!-- Fuzzer (highest median coverage on the left) -->
     <g transform="translate(119.270156 358.338428)scale(0.1 -0.1)">
      <defs>
       <path d="M 9.8125 72.90625 
L 51.703125 72.90625 
L 51.703125 64.59375 
L 19.671875 64.59375 
L 19.671875 43.109375 
L 48.578125 43.109375 
L 48.578125 34.8125 
L 19.671875 34.8125 
L 19.671875 0 
L 9.8125 0 
z
" id="DejaVuSans-70"/>
       <path d="M 5.515625 54.6875 
L 48.1875 54.6875 
L 48.1875 46.484375 
L 14.40625 7.171875 
L 48.1875 7.171875 
L 48.1875 0 
L 4.296875 0 
L 4.296875 8.203125 
L 38.09375 47.515625 
L 5.515625 47.515625 
z
" id="DejaVuSans-122"/>
       <path id="DejaVuSans-32"/>
       <path d="M 31 75.875 
Q 24.46875 64.65625 21.28125 53.65625 
Q 18.109375 42.671875 18.109375 31.390625 
Q 18.109375 20.125 21.3125 9.0625 
Q 24.515625 -2 31 -13.1875 
L 23.1875 -13.1875 
Q 15.875 -1.703125 12.234375 9.375 
Q 8.59375 20.453125 8.59375 31.390625 
Q 8.59375 42.28125 12.203125 53.3125 
Q 15.828125 64.359375 23.1875 75.875 
z
" id="DejaVuSans-40"/>
       <path d="M 54.890625 33.015625 
L 54.890625 0 
L 45.90625 0 
L 45.90625 32.71875 
Q 45.90625 40.484375 42.875 44.328125 
Q 39.84375 48.1875 33.796875 48.1875 
Q 26.515625 48.1875 22.3125 43.546875 
Q 18.109375 38.921875 18.109375 30.90625 
L 18.109375 0 
L 9.078125 0 
L 9.078125 75.984375 
L 18.109375 75.984375 
L 18.109375 46.1875 
Q 21.34375 51.125 25.703125 53.5625 
Q 30.078125 56 35.796875 56 
Q 45.21875 56 50.046875 50.171875 
Q 54.890625 44.34375 54.890625 33.015625 
z
" id="DejaVuSans-104"/>
       <path d="M 45.40625 27.984375 
Q 45.40625 37.75 41.375 43.109375 
Q 37.359375 48.484375 30.078125 48.484375 
Q 22.859375 48.484375 18.828125 43.109375 
Q 14.796875 37.75 14.796875 27.984375 
Q 14.796875 18.265625 18.828125 12.890625 
Q 22.859375 7.515625 30.078125 7.515625 
Q 37.359375 7.515625 41.375 12.890625 
Q 45.40625 18.265625 45.40625 27.984375 
z
M 54.390625 6.78125 
Q 54.390625 -7.171875 48.1875 -13.984375 
Q 42 -20.796875 29.203125 -20.796875 
Q 24.46875 -20.796875 20.265625 -20.09375 
Q 16.0625 -19.390625 12.109375 -17.921875 
L 12.109375 -9.1875 
Q 16.0625 -11.328125 19.921875 -12.34375 
Q 23.78125 -13.375 27.78125 -13.375 
Q 36.625 -13.375 41.015625 -8.765625 
Q 45.40625 -4.15625 45.40625 5.171875 
L 45.40625 9.625 
Q 42.625 4.78125 38.28125 2.390625 
Q 33.9375 0 27.875 0 
Q 17.828125 0 11.671875 7.65625 
Q 5.515625 15.328125 5.515625 27.984375 
Q 5.515625 40.671875 11.671875 48.328125 
Q 17.828125 56 27.875 56 
Q 33.9375 56 38.28125 53.609375 
Q 42.625 51.21875 45.40625 46.390625 
L 45.40625 54.6875 
L 54.390625 54.6875 
z
" id="DejaVuSans-103"/>
       <path d="M 52 44.1875 
Q 55.375 50.25 60.0625 53.125 
Q 64.75 56 71.09375 56 
Q 79.640625 56 84.28125 50.015625 
Q 88.921875 44.046875 88.921875 33.015625 
L 88.921875 0 
L 79.890625 0 
L 79.890625 32.71875 
Q 79.890625 40.578125 77.09375 44.375 
Q 74.3125 48.1875 68.609375 48.1875 
Q 61.625 48.1875 57.5625 43.546875 
Q 53.515625 38.921875 53.515625 30.90625 
L 53.515625 0 
L 44.484375 0 
L 44.484375 32.71875 
Q 44.484375 40.625 41.703125 44.40625 
Q 38.921875 48.1875 33.109375 48.1875 
Q 26.21875 48.1875 22.15625 43.53125 
Q 18.109375 38.875 18.109375 30.90625 
L 18.109375 0 
L 9.078125 0 
L 9.078125 54.6875 
L 18.109375 54.6875 
L 18.109375 46.1875 
Q 21.1875 51.21875 25.484375 53.609375 
Q 29.78125 56 35.6875 56 
Q 41.65625 56 45.828125 52.96875 
Q 50 49.953125 52 44.1875 
z
" id="DejaVuSans-109"/>
       <path d="M 8.015625 75.875 
L 15.828125 75.875 
Q 23.140625 64.359375 26.78125 53.3125 
Q 30.421875 42.28125 30.421875 31.390625 
Q 30.421875 20.453125 26.78125 9.375 
Q 23.140625 -1.703125 15.828125 -13.1875 
L 8.015625 -13.1875 
Q 14.5 -2 17.703125 9.0625 
Q 20.90625 20.125 20.90625 31.390625 
Q 20.90625 42.671875 17.703125 53.65625 
Q 14.5 64.65625 8.015625 75.875 
z
" id="DejaVuSans-41"/>
      </defs>
      <use xlink:href="#DejaVuSans-70"/>
      <use x="52.019531" xlink:href="#DejaVuSans-117"/>
      <use x="115.398438" xlink:href="#DejaVuSans-122"/>
      <use x="167.888672" xlink:href="#DejaVuSans-122"/>
      <use x="220.378906" xlink:href="#DejaVuSans-101"/>
      <use x="281.902344" xlink:href="#DejaVuSans-114"/>
      <use x="323.015625" xlink:href="#DejaVuSans-32"/>
      <use x="354.802734" xlink:href="#DejaVuSans-40"/>
      <use x="393.816406" xlink:href="#DejaVuSans-104"/>
      <use x="457.195312" xlink:href="#DejaVuSans-105"/>
      <use x="484.978516" xlink:href="#DejaVuSans-103"/>
      <use x="548.455078" xlink:href="#DejaVuSans-104"/>
      <use x="611.833984" xlink:href="#DejaVuSans-101"/>
      <use x="673.357422" xlink:href="#DejaVuSans-115"/>
      <use x="725.457031" xlink:href="#DejaVuSans-116"/>
      <use x="764.666016" xlink:href="#DejaVuSans-32"/>
      <use x="796.453125" xlink:href="#DejaVuSans-109"/>
      <use x="893.865234" xlink:href="#DejaVuSans-101"/>
      <use x="955.388672" xlink:href="#DejaVuSans-100"/>
      <use x="1018.865234" xlink:href="#DejaVuSans-105"/>
      <use x="1046.648438" xlink:href="#DejaVuSans-97"/>
      <use x="1107.927734" xlink:href="#DejaVuSans-110"/>
      <use x="1171.306641" xlink:href="#DejaVuSans-32"/>
      <use x="1203.09375" xlink:href="#DejaVuSans-99"/>
      <use x="1258.074219" xlink:href="#DejaVuSans-111"/>
      <use x="1319.255859" xlink:href="#DejaVuSans-118"/>
      <use x="1378.435547" xlink:href="#DejaVuSans-101"/>
      <use x="1439.958984" xlink:href="#DejaVuSans-114"/>
      <use x="1481.072266" xlink:href="#DejaVuSans-97"/>
      <use x="1542.351562" xlink:href="#DejaVuSans-103"/>
      <use x="1605.828125" xlink:href="#DejaVuSans-101"/>
      <use x="1667.351562" xlink:href="#DejaVuSans-32"/>
      <use x="1699.138672" xlink:href="#DejaVuSans-111"/>
      <use x="1760.320312" xlink:href="#DejaVuSans-110"/>
      <use x="1823.699219" xlink:href="#DejaVuSans-32"/>
      <use x="1855.486328" xlink:href="#DejaVuSans-116"/>
      <use x="1894.695312" xlink:href="#DejaVuSans-104"/>
      <use x="1958.074219" xlink:href="#DejaVuSans-101"/>
      <use x="2019.597656" xlink:href="#DejaVuSans-32"/>
      <use x="2051.384766" xlink:href="#DejaVuSans-108"/>
      <use x="2079.167969" xlink:href="#DejaVuSans-101"/>
      <use x="2140.691406" xlink:href="#DejaVuSans-102"/>
      <use x="2174.146484" xlink:href="#DejaVuSans-116"/>
      <use x="2213.355469" xlink:href="#DejaVuSans-41"/>
     </g>
    </g>
   </g>
   <g id="matplotlib.axis_2">
    <g id="ytick_1">
     <g id="line2d_3">
      <defs>
       <path d="M 0 0 
L -3.5 0 
" id="ma9be6654d8" style="stroke:#000000;stroke-width:0.8;"/>
      </defs>
      <g>
       <use style="stroke:#000000;stroke-width:0.8;" x="53.328125" xlink:href="#ma9be6654d8" y="254.531634"/>
      </g>
     </g>
     <g id="text_4">
      <!-- 7600 -->
      <g transform="translate(20.878125 258.330852)scale(0.1 -0.1)">
       <defs>
        <path d="M 8.203125 72.90625 
L 55.078125 72.90625 
L 55.078125 68.703125 
L 28.609375 0 
L 18.3125 0 
L 43.21875 64.59375 
L 8.203125 64.59375 
z
" id="DejaVuSans-55"/>
        <path d="M 33.015625 40.375 
Q 26.375 40.375 22.484375 35.828125 
Q 18.609375 31.296875 18.609375 23.390625 
Q 18.609375 15.53125 22.484375 10.953125 
Q 26.375 6.390625 33.015625 6.390625 
Q 39.65625 6.390625 43.53125 10.953125 
Q 47.40625 15.53125 47.40625 23.390625 
Q 47.40625 31.296875 43.53125 35.828125 
Q 39.65625 40.375 33.015625 40.375 
z
M 52.59375 71.296875 
L 52.59375 62.3125 
Q 48.875 64.0625 45.09375 64.984375 
Q 41.3125 65.921875 37.59375 65.921875 
Q 27.828125 65.921875 22.671875 59.328125 
Q 17.53125 52.734375 16.796875 39.40625 
Q 19.671875 43.65625 24.015625 45.921875 
Q 28.375 48.1875 33.59375 48.1875 
Q 44.578125 48.1875 50.953125 41.515625 
Q 57.328125 34.859375 57.328125 23.390625 
Q 57.328125 12.15625 50.6875 5.359375 
Q 44.046875 -1.421875 33.015625 -1.421875 
Q 20.359375 -1.421875 13.671875 8.265625 
Q 6.984375 17.96875 6.984375 36.375 
Q 6.984375 53.65625 15.1875 63.9375 
Q 23.390625 74.21875 37.203125 74.21875 
Q 40.921875 74.21875 44.703125 73.484375 
Q 48.484375 72.75 52.59375 71.296875 
z
" id="DejaVuSans-54"/>
        <path d="M 31.78125 66.40625 
Q 24.171875 66.40625 20.328125 58.90625 
Q 16.5 51.421875 16.5 36.375 
Q 16.5 21.390625 20.328125 13.890625 
Q 24.171875 6.390625 31.78125 6.390625 
Q 39.453125 6.390625 43.28125 13.890625 
Q 47.125 21.390625 47.125 36.375 
Q 47.125 51.421875 43.28125 58.90625 
Q 39.453125 66.40625 31.78125 66.40625 
z
M 31.78125 74.21875 
Q 44.046875 74.21875 50.515625 64.515625 
Q 56.984375 54.828125 56.984375 36.375 
Q 56.984375 17.96875 50.515625 8.265625 
Q 44.046875 -1.421875 31.78125 -1.421875 
Q 19.53125 -1.421875 13.0625 8.265625 
Q 6.59375 17.96875 6.59375 36.375 
Q 6.59375 54.828125 13.0625 64.515625 
Q 19.53125 74.21875 31.78125 74.21875 
z
" id="DejaVuSans-48"/>
       </defs>
       <use xlink:href="#DejaVuSans-55"/>
       <use x="63.623047" xlink:href="#DejaVuSans-54"/>
       <use x="127.246094" xlink:href="#DejaVuSans-48"/>
       <use x="190.869141" xlink:href="#DejaVuSans-48"/>
      </g>
     </g>
    </g>
    <g id="ytick_2">
     <g id="line2d_4">
      <g>
       <use style="stroke:#000000;stroke-width:0.8;" x="53.328125" xlink:href="#ma9be6654d8" y="214.789145"/>
      </g>
     </g>
     <g id="text_5">
      <!-- 7700 -->
      <g transform="translate(20.878125 218.588364)scale(0.1 -0.1)">
       <use xlink:href="#DejaVuSans-55"/>
       <use x="63.623047" xlink:href="#DejaVuSans-55"/>
       <use x="127.246094" xlink:href="#DejaVuSans-48"/>
       <use x="190.869141" xlink:href="#DejaVuSans-48"/>
      </g>
     </g>
    </g>
    <g id="ytick_3">
     <g id="line2d_5">
      <g>
       <use style="stroke:#000000;stroke-width:0.8;" x="53.328125" xlink:href="#ma9be6654d8" y="175.046657"/>
      </g>
     </g>
     <g id="text_6">
      <!-- 7800 -->
      <g transform="translate(20.878125 178.845876)scale(0.1 -0.1)">
       <defs>
        <path d="M 31.78125 34.625 
Q 24.75 34.625 20.71875 30.859375 
Q 16.703125 27.09375 16.703125 20.515625 
Q 16.703125 13.921875 20.71875 10.15625 
Q 24.75 6.390625 31.78125 6.390625 
Q 38.8125 6.390625 42.859375 10.171875 
Q 46.921875 13.96875 46.921875 20.515625 
Q 46.921875 27.09375 42.890625 30.859375 
Q 38.875 34.625 31.78125 34.625 
z
M 21.921875 38.8125 
Q 15.578125 40.375 12.03125 44.71875 
Q 8.5 49.078125 8.5 55.328125 
Q 8.5 64.0625 14.71875 69.140625 
Q 20.953125 74.21875 31.78125 74.21875 
Q 42.671875 74.21875 48.875 69.140625 
Q 55.078125 64.0625 55.078125 55.328125 
Q 55.078125 49.078125 51.53125 44.71875 
Q 48 40.375 41.703125 38.8125 
Q 48.828125 37.15625 52.796875 32.3125 
Q 56.78125 27.484375 56.78125 20.515625 
Q 56.78125 9.90625 50.3125 4.234375 
Q 43.84375 -1.421875 31.78125 -1.421875 
Q 19.734375 -1.421875 13.25 4.234375 
Q 6.78125 9.90625 6.78125 20.515625 
Q 6.78125 27.484375 10.78125 32.3125 
Q 14.796875 37.15625 21.921875 38.8125 
z
M 18.3125 54.390625 
Q 18.3125 48.734375 21.84375 45.5625 
Q 25.390625 42.390625 31.78125 42.390625 
Q 38.140625 42.390625 41.71875 45.5625 
Q 45.3125 48.734375 45.3125 54.390625 
Q 45.3125 60.0625 41.71875 63.234375 
Q 38.140625 66.40625 31.78125 66.40625 
Q 25.390625 66.40625 21.84375 63.234375 
Q 18.3125 60.0625 18.3125 54.390625 
z
" id="DejaVuSans-56"/>
       </defs>
       <use xlink:href="#DejaVuSans-55"/>
       <use x="63.623047" xlink:href="#DejaVuSans-56"/>
       <use x="127.246094" xlink:href="#DejaVuSans-48"/>
       <use x="190.869141" xlink:href="#DejaVuSans-48"/>
      </g>
     </g>
    </g>
    <g id="ytick_4">
     <g id="line2d_6">
      <g>
       <use style="stroke:#000000;stroke-width:0.8;" x="53.328125" xlink:href="#ma9be6654d8" y="135.304168"/>
      </g>
     </g>
     <g id="text_7">
      <!-- 7900 -->
      <g transform="translate(20.878125 139.103387)scale(0.1 -0.1)">
       <defs>
        <path d="M 10.984375 1.515625 
L 10.984375 10.5 
Q 14.703125 8.734375 18.5 7.8125 
Q 22.3125 6.890625 25.984375 6.890625 
Q 35.75 6.890625 40.890625 13.453125 
Q 46.046875 20.015625 46.78125 33.40625 
Q 43.953125 29.203125 39.59375 26.953125 
Q 35.25 24.703125 29.984375 24.703125 
Q 19.046875 24.703125 12.671875 31.3125 
Q 6.296875 37.9375 6.296875 49.421875 
Q 6.296875 60.640625 12.9375 67.421875 
Q 19.578125 74.21875 30.609375 74.21875 
Q 43.265625 74.21875 49.921875 64.515625 
Q 56.59375 54.828125 56.59375 36.375 
Q 56.59375 19.140625 48.40625 8.859375 
Q 40.234375 -1.421875 26.421875 -1.421875 
Q 22.703125 -1.421875 18.890625 -0.6875 
Q 15.09375 0.046875 10.984375 1.515625 
z
M 30.609375 32.421875 
Q 37.25 32.421875 41.125 36.953125 
Q 45.015625 41.5 45.015625 49.421875 
Q 45.015625 57.28125 41.125 61.84375 
Q 37.25 66.40625 30.609375 66.40625 
Q 23.96875 66.40625 20.09375 61.84375 
Q 16.21875 57.28125 16.21875 49.421875 
Q 16.21875 41.5 20.09375 36.953125 
Q 23.96875 32.421875 30.609375 32.421875 
z
" id="DejaVuSans-57"/>
       </defs>
       <use xlink:href="#DejaVuSans-55"/>
       <use x="63.623047" xlink:href="#DejaVuSans-57"/>
       <use x="127.246094" xlink:href="#DejaVuSans-48"/>
       <use x="190.869141" xlink:href="#DejaVuSans-48"/>
      </g>
     </g>
    </g>
    <g id="ytick_5">
     <g id="line2d_7">
      <g>
       <use style="stroke:#000000;stroke-width:0.8;" x="53.328125" xlink:href="#ma9be6654d8" y="95.56168"/>
      </g>
     </g>
     <g id="text_8">
      <!-- 8000 -->
      <g transform="translate(20.878125 99.360899)scale(0.1 -0.1)">
       <use xlink:href="#DejaVuSans-56"/>
       <use x="63.623047" xlink:href="#DejaVuSans-48"/>
       <use x="127.246094" xlink:href="#DejaVuSans-48"/>
       <use x="190.869141" xlink:href="#DejaVuSans-48"/>
      </g>
     </g>
    </g>
    <g id="ytick_6">
     <g id="line2d_8">
      <g>
       <use style="stroke:#000000;stroke-width:0.8;" x="53.328125" xlink:href="#ma9be6654d8" y="55.819191"/>
      </g>
     </g>
     <g id="text_9">
      <!-- 8100 -->
      <g transform="translate(20.878125 59.61841)scale(0.1 -0.1)">
       <defs>
        <path d="M 12.40625 8.296875 
L 28.515625 8.296875 
L 28.515625 63.921875 
L 10.984375 60.40625 
L 10.984375 69.390625 
L 28.421875 72.90625 
L 38.28125 72.90625 
L 38.28125 8.296875 
L 54.390625 8.296875 
L 54.390625 0 
L 12.40625 0 
z
" id="DejaVuSans-49"/>
       </defs>
       <use xlink:href="#DejaVuSans-56"/>
       <use x="63.623047" xlink:href="#DejaVuSans-49"/>
       <use x="127.246094" xlink:href="#DejaVuSans-48"/>
       <use x="190.869141" xlink:href="#DejaVuSans-48"/>
      </g>
     </g>
    </g>
    <g id="text_10">
     <!-- Reached region coverage -->
     <g transform="translate(14.798438 219.136625)rotate(-90)scale(0.1 -0.1)">
      <defs>
       <path d="M 44.390625 34.1875 
Q 47.5625 33.109375 50.5625 29.59375 
Q 53.5625 26.078125 56.59375 19.921875 
L 66.609375 0 
L 56 0 
L 46.6875 18.703125 
Q 43.0625 26.03125 39.671875 28.421875 
Q 36.28125 30.8125 30.421875 30.8125 
L 19.671875 30.8125 
L 19.671875 0 
L 9.8125 0 
L 9.8125 72.90625 
L 32.078125 72.90625 
Q 44.578125 72.90625 50.734375 67.671875 
Q 56.890625 62.453125 56.890625 51.90625 
Q 56.890625 45.015625 53.6875 40.46875 
Q 50.484375 35.9375 44.390625 34.1875 
z
M 19.671875 64.796875 
L 19.671875 38.921875 
L 32.078125 38.921875 
Q 39.203125 38.921875 42.84375 42.21875 
Q 46.484375 45.515625 46.484375 51.90625 
Q 46.484375 58.296875 42.84375 61.546875 
Q 39.203125 64.796875 32.078125 64.796875 
z
" id="DejaVuSans-82"/>
      </defs>
      <use xlink:href="#DejaVuSans-82"/>
      <use x="64.982422" xlink:href="#DejaVuSans-101"/>
      <use x="126.505859" xlink:href="#DejaVuSans-97"/>
      <use x="187.785156" xlink:href="#DejaVuSans-99"/>
      <use x="242.765625" xlink:href="#DejaVuSans-104"/>
      <use x="306.144531" xlink:href="#DejaVuSans-101"/>
      <use x="367.667969" xlink:href="#DejaVuSans-100"/>
      <use x="431.144531" xlink:href="#DejaVuSans-32"/>
      <use x="462.931641" xlink:href="#DejaVuSans-114"/>
      <use x="501.794922" xlink:href="#DejaVuSans-101"/>
      <use x="563.318359" xlink:href="#DejaVuSans-103"/>
      <use x="626.794922" xlink:href="#DejaVuSans-105"/>
      <use x="654.578125" xlink:href="#DejaVuSans-111"/>
      <use x="715.759766" xlink:href="#DejaVuSans-110"/>
      <use x="779.138672" xlink:href="#DejaVuSans-32"/>
      <use x="810.925781" xlink:href="#DejaVuSans-99"/>
      <use x="865.90625" xlink:href="#DejaVuSans-111"/>
      <use x="927.087891" xlink:href="#DejaVuSans-118"/>
      <use x="986.267578" xlink:href="#DejaVuSans-101"/>
      <use x="1047.791016" xlink:href="#DejaVuSans-114"/>
      <use x="1088.904297" xlink:href="#DejaVuSans-97"/>
      <use x="1150.183594" xlink:href="#DejaVuSans-103"/>
      <use x="1213.660156" xlink:href="#DejaVuSans-101"/>
     </g>
    </g>
   </g>
   <g id="line2d_9">
    <path clip-path="url(#pff27df6708)" d="M 142.608125 148.021765 
L 142.608125 97.548804 
" style="fill:none;stroke:#3f3f3f;stroke-linecap:square;stroke-width:1.5;"/>
   </g>
   <g id="line2d_10">
    <path clip-path="url(#pff27df6708)" d="M 142.608125 148.021765 
L 142.608125 123.381422 
" style="fill:none;stroke:#3f3f3f;stroke-linecap:square;stroke-width:4.5;"/>
   </g>
   <g id="line2d_11">
    <path clip-path="url(#pff27df6708)" d="M 321.168125 135.304168 
L 321.168125 122.189147 
" style="fill:none;stroke:#3f3f3f;stroke-linecap:square;stroke-width:1.5;"/>
   </g>
   <g id="line2d_12">
    <path clip-path="url(#pff27df6708)" d="M 321.168125 147.922408 
L 321.168125 126.660177 
" style="fill:none;stroke:#3f3f3f;stroke-linecap:square;stroke-width:4.5;"/>
   </g>
   <g id="patch_3">
    <path d="M 53.328125 254.531634 
L 53.328125 55.819191 
" style="fill:none;stroke:#000000;stroke-linecap:square;stroke-linejoin:miter;stroke-width:0.8;"/>
   </g>
   <g id="patch_4">
    <path d="M 142.608125 288.430125 
L 321.168125 288.430125 
" style="fill:none;stroke:#000000;stroke-linecap:square;stroke-linejoin:miter;stroke-width:0.8;"/>
   </g>
   <g id="PathCollection_1">
    <defs>
     <path d="M 0 1.5 
C 0.397805 1.5 0.77937 1.341951 1.06066 1.06066 
C 1.341951 0.77937 1.5 0.397805 1.5 0 
C 1.5 -0.397805 1.341951 -0.77937 1.06066 -1.06066 
C 0.77937 -1.341951 0.397805 -1.5 0 -1.5 
C -0.397805 -1.5 -0.77937 -1.341951 -1.06066 -1.06066 
C -1.341951 -0.77937 -1.5 -0.397805 -1.5 0 
C -1.5 0.397805 -1.341951 0.77937 -1.06066 1.06066 
C -0.77937 1.341951 -0.397805 1.5 0 1.5 
z
" id="m504cd32c63" style="stroke:#3f3f3f;"/>
    </defs>
    <g clip-path="url(#pff27df6708)">
     <use style="fill:#ffffff;stroke:#3f3f3f;" x="142.608125" xlink:href="#m504cd32c63" y="129.342795"/>
    </g>
   </g>
   <g id="PathCollection_2">
    <g clip-path="url(#pff27df6708)">
     <use style="fill:#ffffff;stroke:#3f3f3f;" x="321.168125" xlink:href="#m504cd32c63" y="131.727344"/>
    </g>
   </g>
   <g id="text_11">
    <!-- mbedtls_fuzz_dtlsclient (22h:15m, 4 trials/fuzzer) -->
    <g transform="translate(83.530625 16.318125)scale(0.12 -0.12)">
     <defs>
      <path d="M 48.6875 27.296875 
Q 48.6875 37.203125 44.609375 42.84375 
Q 40.53125 48.484375 33.40625 48.484375 
Q 26.265625 48.484375 22.1875 42.84375 
Q 18.109375 37.203125 18.109375 27.296875 
Q 18.109375 17.390625 22.1875 11.75 
Q 26.265625 6.109375 33.40625 6.109375 
Q 40.53125 6.109375 44.609375 11.75 
Q 48.6875 17.390625 48.6875 27.296875 
z
M 18.109375 46.390625 
Q 20.953125 51.265625 25.265625 53.625 
Q 29.59375 56 35.59375 56 
Q 45.5625 56 51.78125 48.09375 
Q 58.015625 40.1875 58.015625 27.296875 
Q 58.015625 14.40625 51.78125 6.484375 
Q 45.5625 -1.421875 35.59375 -1.421875 
Q 29.59375 -1.421875 25.265625 0.953125 
Q 20.953125 3.328125 18.109375 8.203125 
L 18.109375 0 
L 9.078125 0 
L 9.078125 75.984375 
L 18.109375 75.984375 
z
" id="DejaVuSans-98"/>
      <path d="M 19.1875 8.296875 
L 53.609375 8.296875 
L 53.609375 0 
L 7.328125 0 
L 7.328125 8.296875 
Q 12.9375 14.109375 22.625 23.890625 
Q 32.328125 33.6875 34.8125 36.53125 
Q 39.546875 41.84375 41.421875 45.53125 
Q 43.3125 49.21875 43.3125 52.78125 
Q 43.3125 58.59375 39.234375 62.25 
Q 35.15625 65.921875 28.609375 65.921875 
Q 23.96875 65.921875 18.8125 64.3125 
Q 13.671875 62.703125 7.8125 59.421875 
L 7.8125 69.390625 
Q 13.765625 71.78125 18.9375 73 
Q 24.125 74.21875 28.421875 74.21875 
Q 39.75 74.21875 46.484375 68.546875 
Q 53.21875 62.890625 53.21875 53.421875 
Q 53.21875 48.921875 51.53125 44.890625 
Q 49.859375 40.875 45.40625 35.40625 
Q 44.1875 33.984375 37.640625 27.21875 
Q 31.109375 20.453125 19.1875 8.296875 
z
" id="DejaVuSans-50"/>
      <path d="M 11.71875 12.40625 
L 22.015625 12.40625 
L 22.015625 0 
L 11.71875 0 
z
M 11.71875 51.703125 
L 22.015625 51.703125 
L 22.015625 39.3125 
L 11.71875 39.3125 
z
" id="DejaVuSans-58"/>
      <path d="M 10.796875 72.90625 
L 49.515625 72.90625 
L 49.515625 64.59375 
L 19.828125 64.59375 
L 19.828125 46.734375 
Q 21.96875 47.46875 24.109375 47.828125 
Q 26.265625 48.1875 28.421875 48.1875 
Q 40.625 48.1875 47.75 41.5 
Q 54.890625 34.8125 54.890625 23.390625 
Q 54.890625 11.625 47.5625 5.09375 
Q 40.234375 -1.421875 26.90625 -1.421875 
Q 22.3125 -1.421875 17.546875 -0.640625 
Q 12.796875 0.140625 7.71875 1.703125 
L 7.71875 11.625 
Q 12.109375 9.234375 16.796875 8.0625 
Q 21.484375 6.890625 26.703125 6.890625 
Q 35.15625 6.890625 40.078125 11.328125 
Q 45.015625 15.765625 45.015625 23.390625 
Q 45.015625 31 40.078125 35.4375 
Q 35.15625 39.890625 26.703125 39.890625 
Q 22.75 39.890625 18.8125 39.015625 
Q 14.890625 38.140625 10.796875 36.28125 
z
" id="DejaVuSans-53"/>
      <path d="M 11.71875 12.40625 
L 22.015625 12.40625 
L 22.015625 4 
L 14.015625 -11.625 
L 7.71875 -11.625 
L 11.71875 4 
z
" id="DejaVuSans-44"/>
      <path d="M 37.796875 64.3125 
L 12.890625 25.390625 
L 37.796875 25.390625 
z
M 35.203125 72.90625 
L 47.609375 72.90625 
L 47.609375 25.390625 
L 58.015625 25.390625 
L 58.015625 17.1875 
L 47.609375 17.1875 
L 47.609375 0 
L 37.796875 0 
L 37.796875 17.1875 
L 4.890625 17.1875 
L 4.890625 26.703125 
z
" id="DejaVuSans-52"/>
      <path d="M 25.390625 72.90625 
L 33.6875 72.90625 
L 8.296875 -9.28125 
L 0 -9.28125 
z
" id="DejaVuSans-47"/>
     </defs>
     <use xlink:href="#DejaVuSans-109"/>
     <use x="97.412109" xlink:href="#DejaVuSans-98"/>
     <use x="160.888672" xlink:href="#DejaVuSans-101"/>
     <use x="222.412109" xlink:href="#DejaVuSans-100"/>
     <use x="285.888672" xlink:href="#DejaVuSans-116"/>
     <use x="325.097656" xlink:href="#DejaVuSans-108"/>
     <use x="352.880859" xlink:href="#DejaVuSans-115"/>
     <use x="404.980469" xlink:href="#DejaVuSans-95"/>
     <use x="454.980469" xlink:href="#DejaVuSans-102"/>
     <use x="490.185547" xlink:href="#DejaVuSans-117"/>
     <use x="553.564453" xlink:href="#DejaVuSans-122"/>
     <use x="606.054688" xlink:href="#DejaVuSans-122"/>
     <use x="658.544922" xlink:href="#DejaVuSans-95"/>
     <use x="708.544922" xlink:href="#DejaVuSans-100"/>
     <use x="772.021484" xlink:href="#DejaVuSans-116"/>
     <use x="811.230469" xlink:href="#DejaVuSans-108"/>
     <use x="839.013672" xlink:href="#DejaVuSans-115"/>
     <use x="891.113281" xlink:href="#DejaVuSans-99"/>
     <use x="946.09375" xlink:href="#DejaVuSans-108"/>
     <use x="973.876953" xlink:href="#DejaVuSans-105"/>
     <use x="1001.660156" xlink:href="#DejaVuSans-101"/>
     <use x="1063.183594" xlink:href="#DejaVuSans-110"/>
     <use x="1126.5625" xlink:href="#DejaVuSans-116"/>
     <use x="1165.771484" xlink:href="#DejaVuSans-32"/>
     <use x="1197.558594" xlink:href="#DejaVuSans-40"/>
     <use x="1236.572266" xlink:href="#DejaVuSans-50"/>
     <use x="1300.195312" xlink:href="#DejaVuSans-50"/>
     <use x="1363.818359" xlink:href="#DejaVuSans-104"/>
     <use x="1427.197266" xlink:href="#DejaVuSans-58"/>
     <use x="1460.888672" xlink:href="#DejaVuSans-49"/>
     <use x="1524.511719" xlink:href="#DejaVuSans-53"/>
     <use x="1588.134766" xlink:href="#DejaVuSans-109"/>
     <use x="1685.546875" xlink:href="#DejaVuSans-44"/>
     <use x="1717.333984" xlink:href="#DejaVuSans-32"/>
     <use x="1749.121094" xlink:href="#DejaVuSans-52"/>
     <use x="1812.744141" xlink:href="#DejaVuSans-32"/>
     <use x="1844.53125" xlink:href="#DejaVuSans-116"/>
     <use x="1883.740234" xlink:href="#DejaVuSans-114"/>
     <use x="1924.853516" xlink:href="#DejaVuSans-105"/>
     <use x="1952.636719" xlink:href="#DejaVuSans-97"/>
     <use x="2013.916016" xlink:href="#DejaVuSans-108"/>
     <use x="2041.699219" xlink:href="#DejaVuSans-115"/>
     <use x="2093.798828" xlink:href="#DejaVuSans-47"/>
     <use x="2127.490234" xlink:href="#DejaVuSans-102"/>
     <use x="2162.695312" xlink:href="#DejaVuSans-117"/>
     <use x="2226.074219" xlink:href="#DejaVuSans-122"/>
     <use x="2278.564453" xlink:href="#DejaVuSans-122"/>
     <use x="2331.054688" xlink:href="#DejaVuSans-101"/>
     <use x="2392.578125" xlink:href="#DejaVuSans-114"/>
     <use x="2433.691406" xlink:href="#DejaVuSans-41"/>
    </g>
   </g>
  </g>
 </g>
 <defs>
  <clipPath id="pff27df6708">
   <rect height="266.112" width="357.12" x="53.328125" y="22.318125"/>
  </clipPath>
 </defs>
</svg>
