<?xml version="1.0" encoding="utf-8" standalone="no"?>
<!DOCTYPE svg PUBLIC "-//W3C//DTD SVG 1.1//EN"
  "http://www.w3.org/Graphics/SVG/1.1/DTD/svg11.dtd">
<!-- Created with matplotlib (https://matplotlib.org/) -->
<svg height="367.618115pt" version="1.1" viewBox="0 0 417.648125 367.618115" width="417.648125pt" xmlns="http://www.w3.org/2000/svg" xmlns:xlink="http://www.w3.org/1999/xlink">
 <metadata>
  <rdf:RDF xmlns:cc="http://creativecommons.org/ns#" xmlns:dc="http://purl.org/dc/elements/1.1/" xmlns:rdf="http://www.w3.org/1999/02/22-rdf-syntax-ns#">
   <cc:Work>
    <dc:type rdf:resource="http://purl.org/dc/dcmitype/StillImage"/>
    <dc:date>2020-12-29T19:02:58.090097</dc:date>
    <dc:format>image/svg+xml</dc:format>
    <dc:creator>
     <cc:Agent>
      <dc:title>Matplotlib v3.3.2, https://matplotlib.org/</dc:title>
     </cc:Agent>
    </dc:creator>
   </cc:Work>
  </rdf:RDF>
 </metadata>
 <defs>
  <style type="text/css">*{stroke-linecap:butt;stroke-linejoin:round;}</style>
 </defs>
 <g id="figure_1">
  <g id="patch_1">
   <path d="M 0 367.618115 
L 417.648125 367.618115 
L 417.648125 0 
L 0 0 
z
" style="fill:#ffffff;"/>
  </g>
  <g id="axes_1">
   <g id="patch_2">
    <path d="M 53.328125 288.430125 
L 410.448125 288.430125 
L 410.448125 22.318125 
L 53.328125 22.318125 
z
" style="fill:#ffffff;"/>
   </g>
   <g id="PolyCollection_1">
    <defs>
     <path d="M 145.125858 -91.28399 
L 140.090392 -91.28399 
L 139.700798 -93.727627 
L 139.26737 -96.171263 
L 138.788023 -98.6149 
L 138.261029 -101.058536 
L 137.685088 -103.502172 
L 137.059387 -105.945809 
L 136.383663 -108.389445 
L 135.658246 -110.833081 
L 134.884095 -113.276718 
L 134.062816 -115.720354 
L 133.196661 -118.16399 
L 132.288514 -120.607627 
L 131.341853 -123.051263 
L 130.360689 -125.4949 
L 129.349493 -127.938536 
L 128.313099 -130.382172 
L 127.256599 -132.825809 
L 126.185221 -135.269445 
L 125.1042 -137.713081 
L 124.018651 -140.156718 
L 122.93344 -142.600354 
L 121.853066 -145.04399 
L 120.781553 -147.487627 
L 119.722363 -149.931263 
L 118.678333 -152.3749 
L 117.65163 -154.818536 
L 116.643741 -157.262172 
L 115.65549 -159.705809 
L 114.687084 -162.149445 
L 113.738185 -164.593081 
L 112.808007 -167.036718 
L 111.895437 -169.480354 
L 110.999164 -171.92399 
L 110.117825 -174.367627 
L 109.250153 -176.811263 
L 108.395115 -179.2549 
L 107.552055 -181.698536 
L 106.720806 -184.142172 
L 105.901792 -186.585809 
L 105.096106 -189.029445 
L 104.305553 -191.473081 
L 103.532676 -193.916718 
L 102.780739 -196.360354 
L 102.053697 -198.80399 
L 101.356127 -201.247627 
L 100.693147 -203.691263 
L 100.070307 -206.1349 
L 99.493472 -208.578536 
L 98.968695 -211.022172 
L 98.502086 -213.465809 
L 98.099677 -215.909445 
L 97.767298 -218.353081 
L 97.510458 -220.796718 
L 97.334235 -223.240354 
L 97.243185 -225.68399 
L 97.241261 -228.127627 
L 97.331747 -230.571263 
L 97.517209 -233.0149 
L 97.799457 -235.458536 
L 98.179524 -237.902172 
L 98.657649 -240.345809 
L 99.233274 -242.789445 
L 99.905051 -245.233081 
L 100.670854 -247.676718 
L 101.527791 -250.120354 
L 102.472229 -252.56399 
L 103.499823 -255.007627 
L 104.605545 -257.451263 
L 105.783721 -259.8949 
L 107.02808 -262.338536 
L 108.331797 -264.782172 
L 109.687557 -267.225809 
L 111.087616 -269.669445 
L 112.523878 -272.113081 
L 113.987979 -274.556718 
L 115.47137 -277.000354 
L 116.965422 -279.44399 
L 118.46152 -281.887627 
L 119.951172 -284.331263 
L 121.426114 -286.7749 
L 122.878414 -289.218536 
L 124.300571 -291.662172 
L 125.685611 -294.105809 
L 127.027169 -296.549445 
L 128.319561 -298.993081 
L 129.557843 -301.436718 
L 130.737854 -303.880354 
L 131.856247 -306.32399 
L 132.910493 -308.767627 
L 133.898879 -311.211263 
L 134.820487 -313.6549 
L 135.675155 -316.098536 
L 136.463431 -318.542172 
L 137.186509 -320.985809 
L 137.846162 -323.429445 
L 138.444667 -325.873081 
L 138.984722 -328.316718 
L 139.46937 -330.760354 
L 139.901915 -333.20399 
L 145.314335 -333.20399 
L 145.314335 -333.20399 
L 145.74688 -330.760354 
L 146.231528 -328.316718 
L 146.771583 -325.873081 
L 147.370088 -323.429445 
L 148.029741 -320.985809 
L 148.752819 -318.542172 
L 149.541095 -316.098536 
L 150.395763 -313.6549 
L 151.317371 -311.211263 
L 152.305757 -308.767627 
L 153.360003 -306.32399 
L 154.478396 -303.880354 
L 155.658407 -301.436718 
L 156.896689 -298.993081 
L 158.189081 -296.549445 
L 159.530639 -294.105809 
L 160.915679 -291.662172 
L 162.337836 -289.218536 
L 163.790136 -286.7749 
L 165.265078 -284.331263 
L 166.75473 -281.887627 
L 168.250828 -279.44399 
L 169.74488 -277.000354 
L 171.228271 -274.556718 
L 172.692372 -272.113081 
L 174.128634 -269.669445 
L 175.528693 -267.225809 
L 176.884453 -264.782172 
L 178.18817 -262.338536 
L 179.432529 -259.8949 
L 180.610705 -257.451263 
L 181.716427 -255.007627 
L 182.744021 -252.56399 
L 183.688459 -250.120354 
L 184.545396 -247.676718 
L 185.311199 -245.233081 
L 185.982976 -242.789445 
L 186.558601 -240.345809 
L 187.036726 -237.902172 
L 187.416793 -235.458536 
L 187.699041 -233.0149 
L 187.884503 -230.571263 
L 187.974989 -228.127627 
L 187.973065 -225.68399 
L 187.882015 -223.240354 
L 187.705792 -220.796718 
L 187.448952 -218.353081 
L 187.116573 -215.909445 
L 186.714164 -213.465809 
L 186.247555 -211.022172 
L 185.722778 -208.578536 
L 185.145943 -206.1349 
L 184.523103 -203.691263 
L 183.860123 -201.247627 
L 183.162553 -198.80399 
L 182.435511 -196.360354 
L 181.683574 -193.916718 
L 180.910697 -191.473081 
L 180.120144 -189.029445 
L 179.314458 -186.585809 
L 178.495444 -184.142172 
L 177.664195 -181.698536 
L 176.821135 -179.2549 
L 175.966097 -176.811263 
L 175.098425 -174.367627 
L 174.217086 -171.92399 
L 173.320813 -169.480354 
L 172.408243 -167.036718 
L 171.478065 -164.593081 
L 170.529166 -162.149445 
L 169.56076 -159.705809 
L 168.572509 -157.262172 
L 167.56462 -154.818536 
L 166.537917 -152.3749 
L 165.493887 -149.931263 
L 164.434697 -147.487627 
L 163.363184 -145.04399 
L 162.28281 -142.600354 
L 161.197599 -140.156718 
L 160.11205 -137.713081 
L 159.031029 -135.269445 
L 157.959651 -132.825809 
L 156.903151 -130.382172 
L 155.866757 -127.938536 
L 154.855561 -125.4949 
L 153.874397 -123.051263 
L 152.927736 -120.607627 
L 152.019589 -118.16399 
L 151.153434 -115.720354 
L 150.332155 -113.276718 
L 149.558004 -110.833081 
L 148.832587 -108.389445 
L 148.156863 -105.945809 
L 147.531162 -103.502172 
L 146.955221 -101.058536 
L 146.428227 -98.6149 
L 145.94888 -96.171263 
L 145.515452 -93.727627 
L 145.125858 -91.28399 
z
" id="m749f00b09b" style="stroke:#3f3f3f;stroke-width:1.5;"/>
    </defs>
    <g clip-path="url(#p84f56d8a65)">
     <use style="fill:#3274a1;stroke:#3f3f3f;stroke-width:1.5;" x="0" xlink:href="#m749f00b09b" y="367.618115"/>
    </g>
   </g>
   <g id="PolyCollection_2">
    <defs>
     <path d="M 327.960638 -149.83203 
L 314.375612 -149.83203 
L 313.562975 -151.2441 
L 312.679752 -152.65617 
L 311.723507 -154.068241 
L 310.692213 -155.480311 
L 309.584315 -156.892382 
L 308.398793 -158.304452 
L 307.13522 -159.716522 
L 305.793814 -161.128593 
L 304.375487 -162.540663 
L 302.881883 -163.952734 
L 301.315406 -165.364804 
L 299.67924 -166.776874 
L 297.977351 -168.188945 
L 296.214484 -169.601015 
L 294.396137 -171.013085 
L 292.528531 -172.425156 
L 290.618553 -173.837226 
L 288.673697 -175.249297 
L 286.701985 -176.661367 
L 284.711876 -178.073437 
L 282.712167 -179.485508 
L 280.711884 -180.897578 
L 278.720167 -182.309649 
L 276.746147 -183.721719 
L 274.798829 -185.133789 
L 272.88697 -186.54586 
L 271.018965 -187.95793 
L 269.202738 -189.370001 
L 267.445645 -190.782071 
L 265.754391 -192.194141 
L 264.134958 -193.606212 
L 262.592555 -195.018282 
L 261.131581 -196.430353 
L 259.755614 -197.842423 
L 258.467414 -199.254493 
L 257.268946 -200.666564 
L 256.16143 -202.078634 
L 255.145395 -203.490705 
L 254.22076 -204.902775 
L 253.386923 -206.314845 
L 252.642858 -207.726916 
L 251.987224 -209.138986 
L 251.418473 -210.551056 
L 250.934961 -211.963127 
L 250.53505 -213.375197 
L 250.21721 -214.787268 
L 249.980102 -216.199338 
L 249.822656 -217.611408 
L 249.744125 -219.023479 
L 249.744125 -220.435549 
L 249.822656 -221.84762 
L 249.980102 -223.25969 
L 250.21721 -224.67176 
L 250.53505 -226.083831 
L 250.934961 -227.495901 
L 251.418473 -228.907972 
L 251.987224 -230.320042 
L 252.642858 -231.732112 
L 253.386923 -233.144183 
L 254.22076 -234.556253 
L 255.145395 -235.968324 
L 256.16143 -237.380394 
L 257.268946 -238.792464 
L 258.467414 -240.204535 
L 259.755614 -241.616605 
L 261.131581 -243.028676 
L 262.592555 -244.440746 
L 264.134958 -245.852816 
L 265.754391 -247.264887 
L 267.445645 -248.676957 
L 269.202738 -250.089027 
L 271.018965 -251.501098 
L 272.88697 -252.913168 
L 274.798829 -254.325239 
L 276.746147 -255.737309 
L 278.720167 -257.149379 
L 280.711884 -258.56145 
L 282.712167 -259.97352 
L 284.711876 -261.385591 
L 286.701985 -262.797661 
L 288.673697 -264.209731 
L 290.618553 -265.621802 
L 292.528531 -267.033872 
L 294.396137 -268.445943 
L 296.214484 -269.858013 
L 297.977351 -271.270083 
L 299.67924 -272.682154 
L 301.315406 -274.094224 
L 302.881883 -275.506295 
L 304.375487 -276.918365 
L 305.793814 -278.330435 
L 307.13522 -279.742506 
L 308.398793 -281.154576 
L 309.584315 -282.566647 
L 310.692213 -283.978717 
L 311.723507 -285.390787 
L 312.679752 -286.802858 
L 313.562975 -288.214928 
L 314.375612 -289.626998 
L 327.960638 -289.626998 
L 327.960638 -289.626998 
L 328.773275 -288.214928 
L 329.656498 -286.802858 
L 330.612743 -285.390787 
L 331.644037 -283.978717 
L 332.751935 -282.566647 
L 333.937457 -281.154576 
L 335.20103 -279.742506 
L 336.542436 -278.330435 
L 337.960763 -276.918365 
L 339.454367 -275.506295 
L 341.020844 -274.094224 
L 342.65701 -272.682154 
L 344.358899 -271.270083 
L 346.121766 -269.858013 
L 347.940113 -268.445943 
L 349.807719 -267.033872 
L 351.717697 -265.621802 
L 353.662553 -264.209731 
L 355.634265 -262.797661 
L 357.624374 -261.385591 
L 359.624083 -259.97352 
L 361.624366 -258.56145 
L 363.616083 -257.149379 
L 365.590103 -255.737309 
L 367.537421 -254.325239 
L 369.44928 -252.913168 
L 371.317285 -251.501098 
L 373.133512 -250.089027 
L 374.890605 -248.676957 
L 376.581859 -247.264887 
L 378.201292 -245.852816 
L 379.743695 -244.440746 
L 381.204669 -243.028676 
L 382.580636 -241.616605 
L 383.868836 -240.204535 
L 385.067304 -238.792464 
L 386.17482 -237.380394 
L 387.190855 -235.968324 
L 388.11549 -234.556253 
L 388.949327 -233.144183 
L 389.693392 -231.732112 
L 390.349026 -230.320042 
L 390.917777 -228.907972 
L 391.401289 -227.495901 
L 391.8012 -226.083831 
L 392.11904 -224.67176 
L 392.356148 -223.25969 
L 392.513594 -221.84762 
L 392.592125 -220.435549 
L 392.592125 -219.023479 
L 392.513594 -217.611408 
L 392.356148 -216.199338 
L 392.11904 -214.787268 
L 391.8012 -213.375197 
L 391.401289 -211.963127 
L 390.917777 -210.551056 
L 390.349026 -209.138986 
L 389.693392 -207.726916 
L 388.949327 -206.314845 
L 388.11549 -204.902775 
L 387.190855 -203.490705 
L 386.17482 -202.078634 
L 385.067304 -200.666564 
L 383.868836 -199.254493 
L 382.580636 -197.842423 
L 381.204669 -196.430353 
L 379.743695 -195.018282 
L 378.201292 -193.606212 
L 376.581859 -192.194141 
L 374.890605 -190.782071 
L 373.133512 -189.370001 
L 371.317285 -187.95793 
L 369.44928 -186.54586 
L 367.537421 -185.133789 
L 365.590103 -183.721719 
L 363.616083 -182.309649 
L 361.624366 -180.897578 
L 359.624083 -179.485508 
L 357.624374 -178.073437 
L 355.634265 -176.661367 
L 353.662553 -175.249297 
L 351.717697 -173.837226 
L 349.807719 -172.425156 
L 347.940113 -171.013085 
L 346.121766 -169.601015 
L 344.358899 -168.188945 
L 342.65701 -166.776874 
L 341.020844 -165.364804 
L 339.454367 -163.952734 
L 337.960763 -162.540663 
L 336.542436 -161.128593 
L 335.20103 -159.716522 
L 333.937457 -158.304452 
L 332.751935 -156.892382 
L 331.644037 -155.480311 
L 330.612743 -154.068241 
L 329.656498 -152.65617 
L 328.773275 -151.2441 
L 327.960638 -149.83203 
z
" id="m3420c8b11a" style="stroke:#3f3f3f;stroke-width:1.5;"/>
    </defs>
    <g clip-path="url(#p84f56d8a65)">
     <use style="fill:#9fd495;stroke:#3f3f3f;stroke-width:1.5;" x="0" xlink:href="#m3420c8b11a" y="367.618115"/>
    </g>
   </g>
   <g id="matplotlib.axis_1">
    <g id="xtick_1">
     <g id="line2d_1">
      <defs>
       <path d="M 0 0 
L 0 3.5 
" id="m98d017df5d" style="stroke:#000000;stroke-width:0.8;"/>
      </defs>
      <g>
       <use style="stroke:#000000;stroke-width:0.8;" x="142.608125" xlink:href="#m98d017df5d" y="288.430125"/>
      </g>
     </g>
     <g id="text_1">
      <!-- afldark_dev -->
      <g transform="translate(91.00489 331.123065)rotate(-30)scale(0.1 -0.1)">
       <defs>
        <path d="M 34.28125 27.484375 
Q 23.390625 27.484375 19.1875 25 
Q 14.984375 22.515625 14.984375 16.5 
Q 14.984375 11.71875 18.140625 8.90625 
Q 21.296875 6.109375 26.703125 6.109375 
Q 34.1875 6.109375 38.703125 11.40625 
Q 43.21875 16.703125 43.21875 25.484375 
L 43.21875 27.484375 
z
M 52.203125 31.203125 
L 52.203125 0 
L 43.21875 0 
L 43.21875 8.296875 
Q 40.140625 3.328125 35.546875 0.953125 
Q 30.953125 -1.421875 24.3125 -1.421875 
Q 15.921875 -1.421875 10.953125 3.296875 
Q 6 8.015625 6 15.921875 
Q 6 25.140625 12.171875 29.828125 
Q 18.359375 34.515625 30.609375 34.515625 
L 43.21875 34.515625 
L 43.21875 35.40625 
Q 43.21875 41.609375 39.140625 45 
Q 35.0625 48.390625 27.6875 48.390625 
Q 23 48.390625 18.546875 47.265625 
Q 14.109375 46.140625 10.015625 43.890625 
L 10.015625 52.203125 
Q 14.9375 54.109375 19.578125 55.046875 
Q 24.21875 56 28.609375 56 
Q 40.484375 56 46.34375 49.84375 
Q 52.203125 43.703125 52.203125 31.203125 
z
" id="DejaVuSans-97"/>
        <path d="M 37.109375 75.984375 
L 37.109375 68.5 
L 28.515625 68.5 
Q 23.6875 68.5 21.796875 66.546875 
Q 19.921875 64.59375 19.921875 59.515625 
L 19.921875 54.6875 
L 34.71875 54.6875 
L 34.71875 47.703125 
L 19.921875 47.703125 
L 19.921875 0 
L 10.890625 0 
L 10.890625 47.703125 
L 2.296875 47.703125 
L 2.296875 54.6875 
L 10.890625 54.6875 
L 10.890625 58.5 
Q 10.890625 67.625 15.140625 71.796875 
Q 19.390625 75.984375 28.609375 75.984375 
z
" id="DejaVuSans-102"/>
        <path d="M 9.421875 75.984375 
L 18.40625 75.984375 
L 18.40625 0 
L 9.421875 0 
z
" id="DejaVuSans-108"/>
        <path d="M 45.40625 46.390625 
L 45.40625 75.984375 
L 54.390625 75.984375 
L 54.390625 0 
L 45.40625 0 
L 45.40625 8.203125 
Q 42.578125 3.328125 38.25 0.953125 
Q 33.9375 -1.421875 27.875 -1.421875 
Q 17.96875 -1.421875 11.734375 6.484375 
Q 5.515625 14.40625 5.515625 27.296875 
Q 5.515625 40.1875 11.734375 48.09375 
Q 17.96875 56 27.875 56 
Q 33.9375 56 38.25 53.625 
Q 42.578125 51.265625 45.40625 46.390625 
z
M 14.796875 27.296875 
Q 14.796875 17.390625 18.875 11.75 
Q 22.953125 6.109375 30.078125 6.109375 
Q 37.203125 6.109375 41.296875 11.75 
Q 45.40625 17.390625 45.40625 27.296875 
Q 45.40625 37.203125 41.296875 42.84375 
Q 37.203125 48.484375 30.078125 48.484375 
Q 22.953125 48.484375 18.875 42.84375 
Q 14.796875 37.203125 14.796875 27.296875 
z
" id="DejaVuSans-100"/>
        <path d="M 41.109375 46.296875 
Q 39.59375 47.171875 37.8125 47.578125 
Q 36.03125 48 33.890625 48 
Q 26.265625 48 22.1875 43.046875 
Q 18.109375 38.09375 18.109375 28.8125 
L 18.109375 0 
L 9.078125 0 
L 9.078125 54.6875 
L 18.109375 54.6875 
L 18.109375 46.1875 
Q 20.953125 51.171875 25.484375 53.578125 
Q 30.03125 56 36.53125 56 
Q 37.453125 56 38.578125 55.875 
Q 39.703125 55.765625 41.0625 55.515625 
z
" id="DejaVuSans-114"/>
        <path d="M 9.078125 75.984375 
L 18.109375 75.984375 
L 18.109375 31.109375 
L 44.921875 54.6875 
L 56.390625 54.6875 
L 27.390625 29.109375 
L 57.625 0 
L 45.90625 0 
L 18.109375 26.703125 
L 18.109375 0 
L 9.078125 0 
z
" id="DejaVuSans-107"/>
        <path d="M 50.984375 -16.609375 
L 50.984375 -23.578125 
L -0.984375 -23.578125 
L -0.984375 -16.609375 
z
" id="DejaVuSans-95"/>
        <path d="M 56.203125 29.59375 
L 56.203125 25.203125 
L 14.890625 25.203125 
Q 15.484375 15.921875 20.484375 11.0625 
Q 25.484375 6.203125 34.421875 6.203125 
Q 39.59375 6.203125 44.453125 7.46875 
Q 49.3125 8.734375 54.109375 11.28125 
L 54.109375 2.78125 
Q 49.265625 0.734375 44.1875 -0.34375 
Q 39.109375 -1.421875 33.890625 -1.421875 
Q 20.796875 -1.421875 13.15625 6.1875 
Q 5.515625 13.8125 5.515625 26.8125 
Q 5.515625 40.234375 12.765625 48.109375 
Q 20.015625 56 32.328125 56 
Q 43.359375 56 49.78125 48.890625 
Q 56.203125 41.796875 56.203125 29.59375 
z
M 47.21875 32.234375 
Q 47.125 39.59375 43.09375 43.984375 
Q 39.0625 48.390625 32.421875 48.390625 
Q 24.90625 48.390625 20.390625 44.140625 
Q 15.875 39.890625 15.1875 32.171875 
z
" id="DejaVuSans-101"/>
        <path d="M 2.984375 54.6875 
L 12.5 54.6875 
L 29.59375 8.796875 
L 46.6875 54.6875 
L 56.203125 54.6875 
L 35.6875 0 
L 23.484375 0 
z
" id="DejaVuSans-118"/>
       </defs>
       <use xlink:href="#DejaVuSans-97"/>
       <use x="61.279297" xlink:href="#DejaVuSans-102"/>
       <use x="96.484375" xlink:href="#DejaVuSans-108"/>
       <use x="124.267578" xlink:href="#DejaVuSans-100"/>
       <use x="187.744141" xlink:href="#DejaVuSans-97"/>
       <use x="249.023438" xlink:href="#DejaVuSans-114"/>
       <use x="290.136719" xlink:href="#DejaVuSans-107"/>
       <use x="348.046875" xlink:href="#DejaVuSans-95"/>
       <use x="398.046875" xlink:href="#DejaVuSans-100"/>
       <use x="461.523438" xlink:href="#DejaVuSans-101"/>
       <use x="523.046875" xlink:href="#DejaVuSans-118"/>
      </g>
     </g>
    </g>
    <g id="xtick_2">
     <g id="line2d_2">
      <g>
       <use style="stroke:#000000;stroke-width:0.8;" x="321.168125" xlink:href="#m98d017df5d" y="288.430125"/>
      </g>
     </g>
     <g id="text_2">
      <!-- dark_instru_cond -->
      <g transform="translate(246.0523 344.698065)rotate(-30)scale(0.1 -0.1)">
       <defs>
        <path d="M 9.421875 54.6875 
L 18.40625 54.6875 
L 18.40625 0 
L 9.421875 0 
z
M 9.421875 75.984375 
L 18.40625 75.984375 
L 18.40625 64.59375 
L 9.421875 64.59375 
z
" id="DejaVuSans-105"/>
        <path d="M 54.890625 33.015625 
L 54.890625 0 
L 45.90625 0 
L 45.90625 32.71875 
Q 45.90625 40.484375 42.875 44.328125 
Q 39.84375 48.1875 33.796875 48.1875 
Q 26.515625 48.1875 22.3125 43.546875 
Q 18.109375 38.921875 18.109375 30.90625 
L 18.109375 0 
L 9.078125 0 
L 9.078125 54.6875 
L 18.109375 54.6875 
L 18.109375 46.1875 
Q 21.34375 51.125 25.703125 53.5625 
Q 30.078125 56 35.796875 56 
Q 45.21875 56 50.046875 50.171875 
Q 54.890625 44.34375 54.890625 33.015625 
z
" id="DejaVuSans-110"/>
        <path d="M 44.28125 53.078125 
L 44.28125 44.578125 
Q 40.484375 46.53125 36.375 47.5 
Q 32.28125 48.484375 27.875 48.484375 
Q 21.1875 48.484375 17.84375 46.4375 
Q 14.5 44.390625 14.5 40.28125 
Q 14.5 37.15625 16.890625 35.375 
Q 19.28125 33.59375 26.515625 31.984375 
L 29.59375 31.296875 
Q 39.15625 29.25 43.1875 25.515625 
Q 47.21875 21.78125 47.21875 15.09375 
Q 47.21875 7.46875 41.1875 3.015625 
Q 35.15625 -1.421875 24.609375 -1.421875 
Q 20.21875 -1.421875 15.453125 -0.5625 
Q 10.6875 0.296875 5.421875 2 
L 5.421875 11.28125 
Q 10.40625 8.6875 15.234375 7.390625 
Q 20.0625 6.109375 24.8125 6.109375 
Q 31.15625 6.109375 34.5625 8.28125 
Q 37.984375 10.453125 37.984375 14.40625 
Q 37.984375 18.0625 35.515625 20.015625 
Q 33.0625 21.96875 24.703125 23.78125 
L 21.578125 24.515625 
Q 13.234375 26.265625 9.515625 29.90625 
Q 5.8125 33.546875 5.8125 39.890625 
Q 5.8125 47.609375 11.28125 51.796875 
Q 16.75 56 26.8125 56 
Q 31.78125 56 36.171875 55.265625 
Q 40.578125 54.546875 44.28125 53.078125 
z
" id="DejaVuSans-115"/>
        <path d="M 18.3125 70.21875 
L 18.3125 54.6875 
L 36.8125 54.6875 
L 36.8125 47.703125 
L 18.3125 47.703125 
L 18.3125 18.015625 
Q 18.3125 11.328125 20.140625 9.421875 
Q 21.96875 7.515625 27.59375 7.515625 
L 36.8125 7.515625 
L 36.8125 0 
L 27.59375 0 
Q 17.1875 0 13.234375 3.875 
Q 9.28125 7.765625 9.28125 18.015625 
L 9.28125 47.703125 
L 2.6875 47.703125 
L 2.6875 54.6875 
L 9.28125 54.6875 
L 9.28125 70.21875 
z
" id="DejaVuSans-116"/>
        <path d="M 8.5 21.578125 
L 8.5 54.6875 
L 17.484375 54.6875 
L 17.484375 21.921875 
Q 17.484375 14.15625 20.5 10.265625 
Q 23.53125 6.390625 29.59375 6.390625 
Q 36.859375 6.390625 41.078125 11.03125 
Q 45.3125 15.671875 45.3125 23.6875 
L 45.3125 54.6875 
L 54.296875 54.6875 
L 54.296875 0 
L 45.3125 0 
L 45.3125 8.40625 
Q 42.046875 3.421875 37.71875 1 
Q 33.40625 -1.421875 27.6875 -1.421875 
Q 18.265625 -1.421875 13.375 4.4375 
Q 8.5 10.296875 8.5 21.578125 
z
M 31.109375 56 
z
" id="DejaVuSans-117"/>
        <path d="M 48.78125 52.59375 
L 48.78125 44.1875 
Q 44.96875 46.296875 41.140625 47.34375 
Q 37.3125 48.390625 33.40625 48.390625 
Q 24.65625 48.390625 19.8125 42.84375 
Q 14.984375 37.3125 14.984375 27.296875 
Q 14.984375 17.28125 19.8125 11.734375 
Q 24.65625 6.203125 33.40625 6.203125 
Q 37.3125 6.203125 41.140625 7.25 
Q 44.96875 8.296875 48.78125 10.40625 
L 48.78125 2.09375 
Q 45.015625 0.34375 40.984375 -0.53125 
Q 36.96875 -1.421875 32.421875 -1.421875 
Q 20.0625 -1.421875 12.78125 6.34375 
Q 5.515625 14.109375 5.515625 27.296875 
Q 5.515625 40.671875 12.859375 48.328125 
Q 20.21875 56 33.015625 56 
Q 37.15625 56 41.109375 55.140625 
Q 45.0625 54.296875 48.78125 52.59375 
z
" id="DejaVuSans-99"/>
        <path d="M 30.609375 48.390625 
Q 23.390625 48.390625 19.1875 42.75 
Q 14.984375 37.109375 14.984375 27.296875 
Q 14.984375 17.484375 19.15625 11.84375 
Q 23.34375 6.203125 30.609375 6.203125 
Q 37.796875 6.203125 41.984375 11.859375 
Q 46.1875 17.53125 46.1875 27.296875 
Q 46.1875 37.015625 41.984375 42.703125 
Q 37.796875 48.390625 30.609375 48.390625 
z
M 30.609375 56 
Q 42.328125 56 49.015625 48.375 
Q 55.71875 40.765625 55.71875 27.296875 
Q 55.71875 13.875 49.015625 6.21875 
Q 42.328125 -1.421875 30.609375 -1.421875 
Q 18.84375 -1.421875 12.171875 6.21875 
Q 5.515625 13.875 5.515625 27.296875 
Q 5.515625 40.765625 12.171875 48.375 
Q 18.84375 56 30.609375 56 
z
" id="DejaVuSans-111"/>
       </defs>
       <use xlink:href="#DejaVuSans-100"/>
       <use x="63.476562" xlink:href="#DejaVuSans-97"/>
       <use x="124.755859" xlink:href="#DejaVuSans-114"/>
       <use x="165.869141" xlink:href="#DejaVuSans-107"/>
       <use x="223.779297" xlink:href="#DejaVuSans-95"/>
       <use x="273.779297" xlink:href="#DejaVuSans-105"/>
       <use x="301.5625" xlink:href="#DejaVuSans-110"/>
       <use x="364.941406" xlink:href="#DejaVuSans-115"/>
       <use x="417.041016" xlink:href="#DejaVuSans-116"/>
       <use x="456.25" xlink:href="#DejaVuSans-114"/>
       <use x="497.363281" xlink:href="#DejaVuSans-117"/>
       <use x="560.742188" xlink:href="#DejaVuSans-95"/>
       <use x="610.742188" xlink:href="#DejaVuSans-99"/>
       <use x="665.722656" xlink:href="#DejaVuSans-111"/>
       <use x="726.904297" xlink:href="#DejaVuSans-110"/>
       <use x="790.283203" xlink:href="#DejaVuSans-100"/>
      </g>
     </g>
    </g>
    <g id="text_3">
     <!-- Fuzzer (highest median coverage on the left) -->
     <g transform="translate(119.270156 358.338428)scale(0.1 -0.1)">
      <defs>
       <path d="M 9.8125 72.90625 
L 51.703125 72.90625 
L 51.703125 64.59375 
L 19.671875 64.59375 
L 19.671875 43.109375 
L 48.578125 43.109375 
L 48.578125 34.8125 
L 19.671875 34.8125 
L 19.671875 0 
L 9.8125 0 
z
" id="DejaVuSans-70"/>
       <path d="M 5.515625 54.6875 
L 48.1875 54.6875 
L 48.1875 46.484375 
L 14.40625 7.171875 
L 48.1875 7.171875 
L 48.1875 0 
L 4.296875 0 
L 4.296875 8.203125 
L 38.09375 47.515625 
L 5.515625 47.515625 
z
" id="DejaVuSans-122"/>
       <path id="DejaVuSans-32"/>
       <path d="M 31 75.875 
Q 24.46875 64.65625 21.28125 53.65625 
Q 18.109375 42.671875 18.109375 31.390625 
Q 18.109375 20.125 21.3125 9.0625 
Q 24.515625 -2 31 -13.1875 
L 23.1875 -13.1875 
Q 15.875 -1.703125 12.234375 9.375 
Q 8.59375 20.453125 8.59375 31.390625 
Q 8.59375 42.28125 12.203125 53.3125 
Q 15.828125 64.359375 23.1875 75.875 
z
" id="DejaVuSans-40"/>
       <path d="M 54.890625 33.015625 
L 54.890625 0 
L 45.90625 0 
L 45.90625 32.71875 
Q 45.90625 40.484375 42.875 44.328125 
Q 39.84375 48.1875 33.796875 48.1875 
Q 26.515625 48.1875 22.3125 43.546875 
Q 18.109375 38.921875 18.109375 30.90625 
L 18.109375 0 
L 9.078125 0 
L 9.078125 75.984375 
L 18.109375 75.984375 
L 18.109375 46.1875 
Q 21.34375 51.125 25.703125 53.5625 
Q 30.078125 56 35.796875 56 
Q 45.21875 56 50.046875 50.171875 
Q 54.890625 44.34375 54.890625 33.015625 
z
" id="DejaVuSans-104"/>
       <path d="M 45.40625 27.984375 
Q 45.40625 37.75 41.375 43.109375 
Q 37.359375 48.484375 30.078125 48.484375 
Q 22.859375 48.484375 18.828125 43.109375 
Q 14.796875 37.75 14.796875 27.984375 
Q 14.796875 18.265625 18.828125 12.890625 
Q 22.859375 7.515625 30.078125 7.515625 
Q 37.359375 7.515625 41.375 12.890625 
Q 45.40625 18.265625 45.40625 27.984375 
z
M 54.390625 6.78125 
Q 54.390625 -7.171875 48.1875 -13.984375 
Q 42 -20.796875 29.203125 -20.796875 
Q 24.46875 -20.796875 20.265625 -20.09375 
Q 16.0625 -19.390625 12.109375 -17.921875 
L 12.109375 -9.1875 
Q 16.0625 -11.328125 19.921875 -12.34375 
Q 23.78125 -13.375 27.78125 -13.375 
Q 36.625 -13.375 41.015625 -8.765625 
Q 45.40625 -4.15625 45.40625 5.171875 
L 45.40625 9.625 
Q 42.625 4.78125 38.28125 2.390625 
Q 33.9375 0 27.875 0 
Q 17.828125 0 11.671875 7.65625 
Q 5.515625 15.328125 5.515625 27.984375 
Q 5.515625 40.671875 11.671875 48.328125 
Q 17.828125 56 27.875 56 
Q 33.9375 56 38.28125 53.609375 
Q 42.625 51.21875 45.40625 46.390625 
L 45.40625 54.6875 
L 54.390625 54.6875 
z
" id="DejaVuSans-103"/>
       <path d="M 52 44.1875 
Q 55.375 50.25 60.0625 53.125 
Q 64.75 56 71.09375 56 
Q 79.640625 56 84.28125 50.015625 
Q 88.921875 44.046875 88.921875 33.015625 
L 88.921875 0 
L 79.890625 0 
L 79.890625 32.71875 
Q 79.890625 40.578125 77.09375 44.375 
Q 74.3125 48.1875 68.609375 48.1875 
Q 61.625 48.1875 57.5625 43.546875 
Q 53.515625 38.921875 53.515625 30.90625 
L 53.515625 0 
L 44.484375 0 
L 44.484375 32.71875 
Q 44.484375 40.625 41.703125 44.40625 
Q 38.921875 48.1875 33.109375 48.1875 
Q 26.21875 48.1875 22.15625 43.53125 
Q 18.109375 38.875 18.109375 30.90625 
L 18.109375 0 
L 9.078125 0 
L 9.078125 54.6875 
L 18.109375 54.6875 
L 18.109375 46.1875 
Q 21.1875 51.21875 25.484375 53.609375 
Q 29.78125 56 35.6875 56 
Q 41.65625 56 45.828125 52.96875 
Q 50 49.953125 52 44.1875 
z
" id="DejaVuSans-109"/>
       <path d="M 8.015625 75.875 
L 15.828125 75.875 
Q 23.140625 64.359375 26.78125 53.3125 
Q 30.421875 42.28125 30.421875 31.390625 
Q 30.421875 20.453125 26.78125 9.375 
Q 23.140625 -1.703125 15.828125 -13.1875 
L 8.015625 -13.1875 
Q 14.5 -2 17.703125 9.0625 
Q 20.90625 20.125 20.90625 31.390625 
Q 20.90625 42.671875 17.703125 53.65625 
Q 14.5 64.65625 8.015625 75.875 
z
" id="DejaVuSans-41"/>
      </defs>
      <use xlink:href="#DejaVuSans-70"/>
      <use x="52.019531" xlink:href="#DejaVuSans-117"/>
      <use x="115.398438" xlink:href="#DejaVuSans-122"/>
      <use x="167.888672" xlink:href="#DejaVuSans-122"/>
      <use x="220.378906" xlink:href="#DejaVuSans-101"/>
      <use x="281.902344" xlink:href="#DejaVuSans-114"/>
      <use x="323.015625" xlink:href="#DejaVuSans-32"/>
      <use x="354.802734" xlink:href="#DejaVuSans-40"/>
      <use x="393.816406" xlink:href="#DejaVuSans-104"/>
      <use x="457.195312" xlink:href="#DejaVuSans-105"/>
      <use x="484.978516" xlink:href="#DejaVuSans-103"/>
      <use x="548.455078" xlink:href="#DejaVuSans-104"/>
      <use x="611.833984" xlink:href="#DejaVuSans-101"/>
      <use x="673.357422" xlink:href="#DejaVuSans-115"/>
      <use x="725.457031" xlink:href="#DejaVuSans-116"/>
      <use x="764.666016" xlink:href="#DejaVuSans-32"/>
      <use x="796.453125" xlink:href="#DejaVuSans-109"/>
      <use x="893.865234" xlink:href="#DejaVuSans-101"/>
      <use x="955.388672" xlink:href="#DejaVuSans-100"/>
      <use x="1018.865234" xlink:href="#DejaVuSans-105"/>
      <use x="1046.648438" xlink:href="#DejaVuSans-97"/>
      <use x="1107.927734" xlink:href="#DejaVuSans-110"/>
      <use x="1171.306641" xlink:href="#DejaVuSans-32"/>
      <use x="1203.09375" xlink:href="#DejaVuSans-99"/>
      <use x="1258.074219" xlink:href="#DejaVuSans-111"/>
      <use x="1319.255859" xlink:href="#DejaVuSans-118"/>
      <use x="1378.435547" xlink:href="#DejaVuSans-101"/>
      <use x="1439.958984" xlink:href="#DejaVuSans-114"/>
      <use x="1481.072266" xlink:href="#DejaVuSans-97"/>
      <use x="1542.351562" xlink:href="#DejaVuSans-103"/>
      <use x="1605.828125" xlink:href="#DejaVuSans-101"/>
      <use x="1667.351562" xlink:href="#DejaVuSans-32"/>
      <use x="1699.138672" xlink:href="#DejaVuSans-111"/>
      <use x="1760.320312" xlink:href="#DejaVuSans-110"/>
      <use x="1823.699219" xlink:href="#DejaVuSans-32"/>
      <use x="1855.486328" xlink:href="#DejaVuSans-116"/>
      <use x="1894.695312" xlink:href="#DejaVuSans-104"/>
      <use x="1958.074219" xlink:href="#DejaVuSans-101"/>
      <use x="2019.597656" xlink:href="#DejaVuSans-32"/>
      <use x="2051.384766" xlink:href="#DejaVuSans-108"/>
      <use x="2079.167969" xlink:href="#DejaVuSans-101"/>
      <use x="2140.691406" xlink:href="#DejaVuSans-102"/>
      <use x="2174.146484" xlink:href="#DejaVuSans-116"/>
      <use x="2213.355469" xlink:href="#DejaVuSans-41"/>
     </g>
    </g>
   </g>
   <g id="matplotlib.axis_2">
    <g id="ytick_1">
     <g id="line2d_3">
      <defs>
       <path d="M 0 0 
L -3.5 0 
" id="mc9d4a15a27" style="stroke:#000000;stroke-width:0.8;"/>
      </defs>
      <g>
       <use style="stroke:#000000;stroke-width:0.8;" x="53.328125" xlink:href="#mc9d4a15a27" y="284.669533"/>
      </g>
     </g>
     <g id="text_4">
      <!-- 7600 -->
      <g transform="translate(20.878125 288.468752)scale(0.1 -0.1)">
       <defs>
        <path d="M 8.203125 72.90625 
L 55.078125 72.90625 
L 55.078125 68.703125 
L 28.609375 0 
L 18.3125 0 
L 43.21875 64.59375 
L 8.203125 64.59375 
z
" id="DejaVuSans-55"/>
        <path d="M 33.015625 40.375 
Q 26.375 40.375 22.484375 35.828125 
Q 18.609375 31.296875 18.609375 23.390625 
Q 18.609375 15.53125 22.484375 10.953125 
Q 26.375 6.390625 33.015625 6.390625 
Q 39.65625 6.390625 43.53125 10.953125 
Q 47.40625 15.53125 47.40625 23.390625 
Q 47.40625 31.296875 43.53125 35.828125 
Q 39.65625 40.375 33.015625 40.375 
z
M 52.59375 71.296875 
L 52.59375 62.3125 
Q 48.875 64.0625 45.09375 64.984375 
Q 41.3125 65.921875 37.59375 65.921875 
Q 27.828125 65.921875 22.671875 59.328125 
Q 17.53125 52.734375 16.796875 39.40625 
Q 19.671875 43.65625 24.015625 45.921875 
Q 28.375 48.1875 33.59375 48.1875 
Q 44.578125 48.1875 50.953125 41.515625 
Q 57.328125 34.859375 57.328125 23.390625 
Q 57.328125 12.15625 50.6875 5.359375 
Q 44.046875 -1.421875 33.015625 -1.421875 
Q 20.359375 -1.421875 13.671875 8.265625 
Q 6.984375 17.96875 6.984375 36.375 
Q 6.984375 53.65625 15.1875 63.9375 
Q 23.390625 74.21875 37.203125 74.21875 
Q 40.921875 74.21875 44.703125 73.484375 
Q 48.484375 72.75 52.59375 71.296875 
z
" id="DejaVuSans-54"/>
        <path d="M 31.78125 66.40625 
Q 24.171875 66.40625 20.328125 58.90625 
Q 16.5 51.421875 16.5 36.375 
Q 16.5 21.390625 20.328125 13.890625 
Q 24.171875 6.390625 31.78125 6.390625 
Q 39.453125 6.390625 43.28125 13.890625 
Q 47.125 21.390625 47.125 36.375 
Q 47.125 51.421875 43.28125 58.90625 
Q 39.453125 66.40625 31.78125 66.40625 
z
M 31.78125 74.21875 
Q 44.046875 74.21875 50.515625 64.515625 
Q 56.984375 54.828125 56.984375 36.375 
Q 56.984375 17.96875 50.515625 8.265625 
Q 44.046875 -1.421875 31.78125 -1.421875 
Q 19.53125 -1.421875 13.0625 8.265625 
Q 6.59375 17.96875 6.59375 36.375 
Q 6.59375 54.828125 13.0625 64.515625 
Q 19.53125 74.21875 31.78125 74.21875 
z
" id="DejaVuSans-48"/>
       </defs>
       <use xlink:href="#DejaVuSans-55"/>
       <use x="63.623047" xlink:href="#DejaVuSans-54"/>
       <use x="127.246094" xlink:href="#DejaVuSans-48"/>
       <use x="190.869141" xlink:href="#DejaVuSans-48"/>
      </g>
     </g>
    </g>
    <g id="ytick_2">
     <g id="line2d_4">
      <g>
       <use style="stroke:#000000;stroke-width:0.8;" x="53.328125" xlink:href="#mc9d4a15a27" y="239.302723"/>
      </g>
     </g>
     <g id="text_5">
      <!-- 7700 -->
      <g transform="translate(20.878125 243.101942)scale(0.1 -0.1)">
       <use xlink:href="#DejaVuSans-55"/>
       <use x="63.623047" xlink:href="#DejaVuSans-55"/>
       <use x="127.246094" xlink:href="#DejaVuSans-48"/>
       <use x="190.869141" xlink:href="#DejaVuSans-48"/>
      </g>
     </g>
    </g>
    <g id="ytick_3">
     <g id="line2d_5">
      <g>
       <use style="stroke:#000000;stroke-width:0.8;" x="53.328125" xlink:href="#mc9d4a15a27" y="193.935913"/>
      </g>
     </g>
     <g id="text_6">
      <!-- 7800 -->
      <g transform="translate(20.878125 197.735132)scale(0.1 -0.1)">
       <defs>
        <path d="M 31.78125 34.625 
Q 24.75 34.625 20.71875 30.859375 
Q 16.703125 27.09375 16.703125 20.515625 
Q 16.703125 13.921875 20.71875 10.15625 
Q 24.75 6.390625 31.78125 6.390625 
Q 38.8125 6.390625 42.859375 10.171875 
Q 46.921875 13.96875 46.921875 20.515625 
Q 46.921875 27.09375 42.890625 30.859375 
Q 38.875 34.625 31.78125 34.625 
z
M 21.921875 38.8125 
Q 15.578125 40.375 12.03125 44.71875 
Q 8.5 49.078125 8.5 55.328125 
Q 8.5 64.0625 14.71875 69.140625 
Q 20.953125 74.21875 31.78125 74.21875 
Q 42.671875 74.21875 48.875 69.140625 
Q 55.078125 64.0625 55.078125 55.328125 
Q 55.078125 49.078125 51.53125 44.71875 
Q 48 40.375 41.703125 38.8125 
Q 48.828125 37.15625 52.796875 32.3125 
Q 56.78125 27.484375 56.78125 20.515625 
Q 56.78125 9.90625 50.3125 4.234375 
Q 43.84375 -1.421875 31.78125 -1.421875 
Q 19.734375 -1.421875 13.25 4.234375 
Q 6.78125 9.90625 6.78125 20.515625 
Q 6.78125 27.484375 10.78125 32.3125 
Q 14.796875 37.15625 21.921875 38.8125 
z
M 18.3125 54.390625 
Q 18.3125 48.734375 21.84375 45.5625 
Q 25.390625 42.390625 31.78125 42.390625 
Q 38.140625 42.390625 41.71875 45.5625 
Q 45.3125 48.734375 45.3125 54.390625 
Q 45.3125 60.0625 41.71875 63.234375 
Q 38.140625 66.40625 31.78125 66.40625 
Q 25.390625 66.40625 21.84375 63.234375 
Q 18.3125 60.0625 18.3125 54.390625 
z
" id="DejaVuSans-56"/>
       </defs>
       <use xlink:href="#DejaVuSans-55"/>
       <use x="63.623047" xlink:href="#DejaVuSans-56"/>
       <use x="127.246094" xlink:href="#DejaVuSans-48"/>
       <use x="190.869141" xlink:href="#DejaVuSans-48"/>
      </g>
     </g>
    </g>
    <g id="ytick_4">
     <g id="line2d_6">
      <g>
       <use style="stroke:#000000;stroke-width:0.8;" x="53.328125" xlink:href="#mc9d4a15a27" y="148.569104"/>
      </g>
     </g>
     <g id="text_7">
      <!-- 7900 -->
      <g transform="translate(20.878125 152.368322)scale(0.1 -0.1)">
       <defs>
        <path d="M 10.984375 1.515625 
L 10.984375 10.5 
Q 14.703125 8.734375 18.5 7.8125 
Q 22.3125 6.890625 25.984375 6.890625 
Q 35.75 6.890625 40.890625 13.453125 
Q 46.046875 20.015625 46.78125 33.40625 
Q 43.953125 29.203125 39.59375 26.953125 
Q 35.25 24.703125 29.984375 24.703125 
Q 19.046875 24.703125 12.671875 31.3125 
Q 6.296875 37.9375 6.296875 49.421875 
Q 6.296875 60.640625 12.9375 67.421875 
Q 19.578125 74.21875 30.609375 74.21875 
Q 43.265625 74.21875 49.921875 64.515625 
Q 56.59375 54.828125 56.59375 36.375 
Q 56.59375 19.140625 48.40625 8.859375 
Q 40.234375 -1.421875 26.421875 -1.421875 
Q 22.703125 -1.421875 18.890625 -0.6875 
Q 15.09375 0.046875 10.984375 1.515625 
z
M 30.609375 32.421875 
Q 37.25 32.421875 41.125 36.953125 
Q 45.015625 41.5 45.015625 49.421875 
Q 45.015625 57.28125 41.125 61.84375 
Q 37.25 66.40625 30.609375 66.40625 
Q 23.96875 66.40625 20.09375 61.84375 
Q 16.21875 57.28125 16.21875 49.421875 
Q 16.21875 41.5 20.09375 36.953125 
Q 23.96875 32.421875 30.609375 32.421875 
z
" id="DejaVuSans-57"/>
       </defs>
       <use xlink:href="#DejaVuSans-55"/>
       <use x="63.623047" xlink:href="#DejaVuSans-57"/>
       <use x="127.246094" xlink:href="#DejaVuSans-48"/>
       <use x="190.869141" xlink:href="#DejaVuSans-48"/>
      </g>
     </g>
    </g>
    <g id="ytick_5">
     <g id="line2d_7">
      <g>
       <use style="stroke:#000000;stroke-width:0.8;" x="53.328125" xlink:href="#mc9d4a15a27" y="103.202294"/>
      </g>
     </g>
     <g id="text_8">
      <!-- 8000 -->
      <g transform="translate(20.878125 107.001512)scale(0.1 -0.1)">
       <use xlink:href="#DejaVuSans-56"/>
       <use x="63.623047" xlink:href="#DejaVuSans-48"/>
       <use x="127.246094" xlink:href="#DejaVuSans-48"/>
       <use x="190.869141" xlink:href="#DejaVuSans-48"/>
      </g>
     </g>
    </g>
    <g id="ytick_6">
     <g id="line2d_8">
      <g>
       <use style="stroke:#000000;stroke-width:0.8;" x="53.328125" xlink:href="#mc9d4a15a27" y="57.835484"/>
      </g>
     </g>
     <g id="text_9">
      <!-- 8100 -->
      <g transform="translate(20.878125 61.634703)scale(0.1 -0.1)">
       <defs>
        <path d="M 12.40625 8.296875 
L 28.515625 8.296875 
L 28.515625 63.921875 
L 10.984375 60.40625 
L 10.984375 69.390625 
L 28.421875 72.90625 
L 38.28125 72.90625 
L 38.28125 8.296875 
L 54.390625 8.296875 
L 54.390625 0 
L 12.40625 0 
z
" id="DejaVuSans-49"/>
       </defs>
       <use xlink:href="#DejaVuSans-56"/>
       <use x="63.623047" xlink:href="#DejaVuSans-49"/>
       <use x="127.246094" xlink:href="#DejaVuSans-48"/>
       <use x="190.869141" xlink:href="#DejaVuSans-48"/>
      </g>
     </g>
    </g>
    <g id="text_10">
     <!-- Reached region coverage -->
     <g transform="translate(14.798438 219.136625)rotate(-90)scale(0.1 -0.1)">
      <defs>
       <path d="M 44.390625 34.1875 
Q 47.5625 33.109375 50.5625 29.59375 
Q 53.5625 26.078125 56.59375 19.921875 
L 66.609375 0 
L 56 0 
L 46.6875 18.703125 
Q 43.0625 26.03125 39.671875 28.421875 
Q 36.28125 30.8125 30.421875 30.8125 
L 19.671875 30.8125 
L 19.671875 0 
L 9.8125 0 
L 9.8125 72.90625 
L 32.078125 72.90625 
Q 44.578125 72.90625 50.734375 67.671875 
Q 56.890625 62.453125 56.890625 51.90625 
Q 56.890625 45.015625 53.6875 40.46875 
Q 50.484375 35.9375 44.390625 34.1875 
z
M 19.671875 64.796875 
L 19.671875 38.921875 
L 32.078125 38.921875 
Q 39.203125 38.921875 42.84375 42.21875 
Q 46.484375 45.515625 46.484375 51.90625 
Q 46.484375 58.296875 42.84375 61.546875 
Q 39.203125 64.796875 32.078125 64.796875 
z
" id="DejaVuSans-82"/>
      </defs>
      <use xlink:href="#DejaVuSans-82"/>
      <use x="64.982422" xlink:href="#DejaVuSans-101"/>
      <use x="126.505859" xlink:href="#DejaVuSans-97"/>
      <use x="187.785156" xlink:href="#DejaVuSans-99"/>
      <use x="242.765625" xlink:href="#DejaVuSans-104"/>
      <use x="306.144531" xlink:href="#DejaVuSans-101"/>
      <use x="367.667969" xlink:href="#DejaVuSans-100"/>
      <use x="431.144531" xlink:href="#DejaVuSans-32"/>
      <use x="462.931641" xlink:href="#DejaVuSans-114"/>
      <use x="501.794922" xlink:href="#DejaVuSans-101"/>
      <use x="563.318359" xlink:href="#DejaVuSans-103"/>
      <use x="626.794922" xlink:href="#DejaVuSans-105"/>
      <use x="654.578125" xlink:href="#DejaVuSans-111"/>
      <use x="715.759766" xlink:href="#DejaVuSans-110"/>
      <use x="779.138672" xlink:href="#DejaVuSans-32"/>
      <use x="810.925781" xlink:href="#DejaVuSans-99"/>
      <use x="865.90625" xlink:href="#DejaVuSans-111"/>
      <use x="927.087891" xlink:href="#DejaVuSans-118"/>
      <use x="986.267578" xlink:href="#DejaVuSans-101"/>
      <use x="1047.791016" xlink:href="#DejaVuSans-114"/>
      <use x="1088.904297" xlink:href="#DejaVuSans-97"/>
      <use x="1150.183594" xlink:href="#DejaVuSans-103"/>
      <use x="1213.660156" xlink:href="#DejaVuSans-101"/>
     </g>
    </g>
   </g>
   <g id="line2d_9">
    <path clip-path="url(#p84f56d8a65)" d="M 142.608125 208.453292 
L 142.608125 102.294958 
" style="fill:none;stroke:#3f3f3f;stroke-linecap:square;stroke-width:1.5;"/>
   </g>
   <g id="line2d_10">
    <path clip-path="url(#p84f56d8a65)" d="M 142.608125 172.386679 
L 142.608125 126.793035 
" style="fill:none;stroke:#3f3f3f;stroke-linecap:square;stroke-width:4.5;"/>
   </g>
   <g id="line2d_11">
    <path clip-path="url(#p84f56d8a65)" d="M 321.168125 168.076832 
L 321.168125 127.700371 
" style="fill:none;stroke:#3f3f3f;stroke-linecap:square;stroke-width:1.5;"/>
   </g>
   <g id="line2d_12">
    <path clip-path="url(#p84f56d8a65)" d="M 321.168125 157.982717 
L 321.168125 137.794486 
" style="fill:none;stroke:#3f3f3f;stroke-linecap:square;stroke-width:4.5;"/>
   </g>
   <g id="patch_3">
    <path d="M 53.328125 284.669533 
L 53.328125 57.835484 
" style="fill:none;stroke:#000000;stroke-linecap:square;stroke-linejoin:miter;stroke-width:0.8;"/>
   </g>
   <g id="patch_4">
    <path d="M 142.608125 288.430125 
L 321.168125 288.430125 
" style="fill:none;stroke:#000000;stroke-linecap:square;stroke-linejoin:miter;stroke-width:0.8;"/>
   </g>
   <g id="PathCollection_1">
    <defs>
     <path d="M 0 1.5 
C 0.397805 1.5 0.77937 1.341951 1.06066 1.06066 
C 1.341951 0.77937 1.5 0.397805 1.5 0 
C 1.5 -0.397805 1.341951 -0.77937 1.06066 -1.06066 
C 0.77937 -1.341951 0.397805 -1.5 0 -1.5 
C -0.397805 -1.5 -0.77937 -1.341951 -1.06066 -1.06066 
C -1.341951 -0.77937 -1.5 -0.397805 -1.5 0 
C -1.5 0.397805 -1.341951 0.77937 -1.06066 1.06066 
C -0.77937 1.341951 -0.397805 1.5 0 1.5 
z
" id="m37a756ab48" style="stroke:#3f3f3f;"/>
    </defs>
    <g clip-path="url(#p84f56d8a65)">
     <use style="fill:#ffffff;stroke:#3f3f3f;" x="142.608125" xlink:href="#m37a756ab48" y="147.661767"/>
    </g>
   </g>
   <g id="PathCollection_2">
    <g clip-path="url(#p84f56d8a65)">
     <use style="fill:#ffffff;stroke:#3f3f3f;" x="321.168125" xlink:href="#m37a756ab48" y="147.888601"/>
    </g>
   </g>
   <g id="text_11">
    <!-- mbedtls_fuzz_dtlsclient (24h, 2 trials/fuzzer) -->
    <g transform="translate(99.03125 16.318125)scale(0.12 -0.12)">
     <defs>
      <path d="M 48.6875 27.296875 
Q 48.6875 37.203125 44.609375 42.84375 
Q 40.53125 48.484375 33.40625 48.484375 
Q 26.265625 48.484375 22.1875 42.84375 
Q 18.109375 37.203125 18.109375 27.296875 
Q 18.109375 17.390625 22.1875 11.75 
Q 26.265625 6.109375 33.40625 6.109375 
Q 40.53125 6.109375 44.609375 11.75 
Q 48.6875 17.390625 48.6875 27.296875 
z
M 18.109375 46.390625 
Q 20.953125 51.265625 25.265625 53.625 
Q 29.59375 56 35.59375 56 
Q 45.5625 56 51.78125 48.09375 
Q 58.015625 40.1875 58.015625 27.296875 
Q 58.015625 14.40625 51.78125 6.484375 
Q 45.5625 -1.421875 35.59375 -1.421875 
Q 29.59375 -1.421875 25.265625 0.953125 
Q 20.953125 3.328125 18.109375 8.203125 
L 18.109375 0 
L 9.078125 0 
L 9.078125 75.984375 
L 18.109375 75.984375 
z
" id="DejaVuSans-98"/>
      <path d="M 19.1875 8.296875 
L 53.609375 8.296875 
L 53.609375 0 
L 7.328125 0 
L 7.328125 8.296875 
Q 12.9375 14.109375 22.625 23.890625 
Q 32.328125 33.6875 34.8125 36.53125 
Q 39.546875 41.84375 41.421875 45.53125 
Q 43.3125 49.21875 43.3125 52.78125 
Q 43.3125 58.59375 39.234375 62.25 
Q 35.15625 65.921875 28.609375 65.921875 
Q 23.96875 65.921875 18.8125 64.3125 
Q 13.671875 62.703125 7.8125 59.421875 
L 7.8125 69.390625 
Q 13.765625 71.78125 18.9375 73 
Q 24.125 74.21875 28.421875 74.21875 
Q 39.75 74.21875 46.484375 68.546875 
Q 53.21875 62.890625 53.21875 53.421875 
Q 53.21875 48.921875 51.53125 44.890625 
Q 49.859375 40.875 45.40625 35.40625 
Q 44.1875 33.984375 37.640625 27.21875 
Q 31.109375 20.453125 19.1875 8.296875 
z
" id="DejaVuSans-50"/>
      <path d="M 37.796875 64.3125 
L 12.890625 25.390625 
L 37.796875 25.390625 
z
M 35.203125 72.90625 
L 47.609375 72.90625 
L 47.609375 25.390625 
L 58.015625 25.390625 
L 58.015625 17.1875 
L 47.609375 17.1875 
L 47.609375 0 
L 37.796875 0 
L 37.796875 17.1875 
L 4.890625 17.1875 
L 4.890625 26.703125 
z
" id="DejaVuSans-52"/>
      <path d="M 11.71875 12.40625 
L 22.015625 12.40625 
L 22.015625 4 
L 14.015625 -11.625 
L 7.71875 -11.625 
L 11.71875 4 
z
" id="DejaVuSans-44"/>
      <path d="M 25.390625 72.90625 
L 33.6875 72.90625 
L 8.296875 -9.28125 
L 0 -9.28125 
z
" id="DejaVuSans-47"/>
     </defs>
     <use xlink:href="#DejaVuSans-109"/>
     <use x="97.412109" xlink:href="#DejaVuSans-98"/>
     <use x="160.888672" xlink:href="#DejaVuSans-101"/>
     <use x="222.412109" xlink:href="#DejaVuSans-100"/>
     <use x="285.888672" xlink:href="#DejaVuSans-116"/>
     <use x="325.097656" xlink:href="#DejaVuSans-108"/>
     <use x="352.880859" xlink:href="#DejaVuSans-115"/>
     <use x="404.980469" xlink:href="#DejaVuSans-95"/>
     <use x="454.980469" xlink:href="#DejaVuSans-102"/>
     <use x="490.185547" xlink:href="#DejaVuSans-117"/>
     <use x="553.564453" xlink:href="#DejaVuSans-122"/>
     <use x="606.054688" xlink:href="#DejaVuSans-122"/>
     <use x="658.544922" xlink:href="#DejaVuSans-95"/>
     <use x="708.544922" xlink:href="#DejaVuSans-100"/>
     <use x="772.021484" xlink:href="#DejaVuSans-116"/>
     <use x="811.230469" xlink:href="#DejaVuSans-108"/>
     <use x="839.013672" xlink:href="#DejaVuSans-115"/>
     <use x="891.113281" xlink:href="#DejaVuSans-99"/>
     <use x="946.09375" xlink:href="#DejaVuSans-108"/>
     <use x="973.876953" xlink:href="#DejaVuSans-105"/>
     <use x="1001.660156" xlink:href="#DejaVuSans-101"/>
     <use x="1063.183594" xlink:href="#DejaVuSans-110"/>
     <use x="1126.5625" xlink:href="#DejaVuSans-116"/>
     <use x="1165.771484" xlink:href="#DejaVuSans-32"/>
     <use x="1197.558594" xlink:href="#DejaVuSans-40"/>
     <use x="1236.572266" xlink:href="#DejaVuSans-50"/>
     <use x="1300.195312" xlink:href="#DejaVuSans-52"/>
     <use x="1363.818359" xlink:href="#DejaVuSans-104"/>
     <use x="1427.197266" xlink:href="#DejaVuSans-44"/>
     <use x="1458.984375" xlink:href="#DejaVuSans-32"/>
     <use x="1490.771484" xlink:href="#DejaVuSans-50"/>
     <use x="1554.394531" xlink:href="#DejaVuSans-32"/>
     <use x="1586.181641" xlink:href="#DejaVuSans-116"/>
     <use x="1625.390625" xlink:href="#DejaVuSans-114"/>
     <use x="1666.503906" xlink:href="#DejaVuSans-105"/>
     <use x="1694.287109" xlink:href="#DejaVuSans-97"/>
     <use x="1755.566406" xlink:href="#DejaVuSans-108"/>
     <use x="1783.349609" xlink:href="#DejaVuSans-115"/>
     <use x="1835.449219" xlink:href="#DejaVuSans-47"/>
     <use x="1869.140625" xlink:href="#DejaVuSans-102"/>
     <use x="1904.345703" xlink:href="#DejaVuSans-117"/>
     <use x="1967.724609" xlink:href="#DejaVuSans-122"/>
     <use x="2020.214844" xlink:href="#DejaVuSans-122"/>
     <use x="2072.705078" xlink:href="#DejaVuSans-101"/>
     <use x="2134.228516" xlink:href="#DejaVuSans-114"/>
     <use x="2175.341797" xlink:href="#DejaVuSans-41"/>
    </g>
   </g>
  </g>
 </g>
 <defs>
  <clipPath id="p84f56d8a65">
   <rect height="266.112" width="357.12" x="53.328125" y="22.318125"/>
  </clipPath>
 </defs>
</svg>
