<?xml version="1.0" encoding="utf-8" standalone="no"?>
<!DOCTYPE svg PUBLIC "-//W3C//DTD SVG 1.1//EN"
  "http://www.w3.org/Graphics/SVG/1.1/DTD/svg11.dtd">
<!-- Created with matplotlib (https://matplotlib.org/) -->
<svg height="325.986375pt" version="1.1" viewBox="0 0 902.505625 325.986375" width="902.505625pt" xmlns="http://www.w3.org/2000/svg" xmlns:xlink="http://www.w3.org/1999/xlink">
 <metadata>
  <rdf:RDF xmlns:cc="http://creativecommons.org/ns#" xmlns:dc="http://purl.org/dc/elements/1.1/" xmlns:rdf="http://www.w3.org/1999/02/22-rdf-syntax-ns#">
   <cc:Work>
    <dc:type rdf:resource="http://purl.org/dc/dcmitype/StillImage"/>
    <dc:date>2020-12-29T17:58:10.563058</dc:date>
    <dc:format>image/svg+xml</dc:format>
    <dc:creator>
     <cc:Agent>
      <dc:title>Matplotlib v3.3.2, https://matplotlib.org/</dc:title>
     </cc:Agent>
    </dc:creator>
   </cc:Work>
  </rdf:RDF>
 </metadata>
 <defs>
  <style type="text/css">*{stroke-linecap:butt;stroke-linejoin:round;}</style>
 </defs>
 <g id="figure_1">
  <g id="patch_1">
   <path d="M 0 325.986375 
L 902.505625 325.986375 
L 902.505625 0 
L 0 0 
z
" style="fill:#ffffff;"/>
  </g>
  <g id="axes_1">
   <g id="patch_2">
    <path d="M 59.690625 288.430125 
L 773.930625 288.430125 
L 773.930625 22.318125 
L 59.690625 22.318125 
z
" style="fill:#ffffff;"/>
   </g>
   <g id="PolyCollection_1">
    <defs>
     <path d="M 92.15608 -64.948529 
L 92.15608 -56.165392 
L 191.451587 -59.335776 
L 249.535735 -70.584767 
L 290.747094 -96.323585 
L 322.713107 -98.460659 
L 348.831242 -109.3339 
L 370.91381 -115.25195 
L 390.042601 -118.798083 
L 406.91539 -129.272091 
L 422.008615 -132.2546 
L 435.662097 -138.33704 
L 448.126749 -150.431466 
L 459.593118 -155.433627 
L 470.209318 -156.185126 
L 480.092763 -158.040387 
L 489.338108 -158.791886 
L 498.022776 -159.731258 
L 506.210898 -161.187286 
L 513.956197 -164.827357 
L 521.304122 -167.105336 
L 528.293466 -167.246242 
L 534.957604 -167.950772 
L 541.325458 -167.99774 
L 547.422257 -171.121155 
L 553.270135 -171.990075 
L 558.888625 -172.647636 
L 564.295046 -172.647636 
L 569.504825 -175.371818 
L 574.531766 -184.577673 
L 579.38827 -180.303526 
L 584.085515 -181.689101 
L 588.633616 -189.626802 
L 593.041752 -193.900949 
L 597.318283 -195.122134 
L 601.470838 -199.020531 
L 605.506405 -199.701577 
L 609.431394 -199.983389 
L 613.251704 -202.590149 
L 616.972774 -203.57649 
L 620.599629 -205.009034 
L 624.136923 -206.042344 
L 627.588973 -207.780184 
L 630.959791 -208.578651 
L 634.253111 -208.649104 
L 637.472418 -210.222554 
L 640.620966 -210.222554 
L 643.701797 -213.745202 
L 646.717764 -214.989871 
L 649.671541 -215.90576 
L 652.565643 -215.929244 
L 655.402431 -220.320813 
L 658.184133 -221.142764 
L 660.912846 -221.917747 
L 663.590553 -221.941231 
L 666.219125 -222.270012 
L 668.800332 -222.363949 
L 671.335852 -223.115447 
L 673.827274 -223.232869 
L 676.276105 -224.383601 
L 678.683777 -225.95705 
L 681.051652 -225.95705 
L 683.381022 -231.546319 
L 685.673121 -231.569804 
L 687.929123 -232.109943 
L 690.150146 -232.109943 
L 692.337259 -233.589456 
L 694.491483 -233.61294 
L 696.61379 -233.988689 
L 698.705114 -235.750013 
L 700.766346 -248.408064 
L 702.798339 -251.742838 
L 704.801912 -252.048134 
L 706.777849 -252.165555 
L 708.726901 -253.715521 
L 710.649791 -253.715521 
L 712.547211 -253.739005 
L 714.419828 -254.09127 
L 716.268281 -254.232176 
L 718.093186 -254.326113 
L 719.895136 -254.748831 
L 721.674701 -254.7958 
L 723.43243 -254.842768 
L 725.168853 -254.842768 
L 726.88448 -255.406392 
L 728.579803 -255.547298 
L 730.255298 -258.506323 
L 731.911422 -259.516149 
L 733.548618 -259.516149 
L 735.167315 -259.516149 
L 736.767926 -259.516149 
L 738.350849 -259.516149 
L 739.916473 -259.680539 
L 741.46517 -259.680539 
L 741.46517 -291.57225 
L 741.46517 -291.57225 
L 739.916473 -291.525281 
L 738.350849 -291.219985 
L 736.767926 -291.102564 
L 735.167315 -289.646535 
L 733.548618 -289.341239 
L 731.911422 -288.073086 
L 730.255298 -285.231483 
L 728.579803 -287.509462 
L 726.88448 -287.22765 
L 725.168853 -287.157197 
L 723.43243 -286.851901 
L 721.674701 -279.477823 
L 719.895136 -279.172527 
L 718.093186 -277.951342 
L 716.268281 -277.951342 
L 714.419828 -277.951342 
L 712.547211 -277.951342 
L 710.649791 -277.904374 
L 708.726901 -277.810436 
L 706.777849 -277.716499 
L 704.801912 -277.599078 
L 702.798339 -277.293781 
L 700.766346 -277.199844 
L 698.705114 -277.199844 
L 696.61379 -277.199844 
L 694.491483 -277.199844 
L 692.337259 -275.673363 
L 690.150146 -275.43852 
L 687.929123 -272.737823 
L 685.673121 -272.197683 
L 683.381022 -271.96284 
L 681.051652 -271.540122 
L 678.683777 -270.342422 
L 676.276105 -268.416707 
L 673.827274 -266.256149 
L 671.335852 -264.588762 
L 668.800332 -261.935034 
L 666.219125 -261.935034 
L 663.590553 -261.723675 
L 660.912846 -261.347926 
L 658.184133 -260.925208 
L 655.402431 -260.197194 
L 652.565643 -256.580608 
L 649.671541 -256.486671 
L 646.717764 -255.66472 
L 643.701797 -254.772315 
L 640.620966 -252.071618 
L 637.472418 -251.461026 
L 634.253111 -249.253499 
L 630.959791 -242.654404 
L 627.588973 -232.391755 
L 624.136923 -222.622277 
L 620.599629 -226.82597 
L 616.972774 -226.802486 
L 613.251704 -226.755517 
L 609.431394 -226.49719 
L 605.506405 -214.027014 
L 601.470838 -208.155933 
L 597.318283 -207.686247 
L 593.041752 -207.686247 
L 588.633616 -204.868128 
L 584.085515 -203.764365 
L 579.38827 -203.106804 
L 574.531766 -199.466734 
L 569.504825 -198.36297 
L 564.295046 -194.628963 
L 558.888625 -192.703248 
L 553.270135 -192.562343 
L 547.422257 -190.660112 
L 541.325458 -190.119973 
L 534.957604 -189.251053 
L 528.293466 -179.152794 
L 521.304122 -178.189937 
L 513.956197 -177.227079 
L 506.210898 -174.972584 
L 498.022776 -171.896138 
L 489.338108 -166.118994 
L 480.092763 -165.273559 
L 470.209318 -164.381154 
L 459.593118 -158.157809 
L 448.126749 -153.977599 
L 435.662097 -147.308051 
L 422.008615 -143.315716 
L 406.91539 -137.609026 
L 390.042601 -135.683311 
L 370.91381 -134.509095 
L 348.831242 -122.273763 
L 322.713107 -116.238292 
L 290.747094 -105.52944 
L 249.535735 -95.360728 
L 191.451587 -87.587417 
L 92.15608 -64.948529 
z
" id="mbe842bc509" style="stroke:#1f77b4;stroke-opacity:0.2;"/>
    </defs>
    <g clip-path="url(#p751f8546da)">
     <use style="fill:#1f77b4;fill-opacity:0.2;stroke:#1f77b4;stroke-opacity:0.2;" x="0" xlink:href="#mbe842bc509" y="325.986375"/>
    </g>
   </g>
   <g id="PolyCollection_2">
    <defs>
     <path d="M 92.15608 -67.630439 
L 92.15608 -49.65225 
L 191.451587 -69.203889 
L 249.535735 -72.571541 
L 290.747094 -87.695445 
L 322.713107 -94.679683 
L 348.831242 -97.662192 
L 370.91381 -102.147697 
L 390.042601 -102.100729 
L 406.91539 -107.412883 
L 422.008615 -119.314738 
L 435.662097 -121.728926 
L 448.126749 -127.999241 
L 459.593118 -132.921555 
L 470.209318 -136.378447 
L 480.092763 -138.120984 
L 489.338108 -139.854127 
L 498.022776 -140.929709 
L 506.210898 -142.4421 
L 513.956197 -144.289142 
L 521.304122 -146.514281 
L 528.293466 -149.49679 
L 534.957604 -152.037794 
L 541.325458 -159.038941 
L 547.422257 -159.858074 
L 553.270135 -162.408471 
L 558.888625 -163.934952 
L 564.295046 -174.677621 
L 569.504825 -177.811252 
L 574.531766 -179.575512 
L 579.38827 -179.199763 
L 584.085515 -182.294996 
L 588.633616 -184.371011 
L 593.041752 -185.333868 
L 597.318283 -187.020042 
L 601.470838 -188.605821 
L 605.506405 -189.147722 
L 609.431394 -191.853116 
L 613.251704 -194.473966 
L 616.972774 -195.718636 
L 620.599629 -196.601646 
L 624.136923 -196.986789 
L 627.588973 -197.665016 
L 630.959791 -197.996615 
L 634.253111 -201.546505 
L 637.472418 -201.519263 
L 640.620966 -204.032086 
L 643.701797 -206.450971 
L 646.717764 -206.685815 
L 649.671541 -208.329717 
L 652.565643 -207.509058 
L 655.402431 -210.93178 
L 658.184133 -212.772951 
L 660.912846 -213.806261 
L 663.590553 -219.137203 
L 666.219125 -220.08597 
L 668.800332 -222.110318 
L 671.335852 -222.340465 
L 673.827274 -223.41135 
L 676.276105 -226.239215 
L 678.683777 -225.47797 
L 681.051652 -225.431002 
L 683.381022 -227.314444 
L 685.673121 -227.652619 
L 687.929123 -228.791726 
L 690.150146 -228.056549 
L 692.337259 -235.421233 
L 694.491483 -238.417832 
L 696.61379 -237.788453 
L 698.705114 -239.39478 
L 700.766346 -240.517331 
L 702.798339 -241.790181 
L 704.801912 -242.034418 
L 706.777849 -242.710767 
L 708.726901 -243.044244 
L 710.649791 -244.631784 
L 712.547211 -249.11729 
L 714.419828 -249.262893 
L 716.268281 -250.531986 
L 718.093186 -251.991771 
L 719.895136 -252.236008 
L 721.674701 -252.870085 
L 723.43243 -252.470852 
L 725.168853 -254.18051 
L 726.88448 -254.471716 
L 728.579803 -254.314606 
L 730.255298 -254.077179 
L 731.911422 -254.437664 
L 733.548618 -254.124148 
L 735.167315 -256.655758 
L 736.767926 -256.853026 
L 738.350849 -257.646914 
L 739.916473 -258.557988 
L 741.46517 -249.723186 
L 741.46517 -270.131063 
L 741.46517 -270.131063 
L 739.916473 -281.272026 
L 738.350849 -280.680221 
L 736.767926 -277.913768 
L 735.167315 -277.453475 
L 733.548618 -275.377461 
L 731.911422 -273.999048 
L 730.255298 -274.578994 
L 728.579803 -274.283091 
L 726.88448 -273.620833 
L 725.168853 -273.395384 
L 723.43243 -270.488024 
L 721.674701 -270.13576 
L 719.895136 -268.71261 
L 718.093186 -267.721571 
L 716.268281 -266.331299 
L 714.419828 -266.321905 
L 712.547211 -266.11994 
L 710.649791 -265.794448 
L 708.726901 -265.814644 
L 706.777849 -264.278769 
L 704.801912 -264.987996 
L 702.798339 -263.794053 
L 700.766346 -263.010616 
L 698.705114 -261.963215 
L 696.61379 -258.365417 
L 694.491483 -256.688636 
L 692.337259 -254.274448 
L 690.150146 -253.396134 
L 687.929123 -251.747534 
L 685.673121 -248.403367 
L 683.381022 -247.81027 
L 681.051652 -242.975318 
L 678.683777 -241.635185 
L 676.276105 -241.348676 
L 673.827274 -239.324327 
L 671.335852 -238.864035 
L 668.800332 -238.578465 
L 666.219125 -237.314069 
L 663.590553 -235.299114 
L 660.912846 -234.852912 
L 658.184133 -233.392187 
L 655.402431 -232.554619 
L 652.565643 -230.419072 
L 649.671541 -230.126105 
L 646.717764 -229.592424 
L 643.701797 -227.888049 
L 640.620966 -226.58643 
L 637.472418 -226.210681 
L 634.253111 -225.905385 
L 630.959791 -217.206792 
L 627.588973 -216.605593 
L 624.136923 -215.336735 
L 620.599629 -214.398066 
L 616.972774 -212.946735 
L 613.251704 -211.725081 
L 609.431394 -210.011195 
L 605.506405 -209.095306 
L 601.470838 -204.717828 
L 597.318283 -203.548309 
L 593.041752 -197.277995 
L 588.633616 -194.63366 
L 584.085515 -193.487625 
L 579.38827 -191.500851 
L 574.531766 -190.646022 
L 569.504825 -186.883833 
L 564.295046 -182.473477 
L 558.888625 -178.916659 
L 553.270135 -176.216784 
L 547.422257 -174.145936 
L 541.325458 -173.023385 
L 534.957604 -171.858563 
L 528.293466 -167.340179 
L 521.304122 -164.235552 
L 513.956197 -159.440053 
L 506.210898 -155.682561 
L 498.022776 -152.206881 
L 489.338108 -150.783731 
L 480.092763 -148.313768 
L 470.209318 -146.237166 
L 459.593118 -143.301626 
L 448.126749 -142.503159 
L 435.662097 -134.034712 
L 422.008615 -131.843272 
L 406.91539 -130.962962 
L 390.042601 -127.863032 
L 370.91381 -125.096578 
L 348.831242 -121.235756 
L 322.713107 -115.679365 
L 290.747094 -107.929538 
L 249.535735 -85.577159 
L 191.451587 -76.9462 
L 92.15608 -67.630439 
z
" id="m86f03756f8" style="stroke:#98df8a;stroke-opacity:0.2;"/>
    </defs>
    <g clip-path="url(#p751f8546da)">
     <use style="fill:#98df8a;fill-opacity:0.2;stroke:#98df8a;stroke-opacity:0.2;" x="0" xlink:href="#m86f03756f8" y="325.986375"/>
    </g>
   </g>
   <g id="matplotlib.axis_1">
    <g id="xtick_1">
     <g id="line2d_1">
      <defs>
       <path d="M 0 0 
L 0 3.5 
" id="m6658cf55c5" style="stroke:#000000;stroke-width:0.8;"/>
      </defs>
      <g>
       <use style="stroke:#000000;stroke-width:0.8;" x="92.15608" xlink:href="#m6658cf55c5" y="288.430125"/>
      </g>
     </g>
     <g id="text_1">
      <!-- 14m -->
      <g transform="translate(80.923267 303.028562)scale(0.1 -0.1)">
       <defs>
        <path d="M 12.40625 8.296875 
L 28.515625 8.296875 
L 28.515625 63.921875 
L 10.984375 60.40625 
L 10.984375 69.390625 
L 28.421875 72.90625 
L 38.28125 72.90625 
L 38.28125 8.296875 
L 54.390625 8.296875 
L 54.390625 0 
L 12.40625 0 
z
" id="DejaVuSans-49"/>
        <path d="M 37.796875 64.3125 
L 12.890625 25.390625 
L 37.796875 25.390625 
z
M 35.203125 72.90625 
L 47.609375 72.90625 
L 47.609375 25.390625 
L 58.015625 25.390625 
L 58.015625 17.1875 
L 47.609375 17.1875 
L 47.609375 0 
L 37.796875 0 
L 37.796875 17.1875 
L 4.890625 17.1875 
L 4.890625 26.703125 
z
" id="DejaVuSans-52"/>
        <path d="M 52 44.1875 
Q 55.375 50.25 60.0625 53.125 
Q 64.75 56 71.09375 56 
Q 79.640625 56 84.28125 50.015625 
Q 88.921875 44.046875 88.921875 33.015625 
L 88.921875 0 
L 79.890625 0 
L 79.890625 32.71875 
Q 79.890625 40.578125 77.09375 44.375 
Q 74.3125 48.1875 68.609375 48.1875 
Q 61.625 48.1875 57.5625 43.546875 
Q 53.515625 38.921875 53.515625 30.90625 
L 53.515625 0 
L 44.484375 0 
L 44.484375 32.71875 
Q 44.484375 40.625 41.703125 44.40625 
Q 38.921875 48.1875 33.109375 48.1875 
Q 26.21875 48.1875 22.15625 43.53125 
Q 18.109375 38.875 18.109375 30.90625 
L 18.109375 0 
L 9.078125 0 
L 9.078125 54.6875 
L 18.109375 54.6875 
L 18.109375 46.1875 
Q 21.1875 51.21875 25.484375 53.609375 
Q 29.78125 56 35.6875 56 
Q 41.65625 56 45.828125 52.96875 
Q 50 49.953125 52 44.1875 
z
" id="DejaVuSans-109"/>
       </defs>
       <use xlink:href="#DejaVuSans-49"/>
       <use x="63.623047" xlink:href="#DejaVuSans-52"/>
       <use x="127.246094" xlink:href="#DejaVuSans-109"/>
      </g>
     </g>
    </g>
    <g id="xtick_2">
     <g id="line2d_2">
      <g>
       <use style="stroke:#000000;stroke-width:0.8;" x="151.184334" xlink:href="#m6658cf55c5" y="288.430125"/>
      </g>
     </g>
     <g id="text_2">
      <!-- 22m -->
      <g transform="translate(139.951522 303.028562)scale(0.1 -0.1)">
       <defs>
        <path d="M 19.1875 8.296875 
L 53.609375 8.296875 
L 53.609375 0 
L 7.328125 0 
L 7.328125 8.296875 
Q 12.9375 14.109375 22.625 23.890625 
Q 32.328125 33.6875 34.8125 36.53125 
Q 39.546875 41.84375 41.421875 45.53125 
Q 43.3125 49.21875 43.3125 52.78125 
Q 43.3125 58.59375 39.234375 62.25 
Q 35.15625 65.921875 28.609375 65.921875 
Q 23.96875 65.921875 18.8125 64.3125 
Q 13.671875 62.703125 7.8125 59.421875 
L 7.8125 69.390625 
Q 13.765625 71.78125 18.9375 73 
Q 24.125 74.21875 28.421875 74.21875 
Q 39.75 74.21875 46.484375 68.546875 
Q 53.21875 62.890625 53.21875 53.421875 
Q 53.21875 48.921875 51.53125 44.890625 
Q 49.859375 40.875 45.40625 35.40625 
Q 44.1875 33.984375 37.640625 27.21875 
Q 31.109375 20.453125 19.1875 8.296875 
z
" id="DejaVuSans-50"/>
       </defs>
       <use xlink:href="#DejaVuSans-50"/>
       <use x="63.623047" xlink:href="#DejaVuSans-50"/>
       <use x="127.246094" xlink:href="#DejaVuSans-109"/>
      </g>
     </g>
    </g>
    <g id="xtick_3">
     <g id="line2d_3">
      <g>
       <use style="stroke:#000000;stroke-width:0.8;" x="210.212589" xlink:href="#m6658cf55c5" y="288.430125"/>
      </g>
     </g>
     <g id="text_3">
      <!-- 34m -->
      <g transform="translate(198.979777 303.028562)scale(0.1 -0.1)">
       <defs>
        <path d="M 40.578125 39.3125 
Q 47.65625 37.796875 51.625 33 
Q 55.609375 28.21875 55.609375 21.1875 
Q 55.609375 10.40625 48.1875 4.484375 
Q 40.765625 -1.421875 27.09375 -1.421875 
Q 22.515625 -1.421875 17.65625 -0.515625 
Q 12.796875 0.390625 7.625 2.203125 
L 7.625 11.71875 
Q 11.71875 9.328125 16.59375 8.109375 
Q 21.484375 6.890625 26.8125 6.890625 
Q 36.078125 6.890625 40.9375 10.546875 
Q 45.796875 14.203125 45.796875 21.1875 
Q 45.796875 27.640625 41.28125 31.265625 
Q 36.765625 34.90625 28.71875 34.90625 
L 20.21875 34.90625 
L 20.21875 43.015625 
L 29.109375 43.015625 
Q 36.375 43.015625 40.234375 45.921875 
Q 44.09375 48.828125 44.09375 54.296875 
Q 44.09375 59.90625 40.109375 62.90625 
Q 36.140625 65.921875 28.71875 65.921875 
Q 24.65625 65.921875 20.015625 65.03125 
Q 15.375 64.15625 9.8125 62.3125 
L 9.8125 71.09375 
Q 15.4375 72.65625 20.34375 73.4375 
Q 25.25 74.21875 29.59375 74.21875 
Q 40.828125 74.21875 47.359375 69.109375 
Q 53.90625 64.015625 53.90625 55.328125 
Q 53.90625 49.265625 50.4375 45.09375 
Q 46.96875 40.921875 40.578125 39.3125 
z
" id="DejaVuSans-51"/>
       </defs>
       <use xlink:href="#DejaVuSans-51"/>
       <use x="63.623047" xlink:href="#DejaVuSans-52"/>
       <use x="127.246094" xlink:href="#DejaVuSans-109"/>
      </g>
     </g>
    </g>
    <g id="xtick_4">
     <g id="line2d_4">
      <g>
       <use style="stroke:#000000;stroke-width:0.8;" x="269.240844" xlink:href="#m6658cf55c5" y="288.430125"/>
      </g>
     </g>
     <g id="text_4">
      <!-- 51m -->
      <g transform="translate(258.008031 303.028562)scale(0.1 -0.1)">
       <defs>
        <path d="M 10.796875 72.90625 
L 49.515625 72.90625 
L 49.515625 64.59375 
L 19.828125 64.59375 
L 19.828125 46.734375 
Q 21.96875 47.46875 24.109375 47.828125 
Q 26.265625 48.1875 28.421875 48.1875 
Q 40.625 48.1875 47.75 41.5 
Q 54.890625 34.8125 54.890625 23.390625 
Q 54.890625 11.625 47.5625 5.09375 
Q 40.234375 -1.421875 26.90625 -1.421875 
Q 22.3125 -1.421875 17.546875 -0.640625 
Q 12.796875 0.140625 7.71875 1.703125 
L 7.71875 11.625 
Q 12.109375 9.234375 16.796875 8.0625 
Q 21.484375 6.890625 26.703125 6.890625 
Q 35.15625 6.890625 40.078125 11.328125 
Q 45.015625 15.765625 45.015625 23.390625 
Q 45.015625 31 40.078125 35.4375 
Q 35.15625 39.890625 26.703125 39.890625 
Q 22.75 39.890625 18.8125 39.015625 
Q 14.890625 38.140625 10.796875 36.28125 
z
" id="DejaVuSans-53"/>
       </defs>
       <use xlink:href="#DejaVuSans-53"/>
       <use x="63.623047" xlink:href="#DejaVuSans-49"/>
       <use x="127.246094" xlink:href="#DejaVuSans-109"/>
      </g>
     </g>
    </g>
    <g id="xtick_5">
     <g id="line2d_5">
      <g>
       <use style="stroke:#000000;stroke-width:0.8;" x="328.269099" xlink:href="#m6658cf55c5" y="288.430125"/>
      </g>
     </g>
     <g id="text_5">
      <!-- 1h:17m -->
      <g transform="translate(309.001911 303.028562)scale(0.1 -0.1)">
       <defs>
        <path d="M 54.890625 33.015625 
L 54.890625 0 
L 45.90625 0 
L 45.90625 32.71875 
Q 45.90625 40.484375 42.875 44.328125 
Q 39.84375 48.1875 33.796875 48.1875 
Q 26.515625 48.1875 22.3125 43.546875 
Q 18.109375 38.921875 18.109375 30.90625 
L 18.109375 0 
L 9.078125 0 
L 9.078125 75.984375 
L 18.109375 75.984375 
L 18.109375 46.1875 
Q 21.34375 51.125 25.703125 53.5625 
Q 30.078125 56 35.796875 56 
Q 45.21875 56 50.046875 50.171875 
Q 54.890625 44.34375 54.890625 33.015625 
z
" id="DejaVuSans-104"/>
        <path d="M 11.71875 12.40625 
L 22.015625 12.40625 
L 22.015625 0 
L 11.71875 0 
z
M 11.71875 51.703125 
L 22.015625 51.703125 
L 22.015625 39.3125 
L 11.71875 39.3125 
z
" id="DejaVuSans-58"/>
        <path d="M 8.203125 72.90625 
L 55.078125 72.90625 
L 55.078125 68.703125 
L 28.609375 0 
L 18.3125 0 
L 43.21875 64.59375 
L 8.203125 64.59375 
z
" id="DejaVuSans-55"/>
       </defs>
       <use xlink:href="#DejaVuSans-49"/>
       <use x="63.623047" xlink:href="#DejaVuSans-104"/>
       <use x="127.001953" xlink:href="#DejaVuSans-58"/>
       <use x="160.693359" xlink:href="#DejaVuSans-49"/>
       <use x="224.316406" xlink:href="#DejaVuSans-55"/>
       <use x="287.939453" xlink:href="#DejaVuSans-109"/>
      </g>
     </g>
    </g>
    <g id="xtick_6">
     <g id="line2d_6">
      <g>
       <use style="stroke:#000000;stroke-width:0.8;" x="387.297353" xlink:href="#m6658cf55c5" y="288.430125"/>
      </g>
     </g>
     <g id="text_6">
      <!-- 1h:57m -->
      <g transform="translate(368.030166 303.028562)scale(0.1 -0.1)">
       <use xlink:href="#DejaVuSans-49"/>
       <use x="63.623047" xlink:href="#DejaVuSans-104"/>
       <use x="127.001953" xlink:href="#DejaVuSans-58"/>
       <use x="160.693359" xlink:href="#DejaVuSans-53"/>
       <use x="224.316406" xlink:href="#DejaVuSans-55"/>
       <use x="287.939453" xlink:href="#DejaVuSans-109"/>
      </g>
     </g>
    </g>
    <g id="xtick_7">
     <g id="line2d_7">
      <g>
       <use style="stroke:#000000;stroke-width:0.8;" x="446.325608" xlink:href="#m6658cf55c5" y="288.430125"/>
      </g>
     </g>
     <g id="text_7">
      <!-- 2h:57m -->
      <g transform="translate(427.058421 303.028562)scale(0.1 -0.1)">
       <use xlink:href="#DejaVuSans-50"/>
       <use x="63.623047" xlink:href="#DejaVuSans-104"/>
       <use x="127.001953" xlink:href="#DejaVuSans-58"/>
       <use x="160.693359" xlink:href="#DejaVuSans-53"/>
       <use x="224.316406" xlink:href="#DejaVuSans-55"/>
       <use x="287.939453" xlink:href="#DejaVuSans-109"/>
      </g>
     </g>
    </g>
    <g id="xtick_8">
     <g id="line2d_8">
      <g>
       <use style="stroke:#000000;stroke-width:0.8;" x="505.353863" xlink:href="#m6658cf55c5" y="288.430125"/>
      </g>
     </g>
     <g id="text_8">
      <!-- 4h:28m -->
      <g transform="translate(486.086675 303.028562)scale(0.1 -0.1)">
       <defs>
        <path d="M 31.78125 34.625 
Q 24.75 34.625 20.71875 30.859375 
Q 16.703125 27.09375 16.703125 20.515625 
Q 16.703125 13.921875 20.71875 10.15625 
Q 24.75 6.390625 31.78125 6.390625 
Q 38.8125 6.390625 42.859375 10.171875 
Q 46.921875 13.96875 46.921875 20.515625 
Q 46.921875 27.09375 42.890625 30.859375 
Q 38.875 34.625 31.78125 34.625 
z
M 21.921875 38.8125 
Q 15.578125 40.375 12.03125 44.71875 
Q 8.5 49.078125 8.5 55.328125 
Q 8.5 64.0625 14.71875 69.140625 
Q 20.953125 74.21875 31.78125 74.21875 
Q 42.671875 74.21875 48.875 69.140625 
Q 55.078125 64.0625 55.078125 55.328125 
Q 55.078125 49.078125 51.53125 44.71875 
Q 48 40.375 41.703125 38.8125 
Q 48.828125 37.15625 52.796875 32.3125 
Q 56.78125 27.484375 56.78125 20.515625 
Q 56.78125 9.90625 50.3125 4.234375 
Q 43.84375 -1.421875 31.78125 -1.421875 
Q 19.734375 -1.421875 13.25 4.234375 
Q 6.78125 9.90625 6.78125 20.515625 
Q 6.78125 27.484375 10.78125 32.3125 
Q 14.796875 37.15625 21.921875 38.8125 
z
M 18.3125 54.390625 
Q 18.3125 48.734375 21.84375 45.5625 
Q 25.390625 42.390625 31.78125 42.390625 
Q 38.140625 42.390625 41.71875 45.5625 
Q 45.3125 48.734375 45.3125 54.390625 
Q 45.3125 60.0625 41.71875 63.234375 
Q 38.140625 66.40625 31.78125 66.40625 
Q 25.390625 66.40625 21.84375 63.234375 
Q 18.3125 60.0625 18.3125 54.390625 
z
" id="DejaVuSans-56"/>
       </defs>
       <use xlink:href="#DejaVuSans-52"/>
       <use x="63.623047" xlink:href="#DejaVuSans-104"/>
       <use x="127.001953" xlink:href="#DejaVuSans-58"/>
       <use x="160.693359" xlink:href="#DejaVuSans-50"/>
       <use x="224.316406" xlink:href="#DejaVuSans-56"/>
       <use x="287.939453" xlink:href="#DejaVuSans-109"/>
      </g>
     </g>
    </g>
    <g id="xtick_9">
     <g id="line2d_9">
      <g>
       <use style="stroke:#000000;stroke-width:0.8;" x="564.382118" xlink:href="#m6658cf55c5" y="288.430125"/>
      </g>
     </g>
     <g id="text_9">
      <!-- 6h:45m -->
      <g transform="translate(545.11493 303.028562)scale(0.1 -0.1)">
       <defs>
        <path d="M 33.015625 40.375 
Q 26.375 40.375 22.484375 35.828125 
Q 18.609375 31.296875 18.609375 23.390625 
Q 18.609375 15.53125 22.484375 10.953125 
Q 26.375 6.390625 33.015625 6.390625 
Q 39.65625 6.390625 43.53125 10.953125 
Q 47.40625 15.53125 47.40625 23.390625 
Q 47.40625 31.296875 43.53125 35.828125 
Q 39.65625 40.375 33.015625 40.375 
z
M 52.59375 71.296875 
L 52.59375 62.3125 
Q 48.875 64.0625 45.09375 64.984375 
Q 41.3125 65.921875 37.59375 65.921875 
Q 27.828125 65.921875 22.671875 59.328125 
Q 17.53125 52.734375 16.796875 39.40625 
Q 19.671875 43.65625 24.015625 45.921875 
Q 28.375 48.1875 33.59375 48.1875 
Q 44.578125 48.1875 50.953125 41.515625 
Q 57.328125 34.859375 57.328125 23.390625 
Q 57.328125 12.15625 50.6875 5.359375 
Q 44.046875 -1.421875 33.015625 -1.421875 
Q 20.359375 -1.421875 13.671875 8.265625 
Q 6.984375 17.96875 6.984375 36.375 
Q 6.984375 53.65625 15.1875 63.9375 
Q 23.390625 74.21875 37.203125 74.21875 
Q 40.921875 74.21875 44.703125 73.484375 
Q 48.484375 72.75 52.59375 71.296875 
z
" id="DejaVuSans-54"/>
       </defs>
       <use xlink:href="#DejaVuSans-54"/>
       <use x="63.623047" xlink:href="#DejaVuSans-104"/>
       <use x="127.001953" xlink:href="#DejaVuSans-58"/>
       <use x="160.693359" xlink:href="#DejaVuSans-52"/>
       <use x="224.316406" xlink:href="#DejaVuSans-53"/>
       <use x="287.939453" xlink:href="#DejaVuSans-109"/>
      </g>
     </g>
    </g>
    <g id="xtick_10">
     <g id="line2d_10">
      <g>
       <use style="stroke:#000000;stroke-width:0.8;" x="623.410372" xlink:href="#m6658cf55c5" y="288.430125"/>
      </g>
     </g>
     <g id="text_10">
      <!-- 10h:11m -->
      <g transform="translate(600.961935 303.028562)scale(0.1 -0.1)">
       <defs>
        <path d="M 31.78125 66.40625 
Q 24.171875 66.40625 20.328125 58.90625 
Q 16.5 51.421875 16.5 36.375 
Q 16.5 21.390625 20.328125 13.890625 
Q 24.171875 6.390625 31.78125 6.390625 
Q 39.453125 6.390625 43.28125 13.890625 
Q 47.125 21.390625 47.125 36.375 
Q 47.125 51.421875 43.28125 58.90625 
Q 39.453125 66.40625 31.78125 66.40625 
z
M 31.78125 74.21875 
Q 44.046875 74.21875 50.515625 64.515625 
Q 56.984375 54.828125 56.984375 36.375 
Q 56.984375 17.96875 50.515625 8.265625 
Q 44.046875 -1.421875 31.78125 -1.421875 
Q 19.53125 -1.421875 13.0625 8.265625 
Q 6.59375 17.96875 6.59375 36.375 
Q 6.59375 54.828125 13.0625 64.515625 
Q 19.53125 74.21875 31.78125 74.21875 
z
" id="DejaVuSans-48"/>
       </defs>
       <use xlink:href="#DejaVuSans-49"/>
       <use x="63.623047" xlink:href="#DejaVuSans-48"/>
       <use x="127.246094" xlink:href="#DejaVuSans-104"/>
       <use x="190.625" xlink:href="#DejaVuSans-58"/>
       <use x="224.316406" xlink:href="#DejaVuSans-49"/>
       <use x="287.939453" xlink:href="#DejaVuSans-49"/>
       <use x="351.5625" xlink:href="#DejaVuSans-109"/>
      </g>
     </g>
    </g>
    <g id="xtick_11">
     <g id="line2d_11">
      <g>
       <use style="stroke:#000000;stroke-width:0.8;" x="682.438627" xlink:href="#m6658cf55c5" y="288.430125"/>
      </g>
     </g>
     <g id="text_11">
      <!-- 15h:23m -->
      <g transform="translate(659.99019 303.028562)scale(0.1 -0.1)">
       <use xlink:href="#DejaVuSans-49"/>
       <use x="63.623047" xlink:href="#DejaVuSans-53"/>
       <use x="127.246094" xlink:href="#DejaVuSans-104"/>
       <use x="190.625" xlink:href="#DejaVuSans-58"/>
       <use x="224.316406" xlink:href="#DejaVuSans-50"/>
       <use x="287.939453" xlink:href="#DejaVuSans-51"/>
       <use x="351.5625" xlink:href="#DejaVuSans-109"/>
      </g>
     </g>
    </g>
    <g id="xtick_12">
     <g id="line2d_12">
      <g>
       <use style="stroke:#000000;stroke-width:0.8;" x="741.466882" xlink:href="#m6658cf55c5" y="288.430125"/>
      </g>
     </g>
     <g id="text_12">
      <!-- 23h:15m -->
      <g transform="translate(719.018444 303.028562)scale(0.1 -0.1)">
       <use xlink:href="#DejaVuSans-50"/>
       <use x="63.623047" xlink:href="#DejaVuSans-51"/>
       <use x="127.246094" xlink:href="#DejaVuSans-104"/>
       <use x="190.625" xlink:href="#DejaVuSans-58"/>
       <use x="224.316406" xlink:href="#DejaVuSans-49"/>
       <use x="287.939453" xlink:href="#DejaVuSans-53"/>
       <use x="351.5625" xlink:href="#DejaVuSans-109"/>
      </g>
     </g>
    </g>
    <g id="xtick_13">
     <g id="line2d_13">
      <defs>
       <path d="M 0 0 
L 0 2 
" id="m63a6dff1cf" style="stroke:#000000;stroke-width:0.6;"/>
      </defs>
      <g>
       <use style="stroke:#000000;stroke-width:0.6;" x="75.28329" xlink:href="#m63a6dff1cf" y="288.430125"/>
      </g>
     </g>
    </g>
    <g id="xtick_14">
     <g id="line2d_14">
      <g>
       <use style="stroke:#000000;stroke-width:0.6;" x="206.544811" xlink:href="#m63a6dff1cf" y="288.430125"/>
      </g>
     </g>
    </g>
    <g id="xtick_15">
     <g id="line2d_15">
      <g>
       <use style="stroke:#000000;stroke-width:0.6;" x="264.628959" xlink:href="#m63a6dff1cf" y="288.430125"/>
      </g>
     </g>
    </g>
    <g id="xtick_16">
     <g id="line2d_16">
      <g>
       <use style="stroke:#000000;stroke-width:0.6;" x="305.840318" xlink:href="#m63a6dff1cf" y="288.430125"/>
      </g>
     </g>
    </g>
    <g id="xtick_17">
     <g id="line2d_17">
      <g>
       <use style="stroke:#000000;stroke-width:0.6;" x="337.806332" xlink:href="#m63a6dff1cf" y="288.430125"/>
      </g>
     </g>
    </g>
    <g id="xtick_18">
     <g id="line2d_18">
      <g>
       <use style="stroke:#000000;stroke-width:0.6;" x="363.924466" xlink:href="#m63a6dff1cf" y="288.430125"/>
      </g>
     </g>
    </g>
    <g id="xtick_19">
     <g id="line2d_19">
      <g>
       <use style="stroke:#000000;stroke-width:0.6;" x="386.007035" xlink:href="#m63a6dff1cf" y="288.430125"/>
      </g>
     </g>
    </g>
    <g id="xtick_20">
     <g id="line2d_20">
      <g>
       <use style="stroke:#000000;stroke-width:0.6;" x="405.135825" xlink:href="#m63a6dff1cf" y="288.430125"/>
      </g>
     </g>
    </g>
    <g id="xtick_21">
     <g id="line2d_21">
      <g>
       <use style="stroke:#000000;stroke-width:0.6;" x="422.008615" xlink:href="#m63a6dff1cf" y="288.430125"/>
      </g>
     </g>
    </g>
    <g id="xtick_22">
     <g id="line2d_22">
      <g>
       <use style="stroke:#000000;stroke-width:0.6;" x="536.397346" xlink:href="#m63a6dff1cf" y="288.430125"/>
      </g>
     </g>
    </g>
    <g id="xtick_23">
     <g id="line2d_23">
      <g>
       <use style="stroke:#000000;stroke-width:0.6;" x="594.481494" xlink:href="#m63a6dff1cf" y="288.430125"/>
      </g>
     </g>
    </g>
    <g id="xtick_24">
     <g id="line2d_24">
      <g>
       <use style="stroke:#000000;stroke-width:0.6;" x="635.692853" xlink:href="#m63a6dff1cf" y="288.430125"/>
      </g>
     </g>
    </g>
    <g id="xtick_25">
     <g id="line2d_25">
      <g>
       <use style="stroke:#000000;stroke-width:0.6;" x="667.658867" xlink:href="#m63a6dff1cf" y="288.430125"/>
      </g>
     </g>
    </g>
    <g id="xtick_26">
     <g id="line2d_26">
      <g>
       <use style="stroke:#000000;stroke-width:0.6;" x="693.777002" xlink:href="#m63a6dff1cf" y="288.430125"/>
      </g>
     </g>
    </g>
    <g id="xtick_27">
     <g id="line2d_27">
      <g>
       <use style="stroke:#000000;stroke-width:0.6;" x="715.85957" xlink:href="#m63a6dff1cf" y="288.430125"/>
      </g>
     </g>
    </g>
    <g id="xtick_28">
     <g id="line2d_28">
      <g>
       <use style="stroke:#000000;stroke-width:0.6;" x="734.988361" xlink:href="#m63a6dff1cf" y="288.430125"/>
      </g>
     </g>
    </g>
    <g id="xtick_29">
     <g id="line2d_29">
      <g>
       <use style="stroke:#000000;stroke-width:0.6;" x="751.86115" xlink:href="#m63a6dff1cf" y="288.430125"/>
      </g>
     </g>
    </g>
    <g id="text_13">
     <!-- Time (hour:minute) -->
     <g transform="translate(368.403594 316.706687)scale(0.1 -0.1)">
      <defs>
       <path d="M -0.296875 72.90625 
L 61.375 72.90625 
L 61.375 64.59375 
L 35.5 64.59375 
L 35.5 0 
L 25.59375 0 
L 25.59375 64.59375 
L -0.296875 64.59375 
z
" id="DejaVuSans-84"/>
       <path d="M 9.421875 54.6875 
L 18.40625 54.6875 
L 18.40625 0 
L 9.421875 0 
z
M 9.421875 75.984375 
L 18.40625 75.984375 
L 18.40625 64.59375 
L 9.421875 64.59375 
z
" id="DejaVuSans-105"/>
       <path d="M 56.203125 29.59375 
L 56.203125 25.203125 
L 14.890625 25.203125 
Q 15.484375 15.921875 20.484375 11.0625 
Q 25.484375 6.203125 34.421875 6.203125 
Q 39.59375 6.203125 44.453125 7.46875 
Q 49.3125 8.734375 54.109375 11.28125 
L 54.109375 2.78125 
Q 49.265625 0.734375 44.1875 -0.34375 
Q 39.109375 -1.421875 33.890625 -1.421875 
Q 20.796875 -1.421875 13.15625 6.1875 
Q 5.515625 13.8125 5.515625 26.8125 
Q 5.515625 40.234375 12.765625 48.109375 
Q 20.015625 56 32.328125 56 
Q 43.359375 56 49.78125 48.890625 
Q 56.203125 41.796875 56.203125 29.59375 
z
M 47.21875 32.234375 
Q 47.125 39.59375 43.09375 43.984375 
Q 39.0625 48.390625 32.421875 48.390625 
Q 24.90625 48.390625 20.390625 44.140625 
Q 15.875 39.890625 15.1875 32.171875 
z
" id="DejaVuSans-101"/>
       <path id="DejaVuSans-32"/>
       <path d="M 31 75.875 
Q 24.46875 64.65625 21.28125 53.65625 
Q 18.109375 42.671875 18.109375 31.390625 
Q 18.109375 20.125 21.3125 9.0625 
Q 24.515625 -2 31 -13.1875 
L 23.1875 -13.1875 
Q 15.875 -1.703125 12.234375 9.375 
Q 8.59375 20.453125 8.59375 31.390625 
Q 8.59375 42.28125 12.203125 53.3125 
Q 15.828125 64.359375 23.1875 75.875 
z
" id="DejaVuSans-40"/>
       <path d="M 30.609375 48.390625 
Q 23.390625 48.390625 19.1875 42.75 
Q 14.984375 37.109375 14.984375 27.296875 
Q 14.984375 17.484375 19.15625 11.84375 
Q 23.34375 6.203125 30.609375 6.203125 
Q 37.796875 6.203125 41.984375 11.859375 
Q 46.1875 17.53125 46.1875 27.296875 
Q 46.1875 37.015625 41.984375 42.703125 
Q 37.796875 48.390625 30.609375 48.390625 
z
M 30.609375 56 
Q 42.328125 56 49.015625 48.375 
Q 55.71875 40.765625 55.71875 27.296875 
Q 55.71875 13.875 49.015625 6.21875 
Q 42.328125 -1.421875 30.609375 -1.421875 
Q 18.84375 -1.421875 12.171875 6.21875 
Q 5.515625 13.875 5.515625 27.296875 
Q 5.515625 40.765625 12.171875 48.375 
Q 18.84375 56 30.609375 56 
z
" id="DejaVuSans-111"/>
       <path d="M 8.5 21.578125 
L 8.5 54.6875 
L 17.484375 54.6875 
L 17.484375 21.921875 
Q 17.484375 14.15625 20.5 10.265625 
Q 23.53125 6.390625 29.59375 6.390625 
Q 36.859375 6.390625 41.078125 11.03125 
Q 45.3125 15.671875 45.3125 23.6875 
L 45.3125 54.6875 
L 54.296875 54.6875 
L 54.296875 0 
L 45.3125 0 
L 45.3125 8.40625 
Q 42.046875 3.421875 37.71875 1 
Q 33.40625 -1.421875 27.6875 -1.421875 
Q 18.265625 -1.421875 13.375 4.4375 
Q 8.5 10.296875 8.5 21.578125 
z
M 31.109375 56 
z
" id="DejaVuSans-117"/>
       <path d="M 41.109375 46.296875 
Q 39.59375 47.171875 37.8125 47.578125 
Q 36.03125 48 33.890625 48 
Q 26.265625 48 22.1875 43.046875 
Q 18.109375 38.09375 18.109375 28.8125 
L 18.109375 0 
L 9.078125 0 
L 9.078125 54.6875 
L 18.109375 54.6875 
L 18.109375 46.1875 
Q 20.953125 51.171875 25.484375 53.578125 
Q 30.03125 56 36.53125 56 
Q 37.453125 56 38.578125 55.875 
Q 39.703125 55.765625 41.0625 55.515625 
z
" id="DejaVuSans-114"/>
       <path d="M 54.890625 33.015625 
L 54.890625 0 
L 45.90625 0 
L 45.90625 32.71875 
Q 45.90625 40.484375 42.875 44.328125 
Q 39.84375 48.1875 33.796875 48.1875 
Q 26.515625 48.1875 22.3125 43.546875 
Q 18.109375 38.921875 18.109375 30.90625 
L 18.109375 0 
L 9.078125 0 
L 9.078125 54.6875 
L 18.109375 54.6875 
L 18.109375 46.1875 
Q 21.34375 51.125 25.703125 53.5625 
Q 30.078125 56 35.796875 56 
Q 45.21875 56 50.046875 50.171875 
Q 54.890625 44.34375 54.890625 33.015625 
z
" id="DejaVuSans-110"/>
       <path d="M 18.3125 70.21875 
L 18.3125 54.6875 
L 36.8125 54.6875 
L 36.8125 47.703125 
L 18.3125 47.703125 
L 18.3125 18.015625 
Q 18.3125 11.328125 20.140625 9.421875 
Q 21.96875 7.515625 27.59375 7.515625 
L 36.8125 7.515625 
L 36.8125 0 
L 27.59375 0 
Q 17.1875 0 13.234375 3.875 
Q 9.28125 7.765625 9.28125 18.015625 
L 9.28125 47.703125 
L 2.6875 47.703125 
L 2.6875 54.6875 
L 9.28125 54.6875 
L 9.28125 70.21875 
z
" id="DejaVuSans-116"/>
       <path d="M 8.015625 75.875 
L 15.828125 75.875 
Q 23.140625 64.359375 26.78125 53.3125 
Q 30.421875 42.28125 30.421875 31.390625 
Q 30.421875 20.453125 26.78125 9.375 
Q 23.140625 -1.703125 15.828125 -13.1875 
L 8.015625 -13.1875 
Q 14.5 -2 17.703125 9.0625 
Q 20.90625 20.125 20.90625 31.390625 
Q 20.90625 42.671875 17.703125 53.65625 
Q 14.5 64.65625 8.015625 75.875 
z
" id="DejaVuSans-41"/>
      </defs>
      <use xlink:href="#DejaVuSans-84"/>
      <use x="57.958984" xlink:href="#DejaVuSans-105"/>
      <use x="85.742188" xlink:href="#DejaVuSans-109"/>
      <use x="183.154297" xlink:href="#DejaVuSans-101"/>
      <use x="244.677734" xlink:href="#DejaVuSans-32"/>
      <use x="276.464844" xlink:href="#DejaVuSans-40"/>
      <use x="315.478516" xlink:href="#DejaVuSans-104"/>
      <use x="378.857422" xlink:href="#DejaVuSans-111"/>
      <use x="440.039062" xlink:href="#DejaVuSans-117"/>
      <use x="503.417969" xlink:href="#DejaVuSans-114"/>
      <use x="542.78125" xlink:href="#DejaVuSans-58"/>
      <use x="576.472656" xlink:href="#DejaVuSans-109"/>
      <use x="673.884766" xlink:href="#DejaVuSans-105"/>
      <use x="701.667969" xlink:href="#DejaVuSans-110"/>
      <use x="765.046875" xlink:href="#DejaVuSans-117"/>
      <use x="828.425781" xlink:href="#DejaVuSans-116"/>
      <use x="867.634766" xlink:href="#DejaVuSans-101"/>
      <use x="929.158203" xlink:href="#DejaVuSans-41"/>
     </g>
    </g>
   </g>
   <g id="matplotlib.axis_2">
    <g id="ytick_1">
     <g id="line2d_30">
      <defs>
       <path d="M 0 0 
L -3.5 0 
" id="mdd259c31d4" style="stroke:#000000;stroke-width:0.8;"/>
      </defs>
      <g>
       <use style="stroke:#000000;stroke-width:0.8;" x="59.690625" xlink:href="#mdd259c31d4" y="255.237218"/>
      </g>
     </g>
     <g id="text_14">
      <!-- 18000 -->
      <g transform="translate(20.878125 259.036437)scale(0.1 -0.1)">
       <use xlink:href="#DejaVuSans-49"/>
       <use x="63.623047" xlink:href="#DejaVuSans-56"/>
       <use x="127.246094" xlink:href="#DejaVuSans-48"/>
       <use x="190.869141" xlink:href="#DejaVuSans-48"/>
       <use x="254.492188" xlink:href="#DejaVuSans-48"/>
      </g>
     </g>
    </g>
    <g id="ytick_2">
     <g id="line2d_31">
      <g>
       <use style="stroke:#000000;stroke-width:0.8;" x="59.690625" xlink:href="#mdd259c31d4" y="208.268571"/>
      </g>
     </g>
     <g id="text_15">
      <!-- 20000 -->
      <g transform="translate(20.878125 212.06779)scale(0.1 -0.1)">
       <use xlink:href="#DejaVuSans-50"/>
       <use x="63.623047" xlink:href="#DejaVuSans-48"/>
       <use x="127.246094" xlink:href="#DejaVuSans-48"/>
       <use x="190.869141" xlink:href="#DejaVuSans-48"/>
       <use x="254.492188" xlink:href="#DejaVuSans-48"/>
      </g>
     </g>
    </g>
    <g id="ytick_3">
     <g id="line2d_32">
      <g>
       <use style="stroke:#000000;stroke-width:0.8;" x="59.690625" xlink:href="#mdd259c31d4" y="161.299924"/>
      </g>
     </g>
     <g id="text_16">
      <!-- 22000 -->
      <g transform="translate(20.878125 165.099143)scale(0.1 -0.1)">
       <use xlink:href="#DejaVuSans-50"/>
       <use x="63.623047" xlink:href="#DejaVuSans-50"/>
       <use x="127.246094" xlink:href="#DejaVuSans-48"/>
       <use x="190.869141" xlink:href="#DejaVuSans-48"/>
       <use x="254.492188" xlink:href="#DejaVuSans-48"/>
      </g>
     </g>
    </g>
    <g id="ytick_4">
     <g id="line2d_33">
      <g>
       <use style="stroke:#000000;stroke-width:0.8;" x="59.690625" xlink:href="#mdd259c31d4" y="114.331278"/>
      </g>
     </g>
     <g id="text_17">
      <!-- 24000 -->
      <g transform="translate(20.878125 118.130496)scale(0.1 -0.1)">
       <use xlink:href="#DejaVuSans-50"/>
       <use x="63.623047" xlink:href="#DejaVuSans-52"/>
       <use x="127.246094" xlink:href="#DejaVuSans-48"/>
       <use x="190.869141" xlink:href="#DejaVuSans-48"/>
       <use x="254.492188" xlink:href="#DejaVuSans-48"/>
      </g>
     </g>
    </g>
    <g id="ytick_5">
     <g id="line2d_34">
      <g>
       <use style="stroke:#000000;stroke-width:0.8;" x="59.690625" xlink:href="#mdd259c31d4" y="67.362631"/>
      </g>
     </g>
     <g id="text_18">
      <!-- 26000 -->
      <g transform="translate(20.878125 71.161849)scale(0.1 -0.1)">
       <use xlink:href="#DejaVuSans-50"/>
       <use x="63.623047" xlink:href="#DejaVuSans-54"/>
       <use x="127.246094" xlink:href="#DejaVuSans-48"/>
       <use x="190.869141" xlink:href="#DejaVuSans-48"/>
       <use x="254.492188" xlink:href="#DejaVuSans-48"/>
      </g>
     </g>
    </g>
    <g id="text_19">
     <!-- Edge coverage -->
     <g transform="translate(14.798437 192.762406)rotate(-90)scale(0.1 -0.1)">
      <defs>
       <path d="M 9.8125 72.90625 
L 55.90625 72.90625 
L 55.90625 64.59375 
L 19.671875 64.59375 
L 19.671875 43.015625 
L 54.390625 43.015625 
L 54.390625 34.71875 
L 19.671875 34.71875 
L 19.671875 8.296875 
L 56.78125 8.296875 
L 56.78125 0 
L 9.8125 0 
z
" id="DejaVuSans-69"/>
       <path d="M 45.40625 46.390625 
L 45.40625 75.984375 
L 54.390625 75.984375 
L 54.390625 0 
L 45.40625 0 
L 45.40625 8.203125 
Q 42.578125 3.328125 38.25 0.953125 
Q 33.9375 -1.421875 27.875 -1.421875 
Q 17.96875 -1.421875 11.734375 6.484375 
Q 5.515625 14.40625 5.515625 27.296875 
Q 5.515625 40.1875 11.734375 48.09375 
Q 17.96875 56 27.875 56 
Q 33.9375 56 38.25 53.625 
Q 42.578125 51.265625 45.40625 46.390625 
z
M 14.796875 27.296875 
Q 14.796875 17.390625 18.875 11.75 
Q 22.953125 6.109375 30.078125 6.109375 
Q 37.203125 6.109375 41.296875 11.75 
Q 45.40625 17.390625 45.40625 27.296875 
Q 45.40625 37.203125 41.296875 42.84375 
Q 37.203125 48.484375 30.078125 48.484375 
Q 22.953125 48.484375 18.875 42.84375 
Q 14.796875 37.203125 14.796875 27.296875 
z
" id="DejaVuSans-100"/>
       <path d="M 45.40625 27.984375 
Q 45.40625 37.75 41.375 43.109375 
Q 37.359375 48.484375 30.078125 48.484375 
Q 22.859375 48.484375 18.828125 43.109375 
Q 14.796875 37.75 14.796875 27.984375 
Q 14.796875 18.265625 18.828125 12.890625 
Q 22.859375 7.515625 30.078125 7.515625 
Q 37.359375 7.515625 41.375 12.890625 
Q 45.40625 18.265625 45.40625 27.984375 
z
M 54.390625 6.78125 
Q 54.390625 -7.171875 48.1875 -13.984375 
Q 42 -20.796875 29.203125 -20.796875 
Q 24.46875 -20.796875 20.265625 -20.09375 
Q 16.0625 -19.390625 12.109375 -17.921875 
L 12.109375 -9.1875 
Q 16.0625 -11.328125 19.921875 -12.34375 
Q 23.78125 -13.375 27.78125 -13.375 
Q 36.625 -13.375 41.015625 -8.765625 
Q 45.40625 -4.15625 45.40625 5.171875 
L 45.40625 9.625 
Q 42.625 4.78125 38.28125 2.390625 
Q 33.9375 0 27.875 0 
Q 17.828125 0 11.671875 7.65625 
Q 5.515625 15.328125 5.515625 27.984375 
Q 5.515625 40.671875 11.671875 48.328125 
Q 17.828125 56 27.875 56 
Q 33.9375 56 38.28125 53.609375 
Q 42.625 51.21875 45.40625 46.390625 
L 45.40625 54.6875 
L 54.390625 54.6875 
z
" id="DejaVuSans-103"/>
       <path d="M 48.78125 52.59375 
L 48.78125 44.1875 
Q 44.96875 46.296875 41.140625 47.34375 
Q 37.3125 48.390625 33.40625 48.390625 
Q 24.65625 48.390625 19.8125 42.84375 
Q 14.984375 37.3125 14.984375 27.296875 
Q 14.984375 17.28125 19.8125 11.734375 
Q 24.65625 6.203125 33.40625 6.203125 
Q 37.3125 6.203125 41.140625 7.25 
Q 44.96875 8.296875 48.78125 10.40625 
L 48.78125 2.09375 
Q 45.015625 0.34375 40.984375 -0.53125 
Q 36.96875 -1.421875 32.421875 -1.421875 
Q 20.0625 -1.421875 12.78125 6.34375 
Q 5.515625 14.109375 5.515625 27.296875 
Q 5.515625 40.671875 12.859375 48.328125 
Q 20.21875 56 33.015625 56 
Q 37.15625 56 41.109375 55.140625 
Q 45.0625 54.296875 48.78125 52.59375 
z
" id="DejaVuSans-99"/>
       <path d="M 2.984375 54.6875 
L 12.5 54.6875 
L 29.59375 8.796875 
L 46.6875 54.6875 
L 56.203125 54.6875 
L 35.6875 0 
L 23.484375 0 
z
" id="DejaVuSans-118"/>
       <path d="M 34.28125 27.484375 
Q 23.390625 27.484375 19.1875 25 
Q 14.984375 22.515625 14.984375 16.5 
Q 14.984375 11.71875 18.140625 8.90625 
Q 21.296875 6.109375 26.703125 6.109375 
Q 34.1875 6.109375 38.703125 11.40625 
Q 43.21875 16.703125 43.21875 25.484375 
L 43.21875 27.484375 
z
M 52.203125 31.203125 
L 52.203125 0 
L 43.21875 0 
L 43.21875 8.296875 
Q 40.140625 3.328125 35.546875 0.953125 
Q 30.953125 -1.421875 24.3125 -1.421875 
Q 15.921875 -1.421875 10.953125 3.296875 
Q 6 8.015625 6 15.921875 
Q 6 25.140625 12.171875 29.828125 
Q 18.359375 34.515625 30.609375 34.515625 
L 43.21875 34.515625 
L 43.21875 35.40625 
Q 43.21875 41.609375 39.140625 45 
Q 35.0625 48.390625 27.6875 48.390625 
Q 23 48.390625 18.546875 47.265625 
Q 14.109375 46.140625 10.015625 43.890625 
L 10.015625 52.203125 
Q 14.9375 54.109375 19.578125 55.046875 
Q 24.21875 56 28.609375 56 
Q 40.484375 56 46.34375 49.84375 
Q 52.203125 43.703125 52.203125 31.203125 
z
" id="DejaVuSans-97"/>
      </defs>
      <use xlink:href="#DejaVuSans-69"/>
      <use x="63.183594" xlink:href="#DejaVuSans-100"/>
      <use x="126.660156" xlink:href="#DejaVuSans-103"/>
      <use x="190.136719" xlink:href="#DejaVuSans-101"/>
      <use x="251.660156" xlink:href="#DejaVuSans-32"/>
      <use x="283.447266" xlink:href="#DejaVuSans-99"/>
      <use x="338.427734" xlink:href="#DejaVuSans-111"/>
      <use x="399.609375" xlink:href="#DejaVuSans-118"/>
      <use x="458.789062" xlink:href="#DejaVuSans-101"/>
      <use x="520.3125" xlink:href="#DejaVuSans-114"/>
      <use x="561.425781" xlink:href="#DejaVuSans-97"/>
      <use x="622.705078" xlink:href="#DejaVuSans-103"/>
      <use x="686.181641" xlink:href="#DejaVuSans-101"/>
     </g>
    </g>
   </g>
   <g id="line2d_35">
    <path clip-path="url(#p751f8546da)" d="M 92.15608 265.961726 
L 191.451587 251.190086 
L 249.535735 243.581165 
L 290.747094 226.218422 
L 322.713107 217.95194 
L 348.831242 208.096353 
L 370.91381 198.381671 
L 390.042601 195.954958 
L 406.91539 191.234609 
L 422.008615 187.633679 
L 435.662097 183.852703 
L 448.126749 173.496116 
L 459.593118 169.323735 
L 470.209318 166.834397 
L 480.092763 165.503618 
L 489.338108 163.452654 
L 498.022776 159.757787 
L 506.210898 157.941666 
L 513.956197 154.982641 
L 521.304122 151.499133 
L 528.293466 150.865057 
L 534.957604 147.037112 
L 541.325458 146.363895 
L 547.422257 144.837414 
L 553.270135 143.772791 
L 558.888625 143.475323 
L 564.295046 142.222826 
L 569.504825 136.531791 
L 574.531766 134.566936 
L 579.38827 131.65488 
L 584.085515 129.799619 
L 588.633616 126.590094 
L 593.041752 123.8346 
L 597.318283 123.388398 
L 601.470838 120.883404 
L 605.506405 118.597596 
L 609.431394 113.391905 
L 613.251704 112.421219 
L 616.972774 112.076782 
L 620.599629 111.192206 
L 624.136923 110.291974 
L 627.588973 107.387746 
L 630.959791 103.692879 
L 634.253111 101.297478 
L 637.472418 100.037153 
L 640.620966 99.833622 
L 643.701797 97.641752 
L 646.717764 96.929394 
L 649.671541 95.410741 
L 652.565643 95.316804 
L 655.402431 89.985862 
L 658.184133 89.469207 
L 660.912846 88.537662 
L 663.590553 88.302819 
L 666.219125 87.246025 
L 668.800332 86.204886 
L 671.335852 85.054154 
L 673.827274 84.294828 
L 676.276105 82.431738 
L 678.683777 81.26535 
L 681.051652 80.239868 
L 683.381022 77.445234 
L 685.673121 77.249531 
L 687.929123 76.889438 
L 690.150146 70.102468 
L 692.337259 68.865627 
L 694.491483 67.503537 
L 696.61379 67.206069 
L 698.705114 66.532851 
L 700.766346 60.740052 
L 702.798339 59.088321 
L 704.801912 58.814337 
L 706.777849 58.681259 
L 708.726901 58.109807 
L 710.649791 57.945417 
L 712.547211 57.741886 
L 714.419828 57.624465 
L 716.268281 56.935591 
L 718.093186 56.708576 
L 719.895136 56.137124 
L 721.674701 55.980562 
L 723.43243 53.326833 
L 725.168853 53.060678 
L 726.88448 52.80235 
L 728.579803 52.176102 
L 730.255298 50.571339 
L 731.911422 50.070341 
L 733.548618 49.483233 
L 735.167315 49.381467 
L 736.767926 48.810015 
L 738.350849 48.770875 
L 739.916473 48.567344 
L 741.46517 48.54386 
" style="fill:none;stroke:#1f77b4;stroke-linecap:square;stroke-width:1.5;"/>
    <defs>
     <path d="M 0 3 
C 0.795609 3 1.55874 2.683901 2.12132 2.12132 
C 2.683901 1.55874 3 0.795609 3 0 
C 3 -0.795609 2.683901 -1.55874 2.12132 -2.12132 
C 1.55874 -2.683901 0.795609 -3 0 -3 
C -0.795609 -3 -1.55874 -2.683901 -2.12132 -2.12132 
C -2.683901 -1.55874 -3 -0.795609 -3 0 
C -3 0.795609 -2.683901 1.55874 -2.12132 2.12132 
C -1.55874 2.683901 -0.795609 3 0 3 
z
" id="mc02c854cfd" style="stroke:#ffffff;stroke-width:0.75;"/>
    </defs>
    <g clip-path="url(#p751f8546da)">
     <use style="fill:#1f77b4;stroke:#ffffff;stroke-width:0.75;" x="92.15608" xlink:href="#mc02c854cfd" y="265.961726"/>
     <use style="fill:#1f77b4;stroke:#ffffff;stroke-width:0.75;" x="191.451587" xlink:href="#mc02c854cfd" y="251.190086"/>
     <use style="fill:#1f77b4;stroke:#ffffff;stroke-width:0.75;" x="249.535735" xlink:href="#mc02c854cfd" y="243.581165"/>
     <use style="fill:#1f77b4;stroke:#ffffff;stroke-width:0.75;" x="290.747094" xlink:href="#mc02c854cfd" y="226.218422"/>
     <use style="fill:#1f77b4;stroke:#ffffff;stroke-width:0.75;" x="322.713107" xlink:href="#mc02c854cfd" y="217.95194"/>
     <use style="fill:#1f77b4;stroke:#ffffff;stroke-width:0.75;" x="348.831242" xlink:href="#mc02c854cfd" y="208.096353"/>
     <use style="fill:#1f77b4;stroke:#ffffff;stroke-width:0.75;" x="370.91381" xlink:href="#mc02c854cfd" y="198.381671"/>
     <use style="fill:#1f77b4;stroke:#ffffff;stroke-width:0.75;" x="390.042601" xlink:href="#mc02c854cfd" y="195.954958"/>
     <use style="fill:#1f77b4;stroke:#ffffff;stroke-width:0.75;" x="406.91539" xlink:href="#mc02c854cfd" y="191.234609"/>
     <use style="fill:#1f77b4;stroke:#ffffff;stroke-width:0.75;" x="422.008615" xlink:href="#mc02c854cfd" y="187.633679"/>
     <use style="fill:#1f77b4;stroke:#ffffff;stroke-width:0.75;" x="435.662097" xlink:href="#mc02c854cfd" y="183.852703"/>
     <use style="fill:#1f77b4;stroke:#ffffff;stroke-width:0.75;" x="448.126749" xlink:href="#mc02c854cfd" y="173.496116"/>
     <use style="fill:#1f77b4;stroke:#ffffff;stroke-width:0.75;" x="459.593118" xlink:href="#mc02c854cfd" y="169.323735"/>
     <use style="fill:#1f77b4;stroke:#ffffff;stroke-width:0.75;" x="470.209318" xlink:href="#mc02c854cfd" y="166.834397"/>
     <use style="fill:#1f77b4;stroke:#ffffff;stroke-width:0.75;" x="480.092763" xlink:href="#mc02c854cfd" y="165.503618"/>
     <use style="fill:#1f77b4;stroke:#ffffff;stroke-width:0.75;" x="489.338108" xlink:href="#mc02c854cfd" y="163.452654"/>
     <use style="fill:#1f77b4;stroke:#ffffff;stroke-width:0.75;" x="498.022776" xlink:href="#mc02c854cfd" y="159.757787"/>
     <use style="fill:#1f77b4;stroke:#ffffff;stroke-width:0.75;" x="506.210898" xlink:href="#mc02c854cfd" y="157.941666"/>
     <use style="fill:#1f77b4;stroke:#ffffff;stroke-width:0.75;" x="513.956197" xlink:href="#mc02c854cfd" y="154.982641"/>
     <use style="fill:#1f77b4;stroke:#ffffff;stroke-width:0.75;" x="521.304122" xlink:href="#mc02c854cfd" y="151.499133"/>
     <use style="fill:#1f77b4;stroke:#ffffff;stroke-width:0.75;" x="528.293466" xlink:href="#mc02c854cfd" y="150.865057"/>
     <use style="fill:#1f77b4;stroke:#ffffff;stroke-width:0.75;" x="534.957604" xlink:href="#mc02c854cfd" y="147.037112"/>
     <use style="fill:#1f77b4;stroke:#ffffff;stroke-width:0.75;" x="541.325458" xlink:href="#mc02c854cfd" y="146.363895"/>
     <use style="fill:#1f77b4;stroke:#ffffff;stroke-width:0.75;" x="547.422257" xlink:href="#mc02c854cfd" y="144.837414"/>
     <use style="fill:#1f77b4;stroke:#ffffff;stroke-width:0.75;" x="553.270135" xlink:href="#mc02c854cfd" y="143.772791"/>
     <use style="fill:#1f77b4;stroke:#ffffff;stroke-width:0.75;" x="558.888625" xlink:href="#mc02c854cfd" y="143.475323"/>
     <use style="fill:#1f77b4;stroke:#ffffff;stroke-width:0.75;" x="564.295046" xlink:href="#mc02c854cfd" y="142.222826"/>
     <use style="fill:#1f77b4;stroke:#ffffff;stroke-width:0.75;" x="569.504825" xlink:href="#mc02c854cfd" y="136.531791"/>
     <use style="fill:#1f77b4;stroke:#ffffff;stroke-width:0.75;" x="574.531766" xlink:href="#mc02c854cfd" y="134.566936"/>
     <use style="fill:#1f77b4;stroke:#ffffff;stroke-width:0.75;" x="579.38827" xlink:href="#mc02c854cfd" y="131.65488"/>
     <use style="fill:#1f77b4;stroke:#ffffff;stroke-width:0.75;" x="584.085515" xlink:href="#mc02c854cfd" y="129.799619"/>
     <use style="fill:#1f77b4;stroke:#ffffff;stroke-width:0.75;" x="588.633616" xlink:href="#mc02c854cfd" y="126.590094"/>
     <use style="fill:#1f77b4;stroke:#ffffff;stroke-width:0.75;" x="593.041752" xlink:href="#mc02c854cfd" y="123.8346"/>
     <use style="fill:#1f77b4;stroke:#ffffff;stroke-width:0.75;" x="597.318283" xlink:href="#mc02c854cfd" y="123.388398"/>
     <use style="fill:#1f77b4;stroke:#ffffff;stroke-width:0.75;" x="601.470838" xlink:href="#mc02c854cfd" y="120.883404"/>
     <use style="fill:#1f77b4;stroke:#ffffff;stroke-width:0.75;" x="605.506405" xlink:href="#mc02c854cfd" y="118.597596"/>
     <use style="fill:#1f77b4;stroke:#ffffff;stroke-width:0.75;" x="609.431394" xlink:href="#mc02c854cfd" y="113.391905"/>
     <use style="fill:#1f77b4;stroke:#ffffff;stroke-width:0.75;" x="613.251704" xlink:href="#mc02c854cfd" y="112.421219"/>
     <use style="fill:#1f77b4;stroke:#ffffff;stroke-width:0.75;" x="616.972774" xlink:href="#mc02c854cfd" y="112.076782"/>
     <use style="fill:#1f77b4;stroke:#ffffff;stroke-width:0.75;" x="620.599629" xlink:href="#mc02c854cfd" y="111.192206"/>
     <use style="fill:#1f77b4;stroke:#ffffff;stroke-width:0.75;" x="624.136923" xlink:href="#mc02c854cfd" y="110.291974"/>
     <use style="fill:#1f77b4;stroke:#ffffff;stroke-width:0.75;" x="627.588973" xlink:href="#mc02c854cfd" y="107.387746"/>
     <use style="fill:#1f77b4;stroke:#ffffff;stroke-width:0.75;" x="630.959791" xlink:href="#mc02c854cfd" y="103.692879"/>
     <use style="fill:#1f77b4;stroke:#ffffff;stroke-width:0.75;" x="634.253111" xlink:href="#mc02c854cfd" y="101.297478"/>
     <use style="fill:#1f77b4;stroke:#ffffff;stroke-width:0.75;" x="637.472418" xlink:href="#mc02c854cfd" y="100.037153"/>
     <use style="fill:#1f77b4;stroke:#ffffff;stroke-width:0.75;" x="640.620966" xlink:href="#mc02c854cfd" y="99.833622"/>
     <use style="fill:#1f77b4;stroke:#ffffff;stroke-width:0.75;" x="643.701797" xlink:href="#mc02c854cfd" y="97.641752"/>
     <use style="fill:#1f77b4;stroke:#ffffff;stroke-width:0.75;" x="646.717764" xlink:href="#mc02c854cfd" y="96.929394"/>
     <use style="fill:#1f77b4;stroke:#ffffff;stroke-width:0.75;" x="649.671541" xlink:href="#mc02c854cfd" y="95.410741"/>
     <use style="fill:#1f77b4;stroke:#ffffff;stroke-width:0.75;" x="652.565643" xlink:href="#mc02c854cfd" y="95.316804"/>
     <use style="fill:#1f77b4;stroke:#ffffff;stroke-width:0.75;" x="655.402431" xlink:href="#mc02c854cfd" y="89.985862"/>
     <use style="fill:#1f77b4;stroke:#ffffff;stroke-width:0.75;" x="658.184133" xlink:href="#mc02c854cfd" y="89.469207"/>
     <use style="fill:#1f77b4;stroke:#ffffff;stroke-width:0.75;" x="660.912846" xlink:href="#mc02c854cfd" y="88.537662"/>
     <use style="fill:#1f77b4;stroke:#ffffff;stroke-width:0.75;" x="663.590553" xlink:href="#mc02c854cfd" y="88.302819"/>
     <use style="fill:#1f77b4;stroke:#ffffff;stroke-width:0.75;" x="666.219125" xlink:href="#mc02c854cfd" y="87.246025"/>
     <use style="fill:#1f77b4;stroke:#ffffff;stroke-width:0.75;" x="668.800332" xlink:href="#mc02c854cfd" y="86.204886"/>
     <use style="fill:#1f77b4;stroke:#ffffff;stroke-width:0.75;" x="671.335852" xlink:href="#mc02c854cfd" y="85.054154"/>
     <use style="fill:#1f77b4;stroke:#ffffff;stroke-width:0.75;" x="673.827274" xlink:href="#mc02c854cfd" y="84.294828"/>
     <use style="fill:#1f77b4;stroke:#ffffff;stroke-width:0.75;" x="676.276105" xlink:href="#mc02c854cfd" y="82.431738"/>
     <use style="fill:#1f77b4;stroke:#ffffff;stroke-width:0.75;" x="678.683777" xlink:href="#mc02c854cfd" y="81.26535"/>
     <use style="fill:#1f77b4;stroke:#ffffff;stroke-width:0.75;" x="681.051652" xlink:href="#mc02c854cfd" y="80.239868"/>
     <use style="fill:#1f77b4;stroke:#ffffff;stroke-width:0.75;" x="683.381022" xlink:href="#mc02c854cfd" y="77.445234"/>
     <use style="fill:#1f77b4;stroke:#ffffff;stroke-width:0.75;" x="685.673121" xlink:href="#mc02c854cfd" y="77.249531"/>
     <use style="fill:#1f77b4;stroke:#ffffff;stroke-width:0.75;" x="687.929123" xlink:href="#mc02c854cfd" y="76.889438"/>
     <use style="fill:#1f77b4;stroke:#ffffff;stroke-width:0.75;" x="690.150146" xlink:href="#mc02c854cfd" y="70.102468"/>
     <use style="fill:#1f77b4;stroke:#ffffff;stroke-width:0.75;" x="692.337259" xlink:href="#mc02c854cfd" y="68.865627"/>
     <use style="fill:#1f77b4;stroke:#ffffff;stroke-width:0.75;" x="694.491483" xlink:href="#mc02c854cfd" y="67.503537"/>
     <use style="fill:#1f77b4;stroke:#ffffff;stroke-width:0.75;" x="696.61379" xlink:href="#mc02c854cfd" y="67.206069"/>
     <use style="fill:#1f77b4;stroke:#ffffff;stroke-width:0.75;" x="698.705114" xlink:href="#mc02c854cfd" y="66.532851"/>
     <use style="fill:#1f77b4;stroke:#ffffff;stroke-width:0.75;" x="700.766346" xlink:href="#mc02c854cfd" y="60.740052"/>
     <use style="fill:#1f77b4;stroke:#ffffff;stroke-width:0.75;" x="702.798339" xlink:href="#mc02c854cfd" y="59.088321"/>
     <use style="fill:#1f77b4;stroke:#ffffff;stroke-width:0.75;" x="704.801912" xlink:href="#mc02c854cfd" y="58.814337"/>
     <use style="fill:#1f77b4;stroke:#ffffff;stroke-width:0.75;" x="706.777849" xlink:href="#mc02c854cfd" y="58.681259"/>
     <use style="fill:#1f77b4;stroke:#ffffff;stroke-width:0.75;" x="708.726901" xlink:href="#mc02c854cfd" y="58.109807"/>
     <use style="fill:#1f77b4;stroke:#ffffff;stroke-width:0.75;" x="710.649791" xlink:href="#mc02c854cfd" y="57.945417"/>
     <use style="fill:#1f77b4;stroke:#ffffff;stroke-width:0.75;" x="712.547211" xlink:href="#mc02c854cfd" y="57.741886"/>
     <use style="fill:#1f77b4;stroke:#ffffff;stroke-width:0.75;" x="714.419828" xlink:href="#mc02c854cfd" y="57.624465"/>
     <use style="fill:#1f77b4;stroke:#ffffff;stroke-width:0.75;" x="716.268281" xlink:href="#mc02c854cfd" y="56.935591"/>
     <use style="fill:#1f77b4;stroke:#ffffff;stroke-width:0.75;" x="718.093186" xlink:href="#mc02c854cfd" y="56.708576"/>
     <use style="fill:#1f77b4;stroke:#ffffff;stroke-width:0.75;" x="719.895136" xlink:href="#mc02c854cfd" y="56.137124"/>
     <use style="fill:#1f77b4;stroke:#ffffff;stroke-width:0.75;" x="721.674701" xlink:href="#mc02c854cfd" y="55.980562"/>
     <use style="fill:#1f77b4;stroke:#ffffff;stroke-width:0.75;" x="723.43243" xlink:href="#mc02c854cfd" y="53.326833"/>
     <use style="fill:#1f77b4;stroke:#ffffff;stroke-width:0.75;" x="725.168853" xlink:href="#mc02c854cfd" y="53.060678"/>
     <use style="fill:#1f77b4;stroke:#ffffff;stroke-width:0.75;" x="726.88448" xlink:href="#mc02c854cfd" y="52.80235"/>
     <use style="fill:#1f77b4;stroke:#ffffff;stroke-width:0.75;" x="728.579803" xlink:href="#mc02c854cfd" y="52.176102"/>
     <use style="fill:#1f77b4;stroke:#ffffff;stroke-width:0.75;" x="730.255298" xlink:href="#mc02c854cfd" y="50.571339"/>
     <use style="fill:#1f77b4;stroke:#ffffff;stroke-width:0.75;" x="731.911422" xlink:href="#mc02c854cfd" y="50.070341"/>
     <use style="fill:#1f77b4;stroke:#ffffff;stroke-width:0.75;" x="733.548618" xlink:href="#mc02c854cfd" y="49.483233"/>
     <use style="fill:#1f77b4;stroke:#ffffff;stroke-width:0.75;" x="735.167315" xlink:href="#mc02c854cfd" y="49.381467"/>
     <use style="fill:#1f77b4;stroke:#ffffff;stroke-width:0.75;" x="736.767926" xlink:href="#mc02c854cfd" y="48.810015"/>
     <use style="fill:#1f77b4;stroke:#ffffff;stroke-width:0.75;" x="738.350849" xlink:href="#mc02c854cfd" y="48.770875"/>
     <use style="fill:#1f77b4;stroke:#ffffff;stroke-width:0.75;" x="739.916473" xlink:href="#mc02c854cfd" y="48.567344"/>
     <use style="fill:#1f77b4;stroke:#ffffff;stroke-width:0.75;" x="741.46517" xlink:href="#mc02c854cfd" y="48.54386"/>
    </g>
   </g>
   <g id="line2d_36">
    <path clip-path="url(#p751f8546da)" d="M 92.15608 267.373916 
L 191.451587 253.034388 
L 249.535735 247.050583 
L 290.747094 226.929214 
L 322.713107 219.606802 
L 348.831242 215.083722 
L 370.91381 210.776697 
L 390.042601 208.94492 
L 406.91539 205.323637 
L 422.008615 199.288166 
L 435.662097 197.198061 
L 448.126749 190.481545 
L 459.593118 187.874785 
L 470.209318 184.446073 
L 480.092763 182.139913 
L 489.338108 179.922993 
L 498.022776 178.889683 
L 506.210898 176.564735 
L 513.956197 173.821766 
L 521.304122 170.068971 
L 528.293466 167.767507 
L 534.957604 164.789695 
L 541.325458 159.76405 
L 547.422257 158.702558 
L 553.270135 155.316119 
L 558.888625 153.108592 
L 564.295046 147.805832 
L 569.504825 142.845943 
L 574.531766 141.314765 
L 579.38827 140.39418 
L 584.085515 137.824995 
L 588.633616 136.566235 
L 593.041752 134.837789 
L 597.318283 130.35698 
L 601.470838 129.450485 
L 605.506405 126.040561 
L 609.431394 125.199822 
L 613.251704 122.283069 
L 616.972774 120.474777 
L 620.599629 120.103724 
L 624.136923 119.262985 
L 627.588973 118.286038 
L 630.959791 117.722414 
L 634.253111 111.442706 
L 637.472418 111.123319 
L 640.620966 109.920922 
L 643.701797 108.013995 
L 646.717764 107.285981 
L 649.671541 106.914928 
L 652.565643 106.431151 
L 655.402431 104.016963 
L 658.184133 102.13352 
L 660.912846 101.020363 
L 663.590553 98.794049 
L 666.219125 97.38499 
L 668.800332 95.478063 
L 671.335852 95.130495 
L 673.827274 94.618536 
L 676.276105 91.462243 
L 678.683777 91.025435 
L 681.051652 90.546355 
L 683.381022 87.225671 
L 685.673121 87.051887 
L 687.929123 84.633002 
L 690.150146 84.163316 
L 692.337259 81.171413 
L 694.491483 78.282841 
L 696.61379 77.207259 
L 698.705114 74.600499 
L 700.766346 73.177349 
L 702.798339 72.984778 
L 704.801912 71.744805 
L 706.777849 71.350269 
L 708.726901 70.791342 
L 710.649791 70.241809 
L 712.547211 68.36776 
L 714.419828 68.193976 
L 716.268281 67.381418 
L 718.093186 66.103871 
L 719.895136 65.375857 
L 721.674701 64.243913 
L 723.43243 63.919829 
L 725.168853 62.19608 
L 726.88448 61.871996 
L 728.579803 61.237919 
L 730.255298 60.998379 
L 731.911422 60.857473 
L 733.548618 60.664902 
L 735.167315 58.217835 
L 736.767926 57.945417 
L 738.350849 55.869403 
L 739.916473 55.113208 
L 741.46517 66.059251 
" style="fill:none;stroke:#98df8a;stroke-linecap:square;stroke-width:1.5;"/>
    <defs>
     <path d="M -0 3 
L 3 -3 
L -3 -3 
z
" id="meee44b28e7" style="stroke:#ffffff;stroke-linejoin:miter;stroke-width:0.75;"/>
    </defs>
    <g clip-path="url(#p751f8546da)">
     <use style="fill:#98df8a;stroke:#ffffff;stroke-linejoin:miter;stroke-width:0.75;" x="92.15608" xlink:href="#meee44b28e7" y="267.373916"/>
     <use style="fill:#98df8a;stroke:#ffffff;stroke-linejoin:miter;stroke-width:0.75;" x="191.451587" xlink:href="#meee44b28e7" y="253.034388"/>
     <use style="fill:#98df8a;stroke:#ffffff;stroke-linejoin:miter;stroke-width:0.75;" x="249.535735" xlink:href="#meee44b28e7" y="247.050583"/>
     <use style="fill:#98df8a;stroke:#ffffff;stroke-linejoin:miter;stroke-width:0.75;" x="290.747094" xlink:href="#meee44b28e7" y="226.929214"/>
     <use style="fill:#98df8a;stroke:#ffffff;stroke-linejoin:miter;stroke-width:0.75;" x="322.713107" xlink:href="#meee44b28e7" y="219.606802"/>
     <use style="fill:#98df8a;stroke:#ffffff;stroke-linejoin:miter;stroke-width:0.75;" x="348.831242" xlink:href="#meee44b28e7" y="215.083722"/>
     <use style="fill:#98df8a;stroke:#ffffff;stroke-linejoin:miter;stroke-width:0.75;" x="370.91381" xlink:href="#meee44b28e7" y="210.776697"/>
     <use style="fill:#98df8a;stroke:#ffffff;stroke-linejoin:miter;stroke-width:0.75;" x="390.042601" xlink:href="#meee44b28e7" y="208.94492"/>
     <use style="fill:#98df8a;stroke:#ffffff;stroke-linejoin:miter;stroke-width:0.75;" x="406.91539" xlink:href="#meee44b28e7" y="205.323637"/>
     <use style="fill:#98df8a;stroke:#ffffff;stroke-linejoin:miter;stroke-width:0.75;" x="422.008615" xlink:href="#meee44b28e7" y="199.288166"/>
     <use style="fill:#98df8a;stroke:#ffffff;stroke-linejoin:miter;stroke-width:0.75;" x="435.662097" xlink:href="#meee44b28e7" y="197.198061"/>
     <use style="fill:#98df8a;stroke:#ffffff;stroke-linejoin:miter;stroke-width:0.75;" x="448.126749" xlink:href="#meee44b28e7" y="190.481545"/>
     <use style="fill:#98df8a;stroke:#ffffff;stroke-linejoin:miter;stroke-width:0.75;" x="459.593118" xlink:href="#meee44b28e7" y="187.874785"/>
     <use style="fill:#98df8a;stroke:#ffffff;stroke-linejoin:miter;stroke-width:0.75;" x="470.209318" xlink:href="#meee44b28e7" y="184.446073"/>
     <use style="fill:#98df8a;stroke:#ffffff;stroke-linejoin:miter;stroke-width:0.75;" x="480.092763" xlink:href="#meee44b28e7" y="182.139913"/>
     <use style="fill:#98df8a;stroke:#ffffff;stroke-linejoin:miter;stroke-width:0.75;" x="489.338108" xlink:href="#meee44b28e7" y="179.922993"/>
     <use style="fill:#98df8a;stroke:#ffffff;stroke-linejoin:miter;stroke-width:0.75;" x="498.022776" xlink:href="#meee44b28e7" y="178.889683"/>
     <use style="fill:#98df8a;stroke:#ffffff;stroke-linejoin:miter;stroke-width:0.75;" x="506.210898" xlink:href="#meee44b28e7" y="176.564735"/>
     <use style="fill:#98df8a;stroke:#ffffff;stroke-linejoin:miter;stroke-width:0.75;" x="513.956197" xlink:href="#meee44b28e7" y="173.821766"/>
     <use style="fill:#98df8a;stroke:#ffffff;stroke-linejoin:miter;stroke-width:0.75;" x="521.304122" xlink:href="#meee44b28e7" y="170.068971"/>
     <use style="fill:#98df8a;stroke:#ffffff;stroke-linejoin:miter;stroke-width:0.75;" x="528.293466" xlink:href="#meee44b28e7" y="167.767507"/>
     <use style="fill:#98df8a;stroke:#ffffff;stroke-linejoin:miter;stroke-width:0.75;" x="534.957604" xlink:href="#meee44b28e7" y="164.789695"/>
     <use style="fill:#98df8a;stroke:#ffffff;stroke-linejoin:miter;stroke-width:0.75;" x="541.325458" xlink:href="#meee44b28e7" y="159.76405"/>
     <use style="fill:#98df8a;stroke:#ffffff;stroke-linejoin:miter;stroke-width:0.75;" x="547.422257" xlink:href="#meee44b28e7" y="158.702558"/>
     <use style="fill:#98df8a;stroke:#ffffff;stroke-linejoin:miter;stroke-width:0.75;" x="553.270135" xlink:href="#meee44b28e7" y="155.316119"/>
     <use style="fill:#98df8a;stroke:#ffffff;stroke-linejoin:miter;stroke-width:0.75;" x="558.888625" xlink:href="#meee44b28e7" y="153.108592"/>
     <use style="fill:#98df8a;stroke:#ffffff;stroke-linejoin:miter;stroke-width:0.75;" x="564.295046" xlink:href="#meee44b28e7" y="147.805832"/>
     <use style="fill:#98df8a;stroke:#ffffff;stroke-linejoin:miter;stroke-width:0.75;" x="569.504825" xlink:href="#meee44b28e7" y="142.845943"/>
     <use style="fill:#98df8a;stroke:#ffffff;stroke-linejoin:miter;stroke-width:0.75;" x="574.531766" xlink:href="#meee44b28e7" y="141.314765"/>
     <use style="fill:#98df8a;stroke:#ffffff;stroke-linejoin:miter;stroke-width:0.75;" x="579.38827" xlink:href="#meee44b28e7" y="140.39418"/>
     <use style="fill:#98df8a;stroke:#ffffff;stroke-linejoin:miter;stroke-width:0.75;" x="584.085515" xlink:href="#meee44b28e7" y="137.824995"/>
     <use style="fill:#98df8a;stroke:#ffffff;stroke-linejoin:miter;stroke-width:0.75;" x="588.633616" xlink:href="#meee44b28e7" y="136.566235"/>
     <use style="fill:#98df8a;stroke:#ffffff;stroke-linejoin:miter;stroke-width:0.75;" x="593.041752" xlink:href="#meee44b28e7" y="134.837789"/>
     <use style="fill:#98df8a;stroke:#ffffff;stroke-linejoin:miter;stroke-width:0.75;" x="597.318283" xlink:href="#meee44b28e7" y="130.35698"/>
     <use style="fill:#98df8a;stroke:#ffffff;stroke-linejoin:miter;stroke-width:0.75;" x="601.470838" xlink:href="#meee44b28e7" y="129.450485"/>
     <use style="fill:#98df8a;stroke:#ffffff;stroke-linejoin:miter;stroke-width:0.75;" x="605.506405" xlink:href="#meee44b28e7" y="126.040561"/>
     <use style="fill:#98df8a;stroke:#ffffff;stroke-linejoin:miter;stroke-width:0.75;" x="609.431394" xlink:href="#meee44b28e7" y="125.199822"/>
     <use style="fill:#98df8a;stroke:#ffffff;stroke-linejoin:miter;stroke-width:0.75;" x="613.251704" xlink:href="#meee44b28e7" y="122.283069"/>
     <use style="fill:#98df8a;stroke:#ffffff;stroke-linejoin:miter;stroke-width:0.75;" x="616.972774" xlink:href="#meee44b28e7" y="120.474777"/>
     <use style="fill:#98df8a;stroke:#ffffff;stroke-linejoin:miter;stroke-width:0.75;" x="620.599629" xlink:href="#meee44b28e7" y="120.103724"/>
     <use style="fill:#98df8a;stroke:#ffffff;stroke-linejoin:miter;stroke-width:0.75;" x="624.136923" xlink:href="#meee44b28e7" y="119.262985"/>
     <use style="fill:#98df8a;stroke:#ffffff;stroke-linejoin:miter;stroke-width:0.75;" x="627.588973" xlink:href="#meee44b28e7" y="118.286038"/>
     <use style="fill:#98df8a;stroke:#ffffff;stroke-linejoin:miter;stroke-width:0.75;" x="630.959791" xlink:href="#meee44b28e7" y="117.722414"/>
     <use style="fill:#98df8a;stroke:#ffffff;stroke-linejoin:miter;stroke-width:0.75;" x="634.253111" xlink:href="#meee44b28e7" y="111.442706"/>
     <use style="fill:#98df8a;stroke:#ffffff;stroke-linejoin:miter;stroke-width:0.75;" x="637.472418" xlink:href="#meee44b28e7" y="111.123319"/>
     <use style="fill:#98df8a;stroke:#ffffff;stroke-linejoin:miter;stroke-width:0.75;" x="640.620966" xlink:href="#meee44b28e7" y="109.920922"/>
     <use style="fill:#98df8a;stroke:#ffffff;stroke-linejoin:miter;stroke-width:0.75;" x="643.701797" xlink:href="#meee44b28e7" y="108.013995"/>
     <use style="fill:#98df8a;stroke:#ffffff;stroke-linejoin:miter;stroke-width:0.75;" x="646.717764" xlink:href="#meee44b28e7" y="107.285981"/>
     <use style="fill:#98df8a;stroke:#ffffff;stroke-linejoin:miter;stroke-width:0.75;" x="649.671541" xlink:href="#meee44b28e7" y="106.914928"/>
     <use style="fill:#98df8a;stroke:#ffffff;stroke-linejoin:miter;stroke-width:0.75;" x="652.565643" xlink:href="#meee44b28e7" y="106.431151"/>
     <use style="fill:#98df8a;stroke:#ffffff;stroke-linejoin:miter;stroke-width:0.75;" x="655.402431" xlink:href="#meee44b28e7" y="104.016963"/>
     <use style="fill:#98df8a;stroke:#ffffff;stroke-linejoin:miter;stroke-width:0.75;" x="658.184133" xlink:href="#meee44b28e7" y="102.13352"/>
     <use style="fill:#98df8a;stroke:#ffffff;stroke-linejoin:miter;stroke-width:0.75;" x="660.912846" xlink:href="#meee44b28e7" y="101.020363"/>
     <use style="fill:#98df8a;stroke:#ffffff;stroke-linejoin:miter;stroke-width:0.75;" x="663.590553" xlink:href="#meee44b28e7" y="98.794049"/>
     <use style="fill:#98df8a;stroke:#ffffff;stroke-linejoin:miter;stroke-width:0.75;" x="666.219125" xlink:href="#meee44b28e7" y="97.38499"/>
     <use style="fill:#98df8a;stroke:#ffffff;stroke-linejoin:miter;stroke-width:0.75;" x="668.800332" xlink:href="#meee44b28e7" y="95.478063"/>
     <use style="fill:#98df8a;stroke:#ffffff;stroke-linejoin:miter;stroke-width:0.75;" x="671.335852" xlink:href="#meee44b28e7" y="95.130495"/>
     <use style="fill:#98df8a;stroke:#ffffff;stroke-linejoin:miter;stroke-width:0.75;" x="673.827274" xlink:href="#meee44b28e7" y="94.618536"/>
     <use style="fill:#98df8a;stroke:#ffffff;stroke-linejoin:miter;stroke-width:0.75;" x="676.276105" xlink:href="#meee44b28e7" y="91.462243"/>
     <use style="fill:#98df8a;stroke:#ffffff;stroke-linejoin:miter;stroke-width:0.75;" x="678.683777" xlink:href="#meee44b28e7" y="91.025435"/>
     <use style="fill:#98df8a;stroke:#ffffff;stroke-linejoin:miter;stroke-width:0.75;" x="681.051652" xlink:href="#meee44b28e7" y="90.546355"/>
     <use style="fill:#98df8a;stroke:#ffffff;stroke-linejoin:miter;stroke-width:0.75;" x="683.381022" xlink:href="#meee44b28e7" y="87.225671"/>
     <use style="fill:#98df8a;stroke:#ffffff;stroke-linejoin:miter;stroke-width:0.75;" x="685.673121" xlink:href="#meee44b28e7" y="87.051887"/>
     <use style="fill:#98df8a;stroke:#ffffff;stroke-linejoin:miter;stroke-width:0.75;" x="687.929123" xlink:href="#meee44b28e7" y="84.633002"/>
     <use style="fill:#98df8a;stroke:#ffffff;stroke-linejoin:miter;stroke-width:0.75;" x="690.150146" xlink:href="#meee44b28e7" y="84.163316"/>
     <use style="fill:#98df8a;stroke:#ffffff;stroke-linejoin:miter;stroke-width:0.75;" x="692.337259" xlink:href="#meee44b28e7" y="81.171413"/>
     <use style="fill:#98df8a;stroke:#ffffff;stroke-linejoin:miter;stroke-width:0.75;" x="694.491483" xlink:href="#meee44b28e7" y="78.282841"/>
     <use style="fill:#98df8a;stroke:#ffffff;stroke-linejoin:miter;stroke-width:0.75;" x="696.61379" xlink:href="#meee44b28e7" y="77.207259"/>
     <use style="fill:#98df8a;stroke:#ffffff;stroke-linejoin:miter;stroke-width:0.75;" x="698.705114" xlink:href="#meee44b28e7" y="74.600499"/>
     <use style="fill:#98df8a;stroke:#ffffff;stroke-linejoin:miter;stroke-width:0.75;" x="700.766346" xlink:href="#meee44b28e7" y="73.177349"/>
     <use style="fill:#98df8a;stroke:#ffffff;stroke-linejoin:miter;stroke-width:0.75;" x="702.798339" xlink:href="#meee44b28e7" y="72.984778"/>
     <use style="fill:#98df8a;stroke:#ffffff;stroke-linejoin:miter;stroke-width:0.75;" x="704.801912" xlink:href="#meee44b28e7" y="71.744805"/>
     <use style="fill:#98df8a;stroke:#ffffff;stroke-linejoin:miter;stroke-width:0.75;" x="706.777849" xlink:href="#meee44b28e7" y="71.350269"/>
     <use style="fill:#98df8a;stroke:#ffffff;stroke-linejoin:miter;stroke-width:0.75;" x="708.726901" xlink:href="#meee44b28e7" y="70.791342"/>
     <use style="fill:#98df8a;stroke:#ffffff;stroke-linejoin:miter;stroke-width:0.75;" x="710.649791" xlink:href="#meee44b28e7" y="70.241809"/>
     <use style="fill:#98df8a;stroke:#ffffff;stroke-linejoin:miter;stroke-width:0.75;" x="712.547211" xlink:href="#meee44b28e7" y="68.36776"/>
     <use style="fill:#98df8a;stroke:#ffffff;stroke-linejoin:miter;stroke-width:0.75;" x="714.419828" xlink:href="#meee44b28e7" y="68.193976"/>
     <use style="fill:#98df8a;stroke:#ffffff;stroke-linejoin:miter;stroke-width:0.75;" x="716.268281" xlink:href="#meee44b28e7" y="67.381418"/>
     <use style="fill:#98df8a;stroke:#ffffff;stroke-linejoin:miter;stroke-width:0.75;" x="718.093186" xlink:href="#meee44b28e7" y="66.103871"/>
     <use style="fill:#98df8a;stroke:#ffffff;stroke-linejoin:miter;stroke-width:0.75;" x="719.895136" xlink:href="#meee44b28e7" y="65.375857"/>
     <use style="fill:#98df8a;stroke:#ffffff;stroke-linejoin:miter;stroke-width:0.75;" x="721.674701" xlink:href="#meee44b28e7" y="64.243913"/>
     <use style="fill:#98df8a;stroke:#ffffff;stroke-linejoin:miter;stroke-width:0.75;" x="723.43243" xlink:href="#meee44b28e7" y="63.919829"/>
     <use style="fill:#98df8a;stroke:#ffffff;stroke-linejoin:miter;stroke-width:0.75;" x="725.168853" xlink:href="#meee44b28e7" y="62.19608"/>
     <use style="fill:#98df8a;stroke:#ffffff;stroke-linejoin:miter;stroke-width:0.75;" x="726.88448" xlink:href="#meee44b28e7" y="61.871996"/>
     <use style="fill:#98df8a;stroke:#ffffff;stroke-linejoin:miter;stroke-width:0.75;" x="728.579803" xlink:href="#meee44b28e7" y="61.237919"/>
     <use style="fill:#98df8a;stroke:#ffffff;stroke-linejoin:miter;stroke-width:0.75;" x="730.255298" xlink:href="#meee44b28e7" y="60.998379"/>
     <use style="fill:#98df8a;stroke:#ffffff;stroke-linejoin:miter;stroke-width:0.75;" x="731.911422" xlink:href="#meee44b28e7" y="60.857473"/>
     <use style="fill:#98df8a;stroke:#ffffff;stroke-linejoin:miter;stroke-width:0.75;" x="733.548618" xlink:href="#meee44b28e7" y="60.664902"/>
     <use style="fill:#98df8a;stroke:#ffffff;stroke-linejoin:miter;stroke-width:0.75;" x="735.167315" xlink:href="#meee44b28e7" y="58.217835"/>
     <use style="fill:#98df8a;stroke:#ffffff;stroke-linejoin:miter;stroke-width:0.75;" x="736.767926" xlink:href="#meee44b28e7" y="57.945417"/>
     <use style="fill:#98df8a;stroke:#ffffff;stroke-linejoin:miter;stroke-width:0.75;" x="738.350849" xlink:href="#meee44b28e7" y="55.869403"/>
     <use style="fill:#98df8a;stroke:#ffffff;stroke-linejoin:miter;stroke-width:0.75;" x="739.916473" xlink:href="#meee44b28e7" y="55.113208"/>
     <use style="fill:#98df8a;stroke:#ffffff;stroke-linejoin:miter;stroke-width:0.75;" x="741.46517" xlink:href="#meee44b28e7" y="66.059251"/>
    </g>
   </g>
   <g id="line2d_37"/>
   <g id="line2d_38"/>
   <g id="line2d_39"/>
   <g id="line2d_40">
    <path clip-path="url(#p751f8546da)" d="M 741.46517 288.430125 
L 741.46517 22.318125 
" style="fill:none;stroke:#ff0000;stroke-linecap:square;stroke-width:1.5;"/>
   </g>
   <g id="patch_3">
    <path d="M 59.690625 255.237218 
L 59.690625 67.362631 
" style="fill:none;stroke:#000000;stroke-linecap:square;stroke-linejoin:miter;stroke-width:0.8;"/>
   </g>
   <g id="patch_4">
    <path d="M 92.15608 288.430125 
L 741.466882 288.430125 
" style="fill:none;stroke:#000000;stroke-linecap:square;stroke-linejoin:miter;stroke-width:0.8;"/>
   </g>
   <g id="text_20">
    <!-- sqlite3_ossfuzz (23h:15m, 2 trials/fuzzer) -->
    <g transform="translate(293.132813 16.318125)scale(0.12 -0.12)">
     <defs>
      <path d="M 44.28125 53.078125 
L 44.28125 44.578125 
Q 40.484375 46.53125 36.375 47.5 
Q 32.28125 48.484375 27.875 48.484375 
Q 21.1875 48.484375 17.84375 46.4375 
Q 14.5 44.390625 14.5 40.28125 
Q 14.5 37.15625 16.890625 35.375 
Q 19.28125 33.59375 26.515625 31.984375 
L 29.59375 31.296875 
Q 39.15625 29.25 43.1875 25.515625 
Q 47.21875 21.78125 47.21875 15.09375 
Q 47.21875 7.46875 41.1875 3.015625 
Q 35.15625 -1.421875 24.609375 -1.421875 
Q 20.21875 -1.421875 15.453125 -0.5625 
Q 10.6875 0.296875 5.421875 2 
L 5.421875 11.28125 
Q 10.40625 8.6875 15.234375 7.390625 
Q 20.0625 6.109375 24.8125 6.109375 
Q 31.15625 6.109375 34.5625 8.28125 
Q 37.984375 10.453125 37.984375 14.40625 
Q 37.984375 18.0625 35.515625 20.015625 
Q 33.0625 21.96875 24.703125 23.78125 
L 21.578125 24.515625 
Q 13.234375 26.265625 9.515625 29.90625 
Q 5.8125 33.546875 5.8125 39.890625 
Q 5.8125 47.609375 11.28125 51.796875 
Q 16.75 56 26.8125 56 
Q 31.78125 56 36.171875 55.265625 
Q 40.578125 54.546875 44.28125 53.078125 
z
" id="DejaVuSans-115"/>
      <path d="M 14.796875 27.296875 
Q 14.796875 17.390625 18.875 11.75 
Q 22.953125 6.109375 30.078125 6.109375 
Q 37.203125 6.109375 41.296875 11.75 
Q 45.40625 17.390625 45.40625 27.296875 
Q 45.40625 37.203125 41.296875 42.84375 
Q 37.203125 48.484375 30.078125 48.484375 
Q 22.953125 48.484375 18.875 42.84375 
Q 14.796875 37.203125 14.796875 27.296875 
z
M 45.40625 8.203125 
Q 42.578125 3.328125 38.25 0.953125 
Q 33.9375 -1.421875 27.875 -1.421875 
Q 17.96875 -1.421875 11.734375 6.484375 
Q 5.515625 14.40625 5.515625 27.296875 
Q 5.515625 40.1875 11.734375 48.09375 
Q 17.96875 56 27.875 56 
Q 33.9375 56 38.25 53.625 
Q 42.578125 51.265625 45.40625 46.390625 
L 45.40625 54.6875 
L 54.390625 54.6875 
L 54.390625 -20.796875 
L 45.40625 -20.796875 
z
" id="DejaVuSans-113"/>
      <path d="M 9.421875 75.984375 
L 18.40625 75.984375 
L 18.40625 0 
L 9.421875 0 
z
" id="DejaVuSans-108"/>
      <path d="M 50.984375 -16.609375 
L 50.984375 -23.578125 
L -0.984375 -23.578125 
L -0.984375 -16.609375 
z
" id="DejaVuSans-95"/>
      <path d="M 37.109375 75.984375 
L 37.109375 68.5 
L 28.515625 68.5 
Q 23.6875 68.5 21.796875 66.546875 
Q 19.921875 64.59375 19.921875 59.515625 
L 19.921875 54.6875 
L 34.71875 54.6875 
L 34.71875 47.703125 
L 19.921875 47.703125 
L 19.921875 0 
L 10.890625 0 
L 10.890625 47.703125 
L 2.296875 47.703125 
L 2.296875 54.6875 
L 10.890625 54.6875 
L 10.890625 58.5 
Q 10.890625 67.625 15.140625 71.796875 
Q 19.390625 75.984375 28.609375 75.984375 
z
" id="DejaVuSans-102"/>
      <path d="M 5.515625 54.6875 
L 48.1875 54.6875 
L 48.1875 46.484375 
L 14.40625 7.171875 
L 48.1875 7.171875 
L 48.1875 0 
L 4.296875 0 
L 4.296875 8.203125 
L 38.09375 47.515625 
L 5.515625 47.515625 
z
" id="DejaVuSans-122"/>
      <path d="M 11.71875 12.40625 
L 22.015625 12.40625 
L 22.015625 4 
L 14.015625 -11.625 
L 7.71875 -11.625 
L 11.71875 4 
z
" id="DejaVuSans-44"/>
      <path d="M 25.390625 72.90625 
L 33.6875 72.90625 
L 8.296875 -9.28125 
L 0 -9.28125 
z
" id="DejaVuSans-47"/>
     </defs>
     <use xlink:href="#DejaVuSans-115"/>
     <use x="52.099609" xlink:href="#DejaVuSans-113"/>
     <use x="115.576172" xlink:href="#DejaVuSans-108"/>
     <use x="143.359375" xlink:href="#DejaVuSans-105"/>
     <use x="171.142578" xlink:href="#DejaVuSans-116"/>
     <use x="210.351562" xlink:href="#DejaVuSans-101"/>
     <use x="271.875" xlink:href="#DejaVuSans-51"/>
     <use x="335.498047" xlink:href="#DejaVuSans-95"/>
     <use x="385.498047" xlink:href="#DejaVuSans-111"/>
     <use x="446.679688" xlink:href="#DejaVuSans-115"/>
     <use x="498.779297" xlink:href="#DejaVuSans-115"/>
     <use x="550.878906" xlink:href="#DejaVuSans-102"/>
     <use x="586.083984" xlink:href="#DejaVuSans-117"/>
     <use x="649.462891" xlink:href="#DejaVuSans-122"/>
     <use x="701.953125" xlink:href="#DejaVuSans-122"/>
     <use x="754.443359" xlink:href="#DejaVuSans-32"/>
     <use x="786.230469" xlink:href="#DejaVuSans-40"/>
     <use x="825.244141" xlink:href="#DejaVuSans-50"/>
     <use x="888.867188" xlink:href="#DejaVuSans-51"/>
     <use x="952.490234" xlink:href="#DejaVuSans-104"/>
     <use x="1015.869141" xlink:href="#DejaVuSans-58"/>
     <use x="1049.560547" xlink:href="#DejaVuSans-49"/>
     <use x="1113.183594" xlink:href="#DejaVuSans-53"/>
     <use x="1176.806641" xlink:href="#DejaVuSans-109"/>
     <use x="1274.21875" xlink:href="#DejaVuSans-44"/>
     <use x="1306.005859" xlink:href="#DejaVuSans-32"/>
     <use x="1337.792969" xlink:href="#DejaVuSans-50"/>
     <use x="1401.416016" xlink:href="#DejaVuSans-32"/>
     <use x="1433.203125" xlink:href="#DejaVuSans-116"/>
     <use x="1472.412109" xlink:href="#DejaVuSans-114"/>
     <use x="1513.525391" xlink:href="#DejaVuSans-105"/>
     <use x="1541.308594" xlink:href="#DejaVuSans-97"/>
     <use x="1602.587891" xlink:href="#DejaVuSans-108"/>
     <use x="1630.371094" xlink:href="#DejaVuSans-115"/>
     <use x="1682.470703" xlink:href="#DejaVuSans-47"/>
     <use x="1716.162109" xlink:href="#DejaVuSans-102"/>
     <use x="1751.367188" xlink:href="#DejaVuSans-117"/>
     <use x="1814.746094" xlink:href="#DejaVuSans-122"/>
     <use x="1867.236328" xlink:href="#DejaVuSans-122"/>
     <use x="1919.726562" xlink:href="#DejaVuSans-101"/>
     <use x="1981.25" xlink:href="#DejaVuSans-114"/>
     <use x="2022.363281" xlink:href="#DejaVuSans-41"/>
    </g>
   </g>
   <g id="legend_1">
    <g id="line2d_41">
     <path d="M 777.930625 30.416562 
L 797.930625 30.416562 
" style="fill:none;"/>
    </g>
    <g id="line2d_42"/>
    <g id="text_21">
     <!-- fuzzer -->
     <g transform="translate(805.930625 33.916562)scale(0.1 -0.1)">
      <use xlink:href="#DejaVuSans-102"/>
      <use x="35.205078" xlink:href="#DejaVuSans-117"/>
      <use x="98.583984" xlink:href="#DejaVuSans-122"/>
      <use x="151.074219" xlink:href="#DejaVuSans-122"/>
      <use x="203.564453" xlink:href="#DejaVuSans-101"/>
      <use x="265.087891" xlink:href="#DejaVuSans-114"/>
     </g>
    </g>
    <g id="line2d_43">
     <path d="M 777.930625 45.094688 
L 797.930625 45.094688 
" style="fill:none;stroke:#1f77b4;stroke-linecap:square;stroke-width:1.5;"/>
    </g>
    <g id="line2d_44">
     <defs>
      <path d="M 0 3 
C 0.795609 3 1.55874 2.683901 2.12132 2.12132 
C 2.683901 1.55874 3 0.795609 3 0 
C 3 -0.795609 2.683901 -1.55874 2.12132 -2.12132 
C 1.55874 -2.683901 0.795609 -3 0 -3 
C -0.795609 -3 -1.55874 -2.683901 -2.12132 -2.12132 
C -2.683901 -1.55874 -3 -0.795609 -3 0 
C -3 0.795609 -2.683901 1.55874 -2.12132 2.12132 
C -1.55874 2.683901 -0.795609 3 0 3 
z
" id="m2aabc1228b" style="stroke:#1f77b4;"/>
     </defs>
     <g>
      <use style="fill:#1f77b4;stroke:#1f77b4;" x="787.930625" xlink:href="#m2aabc1228b" y="45.094688"/>
     </g>
    </g>
    <g id="text_22">
     <!-- afldark_dev -->
     <g transform="translate(805.930625 48.594688)scale(0.1 -0.1)">
      <defs>
       <path d="M 9.078125 75.984375 
L 18.109375 75.984375 
L 18.109375 31.109375 
L 44.921875 54.6875 
L 56.390625 54.6875 
L 27.390625 29.109375 
L 57.625 0 
L 45.90625 0 
L 18.109375 26.703125 
L 18.109375 0 
L 9.078125 0 
z
" id="DejaVuSans-107"/>
      </defs>
      <use xlink:href="#DejaVuSans-97"/>
      <use x="61.279297" xlink:href="#DejaVuSans-102"/>
      <use x="96.484375" xlink:href="#DejaVuSans-108"/>
      <use x="124.267578" xlink:href="#DejaVuSans-100"/>
      <use x="187.744141" xlink:href="#DejaVuSans-97"/>
      <use x="249.023438" xlink:href="#DejaVuSans-114"/>
      <use x="290.136719" xlink:href="#DejaVuSans-107"/>
      <use x="348.046875" xlink:href="#DejaVuSans-95"/>
      <use x="398.046875" xlink:href="#DejaVuSans-100"/>
      <use x="461.523438" xlink:href="#DejaVuSans-101"/>
      <use x="523.046875" xlink:href="#DejaVuSans-118"/>
     </g>
    </g>
    <g id="line2d_45">
     <path d="M 777.930625 60.050937 
L 797.930625 60.050937 
" style="fill:none;stroke:#98df8a;stroke-linecap:square;stroke-width:1.5;"/>
    </g>
    <g id="line2d_46">
     <defs>
      <path d="M -0 3 
L 3 -3 
L -3 -3 
z
" id="mbd42a76313" style="stroke:#98df8a;stroke-linejoin:miter;"/>
     </defs>
     <g>
      <use style="fill:#98df8a;stroke:#98df8a;stroke-linejoin:miter;" x="787.930625" xlink:href="#mbd42a76313" y="60.050937"/>
     </g>
    </g>
    <g id="text_23">
     <!-- dark_instru_cond -->
     <g transform="translate(805.930625 63.550937)scale(0.1 -0.1)">
      <use xlink:href="#DejaVuSans-100"/>
      <use x="63.476562" xlink:href="#DejaVuSans-97"/>
      <use x="124.755859" xlink:href="#DejaVuSans-114"/>
      <use x="165.869141" xlink:href="#DejaVuSans-107"/>
      <use x="223.779297" xlink:href="#DejaVuSans-95"/>
      <use x="273.779297" xlink:href="#DejaVuSans-105"/>
      <use x="301.5625" xlink:href="#DejaVuSans-110"/>
      <use x="364.941406" xlink:href="#DejaVuSans-115"/>
      <use x="417.041016" xlink:href="#DejaVuSans-116"/>
      <use x="456.25" xlink:href="#DejaVuSans-114"/>
      <use x="497.363281" xlink:href="#DejaVuSans-117"/>
      <use x="560.742188" xlink:href="#DejaVuSans-95"/>
      <use x="610.742188" xlink:href="#DejaVuSans-99"/>
      <use x="665.722656" xlink:href="#DejaVuSans-111"/>
      <use x="726.904297" xlink:href="#DejaVuSans-110"/>
      <use x="790.283203" xlink:href="#DejaVuSans-100"/>
     </g>
    </g>
   </g>
  </g>
 </g>
 <defs>
  <clipPath id="p751f8546da">
   <rect height="266.112" width="714.24" x="59.690625" y="22.318125"/>
  </clipPath>
 </defs>
</svg>
