<?xml version="1.0" encoding="utf-8" standalone="no"?>
<!DOCTYPE svg PUBLIC "-//W3C//DTD SVG 1.1//EN"
  "http://www.w3.org/Graphics/SVG/1.1/DTD/svg11.dtd">
<!-- Created with matplotlib (https://matplotlib.org/) -->
<svg height="367.618115pt" version="1.1" viewBox="0 0 424.010625 367.618115" width="424.010625pt" xmlns="http://www.w3.org/2000/svg" xmlns:xlink="http://www.w3.org/1999/xlink">
 <metadata>
  <rdf:RDF xmlns:cc="http://creativecommons.org/ns#" xmlns:dc="http://purl.org/dc/elements/1.1/" xmlns:rdf="http://www.w3.org/1999/02/22-rdf-syntax-ns#">
   <cc:Work>
    <dc:type rdf:resource="http://purl.org/dc/dcmitype/StillImage"/>
    <dc:date>2020-12-29T17:57:44.733162</dc:date>
    <dc:format>image/svg+xml</dc:format>
    <dc:creator>
     <cc:Agent>
      <dc:title>Matplotlib v3.3.2, https://matplotlib.org/</dc:title>
     </cc:Agent>
    </dc:creator>
   </cc:Work>
  </rdf:RDF>
 </metadata>
 <defs>
  <style type="text/css">*{stroke-linecap:butt;stroke-linejoin:round;}</style>
 </defs>
 <g id="figure_1">
  <g id="patch_1">
   <path d="M 0 367.618115 
L 424.010625 367.618115 
L 424.010625 0 
L 0 0 
z
" style="fill:#ffffff;"/>
  </g>
  <g id="axes_1">
   <g id="patch_2">
    <path d="M 59.690625 288.430125 
L 416.810625 288.430125 
L 416.810625 22.318125 
L 59.690625 22.318125 
z
" style="fill:#ffffff;"/>
   </g>
   <g id="PolyCollection_1">
    <defs>
     <path d="M 153.33001 -114.647815 
L 144.61124 -114.647815 
L 144.009861 -116.855453 
L 143.348644 -119.063091 
L 142.625295 -121.27073 
L 141.837982 -123.478368 
L 140.985414 -125.686006 
L 140.066913 -127.893644 
L 139.082482 -130.101282 
L 138.03286 -132.30892 
L 136.919564 -134.516558 
L 135.744923 -136.724197 
L 134.512084 -138.931835 
L 133.22501 -141.139473 
L 131.888446 -143.347111 
L 130.507874 -145.554749 
L 129.089437 -147.762387 
L 127.639849 -149.970025 
L 126.166279 -152.177663 
L 124.67622 -154.385302 
L 123.177343 -156.59294 
L 121.67734 -158.800578 
L 120.183756 -161.008216 
L 118.703824 -163.215854 
L 117.244301 -165.423492 
L 115.811312 -167.63113 
L 114.410207 -169.838769 
L 113.045445 -172.046407 
L 111.720491 -174.254045 
L 110.437752 -176.461683 
L 109.198538 -178.669321 
L 108.003065 -180.876959 
L 106.850489 -183.084597 
L 105.738977 -185.292235 
L 104.665819 -187.499874 
L 103.627563 -189.707512 
L 102.620186 -191.91515 
L 101.639291 -194.122788 
L 100.680317 -196.330426 
L 99.738762 -198.538064 
L 98.810414 -200.745702 
L 97.891575 -202.953341 
L 96.979277 -205.160979 
L 96.071478 -207.368617 
L 95.167233 -209.576255 
L 94.266836 -211.783893 
L 93.371921 -213.991531 
L 92.485531 -216.199169 
L 91.612131 -218.406807 
L 90.75759 -220.614446 
L 89.929107 -222.822084 
L 89.135103 -225.029722 
L 88.385065 -227.23736 
L 87.68936 -229.444998 
L 87.059015 -231.652636 
L 86.505473 -233.860274 
L 86.040332 -236.067913 
L 85.675069 -238.275551 
L 85.42077 -240.483189 
L 85.287855 -242.690827 
L 85.285821 -244.898465 
L 85.423002 -247.106103 
L 85.706351 -249.313741 
L 86.141259 -251.521379 
L 86.731403 -253.729018 
L 87.478634 -255.936656 
L 88.382908 -258.144294 
L 89.442254 -260.351932 
L 90.652787 -262.55957 
L 92.008761 -264.767208 
L 93.502663 -266.974846 
L 95.125334 -269.182485 
L 96.866133 -271.390123 
L 98.713118 -273.597761 
L 100.653256 -275.805399 
L 102.672646 -278.013037 
L 104.756752 -280.220675 
L 106.890643 -282.428313 
L 109.059233 -284.635951 
L 111.247515 -286.84359 
L 113.440778 -289.051228 
L 115.624821 -291.258866 
L 117.786137 -293.466504 
L 119.91208 -295.674142 
L 121.991007 -297.88178 
L 124.012391 -300.089418 
L 125.96691 -302.297057 
L 127.846509 -304.504695 
L 129.644428 -306.712333 
L 131.355216 -308.919971 
L 132.974711 -311.127609 
L 134.500001 -313.335247 
L 135.929366 -315.542885 
L 137.262206 -317.750523 
L 138.498948 -319.958162 
L 139.640953 -322.1658 
L 140.690405 -324.373438 
L 141.650201 -326.581076 
L 142.523842 -328.788714 
L 143.315318 -330.996352 
L 144.029001 -333.20399 
L 153.912249 -333.20399 
L 153.912249 -333.20399 
L 154.625932 -330.996352 
L 155.417408 -328.788714 
L 156.291049 -326.581076 
L 157.250845 -324.373438 
L 158.300297 -322.1658 
L 159.442302 -319.958162 
L 160.679044 -317.750523 
L 162.011884 -315.542885 
L 163.441249 -313.335247 
L 164.966539 -311.127609 
L 166.586034 -308.919971 
L 168.296822 -306.712333 
L 170.094741 -304.504695 
L 171.97434 -302.297057 
L 173.928859 -300.089418 
L 175.950243 -297.88178 
L 178.02917 -295.674142 
L 180.155113 -293.466504 
L 182.316429 -291.258866 
L 184.500472 -289.051228 
L 186.693735 -286.84359 
L 188.882017 -284.635951 
L 191.050607 -282.428313 
L 193.184498 -280.220675 
L 195.268604 -278.013037 
L 197.287994 -275.805399 
L 199.228132 -273.597761 
L 201.075117 -271.390123 
L 202.815916 -269.182485 
L 204.438587 -266.974846 
L 205.932489 -264.767208 
L 207.288463 -262.55957 
L 208.498996 -260.351932 
L 209.558342 -258.144294 
L 210.462616 -255.936656 
L 211.209847 -253.729018 
L 211.799991 -251.521379 
L 212.234899 -249.313741 
L 212.518248 -247.106103 
L 212.655429 -244.898465 
L 212.653395 -242.690827 
L 212.52048 -240.483189 
L 212.266181 -238.275551 
L 211.900918 -236.067913 
L 211.435777 -233.860274 
L 210.882235 -231.652636 
L 210.25189 -229.444998 
L 209.556185 -227.23736 
L 208.806147 -225.029722 
L 208.012143 -222.822084 
L 207.18366 -220.614446 
L 206.329119 -218.406807 
L 205.455719 -216.199169 
L 204.569329 -213.991531 
L 203.674414 -211.783893 
L 202.774017 -209.576255 
L 201.869772 -207.368617 
L 200.961973 -205.160979 
L 200.049675 -202.953341 
L 199.130836 -200.745702 
L 198.202488 -198.538064 
L 197.260933 -196.330426 
L 196.301959 -194.122788 
L 195.321064 -191.91515 
L 194.313687 -189.707512 
L 193.275431 -187.499874 
L 192.202273 -185.292235 
L 191.090761 -183.084597 
L 189.938185 -180.876959 
L 188.742712 -178.669321 
L 187.503498 -176.461683 
L 186.220759 -174.254045 
L 184.895805 -172.046407 
L 183.531043 -169.838769 
L 182.129938 -167.63113 
L 180.696949 -165.423492 
L 179.237426 -163.215854 
L 177.757494 -161.008216 
L 176.26391 -158.800578 
L 174.763907 -156.59294 
L 173.26503 -154.385302 
L 171.774971 -152.177663 
L 170.301401 -149.970025 
L 168.851813 -147.762387 
L 167.433376 -145.554749 
L 166.052804 -143.347111 
L 164.71624 -141.139473 
L 163.429166 -138.931835 
L 162.196327 -136.724197 
L 161.021686 -134.516558 
L 159.90839 -132.30892 
L 158.858768 -130.101282 
L 157.874337 -127.893644 
L 156.955836 -125.686006 
L 156.103268 -123.478368 
L 155.315955 -121.27073 
L 154.592606 -119.063091 
L 153.931389 -116.855453 
L 153.33001 -114.647815 
z
" id="m9483ed1ff8" style="stroke:#3f3f3f;stroke-width:1.5;"/>
    </defs>
    <g clip-path="url(#p3321cc78ff)">
     <use style="fill:#3274a1;stroke:#3f3f3f;stroke-width:1.5;" x="0" xlink:href="#m9483ed1ff8" y="367.618115"/>
    </g>
   </g>
   <g id="PolyCollection_2">
    <defs>
     <path d="M 334.323138 -91.28399 
L 320.738112 -91.28399 
L 319.925475 -93.139213 
L 319.042252 -94.994435 
L 318.086007 -96.849658 
L 317.054713 -98.704881 
L 315.946815 -100.560103 
L 314.761293 -102.415326 
L 313.49772 -104.270548 
L 312.156314 -106.125771 
L 310.737987 -107.980993 
L 309.244383 -109.836216 
L 307.677906 -111.691438 
L 306.04174 -113.546661 
L 304.339851 -115.401883 
L 302.576984 -117.257106 
L 300.758637 -119.112328 
L 298.891031 -120.967551 
L 296.981053 -122.822773 
L 295.036197 -124.677996 
L 293.064485 -126.533218 
L 291.074376 -128.388441 
L 289.074667 -130.243663 
L 287.074384 -132.098886 
L 285.082667 -133.954108 
L 283.108647 -135.809331 
L 281.161329 -137.664553 
L 279.24947 -139.519776 
L 277.381465 -141.374998 
L 275.565238 -143.230221 
L 273.808145 -145.085443 
L 272.116891 -146.940666 
L 270.497458 -148.795889 
L 268.955055 -150.651111 
L 267.494081 -152.506334 
L 266.118114 -154.361556 
L 264.829914 -156.216779 
L 263.631446 -158.072001 
L 262.52393 -159.927224 
L 261.507895 -161.782446 
L 260.58326 -163.637669 
L 259.749423 -165.492891 
L 259.005358 -167.348114 
L 258.349724 -169.203336 
L 257.780973 -171.058559 
L 257.297461 -172.913781 
L 256.89755 -174.769004 
L 256.57971 -176.624226 
L 256.342602 -178.479449 
L 256.185156 -180.334671 
L 256.106625 -182.189894 
L 256.106625 -184.045116 
L 256.185156 -185.900339 
L 256.342602 -187.755561 
L 256.57971 -189.610784 
L 256.89755 -191.466006 
L 257.297461 -193.321229 
L 257.780973 -195.176452 
L 258.349724 -197.031674 
L 259.005358 -198.886897 
L 259.749423 -200.742119 
L 260.58326 -202.597342 
L 261.507895 -204.452564 
L 262.52393 -206.307787 
L 263.631446 -208.163009 
L 264.829914 -210.018232 
L 266.118114 -211.873454 
L 267.494081 -213.728677 
L 268.955055 -215.583899 
L 270.497458 -217.439122 
L 272.116891 -219.294344 
L 273.808145 -221.149567 
L 275.565238 -223.004789 
L 277.381465 -224.860012 
L 279.24947 -226.715234 
L 281.161329 -228.570457 
L 283.108647 -230.425679 
L 285.082667 -232.280902 
L 287.074384 -234.136124 
L 289.074667 -235.991347 
L 291.074376 -237.846569 
L 293.064485 -239.701792 
L 295.036197 -241.557014 
L 296.981053 -243.412237 
L 298.891031 -245.26746 
L 300.758637 -247.122682 
L 302.576984 -248.977905 
L 304.339851 -250.833127 
L 306.04174 -252.68835 
L 307.677906 -254.543572 
L 309.244383 -256.398795 
L 310.737987 -258.254017 
L 312.156314 -260.10924 
L 313.49772 -261.964462 
L 314.761293 -263.819685 
L 315.946815 -265.674907 
L 317.054713 -267.53013 
L 318.086007 -269.385352 
L 319.042252 -271.240575 
L 319.925475 -273.095797 
L 320.738112 -274.95102 
L 334.323138 -274.95102 
L 334.323138 -274.95102 
L 335.135775 -273.095797 
L 336.018998 -271.240575 
L 336.975243 -269.385352 
L 338.006537 -267.53013 
L 339.114435 -265.674907 
L 340.299957 -263.819685 
L 341.56353 -261.964462 
L 342.904936 -260.10924 
L 344.323263 -258.254017 
L 345.816867 -256.398795 
L 347.383344 -254.543572 
L 349.01951 -252.68835 
L 350.721399 -250.833127 
L 352.484266 -248.977905 
L 354.302613 -247.122682 
L 356.170219 -245.26746 
L 358.080197 -243.412237 
L 360.025053 -241.557014 
L 361.996765 -239.701792 
L 363.986874 -237.846569 
L 365.986583 -235.991347 
L 367.986866 -234.136124 
L 369.978583 -232.280902 
L 371.952603 -230.425679 
L 373.899921 -228.570457 
L 375.81178 -226.715234 
L 377.679785 -224.860012 
L 379.496012 -223.004789 
L 381.253105 -221.149567 
L 382.944359 -219.294344 
L 384.563792 -217.439122 
L 386.106195 -215.583899 
L 387.567169 -213.728677 
L 388.943136 -211.873454 
L 390.231336 -210.018232 
L 391.429804 -208.163009 
L 392.53732 -206.307787 
L 393.553355 -204.452564 
L 394.47799 -202.597342 
L 395.311827 -200.742119 
L 396.055892 -198.886897 
L 396.711526 -197.031674 
L 397.280277 -195.176452 
L 397.763789 -193.321229 
L 398.1637 -191.466006 
L 398.48154 -189.610784 
L 398.718648 -187.755561 
L 398.876094 -185.900339 
L 398.954625 -184.045116 
L 398.954625 -182.189894 
L 398.876094 -180.334671 
L 398.718648 -178.479449 
L 398.48154 -176.624226 
L 398.1637 -174.769004 
L 397.763789 -172.913781 
L 397.280277 -171.058559 
L 396.711526 -169.203336 
L 396.055892 -167.348114 
L 395.311827 -165.492891 
L 394.47799 -163.637669 
L 393.553355 -161.782446 
L 392.53732 -159.927224 
L 391.429804 -158.072001 
L 390.231336 -156.216779 
L 388.943136 -154.361556 
L 387.567169 -152.506334 
L 386.106195 -150.651111 
L 384.563792 -148.795889 
L 382.944359 -146.940666 
L 381.253105 -145.085443 
L 379.496012 -143.230221 
L 377.679785 -141.374998 
L 375.81178 -139.519776 
L 373.899921 -137.664553 
L 371.952603 -135.809331 
L 369.978583 -133.954108 
L 367.986866 -132.098886 
L 365.986583 -130.243663 
L 363.986874 -128.388441 
L 361.996765 -126.533218 
L 360.025053 -124.677996 
L 358.080197 -122.822773 
L 356.170219 -120.967551 
L 354.302613 -119.112328 
L 352.484266 -117.257106 
L 350.721399 -115.401883 
L 349.01951 -113.546661 
L 347.383344 -111.691438 
L 345.816867 -109.836216 
L 344.323263 -107.980993 
L 342.904936 -106.125771 
L 341.56353 -104.270548 
L 340.299957 -102.415326 
L 339.114435 -100.560103 
L 338.006537 -98.704881 
L 336.975243 -96.849658 
L 336.018998 -94.994435 
L 335.135775 -93.139213 
L 334.323138 -91.28399 
z
" id="m3a89585670" style="stroke:#3f3f3f;stroke-width:1.5;"/>
    </defs>
    <g clip-path="url(#p3321cc78ff)">
     <use style="fill:#9fd495;stroke:#3f3f3f;stroke-width:1.5;" x="0" xlink:href="#m3a89585670" y="367.618115"/>
    </g>
   </g>
   <g id="matplotlib.axis_1">
    <g id="xtick_1">
     <g id="line2d_1">
      <defs>
       <path d="M 0 0 
L 0 3.5 
" id="mc29a180bb8" style="stroke:#000000;stroke-width:0.8;"/>
      </defs>
      <g>
       <use style="stroke:#000000;stroke-width:0.8;" x="148.970625" xlink:href="#mc29a180bb8" y="288.430125"/>
      </g>
     </g>
     <g id="text_1">
      <!-- afldark_dev -->
      <g transform="translate(97.36739 331.123065)rotate(-30)scale(0.1 -0.1)">
       <defs>
        <path d="M 34.28125 27.484375 
Q 23.390625 27.484375 19.1875 25 
Q 14.984375 22.515625 14.984375 16.5 
Q 14.984375 11.71875 18.140625 8.90625 
Q 21.296875 6.109375 26.703125 6.109375 
Q 34.1875 6.109375 38.703125 11.40625 
Q 43.21875 16.703125 43.21875 25.484375 
L 43.21875 27.484375 
z
M 52.203125 31.203125 
L 52.203125 0 
L 43.21875 0 
L 43.21875 8.296875 
Q 40.140625 3.328125 35.546875 0.953125 
Q 30.953125 -1.421875 24.3125 -1.421875 
Q 15.921875 -1.421875 10.953125 3.296875 
Q 6 8.015625 6 15.921875 
Q 6 25.140625 12.171875 29.828125 
Q 18.359375 34.515625 30.609375 34.515625 
L 43.21875 34.515625 
L 43.21875 35.40625 
Q 43.21875 41.609375 39.140625 45 
Q 35.0625 48.390625 27.6875 48.390625 
Q 23 48.390625 18.546875 47.265625 
Q 14.109375 46.140625 10.015625 43.890625 
L 10.015625 52.203125 
Q 14.9375 54.109375 19.578125 55.046875 
Q 24.21875 56 28.609375 56 
Q 40.484375 56 46.34375 49.84375 
Q 52.203125 43.703125 52.203125 31.203125 
z
" id="DejaVuSans-97"/>
        <path d="M 37.109375 75.984375 
L 37.109375 68.5 
L 28.515625 68.5 
Q 23.6875 68.5 21.796875 66.546875 
Q 19.921875 64.59375 19.921875 59.515625 
L 19.921875 54.6875 
L 34.71875 54.6875 
L 34.71875 47.703125 
L 19.921875 47.703125 
L 19.921875 0 
L 10.890625 0 
L 10.890625 47.703125 
L 2.296875 47.703125 
L 2.296875 54.6875 
L 10.890625 54.6875 
L 10.890625 58.5 
Q 10.890625 67.625 15.140625 71.796875 
Q 19.390625 75.984375 28.609375 75.984375 
z
" id="DejaVuSans-102"/>
        <path d="M 9.421875 75.984375 
L 18.40625 75.984375 
L 18.40625 0 
L 9.421875 0 
z
" id="DejaVuSans-108"/>
        <path d="M 45.40625 46.390625 
L 45.40625 75.984375 
L 54.390625 75.984375 
L 54.390625 0 
L 45.40625 0 
L 45.40625 8.203125 
Q 42.578125 3.328125 38.25 0.953125 
Q 33.9375 -1.421875 27.875 -1.421875 
Q 17.96875 -1.421875 11.734375 6.484375 
Q 5.515625 14.40625 5.515625 27.296875 
Q 5.515625 40.1875 11.734375 48.09375 
Q 17.96875 56 27.875 56 
Q 33.9375 56 38.25 53.625 
Q 42.578125 51.265625 45.40625 46.390625 
z
M 14.796875 27.296875 
Q 14.796875 17.390625 18.875 11.75 
Q 22.953125 6.109375 30.078125 6.109375 
Q 37.203125 6.109375 41.296875 11.75 
Q 45.40625 17.390625 45.40625 27.296875 
Q 45.40625 37.203125 41.296875 42.84375 
Q 37.203125 48.484375 30.078125 48.484375 
Q 22.953125 48.484375 18.875 42.84375 
Q 14.796875 37.203125 14.796875 27.296875 
z
" id="DejaVuSans-100"/>
        <path d="M 41.109375 46.296875 
Q 39.59375 47.171875 37.8125 47.578125 
Q 36.03125 48 33.890625 48 
Q 26.265625 48 22.1875 43.046875 
Q 18.109375 38.09375 18.109375 28.8125 
L 18.109375 0 
L 9.078125 0 
L 9.078125 54.6875 
L 18.109375 54.6875 
L 18.109375 46.1875 
Q 20.953125 51.171875 25.484375 53.578125 
Q 30.03125 56 36.53125 56 
Q 37.453125 56 38.578125 55.875 
Q 39.703125 55.765625 41.0625 55.515625 
z
" id="DejaVuSans-114"/>
        <path d="M 9.078125 75.984375 
L 18.109375 75.984375 
L 18.109375 31.109375 
L 44.921875 54.6875 
L 56.390625 54.6875 
L 27.390625 29.109375 
L 57.625 0 
L 45.90625 0 
L 18.109375 26.703125 
L 18.109375 0 
L 9.078125 0 
z
" id="DejaVuSans-107"/>
        <path d="M 50.984375 -16.609375 
L 50.984375 -23.578125 
L -0.984375 -23.578125 
L -0.984375 -16.609375 
z
" id="DejaVuSans-95"/>
        <path d="M 56.203125 29.59375 
L 56.203125 25.203125 
L 14.890625 25.203125 
Q 15.484375 15.921875 20.484375 11.0625 
Q 25.484375 6.203125 34.421875 6.203125 
Q 39.59375 6.203125 44.453125 7.46875 
Q 49.3125 8.734375 54.109375 11.28125 
L 54.109375 2.78125 
Q 49.265625 0.734375 44.1875 -0.34375 
Q 39.109375 -1.421875 33.890625 -1.421875 
Q 20.796875 -1.421875 13.15625 6.1875 
Q 5.515625 13.8125 5.515625 26.8125 
Q 5.515625 40.234375 12.765625 48.109375 
Q 20.015625 56 32.328125 56 
Q 43.359375 56 49.78125 48.890625 
Q 56.203125 41.796875 56.203125 29.59375 
z
M 47.21875 32.234375 
Q 47.125 39.59375 43.09375 43.984375 
Q 39.0625 48.390625 32.421875 48.390625 
Q 24.90625 48.390625 20.390625 44.140625 
Q 15.875 39.890625 15.1875 32.171875 
z
" id="DejaVuSans-101"/>
        <path d="M 2.984375 54.6875 
L 12.5 54.6875 
L 29.59375 8.796875 
L 46.6875 54.6875 
L 56.203125 54.6875 
L 35.6875 0 
L 23.484375 0 
z
" id="DejaVuSans-118"/>
       </defs>
       <use xlink:href="#DejaVuSans-97"/>
       <use x="61.279297" xlink:href="#DejaVuSans-102"/>
       <use x="96.484375" xlink:href="#DejaVuSans-108"/>
       <use x="124.267578" xlink:href="#DejaVuSans-100"/>
       <use x="187.744141" xlink:href="#DejaVuSans-97"/>
       <use x="249.023438" xlink:href="#DejaVuSans-114"/>
       <use x="290.136719" xlink:href="#DejaVuSans-107"/>
       <use x="348.046875" xlink:href="#DejaVuSans-95"/>
       <use x="398.046875" xlink:href="#DejaVuSans-100"/>
       <use x="461.523438" xlink:href="#DejaVuSans-101"/>
       <use x="523.046875" xlink:href="#DejaVuSans-118"/>
      </g>
     </g>
    </g>
    <g id="xtick_2">
     <g id="line2d_2">
      <g>
       <use style="stroke:#000000;stroke-width:0.8;" x="327.530625" xlink:href="#mc29a180bb8" y="288.430125"/>
      </g>
     </g>
     <g id="text_2">
      <!-- dark_instru_cond -->
      <g transform="translate(252.4148 344.698065)rotate(-30)scale(0.1 -0.1)">
       <defs>
        <path d="M 9.421875 54.6875 
L 18.40625 54.6875 
L 18.40625 0 
L 9.421875 0 
z
M 9.421875 75.984375 
L 18.40625 75.984375 
L 18.40625 64.59375 
L 9.421875 64.59375 
z
" id="DejaVuSans-105"/>
        <path d="M 54.890625 33.015625 
L 54.890625 0 
L 45.90625 0 
L 45.90625 32.71875 
Q 45.90625 40.484375 42.875 44.328125 
Q 39.84375 48.1875 33.796875 48.1875 
Q 26.515625 48.1875 22.3125 43.546875 
Q 18.109375 38.921875 18.109375 30.90625 
L 18.109375 0 
L 9.078125 0 
L 9.078125 54.6875 
L 18.109375 54.6875 
L 18.109375 46.1875 
Q 21.34375 51.125 25.703125 53.5625 
Q 30.078125 56 35.796875 56 
Q 45.21875 56 50.046875 50.171875 
Q 54.890625 44.34375 54.890625 33.015625 
z
" id="DejaVuSans-110"/>
        <path d="M 44.28125 53.078125 
L 44.28125 44.578125 
Q 40.484375 46.53125 36.375 47.5 
Q 32.28125 48.484375 27.875 48.484375 
Q 21.1875 48.484375 17.84375 46.4375 
Q 14.5 44.390625 14.5 40.28125 
Q 14.5 37.15625 16.890625 35.375 
Q 19.28125 33.59375 26.515625 31.984375 
L 29.59375 31.296875 
Q 39.15625 29.25 43.1875 25.515625 
Q 47.21875 21.78125 47.21875 15.09375 
Q 47.21875 7.46875 41.1875 3.015625 
Q 35.15625 -1.421875 24.609375 -1.421875 
Q 20.21875 -1.421875 15.453125 -0.5625 
Q 10.6875 0.296875 5.421875 2 
L 5.421875 11.28125 
Q 10.40625 8.6875 15.234375 7.390625 
Q 20.0625 6.109375 24.8125 6.109375 
Q 31.15625 6.109375 34.5625 8.28125 
Q 37.984375 10.453125 37.984375 14.40625 
Q 37.984375 18.0625 35.515625 20.015625 
Q 33.0625 21.96875 24.703125 23.78125 
L 21.578125 24.515625 
Q 13.234375 26.265625 9.515625 29.90625 
Q 5.8125 33.546875 5.8125 39.890625 
Q 5.8125 47.609375 11.28125 51.796875 
Q 16.75 56 26.8125 56 
Q 31.78125 56 36.171875 55.265625 
Q 40.578125 54.546875 44.28125 53.078125 
z
" id="DejaVuSans-115"/>
        <path d="M 18.3125 70.21875 
L 18.3125 54.6875 
L 36.8125 54.6875 
L 36.8125 47.703125 
L 18.3125 47.703125 
L 18.3125 18.015625 
Q 18.3125 11.328125 20.140625 9.421875 
Q 21.96875 7.515625 27.59375 7.515625 
L 36.8125 7.515625 
L 36.8125 0 
L 27.59375 0 
Q 17.1875 0 13.234375 3.875 
Q 9.28125 7.765625 9.28125 18.015625 
L 9.28125 47.703125 
L 2.6875 47.703125 
L 2.6875 54.6875 
L 9.28125 54.6875 
L 9.28125 70.21875 
z
" id="DejaVuSans-116"/>
        <path d="M 8.5 21.578125 
L 8.5 54.6875 
L 17.484375 54.6875 
L 17.484375 21.921875 
Q 17.484375 14.15625 20.5 10.265625 
Q 23.53125 6.390625 29.59375 6.390625 
Q 36.859375 6.390625 41.078125 11.03125 
Q 45.3125 15.671875 45.3125 23.6875 
L 45.3125 54.6875 
L 54.296875 54.6875 
L 54.296875 0 
L 45.3125 0 
L 45.3125 8.40625 
Q 42.046875 3.421875 37.71875 1 
Q 33.40625 -1.421875 27.6875 -1.421875 
Q 18.265625 -1.421875 13.375 4.4375 
Q 8.5 10.296875 8.5 21.578125 
z
M 31.109375 56 
z
" id="DejaVuSans-117"/>
        <path d="M 48.78125 52.59375 
L 48.78125 44.1875 
Q 44.96875 46.296875 41.140625 47.34375 
Q 37.3125 48.390625 33.40625 48.390625 
Q 24.65625 48.390625 19.8125 42.84375 
Q 14.984375 37.3125 14.984375 27.296875 
Q 14.984375 17.28125 19.8125 11.734375 
Q 24.65625 6.203125 33.40625 6.203125 
Q 37.3125 6.203125 41.140625 7.25 
Q 44.96875 8.296875 48.78125 10.40625 
L 48.78125 2.09375 
Q 45.015625 0.34375 40.984375 -0.53125 
Q 36.96875 -1.421875 32.421875 -1.421875 
Q 20.0625 -1.421875 12.78125 6.34375 
Q 5.515625 14.109375 5.515625 27.296875 
Q 5.515625 40.671875 12.859375 48.328125 
Q 20.21875 56 33.015625 56 
Q 37.15625 56 41.109375 55.140625 
Q 45.0625 54.296875 48.78125 52.59375 
z
" id="DejaVuSans-99"/>
        <path d="M 30.609375 48.390625 
Q 23.390625 48.390625 19.1875 42.75 
Q 14.984375 37.109375 14.984375 27.296875 
Q 14.984375 17.484375 19.15625 11.84375 
Q 23.34375 6.203125 30.609375 6.203125 
Q 37.796875 6.203125 41.984375 11.859375 
Q 46.1875 17.53125 46.1875 27.296875 
Q 46.1875 37.015625 41.984375 42.703125 
Q 37.796875 48.390625 30.609375 48.390625 
z
M 30.609375 56 
Q 42.328125 56 49.015625 48.375 
Q 55.71875 40.765625 55.71875 27.296875 
Q 55.71875 13.875 49.015625 6.21875 
Q 42.328125 -1.421875 30.609375 -1.421875 
Q 18.84375 -1.421875 12.171875 6.21875 
Q 5.515625 13.875 5.515625 27.296875 
Q 5.515625 40.765625 12.171875 48.375 
Q 18.84375 56 30.609375 56 
z
" id="DejaVuSans-111"/>
       </defs>
       <use xlink:href="#DejaVuSans-100"/>
       <use x="63.476562" xlink:href="#DejaVuSans-97"/>
       <use x="124.755859" xlink:href="#DejaVuSans-114"/>
       <use x="165.869141" xlink:href="#DejaVuSans-107"/>
       <use x="223.779297" xlink:href="#DejaVuSans-95"/>
       <use x="273.779297" xlink:href="#DejaVuSans-105"/>
       <use x="301.5625" xlink:href="#DejaVuSans-110"/>
       <use x="364.941406" xlink:href="#DejaVuSans-115"/>
       <use x="417.041016" xlink:href="#DejaVuSans-116"/>
       <use x="456.25" xlink:href="#DejaVuSans-114"/>
       <use x="497.363281" xlink:href="#DejaVuSans-117"/>
       <use x="560.742188" xlink:href="#DejaVuSans-95"/>
       <use x="610.742188" xlink:href="#DejaVuSans-99"/>
       <use x="665.722656" xlink:href="#DejaVuSans-111"/>
       <use x="726.904297" xlink:href="#DejaVuSans-110"/>
       <use x="790.283203" xlink:href="#DejaVuSans-100"/>
      </g>
     </g>
    </g>
    <g id="text_3">
     <!-- Fuzzer (highest median coverage on the left) -->
     <g transform="translate(125.632656 358.338428)scale(0.1 -0.1)">
      <defs>
       <path d="M 9.8125 72.90625 
L 51.703125 72.90625 
L 51.703125 64.59375 
L 19.671875 64.59375 
L 19.671875 43.109375 
L 48.578125 43.109375 
L 48.578125 34.8125 
L 19.671875 34.8125 
L 19.671875 0 
L 9.8125 0 
z
" id="DejaVuSans-70"/>
       <path d="M 5.515625 54.6875 
L 48.1875 54.6875 
L 48.1875 46.484375 
L 14.40625 7.171875 
L 48.1875 7.171875 
L 48.1875 0 
L 4.296875 0 
L 4.296875 8.203125 
L 38.09375 47.515625 
L 5.515625 47.515625 
z
" id="DejaVuSans-122"/>
       <path id="DejaVuSans-32"/>
       <path d="M 31 75.875 
Q 24.46875 64.65625 21.28125 53.65625 
Q 18.109375 42.671875 18.109375 31.390625 
Q 18.109375 20.125 21.3125 9.0625 
Q 24.515625 -2 31 -13.1875 
L 23.1875 -13.1875 
Q 15.875 -1.703125 12.234375 9.375 
Q 8.59375 20.453125 8.59375 31.390625 
Q 8.59375 42.28125 12.203125 53.3125 
Q 15.828125 64.359375 23.1875 75.875 
z
" id="DejaVuSans-40"/>
       <path d="M 54.890625 33.015625 
L 54.890625 0 
L 45.90625 0 
L 45.90625 32.71875 
Q 45.90625 40.484375 42.875 44.328125 
Q 39.84375 48.1875 33.796875 48.1875 
Q 26.515625 48.1875 22.3125 43.546875 
Q 18.109375 38.921875 18.109375 30.90625 
L 18.109375 0 
L 9.078125 0 
L 9.078125 75.984375 
L 18.109375 75.984375 
L 18.109375 46.1875 
Q 21.34375 51.125 25.703125 53.5625 
Q 30.078125 56 35.796875 56 
Q 45.21875 56 50.046875 50.171875 
Q 54.890625 44.34375 54.890625 33.015625 
z
" id="DejaVuSans-104"/>
       <path d="M 45.40625 27.984375 
Q 45.40625 37.75 41.375 43.109375 
Q 37.359375 48.484375 30.078125 48.484375 
Q 22.859375 48.484375 18.828125 43.109375 
Q 14.796875 37.75 14.796875 27.984375 
Q 14.796875 18.265625 18.828125 12.890625 
Q 22.859375 7.515625 30.078125 7.515625 
Q 37.359375 7.515625 41.375 12.890625 
Q 45.40625 18.265625 45.40625 27.984375 
z
M 54.390625 6.78125 
Q 54.390625 -7.171875 48.1875 -13.984375 
Q 42 -20.796875 29.203125 -20.796875 
Q 24.46875 -20.796875 20.265625 -20.09375 
Q 16.0625 -19.390625 12.109375 -17.921875 
L 12.109375 -9.1875 
Q 16.0625 -11.328125 19.921875 -12.34375 
Q 23.78125 -13.375 27.78125 -13.375 
Q 36.625 -13.375 41.015625 -8.765625 
Q 45.40625 -4.15625 45.40625 5.171875 
L 45.40625 9.625 
Q 42.625 4.78125 38.28125 2.390625 
Q 33.9375 0 27.875 0 
Q 17.828125 0 11.671875 7.65625 
Q 5.515625 15.328125 5.515625 27.984375 
Q 5.515625 40.671875 11.671875 48.328125 
Q 17.828125 56 27.875 56 
Q 33.9375 56 38.28125 53.609375 
Q 42.625 51.21875 45.40625 46.390625 
L 45.40625 54.6875 
L 54.390625 54.6875 
z
" id="DejaVuSans-103"/>
       <path d="M 52 44.1875 
Q 55.375 50.25 60.0625 53.125 
Q 64.75 56 71.09375 56 
Q 79.640625 56 84.28125 50.015625 
Q 88.921875 44.046875 88.921875 33.015625 
L 88.921875 0 
L 79.890625 0 
L 79.890625 32.71875 
Q 79.890625 40.578125 77.09375 44.375 
Q 74.3125 48.1875 68.609375 48.1875 
Q 61.625 48.1875 57.5625 43.546875 
Q 53.515625 38.921875 53.515625 30.90625 
L 53.515625 0 
L 44.484375 0 
L 44.484375 32.71875 
Q 44.484375 40.625 41.703125 44.40625 
Q 38.921875 48.1875 33.109375 48.1875 
Q 26.21875 48.1875 22.15625 43.53125 
Q 18.109375 38.875 18.109375 30.90625 
L 18.109375 0 
L 9.078125 0 
L 9.078125 54.6875 
L 18.109375 54.6875 
L 18.109375 46.1875 
Q 21.1875 51.21875 25.484375 53.609375 
Q 29.78125 56 35.6875 56 
Q 41.65625 56 45.828125 52.96875 
Q 50 49.953125 52 44.1875 
z
" id="DejaVuSans-109"/>
       <path d="M 8.015625 75.875 
L 15.828125 75.875 
Q 23.140625 64.359375 26.78125 53.3125 
Q 30.421875 42.28125 30.421875 31.390625 
Q 30.421875 20.453125 26.78125 9.375 
Q 23.140625 -1.703125 15.828125 -13.1875 
L 8.015625 -13.1875 
Q 14.5 -2 17.703125 9.0625 
Q 20.90625 20.125 20.90625 31.390625 
Q 20.90625 42.671875 17.703125 53.65625 
Q 14.5 64.65625 8.015625 75.875 
z
" id="DejaVuSans-41"/>
      </defs>
      <use xlink:href="#DejaVuSans-70"/>
      <use x="52.019531" xlink:href="#DejaVuSans-117"/>
      <use x="115.398438" xlink:href="#DejaVuSans-122"/>
      <use x="167.888672" xlink:href="#DejaVuSans-122"/>
      <use x="220.378906" xlink:href="#DejaVuSans-101"/>
      <use x="281.902344" xlink:href="#DejaVuSans-114"/>
      <use x="323.015625" xlink:href="#DejaVuSans-32"/>
      <use x="354.802734" xlink:href="#DejaVuSans-40"/>
      <use x="393.816406" xlink:href="#DejaVuSans-104"/>
      <use x="457.195312" xlink:href="#DejaVuSans-105"/>
      <use x="484.978516" xlink:href="#DejaVuSans-103"/>
      <use x="548.455078" xlink:href="#DejaVuSans-104"/>
      <use x="611.833984" xlink:href="#DejaVuSans-101"/>
      <use x="673.357422" xlink:href="#DejaVuSans-115"/>
      <use x="725.457031" xlink:href="#DejaVuSans-116"/>
      <use x="764.666016" xlink:href="#DejaVuSans-32"/>
      <use x="796.453125" xlink:href="#DejaVuSans-109"/>
      <use x="893.865234" xlink:href="#DejaVuSans-101"/>
      <use x="955.388672" xlink:href="#DejaVuSans-100"/>
      <use x="1018.865234" xlink:href="#DejaVuSans-105"/>
      <use x="1046.648438" xlink:href="#DejaVuSans-97"/>
      <use x="1107.927734" xlink:href="#DejaVuSans-110"/>
      <use x="1171.306641" xlink:href="#DejaVuSans-32"/>
      <use x="1203.09375" xlink:href="#DejaVuSans-99"/>
      <use x="1258.074219" xlink:href="#DejaVuSans-111"/>
      <use x="1319.255859" xlink:href="#DejaVuSans-118"/>
      <use x="1378.435547" xlink:href="#DejaVuSans-101"/>
      <use x="1439.958984" xlink:href="#DejaVuSans-114"/>
      <use x="1481.072266" xlink:href="#DejaVuSans-97"/>
      <use x="1542.351562" xlink:href="#DejaVuSans-103"/>
      <use x="1605.828125" xlink:href="#DejaVuSans-101"/>
      <use x="1667.351562" xlink:href="#DejaVuSans-32"/>
      <use x="1699.138672" xlink:href="#DejaVuSans-111"/>
      <use x="1760.320312" xlink:href="#DejaVuSans-110"/>
      <use x="1823.699219" xlink:href="#DejaVuSans-32"/>
      <use x="1855.486328" xlink:href="#DejaVuSans-116"/>
      <use x="1894.695312" xlink:href="#DejaVuSans-104"/>
      <use x="1958.074219" xlink:href="#DejaVuSans-101"/>
      <use x="2019.597656" xlink:href="#DejaVuSans-32"/>
      <use x="2051.384766" xlink:href="#DejaVuSans-108"/>
      <use x="2079.167969" xlink:href="#DejaVuSans-101"/>
      <use x="2140.691406" xlink:href="#DejaVuSans-102"/>
      <use x="2174.146484" xlink:href="#DejaVuSans-116"/>
      <use x="2213.355469" xlink:href="#DejaVuSans-41"/>
     </g>
    </g>
   </g>
   <g id="matplotlib.axis_2">
    <g id="ytick_1">
     <g id="line2d_3">
      <defs>
       <path d="M 0 0 
L -3.5 0 
" id="mbf377220ed" style="stroke:#000000;stroke-width:0.8;"/>
      </defs>
      <g>
       <use style="stroke:#000000;stroke-width:0.8;" x="59.690625" xlink:href="#mbf377220ed" y="279.455678"/>
      </g>
     </g>
     <g id="text_4">
      <!-- 24500 -->
      <g transform="translate(20.878125 283.254897)scale(0.1 -0.1)">
       <defs>
        <path d="M 19.1875 8.296875 
L 53.609375 8.296875 
L 53.609375 0 
L 7.328125 0 
L 7.328125 8.296875 
Q 12.9375 14.109375 22.625 23.890625 
Q 32.328125 33.6875 34.8125 36.53125 
Q 39.546875 41.84375 41.421875 45.53125 
Q 43.3125 49.21875 43.3125 52.78125 
Q 43.3125 58.59375 39.234375 62.25 
Q 35.15625 65.921875 28.609375 65.921875 
Q 23.96875 65.921875 18.8125 64.3125 
Q 13.671875 62.703125 7.8125 59.421875 
L 7.8125 69.390625 
Q 13.765625 71.78125 18.9375 73 
Q 24.125 74.21875 28.421875 74.21875 
Q 39.75 74.21875 46.484375 68.546875 
Q 53.21875 62.890625 53.21875 53.421875 
Q 53.21875 48.921875 51.53125 44.890625 
Q 49.859375 40.875 45.40625 35.40625 
Q 44.1875 33.984375 37.640625 27.21875 
Q 31.109375 20.453125 19.1875 8.296875 
z
" id="DejaVuSans-50"/>
        <path d="M 37.796875 64.3125 
L 12.890625 25.390625 
L 37.796875 25.390625 
z
M 35.203125 72.90625 
L 47.609375 72.90625 
L 47.609375 25.390625 
L 58.015625 25.390625 
L 58.015625 17.1875 
L 47.609375 17.1875 
L 47.609375 0 
L 37.796875 0 
L 37.796875 17.1875 
L 4.890625 17.1875 
L 4.890625 26.703125 
z
" id="DejaVuSans-52"/>
        <path d="M 10.796875 72.90625 
L 49.515625 72.90625 
L 49.515625 64.59375 
L 19.828125 64.59375 
L 19.828125 46.734375 
Q 21.96875 47.46875 24.109375 47.828125 
Q 26.265625 48.1875 28.421875 48.1875 
Q 40.625 48.1875 47.75 41.5 
Q 54.890625 34.8125 54.890625 23.390625 
Q 54.890625 11.625 47.5625 5.09375 
Q 40.234375 -1.421875 26.90625 -1.421875 
Q 22.3125 -1.421875 17.546875 -0.640625 
Q 12.796875 0.140625 7.71875 1.703125 
L 7.71875 11.625 
Q 12.109375 9.234375 16.796875 8.0625 
Q 21.484375 6.890625 26.703125 6.890625 
Q 35.15625 6.890625 40.078125 11.328125 
Q 45.015625 15.765625 45.015625 23.390625 
Q 45.015625 31 40.078125 35.4375 
Q 35.15625 39.890625 26.703125 39.890625 
Q 22.75 39.890625 18.8125 39.015625 
Q 14.890625 38.140625 10.796875 36.28125 
z
" id="DejaVuSans-53"/>
        <path d="M 31.78125 66.40625 
Q 24.171875 66.40625 20.328125 58.90625 
Q 16.5 51.421875 16.5 36.375 
Q 16.5 21.390625 20.328125 13.890625 
Q 24.171875 6.390625 31.78125 6.390625 
Q 39.453125 6.390625 43.28125 13.890625 
Q 47.125 21.390625 47.125 36.375 
Q 47.125 51.421875 43.28125 58.90625 
Q 39.453125 66.40625 31.78125 66.40625 
z
M 31.78125 74.21875 
Q 44.046875 74.21875 50.515625 64.515625 
Q 56.984375 54.828125 56.984375 36.375 
Q 56.984375 17.96875 50.515625 8.265625 
Q 44.046875 -1.421875 31.78125 -1.421875 
Q 19.53125 -1.421875 13.0625 8.265625 
Q 6.59375 17.96875 6.59375 36.375 
Q 6.59375 54.828125 13.0625 64.515625 
Q 19.53125 74.21875 31.78125 74.21875 
z
" id="DejaVuSans-48"/>
       </defs>
       <use xlink:href="#DejaVuSans-50"/>
       <use x="63.623047" xlink:href="#DejaVuSans-52"/>
       <use x="127.246094" xlink:href="#DejaVuSans-53"/>
       <use x="190.869141" xlink:href="#DejaVuSans-48"/>
       <use x="254.492188" xlink:href="#DejaVuSans-48"/>
      </g>
     </g>
    </g>
    <g id="ytick_2">
     <g id="line2d_4">
      <g>
       <use style="stroke:#000000;stroke-width:0.8;" x="59.690625" xlink:href="#mbf377220ed" y="248.933316"/>
      </g>
     </g>
     <g id="text_5">
      <!-- 25000 -->
      <g transform="translate(20.878125 252.732535)scale(0.1 -0.1)">
       <use xlink:href="#DejaVuSans-50"/>
       <use x="63.623047" xlink:href="#DejaVuSans-53"/>
       <use x="127.246094" xlink:href="#DejaVuSans-48"/>
       <use x="190.869141" xlink:href="#DejaVuSans-48"/>
       <use x="254.492188" xlink:href="#DejaVuSans-48"/>
      </g>
     </g>
    </g>
    <g id="ytick_3">
     <g id="line2d_5">
      <g>
       <use style="stroke:#000000;stroke-width:0.8;" x="59.690625" xlink:href="#mbf377220ed" y="218.410954"/>
      </g>
     </g>
     <g id="text_6">
      <!-- 25500 -->
      <g transform="translate(20.878125 222.210173)scale(0.1 -0.1)">
       <use xlink:href="#DejaVuSans-50"/>
       <use x="63.623047" xlink:href="#DejaVuSans-53"/>
       <use x="127.246094" xlink:href="#DejaVuSans-53"/>
       <use x="190.869141" xlink:href="#DejaVuSans-48"/>
       <use x="254.492188" xlink:href="#DejaVuSans-48"/>
      </g>
     </g>
    </g>
    <g id="ytick_4">
     <g id="line2d_6">
      <g>
       <use style="stroke:#000000;stroke-width:0.8;" x="59.690625" xlink:href="#mbf377220ed" y="187.888592"/>
      </g>
     </g>
     <g id="text_7">
      <!-- 26000 -->
      <g transform="translate(20.878125 191.687811)scale(0.1 -0.1)">
       <defs>
        <path d="M 33.015625 40.375 
Q 26.375 40.375 22.484375 35.828125 
Q 18.609375 31.296875 18.609375 23.390625 
Q 18.609375 15.53125 22.484375 10.953125 
Q 26.375 6.390625 33.015625 6.390625 
Q 39.65625 6.390625 43.53125 10.953125 
Q 47.40625 15.53125 47.40625 23.390625 
Q 47.40625 31.296875 43.53125 35.828125 
Q 39.65625 40.375 33.015625 40.375 
z
M 52.59375 71.296875 
L 52.59375 62.3125 
Q 48.875 64.0625 45.09375 64.984375 
Q 41.3125 65.921875 37.59375 65.921875 
Q 27.828125 65.921875 22.671875 59.328125 
Q 17.53125 52.734375 16.796875 39.40625 
Q 19.671875 43.65625 24.015625 45.921875 
Q 28.375 48.1875 33.59375 48.1875 
Q 44.578125 48.1875 50.953125 41.515625 
Q 57.328125 34.859375 57.328125 23.390625 
Q 57.328125 12.15625 50.6875 5.359375 
Q 44.046875 -1.421875 33.015625 -1.421875 
Q 20.359375 -1.421875 13.671875 8.265625 
Q 6.984375 17.96875 6.984375 36.375 
Q 6.984375 53.65625 15.1875 63.9375 
Q 23.390625 74.21875 37.203125 74.21875 
Q 40.921875 74.21875 44.703125 73.484375 
Q 48.484375 72.75 52.59375 71.296875 
z
" id="DejaVuSans-54"/>
       </defs>
       <use xlink:href="#DejaVuSans-50"/>
       <use x="63.623047" xlink:href="#DejaVuSans-54"/>
       <use x="127.246094" xlink:href="#DejaVuSans-48"/>
       <use x="190.869141" xlink:href="#DejaVuSans-48"/>
       <use x="254.492188" xlink:href="#DejaVuSans-48"/>
      </g>
     </g>
    </g>
    <g id="ytick_5">
     <g id="line2d_7">
      <g>
       <use style="stroke:#000000;stroke-width:0.8;" x="59.690625" xlink:href="#mbf377220ed" y="157.366231"/>
      </g>
     </g>
     <g id="text_8">
      <!-- 26500 -->
      <g transform="translate(20.878125 161.165449)scale(0.1 -0.1)">
       <use xlink:href="#DejaVuSans-50"/>
       <use x="63.623047" xlink:href="#DejaVuSans-54"/>
       <use x="127.246094" xlink:href="#DejaVuSans-53"/>
       <use x="190.869141" xlink:href="#DejaVuSans-48"/>
       <use x="254.492188" xlink:href="#DejaVuSans-48"/>
      </g>
     </g>
    </g>
    <g id="ytick_6">
     <g id="line2d_8">
      <g>
       <use style="stroke:#000000;stroke-width:0.8;" x="59.690625" xlink:href="#mbf377220ed" y="126.843869"/>
      </g>
     </g>
     <g id="text_9">
      <!-- 27000 -->
      <g transform="translate(20.878125 130.643088)scale(0.1 -0.1)">
       <defs>
        <path d="M 8.203125 72.90625 
L 55.078125 72.90625 
L 55.078125 68.703125 
L 28.609375 0 
L 18.3125 0 
L 43.21875 64.59375 
L 8.203125 64.59375 
z
" id="DejaVuSans-55"/>
       </defs>
       <use xlink:href="#DejaVuSans-50"/>
       <use x="63.623047" xlink:href="#DejaVuSans-55"/>
       <use x="127.246094" xlink:href="#DejaVuSans-48"/>
       <use x="190.869141" xlink:href="#DejaVuSans-48"/>
       <use x="254.492188" xlink:href="#DejaVuSans-48"/>
      </g>
     </g>
    </g>
    <g id="ytick_7">
     <g id="line2d_9">
      <g>
       <use style="stroke:#000000;stroke-width:0.8;" x="59.690625" xlink:href="#mbf377220ed" y="96.321507"/>
      </g>
     </g>
     <g id="text_10">
      <!-- 27500 -->
      <g transform="translate(20.878125 100.120726)scale(0.1 -0.1)">
       <use xlink:href="#DejaVuSans-50"/>
       <use x="63.623047" xlink:href="#DejaVuSans-55"/>
       <use x="127.246094" xlink:href="#DejaVuSans-53"/>
       <use x="190.869141" xlink:href="#DejaVuSans-48"/>
       <use x="254.492188" xlink:href="#DejaVuSans-48"/>
      </g>
     </g>
    </g>
    <g id="ytick_8">
     <g id="line2d_10">
      <g>
       <use style="stroke:#000000;stroke-width:0.8;" x="59.690625" xlink:href="#mbf377220ed" y="65.799145"/>
      </g>
     </g>
     <g id="text_11">
      <!-- 28000 -->
      <g transform="translate(20.878125 69.598364)scale(0.1 -0.1)">
       <defs>
        <path d="M 31.78125 34.625 
Q 24.75 34.625 20.71875 30.859375 
Q 16.703125 27.09375 16.703125 20.515625 
Q 16.703125 13.921875 20.71875 10.15625 
Q 24.75 6.390625 31.78125 6.390625 
Q 38.8125 6.390625 42.859375 10.171875 
Q 46.921875 13.96875 46.921875 20.515625 
Q 46.921875 27.09375 42.890625 30.859375 
Q 38.875 34.625 31.78125 34.625 
z
M 21.921875 38.8125 
Q 15.578125 40.375 12.03125 44.71875 
Q 8.5 49.078125 8.5 55.328125 
Q 8.5 64.0625 14.71875 69.140625 
Q 20.953125 74.21875 31.78125 74.21875 
Q 42.671875 74.21875 48.875 69.140625 
Q 55.078125 64.0625 55.078125 55.328125 
Q 55.078125 49.078125 51.53125 44.71875 
Q 48 40.375 41.703125 38.8125 
Q 48.828125 37.15625 52.796875 32.3125 
Q 56.78125 27.484375 56.78125 20.515625 
Q 56.78125 9.90625 50.3125 4.234375 
Q 43.84375 -1.421875 31.78125 -1.421875 
Q 19.734375 -1.421875 13.25 4.234375 
Q 6.78125 9.90625 6.78125 20.515625 
Q 6.78125 27.484375 10.78125 32.3125 
Q 14.796875 37.15625 21.921875 38.8125 
z
M 18.3125 54.390625 
Q 18.3125 48.734375 21.84375 45.5625 
Q 25.390625 42.390625 31.78125 42.390625 
Q 38.140625 42.390625 41.71875 45.5625 
Q 45.3125 48.734375 45.3125 54.390625 
Q 45.3125 60.0625 41.71875 63.234375 
Q 38.140625 66.40625 31.78125 66.40625 
Q 25.390625 66.40625 21.84375 63.234375 
Q 18.3125 60.0625 18.3125 54.390625 
z
" id="DejaVuSans-56"/>
       </defs>
       <use xlink:href="#DejaVuSans-50"/>
       <use x="63.623047" xlink:href="#DejaVuSans-56"/>
       <use x="127.246094" xlink:href="#DejaVuSans-48"/>
       <use x="190.869141" xlink:href="#DejaVuSans-48"/>
       <use x="254.492188" xlink:href="#DejaVuSans-48"/>
      </g>
     </g>
    </g>
    <g id="ytick_9">
     <g id="line2d_11">
      <g>
       <use style="stroke:#000000;stroke-width:0.8;" x="59.690625" xlink:href="#mbf377220ed" y="35.276784"/>
      </g>
     </g>
     <g id="text_12">
      <!-- 28500 -->
      <g transform="translate(20.878125 39.076002)scale(0.1 -0.1)">
       <use xlink:href="#DejaVuSans-50"/>
       <use x="63.623047" xlink:href="#DejaVuSans-56"/>
       <use x="127.246094" xlink:href="#DejaVuSans-53"/>
       <use x="190.869141" xlink:href="#DejaVuSans-48"/>
       <use x="254.492188" xlink:href="#DejaVuSans-48"/>
      </g>
     </g>
    </g>
    <g id="text_13">
     <!-- Reached region coverage -->
     <g transform="translate(14.798438 219.136625)rotate(-90)scale(0.1 -0.1)">
      <defs>
       <path d="M 44.390625 34.1875 
Q 47.5625 33.109375 50.5625 29.59375 
Q 53.5625 26.078125 56.59375 19.921875 
L 66.609375 0 
L 56 0 
L 46.6875 18.703125 
Q 43.0625 26.03125 39.671875 28.421875 
Q 36.28125 30.8125 30.421875 30.8125 
L 19.671875 30.8125 
L 19.671875 0 
L 9.8125 0 
L 9.8125 72.90625 
L 32.078125 72.90625 
Q 44.578125 72.90625 50.734375 67.671875 
Q 56.890625 62.453125 56.890625 51.90625 
Q 56.890625 45.015625 53.6875 40.46875 
Q 50.484375 35.9375 44.390625 34.1875 
z
M 19.671875 64.796875 
L 19.671875 38.921875 
L 32.078125 38.921875 
Q 39.203125 38.921875 42.84375 42.21875 
Q 46.484375 45.515625 46.484375 51.90625 
Q 46.484375 58.296875 42.84375 61.546875 
Q 39.203125 64.796875 32.078125 64.796875 
z
" id="DejaVuSans-82"/>
      </defs>
      <use xlink:href="#DejaVuSans-82"/>
      <use x="64.982422" xlink:href="#DejaVuSans-101"/>
      <use x="126.505859" xlink:href="#DejaVuSans-97"/>
      <use x="187.785156" xlink:href="#DejaVuSans-99"/>
      <use x="242.765625" xlink:href="#DejaVuSans-104"/>
      <use x="306.144531" xlink:href="#DejaVuSans-101"/>
      <use x="367.667969" xlink:href="#DejaVuSans-100"/>
      <use x="431.144531" xlink:href="#DejaVuSans-32"/>
      <use x="462.931641" xlink:href="#DejaVuSans-114"/>
      <use x="501.794922" xlink:href="#DejaVuSans-101"/>
      <use x="563.318359" xlink:href="#DejaVuSans-103"/>
      <use x="626.794922" xlink:href="#DejaVuSans-105"/>
      <use x="654.578125" xlink:href="#DejaVuSans-111"/>
      <use x="715.759766" xlink:href="#DejaVuSans-110"/>
      <use x="779.138672" xlink:href="#DejaVuSans-32"/>
      <use x="810.925781" xlink:href="#DejaVuSans-99"/>
      <use x="865.90625" xlink:href="#DejaVuSans-111"/>
      <use x="927.087891" xlink:href="#DejaVuSans-118"/>
      <use x="986.267578" xlink:href="#DejaVuSans-101"/>
      <use x="1047.791016" xlink:href="#DejaVuSans-114"/>
      <use x="1088.904297" xlink:href="#DejaVuSans-97"/>
      <use x="1150.183594" xlink:href="#DejaVuSans-103"/>
      <use x="1213.660156" xlink:href="#DejaVuSans-101"/>
     </g>
    </g>
   </g>
   <g id="line2d_12">
    <path clip-path="url(#p3321cc78ff)" d="M 148.970625 185.14158 
L 148.970625 102.242845 
" style="fill:none;stroke:#3f3f3f;stroke-linecap:square;stroke-width:1.5;"/>
   </g>
   <g id="line2d_13">
    <path clip-path="url(#p3321cc78ff)" d="M 148.970625 157.335708 
L 148.970625 115.886341 
" style="fill:none;stroke:#3f3f3f;stroke-linecap:square;stroke-width:4.5;"/>
   </g>
   <g id="line2d_14">
    <path clip-path="url(#p3321cc78ff)" d="M 327.530625 211.024543 
L 327.530625 157.976678 
" style="fill:none;stroke:#3f3f3f;stroke-linecap:square;stroke-width:1.5;"/>
   </g>
   <g id="line2d_15">
    <path clip-path="url(#p3321cc78ff)" d="M 327.530625 197.762576 
L 327.530625 171.238644 
" style="fill:none;stroke:#3f3f3f;stroke-linecap:square;stroke-width:4.5;"/>
   </g>
   <g id="patch_3">
    <path d="M 59.690625 279.455678 
L 59.690625 35.276784 
" style="fill:none;stroke:#000000;stroke-linecap:square;stroke-linejoin:miter;stroke-width:0.8;"/>
   </g>
   <g id="patch_4">
    <path d="M 148.970625 288.430125 
L 327.530625 288.430125 
" style="fill:none;stroke:#000000;stroke-linecap:square;stroke-linejoin:miter;stroke-width:0.8;"/>
   </g>
   <g id="PathCollection_1">
    <defs>
     <path d="M 0 1.5 
C 0.397805 1.5 0.77937 1.341951 1.06066 1.06066 
C 1.341951 0.77937 1.5 0.397805 1.5 0 
C 1.5 -0.397805 1.341951 -0.77937 1.06066 -1.06066 
C 0.77937 -1.341951 0.397805 -1.5 0 -1.5 
C -0.397805 -1.5 -0.77937 -1.341951 -1.06066 -1.06066 
C -1.341951 -0.77937 -1.5 -0.397805 -1.5 0 
C -1.5 0.397805 -1.341951 0.77937 -1.06066 1.06066 
C -0.77937 1.341951 -0.397805 1.5 0 1.5 
z
" id="mb545c12e4f" style="stroke:#3f3f3f;"/>
    </defs>
    <g clip-path="url(#p3321cc78ff)">
     <use style="fill:#ffffff;stroke:#3f3f3f;" x="148.970625" xlink:href="#mb545c12e4f" y="129.529837"/>
    </g>
   </g>
   <g id="PathCollection_2">
    <g clip-path="url(#p3321cc78ff)">
     <use style="fill:#ffffff;stroke:#3f3f3f;" x="327.530625" xlink:href="#mb545c12e4f" y="184.50061"/>
    </g>
   </g>
   <g id="text_14">
    <!-- sqlite3_ossfuzz (23h:15m, 2 trials/fuzzer) -->
    <g transform="translate(114.572813 16.318125)scale(0.12 -0.12)">
     <defs>
      <path d="M 14.796875 27.296875 
Q 14.796875 17.390625 18.875 11.75 
Q 22.953125 6.109375 30.078125 6.109375 
Q 37.203125 6.109375 41.296875 11.75 
Q 45.40625 17.390625 45.40625 27.296875 
Q 45.40625 37.203125 41.296875 42.84375 
Q 37.203125 48.484375 30.078125 48.484375 
Q 22.953125 48.484375 18.875 42.84375 
Q 14.796875 37.203125 14.796875 27.296875 
z
M 45.40625 8.203125 
Q 42.578125 3.328125 38.25 0.953125 
Q 33.9375 -1.421875 27.875 -1.421875 
Q 17.96875 -1.421875 11.734375 6.484375 
Q 5.515625 14.40625 5.515625 27.296875 
Q 5.515625 40.1875 11.734375 48.09375 
Q 17.96875 56 27.875 56 
Q 33.9375 56 38.25 53.625 
Q 42.578125 51.265625 45.40625 46.390625 
L 45.40625 54.6875 
L 54.390625 54.6875 
L 54.390625 -20.796875 
L 45.40625 -20.796875 
z
" id="DejaVuSans-113"/>
      <path d="M 40.578125 39.3125 
Q 47.65625 37.796875 51.625 33 
Q 55.609375 28.21875 55.609375 21.1875 
Q 55.609375 10.40625 48.1875 4.484375 
Q 40.765625 -1.421875 27.09375 -1.421875 
Q 22.515625 -1.421875 17.65625 -0.515625 
Q 12.796875 0.390625 7.625 2.203125 
L 7.625 11.71875 
Q 11.71875 9.328125 16.59375 8.109375 
Q 21.484375 6.890625 26.8125 6.890625 
Q 36.078125 6.890625 40.9375 10.546875 
Q 45.796875 14.203125 45.796875 21.1875 
Q 45.796875 27.640625 41.28125 31.265625 
Q 36.765625 34.90625 28.71875 34.90625 
L 20.21875 34.90625 
L 20.21875 43.015625 
L 29.109375 43.015625 
Q 36.375 43.015625 40.234375 45.921875 
Q 44.09375 48.828125 44.09375 54.296875 
Q 44.09375 59.90625 40.109375 62.90625 
Q 36.140625 65.921875 28.71875 65.921875 
Q 24.65625 65.921875 20.015625 65.03125 
Q 15.375 64.15625 9.8125 62.3125 
L 9.8125 71.09375 
Q 15.4375 72.65625 20.34375 73.4375 
Q 25.25 74.21875 29.59375 74.21875 
Q 40.828125 74.21875 47.359375 69.109375 
Q 53.90625 64.015625 53.90625 55.328125 
Q 53.90625 49.265625 50.4375 45.09375 
Q 46.96875 40.921875 40.578125 39.3125 
z
" id="DejaVuSans-51"/>
      <path d="M 11.71875 12.40625 
L 22.015625 12.40625 
L 22.015625 0 
L 11.71875 0 
z
M 11.71875 51.703125 
L 22.015625 51.703125 
L 22.015625 39.3125 
L 11.71875 39.3125 
z
" id="DejaVuSans-58"/>
      <path d="M 12.40625 8.296875 
L 28.515625 8.296875 
L 28.515625 63.921875 
L 10.984375 60.40625 
L 10.984375 69.390625 
L 28.421875 72.90625 
L 38.28125 72.90625 
L 38.28125 8.296875 
L 54.390625 8.296875 
L 54.390625 0 
L 12.40625 0 
z
" id="DejaVuSans-49"/>
      <path d="M 11.71875 12.40625 
L 22.015625 12.40625 
L 22.015625 4 
L 14.015625 -11.625 
L 7.71875 -11.625 
L 11.71875 4 
z
" id="DejaVuSans-44"/>
      <path d="M 25.390625 72.90625 
L 33.6875 72.90625 
L 8.296875 -9.28125 
L 0 -9.28125 
z
" id="DejaVuSans-47"/>
     </defs>
     <use xlink:href="#DejaVuSans-115"/>
     <use x="52.099609" xlink:href="#DejaVuSans-113"/>
     <use x="115.576172" xlink:href="#DejaVuSans-108"/>
     <use x="143.359375" xlink:href="#DejaVuSans-105"/>
     <use x="171.142578" xlink:href="#DejaVuSans-116"/>
     <use x="210.351562" xlink:href="#DejaVuSans-101"/>
     <use x="271.875" xlink:href="#DejaVuSans-51"/>
     <use x="335.498047" xlink:href="#DejaVuSans-95"/>
     <use x="385.498047" xlink:href="#DejaVuSans-111"/>
     <use x="446.679688" xlink:href="#DejaVuSans-115"/>
     <use x="498.779297" xlink:href="#DejaVuSans-115"/>
     <use x="550.878906" xlink:href="#DejaVuSans-102"/>
     <use x="586.083984" xlink:href="#DejaVuSans-117"/>
     <use x="649.462891" xlink:href="#DejaVuSans-122"/>
     <use x="701.953125" xlink:href="#DejaVuSans-122"/>
     <use x="754.443359" xlink:href="#DejaVuSans-32"/>
     <use x="786.230469" xlink:href="#DejaVuSans-40"/>
     <use x="825.244141" xlink:href="#DejaVuSans-50"/>
     <use x="888.867188" xlink:href="#DejaVuSans-51"/>
     <use x="952.490234" xlink:href="#DejaVuSans-104"/>
     <use x="1015.869141" xlink:href="#DejaVuSans-58"/>
     <use x="1049.560547" xlink:href="#DejaVuSans-49"/>
     <use x="1113.183594" xlink:href="#DejaVuSans-53"/>
     <use x="1176.806641" xlink:href="#DejaVuSans-109"/>
     <use x="1274.21875" xlink:href="#DejaVuSans-44"/>
     <use x="1306.005859" xlink:href="#DejaVuSans-32"/>
     <use x="1337.792969" xlink:href="#DejaVuSans-50"/>
     <use x="1401.416016" xlink:href="#DejaVuSans-32"/>
     <use x="1433.203125" xlink:href="#DejaVuSans-116"/>
     <use x="1472.412109" xlink:href="#DejaVuSans-114"/>
     <use x="1513.525391" xlink:href="#DejaVuSans-105"/>
     <use x="1541.308594" xlink:href="#DejaVuSans-97"/>
     <use x="1602.587891" xlink:href="#DejaVuSans-108"/>
     <use x="1630.371094" xlink:href="#DejaVuSans-115"/>
     <use x="1682.470703" xlink:href="#DejaVuSans-47"/>
     <use x="1716.162109" xlink:href="#DejaVuSans-102"/>
     <use x="1751.367188" xlink:href="#DejaVuSans-117"/>
     <use x="1814.746094" xlink:href="#DejaVuSans-122"/>
     <use x="1867.236328" xlink:href="#DejaVuSans-122"/>
     <use x="1919.726562" xlink:href="#DejaVuSans-101"/>
     <use x="1981.25" xlink:href="#DejaVuSans-114"/>
     <use x="2022.363281" xlink:href="#DejaVuSans-41"/>
    </g>
   </g>
  </g>
 </g>
 <defs>
  <clipPath id="p3321cc78ff">
   <rect height="266.112" width="357.12" x="59.690625" y="22.318125"/>
  </clipPath>
 </defs>
</svg>
