<?xml version="1.0" encoding="utf-8" standalone="no"?>
<!DOCTYPE svg PUBLIC "-//W3C//DTD SVG 1.1//EN"
  "http://www.w3.org/Graphics/SVG/1.1/DTD/svg11.dtd">
<!-- Created with matplotlib (https://matplotlib.org/) -->
<svg height="325.986375pt" version="1.1" viewBox="0 0 902.505625 325.986375" width="902.505625pt" xmlns="http://www.w3.org/2000/svg" xmlns:xlink="http://www.w3.org/1999/xlink">
 <metadata>
  <rdf:RDF xmlns:cc="http://creativecommons.org/ns#" xmlns:dc="http://purl.org/dc/elements/1.1/" xmlns:rdf="http://www.w3.org/1999/02/22-rdf-syntax-ns#">
   <cc:Work>
    <dc:type rdf:resource="http://purl.org/dc/dcmitype/StillImage"/>
    <dc:date>2020-12-29T19:03:36.786781</dc:date>
    <dc:format>image/svg+xml</dc:format>
    <dc:creator>
     <cc:Agent>
      <dc:title>Matplotlib v3.3.2, https://matplotlib.org/</dc:title>
     </cc:Agent>
    </dc:creator>
   </cc:Work>
  </rdf:RDF>
 </metadata>
 <defs>
  <style type="text/css">*{stroke-linecap:butt;stroke-linejoin:round;}</style>
 </defs>
 <g id="figure_1">
  <g id="patch_1">
   <path d="M 0 325.986375 
L 902.505625 325.986375 
L 902.505625 0 
L 0 0 
z
" style="fill:#ffffff;"/>
  </g>
  <g id="axes_1">
   <g id="patch_2">
    <path d="M 59.690625 288.430125 
L 773.930625 288.430125 
L 773.930625 22.318125 
L 59.690625 22.318125 
z
" style="fill:#ffffff;"/>
   </g>
   <g id="PolyCollection_1">
    <defs>
     <path d="M 92.15608 -64.822776 
L 92.15608 -56.184261 
L 98.990912 -59.302442 
L 105.825745 -70.366208 
L 112.660577 -95.681215 
L 119.49541 -97.7831 
L 126.330242 -108.477305 
L 133.165075 -114.297908 
L 139.999907 -117.785651 
L 146.83474 -128.087196 
L 153.669572 -133.391952 
L 160.504405 -137.002883 
L 167.339237 -148.898164 
L 174.17407 -153.81796 
L 181.008903 -154.557085 
L 187.843735 -156.381798 
L 194.678568 -157.120922 
L 201.5134 -158.044827 
L 208.348233 -159.476881 
L 215.183065 -163.057014 
L 222.017898 -165.297484 
L 228.85273 -165.43607 
L 235.687563 -166.128999 
L 242.522395 -166.175194 
L 249.357228 -169.24718 
L 256.19206 -170.101792 
L 263.026893 -170.748526 
L 269.861725 -170.748526 
L 276.696558 -173.427852 
L 283.531391 -176.938692 
L 290.366223 -178.278355 
L 297.201056 -179.641115 
L 304.035888 -187.448115 
L 310.870721 -191.651885 
L 317.705553 -192.852962 
L 324.540386 -196.687169 
L 331.375218 -197.357001 
L 338.210051 -197.634172 
L 345.044883 -200.19801 
L 351.879716 -201.16811 
L 358.714548 -202.577066 
L 365.549381 -203.593362 
L 372.384214 -205.302587 
L 379.219046 -206.087906 
L 386.053879 -206.157199 
L 392.888711 -207.704741 
L 399.723544 -207.704741 
L 406.558376 -211.169386 
L 413.393209 -212.39356 
L 420.228041 -213.294368 
L 427.062874 -213.317466 
L 433.897706 -217.636723 
L 440.732539 -218.44514 
L 447.567371 -219.207362 
L 454.402204 -219.23046 
L 461.237036 -219.553827 
L 468.071869 -219.646217 
L 474.906702 -220.385342 
L 481.741534 -220.50083 
L 488.576367 -221.632614 
L 495.411199 -223.180155 
L 502.246032 -223.180155 
L 509.080864 -228.677392 
L 515.915697 -228.70049 
L 522.750529 -229.231736 
L 529.585362 -229.231736 
L 536.420194 -230.686887 
L 543.255027 -230.709984 
L 550.089859 -231.079546 
L 556.924692 -232.811869 
L 563.759525 -245.261494 
L 570.594357 -248.541358 
L 577.42919 -248.841627 
L 584.264022 -248.957115 
L 591.098855 -250.481559 
L 597.933687 -250.481559 
L 604.76852 -250.504657 
L 611.603352 -250.851121 
L 618.438185 -250.989707 
L 625.273017 -251.082097 
L 632.10785 -251.497855 
L 638.942682 -251.54405 
L 645.777515 -251.590245 
L 652.612347 -251.590245 
L 659.44718 -252.144589 
L 666.282013 -252.283174 
L 673.116845 -255.193476 
L 679.951678 -256.186675 
L 686.78651 -256.186675 
L 693.621343 -256.186675 
L 700.456175 -256.186675 
L 707.291008 -256.186675 
L 714.12584 -256.348358 
L 720.960673 -256.348358 
L 727.795505 -256.348358 
L 734.630338 -256.348358 
L 741.46517 -256.486944 
L 741.46517 -291.57225 
L 741.46517 -291.57225 
L 734.630338 -291.526055 
L 727.795505 -289.978513 
L 720.960673 -287.714945 
L 714.12584 -287.66875 
L 707.291008 -287.368481 
L 700.456175 -287.252992 
L 693.621343 -285.820939 
L 686.78651 -285.52067 
L 679.951678 -284.273398 
L 673.116845 -284.157909 
L 666.282013 -280.724061 
L 659.44718 -283.441883 
L 652.612347 -283.37259 
L 645.777515 -283.072321 
L 638.942682 -275.819664 
L 632.10785 -275.519394 
L 625.273017 -274.318317 
L 618.438185 -274.318317 
L 611.603352 -274.318317 
L 604.76852 -274.318317 
L 597.933687 -274.272122 
L 591.098855 -274.179732 
L 584.264022 -274.087341 
L 577.42919 -273.971853 
L 570.594357 -273.671584 
L 563.759525 -273.579193 
L 556.924692 -273.579193 
L 550.089859 -273.579193 
L 543.255027 -273.579193 
L 536.420194 -272.077847 
L 529.585362 -271.84687 
L 522.750529 -269.190643 
L 515.915697 -268.659397 
L 509.080864 -268.428421 
L 502.246032 -268.012663 
L 495.411199 -266.834684 
L 488.576367 -255.174421 
L 481.741534 -262.815696 
L 474.906702 -261.175764 
L 468.071869 -258.565731 
L 461.237036 -258.565731 
L 454.402204 -258.357852 
L 447.567371 -257.98829 
L 440.732539 -257.572533 
L 433.897706 -256.856506 
L 427.062874 -253.29947 
L 420.228041 -253.20708 
L 413.393209 -252.398663 
L 406.558376 -251.520952 
L 399.723544 -248.864725 
L 392.888711 -248.264186 
L 386.053879 -246.093008 
L 379.219046 -239.602573 
L 372.384214 -229.508907 
L 365.549381 -224.034768 
L 358.714548 -219.353647 
L 351.879716 -224.01167 
L 345.044883 -223.965475 
L 338.210051 -223.711401 
L 331.375218 -211.446557 
L 324.540386 -205.672149 
L 317.705553 -205.210196 
L 310.870721 -205.210196 
L 304.035888 -202.43848 
L 297.201056 -201.352891 
L 290.366223 -200.706157 
L 283.531391 -195.940346 
L 276.696558 -196.040435 
L 269.861725 -192.367912 
L 263.026893 -190.473906 
L 256.19206 -190.33532 
L 249.357228 -188.464411 
L 242.522395 -187.933166 
L 235.687563 -187.078553 
L 228.85273 -177.146571 
L 222.017898 -176.199568 
L 215.183065 -175.252565 
L 208.348233 -173.035192 
L 201.5134 -170.009402 
L 194.678568 -164.327384 
L 187.843735 -163.495869 
L 181.008903 -162.618159 
L 174.17407 -156.497286 
L 167.339237 -152.385907 
L 160.504405 -145.826179 
L 153.669572 -141.899581 
L 146.83474 -136.286856 
L 139.999907 -134.39285 
L 133.165075 -133.237968 
L 126.330242 -121.204101 
L 119.49541 -115.268009 
L 112.660577 -104.735488 
L 105.825745 -94.734212 
L 98.990912 -83.853494 
L 92.15608 -64.822776 
z
" id="md90888e9d0" style="stroke:#1f77b4;stroke-opacity:0.2;"/>
    </defs>
    <g clip-path="url(#pd5cc04c22b)">
     <use style="fill:#1f77b4;fill-opacity:0.2;stroke:#1f77b4;stroke-opacity:0.2;" x="0" xlink:href="#md90888e9d0" y="325.986375"/>
    </g>
   </g>
   <g id="PolyCollection_2">
    <defs>
     <path d="M 92.15608 -66.457627 
L 92.15608 -49.65225 
L 98.990912 -69.008067 
L 105.825745 -72.320268 
L 112.660577 -88.321154 
L 119.49541 -92.082604 
L 126.330242 -96.99778 
L 133.165075 -100.698714 
L 139.999907 -101.876001 
L 146.83474 -107.040632 
L 153.669572 -118.293799 
L 160.504405 -120.173946 
L 167.339237 -126.701338 
L 174.17407 -131.681188 
L 181.008903 -135.07654 
L 187.843735 -136.767287 
L 194.678568 -138.665912 
L 201.5134 -139.502047 
L 208.348233 -141.52078 
L 215.183065 -143.165331 
L 222.017898 -146.11259 
L 228.85273 -147.978878 
L 235.687563 -150.478042 
L 242.522395 -157.291844 
L 249.357228 -158.169555 
L 256.19206 -160.326874 
L 263.026893 -161.583385 
L 269.861725 -172.447588 
L 276.696558 -176.102558 
L 283.531391 -176.439783 
L 290.366223 -176.853231 
L 297.201056 -180.606596 
L 304.035888 -182.51908 
L 310.870721 -183.225868 
L 317.705553 -186.011443 
L 324.540386 -186.196224 
L 331.375218 -188.496748 
L 338.210051 -189.397209 
L 345.044883 -192.215467 
L 351.879716 -193.883116 
L 358.714548 -192.645083 
L 365.549381 -192.908165 
L 372.384214 -195.065715 
L 379.219046 -196.126012 
L 386.053879 -198.775195 
L 392.888711 -199.793339 
L 399.723544 -201.613317 
L 406.558376 -203.995261 
L 413.393209 -205.56128 
L 420.228041 -206.198775 
L 427.062874 -206.462088 
L 433.897706 -207.506101 
L 440.732539 -211.384194 
L 447.567371 -211.548187 
L 454.402204 -216.491081 
L 461.237036 -217.202488 
L 468.071869 -218.758806 
L 474.906702 -219.62312 
L 481.741534 -220.676372 
L 488.576367 -222.510324 
L 495.411199 -223.729879 
L 502.246032 -222.889125 
L 509.080864 -225.813286 
L 515.915697 -224.579872 
L 522.750529 -226.053501 
L 529.585362 -226.381488 
L 536.420194 -232.488502 
L 543.255027 -234.94609 
L 550.089859 -235.860757 
L 556.924692 -236.142548 
L 563.759525 -237.500689 
L 570.594357 -237.814816 
L 577.42919 -239.667247 
L 584.264022 -240.332459 
L 591.098855 -240.634576 
L 597.933687 -241.270222 
L 604.76852 -245.959042 
L 611.603352 -246.102248 
L 618.438185 -247.358759 
L 625.273017 -247.73756 
L 632.10785 -248.304607 
L 638.942682 -250.121236 
L 645.777515 -249.765532 
L 652.612347 -249.811728 
L 659.44718 -250.125855 
L 666.282013 -251.562528 
L 673.116845 -251.69303 
L 679.951678 -251.770407 
L 686.78651 -251.086717 
L 693.621343 -253.373383 
L 700.456175 -253.428817 
L 707.291008 -254.361961 
L 714.12584 -255.114944 
L 720.960673 -256.706718 
L 727.795505 -258.122256 
L 734.630338 -258.145354 
L 741.46517 -253.322568 
L 741.46517 -283.003028 
L 741.46517 -283.003028 
L 734.630338 -279.265831 
L 727.795505 -279.201157 
L 720.960673 -278.468154 
L 714.12584 -277.584323 
L 707.291008 -277.066936 
L 700.456175 -274.142775 
L 693.621343 -273.828647 
L 686.78651 -271.583557 
L 679.951678 -271.135463 
L 673.116845 -271.001497 
L 666.282013 -270.705847 
L 659.44718 -270.059114 
L 652.612347 -269.837376 
L 645.777515 -266.977889 
L 638.942682 -266.631425 
L 632.10785 -265.531977 
L 625.273017 -264.178456 
L 618.438185 -262.497526 
L 611.603352 -262.880369 
L 604.76852 -262.456527 
L 597.933687 -262.487709 
L 591.098855 -262.38146 
L 584.264022 -261.928746 
L 577.42919 -261.568423 
L 570.594357 -260.390444 
L 563.759525 -260.934393 
L 556.924692 -258.847522 
L 550.089859 -254.883968 
L 543.255027 -253.239416 
L 536.420194 -250.352212 
L 529.585362 -249.164994 
L 522.750529 -249.677761 
L 515.915697 -245.256874 
L 509.080864 -245.164484 
L 502.246032 -239.976755 
L 495.411199 -239.256109 
L 488.576367 -238.318345 
L 481.741534 -236.327329 
L 474.906702 -235.874615 
L 468.071869 -234.75669 
L 461.237036 -233.943653 
L 454.402204 -232.299101 
L 447.567371 -232.336058 
L 440.732539 -230.500373 
L 433.897706 -229.661352 
L 427.062874 -228.243157 
L 420.228041 -226.917353 
L 413.393209 -227.03746 
L 406.558376 -225.000249 
L 399.723544 -223.799172 
L 392.888711 -223.13858 
L 386.053879 -223.859226 
L 379.219046 -214.694085 
L 372.384214 -213.982678 
L 365.549381 -212.730786 
L 358.714548 -211.409601 
L 351.879716 -210.827541 
L 345.044883 -209.705689 
L 338.210051 -207.644687 
L 331.375218 -206.596054 
L 324.540386 -202.301049 
L 317.705553 -201.140393 
L 310.870721 -194.973325 
L 304.035888 -192.376227 
L 297.201056 -191.614929 
L 290.366223 -188.96332 
L 283.531391 -188.205718 
L 276.696558 -184.750312 
L 269.861725 -180.264751 
L 263.026893 -176.897463 
L 256.19206 -174.42105 
L 249.357228 -172.383839 
L 242.522395 -171.49227 
L 235.687563 -167.822633 
L 228.85273 -165.759437 
L 222.017898 -163.010819 
L 215.183065 -157.758417 
L 208.348233 -154.062795 
L 201.5134 -150.593531 
L 194.678568 -149.156973 
L 187.843735 -146.837855 
L 181.008903 -144.652819 
L 174.17407 -141.885722 
L 167.339237 -141.100403 
L 160.504405 -132.951558 
L 153.669572 -130.692609 
L 146.83474 -129.750226 
L 139.999907 -126.701338 
L 133.165075 -124.119022 
L 126.330242 -120.183185 
L 119.49541 -114.718285 
L 112.660577 -106.855851 
L 105.825745 -84.746795 
L 98.990912 -76.69496 
L 92.15608 -66.457627 
z
" id="mfdacb9b5df" style="stroke:#98df8a;stroke-opacity:0.2;"/>
    </defs>
    <g clip-path="url(#pd5cc04c22b)">
     <use style="fill:#98df8a;fill-opacity:0.2;stroke:#98df8a;stroke-opacity:0.2;" x="0" xlink:href="#mfdacb9b5df" y="325.986375"/>
    </g>
   </g>
   <g id="matplotlib.axis_1">
    <g id="xtick_1">
     <g id="line2d_1">
      <defs>
       <path d="M 0 0 
L 0 3.5 
" id="m89cf474e22" style="stroke:#000000;stroke-width:0.8;"/>
      </defs>
      <g>
       <use style="stroke:#000000;stroke-width:0.8;" x="92.15608" xlink:href="#m89cf474e22" y="288.430125"/>
      </g>
     </g>
     <g id="text_1">
      <!-- 15m -->
      <g transform="translate(80.923267 303.028562)scale(0.1 -0.1)">
       <defs>
        <path d="M 12.40625 8.296875 
L 28.515625 8.296875 
L 28.515625 63.921875 
L 10.984375 60.40625 
L 10.984375 69.390625 
L 28.421875 72.90625 
L 38.28125 72.90625 
L 38.28125 8.296875 
L 54.390625 8.296875 
L 54.390625 0 
L 12.40625 0 
z
" id="DejaVuSans-49"/>
        <path d="M 10.796875 72.90625 
L 49.515625 72.90625 
L 49.515625 64.59375 
L 19.828125 64.59375 
L 19.828125 46.734375 
Q 21.96875 47.46875 24.109375 47.828125 
Q 26.265625 48.1875 28.421875 48.1875 
Q 40.625 48.1875 47.75 41.5 
Q 54.890625 34.8125 54.890625 23.390625 
Q 54.890625 11.625 47.5625 5.09375 
Q 40.234375 -1.421875 26.90625 -1.421875 
Q 22.3125 -1.421875 17.546875 -0.640625 
Q 12.796875 0.140625 7.71875 1.703125 
L 7.71875 11.625 
Q 12.109375 9.234375 16.796875 8.0625 
Q 21.484375 6.890625 26.703125 6.890625 
Q 35.15625 6.890625 40.078125 11.328125 
Q 45.015625 15.765625 45.015625 23.390625 
Q 45.015625 31 40.078125 35.4375 
Q 35.15625 39.890625 26.703125 39.890625 
Q 22.75 39.890625 18.8125 39.015625 
Q 14.890625 38.140625 10.796875 36.28125 
z
" id="DejaVuSans-53"/>
        <path d="M 52 44.1875 
Q 55.375 50.25 60.0625 53.125 
Q 64.75 56 71.09375 56 
Q 79.640625 56 84.28125 50.015625 
Q 88.921875 44.046875 88.921875 33.015625 
L 88.921875 0 
L 79.890625 0 
L 79.890625 32.71875 
Q 79.890625 40.578125 77.09375 44.375 
Q 74.3125 48.1875 68.609375 48.1875 
Q 61.625 48.1875 57.5625 43.546875 
Q 53.515625 38.921875 53.515625 30.90625 
L 53.515625 0 
L 44.484375 0 
L 44.484375 32.71875 
Q 44.484375 40.625 41.703125 44.40625 
Q 38.921875 48.1875 33.109375 48.1875 
Q 26.21875 48.1875 22.15625 43.53125 
Q 18.109375 38.875 18.109375 30.90625 
L 18.109375 0 
L 9.078125 0 
L 9.078125 54.6875 
L 18.109375 54.6875 
L 18.109375 46.1875 
Q 21.1875 51.21875 25.484375 53.609375 
Q 29.78125 56 35.6875 56 
Q 41.65625 56 45.828125 52.96875 
Q 50 49.953125 52 44.1875 
z
" id="DejaVuSans-109"/>
       </defs>
       <use xlink:href="#DejaVuSans-49"/>
       <use x="63.623047" xlink:href="#DejaVuSans-53"/>
       <use x="127.246094" xlink:href="#DejaVuSans-109"/>
      </g>
     </g>
    </g>
    <g id="xtick_2">
     <g id="line2d_2">
      <g>
       <use style="stroke:#000000;stroke-width:0.8;" x="146.83474" xlink:href="#m89cf474e22" y="288.430125"/>
      </g>
     </g>
     <g id="text_2">
      <!-- 2h:15m -->
      <g transform="translate(127.567552 303.028562)scale(0.1 -0.1)">
       <defs>
        <path d="M 19.1875 8.296875 
L 53.609375 8.296875 
L 53.609375 0 
L 7.328125 0 
L 7.328125 8.296875 
Q 12.9375 14.109375 22.625 23.890625 
Q 32.328125 33.6875 34.8125 36.53125 
Q 39.546875 41.84375 41.421875 45.53125 
Q 43.3125 49.21875 43.3125 52.78125 
Q 43.3125 58.59375 39.234375 62.25 
Q 35.15625 65.921875 28.609375 65.921875 
Q 23.96875 65.921875 18.8125 64.3125 
Q 13.671875 62.703125 7.8125 59.421875 
L 7.8125 69.390625 
Q 13.765625 71.78125 18.9375 73 
Q 24.125 74.21875 28.421875 74.21875 
Q 39.75 74.21875 46.484375 68.546875 
Q 53.21875 62.890625 53.21875 53.421875 
Q 53.21875 48.921875 51.53125 44.890625 
Q 49.859375 40.875 45.40625 35.40625 
Q 44.1875 33.984375 37.640625 27.21875 
Q 31.109375 20.453125 19.1875 8.296875 
z
" id="DejaVuSans-50"/>
        <path d="M 54.890625 33.015625 
L 54.890625 0 
L 45.90625 0 
L 45.90625 32.71875 
Q 45.90625 40.484375 42.875 44.328125 
Q 39.84375 48.1875 33.796875 48.1875 
Q 26.515625 48.1875 22.3125 43.546875 
Q 18.109375 38.921875 18.109375 30.90625 
L 18.109375 0 
L 9.078125 0 
L 9.078125 75.984375 
L 18.109375 75.984375 
L 18.109375 46.1875 
Q 21.34375 51.125 25.703125 53.5625 
Q 30.078125 56 35.796875 56 
Q 45.21875 56 50.046875 50.171875 
Q 54.890625 44.34375 54.890625 33.015625 
z
" id="DejaVuSans-104"/>
        <path d="M 11.71875 12.40625 
L 22.015625 12.40625 
L 22.015625 0 
L 11.71875 0 
z
M 11.71875 51.703125 
L 22.015625 51.703125 
L 22.015625 39.3125 
L 11.71875 39.3125 
z
" id="DejaVuSans-58"/>
       </defs>
       <use xlink:href="#DejaVuSans-50"/>
       <use x="63.623047" xlink:href="#DejaVuSans-104"/>
       <use x="127.001953" xlink:href="#DejaVuSans-58"/>
       <use x="160.693359" xlink:href="#DejaVuSans-49"/>
       <use x="224.316406" xlink:href="#DejaVuSans-53"/>
       <use x="287.939453" xlink:href="#DejaVuSans-109"/>
      </g>
     </g>
    </g>
    <g id="xtick_3">
     <g id="line2d_3">
      <g>
       <use style="stroke:#000000;stroke-width:0.8;" x="201.5134" xlink:href="#m89cf474e22" y="288.430125"/>
      </g>
     </g>
     <g id="text_3">
      <!-- 4h:15m -->
      <g transform="translate(182.246213 303.028562)scale(0.1 -0.1)">
       <defs>
        <path d="M 37.796875 64.3125 
L 12.890625 25.390625 
L 37.796875 25.390625 
z
M 35.203125 72.90625 
L 47.609375 72.90625 
L 47.609375 25.390625 
L 58.015625 25.390625 
L 58.015625 17.1875 
L 47.609375 17.1875 
L 47.609375 0 
L 37.796875 0 
L 37.796875 17.1875 
L 4.890625 17.1875 
L 4.890625 26.703125 
z
" id="DejaVuSans-52"/>
       </defs>
       <use xlink:href="#DejaVuSans-52"/>
       <use x="63.623047" xlink:href="#DejaVuSans-104"/>
       <use x="127.001953" xlink:href="#DejaVuSans-58"/>
       <use x="160.693359" xlink:href="#DejaVuSans-49"/>
       <use x="224.316406" xlink:href="#DejaVuSans-53"/>
       <use x="287.939453" xlink:href="#DejaVuSans-109"/>
      </g>
     </g>
    </g>
    <g id="xtick_4">
     <g id="line2d_4">
      <g>
       <use style="stroke:#000000;stroke-width:0.8;" x="256.19206" xlink:href="#m89cf474e22" y="288.430125"/>
      </g>
     </g>
     <g id="text_4">
      <!-- 6h:15m -->
      <g transform="translate(236.924873 303.028562)scale(0.1 -0.1)">
       <defs>
        <path d="M 33.015625 40.375 
Q 26.375 40.375 22.484375 35.828125 
Q 18.609375 31.296875 18.609375 23.390625 
Q 18.609375 15.53125 22.484375 10.953125 
Q 26.375 6.390625 33.015625 6.390625 
Q 39.65625 6.390625 43.53125 10.953125 
Q 47.40625 15.53125 47.40625 23.390625 
Q 47.40625 31.296875 43.53125 35.828125 
Q 39.65625 40.375 33.015625 40.375 
z
M 52.59375 71.296875 
L 52.59375 62.3125 
Q 48.875 64.0625 45.09375 64.984375 
Q 41.3125 65.921875 37.59375 65.921875 
Q 27.828125 65.921875 22.671875 59.328125 
Q 17.53125 52.734375 16.796875 39.40625 
Q 19.671875 43.65625 24.015625 45.921875 
Q 28.375 48.1875 33.59375 48.1875 
Q 44.578125 48.1875 50.953125 41.515625 
Q 57.328125 34.859375 57.328125 23.390625 
Q 57.328125 12.15625 50.6875 5.359375 
Q 44.046875 -1.421875 33.015625 -1.421875 
Q 20.359375 -1.421875 13.671875 8.265625 
Q 6.984375 17.96875 6.984375 36.375 
Q 6.984375 53.65625 15.1875 63.9375 
Q 23.390625 74.21875 37.203125 74.21875 
Q 40.921875 74.21875 44.703125 73.484375 
Q 48.484375 72.75 52.59375 71.296875 
z
" id="DejaVuSans-54"/>
       </defs>
       <use xlink:href="#DejaVuSans-54"/>
       <use x="63.623047" xlink:href="#DejaVuSans-104"/>
       <use x="127.001953" xlink:href="#DejaVuSans-58"/>
       <use x="160.693359" xlink:href="#DejaVuSans-49"/>
       <use x="224.316406" xlink:href="#DejaVuSans-53"/>
       <use x="287.939453" xlink:href="#DejaVuSans-109"/>
      </g>
     </g>
    </g>
    <g id="xtick_5">
     <g id="line2d_5">
      <g>
       <use style="stroke:#000000;stroke-width:0.8;" x="310.870721" xlink:href="#m89cf474e22" y="288.430125"/>
      </g>
     </g>
     <g id="text_5">
      <!-- 8h:15m -->
      <g transform="translate(291.603533 303.028562)scale(0.1 -0.1)">
       <defs>
        <path d="M 31.78125 34.625 
Q 24.75 34.625 20.71875 30.859375 
Q 16.703125 27.09375 16.703125 20.515625 
Q 16.703125 13.921875 20.71875 10.15625 
Q 24.75 6.390625 31.78125 6.390625 
Q 38.8125 6.390625 42.859375 10.171875 
Q 46.921875 13.96875 46.921875 20.515625 
Q 46.921875 27.09375 42.890625 30.859375 
Q 38.875 34.625 31.78125 34.625 
z
M 21.921875 38.8125 
Q 15.578125 40.375 12.03125 44.71875 
Q 8.5 49.078125 8.5 55.328125 
Q 8.5 64.0625 14.71875 69.140625 
Q 20.953125 74.21875 31.78125 74.21875 
Q 42.671875 74.21875 48.875 69.140625 
Q 55.078125 64.0625 55.078125 55.328125 
Q 55.078125 49.078125 51.53125 44.71875 
Q 48 40.375 41.703125 38.8125 
Q 48.828125 37.15625 52.796875 32.3125 
Q 56.78125 27.484375 56.78125 20.515625 
Q 56.78125 9.90625 50.3125 4.234375 
Q 43.84375 -1.421875 31.78125 -1.421875 
Q 19.734375 -1.421875 13.25 4.234375 
Q 6.78125 9.90625 6.78125 20.515625 
Q 6.78125 27.484375 10.78125 32.3125 
Q 14.796875 37.15625 21.921875 38.8125 
z
M 18.3125 54.390625 
Q 18.3125 48.734375 21.84375 45.5625 
Q 25.390625 42.390625 31.78125 42.390625 
Q 38.140625 42.390625 41.71875 45.5625 
Q 45.3125 48.734375 45.3125 54.390625 
Q 45.3125 60.0625 41.71875 63.234375 
Q 38.140625 66.40625 31.78125 66.40625 
Q 25.390625 66.40625 21.84375 63.234375 
Q 18.3125 60.0625 18.3125 54.390625 
z
" id="DejaVuSans-56"/>
       </defs>
       <use xlink:href="#DejaVuSans-56"/>
       <use x="63.623047" xlink:href="#DejaVuSans-104"/>
       <use x="127.001953" xlink:href="#DejaVuSans-58"/>
       <use x="160.693359" xlink:href="#DejaVuSans-49"/>
       <use x="224.316406" xlink:href="#DejaVuSans-53"/>
       <use x="287.939453" xlink:href="#DejaVuSans-109"/>
      </g>
     </g>
    </g>
    <g id="xtick_6">
     <g id="line2d_6">
      <g>
       <use style="stroke:#000000;stroke-width:0.8;" x="365.549381" xlink:href="#m89cf474e22" y="288.430125"/>
      </g>
     </g>
     <g id="text_6">
      <!-- 10h:15m -->
      <g transform="translate(343.100943 303.028562)scale(0.1 -0.1)">
       <defs>
        <path d="M 31.78125 66.40625 
Q 24.171875 66.40625 20.328125 58.90625 
Q 16.5 51.421875 16.5 36.375 
Q 16.5 21.390625 20.328125 13.890625 
Q 24.171875 6.390625 31.78125 6.390625 
Q 39.453125 6.390625 43.28125 13.890625 
Q 47.125 21.390625 47.125 36.375 
Q 47.125 51.421875 43.28125 58.90625 
Q 39.453125 66.40625 31.78125 66.40625 
z
M 31.78125 74.21875 
Q 44.046875 74.21875 50.515625 64.515625 
Q 56.984375 54.828125 56.984375 36.375 
Q 56.984375 17.96875 50.515625 8.265625 
Q 44.046875 -1.421875 31.78125 -1.421875 
Q 19.53125 -1.421875 13.0625 8.265625 
Q 6.59375 17.96875 6.59375 36.375 
Q 6.59375 54.828125 13.0625 64.515625 
Q 19.53125 74.21875 31.78125 74.21875 
z
" id="DejaVuSans-48"/>
       </defs>
       <use xlink:href="#DejaVuSans-49"/>
       <use x="63.623047" xlink:href="#DejaVuSans-48"/>
       <use x="127.246094" xlink:href="#DejaVuSans-104"/>
       <use x="190.625" xlink:href="#DejaVuSans-58"/>
       <use x="224.316406" xlink:href="#DejaVuSans-49"/>
       <use x="287.939453" xlink:href="#DejaVuSans-53"/>
       <use x="351.5625" xlink:href="#DejaVuSans-109"/>
      </g>
     </g>
    </g>
    <g id="xtick_7">
     <g id="line2d_7">
      <g>
       <use style="stroke:#000000;stroke-width:0.8;" x="420.228041" xlink:href="#m89cf474e22" y="288.430125"/>
      </g>
     </g>
     <g id="text_7">
      <!-- 12h:15m -->
      <g transform="translate(397.779604 303.028562)scale(0.1 -0.1)">
       <use xlink:href="#DejaVuSans-49"/>
       <use x="63.623047" xlink:href="#DejaVuSans-50"/>
       <use x="127.246094" xlink:href="#DejaVuSans-104"/>
       <use x="190.625" xlink:href="#DejaVuSans-58"/>
       <use x="224.316406" xlink:href="#DejaVuSans-49"/>
       <use x="287.939453" xlink:href="#DejaVuSans-53"/>
       <use x="351.5625" xlink:href="#DejaVuSans-109"/>
      </g>
     </g>
    </g>
    <g id="xtick_8">
     <g id="line2d_8">
      <g>
       <use style="stroke:#000000;stroke-width:0.8;" x="474.906702" xlink:href="#m89cf474e22" y="288.430125"/>
      </g>
     </g>
     <g id="text_8">
      <!-- 14h:15m -->
      <g transform="translate(452.458264 303.028562)scale(0.1 -0.1)">
       <use xlink:href="#DejaVuSans-49"/>
       <use x="63.623047" xlink:href="#DejaVuSans-52"/>
       <use x="127.246094" xlink:href="#DejaVuSans-104"/>
       <use x="190.625" xlink:href="#DejaVuSans-58"/>
       <use x="224.316406" xlink:href="#DejaVuSans-49"/>
       <use x="287.939453" xlink:href="#DejaVuSans-53"/>
       <use x="351.5625" xlink:href="#DejaVuSans-109"/>
      </g>
     </g>
    </g>
    <g id="xtick_9">
     <g id="line2d_9">
      <g>
       <use style="stroke:#000000;stroke-width:0.8;" x="529.585362" xlink:href="#m89cf474e22" y="288.430125"/>
      </g>
     </g>
     <g id="text_9">
      <!-- 16h:15m -->
      <g transform="translate(507.136924 303.028562)scale(0.1 -0.1)">
       <use xlink:href="#DejaVuSans-49"/>
       <use x="63.623047" xlink:href="#DejaVuSans-54"/>
       <use x="127.246094" xlink:href="#DejaVuSans-104"/>
       <use x="190.625" xlink:href="#DejaVuSans-58"/>
       <use x="224.316406" xlink:href="#DejaVuSans-49"/>
       <use x="287.939453" xlink:href="#DejaVuSans-53"/>
       <use x="351.5625" xlink:href="#DejaVuSans-109"/>
      </g>
     </g>
    </g>
    <g id="xtick_10">
     <g id="line2d_10">
      <g>
       <use style="stroke:#000000;stroke-width:0.8;" x="584.264022" xlink:href="#m89cf474e22" y="288.430125"/>
      </g>
     </g>
     <g id="text_10">
      <!-- 18h:15m -->
      <g transform="translate(561.815585 303.028562)scale(0.1 -0.1)">
       <use xlink:href="#DejaVuSans-49"/>
       <use x="63.623047" xlink:href="#DejaVuSans-56"/>
       <use x="127.246094" xlink:href="#DejaVuSans-104"/>
       <use x="190.625" xlink:href="#DejaVuSans-58"/>
       <use x="224.316406" xlink:href="#DejaVuSans-49"/>
       <use x="287.939453" xlink:href="#DejaVuSans-53"/>
       <use x="351.5625" xlink:href="#DejaVuSans-109"/>
      </g>
     </g>
    </g>
    <g id="xtick_11">
     <g id="line2d_11">
      <g>
       <use style="stroke:#000000;stroke-width:0.8;" x="638.942682" xlink:href="#m89cf474e22" y="288.430125"/>
      </g>
     </g>
     <g id="text_11">
      <!-- 20h:15m -->
      <g transform="translate(616.494245 303.028562)scale(0.1 -0.1)">
       <use xlink:href="#DejaVuSans-50"/>
       <use x="63.623047" xlink:href="#DejaVuSans-48"/>
       <use x="127.246094" xlink:href="#DejaVuSans-104"/>
       <use x="190.625" xlink:href="#DejaVuSans-58"/>
       <use x="224.316406" xlink:href="#DejaVuSans-49"/>
       <use x="287.939453" xlink:href="#DejaVuSans-53"/>
       <use x="351.5625" xlink:href="#DejaVuSans-109"/>
      </g>
     </g>
    </g>
    <g id="xtick_12">
     <g id="line2d_12">
      <g>
       <use style="stroke:#000000;stroke-width:0.8;" x="693.621343" xlink:href="#m89cf474e22" y="288.430125"/>
      </g>
     </g>
     <g id="text_12">
      <!-- 22h:15m -->
      <g transform="translate(671.172905 303.028562)scale(0.1 -0.1)">
       <use xlink:href="#DejaVuSans-50"/>
       <use x="63.623047" xlink:href="#DejaVuSans-50"/>
       <use x="127.246094" xlink:href="#DejaVuSans-104"/>
       <use x="190.625" xlink:href="#DejaVuSans-58"/>
       <use x="224.316406" xlink:href="#DejaVuSans-49"/>
       <use x="287.939453" xlink:href="#DejaVuSans-53"/>
       <use x="351.5625" xlink:href="#DejaVuSans-109"/>
      </g>
     </g>
    </g>
    <g id="text_13">
     <!-- Time (hour:minute) -->
     <g transform="translate(368.403594 316.706687)scale(0.1 -0.1)">
      <defs>
       <path d="M -0.296875 72.90625 
L 61.375 72.90625 
L 61.375 64.59375 
L 35.5 64.59375 
L 35.5 0 
L 25.59375 0 
L 25.59375 64.59375 
L -0.296875 64.59375 
z
" id="DejaVuSans-84"/>
       <path d="M 9.421875 54.6875 
L 18.40625 54.6875 
L 18.40625 0 
L 9.421875 0 
z
M 9.421875 75.984375 
L 18.40625 75.984375 
L 18.40625 64.59375 
L 9.421875 64.59375 
z
" id="DejaVuSans-105"/>
       <path d="M 56.203125 29.59375 
L 56.203125 25.203125 
L 14.890625 25.203125 
Q 15.484375 15.921875 20.484375 11.0625 
Q 25.484375 6.203125 34.421875 6.203125 
Q 39.59375 6.203125 44.453125 7.46875 
Q 49.3125 8.734375 54.109375 11.28125 
L 54.109375 2.78125 
Q 49.265625 0.734375 44.1875 -0.34375 
Q 39.109375 -1.421875 33.890625 -1.421875 
Q 20.796875 -1.421875 13.15625 6.1875 
Q 5.515625 13.8125 5.515625 26.8125 
Q 5.515625 40.234375 12.765625 48.109375 
Q 20.015625 56 32.328125 56 
Q 43.359375 56 49.78125 48.890625 
Q 56.203125 41.796875 56.203125 29.59375 
z
M 47.21875 32.234375 
Q 47.125 39.59375 43.09375 43.984375 
Q 39.0625 48.390625 32.421875 48.390625 
Q 24.90625 48.390625 20.390625 44.140625 
Q 15.875 39.890625 15.1875 32.171875 
z
" id="DejaVuSans-101"/>
       <path id="DejaVuSans-32"/>
       <path d="M 31 75.875 
Q 24.46875 64.65625 21.28125 53.65625 
Q 18.109375 42.671875 18.109375 31.390625 
Q 18.109375 20.125 21.3125 9.0625 
Q 24.515625 -2 31 -13.1875 
L 23.1875 -13.1875 
Q 15.875 -1.703125 12.234375 9.375 
Q 8.59375 20.453125 8.59375 31.390625 
Q 8.59375 42.28125 12.203125 53.3125 
Q 15.828125 64.359375 23.1875 75.875 
z
" id="DejaVuSans-40"/>
       <path d="M 30.609375 48.390625 
Q 23.390625 48.390625 19.1875 42.75 
Q 14.984375 37.109375 14.984375 27.296875 
Q 14.984375 17.484375 19.15625 11.84375 
Q 23.34375 6.203125 30.609375 6.203125 
Q 37.796875 6.203125 41.984375 11.859375 
Q 46.1875 17.53125 46.1875 27.296875 
Q 46.1875 37.015625 41.984375 42.703125 
Q 37.796875 48.390625 30.609375 48.390625 
z
M 30.609375 56 
Q 42.328125 56 49.015625 48.375 
Q 55.71875 40.765625 55.71875 27.296875 
Q 55.71875 13.875 49.015625 6.21875 
Q 42.328125 -1.421875 30.609375 -1.421875 
Q 18.84375 -1.421875 12.171875 6.21875 
Q 5.515625 13.875 5.515625 27.296875 
Q 5.515625 40.765625 12.171875 48.375 
Q 18.84375 56 30.609375 56 
z
" id="DejaVuSans-111"/>
       <path d="M 8.5 21.578125 
L 8.5 54.6875 
L 17.484375 54.6875 
L 17.484375 21.921875 
Q 17.484375 14.15625 20.5 10.265625 
Q 23.53125 6.390625 29.59375 6.390625 
Q 36.859375 6.390625 41.078125 11.03125 
Q 45.3125 15.671875 45.3125 23.6875 
L 45.3125 54.6875 
L 54.296875 54.6875 
L 54.296875 0 
L 45.3125 0 
L 45.3125 8.40625 
Q 42.046875 3.421875 37.71875 1 
Q 33.40625 -1.421875 27.6875 -1.421875 
Q 18.265625 -1.421875 13.375 4.4375 
Q 8.5 10.296875 8.5 21.578125 
z
M 31.109375 56 
z
" id="DejaVuSans-117"/>
       <path d="M 41.109375 46.296875 
Q 39.59375 47.171875 37.8125 47.578125 
Q 36.03125 48 33.890625 48 
Q 26.265625 48 22.1875 43.046875 
Q 18.109375 38.09375 18.109375 28.8125 
L 18.109375 0 
L 9.078125 0 
L 9.078125 54.6875 
L 18.109375 54.6875 
L 18.109375 46.1875 
Q 20.953125 51.171875 25.484375 53.578125 
Q 30.03125 56 36.53125 56 
Q 37.453125 56 38.578125 55.875 
Q 39.703125 55.765625 41.0625 55.515625 
z
" id="DejaVuSans-114"/>
       <path d="M 54.890625 33.015625 
L 54.890625 0 
L 45.90625 0 
L 45.90625 32.71875 
Q 45.90625 40.484375 42.875 44.328125 
Q 39.84375 48.1875 33.796875 48.1875 
Q 26.515625 48.1875 22.3125 43.546875 
Q 18.109375 38.921875 18.109375 30.90625 
L 18.109375 0 
L 9.078125 0 
L 9.078125 54.6875 
L 18.109375 54.6875 
L 18.109375 46.1875 
Q 21.34375 51.125 25.703125 53.5625 
Q 30.078125 56 35.796875 56 
Q 45.21875 56 50.046875 50.171875 
Q 54.890625 44.34375 54.890625 33.015625 
z
" id="DejaVuSans-110"/>
       <path d="M 18.3125 70.21875 
L 18.3125 54.6875 
L 36.8125 54.6875 
L 36.8125 47.703125 
L 18.3125 47.703125 
L 18.3125 18.015625 
Q 18.3125 11.328125 20.140625 9.421875 
Q 21.96875 7.515625 27.59375 7.515625 
L 36.8125 7.515625 
L 36.8125 0 
L 27.59375 0 
Q 17.1875 0 13.234375 3.875 
Q 9.28125 7.765625 9.28125 18.015625 
L 9.28125 47.703125 
L 2.6875 47.703125 
L 2.6875 54.6875 
L 9.28125 54.6875 
L 9.28125 70.21875 
z
" id="DejaVuSans-116"/>
       <path d="M 8.015625 75.875 
L 15.828125 75.875 
Q 23.140625 64.359375 26.78125 53.3125 
Q 30.421875 42.28125 30.421875 31.390625 
Q 30.421875 20.453125 26.78125 9.375 
Q 23.140625 -1.703125 15.828125 -13.1875 
L 8.015625 -13.1875 
Q 14.5 -2 17.703125 9.0625 
Q 20.90625 20.125 20.90625 31.390625 
Q 20.90625 42.671875 17.703125 53.65625 
Q 14.5 64.65625 8.015625 75.875 
z
" id="DejaVuSans-41"/>
      </defs>
      <use xlink:href="#DejaVuSans-84"/>
      <use x="57.958984" xlink:href="#DejaVuSans-105"/>
      <use x="85.742188" xlink:href="#DejaVuSans-109"/>
      <use x="183.154297" xlink:href="#DejaVuSans-101"/>
      <use x="244.677734" xlink:href="#DejaVuSans-32"/>
      <use x="276.464844" xlink:href="#DejaVuSans-40"/>
      <use x="315.478516" xlink:href="#DejaVuSans-104"/>
      <use x="378.857422" xlink:href="#DejaVuSans-111"/>
      <use x="440.039062" xlink:href="#DejaVuSans-117"/>
      <use x="503.417969" xlink:href="#DejaVuSans-114"/>
      <use x="542.78125" xlink:href="#DejaVuSans-58"/>
      <use x="576.472656" xlink:href="#DejaVuSans-109"/>
      <use x="673.884766" xlink:href="#DejaVuSans-105"/>
      <use x="701.667969" xlink:href="#DejaVuSans-110"/>
      <use x="765.046875" xlink:href="#DejaVuSans-117"/>
      <use x="828.425781" xlink:href="#DejaVuSans-116"/>
      <use x="867.634766" xlink:href="#DejaVuSans-101"/>
      <use x="929.158203" xlink:href="#DejaVuSans-41"/>
     </g>
    </g>
   </g>
   <g id="matplotlib.axis_2">
    <g id="ytick_1">
     <g id="line2d_13">
      <defs>
       <path d="M 0 0 
L -3.5 0 
" id="m9f8cbf9cc6" style="stroke:#000000;stroke-width:0.8;"/>
      </defs>
      <g>
       <use style="stroke:#000000;stroke-width:0.8;" x="59.690625" xlink:href="#m9f8cbf9cc6" y="255.458483"/>
      </g>
     </g>
     <g id="text_14">
      <!-- 18000 -->
      <g transform="translate(20.878125 259.257702)scale(0.1 -0.1)">
       <use xlink:href="#DejaVuSans-49"/>
       <use x="63.623047" xlink:href="#DejaVuSans-56"/>
       <use x="127.246094" xlink:href="#DejaVuSans-48"/>
       <use x="190.869141" xlink:href="#DejaVuSans-48"/>
       <use x="254.492188" xlink:href="#DejaVuSans-48"/>
      </g>
     </g>
    </g>
    <g id="ytick_2">
     <g id="line2d_14">
      <g>
       <use style="stroke:#000000;stroke-width:0.8;" x="59.690625" xlink:href="#m9f8cbf9cc6" y="209.263215"/>
      </g>
     </g>
     <g id="text_15">
      <!-- 20000 -->
      <g transform="translate(20.878125 213.062434)scale(0.1 -0.1)">
       <use xlink:href="#DejaVuSans-50"/>
       <use x="63.623047" xlink:href="#DejaVuSans-48"/>
       <use x="127.246094" xlink:href="#DejaVuSans-48"/>
       <use x="190.869141" xlink:href="#DejaVuSans-48"/>
       <use x="254.492188" xlink:href="#DejaVuSans-48"/>
      </g>
     </g>
    </g>
    <g id="ytick_3">
     <g id="line2d_15">
      <g>
       <use style="stroke:#000000;stroke-width:0.8;" x="59.690625" xlink:href="#m9f8cbf9cc6" y="163.067947"/>
      </g>
     </g>
     <g id="text_16">
      <!-- 22000 -->
      <g transform="translate(20.878125 166.867166)scale(0.1 -0.1)">
       <use xlink:href="#DejaVuSans-50"/>
       <use x="63.623047" xlink:href="#DejaVuSans-50"/>
       <use x="127.246094" xlink:href="#DejaVuSans-48"/>
       <use x="190.869141" xlink:href="#DejaVuSans-48"/>
       <use x="254.492188" xlink:href="#DejaVuSans-48"/>
      </g>
     </g>
    </g>
    <g id="ytick_4">
     <g id="line2d_16">
      <g>
       <use style="stroke:#000000;stroke-width:0.8;" x="59.690625" xlink:href="#m9f8cbf9cc6" y="116.872679"/>
      </g>
     </g>
     <g id="text_17">
      <!-- 24000 -->
      <g transform="translate(20.878125 120.671897)scale(0.1 -0.1)">
       <use xlink:href="#DejaVuSans-50"/>
       <use x="63.623047" xlink:href="#DejaVuSans-52"/>
       <use x="127.246094" xlink:href="#DejaVuSans-48"/>
       <use x="190.869141" xlink:href="#DejaVuSans-48"/>
       <use x="254.492188" xlink:href="#DejaVuSans-48"/>
      </g>
     </g>
    </g>
    <g id="ytick_5">
     <g id="line2d_17">
      <g>
       <use style="stroke:#000000;stroke-width:0.8;" x="59.690625" xlink:href="#m9f8cbf9cc6" y="70.677411"/>
      </g>
     </g>
     <g id="text_18">
      <!-- 26000 -->
      <g transform="translate(20.878125 74.476629)scale(0.1 -0.1)">
       <use xlink:href="#DejaVuSans-50"/>
       <use x="63.623047" xlink:href="#DejaVuSans-54"/>
       <use x="127.246094" xlink:href="#DejaVuSans-48"/>
       <use x="190.869141" xlink:href="#DejaVuSans-48"/>
       <use x="254.492188" xlink:href="#DejaVuSans-48"/>
      </g>
     </g>
    </g>
    <g id="ytick_6">
     <g id="line2d_18">
      <g>
       <use style="stroke:#000000;stroke-width:0.8;" x="59.690625" xlink:href="#m9f8cbf9cc6" y="24.482142"/>
      </g>
     </g>
     <g id="text_19">
      <!-- 28000 -->
      <g transform="translate(20.878125 28.281361)scale(0.1 -0.1)">
       <use xlink:href="#DejaVuSans-50"/>
       <use x="63.623047" xlink:href="#DejaVuSans-56"/>
       <use x="127.246094" xlink:href="#DejaVuSans-48"/>
       <use x="190.869141" xlink:href="#DejaVuSans-48"/>
       <use x="254.492188" xlink:href="#DejaVuSans-48"/>
      </g>
     </g>
    </g>
    <g id="text_20">
     <!-- Edge coverage -->
     <g transform="translate(14.798437 192.762406)rotate(-90)scale(0.1 -0.1)">
      <defs>
       <path d="M 9.8125 72.90625 
L 55.90625 72.90625 
L 55.90625 64.59375 
L 19.671875 64.59375 
L 19.671875 43.015625 
L 54.390625 43.015625 
L 54.390625 34.71875 
L 19.671875 34.71875 
L 19.671875 8.296875 
L 56.78125 8.296875 
L 56.78125 0 
L 9.8125 0 
z
" id="DejaVuSans-69"/>
       <path d="M 45.40625 46.390625 
L 45.40625 75.984375 
L 54.390625 75.984375 
L 54.390625 0 
L 45.40625 0 
L 45.40625 8.203125 
Q 42.578125 3.328125 38.25 0.953125 
Q 33.9375 -1.421875 27.875 -1.421875 
Q 17.96875 -1.421875 11.734375 6.484375 
Q 5.515625 14.40625 5.515625 27.296875 
Q 5.515625 40.1875 11.734375 48.09375 
Q 17.96875 56 27.875 56 
Q 33.9375 56 38.25 53.625 
Q 42.578125 51.265625 45.40625 46.390625 
z
M 14.796875 27.296875 
Q 14.796875 17.390625 18.875 11.75 
Q 22.953125 6.109375 30.078125 6.109375 
Q 37.203125 6.109375 41.296875 11.75 
Q 45.40625 17.390625 45.40625 27.296875 
Q 45.40625 37.203125 41.296875 42.84375 
Q 37.203125 48.484375 30.078125 48.484375 
Q 22.953125 48.484375 18.875 42.84375 
Q 14.796875 37.203125 14.796875 27.296875 
z
" id="DejaVuSans-100"/>
       <path d="M 45.40625 27.984375 
Q 45.40625 37.75 41.375 43.109375 
Q 37.359375 48.484375 30.078125 48.484375 
Q 22.859375 48.484375 18.828125 43.109375 
Q 14.796875 37.75 14.796875 27.984375 
Q 14.796875 18.265625 18.828125 12.890625 
Q 22.859375 7.515625 30.078125 7.515625 
Q 37.359375 7.515625 41.375 12.890625 
Q 45.40625 18.265625 45.40625 27.984375 
z
M 54.390625 6.78125 
Q 54.390625 -7.171875 48.1875 -13.984375 
Q 42 -20.796875 29.203125 -20.796875 
Q 24.46875 -20.796875 20.265625 -20.09375 
Q 16.0625 -19.390625 12.109375 -17.921875 
L 12.109375 -9.1875 
Q 16.0625 -11.328125 19.921875 -12.34375 
Q 23.78125 -13.375 27.78125 -13.375 
Q 36.625 -13.375 41.015625 -8.765625 
Q 45.40625 -4.15625 45.40625 5.171875 
L 45.40625 9.625 
Q 42.625 4.78125 38.28125 2.390625 
Q 33.9375 0 27.875 0 
Q 17.828125 0 11.671875 7.65625 
Q 5.515625 15.328125 5.515625 27.984375 
Q 5.515625 40.671875 11.671875 48.328125 
Q 17.828125 56 27.875 56 
Q 33.9375 56 38.28125 53.609375 
Q 42.625 51.21875 45.40625 46.390625 
L 45.40625 54.6875 
L 54.390625 54.6875 
z
" id="DejaVuSans-103"/>
       <path d="M 48.78125 52.59375 
L 48.78125 44.1875 
Q 44.96875 46.296875 41.140625 47.34375 
Q 37.3125 48.390625 33.40625 48.390625 
Q 24.65625 48.390625 19.8125 42.84375 
Q 14.984375 37.3125 14.984375 27.296875 
Q 14.984375 17.28125 19.8125 11.734375 
Q 24.65625 6.203125 33.40625 6.203125 
Q 37.3125 6.203125 41.140625 7.25 
Q 44.96875 8.296875 48.78125 10.40625 
L 48.78125 2.09375 
Q 45.015625 0.34375 40.984375 -0.53125 
Q 36.96875 -1.421875 32.421875 -1.421875 
Q 20.0625 -1.421875 12.78125 6.34375 
Q 5.515625 14.109375 5.515625 27.296875 
Q 5.515625 40.671875 12.859375 48.328125 
Q 20.21875 56 33.015625 56 
Q 37.15625 56 41.109375 55.140625 
Q 45.0625 54.296875 48.78125 52.59375 
z
" id="DejaVuSans-99"/>
       <path d="M 2.984375 54.6875 
L 12.5 54.6875 
L 29.59375 8.796875 
L 46.6875 54.6875 
L 56.203125 54.6875 
L 35.6875 0 
L 23.484375 0 
z
" id="DejaVuSans-118"/>
       <path d="M 34.28125 27.484375 
Q 23.390625 27.484375 19.1875 25 
Q 14.984375 22.515625 14.984375 16.5 
Q 14.984375 11.71875 18.140625 8.90625 
Q 21.296875 6.109375 26.703125 6.109375 
Q 34.1875 6.109375 38.703125 11.40625 
Q 43.21875 16.703125 43.21875 25.484375 
L 43.21875 27.484375 
z
M 52.203125 31.203125 
L 52.203125 0 
L 43.21875 0 
L 43.21875 8.296875 
Q 40.140625 3.328125 35.546875 0.953125 
Q 30.953125 -1.421875 24.3125 -1.421875 
Q 15.921875 -1.421875 10.953125 3.296875 
Q 6 8.015625 6 15.921875 
Q 6 25.140625 12.171875 29.828125 
Q 18.359375 34.515625 30.609375 34.515625 
L 43.21875 34.515625 
L 43.21875 35.40625 
Q 43.21875 41.609375 39.140625 45 
Q 35.0625 48.390625 27.6875 48.390625 
Q 23 48.390625 18.546875 47.265625 
Q 14.109375 46.140625 10.015625 43.890625 
L 10.015625 52.203125 
Q 14.9375 54.109375 19.578125 55.046875 
Q 24.21875 56 28.609375 56 
Q 40.484375 56 46.34375 49.84375 
Q 52.203125 43.703125 52.203125 31.203125 
z
" id="DejaVuSans-97"/>
      </defs>
      <use xlink:href="#DejaVuSans-69"/>
      <use x="63.183594" xlink:href="#DejaVuSans-100"/>
      <use x="126.660156" xlink:href="#DejaVuSans-103"/>
      <use x="190.136719" xlink:href="#DejaVuSans-101"/>
      <use x="251.660156" xlink:href="#DejaVuSans-32"/>
      <use x="283.447266" xlink:href="#DejaVuSans-99"/>
      <use x="338.427734" xlink:href="#DejaVuSans-111"/>
      <use x="399.609375" xlink:href="#DejaVuSans-118"/>
      <use x="458.789062" xlink:href="#DejaVuSans-101"/>
      <use x="520.3125" xlink:href="#DejaVuSans-114"/>
      <use x="561.425781" xlink:href="#DejaVuSans-97"/>
      <use x="622.705078" xlink:href="#DejaVuSans-103"/>
      <use x="686.181641" xlink:href="#DejaVuSans-101"/>
     </g>
    </g>
   </g>
   <g id="line2d_19">
    <path clip-path="url(#pd5cc04c22b)" d="M 92.15608 266.006403 
L 98.990912 251.477991 
L 105.825745 243.994358 
L 112.660577 226.917507 
L 119.49541 218.78714 
L 126.330242 209.093832 
L 133.165075 199.539111 
L 139.999907 197.152356 
L 146.83474 192.509731 
L 153.669572 188.968094 
L 160.504405 185.249375 
L 167.339237 175.063318 
L 174.17407 170.959639 
L 181.008903 168.511289 
L 187.843735 167.202423 
L 194.678568 165.18523 
L 201.5134 161.551202 
L 208.348233 159.764985 
L 215.183065 156.854683 
L 222.017898 153.428534 
L 228.85273 152.804898 
L 235.687563 149.039984 
L 242.522395 148.377852 
L 249.357228 146.876505 
L 256.19206 145.829413 
L 263.026893 145.536843 
L 269.861725 144.304969 
L 276.696558 138.707642 
L 283.531391 136.77514 
L 290.366223 133.911033 
L 297.201056 132.08632 
L 304.035888 128.929644 
L 310.870721 126.219521 
L 317.705553 125.780666 
L 324.540386 123.316919 
L 331.375218 121.068749 
L 338.210051 115.948773 
L 345.044883 114.994071 
L 351.879716 114.655306 
L 358.714548 113.785295 
L 365.549381 112.899886 
L 372.384214 110.043478 
L 379.219046 106.40945 
L 386.053879 104.053492 
L 392.888711 102.813919 
L 399.723544 102.613739 
L 406.558376 100.45796 
L 413.393209 99.757332 
L 420.228041 98.263685 
L 427.062874 98.171294 
L 433.897706 92.928131 
L 440.732539 92.419983 
L 447.567371 91.503777 
L 454.402204 91.272801 
L 461.237036 90.233407 
L 468.071869 89.209412 
L 474.906702 88.077628 
L 481.741534 87.330805 
L 488.576367 85.498392 
L 495.411199 84.35121 
L 502.246032 83.342613 
L 509.080864 80.593995 
L 515.915697 80.401514 
L 522.750529 80.047351 
L 529.585362 73.372135 
L 536.420194 72.155659 
L 543.255027 70.815996 
L 550.089859 70.523426 
L 556.924692 69.861294 
L 563.759525 64.163878 
L 570.594357 62.539344 
L 577.42919 62.269872 
L 584.264022 62.138985 
L 591.098855 61.576943 
L 597.933687 61.415259 
L 604.76852 61.21508 
L 611.603352 61.099592 
L 618.438185 60.422061 
L 625.273017 60.198784 
L 632.10785 59.636741 
L 638.942682 59.482757 
L 645.777515 56.872725 
L 652.612347 56.610951 
L 659.44718 56.356877 
L 666.282013 55.74094 
L 673.116845 54.162602 
L 679.951678 53.669853 
L 686.78651 53.092412 
L 693.621343 52.992322 
L 700.456175 52.43028 
L 707.291008 52.391784 
L 714.12584 52.191604 
L 720.960673 52.168506 
L 727.795505 51.413984 
L 734.630338 50.828844 
L 741.46517 50.744152 
" style="fill:none;stroke:#1f77b4;stroke-linecap:square;stroke-width:1.5;"/>
    <defs>
     <path d="M 0 3 
C 0.795609 3 1.55874 2.683901 2.12132 2.12132 
C 2.683901 1.55874 3 0.795609 3 0 
C 3 -0.795609 2.683901 -1.55874 2.12132 -2.12132 
C 1.55874 -2.683901 0.795609 -3 0 -3 
C -0.795609 -3 -1.55874 -2.683901 -2.12132 -2.12132 
C -2.683901 -1.55874 -3 -0.795609 -3 0 
C -3 0.795609 -2.683901 1.55874 -2.12132 2.12132 
C -1.55874 2.683901 -0.795609 3 0 3 
z
" id="m187b46d425" style="stroke:#ffffff;stroke-width:0.75;"/>
    </defs>
    <g clip-path="url(#pd5cc04c22b)">
     <use style="fill:#1f77b4;stroke:#ffffff;stroke-width:0.75;" x="92.15608" xlink:href="#m187b46d425" y="266.006403"/>
     <use style="fill:#1f77b4;stroke:#ffffff;stroke-width:0.75;" x="98.990912" xlink:href="#m187b46d425" y="251.477991"/>
     <use style="fill:#1f77b4;stroke:#ffffff;stroke-width:0.75;" x="105.825745" xlink:href="#m187b46d425" y="243.994358"/>
     <use style="fill:#1f77b4;stroke:#ffffff;stroke-width:0.75;" x="112.660577" xlink:href="#m187b46d425" y="226.917507"/>
     <use style="fill:#1f77b4;stroke:#ffffff;stroke-width:0.75;" x="119.49541" xlink:href="#m187b46d425" y="218.78714"/>
     <use style="fill:#1f77b4;stroke:#ffffff;stroke-width:0.75;" x="126.330242" xlink:href="#m187b46d425" y="209.093832"/>
     <use style="fill:#1f77b4;stroke:#ffffff;stroke-width:0.75;" x="133.165075" xlink:href="#m187b46d425" y="199.539111"/>
     <use style="fill:#1f77b4;stroke:#ffffff;stroke-width:0.75;" x="139.999907" xlink:href="#m187b46d425" y="197.152356"/>
     <use style="fill:#1f77b4;stroke:#ffffff;stroke-width:0.75;" x="146.83474" xlink:href="#m187b46d425" y="192.509731"/>
     <use style="fill:#1f77b4;stroke:#ffffff;stroke-width:0.75;" x="153.669572" xlink:href="#m187b46d425" y="188.968094"/>
     <use style="fill:#1f77b4;stroke:#ffffff;stroke-width:0.75;" x="160.504405" xlink:href="#m187b46d425" y="185.249375"/>
     <use style="fill:#1f77b4;stroke:#ffffff;stroke-width:0.75;" x="167.339237" xlink:href="#m187b46d425" y="175.063318"/>
     <use style="fill:#1f77b4;stroke:#ffffff;stroke-width:0.75;" x="174.17407" xlink:href="#m187b46d425" y="170.959639"/>
     <use style="fill:#1f77b4;stroke:#ffffff;stroke-width:0.75;" x="181.008903" xlink:href="#m187b46d425" y="168.511289"/>
     <use style="fill:#1f77b4;stroke:#ffffff;stroke-width:0.75;" x="187.843735" xlink:href="#m187b46d425" y="167.202423"/>
     <use style="fill:#1f77b4;stroke:#ffffff;stroke-width:0.75;" x="194.678568" xlink:href="#m187b46d425" y="165.18523"/>
     <use style="fill:#1f77b4;stroke:#ffffff;stroke-width:0.75;" x="201.5134" xlink:href="#m187b46d425" y="161.551202"/>
     <use style="fill:#1f77b4;stroke:#ffffff;stroke-width:0.75;" x="208.348233" xlink:href="#m187b46d425" y="159.764985"/>
     <use style="fill:#1f77b4;stroke:#ffffff;stroke-width:0.75;" x="215.183065" xlink:href="#m187b46d425" y="156.854683"/>
     <use style="fill:#1f77b4;stroke:#ffffff;stroke-width:0.75;" x="222.017898" xlink:href="#m187b46d425" y="153.428534"/>
     <use style="fill:#1f77b4;stroke:#ffffff;stroke-width:0.75;" x="228.85273" xlink:href="#m187b46d425" y="152.804898"/>
     <use style="fill:#1f77b4;stroke:#ffffff;stroke-width:0.75;" x="235.687563" xlink:href="#m187b46d425" y="149.039984"/>
     <use style="fill:#1f77b4;stroke:#ffffff;stroke-width:0.75;" x="242.522395" xlink:href="#m187b46d425" y="148.377852"/>
     <use style="fill:#1f77b4;stroke:#ffffff;stroke-width:0.75;" x="249.357228" xlink:href="#m187b46d425" y="146.876505"/>
     <use style="fill:#1f77b4;stroke:#ffffff;stroke-width:0.75;" x="256.19206" xlink:href="#m187b46d425" y="145.829413"/>
     <use style="fill:#1f77b4;stroke:#ffffff;stroke-width:0.75;" x="263.026893" xlink:href="#m187b46d425" y="145.536843"/>
     <use style="fill:#1f77b4;stroke:#ffffff;stroke-width:0.75;" x="269.861725" xlink:href="#m187b46d425" y="144.304969"/>
     <use style="fill:#1f77b4;stroke:#ffffff;stroke-width:0.75;" x="276.696558" xlink:href="#m187b46d425" y="138.707642"/>
     <use style="fill:#1f77b4;stroke:#ffffff;stroke-width:0.75;" x="283.531391" xlink:href="#m187b46d425" y="136.77514"/>
     <use style="fill:#1f77b4;stroke:#ffffff;stroke-width:0.75;" x="290.366223" xlink:href="#m187b46d425" y="133.911033"/>
     <use style="fill:#1f77b4;stroke:#ffffff;stroke-width:0.75;" x="297.201056" xlink:href="#m187b46d425" y="132.08632"/>
     <use style="fill:#1f77b4;stroke:#ffffff;stroke-width:0.75;" x="304.035888" xlink:href="#m187b46d425" y="128.929644"/>
     <use style="fill:#1f77b4;stroke:#ffffff;stroke-width:0.75;" x="310.870721" xlink:href="#m187b46d425" y="126.219521"/>
     <use style="fill:#1f77b4;stroke:#ffffff;stroke-width:0.75;" x="317.705553" xlink:href="#m187b46d425" y="125.780666"/>
     <use style="fill:#1f77b4;stroke:#ffffff;stroke-width:0.75;" x="324.540386" xlink:href="#m187b46d425" y="123.316919"/>
     <use style="fill:#1f77b4;stroke:#ffffff;stroke-width:0.75;" x="331.375218" xlink:href="#m187b46d425" y="121.068749"/>
     <use style="fill:#1f77b4;stroke:#ffffff;stroke-width:0.75;" x="338.210051" xlink:href="#m187b46d425" y="115.948773"/>
     <use style="fill:#1f77b4;stroke:#ffffff;stroke-width:0.75;" x="345.044883" xlink:href="#m187b46d425" y="114.994071"/>
     <use style="fill:#1f77b4;stroke:#ffffff;stroke-width:0.75;" x="351.879716" xlink:href="#m187b46d425" y="114.655306"/>
     <use style="fill:#1f77b4;stroke:#ffffff;stroke-width:0.75;" x="358.714548" xlink:href="#m187b46d425" y="113.785295"/>
     <use style="fill:#1f77b4;stroke:#ffffff;stroke-width:0.75;" x="365.549381" xlink:href="#m187b46d425" y="112.899886"/>
     <use style="fill:#1f77b4;stroke:#ffffff;stroke-width:0.75;" x="372.384214" xlink:href="#m187b46d425" y="110.043478"/>
     <use style="fill:#1f77b4;stroke:#ffffff;stroke-width:0.75;" x="379.219046" xlink:href="#m187b46d425" y="106.40945"/>
     <use style="fill:#1f77b4;stroke:#ffffff;stroke-width:0.75;" x="386.053879" xlink:href="#m187b46d425" y="104.053492"/>
     <use style="fill:#1f77b4;stroke:#ffffff;stroke-width:0.75;" x="392.888711" xlink:href="#m187b46d425" y="102.813919"/>
     <use style="fill:#1f77b4;stroke:#ffffff;stroke-width:0.75;" x="399.723544" xlink:href="#m187b46d425" y="102.613739"/>
     <use style="fill:#1f77b4;stroke:#ffffff;stroke-width:0.75;" x="406.558376" xlink:href="#m187b46d425" y="100.45796"/>
     <use style="fill:#1f77b4;stroke:#ffffff;stroke-width:0.75;" x="413.393209" xlink:href="#m187b46d425" y="99.757332"/>
     <use style="fill:#1f77b4;stroke:#ffffff;stroke-width:0.75;" x="420.228041" xlink:href="#m187b46d425" y="98.263685"/>
     <use style="fill:#1f77b4;stroke:#ffffff;stroke-width:0.75;" x="427.062874" xlink:href="#m187b46d425" y="98.171294"/>
     <use style="fill:#1f77b4;stroke:#ffffff;stroke-width:0.75;" x="433.897706" xlink:href="#m187b46d425" y="92.928131"/>
     <use style="fill:#1f77b4;stroke:#ffffff;stroke-width:0.75;" x="440.732539" xlink:href="#m187b46d425" y="92.419983"/>
     <use style="fill:#1f77b4;stroke:#ffffff;stroke-width:0.75;" x="447.567371" xlink:href="#m187b46d425" y="91.503777"/>
     <use style="fill:#1f77b4;stroke:#ffffff;stroke-width:0.75;" x="454.402204" xlink:href="#m187b46d425" y="91.272801"/>
     <use style="fill:#1f77b4;stroke:#ffffff;stroke-width:0.75;" x="461.237036" xlink:href="#m187b46d425" y="90.233407"/>
     <use style="fill:#1f77b4;stroke:#ffffff;stroke-width:0.75;" x="468.071869" xlink:href="#m187b46d425" y="89.209412"/>
     <use style="fill:#1f77b4;stroke:#ffffff;stroke-width:0.75;" x="474.906702" xlink:href="#m187b46d425" y="88.077628"/>
     <use style="fill:#1f77b4;stroke:#ffffff;stroke-width:0.75;" x="481.741534" xlink:href="#m187b46d425" y="87.330805"/>
     <use style="fill:#1f77b4;stroke:#ffffff;stroke-width:0.75;" x="488.576367" xlink:href="#m187b46d425" y="85.498392"/>
     <use style="fill:#1f77b4;stroke:#ffffff;stroke-width:0.75;" x="495.411199" xlink:href="#m187b46d425" y="84.35121"/>
     <use style="fill:#1f77b4;stroke:#ffffff;stroke-width:0.75;" x="502.246032" xlink:href="#m187b46d425" y="83.342613"/>
     <use style="fill:#1f77b4;stroke:#ffffff;stroke-width:0.75;" x="509.080864" xlink:href="#m187b46d425" y="80.593995"/>
     <use style="fill:#1f77b4;stroke:#ffffff;stroke-width:0.75;" x="515.915697" xlink:href="#m187b46d425" y="80.401514"/>
     <use style="fill:#1f77b4;stroke:#ffffff;stroke-width:0.75;" x="522.750529" xlink:href="#m187b46d425" y="80.047351"/>
     <use style="fill:#1f77b4;stroke:#ffffff;stroke-width:0.75;" x="529.585362" xlink:href="#m187b46d425" y="73.372135"/>
     <use style="fill:#1f77b4;stroke:#ffffff;stroke-width:0.75;" x="536.420194" xlink:href="#m187b46d425" y="72.155659"/>
     <use style="fill:#1f77b4;stroke:#ffffff;stroke-width:0.75;" x="543.255027" xlink:href="#m187b46d425" y="70.815996"/>
     <use style="fill:#1f77b4;stroke:#ffffff;stroke-width:0.75;" x="550.089859" xlink:href="#m187b46d425" y="70.523426"/>
     <use style="fill:#1f77b4;stroke:#ffffff;stroke-width:0.75;" x="556.924692" xlink:href="#m187b46d425" y="69.861294"/>
     <use style="fill:#1f77b4;stroke:#ffffff;stroke-width:0.75;" x="563.759525" xlink:href="#m187b46d425" y="64.163878"/>
     <use style="fill:#1f77b4;stroke:#ffffff;stroke-width:0.75;" x="570.594357" xlink:href="#m187b46d425" y="62.539344"/>
     <use style="fill:#1f77b4;stroke:#ffffff;stroke-width:0.75;" x="577.42919" xlink:href="#m187b46d425" y="62.269872"/>
     <use style="fill:#1f77b4;stroke:#ffffff;stroke-width:0.75;" x="584.264022" xlink:href="#m187b46d425" y="62.138985"/>
     <use style="fill:#1f77b4;stroke:#ffffff;stroke-width:0.75;" x="591.098855" xlink:href="#m187b46d425" y="61.576943"/>
     <use style="fill:#1f77b4;stroke:#ffffff;stroke-width:0.75;" x="597.933687" xlink:href="#m187b46d425" y="61.415259"/>
     <use style="fill:#1f77b4;stroke:#ffffff;stroke-width:0.75;" x="604.76852" xlink:href="#m187b46d425" y="61.21508"/>
     <use style="fill:#1f77b4;stroke:#ffffff;stroke-width:0.75;" x="611.603352" xlink:href="#m187b46d425" y="61.099592"/>
     <use style="fill:#1f77b4;stroke:#ffffff;stroke-width:0.75;" x="618.438185" xlink:href="#m187b46d425" y="60.422061"/>
     <use style="fill:#1f77b4;stroke:#ffffff;stroke-width:0.75;" x="625.273017" xlink:href="#m187b46d425" y="60.198784"/>
     <use style="fill:#1f77b4;stroke:#ffffff;stroke-width:0.75;" x="632.10785" xlink:href="#m187b46d425" y="59.636741"/>
     <use style="fill:#1f77b4;stroke:#ffffff;stroke-width:0.75;" x="638.942682" xlink:href="#m187b46d425" y="59.482757"/>
     <use style="fill:#1f77b4;stroke:#ffffff;stroke-width:0.75;" x="645.777515" xlink:href="#m187b46d425" y="56.872725"/>
     <use style="fill:#1f77b4;stroke:#ffffff;stroke-width:0.75;" x="652.612347" xlink:href="#m187b46d425" y="56.610951"/>
     <use style="fill:#1f77b4;stroke:#ffffff;stroke-width:0.75;" x="659.44718" xlink:href="#m187b46d425" y="56.356877"/>
     <use style="fill:#1f77b4;stroke:#ffffff;stroke-width:0.75;" x="666.282013" xlink:href="#m187b46d425" y="55.74094"/>
     <use style="fill:#1f77b4;stroke:#ffffff;stroke-width:0.75;" x="673.116845" xlink:href="#m187b46d425" y="54.162602"/>
     <use style="fill:#1f77b4;stroke:#ffffff;stroke-width:0.75;" x="679.951678" xlink:href="#m187b46d425" y="53.669853"/>
     <use style="fill:#1f77b4;stroke:#ffffff;stroke-width:0.75;" x="686.78651" xlink:href="#m187b46d425" y="53.092412"/>
     <use style="fill:#1f77b4;stroke:#ffffff;stroke-width:0.75;" x="693.621343" xlink:href="#m187b46d425" y="52.992322"/>
     <use style="fill:#1f77b4;stroke:#ffffff;stroke-width:0.75;" x="700.456175" xlink:href="#m187b46d425" y="52.43028"/>
     <use style="fill:#1f77b4;stroke:#ffffff;stroke-width:0.75;" x="707.291008" xlink:href="#m187b46d425" y="52.391784"/>
     <use style="fill:#1f77b4;stroke:#ffffff;stroke-width:0.75;" x="714.12584" xlink:href="#m187b46d425" y="52.191604"/>
     <use style="fill:#1f77b4;stroke:#ffffff;stroke-width:0.75;" x="720.960673" xlink:href="#m187b46d425" y="52.168506"/>
     <use style="fill:#1f77b4;stroke:#ffffff;stroke-width:0.75;" x="727.795505" xlink:href="#m187b46d425" y="51.413984"/>
     <use style="fill:#1f77b4;stroke:#ffffff;stroke-width:0.75;" x="734.630338" xlink:href="#m187b46d425" y="50.828844"/>
     <use style="fill:#1f77b4;stroke:#ffffff;stroke-width:0.75;" x="741.46517" xlink:href="#m187b46d425" y="50.744152"/>
    </g>
   </g>
   <g id="line2d_20">
    <path clip-path="url(#pd5cc04c22b)" d="M 92.15608 267.395341 
L 98.990912 253.291925 
L 105.825745 247.406648 
L 112.660577 227.616595 
L 119.49541 220.414753 
L 126.330242 215.966149 
L 133.165075 211.730042 
L 139.999907 209.928427 
L 146.83474 206.366772 
L 153.669572 200.43068 
L 160.504405 198.37499 
L 167.339237 191.769067 
L 174.17407 189.20523 
L 181.008903 185.832975 
L 187.843735 183.564787 
L 194.678568 181.384371 
L 201.5134 180.368075 
L 208.348233 178.081409 
L 215.183065 175.383605 
L 222.017898 171.692603 
L 228.85273 169.429035 
L 235.687563 166.500255 
L 242.522395 161.557362 
L 249.357228 160.513349 
L 256.19206 157.18267 
L 263.026893 155.011492 
L 269.861725 149.796046 
L 276.696558 144.917826 
L 283.531391 143.41186 
L 290.366223 142.506433 
L 297.201056 139.979552 
L 304.035888 138.741519 
L 310.870721 137.041533 
L 317.705553 132.634504 
L 324.540386 131.742936 
L 331.375218 128.389159 
L 338.210051 127.562264 
L 345.044883 124.693538 
L 351.879716 122.91502 
L 358.714548 122.550077 
L 365.549381 121.723182 
L 372.384214 120.76232 
L 379.219046 120.207977 
L 386.053879 114.03167 
L 392.888711 113.717542 
L 399.723544 112.534943 
L 406.558376 110.659415 
L 413.393209 109.943388 
L 420.228041 109.578446 
L 427.062874 109.102635 
L 433.897706 106.728198 
L 440.732539 104.875768 
L 447.567371 103.78094 
L 454.402204 101.591284 
L 461.237036 100.205426 
L 468.071869 98.329898 
L 474.906702 97.988053 
L 481.741534 97.484525 
L 488.576367 94.380203 
L 495.411199 93.950587 
L 502.246032 93.479395 
L 509.080864 90.213389 
L 515.915697 90.042467 
L 522.750529 87.663411 
L 529.585362 87.201458 
L 536.420194 84.258819 
L 543.255027 81.41781 
L 550.089859 80.359939 
L 556.924692 77.796101 
L 563.759525 76.396385 
L 570.594357 76.206984 
L 577.42919 74.987429 
L 584.264022 74.599389 
L 591.098855 74.049665 
L 597.933687 73.50918 
L 604.76852 71.665989 
L 611.603352 71.495067 
L 618.438185 70.695889 
L 625.273017 69.439377 
L 632.10785 68.723351 
L 638.942682 67.610045 
L 645.777515 67.291297 
L 652.612347 65.595931 
L 659.44718 65.277184 
L 666.282013 64.653548 
L 673.116845 64.417952 
L 679.951678 64.279366 
L 686.78651 64.089965 
L 693.621343 61.683192 
L 700.456175 61.415259 
L 707.291008 59.373428 
L 714.12584 58.629685 
L 720.960673 56.994372 
L 727.795505 56.578615 
L 734.630338 56.416931 
L 741.46517 57.257685 
" style="fill:none;stroke:#98df8a;stroke-linecap:square;stroke-width:1.5;"/>
    <defs>
     <path d="M -0 3 
L 3 -3 
L -3 -3 
z
" id="m0d44c569b7" style="stroke:#ffffff;stroke-linejoin:miter;stroke-width:0.75;"/>
    </defs>
    <g clip-path="url(#pd5cc04c22b)">
     <use style="fill:#98df8a;stroke:#ffffff;stroke-linejoin:miter;stroke-width:0.75;" x="92.15608" xlink:href="#m0d44c569b7" y="267.395341"/>
     <use style="fill:#98df8a;stroke:#ffffff;stroke-linejoin:miter;stroke-width:0.75;" x="98.990912" xlink:href="#m0d44c569b7" y="253.291925"/>
     <use style="fill:#98df8a;stroke:#ffffff;stroke-linejoin:miter;stroke-width:0.75;" x="105.825745" xlink:href="#m0d44c569b7" y="247.406648"/>
     <use style="fill:#98df8a;stroke:#ffffff;stroke-linejoin:miter;stroke-width:0.75;" x="112.660577" xlink:href="#m0d44c569b7" y="227.616595"/>
     <use style="fill:#98df8a;stroke:#ffffff;stroke-linejoin:miter;stroke-width:0.75;" x="119.49541" xlink:href="#m0d44c569b7" y="220.414753"/>
     <use style="fill:#98df8a;stroke:#ffffff;stroke-linejoin:miter;stroke-width:0.75;" x="126.330242" xlink:href="#m0d44c569b7" y="215.966149"/>
     <use style="fill:#98df8a;stroke:#ffffff;stroke-linejoin:miter;stroke-width:0.75;" x="133.165075" xlink:href="#m0d44c569b7" y="211.730042"/>
     <use style="fill:#98df8a;stroke:#ffffff;stroke-linejoin:miter;stroke-width:0.75;" x="139.999907" xlink:href="#m0d44c569b7" y="209.928427"/>
     <use style="fill:#98df8a;stroke:#ffffff;stroke-linejoin:miter;stroke-width:0.75;" x="146.83474" xlink:href="#m0d44c569b7" y="206.366772"/>
     <use style="fill:#98df8a;stroke:#ffffff;stroke-linejoin:miter;stroke-width:0.75;" x="153.669572" xlink:href="#m0d44c569b7" y="200.43068"/>
     <use style="fill:#98df8a;stroke:#ffffff;stroke-linejoin:miter;stroke-width:0.75;" x="160.504405" xlink:href="#m0d44c569b7" y="198.37499"/>
     <use style="fill:#98df8a;stroke:#ffffff;stroke-linejoin:miter;stroke-width:0.75;" x="167.339237" xlink:href="#m0d44c569b7" y="191.769067"/>
     <use style="fill:#98df8a;stroke:#ffffff;stroke-linejoin:miter;stroke-width:0.75;" x="174.17407" xlink:href="#m0d44c569b7" y="189.20523"/>
     <use style="fill:#98df8a;stroke:#ffffff;stroke-linejoin:miter;stroke-width:0.75;" x="181.008903" xlink:href="#m0d44c569b7" y="185.832975"/>
     <use style="fill:#98df8a;stroke:#ffffff;stroke-linejoin:miter;stroke-width:0.75;" x="187.843735" xlink:href="#m0d44c569b7" y="183.564787"/>
     <use style="fill:#98df8a;stroke:#ffffff;stroke-linejoin:miter;stroke-width:0.75;" x="194.678568" xlink:href="#m0d44c569b7" y="181.384371"/>
     <use style="fill:#98df8a;stroke:#ffffff;stroke-linejoin:miter;stroke-width:0.75;" x="201.5134" xlink:href="#m0d44c569b7" y="180.368075"/>
     <use style="fill:#98df8a;stroke:#ffffff;stroke-linejoin:miter;stroke-width:0.75;" x="208.348233" xlink:href="#m0d44c569b7" y="178.081409"/>
     <use style="fill:#98df8a;stroke:#ffffff;stroke-linejoin:miter;stroke-width:0.75;" x="215.183065" xlink:href="#m0d44c569b7" y="175.383605"/>
     <use style="fill:#98df8a;stroke:#ffffff;stroke-linejoin:miter;stroke-width:0.75;" x="222.017898" xlink:href="#m0d44c569b7" y="171.692603"/>
     <use style="fill:#98df8a;stroke:#ffffff;stroke-linejoin:miter;stroke-width:0.75;" x="228.85273" xlink:href="#m0d44c569b7" y="169.429035"/>
     <use style="fill:#98df8a;stroke:#ffffff;stroke-linejoin:miter;stroke-width:0.75;" x="235.687563" xlink:href="#m0d44c569b7" y="166.500255"/>
     <use style="fill:#98df8a;stroke:#ffffff;stroke-linejoin:miter;stroke-width:0.75;" x="242.522395" xlink:href="#m0d44c569b7" y="161.557362"/>
     <use style="fill:#98df8a;stroke:#ffffff;stroke-linejoin:miter;stroke-width:0.75;" x="249.357228" xlink:href="#m0d44c569b7" y="160.513349"/>
     <use style="fill:#98df8a;stroke:#ffffff;stroke-linejoin:miter;stroke-width:0.75;" x="256.19206" xlink:href="#m0d44c569b7" y="157.18267"/>
     <use style="fill:#98df8a;stroke:#ffffff;stroke-linejoin:miter;stroke-width:0.75;" x="263.026893" xlink:href="#m0d44c569b7" y="155.011492"/>
     <use style="fill:#98df8a;stroke:#ffffff;stroke-linejoin:miter;stroke-width:0.75;" x="269.861725" xlink:href="#m0d44c569b7" y="149.796046"/>
     <use style="fill:#98df8a;stroke:#ffffff;stroke-linejoin:miter;stroke-width:0.75;" x="276.696558" xlink:href="#m0d44c569b7" y="144.917826"/>
     <use style="fill:#98df8a;stroke:#ffffff;stroke-linejoin:miter;stroke-width:0.75;" x="283.531391" xlink:href="#m0d44c569b7" y="143.41186"/>
     <use style="fill:#98df8a;stroke:#ffffff;stroke-linejoin:miter;stroke-width:0.75;" x="290.366223" xlink:href="#m0d44c569b7" y="142.506433"/>
     <use style="fill:#98df8a;stroke:#ffffff;stroke-linejoin:miter;stroke-width:0.75;" x="297.201056" xlink:href="#m0d44c569b7" y="139.979552"/>
     <use style="fill:#98df8a;stroke:#ffffff;stroke-linejoin:miter;stroke-width:0.75;" x="304.035888" xlink:href="#m0d44c569b7" y="138.741519"/>
     <use style="fill:#98df8a;stroke:#ffffff;stroke-linejoin:miter;stroke-width:0.75;" x="310.870721" xlink:href="#m0d44c569b7" y="137.041533"/>
     <use style="fill:#98df8a;stroke:#ffffff;stroke-linejoin:miter;stroke-width:0.75;" x="317.705553" xlink:href="#m0d44c569b7" y="132.634504"/>
     <use style="fill:#98df8a;stroke:#ffffff;stroke-linejoin:miter;stroke-width:0.75;" x="324.540386" xlink:href="#m0d44c569b7" y="131.742936"/>
     <use style="fill:#98df8a;stroke:#ffffff;stroke-linejoin:miter;stroke-width:0.75;" x="331.375218" xlink:href="#m0d44c569b7" y="128.389159"/>
     <use style="fill:#98df8a;stroke:#ffffff;stroke-linejoin:miter;stroke-width:0.75;" x="338.210051" xlink:href="#m0d44c569b7" y="127.562264"/>
     <use style="fill:#98df8a;stroke:#ffffff;stroke-linejoin:miter;stroke-width:0.75;" x="345.044883" xlink:href="#m0d44c569b7" y="124.693538"/>
     <use style="fill:#98df8a;stroke:#ffffff;stroke-linejoin:miter;stroke-width:0.75;" x="351.879716" xlink:href="#m0d44c569b7" y="122.91502"/>
     <use style="fill:#98df8a;stroke:#ffffff;stroke-linejoin:miter;stroke-width:0.75;" x="358.714548" xlink:href="#m0d44c569b7" y="122.550077"/>
     <use style="fill:#98df8a;stroke:#ffffff;stroke-linejoin:miter;stroke-width:0.75;" x="365.549381" xlink:href="#m0d44c569b7" y="121.723182"/>
     <use style="fill:#98df8a;stroke:#ffffff;stroke-linejoin:miter;stroke-width:0.75;" x="372.384214" xlink:href="#m0d44c569b7" y="120.76232"/>
     <use style="fill:#98df8a;stroke:#ffffff;stroke-linejoin:miter;stroke-width:0.75;" x="379.219046" xlink:href="#m0d44c569b7" y="120.207977"/>
     <use style="fill:#98df8a;stroke:#ffffff;stroke-linejoin:miter;stroke-width:0.75;" x="386.053879" xlink:href="#m0d44c569b7" y="114.03167"/>
     <use style="fill:#98df8a;stroke:#ffffff;stroke-linejoin:miter;stroke-width:0.75;" x="392.888711" xlink:href="#m0d44c569b7" y="113.717542"/>
     <use style="fill:#98df8a;stroke:#ffffff;stroke-linejoin:miter;stroke-width:0.75;" x="399.723544" xlink:href="#m0d44c569b7" y="112.534943"/>
     <use style="fill:#98df8a;stroke:#ffffff;stroke-linejoin:miter;stroke-width:0.75;" x="406.558376" xlink:href="#m0d44c569b7" y="110.659415"/>
     <use style="fill:#98df8a;stroke:#ffffff;stroke-linejoin:miter;stroke-width:0.75;" x="413.393209" xlink:href="#m0d44c569b7" y="109.943388"/>
     <use style="fill:#98df8a;stroke:#ffffff;stroke-linejoin:miter;stroke-width:0.75;" x="420.228041" xlink:href="#m0d44c569b7" y="109.578446"/>
     <use style="fill:#98df8a;stroke:#ffffff;stroke-linejoin:miter;stroke-width:0.75;" x="427.062874" xlink:href="#m0d44c569b7" y="109.102635"/>
     <use style="fill:#98df8a;stroke:#ffffff;stroke-linejoin:miter;stroke-width:0.75;" x="433.897706" xlink:href="#m0d44c569b7" y="106.728198"/>
     <use style="fill:#98df8a;stroke:#ffffff;stroke-linejoin:miter;stroke-width:0.75;" x="440.732539" xlink:href="#m0d44c569b7" y="104.875768"/>
     <use style="fill:#98df8a;stroke:#ffffff;stroke-linejoin:miter;stroke-width:0.75;" x="447.567371" xlink:href="#m0d44c569b7" y="103.78094"/>
     <use style="fill:#98df8a;stroke:#ffffff;stroke-linejoin:miter;stroke-width:0.75;" x="454.402204" xlink:href="#m0d44c569b7" y="101.591284"/>
     <use style="fill:#98df8a;stroke:#ffffff;stroke-linejoin:miter;stroke-width:0.75;" x="461.237036" xlink:href="#m0d44c569b7" y="100.205426"/>
     <use style="fill:#98df8a;stroke:#ffffff;stroke-linejoin:miter;stroke-width:0.75;" x="468.071869" xlink:href="#m0d44c569b7" y="98.329898"/>
     <use style="fill:#98df8a;stroke:#ffffff;stroke-linejoin:miter;stroke-width:0.75;" x="474.906702" xlink:href="#m0d44c569b7" y="97.988053"/>
     <use style="fill:#98df8a;stroke:#ffffff;stroke-linejoin:miter;stroke-width:0.75;" x="481.741534" xlink:href="#m0d44c569b7" y="97.484525"/>
     <use style="fill:#98df8a;stroke:#ffffff;stroke-linejoin:miter;stroke-width:0.75;" x="488.576367" xlink:href="#m0d44c569b7" y="94.380203"/>
     <use style="fill:#98df8a;stroke:#ffffff;stroke-linejoin:miter;stroke-width:0.75;" x="495.411199" xlink:href="#m0d44c569b7" y="93.950587"/>
     <use style="fill:#98df8a;stroke:#ffffff;stroke-linejoin:miter;stroke-width:0.75;" x="502.246032" xlink:href="#m0d44c569b7" y="93.479395"/>
     <use style="fill:#98df8a;stroke:#ffffff;stroke-linejoin:miter;stroke-width:0.75;" x="509.080864" xlink:href="#m0d44c569b7" y="90.213389"/>
     <use style="fill:#98df8a;stroke:#ffffff;stroke-linejoin:miter;stroke-width:0.75;" x="515.915697" xlink:href="#m0d44c569b7" y="90.042467"/>
     <use style="fill:#98df8a;stroke:#ffffff;stroke-linejoin:miter;stroke-width:0.75;" x="522.750529" xlink:href="#m0d44c569b7" y="87.663411"/>
     <use style="fill:#98df8a;stroke:#ffffff;stroke-linejoin:miter;stroke-width:0.75;" x="529.585362" xlink:href="#m0d44c569b7" y="87.201458"/>
     <use style="fill:#98df8a;stroke:#ffffff;stroke-linejoin:miter;stroke-width:0.75;" x="536.420194" xlink:href="#m0d44c569b7" y="84.258819"/>
     <use style="fill:#98df8a;stroke:#ffffff;stroke-linejoin:miter;stroke-width:0.75;" x="543.255027" xlink:href="#m0d44c569b7" y="81.41781"/>
     <use style="fill:#98df8a;stroke:#ffffff;stroke-linejoin:miter;stroke-width:0.75;" x="550.089859" xlink:href="#m0d44c569b7" y="80.359939"/>
     <use style="fill:#98df8a;stroke:#ffffff;stroke-linejoin:miter;stroke-width:0.75;" x="556.924692" xlink:href="#m0d44c569b7" y="77.796101"/>
     <use style="fill:#98df8a;stroke:#ffffff;stroke-linejoin:miter;stroke-width:0.75;" x="563.759525" xlink:href="#m0d44c569b7" y="76.396385"/>
     <use style="fill:#98df8a;stroke:#ffffff;stroke-linejoin:miter;stroke-width:0.75;" x="570.594357" xlink:href="#m0d44c569b7" y="76.206984"/>
     <use style="fill:#98df8a;stroke:#ffffff;stroke-linejoin:miter;stroke-width:0.75;" x="577.42919" xlink:href="#m0d44c569b7" y="74.987429"/>
     <use style="fill:#98df8a;stroke:#ffffff;stroke-linejoin:miter;stroke-width:0.75;" x="584.264022" xlink:href="#m0d44c569b7" y="74.599389"/>
     <use style="fill:#98df8a;stroke:#ffffff;stroke-linejoin:miter;stroke-width:0.75;" x="591.098855" xlink:href="#m0d44c569b7" y="74.049665"/>
     <use style="fill:#98df8a;stroke:#ffffff;stroke-linejoin:miter;stroke-width:0.75;" x="597.933687" xlink:href="#m0d44c569b7" y="73.50918"/>
     <use style="fill:#98df8a;stroke:#ffffff;stroke-linejoin:miter;stroke-width:0.75;" x="604.76852" xlink:href="#m0d44c569b7" y="71.665989"/>
     <use style="fill:#98df8a;stroke:#ffffff;stroke-linejoin:miter;stroke-width:0.75;" x="611.603352" xlink:href="#m0d44c569b7" y="71.495067"/>
     <use style="fill:#98df8a;stroke:#ffffff;stroke-linejoin:miter;stroke-width:0.75;" x="618.438185" xlink:href="#m0d44c569b7" y="70.695889"/>
     <use style="fill:#98df8a;stroke:#ffffff;stroke-linejoin:miter;stroke-width:0.75;" x="625.273017" xlink:href="#m0d44c569b7" y="69.439377"/>
     <use style="fill:#98df8a;stroke:#ffffff;stroke-linejoin:miter;stroke-width:0.75;" x="632.10785" xlink:href="#m0d44c569b7" y="68.723351"/>
     <use style="fill:#98df8a;stroke:#ffffff;stroke-linejoin:miter;stroke-width:0.75;" x="638.942682" xlink:href="#m0d44c569b7" y="67.610045"/>
     <use style="fill:#98df8a;stroke:#ffffff;stroke-linejoin:miter;stroke-width:0.75;" x="645.777515" xlink:href="#m0d44c569b7" y="67.291297"/>
     <use style="fill:#98df8a;stroke:#ffffff;stroke-linejoin:miter;stroke-width:0.75;" x="652.612347" xlink:href="#m0d44c569b7" y="65.595931"/>
     <use style="fill:#98df8a;stroke:#ffffff;stroke-linejoin:miter;stroke-width:0.75;" x="659.44718" xlink:href="#m0d44c569b7" y="65.277184"/>
     <use style="fill:#98df8a;stroke:#ffffff;stroke-linejoin:miter;stroke-width:0.75;" x="666.282013" xlink:href="#m0d44c569b7" y="64.653548"/>
     <use style="fill:#98df8a;stroke:#ffffff;stroke-linejoin:miter;stroke-width:0.75;" x="673.116845" xlink:href="#m0d44c569b7" y="64.417952"/>
     <use style="fill:#98df8a;stroke:#ffffff;stroke-linejoin:miter;stroke-width:0.75;" x="679.951678" xlink:href="#m0d44c569b7" y="64.279366"/>
     <use style="fill:#98df8a;stroke:#ffffff;stroke-linejoin:miter;stroke-width:0.75;" x="686.78651" xlink:href="#m0d44c569b7" y="64.089965"/>
     <use style="fill:#98df8a;stroke:#ffffff;stroke-linejoin:miter;stroke-width:0.75;" x="693.621343" xlink:href="#m0d44c569b7" y="61.683192"/>
     <use style="fill:#98df8a;stroke:#ffffff;stroke-linejoin:miter;stroke-width:0.75;" x="700.456175" xlink:href="#m0d44c569b7" y="61.415259"/>
     <use style="fill:#98df8a;stroke:#ffffff;stroke-linejoin:miter;stroke-width:0.75;" x="707.291008" xlink:href="#m0d44c569b7" y="59.373428"/>
     <use style="fill:#98df8a;stroke:#ffffff;stroke-linejoin:miter;stroke-width:0.75;" x="714.12584" xlink:href="#m0d44c569b7" y="58.629685"/>
     <use style="fill:#98df8a;stroke:#ffffff;stroke-linejoin:miter;stroke-width:0.75;" x="720.960673" xlink:href="#m0d44c569b7" y="56.994372"/>
     <use style="fill:#98df8a;stroke:#ffffff;stroke-linejoin:miter;stroke-width:0.75;" x="727.795505" xlink:href="#m0d44c569b7" y="56.578615"/>
     <use style="fill:#98df8a;stroke:#ffffff;stroke-linejoin:miter;stroke-width:0.75;" x="734.630338" xlink:href="#m0d44c569b7" y="56.416931"/>
     <use style="fill:#98df8a;stroke:#ffffff;stroke-linejoin:miter;stroke-width:0.75;" x="741.46517" xlink:href="#m0d44c569b7" y="57.257685"/>
    </g>
   </g>
   <g id="line2d_21"/>
   <g id="line2d_22"/>
   <g id="line2d_23"/>
   <g id="line2d_24">
    <path clip-path="url(#pd5cc04c22b)" d="M 741.46517 288.430125 
L 741.46517 22.318125 
" style="fill:none;stroke:#ff0000;stroke-linecap:square;stroke-width:1.5;"/>
   </g>
   <g id="patch_3">
    <path d="M 59.690625 255.458483 
L 59.690625 24.482142 
" style="fill:none;stroke:#000000;stroke-linecap:square;stroke-linejoin:miter;stroke-width:0.8;"/>
   </g>
   <g id="patch_4">
    <path d="M 92.15608 288.430125 
L 693.621343 288.430125 
" style="fill:none;stroke:#000000;stroke-linecap:square;stroke-linejoin:miter;stroke-width:0.8;"/>
   </g>
   <g id="text_21">
    <!-- sqlite3_ossfuzz (24h, 3 trials/fuzzer) -->
    <g transform="translate(308.633438 16.318125)scale(0.12 -0.12)">
     <defs>
      <path d="M 44.28125 53.078125 
L 44.28125 44.578125 
Q 40.484375 46.53125 36.375 47.5 
Q 32.28125 48.484375 27.875 48.484375 
Q 21.1875 48.484375 17.84375 46.4375 
Q 14.5 44.390625 14.5 40.28125 
Q 14.5 37.15625 16.890625 35.375 
Q 19.28125 33.59375 26.515625 31.984375 
L 29.59375 31.296875 
Q 39.15625 29.25 43.1875 25.515625 
Q 47.21875 21.78125 47.21875 15.09375 
Q 47.21875 7.46875 41.1875 3.015625 
Q 35.15625 -1.421875 24.609375 -1.421875 
Q 20.21875 -1.421875 15.453125 -0.5625 
Q 10.6875 0.296875 5.421875 2 
L 5.421875 11.28125 
Q 10.40625 8.6875 15.234375 7.390625 
Q 20.0625 6.109375 24.8125 6.109375 
Q 31.15625 6.109375 34.5625 8.28125 
Q 37.984375 10.453125 37.984375 14.40625 
Q 37.984375 18.0625 35.515625 20.015625 
Q 33.0625 21.96875 24.703125 23.78125 
L 21.578125 24.515625 
Q 13.234375 26.265625 9.515625 29.90625 
Q 5.8125 33.546875 5.8125 39.890625 
Q 5.8125 47.609375 11.28125 51.796875 
Q 16.75 56 26.8125 56 
Q 31.78125 56 36.171875 55.265625 
Q 40.578125 54.546875 44.28125 53.078125 
z
" id="DejaVuSans-115"/>
      <path d="M 14.796875 27.296875 
Q 14.796875 17.390625 18.875 11.75 
Q 22.953125 6.109375 30.078125 6.109375 
Q 37.203125 6.109375 41.296875 11.75 
Q 45.40625 17.390625 45.40625 27.296875 
Q 45.40625 37.203125 41.296875 42.84375 
Q 37.203125 48.484375 30.078125 48.484375 
Q 22.953125 48.484375 18.875 42.84375 
Q 14.796875 37.203125 14.796875 27.296875 
z
M 45.40625 8.203125 
Q 42.578125 3.328125 38.25 0.953125 
Q 33.9375 -1.421875 27.875 -1.421875 
Q 17.96875 -1.421875 11.734375 6.484375 
Q 5.515625 14.40625 5.515625 27.296875 
Q 5.515625 40.1875 11.734375 48.09375 
Q 17.96875 56 27.875 56 
Q 33.9375 56 38.25 53.625 
Q 42.578125 51.265625 45.40625 46.390625 
L 45.40625 54.6875 
L 54.390625 54.6875 
L 54.390625 -20.796875 
L 45.40625 -20.796875 
z
" id="DejaVuSans-113"/>
      <path d="M 9.421875 75.984375 
L 18.40625 75.984375 
L 18.40625 0 
L 9.421875 0 
z
" id="DejaVuSans-108"/>
      <path d="M 40.578125 39.3125 
Q 47.65625 37.796875 51.625 33 
Q 55.609375 28.21875 55.609375 21.1875 
Q 55.609375 10.40625 48.1875 4.484375 
Q 40.765625 -1.421875 27.09375 -1.421875 
Q 22.515625 -1.421875 17.65625 -0.515625 
Q 12.796875 0.390625 7.625 2.203125 
L 7.625 11.71875 
Q 11.71875 9.328125 16.59375 8.109375 
Q 21.484375 6.890625 26.8125 6.890625 
Q 36.078125 6.890625 40.9375 10.546875 
Q 45.796875 14.203125 45.796875 21.1875 
Q 45.796875 27.640625 41.28125 31.265625 
Q 36.765625 34.90625 28.71875 34.90625 
L 20.21875 34.90625 
L 20.21875 43.015625 
L 29.109375 43.015625 
Q 36.375 43.015625 40.234375 45.921875 
Q 44.09375 48.828125 44.09375 54.296875 
Q 44.09375 59.90625 40.109375 62.90625 
Q 36.140625 65.921875 28.71875 65.921875 
Q 24.65625 65.921875 20.015625 65.03125 
Q 15.375 64.15625 9.8125 62.3125 
L 9.8125 71.09375 
Q 15.4375 72.65625 20.34375 73.4375 
Q 25.25 74.21875 29.59375 74.21875 
Q 40.828125 74.21875 47.359375 69.109375 
Q 53.90625 64.015625 53.90625 55.328125 
Q 53.90625 49.265625 50.4375 45.09375 
Q 46.96875 40.921875 40.578125 39.3125 
z
" id="DejaVuSans-51"/>
      <path d="M 50.984375 -16.609375 
L 50.984375 -23.578125 
L -0.984375 -23.578125 
L -0.984375 -16.609375 
z
" id="DejaVuSans-95"/>
      <path d="M 37.109375 75.984375 
L 37.109375 68.5 
L 28.515625 68.5 
Q 23.6875 68.5 21.796875 66.546875 
Q 19.921875 64.59375 19.921875 59.515625 
L 19.921875 54.6875 
L 34.71875 54.6875 
L 34.71875 47.703125 
L 19.921875 47.703125 
L 19.921875 0 
L 10.890625 0 
L 10.890625 47.703125 
L 2.296875 47.703125 
L 2.296875 54.6875 
L 10.890625 54.6875 
L 10.890625 58.5 
Q 10.890625 67.625 15.140625 71.796875 
Q 19.390625 75.984375 28.609375 75.984375 
z
" id="DejaVuSans-102"/>
      <path d="M 5.515625 54.6875 
L 48.1875 54.6875 
L 48.1875 46.484375 
L 14.40625 7.171875 
L 48.1875 7.171875 
L 48.1875 0 
L 4.296875 0 
L 4.296875 8.203125 
L 38.09375 47.515625 
L 5.515625 47.515625 
z
" id="DejaVuSans-122"/>
      <path d="M 11.71875 12.40625 
L 22.015625 12.40625 
L 22.015625 4 
L 14.015625 -11.625 
L 7.71875 -11.625 
L 11.71875 4 
z
" id="DejaVuSans-44"/>
      <path d="M 25.390625 72.90625 
L 33.6875 72.90625 
L 8.296875 -9.28125 
L 0 -9.28125 
z
" id="DejaVuSans-47"/>
     </defs>
     <use xlink:href="#DejaVuSans-115"/>
     <use x="52.099609" xlink:href="#DejaVuSans-113"/>
     <use x="115.576172" xlink:href="#DejaVuSans-108"/>
     <use x="143.359375" xlink:href="#DejaVuSans-105"/>
     <use x="171.142578" xlink:href="#DejaVuSans-116"/>
     <use x="210.351562" xlink:href="#DejaVuSans-101"/>
     <use x="271.875" xlink:href="#DejaVuSans-51"/>
     <use x="335.498047" xlink:href="#DejaVuSans-95"/>
     <use x="385.498047" xlink:href="#DejaVuSans-111"/>
     <use x="446.679688" xlink:href="#DejaVuSans-115"/>
     <use x="498.779297" xlink:href="#DejaVuSans-115"/>
     <use x="550.878906" xlink:href="#DejaVuSans-102"/>
     <use x="586.083984" xlink:href="#DejaVuSans-117"/>
     <use x="649.462891" xlink:href="#DejaVuSans-122"/>
     <use x="701.953125" xlink:href="#DejaVuSans-122"/>
     <use x="754.443359" xlink:href="#DejaVuSans-32"/>
     <use x="786.230469" xlink:href="#DejaVuSans-40"/>
     <use x="825.244141" xlink:href="#DejaVuSans-50"/>
     <use x="888.867188" xlink:href="#DejaVuSans-52"/>
     <use x="952.490234" xlink:href="#DejaVuSans-104"/>
     <use x="1015.869141" xlink:href="#DejaVuSans-44"/>
     <use x="1047.65625" xlink:href="#DejaVuSans-32"/>
     <use x="1079.443359" xlink:href="#DejaVuSans-51"/>
     <use x="1143.066406" xlink:href="#DejaVuSans-32"/>
     <use x="1174.853516" xlink:href="#DejaVuSans-116"/>
     <use x="1214.0625" xlink:href="#DejaVuSans-114"/>
     <use x="1255.175781" xlink:href="#DejaVuSans-105"/>
     <use x="1282.958984" xlink:href="#DejaVuSans-97"/>
     <use x="1344.238281" xlink:href="#DejaVuSans-108"/>
     <use x="1372.021484" xlink:href="#DejaVuSans-115"/>
     <use x="1424.121094" xlink:href="#DejaVuSans-47"/>
     <use x="1457.8125" xlink:href="#DejaVuSans-102"/>
     <use x="1493.017578" xlink:href="#DejaVuSans-117"/>
     <use x="1556.396484" xlink:href="#DejaVuSans-122"/>
     <use x="1608.886719" xlink:href="#DejaVuSans-122"/>
     <use x="1661.376953" xlink:href="#DejaVuSans-101"/>
     <use x="1722.900391" xlink:href="#DejaVuSans-114"/>
     <use x="1764.013672" xlink:href="#DejaVuSans-41"/>
    </g>
   </g>
   <g id="legend_1">
    <g id="line2d_25">
     <path d="M 777.930625 30.416562 
L 797.930625 30.416562 
" style="fill:none;"/>
    </g>
    <g id="line2d_26"/>
    <g id="text_22">
     <!-- fuzzer -->
     <g transform="translate(805.930625 33.916562)scale(0.1 -0.1)">
      <use xlink:href="#DejaVuSans-102"/>
      <use x="35.205078" xlink:href="#DejaVuSans-117"/>
      <use x="98.583984" xlink:href="#DejaVuSans-122"/>
      <use x="151.074219" xlink:href="#DejaVuSans-122"/>
      <use x="203.564453" xlink:href="#DejaVuSans-101"/>
      <use x="265.087891" xlink:href="#DejaVuSans-114"/>
     </g>
    </g>
    <g id="line2d_27">
     <path d="M 777.930625 45.094688 
L 797.930625 45.094688 
" style="fill:none;stroke:#1f77b4;stroke-linecap:square;stroke-width:1.5;"/>
    </g>
    <g id="line2d_28">
     <defs>
      <path d="M 0 3 
C 0.795609 3 1.55874 2.683901 2.12132 2.12132 
C 2.683901 1.55874 3 0.795609 3 0 
C 3 -0.795609 2.683901 -1.55874 2.12132 -2.12132 
C 1.55874 -2.683901 0.795609 -3 0 -3 
C -0.795609 -3 -1.55874 -2.683901 -2.12132 -2.12132 
C -2.683901 -1.55874 -3 -0.795609 -3 0 
C -3 0.795609 -2.683901 1.55874 -2.12132 2.12132 
C -1.55874 2.683901 -0.795609 3 0 3 
z
" id="m3e13abf764" style="stroke:#1f77b4;"/>
     </defs>
     <g>
      <use style="fill:#1f77b4;stroke:#1f77b4;" x="787.930625" xlink:href="#m3e13abf764" y="45.094688"/>
     </g>
    </g>
    <g id="text_23">
     <!-- afldark_dev -->
     <g transform="translate(805.930625 48.594688)scale(0.1 -0.1)">
      <defs>
       <path d="M 9.078125 75.984375 
L 18.109375 75.984375 
L 18.109375 31.109375 
L 44.921875 54.6875 
L 56.390625 54.6875 
L 27.390625 29.109375 
L 57.625 0 
L 45.90625 0 
L 18.109375 26.703125 
L 18.109375 0 
L 9.078125 0 
z
" id="DejaVuSans-107"/>
      </defs>
      <use xlink:href="#DejaVuSans-97"/>
      <use x="61.279297" xlink:href="#DejaVuSans-102"/>
      <use x="96.484375" xlink:href="#DejaVuSans-108"/>
      <use x="124.267578" xlink:href="#DejaVuSans-100"/>
      <use x="187.744141" xlink:href="#DejaVuSans-97"/>
      <use x="249.023438" xlink:href="#DejaVuSans-114"/>
      <use x="290.136719" xlink:href="#DejaVuSans-107"/>
      <use x="348.046875" xlink:href="#DejaVuSans-95"/>
      <use x="398.046875" xlink:href="#DejaVuSans-100"/>
      <use x="461.523438" xlink:href="#DejaVuSans-101"/>
      <use x="523.046875" xlink:href="#DejaVuSans-118"/>
     </g>
    </g>
    <g id="line2d_29">
     <path d="M 777.930625 60.050937 
L 797.930625 60.050937 
" style="fill:none;stroke:#98df8a;stroke-linecap:square;stroke-width:1.5;"/>
    </g>
    <g id="line2d_30">
     <defs>
      <path d="M -0 3 
L 3 -3 
L -3 -3 
z
" id="m76bc712e12" style="stroke:#98df8a;stroke-linejoin:miter;"/>
     </defs>
     <g>
      <use style="fill:#98df8a;stroke:#98df8a;stroke-linejoin:miter;" x="787.930625" xlink:href="#m76bc712e12" y="60.050937"/>
     </g>
    </g>
    <g id="text_24">
     <!-- dark_instru_cond -->
     <g transform="translate(805.930625 63.550937)scale(0.1 -0.1)">
      <use xlink:href="#DejaVuSans-100"/>
      <use x="63.476562" xlink:href="#DejaVuSans-97"/>
      <use x="124.755859" xlink:href="#DejaVuSans-114"/>
      <use x="165.869141" xlink:href="#DejaVuSans-107"/>
      <use x="223.779297" xlink:href="#DejaVuSans-95"/>
      <use x="273.779297" xlink:href="#DejaVuSans-105"/>
      <use x="301.5625" xlink:href="#DejaVuSans-110"/>
      <use x="364.941406" xlink:href="#DejaVuSans-115"/>
      <use x="417.041016" xlink:href="#DejaVuSans-116"/>
      <use x="456.25" xlink:href="#DejaVuSans-114"/>
      <use x="497.363281" xlink:href="#DejaVuSans-117"/>
      <use x="560.742188" xlink:href="#DejaVuSans-95"/>
      <use x="610.742188" xlink:href="#DejaVuSans-99"/>
      <use x="665.722656" xlink:href="#DejaVuSans-111"/>
      <use x="726.904297" xlink:href="#DejaVuSans-110"/>
      <use x="790.283203" xlink:href="#DejaVuSans-100"/>
     </g>
    </g>
   </g>
  </g>
 </g>
 <defs>
  <clipPath id="pd5cc04c22b">
   <rect height="266.112" width="714.24" x="59.690625" y="22.318125"/>
  </clipPath>
 </defs>
</svg>
