<?xml version="1.0" encoding="utf-8" standalone="no"?>
<!DOCTYPE svg PUBLIC "-//W3C//DTD SVG 1.1//EN"
  "http://www.w3.org/Graphics/SVG/1.1/DTD/svg11.dtd">
<!-- Created with matplotlib (https://matplotlib.org/) -->
<svg height="325.986375pt" version="1.1" viewBox="0 0 845.419687 325.986375" width="845.419687pt" xmlns="http://www.w3.org/2000/svg" xmlns:xlink="http://www.w3.org/1999/xlink">
 <metadata>
  <rdf:RDF xmlns:cc="http://creativecommons.org/ns#" xmlns:dc="http://purl.org/dc/elements/1.1/" xmlns:rdf="http://www.w3.org/1999/02/22-rdf-syntax-ns#">
   <cc:Work>
    <dc:type rdf:resource="http://purl.org/dc/dcmitype/StillImage"/>
    <dc:date>2020-08-23T20:59:15.601475</dc:date>
    <dc:format>image/svg+xml</dc:format>
    <dc:creator>
     <cc:Agent>
      <dc:title>Matplotlib v3.3.1, https://matplotlib.org/</dc:title>
     </cc:Agent>
    </dc:creator>
   </cc:Work>
  </rdf:RDF>
 </metadata>
 <defs>
  <style type="text/css">*{stroke-linecap:butt;stroke-linejoin:round;}</style>
 </defs>
 <g id="figure_1">
  <g id="patch_1">
   <path d="M 0 325.986375 
L 845.419687 325.986375 
L 845.419687 0 
L 0 0 
z
" style="fill:#ffffff;"/>
  </g>
  <g id="axes_1">
   <g id="patch_2">
    <path d="M 53.328125 288.430125 
L 767.568125 288.430125 
L 767.568125 22.318125 
L 53.328125 22.318125 
z
" style="fill:#ffffff;"/>
   </g>
   <g id="PolyCollection_1">
    <defs>
     <path d="M 85.79358 -121.690972 
L 85.79358 -112.896977 
L 92.628412 -118.881968 
L 99.463245 -119.16636 
L 106.298077 -122.231656 
L 113.13291 -124.747753 
L 119.967742 -123.968657 
L 126.802575 -125.194776 
L 133.637407 -128.322229 
L 140.47224 -131.665957 
L 147.307072 -133.809961 
L 154.141905 -134.084135 
L 160.976737 -139.499492 
L 167.81157 -150.636735 
L 174.646403 -158.093069 
L 181.481235 -158.504329 
L 188.316068 -161.978332 
L 195.1509 -162.591391 
L 201.985733 -172.97934 
L 208.820565 -173.659665 
L 215.655398 -175.772166 
L 222.49023 -177.236696 
L 229.325063 -184.082525 
L 236.159895 -186.909409 
L 242.994728 -190.145 
L 249.82956 -192.80159 
L 256.664393 -195.954588 
L 263.499225 -196.548063 
L 270.334058 -197.399534 
L 277.168891 -199.545242 
L 284.003723 -195.696592 
L 290.838556 -197.99301 
L 297.673388 -199.88583 
L 304.508221 -201.350361 
L 311.343053 -204.143186 
L 318.177886 -202.712715 
L 325.012718 -203.393892 
L 331.847551 -207.651248 
L 338.682383 -212.453545 
L 345.517216 -213.611546 
L 352.352048 -216.234077 
L 359.186881 -216.710901 
L 366.021714 -211.355999 
L 372.856546 -216.506548 
L 379.691379 -211.499897 
L 386.526211 -218.039196 
L 393.361044 -218.107314 
L 400.195876 -219.605903 
L 407.030709 -214.803606 
L 413.865541 -221.615375 
L 420.700374 -222.092199 
L 427.535206 -224.884173 
L 434.370039 -225.600261 
L 441.204871 -225.804614 
L 448.039704 -225.804614 
L 454.874536 -226.310388 
L 461.709369 -220.525492 
L 468.544202 -227.371321 
L 475.379034 -231.935206 
L 482.213867 -232.037383 
L 489.048699 -232.003324 
L 495.883532 -231.858574 
L 502.718364 -232.173618 
L 509.553197 -232.603611 
L 516.388029 -233.195384 
L 523.222862 -234.33891 
L 530.057694 -234.114973 
L 536.892527 -228.495263 
L 543.727359 -234.591797 
L 550.562192 -233.501914 
L 557.397025 -233.638149 
L 564.231857 -241.131096 
L 571.06669 -244.945687 
L 577.901522 -248.38563 
L 584.736355 -248.726219 
L 591.571187 -249.952337 
L 598.40602 -250.667573 
L 605.240852 -250.667573 
L 612.075685 -251.314691 
L 618.910517 -251.450927 
L 625.74535 -251.917533 
L 632.580182 -255.367694 
L 639.415015 -251.757456 
L 646.249847 -252.200221 
L 653.08468 -251.92775 
L 659.919513 -252.813281 
L 666.754345 -253.282441 
L 673.589178 -253.290104 
L 680.42401 -253.630693 
L 687.258843 -255.674224 
L 694.093675 -256.048871 
L 700.928508 -256.365618 
L 707.76334 -256.437993 
L 714.598173 -256.160414 
L 721.433005 -257.683696 
L 728.267838 -257.54746 
L 735.10267 -262.213523 
L 735.10267 -291.57225 
L 735.10267 -291.57225 
L 728.267838 -290.327399 
L 721.433005 -291.26572 
L 714.598173 -290.618602 
L 707.76334 -289.664954 
L 700.928508 -288.064189 
L 694.093675 -288.907145 
L 687.258843 -286.020658 
L 680.42401 -288.166365 
L 673.589178 -287.042423 
L 666.754345 -287.859836 
L 659.919513 -284.658304 
L 653.08468 -287.008364 
L 646.249847 -286.83807 
L 639.415015 -286.83807 
L 632.580182 -286.667776 
L 625.74535 -285.731158 
L 618.910517 -285.407598 
L 612.075685 -285.305422 
L 605.240852 -284.079303 
L 598.40602 -283.786397 
L 591.571187 -283.330009 
L 584.736355 -282.98942 
L 577.901522 -282.785067 
L 571.06669 -279.456666 
L 564.231857 -278.8683 
L 557.397025 -279.208888 
L 550.562192 -277.131298 
L 543.727359 -278.221181 
L 536.892527 -277.131298 
L 530.057694 -276.722592 
L 523.222862 -275.605462 
L 516.388029 -275.29212 
L 509.553197 -274.754842 
L 502.718364 -274.576885 
L 495.883532 -273.52106 
L 489.048699 -274.304414 
L 482.213867 -273.691355 
L 475.379034 -271.852177 
L 468.544202 -271.068823 
L 461.709369 -270.694176 
L 454.874536 -269.740528 
L 448.039704 -269.536175 
L 441.204871 -269.433999 
L 434.370039 -269.39994 
L 427.535206 -269.331822 
L 420.700374 -268.889057 
L 413.865541 -268.718763 
L 407.030709 -268.173821 
L 400.195876 -265.517231 
L 393.361044 -265.278819 
L 386.526211 -263.439641 
L 379.691379 -262.698861 
L 372.856546 -261.327993 
L 366.021714 -260.919286 
L 359.186881 -260.374345 
L 352.352048 -259.454756 
L 345.517216 -255.708283 
L 338.682383 -255.129282 
L 331.847551 -251.825574 
L 325.012718 -250.046851 
L 318.177886 -250.429161 
L 311.343053 -249.852715 
L 304.508221 -249.27116 
L 297.673388 -249.203043 
L 290.838556 -246.852982 
L 284.003723 -245.933393 
L 277.168891 -243.821745 
L 270.334058 -242.731861 
L 263.499225 -239.257859 
L 256.664393 -237.827387 
L 249.82956 -237.486799 
L 242.994728 -237.793328 
L 236.159895 -235.000503 
L 229.325063 -231.049676 
L 222.49023 -228.324969 
L 215.655398 -225.532143 
L 208.820565 -225.225613 
L 201.985733 -222.807435 
L 195.1509 -216.47845 
L 188.316068 -210.682485 
L 181.481235 -209.456367 
L 174.646403 -206.731659 
L 167.81157 -204.756245 
L 160.976737 -199.579301 
L 154.141905 -197.631134 
L 147.307072 -190.349353 
L 140.47224 -180.540404 
L 133.637407 -168.142983 
L 126.802575 -159.151448 
L 119.967742 -157.482564 
L 113.13291 -157.42807 
L 106.298077 -154.757856 
L 99.463245 -153.974503 
L 92.628412 -133.64733 
L 85.79358 -121.690972 
z
" id="m265d233a79" style="stroke:#ffbb78;stroke-opacity:0.2;"/>
    </defs>
    <g clip-path="url(#pb19593c8ea)">
     <use style="fill:#ffbb78;fill-opacity:0.2;stroke:#ffbb78;stroke-opacity:0.2;" x="0" xlink:href="#m265d233a79" y="325.986375"/>
    </g>
   </g>
   <g id="PolyCollection_2">
    <defs>
     <path d="M 85.79358 -121.175832 
L 85.79358 -74.753621 
L 92.628412 -119.813478 
L 99.463245 -121.959185 
L 106.298077 -128.464425 
L 113.13291 -134.254429 
L 119.967742 -145.357614 
L 126.802575 -153.862108 
L 133.637407 -155.493527 
L 140.47224 -157.686917 
L 147.307072 -164.081466 
L 154.141905 -182.107111 
L 160.976737 -185.921702 
L 167.81157 -189.361646 
L 174.646403 -192.222589 
L 181.481235 -195.321944 
L 188.316068 -199.068418 
L 195.1509 -201.043831 
L 201.985733 -202.167773 
L 208.820565 -207.106306 
L 215.655398 -208.298366 
L 222.49023 -208.90291 
L 229.325063 -209.524484 
L 236.159895 -210.750603 
L 242.994728 -211.193368 
L 249.82956 -211.568015 
L 256.664393 -211.938405 
L 263.499225 -212.555722 
L 270.334058 -213.20284 
L 277.168891 -214.156488 
L 284.003723 -213.884017 
L 290.838556 -214.837665 
L 297.673388 -216.131901 
L 304.508221 -217.05149 
L 311.343053 -218.345726 
L 318.177886 -219.364937 
L 325.012718 -218.958785 
L 331.847551 -219.940532 
L 338.682383 -220.480364 
L 345.517216 -218.924726 
L 352.352048 -220.01461 
L 359.186881 -220.082727 
L 366.021714 -222.160317 
L 372.856546 -225.429966 
L 379.691379 -230.879382 
L 386.526211 -232.104649 
L 393.361044 -233.161325 
L 400.195876 -233.399737 
L 407.030709 -233.570031 
L 413.865541 -235.851974 
L 420.700374 -236.217255 
L 427.535206 -239.257859 
L 434.370039 -241.471684 
L 441.204871 -242.834038 
L 448.039704 -243.174626 
L 454.874536 -244.094215 
L 461.709369 -244.502922 
L 468.544202 -244.434804 
L 475.379034 -244.605098 
L 482.213867 -244.809451 
L 489.048699 -245.184099 
L 495.883532 -245.286275 
L 502.718364 -247.295747 
L 509.553197 -248.828395 
L 516.388029 -249.066807 
L 523.222862 -249.543631 
L 530.057694 -250.701632 
L 536.892527 -250.974103 
L 543.727359 -251.611855 
L 550.562192 -251.382809 
L 557.397025 -251.75405 
L 564.231857 -251.757456 
L 571.06669 -251.757456 
L 577.901522 -252.711104 
L 584.736355 -254.073458 
L 591.571187 -253.794175 
L 598.40602 -253.800987 
L 605.240852 -254.175634 
L 612.075685 -255.057759 
L 618.910517 -254.856811 
L 625.74535 -254.924929 
L 632.580182 -255.356625 
L 639.415015 -255.435812 
L 646.249847 -258.726748 
L 653.08468 -261.12364 
L 659.919513 -263.16717 
L 666.754345 -263.575877 
L 673.589178 -263.575877 
L 680.42401 -263.712112 
L 687.258843 -263.916465 
L 694.093675 -264.120818 
L 700.928508 -263.950524 
L 707.76334 -265.040407 
L 714.598173 -265.405688 
L 721.433005 -265.176643 
L 728.267838 -265.278819 
L 735.10267 -265.380144 
L 735.10267 -280.887138 
L 735.10267 -280.887138 
L 728.267838 -279.992242 
L 721.433005 -280.91183 
L 714.598173 -280.503124 
L 707.76334 -279.992242 
L 700.928508 -280.010974 
L 694.093675 -279.007089 
L 687.258843 -278.393179 
L 680.42401 -276.79071 
L 673.589178 -276.79071 
L 666.754345 -275.637818 
L 659.919513 -275.29212 
L 653.08468 -274.474708 
L 646.249847 -273.623237 
L 639.415015 -272.703648 
L 632.580182 -271.324265 
L 625.74535 -271.136941 
L 618.910517 -270.867876 
L 612.075685 -271.000706 
L 605.240852 -270.987934 
L 598.40602 -270.149234 
L 591.571187 -270.149234 
L 584.736355 -270.591999 
L 577.901522 -269.97894 
L 571.06669 -269.97894 
L 564.231857 -268.820939 
L 557.397025 -268.854998 
L 550.562192 -268.820939 
L 543.727359 -268.275998 
L 536.892527 -267.765115 
L 530.057694 -267.117997 
L 523.222862 -264.972289 
L 516.388029 -264.597642 
L 509.553197 -264.257054 
L 502.718364 -263.643994 
L 495.883532 -263.678053 
L 489.048699 -262.834245 
L 482.213867 -262.812107 
L 475.379034 -262.792523 
L 468.544202 -262.451935 
L 461.709369 -261.804817 
L 454.874536 -262.077287 
L 448.039704 -261.770758 
L 441.204871 -261.430169 
L 434.370039 -261.191757 
L 427.535206 -260.204051 
L 420.700374 -260.101874 
L 413.865541 -259.284462 
L 407.030709 -258.467049 
L 400.195876 -257.070637 
L 393.361044 -256.219165 
L 386.526211 -256.457577 
L 379.691379 -255.878577 
L 372.856546 -254.319533 
L 366.021714 -253.869105 
L 359.186881 -251.519044 
L 352.352048 -251.961809 
L 345.517216 -250.484507 
L 338.682383 -251.757456 
L 331.847551 -250.429161 
L 325.012718 -250.429161 
L 318.177886 -252.472692 
L 311.343053 -249.713925 
L 304.508221 -250.326985 
L 297.673388 -229.789499 
L 290.838556 -228.29091 
L 284.003723 -228.461204 
L 277.168891 -227.67785 
L 270.334058 -227.67785 
L 263.499225 -225.361849 
L 256.664393 -225.297988 
L 249.82956 -225.055319 
L 242.994728 -224.237907 
L 236.159895 -223.297883 
L 229.325063 -220.491433 
L 222.49023 -219.197197 
L 215.655398 -218.550079 
L 208.820565 -216.74496 
L 201.985733 -213.20284 
L 195.1509 -211.398572 
L 188.316068 -210.648426 
L 181.481235 -208.877366 
L 174.646403 -207.622298 
L 167.81157 -206.254835 
L 160.976737 -196.752416 
L 154.141905 -192.563178 
L 147.307072 -190.110941 
L 140.47224 -184.320936 
L 133.637407 -182.515818 
L 126.802575 -178.769344 
L 119.967742 -171.276398 
L 113.13291 -160.513801 
L 106.298077 -149.717147 
L 99.463245 -144.472084 
L 92.628412 -143.143789 
L 85.79358 -121.175832 
z
" id="mfdc02ec254" style="stroke:#1f77b4;stroke-opacity:0.2;"/>
    </defs>
    <g clip-path="url(#pb19593c8ea)">
     <use style="fill:#1f77b4;fill-opacity:0.2;stroke:#1f77b4;stroke-opacity:0.2;" x="0" xlink:href="#mfdc02ec254" y="325.986375"/>
    </g>
   </g>
   <g id="PolyCollection_3">
    <defs>
     <path d="M 85.79358 -136.876961 
L 85.79358 -78.874742 
L 92.628412 -112.967649 
L 99.463245 -116.680064 
L 106.298077 -128.396307 
L 113.13291 -143.10973 
L 119.967742 -145.456385 
L 126.802575 -155.268739 
L 133.637407 -166.405982 
L 140.47224 -169.35633 
L 147.307072 -171.991633 
L 154.141905 -173.967047 
L 160.976737 -176.862049 
L 167.81157 -177.270755 
L 174.646403 -181.085346 
L 181.481235 -183.231053 
L 188.316068 -183.128877 
L 195.1509 -186.599473 
L 201.985733 -186.566266 
L 208.820565 -187.011585 
L 215.655398 -187.624645 
L 222.49023 -190.587765 
L 229.325063 -192.18853 
L 236.159895 -194.232061 
L 242.994728 -192.767531 
L 249.82956 -196.336047 
L 256.664393 -197.093005 
L 263.499225 -200.907596 
L 270.334058 -201.043831 
L 277.168891 -206.561364 
L 284.003723 -206.629482 
L 290.838556 -207.063732 
L 297.673388 -208.264307 
L 304.508221 -207.957777 
L 311.343053 -209.04766 
L 318.177886 -209.088531 
L 325.012718 -209.490425 
L 331.847551 -209.524484 
L 338.682383 -209.456367 
L 345.517216 -210.67397 
L 352.352048 -210.137544 
L 359.186881 -211.227427 
L 366.021714 -212.078898 
L 372.856546 -213.606437 
L 379.691379 -215.961607 
L 386.526211 -215.5529 
L 393.361044 -215.621018 
L 400.195876 -216.302195 
L 407.030709 -216.608725 
L 413.865541 -218.921321 
L 420.700374 -221.129185 
L 427.535206 -221.581317 
L 434.370039 -222.991353 
L 441.204871 -223.148024 
L 448.039704 -225.05021 
L 454.874536 -223.897318 
L 461.709369 -227.303203 
L 468.544202 -227.541615 
L 475.379034 -227.507556 
L 482.213867 -227.507556 
L 489.048699 -229.823558 
L 495.883532 -228.665557 
L 502.718364 -228.972087 
L 509.553197 -230.027911 
L 516.388029 -229.517028 
L 523.222862 -229.517028 
L 530.057694 -230.523467 
L 536.892527 -230.538794 
L 543.727359 -232.41203 
L 550.562192 -230.968787 
L 557.397025 -232.752619 
L 564.231857 -235.16654 
L 571.06669 -235.68168 
L 577.901522 -236.124445 
L 584.736355 -236.975916 
L 591.571187 -237.75927 
L 598.40602 -238.542623 
L 605.240852 -239.428153 
L 612.075685 -239.904977 
L 618.910517 -239.734683 
L 625.74535 -239.245938 
L 632.580182 -239.462212 
L 639.415015 -240.177448 
L 646.249847 -240.177448 
L 653.08468 -239.53033 
L 659.919513 -239.734683 
L 666.754345 -241.471684 
L 673.589178 -240.313683 
L 680.42401 -240.381801 
L 687.258843 -242.218424 
L 694.093675 -240.61851 
L 700.928508 -242.629685 
L 707.76334 -239.632506 
L 714.598173 -247.772571 
L 721.433005 -248.487807 
L 728.267838 -248.726219 
L 735.10267 -249.305219 
L 735.10267 -286.020658 
L 735.10267 -286.020658 
L 728.267838 -285.475716 
L 721.433005 -285.409301 
L 714.598173 -285.305422 
L 707.76334 -285.101069 
L 700.928508 -282.819126 
L 694.093675 -283.534362 
L 687.258843 -285.714128 
L 680.42401 -281.354595 
L 673.589178 -281.229429 
L 666.754345 -282.478537 
L 659.919513 -282.39339 
L 653.08468 -280.809654 
L 646.249847 -283.670597 
L 639.415015 -281.014007 
L 632.580182 -280.742388 
L 625.74535 -275.700827 
L 618.910517 -274.971967 
L 612.075685 -274.68417 
L 605.240852 -274.13412 
L 598.40602 -272.158706 
L 591.571187 -272.703648 
L 584.736355 -269.604293 
L 577.901522 -268.480351 
L 571.06669 -262.596685 
L 564.231857 -265.653466 
L 557.397025 -263.916465 
L 550.562192 -262.145405 
L 543.727359 -261.089581 
L 536.892527 -260.81711 
L 530.057694 -261.804817 
L 523.222862 -260.200645 
L 516.388029 -260.033756 
L 509.553197 -259.318521 
L 502.718364 -257.492115 
L 495.883532 -251.212515 
L 489.048699 -248.215336 
L 482.213867 -245.490628 
L 475.379034 -244.639157 
L 468.544202 -243.923921 
L 461.709369 -243.106509 
L 454.874536 -242.289096 
L 448.039704 -242.152861 
L 441.204871 -242.459391 
L 434.370039 -241.573861 
L 427.535206 -241.88039 
L 420.700374 -241.88039 
L 413.865541 -241.131096 
L 407.030709 -240.177448 
L 400.195876 -236.396916 
L 393.361044 -235.451783 
L 386.526211 -234.79615 
L 379.691379 -234.625856 
L 372.856546 -233.501914 
L 366.021714 -232.752619 
L 359.186881 -231.83303 
L 352.352048 -230.777206 
L 345.517216 -230.470676 
L 338.682383 -229.694986 
L 331.847551 -229.75544 
L 325.012718 -229.456574 
L 318.177886 -229.687323 
L 311.343053 -227.882204 
L 304.508221 -228.801792 
L 297.673388 -228.018439 
L 290.838556 -225.361849 
L 284.003723 -226.077085 
L 277.168891 -226.111143 
L 270.334058 -225.872731 
L 263.499225 -223.897318 
L 256.664393 -224.721542 
L 249.82956 -223.795142 
L 242.994728 -216.624903 
L 236.159895 -213.134722 
L 229.325063 -210.171602 
L 222.49023 -209.320131 
L 215.655398 -208.400542 
L 208.820565 -207.993539 
L 201.985733 -206.595423 
L 195.1509 -204.92654 
L 188.316068 -203.019244 
L 181.481235 -201.861243 
L 174.646403 -197.024887 
L 167.81157 -190.451529 
L 160.976737 -186.808084 
L 154.141905 -184.831819 
L 147.307072 -183.094818 
L 140.47224 -179.348345 
L 133.637407 -175.772166 
L 126.802575 -172.09381 
L 119.967742 -171.378574 
L 113.13291 -164.055922 
L 106.298077 -154.689738 
L 99.463245 -147.196792 
L 92.628412 -145.868497 
L 85.79358 -136.876961 
z
" id="m1e6f7c350e" style="stroke:#ff7f0e;stroke-opacity:0.2;"/>
    </defs>
    <g clip-path="url(#pb19593c8ea)">
     <use style="fill:#ff7f0e;fill-opacity:0.2;stroke:#ff7f0e;stroke-opacity:0.2;" x="0" xlink:href="#m1e6f7c350e" y="325.986375"/>
    </g>
   </g>
   <g id="PolyCollection_4">
    <defs>
     <path d="M 85.79358 -60.278611 
L 85.79358 -49.65225 
L 92.628412 -53.330606 
L 99.463245 -60.391856 
L 106.298077 -70.189736 
L 113.13291 -72.301384 
L 119.967742 -87.627866 
L 126.802575 -90.011985 
L 133.637407 -93.077282 
L 140.47224 -97.334638 
L 147.307072 -101.796347 
L 154.141905 -109.113039 
L 160.976737 -113.444473 
L 167.81157 -142.053906 
L 174.646403 -140.964022 
L 181.481235 -143.893083 
L 188.316068 -143.143789 
L 195.1509 -145.153261 
L 201.985733 -146.038791 
L 208.820565 -157.823152 
L 215.655398 -158.436212 
L 222.49023 -159.049271 
L 229.325063 -168.653866 
L 236.159895 -169.539396 
L 242.994728 -170.356809 
L 249.82956 -176.82799 
L 256.664393 -179.041815 
L 263.499225 -181.868699 
L 270.334058 -182.379582 
L 277.168891 -184.831819 
L 284.003723 -187.488409 
L 290.838556 -187.998441 
L 297.673388 -188.64641 
L 304.508221 -192.256648 
L 311.343053 -195.900945 
L 318.177886 -199.749595 
L 325.012718 -204.449716 
L 331.847551 -204.688128 
L 338.682383 -205.403364 
L 345.517216 -206.050482 
L 352.352048 -206.561364 
L 359.186881 -207.855601 
L 366.021714 -208.128071 
L 372.856546 -208.264307 
L 379.691379 -208.400542 
L 386.526211 -208.400542 
L 393.361044 -208.536778 
L 400.195876 -208.536778 
L 407.030709 -209.388249 
L 413.865541 -210.171602 
L 420.700374 -210.716544 
L 427.535206 -212.385428 
L 434.370039 -212.623839 
L 441.204871 -212.964428 
L 448.039704 -213.986193 
L 454.874536 -214.531135 
L 461.709369 -213.815899 
L 468.544202 -213.815899 
L 475.379034 -214.08837 
L 482.213867 -214.9739 
L 489.048699 -216.898225 
L 495.883532 -216.761138 
L 502.718364 -216.370313 
L 509.553197 -216.881196 
L 516.388029 -217.902961 
L 523.222862 -217.221784 
L 530.057694 -218.175432 
L 536.892527 -218.924726 
L 543.727359 -218.19161 
L 550.562192 -218.924726 
L 557.397025 -218.19161 
L 564.231857 -218.19161 
L 571.06669 -218.209491 
L 577.901522 -217.596431 
L 584.736355 -217.63049 
L 591.571187 -218.311667 
L 598.40602 -218.720373 
L 605.240852 -219.163138 
L 612.075685 -219.290008 
L 618.910517 -217.596431 
L 625.74535 -219.503727 
L 632.580182 -219.70808 
L 639.415015 -219.810256 
L 646.249847 -220.525492 
L 653.08468 -219.912433 
L 659.919513 -222.524747 
L 666.754345 -229.789499 
L 673.589178 -230.709088 
L 680.42401 -231.322147 
L 687.258843 -232.480148 
L 694.093675 -232.480148 
L 700.928508 -234.387444 
L 707.76334 -234.591797 
L 714.598173 -234.591797 
L 721.433005 -234.591797 
L 728.267838 -234.728032 
L 735.10267 -235.341091 
L 735.10267 -270.898529 
L 735.10267 -270.898529 
L 728.267838 -270.86447 
L 721.433005 -267.492644 
L 714.598173 -269.944881 
L 707.76334 -268.820939 
L 700.928508 -268.51441 
L 694.093675 -267.492644 
L 687.258843 -268.037586 
L 680.42401 -266.402761 
L 673.589178 -265.040407 
L 666.754345 -263.405582 
L 659.919513 -262.860641 
L 653.08468 -259.693168 
L 646.249847 -260.51058 
L 639.415015 -259.488815 
L 632.580182 -259.488815 
L 625.74535 -258.603285 
L 618.910517 -259.182285 
L 612.075685 -258.501108 
L 605.240852 -260.919286 
L 598.40602 -260.306227 
L 591.571187 -257.734784 
L 584.736355 -259.080109 
L 577.901522 -259.080109 
L 571.06669 -259.080109 
L 564.231857 -259.080109 
L 557.397025 -257.649637 
L 550.562192 -258.977932 
L 543.727359 -257.465719 
L 536.892527 -258.228637 
L 530.057694 -258.909814 
L 523.222862 -258.909814 
L 516.388029 -258.467049 
L 509.553197 -257.85399 
L 502.718364 -256.006298 
L 495.883532 -255.980753 
L 489.048699 -253.732869 
L 482.213867 -251.757456 
L 475.379034 -251.763417 
L 468.544202 -251.621221 
L 461.709369 -251.34875 
L 454.874536 -250.46322 
L 448.039704 -249.611749 
L 441.204871 -251.178456 
L 434.370039 -250.122632 
L 427.535206 -247.976924 
L 420.700374 -247.397924 
L 413.865541 -247.193571 
L 407.030709 -246.069629 
L 400.195876 -246.205864 
L 393.361044 -245.5034 
L 386.526211 -245.797158 
L 379.691379 -244.945687 
L 372.856546 -245.831217 
L 366.021714 -244.639157 
L 359.186881 -244.332627 
L 352.352048 -241.64283 
L 345.517216 -240.177448 
L 338.682383 -238.03174 
L 331.847551 -237.623034 
L 325.012718 -237.588975 
L 318.177886 -236.005239 
L 311.343053 -235.920092 
L 304.508221 -231.560559 
L 297.673388 -230.845323 
L 290.838556 -228.359027 
L 284.003723 -226.187776 
L 277.168891 -224.987201 
L 270.334058 -226.077085 
L 263.499225 -220.729845 
L 256.664393 -220.28708 
L 249.82956 -215.076077 
L 242.994728 -211.568015 
L 236.159895 -206.084541 
L 229.325063 -204.92654 
L 222.49023 -198.727829 
L 215.655398 -200.090183 
L 208.820565 -196.411828 
L 201.985733 -193.516826 
L 195.1509 -183.401348 
L 188.316068 -177.40699 
L 181.481235 -176.010577 
L 174.646403 -173.718417 
L 167.81157 -166.099453 
L 160.976737 -164.362451 
L 154.141905 -160.173213 
L 147.307072 -153.883395 
L 140.47224 -142.326376 
L 133.637407 -141.849553 
L 126.802575 -140.282846 
L 119.967742 -139.601669 
L 113.13291 -121.550479 
L 106.298077 -115.760475 
L 99.463245 -106.360233 
L 92.628412 -99.889051 
L 85.79358 -60.278611 
z
" id="m32cc3c112a" style="stroke:#aec7e8;stroke-opacity:0.2;"/>
    </defs>
    <g clip-path="url(#pb19593c8ea)">
     <use style="fill:#aec7e8;fill-opacity:0.2;stroke:#aec7e8;stroke-opacity:0.2;" x="0" xlink:href="#m32cc3c112a" y="325.986375"/>
    </g>
   </g>
   <g id="matplotlib.axis_1">
    <g id="xtick_1">
     <g id="line2d_1">
      <defs>
       <path d="M 0 0 
L 0 3.5 
" id="me4d6c7fd6a" style="stroke:#000000;stroke-width:0.8;"/>
      </defs>
      <g>
       <use style="stroke:#000000;stroke-width:0.8;" x="85.79358" xlink:href="#me4d6c7fd6a" y="288.430125"/>
      </g>
     </g>
     <g id="text_1">
      <!-- 15m -->
      <g transform="translate(74.560767 303.028562)scale(0.1 -0.1)">
       <defs>
        <path d="M 12.40625 8.296875 
L 28.515625 8.296875 
L 28.515625 63.921875 
L 10.984375 60.40625 
L 10.984375 69.390625 
L 28.421875 72.90625 
L 38.28125 72.90625 
L 38.28125 8.296875 
L 54.390625 8.296875 
L 54.390625 0 
L 12.40625 0 
z
" id="DejaVuSans-49"/>
        <path d="M 10.796875 72.90625 
L 49.515625 72.90625 
L 49.515625 64.59375 
L 19.828125 64.59375 
L 19.828125 46.734375 
Q 21.96875 47.46875 24.109375 47.828125 
Q 26.265625 48.1875 28.421875 48.1875 
Q 40.625 48.1875 47.75 41.5 
Q 54.890625 34.8125 54.890625 23.390625 
Q 54.890625 11.625 47.5625 5.09375 
Q 40.234375 -1.421875 26.90625 -1.421875 
Q 22.3125 -1.421875 17.546875 -0.640625 
Q 12.796875 0.140625 7.71875 1.703125 
L 7.71875 11.625 
Q 12.109375 9.234375 16.796875 8.0625 
Q 21.484375 6.890625 26.703125 6.890625 
Q 35.15625 6.890625 40.078125 11.328125 
Q 45.015625 15.765625 45.015625 23.390625 
Q 45.015625 31 40.078125 35.4375 
Q 35.15625 39.890625 26.703125 39.890625 
Q 22.75 39.890625 18.8125 39.015625 
Q 14.890625 38.140625 10.796875 36.28125 
z
" id="DejaVuSans-53"/>
        <path d="M 52 44.1875 
Q 55.375 50.25 60.0625 53.125 
Q 64.75 56 71.09375 56 
Q 79.640625 56 84.28125 50.015625 
Q 88.921875 44.046875 88.921875 33.015625 
L 88.921875 0 
L 79.890625 0 
L 79.890625 32.71875 
Q 79.890625 40.578125 77.09375 44.375 
Q 74.3125 48.1875 68.609375 48.1875 
Q 61.625 48.1875 57.5625 43.546875 
Q 53.515625 38.921875 53.515625 30.90625 
L 53.515625 0 
L 44.484375 0 
L 44.484375 32.71875 
Q 44.484375 40.625 41.703125 44.40625 
Q 38.921875 48.1875 33.109375 48.1875 
Q 26.21875 48.1875 22.15625 43.53125 
Q 18.109375 38.875 18.109375 30.90625 
L 18.109375 0 
L 9.078125 0 
L 9.078125 54.6875 
L 18.109375 54.6875 
L 18.109375 46.1875 
Q 21.1875 51.21875 25.484375 53.609375 
Q 29.78125 56 35.6875 56 
Q 41.65625 56 45.828125 52.96875 
Q 50 49.953125 52 44.1875 
z
" id="DejaVuSans-109"/>
       </defs>
       <use xlink:href="#DejaVuSans-49"/>
       <use x="63.623047" xlink:href="#DejaVuSans-53"/>
       <use x="127.246094" xlink:href="#DejaVuSans-109"/>
      </g>
     </g>
    </g>
    <g id="xtick_2">
     <g id="line2d_2">
      <g>
       <use style="stroke:#000000;stroke-width:0.8;" x="140.47224" xlink:href="#me4d6c7fd6a" y="288.430125"/>
      </g>
     </g>
     <g id="text_2">
      <!-- 2h:15m -->
      <g transform="translate(121.205052 303.028562)scale(0.1 -0.1)">
       <defs>
        <path d="M 19.1875 8.296875 
L 53.609375 8.296875 
L 53.609375 0 
L 7.328125 0 
L 7.328125 8.296875 
Q 12.9375 14.109375 22.625 23.890625 
Q 32.328125 33.6875 34.8125 36.53125 
Q 39.546875 41.84375 41.421875 45.53125 
Q 43.3125 49.21875 43.3125 52.78125 
Q 43.3125 58.59375 39.234375 62.25 
Q 35.15625 65.921875 28.609375 65.921875 
Q 23.96875 65.921875 18.8125 64.3125 
Q 13.671875 62.703125 7.8125 59.421875 
L 7.8125 69.390625 
Q 13.765625 71.78125 18.9375 73 
Q 24.125 74.21875 28.421875 74.21875 
Q 39.75 74.21875 46.484375 68.546875 
Q 53.21875 62.890625 53.21875 53.421875 
Q 53.21875 48.921875 51.53125 44.890625 
Q 49.859375 40.875 45.40625 35.40625 
Q 44.1875 33.984375 37.640625 27.21875 
Q 31.109375 20.453125 19.1875 8.296875 
z
" id="DejaVuSans-50"/>
        <path d="M 54.890625 33.015625 
L 54.890625 0 
L 45.90625 0 
L 45.90625 32.71875 
Q 45.90625 40.484375 42.875 44.328125 
Q 39.84375 48.1875 33.796875 48.1875 
Q 26.515625 48.1875 22.3125 43.546875 
Q 18.109375 38.921875 18.109375 30.90625 
L 18.109375 0 
L 9.078125 0 
L 9.078125 75.984375 
L 18.109375 75.984375 
L 18.109375 46.1875 
Q 21.34375 51.125 25.703125 53.5625 
Q 30.078125 56 35.796875 56 
Q 45.21875 56 50.046875 50.171875 
Q 54.890625 44.34375 54.890625 33.015625 
z
" id="DejaVuSans-104"/>
        <path d="M 11.71875 12.40625 
L 22.015625 12.40625 
L 22.015625 0 
L 11.71875 0 
z
M 11.71875 51.703125 
L 22.015625 51.703125 
L 22.015625 39.3125 
L 11.71875 39.3125 
z
" id="DejaVuSans-58"/>
       </defs>
       <use xlink:href="#DejaVuSans-50"/>
       <use x="63.623047" xlink:href="#DejaVuSans-104"/>
       <use x="127.001953" xlink:href="#DejaVuSans-58"/>
       <use x="160.693359" xlink:href="#DejaVuSans-49"/>
       <use x="224.316406" xlink:href="#DejaVuSans-53"/>
       <use x="287.939453" xlink:href="#DejaVuSans-109"/>
      </g>
     </g>
    </g>
    <g id="xtick_3">
     <g id="line2d_3">
      <g>
       <use style="stroke:#000000;stroke-width:0.8;" x="195.1509" xlink:href="#me4d6c7fd6a" y="288.430125"/>
      </g>
     </g>
     <g id="text_3">
      <!-- 4h:15m -->
      <g transform="translate(175.883713 303.028562)scale(0.1 -0.1)">
       <defs>
        <path d="M 37.796875 64.3125 
L 12.890625 25.390625 
L 37.796875 25.390625 
z
M 35.203125 72.90625 
L 47.609375 72.90625 
L 47.609375 25.390625 
L 58.015625 25.390625 
L 58.015625 17.1875 
L 47.609375 17.1875 
L 47.609375 0 
L 37.796875 0 
L 37.796875 17.1875 
L 4.890625 17.1875 
L 4.890625 26.703125 
z
" id="DejaVuSans-52"/>
       </defs>
       <use xlink:href="#DejaVuSans-52"/>
       <use x="63.623047" xlink:href="#DejaVuSans-104"/>
       <use x="127.001953" xlink:href="#DejaVuSans-58"/>
       <use x="160.693359" xlink:href="#DejaVuSans-49"/>
       <use x="224.316406" xlink:href="#DejaVuSans-53"/>
       <use x="287.939453" xlink:href="#DejaVuSans-109"/>
      </g>
     </g>
    </g>
    <g id="xtick_4">
     <g id="line2d_4">
      <g>
       <use style="stroke:#000000;stroke-width:0.8;" x="249.82956" xlink:href="#me4d6c7fd6a" y="288.430125"/>
      </g>
     </g>
     <g id="text_4">
      <!-- 6h:15m -->
      <g transform="translate(230.562373 303.028562)scale(0.1 -0.1)">
       <defs>
        <path d="M 33.015625 40.375 
Q 26.375 40.375 22.484375 35.828125 
Q 18.609375 31.296875 18.609375 23.390625 
Q 18.609375 15.53125 22.484375 10.953125 
Q 26.375 6.390625 33.015625 6.390625 
Q 39.65625 6.390625 43.53125 10.953125 
Q 47.40625 15.53125 47.40625 23.390625 
Q 47.40625 31.296875 43.53125 35.828125 
Q 39.65625 40.375 33.015625 40.375 
z
M 52.59375 71.296875 
L 52.59375 62.3125 
Q 48.875 64.0625 45.09375 64.984375 
Q 41.3125 65.921875 37.59375 65.921875 
Q 27.828125 65.921875 22.671875 59.328125 
Q 17.53125 52.734375 16.796875 39.40625 
Q 19.671875 43.65625 24.015625 45.921875 
Q 28.375 48.1875 33.59375 48.1875 
Q 44.578125 48.1875 50.953125 41.515625 
Q 57.328125 34.859375 57.328125 23.390625 
Q 57.328125 12.15625 50.6875 5.359375 
Q 44.046875 -1.421875 33.015625 -1.421875 
Q 20.359375 -1.421875 13.671875 8.265625 
Q 6.984375 17.96875 6.984375 36.375 
Q 6.984375 53.65625 15.1875 63.9375 
Q 23.390625 74.21875 37.203125 74.21875 
Q 40.921875 74.21875 44.703125 73.484375 
Q 48.484375 72.75 52.59375 71.296875 
z
" id="DejaVuSans-54"/>
       </defs>
       <use xlink:href="#DejaVuSans-54"/>
       <use x="63.623047" xlink:href="#DejaVuSans-104"/>
       <use x="127.001953" xlink:href="#DejaVuSans-58"/>
       <use x="160.693359" xlink:href="#DejaVuSans-49"/>
       <use x="224.316406" xlink:href="#DejaVuSans-53"/>
       <use x="287.939453" xlink:href="#DejaVuSans-109"/>
      </g>
     </g>
    </g>
    <g id="xtick_5">
     <g id="line2d_5">
      <g>
       <use style="stroke:#000000;stroke-width:0.8;" x="304.508221" xlink:href="#me4d6c7fd6a" y="288.430125"/>
      </g>
     </g>
     <g id="text_5">
      <!-- 8h:15m -->
      <g transform="translate(285.241033 303.028562)scale(0.1 -0.1)">
       <defs>
        <path d="M 31.78125 34.625 
Q 24.75 34.625 20.71875 30.859375 
Q 16.703125 27.09375 16.703125 20.515625 
Q 16.703125 13.921875 20.71875 10.15625 
Q 24.75 6.390625 31.78125 6.390625 
Q 38.8125 6.390625 42.859375 10.171875 
Q 46.921875 13.96875 46.921875 20.515625 
Q 46.921875 27.09375 42.890625 30.859375 
Q 38.875 34.625 31.78125 34.625 
z
M 21.921875 38.8125 
Q 15.578125 40.375 12.03125 44.71875 
Q 8.5 49.078125 8.5 55.328125 
Q 8.5 64.0625 14.71875 69.140625 
Q 20.953125 74.21875 31.78125 74.21875 
Q 42.671875 74.21875 48.875 69.140625 
Q 55.078125 64.0625 55.078125 55.328125 
Q 55.078125 49.078125 51.53125 44.71875 
Q 48 40.375 41.703125 38.8125 
Q 48.828125 37.15625 52.796875 32.3125 
Q 56.78125 27.484375 56.78125 20.515625 
Q 56.78125 9.90625 50.3125 4.234375 
Q 43.84375 -1.421875 31.78125 -1.421875 
Q 19.734375 -1.421875 13.25 4.234375 
Q 6.78125 9.90625 6.78125 20.515625 
Q 6.78125 27.484375 10.78125 32.3125 
Q 14.796875 37.15625 21.921875 38.8125 
z
M 18.3125 54.390625 
Q 18.3125 48.734375 21.84375 45.5625 
Q 25.390625 42.390625 31.78125 42.390625 
Q 38.140625 42.390625 41.71875 45.5625 
Q 45.3125 48.734375 45.3125 54.390625 
Q 45.3125 60.0625 41.71875 63.234375 
Q 38.140625 66.40625 31.78125 66.40625 
Q 25.390625 66.40625 21.84375 63.234375 
Q 18.3125 60.0625 18.3125 54.390625 
z
" id="DejaVuSans-56"/>
       </defs>
       <use xlink:href="#DejaVuSans-56"/>
       <use x="63.623047" xlink:href="#DejaVuSans-104"/>
       <use x="127.001953" xlink:href="#DejaVuSans-58"/>
       <use x="160.693359" xlink:href="#DejaVuSans-49"/>
       <use x="224.316406" xlink:href="#DejaVuSans-53"/>
       <use x="287.939453" xlink:href="#DejaVuSans-109"/>
      </g>
     </g>
    </g>
    <g id="xtick_6">
     <g id="line2d_6">
      <g>
       <use style="stroke:#000000;stroke-width:0.8;" x="359.186881" xlink:href="#me4d6c7fd6a" y="288.430125"/>
      </g>
     </g>
     <g id="text_6">
      <!-- 10h:15m -->
      <g transform="translate(336.738443 303.028562)scale(0.1 -0.1)">
       <defs>
        <path d="M 31.78125 66.40625 
Q 24.171875 66.40625 20.328125 58.90625 
Q 16.5 51.421875 16.5 36.375 
Q 16.5 21.390625 20.328125 13.890625 
Q 24.171875 6.390625 31.78125 6.390625 
Q 39.453125 6.390625 43.28125 13.890625 
Q 47.125 21.390625 47.125 36.375 
Q 47.125 51.421875 43.28125 58.90625 
Q 39.453125 66.40625 31.78125 66.40625 
z
M 31.78125 74.21875 
Q 44.046875 74.21875 50.515625 64.515625 
Q 56.984375 54.828125 56.984375 36.375 
Q 56.984375 17.96875 50.515625 8.265625 
Q 44.046875 -1.421875 31.78125 -1.421875 
Q 19.53125 -1.421875 13.0625 8.265625 
Q 6.59375 17.96875 6.59375 36.375 
Q 6.59375 54.828125 13.0625 64.515625 
Q 19.53125 74.21875 31.78125 74.21875 
z
" id="DejaVuSans-48"/>
       </defs>
       <use xlink:href="#DejaVuSans-49"/>
       <use x="63.623047" xlink:href="#DejaVuSans-48"/>
       <use x="127.246094" xlink:href="#DejaVuSans-104"/>
       <use x="190.625" xlink:href="#DejaVuSans-58"/>
       <use x="224.316406" xlink:href="#DejaVuSans-49"/>
       <use x="287.939453" xlink:href="#DejaVuSans-53"/>
       <use x="351.5625" xlink:href="#DejaVuSans-109"/>
      </g>
     </g>
    </g>
    <g id="xtick_7">
     <g id="line2d_7">
      <g>
       <use style="stroke:#000000;stroke-width:0.8;" x="413.865541" xlink:href="#me4d6c7fd6a" y="288.430125"/>
      </g>
     </g>
     <g id="text_7">
      <!-- 12h:15m -->
      <g transform="translate(391.417104 303.028562)scale(0.1 -0.1)">
       <use xlink:href="#DejaVuSans-49"/>
       <use x="63.623047" xlink:href="#DejaVuSans-50"/>
       <use x="127.246094" xlink:href="#DejaVuSans-104"/>
       <use x="190.625" xlink:href="#DejaVuSans-58"/>
       <use x="224.316406" xlink:href="#DejaVuSans-49"/>
       <use x="287.939453" xlink:href="#DejaVuSans-53"/>
       <use x="351.5625" xlink:href="#DejaVuSans-109"/>
      </g>
     </g>
    </g>
    <g id="xtick_8">
     <g id="line2d_8">
      <g>
       <use style="stroke:#000000;stroke-width:0.8;" x="468.544202" xlink:href="#me4d6c7fd6a" y="288.430125"/>
      </g>
     </g>
     <g id="text_8">
      <!-- 14h:15m -->
      <g transform="translate(446.095764 303.028562)scale(0.1 -0.1)">
       <use xlink:href="#DejaVuSans-49"/>
       <use x="63.623047" xlink:href="#DejaVuSans-52"/>
       <use x="127.246094" xlink:href="#DejaVuSans-104"/>
       <use x="190.625" xlink:href="#DejaVuSans-58"/>
       <use x="224.316406" xlink:href="#DejaVuSans-49"/>
       <use x="287.939453" xlink:href="#DejaVuSans-53"/>
       <use x="351.5625" xlink:href="#DejaVuSans-109"/>
      </g>
     </g>
    </g>
    <g id="xtick_9">
     <g id="line2d_9">
      <g>
       <use style="stroke:#000000;stroke-width:0.8;" x="523.222862" xlink:href="#me4d6c7fd6a" y="288.430125"/>
      </g>
     </g>
     <g id="text_9">
      <!-- 16h:15m -->
      <g transform="translate(500.774424 303.028562)scale(0.1 -0.1)">
       <use xlink:href="#DejaVuSans-49"/>
       <use x="63.623047" xlink:href="#DejaVuSans-54"/>
       <use x="127.246094" xlink:href="#DejaVuSans-104"/>
       <use x="190.625" xlink:href="#DejaVuSans-58"/>
       <use x="224.316406" xlink:href="#DejaVuSans-49"/>
       <use x="287.939453" xlink:href="#DejaVuSans-53"/>
       <use x="351.5625" xlink:href="#DejaVuSans-109"/>
      </g>
     </g>
    </g>
    <g id="xtick_10">
     <g id="line2d_10">
      <g>
       <use style="stroke:#000000;stroke-width:0.8;" x="577.901522" xlink:href="#me4d6c7fd6a" y="288.430125"/>
      </g>
     </g>
     <g id="text_10">
      <!-- 18h:15m -->
      <g transform="translate(555.453085 303.028562)scale(0.1 -0.1)">
       <use xlink:href="#DejaVuSans-49"/>
       <use x="63.623047" xlink:href="#DejaVuSans-56"/>
       <use x="127.246094" xlink:href="#DejaVuSans-104"/>
       <use x="190.625" xlink:href="#DejaVuSans-58"/>
       <use x="224.316406" xlink:href="#DejaVuSans-49"/>
       <use x="287.939453" xlink:href="#DejaVuSans-53"/>
       <use x="351.5625" xlink:href="#DejaVuSans-109"/>
      </g>
     </g>
    </g>
    <g id="xtick_11">
     <g id="line2d_11">
      <g>
       <use style="stroke:#000000;stroke-width:0.8;" x="632.580182" xlink:href="#me4d6c7fd6a" y="288.430125"/>
      </g>
     </g>
     <g id="text_11">
      <!-- 20h:15m -->
      <g transform="translate(610.131745 303.028562)scale(0.1 -0.1)">
       <use xlink:href="#DejaVuSans-50"/>
       <use x="63.623047" xlink:href="#DejaVuSans-48"/>
       <use x="127.246094" xlink:href="#DejaVuSans-104"/>
       <use x="190.625" xlink:href="#DejaVuSans-58"/>
       <use x="224.316406" xlink:href="#DejaVuSans-49"/>
       <use x="287.939453" xlink:href="#DejaVuSans-53"/>
       <use x="351.5625" xlink:href="#DejaVuSans-109"/>
      </g>
     </g>
    </g>
    <g id="xtick_12">
     <g id="line2d_12">
      <g>
       <use style="stroke:#000000;stroke-width:0.8;" x="687.258843" xlink:href="#me4d6c7fd6a" y="288.430125"/>
      </g>
     </g>
     <g id="text_12">
      <!-- 22h:15m -->
      <g transform="translate(664.810405 303.028562)scale(0.1 -0.1)">
       <use xlink:href="#DejaVuSans-50"/>
       <use x="63.623047" xlink:href="#DejaVuSans-50"/>
       <use x="127.246094" xlink:href="#DejaVuSans-104"/>
       <use x="190.625" xlink:href="#DejaVuSans-58"/>
       <use x="224.316406" xlink:href="#DejaVuSans-49"/>
       <use x="287.939453" xlink:href="#DejaVuSans-53"/>
       <use x="351.5625" xlink:href="#DejaVuSans-109"/>
      </g>
     </g>
    </g>
    <g id="text_13">
     <!-- Time (hour:minute) -->
     <g transform="translate(362.041094 316.706687)scale(0.1 -0.1)">
      <defs>
       <path d="M -0.296875 72.90625 
L 61.375 72.90625 
L 61.375 64.59375 
L 35.5 64.59375 
L 35.5 0 
L 25.59375 0 
L 25.59375 64.59375 
L -0.296875 64.59375 
z
" id="DejaVuSans-84"/>
       <path d="M 9.421875 54.6875 
L 18.40625 54.6875 
L 18.40625 0 
L 9.421875 0 
z
M 9.421875 75.984375 
L 18.40625 75.984375 
L 18.40625 64.59375 
L 9.421875 64.59375 
z
" id="DejaVuSans-105"/>
       <path d="M 56.203125 29.59375 
L 56.203125 25.203125 
L 14.890625 25.203125 
Q 15.484375 15.921875 20.484375 11.0625 
Q 25.484375 6.203125 34.421875 6.203125 
Q 39.59375 6.203125 44.453125 7.46875 
Q 49.3125 8.734375 54.109375 11.28125 
L 54.109375 2.78125 
Q 49.265625 0.734375 44.1875 -0.34375 
Q 39.109375 -1.421875 33.890625 -1.421875 
Q 20.796875 -1.421875 13.15625 6.1875 
Q 5.515625 13.8125 5.515625 26.8125 
Q 5.515625 40.234375 12.765625 48.109375 
Q 20.015625 56 32.328125 56 
Q 43.359375 56 49.78125 48.890625 
Q 56.203125 41.796875 56.203125 29.59375 
z
M 47.21875 32.234375 
Q 47.125 39.59375 43.09375 43.984375 
Q 39.0625 48.390625 32.421875 48.390625 
Q 24.90625 48.390625 20.390625 44.140625 
Q 15.875 39.890625 15.1875 32.171875 
z
" id="DejaVuSans-101"/>
       <path id="DejaVuSans-32"/>
       <path d="M 31 75.875 
Q 24.46875 64.65625 21.28125 53.65625 
Q 18.109375 42.671875 18.109375 31.390625 
Q 18.109375 20.125 21.3125 9.0625 
Q 24.515625 -2 31 -13.1875 
L 23.1875 -13.1875 
Q 15.875 -1.703125 12.234375 9.375 
Q 8.59375 20.453125 8.59375 31.390625 
Q 8.59375 42.28125 12.203125 53.3125 
Q 15.828125 64.359375 23.1875 75.875 
z
" id="DejaVuSans-40"/>
       <path d="M 30.609375 48.390625 
Q 23.390625 48.390625 19.1875 42.75 
Q 14.984375 37.109375 14.984375 27.296875 
Q 14.984375 17.484375 19.15625 11.84375 
Q 23.34375 6.203125 30.609375 6.203125 
Q 37.796875 6.203125 41.984375 11.859375 
Q 46.1875 17.53125 46.1875 27.296875 
Q 46.1875 37.015625 41.984375 42.703125 
Q 37.796875 48.390625 30.609375 48.390625 
z
M 30.609375 56 
Q 42.328125 56 49.015625 48.375 
Q 55.71875 40.765625 55.71875 27.296875 
Q 55.71875 13.875 49.015625 6.21875 
Q 42.328125 -1.421875 30.609375 -1.421875 
Q 18.84375 -1.421875 12.171875 6.21875 
Q 5.515625 13.875 5.515625 27.296875 
Q 5.515625 40.765625 12.171875 48.375 
Q 18.84375 56 30.609375 56 
z
" id="DejaVuSans-111"/>
       <path d="M 8.5 21.578125 
L 8.5 54.6875 
L 17.484375 54.6875 
L 17.484375 21.921875 
Q 17.484375 14.15625 20.5 10.265625 
Q 23.53125 6.390625 29.59375 6.390625 
Q 36.859375 6.390625 41.078125 11.03125 
Q 45.3125 15.671875 45.3125 23.6875 
L 45.3125 54.6875 
L 54.296875 54.6875 
L 54.296875 0 
L 45.3125 0 
L 45.3125 8.40625 
Q 42.046875 3.421875 37.71875 1 
Q 33.40625 -1.421875 27.6875 -1.421875 
Q 18.265625 -1.421875 13.375 4.4375 
Q 8.5 10.296875 8.5 21.578125 
z
M 31.109375 56 
z
" id="DejaVuSans-117"/>
       <path d="M 41.109375 46.296875 
Q 39.59375 47.171875 37.8125 47.578125 
Q 36.03125 48 33.890625 48 
Q 26.265625 48 22.1875 43.046875 
Q 18.109375 38.09375 18.109375 28.8125 
L 18.109375 0 
L 9.078125 0 
L 9.078125 54.6875 
L 18.109375 54.6875 
L 18.109375 46.1875 
Q 20.953125 51.171875 25.484375 53.578125 
Q 30.03125 56 36.53125 56 
Q 37.453125 56 38.578125 55.875 
Q 39.703125 55.765625 41.0625 55.515625 
z
" id="DejaVuSans-114"/>
       <path d="M 54.890625 33.015625 
L 54.890625 0 
L 45.90625 0 
L 45.90625 32.71875 
Q 45.90625 40.484375 42.875 44.328125 
Q 39.84375 48.1875 33.796875 48.1875 
Q 26.515625 48.1875 22.3125 43.546875 
Q 18.109375 38.921875 18.109375 30.90625 
L 18.109375 0 
L 9.078125 0 
L 9.078125 54.6875 
L 18.109375 54.6875 
L 18.109375 46.1875 
Q 21.34375 51.125 25.703125 53.5625 
Q 30.078125 56 35.796875 56 
Q 45.21875 56 50.046875 50.171875 
Q 54.890625 44.34375 54.890625 33.015625 
z
" id="DejaVuSans-110"/>
       <path d="M 18.3125 70.21875 
L 18.3125 54.6875 
L 36.8125 54.6875 
L 36.8125 47.703125 
L 18.3125 47.703125 
L 18.3125 18.015625 
Q 18.3125 11.328125 20.140625 9.421875 
Q 21.96875 7.515625 27.59375 7.515625 
L 36.8125 7.515625 
L 36.8125 0 
L 27.59375 0 
Q 17.1875 0 13.234375 3.875 
Q 9.28125 7.765625 9.28125 18.015625 
L 9.28125 47.703125 
L 2.6875 47.703125 
L 2.6875 54.6875 
L 9.28125 54.6875 
L 9.28125 70.21875 
z
" id="DejaVuSans-116"/>
       <path d="M 8.015625 75.875 
L 15.828125 75.875 
Q 23.140625 64.359375 26.78125 53.3125 
Q 30.421875 42.28125 30.421875 31.390625 
Q 30.421875 20.453125 26.78125 9.375 
Q 23.140625 -1.703125 15.828125 -13.1875 
L 8.015625 -13.1875 
Q 14.5 -2 17.703125 9.0625 
Q 20.90625 20.125 20.90625 31.390625 
Q 20.90625 42.671875 17.703125 53.65625 
Q 14.5 64.65625 8.015625 75.875 
z
" id="DejaVuSans-41"/>
      </defs>
      <use xlink:href="#DejaVuSans-84"/>
      <use x="57.958984" xlink:href="#DejaVuSans-105"/>
      <use x="85.742188" xlink:href="#DejaVuSans-109"/>
      <use x="183.154297" xlink:href="#DejaVuSans-101"/>
      <use x="244.677734" xlink:href="#DejaVuSans-32"/>
      <use x="276.464844" xlink:href="#DejaVuSans-40"/>
      <use x="315.478516" xlink:href="#DejaVuSans-104"/>
      <use x="378.857422" xlink:href="#DejaVuSans-111"/>
      <use x="440.039062" xlink:href="#DejaVuSans-117"/>
      <use x="503.417969" xlink:href="#DejaVuSans-114"/>
      <use x="542.78125" xlink:href="#DejaVuSans-58"/>
      <use x="576.472656" xlink:href="#DejaVuSans-109"/>
      <use x="673.884766" xlink:href="#DejaVuSans-105"/>
      <use x="701.667969" xlink:href="#DejaVuSans-110"/>
      <use x="765.046875" xlink:href="#DejaVuSans-117"/>
      <use x="828.425781" xlink:href="#DejaVuSans-116"/>
      <use x="867.634766" xlink:href="#DejaVuSans-101"/>
      <use x="929.158203" xlink:href="#DejaVuSans-41"/>
     </g>
    </g>
   </g>
   <g id="matplotlib.axis_2">
    <g id="ytick_1">
     <g id="line2d_13">
      <defs>
       <path d="M 0 0 
L -3.5 0 
" id="maadce2f920" style="stroke:#000000;stroke-width:0.8;"/>
      </defs>
      <g>
       <use style="stroke:#000000;stroke-width:0.8;" x="53.328125" xlink:href="#maadce2f920" y="270.237591"/>
      </g>
     </g>
     <g id="text_14">
      <!-- 5000 -->
      <g transform="translate(20.878125 274.03681)scale(0.1 -0.1)">
       <use xlink:href="#DejaVuSans-53"/>
       <use x="63.623047" xlink:href="#DejaVuSans-48"/>
       <use x="127.246094" xlink:href="#DejaVuSans-48"/>
       <use x="190.869141" xlink:href="#DejaVuSans-48"/>
      </g>
     </g>
    </g>
    <g id="ytick_2">
     <g id="line2d_14">
      <g>
       <use style="stroke:#000000;stroke-width:0.8;" x="53.328125" xlink:href="#maadce2f920" y="236.178743"/>
      </g>
     </g>
     <g id="text_15">
      <!-- 5200 -->
      <g transform="translate(20.878125 239.977962)scale(0.1 -0.1)">
       <use xlink:href="#DejaVuSans-53"/>
       <use x="63.623047" xlink:href="#DejaVuSans-50"/>
       <use x="127.246094" xlink:href="#DejaVuSans-48"/>
       <use x="190.869141" xlink:href="#DejaVuSans-48"/>
      </g>
     </g>
    </g>
    <g id="ytick_3">
     <g id="line2d_15">
      <g>
       <use style="stroke:#000000;stroke-width:0.8;" x="53.328125" xlink:href="#maadce2f920" y="202.119894"/>
      </g>
     </g>
     <g id="text_16">
      <!-- 5400 -->
      <g transform="translate(20.878125 205.919113)scale(0.1 -0.1)">
       <use xlink:href="#DejaVuSans-53"/>
       <use x="63.623047" xlink:href="#DejaVuSans-52"/>
       <use x="127.246094" xlink:href="#DejaVuSans-48"/>
       <use x="190.869141" xlink:href="#DejaVuSans-48"/>
      </g>
     </g>
    </g>
    <g id="ytick_4">
     <g id="line2d_16">
      <g>
       <use style="stroke:#000000;stroke-width:0.8;" x="53.328125" xlink:href="#maadce2f920" y="168.061046"/>
      </g>
     </g>
     <g id="text_17">
      <!-- 5600 -->
      <g transform="translate(20.878125 171.860265)scale(0.1 -0.1)">
       <use xlink:href="#DejaVuSans-53"/>
       <use x="63.623047" xlink:href="#DejaVuSans-54"/>
       <use x="127.246094" xlink:href="#DejaVuSans-48"/>
       <use x="190.869141" xlink:href="#DejaVuSans-48"/>
      </g>
     </g>
    </g>
    <g id="ytick_5">
     <g id="line2d_17">
      <g>
       <use style="stroke:#000000;stroke-width:0.8;" x="53.328125" xlink:href="#maadce2f920" y="134.002198"/>
      </g>
     </g>
     <g id="text_18">
      <!-- 5800 -->
      <g transform="translate(20.878125 137.801416)scale(0.1 -0.1)">
       <use xlink:href="#DejaVuSans-53"/>
       <use x="63.623047" xlink:href="#DejaVuSans-56"/>
       <use x="127.246094" xlink:href="#DejaVuSans-48"/>
       <use x="190.869141" xlink:href="#DejaVuSans-48"/>
      </g>
     </g>
    </g>
    <g id="ytick_6">
     <g id="line2d_18">
      <g>
       <use style="stroke:#000000;stroke-width:0.8;" x="53.328125" xlink:href="#maadce2f920" y="99.943349"/>
      </g>
     </g>
     <g id="text_19">
      <!-- 6000 -->
      <g transform="translate(20.878125 103.742568)scale(0.1 -0.1)">
       <use xlink:href="#DejaVuSans-54"/>
       <use x="63.623047" xlink:href="#DejaVuSans-48"/>
       <use x="127.246094" xlink:href="#DejaVuSans-48"/>
       <use x="190.869141" xlink:href="#DejaVuSans-48"/>
      </g>
     </g>
    </g>
    <g id="ytick_7">
     <g id="line2d_19">
      <g>
       <use style="stroke:#000000;stroke-width:0.8;" x="53.328125" xlink:href="#maadce2f920" y="65.884501"/>
      </g>
     </g>
     <g id="text_20">
      <!-- 6200 -->
      <g transform="translate(20.878125 69.68372)scale(0.1 -0.1)">
       <use xlink:href="#DejaVuSans-54"/>
       <use x="63.623047" xlink:href="#DejaVuSans-50"/>
       <use x="127.246094" xlink:href="#DejaVuSans-48"/>
       <use x="190.869141" xlink:href="#DejaVuSans-48"/>
      </g>
     </g>
    </g>
    <g id="ytick_8">
     <g id="line2d_20">
      <g>
       <use style="stroke:#000000;stroke-width:0.8;" x="53.328125" xlink:href="#maadce2f920" y="31.825653"/>
      </g>
     </g>
     <g id="text_21">
      <!-- 6400 -->
      <g transform="translate(20.878125 35.624871)scale(0.1 -0.1)">
       <use xlink:href="#DejaVuSans-54"/>
       <use x="63.623047" xlink:href="#DejaVuSans-52"/>
       <use x="127.246094" xlink:href="#DejaVuSans-48"/>
       <use x="190.869141" xlink:href="#DejaVuSans-48"/>
      </g>
     </g>
    </g>
    <g id="text_22">
     <!-- Edge coverage -->
     <g transform="translate(14.798438 192.762406)rotate(-90)scale(0.1 -0.1)">
      <defs>
       <path d="M 9.8125 72.90625 
L 55.90625 72.90625 
L 55.90625 64.59375 
L 19.671875 64.59375 
L 19.671875 43.015625 
L 54.390625 43.015625 
L 54.390625 34.71875 
L 19.671875 34.71875 
L 19.671875 8.296875 
L 56.78125 8.296875 
L 56.78125 0 
L 9.8125 0 
z
" id="DejaVuSans-69"/>
       <path d="M 45.40625 46.390625 
L 45.40625 75.984375 
L 54.390625 75.984375 
L 54.390625 0 
L 45.40625 0 
L 45.40625 8.203125 
Q 42.578125 3.328125 38.25 0.953125 
Q 33.9375 -1.421875 27.875 -1.421875 
Q 17.96875 -1.421875 11.734375 6.484375 
Q 5.515625 14.40625 5.515625 27.296875 
Q 5.515625 40.1875 11.734375 48.09375 
Q 17.96875 56 27.875 56 
Q 33.9375 56 38.25 53.625 
Q 42.578125 51.265625 45.40625 46.390625 
z
M 14.796875 27.296875 
Q 14.796875 17.390625 18.875 11.75 
Q 22.953125 6.109375 30.078125 6.109375 
Q 37.203125 6.109375 41.296875 11.75 
Q 45.40625 17.390625 45.40625 27.296875 
Q 45.40625 37.203125 41.296875 42.84375 
Q 37.203125 48.484375 30.078125 48.484375 
Q 22.953125 48.484375 18.875 42.84375 
Q 14.796875 37.203125 14.796875 27.296875 
z
" id="DejaVuSans-100"/>
       <path d="M 45.40625 27.984375 
Q 45.40625 37.75 41.375 43.109375 
Q 37.359375 48.484375 30.078125 48.484375 
Q 22.859375 48.484375 18.828125 43.109375 
Q 14.796875 37.75 14.796875 27.984375 
Q 14.796875 18.265625 18.828125 12.890625 
Q 22.859375 7.515625 30.078125 7.515625 
Q 37.359375 7.515625 41.375 12.890625 
Q 45.40625 18.265625 45.40625 27.984375 
z
M 54.390625 6.78125 
Q 54.390625 -7.171875 48.1875 -13.984375 
Q 42 -20.796875 29.203125 -20.796875 
Q 24.46875 -20.796875 20.265625 -20.09375 
Q 16.0625 -19.390625 12.109375 -17.921875 
L 12.109375 -9.1875 
Q 16.0625 -11.328125 19.921875 -12.34375 
Q 23.78125 -13.375 27.78125 -13.375 
Q 36.625 -13.375 41.015625 -8.765625 
Q 45.40625 -4.15625 45.40625 5.171875 
L 45.40625 9.625 
Q 42.625 4.78125 38.28125 2.390625 
Q 33.9375 0 27.875 0 
Q 17.828125 0 11.671875 7.65625 
Q 5.515625 15.328125 5.515625 27.984375 
Q 5.515625 40.671875 11.671875 48.328125 
Q 17.828125 56 27.875 56 
Q 33.9375 56 38.28125 53.609375 
Q 42.625 51.21875 45.40625 46.390625 
L 45.40625 54.6875 
L 54.390625 54.6875 
z
" id="DejaVuSans-103"/>
       <path d="M 48.78125 52.59375 
L 48.78125 44.1875 
Q 44.96875 46.296875 41.140625 47.34375 
Q 37.3125 48.390625 33.40625 48.390625 
Q 24.65625 48.390625 19.8125 42.84375 
Q 14.984375 37.3125 14.984375 27.296875 
Q 14.984375 17.28125 19.8125 11.734375 
Q 24.65625 6.203125 33.40625 6.203125 
Q 37.3125 6.203125 41.140625 7.25 
Q 44.96875 8.296875 48.78125 10.40625 
L 48.78125 2.09375 
Q 45.015625 0.34375 40.984375 -0.53125 
Q 36.96875 -1.421875 32.421875 -1.421875 
Q 20.0625 -1.421875 12.78125 6.34375 
Q 5.515625 14.109375 5.515625 27.296875 
Q 5.515625 40.671875 12.859375 48.328125 
Q 20.21875 56 33.015625 56 
Q 37.15625 56 41.109375 55.140625 
Q 45.0625 54.296875 48.78125 52.59375 
z
" id="DejaVuSans-99"/>
       <path d="M 2.984375 54.6875 
L 12.5 54.6875 
L 29.59375 8.796875 
L 46.6875 54.6875 
L 56.203125 54.6875 
L 35.6875 0 
L 23.484375 0 
z
" id="DejaVuSans-118"/>
       <path d="M 34.28125 27.484375 
Q 23.390625 27.484375 19.1875 25 
Q 14.984375 22.515625 14.984375 16.5 
Q 14.984375 11.71875 18.140625 8.90625 
Q 21.296875 6.109375 26.703125 6.109375 
Q 34.1875 6.109375 38.703125 11.40625 
Q 43.21875 16.703125 43.21875 25.484375 
L 43.21875 27.484375 
z
M 52.203125 31.203125 
L 52.203125 0 
L 43.21875 0 
L 43.21875 8.296875 
Q 40.140625 3.328125 35.546875 0.953125 
Q 30.953125 -1.421875 24.3125 -1.421875 
Q 15.921875 -1.421875 10.953125 3.296875 
Q 6 8.015625 6 15.921875 
Q 6 25.140625 12.171875 29.828125 
Q 18.359375 34.515625 30.609375 34.515625 
L 43.21875 34.515625 
L 43.21875 35.40625 
Q 43.21875 41.609375 39.140625 45 
Q 35.0625 48.390625 27.6875 48.390625 
Q 23 48.390625 18.546875 47.265625 
Q 14.109375 46.140625 10.015625 43.890625 
L 10.015625 52.203125 
Q 14.9375 54.109375 19.578125 55.046875 
Q 24.21875 56 28.609375 56 
Q 40.484375 56 46.34375 49.84375 
Q 52.203125 43.703125 52.203125 31.203125 
z
" id="DejaVuSans-97"/>
      </defs>
      <use xlink:href="#DejaVuSans-69"/>
      <use x="63.183594" xlink:href="#DejaVuSans-100"/>
      <use x="126.660156" xlink:href="#DejaVuSans-103"/>
      <use x="190.136719" xlink:href="#DejaVuSans-101"/>
      <use x="251.660156" xlink:href="#DejaVuSans-32"/>
      <use x="283.447266" xlink:href="#DejaVuSans-99"/>
      <use x="338.427734" xlink:href="#DejaVuSans-111"/>
      <use x="399.609375" xlink:href="#DejaVuSans-118"/>
      <use x="458.789062" xlink:href="#DejaVuSans-101"/>
      <use x="520.3125" xlink:href="#DejaVuSans-114"/>
      <use x="561.425781" xlink:href="#DejaVuSans-97"/>
      <use x="622.705078" xlink:href="#DejaVuSans-103"/>
      <use x="686.181641" xlink:href="#DejaVuSans-101"/>
     </g>
    </g>
   </g>
   <g id="line2d_21">
    <path clip-path="url(#pb19593c8ea)" d="M 85.79358 208.829488 
L 92.628412 199.088657 
L 99.463245 191.118886 
L 106.298077 188.700708 
L 113.13291 186.486883 
L 119.967742 185.941941 
L 126.802575 185.192647 
L 133.637407 176.882288 
L 140.47224 171.569107 
L 147.307072 162.236983 
L 154.141905 158.354274 
L 160.976737 156.446979 
L 167.81157 147.489502 
L 174.646403 143.470557 
L 181.481235 141.835733 
L 188.316068 139.655966 
L 195.1509 137.135612 
L 201.985733 129.847018 
L 208.820565 127.531016 
L 215.655398 125.453427 
L 222.49023 123.205543 
L 229.325063 119.527187 
L 236.159895 115.031419 
L 242.994728 113.192241 
L 249.82956 110.842181 
L 256.664393 109.37765 
L 263.499225 108.083414 
L 270.334058 105.392765 
L 277.168891 104.098529 
L 284.003723 102.668057 
L 290.838556 101.305703 
L 297.673388 99.670878 
L 304.508221 99.33029 
L 311.343053 98.342583 
L 318.177886 97.763583 
L 325.012718 96.980229 
L 331.847551 94.834522 
L 338.682383 90.917754 
L 345.517216 89.146694 
L 352.352048 87.137222 
L 359.186881 86.558222 
L 366.021714 86.081398 
L 372.856546 85.774868 
L 379.691379 84.582809 
L 386.526211 84.276279 
L 393.361044 82.573337 
L 400.195876 82.300866 
L 407.030709 80.836335 
L 413.865541 80.223276 
L 420.700374 79.81457 
L 427.535206 78.213804 
L 434.370039 77.600745 
L 441.204871 77.294215 
L 448.039704 77.192039 
L 454.874536 76.885509 
L 461.709369 76.27245 
L 468.544202 75.795626 
L 475.379034 73.88833 
L 482.213867 73.275271 
L 489.048699 73.036859 
L 495.883532 72.968741 
L 502.718364 72.560035 
L 509.553197 72.219447 
L 516.388029 71.878858 
L 523.222862 71.299858 
L 530.057694 70.584622 
L 536.892527 70.414328 
L 543.727359 69.971563 
L 550.562192 69.903445 
L 557.397025 69.528798 
L 564.231857 65.986677 
L 571.06669 63.296028 
L 577.901522 60.401026 
L 584.736355 60.128556 
L 591.571187 59.617673 
L 598.40602 58.493731 
L 605.240852 58.323437 
L 612.075685 57.880672 
L 618.910517 57.369789 
L 625.74535 57.0292 
L 632.580182 56.858906 
L 639.415015 56.688612 
L 646.249847 56.688612 
L 653.08468 56.518318 
L 659.919513 56.041494 
L 666.754345 55.56467 
L 673.589178 55.326258 
L 680.42401 55.087846 
L 687.258843 54.37261 
L 694.093675 53.997963 
L 700.928508 53.691433 
L 707.76334 53.316786 
L 714.598173 52.260962 
L 721.433005 51.511667 
L 728.267838 50.932666 
L 735.10267 49.093489 
" style="fill:none;stroke:#ffbb78;stroke-linecap:square;stroke-width:1.5;"/>
   </g>
   <g id="line2d_22">
    <path clip-path="url(#pb19593c8ea)" d="M 85.79358 222.35085 
L 92.628412 195.614654 
L 99.463245 194.013888 
L 106.298077 189.381885 
L 113.13291 178.721466 
L 119.967742 166.46028 
L 126.802575 158.899216 
L 133.637407 156.583214 
L 140.47224 154.982448 
L 147.307072 145.990912 
L 154.141905 138.327671 
L 160.976737 134.649316 
L 167.81157 128.723076 
L 174.646403 126.611428 
L 181.481235 123.478013 
L 188.316068 121.127953 
L 195.1509 119.73154 
L 201.985733 117.858304 
L 208.820565 114.316183 
L 215.655398 113.021947 
L 222.49023 112.204535 
L 229.325063 111.114652 
L 236.159895 109.037062 
L 242.994728 108.185591 
L 249.82956 107.572531 
L 256.664393 107.368178 
L 263.499225 106.891354 
L 270.334058 105.699295 
L 277.168891 104.984059 
L 284.003723 104.405058 
L 290.838556 104.030411 
L 297.673388 103.008646 
L 304.508221 94.834522 
L 311.343053 94.459875 
L 318.177886 93.880874 
L 325.012718 93.71058 
L 331.847551 93.13158 
L 338.682383 93.097521 
L 345.517216 93.097521 
L 352.352048 92.927227 
L 359.186881 92.654756 
L 366.021714 91.292402 
L 372.856546 88.533635 
L 379.691379 84.957456 
L 386.526211 84.344397 
L 393.361044 83.595102 
L 400.195876 83.118278 
L 407.030709 82.845807 
L 413.865541 80.802276 
L 420.700374 80.291394 
L 427.535206 78.92904 
L 434.370039 76.919568 
L 441.204871 76.170273 
L 448.039704 75.931861 
L 454.874536 75.250684 
L 461.709369 74.841978 
L 468.544202 74.603566 
L 475.379034 74.50139 
L 482.213867 74.092683 
L 489.048699 73.752095 
L 495.883532 73.649918 
L 502.718364 72.491917 
L 509.553197 71.572329 
L 516.388029 70.857093 
L 523.222862 70.278092 
L 530.057694 67.553384 
L 536.892527 67.212796 
L 543.727359 67.076561 
L 550.562192 66.531619 
L 557.397025 66.463501 
L 564.231857 66.020736 
L 571.06669 65.61203 
L 577.901522 64.692441 
L 584.736355 64.113441 
L 591.571187 64.011264 
L 598.40602 64.011264 
L 605.240852 63.84097 
L 612.075685 63.568499 
L 618.910517 63.125734 
L 625.74535 63.091675 
L 632.580182 62.64891 
L 639.415015 61.76338 
L 646.249847 60.060438 
L 653.08468 58.187201 
L 659.919513 56.75673 
L 666.754345 56.279906 
L 673.589178 55.803082 
L 680.42401 55.734964 
L 687.258843 55.25814 
L 694.093675 54.508846 
L 700.928508 54.474787 
L 707.76334 53.929845 
L 714.598173 53.759551 
L 721.433005 53.453021 
L 728.267838 53.350845 
L 735.10267 53.248668 
" style="fill:none;stroke:#1f77b4;stroke-linecap:square;stroke-width:1.5;"/>
   </g>
   <g id="line2d_23">
    <path clip-path="url(#pb19593c8ea)" d="M 85.79358 214.449198 
L 92.628412 198.509656 
L 99.463245 195.887125 
L 106.298077 184.068705 
L 113.13291 171.569107 
L 119.967742 166.596516 
L 126.802575 161.044923 
L 133.637407 154.199095 
L 140.47224 151.09974 
L 147.307072 148.409091 
L 154.141905 145.684383 
L 160.976737 143.777087 
L 167.81157 141.699497 
L 174.646403 136.488494 
L 181.481235 133.900021 
L 188.316068 132.74202 
L 195.1509 131.039078 
L 201.985733 129.847018 
L 208.820565 128.348429 
L 215.655398 127.871605 
L 222.49023 125.65778 
L 229.325063 124.057014 
L 236.159895 121.80913 
L 242.994728 119.15254 
L 249.82956 116.76842 
L 256.664393 114.690831 
L 263.499225 113.260359 
L 270.334058 112.885712 
L 277.168891 110.603769 
L 284.003723 110.297239 
L 290.838556 109.650121 
L 297.673388 109.139238 
L 304.508221 108.764591 
L 311.343053 108.253708 
L 318.177886 107.879061 
L 325.012718 107.708767 
L 331.847551 107.674708 
L 338.682383 107.368178 
L 345.517216 106.959472 
L 352.352048 105.324647 
L 359.186881 105.052177 
L 366.021714 103.75794 
L 372.856546 102.361528 
L 379.691379 100.896997 
L 386.526211 100.726703 
L 393.361044 100.283938 
L 400.195876 99.63682 
L 407.030709 97.593289 
L 413.865541 95.958464 
L 420.700374 94.255522 
L 427.535206 94.255522 
L 434.370039 93.506227 
L 441.204871 93.369992 
L 448.039704 92.484461 
L 454.874536 91.871402 
L 461.709369 90.577166 
L 468.544202 90.134401 
L 475.379034 89.146694 
L 482.213867 88.806106 
L 489.048699 87.239399 
L 495.883532 86.217633 
L 502.718364 83.458867 
L 509.553197 81.789983 
L 516.388029 81.721865 
L 523.222862 81.653748 
L 530.057694 80.768218 
L 536.892527 80.427629 
L 543.727359 80.018923 
L 550.562192 79.576158 
L 557.397025 77.805098 
L 564.231857 76.238391 
L 571.06669 75.38692 
L 577.901522 73.922389 
L 584.736355 72.287564 
L 591.571187 71.061446 
L 598.40602 69.76721 
L 605.240852 69.222268 
L 612.075685 68.745444 
L 618.910517 68.26862 
L 625.74535 67.928032 
L 632.580182 67.212796 
L 639.415015 66.633796 
L 646.249847 66.191031 
L 653.08468 66.020736 
L 659.919513 65.816383 
L 666.754345 65.714207 
L 673.589178 65.680148 
L 680.42401 65.475795 
L 687.258843 64.930853 
L 694.093675 64.760559 
L 700.928508 63.943147 
L 707.76334 62.682969 
L 714.598173 60.503203 
L 721.433005 59.208967 
L 728.267838 59.004614 
L 735.10267 58.80026 
" style="fill:none;stroke:#ff7f0e;stroke-linecap:square;stroke-width:1.5;"/>
   </g>
   <g id="line2d_24">
    <path clip-path="url(#pb19593c8ea)" d="M 85.79358 272.144887 
L 92.628412 255.013286 
L 99.463245 246.566692 
L 106.298077 233.01127 
L 113.13291 229.503208 
L 119.967742 211.247666 
L 126.802575 210.83896 
L 133.637407 208.522958 
L 140.47224 207.160604 
L 147.307072 197.930656 
L 154.141905 188.36012 
L 160.976737 184.613646 
L 167.81157 171.943755 
L 174.646403 168.674105 
L 181.481235 166.732751 
L 188.316068 165.540691 
L 195.1509 162.271042 
L 201.985733 156.617273 
L 208.820565 149.464915 
L 215.655398 148.885914 
L 222.49023 148.068502 
L 229.325063 141.869792 
L 236.159895 140.030614 
L 242.994728 137.748671 
L 249.82956 133.661609 
L 256.664393 130.017312 
L 263.499225 126.986075 
L 270.334058 125.725897 
L 277.168891 123.648308 
L 284.003723 121.332306 
L 290.838556 120.140246 
L 297.673388 118.880069 
L 304.508221 117.415538 
L 311.343053 114.486478 
L 318.177886 112.749476 
L 325.012718 110.365357 
L 331.847551 109.479827 
L 338.682383 108.696473 
L 345.517216 107.708767 
L 352.352048 106.993531 
L 359.186881 104.302882 
L 366.021714 103.996352 
L 372.856546 103.826058 
L 379.691379 103.315175 
L 386.526211 103.247058 
L 393.361044 103.076763 
L 400.195876 102.87241 
L 407.030709 101.884704 
L 413.865541 100.828879 
L 420.700374 100.658585 
L 427.535206 99.500584 
L 434.370039 98.989702 
L 441.204871 98.410701 
L 448.039704 97.55923 
L 454.874536 97.2527 
L 461.709369 96.843994 
L 468.544202 96.809935 
L 475.379034 96.503406 
L 482.213867 96.128758 
L 489.048699 95.072934 
L 495.883532 93.267815 
L 502.718364 92.586638 
L 509.553197 92.041696 
L 516.388029 91.667049 
L 523.222862 91.428637 
L 530.057694 91.190225 
L 536.892527 91.122108 
L 543.727359 91.088049 
L 550.562192 91.088049 
L 557.397025 90.985872 
L 564.231857 90.985872 
L 571.06669 90.985872 
L 577.901522 90.951813 
L 584.736355 90.917754 
L 591.571187 90.917754 
L 598.40602 89.793812 
L 605.240852 89.180753 
L 612.075685 89.180753 
L 618.910517 89.180753 
L 625.74535 88.840165 
L 632.580182 88.363341 
L 639.415015 88.261164 
L 646.249847 88.261164 
L 653.08468 88.09087 
L 659.919513 86.490104 
L 666.754345 82.573337 
L 673.589178 81.2791 
L 680.42401 79.916746 
L 687.258843 78.009451 
L 694.093675 77.941333 
L 700.928508 76.919568 
L 707.76334 76.340567 
L 714.598173 76.170273 
L 721.433005 75.318802 
L 728.267838 75.250684 
L 735.10267 74.671684 
" style="fill:none;stroke:#aec7e8;stroke-linecap:square;stroke-width:1.5;"/>
   </g>
   <g id="line2d_25"/>
   <g id="line2d_26"/>
   <g id="line2d_27"/>
   <g id="line2d_28"/>
   <g id="line2d_29"/>
   <g id="line2d_30">
    <path clip-path="url(#pb19593c8ea)" d="M 735.10267 288.430125 
L 735.10267 22.318125 
" style="fill:none;stroke:#ff0000;stroke-linecap:square;stroke-width:1.5;"/>
   </g>
   <g id="patch_3">
    <path d="M 53.328125 270.237591 
L 53.328125 31.825653 
" style="fill:none;stroke:#000000;stroke-linecap:square;stroke-linejoin:miter;stroke-width:0.8;"/>
   </g>
   <g id="patch_4">
    <path d="M 85.79358 288.430125 
L 687.258843 288.430125 
" style="fill:none;stroke:#000000;stroke-linecap:square;stroke-linejoin:miter;stroke-width:0.8;"/>
   </g>
   <g id="text_23">
    <!-- bloaty_fuzz_target (24h, 5 trials/fuzzer) -->
    <g transform="translate(292.352188 16.318125)scale(0.12 -0.12)">
     <defs>
      <path d="M 48.6875 27.296875 
Q 48.6875 37.203125 44.609375 42.84375 
Q 40.53125 48.484375 33.40625 48.484375 
Q 26.265625 48.484375 22.1875 42.84375 
Q 18.109375 37.203125 18.109375 27.296875 
Q 18.109375 17.390625 22.1875 11.75 
Q 26.265625 6.109375 33.40625 6.109375 
Q 40.53125 6.109375 44.609375 11.75 
Q 48.6875 17.390625 48.6875 27.296875 
z
M 18.109375 46.390625 
Q 20.953125 51.265625 25.265625 53.625 
Q 29.59375 56 35.59375 56 
Q 45.5625 56 51.78125 48.09375 
Q 58.015625 40.1875 58.015625 27.296875 
Q 58.015625 14.40625 51.78125 6.484375 
Q 45.5625 -1.421875 35.59375 -1.421875 
Q 29.59375 -1.421875 25.265625 0.953125 
Q 20.953125 3.328125 18.109375 8.203125 
L 18.109375 0 
L 9.078125 0 
L 9.078125 75.984375 
L 18.109375 75.984375 
z
" id="DejaVuSans-98"/>
      <path d="M 9.421875 75.984375 
L 18.40625 75.984375 
L 18.40625 0 
L 9.421875 0 
z
" id="DejaVuSans-108"/>
      <path d="M 32.171875 -5.078125 
Q 28.375 -14.84375 24.75 -17.8125 
Q 21.140625 -20.796875 15.09375 -20.796875 
L 7.90625 -20.796875 
L 7.90625 -13.28125 
L 13.1875 -13.28125 
Q 16.890625 -13.28125 18.9375 -11.515625 
Q 21 -9.765625 23.484375 -3.21875 
L 25.09375 0.875 
L 2.984375 54.6875 
L 12.5 54.6875 
L 29.59375 11.921875 
L 46.6875 54.6875 
L 56.203125 54.6875 
z
" id="DejaVuSans-121"/>
      <path d="M 50.984375 -16.609375 
L 50.984375 -23.578125 
L -0.984375 -23.578125 
L -0.984375 -16.609375 
z
" id="DejaVuSans-95"/>
      <path d="M 37.109375 75.984375 
L 37.109375 68.5 
L 28.515625 68.5 
Q 23.6875 68.5 21.796875 66.546875 
Q 19.921875 64.59375 19.921875 59.515625 
L 19.921875 54.6875 
L 34.71875 54.6875 
L 34.71875 47.703125 
L 19.921875 47.703125 
L 19.921875 0 
L 10.890625 0 
L 10.890625 47.703125 
L 2.296875 47.703125 
L 2.296875 54.6875 
L 10.890625 54.6875 
L 10.890625 58.5 
Q 10.890625 67.625 15.140625 71.796875 
Q 19.390625 75.984375 28.609375 75.984375 
z
" id="DejaVuSans-102"/>
      <path d="M 5.515625 54.6875 
L 48.1875 54.6875 
L 48.1875 46.484375 
L 14.40625 7.171875 
L 48.1875 7.171875 
L 48.1875 0 
L 4.296875 0 
L 4.296875 8.203125 
L 38.09375 47.515625 
L 5.515625 47.515625 
z
" id="DejaVuSans-122"/>
      <path d="M 11.71875 12.40625 
L 22.015625 12.40625 
L 22.015625 4 
L 14.015625 -11.625 
L 7.71875 -11.625 
L 11.71875 4 
z
" id="DejaVuSans-44"/>
      <path d="M 44.28125 53.078125 
L 44.28125 44.578125 
Q 40.484375 46.53125 36.375 47.5 
Q 32.28125 48.484375 27.875 48.484375 
Q 21.1875 48.484375 17.84375 46.4375 
Q 14.5 44.390625 14.5 40.28125 
Q 14.5 37.15625 16.890625 35.375 
Q 19.28125 33.59375 26.515625 31.984375 
L 29.59375 31.296875 
Q 39.15625 29.25 43.1875 25.515625 
Q 47.21875 21.78125 47.21875 15.09375 
Q 47.21875 7.46875 41.1875 3.015625 
Q 35.15625 -1.421875 24.609375 -1.421875 
Q 20.21875 -1.421875 15.453125 -0.5625 
Q 10.6875 0.296875 5.421875 2 
L 5.421875 11.28125 
Q 10.40625 8.6875 15.234375 7.390625 
Q 20.0625 6.109375 24.8125 6.109375 
Q 31.15625 6.109375 34.5625 8.28125 
Q 37.984375 10.453125 37.984375 14.40625 
Q 37.984375 18.0625 35.515625 20.015625 
Q 33.0625 21.96875 24.703125 23.78125 
L 21.578125 24.515625 
Q 13.234375 26.265625 9.515625 29.90625 
Q 5.8125 33.546875 5.8125 39.890625 
Q 5.8125 47.609375 11.28125 51.796875 
Q 16.75 56 26.8125 56 
Q 31.78125 56 36.171875 55.265625 
Q 40.578125 54.546875 44.28125 53.078125 
z
" id="DejaVuSans-115"/>
      <path d="M 25.390625 72.90625 
L 33.6875 72.90625 
L 8.296875 -9.28125 
L 0 -9.28125 
z
" id="DejaVuSans-47"/>
     </defs>
     <use xlink:href="#DejaVuSans-98"/>
     <use x="63.476562" xlink:href="#DejaVuSans-108"/>
     <use x="91.259766" xlink:href="#DejaVuSans-111"/>
     <use x="152.441406" xlink:href="#DejaVuSans-97"/>
     <use x="213.720703" xlink:href="#DejaVuSans-116"/>
     <use x="252.929688" xlink:href="#DejaVuSans-121"/>
     <use x="312.109375" xlink:href="#DejaVuSans-95"/>
     <use x="362.109375" xlink:href="#DejaVuSans-102"/>
     <use x="397.314453" xlink:href="#DejaVuSans-117"/>
     <use x="460.693359" xlink:href="#DejaVuSans-122"/>
     <use x="513.183594" xlink:href="#DejaVuSans-122"/>
     <use x="565.673828" xlink:href="#DejaVuSans-95"/>
     <use x="615.673828" xlink:href="#DejaVuSans-116"/>
     <use x="654.882812" xlink:href="#DejaVuSans-97"/>
     <use x="716.162109" xlink:href="#DejaVuSans-114"/>
     <use x="755.525391" xlink:href="#DejaVuSans-103"/>
     <use x="819.001953" xlink:href="#DejaVuSans-101"/>
     <use x="880.525391" xlink:href="#DejaVuSans-116"/>
     <use x="919.734375" xlink:href="#DejaVuSans-32"/>
     <use x="951.521484" xlink:href="#DejaVuSans-40"/>
     <use x="990.535156" xlink:href="#DejaVuSans-50"/>
     <use x="1054.158203" xlink:href="#DejaVuSans-52"/>
     <use x="1117.78125" xlink:href="#DejaVuSans-104"/>
     <use x="1181.160156" xlink:href="#DejaVuSans-44"/>
     <use x="1212.947266" xlink:href="#DejaVuSans-32"/>
     <use x="1244.734375" xlink:href="#DejaVuSans-53"/>
     <use x="1308.357422" xlink:href="#DejaVuSans-32"/>
     <use x="1340.144531" xlink:href="#DejaVuSans-116"/>
     <use x="1379.353516" xlink:href="#DejaVuSans-114"/>
     <use x="1420.466797" xlink:href="#DejaVuSans-105"/>
     <use x="1448.25" xlink:href="#DejaVuSans-97"/>
     <use x="1509.529297" xlink:href="#DejaVuSans-108"/>
     <use x="1537.3125" xlink:href="#DejaVuSans-115"/>
     <use x="1589.412109" xlink:href="#DejaVuSans-47"/>
     <use x="1623.103516" xlink:href="#DejaVuSans-102"/>
     <use x="1658.308594" xlink:href="#DejaVuSans-117"/>
     <use x="1721.6875" xlink:href="#DejaVuSans-122"/>
     <use x="1774.177734" xlink:href="#DejaVuSans-122"/>
     <use x="1826.667969" xlink:href="#DejaVuSans-101"/>
     <use x="1888.191406" xlink:href="#DejaVuSans-114"/>
     <use x="1929.304688" xlink:href="#DejaVuSans-41"/>
    </g>
   </g>
   <g id="legend_1">
    <g id="line2d_31">
     <path d="M 771.568125 30.416563 
L 791.568125 30.416563 
" style="fill:none;"/>
    </g>
    <g id="line2d_32"/>
    <g id="text_24">
     <!-- fuzzer -->
     <g transform="translate(799.568125 33.916563)scale(0.1 -0.1)">
      <use xlink:href="#DejaVuSans-102"/>
      <use x="35.205078" xlink:href="#DejaVuSans-117"/>
      <use x="98.583984" xlink:href="#DejaVuSans-122"/>
      <use x="151.074219" xlink:href="#DejaVuSans-122"/>
      <use x="203.564453" xlink:href="#DejaVuSans-101"/>
      <use x="265.087891" xlink:href="#DejaVuSans-114"/>
     </g>
    </g>
    <g id="line2d_33">
     <path d="M 771.568125 45.094688 
L 791.568125 45.094688 
" style="fill:none;stroke:#ffbb78;stroke-linecap:square;stroke-width:1.5;"/>
    </g>
    <g id="line2d_34"/>
    <g id="text_25">
     <!-- start_3 -->
     <g transform="translate(799.568125 48.594688)scale(0.1 -0.1)">
      <defs>
       <path d="M 40.578125 39.3125 
Q 47.65625 37.796875 51.625 33 
Q 55.609375 28.21875 55.609375 21.1875 
Q 55.609375 10.40625 48.1875 4.484375 
Q 40.765625 -1.421875 27.09375 -1.421875 
Q 22.515625 -1.421875 17.65625 -0.515625 
Q 12.796875 0.390625 7.625 2.203125 
L 7.625 11.71875 
Q 11.71875 9.328125 16.59375 8.109375 
Q 21.484375 6.890625 26.8125 6.890625 
Q 36.078125 6.890625 40.9375 10.546875 
Q 45.796875 14.203125 45.796875 21.1875 
Q 45.796875 27.640625 41.28125 31.265625 
Q 36.765625 34.90625 28.71875 34.90625 
L 20.21875 34.90625 
L 20.21875 43.015625 
L 29.109375 43.015625 
Q 36.375 43.015625 40.234375 45.921875 
Q 44.09375 48.828125 44.09375 54.296875 
Q 44.09375 59.90625 40.109375 62.90625 
Q 36.140625 65.921875 28.71875 65.921875 
Q 24.65625 65.921875 20.015625 65.03125 
Q 15.375 64.15625 9.8125 62.3125 
L 9.8125 71.09375 
Q 15.4375 72.65625 20.34375 73.4375 
Q 25.25 74.21875 29.59375 74.21875 
Q 40.828125 74.21875 47.359375 69.109375 
Q 53.90625 64.015625 53.90625 55.328125 
Q 53.90625 49.265625 50.4375 45.09375 
Q 46.96875 40.921875 40.578125 39.3125 
z
" id="DejaVuSans-51"/>
      </defs>
      <use xlink:href="#DejaVuSans-115"/>
      <use x="52.099609" xlink:href="#DejaVuSans-116"/>
      <use x="91.308594" xlink:href="#DejaVuSans-97"/>
      <use x="152.587891" xlink:href="#DejaVuSans-114"/>
      <use x="193.701172" xlink:href="#DejaVuSans-116"/>
      <use x="232.910156" xlink:href="#DejaVuSans-95"/>
      <use x="282.910156" xlink:href="#DejaVuSans-51"/>
     </g>
    </g>
    <g id="line2d_35">
     <path d="M 771.568125 60.050938 
L 791.568125 60.050938 
" style="fill:none;stroke:#1f77b4;stroke-linecap:square;stroke-width:1.5;"/>
    </g>
    <g id="line2d_36"/>
    <g id="text_26">
     <!-- start_0 -->
     <g transform="translate(799.568125 63.550938)scale(0.1 -0.1)">
      <use xlink:href="#DejaVuSans-115"/>
      <use x="52.099609" xlink:href="#DejaVuSans-116"/>
      <use x="91.308594" xlink:href="#DejaVuSans-97"/>
      <use x="152.587891" xlink:href="#DejaVuSans-114"/>
      <use x="193.701172" xlink:href="#DejaVuSans-116"/>
      <use x="232.910156" xlink:href="#DejaVuSans-95"/>
      <use x="282.910156" xlink:href="#DejaVuSans-48"/>
     </g>
    </g>
    <g id="line2d_37">
     <path d="M 771.568125 75.007188 
L 791.568125 75.007188 
" style="fill:none;stroke:#ff7f0e;stroke-linecap:square;stroke-width:1.5;"/>
    </g>
    <g id="line2d_38"/>
    <g id="text_27">
     <!-- start_2 -->
     <g transform="translate(799.568125 78.507188)scale(0.1 -0.1)">
      <use xlink:href="#DejaVuSans-115"/>
      <use x="52.099609" xlink:href="#DejaVuSans-116"/>
      <use x="91.308594" xlink:href="#DejaVuSans-97"/>
      <use x="152.587891" xlink:href="#DejaVuSans-114"/>
      <use x="193.701172" xlink:href="#DejaVuSans-116"/>
      <use x="232.910156" xlink:href="#DejaVuSans-95"/>
      <use x="282.910156" xlink:href="#DejaVuSans-50"/>
     </g>
    </g>
    <g id="line2d_39">
     <path d="M 771.568125 89.963438 
L 791.568125 89.963438 
" style="fill:none;stroke:#aec7e8;stroke-linecap:square;stroke-width:1.5;"/>
    </g>
    <g id="line2d_40"/>
    <g id="text_28">
     <!-- start_1 -->
     <g transform="translate(799.568125 93.463438)scale(0.1 -0.1)">
      <use xlink:href="#DejaVuSans-115"/>
      <use x="52.099609" xlink:href="#DejaVuSans-116"/>
      <use x="91.308594" xlink:href="#DejaVuSans-97"/>
      <use x="152.587891" xlink:href="#DejaVuSans-114"/>
      <use x="193.701172" xlink:href="#DejaVuSans-116"/>
      <use x="232.910156" xlink:href="#DejaVuSans-95"/>
      <use x="282.910156" xlink:href="#DejaVuSans-49"/>
     </g>
    </g>
   </g>
  </g>
 </g>
 <defs>
  <clipPath id="pb19593c8ea">
   <rect height="266.112" width="714.24" x="53.328125" y="22.318125"/>
  </clipPath>
 </defs>
</svg>
