<?xml version="1.0" encoding="utf-8" standalone="no"?>
<!DOCTYPE svg PUBLIC "-//W3C//DTD SVG 1.1//EN"
  "http://www.w3.org/Graphics/SVG/1.1/DTD/svg11.dtd">
<!-- Created with matplotlib (https://matplotlib.org/) -->
<svg height="325.986375pt" version="1.1" viewBox="0 0 845.419687 325.986375" width="845.419687pt" xmlns="http://www.w3.org/2000/svg" xmlns:xlink="http://www.w3.org/1999/xlink">
 <metadata>
  <rdf:RDF xmlns:cc="http://creativecommons.org/ns#" xmlns:dc="http://purl.org/dc/elements/1.1/" xmlns:rdf="http://www.w3.org/1999/02/22-rdf-syntax-ns#">
   <cc:Work>
    <dc:type rdf:resource="http://purl.org/dc/dcmitype/StillImage"/>
    <dc:date>2020-08-23T21:00:13.111807</dc:date>
    <dc:format>image/svg+xml</dc:format>
    <dc:creator>
     <cc:Agent>
      <dc:title>Matplotlib v3.3.1, https://matplotlib.org/</dc:title>
     </cc:Agent>
    </dc:creator>
   </cc:Work>
  </rdf:RDF>
 </metadata>
 <defs>
  <style type="text/css">*{stroke-linecap:butt;stroke-linejoin:round;}</style>
 </defs>
 <g id="figure_1">
  <g id="patch_1">
   <path d="M 0 325.986375 
L 845.419687 325.986375 
L 845.419687 0 
L 0 0 
z
" style="fill:#ffffff;"/>
  </g>
  <g id="axes_1">
   <g id="patch_2">
    <path d="M 53.328125 288.430125 
L 767.568125 288.430125 
L 767.568125 22.318125 
L 53.328125 22.318125 
z
" style="fill:#ffffff;"/>
   </g>
   <g id="PolyCollection_1">
    <defs>
     <path d="M 85.79358 -90.178654 
L 85.79358 -50.93338 
L 92.628412 -52.298851 
L 99.463245 -52.641553 
L 106.298077 -52.641553 
L 113.13291 -52.51344 
L 119.967742 -52.641553 
L 126.802575 -52.684257 
L 133.637407 -52.641553 
L 140.47224 -52.809167 
L 147.307072 -53.79457 
L 154.141905 -54.605952 
L 160.976737 -54.734065 
L 167.81157 -55.671425 
L 174.646403 -55.887081 
L 181.481235 -56.228716 
L 188.316068 -56.100603 
L 195.1509 -56.0974 
L 201.985733 -56.099535 
L 208.820565 -56.780669 
L 215.655398 -61.481348 
L 222.49023 -62.59166 
L 229.325063 -69.424352 
L 236.159895 -69.082718 
L 242.994728 -69.082718 
L 249.82956 -69.082718 
L 256.664393 -69.59517 
L 263.499225 -69.59517 
L 270.334058 -70.19303 
L 277.168891 -70.775944 
L 284.003723 -70.178084 
L 290.838556 -69.637874 
L 297.673388 -69.637874 
L 304.508221 -80.16022 
L 311.343053 -69.637874 
L 318.177886 -69.765987 
L 325.012718 -69.765987 
L 331.847551 -70.748186 
L 338.682383 -71.77309 
L 345.517216 -70.919004 
L 352.352048 -73.310446 
L 359.186881 -73.908306 
L 366.021714 -74.164532 
L 372.856546 -74.164532 
L 379.691379 -76.086227 
L 386.526211 -74.164532 
L 393.361044 -74.164532 
L 400.195876 -76.086227 
L 407.030709 -74.33535 
L 413.865541 -74.378054 
L 420.700374 -76.470566 
L 427.535206 -74.548871 
L 434.370039 -74.548871 
L 441.204871 -77.751696 
L 448.039704 -75.402958 
L 454.874536 -76.000818 
L 461.709369 -75.981601 
L 468.544202 -78.520374 
L 475.379034 -85.974413 
L 482.213867 -79.160938 
L 489.048699 -76.897609 
L 495.883532 -76.897609 
L 502.718364 -76.897609 
L 509.553197 -76.897609 
L 516.388029 -80.442068 
L 523.222862 -77.49547 
L 530.057694 -77.922513 
L 536.892527 -74.93321 
L 543.727359 -78.349556 
L 550.562192 -81.552381 
L 557.397025 -78.349556 
L 564.231857 -78.7766 
L 571.06669 -78.7766 
L 577.901522 -78.947417 
L 584.736355 -78.947417 
L 591.571187 -79.37446 
L 598.40602 -79.630686 
L 605.240852 -79.630686 
L 612.075685 -79.630686 
L 618.910517 -79.886912 
L 625.74535 -79.886912 
L 632.580182 -80.185842 
L 639.415015 -80.442068 
L 646.249847 -83.687597 
L 653.08468 -86.352347 
L 659.919513 -80.95452 
L 666.754345 -81.808607 
L 673.589178 -84.473356 
L 680.42401 -88.513186 
L 687.258843 -83.51678 
L 694.093675 -85.765162 
L 700.928508 -83.51678 
L 707.76334 -83.51678 
L 714.598173 -83.943823 
L 721.433005 -86.619249 
L 728.267838 -84.370866 
L 735.10267 -84.370866 
L 735.10267 -291.145207 
L 735.10267 -291.145207 
L 728.267838 -291.145207 
L 721.433005 -289.027072 
L 714.598173 -289.69326 
L 707.76334 -289.607851 
L 700.928508 -289.437034 
L 694.093675 -289.437034 
L 687.258843 -285.636349 
L 680.42401 -285.790084 
L 673.589178 -288.668356 
L 666.754345 -288.668356 
L 659.919513 -288.668356 
L 653.08468 -288.668356 
L 646.249847 -288.668356 
L 639.415015 -285.123897 
L 632.580182 -285.154858 
L 625.74535 -287.942382 
L 618.910517 -287.942382 
L 612.075685 -291.57225 
L 605.240852 -287.942382 
L 598.40602 -287.942382 
L 591.571187 -287.686156 
L 584.736355 -284.184402 
L 577.901522 -287.686156 
L 571.06669 -287.259113 
L 564.231857 -287.173705 
L 557.397025 -287.173705 
L 550.562192 -287.173705 
L 543.727359 -283.945258 
L 536.892527 -287.173705 
L 530.057694 -287.088296 
L 523.222862 -287.088296 
L 516.388029 -283.891877 
L 509.553197 -286.83207 
L 502.718364 -286.575844 
L 495.883532 -285.892575 
L 489.048699 -283.67195 
L 482.213867 -281.066986 
L 475.379034 -283.67195 
L 468.544202 -283.737074 
L 461.709369 -283.67195 
L 454.874536 -281.024282 
L 448.039704 -279.999378 
L 441.204871 -281.835664 
L 434.370039 -278.504727 
L 427.535206 -278.504727 
L 420.700374 -280.896169 
L 413.865541 -280.896169 
L 407.030709 -279.999378 
L 400.195876 -277.138188 
L 393.361044 -276.903314 
L 386.526211 -279.401517 
L 379.691379 -276.903314 
L 372.856546 -279.401517 
L 366.021714 -276.540328 
L 359.186881 -278.291205 
L 352.352048 -278.291205 
L 345.517216 -277.437118 
L 338.682383 -274.704042 
L 331.847551 -279.017179 
L 325.012718 -272.440712 
L 318.177886 -273.20939 
L 311.343053 -270.519018 
L 304.508221 -271.714739 
L 297.673388 -271.714739 
L 290.838556 -271.543922 
L 284.003723 -269.739664 
L 277.168891 -269.622227 
L 270.334058 -269.622227 
L 263.499225 -267.106942 
L 256.664393 -267.828645 
L 249.82956 -267.572419 
L 242.994728 -265.864246 
L 236.159895 -265.818339 
L 229.325063 -265.522612 
L 222.49023 -218.248924 
L 215.655398 -213.380631 
L 208.820565 -96.883233 
L 201.985733 -96.84907 
L 195.1509 -92.484688 
L 188.316068 -93.466887 
L 181.481235 -93.082548 
L 174.646403 -92.655505 
L 167.81157 -92.612801 
L 160.976737 -91.630601 
L 154.141905 -91.758714 
L 147.307072 -91.41708 
L 140.47224 -91.118149 
L 133.637407 -91.033808 
L 126.802575 -91.075445 
L 119.967742 -90.947332 
L 113.13291 -90.950535 
L 106.298077 -90.947332 
L 99.463245 -90.947332 
L 92.628412 -90.73381 
L 85.79358 -90.178654 
z
" id="mb928b76006" style="stroke:#aec7e8;stroke-opacity:0.2;"/>
    </defs>
    <g clip-path="url(#pbad30c7a7d)">
     <use style="fill:#aec7e8;fill-opacity:0.2;stroke:#aec7e8;stroke-opacity:0.2;" x="0" xlink:href="#mb928b76006" y="325.986375"/>
    </g>
   </g>
   <g id="PolyCollection_2">
    <defs>
     <path d="M 85.79358 -221.195523 
L 85.79358 -49.65225 
L 92.628412 -54.128731 
L 99.463245 -55.755766 
L 106.298077 -56.399533 
L 113.13291 -56.27142 
L 119.967742 -57.25362 
L 126.802575 -57.637959 
L 133.637407 -57.936889 
L 140.47224 -57.936889 
L 147.307072 -57.381733 
L 154.141905 -58.137599 
L 160.976737 -58.577454 
L 167.81157 -59.300225 
L 174.646403 -59.047201 
L 181.481235 -59.558586 
L 188.316068 -59.516949 
L 195.1509 -60.456444 
L 201.985733 -59.773175 
L 208.820565 -59.815879 
L 215.655398 -60.278154 
L 222.49023 -60.285627 
L 229.325063 -60.285627 
L 236.159895 -60.584557 
L 242.994728 -60.285627 
L 249.82956 -61.182418 
L 256.664393 -59.559653 
L 263.499225 -61.652165 
L 270.334058 -61.566757 
L 277.168891 -62.4849 
L 284.003723 -62.975999 
L 290.838556 -62.420843 
L 297.673388 -62.670663 
L 304.508221 -62.677069 
L 311.343053 -63.27493 
L 318.177886 -63.445747 
L 325.012718 -65.142176 
L 331.847551 -63.445747 
L 338.682383 -63.445747 
L 345.517216 -63.445747 
L 352.352048 -64.157842 
L 359.186881 -64.129016 
L 366.021714 -64.513355 
L 372.856546 -64.513355 
L 379.691379 -64.551789 
L 386.526211 -64.385242 
L 393.361044 -64.556059 
L 400.195876 -64.385242 
L 407.030709 -65.15392 
L 413.865541 -65.965302 
L 420.700374 -67.74714 
L 427.535206 -67.929701 
L 434.370039 -69.394459 
L 441.204871 -69.808691 
L 448.039704 -68.869196 
L 454.874536 -69.160653 
L 461.709369 -69.210831 
L 468.544202 -69.467057 
L 475.379034 -69.467057 
L 482.213867 -69.467057 
L 489.048699 -69.152112 
L 495.883532 -69.467057 
L 502.718364 -69.467057 
L 509.553197 -69.552465 
L 516.388029 -69.552465 
L 523.222862 -70.321143 
L 530.057694 -70.321143 
L 536.892527 -70.321143 
L 543.727359 -70.876299 
L 550.562192 -70.790891 
L 557.397025 -71.511526 
L 564.231857 -72.021843 
L 571.06669 -72.242838 
L 577.901522 -72.370951 
L 584.736355 -72.413655 
L 591.571187 -73.747098 
L 598.40602 -72.413655 
L 605.240852 -72.413655 
L 612.075685 -72.797994 
L 618.910517 -72.797994 
L 625.74535 -72.797994 
L 632.580182 -72.797994 
L 639.415015 -72.627177 
L 646.249847 -72.883403 
L 653.08468 -73.822898 
L 659.919513 -73.822898 
L 666.754345 -73.523968 
L 673.589178 -73.523968 
L 680.42401 -74.506167 
L 687.258843 -74.506167 
L 694.093675 -75.317549 
L 700.928508 -74.755987 
L 707.76334 -75.317549 
L 714.598173 -74.506167 
L 721.433005 -74.676984 
L 728.267838 -74.676984 
L 735.10267 -72.605825 
L 735.10267 -271.180935 
L 735.10267 -271.180935 
L 728.267838 -282.817863 
L 721.433005 -283.260921 
L 714.598173 -282.817863 
L 707.76334 -282.817863 
L 700.928508 -282.817863 
L 694.093675 -282.817863 
L 687.258843 -281.878368 
L 680.42401 -282.817863 
L 673.589178 -281.066986 
L 666.754345 -281.451325 
L 659.919513 -281.451325 
L 653.08468 -282.732455 
L 646.249847 -281.071257 
L 639.415015 -281.237803 
L 632.580182 -281.066986 
L 625.74535 -281.237803 
L 618.910517 -282.518933 
L 612.075685 -278.63284 
L 605.240852 -278.63284 
L 598.40602 -278.655259 
L 591.571187 -278.339247 
L 584.736355 -278.333909 
L 577.901522 -278.571986 
L 571.06669 -279.401517 
L 564.231857 -279.52963 
L 557.397025 -278.248501 
L 550.562192 -278.248501 
L 543.727359 -278.034979 
L 536.892527 -278.205796 
L 530.057694 -278.205796 
L 523.222862 -277.479823 
L 516.388029 -277.496905 
L 509.553197 -276.583032 
L 502.718364 -276.497623 
L 495.883532 -278.163092 
L 489.048699 -277.479823 
L 482.213867 -277.496905 
L 475.379034 -276.198693 
L 468.544202 -276.198693 
L 461.709369 -275.643537 
L 454.874536 -277.138188 
L 448.039704 -275.899763 
L 441.204871 -276.454919 
L 434.370039 -277.138188 
L 427.535206 -275.899763 
L 420.700374 -275.216494 
L 413.865541 -276.11969 
L 407.030709 -232.597577 
L 400.195876 -232.384056 
L 393.361044 -232.554873 
L 386.526211 -225.850294 
L 379.691379 -226.013638 
L 372.856546 -225.850294 
L 366.021714 -224.22753 
L 359.186881 -232.255943 
L 352.352048 -226.000827 
L 345.517216 -224.142121 
L 338.682383 -232.341352 
L 331.847551 -232.298647 
L 325.012718 -231.700787 
L 318.177886 -231.71253 
L 311.343053 -224.141054 
L 304.508221 -230.8467 
L 297.673388 -225.337842 
L 290.838556 -228.455258 
L 284.003723 -227.601171 
L 277.168891 -223.373443 
L 270.334058 -227.430354 
L 263.499225 -227.174128 
L 256.664393 -223.629669 
L 249.82956 -223.586965 
L 242.994728 -222.562061 
L 236.159895 -220.813319 
L 229.325063 -222.562061 
L 222.49023 -223.586965 
L 215.655398 -222.562061 
L 208.820565 -220.646772 
L 201.985733 -220.597662 
L 195.1509 -222.562061 
L 188.316068 -222.562061 
L 181.481235 -218.82223 
L 174.646403 -219.335749 
L 167.81157 -222.578075 
L 160.976737 -220.146064 
L 154.141905 -222.860991 
L 147.307072 -222.305835 
L 140.47224 -222.860991 
L 133.637407 -222.476652 
L 126.802575 -221.921496 
L 119.967742 -221.579862 
L 113.13291 -218.415471 
L 106.298077 -221.579862 
L 99.463245 -217.693768 
L 92.628412 -221.202996 
L 85.79358 -221.195523 
z
" id="mb381935b8e" style="stroke:#ffbb78;stroke-opacity:0.2;"/>
    </defs>
    <g clip-path="url(#pbad30c7a7d)">
     <use style="fill:#ffbb78;fill-opacity:0.2;stroke:#ffbb78;stroke-opacity:0.2;" x="0" xlink:href="#mb381935b8e" y="325.986375"/>
    </g>
   </g>
   <g id="PolyCollection_3">
    <defs>
     <path d="M 85.79358 -55.118404 
L 85.79358 -51.189606 
L 92.628412 -52.086397 
L 99.463245 -52.684257 
L 106.298077 -52.769666 
L 113.13291 -52.726961 
L 119.967742 -53.322687 
L 126.802575 -53.324822 
L 133.637407 -53.324822 
L 140.47224 -53.239413 
L 147.307072 -53.239413 
L 154.141905 -53.324822 
L 160.976737 -53.410231 
L 167.81157 -53.324822 
L 174.646403 -53.367526 
L 181.481235 -53.538344 
L 188.316068 -54.389227 
L 195.1509 -54.648656 
L 201.985733 -54.520543 
L 208.820565 -54.349726 
L 215.655398 -54.862178 
L 222.49023 -54.947586 
L 229.325063 -54.947586 
L 236.159895 -54.947586 
L 242.994728 -55.37463 
L 249.82956 -55.372494 
L 256.664393 -55.161108 
L 263.499225 -55.161108 
L 270.334058 -55.161108 
L 277.168891 -55.37463 
L 284.003723 -55.67356 
L 290.838556 -55.67356 
L 297.673388 -57.25362 
L 304.508221 -57.040098 
L 311.343053 -57.25362 
L 318.177886 -57.467141 
L 325.012718 -57.467141 
L 331.847551 -57.55255 
L 338.682383 -57.680663 
L 345.517216 -58.705567 
L 352.352048 -58.919088 
L 359.186881 -58.748271 
L 366.021714 -58.577454 
L 372.856546 -58.748271 
L 379.691379 -59.512679 
L 386.526211 -59.346132 
L 393.361044 -59.346132 
L 400.195876 -59.516949 
L 407.030709 -59.516949 
L 413.865541 -59.858584 
L 420.700374 -59.730471 
L 427.535206 -59.858584 
L 434.370039 -59.858584 
L 441.204871 -59.858584 
L 448.039704 -60.11481 
L 454.874536 -60.11481 
L 461.709369 -60.541853 
L 468.544202 -62.250026 
L 475.379034 -62.845751 
L 482.213867 -62.847886 
L 489.048699 -63.317634 
L 495.883532 -63.098774 
L 502.718364 -63.830086 
L 509.553197 -63.531156 
L 516.388029 -63.531156 
L 523.222862 -63.27493 
L 530.057694 -63.659269 
L 536.892527 -63.659269 
L 543.727359 -64.211222 
L 550.562192 -64.299833 
L 557.397025 -65.495555 
L 564.231857 -66.136119 
L 571.06669 -68.143223 
L 577.901522 -67.630771 
L 584.736355 -69.979509 
L 591.571187 -70.577369 
L 598.40602 -69.253535 
L 605.240852 -70.107622 
L 612.075685 -71.941772 
L 618.910517 -70.107622 
L 625.74535 -71.47416 
L 632.580182 -70.107622 
L 639.415015 -71.516864 
L 646.249847 -71.516864 
L 653.08468 -71.516864 
L 659.919513 -72.157429 
L 666.754345 -72.230027 
L 673.589178 -72.742478 
L 680.42401 -72.669881 
L 687.258843 -72.669881 
L 694.093675 -72.968811 
L 700.928508 -72.669881 
L 707.76334 -72.669881 
L 714.598173 -73.523968 
L 721.433005 -74.199764 
L 728.267838 -75.104028 
L 735.10267 -75.096554 
L 735.10267 -104.698125 
L 735.10267 -104.698125 
L 728.267838 -104.228377 
L 721.433005 -102.794579 
L 714.598173 -103.416995 
L 707.76334 -101.922344 
L 700.928508 -102.904543 
L 694.093675 -101.025553 
L 687.258843 -102.648317 
L 680.42401 -102.05793 
L 673.589178 -102.648317 
L 666.754345 -102.349387 
L 659.919513 -102.562908 
L 653.08468 -102.349387 
L 646.249847 -102.349387 
L 639.415015 -102.349387 
L 632.580182 -102.221274 
L 625.74535 -102.221274 
L 618.910517 -102.349387 
L 612.075685 -103.172513 
L 605.240852 -101.794231 
L 598.40602 -100.441571 
L 591.571187 -101.794231 
L 584.736355 -101.794231 
L 577.901522 -100.598509 
L 571.06669 -100.256875 
L 564.231857 -99.701719 
L 557.397025 -99.744423 
L 550.562192 -98.804928 
L 543.727359 -98.591406 
L 536.892527 -97.908137 
L 530.057694 -98.463293 
L 523.222862 -97.352981 
L 516.388029 -95.388582 
L 509.553197 -97.020955 
L 502.718364 -96.75512 
L 495.883532 -96.968642 
L 489.048699 -97.609207 
L 482.213867 -97.139459 
L 475.379034 -96.627007 
L 468.544202 -96.629142 
L 461.709369 -96.627007 
L 454.874536 -95.772921 
L 448.039704 -96.627007 
L 441.204871 -95.79107 
L 434.370039 -96.498894 
L 427.535206 -96.498894 
L 420.700374 -96.498894 
L 413.865541 -93.765818 
L 407.030709 -93.253366 
L 400.195876 -94.87613 
L 393.361044 -94.87613 
L 386.526211 -94.87613 
L 379.691379 -94.87613 
L 372.856546 -92.143053 
L 366.021714 -93.082548 
L 359.186881 -92.698209 
L 352.352048 -92.156932 
L 345.517216 -92.698209 
L 338.682383 -90.990036 
L 331.847551 -91.459784 
L 325.012718 -90.819219 
L 318.177886 -89.580794 
L 311.343053 -89.580794 
L 304.508221 -86.719604 
L 297.673388 -86.249856 
L 290.838556 -83.858414 
L 284.003723 -83.217849 
L 277.168891 -80.484773 
L 270.334058 -80.100434 
L 263.499225 -80.100434 
L 256.664393 -80.100434 
L 249.82956 -80.015025 
L 242.994728 -79.886912 
L 236.159895 -78.434965 
L 229.325063 -76.726792 
L 222.49023 -74.506167 
L 215.655398 -74.463463 
L 208.820565 -73.57628 
L 201.985733 -73.267742 
L 195.1509 -73.267742 
L 188.316068 -71.858499 
L 181.481235 -70.926477 
L 174.646403 -70.534665 
L 167.81157 -70.534665 
L 160.976737 -70.449256 
L 154.141905 -70.534665 
L 147.307072 -70.5368 
L 140.47224 -70.449256 
L 133.637407 -70.534665 
L 126.802575 -70.534665 
L 119.967742 -69.509761 
L 113.13291 -69.040013 
L 106.298077 -68.998377 
L 99.463245 -68.954605 
L 92.628412 -68.741083 
L 85.79358 -55.118404 
z
" id="m3c348979eb" style="stroke:#ff7f0e;stroke-opacity:0.2;"/>
    </defs>
    <g clip-path="url(#pbad30c7a7d)">
     <use style="fill:#ff7f0e;fill-opacity:0.2;stroke:#ff7f0e;stroke-opacity:0.2;" x="0" xlink:href="#m3c348979eb" y="325.986375"/>
    </g>
   </g>
   <g id="PolyCollection_4">
    <defs>
     <path d="M 85.79358 -55.887081 
L 85.79358 -50.633382 
L 92.628412 -50.762562 
L 99.463245 -51.872875 
L 106.298077 -52.129101 
L 113.13291 -53.025892 
L 119.967742 -53.196709 
L 126.802575 -53.323754 
L 133.637407 -53.282118 
L 140.47224 -53.538344 
L 147.307072 -53.538344 
L 154.141905 -54.050795 
L 160.976737 -54.050795 
L 167.81157 -54.050795 
L 174.646403 -54.689225 
L 181.481235 -55.075699 
L 188.316068 -55.929786 
L 195.1509 -56.698464 
L 201.985733 -56.527646 
L 208.820565 -56.698464 
L 215.655398 -56.86501 
L 222.49023 -56.698464 
L 229.325063 -56.698464 
L 236.159895 -56.527646 
L 242.994728 -56.911985 
L 249.82956 -57.296324 
L 256.664393 -57.549347 
L 263.499225 -57.424437 
L 270.334058 -58.150411 
L 277.168891 -58.48991 
L 284.003723 -58.577454 
L 290.838556 -58.573183 
L 297.673388 -57.936889 
L 304.508221 -58.577454 
L 311.343053 -58.577454 
L 318.177886 -58.406637 
L 325.012718 -57.936889 
L 331.847551 -58.577454 
L 338.682383 -57.975323 
L 345.517216 -57.979593 
L 352.352048 -58.748271 
L 359.186881 -58.193115 
L 366.021714 -61.438644 
L 372.856546 -61.865687 
L 379.691379 -61.865687 
L 386.526211 -61.865687 
L 393.361044 -61.865687 
L 400.195876 -61.865687 
L 407.030709 -62.719773 
L 413.865541 -63.744677 
L 420.700374 -63.830086 
L 427.535206 -63.830086 
L 434.370039 -63.830086 
L 441.204871 -62.420843 
L 448.039704 -63.104112 
L 454.874536 -64.299833 
L 461.709369 -64.299833 
L 468.544202 -64.299833 
L 475.379034 -63.488451 
L 482.213867 -64.299833 
L 489.048699 -64.299833 
L 495.883532 -64.427946 
L 502.718364 -64.427946 
L 509.553197 -64.641468 
L 516.388029 -64.410865 
L 523.222862 -65.15392 
L 530.057694 -64.202681 
L 536.892527 -64.769581 
L 543.727359 -64.897694 
L 550.562192 -65.922598 
L 557.397025 -65.15392 
L 564.231857 -66.520458 
L 571.06669 -65.367442 
L 577.901522 -66.691276 
L 584.736355 -65.666372 
L 591.571187 -65.794485 
L 598.40602 -65.794485 
L 605.240852 -65.922598 
L 612.075685 -65.914057 
L 618.910517 -66.136119 
L 625.74535 -66.205514 
L 632.580182 -66.862093 
L 639.415015 -67.101237 
L 646.249847 -67.886997 
L 653.08468 -67.886997 
L 659.919513 -67.118319 
L 666.754345 -68.527562 
L 673.589178 -68.31404 
L 680.42401 -67.545362 
L 687.258843 -68.308702 
L 694.093675 -67.801588 
L 700.928508 -68.484857 
L 707.76334 -67.801588 
L 714.598173 -68.484857 
L 721.433005 -67.801588 
L 728.267838 -68.484857 
L 735.10267 -68.484857 
L 735.10267 -97.267572 
L 735.10267 -97.267572 
L 728.267838 -97.224868 
L 721.433005 -95.909575 
L 714.598173 -96.242668 
L 707.76334 -96.883233 
L 700.928508 -95.901034 
L 694.093675 -96.75512 
L 687.258843 -96.669712 
L 680.42401 -96.628075 
L 673.589178 -95.920251 
L 666.754345 -96.328077 
L 659.919513 -93.278988 
L 653.08468 -93.253366 
L 646.249847 -93.89393 
L 639.415015 -93.019559 
L 632.580182 -92.869027 
L 625.74535 -91.128825 
L 618.910517 -92.783618 
L 612.075685 -91.545193 
L 605.240852 -92.237003 
L 598.40602 -92.441983 
L 591.571187 -90.435948 
L 584.736355 -92.31387 
L 577.901522 -92.228462 
L 571.06669 -91.630601 
L 564.231857 -91.545193 
L 557.397025 -91.545193 
L 550.562192 -90.007837 
L 543.727359 -91.630601 
L 536.892527 -90.990036 
L 530.057694 -88.55589 
L 523.222862 -88.592189 
L 516.388029 -90.178654 
L 509.553197 -90.178654 
L 502.718364 -88.043438 
L 495.883532 -88.598594 
L 489.048699 -88.633825 
L 482.213867 -87.849133 
L 475.379034 -90.007837 
L 468.544202 -87.402873 
L 461.709369 -85.822813 
L 454.874536 -87.27476 
L 448.039704 -85.528153 
L 441.204871 -85.523883 
L 434.370039 -85.353066 
L 427.535206 -86.847717 
L 420.700374 -86.420674 
L 413.865541 -86.335265 
L 407.030709 -84.029231 
L 400.195876 -83.81571 
L 393.361044 -83.730301 
L 386.526211 -83.559484 
L 379.691379 -83.474075 
L 372.856546 -83.345962 
L 366.021714 -83.303258 
L 359.186881 -79.289051 
L 352.352048 -75.872705 
L 345.517216 -75.876976 
L 338.682383 -74.168803 
L 331.847551 -74.93321 
L 325.012718 -75.232141 
L 318.177886 -74.93321 
L 311.343053 -76.000818 
L 304.508221 -74.93321 
L 297.673388 -75.232141 
L 290.838556 -74.93321 
L 284.003723 -74.93321 
L 277.168891 -75.018619 
L 270.334058 -74.93321 
L 263.499225 -74.719689 
L 256.664393 -74.079124 
L 249.82956 -73.825033 
L 242.994728 -73.652081 
L 236.159895 -72.200133 
L 229.325063 -72.200133 
L 222.49023 -72.422196 
L 215.655398 -72.75529 
L 208.820565 -72.413655 
L 201.985733 -72.205472 
L 195.1509 -72.157429 
L 188.316068 -72.157429 
L 181.481235 -70.406552 
L 174.646403 -59.047201 
L 167.81157 -58.790976 
L 160.976737 -58.363932 
L 154.141905 -58.278524 
L 147.307072 -57.979593 
L 140.47224 -57.42764 
L 133.637407 -57.55255 
L 126.802575 -57.125507 
L 119.967742 -57.125507 
L 113.13291 -57.125507 
L 106.298077 -56.278894 
L 99.463245 -56.613055 
L 92.628412 -56.613055 
L 85.79358 -55.887081 
z
" id="m5c5ca39ece" style="stroke:#1f77b4;stroke-opacity:0.2;"/>
    </defs>
    <g clip-path="url(#pbad30c7a7d)">
     <use style="fill:#1f77b4;fill-opacity:0.2;stroke:#1f77b4;stroke-opacity:0.2;" x="0" xlink:href="#m5c5ca39ece" y="325.986375"/>
    </g>
   </g>
   <g id="matplotlib.axis_1">
    <g id="xtick_1">
     <g id="line2d_1">
      <defs>
       <path d="M 0 0 
L 0 3.5 
" id="md177430ce3" style="stroke:#000000;stroke-width:0.8;"/>
      </defs>
      <g>
       <use style="stroke:#000000;stroke-width:0.8;" x="85.79358" xlink:href="#md177430ce3" y="288.430125"/>
      </g>
     </g>
     <g id="text_1">
      <!-- 15m -->
      <g transform="translate(74.560767 303.028562)scale(0.1 -0.1)">
       <defs>
        <path d="M 12.40625 8.296875 
L 28.515625 8.296875 
L 28.515625 63.921875 
L 10.984375 60.40625 
L 10.984375 69.390625 
L 28.421875 72.90625 
L 38.28125 72.90625 
L 38.28125 8.296875 
L 54.390625 8.296875 
L 54.390625 0 
L 12.40625 0 
z
" id="DejaVuSans-49"/>
        <path d="M 10.796875 72.90625 
L 49.515625 72.90625 
L 49.515625 64.59375 
L 19.828125 64.59375 
L 19.828125 46.734375 
Q 21.96875 47.46875 24.109375 47.828125 
Q 26.265625 48.1875 28.421875 48.1875 
Q 40.625 48.1875 47.75 41.5 
Q 54.890625 34.8125 54.890625 23.390625 
Q 54.890625 11.625 47.5625 5.09375 
Q 40.234375 -1.421875 26.90625 -1.421875 
Q 22.3125 -1.421875 17.546875 -0.640625 
Q 12.796875 0.140625 7.71875 1.703125 
L 7.71875 11.625 
Q 12.109375 9.234375 16.796875 8.0625 
Q 21.484375 6.890625 26.703125 6.890625 
Q 35.15625 6.890625 40.078125 11.328125 
Q 45.015625 15.765625 45.015625 23.390625 
Q 45.015625 31 40.078125 35.4375 
Q 35.15625 39.890625 26.703125 39.890625 
Q 22.75 39.890625 18.8125 39.015625 
Q 14.890625 38.140625 10.796875 36.28125 
z
" id="DejaVuSans-53"/>
        <path d="M 52 44.1875 
Q 55.375 50.25 60.0625 53.125 
Q 64.75 56 71.09375 56 
Q 79.640625 56 84.28125 50.015625 
Q 88.921875 44.046875 88.921875 33.015625 
L 88.921875 0 
L 79.890625 0 
L 79.890625 32.71875 
Q 79.890625 40.578125 77.09375 44.375 
Q 74.3125 48.1875 68.609375 48.1875 
Q 61.625 48.1875 57.5625 43.546875 
Q 53.515625 38.921875 53.515625 30.90625 
L 53.515625 0 
L 44.484375 0 
L 44.484375 32.71875 
Q 44.484375 40.625 41.703125 44.40625 
Q 38.921875 48.1875 33.109375 48.1875 
Q 26.21875 48.1875 22.15625 43.53125 
Q 18.109375 38.875 18.109375 30.90625 
L 18.109375 0 
L 9.078125 0 
L 9.078125 54.6875 
L 18.109375 54.6875 
L 18.109375 46.1875 
Q 21.1875 51.21875 25.484375 53.609375 
Q 29.78125 56 35.6875 56 
Q 41.65625 56 45.828125 52.96875 
Q 50 49.953125 52 44.1875 
z
" id="DejaVuSans-109"/>
       </defs>
       <use xlink:href="#DejaVuSans-49"/>
       <use x="63.623047" xlink:href="#DejaVuSans-53"/>
       <use x="127.246094" xlink:href="#DejaVuSans-109"/>
      </g>
     </g>
    </g>
    <g id="xtick_2">
     <g id="line2d_2">
      <g>
       <use style="stroke:#000000;stroke-width:0.8;" x="140.47224" xlink:href="#md177430ce3" y="288.430125"/>
      </g>
     </g>
     <g id="text_2">
      <!-- 2h:15m -->
      <g transform="translate(121.205052 303.028562)scale(0.1 -0.1)">
       <defs>
        <path d="M 19.1875 8.296875 
L 53.609375 8.296875 
L 53.609375 0 
L 7.328125 0 
L 7.328125 8.296875 
Q 12.9375 14.109375 22.625 23.890625 
Q 32.328125 33.6875 34.8125 36.53125 
Q 39.546875 41.84375 41.421875 45.53125 
Q 43.3125 49.21875 43.3125 52.78125 
Q 43.3125 58.59375 39.234375 62.25 
Q 35.15625 65.921875 28.609375 65.921875 
Q 23.96875 65.921875 18.8125 64.3125 
Q 13.671875 62.703125 7.8125 59.421875 
L 7.8125 69.390625 
Q 13.765625 71.78125 18.9375 73 
Q 24.125 74.21875 28.421875 74.21875 
Q 39.75 74.21875 46.484375 68.546875 
Q 53.21875 62.890625 53.21875 53.421875 
Q 53.21875 48.921875 51.53125 44.890625 
Q 49.859375 40.875 45.40625 35.40625 
Q 44.1875 33.984375 37.640625 27.21875 
Q 31.109375 20.453125 19.1875 8.296875 
z
" id="DejaVuSans-50"/>
        <path d="M 54.890625 33.015625 
L 54.890625 0 
L 45.90625 0 
L 45.90625 32.71875 
Q 45.90625 40.484375 42.875 44.328125 
Q 39.84375 48.1875 33.796875 48.1875 
Q 26.515625 48.1875 22.3125 43.546875 
Q 18.109375 38.921875 18.109375 30.90625 
L 18.109375 0 
L 9.078125 0 
L 9.078125 75.984375 
L 18.109375 75.984375 
L 18.109375 46.1875 
Q 21.34375 51.125 25.703125 53.5625 
Q 30.078125 56 35.796875 56 
Q 45.21875 56 50.046875 50.171875 
Q 54.890625 44.34375 54.890625 33.015625 
z
" id="DejaVuSans-104"/>
        <path d="M 11.71875 12.40625 
L 22.015625 12.40625 
L 22.015625 0 
L 11.71875 0 
z
M 11.71875 51.703125 
L 22.015625 51.703125 
L 22.015625 39.3125 
L 11.71875 39.3125 
z
" id="DejaVuSans-58"/>
       </defs>
       <use xlink:href="#DejaVuSans-50"/>
       <use x="63.623047" xlink:href="#DejaVuSans-104"/>
       <use x="127.001953" xlink:href="#DejaVuSans-58"/>
       <use x="160.693359" xlink:href="#DejaVuSans-49"/>
       <use x="224.316406" xlink:href="#DejaVuSans-53"/>
       <use x="287.939453" xlink:href="#DejaVuSans-109"/>
      </g>
     </g>
    </g>
    <g id="xtick_3">
     <g id="line2d_3">
      <g>
       <use style="stroke:#000000;stroke-width:0.8;" x="195.1509" xlink:href="#md177430ce3" y="288.430125"/>
      </g>
     </g>
     <g id="text_3">
      <!-- 4h:15m -->
      <g transform="translate(175.883713 303.028562)scale(0.1 -0.1)">
       <defs>
        <path d="M 37.796875 64.3125 
L 12.890625 25.390625 
L 37.796875 25.390625 
z
M 35.203125 72.90625 
L 47.609375 72.90625 
L 47.609375 25.390625 
L 58.015625 25.390625 
L 58.015625 17.1875 
L 47.609375 17.1875 
L 47.609375 0 
L 37.796875 0 
L 37.796875 17.1875 
L 4.890625 17.1875 
L 4.890625 26.703125 
z
" id="DejaVuSans-52"/>
       </defs>
       <use xlink:href="#DejaVuSans-52"/>
       <use x="63.623047" xlink:href="#DejaVuSans-104"/>
       <use x="127.001953" xlink:href="#DejaVuSans-58"/>
       <use x="160.693359" xlink:href="#DejaVuSans-49"/>
       <use x="224.316406" xlink:href="#DejaVuSans-53"/>
       <use x="287.939453" xlink:href="#DejaVuSans-109"/>
      </g>
     </g>
    </g>
    <g id="xtick_4">
     <g id="line2d_4">
      <g>
       <use style="stroke:#000000;stroke-width:0.8;" x="249.82956" xlink:href="#md177430ce3" y="288.430125"/>
      </g>
     </g>
     <g id="text_4">
      <!-- 6h:15m -->
      <g transform="translate(230.562373 303.028562)scale(0.1 -0.1)">
       <defs>
        <path d="M 33.015625 40.375 
Q 26.375 40.375 22.484375 35.828125 
Q 18.609375 31.296875 18.609375 23.390625 
Q 18.609375 15.53125 22.484375 10.953125 
Q 26.375 6.390625 33.015625 6.390625 
Q 39.65625 6.390625 43.53125 10.953125 
Q 47.40625 15.53125 47.40625 23.390625 
Q 47.40625 31.296875 43.53125 35.828125 
Q 39.65625 40.375 33.015625 40.375 
z
M 52.59375 71.296875 
L 52.59375 62.3125 
Q 48.875 64.0625 45.09375 64.984375 
Q 41.3125 65.921875 37.59375 65.921875 
Q 27.828125 65.921875 22.671875 59.328125 
Q 17.53125 52.734375 16.796875 39.40625 
Q 19.671875 43.65625 24.015625 45.921875 
Q 28.375 48.1875 33.59375 48.1875 
Q 44.578125 48.1875 50.953125 41.515625 
Q 57.328125 34.859375 57.328125 23.390625 
Q 57.328125 12.15625 50.6875 5.359375 
Q 44.046875 -1.421875 33.015625 -1.421875 
Q 20.359375 -1.421875 13.671875 8.265625 
Q 6.984375 17.96875 6.984375 36.375 
Q 6.984375 53.65625 15.1875 63.9375 
Q 23.390625 74.21875 37.203125 74.21875 
Q 40.921875 74.21875 44.703125 73.484375 
Q 48.484375 72.75 52.59375 71.296875 
z
" id="DejaVuSans-54"/>
       </defs>
       <use xlink:href="#DejaVuSans-54"/>
       <use x="63.623047" xlink:href="#DejaVuSans-104"/>
       <use x="127.001953" xlink:href="#DejaVuSans-58"/>
       <use x="160.693359" xlink:href="#DejaVuSans-49"/>
       <use x="224.316406" xlink:href="#DejaVuSans-53"/>
       <use x="287.939453" xlink:href="#DejaVuSans-109"/>
      </g>
     </g>
    </g>
    <g id="xtick_5">
     <g id="line2d_5">
      <g>
       <use style="stroke:#000000;stroke-width:0.8;" x="304.508221" xlink:href="#md177430ce3" y="288.430125"/>
      </g>
     </g>
     <g id="text_5">
      <!-- 8h:15m -->
      <g transform="translate(285.241033 303.028562)scale(0.1 -0.1)">
       <defs>
        <path d="M 31.78125 34.625 
Q 24.75 34.625 20.71875 30.859375 
Q 16.703125 27.09375 16.703125 20.515625 
Q 16.703125 13.921875 20.71875 10.15625 
Q 24.75 6.390625 31.78125 6.390625 
Q 38.8125 6.390625 42.859375 10.171875 
Q 46.921875 13.96875 46.921875 20.515625 
Q 46.921875 27.09375 42.890625 30.859375 
Q 38.875 34.625 31.78125 34.625 
z
M 21.921875 38.8125 
Q 15.578125 40.375 12.03125 44.71875 
Q 8.5 49.078125 8.5 55.328125 
Q 8.5 64.0625 14.71875 69.140625 
Q 20.953125 74.21875 31.78125 74.21875 
Q 42.671875 74.21875 48.875 69.140625 
Q 55.078125 64.0625 55.078125 55.328125 
Q 55.078125 49.078125 51.53125 44.71875 
Q 48 40.375 41.703125 38.8125 
Q 48.828125 37.15625 52.796875 32.3125 
Q 56.78125 27.484375 56.78125 20.515625 
Q 56.78125 9.90625 50.3125 4.234375 
Q 43.84375 -1.421875 31.78125 -1.421875 
Q 19.734375 -1.421875 13.25 4.234375 
Q 6.78125 9.90625 6.78125 20.515625 
Q 6.78125 27.484375 10.78125 32.3125 
Q 14.796875 37.15625 21.921875 38.8125 
z
M 18.3125 54.390625 
Q 18.3125 48.734375 21.84375 45.5625 
Q 25.390625 42.390625 31.78125 42.390625 
Q 38.140625 42.390625 41.71875 45.5625 
Q 45.3125 48.734375 45.3125 54.390625 
Q 45.3125 60.0625 41.71875 63.234375 
Q 38.140625 66.40625 31.78125 66.40625 
Q 25.390625 66.40625 21.84375 63.234375 
Q 18.3125 60.0625 18.3125 54.390625 
z
" id="DejaVuSans-56"/>
       </defs>
       <use xlink:href="#DejaVuSans-56"/>
       <use x="63.623047" xlink:href="#DejaVuSans-104"/>
       <use x="127.001953" xlink:href="#DejaVuSans-58"/>
       <use x="160.693359" xlink:href="#DejaVuSans-49"/>
       <use x="224.316406" xlink:href="#DejaVuSans-53"/>
       <use x="287.939453" xlink:href="#DejaVuSans-109"/>
      </g>
     </g>
    </g>
    <g id="xtick_6">
     <g id="line2d_6">
      <g>
       <use style="stroke:#000000;stroke-width:0.8;" x="359.186881" xlink:href="#md177430ce3" y="288.430125"/>
      </g>
     </g>
     <g id="text_6">
      <!-- 10h:15m -->
      <g transform="translate(336.738443 303.028562)scale(0.1 -0.1)">
       <defs>
        <path d="M 31.78125 66.40625 
Q 24.171875 66.40625 20.328125 58.90625 
Q 16.5 51.421875 16.5 36.375 
Q 16.5 21.390625 20.328125 13.890625 
Q 24.171875 6.390625 31.78125 6.390625 
Q 39.453125 6.390625 43.28125 13.890625 
Q 47.125 21.390625 47.125 36.375 
Q 47.125 51.421875 43.28125 58.90625 
Q 39.453125 66.40625 31.78125 66.40625 
z
M 31.78125 74.21875 
Q 44.046875 74.21875 50.515625 64.515625 
Q 56.984375 54.828125 56.984375 36.375 
Q 56.984375 17.96875 50.515625 8.265625 
Q 44.046875 -1.421875 31.78125 -1.421875 
Q 19.53125 -1.421875 13.0625 8.265625 
Q 6.59375 17.96875 6.59375 36.375 
Q 6.59375 54.828125 13.0625 64.515625 
Q 19.53125 74.21875 31.78125 74.21875 
z
" id="DejaVuSans-48"/>
       </defs>
       <use xlink:href="#DejaVuSans-49"/>
       <use x="63.623047" xlink:href="#DejaVuSans-48"/>
       <use x="127.246094" xlink:href="#DejaVuSans-104"/>
       <use x="190.625" xlink:href="#DejaVuSans-58"/>
       <use x="224.316406" xlink:href="#DejaVuSans-49"/>
       <use x="287.939453" xlink:href="#DejaVuSans-53"/>
       <use x="351.5625" xlink:href="#DejaVuSans-109"/>
      </g>
     </g>
    </g>
    <g id="xtick_7">
     <g id="line2d_7">
      <g>
       <use style="stroke:#000000;stroke-width:0.8;" x="413.865541" xlink:href="#md177430ce3" y="288.430125"/>
      </g>
     </g>
     <g id="text_7">
      <!-- 12h:15m -->
      <g transform="translate(391.417104 303.028562)scale(0.1 -0.1)">
       <use xlink:href="#DejaVuSans-49"/>
       <use x="63.623047" xlink:href="#DejaVuSans-50"/>
       <use x="127.246094" xlink:href="#DejaVuSans-104"/>
       <use x="190.625" xlink:href="#DejaVuSans-58"/>
       <use x="224.316406" xlink:href="#DejaVuSans-49"/>
       <use x="287.939453" xlink:href="#DejaVuSans-53"/>
       <use x="351.5625" xlink:href="#DejaVuSans-109"/>
      </g>
     </g>
    </g>
    <g id="xtick_8">
     <g id="line2d_8">
      <g>
       <use style="stroke:#000000;stroke-width:0.8;" x="468.544202" xlink:href="#md177430ce3" y="288.430125"/>
      </g>
     </g>
     <g id="text_8">
      <!-- 14h:15m -->
      <g transform="translate(446.095764 303.028562)scale(0.1 -0.1)">
       <use xlink:href="#DejaVuSans-49"/>
       <use x="63.623047" xlink:href="#DejaVuSans-52"/>
       <use x="127.246094" xlink:href="#DejaVuSans-104"/>
       <use x="190.625" xlink:href="#DejaVuSans-58"/>
       <use x="224.316406" xlink:href="#DejaVuSans-49"/>
       <use x="287.939453" xlink:href="#DejaVuSans-53"/>
       <use x="351.5625" xlink:href="#DejaVuSans-109"/>
      </g>
     </g>
    </g>
    <g id="xtick_9">
     <g id="line2d_9">
      <g>
       <use style="stroke:#000000;stroke-width:0.8;" x="523.222862" xlink:href="#md177430ce3" y="288.430125"/>
      </g>
     </g>
     <g id="text_9">
      <!-- 16h:15m -->
      <g transform="translate(500.774424 303.028562)scale(0.1 -0.1)">
       <use xlink:href="#DejaVuSans-49"/>
       <use x="63.623047" xlink:href="#DejaVuSans-54"/>
       <use x="127.246094" xlink:href="#DejaVuSans-104"/>
       <use x="190.625" xlink:href="#DejaVuSans-58"/>
       <use x="224.316406" xlink:href="#DejaVuSans-49"/>
       <use x="287.939453" xlink:href="#DejaVuSans-53"/>
       <use x="351.5625" xlink:href="#DejaVuSans-109"/>
      </g>
     </g>
    </g>
    <g id="xtick_10">
     <g id="line2d_10">
      <g>
       <use style="stroke:#000000;stroke-width:0.8;" x="577.901522" xlink:href="#md177430ce3" y="288.430125"/>
      </g>
     </g>
     <g id="text_10">
      <!-- 18h:15m -->
      <g transform="translate(555.453085 303.028562)scale(0.1 -0.1)">
       <use xlink:href="#DejaVuSans-49"/>
       <use x="63.623047" xlink:href="#DejaVuSans-56"/>
       <use x="127.246094" xlink:href="#DejaVuSans-104"/>
       <use x="190.625" xlink:href="#DejaVuSans-58"/>
       <use x="224.316406" xlink:href="#DejaVuSans-49"/>
       <use x="287.939453" xlink:href="#DejaVuSans-53"/>
       <use x="351.5625" xlink:href="#DejaVuSans-109"/>
      </g>
     </g>
    </g>
    <g id="xtick_11">
     <g id="line2d_11">
      <g>
       <use style="stroke:#000000;stroke-width:0.8;" x="632.580182" xlink:href="#md177430ce3" y="288.430125"/>
      </g>
     </g>
     <g id="text_11">
      <!-- 20h:15m -->
      <g transform="translate(610.131745 303.028562)scale(0.1 -0.1)">
       <use xlink:href="#DejaVuSans-50"/>
       <use x="63.623047" xlink:href="#DejaVuSans-48"/>
       <use x="127.246094" xlink:href="#DejaVuSans-104"/>
       <use x="190.625" xlink:href="#DejaVuSans-58"/>
       <use x="224.316406" xlink:href="#DejaVuSans-49"/>
       <use x="287.939453" xlink:href="#DejaVuSans-53"/>
       <use x="351.5625" xlink:href="#DejaVuSans-109"/>
      </g>
     </g>
    </g>
    <g id="xtick_12">
     <g id="line2d_12">
      <g>
       <use style="stroke:#000000;stroke-width:0.8;" x="687.258843" xlink:href="#md177430ce3" y="288.430125"/>
      </g>
     </g>
     <g id="text_12">
      <!-- 22h:15m -->
      <g transform="translate(664.810405 303.028562)scale(0.1 -0.1)">
       <use xlink:href="#DejaVuSans-50"/>
       <use x="63.623047" xlink:href="#DejaVuSans-50"/>
       <use x="127.246094" xlink:href="#DejaVuSans-104"/>
       <use x="190.625" xlink:href="#DejaVuSans-58"/>
       <use x="224.316406" xlink:href="#DejaVuSans-49"/>
       <use x="287.939453" xlink:href="#DejaVuSans-53"/>
       <use x="351.5625" xlink:href="#DejaVuSans-109"/>
      </g>
     </g>
    </g>
    <g id="text_13">
     <!-- Time (hour:minute) -->
     <g transform="translate(362.041094 316.706687)scale(0.1 -0.1)">
      <defs>
       <path d="M -0.296875 72.90625 
L 61.375 72.90625 
L 61.375 64.59375 
L 35.5 64.59375 
L 35.5 0 
L 25.59375 0 
L 25.59375 64.59375 
L -0.296875 64.59375 
z
" id="DejaVuSans-84"/>
       <path d="M 9.421875 54.6875 
L 18.40625 54.6875 
L 18.40625 0 
L 9.421875 0 
z
M 9.421875 75.984375 
L 18.40625 75.984375 
L 18.40625 64.59375 
L 9.421875 64.59375 
z
" id="DejaVuSans-105"/>
       <path d="M 56.203125 29.59375 
L 56.203125 25.203125 
L 14.890625 25.203125 
Q 15.484375 15.921875 20.484375 11.0625 
Q 25.484375 6.203125 34.421875 6.203125 
Q 39.59375 6.203125 44.453125 7.46875 
Q 49.3125 8.734375 54.109375 11.28125 
L 54.109375 2.78125 
Q 49.265625 0.734375 44.1875 -0.34375 
Q 39.109375 -1.421875 33.890625 -1.421875 
Q 20.796875 -1.421875 13.15625 6.1875 
Q 5.515625 13.8125 5.515625 26.8125 
Q 5.515625 40.234375 12.765625 48.109375 
Q 20.015625 56 32.328125 56 
Q 43.359375 56 49.78125 48.890625 
Q 56.203125 41.796875 56.203125 29.59375 
z
M 47.21875 32.234375 
Q 47.125 39.59375 43.09375 43.984375 
Q 39.0625 48.390625 32.421875 48.390625 
Q 24.90625 48.390625 20.390625 44.140625 
Q 15.875 39.890625 15.1875 32.171875 
z
" id="DejaVuSans-101"/>
       <path id="DejaVuSans-32"/>
       <path d="M 31 75.875 
Q 24.46875 64.65625 21.28125 53.65625 
Q 18.109375 42.671875 18.109375 31.390625 
Q 18.109375 20.125 21.3125 9.0625 
Q 24.515625 -2 31 -13.1875 
L 23.1875 -13.1875 
Q 15.875 -1.703125 12.234375 9.375 
Q 8.59375 20.453125 8.59375 31.390625 
Q 8.59375 42.28125 12.203125 53.3125 
Q 15.828125 64.359375 23.1875 75.875 
z
" id="DejaVuSans-40"/>
       <path d="M 30.609375 48.390625 
Q 23.390625 48.390625 19.1875 42.75 
Q 14.984375 37.109375 14.984375 27.296875 
Q 14.984375 17.484375 19.15625 11.84375 
Q 23.34375 6.203125 30.609375 6.203125 
Q 37.796875 6.203125 41.984375 11.859375 
Q 46.1875 17.53125 46.1875 27.296875 
Q 46.1875 37.015625 41.984375 42.703125 
Q 37.796875 48.390625 30.609375 48.390625 
z
M 30.609375 56 
Q 42.328125 56 49.015625 48.375 
Q 55.71875 40.765625 55.71875 27.296875 
Q 55.71875 13.875 49.015625 6.21875 
Q 42.328125 -1.421875 30.609375 -1.421875 
Q 18.84375 -1.421875 12.171875 6.21875 
Q 5.515625 13.875 5.515625 27.296875 
Q 5.515625 40.765625 12.171875 48.375 
Q 18.84375 56 30.609375 56 
z
" id="DejaVuSans-111"/>
       <path d="M 8.5 21.578125 
L 8.5 54.6875 
L 17.484375 54.6875 
L 17.484375 21.921875 
Q 17.484375 14.15625 20.5 10.265625 
Q 23.53125 6.390625 29.59375 6.390625 
Q 36.859375 6.390625 41.078125 11.03125 
Q 45.3125 15.671875 45.3125 23.6875 
L 45.3125 54.6875 
L 54.296875 54.6875 
L 54.296875 0 
L 45.3125 0 
L 45.3125 8.40625 
Q 42.046875 3.421875 37.71875 1 
Q 33.40625 -1.421875 27.6875 -1.421875 
Q 18.265625 -1.421875 13.375 4.4375 
Q 8.5 10.296875 8.5 21.578125 
z
M 31.109375 56 
z
" id="DejaVuSans-117"/>
       <path d="M 41.109375 46.296875 
Q 39.59375 47.171875 37.8125 47.578125 
Q 36.03125 48 33.890625 48 
Q 26.265625 48 22.1875 43.046875 
Q 18.109375 38.09375 18.109375 28.8125 
L 18.109375 0 
L 9.078125 0 
L 9.078125 54.6875 
L 18.109375 54.6875 
L 18.109375 46.1875 
Q 20.953125 51.171875 25.484375 53.578125 
Q 30.03125 56 36.53125 56 
Q 37.453125 56 38.578125 55.875 
Q 39.703125 55.765625 41.0625 55.515625 
z
" id="DejaVuSans-114"/>
       <path d="M 54.890625 33.015625 
L 54.890625 0 
L 45.90625 0 
L 45.90625 32.71875 
Q 45.90625 40.484375 42.875 44.328125 
Q 39.84375 48.1875 33.796875 48.1875 
Q 26.515625 48.1875 22.3125 43.546875 
Q 18.109375 38.921875 18.109375 30.90625 
L 18.109375 0 
L 9.078125 0 
L 9.078125 54.6875 
L 18.109375 54.6875 
L 18.109375 46.1875 
Q 21.34375 51.125 25.703125 53.5625 
Q 30.078125 56 35.796875 56 
Q 45.21875 56 50.046875 50.171875 
Q 54.890625 44.34375 54.890625 33.015625 
z
" id="DejaVuSans-110"/>
       <path d="M 18.3125 70.21875 
L 18.3125 54.6875 
L 36.8125 54.6875 
L 36.8125 47.703125 
L 18.3125 47.703125 
L 18.3125 18.015625 
Q 18.3125 11.328125 20.140625 9.421875 
Q 21.96875 7.515625 27.59375 7.515625 
L 36.8125 7.515625 
L 36.8125 0 
L 27.59375 0 
Q 17.1875 0 13.234375 3.875 
Q 9.28125 7.765625 9.28125 18.015625 
L 9.28125 47.703125 
L 2.6875 47.703125 
L 2.6875 54.6875 
L 9.28125 54.6875 
L 9.28125 70.21875 
z
" id="DejaVuSans-116"/>
       <path d="M 8.015625 75.875 
L 15.828125 75.875 
Q 23.140625 64.359375 26.78125 53.3125 
Q 30.421875 42.28125 30.421875 31.390625 
Q 30.421875 20.453125 26.78125 9.375 
Q 23.140625 -1.703125 15.828125 -13.1875 
L 8.015625 -13.1875 
Q 14.5 -2 17.703125 9.0625 
Q 20.90625 20.125 20.90625 31.390625 
Q 20.90625 42.671875 17.703125 53.65625 
Q 14.5 64.65625 8.015625 75.875 
z
" id="DejaVuSans-41"/>
      </defs>
      <use xlink:href="#DejaVuSans-84"/>
      <use x="57.958984" xlink:href="#DejaVuSans-105"/>
      <use x="85.742188" xlink:href="#DejaVuSans-109"/>
      <use x="183.154297" xlink:href="#DejaVuSans-101"/>
      <use x="244.677734" xlink:href="#DejaVuSans-32"/>
      <use x="276.464844" xlink:href="#DejaVuSans-40"/>
      <use x="315.478516" xlink:href="#DejaVuSans-104"/>
      <use x="378.857422" xlink:href="#DejaVuSans-111"/>
      <use x="440.039062" xlink:href="#DejaVuSans-117"/>
      <use x="503.417969" xlink:href="#DejaVuSans-114"/>
      <use x="542.78125" xlink:href="#DejaVuSans-58"/>
      <use x="576.472656" xlink:href="#DejaVuSans-109"/>
      <use x="673.884766" xlink:href="#DejaVuSans-105"/>
      <use x="701.667969" xlink:href="#DejaVuSans-110"/>
      <use x="765.046875" xlink:href="#DejaVuSans-117"/>
      <use x="828.425781" xlink:href="#DejaVuSans-116"/>
      <use x="867.634766" xlink:href="#DejaVuSans-101"/>
      <use x="929.158203" xlink:href="#DejaVuSans-41"/>
     </g>
    </g>
   </g>
   <g id="matplotlib.axis_2">
    <g id="ytick_1">
     <g id="line2d_13">
      <defs>
       <path d="M 0 0 
L -3.5 0 
" id="m9ba190262f" style="stroke:#000000;stroke-width:0.8;"/>
      </defs>
      <g>
       <use style="stroke:#000000;stroke-width:0.8;" x="53.328125" xlink:href="#m9ba190262f" y="248.362792"/>
      </g>
     </g>
     <g id="text_14">
      <!-- 1200 -->
      <g transform="translate(20.878125 252.162011)scale(0.1 -0.1)">
       <use xlink:href="#DejaVuSans-49"/>
       <use x="63.623047" xlink:href="#DejaVuSans-50"/>
       <use x="127.246094" xlink:href="#DejaVuSans-48"/>
       <use x="190.869141" xlink:href="#DejaVuSans-48"/>
      </g>
     </g>
    </g>
    <g id="ytick_2">
     <g id="line2d_14">
      <g>
       <use style="stroke:#000000;stroke-width:0.8;" x="53.328125" xlink:href="#m9ba190262f" y="205.658467"/>
      </g>
     </g>
     <g id="text_15">
      <!-- 1400 -->
      <g transform="translate(20.878125 209.457686)scale(0.1 -0.1)">
       <use xlink:href="#DejaVuSans-49"/>
       <use x="63.623047" xlink:href="#DejaVuSans-52"/>
       <use x="127.246094" xlink:href="#DejaVuSans-48"/>
       <use x="190.869141" xlink:href="#DejaVuSans-48"/>
      </g>
     </g>
    </g>
    <g id="ytick_3">
     <g id="line2d_15">
      <g>
       <use style="stroke:#000000;stroke-width:0.8;" x="53.328125" xlink:href="#m9ba190262f" y="162.954143"/>
      </g>
     </g>
     <g id="text_16">
      <!-- 1600 -->
      <g transform="translate(20.878125 166.753361)scale(0.1 -0.1)">
       <use xlink:href="#DejaVuSans-49"/>
       <use x="63.623047" xlink:href="#DejaVuSans-54"/>
       <use x="127.246094" xlink:href="#DejaVuSans-48"/>
       <use x="190.869141" xlink:href="#DejaVuSans-48"/>
      </g>
     </g>
    </g>
    <g id="ytick_4">
     <g id="line2d_16">
      <g>
       <use style="stroke:#000000;stroke-width:0.8;" x="53.328125" xlink:href="#m9ba190262f" y="120.249818"/>
      </g>
     </g>
     <g id="text_17">
      <!-- 1800 -->
      <g transform="translate(20.878125 124.049037)scale(0.1 -0.1)">
       <use xlink:href="#DejaVuSans-49"/>
       <use x="63.623047" xlink:href="#DejaVuSans-56"/>
       <use x="127.246094" xlink:href="#DejaVuSans-48"/>
       <use x="190.869141" xlink:href="#DejaVuSans-48"/>
      </g>
     </g>
    </g>
    <g id="ytick_5">
     <g id="line2d_17">
      <g>
       <use style="stroke:#000000;stroke-width:0.8;" x="53.328125" xlink:href="#m9ba190262f" y="77.545493"/>
      </g>
     </g>
     <g id="text_18">
      <!-- 2000 -->
      <g transform="translate(20.878125 81.344712)scale(0.1 -0.1)">
       <use xlink:href="#DejaVuSans-50"/>
       <use x="63.623047" xlink:href="#DejaVuSans-48"/>
       <use x="127.246094" xlink:href="#DejaVuSans-48"/>
       <use x="190.869141" xlink:href="#DejaVuSans-48"/>
      </g>
     </g>
    </g>
    <g id="ytick_6">
     <g id="line2d_18">
      <g>
       <use style="stroke:#000000;stroke-width:0.8;" x="53.328125" xlink:href="#m9ba190262f" y="34.841168"/>
      </g>
     </g>
     <g id="text_19">
      <!-- 2200 -->
      <g transform="translate(20.878125 38.640387)scale(0.1 -0.1)">
       <use xlink:href="#DejaVuSans-50"/>
       <use x="63.623047" xlink:href="#DejaVuSans-50"/>
       <use x="127.246094" xlink:href="#DejaVuSans-48"/>
       <use x="190.869141" xlink:href="#DejaVuSans-48"/>
      </g>
     </g>
    </g>
    <g id="text_20">
     <!-- Edge coverage -->
     <g transform="translate(14.798438 192.762406)rotate(-90)scale(0.1 -0.1)">
      <defs>
       <path d="M 9.8125 72.90625 
L 55.90625 72.90625 
L 55.90625 64.59375 
L 19.671875 64.59375 
L 19.671875 43.015625 
L 54.390625 43.015625 
L 54.390625 34.71875 
L 19.671875 34.71875 
L 19.671875 8.296875 
L 56.78125 8.296875 
L 56.78125 0 
L 9.8125 0 
z
" id="DejaVuSans-69"/>
       <path d="M 45.40625 46.390625 
L 45.40625 75.984375 
L 54.390625 75.984375 
L 54.390625 0 
L 45.40625 0 
L 45.40625 8.203125 
Q 42.578125 3.328125 38.25 0.953125 
Q 33.9375 -1.421875 27.875 -1.421875 
Q 17.96875 -1.421875 11.734375 6.484375 
Q 5.515625 14.40625 5.515625 27.296875 
Q 5.515625 40.1875 11.734375 48.09375 
Q 17.96875 56 27.875 56 
Q 33.9375 56 38.25 53.625 
Q 42.578125 51.265625 45.40625 46.390625 
z
M 14.796875 27.296875 
Q 14.796875 17.390625 18.875 11.75 
Q 22.953125 6.109375 30.078125 6.109375 
Q 37.203125 6.109375 41.296875 11.75 
Q 45.40625 17.390625 45.40625 27.296875 
Q 45.40625 37.203125 41.296875 42.84375 
Q 37.203125 48.484375 30.078125 48.484375 
Q 22.953125 48.484375 18.875 42.84375 
Q 14.796875 37.203125 14.796875 27.296875 
z
" id="DejaVuSans-100"/>
       <path d="M 45.40625 27.984375 
Q 45.40625 37.75 41.375 43.109375 
Q 37.359375 48.484375 30.078125 48.484375 
Q 22.859375 48.484375 18.828125 43.109375 
Q 14.796875 37.75 14.796875 27.984375 
Q 14.796875 18.265625 18.828125 12.890625 
Q 22.859375 7.515625 30.078125 7.515625 
Q 37.359375 7.515625 41.375 12.890625 
Q 45.40625 18.265625 45.40625 27.984375 
z
M 54.390625 6.78125 
Q 54.390625 -7.171875 48.1875 -13.984375 
Q 42 -20.796875 29.203125 -20.796875 
Q 24.46875 -20.796875 20.265625 -20.09375 
Q 16.0625 -19.390625 12.109375 -17.921875 
L 12.109375 -9.1875 
Q 16.0625 -11.328125 19.921875 -12.34375 
Q 23.78125 -13.375 27.78125 -13.375 
Q 36.625 -13.375 41.015625 -8.765625 
Q 45.40625 -4.15625 45.40625 5.171875 
L 45.40625 9.625 
Q 42.625 4.78125 38.28125 2.390625 
Q 33.9375 0 27.875 0 
Q 17.828125 0 11.671875 7.65625 
Q 5.515625 15.328125 5.515625 27.984375 
Q 5.515625 40.671875 11.671875 48.328125 
Q 17.828125 56 27.875 56 
Q 33.9375 56 38.28125 53.609375 
Q 42.625 51.21875 45.40625 46.390625 
L 45.40625 54.6875 
L 54.390625 54.6875 
z
" id="DejaVuSans-103"/>
       <path d="M 48.78125 52.59375 
L 48.78125 44.1875 
Q 44.96875 46.296875 41.140625 47.34375 
Q 37.3125 48.390625 33.40625 48.390625 
Q 24.65625 48.390625 19.8125 42.84375 
Q 14.984375 37.3125 14.984375 27.296875 
Q 14.984375 17.28125 19.8125 11.734375 
Q 24.65625 6.203125 33.40625 6.203125 
Q 37.3125 6.203125 41.140625 7.25 
Q 44.96875 8.296875 48.78125 10.40625 
L 48.78125 2.09375 
Q 45.015625 0.34375 40.984375 -0.53125 
Q 36.96875 -1.421875 32.421875 -1.421875 
Q 20.0625 -1.421875 12.78125 6.34375 
Q 5.515625 14.109375 5.515625 27.296875 
Q 5.515625 40.671875 12.859375 48.328125 
Q 20.21875 56 33.015625 56 
Q 37.15625 56 41.109375 55.140625 
Q 45.0625 54.296875 48.78125 52.59375 
z
" id="DejaVuSans-99"/>
       <path d="M 2.984375 54.6875 
L 12.5 54.6875 
L 29.59375 8.796875 
L 46.6875 54.6875 
L 56.203125 54.6875 
L 35.6875 0 
L 23.484375 0 
z
" id="DejaVuSans-118"/>
       <path d="M 34.28125 27.484375 
Q 23.390625 27.484375 19.1875 25 
Q 14.984375 22.515625 14.984375 16.5 
Q 14.984375 11.71875 18.140625 8.90625 
Q 21.296875 6.109375 26.703125 6.109375 
Q 34.1875 6.109375 38.703125 11.40625 
Q 43.21875 16.703125 43.21875 25.484375 
L 43.21875 27.484375 
z
M 52.203125 31.203125 
L 52.203125 0 
L 43.21875 0 
L 43.21875 8.296875 
Q 40.140625 3.328125 35.546875 0.953125 
Q 30.953125 -1.421875 24.3125 -1.421875 
Q 15.921875 -1.421875 10.953125 3.296875 
Q 6 8.015625 6 15.921875 
Q 6 25.140625 12.171875 29.828125 
Q 18.359375 34.515625 30.609375 34.515625 
L 43.21875 34.515625 
L 43.21875 35.40625 
Q 43.21875 41.609375 39.140625 45 
Q 35.0625 48.390625 27.6875 48.390625 
Q 23 48.390625 18.546875 47.265625 
Q 14.109375 46.140625 10.015625 43.890625 
L 10.015625 52.203125 
Q 14.9375 54.109375 19.578125 55.046875 
Q 24.21875 56 28.609375 56 
Q 40.484375 56 46.34375 49.84375 
Q 52.203125 43.703125 52.203125 31.203125 
z
" id="DejaVuSans-97"/>
      </defs>
      <use xlink:href="#DejaVuSans-69"/>
      <use x="63.183594" xlink:href="#DejaVuSans-100"/>
      <use x="126.660156" xlink:href="#DejaVuSans-103"/>
      <use x="190.136719" xlink:href="#DejaVuSans-101"/>
      <use x="251.660156" xlink:href="#DejaVuSans-32"/>
      <use x="283.447266" xlink:href="#DejaVuSans-99"/>
      <use x="338.427734" xlink:href="#DejaVuSans-111"/>
      <use x="399.609375" xlink:href="#DejaVuSans-118"/>
      <use x="458.789062" xlink:href="#DejaVuSans-101"/>
      <use x="520.3125" xlink:href="#DejaVuSans-114"/>
      <use x="561.425781" xlink:href="#DejaVuSans-97"/>
      <use x="622.705078" xlink:href="#DejaVuSans-103"/>
      <use x="686.181641" xlink:href="#DejaVuSans-101"/>
     </g>
    </g>
   </g>
   <g id="line2d_19">
    <path clip-path="url(#pbad30c7a7d)" d="M 85.79358 261.558429 
L 92.628412 260.49082 
L 99.463245 260.234595 
L 106.298077 260.234595 
L 113.13291 260.234595 
L 119.967742 260.234595 
L 126.802575 259.935664 
L 133.637407 259.850256 
L 140.47224 259.764847 
L 147.307072 259.081578 
L 154.141905 258.654535 
L 160.976737 258.654535 
L 167.81157 257.202587 
L 174.646403 256.946362 
L 181.481235 256.476614 
L 188.316068 256.476614 
L 195.1509 255.323597 
L 201.985733 253.017564 
L 208.820565 252.376999 
L 215.655398 204.377338 
L 222.49023 202.669165 
L 229.325063 158.68371 
L 236.159895 158.555597 
L 242.994728 158.512893 
L 249.82956 157.658806 
L 256.664393 157.274467 
L 263.499225 156.719311 
L 270.334058 156.377677 
L 277.168891 156.377677 
L 284.003723 155.694407 
L 290.838556 155.395477 
L 297.673388 155.310069 
L 304.508221 155.310069 
L 311.343053 155.310069 
L 318.177886 155.096547 
L 325.012718 153.473783 
L 331.847551 152.534287 
L 338.682383 151.979131 
L 345.517216 151.509384 
L 352.352048 150.18555 
L 359.186881 149.886619 
L 366.021714 149.50228 
L 372.856546 149.20335 
L 379.691379 149.20335 
L 386.526211 149.20335 
L 393.361044 149.20335 
L 400.195876 148.90442 
L 407.030709 148.819011 
L 413.865541 148.349264 
L 420.700374 148.263855 
L 427.535206 147.879516 
L 434.370039 147.879516 
L 441.204871 147.367064 
L 448.039704 146.897317 
L 454.874536 146.171343 
L 461.709369 146.128639 
L 468.544202 146.128639 
L 475.379034 146.128639 
L 482.213867 145.915117 
L 489.048699 145.701595 
L 495.883532 144.591283 
L 502.718364 144.249648 
L 509.553197 144.121535 
L 516.388029 143.779901 
L 523.222862 143.694492 
L 530.057694 143.480971 
L 536.892527 143.438266 
L 543.727359 143.224745 
L 550.562192 143.224745 
L 557.397025 143.224745 
L 564.231857 143.011223 
L 571.06669 142.968519 
L 577.901522 142.669588 
L 584.736355 142.669588 
L 591.571187 142.456067 
L 598.40602 142.199841 
L 605.240852 142.199841 
L 612.075685 142.199841 
L 618.910517 142.071728 
L 625.74535 142.071728 
L 632.580182 141.60198 
L 639.415015 141.473867 
L 646.249847 141.174937 
L 653.08468 141.174937 
L 659.919513 141.174937 
L 666.754345 140.747894 
L 673.589178 140.747894 
L 680.42401 139.936512 
L 687.258843 139.509468 
L 694.093675 139.509468 
L 700.928508 139.509468 
L 707.76334 139.42406 
L 714.598173 139.167834 
L 721.433005 138.954312 
L 728.267838 138.228339 
L 735.10267 138.228339 
" style="fill:none;stroke:#aec7e8;stroke-linecap:square;stroke-width:1.5;"/>
   </g>
   <g id="line2d_20">
    <path clip-path="url(#pbad30c7a7d)" d="M 85.79358 214.711784 
L 92.628412 212.10682 
L 99.463245 210.612169 
L 106.298077 210.52676 
L 113.13291 210.270535 
L 119.967742 209.800787 
L 126.802575 209.459152 
L 133.637407 209.459152 
L 140.47224 209.331039 
L 147.307072 209.331039 
L 154.141905 209.117518 
L 160.976737 208.903996 
L 167.81157 208.562362 
L 174.646403 208.562362 
L 181.481235 208.34884 
L 188.316068 208.34884 
L 195.1509 208.178023 
L 201.985733 208.135318 
L 208.820565 208.135318 
L 215.655398 207.836388 
L 222.49023 207.836388 
L 229.325063 207.836388 
L 236.159895 207.836388 
L 242.994728 207.836388 
L 249.82956 207.750979 
L 256.664393 206.854189 
L 263.499225 204.590859 
L 270.334058 204.121112 
L 277.168891 204.121112 
L 284.003723 203.736773 
L 290.838556 203.437843 
L 297.673388 203.437843 
L 304.508221 200.960992 
L 311.343053 200.192314 
L 318.177886 199.082001 
L 325.012718 199.082001 
L 331.847551 198.953888 
L 338.682383 198.911184 
L 345.517216 198.911184 
L 352.352048 198.825775 
L 359.186881 198.441437 
L 366.021714 198.356028 
L 372.856546 198.356028 
L 379.691379 198.313324 
L 386.526211 198.313324 
L 393.361044 198.313324 
L 400.195876 198.313324 
L 407.030709 197.758167 
L 413.865541 155.52359 
L 420.700374 154.498686 
L 427.535206 154.327869 
L 434.370039 154.071643 
L 441.204871 153.730008 
L 448.039704 153.730008 
L 454.874536 153.730008 
L 461.709369 153.559191 
L 468.544202 153.431078 
L 475.379034 153.431078 
L 482.213867 153.004035 
L 489.048699 153.004035 
L 495.883532 153.004035 
L 502.718364 153.004035 
L 509.553197 152.918626 
L 516.388029 152.918626 
L 523.222862 152.534287 
L 530.057694 151.808314 
L 536.892527 151.808314 
L 543.727359 151.680201 
L 550.562192 151.466679 
L 557.397025 151.466679 
L 564.231857 150.954227 
L 571.06669 150.698001 
L 577.901522 150.527184 
L 584.736355 150.527184 
L 591.571187 150.527184 
L 598.40602 150.48448 
L 605.240852 150.48448 
L 612.075685 150.270958 
L 618.910517 149.374167 
L 625.74535 149.374167 
L 632.580182 149.374167 
L 639.415015 149.374167 
L 646.249847 149.288759 
L 653.08468 148.947124 
L 659.919513 148.947124 
L 666.754345 148.861715 
L 673.589178 148.861715 
L 680.42401 148.434672 
L 687.258843 148.306559 
L 694.093675 147.367064 
L 700.928508 147.367064 
L 707.76334 147.367064 
L 714.598173 147.367064 
L 721.433005 147.281655 
L 728.267838 147.281655 
L 735.10267 184.94687 
" style="fill:none;stroke:#ffbb78;stroke-linecap:square;stroke-width:1.5;"/>
   </g>
   <g id="line2d_21">
    <path clip-path="url(#pbad30c7a7d)" d="M 85.79358 272.917779 
L 92.628412 267.878669 
L 99.463245 267.49433 
L 106.298077 267.366217 
L 113.13291 267.366217 
L 119.967742 266.811061 
L 126.802575 266.469426 
L 133.637407 266.469426 
L 140.47224 266.469426 
L 147.307072 266.469426 
L 154.141905 266.469426 
L 160.976737 266.469426 
L 167.81157 266.384017 
L 174.646403 266.341313 
L 181.481235 266.042383 
L 188.316068 264.761253 
L 195.1509 263.35201 
L 201.985733 263.35201 
L 208.820565 262.882263 
L 215.655398 262.327106 
L 222.49023 262.241698 
L 229.325063 261.47302 
L 236.159895 260.19189 
L 242.994728 258.526422 
L 249.82956 258.398309 
L 256.664393 258.355604 
L 263.499225 258.355604 
L 270.334058 258.355604 
L 277.168891 258.142083 
L 284.003723 256.775544 
L 290.838556 256.220388 
L 297.673388 254.640328 
L 304.508221 254.640328 
L 311.343053 253.530016 
L 318.177886 253.530016 
L 325.012718 253.188381 
L 331.847551 252.761338 
L 338.682383 252.376999 
L 345.517216 251.522912 
L 352.352048 251.480208 
L 359.186881 251.480208 
L 366.021714 251.480208 
L 372.856546 251.480208 
L 379.691379 249.900148 
L 386.526211 249.900148 
L 393.361044 249.900148 
L 400.195876 249.814739 
L 407.030709 249.601218 
L 413.865541 249.174174 
L 420.700374 248.960653 
L 427.535206 248.960653 
L 434.370039 248.960653 
L 441.204871 248.960653 
L 448.039704 248.83254 
L 454.874536 248.83254 
L 461.709369 248.619018 
L 468.544202 247.679523 
L 475.379034 247.25248 
L 482.213867 247.25248 
L 489.048699 246.868141 
L 495.883532 246.868141 
L 502.718364 246.697324 
L 509.553197 246.526506 
L 516.388029 246.526506 
L 523.222862 246.056759 
L 530.057694 246.014054 
L 536.892527 245.97135 
L 543.727359 245.757828 
L 550.562192 245.544307 
L 557.397025 243.323682 
L 564.231857 243.067456 
L 571.06669 242.256074 
L 577.901522 241.871735 
L 584.736355 240.676014 
L 591.571187 240.462492 
L 598.40602 240.462492 
L 605.240852 240.035449 
L 612.075685 240.035449 
L 618.910517 239.821927 
L 625.74535 239.821927 
L 632.580182 239.821927 
L 639.415015 239.053249 
L 646.249847 239.053249 
L 653.08468 239.053249 
L 659.919513 238.626206 
L 666.754345 238.540798 
L 673.589178 238.540798 
L 680.42401 238.327276 
L 687.258843 238.327276 
L 694.093675 238.327276 
L 700.928508 238.199163 
L 707.76334 237.942937 
L 714.598173 237.515894 
L 721.433005 237.430485 
L 728.267838 236.234764 
L 735.10267 236.234764 
" style="fill:none;stroke:#ff7f0e;stroke-linecap:square;stroke-width:1.5;"/>
   </g>
   <g id="line2d_22">
    <path clip-path="url(#pbad30c7a7d)" d="M 85.79358 273.045892 
L 92.628412 272.490736 
L 99.463245 271.93558 
L 106.298077 271.807467 
L 113.13291 270.910676 
L 119.967742 270.782563 
L 126.802575 270.65445 
L 133.637407 270.440928 
L 140.47224 270.440928 
L 147.307072 270.227407 
L 154.141905 269.800363 
L 160.976737 269.714955 
L 167.81157 269.501433 
L 174.646403 269.031685 
L 181.481235 264.761253 
L 188.316068 263.693645 
L 195.1509 263.309306 
L 201.985733 263.223897 
L 208.820565 263.223897 
L 215.655398 263.223897 
L 222.49023 263.223897 
L 229.325063 263.223897 
L 236.159895 263.223897 
L 242.994728 262.540628 
L 249.82956 262.369811 
L 256.664393 261.942768 
L 263.499225 261.857359 
L 270.334058 261.003272 
L 277.168891 260.789751 
L 284.003723 260.576229 
L 290.838556 260.576229 
L 297.673388 260.576229 
L 304.508221 260.576229 
L 311.343053 260.576229 
L 318.177886 260.576229 
L 325.012718 260.576229 
L 331.847551 260.533525 
L 338.682383 260.533525 
L 345.517216 260.106482 
L 352.352048 260.106482 
L 359.186881 258.61183 
L 366.021714 254.597624 
L 372.856546 253.743537 
L 379.691379 253.700833 
L 386.526211 253.615424 
L 393.361044 253.188381 
L 400.195876 253.145677 
L 407.030709 252.462407 
L 413.865541 251.736434 
L 420.700374 251.522912 
L 427.535206 251.394799 
L 434.370039 251.309391 
L 441.204871 251.309391 
L 448.039704 251.309391 
L 454.874536 250.925052 
L 461.709369 250.925052 
L 468.544202 250.882347 
L 475.379034 249.985557 
L 482.213867 249.985557 
L 489.048699 249.985557 
L 495.883532 249.900148 
L 502.718364 249.729331 
L 509.553197 249.729331 
L 516.388029 249.729331 
L 523.222862 249.216879 
L 530.057694 249.216879 
L 536.892527 248.234679 
L 543.727359 248.021158 
L 550.562192 248.021158 
L 557.397025 247.85034 
L 564.231857 247.636819 
L 571.06669 247.636819 
L 577.901522 247.423297 
L 584.736355 247.337888 
L 591.571187 247.337888 
L 598.40602 247.209775 
L 605.240852 247.081663 
L 612.075685 247.081663 
L 618.910517 246.868141 
L 625.74535 246.782732 
L 632.580182 246.569211 
L 639.415015 245.544307 
L 646.249847 245.544307 
L 653.08468 245.416194 
L 659.919513 245.416194 
L 666.754345 244.519403 
L 673.589178 244.177768 
L 680.42401 244.177768 
L 687.258843 244.177768 
L 694.093675 244.09236 
L 700.928508 244.09236 
L 707.76334 244.049655 
L 714.598173 244.006951 
L 721.433005 243.79343 
L 728.267838 243.79343 
L 735.10267 243.750725 
" style="fill:none;stroke:#1f77b4;stroke-linecap:square;stroke-width:1.5;"/>
   </g>
   <g id="line2d_23"/>
   <g id="line2d_24"/>
   <g id="line2d_25"/>
   <g id="line2d_26"/>
   <g id="line2d_27"/>
   <g id="line2d_28">
    <path clip-path="url(#pbad30c7a7d)" d="M 735.10267 288.430125 
L 735.10267 22.318125 
" style="fill:none;stroke:#ff0000;stroke-linecap:square;stroke-width:1.5;"/>
   </g>
   <g id="patch_3">
    <path d="M 53.328125 248.362792 
L 53.328125 34.841168 
" style="fill:none;stroke:#000000;stroke-linecap:square;stroke-linejoin:miter;stroke-width:0.8;"/>
   </g>
   <g id="patch_4">
    <path d="M 85.79358 288.430125 
L 687.258843 288.430125 
" style="fill:none;stroke:#000000;stroke-linecap:square;stroke-linejoin:miter;stroke-width:0.8;"/>
   </g>
   <g id="text_21">
    <!-- lcms-2017-03-21 (24h, 4 trials/fuzzer) -->
    <g transform="translate(296.56625 16.318125)scale(0.12 -0.12)">
     <defs>
      <path d="M 9.421875 75.984375 
L 18.40625 75.984375 
L 18.40625 0 
L 9.421875 0 
z
" id="DejaVuSans-108"/>
      <path d="M 44.28125 53.078125 
L 44.28125 44.578125 
Q 40.484375 46.53125 36.375 47.5 
Q 32.28125 48.484375 27.875 48.484375 
Q 21.1875 48.484375 17.84375 46.4375 
Q 14.5 44.390625 14.5 40.28125 
Q 14.5 37.15625 16.890625 35.375 
Q 19.28125 33.59375 26.515625 31.984375 
L 29.59375 31.296875 
Q 39.15625 29.25 43.1875 25.515625 
Q 47.21875 21.78125 47.21875 15.09375 
Q 47.21875 7.46875 41.1875 3.015625 
Q 35.15625 -1.421875 24.609375 -1.421875 
Q 20.21875 -1.421875 15.453125 -0.5625 
Q 10.6875 0.296875 5.421875 2 
L 5.421875 11.28125 
Q 10.40625 8.6875 15.234375 7.390625 
Q 20.0625 6.109375 24.8125 6.109375 
Q 31.15625 6.109375 34.5625 8.28125 
Q 37.984375 10.453125 37.984375 14.40625 
Q 37.984375 18.0625 35.515625 20.015625 
Q 33.0625 21.96875 24.703125 23.78125 
L 21.578125 24.515625 
Q 13.234375 26.265625 9.515625 29.90625 
Q 5.8125 33.546875 5.8125 39.890625 
Q 5.8125 47.609375 11.28125 51.796875 
Q 16.75 56 26.8125 56 
Q 31.78125 56 36.171875 55.265625 
Q 40.578125 54.546875 44.28125 53.078125 
z
" id="DejaVuSans-115"/>
      <path d="M 4.890625 31.390625 
L 31.203125 31.390625 
L 31.203125 23.390625 
L 4.890625 23.390625 
z
" id="DejaVuSans-45"/>
      <path d="M 8.203125 72.90625 
L 55.078125 72.90625 
L 55.078125 68.703125 
L 28.609375 0 
L 18.3125 0 
L 43.21875 64.59375 
L 8.203125 64.59375 
z
" id="DejaVuSans-55"/>
      <path d="M 40.578125 39.3125 
Q 47.65625 37.796875 51.625 33 
Q 55.609375 28.21875 55.609375 21.1875 
Q 55.609375 10.40625 48.1875 4.484375 
Q 40.765625 -1.421875 27.09375 -1.421875 
Q 22.515625 -1.421875 17.65625 -0.515625 
Q 12.796875 0.390625 7.625 2.203125 
L 7.625 11.71875 
Q 11.71875 9.328125 16.59375 8.109375 
Q 21.484375 6.890625 26.8125 6.890625 
Q 36.078125 6.890625 40.9375 10.546875 
Q 45.796875 14.203125 45.796875 21.1875 
Q 45.796875 27.640625 41.28125 31.265625 
Q 36.765625 34.90625 28.71875 34.90625 
L 20.21875 34.90625 
L 20.21875 43.015625 
L 29.109375 43.015625 
Q 36.375 43.015625 40.234375 45.921875 
Q 44.09375 48.828125 44.09375 54.296875 
Q 44.09375 59.90625 40.109375 62.90625 
Q 36.140625 65.921875 28.71875 65.921875 
Q 24.65625 65.921875 20.015625 65.03125 
Q 15.375 64.15625 9.8125 62.3125 
L 9.8125 71.09375 
Q 15.4375 72.65625 20.34375 73.4375 
Q 25.25 74.21875 29.59375 74.21875 
Q 40.828125 74.21875 47.359375 69.109375 
Q 53.90625 64.015625 53.90625 55.328125 
Q 53.90625 49.265625 50.4375 45.09375 
Q 46.96875 40.921875 40.578125 39.3125 
z
" id="DejaVuSans-51"/>
      <path d="M 11.71875 12.40625 
L 22.015625 12.40625 
L 22.015625 4 
L 14.015625 -11.625 
L 7.71875 -11.625 
L 11.71875 4 
z
" id="DejaVuSans-44"/>
      <path d="M 25.390625 72.90625 
L 33.6875 72.90625 
L 8.296875 -9.28125 
L 0 -9.28125 
z
" id="DejaVuSans-47"/>
      <path d="M 37.109375 75.984375 
L 37.109375 68.5 
L 28.515625 68.5 
Q 23.6875 68.5 21.796875 66.546875 
Q 19.921875 64.59375 19.921875 59.515625 
L 19.921875 54.6875 
L 34.71875 54.6875 
L 34.71875 47.703125 
L 19.921875 47.703125 
L 19.921875 0 
L 10.890625 0 
L 10.890625 47.703125 
L 2.296875 47.703125 
L 2.296875 54.6875 
L 10.890625 54.6875 
L 10.890625 58.5 
Q 10.890625 67.625 15.140625 71.796875 
Q 19.390625 75.984375 28.609375 75.984375 
z
" id="DejaVuSans-102"/>
      <path d="M 5.515625 54.6875 
L 48.1875 54.6875 
L 48.1875 46.484375 
L 14.40625 7.171875 
L 48.1875 7.171875 
L 48.1875 0 
L 4.296875 0 
L 4.296875 8.203125 
L 38.09375 47.515625 
L 5.515625 47.515625 
z
" id="DejaVuSans-122"/>
     </defs>
     <use xlink:href="#DejaVuSans-108"/>
     <use x="27.783203" xlink:href="#DejaVuSans-99"/>
     <use x="82.763672" xlink:href="#DejaVuSans-109"/>
     <use x="180.175781" xlink:href="#DejaVuSans-115"/>
     <use x="232.275391" xlink:href="#DejaVuSans-45"/>
     <use x="268.359375" xlink:href="#DejaVuSans-50"/>
     <use x="331.982422" xlink:href="#DejaVuSans-48"/>
     <use x="395.605469" xlink:href="#DejaVuSans-49"/>
     <use x="459.228516" xlink:href="#DejaVuSans-55"/>
     <use x="522.851562" xlink:href="#DejaVuSans-45"/>
     <use x="558.935547" xlink:href="#DejaVuSans-48"/>
     <use x="622.558594" xlink:href="#DejaVuSans-51"/>
     <use x="686.181641" xlink:href="#DejaVuSans-45"/>
     <use x="722.265625" xlink:href="#DejaVuSans-50"/>
     <use x="785.888672" xlink:href="#DejaVuSans-49"/>
     <use x="849.511719" xlink:href="#DejaVuSans-32"/>
     <use x="881.298828" xlink:href="#DejaVuSans-40"/>
     <use x="920.3125" xlink:href="#DejaVuSans-50"/>
     <use x="983.935547" xlink:href="#DejaVuSans-52"/>
     <use x="1047.558594" xlink:href="#DejaVuSans-104"/>
     <use x="1110.9375" xlink:href="#DejaVuSans-44"/>
     <use x="1142.724609" xlink:href="#DejaVuSans-32"/>
     <use x="1174.511719" xlink:href="#DejaVuSans-52"/>
     <use x="1238.134766" xlink:href="#DejaVuSans-32"/>
     <use x="1269.921875" xlink:href="#DejaVuSans-116"/>
     <use x="1309.130859" xlink:href="#DejaVuSans-114"/>
     <use x="1350.244141" xlink:href="#DejaVuSans-105"/>
     <use x="1378.027344" xlink:href="#DejaVuSans-97"/>
     <use x="1439.306641" xlink:href="#DejaVuSans-108"/>
     <use x="1467.089844" xlink:href="#DejaVuSans-115"/>
     <use x="1519.189453" xlink:href="#DejaVuSans-47"/>
     <use x="1552.880859" xlink:href="#DejaVuSans-102"/>
     <use x="1588.085938" xlink:href="#DejaVuSans-117"/>
     <use x="1651.464844" xlink:href="#DejaVuSans-122"/>
     <use x="1703.955078" xlink:href="#DejaVuSans-122"/>
     <use x="1756.445312" xlink:href="#DejaVuSans-101"/>
     <use x="1817.96875" xlink:href="#DejaVuSans-114"/>
     <use x="1859.082031" xlink:href="#DejaVuSans-41"/>
    </g>
   </g>
   <g id="legend_1">
    <g id="line2d_29">
     <path d="M 771.568125 30.416563 
L 791.568125 30.416563 
" style="fill:none;"/>
    </g>
    <g id="line2d_30"/>
    <g id="text_22">
     <!-- fuzzer -->
     <g transform="translate(799.568125 33.916563)scale(0.1 -0.1)">
      <use xlink:href="#DejaVuSans-102"/>
      <use x="35.205078" xlink:href="#DejaVuSans-117"/>
      <use x="98.583984" xlink:href="#DejaVuSans-122"/>
      <use x="151.074219" xlink:href="#DejaVuSans-122"/>
      <use x="203.564453" xlink:href="#DejaVuSans-101"/>
      <use x="265.087891" xlink:href="#DejaVuSans-114"/>
     </g>
    </g>
    <g id="line2d_31">
     <path d="M 771.568125 45.094688 
L 791.568125 45.094688 
" style="fill:none;stroke:#aec7e8;stroke-linecap:square;stroke-width:1.5;"/>
    </g>
    <g id="line2d_32"/>
    <g id="text_23">
     <!-- start_1 -->
     <g transform="translate(799.568125 48.594688)scale(0.1 -0.1)">
      <defs>
       <path d="M 50.984375 -16.609375 
L 50.984375 -23.578125 
L -0.984375 -23.578125 
L -0.984375 -16.609375 
z
" id="DejaVuSans-95"/>
      </defs>
      <use xlink:href="#DejaVuSans-115"/>
      <use x="52.099609" xlink:href="#DejaVuSans-116"/>
      <use x="91.308594" xlink:href="#DejaVuSans-97"/>
      <use x="152.587891" xlink:href="#DejaVuSans-114"/>
      <use x="193.701172" xlink:href="#DejaVuSans-116"/>
      <use x="232.910156" xlink:href="#DejaVuSans-95"/>
      <use x="282.910156" xlink:href="#DejaVuSans-49"/>
     </g>
    </g>
    <g id="line2d_33">
     <path d="M 771.568125 60.050938 
L 791.568125 60.050938 
" style="fill:none;stroke:#ffbb78;stroke-linecap:square;stroke-width:1.5;"/>
    </g>
    <g id="line2d_34"/>
    <g id="text_24">
     <!-- start_3 -->
     <g transform="translate(799.568125 63.550938)scale(0.1 -0.1)">
      <use xlink:href="#DejaVuSans-115"/>
      <use x="52.099609" xlink:href="#DejaVuSans-116"/>
      <use x="91.308594" xlink:href="#DejaVuSans-97"/>
      <use x="152.587891" xlink:href="#DejaVuSans-114"/>
      <use x="193.701172" xlink:href="#DejaVuSans-116"/>
      <use x="232.910156" xlink:href="#DejaVuSans-95"/>
      <use x="282.910156" xlink:href="#DejaVuSans-51"/>
     </g>
    </g>
    <g id="line2d_35">
     <path d="M 771.568125 75.007188 
L 791.568125 75.007188 
" style="fill:none;stroke:#ff7f0e;stroke-linecap:square;stroke-width:1.5;"/>
    </g>
    <g id="line2d_36"/>
    <g id="text_25">
     <!-- start_2 -->
     <g transform="translate(799.568125 78.507188)scale(0.1 -0.1)">
      <use xlink:href="#DejaVuSans-115"/>
      <use x="52.099609" xlink:href="#DejaVuSans-116"/>
      <use x="91.308594" xlink:href="#DejaVuSans-97"/>
      <use x="152.587891" xlink:href="#DejaVuSans-114"/>
      <use x="193.701172" xlink:href="#DejaVuSans-116"/>
      <use x="232.910156" xlink:href="#DejaVuSans-95"/>
      <use x="282.910156" xlink:href="#DejaVuSans-50"/>
     </g>
    </g>
    <g id="line2d_37">
     <path d="M 771.568125 89.963438 
L 791.568125 89.963438 
" style="fill:none;stroke:#1f77b4;stroke-linecap:square;stroke-width:1.5;"/>
    </g>
    <g id="line2d_38"/>
    <g id="text_26">
     <!-- start_0 -->
     <g transform="translate(799.568125 93.463438)scale(0.1 -0.1)">
      <use xlink:href="#DejaVuSans-115"/>
      <use x="52.099609" xlink:href="#DejaVuSans-116"/>
      <use x="91.308594" xlink:href="#DejaVuSans-97"/>
      <use x="152.587891" xlink:href="#DejaVuSans-114"/>
      <use x="193.701172" xlink:href="#DejaVuSans-116"/>
      <use x="232.910156" xlink:href="#DejaVuSans-95"/>
      <use x="282.910156" xlink:href="#DejaVuSans-48"/>
     </g>
    </g>
   </g>
  </g>
 </g>
 <defs>
  <clipPath id="pbad30c7a7d">
   <rect height="266.112" width="714.24" x="53.328125" y="22.318125"/>
  </clipPath>
 </defs>
</svg>
