<?xml version="1.0" encoding="utf-8" standalone="no"?>
<!DOCTYPE svg PUBLIC "-//W3C//DTD SVG 1.1//EN"
  "http://www.w3.org/Graphics/SVG/1.1/DTD/svg11.dtd">
<!-- Created with matplotlib (https://matplotlib.org/) -->
<svg height="342.103489pt" version="1.1" viewBox="0 0 417.648125 342.103489" width="417.648125pt" xmlns="http://www.w3.org/2000/svg" xmlns:xlink="http://www.w3.org/1999/xlink">
 <metadata>
  <rdf:RDF xmlns:cc="http://creativecommons.org/ns#" xmlns:dc="http://purl.org/dc/elements/1.1/" xmlns:rdf="http://www.w3.org/1999/02/22-rdf-syntax-ns#">
   <cc:Work>
    <dc:type rdf:resource="http://purl.org/dc/dcmitype/StillImage"/>
    <dc:date>2020-08-23T21:00:42.682814</dc:date>
    <dc:format>image/svg+xml</dc:format>
    <dc:creator>
     <cc:Agent>
      <dc:title>Matplotlib v3.3.1, https://matplotlib.org/</dc:title>
     </cc:Agent>
    </dc:creator>
   </cc:Work>
  </rdf:RDF>
 </metadata>
 <defs>
  <style type="text/css">*{stroke-linecap:butt;stroke-linejoin:round;}</style>
 </defs>
 <g id="figure_1">
  <g id="patch_1">
   <path d="M 0 342.103489 
L 417.648125 342.103489 
L 417.648125 0 
L 0 0 
z
" style="fill:#ffffff;"/>
  </g>
  <g id="axes_1">
   <g id="patch_2">
    <path d="M 53.328125 288.430125 
L 410.448125 288.430125 
L 410.448125 22.318125 
L 53.328125 22.318125 
z
" style="fill:#ffffff;"/>
   </g>
   <g id="PolyCollection_1">
    <defs>
     <path d="M 100.687599 -130.470248 
L 95.248651 -130.470248 
L 94.787898 -132.034967 
L 94.268385 -133.599685 
L 93.68631 -135.164404 
L 93.038298 -136.729122 
L 92.321535 -138.293841 
L 91.533914 -139.85856 
L 90.674177 -141.423278 
L 89.742059 -142.987997 
L 88.738419 -144.552715 
L 87.665364 -146.117434 
L 86.526346 -147.682152 
L 85.326242 -149.246871 
L 84.071402 -150.811589 
L 82.76966 -152.376308 
L 81.430313 -153.941027 
L 80.064057 -155.505745 
L 78.682878 -157.070464 
L 77.299906 -158.635182 
L 75.929224 -160.199901 
L 74.585641 -161.764619 
L 73.284432 -163.329338 
L 72.041047 -164.894057 
L 70.870804 -166.458775 
L 69.788564 -168.023494 
L 68.808409 -169.588212 
L 67.94332 -171.152931 
L 67.204875 -172.717649 
L 66.602975 -174.282368 
L 66.145591 -175.847086 
L 65.838572 -177.411805 
L 65.685488 -178.976524 
L 65.687525 -180.541242 
L 65.843453 -182.105961 
L 66.14963 -183.670679 
L 66.600084 -185.235398 
L 67.186635 -186.800116 
L 67.899083 -188.364835 
L 68.725428 -189.929553 
L 69.652137 -191.494272 
L 70.664444 -193.058991 
L 71.746669 -194.623709 
L 72.88255 -196.188428 
L 74.055582 -197.753146 
L 75.249351 -199.317865 
L 76.447858 -200.882583 
L 77.635819 -202.447302 
L 78.798939 -204.01202 
L 79.924156 -205.576739 
L 80.999848 -207.141458 
L 82.016 -208.706176 
L 82.964325 -210.270895 
L 83.838348 -211.835613 
L 84.633445 -213.400332 
L 85.346837 -214.96505 
L 85.977553 -216.529769 
L 86.526346 -218.094487 
L 86.995582 -219.659206 
L 87.389101 -221.223925 
L 87.712044 -222.788643 
L 87.97067 -224.353362 
L 88.172154 -225.91808 
L 88.324369 -227.482799 
L 88.435674 -229.047517 
L 88.51469 -230.612236 
L 88.570087 -232.176954 
L 88.610385 -233.741673 
L 88.643754 -235.306392 
L 88.67785 -236.87111 
L 88.719659 -238.435829 
L 88.775372 -240.000547 
L 88.850282 -241.565266 
L 88.948712 -243.129984 
L 89.073974 -244.694703 
L 89.228349 -246.259421 
L 89.413102 -247.82414 
L 89.628519 -249.388859 
L 89.873967 -250.953577 
L 90.147979 -252.518296 
L 90.448353 -254.083014 
L 90.772262 -255.647733 
L 91.116376 -257.212451 
L 91.476988 -258.77717 
L 91.850143 -260.341889 
L 92.231759 -261.906607 
L 92.617743 -263.471326 
L 93.004101 -265.036044 
L 93.38703 -266.600763 
L 93.763001 -268.165481 
L 94.128822 -269.7302 
L 94.481687 -271.294918 
L 94.819211 -272.859637 
L 95.139449 -274.424356 
L 95.440895 -275.989074 
L 95.722476 -277.553793 
L 95.983533 -279.118511 
L 96.223787 -280.68323 
L 96.443308 -282.247948 
L 96.642468 -283.812667 
L 96.821902 -285.377385 
L 99.114348 -285.377385 
L 99.114348 -285.377385 
L 99.293782 -283.812667 
L 99.492942 -282.247948 
L 99.712463 -280.68323 
L 99.952717 -279.118511 
L 100.213774 -277.553793 
L 100.495355 -275.989074 
L 100.796801 -274.424356 
L 101.117039 -272.859637 
L 101.454563 -271.294918 
L 101.807428 -269.7302 
L 102.173249 -268.165481 
L 102.54922 -266.600763 
L 102.932149 -265.036044 
L 103.318507 -263.471326 
L 103.704491 -261.906607 
L 104.086107 -260.341889 
L 104.459262 -258.77717 
L 104.819874 -257.212451 
L 105.163988 -255.647733 
L 105.487897 -254.083014 
L 105.788271 -252.518296 
L 106.062283 -250.953577 
L 106.307731 -249.388859 
L 106.523148 -247.82414 
L 106.707901 -246.259421 
L 106.862276 -244.694703 
L 106.987538 -243.129984 
L 107.085968 -241.565266 
L 107.160878 -240.000547 
L 107.216591 -238.435829 
L 107.2584 -236.87111 
L 107.292496 -235.306392 
L 107.325865 -233.741673 
L 107.366163 -232.176954 
L 107.42156 -230.612236 
L 107.500576 -229.047517 
L 107.611881 -227.482799 
L 107.764096 -225.91808 
L 107.96558 -224.353362 
L 108.224206 -222.788643 
L 108.547149 -221.223925 
L 108.940668 -219.659206 
L 109.409904 -218.094487 
L 109.958697 -216.529769 
L 110.589413 -214.96505 
L 111.302805 -213.400332 
L 112.097902 -211.835613 
L 112.971925 -210.270895 
L 113.92025 -208.706176 
L 114.936402 -207.141458 
L 116.012094 -205.576739 
L 117.137311 -204.01202 
L 118.300431 -202.447302 
L 119.488392 -200.882583 
L 120.686899 -199.317865 
L 121.880668 -197.753146 
L 123.0537 -196.188428 
L 124.189581 -194.623709 
L 125.271806 -193.058991 
L 126.284113 -191.494272 
L 127.210822 -189.929553 
L 128.037167 -188.364835 
L 128.749615 -186.800116 
L 129.336166 -185.235398 
L 129.78662 -183.670679 
L 130.092797 -182.105961 
L 130.248725 -180.541242 
L 130.250762 -178.976524 
L 130.097678 -177.411805 
L 129.790659 -175.847086 
L 129.333275 -174.282368 
L 128.731375 -172.717649 
L 127.99293 -171.152931 
L 127.127841 -169.588212 
L 126.147686 -168.023494 
L 125.065446 -166.458775 
L 123.895203 -164.894057 
L 122.651818 -163.329338 
L 121.350609 -161.764619 
L 120.007026 -160.199901 
L 118.636344 -158.635182 
L 117.253372 -157.070464 
L 115.872193 -155.505745 
L 114.505937 -153.941027 
L 113.16659 -152.376308 
L 111.864848 -150.811589 
L 110.610008 -149.246871 
L 109.409904 -147.682152 
L 108.270886 -146.117434 
L 107.197831 -144.552715 
L 106.194191 -142.987997 
L 105.262073 -141.423278 
L 104.402336 -139.85856 
L 103.614715 -138.293841 
L 102.897952 -136.729122 
L 102.24994 -135.164404 
L 101.667865 -133.599685 
L 101.148352 -132.034967 
L 100.687599 -130.470248 
z
" id="m48d3c703d3" style="stroke:#3f3f3f;stroke-width:1.5;"/>
    </defs>
    <g clip-path="url(#pf8cd812080)">
     <use style="fill:#e1812c;stroke:#3f3f3f;stroke-width:1.5;" x="0" xlink:href="#m48d3c703d3" y="342.103489"/>
    </g>
   </g>
   <g id="PolyCollection_2">
    <defs>
     <path d="M 189.167044 -104.45911 
L 185.329206 -104.45911 
L 185.009855 -106.511941 
L 184.650745 -108.564772 
L 184.24941 -110.617603 
L 183.803668 -112.670434 
L 183.3117 -114.723264 
L 182.772138 -116.776095 
L 182.184149 -118.828926 
L 181.547516 -120.881757 
L 180.862718 -122.934588 
L 180.130994 -124.987419 
L 179.354402 -127.04025 
L 178.535856 -129.09308 
L 177.679157 -131.145911 
L 176.788992 -133.198742 
L 175.870927 -135.251573 
L 174.93136 -137.304404 
L 173.97747 -139.357235 
L 173.017135 -141.410065 
L 172.058825 -143.462896 
L 171.111486 -145.515727 
L 170.184396 -147.568558 
L 169.287018 -149.621389 
L 168.428831 -151.67422 
L 167.619163 -153.727051 
L 166.867015 -155.779881 
L 166.180887 -157.832712 
L 165.568619 -159.885543 
L 165.037223 -161.938374 
L 164.592749 -163.991205 
L 164.240155 -166.044036 
L 163.9832 -168.096867 
L 163.824366 -170.149697 
L 163.764795 -172.202528 
L 163.804262 -174.255359 
L 163.941169 -176.30819 
L 164.172569 -178.361021 
L 164.494218 -180.413852 
L 164.90065 -182.466682 
L 165.385279 -184.519513 
L 165.940522 -186.572344 
L 166.557942 -188.625175 
L 167.228409 -190.678006 
L 167.942269 -192.730837 
L 168.689532 -194.783668 
L 169.460055 -196.836498 
L 170.243736 -198.889329 
L 171.030698 -200.94216 
L 171.811472 -202.994991 
L 172.577166 -205.047822 
L 173.319622 -207.100653 
L 174.031551 -209.153483 
L 174.706656 -211.206314 
L 175.339717 -213.259145 
L 175.926667 -215.311976 
L 176.464629 -217.364807 
L 176.951927 -219.417638 
L 177.388073 -221.470469 
L 177.773725 -223.523299 
L 178.110617 -225.57613 
L 178.401467 -227.628961 
L 178.649862 -229.681792 
L 178.860129 -231.734623 
L 179.037188 -233.787454 
L 179.186395 -235.840284 
L 179.313388 -237.893115 
L 179.423916 -239.945946 
L 179.523689 -241.998777 
L 179.618227 -244.051608 
L 179.712721 -246.104439 
L 179.811911 -248.15727 
L 179.919987 -250.2101 
L 180.040503 -252.262931 
L 180.17632 -254.315762 
L 180.32957 -256.368593 
L 180.501642 -258.421424 
L 180.693194 -260.474255 
L 180.90418 -262.527085 
L 181.133903 -264.579916 
L 181.381081 -266.632747 
L 181.643921 -268.685578 
L 181.920212 -270.738409 
L 182.207415 -272.79124 
L 182.502761 -274.844071 
L 182.803349 -276.896901 
L 183.106232 -278.949732 
L 183.408508 -281.002563 
L 183.707393 -283.055394 
L 184.000288 -285.108225 
L 184.28483 -287.161056 
L 184.558938 -289.213886 
L 184.82084 -291.266717 
L 185.069089 -293.319548 
L 185.302568 -295.372379 
L 185.520488 -297.42521 
L 185.722372 -299.478041 
L 185.908033 -301.530872 
L 186.07755 -303.583702 
L 186.231232 -305.636533 
L 186.369588 -307.689364 
L 188.126662 -307.689364 
L 188.126662 -307.689364 
L 188.265018 -305.636533 
L 188.4187 -303.583702 
L 188.588217 -301.530872 
L 188.773878 -299.478041 
L 188.975762 -297.42521 
L 189.193682 -295.372379 
L 189.427161 -293.319548 
L 189.67541 -291.266717 
L 189.937312 -289.213886 
L 190.21142 -287.161056 
L 190.495962 -285.108225 
L 190.788857 -283.055394 
L 191.087742 -281.002563 
L 191.390018 -278.949732 
L 191.692901 -276.896901 
L 191.993489 -274.844071 
L 192.288835 -272.79124 
L 192.576038 -270.738409 
L 192.852329 -268.685578 
L 193.115169 -266.632747 
L 193.362347 -264.579916 
L 193.59207 -262.527085 
L 193.803056 -260.474255 
L 193.994608 -258.421424 
L 194.16668 -256.368593 
L 194.31993 -254.315762 
L 194.455747 -252.262931 
L 194.576263 -250.2101 
L 194.684339 -248.15727 
L 194.783529 -246.104439 
L 194.878023 -244.051608 
L 194.972561 -241.998777 
L 195.072334 -239.945946 
L 195.182862 -237.893115 
L 195.309855 -235.840284 
L 195.459062 -233.787454 
L 195.636121 -231.734623 
L 195.846388 -229.681792 
L 196.094783 -227.628961 
L 196.385633 -225.57613 
L 196.722525 -223.523299 
L 197.108177 -221.470469 
L 197.544323 -219.417638 
L 198.031621 -217.364807 
L 198.569583 -215.311976 
L 199.156533 -213.259145 
L 199.789594 -211.206314 
L 200.464699 -209.153483 
L 201.176628 -207.100653 
L 201.919084 -205.047822 
L 202.684778 -202.994991 
L 203.465552 -200.94216 
L 204.252514 -198.889329 
L 205.036195 -196.836498 
L 205.806718 -194.783668 
L 206.553981 -192.730837 
L 207.267841 -190.678006 
L 207.938308 -188.625175 
L 208.555728 -186.572344 
L 209.110971 -184.519513 
L 209.5956 -182.466682 
L 210.002032 -180.413852 
L 210.323681 -178.361021 
L 210.555081 -176.30819 
L 210.691988 -174.255359 
L 210.731455 -172.202528 
L 210.671884 -170.149697 
L 210.51305 -168.096867 
L 210.256095 -166.044036 
L 209.903501 -163.991205 
L 209.459027 -161.938374 
L 208.927631 -159.885543 
L 208.315363 -157.832712 
L 207.629235 -155.779881 
L 206.877087 -153.727051 
L 206.067419 -151.67422 
L 205.209232 -149.621389 
L 204.311854 -147.568558 
L 203.384764 -145.515727 
L 202.437425 -143.462896 
L 201.479115 -141.410065 
L 200.51878 -139.357235 
L 199.56489 -137.304404 
L 198.625323 -135.251573 
L 197.707258 -133.198742 
L 196.817093 -131.145911 
L 195.960394 -129.09308 
L 195.141848 -127.04025 
L 194.365256 -124.987419 
L 193.633532 -122.934588 
L 192.948734 -120.881757 
L 192.312101 -118.828926 
L 191.724112 -116.776095 
L 191.18455 -114.723264 
L 190.692582 -112.670434 
L 190.24684 -110.617603 
L 189.845505 -108.564772 
L 189.486395 -106.511941 
L 189.167044 -104.45911 
z
" id="m5371b5ac26" style="stroke:#3f3f3f;stroke-width:1.5;"/>
    </defs>
    <g clip-path="url(#pf8cd812080)">
     <use style="fill:#b5c8e1;stroke:#3f3f3f;stroke-width:1.5;" x="0" xlink:href="#m5371b5ac26" y="342.103489"/>
    </g>
   </g>
   <g id="PolyCollection_3">
    <defs>
     <path d="M 277.361517 -65.769364 
L 275.694733 -65.769364 
L 275.555054 -68.073219 
L 275.398376 -70.377075 
L 275.223811 -72.68093 
L 275.030628 -74.984786 
L 274.818272 -77.288641 
L 274.5864 -79.592496 
L 274.334899 -81.896352 
L 274.063901 -84.200207 
L 273.773798 -86.504063 
L 273.465234 -88.807918 
L 273.139101 -91.111773 
L 272.79652 -93.415629 
L 272.438811 -95.719484 
L 272.067455 -98.023339 
L 271.68405 -100.327195 
L 271.290259 -102.63105 
L 270.887756 -104.934906 
L 270.478168 -107.238761 
L 270.063023 -109.542616 
L 269.643697 -111.846472 
L 269.221376 -114.150327 
L 268.797027 -116.454183 
L 268.371373 -118.758038 
L 267.944899 -121.061893 
L 267.51786 -123.365749 
L 267.09031 -125.669604 
L 266.662147 -127.97346 
L 266.233169 -130.277315 
L 265.803143 -132.58117 
L 265.371876 -134.885026 
L 264.939293 -137.188881 
L 264.505514 -139.492736 
L 264.070919 -141.796592 
L 263.636214 -144.100447 
L 263.202469 -146.404303 
L 262.771149 -148.708158 
L 262.344121 -151.012013 
L 261.923641 -153.315869 
L 261.512323 -155.619724 
L 261.113084 -157.92358 
L 260.729074 -160.227435 
L 260.363595 -162.53129 
L 260.020006 -164.835146 
L 259.701626 -167.139001 
L 259.411633 -169.442857 
L 259.152977 -171.746712 
L 258.92829 -174.050567 
L 258.739819 -176.354423 
L 258.58937 -178.658278 
L 258.478275 -180.962133 
L 258.407372 -183.265989 
L 258.377016 -185.569844 
L 258.387091 -187.8737 
L 258.437058 -190.177555 
L 258.526002 -192.48141 
L 258.652695 -194.785266 
L 258.815661 -197.089121 
L 259.013252 -199.392977 
L 259.243705 -201.696832 
L 259.505214 -204.000687 
L 259.795974 -206.304543 
L 260.114231 -208.608398 
L 260.458301 -210.912254 
L 260.826597 -213.216109 
L 261.217619 -215.519964 
L 261.629956 -217.82382 
L 262.062257 -220.127675 
L 262.513206 -222.43153 
L 262.981487 -224.735386 
L 263.465747 -227.039241 
L 263.964556 -229.343097 
L 264.476379 -231.646952 
L 264.999542 -233.950807 
L 265.532213 -236.254663 
L 266.072393 -238.558518 
L 266.617912 -240.862374 
L 267.166439 -243.166229 
L 267.715505 -245.470084 
L 268.26253 -247.77394 
L 268.804863 -250.077795 
L 269.339828 -252.381651 
L 269.864769 -254.685506 
L 270.377107 -256.989361 
L 270.874389 -259.293217 
L 271.354334 -261.597072 
L 271.814884 -263.900927 
L 272.254237 -266.204783 
L 272.67088 -268.508638 
L 273.063612 -270.812494 
L 273.431554 -273.116349 
L 273.774157 -275.420204 
L 274.091193 -277.72406 
L 274.382746 -280.027915 
L 274.649187 -282.331771 
L 274.891147 -284.635626 
L 275.109491 -286.939481 
L 275.305277 -289.243337 
L 275.479722 -291.547192 
L 275.634165 -293.851047 
L 277.422085 -293.851047 
L 277.422085 -293.851047 
L 277.576528 -291.547192 
L 277.750973 -289.243337 
L 277.946759 -286.939481 
L 278.165103 -284.635626 
L 278.407063 -282.331771 
L 278.673504 -280.027915 
L 278.965057 -277.72406 
L 279.282093 -275.420204 
L 279.624696 -273.116349 
L 279.992638 -270.812494 
L 280.38537 -268.508638 
L 280.802013 -266.204783 
L 281.241366 -263.900927 
L 281.701916 -261.597072 
L 282.181861 -259.293217 
L 282.679143 -256.989361 
L 283.191481 -254.685506 
L 283.716422 -252.381651 
L 284.251387 -250.077795 
L 284.79372 -247.77394 
L 285.340745 -245.470084 
L 285.889811 -243.166229 
L 286.438338 -240.862374 
L 286.983857 -238.558518 
L 287.524037 -236.254663 
L 288.056708 -233.950807 
L 288.579871 -231.646952 
L 289.091694 -229.343097 
L 289.590503 -227.039241 
L 290.074763 -224.735386 
L 290.543044 -222.43153 
L 290.993993 -220.127675 
L 291.426294 -217.82382 
L 291.838631 -215.519964 
L 292.229653 -213.216109 
L 292.597949 -210.912254 
L 292.942019 -208.608398 
L 293.260276 -206.304543 
L 293.551036 -204.000687 
L 293.812545 -201.696832 
L 294.042998 -199.392977 
L 294.240589 -197.089121 
L 294.403555 -194.785266 
L 294.530248 -192.48141 
L 294.619192 -190.177555 
L 294.669159 -187.8737 
L 294.679234 -185.569844 
L 294.648878 -183.265989 
L 294.577975 -180.962133 
L 294.46688 -178.658278 
L 294.316431 -176.354423 
L 294.12796 -174.050567 
L 293.903273 -171.746712 
L 293.644617 -169.442857 
L 293.354624 -167.139001 
L 293.036244 -164.835146 
L 292.692655 -162.53129 
L 292.327176 -160.227435 
L 291.943166 -157.92358 
L 291.543927 -155.619724 
L 291.132609 -153.315869 
L 290.712129 -151.012013 
L 290.285101 -148.708158 
L 289.853781 -146.404303 
L 289.420036 -144.100447 
L 288.985331 -141.796592 
L 288.550736 -139.492736 
L 288.116957 -137.188881 
L 287.684374 -134.885026 
L 287.253107 -132.58117 
L 286.823081 -130.277315 
L 286.394103 -127.97346 
L 285.96594 -125.669604 
L 285.53839 -123.365749 
L 285.111351 -121.061893 
L 284.684877 -118.758038 
L 284.259223 -116.454183 
L 283.834874 -114.150327 
L 283.412553 -111.846472 
L 282.993227 -109.542616 
L 282.578082 -107.238761 
L 282.168494 -104.934906 
L 281.765991 -102.63105 
L 281.3722 -100.327195 
L 280.988795 -98.023339 
L 280.617439 -95.719484 
L 280.25973 -93.415629 
L 279.917149 -91.111773 
L 279.591016 -88.807918 
L 279.282452 -86.504063 
L 278.992349 -84.200207 
L 278.721351 -81.896352 
L 278.46985 -79.592496 
L 278.237978 -77.288641 
L 278.025622 -74.984786 
L 277.832439 -72.68093 
L 277.657874 -70.377075 
L 277.501196 -68.073219 
L 277.361517 -65.769364 
z
" id="m742a326d35" style="stroke:#3f3f3f;stroke-width:1.5;"/>
    </defs>
    <g clip-path="url(#pf8cd812080)">
     <use style="fill:#3274a1;stroke:#3f3f3f;stroke-width:1.5;" x="0" xlink:href="#m742a326d35" y="342.103489"/>
    </g>
   </g>
   <g id="PolyCollection_4">
    <defs>
     <path d="M 369.426296 -120.987143 
L 362.189954 -120.987143 
L 361.611477 -122.239543 
L 360.96556 -123.491942 
L 360.248933 -124.744341 
L 359.458976 -125.996741 
L 358.593867 -127.24914 
L 357.652723 -128.50154 
L 356.635743 -129.753939 
L 355.544323 -131.006338 
L 354.38117 -132.258738 
L 353.15038 -133.511137 
L 351.857492 -134.763537 
L 350.509508 -136.015936 
L 349.114874 -137.268336 
L 347.683422 -138.520735 
L 346.22627 -139.773134 
L 344.755677 -141.025534 
L 343.284865 -142.277933 
L 341.827795 -143.530333 
L 340.398918 -144.782732 
L 339.012898 -146.035131 
L 337.684317 -147.287531 
L 336.427368 -148.53993 
L 335.255556 -149.79233 
L 334.1814 -151.044729 
L 333.216161 -152.297128 
L 332.369596 -153.549528 
L 331.649747 -154.801927 
L 331.062779 -156.054327 
L 330.612858 -157.306726 
L 330.302093 -158.559125 
L 330.130515 -159.811525 
L 330.096125 -161.063924 
L 330.194981 -162.316324 
L 330.42133 -163.568723 
L 330.76779 -164.821122 
L 331.22555 -166.073522 
L 331.784602 -167.325921 
L 332.433992 -168.578321 
L 333.162071 -169.83072 
L 333.956754 -171.083119 
L 334.805762 -172.335519 
L 335.696861 -173.587918 
L 336.618076 -174.840318 
L 337.557885 -176.092717 
L 338.505387 -177.345116 
L 339.450445 -178.597516 
L 340.383807 -179.849915 
L 341.297192 -181.102315 
L 342.183358 -182.354714 
L 343.036154 -183.607113 
L 343.850536 -184.859513 
L 344.622583 -186.111912 
L 345.349481 -187.364312 
L 346.029506 -188.616711 
L 346.661982 -189.869111 
L 347.247237 -191.12151 
L 347.786541 -192.373909 
L 348.282034 -193.626309 
L 348.736647 -194.878708 
L 349.154004 -196.131108 
L 349.538325 -197.383507 
L 349.89431 -198.635906 
L 350.227023 -199.888306 
L 350.541764 -201.140705 
L 350.843936 -202.393105 
L 351.138919 -203.645504 
L 351.431933 -204.897903 
L 351.727918 -206.150303 
L 352.03141 -207.402702 
L 352.346441 -208.655102 
L 352.676441 -209.907501 
L 353.02417 -211.1599 
L 353.391657 -212.4123 
L 353.780174 -213.664699 
L 354.190221 -214.917099 
L 354.621537 -216.169498 
L 355.073137 -217.421897 
L 355.543366 -218.674297 
L 356.029965 -219.926696 
L 356.530163 -221.179096 
L 357.040769 -222.431495 
L 357.558282 -223.683894 
L 358.078998 -224.936294 
L 358.599115 -226.188693 
L 359.114845 -227.441093 
L 359.622506 -228.693492 
L 360.118614 -229.945891 
L 360.599957 -231.198291 
L 361.06366 -232.45069 
L 361.507229 -233.70309 
L 361.928591 -234.955489 
L 362.326103 -236.207889 
L 362.698567 -237.460288 
L 363.045211 -238.712687 
L 363.365677 -239.965087 
L 363.65999 -241.217486 
L 363.928519 -242.469886 
L 364.17194 -243.722285 
L 364.391186 -244.974684 
L 367.225064 -244.974684 
L 367.225064 -244.974684 
L 367.44431 -243.722285 
L 367.687731 -242.469886 
L 367.95626 -241.217486 
L 368.250573 -239.965087 
L 368.571039 -238.712687 
L 368.917683 -237.460288 
L 369.290147 -236.207889 
L 369.687659 -234.955489 
L 370.109021 -233.70309 
L 370.55259 -232.45069 
L 371.016293 -231.198291 
L 371.497636 -229.945891 
L 371.993744 -228.693492 
L 372.501405 -227.441093 
L 373.017135 -226.188693 
L 373.537252 -224.936294 
L 374.057968 -223.683894 
L 374.575481 -222.431495 
L 375.086087 -221.179096 
L 375.586285 -219.926696 
L 376.072884 -218.674297 
L 376.543113 -217.421897 
L 376.994713 -216.169498 
L 377.426029 -214.917099 
L 377.836076 -213.664699 
L 378.224593 -212.4123 
L 378.59208 -211.1599 
L 378.939809 -209.907501 
L 379.269809 -208.655102 
L 379.58484 -207.402702 
L 379.888332 -206.150303 
L 380.184317 -204.897903 
L 380.477331 -203.645504 
L 380.772314 -202.393105 
L 381.074486 -201.140705 
L 381.389227 -199.888306 
L 381.72194 -198.635906 
L 382.077925 -197.383507 
L 382.462246 -196.131108 
L 382.879603 -194.878708 
L 383.334216 -193.626309 
L 383.829709 -192.373909 
L 384.369013 -191.12151 
L 384.954268 -189.869111 
L 385.586744 -188.616711 
L 386.266769 -187.364312 
L 386.993667 -186.111912 
L 387.765714 -184.859513 
L 388.580096 -183.607113 
L 389.432892 -182.354714 
L 390.319058 -181.102315 
L 391.232443 -179.849915 
L 392.165805 -178.597516 
L 393.110863 -177.345116 
L 394.058365 -176.092717 
L 394.998174 -174.840318 
L 395.919389 -173.587918 
L 396.810488 -172.335519 
L 397.659496 -171.083119 
L 398.454179 -169.83072 
L 399.182258 -168.578321 
L 399.831648 -167.325921 
L 400.3907 -166.073522 
L 400.84846 -164.821122 
L 401.19492 -163.568723 
L 401.421269 -162.316324 
L 401.520125 -161.063924 
L 401.485735 -159.811525 
L 401.314157 -158.559125 
L 401.003392 -157.306726 
L 400.553471 -156.054327 
L 399.966503 -154.801927 
L 399.246654 -153.549528 
L 398.400089 -152.297128 
L 397.43485 -151.044729 
L 396.360694 -149.79233 
L 395.188882 -148.53993 
L 393.931933 -147.287531 
L 392.603352 -146.035131 
L 391.217332 -144.782732 
L 389.788455 -143.530333 
L 388.331385 -142.277933 
L 386.860573 -141.025534 
L 385.38998 -139.773134 
L 383.932828 -138.520735 
L 382.501376 -137.268336 
L 381.106742 -136.015936 
L 379.758758 -134.763537 
L 378.46587 -133.511137 
L 377.23508 -132.258738 
L 376.071927 -131.006338 
L 374.980507 -129.753939 
L 373.963527 -128.50154 
L 373.022383 -127.24914 
L 372.157274 -125.996741 
L 371.367317 -124.744341 
L 370.65069 -123.491942 
L 370.004773 -122.239543 
L 369.426296 -120.987143 
z
" id="m9b6162c23a" style="stroke:#3f3f3f;stroke-width:1.5;"/>
    </defs>
    <g clip-path="url(#pf8cd812080)">
     <use style="fill:#eebb89;stroke:#3f3f3f;stroke-width:1.5;" x="0" xlink:href="#m9b6162c23a" y="342.103489"/>
    </g>
   </g>
   <g id="matplotlib.axis_1">
    <g id="xtick_1">
     <g id="line2d_1">
      <defs>
       <path d="M 0 0 
L 0 3.5 
" id="m47d64e1cac" style="stroke:#000000;stroke-width:0.8;"/>
      </defs>
      <g>
       <use style="stroke:#000000;stroke-width:0.8;" x="97.968125" xlink:href="#m47d64e1cac" y="288.430125"/>
      </g>
     </g>
     <g id="text_1">
      <!-- start_2 -->
      <g transform="translate(66.780085 319.183439)rotate(-30)scale(0.1 -0.1)">
       <defs>
        <path d="M 44.28125 53.078125 
L 44.28125 44.578125 
Q 40.484375 46.53125 36.375 47.5 
Q 32.28125 48.484375 27.875 48.484375 
Q 21.1875 48.484375 17.84375 46.4375 
Q 14.5 44.390625 14.5 40.28125 
Q 14.5 37.15625 16.890625 35.375 
Q 19.28125 33.59375 26.515625 31.984375 
L 29.59375 31.296875 
Q 39.15625 29.25 43.1875 25.515625 
Q 47.21875 21.78125 47.21875 15.09375 
Q 47.21875 7.46875 41.1875 3.015625 
Q 35.15625 -1.421875 24.609375 -1.421875 
Q 20.21875 -1.421875 15.453125 -0.5625 
Q 10.6875 0.296875 5.421875 2 
L 5.421875 11.28125 
Q 10.40625 8.6875 15.234375 7.390625 
Q 20.0625 6.109375 24.8125 6.109375 
Q 31.15625 6.109375 34.5625 8.28125 
Q 37.984375 10.453125 37.984375 14.40625 
Q 37.984375 18.0625 35.515625 20.015625 
Q 33.0625 21.96875 24.703125 23.78125 
L 21.578125 24.515625 
Q 13.234375 26.265625 9.515625 29.90625 
Q 5.8125 33.546875 5.8125 39.890625 
Q 5.8125 47.609375 11.28125 51.796875 
Q 16.75 56 26.8125 56 
Q 31.78125 56 36.171875 55.265625 
Q 40.578125 54.546875 44.28125 53.078125 
z
" id="DejaVuSans-115"/>
        <path d="M 18.3125 70.21875 
L 18.3125 54.6875 
L 36.8125 54.6875 
L 36.8125 47.703125 
L 18.3125 47.703125 
L 18.3125 18.015625 
Q 18.3125 11.328125 20.140625 9.421875 
Q 21.96875 7.515625 27.59375 7.515625 
L 36.8125 7.515625 
L 36.8125 0 
L 27.59375 0 
Q 17.1875 0 13.234375 3.875 
Q 9.28125 7.765625 9.28125 18.015625 
L 9.28125 47.703125 
L 2.6875 47.703125 
L 2.6875 54.6875 
L 9.28125 54.6875 
L 9.28125 70.21875 
z
" id="DejaVuSans-116"/>
        <path d="M 34.28125 27.484375 
Q 23.390625 27.484375 19.1875 25 
Q 14.984375 22.515625 14.984375 16.5 
Q 14.984375 11.71875 18.140625 8.90625 
Q 21.296875 6.109375 26.703125 6.109375 
Q 34.1875 6.109375 38.703125 11.40625 
Q 43.21875 16.703125 43.21875 25.484375 
L 43.21875 27.484375 
z
M 52.203125 31.203125 
L 52.203125 0 
L 43.21875 0 
L 43.21875 8.296875 
Q 40.140625 3.328125 35.546875 0.953125 
Q 30.953125 -1.421875 24.3125 -1.421875 
Q 15.921875 -1.421875 10.953125 3.296875 
Q 6 8.015625 6 15.921875 
Q 6 25.140625 12.171875 29.828125 
Q 18.359375 34.515625 30.609375 34.515625 
L 43.21875 34.515625 
L 43.21875 35.40625 
Q 43.21875 41.609375 39.140625 45 
Q 35.0625 48.390625 27.6875 48.390625 
Q 23 48.390625 18.546875 47.265625 
Q 14.109375 46.140625 10.015625 43.890625 
L 10.015625 52.203125 
Q 14.9375 54.109375 19.578125 55.046875 
Q 24.21875 56 28.609375 56 
Q 40.484375 56 46.34375 49.84375 
Q 52.203125 43.703125 52.203125 31.203125 
z
" id="DejaVuSans-97"/>
        <path d="M 41.109375 46.296875 
Q 39.59375 47.171875 37.8125 47.578125 
Q 36.03125 48 33.890625 48 
Q 26.265625 48 22.1875 43.046875 
Q 18.109375 38.09375 18.109375 28.8125 
L 18.109375 0 
L 9.078125 0 
L 9.078125 54.6875 
L 18.109375 54.6875 
L 18.109375 46.1875 
Q 20.953125 51.171875 25.484375 53.578125 
Q 30.03125 56 36.53125 56 
Q 37.453125 56 38.578125 55.875 
Q 39.703125 55.765625 41.0625 55.515625 
z
" id="DejaVuSans-114"/>
        <path d="M 50.984375 -16.609375 
L 50.984375 -23.578125 
L -0.984375 -23.578125 
L -0.984375 -16.609375 
z
" id="DejaVuSans-95"/>
        <path d="M 19.1875 8.296875 
L 53.609375 8.296875 
L 53.609375 0 
L 7.328125 0 
L 7.328125 8.296875 
Q 12.9375 14.109375 22.625 23.890625 
Q 32.328125 33.6875 34.8125 36.53125 
Q 39.546875 41.84375 41.421875 45.53125 
Q 43.3125 49.21875 43.3125 52.78125 
Q 43.3125 58.59375 39.234375 62.25 
Q 35.15625 65.921875 28.609375 65.921875 
Q 23.96875 65.921875 18.8125 64.3125 
Q 13.671875 62.703125 7.8125 59.421875 
L 7.8125 69.390625 
Q 13.765625 71.78125 18.9375 73 
Q 24.125 74.21875 28.421875 74.21875 
Q 39.75 74.21875 46.484375 68.546875 
Q 53.21875 62.890625 53.21875 53.421875 
Q 53.21875 48.921875 51.53125 44.890625 
Q 49.859375 40.875 45.40625 35.40625 
Q 44.1875 33.984375 37.640625 27.21875 
Q 31.109375 20.453125 19.1875 8.296875 
z
" id="DejaVuSans-50"/>
       </defs>
       <use xlink:href="#DejaVuSans-115"/>
       <use x="52.099609" xlink:href="#DejaVuSans-116"/>
       <use x="91.308594" xlink:href="#DejaVuSans-97"/>
       <use x="152.587891" xlink:href="#DejaVuSans-114"/>
       <use x="193.701172" xlink:href="#DejaVuSans-116"/>
       <use x="232.910156" xlink:href="#DejaVuSans-95"/>
       <use x="282.910156" xlink:href="#DejaVuSans-50"/>
      </g>
     </g>
    </g>
    <g id="xtick_2">
     <g id="line2d_2">
      <g>
       <use style="stroke:#000000;stroke-width:0.8;" x="187.248125" xlink:href="#m47d64e1cac" y="288.430125"/>
      </g>
     </g>
     <g id="text_2">
      <!-- start_1 -->
      <g transform="translate(156.060085 319.095483)rotate(-30)scale(0.1 -0.1)">
       <defs>
        <path d="M 12.40625 8.296875 
L 28.515625 8.296875 
L 28.515625 63.921875 
L 10.984375 60.40625 
L 10.984375 69.390625 
L 28.421875 72.90625 
L 38.28125 72.90625 
L 38.28125 8.296875 
L 54.390625 8.296875 
L 54.390625 0 
L 12.40625 0 
z
" id="DejaVuSans-49"/>
       </defs>
       <use xlink:href="#DejaVuSans-115"/>
       <use x="52.099609" xlink:href="#DejaVuSans-116"/>
       <use x="91.308594" xlink:href="#DejaVuSans-97"/>
       <use x="152.587891" xlink:href="#DejaVuSans-114"/>
       <use x="193.701172" xlink:href="#DejaVuSans-116"/>
       <use x="232.910156" xlink:href="#DejaVuSans-95"/>
       <use x="282.910156" xlink:href="#DejaVuSans-49"/>
      </g>
     </g>
    </g>
    <g id="xtick_3">
     <g id="line2d_3">
      <g>
       <use style="stroke:#000000;stroke-width:0.8;" x="276.528125" xlink:href="#m47d64e1cac" y="288.430125"/>
      </g>
     </g>
     <g id="text_3">
      <!-- start_0 -->
      <g transform="translate(245.340085 319.183439)rotate(-30)scale(0.1 -0.1)">
       <defs>
        <path d="M 31.78125 66.40625 
Q 24.171875 66.40625 20.328125 58.90625 
Q 16.5 51.421875 16.5 36.375 
Q 16.5 21.390625 20.328125 13.890625 
Q 24.171875 6.390625 31.78125 6.390625 
Q 39.453125 6.390625 43.28125 13.890625 
Q 47.125 21.390625 47.125 36.375 
Q 47.125 51.421875 43.28125 58.90625 
Q 39.453125 66.40625 31.78125 66.40625 
z
M 31.78125 74.21875 
Q 44.046875 74.21875 50.515625 64.515625 
Q 56.984375 54.828125 56.984375 36.375 
Q 56.984375 17.96875 50.515625 8.265625 
Q 44.046875 -1.421875 31.78125 -1.421875 
Q 19.53125 -1.421875 13.0625 8.265625 
Q 6.59375 17.96875 6.59375 36.375 
Q 6.59375 54.828125 13.0625 64.515625 
Q 19.53125 74.21875 31.78125 74.21875 
z
" id="DejaVuSans-48"/>
       </defs>
       <use xlink:href="#DejaVuSans-115"/>
       <use x="52.099609" xlink:href="#DejaVuSans-116"/>
       <use x="91.308594" xlink:href="#DejaVuSans-97"/>
       <use x="152.587891" xlink:href="#DejaVuSans-114"/>
       <use x="193.701172" xlink:href="#DejaVuSans-116"/>
       <use x="232.910156" xlink:href="#DejaVuSans-95"/>
       <use x="282.910156" xlink:href="#DejaVuSans-48"/>
      </g>
     </g>
    </g>
    <g id="xtick_4">
     <g id="line2d_4">
      <g>
       <use style="stroke:#000000;stroke-width:0.8;" x="365.808125" xlink:href="#m47d64e1cac" y="288.430125"/>
      </g>
     </g>
     <g id="text_4">
      <!-- start_3 -->
      <g transform="translate(334.620085 319.183439)rotate(-30)scale(0.1 -0.1)">
       <defs>
        <path d="M 40.578125 39.3125 
Q 47.65625 37.796875 51.625 33 
Q 55.609375 28.21875 55.609375 21.1875 
Q 55.609375 10.40625 48.1875 4.484375 
Q 40.765625 -1.421875 27.09375 -1.421875 
Q 22.515625 -1.421875 17.65625 -0.515625 
Q 12.796875 0.390625 7.625 2.203125 
L 7.625 11.71875 
Q 11.71875 9.328125 16.59375 8.109375 
Q 21.484375 6.890625 26.8125 6.890625 
Q 36.078125 6.890625 40.9375 10.546875 
Q 45.796875 14.203125 45.796875 21.1875 
Q 45.796875 27.640625 41.28125 31.265625 
Q 36.765625 34.90625 28.71875 34.90625 
L 20.21875 34.90625 
L 20.21875 43.015625 
L 29.109375 43.015625 
Q 36.375 43.015625 40.234375 45.921875 
Q 44.09375 48.828125 44.09375 54.296875 
Q 44.09375 59.90625 40.109375 62.90625 
Q 36.140625 65.921875 28.71875 65.921875 
Q 24.65625 65.921875 20.015625 65.03125 
Q 15.375 64.15625 9.8125 62.3125 
L 9.8125 71.09375 
Q 15.4375 72.65625 20.34375 73.4375 
Q 25.25 74.21875 29.59375 74.21875 
Q 40.828125 74.21875 47.359375 69.109375 
Q 53.90625 64.015625 53.90625 55.328125 
Q 53.90625 49.265625 50.4375 45.09375 
Q 46.96875 40.921875 40.578125 39.3125 
z
" id="DejaVuSans-51"/>
       </defs>
       <use xlink:href="#DejaVuSans-115"/>
       <use x="52.099609" xlink:href="#DejaVuSans-116"/>
       <use x="91.308594" xlink:href="#DejaVuSans-97"/>
       <use x="152.587891" xlink:href="#DejaVuSans-114"/>
       <use x="193.701172" xlink:href="#DejaVuSans-116"/>
       <use x="232.910156" xlink:href="#DejaVuSans-95"/>
       <use x="282.910156" xlink:href="#DejaVuSans-51"/>
      </g>
     </g>
    </g>
    <g id="text_5">
     <!-- Fuzzer (highest median coverage on the left) -->
     <g transform="translate(119.270156 332.823802)scale(0.1 -0.1)">
      <defs>
       <path d="M 9.8125 72.90625 
L 51.703125 72.90625 
L 51.703125 64.59375 
L 19.671875 64.59375 
L 19.671875 43.109375 
L 48.578125 43.109375 
L 48.578125 34.8125 
L 19.671875 34.8125 
L 19.671875 0 
L 9.8125 0 
z
" id="DejaVuSans-70"/>
       <path d="M 8.5 21.578125 
L 8.5 54.6875 
L 17.484375 54.6875 
L 17.484375 21.921875 
Q 17.484375 14.15625 20.5 10.265625 
Q 23.53125 6.390625 29.59375 6.390625 
Q 36.859375 6.390625 41.078125 11.03125 
Q 45.3125 15.671875 45.3125 23.6875 
L 45.3125 54.6875 
L 54.296875 54.6875 
L 54.296875 0 
L 45.3125 0 
L 45.3125 8.40625 
Q 42.046875 3.421875 37.71875 1 
Q 33.40625 -1.421875 27.6875 -1.421875 
Q 18.265625 -1.421875 13.375 4.4375 
Q 8.5 10.296875 8.5 21.578125 
z
M 31.109375 56 
z
" id="DejaVuSans-117"/>
       <path d="M 5.515625 54.6875 
L 48.1875 54.6875 
L 48.1875 46.484375 
L 14.40625 7.171875 
L 48.1875 7.171875 
L 48.1875 0 
L 4.296875 0 
L 4.296875 8.203125 
L 38.09375 47.515625 
L 5.515625 47.515625 
z
" id="DejaVuSans-122"/>
       <path d="M 56.203125 29.59375 
L 56.203125 25.203125 
L 14.890625 25.203125 
Q 15.484375 15.921875 20.484375 11.0625 
Q 25.484375 6.203125 34.421875 6.203125 
Q 39.59375 6.203125 44.453125 7.46875 
Q 49.3125 8.734375 54.109375 11.28125 
L 54.109375 2.78125 
Q 49.265625 0.734375 44.1875 -0.34375 
Q 39.109375 -1.421875 33.890625 -1.421875 
Q 20.796875 -1.421875 13.15625 6.1875 
Q 5.515625 13.8125 5.515625 26.8125 
Q 5.515625 40.234375 12.765625 48.109375 
Q 20.015625 56 32.328125 56 
Q 43.359375 56 49.78125 48.890625 
Q 56.203125 41.796875 56.203125 29.59375 
z
M 47.21875 32.234375 
Q 47.125 39.59375 43.09375 43.984375 
Q 39.0625 48.390625 32.421875 48.390625 
Q 24.90625 48.390625 20.390625 44.140625 
Q 15.875 39.890625 15.1875 32.171875 
z
" id="DejaVuSans-101"/>
       <path id="DejaVuSans-32"/>
       <path d="M 31 75.875 
Q 24.46875 64.65625 21.28125 53.65625 
Q 18.109375 42.671875 18.109375 31.390625 
Q 18.109375 20.125 21.3125 9.0625 
Q 24.515625 -2 31 -13.1875 
L 23.1875 -13.1875 
Q 15.875 -1.703125 12.234375 9.375 
Q 8.59375 20.453125 8.59375 31.390625 
Q 8.59375 42.28125 12.203125 53.3125 
Q 15.828125 64.359375 23.1875 75.875 
z
" id="DejaVuSans-40"/>
       <path d="M 54.890625 33.015625 
L 54.890625 0 
L 45.90625 0 
L 45.90625 32.71875 
Q 45.90625 40.484375 42.875 44.328125 
Q 39.84375 48.1875 33.796875 48.1875 
Q 26.515625 48.1875 22.3125 43.546875 
Q 18.109375 38.921875 18.109375 30.90625 
L 18.109375 0 
L 9.078125 0 
L 9.078125 75.984375 
L 18.109375 75.984375 
L 18.109375 46.1875 
Q 21.34375 51.125 25.703125 53.5625 
Q 30.078125 56 35.796875 56 
Q 45.21875 56 50.046875 50.171875 
Q 54.890625 44.34375 54.890625 33.015625 
z
" id="DejaVuSans-104"/>
       <path d="M 9.421875 54.6875 
L 18.40625 54.6875 
L 18.40625 0 
L 9.421875 0 
z
M 9.421875 75.984375 
L 18.40625 75.984375 
L 18.40625 64.59375 
L 9.421875 64.59375 
z
" id="DejaVuSans-105"/>
       <path d="M 45.40625 27.984375 
Q 45.40625 37.75 41.375 43.109375 
Q 37.359375 48.484375 30.078125 48.484375 
Q 22.859375 48.484375 18.828125 43.109375 
Q 14.796875 37.75 14.796875 27.984375 
Q 14.796875 18.265625 18.828125 12.890625 
Q 22.859375 7.515625 30.078125 7.515625 
Q 37.359375 7.515625 41.375 12.890625 
Q 45.40625 18.265625 45.40625 27.984375 
z
M 54.390625 6.78125 
Q 54.390625 -7.171875 48.1875 -13.984375 
Q 42 -20.796875 29.203125 -20.796875 
Q 24.46875 -20.796875 20.265625 -20.09375 
Q 16.0625 -19.390625 12.109375 -17.921875 
L 12.109375 -9.1875 
Q 16.0625 -11.328125 19.921875 -12.34375 
Q 23.78125 -13.375 27.78125 -13.375 
Q 36.625 -13.375 41.015625 -8.765625 
Q 45.40625 -4.15625 45.40625 5.171875 
L 45.40625 9.625 
Q 42.625 4.78125 38.28125 2.390625 
Q 33.9375 0 27.875 0 
Q 17.828125 0 11.671875 7.65625 
Q 5.515625 15.328125 5.515625 27.984375 
Q 5.515625 40.671875 11.671875 48.328125 
Q 17.828125 56 27.875 56 
Q 33.9375 56 38.28125 53.609375 
Q 42.625 51.21875 45.40625 46.390625 
L 45.40625 54.6875 
L 54.390625 54.6875 
z
" id="DejaVuSans-103"/>
       <path d="M 52 44.1875 
Q 55.375 50.25 60.0625 53.125 
Q 64.75 56 71.09375 56 
Q 79.640625 56 84.28125 50.015625 
Q 88.921875 44.046875 88.921875 33.015625 
L 88.921875 0 
L 79.890625 0 
L 79.890625 32.71875 
Q 79.890625 40.578125 77.09375 44.375 
Q 74.3125 48.1875 68.609375 48.1875 
Q 61.625 48.1875 57.5625 43.546875 
Q 53.515625 38.921875 53.515625 30.90625 
L 53.515625 0 
L 44.484375 0 
L 44.484375 32.71875 
Q 44.484375 40.625 41.703125 44.40625 
Q 38.921875 48.1875 33.109375 48.1875 
Q 26.21875 48.1875 22.15625 43.53125 
Q 18.109375 38.875 18.109375 30.90625 
L 18.109375 0 
L 9.078125 0 
L 9.078125 54.6875 
L 18.109375 54.6875 
L 18.109375 46.1875 
Q 21.1875 51.21875 25.484375 53.609375 
Q 29.78125 56 35.6875 56 
Q 41.65625 56 45.828125 52.96875 
Q 50 49.953125 52 44.1875 
z
" id="DejaVuSans-109"/>
       <path d="M 45.40625 46.390625 
L 45.40625 75.984375 
L 54.390625 75.984375 
L 54.390625 0 
L 45.40625 0 
L 45.40625 8.203125 
Q 42.578125 3.328125 38.25 0.953125 
Q 33.9375 -1.421875 27.875 -1.421875 
Q 17.96875 -1.421875 11.734375 6.484375 
Q 5.515625 14.40625 5.515625 27.296875 
Q 5.515625 40.1875 11.734375 48.09375 
Q 17.96875 56 27.875 56 
Q 33.9375 56 38.25 53.625 
Q 42.578125 51.265625 45.40625 46.390625 
z
M 14.796875 27.296875 
Q 14.796875 17.390625 18.875 11.75 
Q 22.953125 6.109375 30.078125 6.109375 
Q 37.203125 6.109375 41.296875 11.75 
Q 45.40625 17.390625 45.40625 27.296875 
Q 45.40625 37.203125 41.296875 42.84375 
Q 37.203125 48.484375 30.078125 48.484375 
Q 22.953125 48.484375 18.875 42.84375 
Q 14.796875 37.203125 14.796875 27.296875 
z
" id="DejaVuSans-100"/>
       <path d="M 54.890625 33.015625 
L 54.890625 0 
L 45.90625 0 
L 45.90625 32.71875 
Q 45.90625 40.484375 42.875 44.328125 
Q 39.84375 48.1875 33.796875 48.1875 
Q 26.515625 48.1875 22.3125 43.546875 
Q 18.109375 38.921875 18.109375 30.90625 
L 18.109375 0 
L 9.078125 0 
L 9.078125 54.6875 
L 18.109375 54.6875 
L 18.109375 46.1875 
Q 21.34375 51.125 25.703125 53.5625 
Q 30.078125 56 35.796875 56 
Q 45.21875 56 50.046875 50.171875 
Q 54.890625 44.34375 54.890625 33.015625 
z
" id="DejaVuSans-110"/>
       <path d="M 48.78125 52.59375 
L 48.78125 44.1875 
Q 44.96875 46.296875 41.140625 47.34375 
Q 37.3125 48.390625 33.40625 48.390625 
Q 24.65625 48.390625 19.8125 42.84375 
Q 14.984375 37.3125 14.984375 27.296875 
Q 14.984375 17.28125 19.8125 11.734375 
Q 24.65625 6.203125 33.40625 6.203125 
Q 37.3125 6.203125 41.140625 7.25 
Q 44.96875 8.296875 48.78125 10.40625 
L 48.78125 2.09375 
Q 45.015625 0.34375 40.984375 -0.53125 
Q 36.96875 -1.421875 32.421875 -1.421875 
Q 20.0625 -1.421875 12.78125 6.34375 
Q 5.515625 14.109375 5.515625 27.296875 
Q 5.515625 40.671875 12.859375 48.328125 
Q 20.21875 56 33.015625 56 
Q 37.15625 56 41.109375 55.140625 
Q 45.0625 54.296875 48.78125 52.59375 
z
" id="DejaVuSans-99"/>
       <path d="M 30.609375 48.390625 
Q 23.390625 48.390625 19.1875 42.75 
Q 14.984375 37.109375 14.984375 27.296875 
Q 14.984375 17.484375 19.15625 11.84375 
Q 23.34375 6.203125 30.609375 6.203125 
Q 37.796875 6.203125 41.984375 11.859375 
Q 46.1875 17.53125 46.1875 27.296875 
Q 46.1875 37.015625 41.984375 42.703125 
Q 37.796875 48.390625 30.609375 48.390625 
z
M 30.609375 56 
Q 42.328125 56 49.015625 48.375 
Q 55.71875 40.765625 55.71875 27.296875 
Q 55.71875 13.875 49.015625 6.21875 
Q 42.328125 -1.421875 30.609375 -1.421875 
Q 18.84375 -1.421875 12.171875 6.21875 
Q 5.515625 13.875 5.515625 27.296875 
Q 5.515625 40.765625 12.171875 48.375 
Q 18.84375 56 30.609375 56 
z
" id="DejaVuSans-111"/>
       <path d="M 2.984375 54.6875 
L 12.5 54.6875 
L 29.59375 8.796875 
L 46.6875 54.6875 
L 56.203125 54.6875 
L 35.6875 0 
L 23.484375 0 
z
" id="DejaVuSans-118"/>
       <path d="M 9.421875 75.984375 
L 18.40625 75.984375 
L 18.40625 0 
L 9.421875 0 
z
" id="DejaVuSans-108"/>
       <path d="M 37.109375 75.984375 
L 37.109375 68.5 
L 28.515625 68.5 
Q 23.6875 68.5 21.796875 66.546875 
Q 19.921875 64.59375 19.921875 59.515625 
L 19.921875 54.6875 
L 34.71875 54.6875 
L 34.71875 47.703125 
L 19.921875 47.703125 
L 19.921875 0 
L 10.890625 0 
L 10.890625 47.703125 
L 2.296875 47.703125 
L 2.296875 54.6875 
L 10.890625 54.6875 
L 10.890625 58.5 
Q 10.890625 67.625 15.140625 71.796875 
Q 19.390625 75.984375 28.609375 75.984375 
z
" id="DejaVuSans-102"/>
       <path d="M 8.015625 75.875 
L 15.828125 75.875 
Q 23.140625 64.359375 26.78125 53.3125 
Q 30.421875 42.28125 30.421875 31.390625 
Q 30.421875 20.453125 26.78125 9.375 
Q 23.140625 -1.703125 15.828125 -13.1875 
L 8.015625 -13.1875 
Q 14.5 -2 17.703125 9.0625 
Q 20.90625 20.125 20.90625 31.390625 
Q 20.90625 42.671875 17.703125 53.65625 
Q 14.5 64.65625 8.015625 75.875 
z
" id="DejaVuSans-41"/>
      </defs>
      <use xlink:href="#DejaVuSans-70"/>
      <use x="52.019531" xlink:href="#DejaVuSans-117"/>
      <use x="115.398438" xlink:href="#DejaVuSans-122"/>
      <use x="167.888672" xlink:href="#DejaVuSans-122"/>
      <use x="220.378906" xlink:href="#DejaVuSans-101"/>
      <use x="281.902344" xlink:href="#DejaVuSans-114"/>
      <use x="323.015625" xlink:href="#DejaVuSans-32"/>
      <use x="354.802734" xlink:href="#DejaVuSans-40"/>
      <use x="393.816406" xlink:href="#DejaVuSans-104"/>
      <use x="457.195312" xlink:href="#DejaVuSans-105"/>
      <use x="484.978516" xlink:href="#DejaVuSans-103"/>
      <use x="548.455078" xlink:href="#DejaVuSans-104"/>
      <use x="611.833984" xlink:href="#DejaVuSans-101"/>
      <use x="673.357422" xlink:href="#DejaVuSans-115"/>
      <use x="725.457031" xlink:href="#DejaVuSans-116"/>
      <use x="764.666016" xlink:href="#DejaVuSans-32"/>
      <use x="796.453125" xlink:href="#DejaVuSans-109"/>
      <use x="893.865234" xlink:href="#DejaVuSans-101"/>
      <use x="955.388672" xlink:href="#DejaVuSans-100"/>
      <use x="1018.865234" xlink:href="#DejaVuSans-105"/>
      <use x="1046.648438" xlink:href="#DejaVuSans-97"/>
      <use x="1107.927734" xlink:href="#DejaVuSans-110"/>
      <use x="1171.306641" xlink:href="#DejaVuSans-32"/>
      <use x="1203.09375" xlink:href="#DejaVuSans-99"/>
      <use x="1258.074219" xlink:href="#DejaVuSans-111"/>
      <use x="1319.255859" xlink:href="#DejaVuSans-118"/>
      <use x="1378.435547" xlink:href="#DejaVuSans-101"/>
      <use x="1439.958984" xlink:href="#DejaVuSans-114"/>
      <use x="1481.072266" xlink:href="#DejaVuSans-97"/>
      <use x="1542.351562" xlink:href="#DejaVuSans-103"/>
      <use x="1605.828125" xlink:href="#DejaVuSans-101"/>
      <use x="1667.351562" xlink:href="#DejaVuSans-32"/>
      <use x="1699.138672" xlink:href="#DejaVuSans-111"/>
      <use x="1760.320312" xlink:href="#DejaVuSans-110"/>
      <use x="1823.699219" xlink:href="#DejaVuSans-32"/>
      <use x="1855.486328" xlink:href="#DejaVuSans-116"/>
      <use x="1894.695312" xlink:href="#DejaVuSans-104"/>
      <use x="1958.074219" xlink:href="#DejaVuSans-101"/>
      <use x="2019.597656" xlink:href="#DejaVuSans-32"/>
      <use x="2051.384766" xlink:href="#DejaVuSans-108"/>
      <use x="2079.167969" xlink:href="#DejaVuSans-101"/>
      <use x="2140.691406" xlink:href="#DejaVuSans-102"/>
      <use x="2174.146484" xlink:href="#DejaVuSans-116"/>
      <use x="2213.355469" xlink:href="#DejaVuSans-41"/>
     </g>
    </g>
   </g>
   <g id="matplotlib.axis_2">
    <g id="ytick_1">
     <g id="line2d_5">
      <defs>
       <path d="M 0 0 
L -3.5 0 
" id="mf666f01201" style="stroke:#000000;stroke-width:0.8;"/>
      </defs>
      <g>
       <use style="stroke:#000000;stroke-width:0.8;" x="53.328125" xlink:href="#mf666f01201" y="264.918533"/>
      </g>
     </g>
     <g id="text_6">
      <!-- 6500 -->
      <g transform="translate(20.878125 268.717751)scale(0.1 -0.1)">
       <defs>
        <path d="M 33.015625 40.375 
Q 26.375 40.375 22.484375 35.828125 
Q 18.609375 31.296875 18.609375 23.390625 
Q 18.609375 15.53125 22.484375 10.953125 
Q 26.375 6.390625 33.015625 6.390625 
Q 39.65625 6.390625 43.53125 10.953125 
Q 47.40625 15.53125 47.40625 23.390625 
Q 47.40625 31.296875 43.53125 35.828125 
Q 39.65625 40.375 33.015625 40.375 
z
M 52.59375 71.296875 
L 52.59375 62.3125 
Q 48.875 64.0625 45.09375 64.984375 
Q 41.3125 65.921875 37.59375 65.921875 
Q 27.828125 65.921875 22.671875 59.328125 
Q 17.53125 52.734375 16.796875 39.40625 
Q 19.671875 43.65625 24.015625 45.921875 
Q 28.375 48.1875 33.59375 48.1875 
Q 44.578125 48.1875 50.953125 41.515625 
Q 57.328125 34.859375 57.328125 23.390625 
Q 57.328125 12.15625 50.6875 5.359375 
Q 44.046875 -1.421875 33.015625 -1.421875 
Q 20.359375 -1.421875 13.671875 8.265625 
Q 6.984375 17.96875 6.984375 36.375 
Q 6.984375 53.65625 15.1875 63.9375 
Q 23.390625 74.21875 37.203125 74.21875 
Q 40.921875 74.21875 44.703125 73.484375 
Q 48.484375 72.75 52.59375 71.296875 
z
" id="DejaVuSans-54"/>
        <path d="M 10.796875 72.90625 
L 49.515625 72.90625 
L 49.515625 64.59375 
L 19.828125 64.59375 
L 19.828125 46.734375 
Q 21.96875 47.46875 24.109375 47.828125 
Q 26.265625 48.1875 28.421875 48.1875 
Q 40.625 48.1875 47.75 41.5 
Q 54.890625 34.8125 54.890625 23.390625 
Q 54.890625 11.625 47.5625 5.09375 
Q 40.234375 -1.421875 26.90625 -1.421875 
Q 22.3125 -1.421875 17.546875 -0.640625 
Q 12.796875 0.140625 7.71875 1.703125 
L 7.71875 11.625 
Q 12.109375 9.234375 16.796875 8.0625 
Q 21.484375 6.890625 26.703125 6.890625 
Q 35.15625 6.890625 40.078125 11.328125 
Q 45.015625 15.765625 45.015625 23.390625 
Q 45.015625 31 40.078125 35.4375 
Q 35.15625 39.890625 26.703125 39.890625 
Q 22.75 39.890625 18.8125 39.015625 
Q 14.890625 38.140625 10.796875 36.28125 
z
" id="DejaVuSans-53"/>
       </defs>
       <use xlink:href="#DejaVuSans-54"/>
       <use x="63.623047" xlink:href="#DejaVuSans-53"/>
       <use x="127.246094" xlink:href="#DejaVuSans-48"/>
       <use x="190.869141" xlink:href="#DejaVuSans-48"/>
      </g>
     </g>
    </g>
    <g id="ytick_2">
     <g id="line2d_6">
      <g>
       <use style="stroke:#000000;stroke-width:0.8;" x="53.328125" xlink:href="#mf666f01201" y="212.073399"/>
      </g>
     </g>
     <g id="text_7">
      <!-- 7000 -->
      <g transform="translate(20.878125 215.872618)scale(0.1 -0.1)">
       <defs>
        <path d="M 8.203125 72.90625 
L 55.078125 72.90625 
L 55.078125 68.703125 
L 28.609375 0 
L 18.3125 0 
L 43.21875 64.59375 
L 8.203125 64.59375 
z
" id="DejaVuSans-55"/>
       </defs>
       <use xlink:href="#DejaVuSans-55"/>
       <use x="63.623047" xlink:href="#DejaVuSans-48"/>
       <use x="127.246094" xlink:href="#DejaVuSans-48"/>
       <use x="190.869141" xlink:href="#DejaVuSans-48"/>
      </g>
     </g>
    </g>
    <g id="ytick_3">
     <g id="line2d_7">
      <g>
       <use style="stroke:#000000;stroke-width:0.8;" x="53.328125" xlink:href="#mf666f01201" y="159.228266"/>
      </g>
     </g>
     <g id="text_8">
      <!-- 7500 -->
      <g transform="translate(20.878125 163.027484)scale(0.1 -0.1)">
       <use xlink:href="#DejaVuSans-55"/>
       <use x="63.623047" xlink:href="#DejaVuSans-53"/>
       <use x="127.246094" xlink:href="#DejaVuSans-48"/>
       <use x="190.869141" xlink:href="#DejaVuSans-48"/>
      </g>
     </g>
    </g>
    <g id="ytick_4">
     <g id="line2d_8">
      <g>
       <use style="stroke:#000000;stroke-width:0.8;" x="53.328125" xlink:href="#mf666f01201" y="106.383132"/>
      </g>
     </g>
     <g id="text_9">
      <!-- 8000 -->
      <g transform="translate(20.878125 110.182351)scale(0.1 -0.1)">
       <defs>
        <path d="M 31.78125 34.625 
Q 24.75 34.625 20.71875 30.859375 
Q 16.703125 27.09375 16.703125 20.515625 
Q 16.703125 13.921875 20.71875 10.15625 
Q 24.75 6.390625 31.78125 6.390625 
Q 38.8125 6.390625 42.859375 10.171875 
Q 46.921875 13.96875 46.921875 20.515625 
Q 46.921875 27.09375 42.890625 30.859375 
Q 38.875 34.625 31.78125 34.625 
z
M 21.921875 38.8125 
Q 15.578125 40.375 12.03125 44.71875 
Q 8.5 49.078125 8.5 55.328125 
Q 8.5 64.0625 14.71875 69.140625 
Q 20.953125 74.21875 31.78125 74.21875 
Q 42.671875 74.21875 48.875 69.140625 
Q 55.078125 64.0625 55.078125 55.328125 
Q 55.078125 49.078125 51.53125 44.71875 
Q 48 40.375 41.703125 38.8125 
Q 48.828125 37.15625 52.796875 32.3125 
Q 56.78125 27.484375 56.78125 20.515625 
Q 56.78125 9.90625 50.3125 4.234375 
Q 43.84375 -1.421875 31.78125 -1.421875 
Q 19.734375 -1.421875 13.25 4.234375 
Q 6.78125 9.90625 6.78125 20.515625 
Q 6.78125 27.484375 10.78125 32.3125 
Q 14.796875 37.15625 21.921875 38.8125 
z
M 18.3125 54.390625 
Q 18.3125 48.734375 21.84375 45.5625 
Q 25.390625 42.390625 31.78125 42.390625 
Q 38.140625 42.390625 41.71875 45.5625 
Q 45.3125 48.734375 45.3125 54.390625 
Q 45.3125 60.0625 41.71875 63.234375 
Q 38.140625 66.40625 31.78125 66.40625 
Q 25.390625 66.40625 21.84375 63.234375 
Q 18.3125 60.0625 18.3125 54.390625 
z
" id="DejaVuSans-56"/>
       </defs>
       <use xlink:href="#DejaVuSans-56"/>
       <use x="63.623047" xlink:href="#DejaVuSans-48"/>
       <use x="127.246094" xlink:href="#DejaVuSans-48"/>
       <use x="190.869141" xlink:href="#DejaVuSans-48"/>
      </g>
     </g>
    </g>
    <g id="ytick_5">
     <g id="line2d_9">
      <g>
       <use style="stroke:#000000;stroke-width:0.8;" x="53.328125" xlink:href="#mf666f01201" y="53.537998"/>
      </g>
     </g>
     <g id="text_10">
      <!-- 8500 -->
      <g transform="translate(20.878125 57.337217)scale(0.1 -0.1)">
       <use xlink:href="#DejaVuSans-56"/>
       <use x="63.623047" xlink:href="#DejaVuSans-53"/>
       <use x="127.246094" xlink:href="#DejaVuSans-48"/>
       <use x="190.869141" xlink:href="#DejaVuSans-48"/>
      </g>
     </g>
    </g>
    <g id="text_11">
     <!-- Reached edge coverage -->
     <g transform="translate(14.798438 215.82725)rotate(-90)scale(0.1 -0.1)">
      <defs>
       <path d="M 44.390625 34.1875 
Q 47.5625 33.109375 50.5625 29.59375 
Q 53.5625 26.078125 56.59375 19.921875 
L 66.609375 0 
L 56 0 
L 46.6875 18.703125 
Q 43.0625 26.03125 39.671875 28.421875 
Q 36.28125 30.8125 30.421875 30.8125 
L 19.671875 30.8125 
L 19.671875 0 
L 9.8125 0 
L 9.8125 72.90625 
L 32.078125 72.90625 
Q 44.578125 72.90625 50.734375 67.671875 
Q 56.890625 62.453125 56.890625 51.90625 
Q 56.890625 45.015625 53.6875 40.46875 
Q 50.484375 35.9375 44.390625 34.1875 
z
M 19.671875 64.796875 
L 19.671875 38.921875 
L 32.078125 38.921875 
Q 39.203125 38.921875 42.84375 42.21875 
Q 46.484375 45.515625 46.484375 51.90625 
Q 46.484375 58.296875 42.84375 61.546875 
Q 39.203125 64.796875 32.078125 64.796875 
z
" id="DejaVuSans-82"/>
      </defs>
      <use xlink:href="#DejaVuSans-82"/>
      <use x="64.982422" xlink:href="#DejaVuSans-101"/>
      <use x="126.505859" xlink:href="#DejaVuSans-97"/>
      <use x="187.785156" xlink:href="#DejaVuSans-99"/>
      <use x="242.765625" xlink:href="#DejaVuSans-104"/>
      <use x="306.144531" xlink:href="#DejaVuSans-101"/>
      <use x="367.667969" xlink:href="#DejaVuSans-100"/>
      <use x="431.144531" xlink:href="#DejaVuSans-32"/>
      <use x="462.931641" xlink:href="#DejaVuSans-101"/>
      <use x="524.455078" xlink:href="#DejaVuSans-100"/>
      <use x="587.931641" xlink:href="#DejaVuSans-103"/>
      <use x="651.408203" xlink:href="#DejaVuSans-101"/>
      <use x="712.931641" xlink:href="#DejaVuSans-32"/>
      <use x="744.71875" xlink:href="#DejaVuSans-99"/>
      <use x="799.699219" xlink:href="#DejaVuSans-111"/>
      <use x="860.880859" xlink:href="#DejaVuSans-118"/>
      <use x="920.060547" xlink:href="#DejaVuSans-101"/>
      <use x="981.583984" xlink:href="#DejaVuSans-114"/>
      <use x="1022.697266" xlink:href="#DejaVuSans-97"/>
      <use x="1083.976562" xlink:href="#DejaVuSans-103"/>
      <use x="1147.453125" xlink:href="#DejaVuSans-101"/>
     </g>
    </g>
   </g>
   <g id="line2d_10">
    <path clip-path="url(#pf8cd812080)" d="M 97.968125 169.374531 
L 97.968125 152.252708 
" style="fill:none;stroke:#3f3f3f;stroke-linecap:square;stroke-width:1.5;"/>
   </g>
   <g id="line2d_11">
    <path clip-path="url(#pf8cd812080)" d="M 97.968125 167.577797 
L 97.968125 152.252708 
" style="fill:none;stroke:#3f3f3f;stroke-linecap:square;stroke-width:4.5;"/>
   </g>
   <g id="line2d_12">
    <path clip-path="url(#pf8cd812080)" d="M 187.248125 182.480124 
L 187.248125 153.309611 
" style="fill:none;stroke:#3f3f3f;stroke-linecap:square;stroke-width:1.5;"/>
   </g>
   <g id="line2d_13">
    <path clip-path="url(#pf8cd812080)" d="M 187.248125 181.740292 
L 187.248125 153.309611 
" style="fill:none;stroke:#3f3f3f;stroke-linecap:square;stroke-width:4.5;"/>
   </g>
   <g id="line2d_14">
    <path clip-path="url(#pf8cd812080)" d="M 276.528125 216.935151 
L 276.528125 107.651415 
" style="fill:none;stroke:#3f3f3f;stroke-linecap:square;stroke-width:1.5;"/>
   </g>
   <g id="line2d_15">
    <path clip-path="url(#pf8cd812080)" d="M 276.528125 172.86231 
L 276.528125 136.293478 
" style="fill:none;stroke:#3f3f3f;stroke-linecap:square;stroke-width:4.5;"/>
   </g>
   <g id="line2d_16">
    <path clip-path="url(#pf8cd812080)" d="M 365.808125 186.707735 
L 365.808125 131.537416 
" style="fill:none;stroke:#3f3f3f;stroke-linecap:square;stroke-width:1.5;"/>
   </g>
   <g id="line2d_17">
    <path clip-path="url(#pf8cd812080)" d="M 365.808125 186.496354 
L 365.808125 161.447761 
" style="fill:none;stroke:#3f3f3f;stroke-linecap:square;stroke-width:4.5;"/>
   </g>
   <g id="patch_3">
    <path d="M 53.328125 264.918533 
L 53.328125 53.537998 
" style="fill:none;stroke:#000000;stroke-linecap:square;stroke-linejoin:miter;stroke-width:0.8;"/>
   </g>
   <g id="patch_4">
    <path d="M 97.968125 288.430125 
L 365.808125 288.430125 
" style="fill:none;stroke:#000000;stroke-linecap:square;stroke-linejoin:miter;stroke-width:0.8;"/>
   </g>
   <g id="PathCollection_1">
    <defs>
     <path d="M 0 1.5 
C 0.397805 1.5 0.77937 1.341951 1.06066 1.06066 
C 1.341951 0.77937 1.5 0.397805 1.5 0 
C 1.5 -0.397805 1.341951 -0.77937 1.06066 -1.06066 
C 0.77937 -1.341951 0.397805 -1.5 0 -1.5 
C -0.397805 -1.5 -0.77937 -1.341951 -1.06066 -1.06066 
C -1.341951 -0.77937 -1.5 -0.397805 -1.5 0 
C -1.5 0.397805 -1.341951 0.77937 -1.06066 1.06066 
C -0.77937 1.341951 -0.397805 1.5 0 1.5 
z
" id="ma2ffa9825b" style="stroke:#3f3f3f;"/>
    </defs>
    <g clip-path="url(#pf8cd812080)">
     <use style="fill:#ffffff;stroke:#3f3f3f;" x="97.968125" xlink:href="#ma2ffa9825b" y="160.390858"/>
    </g>
   </g>
   <g id="PathCollection_2">
    <g clip-path="url(#pf8cd812080)">
     <use style="fill:#ffffff;stroke:#3f3f3f;" x="187.248125" xlink:href="#ma2ffa9825b" y="161.870522"/>
    </g>
   </g>
   <g id="PathCollection_3">
    <g clip-path="url(#pf8cd812080)">
     <use style="fill:#ffffff;stroke:#3f3f3f;" x="276.528125" xlink:href="#ma2ffa9825b" y="163.033115"/>
    </g>
   </g>
   <g id="PathCollection_4">
    <g clip-path="url(#pf8cd812080)">
     <use style="fill:#ffffff;stroke:#3f3f3f;" x="365.808125" xlink:href="#ma2ffa9825b" y="182.268744"/>
    </g>
   </g>
   <g id="text_12">
    <!-- libxml2-v2.9.2 (24h, 5 trials/fuzzer) -->
    <g transform="translate(126.12875 16.318125)scale(0.12 -0.12)">
     <defs>
      <path d="M 48.6875 27.296875 
Q 48.6875 37.203125 44.609375 42.84375 
Q 40.53125 48.484375 33.40625 48.484375 
Q 26.265625 48.484375 22.1875 42.84375 
Q 18.109375 37.203125 18.109375 27.296875 
Q 18.109375 17.390625 22.1875 11.75 
Q 26.265625 6.109375 33.40625 6.109375 
Q 40.53125 6.109375 44.609375 11.75 
Q 48.6875 17.390625 48.6875 27.296875 
z
M 18.109375 46.390625 
Q 20.953125 51.265625 25.265625 53.625 
Q 29.59375 56 35.59375 56 
Q 45.5625 56 51.78125 48.09375 
Q 58.015625 40.1875 58.015625 27.296875 
Q 58.015625 14.40625 51.78125 6.484375 
Q 45.5625 -1.421875 35.59375 -1.421875 
Q 29.59375 -1.421875 25.265625 0.953125 
Q 20.953125 3.328125 18.109375 8.203125 
L 18.109375 0 
L 9.078125 0 
L 9.078125 75.984375 
L 18.109375 75.984375 
z
" id="DejaVuSans-98"/>
      <path d="M 54.890625 54.6875 
L 35.109375 28.078125 
L 55.90625 0 
L 45.3125 0 
L 29.390625 21.484375 
L 13.484375 0 
L 2.875 0 
L 24.125 28.609375 
L 4.6875 54.6875 
L 15.28125 54.6875 
L 29.78125 35.203125 
L 44.28125 54.6875 
z
" id="DejaVuSans-120"/>
      <path d="M 4.890625 31.390625 
L 31.203125 31.390625 
L 31.203125 23.390625 
L 4.890625 23.390625 
z
" id="DejaVuSans-45"/>
      <path d="M 10.6875 12.40625 
L 21 12.40625 
L 21 0 
L 10.6875 0 
z
" id="DejaVuSans-46"/>
      <path d="M 10.984375 1.515625 
L 10.984375 10.5 
Q 14.703125 8.734375 18.5 7.8125 
Q 22.3125 6.890625 25.984375 6.890625 
Q 35.75 6.890625 40.890625 13.453125 
Q 46.046875 20.015625 46.78125 33.40625 
Q 43.953125 29.203125 39.59375 26.953125 
Q 35.25 24.703125 29.984375 24.703125 
Q 19.046875 24.703125 12.671875 31.3125 
Q 6.296875 37.9375 6.296875 49.421875 
Q 6.296875 60.640625 12.9375 67.421875 
Q 19.578125 74.21875 30.609375 74.21875 
Q 43.265625 74.21875 49.921875 64.515625 
Q 56.59375 54.828125 56.59375 36.375 
Q 56.59375 19.140625 48.40625 8.859375 
Q 40.234375 -1.421875 26.421875 -1.421875 
Q 22.703125 -1.421875 18.890625 -0.6875 
Q 15.09375 0.046875 10.984375 1.515625 
z
M 30.609375 32.421875 
Q 37.25 32.421875 41.125 36.953125 
Q 45.015625 41.5 45.015625 49.421875 
Q 45.015625 57.28125 41.125 61.84375 
Q 37.25 66.40625 30.609375 66.40625 
Q 23.96875 66.40625 20.09375 61.84375 
Q 16.21875 57.28125 16.21875 49.421875 
Q 16.21875 41.5 20.09375 36.953125 
Q 23.96875 32.421875 30.609375 32.421875 
z
" id="DejaVuSans-57"/>
      <path d="M 37.796875 64.3125 
L 12.890625 25.390625 
L 37.796875 25.390625 
z
M 35.203125 72.90625 
L 47.609375 72.90625 
L 47.609375 25.390625 
L 58.015625 25.390625 
L 58.015625 17.1875 
L 47.609375 17.1875 
L 47.609375 0 
L 37.796875 0 
L 37.796875 17.1875 
L 4.890625 17.1875 
L 4.890625 26.703125 
z
" id="DejaVuSans-52"/>
      <path d="M 11.71875 12.40625 
L 22.015625 12.40625 
L 22.015625 4 
L 14.015625 -11.625 
L 7.71875 -11.625 
L 11.71875 4 
z
" id="DejaVuSans-44"/>
      <path d="M 25.390625 72.90625 
L 33.6875 72.90625 
L 8.296875 -9.28125 
L 0 -9.28125 
z
" id="DejaVuSans-47"/>
     </defs>
     <use xlink:href="#DejaVuSans-108"/>
     <use x="27.783203" xlink:href="#DejaVuSans-105"/>
     <use x="55.566406" xlink:href="#DejaVuSans-98"/>
     <use x="119.042969" xlink:href="#DejaVuSans-120"/>
     <use x="178.222656" xlink:href="#DejaVuSans-109"/>
     <use x="275.634766" xlink:href="#DejaVuSans-108"/>
     <use x="303.417969" xlink:href="#DejaVuSans-50"/>
     <use x="367.041016" xlink:href="#DejaVuSans-45"/>
     <use x="400.5" xlink:href="#DejaVuSans-118"/>
     <use x="459.679688" xlink:href="#DejaVuSans-50"/>
     <use x="523.302734" xlink:href="#DejaVuSans-46"/>
     <use x="555.089844" xlink:href="#DejaVuSans-57"/>
     <use x="618.712891" xlink:href="#DejaVuSans-46"/>
     <use x="650.5" xlink:href="#DejaVuSans-50"/>
     <use x="714.123047" xlink:href="#DejaVuSans-32"/>
     <use x="745.910156" xlink:href="#DejaVuSans-40"/>
     <use x="784.923828" xlink:href="#DejaVuSans-50"/>
     <use x="848.546875" xlink:href="#DejaVuSans-52"/>
     <use x="912.169922" xlink:href="#DejaVuSans-104"/>
     <use x="975.548828" xlink:href="#DejaVuSans-44"/>
     <use x="1007.335938" xlink:href="#DejaVuSans-32"/>
     <use x="1039.123047" xlink:href="#DejaVuSans-53"/>
     <use x="1102.746094" xlink:href="#DejaVuSans-32"/>
     <use x="1134.533203" xlink:href="#DejaVuSans-116"/>
     <use x="1173.742188" xlink:href="#DejaVuSans-114"/>
     <use x="1214.855469" xlink:href="#DejaVuSans-105"/>
     <use x="1242.638672" xlink:href="#DejaVuSans-97"/>
     <use x="1303.917969" xlink:href="#DejaVuSans-108"/>
     <use x="1331.701172" xlink:href="#DejaVuSans-115"/>
     <use x="1383.800781" xlink:href="#DejaVuSans-47"/>
     <use x="1417.492188" xlink:href="#DejaVuSans-102"/>
     <use x="1452.697266" xlink:href="#DejaVuSans-117"/>
     <use x="1516.076172" xlink:href="#DejaVuSans-122"/>
     <use x="1568.566406" xlink:href="#DejaVuSans-122"/>
     <use x="1621.056641" xlink:href="#DejaVuSans-101"/>
     <use x="1682.580078" xlink:href="#DejaVuSans-114"/>
     <use x="1723.693359" xlink:href="#DejaVuSans-41"/>
    </g>
   </g>
  </g>
 </g>
 <defs>
  <clipPath id="pf8cd812080">
   <rect height="266.112" width="357.12" x="53.328125" y="22.318125"/>
  </clipPath>
 </defs>
</svg>
