<?xml version="1.0" encoding="utf-8" standalone="no"?>
<!DOCTYPE svg PUBLIC "-//W3C//DTD SVG 1.1//EN"
  "http://www.w3.org/Graphics/SVG/1.1/DTD/svg11.dtd">
<svg height="325.986375pt" version="1.1" viewBox="0 0 864.541562 325.986375" width="864.541562pt" xmlns="http://www.w3.org/2000/svg" xmlns:xlink="http://www.w3.org/1999/xlink">
 <metadata>
  <rdf:RDF xmlns:cc="http://creativecommons.org/ns#" xmlns:dc="http://purl.org/dc/elements/1.1/" xmlns:rdf="http://www.w3.org/1999/02/22-rdf-syntax-ns#">
   <cc:Work>
    <dc:type rdf:resource="http://purl.org/dc/dcmitype/StillImage"/>
    <dc:date>2022-07-04T17:46:36.977297</dc:date>
    <dc:format>image/svg+xml</dc:format>
    <dc:creator>
     <cc:Agent>
      <dc:title>Matplotlib v3.4.1, https://matplotlib.org/</dc:title>
     </cc:Agent>
    </dc:creator>
   </cc:Work>
  </rdf:RDF>
 </metadata>
 <defs>
  <style type="text/css">*{stroke-linecap:butt;stroke-linejoin:round;}</style>
 </defs>
 <g id="figure_1">
  <g id="patch_1">
   <path d="M 0 325.986375 
L 864.541562 325.986375 
L 864.541562 0 
L 0 0 
z
" style="fill:#ffffff;"/>
  </g>
  <g id="axes_1">
   <g id="patch_2">
    <path d="M 53.328125 288.430125 
L 767.568125 288.430125 
L 767.568125 22.318125 
L 53.328125 22.318125 
z
" style="fill:#ffffff;"/>
   </g>
   <g id="PolyCollection_1">
    <defs>
     <path d="M 85.79358 -224.952914 
L 85.79358 -75.798036 
L 184.398407 -77.10056 
L 242.078533 -78.276008 
L 283.003234 -78.371315 
L 314.746899 -78.403084 
L 340.683361 -78.403084 
L 362.612327 -58.515767 
L 381.608062 -78.466622 
L 398.363487 -78.466622 
L 413.351726 -78.593697 
L 426.910237 -78.720773 
L 439.288188 -61.565579 
L 450.674799 -78.911386 
L 461.217155 -62.010343 
L 471.031852 -79.038461 
L 480.212889 -79.038461 
L 488.837148 -79.038461 
L 496.968315 -64.170627 
L 504.659739 -64.297702 
L 511.956553 -80.690443 
L 518.897281 -64.678929 
L 525.515065 -64.806004 
L 531.838626 -81.262283 
L 537.893016 -64.806004 
L 543.700218 -65.123693 
L 549.279627 -81.325821 
L 554.648441 -81.389358 
L 559.821982 -80.992247 
L 564.813957 -65.568457 
L 569.63668 -81.452896 
L 574.301252 -65.631995 
L 578.817717 -65.631995 
L 583.195191 -65.695533 
L 587.441975 -81.579972 
L 591.565646 -81.579972 
L 595.573142 -81.182861 
L 599.47083 -81.579972 
L 603.264566 -65.886146 
L 606.959753 -66.07676 
L 610.561381 -66.07676 
L 614.07407 -66.521524 
L 617.502108 -66.585062 
L 620.849479 -82.024736 
L 624.119892 -82.342425 
L 627.316806 -82.405962 
L 630.443453 -82.012028 
L 633.502855 -82.533038 
L 636.497843 -66.712137 
L 639.431075 -82.914264 
L 642.305045 -66.712137 
L 645.122101 -66.712137 
L 647.884454 -66.712137 
L 650.594187 -83.04134 
L 653.253268 -66.839213 
L 655.863556 -66.839213 
L 658.426809 -66.839213 
L 660.944693 -66.966288 
L 663.418785 -83.104878 
L 665.850582 -83.104878 
L 668.241507 -67.220439 
L 670.592911 -68.237043 
L 672.906079 -68.300581 
L 675.182235 -68.300581 
L 677.422544 -83.422566 
L 679.628118 -68.364119 
L 681.800019 -68.364119 
L 683.939257 -68.808883 
L 686.046802 -83.61318 
L 688.123579 -68.935958 
L 690.170474 -68.935958 
L 692.188333 -68.935958 
L 694.177969 -83.61318 
L 696.140162 -83.61318 
L 698.075657 -69.063034 
L 699.985172 -69.063034 
L 701.869394 -83.61318 
L 703.728985 -83.676717 
L 705.564581 -83.676717 
L 707.376792 -83.676717 
L 709.166208 -69.126572 
L 710.933395 -83.676717 
L 712.678898 -69.444261 
L 714.403242 -69.444261 
L 716.106936 -71.350393 
L 717.790467 -71.350393 
L 719.454307 -83.676717 
L 721.098911 -84.312095 
L 722.724719 -71.350393 
L 724.332157 -84.566246 
L 725.921634 -71.604544 
L 727.493547 -84.566246 
L 729.04828 -84.566246 
L 730.586206 -71.668082 
L 732.107682 -84.246969 
L 733.613058 -84.432817 
L 735.10267 -71.795157 
L 735.10267 -291.57225 
L 735.10267 -291.57225 
L 733.613058 -283.757106 
L 732.107682 -291.063948 
L 730.586206 -291.063948 
L 729.04828 -283.502955 
L 727.493547 -291.063948 
L 725.921634 -288.840127 
L 724.332157 -288.331825 
L 722.724719 -288.268287 
L 721.098911 -283.37588 
L 719.454307 -288.141211 
L 717.790467 -283.248804 
L 716.106936 -283.185266 
L 714.403242 -288.014136 
L 712.678898 -288.014136 
L 710.933395 -283.185266 
L 709.166208 -287.950598 
L 707.376792 -283.201151 
L 705.564581 -283.185266 
L 703.728985 -283.134436 
L 701.869394 -283.566493 
L 699.985172 -282.931115 
L 698.075657 -283.37588 
L 696.140162 -282.867578 
L 694.177969 -283.248804 
L 692.188333 -282.422813 
L 690.170474 -283.185266 
L 688.123579 -283.058191 
L 686.046802 -281.978049 
L 683.939257 -281.914511 
L 681.800019 -281.914511 
L 679.628118 -281.850974 
L 677.422544 -282.105125 
L 675.182235 -281.787436 
L 672.906079 -281.787436 
L 670.592911 -281.406209 
L 668.241507 -281.406209 
L 665.850582 -281.215596 
L 663.418785 -281.342672 
L 660.944693 -281.342672 
L 658.426809 -281.342672 
L 655.863556 -281.279134 
L 653.253268 -280.580218 
L 650.594187 -280.008379 
L 647.884454 -279.944841 
L 645.122101 -281.024983 
L 642.305045 -280.897907 
L 639.431075 -280.643756 
L 636.497843 -279.245926 
L 633.502855 -280.26253 
L 630.443453 -278.928237 
L 627.316806 -279.817765 
L 624.119892 -279.754228 
L 620.849479 -278.54701 
L 617.502108 -278.54701 
L 614.07407 -278.483473 
L 610.561381 -279.69069 
L 606.959753 -277.848095 
L 603.264566 -277.784557 
L 599.47083 -277.784557 
L 595.573142 -279.055312 
L 591.565646 -278.864699 
L 587.441975 -277.403331 
L 583.195191 -273.527528 
L 578.817717 -276.704415 
L 574.301252 -272.32031 
L 569.63668 -274.671207 
L 564.813957 -272.002622 
L 559.821982 -271.939084 
L 554.648441 -274.289981 
L 549.279627 -274.099368 
L 543.700218 -271.113093 
L 537.893016 -270.668329 
L 531.838626 -268.571583 
L 525.515065 -268.53346 
L 518.897281 -268.698658 
L 511.956553 -263.933327 
L 504.659739 -267.999743 
L 496.968315 -266.09361 
L 488.837148 -261.709505 
L 480.212889 -259.676297 
L 471.031852 -258.913844 
L 461.217155 -260.121062 
L 450.674799 -259.676297 
L 439.288188 -259.549222 
L 426.910237 -256.308796 
L 413.351726 -255.609881 
L 398.363487 -255.101579 
L 381.608062 -253.640211 
L 362.612327 -252.369456 
L 340.683361 -251.0987 
L 314.746899 -249.256106 
L 283.003234 -245.358859 
L 242.078533 -240.233744 
L 184.398407 -233.56228 
L 85.79358 -224.952914 
z
" id="mfa539bb239" style="stroke:#98df8a;stroke-opacity:0.2;"/>
    </defs>
    <g clip-path="url(#p4a8587c3fb)">
     <use style="fill:#98df8a;fill-opacity:0.2;stroke:#98df8a;stroke-opacity:0.2;" x="0" xlink:href="#mfa539bb239" y="325.986375"/>
    </g>
   </g>
   <g id="PolyCollection_2">
    <defs>
     <path d="M 85.79358 -195.789085 
L 85.79358 -49.65225 
L 184.398407 -51.494845 
L 242.078533 -54.703501 
L 283.003234 -61.565579 
L 314.746899 -72.176384 
L 340.683361 -94.263696 
L 362.612327 -96.06658 
L 381.608062 -96.452571 
L 398.363487 -100.57776 
L 413.351726 -56.990861 
L 426.910237 -56.990861 
L 439.288188 -56.990861 
L 450.674799 -57.626238 
L 461.217155 -102.29328 
L 471.031852 -104.580639 
L 480.212889 -57.689776 
L 488.837148 -104.038979 
L 496.968315 -58.13454 
L 504.659739 -58.13454 
L 511.956553 -58.13454 
L 518.897281 -106.58049 
L 525.515065 -58.198078 
L 531.838626 -58.198078 
L 537.893016 -107.94814 
L 543.700218 -58.198078 
L 549.279627 -108.456442 
L 554.648441 -108.456442 
L 559.821982 -108.647055 
L 564.813957 -108.77413 
L 569.63668 -108.77413 
L 574.301252 -108.77413 
L 578.817717 -58.325153 
L 583.195191 -108.837668 
L 587.441975 -108.901206 
L 591.565646 -109.028282 
L 595.573142 -58.452229 
L 599.47083 -109.028282 
L 603.264566 -109.028282 
L 606.959753 -109.028282 
L 610.561381 -109.663659 
L 614.07407 -113.412387 
L 617.502108 -113.920689 
L 620.849479 -113.920689 
L 624.119892 -115.00083 
L 627.316806 -113.587115 
L 630.443453 -115.00083 
L 633.502855 -115.00083 
L 636.497843 -58.515767 
L 639.431075 -116.208048 
L 642.305045 -116.208048 
L 645.122101 -58.515767 
L 647.884454 -116.398661 
L 650.594187 -116.398661 
L 653.253268 -58.769918 
L 655.863556 -116.525737 
L 658.426809 -117.415265 
L 660.944693 -58.769918 
L 663.418785 -117.542341 
L 665.850582 -58.960531 
L 668.241507 -117.605878 
L 670.592911 -117.605878 
L 672.906079 -58.960531 
L 675.182235 -58.960531 
L 677.422544 -117.860029 
L 679.628118 -117.923567 
L 681.800019 -117.923567 
L 683.939257 -59.024069 
L 686.046802 -59.024069 
L 688.123579 -117.987105 
L 690.170474 -117.987105 
L 692.188333 -117.987105 
L 694.177969 -117.987105 
L 696.140162 -118.11418 
L 698.075657 -59.024069 
L 699.985172 -59.024069 
L 701.869394 -59.024069 
L 703.728985 -59.024069 
L 705.564581 -59.024069 
L 707.376792 -59.024069 
L 709.166208 -59.024069 
L 710.933395 -59.024069 
L 712.678898 -59.024069 
L 714.403242 -59.024069 
L 716.106936 -119.067247 
L 717.790467 -119.067247 
L 719.454307 -119.067247 
L 721.098911 -119.067247 
L 722.724719 -59.087607 
L 724.332157 -59.087607 
L 725.921634 -59.087607 
L 727.493547 -59.087607 
L 729.04828 -59.087607 
L 730.586206 -119.130784 
L 732.107682 -119.130784 
L 733.613058 -59.214682 
L 735.10267 -59.214682 
L 735.10267 -217.868455 
L 735.10267 -217.868455 
L 733.613058 -217.868455 
L 732.107682 -216.788313 
L 730.586206 -217.868455 
L 729.04828 -216.788313 
L 727.493547 -216.788313 
L 725.921634 -215.45402 
L 724.332157 -215.45402 
L 722.724719 -215.45402 
L 721.098911 -210.752226 
L 719.454307 -210.752226 
L 717.790467 -216.216473 
L 716.106936 -210.752226 
L 714.403242 -216.216473 
L 712.678898 -210.888833 
L 710.933395 -210.752226 
L 709.166208 -216.216473 
L 707.376792 -210.752226 
L 705.564581 -216.152935 
L 703.728985 -210.752226 
L 701.869394 -210.752226 
L 699.985172 -210.752226 
L 698.075657 -210.885656 
L 696.140162 -210.688689 
L 694.177969 -210.688689 
L 692.188333 -210.688689 
L 690.170474 -215.771709 
L 688.123579 -215.771709 
L 686.046802 -210.688689 
L 683.939257 -215.771709 
L 681.800019 -215.771709 
L 679.628118 -215.771709 
L 677.422544 -210.625151 
L 675.182235 -215.581096 
L 672.906079 -215.581096 
L 670.592911 -215.581096 
L 668.241507 -215.581096 
L 665.850582 -210.625151 
L 663.418785 -210.625151 
L 660.944693 -210.625151 
L 658.426809 -215.390482 
L 655.863556 -215.390482 
L 653.253268 -210.625151 
L 650.594187 -215.390482 
L 647.884454 -215.390482 
L 645.122101 -215.390482 
L 642.305045 -215.390482 
L 639.431075 -209.862698 
L 636.497843 -209.862698 
L 633.502855 -215.390482 
L 630.443453 -209.290858 
L 627.316806 -215.326945 
L 624.119892 -214.691567 
L 620.849479 -209.290858 
L 617.502108 -214.691567 
L 614.07407 -214.691567 
L 610.561381 -209.22732 
L 606.959753 -214.691567 
L 603.264566 -214.691567 
L 599.47083 -214.628029 
L 595.573142 -214.564492 
L 591.565646 -214.564492 
L 587.441975 -208.973169 
L 583.195191 -214.564492 
L 578.817717 -214.564492 
L 574.301252 -208.147178 
L 569.63668 -208.147178 
L 564.813957 -213.230199 
L 559.821982 -213.230199 
L 554.648441 -208.147178 
L 549.279627 -212.848972 
L 543.700218 -208.147178 
L 537.893016 -209.79916 
L 531.838626 -201.285101 
L 525.515065 -201.094488 
L 518.897281 -208.147178 
L 511.956553 -208.147178 
L 504.659739 -208.083641 
L 496.968315 -199.378968 
L 488.837148 -202.17463 
L 480.212889 -199.251893 
L 471.031852 -202.17463 
L 461.217155 -198.807129 
L 450.674799 -197.472836 
L 439.288188 -202.17463 
L 426.910237 -197.282222 
L 413.351726 -194.359486 
L 398.363487 -197.854062 
L 381.608062 -193.597033 
L 362.612327 -197.091609 
L 340.683361 -197.091609 
L 314.746899 -197.559406 
L 283.003234 -197.949369 
L 242.078533 -197.63168 
L 184.398407 -196.646845 
L 85.79358 -195.789085 
z
" id="m01e347e170" style="stroke:#1f77b4;stroke-opacity:0.2;"/>
    </defs>
    <g clip-path="url(#p4a8587c3fb)">
     <use style="fill:#1f77b4;fill-opacity:0.2;stroke:#1f77b4;stroke-opacity:0.2;" x="0" xlink:href="#m01e347e170" y="325.986375"/>
    </g>
   </g>
   <g id="matplotlib.axis_1">
    <g id="xtick_1">
     <g id="line2d_1">
      <defs>
       <path d="M 0 0 
L 0 3.5 
" id="m2c80f9c58e" style="stroke:#000000;stroke-width:0.8;"/>
      </defs>
      <g>
       <use style="stroke:#000000;stroke-width:0.8;" x="85.79358" xlink:href="#m2c80f9c58e" y="288.430125"/>
      </g>
     </g>
     <g id="text_1">
      <!-- 14m -->
      <g transform="translate(74.560767 303.028562)scale(0.1 -0.1)">
       <defs>
        <path d="M 794 531 
L 1825 531 
L 1825 4091 
L 703 3866 
L 703 4441 
L 1819 4666 
L 2450 4666 
L 2450 531 
L 3481 531 
L 3481 0 
L 794 0 
L 794 531 
z
" id="DejaVuSans-31" transform="scale(0.015625)"/>
        <path d="M 2419 4116 
L 825 1625 
L 2419 1625 
L 2419 4116 
z
M 2253 4666 
L 3047 4666 
L 3047 1625 
L 3713 1625 
L 3713 1100 
L 3047 1100 
L 3047 0 
L 2419 0 
L 2419 1100 
L 313 1100 
L 313 1709 
L 2253 4666 
z
" id="DejaVuSans-34" transform="scale(0.015625)"/>
        <path d="M 3328 2828 
Q 3544 3216 3844 3400 
Q 4144 3584 4550 3584 
Q 5097 3584 5394 3201 
Q 5691 2819 5691 2113 
L 5691 0 
L 5113 0 
L 5113 2094 
Q 5113 2597 4934 2840 
Q 4756 3084 4391 3084 
Q 3944 3084 3684 2787 
Q 3425 2491 3425 1978 
L 3425 0 
L 2847 0 
L 2847 2094 
Q 2847 2600 2669 2842 
Q 2491 3084 2119 3084 
Q 1678 3084 1418 2786 
Q 1159 2488 1159 1978 
L 1159 0 
L 581 0 
L 581 3500 
L 1159 3500 
L 1159 2956 
Q 1356 3278 1631 3431 
Q 1906 3584 2284 3584 
Q 2666 3584 2933 3390 
Q 3200 3197 3328 2828 
z
" id="DejaVuSans-6d" transform="scale(0.015625)"/>
       </defs>
       <use xlink:href="#DejaVuSans-31"/>
       <use x="63.623047" xlink:href="#DejaVuSans-34"/>
       <use x="127.246094" xlink:href="#DejaVuSans-6d"/>
      </g>
     </g>
    </g>
    <g id="xtick_2">
     <g id="line2d_2">
      <g>
       <use style="stroke:#000000;stroke-width:0.8;" x="144.821828" xlink:href="#m2c80f9c58e" y="288.430125"/>
      </g>
     </g>
     <g id="text_2">
      <!-- 22m -->
      <g transform="translate(133.589016 303.028562)scale(0.1 -0.1)">
       <defs>
        <path d="M 1228 531 
L 3431 531 
L 3431 0 
L 469 0 
L 469 531 
Q 828 903 1448 1529 
Q 2069 2156 2228 2338 
Q 2531 2678 2651 2914 
Q 2772 3150 2772 3378 
Q 2772 3750 2511 3984 
Q 2250 4219 1831 4219 
Q 1534 4219 1204 4116 
Q 875 4013 500 3803 
L 500 4441 
Q 881 4594 1212 4672 
Q 1544 4750 1819 4750 
Q 2544 4750 2975 4387 
Q 3406 4025 3406 3419 
Q 3406 3131 3298 2873 
Q 3191 2616 2906 2266 
Q 2828 2175 2409 1742 
Q 1991 1309 1228 531 
z
" id="DejaVuSans-32" transform="scale(0.015625)"/>
       </defs>
       <use xlink:href="#DejaVuSans-32"/>
       <use x="63.623047" xlink:href="#DejaVuSans-32"/>
       <use x="127.246094" xlink:href="#DejaVuSans-6d"/>
      </g>
     </g>
    </g>
    <g id="xtick_3">
     <g id="line2d_3">
      <g>
       <use style="stroke:#000000;stroke-width:0.8;" x="203.850077" xlink:href="#m2c80f9c58e" y="288.430125"/>
      </g>
     </g>
     <g id="text_3">
      <!-- 34m -->
      <g transform="translate(192.617265 303.028562)scale(0.1 -0.1)">
       <defs>
        <path d="M 2597 2516 
Q 3050 2419 3304 2112 
Q 3559 1806 3559 1356 
Q 3559 666 3084 287 
Q 2609 -91 1734 -91 
Q 1441 -91 1130 -33 
Q 819 25 488 141 
L 488 750 
Q 750 597 1062 519 
Q 1375 441 1716 441 
Q 2309 441 2620 675 
Q 2931 909 2931 1356 
Q 2931 1769 2642 2001 
Q 2353 2234 1838 2234 
L 1294 2234 
L 1294 2753 
L 1863 2753 
Q 2328 2753 2575 2939 
Q 2822 3125 2822 3475 
Q 2822 3834 2567 4026 
Q 2313 4219 1838 4219 
Q 1578 4219 1281 4162 
Q 984 4106 628 3988 
L 628 4550 
Q 988 4650 1302 4700 
Q 1616 4750 1894 4750 
Q 2613 4750 3031 4423 
Q 3450 4097 3450 3541 
Q 3450 3153 3228 2886 
Q 3006 2619 2597 2516 
z
" id="DejaVuSans-33" transform="scale(0.015625)"/>
       </defs>
       <use xlink:href="#DejaVuSans-33"/>
       <use x="63.623047" xlink:href="#DejaVuSans-34"/>
       <use x="127.246094" xlink:href="#DejaVuSans-6d"/>
      </g>
     </g>
    </g>
    <g id="xtick_4">
     <g id="line2d_4">
      <g>
       <use style="stroke:#000000;stroke-width:0.8;" x="262.878326" xlink:href="#m2c80f9c58e" y="288.430125"/>
      </g>
     </g>
     <g id="text_4">
      <!-- 52m -->
      <g transform="translate(251.645514 303.028562)scale(0.1 -0.1)">
       <defs>
        <path d="M 691 4666 
L 3169 4666 
L 3169 4134 
L 1269 4134 
L 1269 2991 
Q 1406 3038 1543 3061 
Q 1681 3084 1819 3084 
Q 2600 3084 3056 2656 
Q 3513 2228 3513 1497 
Q 3513 744 3044 326 
Q 2575 -91 1722 -91 
Q 1428 -91 1123 -41 
Q 819 9 494 109 
L 494 744 
Q 775 591 1075 516 
Q 1375 441 1709 441 
Q 2250 441 2565 725 
Q 2881 1009 2881 1497 
Q 2881 1984 2565 2268 
Q 2250 2553 1709 2553 
Q 1456 2553 1204 2497 
Q 953 2441 691 2322 
L 691 4666 
z
" id="DejaVuSans-35" transform="scale(0.015625)"/>
       </defs>
       <use xlink:href="#DejaVuSans-35"/>
       <use x="63.623047" xlink:href="#DejaVuSans-32"/>
       <use x="127.246094" xlink:href="#DejaVuSans-6d"/>
      </g>
     </g>
    </g>
    <g id="xtick_5">
     <g id="line2d_5">
      <g>
       <use style="stroke:#000000;stroke-width:0.8;" x="321.906575" xlink:href="#m2c80f9c58e" y="288.430125"/>
      </g>
     </g>
     <g id="text_5">
      <!-- 1h:18m -->
      <g transform="translate(302.639387 303.028562)scale(0.1 -0.1)">
       <defs>
        <path d="M 3513 2113 
L 3513 0 
L 2938 0 
L 2938 2094 
Q 2938 2591 2744 2837 
Q 2550 3084 2163 3084 
Q 1697 3084 1428 2787 
Q 1159 2491 1159 1978 
L 1159 0 
L 581 0 
L 581 4863 
L 1159 4863 
L 1159 2956 
Q 1366 3272 1645 3428 
Q 1925 3584 2291 3584 
Q 2894 3584 3203 3211 
Q 3513 2838 3513 2113 
z
" id="DejaVuSans-68" transform="scale(0.015625)"/>
        <path d="M 750 794 
L 1409 794 
L 1409 0 
L 750 0 
L 750 794 
z
M 750 3309 
L 1409 3309 
L 1409 2516 
L 750 2516 
L 750 3309 
z
" id="DejaVuSans-3a" transform="scale(0.015625)"/>
        <path d="M 2034 2216 
Q 1584 2216 1326 1975 
Q 1069 1734 1069 1313 
Q 1069 891 1326 650 
Q 1584 409 2034 409 
Q 2484 409 2743 651 
Q 3003 894 3003 1313 
Q 3003 1734 2745 1975 
Q 2488 2216 2034 2216 
z
M 1403 2484 
Q 997 2584 770 2862 
Q 544 3141 544 3541 
Q 544 4100 942 4425 
Q 1341 4750 2034 4750 
Q 2731 4750 3128 4425 
Q 3525 4100 3525 3541 
Q 3525 3141 3298 2862 
Q 3072 2584 2669 2484 
Q 3125 2378 3379 2068 
Q 3634 1759 3634 1313 
Q 3634 634 3220 271 
Q 2806 -91 2034 -91 
Q 1263 -91 848 271 
Q 434 634 434 1313 
Q 434 1759 690 2068 
Q 947 2378 1403 2484 
z
M 1172 3481 
Q 1172 3119 1398 2916 
Q 1625 2713 2034 2713 
Q 2441 2713 2670 2916 
Q 2900 3119 2900 3481 
Q 2900 3844 2670 4047 
Q 2441 4250 2034 4250 
Q 1625 4250 1398 4047 
Q 1172 3844 1172 3481 
z
" id="DejaVuSans-38" transform="scale(0.015625)"/>
       </defs>
       <use xlink:href="#DejaVuSans-31"/>
       <use x="63.623047" xlink:href="#DejaVuSans-68"/>
       <use x="127.001953" xlink:href="#DejaVuSans-3a"/>
       <use x="160.693359" xlink:href="#DejaVuSans-31"/>
       <use x="224.316406" xlink:href="#DejaVuSans-38"/>
       <use x="287.939453" xlink:href="#DejaVuSans-6d"/>
      </g>
     </g>
    </g>
    <g id="xtick_6">
     <g id="line2d_6">
      <g>
       <use style="stroke:#000000;stroke-width:0.8;" x="380.934824" xlink:href="#m2c80f9c58e" y="288.430125"/>
      </g>
     </g>
     <g id="text_6">
      <!-- 1h:59m -->
      <g transform="translate(361.667636 303.028562)scale(0.1 -0.1)">
       <defs>
        <path d="M 703 97 
L 703 672 
Q 941 559 1184 500 
Q 1428 441 1663 441 
Q 2288 441 2617 861 
Q 2947 1281 2994 2138 
Q 2813 1869 2534 1725 
Q 2256 1581 1919 1581 
Q 1219 1581 811 2004 
Q 403 2428 403 3163 
Q 403 3881 828 4315 
Q 1253 4750 1959 4750 
Q 2769 4750 3195 4129 
Q 3622 3509 3622 2328 
Q 3622 1225 3098 567 
Q 2575 -91 1691 -91 
Q 1453 -91 1209 -44 
Q 966 3 703 97 
z
M 1959 2075 
Q 2384 2075 2632 2365 
Q 2881 2656 2881 3163 
Q 2881 3666 2632 3958 
Q 2384 4250 1959 4250 
Q 1534 4250 1286 3958 
Q 1038 3666 1038 3163 
Q 1038 2656 1286 2365 
Q 1534 2075 1959 2075 
z
" id="DejaVuSans-39" transform="scale(0.015625)"/>
       </defs>
       <use xlink:href="#DejaVuSans-31"/>
       <use x="63.623047" xlink:href="#DejaVuSans-68"/>
       <use x="127.001953" xlink:href="#DejaVuSans-3a"/>
       <use x="160.693359" xlink:href="#DejaVuSans-35"/>
       <use x="224.316406" xlink:href="#DejaVuSans-39"/>
       <use x="287.939453" xlink:href="#DejaVuSans-6d"/>
      </g>
     </g>
    </g>
    <g id="xtick_7">
     <g id="line2d_7">
      <g>
       <use style="stroke:#000000;stroke-width:0.8;" x="439.963073" xlink:href="#m2c80f9c58e" y="288.430125"/>
      </g>
     </g>
     <g id="text_7">
      <!-- 3h -->
      <g transform="translate(433.613073 303.028562)scale(0.1 -0.1)">
       <use xlink:href="#DejaVuSans-33"/>
       <use x="63.623047" xlink:href="#DejaVuSans-68"/>
      </g>
     </g>
    </g>
    <g id="xtick_8">
     <g id="line2d_8">
      <g>
       <use style="stroke:#000000;stroke-width:0.8;" x="498.991322" xlink:href="#m2c80f9c58e" y="288.430125"/>
      </g>
     </g>
     <g id="text_8">
      <!-- 4h:33m -->
      <g transform="translate(479.724134 303.028562)scale(0.1 -0.1)">
       <use xlink:href="#DejaVuSans-34"/>
       <use x="63.623047" xlink:href="#DejaVuSans-68"/>
       <use x="127.001953" xlink:href="#DejaVuSans-3a"/>
       <use x="160.693359" xlink:href="#DejaVuSans-33"/>
       <use x="224.316406" xlink:href="#DejaVuSans-33"/>
       <use x="287.939453" xlink:href="#DejaVuSans-6d"/>
      </g>
     </g>
    </g>
    <g id="xtick_9">
     <g id="line2d_9">
      <g>
       <use style="stroke:#000000;stroke-width:0.8;" x="558.01957" xlink:href="#m2c80f9c58e" y="288.430125"/>
      </g>
     </g>
     <g id="text_9">
      <!-- 6h:54m -->
      <g transform="translate(538.752383 303.028562)scale(0.1 -0.1)">
       <defs>
        <path d="M 2113 2584 
Q 1688 2584 1439 2293 
Q 1191 2003 1191 1497 
Q 1191 994 1439 701 
Q 1688 409 2113 409 
Q 2538 409 2786 701 
Q 3034 994 3034 1497 
Q 3034 2003 2786 2293 
Q 2538 2584 2113 2584 
z
M 3366 4563 
L 3366 3988 
Q 3128 4100 2886 4159 
Q 2644 4219 2406 4219 
Q 1781 4219 1451 3797 
Q 1122 3375 1075 2522 
Q 1259 2794 1537 2939 
Q 1816 3084 2150 3084 
Q 2853 3084 3261 2657 
Q 3669 2231 3669 1497 
Q 3669 778 3244 343 
Q 2819 -91 2113 -91 
Q 1303 -91 875 529 
Q 447 1150 447 2328 
Q 447 3434 972 4092 
Q 1497 4750 2381 4750 
Q 2619 4750 2861 4703 
Q 3103 4656 3366 4563 
z
" id="DejaVuSans-36" transform="scale(0.015625)"/>
       </defs>
       <use xlink:href="#DejaVuSans-36"/>
       <use x="63.623047" xlink:href="#DejaVuSans-68"/>
       <use x="127.001953" xlink:href="#DejaVuSans-3a"/>
       <use x="160.693359" xlink:href="#DejaVuSans-35"/>
       <use x="224.316406" xlink:href="#DejaVuSans-34"/>
       <use x="287.939453" xlink:href="#DejaVuSans-6d"/>
      </g>
     </g>
    </g>
    <g id="xtick_10">
     <g id="line2d_10">
      <g>
       <use style="stroke:#000000;stroke-width:0.8;" x="617.047819" xlink:href="#m2c80f9c58e" y="288.430125"/>
      </g>
     </g>
     <g id="text_10">
      <!-- 10h:27m -->
      <g transform="translate(594.599382 303.028562)scale(0.1 -0.1)">
       <defs>
        <path d="M 2034 4250 
Q 1547 4250 1301 3770 
Q 1056 3291 1056 2328 
Q 1056 1369 1301 889 
Q 1547 409 2034 409 
Q 2525 409 2770 889 
Q 3016 1369 3016 2328 
Q 3016 3291 2770 3770 
Q 2525 4250 2034 4250 
z
M 2034 4750 
Q 2819 4750 3233 4129 
Q 3647 3509 3647 2328 
Q 3647 1150 3233 529 
Q 2819 -91 2034 -91 
Q 1250 -91 836 529 
Q 422 1150 422 2328 
Q 422 3509 836 4129 
Q 1250 4750 2034 4750 
z
" id="DejaVuSans-30" transform="scale(0.015625)"/>
        <path d="M 525 4666 
L 3525 4666 
L 3525 4397 
L 1831 0 
L 1172 0 
L 2766 4134 
L 525 4134 
L 525 4666 
z
" id="DejaVuSans-37" transform="scale(0.015625)"/>
       </defs>
       <use xlink:href="#DejaVuSans-31"/>
       <use x="63.623047" xlink:href="#DejaVuSans-30"/>
       <use x="127.246094" xlink:href="#DejaVuSans-68"/>
       <use x="190.625" xlink:href="#DejaVuSans-3a"/>
       <use x="224.316406" xlink:href="#DejaVuSans-32"/>
       <use x="287.939453" xlink:href="#DejaVuSans-37"/>
       <use x="351.5625" xlink:href="#DejaVuSans-6d"/>
      </g>
     </g>
    </g>
    <g id="xtick_11">
     <g id="line2d_11">
      <g>
       <use style="stroke:#000000;stroke-width:0.8;" x="676.076068" xlink:href="#m2c80f9c58e" y="288.430125"/>
      </g>
     </g>
     <g id="text_11">
      <!-- 15h:50m -->
      <g transform="translate(653.627631 303.028562)scale(0.1 -0.1)">
       <use xlink:href="#DejaVuSans-31"/>
       <use x="63.623047" xlink:href="#DejaVuSans-35"/>
       <use x="127.246094" xlink:href="#DejaVuSans-68"/>
       <use x="190.625" xlink:href="#DejaVuSans-3a"/>
       <use x="224.316406" xlink:href="#DejaVuSans-35"/>
       <use x="287.939453" xlink:href="#DejaVuSans-30"/>
       <use x="351.5625" xlink:href="#DejaVuSans-6d"/>
      </g>
     </g>
    </g>
    <g id="xtick_12">
     <g id="line2d_12">
      <g>
       <use style="stroke:#000000;stroke-width:0.8;" x="735.104317" xlink:href="#m2c80f9c58e" y="288.430125"/>
      </g>
     </g>
     <g id="text_12">
      <!-- 24h -->
      <g transform="translate(725.573067 303.028562)scale(0.1 -0.1)">
       <use xlink:href="#DejaVuSans-32"/>
       <use x="63.623047" xlink:href="#DejaVuSans-34"/>
       <use x="127.246094" xlink:href="#DejaVuSans-68"/>
      </g>
     </g>
    </g>
    <g id="xtick_13">
     <g id="line2d_13">
      <defs>
       <path d="M 0 0 
L 0 2 
" id="m3798515f36" style="stroke:#000000;stroke-width:0.6;"/>
      </defs>
      <g>
       <use style="stroke:#000000;stroke-width:0.6;" x="69.038154" xlink:href="#m3798515f36" y="288.430125"/>
      </g>
     </g>
    </g>
    <g id="xtick_14">
     <g id="line2d_14">
      <g>
       <use style="stroke:#000000;stroke-width:0.6;" x="199.386646" xlink:href="#m3798515f36" y="288.430125"/>
      </g>
     </g>
    </g>
    <g id="xtick_15">
     <g id="line2d_15">
      <g>
       <use style="stroke:#000000;stroke-width:0.6;" x="257.066772" xlink:href="#m3798515f36" y="288.430125"/>
      </g>
     </g>
    </g>
    <g id="xtick_16">
     <g id="line2d_16">
      <g>
       <use style="stroke:#000000;stroke-width:0.6;" x="297.991473" xlink:href="#m3798515f36" y="288.430125"/>
      </g>
     </g>
    </g>
    <g id="xtick_17">
     <g id="line2d_17">
      <g>
       <use style="stroke:#000000;stroke-width:0.6;" x="329.735137" xlink:href="#m3798515f36" y="288.430125"/>
      </g>
     </g>
    </g>
    <g id="xtick_18">
     <g id="line2d_18">
      <g>
       <use style="stroke:#000000;stroke-width:0.6;" x="355.6716" xlink:href="#m3798515f36" y="288.430125"/>
      </g>
     </g>
    </g>
    <g id="xtick_19">
     <g id="line2d_19">
      <g>
       <use style="stroke:#000000;stroke-width:0.6;" x="377.600566" xlink:href="#m3798515f36" y="288.430125"/>
      </g>
     </g>
    </g>
    <g id="xtick_20">
     <g id="line2d_20">
      <g>
       <use style="stroke:#000000;stroke-width:0.6;" x="396.596301" xlink:href="#m3798515f36" y="288.430125"/>
      </g>
     </g>
    </g>
    <g id="xtick_21">
     <g id="line2d_21">
      <g>
       <use style="stroke:#000000;stroke-width:0.6;" x="413.351726" xlink:href="#m3798515f36" y="288.430125"/>
      </g>
     </g>
    </g>
    <g id="xtick_22">
     <g id="line2d_22">
      <g>
       <use style="stroke:#000000;stroke-width:0.6;" x="526.944792" xlink:href="#m3798515f36" y="288.430125"/>
      </g>
     </g>
    </g>
    <g id="xtick_23">
     <g id="line2d_23">
      <g>
       <use style="stroke:#000000;stroke-width:0.6;" x="584.624919" xlink:href="#m3798515f36" y="288.430125"/>
      </g>
     </g>
    </g>
    <g id="xtick_24">
     <g id="line2d_24">
      <g>
       <use style="stroke:#000000;stroke-width:0.6;" x="625.54962" xlink:href="#m3798515f36" y="288.430125"/>
      </g>
     </g>
    </g>
    <g id="xtick_25">
     <g id="line2d_25">
      <g>
       <use style="stroke:#000000;stroke-width:0.6;" x="657.293284" xlink:href="#m3798515f36" y="288.430125"/>
      </g>
     </g>
    </g>
    <g id="xtick_26">
     <g id="line2d_26">
      <g>
       <use style="stroke:#000000;stroke-width:0.6;" x="683.229746" xlink:href="#m3798515f36" y="288.430125"/>
      </g>
     </g>
    </g>
    <g id="xtick_27">
     <g id="line2d_27">
      <g>
       <use style="stroke:#000000;stroke-width:0.6;" x="705.158712" xlink:href="#m3798515f36" y="288.430125"/>
      </g>
     </g>
    </g>
    <g id="xtick_28">
     <g id="line2d_28">
      <g>
       <use style="stroke:#000000;stroke-width:0.6;" x="724.154447" xlink:href="#m3798515f36" y="288.430125"/>
      </g>
     </g>
    </g>
    <g id="xtick_29">
     <g id="line2d_29">
      <g>
       <use style="stroke:#000000;stroke-width:0.6;" x="740.909872" xlink:href="#m3798515f36" y="288.430125"/>
      </g>
     </g>
    </g>
    <g id="text_13">
     <!-- Time (hour:minute) -->
     <g transform="translate(362.041094 316.706687)scale(0.1 -0.1)">
      <defs>
       <path d="M -19 4666 
L 3928 4666 
L 3928 4134 
L 2272 4134 
L 2272 0 
L 1638 0 
L 1638 4134 
L -19 4134 
L -19 4666 
z
" id="DejaVuSans-54" transform="scale(0.015625)"/>
       <path d="M 603 3500 
L 1178 3500 
L 1178 0 
L 603 0 
L 603 3500 
z
M 603 4863 
L 1178 4863 
L 1178 4134 
L 603 4134 
L 603 4863 
z
" id="DejaVuSans-69" transform="scale(0.015625)"/>
       <path d="M 3597 1894 
L 3597 1613 
L 953 1613 
Q 991 1019 1311 708 
Q 1631 397 2203 397 
Q 2534 397 2845 478 
Q 3156 559 3463 722 
L 3463 178 
Q 3153 47 2828 -22 
Q 2503 -91 2169 -91 
Q 1331 -91 842 396 
Q 353 884 353 1716 
Q 353 2575 817 3079 
Q 1281 3584 2069 3584 
Q 2775 3584 3186 3129 
Q 3597 2675 3597 1894 
z
M 3022 2063 
Q 3016 2534 2758 2815 
Q 2500 3097 2075 3097 
Q 1594 3097 1305 2825 
Q 1016 2553 972 2059 
L 3022 2063 
z
" id="DejaVuSans-65" transform="scale(0.015625)"/>
       <path id="DejaVuSans-20" transform="scale(0.015625)"/>
       <path d="M 1984 4856 
Q 1566 4138 1362 3434 
Q 1159 2731 1159 2009 
Q 1159 1288 1364 580 
Q 1569 -128 1984 -844 
L 1484 -844 
Q 1016 -109 783 600 
Q 550 1309 550 2009 
Q 550 2706 781 3412 
Q 1013 4119 1484 4856 
L 1984 4856 
z
" id="DejaVuSans-28" transform="scale(0.015625)"/>
       <path d="M 1959 3097 
Q 1497 3097 1228 2736 
Q 959 2375 959 1747 
Q 959 1119 1226 758 
Q 1494 397 1959 397 
Q 2419 397 2687 759 
Q 2956 1122 2956 1747 
Q 2956 2369 2687 2733 
Q 2419 3097 1959 3097 
z
M 1959 3584 
Q 2709 3584 3137 3096 
Q 3566 2609 3566 1747 
Q 3566 888 3137 398 
Q 2709 -91 1959 -91 
Q 1206 -91 779 398 
Q 353 888 353 1747 
Q 353 2609 779 3096 
Q 1206 3584 1959 3584 
z
" id="DejaVuSans-6f" transform="scale(0.015625)"/>
       <path d="M 544 1381 
L 544 3500 
L 1119 3500 
L 1119 1403 
Q 1119 906 1312 657 
Q 1506 409 1894 409 
Q 2359 409 2629 706 
Q 2900 1003 2900 1516 
L 2900 3500 
L 3475 3500 
L 3475 0 
L 2900 0 
L 2900 538 
Q 2691 219 2414 64 
Q 2138 -91 1772 -91 
Q 1169 -91 856 284 
Q 544 659 544 1381 
z
M 1991 3584 
L 1991 3584 
z
" id="DejaVuSans-75" transform="scale(0.015625)"/>
       <path d="M 2631 2963 
Q 2534 3019 2420 3045 
Q 2306 3072 2169 3072 
Q 1681 3072 1420 2755 
Q 1159 2438 1159 1844 
L 1159 0 
L 581 0 
L 581 3500 
L 1159 3500 
L 1159 2956 
Q 1341 3275 1631 3429 
Q 1922 3584 2338 3584 
Q 2397 3584 2469 3576 
Q 2541 3569 2628 3553 
L 2631 2963 
z
" id="DejaVuSans-72" transform="scale(0.015625)"/>
       <path d="M 3513 2113 
L 3513 0 
L 2938 0 
L 2938 2094 
Q 2938 2591 2744 2837 
Q 2550 3084 2163 3084 
Q 1697 3084 1428 2787 
Q 1159 2491 1159 1978 
L 1159 0 
L 581 0 
L 581 3500 
L 1159 3500 
L 1159 2956 
Q 1366 3272 1645 3428 
Q 1925 3584 2291 3584 
Q 2894 3584 3203 3211 
Q 3513 2838 3513 2113 
z
" id="DejaVuSans-6e" transform="scale(0.015625)"/>
       <path d="M 1172 4494 
L 1172 3500 
L 2356 3500 
L 2356 3053 
L 1172 3053 
L 1172 1153 
Q 1172 725 1289 603 
Q 1406 481 1766 481 
L 2356 481 
L 2356 0 
L 1766 0 
Q 1100 0 847 248 
Q 594 497 594 1153 
L 594 3053 
L 172 3053 
L 172 3500 
L 594 3500 
L 594 4494 
L 1172 4494 
z
" id="DejaVuSans-74" transform="scale(0.015625)"/>
       <path d="M 513 4856 
L 1013 4856 
Q 1481 4119 1714 3412 
Q 1947 2706 1947 2009 
Q 1947 1309 1714 600 
Q 1481 -109 1013 -844 
L 513 -844 
Q 928 -128 1133 580 
Q 1338 1288 1338 2009 
Q 1338 2731 1133 3434 
Q 928 4138 513 4856 
z
" id="DejaVuSans-29" transform="scale(0.015625)"/>
      </defs>
      <use xlink:href="#DejaVuSans-54"/>
      <use x="57.958984" xlink:href="#DejaVuSans-69"/>
      <use x="85.742188" xlink:href="#DejaVuSans-6d"/>
      <use x="183.154297" xlink:href="#DejaVuSans-65"/>
      <use x="244.677734" xlink:href="#DejaVuSans-20"/>
      <use x="276.464844" xlink:href="#DejaVuSans-28"/>
      <use x="315.478516" xlink:href="#DejaVuSans-68"/>
      <use x="378.857422" xlink:href="#DejaVuSans-6f"/>
      <use x="440.039062" xlink:href="#DejaVuSans-75"/>
      <use x="503.417969" xlink:href="#DejaVuSans-72"/>
      <use x="542.78125" xlink:href="#DejaVuSans-3a"/>
      <use x="576.472656" xlink:href="#DejaVuSans-6d"/>
      <use x="673.884766" xlink:href="#DejaVuSans-69"/>
      <use x="701.667969" xlink:href="#DejaVuSans-6e"/>
      <use x="765.046875" xlink:href="#DejaVuSans-75"/>
      <use x="828.425781" xlink:href="#DejaVuSans-74"/>
      <use x="867.634766" xlink:href="#DejaVuSans-65"/>
      <use x="929.158203" xlink:href="#DejaVuSans-29"/>
     </g>
    </g>
   </g>
   <g id="matplotlib.axis_2">
    <g id="ytick_1">
     <g id="line2d_30">
      <defs>
       <path d="M 0 0 
L -3.5 0 
" id="m11e9d02d42" style="stroke:#000000;stroke-width:0.8;"/>
      </defs>
      <g>
       <use style="stroke:#000000;stroke-width:0.8;" x="53.328125" xlink:href="#m11e9d02d42" y="279.669857"/>
      </g>
     </g>
     <g id="text_14">
      <!-- 1500 -->
      <g transform="translate(20.878125 283.469076)scale(0.1 -0.1)">
       <use xlink:href="#DejaVuSans-31"/>
       <use x="63.623047" xlink:href="#DejaVuSans-35"/>
       <use x="127.246094" xlink:href="#DejaVuSans-30"/>
       <use x="190.869141" xlink:href="#DejaVuSans-30"/>
      </g>
     </g>
    </g>
    <g id="ytick_2">
     <g id="line2d_31">
      <g>
       <use style="stroke:#000000;stroke-width:0.8;" x="53.328125" xlink:href="#m11e9d02d42" y="247.90098"/>
      </g>
     </g>
     <g id="text_15">
      <!-- 2000 -->
      <g transform="translate(20.878125 251.700199)scale(0.1 -0.1)">
       <use xlink:href="#DejaVuSans-32"/>
       <use x="63.623047" xlink:href="#DejaVuSans-30"/>
       <use x="127.246094" xlink:href="#DejaVuSans-30"/>
       <use x="190.869141" xlink:href="#DejaVuSans-30"/>
      </g>
     </g>
    </g>
    <g id="ytick_3">
     <g id="line2d_32">
      <g>
       <use style="stroke:#000000;stroke-width:0.8;" x="53.328125" xlink:href="#m11e9d02d42" y="216.132103"/>
      </g>
     </g>
     <g id="text_16">
      <!-- 2500 -->
      <g transform="translate(20.878125 219.931321)scale(0.1 -0.1)">
       <use xlink:href="#DejaVuSans-32"/>
       <use x="63.623047" xlink:href="#DejaVuSans-35"/>
       <use x="127.246094" xlink:href="#DejaVuSans-30"/>
       <use x="190.869141" xlink:href="#DejaVuSans-30"/>
      </g>
     </g>
    </g>
    <g id="ytick_4">
     <g id="line2d_33">
      <g>
       <use style="stroke:#000000;stroke-width:0.8;" x="53.328125" xlink:href="#m11e9d02d42" y="184.363225"/>
      </g>
     </g>
     <g id="text_17">
      <!-- 3000 -->
      <g transform="translate(20.878125 188.162444)scale(0.1 -0.1)">
       <use xlink:href="#DejaVuSans-33"/>
       <use x="63.623047" xlink:href="#DejaVuSans-30"/>
       <use x="127.246094" xlink:href="#DejaVuSans-30"/>
       <use x="190.869141" xlink:href="#DejaVuSans-30"/>
      </g>
     </g>
    </g>
    <g id="ytick_5">
     <g id="line2d_34">
      <g>
       <use style="stroke:#000000;stroke-width:0.8;" x="53.328125" xlink:href="#m11e9d02d42" y="152.594348"/>
      </g>
     </g>
     <g id="text_18">
      <!-- 3500 -->
      <g transform="translate(20.878125 156.393567)scale(0.1 -0.1)">
       <use xlink:href="#DejaVuSans-33"/>
       <use x="63.623047" xlink:href="#DejaVuSans-35"/>
       <use x="127.246094" xlink:href="#DejaVuSans-30"/>
       <use x="190.869141" xlink:href="#DejaVuSans-30"/>
      </g>
     </g>
    </g>
    <g id="ytick_6">
     <g id="line2d_35">
      <g>
       <use style="stroke:#000000;stroke-width:0.8;" x="53.328125" xlink:href="#m11e9d02d42" y="120.825471"/>
      </g>
     </g>
     <g id="text_19">
      <!-- 4000 -->
      <g transform="translate(20.878125 124.62469)scale(0.1 -0.1)">
       <use xlink:href="#DejaVuSans-34"/>
       <use x="63.623047" xlink:href="#DejaVuSans-30"/>
       <use x="127.246094" xlink:href="#DejaVuSans-30"/>
       <use x="190.869141" xlink:href="#DejaVuSans-30"/>
      </g>
     </g>
    </g>
    <g id="ytick_7">
     <g id="line2d_36">
      <g>
       <use style="stroke:#000000;stroke-width:0.8;" x="53.328125" xlink:href="#m11e9d02d42" y="89.056594"/>
      </g>
     </g>
     <g id="text_20">
      <!-- 4500 -->
      <g transform="translate(20.878125 92.855813)scale(0.1 -0.1)">
       <use xlink:href="#DejaVuSans-34"/>
       <use x="63.623047" xlink:href="#DejaVuSans-35"/>
       <use x="127.246094" xlink:href="#DejaVuSans-30"/>
       <use x="190.869141" xlink:href="#DejaVuSans-30"/>
      </g>
     </g>
    </g>
    <g id="ytick_8">
     <g id="line2d_37">
      <g>
       <use style="stroke:#000000;stroke-width:0.8;" x="53.328125" xlink:href="#m11e9d02d42" y="57.287717"/>
      </g>
     </g>
     <g id="text_21">
      <!-- 5000 -->
      <g transform="translate(20.878125 61.086935)scale(0.1 -0.1)">
       <use xlink:href="#DejaVuSans-35"/>
       <use x="63.623047" xlink:href="#DejaVuSans-30"/>
       <use x="127.246094" xlink:href="#DejaVuSans-30"/>
       <use x="190.869141" xlink:href="#DejaVuSans-30"/>
      </g>
     </g>
    </g>
    <g id="ytick_9">
     <g id="line2d_38">
      <g>
       <use style="stroke:#000000;stroke-width:0.8;" x="53.328125" xlink:href="#m11e9d02d42" y="25.518839"/>
      </g>
     </g>
     <g id="text_22">
      <!-- 5500 -->
      <g transform="translate(20.878125 29.318058)scale(0.1 -0.1)">
       <use xlink:href="#DejaVuSans-35"/>
       <use x="63.623047" xlink:href="#DejaVuSans-35"/>
       <use x="127.246094" xlink:href="#DejaVuSans-30"/>
       <use x="190.869141" xlink:href="#DejaVuSans-30"/>
      </g>
     </g>
    </g>
    <g id="text_23">
     <!-- Code branch coverage -->
     <g transform="translate(14.798438 211.949125)rotate(-90)scale(0.1 -0.1)">
      <defs>
       <path d="M 4122 4306 
L 4122 3641 
Q 3803 3938 3442 4084 
Q 3081 4231 2675 4231 
Q 1875 4231 1450 3742 
Q 1025 3253 1025 2328 
Q 1025 1406 1450 917 
Q 1875 428 2675 428 
Q 3081 428 3442 575 
Q 3803 722 4122 1019 
L 4122 359 
Q 3791 134 3420 21 
Q 3050 -91 2638 -91 
Q 1578 -91 968 557 
Q 359 1206 359 2328 
Q 359 3453 968 4101 
Q 1578 4750 2638 4750 
Q 3056 4750 3426 4639 
Q 3797 4528 4122 4306 
z
" id="DejaVuSans-43" transform="scale(0.015625)"/>
       <path d="M 2906 2969 
L 2906 4863 
L 3481 4863 
L 3481 0 
L 2906 0 
L 2906 525 
Q 2725 213 2448 61 
Q 2172 -91 1784 -91 
Q 1150 -91 751 415 
Q 353 922 353 1747 
Q 353 2572 751 3078 
Q 1150 3584 1784 3584 
Q 2172 3584 2448 3432 
Q 2725 3281 2906 2969 
z
M 947 1747 
Q 947 1113 1208 752 
Q 1469 391 1925 391 
Q 2381 391 2643 752 
Q 2906 1113 2906 1747 
Q 2906 2381 2643 2742 
Q 2381 3103 1925 3103 
Q 1469 3103 1208 2742 
Q 947 2381 947 1747 
z
" id="DejaVuSans-64" transform="scale(0.015625)"/>
       <path d="M 3116 1747 
Q 3116 2381 2855 2742 
Q 2594 3103 2138 3103 
Q 1681 3103 1420 2742 
Q 1159 2381 1159 1747 
Q 1159 1113 1420 752 
Q 1681 391 2138 391 
Q 2594 391 2855 752 
Q 3116 1113 3116 1747 
z
M 1159 2969 
Q 1341 3281 1617 3432 
Q 1894 3584 2278 3584 
Q 2916 3584 3314 3078 
Q 3713 2572 3713 1747 
Q 3713 922 3314 415 
Q 2916 -91 2278 -91 
Q 1894 -91 1617 61 
Q 1341 213 1159 525 
L 1159 0 
L 581 0 
L 581 4863 
L 1159 4863 
L 1159 2969 
z
" id="DejaVuSans-62" transform="scale(0.015625)"/>
       <path d="M 2194 1759 
Q 1497 1759 1228 1600 
Q 959 1441 959 1056 
Q 959 750 1161 570 
Q 1363 391 1709 391 
Q 2188 391 2477 730 
Q 2766 1069 2766 1631 
L 2766 1759 
L 2194 1759 
z
M 3341 1997 
L 3341 0 
L 2766 0 
L 2766 531 
Q 2569 213 2275 61 
Q 1981 -91 1556 -91 
Q 1019 -91 701 211 
Q 384 513 384 1019 
Q 384 1609 779 1909 
Q 1175 2209 1959 2209 
L 2766 2209 
L 2766 2266 
Q 2766 2663 2505 2880 
Q 2244 3097 1772 3097 
Q 1472 3097 1187 3025 
Q 903 2953 641 2809 
L 641 3341 
Q 956 3463 1253 3523 
Q 1550 3584 1831 3584 
Q 2591 3584 2966 3190 
Q 3341 2797 3341 1997 
z
" id="DejaVuSans-61" transform="scale(0.015625)"/>
       <path d="M 3122 3366 
L 3122 2828 
Q 2878 2963 2633 3030 
Q 2388 3097 2138 3097 
Q 1578 3097 1268 2742 
Q 959 2388 959 1747 
Q 959 1106 1268 751 
Q 1578 397 2138 397 
Q 2388 397 2633 464 
Q 2878 531 3122 666 
L 3122 134 
Q 2881 22 2623 -34 
Q 2366 -91 2075 -91 
Q 1284 -91 818 406 
Q 353 903 353 1747 
Q 353 2603 823 3093 
Q 1294 3584 2113 3584 
Q 2378 3584 2631 3529 
Q 2884 3475 3122 3366 
z
" id="DejaVuSans-63" transform="scale(0.015625)"/>
       <path d="M 191 3500 
L 800 3500 
L 1894 563 
L 2988 3500 
L 3597 3500 
L 2284 0 
L 1503 0 
L 191 3500 
z
" id="DejaVuSans-76" transform="scale(0.015625)"/>
       <path d="M 2906 1791 
Q 2906 2416 2648 2759 
Q 2391 3103 1925 3103 
Q 1463 3103 1205 2759 
Q 947 2416 947 1791 
Q 947 1169 1205 825 
Q 1463 481 1925 481 
Q 2391 481 2648 825 
Q 2906 1169 2906 1791 
z
M 3481 434 
Q 3481 -459 3084 -895 
Q 2688 -1331 1869 -1331 
Q 1566 -1331 1297 -1286 
Q 1028 -1241 775 -1147 
L 775 -588 
Q 1028 -725 1275 -790 
Q 1522 -856 1778 -856 
Q 2344 -856 2625 -561 
Q 2906 -266 2906 331 
L 2906 616 
Q 2728 306 2450 153 
Q 2172 0 1784 0 
Q 1141 0 747 490 
Q 353 981 353 1791 
Q 353 2603 747 3093 
Q 1141 3584 1784 3584 
Q 2172 3584 2450 3431 
Q 2728 3278 2906 2969 
L 2906 3500 
L 3481 3500 
L 3481 434 
z
" id="DejaVuSans-67" transform="scale(0.015625)"/>
      </defs>
      <use xlink:href="#DejaVuSans-43"/>
      <use x="69.824219" xlink:href="#DejaVuSans-6f"/>
      <use x="131.005859" xlink:href="#DejaVuSans-64"/>
      <use x="194.482422" xlink:href="#DejaVuSans-65"/>
      <use x="256.005859" xlink:href="#DejaVuSans-20"/>
      <use x="287.792969" xlink:href="#DejaVuSans-62"/>
      <use x="351.269531" xlink:href="#DejaVuSans-72"/>
      <use x="392.382812" xlink:href="#DejaVuSans-61"/>
      <use x="453.662109" xlink:href="#DejaVuSans-6e"/>
      <use x="517.041016" xlink:href="#DejaVuSans-63"/>
      <use x="572.021484" xlink:href="#DejaVuSans-68"/>
      <use x="635.400391" xlink:href="#DejaVuSans-20"/>
      <use x="667.1875" xlink:href="#DejaVuSans-63"/>
      <use x="722.167969" xlink:href="#DejaVuSans-6f"/>
      <use x="783.349609" xlink:href="#DejaVuSans-76"/>
      <use x="842.529297" xlink:href="#DejaVuSans-65"/>
      <use x="904.052734" xlink:href="#DejaVuSans-72"/>
      <use x="945.166016" xlink:href="#DejaVuSans-61"/>
      <use x="1006.445312" xlink:href="#DejaVuSans-67"/>
      <use x="1069.921875" xlink:href="#DejaVuSans-65"/>
     </g>
    </g>
   </g>
   <g id="line2d_39">
    <path clip-path="url(#p4a8587c3fb)" d="M 85.79358 141.443472 
L 184.398407 135.407386 
L 242.078533 119.777098 
L 283.003234 97.252964 
L 314.746899 95.251525 
L 340.683361 107.609618 
L 362.612327 102.081833 
L 381.608062 101.446456 
L 398.363487 100.49339 
L 413.351726 100.175701 
L 426.910237 99.413248 
L 439.288188 99.413248 
L 450.674799 98.968484 
L 461.217155 98.968484 
L 471.031852 98.841408 
L 480.212889 98.587257 
L 488.837148 97.888342 
L 496.968315 97.507115 
L 504.659739 97.316502 
L 511.956553 97.252964 
L 518.897281 97.252964 
L 525.515065 97.189426 
L 531.838626 97.062351 
L 537.893016 96.998813 
L 543.700218 96.554049 
L 549.279627 96.23636 
L 554.648441 96.23636 
L 559.821982 96.109285 
L 564.813957 96.109285 
L 569.63668 93.567774 
L 574.301252 93.504237 
L 578.817717 91.089802 
L 583.195191 90.962726 
L 587.441975 90.962726 
L 591.565646 90.899189 
L 595.573142 90.772113 
L 599.47083 90.708575 
L 603.264566 90.708575 
L 606.959753 90.645038 
L 610.561381 90.517962 
L 614.07407 89.691971 
L 617.502108 89.691971 
L 620.849479 89.691971 
L 624.119892 89.564896 
L 627.316806 89.501358 
L 630.443453 89.247207 
L 633.502855 89.247207 
L 636.497843 89.247207 
L 639.431075 89.056594 
L 642.305045 89.056594 
L 645.122101 89.056594 
L 647.884454 88.929518 
L 650.594187 88.802443 
L 653.253268 88.61183 
L 655.863556 88.61183 
L 658.426809 88.61183 
L 660.944693 88.421216 
L 663.418785 88.357679 
L 665.850582 88.357679 
L 668.241507 88.357679 
L 670.592911 88.357679 
L 672.906079 88.357679 
L 675.182235 86.705697 
L 677.422544 86.578621 
L 679.628118 86.515084 
L 681.800019 86.515084 
L 683.939257 86.515084 
L 686.046802 86.515084 
L 688.123579 86.515084 
L 690.170474 86.515084 
L 692.188333 86.515084 
L 694.177969 86.197395 
L 696.140162 86.133857 
L 698.075657 86.133857 
L 699.985172 86.133857 
L 701.869394 86.133857 
L 703.728985 86.006782 
L 705.564581 85.943244 
L 707.376792 84.92664 
L 709.166208 84.92664 
L 710.933395 84.863102 
L 712.678898 84.863102 
L 714.403242 84.799564 
L 716.106936 84.799564 
L 717.790467 84.799564 
L 719.454307 84.799564 
L 721.098911 84.672489 
L 722.724719 84.545413 
L 724.332157 84.545413 
L 725.921634 84.545413 
L 727.493547 84.481875 
L 729.04828 84.481875 
L 730.586206 84.481875 
L 732.107682 84.481875 
L 733.613058 84.481875 
L 735.10267 84.481875 
" style="fill:none;stroke:#98df8a;stroke-linecap:square;stroke-width:1.5;"/>
    <defs>
     <path d="M -0 3 
L 3 -3 
L -3 -3 
z
" id="m80db0b7283" style="stroke:#ffffff;stroke-linejoin:miter;stroke-width:0.75;"/>
    </defs>
    <g clip-path="url(#p4a8587c3fb)">
     <use style="fill:#98df8a;stroke:#ffffff;stroke-linejoin:miter;stroke-width:0.75;" x="85.79358" xlink:href="#m80db0b7283" y="141.443472"/>
     <use style="fill:#98df8a;stroke:#ffffff;stroke-linejoin:miter;stroke-width:0.75;" x="184.398407" xlink:href="#m80db0b7283" y="135.407386"/>
     <use style="fill:#98df8a;stroke:#ffffff;stroke-linejoin:miter;stroke-width:0.75;" x="242.078533" xlink:href="#m80db0b7283" y="119.777098"/>
     <use style="fill:#98df8a;stroke:#ffffff;stroke-linejoin:miter;stroke-width:0.75;" x="283.003234" xlink:href="#m80db0b7283" y="97.252964"/>
     <use style="fill:#98df8a;stroke:#ffffff;stroke-linejoin:miter;stroke-width:0.75;" x="314.746899" xlink:href="#m80db0b7283" y="95.251525"/>
     <use style="fill:#98df8a;stroke:#ffffff;stroke-linejoin:miter;stroke-width:0.75;" x="340.683361" xlink:href="#m80db0b7283" y="107.609618"/>
     <use style="fill:#98df8a;stroke:#ffffff;stroke-linejoin:miter;stroke-width:0.75;" x="362.612327" xlink:href="#m80db0b7283" y="102.081833"/>
     <use style="fill:#98df8a;stroke:#ffffff;stroke-linejoin:miter;stroke-width:0.75;" x="381.608062" xlink:href="#m80db0b7283" y="101.446456"/>
     <use style="fill:#98df8a;stroke:#ffffff;stroke-linejoin:miter;stroke-width:0.75;" x="398.363487" xlink:href="#m80db0b7283" y="100.49339"/>
     <use style="fill:#98df8a;stroke:#ffffff;stroke-linejoin:miter;stroke-width:0.75;" x="413.351726" xlink:href="#m80db0b7283" y="100.175701"/>
     <use style="fill:#98df8a;stroke:#ffffff;stroke-linejoin:miter;stroke-width:0.75;" x="426.910237" xlink:href="#m80db0b7283" y="99.413248"/>
     <use style="fill:#98df8a;stroke:#ffffff;stroke-linejoin:miter;stroke-width:0.75;" x="439.288188" xlink:href="#m80db0b7283" y="99.413248"/>
     <use style="fill:#98df8a;stroke:#ffffff;stroke-linejoin:miter;stroke-width:0.75;" x="450.674799" xlink:href="#m80db0b7283" y="98.968484"/>
     <use style="fill:#98df8a;stroke:#ffffff;stroke-linejoin:miter;stroke-width:0.75;" x="461.217155" xlink:href="#m80db0b7283" y="98.968484"/>
     <use style="fill:#98df8a;stroke:#ffffff;stroke-linejoin:miter;stroke-width:0.75;" x="471.031852" xlink:href="#m80db0b7283" y="98.841408"/>
     <use style="fill:#98df8a;stroke:#ffffff;stroke-linejoin:miter;stroke-width:0.75;" x="480.212889" xlink:href="#m80db0b7283" y="98.587257"/>
     <use style="fill:#98df8a;stroke:#ffffff;stroke-linejoin:miter;stroke-width:0.75;" x="488.837148" xlink:href="#m80db0b7283" y="97.888342"/>
     <use style="fill:#98df8a;stroke:#ffffff;stroke-linejoin:miter;stroke-width:0.75;" x="496.968315" xlink:href="#m80db0b7283" y="97.507115"/>
     <use style="fill:#98df8a;stroke:#ffffff;stroke-linejoin:miter;stroke-width:0.75;" x="504.659739" xlink:href="#m80db0b7283" y="97.316502"/>
     <use style="fill:#98df8a;stroke:#ffffff;stroke-linejoin:miter;stroke-width:0.75;" x="511.956553" xlink:href="#m80db0b7283" y="97.252964"/>
     <use style="fill:#98df8a;stroke:#ffffff;stroke-linejoin:miter;stroke-width:0.75;" x="518.897281" xlink:href="#m80db0b7283" y="97.252964"/>
     <use style="fill:#98df8a;stroke:#ffffff;stroke-linejoin:miter;stroke-width:0.75;" x="525.515065" xlink:href="#m80db0b7283" y="97.189426"/>
     <use style="fill:#98df8a;stroke:#ffffff;stroke-linejoin:miter;stroke-width:0.75;" x="531.838626" xlink:href="#m80db0b7283" y="97.062351"/>
     <use style="fill:#98df8a;stroke:#ffffff;stroke-linejoin:miter;stroke-width:0.75;" x="537.893016" xlink:href="#m80db0b7283" y="96.998813"/>
     <use style="fill:#98df8a;stroke:#ffffff;stroke-linejoin:miter;stroke-width:0.75;" x="543.700218" xlink:href="#m80db0b7283" y="96.554049"/>
     <use style="fill:#98df8a;stroke:#ffffff;stroke-linejoin:miter;stroke-width:0.75;" x="549.279627" xlink:href="#m80db0b7283" y="96.23636"/>
     <use style="fill:#98df8a;stroke:#ffffff;stroke-linejoin:miter;stroke-width:0.75;" x="554.648441" xlink:href="#m80db0b7283" y="96.23636"/>
     <use style="fill:#98df8a;stroke:#ffffff;stroke-linejoin:miter;stroke-width:0.75;" x="559.821982" xlink:href="#m80db0b7283" y="96.109285"/>
     <use style="fill:#98df8a;stroke:#ffffff;stroke-linejoin:miter;stroke-width:0.75;" x="564.813957" xlink:href="#m80db0b7283" y="96.109285"/>
     <use style="fill:#98df8a;stroke:#ffffff;stroke-linejoin:miter;stroke-width:0.75;" x="569.63668" xlink:href="#m80db0b7283" y="93.567774"/>
     <use style="fill:#98df8a;stroke:#ffffff;stroke-linejoin:miter;stroke-width:0.75;" x="574.301252" xlink:href="#m80db0b7283" y="93.504237"/>
     <use style="fill:#98df8a;stroke:#ffffff;stroke-linejoin:miter;stroke-width:0.75;" x="578.817717" xlink:href="#m80db0b7283" y="91.089802"/>
     <use style="fill:#98df8a;stroke:#ffffff;stroke-linejoin:miter;stroke-width:0.75;" x="583.195191" xlink:href="#m80db0b7283" y="90.962726"/>
     <use style="fill:#98df8a;stroke:#ffffff;stroke-linejoin:miter;stroke-width:0.75;" x="587.441975" xlink:href="#m80db0b7283" y="90.962726"/>
     <use style="fill:#98df8a;stroke:#ffffff;stroke-linejoin:miter;stroke-width:0.75;" x="591.565646" xlink:href="#m80db0b7283" y="90.899189"/>
     <use style="fill:#98df8a;stroke:#ffffff;stroke-linejoin:miter;stroke-width:0.75;" x="595.573142" xlink:href="#m80db0b7283" y="90.772113"/>
     <use style="fill:#98df8a;stroke:#ffffff;stroke-linejoin:miter;stroke-width:0.75;" x="599.47083" xlink:href="#m80db0b7283" y="90.708575"/>
     <use style="fill:#98df8a;stroke:#ffffff;stroke-linejoin:miter;stroke-width:0.75;" x="603.264566" xlink:href="#m80db0b7283" y="90.708575"/>
     <use style="fill:#98df8a;stroke:#ffffff;stroke-linejoin:miter;stroke-width:0.75;" x="606.959753" xlink:href="#m80db0b7283" y="90.645038"/>
     <use style="fill:#98df8a;stroke:#ffffff;stroke-linejoin:miter;stroke-width:0.75;" x="610.561381" xlink:href="#m80db0b7283" y="90.517962"/>
     <use style="fill:#98df8a;stroke:#ffffff;stroke-linejoin:miter;stroke-width:0.75;" x="614.07407" xlink:href="#m80db0b7283" y="89.691971"/>
     <use style="fill:#98df8a;stroke:#ffffff;stroke-linejoin:miter;stroke-width:0.75;" x="617.502108" xlink:href="#m80db0b7283" y="89.691971"/>
     <use style="fill:#98df8a;stroke:#ffffff;stroke-linejoin:miter;stroke-width:0.75;" x="620.849479" xlink:href="#m80db0b7283" y="89.691971"/>
     <use style="fill:#98df8a;stroke:#ffffff;stroke-linejoin:miter;stroke-width:0.75;" x="624.119892" xlink:href="#m80db0b7283" y="89.564896"/>
     <use style="fill:#98df8a;stroke:#ffffff;stroke-linejoin:miter;stroke-width:0.75;" x="627.316806" xlink:href="#m80db0b7283" y="89.501358"/>
     <use style="fill:#98df8a;stroke:#ffffff;stroke-linejoin:miter;stroke-width:0.75;" x="630.443453" xlink:href="#m80db0b7283" y="89.247207"/>
     <use style="fill:#98df8a;stroke:#ffffff;stroke-linejoin:miter;stroke-width:0.75;" x="633.502855" xlink:href="#m80db0b7283" y="89.247207"/>
     <use style="fill:#98df8a;stroke:#ffffff;stroke-linejoin:miter;stroke-width:0.75;" x="636.497843" xlink:href="#m80db0b7283" y="89.247207"/>
     <use style="fill:#98df8a;stroke:#ffffff;stroke-linejoin:miter;stroke-width:0.75;" x="639.431075" xlink:href="#m80db0b7283" y="89.056594"/>
     <use style="fill:#98df8a;stroke:#ffffff;stroke-linejoin:miter;stroke-width:0.75;" x="642.305045" xlink:href="#m80db0b7283" y="89.056594"/>
     <use style="fill:#98df8a;stroke:#ffffff;stroke-linejoin:miter;stroke-width:0.75;" x="645.122101" xlink:href="#m80db0b7283" y="89.056594"/>
     <use style="fill:#98df8a;stroke:#ffffff;stroke-linejoin:miter;stroke-width:0.75;" x="647.884454" xlink:href="#m80db0b7283" y="88.929518"/>
     <use style="fill:#98df8a;stroke:#ffffff;stroke-linejoin:miter;stroke-width:0.75;" x="650.594187" xlink:href="#m80db0b7283" y="88.802443"/>
     <use style="fill:#98df8a;stroke:#ffffff;stroke-linejoin:miter;stroke-width:0.75;" x="653.253268" xlink:href="#m80db0b7283" y="88.61183"/>
     <use style="fill:#98df8a;stroke:#ffffff;stroke-linejoin:miter;stroke-width:0.75;" x="655.863556" xlink:href="#m80db0b7283" y="88.61183"/>
     <use style="fill:#98df8a;stroke:#ffffff;stroke-linejoin:miter;stroke-width:0.75;" x="658.426809" xlink:href="#m80db0b7283" y="88.61183"/>
     <use style="fill:#98df8a;stroke:#ffffff;stroke-linejoin:miter;stroke-width:0.75;" x="660.944693" xlink:href="#m80db0b7283" y="88.421216"/>
     <use style="fill:#98df8a;stroke:#ffffff;stroke-linejoin:miter;stroke-width:0.75;" x="663.418785" xlink:href="#m80db0b7283" y="88.357679"/>
     <use style="fill:#98df8a;stroke:#ffffff;stroke-linejoin:miter;stroke-width:0.75;" x="665.850582" xlink:href="#m80db0b7283" y="88.357679"/>
     <use style="fill:#98df8a;stroke:#ffffff;stroke-linejoin:miter;stroke-width:0.75;" x="668.241507" xlink:href="#m80db0b7283" y="88.357679"/>
     <use style="fill:#98df8a;stroke:#ffffff;stroke-linejoin:miter;stroke-width:0.75;" x="670.592911" xlink:href="#m80db0b7283" y="88.357679"/>
     <use style="fill:#98df8a;stroke:#ffffff;stroke-linejoin:miter;stroke-width:0.75;" x="672.906079" xlink:href="#m80db0b7283" y="88.357679"/>
     <use style="fill:#98df8a;stroke:#ffffff;stroke-linejoin:miter;stroke-width:0.75;" x="675.182235" xlink:href="#m80db0b7283" y="86.705697"/>
     <use style="fill:#98df8a;stroke:#ffffff;stroke-linejoin:miter;stroke-width:0.75;" x="677.422544" xlink:href="#m80db0b7283" y="86.578621"/>
     <use style="fill:#98df8a;stroke:#ffffff;stroke-linejoin:miter;stroke-width:0.75;" x="679.628118" xlink:href="#m80db0b7283" y="86.515084"/>
     <use style="fill:#98df8a;stroke:#ffffff;stroke-linejoin:miter;stroke-width:0.75;" x="681.800019" xlink:href="#m80db0b7283" y="86.515084"/>
     <use style="fill:#98df8a;stroke:#ffffff;stroke-linejoin:miter;stroke-width:0.75;" x="683.939257" xlink:href="#m80db0b7283" y="86.515084"/>
     <use style="fill:#98df8a;stroke:#ffffff;stroke-linejoin:miter;stroke-width:0.75;" x="686.046802" xlink:href="#m80db0b7283" y="86.515084"/>
     <use style="fill:#98df8a;stroke:#ffffff;stroke-linejoin:miter;stroke-width:0.75;" x="688.123579" xlink:href="#m80db0b7283" y="86.515084"/>
     <use style="fill:#98df8a;stroke:#ffffff;stroke-linejoin:miter;stroke-width:0.75;" x="690.170474" xlink:href="#m80db0b7283" y="86.515084"/>
     <use style="fill:#98df8a;stroke:#ffffff;stroke-linejoin:miter;stroke-width:0.75;" x="692.188333" xlink:href="#m80db0b7283" y="86.515084"/>
     <use style="fill:#98df8a;stroke:#ffffff;stroke-linejoin:miter;stroke-width:0.75;" x="694.177969" xlink:href="#m80db0b7283" y="86.197395"/>
     <use style="fill:#98df8a;stroke:#ffffff;stroke-linejoin:miter;stroke-width:0.75;" x="696.140162" xlink:href="#m80db0b7283" y="86.133857"/>
     <use style="fill:#98df8a;stroke:#ffffff;stroke-linejoin:miter;stroke-width:0.75;" x="698.075657" xlink:href="#m80db0b7283" y="86.133857"/>
     <use style="fill:#98df8a;stroke:#ffffff;stroke-linejoin:miter;stroke-width:0.75;" x="699.985172" xlink:href="#m80db0b7283" y="86.133857"/>
     <use style="fill:#98df8a;stroke:#ffffff;stroke-linejoin:miter;stroke-width:0.75;" x="701.869394" xlink:href="#m80db0b7283" y="86.133857"/>
     <use style="fill:#98df8a;stroke:#ffffff;stroke-linejoin:miter;stroke-width:0.75;" x="703.728985" xlink:href="#m80db0b7283" y="86.006782"/>
     <use style="fill:#98df8a;stroke:#ffffff;stroke-linejoin:miter;stroke-width:0.75;" x="705.564581" xlink:href="#m80db0b7283" y="85.943244"/>
     <use style="fill:#98df8a;stroke:#ffffff;stroke-linejoin:miter;stroke-width:0.75;" x="707.376792" xlink:href="#m80db0b7283" y="84.92664"/>
     <use style="fill:#98df8a;stroke:#ffffff;stroke-linejoin:miter;stroke-width:0.75;" x="709.166208" xlink:href="#m80db0b7283" y="84.92664"/>
     <use style="fill:#98df8a;stroke:#ffffff;stroke-linejoin:miter;stroke-width:0.75;" x="710.933395" xlink:href="#m80db0b7283" y="84.863102"/>
     <use style="fill:#98df8a;stroke:#ffffff;stroke-linejoin:miter;stroke-width:0.75;" x="712.678898" xlink:href="#m80db0b7283" y="84.863102"/>
     <use style="fill:#98df8a;stroke:#ffffff;stroke-linejoin:miter;stroke-width:0.75;" x="714.403242" xlink:href="#m80db0b7283" y="84.799564"/>
     <use style="fill:#98df8a;stroke:#ffffff;stroke-linejoin:miter;stroke-width:0.75;" x="716.106936" xlink:href="#m80db0b7283" y="84.799564"/>
     <use style="fill:#98df8a;stroke:#ffffff;stroke-linejoin:miter;stroke-width:0.75;" x="717.790467" xlink:href="#m80db0b7283" y="84.799564"/>
     <use style="fill:#98df8a;stroke:#ffffff;stroke-linejoin:miter;stroke-width:0.75;" x="719.454307" xlink:href="#m80db0b7283" y="84.799564"/>
     <use style="fill:#98df8a;stroke:#ffffff;stroke-linejoin:miter;stroke-width:0.75;" x="721.098911" xlink:href="#m80db0b7283" y="84.672489"/>
     <use style="fill:#98df8a;stroke:#ffffff;stroke-linejoin:miter;stroke-width:0.75;" x="722.724719" xlink:href="#m80db0b7283" y="84.545413"/>
     <use style="fill:#98df8a;stroke:#ffffff;stroke-linejoin:miter;stroke-width:0.75;" x="724.332157" xlink:href="#m80db0b7283" y="84.545413"/>
     <use style="fill:#98df8a;stroke:#ffffff;stroke-linejoin:miter;stroke-width:0.75;" x="725.921634" xlink:href="#m80db0b7283" y="84.545413"/>
     <use style="fill:#98df8a;stroke:#ffffff;stroke-linejoin:miter;stroke-width:0.75;" x="727.493547" xlink:href="#m80db0b7283" y="84.481875"/>
     <use style="fill:#98df8a;stroke:#ffffff;stroke-linejoin:miter;stroke-width:0.75;" x="729.04828" xlink:href="#m80db0b7283" y="84.481875"/>
     <use style="fill:#98df8a;stroke:#ffffff;stroke-linejoin:miter;stroke-width:0.75;" x="730.586206" xlink:href="#m80db0b7283" y="84.481875"/>
     <use style="fill:#98df8a;stroke:#ffffff;stroke-linejoin:miter;stroke-width:0.75;" x="732.107682" xlink:href="#m80db0b7283" y="84.481875"/>
     <use style="fill:#98df8a;stroke:#ffffff;stroke-linejoin:miter;stroke-width:0.75;" x="733.613058" xlink:href="#m80db0b7283" y="84.481875"/>
     <use style="fill:#98df8a;stroke:#ffffff;stroke-linejoin:miter;stroke-width:0.75;" x="735.10267" xlink:href="#m80db0b7283" y="84.481875"/>
    </g>
   </g>
   <g id="line2d_40">
    <path clip-path="url(#p4a8587c3fb)" d="M 85.79358 150.084607 
L 184.398407 149.9893 
L 242.078533 149.9893 
L 283.003234 149.925763 
L 314.746899 149.893994 
L 340.683361 150.688216 
L 362.612327 150.688216 
L 381.608062 150.688216 
L 398.363487 150.688216 
L 413.351726 150.688216 
L 426.910237 150.688216 
L 439.288188 150.688216 
L 450.674799 150.688216 
L 461.217155 150.688216 
L 471.031852 150.688216 
L 480.212889 150.688216 
L 488.837148 150.688216 
L 496.968315 150.688216 
L 504.659739 150.688216 
L 511.956553 150.688216 
L 518.897281 150.688216 
L 525.515065 146.240573 
L 531.838626 146.240573 
L 537.893016 142.36477 
L 543.700218 142.36477 
L 549.279627 142.36477 
L 554.648441 142.36477 
L 559.821982 142.36477 
L 564.813957 142.36477 
L 569.63668 142.237694 
L 574.301252 142.237694 
L 578.817717 142.047081 
L 583.195191 142.047081 
L 587.441975 142.047081 
L 591.565646 142.047081 
L 595.573142 142.047081 
L 599.47083 142.047081 
L 603.264566 142.047081 
L 606.959753 142.047081 
L 610.561381 142.047081 
L 614.07407 142.047081 
L 617.502108 142.047081 
L 620.849479 142.047081 
L 624.119892 142.047081 
L 627.316806 142.047081 
L 630.443453 142.047081 
L 633.502855 142.047081 
L 636.497843 142.047081 
L 639.431075 142.047081 
L 642.305045 142.047081 
L 645.122101 141.983543 
L 647.884454 141.983543 
L 650.594187 141.983543 
L 653.253268 141.983543 
L 655.863556 141.983543 
L 658.426809 141.983543 
L 660.944693 141.983543 
L 663.418785 141.983543 
L 665.850582 141.983543 
L 668.241507 141.983543 
L 670.592911 141.983543 
L 672.906079 141.983543 
L 675.182235 139.442033 
L 677.422544 139.442033 
L 679.628118 139.442033 
L 681.800019 139.442033 
L 683.939257 139.442033 
L 686.046802 139.442033 
L 688.123579 139.442033 
L 690.170474 139.442033 
L 692.188333 139.442033 
L 694.177969 139.442033 
L 696.140162 139.442033 
L 698.075657 139.442033 
L 699.985172 139.442033 
L 701.869394 139.442033 
L 703.728985 139.442033 
L 705.564581 139.442033 
L 707.376792 139.442033 
L 709.166208 139.442033 
L 710.933395 139.442033 
L 712.678898 139.442033 
L 714.403242 139.442033 
L 716.106936 139.442033 
L 717.790467 139.442033 
L 719.454307 139.442033 
L 721.098911 139.442033 
L 722.724719 139.442033 
L 724.332157 135.248541 
L 725.921634 135.248541 
L 727.493547 135.248541 
L 729.04828 135.248541 
L 730.586206 135.248541 
L 732.107682 135.248541 
L 733.613058 135.248541 
L 735.10267 135.248541 
" style="fill:none;stroke:#1f77b4;stroke-linecap:square;stroke-width:1.5;"/>
    <defs>
     <path d="M 0 3 
C 0.795609 3 1.55874 2.683901 2.12132 2.12132 
C 2.683901 1.55874 3 0.795609 3 0 
C 3 -0.795609 2.683901 -1.55874 2.12132 -2.12132 
C 1.55874 -2.683901 0.795609 -3 0 -3 
C -0.795609 -3 -1.55874 -2.683901 -2.12132 -2.12132 
C -2.683901 -1.55874 -3 -0.795609 -3 0 
C -3 0.795609 -2.683901 1.55874 -2.12132 2.12132 
C -1.55874 2.683901 -0.795609 3 0 3 
z
" id="m08c35edc84" style="stroke:#ffffff;stroke-width:0.75;"/>
    </defs>
    <g clip-path="url(#p4a8587c3fb)">
     <use style="fill:#1f77b4;stroke:#ffffff;stroke-width:0.75;" x="85.79358" xlink:href="#m08c35edc84" y="150.084607"/>
     <use style="fill:#1f77b4;stroke:#ffffff;stroke-width:0.75;" x="184.398407" xlink:href="#m08c35edc84" y="149.9893"/>
     <use style="fill:#1f77b4;stroke:#ffffff;stroke-width:0.75;" x="242.078533" xlink:href="#m08c35edc84" y="149.9893"/>
     <use style="fill:#1f77b4;stroke:#ffffff;stroke-width:0.75;" x="283.003234" xlink:href="#m08c35edc84" y="149.925763"/>
     <use style="fill:#1f77b4;stroke:#ffffff;stroke-width:0.75;" x="314.746899" xlink:href="#m08c35edc84" y="149.893994"/>
     <use style="fill:#1f77b4;stroke:#ffffff;stroke-width:0.75;" x="340.683361" xlink:href="#m08c35edc84" y="150.688216"/>
     <use style="fill:#1f77b4;stroke:#ffffff;stroke-width:0.75;" x="362.612327" xlink:href="#m08c35edc84" y="150.688216"/>
     <use style="fill:#1f77b4;stroke:#ffffff;stroke-width:0.75;" x="381.608062" xlink:href="#m08c35edc84" y="150.688216"/>
     <use style="fill:#1f77b4;stroke:#ffffff;stroke-width:0.75;" x="398.363487" xlink:href="#m08c35edc84" y="150.688216"/>
     <use style="fill:#1f77b4;stroke:#ffffff;stroke-width:0.75;" x="413.351726" xlink:href="#m08c35edc84" y="150.688216"/>
     <use style="fill:#1f77b4;stroke:#ffffff;stroke-width:0.75;" x="426.910237" xlink:href="#m08c35edc84" y="150.688216"/>
     <use style="fill:#1f77b4;stroke:#ffffff;stroke-width:0.75;" x="439.288188" xlink:href="#m08c35edc84" y="150.688216"/>
     <use style="fill:#1f77b4;stroke:#ffffff;stroke-width:0.75;" x="450.674799" xlink:href="#m08c35edc84" y="150.688216"/>
     <use style="fill:#1f77b4;stroke:#ffffff;stroke-width:0.75;" x="461.217155" xlink:href="#m08c35edc84" y="150.688216"/>
     <use style="fill:#1f77b4;stroke:#ffffff;stroke-width:0.75;" x="471.031852" xlink:href="#m08c35edc84" y="150.688216"/>
     <use style="fill:#1f77b4;stroke:#ffffff;stroke-width:0.75;" x="480.212889" xlink:href="#m08c35edc84" y="150.688216"/>
     <use style="fill:#1f77b4;stroke:#ffffff;stroke-width:0.75;" x="488.837148" xlink:href="#m08c35edc84" y="150.688216"/>
     <use style="fill:#1f77b4;stroke:#ffffff;stroke-width:0.75;" x="496.968315" xlink:href="#m08c35edc84" y="150.688216"/>
     <use style="fill:#1f77b4;stroke:#ffffff;stroke-width:0.75;" x="504.659739" xlink:href="#m08c35edc84" y="150.688216"/>
     <use style="fill:#1f77b4;stroke:#ffffff;stroke-width:0.75;" x="511.956553" xlink:href="#m08c35edc84" y="150.688216"/>
     <use style="fill:#1f77b4;stroke:#ffffff;stroke-width:0.75;" x="518.897281" xlink:href="#m08c35edc84" y="150.688216"/>
     <use style="fill:#1f77b4;stroke:#ffffff;stroke-width:0.75;" x="525.515065" xlink:href="#m08c35edc84" y="146.240573"/>
     <use style="fill:#1f77b4;stroke:#ffffff;stroke-width:0.75;" x="531.838626" xlink:href="#m08c35edc84" y="146.240573"/>
     <use style="fill:#1f77b4;stroke:#ffffff;stroke-width:0.75;" x="537.893016" xlink:href="#m08c35edc84" y="142.36477"/>
     <use style="fill:#1f77b4;stroke:#ffffff;stroke-width:0.75;" x="543.700218" xlink:href="#m08c35edc84" y="142.36477"/>
     <use style="fill:#1f77b4;stroke:#ffffff;stroke-width:0.75;" x="549.279627" xlink:href="#m08c35edc84" y="142.36477"/>
     <use style="fill:#1f77b4;stroke:#ffffff;stroke-width:0.75;" x="554.648441" xlink:href="#m08c35edc84" y="142.36477"/>
     <use style="fill:#1f77b4;stroke:#ffffff;stroke-width:0.75;" x="559.821982" xlink:href="#m08c35edc84" y="142.36477"/>
     <use style="fill:#1f77b4;stroke:#ffffff;stroke-width:0.75;" x="564.813957" xlink:href="#m08c35edc84" y="142.36477"/>
     <use style="fill:#1f77b4;stroke:#ffffff;stroke-width:0.75;" x="569.63668" xlink:href="#m08c35edc84" y="142.237694"/>
     <use style="fill:#1f77b4;stroke:#ffffff;stroke-width:0.75;" x="574.301252" xlink:href="#m08c35edc84" y="142.237694"/>
     <use style="fill:#1f77b4;stroke:#ffffff;stroke-width:0.75;" x="578.817717" xlink:href="#m08c35edc84" y="142.047081"/>
     <use style="fill:#1f77b4;stroke:#ffffff;stroke-width:0.75;" x="583.195191" xlink:href="#m08c35edc84" y="142.047081"/>
     <use style="fill:#1f77b4;stroke:#ffffff;stroke-width:0.75;" x="587.441975" xlink:href="#m08c35edc84" y="142.047081"/>
     <use style="fill:#1f77b4;stroke:#ffffff;stroke-width:0.75;" x="591.565646" xlink:href="#m08c35edc84" y="142.047081"/>
     <use style="fill:#1f77b4;stroke:#ffffff;stroke-width:0.75;" x="595.573142" xlink:href="#m08c35edc84" y="142.047081"/>
     <use style="fill:#1f77b4;stroke:#ffffff;stroke-width:0.75;" x="599.47083" xlink:href="#m08c35edc84" y="142.047081"/>
     <use style="fill:#1f77b4;stroke:#ffffff;stroke-width:0.75;" x="603.264566" xlink:href="#m08c35edc84" y="142.047081"/>
     <use style="fill:#1f77b4;stroke:#ffffff;stroke-width:0.75;" x="606.959753" xlink:href="#m08c35edc84" y="142.047081"/>
     <use style="fill:#1f77b4;stroke:#ffffff;stroke-width:0.75;" x="610.561381" xlink:href="#m08c35edc84" y="142.047081"/>
     <use style="fill:#1f77b4;stroke:#ffffff;stroke-width:0.75;" x="614.07407" xlink:href="#m08c35edc84" y="142.047081"/>
     <use style="fill:#1f77b4;stroke:#ffffff;stroke-width:0.75;" x="617.502108" xlink:href="#m08c35edc84" y="142.047081"/>
     <use style="fill:#1f77b4;stroke:#ffffff;stroke-width:0.75;" x="620.849479" xlink:href="#m08c35edc84" y="142.047081"/>
     <use style="fill:#1f77b4;stroke:#ffffff;stroke-width:0.75;" x="624.119892" xlink:href="#m08c35edc84" y="142.047081"/>
     <use style="fill:#1f77b4;stroke:#ffffff;stroke-width:0.75;" x="627.316806" xlink:href="#m08c35edc84" y="142.047081"/>
     <use style="fill:#1f77b4;stroke:#ffffff;stroke-width:0.75;" x="630.443453" xlink:href="#m08c35edc84" y="142.047081"/>
     <use style="fill:#1f77b4;stroke:#ffffff;stroke-width:0.75;" x="633.502855" xlink:href="#m08c35edc84" y="142.047081"/>
     <use style="fill:#1f77b4;stroke:#ffffff;stroke-width:0.75;" x="636.497843" xlink:href="#m08c35edc84" y="142.047081"/>
     <use style="fill:#1f77b4;stroke:#ffffff;stroke-width:0.75;" x="639.431075" xlink:href="#m08c35edc84" y="142.047081"/>
     <use style="fill:#1f77b4;stroke:#ffffff;stroke-width:0.75;" x="642.305045" xlink:href="#m08c35edc84" y="142.047081"/>
     <use style="fill:#1f77b4;stroke:#ffffff;stroke-width:0.75;" x="645.122101" xlink:href="#m08c35edc84" y="141.983543"/>
     <use style="fill:#1f77b4;stroke:#ffffff;stroke-width:0.75;" x="647.884454" xlink:href="#m08c35edc84" y="141.983543"/>
     <use style="fill:#1f77b4;stroke:#ffffff;stroke-width:0.75;" x="650.594187" xlink:href="#m08c35edc84" y="141.983543"/>
     <use style="fill:#1f77b4;stroke:#ffffff;stroke-width:0.75;" x="653.253268" xlink:href="#m08c35edc84" y="141.983543"/>
     <use style="fill:#1f77b4;stroke:#ffffff;stroke-width:0.75;" x="655.863556" xlink:href="#m08c35edc84" y="141.983543"/>
     <use style="fill:#1f77b4;stroke:#ffffff;stroke-width:0.75;" x="658.426809" xlink:href="#m08c35edc84" y="141.983543"/>
     <use style="fill:#1f77b4;stroke:#ffffff;stroke-width:0.75;" x="660.944693" xlink:href="#m08c35edc84" y="141.983543"/>
     <use style="fill:#1f77b4;stroke:#ffffff;stroke-width:0.75;" x="663.418785" xlink:href="#m08c35edc84" y="141.983543"/>
     <use style="fill:#1f77b4;stroke:#ffffff;stroke-width:0.75;" x="665.850582" xlink:href="#m08c35edc84" y="141.983543"/>
     <use style="fill:#1f77b4;stroke:#ffffff;stroke-width:0.75;" x="668.241507" xlink:href="#m08c35edc84" y="141.983543"/>
     <use style="fill:#1f77b4;stroke:#ffffff;stroke-width:0.75;" x="670.592911" xlink:href="#m08c35edc84" y="141.983543"/>
     <use style="fill:#1f77b4;stroke:#ffffff;stroke-width:0.75;" x="672.906079" xlink:href="#m08c35edc84" y="141.983543"/>
     <use style="fill:#1f77b4;stroke:#ffffff;stroke-width:0.75;" x="675.182235" xlink:href="#m08c35edc84" y="139.442033"/>
     <use style="fill:#1f77b4;stroke:#ffffff;stroke-width:0.75;" x="677.422544" xlink:href="#m08c35edc84" y="139.442033"/>
     <use style="fill:#1f77b4;stroke:#ffffff;stroke-width:0.75;" x="679.628118" xlink:href="#m08c35edc84" y="139.442033"/>
     <use style="fill:#1f77b4;stroke:#ffffff;stroke-width:0.75;" x="681.800019" xlink:href="#m08c35edc84" y="139.442033"/>
     <use style="fill:#1f77b4;stroke:#ffffff;stroke-width:0.75;" x="683.939257" xlink:href="#m08c35edc84" y="139.442033"/>
     <use style="fill:#1f77b4;stroke:#ffffff;stroke-width:0.75;" x="686.046802" xlink:href="#m08c35edc84" y="139.442033"/>
     <use style="fill:#1f77b4;stroke:#ffffff;stroke-width:0.75;" x="688.123579" xlink:href="#m08c35edc84" y="139.442033"/>
     <use style="fill:#1f77b4;stroke:#ffffff;stroke-width:0.75;" x="690.170474" xlink:href="#m08c35edc84" y="139.442033"/>
     <use style="fill:#1f77b4;stroke:#ffffff;stroke-width:0.75;" x="692.188333" xlink:href="#m08c35edc84" y="139.442033"/>
     <use style="fill:#1f77b4;stroke:#ffffff;stroke-width:0.75;" x="694.177969" xlink:href="#m08c35edc84" y="139.442033"/>
     <use style="fill:#1f77b4;stroke:#ffffff;stroke-width:0.75;" x="696.140162" xlink:href="#m08c35edc84" y="139.442033"/>
     <use style="fill:#1f77b4;stroke:#ffffff;stroke-width:0.75;" x="698.075657" xlink:href="#m08c35edc84" y="139.442033"/>
     <use style="fill:#1f77b4;stroke:#ffffff;stroke-width:0.75;" x="699.985172" xlink:href="#m08c35edc84" y="139.442033"/>
     <use style="fill:#1f77b4;stroke:#ffffff;stroke-width:0.75;" x="701.869394" xlink:href="#m08c35edc84" y="139.442033"/>
     <use style="fill:#1f77b4;stroke:#ffffff;stroke-width:0.75;" x="703.728985" xlink:href="#m08c35edc84" y="139.442033"/>
     <use style="fill:#1f77b4;stroke:#ffffff;stroke-width:0.75;" x="705.564581" xlink:href="#m08c35edc84" y="139.442033"/>
     <use style="fill:#1f77b4;stroke:#ffffff;stroke-width:0.75;" x="707.376792" xlink:href="#m08c35edc84" y="139.442033"/>
     <use style="fill:#1f77b4;stroke:#ffffff;stroke-width:0.75;" x="709.166208" xlink:href="#m08c35edc84" y="139.442033"/>
     <use style="fill:#1f77b4;stroke:#ffffff;stroke-width:0.75;" x="710.933395" xlink:href="#m08c35edc84" y="139.442033"/>
     <use style="fill:#1f77b4;stroke:#ffffff;stroke-width:0.75;" x="712.678898" xlink:href="#m08c35edc84" y="139.442033"/>
     <use style="fill:#1f77b4;stroke:#ffffff;stroke-width:0.75;" x="714.403242" xlink:href="#m08c35edc84" y="139.442033"/>
     <use style="fill:#1f77b4;stroke:#ffffff;stroke-width:0.75;" x="716.106936" xlink:href="#m08c35edc84" y="139.442033"/>
     <use style="fill:#1f77b4;stroke:#ffffff;stroke-width:0.75;" x="717.790467" xlink:href="#m08c35edc84" y="139.442033"/>
     <use style="fill:#1f77b4;stroke:#ffffff;stroke-width:0.75;" x="719.454307" xlink:href="#m08c35edc84" y="139.442033"/>
     <use style="fill:#1f77b4;stroke:#ffffff;stroke-width:0.75;" x="721.098911" xlink:href="#m08c35edc84" y="139.442033"/>
     <use style="fill:#1f77b4;stroke:#ffffff;stroke-width:0.75;" x="722.724719" xlink:href="#m08c35edc84" y="139.442033"/>
     <use style="fill:#1f77b4;stroke:#ffffff;stroke-width:0.75;" x="724.332157" xlink:href="#m08c35edc84" y="135.248541"/>
     <use style="fill:#1f77b4;stroke:#ffffff;stroke-width:0.75;" x="725.921634" xlink:href="#m08c35edc84" y="135.248541"/>
     <use style="fill:#1f77b4;stroke:#ffffff;stroke-width:0.75;" x="727.493547" xlink:href="#m08c35edc84" y="135.248541"/>
     <use style="fill:#1f77b4;stroke:#ffffff;stroke-width:0.75;" x="729.04828" xlink:href="#m08c35edc84" y="135.248541"/>
     <use style="fill:#1f77b4;stroke:#ffffff;stroke-width:0.75;" x="730.586206" xlink:href="#m08c35edc84" y="135.248541"/>
     <use style="fill:#1f77b4;stroke:#ffffff;stroke-width:0.75;" x="732.107682" xlink:href="#m08c35edc84" y="135.248541"/>
     <use style="fill:#1f77b4;stroke:#ffffff;stroke-width:0.75;" x="733.613058" xlink:href="#m08c35edc84" y="135.248541"/>
     <use style="fill:#1f77b4;stroke:#ffffff;stroke-width:0.75;" x="735.10267" xlink:href="#m08c35edc84" y="135.248541"/>
    </g>
   </g>
   <g id="line2d_41"/>
   <g id="line2d_42"/>
   <g id="line2d_43">
    <path clip-path="url(#p4a8587c3fb)" d="M 735.10267 288.430125 
L 735.10267 22.318125 
" style="fill:none;stroke:#ff0000;stroke-linecap:square;stroke-width:1.5;"/>
   </g>
   <g id="patch_3">
    <path d="M 53.328125 279.669857 
L 53.328125 25.518839 
" style="fill:none;stroke:#000000;stroke-linecap:square;stroke-linejoin:miter;stroke-width:0.8;"/>
   </g>
   <g id="patch_4">
    <path d="M 85.79358 288.430125 
L 735.104317 288.430125 
" style="fill:none;stroke:#000000;stroke-linecap:square;stroke-linejoin:miter;stroke-width:0.8;"/>
   </g>
   <g id="text_24">
    <!-- bloaty_fuzz_target (24h, 15 trials/fuzzer) -->
    <g transform="translate(288.534688 16.318125)scale(0.12 -0.12)">
     <defs>
      <path d="M 603 4863 
L 1178 4863 
L 1178 0 
L 603 0 
L 603 4863 
z
" id="DejaVuSans-6c" transform="scale(0.015625)"/>
      <path d="M 2059 -325 
Q 1816 -950 1584 -1140 
Q 1353 -1331 966 -1331 
L 506 -1331 
L 506 -850 
L 844 -850 
Q 1081 -850 1212 -737 
Q 1344 -625 1503 -206 
L 1606 56 
L 191 3500 
L 800 3500 
L 1894 763 
L 2988 3500 
L 3597 3500 
L 2059 -325 
z
" id="DejaVuSans-79" transform="scale(0.015625)"/>
      <path d="M 3263 -1063 
L 3263 -1509 
L -63 -1509 
L -63 -1063 
L 3263 -1063 
z
" id="DejaVuSans-5f" transform="scale(0.015625)"/>
      <path d="M 2375 4863 
L 2375 4384 
L 1825 4384 
Q 1516 4384 1395 4259 
Q 1275 4134 1275 3809 
L 1275 3500 
L 2222 3500 
L 2222 3053 
L 1275 3053 
L 1275 0 
L 697 0 
L 697 3053 
L 147 3053 
L 147 3500 
L 697 3500 
L 697 3744 
Q 697 4328 969 4595 
Q 1241 4863 1831 4863 
L 2375 4863 
z
" id="DejaVuSans-66" transform="scale(0.015625)"/>
      <path d="M 353 3500 
L 3084 3500 
L 3084 2975 
L 922 459 
L 3084 459 
L 3084 0 
L 275 0 
L 275 525 
L 2438 3041 
L 353 3041 
L 353 3500 
z
" id="DejaVuSans-7a" transform="scale(0.015625)"/>
      <path d="M 750 794 
L 1409 794 
L 1409 256 
L 897 -744 
L 494 -744 
L 750 256 
L 750 794 
z
" id="DejaVuSans-2c" transform="scale(0.015625)"/>
      <path d="M 2834 3397 
L 2834 2853 
Q 2591 2978 2328 3040 
Q 2066 3103 1784 3103 
Q 1356 3103 1142 2972 
Q 928 2841 928 2578 
Q 928 2378 1081 2264 
Q 1234 2150 1697 2047 
L 1894 2003 
Q 2506 1872 2764 1633 
Q 3022 1394 3022 966 
Q 3022 478 2636 193 
Q 2250 -91 1575 -91 
Q 1294 -91 989 -36 
Q 684 19 347 128 
L 347 722 
Q 666 556 975 473 
Q 1284 391 1588 391 
Q 1994 391 2212 530 
Q 2431 669 2431 922 
Q 2431 1156 2273 1281 
Q 2116 1406 1581 1522 
L 1381 1569 
Q 847 1681 609 1914 
Q 372 2147 372 2553 
Q 372 3047 722 3315 
Q 1072 3584 1716 3584 
Q 2034 3584 2315 3537 
Q 2597 3491 2834 3397 
z
" id="DejaVuSans-73" transform="scale(0.015625)"/>
      <path d="M 1625 4666 
L 2156 4666 
L 531 -594 
L 0 -594 
L 1625 4666 
z
" id="DejaVuSans-2f" transform="scale(0.015625)"/>
     </defs>
     <use xlink:href="#DejaVuSans-62"/>
     <use x="63.476562" xlink:href="#DejaVuSans-6c"/>
     <use x="91.259766" xlink:href="#DejaVuSans-6f"/>
     <use x="152.441406" xlink:href="#DejaVuSans-61"/>
     <use x="213.720703" xlink:href="#DejaVuSans-74"/>
     <use x="252.929688" xlink:href="#DejaVuSans-79"/>
     <use x="312.109375" xlink:href="#DejaVuSans-5f"/>
     <use x="362.109375" xlink:href="#DejaVuSans-66"/>
     <use x="397.314453" xlink:href="#DejaVuSans-75"/>
     <use x="460.693359" xlink:href="#DejaVuSans-7a"/>
     <use x="513.183594" xlink:href="#DejaVuSans-7a"/>
     <use x="565.673828" xlink:href="#DejaVuSans-5f"/>
     <use x="615.673828" xlink:href="#DejaVuSans-74"/>
     <use x="654.882812" xlink:href="#DejaVuSans-61"/>
     <use x="716.162109" xlink:href="#DejaVuSans-72"/>
     <use x="755.525391" xlink:href="#DejaVuSans-67"/>
     <use x="819.001953" xlink:href="#DejaVuSans-65"/>
     <use x="880.525391" xlink:href="#DejaVuSans-74"/>
     <use x="919.734375" xlink:href="#DejaVuSans-20"/>
     <use x="951.521484" xlink:href="#DejaVuSans-28"/>
     <use x="990.535156" xlink:href="#DejaVuSans-32"/>
     <use x="1054.158203" xlink:href="#DejaVuSans-34"/>
     <use x="1117.78125" xlink:href="#DejaVuSans-68"/>
     <use x="1181.160156" xlink:href="#DejaVuSans-2c"/>
     <use x="1212.947266" xlink:href="#DejaVuSans-20"/>
     <use x="1244.734375" xlink:href="#DejaVuSans-31"/>
     <use x="1308.357422" xlink:href="#DejaVuSans-35"/>
     <use x="1371.980469" xlink:href="#DejaVuSans-20"/>
     <use x="1403.767578" xlink:href="#DejaVuSans-74"/>
     <use x="1442.976562" xlink:href="#DejaVuSans-72"/>
     <use x="1484.089844" xlink:href="#DejaVuSans-69"/>
     <use x="1511.873047" xlink:href="#DejaVuSans-61"/>
     <use x="1573.152344" xlink:href="#DejaVuSans-6c"/>
     <use x="1600.935547" xlink:href="#DejaVuSans-73"/>
     <use x="1653.035156" xlink:href="#DejaVuSans-2f"/>
     <use x="1686.726562" xlink:href="#DejaVuSans-66"/>
     <use x="1721.931641" xlink:href="#DejaVuSans-75"/>
     <use x="1785.310547" xlink:href="#DejaVuSans-7a"/>
     <use x="1837.800781" xlink:href="#DejaVuSans-7a"/>
     <use x="1890.291016" xlink:href="#DejaVuSans-65"/>
     <use x="1951.814453" xlink:href="#DejaVuSans-72"/>
     <use x="1992.927734" xlink:href="#DejaVuSans-29"/>
    </g>
   </g>
   <g id="legend_1">
    <g id="line2d_44">
     <path d="M 771.568125 30.416562 
L 791.568125 30.416562 
" style="fill:none;stroke:#98df8a;stroke-linecap:square;stroke-width:1.5;"/>
    </g>
    <g id="line2d_45">
     <defs>
      <path d="M -0 3 
L 3 -3 
L -3 -3 
z
" id="m3531d81e05" style="stroke:#98df8a;stroke-linejoin:miter;"/>
     </defs>
     <g>
      <use style="fill:#98df8a;stroke:#98df8a;stroke-linejoin:miter;" x="781.568125" xlink:href="#m3531d81e05" y="30.416562"/>
     </g>
    </g>
    <g id="text_25">
     <!-- libfuzzer -->
     <g transform="translate(799.568125 33.916562)scale(0.1 -0.1)">
      <use xlink:href="#DejaVuSans-6c"/>
      <use x="27.783203" xlink:href="#DejaVuSans-69"/>
      <use x="55.566406" xlink:href="#DejaVuSans-62"/>
      <use x="119.042969" xlink:href="#DejaVuSans-66"/>
      <use x="154.248047" xlink:href="#DejaVuSans-75"/>
      <use x="217.626953" xlink:href="#DejaVuSans-7a"/>
      <use x="270.117188" xlink:href="#DejaVuSans-7a"/>
      <use x="322.607422" xlink:href="#DejaVuSans-65"/>
      <use x="384.130859" xlink:href="#DejaVuSans-72"/>
     </g>
    </g>
    <g id="line2d_46">
     <path d="M 771.568125 45.094688 
L 791.568125 45.094688 
" style="fill:none;stroke:#1f77b4;stroke-linecap:square;stroke-width:1.5;"/>
    </g>
    <g id="line2d_47">
     <defs>
      <path d="M 0 3 
C 0.795609 3 1.55874 2.683901 2.12132 2.12132 
C 2.683901 1.55874 3 0.795609 3 0 
C 3 -0.795609 2.683901 -1.55874 2.12132 -2.12132 
C 1.55874 -2.683901 0.795609 -3 0 -3 
C -0.795609 -3 -1.55874 -2.683901 -2.12132 -2.12132 
C -2.683901 -1.55874 -3 -0.795609 -3 0 
C -3 0.795609 -2.683901 1.55874 -2.12132 2.12132 
C -1.55874 2.683901 -0.795609 3 0 3 
z
" id="m045705321c" style="stroke:#1f77b4;"/>
     </defs>
     <g>
      <use style="fill:#1f77b4;stroke:#1f77b4;" x="781.568125" xlink:href="#m045705321c" y="45.094688"/>
     </g>
    </g>
    <g id="text_26">
     <!-- aflplusplus -->
     <g transform="translate(799.568125 48.594688)scale(0.1 -0.1)">
      <defs>
       <path d="M 1159 525 
L 1159 -1331 
L 581 -1331 
L 581 3500 
L 1159 3500 
L 1159 2969 
Q 1341 3281 1617 3432 
Q 1894 3584 2278 3584 
Q 2916 3584 3314 3078 
Q 3713 2572 3713 1747 
Q 3713 922 3314 415 
Q 2916 -91 2278 -91 
Q 1894 -91 1617 61 
Q 1341 213 1159 525 
z
M 3116 1747 
Q 3116 2381 2855 2742 
Q 2594 3103 2138 3103 
Q 1681 3103 1420 2742 
Q 1159 2381 1159 1747 
Q 1159 1113 1420 752 
Q 1681 391 2138 391 
Q 2594 391 2855 752 
Q 3116 1113 3116 1747 
z
" id="DejaVuSans-70" transform="scale(0.015625)"/>
      </defs>
      <use xlink:href="#DejaVuSans-61"/>
      <use x="61.279297" xlink:href="#DejaVuSans-66"/>
      <use x="96.484375" xlink:href="#DejaVuSans-6c"/>
      <use x="124.267578" xlink:href="#DejaVuSans-70"/>
      <use x="187.744141" xlink:href="#DejaVuSans-6c"/>
      <use x="215.527344" xlink:href="#DejaVuSans-75"/>
      <use x="278.90625" xlink:href="#DejaVuSans-73"/>
      <use x="331.005859" xlink:href="#DejaVuSans-70"/>
      <use x="394.482422" xlink:href="#DejaVuSans-6c"/>
      <use x="422.265625" xlink:href="#DejaVuSans-75"/>
      <use x="485.644531" xlink:href="#DejaVuSans-73"/>
     </g>
    </g>
   </g>
  </g>
 </g>
 <defs>
  <clipPath id="p4a8587c3fb">
   <rect height="266.112" width="714.24" x="53.328125" y="22.318125"/>
  </clipPath>
 </defs>
</svg>
