<?xml version="1.0" encoding="utf-8" standalone="no"?>
<!DOCTYPE svg PUBLIC "-//W3C//DTD SVG 1.1//EN"
  "http://www.w3.org/Graphics/SVG/1.1/DTD/svg11.dtd">
<svg height="325.986375pt" version="1.1" viewBox="0 0 870.904062 325.986375" width="870.904062pt" xmlns="http://www.w3.org/2000/svg" xmlns:xlink="http://www.w3.org/1999/xlink">
 <metadata>
  <rdf:RDF xmlns:cc="http://creativecommons.org/ns#" xmlns:dc="http://purl.org/dc/elements/1.1/" xmlns:rdf="http://www.w3.org/1999/02/22-rdf-syntax-ns#">
   <cc:Work>
    <dc:type rdf:resource="http://purl.org/dc/dcmitype/StillImage"/>
    <dc:date>2022-07-04T17:47:07.255007</dc:date>
    <dc:format>image/svg+xml</dc:format>
    <dc:creator>
     <cc:Agent>
      <dc:title>Matplotlib v3.4.1, https://matplotlib.org/</dc:title>
     </cc:Agent>
    </dc:creator>
   </cc:Work>
  </rdf:RDF>
 </metadata>
 <defs>
  <style type="text/css">*{stroke-linecap:butt;stroke-linejoin:round;}</style>
 </defs>
 <g id="figure_1">
  <g id="patch_1">
   <path d="M 0 325.986375 
L 870.904062 325.986375 
L 870.904062 0 
L 0 0 
z
" style="fill:#ffffff;"/>
  </g>
  <g id="axes_1">
   <g id="patch_2">
    <path d="M 59.690625 288.430125 
L 773.930625 288.430125 
L 773.930625 22.318125 
L 59.690625 22.318125 
z
" style="fill:#ffffff;"/>
   </g>
   <g id="PolyCollection_1">
    <defs>
     <path d="M 92.15608 -124.676822 
L 92.15608 -83.669602 
L 98.990912 -114.77804 
L 105.825745 -129.605031 
L 112.660577 -150.348696 
L 119.49541 -150.54639 
L 126.330242 -170.414557 
L 133.165075 -174.283695 
L 139.999907 -176.119418 
L 146.83474 -188.658815 
L 153.669572 -189.873217 
L 160.504405 -195.860497 
L 167.339237 -196.340609 
L 174.17407 -208.710555 
L 181.008903 -209.275393 
L 187.843735 -210.659245 
L 194.678568 -215.771027 
L 201.5134 -217.098395 
L 208.348233 -224.441286 
L 215.183065 -229.214165 
L 222.017898 -230.880436 
L 228.85273 -232.264288 
L 235.687563 -232.603191 
L 242.522395 -234.184737 
L 249.357228 -234.297704 
L 256.19206 -234.297704 
L 263.026893 -234.410672 
L 269.861725 -234.467155 
L 276.696558 -234.862542 
L 283.531391 -235.060235 
L 290.366223 -236.528813 
L 297.201056 -236.528813 
L 304.035888 -236.528813 
L 310.870721 -237.206618 
L 317.705553 -238.082117 
L 324.540386 -238.251568 
L 331.375218 -238.27981 
L 338.210051 -238.802991 
L 345.044883 -238.27981 
L 351.879716 -238.364536 
L 358.714548 -238.449261 
L 365.549381 -238.477503 
L 372.384214 -238.477503 
L 379.219046 -238.929374 
L 386.053879 -238.929374 
L 392.888711 -238.957615 
L 399.723544 -239.014099 
L 406.558376 -240.059049 
L 413.393209 -240.736854 
L 420.228041 -240.736854 
L 427.062874 -240.736854 
L 433.897706 -240.82158 
L 440.732539 -241.075757 
L 447.567371 -241.075757 
L 454.402204 -241.132241 
L 461.237036 -241.132241 
L 468.071869 -241.245208 
L 474.906702 -242.205432 
L 481.741534 -242.205432 
L 488.576367 -243.109173 
L 495.411199 -242.205432 
L 502.246032 -242.3184 
L 509.080864 -242.3184 
L 515.915697 -242.346642 
L 522.750529 -242.403126 
L 529.585362 -242.431367 
L 536.420194 -242.544335 
L 543.255027 -252.717769 
L 550.089859 -243.080931 
L 556.924692 -243.193898 
L 563.759525 -243.193898 
L 570.594357 -243.193898 
L 577.42919 -243.193898 
L 584.264022 -243.193898 
L 591.098855 -243.193898 
L 597.933687 -243.193898 
L 604.76852 -243.871704 
L 611.603352 -243.928187 
L 618.438185 -243.928187 
L 625.273017 -243.928187 
L 632.10785 -243.956429 
L 638.942682 -244.012913 
L 645.777515 -244.012913 
L 652.612347 -244.041155 
L 659.44718 -244.097639 
L 666.282013 -244.097639 
L 673.116845 -244.097639 
L 679.951678 -244.097639 
L 686.78651 -244.097639 
L 693.621343 -244.097639 
L 700.456175 -244.097639 
L 707.291008 -244.097639 
L 714.12584 -244.097639 
L 720.960673 -244.097639 
L 727.795505 -244.097639 
L 734.630338 -244.097639 
L 741.46517 -244.605993 
L 741.46517 -291.57225 
L 741.46517 -291.57225 
L 734.630338 -291.57225 
L 727.795505 -291.57225 
L 720.960673 -291.57225 
L 714.12584 -291.402799 
L 707.291008 -291.261589 
L 700.456175 -291.176864 
L 693.621343 -291.176864 
L 686.78651 -290.5273 
L 679.951678 -290.357849 
L 673.116845 -290.357849 
L 666.282013 -290.357849 
L 659.44718 -290.357849 
L 652.612347 -290.301365 
L 645.777515 -290.160156 
L 638.942682 -289.934221 
L 632.10785 -289.934221 
L 625.273017 -289.905979 
L 618.438185 -289.409628 
L 611.603352 -289.877737 
L 604.76852 -289.877737 
L 597.933687 -289.877737 
L 591.098855 -289.877737 
L 584.264022 -289.821253 
L 577.42919 -289.793011 
L 570.594357 -288.776303 
L 563.759525 -288.748061 
L 556.924692 -287.816079 
L 550.089859 -287.505418 
L 543.255027 -287.364209 
L 536.420194 -287.08179 
L 529.585362 -285.754421 
L 522.750529 -285.726179 
L 515.915697 -285.726179 
L 509.080864 -284.314085 
L 502.246032 -284.314085 
L 495.411199 -282.647814 
L 488.576367 -282.59133 
L 481.741534 -281.631106 
L 474.906702 -281.376929 
L 468.071869 -281.320445 
L 461.237036 -281.320445 
L 454.402204 -281.292203 
L 447.567371 -281.150994 
L 440.732539 -279.258787 
L 433.897706 -279.258787 
L 427.062874 -278.665708 
L 420.228041 -278.157354 
L 413.393209 -278.157354 
L 406.558376 -278.157354 
L 399.723544 -278.157354 
L 392.888711 -277.818451 
L 386.053879 -277.620758 
L 379.219046 -277.592516 
L 372.384214 -277.536032 
L 365.549381 -277.479549 
L 358.714548 -277.394823 
L 351.879716 -277.253614 
L 345.044883 -277.225372 
L 338.210051 -276.462841 
L 331.375218 -276.462841 
L 324.540386 -276.434599 
L 317.705553 -276.434599 
L 310.870721 -270.786222 
L 304.035888 -268.413903 
L 297.201056 -268.300936 
L 290.366223 -268.300936 
L 283.531391 -268.272694 
L 276.696558 -268.159726 
L 269.861725 -266.211036 
L 263.026893 -266.182794 
L 256.19206 -259.178806 
L 249.357228 -259.037597 
L 242.522395 -258.981113 
L 235.687563 -258.78342 
L 228.85273 -258.501001 
L 222.017898 -258.020889 
L 215.183065 -254.660104 
L 208.348233 -251.722948 
L 201.5134 -251.271078 
L 194.678568 -249.378872 
L 187.843735 -246.413473 
L 181.008903 -243.419833 
L 174.17407 -241.894772 
L 167.339237 -241.640595 
L 160.504405 -238.509275 
L 153.669572 -238.251568 
L 146.83474 -237.743214 
L 139.999907 -237.206618 
L 133.165075 -234.128253 
L 126.330242 -228.677569 
L 119.49541 -215.064979 
L 112.660577 -202.073712 
L 105.825745 -181.188837 
L 98.990912 -171.307 
L 92.15608 -124.676822 
z
" id="mea2f298be2" style="stroke:#1f77b4;stroke-opacity:0.2;"/>
    </defs>
    <g clip-path="url(#pe2a00dce3c)">
     <use style="fill:#1f77b4;fill-opacity:0.2;stroke:#1f77b4;stroke-opacity:0.2;" x="0" xlink:href="#mea2f298be2" y="325.986375"/>
    </g>
   </g>
   <g id="PolyCollection_2">
    <defs>
     <path d="M 92.15608 -84.643947 
L 92.15608 -49.65225 
L 98.990912 -55.18766 
L 105.825745 -61.640931 
L 112.660577 -65.721883 
L 119.49541 -69.492175 
L 126.330242 -68.687282 
L 133.165075 -72.415211 
L 139.999907 -74.561594 
L 146.83474 -87.552862 
L 153.669572 -90.744195 
L 160.504405 -91.337275 
L 167.339237 -100.035776 
L 174.17407 -101.221935 
L 181.008903 -104.808654 
L 187.843735 -105.034589 
L 194.678568 -105.79712 
L 201.5134 -105.910088 
L 208.348233 -105.93833 
L 215.183065 -106.051297 
L 222.017898 -106.051297 
L 228.85273 -106.192507 
L 235.687563 -106.277232 
L 242.522395 -107.491634 
L 249.357228 -108.819002 
L 256.19206 -108.988454 
L 263.026893 -109.016695 
L 269.861725 -109.129663 
L 276.696558 -109.157905 
L 283.531391 -109.157905 
L 290.366223 -109.299114 
L 297.201056 -109.299114 
L 304.035888 -109.299114 
L 310.870721 -109.412082 
L 317.705553 -109.440324 
L 324.540386 -109.948678 
L 331.375218 -110.174613 
L 338.210051 -110.202855 
L 345.044883 -110.231097 
L 351.879716 -110.259338 
L 358.714548 -110.315822 
L 365.549381 -110.315822 
L 372.384214 -110.344064 
L 379.219046 -110.344064 
L 386.053879 -110.344064 
L 392.888711 -110.344064 
L 399.723544 -110.344064 
L 406.558376 -110.344064 
L 413.393209 -110.344064 
L 420.228041 -109.186147 
L 427.062874 -110.372306 
L 433.897706 -110.372306 
L 440.732539 -110.372306 
L 447.567371 -111.389014 
L 454.402204 -112.095061 
L 461.237036 -112.659899 
L 468.071869 -113.027043 
L 474.906702 -113.168253 
L 481.741534 -113.252978 
L 488.576367 -113.28122 
L 495.411199 -113.28122 
L 502.246032 -113.400542 
L 509.080864 -113.704849 
L 515.915697 -113.704849 
L 522.750529 -113.704849 
L 529.585362 -113.761332 
L 536.420194 -113.789574 
L 543.255027 -113.959026 
L 550.089859 -113.987268 
L 556.924692 -114.665073 
L 563.759525 -114.665073 
L 570.594357 -114.721557 
L 577.42919 -114.721557 
L 584.264022 -114.77804 
L 591.098855 -114.77804 
L 597.933687 -114.77804 
L 604.76852 -114.77804 
L 611.603352 -114.77804 
L 618.438185 -114.77804 
L 625.273017 -114.806282 
L 632.10785 -116.190135 
L 638.942682 -116.27486 
L 645.777515 -116.27486 
L 652.612347 -116.27486 
L 659.44718 -117.235084 
L 666.282013 -117.348052 
L 673.116845 -118.138825 
L 679.951678 -118.167067 
L 686.78651 -118.167067 
L 693.621343 -118.167067 
L 700.456175 -118.130352 
L 707.291008 -118.195309 
L 714.12584 -118.195309 
L 720.960673 -118.195309 
L 727.795505 -118.195309 
L 734.630338 -118.22355 
L 741.46517 -118.22355 
L 741.46517 -158.524723 
L 741.46517 -158.524723 
L 734.630338 -158.524723 
L 727.795505 -158.496481 
L 720.960673 -158.242304 
L 714.12584 -156.914935 
L 707.291008 -156.914935 
L 700.456175 -156.886693 
L 693.621343 -156.858451 
L 686.78651 -156.858451 
L 679.951678 -156.858451 
L 673.116845 -156.830209 
L 666.282013 -156.745484 
L 659.44718 -156.660758 
L 652.612347 -156.632516 
L 645.777515 -156.576032 
L 638.942682 -156.576032 
L 632.10785 -156.039437 
L 625.273017 -155.954711 
L 618.438185 -155.841743 
L 611.603352 -155.841743 
L 604.76852 -155.841743 
L 597.933687 -155.841743 
L 591.098855 -155.559324 
L 584.264022 -155.559324 
L 577.42919 -155.531083 
L 570.594357 -155.418115 
L 563.759525 -155.333389 
L 556.924692 -155.333389 
L 550.089859 -155.305148 
L 543.255027 -155.079212 
L 536.420194 -155.079212 
L 529.585362 -155.022729 
L 522.750529 -154.938003 
L 515.915697 -154.909761 
L 509.080864 -154.909761 
L 502.246032 -154.909761 
L 495.411199 -154.909761 
L 488.576367 -154.796794 
L 481.741534 -154.74031 
L 474.906702 -154.655584 
L 468.071869 -154.457891 
L 461.237036 -154.373165 
L 454.402204 -154.373165 
L 447.567371 -154.344923 
L 440.732539 -154.28844 
L 433.897706 -153.949537 
L 427.062874 -153.949537 
L 420.228041 -153.921295 
L 413.393209 -153.751844 
L 406.558376 -153.723602 
L 399.723544 -153.384699 
L 392.888711 -153.356457 
L 386.053879 -153.328215 
L 379.219046 -153.215248 
L 372.384214 -153.130522 
L 365.549381 -152.876345 
L 358.714548 -152.706894 
L 351.879716 -150.866935 
L 345.044883 -150.221608 
L 338.210051 -150.023915 
L 331.375218 -149.374351 
L 324.540386 -149.233142 
L 317.705553 -149.176658 
L 310.870721 -148.30116 
L 304.035888 -145.900599 
L 297.201056 -145.844116 
L 290.366223 -145.392245 
L 283.531391 -145.138068 
L 276.696558 -144.573231 
L 269.861725 -142.963443 
L 263.026893 -142.652782 
L 256.19206 -136.354842 
L 249.357228 -135.818246 
L 242.522395 -132.118559 
L 235.687563 -131.807898 
L 228.85273 -131.723172 
L 222.017898 -131.553721 
L 215.183065 -130.678222 
L 208.348233 -128.8425 
L 201.5134 -128.277662 
L 194.678568 -128.164695 
L 187.843735 -127.854034 
L 181.008903 -127.260954 
L 174.17407 -119.748612 
L 167.339237 -119.437952 
L 160.504405 -114.862766 
L 153.669572 -111.869126 
L 146.83474 -111.727917 
L 139.999907 -111.643191 
L 133.165075 -111.021869 
L 126.330242 -107.971746 
L 119.49541 -101.673805 
L 112.660577 -100.755944 
L 105.825745 -99.595202 
L 98.990912 -96.307847 
L 92.15608 -84.643947 
z
" id="m58ac3501a6" style="stroke:#98df8a;stroke-opacity:0.2;"/>
    </defs>
    <g clip-path="url(#pe2a00dce3c)">
     <use style="fill:#98df8a;fill-opacity:0.2;stroke:#98df8a;stroke-opacity:0.2;" x="0" xlink:href="#m58ac3501a6" y="325.986375"/>
    </g>
   </g>
   <g id="matplotlib.axis_1">
    <g id="xtick_1">
     <g id="line2d_1">
      <defs>
       <path d="M 0 0 
L 0 3.5 
" id="m522e0da53b" style="stroke:#000000;stroke-width:0.8;"/>
      </defs>
      <g>
       <use style="stroke:#000000;stroke-width:0.8;" x="92.15608" xlink:href="#m522e0da53b" y="288.430125"/>
      </g>
     </g>
     <g id="text_1">
      <!-- 15m -->
      <g transform="translate(80.923267 303.028562)scale(0.1 -0.1)">
       <defs>
        <path d="M 794 531 
L 1825 531 
L 1825 4091 
L 703 3866 
L 703 4441 
L 1819 4666 
L 2450 4666 
L 2450 531 
L 3481 531 
L 3481 0 
L 794 0 
L 794 531 
z
" id="DejaVuSans-31" transform="scale(0.015625)"/>
        <path d="M 691 4666 
L 3169 4666 
L 3169 4134 
L 1269 4134 
L 1269 2991 
Q 1406 3038 1543 3061 
Q 1681 3084 1819 3084 
Q 2600 3084 3056 2656 
Q 3513 2228 3513 1497 
Q 3513 744 3044 326 
Q 2575 -91 1722 -91 
Q 1428 -91 1123 -41 
Q 819 9 494 109 
L 494 744 
Q 775 591 1075 516 
Q 1375 441 1709 441 
Q 2250 441 2565 725 
Q 2881 1009 2881 1497 
Q 2881 1984 2565 2268 
Q 2250 2553 1709 2553 
Q 1456 2553 1204 2497 
Q 953 2441 691 2322 
L 691 4666 
z
" id="DejaVuSans-35" transform="scale(0.015625)"/>
        <path d="M 3328 2828 
Q 3544 3216 3844 3400 
Q 4144 3584 4550 3584 
Q 5097 3584 5394 3201 
Q 5691 2819 5691 2113 
L 5691 0 
L 5113 0 
L 5113 2094 
Q 5113 2597 4934 2840 
Q 4756 3084 4391 3084 
Q 3944 3084 3684 2787 
Q 3425 2491 3425 1978 
L 3425 0 
L 2847 0 
L 2847 2094 
Q 2847 2600 2669 2842 
Q 2491 3084 2119 3084 
Q 1678 3084 1418 2786 
Q 1159 2488 1159 1978 
L 1159 0 
L 581 0 
L 581 3500 
L 1159 3500 
L 1159 2956 
Q 1356 3278 1631 3431 
Q 1906 3584 2284 3584 
Q 2666 3584 2933 3390 
Q 3200 3197 3328 2828 
z
" id="DejaVuSans-6d" transform="scale(0.015625)"/>
       </defs>
       <use xlink:href="#DejaVuSans-31"/>
       <use x="63.623047" xlink:href="#DejaVuSans-35"/>
       <use x="127.246094" xlink:href="#DejaVuSans-6d"/>
      </g>
     </g>
    </g>
    <g id="xtick_2">
     <g id="line2d_2">
      <g>
       <use style="stroke:#000000;stroke-width:0.8;" x="146.83474" xlink:href="#m522e0da53b" y="288.430125"/>
      </g>
     </g>
     <g id="text_2">
      <!-- 2h:15m -->
      <g transform="translate(127.567552 303.028562)scale(0.1 -0.1)">
       <defs>
        <path d="M 1228 531 
L 3431 531 
L 3431 0 
L 469 0 
L 469 531 
Q 828 903 1448 1529 
Q 2069 2156 2228 2338 
Q 2531 2678 2651 2914 
Q 2772 3150 2772 3378 
Q 2772 3750 2511 3984 
Q 2250 4219 1831 4219 
Q 1534 4219 1204 4116 
Q 875 4013 500 3803 
L 500 4441 
Q 881 4594 1212 4672 
Q 1544 4750 1819 4750 
Q 2544 4750 2975 4387 
Q 3406 4025 3406 3419 
Q 3406 3131 3298 2873 
Q 3191 2616 2906 2266 
Q 2828 2175 2409 1742 
Q 1991 1309 1228 531 
z
" id="DejaVuSans-32" transform="scale(0.015625)"/>
        <path d="M 3513 2113 
L 3513 0 
L 2938 0 
L 2938 2094 
Q 2938 2591 2744 2837 
Q 2550 3084 2163 3084 
Q 1697 3084 1428 2787 
Q 1159 2491 1159 1978 
L 1159 0 
L 581 0 
L 581 4863 
L 1159 4863 
L 1159 2956 
Q 1366 3272 1645 3428 
Q 1925 3584 2291 3584 
Q 2894 3584 3203 3211 
Q 3513 2838 3513 2113 
z
" id="DejaVuSans-68" transform="scale(0.015625)"/>
        <path d="M 750 794 
L 1409 794 
L 1409 0 
L 750 0 
L 750 794 
z
M 750 3309 
L 1409 3309 
L 1409 2516 
L 750 2516 
L 750 3309 
z
" id="DejaVuSans-3a" transform="scale(0.015625)"/>
       </defs>
       <use xlink:href="#DejaVuSans-32"/>
       <use x="63.623047" xlink:href="#DejaVuSans-68"/>
       <use x="127.001953" xlink:href="#DejaVuSans-3a"/>
       <use x="160.693359" xlink:href="#DejaVuSans-31"/>
       <use x="224.316406" xlink:href="#DejaVuSans-35"/>
       <use x="287.939453" xlink:href="#DejaVuSans-6d"/>
      </g>
     </g>
    </g>
    <g id="xtick_3">
     <g id="line2d_3">
      <g>
       <use style="stroke:#000000;stroke-width:0.8;" x="201.5134" xlink:href="#m522e0da53b" y="288.430125"/>
      </g>
     </g>
     <g id="text_3">
      <!-- 4h:15m -->
      <g transform="translate(182.246213 303.028562)scale(0.1 -0.1)">
       <defs>
        <path d="M 2419 4116 
L 825 1625 
L 2419 1625 
L 2419 4116 
z
M 2253 4666 
L 3047 4666 
L 3047 1625 
L 3713 1625 
L 3713 1100 
L 3047 1100 
L 3047 0 
L 2419 0 
L 2419 1100 
L 313 1100 
L 313 1709 
L 2253 4666 
z
" id="DejaVuSans-34" transform="scale(0.015625)"/>
       </defs>
       <use xlink:href="#DejaVuSans-34"/>
       <use x="63.623047" xlink:href="#DejaVuSans-68"/>
       <use x="127.001953" xlink:href="#DejaVuSans-3a"/>
       <use x="160.693359" xlink:href="#DejaVuSans-31"/>
       <use x="224.316406" xlink:href="#DejaVuSans-35"/>
       <use x="287.939453" xlink:href="#DejaVuSans-6d"/>
      </g>
     </g>
    </g>
    <g id="xtick_4">
     <g id="line2d_4">
      <g>
       <use style="stroke:#000000;stroke-width:0.8;" x="256.19206" xlink:href="#m522e0da53b" y="288.430125"/>
      </g>
     </g>
     <g id="text_4">
      <!-- 6h:15m -->
      <g transform="translate(236.924873 303.028562)scale(0.1 -0.1)">
       <defs>
        <path d="M 2113 2584 
Q 1688 2584 1439 2293 
Q 1191 2003 1191 1497 
Q 1191 994 1439 701 
Q 1688 409 2113 409 
Q 2538 409 2786 701 
Q 3034 994 3034 1497 
Q 3034 2003 2786 2293 
Q 2538 2584 2113 2584 
z
M 3366 4563 
L 3366 3988 
Q 3128 4100 2886 4159 
Q 2644 4219 2406 4219 
Q 1781 4219 1451 3797 
Q 1122 3375 1075 2522 
Q 1259 2794 1537 2939 
Q 1816 3084 2150 3084 
Q 2853 3084 3261 2657 
Q 3669 2231 3669 1497 
Q 3669 778 3244 343 
Q 2819 -91 2113 -91 
Q 1303 -91 875 529 
Q 447 1150 447 2328 
Q 447 3434 972 4092 
Q 1497 4750 2381 4750 
Q 2619 4750 2861 4703 
Q 3103 4656 3366 4563 
z
" id="DejaVuSans-36" transform="scale(0.015625)"/>
       </defs>
       <use xlink:href="#DejaVuSans-36"/>
       <use x="63.623047" xlink:href="#DejaVuSans-68"/>
       <use x="127.001953" xlink:href="#DejaVuSans-3a"/>
       <use x="160.693359" xlink:href="#DejaVuSans-31"/>
       <use x="224.316406" xlink:href="#DejaVuSans-35"/>
       <use x="287.939453" xlink:href="#DejaVuSans-6d"/>
      </g>
     </g>
    </g>
    <g id="xtick_5">
     <g id="line2d_5">
      <g>
       <use style="stroke:#000000;stroke-width:0.8;" x="310.870721" xlink:href="#m522e0da53b" y="288.430125"/>
      </g>
     </g>
     <g id="text_5">
      <!-- 8h:15m -->
      <g transform="translate(291.603533 303.028562)scale(0.1 -0.1)">
       <defs>
        <path d="M 2034 2216 
Q 1584 2216 1326 1975 
Q 1069 1734 1069 1313 
Q 1069 891 1326 650 
Q 1584 409 2034 409 
Q 2484 409 2743 651 
Q 3003 894 3003 1313 
Q 3003 1734 2745 1975 
Q 2488 2216 2034 2216 
z
M 1403 2484 
Q 997 2584 770 2862 
Q 544 3141 544 3541 
Q 544 4100 942 4425 
Q 1341 4750 2034 4750 
Q 2731 4750 3128 4425 
Q 3525 4100 3525 3541 
Q 3525 3141 3298 2862 
Q 3072 2584 2669 2484 
Q 3125 2378 3379 2068 
Q 3634 1759 3634 1313 
Q 3634 634 3220 271 
Q 2806 -91 2034 -91 
Q 1263 -91 848 271 
Q 434 634 434 1313 
Q 434 1759 690 2068 
Q 947 2378 1403 2484 
z
M 1172 3481 
Q 1172 3119 1398 2916 
Q 1625 2713 2034 2713 
Q 2441 2713 2670 2916 
Q 2900 3119 2900 3481 
Q 2900 3844 2670 4047 
Q 2441 4250 2034 4250 
Q 1625 4250 1398 4047 
Q 1172 3844 1172 3481 
z
" id="DejaVuSans-38" transform="scale(0.015625)"/>
       </defs>
       <use xlink:href="#DejaVuSans-38"/>
       <use x="63.623047" xlink:href="#DejaVuSans-68"/>
       <use x="127.001953" xlink:href="#DejaVuSans-3a"/>
       <use x="160.693359" xlink:href="#DejaVuSans-31"/>
       <use x="224.316406" xlink:href="#DejaVuSans-35"/>
       <use x="287.939453" xlink:href="#DejaVuSans-6d"/>
      </g>
     </g>
    </g>
    <g id="xtick_6">
     <g id="line2d_6">
      <g>
       <use style="stroke:#000000;stroke-width:0.8;" x="365.549381" xlink:href="#m522e0da53b" y="288.430125"/>
      </g>
     </g>
     <g id="text_6">
      <!-- 10h:15m -->
      <g transform="translate(343.100943 303.028562)scale(0.1 -0.1)">
       <defs>
        <path d="M 2034 4250 
Q 1547 4250 1301 3770 
Q 1056 3291 1056 2328 
Q 1056 1369 1301 889 
Q 1547 409 2034 409 
Q 2525 409 2770 889 
Q 3016 1369 3016 2328 
Q 3016 3291 2770 3770 
Q 2525 4250 2034 4250 
z
M 2034 4750 
Q 2819 4750 3233 4129 
Q 3647 3509 3647 2328 
Q 3647 1150 3233 529 
Q 2819 -91 2034 -91 
Q 1250 -91 836 529 
Q 422 1150 422 2328 
Q 422 3509 836 4129 
Q 1250 4750 2034 4750 
z
" id="DejaVuSans-30" transform="scale(0.015625)"/>
       </defs>
       <use xlink:href="#DejaVuSans-31"/>
       <use x="63.623047" xlink:href="#DejaVuSans-30"/>
       <use x="127.246094" xlink:href="#DejaVuSans-68"/>
       <use x="190.625" xlink:href="#DejaVuSans-3a"/>
       <use x="224.316406" xlink:href="#DejaVuSans-31"/>
       <use x="287.939453" xlink:href="#DejaVuSans-35"/>
       <use x="351.5625" xlink:href="#DejaVuSans-6d"/>
      </g>
     </g>
    </g>
    <g id="xtick_7">
     <g id="line2d_7">
      <g>
       <use style="stroke:#000000;stroke-width:0.8;" x="420.228041" xlink:href="#m522e0da53b" y="288.430125"/>
      </g>
     </g>
     <g id="text_7">
      <!-- 12h:15m -->
      <g transform="translate(397.779604 303.028562)scale(0.1 -0.1)">
       <use xlink:href="#DejaVuSans-31"/>
       <use x="63.623047" xlink:href="#DejaVuSans-32"/>
       <use x="127.246094" xlink:href="#DejaVuSans-68"/>
       <use x="190.625" xlink:href="#DejaVuSans-3a"/>
       <use x="224.316406" xlink:href="#DejaVuSans-31"/>
       <use x="287.939453" xlink:href="#DejaVuSans-35"/>
       <use x="351.5625" xlink:href="#DejaVuSans-6d"/>
      </g>
     </g>
    </g>
    <g id="xtick_8">
     <g id="line2d_8">
      <g>
       <use style="stroke:#000000;stroke-width:0.8;" x="474.906702" xlink:href="#m522e0da53b" y="288.430125"/>
      </g>
     </g>
     <g id="text_8">
      <!-- 14h:15m -->
      <g transform="translate(452.458264 303.028562)scale(0.1 -0.1)">
       <use xlink:href="#DejaVuSans-31"/>
       <use x="63.623047" xlink:href="#DejaVuSans-34"/>
       <use x="127.246094" xlink:href="#DejaVuSans-68"/>
       <use x="190.625" xlink:href="#DejaVuSans-3a"/>
       <use x="224.316406" xlink:href="#DejaVuSans-31"/>
       <use x="287.939453" xlink:href="#DejaVuSans-35"/>
       <use x="351.5625" xlink:href="#DejaVuSans-6d"/>
      </g>
     </g>
    </g>
    <g id="xtick_9">
     <g id="line2d_9">
      <g>
       <use style="stroke:#000000;stroke-width:0.8;" x="529.585362" xlink:href="#m522e0da53b" y="288.430125"/>
      </g>
     </g>
     <g id="text_9">
      <!-- 16h:15m -->
      <g transform="translate(507.136924 303.028562)scale(0.1 -0.1)">
       <use xlink:href="#DejaVuSans-31"/>
       <use x="63.623047" xlink:href="#DejaVuSans-36"/>
       <use x="127.246094" xlink:href="#DejaVuSans-68"/>
       <use x="190.625" xlink:href="#DejaVuSans-3a"/>
       <use x="224.316406" xlink:href="#DejaVuSans-31"/>
       <use x="287.939453" xlink:href="#DejaVuSans-35"/>
       <use x="351.5625" xlink:href="#DejaVuSans-6d"/>
      </g>
     </g>
    </g>
    <g id="xtick_10">
     <g id="line2d_10">
      <g>
       <use style="stroke:#000000;stroke-width:0.8;" x="584.264022" xlink:href="#m522e0da53b" y="288.430125"/>
      </g>
     </g>
     <g id="text_10">
      <!-- 18h:15m -->
      <g transform="translate(561.815585 303.028562)scale(0.1 -0.1)">
       <use xlink:href="#DejaVuSans-31"/>
       <use x="63.623047" xlink:href="#DejaVuSans-38"/>
       <use x="127.246094" xlink:href="#DejaVuSans-68"/>
       <use x="190.625" xlink:href="#DejaVuSans-3a"/>
       <use x="224.316406" xlink:href="#DejaVuSans-31"/>
       <use x="287.939453" xlink:href="#DejaVuSans-35"/>
       <use x="351.5625" xlink:href="#DejaVuSans-6d"/>
      </g>
     </g>
    </g>
    <g id="xtick_11">
     <g id="line2d_11">
      <g>
       <use style="stroke:#000000;stroke-width:0.8;" x="638.942682" xlink:href="#m522e0da53b" y="288.430125"/>
      </g>
     </g>
     <g id="text_11">
      <!-- 20h:15m -->
      <g transform="translate(616.494245 303.028562)scale(0.1 -0.1)">
       <use xlink:href="#DejaVuSans-32"/>
       <use x="63.623047" xlink:href="#DejaVuSans-30"/>
       <use x="127.246094" xlink:href="#DejaVuSans-68"/>
       <use x="190.625" xlink:href="#DejaVuSans-3a"/>
       <use x="224.316406" xlink:href="#DejaVuSans-31"/>
       <use x="287.939453" xlink:href="#DejaVuSans-35"/>
       <use x="351.5625" xlink:href="#DejaVuSans-6d"/>
      </g>
     </g>
    </g>
    <g id="xtick_12">
     <g id="line2d_12">
      <g>
       <use style="stroke:#000000;stroke-width:0.8;" x="693.621343" xlink:href="#m522e0da53b" y="288.430125"/>
      </g>
     </g>
     <g id="text_12">
      <!-- 22h:15m -->
      <g transform="translate(671.172905 303.028562)scale(0.1 -0.1)">
       <use xlink:href="#DejaVuSans-32"/>
       <use x="63.623047" xlink:href="#DejaVuSans-32"/>
       <use x="127.246094" xlink:href="#DejaVuSans-68"/>
       <use x="190.625" xlink:href="#DejaVuSans-3a"/>
       <use x="224.316406" xlink:href="#DejaVuSans-31"/>
       <use x="287.939453" xlink:href="#DejaVuSans-35"/>
       <use x="351.5625" xlink:href="#DejaVuSans-6d"/>
      </g>
     </g>
    </g>
    <g id="text_13">
     <!-- Time (hour:minute) -->
     <g transform="translate(368.403594 316.706687)scale(0.1 -0.1)">
      <defs>
       <path d="M -19 4666 
L 3928 4666 
L 3928 4134 
L 2272 4134 
L 2272 0 
L 1638 0 
L 1638 4134 
L -19 4134 
L -19 4666 
z
" id="DejaVuSans-54" transform="scale(0.015625)"/>
       <path d="M 603 3500 
L 1178 3500 
L 1178 0 
L 603 0 
L 603 3500 
z
M 603 4863 
L 1178 4863 
L 1178 4134 
L 603 4134 
L 603 4863 
z
" id="DejaVuSans-69" transform="scale(0.015625)"/>
       <path d="M 3597 1894 
L 3597 1613 
L 953 1613 
Q 991 1019 1311 708 
Q 1631 397 2203 397 
Q 2534 397 2845 478 
Q 3156 559 3463 722 
L 3463 178 
Q 3153 47 2828 -22 
Q 2503 -91 2169 -91 
Q 1331 -91 842 396 
Q 353 884 353 1716 
Q 353 2575 817 3079 
Q 1281 3584 2069 3584 
Q 2775 3584 3186 3129 
Q 3597 2675 3597 1894 
z
M 3022 2063 
Q 3016 2534 2758 2815 
Q 2500 3097 2075 3097 
Q 1594 3097 1305 2825 
Q 1016 2553 972 2059 
L 3022 2063 
z
" id="DejaVuSans-65" transform="scale(0.015625)"/>
       <path id="DejaVuSans-20" transform="scale(0.015625)"/>
       <path d="M 1984 4856 
Q 1566 4138 1362 3434 
Q 1159 2731 1159 2009 
Q 1159 1288 1364 580 
Q 1569 -128 1984 -844 
L 1484 -844 
Q 1016 -109 783 600 
Q 550 1309 550 2009 
Q 550 2706 781 3412 
Q 1013 4119 1484 4856 
L 1984 4856 
z
" id="DejaVuSans-28" transform="scale(0.015625)"/>
       <path d="M 1959 3097 
Q 1497 3097 1228 2736 
Q 959 2375 959 1747 
Q 959 1119 1226 758 
Q 1494 397 1959 397 
Q 2419 397 2687 759 
Q 2956 1122 2956 1747 
Q 2956 2369 2687 2733 
Q 2419 3097 1959 3097 
z
M 1959 3584 
Q 2709 3584 3137 3096 
Q 3566 2609 3566 1747 
Q 3566 888 3137 398 
Q 2709 -91 1959 -91 
Q 1206 -91 779 398 
Q 353 888 353 1747 
Q 353 2609 779 3096 
Q 1206 3584 1959 3584 
z
" id="DejaVuSans-6f" transform="scale(0.015625)"/>
       <path d="M 544 1381 
L 544 3500 
L 1119 3500 
L 1119 1403 
Q 1119 906 1312 657 
Q 1506 409 1894 409 
Q 2359 409 2629 706 
Q 2900 1003 2900 1516 
L 2900 3500 
L 3475 3500 
L 3475 0 
L 2900 0 
L 2900 538 
Q 2691 219 2414 64 
Q 2138 -91 1772 -91 
Q 1169 -91 856 284 
Q 544 659 544 1381 
z
M 1991 3584 
L 1991 3584 
z
" id="DejaVuSans-75" transform="scale(0.015625)"/>
       <path d="M 2631 2963 
Q 2534 3019 2420 3045 
Q 2306 3072 2169 3072 
Q 1681 3072 1420 2755 
Q 1159 2438 1159 1844 
L 1159 0 
L 581 0 
L 581 3500 
L 1159 3500 
L 1159 2956 
Q 1341 3275 1631 3429 
Q 1922 3584 2338 3584 
Q 2397 3584 2469 3576 
Q 2541 3569 2628 3553 
L 2631 2963 
z
" id="DejaVuSans-72" transform="scale(0.015625)"/>
       <path d="M 3513 2113 
L 3513 0 
L 2938 0 
L 2938 2094 
Q 2938 2591 2744 2837 
Q 2550 3084 2163 3084 
Q 1697 3084 1428 2787 
Q 1159 2491 1159 1978 
L 1159 0 
L 581 0 
L 581 3500 
L 1159 3500 
L 1159 2956 
Q 1366 3272 1645 3428 
Q 1925 3584 2291 3584 
Q 2894 3584 3203 3211 
Q 3513 2838 3513 2113 
z
" id="DejaVuSans-6e" transform="scale(0.015625)"/>
       <path d="M 1172 4494 
L 1172 3500 
L 2356 3500 
L 2356 3053 
L 1172 3053 
L 1172 1153 
Q 1172 725 1289 603 
Q 1406 481 1766 481 
L 2356 481 
L 2356 0 
L 1766 0 
Q 1100 0 847 248 
Q 594 497 594 1153 
L 594 3053 
L 172 3053 
L 172 3500 
L 594 3500 
L 594 4494 
L 1172 4494 
z
" id="DejaVuSans-74" transform="scale(0.015625)"/>
       <path d="M 513 4856 
L 1013 4856 
Q 1481 4119 1714 3412 
Q 1947 2706 1947 2009 
Q 1947 1309 1714 600 
Q 1481 -109 1013 -844 
L 513 -844 
Q 928 -128 1133 580 
Q 1338 1288 1338 2009 
Q 1338 2731 1133 3434 
Q 928 4138 513 4856 
z
" id="DejaVuSans-29" transform="scale(0.015625)"/>
      </defs>
      <use xlink:href="#DejaVuSans-54"/>
      <use x="57.958984" xlink:href="#DejaVuSans-69"/>
      <use x="85.742188" xlink:href="#DejaVuSans-6d"/>
      <use x="183.154297" xlink:href="#DejaVuSans-65"/>
      <use x="244.677734" xlink:href="#DejaVuSans-20"/>
      <use x="276.464844" xlink:href="#DejaVuSans-28"/>
      <use x="315.478516" xlink:href="#DejaVuSans-68"/>
      <use x="378.857422" xlink:href="#DejaVuSans-6f"/>
      <use x="440.039062" xlink:href="#DejaVuSans-75"/>
      <use x="503.417969" xlink:href="#DejaVuSans-72"/>
      <use x="542.78125" xlink:href="#DejaVuSans-3a"/>
      <use x="576.472656" xlink:href="#DejaVuSans-6d"/>
      <use x="673.884766" xlink:href="#DejaVuSans-69"/>
      <use x="701.667969" xlink:href="#DejaVuSans-6e"/>
      <use x="765.046875" xlink:href="#DejaVuSans-75"/>
      <use x="828.425781" xlink:href="#DejaVuSans-74"/>
      <use x="867.634766" xlink:href="#DejaVuSans-65"/>
      <use x="929.158203" xlink:href="#DejaVuSans-29"/>
     </g>
    </g>
   </g>
   <g id="matplotlib.axis_2">
    <g id="ytick_1">
     <g id="line2d_13">
      <defs>
       <path d="M 0 0 
L -3.5 0 
" id="m5f47903886" style="stroke:#000000;stroke-width:0.8;"/>
      </defs>
      <g>
       <use style="stroke:#000000;stroke-width:0.8;" x="59.690625" xlink:href="#m5f47903886" y="287.207251"/>
      </g>
     </g>
     <g id="text_14">
      <!-- 2000 -->
      <g transform="translate(27.240625 291.00647)scale(0.1 -0.1)">
       <use xlink:href="#DejaVuSans-32"/>
       <use x="63.623047" xlink:href="#DejaVuSans-30"/>
       <use x="127.246094" xlink:href="#DejaVuSans-30"/>
       <use x="190.869141" xlink:href="#DejaVuSans-30"/>
      </g>
     </g>
    </g>
    <g id="ytick_2">
     <g id="line2d_14">
      <g>
       <use style="stroke:#000000;stroke-width:0.8;" x="59.690625" xlink:href="#m5f47903886" y="230.723478"/>
      </g>
     </g>
     <g id="text_15">
      <!-- 4000 -->
      <g transform="translate(27.240625 234.522697)scale(0.1 -0.1)">
       <use xlink:href="#DejaVuSans-34"/>
       <use x="63.623047" xlink:href="#DejaVuSans-30"/>
       <use x="127.246094" xlink:href="#DejaVuSans-30"/>
       <use x="190.869141" xlink:href="#DejaVuSans-30"/>
      </g>
     </g>
    </g>
    <g id="ytick_3">
     <g id="line2d_15">
      <g>
       <use style="stroke:#000000;stroke-width:0.8;" x="59.690625" xlink:href="#m5f47903886" y="174.239705"/>
      </g>
     </g>
     <g id="text_16">
      <!-- 6000 -->
      <g transform="translate(27.240625 178.038924)scale(0.1 -0.1)">
       <use xlink:href="#DejaVuSans-36"/>
       <use x="63.623047" xlink:href="#DejaVuSans-30"/>
       <use x="127.246094" xlink:href="#DejaVuSans-30"/>
       <use x="190.869141" xlink:href="#DejaVuSans-30"/>
      </g>
     </g>
    </g>
    <g id="ytick_4">
     <g id="line2d_16">
      <g>
       <use style="stroke:#000000;stroke-width:0.8;" x="59.690625" xlink:href="#m5f47903886" y="117.755932"/>
      </g>
     </g>
     <g id="text_17">
      <!-- 8000 -->
      <g transform="translate(27.240625 121.555151)scale(0.1 -0.1)">
       <use xlink:href="#DejaVuSans-38"/>
       <use x="63.623047" xlink:href="#DejaVuSans-30"/>
       <use x="127.246094" xlink:href="#DejaVuSans-30"/>
       <use x="190.869141" xlink:href="#DejaVuSans-30"/>
      </g>
     </g>
    </g>
    <g id="ytick_5">
     <g id="line2d_17">
      <g>
       <use style="stroke:#000000;stroke-width:0.8;" x="59.690625" xlink:href="#m5f47903886" y="61.272159"/>
      </g>
     </g>
     <g id="text_18">
      <!-- 10000 -->
      <g transform="translate(20.878125 65.071378)scale(0.1 -0.1)">
       <use xlink:href="#DejaVuSans-31"/>
       <use x="63.623047" xlink:href="#DejaVuSans-30"/>
       <use x="127.246094" xlink:href="#DejaVuSans-30"/>
       <use x="190.869141" xlink:href="#DejaVuSans-30"/>
       <use x="254.492188" xlink:href="#DejaVuSans-30"/>
      </g>
     </g>
    </g>
    <g id="text_19">
     <!-- Code branch coverage -->
     <g transform="translate(14.798438 211.949125)rotate(-90)scale(0.1 -0.1)">
      <defs>
       <path d="M 4122 4306 
L 4122 3641 
Q 3803 3938 3442 4084 
Q 3081 4231 2675 4231 
Q 1875 4231 1450 3742 
Q 1025 3253 1025 2328 
Q 1025 1406 1450 917 
Q 1875 428 2675 428 
Q 3081 428 3442 575 
Q 3803 722 4122 1019 
L 4122 359 
Q 3791 134 3420 21 
Q 3050 -91 2638 -91 
Q 1578 -91 968 557 
Q 359 1206 359 2328 
Q 359 3453 968 4101 
Q 1578 4750 2638 4750 
Q 3056 4750 3426 4639 
Q 3797 4528 4122 4306 
z
" id="DejaVuSans-43" transform="scale(0.015625)"/>
       <path d="M 2906 2969 
L 2906 4863 
L 3481 4863 
L 3481 0 
L 2906 0 
L 2906 525 
Q 2725 213 2448 61 
Q 2172 -91 1784 -91 
Q 1150 -91 751 415 
Q 353 922 353 1747 
Q 353 2572 751 3078 
Q 1150 3584 1784 3584 
Q 2172 3584 2448 3432 
Q 2725 3281 2906 2969 
z
M 947 1747 
Q 947 1113 1208 752 
Q 1469 391 1925 391 
Q 2381 391 2643 752 
Q 2906 1113 2906 1747 
Q 2906 2381 2643 2742 
Q 2381 3103 1925 3103 
Q 1469 3103 1208 2742 
Q 947 2381 947 1747 
z
" id="DejaVuSans-64" transform="scale(0.015625)"/>
       <path d="M 3116 1747 
Q 3116 2381 2855 2742 
Q 2594 3103 2138 3103 
Q 1681 3103 1420 2742 
Q 1159 2381 1159 1747 
Q 1159 1113 1420 752 
Q 1681 391 2138 391 
Q 2594 391 2855 752 
Q 3116 1113 3116 1747 
z
M 1159 2969 
Q 1341 3281 1617 3432 
Q 1894 3584 2278 3584 
Q 2916 3584 3314 3078 
Q 3713 2572 3713 1747 
Q 3713 922 3314 415 
Q 2916 -91 2278 -91 
Q 1894 -91 1617 61 
Q 1341 213 1159 525 
L 1159 0 
L 581 0 
L 581 4863 
L 1159 4863 
L 1159 2969 
z
" id="DejaVuSans-62" transform="scale(0.015625)"/>
       <path d="M 2194 1759 
Q 1497 1759 1228 1600 
Q 959 1441 959 1056 
Q 959 750 1161 570 
Q 1363 391 1709 391 
Q 2188 391 2477 730 
Q 2766 1069 2766 1631 
L 2766 1759 
L 2194 1759 
z
M 3341 1997 
L 3341 0 
L 2766 0 
L 2766 531 
Q 2569 213 2275 61 
Q 1981 -91 1556 -91 
Q 1019 -91 701 211 
Q 384 513 384 1019 
Q 384 1609 779 1909 
Q 1175 2209 1959 2209 
L 2766 2209 
L 2766 2266 
Q 2766 2663 2505 2880 
Q 2244 3097 1772 3097 
Q 1472 3097 1187 3025 
Q 903 2953 641 2809 
L 641 3341 
Q 956 3463 1253 3523 
Q 1550 3584 1831 3584 
Q 2591 3584 2966 3190 
Q 3341 2797 3341 1997 
z
" id="DejaVuSans-61" transform="scale(0.015625)"/>
       <path d="M 3122 3366 
L 3122 2828 
Q 2878 2963 2633 3030 
Q 2388 3097 2138 3097 
Q 1578 3097 1268 2742 
Q 959 2388 959 1747 
Q 959 1106 1268 751 
Q 1578 397 2138 397 
Q 2388 397 2633 464 
Q 2878 531 3122 666 
L 3122 134 
Q 2881 22 2623 -34 
Q 2366 -91 2075 -91 
Q 1284 -91 818 406 
Q 353 903 353 1747 
Q 353 2603 823 3093 
Q 1294 3584 2113 3584 
Q 2378 3584 2631 3529 
Q 2884 3475 3122 3366 
z
" id="DejaVuSans-63" transform="scale(0.015625)"/>
       <path d="M 191 3500 
L 800 3500 
L 1894 563 
L 2988 3500 
L 3597 3500 
L 2284 0 
L 1503 0 
L 191 3500 
z
" id="DejaVuSans-76" transform="scale(0.015625)"/>
       <path d="M 2906 1791 
Q 2906 2416 2648 2759 
Q 2391 3103 1925 3103 
Q 1463 3103 1205 2759 
Q 947 2416 947 1791 
Q 947 1169 1205 825 
Q 1463 481 1925 481 
Q 2391 481 2648 825 
Q 2906 1169 2906 1791 
z
M 3481 434 
Q 3481 -459 3084 -895 
Q 2688 -1331 1869 -1331 
Q 1566 -1331 1297 -1286 
Q 1028 -1241 775 -1147 
L 775 -588 
Q 1028 -725 1275 -790 
Q 1522 -856 1778 -856 
Q 2344 -856 2625 -561 
Q 2906 -266 2906 331 
L 2906 616 
Q 2728 306 2450 153 
Q 2172 0 1784 0 
Q 1141 0 747 490 
Q 353 981 353 1791 
Q 353 2603 747 3093 
Q 1141 3584 1784 3584 
Q 2172 3584 2450 3431 
Q 2728 3278 2906 2969 
L 2906 3500 
L 3481 3500 
L 3481 434 
z
" id="DejaVuSans-67" transform="scale(0.015625)"/>
      </defs>
      <use xlink:href="#DejaVuSans-43"/>
      <use x="69.824219" xlink:href="#DejaVuSans-6f"/>
      <use x="131.005859" xlink:href="#DejaVuSans-64"/>
      <use x="194.482422" xlink:href="#DejaVuSans-65"/>
      <use x="256.005859" xlink:href="#DejaVuSans-20"/>
      <use x="287.792969" xlink:href="#DejaVuSans-62"/>
      <use x="351.269531" xlink:href="#DejaVuSans-72"/>
      <use x="392.382812" xlink:href="#DejaVuSans-61"/>
      <use x="453.662109" xlink:href="#DejaVuSans-6e"/>
      <use x="517.041016" xlink:href="#DejaVuSans-63"/>
      <use x="572.021484" xlink:href="#DejaVuSans-68"/>
      <use x="635.400391" xlink:href="#DejaVuSans-20"/>
      <use x="667.1875" xlink:href="#DejaVuSans-63"/>
      <use x="722.167969" xlink:href="#DejaVuSans-6f"/>
      <use x="783.349609" xlink:href="#DejaVuSans-76"/>
      <use x="842.529297" xlink:href="#DejaVuSans-65"/>
      <use x="904.052734" xlink:href="#DejaVuSans-72"/>
      <use x="945.166016" xlink:href="#DejaVuSans-61"/>
      <use x="1006.445312" xlink:href="#DejaVuSans-67"/>
      <use x="1069.921875" xlink:href="#DejaVuSans-65"/>
     </g>
    </g>
   </g>
   <g id="line2d_18">
    <path clip-path="url(#pe2a00dce3c)" d="M 92.15608 218.861886 
L 98.990912 178.235932 
L 105.825745 154.682199 
L 112.660577 143.456049 
L 119.49541 134.263315 
L 126.330242 126.059047 
L 133.165075 122.161666 
L 139.999907 117.784174 
L 146.83474 115.072953 
L 153.669572 112.898328 
L 160.504405 109.142157 
L 167.339237 108.012481 
L 174.17407 105.527195 
L 181.008903 97.280564 
L 187.843735 94.682311 
L 194.678568 92.705379 
L 201.5134 92.253509 
L 208.348233 91.801638 
L 215.183065 91.180317 
L 222.017898 90.982624 
L 228.85273 90.982624 
L 235.687563 90.587237 
L 242.522395 90.050641 
L 249.357228 89.005692 
L 256.19206 88.892724 
L 263.026893 88.695031 
L 269.861725 87.508872 
L 276.696558 87.141727 
L 283.531391 87.000518 
L 290.366223 87.000518 
L 297.201056 86.859308 
L 304.035888 86.859308 
L 310.870721 79.968288 
L 317.705553 79.770595 
L 324.540386 79.233999 
L 331.375218 76.720471 
L 338.210051 76.692229 
L 345.044883 76.522778 
L 351.879716 76.494536 
L 358.714548 76.40981 
L 365.549381 76.381568 
L 372.384214 75.703763 
L 379.219046 75.703763 
L 386.053879 75.703763 
L 392.888711 75.703763 
L 399.723544 75.50607 
L 406.558376 75.421344 
L 413.393209 75.336619 
L 420.228041 60.142484 
L 427.062874 56.64049 
L 433.897706 56.584006 
L 440.732539 56.527522 
L 447.567371 56.471038 
L 454.402204 56.471038 
L 461.237036 56.471038 
L 468.071869 56.414555 
L 474.906702 50.568484 
L 481.741534 46.727588 
L 488.576367 46.727588 
L 495.411199 46.727588 
L 502.246032 46.727588 
L 509.080864 46.699346 
L 515.915697 46.699346 
L 522.750529 46.699346 
L 529.585362 45.965057 
L 536.420194 45.767363 
L 543.255027 45.767363 
L 550.089859 45.739121 
L 556.924692 45.739121 
L 563.759525 45.71088 
L 570.594357 45.71088 
L 577.42919 45.71088 
L 584.264022 45.71088 
L 591.098855 45.71088 
L 597.933687 44.298785 
L 604.76852 44.298785 
L 611.603352 43.084384 
L 618.438185 42.773723 
L 625.273017 42.773723 
L 632.10785 42.71724 
L 638.942682 42.604272 
L 645.777515 42.604272 
L 652.612347 41.248662 
L 659.44718 41.248662 
L 666.282013 41.248662 
L 673.116845 41.07921 
L 679.951678 41.07921 
L 686.78651 41.07921 
L 693.621343 41.050968 
L 700.456175 41.022726 
L 707.291008 41.022726 
L 714.12584 41.022726 
L 720.960673 41.022726 
L 727.795505 41.022726 
L 734.630338 40.994485 
L 741.46517 40.994485 
" style="fill:none;stroke:#1f77b4;stroke-linecap:square;stroke-width:1.5;"/>
    <defs>
     <path d="M 0 3 
C 0.795609 3 1.55874 2.683901 2.12132 2.12132 
C 2.683901 1.55874 3 0.795609 3 0 
C 3 -0.795609 2.683901 -1.55874 2.12132 -2.12132 
C 1.55874 -2.683901 0.795609 -3 0 -3 
C -0.795609 -3 -1.55874 -2.683901 -2.12132 -2.12132 
C -2.683901 -1.55874 -3 -0.795609 -3 0 
C -3 0.795609 -2.683901 1.55874 -2.12132 2.12132 
C -1.55874 2.683901 -0.795609 3 0 3 
z
" id="m9fe5ae0471" style="stroke:#ffffff;stroke-width:0.75;"/>
    </defs>
    <g clip-path="url(#pe2a00dce3c)">
     <use style="fill:#1f77b4;stroke:#ffffff;stroke-width:0.75;" x="92.15608" xlink:href="#m9fe5ae0471" y="218.861886"/>
     <use style="fill:#1f77b4;stroke:#ffffff;stroke-width:0.75;" x="98.990912" xlink:href="#m9fe5ae0471" y="178.235932"/>
     <use style="fill:#1f77b4;stroke:#ffffff;stroke-width:0.75;" x="105.825745" xlink:href="#m9fe5ae0471" y="154.682199"/>
     <use style="fill:#1f77b4;stroke:#ffffff;stroke-width:0.75;" x="112.660577" xlink:href="#m9fe5ae0471" y="143.456049"/>
     <use style="fill:#1f77b4;stroke:#ffffff;stroke-width:0.75;" x="119.49541" xlink:href="#m9fe5ae0471" y="134.263315"/>
     <use style="fill:#1f77b4;stroke:#ffffff;stroke-width:0.75;" x="126.330242" xlink:href="#m9fe5ae0471" y="126.059047"/>
     <use style="fill:#1f77b4;stroke:#ffffff;stroke-width:0.75;" x="133.165075" xlink:href="#m9fe5ae0471" y="122.161666"/>
     <use style="fill:#1f77b4;stroke:#ffffff;stroke-width:0.75;" x="139.999907" xlink:href="#m9fe5ae0471" y="117.784174"/>
     <use style="fill:#1f77b4;stroke:#ffffff;stroke-width:0.75;" x="146.83474" xlink:href="#m9fe5ae0471" y="115.072953"/>
     <use style="fill:#1f77b4;stroke:#ffffff;stroke-width:0.75;" x="153.669572" xlink:href="#m9fe5ae0471" y="112.898328"/>
     <use style="fill:#1f77b4;stroke:#ffffff;stroke-width:0.75;" x="160.504405" xlink:href="#m9fe5ae0471" y="109.142157"/>
     <use style="fill:#1f77b4;stroke:#ffffff;stroke-width:0.75;" x="167.339237" xlink:href="#m9fe5ae0471" y="108.012481"/>
     <use style="fill:#1f77b4;stroke:#ffffff;stroke-width:0.75;" x="174.17407" xlink:href="#m9fe5ae0471" y="105.527195"/>
     <use style="fill:#1f77b4;stroke:#ffffff;stroke-width:0.75;" x="181.008903" xlink:href="#m9fe5ae0471" y="97.280564"/>
     <use style="fill:#1f77b4;stroke:#ffffff;stroke-width:0.75;" x="187.843735" xlink:href="#m9fe5ae0471" y="94.682311"/>
     <use style="fill:#1f77b4;stroke:#ffffff;stroke-width:0.75;" x="194.678568" xlink:href="#m9fe5ae0471" y="92.705379"/>
     <use style="fill:#1f77b4;stroke:#ffffff;stroke-width:0.75;" x="201.5134" xlink:href="#m9fe5ae0471" y="92.253509"/>
     <use style="fill:#1f77b4;stroke:#ffffff;stroke-width:0.75;" x="208.348233" xlink:href="#m9fe5ae0471" y="91.801638"/>
     <use style="fill:#1f77b4;stroke:#ffffff;stroke-width:0.75;" x="215.183065" xlink:href="#m9fe5ae0471" y="91.180317"/>
     <use style="fill:#1f77b4;stroke:#ffffff;stroke-width:0.75;" x="222.017898" xlink:href="#m9fe5ae0471" y="90.982624"/>
     <use style="fill:#1f77b4;stroke:#ffffff;stroke-width:0.75;" x="228.85273" xlink:href="#m9fe5ae0471" y="90.982624"/>
     <use style="fill:#1f77b4;stroke:#ffffff;stroke-width:0.75;" x="235.687563" xlink:href="#m9fe5ae0471" y="90.587237"/>
     <use style="fill:#1f77b4;stroke:#ffffff;stroke-width:0.75;" x="242.522395" xlink:href="#m9fe5ae0471" y="90.050641"/>
     <use style="fill:#1f77b4;stroke:#ffffff;stroke-width:0.75;" x="249.357228" xlink:href="#m9fe5ae0471" y="89.005692"/>
     <use style="fill:#1f77b4;stroke:#ffffff;stroke-width:0.75;" x="256.19206" xlink:href="#m9fe5ae0471" y="88.892724"/>
     <use style="fill:#1f77b4;stroke:#ffffff;stroke-width:0.75;" x="263.026893" xlink:href="#m9fe5ae0471" y="88.695031"/>
     <use style="fill:#1f77b4;stroke:#ffffff;stroke-width:0.75;" x="269.861725" xlink:href="#m9fe5ae0471" y="87.508872"/>
     <use style="fill:#1f77b4;stroke:#ffffff;stroke-width:0.75;" x="276.696558" xlink:href="#m9fe5ae0471" y="87.141727"/>
     <use style="fill:#1f77b4;stroke:#ffffff;stroke-width:0.75;" x="283.531391" xlink:href="#m9fe5ae0471" y="87.000518"/>
     <use style="fill:#1f77b4;stroke:#ffffff;stroke-width:0.75;" x="290.366223" xlink:href="#m9fe5ae0471" y="87.000518"/>
     <use style="fill:#1f77b4;stroke:#ffffff;stroke-width:0.75;" x="297.201056" xlink:href="#m9fe5ae0471" y="86.859308"/>
     <use style="fill:#1f77b4;stroke:#ffffff;stroke-width:0.75;" x="304.035888" xlink:href="#m9fe5ae0471" y="86.859308"/>
     <use style="fill:#1f77b4;stroke:#ffffff;stroke-width:0.75;" x="310.870721" xlink:href="#m9fe5ae0471" y="79.968288"/>
     <use style="fill:#1f77b4;stroke:#ffffff;stroke-width:0.75;" x="317.705553" xlink:href="#m9fe5ae0471" y="79.770595"/>
     <use style="fill:#1f77b4;stroke:#ffffff;stroke-width:0.75;" x="324.540386" xlink:href="#m9fe5ae0471" y="79.233999"/>
     <use style="fill:#1f77b4;stroke:#ffffff;stroke-width:0.75;" x="331.375218" xlink:href="#m9fe5ae0471" y="76.720471"/>
     <use style="fill:#1f77b4;stroke:#ffffff;stroke-width:0.75;" x="338.210051" xlink:href="#m9fe5ae0471" y="76.692229"/>
     <use style="fill:#1f77b4;stroke:#ffffff;stroke-width:0.75;" x="345.044883" xlink:href="#m9fe5ae0471" y="76.522778"/>
     <use style="fill:#1f77b4;stroke:#ffffff;stroke-width:0.75;" x="351.879716" xlink:href="#m9fe5ae0471" y="76.494536"/>
     <use style="fill:#1f77b4;stroke:#ffffff;stroke-width:0.75;" x="358.714548" xlink:href="#m9fe5ae0471" y="76.40981"/>
     <use style="fill:#1f77b4;stroke:#ffffff;stroke-width:0.75;" x="365.549381" xlink:href="#m9fe5ae0471" y="76.381568"/>
     <use style="fill:#1f77b4;stroke:#ffffff;stroke-width:0.75;" x="372.384214" xlink:href="#m9fe5ae0471" y="75.703763"/>
     <use style="fill:#1f77b4;stroke:#ffffff;stroke-width:0.75;" x="379.219046" xlink:href="#m9fe5ae0471" y="75.703763"/>
     <use style="fill:#1f77b4;stroke:#ffffff;stroke-width:0.75;" x="386.053879" xlink:href="#m9fe5ae0471" y="75.703763"/>
     <use style="fill:#1f77b4;stroke:#ffffff;stroke-width:0.75;" x="392.888711" xlink:href="#m9fe5ae0471" y="75.703763"/>
     <use style="fill:#1f77b4;stroke:#ffffff;stroke-width:0.75;" x="399.723544" xlink:href="#m9fe5ae0471" y="75.50607"/>
     <use style="fill:#1f77b4;stroke:#ffffff;stroke-width:0.75;" x="406.558376" xlink:href="#m9fe5ae0471" y="75.421344"/>
     <use style="fill:#1f77b4;stroke:#ffffff;stroke-width:0.75;" x="413.393209" xlink:href="#m9fe5ae0471" y="75.336619"/>
     <use style="fill:#1f77b4;stroke:#ffffff;stroke-width:0.75;" x="420.228041" xlink:href="#m9fe5ae0471" y="60.142484"/>
     <use style="fill:#1f77b4;stroke:#ffffff;stroke-width:0.75;" x="427.062874" xlink:href="#m9fe5ae0471" y="56.64049"/>
     <use style="fill:#1f77b4;stroke:#ffffff;stroke-width:0.75;" x="433.897706" xlink:href="#m9fe5ae0471" y="56.584006"/>
     <use style="fill:#1f77b4;stroke:#ffffff;stroke-width:0.75;" x="440.732539" xlink:href="#m9fe5ae0471" y="56.527522"/>
     <use style="fill:#1f77b4;stroke:#ffffff;stroke-width:0.75;" x="447.567371" xlink:href="#m9fe5ae0471" y="56.471038"/>
     <use style="fill:#1f77b4;stroke:#ffffff;stroke-width:0.75;" x="454.402204" xlink:href="#m9fe5ae0471" y="56.471038"/>
     <use style="fill:#1f77b4;stroke:#ffffff;stroke-width:0.75;" x="461.237036" xlink:href="#m9fe5ae0471" y="56.471038"/>
     <use style="fill:#1f77b4;stroke:#ffffff;stroke-width:0.75;" x="468.071869" xlink:href="#m9fe5ae0471" y="56.414555"/>
     <use style="fill:#1f77b4;stroke:#ffffff;stroke-width:0.75;" x="474.906702" xlink:href="#m9fe5ae0471" y="50.568484"/>
     <use style="fill:#1f77b4;stroke:#ffffff;stroke-width:0.75;" x="481.741534" xlink:href="#m9fe5ae0471" y="46.727588"/>
     <use style="fill:#1f77b4;stroke:#ffffff;stroke-width:0.75;" x="488.576367" xlink:href="#m9fe5ae0471" y="46.727588"/>
     <use style="fill:#1f77b4;stroke:#ffffff;stroke-width:0.75;" x="495.411199" xlink:href="#m9fe5ae0471" y="46.727588"/>
     <use style="fill:#1f77b4;stroke:#ffffff;stroke-width:0.75;" x="502.246032" xlink:href="#m9fe5ae0471" y="46.727588"/>
     <use style="fill:#1f77b4;stroke:#ffffff;stroke-width:0.75;" x="509.080864" xlink:href="#m9fe5ae0471" y="46.699346"/>
     <use style="fill:#1f77b4;stroke:#ffffff;stroke-width:0.75;" x="515.915697" xlink:href="#m9fe5ae0471" y="46.699346"/>
     <use style="fill:#1f77b4;stroke:#ffffff;stroke-width:0.75;" x="522.750529" xlink:href="#m9fe5ae0471" y="46.699346"/>
     <use style="fill:#1f77b4;stroke:#ffffff;stroke-width:0.75;" x="529.585362" xlink:href="#m9fe5ae0471" y="45.965057"/>
     <use style="fill:#1f77b4;stroke:#ffffff;stroke-width:0.75;" x="536.420194" xlink:href="#m9fe5ae0471" y="45.767363"/>
     <use style="fill:#1f77b4;stroke:#ffffff;stroke-width:0.75;" x="543.255027" xlink:href="#m9fe5ae0471" y="45.767363"/>
     <use style="fill:#1f77b4;stroke:#ffffff;stroke-width:0.75;" x="550.089859" xlink:href="#m9fe5ae0471" y="45.739121"/>
     <use style="fill:#1f77b4;stroke:#ffffff;stroke-width:0.75;" x="556.924692" xlink:href="#m9fe5ae0471" y="45.739121"/>
     <use style="fill:#1f77b4;stroke:#ffffff;stroke-width:0.75;" x="563.759525" xlink:href="#m9fe5ae0471" y="45.71088"/>
     <use style="fill:#1f77b4;stroke:#ffffff;stroke-width:0.75;" x="570.594357" xlink:href="#m9fe5ae0471" y="45.71088"/>
     <use style="fill:#1f77b4;stroke:#ffffff;stroke-width:0.75;" x="577.42919" xlink:href="#m9fe5ae0471" y="45.71088"/>
     <use style="fill:#1f77b4;stroke:#ffffff;stroke-width:0.75;" x="584.264022" xlink:href="#m9fe5ae0471" y="45.71088"/>
     <use style="fill:#1f77b4;stroke:#ffffff;stroke-width:0.75;" x="591.098855" xlink:href="#m9fe5ae0471" y="45.71088"/>
     <use style="fill:#1f77b4;stroke:#ffffff;stroke-width:0.75;" x="597.933687" xlink:href="#m9fe5ae0471" y="44.298785"/>
     <use style="fill:#1f77b4;stroke:#ffffff;stroke-width:0.75;" x="604.76852" xlink:href="#m9fe5ae0471" y="44.298785"/>
     <use style="fill:#1f77b4;stroke:#ffffff;stroke-width:0.75;" x="611.603352" xlink:href="#m9fe5ae0471" y="43.084384"/>
     <use style="fill:#1f77b4;stroke:#ffffff;stroke-width:0.75;" x="618.438185" xlink:href="#m9fe5ae0471" y="42.773723"/>
     <use style="fill:#1f77b4;stroke:#ffffff;stroke-width:0.75;" x="625.273017" xlink:href="#m9fe5ae0471" y="42.773723"/>
     <use style="fill:#1f77b4;stroke:#ffffff;stroke-width:0.75;" x="632.10785" xlink:href="#m9fe5ae0471" y="42.71724"/>
     <use style="fill:#1f77b4;stroke:#ffffff;stroke-width:0.75;" x="638.942682" xlink:href="#m9fe5ae0471" y="42.604272"/>
     <use style="fill:#1f77b4;stroke:#ffffff;stroke-width:0.75;" x="645.777515" xlink:href="#m9fe5ae0471" y="42.604272"/>
     <use style="fill:#1f77b4;stroke:#ffffff;stroke-width:0.75;" x="652.612347" xlink:href="#m9fe5ae0471" y="41.248662"/>
     <use style="fill:#1f77b4;stroke:#ffffff;stroke-width:0.75;" x="659.44718" xlink:href="#m9fe5ae0471" y="41.248662"/>
     <use style="fill:#1f77b4;stroke:#ffffff;stroke-width:0.75;" x="666.282013" xlink:href="#m9fe5ae0471" y="41.248662"/>
     <use style="fill:#1f77b4;stroke:#ffffff;stroke-width:0.75;" x="673.116845" xlink:href="#m9fe5ae0471" y="41.07921"/>
     <use style="fill:#1f77b4;stroke:#ffffff;stroke-width:0.75;" x="679.951678" xlink:href="#m9fe5ae0471" y="41.07921"/>
     <use style="fill:#1f77b4;stroke:#ffffff;stroke-width:0.75;" x="686.78651" xlink:href="#m9fe5ae0471" y="41.07921"/>
     <use style="fill:#1f77b4;stroke:#ffffff;stroke-width:0.75;" x="693.621343" xlink:href="#m9fe5ae0471" y="41.050968"/>
     <use style="fill:#1f77b4;stroke:#ffffff;stroke-width:0.75;" x="700.456175" xlink:href="#m9fe5ae0471" y="41.022726"/>
     <use style="fill:#1f77b4;stroke:#ffffff;stroke-width:0.75;" x="707.291008" xlink:href="#m9fe5ae0471" y="41.022726"/>
     <use style="fill:#1f77b4;stroke:#ffffff;stroke-width:0.75;" x="714.12584" xlink:href="#m9fe5ae0471" y="41.022726"/>
     <use style="fill:#1f77b4;stroke:#ffffff;stroke-width:0.75;" x="720.960673" xlink:href="#m9fe5ae0471" y="41.022726"/>
     <use style="fill:#1f77b4;stroke:#ffffff;stroke-width:0.75;" x="727.795505" xlink:href="#m9fe5ae0471" y="41.022726"/>
     <use style="fill:#1f77b4;stroke:#ffffff;stroke-width:0.75;" x="734.630338" xlink:href="#m9fe5ae0471" y="40.994485"/>
     <use style="fill:#1f77b4;stroke:#ffffff;stroke-width:0.75;" x="741.46517" xlink:href="#m9fe5ae0471" y="40.994485"/>
    </g>
   </g>
   <g id="line2d_19">
    <path clip-path="url(#pe2a00dce3c)" d="M 92.15608 267.621503 
L 98.990912 261.182353 
L 105.825745 259.1913 
L 112.660577 242.006112 
L 119.49541 239.153681 
L 126.330242 229.960947 
L 133.165075 223.40883 
L 139.999907 222.928718 
L 146.83474 222.618057 
L 153.669572 222.250912 
L 160.504405 220.386948 
L 167.339237 217.986387 
L 174.17407 217.591001 
L 181.008903 217.506275 
L 187.843735 215.642311 
L 194.678568 215.529343 
L 201.5134 215.47286 
L 208.348233 215.133957 
L 215.183065 215.020989 
L 222.017898 214.87978 
L 228.85273 214.653845 
L 235.687563 214.597361 
L 242.522395 214.089007 
L 249.357228 214.032523 
L 256.19206 213.721863 
L 263.026893 213.467686 
L 269.861725 213.467686 
L 276.696558 213.269992 
L 283.531391 213.24175 
L 290.366223 212.902848 
L 297.201056 212.874606 
L 304.035888 212.874606 
L 310.870721 212.78988 
L 317.705553 212.366252 
L 324.540386 212.309768 
L 331.375218 212.309768 
L 338.210051 212.225043 
L 345.044883 212.168559 
L 351.879716 212.112075 
L 358.714548 212.055591 
L 365.549381 211.999107 
L 372.384214 211.603721 
L 379.219046 211.603721 
L 386.053879 211.462512 
L 392.888711 211.43427 
L 399.723544 211.349544 
L 406.558376 211.349544 
L 413.393209 211.349544 
L 420.228041 211.321302 
L 427.062874 210.869432 
L 433.897706 210.869432 
L 440.732539 210.869432 
L 447.567371 210.587013 
L 454.402204 209.655031 
L 461.237036 209.48558 
L 468.071869 209.48558 
L 474.906702 209.429096 
L 481.741534 209.429096 
L 488.576367 209.429096 
L 495.411199 209.372612 
L 502.246032 209.231403 
L 509.080864 209.231403 
L 515.915697 209.203161 
L 522.750529 209.203161 
L 529.585362 209.033709 
L 536.420194 208.977226 
L 543.255027 208.977226 
L 550.089859 208.977226 
L 556.924692 208.497114 
L 563.759525 208.497114 
L 570.594357 208.497114 
L 577.42919 208.412388 
L 584.264022 208.412388 
L 591.098855 208.412388 
L 597.933687 208.412388 
L 604.76852 208.384146 
L 611.603352 208.327662 
L 618.438185 208.29942 
L 625.273017 208.158211 
L 632.10785 203.4983 
L 638.942682 201.973238 
L 645.777515 200.165757 
L 652.612347 198.838388 
L 659.44718 198.047616 
L 666.282013 197.143875 
L 673.116845 195.760023 
L 679.951678 194.771557 
L 686.78651 194.093751 
L 693.621343 192.851108 
L 700.456175 192.286271 
L 707.291008 191.580224 
L 714.12584 191.495498 
L 720.960673 191.297805 
L 727.795505 191.043628 
L 734.630338 190.958902 
L 741.46517 190.93066 
" style="fill:none;stroke:#98df8a;stroke-linecap:square;stroke-width:1.5;"/>
    <defs>
     <path d="M -0 3 
L 3 -3 
L -3 -3 
z
" id="md8e21b8258" style="stroke:#ffffff;stroke-linejoin:miter;stroke-width:0.75;"/>
    </defs>
    <g clip-path="url(#pe2a00dce3c)">
     <use style="fill:#98df8a;stroke:#ffffff;stroke-linejoin:miter;stroke-width:0.75;" x="92.15608" xlink:href="#md8e21b8258" y="267.621503"/>
     <use style="fill:#98df8a;stroke:#ffffff;stroke-linejoin:miter;stroke-width:0.75;" x="98.990912" xlink:href="#md8e21b8258" y="261.182353"/>
     <use style="fill:#98df8a;stroke:#ffffff;stroke-linejoin:miter;stroke-width:0.75;" x="105.825745" xlink:href="#md8e21b8258" y="259.1913"/>
     <use style="fill:#98df8a;stroke:#ffffff;stroke-linejoin:miter;stroke-width:0.75;" x="112.660577" xlink:href="#md8e21b8258" y="242.006112"/>
     <use style="fill:#98df8a;stroke:#ffffff;stroke-linejoin:miter;stroke-width:0.75;" x="119.49541" xlink:href="#md8e21b8258" y="239.153681"/>
     <use style="fill:#98df8a;stroke:#ffffff;stroke-linejoin:miter;stroke-width:0.75;" x="126.330242" xlink:href="#md8e21b8258" y="229.960947"/>
     <use style="fill:#98df8a;stroke:#ffffff;stroke-linejoin:miter;stroke-width:0.75;" x="133.165075" xlink:href="#md8e21b8258" y="223.40883"/>
     <use style="fill:#98df8a;stroke:#ffffff;stroke-linejoin:miter;stroke-width:0.75;" x="139.999907" xlink:href="#md8e21b8258" y="222.928718"/>
     <use style="fill:#98df8a;stroke:#ffffff;stroke-linejoin:miter;stroke-width:0.75;" x="146.83474" xlink:href="#md8e21b8258" y="222.618057"/>
     <use style="fill:#98df8a;stroke:#ffffff;stroke-linejoin:miter;stroke-width:0.75;" x="153.669572" xlink:href="#md8e21b8258" y="222.250912"/>
     <use style="fill:#98df8a;stroke:#ffffff;stroke-linejoin:miter;stroke-width:0.75;" x="160.504405" xlink:href="#md8e21b8258" y="220.386948"/>
     <use style="fill:#98df8a;stroke:#ffffff;stroke-linejoin:miter;stroke-width:0.75;" x="167.339237" xlink:href="#md8e21b8258" y="217.986387"/>
     <use style="fill:#98df8a;stroke:#ffffff;stroke-linejoin:miter;stroke-width:0.75;" x="174.17407" xlink:href="#md8e21b8258" y="217.591001"/>
     <use style="fill:#98df8a;stroke:#ffffff;stroke-linejoin:miter;stroke-width:0.75;" x="181.008903" xlink:href="#md8e21b8258" y="217.506275"/>
     <use style="fill:#98df8a;stroke:#ffffff;stroke-linejoin:miter;stroke-width:0.75;" x="187.843735" xlink:href="#md8e21b8258" y="215.642311"/>
     <use style="fill:#98df8a;stroke:#ffffff;stroke-linejoin:miter;stroke-width:0.75;" x="194.678568" xlink:href="#md8e21b8258" y="215.529343"/>
     <use style="fill:#98df8a;stroke:#ffffff;stroke-linejoin:miter;stroke-width:0.75;" x="201.5134" xlink:href="#md8e21b8258" y="215.47286"/>
     <use style="fill:#98df8a;stroke:#ffffff;stroke-linejoin:miter;stroke-width:0.75;" x="208.348233" xlink:href="#md8e21b8258" y="215.133957"/>
     <use style="fill:#98df8a;stroke:#ffffff;stroke-linejoin:miter;stroke-width:0.75;" x="215.183065" xlink:href="#md8e21b8258" y="215.020989"/>
     <use style="fill:#98df8a;stroke:#ffffff;stroke-linejoin:miter;stroke-width:0.75;" x="222.017898" xlink:href="#md8e21b8258" y="214.87978"/>
     <use style="fill:#98df8a;stroke:#ffffff;stroke-linejoin:miter;stroke-width:0.75;" x="228.85273" xlink:href="#md8e21b8258" y="214.653845"/>
     <use style="fill:#98df8a;stroke:#ffffff;stroke-linejoin:miter;stroke-width:0.75;" x="235.687563" xlink:href="#md8e21b8258" y="214.597361"/>
     <use style="fill:#98df8a;stroke:#ffffff;stroke-linejoin:miter;stroke-width:0.75;" x="242.522395" xlink:href="#md8e21b8258" y="214.089007"/>
     <use style="fill:#98df8a;stroke:#ffffff;stroke-linejoin:miter;stroke-width:0.75;" x="249.357228" xlink:href="#md8e21b8258" y="214.032523"/>
     <use style="fill:#98df8a;stroke:#ffffff;stroke-linejoin:miter;stroke-width:0.75;" x="256.19206" xlink:href="#md8e21b8258" y="213.721863"/>
     <use style="fill:#98df8a;stroke:#ffffff;stroke-linejoin:miter;stroke-width:0.75;" x="263.026893" xlink:href="#md8e21b8258" y="213.467686"/>
     <use style="fill:#98df8a;stroke:#ffffff;stroke-linejoin:miter;stroke-width:0.75;" x="269.861725" xlink:href="#md8e21b8258" y="213.467686"/>
     <use style="fill:#98df8a;stroke:#ffffff;stroke-linejoin:miter;stroke-width:0.75;" x="276.696558" xlink:href="#md8e21b8258" y="213.269992"/>
     <use style="fill:#98df8a;stroke:#ffffff;stroke-linejoin:miter;stroke-width:0.75;" x="283.531391" xlink:href="#md8e21b8258" y="213.24175"/>
     <use style="fill:#98df8a;stroke:#ffffff;stroke-linejoin:miter;stroke-width:0.75;" x="290.366223" xlink:href="#md8e21b8258" y="212.902848"/>
     <use style="fill:#98df8a;stroke:#ffffff;stroke-linejoin:miter;stroke-width:0.75;" x="297.201056" xlink:href="#md8e21b8258" y="212.874606"/>
     <use style="fill:#98df8a;stroke:#ffffff;stroke-linejoin:miter;stroke-width:0.75;" x="304.035888" xlink:href="#md8e21b8258" y="212.874606"/>
     <use style="fill:#98df8a;stroke:#ffffff;stroke-linejoin:miter;stroke-width:0.75;" x="310.870721" xlink:href="#md8e21b8258" y="212.78988"/>
     <use style="fill:#98df8a;stroke:#ffffff;stroke-linejoin:miter;stroke-width:0.75;" x="317.705553" xlink:href="#md8e21b8258" y="212.366252"/>
     <use style="fill:#98df8a;stroke:#ffffff;stroke-linejoin:miter;stroke-width:0.75;" x="324.540386" xlink:href="#md8e21b8258" y="212.309768"/>
     <use style="fill:#98df8a;stroke:#ffffff;stroke-linejoin:miter;stroke-width:0.75;" x="331.375218" xlink:href="#md8e21b8258" y="212.309768"/>
     <use style="fill:#98df8a;stroke:#ffffff;stroke-linejoin:miter;stroke-width:0.75;" x="338.210051" xlink:href="#md8e21b8258" y="212.225043"/>
     <use style="fill:#98df8a;stroke:#ffffff;stroke-linejoin:miter;stroke-width:0.75;" x="345.044883" xlink:href="#md8e21b8258" y="212.168559"/>
     <use style="fill:#98df8a;stroke:#ffffff;stroke-linejoin:miter;stroke-width:0.75;" x="351.879716" xlink:href="#md8e21b8258" y="212.112075"/>
     <use style="fill:#98df8a;stroke:#ffffff;stroke-linejoin:miter;stroke-width:0.75;" x="358.714548" xlink:href="#md8e21b8258" y="212.055591"/>
     <use style="fill:#98df8a;stroke:#ffffff;stroke-linejoin:miter;stroke-width:0.75;" x="365.549381" xlink:href="#md8e21b8258" y="211.999107"/>
     <use style="fill:#98df8a;stroke:#ffffff;stroke-linejoin:miter;stroke-width:0.75;" x="372.384214" xlink:href="#md8e21b8258" y="211.603721"/>
     <use style="fill:#98df8a;stroke:#ffffff;stroke-linejoin:miter;stroke-width:0.75;" x="379.219046" xlink:href="#md8e21b8258" y="211.603721"/>
     <use style="fill:#98df8a;stroke:#ffffff;stroke-linejoin:miter;stroke-width:0.75;" x="386.053879" xlink:href="#md8e21b8258" y="211.462512"/>
     <use style="fill:#98df8a;stroke:#ffffff;stroke-linejoin:miter;stroke-width:0.75;" x="392.888711" xlink:href="#md8e21b8258" y="211.43427"/>
     <use style="fill:#98df8a;stroke:#ffffff;stroke-linejoin:miter;stroke-width:0.75;" x="399.723544" xlink:href="#md8e21b8258" y="211.349544"/>
     <use style="fill:#98df8a;stroke:#ffffff;stroke-linejoin:miter;stroke-width:0.75;" x="406.558376" xlink:href="#md8e21b8258" y="211.349544"/>
     <use style="fill:#98df8a;stroke:#ffffff;stroke-linejoin:miter;stroke-width:0.75;" x="413.393209" xlink:href="#md8e21b8258" y="211.349544"/>
     <use style="fill:#98df8a;stroke:#ffffff;stroke-linejoin:miter;stroke-width:0.75;" x="420.228041" xlink:href="#md8e21b8258" y="211.321302"/>
     <use style="fill:#98df8a;stroke:#ffffff;stroke-linejoin:miter;stroke-width:0.75;" x="427.062874" xlink:href="#md8e21b8258" y="210.869432"/>
     <use style="fill:#98df8a;stroke:#ffffff;stroke-linejoin:miter;stroke-width:0.75;" x="433.897706" xlink:href="#md8e21b8258" y="210.869432"/>
     <use style="fill:#98df8a;stroke:#ffffff;stroke-linejoin:miter;stroke-width:0.75;" x="440.732539" xlink:href="#md8e21b8258" y="210.869432"/>
     <use style="fill:#98df8a;stroke:#ffffff;stroke-linejoin:miter;stroke-width:0.75;" x="447.567371" xlink:href="#md8e21b8258" y="210.587013"/>
     <use style="fill:#98df8a;stroke:#ffffff;stroke-linejoin:miter;stroke-width:0.75;" x="454.402204" xlink:href="#md8e21b8258" y="209.655031"/>
     <use style="fill:#98df8a;stroke:#ffffff;stroke-linejoin:miter;stroke-width:0.75;" x="461.237036" xlink:href="#md8e21b8258" y="209.48558"/>
     <use style="fill:#98df8a;stroke:#ffffff;stroke-linejoin:miter;stroke-width:0.75;" x="468.071869" xlink:href="#md8e21b8258" y="209.48558"/>
     <use style="fill:#98df8a;stroke:#ffffff;stroke-linejoin:miter;stroke-width:0.75;" x="474.906702" xlink:href="#md8e21b8258" y="209.429096"/>
     <use style="fill:#98df8a;stroke:#ffffff;stroke-linejoin:miter;stroke-width:0.75;" x="481.741534" xlink:href="#md8e21b8258" y="209.429096"/>
     <use style="fill:#98df8a;stroke:#ffffff;stroke-linejoin:miter;stroke-width:0.75;" x="488.576367" xlink:href="#md8e21b8258" y="209.429096"/>
     <use style="fill:#98df8a;stroke:#ffffff;stroke-linejoin:miter;stroke-width:0.75;" x="495.411199" xlink:href="#md8e21b8258" y="209.372612"/>
     <use style="fill:#98df8a;stroke:#ffffff;stroke-linejoin:miter;stroke-width:0.75;" x="502.246032" xlink:href="#md8e21b8258" y="209.231403"/>
     <use style="fill:#98df8a;stroke:#ffffff;stroke-linejoin:miter;stroke-width:0.75;" x="509.080864" xlink:href="#md8e21b8258" y="209.231403"/>
     <use style="fill:#98df8a;stroke:#ffffff;stroke-linejoin:miter;stroke-width:0.75;" x="515.915697" xlink:href="#md8e21b8258" y="209.203161"/>
     <use style="fill:#98df8a;stroke:#ffffff;stroke-linejoin:miter;stroke-width:0.75;" x="522.750529" xlink:href="#md8e21b8258" y="209.203161"/>
     <use style="fill:#98df8a;stroke:#ffffff;stroke-linejoin:miter;stroke-width:0.75;" x="529.585362" xlink:href="#md8e21b8258" y="209.033709"/>
     <use style="fill:#98df8a;stroke:#ffffff;stroke-linejoin:miter;stroke-width:0.75;" x="536.420194" xlink:href="#md8e21b8258" y="208.977226"/>
     <use style="fill:#98df8a;stroke:#ffffff;stroke-linejoin:miter;stroke-width:0.75;" x="543.255027" xlink:href="#md8e21b8258" y="208.977226"/>
     <use style="fill:#98df8a;stroke:#ffffff;stroke-linejoin:miter;stroke-width:0.75;" x="550.089859" xlink:href="#md8e21b8258" y="208.977226"/>
     <use style="fill:#98df8a;stroke:#ffffff;stroke-linejoin:miter;stroke-width:0.75;" x="556.924692" xlink:href="#md8e21b8258" y="208.497114"/>
     <use style="fill:#98df8a;stroke:#ffffff;stroke-linejoin:miter;stroke-width:0.75;" x="563.759525" xlink:href="#md8e21b8258" y="208.497114"/>
     <use style="fill:#98df8a;stroke:#ffffff;stroke-linejoin:miter;stroke-width:0.75;" x="570.594357" xlink:href="#md8e21b8258" y="208.497114"/>
     <use style="fill:#98df8a;stroke:#ffffff;stroke-linejoin:miter;stroke-width:0.75;" x="577.42919" xlink:href="#md8e21b8258" y="208.412388"/>
     <use style="fill:#98df8a;stroke:#ffffff;stroke-linejoin:miter;stroke-width:0.75;" x="584.264022" xlink:href="#md8e21b8258" y="208.412388"/>
     <use style="fill:#98df8a;stroke:#ffffff;stroke-linejoin:miter;stroke-width:0.75;" x="591.098855" xlink:href="#md8e21b8258" y="208.412388"/>
     <use style="fill:#98df8a;stroke:#ffffff;stroke-linejoin:miter;stroke-width:0.75;" x="597.933687" xlink:href="#md8e21b8258" y="208.412388"/>
     <use style="fill:#98df8a;stroke:#ffffff;stroke-linejoin:miter;stroke-width:0.75;" x="604.76852" xlink:href="#md8e21b8258" y="208.384146"/>
     <use style="fill:#98df8a;stroke:#ffffff;stroke-linejoin:miter;stroke-width:0.75;" x="611.603352" xlink:href="#md8e21b8258" y="208.327662"/>
     <use style="fill:#98df8a;stroke:#ffffff;stroke-linejoin:miter;stroke-width:0.75;" x="618.438185" xlink:href="#md8e21b8258" y="208.29942"/>
     <use style="fill:#98df8a;stroke:#ffffff;stroke-linejoin:miter;stroke-width:0.75;" x="625.273017" xlink:href="#md8e21b8258" y="208.158211"/>
     <use style="fill:#98df8a;stroke:#ffffff;stroke-linejoin:miter;stroke-width:0.75;" x="632.10785" xlink:href="#md8e21b8258" y="203.4983"/>
     <use style="fill:#98df8a;stroke:#ffffff;stroke-linejoin:miter;stroke-width:0.75;" x="638.942682" xlink:href="#md8e21b8258" y="201.973238"/>
     <use style="fill:#98df8a;stroke:#ffffff;stroke-linejoin:miter;stroke-width:0.75;" x="645.777515" xlink:href="#md8e21b8258" y="200.165757"/>
     <use style="fill:#98df8a;stroke:#ffffff;stroke-linejoin:miter;stroke-width:0.75;" x="652.612347" xlink:href="#md8e21b8258" y="198.838388"/>
     <use style="fill:#98df8a;stroke:#ffffff;stroke-linejoin:miter;stroke-width:0.75;" x="659.44718" xlink:href="#md8e21b8258" y="198.047616"/>
     <use style="fill:#98df8a;stroke:#ffffff;stroke-linejoin:miter;stroke-width:0.75;" x="666.282013" xlink:href="#md8e21b8258" y="197.143875"/>
     <use style="fill:#98df8a;stroke:#ffffff;stroke-linejoin:miter;stroke-width:0.75;" x="673.116845" xlink:href="#md8e21b8258" y="195.760023"/>
     <use style="fill:#98df8a;stroke:#ffffff;stroke-linejoin:miter;stroke-width:0.75;" x="679.951678" xlink:href="#md8e21b8258" y="194.771557"/>
     <use style="fill:#98df8a;stroke:#ffffff;stroke-linejoin:miter;stroke-width:0.75;" x="686.78651" xlink:href="#md8e21b8258" y="194.093751"/>
     <use style="fill:#98df8a;stroke:#ffffff;stroke-linejoin:miter;stroke-width:0.75;" x="693.621343" xlink:href="#md8e21b8258" y="192.851108"/>
     <use style="fill:#98df8a;stroke:#ffffff;stroke-linejoin:miter;stroke-width:0.75;" x="700.456175" xlink:href="#md8e21b8258" y="192.286271"/>
     <use style="fill:#98df8a;stroke:#ffffff;stroke-linejoin:miter;stroke-width:0.75;" x="707.291008" xlink:href="#md8e21b8258" y="191.580224"/>
     <use style="fill:#98df8a;stroke:#ffffff;stroke-linejoin:miter;stroke-width:0.75;" x="714.12584" xlink:href="#md8e21b8258" y="191.495498"/>
     <use style="fill:#98df8a;stroke:#ffffff;stroke-linejoin:miter;stroke-width:0.75;" x="720.960673" xlink:href="#md8e21b8258" y="191.297805"/>
     <use style="fill:#98df8a;stroke:#ffffff;stroke-linejoin:miter;stroke-width:0.75;" x="727.795505" xlink:href="#md8e21b8258" y="191.043628"/>
     <use style="fill:#98df8a;stroke:#ffffff;stroke-linejoin:miter;stroke-width:0.75;" x="734.630338" xlink:href="#md8e21b8258" y="190.958902"/>
     <use style="fill:#98df8a;stroke:#ffffff;stroke-linejoin:miter;stroke-width:0.75;" x="741.46517" xlink:href="#md8e21b8258" y="190.93066"/>
    </g>
   </g>
   <g id="line2d_20"/>
   <g id="line2d_21"/>
   <g id="line2d_22">
    <path clip-path="url(#pe2a00dce3c)" d="M 741.46517 288.430125 
L 741.46517 22.318125 
" style="fill:none;stroke:#ff0000;stroke-linecap:square;stroke-width:1.5;"/>
   </g>
   <g id="patch_3">
    <path d="M 59.690625 287.207251 
L 59.690625 61.272159 
" style="fill:none;stroke:#000000;stroke-linecap:square;stroke-linejoin:miter;stroke-width:0.8;"/>
   </g>
   <g id="patch_4">
    <path d="M 92.15608 288.430125 
L 693.621343 288.430125 
" style="fill:none;stroke:#000000;stroke-linecap:square;stroke-linejoin:miter;stroke-width:0.8;"/>
   </g>
   <g id="text_20">
    <!-- freetype2-2017 (24h, 13 trials/fuzzer) -->
    <g transform="translate(303.597188 16.318125)scale(0.12 -0.12)">
     <defs>
      <path d="M 2375 4863 
L 2375 4384 
L 1825 4384 
Q 1516 4384 1395 4259 
Q 1275 4134 1275 3809 
L 1275 3500 
L 2222 3500 
L 2222 3053 
L 1275 3053 
L 1275 0 
L 697 0 
L 697 3053 
L 147 3053 
L 147 3500 
L 697 3500 
L 697 3744 
Q 697 4328 969 4595 
Q 1241 4863 1831 4863 
L 2375 4863 
z
" id="DejaVuSans-66" transform="scale(0.015625)"/>
      <path d="M 2059 -325 
Q 1816 -950 1584 -1140 
Q 1353 -1331 966 -1331 
L 506 -1331 
L 506 -850 
L 844 -850 
Q 1081 -850 1212 -737 
Q 1344 -625 1503 -206 
L 1606 56 
L 191 3500 
L 800 3500 
L 1894 763 
L 2988 3500 
L 3597 3500 
L 2059 -325 
z
" id="DejaVuSans-79" transform="scale(0.015625)"/>
      <path d="M 1159 525 
L 1159 -1331 
L 581 -1331 
L 581 3500 
L 1159 3500 
L 1159 2969 
Q 1341 3281 1617 3432 
Q 1894 3584 2278 3584 
Q 2916 3584 3314 3078 
Q 3713 2572 3713 1747 
Q 3713 922 3314 415 
Q 2916 -91 2278 -91 
Q 1894 -91 1617 61 
Q 1341 213 1159 525 
z
M 3116 1747 
Q 3116 2381 2855 2742 
Q 2594 3103 2138 3103 
Q 1681 3103 1420 2742 
Q 1159 2381 1159 1747 
Q 1159 1113 1420 752 
Q 1681 391 2138 391 
Q 2594 391 2855 752 
Q 3116 1113 3116 1747 
z
" id="DejaVuSans-70" transform="scale(0.015625)"/>
      <path d="M 313 2009 
L 1997 2009 
L 1997 1497 
L 313 1497 
L 313 2009 
z
" id="DejaVuSans-2d" transform="scale(0.015625)"/>
      <path d="M 525 4666 
L 3525 4666 
L 3525 4397 
L 1831 0 
L 1172 0 
L 2766 4134 
L 525 4134 
L 525 4666 
z
" id="DejaVuSans-37" transform="scale(0.015625)"/>
      <path d="M 750 794 
L 1409 794 
L 1409 256 
L 897 -744 
L 494 -744 
L 750 256 
L 750 794 
z
" id="DejaVuSans-2c" transform="scale(0.015625)"/>
      <path d="M 2597 2516 
Q 3050 2419 3304 2112 
Q 3559 1806 3559 1356 
Q 3559 666 3084 287 
Q 2609 -91 1734 -91 
Q 1441 -91 1130 -33 
Q 819 25 488 141 
L 488 750 
Q 750 597 1062 519 
Q 1375 441 1716 441 
Q 2309 441 2620 675 
Q 2931 909 2931 1356 
Q 2931 1769 2642 2001 
Q 2353 2234 1838 2234 
L 1294 2234 
L 1294 2753 
L 1863 2753 
Q 2328 2753 2575 2939 
Q 2822 3125 2822 3475 
Q 2822 3834 2567 4026 
Q 2313 4219 1838 4219 
Q 1578 4219 1281 4162 
Q 984 4106 628 3988 
L 628 4550 
Q 988 4650 1302 4700 
Q 1616 4750 1894 4750 
Q 2613 4750 3031 4423 
Q 3450 4097 3450 3541 
Q 3450 3153 3228 2886 
Q 3006 2619 2597 2516 
z
" id="DejaVuSans-33" transform="scale(0.015625)"/>
      <path d="M 603 4863 
L 1178 4863 
L 1178 0 
L 603 0 
L 603 4863 
z
" id="DejaVuSans-6c" transform="scale(0.015625)"/>
      <path d="M 2834 3397 
L 2834 2853 
Q 2591 2978 2328 3040 
Q 2066 3103 1784 3103 
Q 1356 3103 1142 2972 
Q 928 2841 928 2578 
Q 928 2378 1081 2264 
Q 1234 2150 1697 2047 
L 1894 2003 
Q 2506 1872 2764 1633 
Q 3022 1394 3022 966 
Q 3022 478 2636 193 
Q 2250 -91 1575 -91 
Q 1294 -91 989 -36 
Q 684 19 347 128 
L 347 722 
Q 666 556 975 473 
Q 1284 391 1588 391 
Q 1994 391 2212 530 
Q 2431 669 2431 922 
Q 2431 1156 2273 1281 
Q 2116 1406 1581 1522 
L 1381 1569 
Q 847 1681 609 1914 
Q 372 2147 372 2553 
Q 372 3047 722 3315 
Q 1072 3584 1716 3584 
Q 2034 3584 2315 3537 
Q 2597 3491 2834 3397 
z
" id="DejaVuSans-73" transform="scale(0.015625)"/>
      <path d="M 1625 4666 
L 2156 4666 
L 531 -594 
L 0 -594 
L 1625 4666 
z
" id="DejaVuSans-2f" transform="scale(0.015625)"/>
      <path d="M 353 3500 
L 3084 3500 
L 3084 2975 
L 922 459 
L 3084 459 
L 3084 0 
L 275 0 
L 275 525 
L 2438 3041 
L 353 3041 
L 353 3500 
z
" id="DejaVuSans-7a" transform="scale(0.015625)"/>
     </defs>
     <use xlink:href="#DejaVuSans-66"/>
     <use x="35.205078" xlink:href="#DejaVuSans-72"/>
     <use x="74.068359" xlink:href="#DejaVuSans-65"/>
     <use x="135.591797" xlink:href="#DejaVuSans-65"/>
     <use x="197.115234" xlink:href="#DejaVuSans-74"/>
     <use x="236.324219" xlink:href="#DejaVuSans-79"/>
     <use x="295.503906" xlink:href="#DejaVuSans-70"/>
     <use x="358.980469" xlink:href="#DejaVuSans-65"/>
     <use x="420.503906" xlink:href="#DejaVuSans-32"/>
     <use x="484.126953" xlink:href="#DejaVuSans-2d"/>
     <use x="520.210938" xlink:href="#DejaVuSans-32"/>
     <use x="583.833984" xlink:href="#DejaVuSans-30"/>
     <use x="647.457031" xlink:href="#DejaVuSans-31"/>
     <use x="711.080078" xlink:href="#DejaVuSans-37"/>
     <use x="774.703125" xlink:href="#DejaVuSans-20"/>
     <use x="806.490234" xlink:href="#DejaVuSans-28"/>
     <use x="845.503906" xlink:href="#DejaVuSans-32"/>
     <use x="909.126953" xlink:href="#DejaVuSans-34"/>
     <use x="972.75" xlink:href="#DejaVuSans-68"/>
     <use x="1036.128906" xlink:href="#DejaVuSans-2c"/>
     <use x="1067.916016" xlink:href="#DejaVuSans-20"/>
     <use x="1099.703125" xlink:href="#DejaVuSans-31"/>
     <use x="1163.326172" xlink:href="#DejaVuSans-33"/>
     <use x="1226.949219" xlink:href="#DejaVuSans-20"/>
     <use x="1258.736328" xlink:href="#DejaVuSans-74"/>
     <use x="1297.945312" xlink:href="#DejaVuSans-72"/>
     <use x="1339.058594" xlink:href="#DejaVuSans-69"/>
     <use x="1366.841797" xlink:href="#DejaVuSans-61"/>
     <use x="1428.121094" xlink:href="#DejaVuSans-6c"/>
     <use x="1455.904297" xlink:href="#DejaVuSans-73"/>
     <use x="1508.003906" xlink:href="#DejaVuSans-2f"/>
     <use x="1541.695312" xlink:href="#DejaVuSans-66"/>
     <use x="1576.900391" xlink:href="#DejaVuSans-75"/>
     <use x="1640.279297" xlink:href="#DejaVuSans-7a"/>
     <use x="1692.769531" xlink:href="#DejaVuSans-7a"/>
     <use x="1745.259766" xlink:href="#DejaVuSans-65"/>
     <use x="1806.783203" xlink:href="#DejaVuSans-72"/>
     <use x="1847.896484" xlink:href="#DejaVuSans-29"/>
    </g>
   </g>
   <g id="legend_1">
    <g id="line2d_23">
     <path d="M 777.930625 30.416562 
L 797.930625 30.416562 
" style="fill:none;stroke:#1f77b4;stroke-linecap:square;stroke-width:1.5;"/>
    </g>
    <g id="line2d_24">
     <defs>
      <path d="M 0 3 
C 0.795609 3 1.55874 2.683901 2.12132 2.12132 
C 2.683901 1.55874 3 0.795609 3 0 
C 3 -0.795609 2.683901 -1.55874 2.12132 -2.12132 
C 1.55874 -2.683901 0.795609 -3 0 -3 
C -0.795609 -3 -1.55874 -2.683901 -2.12132 -2.12132 
C -2.683901 -1.55874 -3 -0.795609 -3 0 
C -3 0.795609 -2.683901 1.55874 -2.12132 2.12132 
C -1.55874 2.683901 -0.795609 3 0 3 
z
" id="m8a08ce6b4f" style="stroke:#1f77b4;"/>
     </defs>
     <g>
      <use style="fill:#1f77b4;stroke:#1f77b4;" x="787.930625" xlink:href="#m8a08ce6b4f" y="30.416562"/>
     </g>
    </g>
    <g id="text_21">
     <!-- aflplusplus -->
     <g transform="translate(805.930625 33.916562)scale(0.1 -0.1)">
      <use xlink:href="#DejaVuSans-61"/>
      <use x="61.279297" xlink:href="#DejaVuSans-66"/>
      <use x="96.484375" xlink:href="#DejaVuSans-6c"/>
      <use x="124.267578" xlink:href="#DejaVuSans-70"/>
      <use x="187.744141" xlink:href="#DejaVuSans-6c"/>
      <use x="215.527344" xlink:href="#DejaVuSans-75"/>
      <use x="278.90625" xlink:href="#DejaVuSans-73"/>
      <use x="331.005859" xlink:href="#DejaVuSans-70"/>
      <use x="394.482422" xlink:href="#DejaVuSans-6c"/>
      <use x="422.265625" xlink:href="#DejaVuSans-75"/>
      <use x="485.644531" xlink:href="#DejaVuSans-73"/>
     </g>
    </g>
    <g id="line2d_25">
     <path d="M 777.930625 45.094688 
L 797.930625 45.094688 
" style="fill:none;stroke:#98df8a;stroke-linecap:square;stroke-width:1.5;"/>
    </g>
    <g id="line2d_26">
     <defs>
      <path d="M -0 3 
L 3 -3 
L -3 -3 
z
" id="mc1ea7348d8" style="stroke:#98df8a;stroke-linejoin:miter;"/>
     </defs>
     <g>
      <use style="fill:#98df8a;stroke:#98df8a;stroke-linejoin:miter;" x="787.930625" xlink:href="#mc1ea7348d8" y="45.094688"/>
     </g>
    </g>
    <g id="text_22">
     <!-- libfuzzer -->
     <g transform="translate(805.930625 48.594688)scale(0.1 -0.1)">
      <use xlink:href="#DejaVuSans-6c"/>
      <use x="27.783203" xlink:href="#DejaVuSans-69"/>
      <use x="55.566406" xlink:href="#DejaVuSans-62"/>
      <use x="119.042969" xlink:href="#DejaVuSans-66"/>
      <use x="154.248047" xlink:href="#DejaVuSans-75"/>
      <use x="217.626953" xlink:href="#DejaVuSans-7a"/>
      <use x="270.117188" xlink:href="#DejaVuSans-7a"/>
      <use x="322.607422" xlink:href="#DejaVuSans-65"/>
      <use x="384.130859" xlink:href="#DejaVuSans-72"/>
     </g>
    </g>
   </g>
  </g>
 </g>
 <defs>
  <clipPath id="pe2a00dce3c">
   <rect height="266.112" width="714.24" x="59.690625" y="22.318125"/>
  </clipPath>
 </defs>
</svg>
