<?xml version="1.0" encoding="utf-8" standalone="no"?>
<!DOCTYPE svg PUBLIC "-//W3C//DTD SVG 1.1//EN"
  "http://www.w3.org/Graphics/SVG/1.1/DTD/svg11.dtd">
<svg height="325.986375pt" version="1.1" viewBox="0 0 864.541562 325.986375" width="864.541562pt" xmlns="http://www.w3.org/2000/svg" xmlns:xlink="http://www.w3.org/1999/xlink">
 <metadata>
  <rdf:RDF xmlns:cc="http://creativecommons.org/ns#" xmlns:dc="http://purl.org/dc/elements/1.1/" xmlns:rdf="http://www.w3.org/1999/02/22-rdf-syntax-ns#">
   <cc:Work>
    <dc:type rdf:resource="http://purl.org/dc/dcmitype/StillImage"/>
    <dc:date>2023-01-27T21:27:32.744649</dc:date>
    <dc:format>image/svg+xml</dc:format>
    <dc:creator>
     <cc:Agent>
      <dc:title>Matplotlib v3.4.2, https://matplotlib.org/</dc:title>
     </cc:Agent>
    </dc:creator>
   </cc:Work>
  </rdf:RDF>
 </metadata>
 <defs>
  <style type="text/css">*{stroke-linecap:butt;stroke-linejoin:round;}</style>
 </defs>
 <g id="figure_1">
  <g id="patch_1">
   <path d="M 0 325.986375 
L 864.541562 325.986375 
L 864.541562 0 
L 0 0 
z
" style="fill:#ffffff;"/>
  </g>
  <g id="axes_1">
   <g id="patch_2">
    <path d="M 53.328125 288.430125 
L 767.568125 288.430125 
L 767.568125 22.318125 
L 53.328125 22.318125 
z
" style="fill:#ffffff;"/>
   </g>
   <g id="PolyCollection_1">
    <defs>
     <path d="M 85.79358 -145.612902 
L 85.79358 -128.742135 
L 132.1728 -164.215644 
L 178.552021 -181.150357 
L 224.931242 -195.789829 
L 271.310463 -205.475555 
L 317.689683 -212.920461 
L 364.068904 -222.56537 
L 410.448125 -228.987146 
L 456.827346 -236.932733 
L 503.206567 -243.953149 
L 549.585787 -253.150438 
L 595.965008 -257.613028 
L 642.344229 -263.817117 
L 688.72345 -267.300114 
L 735.10267 -271.436173 
L 735.10267 -290.048439 
L 735.10267 -290.048439 
L 688.72345 -285.150474 
L 642.344229 -279.490604 
L 595.965008 -272.633453 
L 549.585787 -268.66066 
L 503.206567 -263.92596 
L 456.827346 -260.116432 
L 410.448125 -252.610301 
L 364.068904 -246.293288 
L 317.689683 -236.606202 
L 271.310463 -224.415712 
L 224.931242 -212.987128 
L 178.552021 -199.272826 
L 132.1728 -182.946277 
L 85.79358 -145.612902 
z
" id="mbbd22507fe" style="stroke:#ff7f0e;stroke-opacity:0.2;"/>
    </defs>
    <g clip-path="url(#p20b06644b8)">
     <use style="fill:#ff7f0e;fill-opacity:0.2;stroke:#ff7f0e;stroke-opacity:0.2;" x="0" xlink:href="#mbbd22507fe" y="325.986375"/>
    </g>
   </g>
   <g id="PolyCollection_2">
    <defs>
     <path d="M 85.79358 -97.612848 
L 85.79358 -81.340721 
L 132.1728 -131.898601 
L 178.552021 -154.592504 
L 224.931242 -173.363954 
L 271.310463 -187.898664 
L 317.689683 -202.64698 
L 364.068904 -211.354473 
L 410.448125 -220.061965 
L 456.827346 -228.334084 
L 503.206567 -232.143612 
L 549.585787 -238.075591 
L 595.965008 -243.953149 
L 642.344229 -247.800772 
L 688.72345 -251.055198 
L 735.10267 -258.483777 
L 735.10267 -286.184489 
L 735.10267 -286.184489 
L 688.72345 -283.300132 
L 642.344229 -279.708291 
L 595.965008 -276.11645 
L 549.585787 -273.776312 
L 503.206567 -264.79671 
L 456.827346 -261.553169 
L 410.448125 -254.238875 
L 364.068904 -246.457914 
L 317.689683 -241.01437 
L 271.310463 -225.721836 
L 224.931242 -212.442909 
L 178.552021 -197.422484 
L 132.1728 -159.327203 
L 85.79358 -97.612848 
z
" id="m8480600405" style="stroke:#c7c7c7;stroke-opacity:0.2;"/>
    </defs>
    <g clip-path="url(#p20b06644b8)">
     <use style="fill:#c7c7c7;fill-opacity:0.2;stroke:#c7c7c7;stroke-opacity:0.2;" x="0" xlink:href="#m8480600405" y="325.986375"/>
    </g>
   </g>
   <g id="PolyCollection_3">
    <defs>
     <path d="M 85.79358 -82.999226 
L 85.79358 -61.640019 
L 132.1728 -100.769314 
L 178.552021 -116.484978 
L 224.931242 -126.657779 
L 271.310463 -141.585687 
L 317.689683 -162.483669 
L 364.068904 -170.102726 
L 410.448125 -181.640154 
L 456.827346 -187.393902 
L 503.206567 -196.536769 
L 549.585787 -198.871465 
L 595.965008 -200.143576 
L 642.344229 -206.238821 
L 688.72345 -212.1708 
L 735.10267 -229.041567 
L 735.10267 -291.57225 
L 735.10267 -291.57225 
L 688.72345 -289.50422 
L 642.344229 -276.878356 
L 595.965008 -275.136857 
L 549.585787 -267.517801 
L 503.206567 -261.476978 
L 456.827346 -257.504184 
L 410.448125 -245.204851 
L 364.068904 -232.796674 
L 317.689683 -221.920471 
L 271.310463 -209.77624 
L 224.931242 -189.476897 
L 178.552021 -170.973475 
L 132.1728 -129.939415 
L 85.79358 -82.999226 
z
" id="mc24ac824c2" style="stroke:#98df8a;stroke-opacity:0.2;"/>
    </defs>
    <g clip-path="url(#p20b06644b8)">
     <use style="fill:#98df8a;fill-opacity:0.2;stroke:#98df8a;stroke-opacity:0.2;" x="0" xlink:href="#mc24ac824c2" y="325.986375"/>
    </g>
   </g>
   <g id="PolyCollection_4">
    <defs>
     <path d="M 85.79358 -75.517585 
L 85.79358 -51.082184 
L 132.1728 -83.844125 
L 178.552021 -102.184282 
L 224.931242 -118.728518 
L 271.310463 -131.025131 
L 317.689683 -148.606103 
L 364.068904 -157.540807 
L 410.448125 -161.176185 
L 456.827346 -168.905445 
L 503.206567 -181.041513 
L 549.585787 -188.061929 
L 595.965008 -191.327239 
L 642.344229 -195.953095 
L 688.72345 -201.667387 
L 735.10267 -205.475555 
L 735.10267 -249.449754 
L 735.10267 -249.449754 
L 688.72345 -246.891928 
L 642.344229 -239.030694 
L 595.965008 -232.578986 
L 549.585787 -226.266054 
L 503.206567 -218.483732 
L 456.827346 -212.334066 
L 410.448125 -202.973511 
L 364.068904 -190.946286 
L 317.689683 -174.573479 
L 271.310463 -159.774823 
L 224.931242 -145.55848 
L 178.552021 -126.565262 
L 132.1728 -104.469999 
L 85.79358 -75.517585 
z
" id="m8a2bc425f4" style="stroke:#1f77b4;stroke-opacity:0.2;"/>
    </defs>
    <g clip-path="url(#p20b06644b8)">
     <use style="fill:#1f77b4;fill-opacity:0.2;stroke:#1f77b4;stroke-opacity:0.2;" x="0" xlink:href="#m8a2bc425f4" y="325.986375"/>
    </g>
   </g>
   <g id="PolyCollection_5">
    <defs>
     <path d="M 85.79358 -124.279545 
L 85.79358 -90.211479 
L 132.1728 -135.708129 
L 178.552021 -153.776177 
L 224.931242 -165.422448 
L 271.310463 -179.136749 
L 317.689683 -183.000699 
L 364.068904 -186.102744 
L 410.448125 -195.082346 
L 456.827346 -196.427925 
L 503.206567 -199.272826 
L 549.585787 -201.667387 
L 595.965008 -204.660588 
L 642.344229 -208.633381 
L 688.72345 -211.57216 
L 735.10267 -214.510939 
L 735.10267 -255.817108 
L 735.10267 -255.817108 
L 688.72345 -254.565406 
L 642.344229 -249.784448 
L 595.965008 -248.034786 
L 549.585787 -244.987164 
L 503.206567 -242.755869 
L 456.827346 -239.327293 
L 410.448125 -236.932733 
L 364.068904 -233.776267 
L 317.689683 -227.572178 
L 271.310463 -222.674213 
L 224.931242 -212.116378 
L 178.552021 -197.368062 
L 132.1728 -172.510892 
L 85.79358 -124.279545 
z
" id="m9437770372" style="stroke:#ff9896;stroke-opacity:0.2;"/>
    </defs>
    <g clip-path="url(#p20b06644b8)">
     <use style="fill:#ff9896;fill-opacity:0.2;stroke:#ff9896;stroke-opacity:0.2;" x="0" xlink:href="#m9437770372" y="325.986375"/>
    </g>
   </g>
   <g id="PolyCollection_6">
    <defs>
     <path d="M 85.79358 -71.562479 
L 85.79358 -49.65225 
L 132.1728 -73.231868 
L 178.552021 -98.483597 
L 224.931242 -107.082247 
L 271.310463 -116.388379 
L 317.689683 -122.973421 
L 364.068904 -133.095881 
L 410.448125 -144.687731 
L 456.827346 -156.046927 
L 503.206567 -164.109522 
L 549.585787 -173.694566 
L 595.965008 -178.098653 
L 642.344229 -188.497304 
L 688.72345 -192.168057 
L 735.10267 -202.157183 
L 735.10267 -243.626618 
L 735.10267 -243.626618 
L 688.72345 -231.871503 
L 642.344229 -225.395305 
L 595.965008 -221.814348 
L 549.585787 -218.593937 
L 503.206567 -210.592567 
L 456.827346 -197.313641 
L 410.448125 -192.017036 
L 364.068904 -172.343544 
L 317.689683 -163.789793 
L 271.310463 -149.204743 
L 224.931242 -134.456427 
L 178.552021 -118.510831 
L 132.1728 -98.26591 
L 85.79358 -71.562479 
z
" id="m4b50039437" style="stroke:#d62728;stroke-opacity:0.2;"/>
    </defs>
    <g clip-path="url(#p20b06644b8)">
     <use style="fill:#d62728;fill-opacity:0.2;stroke:#d62728;stroke-opacity:0.2;" x="0" xlink:href="#m4b50039437" y="325.986375"/>
    </g>
   </g>
   <g id="matplotlib.axis_1">
    <g id="xtick_1">
     <g id="line2d_1">
      <defs>
       <path d="M 0 0 
L 0 3.5 
" id="maf741d8048" style="stroke:#000000;stroke-width:0.8;"/>
      </defs>
      <g>
       <use style="stroke:#000000;stroke-width:0.8;" x="735.10267" xlink:href="#maf741d8048" y="288.430125"/>
      </g>
     </g>
     <g id="text_1">
      <!-- 15m -->
      <g transform="translate(723.869858 303.028562)scale(0.1 -0.1)">
       <defs>
        <path d="M 794 531 
L 1825 531 
L 1825 4091 
L 703 3866 
L 703 4441 
L 1819 4666 
L 2450 4666 
L 2450 531 
L 3481 531 
L 3481 0 
L 794 0 
L 794 531 
z
" id="DejaVuSans-31" transform="scale(0.015625)"/>
        <path d="M 691 4666 
L 3169 4666 
L 3169 4134 
L 1269 4134 
L 1269 2991 
Q 1406 3038 1543 3061 
Q 1681 3084 1819 3084 
Q 2600 3084 3056 2656 
Q 3513 2228 3513 1497 
Q 3513 744 3044 326 
Q 2575 -91 1722 -91 
Q 1428 -91 1123 -41 
Q 819 9 494 109 
L 494 744 
Q 775 591 1075 516 
Q 1375 441 1709 441 
Q 2250 441 2565 725 
Q 2881 1009 2881 1497 
Q 2881 1984 2565 2268 
Q 2250 2553 1709 2553 
Q 1456 2553 1204 2497 
Q 953 2441 691 2322 
L 691 4666 
z
" id="DejaVuSans-35" transform="scale(0.015625)"/>
        <path d="M 3328 2828 
Q 3544 3216 3844 3400 
Q 4144 3584 4550 3584 
Q 5097 3584 5394 3201 
Q 5691 2819 5691 2113 
L 5691 0 
L 5113 0 
L 5113 2094 
Q 5113 2597 4934 2840 
Q 4756 3084 4391 3084 
Q 3944 3084 3684 2787 
Q 3425 2491 3425 1978 
L 3425 0 
L 2847 0 
L 2847 2094 
Q 2847 2600 2669 2842 
Q 2491 3084 2119 3084 
Q 1678 3084 1418 2786 
Q 1159 2488 1159 1978 
L 1159 0 
L 581 0 
L 581 3500 
L 1159 3500 
L 1159 2956 
Q 1356 3278 1631 3431 
Q 1906 3584 2284 3584 
Q 2666 3584 2933 3390 
Q 3200 3197 3328 2828 
z
" id="DejaVuSans-6d" transform="scale(0.015625)"/>
       </defs>
       <use xlink:href="#DejaVuSans-31"/>
       <use x="63.623047" xlink:href="#DejaVuSans-35"/>
       <use x="127.246094" xlink:href="#DejaVuSans-6d"/>
      </g>
     </g>
    </g>
    <g id="text_2">
     <!-- Time (hour:minute) -->
     <g transform="translate(362.041094 316.706687)scale(0.1 -0.1)">
      <defs>
       <path d="M -19 4666 
L 3928 4666 
L 3928 4134 
L 2272 4134 
L 2272 0 
L 1638 0 
L 1638 4134 
L -19 4134 
L -19 4666 
z
" id="DejaVuSans-54" transform="scale(0.015625)"/>
       <path d="M 603 3500 
L 1178 3500 
L 1178 0 
L 603 0 
L 603 3500 
z
M 603 4863 
L 1178 4863 
L 1178 4134 
L 603 4134 
L 603 4863 
z
" id="DejaVuSans-69" transform="scale(0.015625)"/>
       <path d="M 3597 1894 
L 3597 1613 
L 953 1613 
Q 991 1019 1311 708 
Q 1631 397 2203 397 
Q 2534 397 2845 478 
Q 3156 559 3463 722 
L 3463 178 
Q 3153 47 2828 -22 
Q 2503 -91 2169 -91 
Q 1331 -91 842 396 
Q 353 884 353 1716 
Q 353 2575 817 3079 
Q 1281 3584 2069 3584 
Q 2775 3584 3186 3129 
Q 3597 2675 3597 1894 
z
M 3022 2063 
Q 3016 2534 2758 2815 
Q 2500 3097 2075 3097 
Q 1594 3097 1305 2825 
Q 1016 2553 972 2059 
L 3022 2063 
z
" id="DejaVuSans-65" transform="scale(0.015625)"/>
       <path id="DejaVuSans-20" transform="scale(0.015625)"/>
       <path d="M 1984 4856 
Q 1566 4138 1362 3434 
Q 1159 2731 1159 2009 
Q 1159 1288 1364 580 
Q 1569 -128 1984 -844 
L 1484 -844 
Q 1016 -109 783 600 
Q 550 1309 550 2009 
Q 550 2706 781 3412 
Q 1013 4119 1484 4856 
L 1984 4856 
z
" id="DejaVuSans-28" transform="scale(0.015625)"/>
       <path d="M 3513 2113 
L 3513 0 
L 2938 0 
L 2938 2094 
Q 2938 2591 2744 2837 
Q 2550 3084 2163 3084 
Q 1697 3084 1428 2787 
Q 1159 2491 1159 1978 
L 1159 0 
L 581 0 
L 581 4863 
L 1159 4863 
L 1159 2956 
Q 1366 3272 1645 3428 
Q 1925 3584 2291 3584 
Q 2894 3584 3203 3211 
Q 3513 2838 3513 2113 
z
" id="DejaVuSans-68" transform="scale(0.015625)"/>
       <path d="M 1959 3097 
Q 1497 3097 1228 2736 
Q 959 2375 959 1747 
Q 959 1119 1226 758 
Q 1494 397 1959 397 
Q 2419 397 2687 759 
Q 2956 1122 2956 1747 
Q 2956 2369 2687 2733 
Q 2419 3097 1959 3097 
z
M 1959 3584 
Q 2709 3584 3137 3096 
Q 3566 2609 3566 1747 
Q 3566 888 3137 398 
Q 2709 -91 1959 -91 
Q 1206 -91 779 398 
Q 353 888 353 1747 
Q 353 2609 779 3096 
Q 1206 3584 1959 3584 
z
" id="DejaVuSans-6f" transform="scale(0.015625)"/>
       <path d="M 544 1381 
L 544 3500 
L 1119 3500 
L 1119 1403 
Q 1119 906 1312 657 
Q 1506 409 1894 409 
Q 2359 409 2629 706 
Q 2900 1003 2900 1516 
L 2900 3500 
L 3475 3500 
L 3475 0 
L 2900 0 
L 2900 538 
Q 2691 219 2414 64 
Q 2138 -91 1772 -91 
Q 1169 -91 856 284 
Q 544 659 544 1381 
z
M 1991 3584 
L 1991 3584 
z
" id="DejaVuSans-75" transform="scale(0.015625)"/>
       <path d="M 2631 2963 
Q 2534 3019 2420 3045 
Q 2306 3072 2169 3072 
Q 1681 3072 1420 2755 
Q 1159 2438 1159 1844 
L 1159 0 
L 581 0 
L 581 3500 
L 1159 3500 
L 1159 2956 
Q 1341 3275 1631 3429 
Q 1922 3584 2338 3584 
Q 2397 3584 2469 3576 
Q 2541 3569 2628 3553 
L 2631 2963 
z
" id="DejaVuSans-72" transform="scale(0.015625)"/>
       <path d="M 750 794 
L 1409 794 
L 1409 0 
L 750 0 
L 750 794 
z
M 750 3309 
L 1409 3309 
L 1409 2516 
L 750 2516 
L 750 3309 
z
" id="DejaVuSans-3a" transform="scale(0.015625)"/>
       <path d="M 3513 2113 
L 3513 0 
L 2938 0 
L 2938 2094 
Q 2938 2591 2744 2837 
Q 2550 3084 2163 3084 
Q 1697 3084 1428 2787 
Q 1159 2491 1159 1978 
L 1159 0 
L 581 0 
L 581 3500 
L 1159 3500 
L 1159 2956 
Q 1366 3272 1645 3428 
Q 1925 3584 2291 3584 
Q 2894 3584 3203 3211 
Q 3513 2838 3513 2113 
z
" id="DejaVuSans-6e" transform="scale(0.015625)"/>
       <path d="M 1172 4494 
L 1172 3500 
L 2356 3500 
L 2356 3053 
L 1172 3053 
L 1172 1153 
Q 1172 725 1289 603 
Q 1406 481 1766 481 
L 2356 481 
L 2356 0 
L 1766 0 
Q 1100 0 847 248 
Q 594 497 594 1153 
L 594 3053 
L 172 3053 
L 172 3500 
L 594 3500 
L 594 4494 
L 1172 4494 
z
" id="DejaVuSans-74" transform="scale(0.015625)"/>
       <path d="M 513 4856 
L 1013 4856 
Q 1481 4119 1714 3412 
Q 1947 2706 1947 2009 
Q 1947 1309 1714 600 
Q 1481 -109 1013 -844 
L 513 -844 
Q 928 -128 1133 580 
Q 1338 1288 1338 2009 
Q 1338 2731 1133 3434 
Q 928 4138 513 4856 
z
" id="DejaVuSans-29" transform="scale(0.015625)"/>
      </defs>
      <use xlink:href="#DejaVuSans-54"/>
      <use x="57.958984" xlink:href="#DejaVuSans-69"/>
      <use x="85.742188" xlink:href="#DejaVuSans-6d"/>
      <use x="183.154297" xlink:href="#DejaVuSans-65"/>
      <use x="244.677734" xlink:href="#DejaVuSans-20"/>
      <use x="276.464844" xlink:href="#DejaVuSans-28"/>
      <use x="315.478516" xlink:href="#DejaVuSans-68"/>
      <use x="378.857422" xlink:href="#DejaVuSans-6f"/>
      <use x="440.039062" xlink:href="#DejaVuSans-75"/>
      <use x="503.417969" xlink:href="#DejaVuSans-72"/>
      <use x="542.78125" xlink:href="#DejaVuSans-3a"/>
      <use x="576.472656" xlink:href="#DejaVuSans-6d"/>
      <use x="673.884766" xlink:href="#DejaVuSans-69"/>
      <use x="701.667969" xlink:href="#DejaVuSans-6e"/>
      <use x="765.046875" xlink:href="#DejaVuSans-75"/>
      <use x="828.425781" xlink:href="#DejaVuSans-74"/>
      <use x="867.634766" xlink:href="#DejaVuSans-65"/>
      <use x="929.158203" xlink:href="#DejaVuSans-29"/>
     </g>
    </g>
   </g>
   <g id="matplotlib.axis_2">
    <g id="ytick_1">
     <g id="line2d_2">
      <defs>
       <path d="M 0 0 
L -3.5 0 
" id="m2d9412b105" style="stroke:#000000;stroke-width:0.8;"/>
      </defs>
      <g>
       <use style="stroke:#000000;stroke-width:0.8;" x="53.328125" xlink:href="#m2d9412b105" y="237.625238"/>
      </g>
     </g>
     <g id="text_3">
      <!-- 8000 -->
      <g transform="translate(20.878125 241.424457)scale(0.1 -0.1)">
       <defs>
        <path d="M 2034 2216 
Q 1584 2216 1326 1975 
Q 1069 1734 1069 1313 
Q 1069 891 1326 650 
Q 1584 409 2034 409 
Q 2484 409 2743 651 
Q 3003 894 3003 1313 
Q 3003 1734 2745 1975 
Q 2488 2216 2034 2216 
z
M 1403 2484 
Q 997 2584 770 2862 
Q 544 3141 544 3541 
Q 544 4100 942 4425 
Q 1341 4750 2034 4750 
Q 2731 4750 3128 4425 
Q 3525 4100 3525 3541 
Q 3525 3141 3298 2862 
Q 3072 2584 2669 2484 
Q 3125 2378 3379 2068 
Q 3634 1759 3634 1313 
Q 3634 634 3220 271 
Q 2806 -91 2034 -91 
Q 1263 -91 848 271 
Q 434 634 434 1313 
Q 434 1759 690 2068 
Q 947 2378 1403 2484 
z
M 1172 3481 
Q 1172 3119 1398 2916 
Q 1625 2713 2034 2713 
Q 2441 2713 2670 2916 
Q 2900 3119 2900 3481 
Q 2900 3844 2670 4047 
Q 2441 4250 2034 4250 
Q 1625 4250 1398 4047 
Q 1172 3844 1172 3481 
z
" id="DejaVuSans-38" transform="scale(0.015625)"/>
        <path d="M 2034 4250 
Q 1547 4250 1301 3770 
Q 1056 3291 1056 2328 
Q 1056 1369 1301 889 
Q 1547 409 2034 409 
Q 2525 409 2770 889 
Q 3016 1369 3016 2328 
Q 3016 3291 2770 3770 
Q 2525 4250 2034 4250 
z
M 2034 4750 
Q 2819 4750 3233 4129 
Q 3647 3509 3647 2328 
Q 3647 1150 3233 529 
Q 2819 -91 2034 -91 
Q 1250 -91 836 529 
Q 422 1150 422 2328 
Q 422 3509 836 4129 
Q 1250 4750 2034 4750 
z
" id="DejaVuSans-30" transform="scale(0.015625)"/>
       </defs>
       <use xlink:href="#DejaVuSans-38"/>
       <use x="63.623047" xlink:href="#DejaVuSans-30"/>
       <use x="127.246094" xlink:href="#DejaVuSans-30"/>
       <use x="190.869141" xlink:href="#DejaVuSans-30"/>
      </g>
     </g>
    </g>
    <g id="ytick_2">
     <g id="line2d_3">
      <g>
       <use style="stroke:#000000;stroke-width:0.8;" x="53.328125" xlink:href="#m2d9412b105" y="183.203408"/>
      </g>
     </g>
     <g id="text_4">
      <!-- 8500 -->
      <g transform="translate(20.878125 187.002627)scale(0.1 -0.1)">
       <use xlink:href="#DejaVuSans-38"/>
       <use x="63.623047" xlink:href="#DejaVuSans-35"/>
       <use x="127.246094" xlink:href="#DejaVuSans-30"/>
       <use x="190.869141" xlink:href="#DejaVuSans-30"/>
      </g>
     </g>
    </g>
    <g id="ytick_3">
     <g id="line2d_4">
      <g>
       <use style="stroke:#000000;stroke-width:0.8;" x="53.328125" xlink:href="#m2d9412b105" y="128.781578"/>
      </g>
     </g>
     <g id="text_5">
      <!-- 9000 -->
      <g transform="translate(20.878125 132.580797)scale(0.1 -0.1)">
       <defs>
        <path d="M 703 97 
L 703 672 
Q 941 559 1184 500 
Q 1428 441 1663 441 
Q 2288 441 2617 861 
Q 2947 1281 2994 2138 
Q 2813 1869 2534 1725 
Q 2256 1581 1919 1581 
Q 1219 1581 811 2004 
Q 403 2428 403 3163 
Q 403 3881 828 4315 
Q 1253 4750 1959 4750 
Q 2769 4750 3195 4129 
Q 3622 3509 3622 2328 
Q 3622 1225 3098 567 
Q 2575 -91 1691 -91 
Q 1453 -91 1209 -44 
Q 966 3 703 97 
z
M 1959 2075 
Q 2384 2075 2632 2365 
Q 2881 2656 2881 3163 
Q 2881 3666 2632 3958 
Q 2384 4250 1959 4250 
Q 1534 4250 1286 3958 
Q 1038 3666 1038 3163 
Q 1038 2656 1286 2365 
Q 1534 2075 1959 2075 
z
" id="DejaVuSans-39" transform="scale(0.015625)"/>
       </defs>
       <use xlink:href="#DejaVuSans-39"/>
       <use x="63.623047" xlink:href="#DejaVuSans-30"/>
       <use x="127.246094" xlink:href="#DejaVuSans-30"/>
       <use x="190.869141" xlink:href="#DejaVuSans-30"/>
      </g>
     </g>
    </g>
    <g id="ytick_4">
     <g id="line2d_5">
      <g>
       <use style="stroke:#000000;stroke-width:0.8;" x="53.328125" xlink:href="#m2d9412b105" y="74.359748"/>
      </g>
     </g>
     <g id="text_6">
      <!-- 9500 -->
      <g transform="translate(20.878125 78.158967)scale(0.1 -0.1)">
       <use xlink:href="#DejaVuSans-39"/>
       <use x="63.623047" xlink:href="#DejaVuSans-35"/>
       <use x="127.246094" xlink:href="#DejaVuSans-30"/>
       <use x="190.869141" xlink:href="#DejaVuSans-30"/>
      </g>
     </g>
    </g>
    <g id="text_7">
     <!-- Code branch coverage -->
     <g transform="translate(14.798438 211.949125)rotate(-90)scale(0.1 -0.1)">
      <defs>
       <path d="M 4122 4306 
L 4122 3641 
Q 3803 3938 3442 4084 
Q 3081 4231 2675 4231 
Q 1875 4231 1450 3742 
Q 1025 3253 1025 2328 
Q 1025 1406 1450 917 
Q 1875 428 2675 428 
Q 3081 428 3442 575 
Q 3803 722 4122 1019 
L 4122 359 
Q 3791 134 3420 21 
Q 3050 -91 2638 -91 
Q 1578 -91 968 557 
Q 359 1206 359 2328 
Q 359 3453 968 4101 
Q 1578 4750 2638 4750 
Q 3056 4750 3426 4639 
Q 3797 4528 4122 4306 
z
" id="DejaVuSans-43" transform="scale(0.015625)"/>
       <path d="M 2906 2969 
L 2906 4863 
L 3481 4863 
L 3481 0 
L 2906 0 
L 2906 525 
Q 2725 213 2448 61 
Q 2172 -91 1784 -91 
Q 1150 -91 751 415 
Q 353 922 353 1747 
Q 353 2572 751 3078 
Q 1150 3584 1784 3584 
Q 2172 3584 2448 3432 
Q 2725 3281 2906 2969 
z
M 947 1747 
Q 947 1113 1208 752 
Q 1469 391 1925 391 
Q 2381 391 2643 752 
Q 2906 1113 2906 1747 
Q 2906 2381 2643 2742 
Q 2381 3103 1925 3103 
Q 1469 3103 1208 2742 
Q 947 2381 947 1747 
z
" id="DejaVuSans-64" transform="scale(0.015625)"/>
       <path d="M 3116 1747 
Q 3116 2381 2855 2742 
Q 2594 3103 2138 3103 
Q 1681 3103 1420 2742 
Q 1159 2381 1159 1747 
Q 1159 1113 1420 752 
Q 1681 391 2138 391 
Q 2594 391 2855 752 
Q 3116 1113 3116 1747 
z
M 1159 2969 
Q 1341 3281 1617 3432 
Q 1894 3584 2278 3584 
Q 2916 3584 3314 3078 
Q 3713 2572 3713 1747 
Q 3713 922 3314 415 
Q 2916 -91 2278 -91 
Q 1894 -91 1617 61 
Q 1341 213 1159 525 
L 1159 0 
L 581 0 
L 581 4863 
L 1159 4863 
L 1159 2969 
z
" id="DejaVuSans-62" transform="scale(0.015625)"/>
       <path d="M 2194 1759 
Q 1497 1759 1228 1600 
Q 959 1441 959 1056 
Q 959 750 1161 570 
Q 1363 391 1709 391 
Q 2188 391 2477 730 
Q 2766 1069 2766 1631 
L 2766 1759 
L 2194 1759 
z
M 3341 1997 
L 3341 0 
L 2766 0 
L 2766 531 
Q 2569 213 2275 61 
Q 1981 -91 1556 -91 
Q 1019 -91 701 211 
Q 384 513 384 1019 
Q 384 1609 779 1909 
Q 1175 2209 1959 2209 
L 2766 2209 
L 2766 2266 
Q 2766 2663 2505 2880 
Q 2244 3097 1772 3097 
Q 1472 3097 1187 3025 
Q 903 2953 641 2809 
L 641 3341 
Q 956 3463 1253 3523 
Q 1550 3584 1831 3584 
Q 2591 3584 2966 3190 
Q 3341 2797 3341 1997 
z
" id="DejaVuSans-61" transform="scale(0.015625)"/>
       <path d="M 3122 3366 
L 3122 2828 
Q 2878 2963 2633 3030 
Q 2388 3097 2138 3097 
Q 1578 3097 1268 2742 
Q 959 2388 959 1747 
Q 959 1106 1268 751 
Q 1578 397 2138 397 
Q 2388 397 2633 464 
Q 2878 531 3122 666 
L 3122 134 
Q 2881 22 2623 -34 
Q 2366 -91 2075 -91 
Q 1284 -91 818 406 
Q 353 903 353 1747 
Q 353 2603 823 3093 
Q 1294 3584 2113 3584 
Q 2378 3584 2631 3529 
Q 2884 3475 3122 3366 
z
" id="DejaVuSans-63" transform="scale(0.015625)"/>
       <path d="M 191 3500 
L 800 3500 
L 1894 563 
L 2988 3500 
L 3597 3500 
L 2284 0 
L 1503 0 
L 191 3500 
z
" id="DejaVuSans-76" transform="scale(0.015625)"/>
       <path d="M 2906 1791 
Q 2906 2416 2648 2759 
Q 2391 3103 1925 3103 
Q 1463 3103 1205 2759 
Q 947 2416 947 1791 
Q 947 1169 1205 825 
Q 1463 481 1925 481 
Q 2391 481 2648 825 
Q 2906 1169 2906 1791 
z
M 3481 434 
Q 3481 -459 3084 -895 
Q 2688 -1331 1869 -1331 
Q 1566 -1331 1297 -1286 
Q 1028 -1241 775 -1147 
L 775 -588 
Q 1028 -725 1275 -790 
Q 1522 -856 1778 -856 
Q 2344 -856 2625 -561 
Q 2906 -266 2906 331 
L 2906 616 
Q 2728 306 2450 153 
Q 2172 0 1784 0 
Q 1141 0 747 490 
Q 353 981 353 1791 
Q 353 2603 747 3093 
Q 1141 3584 1784 3584 
Q 2172 3584 2450 3431 
Q 2728 3278 2906 2969 
L 2906 3500 
L 3481 3500 
L 3481 434 
z
" id="DejaVuSans-67" transform="scale(0.015625)"/>
      </defs>
      <use xlink:href="#DejaVuSans-43"/>
      <use x="69.824219" xlink:href="#DejaVuSans-6f"/>
      <use x="131.005859" xlink:href="#DejaVuSans-64"/>
      <use x="194.482422" xlink:href="#DejaVuSans-65"/>
      <use x="256.005859" xlink:href="#DejaVuSans-20"/>
      <use x="287.792969" xlink:href="#DejaVuSans-62"/>
      <use x="351.269531" xlink:href="#DejaVuSans-72"/>
      <use x="392.382812" xlink:href="#DejaVuSans-61"/>
      <use x="453.662109" xlink:href="#DejaVuSans-6e"/>
      <use x="517.041016" xlink:href="#DejaVuSans-63"/>
      <use x="572.021484" xlink:href="#DejaVuSans-68"/>
      <use x="635.400391" xlink:href="#DejaVuSans-20"/>
      <use x="667.1875" xlink:href="#DejaVuSans-63"/>
      <use x="722.167969" xlink:href="#DejaVuSans-6f"/>
      <use x="783.349609" xlink:href="#DejaVuSans-76"/>
      <use x="842.529297" xlink:href="#DejaVuSans-65"/>
      <use x="904.052734" xlink:href="#DejaVuSans-72"/>
      <use x="945.166016" xlink:href="#DejaVuSans-61"/>
      <use x="1006.445312" xlink:href="#DejaVuSans-67"/>
      <use x="1069.921875" xlink:href="#DejaVuSans-65"/>
     </g>
    </g>
   </g>
   <g id="line2d_6">
    <path clip-path="url(#p20b06644b8)" d="M 85.79358 189.135387 
L 132.1728 152.61834 
L 178.552021 133.951652 
L 224.931242 120.890413 
L 271.310463 108.863188 
L 317.689683 100.264539 
L 364.068904 93.407389 
L 410.448125 87.693096 
L 456.827346 81.652273 
L 503.206567 73.869952 
L 549.585787 68.427769 
L 595.965008 61.0264 
L 642.344229 55.09442 
L 688.72345 50.087612 
L 735.10267 46.332506 
" style="fill:none;stroke:#ff7f0e;stroke-linecap:square;stroke-width:1.5;"/>
    <defs>
     <path d="M 3 0 
L -3 -3 
L -3 3 
z
" id="m8b2021936d" style="stroke:#ffffff;stroke-linejoin:miter;stroke-width:0.75;"/>
    </defs>
    <g clip-path="url(#p20b06644b8)">
     <use style="fill:#ff7f0e;stroke:#ffffff;stroke-linejoin:miter;stroke-width:0.75;" x="85.79358" xlink:href="#m8b2021936d" y="189.135387"/>
     <use style="fill:#ff7f0e;stroke:#ffffff;stroke-linejoin:miter;stroke-width:0.75;" x="132.1728" xlink:href="#m8b2021936d" y="152.61834"/>
     <use style="fill:#ff7f0e;stroke:#ffffff;stroke-linejoin:miter;stroke-width:0.75;" x="178.552021" xlink:href="#m8b2021936d" y="133.951652"/>
     <use style="fill:#ff7f0e;stroke:#ffffff;stroke-linejoin:miter;stroke-width:0.75;" x="224.931242" xlink:href="#m8b2021936d" y="120.890413"/>
     <use style="fill:#ff7f0e;stroke:#ffffff;stroke-linejoin:miter;stroke-width:0.75;" x="271.310463" xlink:href="#m8b2021936d" y="108.863188"/>
     <use style="fill:#ff7f0e;stroke:#ffffff;stroke-linejoin:miter;stroke-width:0.75;" x="317.689683" xlink:href="#m8b2021936d" y="100.264539"/>
     <use style="fill:#ff7f0e;stroke:#ffffff;stroke-linejoin:miter;stroke-width:0.75;" x="364.068904" xlink:href="#m8b2021936d" y="93.407389"/>
     <use style="fill:#ff7f0e;stroke:#ffffff;stroke-linejoin:miter;stroke-width:0.75;" x="410.448125" xlink:href="#m8b2021936d" y="87.693096"/>
     <use style="fill:#ff7f0e;stroke:#ffffff;stroke-linejoin:miter;stroke-width:0.75;" x="456.827346" xlink:href="#m8b2021936d" y="81.652273"/>
     <use style="fill:#ff7f0e;stroke:#ffffff;stroke-linejoin:miter;stroke-width:0.75;" x="503.206567" xlink:href="#m8b2021936d" y="73.869952"/>
     <use style="fill:#ff7f0e;stroke:#ffffff;stroke-linejoin:miter;stroke-width:0.75;" x="549.585787" xlink:href="#m8b2021936d" y="68.427769"/>
     <use style="fill:#ff7f0e;stroke:#ffffff;stroke-linejoin:miter;stroke-width:0.75;" x="595.965008" xlink:href="#m8b2021936d" y="61.0264"/>
     <use style="fill:#ff7f0e;stroke:#ffffff;stroke-linejoin:miter;stroke-width:0.75;" x="642.344229" xlink:href="#m8b2021936d" y="55.09442"/>
     <use style="fill:#ff7f0e;stroke:#ffffff;stroke-linejoin:miter;stroke-width:0.75;" x="688.72345" xlink:href="#m8b2021936d" y="50.087612"/>
     <use style="fill:#ff7f0e;stroke:#ffffff;stroke-linejoin:miter;stroke-width:0.75;" x="735.10267" xlink:href="#m8b2021936d" y="46.332506"/>
    </g>
   </g>
   <g id="line2d_7">
    <path clip-path="url(#p20b06644b8)" d="M 85.79358 235.938161 
L 132.1728 177.924491 
L 178.552021 151.14895 
L 224.931242 128.400625 
L 271.310463 113.489044 
L 317.689683 101.733929 
L 364.068904 92.210108 
L 410.448125 85.842754 
L 456.827346 76.21009 
L 503.206567 70.767907 
L 549.585787 68.373347 
L 595.965008 61.842727 
L 642.344229 56.890341 
L 688.72345 51.992376 
L 735.10267 48.944754 
" style="fill:none;stroke:#c7c7c7;stroke-linecap:square;stroke-width:1.5;"/>
    <defs>
     <path d="M -3 -0 
L 3 3 
L 3 -3 
z
" id="m4117d4525c" style="stroke:#ffffff;stroke-linejoin:miter;stroke-width:0.75;"/>
    </defs>
    <g clip-path="url(#p20b06644b8)">
     <use style="fill:#c7c7c7;stroke:#ffffff;stroke-linejoin:miter;stroke-width:0.75;" x="85.79358" xlink:href="#m4117d4525c" y="235.938161"/>
     <use style="fill:#c7c7c7;stroke:#ffffff;stroke-linejoin:miter;stroke-width:0.75;" x="132.1728" xlink:href="#m4117d4525c" y="177.924491"/>
     <use style="fill:#c7c7c7;stroke:#ffffff;stroke-linejoin:miter;stroke-width:0.75;" x="178.552021" xlink:href="#m4117d4525c" y="151.14895"/>
     <use style="fill:#c7c7c7;stroke:#ffffff;stroke-linejoin:miter;stroke-width:0.75;" x="224.931242" xlink:href="#m4117d4525c" y="128.400625"/>
     <use style="fill:#c7c7c7;stroke:#ffffff;stroke-linejoin:miter;stroke-width:0.75;" x="271.310463" xlink:href="#m4117d4525c" y="113.489044"/>
     <use style="fill:#c7c7c7;stroke:#ffffff;stroke-linejoin:miter;stroke-width:0.75;" x="317.689683" xlink:href="#m4117d4525c" y="101.733929"/>
     <use style="fill:#c7c7c7;stroke:#ffffff;stroke-linejoin:miter;stroke-width:0.75;" x="364.068904" xlink:href="#m4117d4525c" y="92.210108"/>
     <use style="fill:#c7c7c7;stroke:#ffffff;stroke-linejoin:miter;stroke-width:0.75;" x="410.448125" xlink:href="#m4117d4525c" y="85.842754"/>
     <use style="fill:#c7c7c7;stroke:#ffffff;stroke-linejoin:miter;stroke-width:0.75;" x="456.827346" xlink:href="#m4117d4525c" y="76.21009"/>
     <use style="fill:#c7c7c7;stroke:#ffffff;stroke-linejoin:miter;stroke-width:0.75;" x="503.206567" xlink:href="#m4117d4525c" y="70.767907"/>
     <use style="fill:#c7c7c7;stroke:#ffffff;stroke-linejoin:miter;stroke-width:0.75;" x="549.585787" xlink:href="#m4117d4525c" y="68.373347"/>
     <use style="fill:#c7c7c7;stroke:#ffffff;stroke-linejoin:miter;stroke-width:0.75;" x="595.965008" xlink:href="#m4117d4525c" y="61.842727"/>
     <use style="fill:#c7c7c7;stroke:#ffffff;stroke-linejoin:miter;stroke-width:0.75;" x="642.344229" xlink:href="#m4117d4525c" y="56.890341"/>
     <use style="fill:#c7c7c7;stroke:#ffffff;stroke-linejoin:miter;stroke-width:0.75;" x="688.72345" xlink:href="#m4117d4525c" y="51.992376"/>
     <use style="fill:#c7c7c7;stroke:#ffffff;stroke-linejoin:miter;stroke-width:0.75;" x="735.10267" xlink:href="#m4117d4525c" y="48.944754"/>
    </g>
   </g>
   <g id="line2d_8">
    <path clip-path="url(#p20b06644b8)" d="M 85.79358 249.87015 
L 132.1728 209.271465 
L 178.552021 184.999328 
L 224.931242 164.917673 
L 271.310463 149.135342 
L 317.689683 130.686342 
L 364.068904 120.237351 
L 410.448125 112.672716 
L 456.827346 102.223725 
L 503.206567 98.359775 
L 549.585787 94.169294 
L 595.965008 89.761126 
L 642.344229 82.196492 
L 688.72345 72.727093 
L 735.10267 70.659064 
" style="fill:none;stroke:#98df8a;stroke-linecap:square;stroke-width:1.5;"/>
    <defs>
     <path d="M -0 3 
L 3 -3 
L -3 -3 
z
" id="m312cf7310e" style="stroke:#ffffff;stroke-linejoin:miter;stroke-width:0.75;"/>
    </defs>
    <g clip-path="url(#p20b06644b8)">
     <use style="fill:#98df8a;stroke:#ffffff;stroke-linejoin:miter;stroke-width:0.75;" x="85.79358" xlink:href="#m312cf7310e" y="249.87015"/>
     <use style="fill:#98df8a;stroke:#ffffff;stroke-linejoin:miter;stroke-width:0.75;" x="132.1728" xlink:href="#m312cf7310e" y="209.271465"/>
     <use style="fill:#98df8a;stroke:#ffffff;stroke-linejoin:miter;stroke-width:0.75;" x="178.552021" xlink:href="#m312cf7310e" y="184.999328"/>
     <use style="fill:#98df8a;stroke:#ffffff;stroke-linejoin:miter;stroke-width:0.75;" x="224.931242" xlink:href="#m312cf7310e" y="164.917673"/>
     <use style="fill:#98df8a;stroke:#ffffff;stroke-linejoin:miter;stroke-width:0.75;" x="271.310463" xlink:href="#m312cf7310e" y="149.135342"/>
     <use style="fill:#98df8a;stroke:#ffffff;stroke-linejoin:miter;stroke-width:0.75;" x="317.689683" xlink:href="#m312cf7310e" y="130.686342"/>
     <use style="fill:#98df8a;stroke:#ffffff;stroke-linejoin:miter;stroke-width:0.75;" x="364.068904" xlink:href="#m312cf7310e" y="120.237351"/>
     <use style="fill:#98df8a;stroke:#ffffff;stroke-linejoin:miter;stroke-width:0.75;" x="410.448125" xlink:href="#m312cf7310e" y="112.672716"/>
     <use style="fill:#98df8a;stroke:#ffffff;stroke-linejoin:miter;stroke-width:0.75;" x="456.827346" xlink:href="#m312cf7310e" y="102.223725"/>
     <use style="fill:#98df8a;stroke:#ffffff;stroke-linejoin:miter;stroke-width:0.75;" x="503.206567" xlink:href="#m312cf7310e" y="98.359775"/>
     <use style="fill:#98df8a;stroke:#ffffff;stroke-linejoin:miter;stroke-width:0.75;" x="549.585787" xlink:href="#m312cf7310e" y="94.169294"/>
     <use style="fill:#98df8a;stroke:#ffffff;stroke-linejoin:miter;stroke-width:0.75;" x="595.965008" xlink:href="#m312cf7310e" y="89.761126"/>
     <use style="fill:#98df8a;stroke:#ffffff;stroke-linejoin:miter;stroke-width:0.75;" x="642.344229" xlink:href="#m312cf7310e" y="82.196492"/>
     <use style="fill:#98df8a;stroke:#ffffff;stroke-linejoin:miter;stroke-width:0.75;" x="688.72345" xlink:href="#m312cf7310e" y="72.727093"/>
     <use style="fill:#98df8a;stroke:#ffffff;stroke-linejoin:miter;stroke-width:0.75;" x="735.10267" xlink:href="#m312cf7310e" y="70.659064"/>
    </g>
   </g>
   <g id="line2d_9">
    <path clip-path="url(#p20b06644b8)" d="M 85.79358 259.720501 
L 132.1728 233.21707 
L 178.552021 210.577588 
L 224.931242 195.121789 
L 271.310463 175.421086 
L 317.689683 164.591142 
L 364.068904 148.75439 
L 410.448125 141.298599 
L 456.827346 134.659136 
L 503.206567 125.788377 
L 549.585787 118.223743 
L 595.965008 114.414215 
L 642.344229 102.876787 
L 688.72345 96.346167 
L 735.10267 92.917592 
" style="fill:none;stroke:#1f77b4;stroke-linecap:square;stroke-width:1.5;"/>
    <defs>
     <path d="M 0 3 
C 0.795609 3 1.55874 2.683901 2.12132 2.12132 
C 2.683901 1.55874 3 0.795609 3 0 
C 3 -0.795609 2.683901 -1.55874 2.12132 -2.12132 
C 1.55874 -2.683901 0.795609 -3 0 -3 
C -0.795609 -3 -1.55874 -2.683901 -2.12132 -2.12132 
C -2.683901 -1.55874 -3 -0.795609 -3 0 
C -3 0.795609 -2.683901 1.55874 -2.12132 2.12132 
C -1.55874 2.683901 -0.795609 3 0 3 
z
" id="m45660e1440" style="stroke:#ffffff;stroke-width:0.75;"/>
    </defs>
    <g clip-path="url(#p20b06644b8)">
     <use style="fill:#1f77b4;stroke:#ffffff;stroke-width:0.75;" x="85.79358" xlink:href="#m45660e1440" y="259.720501"/>
     <use style="fill:#1f77b4;stroke:#ffffff;stroke-width:0.75;" x="132.1728" xlink:href="#m45660e1440" y="233.21707"/>
     <use style="fill:#1f77b4;stroke:#ffffff;stroke-width:0.75;" x="178.552021" xlink:href="#m45660e1440" y="210.577588"/>
     <use style="fill:#1f77b4;stroke:#ffffff;stroke-width:0.75;" x="224.931242" xlink:href="#m45660e1440" y="195.121789"/>
     <use style="fill:#1f77b4;stroke:#ffffff;stroke-width:0.75;" x="271.310463" xlink:href="#m45660e1440" y="175.421086"/>
     <use style="fill:#1f77b4;stroke:#ffffff;stroke-width:0.75;" x="317.689683" xlink:href="#m45660e1440" y="164.591142"/>
     <use style="fill:#1f77b4;stroke:#ffffff;stroke-width:0.75;" x="364.068904" xlink:href="#m45660e1440" y="148.75439"/>
     <use style="fill:#1f77b4;stroke:#ffffff;stroke-width:0.75;" x="410.448125" xlink:href="#m45660e1440" y="141.298599"/>
     <use style="fill:#1f77b4;stroke:#ffffff;stroke-width:0.75;" x="456.827346" xlink:href="#m45660e1440" y="134.659136"/>
     <use style="fill:#1f77b4;stroke:#ffffff;stroke-width:0.75;" x="503.206567" xlink:href="#m45660e1440" y="125.788377"/>
     <use style="fill:#1f77b4;stroke:#ffffff;stroke-width:0.75;" x="549.585787" xlink:href="#m45660e1440" y="118.223743"/>
     <use style="fill:#1f77b4;stroke:#ffffff;stroke-width:0.75;" x="595.965008" xlink:href="#m45660e1440" y="114.414215"/>
     <use style="fill:#1f77b4;stroke:#ffffff;stroke-width:0.75;" x="642.344229" xlink:href="#m45660e1440" y="102.876787"/>
     <use style="fill:#1f77b4;stroke:#ffffff;stroke-width:0.75;" x="688.72345" xlink:href="#m45660e1440" y="96.346167"/>
     <use style="fill:#1f77b4;stroke:#ffffff;stroke-width:0.75;" x="735.10267" xlink:href="#m45660e1440" y="92.917592"/>
    </g>
   </g>
   <g id="line2d_10">
    <path clip-path="url(#p20b06644b8)" d="M 85.79358 217.924535 
L 132.1728 171.557136 
L 178.552021 150.060514 
L 224.931242 137.706758 
L 271.310463 118.006056 
L 317.689683 115.44823 
L 364.068904 109.51625 
L 410.448125 105.978831 
L 456.827346 103.910802 
L 503.206567 101.842772 
L 549.585787 96.890386 
L 595.965008 95.747527 
L 642.344229 90.631875 
L 688.72345 90.142079 
L 735.10267 87.638675 
" style="fill:none;stroke:#ff9896;stroke-linecap:square;stroke-width:1.5;"/>
    <defs>
     <path d="M -1.14805 -2.771639 
L -2.771639 -1.14805 
L -2.771639 1.14805 
L -1.14805 2.771639 
L 1.14805 2.771639 
L 2.771639 1.14805 
L 2.771639 -1.14805 
L 1.14805 -2.771639 
z
" id="m1f02a553d1" style="stroke:#ffffff;stroke-linejoin:miter;stroke-width:0.75;"/>
    </defs>
    <g clip-path="url(#p20b06644b8)">
     <use style="fill:#ff9896;stroke:#ffffff;stroke-linejoin:miter;stroke-width:0.75;" x="85.79358" xlink:href="#m1f02a553d1" y="217.924535"/>
     <use style="fill:#ff9896;stroke:#ffffff;stroke-linejoin:miter;stroke-width:0.75;" x="132.1728" xlink:href="#m1f02a553d1" y="171.557136"/>
     <use style="fill:#ff9896;stroke:#ffffff;stroke-linejoin:miter;stroke-width:0.75;" x="178.552021" xlink:href="#m1f02a553d1" y="150.060514"/>
     <use style="fill:#ff9896;stroke:#ffffff;stroke-linejoin:miter;stroke-width:0.75;" x="224.931242" xlink:href="#m1f02a553d1" y="137.706758"/>
     <use style="fill:#ff9896;stroke:#ffffff;stroke-linejoin:miter;stroke-width:0.75;" x="271.310463" xlink:href="#m1f02a553d1" y="118.006056"/>
     <use style="fill:#ff9896;stroke:#ffffff;stroke-linejoin:miter;stroke-width:0.75;" x="317.689683" xlink:href="#m1f02a553d1" y="115.44823"/>
     <use style="fill:#ff9896;stroke:#ffffff;stroke-linejoin:miter;stroke-width:0.75;" x="364.068904" xlink:href="#m1f02a553d1" y="109.51625"/>
     <use style="fill:#ff9896;stroke:#ffffff;stroke-linejoin:miter;stroke-width:0.75;" x="410.448125" xlink:href="#m1f02a553d1" y="105.978831"/>
     <use style="fill:#ff9896;stroke:#ffffff;stroke-linejoin:miter;stroke-width:0.75;" x="456.827346" xlink:href="#m1f02a553d1" y="103.910802"/>
     <use style="fill:#ff9896;stroke:#ffffff;stroke-linejoin:miter;stroke-width:0.75;" x="503.206567" xlink:href="#m1f02a553d1" y="101.842772"/>
     <use style="fill:#ff9896;stroke:#ffffff;stroke-linejoin:miter;stroke-width:0.75;" x="549.585787" xlink:href="#m1f02a553d1" y="96.890386"/>
     <use style="fill:#ff9896;stroke:#ffffff;stroke-linejoin:miter;stroke-width:0.75;" x="595.965008" xlink:href="#m1f02a553d1" y="95.747527"/>
     <use style="fill:#ff9896;stroke:#ffffff;stroke-linejoin:miter;stroke-width:0.75;" x="642.344229" xlink:href="#m1f02a553d1" y="90.631875"/>
     <use style="fill:#ff9896;stroke:#ffffff;stroke-linejoin:miter;stroke-width:0.75;" x="688.72345" xlink:href="#m1f02a553d1" y="90.142079"/>
     <use style="fill:#ff9896;stroke:#ffffff;stroke-linejoin:miter;stroke-width:0.75;" x="735.10267" xlink:href="#m1f02a553d1" y="87.638675"/>
    </g>
   </g>
   <g id="line2d_11">
    <path clip-path="url(#p20b06644b8)" d="M 85.79358 264.618466 
L 132.1728 234.41435 
L 178.552021 219.176238 
L 224.931242 204.264656 
L 271.310463 190.38709 
L 317.689683 177.706803 
L 364.068904 169.978903 
L 410.448125 159.312225 
L 456.827346 149.95167 
L 503.206567 142.767988 
L 549.585787 136.944853 
L 595.965008 125.897221 
L 642.344229 118.767961 
L 688.72345 114.414215 
L 735.10267 101.352976 
" style="fill:none;stroke:#d62728;stroke-linecap:square;stroke-width:1.5;"/>
    <defs>
     <path d="M 0 -3 
L -3 3 
L 3 3 
z
" id="mad2f416de0" style="stroke:#ffffff;stroke-linejoin:miter;stroke-width:0.75;"/>
    </defs>
    <g clip-path="url(#p20b06644b8)">
     <use style="fill:#d62728;stroke:#ffffff;stroke-linejoin:miter;stroke-width:0.75;" x="85.79358" xlink:href="#mad2f416de0" y="264.618466"/>
     <use style="fill:#d62728;stroke:#ffffff;stroke-linejoin:miter;stroke-width:0.75;" x="132.1728" xlink:href="#mad2f416de0" y="234.41435"/>
     <use style="fill:#d62728;stroke:#ffffff;stroke-linejoin:miter;stroke-width:0.75;" x="178.552021" xlink:href="#mad2f416de0" y="219.176238"/>
     <use style="fill:#d62728;stroke:#ffffff;stroke-linejoin:miter;stroke-width:0.75;" x="224.931242" xlink:href="#mad2f416de0" y="204.264656"/>
     <use style="fill:#d62728;stroke:#ffffff;stroke-linejoin:miter;stroke-width:0.75;" x="271.310463" xlink:href="#mad2f416de0" y="190.38709"/>
     <use style="fill:#d62728;stroke:#ffffff;stroke-linejoin:miter;stroke-width:0.75;" x="317.689683" xlink:href="#mad2f416de0" y="177.706803"/>
     <use style="fill:#d62728;stroke:#ffffff;stroke-linejoin:miter;stroke-width:0.75;" x="364.068904" xlink:href="#mad2f416de0" y="169.978903"/>
     <use style="fill:#d62728;stroke:#ffffff;stroke-linejoin:miter;stroke-width:0.75;" x="410.448125" xlink:href="#mad2f416de0" y="159.312225"/>
     <use style="fill:#d62728;stroke:#ffffff;stroke-linejoin:miter;stroke-width:0.75;" x="456.827346" xlink:href="#mad2f416de0" y="149.95167"/>
     <use style="fill:#d62728;stroke:#ffffff;stroke-linejoin:miter;stroke-width:0.75;" x="503.206567" xlink:href="#mad2f416de0" y="142.767988"/>
     <use style="fill:#d62728;stroke:#ffffff;stroke-linejoin:miter;stroke-width:0.75;" x="549.585787" xlink:href="#mad2f416de0" y="136.944853"/>
     <use style="fill:#d62728;stroke:#ffffff;stroke-linejoin:miter;stroke-width:0.75;" x="595.965008" xlink:href="#mad2f416de0" y="125.897221"/>
     <use style="fill:#d62728;stroke:#ffffff;stroke-linejoin:miter;stroke-width:0.75;" x="642.344229" xlink:href="#mad2f416de0" y="118.767961"/>
     <use style="fill:#d62728;stroke:#ffffff;stroke-linejoin:miter;stroke-width:0.75;" x="688.72345" xlink:href="#mad2f416de0" y="114.414215"/>
     <use style="fill:#d62728;stroke:#ffffff;stroke-linejoin:miter;stroke-width:0.75;" x="735.10267" xlink:href="#mad2f416de0" y="101.352976"/>
    </g>
   </g>
   <g id="line2d_12"/>
   <g id="line2d_13"/>
   <g id="line2d_14"/>
   <g id="line2d_15"/>
   <g id="line2d_16"/>
   <g id="line2d_17"/>
   <g id="line2d_18">
    <path clip-path="url(#p20b06644b8)" d="M 735.10267 288.430125 
L 735.10267 22.318125 
" style="fill:none;stroke:#ff0000;stroke-linecap:square;stroke-width:1.5;"/>
   </g>
   <g id="patch_3">
    <path d="M 53.328125 237.625238 
L 53.328125 74.359748 
" style="fill:none;stroke:#000000;stroke-linecap:square;stroke-linejoin:miter;stroke-width:0.8;"/>
   </g>
   <g id="patch_4">
    <path d="M 735.10267 288.430125 
L 735.10267 288.430125 
" style="fill:none;stroke:#000000;stroke-linecap:square;stroke-linejoin:miter;stroke-width:0.8;"/>
   </g>
   <g id="text_8">
    <!-- php_php-fuzz-parser (15m, 100 trials/fuzzer) -->
    <g transform="translate(276.239375 16.318125)scale(0.12 -0.12)">
     <defs>
      <path d="M 1159 525 
L 1159 -1331 
L 581 -1331 
L 581 3500 
L 1159 3500 
L 1159 2969 
Q 1341 3281 1617 3432 
Q 1894 3584 2278 3584 
Q 2916 3584 3314 3078 
Q 3713 2572 3713 1747 
Q 3713 922 3314 415 
Q 2916 -91 2278 -91 
Q 1894 -91 1617 61 
Q 1341 213 1159 525 
z
M 3116 1747 
Q 3116 2381 2855 2742 
Q 2594 3103 2138 3103 
Q 1681 3103 1420 2742 
Q 1159 2381 1159 1747 
Q 1159 1113 1420 752 
Q 1681 391 2138 391 
Q 2594 391 2855 752 
Q 3116 1113 3116 1747 
z
" id="DejaVuSans-70" transform="scale(0.015625)"/>
      <path d="M 3263 -1063 
L 3263 -1509 
L -63 -1509 
L -63 -1063 
L 3263 -1063 
z
" id="DejaVuSans-5f" transform="scale(0.015625)"/>
      <path d="M 313 2009 
L 1997 2009 
L 1997 1497 
L 313 1497 
L 313 2009 
z
" id="DejaVuSans-2d" transform="scale(0.015625)"/>
      <path d="M 2375 4863 
L 2375 4384 
L 1825 4384 
Q 1516 4384 1395 4259 
Q 1275 4134 1275 3809 
L 1275 3500 
L 2222 3500 
L 2222 3053 
L 1275 3053 
L 1275 0 
L 697 0 
L 697 3053 
L 147 3053 
L 147 3500 
L 697 3500 
L 697 3744 
Q 697 4328 969 4595 
Q 1241 4863 1831 4863 
L 2375 4863 
z
" id="DejaVuSans-66" transform="scale(0.015625)"/>
      <path d="M 353 3500 
L 3084 3500 
L 3084 2975 
L 922 459 
L 3084 459 
L 3084 0 
L 275 0 
L 275 525 
L 2438 3041 
L 353 3041 
L 353 3500 
z
" id="DejaVuSans-7a" transform="scale(0.015625)"/>
      <path d="M 2834 3397 
L 2834 2853 
Q 2591 2978 2328 3040 
Q 2066 3103 1784 3103 
Q 1356 3103 1142 2972 
Q 928 2841 928 2578 
Q 928 2378 1081 2264 
Q 1234 2150 1697 2047 
L 1894 2003 
Q 2506 1872 2764 1633 
Q 3022 1394 3022 966 
Q 3022 478 2636 193 
Q 2250 -91 1575 -91 
Q 1294 -91 989 -36 
Q 684 19 347 128 
L 347 722 
Q 666 556 975 473 
Q 1284 391 1588 391 
Q 1994 391 2212 530 
Q 2431 669 2431 922 
Q 2431 1156 2273 1281 
Q 2116 1406 1581 1522 
L 1381 1569 
Q 847 1681 609 1914 
Q 372 2147 372 2553 
Q 372 3047 722 3315 
Q 1072 3584 1716 3584 
Q 2034 3584 2315 3537 
Q 2597 3491 2834 3397 
z
" id="DejaVuSans-73" transform="scale(0.015625)"/>
      <path d="M 750 794 
L 1409 794 
L 1409 256 
L 897 -744 
L 494 -744 
L 750 256 
L 750 794 
z
" id="DejaVuSans-2c" transform="scale(0.015625)"/>
      <path d="M 603 4863 
L 1178 4863 
L 1178 0 
L 603 0 
L 603 4863 
z
" id="DejaVuSans-6c" transform="scale(0.015625)"/>
      <path d="M 1625 4666 
L 2156 4666 
L 531 -594 
L 0 -594 
L 1625 4666 
z
" id="DejaVuSans-2f" transform="scale(0.015625)"/>
     </defs>
     <use xlink:href="#DejaVuSans-70"/>
     <use x="63.476562" xlink:href="#DejaVuSans-68"/>
     <use x="126.855469" xlink:href="#DejaVuSans-70"/>
     <use x="190.332031" xlink:href="#DejaVuSans-5f"/>
     <use x="240.332031" xlink:href="#DejaVuSans-70"/>
     <use x="303.808594" xlink:href="#DejaVuSans-68"/>
     <use x="367.1875" xlink:href="#DejaVuSans-70"/>
     <use x="430.664062" xlink:href="#DejaVuSans-2d"/>
     <use x="466.748047" xlink:href="#DejaVuSans-66"/>
     <use x="501.953125" xlink:href="#DejaVuSans-75"/>
     <use x="565.332031" xlink:href="#DejaVuSans-7a"/>
     <use x="617.822266" xlink:href="#DejaVuSans-7a"/>
     <use x="670.3125" xlink:href="#DejaVuSans-2d"/>
     <use x="706.396484" xlink:href="#DejaVuSans-70"/>
     <use x="769.873047" xlink:href="#DejaVuSans-61"/>
     <use x="831.152344" xlink:href="#DejaVuSans-72"/>
     <use x="872.265625" xlink:href="#DejaVuSans-73"/>
     <use x="924.365234" xlink:href="#DejaVuSans-65"/>
     <use x="985.888672" xlink:href="#DejaVuSans-72"/>
     <use x="1027.001953" xlink:href="#DejaVuSans-20"/>
     <use x="1058.789062" xlink:href="#DejaVuSans-28"/>
     <use x="1097.802734" xlink:href="#DejaVuSans-31"/>
     <use x="1161.425781" xlink:href="#DejaVuSans-35"/>
     <use x="1225.048828" xlink:href="#DejaVuSans-6d"/>
     <use x="1322.460938" xlink:href="#DejaVuSans-2c"/>
     <use x="1354.248047" xlink:href="#DejaVuSans-20"/>
     <use x="1386.035156" xlink:href="#DejaVuSans-31"/>
     <use x="1449.658203" xlink:href="#DejaVuSans-30"/>
     <use x="1513.28125" xlink:href="#DejaVuSans-30"/>
     <use x="1576.904297" xlink:href="#DejaVuSans-20"/>
     <use x="1608.691406" xlink:href="#DejaVuSans-74"/>
     <use x="1647.900391" xlink:href="#DejaVuSans-72"/>
     <use x="1689.013672" xlink:href="#DejaVuSans-69"/>
     <use x="1716.796875" xlink:href="#DejaVuSans-61"/>
     <use x="1778.076172" xlink:href="#DejaVuSans-6c"/>
     <use x="1805.859375" xlink:href="#DejaVuSans-73"/>
     <use x="1857.958984" xlink:href="#DejaVuSans-2f"/>
     <use x="1891.650391" xlink:href="#DejaVuSans-66"/>
     <use x="1926.855469" xlink:href="#DejaVuSans-75"/>
     <use x="1990.234375" xlink:href="#DejaVuSans-7a"/>
     <use x="2042.724609" xlink:href="#DejaVuSans-7a"/>
     <use x="2095.214844" xlink:href="#DejaVuSans-65"/>
     <use x="2156.738281" xlink:href="#DejaVuSans-72"/>
     <use x="2197.851562" xlink:href="#DejaVuSans-29"/>
    </g>
   </g>
   <g id="legend_1">
    <g id="line2d_19">
     <path d="M 771.568125 30.416562 
L 791.568125 30.416562 
" style="fill:none;stroke:#ff7f0e;stroke-linecap:square;stroke-width:1.5;"/>
    </g>
    <g id="line2d_20">
     <defs>
      <path d="M 3 0 
L -3 -3 
L -3 3 
z
" id="mb56ff1fc61" style="stroke:#ff7f0e;stroke-linejoin:miter;"/>
     </defs>
     <g>
      <use style="fill:#ff7f0e;stroke:#ff7f0e;stroke-linejoin:miter;" x="781.568125" xlink:href="#mb56ff1fc61" y="30.416562"/>
     </g>
    </g>
    <g id="text_9">
     <!-- honggfuzz -->
     <g transform="translate(799.568125 33.916562)scale(0.1 -0.1)">
      <use xlink:href="#DejaVuSans-68"/>
      <use x="63.378906" xlink:href="#DejaVuSans-6f"/>
      <use x="124.560547" xlink:href="#DejaVuSans-6e"/>
      <use x="187.939453" xlink:href="#DejaVuSans-67"/>
      <use x="251.416016" xlink:href="#DejaVuSans-67"/>
      <use x="314.892578" xlink:href="#DejaVuSans-66"/>
      <use x="350.097656" xlink:href="#DejaVuSans-75"/>
      <use x="413.476562" xlink:href="#DejaVuSans-7a"/>
      <use x="465.966797" xlink:href="#DejaVuSans-7a"/>
     </g>
    </g>
    <g id="line2d_21">
     <path d="M 771.568125 45.094688 
L 791.568125 45.094688 
" style="fill:none;stroke:#c7c7c7;stroke-linecap:square;stroke-width:1.5;"/>
    </g>
    <g id="line2d_22">
     <defs>
      <path d="M -3 -0 
L 3 3 
L 3 -3 
z
" id="m6df7f64158" style="stroke:#c7c7c7;stroke-linejoin:miter;"/>
     </defs>
     <g>
      <use style="fill:#c7c7c7;stroke:#c7c7c7;stroke-linejoin:miter;" x="781.568125" xlink:href="#m6df7f64158" y="45.094688"/>
     </g>
    </g>
    <g id="text_10">
     <!-- entropic -->
     <g transform="translate(799.568125 48.594688)scale(0.1 -0.1)">
      <use xlink:href="#DejaVuSans-65"/>
      <use x="61.523438" xlink:href="#DejaVuSans-6e"/>
      <use x="124.902344" xlink:href="#DejaVuSans-74"/>
      <use x="164.111328" xlink:href="#DejaVuSans-72"/>
      <use x="202.974609" xlink:href="#DejaVuSans-6f"/>
      <use x="264.15625" xlink:href="#DejaVuSans-70"/>
      <use x="327.632812" xlink:href="#DejaVuSans-69"/>
      <use x="355.416016" xlink:href="#DejaVuSans-63"/>
     </g>
    </g>
    <g id="line2d_23">
     <path d="M 771.568125 59.772812 
L 791.568125 59.772812 
" style="fill:none;stroke:#98df8a;stroke-linecap:square;stroke-width:1.5;"/>
    </g>
    <g id="line2d_24">
     <defs>
      <path d="M -0 3 
L 3 -3 
L -3 -3 
z
" id="m4ec3eba457" style="stroke:#98df8a;stroke-linejoin:miter;"/>
     </defs>
     <g>
      <use style="fill:#98df8a;stroke:#98df8a;stroke-linejoin:miter;" x="781.568125" xlink:href="#m4ec3eba457" y="59.772812"/>
     </g>
    </g>
    <g id="text_11">
     <!-- aflplusplus -->
     <g transform="translate(799.568125 63.272812)scale(0.1 -0.1)">
      <use xlink:href="#DejaVuSans-61"/>
      <use x="61.279297" xlink:href="#DejaVuSans-66"/>
      <use x="96.484375" xlink:href="#DejaVuSans-6c"/>
      <use x="124.267578" xlink:href="#DejaVuSans-70"/>
      <use x="187.744141" xlink:href="#DejaVuSans-6c"/>
      <use x="215.527344" xlink:href="#DejaVuSans-75"/>
      <use x="278.90625" xlink:href="#DejaVuSans-73"/>
      <use x="331.005859" xlink:href="#DejaVuSans-70"/>
      <use x="394.482422" xlink:href="#DejaVuSans-6c"/>
      <use x="422.265625" xlink:href="#DejaVuSans-75"/>
      <use x="485.644531" xlink:href="#DejaVuSans-73"/>
     </g>
    </g>
    <g id="line2d_25">
     <path d="M 771.568125 74.450938 
L 791.568125 74.450938 
" style="fill:none;stroke:#1f77b4;stroke-linecap:square;stroke-width:1.5;"/>
    </g>
    <g id="line2d_26">
     <defs>
      <path d="M 0 3 
C 0.795609 3 1.55874 2.683901 2.12132 2.12132 
C 2.683901 1.55874 3 0.795609 3 0 
C 3 -0.795609 2.683901 -1.55874 2.12132 -2.12132 
C 1.55874 -2.683901 0.795609 -3 0 -3 
C -0.795609 -3 -1.55874 -2.683901 -2.12132 -2.12132 
C -2.683901 -1.55874 -3 -0.795609 -3 0 
C -3 0.795609 -2.683901 1.55874 -2.12132 2.12132 
C -1.55874 2.683901 -0.795609 3 0 3 
z
" id="mb9f5206d4c" style="stroke:#1f77b4;"/>
     </defs>
     <g>
      <use style="fill:#1f77b4;stroke:#1f77b4;" x="781.568125" xlink:href="#mb9f5206d4c" y="74.450938"/>
     </g>
    </g>
    <g id="text_12">
     <!-- afl -->
     <g transform="translate(799.568125 77.950938)scale(0.1 -0.1)">
      <use xlink:href="#DejaVuSans-61"/>
      <use x="61.279297" xlink:href="#DejaVuSans-66"/>
      <use x="96.484375" xlink:href="#DejaVuSans-6c"/>
     </g>
    </g>
    <g id="line2d_27">
     <path d="M 771.568125 89.129063 
L 791.568125 89.129063 
" style="fill:none;stroke:#ff9896;stroke-linecap:square;stroke-width:1.5;"/>
    </g>
    <g id="line2d_28">
     <defs>
      <path d="M -1.14805 -2.771639 
L -2.771639 -1.14805 
L -2.771639 1.14805 
L -1.14805 2.771639 
L 1.14805 2.771639 
L 2.771639 1.14805 
L 2.771639 -1.14805 
L 1.14805 -2.771639 
z
" id="m36e4a5ae83" style="stroke:#ff9896;stroke-linejoin:miter;"/>
     </defs>
     <g>
      <use style="fill:#ff9896;stroke:#ff9896;stroke-linejoin:miter;" x="781.568125" xlink:href="#m36e4a5ae83" y="89.129063"/>
     </g>
    </g>
    <g id="text_13">
     <!-- libfuzzer -->
     <g transform="translate(799.568125 92.629063)scale(0.1 -0.1)">
      <use xlink:href="#DejaVuSans-6c"/>
      <use x="27.783203" xlink:href="#DejaVuSans-69"/>
      <use x="55.566406" xlink:href="#DejaVuSans-62"/>
      <use x="119.042969" xlink:href="#DejaVuSans-66"/>
      <use x="154.248047" xlink:href="#DejaVuSans-75"/>
      <use x="217.626953" xlink:href="#DejaVuSans-7a"/>
      <use x="270.117188" xlink:href="#DejaVuSans-7a"/>
      <use x="322.607422" xlink:href="#DejaVuSans-65"/>
      <use x="384.130859" xlink:href="#DejaVuSans-72"/>
     </g>
    </g>
    <g id="line2d_29">
     <path d="M 771.568125 103.807187 
L 791.568125 103.807187 
" style="fill:none;stroke:#d62728;stroke-linecap:square;stroke-width:1.5;"/>
    </g>
    <g id="line2d_30">
     <defs>
      <path d="M 0 -3 
L -3 3 
L 3 3 
z
" id="m476c650237" style="stroke:#d62728;stroke-linejoin:miter;"/>
     </defs>
     <g>
      <use style="fill:#d62728;stroke:#d62728;stroke-linejoin:miter;" x="781.568125" xlink:href="#m476c650237" y="103.807187"/>
     </g>
    </g>
    <g id="text_14">
     <!-- eclipser -->
     <g transform="translate(799.568125 107.307187)scale(0.1 -0.1)">
      <use xlink:href="#DejaVuSans-65"/>
      <use x="61.523438" xlink:href="#DejaVuSans-63"/>
      <use x="116.503906" xlink:href="#DejaVuSans-6c"/>
      <use x="144.287109" xlink:href="#DejaVuSans-69"/>
      <use x="172.070312" xlink:href="#DejaVuSans-70"/>
      <use x="235.546875" xlink:href="#DejaVuSans-73"/>
      <use x="287.646484" xlink:href="#DejaVuSans-65"/>
      <use x="349.169922" xlink:href="#DejaVuSans-72"/>
     </g>
    </g>
   </g>
  </g>
 </g>
 <defs>
  <clipPath id="p20b06644b8">
   <rect height="266.112" width="714.24" x="53.328125" y="22.318125"/>
  </clipPath>
 </defs>
</svg>
