<?xml version="1.0" encoding="utf-8" standalone="no"?>
<!DOCTYPE svg PUBLIC "-//W3C//DTD SVG 1.1//EN"
  "http://www.w3.org/Graphics/SVG/1.1/DTD/svg11.dtd">
<!-- Created with matplotlib (https://matplotlib.org/) -->
<svg height="358.280615pt" version="1.1" viewBox="0 0 417.648125 358.280615" width="417.648125pt" xmlns="http://www.w3.org/2000/svg" xmlns:xlink="http://www.w3.org/1999/xlink">
 <metadata>
  <rdf:RDF xmlns:cc="http://creativecommons.org/ns#" xmlns:dc="http://purl.org/dc/elements/1.1/" xmlns:rdf="http://www.w3.org/1999/02/22-rdf-syntax-ns#">
   <cc:Work>
    <dc:type rdf:resource="http://purl.org/dc/dcmitype/StillImage"/>
    <dc:date>2021-01-15T15:57:45.792865</dc:date>
    <dc:format>image/svg+xml</dc:format>
    <dc:creator>
     <cc:Agent>
      <dc:title>Matplotlib v3.3.3, https://matplotlib.org/</dc:title>
     </cc:Agent>
    </dc:creator>
   </cc:Work>
  </rdf:RDF>
 </metadata>
 <defs>
  <style type="text/css">*{stroke-linecap:butt;stroke-linejoin:round;}</style>
 </defs>
 <g id="figure_1">
  <g id="patch_1">
   <path d="M 0 358.280615 
L 417.648125 358.280615 
L 417.648125 -0 
L 0 -0 
z
" style="fill:#ffffff;"/>
  </g>
  <g id="axes_1">
   <g id="patch_2">
    <path d="M 53.328125 288.430125 
L 410.448125 288.430125 
L 410.448125 22.318125 
L 53.328125 22.318125 
z
" style="fill:#ffffff;"/>
   </g>
   <g id="PolyCollection_1">
    <defs>
     <path d="M 99.117211 -81.94649 
L 96.819039 -81.94649 
L 96.642835 -84.390127 
L 96.447354 -86.833763 
L 96.231877 -89.2774 
L 95.995908 -91.721036 
L 95.739211 -94.164672 
L 95.461852 -96.608309 
L 95.164238 -99.051945 
L 94.847147 -101.495581 
L 94.511755 -103.939218 
L 94.159654 -106.382854 
L 93.792864 -108.82649 
L 93.413826 -111.270127 
L 93.025391 -113.713763 
L 92.630793 -116.1574 
L 92.233607 -118.601036 
L 91.837698 -121.044672 
L 91.447153 -123.488309 
L 91.066202 -125.931945 
L 90.699131 -128.375581 
L 90.350183 -130.819218 
L 90.023452 -133.262854 
L 89.722779 -135.70649 
L 89.451642 -138.150127 
L 89.213047 -140.593763 
L 89.009431 -143.0374 
L 88.842568 -145.481036 
L 88.713487 -147.924672 
L 88.622408 -150.368309 
L 88.568691 -152.811945 
L 88.550806 -155.255581 
L 88.566321 -157.699218 
L 88.611911 -160.142854 
L 88.683396 -162.58649 
L 88.775787 -165.030127 
L 88.883362 -167.473763 
L 88.999763 -169.9174 
L 89.118103 -172.361036 
L 89.231094 -174.804672 
L 89.331191 -177.248309 
L 89.410742 -179.691945 
L 89.462148 -182.135581 
L 89.478031 -184.579218 
L 89.451399 -187.022854 
L 89.375816 -189.46649 
L 89.245562 -191.910127 
L 89.055788 -194.353763 
L 88.802662 -196.7974 
L 88.483497 -199.241036 
L 88.096862 -201.684672 
L 87.642671 -204.128309 
L 87.122253 -206.571945 
L 86.538389 -209.015581 
L 85.895324 -211.459218 
L 85.198744 -213.902854 
L 84.455723 -216.34649 
L 83.674641 -218.790127 
L 82.865058 -221.233763 
L 82.037566 -223.6774 
L 81.203609 -226.121036 
L 80.375272 -228.564672 
L 79.565055 -231.008309 
L 78.785619 -233.451945 
L 78.049532 -235.895581 
L 77.368999 -238.339218 
L 76.755605 -240.782854 
L 76.220055 -243.22649 
L 75.771939 -245.670127 
L 75.419521 -248.113763 
L 75.169552 -250.5574 
L 75.027123 -253.001036 
L 74.995563 -255.444672 
L 75.076367 -257.888309 
L 75.269184 -260.331945 
L 75.571846 -262.775581 
L 75.980437 -265.219218 
L 76.489411 -267.662854 
L 77.091744 -270.10649 
L 77.779121 -272.550127 
L 78.542148 -274.993763 
L 79.37058 -277.4374 
L 80.25357 -279.881036 
L 81.179914 -282.324672 
L 82.138294 -284.768309 
L 83.117515 -287.211945 
L 84.10672 -289.655581 
L 85.095586 -292.099218 
L 86.074498 -294.542854 
L 87.034681 -296.98649 
L 87.968317 -299.430127 
L 88.868616 -301.873763 
L 89.729864 -304.3174 
L 90.547438 -306.761036 
L 91.317791 -309.204672 
L 92.038415 -311.648309 
L 92.707784 -314.091945 
L 93.325275 -316.535581 
L 93.891078 -318.979218 
L 94.4061 -321.422854 
L 94.871858 -323.86649 
L 101.064392 -323.86649 
L 101.064392 -323.86649 
L 101.53015 -321.422854 
L 102.045172 -318.979218 
L 102.610975 -316.535581 
L 103.228466 -314.091945 
L 103.897835 -311.648309 
L 104.618459 -309.204672 
L 105.388812 -306.761036 
L 106.206386 -304.3174 
L 107.067634 -301.873763 
L 107.967933 -299.430127 
L 108.901569 -296.98649 
L 109.861752 -294.542854 
L 110.840664 -292.099218 
L 111.82953 -289.655581 
L 112.818735 -287.211945 
L 113.797956 -284.768309 
L 114.756336 -282.324672 
L 115.68268 -279.881036 
L 116.56567 -277.4374 
L 117.394102 -274.993763 
L 118.157129 -272.550127 
L 118.844506 -270.10649 
L 119.446839 -267.662854 
L 119.955813 -265.219218 
L 120.364404 -262.775581 
L 120.667066 -260.331945 
L 120.859883 -257.888309 
L 120.940687 -255.444672 
L 120.909127 -253.001036 
L 120.766698 -250.5574 
L 120.516729 -248.113763 
L 120.164311 -245.670127 
L 119.716195 -243.22649 
L 119.180645 -240.782854 
L 118.567251 -238.339218 
L 117.886718 -235.895581 
L 117.150631 -233.451945 
L 116.371195 -231.008309 
L 115.560978 -228.564672 
L 114.732641 -226.121036 
L 113.898684 -223.6774 
L 113.071192 -221.233763 
L 112.261609 -218.790127 
L 111.480527 -216.34649 
L 110.737506 -213.902854 
L 110.040926 -211.459218 
L 109.397861 -209.015581 
L 108.813997 -206.571945 
L 108.293579 -204.128309 
L 107.839388 -201.684672 
L 107.452753 -199.241036 
L 107.133588 -196.7974 
L 106.880462 -194.353763 
L 106.690688 -191.910127 
L 106.560434 -189.46649 
L 106.484851 -187.022854 
L 106.458219 -184.579218 
L 106.474102 -182.135581 
L 106.525508 -179.691945 
L 106.605059 -177.248309 
L 106.705156 -174.804672 
L 106.818147 -172.361036 
L 106.936487 -169.9174 
L 107.052888 -167.473763 
L 107.160463 -165.030127 
L 107.252854 -162.58649 
L 107.324339 -160.142854 
L 107.369929 -157.699218 
L 107.385444 -155.255581 
L 107.367559 -152.811945 
L 107.313842 -150.368309 
L 107.222763 -147.924672 
L 107.093682 -145.481036 
L 106.926819 -143.0374 
L 106.723203 -140.593763 
L 106.484608 -138.150127 
L 106.213471 -135.70649 
L 105.912798 -133.262854 
L 105.586067 -130.819218 
L 105.237119 -128.375581 
L 104.870048 -125.931945 
L 104.489097 -123.488309 
L 104.098552 -121.044672 
L 103.702643 -118.601036 
L 103.305457 -116.1574 
L 102.910859 -113.713763 
L 102.522424 -111.270127 
L 102.143386 -108.82649 
L 101.776596 -106.382854 
L 101.424495 -103.939218 
L 101.089103 -101.495581 
L 100.772012 -99.051945 
L 100.474398 -96.608309 
L 100.197039 -94.164672 
L 99.940342 -91.721036 
L 99.704373 -89.2774 
L 99.488896 -86.833763 
L 99.293415 -84.390127 
L 99.117211 -81.94649 
z
" id="m7958e3cb44" style="stroke:#3f3f3f;stroke-width:1.5;"/>
    </defs>
    <g clip-path="url(#pf6d2ece3c7)">
     <use style="fill:#c7c7c7;stroke:#3f3f3f;stroke-width:1.5;" x="0" xlink:href="#m7958e3cb44" y="358.280615"/>
    </g>
   </g>
   <g id="PolyCollection_2">
    <defs>
     <path d="M 188.040727 -96.930551 
L 186.455523 -96.930551 
L 186.320975 -99.071479 
L 186.170506 -101.212407 
L 186.003605 -103.353336 
L 185.820023 -105.494264 
L 185.619814 -107.635192 
L 185.403379 -109.77612 
L 185.171506 -111.917048 
L 184.925396 -114.057976 
L 184.666689 -116.198904 
L 184.397462 -118.339832 
L 184.120229 -120.48076 
L 183.837914 -122.621688 
L 183.553818 -124.762616 
L 183.271556 -126.903544 
L 182.994993 -129.044472 
L 182.728154 -131.1854 
L 182.475132 -133.326328 
L 182.239977 -135.467256 
L 182.026585 -137.608185 
L 181.838586 -139.749113 
L 181.679227 -141.890041 
L 181.551267 -144.030969 
L 181.45688 -146.171897 
L 181.397572 -148.312825 
L 181.37411 -150.453753 
L 181.386474 -152.594681 
L 181.433826 -154.735609 
L 181.514499 -156.876537 
L 181.626003 -159.017465 
L 181.765051 -161.158393 
L 181.927599 -163.299321 
L 182.108899 -165.440249 
L 182.303558 -167.581177 
L 182.505607 -169.722105 
L 182.708568 -171.863034 
L 182.905532 -174.003962 
L 183.089216 -176.14489 
L 183.252039 -178.285818 
L 183.386182 -180.426746 
L 183.483649 -182.567674 
L 183.53633 -184.708602 
L 183.536068 -186.84953 
L 183.474729 -188.990458 
L 183.34429 -191.131386 
L 183.136934 -193.272314 
L 182.845168 -195.413242 
L 182.461962 -197.55417 
L 181.980915 -199.695098 
L 181.396436 -201.836026 
L 180.703952 -203.976954 
L 179.900136 -206.117883 
L 178.983146 -208.258811 
L 177.952859 -210.399739 
L 176.811111 -212.540667 
L 175.561913 -214.681595 
L 174.21163 -216.822523 
L 172.769125 -218.963451 
L 171.245835 -221.104379 
L 169.655785 -223.245307 
L 168.015511 -225.386235 
L 166.343906 -227.527163 
L 164.661964 -229.668091 
L 162.992435 -231.809019 
L 161.359396 -233.949947 
L 159.787738 -236.090875 
L 158.302593 -238.231803 
L 156.92871 -240.372732 
L 155.689808 -242.51366 
L 154.60793 -244.654588 
L 153.702815 -246.795516 
L 152.991321 -248.936444 
L 152.486926 -251.077372 
L 152.199316 -253.2183 
L 152.134091 -255.359228 
L 152.292593 -257.500156 
L 152.671871 -259.641084 
L 153.264781 -261.782012 
L 154.06021 -263.92294 
L 155.043434 -266.063868 
L 156.196571 -268.204796 
L 157.499125 -270.345724 
L 158.928592 -272.486652 
L 160.461107 -274.627581 
L 162.072103 -276.768509 
L 163.736954 -278.909437 
L 165.431591 -281.050365 
L 167.133056 -283.191293 
L 168.819982 -285.332221 
L 170.472998 -287.473149 
L 172.075027 -289.614077 
L 173.611501 -291.755005 
L 175.070472 -293.895933 
L 176.442635 -296.036861 
L 177.721273 -298.177789 
L 178.902124 -300.318717 
L 179.983193 -302.459645 
L 180.964523 -304.600573 
L 181.847926 -306.741501 
L 182.636703 -308.88243 
L 191.859547 -308.88243 
L 191.859547 -308.88243 
L 192.648324 -306.741501 
L 193.531727 -304.600573 
L 194.513057 -302.459645 
L 195.594126 -300.318717 
L 196.774977 -298.177789 
L 198.053615 -296.036861 
L 199.425778 -293.895933 
L 200.884749 -291.755005 
L 202.421223 -289.614077 
L 204.023252 -287.473149 
L 205.676268 -285.332221 
L 207.363194 -283.191293 
L 209.064659 -281.050365 
L 210.759296 -278.909437 
L 212.424147 -276.768509 
L 214.035143 -274.627581 
L 215.567658 -272.486652 
L 216.997125 -270.345724 
L 218.299679 -268.204796 
L 219.452816 -266.063868 
L 220.43604 -263.92294 
L 221.231469 -261.782012 
L 221.824379 -259.641084 
L 222.203657 -257.500156 
L 222.362159 -255.359228 
L 222.296934 -253.2183 
L 222.009324 -251.077372 
L 221.504929 -248.936444 
L 220.793435 -246.795516 
L 219.88832 -244.654588 
L 218.806442 -242.51366 
L 217.56754 -240.372732 
L 216.193657 -238.231803 
L 214.708512 -236.090875 
L 213.136854 -233.949947 
L 211.503815 -231.809019 
L 209.834286 -229.668091 
L 208.152344 -227.527163 
L 206.480739 -225.386235 
L 204.840465 -223.245307 
L 203.250415 -221.104379 
L 201.727125 -218.963451 
L 200.28462 -216.822523 
L 198.934337 -214.681595 
L 197.685139 -212.540667 
L 196.543391 -210.399739 
L 195.513104 -208.258811 
L 194.596114 -206.117883 
L 193.792298 -203.976954 
L 193.099814 -201.836026 
L 192.515335 -199.695098 
L 192.034288 -197.55417 
L 191.651082 -195.413242 
L 191.359316 -193.272314 
L 191.15196 -191.131386 
L 191.021521 -188.990458 
L 190.960182 -186.84953 
L 190.95992 -184.708602 
L 191.012601 -182.567674 
L 191.110068 -180.426746 
L 191.244211 -178.285818 
L 191.407034 -176.14489 
L 191.590718 -174.003962 
L 191.787682 -171.863034 
L 191.990643 -169.722105 
L 192.192692 -167.581177 
L 192.387351 -165.440249 
L 192.568651 -163.299321 
L 192.731199 -161.158393 
L 192.870247 -159.017465 
L 192.981751 -156.876537 
L 193.062424 -154.735609 
L 193.109776 -152.594681 
L 193.12214 -150.453753 
L 193.098678 -148.312825 
L 193.03937 -146.171897 
L 192.944983 -144.030969 
L 192.817023 -141.890041 
L 192.657664 -139.749113 
L 192.469665 -137.608185 
L 192.256273 -135.467256 
L 192.021118 -133.326328 
L 191.768096 -131.1854 
L 191.501257 -129.044472 
L 191.224694 -126.903544 
L 190.942432 -124.762616 
L 190.658336 -122.621688 
L 190.376021 -120.48076 
L 190.098788 -118.339832 
L 189.829561 -116.198904 
L 189.570854 -114.057976 
L 189.324744 -111.917048 
L 189.092871 -109.77612 
L 188.876436 -107.635192 
L 188.676227 -105.494264 
L 188.492645 -103.353336 
L 188.325744 -101.212407 
L 188.175275 -99.071479 
L 188.040727 -96.930551 
z
" id="m693ca6f4eb" style="stroke:#3f3f3f;stroke-width:1.5;"/>
    </defs>
    <g clip-path="url(#pf6d2ece3c7)">
     <use style="fill:#c03d3e;stroke:#3f3f3f;stroke-width:1.5;" x="0" xlink:href="#m693ca6f4eb" y="358.280615"/>
    </g>
   </g>
   <g id="PolyCollection_3">
    <defs>
     <path d="M 277.330645 -100.214572 
L 275.725605 -100.214572 
L 275.58848 -102.342136 
L 275.435031 -104.469701 
L 275.264733 -106.597265 
L 275.077334 -108.72483 
L 274.872896 -110.852394 
L 274.651845 -112.979959 
L 274.415006 -115.107523 
L 274.163638 -117.235088 
L 273.899451 -119.362652 
L 273.624613 -121.490217 
L 273.341742 -123.617781 
L 273.053881 -125.745346 
L 272.764459 -127.87291 
L 272.477227 -130.000475 
L 272.196189 -132.128039 
L 271.925508 -134.255604 
L 271.669405 -136.383168 
L 271.432045 -138.510733 
L 271.217423 -140.638297 
L 271.029243 -142.765862 
L 270.870797 -144.893426 
L 270.744859 -147.020991 
L 270.653584 -149.148555 
L 270.598419 -151.27612 
L 270.580041 -153.403684 
L 270.598298 -155.531249 
L 270.65219 -157.658813 
L 270.739854 -159.786378 
L 270.858574 -161.913942 
L 271.004817 -164.041507 
L 271.174269 -166.169071 
L 271.361897 -168.296635 
L 271.562011 -170.4242 
L 271.768336 -172.551764 
L 271.974088 -174.679329 
L 272.172042 -176.806893 
L 272.354609 -178.934458 
L 272.513901 -181.062022 
L 272.641798 -183.189587 
L 272.730015 -185.317151 
L 272.770165 -187.444716 
L 272.753831 -189.57228 
L 272.672646 -191.699845 
L 272.518382 -193.827409 
L 272.283061 -195.954974 
L 271.959083 -198.082538 
L 271.539378 -200.210103 
L 271.017581 -202.337667 
L 270.388235 -204.465232 
L 269.647016 -206.592796 
L 268.790965 -208.720361 
L 267.818747 -210.847925 
L 266.730893 -212.97549 
L 265.530042 -215.103054 
L 264.221155 -217.230619 
L 262.811694 -219.358183 
L 261.311742 -221.485748 
L 259.734063 -223.613312 
L 258.094082 -225.740877 
L 256.409776 -227.868441 
L 254.701474 -229.996006 
L 252.991551 -232.12357 
L 251.304037 -234.251135 
L 249.664133 -236.378699 
L 248.097647 -238.506264 
L 246.630377 -240.633828 
L 245.287443 -242.761393 
L 244.092618 -244.888957 
L 243.06765 -247.016522 
L 242.231637 -249.144086 
L 241.600454 -251.271651 
L 241.186272 -253.399215 
L 240.997181 -255.52678 
L 241.036941 -257.654344 
L 241.30487 -259.781909 
L 241.795869 -261.909473 
L 242.500593 -264.037038 
L 243.405751 -266.164602 
L 244.494526 -268.292167 
L 245.7471 -270.419731 
L 247.141255 -272.547296 
L 248.653027 -274.67486 
L 250.257391 -276.802425 
L 251.928941 -278.929989 
L 253.642548 -281.057554 
L 255.37397 -283.185118 
L 257.100392 -285.312683 
L 258.800882 -287.440247 
L 260.456755 -289.567812 
L 262.051836 -291.695376 
L 263.572623 -293.822941 
L 265.008353 -295.950505 
L 266.350974 -298.07807 
L 267.595046 -300.205634 
L 268.737562 -302.333199 
L 269.77773 -304.460763 
L 270.716705 -306.588328 
L 271.557305 -308.715892 
L 272.30371 -310.843457 
L 280.75254 -310.843457 
L 280.75254 -310.843457 
L 281.498945 -308.715892 
L 282.339545 -306.588328 
L 283.27852 -304.460763 
L 284.318688 -302.333199 
L 285.461204 -300.205634 
L 286.705276 -298.07807 
L 288.047897 -295.950505 
L 289.483627 -293.822941 
L 291.004414 -291.695376 
L 292.599495 -289.567812 
L 294.255368 -287.440247 
L 295.955858 -285.312683 
L 297.68228 -283.185118 
L 299.413702 -281.057554 
L 301.127309 -278.929989 
L 302.798859 -276.802425 
L 304.403223 -274.67486 
L 305.914995 -272.547296 
L 307.30915 -270.419731 
L 308.561724 -268.292167 
L 309.650499 -266.164602 
L 310.555657 -264.037038 
L 311.260381 -261.909473 
L 311.75138 -259.781909 
L 312.019309 -257.654344 
L 312.059069 -255.52678 
L 311.869978 -253.399215 
L 311.455796 -251.271651 
L 310.824613 -249.144086 
L 309.9886 -247.016522 
L 308.963632 -244.888957 
L 307.768807 -242.761393 
L 306.425873 -240.633828 
L 304.958603 -238.506264 
L 303.392117 -236.378699 
L 301.752213 -234.251135 
L 300.064699 -232.12357 
L 298.354776 -229.996006 
L 296.646474 -227.868441 
L 294.962168 -225.740877 
L 293.322187 -223.613312 
L 291.744508 -221.485748 
L 290.244556 -219.358183 
L 288.835095 -217.230619 
L 287.526208 -215.103054 
L 286.325357 -212.97549 
L 285.237503 -210.847925 
L 284.265285 -208.720361 
L 283.409234 -206.592796 
L 282.668015 -204.465232 
L 282.038669 -202.337667 
L 281.516872 -200.210103 
L 281.097167 -198.082538 
L 280.773189 -195.954974 
L 280.537868 -193.827409 
L 280.383604 -191.699845 
L 280.302419 -189.57228 
L 280.286085 -187.444716 
L 280.326235 -185.317151 
L 280.414452 -183.189587 
L 280.542349 -181.062022 
L 280.701641 -178.934458 
L 280.884208 -176.806893 
L 281.082162 -174.679329 
L 281.287914 -172.551764 
L 281.494239 -170.4242 
L 281.694353 -168.296635 
L 281.881981 -166.169071 
L 282.051433 -164.041507 
L 282.197676 -161.913942 
L 282.316396 -159.786378 
L 282.40406 -157.658813 
L 282.457952 -155.531249 
L 282.476209 -153.403684 
L 282.457831 -151.27612 
L 282.402666 -149.148555 
L 282.311391 -147.020991 
L 282.185453 -144.893426 
L 282.027007 -142.765862 
L 281.838827 -140.638297 
L 281.624205 -138.510733 
L 281.386845 -136.383168 
L 281.130742 -134.255604 
L 280.860061 -132.128039 
L 280.579023 -130.000475 
L 280.291791 -127.87291 
L 280.002369 -125.745346 
L 279.714508 -123.617781 
L 279.431637 -121.490217 
L 279.156799 -119.362652 
L 278.892612 -117.235088 
L 278.641244 -115.107523 
L 278.404405 -112.979959 
L 278.183354 -110.852394 
L 277.978916 -108.72483 
L 277.791517 -106.597265 
L 277.621219 -104.469701 
L 277.46777 -102.342136 
L 277.330645 -100.214572 
z
" id="m4e2665a0bb" style="stroke:#3f3f3f;stroke-width:1.5;"/>
    </defs>
    <g clip-path="url(#pf6d2ece3c7)">
     <use style="fill:#9fd495;stroke:#3f3f3f;stroke-width:1.5;" x="0" xlink:href="#m4e2665a0bb" y="358.280615"/>
    </g>
   </g>
   <g id="PolyCollection_4">
    <defs>
     <path d="M 366.614209 -100.448345 
L 365.002041 -100.448345 
L 364.863984 -102.571187 
L 364.709456 -104.694029 
L 364.537929 -106.816871 
L 364.349147 -108.939713 
L 364.143178 -111.062554 
L 363.920455 -113.185396 
L 363.681818 -115.308238 
L 363.428546 -117.43108 
L 363.162376 -119.553922 
L 362.885508 -121.676763 
L 362.6006 -123.799605 
L 362.310739 -125.922447 
L 362.019398 -128.045289 
L 361.730382 -130.168131 
L 361.447743 -132.290972 
L 361.175695 -134.413814 
L 360.918505 -136.536656 
L 360.680382 -138.659498 
L 360.465357 -140.782339 
L 360.27716 -142.905181 
L 360.1191 -145.028023 
L 359.993957 -147.150865 
L 359.903879 -149.273707 
L 359.850293 -151.396548 
L 359.833842 -153.51939 
L 359.854331 -155.642232 
L 359.9107 -157.765074 
L 360.001017 -159.887916 
L 360.122492 -162.010757 
L 360.271502 -164.133599 
L 360.443642 -166.256441 
L 360.63378 -168.379283 
L 360.836126 -170.502125 
L 361.044302 -172.624966 
L 361.251418 -174.747808 
L 361.450146 -176.87065 
L 361.632791 -178.993492 
L 361.791363 -181.116334 
L 361.917639 -183.239175 
L 362.003235 -185.362017 
L 362.039666 -187.484859 
L 362.018424 -189.607701 
L 361.931054 -191.730542 
L 361.76925 -193.853384 
L 361.524968 -195.976226 
L 361.190556 -198.099068 
L 360.75891 -200.22191 
L 360.223662 -202.344751 
L 359.579378 -204.467593 
L 358.821792 -206.590435 
L 357.948052 -208.713277 
L 356.95697 -210.836119 
L 355.84928 -212.95896 
L 354.627877 -215.081802 
L 353.298034 -217.204644 
L 351.867575 -219.327486 
L 350.346999 -221.450328 
L 348.749529 -223.573169 
L 347.091078 -225.696011 
L 345.390138 -227.818853 
L 343.667552 -229.941695 
L 341.946204 -232.064537 
L 340.250602 -234.187378 
L 338.606375 -236.31022 
L 337.039693 -238.433062 
L 335.576631 -240.555904 
L 334.242487 -242.678745 
L 333.061096 -244.801587 
L 332.054149 -246.924429 
L 331.240561 -249.047271 
L 330.635898 -251.170113 
L 330.251901 -253.292954 
L 330.096125 -255.415796 
L 330.171701 -257.538638 
L 330.477243 -259.66148 
L 331.006901 -261.784322 
L 331.750549 -263.907163 
L 332.694117 -266.030005 
L 333.820037 -268.152847 
L 335.107787 -270.275689 
L 336.534518 -272.398531 
L 338.075726 -274.521372 
L 339.705951 -276.644214 
L 341.399464 -278.767056 
L 343.130937 -280.889898 
L 344.876042 -283.012739 
L 346.611996 -285.135581 
L 348.318002 -287.258423 
L 349.975605 -289.381265 
L 351.568936 -291.504107 
L 353.084863 -293.626948 
L 354.513034 -295.74979 
L 355.845838 -297.872632 
L 357.078282 -299.995474 
L 358.207804 -302.118316 
L 359.234037 -304.241157 
L 360.158531 -306.363999 
L 360.98446 -308.486841 
L 361.716318 -310.609683 
L 369.899932 -310.609683 
L 369.899932 -310.609683 
L 370.63179 -308.486841 
L 371.457719 -306.363999 
L 372.382213 -304.241157 
L 373.408446 -302.118316 
L 374.537968 -299.995474 
L 375.770412 -297.872632 
L 377.103216 -295.74979 
L 378.531387 -293.626948 
L 380.047314 -291.504107 
L 381.640645 -289.381265 
L 383.298248 -287.258423 
L 385.004254 -285.135581 
L 386.740208 -283.012739 
L 388.485313 -280.889898 
L 390.216786 -278.767056 
L 391.910299 -276.644214 
L 393.540524 -274.521372 
L 395.081732 -272.398531 
L 396.508463 -270.275689 
L 397.796213 -268.152847 
L 398.922133 -266.030005 
L 399.865701 -263.907163 
L 400.609349 -261.784322 
L 401.139007 -259.66148 
L 401.444549 -257.538638 
L 401.520125 -255.415796 
L 401.364349 -253.292954 
L 400.980352 -251.170113 
L 400.375689 -249.047271 
L 399.562101 -246.924429 
L 398.555154 -244.801587 
L 397.373763 -242.678745 
L 396.039619 -240.555904 
L 394.576557 -238.433062 
L 393.009875 -236.31022 
L 391.365648 -234.187378 
L 389.670046 -232.064537 
L 387.948698 -229.941695 
L 386.226112 -227.818853 
L 384.525172 -225.696011 
L 382.866721 -223.573169 
L 381.269251 -221.450328 
L 379.748675 -219.327486 
L 378.318216 -217.204644 
L 376.988373 -215.081802 
L 375.76697 -212.95896 
L 374.65928 -210.836119 
L 373.668198 -208.713277 
L 372.794458 -206.590435 
L 372.036872 -204.467593 
L 371.392588 -202.344751 
L 370.85734 -200.22191 
L 370.425694 -198.099068 
L 370.091282 -195.976226 
L 369.847 -193.853384 
L 369.685196 -191.730542 
L 369.597826 -189.607701 
L 369.576584 -187.484859 
L 369.613015 -185.362017 
L 369.698611 -183.239175 
L 369.824887 -181.116334 
L 369.983459 -178.993492 
L 370.166104 -176.87065 
L 370.364832 -174.747808 
L 370.571948 -172.624966 
L 370.780124 -170.502125 
L 370.98247 -168.379283 
L 371.172608 -166.256441 
L 371.344748 -164.133599 
L 371.493758 -162.010757 
L 371.615233 -159.887916 
L 371.70555 -157.765074 
L 371.761919 -155.642232 
L 371.782408 -153.51939 
L 371.765957 -151.396548 
L 371.712371 -149.273707 
L 371.622293 -147.150865 
L 371.49715 -145.028023 
L 371.33909 -142.905181 
L 371.150893 -140.782339 
L 370.935868 -138.659498 
L 370.697745 -136.536656 
L 370.440555 -134.413814 
L 370.168507 -132.290972 
L 369.885868 -130.168131 
L 369.596852 -128.045289 
L 369.305511 -125.922447 
L 369.01565 -123.799605 
L 368.730742 -121.676763 
L 368.453874 -119.553922 
L 368.187704 -117.43108 
L 367.934432 -115.308238 
L 367.695795 -113.185396 
L 367.473072 -111.062554 
L 367.267103 -108.939713 
L 367.078321 -106.816871 
L 366.906794 -104.694029 
L 366.752266 -102.571187 
L 366.614209 -100.448345 
z
" id="mcaf34bc7b1" style="stroke:#3f3f3f;stroke-width:1.5;"/>
    </defs>
    <g clip-path="url(#pf6d2ece3c7)">
     <use style="fill:#3274a1;stroke:#3f3f3f;stroke-width:1.5;" x="0" xlink:href="#mcaf34bc7b1" y="358.280615"/>
    </g>
   </g>
   <g id="matplotlib.axis_1">
    <g id="xtick_1">
     <g id="line2d_1">
      <defs>
       <path d="M 0 0 
L 0 3.5 
" id="m786d5161ea" style="stroke:#000000;stroke-width:0.8;"/>
      </defs>
      <g>
       <use style="stroke:#000000;stroke-width:0.8;" x="97.968125" xlink:href="#m786d5161ea" y="288.430125"/>
      </g>
     </g>
     <g id="text_1">
      <!-- develop_32 -->
      <g transform="translate(46.954869 330.78244)rotate(-30)scale(0.1 -0.1)">
       <defs>
        <path d="M 45.40625 46.390625 
L 45.40625 75.984375 
L 54.390625 75.984375 
L 54.390625 0 
L 45.40625 0 
L 45.40625 8.203125 
Q 42.578125 3.328125 38.25 0.953125 
Q 33.9375 -1.421875 27.875 -1.421875 
Q 17.96875 -1.421875 11.734375 6.484375 
Q 5.515625 14.40625 5.515625 27.296875 
Q 5.515625 40.1875 11.734375 48.09375 
Q 17.96875 56 27.875 56 
Q 33.9375 56 38.25 53.625 
Q 42.578125 51.265625 45.40625 46.390625 
z
M 14.796875 27.296875 
Q 14.796875 17.390625 18.875 11.75 
Q 22.953125 6.109375 30.078125 6.109375 
Q 37.203125 6.109375 41.296875 11.75 
Q 45.40625 17.390625 45.40625 27.296875 
Q 45.40625 37.203125 41.296875 42.84375 
Q 37.203125 48.484375 30.078125 48.484375 
Q 22.953125 48.484375 18.875 42.84375 
Q 14.796875 37.203125 14.796875 27.296875 
z
" id="DejaVuSans-100"/>
        <path d="M 56.203125 29.59375 
L 56.203125 25.203125 
L 14.890625 25.203125 
Q 15.484375 15.921875 20.484375 11.0625 
Q 25.484375 6.203125 34.421875 6.203125 
Q 39.59375 6.203125 44.453125 7.46875 
Q 49.3125 8.734375 54.109375 11.28125 
L 54.109375 2.78125 
Q 49.265625 0.734375 44.1875 -0.34375 
Q 39.109375 -1.421875 33.890625 -1.421875 
Q 20.796875 -1.421875 13.15625 6.1875 
Q 5.515625 13.8125 5.515625 26.8125 
Q 5.515625 40.234375 12.765625 48.109375 
Q 20.015625 56 32.328125 56 
Q 43.359375 56 49.78125 48.890625 
Q 56.203125 41.796875 56.203125 29.59375 
z
M 47.21875 32.234375 
Q 47.125 39.59375 43.09375 43.984375 
Q 39.0625 48.390625 32.421875 48.390625 
Q 24.90625 48.390625 20.390625 44.140625 
Q 15.875 39.890625 15.1875 32.171875 
z
" id="DejaVuSans-101"/>
        <path d="M 2.984375 54.6875 
L 12.5 54.6875 
L 29.59375 8.796875 
L 46.6875 54.6875 
L 56.203125 54.6875 
L 35.6875 0 
L 23.484375 0 
z
" id="DejaVuSans-118"/>
        <path d="M 9.421875 75.984375 
L 18.40625 75.984375 
L 18.40625 0 
L 9.421875 0 
z
" id="DejaVuSans-108"/>
        <path d="M 30.609375 48.390625 
Q 23.390625 48.390625 19.1875 42.75 
Q 14.984375 37.109375 14.984375 27.296875 
Q 14.984375 17.484375 19.15625 11.84375 
Q 23.34375 6.203125 30.609375 6.203125 
Q 37.796875 6.203125 41.984375 11.859375 
Q 46.1875 17.53125 46.1875 27.296875 
Q 46.1875 37.015625 41.984375 42.703125 
Q 37.796875 48.390625 30.609375 48.390625 
z
M 30.609375 56 
Q 42.328125 56 49.015625 48.375 
Q 55.71875 40.765625 55.71875 27.296875 
Q 55.71875 13.875 49.015625 6.21875 
Q 42.328125 -1.421875 30.609375 -1.421875 
Q 18.84375 -1.421875 12.171875 6.21875 
Q 5.515625 13.875 5.515625 27.296875 
Q 5.515625 40.765625 12.171875 48.375 
Q 18.84375 56 30.609375 56 
z
" id="DejaVuSans-111"/>
        <path d="M 18.109375 8.203125 
L 18.109375 -20.796875 
L 9.078125 -20.796875 
L 9.078125 54.6875 
L 18.109375 54.6875 
L 18.109375 46.390625 
Q 20.953125 51.265625 25.265625 53.625 
Q 29.59375 56 35.59375 56 
Q 45.5625 56 51.78125 48.09375 
Q 58.015625 40.1875 58.015625 27.296875 
Q 58.015625 14.40625 51.78125 6.484375 
Q 45.5625 -1.421875 35.59375 -1.421875 
Q 29.59375 -1.421875 25.265625 0.953125 
Q 20.953125 3.328125 18.109375 8.203125 
z
M 48.6875 27.296875 
Q 48.6875 37.203125 44.609375 42.84375 
Q 40.53125 48.484375 33.40625 48.484375 
Q 26.265625 48.484375 22.1875 42.84375 
Q 18.109375 37.203125 18.109375 27.296875 
Q 18.109375 17.390625 22.1875 11.75 
Q 26.265625 6.109375 33.40625 6.109375 
Q 40.53125 6.109375 44.609375 11.75 
Q 48.6875 17.390625 48.6875 27.296875 
z
" id="DejaVuSans-112"/>
        <path d="M 50.984375 -16.609375 
L 50.984375 -23.578125 
L -0.984375 -23.578125 
L -0.984375 -16.609375 
z
" id="DejaVuSans-95"/>
        <path d="M 40.578125 39.3125 
Q 47.65625 37.796875 51.625 33 
Q 55.609375 28.21875 55.609375 21.1875 
Q 55.609375 10.40625 48.1875 4.484375 
Q 40.765625 -1.421875 27.09375 -1.421875 
Q 22.515625 -1.421875 17.65625 -0.515625 
Q 12.796875 0.390625 7.625 2.203125 
L 7.625 11.71875 
Q 11.71875 9.328125 16.59375 8.109375 
Q 21.484375 6.890625 26.8125 6.890625 
Q 36.078125 6.890625 40.9375 10.546875 
Q 45.796875 14.203125 45.796875 21.1875 
Q 45.796875 27.640625 41.28125 31.265625 
Q 36.765625 34.90625 28.71875 34.90625 
L 20.21875 34.90625 
L 20.21875 43.015625 
L 29.109375 43.015625 
Q 36.375 43.015625 40.234375 45.921875 
Q 44.09375 48.828125 44.09375 54.296875 
Q 44.09375 59.90625 40.109375 62.90625 
Q 36.140625 65.921875 28.71875 65.921875 
Q 24.65625 65.921875 20.015625 65.03125 
Q 15.375 64.15625 9.8125 62.3125 
L 9.8125 71.09375 
Q 15.4375 72.65625 20.34375 73.4375 
Q 25.25 74.21875 29.59375 74.21875 
Q 40.828125 74.21875 47.359375 69.109375 
Q 53.90625 64.015625 53.90625 55.328125 
Q 53.90625 49.265625 50.4375 45.09375 
Q 46.96875 40.921875 40.578125 39.3125 
z
" id="DejaVuSans-51"/>
        <path d="M 19.1875 8.296875 
L 53.609375 8.296875 
L 53.609375 0 
L 7.328125 0 
L 7.328125 8.296875 
Q 12.9375 14.109375 22.625 23.890625 
Q 32.328125 33.6875 34.8125 36.53125 
Q 39.546875 41.84375 41.421875 45.53125 
Q 43.3125 49.21875 43.3125 52.78125 
Q 43.3125 58.59375 39.234375 62.25 
Q 35.15625 65.921875 28.609375 65.921875 
Q 23.96875 65.921875 18.8125 64.3125 
Q 13.671875 62.703125 7.8125 59.421875 
L 7.8125 69.390625 
Q 13.765625 71.78125 18.9375 73 
Q 24.125 74.21875 28.421875 74.21875 
Q 39.75 74.21875 46.484375 68.546875 
Q 53.21875 62.890625 53.21875 53.421875 
Q 53.21875 48.921875 51.53125 44.890625 
Q 49.859375 40.875 45.40625 35.40625 
Q 44.1875 33.984375 37.640625 27.21875 
Q 31.109375 20.453125 19.1875 8.296875 
z
" id="DejaVuSans-50"/>
       </defs>
       <use xlink:href="#DejaVuSans-100"/>
       <use x="63.476562" xlink:href="#DejaVuSans-101"/>
       <use x="125" xlink:href="#DejaVuSans-118"/>
       <use x="184.179688" xlink:href="#DejaVuSans-101"/>
       <use x="245.703125" xlink:href="#DejaVuSans-108"/>
       <use x="273.486328" xlink:href="#DejaVuSans-111"/>
       <use x="334.667969" xlink:href="#DejaVuSans-112"/>
       <use x="398.144531" xlink:href="#DejaVuSans-95"/>
       <use x="448.144531" xlink:href="#DejaVuSans-51"/>
       <use x="511.767578" xlink:href="#DejaVuSans-50"/>
      </g>
     </g>
    </g>
    <g id="xtick_2">
     <g id="line2d_2">
      <g>
       <use style="stroke:#000000;stroke-width:0.8;" x="187.248125" xlink:href="#m786d5161ea" y="288.430125"/>
      </g>
     </g>
     <g id="text_2">
      <!-- develop_16 -->
      <g transform="translate(136.234869 330.78244)rotate(-30)scale(0.1 -0.1)">
       <defs>
        <path d="M 12.40625 8.296875 
L 28.515625 8.296875 
L 28.515625 63.921875 
L 10.984375 60.40625 
L 10.984375 69.390625 
L 28.421875 72.90625 
L 38.28125 72.90625 
L 38.28125 8.296875 
L 54.390625 8.296875 
L 54.390625 0 
L 12.40625 0 
z
" id="DejaVuSans-49"/>
        <path d="M 33.015625 40.375 
Q 26.375 40.375 22.484375 35.828125 
Q 18.609375 31.296875 18.609375 23.390625 
Q 18.609375 15.53125 22.484375 10.953125 
Q 26.375 6.390625 33.015625 6.390625 
Q 39.65625 6.390625 43.53125 10.953125 
Q 47.40625 15.53125 47.40625 23.390625 
Q 47.40625 31.296875 43.53125 35.828125 
Q 39.65625 40.375 33.015625 40.375 
z
M 52.59375 71.296875 
L 52.59375 62.3125 
Q 48.875 64.0625 45.09375 64.984375 
Q 41.3125 65.921875 37.59375 65.921875 
Q 27.828125 65.921875 22.671875 59.328125 
Q 17.53125 52.734375 16.796875 39.40625 
Q 19.671875 43.65625 24.015625 45.921875 
Q 28.375 48.1875 33.59375 48.1875 
Q 44.578125 48.1875 50.953125 41.515625 
Q 57.328125 34.859375 57.328125 23.390625 
Q 57.328125 12.15625 50.6875 5.359375 
Q 44.046875 -1.421875 33.015625 -1.421875 
Q 20.359375 -1.421875 13.671875 8.265625 
Q 6.984375 17.96875 6.984375 36.375 
Q 6.984375 53.65625 15.1875 63.9375 
Q 23.390625 74.21875 37.203125 74.21875 
Q 40.921875 74.21875 44.703125 73.484375 
Q 48.484375 72.75 52.59375 71.296875 
z
" id="DejaVuSans-54"/>
       </defs>
       <use xlink:href="#DejaVuSans-100"/>
       <use x="63.476562" xlink:href="#DejaVuSans-101"/>
       <use x="125" xlink:href="#DejaVuSans-118"/>
       <use x="184.179688" xlink:href="#DejaVuSans-101"/>
       <use x="245.703125" xlink:href="#DejaVuSans-108"/>
       <use x="273.486328" xlink:href="#DejaVuSans-111"/>
       <use x="334.667969" xlink:href="#DejaVuSans-112"/>
       <use x="398.144531" xlink:href="#DejaVuSans-95"/>
       <use x="448.144531" xlink:href="#DejaVuSans-49"/>
       <use x="511.767578" xlink:href="#DejaVuSans-54"/>
      </g>
     </g>
    </g>
    <g id="xtick_3">
     <g id="line2d_3">
      <g>
       <use style="stroke:#000000;stroke-width:0.8;" x="276.528125" xlink:href="#m786d5161ea" y="288.430125"/>
      </g>
     </g>
     <g id="text_3">
      <!-- dark_stop_32 -->
      <g transform="translate(217.585324 335.360565)rotate(-30)scale(0.1 -0.1)">
       <defs>
        <path d="M 34.28125 27.484375 
Q 23.390625 27.484375 19.1875 25 
Q 14.984375 22.515625 14.984375 16.5 
Q 14.984375 11.71875 18.140625 8.90625 
Q 21.296875 6.109375 26.703125 6.109375 
Q 34.1875 6.109375 38.703125 11.40625 
Q 43.21875 16.703125 43.21875 25.484375 
L 43.21875 27.484375 
z
M 52.203125 31.203125 
L 52.203125 0 
L 43.21875 0 
L 43.21875 8.296875 
Q 40.140625 3.328125 35.546875 0.953125 
Q 30.953125 -1.421875 24.3125 -1.421875 
Q 15.921875 -1.421875 10.953125 3.296875 
Q 6 8.015625 6 15.921875 
Q 6 25.140625 12.171875 29.828125 
Q 18.359375 34.515625 30.609375 34.515625 
L 43.21875 34.515625 
L 43.21875 35.40625 
Q 43.21875 41.609375 39.140625 45 
Q 35.0625 48.390625 27.6875 48.390625 
Q 23 48.390625 18.546875 47.265625 
Q 14.109375 46.140625 10.015625 43.890625 
L 10.015625 52.203125 
Q 14.9375 54.109375 19.578125 55.046875 
Q 24.21875 56 28.609375 56 
Q 40.484375 56 46.34375 49.84375 
Q 52.203125 43.703125 52.203125 31.203125 
z
" id="DejaVuSans-97"/>
        <path d="M 41.109375 46.296875 
Q 39.59375 47.171875 37.8125 47.578125 
Q 36.03125 48 33.890625 48 
Q 26.265625 48 22.1875 43.046875 
Q 18.109375 38.09375 18.109375 28.8125 
L 18.109375 0 
L 9.078125 0 
L 9.078125 54.6875 
L 18.109375 54.6875 
L 18.109375 46.1875 
Q 20.953125 51.171875 25.484375 53.578125 
Q 30.03125 56 36.53125 56 
Q 37.453125 56 38.578125 55.875 
Q 39.703125 55.765625 41.0625 55.515625 
z
" id="DejaVuSans-114"/>
        <path d="M 9.078125 75.984375 
L 18.109375 75.984375 
L 18.109375 31.109375 
L 44.921875 54.6875 
L 56.390625 54.6875 
L 27.390625 29.109375 
L 57.625 0 
L 45.90625 0 
L 18.109375 26.703125 
L 18.109375 0 
L 9.078125 0 
z
" id="DejaVuSans-107"/>
        <path d="M 44.28125 53.078125 
L 44.28125 44.578125 
Q 40.484375 46.53125 36.375 47.5 
Q 32.28125 48.484375 27.875 48.484375 
Q 21.1875 48.484375 17.84375 46.4375 
Q 14.5 44.390625 14.5 40.28125 
Q 14.5 37.15625 16.890625 35.375 
Q 19.28125 33.59375 26.515625 31.984375 
L 29.59375 31.296875 
Q 39.15625 29.25 43.1875 25.515625 
Q 47.21875 21.78125 47.21875 15.09375 
Q 47.21875 7.46875 41.1875 3.015625 
Q 35.15625 -1.421875 24.609375 -1.421875 
Q 20.21875 -1.421875 15.453125 -0.5625 
Q 10.6875 0.296875 5.421875 2 
L 5.421875 11.28125 
Q 10.40625 8.6875 15.234375 7.390625 
Q 20.0625 6.109375 24.8125 6.109375 
Q 31.15625 6.109375 34.5625 8.28125 
Q 37.984375 10.453125 37.984375 14.40625 
Q 37.984375 18.0625 35.515625 20.015625 
Q 33.0625 21.96875 24.703125 23.78125 
L 21.578125 24.515625 
Q 13.234375 26.265625 9.515625 29.90625 
Q 5.8125 33.546875 5.8125 39.890625 
Q 5.8125 47.609375 11.28125 51.796875 
Q 16.75 56 26.8125 56 
Q 31.78125 56 36.171875 55.265625 
Q 40.578125 54.546875 44.28125 53.078125 
z
" id="DejaVuSans-115"/>
        <path d="M 18.3125 70.21875 
L 18.3125 54.6875 
L 36.8125 54.6875 
L 36.8125 47.703125 
L 18.3125 47.703125 
L 18.3125 18.015625 
Q 18.3125 11.328125 20.140625 9.421875 
Q 21.96875 7.515625 27.59375 7.515625 
L 36.8125 7.515625 
L 36.8125 0 
L 27.59375 0 
Q 17.1875 0 13.234375 3.875 
Q 9.28125 7.765625 9.28125 18.015625 
L 9.28125 47.703125 
L 2.6875 47.703125 
L 2.6875 54.6875 
L 9.28125 54.6875 
L 9.28125 70.21875 
z
" id="DejaVuSans-116"/>
       </defs>
       <use xlink:href="#DejaVuSans-100"/>
       <use x="63.476562" xlink:href="#DejaVuSans-97"/>
       <use x="124.755859" xlink:href="#DejaVuSans-114"/>
       <use x="165.869141" xlink:href="#DejaVuSans-107"/>
       <use x="223.779297" xlink:href="#DejaVuSans-95"/>
       <use x="273.779297" xlink:href="#DejaVuSans-115"/>
       <use x="325.878906" xlink:href="#DejaVuSans-116"/>
       <use x="365.087891" xlink:href="#DejaVuSans-111"/>
       <use x="426.269531" xlink:href="#DejaVuSans-112"/>
       <use x="489.746094" xlink:href="#DejaVuSans-95"/>
       <use x="539.746094" xlink:href="#DejaVuSans-51"/>
       <use x="603.369141" xlink:href="#DejaVuSans-50"/>
      </g>
     </g>
    </g>
    <g id="xtick_4">
     <g id="line2d_4">
      <g>
       <use style="stroke:#000000;stroke-width:0.8;" x="365.808125" xlink:href="#m786d5161ea" y="288.430125"/>
      </g>
     </g>
     <g id="text_4">
      <!-- dark_stop_16 -->
      <g transform="translate(306.865324 335.360565)rotate(-30)scale(0.1 -0.1)">
       <use xlink:href="#DejaVuSans-100"/>
       <use x="63.476562" xlink:href="#DejaVuSans-97"/>
       <use x="124.755859" xlink:href="#DejaVuSans-114"/>
       <use x="165.869141" xlink:href="#DejaVuSans-107"/>
       <use x="223.779297" xlink:href="#DejaVuSans-95"/>
       <use x="273.779297" xlink:href="#DejaVuSans-115"/>
       <use x="325.878906" xlink:href="#DejaVuSans-116"/>
       <use x="365.087891" xlink:href="#DejaVuSans-111"/>
       <use x="426.269531" xlink:href="#DejaVuSans-112"/>
       <use x="489.746094" xlink:href="#DejaVuSans-95"/>
       <use x="539.746094" xlink:href="#DejaVuSans-49"/>
       <use x="603.369141" xlink:href="#DejaVuSans-54"/>
      </g>
     </g>
    </g>
    <g id="text_5">
     <!-- Fuzzer (highest median coverage on the left) -->
     <g transform="translate(119.270156 349.000928)scale(0.1 -0.1)">
      <defs>
       <path d="M 9.8125 72.90625 
L 51.703125 72.90625 
L 51.703125 64.59375 
L 19.671875 64.59375 
L 19.671875 43.109375 
L 48.578125 43.109375 
L 48.578125 34.8125 
L 19.671875 34.8125 
L 19.671875 0 
L 9.8125 0 
z
" id="DejaVuSans-70"/>
       <path d="M 8.5 21.578125 
L 8.5 54.6875 
L 17.484375 54.6875 
L 17.484375 21.921875 
Q 17.484375 14.15625 20.5 10.265625 
Q 23.53125 6.390625 29.59375 6.390625 
Q 36.859375 6.390625 41.078125 11.03125 
Q 45.3125 15.671875 45.3125 23.6875 
L 45.3125 54.6875 
L 54.296875 54.6875 
L 54.296875 0 
L 45.3125 0 
L 45.3125 8.40625 
Q 42.046875 3.421875 37.71875 1 
Q 33.40625 -1.421875 27.6875 -1.421875 
Q 18.265625 -1.421875 13.375 4.4375 
Q 8.5 10.296875 8.5 21.578125 
z
M 31.109375 56 
z
" id="DejaVuSans-117"/>
       <path d="M 5.515625 54.6875 
L 48.1875 54.6875 
L 48.1875 46.484375 
L 14.40625 7.171875 
L 48.1875 7.171875 
L 48.1875 0 
L 4.296875 0 
L 4.296875 8.203125 
L 38.09375 47.515625 
L 5.515625 47.515625 
z
" id="DejaVuSans-122"/>
       <path id="DejaVuSans-32"/>
       <path d="M 31 75.875 
Q 24.46875 64.65625 21.28125 53.65625 
Q 18.109375 42.671875 18.109375 31.390625 
Q 18.109375 20.125 21.3125 9.0625 
Q 24.515625 -2 31 -13.1875 
L 23.1875 -13.1875 
Q 15.875 -1.703125 12.234375 9.375 
Q 8.59375 20.453125 8.59375 31.390625 
Q 8.59375 42.28125 12.203125 53.3125 
Q 15.828125 64.359375 23.1875 75.875 
z
" id="DejaVuSans-40"/>
       <path d="M 54.890625 33.015625 
L 54.890625 0 
L 45.90625 0 
L 45.90625 32.71875 
Q 45.90625 40.484375 42.875 44.328125 
Q 39.84375 48.1875 33.796875 48.1875 
Q 26.515625 48.1875 22.3125 43.546875 
Q 18.109375 38.921875 18.109375 30.90625 
L 18.109375 0 
L 9.078125 0 
L 9.078125 75.984375 
L 18.109375 75.984375 
L 18.109375 46.1875 
Q 21.34375 51.125 25.703125 53.5625 
Q 30.078125 56 35.796875 56 
Q 45.21875 56 50.046875 50.171875 
Q 54.890625 44.34375 54.890625 33.015625 
z
" id="DejaVuSans-104"/>
       <path d="M 9.421875 54.6875 
L 18.40625 54.6875 
L 18.40625 0 
L 9.421875 0 
z
M 9.421875 75.984375 
L 18.40625 75.984375 
L 18.40625 64.59375 
L 9.421875 64.59375 
z
" id="DejaVuSans-105"/>
       <path d="M 45.40625 27.984375 
Q 45.40625 37.75 41.375 43.109375 
Q 37.359375 48.484375 30.078125 48.484375 
Q 22.859375 48.484375 18.828125 43.109375 
Q 14.796875 37.75 14.796875 27.984375 
Q 14.796875 18.265625 18.828125 12.890625 
Q 22.859375 7.515625 30.078125 7.515625 
Q 37.359375 7.515625 41.375 12.890625 
Q 45.40625 18.265625 45.40625 27.984375 
z
M 54.390625 6.78125 
Q 54.390625 -7.171875 48.1875 -13.984375 
Q 42 -20.796875 29.203125 -20.796875 
Q 24.46875 -20.796875 20.265625 -20.09375 
Q 16.0625 -19.390625 12.109375 -17.921875 
L 12.109375 -9.1875 
Q 16.0625 -11.328125 19.921875 -12.34375 
Q 23.78125 -13.375 27.78125 -13.375 
Q 36.625 -13.375 41.015625 -8.765625 
Q 45.40625 -4.15625 45.40625 5.171875 
L 45.40625 9.625 
Q 42.625 4.78125 38.28125 2.390625 
Q 33.9375 0 27.875 0 
Q 17.828125 0 11.671875 7.65625 
Q 5.515625 15.328125 5.515625 27.984375 
Q 5.515625 40.671875 11.671875 48.328125 
Q 17.828125 56 27.875 56 
Q 33.9375 56 38.28125 53.609375 
Q 42.625 51.21875 45.40625 46.390625 
L 45.40625 54.6875 
L 54.390625 54.6875 
z
" id="DejaVuSans-103"/>
       <path d="M 52 44.1875 
Q 55.375 50.25 60.0625 53.125 
Q 64.75 56 71.09375 56 
Q 79.640625 56 84.28125 50.015625 
Q 88.921875 44.046875 88.921875 33.015625 
L 88.921875 0 
L 79.890625 0 
L 79.890625 32.71875 
Q 79.890625 40.578125 77.09375 44.375 
Q 74.3125 48.1875 68.609375 48.1875 
Q 61.625 48.1875 57.5625 43.546875 
Q 53.515625 38.921875 53.515625 30.90625 
L 53.515625 0 
L 44.484375 0 
L 44.484375 32.71875 
Q 44.484375 40.625 41.703125 44.40625 
Q 38.921875 48.1875 33.109375 48.1875 
Q 26.21875 48.1875 22.15625 43.53125 
Q 18.109375 38.875 18.109375 30.90625 
L 18.109375 0 
L 9.078125 0 
L 9.078125 54.6875 
L 18.109375 54.6875 
L 18.109375 46.1875 
Q 21.1875 51.21875 25.484375 53.609375 
Q 29.78125 56 35.6875 56 
Q 41.65625 56 45.828125 52.96875 
Q 50 49.953125 52 44.1875 
z
" id="DejaVuSans-109"/>
       <path d="M 54.890625 33.015625 
L 54.890625 0 
L 45.90625 0 
L 45.90625 32.71875 
Q 45.90625 40.484375 42.875 44.328125 
Q 39.84375 48.1875 33.796875 48.1875 
Q 26.515625 48.1875 22.3125 43.546875 
Q 18.109375 38.921875 18.109375 30.90625 
L 18.109375 0 
L 9.078125 0 
L 9.078125 54.6875 
L 18.109375 54.6875 
L 18.109375 46.1875 
Q 21.34375 51.125 25.703125 53.5625 
Q 30.078125 56 35.796875 56 
Q 45.21875 56 50.046875 50.171875 
Q 54.890625 44.34375 54.890625 33.015625 
z
" id="DejaVuSans-110"/>
       <path d="M 48.78125 52.59375 
L 48.78125 44.1875 
Q 44.96875 46.296875 41.140625 47.34375 
Q 37.3125 48.390625 33.40625 48.390625 
Q 24.65625 48.390625 19.8125 42.84375 
Q 14.984375 37.3125 14.984375 27.296875 
Q 14.984375 17.28125 19.8125 11.734375 
Q 24.65625 6.203125 33.40625 6.203125 
Q 37.3125 6.203125 41.140625 7.25 
Q 44.96875 8.296875 48.78125 10.40625 
L 48.78125 2.09375 
Q 45.015625 0.34375 40.984375 -0.53125 
Q 36.96875 -1.421875 32.421875 -1.421875 
Q 20.0625 -1.421875 12.78125 6.34375 
Q 5.515625 14.109375 5.515625 27.296875 
Q 5.515625 40.671875 12.859375 48.328125 
Q 20.21875 56 33.015625 56 
Q 37.15625 56 41.109375 55.140625 
Q 45.0625 54.296875 48.78125 52.59375 
z
" id="DejaVuSans-99"/>
       <path d="M 37.109375 75.984375 
L 37.109375 68.5 
L 28.515625 68.5 
Q 23.6875 68.5 21.796875 66.546875 
Q 19.921875 64.59375 19.921875 59.515625 
L 19.921875 54.6875 
L 34.71875 54.6875 
L 34.71875 47.703125 
L 19.921875 47.703125 
L 19.921875 0 
L 10.890625 0 
L 10.890625 47.703125 
L 2.296875 47.703125 
L 2.296875 54.6875 
L 10.890625 54.6875 
L 10.890625 58.5 
Q 10.890625 67.625 15.140625 71.796875 
Q 19.390625 75.984375 28.609375 75.984375 
z
" id="DejaVuSans-102"/>
       <path d="M 8.015625 75.875 
L 15.828125 75.875 
Q 23.140625 64.359375 26.78125 53.3125 
Q 30.421875 42.28125 30.421875 31.390625 
Q 30.421875 20.453125 26.78125 9.375 
Q 23.140625 -1.703125 15.828125 -13.1875 
L 8.015625 -13.1875 
Q 14.5 -2 17.703125 9.0625 
Q 20.90625 20.125 20.90625 31.390625 
Q 20.90625 42.671875 17.703125 53.65625 
Q 14.5 64.65625 8.015625 75.875 
z
" id="DejaVuSans-41"/>
      </defs>
      <use xlink:href="#DejaVuSans-70"/>
      <use x="52.019531" xlink:href="#DejaVuSans-117"/>
      <use x="115.398438" xlink:href="#DejaVuSans-122"/>
      <use x="167.888672" xlink:href="#DejaVuSans-122"/>
      <use x="220.378906" xlink:href="#DejaVuSans-101"/>
      <use x="281.902344" xlink:href="#DejaVuSans-114"/>
      <use x="323.015625" xlink:href="#DejaVuSans-32"/>
      <use x="354.802734" xlink:href="#DejaVuSans-40"/>
      <use x="393.816406" xlink:href="#DejaVuSans-104"/>
      <use x="457.195312" xlink:href="#DejaVuSans-105"/>
      <use x="484.978516" xlink:href="#DejaVuSans-103"/>
      <use x="548.455078" xlink:href="#DejaVuSans-104"/>
      <use x="611.833984" xlink:href="#DejaVuSans-101"/>
      <use x="673.357422" xlink:href="#DejaVuSans-115"/>
      <use x="725.457031" xlink:href="#DejaVuSans-116"/>
      <use x="764.666016" xlink:href="#DejaVuSans-32"/>
      <use x="796.453125" xlink:href="#DejaVuSans-109"/>
      <use x="893.865234" xlink:href="#DejaVuSans-101"/>
      <use x="955.388672" xlink:href="#DejaVuSans-100"/>
      <use x="1018.865234" xlink:href="#DejaVuSans-105"/>
      <use x="1046.648438" xlink:href="#DejaVuSans-97"/>
      <use x="1107.927734" xlink:href="#DejaVuSans-110"/>
      <use x="1171.306641" xlink:href="#DejaVuSans-32"/>
      <use x="1203.09375" xlink:href="#DejaVuSans-99"/>
      <use x="1258.074219" xlink:href="#DejaVuSans-111"/>
      <use x="1319.255859" xlink:href="#DejaVuSans-118"/>
      <use x="1378.435547" xlink:href="#DejaVuSans-101"/>
      <use x="1439.958984" xlink:href="#DejaVuSans-114"/>
      <use x="1481.072266" xlink:href="#DejaVuSans-97"/>
      <use x="1542.351562" xlink:href="#DejaVuSans-103"/>
      <use x="1605.828125" xlink:href="#DejaVuSans-101"/>
      <use x="1667.351562" xlink:href="#DejaVuSans-32"/>
      <use x="1699.138672" xlink:href="#DejaVuSans-111"/>
      <use x="1760.320312" xlink:href="#DejaVuSans-110"/>
      <use x="1823.699219" xlink:href="#DejaVuSans-32"/>
      <use x="1855.486328" xlink:href="#DejaVuSans-116"/>
      <use x="1894.695312" xlink:href="#DejaVuSans-104"/>
      <use x="1958.074219" xlink:href="#DejaVuSans-101"/>
      <use x="2019.597656" xlink:href="#DejaVuSans-32"/>
      <use x="2051.384766" xlink:href="#DejaVuSans-108"/>
      <use x="2079.167969" xlink:href="#DejaVuSans-101"/>
      <use x="2140.691406" xlink:href="#DejaVuSans-102"/>
      <use x="2174.146484" xlink:href="#DejaVuSans-116"/>
      <use x="2213.355469" xlink:href="#DejaVuSans-41"/>
     </g>
    </g>
   </g>
   <g id="matplotlib.axis_2">
    <g id="ytick_1">
     <g id="line2d_5">
      <defs>
       <path d="M 0 0 
L -3.5 0 
" id="mf891511a0b" style="stroke:#000000;stroke-width:0.8;"/>
      </defs>
      <g>
       <use style="stroke:#000000;stroke-width:0.8;" x="53.328125" xlink:href="#mf891511a0b" y="283.877786"/>
      </g>
     </g>
     <g id="text_6">
      <!-- 1440 -->
      <g transform="translate(20.878125 287.677005)scale(0.1 -0.1)">
       <defs>
        <path d="M 37.796875 64.3125 
L 12.890625 25.390625 
L 37.796875 25.390625 
z
M 35.203125 72.90625 
L 47.609375 72.90625 
L 47.609375 25.390625 
L 58.015625 25.390625 
L 58.015625 17.1875 
L 47.609375 17.1875 
L 47.609375 0 
L 37.796875 0 
L 37.796875 17.1875 
L 4.890625 17.1875 
L 4.890625 26.703125 
z
" id="DejaVuSans-52"/>
        <path d="M 31.78125 66.40625 
Q 24.171875 66.40625 20.328125 58.90625 
Q 16.5 51.421875 16.5 36.375 
Q 16.5 21.390625 20.328125 13.890625 
Q 24.171875 6.390625 31.78125 6.390625 
Q 39.453125 6.390625 43.28125 13.890625 
Q 47.125 21.390625 47.125 36.375 
Q 47.125 51.421875 43.28125 58.90625 
Q 39.453125 66.40625 31.78125 66.40625 
z
M 31.78125 74.21875 
Q 44.046875 74.21875 50.515625 64.515625 
Q 56.984375 54.828125 56.984375 36.375 
Q 56.984375 17.96875 50.515625 8.265625 
Q 44.046875 -1.421875 31.78125 -1.421875 
Q 19.53125 -1.421875 13.0625 8.265625 
Q 6.59375 17.96875 6.59375 36.375 
Q 6.59375 54.828125 13.0625 64.515625 
Q 19.53125 74.21875 31.78125 74.21875 
z
" id="DejaVuSans-48"/>
       </defs>
       <use xlink:href="#DejaVuSans-49"/>
       <use x="63.623047" xlink:href="#DejaVuSans-52"/>
       <use x="127.246094" xlink:href="#DejaVuSans-52"/>
       <use x="190.869141" xlink:href="#DejaVuSans-48"/>
      </g>
     </g>
    </g>
    <g id="ytick_2">
     <g id="line2d_6">
      <g>
       <use style="stroke:#000000;stroke-width:0.8;" x="53.328125" xlink:href="#mf891511a0b" y="231.427312"/>
      </g>
     </g>
     <g id="text_7">
      <!-- 1460 -->
      <g transform="translate(20.878125 235.226531)scale(0.1 -0.1)">
       <use xlink:href="#DejaVuSans-49"/>
       <use x="63.623047" xlink:href="#DejaVuSans-52"/>
       <use x="127.246094" xlink:href="#DejaVuSans-54"/>
       <use x="190.869141" xlink:href="#DejaVuSans-48"/>
      </g>
     </g>
    </g>
    <g id="ytick_3">
     <g id="line2d_7">
      <g>
       <use style="stroke:#000000;stroke-width:0.8;" x="53.328125" xlink:href="#mf891511a0b" y="178.976838"/>
      </g>
     </g>
     <g id="text_8">
      <!-- 1480 -->
      <g transform="translate(20.878125 182.776057)scale(0.1 -0.1)">
       <defs>
        <path d="M 31.78125 34.625 
Q 24.75 34.625 20.71875 30.859375 
Q 16.703125 27.09375 16.703125 20.515625 
Q 16.703125 13.921875 20.71875 10.15625 
Q 24.75 6.390625 31.78125 6.390625 
Q 38.8125 6.390625 42.859375 10.171875 
Q 46.921875 13.96875 46.921875 20.515625 
Q 46.921875 27.09375 42.890625 30.859375 
Q 38.875 34.625 31.78125 34.625 
z
M 21.921875 38.8125 
Q 15.578125 40.375 12.03125 44.71875 
Q 8.5 49.078125 8.5 55.328125 
Q 8.5 64.0625 14.71875 69.140625 
Q 20.953125 74.21875 31.78125 74.21875 
Q 42.671875 74.21875 48.875 69.140625 
Q 55.078125 64.0625 55.078125 55.328125 
Q 55.078125 49.078125 51.53125 44.71875 
Q 48 40.375 41.703125 38.8125 
Q 48.828125 37.15625 52.796875 32.3125 
Q 56.78125 27.484375 56.78125 20.515625 
Q 56.78125 9.90625 50.3125 4.234375 
Q 43.84375 -1.421875 31.78125 -1.421875 
Q 19.734375 -1.421875 13.25 4.234375 
Q 6.78125 9.90625 6.78125 20.515625 
Q 6.78125 27.484375 10.78125 32.3125 
Q 14.796875 37.15625 21.921875 38.8125 
z
M 18.3125 54.390625 
Q 18.3125 48.734375 21.84375 45.5625 
Q 25.390625 42.390625 31.78125 42.390625 
Q 38.140625 42.390625 41.71875 45.5625 
Q 45.3125 48.734375 45.3125 54.390625 
Q 45.3125 60.0625 41.71875 63.234375 
Q 38.140625 66.40625 31.78125 66.40625 
Q 25.390625 66.40625 21.84375 63.234375 
Q 18.3125 60.0625 18.3125 54.390625 
z
" id="DejaVuSans-56"/>
       </defs>
       <use xlink:href="#DejaVuSans-49"/>
       <use x="63.623047" xlink:href="#DejaVuSans-52"/>
       <use x="127.246094" xlink:href="#DejaVuSans-56"/>
       <use x="190.869141" xlink:href="#DejaVuSans-48"/>
      </g>
     </g>
    </g>
    <g id="ytick_4">
     <g id="line2d_8">
      <g>
       <use style="stroke:#000000;stroke-width:0.8;" x="53.328125" xlink:href="#mf891511a0b" y="126.526364"/>
      </g>
     </g>
     <g id="text_9">
      <!-- 1500 -->
      <g transform="translate(20.878125 130.325583)scale(0.1 -0.1)">
       <defs>
        <path d="M 10.796875 72.90625 
L 49.515625 72.90625 
L 49.515625 64.59375 
L 19.828125 64.59375 
L 19.828125 46.734375 
Q 21.96875 47.46875 24.109375 47.828125 
Q 26.265625 48.1875 28.421875 48.1875 
Q 40.625 48.1875 47.75 41.5 
Q 54.890625 34.8125 54.890625 23.390625 
Q 54.890625 11.625 47.5625 5.09375 
Q 40.234375 -1.421875 26.90625 -1.421875 
Q 22.3125 -1.421875 17.546875 -0.640625 
Q 12.796875 0.140625 7.71875 1.703125 
L 7.71875 11.625 
Q 12.109375 9.234375 16.796875 8.0625 
Q 21.484375 6.890625 26.703125 6.890625 
Q 35.15625 6.890625 40.078125 11.328125 
Q 45.015625 15.765625 45.015625 23.390625 
Q 45.015625 31 40.078125 35.4375 
Q 35.15625 39.890625 26.703125 39.890625 
Q 22.75 39.890625 18.8125 39.015625 
Q 14.890625 38.140625 10.796875 36.28125 
z
" id="DejaVuSans-53"/>
       </defs>
       <use xlink:href="#DejaVuSans-49"/>
       <use x="63.623047" xlink:href="#DejaVuSans-53"/>
       <use x="127.246094" xlink:href="#DejaVuSans-48"/>
       <use x="190.869141" xlink:href="#DejaVuSans-48"/>
      </g>
     </g>
    </g>
    <g id="ytick_5">
     <g id="line2d_9">
      <g>
       <use style="stroke:#000000;stroke-width:0.8;" x="53.328125" xlink:href="#mf891511a0b" y="74.075891"/>
      </g>
     </g>
     <g id="text_10">
      <!-- 1520 -->
      <g transform="translate(20.878125 77.875109)scale(0.1 -0.1)">
       <use xlink:href="#DejaVuSans-49"/>
       <use x="63.623047" xlink:href="#DejaVuSans-53"/>
       <use x="127.246094" xlink:href="#DejaVuSans-50"/>
       <use x="190.869141" xlink:href="#DejaVuSans-48"/>
      </g>
     </g>
    </g>
    <g id="text_11">
     <!-- Reached region coverage -->
     <g transform="translate(14.798438 219.136625)rotate(-90)scale(0.1 -0.1)">
      <defs>
       <path d="M 44.390625 34.1875 
Q 47.5625 33.109375 50.5625 29.59375 
Q 53.5625 26.078125 56.59375 19.921875 
L 66.609375 0 
L 56 0 
L 46.6875 18.703125 
Q 43.0625 26.03125 39.671875 28.421875 
Q 36.28125 30.8125 30.421875 30.8125 
L 19.671875 30.8125 
L 19.671875 0 
L 9.8125 0 
L 9.8125 72.90625 
L 32.078125 72.90625 
Q 44.578125 72.90625 50.734375 67.671875 
Q 56.890625 62.453125 56.890625 51.90625 
Q 56.890625 45.015625 53.6875 40.46875 
Q 50.484375 35.9375 44.390625 34.1875 
z
M 19.671875 64.796875 
L 19.671875 38.921875 
L 32.078125 38.921875 
Q 39.203125 38.921875 42.84375 42.21875 
Q 46.484375 45.515625 46.484375 51.90625 
Q 46.484375 58.296875 42.84375 61.546875 
Q 39.203125 64.796875 32.078125 64.796875 
z
" id="DejaVuSans-82"/>
      </defs>
      <use xlink:href="#DejaVuSans-82"/>
      <use x="64.982422" xlink:href="#DejaVuSans-101"/>
      <use x="126.505859" xlink:href="#DejaVuSans-97"/>
      <use x="187.785156" xlink:href="#DejaVuSans-99"/>
      <use x="242.765625" xlink:href="#DejaVuSans-104"/>
      <use x="306.144531" xlink:href="#DejaVuSans-101"/>
      <use x="367.667969" xlink:href="#DejaVuSans-100"/>
      <use x="431.144531" xlink:href="#DejaVuSans-32"/>
      <use x="462.931641" xlink:href="#DejaVuSans-114"/>
      <use x="501.794922" xlink:href="#DejaVuSans-101"/>
      <use x="563.318359" xlink:href="#DejaVuSans-103"/>
      <use x="626.794922" xlink:href="#DejaVuSans-105"/>
      <use x="654.578125" xlink:href="#DejaVuSans-111"/>
      <use x="715.759766" xlink:href="#DejaVuSans-110"/>
      <use x="779.138672" xlink:href="#DejaVuSans-32"/>
      <use x="810.925781" xlink:href="#DejaVuSans-99"/>
      <use x="865.90625" xlink:href="#DejaVuSans-111"/>
      <use x="927.087891" xlink:href="#DejaVuSans-118"/>
      <use x="986.267578" xlink:href="#DejaVuSans-101"/>
      <use x="1047.791016" xlink:href="#DejaVuSans-114"/>
      <use x="1088.904297" xlink:href="#DejaVuSans-97"/>
      <use x="1150.183594" xlink:href="#DejaVuSans-103"/>
      <use x="1213.660156" xlink:href="#DejaVuSans-101"/>
     </g>
    </g>
   </g>
   <g id="line2d_10">
    <path clip-path="url(#pf6d2ece3c7)" d="M 97.968125 207.824599 
L 97.968125 102.923651 
" style="fill:none;stroke:#3f3f3f;stroke-linecap:square;stroke-width:1.5;"/>
   </g>
   <g id="line2d_11">
    <path clip-path="url(#pf6d2ece3c7)" d="M 97.968125 154.062863 
L 97.968125 102.923651 
" style="fill:none;stroke:#3f3f3f;stroke-linecap:square;stroke-width:4.5;"/>
   </g>
   <g id="line2d_12">
    <path clip-path="url(#pf6d2ece3c7)" d="M 187.248125 105.546175 
L 187.248125 102.923651 
" style="fill:none;stroke:#3f3f3f;stroke-linecap:square;stroke-width:1.5;"/>
   </g>
   <g id="line2d_13">
    <path clip-path="url(#pf6d2ece3c7)" d="M 187.248125 104.234913 
L 187.248125 102.923651 
" style="fill:none;stroke:#3f3f3f;stroke-linecap:square;stroke-width:4.5;"/>
   </g>
   <g id="line2d_14">
    <path clip-path="url(#pf6d2ece3c7)" d="M 276.528125 102.923651 
L 276.528125 100.301127 
" style="fill:none;stroke:#3f3f3f;stroke-linecap:square;stroke-width:1.5;"/>
   </g>
   <g id="line2d_15">
    <path clip-path="url(#pf6d2ece3c7)" d="M 276.528125 102.923651 
L 276.528125 101.612389 
" style="fill:none;stroke:#3f3f3f;stroke-linecap:square;stroke-width:4.5;"/>
   </g>
   <g id="line2d_16">
    <path clip-path="url(#pf6d2ece3c7)" d="M 365.808125 102.923651 
L 365.808125 102.923651 
" style="fill:none;stroke:#3f3f3f;stroke-linecap:square;stroke-width:1.5;"/>
   </g>
   <g id="line2d_17">
    <path clip-path="url(#pf6d2ece3c7)" d="M 365.808125 102.923651 
L 365.808125 102.923651 
" style="fill:none;stroke:#3f3f3f;stroke-linecap:square;stroke-width:4.5;"/>
   </g>
   <g id="patch_3">
    <path d="M 53.328125 283.877786 
L 53.328125 74.075891 
" style="fill:none;stroke:#000000;stroke-linecap:square;stroke-linejoin:miter;stroke-width:0.8;"/>
   </g>
   <g id="patch_4">
    <path d="M 97.968125 288.430125 
L 365.808125 288.430125 
" style="fill:none;stroke:#000000;stroke-linecap:square;stroke-linejoin:miter;stroke-width:0.8;"/>
   </g>
   <g id="PathCollection_1">
    <defs>
     <path d="M 0 1.5 
C 0.397805 1.5 0.77937 1.341951 1.06066 1.06066 
C 1.341951 0.77937 1.5 0.397805 1.5 0 
C 1.5 -0.397805 1.341951 -0.77937 1.06066 -1.06066 
C 0.77937 -1.341951 0.397805 -1.5 0 -1.5 
C -0.397805 -1.5 -0.77937 -1.341951 -1.06066 -1.06066 
C -1.341951 -0.77937 -1.5 -0.397805 -1.5 0 
C -1.5 0.397805 -1.341951 0.77937 -1.06066 1.06066 
C -0.77937 1.341951 -0.397805 1.5 0 1.5 
z
" id="mc8dc059e16" style="stroke:#3f3f3f;"/>
    </defs>
    <g clip-path="url(#pf6d2ece3c7)">
     <use style="fill:#ffffff;stroke:#3f3f3f;" x="97.968125" xlink:href="#mc8dc059e16" y="102.923651"/>
    </g>
   </g>
   <g id="PathCollection_2">
    <g clip-path="url(#pf6d2ece3c7)">
     <use style="fill:#ffffff;stroke:#3f3f3f;" x="187.248125" xlink:href="#mc8dc059e16" y="102.923651"/>
    </g>
   </g>
   <g id="PathCollection_3">
    <g clip-path="url(#pf6d2ece3c7)">
     <use style="fill:#ffffff;stroke:#3f3f3f;" x="276.528125" xlink:href="#mc8dc059e16" y="102.923651"/>
    </g>
   </g>
   <g id="PathCollection_4">
    <g clip-path="url(#pf6d2ece3c7)">
     <use style="fill:#ffffff;stroke:#3f3f3f;" x="365.808125" xlink:href="#mc8dc059e16" y="102.923651"/>
    </g>
   </g>
   <g id="text_12">
    <!-- libpng-1.2.56 (22h:45m, 7 trials/fuzzer) -->
    <g transform="translate(113.66375 16.318125)scale(0.12 -0.12)">
     <defs>
      <path d="M 48.6875 27.296875 
Q 48.6875 37.203125 44.609375 42.84375 
Q 40.53125 48.484375 33.40625 48.484375 
Q 26.265625 48.484375 22.1875 42.84375 
Q 18.109375 37.203125 18.109375 27.296875 
Q 18.109375 17.390625 22.1875 11.75 
Q 26.265625 6.109375 33.40625 6.109375 
Q 40.53125 6.109375 44.609375 11.75 
Q 48.6875 17.390625 48.6875 27.296875 
z
M 18.109375 46.390625 
Q 20.953125 51.265625 25.265625 53.625 
Q 29.59375 56 35.59375 56 
Q 45.5625 56 51.78125 48.09375 
Q 58.015625 40.1875 58.015625 27.296875 
Q 58.015625 14.40625 51.78125 6.484375 
Q 45.5625 -1.421875 35.59375 -1.421875 
Q 29.59375 -1.421875 25.265625 0.953125 
Q 20.953125 3.328125 18.109375 8.203125 
L 18.109375 0 
L 9.078125 0 
L 9.078125 75.984375 
L 18.109375 75.984375 
z
" id="DejaVuSans-98"/>
      <path d="M 4.890625 31.390625 
L 31.203125 31.390625 
L 31.203125 23.390625 
L 4.890625 23.390625 
z
" id="DejaVuSans-45"/>
      <path d="M 10.6875 12.40625 
L 21 12.40625 
L 21 0 
L 10.6875 0 
z
" id="DejaVuSans-46"/>
      <path d="M 11.71875 12.40625 
L 22.015625 12.40625 
L 22.015625 0 
L 11.71875 0 
z
M 11.71875 51.703125 
L 22.015625 51.703125 
L 22.015625 39.3125 
L 11.71875 39.3125 
z
" id="DejaVuSans-58"/>
      <path d="M 11.71875 12.40625 
L 22.015625 12.40625 
L 22.015625 4 
L 14.015625 -11.625 
L 7.71875 -11.625 
L 11.71875 4 
z
" id="DejaVuSans-44"/>
      <path d="M 8.203125 72.90625 
L 55.078125 72.90625 
L 55.078125 68.703125 
L 28.609375 0 
L 18.3125 0 
L 43.21875 64.59375 
L 8.203125 64.59375 
z
" id="DejaVuSans-55"/>
      <path d="M 25.390625 72.90625 
L 33.6875 72.90625 
L 8.296875 -9.28125 
L 0 -9.28125 
z
" id="DejaVuSans-47"/>
     </defs>
     <use xlink:href="#DejaVuSans-108"/>
     <use x="27.783203" xlink:href="#DejaVuSans-105"/>
     <use x="55.566406" xlink:href="#DejaVuSans-98"/>
     <use x="119.042969" xlink:href="#DejaVuSans-112"/>
     <use x="182.519531" xlink:href="#DejaVuSans-110"/>
     <use x="245.898438" xlink:href="#DejaVuSans-103"/>
     <use x="309.375" xlink:href="#DejaVuSans-45"/>
     <use x="345.458984" xlink:href="#DejaVuSans-49"/>
     <use x="409.082031" xlink:href="#DejaVuSans-46"/>
     <use x="440.869141" xlink:href="#DejaVuSans-50"/>
     <use x="504.492188" xlink:href="#DejaVuSans-46"/>
     <use x="536.279297" xlink:href="#DejaVuSans-53"/>
     <use x="599.902344" xlink:href="#DejaVuSans-54"/>
     <use x="663.525391" xlink:href="#DejaVuSans-32"/>
     <use x="695.3125" xlink:href="#DejaVuSans-40"/>
     <use x="734.326172" xlink:href="#DejaVuSans-50"/>
     <use x="797.949219" xlink:href="#DejaVuSans-50"/>
     <use x="861.572266" xlink:href="#DejaVuSans-104"/>
     <use x="924.951172" xlink:href="#DejaVuSans-58"/>
     <use x="958.642578" xlink:href="#DejaVuSans-52"/>
     <use x="1022.265625" xlink:href="#DejaVuSans-53"/>
     <use x="1085.888672" xlink:href="#DejaVuSans-109"/>
     <use x="1183.300781" xlink:href="#DejaVuSans-44"/>
     <use x="1215.087891" xlink:href="#DejaVuSans-32"/>
     <use x="1246.875" xlink:href="#DejaVuSans-55"/>
     <use x="1310.498047" xlink:href="#DejaVuSans-32"/>
     <use x="1342.285156" xlink:href="#DejaVuSans-116"/>
     <use x="1381.494141" xlink:href="#DejaVuSans-114"/>
     <use x="1422.607422" xlink:href="#DejaVuSans-105"/>
     <use x="1450.390625" xlink:href="#DejaVuSans-97"/>
     <use x="1511.669922" xlink:href="#DejaVuSans-108"/>
     <use x="1539.453125" xlink:href="#DejaVuSans-115"/>
     <use x="1591.552734" xlink:href="#DejaVuSans-47"/>
     <use x="1625.244141" xlink:href="#DejaVuSans-102"/>
     <use x="1660.449219" xlink:href="#DejaVuSans-117"/>
     <use x="1723.828125" xlink:href="#DejaVuSans-122"/>
     <use x="1776.318359" xlink:href="#DejaVuSans-122"/>
     <use x="1828.808594" xlink:href="#DejaVuSans-101"/>
     <use x="1890.332031" xlink:href="#DejaVuSans-114"/>
     <use x="1931.445312" xlink:href="#DejaVuSans-41"/>
    </g>
   </g>
  </g>
 </g>
 <defs>
  <clipPath id="pf6d2ece3c7">
   <rect height="266.112" width="357.12" x="53.328125" y="22.318125"/>
  </clipPath>
 </defs>
</svg>
