<?xml version="1.0" encoding="utf-8" standalone="no"?>
<!DOCTYPE svg PUBLIC "-//W3C//DTD SVG 1.1//EN"
  "http://www.w3.org/Graphics/SVG/1.1/DTD/svg11.dtd">
<!-- Created with matplotlib (https://matplotlib.org/) -->
<svg height="325.986375pt" version="1.1" viewBox="0 0 874.025937 325.986375" width="874.025937pt" xmlns="http://www.w3.org/2000/svg" xmlns:xlink="http://www.w3.org/1999/xlink">
 <metadata>
  <rdf:RDF xmlns:cc="http://creativecommons.org/ns#" xmlns:dc="http://purl.org/dc/elements/1.1/" xmlns:rdf="http://www.w3.org/1999/02/22-rdf-syntax-ns#">
   <cc:Work>
    <dc:type rdf:resource="http://purl.org/dc/dcmitype/StillImage"/>
    <dc:date>2020-08-08T10:44:12.372880</dc:date>
    <dc:format>image/svg+xml</dc:format>
    <dc:creator>
     <cc:Agent>
      <dc:title>Matplotlib v3.3.0, https://matplotlib.org/</dc:title>
     </cc:Agent>
    </dc:creator>
   </cc:Work>
  </rdf:RDF>
 </metadata>
 <defs>
  <style type="text/css">*{stroke-linecap:butt;stroke-linejoin:round;}</style>
 </defs>
 <g id="figure_1">
  <g id="patch_1">
   <path d="M 0 325.986375 
L 874.025938 325.986375 
L 874.025938 0 
L 0 0 
z
" style="fill:#ffffff;"/>
  </g>
  <g id="axes_1">
   <g id="patch_2">
    <path d="M 53.328125 288.430125 
L 767.568125 288.430125 
L 767.568125 22.318125 
L 53.328125 22.318125 
z
" style="fill:#ffffff;"/>
   </g>
   <g id="PolyCollection_1">
    <defs>
     <path d="M 85.79358 -210.202601 
L 85.79358 -180.635816 
L 92.628412 -187.600579 
L 99.463245 -192.106129 
L 106.298077 -200.92794 
L 113.13291 -208.294234 
L 119.967742 -217.335249 
L 126.802575 -232.504699 
L 133.637407 -235.75408 
L 140.47224 -236.610266 
L 147.307072 -243.150031 
L 154.141905 -244.764664 
L 160.976737 -244.9555 
L 167.81157 -245.068971 
L 174.646403 -245.233503 
L 181.481235 -247.038972 
L 188.316068 -250.969434 
L 195.1509 -252.743183 
L 201.985733 -254.301338 
L 208.820565 -254.908921 
L 215.655398 -255.415412 
L 222.49023 -255.590775 
L 229.325063 -255.632037 
L 236.159895 -255.827515 
L 242.994728 -256.127181 
L 249.82956 -257.002966 
L 256.664393 -257.591981 
L 263.499225 -258.035547 
L 270.334058 -258.168617 
L 277.168891 -260.386964 
L 284.003723 -260.59379 
L 290.838556 -260.748522 
L 297.673388 -261.057987 
L 304.508221 -262.027643 
L 311.343053 -261.831649 
L 318.177886 -262.450579 
L 325.012718 -262.285531 
L 331.847551 -262.037959 
L 338.682383 -262.715945 
L 345.517216 -262.440263 
L 352.352048 -262.49184 
L 359.186881 -262.356965 
L 366.021714 -262.842309 
L 372.856546 -262.365991 
L 379.691379 -262.614079 
L 386.526211 -263.420235 
L 393.361044 -264.04948 
L 400.195876 -263.63686 
L 407.030709 -263.882885 
L 413.865541 -264.25579 
L 420.700374 -264.635916 
L 427.535206 -264.635916 
L 434.370039 -264.658094 
L 441.204871 -265.091345 
L 448.039704 -265.03822 
L 454.874536 -265.655603 
L 461.709369 -265.565858 
L 468.544202 -265.706664 
L 475.379034 -265.916585 
L 482.213867 -266.374592 
L 489.048699 -265.782483 
L 495.883532 -265.83896 
L 502.718364 -265.905753 
L 509.553197 -265.648382 
L 516.388029 -265.947531 
L 523.222862 -266.525199 
L 530.057694 -266.293358 
L 536.892527 -266.556145 
L 543.727359 -266.349835 
L 550.562192 -266.514883 
L 557.397025 -266.521846 
L 564.231857 -266.33952 
L 571.06669 -267.01699 
L 577.901522 -266.814033 
L 584.736355 -266.679931 
L 591.571187 -266.556145 
L 598.40602 -266.824348 
L 605.240852 -268.028424 
L 612.075685 -267.329807 
L 618.910517 -267.505171 
L 625.74535 -267.706323 
L 632.580182 -267.616062 
L 639.415015 -267.701165 
L 646.249847 -268.159431 
L 653.08468 -268.180835 
L 659.919513 -267.773373 
L 666.754345 -268.067365 
L 673.589178 -267.876528 
L 680.42401 -268.665664 
L 687.258843 -268.464512 
L 694.093675 -268.516089 
L 700.928508 -268.317774 
L 707.76334 -268.557351 
L 714.598173 -269.289751 
L 721.433005 -268.392303 
L 728.267838 -268.619244 
L 735.10267 -268.443881 
L 735.10267 -291.57225 
L 735.10267 -291.57225 
L 728.267838 -290.686149 
L 721.433005 -289.724745 
L 714.598173 -290.271466 
L 707.76334 -290.019252 
L 700.928508 -291.127652 
L 694.093675 -291.06318 
L 687.258843 -290.14768 
L 680.42401 -290.35399 
L 673.589178 -289.951686 
L 666.754345 -290.356311 
L 659.919513 -289.582391 
L 653.08468 -289.662852 
L 646.249847 -290.137365 
L 639.415015 -289.539582 
L 632.580182 -289.466858 
L 625.74535 -287.913344 
L 618.910517 -289.932602 
L 612.075685 -289.384334 
L 605.240852 -289.36886 
L 598.40602 -289.495999 
L 591.571187 -289.161519 
L 584.736355 -288.808213 
L 577.901522 -288.940767 
L 571.06669 -288.662507 
L 564.231857 -288.342727 
L 557.397025 -288.198052 
L 550.562192 -287.859188 
L 543.727359 -287.971111 
L 536.892527 -287.176818 
L 530.057694 -287.465652 
L 523.222862 -287.037301 
L 516.388029 -287.228395 
L 509.553197 -286.172862 
L 502.718364 -286.774514 
L 495.883532 -286.124638 
L 489.048699 -286.227792 
L 482.213867 -286.693279 
L 475.379034 -285.9632 
L 468.544202 -284.546367 
L 461.709369 -284.577313 
L 454.874536 -284.020277 
L 448.039704 -283.793852 
L 441.204871 -284.494789 
L 434.370039 -283.370401 
L 427.535206 -284.123432 
L 420.700374 -284.061539 
L 413.865541 -283.772705 
L 407.030709 -282.875257 
L 400.195876 -283.236299 
L 393.361044 -282.483268 
L 386.526211 -278.533981 
L 379.691379 -276.417758 
L 372.856546 -276.510597 
L 366.021714 -275.789286 
L 359.186881 -275.321994 
L 352.352048 -276.242394 
L 345.517216 -275.727135 
L 338.682383 -275.386208 
L 331.847551 -275.355777 
L 325.012718 -275.606186 
L 318.177886 -275.468732 
L 311.343053 -275.159267 
L 304.508221 -274.932326 
L 297.673388 -274.241188 
L 290.838556 -274.35569 
L 284.003723 -274.313397 
L 277.168891 -273.488157 
L 270.334058 -271.221843 
L 263.499225 -271.23938 
L 256.664393 -270.754551 
L 249.82956 -271.2417 
L 242.994728 -270.218146 
L 236.159895 -270.641081 
L 229.325063 -269.458409 
L 222.49023 -268.196309 
L 215.655398 -268.363678 
L 208.820565 -267.866213 
L 201.985733 -267.475256 
L 195.1509 -266.320694 
L 188.316068 -265.658697 
L 181.481235 -258.448425 
L 174.646403 -257.437248 
L 167.81157 -257.595075 
L 160.976737 -256.650434 
L 154.141905 -257.375355 
L 147.307072 -256.819866 
L 140.47224 -255.539197 
L 133.637407 -253.548307 
L 126.802575 -251.52647 
L 119.967742 -246.39967 
L 113.13291 -241.066559 
L 106.298077 -232.659689 
L 99.463245 -225.407639 
L 92.628412 -220.003867 
L 85.79358 -210.202601 
z
" id="m35662e4641" style="stroke:#ffbb78;stroke-opacity:0.2;"/>
    </defs>
    <g clip-path="url(#pc28090265c)">
     <use style="fill:#ffbb78;fill-opacity:0.2;stroke:#ffbb78;stroke-opacity:0.2;" x="0" xlink:href="#m35662e4641" y="325.986375"/>
    </g>
   </g>
   <g id="PolyCollection_2">
    <defs>
     <path d="M 85.79358 -173.099574 
L 85.79358 -167.455193 
L 92.628412 -171.250263 
L 99.463245 -171.777385 
L 106.298077 -171.403706 
L 113.13291 -174.013526 
L 119.967742 -175.108258 
L 126.802575 -177.728136 
L 133.637407 -179.400535 
L 140.47224 -182.907803 
L 147.307072 -187.249853 
L 154.141905 -193.17172 
L 160.976737 -194.171807 
L 167.81157 -196.235422 
L 174.646403 -199.873439 
L 181.481235 -202.453602 
L 188.316068 -201.888312 
L 195.1509 -202.423944 
L 201.985733 -203.421453 
L 208.820565 -206.158927 
L 215.655398 -206.581862 
L 222.49023 -207.056375 
L 229.325063 -207.747513 
L 236.159895 -208.21171 
L 242.994728 -208.26303 
L 249.82956 -207.489626 
L 256.664393 -208.912648 
L 263.499225 -208.201395 
L 270.334058 -209.056807 
L 277.168891 -209.44957 
L 284.003723 -209.818864 
L 290.838556 -209.97566 
L 297.673388 -209.893136 
L 304.508221 -210.285125 
L 311.343053 -210.450173 
L 318.177886 -211.1475 
L 325.012718 -210.501492 
L 331.847551 -211.461091 
L 338.682383 -212.078215 
L 345.517216 -212.038759 
L 352.352048 -212.28272 
L 359.186881 -212.521008 
L 366.021714 -212.977469 
L 372.856546 -213.101255 
L 379.691379 -212.647373 
L 386.526211 -213.276618 
L 393.361044 -213.736947 
L 400.195876 -213.029046 
L 407.030709 -213.17991 
L 413.865541 -213.88059 
L 420.700374 -214.626142 
L 427.535206 -214.531756 
L 434.370039 -215.441324 
L 441.204871 -214.978674 
L 448.039704 -216.492989 
L 454.874536 -216.832369 
L 461.709369 -216.86512 
L 468.544202 -217.897959 
L 475.379034 -218.39104 
L 482.213867 -219.465914 
L 489.048699 -219.971374 
L 495.883532 -220.260207 
L 502.718364 -220.37342 
L 509.553197 -221.064816 
L 516.388029 -221.683746 
L 523.222862 -221.371702 
L 530.057694 -221.456805 
L 536.892527 -224.943442 
L 543.727359 -224.334828 
L 550.562192 -224.936479 
L 557.397025 -224.860918 
L 564.231857 -225.375145 
L 571.06669 -225.252907 
L 577.901522 -225.644895 
L 584.736355 -225.809943 
L 591.571187 -225.42827 
L 598.40602 -229.140301 
L 605.240852 -229.141848 
L 612.075685 -231.400683 
L 618.910517 -231.153369 
L 625.74535 -231.203399 
L 632.580182 -231.287471 
L 639.415015 -231.67946 
L 646.249847 -231.698543 
L 653.08468 -232.050817 
L 659.919513 -231.760694 
L 666.754345 -232.13231 
L 673.589178 -233.030273 
L 680.42401 -236.329942 
L 687.258843 -236.362694 
L 694.093675 -236.527742 
L 700.928508 -236.608203 
L 707.76334 -236.445218 
L 714.598173 -236.930046 
L 721.433005 -237.177618 
L 728.267838 -237.547944 
L 735.10267 -238.114007 
L 735.10267 -253.507045 
L 735.10267 -253.507045 
L 728.267838 -253.264115 
L 721.433005 -252.467243 
L 714.598173 -252.197493 
L 707.76334 -251.73278 
L 700.928508 -250.499047 
L 694.093675 -251.443946 
L 687.258843 -250.38145 
L 680.42401 -251.780747 
L 673.589178 -250.812896 
L 666.754345 -249.752205 
L 659.919513 -250.093648 
L 653.08468 -250.012156 
L 646.249847 -250.102932 
L 639.415015 -249.772836 
L 632.580182 -250.26798 
L 625.74535 -250.041039 
L 618.910517 -248.440848 
L 612.075685 -248.452453 
L 605.240852 -246.997968 
L 598.40602 -246.865156 
L 591.571187 -244.92378 
L 584.736355 -245.337174 
L 577.901522 -245.659533 
L 571.06669 -245.111522 
L 564.231857 -245.151495 
L 557.397025 -246.339582 
L 550.562192 -245.430013 
L 543.727359 -245.172126 
L 536.892527 -245.533168 
L 530.057694 -244.088999 
L 523.222862 -242.218026 
L 516.388029 -243.439123 
L 509.553197 -242.305708 
L 502.718364 -242.318344 
L 495.883532 -241.210976 
L 489.048699 -241.61328 
L 482.213867 -241.283185 
L 475.379034 -239.50892 
L 468.544202 -238.515022 
L 461.709369 -238.621787 
L 454.874536 -237.910018 
L 448.039704 -237.735944 
L 441.204871 -237.85844 
L 434.370039 -236.940362 
L 427.535206 -236.376362 
L 420.700374 -236.538057 
L 413.865541 -236.311116 
L 407.030709 -236.456307 
L 400.195876 -236.249223 
L 393.361044 -235.671556 
L 386.526211 -234.908209 
L 379.691379 -234.016693 
L 372.856546 -232.878636 
L 366.021714 -232.515015 
L 359.186881 -230.307499 
L 352.352048 -230.349534 
L 345.517216 -229.750462 
L 338.682383 -229.610429 
L 331.847551 -229.874248 
L 325.012718 -228.114425 
L 318.177886 -228.368186 
L 311.343053 -227.842611 
L 304.508221 -227.275517 
L 297.673388 -226.944648 
L 290.838556 -226.635183 
L 284.003723 -227.19222 
L 277.168891 -226.346349 
L 270.334058 -226.717707 
L 263.499225 -225.232276 
L 256.664393 -225.500479 
L 249.82956 -224.211042 
L 242.994728 -223.282647 
L 236.159895 -223.01496 
L 229.325063 -222.120091 
L 222.49023 -221.695866 
L 215.655398 -221.013239 
L 208.820565 -220.518095 
L 201.985733 -219.940427 
L 195.1509 -218.33121 
L 188.316068 -218.083638 
L 181.481235 -217.671018 
L 174.646403 -215.571042 
L 167.81157 -211.85308 
L 160.976737 -208.531749 
L 154.141905 -206.561747 
L 147.307072 -203.736591 
L 140.47224 -201.850661 
L 133.637407 -199.453856 
L 126.802575 -199.309439 
L 119.967742 -198.133473 
L 113.13291 -197.824008 
L 106.298077 -196.317946 
L 99.463245 -196.881687 
L 92.628412 -193.092033 
L 85.79358 -173.099574 
z
" id="m232a6cc3c2" style="stroke:#1f77b4;stroke-opacity:0.2;"/>
    </defs>
    <g clip-path="url(#pc28090265c)">
     <use style="fill:#1f77b4;fill-opacity:0.2;stroke:#1f77b4;stroke-opacity:0.2;" x="0" xlink:href="#m232a6cc3c2" y="325.986375"/>
    </g>
   </g>
   <g id="PolyCollection_3">
    <defs>
     <path d="M 85.79358 -169.879334 
L 85.79358 -152.454917 
L 92.628412 -156.572089 
L 99.463245 -159.873047 
L 106.298077 -162.49344 
L 113.13291 -169.435768 
L 119.967742 -171.811942 
L 126.802575 -173.715151 
L 133.637407 -186.60075 
L 140.47224 -189.406565 
L 147.307072 -189.828468 
L 154.141905 -190.138191 
L 160.976737 -192.602563 
L 167.81157 -193.61116 
L 174.646403 -194.749991 
L 181.481235 -195.440871 
L 188.316068 -196.768217 
L 195.1509 -199.732374 
L 201.985733 -201.08293 
L 208.820565 -201.486008 
L 215.655398 -202.092559 
L 222.49023 -204.083965 
L 229.325063 -204.31168 
L 236.159895 -207.622954 
L 242.994728 -207.953823 
L 249.82956 -209.830985 
L 256.664393 -210.386217 
L 263.499225 -211.285728 
L 270.334058 -211.284438 
L 277.168891 -212.544218 
L 284.003723 -213.338511 
L 290.838556 -214.276447 
L 297.673388 -214.492815 
L 304.508221 -214.627948 
L 311.343053 -218.082091 
L 318.177886 -218.691479 
L 325.012718 -218.813459 
L 331.847551 -218.991402 
L 338.682383 -219.599758 
L 345.517216 -220.022951 
L 352.352048 -219.857903 
L 359.186881 -221.826873 
L 366.021714 -221.936991 
L 372.856546 -222.70498 
L 379.691379 -224.334312 
L 386.526211 -224.912495 
L 393.361044 -225.056912 
L 400.195876 -225.467727 
L 407.030709 -226.067831 
L 413.865541 -228.254458 
L 420.700374 -228.65702 
L 427.535206 -228.811752 
L 434.370039 -228.77049 
L 441.204871 -229.172279 
L 448.039704 -229.676706 
L 454.874536 -230.616964 
L 461.709369 -230.771696 
L 468.544202 -231.039383 
L 475.379034 -231.38031 
L 482.213867 -231.349364 
L 489.048699 -232.20555 
L 495.883532 -232.286784 
L 502.718364 -232.876057 
L 509.553197 -232.834279 
L 516.388029 -233.226784 
L 523.222862 -233.328391 
L 530.057694 -233.401631 
L 536.892527 -233.391832 
L 543.727359 -233.453209 
L 550.562192 -233.660034 
L 557.397025 -233.587826 
L 564.231857 -233.647914 
L 571.06669 -233.938553 
L 577.901522 -234.010761 
L 584.736355 -234.020303 
L 591.571187 -234.031392 
L 598.40602 -233.979815 
L 605.240852 -233.948868 
L 612.075685 -234.000446 
L 618.910517 -234.051765 
L 625.74535 -234.144863 
L 632.580182 -234.505905 
L 639.415015 -234.60906 
L 646.249847 -234.835485 
L 653.08468 -234.784423 
L 659.919513 -234.814596 
L 666.754345 -235.011364 
L 673.589178 -234.908209 
L 680.42401 -234.969328 
L 687.258843 -234.979902 
L 694.093675 -235.331144 
L 700.928508 -235.392522 
L 707.76334 -235.527139 
L 714.598173 -235.650409 
L 721.433005 -236.156384 
L 728.267838 -236.946809 
L 735.10267 -236.538057 
L 735.10267 -245.203072 
L 735.10267 -245.203072 
L 728.267838 -245.027709 
L 721.433005 -244.278288 
L 714.598173 -244.099314 
L 707.76334 -244.10963 
L 700.928508 -244.377833 
L 694.093675 -243.969081 
L 687.258843 -243.670448 
L 680.42401 -243.676379 
L 673.589178 -243.914409 
L 666.754345 -243.263759 
L 659.919513 -243.338289 
L 653.08468 -242.907875 
L 646.249847 -243.253444 
L 639.415015 -243.016188 
L 632.580182 -242.772226 
L 625.74535 -242.500671 
L 618.910517 -242.769131 
L 612.075685 -242.366311 
L 605.240852 -242.325049 
L 598.40602 -242.087793 
L 591.571187 -242.139371 
L 584.736355 -242.057362 
L 577.901522 -242.572621 
L 571.06669 -241.953692 
L 564.231857 -241.769818 
L 557.397025 -241.717725 
L 550.562192 -241.633911 
L 543.727359 -241.386339 
L 536.892527 -241.386339 
L 530.057694 -241.169714 
L 523.222862 -241.035613 
L 516.388029 -240.533248 
L 509.553197 -240.581731 
L 502.718364 -240.338027 
L 495.883532 -240.337254 
L 489.048699 -239.94217 
L 482.213867 -239.962801 
L 475.379034 -239.900908 
L 468.544202 -239.178824 
L 461.709369 -239.158193 
L 454.874536 -239.591444 
L 448.039704 -238.818297 
L 441.204871 -238.198852 
L 434.370039 -238.233924 
L 427.535206 -237.693393 
L 420.700374 -237.428542 
L 413.865541 -237.476767 
L 407.030709 -236.488543 
L 400.195876 -235.848209 
L 393.361044 -235.160165 
L 386.526211 -234.765855 
L 379.691379 -235.155781 
L 372.856546 -234.446333 
L 366.021714 -228.079352 
L 359.186881 -227.460422 
L 352.352048 -227.037487 
L 345.517216 -226.60501 
L 338.682383 -226.501081 
L 331.847551 -226.067831 
L 325.012718 -225.327694 
L 318.177886 -224.541138 
L 311.343053 -224.211042 
L 304.508221 -221.838478 
L 297.673388 -221.312388 
L 290.838556 -221.178544 
L 284.003723 -220.518611 
L 277.168891 -220.012894 
L 270.334058 -219.723802 
L 263.499225 -219.281009 
L 256.664393 -218.847758 
L 249.82956 -218.630359 
L 242.994728 -216.990196 
L 236.159895 -216.623996 
L 229.325063 -215.391294 
L 222.49023 -214.824716 
L 215.655398 -213.433929 
L 208.820565 -212.214122 
L 201.985733 -211.079418 
L 195.1509 -209.635249 
L 188.316068 -205.593638 
L 181.481235 -205.405896 
L 174.646403 -204.931899 
L 167.81157 -203.98571 
L 160.976737 -199.651655 
L 154.141905 -197.528211 
L 147.307072 -196.668672 
L 140.47224 -195.451444 
L 133.637407 -192.872571 
L 126.802575 -190.603162 
L 119.967742 -189.850131 
L 113.13291 -188.686027 
L 106.298077 -184.981218 
L 99.463245 -183.248215 
L 92.628412 -180.689972 
L 85.79358 -169.879334 
z
" id="me441f814ab" style="stroke:#aec7e8;stroke-opacity:0.2;"/>
    </defs>
    <g clip-path="url(#pc28090265c)">
     <use style="fill:#aec7e8;fill-opacity:0.2;stroke:#aec7e8;stroke-opacity:0.2;" x="0" xlink:href="#me441f814ab" y="325.986375"/>
    </g>
   </g>
   <g id="PolyCollection_4">
    <defs>
     <path d="M 85.79358 -165.433356 
L 85.79358 -49.65225 
L 92.628412 -153.828425 
L 99.463245 -156.918947 
L 106.298077 -161.251713 
L 113.13291 -165.794398 
L 119.967742 -173.289379 
L 126.802575 -178.564207 
L 133.637407 -179.874532 
L 140.47224 -181.855623 
L 147.307072 -182.753071 
L 154.141905 -183.87746 
L 160.976737 -185.538254 
L 167.81157 -186.672959 
L 174.646403 -187.145924 
L 181.481235 -187.85924 
L 188.316068 -188.767004 
L 195.1509 -190.582531 
L 201.985733 -192.241262 
L 208.820565 -193.330063 
L 215.655398 -193.811281 
L 222.49023 -195.100717 
L 229.325063 -195.625002 
L 236.159895 -197.04003 
L 242.994728 -198.638158 
L 249.82956 -199.381647 
L 256.664393 -200.052154 
L 263.499225 -200.732977 
L 270.334058 -202.588477 
L 277.168891 -202.76023 
L 284.003723 -204.269386 
L 290.838556 -204.75602 
L 297.673388 -205.512661 
L 304.508221 -205.405896 
L 311.343053 -206.08285 
L 318.177886 -206.32088 
L 325.012718 -206.076403 
L 331.847551 -208.004369 
L 338.682383 -208.541806 
L 345.517216 -209.004972 
L 352.352048 -209.067896 
L 359.186881 -209.212313 
L 366.021714 -209.066607 
L 372.856546 -209.748719 
L 379.691379 -209.809323 
L 386.526211 -209.955029 
L 393.361044 -210.047868 
L 400.195876 -210.841903 
L 407.030709 -211.192888 
L 413.865541 -211.430145 
L 420.700374 -211.657085 
L 427.535206 -211.997239 
L 434.370039 -212.028443 
L 441.204871 -210.047868 
L 448.039704 -212.533645 
L 454.874536 -212.595795 
L 461.709369 -213.049419 
L 468.544202 -213.491954 
L 475.379034 -213.399372 
L 482.213867 -213.502527 
L 489.048699 -215.503733 
L 495.883532 -215.834861 
L 502.718364 -214.91575 
L 509.553197 -216.429291 
L 516.388029 -216.687694 
L 523.222862 -216.691047 
L 530.057694 -216.742624 
L 536.892527 -216.54663 
L 543.727359 -216.825148 
L 550.562192 -217.113982 
L 557.397025 -219.744433 
L 564.231857 -219.38339 
L 571.06669 -219.961058 
L 577.901522 -220.064213 
L 584.736355 -220.318232 
L 591.571187 -220.52841 
L 598.40602 -220.672827 
L 605.240852 -220.910084 
L 612.075685 -220.775982 
L 618.910517 -220.765667 
L 625.74535 -221.094989 
L 632.580182 -221.617211 
L 639.415015 -221.745639 
L 646.249847 -222.116996 
L 653.08468 -222.282044 
L 659.919513 -223.371361 
L 666.754345 -225.89943 
L 673.589178 -226.613778 
L 680.42401 -226.190327 
L 687.258843 -226.923759 
L 694.093675 -226.913701 
L 700.928508 -226.924017 
L 707.76334 -227.089065 
L 714.598173 -226.738338 
L 721.433005 -226.68676 
L 728.267838 -227.233482 
L 735.10267 -227.336636 
L 735.10267 -240.545111 
L 735.10267 -240.545111 
L 728.267838 -240.602362 
L 721.433005 -239.784601 
L 714.598173 -239.065611 
L 707.76334 -238.88019 
L 700.928508 -238.904174 
L 694.093675 -238.755888 
L 687.258843 -238.755888 
L 680.42401 -238.900305 
L 673.589178 -239.469205 
L 666.754345 -238.353584 
L 659.919513 -238.685485 
L 653.08468 -237.600553 
L 646.249847 -237.746259 
L 639.415015 -236.548373 
L 632.580182 -236.64147 
L 625.74535 -236.817349 
L 618.910517 -235.516823 
L 612.075685 -235.052626 
L 605.240852 -234.951018 
L 598.40602 -234.455875 
L 591.571187 -234.249307 
L 584.736355 -234.309911 
L 577.901522 -234.629691 
L 571.06669 -234.072654 
L 564.231857 -229.575872 
L 557.397025 -229.306896 
L 550.562192 -228.605442 
L 543.727359 -228.646704 
L 536.892527 -228.636389 
L 530.057694 -228.347555 
L 523.222862 -228.163939 
L 516.388029 -228.285662 
L 509.553197 -228.259357 
L 502.718364 -228.089668 
L 495.883532 -228.110814 
L 489.048699 -227.803413 
L 482.213867 -226.542859 
L 475.379034 -226.604236 
L 468.544202 -226.005938 
L 461.709369 -225.933729 
L 454.874536 -225.902783 
L 448.039704 -225.820259 
L 441.204871 -226.098777 
L 434.370039 -225.139694 
L 427.535206 -225.371535 
L 420.700374 -224.520507 
L 413.865541 -224.334828 
L 407.030709 -224.427667 
L 400.195876 -224.294339 
L 393.361044 -223.633374 
L 386.526211 -223.037912 
L 379.691379 -223.553171 
L 372.856546 -223.51062 
L 366.021714 -223.035075 
L 359.186881 -223.014444 
L 352.352048 -222.467723 
L 345.517216 -222.85146 
L 338.682383 -222.354253 
L 331.847551 -221.209233 
L 325.012718 -217.660703 
L 318.177886 -217.609126 
L 311.343053 -216.959249 
L 304.508221 -216.402213 
L 297.673388 -216.732566 
L 290.838556 -213.957441 
L 284.003723 -213.400404 
L 277.168891 -211.976866 
L 270.334058 -211.513442 
L 263.499225 -207.427733 
L 256.664393 -207.262685 
L 249.82956 -206.984424 
L 242.994728 -206.189873 
L 236.159895 -205.870093 
L 229.325063 -205.076058 
L 222.49023 -205.231048 
L 215.655398 -203.611258 
L 208.820565 -203.080784 
L 201.985733 -202.971439 
L 195.1509 -201.60051 
L 188.316068 -201.661372 
L 181.481235 -198.381044 
L 174.646403 -197.143959 
L 167.81157 -196.373134 
L 160.976737 -195.371499 
L 154.141905 -194.173096 
L 147.307072 -192.783342 
L 140.47224 -192.521844 
L 133.637407 -191.758497 
L 126.802575 -188.932825 
L 119.967742 -185.775511 
L 113.13291 -180.956628 
L 106.298077 -178.224569 
L 99.463245 -174.222157 
L 92.628412 -172.154158 
L 85.79358 -165.433356 
z
" id="m2286a8ebc0" style="stroke:#ff7f0e;stroke-opacity:0.2;"/>
    </defs>
    <g clip-path="url(#pc28090265c)">
     <use style="fill:#ff7f0e;fill-opacity:0.2;stroke:#ff7f0e;stroke-opacity:0.2;" x="0" xlink:href="#m2286a8ebc0" y="325.986375"/>
    </g>
   </g>
   <g id="matplotlib.axis_1">
    <g id="xtick_1">
     <g id="line2d_1">
      <defs>
       <path d="M 0 0 
L 0 3.5 
" id="mf8d4422286" style="stroke:#000000;stroke-width:0.8;"/>
      </defs>
      <g>
       <use style="stroke:#000000;stroke-width:0.8;" x="85.79358" xlink:href="#mf8d4422286" y="288.430125"/>
      </g>
     </g>
     <g id="text_1">
      <!-- 15m -->
      <g transform="translate(74.560767 303.028562)scale(0.1 -0.1)">
       <defs>
        <path d="M 12.40625 8.296875 
L 28.515625 8.296875 
L 28.515625 63.921875 
L 10.984375 60.40625 
L 10.984375 69.390625 
L 28.421875 72.90625 
L 38.28125 72.90625 
L 38.28125 8.296875 
L 54.390625 8.296875 
L 54.390625 0 
L 12.40625 0 
z
" id="DejaVuSans-49"/>
        <path d="M 10.796875 72.90625 
L 49.515625 72.90625 
L 49.515625 64.59375 
L 19.828125 64.59375 
L 19.828125 46.734375 
Q 21.96875 47.46875 24.109375 47.828125 
Q 26.265625 48.1875 28.421875 48.1875 
Q 40.625 48.1875 47.75 41.5 
Q 54.890625 34.8125 54.890625 23.390625 
Q 54.890625 11.625 47.5625 5.09375 
Q 40.234375 -1.421875 26.90625 -1.421875 
Q 22.3125 -1.421875 17.546875 -0.640625 
Q 12.796875 0.140625 7.71875 1.703125 
L 7.71875 11.625 
Q 12.109375 9.234375 16.796875 8.0625 
Q 21.484375 6.890625 26.703125 6.890625 
Q 35.15625 6.890625 40.078125 11.328125 
Q 45.015625 15.765625 45.015625 23.390625 
Q 45.015625 31 40.078125 35.4375 
Q 35.15625 39.890625 26.703125 39.890625 
Q 22.75 39.890625 18.8125 39.015625 
Q 14.890625 38.140625 10.796875 36.28125 
z
" id="DejaVuSans-53"/>
        <path d="M 52 44.1875 
Q 55.375 50.25 60.0625 53.125 
Q 64.75 56 71.09375 56 
Q 79.640625 56 84.28125 50.015625 
Q 88.921875 44.046875 88.921875 33.015625 
L 88.921875 0 
L 79.890625 0 
L 79.890625 32.71875 
Q 79.890625 40.578125 77.09375 44.375 
Q 74.3125 48.1875 68.609375 48.1875 
Q 61.625 48.1875 57.5625 43.546875 
Q 53.515625 38.921875 53.515625 30.90625 
L 53.515625 0 
L 44.484375 0 
L 44.484375 32.71875 
Q 44.484375 40.625 41.703125 44.40625 
Q 38.921875 48.1875 33.109375 48.1875 
Q 26.21875 48.1875 22.15625 43.53125 
Q 18.109375 38.875 18.109375 30.90625 
L 18.109375 0 
L 9.078125 0 
L 9.078125 54.6875 
L 18.109375 54.6875 
L 18.109375 46.1875 
Q 21.1875 51.21875 25.484375 53.609375 
Q 29.78125 56 35.6875 56 
Q 41.65625 56 45.828125 52.96875 
Q 50 49.953125 52 44.1875 
z
" id="DejaVuSans-109"/>
       </defs>
       <use xlink:href="#DejaVuSans-49"/>
       <use x="63.623047" xlink:href="#DejaVuSans-53"/>
       <use x="127.246094" xlink:href="#DejaVuSans-109"/>
      </g>
     </g>
    </g>
    <g id="xtick_2">
     <g id="line2d_2">
      <g>
       <use style="stroke:#000000;stroke-width:0.8;" x="140.47224" xlink:href="#mf8d4422286" y="288.430125"/>
      </g>
     </g>
     <g id="text_2">
      <!-- 2h:15m -->
      <g transform="translate(121.205052 303.028562)scale(0.1 -0.1)">
       <defs>
        <path d="M 19.1875 8.296875 
L 53.609375 8.296875 
L 53.609375 0 
L 7.328125 0 
L 7.328125 8.296875 
Q 12.9375 14.109375 22.625 23.890625 
Q 32.328125 33.6875 34.8125 36.53125 
Q 39.546875 41.84375 41.421875 45.53125 
Q 43.3125 49.21875 43.3125 52.78125 
Q 43.3125 58.59375 39.234375 62.25 
Q 35.15625 65.921875 28.609375 65.921875 
Q 23.96875 65.921875 18.8125 64.3125 
Q 13.671875 62.703125 7.8125 59.421875 
L 7.8125 69.390625 
Q 13.765625 71.78125 18.9375 73 
Q 24.125 74.21875 28.421875 74.21875 
Q 39.75 74.21875 46.484375 68.546875 
Q 53.21875 62.890625 53.21875 53.421875 
Q 53.21875 48.921875 51.53125 44.890625 
Q 49.859375 40.875 45.40625 35.40625 
Q 44.1875 33.984375 37.640625 27.21875 
Q 31.109375 20.453125 19.1875 8.296875 
z
" id="DejaVuSans-50"/>
        <path d="M 54.890625 33.015625 
L 54.890625 0 
L 45.90625 0 
L 45.90625 32.71875 
Q 45.90625 40.484375 42.875 44.328125 
Q 39.84375 48.1875 33.796875 48.1875 
Q 26.515625 48.1875 22.3125 43.546875 
Q 18.109375 38.921875 18.109375 30.90625 
L 18.109375 0 
L 9.078125 0 
L 9.078125 75.984375 
L 18.109375 75.984375 
L 18.109375 46.1875 
Q 21.34375 51.125 25.703125 53.5625 
Q 30.078125 56 35.796875 56 
Q 45.21875 56 50.046875 50.171875 
Q 54.890625 44.34375 54.890625 33.015625 
z
" id="DejaVuSans-104"/>
        <path d="M 11.71875 12.40625 
L 22.015625 12.40625 
L 22.015625 0 
L 11.71875 0 
z
M 11.71875 51.703125 
L 22.015625 51.703125 
L 22.015625 39.3125 
L 11.71875 39.3125 
z
" id="DejaVuSans-58"/>
       </defs>
       <use xlink:href="#DejaVuSans-50"/>
       <use x="63.623047" xlink:href="#DejaVuSans-104"/>
       <use x="127.001953" xlink:href="#DejaVuSans-58"/>
       <use x="160.693359" xlink:href="#DejaVuSans-49"/>
       <use x="224.316406" xlink:href="#DejaVuSans-53"/>
       <use x="287.939453" xlink:href="#DejaVuSans-109"/>
      </g>
     </g>
    </g>
    <g id="xtick_3">
     <g id="line2d_3">
      <g>
       <use style="stroke:#000000;stroke-width:0.8;" x="195.1509" xlink:href="#mf8d4422286" y="288.430125"/>
      </g>
     </g>
     <g id="text_3">
      <!-- 4h:15m -->
      <g transform="translate(175.883713 303.028562)scale(0.1 -0.1)">
       <defs>
        <path d="M 37.796875 64.3125 
L 12.890625 25.390625 
L 37.796875 25.390625 
z
M 35.203125 72.90625 
L 47.609375 72.90625 
L 47.609375 25.390625 
L 58.015625 25.390625 
L 58.015625 17.1875 
L 47.609375 17.1875 
L 47.609375 0 
L 37.796875 0 
L 37.796875 17.1875 
L 4.890625 17.1875 
L 4.890625 26.703125 
z
" id="DejaVuSans-52"/>
       </defs>
       <use xlink:href="#DejaVuSans-52"/>
       <use x="63.623047" xlink:href="#DejaVuSans-104"/>
       <use x="127.001953" xlink:href="#DejaVuSans-58"/>
       <use x="160.693359" xlink:href="#DejaVuSans-49"/>
       <use x="224.316406" xlink:href="#DejaVuSans-53"/>
       <use x="287.939453" xlink:href="#DejaVuSans-109"/>
      </g>
     </g>
    </g>
    <g id="xtick_4">
     <g id="line2d_4">
      <g>
       <use style="stroke:#000000;stroke-width:0.8;" x="249.82956" xlink:href="#mf8d4422286" y="288.430125"/>
      </g>
     </g>
     <g id="text_4">
      <!-- 6h:15m -->
      <g transform="translate(230.562373 303.028562)scale(0.1 -0.1)">
       <defs>
        <path d="M 33.015625 40.375 
Q 26.375 40.375 22.484375 35.828125 
Q 18.609375 31.296875 18.609375 23.390625 
Q 18.609375 15.53125 22.484375 10.953125 
Q 26.375 6.390625 33.015625 6.390625 
Q 39.65625 6.390625 43.53125 10.953125 
Q 47.40625 15.53125 47.40625 23.390625 
Q 47.40625 31.296875 43.53125 35.828125 
Q 39.65625 40.375 33.015625 40.375 
z
M 52.59375 71.296875 
L 52.59375 62.3125 
Q 48.875 64.0625 45.09375 64.984375 
Q 41.3125 65.921875 37.59375 65.921875 
Q 27.828125 65.921875 22.671875 59.328125 
Q 17.53125 52.734375 16.796875 39.40625 
Q 19.671875 43.65625 24.015625 45.921875 
Q 28.375 48.1875 33.59375 48.1875 
Q 44.578125 48.1875 50.953125 41.515625 
Q 57.328125 34.859375 57.328125 23.390625 
Q 57.328125 12.15625 50.6875 5.359375 
Q 44.046875 -1.421875 33.015625 -1.421875 
Q 20.359375 -1.421875 13.671875 8.265625 
Q 6.984375 17.96875 6.984375 36.375 
Q 6.984375 53.65625 15.1875 63.9375 
Q 23.390625 74.21875 37.203125 74.21875 
Q 40.921875 74.21875 44.703125 73.484375 
Q 48.484375 72.75 52.59375 71.296875 
z
" id="DejaVuSans-54"/>
       </defs>
       <use xlink:href="#DejaVuSans-54"/>
       <use x="63.623047" xlink:href="#DejaVuSans-104"/>
       <use x="127.001953" xlink:href="#DejaVuSans-58"/>
       <use x="160.693359" xlink:href="#DejaVuSans-49"/>
       <use x="224.316406" xlink:href="#DejaVuSans-53"/>
       <use x="287.939453" xlink:href="#DejaVuSans-109"/>
      </g>
     </g>
    </g>
    <g id="xtick_5">
     <g id="line2d_5">
      <g>
       <use style="stroke:#000000;stroke-width:0.8;" x="304.508221" xlink:href="#mf8d4422286" y="288.430125"/>
      </g>
     </g>
     <g id="text_5">
      <!-- 8h:15m -->
      <g transform="translate(285.241033 303.028562)scale(0.1 -0.1)">
       <defs>
        <path d="M 31.78125 34.625 
Q 24.75 34.625 20.71875 30.859375 
Q 16.703125 27.09375 16.703125 20.515625 
Q 16.703125 13.921875 20.71875 10.15625 
Q 24.75 6.390625 31.78125 6.390625 
Q 38.8125 6.390625 42.859375 10.171875 
Q 46.921875 13.96875 46.921875 20.515625 
Q 46.921875 27.09375 42.890625 30.859375 
Q 38.875 34.625 31.78125 34.625 
z
M 21.921875 38.8125 
Q 15.578125 40.375 12.03125 44.71875 
Q 8.5 49.078125 8.5 55.328125 
Q 8.5 64.0625 14.71875 69.140625 
Q 20.953125 74.21875 31.78125 74.21875 
Q 42.671875 74.21875 48.875 69.140625 
Q 55.078125 64.0625 55.078125 55.328125 
Q 55.078125 49.078125 51.53125 44.71875 
Q 48 40.375 41.703125 38.8125 
Q 48.828125 37.15625 52.796875 32.3125 
Q 56.78125 27.484375 56.78125 20.515625 
Q 56.78125 9.90625 50.3125 4.234375 
Q 43.84375 -1.421875 31.78125 -1.421875 
Q 19.734375 -1.421875 13.25 4.234375 
Q 6.78125 9.90625 6.78125 20.515625 
Q 6.78125 27.484375 10.78125 32.3125 
Q 14.796875 37.15625 21.921875 38.8125 
z
M 18.3125 54.390625 
Q 18.3125 48.734375 21.84375 45.5625 
Q 25.390625 42.390625 31.78125 42.390625 
Q 38.140625 42.390625 41.71875 45.5625 
Q 45.3125 48.734375 45.3125 54.390625 
Q 45.3125 60.0625 41.71875 63.234375 
Q 38.140625 66.40625 31.78125 66.40625 
Q 25.390625 66.40625 21.84375 63.234375 
Q 18.3125 60.0625 18.3125 54.390625 
z
" id="DejaVuSans-56"/>
       </defs>
       <use xlink:href="#DejaVuSans-56"/>
       <use x="63.623047" xlink:href="#DejaVuSans-104"/>
       <use x="127.001953" xlink:href="#DejaVuSans-58"/>
       <use x="160.693359" xlink:href="#DejaVuSans-49"/>
       <use x="224.316406" xlink:href="#DejaVuSans-53"/>
       <use x="287.939453" xlink:href="#DejaVuSans-109"/>
      </g>
     </g>
    </g>
    <g id="xtick_6">
     <g id="line2d_6">
      <g>
       <use style="stroke:#000000;stroke-width:0.8;" x="359.186881" xlink:href="#mf8d4422286" y="288.430125"/>
      </g>
     </g>
     <g id="text_6">
      <!-- 10h:15m -->
      <g transform="translate(336.738443 303.028562)scale(0.1 -0.1)">
       <defs>
        <path d="M 31.78125 66.40625 
Q 24.171875 66.40625 20.328125 58.90625 
Q 16.5 51.421875 16.5 36.375 
Q 16.5 21.390625 20.328125 13.890625 
Q 24.171875 6.390625 31.78125 6.390625 
Q 39.453125 6.390625 43.28125 13.890625 
Q 47.125 21.390625 47.125 36.375 
Q 47.125 51.421875 43.28125 58.90625 
Q 39.453125 66.40625 31.78125 66.40625 
z
M 31.78125 74.21875 
Q 44.046875 74.21875 50.515625 64.515625 
Q 56.984375 54.828125 56.984375 36.375 
Q 56.984375 17.96875 50.515625 8.265625 
Q 44.046875 -1.421875 31.78125 -1.421875 
Q 19.53125 -1.421875 13.0625 8.265625 
Q 6.59375 17.96875 6.59375 36.375 
Q 6.59375 54.828125 13.0625 64.515625 
Q 19.53125 74.21875 31.78125 74.21875 
z
" id="DejaVuSans-48"/>
       </defs>
       <use xlink:href="#DejaVuSans-49"/>
       <use x="63.623047" xlink:href="#DejaVuSans-48"/>
       <use x="127.246094" xlink:href="#DejaVuSans-104"/>
       <use x="190.625" xlink:href="#DejaVuSans-58"/>
       <use x="224.316406" xlink:href="#DejaVuSans-49"/>
       <use x="287.939453" xlink:href="#DejaVuSans-53"/>
       <use x="351.5625" xlink:href="#DejaVuSans-109"/>
      </g>
     </g>
    </g>
    <g id="xtick_7">
     <g id="line2d_7">
      <g>
       <use style="stroke:#000000;stroke-width:0.8;" x="413.865541" xlink:href="#mf8d4422286" y="288.430125"/>
      </g>
     </g>
     <g id="text_7">
      <!-- 12h:15m -->
      <g transform="translate(391.417104 303.028562)scale(0.1 -0.1)">
       <use xlink:href="#DejaVuSans-49"/>
       <use x="63.623047" xlink:href="#DejaVuSans-50"/>
       <use x="127.246094" xlink:href="#DejaVuSans-104"/>
       <use x="190.625" xlink:href="#DejaVuSans-58"/>
       <use x="224.316406" xlink:href="#DejaVuSans-49"/>
       <use x="287.939453" xlink:href="#DejaVuSans-53"/>
       <use x="351.5625" xlink:href="#DejaVuSans-109"/>
      </g>
     </g>
    </g>
    <g id="xtick_8">
     <g id="line2d_8">
      <g>
       <use style="stroke:#000000;stroke-width:0.8;" x="468.544202" xlink:href="#mf8d4422286" y="288.430125"/>
      </g>
     </g>
     <g id="text_8">
      <!-- 14h:15m -->
      <g transform="translate(446.095764 303.028562)scale(0.1 -0.1)">
       <use xlink:href="#DejaVuSans-49"/>
       <use x="63.623047" xlink:href="#DejaVuSans-52"/>
       <use x="127.246094" xlink:href="#DejaVuSans-104"/>
       <use x="190.625" xlink:href="#DejaVuSans-58"/>
       <use x="224.316406" xlink:href="#DejaVuSans-49"/>
       <use x="287.939453" xlink:href="#DejaVuSans-53"/>
       <use x="351.5625" xlink:href="#DejaVuSans-109"/>
      </g>
     </g>
    </g>
    <g id="xtick_9">
     <g id="line2d_9">
      <g>
       <use style="stroke:#000000;stroke-width:0.8;" x="523.222862" xlink:href="#mf8d4422286" y="288.430125"/>
      </g>
     </g>
     <g id="text_9">
      <!-- 16h:15m -->
      <g transform="translate(500.774424 303.028562)scale(0.1 -0.1)">
       <use xlink:href="#DejaVuSans-49"/>
       <use x="63.623047" xlink:href="#DejaVuSans-54"/>
       <use x="127.246094" xlink:href="#DejaVuSans-104"/>
       <use x="190.625" xlink:href="#DejaVuSans-58"/>
       <use x="224.316406" xlink:href="#DejaVuSans-49"/>
       <use x="287.939453" xlink:href="#DejaVuSans-53"/>
       <use x="351.5625" xlink:href="#DejaVuSans-109"/>
      </g>
     </g>
    </g>
    <g id="xtick_10">
     <g id="line2d_10">
      <g>
       <use style="stroke:#000000;stroke-width:0.8;" x="577.901522" xlink:href="#mf8d4422286" y="288.430125"/>
      </g>
     </g>
     <g id="text_10">
      <!-- 18h:15m -->
      <g transform="translate(555.453085 303.028562)scale(0.1 -0.1)">
       <use xlink:href="#DejaVuSans-49"/>
       <use x="63.623047" xlink:href="#DejaVuSans-56"/>
       <use x="127.246094" xlink:href="#DejaVuSans-104"/>
       <use x="190.625" xlink:href="#DejaVuSans-58"/>
       <use x="224.316406" xlink:href="#DejaVuSans-49"/>
       <use x="287.939453" xlink:href="#DejaVuSans-53"/>
       <use x="351.5625" xlink:href="#DejaVuSans-109"/>
      </g>
     </g>
    </g>
    <g id="xtick_11">
     <g id="line2d_11">
      <g>
       <use style="stroke:#000000;stroke-width:0.8;" x="632.580182" xlink:href="#mf8d4422286" y="288.430125"/>
      </g>
     </g>
     <g id="text_11">
      <!-- 20h:15m -->
      <g transform="translate(610.131745 303.028562)scale(0.1 -0.1)">
       <use xlink:href="#DejaVuSans-50"/>
       <use x="63.623047" xlink:href="#DejaVuSans-48"/>
       <use x="127.246094" xlink:href="#DejaVuSans-104"/>
       <use x="190.625" xlink:href="#DejaVuSans-58"/>
       <use x="224.316406" xlink:href="#DejaVuSans-49"/>
       <use x="287.939453" xlink:href="#DejaVuSans-53"/>
       <use x="351.5625" xlink:href="#DejaVuSans-109"/>
      </g>
     </g>
    </g>
    <g id="xtick_12">
     <g id="line2d_12">
      <g>
       <use style="stroke:#000000;stroke-width:0.8;" x="687.258843" xlink:href="#mf8d4422286" y="288.430125"/>
      </g>
     </g>
     <g id="text_12">
      <!-- 22h:15m -->
      <g transform="translate(664.810405 303.028562)scale(0.1 -0.1)">
       <use xlink:href="#DejaVuSans-50"/>
       <use x="63.623047" xlink:href="#DejaVuSans-50"/>
       <use x="127.246094" xlink:href="#DejaVuSans-104"/>
       <use x="190.625" xlink:href="#DejaVuSans-58"/>
       <use x="224.316406" xlink:href="#DejaVuSans-49"/>
       <use x="287.939453" xlink:href="#DejaVuSans-53"/>
       <use x="351.5625" xlink:href="#DejaVuSans-109"/>
      </g>
     </g>
    </g>
    <g id="text_13">
     <!-- Time (hour:minute) -->
     <g transform="translate(362.041094 316.706687)scale(0.1 -0.1)">
      <defs>
       <path d="M -0.296875 72.90625 
L 61.375 72.90625 
L 61.375 64.59375 
L 35.5 64.59375 
L 35.5 0 
L 25.59375 0 
L 25.59375 64.59375 
L -0.296875 64.59375 
z
" id="DejaVuSans-84"/>
       <path d="M 9.421875 54.6875 
L 18.40625 54.6875 
L 18.40625 0 
L 9.421875 0 
z
M 9.421875 75.984375 
L 18.40625 75.984375 
L 18.40625 64.59375 
L 9.421875 64.59375 
z
" id="DejaVuSans-105"/>
       <path d="M 56.203125 29.59375 
L 56.203125 25.203125 
L 14.890625 25.203125 
Q 15.484375 15.921875 20.484375 11.0625 
Q 25.484375 6.203125 34.421875 6.203125 
Q 39.59375 6.203125 44.453125 7.46875 
Q 49.3125 8.734375 54.109375 11.28125 
L 54.109375 2.78125 
Q 49.265625 0.734375 44.1875 -0.34375 
Q 39.109375 -1.421875 33.890625 -1.421875 
Q 20.796875 -1.421875 13.15625 6.1875 
Q 5.515625 13.8125 5.515625 26.8125 
Q 5.515625 40.234375 12.765625 48.109375 
Q 20.015625 56 32.328125 56 
Q 43.359375 56 49.78125 48.890625 
Q 56.203125 41.796875 56.203125 29.59375 
z
M 47.21875 32.234375 
Q 47.125 39.59375 43.09375 43.984375 
Q 39.0625 48.390625 32.421875 48.390625 
Q 24.90625 48.390625 20.390625 44.140625 
Q 15.875 39.890625 15.1875 32.171875 
z
" id="DejaVuSans-101"/>
       <path id="DejaVuSans-32"/>
       <path d="M 31 75.875 
Q 24.46875 64.65625 21.28125 53.65625 
Q 18.109375 42.671875 18.109375 31.390625 
Q 18.109375 20.125 21.3125 9.0625 
Q 24.515625 -2 31 -13.1875 
L 23.1875 -13.1875 
Q 15.875 -1.703125 12.234375 9.375 
Q 8.59375 20.453125 8.59375 31.390625 
Q 8.59375 42.28125 12.203125 53.3125 
Q 15.828125 64.359375 23.1875 75.875 
z
" id="DejaVuSans-40"/>
       <path d="M 30.609375 48.390625 
Q 23.390625 48.390625 19.1875 42.75 
Q 14.984375 37.109375 14.984375 27.296875 
Q 14.984375 17.484375 19.15625 11.84375 
Q 23.34375 6.203125 30.609375 6.203125 
Q 37.796875 6.203125 41.984375 11.859375 
Q 46.1875 17.53125 46.1875 27.296875 
Q 46.1875 37.015625 41.984375 42.703125 
Q 37.796875 48.390625 30.609375 48.390625 
z
M 30.609375 56 
Q 42.328125 56 49.015625 48.375 
Q 55.71875 40.765625 55.71875 27.296875 
Q 55.71875 13.875 49.015625 6.21875 
Q 42.328125 -1.421875 30.609375 -1.421875 
Q 18.84375 -1.421875 12.171875 6.21875 
Q 5.515625 13.875 5.515625 27.296875 
Q 5.515625 40.765625 12.171875 48.375 
Q 18.84375 56 30.609375 56 
z
" id="DejaVuSans-111"/>
       <path d="M 8.5 21.578125 
L 8.5 54.6875 
L 17.484375 54.6875 
L 17.484375 21.921875 
Q 17.484375 14.15625 20.5 10.265625 
Q 23.53125 6.390625 29.59375 6.390625 
Q 36.859375 6.390625 41.078125 11.03125 
Q 45.3125 15.671875 45.3125 23.6875 
L 45.3125 54.6875 
L 54.296875 54.6875 
L 54.296875 0 
L 45.3125 0 
L 45.3125 8.40625 
Q 42.046875 3.421875 37.71875 1 
Q 33.40625 -1.421875 27.6875 -1.421875 
Q 18.265625 -1.421875 13.375 4.4375 
Q 8.5 10.296875 8.5 21.578125 
z
M 31.109375 56 
z
" id="DejaVuSans-117"/>
       <path d="M 41.109375 46.296875 
Q 39.59375 47.171875 37.8125 47.578125 
Q 36.03125 48 33.890625 48 
Q 26.265625 48 22.1875 43.046875 
Q 18.109375 38.09375 18.109375 28.8125 
L 18.109375 0 
L 9.078125 0 
L 9.078125 54.6875 
L 18.109375 54.6875 
L 18.109375 46.1875 
Q 20.953125 51.171875 25.484375 53.578125 
Q 30.03125 56 36.53125 56 
Q 37.453125 56 38.578125 55.875 
Q 39.703125 55.765625 41.0625 55.515625 
z
" id="DejaVuSans-114"/>
       <path d="M 54.890625 33.015625 
L 54.890625 0 
L 45.90625 0 
L 45.90625 32.71875 
Q 45.90625 40.484375 42.875 44.328125 
Q 39.84375 48.1875 33.796875 48.1875 
Q 26.515625 48.1875 22.3125 43.546875 
Q 18.109375 38.921875 18.109375 30.90625 
L 18.109375 0 
L 9.078125 0 
L 9.078125 54.6875 
L 18.109375 54.6875 
L 18.109375 46.1875 
Q 21.34375 51.125 25.703125 53.5625 
Q 30.078125 56 35.796875 56 
Q 45.21875 56 50.046875 50.171875 
Q 54.890625 44.34375 54.890625 33.015625 
z
" id="DejaVuSans-110"/>
       <path d="M 18.3125 70.21875 
L 18.3125 54.6875 
L 36.8125 54.6875 
L 36.8125 47.703125 
L 18.3125 47.703125 
L 18.3125 18.015625 
Q 18.3125 11.328125 20.140625 9.421875 
Q 21.96875 7.515625 27.59375 7.515625 
L 36.8125 7.515625 
L 36.8125 0 
L 27.59375 0 
Q 17.1875 0 13.234375 3.875 
Q 9.28125 7.765625 9.28125 18.015625 
L 9.28125 47.703125 
L 2.6875 47.703125 
L 2.6875 54.6875 
L 9.28125 54.6875 
L 9.28125 70.21875 
z
" id="DejaVuSans-116"/>
       <path d="M 8.015625 75.875 
L 15.828125 75.875 
Q 23.140625 64.359375 26.78125 53.3125 
Q 30.421875 42.28125 30.421875 31.390625 
Q 30.421875 20.453125 26.78125 9.375 
Q 23.140625 -1.703125 15.828125 -13.1875 
L 8.015625 -13.1875 
Q 14.5 -2 17.703125 9.0625 
Q 20.90625 20.125 20.90625 31.390625 
Q 20.90625 42.671875 17.703125 53.65625 
Q 14.5 64.65625 8.015625 75.875 
z
" id="DejaVuSans-41"/>
      </defs>
      <use xlink:href="#DejaVuSans-84"/>
      <use x="57.958984" xlink:href="#DejaVuSans-105"/>
      <use x="85.742188" xlink:href="#DejaVuSans-109"/>
      <use x="183.154297" xlink:href="#DejaVuSans-101"/>
      <use x="244.677734" xlink:href="#DejaVuSans-32"/>
      <use x="276.464844" xlink:href="#DejaVuSans-40"/>
      <use x="315.478516" xlink:href="#DejaVuSans-104"/>
      <use x="378.857422" xlink:href="#DejaVuSans-111"/>
      <use x="440.039062" xlink:href="#DejaVuSans-117"/>
      <use x="503.417969" xlink:href="#DejaVuSans-114"/>
      <use x="542.78125" xlink:href="#DejaVuSans-58"/>
      <use x="576.472656" xlink:href="#DejaVuSans-109"/>
      <use x="673.884766" xlink:href="#DejaVuSans-105"/>
      <use x="701.667969" xlink:href="#DejaVuSans-110"/>
      <use x="765.046875" xlink:href="#DejaVuSans-117"/>
      <use x="828.425781" xlink:href="#DejaVuSans-116"/>
      <use x="867.634766" xlink:href="#DejaVuSans-101"/>
      <use x="929.158203" xlink:href="#DejaVuSans-41"/>
     </g>
    </g>
   </g>
   <g id="matplotlib.axis_2">
    <g id="ytick_1">
     <g id="line2d_13">
      <defs>
       <path d="M 0 0 
L -3.5 0 
" id="m95db02479d" style="stroke:#000000;stroke-width:0.8;"/>
      </defs>
      <g>
       <use style="stroke:#000000;stroke-width:0.8;" x="53.328125" xlink:href="#m95db02479d" y="265.894845"/>
      </g>
     </g>
     <g id="text_14">
      <!-- 3500 -->
      <g transform="translate(20.878125 269.694064)scale(0.1 -0.1)">
       <defs>
        <path d="M 40.578125 39.3125 
Q 47.65625 37.796875 51.625 33 
Q 55.609375 28.21875 55.609375 21.1875 
Q 55.609375 10.40625 48.1875 4.484375 
Q 40.765625 -1.421875 27.09375 -1.421875 
Q 22.515625 -1.421875 17.65625 -0.515625 
Q 12.796875 0.390625 7.625 2.203125 
L 7.625 11.71875 
Q 11.71875 9.328125 16.59375 8.109375 
Q 21.484375 6.890625 26.8125 6.890625 
Q 36.078125 6.890625 40.9375 10.546875 
Q 45.796875 14.203125 45.796875 21.1875 
Q 45.796875 27.640625 41.28125 31.265625 
Q 36.765625 34.90625 28.71875 34.90625 
L 20.21875 34.90625 
L 20.21875 43.015625 
L 29.109375 43.015625 
Q 36.375 43.015625 40.234375 45.921875 
Q 44.09375 48.828125 44.09375 54.296875 
Q 44.09375 59.90625 40.109375 62.90625 
Q 36.140625 65.921875 28.71875 65.921875 
Q 24.65625 65.921875 20.015625 65.03125 
Q 15.375 64.15625 9.8125 62.3125 
L 9.8125 71.09375 
Q 15.4375 72.65625 20.34375 73.4375 
Q 25.25 74.21875 29.59375 74.21875 
Q 40.828125 74.21875 47.359375 69.109375 
Q 53.90625 64.015625 53.90625 55.328125 
Q 53.90625 49.265625 50.4375 45.09375 
Q 46.96875 40.921875 40.578125 39.3125 
z
" id="DejaVuSans-51"/>
       </defs>
       <use xlink:href="#DejaVuSans-51"/>
       <use x="63.623047" xlink:href="#DejaVuSans-53"/>
       <use x="127.246094" xlink:href="#DejaVuSans-48"/>
       <use x="190.869141" xlink:href="#DejaVuSans-48"/>
      </g>
     </g>
    </g>
    <g id="ytick_2">
     <g id="line2d_14">
      <g>
       <use style="stroke:#000000;stroke-width:0.8;" x="53.328125" xlink:href="#m95db02479d" y="234.948363"/>
      </g>
     </g>
     <g id="text_15">
      <!-- 4000 -->
      <g transform="translate(20.878125 238.747581)scale(0.1 -0.1)">
       <use xlink:href="#DejaVuSans-52"/>
       <use x="63.623047" xlink:href="#DejaVuSans-48"/>
       <use x="127.246094" xlink:href="#DejaVuSans-48"/>
       <use x="190.869141" xlink:href="#DejaVuSans-48"/>
      </g>
     </g>
    </g>
    <g id="ytick_3">
     <g id="line2d_15">
      <g>
       <use style="stroke:#000000;stroke-width:0.8;" x="53.328125" xlink:href="#m95db02479d" y="204.00188"/>
      </g>
     </g>
     <g id="text_16">
      <!-- 4500 -->
      <g transform="translate(20.878125 207.801099)scale(0.1 -0.1)">
       <use xlink:href="#DejaVuSans-52"/>
       <use x="63.623047" xlink:href="#DejaVuSans-53"/>
       <use x="127.246094" xlink:href="#DejaVuSans-48"/>
       <use x="190.869141" xlink:href="#DejaVuSans-48"/>
      </g>
     </g>
    </g>
    <g id="ytick_4">
     <g id="line2d_16">
      <g>
       <use style="stroke:#000000;stroke-width:0.8;" x="53.328125" xlink:href="#m95db02479d" y="173.055398"/>
      </g>
     </g>
     <g id="text_17">
      <!-- 5000 -->
      <g transform="translate(20.878125 176.854616)scale(0.1 -0.1)">
       <use xlink:href="#DejaVuSans-53"/>
       <use x="63.623047" xlink:href="#DejaVuSans-48"/>
       <use x="127.246094" xlink:href="#DejaVuSans-48"/>
       <use x="190.869141" xlink:href="#DejaVuSans-48"/>
      </g>
     </g>
    </g>
    <g id="ytick_5">
     <g id="line2d_17">
      <g>
       <use style="stroke:#000000;stroke-width:0.8;" x="53.328125" xlink:href="#m95db02479d" y="142.108915"/>
      </g>
     </g>
     <g id="text_18">
      <!-- 5500 -->
      <g transform="translate(20.878125 145.908134)scale(0.1 -0.1)">
       <use xlink:href="#DejaVuSans-53"/>
       <use x="63.623047" xlink:href="#DejaVuSans-53"/>
       <use x="127.246094" xlink:href="#DejaVuSans-48"/>
       <use x="190.869141" xlink:href="#DejaVuSans-48"/>
      </g>
     </g>
    </g>
    <g id="ytick_6">
     <g id="line2d_18">
      <g>
       <use style="stroke:#000000;stroke-width:0.8;" x="53.328125" xlink:href="#m95db02479d" y="111.162433"/>
      </g>
     </g>
     <g id="text_19">
      <!-- 6000 -->
      <g transform="translate(20.878125 114.961652)scale(0.1 -0.1)">
       <use xlink:href="#DejaVuSans-54"/>
       <use x="63.623047" xlink:href="#DejaVuSans-48"/>
       <use x="127.246094" xlink:href="#DejaVuSans-48"/>
       <use x="190.869141" xlink:href="#DejaVuSans-48"/>
      </g>
     </g>
    </g>
    <g id="ytick_7">
     <g id="line2d_19">
      <g>
       <use style="stroke:#000000;stroke-width:0.8;" x="53.328125" xlink:href="#m95db02479d" y="80.215951"/>
      </g>
     </g>
     <g id="text_20">
      <!-- 6500 -->
      <g transform="translate(20.878125 84.015169)scale(0.1 -0.1)">
       <use xlink:href="#DejaVuSans-54"/>
       <use x="63.623047" xlink:href="#DejaVuSans-53"/>
       <use x="127.246094" xlink:href="#DejaVuSans-48"/>
       <use x="190.869141" xlink:href="#DejaVuSans-48"/>
      </g>
     </g>
    </g>
    <g id="ytick_8">
     <g id="line2d_20">
      <g>
       <use style="stroke:#000000;stroke-width:0.8;" x="53.328125" xlink:href="#m95db02479d" y="49.269468"/>
      </g>
     </g>
     <g id="text_21">
      <!-- 7000 -->
      <g transform="translate(20.878125 53.068687)scale(0.1 -0.1)">
       <defs>
        <path d="M 8.203125 72.90625 
L 55.078125 72.90625 
L 55.078125 68.703125 
L 28.609375 0 
L 18.3125 0 
L 43.21875 64.59375 
L 8.203125 64.59375 
z
" id="DejaVuSans-55"/>
       </defs>
       <use xlink:href="#DejaVuSans-55"/>
       <use x="63.623047" xlink:href="#DejaVuSans-48"/>
       <use x="127.246094" xlink:href="#DejaVuSans-48"/>
       <use x="190.869141" xlink:href="#DejaVuSans-48"/>
      </g>
     </g>
    </g>
    <g id="text_22">
     <!-- Edge coverage -->
     <g transform="translate(14.798438 192.762406)rotate(-90)scale(0.1 -0.1)">
      <defs>
       <path d="M 9.8125 72.90625 
L 55.90625 72.90625 
L 55.90625 64.59375 
L 19.671875 64.59375 
L 19.671875 43.015625 
L 54.390625 43.015625 
L 54.390625 34.71875 
L 19.671875 34.71875 
L 19.671875 8.296875 
L 56.78125 8.296875 
L 56.78125 0 
L 9.8125 0 
z
" id="DejaVuSans-69"/>
       <path d="M 45.40625 46.390625 
L 45.40625 75.984375 
L 54.390625 75.984375 
L 54.390625 0 
L 45.40625 0 
L 45.40625 8.203125 
Q 42.578125 3.328125 38.25 0.953125 
Q 33.9375 -1.421875 27.875 -1.421875 
Q 17.96875 -1.421875 11.734375 6.484375 
Q 5.515625 14.40625 5.515625 27.296875 
Q 5.515625 40.1875 11.734375 48.09375 
Q 17.96875 56 27.875 56 
Q 33.9375 56 38.25 53.625 
Q 42.578125 51.265625 45.40625 46.390625 
z
M 14.796875 27.296875 
Q 14.796875 17.390625 18.875 11.75 
Q 22.953125 6.109375 30.078125 6.109375 
Q 37.203125 6.109375 41.296875 11.75 
Q 45.40625 17.390625 45.40625 27.296875 
Q 45.40625 37.203125 41.296875 42.84375 
Q 37.203125 48.484375 30.078125 48.484375 
Q 22.953125 48.484375 18.875 42.84375 
Q 14.796875 37.203125 14.796875 27.296875 
z
" id="DejaVuSans-100"/>
       <path d="M 45.40625 27.984375 
Q 45.40625 37.75 41.375 43.109375 
Q 37.359375 48.484375 30.078125 48.484375 
Q 22.859375 48.484375 18.828125 43.109375 
Q 14.796875 37.75 14.796875 27.984375 
Q 14.796875 18.265625 18.828125 12.890625 
Q 22.859375 7.515625 30.078125 7.515625 
Q 37.359375 7.515625 41.375 12.890625 
Q 45.40625 18.265625 45.40625 27.984375 
z
M 54.390625 6.78125 
Q 54.390625 -7.171875 48.1875 -13.984375 
Q 42 -20.796875 29.203125 -20.796875 
Q 24.46875 -20.796875 20.265625 -20.09375 
Q 16.0625 -19.390625 12.109375 -17.921875 
L 12.109375 -9.1875 
Q 16.0625 -11.328125 19.921875 -12.34375 
Q 23.78125 -13.375 27.78125 -13.375 
Q 36.625 -13.375 41.015625 -8.765625 
Q 45.40625 -4.15625 45.40625 5.171875 
L 45.40625 9.625 
Q 42.625 4.78125 38.28125 2.390625 
Q 33.9375 0 27.875 0 
Q 17.828125 0 11.671875 7.65625 
Q 5.515625 15.328125 5.515625 27.984375 
Q 5.515625 40.671875 11.671875 48.328125 
Q 17.828125 56 27.875 56 
Q 33.9375 56 38.28125 53.609375 
Q 42.625 51.21875 45.40625 46.390625 
L 45.40625 54.6875 
L 54.390625 54.6875 
z
" id="DejaVuSans-103"/>
       <path d="M 48.78125 52.59375 
L 48.78125 44.1875 
Q 44.96875 46.296875 41.140625 47.34375 
Q 37.3125 48.390625 33.40625 48.390625 
Q 24.65625 48.390625 19.8125 42.84375 
Q 14.984375 37.3125 14.984375 27.296875 
Q 14.984375 17.28125 19.8125 11.734375 
Q 24.65625 6.203125 33.40625 6.203125 
Q 37.3125 6.203125 41.140625 7.25 
Q 44.96875 8.296875 48.78125 10.40625 
L 48.78125 2.09375 
Q 45.015625 0.34375 40.984375 -0.53125 
Q 36.96875 -1.421875 32.421875 -1.421875 
Q 20.0625 -1.421875 12.78125 6.34375 
Q 5.515625 14.109375 5.515625 27.296875 
Q 5.515625 40.671875 12.859375 48.328125 
Q 20.21875 56 33.015625 56 
Q 37.15625 56 41.109375 55.140625 
Q 45.0625 54.296875 48.78125 52.59375 
z
" id="DejaVuSans-99"/>
       <path d="M 2.984375 54.6875 
L 12.5 54.6875 
L 29.59375 8.796875 
L 46.6875 54.6875 
L 56.203125 54.6875 
L 35.6875 0 
L 23.484375 0 
z
" id="DejaVuSans-118"/>
       <path d="M 34.28125 27.484375 
Q 23.390625 27.484375 19.1875 25 
Q 14.984375 22.515625 14.984375 16.5 
Q 14.984375 11.71875 18.140625 8.90625 
Q 21.296875 6.109375 26.703125 6.109375 
Q 34.1875 6.109375 38.703125 11.40625 
Q 43.21875 16.703125 43.21875 25.484375 
L 43.21875 27.484375 
z
M 52.203125 31.203125 
L 52.203125 0 
L 43.21875 0 
L 43.21875 8.296875 
Q 40.140625 3.328125 35.546875 0.953125 
Q 30.953125 -1.421875 24.3125 -1.421875 
Q 15.921875 -1.421875 10.953125 3.296875 
Q 6 8.015625 6 15.921875 
Q 6 25.140625 12.171875 29.828125 
Q 18.359375 34.515625 30.609375 34.515625 
L 43.21875 34.515625 
L 43.21875 35.40625 
Q 43.21875 41.609375 39.140625 45 
Q 35.0625 48.390625 27.6875 48.390625 
Q 23 48.390625 18.546875 47.265625 
Q 14.109375 46.140625 10.015625 43.890625 
L 10.015625 52.203125 
Q 14.9375 54.109375 19.578125 55.046875 
Q 24.21875 56 28.609375 56 
Q 40.484375 56 46.34375 49.84375 
Q 52.203125 43.703125 52.203125 31.203125 
z
" id="DejaVuSans-97"/>
      </defs>
      <use xlink:href="#DejaVuSans-69"/>
      <use x="63.183594" xlink:href="#DejaVuSans-100"/>
      <use x="126.660156" xlink:href="#DejaVuSans-103"/>
      <use x="190.136719" xlink:href="#DejaVuSans-101"/>
      <use x="251.660156" xlink:href="#DejaVuSans-32"/>
      <use x="283.447266" xlink:href="#DejaVuSans-99"/>
      <use x="338.427734" xlink:href="#DejaVuSans-111"/>
      <use x="399.609375" xlink:href="#DejaVuSans-118"/>
      <use x="458.789062" xlink:href="#DejaVuSans-101"/>
      <use x="520.3125" xlink:href="#DejaVuSans-114"/>
      <use x="561.425781" xlink:href="#DejaVuSans-97"/>
      <use x="622.705078" xlink:href="#DejaVuSans-103"/>
      <use x="686.181641" xlink:href="#DejaVuSans-101"/>
     </g>
    </g>
   </g>
   <g id="line2d_21">
    <path clip-path="url(#pc28090265c)" d="M 85.79358 134.021568 
L 92.628412 126.223054 
L 99.463245 119.631454 
L 106.298077 111.286219 
L 113.13291 100.98104 
L 119.967742 94.802059 
L 126.802575 83.816058 
L 133.637407 81.15466 
L 140.47224 80.401629 
L 147.307072 76.316694 
L 154.141905 75.50177 
L 160.976737 75.192305 
L 167.81157 75.068519 
L 174.646403 74.831263 
L 181.481235 73.954446 
L 188.316068 69.498152 
L 195.1509 67.899251 
L 201.985733 66.609814 
L 208.820565 65.722681 
L 215.655398 65.351323 
L 222.49023 65.124383 
L 229.325063 64.629239 
L 236.159895 64.154726 
L 242.994728 63.752422 
L 249.82956 63.112861 
L 256.664393 62.56614 
L 263.499225 62.050365 
L 270.334058 61.83374 
L 277.168891 59.584962 
L 284.003723 59.048557 
L 290.838556 58.955717 
L 297.673388 58.728776 
L 304.508221 58.254263 
L 311.343053 58.0789 
L 318.177886 57.738489 
L 325.012718 57.697227 
L 331.847551 57.55281 
L 338.682383 57.490917 
L 345.517216 57.3465 
L 352.352048 57.263976 
L 359.186881 57.253661 
L 366.021714 57.243345 
L 372.856546 57.14019 
L 379.691379 56.882303 
L 386.526211 55.242139 
L 393.361044 53.47819 
L 400.195876 53.189356 
L 407.030709 52.848945 
L 413.865541 52.518849 
L 420.700374 52.281592 
L 427.535206 52.281592 
L 434.370039 52.188753 
L 441.204871 52.12686 
L 448.039704 51.868973 
L 454.874536 51.703925 
L 461.709369 51.538877 
L 468.544202 51.084995 
L 475.379034 50.889001 
L 482.213867 50.651744 
L 489.048699 50.651744 
L 495.883532 50.56922 
L 502.718364 50.558905 
L 509.553197 50.507327 
L 516.388029 50.239125 
L 523.222862 50.228809 
L 530.057694 50.125654 
L 536.892527 50.04313 
L 543.727359 49.785243 
L 550.562192 49.713034 
L 557.397025 49.609879 
L 564.231857 49.527355 
L 571.06669 49.300415 
L 577.901522 48.794955 
L 584.736355 48.794955 
L 591.571187 48.733062 
L 598.40602 48.598961 
L 605.240852 48.341074 
L 612.075685 48.320443 
L 618.910517 48.196657 
L 625.74535 48.196657 
L 632.580182 48.186341 
L 639.415015 48.000662 
L 646.249847 47.980031 
L 653.08468 47.887192 
L 659.919513 47.887192 
L 666.754345 47.567412 
L 673.589178 47.557096 
L 680.42401 47.154792 
L 687.258843 47.154792 
L 694.093675 47.103214 
L 700.928508 47.072268 
L 707.76334 47.02069 
L 714.598173 47.010375 
L 721.433005 46.948482 
L 728.267838 46.90722 
L 735.10267 46.535862 
" style="fill:none;stroke:#ffbb78;stroke-linecap:square;stroke-width:1.5;"/>
   </g>
   <g id="line2d_22">
    <path clip-path="url(#pc28090265c)" d="M 85.79358 155.941993 
L 92.628412 146.771519 
L 99.463245 143.006363 
L 106.298077 142.934155 
L 113.13291 141.417777 
L 119.967742 140.788532 
L 126.802575 138.766695 
L 133.637407 137.033692 
L 140.47224 134.434188 
L 147.307072 131.494272 
L 154.141905 126.460311 
L 160.976737 124.582891 
L 167.81157 121.570766 
L 174.646403 117.795296 
L 181.481235 115.866298 
L 188.316068 115.58778 
L 195.1509 115.309262 
L 201.985733 114.092033 
L 208.820565 112.585971 
L 215.655398 112.328084 
L 222.49023 111.698839 
L 229.325063 110.852968 
L 236.159895 110.357824 
L 242.994728 110.172145 
L 249.82956 109.5429 
L 256.664393 109.192174 
L 263.499225 109.01681 
L 270.334058 108.511351 
L 277.168891 108.201886 
L 284.003723 107.913052 
L 290.838556 107.717058 
L 297.673388 107.634534 
L 304.508221 107.263176 
L 311.343053 106.829925 
L 318.177886 106.458568 
L 325.012718 106.29352 
L 331.847551 105.653959 
L 338.682383 105.416703 
L 345.517216 105.323863 
L 352.352048 104.859666 
L 359.186881 104.756511 
L 366.021714 103.219502 
L 372.856546 103.054455 
L 379.691379 102.579942 
L 386.526211 102.064167 
L 393.361044 101.71344 
L 400.195876 101.538077 
L 407.030709 101.527761 
L 413.865541 101.352398 
L 420.700374 101.032618 
L 427.535206 100.66126 
L 434.370039 100.145485 
L 441.204871 99.990753 
L 448.039704 99.557502 
L 454.874536 99.072674 
L 461.709369 98.78384 
L 468.544202 97.989547 
L 475.379034 97.783237 
L 482.213867 96.669164 
L 489.048699 96.308121 
L 495.883532 95.792347 
L 502.718364 95.658245 
L 509.553197 95.101209 
L 516.388029 94.61638 
L 523.222862 94.245023 
L 530.057694 93.739563 
L 536.892527 92.037507 
L 543.727359 91.604256 
L 550.562192 91.542363 
L 557.397025 91.325738 
L 564.231857 91.057535 
L 571.06669 91.047219 
L 577.901522 90.95438 
L 584.736355 90.624284 
L 591.571187 90.624284 
L 598.40602 88.808757 
L 605.240852 88.746864 
L 612.075685 86.219568 
L 618.910517 85.971996 
L 625.74535 85.910103 
L 632.580182 85.73474 
L 639.415015 85.52843 
L 646.249847 85.363382 
L 653.08468 85.353067 
L 659.919513 85.291174 
L 666.754345 85.043602 
L 673.589178 84.610351 
L 680.42401 82.959872 
L 687.258843 82.887663 
L 694.093675 82.753562 
L 700.928508 82.59883 
L 707.76334 82.516306 
L 714.598173 82.010846 
L 721.433005 81.556965 
L 728.267838 80.896773 
L 735.10267 80.267528 
" style="fill:none;stroke:#1f77b4;stroke-linecap:square;stroke-width:1.5;"/>
   </g>
   <g id="line2d_23">
    <path clip-path="url(#pc28090265c)" d="M 85.79358 166.030546 
L 92.628412 157.252061 
L 99.463245 154.404984 
L 106.298077 152.341885 
L 113.13291 146.854043 
L 119.967742 144.574318 
L 126.802575 143.047625 
L 133.637407 136.46634 
L 140.47224 133.557371 
L 147.307072 132.845602 
L 154.141905 131.958469 
L 160.976737 129.25581 
L 167.81157 126.945139 
L 174.646403 126.150846 
L 181.481235 125.531916 
L 188.316068 124.603522 
L 195.1509 121.085938 
L 201.985733 119.858394 
L 208.820565 119.218834 
L 215.655398 118.1976 
L 222.49023 116.887532 
L 229.325063 115.886929 
L 236.159895 113.957932 
L 242.994728 113.112061 
L 249.82956 111.502844 
L 256.664393 110.98707 
L 263.499225 110.553819 
L 270.334058 110.378455 
L 277.168891 109.501638 
L 284.003723 108.8105 
L 290.838556 108.067785 
L 297.673388 107.892421 
L 304.508221 107.376647 
L 311.343053 104.653356 
L 318.177886 104.158212 
L 325.012718 103.518652 
L 331.847551 103.06477 
L 338.682383 102.724359 
L 345.517216 102.383947 
L 352.352048 102.105429 
L 359.186881 101.07388 
L 366.021714 100.857254 
L 372.856546 97.999862 
L 379.691379 96.854843 
L 386.526211 96.535062 
L 393.361044 96.235913 
L 400.195876 95.895502 
L 407.030709 95.637614 
L 413.865541 93.522938 
L 420.700374 93.275366 
L 427.535206 93.048425 
L 434.370039 92.790538 
L 441.204871 92.51202 
L 448.039704 92.00656 
L 454.874536 91.470155 
L 461.709369 91.305107 
L 468.544202 91.263845 
L 475.379034 90.975011 
L 482.213867 90.737755 
L 489.048699 90.356081 
L 495.883532 90.067247 
L 502.718364 89.737152 
L 509.553197 89.582419 
L 516.388029 89.355478 
L 523.222862 89.231692 
L 530.057694 89.169799 
L 536.892527 88.891281 
L 543.727359 88.891281 
L 550.562192 88.705602 
L 557.397025 88.695287 
L 564.231857 88.571501 
L 571.06669 88.385822 
L 577.901522 88.272351 
L 584.736355 88.200143 
L 591.571187 88.169196 
L 598.40602 88.169196 
L 605.240852 88.076357 
L 612.075685 88.076357 
L 618.910517 87.962887 
L 625.74535 87.839101 
L 632.580182 87.426481 
L 639.415015 87.240802 
L 646.249847 87.189225 
L 653.08468 87.178909 
L 659.919513 87.024177 
L 666.754345 87.013861 
L 673.589178 86.921022 
L 680.42401 86.921022 
L 687.258843 86.797236 
L 694.093675 86.446509 
L 700.928508 86.312408 
L 707.76334 86.157675 
L 714.598173 86.05452 
L 721.433005 85.559376 
L 728.267838 85.074548 
L 735.10267 85.012655 
" style="fill:none;stroke:#aec7e8;stroke-linecap:square;stroke-width:1.5;"/>
   </g>
   <g id="line2d_24">
    <path clip-path="url(#pc28090265c)" d="M 85.79358 205.03343 
L 92.628412 163.998394 
L 99.463245 161.594884 
L 106.298077 157.458371 
L 113.13291 153.837632 
L 119.967742 147.266662 
L 126.802575 143.140465 
L 133.637407 140.479067 
L 140.47224 139.086476 
L 147.307072 138.147766 
L 154.141905 137.116216 
L 160.976737 135.238796 
L 167.81157 134.547658 
L 174.646403 133.722419 
L 181.481235 132.701185 
L 188.316068 130.968182 
L 195.1509 129.771584 
L 201.985733 128.378993 
L 208.820565 127.780694 
L 215.655398 127.037978 
L 222.49023 126.016744 
L 229.325063 125.212136 
L 236.159895 124.459105 
L 242.994728 123.602919 
L 249.82956 122.79831 
L 256.664393 122.179381 
L 263.499225 121.777076 
L 270.334058 118.971262 
L 277.168891 118.775268 
L 284.003723 117.392991 
L 290.838556 117.073211 
L 297.673388 115.309262 
L 304.508221 115.06169 
L 311.343053 114.64907 
L 318.177886 114.55623 
L 325.012718 114.03014 
L 331.847551 111.461582 
L 338.682383 110.863284 
L 345.517216 110.57445 
L 352.352048 110.471295 
L 359.186881 110.295931 
L 366.021714 110.099937 
L 372.856546 109.800788 
L 379.691379 109.769841 
L 386.526211 109.707948 
L 393.361044 109.408799 
L 400.195876 108.90334 
L 407.030709 108.624821 
L 413.865541 108.346303 
L 420.700374 108.181255 
L 427.535206 107.727373 
L 434.370039 107.613903 
L 441.204871 107.490117 
L 448.039704 107.201283 
L 454.874536 107.098128 
L 461.709369 106.840241 
L 468.544202 106.551407 
L 475.379034 106.334782 
L 482.213867 106.241942 
L 489.048699 104.374838 
L 495.883532 104.034426 
L 502.718364 104.034426 
L 509.553197 103.621807 
L 516.388029 103.528967 
L 523.222862 103.518652 
L 530.057694 103.467074 
L 536.892527 103.415497 
L 543.727359 103.353604 
L 550.562192 103.054455 
L 557.397025 101.424606 
L 564.231857 101.352398 
L 571.06669 99.227406 
L 577.901522 99.175829 
L 584.736355 98.948888 
L 591.571187 98.794155 
L 598.40602 98.608477 
L 605.240852 98.288696 
L 612.075685 98.237119 
L 618.910517 98.020493 
L 625.74535 97.360302 
L 632.580182 97.102414 
L 639.415015 96.70011 
L 646.249847 96.38033 
L 653.08468 96.122442 
L 659.919513 95.751085 
L 666.754345 94.255338 
L 673.589178 93.997451 
L 680.42401 93.966504 
L 687.258843 93.553884 
L 694.093675 93.553884 
L 700.928508 93.450729 
L 707.76334 93.450729 
L 714.598173 93.430098 
L 721.433005 93.223789 
L 728.267838 92.924639 
L 735.10267 92.759591 
" style="fill:none;stroke:#ff7f0e;stroke-linecap:square;stroke-width:1.5;"/>
   </g>
   <g id="line2d_25"/>
   <g id="line2d_26"/>
   <g id="line2d_27"/>
   <g id="line2d_28"/>
   <g id="line2d_29"/>
   <g id="line2d_30">
    <path clip-path="url(#pc28090265c)" d="M 735.10267 288.430125 
L 735.10267 22.318125 
" style="fill:none;stroke:#ff0000;stroke-linecap:square;stroke-width:1.5;"/>
   </g>
   <g id="patch_3">
    <path d="M 53.328125 265.894845 
L 53.328125 49.269468 
" style="fill:none;stroke:#000000;stroke-linecap:square;stroke-linejoin:miter;stroke-width:0.8;"/>
   </g>
   <g id="patch_4">
    <path d="M 85.79358 288.430125 
L 687.258843 288.430125 
" style="fill:none;stroke:#000000;stroke-linecap:square;stroke-linejoin:miter;stroke-width:0.8;"/>
   </g>
   <g id="text_23">
    <!-- bloaty_fuzz_target (24h, 6 trials/fuzzer) -->
    <g transform="translate(292.352188 16.318125)scale(0.12 -0.12)">
     <defs>
      <path d="M 48.6875 27.296875 
Q 48.6875 37.203125 44.609375 42.84375 
Q 40.53125 48.484375 33.40625 48.484375 
Q 26.265625 48.484375 22.1875 42.84375 
Q 18.109375 37.203125 18.109375 27.296875 
Q 18.109375 17.390625 22.1875 11.75 
Q 26.265625 6.109375 33.40625 6.109375 
Q 40.53125 6.109375 44.609375 11.75 
Q 48.6875 17.390625 48.6875 27.296875 
z
M 18.109375 46.390625 
Q 20.953125 51.265625 25.265625 53.625 
Q 29.59375 56 35.59375 56 
Q 45.5625 56 51.78125 48.09375 
Q 58.015625 40.1875 58.015625 27.296875 
Q 58.015625 14.40625 51.78125 6.484375 
Q 45.5625 -1.421875 35.59375 -1.421875 
Q 29.59375 -1.421875 25.265625 0.953125 
Q 20.953125 3.328125 18.109375 8.203125 
L 18.109375 0 
L 9.078125 0 
L 9.078125 75.984375 
L 18.109375 75.984375 
z
" id="DejaVuSans-98"/>
      <path d="M 9.421875 75.984375 
L 18.40625 75.984375 
L 18.40625 0 
L 9.421875 0 
z
" id="DejaVuSans-108"/>
      <path d="M 32.171875 -5.078125 
Q 28.375 -14.84375 24.75 -17.8125 
Q 21.140625 -20.796875 15.09375 -20.796875 
L 7.90625 -20.796875 
L 7.90625 -13.28125 
L 13.1875 -13.28125 
Q 16.890625 -13.28125 18.9375 -11.515625 
Q 21 -9.765625 23.484375 -3.21875 
L 25.09375 0.875 
L 2.984375 54.6875 
L 12.5 54.6875 
L 29.59375 11.921875 
L 46.6875 54.6875 
L 56.203125 54.6875 
z
" id="DejaVuSans-121"/>
      <path d="M 50.984375 -16.609375 
L 50.984375 -23.578125 
L -0.984375 -23.578125 
L -0.984375 -16.609375 
z
" id="DejaVuSans-95"/>
      <path d="M 37.109375 75.984375 
L 37.109375 68.5 
L 28.515625 68.5 
Q 23.6875 68.5 21.796875 66.546875 
Q 19.921875 64.59375 19.921875 59.515625 
L 19.921875 54.6875 
L 34.71875 54.6875 
L 34.71875 47.703125 
L 19.921875 47.703125 
L 19.921875 0 
L 10.890625 0 
L 10.890625 47.703125 
L 2.296875 47.703125 
L 2.296875 54.6875 
L 10.890625 54.6875 
L 10.890625 58.5 
Q 10.890625 67.625 15.140625 71.796875 
Q 19.390625 75.984375 28.609375 75.984375 
z
" id="DejaVuSans-102"/>
      <path d="M 5.515625 54.6875 
L 48.1875 54.6875 
L 48.1875 46.484375 
L 14.40625 7.171875 
L 48.1875 7.171875 
L 48.1875 0 
L 4.296875 0 
L 4.296875 8.203125 
L 38.09375 47.515625 
L 5.515625 47.515625 
z
" id="DejaVuSans-122"/>
      <path d="M 11.71875 12.40625 
L 22.015625 12.40625 
L 22.015625 4 
L 14.015625 -11.625 
L 7.71875 -11.625 
L 11.71875 4 
z
" id="DejaVuSans-44"/>
      <path d="M 44.28125 53.078125 
L 44.28125 44.578125 
Q 40.484375 46.53125 36.375 47.5 
Q 32.28125 48.484375 27.875 48.484375 
Q 21.1875 48.484375 17.84375 46.4375 
Q 14.5 44.390625 14.5 40.28125 
Q 14.5 37.15625 16.890625 35.375 
Q 19.28125 33.59375 26.515625 31.984375 
L 29.59375 31.296875 
Q 39.15625 29.25 43.1875 25.515625 
Q 47.21875 21.78125 47.21875 15.09375 
Q 47.21875 7.46875 41.1875 3.015625 
Q 35.15625 -1.421875 24.609375 -1.421875 
Q 20.21875 -1.421875 15.453125 -0.5625 
Q 10.6875 0.296875 5.421875 2 
L 5.421875 11.28125 
Q 10.40625 8.6875 15.234375 7.390625 
Q 20.0625 6.109375 24.8125 6.109375 
Q 31.15625 6.109375 34.5625 8.28125 
Q 37.984375 10.453125 37.984375 14.40625 
Q 37.984375 18.0625 35.515625 20.015625 
Q 33.0625 21.96875 24.703125 23.78125 
L 21.578125 24.515625 
Q 13.234375 26.265625 9.515625 29.90625 
Q 5.8125 33.546875 5.8125 39.890625 
Q 5.8125 47.609375 11.28125 51.796875 
Q 16.75 56 26.8125 56 
Q 31.78125 56 36.171875 55.265625 
Q 40.578125 54.546875 44.28125 53.078125 
z
" id="DejaVuSans-115"/>
      <path d="M 25.390625 72.90625 
L 33.6875 72.90625 
L 8.296875 -9.28125 
L 0 -9.28125 
z
" id="DejaVuSans-47"/>
     </defs>
     <use xlink:href="#DejaVuSans-98"/>
     <use x="63.476562" xlink:href="#DejaVuSans-108"/>
     <use x="91.259766" xlink:href="#DejaVuSans-111"/>
     <use x="152.441406" xlink:href="#DejaVuSans-97"/>
     <use x="213.720703" xlink:href="#DejaVuSans-116"/>
     <use x="252.929688" xlink:href="#DejaVuSans-121"/>
     <use x="312.109375" xlink:href="#DejaVuSans-95"/>
     <use x="362.109375" xlink:href="#DejaVuSans-102"/>
     <use x="397.314453" xlink:href="#DejaVuSans-117"/>
     <use x="460.693359" xlink:href="#DejaVuSans-122"/>
     <use x="513.183594" xlink:href="#DejaVuSans-122"/>
     <use x="565.673828" xlink:href="#DejaVuSans-95"/>
     <use x="615.673828" xlink:href="#DejaVuSans-116"/>
     <use x="654.882812" xlink:href="#DejaVuSans-97"/>
     <use x="716.162109" xlink:href="#DejaVuSans-114"/>
     <use x="755.525391" xlink:href="#DejaVuSans-103"/>
     <use x="819.001953" xlink:href="#DejaVuSans-101"/>
     <use x="880.525391" xlink:href="#DejaVuSans-116"/>
     <use x="919.734375" xlink:href="#DejaVuSans-32"/>
     <use x="951.521484" xlink:href="#DejaVuSans-40"/>
     <use x="990.535156" xlink:href="#DejaVuSans-50"/>
     <use x="1054.158203" xlink:href="#DejaVuSans-52"/>
     <use x="1117.78125" xlink:href="#DejaVuSans-104"/>
     <use x="1181.160156" xlink:href="#DejaVuSans-44"/>
     <use x="1212.947266" xlink:href="#DejaVuSans-32"/>
     <use x="1244.734375" xlink:href="#DejaVuSans-54"/>
     <use x="1308.357422" xlink:href="#DejaVuSans-32"/>
     <use x="1340.144531" xlink:href="#DejaVuSans-116"/>
     <use x="1379.353516" xlink:href="#DejaVuSans-114"/>
     <use x="1420.466797" xlink:href="#DejaVuSans-105"/>
     <use x="1448.25" xlink:href="#DejaVuSans-97"/>
     <use x="1509.529297" xlink:href="#DejaVuSans-108"/>
     <use x="1537.3125" xlink:href="#DejaVuSans-115"/>
     <use x="1589.412109" xlink:href="#DejaVuSans-47"/>
     <use x="1623.103516" xlink:href="#DejaVuSans-102"/>
     <use x="1658.308594" xlink:href="#DejaVuSans-117"/>
     <use x="1721.6875" xlink:href="#DejaVuSans-122"/>
     <use x="1774.177734" xlink:href="#DejaVuSans-122"/>
     <use x="1826.667969" xlink:href="#DejaVuSans-101"/>
     <use x="1888.191406" xlink:href="#DejaVuSans-114"/>
     <use x="1929.304688" xlink:href="#DejaVuSans-41"/>
    </g>
   </g>
   <g id="legend_1">
    <g id="line2d_31">
     <path d="M 771.568125 30.416562 
L 791.568125 30.416562 
" style="fill:none;"/>
    </g>
    <g id="line2d_32"/>
    <g id="text_24">
     <!-- fuzzer -->
     <g transform="translate(799.568125 33.916562)scale(0.1 -0.1)">
      <use xlink:href="#DejaVuSans-102"/>
      <use x="35.205078" xlink:href="#DejaVuSans-117"/>
      <use x="98.583984" xlink:href="#DejaVuSans-122"/>
      <use x="151.074219" xlink:href="#DejaVuSans-122"/>
      <use x="203.564453" xlink:href="#DejaVuSans-101"/>
      <use x="265.087891" xlink:href="#DejaVuSans-114"/>
     </g>
    </g>
    <g id="line2d_33">
     <path d="M 771.568125 45.094688 
L 791.568125 45.094688 
" style="fill:none;stroke:#ffbb78;stroke-linecap:square;stroke-width:1.5;"/>
    </g>
    <g id="line2d_34"/>
    <g id="text_25">
     <!-- fairfuzz -->
     <g transform="translate(799.568125 48.594688)scale(0.1 -0.1)">
      <use xlink:href="#DejaVuSans-102"/>
      <use x="35.205078" xlink:href="#DejaVuSans-97"/>
      <use x="96.484375" xlink:href="#DejaVuSans-105"/>
      <use x="124.267578" xlink:href="#DejaVuSans-114"/>
      <use x="165.380859" xlink:href="#DejaVuSans-102"/>
      <use x="200.585938" xlink:href="#DejaVuSans-117"/>
      <use x="263.964844" xlink:href="#DejaVuSans-122"/>
      <use x="316.455078" xlink:href="#DejaVuSans-122"/>
     </g>
    </g>
    <g id="line2d_35">
     <path d="M 771.568125 59.772812 
L 791.568125 59.772812 
" style="fill:none;stroke:#1f77b4;stroke-linecap:square;stroke-width:1.5;"/>
    </g>
    <g id="line2d_36"/>
    <g id="text_26">
     <!-- afl -->
     <g transform="translate(799.568125 63.272812)scale(0.1 -0.1)">
      <use xlink:href="#DejaVuSans-97"/>
      <use x="61.279297" xlink:href="#DejaVuSans-102"/>
      <use x="96.484375" xlink:href="#DejaVuSans-108"/>
     </g>
    </g>
    <g id="line2d_37">
     <path d="M 771.568125 74.450938 
L 791.568125 74.450938 
" style="fill:none;stroke:#aec7e8;stroke-linecap:square;stroke-width:1.5;"/>
    </g>
    <g id="line2d_38"/>
    <g id="text_27">
     <!-- dark -->
     <g transform="translate(799.568125 77.950938)scale(0.1 -0.1)">
      <defs>
       <path d="M 9.078125 75.984375 
L 18.109375 75.984375 
L 18.109375 31.109375 
L 44.921875 54.6875 
L 56.390625 54.6875 
L 27.390625 29.109375 
L 57.625 0 
L 45.90625 0 
L 18.109375 26.703125 
L 18.109375 0 
L 9.078125 0 
z
" id="DejaVuSans-107"/>
      </defs>
      <use xlink:href="#DejaVuSans-100"/>
      <use x="63.476562" xlink:href="#DejaVuSans-97"/>
      <use x="124.755859" xlink:href="#DejaVuSans-114"/>
      <use x="165.869141" xlink:href="#DejaVuSans-107"/>
     </g>
    </g>
    <g id="line2d_39">
     <path d="M 771.568125 89.129063 
L 791.568125 89.129063 
" style="fill:none;stroke:#ff7f0e;stroke-linecap:square;stroke-width:1.5;"/>
    </g>
    <g id="line2d_40"/>
    <g id="text_28">
     <!-- dark_w_prob -->
     <g transform="translate(799.568125 92.629063)scale(0.1 -0.1)">
      <defs>
       <path d="M 4.203125 54.6875 
L 13.1875 54.6875 
L 24.421875 12.015625 
L 35.59375 54.6875 
L 46.1875 54.6875 
L 57.421875 12.015625 
L 68.609375 54.6875 
L 77.59375 54.6875 
L 63.28125 0 
L 52.6875 0 
L 40.921875 44.828125 
L 29.109375 0 
L 18.5 0 
z
" id="DejaVuSans-119"/>
       <path d="M 18.109375 8.203125 
L 18.109375 -20.796875 
L 9.078125 -20.796875 
L 9.078125 54.6875 
L 18.109375 54.6875 
L 18.109375 46.390625 
Q 20.953125 51.265625 25.265625 53.625 
Q 29.59375 56 35.59375 56 
Q 45.5625 56 51.78125 48.09375 
Q 58.015625 40.1875 58.015625 27.296875 
Q 58.015625 14.40625 51.78125 6.484375 
Q 45.5625 -1.421875 35.59375 -1.421875 
Q 29.59375 -1.421875 25.265625 0.953125 
Q 20.953125 3.328125 18.109375 8.203125 
z
M 48.6875 27.296875 
Q 48.6875 37.203125 44.609375 42.84375 
Q 40.53125 48.484375 33.40625 48.484375 
Q 26.265625 48.484375 22.1875 42.84375 
Q 18.109375 37.203125 18.109375 27.296875 
Q 18.109375 17.390625 22.1875 11.75 
Q 26.265625 6.109375 33.40625 6.109375 
Q 40.53125 6.109375 44.609375 11.75 
Q 48.6875 17.390625 48.6875 27.296875 
z
" id="DejaVuSans-112"/>
      </defs>
      <use xlink:href="#DejaVuSans-100"/>
      <use x="63.476562" xlink:href="#DejaVuSans-97"/>
      <use x="124.755859" xlink:href="#DejaVuSans-114"/>
      <use x="165.869141" xlink:href="#DejaVuSans-107"/>
      <use x="223.779297" xlink:href="#DejaVuSans-95"/>
      <use x="273.779297" xlink:href="#DejaVuSans-119"/>
      <use x="355.566406" xlink:href="#DejaVuSans-95"/>
      <use x="405.566406" xlink:href="#DejaVuSans-112"/>
      <use x="469.042969" xlink:href="#DejaVuSans-114"/>
      <use x="507.90625" xlink:href="#DejaVuSans-111"/>
      <use x="569.087891" xlink:href="#DejaVuSans-98"/>
     </g>
    </g>
   </g>
  </g>
 </g>
 <defs>
  <clipPath id="pc28090265c">
   <rect height="266.112" width="714.24" x="53.328125" y="22.318125"/>
  </clipPath>
 </defs>
</svg>
