<?xml version="1.0" encoding="utf-8" standalone="no"?>
<!DOCTYPE svg PUBLIC "-//W3C//DTD SVG 1.1//EN"
  "http://www.w3.org/Graphics/SVG/1.1/DTD/svg11.dtd">
<!-- Created with matplotlib (https://matplotlib.org/) -->
<svg height="356.559522pt" version="1.1" viewBox="0 0 417.648125 356.559522" width="417.648125pt" xmlns="http://www.w3.org/2000/svg" xmlns:xlink="http://www.w3.org/1999/xlink">
 <metadata>
  <rdf:RDF xmlns:cc="http://creativecommons.org/ns#" xmlns:dc="http://purl.org/dc/elements/1.1/" xmlns:rdf="http://www.w3.org/1999/02/22-rdf-syntax-ns#">
   <cc:Work>
    <dc:type rdf:resource="http://purl.org/dc/dcmitype/StillImage"/>
    <dc:date>2020-08-08T10:44:41.499349</dc:date>
    <dc:format>image/svg+xml</dc:format>
    <dc:creator>
     <cc:Agent>
      <dc:title>Matplotlib v3.3.0, https://matplotlib.org/</dc:title>
     </cc:Agent>
    </dc:creator>
   </cc:Work>
  </rdf:RDF>
 </metadata>
 <defs>
  <style type="text/css">*{stroke-linecap:butt;stroke-linejoin:round;}</style>
 </defs>
 <g id="figure_1">
  <g id="patch_1">
   <path d="M 0 356.559522 
L 417.648125 356.559522 
L 417.648125 -0 
L 0 -0 
z
" style="fill:#ffffff;"/>
  </g>
  <g id="axes_1">
   <g id="patch_2">
    <path d="M 53.328125 288.430125 
L 410.448125 288.430125 
L 410.448125 22.318125 
L 53.328125 22.318125 
z
" style="fill:#ffffff;"/>
   </g>
   <g id="PolyCollection_1">
    <defs>
     <path d="M 99.251387 -80.225397 
L 96.684863 -80.225397 
L 96.473832 -82.669033 
L 96.236326 -85.112669 
L 95.970557 -87.556306 
L 95.674887 -89.999942 
L 95.347884 -92.443578 
L 94.988381 -94.887215 
L 94.595535 -97.330851 
L 94.168889 -99.774488 
L 93.708429 -102.218124 
L 93.214641 -104.66176 
L 92.688558 -107.105397 
L 92.131801 -109.549033 
L 91.546609 -111.992669 
L 90.935856 -114.436306 
L 90.303055 -116.879942 
L 89.65234 -119.323578 
L 88.988442 -121.767215 
L 88.316632 -124.210851 
L 87.642657 -126.654488 
L 86.972652 -129.098124 
L 86.313036 -131.54176 
L 85.670396 -133.985397 
L 85.051348 -136.429033 
L 84.462401 -138.872669 
L 83.909804 -141.316306 
L 83.399398 -143.759942 
L 82.936462 -146.203578 
L 82.525572 -148.647215 
L 82.170469 -151.090851 
L 81.873942 -153.534488 
L 81.637729 -155.978124 
L 81.462449 -158.42176 
L 81.347547 -160.865397 
L 81.291284 -163.309033 
L 81.290746 -165.752669 
L 81.341894 -168.196306 
L 81.439633 -170.639942 
L 81.577927 -173.083578 
L 81.749927 -175.527215 
L 81.948133 -177.970851 
L 82.164579 -180.414488 
L 82.39102 -182.858124 
L 82.619151 -185.30176 
L 82.840811 -187.745397 
L 83.048203 -190.189033 
L 83.234095 -192.632669 
L 83.392017 -195.076306 
L 83.516437 -197.519942 
L 83.602911 -199.963578 
L 83.648211 -202.407215 
L 83.650416 -204.850851 
L 83.608971 -207.294488 
L 83.524711 -209.738124 
L 83.399841 -212.18176 
L 83.237891 -214.625397 
L 83.04362 -217.069033 
L 82.822901 -219.512669 
L 82.582562 -221.956306 
L 82.330213 -224.399942 
L 82.074046 -226.843578 
L 81.822618 -229.287215 
L 81.58463 -231.730851 
L 81.368704 -234.174488 
L 81.183157 -236.618124 
L 81.035789 -239.06176 
L 80.933696 -241.505397 
L 80.883087 -243.949033 
L 80.889146 -246.392669 
L 80.95591 -248.836306 
L 81.08619 -251.279942 
L 81.281522 -253.723578 
L 81.542154 -256.167215 
L 81.867069 -258.610851 
L 82.25404 -261.054488 
L 82.699713 -263.498124 
L 83.199721 -265.94176 
L 83.748818 -268.385397 
L 84.341027 -270.829033 
L 84.969807 -273.272669 
L 85.628218 -275.716306 
L 86.309093 -278.159942 
L 87.005204 -280.603578 
L 87.709419 -283.047215 
L 88.414848 -285.490851 
L 89.114969 -287.934488 
L 89.803741 -290.378124 
L 90.475691 -292.82176 
L 91.125981 -295.265397 
L 91.750459 -297.709033 
L 92.345678 -300.152669 
L 92.908907 -302.596306 
L 93.438114 -305.039942 
L 93.93194 -307.483578 
L 94.389657 -309.927215 
L 94.811113 -312.370851 
L 95.196675 -314.814488 
L 95.547158 -317.258124 
L 95.863762 -319.70176 
L 96.147997 -322.145397 
L 99.788253 -322.145397 
L 99.788253 -322.145397 
L 100.072488 -319.70176 
L 100.389092 -317.258124 
L 100.739575 -314.814488 
L 101.125137 -312.370851 
L 101.546593 -309.927215 
L 102.00431 -307.483578 
L 102.498136 -305.039942 
L 103.027343 -302.596306 
L 103.590572 -300.152669 
L 104.185791 -297.709033 
L 104.810269 -295.265397 
L 105.460559 -292.82176 
L 106.132509 -290.378124 
L 106.821281 -287.934488 
L 107.521402 -285.490851 
L 108.226831 -283.047215 
L 108.931046 -280.603578 
L 109.627157 -278.159942 
L 110.308032 -275.716306 
L 110.966443 -273.272669 
L 111.595223 -270.829033 
L 112.187432 -268.385397 
L 112.736529 -265.94176 
L 113.236537 -263.498124 
L 113.68221 -261.054488 
L 114.069181 -258.610851 
L 114.394096 -256.167215 
L 114.654728 -253.723578 
L 114.85006 -251.279942 
L 114.98034 -248.836306 
L 115.047104 -246.392669 
L 115.053163 -243.949033 
L 115.002554 -241.505397 
L 114.900461 -239.06176 
L 114.753093 -236.618124 
L 114.567546 -234.174488 
L 114.35162 -231.730851 
L 114.113632 -229.287215 
L 113.862204 -226.843578 
L 113.606037 -224.399942 
L 113.353688 -221.956306 
L 113.113349 -219.512669 
L 112.89263 -217.069033 
L 112.698359 -214.625397 
L 112.536409 -212.18176 
L 112.411539 -209.738124 
L 112.327279 -207.294488 
L 112.285834 -204.850851 
L 112.288039 -202.407215 
L 112.333339 -199.963578 
L 112.419813 -197.519942 
L 112.544233 -195.076306 
L 112.702155 -192.632669 
L 112.888047 -190.189033 
L 113.095439 -187.745397 
L 113.317099 -185.30176 
L 113.54523 -182.858124 
L 113.771671 -180.414488 
L 113.988117 -177.970851 
L 114.186323 -175.527215 
L 114.358323 -173.083578 
L 114.496617 -170.639942 
L 114.594356 -168.196306 
L 114.645504 -165.752669 
L 114.644966 -163.309033 
L 114.588703 -160.865397 
L 114.473801 -158.42176 
L 114.298521 -155.978124 
L 114.062308 -153.534488 
L 113.765781 -151.090851 
L 113.410678 -148.647215 
L 112.999788 -146.203578 
L 112.536852 -143.759942 
L 112.026446 -141.316306 
L 111.473849 -138.872669 
L 110.884902 -136.429033 
L 110.265854 -133.985397 
L 109.623214 -131.54176 
L 108.963598 -129.098124 
L 108.293593 -126.654488 
L 107.619618 -124.210851 
L 106.947808 -121.767215 
L 106.28391 -119.323578 
L 105.633195 -116.879942 
L 105.000394 -114.436306 
L 104.389641 -111.992669 
L 103.804449 -109.549033 
L 103.247692 -107.105397 
L 102.721609 -104.66176 
L 102.227821 -102.218124 
L 101.767361 -99.774488 
L 101.340715 -97.330851 
L 100.947869 -94.887215 
L 100.588366 -92.443578 
L 100.261363 -89.999942 
L 99.965693 -87.556306 
L 99.699924 -85.112669 
L 99.462418 -82.669033 
L 99.251387 -80.225397 
z
" id="me939c02e87" style="stroke:#3f3f3f;stroke-width:1.5;"/>
    </defs>
    <g clip-path="url(#p71401e76f3)">
     <use style="fill:#eebb89;stroke:#3f3f3f;stroke-width:1.5;" x="0" xlink:href="#me939c02e87" y="356.559522"/>
    </g>
   </g>
   <g id="PolyCollection_2">
    <defs>
     <path d="M 190.39983 -99.090363 
L 184.09642 -99.090363 
L 183.543385 -101.00448 
L 182.918317 -102.918596 
L 182.216762 -104.832713 
L 181.434909 -106.74683 
L 180.569778 -108.660947 
L 179.619408 -110.575063 
L 178.58305 -112.48918 
L 177.461335 -114.403297 
L 176.256442 -116.317414 
L 174.972225 -118.23153 
L 173.61432 -120.145647 
L 172.190204 -122.059764 
L 170.709216 -123.973881 
L 169.182517 -125.887997 
L 167.62301 -127.802114 
L 166.045193 -129.716231 
L 164.464968 -131.630348 
L 162.899385 -133.544464 
L 161.366356 -135.458581 
L 159.884312 -137.372698 
L 158.471841 -139.286815 
L 157.147296 -141.200932 
L 155.928396 -143.115048 
L 154.83183 -145.029165 
L 153.872873 -146.943282 
L 153.065026 -148.857399 
L 152.419697 -150.771515 
L 151.945926 -152.685632 
L 151.650165 -154.599749 
L 151.536125 -156.513866 
L 151.604682 -158.427982 
L 151.853858 -160.342099 
L 152.278868 -162.256216 
L 152.87223 -164.170333 
L 153.623948 -166.084449 
L 154.521735 -167.998566 
L 155.551295 -169.912683 
L 156.696644 -171.8268 
L 157.940454 -173.740916 
L 159.264421 -175.655033 
L 160.649642 -177.56915 
L 162.076991 -179.483267 
L 163.527481 -181.397383 
L 164.982617 -183.3115 
L 166.424713 -185.225617 
L 167.837187 -187.139734 
L 169.204808 -189.05385 
L 170.513918 -190.967967 
L 171.7526 -192.882084 
L 172.910807 -194.796201 
L 173.980449 -196.710318 
L 174.955439 -198.624434 
L 175.831697 -200.538551 
L 176.607116 -202.452668 
L 177.281494 -204.366785 
L 177.856437 -206.280901 
L 178.335232 -208.195018 
L 178.722694 -210.109135 
L 179.024995 -212.023252 
L 179.249473 -213.937368 
L 179.404432 -215.851485 
L 179.498927 -217.765602 
L 179.542548 -219.679719 
L 179.545198 -221.593835 
L 179.516875 -223.507952 
L 179.467461 -225.422069 
L 179.40652 -227.336186 
L 179.343106 -229.250302 
L 179.285598 -231.164419 
L 179.241546 -233.078536 
L 179.217551 -234.992653 
L 179.219161 -236.906769 
L 179.250809 -238.820886 
L 179.315771 -240.735003 
L 179.416161 -242.64912 
L 179.552951 -244.563236 
L 179.726024 -246.477353 
L 179.934253 -248.39147 
L 180.175598 -250.305587 
L 180.447227 -252.219704 
L 180.745653 -254.13382 
L 181.066872 -256.047937 
L 181.406515 -257.962054 
L 181.759991 -259.876171 
L 182.122637 -261.790287 
L 182.489842 -263.704404 
L 182.857173 -265.618521 
L 183.220476 -267.532638 
L 183.57596 -269.446754 
L 183.920267 -271.360871 
L 184.250517 -273.274988 
L 184.564332 -275.189105 
L 184.85985 -277.103221 
L 185.135712 -279.017338 
L 185.391046 -280.931455 
L 185.625426 -282.845572 
L 185.838836 -284.759688 
L 186.031614 -286.673805 
L 186.204402 -288.587922 
L 188.291848 -288.587922 
L 188.291848 -288.587922 
L 188.464636 -286.673805 
L 188.657414 -284.759688 
L 188.870824 -282.845572 
L 189.105204 -280.931455 
L 189.360538 -279.017338 
L 189.6364 -277.103221 
L 189.931918 -275.189105 
L 190.245733 -273.274988 
L 190.575983 -271.360871 
L 190.92029 -269.446754 
L 191.275774 -267.532638 
L 191.639077 -265.618521 
L 192.006408 -263.704404 
L 192.373613 -261.790287 
L 192.736259 -259.876171 
L 193.089735 -257.962054 
L 193.429378 -256.047937 
L 193.750597 -254.13382 
L 194.049023 -252.219704 
L 194.320652 -250.305587 
L 194.561997 -248.39147 
L 194.770226 -246.477353 
L 194.943299 -244.563236 
L 195.080089 -242.64912 
L 195.180479 -240.735003 
L 195.245441 -238.820886 
L 195.277089 -236.906769 
L 195.278699 -234.992653 
L 195.254704 -233.078536 
L 195.210652 -231.164419 
L 195.153144 -229.250302 
L 195.08973 -227.336186 
L 195.028789 -225.422069 
L 194.979375 -223.507952 
L 194.951052 -221.593835 
L 194.953702 -219.679719 
L 194.997323 -217.765602 
L 195.091818 -215.851485 
L 195.246777 -213.937368 
L 195.471255 -212.023252 
L 195.773556 -210.109135 
L 196.161018 -208.195018 
L 196.639813 -206.280901 
L 197.214756 -204.366785 
L 197.889134 -202.452668 
L 198.664553 -200.538551 
L 199.540811 -198.624434 
L 200.515801 -196.710318 
L 201.585443 -194.796201 
L 202.74365 -192.882084 
L 203.982332 -190.967967 
L 205.291442 -189.05385 
L 206.659063 -187.139734 
L 208.071537 -185.225617 
L 209.513633 -183.3115 
L 210.968769 -181.397383 
L 212.419259 -179.483267 
L 213.846608 -177.56915 
L 215.231829 -175.655033 
L 216.555796 -173.740916 
L 217.799606 -171.8268 
L 218.944955 -169.912683 
L 219.974515 -167.998566 
L 220.872302 -166.084449 
L 221.62402 -164.170333 
L 222.217382 -162.256216 
L 222.642392 -160.342099 
L 222.891568 -158.427982 
L 222.960125 -156.513866 
L 222.846085 -154.599749 
L 222.550324 -152.685632 
L 222.076553 -150.771515 
L 221.431224 -148.857399 
L 220.623377 -146.943282 
L 219.66442 -145.029165 
L 218.567854 -143.115048 
L 217.348954 -141.200932 
L 216.024409 -139.286815 
L 214.611938 -137.372698 
L 213.129894 -135.458581 
L 211.596865 -133.544464 
L 210.031282 -131.630348 
L 208.451057 -129.716231 
L 206.87324 -127.802114 
L 205.313733 -125.887997 
L 203.787034 -123.973881 
L 202.306046 -122.059764 
L 200.88193 -120.145647 
L 199.524025 -118.23153 
L 198.239808 -116.317414 
L 197.034915 -114.403297 
L 195.9132 -112.48918 
L 194.876842 -110.575063 
L 193.926472 -108.660947 
L 193.061341 -106.74683 
L 192.279488 -104.832713 
L 191.577933 -102.918596 
L 190.952865 -101.00448 
L 190.39983 -99.090363 
z
" id="mf9801d64dd" style="stroke:#3f3f3f;stroke-width:1.5;"/>
    </defs>
    <g clip-path="url(#p71401e76f3)">
     <use style="fill:#e1812c;stroke:#3f3f3f;stroke-width:1.5;" x="0" xlink:href="#mf9801d64dd" y="356.559522"/>
    </g>
   </g>
   <g id="PolyCollection_3">
    <defs>
     <path d="M 279.240024 -90.717621 
L 273.816226 -90.717621 
L 273.395681 -92.724539 
L 272.927222 -94.731457 
L 272.408485 -96.738375 
L 271.837528 -98.745293 
L 271.212925 -100.752211 
L 270.533873 -102.759129 
L 269.80028 -104.766047 
L 269.012862 -106.772965 
L 268.173225 -108.779883 
L 267.28393 -110.786801 
L 266.348549 -112.793719 
L 265.3717 -114.800637 
L 264.359053 -116.807555 
L 263.317315 -118.814473 
L 262.254191 -120.82139 
L 261.178309 -122.828308 
L 260.099119 -124.835226 
L 259.026768 -126.842144 
L 257.971935 -128.849062 
L 256.945662 -130.85598 
L 255.95914 -132.862898 
L 255.023502 -134.869816 
L 254.149588 -136.876734 
L 253.347714 -138.883652 
L 252.627439 -140.89057 
L 251.997344 -142.897488 
L 251.464819 -144.904406 
L 251.035884 -146.911324 
L 250.715021 -148.918242 
L 250.505053 -150.92516 
L 250.407052 -152.932078 
L 250.42029 -154.938996 
L 250.542235 -156.945914 
L 250.768586 -158.952831 
L 251.093351 -160.959749 
L 251.508969 -162.966667 
L 252.006471 -164.973585 
L 252.575666 -166.980503 
L 253.205368 -168.987421 
L 253.883636 -170.994339 
L 254.598034 -173.001257 
L 255.335903 -175.008175 
L 256.084627 -177.015093 
L 256.831905 -179.022011 
L 257.566005 -181.028929 
L 258.276003 -183.035847 
L 258.951996 -185.042765 
L 259.585293 -187.049683 
L 260.168567 -189.056601 
L 260.69598 -191.063519 
L 261.163261 -193.070437 
L 261.567759 -195.077355 
L 261.908441 -197.084272 
L 262.185868 -199.09119 
L 262.402122 -201.098108 
L 262.560712 -203.105026 
L 262.666437 -205.111944 
L 262.725231 -207.118862 
L 262.743982 -209.12578 
L 262.730335 -211.132698 
L 262.692485 -213.139616 
L 262.638956 -215.146534 
L 262.57839 -217.153452 
L 262.519332 -219.16037 
L 262.470024 -221.167288 
L 262.43822 -223.174206 
L 262.431016 -225.181124 
L 262.4547 -227.188042 
L 262.51463 -229.19496 
L 262.615144 -231.201878 
L 262.759493 -233.208796 
L 262.949806 -235.215713 
L 263.187088 -237.222631 
L 263.471243 -239.229549 
L 263.801128 -241.236467 
L 264.174625 -243.243385 
L 264.588739 -245.250303 
L 265.039715 -247.257221 
L 265.523161 -249.264139 
L 266.034185 -251.271057 
L 266.567534 -253.277975 
L 267.117739 -255.284893 
L 267.679246 -257.291811 
L 268.246546 -259.298729 
L 268.814296 -261.305647 
L 269.377422 -263.312565 
L 269.931209 -265.319483 
L 270.471377 -267.326401 
L 270.994132 -269.333319 
L 271.496209 -271.340237 
L 271.974894 -273.347154 
L 272.428028 -275.354072 
L 272.854001 -277.36099 
L 273.251729 -279.367908 
L 273.620624 -281.374826 
L 273.960553 -283.381744 
L 274.271791 -285.388662 
L 274.554973 -287.39558 
L 274.811033 -289.402498 
L 278.245217 -289.402498 
L 278.245217 -289.402498 
L 278.501277 -287.39558 
L 278.784459 -285.388662 
L 279.095697 -283.381744 
L 279.435626 -281.374826 
L 279.804521 -279.367908 
L 280.202249 -277.36099 
L 280.628222 -275.354072 
L 281.081356 -273.347154 
L 281.560041 -271.340237 
L 282.062118 -269.333319 
L 282.584873 -267.326401 
L 283.125041 -265.319483 
L 283.678828 -263.312565 
L 284.241954 -261.305647 
L 284.809704 -259.298729 
L 285.377004 -257.291811 
L 285.938511 -255.284893 
L 286.488716 -253.277975 
L 287.022065 -251.271057 
L 287.533089 -249.264139 
L 288.016535 -247.257221 
L 288.467511 -245.250303 
L 288.881625 -243.243385 
L 289.255122 -241.236467 
L 289.585007 -239.229549 
L 289.869162 -237.222631 
L 290.106444 -235.215713 
L 290.296757 -233.208796 
L 290.441106 -231.201878 
L 290.54162 -229.19496 
L 290.60155 -227.188042 
L 290.625234 -225.181124 
L 290.61803 -223.174206 
L 290.586226 -221.167288 
L 290.536918 -219.16037 
L 290.47786 -217.153452 
L 290.417294 -215.146534 
L 290.363765 -213.139616 
L 290.325915 -211.132698 
L 290.312268 -209.12578 
L 290.331019 -207.118862 
L 290.389813 -205.111944 
L 290.495538 -203.105026 
L 290.654128 -201.098108 
L 290.870382 -199.09119 
L 291.147809 -197.084272 
L 291.488491 -195.077355 
L 291.892989 -193.070437 
L 292.36027 -191.063519 
L 292.887683 -189.056601 
L 293.470957 -187.049683 
L 294.104254 -185.042765 
L 294.780247 -183.035847 
L 295.490245 -181.028929 
L 296.224345 -179.022011 
L 296.971623 -177.015093 
L 297.720347 -175.008175 
L 298.458216 -173.001257 
L 299.172614 -170.994339 
L 299.850882 -168.987421 
L 300.480584 -166.980503 
L 301.049779 -164.973585 
L 301.547281 -162.966667 
L 301.962899 -160.959749 
L 302.287664 -158.952831 
L 302.514015 -156.945914 
L 302.63596 -154.938996 
L 302.649198 -152.932078 
L 302.551197 -150.92516 
L 302.341229 -148.918242 
L 302.020366 -146.911324 
L 301.591431 -144.904406 
L 301.058906 -142.897488 
L 300.428811 -140.89057 
L 299.708536 -138.883652 
L 298.906662 -136.876734 
L 298.032748 -134.869816 
L 297.09711 -132.862898 
L 296.110588 -130.85598 
L 295.084315 -128.849062 
L 294.029482 -126.842144 
L 292.957131 -124.835226 
L 291.877941 -122.828308 
L 290.802059 -120.82139 
L 289.738935 -118.814473 
L 288.697197 -116.807555 
L 287.68455 -114.800637 
L 286.707701 -112.793719 
L 285.77232 -110.786801 
L 284.883025 -108.779883 
L 284.043388 -106.772965 
L 283.25597 -104.766047 
L 282.522377 -102.759129 
L 281.843325 -100.752211 
L 281.218722 -98.745293 
L 280.647765 -96.738375 
L 280.129028 -94.731457 
L 279.660569 -92.724539 
L 279.240024 -90.717621 
z
" id="m60ae098154" style="stroke:#3f3f3f;stroke-width:1.5;"/>
    </defs>
    <g clip-path="url(#p71401e76f3)">
     <use style="fill:#b5c8e1;stroke:#3f3f3f;stroke-width:1.5;" x="0" xlink:href="#m60ae098154" y="356.559522"/>
    </g>
   </g>
   <g id="PolyCollection_4">
    <defs>
     <path d="M 369.382864 -94.863862 
L 362.233386 -94.863862 
L 361.608778 -96.914735 
L 360.90398 -98.965608 
L 360.11449 -101.016481 
L 359.236677 -103.067354 
L 358.268006 -105.118227 
L 357.207272 -107.1691 
L 356.054825 -109.219973 
L 354.81278 -111.270846 
L 353.485198 -113.321719 
L 352.078232 -115.372592 
L 350.600223 -117.423466 
L 349.061749 -119.474339 
L 347.475597 -121.525212 
L 345.856676 -123.576085 
L 344.22185 -125.626958 
L 342.589697 -127.677831 
L 340.980199 -129.728704 
L 339.414363 -131.779577 
L 337.913778 -133.83045 
L 336.500138 -135.881323 
L 335.19472 -137.932196 
L 334.017855 -139.983069 
L 332.988396 -142.033942 
L 332.123213 -144.084815 
L 331.436722 -146.135688 
L 330.940479 -148.186561 
L 330.642843 -150.237434 
L 330.548724 -152.288307 
L 330.659437 -154.33918 
L 330.972647 -156.390053 
L 331.482425 -158.440926 
L 332.179408 -160.491799 
L 333.051048 -162.542672 
L 334.081952 -164.593545 
L 335.254292 -166.644418 
L 336.54827 -168.695291 
L 337.942625 -170.746164 
L 339.415155 -172.797037 
L 340.943251 -174.84791 
L 342.5044 -176.898783 
L 344.076679 -178.949656 
L 345.63918 -181.000529 
L 347.172406 -183.051402 
L 348.658579 -185.102275 
L 350.081903 -187.153148 
L 351.428743 -189.204021 
L 352.687747 -191.254894 
L 353.849891 -193.305767 
L 354.908482 -195.35664 
L 355.859094 -197.407513 
L 356.699471 -199.458386 
L 357.429389 -201.509259 
L 358.05049 -203.560132 
L 358.566105 -205.611005 
L 358.98105 -207.661878 
L 359.301431 -209.712751 
L 359.534434 -211.763624 
L 359.688127 -213.814497 
L 359.771264 -215.86537 
L 359.793092 -217.916243 
L 359.763171 -219.967116 
L 359.691199 -222.017989 
L 359.58685 -224.068862 
L 359.45962 -226.119735 
L 359.318678 -228.170608 
L 359.172736 -230.221481 
L 359.029922 -232.272354 
L 358.897675 -234.323227 
L 358.782643 -236.3741 
L 358.690605 -238.424973 
L 358.626408 -240.475846 
L 358.593921 -242.526719 
L 358.596009 -244.577592 
L 358.634534 -246.628465 
L 358.710368 -248.679338 
L 358.823435 -250.730211 
L 358.972768 -252.781084 
L 359.156589 -254.831957 
L 359.372398 -256.88283 
L 359.617086 -258.933703 
L 359.887046 -260.984577 
L 360.178299 -263.03545 
L 360.486617 -265.086323 
L 360.807648 -267.137196 
L 361.137031 -269.188069 
L 361.47051 -271.238942 
L 361.804027 -273.289815 
L 362.133807 -275.340688 
L 362.456427 -277.391561 
L 362.76887 -279.442434 
L 363.068555 -281.493307 
L 363.353363 -283.54418 
L 363.621636 -285.595053 
L 363.872168 -287.645926 
L 364.104187 -289.696799 
L 364.317318 -291.747672 
L 364.511547 -293.798545 
L 364.68718 -295.849418 
L 364.844786 -297.900291 
L 366.771464 -297.900291 
L 366.771464 -297.900291 
L 366.92907 -295.849418 
L 367.104703 -293.798545 
L 367.298932 -291.747672 
L 367.512063 -289.696799 
L 367.744082 -287.645926 
L 367.994614 -285.595053 
L 368.262887 -283.54418 
L 368.547695 -281.493307 
L 368.84738 -279.442434 
L 369.159823 -277.391561 
L 369.482443 -275.340688 
L 369.812223 -273.289815 
L 370.14574 -271.238942 
L 370.479219 -269.188069 
L 370.808602 -267.137196 
L 371.129633 -265.086323 
L 371.437951 -263.03545 
L 371.729204 -260.984577 
L 371.999164 -258.933703 
L 372.243852 -256.88283 
L 372.459661 -254.831957 
L 372.643482 -252.781084 
L 372.792815 -250.730211 
L 372.905882 -248.679338 
L 372.981716 -246.628465 
L 373.020241 -244.577592 
L 373.022329 -242.526719 
L 372.989842 -240.475846 
L 372.925645 -238.424973 
L 372.833607 -236.3741 
L 372.718575 -234.323227 
L 372.586328 -232.272354 
L 372.443514 -230.221481 
L 372.297572 -228.170608 
L 372.15663 -226.119735 
L 372.0294 -224.068862 
L 371.925051 -222.017989 
L 371.853079 -219.967116 
L 371.823158 -217.916243 
L 371.844986 -215.86537 
L 371.928123 -213.814497 
L 372.081816 -211.763624 
L 372.314819 -209.712751 
L 372.6352 -207.661878 
L 373.050145 -205.611005 
L 373.56576 -203.560132 
L 374.186861 -201.509259 
L 374.916779 -199.458386 
L 375.757156 -197.407513 
L 376.707768 -195.35664 
L 377.766359 -193.305767 
L 378.928503 -191.254894 
L 380.187507 -189.204021 
L 381.534347 -187.153148 
L 382.957671 -185.102275 
L 384.443844 -183.051402 
L 385.97707 -181.000529 
L 387.539571 -178.949656 
L 389.11185 -176.898783 
L 390.672999 -174.84791 
L 392.201095 -172.797037 
L 393.673625 -170.746164 
L 395.06798 -168.695291 
L 396.361958 -166.644418 
L 397.534298 -164.593545 
L 398.565202 -162.542672 
L 399.436842 -160.491799 
L 400.133825 -158.440926 
L 400.643603 -156.390053 
L 400.956813 -154.33918 
L 401.067526 -152.288307 
L 400.973407 -150.237434 
L 400.675771 -148.186561 
L 400.179528 -146.135688 
L 399.493037 -144.084815 
L 398.627854 -142.033942 
L 397.598395 -139.983069 
L 396.42153 -137.932196 
L 395.116112 -135.881323 
L 393.702472 -133.83045 
L 392.201887 -131.779577 
L 390.636051 -129.728704 
L 389.026553 -127.677831 
L 387.3944 -125.626958 
L 385.759574 -123.576085 
L 384.140653 -121.525212 
L 382.554501 -119.474339 
L 381.016027 -117.423466 
L 379.538018 -115.372592 
L 378.131052 -113.321719 
L 376.80347 -111.270846 
L 375.561425 -109.219973 
L 374.408978 -107.1691 
L 373.348244 -105.118227 
L 372.379573 -103.067354 
L 371.50176 -101.016481 
L 370.71227 -98.965608 
L 370.007472 -96.914735 
L 369.382864 -94.863862 
z
" id="m28f7152a3f" style="stroke:#3f3f3f;stroke-width:1.5;"/>
    </defs>
    <g clip-path="url(#p71401e76f3)">
     <use style="fill:#3274a1;stroke:#3f3f3f;stroke-width:1.5;" x="0" xlink:href="#m28f7152a3f" y="356.559522"/>
    </g>
   </g>
   <g id="matplotlib.axis_1">
    <g id="xtick_1">
     <g id="line2d_1">
      <defs>
       <path d="M 0 0 
L 0 3.5 
" id="m851db53922" style="stroke:#000000;stroke-width:0.8;"/>
      </defs>
      <g>
       <use style="stroke:#000000;stroke-width:0.8;" x="97.968125" xlink:href="#m851db53922" y="288.430125"/>
      </g>
     </g>
     <g id="text_1">
      <!-- fairfuzz -->
      <g transform="translate(64.97871 320.456659)rotate(-30)scale(0.1 -0.1)">
       <defs>
        <path d="M 37.109375 75.984375 
L 37.109375 68.5 
L 28.515625 68.5 
Q 23.6875 68.5 21.796875 66.546875 
Q 19.921875 64.59375 19.921875 59.515625 
L 19.921875 54.6875 
L 34.71875 54.6875 
L 34.71875 47.703125 
L 19.921875 47.703125 
L 19.921875 0 
L 10.890625 0 
L 10.890625 47.703125 
L 2.296875 47.703125 
L 2.296875 54.6875 
L 10.890625 54.6875 
L 10.890625 58.5 
Q 10.890625 67.625 15.140625 71.796875 
Q 19.390625 75.984375 28.609375 75.984375 
z
" id="DejaVuSans-102"/>
        <path d="M 34.28125 27.484375 
Q 23.390625 27.484375 19.1875 25 
Q 14.984375 22.515625 14.984375 16.5 
Q 14.984375 11.71875 18.140625 8.90625 
Q 21.296875 6.109375 26.703125 6.109375 
Q 34.1875 6.109375 38.703125 11.40625 
Q 43.21875 16.703125 43.21875 25.484375 
L 43.21875 27.484375 
z
M 52.203125 31.203125 
L 52.203125 0 
L 43.21875 0 
L 43.21875 8.296875 
Q 40.140625 3.328125 35.546875 0.953125 
Q 30.953125 -1.421875 24.3125 -1.421875 
Q 15.921875 -1.421875 10.953125 3.296875 
Q 6 8.015625 6 15.921875 
Q 6 25.140625 12.171875 29.828125 
Q 18.359375 34.515625 30.609375 34.515625 
L 43.21875 34.515625 
L 43.21875 35.40625 
Q 43.21875 41.609375 39.140625 45 
Q 35.0625 48.390625 27.6875 48.390625 
Q 23 48.390625 18.546875 47.265625 
Q 14.109375 46.140625 10.015625 43.890625 
L 10.015625 52.203125 
Q 14.9375 54.109375 19.578125 55.046875 
Q 24.21875 56 28.609375 56 
Q 40.484375 56 46.34375 49.84375 
Q 52.203125 43.703125 52.203125 31.203125 
z
" id="DejaVuSans-97"/>
        <path d="M 9.421875 54.6875 
L 18.40625 54.6875 
L 18.40625 0 
L 9.421875 0 
z
M 9.421875 75.984375 
L 18.40625 75.984375 
L 18.40625 64.59375 
L 9.421875 64.59375 
z
" id="DejaVuSans-105"/>
        <path d="M 41.109375 46.296875 
Q 39.59375 47.171875 37.8125 47.578125 
Q 36.03125 48 33.890625 48 
Q 26.265625 48 22.1875 43.046875 
Q 18.109375 38.09375 18.109375 28.8125 
L 18.109375 0 
L 9.078125 0 
L 9.078125 54.6875 
L 18.109375 54.6875 
L 18.109375 46.1875 
Q 20.953125 51.171875 25.484375 53.578125 
Q 30.03125 56 36.53125 56 
Q 37.453125 56 38.578125 55.875 
Q 39.703125 55.765625 41.0625 55.515625 
z
" id="DejaVuSans-114"/>
        <path d="M 8.5 21.578125 
L 8.5 54.6875 
L 17.484375 54.6875 
L 17.484375 21.921875 
Q 17.484375 14.15625 20.5 10.265625 
Q 23.53125 6.390625 29.59375 6.390625 
Q 36.859375 6.390625 41.078125 11.03125 
Q 45.3125 15.671875 45.3125 23.6875 
L 45.3125 54.6875 
L 54.296875 54.6875 
L 54.296875 0 
L 45.3125 0 
L 45.3125 8.40625 
Q 42.046875 3.421875 37.71875 1 
Q 33.40625 -1.421875 27.6875 -1.421875 
Q 18.265625 -1.421875 13.375 4.4375 
Q 8.5 10.296875 8.5 21.578125 
z
M 31.109375 56 
z
" id="DejaVuSans-117"/>
        <path d="M 5.515625 54.6875 
L 48.1875 54.6875 
L 48.1875 46.484375 
L 14.40625 7.171875 
L 48.1875 7.171875 
L 48.1875 0 
L 4.296875 0 
L 4.296875 8.203125 
L 38.09375 47.515625 
L 5.515625 47.515625 
z
" id="DejaVuSans-122"/>
       </defs>
       <use xlink:href="#DejaVuSans-102"/>
       <use x="35.205078" xlink:href="#DejaVuSans-97"/>
       <use x="96.484375" xlink:href="#DejaVuSans-105"/>
       <use x="124.267578" xlink:href="#DejaVuSans-114"/>
       <use x="165.380859" xlink:href="#DejaVuSans-102"/>
       <use x="200.585938" xlink:href="#DejaVuSans-117"/>
       <use x="263.964844" xlink:href="#DejaVuSans-122"/>
       <use x="316.455078" xlink:href="#DejaVuSans-122"/>
      </g>
     </g>
    </g>
    <g id="xtick_2">
     <g id="line2d_2">
      <g>
       <use style="stroke:#000000;stroke-width:0.8;" x="187.248125" xlink:href="#m851db53922" y="288.430125"/>
      </g>
     </g>
     <g id="text_2">
      <!-- dark_w_prob -->
      <g transform="translate(131.286346 333.639471)rotate(-30)scale(0.1 -0.1)">
       <defs>
        <path d="M 45.40625 46.390625 
L 45.40625 75.984375 
L 54.390625 75.984375 
L 54.390625 0 
L 45.40625 0 
L 45.40625 8.203125 
Q 42.578125 3.328125 38.25 0.953125 
Q 33.9375 -1.421875 27.875 -1.421875 
Q 17.96875 -1.421875 11.734375 6.484375 
Q 5.515625 14.40625 5.515625 27.296875 
Q 5.515625 40.1875 11.734375 48.09375 
Q 17.96875 56 27.875 56 
Q 33.9375 56 38.25 53.625 
Q 42.578125 51.265625 45.40625 46.390625 
z
M 14.796875 27.296875 
Q 14.796875 17.390625 18.875 11.75 
Q 22.953125 6.109375 30.078125 6.109375 
Q 37.203125 6.109375 41.296875 11.75 
Q 45.40625 17.390625 45.40625 27.296875 
Q 45.40625 37.203125 41.296875 42.84375 
Q 37.203125 48.484375 30.078125 48.484375 
Q 22.953125 48.484375 18.875 42.84375 
Q 14.796875 37.203125 14.796875 27.296875 
z
" id="DejaVuSans-100"/>
        <path d="M 9.078125 75.984375 
L 18.109375 75.984375 
L 18.109375 31.109375 
L 44.921875 54.6875 
L 56.390625 54.6875 
L 27.390625 29.109375 
L 57.625 0 
L 45.90625 0 
L 18.109375 26.703125 
L 18.109375 0 
L 9.078125 0 
z
" id="DejaVuSans-107"/>
        <path d="M 50.984375 -16.609375 
L 50.984375 -23.578125 
L -0.984375 -23.578125 
L -0.984375 -16.609375 
z
" id="DejaVuSans-95"/>
        <path d="M 4.203125 54.6875 
L 13.1875 54.6875 
L 24.421875 12.015625 
L 35.59375 54.6875 
L 46.1875 54.6875 
L 57.421875 12.015625 
L 68.609375 54.6875 
L 77.59375 54.6875 
L 63.28125 0 
L 52.6875 0 
L 40.921875 44.828125 
L 29.109375 0 
L 18.5 0 
z
" id="DejaVuSans-119"/>
        <path d="M 18.109375 8.203125 
L 18.109375 -20.796875 
L 9.078125 -20.796875 
L 9.078125 54.6875 
L 18.109375 54.6875 
L 18.109375 46.390625 
Q 20.953125 51.265625 25.265625 53.625 
Q 29.59375 56 35.59375 56 
Q 45.5625 56 51.78125 48.09375 
Q 58.015625 40.1875 58.015625 27.296875 
Q 58.015625 14.40625 51.78125 6.484375 
Q 45.5625 -1.421875 35.59375 -1.421875 
Q 29.59375 -1.421875 25.265625 0.953125 
Q 20.953125 3.328125 18.109375 8.203125 
z
M 48.6875 27.296875 
Q 48.6875 37.203125 44.609375 42.84375 
Q 40.53125 48.484375 33.40625 48.484375 
Q 26.265625 48.484375 22.1875 42.84375 
Q 18.109375 37.203125 18.109375 27.296875 
Q 18.109375 17.390625 22.1875 11.75 
Q 26.265625 6.109375 33.40625 6.109375 
Q 40.53125 6.109375 44.609375 11.75 
Q 48.6875 17.390625 48.6875 27.296875 
z
" id="DejaVuSans-112"/>
        <path d="M 30.609375 48.390625 
Q 23.390625 48.390625 19.1875 42.75 
Q 14.984375 37.109375 14.984375 27.296875 
Q 14.984375 17.484375 19.15625 11.84375 
Q 23.34375 6.203125 30.609375 6.203125 
Q 37.796875 6.203125 41.984375 11.859375 
Q 46.1875 17.53125 46.1875 27.296875 
Q 46.1875 37.015625 41.984375 42.703125 
Q 37.796875 48.390625 30.609375 48.390625 
z
M 30.609375 56 
Q 42.328125 56 49.015625 48.375 
Q 55.71875 40.765625 55.71875 27.296875 
Q 55.71875 13.875 49.015625 6.21875 
Q 42.328125 -1.421875 30.609375 -1.421875 
Q 18.84375 -1.421875 12.171875 6.21875 
Q 5.515625 13.875 5.515625 27.296875 
Q 5.515625 40.765625 12.171875 48.375 
Q 18.84375 56 30.609375 56 
z
" id="DejaVuSans-111"/>
        <path d="M 48.6875 27.296875 
Q 48.6875 37.203125 44.609375 42.84375 
Q 40.53125 48.484375 33.40625 48.484375 
Q 26.265625 48.484375 22.1875 42.84375 
Q 18.109375 37.203125 18.109375 27.296875 
Q 18.109375 17.390625 22.1875 11.75 
Q 26.265625 6.109375 33.40625 6.109375 
Q 40.53125 6.109375 44.609375 11.75 
Q 48.6875 17.390625 48.6875 27.296875 
z
M 18.109375 46.390625 
Q 20.953125 51.265625 25.265625 53.625 
Q 29.59375 56 35.59375 56 
Q 45.5625 56 51.78125 48.09375 
Q 58.015625 40.1875 58.015625 27.296875 
Q 58.015625 14.40625 51.78125 6.484375 
Q 45.5625 -1.421875 35.59375 -1.421875 
Q 29.59375 -1.421875 25.265625 0.953125 
Q 20.953125 3.328125 18.109375 8.203125 
L 18.109375 0 
L 9.078125 0 
L 9.078125 75.984375 
L 18.109375 75.984375 
z
" id="DejaVuSans-98"/>
       </defs>
       <use xlink:href="#DejaVuSans-100"/>
       <use x="63.476562" xlink:href="#DejaVuSans-97"/>
       <use x="124.755859" xlink:href="#DejaVuSans-114"/>
       <use x="165.869141" xlink:href="#DejaVuSans-107"/>
       <use x="223.779297" xlink:href="#DejaVuSans-95"/>
       <use x="273.779297" xlink:href="#DejaVuSans-119"/>
       <use x="355.566406" xlink:href="#DejaVuSans-95"/>
       <use x="405.566406" xlink:href="#DejaVuSans-112"/>
       <use x="469.042969" xlink:href="#DejaVuSans-114"/>
       <use x="507.90625" xlink:href="#DejaVuSans-111"/>
       <use x="569.087891" xlink:href="#DejaVuSans-98"/>
      </g>
     </g>
    </g>
    <g id="xtick_3">
     <g id="line2d_3">
      <g>
       <use style="stroke:#000000;stroke-width:0.8;" x="276.528125" xlink:href="#m851db53922" y="288.430125"/>
      </g>
     </g>
     <g id="text_3">
      <!-- dark -->
      <g transform="translate(256.108257 313.199627)rotate(-30)scale(0.1 -0.1)">
       <use xlink:href="#DejaVuSans-100"/>
       <use x="63.476562" xlink:href="#DejaVuSans-97"/>
       <use x="124.755859" xlink:href="#DejaVuSans-114"/>
       <use x="165.869141" xlink:href="#DejaVuSans-107"/>
      </g>
     </g>
    </g>
    <g id="xtick_4">
     <g id="line2d_4">
      <g>
       <use style="stroke:#000000;stroke-width:0.8;" x="365.808125" xlink:href="#m851db53922" y="288.430125"/>
      </g>
     </g>
     <g id="text_4">
      <!-- afl -->
      <g transform="translate(354.006562 308.223846)rotate(-30)scale(0.1 -0.1)">
       <defs>
        <path d="M 9.421875 75.984375 
L 18.40625 75.984375 
L 18.40625 0 
L 9.421875 0 
z
" id="DejaVuSans-108"/>
       </defs>
       <use xlink:href="#DejaVuSans-97"/>
       <use x="61.279297" xlink:href="#DejaVuSans-102"/>
       <use x="96.484375" xlink:href="#DejaVuSans-108"/>
      </g>
     </g>
    </g>
    <g id="text_5">
     <!-- Fuzzer (highest median coverage on the left) -->
     <g transform="translate(119.270156 347.279834)scale(0.1 -0.1)">
      <defs>
       <path d="M 9.8125 72.90625 
L 51.703125 72.90625 
L 51.703125 64.59375 
L 19.671875 64.59375 
L 19.671875 43.109375 
L 48.578125 43.109375 
L 48.578125 34.8125 
L 19.671875 34.8125 
L 19.671875 0 
L 9.8125 0 
z
" id="DejaVuSans-70"/>
       <path d="M 56.203125 29.59375 
L 56.203125 25.203125 
L 14.890625 25.203125 
Q 15.484375 15.921875 20.484375 11.0625 
Q 25.484375 6.203125 34.421875 6.203125 
Q 39.59375 6.203125 44.453125 7.46875 
Q 49.3125 8.734375 54.109375 11.28125 
L 54.109375 2.78125 
Q 49.265625 0.734375 44.1875 -0.34375 
Q 39.109375 -1.421875 33.890625 -1.421875 
Q 20.796875 -1.421875 13.15625 6.1875 
Q 5.515625 13.8125 5.515625 26.8125 
Q 5.515625 40.234375 12.765625 48.109375 
Q 20.015625 56 32.328125 56 
Q 43.359375 56 49.78125 48.890625 
Q 56.203125 41.796875 56.203125 29.59375 
z
M 47.21875 32.234375 
Q 47.125 39.59375 43.09375 43.984375 
Q 39.0625 48.390625 32.421875 48.390625 
Q 24.90625 48.390625 20.390625 44.140625 
Q 15.875 39.890625 15.1875 32.171875 
z
" id="DejaVuSans-101"/>
       <path id="DejaVuSans-32"/>
       <path d="M 31 75.875 
Q 24.46875 64.65625 21.28125 53.65625 
Q 18.109375 42.671875 18.109375 31.390625 
Q 18.109375 20.125 21.3125 9.0625 
Q 24.515625 -2 31 -13.1875 
L 23.1875 -13.1875 
Q 15.875 -1.703125 12.234375 9.375 
Q 8.59375 20.453125 8.59375 31.390625 
Q 8.59375 42.28125 12.203125 53.3125 
Q 15.828125 64.359375 23.1875 75.875 
z
" id="DejaVuSans-40"/>
       <path d="M 54.890625 33.015625 
L 54.890625 0 
L 45.90625 0 
L 45.90625 32.71875 
Q 45.90625 40.484375 42.875 44.328125 
Q 39.84375 48.1875 33.796875 48.1875 
Q 26.515625 48.1875 22.3125 43.546875 
Q 18.109375 38.921875 18.109375 30.90625 
L 18.109375 0 
L 9.078125 0 
L 9.078125 75.984375 
L 18.109375 75.984375 
L 18.109375 46.1875 
Q 21.34375 51.125 25.703125 53.5625 
Q 30.078125 56 35.796875 56 
Q 45.21875 56 50.046875 50.171875 
Q 54.890625 44.34375 54.890625 33.015625 
z
" id="DejaVuSans-104"/>
       <path d="M 45.40625 27.984375 
Q 45.40625 37.75 41.375 43.109375 
Q 37.359375 48.484375 30.078125 48.484375 
Q 22.859375 48.484375 18.828125 43.109375 
Q 14.796875 37.75 14.796875 27.984375 
Q 14.796875 18.265625 18.828125 12.890625 
Q 22.859375 7.515625 30.078125 7.515625 
Q 37.359375 7.515625 41.375 12.890625 
Q 45.40625 18.265625 45.40625 27.984375 
z
M 54.390625 6.78125 
Q 54.390625 -7.171875 48.1875 -13.984375 
Q 42 -20.796875 29.203125 -20.796875 
Q 24.46875 -20.796875 20.265625 -20.09375 
Q 16.0625 -19.390625 12.109375 -17.921875 
L 12.109375 -9.1875 
Q 16.0625 -11.328125 19.921875 -12.34375 
Q 23.78125 -13.375 27.78125 -13.375 
Q 36.625 -13.375 41.015625 -8.765625 
Q 45.40625 -4.15625 45.40625 5.171875 
L 45.40625 9.625 
Q 42.625 4.78125 38.28125 2.390625 
Q 33.9375 0 27.875 0 
Q 17.828125 0 11.671875 7.65625 
Q 5.515625 15.328125 5.515625 27.984375 
Q 5.515625 40.671875 11.671875 48.328125 
Q 17.828125 56 27.875 56 
Q 33.9375 56 38.28125 53.609375 
Q 42.625 51.21875 45.40625 46.390625 
L 45.40625 54.6875 
L 54.390625 54.6875 
z
" id="DejaVuSans-103"/>
       <path d="M 44.28125 53.078125 
L 44.28125 44.578125 
Q 40.484375 46.53125 36.375 47.5 
Q 32.28125 48.484375 27.875 48.484375 
Q 21.1875 48.484375 17.84375 46.4375 
Q 14.5 44.390625 14.5 40.28125 
Q 14.5 37.15625 16.890625 35.375 
Q 19.28125 33.59375 26.515625 31.984375 
L 29.59375 31.296875 
Q 39.15625 29.25 43.1875 25.515625 
Q 47.21875 21.78125 47.21875 15.09375 
Q 47.21875 7.46875 41.1875 3.015625 
Q 35.15625 -1.421875 24.609375 -1.421875 
Q 20.21875 -1.421875 15.453125 -0.5625 
Q 10.6875 0.296875 5.421875 2 
L 5.421875 11.28125 
Q 10.40625 8.6875 15.234375 7.390625 
Q 20.0625 6.109375 24.8125 6.109375 
Q 31.15625 6.109375 34.5625 8.28125 
Q 37.984375 10.453125 37.984375 14.40625 
Q 37.984375 18.0625 35.515625 20.015625 
Q 33.0625 21.96875 24.703125 23.78125 
L 21.578125 24.515625 
Q 13.234375 26.265625 9.515625 29.90625 
Q 5.8125 33.546875 5.8125 39.890625 
Q 5.8125 47.609375 11.28125 51.796875 
Q 16.75 56 26.8125 56 
Q 31.78125 56 36.171875 55.265625 
Q 40.578125 54.546875 44.28125 53.078125 
z
" id="DejaVuSans-115"/>
       <path d="M 18.3125 70.21875 
L 18.3125 54.6875 
L 36.8125 54.6875 
L 36.8125 47.703125 
L 18.3125 47.703125 
L 18.3125 18.015625 
Q 18.3125 11.328125 20.140625 9.421875 
Q 21.96875 7.515625 27.59375 7.515625 
L 36.8125 7.515625 
L 36.8125 0 
L 27.59375 0 
Q 17.1875 0 13.234375 3.875 
Q 9.28125 7.765625 9.28125 18.015625 
L 9.28125 47.703125 
L 2.6875 47.703125 
L 2.6875 54.6875 
L 9.28125 54.6875 
L 9.28125 70.21875 
z
" id="DejaVuSans-116"/>
       <path d="M 52 44.1875 
Q 55.375 50.25 60.0625 53.125 
Q 64.75 56 71.09375 56 
Q 79.640625 56 84.28125 50.015625 
Q 88.921875 44.046875 88.921875 33.015625 
L 88.921875 0 
L 79.890625 0 
L 79.890625 32.71875 
Q 79.890625 40.578125 77.09375 44.375 
Q 74.3125 48.1875 68.609375 48.1875 
Q 61.625 48.1875 57.5625 43.546875 
Q 53.515625 38.921875 53.515625 30.90625 
L 53.515625 0 
L 44.484375 0 
L 44.484375 32.71875 
Q 44.484375 40.625 41.703125 44.40625 
Q 38.921875 48.1875 33.109375 48.1875 
Q 26.21875 48.1875 22.15625 43.53125 
Q 18.109375 38.875 18.109375 30.90625 
L 18.109375 0 
L 9.078125 0 
L 9.078125 54.6875 
L 18.109375 54.6875 
L 18.109375 46.1875 
Q 21.1875 51.21875 25.484375 53.609375 
Q 29.78125 56 35.6875 56 
Q 41.65625 56 45.828125 52.96875 
Q 50 49.953125 52 44.1875 
z
" id="DejaVuSans-109"/>
       <path d="M 54.890625 33.015625 
L 54.890625 0 
L 45.90625 0 
L 45.90625 32.71875 
Q 45.90625 40.484375 42.875 44.328125 
Q 39.84375 48.1875 33.796875 48.1875 
Q 26.515625 48.1875 22.3125 43.546875 
Q 18.109375 38.921875 18.109375 30.90625 
L 18.109375 0 
L 9.078125 0 
L 9.078125 54.6875 
L 18.109375 54.6875 
L 18.109375 46.1875 
Q 21.34375 51.125 25.703125 53.5625 
Q 30.078125 56 35.796875 56 
Q 45.21875 56 50.046875 50.171875 
Q 54.890625 44.34375 54.890625 33.015625 
z
" id="DejaVuSans-110"/>
       <path d="M 48.78125 52.59375 
L 48.78125 44.1875 
Q 44.96875 46.296875 41.140625 47.34375 
Q 37.3125 48.390625 33.40625 48.390625 
Q 24.65625 48.390625 19.8125 42.84375 
Q 14.984375 37.3125 14.984375 27.296875 
Q 14.984375 17.28125 19.8125 11.734375 
Q 24.65625 6.203125 33.40625 6.203125 
Q 37.3125 6.203125 41.140625 7.25 
Q 44.96875 8.296875 48.78125 10.40625 
L 48.78125 2.09375 
Q 45.015625 0.34375 40.984375 -0.53125 
Q 36.96875 -1.421875 32.421875 -1.421875 
Q 20.0625 -1.421875 12.78125 6.34375 
Q 5.515625 14.109375 5.515625 27.296875 
Q 5.515625 40.671875 12.859375 48.328125 
Q 20.21875 56 33.015625 56 
Q 37.15625 56 41.109375 55.140625 
Q 45.0625 54.296875 48.78125 52.59375 
z
" id="DejaVuSans-99"/>
       <path d="M 2.984375 54.6875 
L 12.5 54.6875 
L 29.59375 8.796875 
L 46.6875 54.6875 
L 56.203125 54.6875 
L 35.6875 0 
L 23.484375 0 
z
" id="DejaVuSans-118"/>
       <path d="M 8.015625 75.875 
L 15.828125 75.875 
Q 23.140625 64.359375 26.78125 53.3125 
Q 30.421875 42.28125 30.421875 31.390625 
Q 30.421875 20.453125 26.78125 9.375 
Q 23.140625 -1.703125 15.828125 -13.1875 
L 8.015625 -13.1875 
Q 14.5 -2 17.703125 9.0625 
Q 20.90625 20.125 20.90625 31.390625 
Q 20.90625 42.671875 17.703125 53.65625 
Q 14.5 64.65625 8.015625 75.875 
z
" id="DejaVuSans-41"/>
      </defs>
      <use xlink:href="#DejaVuSans-70"/>
      <use x="52.019531" xlink:href="#DejaVuSans-117"/>
      <use x="115.398438" xlink:href="#DejaVuSans-122"/>
      <use x="167.888672" xlink:href="#DejaVuSans-122"/>
      <use x="220.378906" xlink:href="#DejaVuSans-101"/>
      <use x="281.902344" xlink:href="#DejaVuSans-114"/>
      <use x="323.015625" xlink:href="#DejaVuSans-32"/>
      <use x="354.802734" xlink:href="#DejaVuSans-40"/>
      <use x="393.816406" xlink:href="#DejaVuSans-104"/>
      <use x="457.195312" xlink:href="#DejaVuSans-105"/>
      <use x="484.978516" xlink:href="#DejaVuSans-103"/>
      <use x="548.455078" xlink:href="#DejaVuSans-104"/>
      <use x="611.833984" xlink:href="#DejaVuSans-101"/>
      <use x="673.357422" xlink:href="#DejaVuSans-115"/>
      <use x="725.457031" xlink:href="#DejaVuSans-116"/>
      <use x="764.666016" xlink:href="#DejaVuSans-32"/>
      <use x="796.453125" xlink:href="#DejaVuSans-109"/>
      <use x="893.865234" xlink:href="#DejaVuSans-101"/>
      <use x="955.388672" xlink:href="#DejaVuSans-100"/>
      <use x="1018.865234" xlink:href="#DejaVuSans-105"/>
      <use x="1046.648438" xlink:href="#DejaVuSans-97"/>
      <use x="1107.927734" xlink:href="#DejaVuSans-110"/>
      <use x="1171.306641" xlink:href="#DejaVuSans-32"/>
      <use x="1203.09375" xlink:href="#DejaVuSans-99"/>
      <use x="1258.074219" xlink:href="#DejaVuSans-111"/>
      <use x="1319.255859" xlink:href="#DejaVuSans-118"/>
      <use x="1378.435547" xlink:href="#DejaVuSans-101"/>
      <use x="1439.958984" xlink:href="#DejaVuSans-114"/>
      <use x="1481.072266" xlink:href="#DejaVuSans-97"/>
      <use x="1542.351562" xlink:href="#DejaVuSans-103"/>
      <use x="1605.828125" xlink:href="#DejaVuSans-101"/>
      <use x="1667.351562" xlink:href="#DejaVuSans-32"/>
      <use x="1699.138672" xlink:href="#DejaVuSans-111"/>
      <use x="1760.320312" xlink:href="#DejaVuSans-110"/>
      <use x="1823.699219" xlink:href="#DejaVuSans-32"/>
      <use x="1855.486328" xlink:href="#DejaVuSans-116"/>
      <use x="1894.695312" xlink:href="#DejaVuSans-104"/>
      <use x="1958.074219" xlink:href="#DejaVuSans-101"/>
      <use x="2019.597656" xlink:href="#DejaVuSans-32"/>
      <use x="2051.384766" xlink:href="#DejaVuSans-108"/>
      <use x="2079.167969" xlink:href="#DejaVuSans-101"/>
      <use x="2140.691406" xlink:href="#DejaVuSans-102"/>
      <use x="2174.146484" xlink:href="#DejaVuSans-116"/>
      <use x="2213.355469" xlink:href="#DejaVuSans-41"/>
     </g>
    </g>
   </g>
   <g id="matplotlib.axis_2">
    <g id="ytick_1">
     <g id="line2d_5">
      <defs>
       <path d="M 0 0 
L -3.5 0 
" id="mef5d31aff3" style="stroke:#000000;stroke-width:0.8;"/>
      </defs>
      <g>
       <use style="stroke:#000000;stroke-width:0.8;" x="53.328125" xlink:href="#mef5d31aff3" y="256.279166"/>
      </g>
     </g>
     <g id="text_6">
      <!-- 500 -->
      <g transform="translate(27.240625 260.078385)scale(0.1 -0.1)">
       <defs>
        <path d="M 10.796875 72.90625 
L 49.515625 72.90625 
L 49.515625 64.59375 
L 19.828125 64.59375 
L 19.828125 46.734375 
Q 21.96875 47.46875 24.109375 47.828125 
Q 26.265625 48.1875 28.421875 48.1875 
Q 40.625 48.1875 47.75 41.5 
Q 54.890625 34.8125 54.890625 23.390625 
Q 54.890625 11.625 47.5625 5.09375 
Q 40.234375 -1.421875 26.90625 -1.421875 
Q 22.3125 -1.421875 17.546875 -0.640625 
Q 12.796875 0.140625 7.71875 1.703125 
L 7.71875 11.625 
Q 12.109375 9.234375 16.796875 8.0625 
Q 21.484375 6.890625 26.703125 6.890625 
Q 35.15625 6.890625 40.078125 11.328125 
Q 45.015625 15.765625 45.015625 23.390625 
Q 45.015625 31 40.078125 35.4375 
Q 35.15625 39.890625 26.703125 39.890625 
Q 22.75 39.890625 18.8125 39.015625 
Q 14.890625 38.140625 10.796875 36.28125 
z
" id="DejaVuSans-53"/>
        <path d="M 31.78125 66.40625 
Q 24.171875 66.40625 20.328125 58.90625 
Q 16.5 51.421875 16.5 36.375 
Q 16.5 21.390625 20.328125 13.890625 
Q 24.171875 6.390625 31.78125 6.390625 
Q 39.453125 6.390625 43.28125 13.890625 
Q 47.125 21.390625 47.125 36.375 
Q 47.125 51.421875 43.28125 58.90625 
Q 39.453125 66.40625 31.78125 66.40625 
z
M 31.78125 74.21875 
Q 44.046875 74.21875 50.515625 64.515625 
Q 56.984375 54.828125 56.984375 36.375 
Q 56.984375 17.96875 50.515625 8.265625 
Q 44.046875 -1.421875 31.78125 -1.421875 
Q 19.53125 -1.421875 13.0625 8.265625 
Q 6.59375 17.96875 6.59375 36.375 
Q 6.59375 54.828125 13.0625 64.515625 
Q 19.53125 74.21875 31.78125 74.21875 
z
" id="DejaVuSans-48"/>
       </defs>
       <use xlink:href="#DejaVuSans-53"/>
       <use x="63.623047" xlink:href="#DejaVuSans-48"/>
       <use x="127.246094" xlink:href="#DejaVuSans-48"/>
      </g>
     </g>
    </g>
    <g id="ytick_2">
     <g id="line2d_6">
      <g>
       <use style="stroke:#000000;stroke-width:0.8;" x="53.328125" xlink:href="#mef5d31aff3" y="220.960636"/>
      </g>
     </g>
     <g id="text_7">
      <!-- 1000 -->
      <g transform="translate(20.878125 224.759854)scale(0.1 -0.1)">
       <defs>
        <path d="M 12.40625 8.296875 
L 28.515625 8.296875 
L 28.515625 63.921875 
L 10.984375 60.40625 
L 10.984375 69.390625 
L 28.421875 72.90625 
L 38.28125 72.90625 
L 38.28125 8.296875 
L 54.390625 8.296875 
L 54.390625 0 
L 12.40625 0 
z
" id="DejaVuSans-49"/>
       </defs>
       <use xlink:href="#DejaVuSans-49"/>
       <use x="63.623047" xlink:href="#DejaVuSans-48"/>
       <use x="127.246094" xlink:href="#DejaVuSans-48"/>
       <use x="190.869141" xlink:href="#DejaVuSans-48"/>
      </g>
     </g>
    </g>
    <g id="ytick_3">
     <g id="line2d_7">
      <g>
       <use style="stroke:#000000;stroke-width:0.8;" x="53.328125" xlink:href="#mef5d31aff3" y="185.642105"/>
      </g>
     </g>
     <g id="text_8">
      <!-- 1500 -->
      <g transform="translate(20.878125 189.441324)scale(0.1 -0.1)">
       <use xlink:href="#DejaVuSans-49"/>
       <use x="63.623047" xlink:href="#DejaVuSans-53"/>
       <use x="127.246094" xlink:href="#DejaVuSans-48"/>
       <use x="190.869141" xlink:href="#DejaVuSans-48"/>
      </g>
     </g>
    </g>
    <g id="ytick_4">
     <g id="line2d_8">
      <g>
       <use style="stroke:#000000;stroke-width:0.8;" x="53.328125" xlink:href="#mef5d31aff3" y="150.323575"/>
      </g>
     </g>
     <g id="text_9">
      <!-- 2000 -->
      <g transform="translate(20.878125 154.122794)scale(0.1 -0.1)">
       <defs>
        <path d="M 19.1875 8.296875 
L 53.609375 8.296875 
L 53.609375 0 
L 7.328125 0 
L 7.328125 8.296875 
Q 12.9375 14.109375 22.625 23.890625 
Q 32.328125 33.6875 34.8125 36.53125 
Q 39.546875 41.84375 41.421875 45.53125 
Q 43.3125 49.21875 43.3125 52.78125 
Q 43.3125 58.59375 39.234375 62.25 
Q 35.15625 65.921875 28.609375 65.921875 
Q 23.96875 65.921875 18.8125 64.3125 
Q 13.671875 62.703125 7.8125 59.421875 
L 7.8125 69.390625 
Q 13.765625 71.78125 18.9375 73 
Q 24.125 74.21875 28.421875 74.21875 
Q 39.75 74.21875 46.484375 68.546875 
Q 53.21875 62.890625 53.21875 53.421875 
Q 53.21875 48.921875 51.53125 44.890625 
Q 49.859375 40.875 45.40625 35.40625 
Q 44.1875 33.984375 37.640625 27.21875 
Q 31.109375 20.453125 19.1875 8.296875 
z
" id="DejaVuSans-50"/>
       </defs>
       <use xlink:href="#DejaVuSans-50"/>
       <use x="63.623047" xlink:href="#DejaVuSans-48"/>
       <use x="127.246094" xlink:href="#DejaVuSans-48"/>
       <use x="190.869141" xlink:href="#DejaVuSans-48"/>
      </g>
     </g>
    </g>
    <g id="ytick_5">
     <g id="line2d_9">
      <g>
       <use style="stroke:#000000;stroke-width:0.8;" x="53.328125" xlink:href="#mef5d31aff3" y="115.005045"/>
      </g>
     </g>
     <g id="text_10">
      <!-- 2500 -->
      <g transform="translate(20.878125 118.804264)scale(0.1 -0.1)">
       <use xlink:href="#DejaVuSans-50"/>
       <use x="63.623047" xlink:href="#DejaVuSans-53"/>
       <use x="127.246094" xlink:href="#DejaVuSans-48"/>
       <use x="190.869141" xlink:href="#DejaVuSans-48"/>
      </g>
     </g>
    </g>
    <g id="ytick_6">
     <g id="line2d_10">
      <g>
       <use style="stroke:#000000;stroke-width:0.8;" x="53.328125" xlink:href="#mef5d31aff3" y="79.686515"/>
      </g>
     </g>
     <g id="text_11">
      <!-- 3000 -->
      <g transform="translate(20.878125 83.485733)scale(0.1 -0.1)">
       <defs>
        <path d="M 40.578125 39.3125 
Q 47.65625 37.796875 51.625 33 
Q 55.609375 28.21875 55.609375 21.1875 
Q 55.609375 10.40625 48.1875 4.484375 
Q 40.765625 -1.421875 27.09375 -1.421875 
Q 22.515625 -1.421875 17.65625 -0.515625 
Q 12.796875 0.390625 7.625 2.203125 
L 7.625 11.71875 
Q 11.71875 9.328125 16.59375 8.109375 
Q 21.484375 6.890625 26.8125 6.890625 
Q 36.078125 6.890625 40.9375 10.546875 
Q 45.796875 14.203125 45.796875 21.1875 
Q 45.796875 27.640625 41.28125 31.265625 
Q 36.765625 34.90625 28.71875 34.90625 
L 20.21875 34.90625 
L 20.21875 43.015625 
L 29.109375 43.015625 
Q 36.375 43.015625 40.234375 45.921875 
Q 44.09375 48.828125 44.09375 54.296875 
Q 44.09375 59.90625 40.109375 62.90625 
Q 36.140625 65.921875 28.71875 65.921875 
Q 24.65625 65.921875 20.015625 65.03125 
Q 15.375 64.15625 9.8125 62.3125 
L 9.8125 71.09375 
Q 15.4375 72.65625 20.34375 73.4375 
Q 25.25 74.21875 29.59375 74.21875 
Q 40.828125 74.21875 47.359375 69.109375 
Q 53.90625 64.015625 53.90625 55.328125 
Q 53.90625 49.265625 50.4375 45.09375 
Q 46.96875 40.921875 40.578125 39.3125 
z
" id="DejaVuSans-51"/>
       </defs>
       <use xlink:href="#DejaVuSans-51"/>
       <use x="63.623047" xlink:href="#DejaVuSans-48"/>
       <use x="127.246094" xlink:href="#DejaVuSans-48"/>
       <use x="190.869141" xlink:href="#DejaVuSans-48"/>
      </g>
     </g>
    </g>
    <g id="ytick_7">
     <g id="line2d_11">
      <g>
       <use style="stroke:#000000;stroke-width:0.8;" x="53.328125" xlink:href="#mef5d31aff3" y="44.367984"/>
      </g>
     </g>
     <g id="text_12">
      <!-- 3500 -->
      <g transform="translate(20.878125 48.167203)scale(0.1 -0.1)">
       <use xlink:href="#DejaVuSans-51"/>
       <use x="63.623047" xlink:href="#DejaVuSans-53"/>
       <use x="127.246094" xlink:href="#DejaVuSans-48"/>
       <use x="190.869141" xlink:href="#DejaVuSans-48"/>
      </g>
     </g>
    </g>
    <g id="text_13">
     <!-- Reached edge coverage -->
     <g transform="translate(14.798438 215.82725)rotate(-90)scale(0.1 -0.1)">
      <defs>
       <path d="M 44.390625 34.1875 
Q 47.5625 33.109375 50.5625 29.59375 
Q 53.5625 26.078125 56.59375 19.921875 
L 66.609375 0 
L 56 0 
L 46.6875 18.703125 
Q 43.0625 26.03125 39.671875 28.421875 
Q 36.28125 30.8125 30.421875 30.8125 
L 19.671875 30.8125 
L 19.671875 0 
L 9.8125 0 
L 9.8125 72.90625 
L 32.078125 72.90625 
Q 44.578125 72.90625 50.734375 67.671875 
Q 56.890625 62.453125 56.890625 51.90625 
Q 56.890625 45.015625 53.6875 40.46875 
Q 50.484375 35.9375 44.390625 34.1875 
z
M 19.671875 64.796875 
L 19.671875 38.921875 
L 32.078125 38.921875 
Q 39.203125 38.921875 42.84375 42.21875 
Q 46.484375 45.515625 46.484375 51.90625 
Q 46.484375 58.296875 42.84375 61.546875 
Q 39.203125 64.796875 32.078125 64.796875 
z
" id="DejaVuSans-82"/>
      </defs>
      <use xlink:href="#DejaVuSans-82"/>
      <use x="64.982422" xlink:href="#DejaVuSans-101"/>
      <use x="126.505859" xlink:href="#DejaVuSans-97"/>
      <use x="187.785156" xlink:href="#DejaVuSans-99"/>
      <use x="242.765625" xlink:href="#DejaVuSans-104"/>
      <use x="306.144531" xlink:href="#DejaVuSans-101"/>
      <use x="367.667969" xlink:href="#DejaVuSans-100"/>
      <use x="431.144531" xlink:href="#DejaVuSans-32"/>
      <use x="462.931641" xlink:href="#DejaVuSans-101"/>
      <use x="524.455078" xlink:href="#DejaVuSans-100"/>
      <use x="587.931641" xlink:href="#DejaVuSans-103"/>
      <use x="651.408203" xlink:href="#DejaVuSans-101"/>
      <use x="712.931641" xlink:href="#DejaVuSans-32"/>
      <use x="744.71875" xlink:href="#DejaVuSans-99"/>
      <use x="799.699219" xlink:href="#DejaVuSans-111"/>
      <use x="860.880859" xlink:href="#DejaVuSans-118"/>
      <use x="920.060547" xlink:href="#DejaVuSans-101"/>
      <use x="981.583984" xlink:href="#DejaVuSans-114"/>
      <use x="1022.697266" xlink:href="#DejaVuSans-97"/>
      <use x="1083.976562" xlink:href="#DejaVuSans-103"/>
      <use x="1147.453125" xlink:href="#DejaVuSans-101"/>
     </g>
    </g>
   </g>
   <g id="line2d_12">
    <path clip-path="url(#p71401e76f3)" d="M 97.968125 207.186409 
L 97.968125 103.561841 
" style="fill:none;stroke:#3f3f3f;stroke-linecap:square;stroke-width:1.5;"/>
   </g>
   <g id="line2d_13">
    <path clip-path="url(#p71401e76f3)" d="M 97.968125 192.705811 
L 97.968125 107.92368 
" style="fill:none;stroke:#3f3f3f;stroke-linecap:square;stroke-width:4.5;"/>
   </g>
   <g id="line2d_14">
    <path clip-path="url(#p71401e76f3)" d="M 187.248125 208.457876 
L 187.248125 187.337395 
" style="fill:none;stroke:#3f3f3f;stroke-linecap:square;stroke-width:1.5;"/>
   </g>
   <g id="line2d_15">
    <path clip-path="url(#p71401e76f3)" d="M 187.248125 207.521935 
L 187.248125 187.549306 
" style="fill:none;stroke:#3f3f3f;stroke-linecap:square;stroke-width:4.5;"/>
   </g>
   <g id="line2d_16">
    <path clip-path="url(#p71401e76f3)" d="M 276.528125 208.528513 
L 276.528125 124.470411 
" style="fill:none;stroke:#3f3f3f;stroke-linecap:square;stroke-width:1.5;"/>
   </g>
   <g id="line2d_17">
    <path clip-path="url(#p71401e76f3)" d="M 276.528125 206.638972 
L 276.528125 142.571158 
" style="fill:none;stroke:#3f3f3f;stroke-linecap:square;stroke-width:4.5;"/>
   </g>
   <g id="line2d_18">
    <path clip-path="url(#p71401e76f3)" d="M 365.808125 208.59915 
L 365.808125 197.367857 
" style="fill:none;stroke:#3f3f3f;stroke-linecap:square;stroke-width:1.5;"/>
   </g>
   <g id="line2d_19">
    <path clip-path="url(#p71401e76f3)" d="M 365.808125 205.544097 
L 365.808125 199.292717 
" style="fill:none;stroke:#3f3f3f;stroke-linecap:square;stroke-width:4.5;"/>
   </g>
   <g id="patch_3">
    <path d="M 53.328125 256.279166 
L 53.328125 44.367984 
" style="fill:none;stroke:#000000;stroke-linecap:square;stroke-linejoin:miter;stroke-width:0.8;"/>
   </g>
   <g id="patch_4">
    <path d="M 97.968125 288.430125 
L 365.808125 288.430125 
" style="fill:none;stroke:#000000;stroke-linecap:square;stroke-linejoin:miter;stroke-width:0.8;"/>
   </g>
   <g id="PathCollection_1">
    <defs>
     <path d="M 0 1.5 
C 0.397805 1.5 0.77937 1.341951 1.06066 1.06066 
C 1.341951 0.77937 1.5 0.397805 1.5 0 
C 1.5 -0.397805 1.341951 -0.77937 1.06066 -1.06066 
C 0.77937 -1.341951 0.397805 -1.5 0 -1.5 
C -0.397805 -1.5 -0.77937 -1.341951 -1.06066 -1.06066 
C -1.341951 -0.77937 -1.5 -0.397805 -1.5 0 
C -1.5 0.397805 -1.341951 0.77937 -1.06066 1.06066 
C -0.77937 1.341951 -0.397805 1.5 0 1.5 
z
" id="m62a3fee214" style="stroke:#3f3f3f;"/>
    </defs>
    <g clip-path="url(#p71401e76f3)">
     <use style="fill:#ffffff;stroke:#3f3f3f;" x="97.968125" xlink:href="#m62a3fee214" y="149.864434"/>
    </g>
   </g>
   <g id="PathCollection_2">
    <g clip-path="url(#p71401e76f3)">
     <use style="fill:#ffffff;stroke:#3f3f3f;" x="187.248125" xlink:href="#m62a3fee214" y="196.873398"/>
    </g>
   </g>
   <g id="PathCollection_3">
    <g clip-path="url(#p71401e76f3)">
     <use style="fill:#ffffff;stroke:#3f3f3f;" x="276.528125" xlink:href="#m62a3fee214" y="199.875473"/>
    </g>
   </g>
   <g id="PathCollection_4">
    <g clip-path="url(#p71401e76f3)">
     <use style="fill:#ffffff;stroke:#3f3f3f;" x="365.808125" xlink:href="#m62a3fee214" y="205.067297"/>
    </g>
   </g>
   <g id="text_14">
    <!-- lcms-2017-03-21 (24h, 6 trials/fuzzer) -->
    <g transform="translate(118.00625 16.318125)scale(0.12 -0.12)">
     <defs>
      <path d="M 4.890625 31.390625 
L 31.203125 31.390625 
L 31.203125 23.390625 
L 4.890625 23.390625 
z
" id="DejaVuSans-45"/>
      <path d="M 8.203125 72.90625 
L 55.078125 72.90625 
L 55.078125 68.703125 
L 28.609375 0 
L 18.3125 0 
L 43.21875 64.59375 
L 8.203125 64.59375 
z
" id="DejaVuSans-55"/>
      <path d="M 37.796875 64.3125 
L 12.890625 25.390625 
L 37.796875 25.390625 
z
M 35.203125 72.90625 
L 47.609375 72.90625 
L 47.609375 25.390625 
L 58.015625 25.390625 
L 58.015625 17.1875 
L 47.609375 17.1875 
L 47.609375 0 
L 37.796875 0 
L 37.796875 17.1875 
L 4.890625 17.1875 
L 4.890625 26.703125 
z
" id="DejaVuSans-52"/>
      <path d="M 11.71875 12.40625 
L 22.015625 12.40625 
L 22.015625 4 
L 14.015625 -11.625 
L 7.71875 -11.625 
L 11.71875 4 
z
" id="DejaVuSans-44"/>
      <path d="M 33.015625 40.375 
Q 26.375 40.375 22.484375 35.828125 
Q 18.609375 31.296875 18.609375 23.390625 
Q 18.609375 15.53125 22.484375 10.953125 
Q 26.375 6.390625 33.015625 6.390625 
Q 39.65625 6.390625 43.53125 10.953125 
Q 47.40625 15.53125 47.40625 23.390625 
Q 47.40625 31.296875 43.53125 35.828125 
Q 39.65625 40.375 33.015625 40.375 
z
M 52.59375 71.296875 
L 52.59375 62.3125 
Q 48.875 64.0625 45.09375 64.984375 
Q 41.3125 65.921875 37.59375 65.921875 
Q 27.828125 65.921875 22.671875 59.328125 
Q 17.53125 52.734375 16.796875 39.40625 
Q 19.671875 43.65625 24.015625 45.921875 
Q 28.375 48.1875 33.59375 48.1875 
Q 44.578125 48.1875 50.953125 41.515625 
Q 57.328125 34.859375 57.328125 23.390625 
Q 57.328125 12.15625 50.6875 5.359375 
Q 44.046875 -1.421875 33.015625 -1.421875 
Q 20.359375 -1.421875 13.671875 8.265625 
Q 6.984375 17.96875 6.984375 36.375 
Q 6.984375 53.65625 15.1875 63.9375 
Q 23.390625 74.21875 37.203125 74.21875 
Q 40.921875 74.21875 44.703125 73.484375 
Q 48.484375 72.75 52.59375 71.296875 
z
" id="DejaVuSans-54"/>
      <path d="M 25.390625 72.90625 
L 33.6875 72.90625 
L 8.296875 -9.28125 
L 0 -9.28125 
z
" id="DejaVuSans-47"/>
     </defs>
     <use xlink:href="#DejaVuSans-108"/>
     <use x="27.783203" xlink:href="#DejaVuSans-99"/>
     <use x="82.763672" xlink:href="#DejaVuSans-109"/>
     <use x="180.175781" xlink:href="#DejaVuSans-115"/>
     <use x="232.275391" xlink:href="#DejaVuSans-45"/>
     <use x="268.359375" xlink:href="#DejaVuSans-50"/>
     <use x="331.982422" xlink:href="#DejaVuSans-48"/>
     <use x="395.605469" xlink:href="#DejaVuSans-49"/>
     <use x="459.228516" xlink:href="#DejaVuSans-55"/>
     <use x="522.851562" xlink:href="#DejaVuSans-45"/>
     <use x="558.935547" xlink:href="#DejaVuSans-48"/>
     <use x="622.558594" xlink:href="#DejaVuSans-51"/>
     <use x="686.181641" xlink:href="#DejaVuSans-45"/>
     <use x="722.265625" xlink:href="#DejaVuSans-50"/>
     <use x="785.888672" xlink:href="#DejaVuSans-49"/>
     <use x="849.511719" xlink:href="#DejaVuSans-32"/>
     <use x="881.298828" xlink:href="#DejaVuSans-40"/>
     <use x="920.3125" xlink:href="#DejaVuSans-50"/>
     <use x="983.935547" xlink:href="#DejaVuSans-52"/>
     <use x="1047.558594" xlink:href="#DejaVuSans-104"/>
     <use x="1110.9375" xlink:href="#DejaVuSans-44"/>
     <use x="1142.724609" xlink:href="#DejaVuSans-32"/>
     <use x="1174.511719" xlink:href="#DejaVuSans-54"/>
     <use x="1238.134766" xlink:href="#DejaVuSans-32"/>
     <use x="1269.921875" xlink:href="#DejaVuSans-116"/>
     <use x="1309.130859" xlink:href="#DejaVuSans-114"/>
     <use x="1350.244141" xlink:href="#DejaVuSans-105"/>
     <use x="1378.027344" xlink:href="#DejaVuSans-97"/>
     <use x="1439.306641" xlink:href="#DejaVuSans-108"/>
     <use x="1467.089844" xlink:href="#DejaVuSans-115"/>
     <use x="1519.189453" xlink:href="#DejaVuSans-47"/>
     <use x="1552.880859" xlink:href="#DejaVuSans-102"/>
     <use x="1588.085938" xlink:href="#DejaVuSans-117"/>
     <use x="1651.464844" xlink:href="#DejaVuSans-122"/>
     <use x="1703.955078" xlink:href="#DejaVuSans-122"/>
     <use x="1756.445312" xlink:href="#DejaVuSans-101"/>
     <use x="1817.96875" xlink:href="#DejaVuSans-114"/>
     <use x="1859.082031" xlink:href="#DejaVuSans-41"/>
    </g>
   </g>
  </g>
 </g>
 <defs>
  <clipPath id="p71401e76f3">
   <rect height="266.112" width="357.12" x="53.328125" y="22.318125"/>
  </clipPath>
 </defs>
</svg>
