<?xml version="1.0" encoding="utf-8" standalone="no"?>
<!DOCTYPE svg PUBLIC "-//W3C//DTD SVG 1.1//EN"
  "http://www.w3.org/Graphics/SVG/1.1/DTD/svg11.dtd">
<!-- Created with matplotlib (https://matplotlib.org/) -->
<svg height="325.986375pt" version="1.1" viewBox="0 0 874.025937 325.986375" width="874.025937pt" xmlns="http://www.w3.org/2000/svg" xmlns:xlink="http://www.w3.org/1999/xlink">
 <metadata>
  <rdf:RDF xmlns:cc="http://creativecommons.org/ns#" xmlns:dc="http://purl.org/dc/elements/1.1/" xmlns:rdf="http://www.w3.org/1999/02/22-rdf-syntax-ns#">
   <cc:Work>
    <dc:type rdf:resource="http://purl.org/dc/dcmitype/StillImage"/>
    <dc:date>2020-08-08T10:45:06.833716</dc:date>
    <dc:format>image/svg+xml</dc:format>
    <dc:creator>
     <cc:Agent>
      <dc:title>Matplotlib v3.3.0, https://matplotlib.org/</dc:title>
     </cc:Agent>
    </dc:creator>
   </cc:Work>
  </rdf:RDF>
 </metadata>
 <defs>
  <style type="text/css">*{stroke-linecap:butt;stroke-linejoin:round;}</style>
 </defs>
 <g id="figure_1">
  <g id="patch_1">
   <path d="M 0 325.986375 
L 874.025938 325.986375 
L 874.025938 0 
L 0 0 
z
" style="fill:#ffffff;"/>
  </g>
  <g id="axes_1">
   <g id="patch_2">
    <path d="M 53.328125 288.430125 
L 767.568125 288.430125 
L 767.568125 22.318125 
L 53.328125 22.318125 
z
" style="fill:#ffffff;"/>
   </g>
   <g id="PolyCollection_1">
    <defs>
     <path d="M 85.79358 -157.490218 
L 85.79358 -92.181832 
L 92.628412 -93.190876 
L 99.463245 -97.185024 
L 106.298077 -154.070559 
L 113.13291 -156.091327 
L 119.967742 -156.073445 
L 126.802575 -156.96759 
L 133.637407 -157.450429 
L 140.47224 -157.445958 
L 147.307072 -157.516148 
L 154.141905 -157.821052 
L 160.976737 -158.237277 
L 167.81157 -158.271701 
L 174.646403 -159.809631 
L 181.481235 -160.114088 
L 188.316068 -160.489629 
L 195.1509 -161.276477 
L 201.985733 -161.259488 
L 208.820565 -163.745213 
L 215.655398 -163.637915 
L 222.49023 -164.418951 
L 229.325063 -164.424763 
L 236.159895 -164.818187 
L 242.994728 -168.478372 
L 249.82956 -169.124392 
L 256.664393 -169.253149 
L 263.499225 -172.202935 
L 270.334058 -171.738873 
L 277.168891 -172.15018 
L 284.003723 -172.15018 
L 290.838556 -169.557158 
L 297.673388 -172.257478 
L 304.508221 -172.253007 
L 311.343053 -172.436307 
L 318.177886 -172.257478 
L 325.012718 -172.253007 
L 331.847551 -172.329009 
L 338.682383 -172.329009 
L 345.517216 -172.400541 
L 352.352048 -175.292654 
L 359.186881 -172.45419 
L 366.021714 -171.577927 
L 372.856546 -172.45419 
L 379.691379 -172.972794 
L 386.526211 -172.901262 
L 393.361044 -174.290764 
L 400.195876 -175.427223 
L 407.030709 -176.086209 
L 413.865541 -173.600484 
L 420.700374 -174.247846 
L 427.535206 -174.1173 
L 434.370039 -174.256787 
L 441.204871 -174.256787 
L 448.039704 -174.260364 
L 454.874536 -173.604061 
L 461.709369 -173.616579 
L 468.544202 -174.1173 
L 475.379034 -173.756513 
L 482.213867 -174.140101 
L 489.048699 -174.278246 
L 495.883532 -174.278246 
L 502.718364 -171.023557 
L 509.553197 -174.909066 
L 516.388029 -175.078954 
L 523.222862 -174.543361 
L 530.057694 -177.366178 
L 536.892527 -174.832617 
L 543.727359 -174.974786 
L 550.562192 -175.905591 
L 557.397025 -176.549376 
L 564.231857 -179.801383 
L 571.06669 -176.51361 
L 577.901522 -176.51361 
L 584.736355 -176.51361 
L 591.571187 -175.65523 
L 598.40602 -176.390218 
L 605.240852 -176.656673 
L 612.075685 -175.547933 
L 618.910517 -176.924917 
L 625.74535 -177.264692 
L 632.580182 -177.407756 
L 639.415015 -177.819063 
L 646.249847 -178.968039 
L 653.08468 -178.981452 
L 659.919513 -179.791995 
L 666.754345 -181.824834 
L 673.589178 -179.321227 
L 680.42401 -180.274833 
L 687.258843 -179.312733 
L 694.093675 -179.804065 
L 700.928508 -181.824834 
L 707.76334 -178.677442 
L 714.598173 -181.252581 
L 721.433005 -189.836378 
L 728.267838 -189.836378 
L 735.10267 -191.14183 
L 735.10267 -291.57225 
L 735.10267 -291.57225 
L 728.267838 -286.366982 
L 721.433005 -285.420529 
L 714.598173 -266.907247 
L 707.76334 -269.415325 
L 700.928508 -269.304004 
L 694.093675 -267.967704 
L 687.258843 -269.272262 
L 680.42401 -269.272262 
L 673.589178 -268.002575 
L 666.754345 -267.809887 
L 659.919513 -267.78798 
L 653.08468 -269.291486 
L 646.249847 -266.46241 
L 639.415015 -266.446762 
L 632.580182 -264.926715 
L 625.74535 -266.518294 
L 618.910517 -273.032144 
L 612.075685 -266.108775 
L 605.240852 -272.994142 
L 598.40602 -270.202173 
L 591.571187 -265.838743 
L 584.736355 -267.162079 
L 577.901522 -267.251493 
L 571.06669 -265.871827 
L 564.231857 -265.731446 
L 557.397025 -268.21717 
L 550.562192 -277.033445 
L 543.727359 -264.569057 
L 536.892527 -262.637702 
L 530.057694 -265.640243 
L 523.222862 -264.812711 
L 516.388029 -262.262161 
L 509.553197 -264.122431 
L 502.718364 -262.293456 
L 495.883532 -263.366878 
L 489.048699 -262.154864 
L 482.213867 -264.498866 
L 475.379034 -262.655585 
L 468.544202 -262.439202 
L 461.709369 -263.961038 
L 454.874536 -262.834414 
L 448.039704 -261.171304 
L 441.204871 -261.171304 
L 434.370039 -264.211398 
L 427.535206 -273.788144 
L 420.700374 -264.104101 
L 413.865541 -261.831183 
L 407.030709 -260.430057 
L 400.195876 -262.250537 
L 393.361044 -262.136981 
L 386.526211 -261.986764 
L 379.691379 -260.599051 
L 372.856546 -262.351576 
L 366.021714 -261.30319 
L 359.186881 -262.959595 
L 352.352048 -259.597608 
L 345.517216 -259.670928 
L 338.682383 -257.430199 
L 331.847551 -258.673955 
L 325.012718 -258.672167 
L 318.177886 -258.672167 
L 311.343053 -259.49031 
L 304.508221 -258.81523 
L 297.673388 -255.367406 
L 290.838556 -258.989589 
L 284.003723 -256.825757 
L 277.168891 -255.535505 
L 270.334058 -254.44733 
L 263.499225 -253.858088 
L 256.664393 -232.137059 
L 249.82956 -233.846218 
L 242.994728 -231.592971 
L 236.159895 -184.274793 
L 229.325063 -184.829163 
L 222.49023 -183.380647 
L 215.655398 -183.434296 
L 208.820565 -183.183935 
L 201.985733 -182.218258 
L 195.1509 -181.717537 
L 188.316068 -181.037986 
L 181.481235 -180.895817 
L 174.646403 -181.05721 
L 167.81157 -180.611926 
L 160.976737 -180.733977 
L 154.141905 -180.22029 
L 147.307072 -179.696768 
L 140.47224 -179.179505 
L 133.637407 -179.661002 
L 126.802575 -179.052983 
L 119.967742 -179.750417 
L 113.13291 -178.008174 
L 106.298077 -172.633019 
L 99.463245 -159.23872 
L 92.628412 -158.93471 
L 85.79358 -157.490218 
z
" id="mf70f398229" style="stroke:#ffbb78;stroke-opacity:0.2;"/>
    </defs>
    <g clip-path="url(#p8d9779da77)">
     <use style="fill:#ffbb78;fill-opacity:0.2;stroke:#ffbb78;stroke-opacity:0.2;" x="0" xlink:href="#mf70f398229" y="325.986375"/>
    </g>
   </g>
   <g id="PolyCollection_2">
    <defs>
     <path d="M 85.79358 -127.357963 
L 85.79358 -49.65225 
L 92.628412 -49.831079 
L 99.463245 -145.325816 
L 106.298077 -150.100553 
L 113.13291 -150.968321 
L 119.967742 -151.970658 
L 126.802575 -151.978258 
L 133.637407 -151.906727 
L 140.47224 -151.656366 
L 147.307072 -152.673903 
L 154.141905 -152.602372 
L 160.976737 -152.671668 
L 167.81157 -152.762871 
L 174.646403 -152.872404 
L 181.481235 -152.979701 
L 188.316068 -153.228274 
L 195.1509 -153.513953 
L 201.985733 -153.516188 
L 208.820565 -153.67177 
L 215.655398 -153.802315 
L 222.49023 -153.800527 
L 229.325063 -153.927495 
L 236.159895 -155.034895 
L 242.994728 -155.358128 
L 249.82956 -155.429213 
L 256.664393 -155.393894 
L 263.499225 -155.733669 
L 270.334058 -155.715786 
L 277.168891 -155.608042 
L 284.003723 -155.733669 
L 290.838556 -156.127093 
L 297.673388 -155.966147 
L 304.508221 -156.125305 
L 311.343053 -156.377454 
L 318.177886 -156.484751 
L 325.012718 -156.323805 
L 331.847551 -156.574166 
L 338.682383 -156.609932 
L 345.517216 -156.466869 
L 352.352048 -156.609932 
L 359.186881 -156.609932 
L 366.021714 -156.609932 
L 372.856546 -156.466869 
L 379.691379 -156.609932 
L 386.526211 -156.787867 
L 393.361044 -156.788761 
L 400.195876 -156.824527 
L 407.030709 -156.824527 
L 413.865541 -156.896058 
L 420.700374 -156.896058 
L 427.535206 -158.577052 
L 434.370039 -159.667909 
L 441.204871 -159.256602 
L 448.039704 -159.647791 
L 454.874536 -159.739441 
L 461.709369 -159.737206 
L 468.544202 -159.863727 
L 475.379034 -160.150748 
L 482.213867 -159.737206 
L 489.048699 -159.644215 
L 495.883532 -159.828856 
L 502.718364 -159.828856 
L 509.553197 -160.131077 
L 516.388029 -159.828856 
L 523.222862 -160.168631 
L 530.057694 -159.802031 
L 536.892527 -159.810973 
L 543.727359 -159.79309 
L 550.562192 -159.413078 
L 557.397025 -159.971472 
L 564.231857 -159.971919 
L 571.06669 -159.882504 
L 577.901522 -159.882504 
L 584.736355 -159.880269 
L 591.571187 -159.698757 
L 598.40602 -160.183384 
L 605.240852 -160.185173 
L 612.075685 -160.096652 
L 618.910517 -160.096652 
L 625.74535 -160.069828 
L 632.580182 -160.341648 
L 639.415015 -160.454757 
L 646.249847 -160.079216 
L 653.08468 -160.323765 
L 659.919513 -160.097099 
L 666.754345 -160.079216 
L 673.589178 -160.079216 
L 680.42401 -160.186514 
L 687.258843 -159.739441 
L 694.093675 -160.578597 
L 700.928508 -161.170074 
L 707.76334 -160.86517 
L 714.598173 -161.311796 
L 721.433005 -161.309113 
L 728.267838 -162.135751 
L 735.10267 -162.582824 
L 735.10267 -248.617501 
L 735.10267 -248.617501 
L 728.267838 -244.972517 
L 721.433005 -223.995864 
L 714.598173 -225.871782 
L 707.76334 -225.667022 
L 700.928508 -225.441251 
L 694.093675 -225.376872 
L 687.258843 -224.951259 
L 680.42401 -223.632841 
L 673.589178 -224.86095 
L 666.754345 -223.099037 
L 659.919513 -223.055223 
L 653.08468 -223.009175 
L 646.249847 -223.009175 
L 639.415015 -225.530665 
L 632.580182 -225.512782 
L 625.74535 -225.513229 
L 618.910517 -225.512782 
L 612.075685 -225.513229 
L 605.240852 -224.885539 
L 598.40602 -225.906206 
L 591.571187 -225.325459 
L 584.736355 -222.857617 
L 577.901522 -225.325459 
L 571.06669 -224.976295 
L 564.231857 -222.848229 
L 557.397025 -225.31607 
L 550.562192 -224.982554 
L 543.727359 -225.228891 
L 536.892527 -225.226656 
L 530.057694 -222.348848 
L 523.222862 -222.351531 
L 516.388029 -224.98166 
L 509.553197 -224.976295 
L 502.718364 -222.311741 
L 495.883532 -225.19089 
L 489.048699 -225.19089 
L 482.213867 -224.475573 
L 475.379034 -224.580636 
L 468.544202 -224.564988 
L 461.709369 -225.19089 
L 454.874536 -224.564988 
L 448.039704 -224.217613 
L 441.204871 -222.061381 
L 434.370039 -224.350393 
L 427.535206 -171.730826 
L 420.700374 -170.61225 
L 413.865541 -170.61225 
L 407.030709 -170.771855 
L 400.195876 -170.576484 
L 393.361044 -170.577378 
L 386.526211 -170.577378 
L 379.691379 -171.243517 
L 372.856546 -170.434315 
L 366.021714 -171.309683 
L 359.186881 -170.434315 
L 352.352048 -170.61225 
L 345.517216 -169.646573 
L 338.682383 -170.308688 
L 331.847551 -170.379772 
L 325.012718 -170.309582 
L 318.177886 -170.379772 
L 311.343053 -170.147294 
L 304.508221 -169.986795 
L 297.673388 -169.843285 
L 290.838556 -169.843285 
L 284.003723 -169.664903 
L 277.168891 -169.75387 
L 270.334058 -169.542405 
L 263.499225 -169.271479 
L 256.664393 -169.306351 
L 249.82956 -168.412652 
L 242.994728 -169.467744 
L 236.159895 -168.967022 
L 229.325063 -167.071434 
L 222.49023 -166.999902 
L 215.655398 -167.894048 
L 208.820565 -166.807661 
L 201.985733 -164.675124 
L 195.1509 -164.213745 
L 188.316068 -164.496295 
L 181.481235 -164.496742 
L 174.646403 -164.068893 
L 167.81157 -164.139531 
L 160.976737 -163.745213 
L 154.141905 -164.210168 
L 147.307072 -164.068893 
L 140.47224 -162.81709 
L 133.637407 -162.88728 
L 126.802575 -162.904716 
L 119.967742 -162.904716 
L 113.13291 -162.529175 
L 106.298077 -162.139775 
L 99.463245 -147.400681 
L 92.628412 -128.050925 
L 85.79358 -127.357963 
z
" id="m5813a54ae5" style="stroke:#aec7e8;stroke-opacity:0.2;"/>
    </defs>
    <g clip-path="url(#p8d9779da77)">
     <use style="fill:#aec7e8;fill-opacity:0.2;stroke:#aec7e8;stroke-opacity:0.2;" x="0" xlink:href="#m5813a54ae5" y="325.986375"/>
    </g>
   </g>
   <g id="PolyCollection_3">
    <defs>
     <path d="M 85.79358 -147.257617 
L 85.79358 -69.180387 
L 92.628412 -69.412865 
L 99.463245 -145.987484 
L 106.298077 -147.579063 
L 113.13291 -147.614828 
L 119.967742 -147.685913 
L 126.802575 -147.775775 
L 133.637407 -147.936721 
L 140.47224 -147.936721 
L 147.307072 -148.526857 
L 154.141905 -148.401676 
L 160.976737 -148.722675 
L 167.81157 -148.902398 
L 174.646403 -149.045461 
L 181.481235 -149.188524 
L 188.316068 -150.029021 
L 195.1509 -150.458211 
L 201.985733 -150.761326 
L 208.820565 -151.262942 
L 215.655398 -151.226729 
L 222.49023 -152.443214 
L 229.325063 -152.798637 
L 236.159895 -153.069116 
L 242.994728 -153.264934 
L 249.82956 -153.404867 
L 256.664393 -153.820198 
L 263.499225 -154.177856 
L 270.334058 -154.338802 
L 277.168891 -153.963261 
L 284.003723 -154.374568 
L 290.838556 -154.374568 
L 297.673388 -154.159973 
L 304.508221 -154.374568 
L 311.343053 -154.551609 
L 318.177886 -154.479183 
L 325.012718 -154.890937 
L 331.847551 -155.195394 
L 338.682383 -155.087202 
L 345.517216 -155.197182 
L 352.352048 -155.340245 
L 359.186881 -155.232501 
L 366.021714 -155.197182 
L 372.856546 -155.519074 
L 379.691379 -155.464084 
L 386.526211 -155.697903 
L 393.361044 -155.805201 
L 400.195876 -155.892827 
L 407.030709 -155.892827 
L 413.865541 -155.912498 
L 420.700374 -155.697903 
L 427.535206 -155.965253 
L 434.370039 -156.305922 
L 441.204871 -156.305922 
L 448.039704 -156.305922 
L 454.874536 -156.41322 
L 461.709369 -156.556283 
L 468.544202 -156.377454 
L 475.379034 -156.448092 
L 482.213867 -156.591155 
L 489.048699 -156.553601 
L 495.883532 -156.448092 
L 502.718364 -156.556283 
L 509.553197 -156.555389 
L 516.388029 -156.556283 
L 523.222862 -156.520517 
L 530.057694 -156.484751 
L 536.892527 -156.626921 
L 543.727359 -156.556283 
L 550.562192 -156.824527 
L 557.397025 -156.806644 
L 564.231857 -156.878175 
L 571.06669 -156.806644 
L 577.901522 -156.806644 
L 584.736355 -156.841963 
L 591.571187 -157.021239 
L 598.40602 -156.878175 
L 605.240852 -157.000226 
L 612.075685 -157.110653 
L 618.910517 -158.251583 
L 625.74535 -158.307467 
L 632.580182 -158.416106 
L 639.415015 -158.483167 
L 646.249847 -158.539945 
L 653.08468 -158.25516 
L 659.919513 -160.772179 
L 666.754345 -160.293811 
L 673.589178 -161.007339 
L 680.42401 -161.114637 
L 687.258843 -161.221934 
L 694.093675 -161.116425 
L 700.928508 -161.74188 
L 707.76334 -161.13252 
L 714.598173 -162.421877 
L 721.433005 -162.457643 
L 728.267838 -162.921705 
L 735.10267 -162.994131 
L 735.10267 -236.796898 
L 735.10267 -236.796898 
L 728.267838 -235.420808 
L 721.433005 -233.245352 
L 714.598173 -230.269636 
L 707.76334 -181.037986 
L 700.928508 -180.88017 
L 694.093675 -180.894923 
L 687.258843 -180.329823 
L 680.42401 -181.111306 
L 673.589178 -180.251138 
L 666.754345 -180.733977 
L 659.919513 -179.696768 
L 653.08468 -177.354107 
L 646.249847 -177.319235 
L 639.415015 -177.355001 
L 632.580182 -177.355001 
L 625.74535 -173.419867 
L 618.910517 -173.423443 
L 612.075685 -171.991469 
L 605.240852 -171.917702 
L 598.40602 -172.346892 
L 591.571187 -172.455531 
L 584.736355 -171.989681 
L 577.901522 -172.346892 
L 571.06669 -172.346892 
L 564.231857 -171.953468 
L 557.397025 -172.364775 
L 550.562192 -171.945868 
L 543.727359 -166.859074 
L 536.892527 -166.785307 
L 530.057694 -166.678904 
L 523.222862 -166.805426 
L 516.388029 -166.785307 
L 509.553197 -166.856839 
L 502.718364 -167.331183 
L 495.883532 -166.607372 
L 489.048699 -166.607819 
L 482.213867 -166.679351 
L 475.379034 -167.142966 
L 468.544202 -166.775919 
L 461.709369 -166.863098 
L 454.874536 -166.67801 
L 448.039704 -167.017785 
L 441.204871 -166.749989 
L 434.370039 -166.642244 
L 427.535206 -166.731659 
L 420.700374 -166.624808 
L 413.865541 -167.109882 
L 407.030709 -167.1072 
L 400.195876 -166.731659 
L 393.361044 -166.32527 
L 386.526211 -167.214497 
L 379.691379 -166.749542 
L 372.856546 -166.588595 
L 366.021714 -166.517064 
L 359.186881 -166.159406 
L 352.352048 -166.758036 
L 345.517216 -167.572155 
L 338.682383 -166.752224 
L 331.847551 -166.356118 
L 325.012718 -166.964136 
L 318.177886 -166.752224 
L 311.343053 -166.056132 
L 304.508221 -166.610949 
L 297.673388 -165.873279 
L 290.838556 -166.342705 
L 284.003723 -166.808555 
L 277.168891 -165.857631 
L 270.334058 -166.517064 
L 263.499225 -166.624361 
L 256.664393 -165.765982 
L 249.82956 -165.563905 
L 242.994728 -166.196065 
L 236.159895 -165.964929 
L 229.325063 -165.980576 
L 222.49023 -165.354675 
L 215.655398 -164.621475 
L 208.820565 -164.621475 
L 201.985733 -164.532061 
L 195.1509 -164.443987 
L 188.316068 -164.335796 
L 181.481235 -164.228051 
L 174.646403 -164.22984 
L 167.81157 -164.031339 
L 160.976737 -163.85251 
L 154.141905 -163.763096 
L 147.307072 -163.780979 
L 140.47224 -163.405437 
L 133.637407 -163.745213 
L 126.802575 -163.387555 
L 119.967742 -163.369672 
L 113.13291 -163.387555 
L 106.298077 -163.299928 
L 99.463245 -147.740009 
L 92.628412 -147.507531 
L 85.79358 -147.257617 
z
" id="md5374275a5" style="stroke:#ff7f0e;stroke-opacity:0.2;"/>
    </defs>
    <g clip-path="url(#p8d9779da77)">
     <use style="fill:#ff7f0e;fill-opacity:0.2;stroke:#ff7f0e;stroke-opacity:0.2;" x="0" xlink:href="#md5374275a5" y="325.986375"/>
    </g>
   </g>
   <g id="PolyCollection_4">
    <defs>
     <path d="M 85.79358 -156.305922 
L 85.79358 -89.566904 
L 92.628412 -89.69432 
L 99.463245 -148.2224 
L 106.298077 -148.204964 
L 113.13291 -148.222847 
L 119.967742 -148.220612 
L 126.802575 -148.383346 
L 133.637407 -148.330145 
L 140.47224 -148.401676 
L 147.307072 -148.419112 
L 154.141905 -148.634154 
L 160.976737 -148.920281 
L 167.81157 -148.920281 
L 174.646403 -148.972588 
L 181.481235 -148.973929 
L 188.316068 -149.455874 
L 195.1509 -150.296371 
L 201.985733 -149.97269 
L 208.820565 -149.868075 
L 215.655398 -149.796543 
L 222.49023 -149.973584 
L 229.325063 -150.332584 
L 236.159895 -150.583391 
L 242.994728 -151.117196 
L 249.82956 -150.904837 
L 256.664393 -152.210736 
L 263.499225 -152.264385 
L 270.334058 -152.47585 
L 277.168891 -152.371682 
L 284.003723 -152.353799 
L 290.838556 -152.210736 
L 297.673388 -152.443214 
L 304.508221 -152.532628 
L 311.343053 -152.657809 
L 318.177886 -152.90817 
L 325.012718 -153.407997 
L 331.847551 -153.551954 
L 338.682383 -153.748219 
L 345.517216 -154.57128 
L 352.352048 -155.035342 
L 359.186881 -155.232501 
L 366.021714 -156.230814 
L 372.856546 -156.643015 
L 379.691379 -156.645251 
L 386.526211 -156.537506 
L 393.361044 -156.76909 
L 400.195876 -156.913941 
L 407.030709 -156.985473 
L 413.865541 -156.985473 
L 420.700374 -157.16162 
L 427.535206 -157.05611 
L 434.370039 -157.057005 
L 441.204871 -157.107971 
L 448.039704 -157.414663 
L 454.874536 -158.737998 
L 461.709369 -158.69955 
L 468.544202 -158.915039 
L 475.379034 -158.559169 
L 482.213867 -159.236037 
L 489.048699 -159.488186 
L 495.883532 -159.292368 
L 502.718364 -159.233355 
L 509.553197 -159.23872 
L 516.388029 -159.394748 
L 523.222862 -159.167188 
L 530.057694 -159.202954 
L 536.892527 -159.718876 
L 543.727359 -159.703675 
L 550.562192 -159.757324 
L 557.397025 -159.703675 
L 564.231857 -159.703675 
L 571.06669 -159.828856 
L 577.901522 -159.934812 
L 584.736355 -159.775207 
L 591.571187 -159.55167 
L 598.40602 -159.775207 
L 605.240852 -159.828856 
L 612.075685 -159.828856 
L 618.910517 -159.775207 
L 625.74535 -159.773866 
L 632.580182 -159.775207 
L 639.415015 -159.828856 
L 646.249847 -159.828856 
L 653.08468 -159.827514 
L 659.919513 -159.828856 
L 666.754345 -159.882504 
L 673.589178 -159.827514 
L 680.42401 -159.882504 
L 687.258843 -159.934812 
L 694.093675 -159.828856 
L 700.928508 -159.773866 
L 707.76334 -159.882504 
L 714.598173 -159.882504 
L 721.433005 -160.04345 
L 728.267838 -159.882504 
L 735.10267 -160.039427 
L 735.10267 -234.494026 
L 735.10267 -234.494026 
L 728.267838 -232.751784 
L 721.433005 -232.737478 
L 714.598173 -233.470677 
L 707.76334 -233.631623 
L 700.928508 -233.36338 
L 694.093675 -233.36338 
L 687.258843 -232.751784 
L 680.42401 -232.469234 
L 673.589178 -232.309629 
L 666.754345 -233.04417 
L 659.919513 -232.20099 
L 653.08468 -232.93419 
L 646.249847 -231.932747 
L 639.415015 -231.932747 
L 632.580182 -232.344054 
L 625.74535 -230.716709 
L 618.910517 -231.451249 
L 612.075685 -232.183107 
L 605.240852 -232.183107 
L 598.40602 -232.184449 
L 591.571187 -232.129459 
L 584.736355 -231.236654 
L 577.901522 -231.968513 
L 571.06669 -230.729674 
L 564.231857 -230.72878 
L 557.397025 -232.040044 
L 550.562192 -230.621929 
L 543.727359 -231.77493 
L 536.892527 -231.06319 
L 530.057694 -231.002835 
L 523.222862 -230.591529 
L 516.388029 -231.005518 
L 509.553197 -230.257118 
L 502.718364 -229.572203 
L 495.883532 -229.985298 
L 489.048699 -229.230192 
L 482.213867 -230.734592 
L 475.379034 -230.001393 
L 468.544202 -229.286076 
L 461.709369 -230.001393 
L 454.874536 -229.786798 
L 448.039704 -228.038743 
L 441.204871 -228.624408 
L 434.370039 -227.497785 
L 427.535206 -222.508453 
L 420.700374 -221.435479 
L 413.865541 -221.68584 
L 407.030709 -221.632191 
L 400.195876 -170.595261 
L 393.361044 -169.433766 
L 386.526211 -169.039895 
L 379.691379 -168.609364 
L 372.856546 -168.949139 
L 366.021714 -168.931257 
L 359.186881 -166.231384 
L 352.352048 -166.713776 
L 345.517216 -166.717799 
L 338.682383 -166.427649 
L 331.847551 -166.409766 
L 325.012718 -166.357012 
L 318.177886 -166.195171 
L 311.343053 -165.998459 
L 304.508221 -166.320352 
L 297.673388 -165.91128 
L 290.838556 -165.69445 
L 284.003723 -165.83796 
L 277.168891 -165.588941 
L 270.334058 -166.536735 
L 263.499225 -165.805771 
L 256.664393 -165.515621 
L 249.82956 -165.461972 
L 242.994728 -165.248718 
L 236.159895 -165.28359 
L 229.325063 -165.247377 
L 222.49023 -164.83607 
L 215.655398 -165.251848 
L 208.820565 -165.891162 
L 201.985733 -165.211611 
L 195.1509 -165.193728 
L 188.316068 -159.810973 
L 181.481235 -159.937494 
L 174.646403 -159.597719 
L 167.81157 -159.41889 
L 160.976737 -159.937494 
L 154.141905 -159.578495 
L 147.307072 -159.042008 
L 140.47224 -159.220837 
L 133.637407 -159.042008 
L 126.802575 -159.220837 
L 119.967742 -159.042455 
L 113.13291 -158.702679 
L 106.298077 -158.988806 
L 99.463245 -157.504077 
L 92.628412 -155.717575 
L 85.79358 -156.305922 
z
" id="m1036007221" style="stroke:#1f77b4;stroke-opacity:0.2;"/>
    </defs>
    <g clip-path="url(#p8d9779da77)">
     <use style="fill:#1f77b4;fill-opacity:0.2;stroke:#1f77b4;stroke-opacity:0.2;" x="0" xlink:href="#m1036007221" y="325.986375"/>
    </g>
   </g>
   <g id="matplotlib.axis_1">
    <g id="xtick_1">
     <g id="line2d_1">
      <defs>
       <path d="M 0 0 
L 0 3.5 
" id="m33a41a46ca" style="stroke:#000000;stroke-width:0.8;"/>
      </defs>
      <g>
       <use style="stroke:#000000;stroke-width:0.8;" x="85.79358" xlink:href="#m33a41a46ca" y="288.430125"/>
      </g>
     </g>
     <g id="text_1">
      <!-- 15m -->
      <g transform="translate(74.560767 303.028562)scale(0.1 -0.1)">
       <defs>
        <path d="M 12.40625 8.296875 
L 28.515625 8.296875 
L 28.515625 63.921875 
L 10.984375 60.40625 
L 10.984375 69.390625 
L 28.421875 72.90625 
L 38.28125 72.90625 
L 38.28125 8.296875 
L 54.390625 8.296875 
L 54.390625 0 
L 12.40625 0 
z
" id="DejaVuSans-49"/>
        <path d="M 10.796875 72.90625 
L 49.515625 72.90625 
L 49.515625 64.59375 
L 19.828125 64.59375 
L 19.828125 46.734375 
Q 21.96875 47.46875 24.109375 47.828125 
Q 26.265625 48.1875 28.421875 48.1875 
Q 40.625 48.1875 47.75 41.5 
Q 54.890625 34.8125 54.890625 23.390625 
Q 54.890625 11.625 47.5625 5.09375 
Q 40.234375 -1.421875 26.90625 -1.421875 
Q 22.3125 -1.421875 17.546875 -0.640625 
Q 12.796875 0.140625 7.71875 1.703125 
L 7.71875 11.625 
Q 12.109375 9.234375 16.796875 8.0625 
Q 21.484375 6.890625 26.703125 6.890625 
Q 35.15625 6.890625 40.078125 11.328125 
Q 45.015625 15.765625 45.015625 23.390625 
Q 45.015625 31 40.078125 35.4375 
Q 35.15625 39.890625 26.703125 39.890625 
Q 22.75 39.890625 18.8125 39.015625 
Q 14.890625 38.140625 10.796875 36.28125 
z
" id="DejaVuSans-53"/>
        <path d="M 52 44.1875 
Q 55.375 50.25 60.0625 53.125 
Q 64.75 56 71.09375 56 
Q 79.640625 56 84.28125 50.015625 
Q 88.921875 44.046875 88.921875 33.015625 
L 88.921875 0 
L 79.890625 0 
L 79.890625 32.71875 
Q 79.890625 40.578125 77.09375 44.375 
Q 74.3125 48.1875 68.609375 48.1875 
Q 61.625 48.1875 57.5625 43.546875 
Q 53.515625 38.921875 53.515625 30.90625 
L 53.515625 0 
L 44.484375 0 
L 44.484375 32.71875 
Q 44.484375 40.625 41.703125 44.40625 
Q 38.921875 48.1875 33.109375 48.1875 
Q 26.21875 48.1875 22.15625 43.53125 
Q 18.109375 38.875 18.109375 30.90625 
L 18.109375 0 
L 9.078125 0 
L 9.078125 54.6875 
L 18.109375 54.6875 
L 18.109375 46.1875 
Q 21.1875 51.21875 25.484375 53.609375 
Q 29.78125 56 35.6875 56 
Q 41.65625 56 45.828125 52.96875 
Q 50 49.953125 52 44.1875 
z
" id="DejaVuSans-109"/>
       </defs>
       <use xlink:href="#DejaVuSans-49"/>
       <use x="63.623047" xlink:href="#DejaVuSans-53"/>
       <use x="127.246094" xlink:href="#DejaVuSans-109"/>
      </g>
     </g>
    </g>
    <g id="xtick_2">
     <g id="line2d_2">
      <g>
       <use style="stroke:#000000;stroke-width:0.8;" x="140.47224" xlink:href="#m33a41a46ca" y="288.430125"/>
      </g>
     </g>
     <g id="text_2">
      <!-- 2h:15m -->
      <g transform="translate(121.205052 303.028562)scale(0.1 -0.1)">
       <defs>
        <path d="M 19.1875 8.296875 
L 53.609375 8.296875 
L 53.609375 0 
L 7.328125 0 
L 7.328125 8.296875 
Q 12.9375 14.109375 22.625 23.890625 
Q 32.328125 33.6875 34.8125 36.53125 
Q 39.546875 41.84375 41.421875 45.53125 
Q 43.3125 49.21875 43.3125 52.78125 
Q 43.3125 58.59375 39.234375 62.25 
Q 35.15625 65.921875 28.609375 65.921875 
Q 23.96875 65.921875 18.8125 64.3125 
Q 13.671875 62.703125 7.8125 59.421875 
L 7.8125 69.390625 
Q 13.765625 71.78125 18.9375 73 
Q 24.125 74.21875 28.421875 74.21875 
Q 39.75 74.21875 46.484375 68.546875 
Q 53.21875 62.890625 53.21875 53.421875 
Q 53.21875 48.921875 51.53125 44.890625 
Q 49.859375 40.875 45.40625 35.40625 
Q 44.1875 33.984375 37.640625 27.21875 
Q 31.109375 20.453125 19.1875 8.296875 
z
" id="DejaVuSans-50"/>
        <path d="M 54.890625 33.015625 
L 54.890625 0 
L 45.90625 0 
L 45.90625 32.71875 
Q 45.90625 40.484375 42.875 44.328125 
Q 39.84375 48.1875 33.796875 48.1875 
Q 26.515625 48.1875 22.3125 43.546875 
Q 18.109375 38.921875 18.109375 30.90625 
L 18.109375 0 
L 9.078125 0 
L 9.078125 75.984375 
L 18.109375 75.984375 
L 18.109375 46.1875 
Q 21.34375 51.125 25.703125 53.5625 
Q 30.078125 56 35.796875 56 
Q 45.21875 56 50.046875 50.171875 
Q 54.890625 44.34375 54.890625 33.015625 
z
" id="DejaVuSans-104"/>
        <path d="M 11.71875 12.40625 
L 22.015625 12.40625 
L 22.015625 0 
L 11.71875 0 
z
M 11.71875 51.703125 
L 22.015625 51.703125 
L 22.015625 39.3125 
L 11.71875 39.3125 
z
" id="DejaVuSans-58"/>
       </defs>
       <use xlink:href="#DejaVuSans-50"/>
       <use x="63.623047" xlink:href="#DejaVuSans-104"/>
       <use x="127.001953" xlink:href="#DejaVuSans-58"/>
       <use x="160.693359" xlink:href="#DejaVuSans-49"/>
       <use x="224.316406" xlink:href="#DejaVuSans-53"/>
       <use x="287.939453" xlink:href="#DejaVuSans-109"/>
      </g>
     </g>
    </g>
    <g id="xtick_3">
     <g id="line2d_3">
      <g>
       <use style="stroke:#000000;stroke-width:0.8;" x="195.1509" xlink:href="#m33a41a46ca" y="288.430125"/>
      </g>
     </g>
     <g id="text_3">
      <!-- 4h:15m -->
      <g transform="translate(175.883713 303.028562)scale(0.1 -0.1)">
       <defs>
        <path d="M 37.796875 64.3125 
L 12.890625 25.390625 
L 37.796875 25.390625 
z
M 35.203125 72.90625 
L 47.609375 72.90625 
L 47.609375 25.390625 
L 58.015625 25.390625 
L 58.015625 17.1875 
L 47.609375 17.1875 
L 47.609375 0 
L 37.796875 0 
L 37.796875 17.1875 
L 4.890625 17.1875 
L 4.890625 26.703125 
z
" id="DejaVuSans-52"/>
       </defs>
       <use xlink:href="#DejaVuSans-52"/>
       <use x="63.623047" xlink:href="#DejaVuSans-104"/>
       <use x="127.001953" xlink:href="#DejaVuSans-58"/>
       <use x="160.693359" xlink:href="#DejaVuSans-49"/>
       <use x="224.316406" xlink:href="#DejaVuSans-53"/>
       <use x="287.939453" xlink:href="#DejaVuSans-109"/>
      </g>
     </g>
    </g>
    <g id="xtick_4">
     <g id="line2d_4">
      <g>
       <use style="stroke:#000000;stroke-width:0.8;" x="249.82956" xlink:href="#m33a41a46ca" y="288.430125"/>
      </g>
     </g>
     <g id="text_4">
      <!-- 6h:15m -->
      <g transform="translate(230.562373 303.028562)scale(0.1 -0.1)">
       <defs>
        <path d="M 33.015625 40.375 
Q 26.375 40.375 22.484375 35.828125 
Q 18.609375 31.296875 18.609375 23.390625 
Q 18.609375 15.53125 22.484375 10.953125 
Q 26.375 6.390625 33.015625 6.390625 
Q 39.65625 6.390625 43.53125 10.953125 
Q 47.40625 15.53125 47.40625 23.390625 
Q 47.40625 31.296875 43.53125 35.828125 
Q 39.65625 40.375 33.015625 40.375 
z
M 52.59375 71.296875 
L 52.59375 62.3125 
Q 48.875 64.0625 45.09375 64.984375 
Q 41.3125 65.921875 37.59375 65.921875 
Q 27.828125 65.921875 22.671875 59.328125 
Q 17.53125 52.734375 16.796875 39.40625 
Q 19.671875 43.65625 24.015625 45.921875 
Q 28.375 48.1875 33.59375 48.1875 
Q 44.578125 48.1875 50.953125 41.515625 
Q 57.328125 34.859375 57.328125 23.390625 
Q 57.328125 12.15625 50.6875 5.359375 
Q 44.046875 -1.421875 33.015625 -1.421875 
Q 20.359375 -1.421875 13.671875 8.265625 
Q 6.984375 17.96875 6.984375 36.375 
Q 6.984375 53.65625 15.1875 63.9375 
Q 23.390625 74.21875 37.203125 74.21875 
Q 40.921875 74.21875 44.703125 73.484375 
Q 48.484375 72.75 52.59375 71.296875 
z
" id="DejaVuSans-54"/>
       </defs>
       <use xlink:href="#DejaVuSans-54"/>
       <use x="63.623047" xlink:href="#DejaVuSans-104"/>
       <use x="127.001953" xlink:href="#DejaVuSans-58"/>
       <use x="160.693359" xlink:href="#DejaVuSans-49"/>
       <use x="224.316406" xlink:href="#DejaVuSans-53"/>
       <use x="287.939453" xlink:href="#DejaVuSans-109"/>
      </g>
     </g>
    </g>
    <g id="xtick_5">
     <g id="line2d_5">
      <g>
       <use style="stroke:#000000;stroke-width:0.8;" x="304.508221" xlink:href="#m33a41a46ca" y="288.430125"/>
      </g>
     </g>
     <g id="text_5">
      <!-- 8h:15m -->
      <g transform="translate(285.241033 303.028562)scale(0.1 -0.1)">
       <defs>
        <path d="M 31.78125 34.625 
Q 24.75 34.625 20.71875 30.859375 
Q 16.703125 27.09375 16.703125 20.515625 
Q 16.703125 13.921875 20.71875 10.15625 
Q 24.75 6.390625 31.78125 6.390625 
Q 38.8125 6.390625 42.859375 10.171875 
Q 46.921875 13.96875 46.921875 20.515625 
Q 46.921875 27.09375 42.890625 30.859375 
Q 38.875 34.625 31.78125 34.625 
z
M 21.921875 38.8125 
Q 15.578125 40.375 12.03125 44.71875 
Q 8.5 49.078125 8.5 55.328125 
Q 8.5 64.0625 14.71875 69.140625 
Q 20.953125 74.21875 31.78125 74.21875 
Q 42.671875 74.21875 48.875 69.140625 
Q 55.078125 64.0625 55.078125 55.328125 
Q 55.078125 49.078125 51.53125 44.71875 
Q 48 40.375 41.703125 38.8125 
Q 48.828125 37.15625 52.796875 32.3125 
Q 56.78125 27.484375 56.78125 20.515625 
Q 56.78125 9.90625 50.3125 4.234375 
Q 43.84375 -1.421875 31.78125 -1.421875 
Q 19.734375 -1.421875 13.25 4.234375 
Q 6.78125 9.90625 6.78125 20.515625 
Q 6.78125 27.484375 10.78125 32.3125 
Q 14.796875 37.15625 21.921875 38.8125 
z
M 18.3125 54.390625 
Q 18.3125 48.734375 21.84375 45.5625 
Q 25.390625 42.390625 31.78125 42.390625 
Q 38.140625 42.390625 41.71875 45.5625 
Q 45.3125 48.734375 45.3125 54.390625 
Q 45.3125 60.0625 41.71875 63.234375 
Q 38.140625 66.40625 31.78125 66.40625 
Q 25.390625 66.40625 21.84375 63.234375 
Q 18.3125 60.0625 18.3125 54.390625 
z
" id="DejaVuSans-56"/>
       </defs>
       <use xlink:href="#DejaVuSans-56"/>
       <use x="63.623047" xlink:href="#DejaVuSans-104"/>
       <use x="127.001953" xlink:href="#DejaVuSans-58"/>
       <use x="160.693359" xlink:href="#DejaVuSans-49"/>
       <use x="224.316406" xlink:href="#DejaVuSans-53"/>
       <use x="287.939453" xlink:href="#DejaVuSans-109"/>
      </g>
     </g>
    </g>
    <g id="xtick_6">
     <g id="line2d_6">
      <g>
       <use style="stroke:#000000;stroke-width:0.8;" x="359.186881" xlink:href="#m33a41a46ca" y="288.430125"/>
      </g>
     </g>
     <g id="text_6">
      <!-- 10h:15m -->
      <g transform="translate(336.738443 303.028562)scale(0.1 -0.1)">
       <defs>
        <path d="M 31.78125 66.40625 
Q 24.171875 66.40625 20.328125 58.90625 
Q 16.5 51.421875 16.5 36.375 
Q 16.5 21.390625 20.328125 13.890625 
Q 24.171875 6.390625 31.78125 6.390625 
Q 39.453125 6.390625 43.28125 13.890625 
Q 47.125 21.390625 47.125 36.375 
Q 47.125 51.421875 43.28125 58.90625 
Q 39.453125 66.40625 31.78125 66.40625 
z
M 31.78125 74.21875 
Q 44.046875 74.21875 50.515625 64.515625 
Q 56.984375 54.828125 56.984375 36.375 
Q 56.984375 17.96875 50.515625 8.265625 
Q 44.046875 -1.421875 31.78125 -1.421875 
Q 19.53125 -1.421875 13.0625 8.265625 
Q 6.59375 17.96875 6.59375 36.375 
Q 6.59375 54.828125 13.0625 64.515625 
Q 19.53125 74.21875 31.78125 74.21875 
z
" id="DejaVuSans-48"/>
       </defs>
       <use xlink:href="#DejaVuSans-49"/>
       <use x="63.623047" xlink:href="#DejaVuSans-48"/>
       <use x="127.246094" xlink:href="#DejaVuSans-104"/>
       <use x="190.625" xlink:href="#DejaVuSans-58"/>
       <use x="224.316406" xlink:href="#DejaVuSans-49"/>
       <use x="287.939453" xlink:href="#DejaVuSans-53"/>
       <use x="351.5625" xlink:href="#DejaVuSans-109"/>
      </g>
     </g>
    </g>
    <g id="xtick_7">
     <g id="line2d_7">
      <g>
       <use style="stroke:#000000;stroke-width:0.8;" x="413.865541" xlink:href="#m33a41a46ca" y="288.430125"/>
      </g>
     </g>
     <g id="text_7">
      <!-- 12h:15m -->
      <g transform="translate(391.417104 303.028562)scale(0.1 -0.1)">
       <use xlink:href="#DejaVuSans-49"/>
       <use x="63.623047" xlink:href="#DejaVuSans-50"/>
       <use x="127.246094" xlink:href="#DejaVuSans-104"/>
       <use x="190.625" xlink:href="#DejaVuSans-58"/>
       <use x="224.316406" xlink:href="#DejaVuSans-49"/>
       <use x="287.939453" xlink:href="#DejaVuSans-53"/>
       <use x="351.5625" xlink:href="#DejaVuSans-109"/>
      </g>
     </g>
    </g>
    <g id="xtick_8">
     <g id="line2d_8">
      <g>
       <use style="stroke:#000000;stroke-width:0.8;" x="468.544202" xlink:href="#m33a41a46ca" y="288.430125"/>
      </g>
     </g>
     <g id="text_8">
      <!-- 14h:15m -->
      <g transform="translate(446.095764 303.028562)scale(0.1 -0.1)">
       <use xlink:href="#DejaVuSans-49"/>
       <use x="63.623047" xlink:href="#DejaVuSans-52"/>
       <use x="127.246094" xlink:href="#DejaVuSans-104"/>
       <use x="190.625" xlink:href="#DejaVuSans-58"/>
       <use x="224.316406" xlink:href="#DejaVuSans-49"/>
       <use x="287.939453" xlink:href="#DejaVuSans-53"/>
       <use x="351.5625" xlink:href="#DejaVuSans-109"/>
      </g>
     </g>
    </g>
    <g id="xtick_9">
     <g id="line2d_9">
      <g>
       <use style="stroke:#000000;stroke-width:0.8;" x="523.222862" xlink:href="#m33a41a46ca" y="288.430125"/>
      </g>
     </g>
     <g id="text_9">
      <!-- 16h:15m -->
      <g transform="translate(500.774424 303.028562)scale(0.1 -0.1)">
       <use xlink:href="#DejaVuSans-49"/>
       <use x="63.623047" xlink:href="#DejaVuSans-54"/>
       <use x="127.246094" xlink:href="#DejaVuSans-104"/>
       <use x="190.625" xlink:href="#DejaVuSans-58"/>
       <use x="224.316406" xlink:href="#DejaVuSans-49"/>
       <use x="287.939453" xlink:href="#DejaVuSans-53"/>
       <use x="351.5625" xlink:href="#DejaVuSans-109"/>
      </g>
     </g>
    </g>
    <g id="xtick_10">
     <g id="line2d_10">
      <g>
       <use style="stroke:#000000;stroke-width:0.8;" x="577.901522" xlink:href="#m33a41a46ca" y="288.430125"/>
      </g>
     </g>
     <g id="text_10">
      <!-- 18h:15m -->
      <g transform="translate(555.453085 303.028562)scale(0.1 -0.1)">
       <use xlink:href="#DejaVuSans-49"/>
       <use x="63.623047" xlink:href="#DejaVuSans-56"/>
       <use x="127.246094" xlink:href="#DejaVuSans-104"/>
       <use x="190.625" xlink:href="#DejaVuSans-58"/>
       <use x="224.316406" xlink:href="#DejaVuSans-49"/>
       <use x="287.939453" xlink:href="#DejaVuSans-53"/>
       <use x="351.5625" xlink:href="#DejaVuSans-109"/>
      </g>
     </g>
    </g>
    <g id="xtick_11">
     <g id="line2d_11">
      <g>
       <use style="stroke:#000000;stroke-width:0.8;" x="632.580182" xlink:href="#m33a41a46ca" y="288.430125"/>
      </g>
     </g>
     <g id="text_11">
      <!-- 20h:15m -->
      <g transform="translate(610.131745 303.028562)scale(0.1 -0.1)">
       <use xlink:href="#DejaVuSans-50"/>
       <use x="63.623047" xlink:href="#DejaVuSans-48"/>
       <use x="127.246094" xlink:href="#DejaVuSans-104"/>
       <use x="190.625" xlink:href="#DejaVuSans-58"/>
       <use x="224.316406" xlink:href="#DejaVuSans-49"/>
       <use x="287.939453" xlink:href="#DejaVuSans-53"/>
       <use x="351.5625" xlink:href="#DejaVuSans-109"/>
      </g>
     </g>
    </g>
    <g id="xtick_12">
     <g id="line2d_12">
      <g>
       <use style="stroke:#000000;stroke-width:0.8;" x="687.258843" xlink:href="#m33a41a46ca" y="288.430125"/>
      </g>
     </g>
     <g id="text_12">
      <!-- 22h:15m -->
      <g transform="translate(664.810405 303.028562)scale(0.1 -0.1)">
       <use xlink:href="#DejaVuSans-50"/>
       <use x="63.623047" xlink:href="#DejaVuSans-50"/>
       <use x="127.246094" xlink:href="#DejaVuSans-104"/>
       <use x="190.625" xlink:href="#DejaVuSans-58"/>
       <use x="224.316406" xlink:href="#DejaVuSans-49"/>
       <use x="287.939453" xlink:href="#DejaVuSans-53"/>
       <use x="351.5625" xlink:href="#DejaVuSans-109"/>
      </g>
     </g>
    </g>
    <g id="text_13">
     <!-- Time (hour:minute) -->
     <g transform="translate(362.041094 316.706687)scale(0.1 -0.1)">
      <defs>
       <path d="M -0.296875 72.90625 
L 61.375 72.90625 
L 61.375 64.59375 
L 35.5 64.59375 
L 35.5 0 
L 25.59375 0 
L 25.59375 64.59375 
L -0.296875 64.59375 
z
" id="DejaVuSans-84"/>
       <path d="M 9.421875 54.6875 
L 18.40625 54.6875 
L 18.40625 0 
L 9.421875 0 
z
M 9.421875 75.984375 
L 18.40625 75.984375 
L 18.40625 64.59375 
L 9.421875 64.59375 
z
" id="DejaVuSans-105"/>
       <path d="M 56.203125 29.59375 
L 56.203125 25.203125 
L 14.890625 25.203125 
Q 15.484375 15.921875 20.484375 11.0625 
Q 25.484375 6.203125 34.421875 6.203125 
Q 39.59375 6.203125 44.453125 7.46875 
Q 49.3125 8.734375 54.109375 11.28125 
L 54.109375 2.78125 
Q 49.265625 0.734375 44.1875 -0.34375 
Q 39.109375 -1.421875 33.890625 -1.421875 
Q 20.796875 -1.421875 13.15625 6.1875 
Q 5.515625 13.8125 5.515625 26.8125 
Q 5.515625 40.234375 12.765625 48.109375 
Q 20.015625 56 32.328125 56 
Q 43.359375 56 49.78125 48.890625 
Q 56.203125 41.796875 56.203125 29.59375 
z
M 47.21875 32.234375 
Q 47.125 39.59375 43.09375 43.984375 
Q 39.0625 48.390625 32.421875 48.390625 
Q 24.90625 48.390625 20.390625 44.140625 
Q 15.875 39.890625 15.1875 32.171875 
z
" id="DejaVuSans-101"/>
       <path id="DejaVuSans-32"/>
       <path d="M 31 75.875 
Q 24.46875 64.65625 21.28125 53.65625 
Q 18.109375 42.671875 18.109375 31.390625 
Q 18.109375 20.125 21.3125 9.0625 
Q 24.515625 -2 31 -13.1875 
L 23.1875 -13.1875 
Q 15.875 -1.703125 12.234375 9.375 
Q 8.59375 20.453125 8.59375 31.390625 
Q 8.59375 42.28125 12.203125 53.3125 
Q 15.828125 64.359375 23.1875 75.875 
z
" id="DejaVuSans-40"/>
       <path d="M 30.609375 48.390625 
Q 23.390625 48.390625 19.1875 42.75 
Q 14.984375 37.109375 14.984375 27.296875 
Q 14.984375 17.484375 19.15625 11.84375 
Q 23.34375 6.203125 30.609375 6.203125 
Q 37.796875 6.203125 41.984375 11.859375 
Q 46.1875 17.53125 46.1875 27.296875 
Q 46.1875 37.015625 41.984375 42.703125 
Q 37.796875 48.390625 30.609375 48.390625 
z
M 30.609375 56 
Q 42.328125 56 49.015625 48.375 
Q 55.71875 40.765625 55.71875 27.296875 
Q 55.71875 13.875 49.015625 6.21875 
Q 42.328125 -1.421875 30.609375 -1.421875 
Q 18.84375 -1.421875 12.171875 6.21875 
Q 5.515625 13.875 5.515625 27.296875 
Q 5.515625 40.765625 12.171875 48.375 
Q 18.84375 56 30.609375 56 
z
" id="DejaVuSans-111"/>
       <path d="M 8.5 21.578125 
L 8.5 54.6875 
L 17.484375 54.6875 
L 17.484375 21.921875 
Q 17.484375 14.15625 20.5 10.265625 
Q 23.53125 6.390625 29.59375 6.390625 
Q 36.859375 6.390625 41.078125 11.03125 
Q 45.3125 15.671875 45.3125 23.6875 
L 45.3125 54.6875 
L 54.296875 54.6875 
L 54.296875 0 
L 45.3125 0 
L 45.3125 8.40625 
Q 42.046875 3.421875 37.71875 1 
Q 33.40625 -1.421875 27.6875 -1.421875 
Q 18.265625 -1.421875 13.375 4.4375 
Q 8.5 10.296875 8.5 21.578125 
z
M 31.109375 56 
z
" id="DejaVuSans-117"/>
       <path d="M 41.109375 46.296875 
Q 39.59375 47.171875 37.8125 47.578125 
Q 36.03125 48 33.890625 48 
Q 26.265625 48 22.1875 43.046875 
Q 18.109375 38.09375 18.109375 28.8125 
L 18.109375 0 
L 9.078125 0 
L 9.078125 54.6875 
L 18.109375 54.6875 
L 18.109375 46.1875 
Q 20.953125 51.171875 25.484375 53.578125 
Q 30.03125 56 36.53125 56 
Q 37.453125 56 38.578125 55.875 
Q 39.703125 55.765625 41.0625 55.515625 
z
" id="DejaVuSans-114"/>
       <path d="M 54.890625 33.015625 
L 54.890625 0 
L 45.90625 0 
L 45.90625 32.71875 
Q 45.90625 40.484375 42.875 44.328125 
Q 39.84375 48.1875 33.796875 48.1875 
Q 26.515625 48.1875 22.3125 43.546875 
Q 18.109375 38.921875 18.109375 30.90625 
L 18.109375 0 
L 9.078125 0 
L 9.078125 54.6875 
L 18.109375 54.6875 
L 18.109375 46.1875 
Q 21.34375 51.125 25.703125 53.5625 
Q 30.078125 56 35.796875 56 
Q 45.21875 56 50.046875 50.171875 
Q 54.890625 44.34375 54.890625 33.015625 
z
" id="DejaVuSans-110"/>
       <path d="M 18.3125 70.21875 
L 18.3125 54.6875 
L 36.8125 54.6875 
L 36.8125 47.703125 
L 18.3125 47.703125 
L 18.3125 18.015625 
Q 18.3125 11.328125 20.140625 9.421875 
Q 21.96875 7.515625 27.59375 7.515625 
L 36.8125 7.515625 
L 36.8125 0 
L 27.59375 0 
Q 17.1875 0 13.234375 3.875 
Q 9.28125 7.765625 9.28125 18.015625 
L 9.28125 47.703125 
L 2.6875 47.703125 
L 2.6875 54.6875 
L 9.28125 54.6875 
L 9.28125 70.21875 
z
" id="DejaVuSans-116"/>
       <path d="M 8.015625 75.875 
L 15.828125 75.875 
Q 23.140625 64.359375 26.78125 53.3125 
Q 30.421875 42.28125 30.421875 31.390625 
Q 30.421875 20.453125 26.78125 9.375 
Q 23.140625 -1.703125 15.828125 -13.1875 
L 8.015625 -13.1875 
Q 14.5 -2 17.703125 9.0625 
Q 20.90625 20.125 20.90625 31.390625 
Q 20.90625 42.671875 17.703125 53.65625 
Q 14.5 64.65625 8.015625 75.875 
z
" id="DejaVuSans-41"/>
      </defs>
      <use xlink:href="#DejaVuSans-84"/>
      <use x="57.958984" xlink:href="#DejaVuSans-105"/>
      <use x="85.742188" xlink:href="#DejaVuSans-109"/>
      <use x="183.154297" xlink:href="#DejaVuSans-101"/>
      <use x="244.677734" xlink:href="#DejaVuSans-32"/>
      <use x="276.464844" xlink:href="#DejaVuSans-40"/>
      <use x="315.478516" xlink:href="#DejaVuSans-104"/>
      <use x="378.857422" xlink:href="#DejaVuSans-111"/>
      <use x="440.039062" xlink:href="#DejaVuSans-117"/>
      <use x="503.417969" xlink:href="#DejaVuSans-114"/>
      <use x="542.78125" xlink:href="#DejaVuSans-58"/>
      <use x="576.472656" xlink:href="#DejaVuSans-109"/>
      <use x="673.884766" xlink:href="#DejaVuSans-105"/>
      <use x="701.667969" xlink:href="#DejaVuSans-110"/>
      <use x="765.046875" xlink:href="#DejaVuSans-117"/>
      <use x="828.425781" xlink:href="#DejaVuSans-116"/>
      <use x="867.634766" xlink:href="#DejaVuSans-101"/>
      <use x="929.158203" xlink:href="#DejaVuSans-41"/>
     </g>
    </g>
   </g>
   <g id="matplotlib.axis_2">
    <g id="ytick_1">
     <g id="line2d_13">
      <defs>
       <path d="M 0 0 
L -3.5 0 
" id="mf90d6392ac" style="stroke:#000000;stroke-width:0.8;"/>
      </defs>
      <g>
       <use style="stroke:#000000;stroke-width:0.8;" x="53.328125" xlink:href="#mf90d6392ac" y="241.784344"/>
      </g>
     </g>
     <g id="text_14">
      <!-- 500 -->
      <g transform="translate(27.240625 245.583563)scale(0.1 -0.1)">
       <use xlink:href="#DejaVuSans-53"/>
       <use x="63.623047" xlink:href="#DejaVuSans-48"/>
       <use x="127.246094" xlink:href="#DejaVuSans-48"/>
      </g>
     </g>
    </g>
    <g id="ytick_2">
     <g id="line2d_14">
      <g>
       <use style="stroke:#000000;stroke-width:0.8;" x="53.328125" xlink:href="#mf90d6392ac" y="188.135615"/>
      </g>
     </g>
     <g id="text_15">
      <!-- 1000 -->
      <g transform="translate(20.878125 191.934834)scale(0.1 -0.1)">
       <use xlink:href="#DejaVuSans-49"/>
       <use x="63.623047" xlink:href="#DejaVuSans-48"/>
       <use x="127.246094" xlink:href="#DejaVuSans-48"/>
       <use x="190.869141" xlink:href="#DejaVuSans-48"/>
      </g>
     </g>
    </g>
    <g id="ytick_3">
     <g id="line2d_15">
      <g>
       <use style="stroke:#000000;stroke-width:0.8;" x="53.328125" xlink:href="#mf90d6392ac" y="134.486887"/>
      </g>
     </g>
     <g id="text_16">
      <!-- 1500 -->
      <g transform="translate(20.878125 138.286105)scale(0.1 -0.1)">
       <use xlink:href="#DejaVuSans-49"/>
       <use x="63.623047" xlink:href="#DejaVuSans-53"/>
       <use x="127.246094" xlink:href="#DejaVuSans-48"/>
       <use x="190.869141" xlink:href="#DejaVuSans-48"/>
      </g>
     </g>
    </g>
    <g id="ytick_4">
     <g id="line2d_16">
      <g>
       <use style="stroke:#000000;stroke-width:0.8;" x="53.328125" xlink:href="#mf90d6392ac" y="80.838158"/>
      </g>
     </g>
     <g id="text_17">
      <!-- 2000 -->
      <g transform="translate(20.878125 84.637377)scale(0.1 -0.1)">
       <use xlink:href="#DejaVuSans-50"/>
       <use x="63.623047" xlink:href="#DejaVuSans-48"/>
       <use x="127.246094" xlink:href="#DejaVuSans-48"/>
       <use x="190.869141" xlink:href="#DejaVuSans-48"/>
      </g>
     </g>
    </g>
    <g id="ytick_5">
     <g id="line2d_17">
      <g>
       <use style="stroke:#000000;stroke-width:0.8;" x="53.328125" xlink:href="#mf90d6392ac" y="27.18943"/>
      </g>
     </g>
     <g id="text_18">
      <!-- 2500 -->
      <g transform="translate(20.878125 30.988648)scale(0.1 -0.1)">
       <use xlink:href="#DejaVuSans-50"/>
       <use x="63.623047" xlink:href="#DejaVuSans-53"/>
       <use x="127.246094" xlink:href="#DejaVuSans-48"/>
       <use x="190.869141" xlink:href="#DejaVuSans-48"/>
      </g>
     </g>
    </g>
    <g id="text_19">
     <!-- Edge coverage -->
     <g transform="translate(14.798438 192.762406)rotate(-90)scale(0.1 -0.1)">
      <defs>
       <path d="M 9.8125 72.90625 
L 55.90625 72.90625 
L 55.90625 64.59375 
L 19.671875 64.59375 
L 19.671875 43.015625 
L 54.390625 43.015625 
L 54.390625 34.71875 
L 19.671875 34.71875 
L 19.671875 8.296875 
L 56.78125 8.296875 
L 56.78125 0 
L 9.8125 0 
z
" id="DejaVuSans-69"/>
       <path d="M 45.40625 46.390625 
L 45.40625 75.984375 
L 54.390625 75.984375 
L 54.390625 0 
L 45.40625 0 
L 45.40625 8.203125 
Q 42.578125 3.328125 38.25 0.953125 
Q 33.9375 -1.421875 27.875 -1.421875 
Q 17.96875 -1.421875 11.734375 6.484375 
Q 5.515625 14.40625 5.515625 27.296875 
Q 5.515625 40.1875 11.734375 48.09375 
Q 17.96875 56 27.875 56 
Q 33.9375 56 38.25 53.625 
Q 42.578125 51.265625 45.40625 46.390625 
z
M 14.796875 27.296875 
Q 14.796875 17.390625 18.875 11.75 
Q 22.953125 6.109375 30.078125 6.109375 
Q 37.203125 6.109375 41.296875 11.75 
Q 45.40625 17.390625 45.40625 27.296875 
Q 45.40625 37.203125 41.296875 42.84375 
Q 37.203125 48.484375 30.078125 48.484375 
Q 22.953125 48.484375 18.875 42.84375 
Q 14.796875 37.203125 14.796875 27.296875 
z
" id="DejaVuSans-100"/>
       <path d="M 45.40625 27.984375 
Q 45.40625 37.75 41.375 43.109375 
Q 37.359375 48.484375 30.078125 48.484375 
Q 22.859375 48.484375 18.828125 43.109375 
Q 14.796875 37.75 14.796875 27.984375 
Q 14.796875 18.265625 18.828125 12.890625 
Q 22.859375 7.515625 30.078125 7.515625 
Q 37.359375 7.515625 41.375 12.890625 
Q 45.40625 18.265625 45.40625 27.984375 
z
M 54.390625 6.78125 
Q 54.390625 -7.171875 48.1875 -13.984375 
Q 42 -20.796875 29.203125 -20.796875 
Q 24.46875 -20.796875 20.265625 -20.09375 
Q 16.0625 -19.390625 12.109375 -17.921875 
L 12.109375 -9.1875 
Q 16.0625 -11.328125 19.921875 -12.34375 
Q 23.78125 -13.375 27.78125 -13.375 
Q 36.625 -13.375 41.015625 -8.765625 
Q 45.40625 -4.15625 45.40625 5.171875 
L 45.40625 9.625 
Q 42.625 4.78125 38.28125 2.390625 
Q 33.9375 0 27.875 0 
Q 17.828125 0 11.671875 7.65625 
Q 5.515625 15.328125 5.515625 27.984375 
Q 5.515625 40.671875 11.671875 48.328125 
Q 17.828125 56 27.875 56 
Q 33.9375 56 38.28125 53.609375 
Q 42.625 51.21875 45.40625 46.390625 
L 45.40625 54.6875 
L 54.390625 54.6875 
z
" id="DejaVuSans-103"/>
       <path d="M 48.78125 52.59375 
L 48.78125 44.1875 
Q 44.96875 46.296875 41.140625 47.34375 
Q 37.3125 48.390625 33.40625 48.390625 
Q 24.65625 48.390625 19.8125 42.84375 
Q 14.984375 37.3125 14.984375 27.296875 
Q 14.984375 17.28125 19.8125 11.734375 
Q 24.65625 6.203125 33.40625 6.203125 
Q 37.3125 6.203125 41.140625 7.25 
Q 44.96875 8.296875 48.78125 10.40625 
L 48.78125 2.09375 
Q 45.015625 0.34375 40.984375 -0.53125 
Q 36.96875 -1.421875 32.421875 -1.421875 
Q 20.0625 -1.421875 12.78125 6.34375 
Q 5.515625 14.109375 5.515625 27.296875 
Q 5.515625 40.671875 12.859375 48.328125 
Q 20.21875 56 33.015625 56 
Q 37.15625 56 41.109375 55.140625 
Q 45.0625 54.296875 48.78125 52.59375 
z
" id="DejaVuSans-99"/>
       <path d="M 2.984375 54.6875 
L 12.5 54.6875 
L 29.59375 8.796875 
L 46.6875 54.6875 
L 56.203125 54.6875 
L 35.6875 0 
L 23.484375 0 
z
" id="DejaVuSans-118"/>
       <path d="M 34.28125 27.484375 
Q 23.390625 27.484375 19.1875 25 
Q 14.984375 22.515625 14.984375 16.5 
Q 14.984375 11.71875 18.140625 8.90625 
Q 21.296875 6.109375 26.703125 6.109375 
Q 34.1875 6.109375 38.703125 11.40625 
Q 43.21875 16.703125 43.21875 25.484375 
L 43.21875 27.484375 
z
M 52.203125 31.203125 
L 52.203125 0 
L 43.21875 0 
L 43.21875 8.296875 
Q 40.140625 3.328125 35.546875 0.953125 
Q 30.953125 -1.421875 24.3125 -1.421875 
Q 15.921875 -1.421875 10.953125 3.296875 
Q 6 8.015625 6 15.921875 
Q 6 25.140625 12.171875 29.828125 
Q 18.359375 34.515625 30.609375 34.515625 
L 43.21875 34.515625 
L 43.21875 35.40625 
Q 43.21875 41.609375 39.140625 45 
Q 35.0625 48.390625 27.6875 48.390625 
Q 23 48.390625 18.546875 47.265625 
Q 14.109375 46.140625 10.015625 43.890625 
L 10.015625 52.203125 
Q 14.9375 54.109375 19.578125 55.046875 
Q 24.21875 56 28.609375 56 
Q 40.484375 56 46.34375 49.84375 
Q 52.203125 43.703125 52.203125 31.203125 
z
" id="DejaVuSans-97"/>
      </defs>
      <use xlink:href="#DejaVuSans-69"/>
      <use x="63.183594" xlink:href="#DejaVuSans-100"/>
      <use x="126.660156" xlink:href="#DejaVuSans-103"/>
      <use x="190.136719" xlink:href="#DejaVuSans-101"/>
      <use x="251.660156" xlink:href="#DejaVuSans-32"/>
      <use x="283.447266" xlink:href="#DejaVuSans-99"/>
      <use x="338.427734" xlink:href="#DejaVuSans-111"/>
      <use x="399.609375" xlink:href="#DejaVuSans-118"/>
      <use x="458.789062" xlink:href="#DejaVuSans-101"/>
      <use x="520.3125" xlink:href="#DejaVuSans-114"/>
      <use x="561.425781" xlink:href="#DejaVuSans-97"/>
      <use x="622.705078" xlink:href="#DejaVuSans-103"/>
      <use x="686.181641" xlink:href="#DejaVuSans-101"/>
     </g>
    </g>
   </g>
   <g id="line2d_18">
    <path clip-path="url(#p8d9779da77)" d="M 85.79358 192.03409 
L 92.628412 191.211476 
L 99.463245 188.815166 
L 106.298077 164.100985 
L 113.13291 160.685349 
L 119.967742 160.291925 
L 126.802575 159.505077 
L 133.637407 159.040121 
L 140.47224 158.843409 
L 147.307072 158.521517 
L 154.141905 158.396337 
L 160.976737 157.198182 
L 167.81157 157.090884 
L 174.646403 156.751109 
L 181.481235 156.321919 
L 188.316068 156.000027 
L 195.1509 155.28471 
L 201.985733 154.998584 
L 208.820565 153.711014 
L 215.655398 153.6216 
L 222.49023 152.727454 
L 229.325063 151.904841 
L 236.159895 151.833309 
L 242.994728 131.536207 
L 249.82956 131.107017 
L 256.664393 130.785124 
L 263.499225 113.742712 
L 270.334058 112.383611 
L 277.168891 112.151133 
L 284.003723 111.918655 
L 290.838556 111.596762 
L 297.673388 111.57888 
L 304.508221 111.57888 
L 311.343053 111.185456 
L 318.177886 111.185456 
L 325.012718 111.185456 
L 331.847551 111.113924 
L 338.682383 111.113924 
L 345.517216 111.042392 
L 352.352048 110.470139 
L 359.186881 110.040949 
L 366.021714 109.754823 
L 372.856546 109.665408 
L 379.691379 109.200453 
L 386.526211 109.003741 
L 393.361044 108.914326 
L 400.195876 108.807029 
L 407.030709 108.807029 
L 413.865541 108.699731 
L 420.700374 108.681848 
L 427.535206 108.681848 
L 434.370039 108.6282 
L 441.204871 108.592434 
L 448.039704 108.592434 
L 454.874536 108.431488 
L 461.709369 108.19901 
L 468.544202 108.19901 
L 475.379034 108.109595 
L 482.213867 108.109595 
L 489.048699 108.091712 
L 495.883532 108.091712 
L 502.718364 108.038063 
L 509.553197 108.038063 
L 516.388029 108.038063 
L 523.222862 107.644639 
L 530.057694 107.537342 
L 536.892527 107.376396 
L 543.727359 107.233333 
L 550.562192 106.303421 
L 557.397025 105.8027 
L 564.231857 105.570222 
L 571.06669 105.570222 
L 577.901522 105.570222 
L 584.736355 105.570222 
L 591.571187 105.570222 
L 598.40602 105.570222 
L 605.240852 105.534456 
L 612.075685 105.194681 
L 618.910517 105.194681 
L 625.74535 104.854906 
L 632.580182 104.711842 
L 639.415015 104.300535 
L 646.249847 104.300535 
L 653.08468 103.620985 
L 659.919513 103.585219 
L 666.754345 103.567336 
L 673.589178 103.370624 
L 680.42401 103.370624 
L 687.258843 103.370624 
L 694.093675 103.370624 
L 700.928508 103.370624 
L 707.76334 103.209678 
L 714.598173 103.209678 
L 721.433005 86.68587 
L 728.267838 86.38186 
L 735.10267 83.234468 
" style="fill:none;stroke:#ffbb78;stroke-linecap:square;stroke-width:1.5;"/>
   </g>
   <g id="line2d_19">
    <path clip-path="url(#p8d9779da77)" d="M 85.79358 237.58186 
L 92.628412 237.188436 
L 99.463245 179.694882 
L 106.298077 170.127525 
L 113.13291 169.447975 
L 119.967742 168.911488 
L 126.802575 168.911488 
L 133.637407 168.911488 
L 140.47224 168.911488 
L 147.307072 168.106757 
L 154.141905 168.070991 
L 160.976737 168.070991 
L 167.81157 168.070991 
L 174.646403 167.838513 
L 181.481235 167.69545 
L 188.316068 167.69545 
L 195.1509 167.606035 
L 201.985733 167.498738 
L 208.820565 165.746213 
L 215.655398 165.621032 
L 222.49023 165.621032 
L 229.325063 165.442203 
L 236.159895 164.422877 
L 242.994728 164.118868 
L 249.82956 164.083102 
L 256.664393 164.083102 
L 263.499225 163.868507 
L 270.334058 163.725444 
L 277.168891 163.725444 
L 284.003723 163.725444 
L 290.838556 163.492966 
L 297.673388 163.492966 
L 304.508221 163.349903 
L 311.343053 163.206839 
L 318.177886 163.063776 
L 325.012718 163.063776 
L 331.847551 162.956479 
L 338.682383 162.938596 
L 345.517216 162.938596 
L 352.352048 162.884947 
L 359.186881 162.884947 
L 366.021714 162.884947 
L 372.856546 162.884947 
L 379.691379 162.884947 
L 386.526211 162.77765 
L 393.361044 162.77765 
L 400.195876 162.77765 
L 407.030709 162.77765 
L 413.865541 162.741884 
L 420.700374 162.741884 
L 427.535206 161.06089 
L 434.370039 142.444781 
L 441.204871 142.426899 
L 448.039704 142.015592 
L 454.874536 141.836762 
L 461.709369 141.836762 
L 468.544202 141.836762 
L 475.379034 141.836762 
L 482.213867 141.836762 
L 489.048699 141.836762 
L 495.883532 141.836762 
L 502.718364 141.836762 
L 509.553197 141.836762 
L 516.388029 141.836762 
L 523.222862 141.800997 
L 530.057694 141.800997 
L 536.892527 141.800997 
L 543.727359 141.765231 
L 550.562192 141.765231 
L 557.397025 141.765231 
L 564.231857 141.765231 
L 571.06669 141.765231 
L 577.901522 141.765231 
L 584.736355 141.765231 
L 591.571187 141.765231 
L 598.40602 141.622168 
L 605.240852 141.622168 
L 612.075685 141.586402 
L 618.910517 141.586402 
L 625.74535 141.586402 
L 632.580182 141.586402 
L 639.415015 141.586402 
L 646.249847 141.586402 
L 653.08468 141.586402 
L 659.919513 141.586402 
L 666.754345 141.479104 
L 673.589178 141.479104 
L 680.42401 141.38969 
L 687.258843 141.38969 
L 694.093675 141.014149 
L 700.928508 140.888968 
L 707.76334 140.83532 
L 714.598173 140.674373 
L 721.433005 140.298832 
L 728.267838 122.594752 
L 735.10267 122.147679 
" style="fill:none;stroke:#aec7e8;stroke-linecap:square;stroke-width:1.5;"/>
   </g>
   <g id="line2d_20">
    <path clip-path="url(#p8d9779da77)" d="M 85.79358 217.73183 
L 92.628412 217.499353 
L 99.463245 179.122629 
L 106.298077 171.540275 
L 113.13291 171.540275 
L 119.967742 171.450861 
L 126.802575 171.361446 
L 133.637407 171.2005 
L 140.47224 171.2005 
L 147.307072 170.950139 
L 154.141905 170.914373 
L 160.976737 170.681896 
L 167.81157 170.503066 
L 174.646403 170.377886 
L 181.481235 170.270589 
L 188.316068 169.716218 
L 195.1509 169.376443 
L 201.985733 169.197614 
L 208.820565 168.857839 
L 215.655398 168.768424 
L 222.49023 167.981576 
L 229.325063 167.69545 
L 236.159895 167.516621 
L 242.994728 167.355674 
L 249.82956 167.176845 
L 256.664393 166.96225 
L 263.499225 166.783421 
L 270.334058 166.515178 
L 277.168891 166.515178 
L 284.003723 166.389997 
L 290.838556 166.389997 
L 297.673388 166.336349 
L 304.508221 166.336349 
L 311.343053 166.246934 
L 318.177886 166.068105 
L 325.012718 166.068105 
L 331.847551 165.925042 
L 338.682383 165.925042 
L 345.517216 165.781978 
L 352.352048 165.781978 
L 359.186881 165.781978 
L 366.021714 165.781978 
L 372.856546 165.692564 
L 379.691379 165.692564 
L 386.526211 165.603149 
L 393.361044 165.603149 
L 400.195876 165.549501 
L 407.030709 165.549501 
L 413.865541 165.549501 
L 420.700374 165.549501 
L 427.535206 165.495852 
L 434.370039 165.263374 
L 441.204871 165.263374 
L 448.039704 165.263374 
L 454.874536 165.173959 
L 461.709369 165.173959 
L 468.544202 165.173959 
L 475.379034 165.138194 
L 482.213867 165.138194 
L 489.048699 165.138194 
L 495.883532 165.138194 
L 502.718364 165.138194 
L 509.553197 165.102428 
L 516.388029 165.066662 
L 523.222862 165.066662 
L 530.057694 165.066662 
L 536.892527 165.066662 
L 543.727359 165.048779 
L 550.562192 163.296254 
L 557.397025 163.260488 
L 564.231857 163.260488 
L 571.06669 163.260488 
L 577.901522 163.260488 
L 584.736355 163.224722 
L 591.571187 163.188956 
L 598.40602 163.188956 
L 605.240852 163.188956 
L 612.075685 163.117425 
L 618.910517 161.400666 
L 625.74535 161.203954 
L 632.580182 158.217508 
L 639.415015 158.181742 
L 646.249847 158.181742 
L 653.08468 158.181742 
L 659.919513 155.839081 
L 666.754345 155.660252 
L 673.589178 155.427774 
L 680.42401 155.392008 
L 687.258843 155.356242 
L 694.093675 155.320476 
L 700.928508 155.195296 
L 707.76334 155.03435 
L 714.598173 137.240855 
L 721.433005 136.221529 
L 728.267838 135.220086 
L 735.10267 134.701482 
" style="fill:none;stroke:#ff7f0e;stroke-linecap:square;stroke-width:1.5;"/>
   </g>
   <g id="line2d_21">
    <path clip-path="url(#p8d9779da77)" d="M 85.79358 194.823823 
L 92.628412 194.430399 
L 99.463245 173.72199 
L 106.298077 172.595367 
L 113.13291 172.523835 
L 119.967742 172.523835 
L 126.802575 172.452304 
L 133.637407 172.452304 
L 140.47224 172.416538 
L 147.307072 172.416538 
L 154.141905 172.166177 
L 160.976737 171.933699 
L 167.81157 171.933699 
L 174.646403 171.933699 
L 181.481235 171.933699 
L 188.316068 171.576041 
L 195.1509 169.35856 
L 201.985733 169.251263 
L 208.820565 169.251263 
L 215.655398 169.251263 
L 222.49023 169.251263 
L 229.325063 168.893605 
L 236.159895 168.607478 
L 242.994728 168.482298 
L 249.82956 168.482298 
L 256.664393 167.892162 
L 263.499225 167.784864 
L 270.334058 167.641801 
L 277.168891 167.641801 
L 284.003723 167.641801 
L 290.838556 167.588152 
L 297.673388 167.498738 
L 304.508221 167.409323 
L 311.343053 167.409323 
L 318.177886 167.284143 
L 325.012718 167.015899 
L 331.847551 166.944367 
L 338.682383 166.854953 
L 345.517216 166.354231 
L 352.352048 166.139637 
L 359.186881 165.960807 
L 366.021714 164.01157 
L 372.856546 163.850624 
L 379.691379 163.814858 
L 386.526211 163.814858 
L 393.361044 163.385668 
L 400.195876 163.153191 
L 407.030709 146.00348 
L 413.865541 145.681588 
L 420.700374 145.574291 
L 427.535206 145.574291 
L 434.370039 143.875414 
L 441.204871 143.803883 
L 448.039704 142.981269 
L 454.874536 141.94406 
L 461.709369 141.872528 
L 468.544202 141.872528 
L 475.379034 141.872528 
L 482.213867 141.64005 
L 489.048699 141.586402 
L 495.883532 141.586402 
L 502.718364 141.586402 
L 509.553197 141.586402 
L 516.388029 141.425456 
L 523.222862 141.353924 
L 530.057694 141.318158 
L 536.892527 141.08568 
L 543.727359 140.799554 
L 550.562192 140.799554 
L 557.397025 140.763788 
L 564.231857 140.710139 
L 571.06669 140.674373 
L 577.901522 140.674373 
L 584.736355 140.674373 
L 591.571187 140.638608 
L 598.40602 140.638608 
L 605.240852 140.584959 
L 612.075685 140.584959 
L 618.910517 140.53131 
L 625.74535 140.53131 
L 632.580182 140.477661 
L 639.415015 140.424013 
L 646.249847 140.424013 
L 653.08468 140.155769 
L 659.919513 140.155769 
L 666.754345 140.137886 
L 673.589178 140.066354 
L 680.42401 140.066354 
L 687.258843 139.97694 
L 694.093675 139.97694 
L 700.928508 139.97694 
L 707.76334 139.869642 
L 714.598173 139.869642 
L 721.433005 139.869642 
L 728.267838 139.869642 
L 735.10267 139.476218 
" style="fill:none;stroke:#1f77b4;stroke-linecap:square;stroke-width:1.5;"/>
   </g>
   <g id="line2d_22"/>
   <g id="line2d_23"/>
   <g id="line2d_24"/>
   <g id="line2d_25"/>
   <g id="line2d_26"/>
   <g id="line2d_27">
    <path clip-path="url(#p8d9779da77)" d="M 735.10267 288.430125 
L 735.10267 22.318125 
" style="fill:none;stroke:#ff0000;stroke-linecap:square;stroke-width:1.5;"/>
   </g>
   <g id="patch_3">
    <path d="M 53.328125 241.784344 
L 53.328125 27.18943 
" style="fill:none;stroke:#000000;stroke-linecap:square;stroke-linejoin:miter;stroke-width:0.8;"/>
   </g>
   <g id="patch_4">
    <path d="M 85.79358 288.430125 
L 687.258843 288.430125 
" style="fill:none;stroke:#000000;stroke-linecap:square;stroke-linejoin:miter;stroke-width:0.8;"/>
   </g>
   <g id="text_20">
    <!-- lcms-2017-03-21 (24h, 6 trials/fuzzer) -->
    <g transform="translate(296.56625 16.318125)scale(0.12 -0.12)">
     <defs>
      <path d="M 9.421875 75.984375 
L 18.40625 75.984375 
L 18.40625 0 
L 9.421875 0 
z
" id="DejaVuSans-108"/>
      <path d="M 44.28125 53.078125 
L 44.28125 44.578125 
Q 40.484375 46.53125 36.375 47.5 
Q 32.28125 48.484375 27.875 48.484375 
Q 21.1875 48.484375 17.84375 46.4375 
Q 14.5 44.390625 14.5 40.28125 
Q 14.5 37.15625 16.890625 35.375 
Q 19.28125 33.59375 26.515625 31.984375 
L 29.59375 31.296875 
Q 39.15625 29.25 43.1875 25.515625 
Q 47.21875 21.78125 47.21875 15.09375 
Q 47.21875 7.46875 41.1875 3.015625 
Q 35.15625 -1.421875 24.609375 -1.421875 
Q 20.21875 -1.421875 15.453125 -0.5625 
Q 10.6875 0.296875 5.421875 2 
L 5.421875 11.28125 
Q 10.40625 8.6875 15.234375 7.390625 
Q 20.0625 6.109375 24.8125 6.109375 
Q 31.15625 6.109375 34.5625 8.28125 
Q 37.984375 10.453125 37.984375 14.40625 
Q 37.984375 18.0625 35.515625 20.015625 
Q 33.0625 21.96875 24.703125 23.78125 
L 21.578125 24.515625 
Q 13.234375 26.265625 9.515625 29.90625 
Q 5.8125 33.546875 5.8125 39.890625 
Q 5.8125 47.609375 11.28125 51.796875 
Q 16.75 56 26.8125 56 
Q 31.78125 56 36.171875 55.265625 
Q 40.578125 54.546875 44.28125 53.078125 
z
" id="DejaVuSans-115"/>
      <path d="M 4.890625 31.390625 
L 31.203125 31.390625 
L 31.203125 23.390625 
L 4.890625 23.390625 
z
" id="DejaVuSans-45"/>
      <path d="M 8.203125 72.90625 
L 55.078125 72.90625 
L 55.078125 68.703125 
L 28.609375 0 
L 18.3125 0 
L 43.21875 64.59375 
L 8.203125 64.59375 
z
" id="DejaVuSans-55"/>
      <path d="M 40.578125 39.3125 
Q 47.65625 37.796875 51.625 33 
Q 55.609375 28.21875 55.609375 21.1875 
Q 55.609375 10.40625 48.1875 4.484375 
Q 40.765625 -1.421875 27.09375 -1.421875 
Q 22.515625 -1.421875 17.65625 -0.515625 
Q 12.796875 0.390625 7.625 2.203125 
L 7.625 11.71875 
Q 11.71875 9.328125 16.59375 8.109375 
Q 21.484375 6.890625 26.8125 6.890625 
Q 36.078125 6.890625 40.9375 10.546875 
Q 45.796875 14.203125 45.796875 21.1875 
Q 45.796875 27.640625 41.28125 31.265625 
Q 36.765625 34.90625 28.71875 34.90625 
L 20.21875 34.90625 
L 20.21875 43.015625 
L 29.109375 43.015625 
Q 36.375 43.015625 40.234375 45.921875 
Q 44.09375 48.828125 44.09375 54.296875 
Q 44.09375 59.90625 40.109375 62.90625 
Q 36.140625 65.921875 28.71875 65.921875 
Q 24.65625 65.921875 20.015625 65.03125 
Q 15.375 64.15625 9.8125 62.3125 
L 9.8125 71.09375 
Q 15.4375 72.65625 20.34375 73.4375 
Q 25.25 74.21875 29.59375 74.21875 
Q 40.828125 74.21875 47.359375 69.109375 
Q 53.90625 64.015625 53.90625 55.328125 
Q 53.90625 49.265625 50.4375 45.09375 
Q 46.96875 40.921875 40.578125 39.3125 
z
" id="DejaVuSans-51"/>
      <path d="M 11.71875 12.40625 
L 22.015625 12.40625 
L 22.015625 4 
L 14.015625 -11.625 
L 7.71875 -11.625 
L 11.71875 4 
z
" id="DejaVuSans-44"/>
      <path d="M 25.390625 72.90625 
L 33.6875 72.90625 
L 8.296875 -9.28125 
L 0 -9.28125 
z
" id="DejaVuSans-47"/>
      <path d="M 37.109375 75.984375 
L 37.109375 68.5 
L 28.515625 68.5 
Q 23.6875 68.5 21.796875 66.546875 
Q 19.921875 64.59375 19.921875 59.515625 
L 19.921875 54.6875 
L 34.71875 54.6875 
L 34.71875 47.703125 
L 19.921875 47.703125 
L 19.921875 0 
L 10.890625 0 
L 10.890625 47.703125 
L 2.296875 47.703125 
L 2.296875 54.6875 
L 10.890625 54.6875 
L 10.890625 58.5 
Q 10.890625 67.625 15.140625 71.796875 
Q 19.390625 75.984375 28.609375 75.984375 
z
" id="DejaVuSans-102"/>
      <path d="M 5.515625 54.6875 
L 48.1875 54.6875 
L 48.1875 46.484375 
L 14.40625 7.171875 
L 48.1875 7.171875 
L 48.1875 0 
L 4.296875 0 
L 4.296875 8.203125 
L 38.09375 47.515625 
L 5.515625 47.515625 
z
" id="DejaVuSans-122"/>
     </defs>
     <use xlink:href="#DejaVuSans-108"/>
     <use x="27.783203" xlink:href="#DejaVuSans-99"/>
     <use x="82.763672" xlink:href="#DejaVuSans-109"/>
     <use x="180.175781" xlink:href="#DejaVuSans-115"/>
     <use x="232.275391" xlink:href="#DejaVuSans-45"/>
     <use x="268.359375" xlink:href="#DejaVuSans-50"/>
     <use x="331.982422" xlink:href="#DejaVuSans-48"/>
     <use x="395.605469" xlink:href="#DejaVuSans-49"/>
     <use x="459.228516" xlink:href="#DejaVuSans-55"/>
     <use x="522.851562" xlink:href="#DejaVuSans-45"/>
     <use x="558.935547" xlink:href="#DejaVuSans-48"/>
     <use x="622.558594" xlink:href="#DejaVuSans-51"/>
     <use x="686.181641" xlink:href="#DejaVuSans-45"/>
     <use x="722.265625" xlink:href="#DejaVuSans-50"/>
     <use x="785.888672" xlink:href="#DejaVuSans-49"/>
     <use x="849.511719" xlink:href="#DejaVuSans-32"/>
     <use x="881.298828" xlink:href="#DejaVuSans-40"/>
     <use x="920.3125" xlink:href="#DejaVuSans-50"/>
     <use x="983.935547" xlink:href="#DejaVuSans-52"/>
     <use x="1047.558594" xlink:href="#DejaVuSans-104"/>
     <use x="1110.9375" xlink:href="#DejaVuSans-44"/>
     <use x="1142.724609" xlink:href="#DejaVuSans-32"/>
     <use x="1174.511719" xlink:href="#DejaVuSans-54"/>
     <use x="1238.134766" xlink:href="#DejaVuSans-32"/>
     <use x="1269.921875" xlink:href="#DejaVuSans-116"/>
     <use x="1309.130859" xlink:href="#DejaVuSans-114"/>
     <use x="1350.244141" xlink:href="#DejaVuSans-105"/>
     <use x="1378.027344" xlink:href="#DejaVuSans-97"/>
     <use x="1439.306641" xlink:href="#DejaVuSans-108"/>
     <use x="1467.089844" xlink:href="#DejaVuSans-115"/>
     <use x="1519.189453" xlink:href="#DejaVuSans-47"/>
     <use x="1552.880859" xlink:href="#DejaVuSans-102"/>
     <use x="1588.085938" xlink:href="#DejaVuSans-117"/>
     <use x="1651.464844" xlink:href="#DejaVuSans-122"/>
     <use x="1703.955078" xlink:href="#DejaVuSans-122"/>
     <use x="1756.445312" xlink:href="#DejaVuSans-101"/>
     <use x="1817.96875" xlink:href="#DejaVuSans-114"/>
     <use x="1859.082031" xlink:href="#DejaVuSans-41"/>
    </g>
   </g>
   <g id="legend_1">
    <g id="line2d_28">
     <path d="M 771.568125 30.416562 
L 791.568125 30.416562 
" style="fill:none;"/>
    </g>
    <g id="line2d_29"/>
    <g id="text_21">
     <!-- fuzzer -->
     <g transform="translate(799.568125 33.916562)scale(0.1 -0.1)">
      <use xlink:href="#DejaVuSans-102"/>
      <use x="35.205078" xlink:href="#DejaVuSans-117"/>
      <use x="98.583984" xlink:href="#DejaVuSans-122"/>
      <use x="151.074219" xlink:href="#DejaVuSans-122"/>
      <use x="203.564453" xlink:href="#DejaVuSans-101"/>
      <use x="265.087891" xlink:href="#DejaVuSans-114"/>
     </g>
    </g>
    <g id="line2d_30">
     <path d="M 771.568125 45.094688 
L 791.568125 45.094688 
" style="fill:none;stroke:#ffbb78;stroke-linecap:square;stroke-width:1.5;"/>
    </g>
    <g id="line2d_31"/>
    <g id="text_22">
     <!-- fairfuzz -->
     <g transform="translate(799.568125 48.594688)scale(0.1 -0.1)">
      <use xlink:href="#DejaVuSans-102"/>
      <use x="35.205078" xlink:href="#DejaVuSans-97"/>
      <use x="96.484375" xlink:href="#DejaVuSans-105"/>
      <use x="124.267578" xlink:href="#DejaVuSans-114"/>
      <use x="165.380859" xlink:href="#DejaVuSans-102"/>
      <use x="200.585938" xlink:href="#DejaVuSans-117"/>
      <use x="263.964844" xlink:href="#DejaVuSans-122"/>
      <use x="316.455078" xlink:href="#DejaVuSans-122"/>
     </g>
    </g>
    <g id="line2d_32">
     <path d="M 771.568125 59.772812 
L 791.568125 59.772812 
" style="fill:none;stroke:#aec7e8;stroke-linecap:square;stroke-width:1.5;"/>
    </g>
    <g id="line2d_33"/>
    <g id="text_23">
     <!-- dark -->
     <g transform="translate(799.568125 63.272812)scale(0.1 -0.1)">
      <defs>
       <path d="M 9.078125 75.984375 
L 18.109375 75.984375 
L 18.109375 31.109375 
L 44.921875 54.6875 
L 56.390625 54.6875 
L 27.390625 29.109375 
L 57.625 0 
L 45.90625 0 
L 18.109375 26.703125 
L 18.109375 0 
L 9.078125 0 
z
" id="DejaVuSans-107"/>
      </defs>
      <use xlink:href="#DejaVuSans-100"/>
      <use x="63.476562" xlink:href="#DejaVuSans-97"/>
      <use x="124.755859" xlink:href="#DejaVuSans-114"/>
      <use x="165.869141" xlink:href="#DejaVuSans-107"/>
     </g>
    </g>
    <g id="line2d_34">
     <path d="M 771.568125 74.450938 
L 791.568125 74.450938 
" style="fill:none;stroke:#ff7f0e;stroke-linecap:square;stroke-width:1.5;"/>
    </g>
    <g id="line2d_35"/>
    <g id="text_24">
     <!-- dark_w_prob -->
     <g transform="translate(799.568125 77.950938)scale(0.1 -0.1)">
      <defs>
       <path d="M 50.984375 -16.609375 
L 50.984375 -23.578125 
L -0.984375 -23.578125 
L -0.984375 -16.609375 
z
" id="DejaVuSans-95"/>
       <path d="M 4.203125 54.6875 
L 13.1875 54.6875 
L 24.421875 12.015625 
L 35.59375 54.6875 
L 46.1875 54.6875 
L 57.421875 12.015625 
L 68.609375 54.6875 
L 77.59375 54.6875 
L 63.28125 0 
L 52.6875 0 
L 40.921875 44.828125 
L 29.109375 0 
L 18.5 0 
z
" id="DejaVuSans-119"/>
       <path d="M 18.109375 8.203125 
L 18.109375 -20.796875 
L 9.078125 -20.796875 
L 9.078125 54.6875 
L 18.109375 54.6875 
L 18.109375 46.390625 
Q 20.953125 51.265625 25.265625 53.625 
Q 29.59375 56 35.59375 56 
Q 45.5625 56 51.78125 48.09375 
Q 58.015625 40.1875 58.015625 27.296875 
Q 58.015625 14.40625 51.78125 6.484375 
Q 45.5625 -1.421875 35.59375 -1.421875 
Q 29.59375 -1.421875 25.265625 0.953125 
Q 20.953125 3.328125 18.109375 8.203125 
z
M 48.6875 27.296875 
Q 48.6875 37.203125 44.609375 42.84375 
Q 40.53125 48.484375 33.40625 48.484375 
Q 26.265625 48.484375 22.1875 42.84375 
Q 18.109375 37.203125 18.109375 27.296875 
Q 18.109375 17.390625 22.1875 11.75 
Q 26.265625 6.109375 33.40625 6.109375 
Q 40.53125 6.109375 44.609375 11.75 
Q 48.6875 17.390625 48.6875 27.296875 
z
" id="DejaVuSans-112"/>
       <path d="M 48.6875 27.296875 
Q 48.6875 37.203125 44.609375 42.84375 
Q 40.53125 48.484375 33.40625 48.484375 
Q 26.265625 48.484375 22.1875 42.84375 
Q 18.109375 37.203125 18.109375 27.296875 
Q 18.109375 17.390625 22.1875 11.75 
Q 26.265625 6.109375 33.40625 6.109375 
Q 40.53125 6.109375 44.609375 11.75 
Q 48.6875 17.390625 48.6875 27.296875 
z
M 18.109375 46.390625 
Q 20.953125 51.265625 25.265625 53.625 
Q 29.59375 56 35.59375 56 
Q 45.5625 56 51.78125 48.09375 
Q 58.015625 40.1875 58.015625 27.296875 
Q 58.015625 14.40625 51.78125 6.484375 
Q 45.5625 -1.421875 35.59375 -1.421875 
Q 29.59375 -1.421875 25.265625 0.953125 
Q 20.953125 3.328125 18.109375 8.203125 
L 18.109375 0 
L 9.078125 0 
L 9.078125 75.984375 
L 18.109375 75.984375 
z
" id="DejaVuSans-98"/>
      </defs>
      <use xlink:href="#DejaVuSans-100"/>
      <use x="63.476562" xlink:href="#DejaVuSans-97"/>
      <use x="124.755859" xlink:href="#DejaVuSans-114"/>
      <use x="165.869141" xlink:href="#DejaVuSans-107"/>
      <use x="223.779297" xlink:href="#DejaVuSans-95"/>
      <use x="273.779297" xlink:href="#DejaVuSans-119"/>
      <use x="355.566406" xlink:href="#DejaVuSans-95"/>
      <use x="405.566406" xlink:href="#DejaVuSans-112"/>
      <use x="469.042969" xlink:href="#DejaVuSans-114"/>
      <use x="507.90625" xlink:href="#DejaVuSans-111"/>
      <use x="569.087891" xlink:href="#DejaVuSans-98"/>
     </g>
    </g>
    <g id="line2d_36">
     <path d="M 771.568125 89.407188 
L 791.568125 89.407188 
" style="fill:none;stroke:#1f77b4;stroke-linecap:square;stroke-width:1.5;"/>
    </g>
    <g id="line2d_37"/>
    <g id="text_25">
     <!-- afl -->
     <g transform="translate(799.568125 92.907188)scale(0.1 -0.1)">
      <use xlink:href="#DejaVuSans-97"/>
      <use x="61.279297" xlink:href="#DejaVuSans-102"/>
      <use x="96.484375" xlink:href="#DejaVuSans-108"/>
     </g>
    </g>
   </g>
  </g>
 </g>
 <defs>
  <clipPath id="p8d9779da77">
   <rect height="266.112" width="714.24" x="53.328125" y="22.318125"/>
  </clipPath>
 </defs>
</svg>
