<?xml version="1.0" encoding="utf-8" standalone="no"?>
<!DOCTYPE svg PUBLIC "-//W3C//DTD SVG 1.1//EN"
  "http://www.w3.org/Graphics/SVG/1.1/DTD/svg11.dtd">
<!-- Created with matplotlib (https://matplotlib.org/) -->
<svg height="325.986375pt" version="1.1" viewBox="0 0 874.025937 325.986375" width="874.025937pt" xmlns="http://www.w3.org/2000/svg" xmlns:xlink="http://www.w3.org/1999/xlink">
 <metadata>
  <rdf:RDF xmlns:cc="http://creativecommons.org/ns#" xmlns:dc="http://purl.org/dc/elements/1.1/" xmlns:rdf="http://www.w3.org/1999/02/22-rdf-syntax-ns#">
   <cc:Work>
    <dc:type rdf:resource="http://purl.org/dc/dcmitype/StillImage"/>
    <dc:date>2020-08-08T10:46:01.302412</dc:date>
    <dc:format>image/svg+xml</dc:format>
    <dc:creator>
     <cc:Agent>
      <dc:title>Matplotlib v3.3.0, https://matplotlib.org/</dc:title>
     </cc:Agent>
    </dc:creator>
   </cc:Work>
  </rdf:RDF>
 </metadata>
 <defs>
  <style type="text/css">*{stroke-linecap:butt;stroke-linejoin:round;}</style>
 </defs>
 <g id="figure_1">
  <g id="patch_1">
   <path d="M 0 325.986375 
L 874.025938 325.986375 
L 874.025938 0 
L 0 0 
z
" style="fill:#ffffff;"/>
  </g>
  <g id="axes_1">
   <g id="patch_2">
    <path d="M 53.328125 288.430125 
L 767.568125 288.430125 
L 767.568125 22.318125 
L 53.328125 22.318125 
z
" style="fill:#ffffff;"/>
   </g>
   <g id="PolyCollection_1">
    <defs>
     <path d="M 85.79358 -136.837273 
L 85.79358 -99.096952 
L 92.628412 -110.840422 
L 99.463245 -117.605816 
L 106.298077 -120.525601 
L 113.13291 -124.905185 
L 119.967742 -126.855883 
L 126.802575 -130.711739 
L 133.637407 -131.546668 
L 140.47224 -137.482825 
L 147.307072 -140.882695 
L 154.141905 -143.081026 
L 160.976737 -148.182254 
L 167.81157 -151.425575 
L 174.646403 -154.939868 
L 181.481235 -155.060174 
L 188.316068 -156.11636 
L 195.1509 -158.901987 
L 201.985733 -160.669571 
L 208.820565 -163.691445 
L 215.655398 -164.722583 
L 222.49023 -165.004561 
L 229.325063 -165.680095 
L 236.159895 -166.61977 
L 242.994728 -167.494169 
L 249.82956 -167.22832 
L 256.664393 -172.637713 
L 263.499225 -176.602488 
L 270.334058 -176.95164 
L 277.168891 -177.572524 
L 284.003723 -178.946932 
L 290.838556 -180.942413 
L 297.673388 -181.422307 
L 304.508221 -181.738252 
L 311.343053 -183.137707 
L 318.177886 -184.032789 
L 325.012718 -183.737338 
L 331.847551 -184.739253 
L 338.682383 -186.538147 
L 345.517216 -188.891129 
L 352.352048 -190.714121 
L 359.186881 -191.464229 
L 366.021714 -191.449049 
L 372.856546 -190.803876 
L 379.691379 -191.970121 
L 386.526211 -191.798201 
L 393.361044 -192.435783 
L 400.195876 -192.503337 
L 407.030709 -193.46806 
L 413.865541 -194.86372 
L 420.700374 -194.965619 
L 427.535206 -196.458624 
L 434.370039 -195.244182 
L 441.204871 -196.018389 
L 448.039704 -196.86755 
L 454.874536 -196.30644 
L 461.709369 -198.219566 
L 468.544202 -197.035485 
L 475.379034 -197.243268 
L 482.213867 -200.100434 
L 489.048699 -201.377117 
L 495.883532 -202.659872 
L 502.718364 -202.917941 
L 509.553197 -202.492886 
L 516.388029 -203.631426 
L 523.222862 -208.874402 
L 530.057694 -210.075562 
L 536.892527 -210.90404 
L 543.727359 -211.669518 
L 550.562192 -213.680938 
L 557.397025 -215.624047 
L 564.231857 -216.458976 
L 571.06669 -219.927727 
L 577.901522 -220.230389 
L 584.736355 -220.212742 
L 591.571187 -219.791103 
L 598.40602 -221.541987 
L 605.240852 -225.139014 
L 612.075685 -225.939218 
L 618.910517 -228.474367 
L 625.74535 -230.174587 
L 632.580182 -230.584461 
L 639.415015 -231.261703 
L 646.249847 -229.870976 
L 653.08468 -230.288441 
L 659.919513 -232.111243 
L 666.754345 -232.295876 
L 673.589178 -232.319217 
L 680.42401 -232.444076 
L 687.258843 -233.066478 
L 694.093675 -235.366329 
L 700.928508 -234.599712 
L 707.76334 -236.016625 
L 714.598173 -236.755348 
L 721.433005 -239.199413 
L 728.267838 -240.864338 
L 735.10267 -240.42638 
L 735.10267 -291.57225 
L 735.10267 -291.57225 
L 728.267838 -285.509715 
L 721.433005 -278.949637 
L 714.598173 -270.462391 
L 707.76334 -265.04427 
L 700.928508 -261.743073 
L 694.093675 -261.659011 
L 687.258843 -261.508344 
L 680.42401 -262.024862 
L 673.589178 -259.457834 
L 666.754345 -258.478689 
L 659.919513 -258.076405 
L 653.08468 -257.901829 
L 646.249847 -257.893859 
L 639.415015 -257.281894 
L 632.580182 -256.2555 
L 625.74535 -255.009938 
L 618.910517 -251.498681 
L 612.075685 -250.592593 
L 605.240852 -249.661457 
L 598.40602 -245.969931 
L 591.571187 -245.708256 
L 584.736355 -246.156651 
L 577.901522 -244.749226 
L 571.06669 -243.972932 
L 564.231857 -241.964168 
L 557.397025 -242.194722 
L 550.562192 -241.65866 
L 543.727359 -242.041968 
L 536.892527 -241.438542 
L 530.057694 -239.924473 
L 523.222862 -238.110969 
L 516.388029 -237.332208 
L 509.553197 -233.005756 
L 502.718364 -233.293237 
L 495.883532 -229.420114 
L 489.048699 -229.005686 
L 482.213867 -225.529344 
L 475.379034 -223.723809 
L 468.544202 -224.140325 
L 461.709369 -223.566501 
L 454.874536 -224.102374 
L 448.039704 -224.039564 
L 441.204871 -223.775992 
L 434.370039 -222.478247 
L 427.535206 -222.084122 
L 420.700374 -220.185797 
L 413.865541 -217.005475 
L 407.030709 -214.827069 
L 400.195876 -208.132454 
L 393.361044 -207.735483 
L 386.526211 -207.510052 
L 379.691379 -207.323901 
L 372.856546 -205.597305 
L 366.021714 -205.175476 
L 359.186881 -204.990084 
L 352.352048 -203.754388 
L 345.517216 -203.380947 
L 338.682383 -203.138059 
L 331.847551 -199.968174 
L 325.012718 -198.517294 
L 318.177886 -198.075351 
L 311.343053 -196.120668 
L 304.508221 -195.562973 
L 297.673388 -195.765633 
L 290.838556 -194.416843 
L 284.003723 -191.874293 
L 277.168891 -186.993562 
L 270.334058 -185.908154 
L 263.499225 -185.415926 
L 256.664393 -184.458414 
L 249.82956 -183.684206 
L 242.994728 -183.206399 
L 236.159895 -179.760039 
L 229.325063 -178.272347 
L 222.49023 -176.010447 
L 215.655398 -175.662054 
L 208.820565 -174.879498 
L 201.985733 -171.86768 
L 195.1509 -171.365774 
L 188.316068 -169.983776 
L 181.481235 -168.728156 
L 174.646403 -168.185073 
L 167.81157 -167.372724 
L 160.976737 -166.3784 
L 154.141905 -165.133596 
L 147.307072 -164.199993 
L 140.47224 -160.120415 
L 133.637407 -157.733086 
L 126.802575 -156.829845 
L 119.967742 -153.801328 
L 113.13291 -150.410187 
L 106.298077 -145.0118 
L 99.463245 -145.254689 
L 92.628412 -143.114234 
L 85.79358 -136.837273 
z
" id="m9f74db4a1e" style="stroke:#ffbb78;stroke-opacity:0.2;"/>
    </defs>
    <g clip-path="url(#p09d717f164)">
     <use style="fill:#ffbb78;fill-opacity:0.2;stroke:#ffbb78;stroke-opacity:0.2;" x="0" xlink:href="#m9f74db4a1e" y="325.986375"/>
    </g>
   </g>
   <g id="PolyCollection_2">
    <defs>
     <path d="M 85.79358 -146.241423 
L 85.79358 -110.102079 
L 92.628412 -115.235186 
L 99.463245 -118.17964 
L 106.298077 -120.062595 
L 113.13291 -123.370813 
L 119.967742 -127.774306 
L 126.802575 -130.147782 
L 133.637407 -130.112108 
L 140.47224 -131.893733 
L 147.307072 -133.709894 
L 154.141905 -134.081817 
L 160.976737 -138.278855 
L 167.81157 -141.01173 
L 174.646403 -142.425227 
L 181.481235 -143.30399 
L 188.316068 -143.729045 
L 195.1509 -145.171196 
L 201.985733 -146.123205 
L 208.820565 -145.980698 
L 215.655398 -151.501478 
L 222.49023 -151.774727 
L 229.325063 -152.306046 
L 236.159895 -153.821063 
L 242.994728 -154.86074 
L 249.82956 -155.575743 
L 256.664393 -156.655269 
L 263.499225 -157.065143 
L 270.334058 -157.808989 
L 277.168891 -158.38528 
L 284.003723 -159.098955 
L 290.838556 -160.236546 
L 297.673388 -160.67811 
L 304.508221 -163.349883 
L 311.343053 -163.653494 
L 318.177886 -163.850841 
L 325.012718 -164.169632 
L 331.847551 -167.264373 
L 338.682383 -166.963609 
L 345.517216 -166.598517 
L 352.352048 -166.788274 
L 359.186881 -169.141256 
L 366.021714 -171.986847 
L 372.856546 -171.190628 
L 379.691379 -172.910203 
L 386.526211 -173.22482 
L 393.361044 -173.976256 
L 400.195876 -174.590309 
L 407.030709 -175.198289 
L 413.865541 -176.048399 
L 420.700374 -176.687879 
L 427.535206 -179.099686 
L 434.370039 -179.251491 
L 441.204871 -179.885847 
L 448.039704 -180.480355 
L 454.874536 -180.131013 
L 461.709369 -180.619447 
L 468.544202 -180.639181 
L 475.379034 -180.982072 
L 482.213867 -180.982072 
L 489.048699 -181.337676 
L 495.883532 -181.041465 
L 502.718364 -181.376766 
L 509.553197 -182.841687 
L 516.388029 -183.623484 
L 523.222862 -183.448908 
L 530.057694 -184.883468 
L 536.892527 -185.619345 
L 543.727359 -185.559002 
L 550.562192 -186.765475 
L 557.397025 -186.399055 
L 564.231857 -187.532471 
L 571.06669 -187.762267 
L 577.901522 -187.749743 
L 584.736355 -188.388843 
L 591.571187 -188.0562 
L 598.40602 -189.574253 
L 605.240852 -190.128342 
L 612.075685 -190.95644 
L 618.910517 -191.691937 
L 625.74535 -191.456639 
L 632.580182 -192.473355 
L 639.415015 -192.387585 
L 646.249847 -192.702012 
L 653.08468 -192.246027 
L 659.919513 -193.42897 
L 666.754345 -193.451551 
L 673.589178 -193.767496 
L 680.42401 -194.773585 
L 687.258843 -195.164484 
L 694.093675 -195.833186 
L 700.928508 -195.934896 
L 707.76334 -196.32959 
L 714.598173 -197.158447 
L 721.433005 -197.809692 
L 728.267838 -200.177855 
L 735.10267 -199.76039 
L 735.10267 -260.011923 
L 735.10267 -260.011923 
L 728.267838 -248.237902 
L 721.433005 -239.897718 
L 714.598173 -231.457342 
L 707.76334 -227.671697 
L 700.928508 -226.796918 
L 694.093675 -227.388959 
L 687.258843 -226.29691 
L 680.42401 -226.427652 
L 673.589178 -226.365791 
L 666.754345 -225.300118 
L 659.919513 -224.884171 
L 653.08468 -221.688669 
L 646.249847 -222.933473 
L 639.415015 -221.421492 
L 632.580182 -220.127731 
L 625.74535 -219.085208 
L 618.910517 -218.989001 
L 612.075685 -218.474191 
L 605.240852 -218.995453 
L 598.40602 -218.454836 
L 591.571187 -217.33679 
L 584.736355 -216.975114 
L 577.901522 -217.485749 
L 571.06669 -215.71513 
L 564.231857 -216.899211 
L 557.397025 -216.08174 
L 550.562192 -216.384401 
L 543.727359 -214.684372 
L 536.892527 -215.237322 
L 530.057694 -214.904869 
L 523.222862 -214.002196 
L 516.388029 -213.871454 
L 509.553197 -215.183811 
L 502.718364 -213.127039 
L 495.883532 -213.073717 
L 489.048699 -212.810145 
L 482.213867 -213.121346 
L 475.379034 -213.984549 
L 468.544202 -212.481676 
L 461.709369 -211.859275 
L 454.874536 -212.188882 
L 448.039704 -210.819408 
L 441.204871 -209.612556 
L 434.370039 -209.217862 
L 427.535206 -209.413501 
L 420.700374 -208.285208 
L 413.865541 -208.068696 
L 407.030709 -206.888409 
L 400.195876 -208.124864 
L 393.361044 -205.439427 
L 386.526211 -207.236802 
L 379.691379 -204.815507 
L 372.856546 -204.709244 
L 366.021714 -203.56596 
L 359.186881 -203.821183 
L 352.352048 -203.297834 
L 345.517216 -201.726269 
L 338.682383 -203.267093 
L 331.847551 -202.620213 
L 325.012718 -201.308805 
L 318.177886 -197.902673 
L 311.343053 -197.604755 
L 304.508221 -197.77174 
L 297.673388 -194.507926 
L 290.838556 -195.502251 
L 284.003723 -189.574253 
L 277.168891 -187.289583 
L 270.334058 -186.007018 
L 263.499225 -185.582722 
L 256.664393 -183.583066 
L 249.82956 -183.851192 
L 242.994728 -183.957456 
L 236.159895 -181.10029 
L 229.325063 -180.329309 
L 222.49023 -180.890988 
L 215.655398 -179.995337 
L 208.820565 -178.330222 
L 201.985733 -176.322977 
L 195.1509 -175.50949 
L 188.316068 -173.611923 
L 181.481235 -173.109068 
L 174.646403 -172.315506 
L 167.81157 -170.927815 
L 160.976737 -170.249435 
L 154.141905 -169.027402 
L 147.307072 -169.331013 
L 140.47224 -166.363219 
L 133.637407 -166.304394 
L 126.802575 -162.317607 
L 119.967742 -160.480004 
L 113.13291 -156.533824 
L 106.298077 -155.396233 
L 99.463245 -153.884821 
L 92.628412 -151.669792 
L 85.79358 -146.241423 
z
" id="m95dd2ecdba" style="stroke:#1f77b4;stroke-opacity:0.2;"/>
    </defs>
    <g clip-path="url(#p09d717f164)">
     <use style="fill:#1f77b4;fill-opacity:0.2;stroke:#1f77b4;stroke-opacity:0.2;" x="0" xlink:href="#m95dd2ecdba" y="325.986375"/>
    </g>
   </g>
   <g id="PolyCollection_3">
    <defs>
     <path d="M 85.79358 -93.322087 
L 85.79358 -49.65225 
L 92.628412 -63.670143 
L 99.463245 -68.30457 
L 106.298077 -79.325637 
L 113.13291 -88.608532 
L 119.967742 -98.589163 
L 126.802575 -101.145944 
L 133.637407 -104.244481 
L 140.47224 -106.673366 
L 147.307072 -113.967612 
L 154.141905 -116.216038 
L 160.976737 -120.753309 
L 167.81157 -121.155594 
L 174.646403 -125.079761 
L 181.481235 -126.18035 
L 188.316068 -126.688898 
L 195.1509 -127.303709 
L 201.985733 -128.73789 
L 208.820565 -128.797663 
L 215.655398 -131.88064 
L 222.49023 -133.514065 
L 229.325063 -134.45374 
L 236.159895 -133.655813 
L 242.994728 -134.510098 
L 249.82956 -134.810482 
L 256.664393 -135.007829 
L 263.499225 -134.332296 
L 270.334058 -135.716001 
L 277.168891 -135.994564 
L 284.003723 -137.007865 
L 290.838556 -138.582845 
L 297.673388 -139.228017 
L 304.508221 -140.210767 
L 311.343053 -140.298245 
L 318.177886 -141.171126 
L 325.012718 -143.371733 
L 331.847551 -144.495283 
L 338.682383 -148.15417 
L 345.517216 -148.283205 
L 352.352048 -149.482467 
L 359.186881 -150.7045 
L 366.021714 -151.205457 
L 372.856546 -151.471117 
L 379.691379 -152.776643 
L 386.526211 -152.70074 
L 393.361044 -153.28519 
L 400.195876 -153.027121 
L 407.030709 -155.288072 
L 413.865541 -156.350709 
L 420.700374 -157.459837 
L 427.535206 -158.1126 
L 434.370039 -160.445658 
L 441.204871 -160.936179 
L 448.039704 -161.687615 
L 454.874536 -161.915323 
L 461.709369 -162.10508 
L 468.544202 -162.96278 
L 475.379034 -162.583266 
L 482.213867 -163.715355 
L 489.048699 -165.329614 
L 495.883532 -164.69336 
L 502.718364 -165.541762 
L 509.553197 -165.938164 
L 516.388029 -166.811045 
L 523.222862 -165.998886 
L 530.057694 -168.230424 
L 536.892527 -168.883187 
L 543.727359 -169.672575 
L 550.562192 -169.52836 
L 557.397025 -170.469553 
L 564.231857 -170.825536 
L 571.06669 -171.505624 
L 577.901522 -172.253266 
L 584.736355 -173.627104 
L 591.571187 -173.177191 
L 598.40602 -173.832041 
L 605.240852 -174.572661 
L 612.075685 -174.247798 
L 618.910517 -174.902268 
L 625.74535 -175.478749 
L 632.580182 -175.653705 
L 639.415015 -175.304553 
L 646.249847 -180.622862 
L 653.08468 -181.137103 
L 659.919513 -181.088335 
L 666.754345 -181.094787 
L 673.589178 -181.592709 
L 680.42401 -181.610735 
L 687.258843 -181.422307 
L 694.093675 -181.748309 
L 700.928508 -182.118904 
L 707.76334 -182.953074 
L 714.598173 -184.056129 
L 721.433005 -184.411354 
L 728.267838 -185.020093 
L 735.10267 -186.328465 
L 735.10267 -213.238426 
L 735.10267 -213.238426 
L 728.267838 -212.92343 
L 721.433005 -201.495715 
L 714.598173 -196.011558 
L 707.76334 -193.567113 
L 700.928508 -193.392536 
L 694.093675 -191.68947 
L 687.258843 -191.647534 
L 680.42401 -191.473148 
L 673.589178 -191.031584 
L 666.754345 -190.447134 
L 659.919513 -190.417532 
L 653.08468 -188.708963 
L 646.249847 -188.412942 
L 639.415015 -188.33704 
L 632.580182 -187.866823 
L 625.74535 -187.623555 
L 618.910517 -187.342715 
L 612.075685 -186.697542 
L 605.240852 -186.606459 
L 598.40602 -186.585586 
L 591.571187 -186.303228 
L 584.736355 -185.414787 
L 577.901522 -185.164308 
L 571.06669 -183.653845 
L 564.231857 -183.59597 
L 557.397025 -183.335054 
L 550.562192 -181.88019 
L 543.727359 -181.278092 
L 536.892527 -180.124372 
L 530.057694 -180.1257 
L 523.222862 -179.678064 
L 516.388029 -179.259081 
L 509.553197 -179.328912 
L 502.718364 -178.067409 
L 495.883532 -176.018038 
L 489.048699 -175.996595 
L 482.213867 -175.175518 
L 475.379034 -173.316472 
L 468.544202 -173.725777 
L 461.709369 -173.505849 
L 454.874536 -172.95916 
L 448.039704 -172.761813 
L 441.204871 -172.71779 
L 434.370039 -172.837716 
L 427.535206 -171.608093 
L 420.700374 -171.137496 
L 413.865541 -170.653237 
L 407.030709 -170.617753 
L 400.195876 -170.371828 
L 393.361044 -170.143172 
L 386.526211 -167.053933 
L 379.691379 -166.644818 
L 372.856546 -165.969474 
L 366.021714 -165.755998 
L 359.186881 -165.778768 
L 352.352048 -165.452577 
L 345.517216 -164.184813 
L 338.682383 -163.54723 
L 331.847551 -163.478918 
L 325.012718 -163.244189 
L 318.177886 -162.287246 
L 311.343053 -161.239789 
L 304.508221 -160.177152 
L 297.673388 -159.752097 
L 290.838556 -158.271995 
L 284.003723 -158.499703 
L 277.168891 -156.913907 
L 270.334058 -156.41997 
L 263.499225 -155.838746 
L 256.664393 -155.255623 
L 249.82956 -154.402667 
L 242.994728 -154.030365 
L 236.159895 -152.70833 
L 229.325063 -151.995604 
L 222.49023 -150.71209 
L 215.655398 -148.898016 
L 208.820565 -147.526455 
L 201.985733 -145.209147 
L 195.1509 -143.971934 
L 188.316068 -142.469061 
L 181.481235 -141.657472 
L 174.646403 -142.044575 
L 167.81157 -138.73465 
L 160.976737 -138.256463 
L 154.141905 -135.501197 
L 147.307072 -135.440475 
L 140.47224 -124.897595 
L 133.637407 -123.470625 
L 126.802575 -120.077776 
L 119.967742 -118.423098 
L 113.13291 -112.024503 
L 106.298077 -108.077565 
L 99.463245 -105.993468 
L 92.628412 -101.443672 
L 85.79358 -93.322087 
z
" id="ma9cc519024" style="stroke:#aec7e8;stroke-opacity:0.2;"/>
    </defs>
    <g clip-path="url(#p09d717f164)">
     <use style="fill:#aec7e8;fill-opacity:0.2;stroke:#aec7e8;stroke-opacity:0.2;" x="0" xlink:href="#ma9cc519024" y="325.986375"/>
    </g>
   </g>
   <g id="PolyCollection_4">
    <defs>
     <path d="M 85.79358 -111.713302 
L 85.79358 -56.129783 
L 92.628412 -70.216179 
L 99.463245 -79.378768 
L 106.298077 -86.490848 
L 113.13291 -101.117291 
L 119.967742 -107.758774 
L 126.802575 -108.958036 
L 133.637407 -109.140202 
L 140.47224 -116.842425 
L 147.307072 -118.421959 
L 154.141905 -122.46852 
L 160.976737 -125.406143 
L 167.81157 -129.057061 
L 174.646403 -129.353081 
L 181.481235 -133.296414 
L 188.316068 -134.871205 
L 195.1509 -135.330985 
L 201.985733 -136.129101 
L 208.820565 -138.013575 
L 215.655398 -138.294415 
L 222.49023 -138.544893 
L 229.325063 -139.425364 
L 236.159895 -139.000309 
L 242.994728 -140.131259 
L 249.82956 -142.217064 
L 256.664393 -143.15617 
L 263.499225 -144.199642 
L 270.334058 -145.531164 
L 277.168891 -147.51545 
L 284.003723 -149.489108 
L 290.838556 -151.114374 
L 297.673388 -152.032796 
L 304.508221 -152.928448 
L 311.343053 -152.860135 
L 318.177886 -152.351588 
L 325.012718 -154.544226 
L 331.847551 -155.259608 
L 338.682383 -156.101179 
L 345.517216 -157.054896 
L 352.352048 -156.738761 
L 359.186881 -157.019601 
L 366.021714 -157.657184 
L 372.856546 -158.700086 
L 379.691379 -158.735001 
L 386.526211 -159.349813 
L 393.361044 -159.546401 
L 400.195876 -160.00751 
L 407.030709 -160.324783 
L 413.865541 -160.860276 
L 420.700374 -161.773195 
L 427.535206 -161.316071 
L 434.370039 -161.489889 
L 441.204871 -161.121191 
L 448.039704 -162.196163 
L 454.874536 -161.960865 
L 461.709369 -163.220849 
L 468.544202 -165.444038 
L 475.379034 -165.027332 
L 482.213867 -165.551061 
L 489.048699 -167.074617 
L 495.883532 -167.089418 
L 502.718364 -167.661155 
L 509.553197 -167.22016 
L 516.388029 -168.162112 
L 523.222862 -168.652823 
L 530.057694 -168.830055 
L 536.892527 -169.672575 
L 543.727359 -169.262701 
L 550.562192 -169.171617 
L 557.397025 -168.936319 
L 564.231857 -168.9515 
L 571.06669 -169.740887 
L 577.901522 -170.203324 
L 584.736355 -170.477143 
L 591.571187 -170.712442 
L 598.40602 -170.965956 
L 605.240852 -171.071461 
L 612.075685 -171.955537 
L 618.910517 -171.637695 
L 625.74535 -172.723103 
L 632.580182 -173.70813 
L 639.415015 -173.961075 
L 646.249847 -174.309469 
L 653.08468 -174.560706 
L 659.919513 -175.007963 
L 666.754345 -175.911774 
L 673.589178 -175.334914 
L 680.42401 -178.204034 
L 687.258843 -179.243901 
L 694.093675 -179.486789 
L 700.928508 -180.07067 
L 707.76334 -180.448855 
L 714.598173 -182.226875 
L 721.433005 -184.714965 
L 728.267838 -185.308523 
L 735.10267 -185.817071 
L 735.10267 -202.656456 
L 735.10267 -202.656456 
L 728.267838 -200.777486 
L 721.433005 -195.859942 
L 714.598173 -191.623625 
L 707.76334 -189.801961 
L 700.928508 -189.460399 
L 694.093675 -189.134587 
L 687.258843 -189.157358 
L 680.42401 -188.938568 
L 673.589178 -188.481255 
L 666.754345 -188.07138 
L 659.919513 -188.496435 
L 653.08468 -187.919575 
L 646.249847 -187.708755 
L 639.415015 -187.646325 
L 632.580182 -187.623555 
L 625.74535 -187.80648 
L 618.910517 -186.500195 
L 612.075685 -186.015557 
L 605.240852 -185.931874 
L 598.40602 -185.020093 
L 591.571187 -185.042864 
L 584.736355 -184.839824 
L 577.901522 -184.43033 
L 571.06669 -184.306608 
L 564.231857 -184.040949 
L 557.397025 -184.048539 
L 550.562192 -183.927095 
L 543.727359 -183.722158 
L 536.892527 -183.558777 
L 530.057694 -183.21361 
L 523.222862 -183.357825 
L 516.388029 -183.061805 
L 509.553197 -183.146057 
L 502.718364 -182.424222 
L 495.883532 -181.468418 
L 489.048699 -181.316043 
L 482.213867 -180.884347 
L 475.379034 -180.075604 
L 468.544202 -180.218491 
L 461.709369 -178.95566 
L 454.874536 -179.375023 
L 448.039704 -178.9327 
L 441.204871 -178.704992 
L 434.370039 -178.295117 
L 427.535206 -178.501952 
L 420.700374 -178.128132 
L 413.865541 -177.562277 
L 407.030709 -177.127355 
L 400.195876 -175.851431 
L 393.361044 -174.257096 
L 386.526211 -172.591602 
L 379.691379 -171.926884 
L 372.856546 -171.732763 
L 366.021714 -168.972942 
L 359.186881 -168.98281 
L 352.352048 -167.884308 
L 345.517216 -168.336688 
L 338.682383 -167.623203 
L 331.847551 -166.578593 
L 325.012718 -166.226594 
L 318.177886 -165.8245 
L 311.343053 -165.566241 
L 304.508221 -165.80913 
L 297.673388 -164.877235 
L 290.838556 -164.004354 
L 284.003723 -162.265614 
L 277.168891 -160.245464 
L 270.334058 -159.941854 
L 263.499225 -159.683785 
L 256.664393 -157.297974 
L 249.82956 -157.666672 
L 242.994728 -156.480882 
L 236.159895 -155.987325 
L 229.325063 -155.137215 
L 222.49023 -154.366993 
L 215.655398 -152.951219 
L 208.820565 -152.670379 
L 201.985733 -149.877161 
L 195.1509 -147.767067 
L 188.316068 -147.56972 
L 181.481235 -146.529853 
L 174.646403 -145.915042 
L 167.81157 -144.510843 
L 160.976737 -142.83605 
L 154.141905 -141.406424 
L 147.307072 -137.992702 
L 140.47224 -135.782037 
L 133.637407 -135.213336 
L 126.802575 -133.699457 
L 119.967742 -132.389188 
L 113.13291 -128.434659 
L 106.298077 -124.943136 
L 99.463245 -120.619341 
L 92.628412 -115.698192 
L 85.79358 -111.713302 
z
" id="md0692854e1" style="stroke:#ff7f0e;stroke-opacity:0.2;"/>
    </defs>
    <g clip-path="url(#p09d717f164)">
     <use style="fill:#ff7f0e;fill-opacity:0.2;stroke:#ff7f0e;stroke-opacity:0.2;" x="0" xlink:href="#md0692854e1" y="325.986375"/>
    </g>
   </g>
   <g id="matplotlib.axis_1">
    <g id="xtick_1">
     <g id="line2d_1">
      <defs>
       <path d="M 0 0 
L 0 3.5 
" id="m0f7986ce5d" style="stroke:#000000;stroke-width:0.8;"/>
      </defs>
      <g>
       <use style="stroke:#000000;stroke-width:0.8;" x="85.79358" xlink:href="#m0f7986ce5d" y="288.430125"/>
      </g>
     </g>
     <g id="text_1">
      <!-- 15m -->
      <g transform="translate(74.560767 303.028562)scale(0.1 -0.1)">
       <defs>
        <path d="M 12.40625 8.296875 
L 28.515625 8.296875 
L 28.515625 63.921875 
L 10.984375 60.40625 
L 10.984375 69.390625 
L 28.421875 72.90625 
L 38.28125 72.90625 
L 38.28125 8.296875 
L 54.390625 8.296875 
L 54.390625 0 
L 12.40625 0 
z
" id="DejaVuSans-49"/>
        <path d="M 10.796875 72.90625 
L 49.515625 72.90625 
L 49.515625 64.59375 
L 19.828125 64.59375 
L 19.828125 46.734375 
Q 21.96875 47.46875 24.109375 47.828125 
Q 26.265625 48.1875 28.421875 48.1875 
Q 40.625 48.1875 47.75 41.5 
Q 54.890625 34.8125 54.890625 23.390625 
Q 54.890625 11.625 47.5625 5.09375 
Q 40.234375 -1.421875 26.90625 -1.421875 
Q 22.3125 -1.421875 17.546875 -0.640625 
Q 12.796875 0.140625 7.71875 1.703125 
L 7.71875 11.625 
Q 12.109375 9.234375 16.796875 8.0625 
Q 21.484375 6.890625 26.703125 6.890625 
Q 35.15625 6.890625 40.078125 11.328125 
Q 45.015625 15.765625 45.015625 23.390625 
Q 45.015625 31 40.078125 35.4375 
Q 35.15625 39.890625 26.703125 39.890625 
Q 22.75 39.890625 18.8125 39.015625 
Q 14.890625 38.140625 10.796875 36.28125 
z
" id="DejaVuSans-53"/>
        <path d="M 52 44.1875 
Q 55.375 50.25 60.0625 53.125 
Q 64.75 56 71.09375 56 
Q 79.640625 56 84.28125 50.015625 
Q 88.921875 44.046875 88.921875 33.015625 
L 88.921875 0 
L 79.890625 0 
L 79.890625 32.71875 
Q 79.890625 40.578125 77.09375 44.375 
Q 74.3125 48.1875 68.609375 48.1875 
Q 61.625 48.1875 57.5625 43.546875 
Q 53.515625 38.921875 53.515625 30.90625 
L 53.515625 0 
L 44.484375 0 
L 44.484375 32.71875 
Q 44.484375 40.625 41.703125 44.40625 
Q 38.921875 48.1875 33.109375 48.1875 
Q 26.21875 48.1875 22.15625 43.53125 
Q 18.109375 38.875 18.109375 30.90625 
L 18.109375 0 
L 9.078125 0 
L 9.078125 54.6875 
L 18.109375 54.6875 
L 18.109375 46.1875 
Q 21.1875 51.21875 25.484375 53.609375 
Q 29.78125 56 35.6875 56 
Q 41.65625 56 45.828125 52.96875 
Q 50 49.953125 52 44.1875 
z
" id="DejaVuSans-109"/>
       </defs>
       <use xlink:href="#DejaVuSans-49"/>
       <use x="63.623047" xlink:href="#DejaVuSans-53"/>
       <use x="127.246094" xlink:href="#DejaVuSans-109"/>
      </g>
     </g>
    </g>
    <g id="xtick_2">
     <g id="line2d_2">
      <g>
       <use style="stroke:#000000;stroke-width:0.8;" x="140.47224" xlink:href="#m0f7986ce5d" y="288.430125"/>
      </g>
     </g>
     <g id="text_2">
      <!-- 2h:15m -->
      <g transform="translate(121.205052 303.028562)scale(0.1 -0.1)">
       <defs>
        <path d="M 19.1875 8.296875 
L 53.609375 8.296875 
L 53.609375 0 
L 7.328125 0 
L 7.328125 8.296875 
Q 12.9375 14.109375 22.625 23.890625 
Q 32.328125 33.6875 34.8125 36.53125 
Q 39.546875 41.84375 41.421875 45.53125 
Q 43.3125 49.21875 43.3125 52.78125 
Q 43.3125 58.59375 39.234375 62.25 
Q 35.15625 65.921875 28.609375 65.921875 
Q 23.96875 65.921875 18.8125 64.3125 
Q 13.671875 62.703125 7.8125 59.421875 
L 7.8125 69.390625 
Q 13.765625 71.78125 18.9375 73 
Q 24.125 74.21875 28.421875 74.21875 
Q 39.75 74.21875 46.484375 68.546875 
Q 53.21875 62.890625 53.21875 53.421875 
Q 53.21875 48.921875 51.53125 44.890625 
Q 49.859375 40.875 45.40625 35.40625 
Q 44.1875 33.984375 37.640625 27.21875 
Q 31.109375 20.453125 19.1875 8.296875 
z
" id="DejaVuSans-50"/>
        <path d="M 54.890625 33.015625 
L 54.890625 0 
L 45.90625 0 
L 45.90625 32.71875 
Q 45.90625 40.484375 42.875 44.328125 
Q 39.84375 48.1875 33.796875 48.1875 
Q 26.515625 48.1875 22.3125 43.546875 
Q 18.109375 38.921875 18.109375 30.90625 
L 18.109375 0 
L 9.078125 0 
L 9.078125 75.984375 
L 18.109375 75.984375 
L 18.109375 46.1875 
Q 21.34375 51.125 25.703125 53.5625 
Q 30.078125 56 35.796875 56 
Q 45.21875 56 50.046875 50.171875 
Q 54.890625 44.34375 54.890625 33.015625 
z
" id="DejaVuSans-104"/>
        <path d="M 11.71875 12.40625 
L 22.015625 12.40625 
L 22.015625 0 
L 11.71875 0 
z
M 11.71875 51.703125 
L 22.015625 51.703125 
L 22.015625 39.3125 
L 11.71875 39.3125 
z
" id="DejaVuSans-58"/>
       </defs>
       <use xlink:href="#DejaVuSans-50"/>
       <use x="63.623047" xlink:href="#DejaVuSans-104"/>
       <use x="127.001953" xlink:href="#DejaVuSans-58"/>
       <use x="160.693359" xlink:href="#DejaVuSans-49"/>
       <use x="224.316406" xlink:href="#DejaVuSans-53"/>
       <use x="287.939453" xlink:href="#DejaVuSans-109"/>
      </g>
     </g>
    </g>
    <g id="xtick_3">
     <g id="line2d_3">
      <g>
       <use style="stroke:#000000;stroke-width:0.8;" x="195.1509" xlink:href="#m0f7986ce5d" y="288.430125"/>
      </g>
     </g>
     <g id="text_3">
      <!-- 4h:15m -->
      <g transform="translate(175.883713 303.028562)scale(0.1 -0.1)">
       <defs>
        <path d="M 37.796875 64.3125 
L 12.890625 25.390625 
L 37.796875 25.390625 
z
M 35.203125 72.90625 
L 47.609375 72.90625 
L 47.609375 25.390625 
L 58.015625 25.390625 
L 58.015625 17.1875 
L 47.609375 17.1875 
L 47.609375 0 
L 37.796875 0 
L 37.796875 17.1875 
L 4.890625 17.1875 
L 4.890625 26.703125 
z
" id="DejaVuSans-52"/>
       </defs>
       <use xlink:href="#DejaVuSans-52"/>
       <use x="63.623047" xlink:href="#DejaVuSans-104"/>
       <use x="127.001953" xlink:href="#DejaVuSans-58"/>
       <use x="160.693359" xlink:href="#DejaVuSans-49"/>
       <use x="224.316406" xlink:href="#DejaVuSans-53"/>
       <use x="287.939453" xlink:href="#DejaVuSans-109"/>
      </g>
     </g>
    </g>
    <g id="xtick_4">
     <g id="line2d_4">
      <g>
       <use style="stroke:#000000;stroke-width:0.8;" x="249.82956" xlink:href="#m0f7986ce5d" y="288.430125"/>
      </g>
     </g>
     <g id="text_4">
      <!-- 6h:15m -->
      <g transform="translate(230.562373 303.028562)scale(0.1 -0.1)">
       <defs>
        <path d="M 33.015625 40.375 
Q 26.375 40.375 22.484375 35.828125 
Q 18.609375 31.296875 18.609375 23.390625 
Q 18.609375 15.53125 22.484375 10.953125 
Q 26.375 6.390625 33.015625 6.390625 
Q 39.65625 6.390625 43.53125 10.953125 
Q 47.40625 15.53125 47.40625 23.390625 
Q 47.40625 31.296875 43.53125 35.828125 
Q 39.65625 40.375 33.015625 40.375 
z
M 52.59375 71.296875 
L 52.59375 62.3125 
Q 48.875 64.0625 45.09375 64.984375 
Q 41.3125 65.921875 37.59375 65.921875 
Q 27.828125 65.921875 22.671875 59.328125 
Q 17.53125 52.734375 16.796875 39.40625 
Q 19.671875 43.65625 24.015625 45.921875 
Q 28.375 48.1875 33.59375 48.1875 
Q 44.578125 48.1875 50.953125 41.515625 
Q 57.328125 34.859375 57.328125 23.390625 
Q 57.328125 12.15625 50.6875 5.359375 
Q 44.046875 -1.421875 33.015625 -1.421875 
Q 20.359375 -1.421875 13.671875 8.265625 
Q 6.984375 17.96875 6.984375 36.375 
Q 6.984375 53.65625 15.1875 63.9375 
Q 23.390625 74.21875 37.203125 74.21875 
Q 40.921875 74.21875 44.703125 73.484375 
Q 48.484375 72.75 52.59375 71.296875 
z
" id="DejaVuSans-54"/>
       </defs>
       <use xlink:href="#DejaVuSans-54"/>
       <use x="63.623047" xlink:href="#DejaVuSans-104"/>
       <use x="127.001953" xlink:href="#DejaVuSans-58"/>
       <use x="160.693359" xlink:href="#DejaVuSans-49"/>
       <use x="224.316406" xlink:href="#DejaVuSans-53"/>
       <use x="287.939453" xlink:href="#DejaVuSans-109"/>
      </g>
     </g>
    </g>
    <g id="xtick_5">
     <g id="line2d_5">
      <g>
       <use style="stroke:#000000;stroke-width:0.8;" x="304.508221" xlink:href="#m0f7986ce5d" y="288.430125"/>
      </g>
     </g>
     <g id="text_5">
      <!-- 8h:15m -->
      <g transform="translate(285.241033 303.028562)scale(0.1 -0.1)">
       <defs>
        <path d="M 31.78125 34.625 
Q 24.75 34.625 20.71875 30.859375 
Q 16.703125 27.09375 16.703125 20.515625 
Q 16.703125 13.921875 20.71875 10.15625 
Q 24.75 6.390625 31.78125 6.390625 
Q 38.8125 6.390625 42.859375 10.171875 
Q 46.921875 13.96875 46.921875 20.515625 
Q 46.921875 27.09375 42.890625 30.859375 
Q 38.875 34.625 31.78125 34.625 
z
M 21.921875 38.8125 
Q 15.578125 40.375 12.03125 44.71875 
Q 8.5 49.078125 8.5 55.328125 
Q 8.5 64.0625 14.71875 69.140625 
Q 20.953125 74.21875 31.78125 74.21875 
Q 42.671875 74.21875 48.875 69.140625 
Q 55.078125 64.0625 55.078125 55.328125 
Q 55.078125 49.078125 51.53125 44.71875 
Q 48 40.375 41.703125 38.8125 
Q 48.828125 37.15625 52.796875 32.3125 
Q 56.78125 27.484375 56.78125 20.515625 
Q 56.78125 9.90625 50.3125 4.234375 
Q 43.84375 -1.421875 31.78125 -1.421875 
Q 19.734375 -1.421875 13.25 4.234375 
Q 6.78125 9.90625 6.78125 20.515625 
Q 6.78125 27.484375 10.78125 32.3125 
Q 14.796875 37.15625 21.921875 38.8125 
z
M 18.3125 54.390625 
Q 18.3125 48.734375 21.84375 45.5625 
Q 25.390625 42.390625 31.78125 42.390625 
Q 38.140625 42.390625 41.71875 45.5625 
Q 45.3125 48.734375 45.3125 54.390625 
Q 45.3125 60.0625 41.71875 63.234375 
Q 38.140625 66.40625 31.78125 66.40625 
Q 25.390625 66.40625 21.84375 63.234375 
Q 18.3125 60.0625 18.3125 54.390625 
z
" id="DejaVuSans-56"/>
       </defs>
       <use xlink:href="#DejaVuSans-56"/>
       <use x="63.623047" xlink:href="#DejaVuSans-104"/>
       <use x="127.001953" xlink:href="#DejaVuSans-58"/>
       <use x="160.693359" xlink:href="#DejaVuSans-49"/>
       <use x="224.316406" xlink:href="#DejaVuSans-53"/>
       <use x="287.939453" xlink:href="#DejaVuSans-109"/>
      </g>
     </g>
    </g>
    <g id="xtick_6">
     <g id="line2d_6">
      <g>
       <use style="stroke:#000000;stroke-width:0.8;" x="359.186881" xlink:href="#m0f7986ce5d" y="288.430125"/>
      </g>
     </g>
     <g id="text_6">
      <!-- 10h:15m -->
      <g transform="translate(336.738443 303.028562)scale(0.1 -0.1)">
       <defs>
        <path d="M 31.78125 66.40625 
Q 24.171875 66.40625 20.328125 58.90625 
Q 16.5 51.421875 16.5 36.375 
Q 16.5 21.390625 20.328125 13.890625 
Q 24.171875 6.390625 31.78125 6.390625 
Q 39.453125 6.390625 43.28125 13.890625 
Q 47.125 21.390625 47.125 36.375 
Q 47.125 51.421875 43.28125 58.90625 
Q 39.453125 66.40625 31.78125 66.40625 
z
M 31.78125 74.21875 
Q 44.046875 74.21875 50.515625 64.515625 
Q 56.984375 54.828125 56.984375 36.375 
Q 56.984375 17.96875 50.515625 8.265625 
Q 44.046875 -1.421875 31.78125 -1.421875 
Q 19.53125 -1.421875 13.0625 8.265625 
Q 6.59375 17.96875 6.59375 36.375 
Q 6.59375 54.828125 13.0625 64.515625 
Q 19.53125 74.21875 31.78125 74.21875 
z
" id="DejaVuSans-48"/>
       </defs>
       <use xlink:href="#DejaVuSans-49"/>
       <use x="63.623047" xlink:href="#DejaVuSans-48"/>
       <use x="127.246094" xlink:href="#DejaVuSans-104"/>
       <use x="190.625" xlink:href="#DejaVuSans-58"/>
       <use x="224.316406" xlink:href="#DejaVuSans-49"/>
       <use x="287.939453" xlink:href="#DejaVuSans-53"/>
       <use x="351.5625" xlink:href="#DejaVuSans-109"/>
      </g>
     </g>
    </g>
    <g id="xtick_7">
     <g id="line2d_7">
      <g>
       <use style="stroke:#000000;stroke-width:0.8;" x="413.865541" xlink:href="#m0f7986ce5d" y="288.430125"/>
      </g>
     </g>
     <g id="text_7">
      <!-- 12h:15m -->
      <g transform="translate(391.417104 303.028562)scale(0.1 -0.1)">
       <use xlink:href="#DejaVuSans-49"/>
       <use x="63.623047" xlink:href="#DejaVuSans-50"/>
       <use x="127.246094" xlink:href="#DejaVuSans-104"/>
       <use x="190.625" xlink:href="#DejaVuSans-58"/>
       <use x="224.316406" xlink:href="#DejaVuSans-49"/>
       <use x="287.939453" xlink:href="#DejaVuSans-53"/>
       <use x="351.5625" xlink:href="#DejaVuSans-109"/>
      </g>
     </g>
    </g>
    <g id="xtick_8">
     <g id="line2d_8">
      <g>
       <use style="stroke:#000000;stroke-width:0.8;" x="468.544202" xlink:href="#m0f7986ce5d" y="288.430125"/>
      </g>
     </g>
     <g id="text_8">
      <!-- 14h:15m -->
      <g transform="translate(446.095764 303.028562)scale(0.1 -0.1)">
       <use xlink:href="#DejaVuSans-49"/>
       <use x="63.623047" xlink:href="#DejaVuSans-52"/>
       <use x="127.246094" xlink:href="#DejaVuSans-104"/>
       <use x="190.625" xlink:href="#DejaVuSans-58"/>
       <use x="224.316406" xlink:href="#DejaVuSans-49"/>
       <use x="287.939453" xlink:href="#DejaVuSans-53"/>
       <use x="351.5625" xlink:href="#DejaVuSans-109"/>
      </g>
     </g>
    </g>
    <g id="xtick_9">
     <g id="line2d_9">
      <g>
       <use style="stroke:#000000;stroke-width:0.8;" x="523.222862" xlink:href="#m0f7986ce5d" y="288.430125"/>
      </g>
     </g>
     <g id="text_9">
      <!-- 16h:15m -->
      <g transform="translate(500.774424 303.028562)scale(0.1 -0.1)">
       <use xlink:href="#DejaVuSans-49"/>
       <use x="63.623047" xlink:href="#DejaVuSans-54"/>
       <use x="127.246094" xlink:href="#DejaVuSans-104"/>
       <use x="190.625" xlink:href="#DejaVuSans-58"/>
       <use x="224.316406" xlink:href="#DejaVuSans-49"/>
       <use x="287.939453" xlink:href="#DejaVuSans-53"/>
       <use x="351.5625" xlink:href="#DejaVuSans-109"/>
      </g>
     </g>
    </g>
    <g id="xtick_10">
     <g id="line2d_10">
      <g>
       <use style="stroke:#000000;stroke-width:0.8;" x="577.901522" xlink:href="#m0f7986ce5d" y="288.430125"/>
      </g>
     </g>
     <g id="text_10">
      <!-- 18h:15m -->
      <g transform="translate(555.453085 303.028562)scale(0.1 -0.1)">
       <use xlink:href="#DejaVuSans-49"/>
       <use x="63.623047" xlink:href="#DejaVuSans-56"/>
       <use x="127.246094" xlink:href="#DejaVuSans-104"/>
       <use x="190.625" xlink:href="#DejaVuSans-58"/>
       <use x="224.316406" xlink:href="#DejaVuSans-49"/>
       <use x="287.939453" xlink:href="#DejaVuSans-53"/>
       <use x="351.5625" xlink:href="#DejaVuSans-109"/>
      </g>
     </g>
    </g>
    <g id="xtick_11">
     <g id="line2d_11">
      <g>
       <use style="stroke:#000000;stroke-width:0.8;" x="632.580182" xlink:href="#m0f7986ce5d" y="288.430125"/>
      </g>
     </g>
     <g id="text_11">
      <!-- 20h:15m -->
      <g transform="translate(610.131745 303.028562)scale(0.1 -0.1)">
       <use xlink:href="#DejaVuSans-50"/>
       <use x="63.623047" xlink:href="#DejaVuSans-48"/>
       <use x="127.246094" xlink:href="#DejaVuSans-104"/>
       <use x="190.625" xlink:href="#DejaVuSans-58"/>
       <use x="224.316406" xlink:href="#DejaVuSans-49"/>
       <use x="287.939453" xlink:href="#DejaVuSans-53"/>
       <use x="351.5625" xlink:href="#DejaVuSans-109"/>
      </g>
     </g>
    </g>
    <g id="xtick_12">
     <g id="line2d_12">
      <g>
       <use style="stroke:#000000;stroke-width:0.8;" x="687.258843" xlink:href="#m0f7986ce5d" y="288.430125"/>
      </g>
     </g>
     <g id="text_12">
      <!-- 22h:15m -->
      <g transform="translate(664.810405 303.028562)scale(0.1 -0.1)">
       <use xlink:href="#DejaVuSans-50"/>
       <use x="63.623047" xlink:href="#DejaVuSans-50"/>
       <use x="127.246094" xlink:href="#DejaVuSans-104"/>
       <use x="190.625" xlink:href="#DejaVuSans-58"/>
       <use x="224.316406" xlink:href="#DejaVuSans-49"/>
       <use x="287.939453" xlink:href="#DejaVuSans-53"/>
       <use x="351.5625" xlink:href="#DejaVuSans-109"/>
      </g>
     </g>
    </g>
    <g id="text_13">
     <!-- Time (hour:minute) -->
     <g transform="translate(362.041094 316.706687)scale(0.1 -0.1)">
      <defs>
       <path d="M -0.296875 72.90625 
L 61.375 72.90625 
L 61.375 64.59375 
L 35.5 64.59375 
L 35.5 0 
L 25.59375 0 
L 25.59375 64.59375 
L -0.296875 64.59375 
z
" id="DejaVuSans-84"/>
       <path d="M 9.421875 54.6875 
L 18.40625 54.6875 
L 18.40625 0 
L 9.421875 0 
z
M 9.421875 75.984375 
L 18.40625 75.984375 
L 18.40625 64.59375 
L 9.421875 64.59375 
z
" id="DejaVuSans-105"/>
       <path d="M 56.203125 29.59375 
L 56.203125 25.203125 
L 14.890625 25.203125 
Q 15.484375 15.921875 20.484375 11.0625 
Q 25.484375 6.203125 34.421875 6.203125 
Q 39.59375 6.203125 44.453125 7.46875 
Q 49.3125 8.734375 54.109375 11.28125 
L 54.109375 2.78125 
Q 49.265625 0.734375 44.1875 -0.34375 
Q 39.109375 -1.421875 33.890625 -1.421875 
Q 20.796875 -1.421875 13.15625 6.1875 
Q 5.515625 13.8125 5.515625 26.8125 
Q 5.515625 40.234375 12.765625 48.109375 
Q 20.015625 56 32.328125 56 
Q 43.359375 56 49.78125 48.890625 
Q 56.203125 41.796875 56.203125 29.59375 
z
M 47.21875 32.234375 
Q 47.125 39.59375 43.09375 43.984375 
Q 39.0625 48.390625 32.421875 48.390625 
Q 24.90625 48.390625 20.390625 44.140625 
Q 15.875 39.890625 15.1875 32.171875 
z
" id="DejaVuSans-101"/>
       <path id="DejaVuSans-32"/>
       <path d="M 31 75.875 
Q 24.46875 64.65625 21.28125 53.65625 
Q 18.109375 42.671875 18.109375 31.390625 
Q 18.109375 20.125 21.3125 9.0625 
Q 24.515625 -2 31 -13.1875 
L 23.1875 -13.1875 
Q 15.875 -1.703125 12.234375 9.375 
Q 8.59375 20.453125 8.59375 31.390625 
Q 8.59375 42.28125 12.203125 53.3125 
Q 15.828125 64.359375 23.1875 75.875 
z
" id="DejaVuSans-40"/>
       <path d="M 30.609375 48.390625 
Q 23.390625 48.390625 19.1875 42.75 
Q 14.984375 37.109375 14.984375 27.296875 
Q 14.984375 17.484375 19.15625 11.84375 
Q 23.34375 6.203125 30.609375 6.203125 
Q 37.796875 6.203125 41.984375 11.859375 
Q 46.1875 17.53125 46.1875 27.296875 
Q 46.1875 37.015625 41.984375 42.703125 
Q 37.796875 48.390625 30.609375 48.390625 
z
M 30.609375 56 
Q 42.328125 56 49.015625 48.375 
Q 55.71875 40.765625 55.71875 27.296875 
Q 55.71875 13.875 49.015625 6.21875 
Q 42.328125 -1.421875 30.609375 -1.421875 
Q 18.84375 -1.421875 12.171875 6.21875 
Q 5.515625 13.875 5.515625 27.296875 
Q 5.515625 40.765625 12.171875 48.375 
Q 18.84375 56 30.609375 56 
z
" id="DejaVuSans-111"/>
       <path d="M 8.5 21.578125 
L 8.5 54.6875 
L 17.484375 54.6875 
L 17.484375 21.921875 
Q 17.484375 14.15625 20.5 10.265625 
Q 23.53125 6.390625 29.59375 6.390625 
Q 36.859375 6.390625 41.078125 11.03125 
Q 45.3125 15.671875 45.3125 23.6875 
L 45.3125 54.6875 
L 54.296875 54.6875 
L 54.296875 0 
L 45.3125 0 
L 45.3125 8.40625 
Q 42.046875 3.421875 37.71875 1 
Q 33.40625 -1.421875 27.6875 -1.421875 
Q 18.265625 -1.421875 13.375 4.4375 
Q 8.5 10.296875 8.5 21.578125 
z
M 31.109375 56 
z
" id="DejaVuSans-117"/>
       <path d="M 41.109375 46.296875 
Q 39.59375 47.171875 37.8125 47.578125 
Q 36.03125 48 33.890625 48 
Q 26.265625 48 22.1875 43.046875 
Q 18.109375 38.09375 18.109375 28.8125 
L 18.109375 0 
L 9.078125 0 
L 9.078125 54.6875 
L 18.109375 54.6875 
L 18.109375 46.1875 
Q 20.953125 51.171875 25.484375 53.578125 
Q 30.03125 56 36.53125 56 
Q 37.453125 56 38.578125 55.875 
Q 39.703125 55.765625 41.0625 55.515625 
z
" id="DejaVuSans-114"/>
       <path d="M 54.890625 33.015625 
L 54.890625 0 
L 45.90625 0 
L 45.90625 32.71875 
Q 45.90625 40.484375 42.875 44.328125 
Q 39.84375 48.1875 33.796875 48.1875 
Q 26.515625 48.1875 22.3125 43.546875 
Q 18.109375 38.921875 18.109375 30.90625 
L 18.109375 0 
L 9.078125 0 
L 9.078125 54.6875 
L 18.109375 54.6875 
L 18.109375 46.1875 
Q 21.34375 51.125 25.703125 53.5625 
Q 30.078125 56 35.796875 56 
Q 45.21875 56 50.046875 50.171875 
Q 54.890625 44.34375 54.890625 33.015625 
z
" id="DejaVuSans-110"/>
       <path d="M 18.3125 70.21875 
L 18.3125 54.6875 
L 36.8125 54.6875 
L 36.8125 47.703125 
L 18.3125 47.703125 
L 18.3125 18.015625 
Q 18.3125 11.328125 20.140625 9.421875 
Q 21.96875 7.515625 27.59375 7.515625 
L 36.8125 7.515625 
L 36.8125 0 
L 27.59375 0 
Q 17.1875 0 13.234375 3.875 
Q 9.28125 7.765625 9.28125 18.015625 
L 9.28125 47.703125 
L 2.6875 47.703125 
L 2.6875 54.6875 
L 9.28125 54.6875 
L 9.28125 70.21875 
z
" id="DejaVuSans-116"/>
       <path d="M 8.015625 75.875 
L 15.828125 75.875 
Q 23.140625 64.359375 26.78125 53.3125 
Q 30.421875 42.28125 30.421875 31.390625 
Q 30.421875 20.453125 26.78125 9.375 
Q 23.140625 -1.703125 15.828125 -13.1875 
L 8.015625 -13.1875 
Q 14.5 -2 17.703125 9.0625 
Q 20.90625 20.125 20.90625 31.390625 
Q 20.90625 42.671875 17.703125 53.65625 
Q 14.5 64.65625 8.015625 75.875 
z
" id="DejaVuSans-41"/>
      </defs>
      <use xlink:href="#DejaVuSans-84"/>
      <use x="57.958984" xlink:href="#DejaVuSans-105"/>
      <use x="85.742188" xlink:href="#DejaVuSans-109"/>
      <use x="183.154297" xlink:href="#DejaVuSans-101"/>
      <use x="244.677734" xlink:href="#DejaVuSans-32"/>
      <use x="276.464844" xlink:href="#DejaVuSans-40"/>
      <use x="315.478516" xlink:href="#DejaVuSans-104"/>
      <use x="378.857422" xlink:href="#DejaVuSans-111"/>
      <use x="440.039062" xlink:href="#DejaVuSans-117"/>
      <use x="503.417969" xlink:href="#DejaVuSans-114"/>
      <use x="542.78125" xlink:href="#DejaVuSans-58"/>
      <use x="576.472656" xlink:href="#DejaVuSans-109"/>
      <use x="673.884766" xlink:href="#DejaVuSans-105"/>
      <use x="701.667969" xlink:href="#DejaVuSans-110"/>
      <use x="765.046875" xlink:href="#DejaVuSans-117"/>
      <use x="828.425781" xlink:href="#DejaVuSans-116"/>
      <use x="867.634766" xlink:href="#DejaVuSans-101"/>
      <use x="929.158203" xlink:href="#DejaVuSans-41"/>
     </g>
    </g>
   </g>
   <g id="matplotlib.axis_2">
    <g id="ytick_1">
     <g id="line2d_13">
      <defs>
       <path d="M 0 0 
L -3.5 0 
" id="m56d4b3bdf7" style="stroke:#000000;stroke-width:0.8;"/>
      </defs>
      <g>
       <use style="stroke:#000000;stroke-width:0.8;" x="53.328125" xlink:href="#m56d4b3bdf7" y="287.20794"/>
      </g>
     </g>
     <g id="text_14">
      <!-- 4000 -->
      <g transform="translate(20.878125 291.007159)scale(0.1 -0.1)">
       <use xlink:href="#DejaVuSans-52"/>
       <use x="63.623047" xlink:href="#DejaVuSans-48"/>
       <use x="127.246094" xlink:href="#DejaVuSans-48"/>
       <use x="190.869141" xlink:href="#DejaVuSans-48"/>
      </g>
     </g>
    </g>
    <g id="ytick_2">
     <g id="line2d_14">
      <g>
       <use style="stroke:#000000;stroke-width:0.8;" x="53.328125" xlink:href="#m56d4b3bdf7" y="241.666343"/>
      </g>
     </g>
     <g id="text_15">
      <!-- 5000 -->
      <g transform="translate(20.878125 245.465562)scale(0.1 -0.1)">
       <use xlink:href="#DejaVuSans-53"/>
       <use x="63.623047" xlink:href="#DejaVuSans-48"/>
       <use x="127.246094" xlink:href="#DejaVuSans-48"/>
       <use x="190.869141" xlink:href="#DejaVuSans-48"/>
      </g>
     </g>
    </g>
    <g id="ytick_3">
     <g id="line2d_15">
      <g>
       <use style="stroke:#000000;stroke-width:0.8;" x="53.328125" xlink:href="#m56d4b3bdf7" y="196.124746"/>
      </g>
     </g>
     <g id="text_16">
      <!-- 6000 -->
      <g transform="translate(20.878125 199.923965)scale(0.1 -0.1)">
       <use xlink:href="#DejaVuSans-54"/>
       <use x="63.623047" xlink:href="#DejaVuSans-48"/>
       <use x="127.246094" xlink:href="#DejaVuSans-48"/>
       <use x="190.869141" xlink:href="#DejaVuSans-48"/>
      </g>
     </g>
    </g>
    <g id="ytick_4">
     <g id="line2d_16">
      <g>
       <use style="stroke:#000000;stroke-width:0.8;" x="53.328125" xlink:href="#m56d4b3bdf7" y="150.583149"/>
      </g>
     </g>
     <g id="text_17">
      <!-- 7000 -->
      <g transform="translate(20.878125 154.382368)scale(0.1 -0.1)">
       <defs>
        <path d="M 8.203125 72.90625 
L 55.078125 72.90625 
L 55.078125 68.703125 
L 28.609375 0 
L 18.3125 0 
L 43.21875 64.59375 
L 8.203125 64.59375 
z
" id="DejaVuSans-55"/>
       </defs>
       <use xlink:href="#DejaVuSans-55"/>
       <use x="63.623047" xlink:href="#DejaVuSans-48"/>
       <use x="127.246094" xlink:href="#DejaVuSans-48"/>
       <use x="190.869141" xlink:href="#DejaVuSans-48"/>
      </g>
     </g>
    </g>
    <g id="ytick_5">
     <g id="line2d_17">
      <g>
       <use style="stroke:#000000;stroke-width:0.8;" x="53.328125" xlink:href="#m56d4b3bdf7" y="105.041552"/>
      </g>
     </g>
     <g id="text_18">
      <!-- 8000 -->
      <g transform="translate(20.878125 108.840771)scale(0.1 -0.1)">
       <use xlink:href="#DejaVuSans-56"/>
       <use x="63.623047" xlink:href="#DejaVuSans-48"/>
       <use x="127.246094" xlink:href="#DejaVuSans-48"/>
       <use x="190.869141" xlink:href="#DejaVuSans-48"/>
      </g>
     </g>
    </g>
    <g id="ytick_6">
     <g id="line2d_18">
      <g>
       <use style="stroke:#000000;stroke-width:0.8;" x="53.328125" xlink:href="#m56d4b3bdf7" y="59.499955"/>
      </g>
     </g>
     <g id="text_19">
      <!-- 9000 -->
      <g transform="translate(20.878125 63.299173)scale(0.1 -0.1)">
       <defs>
        <path d="M 10.984375 1.515625 
L 10.984375 10.5 
Q 14.703125 8.734375 18.5 7.8125 
Q 22.3125 6.890625 25.984375 6.890625 
Q 35.75 6.890625 40.890625 13.453125 
Q 46.046875 20.015625 46.78125 33.40625 
Q 43.953125 29.203125 39.59375 26.953125 
Q 35.25 24.703125 29.984375 24.703125 
Q 19.046875 24.703125 12.671875 31.3125 
Q 6.296875 37.9375 6.296875 49.421875 
Q 6.296875 60.640625 12.9375 67.421875 
Q 19.578125 74.21875 30.609375 74.21875 
Q 43.265625 74.21875 49.921875 64.515625 
Q 56.59375 54.828125 56.59375 36.375 
Q 56.59375 19.140625 48.40625 8.859375 
Q 40.234375 -1.421875 26.421875 -1.421875 
Q 22.703125 -1.421875 18.890625 -0.6875 
Q 15.09375 0.046875 10.984375 1.515625 
z
M 30.609375 32.421875 
Q 37.25 32.421875 41.125 36.953125 
Q 45.015625 41.5 45.015625 49.421875 
Q 45.015625 57.28125 41.125 61.84375 
Q 37.25 66.40625 30.609375 66.40625 
Q 23.96875 66.40625 20.09375 61.84375 
Q 16.21875 57.28125 16.21875 49.421875 
Q 16.21875 41.5 20.09375 36.953125 
Q 23.96875 32.421875 30.609375 32.421875 
z
" id="DejaVuSans-57"/>
       </defs>
       <use xlink:href="#DejaVuSans-57"/>
       <use x="63.623047" xlink:href="#DejaVuSans-48"/>
       <use x="127.246094" xlink:href="#DejaVuSans-48"/>
       <use x="190.869141" xlink:href="#DejaVuSans-48"/>
      </g>
     </g>
    </g>
    <g id="text_20">
     <!-- Edge coverage -->
     <g transform="translate(14.798438 192.762406)rotate(-90)scale(0.1 -0.1)">
      <defs>
       <path d="M 9.8125 72.90625 
L 55.90625 72.90625 
L 55.90625 64.59375 
L 19.671875 64.59375 
L 19.671875 43.015625 
L 54.390625 43.015625 
L 54.390625 34.71875 
L 19.671875 34.71875 
L 19.671875 8.296875 
L 56.78125 8.296875 
L 56.78125 0 
L 9.8125 0 
z
" id="DejaVuSans-69"/>
       <path d="M 45.40625 46.390625 
L 45.40625 75.984375 
L 54.390625 75.984375 
L 54.390625 0 
L 45.40625 0 
L 45.40625 8.203125 
Q 42.578125 3.328125 38.25 0.953125 
Q 33.9375 -1.421875 27.875 -1.421875 
Q 17.96875 -1.421875 11.734375 6.484375 
Q 5.515625 14.40625 5.515625 27.296875 
Q 5.515625 40.1875 11.734375 48.09375 
Q 17.96875 56 27.875 56 
Q 33.9375 56 38.25 53.625 
Q 42.578125 51.265625 45.40625 46.390625 
z
M 14.796875 27.296875 
Q 14.796875 17.390625 18.875 11.75 
Q 22.953125 6.109375 30.078125 6.109375 
Q 37.203125 6.109375 41.296875 11.75 
Q 45.40625 17.390625 45.40625 27.296875 
Q 45.40625 37.203125 41.296875 42.84375 
Q 37.203125 48.484375 30.078125 48.484375 
Q 22.953125 48.484375 18.875 42.84375 
Q 14.796875 37.203125 14.796875 27.296875 
z
" id="DejaVuSans-100"/>
       <path d="M 45.40625 27.984375 
Q 45.40625 37.75 41.375 43.109375 
Q 37.359375 48.484375 30.078125 48.484375 
Q 22.859375 48.484375 18.828125 43.109375 
Q 14.796875 37.75 14.796875 27.984375 
Q 14.796875 18.265625 18.828125 12.890625 
Q 22.859375 7.515625 30.078125 7.515625 
Q 37.359375 7.515625 41.375 12.890625 
Q 45.40625 18.265625 45.40625 27.984375 
z
M 54.390625 6.78125 
Q 54.390625 -7.171875 48.1875 -13.984375 
Q 42 -20.796875 29.203125 -20.796875 
Q 24.46875 -20.796875 20.265625 -20.09375 
Q 16.0625 -19.390625 12.109375 -17.921875 
L 12.109375 -9.1875 
Q 16.0625 -11.328125 19.921875 -12.34375 
Q 23.78125 -13.375 27.78125 -13.375 
Q 36.625 -13.375 41.015625 -8.765625 
Q 45.40625 -4.15625 45.40625 5.171875 
L 45.40625 9.625 
Q 42.625 4.78125 38.28125 2.390625 
Q 33.9375 0 27.875 0 
Q 17.828125 0 11.671875 7.65625 
Q 5.515625 15.328125 5.515625 27.984375 
Q 5.515625 40.671875 11.671875 48.328125 
Q 17.828125 56 27.875 56 
Q 33.9375 56 38.28125 53.609375 
Q 42.625 51.21875 45.40625 46.390625 
L 45.40625 54.6875 
L 54.390625 54.6875 
z
" id="DejaVuSans-103"/>
       <path d="M 48.78125 52.59375 
L 48.78125 44.1875 
Q 44.96875 46.296875 41.140625 47.34375 
Q 37.3125 48.390625 33.40625 48.390625 
Q 24.65625 48.390625 19.8125 42.84375 
Q 14.984375 37.3125 14.984375 27.296875 
Q 14.984375 17.28125 19.8125 11.734375 
Q 24.65625 6.203125 33.40625 6.203125 
Q 37.3125 6.203125 41.140625 7.25 
Q 44.96875 8.296875 48.78125 10.40625 
L 48.78125 2.09375 
Q 45.015625 0.34375 40.984375 -0.53125 
Q 36.96875 -1.421875 32.421875 -1.421875 
Q 20.0625 -1.421875 12.78125 6.34375 
Q 5.515625 14.109375 5.515625 27.296875 
Q 5.515625 40.671875 12.859375 48.328125 
Q 20.21875 56 33.015625 56 
Q 37.15625 56 41.109375 55.140625 
Q 45.0625 54.296875 48.78125 52.59375 
z
" id="DejaVuSans-99"/>
       <path d="M 2.984375 54.6875 
L 12.5 54.6875 
L 29.59375 8.796875 
L 46.6875 54.6875 
L 56.203125 54.6875 
L 35.6875 0 
L 23.484375 0 
z
" id="DejaVuSans-118"/>
       <path d="M 34.28125 27.484375 
Q 23.390625 27.484375 19.1875 25 
Q 14.984375 22.515625 14.984375 16.5 
Q 14.984375 11.71875 18.140625 8.90625 
Q 21.296875 6.109375 26.703125 6.109375 
Q 34.1875 6.109375 38.703125 11.40625 
Q 43.21875 16.703125 43.21875 25.484375 
L 43.21875 27.484375 
z
M 52.203125 31.203125 
L 52.203125 0 
L 43.21875 0 
L 43.21875 8.296875 
Q 40.140625 3.328125 35.546875 0.953125 
Q 30.953125 -1.421875 24.3125 -1.421875 
Q 15.921875 -1.421875 10.953125 3.296875 
Q 6 8.015625 6 15.921875 
Q 6 25.140625 12.171875 29.828125 
Q 18.359375 34.515625 30.609375 34.515625 
L 43.21875 34.515625 
L 43.21875 35.40625 
Q 43.21875 41.609375 39.140625 45 
Q 35.0625 48.390625 27.6875 48.390625 
Q 23 48.390625 18.546875 47.265625 
Q 14.109375 46.140625 10.015625 43.890625 
L 10.015625 52.203125 
Q 14.9375 54.109375 19.578125 55.046875 
Q 24.21875 56 28.609375 56 
Q 40.484375 56 46.34375 49.84375 
Q 52.203125 43.703125 52.203125 31.203125 
z
" id="DejaVuSans-97"/>
      </defs>
      <use xlink:href="#DejaVuSans-69"/>
      <use x="63.183594" xlink:href="#DejaVuSans-100"/>
      <use x="126.660156" xlink:href="#DejaVuSans-103"/>
      <use x="190.136719" xlink:href="#DejaVuSans-101"/>
      <use x="251.660156" xlink:href="#DejaVuSans-32"/>
      <use x="283.447266" xlink:href="#DejaVuSans-99"/>
      <use x="338.427734" xlink:href="#DejaVuSans-111"/>
      <use x="399.609375" xlink:href="#DejaVuSans-118"/>
      <use x="458.789062" xlink:href="#DejaVuSans-101"/>
      <use x="520.3125" xlink:href="#DejaVuSans-114"/>
      <use x="561.425781" xlink:href="#DejaVuSans-97"/>
      <use x="622.705078" xlink:href="#DejaVuSans-103"/>
      <use x="686.181641" xlink:href="#DejaVuSans-101"/>
     </g>
    </g>
   </g>
   <g id="line2d_19">
    <path clip-path="url(#p09d717f164)" d="M 85.79358 207.783395 
L 92.628412 198.880013 
L 99.463245 194.447297 
L 106.298077 190.986136 
L 113.13291 187.616058 
L 119.967742 184.458507 
L 126.802575 180.617832 
L 133.637407 178.765807 
L 140.47224 175.934638 
L 147.307072 172.951663 
L 154.141905 171.70686 
L 160.976737 167.987629 
L 167.81157 166.340542 
L 174.646403 164.245628 
L 181.481235 163.949608 
L 188.316068 163.107088 
L 195.1509 160.6023 
L 201.985733 159.311955 
L 208.820565 155.957057 
L 215.655398 154.89442 
L 222.49023 154.439004 
L 229.325063 153.285284 
L 236.159895 152.427584 
L 242.994728 150.188455 
L 249.82956 149.862074 
L 256.664393 147.820292 
L 263.499225 145.846823 
L 270.334058 145.505261 
L 277.168891 144.374311 
L 284.003723 140.723393 
L 290.838556 138.203425 
L 297.673388 137.186329 
L 304.508221 137.087656 
L 311.343053 136.100921 
L 318.177886 134.825756 
L 325.012718 134.438653 
L 331.847551 133.368425 
L 338.682383 131.030623 
L 345.517216 129.770639 
L 352.352048 128.184273 
L 359.186881 127.364525 
L 366.021714 127.060914 
L 372.856546 126.772484 
L 379.691379 125.717437 
L 386.526211 125.444187 
L 393.361044 125.019132 
L 400.195876 124.723112 
L 407.030709 121.057014 
L 413.865541 119.493419 
L 420.700374 117.907053 
L 427.535206 116.563576 
L 434.370039 116.39659 
L 441.204871 115.751417 
L 448.039704 115.675515 
L 454.874536 115.136606 
L 461.709369 114.810224 
L 468.544202 114.795044 
L 475.379034 114.772273 
L 482.213867 112.631818 
L 489.048699 110.810154 
L 495.883532 109.891732 
L 502.718364 108.821504 
L 509.553197 107.098514 
L 516.388029 104.654448 
L 523.222862 102.460861 
L 530.057694 100.98835 
L 536.892527 100.069928 
L 543.727359 99.310901 
L 550.562192 98.012965 
L 557.397025 97.079363 
L 564.231857 95.57649 
L 571.06669 93.87627 
L 577.901522 93.231098 
L 584.736355 92.775682 
L 591.571187 92.43412 
L 598.40602 92.229183 
L 605.240852 88.464411 
L 612.075685 87.682613 
L 618.910517 85.701554 
L 625.74535 82.642676 
L 632.580182 81.390282 
L 639.415015 80.987998 
L 646.249847 80.600895 
L 653.08468 80.160659 
L 659.919513 80.024035 
L 666.754345 79.682473 
L 673.589178 79.075251 
L 680.42401 77.367441 
L 687.258843 76.722269 
L 694.093675 76.524922 
L 700.928508 76.4642 
L 707.76334 74.270613 
L 714.598173 71.05234 
L 721.433005 66.991547 
L 728.267838 63.704962 
L 735.10267 61.458243 
" style="fill:none;stroke:#ffbb78;stroke-linecap:square;stroke-width:1.5;"/>
   </g>
   <g id="line2d_20">
    <path clip-path="url(#p09d717f164)" d="M 85.79358 202.166598 
L 92.628412 197.67316 
L 99.463245 194.864762 
L 106.298077 192.838161 
L 113.13291 190.409276 
L 119.967742 185.134041 
L 126.802575 183.077079 
L 133.637407 181.338908 
L 140.47224 180.435666 
L 147.307072 177.862566 
L 154.141905 177.224983 
L 160.976737 175.312236 
L 167.81157 173.794183 
L 174.646403 172.230588 
L 181.481235 171.289395 
L 188.316068 170.082543 
L 195.1509 167.623297 
L 201.985733 167.228603 
L 208.820565 166.85668 
L 215.655398 163.319616 
L 222.49023 162.674443 
L 229.325063 162.477096 
L 236.159895 161.293015 
L 242.994728 159.023525 
L 249.82956 158.355582 
L 256.664393 157.566194 
L 263.499225 156.579459 
L 270.334058 156.101273 
L 277.168891 155.668627 
L 284.003723 154.33274 
L 290.838556 151.45603 
L 297.673388 150.476885 
L 304.508221 148.951242 
L 311.343053 148.389562 
L 318.177886 147.554633 
L 325.012718 146.34778 
L 331.847551 144.457804 
L 338.682383 143.835402 
L 345.517216 143.546972 
L 352.352048 142.825897 
L 359.186881 141.793621 
L 366.021714 140.935921 
L 372.856546 140.882789 
L 379.691379 139.941596 
L 386.526211 139.508951 
L 393.361044 138.203425 
L 400.195876 138.021258 
L 407.030709 137.322954 
L 413.865541 136.768865 
L 420.700374 136.336219 
L 427.535206 134.749854 
L 434.370039 134.544917 
L 441.204871 133.831432 
L 448.039704 132.996502 
L 454.874536 132.670121 
L 461.709369 132.427232 
L 468.544202 132.298198 
L 475.379034 132.199524 
L 482.213867 131.926275 
L 489.048699 131.584713 
L 495.883532 131.554352 
L 502.718364 131.440498 
L 509.553197 130.415812 
L 516.388029 130.233645 
L 523.222862 129.952805 
L 530.057694 129.125466 
L 536.892527 128.745953 
L 543.727359 128.169093 
L 550.562192 127.842711 
L 557.397025 127.440427 
L 564.231857 126.93188 
L 571.06669 126.764894 
L 577.901522 126.446103 
L 584.736355 125.945145 
L 591.571187 125.421417 
L 598.40602 124.67757 
L 605.240852 123.645294 
L 612.075685 123.121566 
L 618.910517 122.415671 
L 625.74535 122.37772 
L 632.580182 121.81604 
L 639.415015 121.223999 
L 646.249847 121.163277 
L 653.08468 121.087375 
L 659.919513 118.39283 
L 666.754345 118.165122 
L 673.589178 116.867187 
L 680.42401 116.821645 
L 687.258843 116.593937 
L 694.093675 115.683105 
L 700.928508 115.364314 
L 707.76334 114.939259 
L 714.598173 113.193498 
L 721.433005 109.519809 
L 728.267838 105.641183 
L 735.10267 101.990265 
" style="fill:none;stroke:#1f77b4;stroke-linecap:square;stroke-width:1.5;"/>
   </g>
   <g id="line2d_21">
    <path clip-path="url(#p09d717f164)" d="M 85.79358 255.101114 
L 92.628412 242.888376 
L 99.463245 237.506877 
L 106.298077 231.8749 
L 113.13291 225.301729 
L 119.967742 217.073881 
L 126.802575 215.305349 
L 133.637407 211.032029 
L 140.47224 209.34699 
L 147.307072 200.732038 
L 154.141905 199.64663 
L 160.976737 195.919809 
L 167.81157 195.3809 
L 174.646403 192.81539 
L 181.481235 192.352384 
L 188.316068 191.631309 
L 195.1509 190.318192 
L 201.985733 189.035437 
L 208.820565 186.902573 
L 215.655398 185.323797 
L 222.49023 183.661529 
L 229.325063 182.401545 
L 236.159895 182.059983 
L 242.994728 181.209873 
L 249.82956 181.020116 
L 256.664393 180.078923 
L 263.499225 179.335077 
L 270.334058 179.243994 
L 277.168891 178.583641 
L 284.003723 177.718351 
L 290.838556 176.83788 
L 297.673388 175.403319 
L 304.508221 174.682244 
L 311.343053 173.816954 
L 318.177886 173.035156 
L 325.012718 171.281805 
L 331.847551 170.750486 
L 338.682383 169.680259 
L 345.517216 168.997135 
L 352.352048 167.911727 
L 359.186881 167.175471 
L 366.021714 166.849089 
L 372.856546 166.682104 
L 379.691379 165.816813 
L 386.526211 165.573925 
L 393.361044 164.01033 
L 400.195876 163.866115 
L 407.030709 163.053956 
L 413.865541 162.401193 
L 420.700374 161.664938 
L 427.535206 161.277834 
L 434.370039 159.342316 
L 441.204871 158.940032 
L 448.039704 158.666782 
L 454.874536 158.469436 
L 461.709369 157.74836 
L 468.544202 157.46752 
L 475.379034 157.308125 
L 482.213867 156.131634 
L 489.048699 154.970323 
L 495.883532 154.765386 
L 502.718364 153.482631 
L 509.553197 153.057576 
L 516.388029 152.640111 
L 523.222862 152.382042 
L 530.057694 150.924711 
L 536.892527 150.712184 
L 543.727359 149.945567 
L 550.562192 149.254852 
L 557.397025 148.404743 
L 564.231857 148.070771 
L 571.06669 147.721619 
L 577.901522 145.907545 
L 584.736355 145.543212 
L 591.571187 145.042255 
L 598.40602 144.63238 
L 605.240852 144.435033 
L 612.075685 144.381902 
L 618.910517 143.676007 
L 625.74535 143.342035 
L 632.580182 142.985293 
L 639.415015 142.780355 
L 646.249847 141.080136 
L 653.08468 140.776525 
L 659.919513 140.009908 
L 666.754345 139.858103 
L 673.589178 139.410277 
L 680.42401 139.068715 
L 687.258843 139.061125 
L 694.093675 138.871368 
L 700.928508 137.573433 
L 707.76334 137.300183 
L 714.598173 135.698637 
L 721.433005 133.353245 
L 728.267838 129.656785 
L 735.10267 128.153912 
" style="fill:none;stroke:#aec7e8;stroke-linecap:square;stroke-width:1.5;"/>
   </g>
   <g id="line2d_22">
    <path clip-path="url(#p09d717f164)" d="M 85.79358 244.649318 
L 92.628412 232.626336 
L 99.463245 225.840638 
L 106.298077 220.595764 
L 113.13291 211.001668 
L 119.967742 206.090766 
L 126.802575 204.443678 
L 133.637407 203.813686 
L 140.47224 199.396151 
L 147.307072 198.083035 
L 154.141905 194.925484 
L 160.976737 192.162627 
L 167.81157 189.430131 
L 174.646403 189.134111 
L 181.481235 186.591372 
L 188.316068 185.445242 
L 195.1509 184.921513 
L 201.985733 183.866466 
L 208.820565 181.596977 
L 215.655398 181.316137 
L 222.49023 180.511569 
L 229.325063 179.661459 
L 236.159895 179.168091 
L 242.994728 178.55328 
L 249.82956 177.247754 
L 256.664393 176.352103 
L 263.499225 174.727786 
L 270.334058 173.627197 
L 277.168891 172.397574 
L 284.003723 169.923147 
L 290.838556 168.518948 
L 297.673388 166.818728 
L 304.508221 166.492347 
L 311.343053 166.378493 
L 318.177886 166.01416 
L 325.012718 165.095738 
L 331.847551 164.58719 
L 338.682383 163.72949 
L 345.517216 163.069137 
L 352.352048 163.000824 
L 359.186881 162.659262 
L 366.021714 162.211437 
L 372.856546 160.154475 
L 379.691379 159.941947 
L 386.526211 159.236052 
L 393.361044 158.431484 
L 400.195876 157.217042 
L 407.030709 156.495966 
L 413.865541 156.30621 
L 420.700374 155.600315 
L 427.535206 155.251163 
L 434.370039 155.091767 
L 441.204871 155.053816 
L 448.039704 154.628761 
L 454.874536 154.347921 
L 461.709369 153.983588 
L 468.544202 153.087937 
L 475.379034 152.473125 
L 482.213867 151.964577 
L 489.048699 151.068926 
L 495.883532 150.780496 
L 502.718364 149.801352 
L 509.553197 149.581234 
L 516.388029 149.573644 
L 523.222862 149.391477 
L 530.057694 149.216901 
L 536.892527 148.974013 
L 543.727359 148.951242 
L 550.562192 148.799436 
L 557.397025 148.776666 
L 564.231857 148.761485 
L 571.06669 147.47873 
L 577.901522 147.159939 
L 584.736355 147.121988 
L 591.571187 146.879099 
L 598.40602 146.696933 
L 605.240852 146.127663 
L 612.075685 145.953087 
L 618.910517 145.77092 
L 625.74535 144.746234 
L 632.580182 144.518526 
L 639.415015 144.457804 
L 646.249847 144.002388 
L 653.08468 143.858173 
L 659.919513 143.638055 
L 666.754345 143.584924 
L 673.589178 143.379986 
L 680.42401 141.672176 
L 687.258843 141.300253 
L 694.093675 141.292663 
L 700.928508 140.563998 
L 707.76334 140.35906 
L 714.598173 138.438723 
L 721.433005 135.721408 
L 728.267838 133.269752 
L 735.10267 132.040129 
" style="fill:none;stroke:#ff7f0e;stroke-linecap:square;stroke-width:1.5;"/>
   </g>
   <g id="line2d_23"/>
   <g id="line2d_24"/>
   <g id="line2d_25"/>
   <g id="line2d_26"/>
   <g id="line2d_27"/>
   <g id="line2d_28">
    <path clip-path="url(#p09d717f164)" d="M 735.10267 288.430125 
L 735.10267 22.318125 
" style="fill:none;stroke:#ff0000;stroke-linecap:square;stroke-width:1.5;"/>
   </g>
   <g id="patch_3">
    <path d="M 53.328125 287.20794 
L 53.328125 59.499955 
" style="fill:none;stroke:#000000;stroke-linecap:square;stroke-linejoin:miter;stroke-width:0.8;"/>
   </g>
   <g id="patch_4">
    <path d="M 85.79358 288.430125 
L 687.258843 288.430125 
" style="fill:none;stroke:#000000;stroke-linecap:square;stroke-linejoin:miter;stroke-width:0.8;"/>
   </g>
   <g id="text_21">
    <!-- libxml2-v2.9.2 (24h, 6 trials/fuzzer) -->
    <g transform="translate(304.68875 16.318125)scale(0.12 -0.12)">
     <defs>
      <path d="M 9.421875 75.984375 
L 18.40625 75.984375 
L 18.40625 0 
L 9.421875 0 
z
" id="DejaVuSans-108"/>
      <path d="M 48.6875 27.296875 
Q 48.6875 37.203125 44.609375 42.84375 
Q 40.53125 48.484375 33.40625 48.484375 
Q 26.265625 48.484375 22.1875 42.84375 
Q 18.109375 37.203125 18.109375 27.296875 
Q 18.109375 17.390625 22.1875 11.75 
Q 26.265625 6.109375 33.40625 6.109375 
Q 40.53125 6.109375 44.609375 11.75 
Q 48.6875 17.390625 48.6875 27.296875 
z
M 18.109375 46.390625 
Q 20.953125 51.265625 25.265625 53.625 
Q 29.59375 56 35.59375 56 
Q 45.5625 56 51.78125 48.09375 
Q 58.015625 40.1875 58.015625 27.296875 
Q 58.015625 14.40625 51.78125 6.484375 
Q 45.5625 -1.421875 35.59375 -1.421875 
Q 29.59375 -1.421875 25.265625 0.953125 
Q 20.953125 3.328125 18.109375 8.203125 
L 18.109375 0 
L 9.078125 0 
L 9.078125 75.984375 
L 18.109375 75.984375 
z
" id="DejaVuSans-98"/>
      <path d="M 54.890625 54.6875 
L 35.109375 28.078125 
L 55.90625 0 
L 45.3125 0 
L 29.390625 21.484375 
L 13.484375 0 
L 2.875 0 
L 24.125 28.609375 
L 4.6875 54.6875 
L 15.28125 54.6875 
L 29.78125 35.203125 
L 44.28125 54.6875 
z
" id="DejaVuSans-120"/>
      <path d="M 4.890625 31.390625 
L 31.203125 31.390625 
L 31.203125 23.390625 
L 4.890625 23.390625 
z
" id="DejaVuSans-45"/>
      <path d="M 10.6875 12.40625 
L 21 12.40625 
L 21 0 
L 10.6875 0 
z
" id="DejaVuSans-46"/>
      <path d="M 11.71875 12.40625 
L 22.015625 12.40625 
L 22.015625 4 
L 14.015625 -11.625 
L 7.71875 -11.625 
L 11.71875 4 
z
" id="DejaVuSans-44"/>
      <path d="M 44.28125 53.078125 
L 44.28125 44.578125 
Q 40.484375 46.53125 36.375 47.5 
Q 32.28125 48.484375 27.875 48.484375 
Q 21.1875 48.484375 17.84375 46.4375 
Q 14.5 44.390625 14.5 40.28125 
Q 14.5 37.15625 16.890625 35.375 
Q 19.28125 33.59375 26.515625 31.984375 
L 29.59375 31.296875 
Q 39.15625 29.25 43.1875 25.515625 
Q 47.21875 21.78125 47.21875 15.09375 
Q 47.21875 7.46875 41.1875 3.015625 
Q 35.15625 -1.421875 24.609375 -1.421875 
Q 20.21875 -1.421875 15.453125 -0.5625 
Q 10.6875 0.296875 5.421875 2 
L 5.421875 11.28125 
Q 10.40625 8.6875 15.234375 7.390625 
Q 20.0625 6.109375 24.8125 6.109375 
Q 31.15625 6.109375 34.5625 8.28125 
Q 37.984375 10.453125 37.984375 14.40625 
Q 37.984375 18.0625 35.515625 20.015625 
Q 33.0625 21.96875 24.703125 23.78125 
L 21.578125 24.515625 
Q 13.234375 26.265625 9.515625 29.90625 
Q 5.8125 33.546875 5.8125 39.890625 
Q 5.8125 47.609375 11.28125 51.796875 
Q 16.75 56 26.8125 56 
Q 31.78125 56 36.171875 55.265625 
Q 40.578125 54.546875 44.28125 53.078125 
z
" id="DejaVuSans-115"/>
      <path d="M 25.390625 72.90625 
L 33.6875 72.90625 
L 8.296875 -9.28125 
L 0 -9.28125 
z
" id="DejaVuSans-47"/>
      <path d="M 37.109375 75.984375 
L 37.109375 68.5 
L 28.515625 68.5 
Q 23.6875 68.5 21.796875 66.546875 
Q 19.921875 64.59375 19.921875 59.515625 
L 19.921875 54.6875 
L 34.71875 54.6875 
L 34.71875 47.703125 
L 19.921875 47.703125 
L 19.921875 0 
L 10.890625 0 
L 10.890625 47.703125 
L 2.296875 47.703125 
L 2.296875 54.6875 
L 10.890625 54.6875 
L 10.890625 58.5 
Q 10.890625 67.625 15.140625 71.796875 
Q 19.390625 75.984375 28.609375 75.984375 
z
" id="DejaVuSans-102"/>
      <path d="M 5.515625 54.6875 
L 48.1875 54.6875 
L 48.1875 46.484375 
L 14.40625 7.171875 
L 48.1875 7.171875 
L 48.1875 0 
L 4.296875 0 
L 4.296875 8.203125 
L 38.09375 47.515625 
L 5.515625 47.515625 
z
" id="DejaVuSans-122"/>
     </defs>
     <use xlink:href="#DejaVuSans-108"/>
     <use x="27.783203" xlink:href="#DejaVuSans-105"/>
     <use x="55.566406" xlink:href="#DejaVuSans-98"/>
     <use x="119.042969" xlink:href="#DejaVuSans-120"/>
     <use x="178.222656" xlink:href="#DejaVuSans-109"/>
     <use x="275.634766" xlink:href="#DejaVuSans-108"/>
     <use x="303.417969" xlink:href="#DejaVuSans-50"/>
     <use x="367.041016" xlink:href="#DejaVuSans-45"/>
     <use x="400.5" xlink:href="#DejaVuSans-118"/>
     <use x="459.679688" xlink:href="#DejaVuSans-50"/>
     <use x="523.302734" xlink:href="#DejaVuSans-46"/>
     <use x="555.089844" xlink:href="#DejaVuSans-57"/>
     <use x="618.712891" xlink:href="#DejaVuSans-46"/>
     <use x="650.5" xlink:href="#DejaVuSans-50"/>
     <use x="714.123047" xlink:href="#DejaVuSans-32"/>
     <use x="745.910156" xlink:href="#DejaVuSans-40"/>
     <use x="784.923828" xlink:href="#DejaVuSans-50"/>
     <use x="848.546875" xlink:href="#DejaVuSans-52"/>
     <use x="912.169922" xlink:href="#DejaVuSans-104"/>
     <use x="975.548828" xlink:href="#DejaVuSans-44"/>
     <use x="1007.335938" xlink:href="#DejaVuSans-32"/>
     <use x="1039.123047" xlink:href="#DejaVuSans-54"/>
     <use x="1102.746094" xlink:href="#DejaVuSans-32"/>
     <use x="1134.533203" xlink:href="#DejaVuSans-116"/>
     <use x="1173.742188" xlink:href="#DejaVuSans-114"/>
     <use x="1214.855469" xlink:href="#DejaVuSans-105"/>
     <use x="1242.638672" xlink:href="#DejaVuSans-97"/>
     <use x="1303.917969" xlink:href="#DejaVuSans-108"/>
     <use x="1331.701172" xlink:href="#DejaVuSans-115"/>
     <use x="1383.800781" xlink:href="#DejaVuSans-47"/>
     <use x="1417.492188" xlink:href="#DejaVuSans-102"/>
     <use x="1452.697266" xlink:href="#DejaVuSans-117"/>
     <use x="1516.076172" xlink:href="#DejaVuSans-122"/>
     <use x="1568.566406" xlink:href="#DejaVuSans-122"/>
     <use x="1621.056641" xlink:href="#DejaVuSans-101"/>
     <use x="1682.580078" xlink:href="#DejaVuSans-114"/>
     <use x="1723.693359" xlink:href="#DejaVuSans-41"/>
    </g>
   </g>
   <g id="legend_1">
    <g id="line2d_29">
     <path d="M 771.568125 30.416562 
L 791.568125 30.416562 
" style="fill:none;"/>
    </g>
    <g id="line2d_30"/>
    <g id="text_22">
     <!-- fuzzer -->
     <g transform="translate(799.568125 33.916562)scale(0.1 -0.1)">
      <use xlink:href="#DejaVuSans-102"/>
      <use x="35.205078" xlink:href="#DejaVuSans-117"/>
      <use x="98.583984" xlink:href="#DejaVuSans-122"/>
      <use x="151.074219" xlink:href="#DejaVuSans-122"/>
      <use x="203.564453" xlink:href="#DejaVuSans-101"/>
      <use x="265.087891" xlink:href="#DejaVuSans-114"/>
     </g>
    </g>
    <g id="line2d_31">
     <path d="M 771.568125 45.094688 
L 791.568125 45.094688 
" style="fill:none;stroke:#ffbb78;stroke-linecap:square;stroke-width:1.5;"/>
    </g>
    <g id="line2d_32"/>
    <g id="text_23">
     <!-- fairfuzz -->
     <g transform="translate(799.568125 48.594688)scale(0.1 -0.1)">
      <use xlink:href="#DejaVuSans-102"/>
      <use x="35.205078" xlink:href="#DejaVuSans-97"/>
      <use x="96.484375" xlink:href="#DejaVuSans-105"/>
      <use x="124.267578" xlink:href="#DejaVuSans-114"/>
      <use x="165.380859" xlink:href="#DejaVuSans-102"/>
      <use x="200.585938" xlink:href="#DejaVuSans-117"/>
      <use x="263.964844" xlink:href="#DejaVuSans-122"/>
      <use x="316.455078" xlink:href="#DejaVuSans-122"/>
     </g>
    </g>
    <g id="line2d_33">
     <path d="M 771.568125 59.772812 
L 791.568125 59.772812 
" style="fill:none;stroke:#1f77b4;stroke-linecap:square;stroke-width:1.5;"/>
    </g>
    <g id="line2d_34"/>
    <g id="text_24">
     <!-- afl -->
     <g transform="translate(799.568125 63.272812)scale(0.1 -0.1)">
      <use xlink:href="#DejaVuSans-97"/>
      <use x="61.279297" xlink:href="#DejaVuSans-102"/>
      <use x="96.484375" xlink:href="#DejaVuSans-108"/>
     </g>
    </g>
    <g id="line2d_35">
     <path d="M 771.568125 74.450938 
L 791.568125 74.450938 
" style="fill:none;stroke:#aec7e8;stroke-linecap:square;stroke-width:1.5;"/>
    </g>
    <g id="line2d_36"/>
    <g id="text_25">
     <!-- dark -->
     <g transform="translate(799.568125 77.950938)scale(0.1 -0.1)">
      <defs>
       <path d="M 9.078125 75.984375 
L 18.109375 75.984375 
L 18.109375 31.109375 
L 44.921875 54.6875 
L 56.390625 54.6875 
L 27.390625 29.109375 
L 57.625 0 
L 45.90625 0 
L 18.109375 26.703125 
L 18.109375 0 
L 9.078125 0 
z
" id="DejaVuSans-107"/>
      </defs>
      <use xlink:href="#DejaVuSans-100"/>
      <use x="63.476562" xlink:href="#DejaVuSans-97"/>
      <use x="124.755859" xlink:href="#DejaVuSans-114"/>
      <use x="165.869141" xlink:href="#DejaVuSans-107"/>
     </g>
    </g>
    <g id="line2d_37">
     <path d="M 771.568125 89.129063 
L 791.568125 89.129063 
" style="fill:none;stroke:#ff7f0e;stroke-linecap:square;stroke-width:1.5;"/>
    </g>
    <g id="line2d_38"/>
    <g id="text_26">
     <!-- dark_w_prob -->
     <g transform="translate(799.568125 92.629063)scale(0.1 -0.1)">
      <defs>
       <path d="M 50.984375 -16.609375 
L 50.984375 -23.578125 
L -0.984375 -23.578125 
L -0.984375 -16.609375 
z
" id="DejaVuSans-95"/>
       <path d="M 4.203125 54.6875 
L 13.1875 54.6875 
L 24.421875 12.015625 
L 35.59375 54.6875 
L 46.1875 54.6875 
L 57.421875 12.015625 
L 68.609375 54.6875 
L 77.59375 54.6875 
L 63.28125 0 
L 52.6875 0 
L 40.921875 44.828125 
L 29.109375 0 
L 18.5 0 
z
" id="DejaVuSans-119"/>
       <path d="M 18.109375 8.203125 
L 18.109375 -20.796875 
L 9.078125 -20.796875 
L 9.078125 54.6875 
L 18.109375 54.6875 
L 18.109375 46.390625 
Q 20.953125 51.265625 25.265625 53.625 
Q 29.59375 56 35.59375 56 
Q 45.5625 56 51.78125 48.09375 
Q 58.015625 40.1875 58.015625 27.296875 
Q 58.015625 14.40625 51.78125 6.484375 
Q 45.5625 -1.421875 35.59375 -1.421875 
Q 29.59375 -1.421875 25.265625 0.953125 
Q 20.953125 3.328125 18.109375 8.203125 
z
M 48.6875 27.296875 
Q 48.6875 37.203125 44.609375 42.84375 
Q 40.53125 48.484375 33.40625 48.484375 
Q 26.265625 48.484375 22.1875 42.84375 
Q 18.109375 37.203125 18.109375 27.296875 
Q 18.109375 17.390625 22.1875 11.75 
Q 26.265625 6.109375 33.40625 6.109375 
Q 40.53125 6.109375 44.609375 11.75 
Q 48.6875 17.390625 48.6875 27.296875 
z
" id="DejaVuSans-112"/>
      </defs>
      <use xlink:href="#DejaVuSans-100"/>
      <use x="63.476562" xlink:href="#DejaVuSans-97"/>
      <use x="124.755859" xlink:href="#DejaVuSans-114"/>
      <use x="165.869141" xlink:href="#DejaVuSans-107"/>
      <use x="223.779297" xlink:href="#DejaVuSans-95"/>
      <use x="273.779297" xlink:href="#DejaVuSans-119"/>
      <use x="355.566406" xlink:href="#DejaVuSans-95"/>
      <use x="405.566406" xlink:href="#DejaVuSans-112"/>
      <use x="469.042969" xlink:href="#DejaVuSans-114"/>
      <use x="507.90625" xlink:href="#DejaVuSans-111"/>
      <use x="569.087891" xlink:href="#DejaVuSans-98"/>
     </g>
    </g>
   </g>
  </g>
 </g>
 <defs>
  <clipPath id="p09d717f164">
   <rect height="266.112" width="714.24" x="53.328125" y="22.318125"/>
  </clipPath>
 </defs>
</svg>
