<?xml version="1.0" encoding="utf-8" standalone="no"?>
<!DOCTYPE svg PUBLIC "-//W3C//DTD SVG 1.1//EN"
  "http://www.w3.org/Graphics/SVG/1.1/DTD/svg11.dtd">
<!-- Created with matplotlib (https://matplotlib.org/) -->
<svg height="356.559522pt" version="1.1" viewBox="0 0 424.010625 356.559522" width="424.010625pt" xmlns="http://www.w3.org/2000/svg" xmlns:xlink="http://www.w3.org/1999/xlink">
 <metadata>
  <rdf:RDF xmlns:cc="http://creativecommons.org/ns#" xmlns:dc="http://purl.org/dc/elements/1.1/" xmlns:rdf="http://www.w3.org/1999/02/22-rdf-syntax-ns#">
   <cc:Work>
    <dc:type rdf:resource="http://purl.org/dc/dcmitype/StillImage"/>
    <dc:date>2020-08-08T10:45:35.882186</dc:date>
    <dc:format>image/svg+xml</dc:format>
    <dc:creator>
     <cc:Agent>
      <dc:title>Matplotlib v3.3.0, https://matplotlib.org/</dc:title>
     </cc:Agent>
    </dc:creator>
   </cc:Work>
  </rdf:RDF>
 </metadata>
 <defs>
  <style type="text/css">*{stroke-linecap:butt;stroke-linejoin:round;}</style>
 </defs>
 <g id="figure_1">
  <g id="patch_1">
   <path d="M 0 356.559522 
L 424.010625 356.559522 
L 424.010625 -0 
L 0 -0 
z
" style="fill:#ffffff;"/>
  </g>
  <g id="axes_1">
   <g id="patch_2">
    <path d="M 59.690625 288.430125 
L 416.810625 288.430125 
L 416.810625 22.318125 
L 59.690625 22.318125 
z
" style="fill:#ffffff;"/>
   </g>
   <g id="PolyCollection_1">
    <defs>
     <path d="M 104.836449 -121.473425 
L 103.824801 -121.473425 
L 103.730658 -123.480673 
L 103.623509 -125.487922 
L 103.502447 -127.49517 
L 103.366649 -129.502418 
L 103.215403 -131.509666 
L 103.048126 -133.516915 
L 102.864384 -135.524163 
L 102.6639 -137.531411 
L 102.446562 -139.53866 
L 102.212421 -141.545908 
L 101.961685 -143.553156 
L 101.694698 -145.560405 
L 101.411925 -147.567653 
L 101.113921 -149.574901 
L 100.801303 -151.58215 
L 100.474717 -153.589398 
L 100.134813 -155.596646 
L 99.782215 -157.603895 
L 99.417506 -159.611143 
L 99.041222 -161.618391 
L 98.653851 -163.625639 
L 98.255853 -165.632888 
L 97.847692 -167.640136 
L 97.429879 -169.647384 
L 97.003031 -171.654633 
L 96.567932 -173.661881 
L 96.12561 -175.669129 
L 95.67741 -177.676378 
L 95.225061 -179.683626 
L 94.770739 -181.690874 
L 94.317115 -183.698123 
L 93.867377 -185.705371 
L 93.425241 -187.712619 
L 92.99492 -189.719868 
L 92.581078 -191.727116 
L 92.188742 -193.734364 
L 91.823199 -195.741612 
L 91.489856 -197.748861 
L 91.194087 -199.756109 
L 90.941065 -201.763357 
L 90.735579 -203.770606 
L 90.581864 -205.777854 
L 90.483428 -207.785102 
L 90.442901 -209.792351 
L 90.461907 -211.799599 
L 90.54097 -213.806847 
L 90.67945 -215.814096 
L 90.875524 -217.821344 
L 91.126209 -219.828592 
L 91.427423 -221.835841 
L 91.774091 -223.843089 
L 92.160286 -225.850337 
L 92.579397 -227.857585 
L 93.024332 -229.864834 
L 93.487723 -231.872082 
L 93.962154 -233.87933 
L 94.440374 -235.886579 
L 94.915513 -237.893827 
L 95.381271 -239.901075 
L 95.832085 -241.908324 
L 96.263267 -243.915572 
L 96.671099 -245.92282 
L 97.052899 -247.930069 
L 97.407035 -249.937317 
L 97.732911 -251.944565 
L 98.030904 -253.951814 
L 98.302275 -255.959062 
L 98.54905 -257.96631 
L 98.773876 -259.973558 
L 98.979863 -261.980807 
L 99.170418 -263.988055 
L 99.349081 -265.995303 
L 99.519364 -268.002552 
L 99.684601 -270.0098 
L 99.847827 -272.017048 
L 100.011668 -274.024297 
L 100.178263 -276.031545 
L 100.349211 -278.038793 
L 100.525553 -280.046042 
L 100.707768 -282.05329 
L 100.895806 -284.060538 
L 101.089133 -286.067786 
L 101.286799 -288.075035 
L 101.487511 -290.082283 
L 101.689727 -292.089531 
L 101.891736 -294.09678 
L 102.09175 -296.104028 
L 102.287983 -298.111276 
L 102.478725 -300.118525 
L 102.662407 -302.125773 
L 102.837645 -304.133021 
L 103.003281 -306.14027 
L 103.158403 -308.147518 
L 103.302357 -310.154766 
L 103.434743 -312.162015 
L 103.555407 -314.169263 
L 103.664416 -316.176511 
L 103.762038 -318.183759 
L 103.848708 -320.191008 
L 104.812542 -320.191008 
L 104.812542 -320.191008 
L 104.899212 -318.183759 
L 104.996834 -316.176511 
L 105.105843 -314.169263 
L 105.226507 -312.162015 
L 105.358893 -310.154766 
L 105.502847 -308.147518 
L 105.657969 -306.14027 
L 105.823605 -304.133021 
L 105.998843 -302.125773 
L 106.182525 -300.118525 
L 106.373267 -298.111276 
L 106.5695 -296.104028 
L 106.769514 -294.09678 
L 106.971523 -292.089531 
L 107.173739 -290.082283 
L 107.374451 -288.075035 
L 107.572117 -286.067786 
L 107.765444 -284.060538 
L 107.953482 -282.05329 
L 108.135697 -280.046042 
L 108.312039 -278.038793 
L 108.482987 -276.031545 
L 108.649582 -274.024297 
L 108.813423 -272.017048 
L 108.976649 -270.0098 
L 109.141886 -268.002552 
L 109.312169 -265.995303 
L 109.490832 -263.988055 
L 109.681387 -261.980807 
L 109.887374 -259.973558 
L 110.1122 -257.96631 
L 110.358975 -255.959062 
L 110.630346 -253.951814 
L 110.928339 -251.944565 
L 111.254215 -249.937317 
L 111.608351 -247.930069 
L 111.990151 -245.92282 
L 112.397983 -243.915572 
L 112.829165 -241.908324 
L 113.279979 -239.901075 
L 113.745737 -237.893827 
L 114.220876 -235.886579 
L 114.699096 -233.87933 
L 115.173527 -231.872082 
L 115.636918 -229.864834 
L 116.081853 -227.857585 
L 116.500964 -225.850337 
L 116.887159 -223.843089 
L 117.233827 -221.835841 
L 117.535041 -219.828592 
L 117.785726 -217.821344 
L 117.9818 -215.814096 
L 118.12028 -213.806847 
L 118.199343 -211.799599 
L 118.218349 -209.792351 
L 118.177822 -207.785102 
L 118.079386 -205.777854 
L 117.925671 -203.770606 
L 117.720185 -201.763357 
L 117.467163 -199.756109 
L 117.171394 -197.748861 
L 116.838051 -195.741612 
L 116.472508 -193.734364 
L 116.080172 -191.727116 
L 115.66633 -189.719868 
L 115.236009 -187.712619 
L 114.793873 -185.705371 
L 114.344135 -183.698123 
L 113.890511 -181.690874 
L 113.436189 -179.683626 
L 112.98384 -177.676378 
L 112.53564 -175.669129 
L 112.093318 -173.661881 
L 111.658219 -171.654633 
L 111.231371 -169.647384 
L 110.813558 -167.640136 
L 110.405397 -165.632888 
L 110.007399 -163.625639 
L 109.620028 -161.618391 
L 109.243744 -159.611143 
L 108.879035 -157.603895 
L 108.526437 -155.596646 
L 108.186533 -153.589398 
L 107.859947 -151.58215 
L 107.547329 -149.574901 
L 107.249325 -147.567653 
L 106.966552 -145.560405 
L 106.699565 -143.553156 
L 106.448829 -141.545908 
L 106.214688 -139.53866 
L 105.99735 -137.531411 
L 105.796866 -135.524163 
L 105.613124 -133.516915 
L 105.445847 -131.509666 
L 105.294601 -129.502418 
L 105.158803 -127.49517 
L 105.037741 -125.487922 
L 104.930592 -123.480673 
L 104.836449 -121.473425 
z
" id="m6a4974181b" style="stroke:#3f3f3f;stroke-width:1.5;"/>
    </defs>
    <g clip-path="url(#pafa40776a5)">
     <use style="fill:#eebb89;stroke:#3f3f3f;stroke-width:1.5;" x="0" xlink:href="#m6a4974181b" y="356.559522"/>
    </g>
   </g>
   <g id="PolyCollection_2">
    <defs>
     <path d="M 194.443632 -80.225397 
L 192.777618 -80.225397 
L 192.621867 -82.669033 
L 192.443742 -85.112669 
L 192.241414 -87.556306 
L 192.013168 -89.999942 
L 191.757463 -92.443578 
L 191.472992 -94.887215 
L 191.15875 -97.330851 
L 190.814099 -99.774488 
L 190.438831 -102.218124 
L 190.033234 -104.66176 
L 189.598146 -107.105397 
L 189.135 -109.549033 
L 188.645865 -111.992669 
L 188.133462 -114.436306 
L 187.601177 -116.879942 
L 187.053051 -119.323578 
L 186.493747 -121.767215 
L 185.928506 -124.210851 
L 185.363082 -126.654488 
L 184.803651 -129.098124 
L 184.256715 -131.54176 
L 183.728977 -133.985397 
L 183.227215 -136.429033 
L 182.758141 -138.872669 
L 182.328253 -141.316306 
L 181.943689 -143.759942 
L 181.610083 -146.203578 
L 181.332426 -148.647215 
L 181.114942 -151.090851 
L 180.960976 -153.534488 
L 180.872903 -155.978124 
L 180.852063 -158.42176 
L 180.898715 -160.865397 
L 181.012021 -163.309033 
L 181.190056 -165.752669 
L 181.429848 -168.196306 
L 181.72744 -170.639942 
L 182.077977 -173.083578 
L 182.475818 -175.527215 
L 182.914664 -177.970851 
L 183.387695 -180.414488 
L 183.887727 -182.858124 
L 184.407363 -185.30176 
L 184.939154 -187.745397 
L 185.475752 -190.189033 
L 186.010056 -192.632669 
L 186.535344 -195.076306 
L 187.045397 -197.519942 
L 187.534597 -199.963578 
L 187.998018 -202.407215 
L 188.431487 -204.850851 
L 188.831629 -207.294488 
L 189.195893 -209.738124 
L 189.522559 -212.18176 
L 189.810725 -214.625397 
L 190.060274 -217.069033 
L 190.27184 -219.512669 
L 190.446743 -221.956306 
L 190.586926 -224.399942 
L 190.694875 -226.843578 
L 190.77354 -229.287215 
L 190.826246 -231.730851 
L 190.856598 -234.174488 
L 190.868391 -236.618124 
L 190.86552 -239.06176 
L 190.851883 -241.505397 
L 190.831303 -243.949033 
L 190.807443 -246.392669 
L 190.783733 -248.836306 
L 190.763305 -251.279942 
L 190.748938 -253.723578 
L 190.743016 -256.167215 
L 190.74749 -258.610851 
L 190.763861 -261.054488 
L 190.793172 -263.498124 
L 190.836012 -265.94176 
L 190.892531 -268.385397 
L 190.962466 -270.829033 
L 191.045185 -273.272669 
L 191.139721 -275.716306 
L 191.244834 -278.159942 
L 191.35906 -280.603578 
L 191.480774 -283.047215 
L 191.608245 -285.490851 
L 191.739696 -287.934488 
L 191.873359 -290.378124 
L 192.00752 -292.82176 
L 192.140567 -295.265397 
L 192.271019 -297.709033 
L 192.397561 -300.152669 
L 192.519059 -302.596306 
L 192.634574 -305.039942 
L 192.743368 -307.483578 
L 192.844898 -309.927215 
L 192.93881 -312.370851 
L 193.024928 -314.814488 
L 193.103233 -317.258124 
L 193.173848 -319.70176 
L 193.237013 -322.145397 
L 193.984237 -322.145397 
L 193.984237 -322.145397 
L 194.047402 -319.70176 
L 194.118017 -317.258124 
L 194.196322 -314.814488 
L 194.28244 -312.370851 
L 194.376352 -309.927215 
L 194.477882 -307.483578 
L 194.586676 -305.039942 
L 194.702191 -302.596306 
L 194.823689 -300.152669 
L 194.950231 -297.709033 
L 195.080683 -295.265397 
L 195.21373 -292.82176 
L 195.347891 -290.378124 
L 195.481554 -287.934488 
L 195.613005 -285.490851 
L 195.740476 -283.047215 
L 195.86219 -280.603578 
L 195.976416 -278.159942 
L 196.081529 -275.716306 
L 196.176065 -273.272669 
L 196.258784 -270.829033 
L 196.328719 -268.385397 
L 196.385238 -265.94176 
L 196.428078 -263.498124 
L 196.457389 -261.054488 
L 196.47376 -258.610851 
L 196.478234 -256.167215 
L 196.472312 -253.723578 
L 196.457945 -251.279942 
L 196.437517 -248.836306 
L 196.413807 -246.392669 
L 196.389947 -243.949033 
L 196.369367 -241.505397 
L 196.35573 -239.06176 
L 196.352859 -236.618124 
L 196.364652 -234.174488 
L 196.395004 -231.730851 
L 196.44771 -229.287215 
L 196.526375 -226.843578 
L 196.634324 -224.399942 
L 196.774507 -221.956306 
L 196.94941 -219.512669 
L 197.160976 -217.069033 
L 197.410525 -214.625397 
L 197.698691 -212.18176 
L 198.025357 -209.738124 
L 198.389621 -207.294488 
L 198.789763 -204.850851 
L 199.223232 -202.407215 
L 199.686653 -199.963578 
L 200.175853 -197.519942 
L 200.685906 -195.076306 
L 201.211194 -192.632669 
L 201.745498 -190.189033 
L 202.282096 -187.745397 
L 202.813887 -185.30176 
L 203.333523 -182.858124 
L 203.833555 -180.414488 
L 204.306586 -177.970851 
L 204.745432 -175.527215 
L 205.143273 -173.083578 
L 205.49381 -170.639942 
L 205.791402 -168.196306 
L 206.031194 -165.752669 
L 206.209229 -163.309033 
L 206.322535 -160.865397 
L 206.369187 -158.42176 
L 206.348347 -155.978124 
L 206.260274 -153.534488 
L 206.106308 -151.090851 
L 205.888824 -148.647215 
L 205.611167 -146.203578 
L 205.277561 -143.759942 
L 204.892997 -141.316306 
L 204.463109 -138.872669 
L 203.994035 -136.429033 
L 203.492273 -133.985397 
L 202.964535 -131.54176 
L 202.417599 -129.098124 
L 201.858168 -126.654488 
L 201.292744 -124.210851 
L 200.727503 -121.767215 
L 200.168199 -119.323578 
L 199.620073 -116.879942 
L 199.087788 -114.436306 
L 198.575385 -111.992669 
L 198.08625 -109.549033 
L 197.623104 -107.105397 
L 197.188016 -104.66176 
L 196.782419 -102.218124 
L 196.407151 -99.774488 
L 196.0625 -97.330851 
L 195.748258 -94.887215 
L 195.463787 -92.443578 
L 195.208082 -89.999942 
L 194.979836 -87.556306 
L 194.777508 -85.112669 
L 194.599383 -82.669033 
L 194.443632 -80.225397 
z
" id="ma9de52c80f" style="stroke:#3f3f3f;stroke-width:1.5;"/>
    </defs>
    <g clip-path="url(#pafa40776a5)">
     <use style="fill:#3274a1;stroke:#3f3f3f;stroke-width:1.5;" x="0" xlink:href="#ma9de52c80f" y="356.559522"/>
    </g>
   </g>
   <g id="PolyCollection_3">
    <defs>
     <path d="M 284.320173 -104.710426 
L 281.461077 -104.710426 
L 281.181273 -105.8091 
L 280.858439 -106.907775 
L 280.488438 -108.006449 
L 280.067215 -109.105124 
L 279.590903 -110.203798 
L 279.055944 -111.302473 
L 278.459213 -112.401147 
L 277.79816 -113.499822 
L 277.070946 -114.598496 
L 276.276585 -115.697171 
L 275.415081 -116.795845 
L 274.487554 -117.89452 
L 273.496353 -118.993195 
L 272.445152 -120.091869 
L 271.339014 -121.190544 
L 270.184437 -122.289218 
L 268.989354 -123.387893 
L 267.763107 -124.486567 
L 266.516373 -125.585242 
L 265.261056 -126.683916 
L 264.010132 -127.782591 
L 262.777458 -128.881265 
L 261.57754 -129.97994 
L 260.425274 -131.078614 
L 259.335654 -132.177289 
L 258.32346 -133.275963 
L 257.402937 -134.374638 
L 256.587467 -135.473312 
L 255.889247 -136.571987 
L 255.318983 -137.670661 
L 254.885613 -138.769336 
L 254.59606 -139.86801 
L 254.455029 -140.966685 
L 254.464861 -142.065359 
L 254.625437 -143.164034 
L 254.934145 -144.262708 
L 255.385913 -145.361383 
L 255.973302 -146.460057 
L 256.68666 -147.558732 
L 257.514336 -148.657406 
L 258.442937 -149.756081 
L 259.457638 -150.854755 
L 260.542512 -151.95343 
L 261.680895 -153.052104 
L 262.855751 -154.150779 
L 264.050046 -155.249453 
L 265.24711 -156.348128 
L 266.430973 -157.446802 
L 267.586682 -158.545477 
L 268.700574 -159.644151 
L 269.76051 -160.742826 
L 270.756064 -161.841501 
L 271.67866 -162.940175 
L 272.521661 -164.03885 
L 273.280408 -165.137524 
L 273.952218 -166.236199 
L 274.536326 -167.334873 
L 275.033795 -168.433548 
L 275.447391 -169.532222 
L 275.781422 -170.630897 
L 276.041553 -171.729571 
L 276.234601 -172.828246 
L 276.368316 -173.92692 
L 276.451149 -175.025595 
L 276.49202 -176.124269 
L 276.500081 -177.222944 
L 276.484491 -178.321618 
L 276.454198 -179.420293 
L 276.417734 -180.518967 
L 276.383037 -181.617642 
L 276.357285 -182.716316 
L 276.346771 -183.814991 
L 276.356793 -184.913665 
L 276.391587 -186.01234 
L 276.454282 -187.111014 
L 276.546899 -188.209689 
L 276.670367 -189.308363 
L 276.824584 -190.407038 
L 277.008494 -191.505712 
L 277.22019 -192.604387 
L 277.457036 -193.703061 
L 277.715801 -194.801736 
L 277.992805 -195.90041 
L 278.284063 -196.999085 
L 278.585428 -198.097759 
L 278.892729 -199.196434 
L 279.201896 -200.295108 
L 279.509068 -201.393783 
L 279.81069 -202.492458 
L 280.103581 -203.591132 
L 280.384992 -204.689807 
L 280.652637 -205.788481 
L 280.904709 -206.887156 
L 281.139876 -207.98583 
L 281.357263 -209.084505 
L 281.556424 -210.183179 
L 281.737298 -211.281854 
L 281.900166 -212.380528 
L 282.045593 -213.479203 
L 283.735657 -213.479203 
L 283.735657 -213.479203 
L 283.881084 -212.380528 
L 284.043952 -211.281854 
L 284.224826 -210.183179 
L 284.423987 -209.084505 
L 284.641374 -207.98583 
L 284.876541 -206.887156 
L 285.128613 -205.788481 
L 285.396258 -204.689807 
L 285.677669 -203.591132 
L 285.97056 -202.492458 
L 286.272182 -201.393783 
L 286.579354 -200.295108 
L 286.888521 -199.196434 
L 287.195822 -198.097759 
L 287.497187 -196.999085 
L 287.788445 -195.90041 
L 288.065449 -194.801736 
L 288.324214 -193.703061 
L 288.56106 -192.604387 
L 288.772756 -191.505712 
L 288.956666 -190.407038 
L 289.110883 -189.308363 
L 289.234351 -188.209689 
L 289.326968 -187.111014 
L 289.389663 -186.01234 
L 289.424457 -184.913665 
L 289.434479 -183.814991 
L 289.423965 -182.716316 
L 289.398213 -181.617642 
L 289.363516 -180.518967 
L 289.327052 -179.420293 
L 289.296759 -178.321618 
L 289.281169 -177.222944 
L 289.28923 -176.124269 
L 289.330101 -175.025595 
L 289.412934 -173.92692 
L 289.546649 -172.828246 
L 289.739697 -171.729571 
L 289.999828 -170.630897 
L 290.333859 -169.532222 
L 290.747455 -168.433548 
L 291.244924 -167.334873 
L 291.829032 -166.236199 
L 292.500842 -165.137524 
L 293.259589 -164.03885 
L 294.10259 -162.940175 
L 295.025186 -161.841501 
L 296.02074 -160.742826 
L 297.080676 -159.644151 
L 298.194568 -158.545477 
L 299.350277 -157.446802 
L 300.53414 -156.348128 
L 301.731204 -155.249453 
L 302.925499 -154.150779 
L 304.100355 -153.052104 
L 305.238738 -151.95343 
L 306.323612 -150.854755 
L 307.338313 -149.756081 
L 308.266914 -148.657406 
L 309.09459 -147.558732 
L 309.807948 -146.460057 
L 310.395337 -145.361383 
L 310.847105 -144.262708 
L 311.155813 -143.164034 
L 311.316389 -142.065359 
L 311.326221 -140.966685 
L 311.18519 -139.86801 
L 310.895637 -138.769336 
L 310.462267 -137.670661 
L 309.892003 -136.571987 
L 309.193783 -135.473312 
L 308.378313 -134.374638 
L 307.45779 -133.275963 
L 306.445596 -132.177289 
L 305.355976 -131.078614 
L 304.20371 -129.97994 
L 303.003792 -128.881265 
L 301.771118 -127.782591 
L 300.520194 -126.683916 
L 299.264877 -125.585242 
L 298.018143 -124.486567 
L 296.791896 -123.387893 
L 295.596813 -122.289218 
L 294.442236 -121.190544 
L 293.336098 -120.091869 
L 292.284897 -118.993195 
L 291.293696 -117.89452 
L 290.366169 -116.795845 
L 289.504665 -115.697171 
L 288.710304 -114.598496 
L 287.98309 -113.499822 
L 287.322037 -112.401147 
L 286.725306 -111.302473 
L 286.190347 -110.203798 
L 285.714035 -109.105124 
L 285.292812 -108.006449 
L 284.922811 -106.907775 
L 284.599977 -105.8091 
L 284.320173 -104.710426 
z
" id="m3ae9cf29f6" style="stroke:#3f3f3f;stroke-width:1.5;"/>
    </defs>
    <g clip-path="url(#pafa40776a5)">
     <use style="fill:#b5c8e1;stroke:#3f3f3f;stroke-width:1.5;" x="0" xlink:href="#m3ae9cf29f6" y="356.559522"/>
    </g>
   </g>
   <g id="PolyCollection_4">
    <defs>
     <path d="M 374.022443 -114.278267 
L 370.318807 -114.278267 
L 369.989779 -114.913995 
L 369.615525 -115.549723 
L 369.192369 -116.185451 
L 368.716778 -116.821179 
L 368.185452 -117.456907 
L 367.595412 -118.092635 
L 366.9441 -118.728363 
L 366.229472 -119.36409 
L 365.450099 -119.999818 
L 364.605256 -120.635546 
L 363.695006 -121.271274 
L 362.720274 -121.907002 
L 361.682914 -122.54273 
L 360.58575 -123.178458 
L 359.432606 -123.814186 
L 358.22832 -124.449914 
L 356.978732 -125.085642 
L 355.69065 -125.72137 
L 354.371803 -126.357098 
L 353.030763 -126.992826 
L 351.676858 -127.628554 
L 350.320055 -128.264282 
L 348.970835 -128.90001 
L 347.64005 -129.535738 
L 346.338766 -130.171466 
L 345.078099 -130.807194 
L 343.869041 -131.442922 
L 342.722284 -132.07865 
L 341.648037 -132.714378 
L 340.65585 -133.350106 
L 339.754436 -133.985834 
L 338.951501 -134.621562 
L 338.253589 -135.25729 
L 337.665934 -135.893018 
L 337.192328 -136.528746 
L 336.835021 -137.164474 
L 336.59463 -137.800202 
L 336.470089 -138.43593 
L 336.458625 -139.071658 
L 336.555773 -139.707386 
L 336.755427 -140.343114 
L 337.049932 -140.978842 
L 337.430222 -141.61457 
L 337.885988 -142.250297 
L 338.405903 -142.886025 
L 338.977863 -143.521753 
L 339.589276 -144.157481 
L 340.227366 -144.793209 
L 340.879492 -145.428937 
L 341.533482 -146.064665 
L 342.177956 -146.700393 
L 342.802631 -147.336121 
L 343.398614 -147.971849 
L 343.958636 -148.607577 
L 344.477261 -149.243305 
L 344.951022 -149.879033 
L 345.378504 -150.514761 
L 345.760359 -151.150489 
L 346.099245 -151.786217 
L 346.399709 -152.421945 
L 346.667993 -153.057673 
L 346.911795 -153.693401 
L 347.13997 -154.329129 
L 347.3622 -154.964857 
L 347.588633 -155.600585 
L 347.829517 -156.236313 
L 348.09483 -156.872041 
L 348.39393 -157.507769 
L 348.735229 -158.143497 
L 349.125915 -158.779225 
L 349.571717 -159.414953 
L 350.076732 -160.050681 
L 350.643314 -160.686409 
L 351.272026 -161.322137 
L 351.961655 -161.957865 
L 352.709294 -162.593593 
L 353.510467 -163.229321 
L 354.359313 -163.865049 
L 355.248804 -164.500777 
L 356.170987 -165.136504 
L 357.117247 -165.772232 
L 358.07858 -166.40796 
L 359.045853 -167.043688 
L 360.010058 -167.679416 
L 360.962544 -168.315144 
L 361.895215 -168.950872 
L 362.800704 -169.5866 
L 363.672503 -170.222328 
L 364.50506 -170.858056 
L 365.293837 -171.493784 
L 366.03533 -172.129512 
L 366.727064 -172.76524 
L 367.367547 -173.400968 
L 367.95621 -174.036696 
L 368.493324 -174.672424 
L 368.9799 -175.308152 
L 369.417583 -175.94388 
L 369.808543 -176.579608 
L 370.155362 -177.215336 
L 374.185888 -177.215336 
L 374.185888 -177.215336 
L 374.532707 -176.579608 
L 374.923667 -175.94388 
L 375.36135 -175.308152 
L 375.847926 -174.672424 
L 376.38504 -174.036696 
L 376.973703 -173.400968 
L 377.614186 -172.76524 
L 378.30592 -172.129512 
L 379.047413 -171.493784 
L 379.83619 -170.858056 
L 380.668747 -170.222328 
L 381.540546 -169.5866 
L 382.446035 -168.950872 
L 383.378706 -168.315144 
L 384.331192 -167.679416 
L 385.295397 -167.043688 
L 386.26267 -166.40796 
L 387.224003 -165.772232 
L 388.170263 -165.136504 
L 389.092446 -164.500777 
L 389.981937 -163.865049 
L 390.830783 -163.229321 
L 391.631956 -162.593593 
L 392.379595 -161.957865 
L 393.069224 -161.322137 
L 393.697936 -160.686409 
L 394.264518 -160.050681 
L 394.769533 -159.414953 
L 395.215335 -158.779225 
L 395.606021 -158.143497 
L 395.94732 -157.507769 
L 396.24642 -156.872041 
L 396.511733 -156.236313 
L 396.752617 -155.600585 
L 396.97905 -154.964857 
L 397.20128 -154.329129 
L 397.429455 -153.693401 
L 397.673257 -153.057673 
L 397.941541 -152.421945 
L 398.242005 -151.786217 
L 398.580891 -151.150489 
L 398.962746 -150.514761 
L 399.390228 -149.879033 
L 399.863989 -149.243305 
L 400.382614 -148.607577 
L 400.942636 -147.971849 
L 401.538619 -147.336121 
L 402.163294 -146.700393 
L 402.807768 -146.064665 
L 403.461758 -145.428937 
L 404.113884 -144.793209 
L 404.751974 -144.157481 
L 405.363387 -143.521753 
L 405.935347 -142.886025 
L 406.455262 -142.250297 
L 406.911028 -141.61457 
L 407.291318 -140.978842 
L 407.585823 -140.343114 
L 407.785477 -139.707386 
L 407.882625 -139.071658 
L 407.871161 -138.43593 
L 407.74662 -137.800202 
L 407.506229 -137.164474 
L 407.148922 -136.528746 
L 406.675316 -135.893018 
L 406.087661 -135.25729 
L 405.389749 -134.621562 
L 404.586814 -133.985834 
L 403.6854 -133.350106 
L 402.693213 -132.714378 
L 401.618966 -132.07865 
L 400.472209 -131.442922 
L 399.263151 -130.807194 
L 398.002484 -130.171466 
L 396.7012 -129.535738 
L 395.370415 -128.90001 
L 394.021195 -128.264282 
L 392.664392 -127.628554 
L 391.310487 -126.992826 
L 389.969447 -126.357098 
L 388.6506 -125.72137 
L 387.362518 -125.085642 
L 386.11293 -124.449914 
L 384.908644 -123.814186 
L 383.7555 -123.178458 
L 382.658336 -122.54273 
L 381.620976 -121.907002 
L 380.646244 -121.271274 
L 379.735994 -120.635546 
L 378.891151 -119.999818 
L 378.111778 -119.36409 
L 377.39715 -118.728363 
L 376.745838 -118.092635 
L 376.155798 -117.456907 
L 375.624472 -116.821179 
L 375.148881 -116.185451 
L 374.725725 -115.549723 
L 374.351471 -114.913995 
L 374.022443 -114.278267 
z
" id="m264e9568c9" style="stroke:#3f3f3f;stroke-width:1.5;"/>
    </defs>
    <g clip-path="url(#pafa40776a5)">
     <use style="fill:#e1812c;stroke:#3f3f3f;stroke-width:1.5;" x="0" xlink:href="#m264e9568c9" y="356.559522"/>
    </g>
   </g>
   <g id="matplotlib.axis_1">
    <g id="xtick_1">
     <g id="line2d_1">
      <defs>
       <path d="M 0 0 
L 0 3.5 
" id="md9faa37136" style="stroke:#000000;stroke-width:0.8;"/>
      </defs>
      <g>
       <use style="stroke:#000000;stroke-width:0.8;" x="104.330625" xlink:href="#md9faa37136" y="288.430125"/>
      </g>
     </g>
     <g id="text_1">
      <!-- fairfuzz -->
      <g transform="translate(71.34121 320.456659)rotate(-30)scale(0.1 -0.1)">
       <defs>
        <path d="M 37.109375 75.984375 
L 37.109375 68.5 
L 28.515625 68.5 
Q 23.6875 68.5 21.796875 66.546875 
Q 19.921875 64.59375 19.921875 59.515625 
L 19.921875 54.6875 
L 34.71875 54.6875 
L 34.71875 47.703125 
L 19.921875 47.703125 
L 19.921875 0 
L 10.890625 0 
L 10.890625 47.703125 
L 2.296875 47.703125 
L 2.296875 54.6875 
L 10.890625 54.6875 
L 10.890625 58.5 
Q 10.890625 67.625 15.140625 71.796875 
Q 19.390625 75.984375 28.609375 75.984375 
z
" id="DejaVuSans-102"/>
        <path d="M 34.28125 27.484375 
Q 23.390625 27.484375 19.1875 25 
Q 14.984375 22.515625 14.984375 16.5 
Q 14.984375 11.71875 18.140625 8.90625 
Q 21.296875 6.109375 26.703125 6.109375 
Q 34.1875 6.109375 38.703125 11.40625 
Q 43.21875 16.703125 43.21875 25.484375 
L 43.21875 27.484375 
z
M 52.203125 31.203125 
L 52.203125 0 
L 43.21875 0 
L 43.21875 8.296875 
Q 40.140625 3.328125 35.546875 0.953125 
Q 30.953125 -1.421875 24.3125 -1.421875 
Q 15.921875 -1.421875 10.953125 3.296875 
Q 6 8.015625 6 15.921875 
Q 6 25.140625 12.171875 29.828125 
Q 18.359375 34.515625 30.609375 34.515625 
L 43.21875 34.515625 
L 43.21875 35.40625 
Q 43.21875 41.609375 39.140625 45 
Q 35.0625 48.390625 27.6875 48.390625 
Q 23 48.390625 18.546875 47.265625 
Q 14.109375 46.140625 10.015625 43.890625 
L 10.015625 52.203125 
Q 14.9375 54.109375 19.578125 55.046875 
Q 24.21875 56 28.609375 56 
Q 40.484375 56 46.34375 49.84375 
Q 52.203125 43.703125 52.203125 31.203125 
z
" id="DejaVuSans-97"/>
        <path d="M 9.421875 54.6875 
L 18.40625 54.6875 
L 18.40625 0 
L 9.421875 0 
z
M 9.421875 75.984375 
L 18.40625 75.984375 
L 18.40625 64.59375 
L 9.421875 64.59375 
z
" id="DejaVuSans-105"/>
        <path d="M 41.109375 46.296875 
Q 39.59375 47.171875 37.8125 47.578125 
Q 36.03125 48 33.890625 48 
Q 26.265625 48 22.1875 43.046875 
Q 18.109375 38.09375 18.109375 28.8125 
L 18.109375 0 
L 9.078125 0 
L 9.078125 54.6875 
L 18.109375 54.6875 
L 18.109375 46.1875 
Q 20.953125 51.171875 25.484375 53.578125 
Q 30.03125 56 36.53125 56 
Q 37.453125 56 38.578125 55.875 
Q 39.703125 55.765625 41.0625 55.515625 
z
" id="DejaVuSans-114"/>
        <path d="M 8.5 21.578125 
L 8.5 54.6875 
L 17.484375 54.6875 
L 17.484375 21.921875 
Q 17.484375 14.15625 20.5 10.265625 
Q 23.53125 6.390625 29.59375 6.390625 
Q 36.859375 6.390625 41.078125 11.03125 
Q 45.3125 15.671875 45.3125 23.6875 
L 45.3125 54.6875 
L 54.296875 54.6875 
L 54.296875 0 
L 45.3125 0 
L 45.3125 8.40625 
Q 42.046875 3.421875 37.71875 1 
Q 33.40625 -1.421875 27.6875 -1.421875 
Q 18.265625 -1.421875 13.375 4.4375 
Q 8.5 10.296875 8.5 21.578125 
z
M 31.109375 56 
z
" id="DejaVuSans-117"/>
        <path d="M 5.515625 54.6875 
L 48.1875 54.6875 
L 48.1875 46.484375 
L 14.40625 7.171875 
L 48.1875 7.171875 
L 48.1875 0 
L 4.296875 0 
L 4.296875 8.203125 
L 38.09375 47.515625 
L 5.515625 47.515625 
z
" id="DejaVuSans-122"/>
       </defs>
       <use xlink:href="#DejaVuSans-102"/>
       <use x="35.205078" xlink:href="#DejaVuSans-97"/>
       <use x="96.484375" xlink:href="#DejaVuSans-105"/>
       <use x="124.267578" xlink:href="#DejaVuSans-114"/>
       <use x="165.380859" xlink:href="#DejaVuSans-102"/>
       <use x="200.585938" xlink:href="#DejaVuSans-117"/>
       <use x="263.964844" xlink:href="#DejaVuSans-122"/>
       <use x="316.455078" xlink:href="#DejaVuSans-122"/>
      </g>
     </g>
    </g>
    <g id="xtick_2">
     <g id="line2d_2">
      <g>
       <use style="stroke:#000000;stroke-width:0.8;" x="193.610625" xlink:href="#md9faa37136" y="288.430125"/>
      </g>
     </g>
     <g id="text_2">
      <!-- afl -->
      <g transform="translate(181.809062 308.223846)rotate(-30)scale(0.1 -0.1)">
       <defs>
        <path d="M 9.421875 75.984375 
L 18.40625 75.984375 
L 18.40625 0 
L 9.421875 0 
z
" id="DejaVuSans-108"/>
       </defs>
       <use xlink:href="#DejaVuSans-97"/>
       <use x="61.279297" xlink:href="#DejaVuSans-102"/>
       <use x="96.484375" xlink:href="#DejaVuSans-108"/>
      </g>
     </g>
    </g>
    <g id="xtick_3">
     <g id="line2d_3">
      <g>
       <use style="stroke:#000000;stroke-width:0.8;" x="282.890625" xlink:href="#md9faa37136" y="288.430125"/>
      </g>
     </g>
     <g id="text_3">
      <!-- dark -->
      <g transform="translate(262.470757 313.199627)rotate(-30)scale(0.1 -0.1)">
       <defs>
        <path d="M 45.40625 46.390625 
L 45.40625 75.984375 
L 54.390625 75.984375 
L 54.390625 0 
L 45.40625 0 
L 45.40625 8.203125 
Q 42.578125 3.328125 38.25 0.953125 
Q 33.9375 -1.421875 27.875 -1.421875 
Q 17.96875 -1.421875 11.734375 6.484375 
Q 5.515625 14.40625 5.515625 27.296875 
Q 5.515625 40.1875 11.734375 48.09375 
Q 17.96875 56 27.875 56 
Q 33.9375 56 38.25 53.625 
Q 42.578125 51.265625 45.40625 46.390625 
z
M 14.796875 27.296875 
Q 14.796875 17.390625 18.875 11.75 
Q 22.953125 6.109375 30.078125 6.109375 
Q 37.203125 6.109375 41.296875 11.75 
Q 45.40625 17.390625 45.40625 27.296875 
Q 45.40625 37.203125 41.296875 42.84375 
Q 37.203125 48.484375 30.078125 48.484375 
Q 22.953125 48.484375 18.875 42.84375 
Q 14.796875 37.203125 14.796875 27.296875 
z
" id="DejaVuSans-100"/>
        <path d="M 9.078125 75.984375 
L 18.109375 75.984375 
L 18.109375 31.109375 
L 44.921875 54.6875 
L 56.390625 54.6875 
L 27.390625 29.109375 
L 57.625 0 
L 45.90625 0 
L 18.109375 26.703125 
L 18.109375 0 
L 9.078125 0 
z
" id="DejaVuSans-107"/>
       </defs>
       <use xlink:href="#DejaVuSans-100"/>
       <use x="63.476562" xlink:href="#DejaVuSans-97"/>
       <use x="124.755859" xlink:href="#DejaVuSans-114"/>
       <use x="165.869141" xlink:href="#DejaVuSans-107"/>
      </g>
     </g>
    </g>
    <g id="xtick_4">
     <g id="line2d_4">
      <g>
       <use style="stroke:#000000;stroke-width:0.8;" x="372.170625" xlink:href="#md9faa37136" y="288.430125"/>
      </g>
     </g>
     <g id="text_4">
      <!-- dark_w_prob -->
      <g transform="translate(316.208846 333.639471)rotate(-30)scale(0.1 -0.1)">
       <defs>
        <path d="M 50.984375 -16.609375 
L 50.984375 -23.578125 
L -0.984375 -23.578125 
L -0.984375 -16.609375 
z
" id="DejaVuSans-95"/>
        <path d="M 4.203125 54.6875 
L 13.1875 54.6875 
L 24.421875 12.015625 
L 35.59375 54.6875 
L 46.1875 54.6875 
L 57.421875 12.015625 
L 68.609375 54.6875 
L 77.59375 54.6875 
L 63.28125 0 
L 52.6875 0 
L 40.921875 44.828125 
L 29.109375 0 
L 18.5 0 
z
" id="DejaVuSans-119"/>
        <path d="M 18.109375 8.203125 
L 18.109375 -20.796875 
L 9.078125 -20.796875 
L 9.078125 54.6875 
L 18.109375 54.6875 
L 18.109375 46.390625 
Q 20.953125 51.265625 25.265625 53.625 
Q 29.59375 56 35.59375 56 
Q 45.5625 56 51.78125 48.09375 
Q 58.015625 40.1875 58.015625 27.296875 
Q 58.015625 14.40625 51.78125 6.484375 
Q 45.5625 -1.421875 35.59375 -1.421875 
Q 29.59375 -1.421875 25.265625 0.953125 
Q 20.953125 3.328125 18.109375 8.203125 
z
M 48.6875 27.296875 
Q 48.6875 37.203125 44.609375 42.84375 
Q 40.53125 48.484375 33.40625 48.484375 
Q 26.265625 48.484375 22.1875 42.84375 
Q 18.109375 37.203125 18.109375 27.296875 
Q 18.109375 17.390625 22.1875 11.75 
Q 26.265625 6.109375 33.40625 6.109375 
Q 40.53125 6.109375 44.609375 11.75 
Q 48.6875 17.390625 48.6875 27.296875 
z
" id="DejaVuSans-112"/>
        <path d="M 30.609375 48.390625 
Q 23.390625 48.390625 19.1875 42.75 
Q 14.984375 37.109375 14.984375 27.296875 
Q 14.984375 17.484375 19.15625 11.84375 
Q 23.34375 6.203125 30.609375 6.203125 
Q 37.796875 6.203125 41.984375 11.859375 
Q 46.1875 17.53125 46.1875 27.296875 
Q 46.1875 37.015625 41.984375 42.703125 
Q 37.796875 48.390625 30.609375 48.390625 
z
M 30.609375 56 
Q 42.328125 56 49.015625 48.375 
Q 55.71875 40.765625 55.71875 27.296875 
Q 55.71875 13.875 49.015625 6.21875 
Q 42.328125 -1.421875 30.609375 -1.421875 
Q 18.84375 -1.421875 12.171875 6.21875 
Q 5.515625 13.875 5.515625 27.296875 
Q 5.515625 40.765625 12.171875 48.375 
Q 18.84375 56 30.609375 56 
z
" id="DejaVuSans-111"/>
        <path d="M 48.6875 27.296875 
Q 48.6875 37.203125 44.609375 42.84375 
Q 40.53125 48.484375 33.40625 48.484375 
Q 26.265625 48.484375 22.1875 42.84375 
Q 18.109375 37.203125 18.109375 27.296875 
Q 18.109375 17.390625 22.1875 11.75 
Q 26.265625 6.109375 33.40625 6.109375 
Q 40.53125 6.109375 44.609375 11.75 
Q 48.6875 17.390625 48.6875 27.296875 
z
M 18.109375 46.390625 
Q 20.953125 51.265625 25.265625 53.625 
Q 29.59375 56 35.59375 56 
Q 45.5625 56 51.78125 48.09375 
Q 58.015625 40.1875 58.015625 27.296875 
Q 58.015625 14.40625 51.78125 6.484375 
Q 45.5625 -1.421875 35.59375 -1.421875 
Q 29.59375 -1.421875 25.265625 0.953125 
Q 20.953125 3.328125 18.109375 8.203125 
L 18.109375 0 
L 9.078125 0 
L 9.078125 75.984375 
L 18.109375 75.984375 
z
" id="DejaVuSans-98"/>
       </defs>
       <use xlink:href="#DejaVuSans-100"/>
       <use x="63.476562" xlink:href="#DejaVuSans-97"/>
       <use x="124.755859" xlink:href="#DejaVuSans-114"/>
       <use x="165.869141" xlink:href="#DejaVuSans-107"/>
       <use x="223.779297" xlink:href="#DejaVuSans-95"/>
       <use x="273.779297" xlink:href="#DejaVuSans-119"/>
       <use x="355.566406" xlink:href="#DejaVuSans-95"/>
       <use x="405.566406" xlink:href="#DejaVuSans-112"/>
       <use x="469.042969" xlink:href="#DejaVuSans-114"/>
       <use x="507.90625" xlink:href="#DejaVuSans-111"/>
       <use x="569.087891" xlink:href="#DejaVuSans-98"/>
      </g>
     </g>
    </g>
    <g id="text_5">
     <!-- Fuzzer (highest median coverage on the left) -->
     <g transform="translate(125.632656 347.279834)scale(0.1 -0.1)">
      <defs>
       <path d="M 9.8125 72.90625 
L 51.703125 72.90625 
L 51.703125 64.59375 
L 19.671875 64.59375 
L 19.671875 43.109375 
L 48.578125 43.109375 
L 48.578125 34.8125 
L 19.671875 34.8125 
L 19.671875 0 
L 9.8125 0 
z
" id="DejaVuSans-70"/>
       <path d="M 56.203125 29.59375 
L 56.203125 25.203125 
L 14.890625 25.203125 
Q 15.484375 15.921875 20.484375 11.0625 
Q 25.484375 6.203125 34.421875 6.203125 
Q 39.59375 6.203125 44.453125 7.46875 
Q 49.3125 8.734375 54.109375 11.28125 
L 54.109375 2.78125 
Q 49.265625 0.734375 44.1875 -0.34375 
Q 39.109375 -1.421875 33.890625 -1.421875 
Q 20.796875 -1.421875 13.15625 6.1875 
Q 5.515625 13.8125 5.515625 26.8125 
Q 5.515625 40.234375 12.765625 48.109375 
Q 20.015625 56 32.328125 56 
Q 43.359375 56 49.78125 48.890625 
Q 56.203125 41.796875 56.203125 29.59375 
z
M 47.21875 32.234375 
Q 47.125 39.59375 43.09375 43.984375 
Q 39.0625 48.390625 32.421875 48.390625 
Q 24.90625 48.390625 20.390625 44.140625 
Q 15.875 39.890625 15.1875 32.171875 
z
" id="DejaVuSans-101"/>
       <path id="DejaVuSans-32"/>
       <path d="M 31 75.875 
Q 24.46875 64.65625 21.28125 53.65625 
Q 18.109375 42.671875 18.109375 31.390625 
Q 18.109375 20.125 21.3125 9.0625 
Q 24.515625 -2 31 -13.1875 
L 23.1875 -13.1875 
Q 15.875 -1.703125 12.234375 9.375 
Q 8.59375 20.453125 8.59375 31.390625 
Q 8.59375 42.28125 12.203125 53.3125 
Q 15.828125 64.359375 23.1875 75.875 
z
" id="DejaVuSans-40"/>
       <path d="M 54.890625 33.015625 
L 54.890625 0 
L 45.90625 0 
L 45.90625 32.71875 
Q 45.90625 40.484375 42.875 44.328125 
Q 39.84375 48.1875 33.796875 48.1875 
Q 26.515625 48.1875 22.3125 43.546875 
Q 18.109375 38.921875 18.109375 30.90625 
L 18.109375 0 
L 9.078125 0 
L 9.078125 75.984375 
L 18.109375 75.984375 
L 18.109375 46.1875 
Q 21.34375 51.125 25.703125 53.5625 
Q 30.078125 56 35.796875 56 
Q 45.21875 56 50.046875 50.171875 
Q 54.890625 44.34375 54.890625 33.015625 
z
" id="DejaVuSans-104"/>
       <path d="M 45.40625 27.984375 
Q 45.40625 37.75 41.375 43.109375 
Q 37.359375 48.484375 30.078125 48.484375 
Q 22.859375 48.484375 18.828125 43.109375 
Q 14.796875 37.75 14.796875 27.984375 
Q 14.796875 18.265625 18.828125 12.890625 
Q 22.859375 7.515625 30.078125 7.515625 
Q 37.359375 7.515625 41.375 12.890625 
Q 45.40625 18.265625 45.40625 27.984375 
z
M 54.390625 6.78125 
Q 54.390625 -7.171875 48.1875 -13.984375 
Q 42 -20.796875 29.203125 -20.796875 
Q 24.46875 -20.796875 20.265625 -20.09375 
Q 16.0625 -19.390625 12.109375 -17.921875 
L 12.109375 -9.1875 
Q 16.0625 -11.328125 19.921875 -12.34375 
Q 23.78125 -13.375 27.78125 -13.375 
Q 36.625 -13.375 41.015625 -8.765625 
Q 45.40625 -4.15625 45.40625 5.171875 
L 45.40625 9.625 
Q 42.625 4.78125 38.28125 2.390625 
Q 33.9375 0 27.875 0 
Q 17.828125 0 11.671875 7.65625 
Q 5.515625 15.328125 5.515625 27.984375 
Q 5.515625 40.671875 11.671875 48.328125 
Q 17.828125 56 27.875 56 
Q 33.9375 56 38.28125 53.609375 
Q 42.625 51.21875 45.40625 46.390625 
L 45.40625 54.6875 
L 54.390625 54.6875 
z
" id="DejaVuSans-103"/>
       <path d="M 44.28125 53.078125 
L 44.28125 44.578125 
Q 40.484375 46.53125 36.375 47.5 
Q 32.28125 48.484375 27.875 48.484375 
Q 21.1875 48.484375 17.84375 46.4375 
Q 14.5 44.390625 14.5 40.28125 
Q 14.5 37.15625 16.890625 35.375 
Q 19.28125 33.59375 26.515625 31.984375 
L 29.59375 31.296875 
Q 39.15625 29.25 43.1875 25.515625 
Q 47.21875 21.78125 47.21875 15.09375 
Q 47.21875 7.46875 41.1875 3.015625 
Q 35.15625 -1.421875 24.609375 -1.421875 
Q 20.21875 -1.421875 15.453125 -0.5625 
Q 10.6875 0.296875 5.421875 2 
L 5.421875 11.28125 
Q 10.40625 8.6875 15.234375 7.390625 
Q 20.0625 6.109375 24.8125 6.109375 
Q 31.15625 6.109375 34.5625 8.28125 
Q 37.984375 10.453125 37.984375 14.40625 
Q 37.984375 18.0625 35.515625 20.015625 
Q 33.0625 21.96875 24.703125 23.78125 
L 21.578125 24.515625 
Q 13.234375 26.265625 9.515625 29.90625 
Q 5.8125 33.546875 5.8125 39.890625 
Q 5.8125 47.609375 11.28125 51.796875 
Q 16.75 56 26.8125 56 
Q 31.78125 56 36.171875 55.265625 
Q 40.578125 54.546875 44.28125 53.078125 
z
" id="DejaVuSans-115"/>
       <path d="M 18.3125 70.21875 
L 18.3125 54.6875 
L 36.8125 54.6875 
L 36.8125 47.703125 
L 18.3125 47.703125 
L 18.3125 18.015625 
Q 18.3125 11.328125 20.140625 9.421875 
Q 21.96875 7.515625 27.59375 7.515625 
L 36.8125 7.515625 
L 36.8125 0 
L 27.59375 0 
Q 17.1875 0 13.234375 3.875 
Q 9.28125 7.765625 9.28125 18.015625 
L 9.28125 47.703125 
L 2.6875 47.703125 
L 2.6875 54.6875 
L 9.28125 54.6875 
L 9.28125 70.21875 
z
" id="DejaVuSans-116"/>
       <path d="M 52 44.1875 
Q 55.375 50.25 60.0625 53.125 
Q 64.75 56 71.09375 56 
Q 79.640625 56 84.28125 50.015625 
Q 88.921875 44.046875 88.921875 33.015625 
L 88.921875 0 
L 79.890625 0 
L 79.890625 32.71875 
Q 79.890625 40.578125 77.09375 44.375 
Q 74.3125 48.1875 68.609375 48.1875 
Q 61.625 48.1875 57.5625 43.546875 
Q 53.515625 38.921875 53.515625 30.90625 
L 53.515625 0 
L 44.484375 0 
L 44.484375 32.71875 
Q 44.484375 40.625 41.703125 44.40625 
Q 38.921875 48.1875 33.109375 48.1875 
Q 26.21875 48.1875 22.15625 43.53125 
Q 18.109375 38.875 18.109375 30.90625 
L 18.109375 0 
L 9.078125 0 
L 9.078125 54.6875 
L 18.109375 54.6875 
L 18.109375 46.1875 
Q 21.1875 51.21875 25.484375 53.609375 
Q 29.78125 56 35.6875 56 
Q 41.65625 56 45.828125 52.96875 
Q 50 49.953125 52 44.1875 
z
" id="DejaVuSans-109"/>
       <path d="M 54.890625 33.015625 
L 54.890625 0 
L 45.90625 0 
L 45.90625 32.71875 
Q 45.90625 40.484375 42.875 44.328125 
Q 39.84375 48.1875 33.796875 48.1875 
Q 26.515625 48.1875 22.3125 43.546875 
Q 18.109375 38.921875 18.109375 30.90625 
L 18.109375 0 
L 9.078125 0 
L 9.078125 54.6875 
L 18.109375 54.6875 
L 18.109375 46.1875 
Q 21.34375 51.125 25.703125 53.5625 
Q 30.078125 56 35.796875 56 
Q 45.21875 56 50.046875 50.171875 
Q 54.890625 44.34375 54.890625 33.015625 
z
" id="DejaVuSans-110"/>
       <path d="M 48.78125 52.59375 
L 48.78125 44.1875 
Q 44.96875 46.296875 41.140625 47.34375 
Q 37.3125 48.390625 33.40625 48.390625 
Q 24.65625 48.390625 19.8125 42.84375 
Q 14.984375 37.3125 14.984375 27.296875 
Q 14.984375 17.28125 19.8125 11.734375 
Q 24.65625 6.203125 33.40625 6.203125 
Q 37.3125 6.203125 41.140625 7.25 
Q 44.96875 8.296875 48.78125 10.40625 
L 48.78125 2.09375 
Q 45.015625 0.34375 40.984375 -0.53125 
Q 36.96875 -1.421875 32.421875 -1.421875 
Q 20.0625 -1.421875 12.78125 6.34375 
Q 5.515625 14.109375 5.515625 27.296875 
Q 5.515625 40.671875 12.859375 48.328125 
Q 20.21875 56 33.015625 56 
Q 37.15625 56 41.109375 55.140625 
Q 45.0625 54.296875 48.78125 52.59375 
z
" id="DejaVuSans-99"/>
       <path d="M 2.984375 54.6875 
L 12.5 54.6875 
L 29.59375 8.796875 
L 46.6875 54.6875 
L 56.203125 54.6875 
L 35.6875 0 
L 23.484375 0 
z
" id="DejaVuSans-118"/>
       <path d="M 8.015625 75.875 
L 15.828125 75.875 
Q 23.140625 64.359375 26.78125 53.3125 
Q 30.421875 42.28125 30.421875 31.390625 
Q 30.421875 20.453125 26.78125 9.375 
Q 23.140625 -1.703125 15.828125 -13.1875 
L 8.015625 -13.1875 
Q 14.5 -2 17.703125 9.0625 
Q 20.90625 20.125 20.90625 31.390625 
Q 20.90625 42.671875 17.703125 53.65625 
Q 14.5 64.65625 8.015625 75.875 
z
" id="DejaVuSans-41"/>
      </defs>
      <use xlink:href="#DejaVuSans-70"/>
      <use x="52.019531" xlink:href="#DejaVuSans-117"/>
      <use x="115.398438" xlink:href="#DejaVuSans-122"/>
      <use x="167.888672" xlink:href="#DejaVuSans-122"/>
      <use x="220.378906" xlink:href="#DejaVuSans-101"/>
      <use x="281.902344" xlink:href="#DejaVuSans-114"/>
      <use x="323.015625" xlink:href="#DejaVuSans-32"/>
      <use x="354.802734" xlink:href="#DejaVuSans-40"/>
      <use x="393.816406" xlink:href="#DejaVuSans-104"/>
      <use x="457.195312" xlink:href="#DejaVuSans-105"/>
      <use x="484.978516" xlink:href="#DejaVuSans-103"/>
      <use x="548.455078" xlink:href="#DejaVuSans-104"/>
      <use x="611.833984" xlink:href="#DejaVuSans-101"/>
      <use x="673.357422" xlink:href="#DejaVuSans-115"/>
      <use x="725.457031" xlink:href="#DejaVuSans-116"/>
      <use x="764.666016" xlink:href="#DejaVuSans-32"/>
      <use x="796.453125" xlink:href="#DejaVuSans-109"/>
      <use x="893.865234" xlink:href="#DejaVuSans-101"/>
      <use x="955.388672" xlink:href="#DejaVuSans-100"/>
      <use x="1018.865234" xlink:href="#DejaVuSans-105"/>
      <use x="1046.648438" xlink:href="#DejaVuSans-97"/>
      <use x="1107.927734" xlink:href="#DejaVuSans-110"/>
      <use x="1171.306641" xlink:href="#DejaVuSans-32"/>
      <use x="1203.09375" xlink:href="#DejaVuSans-99"/>
      <use x="1258.074219" xlink:href="#DejaVuSans-111"/>
      <use x="1319.255859" xlink:href="#DejaVuSans-118"/>
      <use x="1378.435547" xlink:href="#DejaVuSans-101"/>
      <use x="1439.958984" xlink:href="#DejaVuSans-114"/>
      <use x="1481.072266" xlink:href="#DejaVuSans-97"/>
      <use x="1542.351562" xlink:href="#DejaVuSans-103"/>
      <use x="1605.828125" xlink:href="#DejaVuSans-101"/>
      <use x="1667.351562" xlink:href="#DejaVuSans-32"/>
      <use x="1699.138672" xlink:href="#DejaVuSans-111"/>
      <use x="1760.320312" xlink:href="#DejaVuSans-110"/>
      <use x="1823.699219" xlink:href="#DejaVuSans-32"/>
      <use x="1855.486328" xlink:href="#DejaVuSans-116"/>
      <use x="1894.695312" xlink:href="#DejaVuSans-104"/>
      <use x="1958.074219" xlink:href="#DejaVuSans-101"/>
      <use x="2019.597656" xlink:href="#DejaVuSans-32"/>
      <use x="2051.384766" xlink:href="#DejaVuSans-108"/>
      <use x="2079.167969" xlink:href="#DejaVuSans-101"/>
      <use x="2140.691406" xlink:href="#DejaVuSans-102"/>
      <use x="2174.146484" xlink:href="#DejaVuSans-116"/>
      <use x="2213.355469" xlink:href="#DejaVuSans-41"/>
     </g>
    </g>
   </g>
   <g id="matplotlib.axis_2">
    <g id="ytick_1">
     <g id="line2d_5">
      <defs>
       <path d="M 0 0 
L -3.5 0 
" id="me5000aeb3c" style="stroke:#000000;stroke-width:0.8;"/>
      </defs>
      <g>
       <use style="stroke:#000000;stroke-width:0.8;" x="59.690625" xlink:href="#me5000aeb3c" y="275.756374"/>
      </g>
     </g>
     <g id="text_6">
      <!-- 6000 -->
      <g transform="translate(27.240625 279.555593)scale(0.1 -0.1)">
       <defs>
        <path d="M 33.015625 40.375 
Q 26.375 40.375 22.484375 35.828125 
Q 18.609375 31.296875 18.609375 23.390625 
Q 18.609375 15.53125 22.484375 10.953125 
Q 26.375 6.390625 33.015625 6.390625 
Q 39.65625 6.390625 43.53125 10.953125 
Q 47.40625 15.53125 47.40625 23.390625 
Q 47.40625 31.296875 43.53125 35.828125 
Q 39.65625 40.375 33.015625 40.375 
z
M 52.59375 71.296875 
L 52.59375 62.3125 
Q 48.875 64.0625 45.09375 64.984375 
Q 41.3125 65.921875 37.59375 65.921875 
Q 27.828125 65.921875 22.671875 59.328125 
Q 17.53125 52.734375 16.796875 39.40625 
Q 19.671875 43.65625 24.015625 45.921875 
Q 28.375 48.1875 33.59375 48.1875 
Q 44.578125 48.1875 50.953125 41.515625 
Q 57.328125 34.859375 57.328125 23.390625 
Q 57.328125 12.15625 50.6875 5.359375 
Q 44.046875 -1.421875 33.015625 -1.421875 
Q 20.359375 -1.421875 13.671875 8.265625 
Q 6.984375 17.96875 6.984375 36.375 
Q 6.984375 53.65625 15.1875 63.9375 
Q 23.390625 74.21875 37.203125 74.21875 
Q 40.921875 74.21875 44.703125 73.484375 
Q 48.484375 72.75 52.59375 71.296875 
z
" id="DejaVuSans-54"/>
        <path d="M 31.78125 66.40625 
Q 24.171875 66.40625 20.328125 58.90625 
Q 16.5 51.421875 16.5 36.375 
Q 16.5 21.390625 20.328125 13.890625 
Q 24.171875 6.390625 31.78125 6.390625 
Q 39.453125 6.390625 43.28125 13.890625 
Q 47.125 21.390625 47.125 36.375 
Q 47.125 51.421875 43.28125 58.90625 
Q 39.453125 66.40625 31.78125 66.40625 
z
M 31.78125 74.21875 
Q 44.046875 74.21875 50.515625 64.515625 
Q 56.984375 54.828125 56.984375 36.375 
Q 56.984375 17.96875 50.515625 8.265625 
Q 44.046875 -1.421875 31.78125 -1.421875 
Q 19.53125 -1.421875 13.0625 8.265625 
Q 6.59375 17.96875 6.59375 36.375 
Q 6.59375 54.828125 13.0625 64.515625 
Q 19.53125 74.21875 31.78125 74.21875 
z
" id="DejaVuSans-48"/>
       </defs>
       <use xlink:href="#DejaVuSans-54"/>
       <use x="63.623047" xlink:href="#DejaVuSans-48"/>
       <use x="127.246094" xlink:href="#DejaVuSans-48"/>
       <use x="190.869141" xlink:href="#DejaVuSans-48"/>
      </g>
     </g>
    </g>
    <g id="ytick_2">
     <g id="line2d_6">
      <g>
       <use style="stroke:#000000;stroke-width:0.8;" x="59.690625" xlink:href="#me5000aeb3c" y="230.277625"/>
      </g>
     </g>
     <g id="text_7">
      <!-- 7000 -->
      <g transform="translate(27.240625 234.076844)scale(0.1 -0.1)">
       <defs>
        <path d="M 8.203125 72.90625 
L 55.078125 72.90625 
L 55.078125 68.703125 
L 28.609375 0 
L 18.3125 0 
L 43.21875 64.59375 
L 8.203125 64.59375 
z
" id="DejaVuSans-55"/>
       </defs>
       <use xlink:href="#DejaVuSans-55"/>
       <use x="63.623047" xlink:href="#DejaVuSans-48"/>
       <use x="127.246094" xlink:href="#DejaVuSans-48"/>
       <use x="190.869141" xlink:href="#DejaVuSans-48"/>
      </g>
     </g>
    </g>
    <g id="ytick_3">
     <g id="line2d_7">
      <g>
       <use style="stroke:#000000;stroke-width:0.8;" x="59.690625" xlink:href="#me5000aeb3c" y="184.798876"/>
      </g>
     </g>
     <g id="text_8">
      <!-- 8000 -->
      <g transform="translate(27.240625 188.598095)scale(0.1 -0.1)">
       <defs>
        <path d="M 31.78125 34.625 
Q 24.75 34.625 20.71875 30.859375 
Q 16.703125 27.09375 16.703125 20.515625 
Q 16.703125 13.921875 20.71875 10.15625 
Q 24.75 6.390625 31.78125 6.390625 
Q 38.8125 6.390625 42.859375 10.171875 
Q 46.921875 13.96875 46.921875 20.515625 
Q 46.921875 27.09375 42.890625 30.859375 
Q 38.875 34.625 31.78125 34.625 
z
M 21.921875 38.8125 
Q 15.578125 40.375 12.03125 44.71875 
Q 8.5 49.078125 8.5 55.328125 
Q 8.5 64.0625 14.71875 69.140625 
Q 20.953125 74.21875 31.78125 74.21875 
Q 42.671875 74.21875 48.875 69.140625 
Q 55.078125 64.0625 55.078125 55.328125 
Q 55.078125 49.078125 51.53125 44.71875 
Q 48 40.375 41.703125 38.8125 
Q 48.828125 37.15625 52.796875 32.3125 
Q 56.78125 27.484375 56.78125 20.515625 
Q 56.78125 9.90625 50.3125 4.234375 
Q 43.84375 -1.421875 31.78125 -1.421875 
Q 19.734375 -1.421875 13.25 4.234375 
Q 6.78125 9.90625 6.78125 20.515625 
Q 6.78125 27.484375 10.78125 32.3125 
Q 14.796875 37.15625 21.921875 38.8125 
z
M 18.3125 54.390625 
Q 18.3125 48.734375 21.84375 45.5625 
Q 25.390625 42.390625 31.78125 42.390625 
Q 38.140625 42.390625 41.71875 45.5625 
Q 45.3125 48.734375 45.3125 54.390625 
Q 45.3125 60.0625 41.71875 63.234375 
Q 38.140625 66.40625 31.78125 66.40625 
Q 25.390625 66.40625 21.84375 63.234375 
Q 18.3125 60.0625 18.3125 54.390625 
z
" id="DejaVuSans-56"/>
       </defs>
       <use xlink:href="#DejaVuSans-56"/>
       <use x="63.623047" xlink:href="#DejaVuSans-48"/>
       <use x="127.246094" xlink:href="#DejaVuSans-48"/>
       <use x="190.869141" xlink:href="#DejaVuSans-48"/>
      </g>
     </g>
    </g>
    <g id="ytick_4">
     <g id="line2d_8">
      <g>
       <use style="stroke:#000000;stroke-width:0.8;" x="59.690625" xlink:href="#me5000aeb3c" y="139.320127"/>
      </g>
     </g>
     <g id="text_9">
      <!-- 9000 -->
      <g transform="translate(27.240625 143.119345)scale(0.1 -0.1)">
       <defs>
        <path d="M 10.984375 1.515625 
L 10.984375 10.5 
Q 14.703125 8.734375 18.5 7.8125 
Q 22.3125 6.890625 25.984375 6.890625 
Q 35.75 6.890625 40.890625 13.453125 
Q 46.046875 20.015625 46.78125 33.40625 
Q 43.953125 29.203125 39.59375 26.953125 
Q 35.25 24.703125 29.984375 24.703125 
Q 19.046875 24.703125 12.671875 31.3125 
Q 6.296875 37.9375 6.296875 49.421875 
Q 6.296875 60.640625 12.9375 67.421875 
Q 19.578125 74.21875 30.609375 74.21875 
Q 43.265625 74.21875 49.921875 64.515625 
Q 56.59375 54.828125 56.59375 36.375 
Q 56.59375 19.140625 48.40625 8.859375 
Q 40.234375 -1.421875 26.421875 -1.421875 
Q 22.703125 -1.421875 18.890625 -0.6875 
Q 15.09375 0.046875 10.984375 1.515625 
z
M 30.609375 32.421875 
Q 37.25 32.421875 41.125 36.953125 
Q 45.015625 41.5 45.015625 49.421875 
Q 45.015625 57.28125 41.125 61.84375 
Q 37.25 66.40625 30.609375 66.40625 
Q 23.96875 66.40625 20.09375 61.84375 
Q 16.21875 57.28125 16.21875 49.421875 
Q 16.21875 41.5 20.09375 36.953125 
Q 23.96875 32.421875 30.609375 32.421875 
z
" id="DejaVuSans-57"/>
       </defs>
       <use xlink:href="#DejaVuSans-57"/>
       <use x="63.623047" xlink:href="#DejaVuSans-48"/>
       <use x="127.246094" xlink:href="#DejaVuSans-48"/>
       <use x="190.869141" xlink:href="#DejaVuSans-48"/>
      </g>
     </g>
    </g>
    <g id="ytick_5">
     <g id="line2d_9">
      <g>
       <use style="stroke:#000000;stroke-width:0.8;" x="59.690625" xlink:href="#me5000aeb3c" y="93.841377"/>
      </g>
     </g>
     <g id="text_10">
      <!-- 10000 -->
      <g transform="translate(20.878125 97.640596)scale(0.1 -0.1)">
       <defs>
        <path d="M 12.40625 8.296875 
L 28.515625 8.296875 
L 28.515625 63.921875 
L 10.984375 60.40625 
L 10.984375 69.390625 
L 28.421875 72.90625 
L 38.28125 72.90625 
L 38.28125 8.296875 
L 54.390625 8.296875 
L 54.390625 0 
L 12.40625 0 
z
" id="DejaVuSans-49"/>
       </defs>
       <use xlink:href="#DejaVuSans-49"/>
       <use x="63.623047" xlink:href="#DejaVuSans-48"/>
       <use x="127.246094" xlink:href="#DejaVuSans-48"/>
       <use x="190.869141" xlink:href="#DejaVuSans-48"/>
       <use x="254.492188" xlink:href="#DejaVuSans-48"/>
      </g>
     </g>
    </g>
    <g id="ytick_6">
     <g id="line2d_10">
      <g>
       <use style="stroke:#000000;stroke-width:0.8;" x="59.690625" xlink:href="#me5000aeb3c" y="48.362628"/>
      </g>
     </g>
     <g id="text_11">
      <!-- 11000 -->
      <g transform="translate(20.878125 52.161847)scale(0.1 -0.1)">
       <use xlink:href="#DejaVuSans-49"/>
       <use x="63.623047" xlink:href="#DejaVuSans-49"/>
       <use x="127.246094" xlink:href="#DejaVuSans-48"/>
       <use x="190.869141" xlink:href="#DejaVuSans-48"/>
       <use x="254.492188" xlink:href="#DejaVuSans-48"/>
      </g>
     </g>
    </g>
    <g id="text_12">
     <!-- Reached edge coverage -->
     <g transform="translate(14.798438 215.82725)rotate(-90)scale(0.1 -0.1)">
      <defs>
       <path d="M 44.390625 34.1875 
Q 47.5625 33.109375 50.5625 29.59375 
Q 53.5625 26.078125 56.59375 19.921875 
L 66.609375 0 
L 56 0 
L 46.6875 18.703125 
Q 43.0625 26.03125 39.671875 28.421875 
Q 36.28125 30.8125 30.421875 30.8125 
L 19.671875 30.8125 
L 19.671875 0 
L 9.8125 0 
L 9.8125 72.90625 
L 32.078125 72.90625 
Q 44.578125 72.90625 50.734375 67.671875 
Q 56.890625 62.453125 56.890625 51.90625 
Q 56.890625 45.015625 53.6875 40.46875 
Q 50.484375 35.9375 44.390625 34.1875 
z
M 19.671875 64.796875 
L 19.671875 38.921875 
L 32.078125 38.921875 
Q 39.203125 38.921875 42.84375 42.21875 
Q 46.484375 45.515625 46.484375 51.90625 
Q 46.484375 58.296875 42.84375 61.546875 
Q 39.203125 64.796875 32.078125 64.796875 
z
" id="DejaVuSans-82"/>
      </defs>
      <use xlink:href="#DejaVuSans-82"/>
      <use x="64.982422" xlink:href="#DejaVuSans-101"/>
      <use x="126.505859" xlink:href="#DejaVuSans-97"/>
      <use x="187.785156" xlink:href="#DejaVuSans-99"/>
      <use x="242.765625" xlink:href="#DejaVuSans-104"/>
      <use x="306.144531" xlink:href="#DejaVuSans-101"/>
      <use x="367.667969" xlink:href="#DejaVuSans-100"/>
      <use x="431.144531" xlink:href="#DejaVuSans-32"/>
      <use x="462.931641" xlink:href="#DejaVuSans-101"/>
      <use x="524.455078" xlink:href="#DejaVuSans-100"/>
      <use x="587.931641" xlink:href="#DejaVuSans-103"/>
      <use x="651.408203" xlink:href="#DejaVuSans-101"/>
      <use x="712.931641" xlink:href="#DejaVuSans-32"/>
      <use x="744.71875" xlink:href="#DejaVuSans-99"/>
      <use x="799.699219" xlink:href="#DejaVuSans-111"/>
      <use x="860.880859" xlink:href="#DejaVuSans-118"/>
      <use x="920.060547" xlink:href="#DejaVuSans-101"/>
      <use x="981.583984" xlink:href="#DejaVuSans-114"/>
      <use x="1022.697266" xlink:href="#DejaVuSans-97"/>
      <use x="1083.976562" xlink:href="#DejaVuSans-103"/>
      <use x="1147.453125" xlink:href="#DejaVuSans-101"/>
     </g>
    </g>
   </g>
   <g id="line2d_11">
    <path clip-path="url(#pafa40776a5)" d="M 104.330625 187.345686 
L 104.330625 129.906025 
" style="fill:none;stroke:#3f3f3f;stroke-linecap:square;stroke-width:1.5;"/>
   </g>
   <g id="line2d_12">
    <path clip-path="url(#pafa40776a5)" d="M 104.330625 155.123992 
L 104.330625 133.157756 
" style="fill:none;stroke:#3f3f3f;stroke-linecap:square;stroke-width:4.5;"/>
   </g>
   <g id="line2d_13">
    <path clip-path="url(#pafa40776a5)" d="M 193.610625 214.996765 
L 193.610625 185.708451 
" style="fill:none;stroke:#3f3f3f;stroke-linecap:square;stroke-width:1.5;"/>
   </g>
   <g id="line2d_14">
    <path clip-path="url(#pafa40776a5)" d="M 193.610625 207.663317 
L 193.610625 185.969954 
" style="fill:none;stroke:#3f3f3f;stroke-linecap:square;stroke-width:4.5;"/>
   </g>
   <g id="line2d_15">
    <path clip-path="url(#pafa40776a5)" d="M 282.890625 224.729218 
L 282.890625 207.947559 
" style="fill:none;stroke:#3f3f3f;stroke-linecap:square;stroke-width:1.5;"/>
   </g>
   <g id="line2d_16">
    <path clip-path="url(#pafa40776a5)" d="M 282.890625 217.952884 
L 282.890625 208.902613 
" style="fill:none;stroke:#3f3f3f;stroke-linecap:square;stroke-width:4.5;"/>
   </g>
   <g id="line2d_17">
    <path clip-path="url(#pafa40776a5)" d="M 372.170625 225.638793 
L 372.170625 195.986648 
" style="fill:none;stroke:#3f3f3f;stroke-linecap:square;stroke-width:1.5;"/>
   </g>
   <g id="line2d_18">
    <path clip-path="url(#pafa40776a5)" d="M 372.170625 219.669707 
L 372.170625 202.558327 
" style="fill:none;stroke:#3f3f3f;stroke-linecap:square;stroke-width:4.5;"/>
   </g>
   <g id="patch_3">
    <path d="M 59.690625 275.756374 
L 59.690625 48.362628 
" style="fill:none;stroke:#000000;stroke-linecap:square;stroke-linejoin:miter;stroke-width:0.8;"/>
   </g>
   <g id="patch_4">
    <path d="M 104.330625 288.430125 
L 372.170625 288.430125 
" style="fill:none;stroke:#000000;stroke-linecap:square;stroke-linejoin:miter;stroke-width:0.8;"/>
   </g>
   <g id="PathCollection_1">
    <defs>
     <path d="M 0 1.5 
C 0.397805 1.5 0.77937 1.341951 1.06066 1.06066 
C 1.341951 0.77937 1.5 0.397805 1.5 0 
C 1.5 -0.397805 1.341951 -0.77937 1.06066 -1.06066 
C 0.77937 -1.341951 0.397805 -1.5 0 -1.5 
C -0.397805 -1.5 -0.77937 -1.341951 -1.06066 -1.06066 
C -1.341951 -0.77937 -1.5 -0.397805 -1.5 0 
C -1.5 0.397805 -1.341951 0.77937 -1.06066 1.06066 
C -0.77937 1.341951 -0.397805 1.5 0 1.5 
z
" id="mbca05cde28" style="stroke:#3f3f3f;"/>
    </defs>
    <g clip-path="url(#pafa40776a5)">
     <use style="fill:#ffffff;stroke:#3f3f3f;" x="104.330625" xlink:href="#mbca05cde28" y="143.868001"/>
    </g>
   </g>
   <g id="PathCollection_2">
    <g clip-path="url(#pafa40776a5)">
     <use style="fill:#ffffff;stroke:#3f3f3f;" x="193.610625" xlink:href="#mbca05cde28" y="191.18864"/>
    </g>
   </g>
   <g id="PathCollection_3">
    <g clip-path="url(#pafa40776a5)">
     <use style="fill:#ffffff;stroke:#3f3f3f;" x="282.890625" xlink:href="#mbca05cde28" y="212.404477"/>
    </g>
   </g>
   <g id="PathCollection_4">
    <g clip-path="url(#pafa40776a5)">
     <use style="fill:#ffffff;stroke:#3f3f3f;" x="372.170625" xlink:href="#mbca05cde28" y="214.47376"/>
    </g>
   </g>
   <g id="text_13">
    <!-- libxml2-v2.9.2 (24h, 6 trials/fuzzer) -->
    <g transform="translate(132.49125 16.318125)scale(0.12 -0.12)">
     <defs>
      <path d="M 54.890625 54.6875 
L 35.109375 28.078125 
L 55.90625 0 
L 45.3125 0 
L 29.390625 21.484375 
L 13.484375 0 
L 2.875 0 
L 24.125 28.609375 
L 4.6875 54.6875 
L 15.28125 54.6875 
L 29.78125 35.203125 
L 44.28125 54.6875 
z
" id="DejaVuSans-120"/>
      <path d="M 19.1875 8.296875 
L 53.609375 8.296875 
L 53.609375 0 
L 7.328125 0 
L 7.328125 8.296875 
Q 12.9375 14.109375 22.625 23.890625 
Q 32.328125 33.6875 34.8125 36.53125 
Q 39.546875 41.84375 41.421875 45.53125 
Q 43.3125 49.21875 43.3125 52.78125 
Q 43.3125 58.59375 39.234375 62.25 
Q 35.15625 65.921875 28.609375 65.921875 
Q 23.96875 65.921875 18.8125 64.3125 
Q 13.671875 62.703125 7.8125 59.421875 
L 7.8125 69.390625 
Q 13.765625 71.78125 18.9375 73 
Q 24.125 74.21875 28.421875 74.21875 
Q 39.75 74.21875 46.484375 68.546875 
Q 53.21875 62.890625 53.21875 53.421875 
Q 53.21875 48.921875 51.53125 44.890625 
Q 49.859375 40.875 45.40625 35.40625 
Q 44.1875 33.984375 37.640625 27.21875 
Q 31.109375 20.453125 19.1875 8.296875 
z
" id="DejaVuSans-50"/>
      <path d="M 4.890625 31.390625 
L 31.203125 31.390625 
L 31.203125 23.390625 
L 4.890625 23.390625 
z
" id="DejaVuSans-45"/>
      <path d="M 10.6875 12.40625 
L 21 12.40625 
L 21 0 
L 10.6875 0 
z
" id="DejaVuSans-46"/>
      <path d="M 37.796875 64.3125 
L 12.890625 25.390625 
L 37.796875 25.390625 
z
M 35.203125 72.90625 
L 47.609375 72.90625 
L 47.609375 25.390625 
L 58.015625 25.390625 
L 58.015625 17.1875 
L 47.609375 17.1875 
L 47.609375 0 
L 37.796875 0 
L 37.796875 17.1875 
L 4.890625 17.1875 
L 4.890625 26.703125 
z
" id="DejaVuSans-52"/>
      <path d="M 11.71875 12.40625 
L 22.015625 12.40625 
L 22.015625 4 
L 14.015625 -11.625 
L 7.71875 -11.625 
L 11.71875 4 
z
" id="DejaVuSans-44"/>
      <path d="M 25.390625 72.90625 
L 33.6875 72.90625 
L 8.296875 -9.28125 
L 0 -9.28125 
z
" id="DejaVuSans-47"/>
     </defs>
     <use xlink:href="#DejaVuSans-108"/>
     <use x="27.783203" xlink:href="#DejaVuSans-105"/>
     <use x="55.566406" xlink:href="#DejaVuSans-98"/>
     <use x="119.042969" xlink:href="#DejaVuSans-120"/>
     <use x="178.222656" xlink:href="#DejaVuSans-109"/>
     <use x="275.634766" xlink:href="#DejaVuSans-108"/>
     <use x="303.417969" xlink:href="#DejaVuSans-50"/>
     <use x="367.041016" xlink:href="#DejaVuSans-45"/>
     <use x="400.5" xlink:href="#DejaVuSans-118"/>
     <use x="459.679688" xlink:href="#DejaVuSans-50"/>
     <use x="523.302734" xlink:href="#DejaVuSans-46"/>
     <use x="555.089844" xlink:href="#DejaVuSans-57"/>
     <use x="618.712891" xlink:href="#DejaVuSans-46"/>
     <use x="650.5" xlink:href="#DejaVuSans-50"/>
     <use x="714.123047" xlink:href="#DejaVuSans-32"/>
     <use x="745.910156" xlink:href="#DejaVuSans-40"/>
     <use x="784.923828" xlink:href="#DejaVuSans-50"/>
     <use x="848.546875" xlink:href="#DejaVuSans-52"/>
     <use x="912.169922" xlink:href="#DejaVuSans-104"/>
     <use x="975.548828" xlink:href="#DejaVuSans-44"/>
     <use x="1007.335938" xlink:href="#DejaVuSans-32"/>
     <use x="1039.123047" xlink:href="#DejaVuSans-54"/>
     <use x="1102.746094" xlink:href="#DejaVuSans-32"/>
     <use x="1134.533203" xlink:href="#DejaVuSans-116"/>
     <use x="1173.742188" xlink:href="#DejaVuSans-114"/>
     <use x="1214.855469" xlink:href="#DejaVuSans-105"/>
     <use x="1242.638672" xlink:href="#DejaVuSans-97"/>
     <use x="1303.917969" xlink:href="#DejaVuSans-108"/>
     <use x="1331.701172" xlink:href="#DejaVuSans-115"/>
     <use x="1383.800781" xlink:href="#DejaVuSans-47"/>
     <use x="1417.492188" xlink:href="#DejaVuSans-102"/>
     <use x="1452.697266" xlink:href="#DejaVuSans-117"/>
     <use x="1516.076172" xlink:href="#DejaVuSans-122"/>
     <use x="1568.566406" xlink:href="#DejaVuSans-122"/>
     <use x="1621.056641" xlink:href="#DejaVuSans-101"/>
     <use x="1682.580078" xlink:href="#DejaVuSans-114"/>
     <use x="1723.693359" xlink:href="#DejaVuSans-41"/>
    </g>
   </g>
  </g>
 </g>
 <defs>
  <clipPath id="pafa40776a5">
   <rect height="266.112" width="357.12" x="59.690625" y="22.318125"/>
  </clipPath>
 </defs>
</svg>
