<?xml version="1.0" encoding="utf-8" standalone="no"?>
<!DOCTYPE svg PUBLIC "-//W3C//DTD SVG 1.1//EN"
  "http://www.w3.org/Graphics/SVG/1.1/DTD/svg11.dtd">
<svg height="325.986375pt" version="1.1" viewBox="0 0 864.541562 325.986375" width="864.541562pt" xmlns="http://www.w3.org/2000/svg" xmlns:xlink="http://www.w3.org/1999/xlink">
 <metadata>
  <rdf:RDF xmlns:cc="http://creativecommons.org/ns#" xmlns:dc="http://purl.org/dc/elements/1.1/" xmlns:rdf="http://www.w3.org/1999/02/22-rdf-syntax-ns#">
   <cc:Work>
    <dc:type rdf:resource="http://purl.org/dc/dcmitype/StillImage"/>
    <dc:date>2023-02-11T05:32:32.052191</dc:date>
    <dc:format>image/svg+xml</dc:format>
    <dc:creator>
     <cc:Agent>
      <dc:title>Matplotlib v3.4.2, https://matplotlib.org/</dc:title>
     </cc:Agent>
    </dc:creator>
   </cc:Work>
  </rdf:RDF>
 </metadata>
 <defs>
  <style type="text/css">*{stroke-linecap:butt;stroke-linejoin:round;}</style>
 </defs>
 <g id="figure_1">
  <g id="patch_1">
   <path d="M 0 325.986375 
L 864.541562 325.986375 
L 864.541562 0 
L 0 0 
z
" style="fill:#ffffff;"/>
  </g>
  <g id="axes_1">
   <g id="patch_2">
    <path d="M 53.328125 288.430125 
L 767.568125 288.430125 
L 767.568125 22.318125 
L 53.328125 22.318125 
z
" style="fill:#ffffff;"/>
   </g>
   <g id="PolyCollection_1">
    <defs>
     <path d="M 85.79358 -169.538187 
L 85.79358 -60.597468 
L 256.33431 -68.371641 
L 356.094243 -75.736647 
L 426.875041 -83.817696 
L 481.776894 -91.898745 
L 526.634974 -91.489578 
L 564.56194 -91.694161 
L 597.415772 -98.854584 
L 626.394906 -112.357096 
L 652.317625 -114.505223 
L 675.767576 -116.448766 
L 697.175704 -117.573975 
L 716.869273 -117.778559 
L 735.10267 -113.236805 
L 735.10267 -289.21954 
L 735.10267 -289.21954 
L 716.869273 -288.605789 
L 697.175704 -286.969121 
L 675.767576 -276.714373 
L 652.317625 -282.365992 
L 626.394906 -279.91099 
L 597.415772 -278.581197 
L 564.56194 -282.429924 
L 526.634974 -276.842237 
L 481.776894 -278.069738 
L 426.875041 -271.420774 
L 356.094243 -225.69636 
L 256.33431 -203.752221 
L 85.79358 -169.538187 
z
" id="m04412b4517" style="stroke:#c7c7c7;stroke-opacity:0.2;"/>
    </defs>
    <g clip-path="url(#p23f0348720)">
     <use style="fill:#c7c7c7;fill-opacity:0.2;stroke:#c7c7c7;stroke-opacity:0.2;" x="0" xlink:href="#m04412b4517" y="325.986375"/>
    </g>
   </g>
   <g id="PolyCollection_2">
    <defs>
     <path d="M 85.79358 -164.423599 
L 85.79358 -65.609764 
L 256.33431 -73.077062 
L 356.094243 -68.678516 
L 426.875041 -79.316859 
L 481.776894 -88.011658 
L 526.634974 -91.080411 
L 564.56194 -96.399582 
L 597.415772 -100.695836 
L 626.394906 -100.974581 
L 652.317625 -101.309586 
L 675.767576 -107.651675 
L 697.175704 -107.651675 
L 716.869273 -112.98619 
L 735.10267 -109.799802 
L 735.10267 -272.955151 
L 735.10267 -272.955151 
L 716.869273 -272.034525 
L 697.175704 -268.556605 
L 675.767576 -268.454313 
L 652.317625 -264.77181 
L 626.394906 -264.976394 
L 597.415772 -264.976394 
L 564.56194 -258.634305 
L 526.634974 -238.175954 
L 481.776894 -226.923861 
L 426.875041 -206.976969 
L 356.094243 -203.389086 
L 256.33431 -198.179878 
L 85.79358 -164.423599 
z
" id="m06e43e4025" style="stroke:#1f77b4;stroke-opacity:0.2;"/>
    </defs>
    <g clip-path="url(#p23f0348720)">
     <use style="fill:#1f77b4;fill-opacity:0.2;stroke:#1f77b4;stroke-opacity:0.2;" x="0" xlink:href="#m06e43e4025" y="325.986375"/>
    </g>
   </g>
   <g id="PolyCollection_3">
    <defs>
     <path d="M 85.79358 -188.769036 
L 85.79358 -56.608089 
L 256.33431 -76.145814 
L 356.094243 -84.02228 
L 426.875041 -89.443743 
L 481.776894 -82.89707 
L 526.634974 -86.068115 
L 564.56194 -86.612818 
L 597.415772 -84.124571 
L 626.394906 -90.057493 
L 652.317625 -91.796453 
L 675.767576 -91.796453 
L 697.175704 -113.380013 
L 716.869273 -115.323557 
L 735.10267 -115.630432 
L 735.10267 -289.321831 
L 735.10267 -289.321831 
L 716.869273 -286.457662 
L 697.175704 -285.025578 
L 675.767576 -285.025578 
L 652.317625 -285.025578 
L 626.394906 -285.025578 
L 597.415772 -282.979743 
L 564.56194 -282.291831 
L 526.634974 -281.956825 
L 481.776894 -278.478905 
L 426.875041 -277.660571 
L 356.094243 -225.491776 
L 256.33431 -224.673442 
L 85.79358 -188.769036 
z
" id="m143afa37c1" style="stroke:#98df8a;stroke-opacity:0.2;"/>
    </defs>
    <g clip-path="url(#p23f0348720)">
     <use style="fill:#98df8a;fill-opacity:0.2;stroke:#98df8a;stroke-opacity:0.2;" x="0" xlink:href="#m143afa37c1" y="325.986375"/>
    </g>
   </g>
   <g id="PolyCollection_4">
    <defs>
     <path d="M 85.79358 -179.66507 
L 85.79358 -50.777459 
L 256.33431 -50.266001 
L 356.094243 -49.65225 
L 426.875041 -56.914965 
L 481.776894 -63.461637 
L 526.634974 -63.66622 
L 564.56194 -65.098305 
L 597.415772 -65.481899 
L 626.394906 -58.347049 
L 652.317625 -110.515844 
L 675.767576 -112.766263 
L 697.175704 -79.623734 
L 716.869273 -74.304563 
L 735.10267 -108.060842 
L 735.10267 -266.203895 
L 735.10267 -266.203895 
L 716.869273 -258.429721 
L 697.175704 -272.136817 
L 675.767576 -272.136817 
L 652.317625 -291.57225 
L 626.394906 -282.979743 
L 597.415772 -258.41182 
L 564.56194 -262.112225 
L 526.634974 -252.4968 
L 481.776894 -247.995962 
L 426.875041 -172.709231 
L 356.094243 -229.992614 
L 256.33431 -166.367142 
L 85.79358 -179.66507 
z
" id="m317d4abed9" style="stroke:#d62728;stroke-opacity:0.2;"/>
    </defs>
    <g clip-path="url(#p23f0348720)">
     <use style="fill:#d62728;fill-opacity:0.2;stroke:#d62728;stroke-opacity:0.2;" x="0" xlink:href="#m317d4abed9" y="325.986375"/>
    </g>
   </g>
   <g id="PolyCollection_5">
    <defs>
     <path d="M 85.79358 -148.15921 
L 85.79358 -56.296099 
L 256.33431 -72.872478 
L 356.094243 -77.271024 
L 426.875041 -83.101654 
L 481.776894 -89.955201 
L 526.634974 -92.410203 
L 564.56194 -92.819371 
L 597.415772 -102.332504 
L 626.394906 -103.86688 
L 652.317625 -104.378339 
L 675.767576 -105.298965 
L 697.175704 -105.298965 
L 716.869273 -112.459387 
L 735.10267 -126.268774 
L 735.10267 -262.623683 
L 735.10267 -262.623683 
L 716.869273 -248.712005 
L 697.175704 -248.200546 
L 675.767576 -243.392834 
L 652.317625 -241.040123 
L 626.394906 -240.83554 
L 597.415772 -236.334702 
L 564.56194 -234.084284 
L 526.634974 -207.386136 
L 481.776894 -188.769036 
L 426.875041 -181.813197 
L 356.094243 -164.032333 
L 256.33431 -153.381204 
L 85.79358 -148.15921 
z
" id="me2919acc60" style="stroke:#ff7f0e;stroke-opacity:0.2;"/>
    </defs>
    <g clip-path="url(#p23f0348720)">
     <use style="fill:#ff7f0e;fill-opacity:0.2;stroke:#ff7f0e;stroke-opacity:0.2;" x="0" xlink:href="#me2919acc60" y="325.986375"/>
    </g>
   </g>
   <g id="PolyCollection_6">
    <defs>
     <path d="M 85.79358 -150.409628 
L 85.79358 -62.438719 
L 256.33431 -78.498525 
L 356.094243 -81.874153 
L 426.875041 -83.408529 
L 481.776894 -83.613113 
L 526.634974 -83.595212 
L 564.56194 -83.817696 
L 597.415772 -83.919988 
L 626.394906 -83.919988 
L 652.317625 -84.840614 
L 675.767576 -84.942905 
L 697.175704 -84.942905 
L 716.869273 -84.942905 
L 735.10267 -84.942905 
L 735.10267 -249.939506 
L 735.10267 -249.939506 
L 716.869273 -249.939506 
L 697.175704 -248.814297 
L 675.767576 -247.893671 
L 652.317625 -245.131793 
L 626.394906 -220.295355 
L 597.415772 -219.661146 
L 564.56194 -218.842812 
L 526.634974 -213.707766 
L 481.776894 -213.523641 
L 426.875041 -210.250305 
L 356.094243 -224.059692 
L 256.33431 -170.970271 
L 85.79358 -150.409628 
z
" id="m98f5b69f94" style="stroke:#ff9896;stroke-opacity:0.2;"/>
    </defs>
    <g clip-path="url(#p23f0348720)">
     <use style="fill:#ff9896;fill-opacity:0.2;stroke:#ff9896;stroke-opacity:0.2;" x="0" xlink:href="#m98f5b69f94" y="325.986375"/>
    </g>
   </g>
   <g id="matplotlib.axis_1">
    <g id="xtick_1">
     <g id="line2d_1">
      <defs>
       <path d="M 0 0 
L 0 3.5 
" id="m494697ea5c" style="stroke:#000000;stroke-width:0.8;"/>
      </defs>
      <g>
       <use style="stroke:#000000;stroke-width:0.8;" x="356.094243" xlink:href="#m494697ea5c" y="288.430125"/>
      </g>
     </g>
     <g id="text_1">
      <!-- 14m -->
      <g transform="translate(344.86143 303.028562)scale(0.1 -0.1)">
       <defs>
        <path d="M 794 531 
L 1825 531 
L 1825 4091 
L 703 3866 
L 703 4441 
L 1819 4666 
L 2450 4666 
L 2450 531 
L 3481 531 
L 3481 0 
L 794 0 
L 794 531 
z
" id="DejaVuSans-31" transform="scale(0.015625)"/>
        <path d="M 2419 4116 
L 825 1625 
L 2419 1625 
L 2419 4116 
z
M 2253 4666 
L 3047 4666 
L 3047 1625 
L 3713 1625 
L 3713 1100 
L 3047 1100 
L 3047 0 
L 2419 0 
L 2419 1100 
L 313 1100 
L 313 1709 
L 2253 4666 
z
" id="DejaVuSans-34" transform="scale(0.015625)"/>
        <path d="M 3328 2828 
Q 3544 3216 3844 3400 
Q 4144 3584 4550 3584 
Q 5097 3584 5394 3201 
Q 5691 2819 5691 2113 
L 5691 0 
L 5113 0 
L 5113 2094 
Q 5113 2597 4934 2840 
Q 4756 3084 4391 3084 
Q 3944 3084 3684 2787 
Q 3425 2491 3425 1978 
L 3425 0 
L 2847 0 
L 2847 2094 
Q 2847 2600 2669 2842 
Q 2491 3084 2119 3084 
Q 1678 3084 1418 2786 
Q 1159 2488 1159 1978 
L 1159 0 
L 581 0 
L 581 3500 
L 1159 3500 
L 1159 2956 
Q 1356 3278 1631 3431 
Q 1906 3584 2284 3584 
Q 2666 3584 2933 3390 
Q 3200 3197 3328 2828 
z
" id="DejaVuSans-6d" transform="scale(0.015625)"/>
       </defs>
       <use xlink:href="#DejaVuSans-31"/>
       <use x="63.623047" xlink:href="#DejaVuSans-34"/>
       <use x="127.246094" xlink:href="#DejaVuSans-6d"/>
      </g>
     </g>
    </g>
    <g id="xtick_2">
     <g id="line2d_2">
      <g>
       <use style="stroke:#000000;stroke-width:0.8;" x="390.554879" xlink:href="#m494697ea5c" y="288.430125"/>
      </g>
     </g>
     <g id="text_2">
      <!-- 17m -->
      <g transform="translate(379.322067 303.028562)scale(0.1 -0.1)">
       <defs>
        <path d="M 525 4666 
L 3525 4666 
L 3525 4397 
L 1831 0 
L 1172 0 
L 2766 4134 
L 525 4134 
L 525 4666 
z
" id="DejaVuSans-37" transform="scale(0.015625)"/>
       </defs>
       <use xlink:href="#DejaVuSans-31"/>
       <use x="63.623047" xlink:href="#DejaVuSans-37"/>
       <use x="127.246094" xlink:href="#DejaVuSans-6d"/>
      </g>
     </g>
    </g>
    <g id="xtick_3">
     <g id="line2d_3">
      <g>
       <use style="stroke:#000000;stroke-width:0.8;" x="425.015516" xlink:href="#m494697ea5c" y="288.430125"/>
      </g>
     </g>
     <g id="text_3">
      <!-- 19m -->
      <g transform="translate(413.782703 303.028562)scale(0.1 -0.1)">
       <defs>
        <path d="M 703 97 
L 703 672 
Q 941 559 1184 500 
Q 1428 441 1663 441 
Q 2288 441 2617 861 
Q 2947 1281 2994 2138 
Q 2813 1869 2534 1725 
Q 2256 1581 1919 1581 
Q 1219 1581 811 2004 
Q 403 2428 403 3163 
Q 403 3881 828 4315 
Q 1253 4750 1959 4750 
Q 2769 4750 3195 4129 
Q 3622 3509 3622 2328 
Q 3622 1225 3098 567 
Q 2575 -91 1691 -91 
Q 1453 -91 1209 -44 
Q 966 3 703 97 
z
M 1959 2075 
Q 2384 2075 2632 2365 
Q 2881 2656 2881 3163 
Q 2881 3666 2632 3958 
Q 2384 4250 1959 4250 
Q 1534 4250 1286 3958 
Q 1038 3666 1038 3163 
Q 1038 2656 1286 2365 
Q 1534 2075 1959 2075 
z
" id="DejaVuSans-39" transform="scale(0.015625)"/>
       </defs>
       <use xlink:href="#DejaVuSans-31"/>
       <use x="63.623047" xlink:href="#DejaVuSans-39"/>
       <use x="127.246094" xlink:href="#DejaVuSans-6d"/>
      </g>
     </g>
    </g>
    <g id="xtick_4">
     <g id="line2d_4">
      <g>
       <use style="stroke:#000000;stroke-width:0.8;" x="459.476152" xlink:href="#m494697ea5c" y="288.430125"/>
      </g>
     </g>
     <g id="text_4">
      <!-- 22m -->
      <g transform="translate(448.24334 303.028562)scale(0.1 -0.1)">
       <defs>
        <path d="M 1228 531 
L 3431 531 
L 3431 0 
L 469 0 
L 469 531 
Q 828 903 1448 1529 
Q 2069 2156 2228 2338 
Q 2531 2678 2651 2914 
Q 2772 3150 2772 3378 
Q 2772 3750 2511 3984 
Q 2250 4219 1831 4219 
Q 1534 4219 1204 4116 
Q 875 4013 500 3803 
L 500 4441 
Q 881 4594 1212 4672 
Q 1544 4750 1819 4750 
Q 2544 4750 2975 4387 
Q 3406 4025 3406 3419 
Q 3406 3131 3298 2873 
Q 3191 2616 2906 2266 
Q 2828 2175 2409 1742 
Q 1991 1309 1228 531 
z
" id="DejaVuSans-32" transform="scale(0.015625)"/>
       </defs>
       <use xlink:href="#DejaVuSans-32"/>
       <use x="63.623047" xlink:href="#DejaVuSans-32"/>
       <use x="127.246094" xlink:href="#DejaVuSans-6d"/>
      </g>
     </g>
    </g>
    <g id="xtick_5">
     <g id="line2d_5">
      <g>
       <use style="stroke:#000000;stroke-width:0.8;" x="493.936789" xlink:href="#m494697ea5c" y="288.430125"/>
      </g>
     </g>
     <g id="text_5">
      <!-- 26m -->
      <g transform="translate(482.703976 303.028562)scale(0.1 -0.1)">
       <defs>
        <path d="M 2113 2584 
Q 1688 2584 1439 2293 
Q 1191 2003 1191 1497 
Q 1191 994 1439 701 
Q 1688 409 2113 409 
Q 2538 409 2786 701 
Q 3034 994 3034 1497 
Q 3034 2003 2786 2293 
Q 2538 2584 2113 2584 
z
M 3366 4563 
L 3366 3988 
Q 3128 4100 2886 4159 
Q 2644 4219 2406 4219 
Q 1781 4219 1451 3797 
Q 1122 3375 1075 2522 
Q 1259 2794 1537 2939 
Q 1816 3084 2150 3084 
Q 2853 3084 3261 2657 
Q 3669 2231 3669 1497 
Q 3669 778 3244 343 
Q 2819 -91 2113 -91 
Q 1303 -91 875 529 
Q 447 1150 447 2328 
Q 447 3434 972 4092 
Q 1497 4750 2381 4750 
Q 2619 4750 2861 4703 
Q 3103 4656 3366 4563 
z
" id="DejaVuSans-36" transform="scale(0.015625)"/>
       </defs>
       <use xlink:href="#DejaVuSans-32"/>
       <use x="63.623047" xlink:href="#DejaVuSans-36"/>
       <use x="127.246094" xlink:href="#DejaVuSans-6d"/>
      </g>
     </g>
    </g>
    <g id="xtick_6">
     <g id="line2d_6">
      <g>
       <use style="stroke:#000000;stroke-width:0.8;" x="528.397425" xlink:href="#m494697ea5c" y="288.430125"/>
      </g>
     </g>
     <g id="text_6">
      <!-- 30m -->
      <g transform="translate(517.164613 303.028562)scale(0.1 -0.1)">
       <defs>
        <path d="M 2597 2516 
Q 3050 2419 3304 2112 
Q 3559 1806 3559 1356 
Q 3559 666 3084 287 
Q 2609 -91 1734 -91 
Q 1441 -91 1130 -33 
Q 819 25 488 141 
L 488 750 
Q 750 597 1062 519 
Q 1375 441 1716 441 
Q 2309 441 2620 675 
Q 2931 909 2931 1356 
Q 2931 1769 2642 2001 
Q 2353 2234 1838 2234 
L 1294 2234 
L 1294 2753 
L 1863 2753 
Q 2328 2753 2575 2939 
Q 2822 3125 2822 3475 
Q 2822 3834 2567 4026 
Q 2313 4219 1838 4219 
Q 1578 4219 1281 4162 
Q 984 4106 628 3988 
L 628 4550 
Q 988 4650 1302 4700 
Q 1616 4750 1894 4750 
Q 2613 4750 3031 4423 
Q 3450 4097 3450 3541 
Q 3450 3153 3228 2886 
Q 3006 2619 2597 2516 
z
" id="DejaVuSans-33" transform="scale(0.015625)"/>
        <path d="M 2034 4250 
Q 1547 4250 1301 3770 
Q 1056 3291 1056 2328 
Q 1056 1369 1301 889 
Q 1547 409 2034 409 
Q 2525 409 2770 889 
Q 3016 1369 3016 2328 
Q 3016 3291 2770 3770 
Q 2525 4250 2034 4250 
z
M 2034 4750 
Q 2819 4750 3233 4129 
Q 3647 3509 3647 2328 
Q 3647 1150 3233 529 
Q 2819 -91 2034 -91 
Q 1250 -91 836 529 
Q 422 1150 422 2328 
Q 422 3509 836 4129 
Q 1250 4750 2034 4750 
z
" id="DejaVuSans-30" transform="scale(0.015625)"/>
       </defs>
       <use xlink:href="#DejaVuSans-33"/>
       <use x="63.623047" xlink:href="#DejaVuSans-30"/>
       <use x="127.246094" xlink:href="#DejaVuSans-6d"/>
      </g>
     </g>
    </g>
    <g id="xtick_7">
     <g id="line2d_7">
      <g>
       <use style="stroke:#000000;stroke-width:0.8;" x="562.858062" xlink:href="#m494697ea5c" y="288.430125"/>
      </g>
     </g>
     <g id="text_7">
      <!-- 34m -->
      <g transform="translate(551.625249 303.028562)scale(0.1 -0.1)">
       <use xlink:href="#DejaVuSans-33"/>
       <use x="63.623047" xlink:href="#DejaVuSans-34"/>
       <use x="127.246094" xlink:href="#DejaVuSans-6d"/>
      </g>
     </g>
    </g>
    <g id="xtick_8">
     <g id="line2d_8">
      <g>
       <use style="stroke:#000000;stroke-width:0.8;" x="597.318698" xlink:href="#m494697ea5c" y="288.430125"/>
      </g>
     </g>
     <g id="text_8">
      <!-- 39m -->
      <g transform="translate(586.085886 303.028562)scale(0.1 -0.1)">
       <use xlink:href="#DejaVuSans-33"/>
       <use x="63.623047" xlink:href="#DejaVuSans-39"/>
       <use x="127.246094" xlink:href="#DejaVuSans-6d"/>
      </g>
     </g>
    </g>
    <g id="xtick_9">
     <g id="line2d_9">
      <g>
       <use style="stroke:#000000;stroke-width:0.8;" x="631.779335" xlink:href="#m494697ea5c" y="288.430125"/>
      </g>
     </g>
     <g id="text_9">
      <!-- 45m -->
      <g transform="translate(620.546522 303.028562)scale(0.1 -0.1)">
       <defs>
        <path d="M 691 4666 
L 3169 4666 
L 3169 4134 
L 1269 4134 
L 1269 2991 
Q 1406 3038 1543 3061 
Q 1681 3084 1819 3084 
Q 2600 3084 3056 2656 
Q 3513 2228 3513 1497 
Q 3513 744 3044 326 
Q 2575 -91 1722 -91 
Q 1428 -91 1123 -41 
Q 819 9 494 109 
L 494 744 
Q 775 591 1075 516 
Q 1375 441 1709 441 
Q 2250 441 2565 725 
Q 2881 1009 2881 1497 
Q 2881 1984 2565 2268 
Q 2250 2553 1709 2553 
Q 1456 2553 1204 2497 
Q 953 2441 691 2322 
L 691 4666 
z
" id="DejaVuSans-35" transform="scale(0.015625)"/>
       </defs>
       <use xlink:href="#DejaVuSans-34"/>
       <use x="63.623047" xlink:href="#DejaVuSans-35"/>
       <use x="127.246094" xlink:href="#DejaVuSans-6d"/>
      </g>
     </g>
    </g>
    <g id="xtick_10">
     <g id="line2d_10">
      <g>
       <use style="stroke:#000000;stroke-width:0.8;" x="666.239971" xlink:href="#m494697ea5c" y="288.430125"/>
      </g>
     </g>
     <g id="text_10">
      <!-- 52m -->
      <g transform="translate(655.007159 303.028562)scale(0.1 -0.1)">
       <use xlink:href="#DejaVuSans-35"/>
       <use x="63.623047" xlink:href="#DejaVuSans-32"/>
       <use x="127.246094" xlink:href="#DejaVuSans-6d"/>
      </g>
     </g>
    </g>
    <g id="xtick_11">
     <g id="line2d_11">
      <g>
       <use style="stroke:#000000;stroke-width:0.8;" x="700.700608" xlink:href="#m494697ea5c" y="288.430125"/>
      </g>
     </g>
     <g id="text_11">
      <!-- 1h -->
      <g transform="translate(694.350608 303.028562)scale(0.1 -0.1)">
       <defs>
        <path d="M 3513 2113 
L 3513 0 
L 2938 0 
L 2938 2094 
Q 2938 2591 2744 2837 
Q 2550 3084 2163 3084 
Q 1697 3084 1428 2787 
Q 1159 2491 1159 1978 
L 1159 0 
L 581 0 
L 581 4863 
L 1159 4863 
L 1159 2956 
Q 1366 3272 1645 3428 
Q 1925 3584 2291 3584 
Q 2894 3584 3203 3211 
Q 3513 2838 3513 2113 
z
" id="DejaVuSans-68" transform="scale(0.015625)"/>
       </defs>
       <use xlink:href="#DejaVuSans-31"/>
       <use x="63.623047" xlink:href="#DejaVuSans-68"/>
      </g>
     </g>
    </g>
    <g id="xtick_12">
     <g id="line2d_12">
      <g>
       <use style="stroke:#000000;stroke-width:0.8;" x="735.161244" xlink:href="#m494697ea5c" y="288.430125"/>
      </g>
     </g>
     <g id="text_12">
      <!-- 1h:10m -->
      <g transform="translate(715.894057 303.028562)scale(0.1 -0.1)">
       <defs>
        <path d="M 750 794 
L 1409 794 
L 1409 0 
L 750 0 
L 750 794 
z
M 750 3309 
L 1409 3309 
L 1409 2516 
L 750 2516 
L 750 3309 
z
" id="DejaVuSans-3a" transform="scale(0.015625)"/>
       </defs>
       <use xlink:href="#DejaVuSans-31"/>
       <use x="63.623047" xlink:href="#DejaVuSans-68"/>
       <use x="127.001953" xlink:href="#DejaVuSans-3a"/>
       <use x="160.693359" xlink:href="#DejaVuSans-31"/>
       <use x="224.316406" xlink:href="#DejaVuSans-30"/>
       <use x="287.939453" xlink:href="#DejaVuSans-6d"/>
      </g>
     </g>
    </g>
    <g id="xtick_13">
     <g id="line2d_13">
      <defs>
       <path d="M 0 0 
L 0 2 
" id="mc7e19e475a" style="stroke:#000000;stroke-width:0.6;"/>
      </defs>
      <g>
       <use style="stroke:#000000;stroke-width:0.6;" x="85.79358" xlink:href="#mc7e19e475a" y="288.430125"/>
      </g>
     </g>
    </g>
    <g id="xtick_14">
     <g id="line2d_14">
      <g>
       <use style="stroke:#000000;stroke-width:0.6;" x="156.574378" xlink:href="#mc7e19e475a" y="288.430125"/>
      </g>
     </g>
    </g>
    <g id="xtick_15">
     <g id="line2d_15">
      <g>
       <use style="stroke:#000000;stroke-width:0.6;" x="211.476231" xlink:href="#mc7e19e475a" y="288.430125"/>
      </g>
     </g>
    </g>
    <g id="xtick_16">
     <g id="line2d_16">
      <g>
       <use style="stroke:#000000;stroke-width:0.6;" x="256.33431" xlink:href="#mc7e19e475a" y="288.430125"/>
      </g>
     </g>
    </g>
    <g id="xtick_17">
     <g id="line2d_17">
      <g>
       <use style="stroke:#000000;stroke-width:0.6;" x="294.261276" xlink:href="#mc7e19e475a" y="288.430125"/>
      </g>
     </g>
    </g>
    <g id="xtick_18">
     <g id="line2d_18">
      <g>
       <use style="stroke:#000000;stroke-width:0.6;" x="327.115109" xlink:href="#mc7e19e475a" y="288.430125"/>
      </g>
     </g>
    </g>
    <g id="xtick_19">
     <g id="line2d_19">
      <g>
       <use style="stroke:#000000;stroke-width:0.6;" x="552.557692" xlink:href="#mc7e19e475a" y="288.430125"/>
      </g>
     </g>
    </g>
    <g id="xtick_20">
     <g id="line2d_20">
      <g>
       <use style="stroke:#000000;stroke-width:0.6;" x="652.317625" xlink:href="#mc7e19e475a" y="288.430125"/>
      </g>
     </g>
    </g>
    <g id="xtick_21">
     <g id="line2d_21">
      <g>
       <use style="stroke:#000000;stroke-width:0.6;" x="723.098423" xlink:href="#mc7e19e475a" y="288.430125"/>
      </g>
     </g>
    </g>
    <g id="text_13">
     <!-- Time (hour:minute) -->
     <g transform="translate(362.041094 316.706687)scale(0.1 -0.1)">
      <defs>
       <path d="M -19 4666 
L 3928 4666 
L 3928 4134 
L 2272 4134 
L 2272 0 
L 1638 0 
L 1638 4134 
L -19 4134 
L -19 4666 
z
" id="DejaVuSans-54" transform="scale(0.015625)"/>
       <path d="M 603 3500 
L 1178 3500 
L 1178 0 
L 603 0 
L 603 3500 
z
M 603 4863 
L 1178 4863 
L 1178 4134 
L 603 4134 
L 603 4863 
z
" id="DejaVuSans-69" transform="scale(0.015625)"/>
       <path d="M 3597 1894 
L 3597 1613 
L 953 1613 
Q 991 1019 1311 708 
Q 1631 397 2203 397 
Q 2534 397 2845 478 
Q 3156 559 3463 722 
L 3463 178 
Q 3153 47 2828 -22 
Q 2503 -91 2169 -91 
Q 1331 -91 842 396 
Q 353 884 353 1716 
Q 353 2575 817 3079 
Q 1281 3584 2069 3584 
Q 2775 3584 3186 3129 
Q 3597 2675 3597 1894 
z
M 3022 2063 
Q 3016 2534 2758 2815 
Q 2500 3097 2075 3097 
Q 1594 3097 1305 2825 
Q 1016 2553 972 2059 
L 3022 2063 
z
" id="DejaVuSans-65" transform="scale(0.015625)"/>
       <path id="DejaVuSans-20" transform="scale(0.015625)"/>
       <path d="M 1984 4856 
Q 1566 4138 1362 3434 
Q 1159 2731 1159 2009 
Q 1159 1288 1364 580 
Q 1569 -128 1984 -844 
L 1484 -844 
Q 1016 -109 783 600 
Q 550 1309 550 2009 
Q 550 2706 781 3412 
Q 1013 4119 1484 4856 
L 1984 4856 
z
" id="DejaVuSans-28" transform="scale(0.015625)"/>
       <path d="M 1959 3097 
Q 1497 3097 1228 2736 
Q 959 2375 959 1747 
Q 959 1119 1226 758 
Q 1494 397 1959 397 
Q 2419 397 2687 759 
Q 2956 1122 2956 1747 
Q 2956 2369 2687 2733 
Q 2419 3097 1959 3097 
z
M 1959 3584 
Q 2709 3584 3137 3096 
Q 3566 2609 3566 1747 
Q 3566 888 3137 398 
Q 2709 -91 1959 -91 
Q 1206 -91 779 398 
Q 353 888 353 1747 
Q 353 2609 779 3096 
Q 1206 3584 1959 3584 
z
" id="DejaVuSans-6f" transform="scale(0.015625)"/>
       <path d="M 544 1381 
L 544 3500 
L 1119 3500 
L 1119 1403 
Q 1119 906 1312 657 
Q 1506 409 1894 409 
Q 2359 409 2629 706 
Q 2900 1003 2900 1516 
L 2900 3500 
L 3475 3500 
L 3475 0 
L 2900 0 
L 2900 538 
Q 2691 219 2414 64 
Q 2138 -91 1772 -91 
Q 1169 -91 856 284 
Q 544 659 544 1381 
z
M 1991 3584 
L 1991 3584 
z
" id="DejaVuSans-75" transform="scale(0.015625)"/>
       <path d="M 2631 2963 
Q 2534 3019 2420 3045 
Q 2306 3072 2169 3072 
Q 1681 3072 1420 2755 
Q 1159 2438 1159 1844 
L 1159 0 
L 581 0 
L 581 3500 
L 1159 3500 
L 1159 2956 
Q 1341 3275 1631 3429 
Q 1922 3584 2338 3584 
Q 2397 3584 2469 3576 
Q 2541 3569 2628 3553 
L 2631 2963 
z
" id="DejaVuSans-72" transform="scale(0.015625)"/>
       <path d="M 3513 2113 
L 3513 0 
L 2938 0 
L 2938 2094 
Q 2938 2591 2744 2837 
Q 2550 3084 2163 3084 
Q 1697 3084 1428 2787 
Q 1159 2491 1159 1978 
L 1159 0 
L 581 0 
L 581 3500 
L 1159 3500 
L 1159 2956 
Q 1366 3272 1645 3428 
Q 1925 3584 2291 3584 
Q 2894 3584 3203 3211 
Q 3513 2838 3513 2113 
z
" id="DejaVuSans-6e" transform="scale(0.015625)"/>
       <path d="M 1172 4494 
L 1172 3500 
L 2356 3500 
L 2356 3053 
L 1172 3053 
L 1172 1153 
Q 1172 725 1289 603 
Q 1406 481 1766 481 
L 2356 481 
L 2356 0 
L 1766 0 
Q 1100 0 847 248 
Q 594 497 594 1153 
L 594 3053 
L 172 3053 
L 172 3500 
L 594 3500 
L 594 4494 
L 1172 4494 
z
" id="DejaVuSans-74" transform="scale(0.015625)"/>
       <path d="M 513 4856 
L 1013 4856 
Q 1481 4119 1714 3412 
Q 1947 2706 1947 2009 
Q 1947 1309 1714 600 
Q 1481 -109 1013 -844 
L 513 -844 
Q 928 -128 1133 580 
Q 1338 1288 1338 2009 
Q 1338 2731 1133 3434 
Q 928 4138 513 4856 
z
" id="DejaVuSans-29" transform="scale(0.015625)"/>
      </defs>
      <use xlink:href="#DejaVuSans-54"/>
      <use x="57.958984" xlink:href="#DejaVuSans-69"/>
      <use x="85.742188" xlink:href="#DejaVuSans-6d"/>
      <use x="183.154297" xlink:href="#DejaVuSans-65"/>
      <use x="244.677734" xlink:href="#DejaVuSans-20"/>
      <use x="276.464844" xlink:href="#DejaVuSans-28"/>
      <use x="315.478516" xlink:href="#DejaVuSans-68"/>
      <use x="378.857422" xlink:href="#DejaVuSans-6f"/>
      <use x="440.039062" xlink:href="#DejaVuSans-75"/>
      <use x="503.417969" xlink:href="#DejaVuSans-72"/>
      <use x="542.78125" xlink:href="#DejaVuSans-3a"/>
      <use x="576.472656" xlink:href="#DejaVuSans-6d"/>
      <use x="673.884766" xlink:href="#DejaVuSans-69"/>
      <use x="701.667969" xlink:href="#DejaVuSans-6e"/>
      <use x="765.046875" xlink:href="#DejaVuSans-75"/>
      <use x="828.425781" xlink:href="#DejaVuSans-74"/>
      <use x="867.634766" xlink:href="#DejaVuSans-65"/>
      <use x="929.158203" xlink:href="#DejaVuSans-29"/>
     </g>
    </g>
   </g>
   <g id="matplotlib.axis_2">
    <g id="ytick_1">
     <g id="line2d_22">
      <defs>
       <path d="M 0 0 
L -3.5 0 
" id="mb3f8286dbb" style="stroke:#000000;stroke-width:0.8;"/>
      </defs>
      <g>
       <use style="stroke:#000000;stroke-width:0.8;" x="53.328125" xlink:href="#mb3f8286dbb" y="257.41015"/>
      </g>
     </g>
     <g id="text_14">
      <!-- 2200 -->
      <g transform="translate(20.878125 261.209369)scale(0.1 -0.1)">
       <use xlink:href="#DejaVuSans-32"/>
       <use x="63.623047" xlink:href="#DejaVuSans-32"/>
       <use x="127.246094" xlink:href="#DejaVuSans-30"/>
       <use x="190.869141" xlink:href="#DejaVuSans-30"/>
      </g>
     </g>
    </g>
    <g id="ytick_2">
     <g id="line2d_23">
      <g>
       <use style="stroke:#000000;stroke-width:0.8;" x="53.328125" xlink:href="#mb3f8286dbb" y="216.493448"/>
      </g>
     </g>
     <g id="text_15">
      <!-- 2400 -->
      <g transform="translate(20.878125 220.292667)scale(0.1 -0.1)">
       <use xlink:href="#DejaVuSans-32"/>
       <use x="63.623047" xlink:href="#DejaVuSans-34"/>
       <use x="127.246094" xlink:href="#DejaVuSans-30"/>
       <use x="190.869141" xlink:href="#DejaVuSans-30"/>
      </g>
     </g>
    </g>
    <g id="ytick_3">
     <g id="line2d_24">
      <g>
       <use style="stroke:#000000;stroke-width:0.8;" x="53.328125" xlink:href="#mb3f8286dbb" y="175.576747"/>
      </g>
     </g>
     <g id="text_16">
      <!-- 2600 -->
      <g transform="translate(20.878125 179.375965)scale(0.1 -0.1)">
       <use xlink:href="#DejaVuSans-32"/>
       <use x="63.623047" xlink:href="#DejaVuSans-36"/>
       <use x="127.246094" xlink:href="#DejaVuSans-30"/>
       <use x="190.869141" xlink:href="#DejaVuSans-30"/>
      </g>
     </g>
    </g>
    <g id="ytick_4">
     <g id="line2d_25">
      <g>
       <use style="stroke:#000000;stroke-width:0.8;" x="53.328125" xlink:href="#mb3f8286dbb" y="134.660045"/>
      </g>
     </g>
     <g id="text_17">
      <!-- 2800 -->
      <g transform="translate(20.878125 138.459263)scale(0.1 -0.1)">
       <defs>
        <path d="M 2034 2216 
Q 1584 2216 1326 1975 
Q 1069 1734 1069 1313 
Q 1069 891 1326 650 
Q 1584 409 2034 409 
Q 2484 409 2743 651 
Q 3003 894 3003 1313 
Q 3003 1734 2745 1975 
Q 2488 2216 2034 2216 
z
M 1403 2484 
Q 997 2584 770 2862 
Q 544 3141 544 3541 
Q 544 4100 942 4425 
Q 1341 4750 2034 4750 
Q 2731 4750 3128 4425 
Q 3525 4100 3525 3541 
Q 3525 3141 3298 2862 
Q 3072 2584 2669 2484 
Q 3125 2378 3379 2068 
Q 3634 1759 3634 1313 
Q 3634 634 3220 271 
Q 2806 -91 2034 -91 
Q 1263 -91 848 271 
Q 434 634 434 1313 
Q 434 1759 690 2068 
Q 947 2378 1403 2484 
z
M 1172 3481 
Q 1172 3119 1398 2916 
Q 1625 2713 2034 2713 
Q 2441 2713 2670 2916 
Q 2900 3119 2900 3481 
Q 2900 3844 2670 4047 
Q 2441 4250 2034 4250 
Q 1625 4250 1398 4047 
Q 1172 3844 1172 3481 
z
" id="DejaVuSans-38" transform="scale(0.015625)"/>
       </defs>
       <use xlink:href="#DejaVuSans-32"/>
       <use x="63.623047" xlink:href="#DejaVuSans-38"/>
       <use x="127.246094" xlink:href="#DejaVuSans-30"/>
       <use x="190.869141" xlink:href="#DejaVuSans-30"/>
      </g>
     </g>
    </g>
    <g id="ytick_5">
     <g id="line2d_26">
      <g>
       <use style="stroke:#000000;stroke-width:0.8;" x="53.328125" xlink:href="#mb3f8286dbb" y="93.743343"/>
      </g>
     </g>
     <g id="text_18">
      <!-- 3000 -->
      <g transform="translate(20.878125 97.542562)scale(0.1 -0.1)">
       <use xlink:href="#DejaVuSans-33"/>
       <use x="63.623047" xlink:href="#DejaVuSans-30"/>
       <use x="127.246094" xlink:href="#DejaVuSans-30"/>
       <use x="190.869141" xlink:href="#DejaVuSans-30"/>
      </g>
     </g>
    </g>
    <g id="ytick_6">
     <g id="line2d_27">
      <g>
       <use style="stroke:#000000;stroke-width:0.8;" x="53.328125" xlink:href="#mb3f8286dbb" y="52.826641"/>
      </g>
     </g>
     <g id="text_19">
      <!-- 3200 -->
      <g transform="translate(20.878125 56.62586)scale(0.1 -0.1)">
       <use xlink:href="#DejaVuSans-33"/>
       <use x="63.623047" xlink:href="#DejaVuSans-32"/>
       <use x="127.246094" xlink:href="#DejaVuSans-30"/>
       <use x="190.869141" xlink:href="#DejaVuSans-30"/>
      </g>
     </g>
    </g>
    <g id="text_20">
     <!-- Code branch coverage -->
     <g transform="translate(14.798438 211.949125)rotate(-90)scale(0.1 -0.1)">
      <defs>
       <path d="M 4122 4306 
L 4122 3641 
Q 3803 3938 3442 4084 
Q 3081 4231 2675 4231 
Q 1875 4231 1450 3742 
Q 1025 3253 1025 2328 
Q 1025 1406 1450 917 
Q 1875 428 2675 428 
Q 3081 428 3442 575 
Q 3803 722 4122 1019 
L 4122 359 
Q 3791 134 3420 21 
Q 3050 -91 2638 -91 
Q 1578 -91 968 557 
Q 359 1206 359 2328 
Q 359 3453 968 4101 
Q 1578 4750 2638 4750 
Q 3056 4750 3426 4639 
Q 3797 4528 4122 4306 
z
" id="DejaVuSans-43" transform="scale(0.015625)"/>
       <path d="M 2906 2969 
L 2906 4863 
L 3481 4863 
L 3481 0 
L 2906 0 
L 2906 525 
Q 2725 213 2448 61 
Q 2172 -91 1784 -91 
Q 1150 -91 751 415 
Q 353 922 353 1747 
Q 353 2572 751 3078 
Q 1150 3584 1784 3584 
Q 2172 3584 2448 3432 
Q 2725 3281 2906 2969 
z
M 947 1747 
Q 947 1113 1208 752 
Q 1469 391 1925 391 
Q 2381 391 2643 752 
Q 2906 1113 2906 1747 
Q 2906 2381 2643 2742 
Q 2381 3103 1925 3103 
Q 1469 3103 1208 2742 
Q 947 2381 947 1747 
z
" id="DejaVuSans-64" transform="scale(0.015625)"/>
       <path d="M 3116 1747 
Q 3116 2381 2855 2742 
Q 2594 3103 2138 3103 
Q 1681 3103 1420 2742 
Q 1159 2381 1159 1747 
Q 1159 1113 1420 752 
Q 1681 391 2138 391 
Q 2594 391 2855 752 
Q 3116 1113 3116 1747 
z
M 1159 2969 
Q 1341 3281 1617 3432 
Q 1894 3584 2278 3584 
Q 2916 3584 3314 3078 
Q 3713 2572 3713 1747 
Q 3713 922 3314 415 
Q 2916 -91 2278 -91 
Q 1894 -91 1617 61 
Q 1341 213 1159 525 
L 1159 0 
L 581 0 
L 581 4863 
L 1159 4863 
L 1159 2969 
z
" id="DejaVuSans-62" transform="scale(0.015625)"/>
       <path d="M 2194 1759 
Q 1497 1759 1228 1600 
Q 959 1441 959 1056 
Q 959 750 1161 570 
Q 1363 391 1709 391 
Q 2188 391 2477 730 
Q 2766 1069 2766 1631 
L 2766 1759 
L 2194 1759 
z
M 3341 1997 
L 3341 0 
L 2766 0 
L 2766 531 
Q 2569 213 2275 61 
Q 1981 -91 1556 -91 
Q 1019 -91 701 211 
Q 384 513 384 1019 
Q 384 1609 779 1909 
Q 1175 2209 1959 2209 
L 2766 2209 
L 2766 2266 
Q 2766 2663 2505 2880 
Q 2244 3097 1772 3097 
Q 1472 3097 1187 3025 
Q 903 2953 641 2809 
L 641 3341 
Q 956 3463 1253 3523 
Q 1550 3584 1831 3584 
Q 2591 3584 2966 3190 
Q 3341 2797 3341 1997 
z
" id="DejaVuSans-61" transform="scale(0.015625)"/>
       <path d="M 3122 3366 
L 3122 2828 
Q 2878 2963 2633 3030 
Q 2388 3097 2138 3097 
Q 1578 3097 1268 2742 
Q 959 2388 959 1747 
Q 959 1106 1268 751 
Q 1578 397 2138 397 
Q 2388 397 2633 464 
Q 2878 531 3122 666 
L 3122 134 
Q 2881 22 2623 -34 
Q 2366 -91 2075 -91 
Q 1284 -91 818 406 
Q 353 903 353 1747 
Q 353 2603 823 3093 
Q 1294 3584 2113 3584 
Q 2378 3584 2631 3529 
Q 2884 3475 3122 3366 
z
" id="DejaVuSans-63" transform="scale(0.015625)"/>
       <path d="M 191 3500 
L 800 3500 
L 1894 563 
L 2988 3500 
L 3597 3500 
L 2284 0 
L 1503 0 
L 191 3500 
z
" id="DejaVuSans-76" transform="scale(0.015625)"/>
       <path d="M 2906 1791 
Q 2906 2416 2648 2759 
Q 2391 3103 1925 3103 
Q 1463 3103 1205 2759 
Q 947 2416 947 1791 
Q 947 1169 1205 825 
Q 1463 481 1925 481 
Q 2391 481 2648 825 
Q 2906 1169 2906 1791 
z
M 3481 434 
Q 3481 -459 3084 -895 
Q 2688 -1331 1869 -1331 
Q 1566 -1331 1297 -1286 
Q 1028 -1241 775 -1147 
L 775 -588 
Q 1028 -725 1275 -790 
Q 1522 -856 1778 -856 
Q 2344 -856 2625 -561 
Q 2906 -266 2906 331 
L 2906 616 
Q 2728 306 2450 153 
Q 2172 0 1784 0 
Q 1141 0 747 490 
Q 353 981 353 1791 
Q 353 2603 747 3093 
Q 1141 3584 1784 3584 
Q 2172 3584 2450 3431 
Q 2728 3278 2906 2969 
L 2906 3500 
L 3481 3500 
L 3481 434 
z
" id="DejaVuSans-67" transform="scale(0.015625)"/>
      </defs>
      <use xlink:href="#DejaVuSans-43"/>
      <use x="69.824219" xlink:href="#DejaVuSans-6f"/>
      <use x="131.005859" xlink:href="#DejaVuSans-64"/>
      <use x="194.482422" xlink:href="#DejaVuSans-65"/>
      <use x="256.005859" xlink:href="#DejaVuSans-20"/>
      <use x="287.792969" xlink:href="#DejaVuSans-62"/>
      <use x="351.269531" xlink:href="#DejaVuSans-72"/>
      <use x="392.382812" xlink:href="#DejaVuSans-61"/>
      <use x="453.662109" xlink:href="#DejaVuSans-6e"/>
      <use x="517.041016" xlink:href="#DejaVuSans-63"/>
      <use x="572.021484" xlink:href="#DejaVuSans-68"/>
      <use x="635.400391" xlink:href="#DejaVuSans-20"/>
      <use x="667.1875" xlink:href="#DejaVuSans-63"/>
      <use x="722.167969" xlink:href="#DejaVuSans-6f"/>
      <use x="783.349609" xlink:href="#DejaVuSans-76"/>
      <use x="842.529297" xlink:href="#DejaVuSans-65"/>
      <use x="904.052734" xlink:href="#DejaVuSans-72"/>
      <use x="945.166016" xlink:href="#DejaVuSans-61"/>
      <use x="1006.445312" xlink:href="#DejaVuSans-67"/>
      <use x="1069.921875" xlink:href="#DejaVuSans-65"/>
     </g>
    </g>
   </g>
   <g id="line2d_28">
    <path clip-path="url(#p23f0348720)" d="M 85.79358 206.264273 
L 256.33431 196.75114 
L 356.094243 174.962996 
L 426.875041 171.178201 
L 481.776894 165.85903 
L 526.634974 159.823816 
L 564.56194 158.084857 
L 597.415772 156.652772 
L 626.394906 152.45881 
L 652.317625 151.845059 
L 675.767576 149.594641 
L 697.175704 148.878599 
L 716.869273 148.674015 
L 735.10267 143.15026 
" style="fill:none;stroke:#c7c7c7;stroke-linecap:square;stroke-width:1.5;"/>
    <defs>
     <path d="M -3 -0 
L 3 3 
L 3 -3 
z
" id="m58dd76dab5" style="stroke:#ffffff;stroke-linejoin:miter;stroke-width:0.75;"/>
    </defs>
    <g clip-path="url(#p23f0348720)">
     <use style="fill:#c7c7c7;stroke:#ffffff;stroke-linejoin:miter;stroke-width:0.75;" x="85.79358" xlink:href="#m58dd76dab5" y="206.264273"/>
     <use style="fill:#c7c7c7;stroke:#ffffff;stroke-linejoin:miter;stroke-width:0.75;" x="256.33431" xlink:href="#m58dd76dab5" y="196.75114"/>
     <use style="fill:#c7c7c7;stroke:#ffffff;stroke-linejoin:miter;stroke-width:0.75;" x="356.094243" xlink:href="#m58dd76dab5" y="174.962996"/>
     <use style="fill:#c7c7c7;stroke:#ffffff;stroke-linejoin:miter;stroke-width:0.75;" x="426.875041" xlink:href="#m58dd76dab5" y="171.178201"/>
     <use style="fill:#c7c7c7;stroke:#ffffff;stroke-linejoin:miter;stroke-width:0.75;" x="481.776894" xlink:href="#m58dd76dab5" y="165.85903"/>
     <use style="fill:#c7c7c7;stroke:#ffffff;stroke-linejoin:miter;stroke-width:0.75;" x="526.634974" xlink:href="#m58dd76dab5" y="159.823816"/>
     <use style="fill:#c7c7c7;stroke:#ffffff;stroke-linejoin:miter;stroke-width:0.75;" x="564.56194" xlink:href="#m58dd76dab5" y="158.084857"/>
     <use style="fill:#c7c7c7;stroke:#ffffff;stroke-linejoin:miter;stroke-width:0.75;" x="597.415772" xlink:href="#m58dd76dab5" y="156.652772"/>
     <use style="fill:#c7c7c7;stroke:#ffffff;stroke-linejoin:miter;stroke-width:0.75;" x="626.394906" xlink:href="#m58dd76dab5" y="152.45881"/>
     <use style="fill:#c7c7c7;stroke:#ffffff;stroke-linejoin:miter;stroke-width:0.75;" x="652.317625" xlink:href="#m58dd76dab5" y="151.845059"/>
     <use style="fill:#c7c7c7;stroke:#ffffff;stroke-linejoin:miter;stroke-width:0.75;" x="675.767576" xlink:href="#m58dd76dab5" y="149.594641"/>
     <use style="fill:#c7c7c7;stroke:#ffffff;stroke-linejoin:miter;stroke-width:0.75;" x="697.175704" xlink:href="#m58dd76dab5" y="148.878599"/>
     <use style="fill:#c7c7c7;stroke:#ffffff;stroke-linejoin:miter;stroke-width:0.75;" x="716.869273" xlink:href="#m58dd76dab5" y="148.674015"/>
     <use style="fill:#c7c7c7;stroke:#ffffff;stroke-linejoin:miter;stroke-width:0.75;" x="735.10267" xlink:href="#m58dd76dab5" y="143.15026"/>
    </g>
   </g>
   <g id="line2d_29">
    <path clip-path="url(#p23f0348720)" d="M 85.79358 201.047393 
L 256.33431 188.874675 
L 356.094243 184.271546 
L 426.875041 181.407377 
L 481.776894 166.779656 
L 526.634974 166.370489 
L 564.56194 166.063613 
L 597.415772 165.654446 
L 626.394906 160.130692 
L 652.317625 159.823816 
L 675.767576 157.573398 
L 697.175704 157.573398 
L 716.869273 157.573398 
L 735.10267 157.266522 
" style="fill:none;stroke:#1f77b4;stroke-linecap:square;stroke-width:1.5;"/>
    <defs>
     <path d="M 0 3 
C 0.795609 3 1.55874 2.683901 2.12132 2.12132 
C 2.683901 1.55874 3 0.795609 3 0 
C 3 -0.795609 2.683901 -1.55874 2.12132 -2.12132 
C 1.55874 -2.683901 0.795609 -3 0 -3 
C -0.795609 -3 -1.55874 -2.683901 -2.12132 -2.12132 
C -2.683901 -1.55874 -3 -0.795609 -3 0 
C -3 0.795609 -2.683901 1.55874 -2.12132 2.12132 
C -1.55874 2.683901 -0.795609 3 0 3 
z
" id="mfe36057a89" style="stroke:#ffffff;stroke-width:0.75;"/>
    </defs>
    <g clip-path="url(#p23f0348720)">
     <use style="fill:#1f77b4;stroke:#ffffff;stroke-width:0.75;" x="85.79358" xlink:href="#mfe36057a89" y="201.047393"/>
     <use style="fill:#1f77b4;stroke:#ffffff;stroke-width:0.75;" x="256.33431" xlink:href="#mfe36057a89" y="188.874675"/>
     <use style="fill:#1f77b4;stroke:#ffffff;stroke-width:0.75;" x="356.094243" xlink:href="#mfe36057a89" y="184.271546"/>
     <use style="fill:#1f77b4;stroke:#ffffff;stroke-width:0.75;" x="426.875041" xlink:href="#mfe36057a89" y="181.407377"/>
     <use style="fill:#1f77b4;stroke:#ffffff;stroke-width:0.75;" x="481.776894" xlink:href="#mfe36057a89" y="166.779656"/>
     <use style="fill:#1f77b4;stroke:#ffffff;stroke-width:0.75;" x="526.634974" xlink:href="#mfe36057a89" y="166.370489"/>
     <use style="fill:#1f77b4;stroke:#ffffff;stroke-width:0.75;" x="564.56194" xlink:href="#mfe36057a89" y="166.063613"/>
     <use style="fill:#1f77b4;stroke:#ffffff;stroke-width:0.75;" x="597.415772" xlink:href="#mfe36057a89" y="165.654446"/>
     <use style="fill:#1f77b4;stroke:#ffffff;stroke-width:0.75;" x="626.394906" xlink:href="#mfe36057a89" y="160.130692"/>
     <use style="fill:#1f77b4;stroke:#ffffff;stroke-width:0.75;" x="652.317625" xlink:href="#mfe36057a89" y="159.823816"/>
     <use style="fill:#1f77b4;stroke:#ffffff;stroke-width:0.75;" x="675.767576" xlink:href="#mfe36057a89" y="157.573398"/>
     <use style="fill:#1f77b4;stroke:#ffffff;stroke-width:0.75;" x="697.175704" xlink:href="#mfe36057a89" y="157.573398"/>
     <use style="fill:#1f77b4;stroke:#ffffff;stroke-width:0.75;" x="716.869273" xlink:href="#mfe36057a89" y="157.573398"/>
     <use style="fill:#1f77b4;stroke:#ffffff;stroke-width:0.75;" x="735.10267" xlink:href="#mfe36057a89" y="157.266522"/>
    </g>
   </g>
   <g id="line2d_30">
    <path clip-path="url(#p23f0348720)" d="M 85.79358 202.58177 
L 256.33431 194.909888 
L 356.094243 193.682387 
L 426.875041 192.761761 
L 481.776894 191.125093 
L 526.634974 183.96467 
L 564.56194 179.25925 
L 597.415772 175.16758 
L 626.394906 147.446514 
L 652.317625 146.014429 
L 675.767576 144.173178 
L 697.175704 144.070886 
L 716.869273 143.968594 
L 735.10267 142.843385 
" style="fill:none;stroke:#98df8a;stroke-linecap:square;stroke-width:1.5;"/>
    <defs>
     <path d="M -0 3 
L 3 -3 
L -3 -3 
z
" id="m44b3b8fb66" style="stroke:#ffffff;stroke-linejoin:miter;stroke-width:0.75;"/>
    </defs>
    <g clip-path="url(#p23f0348720)">
     <use style="fill:#98df8a;stroke:#ffffff;stroke-linejoin:miter;stroke-width:0.75;" x="85.79358" xlink:href="#m44b3b8fb66" y="202.58177"/>
     <use style="fill:#98df8a;stroke:#ffffff;stroke-linejoin:miter;stroke-width:0.75;" x="256.33431" xlink:href="#m44b3b8fb66" y="194.909888"/>
     <use style="fill:#98df8a;stroke:#ffffff;stroke-linejoin:miter;stroke-width:0.75;" x="356.094243" xlink:href="#m44b3b8fb66" y="193.682387"/>
     <use style="fill:#98df8a;stroke:#ffffff;stroke-linejoin:miter;stroke-width:0.75;" x="426.875041" xlink:href="#m44b3b8fb66" y="192.761761"/>
     <use style="fill:#98df8a;stroke:#ffffff;stroke-linejoin:miter;stroke-width:0.75;" x="481.776894" xlink:href="#m44b3b8fb66" y="191.125093"/>
     <use style="fill:#98df8a;stroke:#ffffff;stroke-linejoin:miter;stroke-width:0.75;" x="526.634974" xlink:href="#m44b3b8fb66" y="183.96467"/>
     <use style="fill:#98df8a;stroke:#ffffff;stroke-linejoin:miter;stroke-width:0.75;" x="564.56194" xlink:href="#m44b3b8fb66" y="179.25925"/>
     <use style="fill:#98df8a;stroke:#ffffff;stroke-linejoin:miter;stroke-width:0.75;" x="597.415772" xlink:href="#m44b3b8fb66" y="175.16758"/>
     <use style="fill:#98df8a;stroke:#ffffff;stroke-linejoin:miter;stroke-width:0.75;" x="626.394906" xlink:href="#m44b3b8fb66" y="147.446514"/>
     <use style="fill:#98df8a;stroke:#ffffff;stroke-linejoin:miter;stroke-width:0.75;" x="652.317625" xlink:href="#m44b3b8fb66" y="146.014429"/>
     <use style="fill:#98df8a;stroke:#ffffff;stroke-linejoin:miter;stroke-width:0.75;" x="675.767576" xlink:href="#m44b3b8fb66" y="144.173178"/>
     <use style="fill:#98df8a;stroke:#ffffff;stroke-linejoin:miter;stroke-width:0.75;" x="697.175704" xlink:href="#m44b3b8fb66" y="144.070886"/>
     <use style="fill:#98df8a;stroke:#ffffff;stroke-linejoin:miter;stroke-width:0.75;" x="716.869273" xlink:href="#m44b3b8fb66" y="143.968594"/>
     <use style="fill:#98df8a;stroke:#ffffff;stroke-linejoin:miter;stroke-width:0.75;" x="735.10267" xlink:href="#m44b3b8fb66" y="142.843385"/>
    </g>
   </g>
   <g id="line2d_31">
    <path clip-path="url(#p23f0348720)" d="M 85.79358 208.4124 
L 256.33431 231.73492 
L 356.094243 216.902615 
L 426.875041 261.501821 
L 481.776894 136.092129 
L 526.634974 130.977541 
L 564.56194 155.322979 
L 597.415772 181.714252 
L 626.394906 199.513017 
L 652.317625 119.111698 
L 675.767576 120.134615 
L 697.175704 147.753389 
L 716.869273 213.220112 
L 735.10267 132.000459 
" style="fill:none;stroke:#d62728;stroke-linecap:square;stroke-width:1.5;"/>
    <defs>
     <path d="M 0 -3 
L -3 3 
L 3 3 
z
" id="m03f380762b" style="stroke:#ffffff;stroke-linejoin:miter;stroke-width:0.75;"/>
    </defs>
    <g clip-path="url(#p23f0348720)">
     <use style="fill:#d62728;stroke:#ffffff;stroke-linejoin:miter;stroke-width:0.75;" x="85.79358" xlink:href="#m03f380762b" y="208.4124"/>
     <use style="fill:#d62728;stroke:#ffffff;stroke-linejoin:miter;stroke-width:0.75;" x="256.33431" xlink:href="#m03f380762b" y="231.73492"/>
     <use style="fill:#d62728;stroke:#ffffff;stroke-linejoin:miter;stroke-width:0.75;" x="356.094243" xlink:href="#m03f380762b" y="216.902615"/>
     <use style="fill:#d62728;stroke:#ffffff;stroke-linejoin:miter;stroke-width:0.75;" x="426.875041" xlink:href="#m03f380762b" y="261.501821"/>
     <use style="fill:#d62728;stroke:#ffffff;stroke-linejoin:miter;stroke-width:0.75;" x="481.776894" xlink:href="#m03f380762b" y="136.092129"/>
     <use style="fill:#d62728;stroke:#ffffff;stroke-linejoin:miter;stroke-width:0.75;" x="526.634974" xlink:href="#m03f380762b" y="130.977541"/>
     <use style="fill:#d62728;stroke:#ffffff;stroke-linejoin:miter;stroke-width:0.75;" x="564.56194" xlink:href="#m03f380762b" y="155.322979"/>
     <use style="fill:#d62728;stroke:#ffffff;stroke-linejoin:miter;stroke-width:0.75;" x="597.415772" xlink:href="#m03f380762b" y="181.714252"/>
     <use style="fill:#d62728;stroke:#ffffff;stroke-linejoin:miter;stroke-width:0.75;" x="626.394906" xlink:href="#m03f380762b" y="199.513017"/>
     <use style="fill:#d62728;stroke:#ffffff;stroke-linejoin:miter;stroke-width:0.75;" x="652.317625" xlink:href="#m03f380762b" y="119.111698"/>
     <use style="fill:#d62728;stroke:#ffffff;stroke-linejoin:miter;stroke-width:0.75;" x="675.767576" xlink:href="#m03f380762b" y="120.134615"/>
     <use style="fill:#d62728;stroke:#ffffff;stroke-linejoin:miter;stroke-width:0.75;" x="697.175704" xlink:href="#m03f380762b" y="147.753389"/>
     <use style="fill:#d62728;stroke:#ffffff;stroke-linejoin:miter;stroke-width:0.75;" x="716.869273" xlink:href="#m03f380762b" y="213.220112"/>
     <use style="fill:#d62728;stroke:#ffffff;stroke-linejoin:miter;stroke-width:0.75;" x="735.10267" xlink:href="#m03f380762b" y="132.000459"/>
    </g>
   </g>
   <g id="line2d_32">
    <path clip-path="url(#p23f0348720)" d="M 85.79358 225.90429 
L 256.33431 208.207816 
L 356.094243 198.4901 
L 426.875041 189.693009 
L 481.776894 186.624256 
L 526.634974 185.08988 
L 564.56194 179.668417 
L 597.415772 175.985914 
L 626.394906 175.576747 
L 652.317625 163.097152 
L 675.767576 162.994861 
L 697.175704 162.687985 
L 716.869273 162.585694 
L 735.10267 152.765685 
" style="fill:none;stroke:#ff7f0e;stroke-linecap:square;stroke-width:1.5;"/>
    <defs>
     <path d="M 3 0 
L -3 -3 
L -3 3 
z
" id="m63cb43493b" style="stroke:#ffffff;stroke-linejoin:miter;stroke-width:0.75;"/>
    </defs>
    <g clip-path="url(#p23f0348720)">
     <use style="fill:#ff7f0e;stroke:#ffffff;stroke-linejoin:miter;stroke-width:0.75;" x="85.79358" xlink:href="#m63cb43493b" y="225.90429"/>
     <use style="fill:#ff7f0e;stroke:#ffffff;stroke-linejoin:miter;stroke-width:0.75;" x="256.33431" xlink:href="#m63cb43493b" y="208.207816"/>
     <use style="fill:#ff7f0e;stroke:#ffffff;stroke-linejoin:miter;stroke-width:0.75;" x="356.094243" xlink:href="#m63cb43493b" y="198.4901"/>
     <use style="fill:#ff7f0e;stroke:#ffffff;stroke-linejoin:miter;stroke-width:0.75;" x="426.875041" xlink:href="#m63cb43493b" y="189.693009"/>
     <use style="fill:#ff7f0e;stroke:#ffffff;stroke-linejoin:miter;stroke-width:0.75;" x="481.776894" xlink:href="#m63cb43493b" y="186.624256"/>
     <use style="fill:#ff7f0e;stroke:#ffffff;stroke-linejoin:miter;stroke-width:0.75;" x="526.634974" xlink:href="#m63cb43493b" y="185.08988"/>
     <use style="fill:#ff7f0e;stroke:#ffffff;stroke-linejoin:miter;stroke-width:0.75;" x="564.56194" xlink:href="#m63cb43493b" y="179.668417"/>
     <use style="fill:#ff7f0e;stroke:#ffffff;stroke-linejoin:miter;stroke-width:0.75;" x="597.415772" xlink:href="#m63cb43493b" y="175.985914"/>
     <use style="fill:#ff7f0e;stroke:#ffffff;stroke-linejoin:miter;stroke-width:0.75;" x="626.394906" xlink:href="#m63cb43493b" y="175.576747"/>
     <use style="fill:#ff7f0e;stroke:#ffffff;stroke-linejoin:miter;stroke-width:0.75;" x="652.317625" xlink:href="#m63cb43493b" y="163.097152"/>
     <use style="fill:#ff7f0e;stroke:#ffffff;stroke-linejoin:miter;stroke-width:0.75;" x="675.767576" xlink:href="#m63cb43493b" y="162.994861"/>
     <use style="fill:#ff7f0e;stroke:#ffffff;stroke-linejoin:miter;stroke-width:0.75;" x="697.175704" xlink:href="#m63cb43493b" y="162.687985"/>
     <use style="fill:#ff7f0e;stroke:#ffffff;stroke-linejoin:miter;stroke-width:0.75;" x="716.869273" xlink:href="#m63cb43493b" y="162.585694"/>
     <use style="fill:#ff7f0e;stroke:#ffffff;stroke-linejoin:miter;stroke-width:0.75;" x="735.10267" xlink:href="#m63cb43493b" y="152.765685"/>
    </g>
   </g>
   <g id="line2d_33">
    <path clip-path="url(#p23f0348720)" d="M 85.79358 205.650522 
L 256.33431 193.375512 
L 356.094243 190.818218 
L 426.875041 187.238007 
L 481.776894 180.282167 
L 526.634974 179.054666 
L 564.56194 179.054666 
L 597.415772 178.031749 
L 626.394906 178.031749 
L 652.317625 178.031749 
L 675.767576 177.929457 
L 697.175704 177.929457 
L 716.869273 177.929457 
L 735.10267 177.929457 
" style="fill:none;stroke:#ff9896;stroke-linecap:square;stroke-width:1.5;"/>
    <defs>
     <path d="M -1.14805 -2.771639 
L -2.771639 -1.14805 
L -2.771639 1.14805 
L -1.14805 2.771639 
L 1.14805 2.771639 
L 2.771639 1.14805 
L 2.771639 -1.14805 
L 1.14805 -2.771639 
z
" id="m9fc5422e28" style="stroke:#ffffff;stroke-linejoin:miter;stroke-width:0.75;"/>
    </defs>
    <g clip-path="url(#p23f0348720)">
     <use style="fill:#ff9896;stroke:#ffffff;stroke-linejoin:miter;stroke-width:0.75;" x="85.79358" xlink:href="#m9fc5422e28" y="205.650522"/>
     <use style="fill:#ff9896;stroke:#ffffff;stroke-linejoin:miter;stroke-width:0.75;" x="256.33431" xlink:href="#m9fc5422e28" y="193.375512"/>
     <use style="fill:#ff9896;stroke:#ffffff;stroke-linejoin:miter;stroke-width:0.75;" x="356.094243" xlink:href="#m9fc5422e28" y="190.818218"/>
     <use style="fill:#ff9896;stroke:#ffffff;stroke-linejoin:miter;stroke-width:0.75;" x="426.875041" xlink:href="#m9fc5422e28" y="187.238007"/>
     <use style="fill:#ff9896;stroke:#ffffff;stroke-linejoin:miter;stroke-width:0.75;" x="481.776894" xlink:href="#m9fc5422e28" y="180.282167"/>
     <use style="fill:#ff9896;stroke:#ffffff;stroke-linejoin:miter;stroke-width:0.75;" x="526.634974" xlink:href="#m9fc5422e28" y="179.054666"/>
     <use style="fill:#ff9896;stroke:#ffffff;stroke-linejoin:miter;stroke-width:0.75;" x="564.56194" xlink:href="#m9fc5422e28" y="179.054666"/>
     <use style="fill:#ff9896;stroke:#ffffff;stroke-linejoin:miter;stroke-width:0.75;" x="597.415772" xlink:href="#m9fc5422e28" y="178.031749"/>
     <use style="fill:#ff9896;stroke:#ffffff;stroke-linejoin:miter;stroke-width:0.75;" x="626.394906" xlink:href="#m9fc5422e28" y="178.031749"/>
     <use style="fill:#ff9896;stroke:#ffffff;stroke-linejoin:miter;stroke-width:0.75;" x="652.317625" xlink:href="#m9fc5422e28" y="178.031749"/>
     <use style="fill:#ff9896;stroke:#ffffff;stroke-linejoin:miter;stroke-width:0.75;" x="675.767576" xlink:href="#m9fc5422e28" y="177.929457"/>
     <use style="fill:#ff9896;stroke:#ffffff;stroke-linejoin:miter;stroke-width:0.75;" x="697.175704" xlink:href="#m9fc5422e28" y="177.929457"/>
     <use style="fill:#ff9896;stroke:#ffffff;stroke-linejoin:miter;stroke-width:0.75;" x="716.869273" xlink:href="#m9fc5422e28" y="177.929457"/>
     <use style="fill:#ff9896;stroke:#ffffff;stroke-linejoin:miter;stroke-width:0.75;" x="735.10267" xlink:href="#m9fc5422e28" y="177.929457"/>
    </g>
   </g>
   <g id="line2d_34"/>
   <g id="line2d_35"/>
   <g id="line2d_36"/>
   <g id="line2d_37"/>
   <g id="line2d_38"/>
   <g id="line2d_39"/>
   <g id="line2d_40">
    <path clip-path="url(#p23f0348720)" d="M 735.10267 288.430125 
L 735.10267 22.318125 
" style="fill:none;stroke:#ff0000;stroke-linecap:square;stroke-width:1.5;"/>
   </g>
   <g id="patch_3">
    <path d="M 53.328125 257.41015 
L 53.328125 52.826641 
" style="fill:none;stroke:#000000;stroke-linecap:square;stroke-linejoin:miter;stroke-width:0.8;"/>
   </g>
   <g id="patch_4">
    <path d="M 356.094243 288.430125 
L 735.161244 288.430125 
" style="fill:none;stroke:#000000;stroke-linecap:square;stroke-linejoin:miter;stroke-width:0.8;"/>
   </g>
   <g id="text_21">
    <!-- openssl_x509 (1h:10m, 20 trials/fuzzer) -->
    <g transform="translate(291.139063 16.318125)scale(0.12 -0.12)">
     <defs>
      <path d="M 1159 525 
L 1159 -1331 
L 581 -1331 
L 581 3500 
L 1159 3500 
L 1159 2969 
Q 1341 3281 1617 3432 
Q 1894 3584 2278 3584 
Q 2916 3584 3314 3078 
Q 3713 2572 3713 1747 
Q 3713 922 3314 415 
Q 2916 -91 2278 -91 
Q 1894 -91 1617 61 
Q 1341 213 1159 525 
z
M 3116 1747 
Q 3116 2381 2855 2742 
Q 2594 3103 2138 3103 
Q 1681 3103 1420 2742 
Q 1159 2381 1159 1747 
Q 1159 1113 1420 752 
Q 1681 391 2138 391 
Q 2594 391 2855 752 
Q 3116 1113 3116 1747 
z
" id="DejaVuSans-70" transform="scale(0.015625)"/>
      <path d="M 2834 3397 
L 2834 2853 
Q 2591 2978 2328 3040 
Q 2066 3103 1784 3103 
Q 1356 3103 1142 2972 
Q 928 2841 928 2578 
Q 928 2378 1081 2264 
Q 1234 2150 1697 2047 
L 1894 2003 
Q 2506 1872 2764 1633 
Q 3022 1394 3022 966 
Q 3022 478 2636 193 
Q 2250 -91 1575 -91 
Q 1294 -91 989 -36 
Q 684 19 347 128 
L 347 722 
Q 666 556 975 473 
Q 1284 391 1588 391 
Q 1994 391 2212 530 
Q 2431 669 2431 922 
Q 2431 1156 2273 1281 
Q 2116 1406 1581 1522 
L 1381 1569 
Q 847 1681 609 1914 
Q 372 2147 372 2553 
Q 372 3047 722 3315 
Q 1072 3584 1716 3584 
Q 2034 3584 2315 3537 
Q 2597 3491 2834 3397 
z
" id="DejaVuSans-73" transform="scale(0.015625)"/>
      <path d="M 603 4863 
L 1178 4863 
L 1178 0 
L 603 0 
L 603 4863 
z
" id="DejaVuSans-6c" transform="scale(0.015625)"/>
      <path d="M 3263 -1063 
L 3263 -1509 
L -63 -1509 
L -63 -1063 
L 3263 -1063 
z
" id="DejaVuSans-5f" transform="scale(0.015625)"/>
      <path d="M 3513 3500 
L 2247 1797 
L 3578 0 
L 2900 0 
L 1881 1375 
L 863 0 
L 184 0 
L 1544 1831 
L 300 3500 
L 978 3500 
L 1906 2253 
L 2834 3500 
L 3513 3500 
z
" id="DejaVuSans-78" transform="scale(0.015625)"/>
      <path d="M 750 794 
L 1409 794 
L 1409 256 
L 897 -744 
L 494 -744 
L 750 256 
L 750 794 
z
" id="DejaVuSans-2c" transform="scale(0.015625)"/>
      <path d="M 1625 4666 
L 2156 4666 
L 531 -594 
L 0 -594 
L 1625 4666 
z
" id="DejaVuSans-2f" transform="scale(0.015625)"/>
      <path d="M 2375 4863 
L 2375 4384 
L 1825 4384 
Q 1516 4384 1395 4259 
Q 1275 4134 1275 3809 
L 1275 3500 
L 2222 3500 
L 2222 3053 
L 1275 3053 
L 1275 0 
L 697 0 
L 697 3053 
L 147 3053 
L 147 3500 
L 697 3500 
L 697 3744 
Q 697 4328 969 4595 
Q 1241 4863 1831 4863 
L 2375 4863 
z
" id="DejaVuSans-66" transform="scale(0.015625)"/>
      <path d="M 353 3500 
L 3084 3500 
L 3084 2975 
L 922 459 
L 3084 459 
L 3084 0 
L 275 0 
L 275 525 
L 2438 3041 
L 353 3041 
L 353 3500 
z
" id="DejaVuSans-7a" transform="scale(0.015625)"/>
     </defs>
     <use xlink:href="#DejaVuSans-6f"/>
     <use x="61.181641" xlink:href="#DejaVuSans-70"/>
     <use x="124.658203" xlink:href="#DejaVuSans-65"/>
     <use x="186.181641" xlink:href="#DejaVuSans-6e"/>
     <use x="249.560547" xlink:href="#DejaVuSans-73"/>
     <use x="301.660156" xlink:href="#DejaVuSans-73"/>
     <use x="353.759766" xlink:href="#DejaVuSans-6c"/>
     <use x="381.542969" xlink:href="#DejaVuSans-5f"/>
     <use x="431.542969" xlink:href="#DejaVuSans-78"/>
     <use x="490.722656" xlink:href="#DejaVuSans-35"/>
     <use x="554.345703" xlink:href="#DejaVuSans-30"/>
     <use x="617.96875" xlink:href="#DejaVuSans-39"/>
     <use x="681.591797" xlink:href="#DejaVuSans-20"/>
     <use x="713.378906" xlink:href="#DejaVuSans-28"/>
     <use x="752.392578" xlink:href="#DejaVuSans-31"/>
     <use x="816.015625" xlink:href="#DejaVuSans-68"/>
     <use x="879.394531" xlink:href="#DejaVuSans-3a"/>
     <use x="913.085938" xlink:href="#DejaVuSans-31"/>
     <use x="976.708984" xlink:href="#DejaVuSans-30"/>
     <use x="1040.332031" xlink:href="#DejaVuSans-6d"/>
     <use x="1137.744141" xlink:href="#DejaVuSans-2c"/>
     <use x="1169.53125" xlink:href="#DejaVuSans-20"/>
     <use x="1201.318359" xlink:href="#DejaVuSans-32"/>
     <use x="1264.941406" xlink:href="#DejaVuSans-30"/>
     <use x="1328.564453" xlink:href="#DejaVuSans-20"/>
     <use x="1360.351562" xlink:href="#DejaVuSans-74"/>
     <use x="1399.560547" xlink:href="#DejaVuSans-72"/>
     <use x="1440.673828" xlink:href="#DejaVuSans-69"/>
     <use x="1468.457031" xlink:href="#DejaVuSans-61"/>
     <use x="1529.736328" xlink:href="#DejaVuSans-6c"/>
     <use x="1557.519531" xlink:href="#DejaVuSans-73"/>
     <use x="1609.619141" xlink:href="#DejaVuSans-2f"/>
     <use x="1643.310547" xlink:href="#DejaVuSans-66"/>
     <use x="1678.515625" xlink:href="#DejaVuSans-75"/>
     <use x="1741.894531" xlink:href="#DejaVuSans-7a"/>
     <use x="1794.384766" xlink:href="#DejaVuSans-7a"/>
     <use x="1846.875" xlink:href="#DejaVuSans-65"/>
     <use x="1908.398438" xlink:href="#DejaVuSans-72"/>
     <use x="1949.511719" xlink:href="#DejaVuSans-29"/>
    </g>
   </g>
   <g id="legend_1">
    <g id="line2d_41">
     <path d="M 771.568125 30.416562 
L 791.568125 30.416562 
" style="fill:none;stroke:#c7c7c7;stroke-linecap:square;stroke-width:1.5;"/>
    </g>
    <g id="line2d_42">
     <defs>
      <path d="M -3 -0 
L 3 3 
L 3 -3 
z
" id="m495ea1cd82" style="stroke:#c7c7c7;stroke-linejoin:miter;"/>
     </defs>
     <g>
      <use style="fill:#c7c7c7;stroke:#c7c7c7;stroke-linejoin:miter;" x="781.568125" xlink:href="#m495ea1cd82" y="30.416562"/>
     </g>
    </g>
    <g id="text_22">
     <!-- entropic -->
     <g transform="translate(799.568125 33.916562)scale(0.1 -0.1)">
      <use xlink:href="#DejaVuSans-65"/>
      <use x="61.523438" xlink:href="#DejaVuSans-6e"/>
      <use x="124.902344" xlink:href="#DejaVuSans-74"/>
      <use x="164.111328" xlink:href="#DejaVuSans-72"/>
      <use x="202.974609" xlink:href="#DejaVuSans-6f"/>
      <use x="264.15625" xlink:href="#DejaVuSans-70"/>
      <use x="327.632812" xlink:href="#DejaVuSans-69"/>
      <use x="355.416016" xlink:href="#DejaVuSans-63"/>
     </g>
    </g>
    <g id="line2d_43">
     <path d="M 771.568125 45.094688 
L 791.568125 45.094688 
" style="fill:none;stroke:#1f77b4;stroke-linecap:square;stroke-width:1.5;"/>
    </g>
    <g id="line2d_44">
     <defs>
      <path d="M 0 3 
C 0.795609 3 1.55874 2.683901 2.12132 2.12132 
C 2.683901 1.55874 3 0.795609 3 0 
C 3 -0.795609 2.683901 -1.55874 2.12132 -2.12132 
C 1.55874 -2.683901 0.795609 -3 0 -3 
C -0.795609 -3 -1.55874 -2.683901 -2.12132 -2.12132 
C -2.683901 -1.55874 -3 -0.795609 -3 0 
C -3 0.795609 -2.683901 1.55874 -2.12132 2.12132 
C -1.55874 2.683901 -0.795609 3 0 3 
z
" id="md12e529ea3" style="stroke:#1f77b4;"/>
     </defs>
     <g>
      <use style="fill:#1f77b4;stroke:#1f77b4;" x="781.568125" xlink:href="#md12e529ea3" y="45.094688"/>
     </g>
    </g>
    <g id="text_23">
     <!-- afl -->
     <g transform="translate(799.568125 48.594688)scale(0.1 -0.1)">
      <use xlink:href="#DejaVuSans-61"/>
      <use x="61.279297" xlink:href="#DejaVuSans-66"/>
      <use x="96.484375" xlink:href="#DejaVuSans-6c"/>
     </g>
    </g>
    <g id="line2d_45">
     <path d="M 771.568125 59.772812 
L 791.568125 59.772812 
" style="fill:none;stroke:#98df8a;stroke-linecap:square;stroke-width:1.5;"/>
    </g>
    <g id="line2d_46">
     <defs>
      <path d="M -0 3 
L 3 -3 
L -3 -3 
z
" id="mb760160090" style="stroke:#98df8a;stroke-linejoin:miter;"/>
     </defs>
     <g>
      <use style="fill:#98df8a;stroke:#98df8a;stroke-linejoin:miter;" x="781.568125" xlink:href="#mb760160090" y="59.772812"/>
     </g>
    </g>
    <g id="text_24">
     <!-- aflplusplus -->
     <g transform="translate(799.568125 63.272812)scale(0.1 -0.1)">
      <use xlink:href="#DejaVuSans-61"/>
      <use x="61.279297" xlink:href="#DejaVuSans-66"/>
      <use x="96.484375" xlink:href="#DejaVuSans-6c"/>
      <use x="124.267578" xlink:href="#DejaVuSans-70"/>
      <use x="187.744141" xlink:href="#DejaVuSans-6c"/>
      <use x="215.527344" xlink:href="#DejaVuSans-75"/>
      <use x="278.90625" xlink:href="#DejaVuSans-73"/>
      <use x="331.005859" xlink:href="#DejaVuSans-70"/>
      <use x="394.482422" xlink:href="#DejaVuSans-6c"/>
      <use x="422.265625" xlink:href="#DejaVuSans-75"/>
      <use x="485.644531" xlink:href="#DejaVuSans-73"/>
     </g>
    </g>
    <g id="line2d_47">
     <path d="M 771.568125 74.450938 
L 791.568125 74.450938 
" style="fill:none;stroke:#d62728;stroke-linecap:square;stroke-width:1.5;"/>
    </g>
    <g id="line2d_48">
     <defs>
      <path d="M 0 -3 
L -3 3 
L 3 3 
z
" id="m81c24ec179" style="stroke:#d62728;stroke-linejoin:miter;"/>
     </defs>
     <g>
      <use style="fill:#d62728;stroke:#d62728;stroke-linejoin:miter;" x="781.568125" xlink:href="#m81c24ec179" y="74.450938"/>
     </g>
    </g>
    <g id="text_25">
     <!-- eclipser -->
     <g transform="translate(799.568125 77.950938)scale(0.1 -0.1)">
      <use xlink:href="#DejaVuSans-65"/>
      <use x="61.523438" xlink:href="#DejaVuSans-63"/>
      <use x="116.503906" xlink:href="#DejaVuSans-6c"/>
      <use x="144.287109" xlink:href="#DejaVuSans-69"/>
      <use x="172.070312" xlink:href="#DejaVuSans-70"/>
      <use x="235.546875" xlink:href="#DejaVuSans-73"/>
      <use x="287.646484" xlink:href="#DejaVuSans-65"/>
      <use x="349.169922" xlink:href="#DejaVuSans-72"/>
     </g>
    </g>
    <g id="line2d_49">
     <path d="M 771.568125 89.129063 
L 791.568125 89.129063 
" style="fill:none;stroke:#ff7f0e;stroke-linecap:square;stroke-width:1.5;"/>
    </g>
    <g id="line2d_50">
     <defs>
      <path d="M 3 0 
L -3 -3 
L -3 3 
z
" id="m923e4a11d5" style="stroke:#ff7f0e;stroke-linejoin:miter;"/>
     </defs>
     <g>
      <use style="fill:#ff7f0e;stroke:#ff7f0e;stroke-linejoin:miter;" x="781.568125" xlink:href="#m923e4a11d5" y="89.129063"/>
     </g>
    </g>
    <g id="text_26">
     <!-- honggfuzz -->
     <g transform="translate(799.568125 92.629063)scale(0.1 -0.1)">
      <use xlink:href="#DejaVuSans-68"/>
      <use x="63.378906" xlink:href="#DejaVuSans-6f"/>
      <use x="124.560547" xlink:href="#DejaVuSans-6e"/>
      <use x="187.939453" xlink:href="#DejaVuSans-67"/>
      <use x="251.416016" xlink:href="#DejaVuSans-67"/>
      <use x="314.892578" xlink:href="#DejaVuSans-66"/>
      <use x="350.097656" xlink:href="#DejaVuSans-75"/>
      <use x="413.476562" xlink:href="#DejaVuSans-7a"/>
      <use x="465.966797" xlink:href="#DejaVuSans-7a"/>
     </g>
    </g>
    <g id="line2d_51">
     <path d="M 771.568125 103.807187 
L 791.568125 103.807187 
" style="fill:none;stroke:#ff9896;stroke-linecap:square;stroke-width:1.5;"/>
    </g>
    <g id="line2d_52">
     <defs>
      <path d="M -1.14805 -2.771639 
L -2.771639 -1.14805 
L -2.771639 1.14805 
L -1.14805 2.771639 
L 1.14805 2.771639 
L 2.771639 1.14805 
L 2.771639 -1.14805 
L 1.14805 -2.771639 
z
" id="mfc74bed37d" style="stroke:#ff9896;stroke-linejoin:miter;"/>
     </defs>
     <g>
      <use style="fill:#ff9896;stroke:#ff9896;stroke-linejoin:miter;" x="781.568125" xlink:href="#mfc74bed37d" y="103.807187"/>
     </g>
    </g>
    <g id="text_27">
     <!-- libfuzzer -->
     <g transform="translate(799.568125 107.307187)scale(0.1 -0.1)">
      <use xlink:href="#DejaVuSans-6c"/>
      <use x="27.783203" xlink:href="#DejaVuSans-69"/>
      <use x="55.566406" xlink:href="#DejaVuSans-62"/>
      <use x="119.042969" xlink:href="#DejaVuSans-66"/>
      <use x="154.248047" xlink:href="#DejaVuSans-75"/>
      <use x="217.626953" xlink:href="#DejaVuSans-7a"/>
      <use x="270.117188" xlink:href="#DejaVuSans-7a"/>
      <use x="322.607422" xlink:href="#DejaVuSans-65"/>
      <use x="384.130859" xlink:href="#DejaVuSans-72"/>
     </g>
    </g>
   </g>
  </g>
 </g>
 <defs>
  <clipPath id="p23f0348720">
   <rect height="266.112" width="714.24" x="53.328125" y="22.318125"/>
  </clipPath>
 </defs>
</svg>
