<?xml version="1.0" encoding="utf-8" standalone="no"?>
<!DOCTYPE svg PUBLIC "-//W3C//DTD SVG 1.1//EN"
  "http://www.w3.org/Graphics/SVG/1.1/DTD/svg11.dtd">
<!-- Created with matplotlib (https://matplotlib.org/) -->
<svg height="356.559522pt" version="1.1" viewBox="0 0 417.648125 356.559522" width="417.648125pt" xmlns="http://www.w3.org/2000/svg" xmlns:xlink="http://www.w3.org/1999/xlink">
 <metadata>
  <rdf:RDF xmlns:cc="http://creativecommons.org/ns#" xmlns:dc="http://purl.org/dc/elements/1.1/" xmlns:rdf="http://www.w3.org/1999/02/22-rdf-syntax-ns#">
   <cc:Work>
    <dc:type rdf:resource="http://purl.org/dc/dcmitype/StillImage"/>
    <dc:date>2020-08-08T10:43:47.008353</dc:date>
    <dc:format>image/svg+xml</dc:format>
    <dc:creator>
     <cc:Agent>
      <dc:title>Matplotlib v3.3.0, https://matplotlib.org/</dc:title>
     </cc:Agent>
    </dc:creator>
   </cc:Work>
  </rdf:RDF>
 </metadata>
 <defs>
  <style type="text/css">*{stroke-linecap:butt;stroke-linejoin:round;}</style>
 </defs>
 <g id="figure_1">
  <g id="patch_1">
   <path d="M 0 356.559522 
L 417.648125 356.559522 
L 417.648125 -0 
L 0 -0 
z
" style="fill:#ffffff;"/>
  </g>
  <g id="axes_1">
   <g id="patch_2">
    <path d="M 53.328125 288.430125 
L 410.448125 288.430125 
L 410.448125 22.318125 
L 53.328125 22.318125 
z
" style="fill:#ffffff;"/>
   </g>
   <g id="PolyCollection_1">
    <defs>
     <path d="M 99.059059 -145.003256 
L 96.877191 -145.003256 
L 96.686665 -146.792571 
L 96.471284 -148.581885 
L 96.22946 -150.3712 
L 95.959812 -152.160515 
L 95.661228 -153.949829 
L 95.332929 -155.739144 
L 94.974528 -157.528458 
L 94.586094 -159.317773 
L 94.168201 -161.107087 
L 93.721975 -162.896402 
L 93.249124 -164.685716 
L 92.751954 -166.475031 
L 92.233378 -168.264345 
L 91.696891 -170.05366 
L 91.146541 -171.842975 
L 90.58687 -173.632289 
L 90.022841 -175.421604 
L 89.459747 -177.210918 
L 88.9031 -179.000233 
L 88.358513 -180.789547 
L 87.831566 -182.578862 
L 87.327677 -184.368176 
L 86.851958 -186.157491 
L 86.409093 -187.946805 
L 86.00321 -189.73612 
L 85.637783 -191.525435 
L 85.315539 -193.314749 
L 85.038395 -195.104064 
L 84.807424 -196.893378 
L 84.622835 -198.682693 
L 84.483999 -200.472007 
L 84.389483 -202.261322 
L 84.337122 -204.050636 
L 84.324111 -205.839951 
L 84.34711 -207.629266 
L 84.402365 -209.41858 
L 84.485845 -211.207895 
L 84.593369 -212.997209 
L 84.720739 -214.786524 
L 84.863869 -216.575838 
L 85.018892 -218.365153 
L 85.182258 -220.154467 
L 85.350817 -221.943782 
L 85.52187 -223.733096 
L 85.693213 -225.522411 
L 85.863151 -227.311726 
L 86.030491 -229.10104 
L 86.194526 -230.890355 
L 86.354993 -232.679669 
L 86.512031 -234.468984 
L 86.666117 -236.258298 
L 86.818006 -238.047613 
L 86.968668 -239.836927 
L 87.119222 -241.626242 
L 87.270879 -243.415557 
L 87.424885 -245.204871 
L 87.582476 -246.994186 
L 87.744836 -248.7835 
L 87.91307 -250.572815 
L 88.088176 -252.362129 
L 88.27103 -254.151444 
L 88.462375 -255.940758 
L 88.662817 -257.730073 
L 88.872816 -259.519387 
L 89.092694 -261.308702 
L 89.322626 -263.098017 
L 89.56265 -264.887331 
L 89.812659 -266.676646 
L 90.072407 -268.46596 
L 90.341506 -270.255275 
L 90.619427 -272.044589 
L 90.905497 -273.833904 
L 91.198904 -275.623218 
L 91.498699 -277.412533 
L 91.8038 -279.201847 
L 92.113001 -280.991162 
L 92.424989 -282.780477 
L 92.738352 -284.569791 
L 93.051607 -286.359106 
L 93.363217 -288.14842 
L 93.671622 -289.937735 
L 93.975264 -291.727049 
L 94.272615 -293.516364 
L 94.562209 -295.305678 
L 94.842671 -297.094993 
L 95.112739 -298.884308 
L 95.371291 -300.673622 
L 95.617361 -302.462937 
L 95.850158 -304.252251 
L 96.069071 -306.041566 
L 96.273677 -307.83088 
L 96.463739 -309.620195 
L 96.639202 -311.409509 
L 96.800182 -313.198824 
L 96.946956 -314.988138 
L 97.079939 -316.777453 
L 97.199671 -318.566768 
L 97.306794 -320.356082 
L 97.402034 -322.145397 
L 98.534216 -322.145397 
L 98.534216 -322.145397 
L 98.629456 -320.356082 
L 98.736579 -318.566768 
L 98.856311 -316.777453 
L 98.989294 -314.988138 
L 99.136068 -313.198824 
L 99.297048 -311.409509 
L 99.472511 -309.620195 
L 99.662573 -307.83088 
L 99.867179 -306.041566 
L 100.086092 -304.252251 
L 100.318889 -302.462937 
L 100.564959 -300.673622 
L 100.823511 -298.884308 
L 101.093579 -297.094993 
L 101.374041 -295.305678 
L 101.663635 -293.516364 
L 101.960986 -291.727049 
L 102.264628 -289.937735 
L 102.573033 -288.14842 
L 102.884643 -286.359106 
L 103.197898 -284.569791 
L 103.511261 -282.780477 
L 103.823249 -280.991162 
L 104.13245 -279.201847 
L 104.437551 -277.412533 
L 104.737346 -275.623218 
L 105.030753 -273.833904 
L 105.316823 -272.044589 
L 105.594744 -270.255275 
L 105.863843 -268.46596 
L 106.123591 -266.676646 
L 106.3736 -264.887331 
L 106.613624 -263.098017 
L 106.843556 -261.308702 
L 107.063434 -259.519387 
L 107.273433 -257.730073 
L 107.473875 -255.940758 
L 107.66522 -254.151444 
L 107.848074 -252.362129 
L 108.02318 -250.572815 
L 108.191414 -248.7835 
L 108.353774 -246.994186 
L 108.511365 -245.204871 
L 108.665371 -243.415557 
L 108.817028 -241.626242 
L 108.967582 -239.836927 
L 109.118244 -238.047613 
L 109.270133 -236.258298 
L 109.424219 -234.468984 
L 109.581257 -232.679669 
L 109.741724 -230.890355 
L 109.905759 -229.10104 
L 110.073099 -227.311726 
L 110.243037 -225.522411 
L 110.41438 -223.733096 
L 110.585433 -221.943782 
L 110.753992 -220.154467 
L 110.917358 -218.365153 
L 111.072381 -216.575838 
L 111.215511 -214.786524 
L 111.342881 -212.997209 
L 111.450405 -211.207895 
L 111.533885 -209.41858 
L 111.58914 -207.629266 
L 111.612139 -205.839951 
L 111.599128 -204.050636 
L 111.546767 -202.261322 
L 111.452251 -200.472007 
L 111.313415 -198.682693 
L 111.128826 -196.893378 
L 110.897855 -195.104064 
L 110.620711 -193.314749 
L 110.298467 -191.525435 
L 109.93304 -189.73612 
L 109.527157 -187.946805 
L 109.084292 -186.157491 
L 108.608573 -184.368176 
L 108.104684 -182.578862 
L 107.577737 -180.789547 
L 107.03315 -179.000233 
L 106.476503 -177.210918 
L 105.913409 -175.421604 
L 105.34938 -173.632289 
L 104.789709 -171.842975 
L 104.239359 -170.05366 
L 103.702872 -168.264345 
L 103.184296 -166.475031 
L 102.687126 -164.685716 
L 102.214275 -162.896402 
L 101.768049 -161.107087 
L 101.350156 -159.317773 
L 100.961722 -157.528458 
L 100.603321 -155.739144 
L 100.275022 -153.949829 
L 99.976438 -152.160515 
L 99.70679 -150.3712 
L 99.464966 -148.581885 
L 99.249585 -146.792571 
L 99.059059 -145.003256 
z
" id="mc479c2a80b" style="stroke:#3f3f3f;stroke-width:1.5;"/>
    </defs>
    <g clip-path="url(#p5c4a3fc8fd)">
     <use style="fill:#eebb89;stroke:#3f3f3f;stroke-width:1.5;" x="0" xlink:href="#mc479c2a80b" y="356.559522"/>
    </g>
   </g>
   <g id="PolyCollection_2">
    <defs>
     <path d="M 188.911439 -94.661457 
L 185.584811 -94.661457 
L 185.307613 -95.933663 
L 184.996339 -97.205869 
L 184.649109 -98.478076 
L 184.264363 -99.750282 
L 183.840937 -101.022488 
L 183.37815 -102.294694 
L 182.875881 -103.566901 
L 182.334645 -104.839107 
L 181.755652 -106.111313 
L 181.140863 -107.38352 
L 180.493025 -108.655726 
L 179.815684 -109.927932 
L 179.113181 -111.200138 
L 178.390623 -112.472345 
L 177.653825 -113.744551 
L 176.909234 -115.016757 
L 176.163816 -116.288964 
L 175.424933 -117.56117 
L 174.700188 -118.833376 
L 173.997259 -120.105582 
L 173.323722 -121.377789 
L 172.686858 -122.649995 
L 172.093477 -123.922201 
L 171.549726 -125.194407 
L 171.060929 -126.466614 
L 170.631439 -127.73882 
L 170.264506 -129.011026 
L 169.962195 -130.283233 
L 169.725318 -131.555439 
L 169.553417 -132.827645 
L 169.444777 -134.099851 
L 169.396483 -135.372058 
L 169.404509 -136.644264 
L 169.463844 -137.91647 
L 169.568645 -139.188676 
L 169.712414 -140.460883 
L 169.888193 -141.733089 
L 170.088767 -143.005295 
L 170.306876 -144.277502 
L 170.535413 -145.549708 
L 170.767623 -146.821914 
L 170.997273 -148.09412 
L 171.21881 -149.366327 
L 171.427489 -150.638533 
L 171.619466 -151.910739 
L 171.791871 -153.182946 
L 171.942837 -154.455152 
L 172.071507 -155.727358 
L 172.17801 -156.999564 
L 172.263401 -158.271771 
L 172.329595 -159.543977 
L 172.37926 -160.816183 
L 172.415713 -162.088389 
L 172.442793 -163.360596 
L 172.464732 -164.632802 
L 172.48602 -165.905008 
L 172.511277 -167.177215 
L 172.545118 -168.449421 
L 172.592037 -169.721627 
L 172.656295 -170.993833 
L 172.741817 -172.26604 
L 172.852109 -173.538246 
L 172.990182 -174.810452 
L 173.158496 -176.082658 
L 173.358915 -177.354865 
L 173.592683 -178.627071 
L 173.860405 -179.899277 
L 174.162051 -181.171484 
L 174.496972 -182.44369 
L 174.863923 -183.715896 
L 175.261105 -184.988102 
L 175.686212 -186.260309 
L 176.136488 -187.532515 
L 176.608792 -188.804721 
L 177.09967 -190.076928 
L 177.605428 -191.349134 
L 178.12221 -192.62134 
L 178.646074 -193.893546 
L 179.173068 -195.165753 
L 179.699305 -196.437959 
L 180.221028 -197.710165 
L 180.734676 -198.982371 
L 181.236936 -200.254578 
L 181.724792 -201.526784 
L 182.19556 -202.79899 
L 182.646918 -204.071197 
L 183.076926 -205.343403 
L 183.48403 -206.615609 
L 183.867065 -207.887815 
L 184.225249 -209.160022 
L 184.558161 -210.432228 
L 184.865719 -211.704434 
L 185.148154 -212.97664 
L 185.405978 -214.248847 
L 185.639942 -215.521053 
L 185.851006 -216.793259 
L 186.040295 -218.065466 
L 186.209065 -219.337672 
L 186.358664 -220.609878 
L 188.137586 -220.609878 
L 188.137586 -220.609878 
L 188.287185 -219.337672 
L 188.455955 -218.065466 
L 188.645244 -216.793259 
L 188.856308 -215.521053 
L 189.090272 -214.248847 
L 189.348096 -212.97664 
L 189.630531 -211.704434 
L 189.938089 -210.432228 
L 190.271001 -209.160022 
L 190.629185 -207.887815 
L 191.01222 -206.615609 
L 191.419324 -205.343403 
L 191.849332 -204.071197 
L 192.30069 -202.79899 
L 192.771458 -201.526784 
L 193.259314 -200.254578 
L 193.761574 -198.982371 
L 194.275222 -197.710165 
L 194.796945 -196.437959 
L 195.323182 -195.165753 
L 195.850176 -193.893546 
L 196.37404 -192.62134 
L 196.890822 -191.349134 
L 197.39658 -190.076928 
L 197.887458 -188.804721 
L 198.359762 -187.532515 
L 198.810038 -186.260309 
L 199.235145 -184.988102 
L 199.632327 -183.715896 
L 199.999278 -182.44369 
L 200.334199 -181.171484 
L 200.635845 -179.899277 
L 200.903567 -178.627071 
L 201.137335 -177.354865 
L 201.337754 -176.082658 
L 201.506068 -174.810452 
L 201.644141 -173.538246 
L 201.754433 -172.26604 
L 201.839955 -170.993833 
L 201.904213 -169.721627 
L 201.951132 -168.449421 
L 201.984973 -167.177215 
L 202.01023 -165.905008 
L 202.031518 -164.632802 
L 202.053457 -163.360596 
L 202.080537 -162.088389 
L 202.11699 -160.816183 
L 202.166655 -159.543977 
L 202.232849 -158.271771 
L 202.31824 -156.999564 
L 202.424743 -155.727358 
L 202.553413 -154.455152 
L 202.704379 -153.182946 
L 202.876784 -151.910739 
L 203.068761 -150.638533 
L 203.27744 -149.366327 
L 203.498977 -148.09412 
L 203.728627 -146.821914 
L 203.960837 -145.549708 
L 204.189374 -144.277502 
L 204.407483 -143.005295 
L 204.608057 -141.733089 
L 204.783836 -140.460883 
L 204.927605 -139.188676 
L 205.032406 -137.91647 
L 205.091741 -136.644264 
L 205.099767 -135.372058 
L 205.051473 -134.099851 
L 204.942833 -132.827645 
L 204.770932 -131.555439 
L 204.534055 -130.283233 
L 204.231744 -129.011026 
L 203.864811 -127.73882 
L 203.435321 -126.466614 
L 202.946524 -125.194407 
L 202.402773 -123.922201 
L 201.809392 -122.649995 
L 201.172528 -121.377789 
L 200.498991 -120.105582 
L 199.796062 -118.833376 
L 199.071317 -117.56117 
L 198.332434 -116.288964 
L 197.587016 -115.016757 
L 196.842425 -113.744551 
L 196.105627 -112.472345 
L 195.383069 -111.200138 
L 194.680566 -109.927932 
L 194.003225 -108.655726 
L 193.355387 -107.38352 
L 192.740598 -106.111313 
L 192.161605 -104.839107 
L 191.620369 -103.566901 
L 191.1181 -102.294694 
L 190.655313 -101.022488 
L 190.231887 -99.750282 
L 189.847141 -98.478076 
L 189.499911 -97.205869 
L 189.188637 -95.933663 
L 188.911439 -94.661457 
z
" id="m5ef6a7a90e" style="stroke:#3f3f3f;stroke-width:1.5;"/>
    </defs>
    <g clip-path="url(#p5c4a3fc8fd)">
     <use style="fill:#3274a1;stroke:#3f3f3f;stroke-width:1.5;" x="0" xlink:href="#m5ef6a7a90e" y="356.559522"/>
    </g>
   </g>
   <g id="PolyCollection_3">
    <defs>
     <path d="M 278.628773 -110.542665 
L 274.427477 -110.542665 
L 274.050442 -111.223469 
L 273.622472 -111.904274 
L 273.139999 -112.585078 
L 272.599803 -113.265883 
L 271.999133 -113.946687 
L 271.335827 -114.627492 
L 270.608428 -115.308296 
L 269.816288 -115.989101 
L 268.959668 -116.669906 
L 268.039815 -117.35071 
L 267.059008 -118.031515 
L 266.020594 -118.712319 
L 264.928978 -119.393124 
L 263.789591 -120.073928 
L 262.608819 -120.754733 
L 261.393905 -121.435537 
L 260.152817 -122.116342 
L 258.894093 -122.797146 
L 257.626664 -123.477951 
L 256.359665 -124.158756 
L 255.102243 -124.83956 
L 253.863357 -125.520365 
L 252.651599 -126.201169 
L 251.475027 -126.881974 
L 250.341025 -127.562778 
L 249.256185 -128.243583 
L 248.226235 -128.924387 
L 247.255991 -129.605192 
L 246.349348 -130.285996 
L 245.509303 -130.966801 
L 244.738006 -131.647606 
L 244.036834 -132.32841 
L 243.406481 -133.009215 
L 242.847059 -133.690019 
L 242.358191 -134.370824 
L 241.939115 -135.051628 
L 241.588762 -135.732433 
L 241.305826 -136.413237 
L 241.088814 -137.094042 
L 240.936079 -137.774846 
L 240.845828 -138.455651 
L 240.816125 -139.136455 
L 240.844874 -139.81726 
L 240.929799 -140.498065 
L 241.068422 -141.178869 
L 241.258051 -141.859674 
L 241.495766 -142.540478 
L 241.778435 -143.221283 
L 242.102734 -143.902087 
L 242.465189 -144.582892 
L 242.862241 -145.263696 
L 243.290322 -145.944501 
L 243.745939 -146.625305 
L 244.225778 -147.30611 
L 244.726796 -147.986915 
L 245.246316 -148.667719 
L 245.782109 -149.348524 
L 246.332461 -150.029328 
L 246.896217 -150.710133 
L 247.472794 -151.390937 
L 248.06218 -152.071742 
L 248.664892 -152.752546 
L 249.28191 -153.433351 
L 249.914588 -154.114155 
L 250.564545 -154.79496 
L 251.233537 -155.475765 
L 251.92332 -156.156569 
L 252.635508 -156.837374 
L 253.371443 -157.518178 
L 254.132063 -158.198983 
L 254.917792 -158.879787 
L 255.728453 -159.560592 
L 256.563199 -160.241396 
L 257.420481 -160.922201 
L 258.298035 -161.603005 
L 259.192906 -162.28381 
L 260.101495 -162.964615 
L 261.019634 -163.645419 
L 261.942685 -164.326224 
L 262.865647 -165.007028 
L 263.783286 -165.687833 
L 264.690268 -166.368637 
L 265.581291 -167.049442 
L 266.451217 -167.730246 
L 267.295194 -168.411051 
L 268.108763 -169.091855 
L 268.887957 -169.77266 
L 269.629368 -170.453464 
L 270.330207 -171.134269 
L 270.988332 -171.815074 
L 271.602267 -172.495878 
L 272.171187 -173.176683 
L 272.694899 -173.857487 
L 273.173797 -174.538292 
L 273.608809 -175.219096 
L 274.001334 -175.899901 
L 274.353174 -176.580705 
L 274.666454 -177.26151 
L 274.943553 -177.942314 
L 278.112697 -177.942314 
L 278.112697 -177.942314 
L 278.389796 -177.26151 
L 278.703076 -176.580705 
L 279.054916 -175.899901 
L 279.447441 -175.219096 
L 279.882453 -174.538292 
L 280.361351 -173.857487 
L 280.885063 -173.176683 
L 281.453983 -172.495878 
L 282.067918 -171.815074 
L 282.726043 -171.134269 
L 283.426882 -170.453464 
L 284.168293 -169.77266 
L 284.947487 -169.091855 
L 285.761056 -168.411051 
L 286.605033 -167.730246 
L 287.474959 -167.049442 
L 288.365982 -166.368637 
L 289.272964 -165.687833 
L 290.190603 -165.007028 
L 291.113565 -164.326224 
L 292.036616 -163.645419 
L 292.954755 -162.964615 
L 293.863344 -162.28381 
L 294.758215 -161.603005 
L 295.635769 -160.922201 
L 296.493051 -160.241396 
L 297.327797 -159.560592 
L 298.138458 -158.879787 
L 298.924187 -158.198983 
L 299.684807 -157.518178 
L 300.420742 -156.837374 
L 301.13293 -156.156569 
L 301.822713 -155.475765 
L 302.491705 -154.79496 
L 303.141662 -154.114155 
L 303.77434 -153.433351 
L 304.391358 -152.752546 
L 304.99407 -152.071742 
L 305.583456 -151.390937 
L 306.160033 -150.710133 
L 306.723789 -150.029328 
L 307.274141 -149.348524 
L 307.809934 -148.667719 
L 308.329454 -147.986915 
L 308.830472 -147.30611 
L 309.310311 -146.625305 
L 309.765928 -145.944501 
L 310.194009 -145.263696 
L 310.591061 -144.582892 
L 310.953516 -143.902087 
L 311.277815 -143.221283 
L 311.560484 -142.540478 
L 311.798199 -141.859674 
L 311.987828 -141.178869 
L 312.126451 -140.498065 
L 312.211376 -139.81726 
L 312.240125 -139.136455 
L 312.210422 -138.455651 
L 312.120171 -137.774846 
L 311.967436 -137.094042 
L 311.750424 -136.413237 
L 311.467488 -135.732433 
L 311.117135 -135.051628 
L 310.698059 -134.370824 
L 310.209191 -133.690019 
L 309.649769 -133.009215 
L 309.019416 -132.32841 
L 308.318244 -131.647606 
L 307.546947 -130.966801 
L 306.706902 -130.285996 
L 305.800259 -129.605192 
L 304.830015 -128.924387 
L 303.800065 -128.243583 
L 302.715225 -127.562778 
L 301.581223 -126.881974 
L 300.404651 -126.201169 
L 299.192893 -125.520365 
L 297.954007 -124.83956 
L 296.696585 -124.158756 
L 295.429586 -123.477951 
L 294.162157 -122.797146 
L 292.903433 -122.116342 
L 291.662345 -121.435537 
L 290.447431 -120.754733 
L 289.266659 -120.073928 
L 288.127272 -119.393124 
L 287.035656 -118.712319 
L 285.997242 -118.031515 
L 285.016435 -117.35071 
L 284.096582 -116.669906 
L 283.239962 -115.989101 
L 282.447822 -115.308296 
L 281.720423 -114.627492 
L 281.057117 -113.946687 
L 280.456447 -113.265883 
L 279.916251 -112.585078 
L 279.433778 -111.904274 
L 279.005808 -111.223469 
L 278.628773 -110.542665 
z
" id="m4eade717e1" style="stroke:#3f3f3f;stroke-width:1.5;"/>
    </defs>
    <g clip-path="url(#p5c4a3fc8fd)">
     <use style="fill:#b5c8e1;stroke:#3f3f3f;stroke-width:1.5;" x="0" xlink:href="#m4eade717e1" y="356.559522"/>
    </g>
   </g>
   <g id="PolyCollection_4">
    <defs>
     <path d="M 367.328207 -80.225397 
L 364.288043 -80.225397 
L 363.999727 -81.302749 
L 363.669162 -82.380101 
L 363.292737 -83.457454 
L 362.867022 -84.534806 
L 362.388879 -85.612158 
L 361.855573 -86.689511 
L 361.264898 -87.766863 
L 360.61529 -88.844215 
L 359.905953 -89.921568 
L 359.136964 -90.99892 
L 358.309372 -92.076272 
L 357.42528 -93.153625 
L 356.487904 -94.230977 
L 355.501604 -95.308329 
L 354.471892 -96.385682 
L 353.405398 -97.463034 
L 352.309817 -98.540387 
L 351.193806 -99.617739 
L 350.066864 -100.695091 
L 348.939173 -101.772444 
L 347.821417 -102.849796 
L 346.72458 -103.927148 
L 345.659733 -105.004501 
L 344.637806 -106.081853 
L 343.669365 -107.159205 
L 342.764402 -108.236558 
L 341.932127 -109.31391 
L 341.18079 -110.391262 
L 340.517526 -111.468615 
L 339.948234 -112.545967 
L 339.477486 -113.623319 
L 339.108474 -114.700672 
L 338.842989 -115.778024 
L 338.681437 -116.855376 
L 338.622889 -117.932729 
L 338.665144 -119.010081 
L 338.804833 -120.087433 
L 339.037527 -121.164786 
L 339.357862 -122.242138 
L 339.759667 -123.31949 
L 340.236101 -124.396843 
L 340.779781 -125.474195 
L 341.38291 -126.551547 
L 342.037397 -127.6289 
L 342.734968 -128.706252 
L 343.467272 -129.783605 
L 344.225977 -130.860957 
L 345.002863 -131.938309 
L 345.789908 -133.015662 
L 346.579374 -134.093014 
L 347.363888 -135.170366 
L 348.136525 -136.247719 
L 348.89089 -137.325071 
L 349.6212 -138.402423 
L 350.322361 -139.479776 
L 350.990043 -140.557128 
L 351.620745 -141.63448 
L 352.211855 -142.711833 
L 352.761688 -143.789185 
L 353.269514 -144.866537 
L 353.735559 -145.94389 
L 354.160984 -147.021242 
L 354.547844 -148.098594 
L 354.899015 -149.175947 
L 355.218099 -150.253299 
L 355.509305 -151.330651 
L 355.77731 -152.408004 
L 356.027108 -153.485356 
L 356.263842 -154.562708 
L 356.492642 -155.640061 
L 356.718455 -156.717413 
L 356.94589 -157.794765 
L 357.179081 -158.872118 
L 357.421559 -159.94947 
L 357.676164 -161.026823 
L 357.944974 -162.104175 
L 358.229269 -163.181527 
L 358.529525 -164.25888 
L 358.845441 -165.336232 
L 359.175984 -166.413584 
L 359.519474 -167.490937 
L 359.873671 -168.568289 
L 360.235891 -169.645641 
L 360.603124 -170.722994 
L 360.972158 -171.800346 
L 361.339698 -172.877698 
L 361.702487 -173.955051 
L 362.057405 -175.032403 
L 362.401562 -176.109755 
L 362.732374 -177.187108 
L 363.047617 -178.26446 
L 363.345465 -179.341812 
L 363.624515 -180.419165 
L 363.883783 -181.496517 
L 364.1227 -182.573869 
L 364.341082 -183.651222 
L 364.539099 -184.728574 
L 364.717232 -185.805926 
L 364.876227 -186.883279 
L 366.740023 -186.883279 
L 366.740023 -186.883279 
L 366.899018 -185.805926 
L 367.077151 -184.728574 
L 367.275168 -183.651222 
L 367.49355 -182.573869 
L 367.732467 -181.496517 
L 367.991735 -180.419165 
L 368.270785 -179.341812 
L 368.568633 -178.26446 
L 368.883876 -177.187108 
L 369.214688 -176.109755 
L 369.558845 -175.032403 
L 369.913763 -173.955051 
L 370.276552 -172.877698 
L 370.644092 -171.800346 
L 371.013126 -170.722994 
L 371.380359 -169.645641 
L 371.742579 -168.568289 
L 372.096776 -167.490937 
L 372.440266 -166.413584 
L 372.770809 -165.336232 
L 373.086725 -164.25888 
L 373.386981 -163.181527 
L 373.671276 -162.104175 
L 373.940086 -161.026823 
L 374.194691 -159.94947 
L 374.437169 -158.872118 
L 374.67036 -157.794765 
L 374.897795 -156.717413 
L 375.123608 -155.640061 
L 375.352408 -154.562708 
L 375.589142 -153.485356 
L 375.83894 -152.408004 
L 376.106945 -151.330651 
L 376.398151 -150.253299 
L 376.717235 -149.175947 
L 377.068406 -148.098594 
L 377.455266 -147.021242 
L 377.880691 -145.94389 
L 378.346736 -144.866537 
L 378.854562 -143.789185 
L 379.404395 -142.711833 
L 379.995505 -141.63448 
L 380.626207 -140.557128 
L 381.293889 -139.479776 
L 381.99505 -138.402423 
L 382.72536 -137.325071 
L 383.479725 -136.247719 
L 384.252362 -135.170366 
L 385.036876 -134.093014 
L 385.826342 -133.015662 
L 386.613387 -131.938309 
L 387.390273 -130.860957 
L 388.148978 -129.783605 
L 388.881282 -128.706252 
L 389.578853 -127.6289 
L 390.23334 -126.551547 
L 390.836469 -125.474195 
L 391.380149 -124.396843 
L 391.856583 -123.31949 
L 392.258388 -122.242138 
L 392.578723 -121.164786 
L 392.811417 -120.087433 
L 392.951106 -119.010081 
L 392.993361 -117.932729 
L 392.934813 -116.855376 
L 392.773261 -115.778024 
L 392.507776 -114.700672 
L 392.138764 -113.623319 
L 391.668016 -112.545967 
L 391.098724 -111.468615 
L 390.43546 -110.391262 
L 389.684123 -109.31391 
L 388.851848 -108.236558 
L 387.946885 -107.159205 
L 386.978444 -106.081853 
L 385.956517 -105.004501 
L 384.89167 -103.927148 
L 383.794833 -102.849796 
L 382.677077 -101.772444 
L 381.549386 -100.695091 
L 380.422444 -99.617739 
L 379.306433 -98.540387 
L 378.210852 -97.463034 
L 377.144358 -96.385682 
L 376.114646 -95.308329 
L 375.128346 -94.230977 
L 374.19097 -93.153625 
L 373.306878 -92.076272 
L 372.479286 -90.99892 
L 371.710297 -89.921568 
L 371.00096 -88.844215 
L 370.351352 -87.766863 
L 369.760677 -86.689511 
L 369.227371 -85.612158 
L 368.749228 -84.534806 
L 368.323513 -83.457454 
L 367.947088 -82.380101 
L 367.616523 -81.302749 
L 367.328207 -80.225397 
z
" id="m9d6de3b448" style="stroke:#3f3f3f;stroke-width:1.5;"/>
    </defs>
    <g clip-path="url(#p5c4a3fc8fd)">
     <use style="fill:#e1812c;stroke:#3f3f3f;stroke-width:1.5;" x="0" xlink:href="#m9d6de3b448" y="356.559522"/>
    </g>
   </g>
   <g id="matplotlib.axis_1">
    <g id="xtick_1">
     <g id="line2d_1">
      <defs>
       <path d="M 0 0 
L 0 3.5 
" id="me9947a2ab8" style="stroke:#000000;stroke-width:0.8;"/>
      </defs>
      <g>
       <use style="stroke:#000000;stroke-width:0.8;" x="97.968125" xlink:href="#me9947a2ab8" y="288.430125"/>
      </g>
     </g>
     <g id="text_1">
      <!-- fairfuzz -->
      <g transform="translate(64.97871 320.456659)rotate(-30)scale(0.1 -0.1)">
       <defs>
        <path d="M 37.109375 75.984375 
L 37.109375 68.5 
L 28.515625 68.5 
Q 23.6875 68.5 21.796875 66.546875 
Q 19.921875 64.59375 19.921875 59.515625 
L 19.921875 54.6875 
L 34.71875 54.6875 
L 34.71875 47.703125 
L 19.921875 47.703125 
L 19.921875 0 
L 10.890625 0 
L 10.890625 47.703125 
L 2.296875 47.703125 
L 2.296875 54.6875 
L 10.890625 54.6875 
L 10.890625 58.5 
Q 10.890625 67.625 15.140625 71.796875 
Q 19.390625 75.984375 28.609375 75.984375 
z
" id="DejaVuSans-102"/>
        <path d="M 34.28125 27.484375 
Q 23.390625 27.484375 19.1875 25 
Q 14.984375 22.515625 14.984375 16.5 
Q 14.984375 11.71875 18.140625 8.90625 
Q 21.296875 6.109375 26.703125 6.109375 
Q 34.1875 6.109375 38.703125 11.40625 
Q 43.21875 16.703125 43.21875 25.484375 
L 43.21875 27.484375 
z
M 52.203125 31.203125 
L 52.203125 0 
L 43.21875 0 
L 43.21875 8.296875 
Q 40.140625 3.328125 35.546875 0.953125 
Q 30.953125 -1.421875 24.3125 -1.421875 
Q 15.921875 -1.421875 10.953125 3.296875 
Q 6 8.015625 6 15.921875 
Q 6 25.140625 12.171875 29.828125 
Q 18.359375 34.515625 30.609375 34.515625 
L 43.21875 34.515625 
L 43.21875 35.40625 
Q 43.21875 41.609375 39.140625 45 
Q 35.0625 48.390625 27.6875 48.390625 
Q 23 48.390625 18.546875 47.265625 
Q 14.109375 46.140625 10.015625 43.890625 
L 10.015625 52.203125 
Q 14.9375 54.109375 19.578125 55.046875 
Q 24.21875 56 28.609375 56 
Q 40.484375 56 46.34375 49.84375 
Q 52.203125 43.703125 52.203125 31.203125 
z
" id="DejaVuSans-97"/>
        <path d="M 9.421875 54.6875 
L 18.40625 54.6875 
L 18.40625 0 
L 9.421875 0 
z
M 9.421875 75.984375 
L 18.40625 75.984375 
L 18.40625 64.59375 
L 9.421875 64.59375 
z
" id="DejaVuSans-105"/>
        <path d="M 41.109375 46.296875 
Q 39.59375 47.171875 37.8125 47.578125 
Q 36.03125 48 33.890625 48 
Q 26.265625 48 22.1875 43.046875 
Q 18.109375 38.09375 18.109375 28.8125 
L 18.109375 0 
L 9.078125 0 
L 9.078125 54.6875 
L 18.109375 54.6875 
L 18.109375 46.1875 
Q 20.953125 51.171875 25.484375 53.578125 
Q 30.03125 56 36.53125 56 
Q 37.453125 56 38.578125 55.875 
Q 39.703125 55.765625 41.0625 55.515625 
z
" id="DejaVuSans-114"/>
        <path d="M 8.5 21.578125 
L 8.5 54.6875 
L 17.484375 54.6875 
L 17.484375 21.921875 
Q 17.484375 14.15625 20.5 10.265625 
Q 23.53125 6.390625 29.59375 6.390625 
Q 36.859375 6.390625 41.078125 11.03125 
Q 45.3125 15.671875 45.3125 23.6875 
L 45.3125 54.6875 
L 54.296875 54.6875 
L 54.296875 0 
L 45.3125 0 
L 45.3125 8.40625 
Q 42.046875 3.421875 37.71875 1 
Q 33.40625 -1.421875 27.6875 -1.421875 
Q 18.265625 -1.421875 13.375 4.4375 
Q 8.5 10.296875 8.5 21.578125 
z
M 31.109375 56 
z
" id="DejaVuSans-117"/>
        <path d="M 5.515625 54.6875 
L 48.1875 54.6875 
L 48.1875 46.484375 
L 14.40625 7.171875 
L 48.1875 7.171875 
L 48.1875 0 
L 4.296875 0 
L 4.296875 8.203125 
L 38.09375 47.515625 
L 5.515625 47.515625 
z
" id="DejaVuSans-122"/>
       </defs>
       <use xlink:href="#DejaVuSans-102"/>
       <use x="35.205078" xlink:href="#DejaVuSans-97"/>
       <use x="96.484375" xlink:href="#DejaVuSans-105"/>
       <use x="124.267578" xlink:href="#DejaVuSans-114"/>
       <use x="165.380859" xlink:href="#DejaVuSans-102"/>
       <use x="200.585938" xlink:href="#DejaVuSans-117"/>
       <use x="263.964844" xlink:href="#DejaVuSans-122"/>
       <use x="316.455078" xlink:href="#DejaVuSans-122"/>
      </g>
     </g>
    </g>
    <g id="xtick_2">
     <g id="line2d_2">
      <g>
       <use style="stroke:#000000;stroke-width:0.8;" x="187.248125" xlink:href="#me9947a2ab8" y="288.430125"/>
      </g>
     </g>
     <g id="text_2">
      <!-- afl -->
      <g transform="translate(175.446562 308.223846)rotate(-30)scale(0.1 -0.1)">
       <defs>
        <path d="M 9.421875 75.984375 
L 18.40625 75.984375 
L 18.40625 0 
L 9.421875 0 
z
" id="DejaVuSans-108"/>
       </defs>
       <use xlink:href="#DejaVuSans-97"/>
       <use x="61.279297" xlink:href="#DejaVuSans-102"/>
       <use x="96.484375" xlink:href="#DejaVuSans-108"/>
      </g>
     </g>
    </g>
    <g id="xtick_3">
     <g id="line2d_3">
      <g>
       <use style="stroke:#000000;stroke-width:0.8;" x="276.528125" xlink:href="#me9947a2ab8" y="288.430125"/>
      </g>
     </g>
     <g id="text_3">
      <!-- dark -->
      <g transform="translate(256.108257 313.199627)rotate(-30)scale(0.1 -0.1)">
       <defs>
        <path d="M 45.40625 46.390625 
L 45.40625 75.984375 
L 54.390625 75.984375 
L 54.390625 0 
L 45.40625 0 
L 45.40625 8.203125 
Q 42.578125 3.328125 38.25 0.953125 
Q 33.9375 -1.421875 27.875 -1.421875 
Q 17.96875 -1.421875 11.734375 6.484375 
Q 5.515625 14.40625 5.515625 27.296875 
Q 5.515625 40.1875 11.734375 48.09375 
Q 17.96875 56 27.875 56 
Q 33.9375 56 38.25 53.625 
Q 42.578125 51.265625 45.40625 46.390625 
z
M 14.796875 27.296875 
Q 14.796875 17.390625 18.875 11.75 
Q 22.953125 6.109375 30.078125 6.109375 
Q 37.203125 6.109375 41.296875 11.75 
Q 45.40625 17.390625 45.40625 27.296875 
Q 45.40625 37.203125 41.296875 42.84375 
Q 37.203125 48.484375 30.078125 48.484375 
Q 22.953125 48.484375 18.875 42.84375 
Q 14.796875 37.203125 14.796875 27.296875 
z
" id="DejaVuSans-100"/>
        <path d="M 9.078125 75.984375 
L 18.109375 75.984375 
L 18.109375 31.109375 
L 44.921875 54.6875 
L 56.390625 54.6875 
L 27.390625 29.109375 
L 57.625 0 
L 45.90625 0 
L 18.109375 26.703125 
L 18.109375 0 
L 9.078125 0 
z
" id="DejaVuSans-107"/>
       </defs>
       <use xlink:href="#DejaVuSans-100"/>
       <use x="63.476562" xlink:href="#DejaVuSans-97"/>
       <use x="124.755859" xlink:href="#DejaVuSans-114"/>
       <use x="165.869141" xlink:href="#DejaVuSans-107"/>
      </g>
     </g>
    </g>
    <g id="xtick_4">
     <g id="line2d_4">
      <g>
       <use style="stroke:#000000;stroke-width:0.8;" x="365.808125" xlink:href="#me9947a2ab8" y="288.430125"/>
      </g>
     </g>
     <g id="text_4">
      <!-- dark_w_prob -->
      <g transform="translate(309.846346 333.639471)rotate(-30)scale(0.1 -0.1)">
       <defs>
        <path d="M 50.984375 -16.609375 
L 50.984375 -23.578125 
L -0.984375 -23.578125 
L -0.984375 -16.609375 
z
" id="DejaVuSans-95"/>
        <path d="M 4.203125 54.6875 
L 13.1875 54.6875 
L 24.421875 12.015625 
L 35.59375 54.6875 
L 46.1875 54.6875 
L 57.421875 12.015625 
L 68.609375 54.6875 
L 77.59375 54.6875 
L 63.28125 0 
L 52.6875 0 
L 40.921875 44.828125 
L 29.109375 0 
L 18.5 0 
z
" id="DejaVuSans-119"/>
        <path d="M 18.109375 8.203125 
L 18.109375 -20.796875 
L 9.078125 -20.796875 
L 9.078125 54.6875 
L 18.109375 54.6875 
L 18.109375 46.390625 
Q 20.953125 51.265625 25.265625 53.625 
Q 29.59375 56 35.59375 56 
Q 45.5625 56 51.78125 48.09375 
Q 58.015625 40.1875 58.015625 27.296875 
Q 58.015625 14.40625 51.78125 6.484375 
Q 45.5625 -1.421875 35.59375 -1.421875 
Q 29.59375 -1.421875 25.265625 0.953125 
Q 20.953125 3.328125 18.109375 8.203125 
z
M 48.6875 27.296875 
Q 48.6875 37.203125 44.609375 42.84375 
Q 40.53125 48.484375 33.40625 48.484375 
Q 26.265625 48.484375 22.1875 42.84375 
Q 18.109375 37.203125 18.109375 27.296875 
Q 18.109375 17.390625 22.1875 11.75 
Q 26.265625 6.109375 33.40625 6.109375 
Q 40.53125 6.109375 44.609375 11.75 
Q 48.6875 17.390625 48.6875 27.296875 
z
" id="DejaVuSans-112"/>
        <path d="M 30.609375 48.390625 
Q 23.390625 48.390625 19.1875 42.75 
Q 14.984375 37.109375 14.984375 27.296875 
Q 14.984375 17.484375 19.15625 11.84375 
Q 23.34375 6.203125 30.609375 6.203125 
Q 37.796875 6.203125 41.984375 11.859375 
Q 46.1875 17.53125 46.1875 27.296875 
Q 46.1875 37.015625 41.984375 42.703125 
Q 37.796875 48.390625 30.609375 48.390625 
z
M 30.609375 56 
Q 42.328125 56 49.015625 48.375 
Q 55.71875 40.765625 55.71875 27.296875 
Q 55.71875 13.875 49.015625 6.21875 
Q 42.328125 -1.421875 30.609375 -1.421875 
Q 18.84375 -1.421875 12.171875 6.21875 
Q 5.515625 13.875 5.515625 27.296875 
Q 5.515625 40.765625 12.171875 48.375 
Q 18.84375 56 30.609375 56 
z
" id="DejaVuSans-111"/>
        <path d="M 48.6875 27.296875 
Q 48.6875 37.203125 44.609375 42.84375 
Q 40.53125 48.484375 33.40625 48.484375 
Q 26.265625 48.484375 22.1875 42.84375 
Q 18.109375 37.203125 18.109375 27.296875 
Q 18.109375 17.390625 22.1875 11.75 
Q 26.265625 6.109375 33.40625 6.109375 
Q 40.53125 6.109375 44.609375 11.75 
Q 48.6875 17.390625 48.6875 27.296875 
z
M 18.109375 46.390625 
Q 20.953125 51.265625 25.265625 53.625 
Q 29.59375 56 35.59375 56 
Q 45.5625 56 51.78125 48.09375 
Q 58.015625 40.1875 58.015625 27.296875 
Q 58.015625 14.40625 51.78125 6.484375 
Q 45.5625 -1.421875 35.59375 -1.421875 
Q 29.59375 -1.421875 25.265625 0.953125 
Q 20.953125 3.328125 18.109375 8.203125 
L 18.109375 0 
L 9.078125 0 
L 9.078125 75.984375 
L 18.109375 75.984375 
z
" id="DejaVuSans-98"/>
       </defs>
       <use xlink:href="#DejaVuSans-100"/>
       <use x="63.476562" xlink:href="#DejaVuSans-97"/>
       <use x="124.755859" xlink:href="#DejaVuSans-114"/>
       <use x="165.869141" xlink:href="#DejaVuSans-107"/>
       <use x="223.779297" xlink:href="#DejaVuSans-95"/>
       <use x="273.779297" xlink:href="#DejaVuSans-119"/>
       <use x="355.566406" xlink:href="#DejaVuSans-95"/>
       <use x="405.566406" xlink:href="#DejaVuSans-112"/>
       <use x="469.042969" xlink:href="#DejaVuSans-114"/>
       <use x="507.90625" xlink:href="#DejaVuSans-111"/>
       <use x="569.087891" xlink:href="#DejaVuSans-98"/>
      </g>
     </g>
    </g>
    <g id="text_5">
     <!-- Fuzzer (highest median coverage on the left) -->
     <g transform="translate(119.270156 347.279834)scale(0.1 -0.1)">
      <defs>
       <path d="M 9.8125 72.90625 
L 51.703125 72.90625 
L 51.703125 64.59375 
L 19.671875 64.59375 
L 19.671875 43.109375 
L 48.578125 43.109375 
L 48.578125 34.8125 
L 19.671875 34.8125 
L 19.671875 0 
L 9.8125 0 
z
" id="DejaVuSans-70"/>
       <path d="M 56.203125 29.59375 
L 56.203125 25.203125 
L 14.890625 25.203125 
Q 15.484375 15.921875 20.484375 11.0625 
Q 25.484375 6.203125 34.421875 6.203125 
Q 39.59375 6.203125 44.453125 7.46875 
Q 49.3125 8.734375 54.109375 11.28125 
L 54.109375 2.78125 
Q 49.265625 0.734375 44.1875 -0.34375 
Q 39.109375 -1.421875 33.890625 -1.421875 
Q 20.796875 -1.421875 13.15625 6.1875 
Q 5.515625 13.8125 5.515625 26.8125 
Q 5.515625 40.234375 12.765625 48.109375 
Q 20.015625 56 32.328125 56 
Q 43.359375 56 49.78125 48.890625 
Q 56.203125 41.796875 56.203125 29.59375 
z
M 47.21875 32.234375 
Q 47.125 39.59375 43.09375 43.984375 
Q 39.0625 48.390625 32.421875 48.390625 
Q 24.90625 48.390625 20.390625 44.140625 
Q 15.875 39.890625 15.1875 32.171875 
z
" id="DejaVuSans-101"/>
       <path id="DejaVuSans-32"/>
       <path d="M 31 75.875 
Q 24.46875 64.65625 21.28125 53.65625 
Q 18.109375 42.671875 18.109375 31.390625 
Q 18.109375 20.125 21.3125 9.0625 
Q 24.515625 -2 31 -13.1875 
L 23.1875 -13.1875 
Q 15.875 -1.703125 12.234375 9.375 
Q 8.59375 20.453125 8.59375 31.390625 
Q 8.59375 42.28125 12.203125 53.3125 
Q 15.828125 64.359375 23.1875 75.875 
z
" id="DejaVuSans-40"/>
       <path d="M 54.890625 33.015625 
L 54.890625 0 
L 45.90625 0 
L 45.90625 32.71875 
Q 45.90625 40.484375 42.875 44.328125 
Q 39.84375 48.1875 33.796875 48.1875 
Q 26.515625 48.1875 22.3125 43.546875 
Q 18.109375 38.921875 18.109375 30.90625 
L 18.109375 0 
L 9.078125 0 
L 9.078125 75.984375 
L 18.109375 75.984375 
L 18.109375 46.1875 
Q 21.34375 51.125 25.703125 53.5625 
Q 30.078125 56 35.796875 56 
Q 45.21875 56 50.046875 50.171875 
Q 54.890625 44.34375 54.890625 33.015625 
z
" id="DejaVuSans-104"/>
       <path d="M 45.40625 27.984375 
Q 45.40625 37.75 41.375 43.109375 
Q 37.359375 48.484375 30.078125 48.484375 
Q 22.859375 48.484375 18.828125 43.109375 
Q 14.796875 37.75 14.796875 27.984375 
Q 14.796875 18.265625 18.828125 12.890625 
Q 22.859375 7.515625 30.078125 7.515625 
Q 37.359375 7.515625 41.375 12.890625 
Q 45.40625 18.265625 45.40625 27.984375 
z
M 54.390625 6.78125 
Q 54.390625 -7.171875 48.1875 -13.984375 
Q 42 -20.796875 29.203125 -20.796875 
Q 24.46875 -20.796875 20.265625 -20.09375 
Q 16.0625 -19.390625 12.109375 -17.921875 
L 12.109375 -9.1875 
Q 16.0625 -11.328125 19.921875 -12.34375 
Q 23.78125 -13.375 27.78125 -13.375 
Q 36.625 -13.375 41.015625 -8.765625 
Q 45.40625 -4.15625 45.40625 5.171875 
L 45.40625 9.625 
Q 42.625 4.78125 38.28125 2.390625 
Q 33.9375 0 27.875 0 
Q 17.828125 0 11.671875 7.65625 
Q 5.515625 15.328125 5.515625 27.984375 
Q 5.515625 40.671875 11.671875 48.328125 
Q 17.828125 56 27.875 56 
Q 33.9375 56 38.28125 53.609375 
Q 42.625 51.21875 45.40625 46.390625 
L 45.40625 54.6875 
L 54.390625 54.6875 
z
" id="DejaVuSans-103"/>
       <path d="M 44.28125 53.078125 
L 44.28125 44.578125 
Q 40.484375 46.53125 36.375 47.5 
Q 32.28125 48.484375 27.875 48.484375 
Q 21.1875 48.484375 17.84375 46.4375 
Q 14.5 44.390625 14.5 40.28125 
Q 14.5 37.15625 16.890625 35.375 
Q 19.28125 33.59375 26.515625 31.984375 
L 29.59375 31.296875 
Q 39.15625 29.25 43.1875 25.515625 
Q 47.21875 21.78125 47.21875 15.09375 
Q 47.21875 7.46875 41.1875 3.015625 
Q 35.15625 -1.421875 24.609375 -1.421875 
Q 20.21875 -1.421875 15.453125 -0.5625 
Q 10.6875 0.296875 5.421875 2 
L 5.421875 11.28125 
Q 10.40625 8.6875 15.234375 7.390625 
Q 20.0625 6.109375 24.8125 6.109375 
Q 31.15625 6.109375 34.5625 8.28125 
Q 37.984375 10.453125 37.984375 14.40625 
Q 37.984375 18.0625 35.515625 20.015625 
Q 33.0625 21.96875 24.703125 23.78125 
L 21.578125 24.515625 
Q 13.234375 26.265625 9.515625 29.90625 
Q 5.8125 33.546875 5.8125 39.890625 
Q 5.8125 47.609375 11.28125 51.796875 
Q 16.75 56 26.8125 56 
Q 31.78125 56 36.171875 55.265625 
Q 40.578125 54.546875 44.28125 53.078125 
z
" id="DejaVuSans-115"/>
       <path d="M 18.3125 70.21875 
L 18.3125 54.6875 
L 36.8125 54.6875 
L 36.8125 47.703125 
L 18.3125 47.703125 
L 18.3125 18.015625 
Q 18.3125 11.328125 20.140625 9.421875 
Q 21.96875 7.515625 27.59375 7.515625 
L 36.8125 7.515625 
L 36.8125 0 
L 27.59375 0 
Q 17.1875 0 13.234375 3.875 
Q 9.28125 7.765625 9.28125 18.015625 
L 9.28125 47.703125 
L 2.6875 47.703125 
L 2.6875 54.6875 
L 9.28125 54.6875 
L 9.28125 70.21875 
z
" id="DejaVuSans-116"/>
       <path d="M 52 44.1875 
Q 55.375 50.25 60.0625 53.125 
Q 64.75 56 71.09375 56 
Q 79.640625 56 84.28125 50.015625 
Q 88.921875 44.046875 88.921875 33.015625 
L 88.921875 0 
L 79.890625 0 
L 79.890625 32.71875 
Q 79.890625 40.578125 77.09375 44.375 
Q 74.3125 48.1875 68.609375 48.1875 
Q 61.625 48.1875 57.5625 43.546875 
Q 53.515625 38.921875 53.515625 30.90625 
L 53.515625 0 
L 44.484375 0 
L 44.484375 32.71875 
Q 44.484375 40.625 41.703125 44.40625 
Q 38.921875 48.1875 33.109375 48.1875 
Q 26.21875 48.1875 22.15625 43.53125 
Q 18.109375 38.875 18.109375 30.90625 
L 18.109375 0 
L 9.078125 0 
L 9.078125 54.6875 
L 18.109375 54.6875 
L 18.109375 46.1875 
Q 21.1875 51.21875 25.484375 53.609375 
Q 29.78125 56 35.6875 56 
Q 41.65625 56 45.828125 52.96875 
Q 50 49.953125 52 44.1875 
z
" id="DejaVuSans-109"/>
       <path d="M 54.890625 33.015625 
L 54.890625 0 
L 45.90625 0 
L 45.90625 32.71875 
Q 45.90625 40.484375 42.875 44.328125 
Q 39.84375 48.1875 33.796875 48.1875 
Q 26.515625 48.1875 22.3125 43.546875 
Q 18.109375 38.921875 18.109375 30.90625 
L 18.109375 0 
L 9.078125 0 
L 9.078125 54.6875 
L 18.109375 54.6875 
L 18.109375 46.1875 
Q 21.34375 51.125 25.703125 53.5625 
Q 30.078125 56 35.796875 56 
Q 45.21875 56 50.046875 50.171875 
Q 54.890625 44.34375 54.890625 33.015625 
z
" id="DejaVuSans-110"/>
       <path d="M 48.78125 52.59375 
L 48.78125 44.1875 
Q 44.96875 46.296875 41.140625 47.34375 
Q 37.3125 48.390625 33.40625 48.390625 
Q 24.65625 48.390625 19.8125 42.84375 
Q 14.984375 37.3125 14.984375 27.296875 
Q 14.984375 17.28125 19.8125 11.734375 
Q 24.65625 6.203125 33.40625 6.203125 
Q 37.3125 6.203125 41.140625 7.25 
Q 44.96875 8.296875 48.78125 10.40625 
L 48.78125 2.09375 
Q 45.015625 0.34375 40.984375 -0.53125 
Q 36.96875 -1.421875 32.421875 -1.421875 
Q 20.0625 -1.421875 12.78125 6.34375 
Q 5.515625 14.109375 5.515625 27.296875 
Q 5.515625 40.671875 12.859375 48.328125 
Q 20.21875 56 33.015625 56 
Q 37.15625 56 41.109375 55.140625 
Q 45.0625 54.296875 48.78125 52.59375 
z
" id="DejaVuSans-99"/>
       <path d="M 2.984375 54.6875 
L 12.5 54.6875 
L 29.59375 8.796875 
L 46.6875 54.6875 
L 56.203125 54.6875 
L 35.6875 0 
L 23.484375 0 
z
" id="DejaVuSans-118"/>
       <path d="M 8.015625 75.875 
L 15.828125 75.875 
Q 23.140625 64.359375 26.78125 53.3125 
Q 30.421875 42.28125 30.421875 31.390625 
Q 30.421875 20.453125 26.78125 9.375 
Q 23.140625 -1.703125 15.828125 -13.1875 
L 8.015625 -13.1875 
Q 14.5 -2 17.703125 9.0625 
Q 20.90625 20.125 20.90625 31.390625 
Q 20.90625 42.671875 17.703125 53.65625 
Q 14.5 64.65625 8.015625 75.875 
z
" id="DejaVuSans-41"/>
      </defs>
      <use xlink:href="#DejaVuSans-70"/>
      <use x="52.019531" xlink:href="#DejaVuSans-117"/>
      <use x="115.398438" xlink:href="#DejaVuSans-122"/>
      <use x="167.888672" xlink:href="#DejaVuSans-122"/>
      <use x="220.378906" xlink:href="#DejaVuSans-101"/>
      <use x="281.902344" xlink:href="#DejaVuSans-114"/>
      <use x="323.015625" xlink:href="#DejaVuSans-32"/>
      <use x="354.802734" xlink:href="#DejaVuSans-40"/>
      <use x="393.816406" xlink:href="#DejaVuSans-104"/>
      <use x="457.195312" xlink:href="#DejaVuSans-105"/>
      <use x="484.978516" xlink:href="#DejaVuSans-103"/>
      <use x="548.455078" xlink:href="#DejaVuSans-104"/>
      <use x="611.833984" xlink:href="#DejaVuSans-101"/>
      <use x="673.357422" xlink:href="#DejaVuSans-115"/>
      <use x="725.457031" xlink:href="#DejaVuSans-116"/>
      <use x="764.666016" xlink:href="#DejaVuSans-32"/>
      <use x="796.453125" xlink:href="#DejaVuSans-109"/>
      <use x="893.865234" xlink:href="#DejaVuSans-101"/>
      <use x="955.388672" xlink:href="#DejaVuSans-100"/>
      <use x="1018.865234" xlink:href="#DejaVuSans-105"/>
      <use x="1046.648438" xlink:href="#DejaVuSans-97"/>
      <use x="1107.927734" xlink:href="#DejaVuSans-110"/>
      <use x="1171.306641" xlink:href="#DejaVuSans-32"/>
      <use x="1203.09375" xlink:href="#DejaVuSans-99"/>
      <use x="1258.074219" xlink:href="#DejaVuSans-111"/>
      <use x="1319.255859" xlink:href="#DejaVuSans-118"/>
      <use x="1378.435547" xlink:href="#DejaVuSans-101"/>
      <use x="1439.958984" xlink:href="#DejaVuSans-114"/>
      <use x="1481.072266" xlink:href="#DejaVuSans-97"/>
      <use x="1542.351562" xlink:href="#DejaVuSans-103"/>
      <use x="1605.828125" xlink:href="#DejaVuSans-101"/>
      <use x="1667.351562" xlink:href="#DejaVuSans-32"/>
      <use x="1699.138672" xlink:href="#DejaVuSans-111"/>
      <use x="1760.320312" xlink:href="#DejaVuSans-110"/>
      <use x="1823.699219" xlink:href="#DejaVuSans-32"/>
      <use x="1855.486328" xlink:href="#DejaVuSans-116"/>
      <use x="1894.695312" xlink:href="#DejaVuSans-104"/>
      <use x="1958.074219" xlink:href="#DejaVuSans-101"/>
      <use x="2019.597656" xlink:href="#DejaVuSans-32"/>
      <use x="2051.384766" xlink:href="#DejaVuSans-108"/>
      <use x="2079.167969" xlink:href="#DejaVuSans-101"/>
      <use x="2140.691406" xlink:href="#DejaVuSans-102"/>
      <use x="2174.146484" xlink:href="#DejaVuSans-116"/>
      <use x="2213.355469" xlink:href="#DejaVuSans-41"/>
     </g>
    </g>
   </g>
   <g id="matplotlib.axis_2">
    <g id="ytick_1">
     <g id="line2d_5">
      <defs>
       <path d="M 0 0 
L -3.5 0 
" id="md3afd56663" style="stroke:#000000;stroke-width:0.8;"/>
      </defs>
      <g>
       <use style="stroke:#000000;stroke-width:0.8;" x="53.328125" xlink:href="#md3afd56663" y="269.716366"/>
      </g>
     </g>
     <g id="text_6">
      <!-- 6000 -->
      <g transform="translate(20.878125 273.515585)scale(0.1 -0.1)">
       <defs>
        <path d="M 33.015625 40.375 
Q 26.375 40.375 22.484375 35.828125 
Q 18.609375 31.296875 18.609375 23.390625 
Q 18.609375 15.53125 22.484375 10.953125 
Q 26.375 6.390625 33.015625 6.390625 
Q 39.65625 6.390625 43.53125 10.953125 
Q 47.40625 15.53125 47.40625 23.390625 
Q 47.40625 31.296875 43.53125 35.828125 
Q 39.65625 40.375 33.015625 40.375 
z
M 52.59375 71.296875 
L 52.59375 62.3125 
Q 48.875 64.0625 45.09375 64.984375 
Q 41.3125 65.921875 37.59375 65.921875 
Q 27.828125 65.921875 22.671875 59.328125 
Q 17.53125 52.734375 16.796875 39.40625 
Q 19.671875 43.65625 24.015625 45.921875 
Q 28.375 48.1875 33.59375 48.1875 
Q 44.578125 48.1875 50.953125 41.515625 
Q 57.328125 34.859375 57.328125 23.390625 
Q 57.328125 12.15625 50.6875 5.359375 
Q 44.046875 -1.421875 33.015625 -1.421875 
Q 20.359375 -1.421875 13.671875 8.265625 
Q 6.984375 17.96875 6.984375 36.375 
Q 6.984375 53.65625 15.1875 63.9375 
Q 23.390625 74.21875 37.203125 74.21875 
Q 40.921875 74.21875 44.703125 73.484375 
Q 48.484375 72.75 52.59375 71.296875 
z
" id="DejaVuSans-54"/>
        <path d="M 31.78125 66.40625 
Q 24.171875 66.40625 20.328125 58.90625 
Q 16.5 51.421875 16.5 36.375 
Q 16.5 21.390625 20.328125 13.890625 
Q 24.171875 6.390625 31.78125 6.390625 
Q 39.453125 6.390625 43.28125 13.890625 
Q 47.125 21.390625 47.125 36.375 
Q 47.125 51.421875 43.28125 58.90625 
Q 39.453125 66.40625 31.78125 66.40625 
z
M 31.78125 74.21875 
Q 44.046875 74.21875 50.515625 64.515625 
Q 56.984375 54.828125 56.984375 36.375 
Q 56.984375 17.96875 50.515625 8.265625 
Q 44.046875 -1.421875 31.78125 -1.421875 
Q 19.53125 -1.421875 13.0625 8.265625 
Q 6.59375 17.96875 6.59375 36.375 
Q 6.59375 54.828125 13.0625 64.515625 
Q 19.53125 74.21875 31.78125 74.21875 
z
" id="DejaVuSans-48"/>
       </defs>
       <use xlink:href="#DejaVuSans-54"/>
       <use x="63.623047" xlink:href="#DejaVuSans-48"/>
       <use x="127.246094" xlink:href="#DejaVuSans-48"/>
       <use x="190.869141" xlink:href="#DejaVuSans-48"/>
      </g>
     </g>
    </g>
    <g id="ytick_2">
     <g id="line2d_6">
      <g>
       <use style="stroke:#000000;stroke-width:0.8;" x="53.328125" xlink:href="#md3afd56663" y="236.728243"/>
      </g>
     </g>
     <g id="text_7">
      <!-- 6250 -->
      <g transform="translate(20.878125 240.527462)scale(0.1 -0.1)">
       <defs>
        <path d="M 19.1875 8.296875 
L 53.609375 8.296875 
L 53.609375 0 
L 7.328125 0 
L 7.328125 8.296875 
Q 12.9375 14.109375 22.625 23.890625 
Q 32.328125 33.6875 34.8125 36.53125 
Q 39.546875 41.84375 41.421875 45.53125 
Q 43.3125 49.21875 43.3125 52.78125 
Q 43.3125 58.59375 39.234375 62.25 
Q 35.15625 65.921875 28.609375 65.921875 
Q 23.96875 65.921875 18.8125 64.3125 
Q 13.671875 62.703125 7.8125 59.421875 
L 7.8125 69.390625 
Q 13.765625 71.78125 18.9375 73 
Q 24.125 74.21875 28.421875 74.21875 
Q 39.75 74.21875 46.484375 68.546875 
Q 53.21875 62.890625 53.21875 53.421875 
Q 53.21875 48.921875 51.53125 44.890625 
Q 49.859375 40.875 45.40625 35.40625 
Q 44.1875 33.984375 37.640625 27.21875 
Q 31.109375 20.453125 19.1875 8.296875 
z
" id="DejaVuSans-50"/>
        <path d="M 10.796875 72.90625 
L 49.515625 72.90625 
L 49.515625 64.59375 
L 19.828125 64.59375 
L 19.828125 46.734375 
Q 21.96875 47.46875 24.109375 47.828125 
Q 26.265625 48.1875 28.421875 48.1875 
Q 40.625 48.1875 47.75 41.5 
Q 54.890625 34.8125 54.890625 23.390625 
Q 54.890625 11.625 47.5625 5.09375 
Q 40.234375 -1.421875 26.90625 -1.421875 
Q 22.3125 -1.421875 17.546875 -0.640625 
Q 12.796875 0.140625 7.71875 1.703125 
L 7.71875 11.625 
Q 12.109375 9.234375 16.796875 8.0625 
Q 21.484375 6.890625 26.703125 6.890625 
Q 35.15625 6.890625 40.078125 11.328125 
Q 45.015625 15.765625 45.015625 23.390625 
Q 45.015625 31 40.078125 35.4375 
Q 35.15625 39.890625 26.703125 39.890625 
Q 22.75 39.890625 18.8125 39.015625 
Q 14.890625 38.140625 10.796875 36.28125 
z
" id="DejaVuSans-53"/>
       </defs>
       <use xlink:href="#DejaVuSans-54"/>
       <use x="63.623047" xlink:href="#DejaVuSans-50"/>
       <use x="127.246094" xlink:href="#DejaVuSans-53"/>
       <use x="190.869141" xlink:href="#DejaVuSans-48"/>
      </g>
     </g>
    </g>
    <g id="ytick_3">
     <g id="line2d_7">
      <g>
       <use style="stroke:#000000;stroke-width:0.8;" x="53.328125" xlink:href="#md3afd56663" y="203.74012"/>
      </g>
     </g>
     <g id="text_8">
      <!-- 6500 -->
      <g transform="translate(20.878125 207.539339)scale(0.1 -0.1)">
       <use xlink:href="#DejaVuSans-54"/>
       <use x="63.623047" xlink:href="#DejaVuSans-53"/>
       <use x="127.246094" xlink:href="#DejaVuSans-48"/>
       <use x="190.869141" xlink:href="#DejaVuSans-48"/>
      </g>
     </g>
    </g>
    <g id="ytick_4">
     <g id="line2d_8">
      <g>
       <use style="stroke:#000000;stroke-width:0.8;" x="53.328125" xlink:href="#md3afd56663" y="170.751997"/>
      </g>
     </g>
     <g id="text_9">
      <!-- 6750 -->
      <g transform="translate(20.878125 174.551216)scale(0.1 -0.1)">
       <defs>
        <path d="M 8.203125 72.90625 
L 55.078125 72.90625 
L 55.078125 68.703125 
L 28.609375 0 
L 18.3125 0 
L 43.21875 64.59375 
L 8.203125 64.59375 
z
" id="DejaVuSans-55"/>
       </defs>
       <use xlink:href="#DejaVuSans-54"/>
       <use x="63.623047" xlink:href="#DejaVuSans-55"/>
       <use x="127.246094" xlink:href="#DejaVuSans-53"/>
       <use x="190.869141" xlink:href="#DejaVuSans-48"/>
      </g>
     </g>
    </g>
    <g id="ytick_5">
     <g id="line2d_9">
      <g>
       <use style="stroke:#000000;stroke-width:0.8;" x="53.328125" xlink:href="#md3afd56663" y="137.763874"/>
      </g>
     </g>
     <g id="text_10">
      <!-- 7000 -->
      <g transform="translate(20.878125 141.563093)scale(0.1 -0.1)">
       <use xlink:href="#DejaVuSans-55"/>
       <use x="63.623047" xlink:href="#DejaVuSans-48"/>
       <use x="127.246094" xlink:href="#DejaVuSans-48"/>
       <use x="190.869141" xlink:href="#DejaVuSans-48"/>
      </g>
     </g>
    </g>
    <g id="ytick_6">
     <g id="line2d_10">
      <g>
       <use style="stroke:#000000;stroke-width:0.8;" x="53.328125" xlink:href="#md3afd56663" y="104.775751"/>
      </g>
     </g>
     <g id="text_11">
      <!-- 7250 -->
      <g transform="translate(20.878125 108.57497)scale(0.1 -0.1)">
       <use xlink:href="#DejaVuSans-55"/>
       <use x="63.623047" xlink:href="#DejaVuSans-50"/>
       <use x="127.246094" xlink:href="#DejaVuSans-53"/>
       <use x="190.869141" xlink:href="#DejaVuSans-48"/>
      </g>
     </g>
    </g>
    <g id="ytick_7">
     <g id="line2d_11">
      <g>
       <use style="stroke:#000000;stroke-width:0.8;" x="53.328125" xlink:href="#md3afd56663" y="71.787628"/>
      </g>
     </g>
     <g id="text_12">
      <!-- 7500 -->
      <g transform="translate(20.878125 75.586847)scale(0.1 -0.1)">
       <use xlink:href="#DejaVuSans-55"/>
       <use x="63.623047" xlink:href="#DejaVuSans-53"/>
       <use x="127.246094" xlink:href="#DejaVuSans-48"/>
       <use x="190.869141" xlink:href="#DejaVuSans-48"/>
      </g>
     </g>
    </g>
    <g id="ytick_8">
     <g id="line2d_12">
      <g>
       <use style="stroke:#000000;stroke-width:0.8;" x="53.328125" xlink:href="#md3afd56663" y="38.799505"/>
      </g>
     </g>
     <g id="text_13">
      <!-- 7750 -->
      <g transform="translate(20.878125 42.598724)scale(0.1 -0.1)">
       <use xlink:href="#DejaVuSans-55"/>
       <use x="63.623047" xlink:href="#DejaVuSans-55"/>
       <use x="127.246094" xlink:href="#DejaVuSans-53"/>
       <use x="190.869141" xlink:href="#DejaVuSans-48"/>
      </g>
     </g>
    </g>
    <g id="text_14">
     <!-- Reached edge coverage -->
     <g transform="translate(14.798438 215.82725)rotate(-90)scale(0.1 -0.1)">
      <defs>
       <path d="M 44.390625 34.1875 
Q 47.5625 33.109375 50.5625 29.59375 
Q 53.5625 26.078125 56.59375 19.921875 
L 66.609375 0 
L 56 0 
L 46.6875 18.703125 
Q 43.0625 26.03125 39.671875 28.421875 
Q 36.28125 30.8125 30.421875 30.8125 
L 19.671875 30.8125 
L 19.671875 0 
L 9.8125 0 
L 9.8125 72.90625 
L 32.078125 72.90625 
Q 44.578125 72.90625 50.734375 67.671875 
Q 56.890625 62.453125 56.890625 51.90625 
Q 56.890625 45.015625 53.6875 40.46875 
Q 50.484375 35.9375 44.390625 34.1875 
z
M 19.671875 64.796875 
L 19.671875 38.921875 
L 32.078125 38.921875 
Q 39.203125 38.921875 42.84375 42.21875 
Q 46.484375 45.515625 46.484375 51.90625 
Q 46.484375 58.296875 42.84375 61.546875 
Q 39.203125 64.796875 32.078125 64.796875 
z
" id="DejaVuSans-82"/>
      </defs>
      <use xlink:href="#DejaVuSans-82"/>
      <use x="64.982422" xlink:href="#DejaVuSans-101"/>
      <use x="126.505859" xlink:href="#DejaVuSans-97"/>
      <use x="187.785156" xlink:href="#DejaVuSans-99"/>
      <use x="242.765625" xlink:href="#DejaVuSans-104"/>
      <use x="306.144531" xlink:href="#DejaVuSans-101"/>
      <use x="367.667969" xlink:href="#DejaVuSans-100"/>
      <use x="431.144531" xlink:href="#DejaVuSans-32"/>
      <use x="462.931641" xlink:href="#DejaVuSans-101"/>
      <use x="524.455078" xlink:href="#DejaVuSans-100"/>
      <use x="587.931641" xlink:href="#DejaVuSans-103"/>
      <use x="651.408203" xlink:href="#DejaVuSans-101"/>
      <use x="712.931641" xlink:href="#DejaVuSans-32"/>
      <use x="744.71875" xlink:href="#DejaVuSans-99"/>
      <use x="799.699219" xlink:href="#DejaVuSans-111"/>
      <use x="860.880859" xlink:href="#DejaVuSans-118"/>
      <use x="920.060547" xlink:href="#DejaVuSans-101"/>
      <use x="981.583984" xlink:href="#DejaVuSans-114"/>
      <use x="1022.697266" xlink:href="#DejaVuSans-97"/>
      <use x="1083.976562" xlink:href="#DejaVuSans-103"/>
      <use x="1147.453125" xlink:href="#DejaVuSans-101"/>
     </g>
    </g>
   </g>
   <g id="line2d_13">
    <path clip-path="url(#p5c4a3fc8fd)" d="M 97.968125 164.814135 
L 97.968125 81.156255 
" style="fill:none;stroke:#3f3f3f;stroke-linecap:square;stroke-width:1.5;"/>
   </g>
   <g id="line2d_14">
    <path clip-path="url(#p5c4a3fc8fd)" d="M 97.968125 159.074202 
L 97.968125 111.802222 
" style="fill:none;stroke:#3f3f3f;stroke-linecap:square;stroke-width:4.5;"/>
   </g>
   <g id="line2d_15">
    <path clip-path="url(#p5c4a3fc8fd)" d="M 187.248125 227.491569 
L 187.248125 170.35614 
" style="fill:none;stroke:#3f3f3f;stroke-linecap:square;stroke-width:1.5;"/>
   </g>
   <g id="line2d_16">
    <path clip-path="url(#p5c4a3fc8fd)" d="M 187.248125 224.159768 
L 187.248125 185.365736 
" style="fill:none;stroke:#3f3f3f;stroke-linecap:square;stroke-width:4.5;"/>
   </g>
   <g id="line2d_17">
    <path clip-path="url(#p5c4a3fc8fd)" d="M 276.528125 228.679141 
L 276.528125 195.954923 
" style="fill:none;stroke:#3f3f3f;stroke-linecap:square;stroke-width:1.5;"/>
   </g>
   <g id="line2d_18">
    <path clip-path="url(#p5c4a3fc8fd)" d="M 276.528125 222.807255 
L 276.528125 206.742039 
" style="fill:none;stroke:#3f3f3f;stroke-linecap:square;stroke-width:4.5;"/>
   </g>
   <g id="line2d_19">
    <path clip-path="url(#p5c4a3fc8fd)" d="M 365.808125 249.395682 
L 365.808125 196.614686 
" style="fill:none;stroke:#3f3f3f;stroke-linecap:square;stroke-width:1.5;"/>
   </g>
   <g id="line2d_20">
    <path clip-path="url(#p5c4a3fc8fd)" d="M 365.808125 243.028975 
L 365.808125 224.027816 
" style="fill:none;stroke:#3f3f3f;stroke-linecap:square;stroke-width:4.5;"/>
   </g>
   <g id="patch_3">
    <path d="M 53.328125 269.716366 
L 53.328125 38.799505 
" style="fill:none;stroke:#000000;stroke-linecap:square;stroke-linejoin:miter;stroke-width:0.8;"/>
   </g>
   <g id="patch_4">
    <path d="M 97.968125 288.430125 
L 365.808125 288.430125 
" style="fill:none;stroke:#000000;stroke-linecap:square;stroke-linejoin:miter;stroke-width:0.8;"/>
   </g>
   <g id="PathCollection_1">
    <defs>
     <path d="M 0 1.5 
C 0.397805 1.5 0.77937 1.341951 1.06066 1.06066 
C 1.341951 0.77937 1.5 0.397805 1.5 0 
C 1.5 -0.397805 1.341951 -0.77937 1.06066 -1.06066 
C 0.77937 -1.341951 0.397805 -1.5 0 -1.5 
C -0.397805 -1.5 -0.77937 -1.341951 -1.06066 -1.06066 
C -1.341951 -0.77937 -1.5 -0.397805 -1.5 0 
C -1.5 0.397805 -1.341951 0.77937 -1.06066 1.06066 
C -0.77937 1.341951 -0.397805 1.5 0 1.5 
z
" id="m4823590193" style="stroke:#3f3f3f;"/>
    </defs>
    <g clip-path="url(#p5c4a3fc8fd)">
     <use style="fill:#ffffff;stroke:#3f3f3f;" x="97.968125" xlink:href="#m4823590193" y="138.35766"/>
    </g>
   </g>
   <g id="PathCollection_2">
    <g clip-path="url(#p5c4a3fc8fd)">
     <use style="fill:#ffffff;stroke:#3f3f3f;" x="187.248125" xlink:href="#m4823590193" y="209.414077"/>
    </g>
   </g>
   <g id="PathCollection_3">
    <g clip-path="url(#p5c4a3fc8fd)">
     <use style="fill:#ffffff;stroke:#3f3f3f;" x="276.528125" xlink:href="#m4823590193" y="214.824129"/>
    </g>
   </g>
   <g id="PathCollection_4">
    <g clip-path="url(#p5c4a3fc8fd)">
     <use style="fill:#ffffff;stroke:#3f3f3f;" x="365.808125" xlink:href="#m4823590193" y="235.606647"/>
    </g>
   </g>
   <g id="text_15">
    <!-- bloaty_fuzz_target (24h, 6 trials/fuzzer) -->
    <g transform="translate(113.792188 16.318125)scale(0.12 -0.12)">
     <defs>
      <path d="M 32.171875 -5.078125 
Q 28.375 -14.84375 24.75 -17.8125 
Q 21.140625 -20.796875 15.09375 -20.796875 
L 7.90625 -20.796875 
L 7.90625 -13.28125 
L 13.1875 -13.28125 
Q 16.890625 -13.28125 18.9375 -11.515625 
Q 21 -9.765625 23.484375 -3.21875 
L 25.09375 0.875 
L 2.984375 54.6875 
L 12.5 54.6875 
L 29.59375 11.921875 
L 46.6875 54.6875 
L 56.203125 54.6875 
z
" id="DejaVuSans-121"/>
      <path d="M 37.796875 64.3125 
L 12.890625 25.390625 
L 37.796875 25.390625 
z
M 35.203125 72.90625 
L 47.609375 72.90625 
L 47.609375 25.390625 
L 58.015625 25.390625 
L 58.015625 17.1875 
L 47.609375 17.1875 
L 47.609375 0 
L 37.796875 0 
L 37.796875 17.1875 
L 4.890625 17.1875 
L 4.890625 26.703125 
z
" id="DejaVuSans-52"/>
      <path d="M 11.71875 12.40625 
L 22.015625 12.40625 
L 22.015625 4 
L 14.015625 -11.625 
L 7.71875 -11.625 
L 11.71875 4 
z
" id="DejaVuSans-44"/>
      <path d="M 25.390625 72.90625 
L 33.6875 72.90625 
L 8.296875 -9.28125 
L 0 -9.28125 
z
" id="DejaVuSans-47"/>
     </defs>
     <use xlink:href="#DejaVuSans-98"/>
     <use x="63.476562" xlink:href="#DejaVuSans-108"/>
     <use x="91.259766" xlink:href="#DejaVuSans-111"/>
     <use x="152.441406" xlink:href="#DejaVuSans-97"/>
     <use x="213.720703" xlink:href="#DejaVuSans-116"/>
     <use x="252.929688" xlink:href="#DejaVuSans-121"/>
     <use x="312.109375" xlink:href="#DejaVuSans-95"/>
     <use x="362.109375" xlink:href="#DejaVuSans-102"/>
     <use x="397.314453" xlink:href="#DejaVuSans-117"/>
     <use x="460.693359" xlink:href="#DejaVuSans-122"/>
     <use x="513.183594" xlink:href="#DejaVuSans-122"/>
     <use x="565.673828" xlink:href="#DejaVuSans-95"/>
     <use x="615.673828" xlink:href="#DejaVuSans-116"/>
     <use x="654.882812" xlink:href="#DejaVuSans-97"/>
     <use x="716.162109" xlink:href="#DejaVuSans-114"/>
     <use x="755.525391" xlink:href="#DejaVuSans-103"/>
     <use x="819.001953" xlink:href="#DejaVuSans-101"/>
     <use x="880.525391" xlink:href="#DejaVuSans-116"/>
     <use x="919.734375" xlink:href="#DejaVuSans-32"/>
     <use x="951.521484" xlink:href="#DejaVuSans-40"/>
     <use x="990.535156" xlink:href="#DejaVuSans-50"/>
     <use x="1054.158203" xlink:href="#DejaVuSans-52"/>
     <use x="1117.78125" xlink:href="#DejaVuSans-104"/>
     <use x="1181.160156" xlink:href="#DejaVuSans-44"/>
     <use x="1212.947266" xlink:href="#DejaVuSans-32"/>
     <use x="1244.734375" xlink:href="#DejaVuSans-54"/>
     <use x="1308.357422" xlink:href="#DejaVuSans-32"/>
     <use x="1340.144531" xlink:href="#DejaVuSans-116"/>
     <use x="1379.353516" xlink:href="#DejaVuSans-114"/>
     <use x="1420.466797" xlink:href="#DejaVuSans-105"/>
     <use x="1448.25" xlink:href="#DejaVuSans-97"/>
     <use x="1509.529297" xlink:href="#DejaVuSans-108"/>
     <use x="1537.3125" xlink:href="#DejaVuSans-115"/>
     <use x="1589.412109" xlink:href="#DejaVuSans-47"/>
     <use x="1623.103516" xlink:href="#DejaVuSans-102"/>
     <use x="1658.308594" xlink:href="#DejaVuSans-117"/>
     <use x="1721.6875" xlink:href="#DejaVuSans-122"/>
     <use x="1774.177734" xlink:href="#DejaVuSans-122"/>
     <use x="1826.667969" xlink:href="#DejaVuSans-101"/>
     <use x="1888.191406" xlink:href="#DejaVuSans-114"/>
     <use x="1929.304688" xlink:href="#DejaVuSans-41"/>
    </g>
   </g>
  </g>
 </g>
 <defs>
  <clipPath id="p5c4a3fc8fd">
   <rect height="266.112" width="357.12" x="53.328125" y="22.318125"/>
  </clipPath>
 </defs>
</svg>
