<?xml version="1.0" encoding="utf-8" standalone="no"?>
<!DOCTYPE svg PUBLIC "-//W3C//DTD SVG 1.1//EN"
  "http://www.w3.org/Graphics/SVG/1.1/DTD/svg11.dtd">
<!-- Created with matplotlib (https://matplotlib.org/) -->
<svg height="356.559522pt" version="1.1" viewBox="0 0 424.010625 356.559522" width="424.010625pt" xmlns="http://www.w3.org/2000/svg" xmlns:xlink="http://www.w3.org/1999/xlink">
 <metadata>
  <rdf:RDF xmlns:cc="http://creativecommons.org/ns#" xmlns:dc="http://purl.org/dc/elements/1.1/" xmlns:rdf="http://www.w3.org/1999/02/22-rdf-syntax-ns#">
   <cc:Work>
    <dc:type rdf:resource="http://purl.org/dc/dcmitype/StillImage"/>
    <dc:date>2020-08-08T10:46:03.067460</dc:date>
    <dc:format>image/svg+xml</dc:format>
    <dc:creator>
     <cc:Agent>
      <dc:title>Matplotlib v3.3.0, https://matplotlib.org/</dc:title>
     </cc:Agent>
    </dc:creator>
   </cc:Work>
  </rdf:RDF>
 </metadata>
 <defs>
  <style type="text/css">*{stroke-linecap:butt;stroke-linejoin:round;}</style>
 </defs>
 <g id="figure_1">
  <g id="patch_1">
   <path d="M 0 356.559522 
L 424.010625 356.559522 
L 424.010625 -0 
L 0 -0 
z
" style="fill:#ffffff;"/>
  </g>
  <g id="axes_1">
   <g id="patch_2">
    <path d="M 59.690625 288.430125 
L 416.810625 288.430125 
L 416.810625 22.318125 
L 59.690625 22.318125 
z
" style="fill:#ffffff;"/>
   </g>
   <g id="PolyCollection_1">
    <defs>
     <path d="M 105.189017 -219.650535 
L 103.472233 -219.650535 
L 103.318103 -220.685837 
L 103.142584 -221.721139 
L 102.943925 -222.75644 
L 102.720445 -223.791742 
L 102.470582 -224.827043 
L 102.192932 -225.862345 
L 101.886306 -226.897647 
L 101.549774 -227.932948 
L 101.182721 -228.96825 
L 100.784889 -230.003552 
L 100.356431 -231.038853 
L 99.897944 -232.074155 
L 99.410508 -233.109457 
L 98.895711 -234.144758 
L 98.355666 -235.18006 
L 97.793017 -236.215361 
L 97.210928 -237.250663 
L 96.613069 -238.285965 
L 96.003572 -239.321266 
L 95.386989 -240.356568 
L 94.768224 -241.39187 
L 94.15245 -242.427171 
L 93.545023 -243.462473 
L 92.951372 -244.497774 
L 92.376888 -245.533076 
L 91.8268 -246.568378 
L 91.306052 -247.603679 
L 90.819172 -248.638981 
L 90.370158 -249.674283 
L 89.962354 -250.709584 
L 89.598356 -251.744886 
L 89.279922 -252.780187 
L 89.007909 -253.815489 
L 88.782232 -254.850791 
L 88.601854 -255.886092 
L 88.464801 -256.921394 
L 88.368212 -257.956696 
L 88.308418 -258.991997 
L 88.281052 -260.027299 
L 88.28118 -261.062601 
L 88.303467 -262.097902 
L 88.342349 -263.133204 
L 88.392222 -264.168505 
L 88.447637 -265.203807 
L 88.503491 -266.239109 
L 88.555208 -267.27441 
L 88.598901 -268.309712 
L 88.631516 -269.345014 
L 88.650941 -270.380315 
L 88.65608 -271.415617 
L 88.646895 -272.450918 
L 88.624404 -273.48622 
L 88.59064 -274.521522 
L 88.548577 -275.556823 
L 88.502017 -276.592125 
L 88.45545 -277.627427 
L 88.413894 -278.662728 
L 88.382711 -279.69803 
L 88.367418 -280.733331 
L 88.373499 -281.768633 
L 88.406218 -282.803935 
L 88.470442 -283.839236 
L 88.570489 -284.874538 
L 88.709992 -285.90984 
L 88.891794 -286.945141 
L 89.117868 -287.980443 
L 89.389273 -289.015745 
L 89.706131 -290.051046 
L 90.067645 -291.086348 
L 90.47213 -292.121649 
L 90.917084 -293.156951 
L 91.399262 -294.192253 
L 91.914779 -295.227554 
L 92.459222 -296.262856 
L 93.027766 -297.298158 
L 93.615297 -298.333459 
L 94.216539 -299.368761 
L 94.826163 -300.404062 
L 95.438909 -301.439364 
L 96.049683 -302.474666 
L 96.653651 -303.509967 
L 97.246317 -304.545269 
L 97.823586 -305.580571 
L 98.381817 -306.615872 
L 98.91786 -307.651174 
L 99.429074 -308.686475 
L 99.913341 -309.721777 
L 100.369056 -310.757079 
L 100.795119 -311.79238 
L 101.190904 -312.827682 
L 101.55623 -313.862984 
L 101.891323 -314.898285 
L 102.196765 -315.933587 
L 102.473454 -316.968889 
L 102.722549 -318.00419 
L 102.945423 -319.039492 
L 103.143613 -320.074793 
L 103.318776 -321.110095 
L 103.472641 -322.145397 
L 105.188609 -322.145397 
L 105.188609 -322.145397 
L 105.342474 -321.110095 
L 105.517637 -320.074793 
L 105.715827 -319.039492 
L 105.938701 -318.00419 
L 106.187796 -316.968889 
L 106.464485 -315.933587 
L 106.769927 -314.898285 
L 107.10502 -313.862984 
L 107.470346 -312.827682 
L 107.866131 -311.79238 
L 108.292194 -310.757079 
L 108.747909 -309.721777 
L 109.232176 -308.686475 
L 109.74339 -307.651174 
L 110.279433 -306.615872 
L 110.837664 -305.580571 
L 111.414933 -304.545269 
L 112.007599 -303.509967 
L 112.611567 -302.474666 
L 113.222341 -301.439364 
L 113.835087 -300.404062 
L 114.444711 -299.368761 
L 115.045953 -298.333459 
L 115.633484 -297.298158 
L 116.202028 -296.262856 
L 116.746471 -295.227554 
L 117.261988 -294.192253 
L 117.744166 -293.156951 
L 118.18912 -292.121649 
L 118.593605 -291.086348 
L 118.955119 -290.051046 
L 119.271977 -289.015745 
L 119.543382 -287.980443 
L 119.769456 -286.945141 
L 119.951258 -285.90984 
L 120.090761 -284.874538 
L 120.190808 -283.839236 
L 120.255032 -282.803935 
L 120.287751 -281.768633 
L 120.293832 -280.733331 
L 120.278539 -279.69803 
L 120.247356 -278.662728 
L 120.2058 -277.627427 
L 120.159233 -276.592125 
L 120.112673 -275.556823 
L 120.07061 -274.521522 
L 120.036846 -273.48622 
L 120.014355 -272.450918 
L 120.00517 -271.415617 
L 120.010309 -270.380315 
L 120.029734 -269.345014 
L 120.062349 -268.309712 
L 120.106042 -267.27441 
L 120.157759 -266.239109 
L 120.213613 -265.203807 
L 120.269028 -264.168505 
L 120.318901 -263.133204 
L 120.357783 -262.097902 
L 120.38007 -261.062601 
L 120.380198 -260.027299 
L 120.352832 -258.991997 
L 120.293038 -257.956696 
L 120.196449 -256.921394 
L 120.059396 -255.886092 
L 119.879018 -254.850791 
L 119.653341 -253.815489 
L 119.381328 -252.780187 
L 119.062894 -251.744886 
L 118.698896 -250.709584 
L 118.291092 -249.674283 
L 117.842078 -248.638981 
L 117.355198 -247.603679 
L 116.83445 -246.568378 
L 116.284362 -245.533076 
L 115.709878 -244.497774 
L 115.116227 -243.462473 
L 114.5088 -242.427171 
L 113.893026 -241.39187 
L 113.274261 -240.356568 
L 112.657678 -239.321266 
L 112.048181 -238.285965 
L 111.450322 -237.250663 
L 110.868233 -236.215361 
L 110.305584 -235.18006 
L 109.765539 -234.144758 
L 109.250742 -233.109457 
L 108.763306 -232.074155 
L 108.304819 -231.038853 
L 107.876361 -230.003552 
L 107.478529 -228.96825 
L 107.111476 -227.932948 
L 106.774944 -226.897647 
L 106.468318 -225.862345 
L 106.190668 -224.827043 
L 105.940805 -223.791742 
L 105.717325 -222.75644 
L 105.518666 -221.721139 
L 105.343147 -220.685837 
L 105.189017 -219.650535 
z
" id="m46ce5cbe17" style="stroke:#3f3f3f;stroke-width:1.5;"/>
    </defs>
    <g clip-path="url(#p379023e72f)">
     <use style="fill:#e1812c;stroke:#3f3f3f;stroke-width:1.5;" x="0" xlink:href="#m46ce5cbe17" y="356.559522"/>
    </g>
   </g>
   <g id="PolyCollection_2">
    <defs>
     <path d="M 195.187052 -220.0627 
L 192.034198 -220.0627 
L 191.761791 -220.566835 
L 191.454102 -221.07097 
L 191.108746 -221.575105 
L 190.723538 -222.079239 
L 190.296548 -222.583374 
L 189.82616 -223.087509 
L 189.311129 -223.591644 
L 188.750622 -224.095778 
L 188.14426 -224.599913 
L 187.492143 -225.104048 
L 186.794868 -225.608182 
L 186.05353 -226.112317 
L 185.269707 -226.616452 
L 184.445439 -227.120587 
L 183.583189 -227.624721 
L 182.685793 -228.128856 
L 181.756408 -228.632991 
L 180.798445 -229.137125 
L 179.815511 -229.64126 
L 178.811344 -230.145395 
L 177.789759 -230.64953 
L 176.754602 -231.153664 
L 175.709707 -231.657799 
L 174.658883 -232.161934 
L 173.605896 -232.666068 
L 172.554481 -233.170203 
L 171.508356 -233.674338 
L 170.47125 -234.178473 
L 169.446943 -234.682607 
L 168.439297 -235.186742 
L 167.452298 -235.690877 
L 166.490081 -236.195011 
L 165.556948 -236.699146 
L 164.657363 -237.203281 
L 163.795934 -237.707416 
L 162.977369 -238.21155 
L 162.2064 -238.715685 
L 161.487696 -239.21982 
L 160.825745 -239.723954 
L 160.224725 -240.228089 
L 159.688359 -240.732224 
L 159.219767 -241.236359 
L 158.821328 -241.740493 
L 158.49455 -242.244628 
L 158.239959 -242.748763 
L 158.057033 -243.252897 
L 157.944154 -243.757032 
L 157.898625 -244.261167 
L 157.916716 -244.765302 
L 157.993771 -245.269436 
L 158.124361 -245.773571 
L 158.302467 -246.277706 
L 158.521721 -246.78184 
L 158.775648 -247.285975 
L 159.057943 -247.79011 
L 159.362736 -248.294245 
L 159.684855 -248.798379 
L 160.020053 -249.302514 
L 160.365205 -249.806649 
L 160.718452 -250.310783 
L 161.079288 -250.814918 
L 161.448576 -251.319053 
L 161.828508 -251.823188 
L 162.222489 -252.327322 
L 162.634963 -252.831457 
L 163.071184 -253.335592 
L 163.536941 -253.839726 
L 164.038258 -254.343861 
L 164.581069 -254.847996 
L 165.170902 -255.352131 
L 165.812566 -255.856265 
L 166.50988 -256.3604 
L 167.265438 -256.864535 
L 168.080423 -257.368669 
L 168.954488 -257.872804 
L 169.885702 -258.376939 
L 170.870561 -258.881074 
L 171.904056 -259.385208 
L 172.979818 -259.889343 
L 174.090295 -260.393478 
L 175.226982 -260.897612 
L 176.380679 -261.401747 
L 177.541763 -261.905882 
L 178.700468 -262.410017 
L 179.847161 -262.914151 
L 180.972593 -263.418286 
L 182.06813 -263.922421 
L 183.125947 -264.426555 
L 184.139184 -264.93069 
L 185.102059 -265.434825 
L 186.009938 -265.93896 
L 186.85936 -266.443094 
L 187.648031 -266.947229 
L 188.374775 -267.451364 
L 189.039458 -267.955498 
L 189.642891 -268.459633 
L 190.186711 -268.963768 
L 190.673257 -269.467903 
L 191.105434 -269.972037 
L 196.115816 -269.972037 
L 196.115816 -269.972037 
L 196.547993 -269.467903 
L 197.034539 -268.963768 
L 197.578359 -268.459633 
L 198.181792 -267.955498 
L 198.846475 -267.451364 
L 199.573219 -266.947229 
L 200.36189 -266.443094 
L 201.211312 -265.93896 
L 202.119191 -265.434825 
L 203.082066 -264.93069 
L 204.095303 -264.426555 
L 205.15312 -263.922421 
L 206.248657 -263.418286 
L 207.374089 -262.914151 
L 208.520782 -262.410017 
L 209.679487 -261.905882 
L 210.840571 -261.401747 
L 211.994268 -260.897612 
L 213.130955 -260.393478 
L 214.241432 -259.889343 
L 215.317194 -259.385208 
L 216.350689 -258.881074 
L 217.335548 -258.376939 
L 218.266762 -257.872804 
L 219.140827 -257.368669 
L 219.955812 -256.864535 
L 220.71137 -256.3604 
L 221.408684 -255.856265 
L 222.050348 -255.352131 
L 222.640181 -254.847996 
L 223.182992 -254.343861 
L 223.684309 -253.839726 
L 224.150066 -253.335592 
L 224.586287 -252.831457 
L 224.998761 -252.327322 
L 225.392742 -251.823188 
L 225.772674 -251.319053 
L 226.141962 -250.814918 
L 226.502798 -250.310783 
L 226.856045 -249.806649 
L 227.201197 -249.302514 
L 227.536395 -248.798379 
L 227.858514 -248.294245 
L 228.163307 -247.79011 
L 228.445602 -247.285975 
L 228.699529 -246.78184 
L 228.918783 -246.277706 
L 229.096889 -245.773571 
L 229.227479 -245.269436 
L 229.304534 -244.765302 
L 229.322625 -244.261167 
L 229.277096 -243.757032 
L 229.164217 -243.252897 
L 228.981291 -242.748763 
L 228.7267 -242.244628 
L 228.399922 -241.740493 
L 228.001483 -241.236359 
L 227.532891 -240.732224 
L 226.996525 -240.228089 
L 226.395505 -239.723954 
L 225.733554 -239.21982 
L 225.01485 -238.715685 
L 224.243881 -238.21155 
L 223.425316 -237.707416 
L 222.563887 -237.203281 
L 221.664302 -236.699146 
L 220.731169 -236.195011 
L 219.768952 -235.690877 
L 218.781953 -235.186742 
L 217.774307 -234.682607 
L 216.75 -234.178473 
L 215.712894 -233.674338 
L 214.666769 -233.170203 
L 213.615354 -232.666068 
L 212.562367 -232.161934 
L 211.511543 -231.657799 
L 210.466648 -231.153664 
L 209.431491 -230.64953 
L 208.409906 -230.145395 
L 207.405739 -229.64126 
L 206.422805 -229.137125 
L 205.464842 -228.632991 
L 204.535457 -228.128856 
L 203.638061 -227.624721 
L 202.775811 -227.120587 
L 201.951543 -226.616452 
L 201.16772 -226.112317 
L 200.426382 -225.608182 
L 199.729107 -225.104048 
L 199.07699 -224.599913 
L 198.470628 -224.095778 
L 197.910121 -223.591644 
L 197.39509 -223.087509 
L 196.924702 -222.583374 
L 196.497712 -222.079239 
L 196.112504 -221.575105 
L 195.767148 -221.07097 
L 195.459459 -220.566835 
L 195.187052 -220.0627 
z
" id="me65561169c" style="stroke:#3f3f3f;stroke-width:1.5;"/>
    </defs>
    <g clip-path="url(#p379023e72f)">
     <use style="fill:#eebb89;stroke:#3f3f3f;stroke-width:1.5;" x="0" xlink:href="#me65561169c" y="356.559522"/>
    </g>
   </g>
   <g id="PolyCollection_3">
    <defs>
     <path d="M 283.860105 -190.639518 
L 281.921145 -190.639518 
L 281.74601 -191.468095 
L 281.548285 -192.296673 
L 281.326866 -193.12525 
L 281.080928 -193.953828 
L 280.809971 -194.782405 
L 280.513865 -195.610983 
L 280.192882 -196.43956 
L 279.847711 -197.268138 
L 279.479451 -198.096715 
L 279.089598 -198.925293 
L 278.67999 -199.75387 
L 278.252748 -200.582448 
L 277.810186 -201.411025 
L 277.354702 -202.239603 
L 276.888663 -203.06818 
L 276.414271 -203.896758 
L 275.933433 -204.725335 
L 275.447635 -205.553913 
L 274.95783 -206.38249 
L 274.464346 -207.211068 
L 273.966828 -208.039645 
L 273.464213 -208.868223 
L 272.954748 -209.6968 
L 272.436054 -210.525378 
L 271.905235 -211.353955 
L 271.359033 -212.182533 
L 270.794015 -213.011111 
L 270.206799 -213.839688 
L 269.594299 -214.668266 
L 268.953977 -215.496843 
L 268.284092 -216.325421 
L 267.583934 -217.153998 
L 266.854024 -217.982576 
L 266.096271 -218.811153 
L 265.314075 -219.639731 
L 264.512366 -220.468308 
L 263.697578 -221.296886 
L 262.877551 -222.125463 
L 262.061366 -222.954041 
L 261.259119 -223.782618 
L 260.481644 -224.611196 
L 259.740191 -225.439773 
L 259.046077 -226.268351 
L 258.410326 -227.096928 
L 257.843316 -227.925506 
L 257.354437 -228.754083 
L 256.951789 -229.582661 
L 256.641927 -230.411238 
L 256.429658 -231.239816 
L 256.317912 -232.068393 
L 256.307668 -232.896971 
L 256.397969 -233.725548 
L 256.585989 -234.554126 
L 256.867175 -235.382704 
L 257.235442 -236.211281 
L 257.683415 -237.039859 
L 258.202702 -237.868436 
L 258.7842 -238.697014 
L 259.418401 -239.525591 
L 260.095698 -240.354169 
L 260.806675 -241.182746 
L 261.542375 -242.011324 
L 262.294518 -242.839901 
L 263.055695 -243.668479 
L 263.819491 -244.497056 
L 264.580574 -245.325634 
L 265.334719 -246.154211 
L 266.07879 -246.982789 
L 266.810668 -247.811366 
L 267.529151 -248.639944 
L 268.233807 -249.468521 
L 268.924822 -250.297099 
L 269.602818 -251.125676 
L 270.268684 -251.954254 
L 270.923399 -252.782831 
L 271.567884 -253.611409 
L 272.202866 -254.439986 
L 272.828775 -255.268564 
L 273.445667 -256.097141 
L 274.05319 -256.925719 
L 274.650568 -257.754296 
L 275.236631 -258.582874 
L 275.809859 -259.411452 
L 276.36845 -260.240029 
L 276.910413 -261.068607 
L 277.433656 -261.897184 
L 277.936088 -262.725762 
L 278.415712 -263.554339 
L 278.870715 -264.382917 
L 279.299542 -265.211494 
L 279.700952 -266.040072 
L 280.074069 -266.868649 
L 280.418399 -267.697227 
L 280.733839 -268.525804 
L 281.020669 -269.354382 
L 281.279527 -270.182959 
L 281.511371 -271.011537 
L 281.71744 -271.840114 
L 281.899196 -272.668692 
L 283.882054 -272.668692 
L 283.882054 -272.668692 
L 284.06381 -271.840114 
L 284.269879 -271.011537 
L 284.501723 -270.182959 
L 284.760581 -269.354382 
L 285.047411 -268.525804 
L 285.362851 -267.697227 
L 285.707181 -266.868649 
L 286.080298 -266.040072 
L 286.481708 -265.211494 
L 286.910535 -264.382917 
L 287.365538 -263.554339 
L 287.845162 -262.725762 
L 288.347594 -261.897184 
L 288.870837 -261.068607 
L 289.4128 -260.240029 
L 289.971391 -259.411452 
L 290.544619 -258.582874 
L 291.130682 -257.754296 
L 291.72806 -256.925719 
L 292.335583 -256.097141 
L 292.952475 -255.268564 
L 293.578384 -254.439986 
L 294.213366 -253.611409 
L 294.857851 -252.782831 
L 295.512566 -251.954254 
L 296.178432 -251.125676 
L 296.856428 -250.297099 
L 297.547443 -249.468521 
L 298.252099 -248.639944 
L 298.970582 -247.811366 
L 299.70246 -246.982789 
L 300.446531 -246.154211 
L 301.200676 -245.325634 
L 301.961759 -244.497056 
L 302.725555 -243.668479 
L 303.486732 -242.839901 
L 304.238875 -242.011324 
L 304.974575 -241.182746 
L 305.685552 -240.354169 
L 306.362849 -239.525591 
L 306.99705 -238.697014 
L 307.578548 -237.868436 
L 308.097835 -237.039859 
L 308.545808 -236.211281 
L 308.914075 -235.382704 
L 309.195261 -234.554126 
L 309.383281 -233.725548 
L 309.473582 -232.896971 
L 309.463338 -232.068393 
L 309.351592 -231.239816 
L 309.139323 -230.411238 
L 308.829461 -229.582661 
L 308.426813 -228.754083 
L 307.937934 -227.925506 
L 307.370924 -227.096928 
L 306.735173 -226.268351 
L 306.041059 -225.439773 
L 305.299606 -224.611196 
L 304.522131 -223.782618 
L 303.719884 -222.954041 
L 302.903699 -222.125463 
L 302.083672 -221.296886 
L 301.268884 -220.468308 
L 300.467175 -219.639731 
L 299.684979 -218.811153 
L 298.927226 -217.982576 
L 298.197316 -217.153998 
L 297.497158 -216.325421 
L 296.827273 -215.496843 
L 296.186951 -214.668266 
L 295.574451 -213.839688 
L 294.987235 -213.011111 
L 294.422217 -212.182533 
L 293.876015 -211.353955 
L 293.345196 -210.525378 
L 292.826502 -209.6968 
L 292.317037 -208.868223 
L 291.814422 -208.039645 
L 291.316904 -207.211068 
L 290.82342 -206.38249 
L 290.333615 -205.553913 
L 289.847817 -204.725335 
L 289.366979 -203.896758 
L 288.892587 -203.06818 
L 288.426548 -202.239603 
L 287.971064 -201.411025 
L 287.528502 -200.582448 
L 287.10126 -199.75387 
L 286.691652 -198.925293 
L 286.301799 -198.096715 
L 285.933539 -197.268138 
L 285.588368 -196.43956 
L 285.267385 -195.610983 
L 284.971279 -194.782405 
L 284.700322 -193.953828 
L 284.454384 -193.12525 
L 284.232965 -192.296673 
L 284.03524 -191.468095 
L 283.860105 -190.639518 
z
" id="m2594069e4f" style="stroke:#3f3f3f;stroke-width:1.5;"/>
    </defs>
    <g clip-path="url(#p379023e72f)">
     <use style="fill:#3274a1;stroke:#3f3f3f;stroke-width:1.5;" x="0" xlink:href="#m2594069e4f" y="356.559522"/>
    </g>
   </g>
   <g id="PolyCollection_4">
    <defs>
     <path d="M 372.515427 -80.225397 
L 371.825823 -80.225397 
L 371.767575 -82.53089 
L 371.701993 -84.836383 
L 371.62862 -87.141876 
L 371.547055 -89.447369 
L 371.456966 -91.752862 
L 371.358104 -94.058355 
L 371.25032 -96.363848 
L 371.133579 -98.669341 
L 371.007971 -100.974834 
L 370.873724 -103.280327 
L 370.731213 -105.58582 
L 370.580959 -107.891314 
L 370.423636 -110.196807 
L 370.260067 -112.5023 
L 370.091216 -114.807793 
L 369.918175 -117.113286 
L 369.742152 -119.418779 
L 369.564446 -121.724272 
L 369.386427 -124.029765 
L 369.209505 -126.335258 
L 369.035099 -128.640751 
L 368.864608 -130.946244 
L 368.699368 -133.251737 
L 368.540625 -135.55723 
L 368.389495 -137.862723 
L 368.24693 -140.168217 
L 368.113689 -142.47371 
L 367.990308 -144.779203 
L 367.877076 -147.084696 
L 367.774019 -149.390189 
L 367.680884 -151.695682 
L 367.597135 -154.001175 
L 367.521956 -156.306668 
L 367.454258 -158.612161 
L 367.392695 -160.917654 
L 367.335696 -163.223147 
L 367.281491 -165.52864 
L 367.228154 -167.834133 
L 367.173653 -170.139626 
L 367.115897 -172.445119 
L 367.052803 -174.750613 
L 366.982349 -177.056106 
L 366.902641 -179.361599 
L 366.811981 -181.667092 
L 366.708921 -183.972585 
L 366.592327 -186.278078 
L 366.461435 -188.583571 
L 366.31589 -190.889064 
L 366.155791 -193.194557 
L 365.981713 -195.50005 
L 365.794725 -197.805543 
L 365.59639 -200.111036 
L 365.388752 -202.416529 
L 365.174315 -204.722022 
L 364.955997 -207.027516 
L 364.73708 -209.333009 
L 364.521144 -211.638502 
L 364.31199 -213.943995 
L 364.113554 -216.249488 
L 363.929815 -218.554981 
L 363.764699 -220.860474 
L 363.621981 -223.165967 
L 363.50519 -225.47146 
L 363.417515 -227.776953 
L 363.361726 -230.082446 
L 363.340096 -232.387939 
L 363.354344 -234.693432 
L 363.405585 -236.998925 
L 363.494303 -239.304419 
L 363.620337 -241.609912 
L 363.782884 -243.915405 
L 363.980523 -246.220898 
L 364.211251 -248.526391 
L 364.472533 -250.831884 
L 364.761375 -253.137377 
L 365.074392 -255.44287 
L 365.407898 -257.748363 
L 365.757991 -260.053856 
L 366.120648 -262.359349 
L 366.491814 -264.664842 
L 366.86749 -266.970335 
L 367.243811 -269.275828 
L 367.617124 -271.581322 
L 367.984049 -273.886815 
L 368.341526 -276.192308 
L 368.686865 -278.497801 
L 369.017762 -280.803294 
L 369.332323 -283.108787 
L 369.629061 -285.41428 
L 369.906894 -287.719773 
L 370.165122 -290.025266 
L 370.403407 -292.330759 
L 370.621741 -294.636252 
L 370.820407 -296.941745 
L 370.999941 -299.247238 
L 371.16109 -301.552731 
L 371.304773 -303.858225 
L 371.432037 -306.163718 
L 371.544022 -308.469211 
L 372.797228 -308.469211 
L 372.797228 -308.469211 
L 372.909213 -306.163718 
L 373.036477 -303.858225 
L 373.18016 -301.552731 
L 373.341309 -299.247238 
L 373.520843 -296.941745 
L 373.719509 -294.636252 
L 373.937843 -292.330759 
L 374.176128 -290.025266 
L 374.434356 -287.719773 
L 374.712189 -285.41428 
L 375.008927 -283.108787 
L 375.323488 -280.803294 
L 375.654385 -278.497801 
L 375.999724 -276.192308 
L 376.357201 -273.886815 
L 376.724126 -271.581322 
L 377.097439 -269.275828 
L 377.47376 -266.970335 
L 377.849436 -264.664842 
L 378.220602 -262.359349 
L 378.583259 -260.053856 
L 378.933352 -257.748363 
L 379.266858 -255.44287 
L 379.579875 -253.137377 
L 379.868717 -250.831884 
L 380.129999 -248.526391 
L 380.360727 -246.220898 
L 380.558366 -243.915405 
L 380.720913 -241.609912 
L 380.846947 -239.304419 
L 380.935665 -236.998925 
L 380.986906 -234.693432 
L 381.001154 -232.387939 
L 380.979524 -230.082446 
L 380.923735 -227.776953 
L 380.83606 -225.47146 
L 380.719269 -223.165967 
L 380.576551 -220.860474 
L 380.411435 -218.554981 
L 380.227696 -216.249488 
L 380.02926 -213.943995 
L 379.820106 -211.638502 
L 379.60417 -209.333009 
L 379.385253 -207.027516 
L 379.166935 -204.722022 
L 378.952498 -202.416529 
L 378.74486 -200.111036 
L 378.546525 -197.805543 
L 378.359537 -195.50005 
L 378.185459 -193.194557 
L 378.02536 -190.889064 
L 377.879815 -188.583571 
L 377.748923 -186.278078 
L 377.632329 -183.972585 
L 377.529269 -181.667092 
L 377.438609 -179.361599 
L 377.358901 -177.056106 
L 377.288447 -174.750613 
L 377.225353 -172.445119 
L 377.167597 -170.139626 
L 377.113096 -167.834133 
L 377.059759 -165.52864 
L 377.005554 -163.223147 
L 376.948555 -160.917654 
L 376.886992 -158.612161 
L 376.819294 -156.306668 
L 376.744115 -154.001175 
L 376.660366 -151.695682 
L 376.567231 -149.390189 
L 376.464174 -147.084696 
L 376.350942 -144.779203 
L 376.227561 -142.47371 
L 376.09432 -140.168217 
L 375.951755 -137.862723 
L 375.800625 -135.55723 
L 375.641882 -133.251737 
L 375.476642 -130.946244 
L 375.306151 -128.640751 
L 375.131745 -126.335258 
L 374.954823 -124.029765 
L 374.776804 -121.724272 
L 374.599098 -119.418779 
L 374.423075 -117.113286 
L 374.250034 -114.807793 
L 374.081183 -112.5023 
L 373.917614 -110.196807 
L 373.760291 -107.891314 
L 373.610037 -105.58582 
L 373.467526 -103.280327 
L 373.333279 -100.974834 
L 373.207671 -98.669341 
L 373.09093 -96.363848 
L 372.983146 -94.058355 
L 372.884284 -91.752862 
L 372.794195 -89.447369 
L 372.71263 -87.141876 
L 372.639257 -84.836383 
L 372.573675 -82.53089 
L 372.515427 -80.225397 
z
" id="m892982d3e5" style="stroke:#3f3f3f;stroke-width:1.5;"/>
    </defs>
    <g clip-path="url(#p379023e72f)">
     <use style="fill:#b5c8e1;stroke:#3f3f3f;stroke-width:1.5;" x="0" xlink:href="#m892982d3e5" y="356.559522"/>
    </g>
   </g>
   <g id="matplotlib.axis_1">
    <g id="xtick_1">
     <g id="line2d_1">
      <defs>
       <path d="M 0 0 
L 0 3.5 
" id="mbea2994a52" style="stroke:#000000;stroke-width:0.8;"/>
      </defs>
      <g>
       <use style="stroke:#000000;stroke-width:0.8;" x="104.330625" xlink:href="#mbea2994a52" y="288.430125"/>
      </g>
     </g>
     <g id="text_1">
      <!-- dark_w_prob -->
      <g transform="translate(48.368846 333.639471)rotate(-30)scale(0.1 -0.1)">
       <defs>
        <path d="M 45.40625 46.390625 
L 45.40625 75.984375 
L 54.390625 75.984375 
L 54.390625 0 
L 45.40625 0 
L 45.40625 8.203125 
Q 42.578125 3.328125 38.25 0.953125 
Q 33.9375 -1.421875 27.875 -1.421875 
Q 17.96875 -1.421875 11.734375 6.484375 
Q 5.515625 14.40625 5.515625 27.296875 
Q 5.515625 40.1875 11.734375 48.09375 
Q 17.96875 56 27.875 56 
Q 33.9375 56 38.25 53.625 
Q 42.578125 51.265625 45.40625 46.390625 
z
M 14.796875 27.296875 
Q 14.796875 17.390625 18.875 11.75 
Q 22.953125 6.109375 30.078125 6.109375 
Q 37.203125 6.109375 41.296875 11.75 
Q 45.40625 17.390625 45.40625 27.296875 
Q 45.40625 37.203125 41.296875 42.84375 
Q 37.203125 48.484375 30.078125 48.484375 
Q 22.953125 48.484375 18.875 42.84375 
Q 14.796875 37.203125 14.796875 27.296875 
z
" id="DejaVuSans-100"/>
        <path d="M 34.28125 27.484375 
Q 23.390625 27.484375 19.1875 25 
Q 14.984375 22.515625 14.984375 16.5 
Q 14.984375 11.71875 18.140625 8.90625 
Q 21.296875 6.109375 26.703125 6.109375 
Q 34.1875 6.109375 38.703125 11.40625 
Q 43.21875 16.703125 43.21875 25.484375 
L 43.21875 27.484375 
z
M 52.203125 31.203125 
L 52.203125 0 
L 43.21875 0 
L 43.21875 8.296875 
Q 40.140625 3.328125 35.546875 0.953125 
Q 30.953125 -1.421875 24.3125 -1.421875 
Q 15.921875 -1.421875 10.953125 3.296875 
Q 6 8.015625 6 15.921875 
Q 6 25.140625 12.171875 29.828125 
Q 18.359375 34.515625 30.609375 34.515625 
L 43.21875 34.515625 
L 43.21875 35.40625 
Q 43.21875 41.609375 39.140625 45 
Q 35.0625 48.390625 27.6875 48.390625 
Q 23 48.390625 18.546875 47.265625 
Q 14.109375 46.140625 10.015625 43.890625 
L 10.015625 52.203125 
Q 14.9375 54.109375 19.578125 55.046875 
Q 24.21875 56 28.609375 56 
Q 40.484375 56 46.34375 49.84375 
Q 52.203125 43.703125 52.203125 31.203125 
z
" id="DejaVuSans-97"/>
        <path d="M 41.109375 46.296875 
Q 39.59375 47.171875 37.8125 47.578125 
Q 36.03125 48 33.890625 48 
Q 26.265625 48 22.1875 43.046875 
Q 18.109375 38.09375 18.109375 28.8125 
L 18.109375 0 
L 9.078125 0 
L 9.078125 54.6875 
L 18.109375 54.6875 
L 18.109375 46.1875 
Q 20.953125 51.171875 25.484375 53.578125 
Q 30.03125 56 36.53125 56 
Q 37.453125 56 38.578125 55.875 
Q 39.703125 55.765625 41.0625 55.515625 
z
" id="DejaVuSans-114"/>
        <path d="M 9.078125 75.984375 
L 18.109375 75.984375 
L 18.109375 31.109375 
L 44.921875 54.6875 
L 56.390625 54.6875 
L 27.390625 29.109375 
L 57.625 0 
L 45.90625 0 
L 18.109375 26.703125 
L 18.109375 0 
L 9.078125 0 
z
" id="DejaVuSans-107"/>
        <path d="M 50.984375 -16.609375 
L 50.984375 -23.578125 
L -0.984375 -23.578125 
L -0.984375 -16.609375 
z
" id="DejaVuSans-95"/>
        <path d="M 4.203125 54.6875 
L 13.1875 54.6875 
L 24.421875 12.015625 
L 35.59375 54.6875 
L 46.1875 54.6875 
L 57.421875 12.015625 
L 68.609375 54.6875 
L 77.59375 54.6875 
L 63.28125 0 
L 52.6875 0 
L 40.921875 44.828125 
L 29.109375 0 
L 18.5 0 
z
" id="DejaVuSans-119"/>
        <path d="M 18.109375 8.203125 
L 18.109375 -20.796875 
L 9.078125 -20.796875 
L 9.078125 54.6875 
L 18.109375 54.6875 
L 18.109375 46.390625 
Q 20.953125 51.265625 25.265625 53.625 
Q 29.59375 56 35.59375 56 
Q 45.5625 56 51.78125 48.09375 
Q 58.015625 40.1875 58.015625 27.296875 
Q 58.015625 14.40625 51.78125 6.484375 
Q 45.5625 -1.421875 35.59375 -1.421875 
Q 29.59375 -1.421875 25.265625 0.953125 
Q 20.953125 3.328125 18.109375 8.203125 
z
M 48.6875 27.296875 
Q 48.6875 37.203125 44.609375 42.84375 
Q 40.53125 48.484375 33.40625 48.484375 
Q 26.265625 48.484375 22.1875 42.84375 
Q 18.109375 37.203125 18.109375 27.296875 
Q 18.109375 17.390625 22.1875 11.75 
Q 26.265625 6.109375 33.40625 6.109375 
Q 40.53125 6.109375 44.609375 11.75 
Q 48.6875 17.390625 48.6875 27.296875 
z
" id="DejaVuSans-112"/>
        <path d="M 30.609375 48.390625 
Q 23.390625 48.390625 19.1875 42.75 
Q 14.984375 37.109375 14.984375 27.296875 
Q 14.984375 17.484375 19.15625 11.84375 
Q 23.34375 6.203125 30.609375 6.203125 
Q 37.796875 6.203125 41.984375 11.859375 
Q 46.1875 17.53125 46.1875 27.296875 
Q 46.1875 37.015625 41.984375 42.703125 
Q 37.796875 48.390625 30.609375 48.390625 
z
M 30.609375 56 
Q 42.328125 56 49.015625 48.375 
Q 55.71875 40.765625 55.71875 27.296875 
Q 55.71875 13.875 49.015625 6.21875 
Q 42.328125 -1.421875 30.609375 -1.421875 
Q 18.84375 -1.421875 12.171875 6.21875 
Q 5.515625 13.875 5.515625 27.296875 
Q 5.515625 40.765625 12.171875 48.375 
Q 18.84375 56 30.609375 56 
z
" id="DejaVuSans-111"/>
        <path d="M 48.6875 27.296875 
Q 48.6875 37.203125 44.609375 42.84375 
Q 40.53125 48.484375 33.40625 48.484375 
Q 26.265625 48.484375 22.1875 42.84375 
Q 18.109375 37.203125 18.109375 27.296875 
Q 18.109375 17.390625 22.1875 11.75 
Q 26.265625 6.109375 33.40625 6.109375 
Q 40.53125 6.109375 44.609375 11.75 
Q 48.6875 17.390625 48.6875 27.296875 
z
M 18.109375 46.390625 
Q 20.953125 51.265625 25.265625 53.625 
Q 29.59375 56 35.59375 56 
Q 45.5625 56 51.78125 48.09375 
Q 58.015625 40.1875 58.015625 27.296875 
Q 58.015625 14.40625 51.78125 6.484375 
Q 45.5625 -1.421875 35.59375 -1.421875 
Q 29.59375 -1.421875 25.265625 0.953125 
Q 20.953125 3.328125 18.109375 8.203125 
L 18.109375 0 
L 9.078125 0 
L 9.078125 75.984375 
L 18.109375 75.984375 
z
" id="DejaVuSans-98"/>
       </defs>
       <use xlink:href="#DejaVuSans-100"/>
       <use x="63.476562" xlink:href="#DejaVuSans-97"/>
       <use x="124.755859" xlink:href="#DejaVuSans-114"/>
       <use x="165.869141" xlink:href="#DejaVuSans-107"/>
       <use x="223.779297" xlink:href="#DejaVuSans-95"/>
       <use x="273.779297" xlink:href="#DejaVuSans-119"/>
       <use x="355.566406" xlink:href="#DejaVuSans-95"/>
       <use x="405.566406" xlink:href="#DejaVuSans-112"/>
       <use x="469.042969" xlink:href="#DejaVuSans-114"/>
       <use x="507.90625" xlink:href="#DejaVuSans-111"/>
       <use x="569.087891" xlink:href="#DejaVuSans-98"/>
      </g>
     </g>
    </g>
    <g id="xtick_2">
     <g id="line2d_2">
      <g>
       <use style="stroke:#000000;stroke-width:0.8;" x="193.610625" xlink:href="#mbea2994a52" y="288.430125"/>
      </g>
     </g>
     <g id="text_2">
      <!-- fairfuzz -->
      <g transform="translate(160.62121 320.456659)rotate(-30)scale(0.1 -0.1)">
       <defs>
        <path d="M 37.109375 75.984375 
L 37.109375 68.5 
L 28.515625 68.5 
Q 23.6875 68.5 21.796875 66.546875 
Q 19.921875 64.59375 19.921875 59.515625 
L 19.921875 54.6875 
L 34.71875 54.6875 
L 34.71875 47.703125 
L 19.921875 47.703125 
L 19.921875 0 
L 10.890625 0 
L 10.890625 47.703125 
L 2.296875 47.703125 
L 2.296875 54.6875 
L 10.890625 54.6875 
L 10.890625 58.5 
Q 10.890625 67.625 15.140625 71.796875 
Q 19.390625 75.984375 28.609375 75.984375 
z
" id="DejaVuSans-102"/>
        <path d="M 9.421875 54.6875 
L 18.40625 54.6875 
L 18.40625 0 
L 9.421875 0 
z
M 9.421875 75.984375 
L 18.40625 75.984375 
L 18.40625 64.59375 
L 9.421875 64.59375 
z
" id="DejaVuSans-105"/>
        <path d="M 8.5 21.578125 
L 8.5 54.6875 
L 17.484375 54.6875 
L 17.484375 21.921875 
Q 17.484375 14.15625 20.5 10.265625 
Q 23.53125 6.390625 29.59375 6.390625 
Q 36.859375 6.390625 41.078125 11.03125 
Q 45.3125 15.671875 45.3125 23.6875 
L 45.3125 54.6875 
L 54.296875 54.6875 
L 54.296875 0 
L 45.3125 0 
L 45.3125 8.40625 
Q 42.046875 3.421875 37.71875 1 
Q 33.40625 -1.421875 27.6875 -1.421875 
Q 18.265625 -1.421875 13.375 4.4375 
Q 8.5 10.296875 8.5 21.578125 
z
M 31.109375 56 
z
" id="DejaVuSans-117"/>
        <path d="M 5.515625 54.6875 
L 48.1875 54.6875 
L 48.1875 46.484375 
L 14.40625 7.171875 
L 48.1875 7.171875 
L 48.1875 0 
L 4.296875 0 
L 4.296875 8.203125 
L 38.09375 47.515625 
L 5.515625 47.515625 
z
" id="DejaVuSans-122"/>
       </defs>
       <use xlink:href="#DejaVuSans-102"/>
       <use x="35.205078" xlink:href="#DejaVuSans-97"/>
       <use x="96.484375" xlink:href="#DejaVuSans-105"/>
       <use x="124.267578" xlink:href="#DejaVuSans-114"/>
       <use x="165.380859" xlink:href="#DejaVuSans-102"/>
       <use x="200.585938" xlink:href="#DejaVuSans-117"/>
       <use x="263.964844" xlink:href="#DejaVuSans-122"/>
       <use x="316.455078" xlink:href="#DejaVuSans-122"/>
      </g>
     </g>
    </g>
    <g id="xtick_3">
     <g id="line2d_3">
      <g>
       <use style="stroke:#000000;stroke-width:0.8;" x="282.890625" xlink:href="#mbea2994a52" y="288.430125"/>
      </g>
     </g>
     <g id="text_3">
      <!-- afl -->
      <g transform="translate(271.089062 308.223846)rotate(-30)scale(0.1 -0.1)">
       <defs>
        <path d="M 9.421875 75.984375 
L 18.40625 75.984375 
L 18.40625 0 
L 9.421875 0 
z
" id="DejaVuSans-108"/>
       </defs>
       <use xlink:href="#DejaVuSans-97"/>
       <use x="61.279297" xlink:href="#DejaVuSans-102"/>
       <use x="96.484375" xlink:href="#DejaVuSans-108"/>
      </g>
     </g>
    </g>
    <g id="xtick_4">
     <g id="line2d_4">
      <g>
       <use style="stroke:#000000;stroke-width:0.8;" x="372.170625" xlink:href="#mbea2994a52" y="288.430125"/>
      </g>
     </g>
     <g id="text_4">
      <!-- dark -->
      <g transform="translate(351.750757 313.199627)rotate(-30)scale(0.1 -0.1)">
       <use xlink:href="#DejaVuSans-100"/>
       <use x="63.476562" xlink:href="#DejaVuSans-97"/>
       <use x="124.755859" xlink:href="#DejaVuSans-114"/>
       <use x="165.869141" xlink:href="#DejaVuSans-107"/>
      </g>
     </g>
    </g>
    <g id="text_5">
     <!-- Fuzzer (highest median coverage on the left) -->
     <g transform="translate(125.632656 347.279834)scale(0.1 -0.1)">
      <defs>
       <path d="M 9.8125 72.90625 
L 51.703125 72.90625 
L 51.703125 64.59375 
L 19.671875 64.59375 
L 19.671875 43.109375 
L 48.578125 43.109375 
L 48.578125 34.8125 
L 19.671875 34.8125 
L 19.671875 0 
L 9.8125 0 
z
" id="DejaVuSans-70"/>
       <path d="M 56.203125 29.59375 
L 56.203125 25.203125 
L 14.890625 25.203125 
Q 15.484375 15.921875 20.484375 11.0625 
Q 25.484375 6.203125 34.421875 6.203125 
Q 39.59375 6.203125 44.453125 7.46875 
Q 49.3125 8.734375 54.109375 11.28125 
L 54.109375 2.78125 
Q 49.265625 0.734375 44.1875 -0.34375 
Q 39.109375 -1.421875 33.890625 -1.421875 
Q 20.796875 -1.421875 13.15625 6.1875 
Q 5.515625 13.8125 5.515625 26.8125 
Q 5.515625 40.234375 12.765625 48.109375 
Q 20.015625 56 32.328125 56 
Q 43.359375 56 49.78125 48.890625 
Q 56.203125 41.796875 56.203125 29.59375 
z
M 47.21875 32.234375 
Q 47.125 39.59375 43.09375 43.984375 
Q 39.0625 48.390625 32.421875 48.390625 
Q 24.90625 48.390625 20.390625 44.140625 
Q 15.875 39.890625 15.1875 32.171875 
z
" id="DejaVuSans-101"/>
       <path id="DejaVuSans-32"/>
       <path d="M 31 75.875 
Q 24.46875 64.65625 21.28125 53.65625 
Q 18.109375 42.671875 18.109375 31.390625 
Q 18.109375 20.125 21.3125 9.0625 
Q 24.515625 -2 31 -13.1875 
L 23.1875 -13.1875 
Q 15.875 -1.703125 12.234375 9.375 
Q 8.59375 20.453125 8.59375 31.390625 
Q 8.59375 42.28125 12.203125 53.3125 
Q 15.828125 64.359375 23.1875 75.875 
z
" id="DejaVuSans-40"/>
       <path d="M 54.890625 33.015625 
L 54.890625 0 
L 45.90625 0 
L 45.90625 32.71875 
Q 45.90625 40.484375 42.875 44.328125 
Q 39.84375 48.1875 33.796875 48.1875 
Q 26.515625 48.1875 22.3125 43.546875 
Q 18.109375 38.921875 18.109375 30.90625 
L 18.109375 0 
L 9.078125 0 
L 9.078125 75.984375 
L 18.109375 75.984375 
L 18.109375 46.1875 
Q 21.34375 51.125 25.703125 53.5625 
Q 30.078125 56 35.796875 56 
Q 45.21875 56 50.046875 50.171875 
Q 54.890625 44.34375 54.890625 33.015625 
z
" id="DejaVuSans-104"/>
       <path d="M 45.40625 27.984375 
Q 45.40625 37.75 41.375 43.109375 
Q 37.359375 48.484375 30.078125 48.484375 
Q 22.859375 48.484375 18.828125 43.109375 
Q 14.796875 37.75 14.796875 27.984375 
Q 14.796875 18.265625 18.828125 12.890625 
Q 22.859375 7.515625 30.078125 7.515625 
Q 37.359375 7.515625 41.375 12.890625 
Q 45.40625 18.265625 45.40625 27.984375 
z
M 54.390625 6.78125 
Q 54.390625 -7.171875 48.1875 -13.984375 
Q 42 -20.796875 29.203125 -20.796875 
Q 24.46875 -20.796875 20.265625 -20.09375 
Q 16.0625 -19.390625 12.109375 -17.921875 
L 12.109375 -9.1875 
Q 16.0625 -11.328125 19.921875 -12.34375 
Q 23.78125 -13.375 27.78125 -13.375 
Q 36.625 -13.375 41.015625 -8.765625 
Q 45.40625 -4.15625 45.40625 5.171875 
L 45.40625 9.625 
Q 42.625 4.78125 38.28125 2.390625 
Q 33.9375 0 27.875 0 
Q 17.828125 0 11.671875 7.65625 
Q 5.515625 15.328125 5.515625 27.984375 
Q 5.515625 40.671875 11.671875 48.328125 
Q 17.828125 56 27.875 56 
Q 33.9375 56 38.28125 53.609375 
Q 42.625 51.21875 45.40625 46.390625 
L 45.40625 54.6875 
L 54.390625 54.6875 
z
" id="DejaVuSans-103"/>
       <path d="M 44.28125 53.078125 
L 44.28125 44.578125 
Q 40.484375 46.53125 36.375 47.5 
Q 32.28125 48.484375 27.875 48.484375 
Q 21.1875 48.484375 17.84375 46.4375 
Q 14.5 44.390625 14.5 40.28125 
Q 14.5 37.15625 16.890625 35.375 
Q 19.28125 33.59375 26.515625 31.984375 
L 29.59375 31.296875 
Q 39.15625 29.25 43.1875 25.515625 
Q 47.21875 21.78125 47.21875 15.09375 
Q 47.21875 7.46875 41.1875 3.015625 
Q 35.15625 -1.421875 24.609375 -1.421875 
Q 20.21875 -1.421875 15.453125 -0.5625 
Q 10.6875 0.296875 5.421875 2 
L 5.421875 11.28125 
Q 10.40625 8.6875 15.234375 7.390625 
Q 20.0625 6.109375 24.8125 6.109375 
Q 31.15625 6.109375 34.5625 8.28125 
Q 37.984375 10.453125 37.984375 14.40625 
Q 37.984375 18.0625 35.515625 20.015625 
Q 33.0625 21.96875 24.703125 23.78125 
L 21.578125 24.515625 
Q 13.234375 26.265625 9.515625 29.90625 
Q 5.8125 33.546875 5.8125 39.890625 
Q 5.8125 47.609375 11.28125 51.796875 
Q 16.75 56 26.8125 56 
Q 31.78125 56 36.171875 55.265625 
Q 40.578125 54.546875 44.28125 53.078125 
z
" id="DejaVuSans-115"/>
       <path d="M 18.3125 70.21875 
L 18.3125 54.6875 
L 36.8125 54.6875 
L 36.8125 47.703125 
L 18.3125 47.703125 
L 18.3125 18.015625 
Q 18.3125 11.328125 20.140625 9.421875 
Q 21.96875 7.515625 27.59375 7.515625 
L 36.8125 7.515625 
L 36.8125 0 
L 27.59375 0 
Q 17.1875 0 13.234375 3.875 
Q 9.28125 7.765625 9.28125 18.015625 
L 9.28125 47.703125 
L 2.6875 47.703125 
L 2.6875 54.6875 
L 9.28125 54.6875 
L 9.28125 70.21875 
z
" id="DejaVuSans-116"/>
       <path d="M 52 44.1875 
Q 55.375 50.25 60.0625 53.125 
Q 64.75 56 71.09375 56 
Q 79.640625 56 84.28125 50.015625 
Q 88.921875 44.046875 88.921875 33.015625 
L 88.921875 0 
L 79.890625 0 
L 79.890625 32.71875 
Q 79.890625 40.578125 77.09375 44.375 
Q 74.3125 48.1875 68.609375 48.1875 
Q 61.625 48.1875 57.5625 43.546875 
Q 53.515625 38.921875 53.515625 30.90625 
L 53.515625 0 
L 44.484375 0 
L 44.484375 32.71875 
Q 44.484375 40.625 41.703125 44.40625 
Q 38.921875 48.1875 33.109375 48.1875 
Q 26.21875 48.1875 22.15625 43.53125 
Q 18.109375 38.875 18.109375 30.90625 
L 18.109375 0 
L 9.078125 0 
L 9.078125 54.6875 
L 18.109375 54.6875 
L 18.109375 46.1875 
Q 21.1875 51.21875 25.484375 53.609375 
Q 29.78125 56 35.6875 56 
Q 41.65625 56 45.828125 52.96875 
Q 50 49.953125 52 44.1875 
z
" id="DejaVuSans-109"/>
       <path d="M 54.890625 33.015625 
L 54.890625 0 
L 45.90625 0 
L 45.90625 32.71875 
Q 45.90625 40.484375 42.875 44.328125 
Q 39.84375 48.1875 33.796875 48.1875 
Q 26.515625 48.1875 22.3125 43.546875 
Q 18.109375 38.921875 18.109375 30.90625 
L 18.109375 0 
L 9.078125 0 
L 9.078125 54.6875 
L 18.109375 54.6875 
L 18.109375 46.1875 
Q 21.34375 51.125 25.703125 53.5625 
Q 30.078125 56 35.796875 56 
Q 45.21875 56 50.046875 50.171875 
Q 54.890625 44.34375 54.890625 33.015625 
z
" id="DejaVuSans-110"/>
       <path d="M 48.78125 52.59375 
L 48.78125 44.1875 
Q 44.96875 46.296875 41.140625 47.34375 
Q 37.3125 48.390625 33.40625 48.390625 
Q 24.65625 48.390625 19.8125 42.84375 
Q 14.984375 37.3125 14.984375 27.296875 
Q 14.984375 17.28125 19.8125 11.734375 
Q 24.65625 6.203125 33.40625 6.203125 
Q 37.3125 6.203125 41.140625 7.25 
Q 44.96875 8.296875 48.78125 10.40625 
L 48.78125 2.09375 
Q 45.015625 0.34375 40.984375 -0.53125 
Q 36.96875 -1.421875 32.421875 -1.421875 
Q 20.0625 -1.421875 12.78125 6.34375 
Q 5.515625 14.109375 5.515625 27.296875 
Q 5.515625 40.671875 12.859375 48.328125 
Q 20.21875 56 33.015625 56 
Q 37.15625 56 41.109375 55.140625 
Q 45.0625 54.296875 48.78125 52.59375 
z
" id="DejaVuSans-99"/>
       <path d="M 2.984375 54.6875 
L 12.5 54.6875 
L 29.59375 8.796875 
L 46.6875 54.6875 
L 56.203125 54.6875 
L 35.6875 0 
L 23.484375 0 
z
" id="DejaVuSans-118"/>
       <path d="M 8.015625 75.875 
L 15.828125 75.875 
Q 23.140625 64.359375 26.78125 53.3125 
Q 30.421875 42.28125 30.421875 31.390625 
Q 30.421875 20.453125 26.78125 9.375 
Q 23.140625 -1.703125 15.828125 -13.1875 
L 8.015625 -13.1875 
Q 14.5 -2 17.703125 9.0625 
Q 20.90625 20.125 20.90625 31.390625 
Q 20.90625 42.671875 17.703125 53.65625 
Q 14.5 64.65625 8.015625 75.875 
z
" id="DejaVuSans-41"/>
      </defs>
      <use xlink:href="#DejaVuSans-70"/>
      <use x="52.019531" xlink:href="#DejaVuSans-117"/>
      <use x="115.398438" xlink:href="#DejaVuSans-122"/>
      <use x="167.888672" xlink:href="#DejaVuSans-122"/>
      <use x="220.378906" xlink:href="#DejaVuSans-101"/>
      <use x="281.902344" xlink:href="#DejaVuSans-114"/>
      <use x="323.015625" xlink:href="#DejaVuSans-32"/>
      <use x="354.802734" xlink:href="#DejaVuSans-40"/>
      <use x="393.816406" xlink:href="#DejaVuSans-104"/>
      <use x="457.195312" xlink:href="#DejaVuSans-105"/>
      <use x="484.978516" xlink:href="#DejaVuSans-103"/>
      <use x="548.455078" xlink:href="#DejaVuSans-104"/>
      <use x="611.833984" xlink:href="#DejaVuSans-101"/>
      <use x="673.357422" xlink:href="#DejaVuSans-115"/>
      <use x="725.457031" xlink:href="#DejaVuSans-116"/>
      <use x="764.666016" xlink:href="#DejaVuSans-32"/>
      <use x="796.453125" xlink:href="#DejaVuSans-109"/>
      <use x="893.865234" xlink:href="#DejaVuSans-101"/>
      <use x="955.388672" xlink:href="#DejaVuSans-100"/>
      <use x="1018.865234" xlink:href="#DejaVuSans-105"/>
      <use x="1046.648438" xlink:href="#DejaVuSans-97"/>
      <use x="1107.927734" xlink:href="#DejaVuSans-110"/>
      <use x="1171.306641" xlink:href="#DejaVuSans-32"/>
      <use x="1203.09375" xlink:href="#DejaVuSans-99"/>
      <use x="1258.074219" xlink:href="#DejaVuSans-111"/>
      <use x="1319.255859" xlink:href="#DejaVuSans-118"/>
      <use x="1378.435547" xlink:href="#DejaVuSans-101"/>
      <use x="1439.958984" xlink:href="#DejaVuSans-114"/>
      <use x="1481.072266" xlink:href="#DejaVuSans-97"/>
      <use x="1542.351562" xlink:href="#DejaVuSans-103"/>
      <use x="1605.828125" xlink:href="#DejaVuSans-101"/>
      <use x="1667.351562" xlink:href="#DejaVuSans-32"/>
      <use x="1699.138672" xlink:href="#DejaVuSans-111"/>
      <use x="1760.320312" xlink:href="#DejaVuSans-110"/>
      <use x="1823.699219" xlink:href="#DejaVuSans-32"/>
      <use x="1855.486328" xlink:href="#DejaVuSans-116"/>
      <use x="1894.695312" xlink:href="#DejaVuSans-104"/>
      <use x="1958.074219" xlink:href="#DejaVuSans-101"/>
      <use x="2019.597656" xlink:href="#DejaVuSans-32"/>
      <use x="2051.384766" xlink:href="#DejaVuSans-108"/>
      <use x="2079.167969" xlink:href="#DejaVuSans-101"/>
      <use x="2140.691406" xlink:href="#DejaVuSans-102"/>
      <use x="2174.146484" xlink:href="#DejaVuSans-116"/>
      <use x="2213.355469" xlink:href="#DejaVuSans-41"/>
     </g>
    </g>
   </g>
   <g id="matplotlib.axis_2">
    <g id="ytick_1">
     <g id="line2d_5">
      <defs>
       <path d="M 0 0 
L -3.5 0 
" id="m23ac122688" style="stroke:#000000;stroke-width:0.8;"/>
      </defs>
      <g>
       <use style="stroke:#000000;stroke-width:0.8;" x="59.690625" xlink:href="#m23ac122688" y="256.907496"/>
      </g>
     </g>
     <g id="text_6">
      <!-- 16000 -->
      <g transform="translate(20.878125 260.706715)scale(0.1 -0.1)">
       <defs>
        <path d="M 12.40625 8.296875 
L 28.515625 8.296875 
L 28.515625 63.921875 
L 10.984375 60.40625 
L 10.984375 69.390625 
L 28.421875 72.90625 
L 38.28125 72.90625 
L 38.28125 8.296875 
L 54.390625 8.296875 
L 54.390625 0 
L 12.40625 0 
z
" id="DejaVuSans-49"/>
        <path d="M 33.015625 40.375 
Q 26.375 40.375 22.484375 35.828125 
Q 18.609375 31.296875 18.609375 23.390625 
Q 18.609375 15.53125 22.484375 10.953125 
Q 26.375 6.390625 33.015625 6.390625 
Q 39.65625 6.390625 43.53125 10.953125 
Q 47.40625 15.53125 47.40625 23.390625 
Q 47.40625 31.296875 43.53125 35.828125 
Q 39.65625 40.375 33.015625 40.375 
z
M 52.59375 71.296875 
L 52.59375 62.3125 
Q 48.875 64.0625 45.09375 64.984375 
Q 41.3125 65.921875 37.59375 65.921875 
Q 27.828125 65.921875 22.671875 59.328125 
Q 17.53125 52.734375 16.796875 39.40625 
Q 19.671875 43.65625 24.015625 45.921875 
Q 28.375 48.1875 33.59375 48.1875 
Q 44.578125 48.1875 50.953125 41.515625 
Q 57.328125 34.859375 57.328125 23.390625 
Q 57.328125 12.15625 50.6875 5.359375 
Q 44.046875 -1.421875 33.015625 -1.421875 
Q 20.359375 -1.421875 13.671875 8.265625 
Q 6.984375 17.96875 6.984375 36.375 
Q 6.984375 53.65625 15.1875 63.9375 
Q 23.390625 74.21875 37.203125 74.21875 
Q 40.921875 74.21875 44.703125 73.484375 
Q 48.484375 72.75 52.59375 71.296875 
z
" id="DejaVuSans-54"/>
        <path d="M 31.78125 66.40625 
Q 24.171875 66.40625 20.328125 58.90625 
Q 16.5 51.421875 16.5 36.375 
Q 16.5 21.390625 20.328125 13.890625 
Q 24.171875 6.390625 31.78125 6.390625 
Q 39.453125 6.390625 43.28125 13.890625 
Q 47.125 21.390625 47.125 36.375 
Q 47.125 51.421875 43.28125 58.90625 
Q 39.453125 66.40625 31.78125 66.40625 
z
M 31.78125 74.21875 
Q 44.046875 74.21875 50.515625 64.515625 
Q 56.984375 54.828125 56.984375 36.375 
Q 56.984375 17.96875 50.515625 8.265625 
Q 44.046875 -1.421875 31.78125 -1.421875 
Q 19.53125 -1.421875 13.0625 8.265625 
Q 6.59375 17.96875 6.59375 36.375 
Q 6.59375 54.828125 13.0625 64.515625 
Q 19.53125 74.21875 31.78125 74.21875 
z
" id="DejaVuSans-48"/>
       </defs>
       <use xlink:href="#DejaVuSans-49"/>
       <use x="63.623047" xlink:href="#DejaVuSans-54"/>
       <use x="127.246094" xlink:href="#DejaVuSans-48"/>
       <use x="190.869141" xlink:href="#DejaVuSans-48"/>
       <use x="254.492188" xlink:href="#DejaVuSans-48"/>
      </g>
     </g>
    </g>
    <g id="ytick_2">
     <g id="line2d_6">
      <g>
       <use style="stroke:#000000;stroke-width:0.8;" x="59.690625" xlink:href="#m23ac122688" y="207.867994"/>
      </g>
     </g>
     <g id="text_7">
      <!-- 18000 -->
      <g transform="translate(20.878125 211.667213)scale(0.1 -0.1)">
       <defs>
        <path d="M 31.78125 34.625 
Q 24.75 34.625 20.71875 30.859375 
Q 16.703125 27.09375 16.703125 20.515625 
Q 16.703125 13.921875 20.71875 10.15625 
Q 24.75 6.390625 31.78125 6.390625 
Q 38.8125 6.390625 42.859375 10.171875 
Q 46.921875 13.96875 46.921875 20.515625 
Q 46.921875 27.09375 42.890625 30.859375 
Q 38.875 34.625 31.78125 34.625 
z
M 21.921875 38.8125 
Q 15.578125 40.375 12.03125 44.71875 
Q 8.5 49.078125 8.5 55.328125 
Q 8.5 64.0625 14.71875 69.140625 
Q 20.953125 74.21875 31.78125 74.21875 
Q 42.671875 74.21875 48.875 69.140625 
Q 55.078125 64.0625 55.078125 55.328125 
Q 55.078125 49.078125 51.53125 44.71875 
Q 48 40.375 41.703125 38.8125 
Q 48.828125 37.15625 52.796875 32.3125 
Q 56.78125 27.484375 56.78125 20.515625 
Q 56.78125 9.90625 50.3125 4.234375 
Q 43.84375 -1.421875 31.78125 -1.421875 
Q 19.734375 -1.421875 13.25 4.234375 
Q 6.78125 9.90625 6.78125 20.515625 
Q 6.78125 27.484375 10.78125 32.3125 
Q 14.796875 37.15625 21.921875 38.8125 
z
M 18.3125 54.390625 
Q 18.3125 48.734375 21.84375 45.5625 
Q 25.390625 42.390625 31.78125 42.390625 
Q 38.140625 42.390625 41.71875 45.5625 
Q 45.3125 48.734375 45.3125 54.390625 
Q 45.3125 60.0625 41.71875 63.234375 
Q 38.140625 66.40625 31.78125 66.40625 
Q 25.390625 66.40625 21.84375 63.234375 
Q 18.3125 60.0625 18.3125 54.390625 
z
" id="DejaVuSans-56"/>
       </defs>
       <use xlink:href="#DejaVuSans-49"/>
       <use x="63.623047" xlink:href="#DejaVuSans-56"/>
       <use x="127.246094" xlink:href="#DejaVuSans-48"/>
       <use x="190.869141" xlink:href="#DejaVuSans-48"/>
       <use x="254.492188" xlink:href="#DejaVuSans-48"/>
      </g>
     </g>
    </g>
    <g id="ytick_3">
     <g id="line2d_7">
      <g>
       <use style="stroke:#000000;stroke-width:0.8;" x="59.690625" xlink:href="#m23ac122688" y="158.828492"/>
      </g>
     </g>
     <g id="text_8">
      <!-- 20000 -->
      <g transform="translate(20.878125 162.627711)scale(0.1 -0.1)">
       <defs>
        <path d="M 19.1875 8.296875 
L 53.609375 8.296875 
L 53.609375 0 
L 7.328125 0 
L 7.328125 8.296875 
Q 12.9375 14.109375 22.625 23.890625 
Q 32.328125 33.6875 34.8125 36.53125 
Q 39.546875 41.84375 41.421875 45.53125 
Q 43.3125 49.21875 43.3125 52.78125 
Q 43.3125 58.59375 39.234375 62.25 
Q 35.15625 65.921875 28.609375 65.921875 
Q 23.96875 65.921875 18.8125 64.3125 
Q 13.671875 62.703125 7.8125 59.421875 
L 7.8125 69.390625 
Q 13.765625 71.78125 18.9375 73 
Q 24.125 74.21875 28.421875 74.21875 
Q 39.75 74.21875 46.484375 68.546875 
Q 53.21875 62.890625 53.21875 53.421875 
Q 53.21875 48.921875 51.53125 44.890625 
Q 49.859375 40.875 45.40625 35.40625 
Q 44.1875 33.984375 37.640625 27.21875 
Q 31.109375 20.453125 19.1875 8.296875 
z
" id="DejaVuSans-50"/>
       </defs>
       <use xlink:href="#DejaVuSans-50"/>
       <use x="63.623047" xlink:href="#DejaVuSans-48"/>
       <use x="127.246094" xlink:href="#DejaVuSans-48"/>
       <use x="190.869141" xlink:href="#DejaVuSans-48"/>
       <use x="254.492188" xlink:href="#DejaVuSans-48"/>
      </g>
     </g>
    </g>
    <g id="ytick_4">
     <g id="line2d_8">
      <g>
       <use style="stroke:#000000;stroke-width:0.8;" x="59.690625" xlink:href="#m23ac122688" y="109.788991"/>
      </g>
     </g>
     <g id="text_9">
      <!-- 22000 -->
      <g transform="translate(20.878125 113.588209)scale(0.1 -0.1)">
       <use xlink:href="#DejaVuSans-50"/>
       <use x="63.623047" xlink:href="#DejaVuSans-50"/>
       <use x="127.246094" xlink:href="#DejaVuSans-48"/>
       <use x="190.869141" xlink:href="#DejaVuSans-48"/>
       <use x="254.492188" xlink:href="#DejaVuSans-48"/>
      </g>
     </g>
    </g>
    <g id="ytick_5">
     <g id="line2d_9">
      <g>
       <use style="stroke:#000000;stroke-width:0.8;" x="59.690625" xlink:href="#m23ac122688" y="60.749489"/>
      </g>
     </g>
     <g id="text_10">
      <!-- 24000 -->
      <g transform="translate(20.878125 64.548708)scale(0.1 -0.1)">
       <defs>
        <path d="M 37.796875 64.3125 
L 12.890625 25.390625 
L 37.796875 25.390625 
z
M 35.203125 72.90625 
L 47.609375 72.90625 
L 47.609375 25.390625 
L 58.015625 25.390625 
L 58.015625 17.1875 
L 47.609375 17.1875 
L 47.609375 0 
L 37.796875 0 
L 37.796875 17.1875 
L 4.890625 17.1875 
L 4.890625 26.703125 
z
" id="DejaVuSans-52"/>
       </defs>
       <use xlink:href="#DejaVuSans-50"/>
       <use x="63.623047" xlink:href="#DejaVuSans-52"/>
       <use x="127.246094" xlink:href="#DejaVuSans-48"/>
       <use x="190.869141" xlink:href="#DejaVuSans-48"/>
       <use x="254.492188" xlink:href="#DejaVuSans-48"/>
      </g>
     </g>
    </g>
    <g id="text_11">
     <!-- Reached edge coverage -->
     <g transform="translate(14.798438 215.82725)rotate(-90)scale(0.1 -0.1)">
      <defs>
       <path d="M 44.390625 34.1875 
Q 47.5625 33.109375 50.5625 29.59375 
Q 53.5625 26.078125 56.59375 19.921875 
L 66.609375 0 
L 56 0 
L 46.6875 18.703125 
Q 43.0625 26.03125 39.671875 28.421875 
Q 36.28125 30.8125 30.421875 30.8125 
L 19.671875 30.8125 
L 19.671875 0 
L 9.8125 0 
L 9.8125 72.90625 
L 32.078125 72.90625 
Q 44.578125 72.90625 50.734375 67.671875 
Q 56.890625 62.453125 56.890625 51.90625 
Q 56.890625 45.015625 53.6875 40.46875 
Q 50.484375 35.9375 44.390625 34.1875 
z
M 19.671875 64.796875 
L 19.671875 38.921875 
L 32.078125 38.921875 
Q 39.203125 38.921875 42.84375 42.21875 
Q 46.484375 45.515625 46.484375 51.90625 
Q 46.484375 58.296875 42.84375 61.546875 
Q 39.203125 64.796875 32.078125 64.796875 
z
" id="DejaVuSans-82"/>
      </defs>
      <use xlink:href="#DejaVuSans-82"/>
      <use x="64.982422" xlink:href="#DejaVuSans-101"/>
      <use x="126.505859" xlink:href="#DejaVuSans-97"/>
      <use x="187.785156" xlink:href="#DejaVuSans-99"/>
      <use x="242.765625" xlink:href="#DejaVuSans-104"/>
      <use x="306.144531" xlink:href="#DejaVuSans-101"/>
      <use x="367.667969" xlink:href="#DejaVuSans-100"/>
      <use x="431.144531" xlink:href="#DejaVuSans-32"/>
      <use x="462.931641" xlink:href="#DejaVuSans-101"/>
      <use x="524.455078" xlink:href="#DejaVuSans-100"/>
      <use x="587.931641" xlink:href="#DejaVuSans-103"/>
      <use x="651.408203" xlink:href="#DejaVuSans-101"/>
      <use x="712.931641" xlink:href="#DejaVuSans-32"/>
      <use x="744.71875" xlink:href="#DejaVuSans-99"/>
      <use x="799.699219" xlink:href="#DejaVuSans-111"/>
      <use x="860.880859" xlink:href="#DejaVuSans-118"/>
      <use x="920.060547" xlink:href="#DejaVuSans-101"/>
      <use x="981.583984" xlink:href="#DejaVuSans-114"/>
      <use x="1022.697266" xlink:href="#DejaVuSans-97"/>
      <use x="1083.976562" xlink:href="#DejaVuSans-103"/>
      <use x="1147.453125" xlink:href="#DejaVuSans-101"/>
     </g>
    </g>
   </g>
   <g id="line2d_10">
    <path clip-path="url(#p379023e72f)" d="M 104.330625 110.279386 
L 104.330625 61.043726 
" style="fill:none;stroke:#3f3f3f;stroke-linecap:square;stroke-width:1.5;"/>
   </g>
   <g id="line2d_11">
    <path clip-path="url(#p379023e72f)" d="M 104.330625 98.264708 
L 104.330625 72.837726 
" style="fill:none;stroke:#3f3f3f;stroke-linecap:square;stroke-width:4.5;"/>
   </g>
   <g id="line2d_12">
    <path clip-path="url(#p379023e72f)" d="M 193.610625 123.544571 
L 193.610625 99.539735 
" style="fill:none;stroke:#3f3f3f;stroke-linecap:square;stroke-width:1.5;"/>
   </g>
   <g id="line2d_13">
    <path clip-path="url(#p379023e72f)" d="M 193.610625 115.612431 
L 193.610625 103.033799 
" style="fill:none;stroke:#3f3f3f;stroke-linecap:square;stroke-width:4.5;"/>
   </g>
   <g id="line2d_14">
    <path clip-path="url(#p379023e72f)" d="M 282.890625 129.404791 
L 282.890625 103.659053 
" style="fill:none;stroke:#3f3f3f;stroke-linecap:square;stroke-width:1.5;"/>
   </g>
   <g id="line2d_15">
    <path clip-path="url(#p379023e72f)" d="M 282.890625 128.859227 
L 282.890625 118.095056 
" style="fill:none;stroke:#3f3f3f;stroke-linecap:square;stroke-width:4.5;"/>
   </g>
   <g id="line2d_16">
    <path clip-path="url(#p379023e72f)" d="M 372.170625 215.714314 
L 372.170625 108.710122 
" style="fill:none;stroke:#3f3f3f;stroke-linecap:square;stroke-width:1.5;"/>
   </g>
   <g id="line2d_17">
    <path clip-path="url(#p379023e72f)" d="M 372.170625 176.133307 
L 372.170625 118.806129 
" style="fill:none;stroke:#3f3f3f;stroke-linecap:square;stroke-width:4.5;"/>
   </g>
   <g id="patch_3">
    <path d="M 59.690625 256.907496 
L 59.690625 60.749489 
" style="fill:none;stroke:#000000;stroke-linecap:square;stroke-linejoin:miter;stroke-width:0.8;"/>
   </g>
   <g id="patch_4">
    <path d="M 104.330625 288.430125 
L 372.170625 288.430125 
" style="fill:none;stroke:#000000;stroke-linecap:square;stroke-linejoin:miter;stroke-width:0.8;"/>
   </g>
   <g id="PathCollection_1">
    <defs>
     <path d="M 0 1.5 
C 0.397805 1.5 0.77937 1.341951 1.06066 1.06066 
C 1.341951 0.77937 1.5 0.397805 1.5 0 
C 1.5 -0.397805 1.341951 -0.77937 1.06066 -1.06066 
C 0.77937 -1.341951 0.397805 -1.5 0 -1.5 
C -0.397805 -1.5 -0.77937 -1.341951 -1.06066 -1.06066 
C -1.341951 -0.77937 -1.5 -0.397805 -1.5 0 
C -1.5 0.397805 -1.341951 0.77937 -1.06066 1.06066 
C -0.77937 1.341951 -0.397805 1.5 0 1.5 
z
" id="m0372151af5" style="stroke:#3f3f3f;"/>
    </defs>
    <g clip-path="url(#p379023e72f)">
     <use style="fill:#ffffff;stroke:#3f3f3f;" x="104.330625" xlink:href="#m0372151af5" y="86.102911"/>
    </g>
   </g>
   <g id="PathCollection_2">
    <g clip-path="url(#p379023e72f)">
     <use style="fill:#ffffff;stroke:#3f3f3f;" x="193.610625" xlink:href="#m0372151af5" y="111.272436"/>
    </g>
   </g>
   <g id="PathCollection_3">
    <g clip-path="url(#p379023e72f)">
     <use style="fill:#ffffff;stroke:#3f3f3f;" x="282.890625" xlink:href="#m0372151af5" y="124.856378"/>
    </g>
   </g>
   <g id="PathCollection_4">
    <g clip-path="url(#p379023e72f)">
     <use style="fill:#ffffff;stroke:#3f3f3f;" x="372.170625" xlink:href="#m0372151af5" y="130.716598"/>
    </g>
   </g>
   <g id="text_12">
    <!-- sqlite3_ossfuzz (24h, 6 trials/fuzzer) -->
    <g transform="translate(130.073438 16.318125)scale(0.12 -0.12)">
     <defs>
      <path d="M 14.796875 27.296875 
Q 14.796875 17.390625 18.875 11.75 
Q 22.953125 6.109375 30.078125 6.109375 
Q 37.203125 6.109375 41.296875 11.75 
Q 45.40625 17.390625 45.40625 27.296875 
Q 45.40625 37.203125 41.296875 42.84375 
Q 37.203125 48.484375 30.078125 48.484375 
Q 22.953125 48.484375 18.875 42.84375 
Q 14.796875 37.203125 14.796875 27.296875 
z
M 45.40625 8.203125 
Q 42.578125 3.328125 38.25 0.953125 
Q 33.9375 -1.421875 27.875 -1.421875 
Q 17.96875 -1.421875 11.734375 6.484375 
Q 5.515625 14.40625 5.515625 27.296875 
Q 5.515625 40.1875 11.734375 48.09375 
Q 17.96875 56 27.875 56 
Q 33.9375 56 38.25 53.625 
Q 42.578125 51.265625 45.40625 46.390625 
L 45.40625 54.6875 
L 54.390625 54.6875 
L 54.390625 -20.796875 
L 45.40625 -20.796875 
z
" id="DejaVuSans-113"/>
      <path d="M 40.578125 39.3125 
Q 47.65625 37.796875 51.625 33 
Q 55.609375 28.21875 55.609375 21.1875 
Q 55.609375 10.40625 48.1875 4.484375 
Q 40.765625 -1.421875 27.09375 -1.421875 
Q 22.515625 -1.421875 17.65625 -0.515625 
Q 12.796875 0.390625 7.625 2.203125 
L 7.625 11.71875 
Q 11.71875 9.328125 16.59375 8.109375 
Q 21.484375 6.890625 26.8125 6.890625 
Q 36.078125 6.890625 40.9375 10.546875 
Q 45.796875 14.203125 45.796875 21.1875 
Q 45.796875 27.640625 41.28125 31.265625 
Q 36.765625 34.90625 28.71875 34.90625 
L 20.21875 34.90625 
L 20.21875 43.015625 
L 29.109375 43.015625 
Q 36.375 43.015625 40.234375 45.921875 
Q 44.09375 48.828125 44.09375 54.296875 
Q 44.09375 59.90625 40.109375 62.90625 
Q 36.140625 65.921875 28.71875 65.921875 
Q 24.65625 65.921875 20.015625 65.03125 
Q 15.375 64.15625 9.8125 62.3125 
L 9.8125 71.09375 
Q 15.4375 72.65625 20.34375 73.4375 
Q 25.25 74.21875 29.59375 74.21875 
Q 40.828125 74.21875 47.359375 69.109375 
Q 53.90625 64.015625 53.90625 55.328125 
Q 53.90625 49.265625 50.4375 45.09375 
Q 46.96875 40.921875 40.578125 39.3125 
z
" id="DejaVuSans-51"/>
      <path d="M 11.71875 12.40625 
L 22.015625 12.40625 
L 22.015625 4 
L 14.015625 -11.625 
L 7.71875 -11.625 
L 11.71875 4 
z
" id="DejaVuSans-44"/>
      <path d="M 25.390625 72.90625 
L 33.6875 72.90625 
L 8.296875 -9.28125 
L 0 -9.28125 
z
" id="DejaVuSans-47"/>
     </defs>
     <use xlink:href="#DejaVuSans-115"/>
     <use x="52.099609" xlink:href="#DejaVuSans-113"/>
     <use x="115.576172" xlink:href="#DejaVuSans-108"/>
     <use x="143.359375" xlink:href="#DejaVuSans-105"/>
     <use x="171.142578" xlink:href="#DejaVuSans-116"/>
     <use x="210.351562" xlink:href="#DejaVuSans-101"/>
     <use x="271.875" xlink:href="#DejaVuSans-51"/>
     <use x="335.498047" xlink:href="#DejaVuSans-95"/>
     <use x="385.498047" xlink:href="#DejaVuSans-111"/>
     <use x="446.679688" xlink:href="#DejaVuSans-115"/>
     <use x="498.779297" xlink:href="#DejaVuSans-115"/>
     <use x="550.878906" xlink:href="#DejaVuSans-102"/>
     <use x="586.083984" xlink:href="#DejaVuSans-117"/>
     <use x="649.462891" xlink:href="#DejaVuSans-122"/>
     <use x="701.953125" xlink:href="#DejaVuSans-122"/>
     <use x="754.443359" xlink:href="#DejaVuSans-32"/>
     <use x="786.230469" xlink:href="#DejaVuSans-40"/>
     <use x="825.244141" xlink:href="#DejaVuSans-50"/>
     <use x="888.867188" xlink:href="#DejaVuSans-52"/>
     <use x="952.490234" xlink:href="#DejaVuSans-104"/>
     <use x="1015.869141" xlink:href="#DejaVuSans-44"/>
     <use x="1047.65625" xlink:href="#DejaVuSans-32"/>
     <use x="1079.443359" xlink:href="#DejaVuSans-54"/>
     <use x="1143.066406" xlink:href="#DejaVuSans-32"/>
     <use x="1174.853516" xlink:href="#DejaVuSans-116"/>
     <use x="1214.0625" xlink:href="#DejaVuSans-114"/>
     <use x="1255.175781" xlink:href="#DejaVuSans-105"/>
     <use x="1282.958984" xlink:href="#DejaVuSans-97"/>
     <use x="1344.238281" xlink:href="#DejaVuSans-108"/>
     <use x="1372.021484" xlink:href="#DejaVuSans-115"/>
     <use x="1424.121094" xlink:href="#DejaVuSans-47"/>
     <use x="1457.8125" xlink:href="#DejaVuSans-102"/>
     <use x="1493.017578" xlink:href="#DejaVuSans-117"/>
     <use x="1556.396484" xlink:href="#DejaVuSans-122"/>
     <use x="1608.886719" xlink:href="#DejaVuSans-122"/>
     <use x="1661.376953" xlink:href="#DejaVuSans-101"/>
     <use x="1722.900391" xlink:href="#DejaVuSans-114"/>
     <use x="1764.013672" xlink:href="#DejaVuSans-41"/>
    </g>
   </g>
  </g>
 </g>
 <defs>
  <clipPath id="p379023e72f">
   <rect height="266.112" width="357.12" x="59.690625" y="22.318125"/>
  </clipPath>
 </defs>
</svg>
