<?xml version="1.0" encoding="utf-8" standalone="no"?>
<!DOCTYPE svg PUBLIC "-//W3C//DTD SVG 1.1//EN"
  "http://www.w3.org/Graphics/SVG/1.1/DTD/svg11.dtd">
<svg height="325.986375pt" version="1.1" viewBox="0 0 944.5775 325.986375" width="944.5775pt" xmlns="http://www.w3.org/2000/svg" xmlns:xlink="http://www.w3.org/1999/xlink">
 <metadata>
  <rdf:RDF xmlns:cc="http://creativecommons.org/ns#" xmlns:dc="http://purl.org/dc/elements/1.1/" xmlns:rdf="http://www.w3.org/1999/02/22-rdf-syntax-ns#">
   <cc:Work>
    <dc:type rdf:resource="http://purl.org/dc/dcmitype/StillImage"/>
    <dc:date>2021-07-12T12:50:41.380827</dc:date>
    <dc:format>image/svg+xml</dc:format>
    <dc:creator>
     <cc:Agent>
      <dc:title>Matplotlib v3.4.1, https://matplotlib.org/</dc:title>
     </cc:Agent>
    </dc:creator>
   </cc:Work>
  </rdf:RDF>
 </metadata>
 <defs>
  <style type="text/css">*{stroke-linecap:butt;stroke-linejoin:round;}</style>
 </defs>
 <g id="figure_1">
  <g id="patch_1">
   <path d="M 0 325.986375 
L 944.5775 325.986375 
L 944.5775 0 
L 0 0 
z
" style="fill:#ffffff;"/>
  </g>
  <g id="axes_1">
   <g id="patch_2">
    <path d="M 59.690625 288.430125 
L 773.930625 288.430125 
L 773.930625 22.318125 
L 59.690625 22.318125 
z
" style="fill:#ffffff;"/>
   </g>
   <g id="PolyCollection_1">
    <defs>
     <path d="M 92.15608 -224.071971 
L 92.15608 -49.65225 
L 194.863526 -216.499379 
L 254.943531 -220.250938 
L 297.570972 -236.174223 
L 330.635385 -244.691653 
L 357.650977 -247.748479 
L 380.492335 -249.401944 
L 400.278419 -252.625506 
L 417.730982 -254.695811 
L 433.342831 -255.515596 
L 447.465467 -255.515596 
L 460.358423 -256.654959 
L 472.218794 -259.447786 
L 483.199781 -261.323566 
L 493.422836 -261.615354 
L 502.985865 -261.615354 
L 511.96895 -262.393455 
L 520.438428 -265.561438 
L 528.449867 -266.117225 
L 536.050278 -270.45236 
L 543.279786 -270.605202 
L 550.172913 -270.66078 
L 556.759577 -270.66078 
L 563.06587 -270.730254 
L 569.11469 -271.119304 
L 574.92624 -271.369408 
L 580.518433 -271.49446 
L 585.907227 -271.522249 
L 591.106902 -271.522249 
L 596.130282 -271.563933 
L 600.988932 -277.149588 
L 605.693312 -277.441376 
L 610.252918 -277.51085 
L 614.676397 -278.080531 
L 618.97164 -278.288951 
L 623.145874 -279.15042 
L 627.205732 -279.219893 
L 631.157313 -282.471245 
L 635.006245 -282.471245 
L 638.757724 -282.637981 
L 642.416565 -282.679665 
L 645.987232 -283.054821 
L 649.473876 -283.791238 
L 652.88036 -284.152499 
L 656.210287 -284.180289 
L 659.467023 -284.33313 
L 662.653716 -284.374814 
L 665.773316 -284.374814 
L 668.82859 -284.388709 
L 671.822137 -284.444287 
L 674.756401 -284.680497 
L 677.633686 -284.875022 
L 680.456163 -284.875022 
L 683.225879 -284.875022 
L 685.944772 -284.944495 
L 688.614674 -285.76428 
L 691.237318 -285.805964 
L 693.814349 -285.805964 
L 696.347325 -285.819859 
L 698.837729 -285.819859 
L 701.286967 -286.042174 
L 703.696378 -286.042174 
L 706.067237 -286.431224 
L 708.400758 -286.431224 
L 710.698099 -286.431224 
L 712.960365 -286.653539 
L 715.18861 -286.667434 
L 717.383843 -286.667434 
L 719.547028 -286.667434 
L 721.679086 -286.834169 
L 723.780902 -286.834169 
L 725.853321 -286.834169 
L 727.897154 -286.834169 
L 729.913178 -286.834169 
L 731.902141 -286.834169 
L 733.86476 -286.834169 
L 735.801722 -286.834169 
L 737.713691 -286.834169 
L 739.601303 -286.834169 
L 741.46517 -287.917953 
L 741.46517 -291.57225 
L 741.46517 -291.57225 
L 739.601303 -291.57225 
L 737.713691 -291.57225 
L 735.801722 -291.558355 
L 733.86476 -291.558355 
L 731.902141 -291.558355 
L 729.913178 -291.544461 
L 727.897154 -291.544461 
L 725.853321 -291.544461 
L 723.780902 -291.544461 
L 721.679086 -291.502777 
L 719.547028 -291.36383 
L 717.383843 -291.238778 
L 715.18861 -291.224883 
L 712.960365 -291.210989 
L 710.698099 -290.877517 
L 708.400758 -290.863622 
L 706.067237 -290.488466 
L 703.696378 -290.488466 
L 701.286967 -290.34952 
L 698.837729 -290.057732 
L 696.347325 -290.016048 
L 693.814349 -289.90489 
L 691.237318 -289.90489 
L 688.614674 -289.890996 
L 685.944772 -289.890996 
L 683.225879 -289.877101 
L 680.456163 -289.821522 
L 677.633686 -289.474156 
L 674.756401 -289.474156 
L 671.822137 -289.474156 
L 668.82859 -289.362998 
L 665.773316 -289.099 
L 662.653716 -289.099 
L 659.467023 -287.334377 
L 656.210287 -287.000905 
L 652.88036 -286.736907 
L 649.473876 -286.59796 
L 645.987232 -286.528487 
L 642.416565 -286.528487 
L 638.757724 -286.528487 
L 635.006245 -286.18112 
L 631.157313 -286.18112 
L 627.205732 -286.00049 
L 623.145874 -286.00049 
L 618.97164 -285.931016 
L 614.676397 -285.750386 
L 610.252918 -284.694391 
L 605.693312 -284.041342 
L 600.988932 -284.041342 
L 596.130282 -283.805133 
L 591.106902 -279.56726 
L 585.907227 -279.56726 
L 580.518433 -279.386629 
L 574.92624 -279.303261 
L 569.11469 -279.303261 
L 563.06587 -279.219893 
L 556.759577 -278.719686 
L 550.172913 -278.719686 
L 543.279786 -278.34453 
L 536.050278 -277.469166 
L 528.449867 -277.469166 
L 520.438428 -277.205167 
L 511.96895 -276.413171 
L 502.985865 -276.149173 
L 493.422836 -274.82918 
L 483.199781 -274.579076 
L 472.218794 -273.939921 
L 460.358423 -273.300766 
L 447.465467 -264.533233 
L 433.342831 -264.422076 
L 417.730982 -263.977447 
L 400.278419 -263.505028 
L 380.492335 -262.018299 
L 357.650977 -257.780426 
L 330.635385 -255.293282 
L 297.570972 -251.875194 
L 254.943531 -246.108908 
L 194.863526 -241.829352 
L 92.15608 -224.071971 
z
" id="mf4f06fdf37" style="stroke:#98df8a;stroke-opacity:0.2;"/>
    </defs>
    <g clip-path="url(#p6721ccfe57)">
     <use style="fill:#98df8a;fill-opacity:0.2;stroke:#98df8a;stroke-opacity:0.2;" x="0" xlink:href="#mf4f06fdf37" y="325.986375"/>
    </g>
   </g>
   <g id="PolyCollection_2">
    <defs>
     <path d="M 92.15608 -228.393211 
L 92.15608 -225.517016 
L 194.863526 -232.464348 
L 254.943531 -242.801978 
L 297.570972 -249.443628 
L 330.635385 -250.721937 
L 357.650977 -252.945083 
L 380.492335 -253.639816 
L 400.278419 -257.724848 
L 417.730982 -257.780426 
L 433.342831 -258.892 
L 447.465467 -259.350524 
L 460.358423 -259.364418 
L 472.218794 -259.461681 
L 483.199781 -259.628417 
L 493.422836 -259.795153 
L 502.985865 -260.587149 
L 511.96895 -260.753885 
L 520.438428 -260.781674 
L 528.449867 -260.934515 
L 536.050278 -260.934515 
L 543.279786 -261.003989 
L 550.172913 -261.003989 
L 556.759577 -265.26965 
L 563.06587 -265.26965 
L 569.11469 -265.26965 
L 574.92624 -265.26965 
L 580.518433 -265.26965 
L 585.907227 -265.617017 
L 591.106902 -265.658701 
L 596.130282 -265.658701 
L 600.988932 -265.658701 
L 605.693312 -267.117641 
L 610.252918 -267.117641 
L 614.676397 -267.201009 
L 618.97164 -267.465007 
L 623.145874 -267.465007 
L 627.205732 -267.465007 
L 631.157313 -268.076373 
L 635.006245 -268.131951 
L 638.757724 -268.131951 
L 642.416565 -268.201425 
L 645.987232 -268.201425 
L 649.473876 -268.201425 
L 652.88036 -268.229214 
L 656.210287 -268.229214 
L 659.467023 -268.229214 
L 662.653716 -268.229214 
L 665.773316 -268.270898 
L 668.82859 -268.270898 
L 671.822137 -268.590475 
L 674.756401 -268.729422 
L 677.633686 -268.729422 
L 680.456163 -268.729422 
L 683.225879 -271.049831 
L 685.944772 -271.07762 
L 688.614674 -271.07762 
L 691.237318 -271.772353 
L 693.814349 -271.9113 
L 696.347325 -271.9113 
L 698.837729 -271.925195 
L 701.286967 -278.330635 
L 703.696378 -286.375646 
L 706.067237 -286.38954 
L 708.400758 -286.431224 
L 710.698099 -286.431224 
L 712.960365 -286.431224 
L 715.18861 -286.431224 
L 717.383843 -286.431224 
L 719.547028 -286.431224 
L 721.679086 -286.431224 
L 723.780902 -286.431224 
L 725.853321 -286.570171 
L 727.897154 -286.570171 
L 729.913178 -286.570171 
L 731.902141 -286.59796 
L 733.86476 -286.59796 
L 735.801722 -286.59796 
L 737.713691 -286.59796 
L 739.601303 -286.639644 
L 741.46517 -286.639644 
L 741.46517 -291.002569 
L 741.46517 -291.002569 
L 739.601303 -291.002569 
L 737.713691 -291.002569 
L 735.801722 -290.724675 
L 733.86476 -290.599623 
L 731.902141 -290.599623 
L 729.913178 -290.585729 
L 727.897154 -290.585729 
L 725.853321 -290.585729 
L 723.780902 -290.585729 
L 721.679086 -290.571834 
L 719.547028 -290.571834 
L 717.383843 -290.55794 
L 715.18861 -290.55794 
L 712.960365 -290.432888 
L 710.698099 -290.002153 
L 708.400758 -290.002153 
L 706.067237 -290.002153 
L 703.696378 -290.002153 
L 701.286967 -289.960469 
L 698.837729 -289.877101 
L 696.347325 -289.738154 
L 693.814349 -289.69647 
L 691.237318 -289.69647 
L 688.614674 -289.69647 
L 685.944772 -289.69647 
L 683.225879 -289.69647 
L 680.456163 -289.69647 
L 677.633686 -289.69647 
L 674.756401 -289.69647 
L 671.822137 -289.557524 
L 668.82859 -289.557524 
L 665.773316 -289.557524 
L 662.653716 -289.557524 
L 659.467023 -289.557524 
L 656.210287 -289.543629 
L 652.88036 -289.543629 
L 649.473876 -289.543629 
L 645.987232 -289.543629 
L 642.416565 -289.543629 
L 638.757724 -289.51584 
L 635.006245 -289.51584 
L 631.157313 -289.501945 
L 627.205732 -289.501945 
L 623.145874 -289.27963 
L 618.97164 -289.196262 
L 614.676397 -288.251425 
L 610.252918 -288.251425 
L 605.693312 -288.251425 
L 600.988932 -288.251425 
L 596.130282 -286.861959 
L 591.106902 -286.41733 
L 585.907227 -286.41733 
L 580.518433 -286.41733 
L 574.92624 -286.375646 
L 569.11469 -286.306172 
L 563.06587 -286.278383 
L 556.759577 -286.18112 
L 550.172913 -286.18112 
L 543.279786 -286.069963 
L 536.050278 -286.028279 
L 528.449867 -286.028279 
L 520.438428 -284.708286 
L 511.96895 -284.652707 
L 502.985865 -284.055237 
L 493.422836 -283.124294 
L 483.199781 -279.372735 
L 472.218794 -279.344945 
L 460.358423 -279.344945 
L 447.465467 -274.718022 
L 433.342831 -274.718022 
L 417.730982 -274.565181 
L 400.278419 -274.565181 
L 380.492335 -272.480981 
L 357.650977 -272.078036 
L 330.635385 -254.153919 
L 297.570972 -252.986767 
L 254.943531 -248.679421 
L 194.863526 -241.009567 
L 92.15608 -228.393211 
z
" id="mf91c542aac" style="stroke:#1f77b4;stroke-opacity:0.2;"/>
    </defs>
    <g clip-path="url(#p6721ccfe57)">
     <use style="fill:#1f77b4;fill-opacity:0.2;stroke:#1f77b4;stroke-opacity:0.2;" x="0" xlink:href="#mf91c542aac" y="325.986375"/>
    </g>
   </g>
   <g id="matplotlib.axis_1">
    <g id="xtick_1">
     <g id="line2d_1">
      <defs>
       <path d="M 0 0 
L 0 3.5 
" id="m612ba5fa41" style="stroke:#000000;stroke-width:0.8;"/>
      </defs>
      <g>
       <use style="stroke:#000000;stroke-width:0.8;" x="92.15608" xlink:href="#m612ba5fa41" y="288.430125"/>
      </g>
     </g>
     <g id="text_1">
      <!-- 14m -->
      <g transform="translate(80.923267 303.028562)scale(0.1 -0.1)">
       <defs>
        <path d="M 794 531 
L 1825 531 
L 1825 4091 
L 703 3866 
L 703 4441 
L 1819 4666 
L 2450 4666 
L 2450 531 
L 3481 531 
L 3481 0 
L 794 0 
L 794 531 
z
" id="DejaVuSans-31" transform="scale(0.015625)"/>
        <path d="M 2419 4116 
L 825 1625 
L 2419 1625 
L 2419 4116 
z
M 2253 4666 
L 3047 4666 
L 3047 1625 
L 3713 1625 
L 3713 1100 
L 3047 1100 
L 3047 0 
L 2419 0 
L 2419 1100 
L 313 1100 
L 313 1709 
L 2253 4666 
z
" id="DejaVuSans-34" transform="scale(0.015625)"/>
        <path d="M 3328 2828 
Q 3544 3216 3844 3400 
Q 4144 3584 4550 3584 
Q 5097 3584 5394 3201 
Q 5691 2819 5691 2113 
L 5691 0 
L 5113 0 
L 5113 2094 
Q 5113 2597 4934 2840 
Q 4756 3084 4391 3084 
Q 3944 3084 3684 2787 
Q 3425 2491 3425 1978 
L 3425 0 
L 2847 0 
L 2847 2094 
Q 2847 2600 2669 2842 
Q 2491 3084 2119 3084 
Q 1678 3084 1418 2786 
Q 1159 2488 1159 1978 
L 1159 0 
L 581 0 
L 581 3500 
L 1159 3500 
L 1159 2956 
Q 1356 3278 1631 3431 
Q 1906 3584 2284 3584 
Q 2666 3584 2933 3390 
Q 3200 3197 3328 2828 
z
" id="DejaVuSans-6d" transform="scale(0.015625)"/>
       </defs>
       <use xlink:href="#DejaVuSans-31"/>
       <use x="63.623047" xlink:href="#DejaVuSans-34"/>
       <use x="127.246094" xlink:href="#DejaVuSans-6d"/>
      </g>
     </g>
    </g>
    <g id="xtick_2">
     <g id="line2d_2">
      <g>
       <use style="stroke:#000000;stroke-width:0.8;" x="151.184366" xlink:href="#m612ba5fa41" y="288.430125"/>
      </g>
     </g>
     <g id="text_2">
      <!-- 22m -->
      <g transform="translate(139.951553 303.028562)scale(0.1 -0.1)">
       <defs>
        <path d="M 1228 531 
L 3431 531 
L 3431 0 
L 469 0 
L 469 531 
Q 828 903 1448 1529 
Q 2069 2156 2228 2338 
Q 2531 2678 2651 2914 
Q 2772 3150 2772 3378 
Q 2772 3750 2511 3984 
Q 2250 4219 1831 4219 
Q 1534 4219 1204 4116 
Q 875 4013 500 3803 
L 500 4441 
Q 881 4594 1212 4672 
Q 1544 4750 1819 4750 
Q 2544 4750 2975 4387 
Q 3406 4025 3406 3419 
Q 3406 3131 3298 2873 
Q 3191 2616 2906 2266 
Q 2828 2175 2409 1742 
Q 1991 1309 1228 531 
z
" id="DejaVuSans-32" transform="scale(0.015625)"/>
       </defs>
       <use xlink:href="#DejaVuSans-32"/>
       <use x="63.623047" xlink:href="#DejaVuSans-32"/>
       <use x="127.246094" xlink:href="#DejaVuSans-6d"/>
      </g>
     </g>
    </g>
    <g id="xtick_3">
     <g id="line2d_3">
      <g>
       <use style="stroke:#000000;stroke-width:0.8;" x="210.212652" xlink:href="#m612ba5fa41" y="288.430125"/>
      </g>
     </g>
     <g id="text_3">
      <!-- 33m -->
      <g transform="translate(198.97984 303.028562)scale(0.1 -0.1)">
       <defs>
        <path d="M 2597 2516 
Q 3050 2419 3304 2112 
Q 3559 1806 3559 1356 
Q 3559 666 3084 287 
Q 2609 -91 1734 -91 
Q 1441 -91 1130 -33 
Q 819 25 488 141 
L 488 750 
Q 750 597 1062 519 
Q 1375 441 1716 441 
Q 2309 441 2620 675 
Q 2931 909 2931 1356 
Q 2931 1769 2642 2001 
Q 2353 2234 1838 2234 
L 1294 2234 
L 1294 2753 
L 1863 2753 
Q 2328 2753 2575 2939 
Q 2822 3125 2822 3475 
Q 2822 3834 2567 4026 
Q 2313 4219 1838 4219 
Q 1578 4219 1281 4162 
Q 984 4106 628 3988 
L 628 4550 
Q 988 4650 1302 4700 
Q 1616 4750 1894 4750 
Q 2613 4750 3031 4423 
Q 3450 4097 3450 3541 
Q 3450 3153 3228 2886 
Q 3006 2619 2597 2516 
z
" id="DejaVuSans-33" transform="scale(0.015625)"/>
       </defs>
       <use xlink:href="#DejaVuSans-33"/>
       <use x="63.623047" xlink:href="#DejaVuSans-33"/>
       <use x="127.246094" xlink:href="#DejaVuSans-6d"/>
      </g>
     </g>
    </g>
    <g id="xtick_4">
     <g id="line2d_4">
      <g>
       <use style="stroke:#000000;stroke-width:0.8;" x="269.240938" xlink:href="#m612ba5fa41" y="288.430125"/>
      </g>
     </g>
     <g id="text_4">
      <!-- 49m -->
      <g transform="translate(258.008126 303.028562)scale(0.1 -0.1)">
       <defs>
        <path d="M 703 97 
L 703 672 
Q 941 559 1184 500 
Q 1428 441 1663 441 
Q 2288 441 2617 861 
Q 2947 1281 2994 2138 
Q 2813 1869 2534 1725 
Q 2256 1581 1919 1581 
Q 1219 1581 811 2004 
Q 403 2428 403 3163 
Q 403 3881 828 4315 
Q 1253 4750 1959 4750 
Q 2769 4750 3195 4129 
Q 3622 3509 3622 2328 
Q 3622 1225 3098 567 
Q 2575 -91 1691 -91 
Q 1453 -91 1209 -44 
Q 966 3 703 97 
z
M 1959 2075 
Q 2384 2075 2632 2365 
Q 2881 2656 2881 3163 
Q 2881 3666 2632 3958 
Q 2384 4250 1959 4250 
Q 1534 4250 1286 3958 
Q 1038 3666 1038 3163 
Q 1038 2656 1286 2365 
Q 1534 2075 1959 2075 
z
" id="DejaVuSans-39" transform="scale(0.015625)"/>
       </defs>
       <use xlink:href="#DejaVuSans-34"/>
       <use x="63.623047" xlink:href="#DejaVuSans-39"/>
       <use x="127.246094" xlink:href="#DejaVuSans-6d"/>
      </g>
     </g>
    </g>
    <g id="xtick_5">
     <g id="line2d_5">
      <g>
       <use style="stroke:#000000;stroke-width:0.8;" x="328.269225" xlink:href="#m612ba5fa41" y="288.430125"/>
      </g>
     </g>
     <g id="text_5">
      <!-- 1h:13m -->
      <g transform="translate(309.002037 303.028562)scale(0.1 -0.1)">
       <defs>
        <path d="M 3513 2113 
L 3513 0 
L 2938 0 
L 2938 2094 
Q 2938 2591 2744 2837 
Q 2550 3084 2163 3084 
Q 1697 3084 1428 2787 
Q 1159 2491 1159 1978 
L 1159 0 
L 581 0 
L 581 4863 
L 1159 4863 
L 1159 2956 
Q 1366 3272 1645 3428 
Q 1925 3584 2291 3584 
Q 2894 3584 3203 3211 
Q 3513 2838 3513 2113 
z
" id="DejaVuSans-68" transform="scale(0.015625)"/>
        <path d="M 750 794 
L 1409 794 
L 1409 0 
L 750 0 
L 750 794 
z
M 750 3309 
L 1409 3309 
L 1409 2516 
L 750 2516 
L 750 3309 
z
" id="DejaVuSans-3a" transform="scale(0.015625)"/>
       </defs>
       <use xlink:href="#DejaVuSans-31"/>
       <use x="63.623047" xlink:href="#DejaVuSans-68"/>
       <use x="127.001953" xlink:href="#DejaVuSans-3a"/>
       <use x="160.693359" xlink:href="#DejaVuSans-31"/>
       <use x="224.316406" xlink:href="#DejaVuSans-33"/>
       <use x="287.939453" xlink:href="#DejaVuSans-6d"/>
      </g>
     </g>
    </g>
    <g id="xtick_6">
     <g id="line2d_6">
      <g>
       <use style="stroke:#000000;stroke-width:0.8;" x="387.297511" xlink:href="#m612ba5fa41" y="288.430125"/>
      </g>
     </g>
     <g id="text_6">
      <!-- 1h:49m -->
      <g transform="translate(368.030323 303.028562)scale(0.1 -0.1)">
       <use xlink:href="#DejaVuSans-31"/>
       <use x="63.623047" xlink:href="#DejaVuSans-68"/>
       <use x="127.001953" xlink:href="#DejaVuSans-3a"/>
       <use x="160.693359" xlink:href="#DejaVuSans-34"/>
       <use x="224.316406" xlink:href="#DejaVuSans-39"/>
       <use x="287.939453" xlink:href="#DejaVuSans-6d"/>
      </g>
     </g>
    </g>
    <g id="xtick_7">
     <g id="line2d_7">
      <g>
       <use style="stroke:#000000;stroke-width:0.8;" x="446.325797" xlink:href="#m612ba5fa41" y="288.430125"/>
      </g>
     </g>
     <g id="text_7">
      <!-- 2h:43m -->
      <g transform="translate(427.05861 303.028562)scale(0.1 -0.1)">
       <use xlink:href="#DejaVuSans-32"/>
       <use x="63.623047" xlink:href="#DejaVuSans-68"/>
       <use x="127.001953" xlink:href="#DejaVuSans-3a"/>
       <use x="160.693359" xlink:href="#DejaVuSans-34"/>
       <use x="224.316406" xlink:href="#DejaVuSans-33"/>
       <use x="287.939453" xlink:href="#DejaVuSans-6d"/>
      </g>
     </g>
    </g>
    <g id="xtick_8">
     <g id="line2d_8">
      <g>
       <use style="stroke:#000000;stroke-width:0.8;" x="505.354083" xlink:href="#m612ba5fa41" y="288.430125"/>
      </g>
     </g>
     <g id="text_8">
      <!-- 4h:3m -->
      <g transform="translate(489.268146 303.028562)scale(0.1 -0.1)">
       <use xlink:href="#DejaVuSans-34"/>
       <use x="63.623047" xlink:href="#DejaVuSans-68"/>
       <use x="127.001953" xlink:href="#DejaVuSans-3a"/>
       <use x="160.693359" xlink:href="#DejaVuSans-33"/>
       <use x="224.316406" xlink:href="#DejaVuSans-6d"/>
      </g>
     </g>
    </g>
    <g id="xtick_9">
     <g id="line2d_9">
      <g>
       <use style="stroke:#000000;stroke-width:0.8;" x="564.38237" xlink:href="#m612ba5fa41" y="288.430125"/>
      </g>
     </g>
     <g id="text_9">
      <!-- 6h:3m -->
      <g transform="translate(548.296432 303.028562)scale(0.1 -0.1)">
       <defs>
        <path d="M 2113 2584 
Q 1688 2584 1439 2293 
Q 1191 2003 1191 1497 
Q 1191 994 1439 701 
Q 1688 409 2113 409 
Q 2538 409 2786 701 
Q 3034 994 3034 1497 
Q 3034 2003 2786 2293 
Q 2538 2584 2113 2584 
z
M 3366 4563 
L 3366 3988 
Q 3128 4100 2886 4159 
Q 2644 4219 2406 4219 
Q 1781 4219 1451 3797 
Q 1122 3375 1075 2522 
Q 1259 2794 1537 2939 
Q 1816 3084 2150 3084 
Q 2853 3084 3261 2657 
Q 3669 2231 3669 1497 
Q 3669 778 3244 343 
Q 2819 -91 2113 -91 
Q 1303 -91 875 529 
Q 447 1150 447 2328 
Q 447 3434 972 4092 
Q 1497 4750 2381 4750 
Q 2619 4750 2861 4703 
Q 3103 4656 3366 4563 
z
" id="DejaVuSans-36" transform="scale(0.015625)"/>
       </defs>
       <use xlink:href="#DejaVuSans-36"/>
       <use x="63.623047" xlink:href="#DejaVuSans-68"/>
       <use x="127.001953" xlink:href="#DejaVuSans-3a"/>
       <use x="160.693359" xlink:href="#DejaVuSans-33"/>
       <use x="224.316406" xlink:href="#DejaVuSans-6d"/>
      </g>
     </g>
    </g>
    <g id="xtick_10">
     <g id="line2d_10">
      <g>
       <use style="stroke:#000000;stroke-width:0.8;" x="623.410656" xlink:href="#m612ba5fa41" y="288.430125"/>
      </g>
     </g>
     <g id="text_10">
      <!-- 9h -->
      <g transform="translate(617.060656 303.028562)scale(0.1 -0.1)">
       <use xlink:href="#DejaVuSans-39"/>
       <use x="63.623047" xlink:href="#DejaVuSans-68"/>
      </g>
     </g>
    </g>
    <g id="xtick_11">
     <g id="line2d_11">
      <g>
       <use style="stroke:#000000;stroke-width:0.8;" x="682.438942" xlink:href="#m612ba5fa41" y="288.430125"/>
      </g>
     </g>
     <g id="text_11">
      <!-- 13h:25m -->
      <g transform="translate(659.990505 303.028562)scale(0.1 -0.1)">
       <defs>
        <path d="M 691 4666 
L 3169 4666 
L 3169 4134 
L 1269 4134 
L 1269 2991 
Q 1406 3038 1543 3061 
Q 1681 3084 1819 3084 
Q 2600 3084 3056 2656 
Q 3513 2228 3513 1497 
Q 3513 744 3044 326 
Q 2575 -91 1722 -91 
Q 1428 -91 1123 -41 
Q 819 9 494 109 
L 494 744 
Q 775 591 1075 516 
Q 1375 441 1709 441 
Q 2250 441 2565 725 
Q 2881 1009 2881 1497 
Q 2881 1984 2565 2268 
Q 2250 2553 1709 2553 
Q 1456 2553 1204 2497 
Q 953 2441 691 2322 
L 691 4666 
z
" id="DejaVuSans-35" transform="scale(0.015625)"/>
       </defs>
       <use xlink:href="#DejaVuSans-31"/>
       <use x="63.623047" xlink:href="#DejaVuSans-33"/>
       <use x="127.246094" xlink:href="#DejaVuSans-68"/>
       <use x="190.625" xlink:href="#DejaVuSans-3a"/>
       <use x="224.316406" xlink:href="#DejaVuSans-32"/>
       <use x="287.939453" xlink:href="#DejaVuSans-35"/>
       <use x="351.5625" xlink:href="#DejaVuSans-6d"/>
      </g>
     </g>
    </g>
    <g id="xtick_12">
     <g id="line2d_12">
      <g>
       <use style="stroke:#000000;stroke-width:0.8;" x="741.467228" xlink:href="#m612ba5fa41" y="288.430125"/>
      </g>
     </g>
     <g id="text_12">
      <!-- 20h -->
      <g transform="translate(731.935978 303.028562)scale(0.1 -0.1)">
       <defs>
        <path d="M 2034 4250 
Q 1547 4250 1301 3770 
Q 1056 3291 1056 2328 
Q 1056 1369 1301 889 
Q 1547 409 2034 409 
Q 2525 409 2770 889 
Q 3016 1369 3016 2328 
Q 3016 3291 2770 3770 
Q 2525 4250 2034 4250 
z
M 2034 4750 
Q 2819 4750 3233 4129 
Q 3647 3509 3647 2328 
Q 3647 1150 3233 529 
Q 2819 -91 2034 -91 
Q 1250 -91 836 529 
Q 422 1150 422 2328 
Q 422 3509 836 4129 
Q 1250 4750 2034 4750 
z
" id="DejaVuSans-30" transform="scale(0.015625)"/>
       </defs>
       <use xlink:href="#DejaVuSans-32"/>
       <use x="63.623047" xlink:href="#DejaVuSans-30"/>
       <use x="127.246094" xlink:href="#DejaVuSans-68"/>
      </g>
     </g>
    </g>
    <g id="xtick_13">
     <g id="line2d_13">
      <defs>
       <path d="M 0 0 
L 0 2 
" id="mda3a55aad0" style="stroke:#000000;stroke-width:0.6;"/>
      </defs>
      <g>
       <use style="stroke:#000000;stroke-width:0.6;" x="74.703517" xlink:href="#mda3a55aad0" y="288.430125"/>
      </g>
     </g>
    </g>
    <g id="xtick_14">
     <g id="line2d_14">
      <g>
       <use style="stroke:#000000;stroke-width:0.6;" x="210.475376" xlink:href="#mda3a55aad0" y="288.430125"/>
      </g>
     </g>
    </g>
    <g id="xtick_15">
     <g id="line2d_15">
      <g>
       <use style="stroke:#000000;stroke-width:0.6;" x="270.55538" xlink:href="#mda3a55aad0" y="288.430125"/>
      </g>
     </g>
    </g>
    <g id="xtick_16">
     <g id="line2d_16">
      <g>
       <use style="stroke:#000000;stroke-width:0.6;" x="313.182822" xlink:href="#mda3a55aad0" y="288.430125"/>
      </g>
     </g>
    </g>
    <g id="xtick_17">
     <g id="line2d_17">
      <g>
       <use style="stroke:#000000;stroke-width:0.6;" x="346.247234" xlink:href="#mda3a55aad0" y="288.430125"/>
      </g>
     </g>
    </g>
    <g id="xtick_18">
     <g id="line2d_18">
      <g>
       <use style="stroke:#000000;stroke-width:0.6;" x="373.262827" xlink:href="#mda3a55aad0" y="288.430125"/>
      </g>
     </g>
    </g>
    <g id="xtick_19">
     <g id="line2d_19">
      <g>
       <use style="stroke:#000000;stroke-width:0.6;" x="396.104184" xlink:href="#mda3a55aad0" y="288.430125"/>
      </g>
     </g>
    </g>
    <g id="xtick_20">
     <g id="line2d_20">
      <g>
       <use style="stroke:#000000;stroke-width:0.6;" x="415.890268" xlink:href="#mda3a55aad0" y="288.430125"/>
      </g>
     </g>
    </g>
    <g id="xtick_21">
     <g id="line2d_21">
      <g>
       <use style="stroke:#000000;stroke-width:0.6;" x="433.342831" xlink:href="#mda3a55aad0" y="288.430125"/>
      </g>
     </g>
    </g>
    <g id="xtick_22">
     <g id="line2d_22">
      <g>
       <use style="stroke:#000000;stroke-width:0.6;" x="551.662127" xlink:href="#mda3a55aad0" y="288.430125"/>
      </g>
     </g>
    </g>
    <g id="xtick_23">
     <g id="line2d_23">
      <g>
       <use style="stroke:#000000;stroke-width:0.6;" x="611.742132" xlink:href="#mda3a55aad0" y="288.430125"/>
      </g>
     </g>
    </g>
    <g id="xtick_24">
     <g id="line2d_24">
      <g>
       <use style="stroke:#000000;stroke-width:0.6;" x="654.369574" xlink:href="#mda3a55aad0" y="288.430125"/>
      </g>
     </g>
    </g>
    <g id="xtick_25">
     <g id="line2d_25">
      <g>
       <use style="stroke:#000000;stroke-width:0.6;" x="687.433986" xlink:href="#mda3a55aad0" y="288.430125"/>
      </g>
     </g>
    </g>
    <g id="xtick_26">
     <g id="line2d_26">
      <g>
       <use style="stroke:#000000;stroke-width:0.6;" x="714.449578" xlink:href="#mda3a55aad0" y="288.430125"/>
      </g>
     </g>
    </g>
    <g id="xtick_27">
     <g id="line2d_27">
      <g>
       <use style="stroke:#000000;stroke-width:0.6;" x="737.290936" xlink:href="#mda3a55aad0" y="288.430125"/>
      </g>
     </g>
    </g>
    <g id="xtick_28">
     <g id="line2d_28">
      <g>
       <use style="stroke:#000000;stroke-width:0.6;" x="757.07702" xlink:href="#mda3a55aad0" y="288.430125"/>
      </g>
     </g>
    </g>
    <g id="text_13">
     <!-- Time (hour:minute) -->
     <g transform="translate(368.403594 316.706687)scale(0.1 -0.1)">
      <defs>
       <path d="M -19 4666 
L 3928 4666 
L 3928 4134 
L 2272 4134 
L 2272 0 
L 1638 0 
L 1638 4134 
L -19 4134 
L -19 4666 
z
" id="DejaVuSans-54" transform="scale(0.015625)"/>
       <path d="M 603 3500 
L 1178 3500 
L 1178 0 
L 603 0 
L 603 3500 
z
M 603 4863 
L 1178 4863 
L 1178 4134 
L 603 4134 
L 603 4863 
z
" id="DejaVuSans-69" transform="scale(0.015625)"/>
       <path d="M 3597 1894 
L 3597 1613 
L 953 1613 
Q 991 1019 1311 708 
Q 1631 397 2203 397 
Q 2534 397 2845 478 
Q 3156 559 3463 722 
L 3463 178 
Q 3153 47 2828 -22 
Q 2503 -91 2169 -91 
Q 1331 -91 842 396 
Q 353 884 353 1716 
Q 353 2575 817 3079 
Q 1281 3584 2069 3584 
Q 2775 3584 3186 3129 
Q 3597 2675 3597 1894 
z
M 3022 2063 
Q 3016 2534 2758 2815 
Q 2500 3097 2075 3097 
Q 1594 3097 1305 2825 
Q 1016 2553 972 2059 
L 3022 2063 
z
" id="DejaVuSans-65" transform="scale(0.015625)"/>
       <path id="DejaVuSans-20" transform="scale(0.015625)"/>
       <path d="M 1984 4856 
Q 1566 4138 1362 3434 
Q 1159 2731 1159 2009 
Q 1159 1288 1364 580 
Q 1569 -128 1984 -844 
L 1484 -844 
Q 1016 -109 783 600 
Q 550 1309 550 2009 
Q 550 2706 781 3412 
Q 1013 4119 1484 4856 
L 1984 4856 
z
" id="DejaVuSans-28" transform="scale(0.015625)"/>
       <path d="M 1959 3097 
Q 1497 3097 1228 2736 
Q 959 2375 959 1747 
Q 959 1119 1226 758 
Q 1494 397 1959 397 
Q 2419 397 2687 759 
Q 2956 1122 2956 1747 
Q 2956 2369 2687 2733 
Q 2419 3097 1959 3097 
z
M 1959 3584 
Q 2709 3584 3137 3096 
Q 3566 2609 3566 1747 
Q 3566 888 3137 398 
Q 2709 -91 1959 -91 
Q 1206 -91 779 398 
Q 353 888 353 1747 
Q 353 2609 779 3096 
Q 1206 3584 1959 3584 
z
" id="DejaVuSans-6f" transform="scale(0.015625)"/>
       <path d="M 544 1381 
L 544 3500 
L 1119 3500 
L 1119 1403 
Q 1119 906 1312 657 
Q 1506 409 1894 409 
Q 2359 409 2629 706 
Q 2900 1003 2900 1516 
L 2900 3500 
L 3475 3500 
L 3475 0 
L 2900 0 
L 2900 538 
Q 2691 219 2414 64 
Q 2138 -91 1772 -91 
Q 1169 -91 856 284 
Q 544 659 544 1381 
z
M 1991 3584 
L 1991 3584 
z
" id="DejaVuSans-75" transform="scale(0.015625)"/>
       <path d="M 2631 2963 
Q 2534 3019 2420 3045 
Q 2306 3072 2169 3072 
Q 1681 3072 1420 2755 
Q 1159 2438 1159 1844 
L 1159 0 
L 581 0 
L 581 3500 
L 1159 3500 
L 1159 2956 
Q 1341 3275 1631 3429 
Q 1922 3584 2338 3584 
Q 2397 3584 2469 3576 
Q 2541 3569 2628 3553 
L 2631 2963 
z
" id="DejaVuSans-72" transform="scale(0.015625)"/>
       <path d="M 3513 2113 
L 3513 0 
L 2938 0 
L 2938 2094 
Q 2938 2591 2744 2837 
Q 2550 3084 2163 3084 
Q 1697 3084 1428 2787 
Q 1159 2491 1159 1978 
L 1159 0 
L 581 0 
L 581 3500 
L 1159 3500 
L 1159 2956 
Q 1366 3272 1645 3428 
Q 1925 3584 2291 3584 
Q 2894 3584 3203 3211 
Q 3513 2838 3513 2113 
z
" id="DejaVuSans-6e" transform="scale(0.015625)"/>
       <path d="M 1172 4494 
L 1172 3500 
L 2356 3500 
L 2356 3053 
L 1172 3053 
L 1172 1153 
Q 1172 725 1289 603 
Q 1406 481 1766 481 
L 2356 481 
L 2356 0 
L 1766 0 
Q 1100 0 847 248 
Q 594 497 594 1153 
L 594 3053 
L 172 3053 
L 172 3500 
L 594 3500 
L 594 4494 
L 1172 4494 
z
" id="DejaVuSans-74" transform="scale(0.015625)"/>
       <path d="M 513 4856 
L 1013 4856 
Q 1481 4119 1714 3412 
Q 1947 2706 1947 2009 
Q 1947 1309 1714 600 
Q 1481 -109 1013 -844 
L 513 -844 
Q 928 -128 1133 580 
Q 1338 1288 1338 2009 
Q 1338 2731 1133 3434 
Q 928 4138 513 4856 
z
" id="DejaVuSans-29" transform="scale(0.015625)"/>
      </defs>
      <use xlink:href="#DejaVuSans-54"/>
      <use x="57.958984" xlink:href="#DejaVuSans-69"/>
      <use x="85.742188" xlink:href="#DejaVuSans-6d"/>
      <use x="183.154297" xlink:href="#DejaVuSans-65"/>
      <use x="244.677734" xlink:href="#DejaVuSans-20"/>
      <use x="276.464844" xlink:href="#DejaVuSans-28"/>
      <use x="315.478516" xlink:href="#DejaVuSans-68"/>
      <use x="378.857422" xlink:href="#DejaVuSans-6f"/>
      <use x="440.039062" xlink:href="#DejaVuSans-75"/>
      <use x="503.417969" xlink:href="#DejaVuSans-72"/>
      <use x="542.78125" xlink:href="#DejaVuSans-3a"/>
      <use x="576.472656" xlink:href="#DejaVuSans-6d"/>
      <use x="673.884766" xlink:href="#DejaVuSans-69"/>
      <use x="701.667969" xlink:href="#DejaVuSans-6e"/>
      <use x="765.046875" xlink:href="#DejaVuSans-75"/>
      <use x="828.425781" xlink:href="#DejaVuSans-74"/>
      <use x="867.634766" xlink:href="#DejaVuSans-65"/>
      <use x="929.158203" xlink:href="#DejaVuSans-29"/>
     </g>
    </g>
   </g>
   <g id="matplotlib.axis_2">
    <g id="ytick_1">
     <g id="line2d_29">
      <defs>
       <path d="M 0 0 
L -3.5 0 
" id="m5ed9bcf81d" style="stroke:#000000;stroke-width:0.8;"/>
      </defs>
      <g>
       <use style="stroke:#000000;stroke-width:0.8;" x="59.690625" xlink:href="#m5ed9bcf81d" y="284.823765"/>
      </g>
     </g>
     <g id="text_14">
      <!-- 2500 -->
      <g transform="translate(27.240625 288.622984)scale(0.1 -0.1)">
       <use xlink:href="#DejaVuSans-32"/>
       <use x="63.623047" xlink:href="#DejaVuSans-35"/>
       <use x="127.246094" xlink:href="#DejaVuSans-30"/>
       <use x="190.869141" xlink:href="#DejaVuSans-30"/>
      </g>
     </g>
    </g>
    <g id="ytick_2">
     <g id="line2d_30">
      <g>
       <use style="stroke:#000000;stroke-width:0.8;" x="59.690625" xlink:href="#m5ed9bcf81d" y="250.087104"/>
      </g>
     </g>
     <g id="text_15">
      <!-- 5000 -->
      <g transform="translate(27.240625 253.886323)scale(0.1 -0.1)">
       <use xlink:href="#DejaVuSans-35"/>
       <use x="63.623047" xlink:href="#DejaVuSans-30"/>
       <use x="127.246094" xlink:href="#DejaVuSans-30"/>
       <use x="190.869141" xlink:href="#DejaVuSans-30"/>
      </g>
     </g>
    </g>
    <g id="ytick_3">
     <g id="line2d_31">
      <g>
       <use style="stroke:#000000;stroke-width:0.8;" x="59.690625" xlink:href="#m5ed9bcf81d" y="215.350443"/>
      </g>
     </g>
     <g id="text_16">
      <!-- 7500 -->
      <g transform="translate(27.240625 219.149662)scale(0.1 -0.1)">
       <defs>
        <path d="M 525 4666 
L 3525 4666 
L 3525 4397 
L 1831 0 
L 1172 0 
L 2766 4134 
L 525 4134 
L 525 4666 
z
" id="DejaVuSans-37" transform="scale(0.015625)"/>
       </defs>
       <use xlink:href="#DejaVuSans-37"/>
       <use x="63.623047" xlink:href="#DejaVuSans-35"/>
       <use x="127.246094" xlink:href="#DejaVuSans-30"/>
       <use x="190.869141" xlink:href="#DejaVuSans-30"/>
      </g>
     </g>
    </g>
    <g id="ytick_4">
     <g id="line2d_32">
      <g>
       <use style="stroke:#000000;stroke-width:0.8;" x="59.690625" xlink:href="#m5ed9bcf81d" y="180.613783"/>
      </g>
     </g>
     <g id="text_17">
      <!-- 10000 -->
      <g transform="translate(20.878125 184.413001)scale(0.1 -0.1)">
       <use xlink:href="#DejaVuSans-31"/>
       <use x="63.623047" xlink:href="#DejaVuSans-30"/>
       <use x="127.246094" xlink:href="#DejaVuSans-30"/>
       <use x="190.869141" xlink:href="#DejaVuSans-30"/>
       <use x="254.492188" xlink:href="#DejaVuSans-30"/>
      </g>
     </g>
    </g>
    <g id="ytick_5">
     <g id="line2d_33">
      <g>
       <use style="stroke:#000000;stroke-width:0.8;" x="59.690625" xlink:href="#m5ed9bcf81d" y="145.877122"/>
      </g>
     </g>
     <g id="text_18">
      <!-- 12500 -->
      <g transform="translate(20.878125 149.676341)scale(0.1 -0.1)">
       <use xlink:href="#DejaVuSans-31"/>
       <use x="63.623047" xlink:href="#DejaVuSans-32"/>
       <use x="127.246094" xlink:href="#DejaVuSans-35"/>
       <use x="190.869141" xlink:href="#DejaVuSans-30"/>
       <use x="254.492188" xlink:href="#DejaVuSans-30"/>
      </g>
     </g>
    </g>
    <g id="ytick_6">
     <g id="line2d_34">
      <g>
       <use style="stroke:#000000;stroke-width:0.8;" x="59.690625" xlink:href="#m5ed9bcf81d" y="111.140461"/>
      </g>
     </g>
     <g id="text_19">
      <!-- 15000 -->
      <g transform="translate(20.878125 114.93968)scale(0.1 -0.1)">
       <use xlink:href="#DejaVuSans-31"/>
       <use x="63.623047" xlink:href="#DejaVuSans-35"/>
       <use x="127.246094" xlink:href="#DejaVuSans-30"/>
       <use x="190.869141" xlink:href="#DejaVuSans-30"/>
       <use x="254.492188" xlink:href="#DejaVuSans-30"/>
      </g>
     </g>
    </g>
    <g id="ytick_7">
     <g id="line2d_35">
      <g>
       <use style="stroke:#000000;stroke-width:0.8;" x="59.690625" xlink:href="#m5ed9bcf81d" y="76.4038"/>
      </g>
     </g>
     <g id="text_20">
      <!-- 17500 -->
      <g transform="translate(20.878125 80.203019)scale(0.1 -0.1)">
       <use xlink:href="#DejaVuSans-31"/>
       <use x="63.623047" xlink:href="#DejaVuSans-37"/>
       <use x="127.246094" xlink:href="#DejaVuSans-35"/>
       <use x="190.869141" xlink:href="#DejaVuSans-30"/>
       <use x="254.492188" xlink:href="#DejaVuSans-30"/>
      </g>
     </g>
    </g>
    <g id="ytick_8">
     <g id="line2d_36">
      <g>
       <use style="stroke:#000000;stroke-width:0.8;" x="59.690625" xlink:href="#m5ed9bcf81d" y="41.66714"/>
      </g>
     </g>
     <g id="text_21">
      <!-- 20000 -->
      <g transform="translate(20.878125 45.466359)scale(0.1 -0.1)">
       <use xlink:href="#DejaVuSans-32"/>
       <use x="63.623047" xlink:href="#DejaVuSans-30"/>
       <use x="127.246094" xlink:href="#DejaVuSans-30"/>
       <use x="190.869141" xlink:href="#DejaVuSans-30"/>
       <use x="254.492188" xlink:href="#DejaVuSans-30"/>
      </g>
     </g>
    </g>
    <g id="text_22">
     <!-- Code region coverage -->
     <g transform="translate(14.798438 210.379594)rotate(-90)scale(0.1 -0.1)">
      <defs>
       <path d="M 4122 4306 
L 4122 3641 
Q 3803 3938 3442 4084 
Q 3081 4231 2675 4231 
Q 1875 4231 1450 3742 
Q 1025 3253 1025 2328 
Q 1025 1406 1450 917 
Q 1875 428 2675 428 
Q 3081 428 3442 575 
Q 3803 722 4122 1019 
L 4122 359 
Q 3791 134 3420 21 
Q 3050 -91 2638 -91 
Q 1578 -91 968 557 
Q 359 1206 359 2328 
Q 359 3453 968 4101 
Q 1578 4750 2638 4750 
Q 3056 4750 3426 4639 
Q 3797 4528 4122 4306 
z
" id="DejaVuSans-43" transform="scale(0.015625)"/>
       <path d="M 2906 2969 
L 2906 4863 
L 3481 4863 
L 3481 0 
L 2906 0 
L 2906 525 
Q 2725 213 2448 61 
Q 2172 -91 1784 -91 
Q 1150 -91 751 415 
Q 353 922 353 1747 
Q 353 2572 751 3078 
Q 1150 3584 1784 3584 
Q 2172 3584 2448 3432 
Q 2725 3281 2906 2969 
z
M 947 1747 
Q 947 1113 1208 752 
Q 1469 391 1925 391 
Q 2381 391 2643 752 
Q 2906 1113 2906 1747 
Q 2906 2381 2643 2742 
Q 2381 3103 1925 3103 
Q 1469 3103 1208 2742 
Q 947 2381 947 1747 
z
" id="DejaVuSans-64" transform="scale(0.015625)"/>
       <path d="M 2906 1791 
Q 2906 2416 2648 2759 
Q 2391 3103 1925 3103 
Q 1463 3103 1205 2759 
Q 947 2416 947 1791 
Q 947 1169 1205 825 
Q 1463 481 1925 481 
Q 2391 481 2648 825 
Q 2906 1169 2906 1791 
z
M 3481 434 
Q 3481 -459 3084 -895 
Q 2688 -1331 1869 -1331 
Q 1566 -1331 1297 -1286 
Q 1028 -1241 775 -1147 
L 775 -588 
Q 1028 -725 1275 -790 
Q 1522 -856 1778 -856 
Q 2344 -856 2625 -561 
Q 2906 -266 2906 331 
L 2906 616 
Q 2728 306 2450 153 
Q 2172 0 1784 0 
Q 1141 0 747 490 
Q 353 981 353 1791 
Q 353 2603 747 3093 
Q 1141 3584 1784 3584 
Q 2172 3584 2450 3431 
Q 2728 3278 2906 2969 
L 2906 3500 
L 3481 3500 
L 3481 434 
z
" id="DejaVuSans-67" transform="scale(0.015625)"/>
       <path d="M 3122 3366 
L 3122 2828 
Q 2878 2963 2633 3030 
Q 2388 3097 2138 3097 
Q 1578 3097 1268 2742 
Q 959 2388 959 1747 
Q 959 1106 1268 751 
Q 1578 397 2138 397 
Q 2388 397 2633 464 
Q 2878 531 3122 666 
L 3122 134 
Q 2881 22 2623 -34 
Q 2366 -91 2075 -91 
Q 1284 -91 818 406 
Q 353 903 353 1747 
Q 353 2603 823 3093 
Q 1294 3584 2113 3584 
Q 2378 3584 2631 3529 
Q 2884 3475 3122 3366 
z
" id="DejaVuSans-63" transform="scale(0.015625)"/>
       <path d="M 191 3500 
L 800 3500 
L 1894 563 
L 2988 3500 
L 3597 3500 
L 2284 0 
L 1503 0 
L 191 3500 
z
" id="DejaVuSans-76" transform="scale(0.015625)"/>
       <path d="M 2194 1759 
Q 1497 1759 1228 1600 
Q 959 1441 959 1056 
Q 959 750 1161 570 
Q 1363 391 1709 391 
Q 2188 391 2477 730 
Q 2766 1069 2766 1631 
L 2766 1759 
L 2194 1759 
z
M 3341 1997 
L 3341 0 
L 2766 0 
L 2766 531 
Q 2569 213 2275 61 
Q 1981 -91 1556 -91 
Q 1019 -91 701 211 
Q 384 513 384 1019 
Q 384 1609 779 1909 
Q 1175 2209 1959 2209 
L 2766 2209 
L 2766 2266 
Q 2766 2663 2505 2880 
Q 2244 3097 1772 3097 
Q 1472 3097 1187 3025 
Q 903 2953 641 2809 
L 641 3341 
Q 956 3463 1253 3523 
Q 1550 3584 1831 3584 
Q 2591 3584 2966 3190 
Q 3341 2797 3341 1997 
z
" id="DejaVuSans-61" transform="scale(0.015625)"/>
      </defs>
      <use xlink:href="#DejaVuSans-43"/>
      <use x="69.824219" xlink:href="#DejaVuSans-6f"/>
      <use x="131.005859" xlink:href="#DejaVuSans-64"/>
      <use x="194.482422" xlink:href="#DejaVuSans-65"/>
      <use x="256.005859" xlink:href="#DejaVuSans-20"/>
      <use x="287.792969" xlink:href="#DejaVuSans-72"/>
      <use x="326.65625" xlink:href="#DejaVuSans-65"/>
      <use x="388.179688" xlink:href="#DejaVuSans-67"/>
      <use x="451.65625" xlink:href="#DejaVuSans-69"/>
      <use x="479.439453" xlink:href="#DejaVuSans-6f"/>
      <use x="540.621094" xlink:href="#DejaVuSans-6e"/>
      <use x="604" xlink:href="#DejaVuSans-20"/>
      <use x="635.787109" xlink:href="#DejaVuSans-63"/>
      <use x="690.767578" xlink:href="#DejaVuSans-6f"/>
      <use x="751.949219" xlink:href="#DejaVuSans-76"/>
      <use x="811.128906" xlink:href="#DejaVuSans-65"/>
      <use x="872.652344" xlink:href="#DejaVuSans-72"/>
      <use x="913.765625" xlink:href="#DejaVuSans-61"/>
      <use x="975.044922" xlink:href="#DejaVuSans-67"/>
      <use x="1038.521484" xlink:href="#DejaVuSans-65"/>
     </g>
    </g>
   </g>
   <g id="line2d_37">
    <path clip-path="url(#p6721ccfe57)" d="M 92.15608 112.258982 
L 194.863526 90.381833 
L 254.943531 80.995987 
L 297.570972 79.731573 
L 330.635385 76.799798 
L 357.650977 74.819809 
L 380.492335 73.986129 
L 400.278419 72.054771 
L 417.730982 70.192886 
L 433.342831 69.859414 
L 447.465467 69.623204 
L 460.358423 66.024486 
L 472.218794 65.037965 
L 483.199781 64.169549 
L 493.422836 63.912497 
L 502.985865 63.558183 
L 511.96895 58.09758 
L 520.438428 51.872771 
L 528.449867 51.580983 
L 536.050278 51.018249 
L 543.279786 50.65004 
L 550.172913 50.483304 
L 556.759577 50.149832 
L 563.06587 49.892781 
L 569.11469 49.760782 
L 574.92624 49.50373 
L 580.518433 49.156364 
L 585.907227 48.718682 
L 591.106902 48.378263 
L 596.130282 47.621003 
L 600.988932 45.342278 
L 605.693312 45.071333 
L 610.252918 44.459967 
L 614.676397 44.286284 
L 618.97164 43.869444 
L 623.145874 43.695761 
L 627.205732 43.591551 
L 631.157313 43.077448 
L 635.006245 42.236821 
L 638.757724 41.236405 
L 642.416565 40.923775 
L 645.987232 40.923775 
L 649.473876 40.645882 
L 652.88036 40.618093 
L 656.210287 40.361041 
L 659.467023 40.277673 
L 662.653716 39.659361 
L 665.773316 39.360625 
L 668.82859 39.346731 
L 671.822137 38.929891 
L 674.756401 38.478314 
L 677.633686 38.478314 
L 680.456163 38.353262 
L 683.225879 38.346315 
L 685.944772 38.262947 
L 688.614674 38.249052 
L 691.237318 38.005896 
L 693.814349 38.005896 
L 696.347325 37.978106 
L 698.837729 37.936422 
L 701.286967 37.741897 
L 703.696378 37.728002 
L 706.067237 37.665476 
L 708.400758 37.651582 
L 710.698099 37.63074 
L 712.960365 37.596003 
L 715.18861 37.387583 
L 717.383843 36.998533 
L 719.547028 36.929059 
L 721.679086 36.421904 
L 723.780902 36.359378 
L 725.853321 36.352431 
L 727.897154 36.248221 
L 729.913178 36.227379 
L 731.902141 35.928643 
L 733.86476 35.845275 
L 735.801722 35.845275 
L 737.713691 35.629908 
L 739.601303 35.449277 
L 741.46517 35.449277 
" style="fill:none;stroke:#98df8a;stroke-linecap:square;stroke-width:1.5;"/>
    <defs>
     <path d="M -0 3 
L 3 -3 
L -3 -3 
z
" id="ma615ed8308" style="stroke:#ffffff;stroke-linejoin:miter;stroke-width:0.75;"/>
    </defs>
    <g clip-path="url(#p6721ccfe57)">
     <use style="fill:#98df8a;stroke:#ffffff;stroke-linejoin:miter;stroke-width:0.75;" x="92.15608" xlink:href="#ma615ed8308" y="112.258982"/>
     <use style="fill:#98df8a;stroke:#ffffff;stroke-linejoin:miter;stroke-width:0.75;" x="194.863526" xlink:href="#ma615ed8308" y="90.381833"/>
     <use style="fill:#98df8a;stroke:#ffffff;stroke-linejoin:miter;stroke-width:0.75;" x="254.943531" xlink:href="#ma615ed8308" y="80.995987"/>
     <use style="fill:#98df8a;stroke:#ffffff;stroke-linejoin:miter;stroke-width:0.75;" x="297.570972" xlink:href="#ma615ed8308" y="79.731573"/>
     <use style="fill:#98df8a;stroke:#ffffff;stroke-linejoin:miter;stroke-width:0.75;" x="330.635385" xlink:href="#ma615ed8308" y="76.799798"/>
     <use style="fill:#98df8a;stroke:#ffffff;stroke-linejoin:miter;stroke-width:0.75;" x="357.650977" xlink:href="#ma615ed8308" y="74.819809"/>
     <use style="fill:#98df8a;stroke:#ffffff;stroke-linejoin:miter;stroke-width:0.75;" x="380.492335" xlink:href="#ma615ed8308" y="73.986129"/>
     <use style="fill:#98df8a;stroke:#ffffff;stroke-linejoin:miter;stroke-width:0.75;" x="400.278419" xlink:href="#ma615ed8308" y="72.054771"/>
     <use style="fill:#98df8a;stroke:#ffffff;stroke-linejoin:miter;stroke-width:0.75;" x="417.730982" xlink:href="#ma615ed8308" y="70.192886"/>
     <use style="fill:#98df8a;stroke:#ffffff;stroke-linejoin:miter;stroke-width:0.75;" x="433.342831" xlink:href="#ma615ed8308" y="69.859414"/>
     <use style="fill:#98df8a;stroke:#ffffff;stroke-linejoin:miter;stroke-width:0.75;" x="447.465467" xlink:href="#ma615ed8308" y="69.623204"/>
     <use style="fill:#98df8a;stroke:#ffffff;stroke-linejoin:miter;stroke-width:0.75;" x="460.358423" xlink:href="#ma615ed8308" y="66.024486"/>
     <use style="fill:#98df8a;stroke:#ffffff;stroke-linejoin:miter;stroke-width:0.75;" x="472.218794" xlink:href="#ma615ed8308" y="65.037965"/>
     <use style="fill:#98df8a;stroke:#ffffff;stroke-linejoin:miter;stroke-width:0.75;" x="483.199781" xlink:href="#ma615ed8308" y="64.169549"/>
     <use style="fill:#98df8a;stroke:#ffffff;stroke-linejoin:miter;stroke-width:0.75;" x="493.422836" xlink:href="#ma615ed8308" y="63.912497"/>
     <use style="fill:#98df8a;stroke:#ffffff;stroke-linejoin:miter;stroke-width:0.75;" x="502.985865" xlink:href="#ma615ed8308" y="63.558183"/>
     <use style="fill:#98df8a;stroke:#ffffff;stroke-linejoin:miter;stroke-width:0.75;" x="511.96895" xlink:href="#ma615ed8308" y="58.09758"/>
     <use style="fill:#98df8a;stroke:#ffffff;stroke-linejoin:miter;stroke-width:0.75;" x="520.438428" xlink:href="#ma615ed8308" y="51.872771"/>
     <use style="fill:#98df8a;stroke:#ffffff;stroke-linejoin:miter;stroke-width:0.75;" x="528.449867" xlink:href="#ma615ed8308" y="51.580983"/>
     <use style="fill:#98df8a;stroke:#ffffff;stroke-linejoin:miter;stroke-width:0.75;" x="536.050278" xlink:href="#ma615ed8308" y="51.018249"/>
     <use style="fill:#98df8a;stroke:#ffffff;stroke-linejoin:miter;stroke-width:0.75;" x="543.279786" xlink:href="#ma615ed8308" y="50.65004"/>
     <use style="fill:#98df8a;stroke:#ffffff;stroke-linejoin:miter;stroke-width:0.75;" x="550.172913" xlink:href="#ma615ed8308" y="50.483304"/>
     <use style="fill:#98df8a;stroke:#ffffff;stroke-linejoin:miter;stroke-width:0.75;" x="556.759577" xlink:href="#ma615ed8308" y="50.149832"/>
     <use style="fill:#98df8a;stroke:#ffffff;stroke-linejoin:miter;stroke-width:0.75;" x="563.06587" xlink:href="#ma615ed8308" y="49.892781"/>
     <use style="fill:#98df8a;stroke:#ffffff;stroke-linejoin:miter;stroke-width:0.75;" x="569.11469" xlink:href="#ma615ed8308" y="49.760782"/>
     <use style="fill:#98df8a;stroke:#ffffff;stroke-linejoin:miter;stroke-width:0.75;" x="574.92624" xlink:href="#ma615ed8308" y="49.50373"/>
     <use style="fill:#98df8a;stroke:#ffffff;stroke-linejoin:miter;stroke-width:0.75;" x="580.518433" xlink:href="#ma615ed8308" y="49.156364"/>
     <use style="fill:#98df8a;stroke:#ffffff;stroke-linejoin:miter;stroke-width:0.75;" x="585.907227" xlink:href="#ma615ed8308" y="48.718682"/>
     <use style="fill:#98df8a;stroke:#ffffff;stroke-linejoin:miter;stroke-width:0.75;" x="591.106902" xlink:href="#ma615ed8308" y="48.378263"/>
     <use style="fill:#98df8a;stroke:#ffffff;stroke-linejoin:miter;stroke-width:0.75;" x="596.130282" xlink:href="#ma615ed8308" y="47.621003"/>
     <use style="fill:#98df8a;stroke:#ffffff;stroke-linejoin:miter;stroke-width:0.75;" x="600.988932" xlink:href="#ma615ed8308" y="45.342278"/>
     <use style="fill:#98df8a;stroke:#ffffff;stroke-linejoin:miter;stroke-width:0.75;" x="605.693312" xlink:href="#ma615ed8308" y="45.071333"/>
     <use style="fill:#98df8a;stroke:#ffffff;stroke-linejoin:miter;stroke-width:0.75;" x="610.252918" xlink:href="#ma615ed8308" y="44.459967"/>
     <use style="fill:#98df8a;stroke:#ffffff;stroke-linejoin:miter;stroke-width:0.75;" x="614.676397" xlink:href="#ma615ed8308" y="44.286284"/>
     <use style="fill:#98df8a;stroke:#ffffff;stroke-linejoin:miter;stroke-width:0.75;" x="618.97164" xlink:href="#ma615ed8308" y="43.869444"/>
     <use style="fill:#98df8a;stroke:#ffffff;stroke-linejoin:miter;stroke-width:0.75;" x="623.145874" xlink:href="#ma615ed8308" y="43.695761"/>
     <use style="fill:#98df8a;stroke:#ffffff;stroke-linejoin:miter;stroke-width:0.75;" x="627.205732" xlink:href="#ma615ed8308" y="43.591551"/>
     <use style="fill:#98df8a;stroke:#ffffff;stroke-linejoin:miter;stroke-width:0.75;" x="631.157313" xlink:href="#ma615ed8308" y="43.077448"/>
     <use style="fill:#98df8a;stroke:#ffffff;stroke-linejoin:miter;stroke-width:0.75;" x="635.006245" xlink:href="#ma615ed8308" y="42.236821"/>
     <use style="fill:#98df8a;stroke:#ffffff;stroke-linejoin:miter;stroke-width:0.75;" x="638.757724" xlink:href="#ma615ed8308" y="41.236405"/>
     <use style="fill:#98df8a;stroke:#ffffff;stroke-linejoin:miter;stroke-width:0.75;" x="642.416565" xlink:href="#ma615ed8308" y="40.923775"/>
     <use style="fill:#98df8a;stroke:#ffffff;stroke-linejoin:miter;stroke-width:0.75;" x="645.987232" xlink:href="#ma615ed8308" y="40.923775"/>
     <use style="fill:#98df8a;stroke:#ffffff;stroke-linejoin:miter;stroke-width:0.75;" x="649.473876" xlink:href="#ma615ed8308" y="40.645882"/>
     <use style="fill:#98df8a;stroke:#ffffff;stroke-linejoin:miter;stroke-width:0.75;" x="652.88036" xlink:href="#ma615ed8308" y="40.618093"/>
     <use style="fill:#98df8a;stroke:#ffffff;stroke-linejoin:miter;stroke-width:0.75;" x="656.210287" xlink:href="#ma615ed8308" y="40.361041"/>
     <use style="fill:#98df8a;stroke:#ffffff;stroke-linejoin:miter;stroke-width:0.75;" x="659.467023" xlink:href="#ma615ed8308" y="40.277673"/>
     <use style="fill:#98df8a;stroke:#ffffff;stroke-linejoin:miter;stroke-width:0.75;" x="662.653716" xlink:href="#ma615ed8308" y="39.659361"/>
     <use style="fill:#98df8a;stroke:#ffffff;stroke-linejoin:miter;stroke-width:0.75;" x="665.773316" xlink:href="#ma615ed8308" y="39.360625"/>
     <use style="fill:#98df8a;stroke:#ffffff;stroke-linejoin:miter;stroke-width:0.75;" x="668.82859" xlink:href="#ma615ed8308" y="39.346731"/>
     <use style="fill:#98df8a;stroke:#ffffff;stroke-linejoin:miter;stroke-width:0.75;" x="671.822137" xlink:href="#ma615ed8308" y="38.929891"/>
     <use style="fill:#98df8a;stroke:#ffffff;stroke-linejoin:miter;stroke-width:0.75;" x="674.756401" xlink:href="#ma615ed8308" y="38.478314"/>
     <use style="fill:#98df8a;stroke:#ffffff;stroke-linejoin:miter;stroke-width:0.75;" x="677.633686" xlink:href="#ma615ed8308" y="38.478314"/>
     <use style="fill:#98df8a;stroke:#ffffff;stroke-linejoin:miter;stroke-width:0.75;" x="680.456163" xlink:href="#ma615ed8308" y="38.353262"/>
     <use style="fill:#98df8a;stroke:#ffffff;stroke-linejoin:miter;stroke-width:0.75;" x="683.225879" xlink:href="#ma615ed8308" y="38.346315"/>
     <use style="fill:#98df8a;stroke:#ffffff;stroke-linejoin:miter;stroke-width:0.75;" x="685.944772" xlink:href="#ma615ed8308" y="38.262947"/>
     <use style="fill:#98df8a;stroke:#ffffff;stroke-linejoin:miter;stroke-width:0.75;" x="688.614674" xlink:href="#ma615ed8308" y="38.249052"/>
     <use style="fill:#98df8a;stroke:#ffffff;stroke-linejoin:miter;stroke-width:0.75;" x="691.237318" xlink:href="#ma615ed8308" y="38.005896"/>
     <use style="fill:#98df8a;stroke:#ffffff;stroke-linejoin:miter;stroke-width:0.75;" x="693.814349" xlink:href="#ma615ed8308" y="38.005896"/>
     <use style="fill:#98df8a;stroke:#ffffff;stroke-linejoin:miter;stroke-width:0.75;" x="696.347325" xlink:href="#ma615ed8308" y="37.978106"/>
     <use style="fill:#98df8a;stroke:#ffffff;stroke-linejoin:miter;stroke-width:0.75;" x="698.837729" xlink:href="#ma615ed8308" y="37.936422"/>
     <use style="fill:#98df8a;stroke:#ffffff;stroke-linejoin:miter;stroke-width:0.75;" x="701.286967" xlink:href="#ma615ed8308" y="37.741897"/>
     <use style="fill:#98df8a;stroke:#ffffff;stroke-linejoin:miter;stroke-width:0.75;" x="703.696378" xlink:href="#ma615ed8308" y="37.728002"/>
     <use style="fill:#98df8a;stroke:#ffffff;stroke-linejoin:miter;stroke-width:0.75;" x="706.067237" xlink:href="#ma615ed8308" y="37.665476"/>
     <use style="fill:#98df8a;stroke:#ffffff;stroke-linejoin:miter;stroke-width:0.75;" x="708.400758" xlink:href="#ma615ed8308" y="37.651582"/>
     <use style="fill:#98df8a;stroke:#ffffff;stroke-linejoin:miter;stroke-width:0.75;" x="710.698099" xlink:href="#ma615ed8308" y="37.63074"/>
     <use style="fill:#98df8a;stroke:#ffffff;stroke-linejoin:miter;stroke-width:0.75;" x="712.960365" xlink:href="#ma615ed8308" y="37.596003"/>
     <use style="fill:#98df8a;stroke:#ffffff;stroke-linejoin:miter;stroke-width:0.75;" x="715.18861" xlink:href="#ma615ed8308" y="37.387583"/>
     <use style="fill:#98df8a;stroke:#ffffff;stroke-linejoin:miter;stroke-width:0.75;" x="717.383843" xlink:href="#ma615ed8308" y="36.998533"/>
     <use style="fill:#98df8a;stroke:#ffffff;stroke-linejoin:miter;stroke-width:0.75;" x="719.547028" xlink:href="#ma615ed8308" y="36.929059"/>
     <use style="fill:#98df8a;stroke:#ffffff;stroke-linejoin:miter;stroke-width:0.75;" x="721.679086" xlink:href="#ma615ed8308" y="36.421904"/>
     <use style="fill:#98df8a;stroke:#ffffff;stroke-linejoin:miter;stroke-width:0.75;" x="723.780902" xlink:href="#ma615ed8308" y="36.359378"/>
     <use style="fill:#98df8a;stroke:#ffffff;stroke-linejoin:miter;stroke-width:0.75;" x="725.853321" xlink:href="#ma615ed8308" y="36.352431"/>
     <use style="fill:#98df8a;stroke:#ffffff;stroke-linejoin:miter;stroke-width:0.75;" x="727.897154" xlink:href="#ma615ed8308" y="36.248221"/>
     <use style="fill:#98df8a;stroke:#ffffff;stroke-linejoin:miter;stroke-width:0.75;" x="729.913178" xlink:href="#ma615ed8308" y="36.227379"/>
     <use style="fill:#98df8a;stroke:#ffffff;stroke-linejoin:miter;stroke-width:0.75;" x="731.902141" xlink:href="#ma615ed8308" y="35.928643"/>
     <use style="fill:#98df8a;stroke:#ffffff;stroke-linejoin:miter;stroke-width:0.75;" x="733.86476" xlink:href="#ma615ed8308" y="35.845275"/>
     <use style="fill:#98df8a;stroke:#ffffff;stroke-linejoin:miter;stroke-width:0.75;" x="735.801722" xlink:href="#ma615ed8308" y="35.845275"/>
     <use style="fill:#98df8a;stroke:#ffffff;stroke-linejoin:miter;stroke-width:0.75;" x="737.713691" xlink:href="#ma615ed8308" y="35.629908"/>
     <use style="fill:#98df8a;stroke:#ffffff;stroke-linejoin:miter;stroke-width:0.75;" x="739.601303" xlink:href="#ma615ed8308" y="35.449277"/>
     <use style="fill:#98df8a;stroke:#ffffff;stroke-linejoin:miter;stroke-width:0.75;" x="741.46517" xlink:href="#ma615ed8308" y="35.449277"/>
    </g>
   </g>
   <g id="line2d_38">
    <path clip-path="url(#p6721ccfe57)" d="M 92.15608 98.531053 
L 194.863526 87.283323 
L 254.943531 80.377674 
L 297.570972 76.028645 
L 330.635385 73.110765 
L 357.650977 67.83774 
L 380.492335 67.677951 
L 400.278419 67.497321 
L 417.730982 67.101323 
L 433.342831 63.051028 
L 447.465467 62.113138 
L 460.358423 54.81844 
L 472.218794 54.102864 
L 483.199781 53.741603 
L 493.422836 51.671298 
L 502.985865 51.664351 
L 511.96895 51.560141 
L 520.438428 44.03618 
L 528.449867 43.487341 
L 536.050278 43.403973 
L 543.279786 43.403973 
L 550.172913 41.993664 
L 556.759577 41.861665 
L 563.06587 41.813034 
L 569.11469 41.729666 
L 574.92624 41.521246 
L 580.518433 41.521246 
L 585.907227 40.951565 
L 591.106902 40.83346 
L 596.130282 40.83346 
L 600.988932 39.735781 
L 605.693312 39.714939 
L 610.252918 39.714939 
L 614.676397 39.714939 
L 618.97164 39.437046 
L 623.145874 39.430099 
L 627.205732 39.423151 
L 631.157313 39.423151 
L 635.006245 39.325889 
L 638.757724 39.325889 
L 642.416565 39.311994 
L 645.987232 39.249468 
L 649.473876 39.242521 
L 652.88036 39.047996 
L 656.210287 39.047996 
L 659.467023 38.978522 
L 662.653716 38.839576 
L 665.773316 38.561682 
L 668.82859 38.471367 
L 671.822137 38.408841 
L 674.756401 38.381052 
L 677.633686 38.304631 
L 680.456163 38.207368 
L 683.225879 38.207368 
L 685.944772 38.130948 
L 688.614674 38.130948 
L 691.237318 38.130948 
L 693.814349 37.978106 
L 696.347325 37.971159 
L 698.837729 37.929475 
L 701.286967 37.846107 
L 703.696378 37.679371 
L 706.067237 37.679371 
L 708.400758 37.679371 
L 710.698099 37.352846 
L 712.960365 37.352846 
L 715.18861 37.352846 
L 717.383843 37.332005 
L 719.547028 37.332005 
L 721.679086 37.332005 
L 723.780902 36.574745 
L 725.853321 36.574745 
L 727.897154 36.449693 
L 729.913178 35.727171 
L 731.902141 35.727171 
L 733.86476 35.727171 
L 735.801722 35.727171 
L 737.713691 35.678539 
L 739.601303 35.678539 
L 741.46517 35.678539 
" style="fill:none;stroke:#1f77b4;stroke-linecap:square;stroke-width:1.5;"/>
    <defs>
     <path d="M 0 3 
C 0.795609 3 1.55874 2.683901 2.12132 2.12132 
C 2.683901 1.55874 3 0.795609 3 0 
C 3 -0.795609 2.683901 -1.55874 2.12132 -2.12132 
C 1.55874 -2.683901 0.795609 -3 0 -3 
C -0.795609 -3 -1.55874 -2.683901 -2.12132 -2.12132 
C -2.683901 -1.55874 -3 -0.795609 -3 0 
C -3 0.795609 -2.683901 1.55874 -2.12132 2.12132 
C -1.55874 2.683901 -0.795609 3 0 3 
z
" id="m492ebd5950" style="stroke:#ffffff;stroke-width:0.75;"/>
    </defs>
    <g clip-path="url(#p6721ccfe57)">
     <use style="fill:#1f77b4;stroke:#ffffff;stroke-width:0.75;" x="92.15608" xlink:href="#m492ebd5950" y="98.531053"/>
     <use style="fill:#1f77b4;stroke:#ffffff;stroke-width:0.75;" x="194.863526" xlink:href="#m492ebd5950" y="87.283323"/>
     <use style="fill:#1f77b4;stroke:#ffffff;stroke-width:0.75;" x="254.943531" xlink:href="#m492ebd5950" y="80.377674"/>
     <use style="fill:#1f77b4;stroke:#ffffff;stroke-width:0.75;" x="297.570972" xlink:href="#m492ebd5950" y="76.028645"/>
     <use style="fill:#1f77b4;stroke:#ffffff;stroke-width:0.75;" x="330.635385" xlink:href="#m492ebd5950" y="73.110765"/>
     <use style="fill:#1f77b4;stroke:#ffffff;stroke-width:0.75;" x="357.650977" xlink:href="#m492ebd5950" y="67.83774"/>
     <use style="fill:#1f77b4;stroke:#ffffff;stroke-width:0.75;" x="380.492335" xlink:href="#m492ebd5950" y="67.677951"/>
     <use style="fill:#1f77b4;stroke:#ffffff;stroke-width:0.75;" x="400.278419" xlink:href="#m492ebd5950" y="67.497321"/>
     <use style="fill:#1f77b4;stroke:#ffffff;stroke-width:0.75;" x="417.730982" xlink:href="#m492ebd5950" y="67.101323"/>
     <use style="fill:#1f77b4;stroke:#ffffff;stroke-width:0.75;" x="433.342831" xlink:href="#m492ebd5950" y="63.051028"/>
     <use style="fill:#1f77b4;stroke:#ffffff;stroke-width:0.75;" x="447.465467" xlink:href="#m492ebd5950" y="62.113138"/>
     <use style="fill:#1f77b4;stroke:#ffffff;stroke-width:0.75;" x="460.358423" xlink:href="#m492ebd5950" y="54.81844"/>
     <use style="fill:#1f77b4;stroke:#ffffff;stroke-width:0.75;" x="472.218794" xlink:href="#m492ebd5950" y="54.102864"/>
     <use style="fill:#1f77b4;stroke:#ffffff;stroke-width:0.75;" x="483.199781" xlink:href="#m492ebd5950" y="53.741603"/>
     <use style="fill:#1f77b4;stroke:#ffffff;stroke-width:0.75;" x="493.422836" xlink:href="#m492ebd5950" y="51.671298"/>
     <use style="fill:#1f77b4;stroke:#ffffff;stroke-width:0.75;" x="502.985865" xlink:href="#m492ebd5950" y="51.664351"/>
     <use style="fill:#1f77b4;stroke:#ffffff;stroke-width:0.75;" x="511.96895" xlink:href="#m492ebd5950" y="51.560141"/>
     <use style="fill:#1f77b4;stroke:#ffffff;stroke-width:0.75;" x="520.438428" xlink:href="#m492ebd5950" y="44.03618"/>
     <use style="fill:#1f77b4;stroke:#ffffff;stroke-width:0.75;" x="528.449867" xlink:href="#m492ebd5950" y="43.487341"/>
     <use style="fill:#1f77b4;stroke:#ffffff;stroke-width:0.75;" x="536.050278" xlink:href="#m492ebd5950" y="43.403973"/>
     <use style="fill:#1f77b4;stroke:#ffffff;stroke-width:0.75;" x="543.279786" xlink:href="#m492ebd5950" y="43.403973"/>
     <use style="fill:#1f77b4;stroke:#ffffff;stroke-width:0.75;" x="550.172913" xlink:href="#m492ebd5950" y="41.993664"/>
     <use style="fill:#1f77b4;stroke:#ffffff;stroke-width:0.75;" x="556.759577" xlink:href="#m492ebd5950" y="41.861665"/>
     <use style="fill:#1f77b4;stroke:#ffffff;stroke-width:0.75;" x="563.06587" xlink:href="#m492ebd5950" y="41.813034"/>
     <use style="fill:#1f77b4;stroke:#ffffff;stroke-width:0.75;" x="569.11469" xlink:href="#m492ebd5950" y="41.729666"/>
     <use style="fill:#1f77b4;stroke:#ffffff;stroke-width:0.75;" x="574.92624" xlink:href="#m492ebd5950" y="41.521246"/>
     <use style="fill:#1f77b4;stroke:#ffffff;stroke-width:0.75;" x="580.518433" xlink:href="#m492ebd5950" y="41.521246"/>
     <use style="fill:#1f77b4;stroke:#ffffff;stroke-width:0.75;" x="585.907227" xlink:href="#m492ebd5950" y="40.951565"/>
     <use style="fill:#1f77b4;stroke:#ffffff;stroke-width:0.75;" x="591.106902" xlink:href="#m492ebd5950" y="40.83346"/>
     <use style="fill:#1f77b4;stroke:#ffffff;stroke-width:0.75;" x="596.130282" xlink:href="#m492ebd5950" y="40.83346"/>
     <use style="fill:#1f77b4;stroke:#ffffff;stroke-width:0.75;" x="600.988932" xlink:href="#m492ebd5950" y="39.735781"/>
     <use style="fill:#1f77b4;stroke:#ffffff;stroke-width:0.75;" x="605.693312" xlink:href="#m492ebd5950" y="39.714939"/>
     <use style="fill:#1f77b4;stroke:#ffffff;stroke-width:0.75;" x="610.252918" xlink:href="#m492ebd5950" y="39.714939"/>
     <use style="fill:#1f77b4;stroke:#ffffff;stroke-width:0.75;" x="614.676397" xlink:href="#m492ebd5950" y="39.714939"/>
     <use style="fill:#1f77b4;stroke:#ffffff;stroke-width:0.75;" x="618.97164" xlink:href="#m492ebd5950" y="39.437046"/>
     <use style="fill:#1f77b4;stroke:#ffffff;stroke-width:0.75;" x="623.145874" xlink:href="#m492ebd5950" y="39.430099"/>
     <use style="fill:#1f77b4;stroke:#ffffff;stroke-width:0.75;" x="627.205732" xlink:href="#m492ebd5950" y="39.423151"/>
     <use style="fill:#1f77b4;stroke:#ffffff;stroke-width:0.75;" x="631.157313" xlink:href="#m492ebd5950" y="39.423151"/>
     <use style="fill:#1f77b4;stroke:#ffffff;stroke-width:0.75;" x="635.006245" xlink:href="#m492ebd5950" y="39.325889"/>
     <use style="fill:#1f77b4;stroke:#ffffff;stroke-width:0.75;" x="638.757724" xlink:href="#m492ebd5950" y="39.325889"/>
     <use style="fill:#1f77b4;stroke:#ffffff;stroke-width:0.75;" x="642.416565" xlink:href="#m492ebd5950" y="39.311994"/>
     <use style="fill:#1f77b4;stroke:#ffffff;stroke-width:0.75;" x="645.987232" xlink:href="#m492ebd5950" y="39.249468"/>
     <use style="fill:#1f77b4;stroke:#ffffff;stroke-width:0.75;" x="649.473876" xlink:href="#m492ebd5950" y="39.242521"/>
     <use style="fill:#1f77b4;stroke:#ffffff;stroke-width:0.75;" x="652.88036" xlink:href="#m492ebd5950" y="39.047996"/>
     <use style="fill:#1f77b4;stroke:#ffffff;stroke-width:0.75;" x="656.210287" xlink:href="#m492ebd5950" y="39.047996"/>
     <use style="fill:#1f77b4;stroke:#ffffff;stroke-width:0.75;" x="659.467023" xlink:href="#m492ebd5950" y="38.978522"/>
     <use style="fill:#1f77b4;stroke:#ffffff;stroke-width:0.75;" x="662.653716" xlink:href="#m492ebd5950" y="38.839576"/>
     <use style="fill:#1f77b4;stroke:#ffffff;stroke-width:0.75;" x="665.773316" xlink:href="#m492ebd5950" y="38.561682"/>
     <use style="fill:#1f77b4;stroke:#ffffff;stroke-width:0.75;" x="668.82859" xlink:href="#m492ebd5950" y="38.471367"/>
     <use style="fill:#1f77b4;stroke:#ffffff;stroke-width:0.75;" x="671.822137" xlink:href="#m492ebd5950" y="38.408841"/>
     <use style="fill:#1f77b4;stroke:#ffffff;stroke-width:0.75;" x="674.756401" xlink:href="#m492ebd5950" y="38.381052"/>
     <use style="fill:#1f77b4;stroke:#ffffff;stroke-width:0.75;" x="677.633686" xlink:href="#m492ebd5950" y="38.304631"/>
     <use style="fill:#1f77b4;stroke:#ffffff;stroke-width:0.75;" x="680.456163" xlink:href="#m492ebd5950" y="38.207368"/>
     <use style="fill:#1f77b4;stroke:#ffffff;stroke-width:0.75;" x="683.225879" xlink:href="#m492ebd5950" y="38.207368"/>
     <use style="fill:#1f77b4;stroke:#ffffff;stroke-width:0.75;" x="685.944772" xlink:href="#m492ebd5950" y="38.130948"/>
     <use style="fill:#1f77b4;stroke:#ffffff;stroke-width:0.75;" x="688.614674" xlink:href="#m492ebd5950" y="38.130948"/>
     <use style="fill:#1f77b4;stroke:#ffffff;stroke-width:0.75;" x="691.237318" xlink:href="#m492ebd5950" y="38.130948"/>
     <use style="fill:#1f77b4;stroke:#ffffff;stroke-width:0.75;" x="693.814349" xlink:href="#m492ebd5950" y="37.978106"/>
     <use style="fill:#1f77b4;stroke:#ffffff;stroke-width:0.75;" x="696.347325" xlink:href="#m492ebd5950" y="37.971159"/>
     <use style="fill:#1f77b4;stroke:#ffffff;stroke-width:0.75;" x="698.837729" xlink:href="#m492ebd5950" y="37.929475"/>
     <use style="fill:#1f77b4;stroke:#ffffff;stroke-width:0.75;" x="701.286967" xlink:href="#m492ebd5950" y="37.846107"/>
     <use style="fill:#1f77b4;stroke:#ffffff;stroke-width:0.75;" x="703.696378" xlink:href="#m492ebd5950" y="37.679371"/>
     <use style="fill:#1f77b4;stroke:#ffffff;stroke-width:0.75;" x="706.067237" xlink:href="#m492ebd5950" y="37.679371"/>
     <use style="fill:#1f77b4;stroke:#ffffff;stroke-width:0.75;" x="708.400758" xlink:href="#m492ebd5950" y="37.679371"/>
     <use style="fill:#1f77b4;stroke:#ffffff;stroke-width:0.75;" x="710.698099" xlink:href="#m492ebd5950" y="37.352846"/>
     <use style="fill:#1f77b4;stroke:#ffffff;stroke-width:0.75;" x="712.960365" xlink:href="#m492ebd5950" y="37.352846"/>
     <use style="fill:#1f77b4;stroke:#ffffff;stroke-width:0.75;" x="715.18861" xlink:href="#m492ebd5950" y="37.352846"/>
     <use style="fill:#1f77b4;stroke:#ffffff;stroke-width:0.75;" x="717.383843" xlink:href="#m492ebd5950" y="37.332005"/>
     <use style="fill:#1f77b4;stroke:#ffffff;stroke-width:0.75;" x="719.547028" xlink:href="#m492ebd5950" y="37.332005"/>
     <use style="fill:#1f77b4;stroke:#ffffff;stroke-width:0.75;" x="721.679086" xlink:href="#m492ebd5950" y="37.332005"/>
     <use style="fill:#1f77b4;stroke:#ffffff;stroke-width:0.75;" x="723.780902" xlink:href="#m492ebd5950" y="36.574745"/>
     <use style="fill:#1f77b4;stroke:#ffffff;stroke-width:0.75;" x="725.853321" xlink:href="#m492ebd5950" y="36.574745"/>
     <use style="fill:#1f77b4;stroke:#ffffff;stroke-width:0.75;" x="727.897154" xlink:href="#m492ebd5950" y="36.449693"/>
     <use style="fill:#1f77b4;stroke:#ffffff;stroke-width:0.75;" x="729.913178" xlink:href="#m492ebd5950" y="35.727171"/>
     <use style="fill:#1f77b4;stroke:#ffffff;stroke-width:0.75;" x="731.902141" xlink:href="#m492ebd5950" y="35.727171"/>
     <use style="fill:#1f77b4;stroke:#ffffff;stroke-width:0.75;" x="733.86476" xlink:href="#m492ebd5950" y="35.727171"/>
     <use style="fill:#1f77b4;stroke:#ffffff;stroke-width:0.75;" x="735.801722" xlink:href="#m492ebd5950" y="35.727171"/>
     <use style="fill:#1f77b4;stroke:#ffffff;stroke-width:0.75;" x="737.713691" xlink:href="#m492ebd5950" y="35.678539"/>
     <use style="fill:#1f77b4;stroke:#ffffff;stroke-width:0.75;" x="739.601303" xlink:href="#m492ebd5950" y="35.678539"/>
     <use style="fill:#1f77b4;stroke:#ffffff;stroke-width:0.75;" x="741.46517" xlink:href="#m492ebd5950" y="35.678539"/>
    </g>
   </g>
   <g id="line2d_39"/>
   <g id="line2d_40"/>
   <g id="line2d_41">
    <path clip-path="url(#p6721ccfe57)" d="M 741.46517 288.430125 
L 741.46517 22.318125 
" style="fill:none;stroke:#ff0000;stroke-linecap:square;stroke-width:1.5;"/>
   </g>
   <g id="patch_3">
    <path d="M 59.690625 284.823765 
L 59.690625 41.66714 
" style="fill:none;stroke:#000000;stroke-linecap:square;stroke-linejoin:miter;stroke-width:0.8;"/>
   </g>
   <g id="patch_4">
    <path d="M 92.15608 288.430125 
L 741.467228 288.430125 
" style="fill:none;stroke:#000000;stroke-linecap:square;stroke-linejoin:miter;stroke-width:0.8;"/>
   </g>
   <g id="text_23">
    <!-- freetype2-2017 (20h, 4 trials/fuzzer) -->
    <g transform="translate(307.414688 16.318125)scale(0.12 -0.12)">
     <defs>
      <path d="M 2375 4863 
L 2375 4384 
L 1825 4384 
Q 1516 4384 1395 4259 
Q 1275 4134 1275 3809 
L 1275 3500 
L 2222 3500 
L 2222 3053 
L 1275 3053 
L 1275 0 
L 697 0 
L 697 3053 
L 147 3053 
L 147 3500 
L 697 3500 
L 697 3744 
Q 697 4328 969 4595 
Q 1241 4863 1831 4863 
L 2375 4863 
z
" id="DejaVuSans-66" transform="scale(0.015625)"/>
      <path d="M 2059 -325 
Q 1816 -950 1584 -1140 
Q 1353 -1331 966 -1331 
L 506 -1331 
L 506 -850 
L 844 -850 
Q 1081 -850 1212 -737 
Q 1344 -625 1503 -206 
L 1606 56 
L 191 3500 
L 800 3500 
L 1894 763 
L 2988 3500 
L 3597 3500 
L 2059 -325 
z
" id="DejaVuSans-79" transform="scale(0.015625)"/>
      <path d="M 1159 525 
L 1159 -1331 
L 581 -1331 
L 581 3500 
L 1159 3500 
L 1159 2969 
Q 1341 3281 1617 3432 
Q 1894 3584 2278 3584 
Q 2916 3584 3314 3078 
Q 3713 2572 3713 1747 
Q 3713 922 3314 415 
Q 2916 -91 2278 -91 
Q 1894 -91 1617 61 
Q 1341 213 1159 525 
z
M 3116 1747 
Q 3116 2381 2855 2742 
Q 2594 3103 2138 3103 
Q 1681 3103 1420 2742 
Q 1159 2381 1159 1747 
Q 1159 1113 1420 752 
Q 1681 391 2138 391 
Q 2594 391 2855 752 
Q 3116 1113 3116 1747 
z
" id="DejaVuSans-70" transform="scale(0.015625)"/>
      <path d="M 313 2009 
L 1997 2009 
L 1997 1497 
L 313 1497 
L 313 2009 
z
" id="DejaVuSans-2d" transform="scale(0.015625)"/>
      <path d="M 750 794 
L 1409 794 
L 1409 256 
L 897 -744 
L 494 -744 
L 750 256 
L 750 794 
z
" id="DejaVuSans-2c" transform="scale(0.015625)"/>
      <path d="M 603 4863 
L 1178 4863 
L 1178 0 
L 603 0 
L 603 4863 
z
" id="DejaVuSans-6c" transform="scale(0.015625)"/>
      <path d="M 2834 3397 
L 2834 2853 
Q 2591 2978 2328 3040 
Q 2066 3103 1784 3103 
Q 1356 3103 1142 2972 
Q 928 2841 928 2578 
Q 928 2378 1081 2264 
Q 1234 2150 1697 2047 
L 1894 2003 
Q 2506 1872 2764 1633 
Q 3022 1394 3022 966 
Q 3022 478 2636 193 
Q 2250 -91 1575 -91 
Q 1294 -91 989 -36 
Q 684 19 347 128 
L 347 722 
Q 666 556 975 473 
Q 1284 391 1588 391 
Q 1994 391 2212 530 
Q 2431 669 2431 922 
Q 2431 1156 2273 1281 
Q 2116 1406 1581 1522 
L 1381 1569 
Q 847 1681 609 1914 
Q 372 2147 372 2553 
Q 372 3047 722 3315 
Q 1072 3584 1716 3584 
Q 2034 3584 2315 3537 
Q 2597 3491 2834 3397 
z
" id="DejaVuSans-73" transform="scale(0.015625)"/>
      <path d="M 1625 4666 
L 2156 4666 
L 531 -594 
L 0 -594 
L 1625 4666 
z
" id="DejaVuSans-2f" transform="scale(0.015625)"/>
      <path d="M 353 3500 
L 3084 3500 
L 3084 2975 
L 922 459 
L 3084 459 
L 3084 0 
L 275 0 
L 275 525 
L 2438 3041 
L 353 3041 
L 353 3500 
z
" id="DejaVuSans-7a" transform="scale(0.015625)"/>
     </defs>
     <use xlink:href="#DejaVuSans-66"/>
     <use x="35.205078" xlink:href="#DejaVuSans-72"/>
     <use x="74.068359" xlink:href="#DejaVuSans-65"/>
     <use x="135.591797" xlink:href="#DejaVuSans-65"/>
     <use x="197.115234" xlink:href="#DejaVuSans-74"/>
     <use x="236.324219" xlink:href="#DejaVuSans-79"/>
     <use x="295.503906" xlink:href="#DejaVuSans-70"/>
     <use x="358.980469" xlink:href="#DejaVuSans-65"/>
     <use x="420.503906" xlink:href="#DejaVuSans-32"/>
     <use x="484.126953" xlink:href="#DejaVuSans-2d"/>
     <use x="520.210938" xlink:href="#DejaVuSans-32"/>
     <use x="583.833984" xlink:href="#DejaVuSans-30"/>
     <use x="647.457031" xlink:href="#DejaVuSans-31"/>
     <use x="711.080078" xlink:href="#DejaVuSans-37"/>
     <use x="774.703125" xlink:href="#DejaVuSans-20"/>
     <use x="806.490234" xlink:href="#DejaVuSans-28"/>
     <use x="845.503906" xlink:href="#DejaVuSans-32"/>
     <use x="909.126953" xlink:href="#DejaVuSans-30"/>
     <use x="972.75" xlink:href="#DejaVuSans-68"/>
     <use x="1036.128906" xlink:href="#DejaVuSans-2c"/>
     <use x="1067.916016" xlink:href="#DejaVuSans-20"/>
     <use x="1099.703125" xlink:href="#DejaVuSans-34"/>
     <use x="1163.326172" xlink:href="#DejaVuSans-20"/>
     <use x="1195.113281" xlink:href="#DejaVuSans-74"/>
     <use x="1234.322266" xlink:href="#DejaVuSans-72"/>
     <use x="1275.435547" xlink:href="#DejaVuSans-69"/>
     <use x="1303.21875" xlink:href="#DejaVuSans-61"/>
     <use x="1364.498047" xlink:href="#DejaVuSans-6c"/>
     <use x="1392.28125" xlink:href="#DejaVuSans-73"/>
     <use x="1444.380859" xlink:href="#DejaVuSans-2f"/>
     <use x="1478.072266" xlink:href="#DejaVuSans-66"/>
     <use x="1513.277344" xlink:href="#DejaVuSans-75"/>
     <use x="1576.65625" xlink:href="#DejaVuSans-7a"/>
     <use x="1629.146484" xlink:href="#DejaVuSans-7a"/>
     <use x="1681.636719" xlink:href="#DejaVuSans-65"/>
     <use x="1743.160156" xlink:href="#DejaVuSans-72"/>
     <use x="1784.273438" xlink:href="#DejaVuSans-29"/>
    </g>
   </g>
   <g id="legend_1">
    <g id="line2d_42">
     <path d="M 777.930625 30.416562 
L 797.930625 30.416562 
" style="fill:none;stroke:#98df8a;stroke-linecap:square;stroke-width:1.5;"/>
    </g>
    <g id="line2d_43">
     <defs>
      <path d="M -0 3 
L 3 -3 
L -3 -3 
z
" id="m91e6ec6575" style="stroke:#98df8a;stroke-linejoin:miter;"/>
     </defs>
     <g>
      <use style="fill:#98df8a;stroke:#98df8a;stroke-linejoin:miter;" x="787.930625" xlink:href="#m91e6ec6575" y="30.416562"/>
     </g>
    </g>
    <g id="text_24">
     <!-- weight_random_selection -->
     <g transform="translate(805.930625 33.916562)scale(0.1 -0.1)">
      <defs>
       <path d="M 269 3500 
L 844 3500 
L 1563 769 
L 2278 3500 
L 2956 3500 
L 3675 769 
L 4391 3500 
L 4966 3500 
L 4050 0 
L 3372 0 
L 2619 2869 
L 1863 0 
L 1184 0 
L 269 3500 
z
" id="DejaVuSans-77" transform="scale(0.015625)"/>
       <path d="M 3263 -1063 
L 3263 -1509 
L -63 -1509 
L -63 -1063 
L 3263 -1063 
z
" id="DejaVuSans-5f" transform="scale(0.015625)"/>
      </defs>
      <use xlink:href="#DejaVuSans-77"/>
      <use x="81.787109" xlink:href="#DejaVuSans-65"/>
      <use x="143.310547" xlink:href="#DejaVuSans-69"/>
      <use x="171.09375" xlink:href="#DejaVuSans-67"/>
      <use x="234.570312" xlink:href="#DejaVuSans-68"/>
      <use x="297.949219" xlink:href="#DejaVuSans-74"/>
      <use x="337.158203" xlink:href="#DejaVuSans-5f"/>
      <use x="387.158203" xlink:href="#DejaVuSans-72"/>
      <use x="428.271484" xlink:href="#DejaVuSans-61"/>
      <use x="489.550781" xlink:href="#DejaVuSans-6e"/>
      <use x="552.929688" xlink:href="#DejaVuSans-64"/>
      <use x="616.40625" xlink:href="#DejaVuSans-6f"/>
      <use x="677.587891" xlink:href="#DejaVuSans-6d"/>
      <use x="775" xlink:href="#DejaVuSans-5f"/>
      <use x="825" xlink:href="#DejaVuSans-73"/>
      <use x="877.099609" xlink:href="#DejaVuSans-65"/>
      <use x="938.623047" xlink:href="#DejaVuSans-6c"/>
      <use x="966.40625" xlink:href="#DejaVuSans-65"/>
      <use x="1027.929688" xlink:href="#DejaVuSans-63"/>
      <use x="1082.910156" xlink:href="#DejaVuSans-74"/>
      <use x="1122.119141" xlink:href="#DejaVuSans-69"/>
      <use x="1149.902344" xlink:href="#DejaVuSans-6f"/>
      <use x="1211.083984" xlink:href="#DejaVuSans-6e"/>
     </g>
    </g>
    <g id="line2d_44">
     <path d="M 777.930625 45.372813 
L 797.930625 45.372813 
" style="fill:none;stroke:#1f77b4;stroke-linecap:square;stroke-width:1.5;"/>
    </g>
    <g id="line2d_45">
     <defs>
      <path d="M 0 3 
C 0.795609 3 1.55874 2.683901 2.12132 2.12132 
C 2.683901 1.55874 3 0.795609 3 0 
C 3 -0.795609 2.683901 -1.55874 2.12132 -2.12132 
C 1.55874 -2.683901 0.795609 -3 0 -3 
C -0.795609 -3 -1.55874 -2.683901 -2.12132 -2.12132 
C -2.683901 -1.55874 -3 -0.795609 -3 0 
C -3 0.795609 -2.683901 1.55874 -2.12132 2.12132 
C -1.55874 2.683901 -0.795609 3 0 3 
z
" id="m589cc0c8fb" style="stroke:#1f77b4;"/>
     </defs>
     <g>
      <use style="fill:#1f77b4;stroke:#1f77b4;" x="787.930625" xlink:href="#m589cc0c8fb" y="45.372813"/>
     </g>
    </g>
    <g id="text_25">
     <!-- afl -->
     <g transform="translate(805.930625 48.872813)scale(0.1 -0.1)">
      <use xlink:href="#DejaVuSans-61"/>
      <use x="61.279297" xlink:href="#DejaVuSans-66"/>
      <use x="96.484375" xlink:href="#DejaVuSans-6c"/>
     </g>
    </g>
   </g>
  </g>
 </g>
 <defs>
  <clipPath id="p6721ccfe57">
   <rect height="266.112" width="714.24" x="59.690625" y="22.318125"/>
  </clipPath>
 </defs>
</svg>
