<?xml version="1.0" encoding="utf-8" standalone="no"?>
<!DOCTYPE svg PUBLIC "-//W3C//DTD SVG 1.1//EN"
  "http://www.w3.org/Graphics/SVG/1.1/DTD/svg11.dtd">
<svg height="325.986375pt" version="1.1" viewBox="0 0 898.580625 325.986375" width="898.580625pt" xmlns="http://www.w3.org/2000/svg" xmlns:xlink="http://www.w3.org/1999/xlink">
 <metadata>
  <rdf:RDF xmlns:cc="http://creativecommons.org/ns#" xmlns:dc="http://purl.org/dc/elements/1.1/" xmlns:rdf="http://www.w3.org/1999/02/22-rdf-syntax-ns#">
   <cc:Work>
    <dc:type rdf:resource="http://purl.org/dc/dcmitype/StillImage"/>
    <dc:date>2021-07-28T09:01:44.924539</dc:date>
    <dc:format>image/svg+xml</dc:format>
    <dc:creator>
     <cc:Agent>
      <dc:title>Matplotlib v3.4.1, https://matplotlib.org/</dc:title>
     </cc:Agent>
    </dc:creator>
   </cc:Work>
  </rdf:RDF>
 </metadata>
 <defs>
  <style type="text/css">*{stroke-linecap:butt;stroke-linejoin:round;}</style>
 </defs>
 <g id="figure_1">
  <g id="patch_1">
   <path d="M 0 325.986375 
L 898.580625 325.986375 
L 898.580625 0 
L 0 0 
z
" style="fill:#ffffff;"/>
  </g>
  <g id="axes_1">
   <g id="patch_2">
    <path d="M 59.690625 288.430125 
L 773.930625 288.430125 
L 773.930625 22.318125 
L 59.690625 22.318125 
z
" style="fill:#ffffff;"/>
   </g>
   <g id="PolyCollection_1">
    <defs>
     <path d="M 92.15608 -84.363252 
L 92.15608 -59.335869 
L 102.14545 -76.964149 
L 112.134821 -101.650559 
L 122.124191 -101.650559 
L 132.113562 -133.650829 
L 142.102933 -149.693586 
L 152.092303 -156.189113 
L 162.081674 -164.03148 
L 172.071045 -171.584022 
L 182.060415 -180.875523 
L 192.049786 -186.603861 
L 202.039156 -194.30984 
L 212.028527 -212.159751 
L 222.017898 -214.819337 
L 232.007268 -217.13795 
L 241.996639 -217.13795 
L 251.98601 -226.582888 
L 261.97538 -228.79921 
L 271.964751 -230.504072 
L 281.954122 -232.566956 
L 291.943492 -235.49932 
L 301.932863 -236.402897 
L 311.922233 -236.402897 
L 321.911604 -243.870195 
L 331.900975 -246.2911 
L 341.890345 -247.723184 
L 351.879716 -248.047108 
L 361.869087 -249.803117 
L 371.858457 -250.041798 
L 381.847828 -250.485062 
L 391.837198 -250.485062 
L 401.826569 -251.559125 
L 411.81594 -252.104681 
L 421.80531 -252.888918 
L 431.794681 -253.519717 
L 441.784052 -255.360969 
L 451.773422 -255.974719 
L 461.762793 -258.685451 
L 471.752163 -258.855937 
L 481.741534 -259.69132 
L 491.730905 -260.049341 
L 501.720275 -260.049341 
L 511.709646 -261.225696 
L 521.699017 -261.873544 
L 531.688387 -263.510212 
L 541.677758 -263.680698 
L 551.667128 -264.874102 
L 561.656499 -264.891151 
L 571.64587 -265.232123 
L 581.63524 -265.811776 
L 591.624611 -266.084554 
L 601.613982 -266.681256 
L 611.603352 -267.141569 
L 621.592723 -267.141569 
L 631.582094 -267.141569 
L 641.571464 -268.36907 
L 651.560835 -268.778237 
L 661.550205 -269.068064 
L 671.539576 -269.750009 
L 681.528947 -269.818203 
L 691.518317 -269.869349 
L 701.507688 -271.898136 
L 711.497059 -272.375497 
L 721.486429 -272.631227 
L 731.4758 -272.631227 
L 741.46517 -272.631227 
L 741.46517 -291.57225 
L 741.46517 -291.57225 
L 731.4758 -291.401764 
L 721.486429 -291.163083 
L 711.497059 -290.481138 
L 701.507688 -290.293603 
L 691.518317 -289.594609 
L 681.528947 -289.594609 
L 671.539576 -286.49176 
L 661.550205 -285.946203 
L 651.560835 -285.554085 
L 641.571464 -285.434745 
L 631.582094 -284.514119 
L 621.592723 -284.087903 
L 611.603352 -283.815125 
L 601.613982 -283.38891 
L 591.624611 -283.13318 
L 581.63524 -283.116132 
L 571.64587 -283.099083 
L 561.656499 -283.082034 
L 551.667128 -282.059117 
L 541.677758 -281.598804 
L 531.688387 -280.541789 
L 521.699017 -279.962136 
L 511.709646 -279.570017 
L 501.720275 -277.984495 
L 491.730905 -277.984495 
L 481.741534 -277.67762 
L 471.752163 -277.234356 
L 461.762793 -276.620605 
L 451.773422 -275.81932 
L 441.784052 -267.346153 
L 431.794681 -267.346153 
L 421.80531 -265.760631 
L 411.81594 -263.987573 
L 401.826569 -263.356774 
L 391.837198 -262.146322 
L 381.847828 -261.362085 
L 371.858457 -259.384445 
L 361.869087 -256.162254 
L 351.879716 -255.429163 
L 341.890345 -254.883607 
L 331.900975 -254.372149 
L 321.911604 -253.417425 
L 311.922233 -249.13822 
L 301.932863 -249.13822 
L 291.943492 -245.114745 
L 281.954122 -243.665612 
L 271.964751 -240.818491 
L 261.97538 -238.295294 
L 251.98601 -236.471091 
L 241.996639 -234.868521 
L 232.007268 -233.334144 
L 222.017898 -226.497645 
L 212.028527 -223.292504 
L 202.039156 -219.269028 
L 192.049786 -219.269028 
L 182.060415 -219.269028 
L 172.071045 -216.933366 
L 162.081674 -193.44036 
L 152.092303 -193.44036 
L 142.102933 -173.749197 
L 132.113562 -161.030922 
L 122.124191 -156.410745 
L 112.134821 -147.869383 
L 102.14545 -106.628757 
L 92.15608 -84.363252 
z
" id="me623d57b74" style="stroke:#98df8a;stroke-opacity:0.2;"/>
    </defs>
    <g clip-path="url(#pfe6acef66e)">
     <use style="fill:#98df8a;fill-opacity:0.2;stroke:#98df8a;stroke-opacity:0.2;" x="0" xlink:href="#me623d57b74" y="325.986375"/>
    </g>
   </g>
   <g id="PolyCollection_2">
    <defs>
     <path d="M 92.15608 -63.478686 
L 92.15608 -49.65225 
L 102.14545 -64.774381 
L 112.134821 -75.412724 
L 122.124191 -83.118702 
L 132.113562 -91.915793 
L 142.102933 -99.434237 
L 152.092303 -104.838652 
L 162.081674 -110.56699 
L 172.071045 -126.234677 
L 182.060415 -126.234677 
L 192.049786 -147.920529 
L 202.039156 -151.347303 
L 212.028527 -152.813485 
L 222.017898 -173.22069 
L 232.007268 -178.420521 
L 241.996639 -180.517502 
L 251.98601 -190.422753 
L 261.97538 -190.422753 
L 271.964751 -198.964115 
L 281.954122 -200.975853 
L 291.943492 -201.964673 
L 301.932863 -201.964673 
L 311.922233 -216.848123 
L 321.911604 -220.36014 
L 331.900975 -222.985628 
L 341.890345 -224.196081 
L 351.879716 -224.690491 
L 361.869087 -225.372436 
L 371.858457 -225.372436 
L 381.847828 -228.935599 
L 391.837198 -229.805079 
L 401.826569 -229.924419 
L 411.81594 -230.504072 
L 421.80531 -231.03258 
L 431.794681 -231.492893 
L 441.784052 -232.277129 
L 451.773422 -232.993172 
L 461.762793 -236.317654 
L 471.752163 -242.43811 
L 481.741534 -243.06891 
L 491.730905 -243.06891 
L 501.720275 -243.103007 
L 511.709646 -248.302838 
L 521.699017 -252.599091 
L 531.688387 -252.684335 
L 541.677758 -252.684335 
L 551.667128 -253.468571 
L 561.656499 -253.48562 
L 571.64587 -254.065273 
L 581.63524 -254.661975 
L 591.624611 -255.71899 
L 601.613982 -255.770136 
L 611.603352 -255.770136 
L 621.592723 -255.83833 
L 631.582094 -256.349789 
L 641.571464 -256.827151 
L 651.560835 -256.96354 
L 661.550205 -256.96354 
L 671.539576 -267.516639 
L 681.528947 -267.533688 
L 691.518317 -273.279075 
L 701.507688 -273.347269 
L 711.497059 -273.347269 
L 721.486429 -273.347269 
L 731.4758 -273.364318 
L 741.46517 -273.364318 
L 741.46517 -285.468842 
L 741.46517 -285.468842 
L 731.4758 -283.354812 
L 721.486429 -283.320715 
L 711.497059 -283.13318 
L 701.507688 -283.13318 
L 691.518317 -282.843354 
L 681.528947 -282.843354 
L 671.539576 -282.51943 
L 661.550205 -281.496512 
L 651.560835 -281.104394 
L 641.571464 -281.019151 
L 631.582094 -280.473595 
L 621.592723 -280.456546 
L 611.603352 -280.422449 
L 601.613982 -279.928039 
L 591.624611 -279.518872 
L 581.63524 -278.973316 
L 571.64587 -276.535362 
L 561.656499 -275.717028 
L 551.667128 -275.699979 
L 541.677758 -275.597688 
L 531.688387 -275.393104 
L 521.699017 -275.376055 
L 511.709646 -274.847548 
L 501.720275 -274.762305 
L 491.730905 -274.57477 
L 481.741534 -273.96102 
L 471.752163 -273.739387 
L 461.762793 -273.739387 
L 451.773422 -267.312055 
L 441.784052 -267.107472 
L 431.794681 -263.612504 
L 421.80531 -263.612504 
L 411.81594 -262.214516 
L 401.826569 -259.930001 
L 391.837198 -258.0717 
L 381.847828 -256.724859 
L 371.858457 -254.082322 
L 361.869087 -253.502669 
L 351.879716 -253.093502 
L 341.890345 -251.184055 
L 331.900975 -251.115861 
L 321.911604 -250.843083 
L 311.922233 -249.001831 
L 301.932863 -244.603286 
L 291.943492 -243.750855 
L 281.954122 -240.920783 
L 271.964751 -235.942584 
L 261.97538 -222.508267 
L 251.98601 -222.508267 
L 241.996639 -212.654161 
L 232.007268 -210.079819 
L 222.017898 -207.232698 
L 212.028527 -205.152766 
L 202.039156 -197.770711 
L 192.049786 -193.338068 
L 182.060415 -183.6374 
L 172.071045 -155.507168 
L 162.081674 -133.002982 
L 152.092303 -128.877214 
L 142.102933 -113.652791 
L 132.113562 -108.33362 
L 122.124191 -96.348436 
L 112.134821 -82.215125 
L 102.14545 -69.462753 
L 92.15608 -63.478686 
z
" id="m6c94a39f14" style="stroke:#1f77b4;stroke-opacity:0.2;"/>
    </defs>
    <g clip-path="url(#pfe6acef66e)">
     <use style="fill:#1f77b4;fill-opacity:0.2;stroke:#1f77b4;stroke-opacity:0.2;" x="0" xlink:href="#m6c94a39f14" y="325.986375"/>
    </g>
   </g>
   <g id="matplotlib.axis_1">
    <g id="xtick_1">
     <g id="line2d_1">
      <defs>
       <path d="M 0 0 
L 0 3.5 
" id="m5df1258512" style="stroke:#000000;stroke-width:0.8;"/>
      </defs>
      <g>
       <use style="stroke:#000000;stroke-width:0.8;" x="92.15608" xlink:href="#m5df1258512" y="288.430125"/>
      </g>
     </g>
     <g id="text_1">
      <!-- 15m -->
      <g transform="translate(80.923267 303.028562)scale(0.1 -0.1)">
       <defs>
        <path d="M 794 531 
L 1825 531 
L 1825 4091 
L 703 3866 
L 703 4441 
L 1819 4666 
L 2450 4666 
L 2450 531 
L 3481 531 
L 3481 0 
L 794 0 
L 794 531 
z
" id="DejaVuSans-31" transform="scale(0.015625)"/>
        <path d="M 691 4666 
L 3169 4666 
L 3169 4134 
L 1269 4134 
L 1269 2991 
Q 1406 3038 1543 3061 
Q 1681 3084 1819 3084 
Q 2600 3084 3056 2656 
Q 3513 2228 3513 1497 
Q 3513 744 3044 326 
Q 2575 -91 1722 -91 
Q 1428 -91 1123 -41 
Q 819 9 494 109 
L 494 744 
Q 775 591 1075 516 
Q 1375 441 1709 441 
Q 2250 441 2565 725 
Q 2881 1009 2881 1497 
Q 2881 1984 2565 2268 
Q 2250 2553 1709 2553 
Q 1456 2553 1204 2497 
Q 953 2441 691 2322 
L 691 4666 
z
" id="DejaVuSans-35" transform="scale(0.015625)"/>
        <path d="M 3328 2828 
Q 3544 3216 3844 3400 
Q 4144 3584 4550 3584 
Q 5097 3584 5394 3201 
Q 5691 2819 5691 2113 
L 5691 0 
L 5113 0 
L 5113 2094 
Q 5113 2597 4934 2840 
Q 4756 3084 4391 3084 
Q 3944 3084 3684 2787 
Q 3425 2491 3425 1978 
L 3425 0 
L 2847 0 
L 2847 2094 
Q 2847 2600 2669 2842 
Q 2491 3084 2119 3084 
Q 1678 3084 1418 2786 
Q 1159 2488 1159 1978 
L 1159 0 
L 581 0 
L 581 3500 
L 1159 3500 
L 1159 2956 
Q 1356 3278 1631 3431 
Q 1906 3584 2284 3584 
Q 2666 3584 2933 3390 
Q 3200 3197 3328 2828 
z
" id="DejaVuSans-6d" transform="scale(0.015625)"/>
       </defs>
       <use xlink:href="#DejaVuSans-31"/>
       <use x="63.623047" xlink:href="#DejaVuSans-35"/>
       <use x="127.246094" xlink:href="#DejaVuSans-6d"/>
      </g>
     </g>
    </g>
    <g id="xtick_2">
     <g id="line2d_2">
      <g>
       <use style="stroke:#000000;stroke-width:0.8;" x="147.097618" xlink:href="#m5df1258512" y="288.430125"/>
      </g>
     </g>
     <g id="text_2">
      <!-- 1h:37m -->
      <g transform="translate(127.830431 303.028562)scale(0.1 -0.1)">
       <defs>
        <path d="M 3513 2113 
L 3513 0 
L 2938 0 
L 2938 2094 
Q 2938 2591 2744 2837 
Q 2550 3084 2163 3084 
Q 1697 3084 1428 2787 
Q 1159 2491 1159 1978 
L 1159 0 
L 581 0 
L 581 4863 
L 1159 4863 
L 1159 2956 
Q 1366 3272 1645 3428 
Q 1925 3584 2291 3584 
Q 2894 3584 3203 3211 
Q 3513 2838 3513 2113 
z
" id="DejaVuSans-68" transform="scale(0.015625)"/>
        <path d="M 750 794 
L 1409 794 
L 1409 0 
L 750 0 
L 750 794 
z
M 750 3309 
L 1409 3309 
L 1409 2516 
L 750 2516 
L 750 3309 
z
" id="DejaVuSans-3a" transform="scale(0.015625)"/>
        <path d="M 2597 2516 
Q 3050 2419 3304 2112 
Q 3559 1806 3559 1356 
Q 3559 666 3084 287 
Q 2609 -91 1734 -91 
Q 1441 -91 1130 -33 
Q 819 25 488 141 
L 488 750 
Q 750 597 1062 519 
Q 1375 441 1716 441 
Q 2309 441 2620 675 
Q 2931 909 2931 1356 
Q 2931 1769 2642 2001 
Q 2353 2234 1838 2234 
L 1294 2234 
L 1294 2753 
L 1863 2753 
Q 2328 2753 2575 2939 
Q 2822 3125 2822 3475 
Q 2822 3834 2567 4026 
Q 2313 4219 1838 4219 
Q 1578 4219 1281 4162 
Q 984 4106 628 3988 
L 628 4550 
Q 988 4650 1302 4700 
Q 1616 4750 1894 4750 
Q 2613 4750 3031 4423 
Q 3450 4097 3450 3541 
Q 3450 3153 3228 2886 
Q 3006 2619 2597 2516 
z
" id="DejaVuSans-33" transform="scale(0.015625)"/>
        <path d="M 525 4666 
L 3525 4666 
L 3525 4397 
L 1831 0 
L 1172 0 
L 2766 4134 
L 525 4134 
L 525 4666 
z
" id="DejaVuSans-37" transform="scale(0.015625)"/>
       </defs>
       <use xlink:href="#DejaVuSans-31"/>
       <use x="63.623047" xlink:href="#DejaVuSans-68"/>
       <use x="127.001953" xlink:href="#DejaVuSans-3a"/>
       <use x="160.693359" xlink:href="#DejaVuSans-33"/>
       <use x="224.316406" xlink:href="#DejaVuSans-37"/>
       <use x="287.939453" xlink:href="#DejaVuSans-6d"/>
      </g>
     </g>
    </g>
    <g id="xtick_3">
     <g id="line2d_3">
      <g>
       <use style="stroke:#000000;stroke-width:0.8;" x="202.039156" xlink:href="#m5df1258512" y="288.430125"/>
      </g>
     </g>
     <g id="text_3">
      <!-- 3h -->
      <g transform="translate(195.689156 303.028562)scale(0.1 -0.1)">
       <use xlink:href="#DejaVuSans-33"/>
       <use x="63.623047" xlink:href="#DejaVuSans-68"/>
      </g>
     </g>
    </g>
    <g id="xtick_4">
     <g id="line2d_4">
      <g>
       <use style="stroke:#000000;stroke-width:0.8;" x="256.980695" xlink:href="#m5df1258512" y="288.430125"/>
      </g>
     </g>
     <g id="text_4">
      <!-- 4h:22m -->
      <g transform="translate(237.713507 303.028562)scale(0.1 -0.1)">
       <defs>
        <path d="M 2419 4116 
L 825 1625 
L 2419 1625 
L 2419 4116 
z
M 2253 4666 
L 3047 4666 
L 3047 1625 
L 3713 1625 
L 3713 1100 
L 3047 1100 
L 3047 0 
L 2419 0 
L 2419 1100 
L 313 1100 
L 313 1709 
L 2253 4666 
z
" id="DejaVuSans-34" transform="scale(0.015625)"/>
        <path d="M 1228 531 
L 3431 531 
L 3431 0 
L 469 0 
L 469 531 
Q 828 903 1448 1529 
Q 2069 2156 2228 2338 
Q 2531 2678 2651 2914 
Q 2772 3150 2772 3378 
Q 2772 3750 2511 3984 
Q 2250 4219 1831 4219 
Q 1534 4219 1204 4116 
Q 875 4013 500 3803 
L 500 4441 
Q 881 4594 1212 4672 
Q 1544 4750 1819 4750 
Q 2544 4750 2975 4387 
Q 3406 4025 3406 3419 
Q 3406 3131 3298 2873 
Q 3191 2616 2906 2266 
Q 2828 2175 2409 1742 
Q 1991 1309 1228 531 
z
" id="DejaVuSans-32" transform="scale(0.015625)"/>
       </defs>
       <use xlink:href="#DejaVuSans-34"/>
       <use x="63.623047" xlink:href="#DejaVuSans-68"/>
       <use x="127.001953" xlink:href="#DejaVuSans-3a"/>
       <use x="160.693359" xlink:href="#DejaVuSans-32"/>
       <use x="224.316406" xlink:href="#DejaVuSans-32"/>
       <use x="287.939453" xlink:href="#DejaVuSans-6d"/>
      </g>
     </g>
    </g>
    <g id="xtick_5">
     <g id="line2d_5">
      <g>
       <use style="stroke:#000000;stroke-width:0.8;" x="311.922233" xlink:href="#m5df1258512" y="288.430125"/>
      </g>
     </g>
     <g id="text_5">
      <!-- 5h:45m -->
      <g transform="translate(292.655046 303.028562)scale(0.1 -0.1)">
       <use xlink:href="#DejaVuSans-35"/>
       <use x="63.623047" xlink:href="#DejaVuSans-68"/>
       <use x="127.001953" xlink:href="#DejaVuSans-3a"/>
       <use x="160.693359" xlink:href="#DejaVuSans-34"/>
       <use x="224.316406" xlink:href="#DejaVuSans-35"/>
       <use x="287.939453" xlink:href="#DejaVuSans-6d"/>
      </g>
     </g>
    </g>
    <g id="xtick_6">
     <g id="line2d_6">
      <g>
       <use style="stroke:#000000;stroke-width:0.8;" x="366.863772" xlink:href="#m5df1258512" y="288.430125"/>
      </g>
     </g>
     <g id="text_6">
      <!-- 7h:7m -->
      <g transform="translate(350.777834 303.028562)scale(0.1 -0.1)">
       <use xlink:href="#DejaVuSans-37"/>
       <use x="63.623047" xlink:href="#DejaVuSans-68"/>
       <use x="127.001953" xlink:href="#DejaVuSans-3a"/>
       <use x="160.693359" xlink:href="#DejaVuSans-37"/>
       <use x="224.316406" xlink:href="#DejaVuSans-6d"/>
      </g>
     </g>
    </g>
    <g id="xtick_7">
     <g id="line2d_7">
      <g>
       <use style="stroke:#000000;stroke-width:0.8;" x="421.80531" xlink:href="#m5df1258512" y="288.430125"/>
      </g>
     </g>
     <g id="text_7">
      <!-- 8h:30m -->
      <g transform="translate(402.538123 303.028562)scale(0.1 -0.1)">
       <defs>
        <path d="M 2034 2216 
Q 1584 2216 1326 1975 
Q 1069 1734 1069 1313 
Q 1069 891 1326 650 
Q 1584 409 2034 409 
Q 2484 409 2743 651 
Q 3003 894 3003 1313 
Q 3003 1734 2745 1975 
Q 2488 2216 2034 2216 
z
M 1403 2484 
Q 997 2584 770 2862 
Q 544 3141 544 3541 
Q 544 4100 942 4425 
Q 1341 4750 2034 4750 
Q 2731 4750 3128 4425 
Q 3525 4100 3525 3541 
Q 3525 3141 3298 2862 
Q 3072 2584 2669 2484 
Q 3125 2378 3379 2068 
Q 3634 1759 3634 1313 
Q 3634 634 3220 271 
Q 2806 -91 2034 -91 
Q 1263 -91 848 271 
Q 434 634 434 1313 
Q 434 1759 690 2068 
Q 947 2378 1403 2484 
z
M 1172 3481 
Q 1172 3119 1398 2916 
Q 1625 2713 2034 2713 
Q 2441 2713 2670 2916 
Q 2900 3119 2900 3481 
Q 2900 3844 2670 4047 
Q 2441 4250 2034 4250 
Q 1625 4250 1398 4047 
Q 1172 3844 1172 3481 
z
" id="DejaVuSans-38" transform="scale(0.015625)"/>
        <path d="M 2034 4250 
Q 1547 4250 1301 3770 
Q 1056 3291 1056 2328 
Q 1056 1369 1301 889 
Q 1547 409 2034 409 
Q 2525 409 2770 889 
Q 3016 1369 3016 2328 
Q 3016 3291 2770 3770 
Q 2525 4250 2034 4250 
z
M 2034 4750 
Q 2819 4750 3233 4129 
Q 3647 3509 3647 2328 
Q 3647 1150 3233 529 
Q 2819 -91 2034 -91 
Q 1250 -91 836 529 
Q 422 1150 422 2328 
Q 422 3509 836 4129 
Q 1250 4750 2034 4750 
z
" id="DejaVuSans-30" transform="scale(0.015625)"/>
       </defs>
       <use xlink:href="#DejaVuSans-38"/>
       <use x="63.623047" xlink:href="#DejaVuSans-68"/>
       <use x="127.001953" xlink:href="#DejaVuSans-3a"/>
       <use x="160.693359" xlink:href="#DejaVuSans-33"/>
       <use x="224.316406" xlink:href="#DejaVuSans-30"/>
       <use x="287.939453" xlink:href="#DejaVuSans-6d"/>
      </g>
     </g>
    </g>
    <g id="xtick_8">
     <g id="line2d_8">
      <g>
       <use style="stroke:#000000;stroke-width:0.8;" x="476.746849" xlink:href="#m5df1258512" y="288.430125"/>
      </g>
     </g>
     <g id="text_8">
      <!-- 9h:52m -->
      <g transform="translate(457.479661 303.028562)scale(0.1 -0.1)">
       <defs>
        <path d="M 703 97 
L 703 672 
Q 941 559 1184 500 
Q 1428 441 1663 441 
Q 2288 441 2617 861 
Q 2947 1281 2994 2138 
Q 2813 1869 2534 1725 
Q 2256 1581 1919 1581 
Q 1219 1581 811 2004 
Q 403 2428 403 3163 
Q 403 3881 828 4315 
Q 1253 4750 1959 4750 
Q 2769 4750 3195 4129 
Q 3622 3509 3622 2328 
Q 3622 1225 3098 567 
Q 2575 -91 1691 -91 
Q 1453 -91 1209 -44 
Q 966 3 703 97 
z
M 1959 2075 
Q 2384 2075 2632 2365 
Q 2881 2656 2881 3163 
Q 2881 3666 2632 3958 
Q 2384 4250 1959 4250 
Q 1534 4250 1286 3958 
Q 1038 3666 1038 3163 
Q 1038 2656 1286 2365 
Q 1534 2075 1959 2075 
z
" id="DejaVuSans-39" transform="scale(0.015625)"/>
       </defs>
       <use xlink:href="#DejaVuSans-39"/>
       <use x="63.623047" xlink:href="#DejaVuSans-68"/>
       <use x="127.001953" xlink:href="#DejaVuSans-3a"/>
       <use x="160.693359" xlink:href="#DejaVuSans-35"/>
       <use x="224.316406" xlink:href="#DejaVuSans-32"/>
       <use x="287.939453" xlink:href="#DejaVuSans-6d"/>
      </g>
     </g>
    </g>
    <g id="xtick_9">
     <g id="line2d_9">
      <g>
       <use style="stroke:#000000;stroke-width:0.8;" x="531.688387" xlink:href="#m5df1258512" y="288.430125"/>
      </g>
     </g>
     <g id="text_9">
      <!-- 11h:15m -->
      <g transform="translate(509.23995 303.028562)scale(0.1 -0.1)">
       <use xlink:href="#DejaVuSans-31"/>
       <use x="63.623047" xlink:href="#DejaVuSans-31"/>
       <use x="127.246094" xlink:href="#DejaVuSans-68"/>
       <use x="190.625" xlink:href="#DejaVuSans-3a"/>
       <use x="224.316406" xlink:href="#DejaVuSans-31"/>
       <use x="287.939453" xlink:href="#DejaVuSans-35"/>
       <use x="351.5625" xlink:href="#DejaVuSans-6d"/>
      </g>
     </g>
    </g>
    <g id="xtick_10">
     <g id="line2d_10">
      <g>
       <use style="stroke:#000000;stroke-width:0.8;" x="586.629926" xlink:href="#m5df1258512" y="288.430125"/>
      </g>
     </g>
     <g id="text_10">
      <!-- 12h:37m -->
      <g transform="translate(564.181488 303.028562)scale(0.1 -0.1)">
       <use xlink:href="#DejaVuSans-31"/>
       <use x="63.623047" xlink:href="#DejaVuSans-32"/>
       <use x="127.246094" xlink:href="#DejaVuSans-68"/>
       <use x="190.625" xlink:href="#DejaVuSans-3a"/>
       <use x="224.316406" xlink:href="#DejaVuSans-33"/>
       <use x="287.939453" xlink:href="#DejaVuSans-37"/>
       <use x="351.5625" xlink:href="#DejaVuSans-6d"/>
      </g>
     </g>
    </g>
    <g id="xtick_11">
     <g id="line2d_11">
      <g>
       <use style="stroke:#000000;stroke-width:0.8;" x="641.571464" xlink:href="#m5df1258512" y="288.430125"/>
      </g>
     </g>
     <g id="text_11">
      <!-- 14h -->
      <g transform="translate(632.040214 303.028562)scale(0.1 -0.1)">
       <use xlink:href="#DejaVuSans-31"/>
       <use x="63.623047" xlink:href="#DejaVuSans-34"/>
       <use x="127.246094" xlink:href="#DejaVuSans-68"/>
      </g>
     </g>
    </g>
    <g id="xtick_12">
     <g id="line2d_12">
      <g>
       <use style="stroke:#000000;stroke-width:0.8;" x="696.513003" xlink:href="#m5df1258512" y="288.430125"/>
      </g>
     </g>
     <g id="text_12">
      <!-- 15h:22m -->
      <g transform="translate(674.064565 303.028562)scale(0.1 -0.1)">
       <use xlink:href="#DejaVuSans-31"/>
       <use x="63.623047" xlink:href="#DejaVuSans-35"/>
       <use x="127.246094" xlink:href="#DejaVuSans-68"/>
       <use x="190.625" xlink:href="#DejaVuSans-3a"/>
       <use x="224.316406" xlink:href="#DejaVuSans-32"/>
       <use x="287.939453" xlink:href="#DejaVuSans-32"/>
       <use x="351.5625" xlink:href="#DejaVuSans-6d"/>
      </g>
     </g>
    </g>
    <g id="text_13">
     <!-- Time (hour:minute) -->
     <g transform="translate(368.403594 316.706687)scale(0.1 -0.1)">
      <defs>
       <path d="M -19 4666 
L 3928 4666 
L 3928 4134 
L 2272 4134 
L 2272 0 
L 1638 0 
L 1638 4134 
L -19 4134 
L -19 4666 
z
" id="DejaVuSans-54" transform="scale(0.015625)"/>
       <path d="M 603 3500 
L 1178 3500 
L 1178 0 
L 603 0 
L 603 3500 
z
M 603 4863 
L 1178 4863 
L 1178 4134 
L 603 4134 
L 603 4863 
z
" id="DejaVuSans-69" transform="scale(0.015625)"/>
       <path d="M 3597 1894 
L 3597 1613 
L 953 1613 
Q 991 1019 1311 708 
Q 1631 397 2203 397 
Q 2534 397 2845 478 
Q 3156 559 3463 722 
L 3463 178 
Q 3153 47 2828 -22 
Q 2503 -91 2169 -91 
Q 1331 -91 842 396 
Q 353 884 353 1716 
Q 353 2575 817 3079 
Q 1281 3584 2069 3584 
Q 2775 3584 3186 3129 
Q 3597 2675 3597 1894 
z
M 3022 2063 
Q 3016 2534 2758 2815 
Q 2500 3097 2075 3097 
Q 1594 3097 1305 2825 
Q 1016 2553 972 2059 
L 3022 2063 
z
" id="DejaVuSans-65" transform="scale(0.015625)"/>
       <path id="DejaVuSans-20" transform="scale(0.015625)"/>
       <path d="M 1984 4856 
Q 1566 4138 1362 3434 
Q 1159 2731 1159 2009 
Q 1159 1288 1364 580 
Q 1569 -128 1984 -844 
L 1484 -844 
Q 1016 -109 783 600 
Q 550 1309 550 2009 
Q 550 2706 781 3412 
Q 1013 4119 1484 4856 
L 1984 4856 
z
" id="DejaVuSans-28" transform="scale(0.015625)"/>
       <path d="M 1959 3097 
Q 1497 3097 1228 2736 
Q 959 2375 959 1747 
Q 959 1119 1226 758 
Q 1494 397 1959 397 
Q 2419 397 2687 759 
Q 2956 1122 2956 1747 
Q 2956 2369 2687 2733 
Q 2419 3097 1959 3097 
z
M 1959 3584 
Q 2709 3584 3137 3096 
Q 3566 2609 3566 1747 
Q 3566 888 3137 398 
Q 2709 -91 1959 -91 
Q 1206 -91 779 398 
Q 353 888 353 1747 
Q 353 2609 779 3096 
Q 1206 3584 1959 3584 
z
" id="DejaVuSans-6f" transform="scale(0.015625)"/>
       <path d="M 544 1381 
L 544 3500 
L 1119 3500 
L 1119 1403 
Q 1119 906 1312 657 
Q 1506 409 1894 409 
Q 2359 409 2629 706 
Q 2900 1003 2900 1516 
L 2900 3500 
L 3475 3500 
L 3475 0 
L 2900 0 
L 2900 538 
Q 2691 219 2414 64 
Q 2138 -91 1772 -91 
Q 1169 -91 856 284 
Q 544 659 544 1381 
z
M 1991 3584 
L 1991 3584 
z
" id="DejaVuSans-75" transform="scale(0.015625)"/>
       <path d="M 2631 2963 
Q 2534 3019 2420 3045 
Q 2306 3072 2169 3072 
Q 1681 3072 1420 2755 
Q 1159 2438 1159 1844 
L 1159 0 
L 581 0 
L 581 3500 
L 1159 3500 
L 1159 2956 
Q 1341 3275 1631 3429 
Q 1922 3584 2338 3584 
Q 2397 3584 2469 3576 
Q 2541 3569 2628 3553 
L 2631 2963 
z
" id="DejaVuSans-72" transform="scale(0.015625)"/>
       <path d="M 3513 2113 
L 3513 0 
L 2938 0 
L 2938 2094 
Q 2938 2591 2744 2837 
Q 2550 3084 2163 3084 
Q 1697 3084 1428 2787 
Q 1159 2491 1159 1978 
L 1159 0 
L 581 0 
L 581 3500 
L 1159 3500 
L 1159 2956 
Q 1366 3272 1645 3428 
Q 1925 3584 2291 3584 
Q 2894 3584 3203 3211 
Q 3513 2838 3513 2113 
z
" id="DejaVuSans-6e" transform="scale(0.015625)"/>
       <path d="M 1172 4494 
L 1172 3500 
L 2356 3500 
L 2356 3053 
L 1172 3053 
L 1172 1153 
Q 1172 725 1289 603 
Q 1406 481 1766 481 
L 2356 481 
L 2356 0 
L 1766 0 
Q 1100 0 847 248 
Q 594 497 594 1153 
L 594 3053 
L 172 3053 
L 172 3500 
L 594 3500 
L 594 4494 
L 1172 4494 
z
" id="DejaVuSans-74" transform="scale(0.015625)"/>
       <path d="M 513 4856 
L 1013 4856 
Q 1481 4119 1714 3412 
Q 1947 2706 1947 2009 
Q 1947 1309 1714 600 
Q 1481 -109 1013 -844 
L 513 -844 
Q 928 -128 1133 580 
Q 1338 1288 1338 2009 
Q 1338 2731 1133 3434 
Q 928 4138 513 4856 
z
" id="DejaVuSans-29" transform="scale(0.015625)"/>
      </defs>
      <use xlink:href="#DejaVuSans-54"/>
      <use x="57.958984" xlink:href="#DejaVuSans-69"/>
      <use x="85.742188" xlink:href="#DejaVuSans-6d"/>
      <use x="183.154297" xlink:href="#DejaVuSans-65"/>
      <use x="244.677734" xlink:href="#DejaVuSans-20"/>
      <use x="276.464844" xlink:href="#DejaVuSans-28"/>
      <use x="315.478516" xlink:href="#DejaVuSans-68"/>
      <use x="378.857422" xlink:href="#DejaVuSans-6f"/>
      <use x="440.039062" xlink:href="#DejaVuSans-75"/>
      <use x="503.417969" xlink:href="#DejaVuSans-72"/>
      <use x="542.78125" xlink:href="#DejaVuSans-3a"/>
      <use x="576.472656" xlink:href="#DejaVuSans-6d"/>
      <use x="673.884766" xlink:href="#DejaVuSans-69"/>
      <use x="701.667969" xlink:href="#DejaVuSans-6e"/>
      <use x="765.046875" xlink:href="#DejaVuSans-75"/>
      <use x="828.425781" xlink:href="#DejaVuSans-74"/>
      <use x="867.634766" xlink:href="#DejaVuSans-65"/>
      <use x="929.158203" xlink:href="#DejaVuSans-29"/>
     </g>
    </g>
   </g>
   <g id="matplotlib.axis_2">
    <g id="ytick_1">
     <g id="line2d_13">
      <defs>
       <path d="M 0 0 
L -3.5 0 
" id="m42b75eb44a" style="stroke:#000000;stroke-width:0.8;"/>
      </defs>
      <g>
       <use style="stroke:#000000;stroke-width:0.8;" x="59.690625" xlink:href="#m42b75eb44a" y="287.654413"/>
      </g>
     </g>
     <g id="text_14">
      <!-- 20000 -->
      <g transform="translate(20.878125 291.453631)scale(0.1 -0.1)">
       <use xlink:href="#DejaVuSans-32"/>
       <use x="63.623047" xlink:href="#DejaVuSans-30"/>
       <use x="127.246094" xlink:href="#DejaVuSans-30"/>
       <use x="190.869141" xlink:href="#DejaVuSans-30"/>
       <use x="254.492188" xlink:href="#DejaVuSans-30"/>
      </g>
     </g>
    </g>
    <g id="ytick_2">
     <g id="line2d_14">
      <g>
       <use style="stroke:#000000;stroke-width:0.8;" x="59.690625" xlink:href="#m42b75eb44a" y="253.557161"/>
      </g>
     </g>
     <g id="text_15">
      <!-- 22000 -->
      <g transform="translate(20.878125 257.35638)scale(0.1 -0.1)">
       <use xlink:href="#DejaVuSans-32"/>
       <use x="63.623047" xlink:href="#DejaVuSans-32"/>
       <use x="127.246094" xlink:href="#DejaVuSans-30"/>
       <use x="190.869141" xlink:href="#DejaVuSans-30"/>
       <use x="254.492188" xlink:href="#DejaVuSans-30"/>
      </g>
     </g>
    </g>
    <g id="ytick_3">
     <g id="line2d_15">
      <g>
       <use style="stroke:#000000;stroke-width:0.8;" x="59.690625" xlink:href="#m42b75eb44a" y="219.459909"/>
      </g>
     </g>
     <g id="text_16">
      <!-- 24000 -->
      <g transform="translate(20.878125 223.259128)scale(0.1 -0.1)">
       <use xlink:href="#DejaVuSans-32"/>
       <use x="63.623047" xlink:href="#DejaVuSans-34"/>
       <use x="127.246094" xlink:href="#DejaVuSans-30"/>
       <use x="190.869141" xlink:href="#DejaVuSans-30"/>
       <use x="254.492188" xlink:href="#DejaVuSans-30"/>
      </g>
     </g>
    </g>
    <g id="ytick_4">
     <g id="line2d_16">
      <g>
       <use style="stroke:#000000;stroke-width:0.8;" x="59.690625" xlink:href="#m42b75eb44a" y="185.362658"/>
      </g>
     </g>
     <g id="text_17">
      <!-- 26000 -->
      <g transform="translate(20.878125 189.161877)scale(0.1 -0.1)">
       <defs>
        <path d="M 2113 2584 
Q 1688 2584 1439 2293 
Q 1191 2003 1191 1497 
Q 1191 994 1439 701 
Q 1688 409 2113 409 
Q 2538 409 2786 701 
Q 3034 994 3034 1497 
Q 3034 2003 2786 2293 
Q 2538 2584 2113 2584 
z
M 3366 4563 
L 3366 3988 
Q 3128 4100 2886 4159 
Q 2644 4219 2406 4219 
Q 1781 4219 1451 3797 
Q 1122 3375 1075 2522 
Q 1259 2794 1537 2939 
Q 1816 3084 2150 3084 
Q 2853 3084 3261 2657 
Q 3669 2231 3669 1497 
Q 3669 778 3244 343 
Q 2819 -91 2113 -91 
Q 1303 -91 875 529 
Q 447 1150 447 2328 
Q 447 3434 972 4092 
Q 1497 4750 2381 4750 
Q 2619 4750 2861 4703 
Q 3103 4656 3366 4563 
z
" id="DejaVuSans-36" transform="scale(0.015625)"/>
       </defs>
       <use xlink:href="#DejaVuSans-32"/>
       <use x="63.623047" xlink:href="#DejaVuSans-36"/>
       <use x="127.246094" xlink:href="#DejaVuSans-30"/>
       <use x="190.869141" xlink:href="#DejaVuSans-30"/>
       <use x="254.492188" xlink:href="#DejaVuSans-30"/>
      </g>
     </g>
    </g>
    <g id="ytick_5">
     <g id="line2d_17">
      <g>
       <use style="stroke:#000000;stroke-width:0.8;" x="59.690625" xlink:href="#m42b75eb44a" y="151.265406"/>
      </g>
     </g>
     <g id="text_18">
      <!-- 28000 -->
      <g transform="translate(20.878125 155.064625)scale(0.1 -0.1)">
       <use xlink:href="#DejaVuSans-32"/>
       <use x="63.623047" xlink:href="#DejaVuSans-38"/>
       <use x="127.246094" xlink:href="#DejaVuSans-30"/>
       <use x="190.869141" xlink:href="#DejaVuSans-30"/>
       <use x="254.492188" xlink:href="#DejaVuSans-30"/>
      </g>
     </g>
    </g>
    <g id="ytick_6">
     <g id="line2d_18">
      <g>
       <use style="stroke:#000000;stroke-width:0.8;" x="59.690625" xlink:href="#m42b75eb44a" y="117.168155"/>
      </g>
     </g>
     <g id="text_19">
      <!-- 30000 -->
      <g transform="translate(20.878125 120.967373)scale(0.1 -0.1)">
       <use xlink:href="#DejaVuSans-33"/>
       <use x="63.623047" xlink:href="#DejaVuSans-30"/>
       <use x="127.246094" xlink:href="#DejaVuSans-30"/>
       <use x="190.869141" xlink:href="#DejaVuSans-30"/>
       <use x="254.492188" xlink:href="#DejaVuSans-30"/>
      </g>
     </g>
    </g>
    <g id="ytick_7">
     <g id="line2d_19">
      <g>
       <use style="stroke:#000000;stroke-width:0.8;" x="59.690625" xlink:href="#m42b75eb44a" y="83.070903"/>
      </g>
     </g>
     <g id="text_20">
      <!-- 32000 -->
      <g transform="translate(20.878125 86.870122)scale(0.1 -0.1)">
       <use xlink:href="#DejaVuSans-33"/>
       <use x="63.623047" xlink:href="#DejaVuSans-32"/>
       <use x="127.246094" xlink:href="#DejaVuSans-30"/>
       <use x="190.869141" xlink:href="#DejaVuSans-30"/>
       <use x="254.492188" xlink:href="#DejaVuSans-30"/>
      </g>
     </g>
    </g>
    <g id="ytick_8">
     <g id="line2d_20">
      <g>
       <use style="stroke:#000000;stroke-width:0.8;" x="59.690625" xlink:href="#m42b75eb44a" y="48.973651"/>
      </g>
     </g>
     <g id="text_21">
      <!-- 34000 -->
      <g transform="translate(20.878125 52.77287)scale(0.1 -0.1)">
       <use xlink:href="#DejaVuSans-33"/>
       <use x="63.623047" xlink:href="#DejaVuSans-34"/>
       <use x="127.246094" xlink:href="#DejaVuSans-30"/>
       <use x="190.869141" xlink:href="#DejaVuSans-30"/>
       <use x="254.492188" xlink:href="#DejaVuSans-30"/>
      </g>
     </g>
    </g>
    <g id="text_22">
     <!-- Code region coverage -->
     <g transform="translate(14.798438 210.379594)rotate(-90)scale(0.1 -0.1)">
      <defs>
       <path d="M 4122 4306 
L 4122 3641 
Q 3803 3938 3442 4084 
Q 3081 4231 2675 4231 
Q 1875 4231 1450 3742 
Q 1025 3253 1025 2328 
Q 1025 1406 1450 917 
Q 1875 428 2675 428 
Q 3081 428 3442 575 
Q 3803 722 4122 1019 
L 4122 359 
Q 3791 134 3420 21 
Q 3050 -91 2638 -91 
Q 1578 -91 968 557 
Q 359 1206 359 2328 
Q 359 3453 968 4101 
Q 1578 4750 2638 4750 
Q 3056 4750 3426 4639 
Q 3797 4528 4122 4306 
z
" id="DejaVuSans-43" transform="scale(0.015625)"/>
       <path d="M 2906 2969 
L 2906 4863 
L 3481 4863 
L 3481 0 
L 2906 0 
L 2906 525 
Q 2725 213 2448 61 
Q 2172 -91 1784 -91 
Q 1150 -91 751 415 
Q 353 922 353 1747 
Q 353 2572 751 3078 
Q 1150 3584 1784 3584 
Q 2172 3584 2448 3432 
Q 2725 3281 2906 2969 
z
M 947 1747 
Q 947 1113 1208 752 
Q 1469 391 1925 391 
Q 2381 391 2643 752 
Q 2906 1113 2906 1747 
Q 2906 2381 2643 2742 
Q 2381 3103 1925 3103 
Q 1469 3103 1208 2742 
Q 947 2381 947 1747 
z
" id="DejaVuSans-64" transform="scale(0.015625)"/>
       <path d="M 2906 1791 
Q 2906 2416 2648 2759 
Q 2391 3103 1925 3103 
Q 1463 3103 1205 2759 
Q 947 2416 947 1791 
Q 947 1169 1205 825 
Q 1463 481 1925 481 
Q 2391 481 2648 825 
Q 2906 1169 2906 1791 
z
M 3481 434 
Q 3481 -459 3084 -895 
Q 2688 -1331 1869 -1331 
Q 1566 -1331 1297 -1286 
Q 1028 -1241 775 -1147 
L 775 -588 
Q 1028 -725 1275 -790 
Q 1522 -856 1778 -856 
Q 2344 -856 2625 -561 
Q 2906 -266 2906 331 
L 2906 616 
Q 2728 306 2450 153 
Q 2172 0 1784 0 
Q 1141 0 747 490 
Q 353 981 353 1791 
Q 353 2603 747 3093 
Q 1141 3584 1784 3584 
Q 2172 3584 2450 3431 
Q 2728 3278 2906 2969 
L 2906 3500 
L 3481 3500 
L 3481 434 
z
" id="DejaVuSans-67" transform="scale(0.015625)"/>
       <path d="M 3122 3366 
L 3122 2828 
Q 2878 2963 2633 3030 
Q 2388 3097 2138 3097 
Q 1578 3097 1268 2742 
Q 959 2388 959 1747 
Q 959 1106 1268 751 
Q 1578 397 2138 397 
Q 2388 397 2633 464 
Q 2878 531 3122 666 
L 3122 134 
Q 2881 22 2623 -34 
Q 2366 -91 2075 -91 
Q 1284 -91 818 406 
Q 353 903 353 1747 
Q 353 2603 823 3093 
Q 1294 3584 2113 3584 
Q 2378 3584 2631 3529 
Q 2884 3475 3122 3366 
z
" id="DejaVuSans-63" transform="scale(0.015625)"/>
       <path d="M 191 3500 
L 800 3500 
L 1894 563 
L 2988 3500 
L 3597 3500 
L 2284 0 
L 1503 0 
L 191 3500 
z
" id="DejaVuSans-76" transform="scale(0.015625)"/>
       <path d="M 2194 1759 
Q 1497 1759 1228 1600 
Q 959 1441 959 1056 
Q 959 750 1161 570 
Q 1363 391 1709 391 
Q 2188 391 2477 730 
Q 2766 1069 2766 1631 
L 2766 1759 
L 2194 1759 
z
M 3341 1997 
L 3341 0 
L 2766 0 
L 2766 531 
Q 2569 213 2275 61 
Q 1981 -91 1556 -91 
Q 1019 -91 701 211 
Q 384 513 384 1019 
Q 384 1609 779 1909 
Q 1175 2209 1959 2209 
L 2766 2209 
L 2766 2266 
Q 2766 2663 2505 2880 
Q 2244 3097 1772 3097 
Q 1472 3097 1187 3025 
Q 903 2953 641 2809 
L 641 3341 
Q 956 3463 1253 3523 
Q 1550 3584 1831 3584 
Q 2591 3584 2966 3190 
Q 3341 2797 3341 1997 
z
" id="DejaVuSans-61" transform="scale(0.015625)"/>
      </defs>
      <use xlink:href="#DejaVuSans-43"/>
      <use x="69.824219" xlink:href="#DejaVuSans-6f"/>
      <use x="131.005859" xlink:href="#DejaVuSans-64"/>
      <use x="194.482422" xlink:href="#DejaVuSans-65"/>
      <use x="256.005859" xlink:href="#DejaVuSans-20"/>
      <use x="287.792969" xlink:href="#DejaVuSans-72"/>
      <use x="326.65625" xlink:href="#DejaVuSans-65"/>
      <use x="388.179688" xlink:href="#DejaVuSans-67"/>
      <use x="451.65625" xlink:href="#DejaVuSans-69"/>
      <use x="479.439453" xlink:href="#DejaVuSans-6f"/>
      <use x="540.621094" xlink:href="#DejaVuSans-6e"/>
      <use x="604" xlink:href="#DejaVuSans-20"/>
      <use x="635.787109" xlink:href="#DejaVuSans-63"/>
      <use x="690.767578" xlink:href="#DejaVuSans-6f"/>
      <use x="751.949219" xlink:href="#DejaVuSans-76"/>
      <use x="811.128906" xlink:href="#DejaVuSans-65"/>
      <use x="872.652344" xlink:href="#DejaVuSans-72"/>
      <use x="913.765625" xlink:href="#DejaVuSans-61"/>
      <use x="975.044922" xlink:href="#DejaVuSans-67"/>
      <use x="1038.521484" xlink:href="#DejaVuSans-65"/>
     </g>
    </g>
   </g>
   <g id="line2d_21">
    <path clip-path="url(#pfe6acef66e)" d="M 92.15608 258.705846 
L 102.14545 241.623123 
L 112.134821 219.357618 
L 122.124191 191.278531 
L 132.113562 178.219284 
L 142.102933 171.621465 
L 152.092303 158.562218 
L 162.081674 150.958531 
L 172.071045 131.710632 
L 182.060415 129.784138 
L 192.049786 123.80007 
L 202.039156 119.026455 
L 212.028527 108.763182 
L 222.017898 108.763182 
L 232.007268 103.69974 
L 241.996639 99.454632 
L 251.98601 95.311816 
L 261.97538 93.248933 
L 271.964751 90.043791 
L 281.954122 87.060281 
L 291.943492 85.150835 
L 301.932863 84.84396 
L 311.922233 82.388958 
L 321.911604 77.990413 
L 331.900975 75.620654 
L 341.890345 74.836417 
L 351.879716 74.342007 
L 361.869087 73.336138 
L 371.858457 71.034573 
L 381.847828 71.034573 
L 391.837198 68.119258 
L 401.826569 67.23273 
L 411.81594 66.891757 
L 421.80531 66.295055 
L 431.794681 65.800645 
L 441.784052 63.37974 
L 451.773422 62.902379 
L 461.762793 60.856544 
L 471.752163 60.191647 
L 481.741534 57.855985 
L 491.730905 57.395673 
L 501.720275 55.605567 
L 511.709646 54.906573 
L 521.699017 54.32692 
L 531.688387 53.95185 
L 541.677758 53.167613 
L 551.667128 53.167613 
L 561.656499 50.303444 
L 571.64587 50.252298 
L 581.63524 48.12122 
L 591.624611 47.183546 
L 601.613982 46.944865 
L 611.603352 46.774379 
L 621.592723 46.007191 
L 631.582094 46.007191 
L 641.571464 45.666218 
L 651.560835 45.580975 
L 661.550205 45.563926 
L 671.539576 45.001322 
L 681.528947 44.6433 
L 691.518317 44.200036 
L 701.507688 44.131842 
L 711.497059 43.705626 
L 721.486429 42.682709 
L 731.4758 42.205347 
L 741.46517 41.932569 
" style="fill:none;stroke:#98df8a;stroke-linecap:square;stroke-width:1.5;"/>
    <defs>
     <path d="M -0 3 
L 3 -3 
L -3 -3 
z
" id="m6c4ccc1d3c" style="stroke:#ffffff;stroke-linejoin:miter;stroke-width:0.75;"/>
    </defs>
    <g clip-path="url(#pfe6acef66e)">
     <use style="fill:#98df8a;stroke:#ffffff;stroke-linejoin:miter;stroke-width:0.75;" x="92.15608" xlink:href="#m6c4ccc1d3c" y="258.705846"/>
     <use style="fill:#98df8a;stroke:#ffffff;stroke-linejoin:miter;stroke-width:0.75;" x="102.14545" xlink:href="#m6c4ccc1d3c" y="241.623123"/>
     <use style="fill:#98df8a;stroke:#ffffff;stroke-linejoin:miter;stroke-width:0.75;" x="112.134821" xlink:href="#m6c4ccc1d3c" y="219.357618"/>
     <use style="fill:#98df8a;stroke:#ffffff;stroke-linejoin:miter;stroke-width:0.75;" x="122.124191" xlink:href="#m6c4ccc1d3c" y="191.278531"/>
     <use style="fill:#98df8a;stroke:#ffffff;stroke-linejoin:miter;stroke-width:0.75;" x="132.113562" xlink:href="#m6c4ccc1d3c" y="178.219284"/>
     <use style="fill:#98df8a;stroke:#ffffff;stroke-linejoin:miter;stroke-width:0.75;" x="142.102933" xlink:href="#m6c4ccc1d3c" y="171.621465"/>
     <use style="fill:#98df8a;stroke:#ffffff;stroke-linejoin:miter;stroke-width:0.75;" x="152.092303" xlink:href="#m6c4ccc1d3c" y="158.562218"/>
     <use style="fill:#98df8a;stroke:#ffffff;stroke-linejoin:miter;stroke-width:0.75;" x="162.081674" xlink:href="#m6c4ccc1d3c" y="150.958531"/>
     <use style="fill:#98df8a;stroke:#ffffff;stroke-linejoin:miter;stroke-width:0.75;" x="172.071045" xlink:href="#m6c4ccc1d3c" y="131.710632"/>
     <use style="fill:#98df8a;stroke:#ffffff;stroke-linejoin:miter;stroke-width:0.75;" x="182.060415" xlink:href="#m6c4ccc1d3c" y="129.784138"/>
     <use style="fill:#98df8a;stroke:#ffffff;stroke-linejoin:miter;stroke-width:0.75;" x="192.049786" xlink:href="#m6c4ccc1d3c" y="123.80007"/>
     <use style="fill:#98df8a;stroke:#ffffff;stroke-linejoin:miter;stroke-width:0.75;" x="202.039156" xlink:href="#m6c4ccc1d3c" y="119.026455"/>
     <use style="fill:#98df8a;stroke:#ffffff;stroke-linejoin:miter;stroke-width:0.75;" x="212.028527" xlink:href="#m6c4ccc1d3c" y="108.763182"/>
     <use style="fill:#98df8a;stroke:#ffffff;stroke-linejoin:miter;stroke-width:0.75;" x="222.017898" xlink:href="#m6c4ccc1d3c" y="108.763182"/>
     <use style="fill:#98df8a;stroke:#ffffff;stroke-linejoin:miter;stroke-width:0.75;" x="232.007268" xlink:href="#m6c4ccc1d3c" y="103.69974"/>
     <use style="fill:#98df8a;stroke:#ffffff;stroke-linejoin:miter;stroke-width:0.75;" x="241.996639" xlink:href="#m6c4ccc1d3c" y="99.454632"/>
     <use style="fill:#98df8a;stroke:#ffffff;stroke-linejoin:miter;stroke-width:0.75;" x="251.98601" xlink:href="#m6c4ccc1d3c" y="95.311816"/>
     <use style="fill:#98df8a;stroke:#ffffff;stroke-linejoin:miter;stroke-width:0.75;" x="261.97538" xlink:href="#m6c4ccc1d3c" y="93.248933"/>
     <use style="fill:#98df8a;stroke:#ffffff;stroke-linejoin:miter;stroke-width:0.75;" x="271.964751" xlink:href="#m6c4ccc1d3c" y="90.043791"/>
     <use style="fill:#98df8a;stroke:#ffffff;stroke-linejoin:miter;stroke-width:0.75;" x="281.954122" xlink:href="#m6c4ccc1d3c" y="87.060281"/>
     <use style="fill:#98df8a;stroke:#ffffff;stroke-linejoin:miter;stroke-width:0.75;" x="291.943492" xlink:href="#m6c4ccc1d3c" y="85.150835"/>
     <use style="fill:#98df8a;stroke:#ffffff;stroke-linejoin:miter;stroke-width:0.75;" x="301.932863" xlink:href="#m6c4ccc1d3c" y="84.84396"/>
     <use style="fill:#98df8a;stroke:#ffffff;stroke-linejoin:miter;stroke-width:0.75;" x="311.922233" xlink:href="#m6c4ccc1d3c" y="82.388958"/>
     <use style="fill:#98df8a;stroke:#ffffff;stroke-linejoin:miter;stroke-width:0.75;" x="321.911604" xlink:href="#m6c4ccc1d3c" y="77.990413"/>
     <use style="fill:#98df8a;stroke:#ffffff;stroke-linejoin:miter;stroke-width:0.75;" x="331.900975" xlink:href="#m6c4ccc1d3c" y="75.620654"/>
     <use style="fill:#98df8a;stroke:#ffffff;stroke-linejoin:miter;stroke-width:0.75;" x="341.890345" xlink:href="#m6c4ccc1d3c" y="74.836417"/>
     <use style="fill:#98df8a;stroke:#ffffff;stroke-linejoin:miter;stroke-width:0.75;" x="351.879716" xlink:href="#m6c4ccc1d3c" y="74.342007"/>
     <use style="fill:#98df8a;stroke:#ffffff;stroke-linejoin:miter;stroke-width:0.75;" x="361.869087" xlink:href="#m6c4ccc1d3c" y="73.336138"/>
     <use style="fill:#98df8a;stroke:#ffffff;stroke-linejoin:miter;stroke-width:0.75;" x="371.858457" xlink:href="#m6c4ccc1d3c" y="71.034573"/>
     <use style="fill:#98df8a;stroke:#ffffff;stroke-linejoin:miter;stroke-width:0.75;" x="381.847828" xlink:href="#m6c4ccc1d3c" y="71.034573"/>
     <use style="fill:#98df8a;stroke:#ffffff;stroke-linejoin:miter;stroke-width:0.75;" x="391.837198" xlink:href="#m6c4ccc1d3c" y="68.119258"/>
     <use style="fill:#98df8a;stroke:#ffffff;stroke-linejoin:miter;stroke-width:0.75;" x="401.826569" xlink:href="#m6c4ccc1d3c" y="67.23273"/>
     <use style="fill:#98df8a;stroke:#ffffff;stroke-linejoin:miter;stroke-width:0.75;" x="411.81594" xlink:href="#m6c4ccc1d3c" y="66.891757"/>
     <use style="fill:#98df8a;stroke:#ffffff;stroke-linejoin:miter;stroke-width:0.75;" x="421.80531" xlink:href="#m6c4ccc1d3c" y="66.295055"/>
     <use style="fill:#98df8a;stroke:#ffffff;stroke-linejoin:miter;stroke-width:0.75;" x="431.794681" xlink:href="#m6c4ccc1d3c" y="65.800645"/>
     <use style="fill:#98df8a;stroke:#ffffff;stroke-linejoin:miter;stroke-width:0.75;" x="441.784052" xlink:href="#m6c4ccc1d3c" y="63.37974"/>
     <use style="fill:#98df8a;stroke:#ffffff;stroke-linejoin:miter;stroke-width:0.75;" x="451.773422" xlink:href="#m6c4ccc1d3c" y="62.902379"/>
     <use style="fill:#98df8a;stroke:#ffffff;stroke-linejoin:miter;stroke-width:0.75;" x="461.762793" xlink:href="#m6c4ccc1d3c" y="60.856544"/>
     <use style="fill:#98df8a;stroke:#ffffff;stroke-linejoin:miter;stroke-width:0.75;" x="471.752163" xlink:href="#m6c4ccc1d3c" y="60.191647"/>
     <use style="fill:#98df8a;stroke:#ffffff;stroke-linejoin:miter;stroke-width:0.75;" x="481.741534" xlink:href="#m6c4ccc1d3c" y="57.855985"/>
     <use style="fill:#98df8a;stroke:#ffffff;stroke-linejoin:miter;stroke-width:0.75;" x="491.730905" xlink:href="#m6c4ccc1d3c" y="57.395673"/>
     <use style="fill:#98df8a;stroke:#ffffff;stroke-linejoin:miter;stroke-width:0.75;" x="501.720275" xlink:href="#m6c4ccc1d3c" y="55.605567"/>
     <use style="fill:#98df8a;stroke:#ffffff;stroke-linejoin:miter;stroke-width:0.75;" x="511.709646" xlink:href="#m6c4ccc1d3c" y="54.906573"/>
     <use style="fill:#98df8a;stroke:#ffffff;stroke-linejoin:miter;stroke-width:0.75;" x="521.699017" xlink:href="#m6c4ccc1d3c" y="54.32692"/>
     <use style="fill:#98df8a;stroke:#ffffff;stroke-linejoin:miter;stroke-width:0.75;" x="531.688387" xlink:href="#m6c4ccc1d3c" y="53.95185"/>
     <use style="fill:#98df8a;stroke:#ffffff;stroke-linejoin:miter;stroke-width:0.75;" x="541.677758" xlink:href="#m6c4ccc1d3c" y="53.167613"/>
     <use style="fill:#98df8a;stroke:#ffffff;stroke-linejoin:miter;stroke-width:0.75;" x="551.667128" xlink:href="#m6c4ccc1d3c" y="53.167613"/>
     <use style="fill:#98df8a;stroke:#ffffff;stroke-linejoin:miter;stroke-width:0.75;" x="561.656499" xlink:href="#m6c4ccc1d3c" y="50.303444"/>
     <use style="fill:#98df8a;stroke:#ffffff;stroke-linejoin:miter;stroke-width:0.75;" x="571.64587" xlink:href="#m6c4ccc1d3c" y="50.252298"/>
     <use style="fill:#98df8a;stroke:#ffffff;stroke-linejoin:miter;stroke-width:0.75;" x="581.63524" xlink:href="#m6c4ccc1d3c" y="48.12122"/>
     <use style="fill:#98df8a;stroke:#ffffff;stroke-linejoin:miter;stroke-width:0.75;" x="591.624611" xlink:href="#m6c4ccc1d3c" y="47.183546"/>
     <use style="fill:#98df8a;stroke:#ffffff;stroke-linejoin:miter;stroke-width:0.75;" x="601.613982" xlink:href="#m6c4ccc1d3c" y="46.944865"/>
     <use style="fill:#98df8a;stroke:#ffffff;stroke-linejoin:miter;stroke-width:0.75;" x="611.603352" xlink:href="#m6c4ccc1d3c" y="46.774379"/>
     <use style="fill:#98df8a;stroke:#ffffff;stroke-linejoin:miter;stroke-width:0.75;" x="621.592723" xlink:href="#m6c4ccc1d3c" y="46.007191"/>
     <use style="fill:#98df8a;stroke:#ffffff;stroke-linejoin:miter;stroke-width:0.75;" x="631.582094" xlink:href="#m6c4ccc1d3c" y="46.007191"/>
     <use style="fill:#98df8a;stroke:#ffffff;stroke-linejoin:miter;stroke-width:0.75;" x="641.571464" xlink:href="#m6c4ccc1d3c" y="45.666218"/>
     <use style="fill:#98df8a;stroke:#ffffff;stroke-linejoin:miter;stroke-width:0.75;" x="651.560835" xlink:href="#m6c4ccc1d3c" y="45.580975"/>
     <use style="fill:#98df8a;stroke:#ffffff;stroke-linejoin:miter;stroke-width:0.75;" x="661.550205" xlink:href="#m6c4ccc1d3c" y="45.563926"/>
     <use style="fill:#98df8a;stroke:#ffffff;stroke-linejoin:miter;stroke-width:0.75;" x="671.539576" xlink:href="#m6c4ccc1d3c" y="45.001322"/>
     <use style="fill:#98df8a;stroke:#ffffff;stroke-linejoin:miter;stroke-width:0.75;" x="681.528947" xlink:href="#m6c4ccc1d3c" y="44.6433"/>
     <use style="fill:#98df8a;stroke:#ffffff;stroke-linejoin:miter;stroke-width:0.75;" x="691.518317" xlink:href="#m6c4ccc1d3c" y="44.200036"/>
     <use style="fill:#98df8a;stroke:#ffffff;stroke-linejoin:miter;stroke-width:0.75;" x="701.507688" xlink:href="#m6c4ccc1d3c" y="44.131842"/>
     <use style="fill:#98df8a;stroke:#ffffff;stroke-linejoin:miter;stroke-width:0.75;" x="711.497059" xlink:href="#m6c4ccc1d3c" y="43.705626"/>
     <use style="fill:#98df8a;stroke:#ffffff;stroke-linejoin:miter;stroke-width:0.75;" x="721.486429" xlink:href="#m6c4ccc1d3c" y="42.682709"/>
     <use style="fill:#98df8a;stroke:#ffffff;stroke-linejoin:miter;stroke-width:0.75;" x="731.4758" xlink:href="#m6c4ccc1d3c" y="42.205347"/>
     <use style="fill:#98df8a;stroke:#ffffff;stroke-linejoin:miter;stroke-width:0.75;" x="741.46517" xlink:href="#m6c4ccc1d3c" y="41.932569"/>
    </g>
   </g>
   <g id="line2d_22">
    <path clip-path="url(#pfe6acef66e)" d="M 92.15608 271.628704 
L 102.14545 258.739943 
L 112.134821 248.391427 
L 122.124191 232.212281 
L 132.113562 225.580366 
L 142.102933 221.352307 
L 152.092303 212.333584 
L 162.081674 197.109161 
L 172.071045 183.84533 
L 182.060415 174.894802 
L 192.049786 171.007715 
L 202.039156 155.322979 
L 212.028527 144.480053 
L 222.017898 144.480053 
L 232.007268 133.961051 
L 241.996639 122.129305 
L 251.98601 121.754235 
L 261.97538 117.372738 
L 271.964751 112.803706 
L 281.954122 106.598007 
L 291.943492 104.330539 
L 301.932863 101.534565 
L 311.922233 101.040155 
L 321.911604 94.118413 
L 331.900975 86.736358 
L 341.890345 86.736358 
L 351.879716 79.01333 
L 361.869087 78.757601 
L 371.858457 77.683537 
L 381.847828 77.103884 
L 391.837198 76.132112 
L 401.826569 74.069229 
L 411.81594 71.273254 
L 421.80531 70.898184 
L 431.794681 67.539605 
L 441.784052 66.977 
L 451.773422 63.788907 
L 461.762793 63.788907 
L 471.752163 63.788907 
L 481.741534 60.140501 
L 491.730905 59.458556 
L 501.720275 59.458556 
L 511.709646 59.28807 
L 521.699017 59.202827 
L 531.688387 58.657271 
L 541.677758 58.265152 
L 551.667128 58.265152 
L 561.656499 57.770742 
L 571.64587 55.844248 
L 581.63524 55.759004 
L 591.624611 55.69081 
L 601.613982 51.71848 
L 611.603352 50.081812 
L 621.592723 49.911326 
L 631.582094 49.826083 
L 641.571464 49.74084 
L 651.560835 49.723791 
L 661.550205 49.689694 
L 671.539576 48.462193 
L 681.528947 48.155317 
L 691.518317 47.950734 
L 701.507688 47.831393 
L 711.497059 47.592713 
L 721.486429 47.575664 
L 731.4758 47.50747 
L 741.46517 47.473372 
" style="fill:none;stroke:#1f77b4;stroke-linecap:square;stroke-width:1.5;"/>
    <defs>
     <path d="M 0 3 
C 0.795609 3 1.55874 2.683901 2.12132 2.12132 
C 2.683901 1.55874 3 0.795609 3 0 
C 3 -0.795609 2.683901 -1.55874 2.12132 -2.12132 
C 1.55874 -2.683901 0.795609 -3 0 -3 
C -0.795609 -3 -1.55874 -2.683901 -2.12132 -2.12132 
C -2.683901 -1.55874 -3 -0.795609 -3 0 
C -3 0.795609 -2.683901 1.55874 -2.12132 2.12132 
C -1.55874 2.683901 -0.795609 3 0 3 
z
" id="mc4086db775" style="stroke:#ffffff;stroke-width:0.75;"/>
    </defs>
    <g clip-path="url(#pfe6acef66e)">
     <use style="fill:#1f77b4;stroke:#ffffff;stroke-width:0.75;" x="92.15608" xlink:href="#mc4086db775" y="271.628704"/>
     <use style="fill:#1f77b4;stroke:#ffffff;stroke-width:0.75;" x="102.14545" xlink:href="#mc4086db775" y="258.739943"/>
     <use style="fill:#1f77b4;stroke:#ffffff;stroke-width:0.75;" x="112.134821" xlink:href="#mc4086db775" y="248.391427"/>
     <use style="fill:#1f77b4;stroke:#ffffff;stroke-width:0.75;" x="122.124191" xlink:href="#mc4086db775" y="232.212281"/>
     <use style="fill:#1f77b4;stroke:#ffffff;stroke-width:0.75;" x="132.113562" xlink:href="#mc4086db775" y="225.580366"/>
     <use style="fill:#1f77b4;stroke:#ffffff;stroke-width:0.75;" x="142.102933" xlink:href="#mc4086db775" y="221.352307"/>
     <use style="fill:#1f77b4;stroke:#ffffff;stroke-width:0.75;" x="152.092303" xlink:href="#mc4086db775" y="212.333584"/>
     <use style="fill:#1f77b4;stroke:#ffffff;stroke-width:0.75;" x="162.081674" xlink:href="#mc4086db775" y="197.109161"/>
     <use style="fill:#1f77b4;stroke:#ffffff;stroke-width:0.75;" x="172.071045" xlink:href="#mc4086db775" y="183.84533"/>
     <use style="fill:#1f77b4;stroke:#ffffff;stroke-width:0.75;" x="182.060415" xlink:href="#mc4086db775" y="174.894802"/>
     <use style="fill:#1f77b4;stroke:#ffffff;stroke-width:0.75;" x="192.049786" xlink:href="#mc4086db775" y="171.007715"/>
     <use style="fill:#1f77b4;stroke:#ffffff;stroke-width:0.75;" x="202.039156" xlink:href="#mc4086db775" y="155.322979"/>
     <use style="fill:#1f77b4;stroke:#ffffff;stroke-width:0.75;" x="212.028527" xlink:href="#mc4086db775" y="144.480053"/>
     <use style="fill:#1f77b4;stroke:#ffffff;stroke-width:0.75;" x="222.017898" xlink:href="#mc4086db775" y="144.480053"/>
     <use style="fill:#1f77b4;stroke:#ffffff;stroke-width:0.75;" x="232.007268" xlink:href="#mc4086db775" y="133.961051"/>
     <use style="fill:#1f77b4;stroke:#ffffff;stroke-width:0.75;" x="241.996639" xlink:href="#mc4086db775" y="122.129305"/>
     <use style="fill:#1f77b4;stroke:#ffffff;stroke-width:0.75;" x="251.98601" xlink:href="#mc4086db775" y="121.754235"/>
     <use style="fill:#1f77b4;stroke:#ffffff;stroke-width:0.75;" x="261.97538" xlink:href="#mc4086db775" y="117.372738"/>
     <use style="fill:#1f77b4;stroke:#ffffff;stroke-width:0.75;" x="271.964751" xlink:href="#mc4086db775" y="112.803706"/>
     <use style="fill:#1f77b4;stroke:#ffffff;stroke-width:0.75;" x="281.954122" xlink:href="#mc4086db775" y="106.598007"/>
     <use style="fill:#1f77b4;stroke:#ffffff;stroke-width:0.75;" x="291.943492" xlink:href="#mc4086db775" y="104.330539"/>
     <use style="fill:#1f77b4;stroke:#ffffff;stroke-width:0.75;" x="301.932863" xlink:href="#mc4086db775" y="101.534565"/>
     <use style="fill:#1f77b4;stroke:#ffffff;stroke-width:0.75;" x="311.922233" xlink:href="#mc4086db775" y="101.040155"/>
     <use style="fill:#1f77b4;stroke:#ffffff;stroke-width:0.75;" x="321.911604" xlink:href="#mc4086db775" y="94.118413"/>
     <use style="fill:#1f77b4;stroke:#ffffff;stroke-width:0.75;" x="331.900975" xlink:href="#mc4086db775" y="86.736358"/>
     <use style="fill:#1f77b4;stroke:#ffffff;stroke-width:0.75;" x="341.890345" xlink:href="#mc4086db775" y="86.736358"/>
     <use style="fill:#1f77b4;stroke:#ffffff;stroke-width:0.75;" x="351.879716" xlink:href="#mc4086db775" y="79.01333"/>
     <use style="fill:#1f77b4;stroke:#ffffff;stroke-width:0.75;" x="361.869087" xlink:href="#mc4086db775" y="78.757601"/>
     <use style="fill:#1f77b4;stroke:#ffffff;stroke-width:0.75;" x="371.858457" xlink:href="#mc4086db775" y="77.683537"/>
     <use style="fill:#1f77b4;stroke:#ffffff;stroke-width:0.75;" x="381.847828" xlink:href="#mc4086db775" y="77.103884"/>
     <use style="fill:#1f77b4;stroke:#ffffff;stroke-width:0.75;" x="391.837198" xlink:href="#mc4086db775" y="76.132112"/>
     <use style="fill:#1f77b4;stroke:#ffffff;stroke-width:0.75;" x="401.826569" xlink:href="#mc4086db775" y="74.069229"/>
     <use style="fill:#1f77b4;stroke:#ffffff;stroke-width:0.75;" x="411.81594" xlink:href="#mc4086db775" y="71.273254"/>
     <use style="fill:#1f77b4;stroke:#ffffff;stroke-width:0.75;" x="421.80531" xlink:href="#mc4086db775" y="70.898184"/>
     <use style="fill:#1f77b4;stroke:#ffffff;stroke-width:0.75;" x="431.794681" xlink:href="#mc4086db775" y="67.539605"/>
     <use style="fill:#1f77b4;stroke:#ffffff;stroke-width:0.75;" x="441.784052" xlink:href="#mc4086db775" y="66.977"/>
     <use style="fill:#1f77b4;stroke:#ffffff;stroke-width:0.75;" x="451.773422" xlink:href="#mc4086db775" y="63.788907"/>
     <use style="fill:#1f77b4;stroke:#ffffff;stroke-width:0.75;" x="461.762793" xlink:href="#mc4086db775" y="63.788907"/>
     <use style="fill:#1f77b4;stroke:#ffffff;stroke-width:0.75;" x="471.752163" xlink:href="#mc4086db775" y="63.788907"/>
     <use style="fill:#1f77b4;stroke:#ffffff;stroke-width:0.75;" x="481.741534" xlink:href="#mc4086db775" y="60.140501"/>
     <use style="fill:#1f77b4;stroke:#ffffff;stroke-width:0.75;" x="491.730905" xlink:href="#mc4086db775" y="59.458556"/>
     <use style="fill:#1f77b4;stroke:#ffffff;stroke-width:0.75;" x="501.720275" xlink:href="#mc4086db775" y="59.458556"/>
     <use style="fill:#1f77b4;stroke:#ffffff;stroke-width:0.75;" x="511.709646" xlink:href="#mc4086db775" y="59.28807"/>
     <use style="fill:#1f77b4;stroke:#ffffff;stroke-width:0.75;" x="521.699017" xlink:href="#mc4086db775" y="59.202827"/>
     <use style="fill:#1f77b4;stroke:#ffffff;stroke-width:0.75;" x="531.688387" xlink:href="#mc4086db775" y="58.657271"/>
     <use style="fill:#1f77b4;stroke:#ffffff;stroke-width:0.75;" x="541.677758" xlink:href="#mc4086db775" y="58.265152"/>
     <use style="fill:#1f77b4;stroke:#ffffff;stroke-width:0.75;" x="551.667128" xlink:href="#mc4086db775" y="58.265152"/>
     <use style="fill:#1f77b4;stroke:#ffffff;stroke-width:0.75;" x="561.656499" xlink:href="#mc4086db775" y="57.770742"/>
     <use style="fill:#1f77b4;stroke:#ffffff;stroke-width:0.75;" x="571.64587" xlink:href="#mc4086db775" y="55.844248"/>
     <use style="fill:#1f77b4;stroke:#ffffff;stroke-width:0.75;" x="581.63524" xlink:href="#mc4086db775" y="55.759004"/>
     <use style="fill:#1f77b4;stroke:#ffffff;stroke-width:0.75;" x="591.624611" xlink:href="#mc4086db775" y="55.69081"/>
     <use style="fill:#1f77b4;stroke:#ffffff;stroke-width:0.75;" x="601.613982" xlink:href="#mc4086db775" y="51.71848"/>
     <use style="fill:#1f77b4;stroke:#ffffff;stroke-width:0.75;" x="611.603352" xlink:href="#mc4086db775" y="50.081812"/>
     <use style="fill:#1f77b4;stroke:#ffffff;stroke-width:0.75;" x="621.592723" xlink:href="#mc4086db775" y="49.911326"/>
     <use style="fill:#1f77b4;stroke:#ffffff;stroke-width:0.75;" x="631.582094" xlink:href="#mc4086db775" y="49.826083"/>
     <use style="fill:#1f77b4;stroke:#ffffff;stroke-width:0.75;" x="641.571464" xlink:href="#mc4086db775" y="49.74084"/>
     <use style="fill:#1f77b4;stroke:#ffffff;stroke-width:0.75;" x="651.560835" xlink:href="#mc4086db775" y="49.723791"/>
     <use style="fill:#1f77b4;stroke:#ffffff;stroke-width:0.75;" x="661.550205" xlink:href="#mc4086db775" y="49.689694"/>
     <use style="fill:#1f77b4;stroke:#ffffff;stroke-width:0.75;" x="671.539576" xlink:href="#mc4086db775" y="48.462193"/>
     <use style="fill:#1f77b4;stroke:#ffffff;stroke-width:0.75;" x="681.528947" xlink:href="#mc4086db775" y="48.155317"/>
     <use style="fill:#1f77b4;stroke:#ffffff;stroke-width:0.75;" x="691.518317" xlink:href="#mc4086db775" y="47.950734"/>
     <use style="fill:#1f77b4;stroke:#ffffff;stroke-width:0.75;" x="701.507688" xlink:href="#mc4086db775" y="47.831393"/>
     <use style="fill:#1f77b4;stroke:#ffffff;stroke-width:0.75;" x="711.497059" xlink:href="#mc4086db775" y="47.592713"/>
     <use style="fill:#1f77b4;stroke:#ffffff;stroke-width:0.75;" x="721.486429" xlink:href="#mc4086db775" y="47.575664"/>
     <use style="fill:#1f77b4;stroke:#ffffff;stroke-width:0.75;" x="731.4758" xlink:href="#mc4086db775" y="47.50747"/>
     <use style="fill:#1f77b4;stroke:#ffffff;stroke-width:0.75;" x="741.46517" xlink:href="#mc4086db775" y="47.473372"/>
    </g>
   </g>
   <g id="line2d_23"/>
   <g id="line2d_24"/>
   <g id="line2d_25">
    <path clip-path="url(#pfe6acef66e)" d="M 741.46517 288.430125 
L 741.46517 22.318125 
" style="fill:none;stroke:#ff0000;stroke-linecap:square;stroke-width:1.5;"/>
   </g>
   <g id="patch_3">
    <path d="M 59.690625 287.654413 
L 59.690625 48.973651 
" style="fill:none;stroke:#000000;stroke-linecap:square;stroke-linejoin:miter;stroke-width:0.8;"/>
   </g>
   <g id="patch_4">
    <path d="M 92.15608 288.430125 
L 696.513003 288.430125 
" style="fill:none;stroke:#000000;stroke-linecap:square;stroke-linejoin:miter;stroke-width:0.8;"/>
   </g>
   <g id="text_23">
    <!-- sqlite3_ossfuzz (16h:30m, 5 trials/fuzzer) -->
    <g transform="translate(293.132812 16.318125)scale(0.12 -0.12)">
     <defs>
      <path d="M 2834 3397 
L 2834 2853 
Q 2591 2978 2328 3040 
Q 2066 3103 1784 3103 
Q 1356 3103 1142 2972 
Q 928 2841 928 2578 
Q 928 2378 1081 2264 
Q 1234 2150 1697 2047 
L 1894 2003 
Q 2506 1872 2764 1633 
Q 3022 1394 3022 966 
Q 3022 478 2636 193 
Q 2250 -91 1575 -91 
Q 1294 -91 989 -36 
Q 684 19 347 128 
L 347 722 
Q 666 556 975 473 
Q 1284 391 1588 391 
Q 1994 391 2212 530 
Q 2431 669 2431 922 
Q 2431 1156 2273 1281 
Q 2116 1406 1581 1522 
L 1381 1569 
Q 847 1681 609 1914 
Q 372 2147 372 2553 
Q 372 3047 722 3315 
Q 1072 3584 1716 3584 
Q 2034 3584 2315 3537 
Q 2597 3491 2834 3397 
z
" id="DejaVuSans-73" transform="scale(0.015625)"/>
      <path d="M 947 1747 
Q 947 1113 1208 752 
Q 1469 391 1925 391 
Q 2381 391 2643 752 
Q 2906 1113 2906 1747 
Q 2906 2381 2643 2742 
Q 2381 3103 1925 3103 
Q 1469 3103 1208 2742 
Q 947 2381 947 1747 
z
M 2906 525 
Q 2725 213 2448 61 
Q 2172 -91 1784 -91 
Q 1150 -91 751 415 
Q 353 922 353 1747 
Q 353 2572 751 3078 
Q 1150 3584 1784 3584 
Q 2172 3584 2448 3432 
Q 2725 3281 2906 2969 
L 2906 3500 
L 3481 3500 
L 3481 -1331 
L 2906 -1331 
L 2906 525 
z
" id="DejaVuSans-71" transform="scale(0.015625)"/>
      <path d="M 603 4863 
L 1178 4863 
L 1178 0 
L 603 0 
L 603 4863 
z
" id="DejaVuSans-6c" transform="scale(0.015625)"/>
      <path d="M 3263 -1063 
L 3263 -1509 
L -63 -1509 
L -63 -1063 
L 3263 -1063 
z
" id="DejaVuSans-5f" transform="scale(0.015625)"/>
      <path d="M 2375 4863 
L 2375 4384 
L 1825 4384 
Q 1516 4384 1395 4259 
Q 1275 4134 1275 3809 
L 1275 3500 
L 2222 3500 
L 2222 3053 
L 1275 3053 
L 1275 0 
L 697 0 
L 697 3053 
L 147 3053 
L 147 3500 
L 697 3500 
L 697 3744 
Q 697 4328 969 4595 
Q 1241 4863 1831 4863 
L 2375 4863 
z
" id="DejaVuSans-66" transform="scale(0.015625)"/>
      <path d="M 353 3500 
L 3084 3500 
L 3084 2975 
L 922 459 
L 3084 459 
L 3084 0 
L 275 0 
L 275 525 
L 2438 3041 
L 353 3041 
L 353 3500 
z
" id="DejaVuSans-7a" transform="scale(0.015625)"/>
      <path d="M 750 794 
L 1409 794 
L 1409 256 
L 897 -744 
L 494 -744 
L 750 256 
L 750 794 
z
" id="DejaVuSans-2c" transform="scale(0.015625)"/>
      <path d="M 1625 4666 
L 2156 4666 
L 531 -594 
L 0 -594 
L 1625 4666 
z
" id="DejaVuSans-2f" transform="scale(0.015625)"/>
     </defs>
     <use xlink:href="#DejaVuSans-73"/>
     <use x="52.099609" xlink:href="#DejaVuSans-71"/>
     <use x="115.576172" xlink:href="#DejaVuSans-6c"/>
     <use x="143.359375" xlink:href="#DejaVuSans-69"/>
     <use x="171.142578" xlink:href="#DejaVuSans-74"/>
     <use x="210.351562" xlink:href="#DejaVuSans-65"/>
     <use x="271.875" xlink:href="#DejaVuSans-33"/>
     <use x="335.498047" xlink:href="#DejaVuSans-5f"/>
     <use x="385.498047" xlink:href="#DejaVuSans-6f"/>
     <use x="446.679688" xlink:href="#DejaVuSans-73"/>
     <use x="498.779297" xlink:href="#DejaVuSans-73"/>
     <use x="550.878906" xlink:href="#DejaVuSans-66"/>
     <use x="586.083984" xlink:href="#DejaVuSans-75"/>
     <use x="649.462891" xlink:href="#DejaVuSans-7a"/>
     <use x="701.953125" xlink:href="#DejaVuSans-7a"/>
     <use x="754.443359" xlink:href="#DejaVuSans-20"/>
     <use x="786.230469" xlink:href="#DejaVuSans-28"/>
     <use x="825.244141" xlink:href="#DejaVuSans-31"/>
     <use x="888.867188" xlink:href="#DejaVuSans-36"/>
     <use x="952.490234" xlink:href="#DejaVuSans-68"/>
     <use x="1015.869141" xlink:href="#DejaVuSans-3a"/>
     <use x="1049.560547" xlink:href="#DejaVuSans-33"/>
     <use x="1113.183594" xlink:href="#DejaVuSans-30"/>
     <use x="1176.806641" xlink:href="#DejaVuSans-6d"/>
     <use x="1274.21875" xlink:href="#DejaVuSans-2c"/>
     <use x="1306.005859" xlink:href="#DejaVuSans-20"/>
     <use x="1337.792969" xlink:href="#DejaVuSans-35"/>
     <use x="1401.416016" xlink:href="#DejaVuSans-20"/>
     <use x="1433.203125" xlink:href="#DejaVuSans-74"/>
     <use x="1472.412109" xlink:href="#DejaVuSans-72"/>
     <use x="1513.525391" xlink:href="#DejaVuSans-69"/>
     <use x="1541.308594" xlink:href="#DejaVuSans-61"/>
     <use x="1602.587891" xlink:href="#DejaVuSans-6c"/>
     <use x="1630.371094" xlink:href="#DejaVuSans-73"/>
     <use x="1682.470703" xlink:href="#DejaVuSans-2f"/>
     <use x="1716.162109" xlink:href="#DejaVuSans-66"/>
     <use x="1751.367188" xlink:href="#DejaVuSans-75"/>
     <use x="1814.746094" xlink:href="#DejaVuSans-7a"/>
     <use x="1867.236328" xlink:href="#DejaVuSans-7a"/>
     <use x="1919.726562" xlink:href="#DejaVuSans-65"/>
     <use x="1981.25" xlink:href="#DejaVuSans-72"/>
     <use x="2022.363281" xlink:href="#DejaVuSans-29"/>
    </g>
   </g>
   <g id="legend_1">
    <g id="line2d_26">
     <path d="M 777.930625 30.416562 
L 797.930625 30.416562 
" style="fill:none;stroke:#98df8a;stroke-linecap:square;stroke-width:1.5;"/>
    </g>
    <g id="line2d_27">
     <defs>
      <path d="M -0 3 
L 3 -3 
L -3 -3 
z
" id="me14dc75500" style="stroke:#98df8a;stroke-linejoin:miter;"/>
     </defs>
     <g>
      <use style="fill:#98df8a;stroke:#98df8a;stroke-linejoin:miter;" x="787.930625" xlink:href="#me14dc75500" y="30.416562"/>
     </g>
    </g>
    <g id="text_24">
     <!-- random_params -->
     <g transform="translate(805.930625 33.916562)scale(0.1 -0.1)">
      <defs>
       <path d="M 1159 525 
L 1159 -1331 
L 581 -1331 
L 581 3500 
L 1159 3500 
L 1159 2969 
Q 1341 3281 1617 3432 
Q 1894 3584 2278 3584 
Q 2916 3584 3314 3078 
Q 3713 2572 3713 1747 
Q 3713 922 3314 415 
Q 2916 -91 2278 -91 
Q 1894 -91 1617 61 
Q 1341 213 1159 525 
z
M 3116 1747 
Q 3116 2381 2855 2742 
Q 2594 3103 2138 3103 
Q 1681 3103 1420 2742 
Q 1159 2381 1159 1747 
Q 1159 1113 1420 752 
Q 1681 391 2138 391 
Q 2594 391 2855 752 
Q 3116 1113 3116 1747 
z
" id="DejaVuSans-70" transform="scale(0.015625)"/>
      </defs>
      <use xlink:href="#DejaVuSans-72"/>
      <use x="41.113281" xlink:href="#DejaVuSans-61"/>
      <use x="102.392578" xlink:href="#DejaVuSans-6e"/>
      <use x="165.771484" xlink:href="#DejaVuSans-64"/>
      <use x="229.248047" xlink:href="#DejaVuSans-6f"/>
      <use x="290.429688" xlink:href="#DejaVuSans-6d"/>
      <use x="387.841797" xlink:href="#DejaVuSans-5f"/>
      <use x="437.841797" xlink:href="#DejaVuSans-70"/>
      <use x="501.318359" xlink:href="#DejaVuSans-61"/>
      <use x="562.597656" xlink:href="#DejaVuSans-72"/>
      <use x="603.710938" xlink:href="#DejaVuSans-61"/>
      <use x="664.990234" xlink:href="#DejaVuSans-6d"/>
      <use x="762.402344" xlink:href="#DejaVuSans-73"/>
     </g>
    </g>
    <g id="line2d_28">
     <path d="M 777.930625 45.372813 
L 797.930625 45.372813 
" style="fill:none;stroke:#1f77b4;stroke-linecap:square;stroke-width:1.5;"/>
    </g>
    <g id="line2d_29">
     <defs>
      <path d="M 0 3 
C 0.795609 3 1.55874 2.683901 2.12132 2.12132 
C 2.683901 1.55874 3 0.795609 3 0 
C 3 -0.795609 2.683901 -1.55874 2.12132 -2.12132 
C 1.55874 -2.683901 0.795609 -3 0 -3 
C -0.795609 -3 -1.55874 -2.683901 -2.12132 -2.12132 
C -2.683901 -1.55874 -3 -0.795609 -3 0 
C -3 0.795609 -2.683901 1.55874 -2.12132 2.12132 
C -1.55874 2.683901 -0.795609 3 0 3 
z
" id="mbefc4fb62d" style="stroke:#1f77b4;"/>
     </defs>
     <g>
      <use style="fill:#1f77b4;stroke:#1f77b4;" x="787.930625" xlink:href="#mbefc4fb62d" y="45.372813"/>
     </g>
    </g>
    <g id="text_25">
     <!-- afl -->
     <g transform="translate(805.930625 48.872813)scale(0.1 -0.1)">
      <use xlink:href="#DejaVuSans-61"/>
      <use x="61.279297" xlink:href="#DejaVuSans-66"/>
      <use x="96.484375" xlink:href="#DejaVuSans-6c"/>
     </g>
    </g>
   </g>
  </g>
 </g>
 <defs>
  <clipPath id="pfe6acef66e">
   <rect height="266.112" width="714.24" x="59.690625" y="22.318125"/>
  </clipPath>
 </defs>
</svg>
