<?xml version="1.0" encoding="utf-8" standalone="no"?>
<!DOCTYPE svg PUBLIC "-//W3C//DTD SVG 1.1//EN"
  "http://www.w3.org/Graphics/SVG/1.1/DTD/svg11.dtd">
<!-- Created with matplotlib (https://matplotlib.org/) -->
<svg height="358.280615pt" version="1.1" viewBox="0 0 424.010625 358.280615" width="424.010625pt" xmlns="http://www.w3.org/2000/svg" xmlns:xlink="http://www.w3.org/1999/xlink">
 <metadata>
  <rdf:RDF xmlns:cc="http://creativecommons.org/ns#" xmlns:dc="http://purl.org/dc/elements/1.1/" xmlns:rdf="http://www.w3.org/1999/02/22-rdf-syntax-ns#">
   <cc:Work>
    <dc:type rdf:resource="http://purl.org/dc/dcmitype/StillImage"/>
    <dc:date>2021-01-11T16:24:06.610593</dc:date>
    <dc:format>image/svg+xml</dc:format>
    <dc:creator>
     <cc:Agent>
      <dc:title>Matplotlib v3.3.3, https://matplotlib.org/</dc:title>
     </cc:Agent>
    </dc:creator>
   </cc:Work>
  </rdf:RDF>
 </metadata>
 <defs>
  <style type="text/css">*{stroke-linecap:butt;stroke-linejoin:round;}</style>
 </defs>
 <g id="figure_1">
  <g id="patch_1">
   <path d="M 0 358.280615 
L 424.010625 358.280615 
L 424.010625 -0 
L 0 -0 
z
" style="fill:#ffffff;"/>
  </g>
  <g id="axes_1">
   <g id="patch_2">
    <path d="M 59.690625 288.430125 
L 416.810625 288.430125 
L 416.810625 22.318125 
L 59.690625 22.318125 
z
" style="fill:#ffffff;"/>
   </g>
   <g id="PolyCollection_1">
    <defs>
     <path d="M 119.980075 -81.94649 
L 118.441175 -81.94649 
L 118.277009 -84.390127 
L 118.087213 -86.833763 
L 117.869871 -89.2774 
L 117.623312 -91.721036 
L 117.346173 -94.164672 
L 117.037446 -96.608309 
L 116.696505 -99.051945 
L 116.323116 -101.495581 
L 115.917422 -103.939218 
L 115.479898 -106.382854 
L 115.011289 -108.82649 
L 114.512517 -111.270127 
L 113.984586 -113.713763 
L 113.428472 -116.1574 
L 112.845025 -118.601036 
L 112.234875 -121.044672 
L 111.59838 -123.488309 
L 110.935594 -125.931945 
L 110.246289 -128.375581 
L 109.530017 -130.819218 
L 108.786215 -133.262854 
L 108.014356 -135.70649 
L 107.214127 -138.150127 
L 106.385621 -140.593763 
L 105.529528 -143.0374 
L 104.647316 -145.481036 
L 103.741368 -147.924672 
L 102.81507 -150.368309 
L 101.872844 -152.811945 
L 100.920106 -155.255581 
L 99.963157 -157.699218 
L 99.009019 -160.142854 
L 98.065214 -162.58649 
L 97.139516 -165.030127 
L 96.23969 -167.473763 
L 95.373241 -169.9174 
L 94.547188 -172.361036 
L 93.767897 -174.804672 
L 93.040961 -177.248309 
L 92.371157 -179.691945 
L 91.76246 -182.135581 
L 91.218125 -184.579218 
L 90.740801 -187.022854 
L 90.332684 -189.46649 
L 89.995669 -191.910127 
L 89.731487 -194.353763 
L 89.541814 -196.7974 
L 89.428321 -199.241036 
L 89.392676 -201.684672 
L 89.436477 -204.128309 
L 89.561127 -206.571945 
L 89.767673 -209.015581 
L 90.056595 -211.459218 
L 90.427606 -213.902854 
L 90.879441 -216.34649 
L 91.409697 -218.790127 
L 92.014714 -221.233763 
L 92.689526 -223.6774 
L 93.427886 -226.121036 
L 94.222376 -228.564672 
L 95.064588 -231.008309 
L 95.945373 -233.451945 
L 96.855139 -235.895581 
L 97.784186 -238.339218 
L 98.723047 -240.782854 
L 99.662812 -243.22649 
L 100.595429 -245.670127 
L 101.513943 -248.113763 
L 102.412672 -250.5574 
L 103.287306 -253.001036 
L 104.134927 -255.444672 
L 104.953947 -257.888309 
L 105.743982 -260.331945 
L 106.505661 -262.775581 
L 107.240394 -265.219218 
L 107.950117 -267.662854 
L 108.637026 -270.10649 
L 109.303327 -272.550127 
L 109.951011 -274.993763 
L 110.581668 -277.4374 
L 111.196356 -279.881036 
L 111.795525 -282.324672 
L 112.37899 -284.768309 
L 112.945969 -287.211945 
L 113.495156 -289.655581 
L 114.024837 -292.099218 
L 114.533027 -294.542854 
L 115.017626 -296.98649 
L 115.476565 -299.430127 
L 115.907952 -301.873763 
L 116.310195 -304.3174 
L 116.682094 -306.761036 
L 117.022913 -309.204672 
L 117.33241 -311.648309 
L 117.610847 -314.091945 
L 117.858965 -316.535581 
L 118.077936 -318.979218 
L 118.269304 -321.422854 
L 118.434907 -323.86649 
L 119.986343 -323.86649 
L 119.986343 -323.86649 
L 120.151946 -321.422854 
L 120.343314 -318.979218 
L 120.562285 -316.535581 
L 120.810403 -314.091945 
L 121.08884 -311.648309 
L 121.398337 -309.204672 
L 121.739156 -306.761036 
L 122.111055 -304.3174 
L 122.513298 -301.873763 
L 122.944685 -299.430127 
L 123.403624 -296.98649 
L 123.888223 -294.542854 
L 124.396413 -292.099218 
L 124.926094 -289.655581 
L 125.475281 -287.211945 
L 126.04226 -284.768309 
L 126.625725 -282.324672 
L 127.224894 -279.881036 
L 127.839582 -277.4374 
L 128.470239 -274.993763 
L 129.117923 -272.550127 
L 129.784224 -270.10649 
L 130.471133 -267.662854 
L 131.180856 -265.219218 
L 131.915589 -262.775581 
L 132.677268 -260.331945 
L 133.467303 -257.888309 
L 134.286323 -255.444672 
L 135.133944 -253.001036 
L 136.008578 -250.5574 
L 136.907307 -248.113763 
L 137.825821 -245.670127 
L 138.758438 -243.22649 
L 139.698203 -240.782854 
L 140.637064 -238.339218 
L 141.566111 -235.895581 
L 142.475877 -233.451945 
L 143.356662 -231.008309 
L 144.198874 -228.564672 
L 144.993364 -226.121036 
L 145.731724 -223.6774 
L 146.406536 -221.233763 
L 147.011553 -218.790127 
L 147.541809 -216.34649 
L 147.993644 -213.902854 
L 148.364655 -211.459218 
L 148.653577 -209.015581 
L 148.860123 -206.571945 
L 148.984773 -204.128309 
L 149.028574 -201.684672 
L 148.992929 -199.241036 
L 148.879436 -196.7974 
L 148.689763 -194.353763 
L 148.425581 -191.910127 
L 148.088566 -189.46649 
L 147.680449 -187.022854 
L 147.203125 -184.579218 
L 146.65879 -182.135581 
L 146.050093 -179.691945 
L 145.380289 -177.248309 
L 144.653353 -174.804672 
L 143.874062 -172.361036 
L 143.048009 -169.9174 
L 142.18156 -167.473763 
L 141.281734 -165.030127 
L 140.356036 -162.58649 
L 139.412231 -160.142854 
L 138.458093 -157.699218 
L 137.501144 -155.255581 
L 136.548406 -152.811945 
L 135.60618 -150.368309 
L 134.679882 -147.924672 
L 133.773934 -145.481036 
L 132.891722 -143.0374 
L 132.035629 -140.593763 
L 131.207123 -138.150127 
L 130.406894 -135.70649 
L 129.635035 -133.262854 
L 128.891233 -130.819218 
L 128.174961 -128.375581 
L 127.485656 -125.931945 
L 126.82287 -123.488309 
L 126.186375 -121.044672 
L 125.576225 -118.601036 
L 124.992778 -116.1574 
L 124.436664 -113.713763 
L 123.908733 -111.270127 
L 123.409961 -108.82649 
L 122.941352 -106.382854 
L 122.503828 -103.939218 
L 122.098134 -101.495581 
L 121.724745 -99.051945 
L 121.383804 -96.608309 
L 121.075077 -94.164672 
L 120.797938 -91.721036 
L 120.551379 -89.2774 
L 120.334037 -86.833763 
L 120.144241 -84.390127 
L 119.980075 -81.94649 
z
" id="m7d1bdfaf1c" style="stroke:#3f3f3f;stroke-width:1.5;"/>
    </defs>
    <g clip-path="url(#pd39ef2c65e)">
     <use style="fill:#9fd495;stroke:#3f3f3f;stroke-width:1.5;" x="0" xlink:href="#m7d1bdfaf1c" y="358.280615"/>
    </g>
   </g>
   <g id="PolyCollection_2">
    <defs>
     <path d="M 239.828439 -125.466565 
L 236.672811 -125.466565 
L 236.364561 -126.755632 
L 236.008798 -128.0447 
L 235.600813 -129.333767 
L 235.13592 -130.622835 
L 234.609547 -131.911902 
L 234.01735 -133.20097 
L 233.355332 -134.490037 
L 232.619968 -135.779105 
L 231.808345 -137.068172 
L 230.918291 -138.35724 
L 229.948516 -139.646307 
L 228.89874 -140.935375 
L 227.769811 -142.224442 
L 226.563823 -143.51351 
L 225.284198 -144.802577 
L 223.935765 -146.091644 
L 222.524799 -147.380712 
L 221.059041 -148.669779 
L 219.547677 -149.958847 
L 218.001292 -151.247914 
L 216.431777 -152.536982 
L 214.852198 -153.826049 
L 213.27663 -155.115117 
L 211.71995 -156.404184 
L 210.197586 -157.693252 
L 208.725242 -158.982319 
L 207.318581 -160.271387 
L 205.992892 -161.560454 
L 204.762732 -162.849521 
L 203.641562 -164.138589 
L 202.641373 -165.427656 
L 201.772337 -166.716724 
L 201.042457 -168.005791 
L 200.457266 -169.294859 
L 200.019554 -170.583926 
L 199.72916 -171.872994 
L 199.582818 -173.162061 
L 199.574087 -174.451129 
L 199.693349 -175.740196 
L 199.927909 -177.029264 
L 200.262178 -178.318331 
L 200.677951 -179.607399 
L 201.154779 -180.896466 
L 201.670428 -182.185533 
L 202.201414 -183.474601 
L 202.723614 -184.763668 
L 203.212925 -186.052736 
L 203.645965 -187.341803 
L 204.00079 -188.630871 
L 204.257608 -189.919938 
L 204.399461 -191.209006 
L 204.41286 -192.498073 
L 204.288342 -193.787141 
L 204.020917 -195.076208 
L 203.610409 -196.365276 
L 203.061639 -197.654343 
L 202.384464 -198.943411 
L 201.593647 -200.232478 
L 200.70856 -201.521545 
L 199.752727 -202.810613 
L 198.753203 -204.09968 
L 197.739824 -205.388748 
L 196.744346 -206.677815 
L 195.799487 -207.966883 
L 194.937931 -209.25595 
L 194.191307 -210.545018 
L 193.589204 -211.834085 
L 193.158236 -213.123153 
L 192.921213 -214.41222 
L 192.896441 -215.701288 
L 193.09718 -216.990355 
L 193.531279 -218.279422 
L 194.200998 -219.56849 
L 195.103024 -220.857557 
L 196.228683 -222.146625 
L 197.564315 -223.435692 
L 199.09181 -224.72476 
L 200.789279 -226.013827 
L 202.631808 -227.302895 
L 204.592291 -228.591962 
L 206.642283 -229.88103 
L 208.752847 -231.170097 
L 210.895365 -232.459165 
L 213.042288 -233.748232 
L 215.167782 -235.0373 
L 217.248285 -236.326367 
L 219.262924 -237.615434 
L 221.193827 -238.904502 
L 223.026298 -240.193569 
L 224.748875 -241.482637 
L 226.353284 -242.771704 
L 227.834297 -244.060772 
L 229.189507 -245.349839 
L 230.419049 -246.638907 
L 231.525275 -247.927974 
L 232.512402 -249.217042 
L 233.386159 -250.506109 
L 234.153426 -251.795177 
L 234.821907 -253.084244 
L 241.679343 -253.084244 
L 241.679343 -253.084244 
L 242.347824 -251.795177 
L 243.115091 -250.506109 
L 243.988848 -249.217042 
L 244.975975 -247.927974 
L 246.082201 -246.638907 
L 247.311743 -245.349839 
L 248.666953 -244.060772 
L 250.147966 -242.771704 
L 251.752375 -241.482637 
L 253.474952 -240.193569 
L 255.307423 -238.904502 
L 257.238326 -237.615434 
L 259.252965 -236.326367 
L 261.333468 -235.0373 
L 263.458962 -233.748232 
L 265.605885 -232.459165 
L 267.748403 -231.170097 
L 269.858967 -229.88103 
L 271.908959 -228.591962 
L 273.869442 -227.302895 
L 275.711971 -226.013827 
L 277.40944 -224.72476 
L 278.936935 -223.435692 
L 280.272567 -222.146625 
L 281.398226 -220.857557 
L 282.300252 -219.56849 
L 282.969971 -218.279422 
L 283.40407 -216.990355 
L 283.604809 -215.701288 
L 283.580037 -214.41222 
L 283.343014 -213.123153 
L 282.912046 -211.834085 
L 282.309943 -210.545018 
L 281.563319 -209.25595 
L 280.701763 -207.966883 
L 279.756904 -206.677815 
L 278.761426 -205.388748 
L 277.748047 -204.09968 
L 276.748523 -202.810613 
L 275.79269 -201.521545 
L 274.907603 -200.232478 
L 274.116786 -198.943411 
L 273.439611 -197.654343 
L 272.890841 -196.365276 
L 272.480333 -195.076208 
L 272.212908 -193.787141 
L 272.08839 -192.498073 
L 272.101789 -191.209006 
L 272.243642 -189.919938 
L 272.50046 -188.630871 
L 272.855285 -187.341803 
L 273.288325 -186.052736 
L 273.777636 -184.763668 
L 274.299836 -183.474601 
L 274.830822 -182.185533 
L 275.346471 -180.896466 
L 275.823299 -179.607399 
L 276.239072 -178.318331 
L 276.573341 -177.029264 
L 276.807901 -175.740196 
L 276.927163 -174.451129 
L 276.918432 -173.162061 
L 276.77209 -171.872994 
L 276.481696 -170.583926 
L 276.043984 -169.294859 
L 275.458793 -168.005791 
L 274.728913 -166.716724 
L 273.859877 -165.427656 
L 272.859688 -164.138589 
L 271.738518 -162.849521 
L 270.508358 -161.560454 
L 269.182669 -160.271387 
L 267.776008 -158.982319 
L 266.303664 -157.693252 
L 264.7813 -156.404184 
L 263.22462 -155.115117 
L 261.649052 -153.826049 
L 260.069473 -152.536982 
L 258.499958 -151.247914 
L 256.953573 -149.958847 
L 255.442209 -148.669779 
L 253.976451 -147.380712 
L 252.565485 -146.091644 
L 251.217052 -144.802577 
L 249.937427 -143.51351 
L 248.731439 -142.224442 
L 247.60251 -140.935375 
L 246.552734 -139.646307 
L 245.582959 -138.35724 
L 244.692905 -137.068172 
L 243.881282 -135.779105 
L 243.145918 -134.490037 
L 242.4839 -133.20097 
L 241.891703 -131.911902 
L 241.36533 -130.622835 
L 240.900437 -129.333767 
L 240.492452 -128.0447 
L 240.136689 -126.755632 
L 239.828439 -125.466565 
z
" id="mabb17494c9" style="stroke:#3f3f3f;stroke-width:1.5;"/>
    </defs>
    <g clip-path="url(#pd39ef2c65e)">
     <use style="fill:#c03d3e;stroke:#3f3f3f;stroke-width:1.5;" x="0" xlink:href="#mabb17494c9" y="358.280615"/>
    </g>
   </g>
   <g id="PolyCollection_3">
    <defs>
     <path d="M 358.224064 -86.659066 
L 356.357186 -86.659066 
L 356.147138 -88.75942 
L 355.904771 -90.859774 
L 355.628912 -92.960128 
L 355.319287 -95.060482 
L 354.976683 -97.160836 
L 354.603087 -99.26119 
L 354.201759 -101.361544 
L 353.777228 -103.461898 
L 353.335213 -105.562252 
L 352.882428 -107.662606 
L 352.426298 -109.76296 
L 351.974565 -111.863314 
L 351.534812 -113.963668 
L 351.11391 -116.064023 
L 350.717429 -118.164377 
L 350.349045 -120.264731 
L 350.009974 -122.365085 
L 349.69848 -124.465439 
L 349.409499 -126.565793 
L 349.134415 -128.666147 
L 348.861011 -130.766501 
L 348.573626 -132.866855 
L 348.25352 -134.967209 
L 347.879452 -137.067563 
L 347.428449 -139.167917 
L 346.876752 -141.268271 
L 346.200893 -143.368625 
L 345.378862 -145.468979 
L 344.391316 -147.569333 
L 343.222773 -149.669687 
L 341.862727 -151.770041 
L 340.306638 -153.870395 
L 338.556733 -155.970749 
L 336.622574 -158.071103 
L 334.52135 -160.171457 
L 332.277861 -162.271811 
L 329.924181 -164.372165 
L 327.498975 -166.472519 
L 325.046517 -168.572873 
L 322.615393 -170.673228 
L 320.256966 -172.773582 
L 318.023645 -174.873936 
L 315.967038 -176.97429 
L 314.136067 -179.074644 
L 312.575139 -181.174998 
L 311.32246 -183.275352 
L 310.408584 -185.375706 
L 309.855255 -187.47606 
L 309.674625 -189.576414 
L 309.868867 -191.676768 
L 310.43021 -193.777122 
L 311.341374 -195.877476 
L 312.576401 -197.97783 
L 314.101787 -200.078184 
L 315.877891 -202.178538 
L 317.860509 -204.278892 
L 320.002544 -206.379246 
L 322.255687 -208.4796 
L 324.57203 -210.579954 
L 326.905554 -212.680308 
L 329.213429 -214.780662 
L 331.457105 -216.881016 
L 333.603162 -218.98137 
L 335.623926 -221.081724 
L 337.49783 -223.182078 
L 339.209566 -225.282433 
L 340.750014 -227.382787 
L 342.115991 -229.483141 
L 343.309832 -231.583495 
L 344.33882 -233.683849 
L 345.214507 -235.784203 
L 345.951934 -237.884557 
L 346.568781 -239.984911 
L 347.084477 -242.085265 
L 347.519303 -244.185619 
L 347.893514 -246.285973 
L 348.226516 -248.386327 
L 348.536135 -250.486681 
L 348.838003 -252.587035 
L 349.145087 -254.687389 
L 349.467375 -256.787743 
L 349.811742 -258.888097 
L 350.181969 -260.988451 
L 350.578927 -263.088805 
L 351.000896 -265.189159 
L 351.443984 -267.289513 
L 351.902629 -269.389867 
L 352.370127 -271.490221 
L 352.83917 -273.590575 
L 353.302347 -275.690929 
L 353.752588 -277.791283 
L 354.183523 -279.891638 
L 354.589764 -281.991992 
L 354.967071 -284.092346 
L 355.312438 -286.1927 
L 355.624093 -288.293054 
L 355.90142 -290.393408 
L 356.144837 -292.493762 
L 356.355625 -294.594116 
L 358.225625 -294.594116 
L 358.225625 -294.594116 
L 358.436413 -292.493762 
L 358.67983 -290.393408 
L 358.957157 -288.293054 
L 359.268812 -286.1927 
L 359.614179 -284.092346 
L 359.991486 -281.991992 
L 360.397727 -279.891638 
L 360.828662 -277.791283 
L 361.278903 -275.690929 
L 361.74208 -273.590575 
L 362.211123 -271.490221 
L 362.678621 -269.389867 
L 363.137266 -267.289513 
L 363.580354 -265.189159 
L 364.002323 -263.088805 
L 364.399281 -260.988451 
L 364.769508 -258.888097 
L 365.113875 -256.787743 
L 365.436163 -254.687389 
L 365.743247 -252.587035 
L 366.045115 -250.486681 
L 366.354734 -248.386327 
L 366.687736 -246.285973 
L 367.061947 -244.185619 
L 367.496773 -242.085265 
L 368.012469 -239.984911 
L 368.629316 -237.884557 
L 369.366743 -235.784203 
L 370.24243 -233.683849 
L 371.271418 -231.583495 
L 372.465259 -229.483141 
L 373.831236 -227.382787 
L 375.371684 -225.282433 
L 377.08342 -223.182078 
L 378.957324 -221.081724 
L 380.978088 -218.98137 
L 383.124145 -216.881016 
L 385.367821 -214.780662 
L 387.675696 -212.680308 
L 390.00922 -210.579954 
L 392.325563 -208.4796 
L 394.578706 -206.379246 
L 396.720741 -204.278892 
L 398.703359 -202.178538 
L 400.479463 -200.078184 
L 402.004849 -197.97783 
L 403.239876 -195.877476 
L 404.15104 -193.777122 
L 404.712383 -191.676768 
L 404.906625 -189.576414 
L 404.725995 -187.47606 
L 404.172666 -185.375706 
L 403.25879 -183.275352 
L 402.006111 -181.174998 
L 400.445183 -179.074644 
L 398.614212 -176.97429 
L 396.557605 -174.873936 
L 394.324284 -172.773582 
L 391.965857 -170.673228 
L 389.534733 -168.572873 
L 387.082275 -166.472519 
L 384.657069 -164.372165 
L 382.303389 -162.271811 
L 380.0599 -160.171457 
L 377.958676 -158.071103 
L 376.024517 -155.970749 
L 374.274612 -153.870395 
L 372.718523 -151.770041 
L 371.358477 -149.669687 
L 370.189934 -147.569333 
L 369.202388 -145.468979 
L 368.380357 -143.368625 
L 367.704498 -141.268271 
L 367.152801 -139.167917 
L 366.701798 -137.067563 
L 366.32773 -134.967209 
L 366.007624 -132.866855 
L 365.720239 -130.766501 
L 365.446835 -128.666147 
L 365.171751 -126.565793 
L 364.88277 -124.465439 
L 364.571276 -122.365085 
L 364.232205 -120.264731 
L 363.863821 -118.164377 
L 363.46734 -116.064023 
L 363.046438 -113.963668 
L 362.606685 -111.863314 
L 362.154952 -109.76296 
L 361.698822 -107.662606 
L 361.246037 -105.562252 
L 360.804022 -103.461898 
L 360.379491 -101.361544 
L 359.978163 -99.26119 
L 359.604567 -97.160836 
L 359.261963 -95.060482 
L 358.952338 -92.960128 
L 358.676479 -90.859774 
L 358.434112 -88.75942 
L 358.224064 -86.659066 
z
" id="m133eaa7095" style="stroke:#3f3f3f;stroke-width:1.5;"/>
    </defs>
    <g clip-path="url(#pd39ef2c65e)">
     <use style="fill:#3274a1;stroke:#3f3f3f;stroke-width:1.5;" x="0" xlink:href="#m133eaa7095" y="358.280615"/>
    </g>
   </g>
   <g id="matplotlib.axis_1">
    <g id="xtick_1">
     <g id="line2d_1">
      <defs>
       <path d="M 0 0 
L 0 3.5 
" id="m8a3aca267c" style="stroke:#000000;stroke-width:0.8;"/>
      </defs>
      <g>
       <use style="stroke:#000000;stroke-width:0.8;" x="119.210625" xlink:href="#m8a3aca267c" y="288.430125"/>
      </g>
     </g>
     <g id="text_1">
      <!-- develop_16 -->
      <g transform="translate(68.197369 330.78244)rotate(-30)scale(0.1 -0.1)">
       <defs>
        <path d="M 45.40625 46.390625 
L 45.40625 75.984375 
L 54.390625 75.984375 
L 54.390625 0 
L 45.40625 0 
L 45.40625 8.203125 
Q 42.578125 3.328125 38.25 0.953125 
Q 33.9375 -1.421875 27.875 -1.421875 
Q 17.96875 -1.421875 11.734375 6.484375 
Q 5.515625 14.40625 5.515625 27.296875 
Q 5.515625 40.1875 11.734375 48.09375 
Q 17.96875 56 27.875 56 
Q 33.9375 56 38.25 53.625 
Q 42.578125 51.265625 45.40625 46.390625 
z
M 14.796875 27.296875 
Q 14.796875 17.390625 18.875 11.75 
Q 22.953125 6.109375 30.078125 6.109375 
Q 37.203125 6.109375 41.296875 11.75 
Q 45.40625 17.390625 45.40625 27.296875 
Q 45.40625 37.203125 41.296875 42.84375 
Q 37.203125 48.484375 30.078125 48.484375 
Q 22.953125 48.484375 18.875 42.84375 
Q 14.796875 37.203125 14.796875 27.296875 
z
" id="DejaVuSans-100"/>
        <path d="M 56.203125 29.59375 
L 56.203125 25.203125 
L 14.890625 25.203125 
Q 15.484375 15.921875 20.484375 11.0625 
Q 25.484375 6.203125 34.421875 6.203125 
Q 39.59375 6.203125 44.453125 7.46875 
Q 49.3125 8.734375 54.109375 11.28125 
L 54.109375 2.78125 
Q 49.265625 0.734375 44.1875 -0.34375 
Q 39.109375 -1.421875 33.890625 -1.421875 
Q 20.796875 -1.421875 13.15625 6.1875 
Q 5.515625 13.8125 5.515625 26.8125 
Q 5.515625 40.234375 12.765625 48.109375 
Q 20.015625 56 32.328125 56 
Q 43.359375 56 49.78125 48.890625 
Q 56.203125 41.796875 56.203125 29.59375 
z
M 47.21875 32.234375 
Q 47.125 39.59375 43.09375 43.984375 
Q 39.0625 48.390625 32.421875 48.390625 
Q 24.90625 48.390625 20.390625 44.140625 
Q 15.875 39.890625 15.1875 32.171875 
z
" id="DejaVuSans-101"/>
        <path d="M 2.984375 54.6875 
L 12.5 54.6875 
L 29.59375 8.796875 
L 46.6875 54.6875 
L 56.203125 54.6875 
L 35.6875 0 
L 23.484375 0 
z
" id="DejaVuSans-118"/>
        <path d="M 9.421875 75.984375 
L 18.40625 75.984375 
L 18.40625 0 
L 9.421875 0 
z
" id="DejaVuSans-108"/>
        <path d="M 30.609375 48.390625 
Q 23.390625 48.390625 19.1875 42.75 
Q 14.984375 37.109375 14.984375 27.296875 
Q 14.984375 17.484375 19.15625 11.84375 
Q 23.34375 6.203125 30.609375 6.203125 
Q 37.796875 6.203125 41.984375 11.859375 
Q 46.1875 17.53125 46.1875 27.296875 
Q 46.1875 37.015625 41.984375 42.703125 
Q 37.796875 48.390625 30.609375 48.390625 
z
M 30.609375 56 
Q 42.328125 56 49.015625 48.375 
Q 55.71875 40.765625 55.71875 27.296875 
Q 55.71875 13.875 49.015625 6.21875 
Q 42.328125 -1.421875 30.609375 -1.421875 
Q 18.84375 -1.421875 12.171875 6.21875 
Q 5.515625 13.875 5.515625 27.296875 
Q 5.515625 40.765625 12.171875 48.375 
Q 18.84375 56 30.609375 56 
z
" id="DejaVuSans-111"/>
        <path d="M 18.109375 8.203125 
L 18.109375 -20.796875 
L 9.078125 -20.796875 
L 9.078125 54.6875 
L 18.109375 54.6875 
L 18.109375 46.390625 
Q 20.953125 51.265625 25.265625 53.625 
Q 29.59375 56 35.59375 56 
Q 45.5625 56 51.78125 48.09375 
Q 58.015625 40.1875 58.015625 27.296875 
Q 58.015625 14.40625 51.78125 6.484375 
Q 45.5625 -1.421875 35.59375 -1.421875 
Q 29.59375 -1.421875 25.265625 0.953125 
Q 20.953125 3.328125 18.109375 8.203125 
z
M 48.6875 27.296875 
Q 48.6875 37.203125 44.609375 42.84375 
Q 40.53125 48.484375 33.40625 48.484375 
Q 26.265625 48.484375 22.1875 42.84375 
Q 18.109375 37.203125 18.109375 27.296875 
Q 18.109375 17.390625 22.1875 11.75 
Q 26.265625 6.109375 33.40625 6.109375 
Q 40.53125 6.109375 44.609375 11.75 
Q 48.6875 17.390625 48.6875 27.296875 
z
" id="DejaVuSans-112"/>
        <path d="M 50.984375 -16.609375 
L 50.984375 -23.578125 
L -0.984375 -23.578125 
L -0.984375 -16.609375 
z
" id="DejaVuSans-95"/>
        <path d="M 12.40625 8.296875 
L 28.515625 8.296875 
L 28.515625 63.921875 
L 10.984375 60.40625 
L 10.984375 69.390625 
L 28.421875 72.90625 
L 38.28125 72.90625 
L 38.28125 8.296875 
L 54.390625 8.296875 
L 54.390625 0 
L 12.40625 0 
z
" id="DejaVuSans-49"/>
        <path d="M 33.015625 40.375 
Q 26.375 40.375 22.484375 35.828125 
Q 18.609375 31.296875 18.609375 23.390625 
Q 18.609375 15.53125 22.484375 10.953125 
Q 26.375 6.390625 33.015625 6.390625 
Q 39.65625 6.390625 43.53125 10.953125 
Q 47.40625 15.53125 47.40625 23.390625 
Q 47.40625 31.296875 43.53125 35.828125 
Q 39.65625 40.375 33.015625 40.375 
z
M 52.59375 71.296875 
L 52.59375 62.3125 
Q 48.875 64.0625 45.09375 64.984375 
Q 41.3125 65.921875 37.59375 65.921875 
Q 27.828125 65.921875 22.671875 59.328125 
Q 17.53125 52.734375 16.796875 39.40625 
Q 19.671875 43.65625 24.015625 45.921875 
Q 28.375 48.1875 33.59375 48.1875 
Q 44.578125 48.1875 50.953125 41.515625 
Q 57.328125 34.859375 57.328125 23.390625 
Q 57.328125 12.15625 50.6875 5.359375 
Q 44.046875 -1.421875 33.015625 -1.421875 
Q 20.359375 -1.421875 13.671875 8.265625 
Q 6.984375 17.96875 6.984375 36.375 
Q 6.984375 53.65625 15.1875 63.9375 
Q 23.390625 74.21875 37.203125 74.21875 
Q 40.921875 74.21875 44.703125 73.484375 
Q 48.484375 72.75 52.59375 71.296875 
z
" id="DejaVuSans-54"/>
       </defs>
       <use xlink:href="#DejaVuSans-100"/>
       <use x="63.476562" xlink:href="#DejaVuSans-101"/>
       <use x="125" xlink:href="#DejaVuSans-118"/>
       <use x="184.179688" xlink:href="#DejaVuSans-101"/>
       <use x="245.703125" xlink:href="#DejaVuSans-108"/>
       <use x="273.486328" xlink:href="#DejaVuSans-111"/>
       <use x="334.667969" xlink:href="#DejaVuSans-112"/>
       <use x="398.144531" xlink:href="#DejaVuSans-95"/>
       <use x="448.144531" xlink:href="#DejaVuSans-49"/>
       <use x="511.767578" xlink:href="#DejaVuSans-54"/>
      </g>
     </g>
    </g>
    <g id="xtick_2">
     <g id="line2d_2">
      <g>
       <use style="stroke:#000000;stroke-width:0.8;" x="238.250625" xlink:href="#m8a3aca267c" y="288.430125"/>
      </g>
     </g>
     <g id="text_2">
      <!-- develop_32 -->
      <g transform="translate(187.237369 330.78244)rotate(-30)scale(0.1 -0.1)">
       <defs>
        <path d="M 40.578125 39.3125 
Q 47.65625 37.796875 51.625 33 
Q 55.609375 28.21875 55.609375 21.1875 
Q 55.609375 10.40625 48.1875 4.484375 
Q 40.765625 -1.421875 27.09375 -1.421875 
Q 22.515625 -1.421875 17.65625 -0.515625 
Q 12.796875 0.390625 7.625 2.203125 
L 7.625 11.71875 
Q 11.71875 9.328125 16.59375 8.109375 
Q 21.484375 6.890625 26.8125 6.890625 
Q 36.078125 6.890625 40.9375 10.546875 
Q 45.796875 14.203125 45.796875 21.1875 
Q 45.796875 27.640625 41.28125 31.265625 
Q 36.765625 34.90625 28.71875 34.90625 
L 20.21875 34.90625 
L 20.21875 43.015625 
L 29.109375 43.015625 
Q 36.375 43.015625 40.234375 45.921875 
Q 44.09375 48.828125 44.09375 54.296875 
Q 44.09375 59.90625 40.109375 62.90625 
Q 36.140625 65.921875 28.71875 65.921875 
Q 24.65625 65.921875 20.015625 65.03125 
Q 15.375 64.15625 9.8125 62.3125 
L 9.8125 71.09375 
Q 15.4375 72.65625 20.34375 73.4375 
Q 25.25 74.21875 29.59375 74.21875 
Q 40.828125 74.21875 47.359375 69.109375 
Q 53.90625 64.015625 53.90625 55.328125 
Q 53.90625 49.265625 50.4375 45.09375 
Q 46.96875 40.921875 40.578125 39.3125 
z
" id="DejaVuSans-51"/>
        <path d="M 19.1875 8.296875 
L 53.609375 8.296875 
L 53.609375 0 
L 7.328125 0 
L 7.328125 8.296875 
Q 12.9375 14.109375 22.625 23.890625 
Q 32.328125 33.6875 34.8125 36.53125 
Q 39.546875 41.84375 41.421875 45.53125 
Q 43.3125 49.21875 43.3125 52.78125 
Q 43.3125 58.59375 39.234375 62.25 
Q 35.15625 65.921875 28.609375 65.921875 
Q 23.96875 65.921875 18.8125 64.3125 
Q 13.671875 62.703125 7.8125 59.421875 
L 7.8125 69.390625 
Q 13.765625 71.78125 18.9375 73 
Q 24.125 74.21875 28.421875 74.21875 
Q 39.75 74.21875 46.484375 68.546875 
Q 53.21875 62.890625 53.21875 53.421875 
Q 53.21875 48.921875 51.53125 44.890625 
Q 49.859375 40.875 45.40625 35.40625 
Q 44.1875 33.984375 37.640625 27.21875 
Q 31.109375 20.453125 19.1875 8.296875 
z
" id="DejaVuSans-50"/>
       </defs>
       <use xlink:href="#DejaVuSans-100"/>
       <use x="63.476562" xlink:href="#DejaVuSans-101"/>
       <use x="125" xlink:href="#DejaVuSans-118"/>
       <use x="184.179688" xlink:href="#DejaVuSans-101"/>
       <use x="245.703125" xlink:href="#DejaVuSans-108"/>
       <use x="273.486328" xlink:href="#DejaVuSans-111"/>
       <use x="334.667969" xlink:href="#DejaVuSans-112"/>
       <use x="398.144531" xlink:href="#DejaVuSans-95"/>
       <use x="448.144531" xlink:href="#DejaVuSans-51"/>
       <use x="511.767578" xlink:href="#DejaVuSans-50"/>
      </g>
     </g>
    </g>
    <g id="xtick_3">
     <g id="line2d_3">
      <g>
       <use style="stroke:#000000;stroke-width:0.8;" x="357.290625" xlink:href="#m8a3aca267c" y="288.430125"/>
      </g>
     </g>
     <g id="text_3">
      <!-- dark_stop_32 -->
      <g transform="translate(298.347824 335.360565)rotate(-30)scale(0.1 -0.1)">
       <defs>
        <path d="M 34.28125 27.484375 
Q 23.390625 27.484375 19.1875 25 
Q 14.984375 22.515625 14.984375 16.5 
Q 14.984375 11.71875 18.140625 8.90625 
Q 21.296875 6.109375 26.703125 6.109375 
Q 34.1875 6.109375 38.703125 11.40625 
Q 43.21875 16.703125 43.21875 25.484375 
L 43.21875 27.484375 
z
M 52.203125 31.203125 
L 52.203125 0 
L 43.21875 0 
L 43.21875 8.296875 
Q 40.140625 3.328125 35.546875 0.953125 
Q 30.953125 -1.421875 24.3125 -1.421875 
Q 15.921875 -1.421875 10.953125 3.296875 
Q 6 8.015625 6 15.921875 
Q 6 25.140625 12.171875 29.828125 
Q 18.359375 34.515625 30.609375 34.515625 
L 43.21875 34.515625 
L 43.21875 35.40625 
Q 43.21875 41.609375 39.140625 45 
Q 35.0625 48.390625 27.6875 48.390625 
Q 23 48.390625 18.546875 47.265625 
Q 14.109375 46.140625 10.015625 43.890625 
L 10.015625 52.203125 
Q 14.9375 54.109375 19.578125 55.046875 
Q 24.21875 56 28.609375 56 
Q 40.484375 56 46.34375 49.84375 
Q 52.203125 43.703125 52.203125 31.203125 
z
" id="DejaVuSans-97"/>
        <path d="M 41.109375 46.296875 
Q 39.59375 47.171875 37.8125 47.578125 
Q 36.03125 48 33.890625 48 
Q 26.265625 48 22.1875 43.046875 
Q 18.109375 38.09375 18.109375 28.8125 
L 18.109375 0 
L 9.078125 0 
L 9.078125 54.6875 
L 18.109375 54.6875 
L 18.109375 46.1875 
Q 20.953125 51.171875 25.484375 53.578125 
Q 30.03125 56 36.53125 56 
Q 37.453125 56 38.578125 55.875 
Q 39.703125 55.765625 41.0625 55.515625 
z
" id="DejaVuSans-114"/>
        <path d="M 9.078125 75.984375 
L 18.109375 75.984375 
L 18.109375 31.109375 
L 44.921875 54.6875 
L 56.390625 54.6875 
L 27.390625 29.109375 
L 57.625 0 
L 45.90625 0 
L 18.109375 26.703125 
L 18.109375 0 
L 9.078125 0 
z
" id="DejaVuSans-107"/>
        <path d="M 44.28125 53.078125 
L 44.28125 44.578125 
Q 40.484375 46.53125 36.375 47.5 
Q 32.28125 48.484375 27.875 48.484375 
Q 21.1875 48.484375 17.84375 46.4375 
Q 14.5 44.390625 14.5 40.28125 
Q 14.5 37.15625 16.890625 35.375 
Q 19.28125 33.59375 26.515625 31.984375 
L 29.59375 31.296875 
Q 39.15625 29.25 43.1875 25.515625 
Q 47.21875 21.78125 47.21875 15.09375 
Q 47.21875 7.46875 41.1875 3.015625 
Q 35.15625 -1.421875 24.609375 -1.421875 
Q 20.21875 -1.421875 15.453125 -0.5625 
Q 10.6875 0.296875 5.421875 2 
L 5.421875 11.28125 
Q 10.40625 8.6875 15.234375 7.390625 
Q 20.0625 6.109375 24.8125 6.109375 
Q 31.15625 6.109375 34.5625 8.28125 
Q 37.984375 10.453125 37.984375 14.40625 
Q 37.984375 18.0625 35.515625 20.015625 
Q 33.0625 21.96875 24.703125 23.78125 
L 21.578125 24.515625 
Q 13.234375 26.265625 9.515625 29.90625 
Q 5.8125 33.546875 5.8125 39.890625 
Q 5.8125 47.609375 11.28125 51.796875 
Q 16.75 56 26.8125 56 
Q 31.78125 56 36.171875 55.265625 
Q 40.578125 54.546875 44.28125 53.078125 
z
" id="DejaVuSans-115"/>
        <path d="M 18.3125 70.21875 
L 18.3125 54.6875 
L 36.8125 54.6875 
L 36.8125 47.703125 
L 18.3125 47.703125 
L 18.3125 18.015625 
Q 18.3125 11.328125 20.140625 9.421875 
Q 21.96875 7.515625 27.59375 7.515625 
L 36.8125 7.515625 
L 36.8125 0 
L 27.59375 0 
Q 17.1875 0 13.234375 3.875 
Q 9.28125 7.765625 9.28125 18.015625 
L 9.28125 47.703125 
L 2.6875 47.703125 
L 2.6875 54.6875 
L 9.28125 54.6875 
L 9.28125 70.21875 
z
" id="DejaVuSans-116"/>
       </defs>
       <use xlink:href="#DejaVuSans-100"/>
       <use x="63.476562" xlink:href="#DejaVuSans-97"/>
       <use x="124.755859" xlink:href="#DejaVuSans-114"/>
       <use x="165.869141" xlink:href="#DejaVuSans-107"/>
       <use x="223.779297" xlink:href="#DejaVuSans-95"/>
       <use x="273.779297" xlink:href="#DejaVuSans-115"/>
       <use x="325.878906" xlink:href="#DejaVuSans-116"/>
       <use x="365.087891" xlink:href="#DejaVuSans-111"/>
       <use x="426.269531" xlink:href="#DejaVuSans-112"/>
       <use x="489.746094" xlink:href="#DejaVuSans-95"/>
       <use x="539.746094" xlink:href="#DejaVuSans-51"/>
       <use x="603.369141" xlink:href="#DejaVuSans-50"/>
      </g>
     </g>
    </g>
    <g id="text_4">
     <!-- Fuzzer (highest median coverage on the left) -->
     <g transform="translate(125.632656 349.000928)scale(0.1 -0.1)">
      <defs>
       <path d="M 9.8125 72.90625 
L 51.703125 72.90625 
L 51.703125 64.59375 
L 19.671875 64.59375 
L 19.671875 43.109375 
L 48.578125 43.109375 
L 48.578125 34.8125 
L 19.671875 34.8125 
L 19.671875 0 
L 9.8125 0 
z
" id="DejaVuSans-70"/>
       <path d="M 8.5 21.578125 
L 8.5 54.6875 
L 17.484375 54.6875 
L 17.484375 21.921875 
Q 17.484375 14.15625 20.5 10.265625 
Q 23.53125 6.390625 29.59375 6.390625 
Q 36.859375 6.390625 41.078125 11.03125 
Q 45.3125 15.671875 45.3125 23.6875 
L 45.3125 54.6875 
L 54.296875 54.6875 
L 54.296875 0 
L 45.3125 0 
L 45.3125 8.40625 
Q 42.046875 3.421875 37.71875 1 
Q 33.40625 -1.421875 27.6875 -1.421875 
Q 18.265625 -1.421875 13.375 4.4375 
Q 8.5 10.296875 8.5 21.578125 
z
M 31.109375 56 
z
" id="DejaVuSans-117"/>
       <path d="M 5.515625 54.6875 
L 48.1875 54.6875 
L 48.1875 46.484375 
L 14.40625 7.171875 
L 48.1875 7.171875 
L 48.1875 0 
L 4.296875 0 
L 4.296875 8.203125 
L 38.09375 47.515625 
L 5.515625 47.515625 
z
" id="DejaVuSans-122"/>
       <path id="DejaVuSans-32"/>
       <path d="M 31 75.875 
Q 24.46875 64.65625 21.28125 53.65625 
Q 18.109375 42.671875 18.109375 31.390625 
Q 18.109375 20.125 21.3125 9.0625 
Q 24.515625 -2 31 -13.1875 
L 23.1875 -13.1875 
Q 15.875 -1.703125 12.234375 9.375 
Q 8.59375 20.453125 8.59375 31.390625 
Q 8.59375 42.28125 12.203125 53.3125 
Q 15.828125 64.359375 23.1875 75.875 
z
" id="DejaVuSans-40"/>
       <path d="M 54.890625 33.015625 
L 54.890625 0 
L 45.90625 0 
L 45.90625 32.71875 
Q 45.90625 40.484375 42.875 44.328125 
Q 39.84375 48.1875 33.796875 48.1875 
Q 26.515625 48.1875 22.3125 43.546875 
Q 18.109375 38.921875 18.109375 30.90625 
L 18.109375 0 
L 9.078125 0 
L 9.078125 75.984375 
L 18.109375 75.984375 
L 18.109375 46.1875 
Q 21.34375 51.125 25.703125 53.5625 
Q 30.078125 56 35.796875 56 
Q 45.21875 56 50.046875 50.171875 
Q 54.890625 44.34375 54.890625 33.015625 
z
" id="DejaVuSans-104"/>
       <path d="M 9.421875 54.6875 
L 18.40625 54.6875 
L 18.40625 0 
L 9.421875 0 
z
M 9.421875 75.984375 
L 18.40625 75.984375 
L 18.40625 64.59375 
L 9.421875 64.59375 
z
" id="DejaVuSans-105"/>
       <path d="M 45.40625 27.984375 
Q 45.40625 37.75 41.375 43.109375 
Q 37.359375 48.484375 30.078125 48.484375 
Q 22.859375 48.484375 18.828125 43.109375 
Q 14.796875 37.75 14.796875 27.984375 
Q 14.796875 18.265625 18.828125 12.890625 
Q 22.859375 7.515625 30.078125 7.515625 
Q 37.359375 7.515625 41.375 12.890625 
Q 45.40625 18.265625 45.40625 27.984375 
z
M 54.390625 6.78125 
Q 54.390625 -7.171875 48.1875 -13.984375 
Q 42 -20.796875 29.203125 -20.796875 
Q 24.46875 -20.796875 20.265625 -20.09375 
Q 16.0625 -19.390625 12.109375 -17.921875 
L 12.109375 -9.1875 
Q 16.0625 -11.328125 19.921875 -12.34375 
Q 23.78125 -13.375 27.78125 -13.375 
Q 36.625 -13.375 41.015625 -8.765625 
Q 45.40625 -4.15625 45.40625 5.171875 
L 45.40625 9.625 
Q 42.625 4.78125 38.28125 2.390625 
Q 33.9375 0 27.875 0 
Q 17.828125 0 11.671875 7.65625 
Q 5.515625 15.328125 5.515625 27.984375 
Q 5.515625 40.671875 11.671875 48.328125 
Q 17.828125 56 27.875 56 
Q 33.9375 56 38.28125 53.609375 
Q 42.625 51.21875 45.40625 46.390625 
L 45.40625 54.6875 
L 54.390625 54.6875 
z
" id="DejaVuSans-103"/>
       <path d="M 52 44.1875 
Q 55.375 50.25 60.0625 53.125 
Q 64.75 56 71.09375 56 
Q 79.640625 56 84.28125 50.015625 
Q 88.921875 44.046875 88.921875 33.015625 
L 88.921875 0 
L 79.890625 0 
L 79.890625 32.71875 
Q 79.890625 40.578125 77.09375 44.375 
Q 74.3125 48.1875 68.609375 48.1875 
Q 61.625 48.1875 57.5625 43.546875 
Q 53.515625 38.921875 53.515625 30.90625 
L 53.515625 0 
L 44.484375 0 
L 44.484375 32.71875 
Q 44.484375 40.625 41.703125 44.40625 
Q 38.921875 48.1875 33.109375 48.1875 
Q 26.21875 48.1875 22.15625 43.53125 
Q 18.109375 38.875 18.109375 30.90625 
L 18.109375 0 
L 9.078125 0 
L 9.078125 54.6875 
L 18.109375 54.6875 
L 18.109375 46.1875 
Q 21.1875 51.21875 25.484375 53.609375 
Q 29.78125 56 35.6875 56 
Q 41.65625 56 45.828125 52.96875 
Q 50 49.953125 52 44.1875 
z
" id="DejaVuSans-109"/>
       <path d="M 54.890625 33.015625 
L 54.890625 0 
L 45.90625 0 
L 45.90625 32.71875 
Q 45.90625 40.484375 42.875 44.328125 
Q 39.84375 48.1875 33.796875 48.1875 
Q 26.515625 48.1875 22.3125 43.546875 
Q 18.109375 38.921875 18.109375 30.90625 
L 18.109375 0 
L 9.078125 0 
L 9.078125 54.6875 
L 18.109375 54.6875 
L 18.109375 46.1875 
Q 21.34375 51.125 25.703125 53.5625 
Q 30.078125 56 35.796875 56 
Q 45.21875 56 50.046875 50.171875 
Q 54.890625 44.34375 54.890625 33.015625 
z
" id="DejaVuSans-110"/>
       <path d="M 48.78125 52.59375 
L 48.78125 44.1875 
Q 44.96875 46.296875 41.140625 47.34375 
Q 37.3125 48.390625 33.40625 48.390625 
Q 24.65625 48.390625 19.8125 42.84375 
Q 14.984375 37.3125 14.984375 27.296875 
Q 14.984375 17.28125 19.8125 11.734375 
Q 24.65625 6.203125 33.40625 6.203125 
Q 37.3125 6.203125 41.140625 7.25 
Q 44.96875 8.296875 48.78125 10.40625 
L 48.78125 2.09375 
Q 45.015625 0.34375 40.984375 -0.53125 
Q 36.96875 -1.421875 32.421875 -1.421875 
Q 20.0625 -1.421875 12.78125 6.34375 
Q 5.515625 14.109375 5.515625 27.296875 
Q 5.515625 40.671875 12.859375 48.328125 
Q 20.21875 56 33.015625 56 
Q 37.15625 56 41.109375 55.140625 
Q 45.0625 54.296875 48.78125 52.59375 
z
" id="DejaVuSans-99"/>
       <path d="M 37.109375 75.984375 
L 37.109375 68.5 
L 28.515625 68.5 
Q 23.6875 68.5 21.796875 66.546875 
Q 19.921875 64.59375 19.921875 59.515625 
L 19.921875 54.6875 
L 34.71875 54.6875 
L 34.71875 47.703125 
L 19.921875 47.703125 
L 19.921875 0 
L 10.890625 0 
L 10.890625 47.703125 
L 2.296875 47.703125 
L 2.296875 54.6875 
L 10.890625 54.6875 
L 10.890625 58.5 
Q 10.890625 67.625 15.140625 71.796875 
Q 19.390625 75.984375 28.609375 75.984375 
z
" id="DejaVuSans-102"/>
       <path d="M 8.015625 75.875 
L 15.828125 75.875 
Q 23.140625 64.359375 26.78125 53.3125 
Q 30.421875 42.28125 30.421875 31.390625 
Q 30.421875 20.453125 26.78125 9.375 
Q 23.140625 -1.703125 15.828125 -13.1875 
L 8.015625 -13.1875 
Q 14.5 -2 17.703125 9.0625 
Q 20.90625 20.125 20.90625 31.390625 
Q 20.90625 42.671875 17.703125 53.65625 
Q 14.5 64.65625 8.015625 75.875 
z
" id="DejaVuSans-41"/>
      </defs>
      <use xlink:href="#DejaVuSans-70"/>
      <use x="52.019531" xlink:href="#DejaVuSans-117"/>
      <use x="115.398438" xlink:href="#DejaVuSans-122"/>
      <use x="167.888672" xlink:href="#DejaVuSans-122"/>
      <use x="220.378906" xlink:href="#DejaVuSans-101"/>
      <use x="281.902344" xlink:href="#DejaVuSans-114"/>
      <use x="323.015625" xlink:href="#DejaVuSans-32"/>
      <use x="354.802734" xlink:href="#DejaVuSans-40"/>
      <use x="393.816406" xlink:href="#DejaVuSans-104"/>
      <use x="457.195312" xlink:href="#DejaVuSans-105"/>
      <use x="484.978516" xlink:href="#DejaVuSans-103"/>
      <use x="548.455078" xlink:href="#DejaVuSans-104"/>
      <use x="611.833984" xlink:href="#DejaVuSans-101"/>
      <use x="673.357422" xlink:href="#DejaVuSans-115"/>
      <use x="725.457031" xlink:href="#DejaVuSans-116"/>
      <use x="764.666016" xlink:href="#DejaVuSans-32"/>
      <use x="796.453125" xlink:href="#DejaVuSans-109"/>
      <use x="893.865234" xlink:href="#DejaVuSans-101"/>
      <use x="955.388672" xlink:href="#DejaVuSans-100"/>
      <use x="1018.865234" xlink:href="#DejaVuSans-105"/>
      <use x="1046.648438" xlink:href="#DejaVuSans-97"/>
      <use x="1107.927734" xlink:href="#DejaVuSans-110"/>
      <use x="1171.306641" xlink:href="#DejaVuSans-32"/>
      <use x="1203.09375" xlink:href="#DejaVuSans-99"/>
      <use x="1258.074219" xlink:href="#DejaVuSans-111"/>
      <use x="1319.255859" xlink:href="#DejaVuSans-118"/>
      <use x="1378.435547" xlink:href="#DejaVuSans-101"/>
      <use x="1439.958984" xlink:href="#DejaVuSans-114"/>
      <use x="1481.072266" xlink:href="#DejaVuSans-97"/>
      <use x="1542.351562" xlink:href="#DejaVuSans-103"/>
      <use x="1605.828125" xlink:href="#DejaVuSans-101"/>
      <use x="1667.351562" xlink:href="#DejaVuSans-32"/>
      <use x="1699.138672" xlink:href="#DejaVuSans-111"/>
      <use x="1760.320312" xlink:href="#DejaVuSans-110"/>
      <use x="1823.699219" xlink:href="#DejaVuSans-32"/>
      <use x="1855.486328" xlink:href="#DejaVuSans-116"/>
      <use x="1894.695312" xlink:href="#DejaVuSans-104"/>
      <use x="1958.074219" xlink:href="#DejaVuSans-101"/>
      <use x="2019.597656" xlink:href="#DejaVuSans-32"/>
      <use x="2051.384766" xlink:href="#DejaVuSans-108"/>
      <use x="2079.167969" xlink:href="#DejaVuSans-101"/>
      <use x="2140.691406" xlink:href="#DejaVuSans-102"/>
      <use x="2174.146484" xlink:href="#DejaVuSans-116"/>
      <use x="2213.355469" xlink:href="#DejaVuSans-41"/>
     </g>
    </g>
   </g>
   <g id="matplotlib.axis_2">
    <g id="ytick_1">
     <g id="line2d_4">
      <defs>
       <path d="M 0 0 
L -3.5 0 
" id="md7afaf4cd0" style="stroke:#000000;stroke-width:0.8;"/>
      </defs>
      <g>
       <use style="stroke:#000000;stroke-width:0.8;" x="59.690625" xlink:href="#md7afaf4cd0" y="273.761894"/>
      </g>
     </g>
     <g id="text_5">
      <!-- 15500 -->
      <g transform="translate(20.878125 277.561113)scale(0.1 -0.1)">
       <defs>
        <path d="M 10.796875 72.90625 
L 49.515625 72.90625 
L 49.515625 64.59375 
L 19.828125 64.59375 
L 19.828125 46.734375 
Q 21.96875 47.46875 24.109375 47.828125 
Q 26.265625 48.1875 28.421875 48.1875 
Q 40.625 48.1875 47.75 41.5 
Q 54.890625 34.8125 54.890625 23.390625 
Q 54.890625 11.625 47.5625 5.09375 
Q 40.234375 -1.421875 26.90625 -1.421875 
Q 22.3125 -1.421875 17.546875 -0.640625 
Q 12.796875 0.140625 7.71875 1.703125 
L 7.71875 11.625 
Q 12.109375 9.234375 16.796875 8.0625 
Q 21.484375 6.890625 26.703125 6.890625 
Q 35.15625 6.890625 40.078125 11.328125 
Q 45.015625 15.765625 45.015625 23.390625 
Q 45.015625 31 40.078125 35.4375 
Q 35.15625 39.890625 26.703125 39.890625 
Q 22.75 39.890625 18.8125 39.015625 
Q 14.890625 38.140625 10.796875 36.28125 
z
" id="DejaVuSans-53"/>
        <path d="M 31.78125 66.40625 
Q 24.171875 66.40625 20.328125 58.90625 
Q 16.5 51.421875 16.5 36.375 
Q 16.5 21.390625 20.328125 13.890625 
Q 24.171875 6.390625 31.78125 6.390625 
Q 39.453125 6.390625 43.28125 13.890625 
Q 47.125 21.390625 47.125 36.375 
Q 47.125 51.421875 43.28125 58.90625 
Q 39.453125 66.40625 31.78125 66.40625 
z
M 31.78125 74.21875 
Q 44.046875 74.21875 50.515625 64.515625 
Q 56.984375 54.828125 56.984375 36.375 
Q 56.984375 17.96875 50.515625 8.265625 
Q 44.046875 -1.421875 31.78125 -1.421875 
Q 19.53125 -1.421875 13.0625 8.265625 
Q 6.59375 17.96875 6.59375 36.375 
Q 6.59375 54.828125 13.0625 64.515625 
Q 19.53125 74.21875 31.78125 74.21875 
z
" id="DejaVuSans-48"/>
       </defs>
       <use xlink:href="#DejaVuSans-49"/>
       <use x="63.623047" xlink:href="#DejaVuSans-53"/>
       <use x="127.246094" xlink:href="#DejaVuSans-53"/>
       <use x="190.869141" xlink:href="#DejaVuSans-48"/>
       <use x="254.492188" xlink:href="#DejaVuSans-48"/>
      </g>
     </g>
    </g>
    <g id="ytick_2">
     <g id="line2d_5">
      <g>
       <use style="stroke:#000000;stroke-width:0.8;" x="59.690625" xlink:href="#md7afaf4cd0" y="234.021119"/>
      </g>
     </g>
     <g id="text_6">
      <!-- 16000 -->
      <g transform="translate(20.878125 237.820338)scale(0.1 -0.1)">
       <use xlink:href="#DejaVuSans-49"/>
       <use x="63.623047" xlink:href="#DejaVuSans-54"/>
       <use x="127.246094" xlink:href="#DejaVuSans-48"/>
       <use x="190.869141" xlink:href="#DejaVuSans-48"/>
       <use x="254.492188" xlink:href="#DejaVuSans-48"/>
      </g>
     </g>
    </g>
    <g id="ytick_3">
     <g id="line2d_6">
      <g>
       <use style="stroke:#000000;stroke-width:0.8;" x="59.690625" xlink:href="#md7afaf4cd0" y="194.280344"/>
      </g>
     </g>
     <g id="text_7">
      <!-- 16500 -->
      <g transform="translate(20.878125 198.079563)scale(0.1 -0.1)">
       <use xlink:href="#DejaVuSans-49"/>
       <use x="63.623047" xlink:href="#DejaVuSans-54"/>
       <use x="127.246094" xlink:href="#DejaVuSans-53"/>
       <use x="190.869141" xlink:href="#DejaVuSans-48"/>
       <use x="254.492188" xlink:href="#DejaVuSans-48"/>
      </g>
     </g>
    </g>
    <g id="ytick_4">
     <g id="line2d_7">
      <g>
       <use style="stroke:#000000;stroke-width:0.8;" x="59.690625" xlink:href="#md7afaf4cd0" y="154.539569"/>
      </g>
     </g>
     <g id="text_8">
      <!-- 17000 -->
      <g transform="translate(20.878125 158.338787)scale(0.1 -0.1)">
       <defs>
        <path d="M 8.203125 72.90625 
L 55.078125 72.90625 
L 55.078125 68.703125 
L 28.609375 0 
L 18.3125 0 
L 43.21875 64.59375 
L 8.203125 64.59375 
z
" id="DejaVuSans-55"/>
       </defs>
       <use xlink:href="#DejaVuSans-49"/>
       <use x="63.623047" xlink:href="#DejaVuSans-55"/>
       <use x="127.246094" xlink:href="#DejaVuSans-48"/>
       <use x="190.869141" xlink:href="#DejaVuSans-48"/>
       <use x="254.492188" xlink:href="#DejaVuSans-48"/>
      </g>
     </g>
    </g>
    <g id="ytick_5">
     <g id="line2d_8">
      <g>
       <use style="stroke:#000000;stroke-width:0.8;" x="59.690625" xlink:href="#md7afaf4cd0" y="114.798793"/>
      </g>
     </g>
     <g id="text_9">
      <!-- 17500 -->
      <g transform="translate(20.878125 118.598012)scale(0.1 -0.1)">
       <use xlink:href="#DejaVuSans-49"/>
       <use x="63.623047" xlink:href="#DejaVuSans-55"/>
       <use x="127.246094" xlink:href="#DejaVuSans-53"/>
       <use x="190.869141" xlink:href="#DejaVuSans-48"/>
       <use x="254.492188" xlink:href="#DejaVuSans-48"/>
      </g>
     </g>
    </g>
    <g id="ytick_6">
     <g id="line2d_9">
      <g>
       <use style="stroke:#000000;stroke-width:0.8;" x="59.690625" xlink:href="#md7afaf4cd0" y="75.058018"/>
      </g>
     </g>
     <g id="text_10">
      <!-- 18000 -->
      <g transform="translate(20.878125 78.857237)scale(0.1 -0.1)">
       <defs>
        <path d="M 31.78125 34.625 
Q 24.75 34.625 20.71875 30.859375 
Q 16.703125 27.09375 16.703125 20.515625 
Q 16.703125 13.921875 20.71875 10.15625 
Q 24.75 6.390625 31.78125 6.390625 
Q 38.8125 6.390625 42.859375 10.171875 
Q 46.921875 13.96875 46.921875 20.515625 
Q 46.921875 27.09375 42.890625 30.859375 
Q 38.875 34.625 31.78125 34.625 
z
M 21.921875 38.8125 
Q 15.578125 40.375 12.03125 44.71875 
Q 8.5 49.078125 8.5 55.328125 
Q 8.5 64.0625 14.71875 69.140625 
Q 20.953125 74.21875 31.78125 74.21875 
Q 42.671875 74.21875 48.875 69.140625 
Q 55.078125 64.0625 55.078125 55.328125 
Q 55.078125 49.078125 51.53125 44.71875 
Q 48 40.375 41.703125 38.8125 
Q 48.828125 37.15625 52.796875 32.3125 
Q 56.78125 27.484375 56.78125 20.515625 
Q 56.78125 9.90625 50.3125 4.234375 
Q 43.84375 -1.421875 31.78125 -1.421875 
Q 19.734375 -1.421875 13.25 4.234375 
Q 6.78125 9.90625 6.78125 20.515625 
Q 6.78125 27.484375 10.78125 32.3125 
Q 14.796875 37.15625 21.921875 38.8125 
z
M 18.3125 54.390625 
Q 18.3125 48.734375 21.84375 45.5625 
Q 25.390625 42.390625 31.78125 42.390625 
Q 38.140625 42.390625 41.71875 45.5625 
Q 45.3125 48.734375 45.3125 54.390625 
Q 45.3125 60.0625 41.71875 63.234375 
Q 38.140625 66.40625 31.78125 66.40625 
Q 25.390625 66.40625 21.84375 63.234375 
Q 18.3125 60.0625 18.3125 54.390625 
z
" id="DejaVuSans-56"/>
       </defs>
       <use xlink:href="#DejaVuSans-49"/>
       <use x="63.623047" xlink:href="#DejaVuSans-56"/>
       <use x="127.246094" xlink:href="#DejaVuSans-48"/>
       <use x="190.869141" xlink:href="#DejaVuSans-48"/>
       <use x="254.492188" xlink:href="#DejaVuSans-48"/>
      </g>
     </g>
    </g>
    <g id="ytick_7">
     <g id="line2d_10">
      <g>
       <use style="stroke:#000000;stroke-width:0.8;" x="59.690625" xlink:href="#md7afaf4cd0" y="35.317243"/>
      </g>
     </g>
     <g id="text_11">
      <!-- 18500 -->
      <g transform="translate(20.878125 39.116462)scale(0.1 -0.1)">
       <use xlink:href="#DejaVuSans-49"/>
       <use x="63.623047" xlink:href="#DejaVuSans-56"/>
       <use x="127.246094" xlink:href="#DejaVuSans-53"/>
       <use x="190.869141" xlink:href="#DejaVuSans-48"/>
       <use x="254.492188" xlink:href="#DejaVuSans-48"/>
      </g>
     </g>
    </g>
    <g id="text_12">
     <!-- Reached region coverage -->
     <g transform="translate(14.798438 219.136625)rotate(-90)scale(0.1 -0.1)">
      <defs>
       <path d="M 44.390625 34.1875 
Q 47.5625 33.109375 50.5625 29.59375 
Q 53.5625 26.078125 56.59375 19.921875 
L 66.609375 0 
L 56 0 
L 46.6875 18.703125 
Q 43.0625 26.03125 39.671875 28.421875 
Q 36.28125 30.8125 30.421875 30.8125 
L 19.671875 30.8125 
L 19.671875 0 
L 9.8125 0 
L 9.8125 72.90625 
L 32.078125 72.90625 
Q 44.578125 72.90625 50.734375 67.671875 
Q 56.890625 62.453125 56.890625 51.90625 
Q 56.890625 45.015625 53.6875 40.46875 
Q 50.484375 35.9375 44.390625 34.1875 
z
M 19.671875 64.796875 
L 19.671875 38.921875 
L 32.078125 38.921875 
Q 39.203125 38.921875 42.84375 42.21875 
Q 46.484375 45.515625 46.484375 51.90625 
Q 46.484375 58.296875 42.84375 61.546875 
Q 39.203125 64.796875 32.078125 64.796875 
z
" id="DejaVuSans-82"/>
      </defs>
      <use xlink:href="#DejaVuSans-82"/>
      <use x="64.982422" xlink:href="#DejaVuSans-101"/>
      <use x="126.505859" xlink:href="#DejaVuSans-97"/>
      <use x="187.785156" xlink:href="#DejaVuSans-99"/>
      <use x="242.765625" xlink:href="#DejaVuSans-104"/>
      <use x="306.144531" xlink:href="#DejaVuSans-101"/>
      <use x="367.667969" xlink:href="#DejaVuSans-100"/>
      <use x="431.144531" xlink:href="#DejaVuSans-32"/>
      <use x="462.931641" xlink:href="#DejaVuSans-114"/>
      <use x="501.794922" xlink:href="#DejaVuSans-101"/>
      <use x="563.318359" xlink:href="#DejaVuSans-103"/>
      <use x="626.794922" xlink:href="#DejaVuSans-105"/>
      <use x="654.578125" xlink:href="#DejaVuSans-111"/>
      <use x="715.759766" xlink:href="#DejaVuSans-110"/>
      <use x="779.138672" xlink:href="#DejaVuSans-32"/>
      <use x="810.925781" xlink:href="#DejaVuSans-99"/>
      <use x="865.90625" xlink:href="#DejaVuSans-111"/>
      <use x="927.087891" xlink:href="#DejaVuSans-118"/>
      <use x="986.267578" xlink:href="#DejaVuSans-101"/>
      <use x="1047.791016" xlink:href="#DejaVuSans-114"/>
      <use x="1088.904297" xlink:href="#DejaVuSans-97"/>
      <use x="1150.183594" xlink:href="#DejaVuSans-103"/>
      <use x="1213.660156" xlink:href="#DejaVuSans-101"/>
     </g>
    </g>
   </g>
   <g id="line2d_11">
    <path clip-path="url(#pd39ef2c65e)" d="M 119.210625 225.437112 
L 119.210625 85.311138 
" style="fill:none;stroke:#3f3f3f;stroke-linecap:square;stroke-width:1.5;"/>
   </g>
   <g id="line2d_12">
    <path clip-path="url(#pd39ef2c65e)" d="M 119.210625 183.470853 
L 119.210625 136.994016 
" style="fill:none;stroke:#3f3f3f;stroke-linecap:square;stroke-width:4.5;"/>
   </g>
   <g id="line2d_13">
    <path clip-path="url(#pd39ef2c65e)" d="M 238.250625 201.354202 
L 238.250625 136.65622 
" style="fill:none;stroke:#3f3f3f;stroke-linecap:square;stroke-width:1.5;"/>
   </g>
   <g id="line2d_14">
    <path clip-path="url(#pd39ef2c65e)" d="M 238.250625 185.755948 
L 238.250625 142.637207 
" style="fill:none;stroke:#3f3f3f;stroke-linecap:square;stroke-width:4.5;"/>
   </g>
   <g id="line2d_15">
    <path clip-path="url(#pd39ef2c65e)" d="M 357.290625 185.457892 
L 357.290625 144.048004 
" style="fill:none;stroke:#3f3f3f;stroke-linecap:square;stroke-width:1.5;"/>
   </g>
   <g id="line2d_16">
    <path clip-path="url(#pd39ef2c65e)" d="M 357.290625 178.344293 
L 357.290625 161.136537 
" style="fill:none;stroke:#3f3f3f;stroke-linecap:square;stroke-width:4.5;"/>
   </g>
   <g id="patch_3">
    <path d="M 59.690625 273.761894 
L 59.690625 35.317243 
" style="fill:none;stroke:#000000;stroke-linecap:square;stroke-linejoin:miter;stroke-width:0.8;"/>
   </g>
   <g id="patch_4">
    <path d="M 119.210625 288.430125 
L 357.290625 288.430125 
" style="fill:none;stroke:#000000;stroke-linecap:square;stroke-linejoin:miter;stroke-width:0.8;"/>
   </g>
   <g id="PathCollection_1">
    <defs>
     <path d="M 0 1.5 
C 0.397805 1.5 0.77937 1.341951 1.06066 1.06066 
C 1.341951 0.77937 1.5 0.397805 1.5 0 
C 1.5 -0.397805 1.341951 -0.77937 1.06066 -1.06066 
C 0.77937 -1.341951 0.397805 -1.5 0 -1.5 
C -0.397805 -1.5 -0.77937 -1.341951 -1.06066 -1.06066 
C -1.341951 -0.77937 -1.5 -0.397805 -1.5 0 
C -1.5 0.397805 -1.341951 0.77937 -1.06066 1.06066 
C -0.77937 1.341951 -0.397805 1.5 0 1.5 
z
" id="m38f424e9d8" style="stroke:#3f3f3f;"/>
    </defs>
    <g clip-path="url(#pd39ef2c65e)">
     <use style="fill:#ffffff;stroke:#3f3f3f;" x="119.210625" xlink:href="#m38f424e9d8" y="154.261383"/>
    </g>
   </g>
   <g id="PathCollection_2">
    <g clip-path="url(#pd39ef2c65e)">
     <use style="fill:#ffffff;stroke:#3f3f3f;" x="238.250625" xlink:href="#m38f424e9d8" y="159.030276"/>
    </g>
   </g>
   <g id="PathCollection_3">
    <g clip-path="url(#pd39ef2c65e)">
     <use style="fill:#ffffff;stroke:#3f3f3f;" x="357.290625" xlink:href="#m38f424e9d8" y="166.938691"/>
    </g>
   </g>
   <g id="text_13">
    <!-- freetype2-2017 (24h, 10 trials/fuzzer) -->
    <g transform="translate(125.037188 16.318125)scale(0.12 -0.12)">
     <defs>
      <path d="M 32.171875 -5.078125 
Q 28.375 -14.84375 24.75 -17.8125 
Q 21.140625 -20.796875 15.09375 -20.796875 
L 7.90625 -20.796875 
L 7.90625 -13.28125 
L 13.1875 -13.28125 
Q 16.890625 -13.28125 18.9375 -11.515625 
Q 21 -9.765625 23.484375 -3.21875 
L 25.09375 0.875 
L 2.984375 54.6875 
L 12.5 54.6875 
L 29.59375 11.921875 
L 46.6875 54.6875 
L 56.203125 54.6875 
z
" id="DejaVuSans-121"/>
      <path d="M 4.890625 31.390625 
L 31.203125 31.390625 
L 31.203125 23.390625 
L 4.890625 23.390625 
z
" id="DejaVuSans-45"/>
      <path d="M 37.796875 64.3125 
L 12.890625 25.390625 
L 37.796875 25.390625 
z
M 35.203125 72.90625 
L 47.609375 72.90625 
L 47.609375 25.390625 
L 58.015625 25.390625 
L 58.015625 17.1875 
L 47.609375 17.1875 
L 47.609375 0 
L 37.796875 0 
L 37.796875 17.1875 
L 4.890625 17.1875 
L 4.890625 26.703125 
z
" id="DejaVuSans-52"/>
      <path d="M 11.71875 12.40625 
L 22.015625 12.40625 
L 22.015625 4 
L 14.015625 -11.625 
L 7.71875 -11.625 
L 11.71875 4 
z
" id="DejaVuSans-44"/>
      <path d="M 25.390625 72.90625 
L 33.6875 72.90625 
L 8.296875 -9.28125 
L 0 -9.28125 
z
" id="DejaVuSans-47"/>
     </defs>
     <use xlink:href="#DejaVuSans-102"/>
     <use x="35.205078" xlink:href="#DejaVuSans-114"/>
     <use x="74.068359" xlink:href="#DejaVuSans-101"/>
     <use x="135.591797" xlink:href="#DejaVuSans-101"/>
     <use x="197.115234" xlink:href="#DejaVuSans-116"/>
     <use x="236.324219" xlink:href="#DejaVuSans-121"/>
     <use x="295.503906" xlink:href="#DejaVuSans-112"/>
     <use x="358.980469" xlink:href="#DejaVuSans-101"/>
     <use x="420.503906" xlink:href="#DejaVuSans-50"/>
     <use x="484.126953" xlink:href="#DejaVuSans-45"/>
     <use x="520.210938" xlink:href="#DejaVuSans-50"/>
     <use x="583.833984" xlink:href="#DejaVuSans-48"/>
     <use x="647.457031" xlink:href="#DejaVuSans-49"/>
     <use x="711.080078" xlink:href="#DejaVuSans-55"/>
     <use x="774.703125" xlink:href="#DejaVuSans-32"/>
     <use x="806.490234" xlink:href="#DejaVuSans-40"/>
     <use x="845.503906" xlink:href="#DejaVuSans-50"/>
     <use x="909.126953" xlink:href="#DejaVuSans-52"/>
     <use x="972.75" xlink:href="#DejaVuSans-104"/>
     <use x="1036.128906" xlink:href="#DejaVuSans-44"/>
     <use x="1067.916016" xlink:href="#DejaVuSans-32"/>
     <use x="1099.703125" xlink:href="#DejaVuSans-49"/>
     <use x="1163.326172" xlink:href="#DejaVuSans-48"/>
     <use x="1226.949219" xlink:href="#DejaVuSans-32"/>
     <use x="1258.736328" xlink:href="#DejaVuSans-116"/>
     <use x="1297.945312" xlink:href="#DejaVuSans-114"/>
     <use x="1339.058594" xlink:href="#DejaVuSans-105"/>
     <use x="1366.841797" xlink:href="#DejaVuSans-97"/>
     <use x="1428.121094" xlink:href="#DejaVuSans-108"/>
     <use x="1455.904297" xlink:href="#DejaVuSans-115"/>
     <use x="1508.003906" xlink:href="#DejaVuSans-47"/>
     <use x="1541.695312" xlink:href="#DejaVuSans-102"/>
     <use x="1576.900391" xlink:href="#DejaVuSans-117"/>
     <use x="1640.279297" xlink:href="#DejaVuSans-122"/>
     <use x="1692.769531" xlink:href="#DejaVuSans-122"/>
     <use x="1745.259766" xlink:href="#DejaVuSans-101"/>
     <use x="1806.783203" xlink:href="#DejaVuSans-114"/>
     <use x="1847.896484" xlink:href="#DejaVuSans-41"/>
    </g>
   </g>
  </g>
 </g>
 <defs>
  <clipPath id="pd39ef2c65e">
   <rect height="266.112" width="357.12" x="59.690625" y="22.318125"/>
  </clipPath>
 </defs>
</svg>
