<?xml version="1.0" encoding="utf-8" standalone="no"?>
<!DOCTYPE svg PUBLIC "-//W3C//DTD SVG 1.1//EN"
  "http://www.w3.org/Graphics/SVG/1.1/DTD/svg11.dtd">
<!-- Created with matplotlib (https://matplotlib.org/) -->
<svg height="358.280615pt" version="1.1" viewBox="0 0 417.648125 358.280615" width="417.648125pt" xmlns="http://www.w3.org/2000/svg" xmlns:xlink="http://www.w3.org/1999/xlink">
 <metadata>
  <rdf:RDF xmlns:cc="http://creativecommons.org/ns#" xmlns:dc="http://purl.org/dc/elements/1.1/" xmlns:rdf="http://www.w3.org/1999/02/22-rdf-syntax-ns#">
   <cc:Work>
    <dc:type rdf:resource="http://purl.org/dc/dcmitype/StillImage"/>
    <dc:date>2021-01-14T01:28:03.452299</dc:date>
    <dc:format>image/svg+xml</dc:format>
    <dc:creator>
     <cc:Agent>
      <dc:title>Matplotlib v3.3.3, https://matplotlib.org/</dc:title>
     </cc:Agent>
    </dc:creator>
   </cc:Work>
  </rdf:RDF>
 </metadata>
 <defs>
  <style type="text/css">*{stroke-linecap:butt;stroke-linejoin:round;}</style>
 </defs>
 <g id="figure_1">
  <g id="patch_1">
   <path d="M 0 358.280615 
L 417.648125 358.280615 
L 417.648125 -0 
L 0 -0 
z
" style="fill:#ffffff;"/>
  </g>
  <g id="axes_1">
   <g id="patch_2">
    <path d="M 53.328125 288.430125 
L 410.448125 288.430125 
L 410.448125 22.318125 
L 53.328125 22.318125 
z
" style="fill:#ffffff;"/>
   </g>
   <g id="PolyCollection_1">
    <defs>
     <path d="M 98.772678 -81.94649 
L 97.163572 -81.94649 
L 97.007291 -84.390127 
L 96.827377 -86.833763 
L 96.621703 -89.2774 
L 96.388246 -91.721036 
L 96.125151 -94.164672 
L 95.830812 -96.608309 
L 95.503949 -99.051945 
L 95.143693 -101.495581 
L 94.749675 -103.939218 
L 94.322101 -106.382854 
L 93.861836 -108.82649 
L 93.370461 -111.270127 
L 92.850332 -113.713763 
L 92.304612 -116.1574 
L 91.737283 -118.601036 
L 91.153141 -121.044672 
L 90.557756 -123.488309 
L 89.957415 -125.931945 
L 89.359025 -128.375581 
L 88.77 -130.819218 
L 88.19812 -133.262854 
L 87.651368 -135.70649 
L 87.137747 -138.150127 
L 86.665092 -140.593763 
L 86.240867 -143.0374 
L 85.871976 -145.481036 
L 85.564564 -147.924672 
L 85.323855 -150.368309 
L 85.153991 -152.811945 
L 85.057911 -155.255581 
L 85.037261 -157.699218 
L 85.092334 -160.142854 
L 85.222059 -162.58649 
L 85.424019 -165.030127 
L 85.694512 -167.473763 
L 86.028652 -169.9174 
L 86.420493 -172.361036 
L 86.863189 -174.804672 
L 87.349171 -177.248309 
L 87.87034 -179.691945 
L 88.418268 -182.135581 
L 88.984397 -184.579218 
L 89.560236 -187.022854 
L 90.137548 -189.46649 
L 90.708512 -191.910127 
L 91.265874 -194.353763 
L 91.803068 -196.7974 
L 92.31431 -199.241036 
L 92.794676 -201.684672 
L 93.240137 -204.128309 
L 93.647587 -206.571945 
L 94.014837 -209.015581 
L 94.34059 -211.459218 
L 94.624403 -213.902854 
L 94.866629 -216.34649 
L 95.068356 -218.790127 
L 95.231324 -221.233763 
L 95.35785 -223.6774 
L 95.45074 -226.121036 
L 95.513203 -228.564672 
L 95.548761 -231.008309 
L 95.561167 -233.451945 
L 95.554318 -235.895581 
L 95.532172 -238.339218 
L 95.498671 -240.782854 
L 95.457668 -243.22649 
L 95.412857 -245.670127 
L 95.367709 -248.113763 
L 95.325419 -250.5574 
L 95.28885 -253.001036 
L 95.260501 -255.444672 
L 95.242466 -257.888309 
L 95.236418 -260.331945 
L 95.243594 -262.775581 
L 95.264792 -265.219218 
L 95.300385 -267.662854 
L 95.350333 -270.10649 
L 95.414215 -272.550127 
L 95.491267 -274.993763 
L 95.580422 -277.4374 
L 95.68036 -279.881036 
L 95.789565 -282.324672 
L 95.906378 -284.768309 
L 96.029051 -287.211945 
L 96.155804 -289.655581 
L 96.284875 -292.099218 
L 96.414564 -294.542854 
L 96.543275 -296.98649 
L 96.669551 -299.430127 
L 96.792096 -301.873763 
L 96.909796 -304.3174 
L 97.021729 -306.761036 
L 97.127169 -309.204672 
L 97.225583 -311.648309 
L 97.316625 -314.091945 
L 97.400118 -316.535581 
L 97.476043 -318.979218 
L 97.544515 -321.422854 
L 97.605766 -323.86649 
L 98.330484 -323.86649 
L 98.330484 -323.86649 
L 98.391735 -321.422854 
L 98.460207 -318.979218 
L 98.536132 -316.535581 
L 98.619625 -314.091945 
L 98.710667 -311.648309 
L 98.809081 -309.204672 
L 98.914521 -306.761036 
L 99.026454 -304.3174 
L 99.144154 -301.873763 
L 99.266699 -299.430127 
L 99.392975 -296.98649 
L 99.521686 -294.542854 
L 99.651375 -292.099218 
L 99.780446 -289.655581 
L 99.907199 -287.211945 
L 100.029872 -284.768309 
L 100.146685 -282.324672 
L 100.25589 -279.881036 
L 100.355828 -277.4374 
L 100.444983 -274.993763 
L 100.522035 -272.550127 
L 100.585917 -270.10649 
L 100.635865 -267.662854 
L 100.671458 -265.219218 
L 100.692656 -262.775581 
L 100.699832 -260.331945 
L 100.693784 -257.888309 
L 100.675749 -255.444672 
L 100.6474 -253.001036 
L 100.610831 -250.5574 
L 100.568541 -248.113763 
L 100.523393 -245.670127 
L 100.478582 -243.22649 
L 100.437579 -240.782854 
L 100.404078 -238.339218 
L 100.381932 -235.895581 
L 100.375083 -233.451945 
L 100.387489 -231.008309 
L 100.423047 -228.564672 
L 100.48551 -226.121036 
L 100.5784 -223.6774 
L 100.704926 -221.233763 
L 100.867894 -218.790127 
L 101.069621 -216.34649 
L 101.311847 -213.902854 
L 101.59566 -211.459218 
L 101.921413 -209.015581 
L 102.288663 -206.571945 
L 102.696113 -204.128309 
L 103.141574 -201.684672 
L 103.62194 -199.241036 
L 104.133182 -196.7974 
L 104.670376 -194.353763 
L 105.227738 -191.910127 
L 105.798702 -189.46649 
L 106.376014 -187.022854 
L 106.951853 -184.579218 
L 107.517982 -182.135581 
L 108.06591 -179.691945 
L 108.587079 -177.248309 
L 109.073061 -174.804672 
L 109.515757 -172.361036 
L 109.907598 -169.9174 
L 110.241738 -167.473763 
L 110.512231 -165.030127 
L 110.714191 -162.58649 
L 110.843916 -160.142854 
L 110.898989 -157.699218 
L 110.878339 -155.255581 
L 110.782259 -152.811945 
L 110.612395 -150.368309 
L 110.371686 -147.924672 
L 110.064274 -145.481036 
L 109.695383 -143.0374 
L 109.271158 -140.593763 
L 108.798503 -138.150127 
L 108.284882 -135.70649 
L 107.73813 -133.262854 
L 107.16625 -130.819218 
L 106.577225 -128.375581 
L 105.978835 -125.931945 
L 105.378494 -123.488309 
L 104.783109 -121.044672 
L 104.198967 -118.601036 
L 103.631638 -116.1574 
L 103.085918 -113.713763 
L 102.565789 -111.270127 
L 102.074414 -108.82649 
L 101.614149 -106.382854 
L 101.186575 -103.939218 
L 100.792557 -101.495581 
L 100.432301 -99.051945 
L 100.105438 -96.608309 
L 99.811099 -94.164672 
L 99.548004 -91.721036 
L 99.314547 -89.2774 
L 99.108873 -86.833763 
L 98.928959 -84.390127 
L 98.772678 -81.94649 
z
" id="meb39eb7c93" style="stroke:#3f3f3f;stroke-width:1.5;"/>
    </defs>
    <g clip-path="url(#p9ef67b156f)">
     <use style="fill:#9fd495;stroke:#3f3f3f;stroke-width:1.5;" x="0" xlink:href="#meb39eb7c93" y="358.280615"/>
    </g>
   </g>
   <g id="PolyCollection_2">
    <defs>
     <path d="M 188.955717 -122.933334 
L 185.540533 -122.933334 
L 185.265543 -123.816135 
L 184.956884 -124.698937 
L 184.612333 -125.581738 
L 184.229839 -126.46454 
L 183.807576 -127.347341 
L 183.344013 -128.230143 
L 182.837967 -129.112944 
L 182.288673 -129.995746 
L 181.695839 -130.878547 
L 181.059697 -131.761349 
L 180.381055 -132.64415 
L 179.661333 -133.526952 
L 178.902591 -134.409753 
L 178.107542 -135.292555 
L 177.27956 -136.175356 
L 176.422658 -137.058158 
L 175.54147 -137.940959 
L 174.641199 -138.823761 
L 173.727563 -139.706562 
L 172.80672 -140.589364 
L 171.885183 -141.472165 
L 170.969722 -142.354967 
L 170.067258 -143.237768 
L 169.184752 -144.120569 
L 168.329087 -145.003371 
L 167.506956 -145.886172 
L 166.724739 -146.768974 
L 165.988404 -147.651775 
L 165.303402 -148.534577 
L 164.674575 -149.417378 
L 164.106084 -150.30018 
L 163.601343 -151.182981 
L 163.162973 -152.065783 
L 162.792774 -152.948584 
L 162.491709 -153.831386 
L 162.259909 -154.714187 
L 162.096695 -155.596989 
L 162.000611 -156.47979 
L 161.969474 -157.362592 
L 162.000434 -158.245393 
L 162.09005 -159.128195 
L 162.234369 -160.010996 
L 162.429015 -160.893798 
L 162.669282 -161.776599 
L 162.950231 -162.659401 
L 163.266787 -163.542202 
L 163.613842 -164.425004 
L 163.986343 -165.307805 
L 164.379391 -166.190607 
L 164.788321 -167.073408 
L 165.208789 -167.95621 
L 165.636836 -168.839011 
L 166.068956 -169.721813 
L 166.502142 -170.604614 
L 166.933923 -171.487416 
L 167.362394 -172.370217 
L 167.786222 -173.253019 
L 168.204642 -174.13582 
L 168.617441 -175.018622 
L 169.024923 -175.901423 
L 169.42786 -176.784225 
L 169.827438 -177.667026 
L 170.225178 -178.549828 
L 170.622865 -179.432629 
L 171.022454 -180.315431 
L 171.425981 -181.198232 
L 171.835475 -182.081034 
L 172.252861 -182.963835 
L 172.67988 -183.846637 
L 173.118008 -184.729438 
L 173.568391 -185.61224 
L 174.031787 -186.495041 
L 174.508527 -187.377843 
L 174.998489 -188.260644 
L 175.501088 -189.143446 
L 176.015287 -190.026247 
L 176.539612 -190.909049 
L 177.072194 -191.79185 
L 177.610816 -192.674651 
L 178.152972 -193.557453 
L 178.695937 -194.440254 
L 179.236835 -195.323056 
L 179.772715 -196.205857 
L 180.30063 -197.088659 
L 180.817701 -197.97146 
L 181.32119 -198.854262 
L 181.808557 -199.737063 
L 182.27751 -200.619865 
L 182.726048 -201.502666 
L 183.152488 -202.385468 
L 183.555489 -203.268269 
L 183.934057 -204.151071 
L 184.287546 -205.033872 
L 184.615649 -205.916674 
L 184.918378 -206.799475 
L 185.19604 -207.682277 
L 185.449207 -208.565078 
L 185.678685 -209.44788 
L 185.885472 -210.330681 
L 188.610778 -210.330681 
L 188.610778 -210.330681 
L 188.817565 -209.44788 
L 189.047043 -208.565078 
L 189.30021 -207.682277 
L 189.577872 -206.799475 
L 189.880601 -205.916674 
L 190.208704 -205.033872 
L 190.562193 -204.151071 
L 190.940761 -203.268269 
L 191.343762 -202.385468 
L 191.770202 -201.502666 
L 192.21874 -200.619865 
L 192.687693 -199.737063 
L 193.17506 -198.854262 
L 193.678549 -197.97146 
L 194.19562 -197.088659 
L 194.723535 -196.205857 
L 195.259415 -195.323056 
L 195.800313 -194.440254 
L 196.343278 -193.557453 
L 196.885434 -192.674651 
L 197.424056 -191.79185 
L 197.956638 -190.909049 
L 198.480963 -190.026247 
L 198.995162 -189.143446 
L 199.497761 -188.260644 
L 199.987723 -187.377843 
L 200.464463 -186.495041 
L 200.927859 -185.61224 
L 201.378242 -184.729438 
L 201.81637 -183.846637 
L 202.243389 -182.963835 
L 202.660775 -182.081034 
L 203.070269 -181.198232 
L 203.473796 -180.315431 
L 203.873385 -179.432629 
L 204.271072 -178.549828 
L 204.668812 -177.667026 
L 205.06839 -176.784225 
L 205.471327 -175.901423 
L 205.878809 -175.018622 
L 206.291608 -174.13582 
L 206.710028 -173.253019 
L 207.133856 -172.370217 
L 207.562327 -171.487416 
L 207.994108 -170.604614 
L 208.427294 -169.721813 
L 208.859414 -168.839011 
L 209.287461 -167.95621 
L 209.707929 -167.073408 
L 210.116859 -166.190607 
L 210.509907 -165.307805 
L 210.882408 -164.425004 
L 211.229463 -163.542202 
L 211.546019 -162.659401 
L 211.826968 -161.776599 
L 212.067235 -160.893798 
L 212.261881 -160.010996 
L 212.4062 -159.128195 
L 212.495816 -158.245393 
L 212.526776 -157.362592 
L 212.495639 -156.47979 
L 212.399555 -155.596989 
L 212.236341 -154.714187 
L 212.004541 -153.831386 
L 211.703476 -152.948584 
L 211.333277 -152.065783 
L 210.894907 -151.182981 
L 210.390166 -150.30018 
L 209.821675 -149.417378 
L 209.192848 -148.534577 
L 208.507846 -147.651775 
L 207.771511 -146.768974 
L 206.989294 -145.886172 
L 206.167163 -145.003371 
L 205.311498 -144.120569 
L 204.428992 -143.237768 
L 203.526528 -142.354967 
L 202.611067 -141.472165 
L 201.68953 -140.589364 
L 200.768687 -139.706562 
L 199.855051 -138.823761 
L 198.95478 -137.940959 
L 198.073592 -137.058158 
L 197.21669 -136.175356 
L 196.388708 -135.292555 
L 195.593659 -134.409753 
L 194.834917 -133.526952 
L 194.115195 -132.64415 
L 193.436553 -131.761349 
L 192.800411 -130.878547 
L 192.207577 -129.995746 
L 191.658283 -129.112944 
L 191.152237 -128.230143 
L 190.688674 -127.347341 
L 190.266411 -126.46454 
L 189.883917 -125.581738 
L 189.539366 -124.698937 
L 189.230707 -123.816135 
L 188.955717 -122.933334 
z
" id="me06898da44" style="stroke:#3f3f3f;stroke-width:1.5;"/>
    </defs>
    <g clip-path="url(#p9ef67b156f)">
     <use style="fill:#c7c7c7;stroke:#3f3f3f;stroke-width:1.5;" x="0" xlink:href="#me06898da44" y="358.280615"/>
    </g>
   </g>
   <g id="PolyCollection_3">
    <defs>
     <path d="M 277.577674 -104.750662 
L 275.478576 -104.750662 
L 275.298885 -105.669436 
L 275.096033 -106.588209 
L 274.868464 -107.506983 
L 274.614759 -108.425756 
L 274.333686 -109.34453 
L 274.024244 -110.263303 
L 273.685709 -111.182077 
L 273.31768 -112.10085 
L 272.920108 -113.019624 
L 272.493339 -113.938397 
L 272.038132 -114.857171 
L 271.555672 -115.775944 
L 271.047582 -116.694718 
L 270.51591 -117.613491 
L 269.963109 -118.532265 
L 269.39201 -119.451038 
L 268.805775 -120.369812 
L 268.207841 -121.288585 
L 267.601859 -122.207359 
L 266.991617 -123.126132 
L 266.380961 -124.044906 
L 265.773714 -124.963679 
L 265.17359 -125.882453 
L 264.584113 -126.801226 
L 264.008537 -127.72 
L 263.449779 -128.638773 
L 262.910356 -129.557547 
L 262.392336 -130.47632 
L 261.897305 -131.395094 
L 261.426342 -132.313867 
L 260.98002 -133.232641 
L 260.558409 -134.151414 
L 260.161106 -135.070188 
L 259.787269 -135.988961 
L 259.435672 -136.907735 
L 259.104758 -137.826508 
L 258.792714 -138.745282 
L 258.497539 -139.664055 
L 258.217123 -140.582829 
L 257.94932 -141.501602 
L 257.692028 -142.420376 
L 257.443253 -143.339149 
L 257.20118 -144.257923 
L 256.964229 -145.176696 
L 256.731107 -146.09547 
L 256.500849 -147.014243 
L 256.272856 -147.933017 
L 256.046921 -148.85179 
L 255.823244 -149.770564 
L 255.602451 -150.689337 
L 255.385591 -151.608111 
L 255.174136 -152.526884 
L 254.969977 -153.445658 
L 254.7754 -154.364431 
L 254.59307 -155.283204 
L 254.425997 -156.201978 
L 254.277503 -157.120751 
L 254.151174 -158.039525 
L 254.050802 -158.958298 
L 253.980328 -159.877072 
L 253.943765 -160.795845 
L 253.945114 -161.714619 
L 253.98828 -162.633392 
L 254.076971 -163.552166 
L 254.214598 -164.470939 
L 254.404174 -165.389713 
L 254.648212 -166.308486 
L 254.948626 -167.22726 
L 255.306647 -168.146033 
L 255.722746 -169.064807 
L 256.196573 -169.98358 
L 256.726918 -170.902354 
L 257.311694 -171.821127 
L 257.947939 -172.739901 
L 258.631849 -173.658674 
L 259.358834 -174.577448 
L 260.123594 -175.496221 
L 260.920219 -176.414995 
L 261.742308 -177.333768 
L 262.583104 -178.252542 
L 263.435632 -179.171315 
L 264.292851 -180.090089 
L 265.147797 -181.008862 
L 265.993729 -181.927636 
L 266.824259 -182.846409 
L 267.633471 -183.765183 
L 268.416021 -184.683956 
L 269.16722 -185.60273 
L 269.88309 -186.521503 
L 270.560402 -187.440277 
L 271.196691 -188.35905 
L 271.79025 -189.277824 
L 272.3401 -190.196597 
L 272.845953 -191.115371 
L 273.308148 -192.034144 
L 273.727591 -192.952918 
L 274.105673 -193.871691 
L 274.444192 -194.790465 
L 274.745273 -195.709238 
L 278.310977 -195.709238 
L 278.310977 -195.709238 
L 278.612058 -194.790465 
L 278.950577 -193.871691 
L 279.328659 -192.952918 
L 279.748102 -192.034144 
L 280.210297 -191.115371 
L 280.71615 -190.196597 
L 281.266 -189.277824 
L 281.859559 -188.35905 
L 282.495848 -187.440277 
L 283.17316 -186.521503 
L 283.88903 -185.60273 
L 284.640229 -184.683956 
L 285.422779 -183.765183 
L 286.231991 -182.846409 
L 287.062521 -181.927636 
L 287.908453 -181.008862 
L 288.763399 -180.090089 
L 289.620618 -179.171315 
L 290.473146 -178.252542 
L 291.313942 -177.333768 
L 292.136031 -176.414995 
L 292.932656 -175.496221 
L 293.697416 -174.577448 
L 294.424401 -173.658674 
L 295.108311 -172.739901 
L 295.744556 -171.821127 
L 296.329332 -170.902354 
L 296.859677 -169.98358 
L 297.333504 -169.064807 
L 297.749603 -168.146033 
L 298.107624 -167.22726 
L 298.408038 -166.308486 
L 298.652076 -165.389713 
L 298.841652 -164.470939 
L 298.979279 -163.552166 
L 299.06797 -162.633392 
L 299.111136 -161.714619 
L 299.112485 -160.795845 
L 299.075922 -159.877072 
L 299.005448 -158.958298 
L 298.905076 -158.039525 
L 298.778747 -157.120751 
L 298.630253 -156.201978 
L 298.46318 -155.283204 
L 298.28085 -154.364431 
L 298.086273 -153.445658 
L 297.882114 -152.526884 
L 297.670659 -151.608111 
L 297.453799 -150.689337 
L 297.233006 -149.770564 
L 297.009329 -148.85179 
L 296.783394 -147.933017 
L 296.555401 -147.014243 
L 296.325143 -146.09547 
L 296.092021 -145.176696 
L 295.85507 -144.257923 
L 295.612997 -143.339149 
L 295.364222 -142.420376 
L 295.10693 -141.501602 
L 294.839127 -140.582829 
L 294.558711 -139.664055 
L 294.263536 -138.745282 
L 293.951492 -137.826508 
L 293.620578 -136.907735 
L 293.268981 -135.988961 
L 292.895144 -135.070188 
L 292.497841 -134.151414 
L 292.07623 -133.232641 
L 291.629908 -132.313867 
L 291.158945 -131.395094 
L 290.663914 -130.47632 
L 290.145894 -129.557547 
L 289.606471 -128.638773 
L 289.047713 -127.72 
L 288.472137 -126.801226 
L 287.88266 -125.882453 
L 287.282536 -124.963679 
L 286.675289 -124.044906 
L 286.064633 -123.126132 
L 285.454391 -122.207359 
L 284.848409 -121.288585 
L 284.250475 -120.369812 
L 283.66424 -119.451038 
L 283.093141 -118.532265 
L 282.54034 -117.613491 
L 282.008668 -116.694718 
L 281.500578 -115.775944 
L 281.018118 -114.857171 
L 280.562911 -113.938397 
L 280.136142 -113.019624 
L 279.73857 -112.10085 
L 279.370541 -111.182077 
L 279.032006 -110.263303 
L 278.722564 -109.34453 
L 278.441491 -108.425756 
L 278.187786 -107.506983 
L 277.960217 -106.588209 
L 277.757365 -105.669436 
L 277.577674 -104.750662 
z
" id="m157bc7e2e7" style="stroke:#3f3f3f;stroke-width:1.5;"/>
    </defs>
    <g clip-path="url(#p9ef67b156f)">
     <use style="fill:#c03d3e;stroke:#3f3f3f;stroke-width:1.5;" x="0" xlink:href="#m157bc7e2e7" y="358.280615"/>
    </g>
   </g>
   <g id="PolyCollection_4">
    <defs>
     <path d="M 367.954767 -121.029817 
L 363.661483 -121.029817 
L 363.271446 -121.751079 
L 362.828799 -122.472342 
L 362.330079 -123.193605 
L 361.772251 -123.914868 
L 361.152832 -124.636131 
L 360.470006 -125.357393 
L 359.722733 -126.078656 
L 358.910846 -126.799919 
L 358.035122 -127.521182 
L 357.097331 -128.242445 
L 356.100261 -128.963707 
L 355.047701 -129.68497 
L 353.944403 -130.406233 
L 352.795999 -131.127496 
L 351.608905 -131.848758 
L 350.390179 -132.570021 
L 349.147381 -133.291284 
L 347.888403 -134.012547 
L 346.621309 -134.73381 
L 345.354176 -135.455072 
L 344.094947 -136.176335 
L 342.851316 -136.897598 
L 341.630633 -137.618861 
L 340.439851 -138.340124 
L 339.285508 -139.061386 
L 338.173745 -139.782649 
L 337.110354 -140.503912 
L 336.100857 -141.225175 
L 335.150598 -141.946438 
L 334.264841 -142.6677 
L 333.448865 -143.388963 
L 332.708037 -144.110226 
L 332.047859 -144.831489 
L 331.473966 -145.552752 
L 330.992093 -146.274014 
L 330.607973 -146.995277 
L 330.327196 -147.71654 
L 330.155017 -148.437803 
L 330.096125 -149.159066 
L 330.154383 -149.880328 
L 330.332557 -150.601591 
L 330.632049 -151.322854 
L 331.052651 -152.044117 
L 331.592333 -152.765379 
L 332.247096 -153.486642 
L 333.010882 -154.207905 
L 333.875572 -154.929168 
L 334.83106 -155.650431 
L 335.865421 -156.371693 
L 336.965153 -157.092956 
L 338.115502 -157.814219 
L 339.300838 -158.535482 
L 340.505087 -159.256745 
L 341.712185 -159.978007 
L 342.906537 -160.69927 
L 344.073475 -161.420533 
L 345.199667 -162.141796 
L 346.273489 -162.863059 
L 347.285324 -163.584321 
L 348.22779 -164.305584 
L 349.095874 -165.026847 
L 349.886986 -165.74811 
L 350.600914 -166.469373 
L 351.239704 -167.190635 
L 351.807457 -167.911898 
L 352.31006 -168.633161 
L 352.754866 -169.354424 
L 353.150343 -170.075687 
L 353.505688 -170.796949 
L 353.830449 -171.518212 
L 354.134155 -172.239475 
L 354.425963 -172.960738 
L 354.714354 -173.682001 
L 355.006869 -174.403263 
L 355.309904 -175.124526 
L 355.628557 -175.845789 
L 355.966549 -176.567052 
L 356.326191 -177.288314 
L 356.708418 -178.009577 
L 357.11287 -178.73084 
L 357.538011 -179.452103 
L 357.981295 -180.173366 
L 358.439342 -180.894628 
L 358.908144 -181.615891 
L 359.383262 -182.337154 
L 359.860033 -183.058417 
L 360.333755 -183.77968 
L 360.799861 -184.500942 
L 361.25407 -185.222205 
L 361.692503 -185.943468 
L 362.111781 -186.664731 
L 362.509092 -187.385994 
L 362.882219 -188.107256 
L 363.22956 -188.828519 
L 363.550107 -189.549782 
L 363.843417 -190.271045 
L 364.109563 -190.992308 
L 364.349075 -191.71357 
L 364.562869 -192.434833 
L 367.053381 -192.434833 
L 367.053381 -192.434833 
L 367.267175 -191.71357 
L 367.506687 -190.992308 
L 367.772833 -190.271045 
L 368.066143 -189.549782 
L 368.38669 -188.828519 
L 368.734031 -188.107256 
L 369.107158 -187.385994 
L 369.504469 -186.664731 
L 369.923747 -185.943468 
L 370.36218 -185.222205 
L 370.816389 -184.500942 
L 371.282495 -183.77968 
L 371.756217 -183.058417 
L 372.232988 -182.337154 
L 372.708106 -181.615891 
L 373.176908 -180.894628 
L 373.634955 -180.173366 
L 374.078239 -179.452103 
L 374.50338 -178.73084 
L 374.907832 -178.009577 
L 375.290059 -177.288314 
L 375.649701 -176.567052 
L 375.987693 -175.845789 
L 376.306346 -175.124526 
L 376.609381 -174.403263 
L 376.901896 -173.682001 
L 377.190287 -172.960738 
L 377.482095 -172.239475 
L 377.785801 -171.518212 
L 378.110562 -170.796949 
L 378.465907 -170.075687 
L 378.861384 -169.354424 
L 379.30619 -168.633161 
L 379.808793 -167.911898 
L 380.376546 -167.190635 
L 381.015336 -166.469373 
L 381.729264 -165.74811 
L 382.520376 -165.026847 
L 383.38846 -164.305584 
L 384.330926 -163.584321 
L 385.342761 -162.863059 
L 386.416583 -162.141796 
L 387.542775 -161.420533 
L 388.709713 -160.69927 
L 389.904065 -159.978007 
L 391.111163 -159.256745 
L 392.315412 -158.535482 
L 393.500748 -157.814219 
L 394.651097 -157.092956 
L 395.750829 -156.371693 
L 396.78519 -155.650431 
L 397.740678 -154.929168 
L 398.605368 -154.207905 
L 399.369154 -153.486642 
L 400.023917 -152.765379 
L 400.563599 -152.044117 
L 400.984201 -151.322854 
L 401.283693 -150.601591 
L 401.461867 -149.880328 
L 401.520125 -149.159066 
L 401.461233 -148.437803 
L 401.289054 -147.71654 
L 401.008277 -146.995277 
L 400.624157 -146.274014 
L 400.142284 -145.552752 
L 399.568391 -144.831489 
L 398.908213 -144.110226 
L 398.167385 -143.388963 
L 397.351409 -142.6677 
L 396.465652 -141.946438 
L 395.515393 -141.225175 
L 394.505896 -140.503912 
L 393.442505 -139.782649 
L 392.330742 -139.061386 
L 391.176399 -138.340124 
L 389.985617 -137.618861 
L 388.764934 -136.897598 
L 387.521303 -136.176335 
L 386.262074 -135.455072 
L 384.994941 -134.73381 
L 383.727847 -134.012547 
L 382.468869 -133.291284 
L 381.226071 -132.570021 
L 380.007345 -131.848758 
L 378.820251 -131.127496 
L 377.671847 -130.406233 
L 376.568549 -129.68497 
L 375.515989 -128.963707 
L 374.518919 -128.242445 
L 373.581128 -127.521182 
L 372.705404 -126.799919 
L 371.893517 -126.078656 
L 371.146244 -125.357393 
L 370.463418 -124.636131 
L 369.843999 -123.914868 
L 369.286171 -123.193605 
L 368.787451 -122.472342 
L 368.344804 -121.751079 
L 367.954767 -121.029817 
z
" id="m679d09d748" style="stroke:#3f3f3f;stroke-width:1.5;"/>
    </defs>
    <g clip-path="url(#p9ef67b156f)">
     <use style="fill:#3274a1;stroke:#3f3f3f;stroke-width:1.5;" x="0" xlink:href="#m679d09d748" y="358.280615"/>
    </g>
   </g>
   <g id="matplotlib.axis_1">
    <g id="xtick_1">
     <g id="line2d_1">
      <defs>
       <path d="M 0 0 
L 0 3.5 
" id="m6aa5d9978a" style="stroke:#000000;stroke-width:0.8;"/>
      </defs>
      <g>
       <use style="stroke:#000000;stroke-width:0.8;" x="97.968125" xlink:href="#m6aa5d9978a" y="288.430125"/>
      </g>
     </g>
     <g id="text_1">
      <!-- dark_stop_32 -->
      <g transform="translate(39.025324 335.360565)rotate(-30)scale(0.1 -0.1)">
       <defs>
        <path d="M 45.40625 46.390625 
L 45.40625 75.984375 
L 54.390625 75.984375 
L 54.390625 0 
L 45.40625 0 
L 45.40625 8.203125 
Q 42.578125 3.328125 38.25 0.953125 
Q 33.9375 -1.421875 27.875 -1.421875 
Q 17.96875 -1.421875 11.734375 6.484375 
Q 5.515625 14.40625 5.515625 27.296875 
Q 5.515625 40.1875 11.734375 48.09375 
Q 17.96875 56 27.875 56 
Q 33.9375 56 38.25 53.625 
Q 42.578125 51.265625 45.40625 46.390625 
z
M 14.796875 27.296875 
Q 14.796875 17.390625 18.875 11.75 
Q 22.953125 6.109375 30.078125 6.109375 
Q 37.203125 6.109375 41.296875 11.75 
Q 45.40625 17.390625 45.40625 27.296875 
Q 45.40625 37.203125 41.296875 42.84375 
Q 37.203125 48.484375 30.078125 48.484375 
Q 22.953125 48.484375 18.875 42.84375 
Q 14.796875 37.203125 14.796875 27.296875 
z
" id="DejaVuSans-100"/>
        <path d="M 34.28125 27.484375 
Q 23.390625 27.484375 19.1875 25 
Q 14.984375 22.515625 14.984375 16.5 
Q 14.984375 11.71875 18.140625 8.90625 
Q 21.296875 6.109375 26.703125 6.109375 
Q 34.1875 6.109375 38.703125 11.40625 
Q 43.21875 16.703125 43.21875 25.484375 
L 43.21875 27.484375 
z
M 52.203125 31.203125 
L 52.203125 0 
L 43.21875 0 
L 43.21875 8.296875 
Q 40.140625 3.328125 35.546875 0.953125 
Q 30.953125 -1.421875 24.3125 -1.421875 
Q 15.921875 -1.421875 10.953125 3.296875 
Q 6 8.015625 6 15.921875 
Q 6 25.140625 12.171875 29.828125 
Q 18.359375 34.515625 30.609375 34.515625 
L 43.21875 34.515625 
L 43.21875 35.40625 
Q 43.21875 41.609375 39.140625 45 
Q 35.0625 48.390625 27.6875 48.390625 
Q 23 48.390625 18.546875 47.265625 
Q 14.109375 46.140625 10.015625 43.890625 
L 10.015625 52.203125 
Q 14.9375 54.109375 19.578125 55.046875 
Q 24.21875 56 28.609375 56 
Q 40.484375 56 46.34375 49.84375 
Q 52.203125 43.703125 52.203125 31.203125 
z
" id="DejaVuSans-97"/>
        <path d="M 41.109375 46.296875 
Q 39.59375 47.171875 37.8125 47.578125 
Q 36.03125 48 33.890625 48 
Q 26.265625 48 22.1875 43.046875 
Q 18.109375 38.09375 18.109375 28.8125 
L 18.109375 0 
L 9.078125 0 
L 9.078125 54.6875 
L 18.109375 54.6875 
L 18.109375 46.1875 
Q 20.953125 51.171875 25.484375 53.578125 
Q 30.03125 56 36.53125 56 
Q 37.453125 56 38.578125 55.875 
Q 39.703125 55.765625 41.0625 55.515625 
z
" id="DejaVuSans-114"/>
        <path d="M 9.078125 75.984375 
L 18.109375 75.984375 
L 18.109375 31.109375 
L 44.921875 54.6875 
L 56.390625 54.6875 
L 27.390625 29.109375 
L 57.625 0 
L 45.90625 0 
L 18.109375 26.703125 
L 18.109375 0 
L 9.078125 0 
z
" id="DejaVuSans-107"/>
        <path d="M 50.984375 -16.609375 
L 50.984375 -23.578125 
L -0.984375 -23.578125 
L -0.984375 -16.609375 
z
" id="DejaVuSans-95"/>
        <path d="M 44.28125 53.078125 
L 44.28125 44.578125 
Q 40.484375 46.53125 36.375 47.5 
Q 32.28125 48.484375 27.875 48.484375 
Q 21.1875 48.484375 17.84375 46.4375 
Q 14.5 44.390625 14.5 40.28125 
Q 14.5 37.15625 16.890625 35.375 
Q 19.28125 33.59375 26.515625 31.984375 
L 29.59375 31.296875 
Q 39.15625 29.25 43.1875 25.515625 
Q 47.21875 21.78125 47.21875 15.09375 
Q 47.21875 7.46875 41.1875 3.015625 
Q 35.15625 -1.421875 24.609375 -1.421875 
Q 20.21875 -1.421875 15.453125 -0.5625 
Q 10.6875 0.296875 5.421875 2 
L 5.421875 11.28125 
Q 10.40625 8.6875 15.234375 7.390625 
Q 20.0625 6.109375 24.8125 6.109375 
Q 31.15625 6.109375 34.5625 8.28125 
Q 37.984375 10.453125 37.984375 14.40625 
Q 37.984375 18.0625 35.515625 20.015625 
Q 33.0625 21.96875 24.703125 23.78125 
L 21.578125 24.515625 
Q 13.234375 26.265625 9.515625 29.90625 
Q 5.8125 33.546875 5.8125 39.890625 
Q 5.8125 47.609375 11.28125 51.796875 
Q 16.75 56 26.8125 56 
Q 31.78125 56 36.171875 55.265625 
Q 40.578125 54.546875 44.28125 53.078125 
z
" id="DejaVuSans-115"/>
        <path d="M 18.3125 70.21875 
L 18.3125 54.6875 
L 36.8125 54.6875 
L 36.8125 47.703125 
L 18.3125 47.703125 
L 18.3125 18.015625 
Q 18.3125 11.328125 20.140625 9.421875 
Q 21.96875 7.515625 27.59375 7.515625 
L 36.8125 7.515625 
L 36.8125 0 
L 27.59375 0 
Q 17.1875 0 13.234375 3.875 
Q 9.28125 7.765625 9.28125 18.015625 
L 9.28125 47.703125 
L 2.6875 47.703125 
L 2.6875 54.6875 
L 9.28125 54.6875 
L 9.28125 70.21875 
z
" id="DejaVuSans-116"/>
        <path d="M 30.609375 48.390625 
Q 23.390625 48.390625 19.1875 42.75 
Q 14.984375 37.109375 14.984375 27.296875 
Q 14.984375 17.484375 19.15625 11.84375 
Q 23.34375 6.203125 30.609375 6.203125 
Q 37.796875 6.203125 41.984375 11.859375 
Q 46.1875 17.53125 46.1875 27.296875 
Q 46.1875 37.015625 41.984375 42.703125 
Q 37.796875 48.390625 30.609375 48.390625 
z
M 30.609375 56 
Q 42.328125 56 49.015625 48.375 
Q 55.71875 40.765625 55.71875 27.296875 
Q 55.71875 13.875 49.015625 6.21875 
Q 42.328125 -1.421875 30.609375 -1.421875 
Q 18.84375 -1.421875 12.171875 6.21875 
Q 5.515625 13.875 5.515625 27.296875 
Q 5.515625 40.765625 12.171875 48.375 
Q 18.84375 56 30.609375 56 
z
" id="DejaVuSans-111"/>
        <path d="M 18.109375 8.203125 
L 18.109375 -20.796875 
L 9.078125 -20.796875 
L 9.078125 54.6875 
L 18.109375 54.6875 
L 18.109375 46.390625 
Q 20.953125 51.265625 25.265625 53.625 
Q 29.59375 56 35.59375 56 
Q 45.5625 56 51.78125 48.09375 
Q 58.015625 40.1875 58.015625 27.296875 
Q 58.015625 14.40625 51.78125 6.484375 
Q 45.5625 -1.421875 35.59375 -1.421875 
Q 29.59375 -1.421875 25.265625 0.953125 
Q 20.953125 3.328125 18.109375 8.203125 
z
M 48.6875 27.296875 
Q 48.6875 37.203125 44.609375 42.84375 
Q 40.53125 48.484375 33.40625 48.484375 
Q 26.265625 48.484375 22.1875 42.84375 
Q 18.109375 37.203125 18.109375 27.296875 
Q 18.109375 17.390625 22.1875 11.75 
Q 26.265625 6.109375 33.40625 6.109375 
Q 40.53125 6.109375 44.609375 11.75 
Q 48.6875 17.390625 48.6875 27.296875 
z
" id="DejaVuSans-112"/>
        <path d="M 40.578125 39.3125 
Q 47.65625 37.796875 51.625 33 
Q 55.609375 28.21875 55.609375 21.1875 
Q 55.609375 10.40625 48.1875 4.484375 
Q 40.765625 -1.421875 27.09375 -1.421875 
Q 22.515625 -1.421875 17.65625 -0.515625 
Q 12.796875 0.390625 7.625 2.203125 
L 7.625 11.71875 
Q 11.71875 9.328125 16.59375 8.109375 
Q 21.484375 6.890625 26.8125 6.890625 
Q 36.078125 6.890625 40.9375 10.546875 
Q 45.796875 14.203125 45.796875 21.1875 
Q 45.796875 27.640625 41.28125 31.265625 
Q 36.765625 34.90625 28.71875 34.90625 
L 20.21875 34.90625 
L 20.21875 43.015625 
L 29.109375 43.015625 
Q 36.375 43.015625 40.234375 45.921875 
Q 44.09375 48.828125 44.09375 54.296875 
Q 44.09375 59.90625 40.109375 62.90625 
Q 36.140625 65.921875 28.71875 65.921875 
Q 24.65625 65.921875 20.015625 65.03125 
Q 15.375 64.15625 9.8125 62.3125 
L 9.8125 71.09375 
Q 15.4375 72.65625 20.34375 73.4375 
Q 25.25 74.21875 29.59375 74.21875 
Q 40.828125 74.21875 47.359375 69.109375 
Q 53.90625 64.015625 53.90625 55.328125 
Q 53.90625 49.265625 50.4375 45.09375 
Q 46.96875 40.921875 40.578125 39.3125 
z
" id="DejaVuSans-51"/>
        <path d="M 19.1875 8.296875 
L 53.609375 8.296875 
L 53.609375 0 
L 7.328125 0 
L 7.328125 8.296875 
Q 12.9375 14.109375 22.625 23.890625 
Q 32.328125 33.6875 34.8125 36.53125 
Q 39.546875 41.84375 41.421875 45.53125 
Q 43.3125 49.21875 43.3125 52.78125 
Q 43.3125 58.59375 39.234375 62.25 
Q 35.15625 65.921875 28.609375 65.921875 
Q 23.96875 65.921875 18.8125 64.3125 
Q 13.671875 62.703125 7.8125 59.421875 
L 7.8125 69.390625 
Q 13.765625 71.78125 18.9375 73 
Q 24.125 74.21875 28.421875 74.21875 
Q 39.75 74.21875 46.484375 68.546875 
Q 53.21875 62.890625 53.21875 53.421875 
Q 53.21875 48.921875 51.53125 44.890625 
Q 49.859375 40.875 45.40625 35.40625 
Q 44.1875 33.984375 37.640625 27.21875 
Q 31.109375 20.453125 19.1875 8.296875 
z
" id="DejaVuSans-50"/>
       </defs>
       <use xlink:href="#DejaVuSans-100"/>
       <use x="63.476562" xlink:href="#DejaVuSans-97"/>
       <use x="124.755859" xlink:href="#DejaVuSans-114"/>
       <use x="165.869141" xlink:href="#DejaVuSans-107"/>
       <use x="223.779297" xlink:href="#DejaVuSans-95"/>
       <use x="273.779297" xlink:href="#DejaVuSans-115"/>
       <use x="325.878906" xlink:href="#DejaVuSans-116"/>
       <use x="365.087891" xlink:href="#DejaVuSans-111"/>
       <use x="426.269531" xlink:href="#DejaVuSans-112"/>
       <use x="489.746094" xlink:href="#DejaVuSans-95"/>
       <use x="539.746094" xlink:href="#DejaVuSans-51"/>
       <use x="603.369141" xlink:href="#DejaVuSans-50"/>
      </g>
     </g>
    </g>
    <g id="xtick_2">
     <g id="line2d_2">
      <g>
       <use style="stroke:#000000;stroke-width:0.8;" x="187.248125" xlink:href="#m6aa5d9978a" y="288.430125"/>
      </g>
     </g>
     <g id="text_2">
      <!-- develop_32 -->
      <g transform="translate(136.234869 330.78244)rotate(-30)scale(0.1 -0.1)">
       <defs>
        <path d="M 56.203125 29.59375 
L 56.203125 25.203125 
L 14.890625 25.203125 
Q 15.484375 15.921875 20.484375 11.0625 
Q 25.484375 6.203125 34.421875 6.203125 
Q 39.59375 6.203125 44.453125 7.46875 
Q 49.3125 8.734375 54.109375 11.28125 
L 54.109375 2.78125 
Q 49.265625 0.734375 44.1875 -0.34375 
Q 39.109375 -1.421875 33.890625 -1.421875 
Q 20.796875 -1.421875 13.15625 6.1875 
Q 5.515625 13.8125 5.515625 26.8125 
Q 5.515625 40.234375 12.765625 48.109375 
Q 20.015625 56 32.328125 56 
Q 43.359375 56 49.78125 48.890625 
Q 56.203125 41.796875 56.203125 29.59375 
z
M 47.21875 32.234375 
Q 47.125 39.59375 43.09375 43.984375 
Q 39.0625 48.390625 32.421875 48.390625 
Q 24.90625 48.390625 20.390625 44.140625 
Q 15.875 39.890625 15.1875 32.171875 
z
" id="DejaVuSans-101"/>
        <path d="M 2.984375 54.6875 
L 12.5 54.6875 
L 29.59375 8.796875 
L 46.6875 54.6875 
L 56.203125 54.6875 
L 35.6875 0 
L 23.484375 0 
z
" id="DejaVuSans-118"/>
        <path d="M 9.421875 75.984375 
L 18.40625 75.984375 
L 18.40625 0 
L 9.421875 0 
z
" id="DejaVuSans-108"/>
       </defs>
       <use xlink:href="#DejaVuSans-100"/>
       <use x="63.476562" xlink:href="#DejaVuSans-101"/>
       <use x="125" xlink:href="#DejaVuSans-118"/>
       <use x="184.179688" xlink:href="#DejaVuSans-101"/>
       <use x="245.703125" xlink:href="#DejaVuSans-108"/>
       <use x="273.486328" xlink:href="#DejaVuSans-111"/>
       <use x="334.667969" xlink:href="#DejaVuSans-112"/>
       <use x="398.144531" xlink:href="#DejaVuSans-95"/>
       <use x="448.144531" xlink:href="#DejaVuSans-51"/>
       <use x="511.767578" xlink:href="#DejaVuSans-50"/>
      </g>
     </g>
    </g>
    <g id="xtick_3">
     <g id="line2d_3">
      <g>
       <use style="stroke:#000000;stroke-width:0.8;" x="276.528125" xlink:href="#m6aa5d9978a" y="288.430125"/>
      </g>
     </g>
     <g id="text_3">
      <!-- develop_16 -->
      <g transform="translate(225.514869 330.78244)rotate(-30)scale(0.1 -0.1)">
       <defs>
        <path d="M 12.40625 8.296875 
L 28.515625 8.296875 
L 28.515625 63.921875 
L 10.984375 60.40625 
L 10.984375 69.390625 
L 28.421875 72.90625 
L 38.28125 72.90625 
L 38.28125 8.296875 
L 54.390625 8.296875 
L 54.390625 0 
L 12.40625 0 
z
" id="DejaVuSans-49"/>
        <path d="M 33.015625 40.375 
Q 26.375 40.375 22.484375 35.828125 
Q 18.609375 31.296875 18.609375 23.390625 
Q 18.609375 15.53125 22.484375 10.953125 
Q 26.375 6.390625 33.015625 6.390625 
Q 39.65625 6.390625 43.53125 10.953125 
Q 47.40625 15.53125 47.40625 23.390625 
Q 47.40625 31.296875 43.53125 35.828125 
Q 39.65625 40.375 33.015625 40.375 
z
M 52.59375 71.296875 
L 52.59375 62.3125 
Q 48.875 64.0625 45.09375 64.984375 
Q 41.3125 65.921875 37.59375 65.921875 
Q 27.828125 65.921875 22.671875 59.328125 
Q 17.53125 52.734375 16.796875 39.40625 
Q 19.671875 43.65625 24.015625 45.921875 
Q 28.375 48.1875 33.59375 48.1875 
Q 44.578125 48.1875 50.953125 41.515625 
Q 57.328125 34.859375 57.328125 23.390625 
Q 57.328125 12.15625 50.6875 5.359375 
Q 44.046875 -1.421875 33.015625 -1.421875 
Q 20.359375 -1.421875 13.671875 8.265625 
Q 6.984375 17.96875 6.984375 36.375 
Q 6.984375 53.65625 15.1875 63.9375 
Q 23.390625 74.21875 37.203125 74.21875 
Q 40.921875 74.21875 44.703125 73.484375 
Q 48.484375 72.75 52.59375 71.296875 
z
" id="DejaVuSans-54"/>
       </defs>
       <use xlink:href="#DejaVuSans-100"/>
       <use x="63.476562" xlink:href="#DejaVuSans-101"/>
       <use x="125" xlink:href="#DejaVuSans-118"/>
       <use x="184.179688" xlink:href="#DejaVuSans-101"/>
       <use x="245.703125" xlink:href="#DejaVuSans-108"/>
       <use x="273.486328" xlink:href="#DejaVuSans-111"/>
       <use x="334.667969" xlink:href="#DejaVuSans-112"/>
       <use x="398.144531" xlink:href="#DejaVuSans-95"/>
       <use x="448.144531" xlink:href="#DejaVuSans-49"/>
       <use x="511.767578" xlink:href="#DejaVuSans-54"/>
      </g>
     </g>
    </g>
    <g id="xtick_4">
     <g id="line2d_4">
      <g>
       <use style="stroke:#000000;stroke-width:0.8;" x="365.808125" xlink:href="#m6aa5d9978a" y="288.430125"/>
      </g>
     </g>
     <g id="text_4">
      <!-- dark_stop_16 -->
      <g transform="translate(306.865324 335.360565)rotate(-30)scale(0.1 -0.1)">
       <use xlink:href="#DejaVuSans-100"/>
       <use x="63.476562" xlink:href="#DejaVuSans-97"/>
       <use x="124.755859" xlink:href="#DejaVuSans-114"/>
       <use x="165.869141" xlink:href="#DejaVuSans-107"/>
       <use x="223.779297" xlink:href="#DejaVuSans-95"/>
       <use x="273.779297" xlink:href="#DejaVuSans-115"/>
       <use x="325.878906" xlink:href="#DejaVuSans-116"/>
       <use x="365.087891" xlink:href="#DejaVuSans-111"/>
       <use x="426.269531" xlink:href="#DejaVuSans-112"/>
       <use x="489.746094" xlink:href="#DejaVuSans-95"/>
       <use x="539.746094" xlink:href="#DejaVuSans-49"/>
       <use x="603.369141" xlink:href="#DejaVuSans-54"/>
      </g>
     </g>
    </g>
    <g id="text_5">
     <!-- Fuzzer (highest median coverage on the left) -->
     <g transform="translate(119.270156 349.000928)scale(0.1 -0.1)">
      <defs>
       <path d="M 9.8125 72.90625 
L 51.703125 72.90625 
L 51.703125 64.59375 
L 19.671875 64.59375 
L 19.671875 43.109375 
L 48.578125 43.109375 
L 48.578125 34.8125 
L 19.671875 34.8125 
L 19.671875 0 
L 9.8125 0 
z
" id="DejaVuSans-70"/>
       <path d="M 8.5 21.578125 
L 8.5 54.6875 
L 17.484375 54.6875 
L 17.484375 21.921875 
Q 17.484375 14.15625 20.5 10.265625 
Q 23.53125 6.390625 29.59375 6.390625 
Q 36.859375 6.390625 41.078125 11.03125 
Q 45.3125 15.671875 45.3125 23.6875 
L 45.3125 54.6875 
L 54.296875 54.6875 
L 54.296875 0 
L 45.3125 0 
L 45.3125 8.40625 
Q 42.046875 3.421875 37.71875 1 
Q 33.40625 -1.421875 27.6875 -1.421875 
Q 18.265625 -1.421875 13.375 4.4375 
Q 8.5 10.296875 8.5 21.578125 
z
M 31.109375 56 
z
" id="DejaVuSans-117"/>
       <path d="M 5.515625 54.6875 
L 48.1875 54.6875 
L 48.1875 46.484375 
L 14.40625 7.171875 
L 48.1875 7.171875 
L 48.1875 0 
L 4.296875 0 
L 4.296875 8.203125 
L 38.09375 47.515625 
L 5.515625 47.515625 
z
" id="DejaVuSans-122"/>
       <path id="DejaVuSans-32"/>
       <path d="M 31 75.875 
Q 24.46875 64.65625 21.28125 53.65625 
Q 18.109375 42.671875 18.109375 31.390625 
Q 18.109375 20.125 21.3125 9.0625 
Q 24.515625 -2 31 -13.1875 
L 23.1875 -13.1875 
Q 15.875 -1.703125 12.234375 9.375 
Q 8.59375 20.453125 8.59375 31.390625 
Q 8.59375 42.28125 12.203125 53.3125 
Q 15.828125 64.359375 23.1875 75.875 
z
" id="DejaVuSans-40"/>
       <path d="M 54.890625 33.015625 
L 54.890625 0 
L 45.90625 0 
L 45.90625 32.71875 
Q 45.90625 40.484375 42.875 44.328125 
Q 39.84375 48.1875 33.796875 48.1875 
Q 26.515625 48.1875 22.3125 43.546875 
Q 18.109375 38.921875 18.109375 30.90625 
L 18.109375 0 
L 9.078125 0 
L 9.078125 75.984375 
L 18.109375 75.984375 
L 18.109375 46.1875 
Q 21.34375 51.125 25.703125 53.5625 
Q 30.078125 56 35.796875 56 
Q 45.21875 56 50.046875 50.171875 
Q 54.890625 44.34375 54.890625 33.015625 
z
" id="DejaVuSans-104"/>
       <path d="M 9.421875 54.6875 
L 18.40625 54.6875 
L 18.40625 0 
L 9.421875 0 
z
M 9.421875 75.984375 
L 18.40625 75.984375 
L 18.40625 64.59375 
L 9.421875 64.59375 
z
" id="DejaVuSans-105"/>
       <path d="M 45.40625 27.984375 
Q 45.40625 37.75 41.375 43.109375 
Q 37.359375 48.484375 30.078125 48.484375 
Q 22.859375 48.484375 18.828125 43.109375 
Q 14.796875 37.75 14.796875 27.984375 
Q 14.796875 18.265625 18.828125 12.890625 
Q 22.859375 7.515625 30.078125 7.515625 
Q 37.359375 7.515625 41.375 12.890625 
Q 45.40625 18.265625 45.40625 27.984375 
z
M 54.390625 6.78125 
Q 54.390625 -7.171875 48.1875 -13.984375 
Q 42 -20.796875 29.203125 -20.796875 
Q 24.46875 -20.796875 20.265625 -20.09375 
Q 16.0625 -19.390625 12.109375 -17.921875 
L 12.109375 -9.1875 
Q 16.0625 -11.328125 19.921875 -12.34375 
Q 23.78125 -13.375 27.78125 -13.375 
Q 36.625 -13.375 41.015625 -8.765625 
Q 45.40625 -4.15625 45.40625 5.171875 
L 45.40625 9.625 
Q 42.625 4.78125 38.28125 2.390625 
Q 33.9375 0 27.875 0 
Q 17.828125 0 11.671875 7.65625 
Q 5.515625 15.328125 5.515625 27.984375 
Q 5.515625 40.671875 11.671875 48.328125 
Q 17.828125 56 27.875 56 
Q 33.9375 56 38.28125 53.609375 
Q 42.625 51.21875 45.40625 46.390625 
L 45.40625 54.6875 
L 54.390625 54.6875 
z
" id="DejaVuSans-103"/>
       <path d="M 52 44.1875 
Q 55.375 50.25 60.0625 53.125 
Q 64.75 56 71.09375 56 
Q 79.640625 56 84.28125 50.015625 
Q 88.921875 44.046875 88.921875 33.015625 
L 88.921875 0 
L 79.890625 0 
L 79.890625 32.71875 
Q 79.890625 40.578125 77.09375 44.375 
Q 74.3125 48.1875 68.609375 48.1875 
Q 61.625 48.1875 57.5625 43.546875 
Q 53.515625 38.921875 53.515625 30.90625 
L 53.515625 0 
L 44.484375 0 
L 44.484375 32.71875 
Q 44.484375 40.625 41.703125 44.40625 
Q 38.921875 48.1875 33.109375 48.1875 
Q 26.21875 48.1875 22.15625 43.53125 
Q 18.109375 38.875 18.109375 30.90625 
L 18.109375 0 
L 9.078125 0 
L 9.078125 54.6875 
L 18.109375 54.6875 
L 18.109375 46.1875 
Q 21.1875 51.21875 25.484375 53.609375 
Q 29.78125 56 35.6875 56 
Q 41.65625 56 45.828125 52.96875 
Q 50 49.953125 52 44.1875 
z
" id="DejaVuSans-109"/>
       <path d="M 54.890625 33.015625 
L 54.890625 0 
L 45.90625 0 
L 45.90625 32.71875 
Q 45.90625 40.484375 42.875 44.328125 
Q 39.84375 48.1875 33.796875 48.1875 
Q 26.515625 48.1875 22.3125 43.546875 
Q 18.109375 38.921875 18.109375 30.90625 
L 18.109375 0 
L 9.078125 0 
L 9.078125 54.6875 
L 18.109375 54.6875 
L 18.109375 46.1875 
Q 21.34375 51.125 25.703125 53.5625 
Q 30.078125 56 35.796875 56 
Q 45.21875 56 50.046875 50.171875 
Q 54.890625 44.34375 54.890625 33.015625 
z
" id="DejaVuSans-110"/>
       <path d="M 48.78125 52.59375 
L 48.78125 44.1875 
Q 44.96875 46.296875 41.140625 47.34375 
Q 37.3125 48.390625 33.40625 48.390625 
Q 24.65625 48.390625 19.8125 42.84375 
Q 14.984375 37.3125 14.984375 27.296875 
Q 14.984375 17.28125 19.8125 11.734375 
Q 24.65625 6.203125 33.40625 6.203125 
Q 37.3125 6.203125 41.140625 7.25 
Q 44.96875 8.296875 48.78125 10.40625 
L 48.78125 2.09375 
Q 45.015625 0.34375 40.984375 -0.53125 
Q 36.96875 -1.421875 32.421875 -1.421875 
Q 20.0625 -1.421875 12.78125 6.34375 
Q 5.515625 14.109375 5.515625 27.296875 
Q 5.515625 40.671875 12.859375 48.328125 
Q 20.21875 56 33.015625 56 
Q 37.15625 56 41.109375 55.140625 
Q 45.0625 54.296875 48.78125 52.59375 
z
" id="DejaVuSans-99"/>
       <path d="M 37.109375 75.984375 
L 37.109375 68.5 
L 28.515625 68.5 
Q 23.6875 68.5 21.796875 66.546875 
Q 19.921875 64.59375 19.921875 59.515625 
L 19.921875 54.6875 
L 34.71875 54.6875 
L 34.71875 47.703125 
L 19.921875 47.703125 
L 19.921875 0 
L 10.890625 0 
L 10.890625 47.703125 
L 2.296875 47.703125 
L 2.296875 54.6875 
L 10.890625 54.6875 
L 10.890625 58.5 
Q 10.890625 67.625 15.140625 71.796875 
Q 19.390625 75.984375 28.609375 75.984375 
z
" id="DejaVuSans-102"/>
       <path d="M 8.015625 75.875 
L 15.828125 75.875 
Q 23.140625 64.359375 26.78125 53.3125 
Q 30.421875 42.28125 30.421875 31.390625 
Q 30.421875 20.453125 26.78125 9.375 
Q 23.140625 -1.703125 15.828125 -13.1875 
L 8.015625 -13.1875 
Q 14.5 -2 17.703125 9.0625 
Q 20.90625 20.125 20.90625 31.390625 
Q 20.90625 42.671875 17.703125 53.65625 
Q 14.5 64.65625 8.015625 75.875 
z
" id="DejaVuSans-41"/>
      </defs>
      <use xlink:href="#DejaVuSans-70"/>
      <use x="52.019531" xlink:href="#DejaVuSans-117"/>
      <use x="115.398438" xlink:href="#DejaVuSans-122"/>
      <use x="167.888672" xlink:href="#DejaVuSans-122"/>
      <use x="220.378906" xlink:href="#DejaVuSans-101"/>
      <use x="281.902344" xlink:href="#DejaVuSans-114"/>
      <use x="323.015625" xlink:href="#DejaVuSans-32"/>
      <use x="354.802734" xlink:href="#DejaVuSans-40"/>
      <use x="393.816406" xlink:href="#DejaVuSans-104"/>
      <use x="457.195312" xlink:href="#DejaVuSans-105"/>
      <use x="484.978516" xlink:href="#DejaVuSans-103"/>
      <use x="548.455078" xlink:href="#DejaVuSans-104"/>
      <use x="611.833984" xlink:href="#DejaVuSans-101"/>
      <use x="673.357422" xlink:href="#DejaVuSans-115"/>
      <use x="725.457031" xlink:href="#DejaVuSans-116"/>
      <use x="764.666016" xlink:href="#DejaVuSans-32"/>
      <use x="796.453125" xlink:href="#DejaVuSans-109"/>
      <use x="893.865234" xlink:href="#DejaVuSans-101"/>
      <use x="955.388672" xlink:href="#DejaVuSans-100"/>
      <use x="1018.865234" xlink:href="#DejaVuSans-105"/>
      <use x="1046.648438" xlink:href="#DejaVuSans-97"/>
      <use x="1107.927734" xlink:href="#DejaVuSans-110"/>
      <use x="1171.306641" xlink:href="#DejaVuSans-32"/>
      <use x="1203.09375" xlink:href="#DejaVuSans-99"/>
      <use x="1258.074219" xlink:href="#DejaVuSans-111"/>
      <use x="1319.255859" xlink:href="#DejaVuSans-118"/>
      <use x="1378.435547" xlink:href="#DejaVuSans-101"/>
      <use x="1439.958984" xlink:href="#DejaVuSans-114"/>
      <use x="1481.072266" xlink:href="#DejaVuSans-97"/>
      <use x="1542.351562" xlink:href="#DejaVuSans-103"/>
      <use x="1605.828125" xlink:href="#DejaVuSans-101"/>
      <use x="1667.351562" xlink:href="#DejaVuSans-32"/>
      <use x="1699.138672" xlink:href="#DejaVuSans-111"/>
      <use x="1760.320312" xlink:href="#DejaVuSans-110"/>
      <use x="1823.699219" xlink:href="#DejaVuSans-32"/>
      <use x="1855.486328" xlink:href="#DejaVuSans-116"/>
      <use x="1894.695312" xlink:href="#DejaVuSans-104"/>
      <use x="1958.074219" xlink:href="#DejaVuSans-101"/>
      <use x="2019.597656" xlink:href="#DejaVuSans-32"/>
      <use x="2051.384766" xlink:href="#DejaVuSans-108"/>
      <use x="2079.167969" xlink:href="#DejaVuSans-101"/>
      <use x="2140.691406" xlink:href="#DejaVuSans-102"/>
      <use x="2174.146484" xlink:href="#DejaVuSans-116"/>
      <use x="2213.355469" xlink:href="#DejaVuSans-41"/>
     </g>
    </g>
   </g>
   <g id="matplotlib.axis_2">
    <g id="ytick_1">
     <g id="line2d_5">
      <defs>
       <path d="M 0 0 
L -3.5 0 
" id="mbcf0b57628" style="stroke:#000000;stroke-width:0.8;"/>
      </defs>
      <g>
       <use style="stroke:#000000;stroke-width:0.8;" x="53.328125" xlink:href="#mbcf0b57628" y="278.627"/>
      </g>
     </g>
     <g id="text_6">
      <!-- 5500 -->
      <g transform="translate(20.878125 282.426219)scale(0.1 -0.1)">
       <defs>
        <path d="M 10.796875 72.90625 
L 49.515625 72.90625 
L 49.515625 64.59375 
L 19.828125 64.59375 
L 19.828125 46.734375 
Q 21.96875 47.46875 24.109375 47.828125 
Q 26.265625 48.1875 28.421875 48.1875 
Q 40.625 48.1875 47.75 41.5 
Q 54.890625 34.8125 54.890625 23.390625 
Q 54.890625 11.625 47.5625 5.09375 
Q 40.234375 -1.421875 26.90625 -1.421875 
Q 22.3125 -1.421875 17.546875 -0.640625 
Q 12.796875 0.140625 7.71875 1.703125 
L 7.71875 11.625 
Q 12.109375 9.234375 16.796875 8.0625 
Q 21.484375 6.890625 26.703125 6.890625 
Q 35.15625 6.890625 40.078125 11.328125 
Q 45.015625 15.765625 45.015625 23.390625 
Q 45.015625 31 40.078125 35.4375 
Q 35.15625 39.890625 26.703125 39.890625 
Q 22.75 39.890625 18.8125 39.015625 
Q 14.890625 38.140625 10.796875 36.28125 
z
" id="DejaVuSans-53"/>
        <path d="M 31.78125 66.40625 
Q 24.171875 66.40625 20.328125 58.90625 
Q 16.5 51.421875 16.5 36.375 
Q 16.5 21.390625 20.328125 13.890625 
Q 24.171875 6.390625 31.78125 6.390625 
Q 39.453125 6.390625 43.28125 13.890625 
Q 47.125 21.390625 47.125 36.375 
Q 47.125 51.421875 43.28125 58.90625 
Q 39.453125 66.40625 31.78125 66.40625 
z
M 31.78125 74.21875 
Q 44.046875 74.21875 50.515625 64.515625 
Q 56.984375 54.828125 56.984375 36.375 
Q 56.984375 17.96875 50.515625 8.265625 
Q 44.046875 -1.421875 31.78125 -1.421875 
Q 19.53125 -1.421875 13.0625 8.265625 
Q 6.59375 17.96875 6.59375 36.375 
Q 6.59375 54.828125 13.0625 64.515625 
Q 19.53125 74.21875 31.78125 74.21875 
z
" id="DejaVuSans-48"/>
       </defs>
       <use xlink:href="#DejaVuSans-53"/>
       <use x="63.623047" xlink:href="#DejaVuSans-53"/>
       <use x="127.246094" xlink:href="#DejaVuSans-48"/>
       <use x="190.869141" xlink:href="#DejaVuSans-48"/>
      </g>
     </g>
    </g>
    <g id="ytick_2">
     <g id="line2d_6">
      <g>
       <use style="stroke:#000000;stroke-width:0.8;" x="53.328125" xlink:href="#mbcf0b57628" y="242.096806"/>
      </g>
     </g>
     <g id="text_7">
      <!-- 6000 -->
      <g transform="translate(20.878125 245.896025)scale(0.1 -0.1)">
       <use xlink:href="#DejaVuSans-54"/>
       <use x="63.623047" xlink:href="#DejaVuSans-48"/>
       <use x="127.246094" xlink:href="#DejaVuSans-48"/>
       <use x="190.869141" xlink:href="#DejaVuSans-48"/>
      </g>
     </g>
    </g>
    <g id="ytick_3">
     <g id="line2d_7">
      <g>
       <use style="stroke:#000000;stroke-width:0.8;" x="53.328125" xlink:href="#mbcf0b57628" y="205.566612"/>
      </g>
     </g>
     <g id="text_8">
      <!-- 6500 -->
      <g transform="translate(20.878125 209.365831)scale(0.1 -0.1)">
       <use xlink:href="#DejaVuSans-54"/>
       <use x="63.623047" xlink:href="#DejaVuSans-53"/>
       <use x="127.246094" xlink:href="#DejaVuSans-48"/>
       <use x="190.869141" xlink:href="#DejaVuSans-48"/>
      </g>
     </g>
    </g>
    <g id="ytick_4">
     <g id="line2d_8">
      <g>
       <use style="stroke:#000000;stroke-width:0.8;" x="53.328125" xlink:href="#mbcf0b57628" y="169.036418"/>
      </g>
     </g>
     <g id="text_9">
      <!-- 7000 -->
      <g transform="translate(20.878125 172.835636)scale(0.1 -0.1)">
       <defs>
        <path d="M 8.203125 72.90625 
L 55.078125 72.90625 
L 55.078125 68.703125 
L 28.609375 0 
L 18.3125 0 
L 43.21875 64.59375 
L 8.203125 64.59375 
z
" id="DejaVuSans-55"/>
       </defs>
       <use xlink:href="#DejaVuSans-55"/>
       <use x="63.623047" xlink:href="#DejaVuSans-48"/>
       <use x="127.246094" xlink:href="#DejaVuSans-48"/>
       <use x="190.869141" xlink:href="#DejaVuSans-48"/>
      </g>
     </g>
    </g>
    <g id="ytick_5">
     <g id="line2d_9">
      <g>
       <use style="stroke:#000000;stroke-width:0.8;" x="53.328125" xlink:href="#mbcf0b57628" y="132.506223"/>
      </g>
     </g>
     <g id="text_10">
      <!-- 7500 -->
      <g transform="translate(20.878125 136.305442)scale(0.1 -0.1)">
       <use xlink:href="#DejaVuSans-55"/>
       <use x="63.623047" xlink:href="#DejaVuSans-53"/>
       <use x="127.246094" xlink:href="#DejaVuSans-48"/>
       <use x="190.869141" xlink:href="#DejaVuSans-48"/>
      </g>
     </g>
    </g>
    <g id="ytick_6">
     <g id="line2d_10">
      <g>
       <use style="stroke:#000000;stroke-width:0.8;" x="53.328125" xlink:href="#mbcf0b57628" y="95.976029"/>
      </g>
     </g>
     <g id="text_11">
      <!-- 8000 -->
      <g transform="translate(20.878125 99.775248)scale(0.1 -0.1)">
       <defs>
        <path d="M 31.78125 34.625 
Q 24.75 34.625 20.71875 30.859375 
Q 16.703125 27.09375 16.703125 20.515625 
Q 16.703125 13.921875 20.71875 10.15625 
Q 24.75 6.390625 31.78125 6.390625 
Q 38.8125 6.390625 42.859375 10.171875 
Q 46.921875 13.96875 46.921875 20.515625 
Q 46.921875 27.09375 42.890625 30.859375 
Q 38.875 34.625 31.78125 34.625 
z
M 21.921875 38.8125 
Q 15.578125 40.375 12.03125 44.71875 
Q 8.5 49.078125 8.5 55.328125 
Q 8.5 64.0625 14.71875 69.140625 
Q 20.953125 74.21875 31.78125 74.21875 
Q 42.671875 74.21875 48.875 69.140625 
Q 55.078125 64.0625 55.078125 55.328125 
Q 55.078125 49.078125 51.53125 44.71875 
Q 48 40.375 41.703125 38.8125 
Q 48.828125 37.15625 52.796875 32.3125 
Q 56.78125 27.484375 56.78125 20.515625 
Q 56.78125 9.90625 50.3125 4.234375 
Q 43.84375 -1.421875 31.78125 -1.421875 
Q 19.734375 -1.421875 13.25 4.234375 
Q 6.78125 9.90625 6.78125 20.515625 
Q 6.78125 27.484375 10.78125 32.3125 
Q 14.796875 37.15625 21.921875 38.8125 
z
M 18.3125 54.390625 
Q 18.3125 48.734375 21.84375 45.5625 
Q 25.390625 42.390625 31.78125 42.390625 
Q 38.140625 42.390625 41.71875 45.5625 
Q 45.3125 48.734375 45.3125 54.390625 
Q 45.3125 60.0625 41.71875 63.234375 
Q 38.140625 66.40625 31.78125 66.40625 
Q 25.390625 66.40625 21.84375 63.234375 
Q 18.3125 60.0625 18.3125 54.390625 
z
" id="DejaVuSans-56"/>
       </defs>
       <use xlink:href="#DejaVuSans-56"/>
       <use x="63.623047" xlink:href="#DejaVuSans-48"/>
       <use x="127.246094" xlink:href="#DejaVuSans-48"/>
       <use x="190.869141" xlink:href="#DejaVuSans-48"/>
      </g>
     </g>
    </g>
    <g id="ytick_7">
     <g id="line2d_11">
      <g>
       <use style="stroke:#000000;stroke-width:0.8;" x="53.328125" xlink:href="#mbcf0b57628" y="59.445835"/>
      </g>
     </g>
     <g id="text_12">
      <!-- 8500 -->
      <g transform="translate(20.878125 63.245054)scale(0.1 -0.1)">
       <use xlink:href="#DejaVuSans-56"/>
       <use x="63.623047" xlink:href="#DejaVuSans-53"/>
       <use x="127.246094" xlink:href="#DejaVuSans-48"/>
       <use x="190.869141" xlink:href="#DejaVuSans-48"/>
      </g>
     </g>
    </g>
    <g id="ytick_8">
     <g id="line2d_12">
      <g>
       <use style="stroke:#000000;stroke-width:0.8;" x="53.328125" xlink:href="#mbcf0b57628" y="22.915641"/>
      </g>
     </g>
     <g id="text_13">
      <!-- 9000 -->
      <g transform="translate(20.878125 26.714859)scale(0.1 -0.1)">
       <defs>
        <path d="M 10.984375 1.515625 
L 10.984375 10.5 
Q 14.703125 8.734375 18.5 7.8125 
Q 22.3125 6.890625 25.984375 6.890625 
Q 35.75 6.890625 40.890625 13.453125 
Q 46.046875 20.015625 46.78125 33.40625 
Q 43.953125 29.203125 39.59375 26.953125 
Q 35.25 24.703125 29.984375 24.703125 
Q 19.046875 24.703125 12.671875 31.3125 
Q 6.296875 37.9375 6.296875 49.421875 
Q 6.296875 60.640625 12.9375 67.421875 
Q 19.578125 74.21875 30.609375 74.21875 
Q 43.265625 74.21875 49.921875 64.515625 
Q 56.59375 54.828125 56.59375 36.375 
Q 56.59375 19.140625 48.40625 8.859375 
Q 40.234375 -1.421875 26.421875 -1.421875 
Q 22.703125 -1.421875 18.890625 -0.6875 
Q 15.09375 0.046875 10.984375 1.515625 
z
M 30.609375 32.421875 
Q 37.25 32.421875 41.125 36.953125 
Q 45.015625 41.5 45.015625 49.421875 
Q 45.015625 57.28125 41.125 61.84375 
Q 37.25 66.40625 30.609375 66.40625 
Q 23.96875 66.40625 20.09375 61.84375 
Q 16.21875 57.28125 16.21875 49.421875 
Q 16.21875 41.5 20.09375 36.953125 
Q 23.96875 32.421875 30.609375 32.421875 
z
" id="DejaVuSans-57"/>
       </defs>
       <use xlink:href="#DejaVuSans-57"/>
       <use x="63.623047" xlink:href="#DejaVuSans-48"/>
       <use x="127.246094" xlink:href="#DejaVuSans-48"/>
       <use x="190.869141" xlink:href="#DejaVuSans-48"/>
      </g>
     </g>
    </g>
    <g id="text_14">
     <!-- Reached region coverage -->
     <g transform="translate(14.798438 219.136625)rotate(-90)scale(0.1 -0.1)">
      <defs>
       <path d="M 44.390625 34.1875 
Q 47.5625 33.109375 50.5625 29.59375 
Q 53.5625 26.078125 56.59375 19.921875 
L 66.609375 0 
L 56 0 
L 46.6875 18.703125 
Q 43.0625 26.03125 39.671875 28.421875 
Q 36.28125 30.8125 30.421875 30.8125 
L 19.671875 30.8125 
L 19.671875 0 
L 9.8125 0 
L 9.8125 72.90625 
L 32.078125 72.90625 
Q 44.578125 72.90625 50.734375 67.671875 
Q 56.890625 62.453125 56.890625 51.90625 
Q 56.890625 45.015625 53.6875 40.46875 
Q 50.484375 35.9375 44.390625 34.1875 
z
M 19.671875 64.796875 
L 19.671875 38.921875 
L 32.078125 38.921875 
Q 39.203125 38.921875 42.84375 42.21875 
Q 46.484375 45.515625 46.484375 51.90625 
Q 46.484375 58.296875 42.84375 61.546875 
Q 39.203125 64.796875 32.078125 64.796875 
z
" id="DejaVuSans-82"/>
      </defs>
      <use xlink:href="#DejaVuSans-82"/>
      <use x="64.982422" xlink:href="#DejaVuSans-101"/>
      <use x="126.505859" xlink:href="#DejaVuSans-97"/>
      <use x="187.785156" xlink:href="#DejaVuSans-99"/>
      <use x="242.765625" xlink:href="#DejaVuSans-104"/>
      <use x="306.144531" xlink:href="#DejaVuSans-101"/>
      <use x="367.667969" xlink:href="#DejaVuSans-100"/>
      <use x="431.144531" xlink:href="#DejaVuSans-32"/>
      <use x="462.931641" xlink:href="#DejaVuSans-114"/>
      <use x="501.794922" xlink:href="#DejaVuSans-101"/>
      <use x="563.318359" xlink:href="#DejaVuSans-103"/>
      <use x="626.794922" xlink:href="#DejaVuSans-105"/>
      <use x="654.578125" xlink:href="#DejaVuSans-111"/>
      <use x="715.759766" xlink:href="#DejaVuSans-110"/>
      <use x="779.138672" xlink:href="#DejaVuSans-32"/>
      <use x="810.925781" xlink:href="#DejaVuSans-99"/>
      <use x="865.90625" xlink:href="#DejaVuSans-111"/>
      <use x="927.087891" xlink:href="#DejaVuSans-118"/>
      <use x="986.267578" xlink:href="#DejaVuSans-101"/>
      <use x="1047.791016" xlink:href="#DejaVuSans-114"/>
      <use x="1088.904297" xlink:href="#DejaVuSans-97"/>
      <use x="1150.183594" xlink:href="#DejaVuSans-103"/>
      <use x="1213.660156" xlink:href="#DejaVuSans-101"/>
     </g>
    </g>
   </g>
   <g id="line2d_13">
    <path clip-path="url(#p9ef67b156f)" d="M 97.968125 214.991402 
L 97.968125 191.685138 
" style="fill:none;stroke:#3f3f3f;stroke-linecap:square;stroke-width:1.5;"/>
   </g>
   <g id="line2d_14">
    <path clip-path="url(#p9ef67b156f)" d="M 97.968125 203.867958 
L 97.968125 192.872369 
" style="fill:none;stroke:#3f3f3f;stroke-linecap:square;stroke-width:4.5;"/>
   </g>
   <g id="line2d_15">
    <path clip-path="url(#p9ef67b156f)" d="M 187.248125 210.461658 
L 187.248125 172.835558 
" style="fill:none;stroke:#3f3f3f;stroke-linecap:square;stroke-width:1.5;"/>
   </g>
   <g id="line2d_16">
    <path clip-path="url(#p9ef67b156f)" d="M 187.248125 204.982129 
L 187.248125 186.753562 
" style="fill:none;stroke:#3f3f3f;stroke-linecap:square;stroke-width:4.5;"/>
   </g>
   <g id="line2d_17">
    <path clip-path="url(#p9ef67b156f)" d="M 276.528125 229.457359 
L 276.528125 186.643971 
" style="fill:none;stroke:#3f3f3f;stroke-linecap:square;stroke-width:1.5;"/>
   </g>
   <g id="line2d_18">
    <path clip-path="url(#p9ef67b156f)" d="M 276.528125 216.343019 
L 276.528125 190.497907 
" style="fill:none;stroke:#3f3f3f;stroke-linecap:square;stroke-width:4.5;"/>
   </g>
   <g id="line2d_19">
    <path clip-path="url(#p9ef67b156f)" d="M 365.808125 219.375025 
L 365.808125 203.959283 
" style="fill:none;stroke:#3f3f3f;stroke-linecap:square;stroke-width:1.5;"/>
   </g>
   <g id="line2d_20">
    <path clip-path="url(#p9ef67b156f)" d="M 365.808125 214.881811 
L 365.808125 204.397646 
" style="fill:none;stroke:#3f3f3f;stroke-linecap:square;stroke-width:4.5;"/>
   </g>
   <g id="patch_3">
    <path d="M 53.328125 278.627 
L 53.328125 22.915641 
" style="fill:none;stroke:#000000;stroke-linecap:square;stroke-linejoin:miter;stroke-width:0.8;"/>
   </g>
   <g id="patch_4">
    <path d="M 97.968125 288.430125 
L 365.808125 288.430125 
" style="fill:none;stroke:#000000;stroke-linecap:square;stroke-linejoin:miter;stroke-width:0.8;"/>
   </g>
   <g id="PathCollection_1">
    <defs>
     <path d="M 0 1.5 
C 0.397805 1.5 0.77937 1.341951 1.06066 1.06066 
C 1.341951 0.77937 1.5 0.397805 1.5 0 
C 1.5 -0.397805 1.341951 -0.77937 1.06066 -1.06066 
C 0.77937 -1.341951 0.397805 -1.5 0 -1.5 
C -0.397805 -1.5 -0.77937 -1.341951 -1.06066 -1.06066 
C -1.341951 -0.77937 -1.5 -0.397805 -1.5 0 
C -1.5 0.397805 -1.341951 0.77937 -1.06066 1.06066 
C -0.77937 1.341951 -0.397805 1.5 0 1.5 
z
" id="m49c40e5092" style="stroke:#3f3f3f;"/>
    </defs>
    <g clip-path="url(#p9ef67b156f)">
     <use style="fill:#ffffff;stroke:#3f3f3f;" x="97.968125" xlink:href="#m49c40e5092" y="197.164667"/>
    </g>
   </g>
   <g id="PathCollection_2">
    <g clip-path="url(#p9ef67b156f)">
     <use style="fill:#ffffff;stroke:#3f3f3f;" x="187.248125" xlink:href="#m49c40e5092" y="197.274258"/>
    </g>
   </g>
   <g id="PathCollection_3">
    <g clip-path="url(#p9ef67b156f)">
     <use style="fill:#ffffff;stroke:#3f3f3f;" x="276.528125" xlink:href="#m49c40e5092" y="203.22868"/>
    </g>
   </g>
   <g id="PathCollection_4">
    <g clip-path="url(#p9ef67b156f)">
     <use style="fill:#ffffff;stroke:#3f3f3f;" x="365.808125" xlink:href="#m49c40e5092" y="205.968444"/>
    </g>
   </g>
   <g id="text_15">
    <!-- bloaty_fuzz_target (23h:30m, 4 trials/fuzzer) -->
    <g transform="translate(98.291563 16.318125)scale(0.12 -0.12)">
     <defs>
      <path d="M 48.6875 27.296875 
Q 48.6875 37.203125 44.609375 42.84375 
Q 40.53125 48.484375 33.40625 48.484375 
Q 26.265625 48.484375 22.1875 42.84375 
Q 18.109375 37.203125 18.109375 27.296875 
Q 18.109375 17.390625 22.1875 11.75 
Q 26.265625 6.109375 33.40625 6.109375 
Q 40.53125 6.109375 44.609375 11.75 
Q 48.6875 17.390625 48.6875 27.296875 
z
M 18.109375 46.390625 
Q 20.953125 51.265625 25.265625 53.625 
Q 29.59375 56 35.59375 56 
Q 45.5625 56 51.78125 48.09375 
Q 58.015625 40.1875 58.015625 27.296875 
Q 58.015625 14.40625 51.78125 6.484375 
Q 45.5625 -1.421875 35.59375 -1.421875 
Q 29.59375 -1.421875 25.265625 0.953125 
Q 20.953125 3.328125 18.109375 8.203125 
L 18.109375 0 
L 9.078125 0 
L 9.078125 75.984375 
L 18.109375 75.984375 
z
" id="DejaVuSans-98"/>
      <path d="M 32.171875 -5.078125 
Q 28.375 -14.84375 24.75 -17.8125 
Q 21.140625 -20.796875 15.09375 -20.796875 
L 7.90625 -20.796875 
L 7.90625 -13.28125 
L 13.1875 -13.28125 
Q 16.890625 -13.28125 18.9375 -11.515625 
Q 21 -9.765625 23.484375 -3.21875 
L 25.09375 0.875 
L 2.984375 54.6875 
L 12.5 54.6875 
L 29.59375 11.921875 
L 46.6875 54.6875 
L 56.203125 54.6875 
z
" id="DejaVuSans-121"/>
      <path d="M 11.71875 12.40625 
L 22.015625 12.40625 
L 22.015625 0 
L 11.71875 0 
z
M 11.71875 51.703125 
L 22.015625 51.703125 
L 22.015625 39.3125 
L 11.71875 39.3125 
z
" id="DejaVuSans-58"/>
      <path d="M 11.71875 12.40625 
L 22.015625 12.40625 
L 22.015625 4 
L 14.015625 -11.625 
L 7.71875 -11.625 
L 11.71875 4 
z
" id="DejaVuSans-44"/>
      <path d="M 37.796875 64.3125 
L 12.890625 25.390625 
L 37.796875 25.390625 
z
M 35.203125 72.90625 
L 47.609375 72.90625 
L 47.609375 25.390625 
L 58.015625 25.390625 
L 58.015625 17.1875 
L 47.609375 17.1875 
L 47.609375 0 
L 37.796875 0 
L 37.796875 17.1875 
L 4.890625 17.1875 
L 4.890625 26.703125 
z
" id="DejaVuSans-52"/>
      <path d="M 25.390625 72.90625 
L 33.6875 72.90625 
L 8.296875 -9.28125 
L 0 -9.28125 
z
" id="DejaVuSans-47"/>
     </defs>
     <use xlink:href="#DejaVuSans-98"/>
     <use x="63.476562" xlink:href="#DejaVuSans-108"/>
     <use x="91.259766" xlink:href="#DejaVuSans-111"/>
     <use x="152.441406" xlink:href="#DejaVuSans-97"/>
     <use x="213.720703" xlink:href="#DejaVuSans-116"/>
     <use x="252.929688" xlink:href="#DejaVuSans-121"/>
     <use x="312.109375" xlink:href="#DejaVuSans-95"/>
     <use x="362.109375" xlink:href="#DejaVuSans-102"/>
     <use x="397.314453" xlink:href="#DejaVuSans-117"/>
     <use x="460.693359" xlink:href="#DejaVuSans-122"/>
     <use x="513.183594" xlink:href="#DejaVuSans-122"/>
     <use x="565.673828" xlink:href="#DejaVuSans-95"/>
     <use x="615.673828" xlink:href="#DejaVuSans-116"/>
     <use x="654.882812" xlink:href="#DejaVuSans-97"/>
     <use x="716.162109" xlink:href="#DejaVuSans-114"/>
     <use x="755.525391" xlink:href="#DejaVuSans-103"/>
     <use x="819.001953" xlink:href="#DejaVuSans-101"/>
     <use x="880.525391" xlink:href="#DejaVuSans-116"/>
     <use x="919.734375" xlink:href="#DejaVuSans-32"/>
     <use x="951.521484" xlink:href="#DejaVuSans-40"/>
     <use x="990.535156" xlink:href="#DejaVuSans-50"/>
     <use x="1054.158203" xlink:href="#DejaVuSans-51"/>
     <use x="1117.78125" xlink:href="#DejaVuSans-104"/>
     <use x="1181.160156" xlink:href="#DejaVuSans-58"/>
     <use x="1214.851562" xlink:href="#DejaVuSans-51"/>
     <use x="1278.474609" xlink:href="#DejaVuSans-48"/>
     <use x="1342.097656" xlink:href="#DejaVuSans-109"/>
     <use x="1439.509766" xlink:href="#DejaVuSans-44"/>
     <use x="1471.296875" xlink:href="#DejaVuSans-32"/>
     <use x="1503.083984" xlink:href="#DejaVuSans-52"/>
     <use x="1566.707031" xlink:href="#DejaVuSans-32"/>
     <use x="1598.494141" xlink:href="#DejaVuSans-116"/>
     <use x="1637.703125" xlink:href="#DejaVuSans-114"/>
     <use x="1678.816406" xlink:href="#DejaVuSans-105"/>
     <use x="1706.599609" xlink:href="#DejaVuSans-97"/>
     <use x="1767.878906" xlink:href="#DejaVuSans-108"/>
     <use x="1795.662109" xlink:href="#DejaVuSans-115"/>
     <use x="1847.761719" xlink:href="#DejaVuSans-47"/>
     <use x="1881.453125" xlink:href="#DejaVuSans-102"/>
     <use x="1916.658203" xlink:href="#DejaVuSans-117"/>
     <use x="1980.037109" xlink:href="#DejaVuSans-122"/>
     <use x="2032.527344" xlink:href="#DejaVuSans-122"/>
     <use x="2085.017578" xlink:href="#DejaVuSans-101"/>
     <use x="2146.541016" xlink:href="#DejaVuSans-114"/>
     <use x="2187.654297" xlink:href="#DejaVuSans-41"/>
    </g>
   </g>
  </g>
 </g>
 <defs>
  <clipPath id="p9ef67b156f">
   <rect height="266.112" width="357.12" x="53.328125" y="22.318125"/>
  </clipPath>
 </defs>
</svg>
