<?xml version="1.0" encoding="utf-8" standalone="no"?>
<!DOCTYPE svg PUBLIC "-//W3C//DTD SVG 1.1//EN"
  "http://www.w3.org/Graphics/SVG/1.1/DTD/svg11.dtd">
<!-- Created with matplotlib (https://matplotlib.org/) -->
<svg height="376.482959pt" version="1.1" viewBox="0 0 417.648125 376.482959" width="417.648125pt" xmlns="http://www.w3.org/2000/svg" xmlns:xlink="http://www.w3.org/1999/xlink">
 <metadata>
  <rdf:RDF xmlns:cc="http://creativecommons.org/ns#" xmlns:dc="http://purl.org/dc/elements/1.1/" xmlns:rdf="http://www.w3.org/1999/02/22-rdf-syntax-ns#">
   <cc:Work>
    <dc:type rdf:resource="http://purl.org/dc/dcmitype/StillImage"/>
    <dc:date>2020-08-11T16:35:29.108459</dc:date>
    <dc:format>image/svg+xml</dc:format>
    <dc:creator>
     <cc:Agent>
      <dc:title>Matplotlib v3.3.0, https://matplotlib.org/</dc:title>
     </cc:Agent>
    </dc:creator>
   </cc:Work>
  </rdf:RDF>
 </metadata>
 <defs>
  <style type="text/css">*{stroke-linecap:butt;stroke-linejoin:round;}</style>
 </defs>
 <g id="figure_1">
  <g id="patch_1">
   <path d="M 0 376.482959 
L 417.648125 376.482959 
L 417.648125 0 
L 0 0 
z
" style="fill:#ffffff;"/>
  </g>
  <g id="axes_1">
   <g id="patch_2">
    <path d="M 53.328125 288.430125 
L 410.448125 288.430125 
L 410.448125 22.318125 
L 53.328125 22.318125 
z
" style="fill:#ffffff;"/>
   </g>
   <g id="PolyCollection_1">
    <defs>
     <path d="M 114.639465 -164.319686 
L 111.056785 -164.319686 
L 110.812958 -166.086827 
L 110.54533 -167.853968 
L 110.253057 -169.62111 
L 109.935491 -171.388251 
L 109.592206 -173.155392 
L 109.223035 -174.922533 
L 108.828089 -176.689674 
L 108.407784 -178.456816 
L 107.962859 -180.223957 
L 107.494383 -181.991098 
L 107.003761 -183.758239 
L 106.492731 -185.52538 
L 105.963347 -187.292521 
L 105.417964 -189.059663 
L 104.859198 -190.826804 
L 104.289892 -192.593945 
L 103.713064 -194.361086 
L 103.131851 -196.128227 
L 102.549442 -197.895369 
L 101.969013 -199.66251 
L 101.393651 -201.429651 
L 100.826281 -203.196792 
L 100.269595 -204.963933 
L 99.725975 -206.731075 
L 99.197437 -208.498216 
L 98.685566 -210.265357 
L 98.191479 -212.032498 
L 97.715782 -213.799639 
L 97.258557 -215.56678 
L 96.819357 -217.333922 
L 96.397219 -219.101063 
L 95.990691 -220.868204 
L 95.597885 -222.635345 
L 95.216537 -224.402486 
L 94.844084 -226.169628 
L 94.477759 -227.936769 
L 94.114693 -229.70391 
L 93.752023 -231.471051 
L 93.387008 -233.238192 
L 93.017146 -235.005334 
L 92.640286 -236.772475 
L 92.254736 -238.539616 
L 91.859361 -240.306757 
L 91.453668 -242.073898 
L 91.037872 -243.841039 
L 90.612944 -245.608181 
L 90.180643 -247.375322 
L 89.743519 -249.142463 
L 89.304894 -250.909604 
L 88.868824 -252.676745 
L 88.440036 -254.443887 
L 88.023838 -256.211028 
L 87.626022 -257.978169 
L 87.252743 -259.74531 
L 86.91038 -261.512451 
L 86.605403 -263.279593 
L 86.344219 -265.046734 
L 86.133022 -266.813875 
L 85.977653 -268.581016 
L 85.883451 -270.348157 
L 85.85513 -272.115298 
L 85.896664 -273.88244 
L 86.011185 -275.649581 
L 86.200904 -277.416722 
L 86.46706 -279.183863 
L 86.809877 -280.951004 
L 87.228558 -282.718146 
L 87.721296 -284.485287 
L 88.285305 -286.252428 
L 88.91688 -288.019569 
L 89.611463 -289.78671 
L 90.363743 -291.553852 
L 91.167754 -293.320993 
L 92.01699 -295.088134 
L 92.904532 -296.855275 
L 93.823171 -298.622416 
L 94.765538 -300.389557 
L 95.724229 -302.156699 
L 96.691928 -303.92384 
L 97.661515 -305.690981 
L 98.626177 -307.458122 
L 99.579492 -309.225263 
L 100.515512 -310.992405 
L 101.428827 -312.759546 
L 102.314611 -314.526687 
L 103.168661 -316.293828 
L 103.987415 -318.060969 
L 104.767958 -319.828111 
L 105.508018 -321.595252 
L 106.205943 -323.362393 
L 106.860679 -325.129534 
L 107.471728 -326.896675 
L 108.039105 -328.663816 
L 108.56329 -330.430958 
L 109.045173 -332.198099 
L 109.486 -333.96524 
L 109.887317 -335.732381 
L 110.250913 -337.499522 
L 110.578771 -339.266664 
L 115.117479 -339.266664 
L 115.117479 -339.266664 
L 115.445337 -337.499522 
L 115.808933 -335.732381 
L 116.21025 -333.96524 
L 116.651077 -332.198099 
L 117.13296 -330.430958 
L 117.657145 -328.663816 
L 118.224522 -326.896675 
L 118.835571 -325.129534 
L 119.490307 -323.362393 
L 120.188232 -321.595252 
L 120.928292 -319.828111 
L 121.708835 -318.060969 
L 122.527589 -316.293828 
L 123.381639 -314.526687 
L 124.267423 -312.759546 
L 125.180738 -310.992405 
L 126.116758 -309.225263 
L 127.070073 -307.458122 
L 128.034735 -305.690981 
L 129.004322 -303.92384 
L 129.972021 -302.156699 
L 130.930712 -300.389557 
L 131.873079 -298.622416 
L 132.791718 -296.855275 
L 133.67926 -295.088134 
L 134.528496 -293.320993 
L 135.332507 -291.553852 
L 136.084787 -289.78671 
L 136.77937 -288.019569 
L 137.410945 -286.252428 
L 137.974954 -284.485287 
L 138.467692 -282.718146 
L 138.886373 -280.951004 
L 139.22919 -279.183863 
L 139.495346 -277.416722 
L 139.685065 -275.649581 
L 139.799586 -273.88244 
L 139.84112 -272.115298 
L 139.812799 -270.348157 
L 139.718597 -268.581016 
L 139.563228 -266.813875 
L 139.352031 -265.046734 
L 139.090847 -263.279593 
L 138.78587 -261.512451 
L 138.443507 -259.74531 
L 138.070228 -257.978169 
L 137.672412 -256.211028 
L 137.256214 -254.443887 
L 136.827426 -252.676745 
L 136.391356 -250.909604 
L 135.952731 -249.142463 
L 135.515607 -247.375322 
L 135.083306 -245.608181 
L 134.658378 -243.841039 
L 134.242582 -242.073898 
L 133.836889 -240.306757 
L 133.441514 -238.539616 
L 133.055964 -236.772475 
L 132.679104 -235.005334 
L 132.309242 -233.238192 
L 131.944227 -231.471051 
L 131.581557 -229.70391 
L 131.218491 -227.936769 
L 130.852166 -226.169628 
L 130.479713 -224.402486 
L 130.098365 -222.635345 
L 129.705559 -220.868204 
L 129.299031 -219.101063 
L 128.876893 -217.333922 
L 128.437693 -215.56678 
L 127.980468 -213.799639 
L 127.504771 -212.032498 
L 127.010684 -210.265357 
L 126.498813 -208.498216 
L 125.970275 -206.731075 
L 125.426655 -204.963933 
L 124.869969 -203.196792 
L 124.302599 -201.429651 
L 123.727237 -199.66251 
L 123.146808 -197.895369 
L 122.564399 -196.128227 
L 121.983186 -194.361086 
L 121.406358 -192.593945 
L 120.837052 -190.826804 
L 120.278286 -189.059663 
L 119.732903 -187.292521 
L 119.203519 -185.52538 
L 118.692489 -183.758239 
L 118.201867 -181.991098 
L 117.733391 -180.223957 
L 117.288466 -178.456816 
L 116.868161 -176.689674 
L 116.473215 -174.922533 
L 116.104044 -173.155392 
L 115.760759 -171.388251 
L 115.443193 -169.62111 
L 115.15092 -167.853968 
L 114.883292 -166.086827 
L 114.639465 -164.319686 
z
" id="m5b4e7059fa" style="stroke:#3f3f3f;stroke-width:1.5;"/>
    </defs>
    <g clip-path="url(#pc7c8f58cb1)">
     <use style="fill:#b5c8e1;stroke:#3f3f3f;stroke-width:1.5;" x="0" xlink:href="#m5b4e7059fa" y="376.482959"/>
    </g>
   </g>
   <g id="PolyCollection_2">
    <defs>
     <path d="M 235.334091 -207.763211 
L 228.442159 -207.763211 
L 227.957574 -208.71906 
L 227.423019 -209.674908 
L 226.836221 -210.630756 
L 226.195232 -211.586604 
L 225.498487 -212.542452 
L 224.74487 -213.4983 
L 223.933768 -214.454149 
L 223.065119 -215.409997 
L 222.139463 -216.365845 
L 221.157969 -217.321693 
L 220.12246 -218.277541 
L 219.03542 -219.233389 
L 217.899995 -220.189238 
L 216.719967 -221.145086 
L 215.499724 -222.100934 
L 214.244213 -223.056782 
L 212.958873 -224.01263 
L 211.64956 -224.968478 
L 210.322461 -225.924327 
L 208.983999 -226.880175 
L 207.640725 -227.836023 
L 206.299218 -228.791871 
L 204.965971 -229.747719 
L 203.647291 -230.703567 
L 202.349198 -231.659416 
L 201.077334 -232.615264 
L 199.836883 -233.571112 
L 198.632507 -234.52696 
L 197.468296 -235.482808 
L 196.347734 -236.438656 
L 195.273685 -237.394505 
L 194.248395 -238.350353 
L 193.273515 -239.306201 
L 192.350135 -240.262049 
L 191.478837 -241.217897 
L 190.659759 -242.173745 
L 189.892671 -243.129594 
L 189.177054 -244.085442 
L 188.512188 -245.04129 
L 187.897241 -245.997138 
L 187.331353 -246.952986 
L 186.813718 -247.908835 
L 186.343662 -248.864683 
L 185.920706 -249.820531 
L 185.544623 -250.776379 
L 185.215483 -251.732227 
L 184.933677 -252.688075 
L 184.699943 -253.643924 
L 184.515358 -254.599772 
L 184.381335 -255.55562 
L 184.299593 -256.511468 
L 184.272125 -257.467316 
L 184.301145 -258.423164 
L 184.389034 -259.379013 
L 184.538272 -260.334861 
L 184.751366 -261.290709 
L 185.030771 -262.246557 
L 185.378809 -263.202405 
L 185.797583 -264.158253 
L 186.288903 -265.114102 
L 186.854194 -266.06995 
L 187.494432 -267.025798 
L 188.210067 -267.981646 
L 189.000962 -268.937494 
L 189.866346 -269.893342 
L 190.804768 -270.849191 
L 191.81407 -271.805039 
L 192.891375 -272.760887 
L 194.033085 -273.716735 
L 195.234896 -274.672583 
L 196.49183 -275.628431 
L 197.798275 -276.58428 
L 199.148053 -277.540128 
L 200.534484 -278.495976 
L 201.950475 -279.451824 
L 203.388609 -280.407672 
L 204.841253 -281.36352 
L 206.30066 -282.319369 
L 207.759078 -283.275217 
L 209.208862 -284.231065 
L 210.64258 -285.186913 
L 212.053114 -286.142761 
L 213.433753 -287.09861 
L 214.778283 -288.054458 
L 216.08105 -289.010306 
L 217.337032 -289.966154 
L 218.541874 -290.922002 
L 219.691928 -291.87785 
L 220.784266 -292.833699 
L 221.816681 -293.789547 
L 222.787682 -294.745395 
L 223.696464 -295.701243 
L 224.542874 -296.657091 
L 225.327372 -297.612939 
L 226.050969 -298.568788 
L 226.715175 -299.524636 
L 227.321935 -300.480484 
L 227.873559 -301.436332 
L 228.372659 -302.39218 
L 235.403591 -302.39218 
L 235.403591 -302.39218 
L 235.902691 -301.436332 
L 236.454315 -300.480484 
L 237.061075 -299.524636 
L 237.725281 -298.568788 
L 238.448878 -297.612939 
L 239.233376 -296.657091 
L 240.079786 -295.701243 
L 240.988568 -294.745395 
L 241.959569 -293.789547 
L 242.991984 -292.833699 
L 244.084322 -291.87785 
L 245.234376 -290.922002 
L 246.439218 -289.966154 
L 247.6952 -289.010306 
L 248.997967 -288.054458 
L 250.342497 -287.09861 
L 251.723136 -286.142761 
L 253.13367 -285.186913 
L 254.567388 -284.231065 
L 256.017172 -283.275217 
L 257.47559 -282.319369 
L 258.934997 -281.36352 
L 260.387641 -280.407672 
L 261.825775 -279.451824 
L 263.241766 -278.495976 
L 264.628197 -277.540128 
L 265.977975 -276.58428 
L 267.28442 -275.628431 
L 268.541354 -274.672583 
L 269.743165 -273.716735 
L 270.884875 -272.760887 
L 271.96218 -271.805039 
L 272.971482 -270.849191 
L 273.909904 -269.893342 
L 274.775288 -268.937494 
L 275.566183 -267.981646 
L 276.281818 -267.025798 
L 276.922056 -266.06995 
L 277.487347 -265.114102 
L 277.978667 -264.158253 
L 278.397441 -263.202405 
L 278.745479 -262.246557 
L 279.024884 -261.290709 
L 279.237978 -260.334861 
L 279.387216 -259.379013 
L 279.475105 -258.423164 
L 279.504125 -257.467316 
L 279.476657 -256.511468 
L 279.394915 -255.55562 
L 279.260892 -254.599772 
L 279.076307 -253.643924 
L 278.842573 -252.688075 
L 278.560767 -251.732227 
L 278.231627 -250.776379 
L 277.855544 -249.820531 
L 277.432588 -248.864683 
L 276.962532 -247.908835 
L 276.444897 -246.952986 
L 275.879009 -245.997138 
L 275.264062 -245.04129 
L 274.599196 -244.085442 
L 273.883579 -243.129594 
L 273.116491 -242.173745 
L 272.297413 -241.217897 
L 271.426115 -240.262049 
L 270.502735 -239.306201 
L 269.527855 -238.350353 
L 268.502565 -237.394505 
L 267.428516 -236.438656 
L 266.307954 -235.482808 
L 265.143743 -234.52696 
L 263.939367 -233.571112 
L 262.698916 -232.615264 
L 261.427052 -231.659416 
L 260.128959 -230.703567 
L 258.810279 -229.747719 
L 257.477032 -228.791871 
L 256.135525 -227.836023 
L 254.792251 -226.880175 
L 253.453789 -225.924327 
L 252.12669 -224.968478 
L 250.817377 -224.01263 
L 249.532037 -223.056782 
L 248.276526 -222.100934 
L 247.056283 -221.145086 
L 245.876255 -220.189238 
L 244.74083 -219.233389 
L 243.65379 -218.277541 
L 242.618281 -217.321693 
L 241.636787 -216.365845 
L 240.711131 -215.409997 
L 239.842482 -214.454149 
L 239.03138 -213.4983 
L 238.277763 -212.542452 
L 237.581018 -211.586604 
L 236.940029 -210.630756 
L 236.353231 -209.674908 
L 235.818676 -208.71906 
L 235.334091 -207.763211 
z
" id="mab95596727" style="stroke:#3f3f3f;stroke-width:1.5;"/>
    </defs>
    <g clip-path="url(#pc7c8f58cb1)">
     <use style="fill:#e1812c;stroke:#3f3f3f;stroke-width:1.5;" x="0" xlink:href="#mab95596727" y="376.482959"/>
    </g>
   </g>
   <g id="PolyCollection_3">
    <defs>
     <path d="M 352.224109 -100.148834 
L 349.632141 -100.148834 
L 349.455662 -102.592471 
L 349.261948 -105.036107 
L 349.050385 -107.479743 
L 348.820501 -109.92338 
L 348.571989 -112.367016 
L 348.304724 -114.810652 
L 348.018786 -117.254289 
L 347.714474 -119.697925 
L 347.392321 -122.141561 
L 347.053099 -124.585198 
L 346.697823 -127.028834 
L 346.327748 -129.472471 
L 345.944361 -131.916107 
L 345.549363 -134.359743 
L 345.144647 -136.80338 
L 344.732268 -139.247016 
L 344.314409 -141.690652 
L 343.893338 -144.134289 
L 343.471363 -146.577925 
L 343.05078 -149.021561 
L 342.633823 -151.465198 
L 342.222609 -153.908834 
L 341.819085 -156.352471 
L 341.424976 -158.796107 
L 341.041741 -161.239743 
L 340.670531 -163.68338 
L 340.312156 -166.127016 
L 339.96706 -168.570652 
L 339.635308 -171.014289 
L 339.316583 -173.457925 
L 339.010196 -175.901561 
L 338.715108 -178.345198 
L 338.429964 -180.788834 
L 338.15314 -183.232471 
L 337.882795 -185.676107 
L 337.616946 -188.119743 
L 337.353534 -190.56338 
L 337.090506 -193.007016 
L 336.825899 -195.450652 
L 336.557923 -197.894289 
L 336.285042 -200.337925 
L 336.006053 -202.781561 
L 335.720152 -205.225198 
L 335.427 -207.668834 
L 335.126768 -210.112471 
L 334.82017 -212.556107 
L 334.508488 -214.999743 
L 334.193573 -217.44338 
L 333.877829 -219.887016 
L 333.564188 -222.330652 
L 333.256061 -224.774289 
L 332.957276 -227.217925 
L 332.672008 -229.661561 
L 332.404686 -232.105198 
L 332.1599 -234.548834 
L 331.9423 -236.992471 
L 331.756489 -239.436107 
L 331.606912 -241.879743 
L 331.497756 -244.32338 
L 331.432844 -246.767016 
L 331.415548 -249.210652 
L 331.448703 -251.654289 
L 331.534536 -254.097925 
L 331.674613 -256.541561 
L 331.869795 -258.985198 
L 332.120216 -261.428834 
L 332.425273 -263.872471 
L 332.783638 -266.316107 
L 333.19328 -268.759743 
L 333.651505 -271.20338 
L 334.155013 -273.647016 
L 334.699959 -276.090652 
L 335.28203 -278.534289 
L 335.896528 -280.977925 
L 336.538461 -283.421561 
L 337.202629 -285.865198 
L 337.883721 -288.308834 
L 338.576403 -290.752471 
L 339.275405 -293.196107 
L 339.975603 -295.639743 
L 340.672092 -298.08338 
L 341.360255 -300.527016 
L 342.035813 -302.970652 
L 342.694878 -305.414289 
L 343.333983 -307.857925 
L 343.950109 -310.301561 
L 344.540701 -312.745198 
L 345.103668 -315.188834 
L 345.637382 -317.632471 
L 346.140664 -320.076107 
L 346.612761 -322.519743 
L 347.053323 -324.96338 
L 347.462369 -327.407016 
L 347.840251 -329.850652 
L 348.187617 -332.294289 
L 348.505371 -334.737925 
L 348.79463 -337.181561 
L 349.056689 -339.625198 
L 349.292978 -342.068834 
L 352.563272 -342.068834 
L 352.563272 -342.068834 
L 352.799561 -339.625198 
L 353.06162 -337.181561 
L 353.350879 -334.737925 
L 353.668633 -332.294289 
L 354.015999 -329.850652 
L 354.393881 -327.407016 
L 354.802927 -324.96338 
L 355.243489 -322.519743 
L 355.715586 -320.076107 
L 356.218868 -317.632471 
L 356.752582 -315.188834 
L 357.315549 -312.745198 
L 357.906141 -310.301561 
L 358.522267 -307.857925 
L 359.161372 -305.414289 
L 359.820437 -302.970652 
L 360.495995 -300.527016 
L 361.184158 -298.08338 
L 361.880647 -295.639743 
L 362.580845 -293.196107 
L 363.279847 -290.752471 
L 363.972529 -288.308834 
L 364.653621 -285.865198 
L 365.317789 -283.421561 
L 365.959722 -280.977925 
L 366.57422 -278.534289 
L 367.156291 -276.090652 
L 367.701237 -273.647016 
L 368.204745 -271.20338 
L 368.66297 -268.759743 
L 369.072612 -266.316107 
L 369.430977 -263.872471 
L 369.736034 -261.428834 
L 369.986455 -258.985198 
L 370.181637 -256.541561 
L 370.321714 -254.097925 
L 370.407547 -251.654289 
L 370.440702 -249.210652 
L 370.423406 -246.767016 
L 370.358494 -244.32338 
L 370.249338 -241.879743 
L 370.099761 -239.436107 
L 369.91395 -236.992471 
L 369.69635 -234.548834 
L 369.451564 -232.105198 
L 369.184242 -229.661561 
L 368.898974 -227.217925 
L 368.600189 -224.774289 
L 368.292062 -222.330652 
L 367.978421 -219.887016 
L 367.662677 -217.44338 
L 367.347762 -214.999743 
L 367.03608 -212.556107 
L 366.729482 -210.112471 
L 366.42925 -207.668834 
L 366.136098 -205.225198 
L 365.850197 -202.781561 
L 365.571208 -200.337925 
L 365.298327 -197.894289 
L 365.030351 -195.450652 
L 364.765744 -193.007016 
L 364.502716 -190.56338 
L 364.239304 -188.119743 
L 363.973455 -185.676107 
L 363.70311 -183.232471 
L 363.426286 -180.788834 
L 363.141142 -178.345198 
L 362.846054 -175.901561 
L 362.539667 -173.457925 
L 362.220942 -171.014289 
L 361.88919 -168.570652 
L 361.544094 -166.127016 
L 361.185719 -163.68338 
L 360.814509 -161.239743 
L 360.431274 -158.796107 
L 360.037165 -156.352471 
L 359.633641 -153.908834 
L 359.222427 -151.465198 
L 358.80547 -149.021561 
L 358.384887 -146.577925 
L 357.962912 -144.134289 
L 357.541841 -141.690652 
L 357.123982 -139.247016 
L 356.711603 -136.80338 
L 356.306887 -134.359743 
L 355.911889 -131.916107 
L 355.528502 -129.472471 
L 355.158427 -127.028834 
L 354.803151 -124.585198 
L 354.463929 -122.141561 
L 354.141776 -119.697925 
L 353.837464 -117.254289 
L 353.551526 -114.810652 
L 353.284261 -112.367016 
L 353.035749 -109.92338 
L 352.805865 -107.479743 
L 352.594302 -105.036107 
L 352.400588 -102.592471 
L 352.224109 -100.148834 
z
" id="m5f0fbcc521" style="stroke:#3f3f3f;stroke-width:1.5;"/>
    </defs>
    <g clip-path="url(#pc7c8f58cb1)">
     <use style="fill:#3274a1;stroke:#3f3f3f;stroke-width:1.5;" x="0" xlink:href="#m5f0fbcc521" y="376.482959"/>
    </g>
   </g>
   <g id="matplotlib.axis_1">
    <g id="xtick_1">
     <g id="line2d_1">
      <defs>
       <path d="M 0 0 
L 0 3.5 
" id="ma550ebaab1" style="stroke:#000000;stroke-width:0.8;"/>
      </defs>
      <g>
       <use style="stroke:#000000;stroke-width:0.8;" x="112.848125" xlink:href="#ma550ebaab1" y="288.430125"/>
      </g>
     </g>
     <g id="text_1">
      <!-- dark_w_prob -->
      <g transform="translate(56.886346 333.639471)rotate(-30)scale(0.1 -0.1)">
       <defs>
        <path d="M 45.40625 46.390625 
L 45.40625 75.984375 
L 54.390625 75.984375 
L 54.390625 0 
L 45.40625 0 
L 45.40625 8.203125 
Q 42.578125 3.328125 38.25 0.953125 
Q 33.9375 -1.421875 27.875 -1.421875 
Q 17.96875 -1.421875 11.734375 6.484375 
Q 5.515625 14.40625 5.515625 27.296875 
Q 5.515625 40.1875 11.734375 48.09375 
Q 17.96875 56 27.875 56 
Q 33.9375 56 38.25 53.625 
Q 42.578125 51.265625 45.40625 46.390625 
z
M 14.796875 27.296875 
Q 14.796875 17.390625 18.875 11.75 
Q 22.953125 6.109375 30.078125 6.109375 
Q 37.203125 6.109375 41.296875 11.75 
Q 45.40625 17.390625 45.40625 27.296875 
Q 45.40625 37.203125 41.296875 42.84375 
Q 37.203125 48.484375 30.078125 48.484375 
Q 22.953125 48.484375 18.875 42.84375 
Q 14.796875 37.203125 14.796875 27.296875 
z
" id="DejaVuSans-100"/>
        <path d="M 34.28125 27.484375 
Q 23.390625 27.484375 19.1875 25 
Q 14.984375 22.515625 14.984375 16.5 
Q 14.984375 11.71875 18.140625 8.90625 
Q 21.296875 6.109375 26.703125 6.109375 
Q 34.1875 6.109375 38.703125 11.40625 
Q 43.21875 16.703125 43.21875 25.484375 
L 43.21875 27.484375 
z
M 52.203125 31.203125 
L 52.203125 0 
L 43.21875 0 
L 43.21875 8.296875 
Q 40.140625 3.328125 35.546875 0.953125 
Q 30.953125 -1.421875 24.3125 -1.421875 
Q 15.921875 -1.421875 10.953125 3.296875 
Q 6 8.015625 6 15.921875 
Q 6 25.140625 12.171875 29.828125 
Q 18.359375 34.515625 30.609375 34.515625 
L 43.21875 34.515625 
L 43.21875 35.40625 
Q 43.21875 41.609375 39.140625 45 
Q 35.0625 48.390625 27.6875 48.390625 
Q 23 48.390625 18.546875 47.265625 
Q 14.109375 46.140625 10.015625 43.890625 
L 10.015625 52.203125 
Q 14.9375 54.109375 19.578125 55.046875 
Q 24.21875 56 28.609375 56 
Q 40.484375 56 46.34375 49.84375 
Q 52.203125 43.703125 52.203125 31.203125 
z
" id="DejaVuSans-97"/>
        <path d="M 41.109375 46.296875 
Q 39.59375 47.171875 37.8125 47.578125 
Q 36.03125 48 33.890625 48 
Q 26.265625 48 22.1875 43.046875 
Q 18.109375 38.09375 18.109375 28.8125 
L 18.109375 0 
L 9.078125 0 
L 9.078125 54.6875 
L 18.109375 54.6875 
L 18.109375 46.1875 
Q 20.953125 51.171875 25.484375 53.578125 
Q 30.03125 56 36.53125 56 
Q 37.453125 56 38.578125 55.875 
Q 39.703125 55.765625 41.0625 55.515625 
z
" id="DejaVuSans-114"/>
        <path d="M 9.078125 75.984375 
L 18.109375 75.984375 
L 18.109375 31.109375 
L 44.921875 54.6875 
L 56.390625 54.6875 
L 27.390625 29.109375 
L 57.625 0 
L 45.90625 0 
L 18.109375 26.703125 
L 18.109375 0 
L 9.078125 0 
z
" id="DejaVuSans-107"/>
        <path d="M 50.984375 -16.609375 
L 50.984375 -23.578125 
L -0.984375 -23.578125 
L -0.984375 -16.609375 
z
" id="DejaVuSans-95"/>
        <path d="M 4.203125 54.6875 
L 13.1875 54.6875 
L 24.421875 12.015625 
L 35.59375 54.6875 
L 46.1875 54.6875 
L 57.421875 12.015625 
L 68.609375 54.6875 
L 77.59375 54.6875 
L 63.28125 0 
L 52.6875 0 
L 40.921875 44.828125 
L 29.109375 0 
L 18.5 0 
z
" id="DejaVuSans-119"/>
        <path d="M 18.109375 8.203125 
L 18.109375 -20.796875 
L 9.078125 -20.796875 
L 9.078125 54.6875 
L 18.109375 54.6875 
L 18.109375 46.390625 
Q 20.953125 51.265625 25.265625 53.625 
Q 29.59375 56 35.59375 56 
Q 45.5625 56 51.78125 48.09375 
Q 58.015625 40.1875 58.015625 27.296875 
Q 58.015625 14.40625 51.78125 6.484375 
Q 45.5625 -1.421875 35.59375 -1.421875 
Q 29.59375 -1.421875 25.265625 0.953125 
Q 20.953125 3.328125 18.109375 8.203125 
z
M 48.6875 27.296875 
Q 48.6875 37.203125 44.609375 42.84375 
Q 40.53125 48.484375 33.40625 48.484375 
Q 26.265625 48.484375 22.1875 42.84375 
Q 18.109375 37.203125 18.109375 27.296875 
Q 18.109375 17.390625 22.1875 11.75 
Q 26.265625 6.109375 33.40625 6.109375 
Q 40.53125 6.109375 44.609375 11.75 
Q 48.6875 17.390625 48.6875 27.296875 
z
" id="DejaVuSans-112"/>
        <path d="M 30.609375 48.390625 
Q 23.390625 48.390625 19.1875 42.75 
Q 14.984375 37.109375 14.984375 27.296875 
Q 14.984375 17.484375 19.15625 11.84375 
Q 23.34375 6.203125 30.609375 6.203125 
Q 37.796875 6.203125 41.984375 11.859375 
Q 46.1875 17.53125 46.1875 27.296875 
Q 46.1875 37.015625 41.984375 42.703125 
Q 37.796875 48.390625 30.609375 48.390625 
z
M 30.609375 56 
Q 42.328125 56 49.015625 48.375 
Q 55.71875 40.765625 55.71875 27.296875 
Q 55.71875 13.875 49.015625 6.21875 
Q 42.328125 -1.421875 30.609375 -1.421875 
Q 18.84375 -1.421875 12.171875 6.21875 
Q 5.515625 13.875 5.515625 27.296875 
Q 5.515625 40.765625 12.171875 48.375 
Q 18.84375 56 30.609375 56 
z
" id="DejaVuSans-111"/>
        <path d="M 48.6875 27.296875 
Q 48.6875 37.203125 44.609375 42.84375 
Q 40.53125 48.484375 33.40625 48.484375 
Q 26.265625 48.484375 22.1875 42.84375 
Q 18.109375 37.203125 18.109375 27.296875 
Q 18.109375 17.390625 22.1875 11.75 
Q 26.265625 6.109375 33.40625 6.109375 
Q 40.53125 6.109375 44.609375 11.75 
Q 48.6875 17.390625 48.6875 27.296875 
z
M 18.109375 46.390625 
Q 20.953125 51.265625 25.265625 53.625 
Q 29.59375 56 35.59375 56 
Q 45.5625 56 51.78125 48.09375 
Q 58.015625 40.1875 58.015625 27.296875 
Q 58.015625 14.40625 51.78125 6.484375 
Q 45.5625 -1.421875 35.59375 -1.421875 
Q 29.59375 -1.421875 25.265625 0.953125 
Q 20.953125 3.328125 18.109375 8.203125 
L 18.109375 0 
L 9.078125 0 
L 9.078125 75.984375 
L 18.109375 75.984375 
z
" id="DejaVuSans-98"/>
       </defs>
       <use xlink:href="#DejaVuSans-100"/>
       <use x="63.476562" xlink:href="#DejaVuSans-97"/>
       <use x="124.755859" xlink:href="#DejaVuSans-114"/>
       <use x="165.869141" xlink:href="#DejaVuSans-107"/>
       <use x="223.779297" xlink:href="#DejaVuSans-95"/>
       <use x="273.779297" xlink:href="#DejaVuSans-119"/>
       <use x="355.566406" xlink:href="#DejaVuSans-95"/>
       <use x="405.566406" xlink:href="#DejaVuSans-112"/>
       <use x="469.042969" xlink:href="#DejaVuSans-114"/>
       <use x="507.90625" xlink:href="#DejaVuSans-111"/>
       <use x="569.087891" xlink:href="#DejaVuSans-98"/>
      </g>
     </g>
    </g>
    <g id="xtick_2">
     <g id="line2d_2">
      <g>
       <use style="stroke:#000000;stroke-width:0.8;" x="231.888125" xlink:href="#ma550ebaab1" y="288.430125"/>
      </g>
     </g>
     <g id="text_2">
      <!-- dark_w_prob_energy -->
      <g transform="translate(141.41794 353.562909)rotate(-30)scale(0.1 -0.1)">
       <defs>
        <path d="M 56.203125 29.59375 
L 56.203125 25.203125 
L 14.890625 25.203125 
Q 15.484375 15.921875 20.484375 11.0625 
Q 25.484375 6.203125 34.421875 6.203125 
Q 39.59375 6.203125 44.453125 7.46875 
Q 49.3125 8.734375 54.109375 11.28125 
L 54.109375 2.78125 
Q 49.265625 0.734375 44.1875 -0.34375 
Q 39.109375 -1.421875 33.890625 -1.421875 
Q 20.796875 -1.421875 13.15625 6.1875 
Q 5.515625 13.8125 5.515625 26.8125 
Q 5.515625 40.234375 12.765625 48.109375 
Q 20.015625 56 32.328125 56 
Q 43.359375 56 49.78125 48.890625 
Q 56.203125 41.796875 56.203125 29.59375 
z
M 47.21875 32.234375 
Q 47.125 39.59375 43.09375 43.984375 
Q 39.0625 48.390625 32.421875 48.390625 
Q 24.90625 48.390625 20.390625 44.140625 
Q 15.875 39.890625 15.1875 32.171875 
z
" id="DejaVuSans-101"/>
        <path d="M 54.890625 33.015625 
L 54.890625 0 
L 45.90625 0 
L 45.90625 32.71875 
Q 45.90625 40.484375 42.875 44.328125 
Q 39.84375 48.1875 33.796875 48.1875 
Q 26.515625 48.1875 22.3125 43.546875 
Q 18.109375 38.921875 18.109375 30.90625 
L 18.109375 0 
L 9.078125 0 
L 9.078125 54.6875 
L 18.109375 54.6875 
L 18.109375 46.1875 
Q 21.34375 51.125 25.703125 53.5625 
Q 30.078125 56 35.796875 56 
Q 45.21875 56 50.046875 50.171875 
Q 54.890625 44.34375 54.890625 33.015625 
z
" id="DejaVuSans-110"/>
        <path d="M 45.40625 27.984375 
Q 45.40625 37.75 41.375 43.109375 
Q 37.359375 48.484375 30.078125 48.484375 
Q 22.859375 48.484375 18.828125 43.109375 
Q 14.796875 37.75 14.796875 27.984375 
Q 14.796875 18.265625 18.828125 12.890625 
Q 22.859375 7.515625 30.078125 7.515625 
Q 37.359375 7.515625 41.375 12.890625 
Q 45.40625 18.265625 45.40625 27.984375 
z
M 54.390625 6.78125 
Q 54.390625 -7.171875 48.1875 -13.984375 
Q 42 -20.796875 29.203125 -20.796875 
Q 24.46875 -20.796875 20.265625 -20.09375 
Q 16.0625 -19.390625 12.109375 -17.921875 
L 12.109375 -9.1875 
Q 16.0625 -11.328125 19.921875 -12.34375 
Q 23.78125 -13.375 27.78125 -13.375 
Q 36.625 -13.375 41.015625 -8.765625 
Q 45.40625 -4.15625 45.40625 5.171875 
L 45.40625 9.625 
Q 42.625 4.78125 38.28125 2.390625 
Q 33.9375 0 27.875 0 
Q 17.828125 0 11.671875 7.65625 
Q 5.515625 15.328125 5.515625 27.984375 
Q 5.515625 40.671875 11.671875 48.328125 
Q 17.828125 56 27.875 56 
Q 33.9375 56 38.28125 53.609375 
Q 42.625 51.21875 45.40625 46.390625 
L 45.40625 54.6875 
L 54.390625 54.6875 
z
" id="DejaVuSans-103"/>
        <path d="M 32.171875 -5.078125 
Q 28.375 -14.84375 24.75 -17.8125 
Q 21.140625 -20.796875 15.09375 -20.796875 
L 7.90625 -20.796875 
L 7.90625 -13.28125 
L 13.1875 -13.28125 
Q 16.890625 -13.28125 18.9375 -11.515625 
Q 21 -9.765625 23.484375 -3.21875 
L 25.09375 0.875 
L 2.984375 54.6875 
L 12.5 54.6875 
L 29.59375 11.921875 
L 46.6875 54.6875 
L 56.203125 54.6875 
z
" id="DejaVuSans-121"/>
       </defs>
       <use xlink:href="#DejaVuSans-100"/>
       <use x="63.476562" xlink:href="#DejaVuSans-97"/>
       <use x="124.755859" xlink:href="#DejaVuSans-114"/>
       <use x="165.869141" xlink:href="#DejaVuSans-107"/>
       <use x="223.779297" xlink:href="#DejaVuSans-95"/>
       <use x="273.779297" xlink:href="#DejaVuSans-119"/>
       <use x="355.566406" xlink:href="#DejaVuSans-95"/>
       <use x="405.566406" xlink:href="#DejaVuSans-112"/>
       <use x="469.042969" xlink:href="#DejaVuSans-114"/>
       <use x="507.90625" xlink:href="#DejaVuSans-111"/>
       <use x="569.087891" xlink:href="#DejaVuSans-98"/>
       <use x="632.564453" xlink:href="#DejaVuSans-95"/>
       <use x="682.564453" xlink:href="#DejaVuSans-101"/>
       <use x="744.087891" xlink:href="#DejaVuSans-110"/>
       <use x="807.466797" xlink:href="#DejaVuSans-101"/>
       <use x="868.990234" xlink:href="#DejaVuSans-114"/>
       <use x="908.353516" xlink:href="#DejaVuSans-103"/>
       <use x="971.830078" xlink:href="#DejaVuSans-121"/>
      </g>
     </g>
    </g>
    <g id="xtick_3">
     <g id="line2d_3">
      <g>
       <use style="stroke:#000000;stroke-width:0.8;" x="350.928125" xlink:href="#ma550ebaab1" y="288.430125"/>
      </g>
     </g>
     <g id="text_3">
      <!-- dark -->
      <g transform="translate(330.508257 313.199627)rotate(-30)scale(0.1 -0.1)">
       <use xlink:href="#DejaVuSans-100"/>
       <use x="63.476562" xlink:href="#DejaVuSans-97"/>
       <use x="124.755859" xlink:href="#DejaVuSans-114"/>
       <use x="165.869141" xlink:href="#DejaVuSans-107"/>
      </g>
     </g>
    </g>
    <g id="text_4">
     <!-- Fuzzer (highest median coverage on the left) -->
     <g transform="translate(119.270156 367.203272)scale(0.1 -0.1)">
      <defs>
       <path d="M 9.8125 72.90625 
L 51.703125 72.90625 
L 51.703125 64.59375 
L 19.671875 64.59375 
L 19.671875 43.109375 
L 48.578125 43.109375 
L 48.578125 34.8125 
L 19.671875 34.8125 
L 19.671875 0 
L 9.8125 0 
z
" id="DejaVuSans-70"/>
       <path d="M 8.5 21.578125 
L 8.5 54.6875 
L 17.484375 54.6875 
L 17.484375 21.921875 
Q 17.484375 14.15625 20.5 10.265625 
Q 23.53125 6.390625 29.59375 6.390625 
Q 36.859375 6.390625 41.078125 11.03125 
Q 45.3125 15.671875 45.3125 23.6875 
L 45.3125 54.6875 
L 54.296875 54.6875 
L 54.296875 0 
L 45.3125 0 
L 45.3125 8.40625 
Q 42.046875 3.421875 37.71875 1 
Q 33.40625 -1.421875 27.6875 -1.421875 
Q 18.265625 -1.421875 13.375 4.4375 
Q 8.5 10.296875 8.5 21.578125 
z
M 31.109375 56 
z
" id="DejaVuSans-117"/>
       <path d="M 5.515625 54.6875 
L 48.1875 54.6875 
L 48.1875 46.484375 
L 14.40625 7.171875 
L 48.1875 7.171875 
L 48.1875 0 
L 4.296875 0 
L 4.296875 8.203125 
L 38.09375 47.515625 
L 5.515625 47.515625 
z
" id="DejaVuSans-122"/>
       <path id="DejaVuSans-32"/>
       <path d="M 31 75.875 
Q 24.46875 64.65625 21.28125 53.65625 
Q 18.109375 42.671875 18.109375 31.390625 
Q 18.109375 20.125 21.3125 9.0625 
Q 24.515625 -2 31 -13.1875 
L 23.1875 -13.1875 
Q 15.875 -1.703125 12.234375 9.375 
Q 8.59375 20.453125 8.59375 31.390625 
Q 8.59375 42.28125 12.203125 53.3125 
Q 15.828125 64.359375 23.1875 75.875 
z
" id="DejaVuSans-40"/>
       <path d="M 54.890625 33.015625 
L 54.890625 0 
L 45.90625 0 
L 45.90625 32.71875 
Q 45.90625 40.484375 42.875 44.328125 
Q 39.84375 48.1875 33.796875 48.1875 
Q 26.515625 48.1875 22.3125 43.546875 
Q 18.109375 38.921875 18.109375 30.90625 
L 18.109375 0 
L 9.078125 0 
L 9.078125 75.984375 
L 18.109375 75.984375 
L 18.109375 46.1875 
Q 21.34375 51.125 25.703125 53.5625 
Q 30.078125 56 35.796875 56 
Q 45.21875 56 50.046875 50.171875 
Q 54.890625 44.34375 54.890625 33.015625 
z
" id="DejaVuSans-104"/>
       <path d="M 9.421875 54.6875 
L 18.40625 54.6875 
L 18.40625 0 
L 9.421875 0 
z
M 9.421875 75.984375 
L 18.40625 75.984375 
L 18.40625 64.59375 
L 9.421875 64.59375 
z
" id="DejaVuSans-105"/>
       <path d="M 44.28125 53.078125 
L 44.28125 44.578125 
Q 40.484375 46.53125 36.375 47.5 
Q 32.28125 48.484375 27.875 48.484375 
Q 21.1875 48.484375 17.84375 46.4375 
Q 14.5 44.390625 14.5 40.28125 
Q 14.5 37.15625 16.890625 35.375 
Q 19.28125 33.59375 26.515625 31.984375 
L 29.59375 31.296875 
Q 39.15625 29.25 43.1875 25.515625 
Q 47.21875 21.78125 47.21875 15.09375 
Q 47.21875 7.46875 41.1875 3.015625 
Q 35.15625 -1.421875 24.609375 -1.421875 
Q 20.21875 -1.421875 15.453125 -0.5625 
Q 10.6875 0.296875 5.421875 2 
L 5.421875 11.28125 
Q 10.40625 8.6875 15.234375 7.390625 
Q 20.0625 6.109375 24.8125 6.109375 
Q 31.15625 6.109375 34.5625 8.28125 
Q 37.984375 10.453125 37.984375 14.40625 
Q 37.984375 18.0625 35.515625 20.015625 
Q 33.0625 21.96875 24.703125 23.78125 
L 21.578125 24.515625 
Q 13.234375 26.265625 9.515625 29.90625 
Q 5.8125 33.546875 5.8125 39.890625 
Q 5.8125 47.609375 11.28125 51.796875 
Q 16.75 56 26.8125 56 
Q 31.78125 56 36.171875 55.265625 
Q 40.578125 54.546875 44.28125 53.078125 
z
" id="DejaVuSans-115"/>
       <path d="M 18.3125 70.21875 
L 18.3125 54.6875 
L 36.8125 54.6875 
L 36.8125 47.703125 
L 18.3125 47.703125 
L 18.3125 18.015625 
Q 18.3125 11.328125 20.140625 9.421875 
Q 21.96875 7.515625 27.59375 7.515625 
L 36.8125 7.515625 
L 36.8125 0 
L 27.59375 0 
Q 17.1875 0 13.234375 3.875 
Q 9.28125 7.765625 9.28125 18.015625 
L 9.28125 47.703125 
L 2.6875 47.703125 
L 2.6875 54.6875 
L 9.28125 54.6875 
L 9.28125 70.21875 
z
" id="DejaVuSans-116"/>
       <path d="M 52 44.1875 
Q 55.375 50.25 60.0625 53.125 
Q 64.75 56 71.09375 56 
Q 79.640625 56 84.28125 50.015625 
Q 88.921875 44.046875 88.921875 33.015625 
L 88.921875 0 
L 79.890625 0 
L 79.890625 32.71875 
Q 79.890625 40.578125 77.09375 44.375 
Q 74.3125 48.1875 68.609375 48.1875 
Q 61.625 48.1875 57.5625 43.546875 
Q 53.515625 38.921875 53.515625 30.90625 
L 53.515625 0 
L 44.484375 0 
L 44.484375 32.71875 
Q 44.484375 40.625 41.703125 44.40625 
Q 38.921875 48.1875 33.109375 48.1875 
Q 26.21875 48.1875 22.15625 43.53125 
Q 18.109375 38.875 18.109375 30.90625 
L 18.109375 0 
L 9.078125 0 
L 9.078125 54.6875 
L 18.109375 54.6875 
L 18.109375 46.1875 
Q 21.1875 51.21875 25.484375 53.609375 
Q 29.78125 56 35.6875 56 
Q 41.65625 56 45.828125 52.96875 
Q 50 49.953125 52 44.1875 
z
" id="DejaVuSans-109"/>
       <path d="M 48.78125 52.59375 
L 48.78125 44.1875 
Q 44.96875 46.296875 41.140625 47.34375 
Q 37.3125 48.390625 33.40625 48.390625 
Q 24.65625 48.390625 19.8125 42.84375 
Q 14.984375 37.3125 14.984375 27.296875 
Q 14.984375 17.28125 19.8125 11.734375 
Q 24.65625 6.203125 33.40625 6.203125 
Q 37.3125 6.203125 41.140625 7.25 
Q 44.96875 8.296875 48.78125 10.40625 
L 48.78125 2.09375 
Q 45.015625 0.34375 40.984375 -0.53125 
Q 36.96875 -1.421875 32.421875 -1.421875 
Q 20.0625 -1.421875 12.78125 6.34375 
Q 5.515625 14.109375 5.515625 27.296875 
Q 5.515625 40.671875 12.859375 48.328125 
Q 20.21875 56 33.015625 56 
Q 37.15625 56 41.109375 55.140625 
Q 45.0625 54.296875 48.78125 52.59375 
z
" id="DejaVuSans-99"/>
       <path d="M 2.984375 54.6875 
L 12.5 54.6875 
L 29.59375 8.796875 
L 46.6875 54.6875 
L 56.203125 54.6875 
L 35.6875 0 
L 23.484375 0 
z
" id="DejaVuSans-118"/>
       <path d="M 9.421875 75.984375 
L 18.40625 75.984375 
L 18.40625 0 
L 9.421875 0 
z
" id="DejaVuSans-108"/>
       <path d="M 37.109375 75.984375 
L 37.109375 68.5 
L 28.515625 68.5 
Q 23.6875 68.5 21.796875 66.546875 
Q 19.921875 64.59375 19.921875 59.515625 
L 19.921875 54.6875 
L 34.71875 54.6875 
L 34.71875 47.703125 
L 19.921875 47.703125 
L 19.921875 0 
L 10.890625 0 
L 10.890625 47.703125 
L 2.296875 47.703125 
L 2.296875 54.6875 
L 10.890625 54.6875 
L 10.890625 58.5 
Q 10.890625 67.625 15.140625 71.796875 
Q 19.390625 75.984375 28.609375 75.984375 
z
" id="DejaVuSans-102"/>
       <path d="M 8.015625 75.875 
L 15.828125 75.875 
Q 23.140625 64.359375 26.78125 53.3125 
Q 30.421875 42.28125 30.421875 31.390625 
Q 30.421875 20.453125 26.78125 9.375 
Q 23.140625 -1.703125 15.828125 -13.1875 
L 8.015625 -13.1875 
Q 14.5 -2 17.703125 9.0625 
Q 20.90625 20.125 20.90625 31.390625 
Q 20.90625 42.671875 17.703125 53.65625 
Q 14.5 64.65625 8.015625 75.875 
z
" id="DejaVuSans-41"/>
      </defs>
      <use xlink:href="#DejaVuSans-70"/>
      <use x="52.019531" xlink:href="#DejaVuSans-117"/>
      <use x="115.398438" xlink:href="#DejaVuSans-122"/>
      <use x="167.888672" xlink:href="#DejaVuSans-122"/>
      <use x="220.378906" xlink:href="#DejaVuSans-101"/>
      <use x="281.902344" xlink:href="#DejaVuSans-114"/>
      <use x="323.015625" xlink:href="#DejaVuSans-32"/>
      <use x="354.802734" xlink:href="#DejaVuSans-40"/>
      <use x="393.816406" xlink:href="#DejaVuSans-104"/>
      <use x="457.195312" xlink:href="#DejaVuSans-105"/>
      <use x="484.978516" xlink:href="#DejaVuSans-103"/>
      <use x="548.455078" xlink:href="#DejaVuSans-104"/>
      <use x="611.833984" xlink:href="#DejaVuSans-101"/>
      <use x="673.357422" xlink:href="#DejaVuSans-115"/>
      <use x="725.457031" xlink:href="#DejaVuSans-116"/>
      <use x="764.666016" xlink:href="#DejaVuSans-32"/>
      <use x="796.453125" xlink:href="#DejaVuSans-109"/>
      <use x="893.865234" xlink:href="#DejaVuSans-101"/>
      <use x="955.388672" xlink:href="#DejaVuSans-100"/>
      <use x="1018.865234" xlink:href="#DejaVuSans-105"/>
      <use x="1046.648438" xlink:href="#DejaVuSans-97"/>
      <use x="1107.927734" xlink:href="#DejaVuSans-110"/>
      <use x="1171.306641" xlink:href="#DejaVuSans-32"/>
      <use x="1203.09375" xlink:href="#DejaVuSans-99"/>
      <use x="1258.074219" xlink:href="#DejaVuSans-111"/>
      <use x="1319.255859" xlink:href="#DejaVuSans-118"/>
      <use x="1378.435547" xlink:href="#DejaVuSans-101"/>
      <use x="1439.958984" xlink:href="#DejaVuSans-114"/>
      <use x="1481.072266" xlink:href="#DejaVuSans-97"/>
      <use x="1542.351562" xlink:href="#DejaVuSans-103"/>
      <use x="1605.828125" xlink:href="#DejaVuSans-101"/>
      <use x="1667.351562" xlink:href="#DejaVuSans-32"/>
      <use x="1699.138672" xlink:href="#DejaVuSans-111"/>
      <use x="1760.320312" xlink:href="#DejaVuSans-110"/>
      <use x="1823.699219" xlink:href="#DejaVuSans-32"/>
      <use x="1855.486328" xlink:href="#DejaVuSans-116"/>
      <use x="1894.695312" xlink:href="#DejaVuSans-104"/>
      <use x="1958.074219" xlink:href="#DejaVuSans-101"/>
      <use x="2019.597656" xlink:href="#DejaVuSans-32"/>
      <use x="2051.384766" xlink:href="#DejaVuSans-108"/>
      <use x="2079.167969" xlink:href="#DejaVuSans-101"/>
      <use x="2140.691406" xlink:href="#DejaVuSans-102"/>
      <use x="2174.146484" xlink:href="#DejaVuSans-116"/>
      <use x="2213.355469" xlink:href="#DejaVuSans-41"/>
     </g>
    </g>
   </g>
   <g id="matplotlib.axis_2">
    <g id="ytick_1">
     <g id="line2d_4">
      <defs>
       <path d="M 0 0 
L -3.5 0 
" id="mf643e157e7" style="stroke:#000000;stroke-width:0.8;"/>
      </defs>
      <g>
       <use style="stroke:#000000;stroke-width:0.8;" x="53.328125" xlink:href="#mf643e157e7" y="271.62888"/>
      </g>
     </g>
     <g id="text_5">
      <!-- 4800 -->
      <g transform="translate(20.878125 275.428099)scale(0.1 -0.1)">
       <defs>
        <path d="M 37.796875 64.3125 
L 12.890625 25.390625 
L 37.796875 25.390625 
z
M 35.203125 72.90625 
L 47.609375 72.90625 
L 47.609375 25.390625 
L 58.015625 25.390625 
L 58.015625 17.1875 
L 47.609375 17.1875 
L 47.609375 0 
L 37.796875 0 
L 37.796875 17.1875 
L 4.890625 17.1875 
L 4.890625 26.703125 
z
" id="DejaVuSans-52"/>
        <path d="M 31.78125 34.625 
Q 24.75 34.625 20.71875 30.859375 
Q 16.703125 27.09375 16.703125 20.515625 
Q 16.703125 13.921875 20.71875 10.15625 
Q 24.75 6.390625 31.78125 6.390625 
Q 38.8125 6.390625 42.859375 10.171875 
Q 46.921875 13.96875 46.921875 20.515625 
Q 46.921875 27.09375 42.890625 30.859375 
Q 38.875 34.625 31.78125 34.625 
z
M 21.921875 38.8125 
Q 15.578125 40.375 12.03125 44.71875 
Q 8.5 49.078125 8.5 55.328125 
Q 8.5 64.0625 14.71875 69.140625 
Q 20.953125 74.21875 31.78125 74.21875 
Q 42.671875 74.21875 48.875 69.140625 
Q 55.078125 64.0625 55.078125 55.328125 
Q 55.078125 49.078125 51.53125 44.71875 
Q 48 40.375 41.703125 38.8125 
Q 48.828125 37.15625 52.796875 32.3125 
Q 56.78125 27.484375 56.78125 20.515625 
Q 56.78125 9.90625 50.3125 4.234375 
Q 43.84375 -1.421875 31.78125 -1.421875 
Q 19.734375 -1.421875 13.25 4.234375 
Q 6.78125 9.90625 6.78125 20.515625 
Q 6.78125 27.484375 10.78125 32.3125 
Q 14.796875 37.15625 21.921875 38.8125 
z
M 18.3125 54.390625 
Q 18.3125 48.734375 21.84375 45.5625 
Q 25.390625 42.390625 31.78125 42.390625 
Q 38.140625 42.390625 41.71875 45.5625 
Q 45.3125 48.734375 45.3125 54.390625 
Q 45.3125 60.0625 41.71875 63.234375 
Q 38.140625 66.40625 31.78125 66.40625 
Q 25.390625 66.40625 21.84375 63.234375 
Q 18.3125 60.0625 18.3125 54.390625 
z
" id="DejaVuSans-56"/>
        <path d="M 31.78125 66.40625 
Q 24.171875 66.40625 20.328125 58.90625 
Q 16.5 51.421875 16.5 36.375 
Q 16.5 21.390625 20.328125 13.890625 
Q 24.171875 6.390625 31.78125 6.390625 
Q 39.453125 6.390625 43.28125 13.890625 
Q 47.125 21.390625 47.125 36.375 
Q 47.125 51.421875 43.28125 58.90625 
Q 39.453125 66.40625 31.78125 66.40625 
z
M 31.78125 74.21875 
Q 44.046875 74.21875 50.515625 64.515625 
Q 56.984375 54.828125 56.984375 36.375 
Q 56.984375 17.96875 50.515625 8.265625 
Q 44.046875 -1.421875 31.78125 -1.421875 
Q 19.53125 -1.421875 13.0625 8.265625 
Q 6.59375 17.96875 6.59375 36.375 
Q 6.59375 54.828125 13.0625 64.515625 
Q 19.53125 74.21875 31.78125 74.21875 
z
" id="DejaVuSans-48"/>
       </defs>
       <use xlink:href="#DejaVuSans-52"/>
       <use x="63.623047" xlink:href="#DejaVuSans-56"/>
       <use x="127.246094" xlink:href="#DejaVuSans-48"/>
       <use x="190.869141" xlink:href="#DejaVuSans-48"/>
      </g>
     </g>
    </g>
    <g id="ytick_2">
     <g id="line2d_5">
      <g>
       <use style="stroke:#000000;stroke-width:0.8;" x="53.328125" xlink:href="#mf643e157e7" y="237.054975"/>
      </g>
     </g>
     <g id="text_6">
      <!-- 5000 -->
      <g transform="translate(20.878125 240.854194)scale(0.1 -0.1)">
       <defs>
        <path d="M 10.796875 72.90625 
L 49.515625 72.90625 
L 49.515625 64.59375 
L 19.828125 64.59375 
L 19.828125 46.734375 
Q 21.96875 47.46875 24.109375 47.828125 
Q 26.265625 48.1875 28.421875 48.1875 
Q 40.625 48.1875 47.75 41.5 
Q 54.890625 34.8125 54.890625 23.390625 
Q 54.890625 11.625 47.5625 5.09375 
Q 40.234375 -1.421875 26.90625 -1.421875 
Q 22.3125 -1.421875 17.546875 -0.640625 
Q 12.796875 0.140625 7.71875 1.703125 
L 7.71875 11.625 
Q 12.109375 9.234375 16.796875 8.0625 
Q 21.484375 6.890625 26.703125 6.890625 
Q 35.15625 6.890625 40.078125 11.328125 
Q 45.015625 15.765625 45.015625 23.390625 
Q 45.015625 31 40.078125 35.4375 
Q 35.15625 39.890625 26.703125 39.890625 
Q 22.75 39.890625 18.8125 39.015625 
Q 14.890625 38.140625 10.796875 36.28125 
z
" id="DejaVuSans-53"/>
       </defs>
       <use xlink:href="#DejaVuSans-53"/>
       <use x="63.623047" xlink:href="#DejaVuSans-48"/>
       <use x="127.246094" xlink:href="#DejaVuSans-48"/>
       <use x="190.869141" xlink:href="#DejaVuSans-48"/>
      </g>
     </g>
    </g>
    <g id="ytick_3">
     <g id="line2d_6">
      <g>
       <use style="stroke:#000000;stroke-width:0.8;" x="53.328125" xlink:href="#mf643e157e7" y="202.48107"/>
      </g>
     </g>
     <g id="text_7">
      <!-- 5200 -->
      <g transform="translate(20.878125 206.280289)scale(0.1 -0.1)">
       <defs>
        <path d="M 19.1875 8.296875 
L 53.609375 8.296875 
L 53.609375 0 
L 7.328125 0 
L 7.328125 8.296875 
Q 12.9375 14.109375 22.625 23.890625 
Q 32.328125 33.6875 34.8125 36.53125 
Q 39.546875 41.84375 41.421875 45.53125 
Q 43.3125 49.21875 43.3125 52.78125 
Q 43.3125 58.59375 39.234375 62.25 
Q 35.15625 65.921875 28.609375 65.921875 
Q 23.96875 65.921875 18.8125 64.3125 
Q 13.671875 62.703125 7.8125 59.421875 
L 7.8125 69.390625 
Q 13.765625 71.78125 18.9375 73 
Q 24.125 74.21875 28.421875 74.21875 
Q 39.75 74.21875 46.484375 68.546875 
Q 53.21875 62.890625 53.21875 53.421875 
Q 53.21875 48.921875 51.53125 44.890625 
Q 49.859375 40.875 45.40625 35.40625 
Q 44.1875 33.984375 37.640625 27.21875 
Q 31.109375 20.453125 19.1875 8.296875 
z
" id="DejaVuSans-50"/>
       </defs>
       <use xlink:href="#DejaVuSans-53"/>
       <use x="63.623047" xlink:href="#DejaVuSans-50"/>
       <use x="127.246094" xlink:href="#DejaVuSans-48"/>
       <use x="190.869141" xlink:href="#DejaVuSans-48"/>
      </g>
     </g>
    </g>
    <g id="ytick_4">
     <g id="line2d_7">
      <g>
       <use style="stroke:#000000;stroke-width:0.8;" x="53.328125" xlink:href="#mf643e157e7" y="167.907166"/>
      </g>
     </g>
     <g id="text_8">
      <!-- 5400 -->
      <g transform="translate(20.878125 171.706384)scale(0.1 -0.1)">
       <use xlink:href="#DejaVuSans-53"/>
       <use x="63.623047" xlink:href="#DejaVuSans-52"/>
       <use x="127.246094" xlink:href="#DejaVuSans-48"/>
       <use x="190.869141" xlink:href="#DejaVuSans-48"/>
      </g>
     </g>
    </g>
    <g id="ytick_5">
     <g id="line2d_8">
      <g>
       <use style="stroke:#000000;stroke-width:0.8;" x="53.328125" xlink:href="#mf643e157e7" y="133.333261"/>
      </g>
     </g>
     <g id="text_9">
      <!-- 5600 -->
      <g transform="translate(20.878125 137.132479)scale(0.1 -0.1)">
       <defs>
        <path d="M 33.015625 40.375 
Q 26.375 40.375 22.484375 35.828125 
Q 18.609375 31.296875 18.609375 23.390625 
Q 18.609375 15.53125 22.484375 10.953125 
Q 26.375 6.390625 33.015625 6.390625 
Q 39.65625 6.390625 43.53125 10.953125 
Q 47.40625 15.53125 47.40625 23.390625 
Q 47.40625 31.296875 43.53125 35.828125 
Q 39.65625 40.375 33.015625 40.375 
z
M 52.59375 71.296875 
L 52.59375 62.3125 
Q 48.875 64.0625 45.09375 64.984375 
Q 41.3125 65.921875 37.59375 65.921875 
Q 27.828125 65.921875 22.671875 59.328125 
Q 17.53125 52.734375 16.796875 39.40625 
Q 19.671875 43.65625 24.015625 45.921875 
Q 28.375 48.1875 33.59375 48.1875 
Q 44.578125 48.1875 50.953125 41.515625 
Q 57.328125 34.859375 57.328125 23.390625 
Q 57.328125 12.15625 50.6875 5.359375 
Q 44.046875 -1.421875 33.015625 -1.421875 
Q 20.359375 -1.421875 13.671875 8.265625 
Q 6.984375 17.96875 6.984375 36.375 
Q 6.984375 53.65625 15.1875 63.9375 
Q 23.390625 74.21875 37.203125 74.21875 
Q 40.921875 74.21875 44.703125 73.484375 
Q 48.484375 72.75 52.59375 71.296875 
z
" id="DejaVuSans-54"/>
       </defs>
       <use xlink:href="#DejaVuSans-53"/>
       <use x="63.623047" xlink:href="#DejaVuSans-54"/>
       <use x="127.246094" xlink:href="#DejaVuSans-48"/>
       <use x="190.869141" xlink:href="#DejaVuSans-48"/>
      </g>
     </g>
    </g>
    <g id="ytick_6">
     <g id="line2d_9">
      <g>
       <use style="stroke:#000000;stroke-width:0.8;" x="53.328125" xlink:href="#mf643e157e7" y="98.759356"/>
      </g>
     </g>
     <g id="text_10">
      <!-- 5800 -->
      <g transform="translate(20.878125 102.558574)scale(0.1 -0.1)">
       <use xlink:href="#DejaVuSans-53"/>
       <use x="63.623047" xlink:href="#DejaVuSans-56"/>
       <use x="127.246094" xlink:href="#DejaVuSans-48"/>
       <use x="190.869141" xlink:href="#DejaVuSans-48"/>
      </g>
     </g>
    </g>
    <g id="ytick_7">
     <g id="line2d_10">
      <g>
       <use style="stroke:#000000;stroke-width:0.8;" x="53.328125" xlink:href="#mf643e157e7" y="64.185451"/>
      </g>
     </g>
     <g id="text_11">
      <!-- 6000 -->
      <g transform="translate(20.878125 67.984669)scale(0.1 -0.1)">
       <use xlink:href="#DejaVuSans-54"/>
       <use x="63.623047" xlink:href="#DejaVuSans-48"/>
       <use x="127.246094" xlink:href="#DejaVuSans-48"/>
       <use x="190.869141" xlink:href="#DejaVuSans-48"/>
      </g>
     </g>
    </g>
    <g id="ytick_8">
     <g id="line2d_11">
      <g>
       <use style="stroke:#000000;stroke-width:0.8;" x="53.328125" xlink:href="#mf643e157e7" y="29.611546"/>
      </g>
     </g>
     <g id="text_12">
      <!-- 6200 -->
      <g transform="translate(20.878125 33.410765)scale(0.1 -0.1)">
       <use xlink:href="#DejaVuSans-54"/>
       <use x="63.623047" xlink:href="#DejaVuSans-50"/>
       <use x="127.246094" xlink:href="#DejaVuSans-48"/>
       <use x="190.869141" xlink:href="#DejaVuSans-48"/>
      </g>
     </g>
    </g>
    <g id="text_13">
     <!-- Reached edge coverage -->
     <g transform="translate(14.798438 215.82725)rotate(-90)scale(0.1 -0.1)">
      <defs>
       <path d="M 44.390625 34.1875 
Q 47.5625 33.109375 50.5625 29.59375 
Q 53.5625 26.078125 56.59375 19.921875 
L 66.609375 0 
L 56 0 
L 46.6875 18.703125 
Q 43.0625 26.03125 39.671875 28.421875 
Q 36.28125 30.8125 30.421875 30.8125 
L 19.671875 30.8125 
L 19.671875 0 
L 9.8125 0 
L 9.8125 72.90625 
L 32.078125 72.90625 
Q 44.578125 72.90625 50.734375 67.671875 
Q 56.890625 62.453125 56.890625 51.90625 
Q 56.890625 45.015625 53.6875 40.46875 
Q 50.484375 35.9375 44.390625 34.1875 
z
M 19.671875 64.796875 
L 19.671875 38.921875 
L 32.078125 38.921875 
Q 39.203125 38.921875 42.84375 42.21875 
Q 46.484375 45.515625 46.484375 51.90625 
Q 46.484375 58.296875 42.84375 61.546875 
Q 39.203125 64.796875 32.078125 64.796875 
z
" id="DejaVuSans-82"/>
      </defs>
      <use xlink:href="#DejaVuSans-82"/>
      <use x="64.982422" xlink:href="#DejaVuSans-101"/>
      <use x="126.505859" xlink:href="#DejaVuSans-97"/>
      <use x="187.785156" xlink:href="#DejaVuSans-99"/>
      <use x="242.765625" xlink:href="#DejaVuSans-104"/>
      <use x="306.144531" xlink:href="#DejaVuSans-101"/>
      <use x="367.667969" xlink:href="#DejaVuSans-100"/>
      <use x="431.144531" xlink:href="#DejaVuSans-32"/>
      <use x="462.931641" xlink:href="#DejaVuSans-101"/>
      <use x="524.455078" xlink:href="#DejaVuSans-100"/>
      <use x="587.931641" xlink:href="#DejaVuSans-103"/>
      <use x="651.408203" xlink:href="#DejaVuSans-101"/>
      <use x="712.931641" xlink:href="#DejaVuSans-32"/>
      <use x="744.71875" xlink:href="#DejaVuSans-99"/>
      <use x="799.699219" xlink:href="#DejaVuSans-111"/>
      <use x="860.880859" xlink:href="#DejaVuSans-118"/>
      <use x="920.060547" xlink:href="#DejaVuSans-101"/>
      <use x="981.583984" xlink:href="#DejaVuSans-114"/>
      <use x="1022.697266" xlink:href="#DejaVuSans-97"/>
      <use x="1083.976562" xlink:href="#DejaVuSans-103"/>
      <use x="1147.453125" xlink:href="#DejaVuSans-101"/>
     </g>
    </g>
   </g>
   <g id="line2d_12">
    <path clip-path="url(#pc7c8f58cb1)" d="M 112.848125 157.362125 
L 112.848125 92.017444 
" style="fill:none;stroke:#3f3f3f;stroke-linecap:square;stroke-width:1.5;"/>
   </g>
   <g id="line2d_13">
    <path clip-path="url(#pc7c8f58cb1)" d="M 112.848125 132.468913 
L 112.848125 99.796573 
" style="fill:none;stroke:#3f3f3f;stroke-linecap:square;stroke-width:4.5;"/>
   </g>
   <g id="line2d_14">
    <path clip-path="url(#pc7c8f58cb1)" d="M 231.888125 139.556563 
L 231.888125 103.253963 
" style="fill:none;stroke:#3f3f3f;stroke-linecap:square;stroke-width:1.5;"/>
   </g>
   <g id="line2d_15">
    <path clip-path="url(#pc7c8f58cb1)" d="M 231.888125 129.87587 
L 231.888125 111.72457 
" style="fill:none;stroke:#3f3f3f;stroke-linecap:square;stroke-width:4.5;"/>
   </g>
   <g id="line2d_16">
    <path clip-path="url(#pc7c8f58cb1)" d="M 350.928125 200.579506 
L 350.928125 110.168744 
" style="fill:none;stroke:#3f3f3f;stroke-linecap:square;stroke-width:1.5;"/>
   </g>
   <g id="line2d_17">
    <path clip-path="url(#pc7c8f58cb1)" d="M 350.928125 166.264905 
L 350.928125 121.059524 
" style="fill:none;stroke:#3f3f3f;stroke-linecap:square;stroke-width:4.5;"/>
   </g>
   <g id="patch_3">
    <path d="M 53.328125 271.62888 
L 53.328125 29.611546 
" style="fill:none;stroke:#000000;stroke-linecap:square;stroke-linejoin:miter;stroke-width:0.8;"/>
   </g>
   <g id="patch_4">
    <path d="M 112.848125 288.430125 
L 350.928125 288.430125 
" style="fill:none;stroke:#000000;stroke-linecap:square;stroke-linejoin:miter;stroke-width:0.8;"/>
   </g>
   <g id="PathCollection_1">
    <defs>
     <path d="M 0 1.5 
C 0.397805 1.5 0.77937 1.341951 1.06066 1.06066 
C 1.341951 0.77937 1.5 0.397805 1.5 0 
C 1.5 -0.397805 1.341951 -0.77937 1.06066 -1.06066 
C 0.77937 -1.341951 0.397805 -1.5 0 -1.5 
C -0.397805 -1.5 -0.77937 -1.341951 -1.06066 -1.06066 
C -1.341951 -0.77937 -1.5 -0.397805 -1.5 0 
C -1.5 0.397805 -1.341951 0.77937 -1.06066 1.06066 
C -0.77937 1.341951 -0.397805 1.5 0 1.5 
z
" id="m2bb5ba2296" style="stroke:#3f3f3f;"/>
    </defs>
    <g clip-path="url(#pc7c8f58cb1)">
     <use style="fill:#ffffff;stroke:#3f3f3f;" x="112.848125" xlink:href="#m2bb5ba2296" y="107.575701"/>
    </g>
   </g>
   <g id="PathCollection_2">
    <g clip-path="url(#pc7c8f58cb1)">
     <use style="fill:#ffffff;stroke:#3f3f3f;" x="231.888125" xlink:href="#m2bb5ba2296" y="120.195177"/>
    </g>
   </g>
   <g id="PathCollection_3">
    <g clip-path="url(#pc7c8f58cb1)">
     <use style="fill:#ffffff;stroke:#3f3f3f;" x="350.928125" xlink:href="#m2bb5ba2296" y="131.950304"/>
    </g>
   </g>
   <g id="text_14">
    <!-- libxml2-v2.9.2 (24h, 3 trials/fuzzer) -->
    <g transform="translate(126.12875 16.318125)scale(0.12 -0.12)">
     <defs>
      <path d="M 54.890625 54.6875 
L 35.109375 28.078125 
L 55.90625 0 
L 45.3125 0 
L 29.390625 21.484375 
L 13.484375 0 
L 2.875 0 
L 24.125 28.609375 
L 4.6875 54.6875 
L 15.28125 54.6875 
L 29.78125 35.203125 
L 44.28125 54.6875 
z
" id="DejaVuSans-120"/>
      <path d="M 4.890625 31.390625 
L 31.203125 31.390625 
L 31.203125 23.390625 
L 4.890625 23.390625 
z
" id="DejaVuSans-45"/>
      <path d="M 10.6875 12.40625 
L 21 12.40625 
L 21 0 
L 10.6875 0 
z
" id="DejaVuSans-46"/>
      <path d="M 10.984375 1.515625 
L 10.984375 10.5 
Q 14.703125 8.734375 18.5 7.8125 
Q 22.3125 6.890625 25.984375 6.890625 
Q 35.75 6.890625 40.890625 13.453125 
Q 46.046875 20.015625 46.78125 33.40625 
Q 43.953125 29.203125 39.59375 26.953125 
Q 35.25 24.703125 29.984375 24.703125 
Q 19.046875 24.703125 12.671875 31.3125 
Q 6.296875 37.9375 6.296875 49.421875 
Q 6.296875 60.640625 12.9375 67.421875 
Q 19.578125 74.21875 30.609375 74.21875 
Q 43.265625 74.21875 49.921875 64.515625 
Q 56.59375 54.828125 56.59375 36.375 
Q 56.59375 19.140625 48.40625 8.859375 
Q 40.234375 -1.421875 26.421875 -1.421875 
Q 22.703125 -1.421875 18.890625 -0.6875 
Q 15.09375 0.046875 10.984375 1.515625 
z
M 30.609375 32.421875 
Q 37.25 32.421875 41.125 36.953125 
Q 45.015625 41.5 45.015625 49.421875 
Q 45.015625 57.28125 41.125 61.84375 
Q 37.25 66.40625 30.609375 66.40625 
Q 23.96875 66.40625 20.09375 61.84375 
Q 16.21875 57.28125 16.21875 49.421875 
Q 16.21875 41.5 20.09375 36.953125 
Q 23.96875 32.421875 30.609375 32.421875 
z
" id="DejaVuSans-57"/>
      <path d="M 11.71875 12.40625 
L 22.015625 12.40625 
L 22.015625 4 
L 14.015625 -11.625 
L 7.71875 -11.625 
L 11.71875 4 
z
" id="DejaVuSans-44"/>
      <path d="M 40.578125 39.3125 
Q 47.65625 37.796875 51.625 33 
Q 55.609375 28.21875 55.609375 21.1875 
Q 55.609375 10.40625 48.1875 4.484375 
Q 40.765625 -1.421875 27.09375 -1.421875 
Q 22.515625 -1.421875 17.65625 -0.515625 
Q 12.796875 0.390625 7.625 2.203125 
L 7.625 11.71875 
Q 11.71875 9.328125 16.59375 8.109375 
Q 21.484375 6.890625 26.8125 6.890625 
Q 36.078125 6.890625 40.9375 10.546875 
Q 45.796875 14.203125 45.796875 21.1875 
Q 45.796875 27.640625 41.28125 31.265625 
Q 36.765625 34.90625 28.71875 34.90625 
L 20.21875 34.90625 
L 20.21875 43.015625 
L 29.109375 43.015625 
Q 36.375 43.015625 40.234375 45.921875 
Q 44.09375 48.828125 44.09375 54.296875 
Q 44.09375 59.90625 40.109375 62.90625 
Q 36.140625 65.921875 28.71875 65.921875 
Q 24.65625 65.921875 20.015625 65.03125 
Q 15.375 64.15625 9.8125 62.3125 
L 9.8125 71.09375 
Q 15.4375 72.65625 20.34375 73.4375 
Q 25.25 74.21875 29.59375 74.21875 
Q 40.828125 74.21875 47.359375 69.109375 
Q 53.90625 64.015625 53.90625 55.328125 
Q 53.90625 49.265625 50.4375 45.09375 
Q 46.96875 40.921875 40.578125 39.3125 
z
" id="DejaVuSans-51"/>
      <path d="M 25.390625 72.90625 
L 33.6875 72.90625 
L 8.296875 -9.28125 
L 0 -9.28125 
z
" id="DejaVuSans-47"/>
     </defs>
     <use xlink:href="#DejaVuSans-108"/>
     <use x="27.783203" xlink:href="#DejaVuSans-105"/>
     <use x="55.566406" xlink:href="#DejaVuSans-98"/>
     <use x="119.042969" xlink:href="#DejaVuSans-120"/>
     <use x="178.222656" xlink:href="#DejaVuSans-109"/>
     <use x="275.634766" xlink:href="#DejaVuSans-108"/>
     <use x="303.417969" xlink:href="#DejaVuSans-50"/>
     <use x="367.041016" xlink:href="#DejaVuSans-45"/>
     <use x="400.5" xlink:href="#DejaVuSans-118"/>
     <use x="459.679688" xlink:href="#DejaVuSans-50"/>
     <use x="523.302734" xlink:href="#DejaVuSans-46"/>
     <use x="555.089844" xlink:href="#DejaVuSans-57"/>
     <use x="618.712891" xlink:href="#DejaVuSans-46"/>
     <use x="650.5" xlink:href="#DejaVuSans-50"/>
     <use x="714.123047" xlink:href="#DejaVuSans-32"/>
     <use x="745.910156" xlink:href="#DejaVuSans-40"/>
     <use x="784.923828" xlink:href="#DejaVuSans-50"/>
     <use x="848.546875" xlink:href="#DejaVuSans-52"/>
     <use x="912.169922" xlink:href="#DejaVuSans-104"/>
     <use x="975.548828" xlink:href="#DejaVuSans-44"/>
     <use x="1007.335938" xlink:href="#DejaVuSans-32"/>
     <use x="1039.123047" xlink:href="#DejaVuSans-51"/>
     <use x="1102.746094" xlink:href="#DejaVuSans-32"/>
     <use x="1134.533203" xlink:href="#DejaVuSans-116"/>
     <use x="1173.742188" xlink:href="#DejaVuSans-114"/>
     <use x="1214.855469" xlink:href="#DejaVuSans-105"/>
     <use x="1242.638672" xlink:href="#DejaVuSans-97"/>
     <use x="1303.917969" xlink:href="#DejaVuSans-108"/>
     <use x="1331.701172" xlink:href="#DejaVuSans-115"/>
     <use x="1383.800781" xlink:href="#DejaVuSans-47"/>
     <use x="1417.492188" xlink:href="#DejaVuSans-102"/>
     <use x="1452.697266" xlink:href="#DejaVuSans-117"/>
     <use x="1516.076172" xlink:href="#DejaVuSans-122"/>
     <use x="1568.566406" xlink:href="#DejaVuSans-122"/>
     <use x="1621.056641" xlink:href="#DejaVuSans-101"/>
     <use x="1682.580078" xlink:href="#DejaVuSans-114"/>
     <use x="1723.693359" xlink:href="#DejaVuSans-41"/>
    </g>
   </g>
  </g>
 </g>
 <defs>
  <clipPath id="pc7c8f58cb1">
   <rect height="266.112" width="357.12" x="53.328125" y="22.318125"/>
  </clipPath>
 </defs>
</svg>
