<?xml version="1.0" encoding="utf-8" standalone="no"?>
<!DOCTYPE svg PUBLIC "-//W3C//DTD SVG 1.1//EN"
  "http://www.w3.org/Graphics/SVG/1.1/DTD/svg11.dtd">
<!-- Created with matplotlib (https://matplotlib.org/) -->
<svg height="325.986375pt" version="1.1" viewBox="0 0 920.235312 325.986375" width="920.235312pt" xmlns="http://www.w3.org/2000/svg" xmlns:xlink="http://www.w3.org/1999/xlink">
 <metadata>
  <rdf:RDF xmlns:cc="http://creativecommons.org/ns#" xmlns:dc="http://purl.org/dc/elements/1.1/" xmlns:rdf="http://www.w3.org/1999/02/22-rdf-syntax-ns#">
   <cc:Work>
    <dc:type rdf:resource="http://purl.org/dc/dcmitype/StillImage"/>
    <dc:date>2020-08-11T16:36:08.134814</dc:date>
    <dc:format>image/svg+xml</dc:format>
    <dc:creator>
     <cc:Agent>
      <dc:title>Matplotlib v3.3.0, https://matplotlib.org/</dc:title>
     </cc:Agent>
    </dc:creator>
   </cc:Work>
  </rdf:RDF>
 </metadata>
 <defs>
  <style type="text/css">*{stroke-linecap:butt;stroke-linejoin:round;}</style>
 </defs>
 <g id="figure_1">
  <g id="patch_1">
   <path d="M 0 325.986375 
L 920.235312 325.986375 
L 920.235312 0 
L 0 0 
z
" style="fill:#ffffff;"/>
  </g>
  <g id="axes_1">
   <g id="patch_2">
    <path d="M 59.690625 288.430125 
L 773.930625 288.430125 
L 773.930625 22.318125 
L 59.690625 22.318125 
z
" style="fill:#ffffff;"/>
   </g>
   <g id="PolyCollection_1">
    <defs>
     <path d="M 92.15608 -49.65225 
L 92.15608 -49.65225 
L 98.990912 -49.65225 
L 105.825745 -49.954623 
L 112.660577 -50.458579 
L 119.49541 -50.96784 
L 126.330242 -51.774169 
L 133.165075 -52.856348 
L 139.999907 -55.636062 
L 146.83474 -61.259148 
L 153.669572 -65.439328 
L 160.504405 -75.857951 
L 167.339237 -78.107186 
L 174.17407 -79.507652 
L 181.008903 -84.579039 
L 187.843735 -86.276574 
L 194.678568 -90.477974 
L 201.5134 -96.228375 
L 208.348233 -96.949827 
L 215.183065 -98.053225 
L 222.017898 -98.901993 
L 228.85273 -100.047829 
L 235.687563 -103.591434 
L 242.522395 -105.713353 
L 249.357228 -106.456025 
L 256.19206 -109.044766 
L 263.026893 -114.901263 
L 269.861725 -116.513922 
L 276.696558 -121.03361 
L 283.531391 -124.322584 
L 290.366223 -125.510859 
L 297.201056 -135.101933 
L 304.035888 -136.056797 
L 310.870721 -137.775551 
L 317.705553 -138.624319 
L 324.540386 -138.963826 
L 331.375218 -145.711529 
L 338.210051 -146.496639 
L 345.044883 -148.448805 
L 351.879716 -150.252436 
L 358.714548 -151.419491 
L 365.549381 -152.50167 
L 372.384214 -152.947273 
L 379.219046 -154.857 
L 386.053879 -154.920658 
L 392.888711 -154.963096 
L 399.723544 -155.069192 
L 406.558376 -167.524858 
L 413.393209 -171.40797 
L 420.228041 -173.23282 
L 427.062874 -173.848177 
L 433.897706 -175.842781 
L 440.732539 -176.500576 
L 447.567371 -176.64911 
L 454.402204 -178.516399 
L 461.237036 -178.940783 
L 468.071869 -185.285321 
L 474.906702 -185.348978 
L 481.741534 -185.794581 
L 488.576367 -186.473595 
L 495.411199 -188.022596 
L 502.246032 -188.19235 
L 509.080864 -188.680391 
L 515.915697 -189.316967 
L 522.750529 -190.802311 
L 529.585362 -191.523763 
L 536.420194 -193.412271 
L 543.255027 -193.942751 
L 550.089859 -195.321998 
L 556.924692 -195.470533 
L 563.759525 -195.53419 
L 570.594357 -195.576629 
L 577.42919 -196.128328 
L 584.264022 -197.168068 
L 591.098855 -197.168068 
L 597.933687 -200.287289 
L 604.76852 -201.008742 
L 611.603352 -201.242153 
L 618.438185 -202.642619 
L 625.273017 -202.89725 
L 632.10785 -202.960907 
L 638.942682 -203.491387 
L 645.777515 -203.703579 
L 652.612347 -205.846717 
L 659.44718 -213.676599 
L 666.282013 -214.737558 
L 673.116845 -227.551828 
L 679.951678 -214.779997 
L 686.78651 -215.119504 
L 693.621343 -215.246819 
L 700.456175 -216.116806 
L 707.291008 -217.177765 
L 714.12584 -217.241423 
L 720.960673 -217.623368 
L 727.795505 -219.93626 
L 734.630338 -220.594055 
L 741.46517 -222.164275 
L 741.46517 -272.177909 
L 741.46517 -272.177909 
L 734.630338 -271.753525 
L 727.795505 -267.530906 
L 720.960673 -267.509687 
L 714.12584 -267.509687 
L 707.291008 -267.509687 
L 700.456175 -267.509687 
L 693.621343 -267.509687 
L 686.78651 -267.403591 
L 679.951678 -267.233838 
L 673.116845 -263.414383 
L 666.282013 -260.104189 
L 659.44718 -258.618846 
L 652.612347 -258.406654 
L 645.777515 -258.003489 
L 638.942682 -256.369612 
L 632.10785 -255.584502 
L 625.273017 -255.414748 
L 618.438185 -255.138899 
L 611.603352 -241.311059 
L 604.76852 -253.865747 
L 597.933687 -252.974541 
L 591.098855 -251.383102 
L 584.264022 -251.043595 
L 577.42919 -250.746526 
L 570.594357 -249.982635 
L 563.759525 -249.388498 
L 556.924692 -249.197525 
L 550.089859 -248.879237 
L 543.255027 -246.1844 
L 536.420194 -246.141961 
L 529.585362 -236.954052 
L 522.750529 -236.74186 
L 515.915697 -235.723339 
L 509.080864 -219.575534 
L 502.246032 -217.538492 
L 495.411199 -210.048117 
L 488.576367 -207.289622 
L 481.741534 -206.886458 
L 474.906702 -206.122567 
L 468.071869 -206.080128 
L 461.237036 -204.170401 
L 454.402204 -202.642619 
L 447.567371 -196.191985 
L 440.732539 -193.815436 
L 433.897706 -193.815436 
L 427.062874 -193.603244 
L 420.228041 -189.911104 
L 413.393209 -189.465501 
L 406.558376 -189.295748 
L 399.723544 -188.149912 
L 392.888711 -185.921897 
L 386.053879 -182.484388 
L 379.219046 -167.489492 
L 372.384214 -170.983586 
L 365.549381 -168.458502 
L 358.714548 -167.270227 
L 351.879716 -160.02741 
L 345.044883 -156.575755 
L 338.210051 -150.634381 
L 331.375218 -150.549505 
L 324.540386 -149.064161 
L 317.705553 -146.560297 
L 310.870721 -144.544473 
L 304.035888 -143.58961 
L 297.201056 -142.52865 
L 290.366223 -138.390908 
L 283.531391 -137.223852 
L 276.696558 -135.696071 
L 269.861725 -134.104631 
L 263.026893 -133.680248 
L 256.19206 -130.964191 
L 249.357228 -113.543235 
L 242.522395 -111.930576 
L 235.687563 -108.577944 
L 228.85273 -107.920149 
L 222.017898 -106.265052 
L 215.183065 -105.5436 
L 208.348233 -103.97338 
L 201.5134 -100.429775 
L 194.678568 -99.687103 
L 187.843735 -89.735302 
L 181.008903 -89.480672 
L 174.17407 -85.830971 
L 167.339237 -85.682437 
L 160.504405 -78.383035 
L 153.669572 -68.898057 
L 146.83474 -63.82667 
L 139.999907 -61.789627 
L 133.165075 -54.278034 
L 126.330242 -53.450485 
L 119.49541 -51.561977 
L 112.660577 -50.861744 
L 105.825745 -50.203949 
L 98.990912 -49.65225 
L 92.15608 -49.65225 
z
" id="ma8bd4123ad" style="stroke:#ff7f0e;stroke-opacity:0.2;"/>
    </defs>
    <g clip-path="url(#p6efdac7317)">
     <use style="fill:#ff7f0e;fill-opacity:0.2;stroke:#ff7f0e;stroke-opacity:0.2;" x="0" xlink:href="#ma8bd4123ad" y="325.986375"/>
    </g>
   </g>
   <g id="PolyCollection_2">
    <defs>
     <path d="M 92.15608 -49.65225 
L 92.15608 -49.65225 
L 98.990912 -49.65225 
L 105.825745 -53.59902 
L 112.660577 -65.205917 
L 119.49541 -83.348326 
L 126.330242 -85.024642 
L 133.165075 -86.65852 
L 139.999907 -98.244198 
L 146.83474 -99.538569 
L 153.669572 -102.954859 
L 160.504405 -105.140435 
L 167.339237 -115.346866 
L 174.17407 -117.765854 
L 181.008903 -121.118486 
L 187.843735 -122.922118 
L 194.678568 -128.785687 
L 201.5134 -125.447201 
L 208.348233 -127.208394 
L 215.183065 -134.974618 
L 222.017898 -137.733113 
L 228.85273 -138.369689 
L 235.687563 -138.518223 
L 242.522395 -139.91869 
L 249.357228 -141.955732 
L 256.19206 -142.210362 
L 263.026893 -143.377418 
L 269.861725 -144.990077 
L 276.696558 -145.541775 
L 283.531391 -147.706133 
L 290.366223 -149.806833 
L 297.201056 -149.934148 
L 304.035888 -149.955367 
L 310.870721 -150.655601 
L 317.705553 -150.973888 
L 324.540386 -158.089391 
L 331.375218 -151.652903 
L 338.210051 -153.859698 
L 345.044883 -154.411397 
L 351.879716 -154.432617 
L 358.714548 -154.559932 
L 365.549381 -157.891345 
L 372.384214 -158.824989 
L 379.219046 -159.84351 
L 386.053879 -159.84351 
L 392.888711 -159.84351 
L 399.723544 -160.140579 
L 406.558376 -160.37399 
L 413.393209 -163.684184 
L 420.228041 -164.681486 
L 427.062874 -165.424158 
L 433.897706 -167.333885 
L 440.732539 -176.662372 
L 447.567371 -167.821926 
L 454.402204 -167.928022 
L 461.237036 -168.437283 
L 468.071869 -168.479721 
L 474.906702 -170.60164 
L 481.741534 -172.235518 
L 488.576367 -180.150276 
L 495.411199 -180.192715 
L 502.246032 -180.235153 
L 509.080864 -180.977825 
L 515.915697 -182.823895 
L 522.750529 -183.120963 
L 529.585362 -183.418032 
L 536.420194 -183.46047 
L 543.255027 -183.502909 
L 550.089859 -184.288019 
L 556.924692 -184.457772 
L 563.759525 -195.152245 
L 570.594357 -185.455074 
L 577.42919 -185.455074 
L 584.264022 -185.476294 
L 591.098855 -186.006773 
L 597.933687 -186.070431 
L 604.76852 -186.409938 
L 611.603352 -187.046514 
L 618.438185 -187.15261 
L 625.273017 -187.216267 
L 632.10785 -188.065035 
L 638.942682 -188.680391 
L 645.777515 -188.701611 
L 652.612347 -188.892583 
L 659.44718 -188.913802 
L 666.282013 -189.592817 
L 673.116845 -189.889885 
L 679.951678 -190.484023 
L 686.78651 -190.484023 
L 693.621343 -190.611338 
L 700.456175 -190.738653 
L 707.291008 -190.738653 
L 714.12584 -191.056941 
L 720.960673 -191.33279 
L 727.795505 -191.33279 
L 734.630338 -191.544982 
L 741.46517 -193.645682 
L 741.46517 -291.57225 
L 741.46517 -291.57225 
L 734.630338 -291.487373 
L 727.795505 -282.320683 
L 720.960673 -282.172148 
L 714.12584 -277.737337 
L 707.291008 -277.610022 
L 700.456175 -276.591501 
L 693.621343 -276.527843 
L 686.78651 -275.679076 
L 679.951678 -275.530541 
L 673.116845 -275.254692 
L 666.282013 -275.212254 
L 659.44718 -274.957623 
L 652.612347 -274.405924 
L 645.777515 -274.405924 
L 638.942682 -274.087636 
L 632.10785 -273.366184 
L 625.273017 -268.973811 
L 618.438185 -268.464551 
L 611.603352 -268.400893 
L 604.76852 -265.642398 
L 597.933687 -265.472645 
L 591.098855 -265.06948 
L 584.264022 -265.06948 
L 577.42919 -264.602658 
L 570.594357 -256.539365 
L 563.759525 -256.433269 
L 556.924692 -255.223775 
L 550.089859 -255.054022 
L 543.255027 -254.523542 
L 536.420194 -254.247693 
L 529.585362 -253.632336 
L 522.750529 -252.104554 
L 515.915697 -249.048991 
L 509.080864 -244.571741 
L 502.246032 -241.325205 
L 495.411199 -241.134232 
L 488.576367 -241.113013 
L 481.741534 -239.839862 
L 474.906702 -239.648889 
L 468.071869 -231.097555 
L 461.237036 -229.527335 
L 454.402204 -228.657348 
L 447.567371 -226.577867 
L 440.732539 -226.068606 
L 433.897706 -225.835195 
L 427.062874 -221.400384 
L 420.228041 -220.933562 
L 413.393209 -206.355978 
L 406.558376 -206.080128 
L 399.723544 -205.889156 
L 392.888711 -205.019169 
L 386.053879 -203.958209 
L 379.219046 -201.942386 
L 372.384214 -201.687756 
L 365.549381 -193.277883 
L 358.714548 -200.457043 
L 351.879716 -199.565837 
L 345.044883 -193.730559 
L 338.210051 -184.394115 
L 331.375218 -183.502909 
L 324.540386 -183.290717 
L 317.705553 -182.845114 
L 310.870721 -178.516399 
L 304.035888 -177.243247 
L 297.201056 -176.840083 
L 290.366223 -172.638683 
L 283.531391 -169.922626 
L 276.696558 -169.519462 
L 269.861725 -167.524858 
L 263.026893 -162.941512 
L 256.19206 -156.618193 
L 249.357228 -155.875522 
L 242.522395 -154.220425 
L 235.687563 -153.03215 
L 228.85273 -152.395574 
L 222.017898 -148.279051 
L 215.183065 -147.812229 
L 208.348233 -138.942607 
L 201.5134 -137.881647 
L 194.678568 -137.03288 
L 187.843735 -133.913659 
L 181.008903 -131.79174 
L 174.17407 -128.523984 
L 167.339237 -128.078381 
L 160.504405 -124.513557 
L 153.669572 -122.688706 
L 146.83474 -119.611924 
L 139.999907 -110.211822 
L 133.165075 -107.877711 
L 126.330242 -96.35569 
L 119.49541 -95.337169 
L 112.660577 -90.85992 
L 105.825745 -65.502986 
L 98.990912 -50.458579 
L 92.15608 -49.65225 
z
" id="m07cfceec2d" style="stroke:#aec7e8;stroke-opacity:0.2;"/>
    </defs>
    <g clip-path="url(#p6efdac7317)">
     <use style="fill:#aec7e8;fill-opacity:0.2;stroke:#aec7e8;stroke-opacity:0.2;" x="0" xlink:href="#m07cfceec2d" y="325.986375"/>
    </g>
   </g>
   <g id="PolyCollection_3">
    <defs>
     <path d="M 92.15608 -49.65225 
L 92.15608 -49.65225 
L 98.990912 -49.673469 
L 105.825745 -53.365608 
L 112.660577 -62.829368 
L 119.49541 -79.443995 
L 126.330242 -79.889598 
L 133.165075 -82.223709 
L 139.999907 -86.255355 
L 146.83474 -88.928973 
L 153.669572 -93.72451 
L 160.504405 -96.334471 
L 167.339237 -96.949827 
L 174.17407 -99.114185 
L 181.008903 -100.005391 
L 187.843735 -101.809022 
L 194.678568 -102.636571 
L 201.5134 -103.761188 
L 208.348233 -121.606528 
L 215.183065 -121.606528 
L 222.017898 -121.606528 
L 228.85273 -130.306396 
L 235.687563 -131.303698 
L 242.522395 -133.850001 
L 249.357228 -134.168289 
L 256.19206 -134.719988 
L 263.026893 -134.741207 
L 269.861725 -135.101933 
L 276.696558 -135.653632 
L 283.531391 -136.290208 
L 290.366223 -136.332646 
L 297.201056 -136.332646 
L 304.035888 -136.353866 
L 310.870721 -136.459962 
L 317.705553 -136.5024 
L 324.540386 -136.5024 
L 331.375218 -136.863126 
L 338.210051 -137.520921 
L 345.044883 -138.115059 
L 351.879716 -139.048703 
L 358.714548 -142.655965 
L 365.549381 -143.186445 
L 372.384214 -143.525952 
L 379.219046 -143.58961 
L 386.053879 -143.58961 
L 392.888711 -143.58961 
L 399.723544 -144.183747 
L 406.558376 -144.968857 
L 413.393209 -145.308364 
L 420.228041 -145.372022 
L 427.062874 -145.669091 
L 433.897706 -145.69031 
L 440.732539 -145.732748 
L 447.567371 -146.751269 
L 454.402204 -147.409064 
L 461.237036 -147.621256 
L 468.071869 -147.812229 
L 474.906702 -147.918325 
L 481.741534 -147.981982 
L 488.576367 -148.04564 
L 495.411199 -148.958065 
L 502.246032 -148.958065 
L 509.080864 -148.958065 
L 515.915697 -152.628985 
L 522.750529 -152.650205 
L 529.585362 -152.713862 
L 536.420194 -152.798739 
L 543.255027 -156.384782 
L 550.089859 -156.618193 
L 556.924692 -157.275988 
L 563.759525 -157.275988 
L 570.594357 -157.275988 
L 577.42919 -157.275988 
L 584.264022 -157.275988 
L 591.098855 -157.275988 
L 597.933687 -157.275988 
L 604.76852 -157.275988 
L 611.603352 -157.275988 
L 618.438185 -157.275988 
L 625.273017 -157.509399 
L 632.10785 -157.509399 
L 638.942682 -157.509399 
L 645.777515 -157.509399 
L 652.612347 -157.509399 
L 659.44718 -157.509399 
L 666.282013 -162.276644 
L 673.116845 -157.509399 
L 679.951678 -157.509399 
L 686.78651 -157.509399 
L 693.621343 -157.509399 
L 700.456175 -157.509399 
L 707.291008 -157.509399 
L 714.12584 -157.551838 
L 720.960673 -157.551838 
L 727.795505 -157.551838 
L 734.630338 -159.58888 
L 741.46517 -160.267894 
L 741.46517 -249.282402 
L 741.46517 -249.282402 
L 734.630338 -248.412415 
L 727.795505 -247.839497 
L 720.960673 -247.49999 
L 714.12584 -247.330236 
L 707.291008 -247.330236 
L 700.456175 -247.118044 
L 693.621343 -246.990729 
L 686.78651 -245.208317 
L 679.951678 -237.717942 
L 673.116845 -237.038928 
L 666.282013 -235.95675 
L 659.44718 -235.914311 
L 652.612347 -221.485261 
L 645.777515 -221.25185 
L 638.942682 -221.25185 
L 632.10785 -219.68163 
L 625.273017 -218.705547 
L 618.438185 -217.432396 
L 611.603352 -209.942021 
L 604.76852 -209.114473 
L 597.933687 -208.562774 
L 591.098855 -208.350582 
L 584.264022 -208.286924 
L 577.42919 -208.244486 
L 570.594357 -207.86254 
L 563.759525 -207.798883 
L 556.924692 -206.03769 
L 550.089859 -205.719402 
L 543.255027 -205.485991 
L 536.420194 -205.337457 
L 529.585362 -202.89725 
L 522.750529 -201.263372 
L 515.915697 -198.377562 
L 509.080864 -195.152245 
L 502.246032 -194.982491 
L 495.411199 -194.324696 
L 488.576367 -193.730559 
L 481.741534 -193.70934 
L 474.906702 -193.688121 
L 468.071869 -193.645682 
L 461.237036 -193.284956 
L 454.402204 -191.163037 
L 447.567371 -187.216267 
L 440.732539 -185.433855 
L 433.897706 -183.099744 
L 427.062874 -180.192715 
L 420.228041 -180.192715 
L 413.393209 -178.962002 
L 406.558376 -178.622495 
L 399.723544 -178.537618 
L 392.888711 -173.572327 
L 386.053879 -173.338916 
L 379.219046 -173.147943 
L 372.384214 -172.384052 
L 365.549381 -170.516764 
L 358.714548 -170.156037 
L 351.879716 -167.142912 
L 345.044883 -162.644444 
L 338.210051 -162.007868 
L 331.375218 -152.819958 
L 324.540386 -152.819958 
L 317.705553 -152.735081 
L 310.870721 -152.459232 
L 304.035888 -152.140944 
L 297.201056 -151.483149 
L 290.366223 -151.079984 
L 283.531391 -150.591943 
L 276.696558 -148.32149 
L 269.861725 -144.714227 
L 263.026893 -143.950336 
L 256.19206 -143.632048 
L 249.357228 -142.592308 
L 242.522395 -139.218456 
L 235.687563 -136.841907 
L 228.85273 -136.417523 
L 222.017898 -134.93218 
L 215.183065 -134.804865 
L 208.348233 -127.378148 
L 201.5134 -126.847668 
L 194.678568 -125.9989 
L 187.843735 -125.044037 
L 181.008903 -122.349199 
L 174.17407 -114.434441 
L 167.339237 -113.882742 
L 160.504405 -112.545933 
L 153.669572 -107.076156 
L 146.83474 -99.114185 
L 139.999907 -90.58407 
L 133.165075 -85.34293 
L 126.330242 -81.120311 
L 119.49541 -80.568612 
L 112.660577 -68.961714 
L 105.825745 -59.031133 
L 98.990912 -50.012976 
L 92.15608 -49.65225 
z
" id="m62acf5bde6" style="stroke:#1f77b4;stroke-opacity:0.2;"/>
    </defs>
    <g clip-path="url(#p6efdac7317)">
     <use style="fill:#1f77b4;fill-opacity:0.2;stroke:#1f77b4;stroke-opacity:0.2;" x="0" xlink:href="#m62acf5bde6" y="325.986375"/>
    </g>
   </g>
   <g id="matplotlib.axis_1">
    <g id="xtick_1">
     <g id="line2d_1">
      <defs>
       <path d="M 0 0 
L 0 3.5 
" id="md430c8c9c3" style="stroke:#000000;stroke-width:0.8;"/>
      </defs>
      <g>
       <use style="stroke:#000000;stroke-width:0.8;" x="92.15608" xlink:href="#md430c8c9c3" y="288.430125"/>
      </g>
     </g>
     <g id="text_1">
      <!-- 15m -->
      <g transform="translate(80.923267 303.028562)scale(0.1 -0.1)">
       <defs>
        <path d="M 12.40625 8.296875 
L 28.515625 8.296875 
L 28.515625 63.921875 
L 10.984375 60.40625 
L 10.984375 69.390625 
L 28.421875 72.90625 
L 38.28125 72.90625 
L 38.28125 8.296875 
L 54.390625 8.296875 
L 54.390625 0 
L 12.40625 0 
z
" id="DejaVuSans-49"/>
        <path d="M 10.796875 72.90625 
L 49.515625 72.90625 
L 49.515625 64.59375 
L 19.828125 64.59375 
L 19.828125 46.734375 
Q 21.96875 47.46875 24.109375 47.828125 
Q 26.265625 48.1875 28.421875 48.1875 
Q 40.625 48.1875 47.75 41.5 
Q 54.890625 34.8125 54.890625 23.390625 
Q 54.890625 11.625 47.5625 5.09375 
Q 40.234375 -1.421875 26.90625 -1.421875 
Q 22.3125 -1.421875 17.546875 -0.640625 
Q 12.796875 0.140625 7.71875 1.703125 
L 7.71875 11.625 
Q 12.109375 9.234375 16.796875 8.0625 
Q 21.484375 6.890625 26.703125 6.890625 
Q 35.15625 6.890625 40.078125 11.328125 
Q 45.015625 15.765625 45.015625 23.390625 
Q 45.015625 31 40.078125 35.4375 
Q 35.15625 39.890625 26.703125 39.890625 
Q 22.75 39.890625 18.8125 39.015625 
Q 14.890625 38.140625 10.796875 36.28125 
z
" id="DejaVuSans-53"/>
        <path d="M 52 44.1875 
Q 55.375 50.25 60.0625 53.125 
Q 64.75 56 71.09375 56 
Q 79.640625 56 84.28125 50.015625 
Q 88.921875 44.046875 88.921875 33.015625 
L 88.921875 0 
L 79.890625 0 
L 79.890625 32.71875 
Q 79.890625 40.578125 77.09375 44.375 
Q 74.3125 48.1875 68.609375 48.1875 
Q 61.625 48.1875 57.5625 43.546875 
Q 53.515625 38.921875 53.515625 30.90625 
L 53.515625 0 
L 44.484375 0 
L 44.484375 32.71875 
Q 44.484375 40.625 41.703125 44.40625 
Q 38.921875 48.1875 33.109375 48.1875 
Q 26.21875 48.1875 22.15625 43.53125 
Q 18.109375 38.875 18.109375 30.90625 
L 18.109375 0 
L 9.078125 0 
L 9.078125 54.6875 
L 18.109375 54.6875 
L 18.109375 46.1875 
Q 21.1875 51.21875 25.484375 53.609375 
Q 29.78125 56 35.6875 56 
Q 41.65625 56 45.828125 52.96875 
Q 50 49.953125 52 44.1875 
z
" id="DejaVuSans-109"/>
       </defs>
       <use xlink:href="#DejaVuSans-49"/>
       <use x="63.623047" xlink:href="#DejaVuSans-53"/>
       <use x="127.246094" xlink:href="#DejaVuSans-109"/>
      </g>
     </g>
    </g>
    <g id="xtick_2">
     <g id="line2d_2">
      <g>
       <use style="stroke:#000000;stroke-width:0.8;" x="146.83474" xlink:href="#md430c8c9c3" y="288.430125"/>
      </g>
     </g>
     <g id="text_2">
      <!-- 2h:15m -->
      <g transform="translate(127.567552 303.028562)scale(0.1 -0.1)">
       <defs>
        <path d="M 19.1875 8.296875 
L 53.609375 8.296875 
L 53.609375 0 
L 7.328125 0 
L 7.328125 8.296875 
Q 12.9375 14.109375 22.625 23.890625 
Q 32.328125 33.6875 34.8125 36.53125 
Q 39.546875 41.84375 41.421875 45.53125 
Q 43.3125 49.21875 43.3125 52.78125 
Q 43.3125 58.59375 39.234375 62.25 
Q 35.15625 65.921875 28.609375 65.921875 
Q 23.96875 65.921875 18.8125 64.3125 
Q 13.671875 62.703125 7.8125 59.421875 
L 7.8125 69.390625 
Q 13.765625 71.78125 18.9375 73 
Q 24.125 74.21875 28.421875 74.21875 
Q 39.75 74.21875 46.484375 68.546875 
Q 53.21875 62.890625 53.21875 53.421875 
Q 53.21875 48.921875 51.53125 44.890625 
Q 49.859375 40.875 45.40625 35.40625 
Q 44.1875 33.984375 37.640625 27.21875 
Q 31.109375 20.453125 19.1875 8.296875 
z
" id="DejaVuSans-50"/>
        <path d="M 54.890625 33.015625 
L 54.890625 0 
L 45.90625 0 
L 45.90625 32.71875 
Q 45.90625 40.484375 42.875 44.328125 
Q 39.84375 48.1875 33.796875 48.1875 
Q 26.515625 48.1875 22.3125 43.546875 
Q 18.109375 38.921875 18.109375 30.90625 
L 18.109375 0 
L 9.078125 0 
L 9.078125 75.984375 
L 18.109375 75.984375 
L 18.109375 46.1875 
Q 21.34375 51.125 25.703125 53.5625 
Q 30.078125 56 35.796875 56 
Q 45.21875 56 50.046875 50.171875 
Q 54.890625 44.34375 54.890625 33.015625 
z
" id="DejaVuSans-104"/>
        <path d="M 11.71875 12.40625 
L 22.015625 12.40625 
L 22.015625 0 
L 11.71875 0 
z
M 11.71875 51.703125 
L 22.015625 51.703125 
L 22.015625 39.3125 
L 11.71875 39.3125 
z
" id="DejaVuSans-58"/>
       </defs>
       <use xlink:href="#DejaVuSans-50"/>
       <use x="63.623047" xlink:href="#DejaVuSans-104"/>
       <use x="127.001953" xlink:href="#DejaVuSans-58"/>
       <use x="160.693359" xlink:href="#DejaVuSans-49"/>
       <use x="224.316406" xlink:href="#DejaVuSans-53"/>
       <use x="287.939453" xlink:href="#DejaVuSans-109"/>
      </g>
     </g>
    </g>
    <g id="xtick_3">
     <g id="line2d_3">
      <g>
       <use style="stroke:#000000;stroke-width:0.8;" x="201.5134" xlink:href="#md430c8c9c3" y="288.430125"/>
      </g>
     </g>
     <g id="text_3">
      <!-- 4h:15m -->
      <g transform="translate(182.246213 303.028562)scale(0.1 -0.1)">
       <defs>
        <path d="M 37.796875 64.3125 
L 12.890625 25.390625 
L 37.796875 25.390625 
z
M 35.203125 72.90625 
L 47.609375 72.90625 
L 47.609375 25.390625 
L 58.015625 25.390625 
L 58.015625 17.1875 
L 47.609375 17.1875 
L 47.609375 0 
L 37.796875 0 
L 37.796875 17.1875 
L 4.890625 17.1875 
L 4.890625 26.703125 
z
" id="DejaVuSans-52"/>
       </defs>
       <use xlink:href="#DejaVuSans-52"/>
       <use x="63.623047" xlink:href="#DejaVuSans-104"/>
       <use x="127.001953" xlink:href="#DejaVuSans-58"/>
       <use x="160.693359" xlink:href="#DejaVuSans-49"/>
       <use x="224.316406" xlink:href="#DejaVuSans-53"/>
       <use x="287.939453" xlink:href="#DejaVuSans-109"/>
      </g>
     </g>
    </g>
    <g id="xtick_4">
     <g id="line2d_4">
      <g>
       <use style="stroke:#000000;stroke-width:0.8;" x="256.19206" xlink:href="#md430c8c9c3" y="288.430125"/>
      </g>
     </g>
     <g id="text_4">
      <!-- 6h:15m -->
      <g transform="translate(236.924873 303.028562)scale(0.1 -0.1)">
       <defs>
        <path d="M 33.015625 40.375 
Q 26.375 40.375 22.484375 35.828125 
Q 18.609375 31.296875 18.609375 23.390625 
Q 18.609375 15.53125 22.484375 10.953125 
Q 26.375 6.390625 33.015625 6.390625 
Q 39.65625 6.390625 43.53125 10.953125 
Q 47.40625 15.53125 47.40625 23.390625 
Q 47.40625 31.296875 43.53125 35.828125 
Q 39.65625 40.375 33.015625 40.375 
z
M 52.59375 71.296875 
L 52.59375 62.3125 
Q 48.875 64.0625 45.09375 64.984375 
Q 41.3125 65.921875 37.59375 65.921875 
Q 27.828125 65.921875 22.671875 59.328125 
Q 17.53125 52.734375 16.796875 39.40625 
Q 19.671875 43.65625 24.015625 45.921875 
Q 28.375 48.1875 33.59375 48.1875 
Q 44.578125 48.1875 50.953125 41.515625 
Q 57.328125 34.859375 57.328125 23.390625 
Q 57.328125 12.15625 50.6875 5.359375 
Q 44.046875 -1.421875 33.015625 -1.421875 
Q 20.359375 -1.421875 13.671875 8.265625 
Q 6.984375 17.96875 6.984375 36.375 
Q 6.984375 53.65625 15.1875 63.9375 
Q 23.390625 74.21875 37.203125 74.21875 
Q 40.921875 74.21875 44.703125 73.484375 
Q 48.484375 72.75 52.59375 71.296875 
z
" id="DejaVuSans-54"/>
       </defs>
       <use xlink:href="#DejaVuSans-54"/>
       <use x="63.623047" xlink:href="#DejaVuSans-104"/>
       <use x="127.001953" xlink:href="#DejaVuSans-58"/>
       <use x="160.693359" xlink:href="#DejaVuSans-49"/>
       <use x="224.316406" xlink:href="#DejaVuSans-53"/>
       <use x="287.939453" xlink:href="#DejaVuSans-109"/>
      </g>
     </g>
    </g>
    <g id="xtick_5">
     <g id="line2d_5">
      <g>
       <use style="stroke:#000000;stroke-width:0.8;" x="310.870721" xlink:href="#md430c8c9c3" y="288.430125"/>
      </g>
     </g>
     <g id="text_5">
      <!-- 8h:15m -->
      <g transform="translate(291.603533 303.028562)scale(0.1 -0.1)">
       <defs>
        <path d="M 31.78125 34.625 
Q 24.75 34.625 20.71875 30.859375 
Q 16.703125 27.09375 16.703125 20.515625 
Q 16.703125 13.921875 20.71875 10.15625 
Q 24.75 6.390625 31.78125 6.390625 
Q 38.8125 6.390625 42.859375 10.171875 
Q 46.921875 13.96875 46.921875 20.515625 
Q 46.921875 27.09375 42.890625 30.859375 
Q 38.875 34.625 31.78125 34.625 
z
M 21.921875 38.8125 
Q 15.578125 40.375 12.03125 44.71875 
Q 8.5 49.078125 8.5 55.328125 
Q 8.5 64.0625 14.71875 69.140625 
Q 20.953125 74.21875 31.78125 74.21875 
Q 42.671875 74.21875 48.875 69.140625 
Q 55.078125 64.0625 55.078125 55.328125 
Q 55.078125 49.078125 51.53125 44.71875 
Q 48 40.375 41.703125 38.8125 
Q 48.828125 37.15625 52.796875 32.3125 
Q 56.78125 27.484375 56.78125 20.515625 
Q 56.78125 9.90625 50.3125 4.234375 
Q 43.84375 -1.421875 31.78125 -1.421875 
Q 19.734375 -1.421875 13.25 4.234375 
Q 6.78125 9.90625 6.78125 20.515625 
Q 6.78125 27.484375 10.78125 32.3125 
Q 14.796875 37.15625 21.921875 38.8125 
z
M 18.3125 54.390625 
Q 18.3125 48.734375 21.84375 45.5625 
Q 25.390625 42.390625 31.78125 42.390625 
Q 38.140625 42.390625 41.71875 45.5625 
Q 45.3125 48.734375 45.3125 54.390625 
Q 45.3125 60.0625 41.71875 63.234375 
Q 38.140625 66.40625 31.78125 66.40625 
Q 25.390625 66.40625 21.84375 63.234375 
Q 18.3125 60.0625 18.3125 54.390625 
z
" id="DejaVuSans-56"/>
       </defs>
       <use xlink:href="#DejaVuSans-56"/>
       <use x="63.623047" xlink:href="#DejaVuSans-104"/>
       <use x="127.001953" xlink:href="#DejaVuSans-58"/>
       <use x="160.693359" xlink:href="#DejaVuSans-49"/>
       <use x="224.316406" xlink:href="#DejaVuSans-53"/>
       <use x="287.939453" xlink:href="#DejaVuSans-109"/>
      </g>
     </g>
    </g>
    <g id="xtick_6">
     <g id="line2d_6">
      <g>
       <use style="stroke:#000000;stroke-width:0.8;" x="365.549381" xlink:href="#md430c8c9c3" y="288.430125"/>
      </g>
     </g>
     <g id="text_6">
      <!-- 10h:15m -->
      <g transform="translate(343.100943 303.028562)scale(0.1 -0.1)">
       <defs>
        <path d="M 31.78125 66.40625 
Q 24.171875 66.40625 20.328125 58.90625 
Q 16.5 51.421875 16.5 36.375 
Q 16.5 21.390625 20.328125 13.890625 
Q 24.171875 6.390625 31.78125 6.390625 
Q 39.453125 6.390625 43.28125 13.890625 
Q 47.125 21.390625 47.125 36.375 
Q 47.125 51.421875 43.28125 58.90625 
Q 39.453125 66.40625 31.78125 66.40625 
z
M 31.78125 74.21875 
Q 44.046875 74.21875 50.515625 64.515625 
Q 56.984375 54.828125 56.984375 36.375 
Q 56.984375 17.96875 50.515625 8.265625 
Q 44.046875 -1.421875 31.78125 -1.421875 
Q 19.53125 -1.421875 13.0625 8.265625 
Q 6.59375 17.96875 6.59375 36.375 
Q 6.59375 54.828125 13.0625 64.515625 
Q 19.53125 74.21875 31.78125 74.21875 
z
" id="DejaVuSans-48"/>
       </defs>
       <use xlink:href="#DejaVuSans-49"/>
       <use x="63.623047" xlink:href="#DejaVuSans-48"/>
       <use x="127.246094" xlink:href="#DejaVuSans-104"/>
       <use x="190.625" xlink:href="#DejaVuSans-58"/>
       <use x="224.316406" xlink:href="#DejaVuSans-49"/>
       <use x="287.939453" xlink:href="#DejaVuSans-53"/>
       <use x="351.5625" xlink:href="#DejaVuSans-109"/>
      </g>
     </g>
    </g>
    <g id="xtick_7">
     <g id="line2d_7">
      <g>
       <use style="stroke:#000000;stroke-width:0.8;" x="420.228041" xlink:href="#md430c8c9c3" y="288.430125"/>
      </g>
     </g>
     <g id="text_7">
      <!-- 12h:15m -->
      <g transform="translate(397.779604 303.028562)scale(0.1 -0.1)">
       <use xlink:href="#DejaVuSans-49"/>
       <use x="63.623047" xlink:href="#DejaVuSans-50"/>
       <use x="127.246094" xlink:href="#DejaVuSans-104"/>
       <use x="190.625" xlink:href="#DejaVuSans-58"/>
       <use x="224.316406" xlink:href="#DejaVuSans-49"/>
       <use x="287.939453" xlink:href="#DejaVuSans-53"/>
       <use x="351.5625" xlink:href="#DejaVuSans-109"/>
      </g>
     </g>
    </g>
    <g id="xtick_8">
     <g id="line2d_8">
      <g>
       <use style="stroke:#000000;stroke-width:0.8;" x="474.906702" xlink:href="#md430c8c9c3" y="288.430125"/>
      </g>
     </g>
     <g id="text_8">
      <!-- 14h:15m -->
      <g transform="translate(452.458264 303.028562)scale(0.1 -0.1)">
       <use xlink:href="#DejaVuSans-49"/>
       <use x="63.623047" xlink:href="#DejaVuSans-52"/>
       <use x="127.246094" xlink:href="#DejaVuSans-104"/>
       <use x="190.625" xlink:href="#DejaVuSans-58"/>
       <use x="224.316406" xlink:href="#DejaVuSans-49"/>
       <use x="287.939453" xlink:href="#DejaVuSans-53"/>
       <use x="351.5625" xlink:href="#DejaVuSans-109"/>
      </g>
     </g>
    </g>
    <g id="xtick_9">
     <g id="line2d_9">
      <g>
       <use style="stroke:#000000;stroke-width:0.8;" x="529.585362" xlink:href="#md430c8c9c3" y="288.430125"/>
      </g>
     </g>
     <g id="text_9">
      <!-- 16h:15m -->
      <g transform="translate(507.136924 303.028562)scale(0.1 -0.1)">
       <use xlink:href="#DejaVuSans-49"/>
       <use x="63.623047" xlink:href="#DejaVuSans-54"/>
       <use x="127.246094" xlink:href="#DejaVuSans-104"/>
       <use x="190.625" xlink:href="#DejaVuSans-58"/>
       <use x="224.316406" xlink:href="#DejaVuSans-49"/>
       <use x="287.939453" xlink:href="#DejaVuSans-53"/>
       <use x="351.5625" xlink:href="#DejaVuSans-109"/>
      </g>
     </g>
    </g>
    <g id="xtick_10">
     <g id="line2d_10">
      <g>
       <use style="stroke:#000000;stroke-width:0.8;" x="584.264022" xlink:href="#md430c8c9c3" y="288.430125"/>
      </g>
     </g>
     <g id="text_10">
      <!-- 18h:15m -->
      <g transform="translate(561.815585 303.028562)scale(0.1 -0.1)">
       <use xlink:href="#DejaVuSans-49"/>
       <use x="63.623047" xlink:href="#DejaVuSans-56"/>
       <use x="127.246094" xlink:href="#DejaVuSans-104"/>
       <use x="190.625" xlink:href="#DejaVuSans-58"/>
       <use x="224.316406" xlink:href="#DejaVuSans-49"/>
       <use x="287.939453" xlink:href="#DejaVuSans-53"/>
       <use x="351.5625" xlink:href="#DejaVuSans-109"/>
      </g>
     </g>
    </g>
    <g id="xtick_11">
     <g id="line2d_11">
      <g>
       <use style="stroke:#000000;stroke-width:0.8;" x="638.942682" xlink:href="#md430c8c9c3" y="288.430125"/>
      </g>
     </g>
     <g id="text_11">
      <!-- 20h:15m -->
      <g transform="translate(616.494245 303.028562)scale(0.1 -0.1)">
       <use xlink:href="#DejaVuSans-50"/>
       <use x="63.623047" xlink:href="#DejaVuSans-48"/>
       <use x="127.246094" xlink:href="#DejaVuSans-104"/>
       <use x="190.625" xlink:href="#DejaVuSans-58"/>
       <use x="224.316406" xlink:href="#DejaVuSans-49"/>
       <use x="287.939453" xlink:href="#DejaVuSans-53"/>
       <use x="351.5625" xlink:href="#DejaVuSans-109"/>
      </g>
     </g>
    </g>
    <g id="xtick_12">
     <g id="line2d_12">
      <g>
       <use style="stroke:#000000;stroke-width:0.8;" x="693.621343" xlink:href="#md430c8c9c3" y="288.430125"/>
      </g>
     </g>
     <g id="text_12">
      <!-- 22h:15m -->
      <g transform="translate(671.172905 303.028562)scale(0.1 -0.1)">
       <use xlink:href="#DejaVuSans-50"/>
       <use x="63.623047" xlink:href="#DejaVuSans-50"/>
       <use x="127.246094" xlink:href="#DejaVuSans-104"/>
       <use x="190.625" xlink:href="#DejaVuSans-58"/>
       <use x="224.316406" xlink:href="#DejaVuSans-49"/>
       <use x="287.939453" xlink:href="#DejaVuSans-53"/>
       <use x="351.5625" xlink:href="#DejaVuSans-109"/>
      </g>
     </g>
    </g>
    <g id="text_13">
     <!-- Time (hour:minute) -->
     <g transform="translate(368.403594 316.706687)scale(0.1 -0.1)">
      <defs>
       <path d="M -0.296875 72.90625 
L 61.375 72.90625 
L 61.375 64.59375 
L 35.5 64.59375 
L 35.5 0 
L 25.59375 0 
L 25.59375 64.59375 
L -0.296875 64.59375 
z
" id="DejaVuSans-84"/>
       <path d="M 9.421875 54.6875 
L 18.40625 54.6875 
L 18.40625 0 
L 9.421875 0 
z
M 9.421875 75.984375 
L 18.40625 75.984375 
L 18.40625 64.59375 
L 9.421875 64.59375 
z
" id="DejaVuSans-105"/>
       <path d="M 56.203125 29.59375 
L 56.203125 25.203125 
L 14.890625 25.203125 
Q 15.484375 15.921875 20.484375 11.0625 
Q 25.484375 6.203125 34.421875 6.203125 
Q 39.59375 6.203125 44.453125 7.46875 
Q 49.3125 8.734375 54.109375 11.28125 
L 54.109375 2.78125 
Q 49.265625 0.734375 44.1875 -0.34375 
Q 39.109375 -1.421875 33.890625 -1.421875 
Q 20.796875 -1.421875 13.15625 6.1875 
Q 5.515625 13.8125 5.515625 26.8125 
Q 5.515625 40.234375 12.765625 48.109375 
Q 20.015625 56 32.328125 56 
Q 43.359375 56 49.78125 48.890625 
Q 56.203125 41.796875 56.203125 29.59375 
z
M 47.21875 32.234375 
Q 47.125 39.59375 43.09375 43.984375 
Q 39.0625 48.390625 32.421875 48.390625 
Q 24.90625 48.390625 20.390625 44.140625 
Q 15.875 39.890625 15.1875 32.171875 
z
" id="DejaVuSans-101"/>
       <path id="DejaVuSans-32"/>
       <path d="M 31 75.875 
Q 24.46875 64.65625 21.28125 53.65625 
Q 18.109375 42.671875 18.109375 31.390625 
Q 18.109375 20.125 21.3125 9.0625 
Q 24.515625 -2 31 -13.1875 
L 23.1875 -13.1875 
Q 15.875 -1.703125 12.234375 9.375 
Q 8.59375 20.453125 8.59375 31.390625 
Q 8.59375 42.28125 12.203125 53.3125 
Q 15.828125 64.359375 23.1875 75.875 
z
" id="DejaVuSans-40"/>
       <path d="M 30.609375 48.390625 
Q 23.390625 48.390625 19.1875 42.75 
Q 14.984375 37.109375 14.984375 27.296875 
Q 14.984375 17.484375 19.15625 11.84375 
Q 23.34375 6.203125 30.609375 6.203125 
Q 37.796875 6.203125 41.984375 11.859375 
Q 46.1875 17.53125 46.1875 27.296875 
Q 46.1875 37.015625 41.984375 42.703125 
Q 37.796875 48.390625 30.609375 48.390625 
z
M 30.609375 56 
Q 42.328125 56 49.015625 48.375 
Q 55.71875 40.765625 55.71875 27.296875 
Q 55.71875 13.875 49.015625 6.21875 
Q 42.328125 -1.421875 30.609375 -1.421875 
Q 18.84375 -1.421875 12.171875 6.21875 
Q 5.515625 13.875 5.515625 27.296875 
Q 5.515625 40.765625 12.171875 48.375 
Q 18.84375 56 30.609375 56 
z
" id="DejaVuSans-111"/>
       <path d="M 8.5 21.578125 
L 8.5 54.6875 
L 17.484375 54.6875 
L 17.484375 21.921875 
Q 17.484375 14.15625 20.5 10.265625 
Q 23.53125 6.390625 29.59375 6.390625 
Q 36.859375 6.390625 41.078125 11.03125 
Q 45.3125 15.671875 45.3125 23.6875 
L 45.3125 54.6875 
L 54.296875 54.6875 
L 54.296875 0 
L 45.3125 0 
L 45.3125 8.40625 
Q 42.046875 3.421875 37.71875 1 
Q 33.40625 -1.421875 27.6875 -1.421875 
Q 18.265625 -1.421875 13.375 4.4375 
Q 8.5 10.296875 8.5 21.578125 
z
M 31.109375 56 
z
" id="DejaVuSans-117"/>
       <path d="M 41.109375 46.296875 
Q 39.59375 47.171875 37.8125 47.578125 
Q 36.03125 48 33.890625 48 
Q 26.265625 48 22.1875 43.046875 
Q 18.109375 38.09375 18.109375 28.8125 
L 18.109375 0 
L 9.078125 0 
L 9.078125 54.6875 
L 18.109375 54.6875 
L 18.109375 46.1875 
Q 20.953125 51.171875 25.484375 53.578125 
Q 30.03125 56 36.53125 56 
Q 37.453125 56 38.578125 55.875 
Q 39.703125 55.765625 41.0625 55.515625 
z
" id="DejaVuSans-114"/>
       <path d="M 54.890625 33.015625 
L 54.890625 0 
L 45.90625 0 
L 45.90625 32.71875 
Q 45.90625 40.484375 42.875 44.328125 
Q 39.84375 48.1875 33.796875 48.1875 
Q 26.515625 48.1875 22.3125 43.546875 
Q 18.109375 38.921875 18.109375 30.90625 
L 18.109375 0 
L 9.078125 0 
L 9.078125 54.6875 
L 18.109375 54.6875 
L 18.109375 46.1875 
Q 21.34375 51.125 25.703125 53.5625 
Q 30.078125 56 35.796875 56 
Q 45.21875 56 50.046875 50.171875 
Q 54.890625 44.34375 54.890625 33.015625 
z
" id="DejaVuSans-110"/>
       <path d="M 18.3125 70.21875 
L 18.3125 54.6875 
L 36.8125 54.6875 
L 36.8125 47.703125 
L 18.3125 47.703125 
L 18.3125 18.015625 
Q 18.3125 11.328125 20.140625 9.421875 
Q 21.96875 7.515625 27.59375 7.515625 
L 36.8125 7.515625 
L 36.8125 0 
L 27.59375 0 
Q 17.1875 0 13.234375 3.875 
Q 9.28125 7.765625 9.28125 18.015625 
L 9.28125 47.703125 
L 2.6875 47.703125 
L 2.6875 54.6875 
L 9.28125 54.6875 
L 9.28125 70.21875 
z
" id="DejaVuSans-116"/>
       <path d="M 8.015625 75.875 
L 15.828125 75.875 
Q 23.140625 64.359375 26.78125 53.3125 
Q 30.421875 42.28125 30.421875 31.390625 
Q 30.421875 20.453125 26.78125 9.375 
Q 23.140625 -1.703125 15.828125 -13.1875 
L 8.015625 -13.1875 
Q 14.5 -2 17.703125 9.0625 
Q 20.90625 20.125 20.90625 31.390625 
Q 20.90625 42.671875 17.703125 53.65625 
Q 14.5 64.65625 8.015625 75.875 
z
" id="DejaVuSans-41"/>
      </defs>
      <use xlink:href="#DejaVuSans-84"/>
      <use x="57.958984" xlink:href="#DejaVuSans-105"/>
      <use x="85.742188" xlink:href="#DejaVuSans-109"/>
      <use x="183.154297" xlink:href="#DejaVuSans-101"/>
      <use x="244.677734" xlink:href="#DejaVuSans-32"/>
      <use x="276.464844" xlink:href="#DejaVuSans-40"/>
      <use x="315.478516" xlink:href="#DejaVuSans-104"/>
      <use x="378.857422" xlink:href="#DejaVuSans-111"/>
      <use x="440.039062" xlink:href="#DejaVuSans-117"/>
      <use x="503.417969" xlink:href="#DejaVuSans-114"/>
      <use x="542.78125" xlink:href="#DejaVuSans-58"/>
      <use x="576.472656" xlink:href="#DejaVuSans-109"/>
      <use x="673.884766" xlink:href="#DejaVuSans-105"/>
      <use x="701.667969" xlink:href="#DejaVuSans-110"/>
      <use x="765.046875" xlink:href="#DejaVuSans-117"/>
      <use x="828.425781" xlink:href="#DejaVuSans-116"/>
      <use x="867.634766" xlink:href="#DejaVuSans-101"/>
      <use x="929.158203" xlink:href="#DejaVuSans-41"/>
     </g>
    </g>
   </g>
   <g id="matplotlib.axis_2">
    <g id="ytick_1">
     <g id="line2d_13">
      <defs>
       <path d="M 0 0 
L -3.5 0 
" id="m9353e747f5" style="stroke:#000000;stroke-width:0.8;"/>
      </defs>
      <g>
       <use style="stroke:#000000;stroke-width:0.8;" x="59.690625" xlink:href="#m9353e747f5" y="279.856511"/>
      </g>
     </g>
     <g id="text_14">
      <!-- 16000 -->
      <g transform="translate(20.878125 283.65573)scale(0.1 -0.1)">
       <use xlink:href="#DejaVuSans-49"/>
       <use x="63.623047" xlink:href="#DejaVuSans-54"/>
       <use x="127.246094" xlink:href="#DejaVuSans-48"/>
       <use x="190.869141" xlink:href="#DejaVuSans-48"/>
       <use x="254.492188" xlink:href="#DejaVuSans-48"/>
      </g>
     </g>
    </g>
    <g id="ytick_2">
     <g id="line2d_14">
      <g>
       <use style="stroke:#000000;stroke-width:0.8;" x="59.690625" xlink:href="#m9353e747f5" y="237.418128"/>
      </g>
     </g>
     <g id="text_15">
      <!-- 18000 -->
      <g transform="translate(20.878125 241.217347)scale(0.1 -0.1)">
       <use xlink:href="#DejaVuSans-49"/>
       <use x="63.623047" xlink:href="#DejaVuSans-56"/>
       <use x="127.246094" xlink:href="#DejaVuSans-48"/>
       <use x="190.869141" xlink:href="#DejaVuSans-48"/>
       <use x="254.492188" xlink:href="#DejaVuSans-48"/>
      </g>
     </g>
    </g>
    <g id="ytick_3">
     <g id="line2d_15">
      <g>
       <use style="stroke:#000000;stroke-width:0.8;" x="59.690625" xlink:href="#m9353e747f5" y="194.979746"/>
      </g>
     </g>
     <g id="text_16">
      <!-- 20000 -->
      <g transform="translate(20.878125 198.778964)scale(0.1 -0.1)">
       <use xlink:href="#DejaVuSans-50"/>
       <use x="63.623047" xlink:href="#DejaVuSans-48"/>
       <use x="127.246094" xlink:href="#DejaVuSans-48"/>
       <use x="190.869141" xlink:href="#DejaVuSans-48"/>
       <use x="254.492188" xlink:href="#DejaVuSans-48"/>
      </g>
     </g>
    </g>
    <g id="ytick_4">
     <g id="line2d_16">
      <g>
       <use style="stroke:#000000;stroke-width:0.8;" x="59.690625" xlink:href="#m9353e747f5" y="152.541363"/>
      </g>
     </g>
     <g id="text_17">
      <!-- 22000 -->
      <g transform="translate(20.878125 156.340582)scale(0.1 -0.1)">
       <use xlink:href="#DejaVuSans-50"/>
       <use x="63.623047" xlink:href="#DejaVuSans-50"/>
       <use x="127.246094" xlink:href="#DejaVuSans-48"/>
       <use x="190.869141" xlink:href="#DejaVuSans-48"/>
       <use x="254.492188" xlink:href="#DejaVuSans-48"/>
      </g>
     </g>
    </g>
    <g id="ytick_5">
     <g id="line2d_17">
      <g>
       <use style="stroke:#000000;stroke-width:0.8;" x="59.690625" xlink:href="#m9353e747f5" y="110.10298"/>
      </g>
     </g>
     <g id="text_18">
      <!-- 24000 -->
      <g transform="translate(20.878125 113.902199)scale(0.1 -0.1)">
       <use xlink:href="#DejaVuSans-50"/>
       <use x="63.623047" xlink:href="#DejaVuSans-52"/>
       <use x="127.246094" xlink:href="#DejaVuSans-48"/>
       <use x="190.869141" xlink:href="#DejaVuSans-48"/>
       <use x="254.492188" xlink:href="#DejaVuSans-48"/>
      </g>
     </g>
    </g>
    <g id="ytick_6">
     <g id="line2d_18">
      <g>
       <use style="stroke:#000000;stroke-width:0.8;" x="59.690625" xlink:href="#m9353e747f5" y="67.664598"/>
      </g>
     </g>
     <g id="text_19">
      <!-- 26000 -->
      <g transform="translate(20.878125 71.463817)scale(0.1 -0.1)">
       <use xlink:href="#DejaVuSans-50"/>
       <use x="63.623047" xlink:href="#DejaVuSans-54"/>
       <use x="127.246094" xlink:href="#DejaVuSans-48"/>
       <use x="190.869141" xlink:href="#DejaVuSans-48"/>
       <use x="254.492188" xlink:href="#DejaVuSans-48"/>
      </g>
     </g>
    </g>
    <g id="ytick_7">
     <g id="line2d_19">
      <g>
       <use style="stroke:#000000;stroke-width:0.8;" x="59.690625" xlink:href="#m9353e747f5" y="25.226215"/>
      </g>
     </g>
     <g id="text_20">
      <!-- 28000 -->
      <g transform="translate(20.878125 29.025434)scale(0.1 -0.1)">
       <use xlink:href="#DejaVuSans-50"/>
       <use x="63.623047" xlink:href="#DejaVuSans-56"/>
       <use x="127.246094" xlink:href="#DejaVuSans-48"/>
       <use x="190.869141" xlink:href="#DejaVuSans-48"/>
       <use x="254.492188" xlink:href="#DejaVuSans-48"/>
      </g>
     </g>
    </g>
    <g id="text_21">
     <!-- Edge coverage -->
     <g transform="translate(14.798437 192.762406)rotate(-90)scale(0.1 -0.1)">
      <defs>
       <path d="M 9.8125 72.90625 
L 55.90625 72.90625 
L 55.90625 64.59375 
L 19.671875 64.59375 
L 19.671875 43.015625 
L 54.390625 43.015625 
L 54.390625 34.71875 
L 19.671875 34.71875 
L 19.671875 8.296875 
L 56.78125 8.296875 
L 56.78125 0 
L 9.8125 0 
z
" id="DejaVuSans-69"/>
       <path d="M 45.40625 46.390625 
L 45.40625 75.984375 
L 54.390625 75.984375 
L 54.390625 0 
L 45.40625 0 
L 45.40625 8.203125 
Q 42.578125 3.328125 38.25 0.953125 
Q 33.9375 -1.421875 27.875 -1.421875 
Q 17.96875 -1.421875 11.734375 6.484375 
Q 5.515625 14.40625 5.515625 27.296875 
Q 5.515625 40.1875 11.734375 48.09375 
Q 17.96875 56 27.875 56 
Q 33.9375 56 38.25 53.625 
Q 42.578125 51.265625 45.40625 46.390625 
z
M 14.796875 27.296875 
Q 14.796875 17.390625 18.875 11.75 
Q 22.953125 6.109375 30.078125 6.109375 
Q 37.203125 6.109375 41.296875 11.75 
Q 45.40625 17.390625 45.40625 27.296875 
Q 45.40625 37.203125 41.296875 42.84375 
Q 37.203125 48.484375 30.078125 48.484375 
Q 22.953125 48.484375 18.875 42.84375 
Q 14.796875 37.203125 14.796875 27.296875 
z
" id="DejaVuSans-100"/>
       <path d="M 45.40625 27.984375 
Q 45.40625 37.75 41.375 43.109375 
Q 37.359375 48.484375 30.078125 48.484375 
Q 22.859375 48.484375 18.828125 43.109375 
Q 14.796875 37.75 14.796875 27.984375 
Q 14.796875 18.265625 18.828125 12.890625 
Q 22.859375 7.515625 30.078125 7.515625 
Q 37.359375 7.515625 41.375 12.890625 
Q 45.40625 18.265625 45.40625 27.984375 
z
M 54.390625 6.78125 
Q 54.390625 -7.171875 48.1875 -13.984375 
Q 42 -20.796875 29.203125 -20.796875 
Q 24.46875 -20.796875 20.265625 -20.09375 
Q 16.0625 -19.390625 12.109375 -17.921875 
L 12.109375 -9.1875 
Q 16.0625 -11.328125 19.921875 -12.34375 
Q 23.78125 -13.375 27.78125 -13.375 
Q 36.625 -13.375 41.015625 -8.765625 
Q 45.40625 -4.15625 45.40625 5.171875 
L 45.40625 9.625 
Q 42.625 4.78125 38.28125 2.390625 
Q 33.9375 0 27.875 0 
Q 17.828125 0 11.671875 7.65625 
Q 5.515625 15.328125 5.515625 27.984375 
Q 5.515625 40.671875 11.671875 48.328125 
Q 17.828125 56 27.875 56 
Q 33.9375 56 38.28125 53.609375 
Q 42.625 51.21875 45.40625 46.390625 
L 45.40625 54.6875 
L 54.390625 54.6875 
z
" id="DejaVuSans-103"/>
       <path d="M 48.78125 52.59375 
L 48.78125 44.1875 
Q 44.96875 46.296875 41.140625 47.34375 
Q 37.3125 48.390625 33.40625 48.390625 
Q 24.65625 48.390625 19.8125 42.84375 
Q 14.984375 37.3125 14.984375 27.296875 
Q 14.984375 17.28125 19.8125 11.734375 
Q 24.65625 6.203125 33.40625 6.203125 
Q 37.3125 6.203125 41.140625 7.25 
Q 44.96875 8.296875 48.78125 10.40625 
L 48.78125 2.09375 
Q 45.015625 0.34375 40.984375 -0.53125 
Q 36.96875 -1.421875 32.421875 -1.421875 
Q 20.0625 -1.421875 12.78125 6.34375 
Q 5.515625 14.109375 5.515625 27.296875 
Q 5.515625 40.671875 12.859375 48.328125 
Q 20.21875 56 33.015625 56 
Q 37.15625 56 41.109375 55.140625 
Q 45.0625 54.296875 48.78125 52.59375 
z
" id="DejaVuSans-99"/>
       <path d="M 2.984375 54.6875 
L 12.5 54.6875 
L 29.59375 8.796875 
L 46.6875 54.6875 
L 56.203125 54.6875 
L 35.6875 0 
L 23.484375 0 
z
" id="DejaVuSans-118"/>
       <path d="M 34.28125 27.484375 
Q 23.390625 27.484375 19.1875 25 
Q 14.984375 22.515625 14.984375 16.5 
Q 14.984375 11.71875 18.140625 8.90625 
Q 21.296875 6.109375 26.703125 6.109375 
Q 34.1875 6.109375 38.703125 11.40625 
Q 43.21875 16.703125 43.21875 25.484375 
L 43.21875 27.484375 
z
M 52.203125 31.203125 
L 52.203125 0 
L 43.21875 0 
L 43.21875 8.296875 
Q 40.140625 3.328125 35.546875 0.953125 
Q 30.953125 -1.421875 24.3125 -1.421875 
Q 15.921875 -1.421875 10.953125 3.296875 
Q 6 8.015625 6 15.921875 
Q 6 25.140625 12.171875 29.828125 
Q 18.359375 34.515625 30.609375 34.515625 
L 43.21875 34.515625 
L 43.21875 35.40625 
Q 43.21875 41.609375 39.140625 45 
Q 35.0625 48.390625 27.6875 48.390625 
Q 23 48.390625 18.546875 47.265625 
Q 14.109375 46.140625 10.015625 43.890625 
L 10.015625 52.203125 
Q 14.9375 54.109375 19.578125 55.046875 
Q 24.21875 56 28.609375 56 
Q 40.484375 56 46.34375 49.84375 
Q 52.203125 43.703125 52.203125 31.203125 
z
" id="DejaVuSans-97"/>
      </defs>
      <use xlink:href="#DejaVuSans-69"/>
      <use x="63.183594" xlink:href="#DejaVuSans-100"/>
      <use x="126.660156" xlink:href="#DejaVuSans-103"/>
      <use x="190.136719" xlink:href="#DejaVuSans-101"/>
      <use x="251.660156" xlink:href="#DejaVuSans-32"/>
      <use x="283.447266" xlink:href="#DejaVuSans-99"/>
      <use x="338.427734" xlink:href="#DejaVuSans-111"/>
      <use x="399.609375" xlink:href="#DejaVuSans-118"/>
      <use x="458.789062" xlink:href="#DejaVuSans-101"/>
      <use x="520.3125" xlink:href="#DejaVuSans-114"/>
      <use x="561.425781" xlink:href="#DejaVuSans-97"/>
      <use x="622.705078" xlink:href="#DejaVuSans-103"/>
      <use x="686.181641" xlink:href="#DejaVuSans-101"/>
     </g>
    </g>
   </g>
   <g id="line2d_20">
    <path clip-path="url(#p6efdac7317)" d="M 92.15608 276.334125 
L 98.990912 276.334125 
L 105.825745 275.923887 
L 112.660577 275.343896 
L 119.49541 274.714393 
L 126.330242 273.511973 
L 133.165075 272.550036 
L 139.999907 267.754499 
L 146.83474 263.192373 
L 153.669572 259.033411 
L 160.504405 249.258437 
L 167.339237 245.028745 
L 174.17407 243.861689 
L 181.008903 239.207613 
L 187.843735 238.245677 
L 194.678568 231.69602 
L 201.5134 228.166561 
L 208.348233 225.853669 
L 215.183065 224.26223 
L 222.017898 222.592987 
L 228.85273 221.291543 
L 235.687563 219.869857 
L 242.522395 217.889399 
L 249.357228 216.566736 
L 256.19206 207.661749 
L 263.026893 204.493016 
L 269.861725 201.585987 
L 276.696558 199.379191 
L 283.531391 197.250199 
L 290.366223 195.404129 
L 297.201056 186.767919 
L 304.035888 185.636228 
L 310.870721 183.882109 
L 317.705553 182.552373 
L 324.540386 180.373869 
L 331.375218 177.53757 
L 338.210051 177.056602 
L 345.044883 174.312253 
L 351.879716 170.683772 
L 358.714548 169.24794 
L 365.549381 167.58577 
L 372.384214 166.468226 
L 379.219046 164.671667 
L 386.053879 161.3544 
L 392.888711 159.246627 
L 399.723544 158.461517 
L 406.558376 149.485799 
L 413.393209 147.880214 
L 420.228041 146.592916 
L 427.062874 144.944892 
L 433.897706 143.990029 
L 440.732539 140.73642 
L 447.567371 139.541072 
L 454.402204 136.131855 
L 461.237036 135.283087 
L 468.071869 132.376058 
L 474.906702 132.305328 
L 481.741534 131.810213 
L 488.576367 131.223149 
L 495.411199 129.751952 
L 502.246032 123.435706 
L 509.080864 122.445477 
L 515.915697 116.850683 
L 522.750529 115.45729 
L 529.585362 115.061198 
L 536.420194 110.965894 
L 543.255027 109.586647 
L 550.089859 108.136669 
L 556.924692 107.535458 
L 563.759525 107.450581 
L 570.594357 107.104001 
L 577.42919 106.36133 
L 584.264022 105.816704 
L 591.098855 105.583293 
L 597.933687 103.843319 
L 604.76852 103.220889 
L 611.603352 102.237733 
L 618.438185 101.261651 
L 625.273017 100.073376 
L 632.10785 96.600502 
L 638.942682 94.160295 
L 645.777515 93.071043 
L 652.612347 92.080814 
L 659.44718 88.070387 
L 666.282013 83.048511 
L 673.116845 81.895602 
L 679.951678 80.622451 
L 686.78651 80.304163 
L 693.621343 80.155628 
L 700.456175 79.547345 
L 707.291008 79.158326 
L 714.12584 78.931988 
L 720.960673 78.755162 
L 727.795505 77.913467 
L 734.630338 76.286662 
L 741.46517 75.614721 
" style="fill:none;stroke:#ff7f0e;stroke-linecap:square;stroke-width:1.5;"/>
   </g>
   <g id="line2d_21">
    <path clip-path="url(#p6efdac7317)" d="M 92.15608 276.334125 
L 98.990912 275.867303 
L 105.825745 267.747426 
L 112.660577 245.304594 
L 119.49541 235.71352 
L 126.330242 234.716218 
L 133.165075 229.552881 
L 139.999907 223.646873 
L 146.83474 217.323554 
L 153.669572 213.122154 
L 160.504405 210.858774 
L 167.339237 205.851045 
L 174.17407 204.577893 
L 181.008903 199.414557 
L 187.843735 197.724094 
L 194.678568 193.324649 
L 201.5134 192.836607 
L 208.348233 191.648333 
L 215.183065 185.091602 
L 222.017898 183.698209 
L 228.85273 181.526778 
L 235.687563 179.836316 
L 242.522395 178.435849 
L 249.357228 176.816118 
L 256.19206 175.847108 
L 263.026893 171.270836 
L 269.861725 169.134771 
L 276.696558 167.387724 
L 283.531391 166.496518 
L 290.366223 164.749471 
L 297.201056 161.990976 
L 304.035888 160.640021 
L 310.870721 159.748815 
L 317.705553 158.044207 
L 324.540386 157.351046 
L 331.375218 155.250346 
L 338.210051 154.210606 
L 345.044883 150.850901 
L 351.879716 148.898735 
L 358.714548 148.361182 
L 365.549381 146.974862 
L 372.384214 145.871464 
L 379.219046 145.305619 
L 386.053879 144.414413 
L 392.888711 143.148334 
L 399.723544 141.924694 
L 406.558376 141.132511 
L 413.393209 139.194492 
L 420.228041 133.868475 
L 427.062874 133.253118 
L 433.897706 130.812911 
L 440.732539 129.674148 
L 447.567371 129.207326 
L 454.402204 128.351485 
L 461.237036 127.891736 
L 468.071869 127.297598 
L 474.906702 122.89108 
L 481.741534 122.1767 
L 488.576367 117.621647 
L 495.411199 117.600428 
L 502.246032 117.430674 
L 509.080864 115.846308 
L 515.915697 113.561709 
L 522.750529 112.437091 
L 529.585362 111.701493 
L 536.420194 109.572501 
L 543.255027 108.553979 
L 550.089859 107.896184 
L 556.924692 107.669846 
L 563.759525 107.047417 
L 570.594357 106.884736 
L 577.42919 104.034292 
L 584.264022 103.772588 
L 591.098855 103.348204 
L 597.933687 102.867236 
L 604.76852 102.124564 
L 611.603352 99.422654 
L 618.438185 99.245827 
L 625.273017 98.694129 
L 632.10785 96.699525 
L 638.942682 96.11246 
L 645.777515 95.992218 
L 652.612347 95.426373 
L 659.44718 95.115158 
L 666.282013 94.662482 
L 673.116845 94.549313 
L 679.951678 94.223952 
L 686.78651 94.160295 
L 693.621343 93.629815 
L 700.456175 93.474207 
L 707.291008 93.113481 
L 714.12584 90.765224 
L 720.960673 89.131346 
L 727.795505 87.617711 
L 734.630338 84.484343 
L 741.46517 83.720453 
" style="fill:none;stroke:#aec7e8;stroke-linecap:square;stroke-width:1.5;"/>
   </g>
   <g id="line2d_22">
    <path clip-path="url(#p6efdac7317)" d="M 92.15608 276.334125 
L 98.990912 276.192664 
L 105.825745 270.682747 
L 112.660577 259.210238 
L 119.49541 246.146289 
L 126.330242 245.615809 
L 133.165075 242.503661 
L 139.999907 237.022037 
L 146.83474 232.48113 
L 153.669572 224.318814 
L 160.504405 221.857388 
L 167.339237 220.867159 
L 174.17407 219.388889 
L 181.008903 215.717969 
L 187.843735 211.148769 
L 194.678568 210.066591 
L 201.5134 208.163936 
L 208.348233 200.815023 
L 215.183065 196.634842 
L 222.017898 196.373139 
L 228.85273 191.945401 
L 235.687563 191.386629 
L 242.522395 189.441537 
L 249.357228 188.175458 
L 256.19206 187.489371 
L 263.026893 187.142791 
L 269.861725 186.414265 
L 276.696558 184.568196 
L 283.531391 183.528455 
L 290.366223 183.14651 
L 297.201056 182.913099 
L 304.035888 182.573592 
L 310.870721 182.368473 
L 317.705553 182.057258 
L 324.540386 181.901651 
L 331.375218 181.760189 
L 338.210051 178.3439 
L 345.044883 177.495132 
L 351.879716 175.153948 
L 358.714548 172.869348 
L 365.549381 172.430818 
L 372.384214 171.185959 
L 379.219046 170.867671 
L 386.053879 169.806712 
L 392.888711 169.68647 
L 399.723544 167.720158 
L 406.558376 166.956267 
L 413.393209 166.121645 
L 420.228041 165.633604 
L 427.062874 165.499216 
L 433.897706 164.162407 
L 440.732539 162.59926 
L 447.567371 161.616104 
L 454.402204 159.946861 
L 461.237036 159.119312 
L 468.071869 155.695949 
L 474.906702 155.604 
L 481.741534 155.51205 
L 488.576367 155.4201 
L 495.411199 154.896693 
L 502.246032 154.514748 
L 509.080864 154.444017 
L 515.915697 151.897714 
L 522.750529 150.751878 
L 529.585362 150.17896 
L 536.420194 149.337265 
L 543.255027 148.092406 
L 550.089859 147.936798 
L 556.924692 147.611438 
L 563.759525 147.024373 
L 570.594357 147.003154 
L 577.42919 146.875839 
L 584.264022 146.861693 
L 591.098855 146.840474 
L 597.933687 146.769743 
L 604.76852 146.585843 
L 611.603352 146.309994 
L 618.438185 143.813202 
L 625.273017 143.311015 
L 632.10785 142.985654 
L 638.942682 142.462247 
L 645.777515 142.462247 
L 652.612347 142.384443 
L 659.44718 137.57476 
L 666.282013 137.560614 
L 673.116845 136.959403 
L 679.951678 136.725992 
L 686.78651 134.207982 
L 693.621343 133.613844 
L 700.456175 133.571406 
L 707.291008 132.468008 
L 714.12584 132.453862 
L 720.960673 131.774848 
L 727.795505 131.605094 
L 734.630338 130.692669 
L 741.46517 130.155116 
" style="fill:none;stroke:#1f77b4;stroke-linecap:square;stroke-width:1.5;"/>
   </g>
   <g id="line2d_23"/>
   <g id="line2d_24"/>
   <g id="line2d_25"/>
   <g id="line2d_26"/>
   <g id="line2d_27">
    <path clip-path="url(#p6efdac7317)" d="M 741.46517 288.430125 
L 741.46517 22.318125 
" style="fill:none;stroke:#ff0000;stroke-linecap:square;stroke-width:1.5;"/>
   </g>
   <g id="patch_3">
    <path d="M 59.690625 279.856511 
L 59.690625 25.226215 
" style="fill:none;stroke:#000000;stroke-linecap:square;stroke-linejoin:miter;stroke-width:0.8;"/>
   </g>
   <g id="patch_4">
    <path d="M 92.15608 288.430125 
L 693.621343 288.430125 
" style="fill:none;stroke:#000000;stroke-linecap:square;stroke-linejoin:miter;stroke-width:0.8;"/>
   </g>
   <g id="text_22">
    <!-- sqlite3_ossfuzz (24h, 3 trials/fuzzer) -->
    <g transform="translate(308.633438 16.318125)scale(0.12 -0.12)">
     <defs>
      <path d="M 44.28125 53.078125 
L 44.28125 44.578125 
Q 40.484375 46.53125 36.375 47.5 
Q 32.28125 48.484375 27.875 48.484375 
Q 21.1875 48.484375 17.84375 46.4375 
Q 14.5 44.390625 14.5 40.28125 
Q 14.5 37.15625 16.890625 35.375 
Q 19.28125 33.59375 26.515625 31.984375 
L 29.59375 31.296875 
Q 39.15625 29.25 43.1875 25.515625 
Q 47.21875 21.78125 47.21875 15.09375 
Q 47.21875 7.46875 41.1875 3.015625 
Q 35.15625 -1.421875 24.609375 -1.421875 
Q 20.21875 -1.421875 15.453125 -0.5625 
Q 10.6875 0.296875 5.421875 2 
L 5.421875 11.28125 
Q 10.40625 8.6875 15.234375 7.390625 
Q 20.0625 6.109375 24.8125 6.109375 
Q 31.15625 6.109375 34.5625 8.28125 
Q 37.984375 10.453125 37.984375 14.40625 
Q 37.984375 18.0625 35.515625 20.015625 
Q 33.0625 21.96875 24.703125 23.78125 
L 21.578125 24.515625 
Q 13.234375 26.265625 9.515625 29.90625 
Q 5.8125 33.546875 5.8125 39.890625 
Q 5.8125 47.609375 11.28125 51.796875 
Q 16.75 56 26.8125 56 
Q 31.78125 56 36.171875 55.265625 
Q 40.578125 54.546875 44.28125 53.078125 
z
" id="DejaVuSans-115"/>
      <path d="M 14.796875 27.296875 
Q 14.796875 17.390625 18.875 11.75 
Q 22.953125 6.109375 30.078125 6.109375 
Q 37.203125 6.109375 41.296875 11.75 
Q 45.40625 17.390625 45.40625 27.296875 
Q 45.40625 37.203125 41.296875 42.84375 
Q 37.203125 48.484375 30.078125 48.484375 
Q 22.953125 48.484375 18.875 42.84375 
Q 14.796875 37.203125 14.796875 27.296875 
z
M 45.40625 8.203125 
Q 42.578125 3.328125 38.25 0.953125 
Q 33.9375 -1.421875 27.875 -1.421875 
Q 17.96875 -1.421875 11.734375 6.484375 
Q 5.515625 14.40625 5.515625 27.296875 
Q 5.515625 40.1875 11.734375 48.09375 
Q 17.96875 56 27.875 56 
Q 33.9375 56 38.25 53.625 
Q 42.578125 51.265625 45.40625 46.390625 
L 45.40625 54.6875 
L 54.390625 54.6875 
L 54.390625 -20.796875 
L 45.40625 -20.796875 
z
" id="DejaVuSans-113"/>
      <path d="M 9.421875 75.984375 
L 18.40625 75.984375 
L 18.40625 0 
L 9.421875 0 
z
" id="DejaVuSans-108"/>
      <path d="M 40.578125 39.3125 
Q 47.65625 37.796875 51.625 33 
Q 55.609375 28.21875 55.609375 21.1875 
Q 55.609375 10.40625 48.1875 4.484375 
Q 40.765625 -1.421875 27.09375 -1.421875 
Q 22.515625 -1.421875 17.65625 -0.515625 
Q 12.796875 0.390625 7.625 2.203125 
L 7.625 11.71875 
Q 11.71875 9.328125 16.59375 8.109375 
Q 21.484375 6.890625 26.8125 6.890625 
Q 36.078125 6.890625 40.9375 10.546875 
Q 45.796875 14.203125 45.796875 21.1875 
Q 45.796875 27.640625 41.28125 31.265625 
Q 36.765625 34.90625 28.71875 34.90625 
L 20.21875 34.90625 
L 20.21875 43.015625 
L 29.109375 43.015625 
Q 36.375 43.015625 40.234375 45.921875 
Q 44.09375 48.828125 44.09375 54.296875 
Q 44.09375 59.90625 40.109375 62.90625 
Q 36.140625 65.921875 28.71875 65.921875 
Q 24.65625 65.921875 20.015625 65.03125 
Q 15.375 64.15625 9.8125 62.3125 
L 9.8125 71.09375 
Q 15.4375 72.65625 20.34375 73.4375 
Q 25.25 74.21875 29.59375 74.21875 
Q 40.828125 74.21875 47.359375 69.109375 
Q 53.90625 64.015625 53.90625 55.328125 
Q 53.90625 49.265625 50.4375 45.09375 
Q 46.96875 40.921875 40.578125 39.3125 
z
" id="DejaVuSans-51"/>
      <path d="M 50.984375 -16.609375 
L 50.984375 -23.578125 
L -0.984375 -23.578125 
L -0.984375 -16.609375 
z
" id="DejaVuSans-95"/>
      <path d="M 37.109375 75.984375 
L 37.109375 68.5 
L 28.515625 68.5 
Q 23.6875 68.5 21.796875 66.546875 
Q 19.921875 64.59375 19.921875 59.515625 
L 19.921875 54.6875 
L 34.71875 54.6875 
L 34.71875 47.703125 
L 19.921875 47.703125 
L 19.921875 0 
L 10.890625 0 
L 10.890625 47.703125 
L 2.296875 47.703125 
L 2.296875 54.6875 
L 10.890625 54.6875 
L 10.890625 58.5 
Q 10.890625 67.625 15.140625 71.796875 
Q 19.390625 75.984375 28.609375 75.984375 
z
" id="DejaVuSans-102"/>
      <path d="M 5.515625 54.6875 
L 48.1875 54.6875 
L 48.1875 46.484375 
L 14.40625 7.171875 
L 48.1875 7.171875 
L 48.1875 0 
L 4.296875 0 
L 4.296875 8.203125 
L 38.09375 47.515625 
L 5.515625 47.515625 
z
" id="DejaVuSans-122"/>
      <path d="M 11.71875 12.40625 
L 22.015625 12.40625 
L 22.015625 4 
L 14.015625 -11.625 
L 7.71875 -11.625 
L 11.71875 4 
z
" id="DejaVuSans-44"/>
      <path d="M 25.390625 72.90625 
L 33.6875 72.90625 
L 8.296875 -9.28125 
L 0 -9.28125 
z
" id="DejaVuSans-47"/>
     </defs>
     <use xlink:href="#DejaVuSans-115"/>
     <use x="52.099609" xlink:href="#DejaVuSans-113"/>
     <use x="115.576172" xlink:href="#DejaVuSans-108"/>
     <use x="143.359375" xlink:href="#DejaVuSans-105"/>
     <use x="171.142578" xlink:href="#DejaVuSans-116"/>
     <use x="210.351562" xlink:href="#DejaVuSans-101"/>
     <use x="271.875" xlink:href="#DejaVuSans-51"/>
     <use x="335.498047" xlink:href="#DejaVuSans-95"/>
     <use x="385.498047" xlink:href="#DejaVuSans-111"/>
     <use x="446.679688" xlink:href="#DejaVuSans-115"/>
     <use x="498.779297" xlink:href="#DejaVuSans-115"/>
     <use x="550.878906" xlink:href="#DejaVuSans-102"/>
     <use x="586.083984" xlink:href="#DejaVuSans-117"/>
     <use x="649.462891" xlink:href="#DejaVuSans-122"/>
     <use x="701.953125" xlink:href="#DejaVuSans-122"/>
     <use x="754.443359" xlink:href="#DejaVuSans-32"/>
     <use x="786.230469" xlink:href="#DejaVuSans-40"/>
     <use x="825.244141" xlink:href="#DejaVuSans-50"/>
     <use x="888.867188" xlink:href="#DejaVuSans-52"/>
     <use x="952.490234" xlink:href="#DejaVuSans-104"/>
     <use x="1015.869141" xlink:href="#DejaVuSans-44"/>
     <use x="1047.65625" xlink:href="#DejaVuSans-32"/>
     <use x="1079.443359" xlink:href="#DejaVuSans-51"/>
     <use x="1143.066406" xlink:href="#DejaVuSans-32"/>
     <use x="1174.853516" xlink:href="#DejaVuSans-116"/>
     <use x="1214.0625" xlink:href="#DejaVuSans-114"/>
     <use x="1255.175781" xlink:href="#DejaVuSans-105"/>
     <use x="1282.958984" xlink:href="#DejaVuSans-97"/>
     <use x="1344.238281" xlink:href="#DejaVuSans-108"/>
     <use x="1372.021484" xlink:href="#DejaVuSans-115"/>
     <use x="1424.121094" xlink:href="#DejaVuSans-47"/>
     <use x="1457.8125" xlink:href="#DejaVuSans-102"/>
     <use x="1493.017578" xlink:href="#DejaVuSans-117"/>
     <use x="1556.396484" xlink:href="#DejaVuSans-122"/>
     <use x="1608.886719" xlink:href="#DejaVuSans-122"/>
     <use x="1661.376953" xlink:href="#DejaVuSans-101"/>
     <use x="1722.900391" xlink:href="#DejaVuSans-114"/>
     <use x="1764.013672" xlink:href="#DejaVuSans-41"/>
    </g>
   </g>
   <g id="legend_1">
    <g id="line2d_28">
     <path d="M 777.930625 30.416562 
L 797.930625 30.416562 
" style="fill:none;"/>
    </g>
    <g id="line2d_29"/>
    <g id="text_23">
     <!-- fuzzer -->
     <g transform="translate(805.930625 33.916562)scale(0.1 -0.1)">
      <use xlink:href="#DejaVuSans-102"/>
      <use x="35.205078" xlink:href="#DejaVuSans-117"/>
      <use x="98.583984" xlink:href="#DejaVuSans-122"/>
      <use x="151.074219" xlink:href="#DejaVuSans-122"/>
      <use x="203.564453" xlink:href="#DejaVuSans-101"/>
      <use x="265.087891" xlink:href="#DejaVuSans-114"/>
     </g>
    </g>
    <g id="line2d_30">
     <path d="M 777.930625 45.094688 
L 797.930625 45.094688 
" style="fill:none;stroke:#ff7f0e;stroke-linecap:square;stroke-width:1.5;"/>
    </g>
    <g id="line2d_31"/>
    <g id="text_24">
     <!-- dark_w_prob_energy -->
     <g transform="translate(805.930625 48.594688)scale(0.1 -0.1)">
      <defs>
       <path d="M 9.078125 75.984375 
L 18.109375 75.984375 
L 18.109375 31.109375 
L 44.921875 54.6875 
L 56.390625 54.6875 
L 27.390625 29.109375 
L 57.625 0 
L 45.90625 0 
L 18.109375 26.703125 
L 18.109375 0 
L 9.078125 0 
z
" id="DejaVuSans-107"/>
       <path d="M 4.203125 54.6875 
L 13.1875 54.6875 
L 24.421875 12.015625 
L 35.59375 54.6875 
L 46.1875 54.6875 
L 57.421875 12.015625 
L 68.609375 54.6875 
L 77.59375 54.6875 
L 63.28125 0 
L 52.6875 0 
L 40.921875 44.828125 
L 29.109375 0 
L 18.5 0 
z
" id="DejaVuSans-119"/>
       <path d="M 18.109375 8.203125 
L 18.109375 -20.796875 
L 9.078125 -20.796875 
L 9.078125 54.6875 
L 18.109375 54.6875 
L 18.109375 46.390625 
Q 20.953125 51.265625 25.265625 53.625 
Q 29.59375 56 35.59375 56 
Q 45.5625 56 51.78125 48.09375 
Q 58.015625 40.1875 58.015625 27.296875 
Q 58.015625 14.40625 51.78125 6.484375 
Q 45.5625 -1.421875 35.59375 -1.421875 
Q 29.59375 -1.421875 25.265625 0.953125 
Q 20.953125 3.328125 18.109375 8.203125 
z
M 48.6875 27.296875 
Q 48.6875 37.203125 44.609375 42.84375 
Q 40.53125 48.484375 33.40625 48.484375 
Q 26.265625 48.484375 22.1875 42.84375 
Q 18.109375 37.203125 18.109375 27.296875 
Q 18.109375 17.390625 22.1875 11.75 
Q 26.265625 6.109375 33.40625 6.109375 
Q 40.53125 6.109375 44.609375 11.75 
Q 48.6875 17.390625 48.6875 27.296875 
z
" id="DejaVuSans-112"/>
       <path d="M 48.6875 27.296875 
Q 48.6875 37.203125 44.609375 42.84375 
Q 40.53125 48.484375 33.40625 48.484375 
Q 26.265625 48.484375 22.1875 42.84375 
Q 18.109375 37.203125 18.109375 27.296875 
Q 18.109375 17.390625 22.1875 11.75 
Q 26.265625 6.109375 33.40625 6.109375 
Q 40.53125 6.109375 44.609375 11.75 
Q 48.6875 17.390625 48.6875 27.296875 
z
M 18.109375 46.390625 
Q 20.953125 51.265625 25.265625 53.625 
Q 29.59375 56 35.59375 56 
Q 45.5625 56 51.78125 48.09375 
Q 58.015625 40.1875 58.015625 27.296875 
Q 58.015625 14.40625 51.78125 6.484375 
Q 45.5625 -1.421875 35.59375 -1.421875 
Q 29.59375 -1.421875 25.265625 0.953125 
Q 20.953125 3.328125 18.109375 8.203125 
L 18.109375 0 
L 9.078125 0 
L 9.078125 75.984375 
L 18.109375 75.984375 
z
" id="DejaVuSans-98"/>
       <path d="M 32.171875 -5.078125 
Q 28.375 -14.84375 24.75 -17.8125 
Q 21.140625 -20.796875 15.09375 -20.796875 
L 7.90625 -20.796875 
L 7.90625 -13.28125 
L 13.1875 -13.28125 
Q 16.890625 -13.28125 18.9375 -11.515625 
Q 21 -9.765625 23.484375 -3.21875 
L 25.09375 0.875 
L 2.984375 54.6875 
L 12.5 54.6875 
L 29.59375 11.921875 
L 46.6875 54.6875 
L 56.203125 54.6875 
z
" id="DejaVuSans-121"/>
      </defs>
      <use xlink:href="#DejaVuSans-100"/>
      <use x="63.476562" xlink:href="#DejaVuSans-97"/>
      <use x="124.755859" xlink:href="#DejaVuSans-114"/>
      <use x="165.869141" xlink:href="#DejaVuSans-107"/>
      <use x="223.779297" xlink:href="#DejaVuSans-95"/>
      <use x="273.779297" xlink:href="#DejaVuSans-119"/>
      <use x="355.566406" xlink:href="#DejaVuSans-95"/>
      <use x="405.566406" xlink:href="#DejaVuSans-112"/>
      <use x="469.042969" xlink:href="#DejaVuSans-114"/>
      <use x="507.90625" xlink:href="#DejaVuSans-111"/>
      <use x="569.087891" xlink:href="#DejaVuSans-98"/>
      <use x="632.564453" xlink:href="#DejaVuSans-95"/>
      <use x="682.564453" xlink:href="#DejaVuSans-101"/>
      <use x="744.087891" xlink:href="#DejaVuSans-110"/>
      <use x="807.466797" xlink:href="#DejaVuSans-101"/>
      <use x="868.990234" xlink:href="#DejaVuSans-114"/>
      <use x="908.353516" xlink:href="#DejaVuSans-103"/>
      <use x="971.830078" xlink:href="#DejaVuSans-121"/>
     </g>
    </g>
    <g id="line2d_32">
     <path d="M 777.930625 60.050937 
L 797.930625 60.050937 
" style="fill:none;stroke:#aec7e8;stroke-linecap:square;stroke-width:1.5;"/>
    </g>
    <g id="line2d_33"/>
    <g id="text_25">
     <!-- dark_w_prob -->
     <g transform="translate(805.930625 63.550937)scale(0.1 -0.1)">
      <use xlink:href="#DejaVuSans-100"/>
      <use x="63.476562" xlink:href="#DejaVuSans-97"/>
      <use x="124.755859" xlink:href="#DejaVuSans-114"/>
      <use x="165.869141" xlink:href="#DejaVuSans-107"/>
      <use x="223.779297" xlink:href="#DejaVuSans-95"/>
      <use x="273.779297" xlink:href="#DejaVuSans-119"/>
      <use x="355.566406" xlink:href="#DejaVuSans-95"/>
      <use x="405.566406" xlink:href="#DejaVuSans-112"/>
      <use x="469.042969" xlink:href="#DejaVuSans-114"/>
      <use x="507.90625" xlink:href="#DejaVuSans-111"/>
      <use x="569.087891" xlink:href="#DejaVuSans-98"/>
     </g>
    </g>
    <g id="line2d_34">
     <path d="M 777.930625 75.007187 
L 797.930625 75.007187 
" style="fill:none;stroke:#1f77b4;stroke-linecap:square;stroke-width:1.5;"/>
    </g>
    <g id="line2d_35"/>
    <g id="text_26">
     <!-- dark -->
     <g transform="translate(805.930625 78.507187)scale(0.1 -0.1)">
      <use xlink:href="#DejaVuSans-100"/>
      <use x="63.476562" xlink:href="#DejaVuSans-97"/>
      <use x="124.755859" xlink:href="#DejaVuSans-114"/>
      <use x="165.869141" xlink:href="#DejaVuSans-107"/>
     </g>
    </g>
   </g>
  </g>
 </g>
 <defs>
  <clipPath id="p6efdac7317">
   <rect height="266.112" width="714.24" x="59.690625" y="22.318125"/>
  </clipPath>
 </defs>
</svg>
