<?xml version="1.0" encoding="utf-8" standalone="no"?>
<!DOCTYPE svg PUBLIC "-//W3C//DTD SVG 1.1//EN"
  "http://www.w3.org/Graphics/SVG/1.1/DTD/svg11.dtd">
<svg height="325.986375pt" version="1.1" viewBox="0 0 864.541562 325.986375" width="864.541562pt" xmlns="http://www.w3.org/2000/svg" xmlns:xlink="http://www.w3.org/1999/xlink">
 <metadata>
  <rdf:RDF xmlns:cc="http://creativecommons.org/ns#" xmlns:dc="http://purl.org/dc/elements/1.1/" xmlns:rdf="http://www.w3.org/1999/02/22-rdf-syntax-ns#">
   <cc:Work>
    <dc:type rdf:resource="http://purl.org/dc/dcmitype/StillImage"/>
    <dc:date>2022-09-12T21:19:14.198612</dc:date>
    <dc:format>image/svg+xml</dc:format>
    <dc:creator>
     <cc:Agent>
      <dc:title>Matplotlib v3.4.1, https://matplotlib.org/</dc:title>
     </cc:Agent>
    </dc:creator>
   </cc:Work>
  </rdf:RDF>
 </metadata>
 <defs>
  <style type="text/css">*{stroke-linecap:butt;stroke-linejoin:round;}</style>
 </defs>
 <g id="figure_1">
  <g id="patch_1">
   <path d="M 0 325.986375 
L 864.541562 325.986375 
L 864.541562 0 
L 0 0 
z
" style="fill:#ffffff;"/>
  </g>
  <g id="axes_1">
   <g id="patch_2">
    <path d="M 53.328125 288.430125 
L 767.568125 288.430125 
L 767.568125 22.318125 
L 53.328125 22.318125 
z
" style="fill:#ffffff;"/>
   </g>
   <g id="PolyCollection_1">
    <defs>
     <path d="M 85.79358 -172.907156 
L 85.79358 -56.278461 
L 251.989452 -62.179798 
L 349.207805 -68.391343 
L 418.185324 -69.952934 
L 471.688445 -72.611859 
L 515.403677 -73.287142 
L 552.36438 -75.3974 
L 584.381197 -78.139681 
L 612.622031 -78.309556 
L 637.884317 -80.46202 
L 660.736835 -81.80942 
L 681.59955 -83.072409 
L 700.791387 -83.575706 
L 718.560252 -83.838433 
L 735.10267 -85.223817 
L 735.10267 -291.57225 
L 735.10267 -291.57225 
L 718.560252 -290.489688 
L 700.791387 -288.786709 
L 681.59955 -284.566193 
L 660.736835 -281.611831 
L 637.884317 -275.297939 
L 612.622031 -272.242285 
L 584.381197 -270.807309 
L 552.36438 -265.8271 
L 515.403677 -264.645355 
L 471.688445 -254.731362 
L 418.185324 -245.14657 
L 349.207805 -235.324373 
L 251.989452 -222.248158 
L 85.79358 -172.907156 
z
" id="mb818f823f8" style="stroke:#ff7f0e;stroke-opacity:0.2;"/>
    </defs>
    <g clip-path="url(#p835a316522)">
     <use style="fill:#ff7f0e;fill-opacity:0.2;stroke:#ff7f0e;stroke-opacity:0.2;" x="0" xlink:href="#mb818f823f8" y="325.986375"/>
    </g>
   </g>
   <g id="PolyCollection_2">
    <defs>
     <path d="M 85.79358 -206.510907 
L 85.79358 -49.65225 
L 251.989452 -59.438572 
L 349.207805 -62.39821 
L 418.185324 -63.579954 
L 471.688445 -64.086416 
L 515.403677 -65.521392 
L 552.36438 -66.703136 
L 584.381197 -69.488677 
L 612.622031 -72.189808 
L 637.884317 -72.69627 
L 660.736835 -75.31299 
L 681.59955 -76.832376 
L 700.791387 -78.604992 
L 718.560252 -80.46202 
L 735.10267 -82.656688 
L 735.10267 -267.690458 
L 735.10267 -267.690458 
L 718.560252 -266.506603 
L 700.791387 -266.333562 
L 681.59955 -264.231745 
L 660.736835 -261.859815 
L 637.884317 -263.463611 
L 612.622031 -257.132836 
L 584.381197 -254.347295 
L 552.36438 -252.237037 
L 515.403677 -248.702355 
L 471.688445 -244.724518 
L 418.185324 -232.760409 
L 349.207805 -228.095683 
L 251.989452 -215.349724 
L 85.79358 -206.510907 
z
" id="m3f45e4f955" style="stroke:#d62728;stroke-opacity:0.2;"/>
    </defs>
    <g clip-path="url(#p835a316522)">
     <use style="fill:#d62728;fill-opacity:0.2;stroke:#d62728;stroke-opacity:0.2;" x="0" xlink:href="#m3f45e4f955" y="325.986375"/>
    </g>
   </g>
   <g id="PolyCollection_3">
    <defs>
     <path d="M 85.79358 -188.338419 
L 85.79358 -58.599745 
L 251.989452 -65.09934 
L 349.207805 -73.455962 
L 418.185324 -75.566221 
L 471.688445 -78.393967 
L 515.403677 -78.689403 
L 552.36438 -82.614483 
L 584.381197 -81.981406 
L 612.622031 -85.948691 
L 637.884317 -88.438796 
L 660.736835 -88.269975 
L 681.59955 -88.860847 
L 700.791387 -88.987463 
L 718.560252 -90.169207 
L 735.10267 -89.958182 
L 735.10267 -255.866681 
L 735.10267 -255.866681 
L 718.560252 -248.776214 
L 700.791387 -249.188769 
L 681.59955 -241.158182 
L 660.736835 -238.478154 
L 637.884317 -235.976443 
L 612.622031 -233.582355 
L 584.381197 -229.994916 
L 552.36438 -231.191432 
L 515.403677 -226.069835 
L 471.688445 -221.638293 
L 418.185324 -217.887309 
L 349.207805 -213.408286 
L 251.989452 -209.652027 
L 85.79358 -188.338419 
z
" id="m6bd03691c4" style="stroke:#c7c7c7;stroke-opacity:0.2;"/>
    </defs>
    <g clip-path="url(#p835a316522)">
     <use style="fill:#c7c7c7;fill-opacity:0.2;stroke:#c7c7c7;stroke-opacity:0.2;" x="0" xlink:href="#m6bd03691c4" y="325.986375"/>
    </g>
   </g>
   <g id="PolyCollection_4">
    <defs>
     <path d="M 85.79358 -175.84569 
L 85.79358 -55.729794 
L 251.989452 -61.722927 
L 349.207805 -70.079549 
L 418.185324 -71.176884 
L 471.688445 -73.962424 
L 515.403677 -77.838969 
L 552.36438 -79.280275 
L 584.381197 -78.858223 
L 612.622031 -79.786737 
L 637.884317 -80.46202 
L 660.736835 -81.474944 
L 681.59955 -81.390533 
L 700.791387 -81.390533 
L 718.560252 -81.431683 
L 735.10267 -81.601559 
L 735.10267 -262.281866 
L 735.10267 -262.281866 
L 718.560252 -261.142327 
L 700.791387 -258.537213 
L 681.59955 -255.318014 
L 660.736835 -256.795195 
L 637.884317 -247.245221 
L 612.622031 -237.591845 
L 584.381197 -234.173227 
L 552.36438 -224.128398 
L 515.403677 -223.790757 
L 471.688445 -218.894958 
L 418.185324 -216.21704 
L 349.207805 -210.031873 
L 251.989452 -184.624364 
L 85.79358 -175.84569 
z
" id="m4c8bad5902" style="stroke:#ff9896;stroke-opacity:0.2;"/>
    </defs>
    <g clip-path="url(#p835a316522)">
     <use style="fill:#ff9896;fill-opacity:0.2;stroke:#ff9896;stroke-opacity:0.2;" x="0" xlink:href="#m4c8bad5902" y="325.986375"/>
    </g>
   </g>
   <g id="PolyCollection_5">
    <defs>
     <path d="M 85.79358 -212.483993 
L 85.79358 -50.580764 
L 251.989452 -53.155279 
L 349.207805 -54.548049 
L 418.185324 -57.375795 
L 471.688445 -58.515334 
L 515.403677 -59.359438 
L 552.36438 -60.538017 
L 584.381197 -61.300875 
L 612.622031 -61.469696 
L 637.884317 -65.26605 
L 660.736835 -65.352571 
L 681.59955 -65.436981 
L 700.791387 -68.343862 
L 718.560252 -66.871957 
L 735.10267 -68.567549 
L 735.10267 -260.551454 
L 735.10267 -260.551454 
L 718.560252 -256.126243 
L 700.791387 -255.361274 
L 681.59955 -254.180585 
L 660.736835 -252.194832 
L 637.884317 -251.487895 
L 612.622031 -249.957958 
L 584.381197 -249.831343 
L 552.36438 -247.256828 
L 515.403677 -243.711594 
L 471.688445 -233.891508 
L 418.185324 -227.504811 
L 349.207805 -219.48583 
L 251.989452 -216.71084 
L 85.79358 -212.483993 
z
" id="m06d4f478dc" style="stroke:#1f77b4;stroke-opacity:0.2;"/>
    </defs>
    <g clip-path="url(#p835a316522)">
     <use style="fill:#1f77b4;fill-opacity:0.2;stroke:#1f77b4;stroke-opacity:0.2;" x="0" xlink:href="#m06d4f478dc" y="325.986375"/>
    </g>
   </g>
   <g id="PolyCollection_6">
    <defs>
     <path d="M 85.79358 -217.966444 
L 85.79358 -49.905481 
L 251.989452 -49.81896 
L 349.207805 -49.862221 
L 418.185324 -49.989891 
L 471.688445 -50.411943 
L 515.403677 -50.411943 
L 552.36438 -50.411943 
L 584.381197 -51.340457 
L 612.622031 -50.285327 
L 637.884317 -51.256046 
L 660.736835 -51.129431 
L 681.59955 -51.213841 
L 700.791387 -51.424867 
L 718.560252 -51.931329 
L 735.10267 -51.593688 
L 735.10267 -220.379524 
L 735.10267 -220.379524 
L 718.560252 -221.553883 
L 700.791387 -220.667574 
L 681.59955 -219.48583 
L 660.736835 -217.511683 
L 637.884317 -219.48583 
L 612.622031 -219.48583 
L 584.381197 -217.291161 
L 552.36438 -218.810547 
L 515.403677 -217.208861 
L 471.688445 -218.050854 
L 418.185324 -218.050854 
L 349.207805 -218.050854 
L 251.989452 -218.050854 
L 85.79358 -217.966444 
z
" id="m8ecd91dffd" style="stroke:#98df8a;stroke-opacity:0.2;"/>
    </defs>
    <g clip-path="url(#p835a316522)">
     <use style="fill:#98df8a;fill-opacity:0.2;stroke:#98df8a;stroke-opacity:0.2;" x="0" xlink:href="#m8ecd91dffd" y="325.986375"/>
    </g>
   </g>
   <g id="matplotlib.axis_1">
    <g id="xtick_1">
     <g id="line2d_1">
      <defs>
       <path d="M 0 0 
L 0 3.5 
" id="m27d97ddf4a" style="stroke:#000000;stroke-width:0.8;"/>
      </defs>
      <g>
       <use style="stroke:#000000;stroke-width:0.8;" x="735.10267" xlink:href="#m27d97ddf4a" y="288.430125"/>
      </g>
     </g>
     <g id="text_1">
      <!-- 14m -->
      <g transform="translate(723.869858 303.028562)scale(0.1 -0.1)">
       <defs>
        <path d="M 794 531 
L 1825 531 
L 1825 4091 
L 703 3866 
L 703 4441 
L 1819 4666 
L 2450 4666 
L 2450 531 
L 3481 531 
L 3481 0 
L 794 0 
L 794 531 
z
" id="DejaVuSans-31" transform="scale(0.015625)"/>
        <path d="M 2419 4116 
L 825 1625 
L 2419 1625 
L 2419 4116 
z
M 2253 4666 
L 3047 4666 
L 3047 1625 
L 3713 1625 
L 3713 1100 
L 3047 1100 
L 3047 0 
L 2419 0 
L 2419 1100 
L 313 1100 
L 313 1709 
L 2253 4666 
z
" id="DejaVuSans-34" transform="scale(0.015625)"/>
        <path d="M 3328 2828 
Q 3544 3216 3844 3400 
Q 4144 3584 4550 3584 
Q 5097 3584 5394 3201 
Q 5691 2819 5691 2113 
L 5691 0 
L 5113 0 
L 5113 2094 
Q 5113 2597 4934 2840 
Q 4756 3084 4391 3084 
Q 3944 3084 3684 2787 
Q 3425 2491 3425 1978 
L 3425 0 
L 2847 0 
L 2847 2094 
Q 2847 2600 2669 2842 
Q 2491 3084 2119 3084 
Q 1678 3084 1418 2786 
Q 1159 2488 1159 1978 
L 1159 0 
L 581 0 
L 581 3500 
L 1159 3500 
L 1159 2956 
Q 1356 3278 1631 3431 
Q 1906 3584 2284 3584 
Q 2666 3584 2933 3390 
Q 3200 3197 3328 2828 
z
" id="DejaVuSans-6d" transform="scale(0.015625)"/>
       </defs>
       <use xlink:href="#DejaVuSans-31"/>
       <use x="63.623047" xlink:href="#DejaVuSans-34"/>
       <use x="127.246094" xlink:href="#DejaVuSans-6d"/>
      </g>
     </g>
    </g>
    <g id="xtick_2">
     <g id="line2d_2">
      <g>
       <use style="stroke:#000000;stroke-width:0.8;" x="735.126876" xlink:href="#m27d97ddf4a" y="288.430125"/>
      </g>
     </g>
     <g id="text_2">
      <!-- 15m -->
      <g transform="translate(723.894064 303.028562)scale(0.1 -0.1)">
       <defs>
        <path d="M 691 4666 
L 3169 4666 
L 3169 4134 
L 1269 4134 
L 1269 2991 
Q 1406 3038 1543 3061 
Q 1681 3084 1819 3084 
Q 2600 3084 3056 2656 
Q 3513 2228 3513 1497 
Q 3513 744 3044 326 
Q 2575 -91 1722 -91 
Q 1428 -91 1123 -41 
Q 819 9 494 109 
L 494 744 
Q 775 591 1075 516 
Q 1375 441 1709 441 
Q 2250 441 2565 725 
Q 2881 1009 2881 1497 
Q 2881 1984 2565 2268 
Q 2250 2553 1709 2553 
Q 1456 2553 1204 2497 
Q 953 2441 691 2322 
L 691 4666 
z
" id="DejaVuSans-35" transform="scale(0.015625)"/>
       </defs>
       <use xlink:href="#DejaVuSans-31"/>
       <use x="63.623047" xlink:href="#DejaVuSans-35"/>
       <use x="127.246094" xlink:href="#DejaVuSans-6d"/>
      </g>
     </g>
    </g>
    <g id="xtick_3">
     <g id="line2d_3">
      <g>
       <use style="stroke:#000000;stroke-width:0.8;" x="735.151082" xlink:href="#m27d97ddf4a" y="288.430125"/>
      </g>
     </g>
     <g id="text_3">
      <!-- 15m -->
      <g transform="translate(723.918269 303.028562)scale(0.1 -0.1)">
       <use xlink:href="#DejaVuSans-31"/>
       <use x="63.623047" xlink:href="#DejaVuSans-35"/>
       <use x="127.246094" xlink:href="#DejaVuSans-6d"/>
      </g>
     </g>
    </g>
    <g id="xtick_4">
     <g id="line2d_4">
      <g>
       <use style="stroke:#000000;stroke-width:0.8;" x="735.175288" xlink:href="#m27d97ddf4a" y="288.430125"/>
      </g>
     </g>
     <g id="text_4">
      <!-- 15m -->
      <g transform="translate(723.942475 303.028562)scale(0.1 -0.1)">
       <use xlink:href="#DejaVuSans-31"/>
       <use x="63.623047" xlink:href="#DejaVuSans-35"/>
       <use x="127.246094" xlink:href="#DejaVuSans-6d"/>
      </g>
     </g>
    </g>
    <g id="xtick_5">
     <g id="line2d_5">
      <g>
       <use style="stroke:#000000;stroke-width:0.8;" x="735.199493" xlink:href="#m27d97ddf4a" y="288.430125"/>
      </g>
     </g>
     <g id="text_5">
      <!-- 15m -->
      <g transform="translate(723.966681 303.028562)scale(0.1 -0.1)">
       <use xlink:href="#DejaVuSans-31"/>
       <use x="63.623047" xlink:href="#DejaVuSans-35"/>
       <use x="127.246094" xlink:href="#DejaVuSans-6d"/>
      </g>
     </g>
    </g>
    <g id="xtick_6">
     <g id="line2d_6">
      <g>
       <use style="stroke:#000000;stroke-width:0.8;" x="735.223699" xlink:href="#m27d97ddf4a" y="288.430125"/>
      </g>
     </g>
     <g id="text_6">
      <!-- 15m -->
      <g transform="translate(723.990887 303.028562)scale(0.1 -0.1)">
       <use xlink:href="#DejaVuSans-31"/>
       <use x="63.623047" xlink:href="#DejaVuSans-35"/>
       <use x="127.246094" xlink:href="#DejaVuSans-6d"/>
      </g>
     </g>
    </g>
    <g id="xtick_7">
     <g id="line2d_7">
      <g>
       <use style="stroke:#000000;stroke-width:0.8;" x="735.247905" xlink:href="#m27d97ddf4a" y="288.430125"/>
      </g>
     </g>
     <g id="text_7">
      <!-- 15m -->
      <g transform="translate(724.015092 303.028562)scale(0.1 -0.1)">
       <use xlink:href="#DejaVuSans-31"/>
       <use x="63.623047" xlink:href="#DejaVuSans-35"/>
       <use x="127.246094" xlink:href="#DejaVuSans-6d"/>
      </g>
     </g>
    </g>
    <g id="xtick_8">
     <g id="line2d_8">
      <g>
       <use style="stroke:#000000;stroke-width:0.8;" x="735.272111" xlink:href="#m27d97ddf4a" y="288.430125"/>
      </g>
     </g>
     <g id="text_8">
      <!-- 15m -->
      <g transform="translate(724.039298 303.028562)scale(0.1 -0.1)">
       <use xlink:href="#DejaVuSans-31"/>
       <use x="63.623047" xlink:href="#DejaVuSans-35"/>
       <use x="127.246094" xlink:href="#DejaVuSans-6d"/>
      </g>
     </g>
    </g>
    <g id="xtick_9">
     <g id="line2d_9">
      <g>
       <use style="stroke:#000000;stroke-width:0.8;" x="735.296316" xlink:href="#m27d97ddf4a" y="288.430125"/>
      </g>
     </g>
     <g id="text_9">
      <!-- 15m -->
      <g transform="translate(724.063504 303.028562)scale(0.1 -0.1)">
       <use xlink:href="#DejaVuSans-31"/>
       <use x="63.623047" xlink:href="#DejaVuSans-35"/>
       <use x="127.246094" xlink:href="#DejaVuSans-6d"/>
      </g>
     </g>
    </g>
    <g id="xtick_10">
     <g id="line2d_10">
      <g>
       <use style="stroke:#000000;stroke-width:0.8;" x="735.320522" xlink:href="#m27d97ddf4a" y="288.430125"/>
      </g>
     </g>
     <g id="text_10">
      <!-- 15m -->
      <g transform="translate(724.08771 303.028562)scale(0.1 -0.1)">
       <use xlink:href="#DejaVuSans-31"/>
       <use x="63.623047" xlink:href="#DejaVuSans-35"/>
       <use x="127.246094" xlink:href="#DejaVuSans-6d"/>
      </g>
     </g>
    </g>
    <g id="xtick_11">
     <g id="line2d_11">
      <g>
       <use style="stroke:#000000;stroke-width:0.8;" x="735.344728" xlink:href="#m27d97ddf4a" y="288.430125"/>
      </g>
     </g>
     <g id="text_11">
      <!-- 15m -->
      <g transform="translate(724.111915 303.028562)scale(0.1 -0.1)">
       <use xlink:href="#DejaVuSans-31"/>
       <use x="63.623047" xlink:href="#DejaVuSans-35"/>
       <use x="127.246094" xlink:href="#DejaVuSans-6d"/>
      </g>
     </g>
    </g>
    <g id="xtick_12">
     <g id="line2d_12">
      <g>
       <use style="stroke:#000000;stroke-width:0.8;" x="735.368934" xlink:href="#m27d97ddf4a" y="288.430125"/>
      </g>
     </g>
     <g id="text_12">
      <!-- 15m -->
      <g transform="translate(724.136121 303.028562)scale(0.1 -0.1)">
       <use xlink:href="#DejaVuSans-31"/>
       <use x="63.623047" xlink:href="#DejaVuSans-35"/>
       <use x="127.246094" xlink:href="#DejaVuSans-6d"/>
      </g>
     </g>
    </g>
    <g id="xtick_13">
     <g id="line2d_13">
      <defs>
       <path d="M 0 0 
L 0 2 
" id="md9af999084" style="stroke:#000000;stroke-width:0.6;"/>
      </defs>
      <g>
       <use style="stroke:#000000;stroke-width:0.6;" x="85.79358" xlink:href="#md9af999084" y="288.430125"/>
      </g>
     </g>
    </g>
    <g id="xtick_14">
     <g id="line2d_14">
      <g>
       <use style="stroke:#000000;stroke-width:0.6;" x="122.754282" xlink:href="#md9af999084" y="288.430125"/>
      </g>
     </g>
    </g>
    <g id="xtick_15">
     <g id="line2d_15">
      <g>
       <use style="stroke:#000000;stroke-width:0.6;" x="154.771099" xlink:href="#md9af999084" y="288.430125"/>
      </g>
     </g>
    </g>
    <g id="xtick_16">
     <g id="line2d_16">
      <g>
       <use style="stroke:#000000;stroke-width:0.6;" x="183.011933" xlink:href="#md9af999084" y="288.430125"/>
      </g>
     </g>
    </g>
    <g id="xtick_17">
     <g id="line2d_17">
      <g>
       <use style="stroke:#000000;stroke-width:0.6;" x="374.470092" xlink:href="#md9af999084" y="288.430125"/>
      </g>
     </g>
    </g>
    <g id="xtick_18">
     <g id="line2d_18">
      <g>
       <use style="stroke:#000000;stroke-width:0.6;" x="471.688445" xlink:href="#md9af999084" y="288.430125"/>
      </g>
     </g>
    </g>
    <g id="xtick_19">
     <g id="line2d_19">
      <g>
       <use style="stroke:#000000;stroke-width:0.6;" x="540.665964" xlink:href="#md9af999084" y="288.430125"/>
      </g>
     </g>
    </g>
    <g id="xtick_20">
     <g id="line2d_20">
      <g>
       <use style="stroke:#000000;stroke-width:0.6;" x="594.169085" xlink:href="#md9af999084" y="288.430125"/>
      </g>
     </g>
    </g>
    <g id="xtick_21">
     <g id="line2d_21">
      <g>
       <use style="stroke:#000000;stroke-width:0.6;" x="637.884317" xlink:href="#md9af999084" y="288.430125"/>
      </g>
     </g>
    </g>
    <g id="xtick_22">
     <g id="line2d_22">
      <g>
       <use style="stroke:#000000;stroke-width:0.6;" x="674.84502" xlink:href="#md9af999084" y="288.430125"/>
      </g>
     </g>
    </g>
    <g id="xtick_23">
     <g id="line2d_23">
      <g>
       <use style="stroke:#000000;stroke-width:0.6;" x="706.861837" xlink:href="#md9af999084" y="288.430125"/>
      </g>
     </g>
    </g>
    <g id="text_13">
     <!-- Time (hour:minute) -->
     <g transform="translate(362.041094 316.706687)scale(0.1 -0.1)">
      <defs>
       <path d="M -19 4666 
L 3928 4666 
L 3928 4134 
L 2272 4134 
L 2272 0 
L 1638 0 
L 1638 4134 
L -19 4134 
L -19 4666 
z
" id="DejaVuSans-54" transform="scale(0.015625)"/>
       <path d="M 603 3500 
L 1178 3500 
L 1178 0 
L 603 0 
L 603 3500 
z
M 603 4863 
L 1178 4863 
L 1178 4134 
L 603 4134 
L 603 4863 
z
" id="DejaVuSans-69" transform="scale(0.015625)"/>
       <path d="M 3597 1894 
L 3597 1613 
L 953 1613 
Q 991 1019 1311 708 
Q 1631 397 2203 397 
Q 2534 397 2845 478 
Q 3156 559 3463 722 
L 3463 178 
Q 3153 47 2828 -22 
Q 2503 -91 2169 -91 
Q 1331 -91 842 396 
Q 353 884 353 1716 
Q 353 2575 817 3079 
Q 1281 3584 2069 3584 
Q 2775 3584 3186 3129 
Q 3597 2675 3597 1894 
z
M 3022 2063 
Q 3016 2534 2758 2815 
Q 2500 3097 2075 3097 
Q 1594 3097 1305 2825 
Q 1016 2553 972 2059 
L 3022 2063 
z
" id="DejaVuSans-65" transform="scale(0.015625)"/>
       <path id="DejaVuSans-20" transform="scale(0.015625)"/>
       <path d="M 1984 4856 
Q 1566 4138 1362 3434 
Q 1159 2731 1159 2009 
Q 1159 1288 1364 580 
Q 1569 -128 1984 -844 
L 1484 -844 
Q 1016 -109 783 600 
Q 550 1309 550 2009 
Q 550 2706 781 3412 
Q 1013 4119 1484 4856 
L 1984 4856 
z
" id="DejaVuSans-28" transform="scale(0.015625)"/>
       <path d="M 3513 2113 
L 3513 0 
L 2938 0 
L 2938 2094 
Q 2938 2591 2744 2837 
Q 2550 3084 2163 3084 
Q 1697 3084 1428 2787 
Q 1159 2491 1159 1978 
L 1159 0 
L 581 0 
L 581 4863 
L 1159 4863 
L 1159 2956 
Q 1366 3272 1645 3428 
Q 1925 3584 2291 3584 
Q 2894 3584 3203 3211 
Q 3513 2838 3513 2113 
z
" id="DejaVuSans-68" transform="scale(0.015625)"/>
       <path d="M 1959 3097 
Q 1497 3097 1228 2736 
Q 959 2375 959 1747 
Q 959 1119 1226 758 
Q 1494 397 1959 397 
Q 2419 397 2687 759 
Q 2956 1122 2956 1747 
Q 2956 2369 2687 2733 
Q 2419 3097 1959 3097 
z
M 1959 3584 
Q 2709 3584 3137 3096 
Q 3566 2609 3566 1747 
Q 3566 888 3137 398 
Q 2709 -91 1959 -91 
Q 1206 -91 779 398 
Q 353 888 353 1747 
Q 353 2609 779 3096 
Q 1206 3584 1959 3584 
z
" id="DejaVuSans-6f" transform="scale(0.015625)"/>
       <path d="M 544 1381 
L 544 3500 
L 1119 3500 
L 1119 1403 
Q 1119 906 1312 657 
Q 1506 409 1894 409 
Q 2359 409 2629 706 
Q 2900 1003 2900 1516 
L 2900 3500 
L 3475 3500 
L 3475 0 
L 2900 0 
L 2900 538 
Q 2691 219 2414 64 
Q 2138 -91 1772 -91 
Q 1169 -91 856 284 
Q 544 659 544 1381 
z
M 1991 3584 
L 1991 3584 
z
" id="DejaVuSans-75" transform="scale(0.015625)"/>
       <path d="M 2631 2963 
Q 2534 3019 2420 3045 
Q 2306 3072 2169 3072 
Q 1681 3072 1420 2755 
Q 1159 2438 1159 1844 
L 1159 0 
L 581 0 
L 581 3500 
L 1159 3500 
L 1159 2956 
Q 1341 3275 1631 3429 
Q 1922 3584 2338 3584 
Q 2397 3584 2469 3576 
Q 2541 3569 2628 3553 
L 2631 2963 
z
" id="DejaVuSans-72" transform="scale(0.015625)"/>
       <path d="M 750 794 
L 1409 794 
L 1409 0 
L 750 0 
L 750 794 
z
M 750 3309 
L 1409 3309 
L 1409 2516 
L 750 2516 
L 750 3309 
z
" id="DejaVuSans-3a" transform="scale(0.015625)"/>
       <path d="M 3513 2113 
L 3513 0 
L 2938 0 
L 2938 2094 
Q 2938 2591 2744 2837 
Q 2550 3084 2163 3084 
Q 1697 3084 1428 2787 
Q 1159 2491 1159 1978 
L 1159 0 
L 581 0 
L 581 3500 
L 1159 3500 
L 1159 2956 
Q 1366 3272 1645 3428 
Q 1925 3584 2291 3584 
Q 2894 3584 3203 3211 
Q 3513 2838 3513 2113 
z
" id="DejaVuSans-6e" transform="scale(0.015625)"/>
       <path d="M 1172 4494 
L 1172 3500 
L 2356 3500 
L 2356 3053 
L 1172 3053 
L 1172 1153 
Q 1172 725 1289 603 
Q 1406 481 1766 481 
L 2356 481 
L 2356 0 
L 1766 0 
Q 1100 0 847 248 
Q 594 497 594 1153 
L 594 3053 
L 172 3053 
L 172 3500 
L 594 3500 
L 594 4494 
L 1172 4494 
z
" id="DejaVuSans-74" transform="scale(0.015625)"/>
       <path d="M 513 4856 
L 1013 4856 
Q 1481 4119 1714 3412 
Q 1947 2706 1947 2009 
Q 1947 1309 1714 600 
Q 1481 -109 1013 -844 
L 513 -844 
Q 928 -128 1133 580 
Q 1338 1288 1338 2009 
Q 1338 2731 1133 3434 
Q 928 4138 513 4856 
z
" id="DejaVuSans-29" transform="scale(0.015625)"/>
      </defs>
      <use xlink:href="#DejaVuSans-54"/>
      <use x="57.958984" xlink:href="#DejaVuSans-69"/>
      <use x="85.742188" xlink:href="#DejaVuSans-6d"/>
      <use x="183.154297" xlink:href="#DejaVuSans-65"/>
      <use x="244.677734" xlink:href="#DejaVuSans-20"/>
      <use x="276.464844" xlink:href="#DejaVuSans-28"/>
      <use x="315.478516" xlink:href="#DejaVuSans-68"/>
      <use x="378.857422" xlink:href="#DejaVuSans-6f"/>
      <use x="440.039062" xlink:href="#DejaVuSans-75"/>
      <use x="503.417969" xlink:href="#DejaVuSans-72"/>
      <use x="542.78125" xlink:href="#DejaVuSans-3a"/>
      <use x="576.472656" xlink:href="#DejaVuSans-6d"/>
      <use x="673.884766" xlink:href="#DejaVuSans-69"/>
      <use x="701.667969" xlink:href="#DejaVuSans-6e"/>
      <use x="765.046875" xlink:href="#DejaVuSans-75"/>
      <use x="828.425781" xlink:href="#DejaVuSans-74"/>
      <use x="867.634766" xlink:href="#DejaVuSans-65"/>
      <use x="929.158203" xlink:href="#DejaVuSans-29"/>
     </g>
    </g>
   </g>
   <g id="matplotlib.axis_2">
    <g id="ytick_1">
     <g id="line2d_24">
      <defs>
       <path d="M 0 0 
L -3.5 0 
" id="mb99366b856" style="stroke:#000000;stroke-width:0.8;"/>
      </defs>
      <g>
       <use style="stroke:#000000;stroke-width:0.8;" x="53.328125" xlink:href="#mb99366b856" y="276.418535"/>
      </g>
     </g>
     <g id="text_14">
      <!-- 1500 -->
      <g transform="translate(20.878125 280.217754)scale(0.1 -0.1)">
       <defs>
        <path d="M 2034 4250 
Q 1547 4250 1301 3770 
Q 1056 3291 1056 2328 
Q 1056 1369 1301 889 
Q 1547 409 2034 409 
Q 2525 409 2770 889 
Q 3016 1369 3016 2328 
Q 3016 3291 2770 3770 
Q 2525 4250 2034 4250 
z
M 2034 4750 
Q 2819 4750 3233 4129 
Q 3647 3509 3647 2328 
Q 3647 1150 3233 529 
Q 2819 -91 2034 -91 
Q 1250 -91 836 529 
Q 422 1150 422 2328 
Q 422 3509 836 4129 
Q 1250 4750 2034 4750 
z
" id="DejaVuSans-30" transform="scale(0.015625)"/>
       </defs>
       <use xlink:href="#DejaVuSans-31"/>
       <use x="63.623047" xlink:href="#DejaVuSans-35"/>
       <use x="127.246094" xlink:href="#DejaVuSans-30"/>
       <use x="190.869141" xlink:href="#DejaVuSans-30"/>
      </g>
     </g>
    </g>
    <g id="ytick_2">
     <g id="line2d_25">
      <g>
       <use style="stroke:#000000;stroke-width:0.8;" x="53.328125" xlink:href="#mb99366b856" y="234.213371"/>
      </g>
     </g>
     <g id="text_15">
      <!-- 2000 -->
      <g transform="translate(20.878125 238.01259)scale(0.1 -0.1)">
       <defs>
        <path d="M 1228 531 
L 3431 531 
L 3431 0 
L 469 0 
L 469 531 
Q 828 903 1448 1529 
Q 2069 2156 2228 2338 
Q 2531 2678 2651 2914 
Q 2772 3150 2772 3378 
Q 2772 3750 2511 3984 
Q 2250 4219 1831 4219 
Q 1534 4219 1204 4116 
Q 875 4013 500 3803 
L 500 4441 
Q 881 4594 1212 4672 
Q 1544 4750 1819 4750 
Q 2544 4750 2975 4387 
Q 3406 4025 3406 3419 
Q 3406 3131 3298 2873 
Q 3191 2616 2906 2266 
Q 2828 2175 2409 1742 
Q 1991 1309 1228 531 
z
" id="DejaVuSans-32" transform="scale(0.015625)"/>
       </defs>
       <use xlink:href="#DejaVuSans-32"/>
       <use x="63.623047" xlink:href="#DejaVuSans-30"/>
       <use x="127.246094" xlink:href="#DejaVuSans-30"/>
       <use x="190.869141" xlink:href="#DejaVuSans-30"/>
      </g>
     </g>
    </g>
    <g id="ytick_3">
     <g id="line2d_26">
      <g>
       <use style="stroke:#000000;stroke-width:0.8;" x="53.328125" xlink:href="#mb99366b856" y="192.008207"/>
      </g>
     </g>
     <g id="text_16">
      <!-- 2500 -->
      <g transform="translate(20.878125 195.807426)scale(0.1 -0.1)">
       <use xlink:href="#DejaVuSans-32"/>
       <use x="63.623047" xlink:href="#DejaVuSans-35"/>
       <use x="127.246094" xlink:href="#DejaVuSans-30"/>
       <use x="190.869141" xlink:href="#DejaVuSans-30"/>
      </g>
     </g>
    </g>
    <g id="ytick_4">
     <g id="line2d_27">
      <g>
       <use style="stroke:#000000;stroke-width:0.8;" x="53.328125" xlink:href="#mb99366b856" y="149.803043"/>
      </g>
     </g>
     <g id="text_17">
      <!-- 3000 -->
      <g transform="translate(20.878125 153.602262)scale(0.1 -0.1)">
       <defs>
        <path d="M 2597 2516 
Q 3050 2419 3304 2112 
Q 3559 1806 3559 1356 
Q 3559 666 3084 287 
Q 2609 -91 1734 -91 
Q 1441 -91 1130 -33 
Q 819 25 488 141 
L 488 750 
Q 750 597 1062 519 
Q 1375 441 1716 441 
Q 2309 441 2620 675 
Q 2931 909 2931 1356 
Q 2931 1769 2642 2001 
Q 2353 2234 1838 2234 
L 1294 2234 
L 1294 2753 
L 1863 2753 
Q 2328 2753 2575 2939 
Q 2822 3125 2822 3475 
Q 2822 3834 2567 4026 
Q 2313 4219 1838 4219 
Q 1578 4219 1281 4162 
Q 984 4106 628 3988 
L 628 4550 
Q 988 4650 1302 4700 
Q 1616 4750 1894 4750 
Q 2613 4750 3031 4423 
Q 3450 4097 3450 3541 
Q 3450 3153 3228 2886 
Q 3006 2619 2597 2516 
z
" id="DejaVuSans-33" transform="scale(0.015625)"/>
       </defs>
       <use xlink:href="#DejaVuSans-33"/>
       <use x="63.623047" xlink:href="#DejaVuSans-30"/>
       <use x="127.246094" xlink:href="#DejaVuSans-30"/>
       <use x="190.869141" xlink:href="#DejaVuSans-30"/>
      </g>
     </g>
    </g>
    <g id="ytick_5">
     <g id="line2d_28">
      <g>
       <use style="stroke:#000000;stroke-width:0.8;" x="53.328125" xlink:href="#mb99366b856" y="107.597879"/>
      </g>
     </g>
     <g id="text_18">
      <!-- 3500 -->
      <g transform="translate(20.878125 111.397098)scale(0.1 -0.1)">
       <use xlink:href="#DejaVuSans-33"/>
       <use x="63.623047" xlink:href="#DejaVuSans-35"/>
       <use x="127.246094" xlink:href="#DejaVuSans-30"/>
       <use x="190.869141" xlink:href="#DejaVuSans-30"/>
      </g>
     </g>
    </g>
    <g id="ytick_6">
     <g id="line2d_29">
      <g>
       <use style="stroke:#000000;stroke-width:0.8;" x="53.328125" xlink:href="#mb99366b856" y="65.392715"/>
      </g>
     </g>
     <g id="text_19">
      <!-- 4000 -->
      <g transform="translate(20.878125 69.191934)scale(0.1 -0.1)">
       <use xlink:href="#DejaVuSans-34"/>
       <use x="63.623047" xlink:href="#DejaVuSans-30"/>
       <use x="127.246094" xlink:href="#DejaVuSans-30"/>
       <use x="190.869141" xlink:href="#DejaVuSans-30"/>
      </g>
     </g>
    </g>
    <g id="ytick_7">
     <g id="line2d_30">
      <g>
       <use style="stroke:#000000;stroke-width:0.8;" x="53.328125" xlink:href="#mb99366b856" y="23.187551"/>
      </g>
     </g>
     <g id="text_20">
      <!-- 4500 -->
      <g transform="translate(20.878125 26.98677)scale(0.1 -0.1)">
       <use xlink:href="#DejaVuSans-34"/>
       <use x="63.623047" xlink:href="#DejaVuSans-35"/>
       <use x="127.246094" xlink:href="#DejaVuSans-30"/>
       <use x="190.869141" xlink:href="#DejaVuSans-30"/>
      </g>
     </g>
    </g>
    <g id="text_21">
     <!-- Code branch coverage -->
     <g transform="translate(14.798438 211.949125)rotate(-90)scale(0.1 -0.1)">
      <defs>
       <path d="M 4122 4306 
L 4122 3641 
Q 3803 3938 3442 4084 
Q 3081 4231 2675 4231 
Q 1875 4231 1450 3742 
Q 1025 3253 1025 2328 
Q 1025 1406 1450 917 
Q 1875 428 2675 428 
Q 3081 428 3442 575 
Q 3803 722 4122 1019 
L 4122 359 
Q 3791 134 3420 21 
Q 3050 -91 2638 -91 
Q 1578 -91 968 557 
Q 359 1206 359 2328 
Q 359 3453 968 4101 
Q 1578 4750 2638 4750 
Q 3056 4750 3426 4639 
Q 3797 4528 4122 4306 
z
" id="DejaVuSans-43" transform="scale(0.015625)"/>
       <path d="M 2906 2969 
L 2906 4863 
L 3481 4863 
L 3481 0 
L 2906 0 
L 2906 525 
Q 2725 213 2448 61 
Q 2172 -91 1784 -91 
Q 1150 -91 751 415 
Q 353 922 353 1747 
Q 353 2572 751 3078 
Q 1150 3584 1784 3584 
Q 2172 3584 2448 3432 
Q 2725 3281 2906 2969 
z
M 947 1747 
Q 947 1113 1208 752 
Q 1469 391 1925 391 
Q 2381 391 2643 752 
Q 2906 1113 2906 1747 
Q 2906 2381 2643 2742 
Q 2381 3103 1925 3103 
Q 1469 3103 1208 2742 
Q 947 2381 947 1747 
z
" id="DejaVuSans-64" transform="scale(0.015625)"/>
       <path d="M 3116 1747 
Q 3116 2381 2855 2742 
Q 2594 3103 2138 3103 
Q 1681 3103 1420 2742 
Q 1159 2381 1159 1747 
Q 1159 1113 1420 752 
Q 1681 391 2138 391 
Q 2594 391 2855 752 
Q 3116 1113 3116 1747 
z
M 1159 2969 
Q 1341 3281 1617 3432 
Q 1894 3584 2278 3584 
Q 2916 3584 3314 3078 
Q 3713 2572 3713 1747 
Q 3713 922 3314 415 
Q 2916 -91 2278 -91 
Q 1894 -91 1617 61 
Q 1341 213 1159 525 
L 1159 0 
L 581 0 
L 581 4863 
L 1159 4863 
L 1159 2969 
z
" id="DejaVuSans-62" transform="scale(0.015625)"/>
       <path d="M 2194 1759 
Q 1497 1759 1228 1600 
Q 959 1441 959 1056 
Q 959 750 1161 570 
Q 1363 391 1709 391 
Q 2188 391 2477 730 
Q 2766 1069 2766 1631 
L 2766 1759 
L 2194 1759 
z
M 3341 1997 
L 3341 0 
L 2766 0 
L 2766 531 
Q 2569 213 2275 61 
Q 1981 -91 1556 -91 
Q 1019 -91 701 211 
Q 384 513 384 1019 
Q 384 1609 779 1909 
Q 1175 2209 1959 2209 
L 2766 2209 
L 2766 2266 
Q 2766 2663 2505 2880 
Q 2244 3097 1772 3097 
Q 1472 3097 1187 3025 
Q 903 2953 641 2809 
L 641 3341 
Q 956 3463 1253 3523 
Q 1550 3584 1831 3584 
Q 2591 3584 2966 3190 
Q 3341 2797 3341 1997 
z
" id="DejaVuSans-61" transform="scale(0.015625)"/>
       <path d="M 3122 3366 
L 3122 2828 
Q 2878 2963 2633 3030 
Q 2388 3097 2138 3097 
Q 1578 3097 1268 2742 
Q 959 2388 959 1747 
Q 959 1106 1268 751 
Q 1578 397 2138 397 
Q 2388 397 2633 464 
Q 2878 531 3122 666 
L 3122 134 
Q 2881 22 2623 -34 
Q 2366 -91 2075 -91 
Q 1284 -91 818 406 
Q 353 903 353 1747 
Q 353 2603 823 3093 
Q 1294 3584 2113 3584 
Q 2378 3584 2631 3529 
Q 2884 3475 3122 3366 
z
" id="DejaVuSans-63" transform="scale(0.015625)"/>
       <path d="M 191 3500 
L 800 3500 
L 1894 563 
L 2988 3500 
L 3597 3500 
L 2284 0 
L 1503 0 
L 191 3500 
z
" id="DejaVuSans-76" transform="scale(0.015625)"/>
       <path d="M 2906 1791 
Q 2906 2416 2648 2759 
Q 2391 3103 1925 3103 
Q 1463 3103 1205 2759 
Q 947 2416 947 1791 
Q 947 1169 1205 825 
Q 1463 481 1925 481 
Q 2391 481 2648 825 
Q 2906 1169 2906 1791 
z
M 3481 434 
Q 3481 -459 3084 -895 
Q 2688 -1331 1869 -1331 
Q 1566 -1331 1297 -1286 
Q 1028 -1241 775 -1147 
L 775 -588 
Q 1028 -725 1275 -790 
Q 1522 -856 1778 -856 
Q 2344 -856 2625 -561 
Q 2906 -266 2906 331 
L 2906 616 
Q 2728 306 2450 153 
Q 2172 0 1784 0 
Q 1141 0 747 490 
Q 353 981 353 1791 
Q 353 2603 747 3093 
Q 1141 3584 1784 3584 
Q 2172 3584 2450 3431 
Q 2728 3278 2906 2969 
L 2906 3500 
L 3481 3500 
L 3481 434 
z
" id="DejaVuSans-67" transform="scale(0.015625)"/>
      </defs>
      <use xlink:href="#DejaVuSans-43"/>
      <use x="69.824219" xlink:href="#DejaVuSans-6f"/>
      <use x="131.005859" xlink:href="#DejaVuSans-64"/>
      <use x="194.482422" xlink:href="#DejaVuSans-65"/>
      <use x="256.005859" xlink:href="#DejaVuSans-20"/>
      <use x="287.792969" xlink:href="#DejaVuSans-62"/>
      <use x="351.269531" xlink:href="#DejaVuSans-72"/>
      <use x="392.382812" xlink:href="#DejaVuSans-61"/>
      <use x="453.662109" xlink:href="#DejaVuSans-6e"/>
      <use x="517.041016" xlink:href="#DejaVuSans-63"/>
      <use x="572.021484" xlink:href="#DejaVuSans-68"/>
      <use x="635.400391" xlink:href="#DejaVuSans-20"/>
      <use x="667.1875" xlink:href="#DejaVuSans-63"/>
      <use x="722.167969" xlink:href="#DejaVuSans-6f"/>
      <use x="783.349609" xlink:href="#DejaVuSans-76"/>
      <use x="842.529297" xlink:href="#DejaVuSans-65"/>
      <use x="904.052734" xlink:href="#DejaVuSans-72"/>
      <use x="945.166016" xlink:href="#DejaVuSans-61"/>
      <use x="1006.445312" xlink:href="#DejaVuSans-67"/>
      <use x="1069.921875" xlink:href="#DejaVuSans-65"/>
     </g>
    </g>
   </g>
   <g id="line2d_31">
    <path clip-path="url(#p835a316522)" d="M 85.79358 255.358158 
L 251.989452 250.504565 
L 349.207805 248.647537 
L 418.185324 243.793944 
L 471.688445 234.973064 
L 515.403677 234.213371 
L 552.36438 230.625932 
L 584.381197 146.131194 
L 612.622031 140.686728 
L 637.884317 124.353329 
L 660.736835 116.038912 
L 681.59955 91.433302 
L 700.791387 83.372115 
L 718.560252 73.074055 
L 735.10267 57.880196 
" style="fill:none;stroke:#ff7f0e;stroke-linecap:square;stroke-width:1.5;"/>
    <defs>
     <path d="M 3 0 
L -3 -3 
L -3 3 
z
" id="m36706fa16e" style="stroke:#ffffff;stroke-linejoin:miter;stroke-width:0.75;"/>
    </defs>
    <g clip-path="url(#p835a316522)">
     <use style="fill:#ff7f0e;stroke:#ffffff;stroke-linejoin:miter;stroke-width:0.75;" x="85.79358" xlink:href="#m36706fa16e" y="255.358158"/>
     <use style="fill:#ff7f0e;stroke:#ffffff;stroke-linejoin:miter;stroke-width:0.75;" x="251.989452" xlink:href="#m36706fa16e" y="250.504565"/>
     <use style="fill:#ff7f0e;stroke:#ffffff;stroke-linejoin:miter;stroke-width:0.75;" x="349.207805" xlink:href="#m36706fa16e" y="248.647537"/>
     <use style="fill:#ff7f0e;stroke:#ffffff;stroke-linejoin:miter;stroke-width:0.75;" x="418.185324" xlink:href="#m36706fa16e" y="243.793944"/>
     <use style="fill:#ff7f0e;stroke:#ffffff;stroke-linejoin:miter;stroke-width:0.75;" x="471.688445" xlink:href="#m36706fa16e" y="234.973064"/>
     <use style="fill:#ff7f0e;stroke:#ffffff;stroke-linejoin:miter;stroke-width:0.75;" x="515.403677" xlink:href="#m36706fa16e" y="234.213371"/>
     <use style="fill:#ff7f0e;stroke:#ffffff;stroke-linejoin:miter;stroke-width:0.75;" x="552.36438" xlink:href="#m36706fa16e" y="230.625932"/>
     <use style="fill:#ff7f0e;stroke:#ffffff;stroke-linejoin:miter;stroke-width:0.75;" x="584.381197" xlink:href="#m36706fa16e" y="146.131194"/>
     <use style="fill:#ff7f0e;stroke:#ffffff;stroke-linejoin:miter;stroke-width:0.75;" x="612.622031" xlink:href="#m36706fa16e" y="140.686728"/>
     <use style="fill:#ff7f0e;stroke:#ffffff;stroke-linejoin:miter;stroke-width:0.75;" x="637.884317" xlink:href="#m36706fa16e" y="124.353329"/>
     <use style="fill:#ff7f0e;stroke:#ffffff;stroke-linejoin:miter;stroke-width:0.75;" x="660.736835" xlink:href="#m36706fa16e" y="116.038912"/>
     <use style="fill:#ff7f0e;stroke:#ffffff;stroke-linejoin:miter;stroke-width:0.75;" x="681.59955" xlink:href="#m36706fa16e" y="91.433302"/>
     <use style="fill:#ff7f0e;stroke:#ffffff;stroke-linejoin:miter;stroke-width:0.75;" x="700.791387" xlink:href="#m36706fa16e" y="83.372115"/>
     <use style="fill:#ff7f0e;stroke:#ffffff;stroke-linejoin:miter;stroke-width:0.75;" x="718.560252" xlink:href="#m36706fa16e" y="73.074055"/>
     <use style="fill:#ff7f0e;stroke:#ffffff;stroke-linejoin:miter;stroke-width:0.75;" x="735.10267" xlink:href="#m36706fa16e" y="57.880196"/>
    </g>
   </g>
   <g id="line2d_32">
    <path clip-path="url(#p835a316522)" d="M 85.79358 266.922373 
L 251.989452 150.773762 
L 349.207805 122.116456 
L 418.185324 134.440364 
L 471.688445 147.017503 
L 515.403677 108.441983 
L 552.36438 94.261048 
L 584.381197 92.40402 
L 612.622031 91.981969 
L 637.884317 88.183504 
L 660.736835 85.904425 
L 681.59955 72.229952 
L 700.791387 71.976721 
L 718.560252 71.976721 
L 735.10267 70.119694 
" style="fill:none;stroke:#d62728;stroke-linecap:square;stroke-width:1.5;"/>
    <defs>
     <path d="M 0 -3 
L -3 3 
L 3 3 
z
" id="m35e70f3c75" style="stroke:#ffffff;stroke-linejoin:miter;stroke-width:0.75;"/>
    </defs>
    <g clip-path="url(#p835a316522)">
     <use style="fill:#d62728;stroke:#ffffff;stroke-linejoin:miter;stroke-width:0.75;" x="85.79358" xlink:href="#m35e70f3c75" y="266.922373"/>
     <use style="fill:#d62728;stroke:#ffffff;stroke-linejoin:miter;stroke-width:0.75;" x="251.989452" xlink:href="#m35e70f3c75" y="150.773762"/>
     <use style="fill:#d62728;stroke:#ffffff;stroke-linejoin:miter;stroke-width:0.75;" x="349.207805" xlink:href="#m35e70f3c75" y="122.116456"/>
     <use style="fill:#d62728;stroke:#ffffff;stroke-linejoin:miter;stroke-width:0.75;" x="418.185324" xlink:href="#m35e70f3c75" y="134.440364"/>
     <use style="fill:#d62728;stroke:#ffffff;stroke-linejoin:miter;stroke-width:0.75;" x="471.688445" xlink:href="#m35e70f3c75" y="147.017503"/>
     <use style="fill:#d62728;stroke:#ffffff;stroke-linejoin:miter;stroke-width:0.75;" x="515.403677" xlink:href="#m35e70f3c75" y="108.441983"/>
     <use style="fill:#d62728;stroke:#ffffff;stroke-linejoin:miter;stroke-width:0.75;" x="552.36438" xlink:href="#m35e70f3c75" y="94.261048"/>
     <use style="fill:#d62728;stroke:#ffffff;stroke-linejoin:miter;stroke-width:0.75;" x="584.381197" xlink:href="#m35e70f3c75" y="92.40402"/>
     <use style="fill:#d62728;stroke:#ffffff;stroke-linejoin:miter;stroke-width:0.75;" x="612.622031" xlink:href="#m35e70f3c75" y="91.981969"/>
     <use style="fill:#d62728;stroke:#ffffff;stroke-linejoin:miter;stroke-width:0.75;" x="637.884317" xlink:href="#m35e70f3c75" y="88.183504"/>
     <use style="fill:#d62728;stroke:#ffffff;stroke-linejoin:miter;stroke-width:0.75;" x="660.736835" xlink:href="#m35e70f3c75" y="85.904425"/>
     <use style="fill:#d62728;stroke:#ffffff;stroke-linejoin:miter;stroke-width:0.75;" x="681.59955" xlink:href="#m35e70f3c75" y="72.229952"/>
     <use style="fill:#d62728;stroke:#ffffff;stroke-linejoin:miter;stroke-width:0.75;" x="700.791387" xlink:href="#m35e70f3c75" y="71.976721"/>
     <use style="fill:#d62728;stroke:#ffffff;stroke-linejoin:miter;stroke-width:0.75;" x="718.560252" xlink:href="#m35e70f3c75" y="71.976721"/>
     <use style="fill:#d62728;stroke:#ffffff;stroke-linejoin:miter;stroke-width:0.75;" x="735.10267" xlink:href="#m35e70f3c75" y="70.119694"/>
    </g>
   </g>
   <g id="line2d_33">
    <path clip-path="url(#p835a316522)" d="M 85.79358 256.117851 
L 251.989452 250.082513 
L 349.207805 243.203071 
L 418.185324 242.190147 
L 471.688445 239.066965 
L 515.403677 236.534655 
L 552.36438 232.609575 
L 584.381197 232.271934 
L 612.622031 229.908445 
L 637.884317 229.233162 
L 660.736835 228.979931 
L 681.59955 228.431264 
L 700.791387 228.051417 
L 718.560252 224.675004 
L 735.10267 224.675004 
" style="fill:none;stroke:#c7c7c7;stroke-linecap:square;stroke-width:1.5;"/>
    <defs>
     <path d="M -3 -0 
L 3 3 
L 3 -3 
z
" id="mbbf045df57" style="stroke:#ffffff;stroke-linejoin:miter;stroke-width:0.75;"/>
    </defs>
    <g clip-path="url(#p835a316522)">
     <use style="fill:#c7c7c7;stroke:#ffffff;stroke-linejoin:miter;stroke-width:0.75;" x="85.79358" xlink:href="#mbbf045df57" y="256.117851"/>
     <use style="fill:#c7c7c7;stroke:#ffffff;stroke-linejoin:miter;stroke-width:0.75;" x="251.989452" xlink:href="#mbbf045df57" y="250.082513"/>
     <use style="fill:#c7c7c7;stroke:#ffffff;stroke-linejoin:miter;stroke-width:0.75;" x="349.207805" xlink:href="#mbbf045df57" y="243.203071"/>
     <use style="fill:#c7c7c7;stroke:#ffffff;stroke-linejoin:miter;stroke-width:0.75;" x="418.185324" xlink:href="#mbbf045df57" y="242.190147"/>
     <use style="fill:#c7c7c7;stroke:#ffffff;stroke-linejoin:miter;stroke-width:0.75;" x="471.688445" xlink:href="#mbbf045df57" y="239.066965"/>
     <use style="fill:#c7c7c7;stroke:#ffffff;stroke-linejoin:miter;stroke-width:0.75;" x="515.403677" xlink:href="#mbbf045df57" y="236.534655"/>
     <use style="fill:#c7c7c7;stroke:#ffffff;stroke-linejoin:miter;stroke-width:0.75;" x="552.36438" xlink:href="#mbbf045df57" y="232.609575"/>
     <use style="fill:#c7c7c7;stroke:#ffffff;stroke-linejoin:miter;stroke-width:0.75;" x="584.381197" xlink:href="#mbbf045df57" y="232.271934"/>
     <use style="fill:#c7c7c7;stroke:#ffffff;stroke-linejoin:miter;stroke-width:0.75;" x="612.622031" xlink:href="#mbbf045df57" y="229.908445"/>
     <use style="fill:#c7c7c7;stroke:#ffffff;stroke-linejoin:miter;stroke-width:0.75;" x="637.884317" xlink:href="#mbbf045df57" y="229.233162"/>
     <use style="fill:#c7c7c7;stroke:#ffffff;stroke-linejoin:miter;stroke-width:0.75;" x="660.736835" xlink:href="#mbbf045df57" y="228.979931"/>
     <use style="fill:#c7c7c7;stroke:#ffffff;stroke-linejoin:miter;stroke-width:0.75;" x="681.59955" xlink:href="#mbbf045df57" y="228.431264"/>
     <use style="fill:#c7c7c7;stroke:#ffffff;stroke-linejoin:miter;stroke-width:0.75;" x="700.791387" xlink:href="#mbbf045df57" y="228.051417"/>
     <use style="fill:#c7c7c7;stroke:#ffffff;stroke-linejoin:miter;stroke-width:0.75;" x="718.560252" xlink:href="#mbbf045df57" y="224.675004"/>
     <use style="fill:#c7c7c7;stroke:#ffffff;stroke-linejoin:miter;stroke-width:0.75;" x="735.10267" xlink:href="#mbbf045df57" y="224.675004"/>
    </g>
   </g>
   <g id="line2d_34">
    <path clip-path="url(#p835a316522)" d="M 85.79358 258.101494 
L 251.989452 248.900768 
L 349.207805 202.010831 
L 418.185324 195.848877 
L 471.688445 160.354334 
L 515.403677 157.695409 
L 552.36438 157.610999 
L 584.381197 156.851306 
L 612.622031 156.64028 
L 637.884317 156.471459 
L 660.736835 137.225904 
L 681.59955 136.803853 
L 700.791387 136.381801 
L 718.560252 135.95975 
L 735.10267 135.875339 
" style="fill:none;stroke:#ff9896;stroke-linecap:square;stroke-width:1.5;"/>
    <defs>
     <path d="M -1.14805 -2.771639 
L -2.771639 -1.14805 
L -2.771639 1.14805 
L -1.14805 2.771639 
L 1.14805 2.771639 
L 2.771639 1.14805 
L 2.771639 -1.14805 
L 1.14805 -2.771639 
z
" id="m286c010b83" style="stroke:#ffffff;stroke-linejoin:miter;stroke-width:0.75;"/>
    </defs>
    <g clip-path="url(#p835a316522)">
     <use style="fill:#ff9896;stroke:#ffffff;stroke-linejoin:miter;stroke-width:0.75;" x="85.79358" xlink:href="#m286c010b83" y="258.101494"/>
     <use style="fill:#ff9896;stroke:#ffffff;stroke-linejoin:miter;stroke-width:0.75;" x="251.989452" xlink:href="#m286c010b83" y="248.900768"/>
     <use style="fill:#ff9896;stroke:#ffffff;stroke-linejoin:miter;stroke-width:0.75;" x="349.207805" xlink:href="#m286c010b83" y="202.010831"/>
     <use style="fill:#ff9896;stroke:#ffffff;stroke-linejoin:miter;stroke-width:0.75;" x="418.185324" xlink:href="#m286c010b83" y="195.848877"/>
     <use style="fill:#ff9896;stroke:#ffffff;stroke-linejoin:miter;stroke-width:0.75;" x="471.688445" xlink:href="#m286c010b83" y="160.354334"/>
     <use style="fill:#ff9896;stroke:#ffffff;stroke-linejoin:miter;stroke-width:0.75;" x="515.403677" xlink:href="#m286c010b83" y="157.695409"/>
     <use style="fill:#ff9896;stroke:#ffffff;stroke-linejoin:miter;stroke-width:0.75;" x="552.36438" xlink:href="#m286c010b83" y="157.610999"/>
     <use style="fill:#ff9896;stroke:#ffffff;stroke-linejoin:miter;stroke-width:0.75;" x="584.381197" xlink:href="#m286c010b83" y="156.851306"/>
     <use style="fill:#ff9896;stroke:#ffffff;stroke-linejoin:miter;stroke-width:0.75;" x="612.622031" xlink:href="#m286c010b83" y="156.64028"/>
     <use style="fill:#ff9896;stroke:#ffffff;stroke-linejoin:miter;stroke-width:0.75;" x="637.884317" xlink:href="#m286c010b83" y="156.471459"/>
     <use style="fill:#ff9896;stroke:#ffffff;stroke-linejoin:miter;stroke-width:0.75;" x="660.736835" xlink:href="#m286c010b83" y="137.225904"/>
     <use style="fill:#ff9896;stroke:#ffffff;stroke-linejoin:miter;stroke-width:0.75;" x="681.59955" xlink:href="#m286c010b83" y="136.803853"/>
     <use style="fill:#ff9896;stroke:#ffffff;stroke-linejoin:miter;stroke-width:0.75;" x="700.791387" xlink:href="#m286c010b83" y="136.381801"/>
     <use style="fill:#ff9896;stroke:#ffffff;stroke-linejoin:miter;stroke-width:0.75;" x="718.560252" xlink:href="#m286c010b83" y="135.95975"/>
     <use style="fill:#ff9896;stroke:#ffffff;stroke-linejoin:miter;stroke-width:0.75;" x="735.10267" xlink:href="#m286c010b83" y="135.875339"/>
    </g>
   </g>
   <g id="line2d_35">
    <path clip-path="url(#p835a316522)" d="M 85.79358 257.426212 
L 251.989452 205.851501 
L 349.207805 203.530217 
L 418.185324 136.424006 
L 471.688445 117.516093 
L 515.403677 112.113832 
L 552.36438 111.818396 
L 584.381197 109.15947 
L 612.622031 106.584955 
L 637.884317 104.221466 
L 660.736835 98.777 
L 681.59955 93.163713 
L 700.791387 90.92684 
L 718.560252 90.462583 
L 735.10267 89.829505 
" style="fill:none;stroke:#1f77b4;stroke-linecap:square;stroke-width:1.5;"/>
    <defs>
     <path d="M 0 3 
C 0.795609 3 1.55874 2.683901 2.12132 2.12132 
C 2.683901 1.55874 3 0.795609 3 0 
C 3 -0.795609 2.683901 -1.55874 2.12132 -2.12132 
C 1.55874 -2.683901 0.795609 -3 0 -3 
C -0.795609 -3 -1.55874 -2.683901 -2.12132 -2.12132 
C -2.683901 -1.55874 -3 -0.795609 -3 0 
C -3 0.795609 -2.683901 1.55874 -2.12132 2.12132 
C -1.55874 2.683901 -0.795609 3 0 3 
z
" id="m232ebe0baa" style="stroke:#ffffff;stroke-width:0.75;"/>
    </defs>
    <g clip-path="url(#p835a316522)">
     <use style="fill:#1f77b4;stroke:#ffffff;stroke-width:0.75;" x="85.79358" xlink:href="#m232ebe0baa" y="257.426212"/>
     <use style="fill:#1f77b4;stroke:#ffffff;stroke-width:0.75;" x="251.989452" xlink:href="#m232ebe0baa" y="205.851501"/>
     <use style="fill:#1f77b4;stroke:#ffffff;stroke-width:0.75;" x="349.207805" xlink:href="#m232ebe0baa" y="203.530217"/>
     <use style="fill:#1f77b4;stroke:#ffffff;stroke-width:0.75;" x="418.185324" xlink:href="#m232ebe0baa" y="136.424006"/>
     <use style="fill:#1f77b4;stroke:#ffffff;stroke-width:0.75;" x="471.688445" xlink:href="#m232ebe0baa" y="117.516093"/>
     <use style="fill:#1f77b4;stroke:#ffffff;stroke-width:0.75;" x="515.403677" xlink:href="#m232ebe0baa" y="112.113832"/>
     <use style="fill:#1f77b4;stroke:#ffffff;stroke-width:0.75;" x="552.36438" xlink:href="#m232ebe0baa" y="111.818396"/>
     <use style="fill:#1f77b4;stroke:#ffffff;stroke-width:0.75;" x="584.381197" xlink:href="#m232ebe0baa" y="109.15947"/>
     <use style="fill:#1f77b4;stroke:#ffffff;stroke-width:0.75;" x="612.622031" xlink:href="#m232ebe0baa" y="106.584955"/>
     <use style="fill:#1f77b4;stroke:#ffffff;stroke-width:0.75;" x="637.884317" xlink:href="#m232ebe0baa" y="104.221466"/>
     <use style="fill:#1f77b4;stroke:#ffffff;stroke-width:0.75;" x="660.736835" xlink:href="#m232ebe0baa" y="98.777"/>
     <use style="fill:#1f77b4;stroke:#ffffff;stroke-width:0.75;" x="681.59955" xlink:href="#m232ebe0baa" y="93.163713"/>
     <use style="fill:#1f77b4;stroke:#ffffff;stroke-width:0.75;" x="700.791387" xlink:href="#m232ebe0baa" y="90.92684"/>
     <use style="fill:#1f77b4;stroke:#ffffff;stroke-width:0.75;" x="718.560252" xlink:href="#m232ebe0baa" y="90.462583"/>
     <use style="fill:#1f77b4;stroke:#ffffff;stroke-width:0.75;" x="735.10267" xlink:href="#m232ebe0baa" y="89.829505"/>
    </g>
   </g>
   <g id="line2d_36">
    <path clip-path="url(#p835a316522)" d="M 85.79358 185.339791 
L 251.989452 185.339791 
L 349.207805 185.297586 
L 418.185324 185.128766 
L 471.688445 185.128766 
L 515.403677 185.128766 
L 552.36438 184.664509 
L 584.381197 184.284662 
L 612.622031 184.284662 
L 637.884317 183.060713 
L 660.736835 183.060713 
L 681.59955 183.060713 
L 700.791387 183.060713 
L 718.560252 183.060713 
L 735.10267 183.060713 
" style="fill:none;stroke:#98df8a;stroke-linecap:square;stroke-width:1.5;"/>
    <defs>
     <path d="M -0 3 
L 3 -3 
L -3 -3 
z
" id="m8b0cfe3096" style="stroke:#ffffff;stroke-linejoin:miter;stroke-width:0.75;"/>
    </defs>
    <g clip-path="url(#p835a316522)">
     <use style="fill:#98df8a;stroke:#ffffff;stroke-linejoin:miter;stroke-width:0.75;" x="85.79358" xlink:href="#m8b0cfe3096" y="185.339791"/>
     <use style="fill:#98df8a;stroke:#ffffff;stroke-linejoin:miter;stroke-width:0.75;" x="251.989452" xlink:href="#m8b0cfe3096" y="185.339791"/>
     <use style="fill:#98df8a;stroke:#ffffff;stroke-linejoin:miter;stroke-width:0.75;" x="349.207805" xlink:href="#m8b0cfe3096" y="185.297586"/>
     <use style="fill:#98df8a;stroke:#ffffff;stroke-linejoin:miter;stroke-width:0.75;" x="418.185324" xlink:href="#m8b0cfe3096" y="185.128766"/>
     <use style="fill:#98df8a;stroke:#ffffff;stroke-linejoin:miter;stroke-width:0.75;" x="471.688445" xlink:href="#m8b0cfe3096" y="185.128766"/>
     <use style="fill:#98df8a;stroke:#ffffff;stroke-linejoin:miter;stroke-width:0.75;" x="515.403677" xlink:href="#m8b0cfe3096" y="185.128766"/>
     <use style="fill:#98df8a;stroke:#ffffff;stroke-linejoin:miter;stroke-width:0.75;" x="552.36438" xlink:href="#m8b0cfe3096" y="184.664509"/>
     <use style="fill:#98df8a;stroke:#ffffff;stroke-linejoin:miter;stroke-width:0.75;" x="584.381197" xlink:href="#m8b0cfe3096" y="184.284662"/>
     <use style="fill:#98df8a;stroke:#ffffff;stroke-linejoin:miter;stroke-width:0.75;" x="612.622031" xlink:href="#m8b0cfe3096" y="184.284662"/>
     <use style="fill:#98df8a;stroke:#ffffff;stroke-linejoin:miter;stroke-width:0.75;" x="637.884317" xlink:href="#m8b0cfe3096" y="183.060713"/>
     <use style="fill:#98df8a;stroke:#ffffff;stroke-linejoin:miter;stroke-width:0.75;" x="660.736835" xlink:href="#m8b0cfe3096" y="183.060713"/>
     <use style="fill:#98df8a;stroke:#ffffff;stroke-linejoin:miter;stroke-width:0.75;" x="681.59955" xlink:href="#m8b0cfe3096" y="183.060713"/>
     <use style="fill:#98df8a;stroke:#ffffff;stroke-linejoin:miter;stroke-width:0.75;" x="700.791387" xlink:href="#m8b0cfe3096" y="183.060713"/>
     <use style="fill:#98df8a;stroke:#ffffff;stroke-linejoin:miter;stroke-width:0.75;" x="718.560252" xlink:href="#m8b0cfe3096" y="183.060713"/>
     <use style="fill:#98df8a;stroke:#ffffff;stroke-linejoin:miter;stroke-width:0.75;" x="735.10267" xlink:href="#m8b0cfe3096" y="183.060713"/>
    </g>
   </g>
   <g id="line2d_37"/>
   <g id="line2d_38"/>
   <g id="line2d_39"/>
   <g id="line2d_40"/>
   <g id="line2d_41"/>
   <g id="line2d_42"/>
   <g id="line2d_43">
    <path clip-path="url(#p835a316522)" d="M 735.10267 288.430125 
L 735.10267 22.318125 
" style="fill:none;stroke:#ff0000;stroke-linecap:square;stroke-width:1.5;"/>
   </g>
   <g id="patch_3">
    <path d="M 53.328125 276.418535 
L 53.328125 23.187551 
" style="fill:none;stroke:#000000;stroke-linecap:square;stroke-linejoin:miter;stroke-width:0.8;"/>
   </g>
   <g id="patch_4">
    <path d="M 735.10267 288.430125 
L 735.368934 288.430125 
" style="fill:none;stroke:#000000;stroke-linecap:square;stroke-linejoin:miter;stroke-width:0.8;"/>
   </g>
   <g id="text_22">
    <!-- bloaty_fuzz_target (15m, 98 trials/fuzzer) -->
    <g transform="translate(286.492813 16.318125)scale(0.12 -0.12)">
     <defs>
      <path d="M 603 4863 
L 1178 4863 
L 1178 0 
L 603 0 
L 603 4863 
z
" id="DejaVuSans-6c" transform="scale(0.015625)"/>
      <path d="M 2059 -325 
Q 1816 -950 1584 -1140 
Q 1353 -1331 966 -1331 
L 506 -1331 
L 506 -850 
L 844 -850 
Q 1081 -850 1212 -737 
Q 1344 -625 1503 -206 
L 1606 56 
L 191 3500 
L 800 3500 
L 1894 763 
L 2988 3500 
L 3597 3500 
L 2059 -325 
z
" id="DejaVuSans-79" transform="scale(0.015625)"/>
      <path d="M 3263 -1063 
L 3263 -1509 
L -63 -1509 
L -63 -1063 
L 3263 -1063 
z
" id="DejaVuSans-5f" transform="scale(0.015625)"/>
      <path d="M 2375 4863 
L 2375 4384 
L 1825 4384 
Q 1516 4384 1395 4259 
Q 1275 4134 1275 3809 
L 1275 3500 
L 2222 3500 
L 2222 3053 
L 1275 3053 
L 1275 0 
L 697 0 
L 697 3053 
L 147 3053 
L 147 3500 
L 697 3500 
L 697 3744 
Q 697 4328 969 4595 
Q 1241 4863 1831 4863 
L 2375 4863 
z
" id="DejaVuSans-66" transform="scale(0.015625)"/>
      <path d="M 353 3500 
L 3084 3500 
L 3084 2975 
L 922 459 
L 3084 459 
L 3084 0 
L 275 0 
L 275 525 
L 2438 3041 
L 353 3041 
L 353 3500 
z
" id="DejaVuSans-7a" transform="scale(0.015625)"/>
      <path d="M 750 794 
L 1409 794 
L 1409 256 
L 897 -744 
L 494 -744 
L 750 256 
L 750 794 
z
" id="DejaVuSans-2c" transform="scale(0.015625)"/>
      <path d="M 703 97 
L 703 672 
Q 941 559 1184 500 
Q 1428 441 1663 441 
Q 2288 441 2617 861 
Q 2947 1281 2994 2138 
Q 2813 1869 2534 1725 
Q 2256 1581 1919 1581 
Q 1219 1581 811 2004 
Q 403 2428 403 3163 
Q 403 3881 828 4315 
Q 1253 4750 1959 4750 
Q 2769 4750 3195 4129 
Q 3622 3509 3622 2328 
Q 3622 1225 3098 567 
Q 2575 -91 1691 -91 
Q 1453 -91 1209 -44 
Q 966 3 703 97 
z
M 1959 2075 
Q 2384 2075 2632 2365 
Q 2881 2656 2881 3163 
Q 2881 3666 2632 3958 
Q 2384 4250 1959 4250 
Q 1534 4250 1286 3958 
Q 1038 3666 1038 3163 
Q 1038 2656 1286 2365 
Q 1534 2075 1959 2075 
z
" id="DejaVuSans-39" transform="scale(0.015625)"/>
      <path d="M 2034 2216 
Q 1584 2216 1326 1975 
Q 1069 1734 1069 1313 
Q 1069 891 1326 650 
Q 1584 409 2034 409 
Q 2484 409 2743 651 
Q 3003 894 3003 1313 
Q 3003 1734 2745 1975 
Q 2488 2216 2034 2216 
z
M 1403 2484 
Q 997 2584 770 2862 
Q 544 3141 544 3541 
Q 544 4100 942 4425 
Q 1341 4750 2034 4750 
Q 2731 4750 3128 4425 
Q 3525 4100 3525 3541 
Q 3525 3141 3298 2862 
Q 3072 2584 2669 2484 
Q 3125 2378 3379 2068 
Q 3634 1759 3634 1313 
Q 3634 634 3220 271 
Q 2806 -91 2034 -91 
Q 1263 -91 848 271 
Q 434 634 434 1313 
Q 434 1759 690 2068 
Q 947 2378 1403 2484 
z
M 1172 3481 
Q 1172 3119 1398 2916 
Q 1625 2713 2034 2713 
Q 2441 2713 2670 2916 
Q 2900 3119 2900 3481 
Q 2900 3844 2670 4047 
Q 2441 4250 2034 4250 
Q 1625 4250 1398 4047 
Q 1172 3844 1172 3481 
z
" id="DejaVuSans-38" transform="scale(0.015625)"/>
      <path d="M 2834 3397 
L 2834 2853 
Q 2591 2978 2328 3040 
Q 2066 3103 1784 3103 
Q 1356 3103 1142 2972 
Q 928 2841 928 2578 
Q 928 2378 1081 2264 
Q 1234 2150 1697 2047 
L 1894 2003 
Q 2506 1872 2764 1633 
Q 3022 1394 3022 966 
Q 3022 478 2636 193 
Q 2250 -91 1575 -91 
Q 1294 -91 989 -36 
Q 684 19 347 128 
L 347 722 
Q 666 556 975 473 
Q 1284 391 1588 391 
Q 1994 391 2212 530 
Q 2431 669 2431 922 
Q 2431 1156 2273 1281 
Q 2116 1406 1581 1522 
L 1381 1569 
Q 847 1681 609 1914 
Q 372 2147 372 2553 
Q 372 3047 722 3315 
Q 1072 3584 1716 3584 
Q 2034 3584 2315 3537 
Q 2597 3491 2834 3397 
z
" id="DejaVuSans-73" transform="scale(0.015625)"/>
      <path d="M 1625 4666 
L 2156 4666 
L 531 -594 
L 0 -594 
L 1625 4666 
z
" id="DejaVuSans-2f" transform="scale(0.015625)"/>
     </defs>
     <use xlink:href="#DejaVuSans-62"/>
     <use x="63.476562" xlink:href="#DejaVuSans-6c"/>
     <use x="91.259766" xlink:href="#DejaVuSans-6f"/>
     <use x="152.441406" xlink:href="#DejaVuSans-61"/>
     <use x="213.720703" xlink:href="#DejaVuSans-74"/>
     <use x="252.929688" xlink:href="#DejaVuSans-79"/>
     <use x="312.109375" xlink:href="#DejaVuSans-5f"/>
     <use x="362.109375" xlink:href="#DejaVuSans-66"/>
     <use x="397.314453" xlink:href="#DejaVuSans-75"/>
     <use x="460.693359" xlink:href="#DejaVuSans-7a"/>
     <use x="513.183594" xlink:href="#DejaVuSans-7a"/>
     <use x="565.673828" xlink:href="#DejaVuSans-5f"/>
     <use x="615.673828" xlink:href="#DejaVuSans-74"/>
     <use x="654.882812" xlink:href="#DejaVuSans-61"/>
     <use x="716.162109" xlink:href="#DejaVuSans-72"/>
     <use x="755.525391" xlink:href="#DejaVuSans-67"/>
     <use x="819.001953" xlink:href="#DejaVuSans-65"/>
     <use x="880.525391" xlink:href="#DejaVuSans-74"/>
     <use x="919.734375" xlink:href="#DejaVuSans-20"/>
     <use x="951.521484" xlink:href="#DejaVuSans-28"/>
     <use x="990.535156" xlink:href="#DejaVuSans-31"/>
     <use x="1054.158203" xlink:href="#DejaVuSans-35"/>
     <use x="1117.78125" xlink:href="#DejaVuSans-6d"/>
     <use x="1215.193359" xlink:href="#DejaVuSans-2c"/>
     <use x="1246.980469" xlink:href="#DejaVuSans-20"/>
     <use x="1278.767578" xlink:href="#DejaVuSans-39"/>
     <use x="1342.390625" xlink:href="#DejaVuSans-38"/>
     <use x="1406.013672" xlink:href="#DejaVuSans-20"/>
     <use x="1437.800781" xlink:href="#DejaVuSans-74"/>
     <use x="1477.009766" xlink:href="#DejaVuSans-72"/>
     <use x="1518.123047" xlink:href="#DejaVuSans-69"/>
     <use x="1545.90625" xlink:href="#DejaVuSans-61"/>
     <use x="1607.185547" xlink:href="#DejaVuSans-6c"/>
     <use x="1634.96875" xlink:href="#DejaVuSans-73"/>
     <use x="1687.068359" xlink:href="#DejaVuSans-2f"/>
     <use x="1720.759766" xlink:href="#DejaVuSans-66"/>
     <use x="1755.964844" xlink:href="#DejaVuSans-75"/>
     <use x="1819.34375" xlink:href="#DejaVuSans-7a"/>
     <use x="1871.833984" xlink:href="#DejaVuSans-7a"/>
     <use x="1924.324219" xlink:href="#DejaVuSans-65"/>
     <use x="1985.847656" xlink:href="#DejaVuSans-72"/>
     <use x="2026.960938" xlink:href="#DejaVuSans-29"/>
    </g>
   </g>
   <g id="legend_1">
    <g id="line2d_44">
     <path d="M 771.568125 30.416562 
L 791.568125 30.416562 
" style="fill:none;stroke:#ff7f0e;stroke-linecap:square;stroke-width:1.5;"/>
    </g>
    <g id="line2d_45">
     <defs>
      <path d="M 3 0 
L -3 -3 
L -3 3 
z
" id="m69d6c4c5a9" style="stroke:#ff7f0e;stroke-linejoin:miter;"/>
     </defs>
     <g>
      <use style="fill:#ff7f0e;stroke:#ff7f0e;stroke-linejoin:miter;" x="781.568125" xlink:href="#m69d6c4c5a9" y="30.416562"/>
     </g>
    </g>
    <g id="text_23">
     <!-- honggfuzz -->
     <g transform="translate(799.568125 33.916562)scale(0.1 -0.1)">
      <use xlink:href="#DejaVuSans-68"/>
      <use x="63.378906" xlink:href="#DejaVuSans-6f"/>
      <use x="124.560547" xlink:href="#DejaVuSans-6e"/>
      <use x="187.939453" xlink:href="#DejaVuSans-67"/>
      <use x="251.416016" xlink:href="#DejaVuSans-67"/>
      <use x="314.892578" xlink:href="#DejaVuSans-66"/>
      <use x="350.097656" xlink:href="#DejaVuSans-75"/>
      <use x="413.476562" xlink:href="#DejaVuSans-7a"/>
      <use x="465.966797" xlink:href="#DejaVuSans-7a"/>
     </g>
    </g>
    <g id="line2d_46">
     <path d="M 771.568125 45.094688 
L 791.568125 45.094688 
" style="fill:none;stroke:#d62728;stroke-linecap:square;stroke-width:1.5;"/>
    </g>
    <g id="line2d_47">
     <defs>
      <path d="M 0 -3 
L -3 3 
L 3 3 
z
" id="m6a15d0ca36" style="stroke:#d62728;stroke-linejoin:miter;"/>
     </defs>
     <g>
      <use style="fill:#d62728;stroke:#d62728;stroke-linejoin:miter;" x="781.568125" xlink:href="#m6a15d0ca36" y="45.094688"/>
     </g>
    </g>
    <g id="text_24">
     <!-- eclipser -->
     <g transform="translate(799.568125 48.594688)scale(0.1 -0.1)">
      <defs>
       <path d="M 1159 525 
L 1159 -1331 
L 581 -1331 
L 581 3500 
L 1159 3500 
L 1159 2969 
Q 1341 3281 1617 3432 
Q 1894 3584 2278 3584 
Q 2916 3584 3314 3078 
Q 3713 2572 3713 1747 
Q 3713 922 3314 415 
Q 2916 -91 2278 -91 
Q 1894 -91 1617 61 
Q 1341 213 1159 525 
z
M 3116 1747 
Q 3116 2381 2855 2742 
Q 2594 3103 2138 3103 
Q 1681 3103 1420 2742 
Q 1159 2381 1159 1747 
Q 1159 1113 1420 752 
Q 1681 391 2138 391 
Q 2594 391 2855 752 
Q 3116 1113 3116 1747 
z
" id="DejaVuSans-70" transform="scale(0.015625)"/>
      </defs>
      <use xlink:href="#DejaVuSans-65"/>
      <use x="61.523438" xlink:href="#DejaVuSans-63"/>
      <use x="116.503906" xlink:href="#DejaVuSans-6c"/>
      <use x="144.287109" xlink:href="#DejaVuSans-69"/>
      <use x="172.070312" xlink:href="#DejaVuSans-70"/>
      <use x="235.546875" xlink:href="#DejaVuSans-73"/>
      <use x="287.646484" xlink:href="#DejaVuSans-65"/>
      <use x="349.169922" xlink:href="#DejaVuSans-72"/>
     </g>
    </g>
    <g id="line2d_48">
     <path d="M 771.568125 59.772812 
L 791.568125 59.772812 
" style="fill:none;stroke:#c7c7c7;stroke-linecap:square;stroke-width:1.5;"/>
    </g>
    <g id="line2d_49">
     <defs>
      <path d="M -3 -0 
L 3 3 
L 3 -3 
z
" id="m1588b91190" style="stroke:#c7c7c7;stroke-linejoin:miter;"/>
     </defs>
     <g>
      <use style="fill:#c7c7c7;stroke:#c7c7c7;stroke-linejoin:miter;" x="781.568125" xlink:href="#m1588b91190" y="59.772812"/>
     </g>
    </g>
    <g id="text_25">
     <!-- entropic -->
     <g transform="translate(799.568125 63.272812)scale(0.1 -0.1)">
      <use xlink:href="#DejaVuSans-65"/>
      <use x="61.523438" xlink:href="#DejaVuSans-6e"/>
      <use x="124.902344" xlink:href="#DejaVuSans-74"/>
      <use x="164.111328" xlink:href="#DejaVuSans-72"/>
      <use x="202.974609" xlink:href="#DejaVuSans-6f"/>
      <use x="264.15625" xlink:href="#DejaVuSans-70"/>
      <use x="327.632812" xlink:href="#DejaVuSans-69"/>
      <use x="355.416016" xlink:href="#DejaVuSans-63"/>
     </g>
    </g>
    <g id="line2d_50">
     <path d="M 771.568125 74.450938 
L 791.568125 74.450938 
" style="fill:none;stroke:#ff9896;stroke-linecap:square;stroke-width:1.5;"/>
    </g>
    <g id="line2d_51">
     <defs>
      <path d="M -1.14805 -2.771639 
L -2.771639 -1.14805 
L -2.771639 1.14805 
L -1.14805 2.771639 
L 1.14805 2.771639 
L 2.771639 1.14805 
L 2.771639 -1.14805 
L 1.14805 -2.771639 
z
" id="mbeec72f0ad" style="stroke:#ff9896;stroke-linejoin:miter;"/>
     </defs>
     <g>
      <use style="fill:#ff9896;stroke:#ff9896;stroke-linejoin:miter;" x="781.568125" xlink:href="#mbeec72f0ad" y="74.450938"/>
     </g>
    </g>
    <g id="text_26">
     <!-- libfuzzer -->
     <g transform="translate(799.568125 77.950938)scale(0.1 -0.1)">
      <use xlink:href="#DejaVuSans-6c"/>
      <use x="27.783203" xlink:href="#DejaVuSans-69"/>
      <use x="55.566406" xlink:href="#DejaVuSans-62"/>
      <use x="119.042969" xlink:href="#DejaVuSans-66"/>
      <use x="154.248047" xlink:href="#DejaVuSans-75"/>
      <use x="217.626953" xlink:href="#DejaVuSans-7a"/>
      <use x="270.117188" xlink:href="#DejaVuSans-7a"/>
      <use x="322.607422" xlink:href="#DejaVuSans-65"/>
      <use x="384.130859" xlink:href="#DejaVuSans-72"/>
     </g>
    </g>
    <g id="line2d_52">
     <path d="M 771.568125 89.129063 
L 791.568125 89.129063 
" style="fill:none;stroke:#1f77b4;stroke-linecap:square;stroke-width:1.5;"/>
    </g>
    <g id="line2d_53">
     <defs>
      <path d="M 0 3 
C 0.795609 3 1.55874 2.683901 2.12132 2.12132 
C 2.683901 1.55874 3 0.795609 3 0 
C 3 -0.795609 2.683901 -1.55874 2.12132 -2.12132 
C 1.55874 -2.683901 0.795609 -3 0 -3 
C -0.795609 -3 -1.55874 -2.683901 -2.12132 -2.12132 
C -2.683901 -1.55874 -3 -0.795609 -3 0 
C -3 0.795609 -2.683901 1.55874 -2.12132 2.12132 
C -1.55874 2.683901 -0.795609 3 0 3 
z
" id="m2b74299af7" style="stroke:#1f77b4;"/>
     </defs>
     <g>
      <use style="fill:#1f77b4;stroke:#1f77b4;" x="781.568125" xlink:href="#m2b74299af7" y="89.129063"/>
     </g>
    </g>
    <g id="text_27">
     <!-- afl -->
     <g transform="translate(799.568125 92.629063)scale(0.1 -0.1)">
      <use xlink:href="#DejaVuSans-61"/>
      <use x="61.279297" xlink:href="#DejaVuSans-66"/>
      <use x="96.484375" xlink:href="#DejaVuSans-6c"/>
     </g>
    </g>
    <g id="line2d_54">
     <path d="M 771.568125 103.807187 
L 791.568125 103.807187 
" style="fill:none;stroke:#98df8a;stroke-linecap:square;stroke-width:1.5;"/>
    </g>
    <g id="line2d_55">
     <defs>
      <path d="M -0 3 
L 3 -3 
L -3 -3 
z
" id="m2960a8b753" style="stroke:#98df8a;stroke-linejoin:miter;"/>
     </defs>
     <g>
      <use style="fill:#98df8a;stroke:#98df8a;stroke-linejoin:miter;" x="781.568125" xlink:href="#m2960a8b753" y="103.807187"/>
     </g>
    </g>
    <g id="text_28">
     <!-- aflplusplus -->
     <g transform="translate(799.568125 107.307187)scale(0.1 -0.1)">
      <use xlink:href="#DejaVuSans-61"/>
      <use x="61.279297" xlink:href="#DejaVuSans-66"/>
      <use x="96.484375" xlink:href="#DejaVuSans-6c"/>
      <use x="124.267578" xlink:href="#DejaVuSans-70"/>
      <use x="187.744141" xlink:href="#DejaVuSans-6c"/>
      <use x="215.527344" xlink:href="#DejaVuSans-75"/>
      <use x="278.90625" xlink:href="#DejaVuSans-73"/>
      <use x="331.005859" xlink:href="#DejaVuSans-70"/>
      <use x="394.482422" xlink:href="#DejaVuSans-6c"/>
      <use x="422.265625" xlink:href="#DejaVuSans-75"/>
      <use x="485.644531" xlink:href="#DejaVuSans-73"/>
     </g>
    </g>
   </g>
  </g>
 </g>
 <defs>
  <clipPath id="p835a316522">
   <rect height="266.112" width="714.24" x="53.328125" y="22.318125"/>
  </clipPath>
 </defs>
</svg>
