<?xml version="1.0" encoding="utf-8" standalone="no"?>
<!DOCTYPE svg PUBLIC "-//W3C//DTD SVG 1.1//EN"
  "http://www.w3.org/Graphics/SVG/1.1/DTD/svg11.dtd">
<!-- Created with matplotlib (https://matplotlib.org/) -->
<svg height="325.986375pt" version="1.1" viewBox="0 0 864.541562 325.986375" width="864.541562pt" xmlns="http://www.w3.org/2000/svg" xmlns:xlink="http://www.w3.org/1999/xlink">
 <metadata>
  <rdf:RDF xmlns:cc="http://creativecommons.org/ns#" xmlns:dc="http://purl.org/dc/elements/1.1/" xmlns:rdf="http://www.w3.org/1999/02/22-rdf-syntax-ns#">
   <cc:Work>
    <dc:type rdf:resource="http://purl.org/dc/dcmitype/StillImage"/>
    <dc:date>2020-11-18T18:41:43.449815</dc:date>
    <dc:format>image/svg+xml</dc:format>
    <dc:creator>
     <cc:Agent>
      <dc:title>Matplotlib v3.3.2, https://matplotlib.org/</dc:title>
     </cc:Agent>
    </dc:creator>
   </cc:Work>
  </rdf:RDF>
 </metadata>
 <defs>
  <style type="text/css">*{stroke-linecap:butt;stroke-linejoin:round;}</style>
 </defs>
 <g id="figure_1">
  <g id="patch_1">
   <path d="M 0 325.986375 
L 864.541562 325.986375 
L 864.541562 0 
L 0 0 
z
" style="fill:#ffffff;"/>
  </g>
  <g id="axes_1">
   <g id="patch_2">
    <path d="M 53.328125 288.430125 
L 767.568125 288.430125 
L 767.568125 22.318125 
L 53.328125 22.318125 
z
" style="fill:#ffffff;"/>
   </g>
   <g id="PolyCollection_1">
    <defs>
     <path d="M 85.79358 -238.59509 
L 85.79358 -235.343295 
L 92.628412 -238.933818 
L 99.463245 -238.933818 
L 106.298077 -256.344471 
L 113.13291 -256.479962 
L 119.967742 -256.479962 
L 126.802575 -262.035112 
L 133.637407 -262.102858 
L 140.47224 -262.102858 
L 147.307072 -262.102858 
L 154.141905 -262.509332 
L 160.976737 -262.509332 
L 167.81157 -262.509332 
L 174.646403 -262.577078 
L 181.481235 -262.577078 
L 188.316068 -262.577078 
L 195.1509 -266.235347 
L 201.985733 -266.50633 
L 208.820565 -266.50633 
L 215.655398 -266.50633 
L 222.49023 -266.50633 
L 229.325063 -266.50633 
L 236.159895 -266.50633 
L 242.994728 -266.50633 
L 249.82956 -269.148414 
L 256.664393 -269.148414 
L 263.499225 -269.148414 
L 270.334058 -269.148414 
L 277.168891 -269.351651 
L 284.003723 -269.351651 
L 290.838556 -269.351651 
L 297.673388 -269.487142 
L 304.508221 -269.487142 
L 311.343053 -269.487142 
L 318.177886 -269.487142 
L 325.012718 -269.487142 
L 331.847551 -269.487142 
L 338.682383 -269.487142 
L 345.517216 -269.487142 
L 352.352048 -269.487142 
L 359.186881 -269.487142 
L 366.021714 -269.487142 
L 372.856546 -269.487142 
L 379.691379 -269.487142 
L 386.526211 -269.487142 
L 393.361044 -269.487142 
L 400.195876 -269.487142 
L 407.030709 -269.487142 
L 413.865541 -269.487142 
L 420.700374 -269.487142 
L 427.535206 -269.487142 
L 434.370039 -269.487142 
L 441.204871 -269.487142 
L 448.039704 -269.487142 
L 454.874536 -269.487142 
L 461.709369 -269.487142 
L 468.544202 -269.487142 
L 475.379034 -269.487142 
L 482.213867 -269.487142 
L 489.048699 -269.487142 
L 495.883532 -269.487142 
L 502.718364 -269.487142 
L 509.553197 -269.487142 
L 516.388029 -269.487142 
L 523.222862 -269.487142 
L 530.057694 -269.487142 
L 536.892527 -269.487142 
L 543.727359 -269.487142 
L 550.562192 -269.487142 
L 557.397025 -269.487142 
L 564.231857 -269.487142 
L 571.06669 -269.487142 
L 577.901522 -269.487142 
L 584.736355 -269.487142 
L 591.571187 -269.487142 
L 598.40602 -269.487142 
L 605.240852 -269.487142 
L 612.075685 -269.487142 
L 618.910517 -269.487142 
L 625.74535 -269.487142 
L 632.580182 -269.487142 
L 639.415015 -269.487142 
L 646.249847 -269.487142 
L 653.08468 -269.487142 
L 659.919513 -269.487142 
L 666.754345 -269.487142 
L 673.589178 -269.487142 
L 680.42401 -269.487142 
L 687.258843 -269.487142 
L 694.093675 -289.607624 
L 700.928508 -289.607624 
L 707.76334 -289.607624 
L 714.598173 -289.607624 
L 721.433005 -289.607624 
L 728.267838 -289.607624 
L 735.10267 -289.607624 
L 735.10267 -291.57225 
L 735.10267 -291.57225 
L 728.267838 -291.57225 
L 721.433005 -291.57225 
L 714.598173 -291.504504 
L 707.76334 -291.504504 
L 700.928508 -291.504504 
L 694.093675 -291.301267 
L 687.258843 -290.14959 
L 680.42401 -290.14959 
L 673.589178 -290.14959 
L 666.754345 -290.14959 
L 659.919513 -290.14959 
L 653.08468 -290.14959 
L 646.249847 -290.14959 
L 639.415015 -290.14959 
L 632.580182 -290.14959 
L 625.74535 -290.14959 
L 618.910517 -289.968934 
L 612.075685 -290.14959 
L 605.240852 -290.14959 
L 598.40602 -290.14959 
L 591.571187 -290.14959 
L 584.736355 -290.14959 
L 577.901522 -290.14959 
L 571.06669 -290.14959 
L 564.231857 -290.14959 
L 557.397025 -290.14959 
L 550.562192 -290.14959 
L 543.727359 -290.14959 
L 536.892527 -290.14959 
L 530.057694 -290.14959 
L 523.222862 -290.14959 
L 516.388029 -290.14959 
L 509.553197 -290.14959 
L 502.718364 -290.14959 
L 495.883532 -290.14959 
L 489.048699 -290.14959 
L 482.213867 -290.14959 
L 475.379034 -290.14959 
L 468.544202 -290.14959 
L 461.709369 -290.14959 
L 454.874536 -290.14959 
L 448.039704 -290.14959 
L 441.204871 -290.014098 
L 434.370039 -290.014098 
L 427.535206 -290.014098 
L 420.700374 -289.946352 
L 413.865541 -289.946352 
L 407.030709 -289.946352 
L 400.195876 -289.946352 
L 393.361044 -289.946352 
L 386.526211 -289.946352 
L 379.691379 -289.946352 
L 372.856546 -289.946352 
L 366.021714 -289.946352 
L 359.186881 -289.946352 
L 352.352048 -289.946352 
L 345.517216 -289.946352 
L 338.682383 -289.878607 
L 331.847551 -289.878607 
L 325.012718 -289.878607 
L 318.177886 -289.878607 
L 311.343053 -289.878607 
L 304.508221 -289.878607 
L 297.673388 -289.878607 
L 290.838556 -289.878607 
L 284.003723 -289.878607 
L 277.168891 -289.878607 
L 270.334058 -289.878607 
L 263.499225 -289.878607 
L 256.664393 -289.67537 
L 249.82956 -289.539878 
L 242.994728 -289.539878 
L 236.159895 -289.336641 
L 229.325063 -289.336641 
L 222.49023 -289.336641 
L 215.655398 -289.336641 
L 208.820565 -289.268895 
L 201.985733 -289.201149 
L 195.1509 -289.201149 
L 188.316068 -289.201149 
L 181.481235 -289.201149 
L 174.646403 -289.201149 
L 167.81157 -289.201149 
L 160.976737 -285.271897 
L 154.141905 -284.255711 
L 147.307072 -284.255711 
L 140.47224 -284.255711 
L 133.637407 -284.255711 
L 126.802575 -263.661009 
L 119.967742 -263.525518 
L 113.13291 -258.783317 
L 106.298077 -258.038114 
L 99.463245 -241.169427 
L 92.628412 -239.204801 
L 85.79358 -238.59509 
z
" id="m98d122c4ca" style="stroke:#d62728;stroke-opacity:0.2;"/>
    </defs>
    <g clip-path="url(#pc825e16dfb)">
     <use style="fill:#d62728;fill-opacity:0.2;stroke:#d62728;stroke-opacity:0.2;" x="0" xlink:href="#m98d122c4ca" y="325.986375"/>
    </g>
   </g>
   <g id="PolyCollection_2">
    <defs>
     <path d="M 85.79358 -226.333113 
L 85.79358 -203.299564 
L 92.628412 -225.655655 
L 99.463245 -245.979374 
L 106.298077 -245.979374 
L 113.13291 -256.412216 
L 119.967742 -257.563894 
L 126.802575 -257.63164 
L 133.637407 -257.63164 
L 140.47224 -258.10586 
L 147.307072 -258.241351 
L 154.141905 -258.241351 
L 160.976737 -258.376843 
L 167.81157 -258.376843 
L 174.646403 -258.512334 
L 181.481235 -258.715571 
L 188.316068 -258.918808 
L 195.1509 -258.918808 
L 201.985733 -258.918808 
L 208.820565 -258.918808 
L 215.655398 -258.918808 
L 222.49023 -258.918808 
L 229.325063 -258.918808 
L 236.159895 -258.918808 
L 242.994728 -258.918808 
L 249.82956 -258.918808 
L 256.664393 -258.918808 
L 263.499225 -258.918808 
L 270.334058 -258.918808 
L 277.168891 -258.918808 
L 284.003723 -258.918808 
L 290.838556 -258.918808 
L 297.673388 -258.94139 
L 304.508221 -258.918808 
L 311.343053 -258.918808 
L 318.177886 -258.918808 
L 325.012718 -258.918808 
L 331.847551 -259.325283 
L 338.682383 -259.325283 
L 345.517216 -259.325283 
L 352.352048 -259.325283 
L 359.186881 -259.325283 
L 366.021714 -259.325283 
L 372.856546 -259.325283 
L 379.691379 -259.325283 
L 386.526211 -259.325283 
L 393.361044 -259.325283 
L 400.195876 -259.325283 
L 407.030709 -259.325283 
L 413.865541 -259.460774 
L 420.700374 -259.52852 
L 427.535206 -259.52852 
L 434.370039 -259.52852 
L 441.204871 -259.52852 
L 448.039704 -259.52852 
L 454.874536 -259.52852 
L 461.709369 -259.52852 
L 468.544202 -259.52852 
L 475.379034 -259.52852 
L 482.213867 -259.52852 
L 489.048699 -259.52852 
L 495.883532 -259.52852 
L 502.718364 -259.52852 
L 509.553197 -259.52852 
L 516.388029 -259.52852 
L 523.222862 -259.52852 
L 530.057694 -259.52852 
L 536.892527 -259.52852 
L 543.727359 -259.52852 
L 550.562192 -259.52852 
L 557.397025 -259.52852 
L 564.231857 -259.52852 
L 571.06669 -259.52852 
L 577.901522 -259.52852 
L 584.736355 -259.52852 
L 591.571187 -259.52852 
L 598.40602 -259.52852 
L 605.240852 -259.52852 
L 612.075685 -259.52852 
L 618.910517 -259.52852 
L 625.74535 -259.52852 
L 632.580182 -259.52852 
L 639.415015 -259.52852 
L 646.249847 -259.52852 
L 653.08468 -259.52852 
L 659.919513 -259.52852 
L 666.754345 -259.52852 
L 673.589178 -259.52852 
L 680.42401 -259.52852 
L 687.258843 -259.52852 
L 694.093675 -259.52852 
L 700.928508 -259.52852 
L 707.76334 -259.52852 
L 714.598173 -259.52852 
L 721.433005 -259.52852 
L 728.267838 -259.52852 
L 735.10267 -259.52852 
L 735.10267 -265.08367 
L 735.10267 -265.08367 
L 728.267838 -265.08367 
L 721.433005 -265.08367 
L 714.598173 -265.08367 
L 707.76334 -265.08367 
L 700.928508 -265.08367 
L 694.093675 -265.08367 
L 687.258843 -265.08367 
L 680.42401 -265.08367 
L 673.589178 -265.08367 
L 666.754345 -265.08367 
L 659.919513 -265.08367 
L 653.08468 -265.08367 
L 646.249847 -265.08367 
L 639.415015 -265.08367 
L 632.580182 -264.948178 
L 625.74535 -264.948178 
L 618.910517 -264.948178 
L 612.075685 -264.948178 
L 605.240852 -264.948178 
L 598.40602 -264.948178 
L 591.571187 -264.948178 
L 584.736355 -264.948178 
L 577.901522 -264.948178 
L 571.06669 -264.948178 
L 564.231857 -264.948178 
L 557.397025 -264.948178 
L 550.562192 -264.948178 
L 543.727359 -264.948178 
L 536.892527 -264.948178 
L 530.057694 -264.948178 
L 523.222862 -264.880433 
L 516.388029 -264.880433 
L 509.553197 -264.880433 
L 502.718364 -264.744941 
L 495.883532 -264.744941 
L 489.048699 -264.744941 
L 482.213867 -264.744941 
L 475.379034 -264.541704 
L 468.544202 -264.541704 
L 461.709369 -264.473958 
L 454.874536 -264.473958 
L 448.039704 -264.473958 
L 441.204871 -264.473958 
L 434.370039 -264.473958 
L 427.535206 -264.473958 
L 420.700374 -262.577078 
L 413.865541 -259.52852 
L 407.030709 -259.52852 
L 400.195876 -259.52852 
L 393.361044 -259.52852 
L 386.526211 -259.52852 
L 379.691379 -259.52852 
L 372.856546 -259.52852 
L 366.021714 -259.52852 
L 359.186881 -259.52852 
L 352.352048 -259.52852 
L 345.517216 -259.52852 
L 338.682383 -259.52852 
L 331.847551 -259.52852 
L 325.012718 -259.52852 
L 318.177886 -259.52852 
L 311.343053 -259.52852 
L 304.508221 -259.52852 
L 297.673388 -259.52852 
L 290.838556 -259.52852 
L 284.003723 -259.52852 
L 277.168891 -259.347865 
L 270.334058 -259.393028 
L 263.499225 -259.393028 
L 256.664393 -259.393028 
L 249.82956 -259.393028 
L 242.994728 -259.393028 
L 236.159895 -259.393028 
L 229.325063 -259.257537 
L 222.49023 -259.393028 
L 215.655398 -259.260924 
L 208.820565 -259.393028 
L 201.985733 -259.393028 
L 195.1509 -259.393028 
L 188.316068 -259.393028 
L 181.481235 -259.393028 
L 174.646403 -259.393028 
L 167.81157 -259.393028 
L 160.976737 -259.393028 
L 154.141905 -258.918808 
L 147.307072 -258.918808 
L 140.47224 -258.918808 
L 133.637407 -258.918808 
L 126.802575 -258.918808 
L 119.967742 -258.309097 
L 113.13291 -257.970368 
L 106.298077 -257.089674 
L 99.463245 -249.502152 
L 92.628412 -247.198797 
L 85.79358 -226.333113 
z
" id="mce8c75dcee" style="stroke:#98df8a;stroke-opacity:0.2;"/>
    </defs>
    <g clip-path="url(#pc825e16dfb)">
     <use style="fill:#98df8a;fill-opacity:0.2;stroke:#98df8a;stroke-opacity:0.2;" x="0" xlink:href="#mce8c75dcee" y="325.986375"/>
    </g>
   </g>
   <g id="PolyCollection_3">
    <defs>
     <path d="M 85.79358 -211.700035 
L 85.79358 -49.65225 
L 92.628412 -225.926638 
L 99.463245 -228.636467 
L 106.298077 -228.771959 
L 113.13291 -228.771959 
L 119.967742 -248.756949 
L 126.802575 -253.702387 
L 133.637407 -253.702387 
L 140.47224 -254.108862 
L 147.307072 -254.718573 
L 154.141905 -254.854065 
L 160.976737 -254.854065 
L 167.81157 -258.512334 
L 174.646403 -258.512334 
L 181.481235 -258.715571 
L 188.316068 -258.715571 
L 195.1509 -258.715571 
L 201.985733 -258.715571 
L 208.820565 -258.715571 
L 215.655398 -258.715571 
L 222.49023 -258.715571 
L 229.325063 -258.715571 
L 236.159895 -258.715571 
L 242.994728 -258.760735 
L 249.82956 -258.715571 
L 256.664393 -258.715571 
L 263.499225 -258.715571 
L 270.334058 -258.715571 
L 277.168891 -258.715571 
L 284.003723 -258.715571 
L 290.838556 -258.715571 
L 297.673388 -258.851063 
L 304.508221 -258.851063 
L 311.343053 -258.851063 
L 318.177886 -258.851063 
L 325.012718 -258.851063 
L 331.847551 -258.851063 
L 338.682383 -258.851063 
L 345.517216 -259.189791 
L 352.352048 -259.189791 
L 359.186881 -259.189791 
L 366.021714 -259.189791 
L 372.856546 -259.189791 
L 379.691379 -259.189791 
L 386.526211 -259.189791 
L 393.361044 -259.189791 
L 400.195876 -259.189791 
L 407.030709 -259.189791 
L 413.865541 -259.189791 
L 420.700374 -259.189791 
L 427.535206 -259.189791 
L 434.370039 -259.189791 
L 441.204871 -259.189791 
L 448.039704 -259.393028 
L 454.874536 -259.393028 
L 461.709369 -259.393028 
L 468.544202 -259.393028 
L 475.379034 -259.393028 
L 482.213867 -259.393028 
L 489.048699 -259.393028 
L 495.883532 -259.393028 
L 502.718364 -259.393028 
L 509.553197 -259.393028 
L 516.388029 -259.393028 
L 523.222862 -259.393028 
L 530.057694 -259.393028 
L 536.892527 -259.393028 
L 543.727359 -259.393028 
L 550.562192 -259.393028 
L 557.397025 -259.393028 
L 564.231857 -259.393028 
L 571.06669 -259.393028 
L 577.901522 -259.393028 
L 584.736355 -259.393028 
L 591.571187 -259.393028 
L 598.40602 -259.393028 
L 605.240852 -259.393028 
L 612.075685 -259.393028 
L 618.910517 -259.393028 
L 625.74535 -259.393028 
L 632.580182 -259.393028 
L 639.415015 -259.393028 
L 646.249847 -259.393028 
L 653.08468 -259.393028 
L 659.919513 -259.393028 
L 666.754345 -259.393028 
L 673.589178 -259.393028 
L 680.42401 -259.393028 
L 687.258843 -259.393028 
L 694.093675 -259.393028 
L 700.928508 -259.393028 
L 707.76334 -259.393028 
L 714.598173 -259.393028 
L 721.433005 -259.393028 
L 728.267838 -259.393028 
L 735.10267 -259.393028 
L 735.10267 -260.612452 
L 735.10267 -260.612452 
L 728.267838 -260.612452 
L 721.433005 -260.612452 
L 714.598173 -260.612452 
L 707.76334 -260.612452 
L 700.928508 -260.612452 
L 694.093675 -260.612452 
L 687.258843 -260.612452 
L 680.42401 -260.612452 
L 673.589178 -260.612452 
L 666.754345 -260.612452 
L 659.919513 -260.612452 
L 653.08468 -260.612452 
L 646.249847 -260.612452 
L 639.415015 -260.612452 
L 632.580182 -260.612452 
L 625.74535 -260.612452 
L 618.910517 -260.612452 
L 612.075685 -260.612452 
L 605.240852 -260.612452 
L 598.40602 -260.612452 
L 591.571187 -260.612452 
L 584.736355 -260.612452 
L 577.901522 -260.612452 
L 571.06669 -260.612452 
L 564.231857 -260.612452 
L 557.397025 -260.612452 
L 550.562192 -260.612452 
L 543.727359 -260.612452 
L 536.892527 -260.612452 
L 530.057694 -260.612452 
L 523.222862 -260.612452 
L 516.388029 -260.612452 
L 509.553197 -260.612452 
L 502.718364 -260.612452 
L 495.883532 -260.612452 
L 489.048699 -260.612452 
L 482.213867 -260.612452 
L 475.379034 -260.612452 
L 468.544202 -260.612452 
L 461.709369 -259.731757 
L 454.874536 -259.731757 
L 448.039704 -259.731757 
L 441.204871 -259.731757 
L 434.370039 -259.731757 
L 427.535206 -259.460774 
L 420.700374 -259.460774 
L 413.865541 -259.460774 
L 407.030709 -259.460774 
L 400.195876 -259.460774 
L 393.361044 -259.460774 
L 386.526211 -259.460774 
L 379.691379 -259.460774 
L 372.856546 -259.460774 
L 366.021714 -259.460774 
L 359.186881 -259.460774 
L 352.352048 -259.460774 
L 345.517216 -259.460774 
L 338.682383 -259.325283 
L 331.847551 -259.189791 
L 325.012718 -259.189791 
L 318.177886 -259.189791 
L 311.343053 -259.189791 
L 304.508221 -259.189791 
L 297.673388 -259.189791 
L 290.838556 -259.189791 
L 284.003723 -259.189791 
L 277.168891 -259.189791 
L 270.334058 -259.189791 
L 263.499225 -259.189791 
L 256.664393 -259.189791 
L 249.82956 -259.189791 
L 242.994728 -259.189791 
L 236.159895 -259.189791 
L 229.325063 -259.189791 
L 222.49023 -258.851063 
L 215.655398 -258.851063 
L 208.820565 -258.851063 
L 201.985733 -258.851063 
L 195.1509 -258.851063 
L 188.316068 -258.851063 
L 181.481235 -258.851063 
L 174.646403 -258.851063 
L 167.81157 -258.851063 
L 160.976737 -258.851063 
L 154.141905 -258.58008 
L 147.307072 -258.512334 
L 140.47224 -258.038114 
L 133.637407 -258.038114 
L 126.802575 -257.699385 
L 119.967742 -254.718573 
L 113.13291 -254.718573 
L 106.298077 -253.97337 
L 99.463245 -253.97337 
L 92.628412 -235.682023 
L 85.79358 -211.700035 
z
" id="m1703c2ede2" style="stroke:#1f77b4;stroke-opacity:0.2;"/>
    </defs>
    <g clip-path="url(#pc825e16dfb)">
     <use style="fill:#1f77b4;fill-opacity:0.2;stroke:#1f77b4;stroke-opacity:0.2;" x="0" xlink:href="#m1703c2ede2" y="325.986375"/>
    </g>
   </g>
   <g id="PolyCollection_4">
    <defs>
     <path d="M 85.79358 -231.210805 
L 85.79358 -194.086145 
L 92.628412 -220.845708 
L 99.463245 -220.845708 
L 106.298077 -220.845708 
L 113.13291 -220.845708 
L 119.967742 -220.845708 
L 126.802575 -220.845708 
L 133.637407 -220.845708 
L 140.47224 -220.845708 
L 147.307072 -220.845708 
L 154.141905 -220.845708 
L 160.976737 -220.845708 
L 167.81157 -220.845708 
L 174.646403 -220.845708 
L 181.481235 -220.845708 
L 188.316068 -220.845708 
L 195.1509 -220.845708 
L 201.985733 -220.845708 
L 208.820565 -220.845708 
L 215.655398 -233.536742 
L 222.49023 -220.845708 
L 229.325063 -220.845708 
L 236.159895 -220.845708 
L 242.994728 -220.845708 
L 249.82956 -220.845708 
L 256.664393 -220.845708 
L 263.499225 -220.845708 
L 270.334058 -220.845708 
L 277.168891 -220.845708 
L 284.003723 -220.845708 
L 290.838556 -220.845708 
L 297.673388 -220.845708 
L 304.508221 -220.845708 
L 311.343053 -220.845708 
L 318.177886 -220.845708 
L 325.012718 -220.845708 
L 331.847551 -220.845708 
L 338.682383 -220.845708 
L 345.517216 -220.845708 
L 352.352048 -220.845708 
L 359.186881 -220.845708 
L 366.021714 -220.845708 
L 372.856546 -220.845708 
L 379.691379 -220.845708 
L 386.526211 -220.845708 
L 393.361044 -220.845708 
L 400.195876 -220.845708 
L 407.030709 -220.845708 
L 413.865541 -220.845708 
L 420.700374 -220.845708 
L 427.535206 -220.845708 
L 434.370039 -220.845708 
L 441.204871 -220.845708 
L 448.039704 -220.845708 
L 454.874536 -220.845708 
L 461.709369 -220.845708 
L 468.544202 -220.845708 
L 475.379034 -220.845708 
L 482.213867 -220.845708 
L 489.048699 -220.845708 
L 495.883532 -220.845708 
L 502.718364 -220.845708 
L 509.553197 -220.845708 
L 516.388029 -220.845708 
L 523.222862 -220.845708 
L 530.057694 -220.845708 
L 536.892527 -220.845708 
L 543.727359 -220.845708 
L 550.562192 -220.845708 
L 557.397025 -220.845708 
L 564.231857 -220.845708 
L 571.06669 -220.845708 
L 577.901522 -220.845708 
L 584.736355 -220.845708 
L 591.571187 -220.845708 
L 598.40602 -220.845708 
L 605.240852 -220.845708 
L 612.075685 -220.845708 
L 618.910517 -220.845708 
L 625.74535 -220.845708 
L 632.580182 -220.845708 
L 639.415015 -220.845708 
L 646.249847 -220.845708 
L 653.08468 -220.845708 
L 659.919513 -220.845708 
L 666.754345 -220.845708 
L 673.589178 -220.845708 
L 680.42401 -220.845708 
L 687.258843 -220.845708 
L 694.093675 -220.845708 
L 700.928508 -220.845708 
L 707.76334 -220.845708 
L 714.598173 -220.845708 
L 721.433005 -220.845708 
L 728.267838 -220.845708 
L 735.10267 -220.845708 
L 735.10267 -266.03211 
L 735.10267 -266.03211 
L 728.267838 -266.03211 
L 721.433005 -266.03211 
L 714.598173 -266.03211 
L 707.76334 -266.03211 
L 700.928508 -266.03211 
L 694.093675 -266.03211 
L 687.258843 -266.03211 
L 680.42401 -266.03211 
L 673.589178 -266.03211 
L 666.754345 -260.680197 
L 659.919513 -260.680197 
L 653.08468 -260.680197 
L 646.249847 -260.680197 
L 639.415015 -260.205977 
L 632.580182 -260.680197 
L 625.74535 -260.273723 
L 618.910517 -260.273723 
L 612.075685 -260.273723 
L 605.240852 -260.273723 
L 598.40602 -260.273723 
L 591.571187 -260.273723 
L 584.736355 -260.273723 
L 577.901522 -260.273723 
L 571.06669 -259.943463 
L 564.231857 -260.273723 
L 557.397025 -260.273723 
L 550.562192 -260.273723 
L 543.727359 -260.273723 
L 536.892527 -260.273723 
L 530.057694 -260.273723 
L 523.222862 -260.273723 
L 516.388029 -260.273723 
L 509.553197 -260.273723 
L 502.718364 -260.273723 
L 495.883532 -260.273723 
L 489.048699 -260.273723 
L 482.213867 -260.273723 
L 475.379034 -260.273723 
L 468.544202 -260.273723 
L 461.709369 -260.273723 
L 454.874536 -260.273723 
L 448.039704 -260.273723 
L 441.204871 -260.273723 
L 434.370039 -260.273723 
L 427.535206 -260.273723 
L 420.700374 -260.273723 
L 413.865541 -260.273723 
L 407.030709 -260.273723 
L 400.195876 -260.273723 
L 393.361044 -260.273723 
L 386.526211 -259.257537 
L 379.691379 -259.257537 
L 372.856546 -259.257537 
L 366.021714 -259.257537 
L 359.186881 -259.257537 
L 352.352048 -259.257537 
L 345.517216 -259.257537 
L 338.682383 -259.257537 
L 331.847551 -259.257537 
L 325.012718 -259.257537 
L 318.177886 -259.257537 
L 311.343053 -259.257537 
L 304.508221 -259.257537 
L 297.673388 -259.257537 
L 290.838556 -259.257537 
L 284.003723 -259.257537 
L 277.168891 -259.257537 
L 270.334058 -259.257537 
L 263.499225 -259.257537 
L 256.664393 -259.257537 
L 249.82956 -259.257537 
L 242.994728 -259.257537 
L 236.159895 -259.257537 
L 229.325063 -259.257537 
L 222.49023 -259.257537 
L 215.655398 -259.257537 
L 208.820565 -259.257537 
L 201.985733 -259.257537 
L 195.1509 -259.257537 
L 188.316068 -259.257537 
L 181.481235 -259.257537 
L 174.646403 -259.257537 
L 167.81157 -259.257537 
L 160.976737 -259.257537 
L 154.141905 -259.257537 
L 147.307072 -259.257537 
L 140.47224 -259.189791 
L 133.637407 -259.189791 
L 126.802575 -258.918808 
L 119.967742 -258.58008 
L 113.13291 -258.241351 
L 106.298077 -257.089674 
L 99.463245 -256.886437 
L 92.628412 -236.901446 
L 85.79358 -231.210805 
z
" id="m0203d0a50f" style="stroke:#c7c7c7;stroke-opacity:0.2;"/>
    </defs>
    <g clip-path="url(#pc825e16dfb)">
     <use style="fill:#c7c7c7;fill-opacity:0.2;stroke:#c7c7c7;stroke-opacity:0.2;" x="0" xlink:href="#m0203d0a50f" y="325.986375"/>
    </g>
   </g>
   <g id="matplotlib.axis_1">
    <g id="xtick_1">
     <g id="line2d_1">
      <defs>
       <path d="M 0 0 
L 0 3.5 
" id="m9aeda8374e" style="stroke:#000000;stroke-width:0.8;"/>
      </defs>
      <g>
       <use style="stroke:#000000;stroke-width:0.8;" x="85.79358" xlink:href="#m9aeda8374e" y="288.430125"/>
      </g>
     </g>
     <g id="text_1">
      <!-- 15m -->
      <g transform="translate(74.560767 303.028562)scale(0.1 -0.1)">
       <defs>
        <path d="M 12.40625 8.296875 
L 28.515625 8.296875 
L 28.515625 63.921875 
L 10.984375 60.40625 
L 10.984375 69.390625 
L 28.421875 72.90625 
L 38.28125 72.90625 
L 38.28125 8.296875 
L 54.390625 8.296875 
L 54.390625 0 
L 12.40625 0 
z
" id="DejaVuSans-49"/>
        <path d="M 10.796875 72.90625 
L 49.515625 72.90625 
L 49.515625 64.59375 
L 19.828125 64.59375 
L 19.828125 46.734375 
Q 21.96875 47.46875 24.109375 47.828125 
Q 26.265625 48.1875 28.421875 48.1875 
Q 40.625 48.1875 47.75 41.5 
Q 54.890625 34.8125 54.890625 23.390625 
Q 54.890625 11.625 47.5625 5.09375 
Q 40.234375 -1.421875 26.90625 -1.421875 
Q 22.3125 -1.421875 17.546875 -0.640625 
Q 12.796875 0.140625 7.71875 1.703125 
L 7.71875 11.625 
Q 12.109375 9.234375 16.796875 8.0625 
Q 21.484375 6.890625 26.703125 6.890625 
Q 35.15625 6.890625 40.078125 11.328125 
Q 45.015625 15.765625 45.015625 23.390625 
Q 45.015625 31 40.078125 35.4375 
Q 35.15625 39.890625 26.703125 39.890625 
Q 22.75 39.890625 18.8125 39.015625 
Q 14.890625 38.140625 10.796875 36.28125 
z
" id="DejaVuSans-53"/>
        <path d="M 52 44.1875 
Q 55.375 50.25 60.0625 53.125 
Q 64.75 56 71.09375 56 
Q 79.640625 56 84.28125 50.015625 
Q 88.921875 44.046875 88.921875 33.015625 
L 88.921875 0 
L 79.890625 0 
L 79.890625 32.71875 
Q 79.890625 40.578125 77.09375 44.375 
Q 74.3125 48.1875 68.609375 48.1875 
Q 61.625 48.1875 57.5625 43.546875 
Q 53.515625 38.921875 53.515625 30.90625 
L 53.515625 0 
L 44.484375 0 
L 44.484375 32.71875 
Q 44.484375 40.625 41.703125 44.40625 
Q 38.921875 48.1875 33.109375 48.1875 
Q 26.21875 48.1875 22.15625 43.53125 
Q 18.109375 38.875 18.109375 30.90625 
L 18.109375 0 
L 9.078125 0 
L 9.078125 54.6875 
L 18.109375 54.6875 
L 18.109375 46.1875 
Q 21.1875 51.21875 25.484375 53.609375 
Q 29.78125 56 35.6875 56 
Q 41.65625 56 45.828125 52.96875 
Q 50 49.953125 52 44.1875 
z
" id="DejaVuSans-109"/>
       </defs>
       <use xlink:href="#DejaVuSans-49"/>
       <use x="63.623047" xlink:href="#DejaVuSans-53"/>
       <use x="127.246094" xlink:href="#DejaVuSans-109"/>
      </g>
     </g>
    </g>
    <g id="xtick_2">
     <g id="line2d_2">
      <g>
       <use style="stroke:#000000;stroke-width:0.8;" x="140.47224" xlink:href="#m9aeda8374e" y="288.430125"/>
      </g>
     </g>
     <g id="text_2">
      <!-- 2h:15m -->
      <g transform="translate(121.205052 303.028562)scale(0.1 -0.1)">
       <defs>
        <path d="M 19.1875 8.296875 
L 53.609375 8.296875 
L 53.609375 0 
L 7.328125 0 
L 7.328125 8.296875 
Q 12.9375 14.109375 22.625 23.890625 
Q 32.328125 33.6875 34.8125 36.53125 
Q 39.546875 41.84375 41.421875 45.53125 
Q 43.3125 49.21875 43.3125 52.78125 
Q 43.3125 58.59375 39.234375 62.25 
Q 35.15625 65.921875 28.609375 65.921875 
Q 23.96875 65.921875 18.8125 64.3125 
Q 13.671875 62.703125 7.8125 59.421875 
L 7.8125 69.390625 
Q 13.765625 71.78125 18.9375 73 
Q 24.125 74.21875 28.421875 74.21875 
Q 39.75 74.21875 46.484375 68.546875 
Q 53.21875 62.890625 53.21875 53.421875 
Q 53.21875 48.921875 51.53125 44.890625 
Q 49.859375 40.875 45.40625 35.40625 
Q 44.1875 33.984375 37.640625 27.21875 
Q 31.109375 20.453125 19.1875 8.296875 
z
" id="DejaVuSans-50"/>
        <path d="M 54.890625 33.015625 
L 54.890625 0 
L 45.90625 0 
L 45.90625 32.71875 
Q 45.90625 40.484375 42.875 44.328125 
Q 39.84375 48.1875 33.796875 48.1875 
Q 26.515625 48.1875 22.3125 43.546875 
Q 18.109375 38.921875 18.109375 30.90625 
L 18.109375 0 
L 9.078125 0 
L 9.078125 75.984375 
L 18.109375 75.984375 
L 18.109375 46.1875 
Q 21.34375 51.125 25.703125 53.5625 
Q 30.078125 56 35.796875 56 
Q 45.21875 56 50.046875 50.171875 
Q 54.890625 44.34375 54.890625 33.015625 
z
" id="DejaVuSans-104"/>
        <path d="M 11.71875 12.40625 
L 22.015625 12.40625 
L 22.015625 0 
L 11.71875 0 
z
M 11.71875 51.703125 
L 22.015625 51.703125 
L 22.015625 39.3125 
L 11.71875 39.3125 
z
" id="DejaVuSans-58"/>
       </defs>
       <use xlink:href="#DejaVuSans-50"/>
       <use x="63.623047" xlink:href="#DejaVuSans-104"/>
       <use x="127.001953" xlink:href="#DejaVuSans-58"/>
       <use x="160.693359" xlink:href="#DejaVuSans-49"/>
       <use x="224.316406" xlink:href="#DejaVuSans-53"/>
       <use x="287.939453" xlink:href="#DejaVuSans-109"/>
      </g>
     </g>
    </g>
    <g id="xtick_3">
     <g id="line2d_3">
      <g>
       <use style="stroke:#000000;stroke-width:0.8;" x="195.1509" xlink:href="#m9aeda8374e" y="288.430125"/>
      </g>
     </g>
     <g id="text_3">
      <!-- 4h:15m -->
      <g transform="translate(175.883713 303.028562)scale(0.1 -0.1)">
       <defs>
        <path d="M 37.796875 64.3125 
L 12.890625 25.390625 
L 37.796875 25.390625 
z
M 35.203125 72.90625 
L 47.609375 72.90625 
L 47.609375 25.390625 
L 58.015625 25.390625 
L 58.015625 17.1875 
L 47.609375 17.1875 
L 47.609375 0 
L 37.796875 0 
L 37.796875 17.1875 
L 4.890625 17.1875 
L 4.890625 26.703125 
z
" id="DejaVuSans-52"/>
       </defs>
       <use xlink:href="#DejaVuSans-52"/>
       <use x="63.623047" xlink:href="#DejaVuSans-104"/>
       <use x="127.001953" xlink:href="#DejaVuSans-58"/>
       <use x="160.693359" xlink:href="#DejaVuSans-49"/>
       <use x="224.316406" xlink:href="#DejaVuSans-53"/>
       <use x="287.939453" xlink:href="#DejaVuSans-109"/>
      </g>
     </g>
    </g>
    <g id="xtick_4">
     <g id="line2d_4">
      <g>
       <use style="stroke:#000000;stroke-width:0.8;" x="249.82956" xlink:href="#m9aeda8374e" y="288.430125"/>
      </g>
     </g>
     <g id="text_4">
      <!-- 6h:15m -->
      <g transform="translate(230.562373 303.028562)scale(0.1 -0.1)">
       <defs>
        <path d="M 33.015625 40.375 
Q 26.375 40.375 22.484375 35.828125 
Q 18.609375 31.296875 18.609375 23.390625 
Q 18.609375 15.53125 22.484375 10.953125 
Q 26.375 6.390625 33.015625 6.390625 
Q 39.65625 6.390625 43.53125 10.953125 
Q 47.40625 15.53125 47.40625 23.390625 
Q 47.40625 31.296875 43.53125 35.828125 
Q 39.65625 40.375 33.015625 40.375 
z
M 52.59375 71.296875 
L 52.59375 62.3125 
Q 48.875 64.0625 45.09375 64.984375 
Q 41.3125 65.921875 37.59375 65.921875 
Q 27.828125 65.921875 22.671875 59.328125 
Q 17.53125 52.734375 16.796875 39.40625 
Q 19.671875 43.65625 24.015625 45.921875 
Q 28.375 48.1875 33.59375 48.1875 
Q 44.578125 48.1875 50.953125 41.515625 
Q 57.328125 34.859375 57.328125 23.390625 
Q 57.328125 12.15625 50.6875 5.359375 
Q 44.046875 -1.421875 33.015625 -1.421875 
Q 20.359375 -1.421875 13.671875 8.265625 
Q 6.984375 17.96875 6.984375 36.375 
Q 6.984375 53.65625 15.1875 63.9375 
Q 23.390625 74.21875 37.203125 74.21875 
Q 40.921875 74.21875 44.703125 73.484375 
Q 48.484375 72.75 52.59375 71.296875 
z
" id="DejaVuSans-54"/>
       </defs>
       <use xlink:href="#DejaVuSans-54"/>
       <use x="63.623047" xlink:href="#DejaVuSans-104"/>
       <use x="127.001953" xlink:href="#DejaVuSans-58"/>
       <use x="160.693359" xlink:href="#DejaVuSans-49"/>
       <use x="224.316406" xlink:href="#DejaVuSans-53"/>
       <use x="287.939453" xlink:href="#DejaVuSans-109"/>
      </g>
     </g>
    </g>
    <g id="xtick_5">
     <g id="line2d_5">
      <g>
       <use style="stroke:#000000;stroke-width:0.8;" x="304.508221" xlink:href="#m9aeda8374e" y="288.430125"/>
      </g>
     </g>
     <g id="text_5">
      <!-- 8h:15m -->
      <g transform="translate(285.241033 303.028562)scale(0.1 -0.1)">
       <defs>
        <path d="M 31.78125 34.625 
Q 24.75 34.625 20.71875 30.859375 
Q 16.703125 27.09375 16.703125 20.515625 
Q 16.703125 13.921875 20.71875 10.15625 
Q 24.75 6.390625 31.78125 6.390625 
Q 38.8125 6.390625 42.859375 10.171875 
Q 46.921875 13.96875 46.921875 20.515625 
Q 46.921875 27.09375 42.890625 30.859375 
Q 38.875 34.625 31.78125 34.625 
z
M 21.921875 38.8125 
Q 15.578125 40.375 12.03125 44.71875 
Q 8.5 49.078125 8.5 55.328125 
Q 8.5 64.0625 14.71875 69.140625 
Q 20.953125 74.21875 31.78125 74.21875 
Q 42.671875 74.21875 48.875 69.140625 
Q 55.078125 64.0625 55.078125 55.328125 
Q 55.078125 49.078125 51.53125 44.71875 
Q 48 40.375 41.703125 38.8125 
Q 48.828125 37.15625 52.796875 32.3125 
Q 56.78125 27.484375 56.78125 20.515625 
Q 56.78125 9.90625 50.3125 4.234375 
Q 43.84375 -1.421875 31.78125 -1.421875 
Q 19.734375 -1.421875 13.25 4.234375 
Q 6.78125 9.90625 6.78125 20.515625 
Q 6.78125 27.484375 10.78125 32.3125 
Q 14.796875 37.15625 21.921875 38.8125 
z
M 18.3125 54.390625 
Q 18.3125 48.734375 21.84375 45.5625 
Q 25.390625 42.390625 31.78125 42.390625 
Q 38.140625 42.390625 41.71875 45.5625 
Q 45.3125 48.734375 45.3125 54.390625 
Q 45.3125 60.0625 41.71875 63.234375 
Q 38.140625 66.40625 31.78125 66.40625 
Q 25.390625 66.40625 21.84375 63.234375 
Q 18.3125 60.0625 18.3125 54.390625 
z
" id="DejaVuSans-56"/>
       </defs>
       <use xlink:href="#DejaVuSans-56"/>
       <use x="63.623047" xlink:href="#DejaVuSans-104"/>
       <use x="127.001953" xlink:href="#DejaVuSans-58"/>
       <use x="160.693359" xlink:href="#DejaVuSans-49"/>
       <use x="224.316406" xlink:href="#DejaVuSans-53"/>
       <use x="287.939453" xlink:href="#DejaVuSans-109"/>
      </g>
     </g>
    </g>
    <g id="xtick_6">
     <g id="line2d_6">
      <g>
       <use style="stroke:#000000;stroke-width:0.8;" x="359.186881" xlink:href="#m9aeda8374e" y="288.430125"/>
      </g>
     </g>
     <g id="text_6">
      <!-- 10h:15m -->
      <g transform="translate(336.738443 303.028562)scale(0.1 -0.1)">
       <defs>
        <path d="M 31.78125 66.40625 
Q 24.171875 66.40625 20.328125 58.90625 
Q 16.5 51.421875 16.5 36.375 
Q 16.5 21.390625 20.328125 13.890625 
Q 24.171875 6.390625 31.78125 6.390625 
Q 39.453125 6.390625 43.28125 13.890625 
Q 47.125 21.390625 47.125 36.375 
Q 47.125 51.421875 43.28125 58.90625 
Q 39.453125 66.40625 31.78125 66.40625 
z
M 31.78125 74.21875 
Q 44.046875 74.21875 50.515625 64.515625 
Q 56.984375 54.828125 56.984375 36.375 
Q 56.984375 17.96875 50.515625 8.265625 
Q 44.046875 -1.421875 31.78125 -1.421875 
Q 19.53125 -1.421875 13.0625 8.265625 
Q 6.59375 17.96875 6.59375 36.375 
Q 6.59375 54.828125 13.0625 64.515625 
Q 19.53125 74.21875 31.78125 74.21875 
z
" id="DejaVuSans-48"/>
       </defs>
       <use xlink:href="#DejaVuSans-49"/>
       <use x="63.623047" xlink:href="#DejaVuSans-48"/>
       <use x="127.246094" xlink:href="#DejaVuSans-104"/>
       <use x="190.625" xlink:href="#DejaVuSans-58"/>
       <use x="224.316406" xlink:href="#DejaVuSans-49"/>
       <use x="287.939453" xlink:href="#DejaVuSans-53"/>
       <use x="351.5625" xlink:href="#DejaVuSans-109"/>
      </g>
     </g>
    </g>
    <g id="xtick_7">
     <g id="line2d_7">
      <g>
       <use style="stroke:#000000;stroke-width:0.8;" x="413.865541" xlink:href="#m9aeda8374e" y="288.430125"/>
      </g>
     </g>
     <g id="text_7">
      <!-- 12h:15m -->
      <g transform="translate(391.417104 303.028562)scale(0.1 -0.1)">
       <use xlink:href="#DejaVuSans-49"/>
       <use x="63.623047" xlink:href="#DejaVuSans-50"/>
       <use x="127.246094" xlink:href="#DejaVuSans-104"/>
       <use x="190.625" xlink:href="#DejaVuSans-58"/>
       <use x="224.316406" xlink:href="#DejaVuSans-49"/>
       <use x="287.939453" xlink:href="#DejaVuSans-53"/>
       <use x="351.5625" xlink:href="#DejaVuSans-109"/>
      </g>
     </g>
    </g>
    <g id="xtick_8">
     <g id="line2d_8">
      <g>
       <use style="stroke:#000000;stroke-width:0.8;" x="468.544202" xlink:href="#m9aeda8374e" y="288.430125"/>
      </g>
     </g>
     <g id="text_8">
      <!-- 14h:15m -->
      <g transform="translate(446.095764 303.028562)scale(0.1 -0.1)">
       <use xlink:href="#DejaVuSans-49"/>
       <use x="63.623047" xlink:href="#DejaVuSans-52"/>
       <use x="127.246094" xlink:href="#DejaVuSans-104"/>
       <use x="190.625" xlink:href="#DejaVuSans-58"/>
       <use x="224.316406" xlink:href="#DejaVuSans-49"/>
       <use x="287.939453" xlink:href="#DejaVuSans-53"/>
       <use x="351.5625" xlink:href="#DejaVuSans-109"/>
      </g>
     </g>
    </g>
    <g id="xtick_9">
     <g id="line2d_9">
      <g>
       <use style="stroke:#000000;stroke-width:0.8;" x="523.222862" xlink:href="#m9aeda8374e" y="288.430125"/>
      </g>
     </g>
     <g id="text_9">
      <!-- 16h:15m -->
      <g transform="translate(500.774424 303.028562)scale(0.1 -0.1)">
       <use xlink:href="#DejaVuSans-49"/>
       <use x="63.623047" xlink:href="#DejaVuSans-54"/>
       <use x="127.246094" xlink:href="#DejaVuSans-104"/>
       <use x="190.625" xlink:href="#DejaVuSans-58"/>
       <use x="224.316406" xlink:href="#DejaVuSans-49"/>
       <use x="287.939453" xlink:href="#DejaVuSans-53"/>
       <use x="351.5625" xlink:href="#DejaVuSans-109"/>
      </g>
     </g>
    </g>
    <g id="xtick_10">
     <g id="line2d_10">
      <g>
       <use style="stroke:#000000;stroke-width:0.8;" x="577.901522" xlink:href="#m9aeda8374e" y="288.430125"/>
      </g>
     </g>
     <g id="text_10">
      <!-- 18h:15m -->
      <g transform="translate(555.453085 303.028562)scale(0.1 -0.1)">
       <use xlink:href="#DejaVuSans-49"/>
       <use x="63.623047" xlink:href="#DejaVuSans-56"/>
       <use x="127.246094" xlink:href="#DejaVuSans-104"/>
       <use x="190.625" xlink:href="#DejaVuSans-58"/>
       <use x="224.316406" xlink:href="#DejaVuSans-49"/>
       <use x="287.939453" xlink:href="#DejaVuSans-53"/>
       <use x="351.5625" xlink:href="#DejaVuSans-109"/>
      </g>
     </g>
    </g>
    <g id="xtick_11">
     <g id="line2d_11">
      <g>
       <use style="stroke:#000000;stroke-width:0.8;" x="632.580182" xlink:href="#m9aeda8374e" y="288.430125"/>
      </g>
     </g>
     <g id="text_11">
      <!-- 20h:15m -->
      <g transform="translate(610.131745 303.028562)scale(0.1 -0.1)">
       <use xlink:href="#DejaVuSans-50"/>
       <use x="63.623047" xlink:href="#DejaVuSans-48"/>
       <use x="127.246094" xlink:href="#DejaVuSans-104"/>
       <use x="190.625" xlink:href="#DejaVuSans-58"/>
       <use x="224.316406" xlink:href="#DejaVuSans-49"/>
       <use x="287.939453" xlink:href="#DejaVuSans-53"/>
       <use x="351.5625" xlink:href="#DejaVuSans-109"/>
      </g>
     </g>
    </g>
    <g id="xtick_12">
     <g id="line2d_12">
      <g>
       <use style="stroke:#000000;stroke-width:0.8;" x="687.258843" xlink:href="#m9aeda8374e" y="288.430125"/>
      </g>
     </g>
     <g id="text_12">
      <!-- 22h:15m -->
      <g transform="translate(664.810405 303.028562)scale(0.1 -0.1)">
       <use xlink:href="#DejaVuSans-50"/>
       <use x="63.623047" xlink:href="#DejaVuSans-50"/>
       <use x="127.246094" xlink:href="#DejaVuSans-104"/>
       <use x="190.625" xlink:href="#DejaVuSans-58"/>
       <use x="224.316406" xlink:href="#DejaVuSans-49"/>
       <use x="287.939453" xlink:href="#DejaVuSans-53"/>
       <use x="351.5625" xlink:href="#DejaVuSans-109"/>
      </g>
     </g>
    </g>
    <g id="text_13">
     <!-- Time (hour:minute) -->
     <g transform="translate(362.041094 316.706687)scale(0.1 -0.1)">
      <defs>
       <path d="M -0.296875 72.90625 
L 61.375 72.90625 
L 61.375 64.59375 
L 35.5 64.59375 
L 35.5 0 
L 25.59375 0 
L 25.59375 64.59375 
L -0.296875 64.59375 
z
" id="DejaVuSans-84"/>
       <path d="M 9.421875 54.6875 
L 18.40625 54.6875 
L 18.40625 0 
L 9.421875 0 
z
M 9.421875 75.984375 
L 18.40625 75.984375 
L 18.40625 64.59375 
L 9.421875 64.59375 
z
" id="DejaVuSans-105"/>
       <path d="M 56.203125 29.59375 
L 56.203125 25.203125 
L 14.890625 25.203125 
Q 15.484375 15.921875 20.484375 11.0625 
Q 25.484375 6.203125 34.421875 6.203125 
Q 39.59375 6.203125 44.453125 7.46875 
Q 49.3125 8.734375 54.109375 11.28125 
L 54.109375 2.78125 
Q 49.265625 0.734375 44.1875 -0.34375 
Q 39.109375 -1.421875 33.890625 -1.421875 
Q 20.796875 -1.421875 13.15625 6.1875 
Q 5.515625 13.8125 5.515625 26.8125 
Q 5.515625 40.234375 12.765625 48.109375 
Q 20.015625 56 32.328125 56 
Q 43.359375 56 49.78125 48.890625 
Q 56.203125 41.796875 56.203125 29.59375 
z
M 47.21875 32.234375 
Q 47.125 39.59375 43.09375 43.984375 
Q 39.0625 48.390625 32.421875 48.390625 
Q 24.90625 48.390625 20.390625 44.140625 
Q 15.875 39.890625 15.1875 32.171875 
z
" id="DejaVuSans-101"/>
       <path id="DejaVuSans-32"/>
       <path d="M 31 75.875 
Q 24.46875 64.65625 21.28125 53.65625 
Q 18.109375 42.671875 18.109375 31.390625 
Q 18.109375 20.125 21.3125 9.0625 
Q 24.515625 -2 31 -13.1875 
L 23.1875 -13.1875 
Q 15.875 -1.703125 12.234375 9.375 
Q 8.59375 20.453125 8.59375 31.390625 
Q 8.59375 42.28125 12.203125 53.3125 
Q 15.828125 64.359375 23.1875 75.875 
z
" id="DejaVuSans-40"/>
       <path d="M 30.609375 48.390625 
Q 23.390625 48.390625 19.1875 42.75 
Q 14.984375 37.109375 14.984375 27.296875 
Q 14.984375 17.484375 19.15625 11.84375 
Q 23.34375 6.203125 30.609375 6.203125 
Q 37.796875 6.203125 41.984375 11.859375 
Q 46.1875 17.53125 46.1875 27.296875 
Q 46.1875 37.015625 41.984375 42.703125 
Q 37.796875 48.390625 30.609375 48.390625 
z
M 30.609375 56 
Q 42.328125 56 49.015625 48.375 
Q 55.71875 40.765625 55.71875 27.296875 
Q 55.71875 13.875 49.015625 6.21875 
Q 42.328125 -1.421875 30.609375 -1.421875 
Q 18.84375 -1.421875 12.171875 6.21875 
Q 5.515625 13.875 5.515625 27.296875 
Q 5.515625 40.765625 12.171875 48.375 
Q 18.84375 56 30.609375 56 
z
" id="DejaVuSans-111"/>
       <path d="M 8.5 21.578125 
L 8.5 54.6875 
L 17.484375 54.6875 
L 17.484375 21.921875 
Q 17.484375 14.15625 20.5 10.265625 
Q 23.53125 6.390625 29.59375 6.390625 
Q 36.859375 6.390625 41.078125 11.03125 
Q 45.3125 15.671875 45.3125 23.6875 
L 45.3125 54.6875 
L 54.296875 54.6875 
L 54.296875 0 
L 45.3125 0 
L 45.3125 8.40625 
Q 42.046875 3.421875 37.71875 1 
Q 33.40625 -1.421875 27.6875 -1.421875 
Q 18.265625 -1.421875 13.375 4.4375 
Q 8.5 10.296875 8.5 21.578125 
z
M 31.109375 56 
z
" id="DejaVuSans-117"/>
       <path d="M 41.109375 46.296875 
Q 39.59375 47.171875 37.8125 47.578125 
Q 36.03125 48 33.890625 48 
Q 26.265625 48 22.1875 43.046875 
Q 18.109375 38.09375 18.109375 28.8125 
L 18.109375 0 
L 9.078125 0 
L 9.078125 54.6875 
L 18.109375 54.6875 
L 18.109375 46.1875 
Q 20.953125 51.171875 25.484375 53.578125 
Q 30.03125 56 36.53125 56 
Q 37.453125 56 38.578125 55.875 
Q 39.703125 55.765625 41.0625 55.515625 
z
" id="DejaVuSans-114"/>
       <path d="M 54.890625 33.015625 
L 54.890625 0 
L 45.90625 0 
L 45.90625 32.71875 
Q 45.90625 40.484375 42.875 44.328125 
Q 39.84375 48.1875 33.796875 48.1875 
Q 26.515625 48.1875 22.3125 43.546875 
Q 18.109375 38.921875 18.109375 30.90625 
L 18.109375 0 
L 9.078125 0 
L 9.078125 54.6875 
L 18.109375 54.6875 
L 18.109375 46.1875 
Q 21.34375 51.125 25.703125 53.5625 
Q 30.078125 56 35.796875 56 
Q 45.21875 56 50.046875 50.171875 
Q 54.890625 44.34375 54.890625 33.015625 
z
" id="DejaVuSans-110"/>
       <path d="M 18.3125 70.21875 
L 18.3125 54.6875 
L 36.8125 54.6875 
L 36.8125 47.703125 
L 18.3125 47.703125 
L 18.3125 18.015625 
Q 18.3125 11.328125 20.140625 9.421875 
Q 21.96875 7.515625 27.59375 7.515625 
L 36.8125 7.515625 
L 36.8125 0 
L 27.59375 0 
Q 17.1875 0 13.234375 3.875 
Q 9.28125 7.765625 9.28125 18.015625 
L 9.28125 47.703125 
L 2.6875 47.703125 
L 2.6875 54.6875 
L 9.28125 54.6875 
L 9.28125 70.21875 
z
" id="DejaVuSans-116"/>
       <path d="M 8.015625 75.875 
L 15.828125 75.875 
Q 23.140625 64.359375 26.78125 53.3125 
Q 30.421875 42.28125 30.421875 31.390625 
Q 30.421875 20.453125 26.78125 9.375 
Q 23.140625 -1.703125 15.828125 -13.1875 
L 8.015625 -13.1875 
Q 14.5 -2 17.703125 9.0625 
Q 20.90625 20.125 20.90625 31.390625 
Q 20.90625 42.671875 17.703125 53.65625 
Q 14.5 64.65625 8.015625 75.875 
z
" id="DejaVuSans-41"/>
      </defs>
      <use xlink:href="#DejaVuSans-84"/>
      <use x="57.958984" xlink:href="#DejaVuSans-105"/>
      <use x="85.742188" xlink:href="#DejaVuSans-109"/>
      <use x="183.154297" xlink:href="#DejaVuSans-101"/>
      <use x="244.677734" xlink:href="#DejaVuSans-32"/>
      <use x="276.464844" xlink:href="#DejaVuSans-40"/>
      <use x="315.478516" xlink:href="#DejaVuSans-104"/>
      <use x="378.857422" xlink:href="#DejaVuSans-111"/>
      <use x="440.039062" xlink:href="#DejaVuSans-117"/>
      <use x="503.417969" xlink:href="#DejaVuSans-114"/>
      <use x="542.78125" xlink:href="#DejaVuSans-58"/>
      <use x="576.472656" xlink:href="#DejaVuSans-109"/>
      <use x="673.884766" xlink:href="#DejaVuSans-105"/>
      <use x="701.667969" xlink:href="#DejaVuSans-110"/>
      <use x="765.046875" xlink:href="#DejaVuSans-117"/>
      <use x="828.425781" xlink:href="#DejaVuSans-116"/>
      <use x="867.634766" xlink:href="#DejaVuSans-101"/>
      <use x="929.158203" xlink:href="#DejaVuSans-41"/>
     </g>
    </g>
   </g>
   <g id="matplotlib.axis_2">
    <g id="ytick_1">
     <g id="line2d_13">
      <defs>
       <path d="M 0 0 
L -3.5 0 
" id="m438b1e2de2" style="stroke:#000000;stroke-width:0.8;"/>
      </defs>
      <g>
       <use style="stroke:#000000;stroke-width:0.8;" x="53.328125" xlink:href="#m438b1e2de2" y="258.178269"/>
      </g>
     </g>
     <g id="text_14">
      <!-- 500 -->
      <g transform="translate(27.240625 261.977488)scale(0.1 -0.1)">
       <use xlink:href="#DejaVuSans-53"/>
       <use x="63.623047" xlink:href="#DejaVuSans-48"/>
       <use x="127.246094" xlink:href="#DejaVuSans-48"/>
      </g>
     </g>
    </g>
    <g id="ytick_2">
     <g id="line2d_14">
      <g>
       <use style="stroke:#000000;stroke-width:0.8;" x="53.328125" xlink:href="#m438b1e2de2" y="224.305405"/>
      </g>
     </g>
     <g id="text_15">
      <!-- 1000 -->
      <g transform="translate(20.878125 228.104624)scale(0.1 -0.1)">
       <use xlink:href="#DejaVuSans-49"/>
       <use x="63.623047" xlink:href="#DejaVuSans-48"/>
       <use x="127.246094" xlink:href="#DejaVuSans-48"/>
       <use x="190.869141" xlink:href="#DejaVuSans-48"/>
      </g>
     </g>
    </g>
    <g id="ytick_3">
     <g id="line2d_15">
      <g>
       <use style="stroke:#000000;stroke-width:0.8;" x="53.328125" xlink:href="#m438b1e2de2" y="190.43254"/>
      </g>
     </g>
     <g id="text_16">
      <!-- 1500 -->
      <g transform="translate(20.878125 194.231759)scale(0.1 -0.1)">
       <use xlink:href="#DejaVuSans-49"/>
       <use x="63.623047" xlink:href="#DejaVuSans-53"/>
       <use x="127.246094" xlink:href="#DejaVuSans-48"/>
       <use x="190.869141" xlink:href="#DejaVuSans-48"/>
      </g>
     </g>
    </g>
    <g id="ytick_4">
     <g id="line2d_16">
      <g>
       <use style="stroke:#000000;stroke-width:0.8;" x="53.328125" xlink:href="#m438b1e2de2" y="156.559675"/>
      </g>
     </g>
     <g id="text_17">
      <!-- 2000 -->
      <g transform="translate(20.878125 160.358894)scale(0.1 -0.1)">
       <use xlink:href="#DejaVuSans-50"/>
       <use x="63.623047" xlink:href="#DejaVuSans-48"/>
       <use x="127.246094" xlink:href="#DejaVuSans-48"/>
       <use x="190.869141" xlink:href="#DejaVuSans-48"/>
      </g>
     </g>
    </g>
    <g id="ytick_5">
     <g id="line2d_17">
      <g>
       <use style="stroke:#000000;stroke-width:0.8;" x="53.328125" xlink:href="#m438b1e2de2" y="122.686811"/>
      </g>
     </g>
     <g id="text_18">
      <!-- 2500 -->
      <g transform="translate(20.878125 126.486029)scale(0.1 -0.1)">
       <use xlink:href="#DejaVuSans-50"/>
       <use x="63.623047" xlink:href="#DejaVuSans-53"/>
       <use x="127.246094" xlink:href="#DejaVuSans-48"/>
       <use x="190.869141" xlink:href="#DejaVuSans-48"/>
      </g>
     </g>
    </g>
    <g id="ytick_6">
     <g id="line2d_18">
      <g>
       <use style="stroke:#000000;stroke-width:0.8;" x="53.328125" xlink:href="#m438b1e2de2" y="88.813946"/>
      </g>
     </g>
     <g id="text_19">
      <!-- 3000 -->
      <g transform="translate(20.878125 92.613165)scale(0.1 -0.1)">
       <defs>
        <path d="M 40.578125 39.3125 
Q 47.65625 37.796875 51.625 33 
Q 55.609375 28.21875 55.609375 21.1875 
Q 55.609375 10.40625 48.1875 4.484375 
Q 40.765625 -1.421875 27.09375 -1.421875 
Q 22.515625 -1.421875 17.65625 -0.515625 
Q 12.796875 0.390625 7.625 2.203125 
L 7.625 11.71875 
Q 11.71875 9.328125 16.59375 8.109375 
Q 21.484375 6.890625 26.8125 6.890625 
Q 36.078125 6.890625 40.9375 10.546875 
Q 45.796875 14.203125 45.796875 21.1875 
Q 45.796875 27.640625 41.28125 31.265625 
Q 36.765625 34.90625 28.71875 34.90625 
L 20.21875 34.90625 
L 20.21875 43.015625 
L 29.109375 43.015625 
Q 36.375 43.015625 40.234375 45.921875 
Q 44.09375 48.828125 44.09375 54.296875 
Q 44.09375 59.90625 40.109375 62.90625 
Q 36.140625 65.921875 28.71875 65.921875 
Q 24.65625 65.921875 20.015625 65.03125 
Q 15.375 64.15625 9.8125 62.3125 
L 9.8125 71.09375 
Q 15.4375 72.65625 20.34375 73.4375 
Q 25.25 74.21875 29.59375 74.21875 
Q 40.828125 74.21875 47.359375 69.109375 
Q 53.90625 64.015625 53.90625 55.328125 
Q 53.90625 49.265625 50.4375 45.09375 
Q 46.96875 40.921875 40.578125 39.3125 
z
" id="DejaVuSans-51"/>
       </defs>
       <use xlink:href="#DejaVuSans-51"/>
       <use x="63.623047" xlink:href="#DejaVuSans-48"/>
       <use x="127.246094" xlink:href="#DejaVuSans-48"/>
       <use x="190.869141" xlink:href="#DejaVuSans-48"/>
      </g>
     </g>
    </g>
    <g id="ytick_7">
     <g id="line2d_19">
      <g>
       <use style="stroke:#000000;stroke-width:0.8;" x="53.328125" xlink:href="#m438b1e2de2" y="54.941081"/>
      </g>
     </g>
     <g id="text_20">
      <!-- 3500 -->
      <g transform="translate(20.878125 58.7403)scale(0.1 -0.1)">
       <use xlink:href="#DejaVuSans-51"/>
       <use x="63.623047" xlink:href="#DejaVuSans-53"/>
       <use x="127.246094" xlink:href="#DejaVuSans-48"/>
       <use x="190.869141" xlink:href="#DejaVuSans-48"/>
      </g>
     </g>
    </g>
    <g id="text_21">
     <!-- Edge coverage -->
     <g transform="translate(14.798438 192.762406)rotate(-90)scale(0.1 -0.1)">
      <defs>
       <path d="M 9.8125 72.90625 
L 55.90625 72.90625 
L 55.90625 64.59375 
L 19.671875 64.59375 
L 19.671875 43.015625 
L 54.390625 43.015625 
L 54.390625 34.71875 
L 19.671875 34.71875 
L 19.671875 8.296875 
L 56.78125 8.296875 
L 56.78125 0 
L 9.8125 0 
z
" id="DejaVuSans-69"/>
       <path d="M 45.40625 46.390625 
L 45.40625 75.984375 
L 54.390625 75.984375 
L 54.390625 0 
L 45.40625 0 
L 45.40625 8.203125 
Q 42.578125 3.328125 38.25 0.953125 
Q 33.9375 -1.421875 27.875 -1.421875 
Q 17.96875 -1.421875 11.734375 6.484375 
Q 5.515625 14.40625 5.515625 27.296875 
Q 5.515625 40.1875 11.734375 48.09375 
Q 17.96875 56 27.875 56 
Q 33.9375 56 38.25 53.625 
Q 42.578125 51.265625 45.40625 46.390625 
z
M 14.796875 27.296875 
Q 14.796875 17.390625 18.875 11.75 
Q 22.953125 6.109375 30.078125 6.109375 
Q 37.203125 6.109375 41.296875 11.75 
Q 45.40625 17.390625 45.40625 27.296875 
Q 45.40625 37.203125 41.296875 42.84375 
Q 37.203125 48.484375 30.078125 48.484375 
Q 22.953125 48.484375 18.875 42.84375 
Q 14.796875 37.203125 14.796875 27.296875 
z
" id="DejaVuSans-100"/>
       <path d="M 45.40625 27.984375 
Q 45.40625 37.75 41.375 43.109375 
Q 37.359375 48.484375 30.078125 48.484375 
Q 22.859375 48.484375 18.828125 43.109375 
Q 14.796875 37.75 14.796875 27.984375 
Q 14.796875 18.265625 18.828125 12.890625 
Q 22.859375 7.515625 30.078125 7.515625 
Q 37.359375 7.515625 41.375 12.890625 
Q 45.40625 18.265625 45.40625 27.984375 
z
M 54.390625 6.78125 
Q 54.390625 -7.171875 48.1875 -13.984375 
Q 42 -20.796875 29.203125 -20.796875 
Q 24.46875 -20.796875 20.265625 -20.09375 
Q 16.0625 -19.390625 12.109375 -17.921875 
L 12.109375 -9.1875 
Q 16.0625 -11.328125 19.921875 -12.34375 
Q 23.78125 -13.375 27.78125 -13.375 
Q 36.625 -13.375 41.015625 -8.765625 
Q 45.40625 -4.15625 45.40625 5.171875 
L 45.40625 9.625 
Q 42.625 4.78125 38.28125 2.390625 
Q 33.9375 0 27.875 0 
Q 17.828125 0 11.671875 7.65625 
Q 5.515625 15.328125 5.515625 27.984375 
Q 5.515625 40.671875 11.671875 48.328125 
Q 17.828125 56 27.875 56 
Q 33.9375 56 38.28125 53.609375 
Q 42.625 51.21875 45.40625 46.390625 
L 45.40625 54.6875 
L 54.390625 54.6875 
z
" id="DejaVuSans-103"/>
       <path d="M 48.78125 52.59375 
L 48.78125 44.1875 
Q 44.96875 46.296875 41.140625 47.34375 
Q 37.3125 48.390625 33.40625 48.390625 
Q 24.65625 48.390625 19.8125 42.84375 
Q 14.984375 37.3125 14.984375 27.296875 
Q 14.984375 17.28125 19.8125 11.734375 
Q 24.65625 6.203125 33.40625 6.203125 
Q 37.3125 6.203125 41.140625 7.25 
Q 44.96875 8.296875 48.78125 10.40625 
L 48.78125 2.09375 
Q 45.015625 0.34375 40.984375 -0.53125 
Q 36.96875 -1.421875 32.421875 -1.421875 
Q 20.0625 -1.421875 12.78125 6.34375 
Q 5.515625 14.109375 5.515625 27.296875 
Q 5.515625 40.671875 12.859375 48.328125 
Q 20.21875 56 33.015625 56 
Q 37.15625 56 41.109375 55.140625 
Q 45.0625 54.296875 48.78125 52.59375 
z
" id="DejaVuSans-99"/>
       <path d="M 2.984375 54.6875 
L 12.5 54.6875 
L 29.59375 8.796875 
L 46.6875 54.6875 
L 56.203125 54.6875 
L 35.6875 0 
L 23.484375 0 
z
" id="DejaVuSans-118"/>
       <path d="M 34.28125 27.484375 
Q 23.390625 27.484375 19.1875 25 
Q 14.984375 22.515625 14.984375 16.5 
Q 14.984375 11.71875 18.140625 8.90625 
Q 21.296875 6.109375 26.703125 6.109375 
Q 34.1875 6.109375 38.703125 11.40625 
Q 43.21875 16.703125 43.21875 25.484375 
L 43.21875 27.484375 
z
M 52.203125 31.203125 
L 52.203125 0 
L 43.21875 0 
L 43.21875 8.296875 
Q 40.140625 3.328125 35.546875 0.953125 
Q 30.953125 -1.421875 24.3125 -1.421875 
Q 15.921875 -1.421875 10.953125 3.296875 
Q 6 8.015625 6 15.921875 
Q 6 25.140625 12.171875 29.828125 
Q 18.359375 34.515625 30.609375 34.515625 
L 43.21875 34.515625 
L 43.21875 35.40625 
Q 43.21875 41.609375 39.140625 45 
Q 35.0625 48.390625 27.6875 48.390625 
Q 23 48.390625 18.546875 47.265625 
Q 14.109375 46.140625 10.015625 43.890625 
L 10.015625 52.203125 
Q 14.9375 54.109375 19.578125 55.046875 
Q 24.21875 56 28.609375 56 
Q 40.484375 56 46.34375 49.84375 
Q 52.203125 43.703125 52.203125 31.203125 
z
" id="DejaVuSans-97"/>
      </defs>
      <use xlink:href="#DejaVuSans-69"/>
      <use x="63.183594" xlink:href="#DejaVuSans-100"/>
      <use x="126.660156" xlink:href="#DejaVuSans-103"/>
      <use x="190.136719" xlink:href="#DejaVuSans-101"/>
      <use x="251.660156" xlink:href="#DejaVuSans-32"/>
      <use x="283.447266" xlink:href="#DejaVuSans-99"/>
      <use x="338.427734" xlink:href="#DejaVuSans-111"/>
      <use x="399.609375" xlink:href="#DejaVuSans-118"/>
      <use x="458.789062" xlink:href="#DejaVuSans-101"/>
      <use x="520.3125" xlink:href="#DejaVuSans-114"/>
      <use x="561.425781" xlink:href="#DejaVuSans-97"/>
      <use x="622.705078" xlink:href="#DejaVuSans-103"/>
      <use x="686.181641" xlink:href="#DejaVuSans-101"/>
     </g>
    </g>
   </g>
   <g id="line2d_20">
    <path clip-path="url(#pc825e16dfb)" d="M 85.79358 89.017183 
L 92.628412 86.871902 
L 99.463245 86.171862 
L 106.298077 68.987029 
L 113.13291 68.219244 
L 119.967742 65.351341 
L 126.802575 63.386715 
L 133.637407 55.957267 
L 140.47224 55.957267 
L 147.307072 55.957267 
L 154.141905 55.821776 
L 160.976737 55.483047 
L 167.81157 54.173296 
L 174.646403 54.128132 
L 181.481235 54.128132 
L 188.316068 54.128132 
L 195.1509 51.598958 
L 201.985733 51.034411 
L 208.820565 51.011829 
L 215.655398 50.989247 
L 222.49023 50.989247 
L 229.325063 50.989247 
L 236.159895 50.989247 
L 242.994728 50.921501 
L 249.82956 43.266234 
L 256.664393 43.198488 
L 263.499225 43.130742 
L 270.334058 43.130742 
L 277.168891 43.062996 
L 284.003723 43.062996 
L 290.838556 43.062996 
L 297.673388 43.017833 
L 304.508221 43.017833 
L 311.343053 43.017833 
L 318.177886 43.017833 
L 325.012718 43.017833 
L 331.847551 42.995251 
L 338.682383 42.995251 
L 345.517216 42.972669 
L 352.352048 42.972669 
L 359.186881 42.972669 
L 366.021714 42.972669 
L 372.856546 42.972669 
L 379.691379 42.972669 
L 386.526211 42.972669 
L 393.361044 42.972669 
L 400.195876 42.972669 
L 407.030709 42.972669 
L 413.865541 42.972669 
L 420.700374 42.972669 
L 427.535206 42.950087 
L 434.370039 42.950087 
L 441.204871 42.950087 
L 448.039704 42.904923 
L 454.874536 42.904923 
L 461.709369 42.904923 
L 468.544202 42.904923 
L 475.379034 42.904923 
L 482.213867 42.904923 
L 489.048699 42.904923 
L 495.883532 42.904923 
L 502.718364 42.904923 
L 509.553197 42.904923 
L 516.388029 42.904923 
L 523.222862 42.904923 
L 530.057694 42.904923 
L 536.892527 42.904923 
L 543.727359 42.904923 
L 550.562192 42.904923 
L 557.397025 42.904923 
L 564.231857 42.904923 
L 571.06669 42.904923 
L 577.901522 42.904923 
L 584.736355 42.904923 
L 591.571187 42.904923 
L 598.40602 42.904923 
L 605.240852 42.904923 
L 612.075685 42.904923 
L 618.910517 42.904923 
L 625.74535 42.904923 
L 632.580182 42.904923 
L 639.415015 42.904923 
L 646.249847 42.904923 
L 653.08468 42.904923 
L 659.919513 42.904923 
L 666.754345 42.904923 
L 673.589178 42.904923 
L 680.42401 42.904923 
L 687.258843 42.904923 
L 694.093675 35.633548 
L 700.928508 35.565802 
L 707.76334 35.565802 
L 714.598173 35.565802 
L 721.433005 35.54322 
L 728.267838 35.54322 
L 735.10267 35.54322 
" style="fill:none;stroke:#d62728;stroke-linecap:square;stroke-width:1.5;"/>
   </g>
   <g id="line2d_21">
    <path clip-path="url(#pc825e16dfb)" d="M 85.79358 114.579905 
L 92.628412 92.901271 
L 99.463245 78.358522 
L 106.298077 74.903489 
L 113.13291 68.6483 
L 119.967742 68.038589 
L 126.802575 67.69986 
L 133.637407 67.677278 
L 140.47224 67.451459 
L 147.307072 67.361131 
L 154.141905 67.293386 
L 160.976737 67.090149 
L 167.81157 67.090149 
L 174.646403 67.044985 
L 181.481235 66.977239 
L 188.316068 66.909493 
L 195.1509 66.909493 
L 201.985733 66.886911 
L 208.820565 66.886911 
L 215.655398 66.886911 
L 222.49023 66.886911 
L 229.325063 66.886911 
L 236.159895 66.886911 
L 242.994728 66.886911 
L 249.82956 66.886911 
L 256.664393 66.886911 
L 263.499225 66.886911 
L 270.334058 66.886911 
L 277.168891 66.841748 
L 284.003723 66.841748 
L 290.838556 66.841748 
L 297.673388 66.841748 
L 304.508221 66.841748 
L 311.343053 66.774002 
L 318.177886 66.774002 
L 325.012718 66.774002 
L 331.847551 66.525601 
L 338.682383 66.525601 
L 345.517216 66.525601 
L 352.352048 66.525601 
L 359.186881 66.525601 
L 366.021714 66.525601 
L 372.856546 66.525601 
L 379.691379 66.525601 
L 386.526211 66.525601 
L 393.361044 66.525601 
L 400.195876 66.525601 
L 407.030709 66.525601 
L 413.865541 66.480437 
L 420.700374 65.441669 
L 427.535206 64.809376 
L 434.370039 64.809376 
L 441.204871 64.809376 
L 448.039704 64.809376 
L 454.874536 64.809376 
L 461.709369 64.809376 
L 468.544202 64.786794 
L 475.379034 64.786794 
L 482.213867 64.719048 
L 489.048699 64.719048 
L 495.883532 64.719048 
L 502.718364 64.719048 
L 509.553197 64.673884 
L 516.388029 64.673884 
L 523.222862 64.673884 
L 530.057694 64.651302 
L 536.892527 64.651302 
L 543.727359 64.651302 
L 550.562192 64.651302 
L 557.397025 64.651302 
L 564.231857 64.651302 
L 571.06669 64.651302 
L 577.901522 64.651302 
L 584.736355 64.651302 
L 591.571187 64.651302 
L 598.40602 64.651302 
L 605.240852 64.651302 
L 612.075685 64.651302 
L 618.910517 64.651302 
L 625.74535 64.651302 
L 632.580182 64.651302 
L 639.415015 64.606138 
L 646.249847 64.606138 
L 653.08468 64.606138 
L 659.919513 64.606138 
L 666.754345 64.606138 
L 673.589178 64.606138 
L 680.42401 64.606138 
L 687.258843 64.606138 
L 694.093675 64.606138 
L 700.928508 64.606138 
L 707.76334 64.606138 
L 714.598173 64.606138 
L 721.433005 64.606138 
L 728.267838 64.606138 
L 735.10267 64.606138 
" style="fill:none;stroke:#98df8a;stroke-linecap:square;stroke-width:1.5;"/>
   </g>
   <g id="line2d_22">
    <path clip-path="url(#pc825e16dfb)" d="M 85.79358 170.944352 
L 92.628412 96.559541 
L 99.463245 81.29417 
L 106.298077 80.571549 
L 113.13291 80.323148 
L 119.967742 73.661484 
L 126.802575 70.612926 
L 133.637407 70.500017 
L 140.47224 70.364525 
L 147.307072 69.958051 
L 154.141905 68.670882 
L 160.976737 68.580555 
L 167.81157 67.361131 
L 174.646403 67.248222 
L 181.481235 67.180476 
L 188.316068 67.180476 
L 195.1509 67.180476 
L 201.985733 67.180476 
L 208.820565 67.180476 
L 215.655398 67.180476 
L 222.49023 67.180476 
L 229.325063 67.067567 
L 236.159895 67.067567 
L 242.994728 67.067567 
L 249.82956 67.067567 
L 256.664393 67.067567 
L 263.499225 67.067567 
L 270.334058 67.067567 
L 277.168891 67.067567 
L 284.003723 67.067567 
L 290.838556 66.999821 
L 297.673388 66.954657 
L 304.508221 66.954657 
L 311.343053 66.954657 
L 318.177886 66.954657 
L 325.012718 66.954657 
L 331.847551 66.954657 
L 338.682383 66.864329 
L 345.517216 66.661092 
L 352.352048 66.661092 
L 359.186881 66.661092 
L 366.021714 66.661092 
L 372.856546 66.661092 
L 379.691379 66.661092 
L 386.526211 66.661092 
L 393.361044 66.661092 
L 400.195876 66.661092 
L 407.030709 66.661092 
L 413.865541 66.615928 
L 420.700374 66.615928 
L 427.535206 66.615928 
L 434.370039 66.525601 
L 441.204871 66.480437 
L 448.039704 66.412691 
L 454.874536 66.412691 
L 461.709369 66.412691 
L 468.544202 66.119126 
L 475.379034 66.119126 
L 482.213867 66.119126 
L 489.048699 66.119126 
L 495.883532 66.119126 
L 502.718364 66.119126 
L 509.553197 66.119126 
L 516.388029 66.119126 
L 523.222862 66.119126 
L 530.057694 66.119126 
L 536.892527 66.119126 
L 543.727359 66.119126 
L 550.562192 66.119126 
L 557.397025 66.119126 
L 564.231857 66.119126 
L 571.06669 66.119126 
L 577.901522 66.119126 
L 584.736355 66.119126 
L 591.571187 66.119126 
L 598.40602 66.119126 
L 605.240852 66.119126 
L 612.075685 66.119126 
L 618.910517 66.119126 
L 625.74535 66.119126 
L 632.580182 66.119126 
L 639.415015 66.119126 
L 646.249847 66.119126 
L 653.08468 66.119126 
L 659.919513 66.119126 
L 666.754345 66.119126 
L 673.589178 66.119126 
L 680.42401 66.119126 
L 687.258843 66.119126 
L 694.093675 66.119126 
L 700.928508 66.073963 
L 707.76334 66.073963 
L 714.598173 66.073963 
L 721.433005 66.073963 
L 728.267838 66.073963 
L 735.10267 66.073963 
" style="fill:none;stroke:#1f77b4;stroke-linecap:square;stroke-width:1.5;"/>
   </g>
   <g id="line2d_23">
    <path clip-path="url(#pc825e16dfb)" d="M 85.79358 110.673234 
L 92.628412 94.436841 
L 99.463245 87.775178 
L 106.298077 81.497407 
L 113.13291 81.113515 
L 119.967742 80.097329 
L 126.802575 79.871509 
L 133.637407 79.668272 
L 140.47224 79.668272 
L 147.307072 79.64569 
L 154.141905 79.64569 
L 160.976737 79.64569 
L 167.81157 79.64569 
L 174.646403 79.64569 
L 181.481235 79.64569 
L 188.316068 79.64569 
L 195.1509 79.64569 
L 201.985733 79.64569 
L 208.820565 79.64569 
L 215.655398 79.64569 
L 222.49023 79.64569 
L 229.325063 79.577945 
L 236.159895 79.577945 
L 242.994728 79.577945 
L 249.82956 79.577945 
L 256.664393 79.577945 
L 263.499225 79.577945 
L 270.334058 79.577945 
L 277.168891 79.577945 
L 284.003723 79.577945 
L 290.838556 79.577945 
L 297.673388 79.577945 
L 304.508221 79.577945 
L 311.343053 79.577945 
L 318.177886 79.577945 
L 325.012718 79.577945 
L 331.847551 79.577945 
L 338.682383 79.577945 
L 345.517216 79.577945 
L 352.352048 79.577945 
L 359.186881 79.577945 
L 366.021714 79.577945 
L 372.856546 79.577945 
L 379.691379 79.577945 
L 386.526211 79.577945 
L 393.361044 79.194052 
L 400.195876 79.194052 
L 407.030709 79.194052 
L 413.865541 79.194052 
L 420.700374 79.194052 
L 427.535206 79.194052 
L 434.370039 79.194052 
L 441.204871 79.194052 
L 448.039704 79.194052 
L 454.874536 79.194052 
L 461.709369 79.194052 
L 468.544202 79.194052 
L 475.379034 79.194052 
L 482.213867 79.194052 
L 489.048699 79.194052 
L 495.883532 79.194052 
L 502.718364 79.194052 
L 509.553197 79.194052 
L 516.388029 79.194052 
L 523.222862 79.194052 
L 530.057694 79.194052 
L 536.892527 79.194052 
L 543.727359 79.194052 
L 550.562192 79.194052 
L 557.397025 79.194052 
L 564.231857 79.194052 
L 571.06669 79.194052 
L 577.901522 79.194052 
L 584.736355 79.194052 
L 591.571187 79.194052 
L 598.40602 79.194052 
L 605.240852 79.194052 
L 612.075685 79.194052 
L 618.910517 79.194052 
L 625.74535 79.194052 
L 632.580182 79.058561 
L 639.415015 79.058561 
L 646.249847 79.058561 
L 653.08468 79.058561 
L 659.919513 79.058561 
L 666.754345 79.058561 
L 673.589178 77.27459 
L 680.42401 77.27459 
L 687.258843 77.27459 
L 694.093675 77.27459 
L 700.928508 77.27459 
L 707.76334 77.27459 
L 714.598173 77.27459 
L 721.433005 77.27459 
L 728.267838 77.27459 
L 735.10267 77.27459 
" style="fill:none;stroke:#c7c7c7;stroke-linecap:square;stroke-width:1.5;"/>
   </g>
   <g id="line2d_24"/>
   <g id="line2d_25"/>
   <g id="line2d_26"/>
   <g id="line2d_27"/>
   <g id="line2d_28"/>
   <g id="line2d_29">
    <path clip-path="url(#pc825e16dfb)" d="M 735.10267 288.430125 
L 735.10267 22.318125 
" style="fill:none;stroke:#ff0000;stroke-linecap:square;stroke-width:1.5;"/>
   </g>
   <g id="patch_3">
    <path d="M 53.328125 258.178269 
L 53.328125 54.941081 
" style="fill:none;stroke:#000000;stroke-linecap:square;stroke-linejoin:miter;stroke-width:0.8;"/>
   </g>
   <g id="patch_4">
    <path d="M 85.79358 288.430125 
L 687.258843 288.430125 
" style="fill:none;stroke:#000000;stroke-linecap:square;stroke-linejoin:miter;stroke-width:0.8;"/>
   </g>
   <g id="text_22">
    <!-- libjpeg-turbo-07-2017 (24h, 3 trials/fuzzer) -->
    <g transform="translate(281.803438 16.318125)scale(0.12 -0.12)">
     <defs>
      <path d="M 9.421875 75.984375 
L 18.40625 75.984375 
L 18.40625 0 
L 9.421875 0 
z
" id="DejaVuSans-108"/>
      <path d="M 48.6875 27.296875 
Q 48.6875 37.203125 44.609375 42.84375 
Q 40.53125 48.484375 33.40625 48.484375 
Q 26.265625 48.484375 22.1875 42.84375 
Q 18.109375 37.203125 18.109375 27.296875 
Q 18.109375 17.390625 22.1875 11.75 
Q 26.265625 6.109375 33.40625 6.109375 
Q 40.53125 6.109375 44.609375 11.75 
Q 48.6875 17.390625 48.6875 27.296875 
z
M 18.109375 46.390625 
Q 20.953125 51.265625 25.265625 53.625 
Q 29.59375 56 35.59375 56 
Q 45.5625 56 51.78125 48.09375 
Q 58.015625 40.1875 58.015625 27.296875 
Q 58.015625 14.40625 51.78125 6.484375 
Q 45.5625 -1.421875 35.59375 -1.421875 
Q 29.59375 -1.421875 25.265625 0.953125 
Q 20.953125 3.328125 18.109375 8.203125 
L 18.109375 0 
L 9.078125 0 
L 9.078125 75.984375 
L 18.109375 75.984375 
z
" id="DejaVuSans-98"/>
      <path d="M 9.421875 54.6875 
L 18.40625 54.6875 
L 18.40625 -0.984375 
Q 18.40625 -11.421875 14.421875 -16.109375 
Q 10.453125 -20.796875 1.609375 -20.796875 
L -1.8125 -20.796875 
L -1.8125 -13.1875 
L 0.59375 -13.1875 
Q 5.71875 -13.1875 7.5625 -10.8125 
Q 9.421875 -8.453125 9.421875 -0.984375 
z
M 9.421875 75.984375 
L 18.40625 75.984375 
L 18.40625 64.59375 
L 9.421875 64.59375 
z
" id="DejaVuSans-106"/>
      <path d="M 18.109375 8.203125 
L 18.109375 -20.796875 
L 9.078125 -20.796875 
L 9.078125 54.6875 
L 18.109375 54.6875 
L 18.109375 46.390625 
Q 20.953125 51.265625 25.265625 53.625 
Q 29.59375 56 35.59375 56 
Q 45.5625 56 51.78125 48.09375 
Q 58.015625 40.1875 58.015625 27.296875 
Q 58.015625 14.40625 51.78125 6.484375 
Q 45.5625 -1.421875 35.59375 -1.421875 
Q 29.59375 -1.421875 25.265625 0.953125 
Q 20.953125 3.328125 18.109375 8.203125 
z
M 48.6875 27.296875 
Q 48.6875 37.203125 44.609375 42.84375 
Q 40.53125 48.484375 33.40625 48.484375 
Q 26.265625 48.484375 22.1875 42.84375 
Q 18.109375 37.203125 18.109375 27.296875 
Q 18.109375 17.390625 22.1875 11.75 
Q 26.265625 6.109375 33.40625 6.109375 
Q 40.53125 6.109375 44.609375 11.75 
Q 48.6875 17.390625 48.6875 27.296875 
z
" id="DejaVuSans-112"/>
      <path d="M 4.890625 31.390625 
L 31.203125 31.390625 
L 31.203125 23.390625 
L 4.890625 23.390625 
z
" id="DejaVuSans-45"/>
      <path d="M 8.203125 72.90625 
L 55.078125 72.90625 
L 55.078125 68.703125 
L 28.609375 0 
L 18.3125 0 
L 43.21875 64.59375 
L 8.203125 64.59375 
z
" id="DejaVuSans-55"/>
      <path d="M 11.71875 12.40625 
L 22.015625 12.40625 
L 22.015625 4 
L 14.015625 -11.625 
L 7.71875 -11.625 
L 11.71875 4 
z
" id="DejaVuSans-44"/>
      <path d="M 44.28125 53.078125 
L 44.28125 44.578125 
Q 40.484375 46.53125 36.375 47.5 
Q 32.28125 48.484375 27.875 48.484375 
Q 21.1875 48.484375 17.84375 46.4375 
Q 14.5 44.390625 14.5 40.28125 
Q 14.5 37.15625 16.890625 35.375 
Q 19.28125 33.59375 26.515625 31.984375 
L 29.59375 31.296875 
Q 39.15625 29.25 43.1875 25.515625 
Q 47.21875 21.78125 47.21875 15.09375 
Q 47.21875 7.46875 41.1875 3.015625 
Q 35.15625 -1.421875 24.609375 -1.421875 
Q 20.21875 -1.421875 15.453125 -0.5625 
Q 10.6875 0.296875 5.421875 2 
L 5.421875 11.28125 
Q 10.40625 8.6875 15.234375 7.390625 
Q 20.0625 6.109375 24.8125 6.109375 
Q 31.15625 6.109375 34.5625 8.28125 
Q 37.984375 10.453125 37.984375 14.40625 
Q 37.984375 18.0625 35.515625 20.015625 
Q 33.0625 21.96875 24.703125 23.78125 
L 21.578125 24.515625 
Q 13.234375 26.265625 9.515625 29.90625 
Q 5.8125 33.546875 5.8125 39.890625 
Q 5.8125 47.609375 11.28125 51.796875 
Q 16.75 56 26.8125 56 
Q 31.78125 56 36.171875 55.265625 
Q 40.578125 54.546875 44.28125 53.078125 
z
" id="DejaVuSans-115"/>
      <path d="M 25.390625 72.90625 
L 33.6875 72.90625 
L 8.296875 -9.28125 
L 0 -9.28125 
z
" id="DejaVuSans-47"/>
      <path d="M 37.109375 75.984375 
L 37.109375 68.5 
L 28.515625 68.5 
Q 23.6875 68.5 21.796875 66.546875 
Q 19.921875 64.59375 19.921875 59.515625 
L 19.921875 54.6875 
L 34.71875 54.6875 
L 34.71875 47.703125 
L 19.921875 47.703125 
L 19.921875 0 
L 10.890625 0 
L 10.890625 47.703125 
L 2.296875 47.703125 
L 2.296875 54.6875 
L 10.890625 54.6875 
L 10.890625 58.5 
Q 10.890625 67.625 15.140625 71.796875 
Q 19.390625 75.984375 28.609375 75.984375 
z
" id="DejaVuSans-102"/>
      <path d="M 5.515625 54.6875 
L 48.1875 54.6875 
L 48.1875 46.484375 
L 14.40625 7.171875 
L 48.1875 7.171875 
L 48.1875 0 
L 4.296875 0 
L 4.296875 8.203125 
L 38.09375 47.515625 
L 5.515625 47.515625 
z
" id="DejaVuSans-122"/>
     </defs>
     <use xlink:href="#DejaVuSans-108"/>
     <use x="27.783203" xlink:href="#DejaVuSans-105"/>
     <use x="55.566406" xlink:href="#DejaVuSans-98"/>
     <use x="119.042969" xlink:href="#DejaVuSans-106"/>
     <use x="146.826172" xlink:href="#DejaVuSans-112"/>
     <use x="210.302734" xlink:href="#DejaVuSans-101"/>
     <use x="271.826172" xlink:href="#DejaVuSans-103"/>
     <use x="335.302734" xlink:href="#DejaVuSans-45"/>
     <use x="371.386719" xlink:href="#DejaVuSans-116"/>
     <use x="410.595703" xlink:href="#DejaVuSans-117"/>
     <use x="473.974609" xlink:href="#DejaVuSans-114"/>
     <use x="515.087891" xlink:href="#DejaVuSans-98"/>
     <use x="578.564453" xlink:href="#DejaVuSans-111"/>
     <use x="641.621094" xlink:href="#DejaVuSans-45"/>
     <use x="677.705078" xlink:href="#DejaVuSans-48"/>
     <use x="741.328125" xlink:href="#DejaVuSans-55"/>
     <use x="804.951172" xlink:href="#DejaVuSans-45"/>
     <use x="841.035156" xlink:href="#DejaVuSans-50"/>
     <use x="904.658203" xlink:href="#DejaVuSans-48"/>
     <use x="968.28125" xlink:href="#DejaVuSans-49"/>
     <use x="1031.904297" xlink:href="#DejaVuSans-55"/>
     <use x="1095.527344" xlink:href="#DejaVuSans-32"/>
     <use x="1127.314453" xlink:href="#DejaVuSans-40"/>
     <use x="1166.328125" xlink:href="#DejaVuSans-50"/>
     <use x="1229.951172" xlink:href="#DejaVuSans-52"/>
     <use x="1293.574219" xlink:href="#DejaVuSans-104"/>
     <use x="1356.953125" xlink:href="#DejaVuSans-44"/>
     <use x="1388.740234" xlink:href="#DejaVuSans-32"/>
     <use x="1420.527344" xlink:href="#DejaVuSans-51"/>
     <use x="1484.150391" xlink:href="#DejaVuSans-32"/>
     <use x="1515.9375" xlink:href="#DejaVuSans-116"/>
     <use x="1555.146484" xlink:href="#DejaVuSans-114"/>
     <use x="1596.259766" xlink:href="#DejaVuSans-105"/>
     <use x="1624.042969" xlink:href="#DejaVuSans-97"/>
     <use x="1685.322266" xlink:href="#DejaVuSans-108"/>
     <use x="1713.105469" xlink:href="#DejaVuSans-115"/>
     <use x="1765.205078" xlink:href="#DejaVuSans-47"/>
     <use x="1798.896484" xlink:href="#DejaVuSans-102"/>
     <use x="1834.101562" xlink:href="#DejaVuSans-117"/>
     <use x="1897.480469" xlink:href="#DejaVuSans-122"/>
     <use x="1949.970703" xlink:href="#DejaVuSans-122"/>
     <use x="2002.460938" xlink:href="#DejaVuSans-101"/>
     <use x="2063.984375" xlink:href="#DejaVuSans-114"/>
     <use x="2105.097656" xlink:href="#DejaVuSans-41"/>
    </g>
   </g>
   <g id="legend_1">
    <g id="line2d_30">
     <path d="M 771.568125 30.416562 
L 791.568125 30.416562 
" style="fill:none;"/>
    </g>
    <g id="line2d_31"/>
    <g id="text_23">
     <!-- fuzzer -->
     <g transform="translate(799.568125 33.916562)scale(0.1 -0.1)">
      <use xlink:href="#DejaVuSans-102"/>
      <use x="35.205078" xlink:href="#DejaVuSans-117"/>
      <use x="98.583984" xlink:href="#DejaVuSans-122"/>
      <use x="151.074219" xlink:href="#DejaVuSans-122"/>
      <use x="203.564453" xlink:href="#DejaVuSans-101"/>
      <use x="265.087891" xlink:href="#DejaVuSans-114"/>
     </g>
    </g>
    <g id="line2d_32">
     <path d="M 771.568125 45.094688 
L 791.568125 45.094688 
" style="fill:none;stroke:#d62728;stroke-linecap:square;stroke-width:1.5;"/>
    </g>
    <g id="line2d_33"/>
    <g id="text_24">
     <!-- aflplusplus -->
     <g transform="translate(799.568125 48.594688)scale(0.1 -0.1)">
      <use xlink:href="#DejaVuSans-97"/>
      <use x="61.279297" xlink:href="#DejaVuSans-102"/>
      <use x="96.484375" xlink:href="#DejaVuSans-108"/>
      <use x="124.267578" xlink:href="#DejaVuSans-112"/>
      <use x="187.744141" xlink:href="#DejaVuSans-108"/>
      <use x="215.527344" xlink:href="#DejaVuSans-117"/>
      <use x="278.90625" xlink:href="#DejaVuSans-115"/>
      <use x="331.005859" xlink:href="#DejaVuSans-112"/>
      <use x="394.482422" xlink:href="#DejaVuSans-108"/>
      <use x="422.265625" xlink:href="#DejaVuSans-117"/>
      <use x="485.644531" xlink:href="#DejaVuSans-115"/>
     </g>
    </g>
    <g id="line2d_34">
     <path d="M 771.568125 59.772812 
L 791.568125 59.772812 
" style="fill:none;stroke:#98df8a;stroke-linecap:square;stroke-width:1.5;"/>
    </g>
    <g id="line2d_35"/>
    <g id="text_25">
     <!-- afldark -->
     <g transform="translate(799.568125 63.272812)scale(0.1 -0.1)">
      <defs>
       <path d="M 9.078125 75.984375 
L 18.109375 75.984375 
L 18.109375 31.109375 
L 44.921875 54.6875 
L 56.390625 54.6875 
L 27.390625 29.109375 
L 57.625 0 
L 45.90625 0 
L 18.109375 26.703125 
L 18.109375 0 
L 9.078125 0 
z
" id="DejaVuSans-107"/>
      </defs>
      <use xlink:href="#DejaVuSans-97"/>
      <use x="61.279297" xlink:href="#DejaVuSans-102"/>
      <use x="96.484375" xlink:href="#DejaVuSans-108"/>
      <use x="124.267578" xlink:href="#DejaVuSans-100"/>
      <use x="187.744141" xlink:href="#DejaVuSans-97"/>
      <use x="249.023438" xlink:href="#DejaVuSans-114"/>
      <use x="290.136719" xlink:href="#DejaVuSans-107"/>
     </g>
    </g>
    <g id="line2d_36">
     <path d="M 771.568125 74.450938 
L 791.568125 74.450938 
" style="fill:none;stroke:#1f77b4;stroke-linecap:square;stroke-width:1.5;"/>
    </g>
    <g id="line2d_37"/>
    <g id="text_26">
     <!-- afl -->
     <g transform="translate(799.568125 77.950938)scale(0.1 -0.1)">
      <use xlink:href="#DejaVuSans-97"/>
      <use x="61.279297" xlink:href="#DejaVuSans-102"/>
      <use x="96.484375" xlink:href="#DejaVuSans-108"/>
     </g>
    </g>
    <g id="line2d_38">
     <path d="M 771.568125 89.129063 
L 791.568125 89.129063 
" style="fill:none;stroke:#c7c7c7;stroke-linecap:square;stroke-width:1.5;"/>
    </g>
    <g id="line2d_39"/>
    <g id="text_27">
     <!-- fairfuzz -->
     <g transform="translate(799.568125 92.629063)scale(0.1 -0.1)">
      <use xlink:href="#DejaVuSans-102"/>
      <use x="35.205078" xlink:href="#DejaVuSans-97"/>
      <use x="96.484375" xlink:href="#DejaVuSans-105"/>
      <use x="124.267578" xlink:href="#DejaVuSans-114"/>
      <use x="165.380859" xlink:href="#DejaVuSans-102"/>
      <use x="200.585938" xlink:href="#DejaVuSans-117"/>
      <use x="263.964844" xlink:href="#DejaVuSans-122"/>
      <use x="316.455078" xlink:href="#DejaVuSans-122"/>
     </g>
    </g>
   </g>
  </g>
 </g>
 <defs>
  <clipPath id="pc825e16dfb">
   <rect height="266.112" width="714.24" x="53.328125" y="22.318125"/>
  </clipPath>
 </defs>
</svg>
