<?xml version="1.0" encoding="utf-8" standalone="no"?>
<!DOCTYPE svg PUBLIC "-//W3C//DTD SVG 1.1//EN"
  "http://www.w3.org/Graphics/SVG/1.1/DTD/svg11.dtd">
<!-- Created with matplotlib (https://matplotlib.org/) -->
<svg height="325.986375pt" version="1.1" viewBox="0 0 870.904062 325.986375" width="870.904062pt" xmlns="http://www.w3.org/2000/svg" xmlns:xlink="http://www.w3.org/1999/xlink">
 <metadata>
  <rdf:RDF xmlns:cc="http://creativecommons.org/ns#" xmlns:dc="http://purl.org/dc/elements/1.1/" xmlns:rdf="http://www.w3.org/1999/02/22-rdf-syntax-ns#">
   <cc:Work>
    <dc:type rdf:resource="http://purl.org/dc/dcmitype/StillImage"/>
    <dc:date>2020-11-18T18:43:53.211508</dc:date>
    <dc:format>image/svg+xml</dc:format>
    <dc:creator>
     <cc:Agent>
      <dc:title>Matplotlib v3.3.2, https://matplotlib.org/</dc:title>
     </cc:Agent>
    </dc:creator>
   </cc:Work>
  </rdf:RDF>
 </metadata>
 <defs>
  <style type="text/css">*{stroke-linecap:butt;stroke-linejoin:round;}</style>
 </defs>
 <g id="figure_1">
  <g id="patch_1">
   <path d="M 0 325.986375 
L 870.904062 325.986375 
L 870.904062 0 
L 0 0 
z
" style="fill:#ffffff;"/>
  </g>
  <g id="axes_1">
   <g id="patch_2">
    <path d="M 59.690625 288.430125 
L 773.930625 288.430125 
L 773.930625 22.318125 
L 59.690625 22.318125 
z
" style="fill:#ffffff;"/>
   </g>
   <g id="PolyCollection_1">
    <defs>
     <path d="M 92.15608 -70.692941 
L 92.15608 -50.361918 
L 190.760907 -81.932545 
L 248.441033 -84.349252 
L 289.365734 -91.982975 
L 321.109399 -92.731004 
L 347.045861 -107.135342 
L 368.974827 -108.899921 
L 387.970562 -118.336585 
L 404.725987 -119.046253 
L 419.714226 -120.983454 
L 433.272737 -122.594592 
L 445.650688 -125.644246 
L 457.037299 -127.543086 
L 467.579655 -128.348655 
L 477.394352 -130.707821 
L 486.575389 -131.398309 
L 495.199648 -132.242238 
L 503.330815 -134.467143 
L 511.022239 -136.231722 
L 518.319053 -150.041474 
L 525.259781 -151.51835 
L 531.877565 -151.921134 
L 538.201126 -158.020442 
L 544.255516 -159.056173 
L 550.062718 -163.486802 
L 555.642127 -164.675975 
L 561.010941 -165.11712 
L 566.184482 -165.558264 
L 571.176457 -165.826787 
L 575.99918 -165.826787 
L 580.663752 -167.91743 
L 585.180217 -171.926094 
L 589.557691 -173.652313 
L 593.804475 -174.035918 
L 597.928146 -175.647055 
L 601.935642 -176.164921 
L 605.83333 -184.105528 
L 609.627066 -185.045359 
L 613.322253 -186.656496 
L 616.923881 -187.308624 
L 620.43657 -189.571888 
L 623.864608 -190.089754 
L 627.211979 -195.498574 
L 630.482392 -196.476764 
L 633.679306 -197.87692 
L 636.805953 -198.183803 
L 639.865355 -198.413966 
L 642.860343 -198.567407 
L 645.793575 -199.008552 
L 648.667545 -200.753951 
L 651.484601 -202.250008 
L 654.246954 -203.266559 
L 656.956687 -203.285739 
L 659.615768 -203.285739 
L 662.226056 -216.168448 
L 664.789309 -203.784425 
L 667.307193 -205.433923 
L 669.781285 -205.606545 
L 672.213082 -205.779167 
L 674.604007 -205.817527 
L 676.955411 -205.855888 
L 679.268579 -206.009329 
L 681.544735 -206.412114 
L 683.785044 -206.488834 
L 685.990618 -206.661456 
L 688.162519 -206.680637 
L 690.301757 -206.853258 
L 692.409302 -207.121781 
L 694.486079 -212.089456 
L 696.532974 -212.4347 
L 698.550833 -212.722403 
L 700.540469 -214.026657 
L 702.502662 -214.640424 
L 704.438157 -214.678785 
L 706.347672 -215.676155 
L 708.231894 -216.232382 
L 710.091485 -216.289922 
L 711.927081 -216.98041 
L 713.739292 -217.958601 
L 715.528708 -217.958601 
L 717.295895 -217.996961 
L 719.041398 -220.931533 
L 720.765742 -222.542671 
L 722.469436 -222.657752 
L 724.152967 -222.983816 
L 725.816807 -222.983816 
L 727.461411 -223.156438 
L 729.087219 -223.309879 
L 730.694657 -223.309879 
L 732.284134 -223.444141 
L 733.856047 -229.083123 
L 735.41078 -235.892098 
L 736.948706 -236.697667 
L 738.470182 -237.157992 
L 739.975558 -237.349794 
L 741.46517 -238.059462 
L 741.46517 -291.57225 
L 741.46517 -291.57225 
L 739.975558 -291.514709 
L 738.470182 -290.939303 
L 736.948706 -290.555699 
L 735.41078 -290.267996 
L 733.856047 -290.210455 
L 732.284134 -289.922752 
L 730.694657 -289.922752 
L 729.087219 -289.424066 
L 727.461411 -289.213084 
L 725.816807 -289.155543 
L 724.152967 -288.714399 
L 722.469436 -287.774568 
L 720.765742 -287.525226 
L 719.041398 -287.525226 
L 717.295895 -286.259332 
L 715.528708 -286.259332 
L 713.739292 -286.220971 
L 711.927081 -285.472943 
L 710.091485 -283.34394 
L 708.231894 -282.921975 
L 706.347672 -282.595911 
L 704.438157 -281.828703 
L 702.502662 -273.811375 
L 700.540469 -281.080675 
L 698.550833 -279.71888 
L 696.532974 -279.431177 
L 694.486079 -278.970851 
L 692.409302 -278.894131 
L 690.301757 -278.529707 
L 688.162519 -268.193491 
L 685.990618 -276.707587 
L 683.785044 -275.671855 
L 681.544735 -275.575954 
L 679.268579 -273.581212 
L 676.955411 -273.581212 
L 674.604007 -273.523672 
L 672.213082 -264.087008 
L 669.781285 -272.046795 
L 667.307193 -266.810598 
L 664.789309 -260.116704 
L 662.226056 -259.502937 
L 659.615768 -255.858697 
L 656.956687 -252.310358 
L 654.246954 -249.644309 
L 651.484601 -249.241525 
L 648.667545 -248.685298 
L 645.793575 -248.666118 
L 642.860343 -245.309581 
L 639.865355 -244.27385 
L 636.805953 -243.890246 
L 633.679306 -243.257299 
L 630.482392 -239.574698 
L 627.211979 -239.095193 
L 623.864608 -238.519787 
L 620.43657 -236.697667 
L 616.923881 -228.85296 
L 613.322253 -228.8146 
L 609.627066 -228.661158 
L 605.83333 -228.085752 
L 601.935642 -227.855589 
L 597.928146 -225.860847 
L 593.804475 -223.904466 
L 589.557691 -214.276 
L 585.180217 -213.566332 
L 580.663752 -209.020622 
L 575.99918 -195.15333 
L 571.176457 -194.23268 
L 566.184482 -193.829895 
L 561.010941 -190.64598 
L 555.642127 -190.454178 
L 550.062718 -190.434998 
L 544.255516 -190.185655 
L 538.201126 -184.374051 
L 531.877565 -184.124709 
L 525.259781 -183.702744 
L 518.319053 -180.921613 
L 511.022239 -174.496243 
L 503.330815 -174.496243 
L 495.199648 -171.56167 
L 486.575389 -168.454476 
L 477.394352 -164.752696 
L 467.579655 -163.218279 
L 457.037299 -145.323142 
L 445.650688 -143.635283 
L 433.272737 -142.848895 
L 419.714226 -142.024146 
L 404.725987 -141.52546 
L 387.970562 -135.13845 
L 368.974827 -120.695751 
L 347.045861 -115.13349 
L 321.109399 -113.733335 
L 289.365734 -113.637434 
L 248.441033 -101.649802 
L 190.760907 -96.509505 
L 92.15608 -70.692941 
z
" id="m9c0eb3cdfd" style="stroke:#98df8a;stroke-opacity:0.2;"/>
    </defs>
    <g clip-path="url(#pef8b99f3bb)">
     <use style="fill:#98df8a;fill-opacity:0.2;stroke:#98df8a;stroke-opacity:0.2;" x="0" xlink:href="#m9c0eb3cdfd" y="325.986375"/>
    </g>
   </g>
   <g id="PolyCollection_2">
    <defs>
     <path d="M 92.15608 -80.436488 
L 92.15608 -72.323259 
L 190.760907 -89.086764 
L 248.441033 -97.008191 
L 289.365734 -110.184996 
L 321.109399 -115.766437 
L 347.045861 -116.188402 
L 368.974827 -125.605885 
L 387.970562 -125.951129 
L 404.725987 -127.006041 
L 419.714226 -129.614549 
L 433.272737 -131.340768 
L 445.650688 -134.390422 
L 457.037299 -136.346803 
L 467.579655 -137.248273 
L 477.394352 -138.571708 
L 486.575389 -140.56645 
L 495.199648 -141.122676 
L 503.330815 -141.372018 
L 511.022239 -143.405121 
L 518.319053 -143.405121 
L 525.259781 -145.649206 
L 531.877565 -146.531495 
L 538.201126 -147.586407 
L 544.255516 -148.602958 
L 550.062718 -150.63606 
L 555.642127 -151.53753 
L 561.010941 -152.017036 
L 566.184482 -153.762435 
L 571.176457 -155.469473 
L 575.99918 -156.140781 
L 580.663752 -157.598477 
L 585.180217 -159.593219 
L 589.557691 -160.398788 
L 593.804475 -160.705671 
L 597.928146 -163.429261 
L 601.935642 -165.615805 
L 605.83333 -166.747438 
L 609.627066 -167.84071 
L 613.322253 -169.586109 
L 616.923881 -169.931353 
L 620.43657 -172.578222 
L 623.864608 -173.786575 
L 627.211979 -175.052469 
L 630.482392 -183.33832 
L 633.679306 -184.508313 
L 636.805953 -184.911097 
L 639.865355 -185.333062 
L 642.860343 -188.401896 
L 645.793575 -191.56663 
L 648.667545 -193.177768 
L 651.484601 -193.484651 
L 654.246954 -193.503832 
L 656.956687 -195.21087 
L 659.615768 -195.556114 
L 662.226056 -195.690376 
L 664.789309 -202.230828 
L 667.307193 -202.326729 
L 669.781285 -202.614432 
L 672.213082 -204.24475 
L 674.604007 -205.280481 
L 676.955411 -205.491464 
L 679.268579 -205.568184 
L 681.544735 -206.258672 
L 683.785044 -212.45388 
L 685.990618 -207.275223 
L 688.162519 -207.850629 
L 690.301757 -207.965711 
L 692.409302 -209.327506 
L 694.486079 -209.576848 
L 696.532974 -215.663369 
L 698.550833 -211.55241 
L 700.540469 -215.292551 
L 702.502662 -215.867958 
L 704.438157 -221.775463 
L 706.347672 -222.082346 
L 708.231894 -222.370049 
L 710.091485 -224.403151 
L 711.927081 -224.441512 
L 713.739292 -225.400522 
L 715.528708 -225.784127 
L 717.295895 -225.975929 
L 719.041398 -225.975929 
L 720.765742 -227.337724 
L 722.469436 -227.337724 
L 724.152967 -229.083123 
L 725.816807 -229.294105 
L 727.461411 -229.562628 
L 729.087219 -229.600989 
L 730.694657 -230.63672 
L 732.284134 -231.001144 
L 733.856047 -232.593102 
L 735.41078 -232.919165 
L 736.948706 -232.919165 
L 738.470182 -232.919165 
L 739.975558 -233.149328 
L 741.46517 -234.069978 
L 741.46517 -271.279587 
L 741.46517 -271.279587 
L 739.975558 -271.030244 
L 738.470182 -271.030244 
L 736.948706 -270.972704 
L 735.41078 -270.454838 
L 733.856047 -270.378117 
L 732.284134 -270.013693 
L 730.694657 -269.72599 
L 729.087219 -269.419106 
L 727.461411 -269.419106 
L 725.816807 -268.690258 
L 724.152967 -267.865509 
L 722.469436 -267.194202 
L 720.765742 -266.388633 
L 719.041398 -266.331092 
L 717.295895 -266.292732 
L 715.528708 -266.292732 
L 713.739292 -265.352902 
L 711.927081 -265.026838 
L 710.091485 -263.933566 
L 708.231894 -263.741764 
L 706.347672 -262.360789 
L 704.438157 -261.708662 
L 702.502662 -261.5744 
L 700.540469 -259.77146 
L 698.550833 -258.716549 
L 696.532974 -253.979037 
L 694.486079 -253.039206 
L 692.409302 -243.717624 
L 690.301757 -251.888394 
L 688.162519 -251.850033 
L 685.990618 -250.277256 
L 683.785044 -249.011362 
L 681.544735 -242.509271 
L 679.268579 -241.128295 
L 676.955411 -240.246006 
L 674.604007 -238.999292 
L 672.213082 -238.749949 
L 669.781285 -232.784904 
L 667.307193 -232.401299 
L 664.789309 -231.614911 
L 662.226056 -230.579179 
L 659.615768 -227.93231 
L 656.956687 -226.512975 
L 654.246954 -225.688226 
L 651.484601 -218.629908 
L 648.667545 -218.591548 
L 645.793575 -212.223718 
L 642.860343 -211.705852 
L 639.865355 -211.475689 
L 636.805953 -211.053725 
L 633.679306 -210.439958 
L 630.482392 -209.289145 
L 627.211979 -208.291774 
L 623.864608 -202.345909 
L 620.43657 -202.192467 
L 616.923881 -200.331987 
L 613.322253 -198.83593 
L 609.627066 -196.726107 
L 605.83333 -195.805457 
L 601.935642 -191.067945 
L 597.928146 -187.136002 
L 593.804475 -183.31914 
L 589.557691 -183.050617 
L 585.180217 -182.41767 
L 580.663752 -180.154405 
L 575.99918 -176.797868 
L 571.176457 -167.514646 
L 566.184482 -166.93924 
L 561.010941 -164.944498 
L 555.642127 -163.103197 
L 550.062718 -161.741402 
L 544.255516 -161.300258 
L 538.201126 -157.00389 
L 531.877565 -156.735367 
L 525.259781 -156.428484 
L 518.319053 -152.918505 
L 511.022239 -152.880145 
L 503.330815 -151.211467 
L 495.199648 -149.389347 
L 486.575389 -148.890661 
L 477.394352 -147.91247 
L 467.579655 -147.490506 
L 457.037299 -143.769545 
L 445.650688 -142.906435 
L 433.272737 -140.010224 
L 419.714226 -138.878591 
L 404.725987 -133.604033 
L 387.970562 -133.604033 
L 368.974827 -129.902252 
L 347.045861 -127.159482 
L 321.109399 -123.457702 
L 289.365734 -121.673942 
L 248.441033 -110.338437 
L 190.760907 -98.868671 
L 92.15608 -80.436488 
z
" id="m97192f1bc1" style="stroke:#1f77b4;stroke-opacity:0.2;"/>
    </defs>
    <g clip-path="url(#pef8b99f3bb)">
     <use style="fill:#1f77b4;fill-opacity:0.2;stroke:#1f77b4;stroke-opacity:0.2;" x="0" xlink:href="#m97192f1bc1" y="325.986375"/>
    </g>
   </g>
   <g id="PolyCollection_3">
    <defs>
     <path d="M 92.15608 -94.725746 
L 92.15608 -49.65225 
L 190.760907 -67.489846 
L 248.441033 -107.614847 
L 289.365734 -109.70549 
L 321.109399 -110.069914 
L 347.045861 -112.064656 
L 368.974827 -112.716783 
L 387.970562 -112.755144 
L 404.725987 -113.29219 
L 419.714226 -113.29219 
L 433.272737 -113.464812 
L 445.650688 -113.483992 
L 457.037299 -139.473178 
L 467.579655 -135.656316 
L 477.394352 -138.264824 
L 486.575389 -138.303185 
L 495.199648 -141.602181 
L 503.330815 -141.602181 
L 511.022239 -142.100867 
L 518.319053 -143.481842 
L 525.259781 -143.999707 
L 531.877565 -143.999707 
L 538.201126 -144.114789 
L 544.255516 -145.054619 
L 550.062718 -145.361502 
L 555.642127 -145.783467 
L 561.010941 -145.994449 
L 566.184482 -150.981304 
L 571.176457 -152.669163 
L 575.99918 -154.855707 
L 580.663752 -156.754548 
L 585.180217 -158.538307 
L 589.557691 -158.998632 
L 593.804475 -160.60977 
L 597.928146 -160.60977 
L 601.935642 -162.662053 
L 605.83333 -162.662053 
L 609.627066 -163.35254 
L 613.322253 -163.37172 
L 616.923881 -164.925317 
L 620.43657 -165.078759 
L 623.864608 -165.769247 
L 627.211979 -167.706448 
L 630.482392 -167.706448 
L 633.679306 -169.528568 
L 636.805953 -169.988893 
L 639.865355 -171.062985 
L 642.860343 -171.983635 
L 645.793575 -172.117897 
L 648.667545 -172.156257 
L 651.484601 -172.156257 
L 654.246954 -172.232978 
L 656.956687 -172.38642 
L 659.615768 -172.4056 
L 662.226056 -173.709854 
L 664.789309 -174.438702 
L 667.307193 -174.937388 
L 669.781285 -175.110009 
L 672.213082 -175.934759 
L 674.604007 -177.104751 
L 676.955411 -177.967861 
L 679.268579 -180.57637 
L 681.544735 -181.5162 
L 683.785044 -181.5162 
L 685.990618 -181.5162 
L 688.162519 -181.5162 
L 690.301757 -184.335691 
L 692.409302 -186.96338 
L 694.486079 -187.845669 
L 696.532974 -188.459436 
L 698.550833 -189.054023 
L 700.540469 -189.802051 
L 702.502662 -190.319917 
L 704.438157 -190.319917 
L 706.347672 -190.319917 
L 708.231894 -190.319917 
L 710.091485 -190.319917 
L 711.927081 -190.319917 
L 713.739292 -190.319917 
L 715.528708 -190.319917 
L 717.295895 -190.319917 
L 719.041398 -190.319917 
L 720.765742 -190.319917 
L 722.469436 -190.319917 
L 724.152967 -190.319917 
L 725.816807 -190.319917 
L 727.461411 -190.319917 
L 729.087219 -190.319917 
L 730.694657 -190.319917 
L 732.284134 -190.319917 
L 733.856047 -190.319917 
L 735.41078 -190.319917 
L 736.948706 -190.319917 
L 738.470182 -191.470729 
L 739.975558 -191.470729 
L 741.46517 -191.470729 
L 741.46517 -290.248815 
L 741.46517 -290.248815 
L 739.975558 -290.248815 
L 738.470182 -290.229635 
L 736.948706 -289.846031 
L 735.41078 -284.207049 
L 733.856047 -282.921975 
L 732.284134 -279.220194 
L 730.694657 -278.79823 
L 729.087219 -278.683148 
L 727.461411 -278.663968 
L 725.816807 -278.663968 
L 724.152967 -278.663968 
L 722.469436 -278.587247 
L 720.765742 -278.433806 
L 719.041398 -278.433806 
L 717.295895 -278.146102 
L 715.528708 -277.110371 
L 713.739292 -276.534965 
L 711.927081 -276.515784 
L 710.091485 -274.885467 
L 708.231894 -273.140067 
L 706.347672 -271.54811 
L 704.438157 -271.452209 
L 702.502662 -269.188944 
L 700.540469 -269.169764 
L 698.550833 -266.158471 
L 696.532974 -261.59358 
L 694.486079 -257.431475 
L 692.409302 -257.086231 
L 690.301757 -256.376563 
L 688.162519 -256.338203 
L 685.990618 -256.299842 
L 683.785044 -256.1464 
L 681.544735 -255.954598 
L 679.268579 -247.150882 
L 676.955411 -246.575475 
L 674.604007 -245.290401 
L 672.213082 -241.051575 
L 669.781285 -233.954896 
L 667.307193 -232.247858 
L 664.789309 -228.661158 
L 662.226056 -227.798049 
L 659.615768 -220.394487 
L 656.956687 -216.96123 
L 654.246954 -214.429442 
L 651.484601 -210.746841 
L 648.667545 -210.689301 
L 645.793575 -210.286516 
L 642.860343 -208.905541 
L 639.865355 -207.620467 
L 636.805953 -207.313584 
L 633.679306 -206.162771 
L 630.482392 -204.321471 
L 627.211979 -203.841965 
L 623.864608 -203.36246 
L 620.43657 -202.42263 
L 616.923881 -194.980708 
L 613.322253 -200.60051 
L 609.627066 -199.775761 
L 605.83333 -198.874291 
L 601.935642 -198.011181 
L 597.928146 -197.85774 
L 593.804475 -197.819379 
L 589.557691 -197.397415 
L 585.180217 -195.441033 
L 580.663752 -195.287591 
L 575.99918 -195.13415 
L 571.176457 -195.13415 
L 566.184482 -191.48991 
L 561.010941 -190.914503 
L 555.642127 -185.467323 
L 550.062718 -184.23979 
L 544.255516 -183.837005 
L 538.201126 -183.798645 
L 531.877565 -182.149147 
L 525.259781 -182.034066 
L 518.319053 -180.959974 
L 511.022239 -180.959974 
L 503.330815 -180.864073 
L 495.199648 -180.154405 
L 486.575389 -178.965232 
L 477.394352 -178.869331 
L 467.579655 -177.085571 
L 457.037299 -175.742956 
L 445.650688 -174.592144 
L 433.272737 -172.808384 
L 419.714226 -170.890363 
L 404.725987 -170.295777 
L 387.970562 -169.413487 
L 368.974827 -169.106603 
L 347.045861 -164.963678 
L 321.109399 -148.909841 
L 289.365734 -146.320513 
L 248.441033 -119.091007 
L 190.760907 -100.844233 
L 92.15608 -94.725746 
z
" id="mcede257e1c" style="stroke:#d62728;stroke-opacity:0.2;"/>
    </defs>
    <g clip-path="url(#pef8b99f3bb)">
     <use style="fill:#d62728;fill-opacity:0.2;stroke:#d62728;stroke-opacity:0.2;" x="0" xlink:href="#mcede257e1c" y="325.986375"/>
    </g>
   </g>
   <g id="PolyCollection_4">
    <defs>
     <path d="M 92.15608 -72.956206 
L 92.15608 -67.298044 
L 190.760907 -81.548941 
L 248.441033 -87.437265 
L 289.365734 -92.136417 
L 321.109399 -92.571169 
L 347.045861 -92.136417 
L 368.974827 -92.136417 
L 387.970562 -92.136417 
L 404.725987 -92.136417 
L 419.714226 -92.136417 
L 433.272737 -92.136417 
L 445.650688 -92.136417 
L 457.037299 -92.136417 
L 467.579655 -92.136417 
L 477.394352 -92.481661 
L 486.575389 -92.481661 
L 495.199648 -92.481661 
L 503.330815 -92.481661 
L 511.022239 -92.481661 
L 518.319053 -92.481661 
L 525.259781 -92.481661 
L 531.877565 -93.440671 
L 538.201126 -97.449336 
L 544.255516 -100.096205 
L 550.062718 -101.247017 
L 555.642127 -101.745703 
L 561.010941 -103.932247 
L 566.184482 -110.856303 
L 571.176457 -111.086465 
L 575.99918 -111.757773 
L 580.663752 -112.045476 
L 585.180217 -112.045476 
L 589.557691 -112.045476 
L 593.804475 -112.045476 
L 597.928146 -112.045476 
L 601.935642 -112.045476 
L 605.83333 -112.045476 
L 609.627066 -112.045476 
L 613.322253 -112.045476 
L 616.923881 -112.045476 
L 620.43657 -112.045476 
L 623.864608 -112.045476 
L 627.211979 -112.045476 
L 630.482392 -112.045476 
L 633.679306 -112.045476 
L 636.805953 -112.045476 
L 639.865355 -112.045476 
L 642.860343 -112.045476 
L 645.793575 -112.045476 
L 648.667545 -112.045476 
L 651.484601 -112.045476 
L 654.246954 -112.045476 
L 656.956687 -112.045476 
L 659.615768 -112.045476 
L 662.226056 -112.045476 
L 664.789309 -112.045476 
L 667.307193 -112.045476 
L 669.781285 -112.045476 
L 672.213082 -112.4099 
L 674.604007 -113.675794 
L 676.955411 -115.632175 
L 679.268579 -116.226762 
L 681.544735 -117.147412 
L 683.785044 -125.011299 
L 685.990618 -126.277193 
L 688.162519 -134.447962 
L 690.301757 -136.730407 
L 692.409302 -140.355467 
L 694.486079 -140.355467 
L 696.532974 -140.834973 
L 698.550833 -149.235905 
L 700.540469 -155.757177 
L 702.502662 -156.620286 
L 704.438157 -157.099791 
L 706.347672 -157.329954 
L 708.231894 -157.771099 
L 710.091485 -158.154703 
L 711.927081 -158.346505 
L 713.739292 -158.730109 
L 715.528708 -158.74929 
L 717.295895 -158.883551 
L 719.041398 -158.883551 
L 720.765742 -158.883551 
L 722.469436 -158.883551 
L 724.152967 -158.883551 
L 725.816807 -158.883551 
L 727.461411 -158.883551 
L 729.087219 -158.883551 
L 730.694657 -158.883551 
L 732.284134 -158.883551 
L 733.856047 -158.883551 
L 735.41078 -158.883551 
L 736.948706 -158.883551 
L 738.470182 -158.883551 
L 739.975558 -158.883551 
L 741.46517 -158.883551 
L 741.46517 -203.400821 
L 741.46517 -203.400821 
L 739.975558 -202.307549 
L 738.470182 -201.5787 
L 736.948706 -198.279704 
L 735.41078 -197.205612 
L 733.856047 -192.065316 
L 732.284134 -192.065316 
L 730.694657 -192.065316 
L 729.087219 -192.007775 
L 727.461411 -191.969415 
L 725.816807 -191.796793 
L 724.152967 -191.796793 
L 722.469436 -191.52827 
L 720.765742 -191.106305 
L 719.041398 -190.837782 
L 717.295895 -190.60762 
L 715.528708 -190.415818 
L 713.739292 -189.70615 
L 711.927081 -187.941571 
L 710.091485 -187.327804 
L 708.231894 -186.809938 
L 706.347672 -186.387973 
L 704.438157 -186.387973 
L 702.502662 -185.716666 
L 700.540469 -184.891917 
L 698.550833 -184.354871 
L 696.532974 -183.491762 
L 694.486079 -182.609472 
L 692.409302 -178.735069 
L 690.301757 -178.389826 
L 688.162519 -178.370645 
L 685.990618 -178.198023 
L 683.785044 -177.756879 
L 681.544735 -176.740327 
L 679.268579 -175.800497 
L 676.955411 -168.79972 
L 674.604007 -166.306293 
L 672.213082 -166.172031 
L 669.781285 -165.922688 
L 667.307193 -165.730886 
L 664.789309 -160.878293 
L 662.226056 -160.57141 
L 659.615768 -160.283706 
L 656.956687 -159.056173 
L 654.246954 -158.883551 
L 651.484601 -158.883551 
L 648.667545 -158.883551 
L 645.793575 -158.883551 
L 642.860343 -158.883551 
L 639.865355 -158.883551 
L 636.805953 -158.883551 
L 633.679306 -158.883551 
L 630.482392 -158.883551 
L 627.211979 -158.883551 
L 623.864608 -158.883551 
L 620.43657 -158.883551 
L 616.923881 -158.883551 
L 613.322253 -158.883551 
L 609.627066 -158.883551 
L 605.83333 -158.883551 
L 601.935642 -158.883551 
L 597.928146 -158.883551 
L 593.804475 -158.883551 
L 589.557691 -158.883551 
L 585.180217 -158.883551 
L 580.663752 -158.883551 
L 575.99918 -158.883551 
L 571.176457 -158.883551 
L 566.184482 -158.883551 
L 561.010941 -158.883551 
L 555.642127 -158.288965 
L 550.062718 -157.982081 
L 544.255516 -157.080611 
L 538.201126 -156.94635 
L 531.877565 -155.948979 
L 525.259781 -154.26112 
L 518.319053 -152.611622 
L 511.022239 -151.55671 
L 503.330815 -151.211467 
L 495.199648 -149.888032 
L 486.575389 -149.370166 
L 477.394352 -148.008371 
L 467.579655 -135.10009 
L 457.037299 -131.321588 
L 445.650688 -128.291115 
L 433.272737 -126.584076 
L 419.714226 -118.048882 
L 404.725987 -112.716783 
L 387.970562 -108.708119 
L 368.974827 -108.305335 
L 347.045861 -105.639286 
L 321.109399 -99.981123 
L 289.365734 -92.673463 
L 248.441033 -92.136417 
L 190.760907 -91.982975 
L 92.15608 -72.956206 
z
" id="mf74873ef1d" style="stroke:#c7c7c7;stroke-opacity:0.2;"/>
    </defs>
    <g clip-path="url(#pef8b99f3bb)">
     <use style="fill:#c7c7c7;fill-opacity:0.2;stroke:#c7c7c7;stroke-opacity:0.2;" x="0" xlink:href="#mf74873ef1d" y="325.986375"/>
    </g>
   </g>
   <g id="matplotlib.axis_1">
    <g id="xtick_1">
     <g id="line2d_1">
      <defs>
       <path d="M 0 0 
L 0 3.5 
" id="maba04b8f3f" style="stroke:#000000;stroke-width:0.8;"/>
      </defs>
      <g>
       <use style="stroke:#000000;stroke-width:0.8;" x="92.15608" xlink:href="#maba04b8f3f" y="288.430125"/>
      </g>
     </g>
     <g id="text_1">
      <!-- 14m -->
      <g transform="translate(80.923267 303.028562)scale(0.1 -0.1)">
       <defs>
        <path d="M 12.40625 8.296875 
L 28.515625 8.296875 
L 28.515625 63.921875 
L 10.984375 60.40625 
L 10.984375 69.390625 
L 28.421875 72.90625 
L 38.28125 72.90625 
L 38.28125 8.296875 
L 54.390625 8.296875 
L 54.390625 0 
L 12.40625 0 
z
" id="DejaVuSans-49"/>
        <path d="M 37.796875 64.3125 
L 12.890625 25.390625 
L 37.796875 25.390625 
z
M 35.203125 72.90625 
L 47.609375 72.90625 
L 47.609375 25.390625 
L 58.015625 25.390625 
L 58.015625 17.1875 
L 47.609375 17.1875 
L 47.609375 0 
L 37.796875 0 
L 37.796875 17.1875 
L 4.890625 17.1875 
L 4.890625 26.703125 
z
" id="DejaVuSans-52"/>
        <path d="M 52 44.1875 
Q 55.375 50.25 60.0625 53.125 
Q 64.75 56 71.09375 56 
Q 79.640625 56 84.28125 50.015625 
Q 88.921875 44.046875 88.921875 33.015625 
L 88.921875 0 
L 79.890625 0 
L 79.890625 32.71875 
Q 79.890625 40.578125 77.09375 44.375 
Q 74.3125 48.1875 68.609375 48.1875 
Q 61.625 48.1875 57.5625 43.546875 
Q 53.515625 38.921875 53.515625 30.90625 
L 53.515625 0 
L 44.484375 0 
L 44.484375 32.71875 
Q 44.484375 40.625 41.703125 44.40625 
Q 38.921875 48.1875 33.109375 48.1875 
Q 26.21875 48.1875 22.15625 43.53125 
Q 18.109375 38.875 18.109375 30.90625 
L 18.109375 0 
L 9.078125 0 
L 9.078125 54.6875 
L 18.109375 54.6875 
L 18.109375 46.1875 
Q 21.1875 51.21875 25.484375 53.609375 
Q 29.78125 56 35.6875 56 
Q 41.65625 56 45.828125 52.96875 
Q 50 49.953125 52 44.1875 
z
" id="DejaVuSans-109"/>
       </defs>
       <use xlink:href="#DejaVuSans-49"/>
       <use x="63.623047" xlink:href="#DejaVuSans-52"/>
       <use x="127.246094" xlink:href="#DejaVuSans-109"/>
      </g>
     </g>
    </g>
    <g id="xtick_2">
     <g id="line2d_2">
      <g>
       <use style="stroke:#000000;stroke-width:0.8;" x="151.184328" xlink:href="#maba04b8f3f" y="288.430125"/>
      </g>
     </g>
     <g id="text_2">
      <!-- 22m -->
      <g transform="translate(139.951516 303.028562)scale(0.1 -0.1)">
       <defs>
        <path d="M 19.1875 8.296875 
L 53.609375 8.296875 
L 53.609375 0 
L 7.328125 0 
L 7.328125 8.296875 
Q 12.9375 14.109375 22.625 23.890625 
Q 32.328125 33.6875 34.8125 36.53125 
Q 39.546875 41.84375 41.421875 45.53125 
Q 43.3125 49.21875 43.3125 52.78125 
Q 43.3125 58.59375 39.234375 62.25 
Q 35.15625 65.921875 28.609375 65.921875 
Q 23.96875 65.921875 18.8125 64.3125 
Q 13.671875 62.703125 7.8125 59.421875 
L 7.8125 69.390625 
Q 13.765625 71.78125 18.9375 73 
Q 24.125 74.21875 28.421875 74.21875 
Q 39.75 74.21875 46.484375 68.546875 
Q 53.21875 62.890625 53.21875 53.421875 
Q 53.21875 48.921875 51.53125 44.890625 
Q 49.859375 40.875 45.40625 35.40625 
Q 44.1875 33.984375 37.640625 27.21875 
Q 31.109375 20.453125 19.1875 8.296875 
z
" id="DejaVuSans-50"/>
       </defs>
       <use xlink:href="#DejaVuSans-50"/>
       <use x="63.623047" xlink:href="#DejaVuSans-50"/>
       <use x="127.246094" xlink:href="#DejaVuSans-109"/>
      </g>
     </g>
    </g>
    <g id="xtick_3">
     <g id="line2d_3">
      <g>
       <use style="stroke:#000000;stroke-width:0.8;" x="210.212577" xlink:href="#maba04b8f3f" y="288.430125"/>
      </g>
     </g>
     <g id="text_3">
      <!-- 34m -->
      <g transform="translate(198.979765 303.028562)scale(0.1 -0.1)">
       <defs>
        <path d="M 40.578125 39.3125 
Q 47.65625 37.796875 51.625 33 
Q 55.609375 28.21875 55.609375 21.1875 
Q 55.609375 10.40625 48.1875 4.484375 
Q 40.765625 -1.421875 27.09375 -1.421875 
Q 22.515625 -1.421875 17.65625 -0.515625 
Q 12.796875 0.390625 7.625 2.203125 
L 7.625 11.71875 
Q 11.71875 9.328125 16.59375 8.109375 
Q 21.484375 6.890625 26.8125 6.890625 
Q 36.078125 6.890625 40.9375 10.546875 
Q 45.796875 14.203125 45.796875 21.1875 
Q 45.796875 27.640625 41.28125 31.265625 
Q 36.765625 34.90625 28.71875 34.90625 
L 20.21875 34.90625 
L 20.21875 43.015625 
L 29.109375 43.015625 
Q 36.375 43.015625 40.234375 45.921875 
Q 44.09375 48.828125 44.09375 54.296875 
Q 44.09375 59.90625 40.109375 62.90625 
Q 36.140625 65.921875 28.71875 65.921875 
Q 24.65625 65.921875 20.015625 65.03125 
Q 15.375 64.15625 9.8125 62.3125 
L 9.8125 71.09375 
Q 15.4375 72.65625 20.34375 73.4375 
Q 25.25 74.21875 29.59375 74.21875 
Q 40.828125 74.21875 47.359375 69.109375 
Q 53.90625 64.015625 53.90625 55.328125 
Q 53.90625 49.265625 50.4375 45.09375 
Q 46.96875 40.921875 40.578125 39.3125 
z
" id="DejaVuSans-51"/>
       </defs>
       <use xlink:href="#DejaVuSans-51"/>
       <use x="63.623047" xlink:href="#DejaVuSans-52"/>
       <use x="127.246094" xlink:href="#DejaVuSans-109"/>
      </g>
     </g>
    </g>
    <g id="xtick_4">
     <g id="line2d_4">
      <g>
       <use style="stroke:#000000;stroke-width:0.8;" x="269.240826" xlink:href="#maba04b8f3f" y="288.430125"/>
      </g>
     </g>
     <g id="text_4">
      <!-- 52m -->
      <g transform="translate(258.008014 303.028562)scale(0.1 -0.1)">
       <defs>
        <path d="M 10.796875 72.90625 
L 49.515625 72.90625 
L 49.515625 64.59375 
L 19.828125 64.59375 
L 19.828125 46.734375 
Q 21.96875 47.46875 24.109375 47.828125 
Q 26.265625 48.1875 28.421875 48.1875 
Q 40.625 48.1875 47.75 41.5 
Q 54.890625 34.8125 54.890625 23.390625 
Q 54.890625 11.625 47.5625 5.09375 
Q 40.234375 -1.421875 26.90625 -1.421875 
Q 22.3125 -1.421875 17.546875 -0.640625 
Q 12.796875 0.140625 7.71875 1.703125 
L 7.71875 11.625 
Q 12.109375 9.234375 16.796875 8.0625 
Q 21.484375 6.890625 26.703125 6.890625 
Q 35.15625 6.890625 40.078125 11.328125 
Q 45.015625 15.765625 45.015625 23.390625 
Q 45.015625 31 40.078125 35.4375 
Q 35.15625 39.890625 26.703125 39.890625 
Q 22.75 39.890625 18.8125 39.015625 
Q 14.890625 38.140625 10.796875 36.28125 
z
" id="DejaVuSans-53"/>
       </defs>
       <use xlink:href="#DejaVuSans-53"/>
       <use x="63.623047" xlink:href="#DejaVuSans-50"/>
       <use x="127.246094" xlink:href="#DejaVuSans-109"/>
      </g>
     </g>
    </g>
    <g id="xtick_5">
     <g id="line2d_5">
      <g>
       <use style="stroke:#000000;stroke-width:0.8;" x="328.269075" xlink:href="#maba04b8f3f" y="288.430125"/>
      </g>
     </g>
     <g id="text_5">
      <!-- 1h:18m -->
      <g transform="translate(309.001887 303.028562)scale(0.1 -0.1)">
       <defs>
        <path d="M 54.890625 33.015625 
L 54.890625 0 
L 45.90625 0 
L 45.90625 32.71875 
Q 45.90625 40.484375 42.875 44.328125 
Q 39.84375 48.1875 33.796875 48.1875 
Q 26.515625 48.1875 22.3125 43.546875 
Q 18.109375 38.921875 18.109375 30.90625 
L 18.109375 0 
L 9.078125 0 
L 9.078125 75.984375 
L 18.109375 75.984375 
L 18.109375 46.1875 
Q 21.34375 51.125 25.703125 53.5625 
Q 30.078125 56 35.796875 56 
Q 45.21875 56 50.046875 50.171875 
Q 54.890625 44.34375 54.890625 33.015625 
z
" id="DejaVuSans-104"/>
        <path d="M 11.71875 12.40625 
L 22.015625 12.40625 
L 22.015625 0 
L 11.71875 0 
z
M 11.71875 51.703125 
L 22.015625 51.703125 
L 22.015625 39.3125 
L 11.71875 39.3125 
z
" id="DejaVuSans-58"/>
        <path d="M 31.78125 34.625 
Q 24.75 34.625 20.71875 30.859375 
Q 16.703125 27.09375 16.703125 20.515625 
Q 16.703125 13.921875 20.71875 10.15625 
Q 24.75 6.390625 31.78125 6.390625 
Q 38.8125 6.390625 42.859375 10.171875 
Q 46.921875 13.96875 46.921875 20.515625 
Q 46.921875 27.09375 42.890625 30.859375 
Q 38.875 34.625 31.78125 34.625 
z
M 21.921875 38.8125 
Q 15.578125 40.375 12.03125 44.71875 
Q 8.5 49.078125 8.5 55.328125 
Q 8.5 64.0625 14.71875 69.140625 
Q 20.953125 74.21875 31.78125 74.21875 
Q 42.671875 74.21875 48.875 69.140625 
Q 55.078125 64.0625 55.078125 55.328125 
Q 55.078125 49.078125 51.53125 44.71875 
Q 48 40.375 41.703125 38.8125 
Q 48.828125 37.15625 52.796875 32.3125 
Q 56.78125 27.484375 56.78125 20.515625 
Q 56.78125 9.90625 50.3125 4.234375 
Q 43.84375 -1.421875 31.78125 -1.421875 
Q 19.734375 -1.421875 13.25 4.234375 
Q 6.78125 9.90625 6.78125 20.515625 
Q 6.78125 27.484375 10.78125 32.3125 
Q 14.796875 37.15625 21.921875 38.8125 
z
M 18.3125 54.390625 
Q 18.3125 48.734375 21.84375 45.5625 
Q 25.390625 42.390625 31.78125 42.390625 
Q 38.140625 42.390625 41.71875 45.5625 
Q 45.3125 48.734375 45.3125 54.390625 
Q 45.3125 60.0625 41.71875 63.234375 
Q 38.140625 66.40625 31.78125 66.40625 
Q 25.390625 66.40625 21.84375 63.234375 
Q 18.3125 60.0625 18.3125 54.390625 
z
" id="DejaVuSans-56"/>
       </defs>
       <use xlink:href="#DejaVuSans-49"/>
       <use x="63.623047" xlink:href="#DejaVuSans-104"/>
       <use x="127.001953" xlink:href="#DejaVuSans-58"/>
       <use x="160.693359" xlink:href="#DejaVuSans-49"/>
       <use x="224.316406" xlink:href="#DejaVuSans-56"/>
       <use x="287.939453" xlink:href="#DejaVuSans-109"/>
      </g>
     </g>
    </g>
    <g id="xtick_6">
     <g id="line2d_6">
      <g>
       <use style="stroke:#000000;stroke-width:0.8;" x="387.297324" xlink:href="#maba04b8f3f" y="288.430125"/>
      </g>
     </g>
     <g id="text_6">
      <!-- 1h:59m -->
      <g transform="translate(368.030136 303.028562)scale(0.1 -0.1)">
       <defs>
        <path d="M 10.984375 1.515625 
L 10.984375 10.5 
Q 14.703125 8.734375 18.5 7.8125 
Q 22.3125 6.890625 25.984375 6.890625 
Q 35.75 6.890625 40.890625 13.453125 
Q 46.046875 20.015625 46.78125 33.40625 
Q 43.953125 29.203125 39.59375 26.953125 
Q 35.25 24.703125 29.984375 24.703125 
Q 19.046875 24.703125 12.671875 31.3125 
Q 6.296875 37.9375 6.296875 49.421875 
Q 6.296875 60.640625 12.9375 67.421875 
Q 19.578125 74.21875 30.609375 74.21875 
Q 43.265625 74.21875 49.921875 64.515625 
Q 56.59375 54.828125 56.59375 36.375 
Q 56.59375 19.140625 48.40625 8.859375 
Q 40.234375 -1.421875 26.421875 -1.421875 
Q 22.703125 -1.421875 18.890625 -0.6875 
Q 15.09375 0.046875 10.984375 1.515625 
z
M 30.609375 32.421875 
Q 37.25 32.421875 41.125 36.953125 
Q 45.015625 41.5 45.015625 49.421875 
Q 45.015625 57.28125 41.125 61.84375 
Q 37.25 66.40625 30.609375 66.40625 
Q 23.96875 66.40625 20.09375 61.84375 
Q 16.21875 57.28125 16.21875 49.421875 
Q 16.21875 41.5 20.09375 36.953125 
Q 23.96875 32.421875 30.609375 32.421875 
z
" id="DejaVuSans-57"/>
       </defs>
       <use xlink:href="#DejaVuSans-49"/>
       <use x="63.623047" xlink:href="#DejaVuSans-104"/>
       <use x="127.001953" xlink:href="#DejaVuSans-58"/>
       <use x="160.693359" xlink:href="#DejaVuSans-53"/>
       <use x="224.316406" xlink:href="#DejaVuSans-57"/>
       <use x="287.939453" xlink:href="#DejaVuSans-109"/>
      </g>
     </g>
    </g>
    <g id="xtick_7">
     <g id="line2d_7">
      <g>
       <use style="stroke:#000000;stroke-width:0.8;" x="446.325573" xlink:href="#maba04b8f3f" y="288.430125"/>
      </g>
     </g>
     <g id="text_7">
      <!-- 3h -->
      <g transform="translate(439.975573 303.028562)scale(0.1 -0.1)">
       <use xlink:href="#DejaVuSans-51"/>
       <use x="63.623047" xlink:href="#DejaVuSans-104"/>
      </g>
     </g>
    </g>
    <g id="xtick_8">
     <g id="line2d_8">
      <g>
       <use style="stroke:#000000;stroke-width:0.8;" x="505.353822" xlink:href="#maba04b8f3f" y="288.430125"/>
      </g>
     </g>
     <g id="text_8">
      <!-- 4h:33m -->
      <g transform="translate(486.086634 303.028562)scale(0.1 -0.1)">
       <use xlink:href="#DejaVuSans-52"/>
       <use x="63.623047" xlink:href="#DejaVuSans-104"/>
       <use x="127.001953" xlink:href="#DejaVuSans-58"/>
       <use x="160.693359" xlink:href="#DejaVuSans-51"/>
       <use x="224.316406" xlink:href="#DejaVuSans-51"/>
       <use x="287.939453" xlink:href="#DejaVuSans-109"/>
      </g>
     </g>
    </g>
    <g id="xtick_9">
     <g id="line2d_9">
      <g>
       <use style="stroke:#000000;stroke-width:0.8;" x="564.38207" xlink:href="#maba04b8f3f" y="288.430125"/>
      </g>
     </g>
     <g id="text_9">
      <!-- 6h:54m -->
      <g transform="translate(545.114883 303.028562)scale(0.1 -0.1)">
       <defs>
        <path d="M 33.015625 40.375 
Q 26.375 40.375 22.484375 35.828125 
Q 18.609375 31.296875 18.609375 23.390625 
Q 18.609375 15.53125 22.484375 10.953125 
Q 26.375 6.390625 33.015625 6.390625 
Q 39.65625 6.390625 43.53125 10.953125 
Q 47.40625 15.53125 47.40625 23.390625 
Q 47.40625 31.296875 43.53125 35.828125 
Q 39.65625 40.375 33.015625 40.375 
z
M 52.59375 71.296875 
L 52.59375 62.3125 
Q 48.875 64.0625 45.09375 64.984375 
Q 41.3125 65.921875 37.59375 65.921875 
Q 27.828125 65.921875 22.671875 59.328125 
Q 17.53125 52.734375 16.796875 39.40625 
Q 19.671875 43.65625 24.015625 45.921875 
Q 28.375 48.1875 33.59375 48.1875 
Q 44.578125 48.1875 50.953125 41.515625 
Q 57.328125 34.859375 57.328125 23.390625 
Q 57.328125 12.15625 50.6875 5.359375 
Q 44.046875 -1.421875 33.015625 -1.421875 
Q 20.359375 -1.421875 13.671875 8.265625 
Q 6.984375 17.96875 6.984375 36.375 
Q 6.984375 53.65625 15.1875 63.9375 
Q 23.390625 74.21875 37.203125 74.21875 
Q 40.921875 74.21875 44.703125 73.484375 
Q 48.484375 72.75 52.59375 71.296875 
z
" id="DejaVuSans-54"/>
       </defs>
       <use xlink:href="#DejaVuSans-54"/>
       <use x="63.623047" xlink:href="#DejaVuSans-104"/>
       <use x="127.001953" xlink:href="#DejaVuSans-58"/>
       <use x="160.693359" xlink:href="#DejaVuSans-53"/>
       <use x="224.316406" xlink:href="#DejaVuSans-52"/>
       <use x="287.939453" xlink:href="#DejaVuSans-109"/>
      </g>
     </g>
    </g>
    <g id="xtick_10">
     <g id="line2d_10">
      <g>
       <use style="stroke:#000000;stroke-width:0.8;" x="623.410319" xlink:href="#maba04b8f3f" y="288.430125"/>
      </g>
     </g>
     <g id="text_10">
      <!-- 10h:27m -->
      <g transform="translate(600.961882 303.028562)scale(0.1 -0.1)">
       <defs>
        <path d="M 31.78125 66.40625 
Q 24.171875 66.40625 20.328125 58.90625 
Q 16.5 51.421875 16.5 36.375 
Q 16.5 21.390625 20.328125 13.890625 
Q 24.171875 6.390625 31.78125 6.390625 
Q 39.453125 6.390625 43.28125 13.890625 
Q 47.125 21.390625 47.125 36.375 
Q 47.125 51.421875 43.28125 58.90625 
Q 39.453125 66.40625 31.78125 66.40625 
z
M 31.78125 74.21875 
Q 44.046875 74.21875 50.515625 64.515625 
Q 56.984375 54.828125 56.984375 36.375 
Q 56.984375 17.96875 50.515625 8.265625 
Q 44.046875 -1.421875 31.78125 -1.421875 
Q 19.53125 -1.421875 13.0625 8.265625 
Q 6.59375 17.96875 6.59375 36.375 
Q 6.59375 54.828125 13.0625 64.515625 
Q 19.53125 74.21875 31.78125 74.21875 
z
" id="DejaVuSans-48"/>
        <path d="M 8.203125 72.90625 
L 55.078125 72.90625 
L 55.078125 68.703125 
L 28.609375 0 
L 18.3125 0 
L 43.21875 64.59375 
L 8.203125 64.59375 
z
" id="DejaVuSans-55"/>
       </defs>
       <use xlink:href="#DejaVuSans-49"/>
       <use x="63.623047" xlink:href="#DejaVuSans-48"/>
       <use x="127.246094" xlink:href="#DejaVuSans-104"/>
       <use x="190.625" xlink:href="#DejaVuSans-58"/>
       <use x="224.316406" xlink:href="#DejaVuSans-50"/>
       <use x="287.939453" xlink:href="#DejaVuSans-55"/>
       <use x="351.5625" xlink:href="#DejaVuSans-109"/>
      </g>
     </g>
    </g>
    <g id="xtick_11">
     <g id="line2d_11">
      <g>
       <use style="stroke:#000000;stroke-width:0.8;" x="682.438568" xlink:href="#maba04b8f3f" y="288.430125"/>
      </g>
     </g>
     <g id="text_11">
      <!-- 15h:50m -->
      <g transform="translate(659.990131 303.028562)scale(0.1 -0.1)">
       <use xlink:href="#DejaVuSans-49"/>
       <use x="63.623047" xlink:href="#DejaVuSans-53"/>
       <use x="127.246094" xlink:href="#DejaVuSans-104"/>
       <use x="190.625" xlink:href="#DejaVuSans-58"/>
       <use x="224.316406" xlink:href="#DejaVuSans-53"/>
       <use x="287.939453" xlink:href="#DejaVuSans-48"/>
       <use x="351.5625" xlink:href="#DejaVuSans-109"/>
      </g>
     </g>
    </g>
    <g id="xtick_12">
     <g id="line2d_12">
      <g>
       <use style="stroke:#000000;stroke-width:0.8;" x="741.466817" xlink:href="#maba04b8f3f" y="288.430125"/>
      </g>
     </g>
     <g id="text_12">
      <!-- 24h -->
      <g transform="translate(731.935567 303.028562)scale(0.1 -0.1)">
       <use xlink:href="#DejaVuSans-50"/>
       <use x="63.623047" xlink:href="#DejaVuSans-52"/>
       <use x="127.246094" xlink:href="#DejaVuSans-104"/>
      </g>
     </g>
    </g>
    <g id="xtick_13">
     <g id="line2d_13">
      <defs>
       <path d="M 0 0 
L 0 2 
" id="m183fe9b873" style="stroke:#000000;stroke-width:0.6;"/>
      </defs>
      <g>
       <use style="stroke:#000000;stroke-width:0.6;" x="75.400654" xlink:href="#m183fe9b873" y="288.430125"/>
      </g>
     </g>
    </g>
    <g id="xtick_14">
     <g id="line2d_14">
      <g>
       <use style="stroke:#000000;stroke-width:0.6;" x="205.749146" xlink:href="#m183fe9b873" y="288.430125"/>
      </g>
     </g>
    </g>
    <g id="xtick_15">
     <g id="line2d_15">
      <g>
       <use style="stroke:#000000;stroke-width:0.6;" x="263.429272" xlink:href="#m183fe9b873" y="288.430125"/>
      </g>
     </g>
    </g>
    <g id="xtick_16">
     <g id="line2d_16">
      <g>
       <use style="stroke:#000000;stroke-width:0.6;" x="304.353973" xlink:href="#m183fe9b873" y="288.430125"/>
      </g>
     </g>
    </g>
    <g id="xtick_17">
     <g id="line2d_17">
      <g>
       <use style="stroke:#000000;stroke-width:0.6;" x="336.097637" xlink:href="#m183fe9b873" y="288.430125"/>
      </g>
     </g>
    </g>
    <g id="xtick_18">
     <g id="line2d_18">
      <g>
       <use style="stroke:#000000;stroke-width:0.6;" x="362.0341" xlink:href="#m183fe9b873" y="288.430125"/>
      </g>
     </g>
    </g>
    <g id="xtick_19">
     <g id="line2d_19">
      <g>
       <use style="stroke:#000000;stroke-width:0.6;" x="383.963066" xlink:href="#m183fe9b873" y="288.430125"/>
      </g>
     </g>
    </g>
    <g id="xtick_20">
     <g id="line2d_20">
      <g>
       <use style="stroke:#000000;stroke-width:0.6;" x="402.958801" xlink:href="#m183fe9b873" y="288.430125"/>
      </g>
     </g>
    </g>
    <g id="xtick_21">
     <g id="line2d_21">
      <g>
       <use style="stroke:#000000;stroke-width:0.6;" x="419.714226" xlink:href="#m183fe9b873" y="288.430125"/>
      </g>
     </g>
    </g>
    <g id="xtick_22">
     <g id="line2d_22">
      <g>
       <use style="stroke:#000000;stroke-width:0.6;" x="533.307292" xlink:href="#m183fe9b873" y="288.430125"/>
      </g>
     </g>
    </g>
    <g id="xtick_23">
     <g id="line2d_23">
      <g>
       <use style="stroke:#000000;stroke-width:0.6;" x="590.987419" xlink:href="#m183fe9b873" y="288.430125"/>
      </g>
     </g>
    </g>
    <g id="xtick_24">
     <g id="line2d_24">
      <g>
       <use style="stroke:#000000;stroke-width:0.6;" x="631.91212" xlink:href="#m183fe9b873" y="288.430125"/>
      </g>
     </g>
    </g>
    <g id="xtick_25">
     <g id="line2d_25">
      <g>
       <use style="stroke:#000000;stroke-width:0.6;" x="663.655784" xlink:href="#m183fe9b873" y="288.430125"/>
      </g>
     </g>
    </g>
    <g id="xtick_26">
     <g id="line2d_26">
      <g>
       <use style="stroke:#000000;stroke-width:0.6;" x="689.592246" xlink:href="#m183fe9b873" y="288.430125"/>
      </g>
     </g>
    </g>
    <g id="xtick_27">
     <g id="line2d_27">
      <g>
       <use style="stroke:#000000;stroke-width:0.6;" x="711.521212" xlink:href="#m183fe9b873" y="288.430125"/>
      </g>
     </g>
    </g>
    <g id="xtick_28">
     <g id="line2d_28">
      <g>
       <use style="stroke:#000000;stroke-width:0.6;" x="730.516947" xlink:href="#m183fe9b873" y="288.430125"/>
      </g>
     </g>
    </g>
    <g id="xtick_29">
     <g id="line2d_29">
      <g>
       <use style="stroke:#000000;stroke-width:0.6;" x="747.272372" xlink:href="#m183fe9b873" y="288.430125"/>
      </g>
     </g>
    </g>
    <g id="text_13">
     <!-- Time (hour:minute) -->
     <g transform="translate(368.403594 316.706687)scale(0.1 -0.1)">
      <defs>
       <path d="M -0.296875 72.90625 
L 61.375 72.90625 
L 61.375 64.59375 
L 35.5 64.59375 
L 35.5 0 
L 25.59375 0 
L 25.59375 64.59375 
L -0.296875 64.59375 
z
" id="DejaVuSans-84"/>
       <path d="M 9.421875 54.6875 
L 18.40625 54.6875 
L 18.40625 0 
L 9.421875 0 
z
M 9.421875 75.984375 
L 18.40625 75.984375 
L 18.40625 64.59375 
L 9.421875 64.59375 
z
" id="DejaVuSans-105"/>
       <path d="M 56.203125 29.59375 
L 56.203125 25.203125 
L 14.890625 25.203125 
Q 15.484375 15.921875 20.484375 11.0625 
Q 25.484375 6.203125 34.421875 6.203125 
Q 39.59375 6.203125 44.453125 7.46875 
Q 49.3125 8.734375 54.109375 11.28125 
L 54.109375 2.78125 
Q 49.265625 0.734375 44.1875 -0.34375 
Q 39.109375 -1.421875 33.890625 -1.421875 
Q 20.796875 -1.421875 13.15625 6.1875 
Q 5.515625 13.8125 5.515625 26.8125 
Q 5.515625 40.234375 12.765625 48.109375 
Q 20.015625 56 32.328125 56 
Q 43.359375 56 49.78125 48.890625 
Q 56.203125 41.796875 56.203125 29.59375 
z
M 47.21875 32.234375 
Q 47.125 39.59375 43.09375 43.984375 
Q 39.0625 48.390625 32.421875 48.390625 
Q 24.90625 48.390625 20.390625 44.140625 
Q 15.875 39.890625 15.1875 32.171875 
z
" id="DejaVuSans-101"/>
       <path id="DejaVuSans-32"/>
       <path d="M 31 75.875 
Q 24.46875 64.65625 21.28125 53.65625 
Q 18.109375 42.671875 18.109375 31.390625 
Q 18.109375 20.125 21.3125 9.0625 
Q 24.515625 -2 31 -13.1875 
L 23.1875 -13.1875 
Q 15.875 -1.703125 12.234375 9.375 
Q 8.59375 20.453125 8.59375 31.390625 
Q 8.59375 42.28125 12.203125 53.3125 
Q 15.828125 64.359375 23.1875 75.875 
z
" id="DejaVuSans-40"/>
       <path d="M 30.609375 48.390625 
Q 23.390625 48.390625 19.1875 42.75 
Q 14.984375 37.109375 14.984375 27.296875 
Q 14.984375 17.484375 19.15625 11.84375 
Q 23.34375 6.203125 30.609375 6.203125 
Q 37.796875 6.203125 41.984375 11.859375 
Q 46.1875 17.53125 46.1875 27.296875 
Q 46.1875 37.015625 41.984375 42.703125 
Q 37.796875 48.390625 30.609375 48.390625 
z
M 30.609375 56 
Q 42.328125 56 49.015625 48.375 
Q 55.71875 40.765625 55.71875 27.296875 
Q 55.71875 13.875 49.015625 6.21875 
Q 42.328125 -1.421875 30.609375 -1.421875 
Q 18.84375 -1.421875 12.171875 6.21875 
Q 5.515625 13.875 5.515625 27.296875 
Q 5.515625 40.765625 12.171875 48.375 
Q 18.84375 56 30.609375 56 
z
" id="DejaVuSans-111"/>
       <path d="M 8.5 21.578125 
L 8.5 54.6875 
L 17.484375 54.6875 
L 17.484375 21.921875 
Q 17.484375 14.15625 20.5 10.265625 
Q 23.53125 6.390625 29.59375 6.390625 
Q 36.859375 6.390625 41.078125 11.03125 
Q 45.3125 15.671875 45.3125 23.6875 
L 45.3125 54.6875 
L 54.296875 54.6875 
L 54.296875 0 
L 45.3125 0 
L 45.3125 8.40625 
Q 42.046875 3.421875 37.71875 1 
Q 33.40625 -1.421875 27.6875 -1.421875 
Q 18.265625 -1.421875 13.375 4.4375 
Q 8.5 10.296875 8.5 21.578125 
z
M 31.109375 56 
z
" id="DejaVuSans-117"/>
       <path d="M 41.109375 46.296875 
Q 39.59375 47.171875 37.8125 47.578125 
Q 36.03125 48 33.890625 48 
Q 26.265625 48 22.1875 43.046875 
Q 18.109375 38.09375 18.109375 28.8125 
L 18.109375 0 
L 9.078125 0 
L 9.078125 54.6875 
L 18.109375 54.6875 
L 18.109375 46.1875 
Q 20.953125 51.171875 25.484375 53.578125 
Q 30.03125 56 36.53125 56 
Q 37.453125 56 38.578125 55.875 
Q 39.703125 55.765625 41.0625 55.515625 
z
" id="DejaVuSans-114"/>
       <path d="M 54.890625 33.015625 
L 54.890625 0 
L 45.90625 0 
L 45.90625 32.71875 
Q 45.90625 40.484375 42.875 44.328125 
Q 39.84375 48.1875 33.796875 48.1875 
Q 26.515625 48.1875 22.3125 43.546875 
Q 18.109375 38.921875 18.109375 30.90625 
L 18.109375 0 
L 9.078125 0 
L 9.078125 54.6875 
L 18.109375 54.6875 
L 18.109375 46.1875 
Q 21.34375 51.125 25.703125 53.5625 
Q 30.078125 56 35.796875 56 
Q 45.21875 56 50.046875 50.171875 
Q 54.890625 44.34375 54.890625 33.015625 
z
" id="DejaVuSans-110"/>
       <path d="M 18.3125 70.21875 
L 18.3125 54.6875 
L 36.8125 54.6875 
L 36.8125 47.703125 
L 18.3125 47.703125 
L 18.3125 18.015625 
Q 18.3125 11.328125 20.140625 9.421875 
Q 21.96875 7.515625 27.59375 7.515625 
L 36.8125 7.515625 
L 36.8125 0 
L 27.59375 0 
Q 17.1875 0 13.234375 3.875 
Q 9.28125 7.765625 9.28125 18.015625 
L 9.28125 47.703125 
L 2.6875 47.703125 
L 2.6875 54.6875 
L 9.28125 54.6875 
L 9.28125 70.21875 
z
" id="DejaVuSans-116"/>
       <path d="M 8.015625 75.875 
L 15.828125 75.875 
Q 23.140625 64.359375 26.78125 53.3125 
Q 30.421875 42.28125 30.421875 31.390625 
Q 30.421875 20.453125 26.78125 9.375 
Q 23.140625 -1.703125 15.828125 -13.1875 
L 8.015625 -13.1875 
Q 14.5 -2 17.703125 9.0625 
Q 20.90625 20.125 20.90625 31.390625 
Q 20.90625 42.671875 17.703125 53.65625 
Q 14.5 64.65625 8.015625 75.875 
z
" id="DejaVuSans-41"/>
      </defs>
      <use xlink:href="#DejaVuSans-84"/>
      <use x="57.958984" xlink:href="#DejaVuSans-105"/>
      <use x="85.742188" xlink:href="#DejaVuSans-109"/>
      <use x="183.154297" xlink:href="#DejaVuSans-101"/>
      <use x="244.677734" xlink:href="#DejaVuSans-32"/>
      <use x="276.464844" xlink:href="#DejaVuSans-40"/>
      <use x="315.478516" xlink:href="#DejaVuSans-104"/>
      <use x="378.857422" xlink:href="#DejaVuSans-111"/>
      <use x="440.039062" xlink:href="#DejaVuSans-117"/>
      <use x="503.417969" xlink:href="#DejaVuSans-114"/>
      <use x="542.78125" xlink:href="#DejaVuSans-58"/>
      <use x="576.472656" xlink:href="#DejaVuSans-109"/>
      <use x="673.884766" xlink:href="#DejaVuSans-105"/>
      <use x="701.667969" xlink:href="#DejaVuSans-110"/>
      <use x="765.046875" xlink:href="#DejaVuSans-117"/>
      <use x="828.425781" xlink:href="#DejaVuSans-116"/>
      <use x="867.634766" xlink:href="#DejaVuSans-101"/>
      <use x="929.158203" xlink:href="#DejaVuSans-41"/>
     </g>
    </g>
   </g>
   <g id="matplotlib.axis_2">
    <g id="ytick_1">
     <g id="line2d_30">
      <defs>
       <path d="M 0 0 
L -3.5 0 
" id="m0ac5b80db0" style="stroke:#000000;stroke-width:0.8;"/>
      </defs>
      <g>
       <use style="stroke:#000000;stroke-width:0.8;" x="59.690625" xlink:href="#m0ac5b80db0" y="262.620274"/>
      </g>
     </g>
     <g id="text_14">
      <!-- 18000 -->
      <g transform="translate(20.878125 266.419493)scale(0.1 -0.1)">
       <use xlink:href="#DejaVuSans-49"/>
       <use x="63.623047" xlink:href="#DejaVuSans-56"/>
       <use x="127.246094" xlink:href="#DejaVuSans-48"/>
       <use x="190.869141" xlink:href="#DejaVuSans-48"/>
       <use x="254.492188" xlink:href="#DejaVuSans-48"/>
      </g>
     </g>
    </g>
    <g id="ytick_2">
     <g id="line2d_31">
      <g>
       <use style="stroke:#000000;stroke-width:0.8;" x="59.690625" xlink:href="#m0ac5b80db0" y="224.259852"/>
      </g>
     </g>
     <g id="text_15">
      <!-- 20000 -->
      <g transform="translate(20.878125 228.059071)scale(0.1 -0.1)">
       <use xlink:href="#DejaVuSans-50"/>
       <use x="63.623047" xlink:href="#DejaVuSans-48"/>
       <use x="127.246094" xlink:href="#DejaVuSans-48"/>
       <use x="190.869141" xlink:href="#DejaVuSans-48"/>
       <use x="254.492188" xlink:href="#DejaVuSans-48"/>
      </g>
     </g>
    </g>
    <g id="ytick_3">
     <g id="line2d_32">
      <g>
       <use style="stroke:#000000;stroke-width:0.8;" x="59.690625" xlink:href="#m0ac5b80db0" y="185.899431"/>
      </g>
     </g>
     <g id="text_16">
      <!-- 22000 -->
      <g transform="translate(20.878125 189.698649)scale(0.1 -0.1)">
       <use xlink:href="#DejaVuSans-50"/>
       <use x="63.623047" xlink:href="#DejaVuSans-50"/>
       <use x="127.246094" xlink:href="#DejaVuSans-48"/>
       <use x="190.869141" xlink:href="#DejaVuSans-48"/>
       <use x="254.492188" xlink:href="#DejaVuSans-48"/>
      </g>
     </g>
    </g>
    <g id="ytick_4">
     <g id="line2d_33">
      <g>
       <use style="stroke:#000000;stroke-width:0.8;" x="59.690625" xlink:href="#m0ac5b80db0" y="147.539009"/>
      </g>
     </g>
     <g id="text_17">
      <!-- 24000 -->
      <g transform="translate(20.878125 151.338228)scale(0.1 -0.1)">
       <use xlink:href="#DejaVuSans-50"/>
       <use x="63.623047" xlink:href="#DejaVuSans-52"/>
       <use x="127.246094" xlink:href="#DejaVuSans-48"/>
       <use x="190.869141" xlink:href="#DejaVuSans-48"/>
       <use x="254.492188" xlink:href="#DejaVuSans-48"/>
      </g>
     </g>
    </g>
    <g id="ytick_5">
     <g id="line2d_34">
      <g>
       <use style="stroke:#000000;stroke-width:0.8;" x="59.690625" xlink:href="#m0ac5b80db0" y="109.178587"/>
      </g>
     </g>
     <g id="text_18">
      <!-- 26000 -->
      <g transform="translate(20.878125 112.977806)scale(0.1 -0.1)">
       <use xlink:href="#DejaVuSans-50"/>
       <use x="63.623047" xlink:href="#DejaVuSans-54"/>
       <use x="127.246094" xlink:href="#DejaVuSans-48"/>
       <use x="190.869141" xlink:href="#DejaVuSans-48"/>
       <use x="254.492188" xlink:href="#DejaVuSans-48"/>
      </g>
     </g>
    </g>
    <g id="ytick_6">
     <g id="line2d_35">
      <g>
       <use style="stroke:#000000;stroke-width:0.8;" x="59.690625" xlink:href="#m0ac5b80db0" y="70.818165"/>
      </g>
     </g>
     <g id="text_19">
      <!-- 28000 -->
      <g transform="translate(20.878125 74.617384)scale(0.1 -0.1)">
       <use xlink:href="#DejaVuSans-50"/>
       <use x="63.623047" xlink:href="#DejaVuSans-56"/>
       <use x="127.246094" xlink:href="#DejaVuSans-48"/>
       <use x="190.869141" xlink:href="#DejaVuSans-48"/>
       <use x="254.492188" xlink:href="#DejaVuSans-48"/>
      </g>
     </g>
    </g>
    <g id="ytick_7">
     <g id="line2d_36">
      <g>
       <use style="stroke:#000000;stroke-width:0.8;" x="59.690625" xlink:href="#m0ac5b80db0" y="32.457743"/>
      </g>
     </g>
     <g id="text_20">
      <!-- 30000 -->
      <g transform="translate(20.878125 36.256962)scale(0.1 -0.1)">
       <use xlink:href="#DejaVuSans-51"/>
       <use x="63.623047" xlink:href="#DejaVuSans-48"/>
       <use x="127.246094" xlink:href="#DejaVuSans-48"/>
       <use x="190.869141" xlink:href="#DejaVuSans-48"/>
       <use x="254.492188" xlink:href="#DejaVuSans-48"/>
      </g>
     </g>
    </g>
    <g id="text_21">
     <!-- Edge coverage -->
     <g transform="translate(14.798437 192.762406)rotate(-90)scale(0.1 -0.1)">
      <defs>
       <path d="M 9.8125 72.90625 
L 55.90625 72.90625 
L 55.90625 64.59375 
L 19.671875 64.59375 
L 19.671875 43.015625 
L 54.390625 43.015625 
L 54.390625 34.71875 
L 19.671875 34.71875 
L 19.671875 8.296875 
L 56.78125 8.296875 
L 56.78125 0 
L 9.8125 0 
z
" id="DejaVuSans-69"/>
       <path d="M 45.40625 46.390625 
L 45.40625 75.984375 
L 54.390625 75.984375 
L 54.390625 0 
L 45.40625 0 
L 45.40625 8.203125 
Q 42.578125 3.328125 38.25 0.953125 
Q 33.9375 -1.421875 27.875 -1.421875 
Q 17.96875 -1.421875 11.734375 6.484375 
Q 5.515625 14.40625 5.515625 27.296875 
Q 5.515625 40.1875 11.734375 48.09375 
Q 17.96875 56 27.875 56 
Q 33.9375 56 38.25 53.625 
Q 42.578125 51.265625 45.40625 46.390625 
z
M 14.796875 27.296875 
Q 14.796875 17.390625 18.875 11.75 
Q 22.953125 6.109375 30.078125 6.109375 
Q 37.203125 6.109375 41.296875 11.75 
Q 45.40625 17.390625 45.40625 27.296875 
Q 45.40625 37.203125 41.296875 42.84375 
Q 37.203125 48.484375 30.078125 48.484375 
Q 22.953125 48.484375 18.875 42.84375 
Q 14.796875 37.203125 14.796875 27.296875 
z
" id="DejaVuSans-100"/>
       <path d="M 45.40625 27.984375 
Q 45.40625 37.75 41.375 43.109375 
Q 37.359375 48.484375 30.078125 48.484375 
Q 22.859375 48.484375 18.828125 43.109375 
Q 14.796875 37.75 14.796875 27.984375 
Q 14.796875 18.265625 18.828125 12.890625 
Q 22.859375 7.515625 30.078125 7.515625 
Q 37.359375 7.515625 41.375 12.890625 
Q 45.40625 18.265625 45.40625 27.984375 
z
M 54.390625 6.78125 
Q 54.390625 -7.171875 48.1875 -13.984375 
Q 42 -20.796875 29.203125 -20.796875 
Q 24.46875 -20.796875 20.265625 -20.09375 
Q 16.0625 -19.390625 12.109375 -17.921875 
L 12.109375 -9.1875 
Q 16.0625 -11.328125 19.921875 -12.34375 
Q 23.78125 -13.375 27.78125 -13.375 
Q 36.625 -13.375 41.015625 -8.765625 
Q 45.40625 -4.15625 45.40625 5.171875 
L 45.40625 9.625 
Q 42.625 4.78125 38.28125 2.390625 
Q 33.9375 0 27.875 0 
Q 17.828125 0 11.671875 7.65625 
Q 5.515625 15.328125 5.515625 27.984375 
Q 5.515625 40.671875 11.671875 48.328125 
Q 17.828125 56 27.875 56 
Q 33.9375 56 38.28125 53.609375 
Q 42.625 51.21875 45.40625 46.390625 
L 45.40625 54.6875 
L 54.390625 54.6875 
z
" id="DejaVuSans-103"/>
       <path d="M 48.78125 52.59375 
L 48.78125 44.1875 
Q 44.96875 46.296875 41.140625 47.34375 
Q 37.3125 48.390625 33.40625 48.390625 
Q 24.65625 48.390625 19.8125 42.84375 
Q 14.984375 37.3125 14.984375 27.296875 
Q 14.984375 17.28125 19.8125 11.734375 
Q 24.65625 6.203125 33.40625 6.203125 
Q 37.3125 6.203125 41.140625 7.25 
Q 44.96875 8.296875 48.78125 10.40625 
L 48.78125 2.09375 
Q 45.015625 0.34375 40.984375 -0.53125 
Q 36.96875 -1.421875 32.421875 -1.421875 
Q 20.0625 -1.421875 12.78125 6.34375 
Q 5.515625 14.109375 5.515625 27.296875 
Q 5.515625 40.671875 12.859375 48.328125 
Q 20.21875 56 33.015625 56 
Q 37.15625 56 41.109375 55.140625 
Q 45.0625 54.296875 48.78125 52.59375 
z
" id="DejaVuSans-99"/>
       <path d="M 2.984375 54.6875 
L 12.5 54.6875 
L 29.59375 8.796875 
L 46.6875 54.6875 
L 56.203125 54.6875 
L 35.6875 0 
L 23.484375 0 
z
" id="DejaVuSans-118"/>
       <path d="M 34.28125 27.484375 
Q 23.390625 27.484375 19.1875 25 
Q 14.984375 22.515625 14.984375 16.5 
Q 14.984375 11.71875 18.140625 8.90625 
Q 21.296875 6.109375 26.703125 6.109375 
Q 34.1875 6.109375 38.703125 11.40625 
Q 43.21875 16.703125 43.21875 25.484375 
L 43.21875 27.484375 
z
M 52.203125 31.203125 
L 52.203125 0 
L 43.21875 0 
L 43.21875 8.296875 
Q 40.140625 3.328125 35.546875 0.953125 
Q 30.953125 -1.421875 24.3125 -1.421875 
Q 15.921875 -1.421875 10.953125 3.296875 
Q 6 8.015625 6 15.921875 
Q 6 25.140625 12.171875 29.828125 
Q 18.359375 34.515625 30.609375 34.515625 
L 43.21875 34.515625 
L 43.21875 35.40625 
Q 43.21875 41.609375 39.140625 45 
Q 35.0625 48.390625 27.6875 48.390625 
Q 23 48.390625 18.546875 47.265625 
Q 14.109375 46.140625 10.015625 43.890625 
L 10.015625 52.203125 
Q 14.9375 54.109375 19.578125 55.046875 
Q 24.21875 56 28.609375 56 
Q 40.484375 56 46.34375 49.84375 
Q 52.203125 43.703125 52.203125 31.203125 
z
" id="DejaVuSans-97"/>
      </defs>
      <use xlink:href="#DejaVuSans-69"/>
      <use x="63.183594" xlink:href="#DejaVuSans-100"/>
      <use x="126.660156" xlink:href="#DejaVuSans-103"/>
      <use x="190.136719" xlink:href="#DejaVuSans-101"/>
      <use x="251.660156" xlink:href="#DejaVuSans-32"/>
      <use x="283.447266" xlink:href="#DejaVuSans-99"/>
      <use x="338.427734" xlink:href="#DejaVuSans-111"/>
      <use x="399.609375" xlink:href="#DejaVuSans-118"/>
      <use x="458.789062" xlink:href="#DejaVuSans-101"/>
      <use x="520.3125" xlink:href="#DejaVuSans-114"/>
      <use x="561.425781" xlink:href="#DejaVuSans-97"/>
      <use x="622.705078" xlink:href="#DejaVuSans-103"/>
      <use x="686.181641" xlink:href="#DejaVuSans-101"/>
     </g>
    </g>
   </g>
   <g id="line2d_37">
    <path clip-path="url(#pef8b99f3bb)" d="M 92.15608 263.029452 
L 190.760907 236.78453 
L 248.441033 230.525388 
L 289.365734 221.60659 
L 321.109399 220.391843 
L 347.045861 213.627622 
L 368.974827 210.149611 
L 387.970562 198.404928 
L 404.725987 195.700518 
L 419.714226 194.703147 
L 433.272737 193.283812 
L 445.650688 191.442512 
L 457.037299 189.057772 
L 467.579655 182.626008 
L 477.394352 181.321754 
L 486.575389 178.425542 
L 495.199648 176.501127 
L 503.330815 173.093443 
L 511.022239 172.255907 
L 518.319053 165.434146 
L 525.259781 163.669566 
L 531.877565 162.205477 
L 538.201126 157.263376 
L 544.255516 151.010627 
L 550.062718 149.1949 
L 555.642127 148.498019 
L 561.010941 147.807532 
L 566.184482 146.592785 
L 571.176457 145.314104 
L 575.99918 142.520187 
L 580.663752 134.828922 
L 585.180217 128.633714 
L 589.557691 127.156838 
L 593.804475 123.614892 
L 597.928146 121.84392 
L 601.935642 119.388853 
L 605.83333 116.192151 
L 609.627066 114.299703 
L 613.322253 113.532495 
L 616.923881 113.174464 
L 620.43657 109.48547 
L 623.864608 108.168429 
L 627.211979 105.636641 
L 630.482392 105.061235 
L 633.679306 103.366983 
L 636.805953 102.785183 
L 639.865355 102.427153 
L 642.860343 100.400444 
L 645.793575 98.034885 
L 648.667545 97.357184 
L 651.484601 96.647516 
L 654.246954 96.174404 
L 656.956687 95.240967 
L 659.615768 93.981467 
L 662.226056 91.085255 
L 664.789309 90.215752 
L 667.307193 87.274786 
L 669.781285 85.15857 
L 672.213082 84.480869 
L 674.604007 84.429722 
L 676.955411 84.359394 
L 679.268579 84.27628 
L 681.544735 83.163828 
L 683.785044 82.645962 
L 685.990618 82.243178 
L 688.162519 81.367281 
L 690.301757 79.462047 
L 692.409302 78.937788 
L 694.486079 76.802391 
L 696.532974 76.450754 
L 698.550833 76.131084 
L 700.540469 75.063385 
L 702.502662 74.487979 
L 704.438157 74.296177 
L 706.347672 73.292412 
L 708.231894 72.998316 
L 710.091485 72.812907 
L 711.927081 71.553407 
L 713.739292 70.204399 
L 715.528708 67.973101 
L 717.295895 67.95392 
L 719.041398 65.939998 
L 720.765742 65.19197 
L 722.469436 64.968201 
L 724.152967 64.53345 
L 725.816807 64.207386 
L 727.461411 63.676733 
L 729.087219 63.542472 
L 730.694657 63.325096 
L 732.284134 63.280342 
L 733.856047 61.279207 
L 735.41078 57.973817 
L 736.948706 57.32169 
L 738.470182 56.643989 
L 739.975558 56.330713 
L 741.46517 56.036616 
" style="fill:none;stroke:#98df8a;stroke-linecap:square;stroke-width:1.5;"/>
   </g>
   <g id="line2d_38">
    <path clip-path="url(#pef8b99f3bb)" d="M 92.15608 249.347568 
L 190.760907 231.682594 
L 248.441033 221.171838 
L 289.365734 211.357964 
L 321.109399 207.515528 
L 347.045861 205.987505 
L 368.974827 197.842309 
L 387.970562 195.329701 
L 404.725987 194.677574 
L 419.714226 191.736608 
L 433.272737 190.515468 
L 445.650688 187.951713 
L 457.037299 185.694842 
L 467.579655 185.010748 
L 477.394352 183.73846 
L 486.575389 182.510927 
L 495.199648 182.037815 
L 503.330815 181.174705 
L 511.022239 178.949801 
L 518.319053 178.796359 
L 525.259781 176.48834 
L 531.877565 175.196873 
L 538.201126 174.391304 
L 544.255516 172.153613 
L 550.062718 171.162635 
L 555.642127 169.909528 
L 561.010941 168.950518 
L 566.184482 166.802334 
L 571.176457 165.926438 
L 575.99918 162.557114 
L 580.663752 159.238937 
L 585.180217 157.551079 
L 589.557691 156.266005 
L 593.804475 155.760926 
L 597.928146 150.908333 
L 601.935642 147.238519 
L 605.83333 143.760507 
L 609.627066 142.411499 
L 613.322253 140.161021 
L 616.923881 136.043669 
L 620.43657 134.419745 
L 623.864608 133.914666 
L 627.211979 131.229436 
L 630.482392 127.898473 
L 633.679306 127.04815 
L 636.805953 126.383236 
L 639.865355 125.852584 
L 642.860343 124.330954 
L 645.793575 122.604735 
L 648.667545 119.184264 
L 651.484601 116.11543 
L 654.246954 113.379053 
L 656.956687 112.087586 
L 659.615768 111.473819 
L 662.226056 109.984156 
L 664.789309 107.279746 
L 667.307193 106.474177 
L 669.781285 106.148114 
L 672.213082 103.609933 
L 674.604007 103.181574 
L 676.955411 102.689282 
L 679.268579 102.260924 
L 681.544735 101.564043 
L 683.785044 99.339139 
L 685.990618 98.412095 
L 688.162519 97.6321 
L 690.301757 97.35079 
L 692.409302 96.526041 
L 694.486079 96.123257 
L 696.532974 95.598998 
L 698.550833 93.175898 
L 700.540469 91.577547 
L 702.502662 90.701651 
L 704.438157 88.534287 
L 706.347672 88.214617 
L 708.231894 87.588063 
L 710.091485 86.827248 
L 711.927081 86.41807 
L 713.739292 85.989712 
L 715.528708 85.484633 
L 717.295895 85.388732 
L 719.041398 85.312011 
L 720.765742 84.423328 
L 722.469436 84.020544 
L 724.152967 83.138254 
L 725.816807 82.626782 
L 727.461411 82.223997 
L 729.087219 82.006622 
L 730.694657 81.495149 
L 732.284134 81.264987 
L 733.856047 80.542532 
L 735.41078 80.33155 
L 736.948706 80.088601 
L 738.470182 80.03106 
L 739.975558 79.73057 
L 741.46517 79.334179 
" style="fill:none;stroke:#1f77b4;stroke-linecap:square;stroke-width:1.5;"/>
   </g>
   <g id="line2d_39">
    <path clip-path="url(#pef8b99f3bb)" d="M 92.15608 260.804548 
L 190.760907 241.598763 
L 248.441033 211.89501 
L 289.365734 202.995392 
L 321.109399 202.010808 
L 347.045861 192.554964 
L 368.974827 189.856947 
L 387.970562 186.346969 
L 404.725987 184.806159 
L 419.714226 184.575996 
L 433.272737 182.485353 
L 445.650688 180.688807 
L 457.037299 173.010329 
L 467.579655 172.096072 
L 477.394352 170.580836 
L 486.575389 170.216412 
L 495.199648 168.554127 
L 503.330815 167.735771 
L 511.022239 167.531182 
L 518.319053 166.853481 
L 525.259781 166.220534 
L 531.877565 165.926438 
L 538.201126 165.338245 
L 544.255516 164.929067 
L 550.062718 164.692511 
L 555.642127 164.097924 
L 561.010941 162.122363 
L 566.184482 160.146801 
L 571.176457 157.34649 
L 575.99918 156.579282 
L 580.663752 155.831253 
L 585.180217 155.044865 
L 589.557691 153.874872 
L 593.804475 151.023414 
L 597.928146 149.527357 
L 601.935642 148.024908 
L 605.83333 147.046717 
L 609.627066 146.023772 
L 613.322253 145.19263 
L 616.923881 143.619852 
L 620.43657 143.312969 
L 623.864608 142.552154 
L 627.211979 141.644291 
L 630.482392 141.484456 
L 633.679306 140.256922 
L 636.805953 139.713483 
L 639.865355 139.253158 
L 642.860343 138.517916 
L 645.793575 138.012837 
L 648.667545 137.865789 
L 651.484601 137.846609 
L 654.246954 136.593502 
L 656.956687 135.698425 
L 659.615768 134.547613 
L 662.226056 131.645007 
L 664.789309 131.114355 
L 667.307193 129.75256 
L 669.781285 129.126006 
L 672.213082 126.485531 
L 674.604007 124.682591 
L 676.955411 123.96653 
L 679.268579 122.905225 
L 681.544735 119.305738 
L 683.785044 118.583284 
L 685.990618 118.327548 
L 688.162519 118.180499 
L 690.301757 116.767557 
L 692.409302 115.55281 
L 694.486079 114.772815 
L 696.532974 112.950695 
L 698.550833 111.058248 
L 700.540469 109.351209 
L 702.502662 109.14662 
L 704.438157 108.18761 
L 706.347672 108.072528 
L 708.231894 104.824679 
L 710.091485 103.795341 
L 711.927081 102.945019 
L 713.739292 102.171417 
L 715.528708 101.071751 
L 717.295895 98.674225 
L 719.041398 98.539963 
L 720.765742 98.277834 
L 722.469436 96.212764 
L 724.152967 96.168011 
L 725.816807 96.168011 
L 727.461411 96.168011 
L 729.087219 96.161617 
L 730.694657 96.123257 
L 732.284134 95.982602 
L 733.856047 94.748675 
L 735.41078 94.320317 
L 736.948706 92.440656 
L 738.470182 91.929184 
L 739.975558 91.858857 
L 741.46517 91.737382 
" style="fill:none;stroke:#d62728;stroke-linecap:square;stroke-width:1.5;"/>
   </g>
   <g id="line2d_40">
    <path clip-path="url(#pef8b99f3bb)" d="M 92.15608 255.836873 
L 190.760907 240.300902 
L 248.441033 235.716832 
L 289.365734 233.575042 
L 321.109399 230.800304 
L 347.045861 226.113939 
L 368.974827 224.9887 
L 387.970562 224.445261 
L 404.725987 221.095118 
L 419.714226 216.587768 
L 433.272737 213.205658 
L 445.650688 212.55353 
L 457.037299 211.421898 
L 467.579655 209.996169 
L 477.394352 204.977347 
L 486.575389 204.36358 
L 495.199648 203.366209 
L 503.330815 201.946874 
L 511.022239 201.767858 
L 518.319053 201.313927 
L 525.259781 200.457211 
L 531.877565 199.574921 
L 538.201126 196.506087 
L 544.255516 195.27216 
L 550.062718 194.441018 
L 555.642127 194.038233 
L 561.010941 193.11119 
L 566.184482 190.470714 
L 571.176457 187.740731 
L 575.99918 187.139751 
L 580.663752 186.960736 
L 585.180217 186.884015 
L 589.557691 186.474837 
L 593.804475 185.873857 
L 597.928146 185.854677 
L 601.935642 185.675662 
L 605.83333 185.458286 
L 609.627066 185.029928 
L 613.322253 184.90206 
L 616.923881 184.889273 
L 620.43657 184.428948 
L 623.864608 184.422554 
L 627.211979 184.403374 
L 630.482392 184.384194 
L 633.679306 184.269113 
L 636.805953 184.166818 
L 639.865355 184.141245 
L 642.860343 184.128458 
L 645.793575 184.083704 
L 648.667545 183.840755 
L 651.484601 183.226988 
L 654.246954 183.07994 
L 656.956687 182.657975 
L 659.615768 182.248797 
L 662.226056 182.152896 
L 664.789309 182.050602 
L 667.307193 180.433071 
L 669.781285 180.369136 
L 672.213082 180.164548 
L 674.604007 179.697829 
L 676.955411 178.214559 
L 679.268579 175.682772 
L 681.544735 175.062611 
L 683.785044 172.102466 
L 685.990618 171.533453 
L 688.162519 168.752322 
L 690.301757 167.985114 
L 692.409302 166.661679 
L 694.486079 165.370212 
L 696.532974 164.91628 
L 698.550833 161.828266 
L 700.540469 159.475493 
L 702.502662 158.912874 
L 704.438157 158.52927 
L 706.347672 158.452549 
L 708.231894 158.164846 
L 710.091485 157.864356 
L 711.927081 157.595833 
L 713.739292 156.879772 
L 715.528708 156.636822 
L 717.295895 156.508954 
L 719.041398 156.061416 
L 720.765742 155.914368 
L 722.469436 155.652238 
L 724.152967 155.415682 
L 725.816807 155.415682 
L 727.461411 155.249454 
L 729.087219 154.897816 
L 730.694657 154.610113 
L 732.284134 154.469458 
L 733.856047 154.469458 
L 735.41078 152.116686 
L 736.948706 151.745868 
L 738.470182 150.569482 
L 739.975558 150.294566 
L 741.46517 149.827847 
" style="fill:none;stroke:#c7c7c7;stroke-linecap:square;stroke-width:1.5;"/>
   </g>
   <g id="line2d_41"/>
   <g id="line2d_42"/>
   <g id="line2d_43"/>
   <g id="line2d_44"/>
   <g id="line2d_45"/>
   <g id="line2d_46">
    <path clip-path="url(#pef8b99f3bb)" d="M 741.46517 288.430125 
L 741.46517 22.318125 
" style="fill:none;stroke:#ff0000;stroke-linecap:square;stroke-width:1.5;"/>
   </g>
   <g id="patch_3">
    <path d="M 59.690625 262.620274 
L 59.690625 32.457743 
" style="fill:none;stroke:#000000;stroke-linecap:square;stroke-linejoin:miter;stroke-width:0.8;"/>
   </g>
   <g id="patch_4">
    <path d="M 92.15608 288.430125 
L 741.466817 288.430125 
" style="fill:none;stroke:#000000;stroke-linecap:square;stroke-linejoin:miter;stroke-width:0.8;"/>
   </g>
   <g id="text_22">
    <!-- sqlite3_ossfuzz (24h, 3 trials/fuzzer) -->
    <g transform="translate(308.633438 16.318125)scale(0.12 -0.12)">
     <defs>
      <path d="M 44.28125 53.078125 
L 44.28125 44.578125 
Q 40.484375 46.53125 36.375 47.5 
Q 32.28125 48.484375 27.875 48.484375 
Q 21.1875 48.484375 17.84375 46.4375 
Q 14.5 44.390625 14.5 40.28125 
Q 14.5 37.15625 16.890625 35.375 
Q 19.28125 33.59375 26.515625 31.984375 
L 29.59375 31.296875 
Q 39.15625 29.25 43.1875 25.515625 
Q 47.21875 21.78125 47.21875 15.09375 
Q 47.21875 7.46875 41.1875 3.015625 
Q 35.15625 -1.421875 24.609375 -1.421875 
Q 20.21875 -1.421875 15.453125 -0.5625 
Q 10.6875 0.296875 5.421875 2 
L 5.421875 11.28125 
Q 10.40625 8.6875 15.234375 7.390625 
Q 20.0625 6.109375 24.8125 6.109375 
Q 31.15625 6.109375 34.5625 8.28125 
Q 37.984375 10.453125 37.984375 14.40625 
Q 37.984375 18.0625 35.515625 20.015625 
Q 33.0625 21.96875 24.703125 23.78125 
L 21.578125 24.515625 
Q 13.234375 26.265625 9.515625 29.90625 
Q 5.8125 33.546875 5.8125 39.890625 
Q 5.8125 47.609375 11.28125 51.796875 
Q 16.75 56 26.8125 56 
Q 31.78125 56 36.171875 55.265625 
Q 40.578125 54.546875 44.28125 53.078125 
z
" id="DejaVuSans-115"/>
      <path d="M 14.796875 27.296875 
Q 14.796875 17.390625 18.875 11.75 
Q 22.953125 6.109375 30.078125 6.109375 
Q 37.203125 6.109375 41.296875 11.75 
Q 45.40625 17.390625 45.40625 27.296875 
Q 45.40625 37.203125 41.296875 42.84375 
Q 37.203125 48.484375 30.078125 48.484375 
Q 22.953125 48.484375 18.875 42.84375 
Q 14.796875 37.203125 14.796875 27.296875 
z
M 45.40625 8.203125 
Q 42.578125 3.328125 38.25 0.953125 
Q 33.9375 -1.421875 27.875 -1.421875 
Q 17.96875 -1.421875 11.734375 6.484375 
Q 5.515625 14.40625 5.515625 27.296875 
Q 5.515625 40.1875 11.734375 48.09375 
Q 17.96875 56 27.875 56 
Q 33.9375 56 38.25 53.625 
Q 42.578125 51.265625 45.40625 46.390625 
L 45.40625 54.6875 
L 54.390625 54.6875 
L 54.390625 -20.796875 
L 45.40625 -20.796875 
z
" id="DejaVuSans-113"/>
      <path d="M 9.421875 75.984375 
L 18.40625 75.984375 
L 18.40625 0 
L 9.421875 0 
z
" id="DejaVuSans-108"/>
      <path d="M 50.984375 -16.609375 
L 50.984375 -23.578125 
L -0.984375 -23.578125 
L -0.984375 -16.609375 
z
" id="DejaVuSans-95"/>
      <path d="M 37.109375 75.984375 
L 37.109375 68.5 
L 28.515625 68.5 
Q 23.6875 68.5 21.796875 66.546875 
Q 19.921875 64.59375 19.921875 59.515625 
L 19.921875 54.6875 
L 34.71875 54.6875 
L 34.71875 47.703125 
L 19.921875 47.703125 
L 19.921875 0 
L 10.890625 0 
L 10.890625 47.703125 
L 2.296875 47.703125 
L 2.296875 54.6875 
L 10.890625 54.6875 
L 10.890625 58.5 
Q 10.890625 67.625 15.140625 71.796875 
Q 19.390625 75.984375 28.609375 75.984375 
z
" id="DejaVuSans-102"/>
      <path d="M 5.515625 54.6875 
L 48.1875 54.6875 
L 48.1875 46.484375 
L 14.40625 7.171875 
L 48.1875 7.171875 
L 48.1875 0 
L 4.296875 0 
L 4.296875 8.203125 
L 38.09375 47.515625 
L 5.515625 47.515625 
z
" id="DejaVuSans-122"/>
      <path d="M 11.71875 12.40625 
L 22.015625 12.40625 
L 22.015625 4 
L 14.015625 -11.625 
L 7.71875 -11.625 
L 11.71875 4 
z
" id="DejaVuSans-44"/>
      <path d="M 25.390625 72.90625 
L 33.6875 72.90625 
L 8.296875 -9.28125 
L 0 -9.28125 
z
" id="DejaVuSans-47"/>
     </defs>
     <use xlink:href="#DejaVuSans-115"/>
     <use x="52.099609" xlink:href="#DejaVuSans-113"/>
     <use x="115.576172" xlink:href="#DejaVuSans-108"/>
     <use x="143.359375" xlink:href="#DejaVuSans-105"/>
     <use x="171.142578" xlink:href="#DejaVuSans-116"/>
     <use x="210.351562" xlink:href="#DejaVuSans-101"/>
     <use x="271.875" xlink:href="#DejaVuSans-51"/>
     <use x="335.498047" xlink:href="#DejaVuSans-95"/>
     <use x="385.498047" xlink:href="#DejaVuSans-111"/>
     <use x="446.679688" xlink:href="#DejaVuSans-115"/>
     <use x="498.779297" xlink:href="#DejaVuSans-115"/>
     <use x="550.878906" xlink:href="#DejaVuSans-102"/>
     <use x="586.083984" xlink:href="#DejaVuSans-117"/>
     <use x="649.462891" xlink:href="#DejaVuSans-122"/>
     <use x="701.953125" xlink:href="#DejaVuSans-122"/>
     <use x="754.443359" xlink:href="#DejaVuSans-32"/>
     <use x="786.230469" xlink:href="#DejaVuSans-40"/>
     <use x="825.244141" xlink:href="#DejaVuSans-50"/>
     <use x="888.867188" xlink:href="#DejaVuSans-52"/>
     <use x="952.490234" xlink:href="#DejaVuSans-104"/>
     <use x="1015.869141" xlink:href="#DejaVuSans-44"/>
     <use x="1047.65625" xlink:href="#DejaVuSans-32"/>
     <use x="1079.443359" xlink:href="#DejaVuSans-51"/>
     <use x="1143.066406" xlink:href="#DejaVuSans-32"/>
     <use x="1174.853516" xlink:href="#DejaVuSans-116"/>
     <use x="1214.0625" xlink:href="#DejaVuSans-114"/>
     <use x="1255.175781" xlink:href="#DejaVuSans-105"/>
     <use x="1282.958984" xlink:href="#DejaVuSans-97"/>
     <use x="1344.238281" xlink:href="#DejaVuSans-108"/>
     <use x="1372.021484" xlink:href="#DejaVuSans-115"/>
     <use x="1424.121094" xlink:href="#DejaVuSans-47"/>
     <use x="1457.8125" xlink:href="#DejaVuSans-102"/>
     <use x="1493.017578" xlink:href="#DejaVuSans-117"/>
     <use x="1556.396484" xlink:href="#DejaVuSans-122"/>
     <use x="1608.886719" xlink:href="#DejaVuSans-122"/>
     <use x="1661.376953" xlink:href="#DejaVuSans-101"/>
     <use x="1722.900391" xlink:href="#DejaVuSans-114"/>
     <use x="1764.013672" xlink:href="#DejaVuSans-41"/>
    </g>
   </g>
   <g id="legend_1">
    <g id="line2d_47">
     <path d="M 777.930625 30.416562 
L 797.930625 30.416562 
" style="fill:none;"/>
    </g>
    <g id="line2d_48"/>
    <g id="text_23">
     <!-- fuzzer -->
     <g transform="translate(805.930625 33.916562)scale(0.1 -0.1)">
      <use xlink:href="#DejaVuSans-102"/>
      <use x="35.205078" xlink:href="#DejaVuSans-117"/>
      <use x="98.583984" xlink:href="#DejaVuSans-122"/>
      <use x="151.074219" xlink:href="#DejaVuSans-122"/>
      <use x="203.564453" xlink:href="#DejaVuSans-101"/>
      <use x="265.087891" xlink:href="#DejaVuSans-114"/>
     </g>
    </g>
    <g id="line2d_49">
     <path d="M 777.930625 45.094688 
L 797.930625 45.094688 
" style="fill:none;stroke:#98df8a;stroke-linecap:square;stroke-width:1.5;"/>
    </g>
    <g id="line2d_50"/>
    <g id="text_24">
     <!-- afldark -->
     <g transform="translate(805.930625 48.594688)scale(0.1 -0.1)">
      <defs>
       <path d="M 9.078125 75.984375 
L 18.109375 75.984375 
L 18.109375 31.109375 
L 44.921875 54.6875 
L 56.390625 54.6875 
L 27.390625 29.109375 
L 57.625 0 
L 45.90625 0 
L 18.109375 26.703125 
L 18.109375 0 
L 9.078125 0 
z
" id="DejaVuSans-107"/>
      </defs>
      <use xlink:href="#DejaVuSans-97"/>
      <use x="61.279297" xlink:href="#DejaVuSans-102"/>
      <use x="96.484375" xlink:href="#DejaVuSans-108"/>
      <use x="124.267578" xlink:href="#DejaVuSans-100"/>
      <use x="187.744141" xlink:href="#DejaVuSans-97"/>
      <use x="249.023438" xlink:href="#DejaVuSans-114"/>
      <use x="290.136719" xlink:href="#DejaVuSans-107"/>
     </g>
    </g>
    <g id="line2d_51">
     <path d="M 777.930625 59.772812 
L 797.930625 59.772812 
" style="fill:none;stroke:#1f77b4;stroke-linecap:square;stroke-width:1.5;"/>
    </g>
    <g id="line2d_52"/>
    <g id="text_25">
     <!-- afl -->
     <g transform="translate(805.930625 63.272812)scale(0.1 -0.1)">
      <use xlink:href="#DejaVuSans-97"/>
      <use x="61.279297" xlink:href="#DejaVuSans-102"/>
      <use x="96.484375" xlink:href="#DejaVuSans-108"/>
     </g>
    </g>
    <g id="line2d_53">
     <path d="M 777.930625 74.450938 
L 797.930625 74.450938 
" style="fill:none;stroke:#d62728;stroke-linecap:square;stroke-width:1.5;"/>
    </g>
    <g id="line2d_54"/>
    <g id="text_26">
     <!-- aflplusplus -->
     <g transform="translate(805.930625 77.950938)scale(0.1 -0.1)">
      <defs>
       <path d="M 18.109375 8.203125 
L 18.109375 -20.796875 
L 9.078125 -20.796875 
L 9.078125 54.6875 
L 18.109375 54.6875 
L 18.109375 46.390625 
Q 20.953125 51.265625 25.265625 53.625 
Q 29.59375 56 35.59375 56 
Q 45.5625 56 51.78125 48.09375 
Q 58.015625 40.1875 58.015625 27.296875 
Q 58.015625 14.40625 51.78125 6.484375 
Q 45.5625 -1.421875 35.59375 -1.421875 
Q 29.59375 -1.421875 25.265625 0.953125 
Q 20.953125 3.328125 18.109375 8.203125 
z
M 48.6875 27.296875 
Q 48.6875 37.203125 44.609375 42.84375 
Q 40.53125 48.484375 33.40625 48.484375 
Q 26.265625 48.484375 22.1875 42.84375 
Q 18.109375 37.203125 18.109375 27.296875 
Q 18.109375 17.390625 22.1875 11.75 
Q 26.265625 6.109375 33.40625 6.109375 
Q 40.53125 6.109375 44.609375 11.75 
Q 48.6875 17.390625 48.6875 27.296875 
z
" id="DejaVuSans-112"/>
      </defs>
      <use xlink:href="#DejaVuSans-97"/>
      <use x="61.279297" xlink:href="#DejaVuSans-102"/>
      <use x="96.484375" xlink:href="#DejaVuSans-108"/>
      <use x="124.267578" xlink:href="#DejaVuSans-112"/>
      <use x="187.744141" xlink:href="#DejaVuSans-108"/>
      <use x="215.527344" xlink:href="#DejaVuSans-117"/>
      <use x="278.90625" xlink:href="#DejaVuSans-115"/>
      <use x="331.005859" xlink:href="#DejaVuSans-112"/>
      <use x="394.482422" xlink:href="#DejaVuSans-108"/>
      <use x="422.265625" xlink:href="#DejaVuSans-117"/>
      <use x="485.644531" xlink:href="#DejaVuSans-115"/>
     </g>
    </g>
    <g id="line2d_55">
     <path d="M 777.930625 89.129063 
L 797.930625 89.129063 
" style="fill:none;stroke:#c7c7c7;stroke-linecap:square;stroke-width:1.5;"/>
    </g>
    <g id="line2d_56"/>
    <g id="text_27">
     <!-- fairfuzz -->
     <g transform="translate(805.930625 92.629063)scale(0.1 -0.1)">
      <use xlink:href="#DejaVuSans-102"/>
      <use x="35.205078" xlink:href="#DejaVuSans-97"/>
      <use x="96.484375" xlink:href="#DejaVuSans-105"/>
      <use x="124.267578" xlink:href="#DejaVuSans-114"/>
      <use x="165.380859" xlink:href="#DejaVuSans-102"/>
      <use x="200.585938" xlink:href="#DejaVuSans-117"/>
      <use x="263.964844" xlink:href="#DejaVuSans-122"/>
      <use x="316.455078" xlink:href="#DejaVuSans-122"/>
     </g>
    </g>
   </g>
  </g>
 </g>
 <defs>
  <clipPath id="pef8b99f3bb">
   <rect height="266.112" width="714.24" x="59.690625" y="22.318125"/>
  </clipPath>
 </defs>
</svg>
