<?xml version="1.0" encoding="utf-8" standalone="no"?>
<!DOCTYPE svg PUBLIC "-//W3C//DTD SVG 1.1//EN"
  "http://www.w3.org/Graphics/SVG/1.1/DTD/svg11.dtd">
<!-- Created with matplotlib (https://matplotlib.org/) -->
<svg height="351.576471pt" version="1.1" viewBox="0 0 424.010625 351.576471" width="424.010625pt" xmlns="http://www.w3.org/2000/svg" xmlns:xlink="http://www.w3.org/1999/xlink">
 <metadata>
  <rdf:RDF xmlns:cc="http://creativecommons.org/ns#" xmlns:dc="http://purl.org/dc/elements/1.1/" xmlns:rdf="http://www.w3.org/1999/02/22-rdf-syntax-ns#">
   <cc:Work>
    <dc:type rdf:resource="http://purl.org/dc/dcmitype/StillImage"/>
    <dc:date>2020-11-18T18:43:02.262531</dc:date>
    <dc:format>image/svg+xml</dc:format>
    <dc:creator>
     <cc:Agent>
      <dc:title>Matplotlib v3.3.2, https://matplotlib.org/</dc:title>
     </cc:Agent>
    </dc:creator>
   </cc:Work>
  </rdf:RDF>
 </metadata>
 <defs>
  <style type="text/css">*{stroke-linecap:butt;stroke-linejoin:round;}</style>
 </defs>
 <g id="figure_1">
  <g id="patch_1">
   <path d="M 0 351.576471 
L 424.010625 351.576471 
L 424.010625 0 
L 0 0 
z
" style="fill:#ffffff;"/>
  </g>
  <g id="axes_1">
   <g id="patch_2">
    <path d="M 59.690625 288.430125 
L 416.810625 288.430125 
L 416.810625 22.318125 
L 59.690625 22.318125 
z
" style="fill:#ffffff;"/>
   </g>
   <g id="PolyCollection_1">
    <defs>
     <path d="M 106.071391 -151.746049 
L 102.589859 -151.746049 
L 102.353868 -153.091759 
L 102.094958 -154.437469 
L 101.812329 -155.783179 
L 101.505372 -157.12889 
L 101.173693 -158.4746 
L 100.817148 -159.82031 
L 100.435865 -161.16602 
L 100.030265 -162.511731 
L 99.60108 -163.857441 
L 99.149363 -165.203151 
L 98.676494 -166.548861 
L 98.184171 -167.894572 
L 97.674402 -169.240282 
L 97.149483 -170.585992 
L 96.611964 -171.931702 
L 96.064615 -173.277413 
L 95.510374 -174.623123 
L 94.952294 -175.968833 
L 94.39348 -177.314544 
L 93.837019 -178.660254 
L 93.285914 -180.005964 
L 92.743007 -181.351674 
L 92.210906 -182.697385 
L 91.691921 -184.043095 
L 91.187995 -185.388805 
L 90.700649 -186.734515 
L 90.230935 -188.080226 
L 89.779404 -189.425936 
L 89.346079 -190.771646 
L 88.930459 -192.117356 
L 88.531522 -193.463067 
L 88.147756 -194.808777 
L 87.777202 -196.154487 
L 87.41752 -197.500197 
L 87.066057 -198.845908 
L 86.719946 -200.191618 
L 86.376197 -201.537328 
L 86.031815 -202.883038 
L 85.68391 -204.228749 
L 85.329815 -205.574459 
L 84.967201 -206.920169 
L 84.594184 -208.265879 
L 84.209433 -209.61159 
L 83.81225 -210.9573 
L 83.402648 -212.30301 
L 82.981403 -213.648721 
L 82.55009 -214.994431 
L 82.111092 -216.340141 
L 81.66759 -217.685851 
L 81.223527 -219.031562 
L 80.783551 -220.377272 
L 80.352935 -221.722982 
L 79.937475 -223.068692 
L 79.543375 -224.414403 
L 79.177115 -225.760113 
L 78.84531 -227.105823 
L 78.554557 -228.451533 
L 78.311287 -229.797244 
L 78.121614 -231.142954 
L 77.991187 -232.488664 
L 77.925061 -233.834374 
L 77.927567 -235.180085 
L 78.002212 -236.525795 
L 78.151593 -237.871505 
L 78.377328 -239.217215 
L 78.680016 -240.562926 
L 79.05922 -241.908636 
L 79.513466 -243.254346 
L 80.040281 -244.600056 
L 80.636232 -245.945767 
L 81.297004 -247.291477 
L 82.017484 -248.637187 
L 82.791865 -249.982898 
L 83.613759 -251.328608 
L 84.476321 -252.674318 
L 85.37238 -254.020028 
L 86.294565 -255.365739 
L 87.235436 -256.711449 
L 88.187609 -258.057159 
L 89.143871 -259.402869 
L 90.097292 -260.74858 
L 91.041316 -262.09429 
L 91.969846 -263.44 
L 92.877314 -264.78571 
L 93.758733 -266.131421 
L 94.609734 -267.477131 
L 95.426591 -268.822841 
L 96.206233 -270.168551 
L 96.946235 -271.514262 
L 97.644804 -272.859972 
L 98.300753 -274.205682 
L 98.913464 -275.551392 
L 99.482844 -276.897103 
L 100.009275 -278.242813 
L 100.493566 -279.588523 
L 100.93689 -280.934234 
L 101.340732 -282.279944 
L 101.706832 -283.625654 
L 102.037131 -284.971364 
L 106.624119 -284.971364 
L 106.624119 -284.971364 
L 106.954418 -283.625654 
L 107.320518 -282.279944 
L 107.72436 -280.934234 
L 108.167684 -279.588523 
L 108.651975 -278.242813 
L 109.178406 -276.897103 
L 109.747786 -275.551392 
L 110.360497 -274.205682 
L 111.016446 -272.859972 
L 111.715015 -271.514262 
L 112.455017 -270.168551 
L 113.234659 -268.822841 
L 114.051516 -267.477131 
L 114.902517 -266.131421 
L 115.783936 -264.78571 
L 116.691404 -263.44 
L 117.619934 -262.09429 
L 118.563958 -260.74858 
L 119.517379 -259.402869 
L 120.473641 -258.057159 
L 121.425814 -256.711449 
L 122.366685 -255.365739 
L 123.28887 -254.020028 
L 124.184929 -252.674318 
L 125.047491 -251.328608 
L 125.869385 -249.982898 
L 126.643766 -248.637187 
L 127.364246 -247.291477 
L 128.025018 -245.945767 
L 128.620969 -244.600056 
L 129.147784 -243.254346 
L 129.60203 -241.908636 
L 129.981234 -240.562926 
L 130.283922 -239.217215 
L 130.509657 -237.871505 
L 130.659038 -236.525795 
L 130.733683 -235.180085 
L 130.736189 -233.834374 
L 130.670063 -232.488664 
L 130.539636 -231.142954 
L 130.349963 -229.797244 
L 130.106693 -228.451533 
L 129.81594 -227.105823 
L 129.484135 -225.760113 
L 129.117875 -224.414403 
L 128.723775 -223.068692 
L 128.308315 -221.722982 
L 127.877699 -220.377272 
L 127.437723 -219.031562 
L 126.99366 -217.685851 
L 126.550158 -216.340141 
L 126.11116 -214.994431 
L 125.679847 -213.648721 
L 125.258602 -212.30301 
L 124.849 -210.9573 
L 124.451817 -209.61159 
L 124.067066 -208.265879 
L 123.694049 -206.920169 
L 123.331435 -205.574459 
L 122.97734 -204.228749 
L 122.629435 -202.883038 
L 122.285053 -201.537328 
L 121.941304 -200.191618 
L 121.595193 -198.845908 
L 121.24373 -197.500197 
L 120.884048 -196.154487 
L 120.513494 -194.808777 
L 120.129728 -193.463067 
L 119.730791 -192.117356 
L 119.315171 -190.771646 
L 118.881846 -189.425936 
L 118.430315 -188.080226 
L 117.960601 -186.734515 
L 117.473255 -185.388805 
L 116.969329 -184.043095 
L 116.450344 -182.697385 
L 115.918243 -181.351674 
L 115.375336 -180.005964 
L 114.824231 -178.660254 
L 114.26777 -177.314544 
L 113.708956 -175.968833 
L 113.150876 -174.623123 
L 112.596635 -173.277413 
L 112.049286 -171.931702 
L 111.511767 -170.585992 
L 110.986848 -169.240282 
L 110.477079 -167.894572 
L 109.984756 -166.548861 
L 109.511887 -165.203151 
L 109.06017 -163.857441 
L 108.630985 -162.511731 
L 108.225385 -161.16602 
L 107.844102 -159.82031 
L 107.487557 -158.4746 
L 107.155878 -157.12889 
L 106.848921 -155.783179 
L 106.566292 -154.437469 
L 106.307382 -153.091759 
L 106.071391 -151.746049 
z
" id="mf9b6618e0a" style="stroke:#3f3f3f;stroke-width:1.5;"/>
    </defs>
    <g clip-path="url(#p64e7676726)">
     <use style="fill:#9fd495;stroke:#3f3f3f;stroke-width:1.5;" x="0" xlink:href="#mf9b6618e0a" y="351.576471"/>
    </g>
   </g>
   <g id="PolyCollection_2">
    <defs>
     <path d="M 198.053343 -158.25091 
L 189.167907 -158.25091 
L 188.582379 -159.238361 
L 187.941687 -160.225812 
L 187.24406 -161.213263 
L 186.4882 -162.200714 
L 185.673361 -163.188165 
L 184.79942 -164.175617 
L 183.866953 -165.163068 
L 182.877295 -166.150519 
L 181.832597 -167.13797 
L 180.735867 -168.125421 
L 179.591002 -169.112872 
L 178.402801 -170.100324 
L 177.176963 -171.087775 
L 175.920057 -172.075226 
L 174.639489 -173.062677 
L 173.343429 -174.050128 
L 172.040729 -175.037579 
L 170.740819 -176.025031 
L 169.45358 -177.012482 
L 168.189203 -177.999933 
L 166.958031 -178.987384 
L 165.770394 -179.974835 
L 164.636428 -180.962286 
L 163.565895 -181.949738 
L 162.568004 -182.937189 
L 161.651236 -183.92464 
L 160.823173 -184.912091 
L 160.090351 -185.899542 
L 159.45812 -186.886993 
L 158.93054 -187.874445 
L 158.510289 -188.861896 
L 158.198609 -189.849347 
L 157.99528 -190.836798 
L 157.898625 -191.824249 
L 157.90555 -192.8117 
L 158.011614 -193.799152 
L 158.211131 -194.786603 
L 158.497299 -195.774054 
L 158.862353 -196.761505 
L 159.297742 -197.748956 
L 159.794321 -198.736407 
L 160.342554 -199.723859 
L 160.932719 -200.71131 
L 161.555125 -201.698761 
L 162.200311 -202.686212 
L 162.85924 -203.673663 
L 163.523482 -204.661114 
L 164.185369 -205.648566 
L 164.838133 -206.636017 
L 165.476013 -207.623468 
L 166.094334 -208.610919 
L 166.689558 -209.59837 
L 167.259302 -210.585821 
L 167.802324 -211.573273 
L 168.318484 -212.560724 
L 168.808673 -213.548175 
L 169.274722 -214.535626 
L 169.719289 -215.523077 
L 170.145726 -216.510528 
L 170.557939 -217.49798 
L 170.960232 -218.485431 
L 171.357159 -219.472882 
L 171.753363 -220.460333 
L 172.153431 -221.447784 
L 172.561753 -222.435235 
L 172.982395 -223.422687 
L 173.418984 -224.410138 
L 173.874618 -225.397589 
L 174.351788 -226.38504 
L 174.852326 -227.372491 
L 175.377369 -228.359942 
L 175.92735 -229.347394 
L 176.502 -230.334845 
L 177.100381 -231.322296 
L 177.720921 -232.309747 
L 178.361478 -233.297198 
L 179.019404 -234.284649 
L 179.691625 -235.272101 
L 180.374728 -236.259552 
L 181.065046 -237.247003 
L 181.75875 -238.234454 
L 182.451941 -239.221905 
L 183.140727 -240.209356 
L 183.821309 -241.196808 
L 184.490051 -242.184259 
L 185.143539 -243.17171 
L 185.778643 -244.159161 
L 186.392551 -245.146612 
L 186.982807 -246.134063 
L 187.547333 -247.121515 
L 188.084439 -248.108966 
L 188.592826 -249.096417 
L 189.071581 -250.083868 
L 189.520163 -251.071319 
L 189.93838 -252.05877 
L 190.326368 -253.046222 
L 190.684556 -254.033673 
L 191.013636 -255.021124 
L 191.314528 -256.008575 
L 195.906722 -256.008575 
L 195.906722 -256.008575 
L 196.207614 -255.021124 
L 196.536694 -254.033673 
L 196.894882 -253.046222 
L 197.28287 -252.05877 
L 197.701087 -251.071319 
L 198.149669 -250.083868 
L 198.628424 -249.096417 
L 199.136811 -248.108966 
L 199.673917 -247.121515 
L 200.238443 -246.134063 
L 200.828699 -245.146612 
L 201.442607 -244.159161 
L 202.077711 -243.17171 
L 202.731199 -242.184259 
L 203.399941 -241.196808 
L 204.080523 -240.209356 
L 204.769309 -239.221905 
L 205.4625 -238.234454 
L 206.156204 -237.247003 
L 206.846522 -236.259552 
L 207.529625 -235.272101 
L 208.201846 -234.284649 
L 208.859772 -233.297198 
L 209.500329 -232.309747 
L 210.120869 -231.322296 
L 210.71925 -230.334845 
L 211.2939 -229.347394 
L 211.843881 -228.359942 
L 212.368924 -227.372491 
L 212.869462 -226.38504 
L 213.346632 -225.397589 
L 213.802266 -224.410138 
L 214.238855 -223.422687 
L 214.659497 -222.435235 
L 215.067819 -221.447784 
L 215.467887 -220.460333 
L 215.864091 -219.472882 
L 216.261018 -218.485431 
L 216.663311 -217.49798 
L 217.075524 -216.510528 
L 217.501961 -215.523077 
L 217.946528 -214.535626 
L 218.412577 -213.548175 
L 218.902766 -212.560724 
L 219.418926 -211.573273 
L 219.961948 -210.585821 
L 220.531692 -209.59837 
L 221.126916 -208.610919 
L 221.745237 -207.623468 
L 222.383117 -206.636017 
L 223.035881 -205.648566 
L 223.697768 -204.661114 
L 224.36201 -203.673663 
L 225.020939 -202.686212 
L 225.666125 -201.698761 
L 226.288531 -200.71131 
L 226.878696 -199.723859 
L 227.426929 -198.736407 
L 227.923508 -197.748956 
L 228.358897 -196.761505 
L 228.723951 -195.774054 
L 229.010119 -194.786603 
L 229.209636 -193.799152 
L 229.3157 -192.8117 
L 229.322625 -191.824249 
L 229.22597 -190.836798 
L 229.022641 -189.849347 
L 228.710961 -188.861896 
L 228.29071 -187.874445 
L 227.76313 -186.886993 
L 227.130899 -185.899542 
L 226.398077 -184.912091 
L 225.570014 -183.92464 
L 224.653246 -182.937189 
L 223.655355 -181.949738 
L 222.584822 -180.962286 
L 221.450856 -179.974835 
L 220.263219 -178.987384 
L 219.032047 -177.999933 
L 217.76767 -177.012482 
L 216.480431 -176.025031 
L 215.180521 -175.037579 
L 213.877821 -174.050128 
L 212.581761 -173.062677 
L 211.301193 -172.075226 
L 210.044287 -171.087775 
L 208.818449 -170.100324 
L 207.630248 -169.112872 
L 206.485383 -168.125421 
L 205.388653 -167.13797 
L 204.343955 -166.150519 
L 203.354297 -165.163068 
L 202.42183 -164.175617 
L 201.547889 -163.188165 
L 200.73305 -162.200714 
L 199.97719 -161.213263 
L 199.279563 -160.225812 
L 198.638871 -159.238361 
L 198.053343 -158.25091 
z
" id="m9929e0b3aa" style="stroke:#3f3f3f;stroke-width:1.5;"/>
    </defs>
    <g clip-path="url(#p64e7676726)">
     <use style="fill:#3274a1;stroke:#3f3f3f;stroke-width:1.5;" x="0" xlink:href="#m9929e0b3aa" y="351.576471"/>
    </g>
   </g>
   <g id="PolyCollection_3">
    <defs>
     <path d="M 284.02768 -75.242346 
L 281.75357 -75.242346 
L 281.58907 -77.685982 
L 281.406584 -80.129619 
L 281.205096 -82.573255 
L 280.983679 -85.016891 
L 280.741518 -87.460528 
L 280.477945 -89.904164 
L 280.192455 -92.3478 
L 279.884741 -94.791437 
L 279.554715 -97.235073 
L 279.202534 -99.678709 
L 278.828623 -102.122346 
L 278.433687 -104.565982 
L 278.018732 -107.009619 
L 277.585073 -109.453255 
L 277.134335 -111.896891 
L 276.668457 -114.340528 
L 276.189679 -116.784164 
L 275.700531 -119.2278 
L 275.20381 -121.671437 
L 274.702552 -124.115073 
L 274.199998 -126.558709 
L 273.699554 -129.002346 
L 273.204744 -131.445982 
L 272.719157 -133.889619 
L 272.246396 -136.333255 
L 271.790016 -138.776891 
L 271.353469 -141.220528 
L 270.940042 -143.664164 
L 270.552799 -146.1078 
L 270.194528 -148.551437 
L 269.86769 -150.995073 
L 269.57437 -153.438709 
L 269.316244 -155.882346 
L 269.094545 -158.325982 
L 268.910043 -160.769619 
L 268.763034 -163.213255 
L 268.653339 -165.656891 
L 268.580312 -168.100528 
L 268.542862 -170.544164 
L 268.539483 -172.9878 
L 268.568291 -175.431437 
L 268.627076 -177.875073 
L 268.713355 -180.318709 
L 268.824432 -182.762346 
L 268.957469 -185.205982 
L 269.109549 -187.649619 
L 269.277746 -190.093255 
L 269.459195 -192.536891 
L 269.651154 -194.980528 
L 269.851063 -197.424164 
L 270.0566 -199.8678 
L 270.265723 -202.311437 
L 270.476704 -204.755073 
L 270.688161 -207.198709 
L 270.899064 -209.642346 
L 271.108747 -212.085982 
L 271.316893 -214.529619 
L 271.523522 -216.973255 
L 271.728961 -219.416891 
L 271.933807 -221.860528 
L 272.138886 -224.304164 
L 272.345202 -226.7478 
L 272.553887 -229.191437 
L 272.766141 -231.635073 
L 272.98318 -234.078709 
L 273.206183 -236.522346 
L 273.436235 -238.965982 
L 273.674287 -241.409619 
L 273.921114 -243.853255 
L 274.17728 -246.296891 
L 274.443112 -248.740528 
L 274.718689 -251.184164 
L 275.003827 -253.6278 
L 275.298081 -256.071437 
L 275.600757 -258.515073 
L 275.910923 -260.958709 
L 276.227436 -263.402346 
L 276.548967 -265.845982 
L 276.874035 -268.289619 
L 277.201043 -270.733255 
L 277.528316 -273.176891 
L 277.854138 -275.620528 
L 278.176792 -278.064164 
L 278.494597 -280.5078 
L 278.805938 -282.951437 
L 279.1093 -285.395073 
L 279.40329 -287.838709 
L 279.686663 -290.282346 
L 279.958337 -292.725982 
L 280.217402 -295.169619 
L 280.463131 -297.613255 
L 280.694979 -300.056891 
L 280.912582 -302.500528 
L 281.115749 -304.944164 
L 281.304456 -307.3878 
L 281.47883 -309.831437 
L 281.639136 -312.275073 
L 281.785761 -314.718709 
L 281.919197 -317.162346 
L 283.862053 -317.162346 
L 283.862053 -317.162346 
L 283.995489 -314.718709 
L 284.142114 -312.275073 
L 284.30242 -309.831437 
L 284.476794 -307.3878 
L 284.665501 -304.944164 
L 284.868668 -302.500528 
L 285.086271 -300.056891 
L 285.318119 -297.613255 
L 285.563848 -295.169619 
L 285.822913 -292.725982 
L 286.094587 -290.282346 
L 286.37796 -287.838709 
L 286.67195 -285.395073 
L 286.975312 -282.951437 
L 287.286653 -280.5078 
L 287.604458 -278.064164 
L 287.927112 -275.620528 
L 288.252934 -273.176891 
L 288.580207 -270.733255 
L 288.907215 -268.289619 
L 289.232283 -265.845982 
L 289.553814 -263.402346 
L 289.870327 -260.958709 
L 290.180493 -258.515073 
L 290.483169 -256.071437 
L 290.777423 -253.6278 
L 291.062561 -251.184164 
L 291.338138 -248.740528 
L 291.60397 -246.296891 
L 291.860136 -243.853255 
L 292.106963 -241.409619 
L 292.345015 -238.965982 
L 292.575067 -236.522346 
L 292.79807 -234.078709 
L 293.015109 -231.635073 
L 293.227363 -229.191437 
L 293.436048 -226.7478 
L 293.642364 -224.304164 
L 293.847443 -221.860528 
L 294.052289 -219.416891 
L 294.257728 -216.973255 
L 294.464357 -214.529619 
L 294.672503 -212.085982 
L 294.882186 -209.642346 
L 295.093089 -207.198709 
L 295.304546 -204.755073 
L 295.515527 -202.311437 
L 295.72465 -199.8678 
L 295.930187 -197.424164 
L 296.130096 -194.980528 
L 296.322055 -192.536891 
L 296.503504 -190.093255 
L 296.671701 -187.649619 
L 296.823781 -185.205982 
L 296.956818 -182.762346 
L 297.067895 -180.318709 
L 297.154174 -177.875073 
L 297.212959 -175.431437 
L 297.241767 -172.9878 
L 297.238388 -170.544164 
L 297.200938 -168.100528 
L 297.127911 -165.656891 
L 297.018216 -163.213255 
L 296.871207 -160.769619 
L 296.686705 -158.325982 
L 296.465006 -155.882346 
L 296.20688 -153.438709 
L 295.91356 -150.995073 
L 295.586722 -148.551437 
L 295.228451 -146.1078 
L 294.841208 -143.664164 
L 294.427781 -141.220528 
L 293.991234 -138.776891 
L 293.534854 -136.333255 
L 293.062093 -133.889619 
L 292.576506 -131.445982 
L 292.081696 -129.002346 
L 291.581252 -126.558709 
L 291.078698 -124.115073 
L 290.57744 -121.671437 
L 290.080719 -119.2278 
L 289.591571 -116.784164 
L 289.112793 -114.340528 
L 288.646915 -111.896891 
L 288.196177 -109.453255 
L 287.762518 -107.009619 
L 287.347563 -104.565982 
L 286.952627 -102.122346 
L 286.578716 -99.678709 
L 286.226535 -97.235073 
L 285.896509 -94.791437 
L 285.588795 -92.3478 
L 285.303305 -89.904164 
L 285.039732 -87.460528 
L 284.797571 -85.016891 
L 284.576154 -82.573255 
L 284.374666 -80.129619 
L 284.19218 -77.685982 
L 284.02768 -75.242346 
z
" id="maa79345f32" style="stroke:#3f3f3f;stroke-width:1.5;"/>
    </defs>
    <g clip-path="url(#p64e7676726)">
     <use style="fill:#c03d3e;stroke:#3f3f3f;stroke-width:1.5;" x="0" xlink:href="#maa79345f32" y="351.576471"/>
    </g>
   </g>
   <g id="PolyCollection_4">
    <defs>
     <path d="M 375.105458 -84.935211 
L 369.235792 -84.935211 
L 368.81766 -86.067249 
L 368.355029 -87.199287 
L 367.845639 -88.331325 
L 367.287506 -89.463363 
L 366.678993 -90.595401 
L 366.018876 -91.727439 
L 365.306416 -92.859478 
L 364.541428 -93.991516 
L 363.724344 -95.123554 
L 362.856269 -96.255592 
L 361.939036 -97.38763 
L 360.975243 -98.519668 
L 359.968277 -99.651706 
L 358.922335 -100.783744 
L 357.842414 -101.915783 
L 356.734296 -103.047821 
L 355.604505 -104.179859 
L 354.460253 -105.311897 
L 353.309363 -106.443935 
L 352.160174 -107.575973 
L 351.021427 -108.708011 
L 349.902143 -109.840049 
L 348.811473 -110.972088 
L 347.758555 -112.104126 
L 346.752351 -113.236164 
L 345.801484 -114.368202 
L 344.914077 -115.50024 
L 344.097596 -116.632278 
L 343.358701 -117.764316 
L 342.703111 -118.896354 
L 342.135485 -120.028393 
L 341.659325 -121.160431 
L 341.276901 -122.292469 
L 340.98921 -123.424507 
L 340.795947 -124.556545 
L 340.695524 -125.688583 
L 340.685109 -126.820621 
L 340.760692 -127.952659 
L 340.917184 -129.084698 
L 341.148541 -130.216736 
L 341.447904 -131.348774 
L 341.807765 -132.480812 
L 342.220139 -133.61285 
L 342.676756 -134.744888 
L 343.169243 -135.876926 
L 343.689315 -137.008965 
L 344.228959 -138.141003 
L 344.7806 -139.273041 
L 345.337258 -140.405079 
L 345.892684 -141.537117 
L 346.441467 -142.669155 
L 346.979125 -143.801193 
L 347.502159 -144.933231 
L 348.008081 -146.06527 
L 348.495418 -147.197308 
L 348.963683 -148.329346 
L 349.413319 -149.461384 
L 349.845624 -150.593422 
L 350.26265 -151.72546 
L 350.667088 -152.857498 
L 351.062141 -153.989536 
L 351.451381 -155.121575 
L 351.838613 -156.253613 
L 352.227725 -157.385651 
L 352.622557 -158.517689 
L 353.026767 -159.649727 
L 353.44371 -160.781765 
L 353.876341 -161.913803 
L 354.32712 -163.045841 
L 354.797948 -164.17788 
L 355.290118 -165.309918 
L 355.804287 -166.441956 
L 356.340466 -167.573994 
L 356.898032 -168.706032 
L 357.475759 -169.83807 
L 358.071858 -170.970108 
L 358.684037 -172.102146 
L 359.309573 -173.234185 
L 359.945387 -174.366223 
L 360.588126 -175.498261 
L 361.234253 -176.630299 
L 361.880129 -177.762337 
L 362.522098 -178.894375 
L 363.156569 -180.026413 
L 363.780085 -181.158451 
L 364.389388 -182.29049 
L 364.981476 -183.422528 
L 365.553648 -184.554566 
L 366.103537 -185.686604 
L 366.629139 -186.818642 
L 367.128821 -187.95068 
L 367.60133 -189.082718 
L 368.045787 -190.214756 
L 368.461672 -191.346795 
L 368.848811 -192.478833 
L 369.207345 -193.610871 
L 369.537702 -194.742909 
L 369.840567 -195.874947 
L 370.116842 -197.006985 
L 374.224408 -197.006985 
L 374.224408 -197.006985 
L 374.500683 -195.874947 
L 374.803548 -194.742909 
L 375.133905 -193.610871 
L 375.492439 -192.478833 
L 375.879578 -191.346795 
L 376.295463 -190.214756 
L 376.73992 -189.082718 
L 377.212429 -187.95068 
L 377.712111 -186.818642 
L 378.237713 -185.686604 
L 378.787602 -184.554566 
L 379.359774 -183.422528 
L 379.951862 -182.29049 
L 380.561165 -181.158451 
L 381.184681 -180.026413 
L 381.819152 -178.894375 
L 382.461121 -177.762337 
L 383.106997 -176.630299 
L 383.753124 -175.498261 
L 384.395863 -174.366223 
L 385.031677 -173.234185 
L 385.657213 -172.102146 
L 386.269392 -170.970108 
L 386.865491 -169.83807 
L 387.443218 -168.706032 
L 388.000784 -167.573994 
L 388.536963 -166.441956 
L 389.051132 -165.309918 
L 389.543302 -164.17788 
L 390.01413 -163.045841 
L 390.464909 -161.913803 
L 390.89754 -160.781765 
L 391.314483 -159.649727 
L 391.718693 -158.517689 
L 392.113525 -157.385651 
L 392.502637 -156.253613 
L 392.889869 -155.121575 
L 393.279109 -153.989536 
L 393.674162 -152.857498 
L 394.0786 -151.72546 
L 394.495626 -150.593422 
L 394.927931 -149.461384 
L 395.377567 -148.329346 
L 395.845832 -147.197308 
L 396.333169 -146.06527 
L 396.839091 -144.933231 
L 397.362125 -143.801193 
L 397.899783 -142.669155 
L 398.448566 -141.537117 
L 399.003992 -140.405079 
L 399.56065 -139.273041 
L 400.112291 -138.141003 
L 400.651935 -137.008965 
L 401.172007 -135.876926 
L 401.664494 -134.744888 
L 402.121111 -133.61285 
L 402.533485 -132.480812 
L 402.893346 -131.348774 
L 403.192709 -130.216736 
L 403.424066 -129.084698 
L 403.580558 -127.952659 
L 403.656141 -126.820621 
L 403.645726 -125.688583 
L 403.545303 -124.556545 
L 403.35204 -123.424507 
L 403.064349 -122.292469 
L 402.681925 -121.160431 
L 402.205765 -120.028393 
L 401.638139 -118.896354 
L 400.982549 -117.764316 
L 400.243654 -116.632278 
L 399.427173 -115.50024 
L 398.539766 -114.368202 
L 397.588899 -113.236164 
L 396.582695 -112.104126 
L 395.529777 -110.972088 
L 394.439107 -109.840049 
L 393.319823 -108.708011 
L 392.181076 -107.575973 
L 391.031887 -106.443935 
L 389.880997 -105.311897 
L 388.736745 -104.179859 
L 387.606954 -103.047821 
L 386.498836 -101.915783 
L 385.418915 -100.783744 
L 384.372973 -99.651706 
L 383.366007 -98.519668 
L 382.402214 -97.38763 
L 381.484981 -96.255592 
L 380.616906 -95.123554 
L 379.799822 -93.991516 
L 379.034834 -92.859478 
L 378.322374 -91.727439 
L 377.662257 -90.595401 
L 377.053744 -89.463363 
L 376.495611 -88.331325 
L 375.986221 -87.199287 
L 375.52359 -86.067249 
L 375.105458 -84.935211 
z
" id="me12e79ac74" style="stroke:#3f3f3f;stroke-width:1.5;"/>
    </defs>
    <g clip-path="url(#p64e7676726)">
     <use style="fill:#c7c7c7;stroke:#3f3f3f;stroke-width:1.5;" x="0" xlink:href="#me12e79ac74" y="351.576471"/>
    </g>
   </g>
   <g id="matplotlib.axis_1">
    <g id="xtick_1">
     <g id="line2d_1">
      <defs>
       <path d="M 0 0 
L 0 3.5 
" id="m9286c052c5" style="stroke:#000000;stroke-width:0.8;"/>
      </defs>
      <g>
       <use style="stroke:#000000;stroke-width:0.8;" x="104.330625" xlink:href="#m9286c052c5" y="288.430125"/>
      </g>
     </g>
     <g id="text_1">
      <!-- afldark -->
      <g transform="translate(73.149038 319.412909)rotate(-30)scale(0.1 -0.1)">
       <defs>
        <path d="M 34.28125 27.484375 
Q 23.390625 27.484375 19.1875 25 
Q 14.984375 22.515625 14.984375 16.5 
Q 14.984375 11.71875 18.140625 8.90625 
Q 21.296875 6.109375 26.703125 6.109375 
Q 34.1875 6.109375 38.703125 11.40625 
Q 43.21875 16.703125 43.21875 25.484375 
L 43.21875 27.484375 
z
M 52.203125 31.203125 
L 52.203125 0 
L 43.21875 0 
L 43.21875 8.296875 
Q 40.140625 3.328125 35.546875 0.953125 
Q 30.953125 -1.421875 24.3125 -1.421875 
Q 15.921875 -1.421875 10.953125 3.296875 
Q 6 8.015625 6 15.921875 
Q 6 25.140625 12.171875 29.828125 
Q 18.359375 34.515625 30.609375 34.515625 
L 43.21875 34.515625 
L 43.21875 35.40625 
Q 43.21875 41.609375 39.140625 45 
Q 35.0625 48.390625 27.6875 48.390625 
Q 23 48.390625 18.546875 47.265625 
Q 14.109375 46.140625 10.015625 43.890625 
L 10.015625 52.203125 
Q 14.9375 54.109375 19.578125 55.046875 
Q 24.21875 56 28.609375 56 
Q 40.484375 56 46.34375 49.84375 
Q 52.203125 43.703125 52.203125 31.203125 
z
" id="DejaVuSans-97"/>
        <path d="M 37.109375 75.984375 
L 37.109375 68.5 
L 28.515625 68.5 
Q 23.6875 68.5 21.796875 66.546875 
Q 19.921875 64.59375 19.921875 59.515625 
L 19.921875 54.6875 
L 34.71875 54.6875 
L 34.71875 47.703125 
L 19.921875 47.703125 
L 19.921875 0 
L 10.890625 0 
L 10.890625 47.703125 
L 2.296875 47.703125 
L 2.296875 54.6875 
L 10.890625 54.6875 
L 10.890625 58.5 
Q 10.890625 67.625 15.140625 71.796875 
Q 19.390625 75.984375 28.609375 75.984375 
z
" id="DejaVuSans-102"/>
        <path d="M 9.421875 75.984375 
L 18.40625 75.984375 
L 18.40625 0 
L 9.421875 0 
z
" id="DejaVuSans-108"/>
        <path d="M 45.40625 46.390625 
L 45.40625 75.984375 
L 54.390625 75.984375 
L 54.390625 0 
L 45.40625 0 
L 45.40625 8.203125 
Q 42.578125 3.328125 38.25 0.953125 
Q 33.9375 -1.421875 27.875 -1.421875 
Q 17.96875 -1.421875 11.734375 6.484375 
Q 5.515625 14.40625 5.515625 27.296875 
Q 5.515625 40.1875 11.734375 48.09375 
Q 17.96875 56 27.875 56 
Q 33.9375 56 38.25 53.625 
Q 42.578125 51.265625 45.40625 46.390625 
z
M 14.796875 27.296875 
Q 14.796875 17.390625 18.875 11.75 
Q 22.953125 6.109375 30.078125 6.109375 
Q 37.203125 6.109375 41.296875 11.75 
Q 45.40625 17.390625 45.40625 27.296875 
Q 45.40625 37.203125 41.296875 42.84375 
Q 37.203125 48.484375 30.078125 48.484375 
Q 22.953125 48.484375 18.875 42.84375 
Q 14.796875 37.203125 14.796875 27.296875 
z
" id="DejaVuSans-100"/>
        <path d="M 41.109375 46.296875 
Q 39.59375 47.171875 37.8125 47.578125 
Q 36.03125 48 33.890625 48 
Q 26.265625 48 22.1875 43.046875 
Q 18.109375 38.09375 18.109375 28.8125 
L 18.109375 0 
L 9.078125 0 
L 9.078125 54.6875 
L 18.109375 54.6875 
L 18.109375 46.1875 
Q 20.953125 51.171875 25.484375 53.578125 
Q 30.03125 56 36.53125 56 
Q 37.453125 56 38.578125 55.875 
Q 39.703125 55.765625 41.0625 55.515625 
z
" id="DejaVuSans-114"/>
        <path d="M 9.078125 75.984375 
L 18.109375 75.984375 
L 18.109375 31.109375 
L 44.921875 54.6875 
L 56.390625 54.6875 
L 27.390625 29.109375 
L 57.625 0 
L 45.90625 0 
L 18.109375 26.703125 
L 18.109375 0 
L 9.078125 0 
z
" id="DejaVuSans-107"/>
       </defs>
       <use xlink:href="#DejaVuSans-97"/>
       <use x="61.279297" xlink:href="#DejaVuSans-102"/>
       <use x="96.484375" xlink:href="#DejaVuSans-108"/>
       <use x="124.267578" xlink:href="#DejaVuSans-100"/>
       <use x="187.744141" xlink:href="#DejaVuSans-97"/>
       <use x="249.023438" xlink:href="#DejaVuSans-114"/>
       <use x="290.136719" xlink:href="#DejaVuSans-107"/>
      </g>
     </g>
    </g>
    <g id="xtick_2">
     <g id="line2d_2">
      <g>
       <use style="stroke:#000000;stroke-width:0.8;" x="193.610625" xlink:href="#m9286c052c5" y="288.430125"/>
      </g>
     </g>
     <g id="text_2">
      <!-- afl -->
      <g transform="translate(181.809062 308.223846)rotate(-30)scale(0.1 -0.1)">
       <use xlink:href="#DejaVuSans-97"/>
       <use x="61.279297" xlink:href="#DejaVuSans-102"/>
       <use x="96.484375" xlink:href="#DejaVuSans-108"/>
      </g>
     </g>
    </g>
    <g id="xtick_3">
     <g id="line2d_3">
      <g>
       <use style="stroke:#000000;stroke-width:0.8;" x="282.890625" xlink:href="#m9286c052c5" y="288.430125"/>
      </g>
     </g>
     <g id="text_3">
      <!-- aflplusplus -->
      <g transform="translate(235.281618 328.897284)rotate(-30)scale(0.1 -0.1)">
       <defs>
        <path d="M 18.109375 8.203125 
L 18.109375 -20.796875 
L 9.078125 -20.796875 
L 9.078125 54.6875 
L 18.109375 54.6875 
L 18.109375 46.390625 
Q 20.953125 51.265625 25.265625 53.625 
Q 29.59375 56 35.59375 56 
Q 45.5625 56 51.78125 48.09375 
Q 58.015625 40.1875 58.015625 27.296875 
Q 58.015625 14.40625 51.78125 6.484375 
Q 45.5625 -1.421875 35.59375 -1.421875 
Q 29.59375 -1.421875 25.265625 0.953125 
Q 20.953125 3.328125 18.109375 8.203125 
z
M 48.6875 27.296875 
Q 48.6875 37.203125 44.609375 42.84375 
Q 40.53125 48.484375 33.40625 48.484375 
Q 26.265625 48.484375 22.1875 42.84375 
Q 18.109375 37.203125 18.109375 27.296875 
Q 18.109375 17.390625 22.1875 11.75 
Q 26.265625 6.109375 33.40625 6.109375 
Q 40.53125 6.109375 44.609375 11.75 
Q 48.6875 17.390625 48.6875 27.296875 
z
" id="DejaVuSans-112"/>
        <path d="M 8.5 21.578125 
L 8.5 54.6875 
L 17.484375 54.6875 
L 17.484375 21.921875 
Q 17.484375 14.15625 20.5 10.265625 
Q 23.53125 6.390625 29.59375 6.390625 
Q 36.859375 6.390625 41.078125 11.03125 
Q 45.3125 15.671875 45.3125 23.6875 
L 45.3125 54.6875 
L 54.296875 54.6875 
L 54.296875 0 
L 45.3125 0 
L 45.3125 8.40625 
Q 42.046875 3.421875 37.71875 1 
Q 33.40625 -1.421875 27.6875 -1.421875 
Q 18.265625 -1.421875 13.375 4.4375 
Q 8.5 10.296875 8.5 21.578125 
z
M 31.109375 56 
z
" id="DejaVuSans-117"/>
        <path d="M 44.28125 53.078125 
L 44.28125 44.578125 
Q 40.484375 46.53125 36.375 47.5 
Q 32.28125 48.484375 27.875 48.484375 
Q 21.1875 48.484375 17.84375 46.4375 
Q 14.5 44.390625 14.5 40.28125 
Q 14.5 37.15625 16.890625 35.375 
Q 19.28125 33.59375 26.515625 31.984375 
L 29.59375 31.296875 
Q 39.15625 29.25 43.1875 25.515625 
Q 47.21875 21.78125 47.21875 15.09375 
Q 47.21875 7.46875 41.1875 3.015625 
Q 35.15625 -1.421875 24.609375 -1.421875 
Q 20.21875 -1.421875 15.453125 -0.5625 
Q 10.6875 0.296875 5.421875 2 
L 5.421875 11.28125 
Q 10.40625 8.6875 15.234375 7.390625 
Q 20.0625 6.109375 24.8125 6.109375 
Q 31.15625 6.109375 34.5625 8.28125 
Q 37.984375 10.453125 37.984375 14.40625 
Q 37.984375 18.0625 35.515625 20.015625 
Q 33.0625 21.96875 24.703125 23.78125 
L 21.578125 24.515625 
Q 13.234375 26.265625 9.515625 29.90625 
Q 5.8125 33.546875 5.8125 39.890625 
Q 5.8125 47.609375 11.28125 51.796875 
Q 16.75 56 26.8125 56 
Q 31.78125 56 36.171875 55.265625 
Q 40.578125 54.546875 44.28125 53.078125 
z
" id="DejaVuSans-115"/>
       </defs>
       <use xlink:href="#DejaVuSans-97"/>
       <use x="61.279297" xlink:href="#DejaVuSans-102"/>
       <use x="96.484375" xlink:href="#DejaVuSans-108"/>
       <use x="124.267578" xlink:href="#DejaVuSans-112"/>
       <use x="187.744141" xlink:href="#DejaVuSans-108"/>
       <use x="215.527344" xlink:href="#DejaVuSans-117"/>
       <use x="278.90625" xlink:href="#DejaVuSans-115"/>
       <use x="331.005859" xlink:href="#DejaVuSans-112"/>
       <use x="394.482422" xlink:href="#DejaVuSans-108"/>
       <use x="422.265625" xlink:href="#DejaVuSans-117"/>
       <use x="485.644531" xlink:href="#DejaVuSans-115"/>
      </g>
     </g>
    </g>
    <g id="xtick_4">
     <g id="line2d_4">
      <g>
       <use style="stroke:#000000;stroke-width:0.8;" x="372.170625" xlink:href="#m9286c052c5" y="288.430125"/>
      </g>
     </g>
     <g id="text_4">
      <!-- fairfuzz -->
      <g transform="translate(339.18121 320.456659)rotate(-30)scale(0.1 -0.1)">
       <defs>
        <path d="M 9.421875 54.6875 
L 18.40625 54.6875 
L 18.40625 0 
L 9.421875 0 
z
M 9.421875 75.984375 
L 18.40625 75.984375 
L 18.40625 64.59375 
L 9.421875 64.59375 
z
" id="DejaVuSans-105"/>
        <path d="M 5.515625 54.6875 
L 48.1875 54.6875 
L 48.1875 46.484375 
L 14.40625 7.171875 
L 48.1875 7.171875 
L 48.1875 0 
L 4.296875 0 
L 4.296875 8.203125 
L 38.09375 47.515625 
L 5.515625 47.515625 
z
" id="DejaVuSans-122"/>
       </defs>
       <use xlink:href="#DejaVuSans-102"/>
       <use x="35.205078" xlink:href="#DejaVuSans-97"/>
       <use x="96.484375" xlink:href="#DejaVuSans-105"/>
       <use x="124.267578" xlink:href="#DejaVuSans-114"/>
       <use x="165.380859" xlink:href="#DejaVuSans-102"/>
       <use x="200.585938" xlink:href="#DejaVuSans-117"/>
       <use x="263.964844" xlink:href="#DejaVuSans-122"/>
       <use x="316.455078" xlink:href="#DejaVuSans-122"/>
      </g>
     </g>
    </g>
    <g id="text_5">
     <!-- Fuzzer (highest median coverage on the left) -->
     <g transform="translate(125.632656 342.296783)scale(0.1 -0.1)">
      <defs>
       <path d="M 9.8125 72.90625 
L 51.703125 72.90625 
L 51.703125 64.59375 
L 19.671875 64.59375 
L 19.671875 43.109375 
L 48.578125 43.109375 
L 48.578125 34.8125 
L 19.671875 34.8125 
L 19.671875 0 
L 9.8125 0 
z
" id="DejaVuSans-70"/>
       <path d="M 56.203125 29.59375 
L 56.203125 25.203125 
L 14.890625 25.203125 
Q 15.484375 15.921875 20.484375 11.0625 
Q 25.484375 6.203125 34.421875 6.203125 
Q 39.59375 6.203125 44.453125 7.46875 
Q 49.3125 8.734375 54.109375 11.28125 
L 54.109375 2.78125 
Q 49.265625 0.734375 44.1875 -0.34375 
Q 39.109375 -1.421875 33.890625 -1.421875 
Q 20.796875 -1.421875 13.15625 6.1875 
Q 5.515625 13.8125 5.515625 26.8125 
Q 5.515625 40.234375 12.765625 48.109375 
Q 20.015625 56 32.328125 56 
Q 43.359375 56 49.78125 48.890625 
Q 56.203125 41.796875 56.203125 29.59375 
z
M 47.21875 32.234375 
Q 47.125 39.59375 43.09375 43.984375 
Q 39.0625 48.390625 32.421875 48.390625 
Q 24.90625 48.390625 20.390625 44.140625 
Q 15.875 39.890625 15.1875 32.171875 
z
" id="DejaVuSans-101"/>
       <path id="DejaVuSans-32"/>
       <path d="M 31 75.875 
Q 24.46875 64.65625 21.28125 53.65625 
Q 18.109375 42.671875 18.109375 31.390625 
Q 18.109375 20.125 21.3125 9.0625 
Q 24.515625 -2 31 -13.1875 
L 23.1875 -13.1875 
Q 15.875 -1.703125 12.234375 9.375 
Q 8.59375 20.453125 8.59375 31.390625 
Q 8.59375 42.28125 12.203125 53.3125 
Q 15.828125 64.359375 23.1875 75.875 
z
" id="DejaVuSans-40"/>
       <path d="M 54.890625 33.015625 
L 54.890625 0 
L 45.90625 0 
L 45.90625 32.71875 
Q 45.90625 40.484375 42.875 44.328125 
Q 39.84375 48.1875 33.796875 48.1875 
Q 26.515625 48.1875 22.3125 43.546875 
Q 18.109375 38.921875 18.109375 30.90625 
L 18.109375 0 
L 9.078125 0 
L 9.078125 75.984375 
L 18.109375 75.984375 
L 18.109375 46.1875 
Q 21.34375 51.125 25.703125 53.5625 
Q 30.078125 56 35.796875 56 
Q 45.21875 56 50.046875 50.171875 
Q 54.890625 44.34375 54.890625 33.015625 
z
" id="DejaVuSans-104"/>
       <path d="M 45.40625 27.984375 
Q 45.40625 37.75 41.375 43.109375 
Q 37.359375 48.484375 30.078125 48.484375 
Q 22.859375 48.484375 18.828125 43.109375 
Q 14.796875 37.75 14.796875 27.984375 
Q 14.796875 18.265625 18.828125 12.890625 
Q 22.859375 7.515625 30.078125 7.515625 
Q 37.359375 7.515625 41.375 12.890625 
Q 45.40625 18.265625 45.40625 27.984375 
z
M 54.390625 6.78125 
Q 54.390625 -7.171875 48.1875 -13.984375 
Q 42 -20.796875 29.203125 -20.796875 
Q 24.46875 -20.796875 20.265625 -20.09375 
Q 16.0625 -19.390625 12.109375 -17.921875 
L 12.109375 -9.1875 
Q 16.0625 -11.328125 19.921875 -12.34375 
Q 23.78125 -13.375 27.78125 -13.375 
Q 36.625 -13.375 41.015625 -8.765625 
Q 45.40625 -4.15625 45.40625 5.171875 
L 45.40625 9.625 
Q 42.625 4.78125 38.28125 2.390625 
Q 33.9375 0 27.875 0 
Q 17.828125 0 11.671875 7.65625 
Q 5.515625 15.328125 5.515625 27.984375 
Q 5.515625 40.671875 11.671875 48.328125 
Q 17.828125 56 27.875 56 
Q 33.9375 56 38.28125 53.609375 
Q 42.625 51.21875 45.40625 46.390625 
L 45.40625 54.6875 
L 54.390625 54.6875 
z
" id="DejaVuSans-103"/>
       <path d="M 18.3125 70.21875 
L 18.3125 54.6875 
L 36.8125 54.6875 
L 36.8125 47.703125 
L 18.3125 47.703125 
L 18.3125 18.015625 
Q 18.3125 11.328125 20.140625 9.421875 
Q 21.96875 7.515625 27.59375 7.515625 
L 36.8125 7.515625 
L 36.8125 0 
L 27.59375 0 
Q 17.1875 0 13.234375 3.875 
Q 9.28125 7.765625 9.28125 18.015625 
L 9.28125 47.703125 
L 2.6875 47.703125 
L 2.6875 54.6875 
L 9.28125 54.6875 
L 9.28125 70.21875 
z
" id="DejaVuSans-116"/>
       <path d="M 52 44.1875 
Q 55.375 50.25 60.0625 53.125 
Q 64.75 56 71.09375 56 
Q 79.640625 56 84.28125 50.015625 
Q 88.921875 44.046875 88.921875 33.015625 
L 88.921875 0 
L 79.890625 0 
L 79.890625 32.71875 
Q 79.890625 40.578125 77.09375 44.375 
Q 74.3125 48.1875 68.609375 48.1875 
Q 61.625 48.1875 57.5625 43.546875 
Q 53.515625 38.921875 53.515625 30.90625 
L 53.515625 0 
L 44.484375 0 
L 44.484375 32.71875 
Q 44.484375 40.625 41.703125 44.40625 
Q 38.921875 48.1875 33.109375 48.1875 
Q 26.21875 48.1875 22.15625 43.53125 
Q 18.109375 38.875 18.109375 30.90625 
L 18.109375 0 
L 9.078125 0 
L 9.078125 54.6875 
L 18.109375 54.6875 
L 18.109375 46.1875 
Q 21.1875 51.21875 25.484375 53.609375 
Q 29.78125 56 35.6875 56 
Q 41.65625 56 45.828125 52.96875 
Q 50 49.953125 52 44.1875 
z
" id="DejaVuSans-109"/>
       <path d="M 54.890625 33.015625 
L 54.890625 0 
L 45.90625 0 
L 45.90625 32.71875 
Q 45.90625 40.484375 42.875 44.328125 
Q 39.84375 48.1875 33.796875 48.1875 
Q 26.515625 48.1875 22.3125 43.546875 
Q 18.109375 38.921875 18.109375 30.90625 
L 18.109375 0 
L 9.078125 0 
L 9.078125 54.6875 
L 18.109375 54.6875 
L 18.109375 46.1875 
Q 21.34375 51.125 25.703125 53.5625 
Q 30.078125 56 35.796875 56 
Q 45.21875 56 50.046875 50.171875 
Q 54.890625 44.34375 54.890625 33.015625 
z
" id="DejaVuSans-110"/>
       <path d="M 48.78125 52.59375 
L 48.78125 44.1875 
Q 44.96875 46.296875 41.140625 47.34375 
Q 37.3125 48.390625 33.40625 48.390625 
Q 24.65625 48.390625 19.8125 42.84375 
Q 14.984375 37.3125 14.984375 27.296875 
Q 14.984375 17.28125 19.8125 11.734375 
Q 24.65625 6.203125 33.40625 6.203125 
Q 37.3125 6.203125 41.140625 7.25 
Q 44.96875 8.296875 48.78125 10.40625 
L 48.78125 2.09375 
Q 45.015625 0.34375 40.984375 -0.53125 
Q 36.96875 -1.421875 32.421875 -1.421875 
Q 20.0625 -1.421875 12.78125 6.34375 
Q 5.515625 14.109375 5.515625 27.296875 
Q 5.515625 40.671875 12.859375 48.328125 
Q 20.21875 56 33.015625 56 
Q 37.15625 56 41.109375 55.140625 
Q 45.0625 54.296875 48.78125 52.59375 
z
" id="DejaVuSans-99"/>
       <path d="M 30.609375 48.390625 
Q 23.390625 48.390625 19.1875 42.75 
Q 14.984375 37.109375 14.984375 27.296875 
Q 14.984375 17.484375 19.15625 11.84375 
Q 23.34375 6.203125 30.609375 6.203125 
Q 37.796875 6.203125 41.984375 11.859375 
Q 46.1875 17.53125 46.1875 27.296875 
Q 46.1875 37.015625 41.984375 42.703125 
Q 37.796875 48.390625 30.609375 48.390625 
z
M 30.609375 56 
Q 42.328125 56 49.015625 48.375 
Q 55.71875 40.765625 55.71875 27.296875 
Q 55.71875 13.875 49.015625 6.21875 
Q 42.328125 -1.421875 30.609375 -1.421875 
Q 18.84375 -1.421875 12.171875 6.21875 
Q 5.515625 13.875 5.515625 27.296875 
Q 5.515625 40.765625 12.171875 48.375 
Q 18.84375 56 30.609375 56 
z
" id="DejaVuSans-111"/>
       <path d="M 2.984375 54.6875 
L 12.5 54.6875 
L 29.59375 8.796875 
L 46.6875 54.6875 
L 56.203125 54.6875 
L 35.6875 0 
L 23.484375 0 
z
" id="DejaVuSans-118"/>
       <path d="M 8.015625 75.875 
L 15.828125 75.875 
Q 23.140625 64.359375 26.78125 53.3125 
Q 30.421875 42.28125 30.421875 31.390625 
Q 30.421875 20.453125 26.78125 9.375 
Q 23.140625 -1.703125 15.828125 -13.1875 
L 8.015625 -13.1875 
Q 14.5 -2 17.703125 9.0625 
Q 20.90625 20.125 20.90625 31.390625 
Q 20.90625 42.671875 17.703125 53.65625 
Q 14.5 64.65625 8.015625 75.875 
z
" id="DejaVuSans-41"/>
      </defs>
      <use xlink:href="#DejaVuSans-70"/>
      <use x="52.019531" xlink:href="#DejaVuSans-117"/>
      <use x="115.398438" xlink:href="#DejaVuSans-122"/>
      <use x="167.888672" xlink:href="#DejaVuSans-122"/>
      <use x="220.378906" xlink:href="#DejaVuSans-101"/>
      <use x="281.902344" xlink:href="#DejaVuSans-114"/>
      <use x="323.015625" xlink:href="#DejaVuSans-32"/>
      <use x="354.802734" xlink:href="#DejaVuSans-40"/>
      <use x="393.816406" xlink:href="#DejaVuSans-104"/>
      <use x="457.195312" xlink:href="#DejaVuSans-105"/>
      <use x="484.978516" xlink:href="#DejaVuSans-103"/>
      <use x="548.455078" xlink:href="#DejaVuSans-104"/>
      <use x="611.833984" xlink:href="#DejaVuSans-101"/>
      <use x="673.357422" xlink:href="#DejaVuSans-115"/>
      <use x="725.457031" xlink:href="#DejaVuSans-116"/>
      <use x="764.666016" xlink:href="#DejaVuSans-32"/>
      <use x="796.453125" xlink:href="#DejaVuSans-109"/>
      <use x="893.865234" xlink:href="#DejaVuSans-101"/>
      <use x="955.388672" xlink:href="#DejaVuSans-100"/>
      <use x="1018.865234" xlink:href="#DejaVuSans-105"/>
      <use x="1046.648438" xlink:href="#DejaVuSans-97"/>
      <use x="1107.927734" xlink:href="#DejaVuSans-110"/>
      <use x="1171.306641" xlink:href="#DejaVuSans-32"/>
      <use x="1203.09375" xlink:href="#DejaVuSans-99"/>
      <use x="1258.074219" xlink:href="#DejaVuSans-111"/>
      <use x="1319.255859" xlink:href="#DejaVuSans-118"/>
      <use x="1378.435547" xlink:href="#DejaVuSans-101"/>
      <use x="1439.958984" xlink:href="#DejaVuSans-114"/>
      <use x="1481.072266" xlink:href="#DejaVuSans-97"/>
      <use x="1542.351562" xlink:href="#DejaVuSans-103"/>
      <use x="1605.828125" xlink:href="#DejaVuSans-101"/>
      <use x="1667.351562" xlink:href="#DejaVuSans-32"/>
      <use x="1699.138672" xlink:href="#DejaVuSans-111"/>
      <use x="1760.320312" xlink:href="#DejaVuSans-110"/>
      <use x="1823.699219" xlink:href="#DejaVuSans-32"/>
      <use x="1855.486328" xlink:href="#DejaVuSans-116"/>
      <use x="1894.695312" xlink:href="#DejaVuSans-104"/>
      <use x="1958.074219" xlink:href="#DejaVuSans-101"/>
      <use x="2019.597656" xlink:href="#DejaVuSans-32"/>
      <use x="2051.384766" xlink:href="#DejaVuSans-108"/>
      <use x="2079.167969" xlink:href="#DejaVuSans-101"/>
      <use x="2140.691406" xlink:href="#DejaVuSans-102"/>
      <use x="2174.146484" xlink:href="#DejaVuSans-116"/>
      <use x="2213.355469" xlink:href="#DejaVuSans-41"/>
     </g>
    </g>
   </g>
   <g id="matplotlib.axis_2">
    <g id="ytick_1">
     <g id="line2d_5">
      <defs>
       <path d="M 0 0 
L -3.5 0 
" id="m646cff72f4" style="stroke:#000000;stroke-width:0.8;"/>
      </defs>
      <g>
       <use style="stroke:#000000;stroke-width:0.8;" x="59.690625" xlink:href="#m646cff72f4" y="284.054861"/>
      </g>
     </g>
     <g id="text_6">
      <!-- 20000 -->
      <g transform="translate(20.878125 287.85408)scale(0.1 -0.1)">
       <defs>
        <path d="M 19.1875 8.296875 
L 53.609375 8.296875 
L 53.609375 0 
L 7.328125 0 
L 7.328125 8.296875 
Q 12.9375 14.109375 22.625 23.890625 
Q 32.328125 33.6875 34.8125 36.53125 
Q 39.546875 41.84375 41.421875 45.53125 
Q 43.3125 49.21875 43.3125 52.78125 
Q 43.3125 58.59375 39.234375 62.25 
Q 35.15625 65.921875 28.609375 65.921875 
Q 23.96875 65.921875 18.8125 64.3125 
Q 13.671875 62.703125 7.8125 59.421875 
L 7.8125 69.390625 
Q 13.765625 71.78125 18.9375 73 
Q 24.125 74.21875 28.421875 74.21875 
Q 39.75 74.21875 46.484375 68.546875 
Q 53.21875 62.890625 53.21875 53.421875 
Q 53.21875 48.921875 51.53125 44.890625 
Q 49.859375 40.875 45.40625 35.40625 
Q 44.1875 33.984375 37.640625 27.21875 
Q 31.109375 20.453125 19.1875 8.296875 
z
" id="DejaVuSans-50"/>
        <path d="M 31.78125 66.40625 
Q 24.171875 66.40625 20.328125 58.90625 
Q 16.5 51.421875 16.5 36.375 
Q 16.5 21.390625 20.328125 13.890625 
Q 24.171875 6.390625 31.78125 6.390625 
Q 39.453125 6.390625 43.28125 13.890625 
Q 47.125 21.390625 47.125 36.375 
Q 47.125 51.421875 43.28125 58.90625 
Q 39.453125 66.40625 31.78125 66.40625 
z
M 31.78125 74.21875 
Q 44.046875 74.21875 50.515625 64.515625 
Q 56.984375 54.828125 56.984375 36.375 
Q 56.984375 17.96875 50.515625 8.265625 
Q 44.046875 -1.421875 31.78125 -1.421875 
Q 19.53125 -1.421875 13.0625 8.265625 
Q 6.59375 17.96875 6.59375 36.375 
Q 6.59375 54.828125 13.0625 64.515625 
Q 19.53125 74.21875 31.78125 74.21875 
z
" id="DejaVuSans-48"/>
       </defs>
       <use xlink:href="#DejaVuSans-50"/>
       <use x="63.623047" xlink:href="#DejaVuSans-48"/>
       <use x="127.246094" xlink:href="#DejaVuSans-48"/>
       <use x="190.869141" xlink:href="#DejaVuSans-48"/>
       <use x="254.492188" xlink:href="#DejaVuSans-48"/>
      </g>
     </g>
    </g>
    <g id="ytick_2">
     <g id="line2d_6">
      <g>
       <use style="stroke:#000000;stroke-width:0.8;" x="59.690625" xlink:href="#m646cff72f4" y="248.576302"/>
      </g>
     </g>
     <g id="text_7">
      <!-- 22000 -->
      <g transform="translate(20.878125 252.37552)scale(0.1 -0.1)">
       <use xlink:href="#DejaVuSans-50"/>
       <use x="63.623047" xlink:href="#DejaVuSans-50"/>
       <use x="127.246094" xlink:href="#DejaVuSans-48"/>
       <use x="190.869141" xlink:href="#DejaVuSans-48"/>
       <use x="254.492188" xlink:href="#DejaVuSans-48"/>
      </g>
     </g>
    </g>
    <g id="ytick_3">
     <g id="line2d_7">
      <g>
       <use style="stroke:#000000;stroke-width:0.8;" x="59.690625" xlink:href="#m646cff72f4" y="213.097742"/>
      </g>
     </g>
     <g id="text_8">
      <!-- 24000 -->
      <g transform="translate(20.878125 216.89696)scale(0.1 -0.1)">
       <defs>
        <path d="M 37.796875 64.3125 
L 12.890625 25.390625 
L 37.796875 25.390625 
z
M 35.203125 72.90625 
L 47.609375 72.90625 
L 47.609375 25.390625 
L 58.015625 25.390625 
L 58.015625 17.1875 
L 47.609375 17.1875 
L 47.609375 0 
L 37.796875 0 
L 37.796875 17.1875 
L 4.890625 17.1875 
L 4.890625 26.703125 
z
" id="DejaVuSans-52"/>
       </defs>
       <use xlink:href="#DejaVuSans-50"/>
       <use x="63.623047" xlink:href="#DejaVuSans-52"/>
       <use x="127.246094" xlink:href="#DejaVuSans-48"/>
       <use x="190.869141" xlink:href="#DejaVuSans-48"/>
       <use x="254.492188" xlink:href="#DejaVuSans-48"/>
      </g>
     </g>
    </g>
    <g id="ytick_4">
     <g id="line2d_8">
      <g>
       <use style="stroke:#000000;stroke-width:0.8;" x="59.690625" xlink:href="#m646cff72f4" y="177.619182"/>
      </g>
     </g>
     <g id="text_9">
      <!-- 26000 -->
      <g transform="translate(20.878125 181.418401)scale(0.1 -0.1)">
       <defs>
        <path d="M 33.015625 40.375 
Q 26.375 40.375 22.484375 35.828125 
Q 18.609375 31.296875 18.609375 23.390625 
Q 18.609375 15.53125 22.484375 10.953125 
Q 26.375 6.390625 33.015625 6.390625 
Q 39.65625 6.390625 43.53125 10.953125 
Q 47.40625 15.53125 47.40625 23.390625 
Q 47.40625 31.296875 43.53125 35.828125 
Q 39.65625 40.375 33.015625 40.375 
z
M 52.59375 71.296875 
L 52.59375 62.3125 
Q 48.875 64.0625 45.09375 64.984375 
Q 41.3125 65.921875 37.59375 65.921875 
Q 27.828125 65.921875 22.671875 59.328125 
Q 17.53125 52.734375 16.796875 39.40625 
Q 19.671875 43.65625 24.015625 45.921875 
Q 28.375 48.1875 33.59375 48.1875 
Q 44.578125 48.1875 50.953125 41.515625 
Q 57.328125 34.859375 57.328125 23.390625 
Q 57.328125 12.15625 50.6875 5.359375 
Q 44.046875 -1.421875 33.015625 -1.421875 
Q 20.359375 -1.421875 13.671875 8.265625 
Q 6.984375 17.96875 6.984375 36.375 
Q 6.984375 53.65625 15.1875 63.9375 
Q 23.390625 74.21875 37.203125 74.21875 
Q 40.921875 74.21875 44.703125 73.484375 
Q 48.484375 72.75 52.59375 71.296875 
z
" id="DejaVuSans-54"/>
       </defs>
       <use xlink:href="#DejaVuSans-50"/>
       <use x="63.623047" xlink:href="#DejaVuSans-54"/>
       <use x="127.246094" xlink:href="#DejaVuSans-48"/>
       <use x="190.869141" xlink:href="#DejaVuSans-48"/>
       <use x="254.492188" xlink:href="#DejaVuSans-48"/>
      </g>
     </g>
    </g>
    <g id="ytick_5">
     <g id="line2d_9">
      <g>
       <use style="stroke:#000000;stroke-width:0.8;" x="59.690625" xlink:href="#m646cff72f4" y="142.140622"/>
      </g>
     </g>
     <g id="text_10">
      <!-- 28000 -->
      <g transform="translate(20.878125 145.939841)scale(0.1 -0.1)">
       <defs>
        <path d="M 31.78125 34.625 
Q 24.75 34.625 20.71875 30.859375 
Q 16.703125 27.09375 16.703125 20.515625 
Q 16.703125 13.921875 20.71875 10.15625 
Q 24.75 6.390625 31.78125 6.390625 
Q 38.8125 6.390625 42.859375 10.171875 
Q 46.921875 13.96875 46.921875 20.515625 
Q 46.921875 27.09375 42.890625 30.859375 
Q 38.875 34.625 31.78125 34.625 
z
M 21.921875 38.8125 
Q 15.578125 40.375 12.03125 44.71875 
Q 8.5 49.078125 8.5 55.328125 
Q 8.5 64.0625 14.71875 69.140625 
Q 20.953125 74.21875 31.78125 74.21875 
Q 42.671875 74.21875 48.875 69.140625 
Q 55.078125 64.0625 55.078125 55.328125 
Q 55.078125 49.078125 51.53125 44.71875 
Q 48 40.375 41.703125 38.8125 
Q 48.828125 37.15625 52.796875 32.3125 
Q 56.78125 27.484375 56.78125 20.515625 
Q 56.78125 9.90625 50.3125 4.234375 
Q 43.84375 -1.421875 31.78125 -1.421875 
Q 19.734375 -1.421875 13.25 4.234375 
Q 6.78125 9.90625 6.78125 20.515625 
Q 6.78125 27.484375 10.78125 32.3125 
Q 14.796875 37.15625 21.921875 38.8125 
z
M 18.3125 54.390625 
Q 18.3125 48.734375 21.84375 45.5625 
Q 25.390625 42.390625 31.78125 42.390625 
Q 38.140625 42.390625 41.71875 45.5625 
Q 45.3125 48.734375 45.3125 54.390625 
Q 45.3125 60.0625 41.71875 63.234375 
Q 38.140625 66.40625 31.78125 66.40625 
Q 25.390625 66.40625 21.84375 63.234375 
Q 18.3125 60.0625 18.3125 54.390625 
z
" id="DejaVuSans-56"/>
       </defs>
       <use xlink:href="#DejaVuSans-50"/>
       <use x="63.623047" xlink:href="#DejaVuSans-56"/>
       <use x="127.246094" xlink:href="#DejaVuSans-48"/>
       <use x="190.869141" xlink:href="#DejaVuSans-48"/>
       <use x="254.492188" xlink:href="#DejaVuSans-48"/>
      </g>
     </g>
    </g>
    <g id="ytick_6">
     <g id="line2d_10">
      <g>
       <use style="stroke:#000000;stroke-width:0.8;" x="59.690625" xlink:href="#m646cff72f4" y="106.662062"/>
      </g>
     </g>
     <g id="text_11">
      <!-- 30000 -->
      <g transform="translate(20.878125 110.461281)scale(0.1 -0.1)">
       <defs>
        <path d="M 40.578125 39.3125 
Q 47.65625 37.796875 51.625 33 
Q 55.609375 28.21875 55.609375 21.1875 
Q 55.609375 10.40625 48.1875 4.484375 
Q 40.765625 -1.421875 27.09375 -1.421875 
Q 22.515625 -1.421875 17.65625 -0.515625 
Q 12.796875 0.390625 7.625 2.203125 
L 7.625 11.71875 
Q 11.71875 9.328125 16.59375 8.109375 
Q 21.484375 6.890625 26.8125 6.890625 
Q 36.078125 6.890625 40.9375 10.546875 
Q 45.796875 14.203125 45.796875 21.1875 
Q 45.796875 27.640625 41.28125 31.265625 
Q 36.765625 34.90625 28.71875 34.90625 
L 20.21875 34.90625 
L 20.21875 43.015625 
L 29.109375 43.015625 
Q 36.375 43.015625 40.234375 45.921875 
Q 44.09375 48.828125 44.09375 54.296875 
Q 44.09375 59.90625 40.109375 62.90625 
Q 36.140625 65.921875 28.71875 65.921875 
Q 24.65625 65.921875 20.015625 65.03125 
Q 15.375 64.15625 9.8125 62.3125 
L 9.8125 71.09375 
Q 15.4375 72.65625 20.34375 73.4375 
Q 25.25 74.21875 29.59375 74.21875 
Q 40.828125 74.21875 47.359375 69.109375 
Q 53.90625 64.015625 53.90625 55.328125 
Q 53.90625 49.265625 50.4375 45.09375 
Q 46.96875 40.921875 40.578125 39.3125 
z
" id="DejaVuSans-51"/>
       </defs>
       <use xlink:href="#DejaVuSans-51"/>
       <use x="63.623047" xlink:href="#DejaVuSans-48"/>
       <use x="127.246094" xlink:href="#DejaVuSans-48"/>
       <use x="190.869141" xlink:href="#DejaVuSans-48"/>
       <use x="254.492188" xlink:href="#DejaVuSans-48"/>
      </g>
     </g>
    </g>
    <g id="ytick_7">
     <g id="line2d_11">
      <g>
       <use style="stroke:#000000;stroke-width:0.8;" x="59.690625" xlink:href="#m646cff72f4" y="71.183503"/>
      </g>
     </g>
     <g id="text_12">
      <!-- 32000 -->
      <g transform="translate(20.878125 74.982721)scale(0.1 -0.1)">
       <use xlink:href="#DejaVuSans-51"/>
       <use x="63.623047" xlink:href="#DejaVuSans-50"/>
       <use x="127.246094" xlink:href="#DejaVuSans-48"/>
       <use x="190.869141" xlink:href="#DejaVuSans-48"/>
       <use x="254.492188" xlink:href="#DejaVuSans-48"/>
      </g>
     </g>
    </g>
    <g id="ytick_8">
     <g id="line2d_12">
      <g>
       <use style="stroke:#000000;stroke-width:0.8;" x="59.690625" xlink:href="#m646cff72f4" y="35.704943"/>
      </g>
     </g>
     <g id="text_13">
      <!-- 34000 -->
      <g transform="translate(20.878125 39.504162)scale(0.1 -0.1)">
       <use xlink:href="#DejaVuSans-51"/>
       <use x="63.623047" xlink:href="#DejaVuSans-52"/>
       <use x="127.246094" xlink:href="#DejaVuSans-48"/>
       <use x="190.869141" xlink:href="#DejaVuSans-48"/>
       <use x="254.492188" xlink:href="#DejaVuSans-48"/>
      </g>
     </g>
    </g>
    <g id="text_14">
     <!-- Reached region coverage -->
     <g transform="translate(14.798438 219.136625)rotate(-90)scale(0.1 -0.1)">
      <defs>
       <path d="M 44.390625 34.1875 
Q 47.5625 33.109375 50.5625 29.59375 
Q 53.5625 26.078125 56.59375 19.921875 
L 66.609375 0 
L 56 0 
L 46.6875 18.703125 
Q 43.0625 26.03125 39.671875 28.421875 
Q 36.28125 30.8125 30.421875 30.8125 
L 19.671875 30.8125 
L 19.671875 0 
L 9.8125 0 
L 9.8125 72.90625 
L 32.078125 72.90625 
Q 44.578125 72.90625 50.734375 67.671875 
Q 56.890625 62.453125 56.890625 51.90625 
Q 56.890625 45.015625 53.6875 40.46875 
Q 50.484375 35.9375 44.390625 34.1875 
z
M 19.671875 64.796875 
L 19.671875 38.921875 
L 32.078125 38.921875 
Q 39.203125 38.921875 42.84375 42.21875 
Q 46.484375 45.515625 46.484375 51.90625 
Q 46.484375 58.296875 42.84375 61.546875 
Q 39.203125 64.796875 32.078125 64.796875 
z
" id="DejaVuSans-82"/>
      </defs>
      <use xlink:href="#DejaVuSans-82"/>
      <use x="64.982422" xlink:href="#DejaVuSans-101"/>
      <use x="126.505859" xlink:href="#DejaVuSans-97"/>
      <use x="187.785156" xlink:href="#DejaVuSans-99"/>
      <use x="242.765625" xlink:href="#DejaVuSans-104"/>
      <use x="306.144531" xlink:href="#DejaVuSans-101"/>
      <use x="367.667969" xlink:href="#DejaVuSans-100"/>
      <use x="431.144531" xlink:href="#DejaVuSans-32"/>
      <use x="462.931641" xlink:href="#DejaVuSans-114"/>
      <use x="501.794922" xlink:href="#DejaVuSans-101"/>
      <use x="563.318359" xlink:href="#DejaVuSans-103"/>
      <use x="626.794922" xlink:href="#DejaVuSans-105"/>
      <use x="654.578125" xlink:href="#DejaVuSans-111"/>
      <use x="715.759766" xlink:href="#DejaVuSans-110"/>
      <use x="779.138672" xlink:href="#DejaVuSans-32"/>
      <use x="810.925781" xlink:href="#DejaVuSans-99"/>
      <use x="865.90625" xlink:href="#DejaVuSans-111"/>
      <use x="927.087891" xlink:href="#DejaVuSans-118"/>
      <use x="986.267578" xlink:href="#DejaVuSans-101"/>
      <use x="1047.791016" xlink:href="#DejaVuSans-114"/>
      <use x="1088.904297" xlink:href="#DejaVuSans-97"/>
      <use x="1150.183594" xlink:href="#DejaVuSans-103"/>
      <use x="1213.660156" xlink:href="#DejaVuSans-101"/>
     </g>
    </g>
   </g>
   <g id="line2d_13">
    <path clip-path="url(#p64e7676726)" d="M 104.330625 157.96406 
L 104.330625 108.471469 
" style="fill:none;stroke:#3f3f3f;stroke-linecap:square;stroke-width:1.5;"/>
   </g>
   <g id="line2d_14">
    <path clip-path="url(#p64e7676726)" d="M 104.330625 138.468591 
L 104.330625 113.722296 
" style="fill:none;stroke:#3f3f3f;stroke-linecap:square;stroke-width:4.5;"/>
   </g>
   <g id="line2d_15">
    <path clip-path="url(#p64e7676726)" d="M 193.610625 161.65383 
L 193.610625 127.239627 
" style="fill:none;stroke:#3f3f3f;stroke-linecap:square;stroke-width:1.5;"/>
   </g>
   <g id="line2d_16">
    <path clip-path="url(#p64e7676726)" d="M 193.610625 161.40548 
L 193.610625 144.198379 
" style="fill:none;stroke:#3f3f3f;stroke-linecap:square;stroke-width:4.5;"/>
   </g>
   <g id="line2d_17">
    <path clip-path="url(#p64e7676726)" d="M 282.890625 201.052771 
L 282.890625 109.695479 
" style="fill:none;stroke:#3f3f3f;stroke-linecap:square;stroke-width:1.5;"/>
   </g>
   <g id="line2d_18">
    <path clip-path="url(#p64e7676726)" d="M 282.890625 187.384656 
L 282.890625 141.70601 
" style="fill:none;stroke:#3f3f3f;stroke-linecap:square;stroke-width:4.5;"/>
   </g>
   <g id="line2d_19">
    <path clip-path="url(#p64e7676726)" d="M 372.170625 231.191807 
L 372.170625 190.018939 
" style="fill:none;stroke:#3f3f3f;stroke-linecap:square;stroke-width:1.5;"/>
   </g>
   <g id="line2d_20">
    <path clip-path="url(#p64e7676726)" d="M 372.170625 227.812474 
L 372.170625 207.22604 
" style="fill:none;stroke:#3f3f3f;stroke-linecap:square;stroke-width:4.5;"/>
   </g>
   <g id="patch_3">
    <path d="M 59.690625 284.054861 
L 59.690625 35.704943 
" style="fill:none;stroke:#000000;stroke-linecap:square;stroke-linejoin:miter;stroke-width:0.8;"/>
   </g>
   <g id="patch_4">
    <path d="M 104.330625 288.430125 
L 372.170625 288.430125 
" style="fill:none;stroke:#000000;stroke-linecap:square;stroke-linejoin:miter;stroke-width:0.8;"/>
   </g>
   <g id="PathCollection_1">
    <defs>
     <path d="M 0 1.5 
C 0.397805 1.5 0.77937 1.341951 1.06066 1.06066 
C 1.341951 0.77937 1.5 0.397805 1.5 0 
C 1.5 -0.397805 1.341951 -0.77937 1.06066 -1.06066 
C 0.77937 -1.341951 0.397805 -1.5 0 -1.5 
C -0.397805 -1.5 -0.77937 -1.341951 -1.06066 -1.06066 
C -1.341951 -0.77937 -1.5 -0.397805 -1.5 0 
C -1.5 0.397805 -1.341951 0.77937 -1.06066 1.06066 
C -0.77937 1.341951 -0.397805 1.5 0 1.5 
z
" id="mf1c0786e40" style="stroke:#3f3f3f;"/>
    </defs>
    <g clip-path="url(#p64e7676726)">
     <use style="fill:#ffffff;stroke:#3f3f3f;" x="104.330625" xlink:href="#mf1c0786e40" y="118.973123"/>
    </g>
   </g>
   <g id="PathCollection_2">
    <g clip-path="url(#p64e7676726)">
     <use style="fill:#ffffff;stroke:#3f3f3f;" x="193.610625" xlink:href="#mf1c0786e40" y="161.15713"/>
    </g>
   </g>
   <g id="PathCollection_3">
    <g clip-path="url(#p64e7676726)">
     <use style="fill:#ffffff;stroke:#3f3f3f;" x="282.890625" xlink:href="#mf1c0786e40" y="173.71654"/>
    </g>
   </g>
   <g id="PathCollection_4">
    <g clip-path="url(#p64e7676726)">
     <use style="fill:#ffffff;stroke:#3f3f3f;" x="372.170625" xlink:href="#mf1c0786e40" y="224.433142"/>
    </g>
   </g>
   <g id="text_15">
    <!-- sqlite3_ossfuzz (24h, 3 trials/fuzzer) -->
    <g transform="translate(130.073438 16.318125)scale(0.12 -0.12)">
     <defs>
      <path d="M 14.796875 27.296875 
Q 14.796875 17.390625 18.875 11.75 
Q 22.953125 6.109375 30.078125 6.109375 
Q 37.203125 6.109375 41.296875 11.75 
Q 45.40625 17.390625 45.40625 27.296875 
Q 45.40625 37.203125 41.296875 42.84375 
Q 37.203125 48.484375 30.078125 48.484375 
Q 22.953125 48.484375 18.875 42.84375 
Q 14.796875 37.203125 14.796875 27.296875 
z
M 45.40625 8.203125 
Q 42.578125 3.328125 38.25 0.953125 
Q 33.9375 -1.421875 27.875 -1.421875 
Q 17.96875 -1.421875 11.734375 6.484375 
Q 5.515625 14.40625 5.515625 27.296875 
Q 5.515625 40.1875 11.734375 48.09375 
Q 17.96875 56 27.875 56 
Q 33.9375 56 38.25 53.625 
Q 42.578125 51.265625 45.40625 46.390625 
L 45.40625 54.6875 
L 54.390625 54.6875 
L 54.390625 -20.796875 
L 45.40625 -20.796875 
z
" id="DejaVuSans-113"/>
      <path d="M 50.984375 -16.609375 
L 50.984375 -23.578125 
L -0.984375 -23.578125 
L -0.984375 -16.609375 
z
" id="DejaVuSans-95"/>
      <path d="M 11.71875 12.40625 
L 22.015625 12.40625 
L 22.015625 4 
L 14.015625 -11.625 
L 7.71875 -11.625 
L 11.71875 4 
z
" id="DejaVuSans-44"/>
      <path d="M 25.390625 72.90625 
L 33.6875 72.90625 
L 8.296875 -9.28125 
L 0 -9.28125 
z
" id="DejaVuSans-47"/>
     </defs>
     <use xlink:href="#DejaVuSans-115"/>
     <use x="52.099609" xlink:href="#DejaVuSans-113"/>
     <use x="115.576172" xlink:href="#DejaVuSans-108"/>
     <use x="143.359375" xlink:href="#DejaVuSans-105"/>
     <use x="171.142578" xlink:href="#DejaVuSans-116"/>
     <use x="210.351562" xlink:href="#DejaVuSans-101"/>
     <use x="271.875" xlink:href="#DejaVuSans-51"/>
     <use x="335.498047" xlink:href="#DejaVuSans-95"/>
     <use x="385.498047" xlink:href="#DejaVuSans-111"/>
     <use x="446.679688" xlink:href="#DejaVuSans-115"/>
     <use x="498.779297" xlink:href="#DejaVuSans-115"/>
     <use x="550.878906" xlink:href="#DejaVuSans-102"/>
     <use x="586.083984" xlink:href="#DejaVuSans-117"/>
     <use x="649.462891" xlink:href="#DejaVuSans-122"/>
     <use x="701.953125" xlink:href="#DejaVuSans-122"/>
     <use x="754.443359" xlink:href="#DejaVuSans-32"/>
     <use x="786.230469" xlink:href="#DejaVuSans-40"/>
     <use x="825.244141" xlink:href="#DejaVuSans-50"/>
     <use x="888.867188" xlink:href="#DejaVuSans-52"/>
     <use x="952.490234" xlink:href="#DejaVuSans-104"/>
     <use x="1015.869141" xlink:href="#DejaVuSans-44"/>
     <use x="1047.65625" xlink:href="#DejaVuSans-32"/>
     <use x="1079.443359" xlink:href="#DejaVuSans-51"/>
     <use x="1143.066406" xlink:href="#DejaVuSans-32"/>
     <use x="1174.853516" xlink:href="#DejaVuSans-116"/>
     <use x="1214.0625" xlink:href="#DejaVuSans-114"/>
     <use x="1255.175781" xlink:href="#DejaVuSans-105"/>
     <use x="1282.958984" xlink:href="#DejaVuSans-97"/>
     <use x="1344.238281" xlink:href="#DejaVuSans-108"/>
     <use x="1372.021484" xlink:href="#DejaVuSans-115"/>
     <use x="1424.121094" xlink:href="#DejaVuSans-47"/>
     <use x="1457.8125" xlink:href="#DejaVuSans-102"/>
     <use x="1493.017578" xlink:href="#DejaVuSans-117"/>
     <use x="1556.396484" xlink:href="#DejaVuSans-122"/>
     <use x="1608.886719" xlink:href="#DejaVuSans-122"/>
     <use x="1661.376953" xlink:href="#DejaVuSans-101"/>
     <use x="1722.900391" xlink:href="#DejaVuSans-114"/>
     <use x="1764.013672" xlink:href="#DejaVuSans-41"/>
    </g>
   </g>
  </g>
 </g>
 <defs>
  <clipPath id="p64e7676726">
   <rect height="266.112" width="357.12" x="59.690625" y="22.318125"/>
  </clipPath>
 </defs>
</svg>
