<?xml version="1.0" encoding="utf-8" standalone="no"?>
<!DOCTYPE svg PUBLIC "-//W3C//DTD SVG 1.1//EN"
  "http://www.w3.org/Graphics/SVG/1.1/DTD/svg11.dtd">
<svg height="325.986375pt" version="1.1" viewBox="0 0 972.105625 325.986375" width="972.105625pt" xmlns="http://www.w3.org/2000/svg" xmlns:xlink="http://www.w3.org/1999/xlink">
 <metadata>
  <rdf:RDF xmlns:cc="http://creativecommons.org/ns#" xmlns:dc="http://purl.org/dc/elements/1.1/" xmlns:rdf="http://www.w3.org/1999/02/22-rdf-syntax-ns#">
   <cc:Work>
    <dc:type rdf:resource="http://purl.org/dc/dcmitype/StillImage"/>
    <dc:date>2021-07-14T12:38:48.979398</dc:date>
    <dc:format>image/svg+xml</dc:format>
    <dc:creator>
     <cc:Agent>
      <dc:title>Matplotlib v3.4.1, https://matplotlib.org/</dc:title>
     </cc:Agent>
    </dc:creator>
   </cc:Work>
  </rdf:RDF>
 </metadata>
 <defs>
  <style type="text/css">*{stroke-linecap:butt;stroke-linejoin:round;}</style>
 </defs>
 <g id="figure_1">
  <g id="patch_1">
   <path d="M 0 325.986375 
L 972.105625 325.986375 
L 972.105625 0 
L 0 0 
z
" style="fill:#ffffff;"/>
  </g>
  <g id="axes_1">
   <g id="patch_2">
    <path d="M 53.328125 288.430125 
L 767.568125 288.430125 
L 767.568125 22.318125 
L 53.328125 22.318125 
z
" style="fill:#ffffff;"/>
   </g>
   <g id="PolyCollection_1">
    <defs>
     <path d="M 85.79358 -76.274643 
L 85.79358 -49.65225 
L 190.036314 -77.234008 
L 251.014404 -90.585178 
L 294.279048 -92.344015 
L 327.837713 -111.37143 
L 355.257138 -118.166936 
L 378.439932 -121.844504 
L 398.521782 -123.843182 
L 416.235229 -126.241596 
L 432.080447 -126.881173 
L 446.41419 -127.280908 
L 459.499872 -130.55874 
L 471.537533 -131.438159 
L 482.682667 -132.79726 
L 493.058537 -134.316255 
L 502.764516 -137.354246 
L 511.881882 -138.793294 
L 520.477963 -152.464253 
L 528.609158 -153.10383 
L 536.323181 -153.10383 
L 543.660757 -157.580869 
L 550.656924 -157.900657 
L 557.342046 -158.460287 
L 563.742607 -158.460287 
L 569.881846 -158.460287 
L 575.780268 -159.339705 
L 581.456053 -160.299071 
L 586.925401 -161.818066 
L 592.202801 -161.818066 
L 597.301271 -161.818066 
L 602.232549 -163.896692 
L 607.00725 -164.056586 
L 611.635015 -164.136533 
L 616.124616 -165.015951 
L 620.484066 -165.655528 
L 624.720697 -165.89537 
L 628.841242 -166.135211 
L 632.851892 -166.375052 
L 636.758358 -166.534947 
L 640.565915 -166.854735 
L 644.279449 -167.654206 
L 647.903491 -168.133889 
L 651.442254 -168.373731 
L 654.899658 -168.93336 
L 658.279362 -169.173202 
L 661.58478 -169.652885 
L 664.819109 -169.812779 
L 667.985341 -170.05262 
L 671.086285 -171.011986 
L 674.12458 -171.011986 
L 677.102707 -171.011986 
L 680.023002 -171.011986 
L 682.887669 -171.091933 
L 685.698788 -171.17188 
L 688.458323 -171.251827 
L 691.168135 -171.891404 
L 693.829983 -171.971351 
L 696.445535 -172.131245 
L 699.016375 -172.211192 
L 701.544006 -172.211192 
L 704.029855 -172.371087 
L 706.475283 -172.371087 
L 708.881582 -172.850769 
L 711.249985 -172.930717 
L 713.581667 -172.930717 
L 715.877749 -172.930717 
L 718.139302 -172.930717 
L 720.36735 -172.930717 
L 722.562871 -172.930717 
L 724.7268 -172.930717 
L 726.860034 -172.930717 
L 728.963431 -172.930717 
L 731.037816 -172.930717 
L 733.083976 -173.090611 
L 735.10267 -173.090611 
L 735.10267 -291.57225 
L 735.10267 -291.57225 
L 733.083976 -291.01262 
L 731.037816 -291.01262 
L 728.963431 -291.01262 
L 726.860034 -291.01262 
L 724.7268 -290.852726 
L 722.562871 -290.692832 
L 720.36735 -290.692832 
L 718.139302 -290.612885 
L 715.877749 -290.612885 
L 713.581667 -290.612885 
L 711.249985 -290.373043 
L 708.881582 -290.293096 
L 706.475283 -290.293096 
L 704.029855 -290.293096 
L 701.544006 -290.213149 
L 699.016375 -290.213149 
L 696.445535 -290.213149 
L 693.829983 -290.213149 
L 691.168135 -290.053255 
L 688.458323 -289.653519 
L 685.698788 -289.653519 
L 682.887669 -289.493625 
L 680.023002 -289.413678 
L 677.102707 -289.333731 
L 674.12458 -289.253783 
L 671.086285 -289.253783 
L 667.985341 -288.854048 
L 664.819109 -288.134524 
L 661.58478 -288.134524 
L 658.279362 -287.894682 
L 654.899658 -287.335052 
L 651.442254 -286.935317 
L 647.903491 -286.935317 
L 644.279449 -286.535581 
L 640.565915 -286.535581 
L 636.758358 -285.17648 
L 632.851892 -285.17648 
L 628.841242 -285.17648 
L 624.720697 -285.17648 
L 620.484066 -285.096533 
L 616.124616 -285.096533 
L 611.635015 -284.61685 
L 607.00725 -284.137167 
L 602.232549 -281.738754 
L 597.301271 -281.738754 
L 592.202801 -280.699441 
L 586.925401 -280.619494 
L 581.456053 -278.540869 
L 575.780268 -277.901292 
L 569.881846 -276.302349 
L 563.742607 -273.184411 
L 557.342046 -272.38494 
L 550.656924 -254.87652 
L 543.660757 -248.800538 
L 536.323181 -230.972329 
L 528.609158 -230.972329 
L 520.477963 -207.547822 
L 511.881882 -206.028826 
L 502.764516 -195.795594 
L 493.058537 -168.133889 
L 482.682667 -166.614894 
L 471.537533 -160.05923 
L 459.499872 -158.620181 
L 446.41419 -155.262402 
L 432.080447 -151.904623 
L 416.235229 -151.344993 
L 398.521782 -148.866632 
L 378.439932 -141.991179 
L 355.257138 -136.554775 
L 327.837713 -120.245561 
L 294.279048 -112.970373 
L 251.014404 -107.613916 
L 190.036314 -101.058251 
L 85.79358 -76.274643 
z
" id="mb79e306445" style="stroke:#98df8a;stroke-opacity:0.2;"/>
    </defs>
    <g clip-path="url(#pe179def6f6)">
     <use style="fill:#98df8a;fill-opacity:0.2;stroke:#98df8a;stroke-opacity:0.2;" x="0" xlink:href="#mb79e306445" y="325.986375"/>
    </g>
   </g>
   <g id="PolyCollection_2">
    <defs>
     <path d="M 85.79358 -64.922151 
L 85.79358 -51.970717 
L 190.036314 -64.922151 
L 251.014404 -85.78835 
L 294.279048 -91.064861 
L 327.837713 -97.620525 
L 355.257138 -104.256136 
L 378.439932 -122.164292 
L 398.521782 -125.522072 
L 416.235229 -127.360855 
L 432.080447 -128.480115 
L 446.41419 -131.518106 
L 459.499872 -132.877207 
L 471.537533 -132.877207 
L 482.682667 -137.833929 
L 493.058537 -139.592766 
L 502.764516 -139.672713 
L 511.881882 -139.672713 
L 520.477963 -139.672713 
L 528.609158 -140.31229 
L 536.323181 -141.271655 
L 543.660757 -142.550809 
L 550.656924 -142.550809 
L 557.342046 -143.030492 
L 563.742607 -143.270333 
L 569.881846 -144.229699 
L 575.780268 -144.309646 
L 581.456053 -145.189064 
L 586.925401 -145.189064 
L 592.202801 -145.189064 
L 597.301271 -147.427584 
L 602.232549 -147.747372 
L 607.00725 -147.747372 
L 611.635015 -148.307002 
L 616.124616 -148.307002 
L 620.484066 -148.466896 
L 624.720697 -148.466896 
L 628.841242 -148.466896 
L 632.851892 -148.466896 
L 636.758358 -148.466896 
L 640.565915 -148.546844 
L 644.279449 -148.546844 
L 647.903491 -148.546844 
L 651.442254 -148.546844 
L 654.899658 -148.786685 
L 658.279362 -148.786685 
L 661.58478 -148.786685 
L 664.819109 -148.786685 
L 667.985341 -149.026526 
L 671.086285 -149.026526 
L 674.12458 -149.106473 
L 677.102707 -149.106473 
L 680.023002 -161.018595 
L 682.887669 -161.098542 
L 685.698788 -161.098542 
L 688.458323 -161.258436 
L 691.168135 -161.258436 
L 693.829983 -161.258436 
L 696.445535 -161.418331 
L 699.016375 -161.578225 
L 701.544006 -161.578225 
L 704.029855 -161.578225 
L 706.475283 -161.578225 
L 708.881582 -161.578225 
L 711.249985 -161.818066 
L 713.581667 -161.818066 
L 715.877749 -161.818066 
L 718.139302 -161.818066 
L 720.36735 -161.818066 
L 722.562871 -161.818066 
L 724.7268 -161.898013 
L 726.860034 -162.297749 
L 728.963431 -162.617538 
L 731.037816 -162.617538 
L 733.083976 -162.617538 
L 735.10267 -162.617538 
L 735.10267 -217.861001 
L 735.10267 -217.861001 
L 733.083976 -217.861001 
L 731.037816 -217.861001 
L 728.963431 -217.621159 
L 726.860034 -215.062851 
L 724.7268 -215.062851 
L 722.562871 -215.062851 
L 720.36735 -215.062851 
L 718.139302 -215.062851 
L 715.877749 -215.062851 
L 713.581667 -215.062851 
L 711.249985 -214.902957 
L 708.881582 -210.266024 
L 706.475283 -209.5465 
L 704.029855 -196.19533 
L 701.544006 -182.604319 
L 699.016375 -182.604319 
L 696.445535 -182.524372 
L 693.829983 -182.524372 
L 691.168135 -181.884795 
L 688.458323 -181.884795 
L 685.698788 -181.884795 
L 682.887669 -181.485059 
L 680.023002 -181.405112 
L 677.102707 -181.405112 
L 674.12458 -181.405112 
L 671.086285 -181.325165 
L 667.985341 -181.16527 
L 664.819109 -181.16527 
L 661.58478 -181.16527 
L 658.279362 -181.16527 
L 654.899658 -178.527015 
L 651.442254 -178.527015 
L 647.903491 -176.608284 
L 644.279449 -176.368443 
L 640.565915 -176.368443 
L 636.758358 -176.288496 
L 632.851892 -176.208549 
L 628.841242 -176.208549 
L 624.720697 -176.208549 
L 620.484066 -176.208549 
L 616.124616 -176.048654 
L 611.635015 -175.88876 
L 607.00725 -175.88876 
L 602.232549 -175.88876 
L 597.301271 -175.489025 
L 592.202801 -175.169236 
L 586.925401 -174.929395 
L 581.456053 -174.849448 
L 575.780268 -174.7695 
L 569.881846 -174.369765 
L 563.742607 -174.209871 
L 557.342046 -171.811457 
L 550.656924 -170.692197 
L 543.660757 -170.292462 
L 536.323181 -168.613572 
L 528.609158 -167.254471 
L 520.477963 -164.77611 
L 511.881882 -162.297749 
L 502.764516 -158.140499 
L 493.058537 -158.140499 
L 482.682667 -156.861345 
L 471.537533 -152.5442 
L 459.499872 -148.307002 
L 446.41419 -146.068483 
L 432.080447 -143.90991 
L 416.235229 -141.751338 
L 398.521782 -139.912554 
L 378.439932 -135.435515 
L 355.257138 -126.321543 
L 327.837713 -121.924451 
L 294.279048 -106.574603 
L 251.014404 -100.018939 
L 190.036314 -75.23533 
L 85.79358 -64.922151 
z
" id="m6a88ad99be" style="stroke:#1f77b4;stroke-opacity:0.2;"/>
    </defs>
    <g clip-path="url(#pe179def6f6)">
     <use style="fill:#1f77b4;fill-opacity:0.2;stroke:#1f77b4;stroke-opacity:0.2;" x="0" xlink:href="#m6a88ad99be" y="325.986375"/>
    </g>
   </g>
   <g id="matplotlib.axis_1">
    <g id="xtick_1">
     <g id="line2d_1">
      <defs>
       <path d="M 0 0 
L 0 3.5 
" id="m2c7f6deacf" style="stroke:#000000;stroke-width:0.8;"/>
      </defs>
      <g>
       <use style="stroke:#000000;stroke-width:0.8;" x="85.79358" xlink:href="#m2c7f6deacf" y="288.430125"/>
      </g>
     </g>
     <g id="text_1">
      <!-- 14m -->
      <g transform="translate(74.560767 303.028562)scale(0.1 -0.1)">
       <defs>
        <path d="M 794 531 
L 1825 531 
L 1825 4091 
L 703 3866 
L 703 4441 
L 1819 4666 
L 2450 4666 
L 2450 531 
L 3481 531 
L 3481 0 
L 794 0 
L 794 531 
z
" id="DejaVuSans-31" transform="scale(0.015625)"/>
        <path d="M 2419 4116 
L 825 1625 
L 2419 1625 
L 2419 4116 
z
M 2253 4666 
L 3047 4666 
L 3047 1625 
L 3713 1625 
L 3713 1100 
L 3047 1100 
L 3047 0 
L 2419 0 
L 2419 1100 
L 313 1100 
L 313 1709 
L 2253 4666 
z
" id="DejaVuSans-34" transform="scale(0.015625)"/>
        <path d="M 3328 2828 
Q 3544 3216 3844 3400 
Q 4144 3584 4550 3584 
Q 5097 3584 5394 3201 
Q 5691 2819 5691 2113 
L 5691 0 
L 5113 0 
L 5113 2094 
Q 5113 2597 4934 2840 
Q 4756 3084 4391 3084 
Q 3944 3084 3684 2787 
Q 3425 2491 3425 1978 
L 3425 0 
L 2847 0 
L 2847 2094 
Q 2847 2600 2669 2842 
Q 2491 3084 2119 3084 
Q 1678 3084 1418 2786 
Q 1159 2488 1159 1978 
L 1159 0 
L 581 0 
L 581 3500 
L 1159 3500 
L 1159 2956 
Q 1356 3278 1631 3431 
Q 1906 3584 2284 3584 
Q 2666 3584 2933 3390 
Q 3200 3197 3328 2828 
z
" id="DejaVuSans-6d" transform="scale(0.015625)"/>
       </defs>
       <use xlink:href="#DejaVuSans-31"/>
       <use x="63.623047" xlink:href="#DejaVuSans-34"/>
       <use x="127.246094" xlink:href="#DejaVuSans-6d"/>
      </g>
     </g>
    </g>
    <g id="xtick_2">
     <g id="line2d_2">
      <g>
       <use style="stroke:#000000;stroke-width:0.8;" x="144.821881" xlink:href="#m2c7f6deacf" y="288.430125"/>
      </g>
     </g>
     <g id="text_2">
      <!-- 22m -->
      <g transform="translate(133.589069 303.028562)scale(0.1 -0.1)">
       <defs>
        <path d="M 1228 531 
L 3431 531 
L 3431 0 
L 469 0 
L 469 531 
Q 828 903 1448 1529 
Q 2069 2156 2228 2338 
Q 2531 2678 2651 2914 
Q 2772 3150 2772 3378 
Q 2772 3750 2511 3984 
Q 2250 4219 1831 4219 
Q 1534 4219 1204 4116 
Q 875 4013 500 3803 
L 500 4441 
Q 881 4594 1212 4672 
Q 1544 4750 1819 4750 
Q 2544 4750 2975 4387 
Q 3406 4025 3406 3419 
Q 3406 3131 3298 2873 
Q 3191 2616 2906 2266 
Q 2828 2175 2409 1742 
Q 1991 1309 1228 531 
z
" id="DejaVuSans-32" transform="scale(0.015625)"/>
       </defs>
       <use xlink:href="#DejaVuSans-32"/>
       <use x="63.623047" xlink:href="#DejaVuSans-32"/>
       <use x="127.246094" xlink:href="#DejaVuSans-6d"/>
      </g>
     </g>
    </g>
    <g id="xtick_3">
     <g id="line2d_3">
      <g>
       <use style="stroke:#000000;stroke-width:0.8;" x="203.850183" xlink:href="#m2c7f6deacf" y="288.430125"/>
      </g>
     </g>
     <g id="text_3">
      <!-- 32m -->
      <g transform="translate(192.61737 303.028562)scale(0.1 -0.1)">
       <defs>
        <path d="M 2597 2516 
Q 3050 2419 3304 2112 
Q 3559 1806 3559 1356 
Q 3559 666 3084 287 
Q 2609 -91 1734 -91 
Q 1441 -91 1130 -33 
Q 819 25 488 141 
L 488 750 
Q 750 597 1062 519 
Q 1375 441 1716 441 
Q 2309 441 2620 675 
Q 2931 909 2931 1356 
Q 2931 1769 2642 2001 
Q 2353 2234 1838 2234 
L 1294 2234 
L 1294 2753 
L 1863 2753 
Q 2328 2753 2575 2939 
Q 2822 3125 2822 3475 
Q 2822 3834 2567 4026 
Q 2313 4219 1838 4219 
Q 1578 4219 1281 4162 
Q 984 4106 628 3988 
L 628 4550 
Q 988 4650 1302 4700 
Q 1616 4750 1894 4750 
Q 2613 4750 3031 4423 
Q 3450 4097 3450 3541 
Q 3450 3153 3228 2886 
Q 3006 2619 2597 2516 
z
" id="DejaVuSans-33" transform="scale(0.015625)"/>
       </defs>
       <use xlink:href="#DejaVuSans-33"/>
       <use x="63.623047" xlink:href="#DejaVuSans-32"/>
       <use x="127.246094" xlink:href="#DejaVuSans-6d"/>
      </g>
     </g>
    </g>
    <g id="xtick_4">
     <g id="line2d_4">
      <g>
       <use style="stroke:#000000;stroke-width:0.8;" x="262.878485" xlink:href="#m2c7f6deacf" y="288.430125"/>
      </g>
     </g>
     <g id="text_4">
      <!-- 48m -->
      <g transform="translate(251.645672 303.028562)scale(0.1 -0.1)">
       <defs>
        <path d="M 2034 2216 
Q 1584 2216 1326 1975 
Q 1069 1734 1069 1313 
Q 1069 891 1326 650 
Q 1584 409 2034 409 
Q 2484 409 2743 651 
Q 3003 894 3003 1313 
Q 3003 1734 2745 1975 
Q 2488 2216 2034 2216 
z
M 1403 2484 
Q 997 2584 770 2862 
Q 544 3141 544 3541 
Q 544 4100 942 4425 
Q 1341 4750 2034 4750 
Q 2731 4750 3128 4425 
Q 3525 4100 3525 3541 
Q 3525 3141 3298 2862 
Q 3072 2584 2669 2484 
Q 3125 2378 3379 2068 
Q 3634 1759 3634 1313 
Q 3634 634 3220 271 
Q 2806 -91 2034 -91 
Q 1263 -91 848 271 
Q 434 634 434 1313 
Q 434 1759 690 2068 
Q 947 2378 1403 2484 
z
M 1172 3481 
Q 1172 3119 1398 2916 
Q 1625 2713 2034 2713 
Q 2441 2713 2670 2916 
Q 2900 3119 2900 3481 
Q 2900 3844 2670 4047 
Q 2441 4250 2034 4250 
Q 1625 4250 1398 4047 
Q 1172 3844 1172 3481 
z
" id="DejaVuSans-38" transform="scale(0.015625)"/>
       </defs>
       <use xlink:href="#DejaVuSans-34"/>
       <use x="63.623047" xlink:href="#DejaVuSans-38"/>
       <use x="127.246094" xlink:href="#DejaVuSans-6d"/>
      </g>
     </g>
    </g>
    <g id="xtick_5">
     <g id="line2d_5">
      <g>
       <use style="stroke:#000000;stroke-width:0.8;" x="321.906786" xlink:href="#m2c7f6deacf" y="288.430125"/>
      </g>
     </g>
     <g id="text_5">
      <!-- 1h:12m -->
      <g transform="translate(302.639599 303.028562)scale(0.1 -0.1)">
       <defs>
        <path d="M 3513 2113 
L 3513 0 
L 2938 0 
L 2938 2094 
Q 2938 2591 2744 2837 
Q 2550 3084 2163 3084 
Q 1697 3084 1428 2787 
Q 1159 2491 1159 1978 
L 1159 0 
L 581 0 
L 581 4863 
L 1159 4863 
L 1159 2956 
Q 1366 3272 1645 3428 
Q 1925 3584 2291 3584 
Q 2894 3584 3203 3211 
Q 3513 2838 3513 2113 
z
" id="DejaVuSans-68" transform="scale(0.015625)"/>
        <path d="M 750 794 
L 1409 794 
L 1409 0 
L 750 0 
L 750 794 
z
M 750 3309 
L 1409 3309 
L 1409 2516 
L 750 2516 
L 750 3309 
z
" id="DejaVuSans-3a" transform="scale(0.015625)"/>
       </defs>
       <use xlink:href="#DejaVuSans-31"/>
       <use x="63.623047" xlink:href="#DejaVuSans-68"/>
       <use x="127.001953" xlink:href="#DejaVuSans-3a"/>
       <use x="160.693359" xlink:href="#DejaVuSans-31"/>
       <use x="224.316406" xlink:href="#DejaVuSans-32"/>
       <use x="287.939453" xlink:href="#DejaVuSans-6d"/>
      </g>
     </g>
    </g>
    <g id="xtick_6">
     <g id="line2d_6">
      <g>
       <use style="stroke:#000000;stroke-width:0.8;" x="380.935088" xlink:href="#m2c7f6deacf" y="288.430125"/>
      </g>
     </g>
     <g id="text_6">
      <!-- 1h:46m -->
      <g transform="translate(361.667901 303.028562)scale(0.1 -0.1)">
       <defs>
        <path d="M 2113 2584 
Q 1688 2584 1439 2293 
Q 1191 2003 1191 1497 
Q 1191 994 1439 701 
Q 1688 409 2113 409 
Q 2538 409 2786 701 
Q 3034 994 3034 1497 
Q 3034 2003 2786 2293 
Q 2538 2584 2113 2584 
z
M 3366 4563 
L 3366 3988 
Q 3128 4100 2886 4159 
Q 2644 4219 2406 4219 
Q 1781 4219 1451 3797 
Q 1122 3375 1075 2522 
Q 1259 2794 1537 2939 
Q 1816 3084 2150 3084 
Q 2853 3084 3261 2657 
Q 3669 2231 3669 1497 
Q 3669 778 3244 343 
Q 2819 -91 2113 -91 
Q 1303 -91 875 529 
Q 447 1150 447 2328 
Q 447 3434 972 4092 
Q 1497 4750 2381 4750 
Q 2619 4750 2861 4703 
Q 3103 4656 3366 4563 
z
" id="DejaVuSans-36" transform="scale(0.015625)"/>
       </defs>
       <use xlink:href="#DejaVuSans-31"/>
       <use x="63.623047" xlink:href="#DejaVuSans-68"/>
       <use x="127.001953" xlink:href="#DejaVuSans-3a"/>
       <use x="160.693359" xlink:href="#DejaVuSans-34"/>
       <use x="224.316406" xlink:href="#DejaVuSans-36"/>
       <use x="287.939453" xlink:href="#DejaVuSans-6d"/>
      </g>
     </g>
    </g>
    <g id="xtick_7">
     <g id="line2d_7">
      <g>
       <use style="stroke:#000000;stroke-width:0.8;" x="439.96339" xlink:href="#m2c7f6deacf" y="288.430125"/>
      </g>
     </g>
     <g id="text_7">
      <!-- 2h:38m -->
      <g transform="translate(420.696202 303.028562)scale(0.1 -0.1)">
       <use xlink:href="#DejaVuSans-32"/>
       <use x="63.623047" xlink:href="#DejaVuSans-68"/>
       <use x="127.001953" xlink:href="#DejaVuSans-3a"/>
       <use x="160.693359" xlink:href="#DejaVuSans-33"/>
       <use x="224.316406" xlink:href="#DejaVuSans-38"/>
       <use x="287.939453" xlink:href="#DejaVuSans-6d"/>
      </g>
     </g>
    </g>
    <g id="xtick_8">
     <g id="line2d_8">
      <g>
       <use style="stroke:#000000;stroke-width:0.8;" x="498.991692" xlink:href="#m2c7f6deacf" y="288.430125"/>
      </g>
     </g>
     <g id="text_8">
      <!-- 3h:54m -->
      <g transform="translate(479.724504 303.028562)scale(0.1 -0.1)">
       <defs>
        <path d="M 691 4666 
L 3169 4666 
L 3169 4134 
L 1269 4134 
L 1269 2991 
Q 1406 3038 1543 3061 
Q 1681 3084 1819 3084 
Q 2600 3084 3056 2656 
Q 3513 2228 3513 1497 
Q 3513 744 3044 326 
Q 2575 -91 1722 -91 
Q 1428 -91 1123 -41 
Q 819 9 494 109 
L 494 744 
Q 775 591 1075 516 
Q 1375 441 1709 441 
Q 2250 441 2565 725 
Q 2881 1009 2881 1497 
Q 2881 1984 2565 2268 
Q 2250 2553 1709 2553 
Q 1456 2553 1204 2497 
Q 953 2441 691 2322 
L 691 4666 
z
" id="DejaVuSans-35" transform="scale(0.015625)"/>
       </defs>
       <use xlink:href="#DejaVuSans-33"/>
       <use x="63.623047" xlink:href="#DejaVuSans-68"/>
       <use x="127.001953" xlink:href="#DejaVuSans-3a"/>
       <use x="160.693359" xlink:href="#DejaVuSans-35"/>
       <use x="224.316406" xlink:href="#DejaVuSans-34"/>
       <use x="287.939453" xlink:href="#DejaVuSans-6d"/>
      </g>
     </g>
    </g>
    <g id="xtick_9">
     <g id="line2d_9">
      <g>
       <use style="stroke:#000000;stroke-width:0.8;" x="558.019993" xlink:href="#m2c7f6deacf" y="288.430125"/>
      </g>
     </g>
     <g id="text_9">
      <!-- 5h:46m -->
      <g transform="translate(538.752806 303.028562)scale(0.1 -0.1)">
       <use xlink:href="#DejaVuSans-35"/>
       <use x="63.623047" xlink:href="#DejaVuSans-68"/>
       <use x="127.001953" xlink:href="#DejaVuSans-3a"/>
       <use x="160.693359" xlink:href="#DejaVuSans-34"/>
       <use x="224.316406" xlink:href="#DejaVuSans-36"/>
       <use x="287.939453" xlink:href="#DejaVuSans-6d"/>
      </g>
     </g>
    </g>
    <g id="xtick_10">
     <g id="line2d_10">
      <g>
       <use style="stroke:#000000;stroke-width:0.8;" x="617.048295" xlink:href="#m2c7f6deacf" y="288.430125"/>
      </g>
     </g>
     <g id="text_10">
      <!-- 8h:33m -->
      <g transform="translate(597.781108 303.028562)scale(0.1 -0.1)">
       <use xlink:href="#DejaVuSans-38"/>
       <use x="63.623047" xlink:href="#DejaVuSans-68"/>
       <use x="127.001953" xlink:href="#DejaVuSans-3a"/>
       <use x="160.693359" xlink:href="#DejaVuSans-33"/>
       <use x="224.316406" xlink:href="#DejaVuSans-33"/>
       <use x="287.939453" xlink:href="#DejaVuSans-6d"/>
      </g>
     </g>
    </g>
    <g id="xtick_11">
     <g id="line2d_11">
      <g>
       <use style="stroke:#000000;stroke-width:0.8;" x="676.076597" xlink:href="#m2c7f6deacf" y="288.430125"/>
      </g>
     </g>
     <g id="text_11">
      <!-- 12h:39m -->
      <g transform="translate(653.628159 303.028562)scale(0.1 -0.1)">
       <defs>
        <path d="M 703 97 
L 703 672 
Q 941 559 1184 500 
Q 1428 441 1663 441 
Q 2288 441 2617 861 
Q 2947 1281 2994 2138 
Q 2813 1869 2534 1725 
Q 2256 1581 1919 1581 
Q 1219 1581 811 2004 
Q 403 2428 403 3163 
Q 403 3881 828 4315 
Q 1253 4750 1959 4750 
Q 2769 4750 3195 4129 
Q 3622 3509 3622 2328 
Q 3622 1225 3098 567 
Q 2575 -91 1691 -91 
Q 1453 -91 1209 -44 
Q 966 3 703 97 
z
M 1959 2075 
Q 2384 2075 2632 2365 
Q 2881 2656 2881 3163 
Q 2881 3666 2632 3958 
Q 2384 4250 1959 4250 
Q 1534 4250 1286 3958 
Q 1038 3666 1038 3163 
Q 1038 2656 1286 2365 
Q 1534 2075 1959 2075 
z
" id="DejaVuSans-39" transform="scale(0.015625)"/>
       </defs>
       <use xlink:href="#DejaVuSans-31"/>
       <use x="63.623047" xlink:href="#DejaVuSans-32"/>
       <use x="127.246094" xlink:href="#DejaVuSans-68"/>
       <use x="190.625" xlink:href="#DejaVuSans-3a"/>
       <use x="224.316406" xlink:href="#DejaVuSans-33"/>
       <use x="287.939453" xlink:href="#DejaVuSans-39"/>
       <use x="351.5625" xlink:href="#DejaVuSans-6d"/>
      </g>
     </g>
    </g>
    <g id="xtick_12">
     <g id="line2d_12">
      <g>
       <use style="stroke:#000000;stroke-width:0.8;" x="735.104898" xlink:href="#m2c7f6deacf" y="288.430125"/>
      </g>
     </g>
     <g id="text_12">
      <!-- 18h:45m -->
      <g transform="translate(712.656461 303.028562)scale(0.1 -0.1)">
       <use xlink:href="#DejaVuSans-31"/>
       <use x="63.623047" xlink:href="#DejaVuSans-38"/>
       <use x="127.246094" xlink:href="#DejaVuSans-68"/>
       <use x="190.625" xlink:href="#DejaVuSans-3a"/>
       <use x="224.316406" xlink:href="#DejaVuSans-34"/>
       <use x="287.939453" xlink:href="#DejaVuSans-35"/>
       <use x="351.5625" xlink:href="#DejaVuSans-6d"/>
      </g>
     </g>
    </g>
    <g id="xtick_13">
     <g id="line2d_13">
      <defs>
       <path d="M 0 0 
L 0 2 
" id="ma97c018bf1" style="stroke:#000000;stroke-width:0.6;"/>
      </defs>
      <g>
       <use style="stroke:#000000;stroke-width:0.6;" x="68.080133" xlink:href="#ma97c018bf1" y="288.430125"/>
      </g>
     </g>
    </g>
    <g id="xtick_14">
     <g id="line2d_14">
      <g>
       <use style="stroke:#000000;stroke-width:0.6;" x="205.881532" xlink:href="#ma97c018bf1" y="288.430125"/>
      </g>
     </g>
    </g>
    <g id="xtick_15">
     <g id="line2d_15">
      <g>
       <use style="stroke:#000000;stroke-width:0.6;" x="266.859622" xlink:href="#ma97c018bf1" y="288.430125"/>
      </g>
     </g>
    </g>
    <g id="xtick_16">
     <g id="line2d_16">
      <g>
       <use style="stroke:#000000;stroke-width:0.6;" x="310.124266" xlink:href="#ma97c018bf1" y="288.430125"/>
      </g>
     </g>
    </g>
    <g id="xtick_17">
     <g id="line2d_17">
      <g>
       <use style="stroke:#000000;stroke-width:0.6;" x="343.682931" xlink:href="#ma97c018bf1" y="288.430125"/>
      </g>
     </g>
    </g>
    <g id="xtick_18">
     <g id="line2d_18">
      <g>
       <use style="stroke:#000000;stroke-width:0.6;" x="371.102356" xlink:href="#ma97c018bf1" y="288.430125"/>
      </g>
     </g>
    </g>
    <g id="xtick_19">
     <g id="line2d_19">
      <g>
       <use style="stroke:#000000;stroke-width:0.6;" x="394.28515" xlink:href="#ma97c018bf1" y="288.430125"/>
      </g>
     </g>
    </g>
    <g id="xtick_20">
     <g id="line2d_20">
      <g>
       <use style="stroke:#000000;stroke-width:0.6;" x="414.367" xlink:href="#ma97c018bf1" y="288.430125"/>
      </g>
     </g>
    </g>
    <g id="xtick_21">
     <g id="line2d_21">
      <g>
       <use style="stroke:#000000;stroke-width:0.6;" x="432.080447" xlink:href="#ma97c018bf1" y="288.430125"/>
      </g>
     </g>
    </g>
    <g id="xtick_22">
     <g id="line2d_22">
      <g>
       <use style="stroke:#000000;stroke-width:0.6;" x="552.168399" xlink:href="#ma97c018bf1" y="288.430125"/>
      </g>
     </g>
    </g>
    <g id="xtick_23">
     <g id="line2d_23">
      <g>
       <use style="stroke:#000000;stroke-width:0.6;" x="613.14649" xlink:href="#ma97c018bf1" y="288.430125"/>
      </g>
     </g>
    </g>
    <g id="xtick_24">
     <g id="line2d_24">
      <g>
       <use style="stroke:#000000;stroke-width:0.6;" x="656.411133" xlink:href="#ma97c018bf1" y="288.430125"/>
      </g>
     </g>
    </g>
    <g id="xtick_25">
     <g id="line2d_25">
      <g>
       <use style="stroke:#000000;stroke-width:0.6;" x="689.969798" xlink:href="#ma97c018bf1" y="288.430125"/>
      </g>
     </g>
    </g>
    <g id="xtick_26">
     <g id="line2d_26">
      <g>
       <use style="stroke:#000000;stroke-width:0.6;" x="717.389224" xlink:href="#ma97c018bf1" y="288.430125"/>
      </g>
     </g>
    </g>
    <g id="xtick_27">
     <g id="line2d_27">
      <g>
       <use style="stroke:#000000;stroke-width:0.6;" x="740.572018" xlink:href="#ma97c018bf1" y="288.430125"/>
      </g>
     </g>
    </g>
    <g id="xtick_28">
     <g id="line2d_28">
      <g>
       <use style="stroke:#000000;stroke-width:0.6;" x="760.653867" xlink:href="#ma97c018bf1" y="288.430125"/>
      </g>
     </g>
    </g>
    <g id="text_13">
     <!-- Time (hour:minute) -->
     <g transform="translate(362.041094 316.706687)scale(0.1 -0.1)">
      <defs>
       <path d="M -19 4666 
L 3928 4666 
L 3928 4134 
L 2272 4134 
L 2272 0 
L 1638 0 
L 1638 4134 
L -19 4134 
L -19 4666 
z
" id="DejaVuSans-54" transform="scale(0.015625)"/>
       <path d="M 603 3500 
L 1178 3500 
L 1178 0 
L 603 0 
L 603 3500 
z
M 603 4863 
L 1178 4863 
L 1178 4134 
L 603 4134 
L 603 4863 
z
" id="DejaVuSans-69" transform="scale(0.015625)"/>
       <path d="M 3597 1894 
L 3597 1613 
L 953 1613 
Q 991 1019 1311 708 
Q 1631 397 2203 397 
Q 2534 397 2845 478 
Q 3156 559 3463 722 
L 3463 178 
Q 3153 47 2828 -22 
Q 2503 -91 2169 -91 
Q 1331 -91 842 396 
Q 353 884 353 1716 
Q 353 2575 817 3079 
Q 1281 3584 2069 3584 
Q 2775 3584 3186 3129 
Q 3597 2675 3597 1894 
z
M 3022 2063 
Q 3016 2534 2758 2815 
Q 2500 3097 2075 3097 
Q 1594 3097 1305 2825 
Q 1016 2553 972 2059 
L 3022 2063 
z
" id="DejaVuSans-65" transform="scale(0.015625)"/>
       <path id="DejaVuSans-20" transform="scale(0.015625)"/>
       <path d="M 1984 4856 
Q 1566 4138 1362 3434 
Q 1159 2731 1159 2009 
Q 1159 1288 1364 580 
Q 1569 -128 1984 -844 
L 1484 -844 
Q 1016 -109 783 600 
Q 550 1309 550 2009 
Q 550 2706 781 3412 
Q 1013 4119 1484 4856 
L 1984 4856 
z
" id="DejaVuSans-28" transform="scale(0.015625)"/>
       <path d="M 1959 3097 
Q 1497 3097 1228 2736 
Q 959 2375 959 1747 
Q 959 1119 1226 758 
Q 1494 397 1959 397 
Q 2419 397 2687 759 
Q 2956 1122 2956 1747 
Q 2956 2369 2687 2733 
Q 2419 3097 1959 3097 
z
M 1959 3584 
Q 2709 3584 3137 3096 
Q 3566 2609 3566 1747 
Q 3566 888 3137 398 
Q 2709 -91 1959 -91 
Q 1206 -91 779 398 
Q 353 888 353 1747 
Q 353 2609 779 3096 
Q 1206 3584 1959 3584 
z
" id="DejaVuSans-6f" transform="scale(0.015625)"/>
       <path d="M 544 1381 
L 544 3500 
L 1119 3500 
L 1119 1403 
Q 1119 906 1312 657 
Q 1506 409 1894 409 
Q 2359 409 2629 706 
Q 2900 1003 2900 1516 
L 2900 3500 
L 3475 3500 
L 3475 0 
L 2900 0 
L 2900 538 
Q 2691 219 2414 64 
Q 2138 -91 1772 -91 
Q 1169 -91 856 284 
Q 544 659 544 1381 
z
M 1991 3584 
L 1991 3584 
z
" id="DejaVuSans-75" transform="scale(0.015625)"/>
       <path d="M 2631 2963 
Q 2534 3019 2420 3045 
Q 2306 3072 2169 3072 
Q 1681 3072 1420 2755 
Q 1159 2438 1159 1844 
L 1159 0 
L 581 0 
L 581 3500 
L 1159 3500 
L 1159 2956 
Q 1341 3275 1631 3429 
Q 1922 3584 2338 3584 
Q 2397 3584 2469 3576 
Q 2541 3569 2628 3553 
L 2631 2963 
z
" id="DejaVuSans-72" transform="scale(0.015625)"/>
       <path d="M 3513 2113 
L 3513 0 
L 2938 0 
L 2938 2094 
Q 2938 2591 2744 2837 
Q 2550 3084 2163 3084 
Q 1697 3084 1428 2787 
Q 1159 2491 1159 1978 
L 1159 0 
L 581 0 
L 581 3500 
L 1159 3500 
L 1159 2956 
Q 1366 3272 1645 3428 
Q 1925 3584 2291 3584 
Q 2894 3584 3203 3211 
Q 3513 2838 3513 2113 
z
" id="DejaVuSans-6e" transform="scale(0.015625)"/>
       <path d="M 1172 4494 
L 1172 3500 
L 2356 3500 
L 2356 3053 
L 1172 3053 
L 1172 1153 
Q 1172 725 1289 603 
Q 1406 481 1766 481 
L 2356 481 
L 2356 0 
L 1766 0 
Q 1100 0 847 248 
Q 594 497 594 1153 
L 594 3053 
L 172 3053 
L 172 3500 
L 594 3500 
L 594 4494 
L 1172 4494 
z
" id="DejaVuSans-74" transform="scale(0.015625)"/>
       <path d="M 513 4856 
L 1013 4856 
Q 1481 4119 1714 3412 
Q 1947 2706 1947 2009 
Q 1947 1309 1714 600 
Q 1481 -109 1013 -844 
L 513 -844 
Q 928 -128 1133 580 
Q 1338 1288 1338 2009 
Q 1338 2731 1133 3434 
Q 928 4138 513 4856 
z
" id="DejaVuSans-29" transform="scale(0.015625)"/>
      </defs>
      <use xlink:href="#DejaVuSans-54"/>
      <use x="57.958984" xlink:href="#DejaVuSans-69"/>
      <use x="85.742188" xlink:href="#DejaVuSans-6d"/>
      <use x="183.154297" xlink:href="#DejaVuSans-65"/>
      <use x="244.677734" xlink:href="#DejaVuSans-20"/>
      <use x="276.464844" xlink:href="#DejaVuSans-28"/>
      <use x="315.478516" xlink:href="#DejaVuSans-68"/>
      <use x="378.857422" xlink:href="#DejaVuSans-6f"/>
      <use x="440.039062" xlink:href="#DejaVuSans-75"/>
      <use x="503.417969" xlink:href="#DejaVuSans-72"/>
      <use x="542.78125" xlink:href="#DejaVuSans-3a"/>
      <use x="576.472656" xlink:href="#DejaVuSans-6d"/>
      <use x="673.884766" xlink:href="#DejaVuSans-69"/>
      <use x="701.667969" xlink:href="#DejaVuSans-6e"/>
      <use x="765.046875" xlink:href="#DejaVuSans-75"/>
      <use x="828.425781" xlink:href="#DejaVuSans-74"/>
      <use x="867.634766" xlink:href="#DejaVuSans-65"/>
      <use x="929.158203" xlink:href="#DejaVuSans-29"/>
     </g>
    </g>
   </g>
   <g id="matplotlib.axis_2">
    <g id="ytick_1">
     <g id="line2d_29">
      <defs>
       <path d="M 0 0 
L -3.5 0 
" id="m66ed16c779" style="stroke:#000000;stroke-width:0.8;"/>
      </defs>
      <g>
       <use style="stroke:#000000;stroke-width:0.8;" x="53.328125" xlink:href="#m66ed16c779" y="264.901686"/>
      </g>
     </g>
     <g id="text_14">
      <!-- 6000 -->
      <g transform="translate(20.878125 268.700905)scale(0.1 -0.1)">
       <defs>
        <path d="M 2034 4250 
Q 1547 4250 1301 3770 
Q 1056 3291 1056 2328 
Q 1056 1369 1301 889 
Q 1547 409 2034 409 
Q 2525 409 2770 889 
Q 3016 1369 3016 2328 
Q 3016 3291 2770 3770 
Q 2525 4250 2034 4250 
z
M 2034 4750 
Q 2819 4750 3233 4129 
Q 3647 3509 3647 2328 
Q 3647 1150 3233 529 
Q 2819 -91 2034 -91 
Q 1250 -91 836 529 
Q 422 1150 422 2328 
Q 422 3509 836 4129 
Q 1250 4750 2034 4750 
z
" id="DejaVuSans-30" transform="scale(0.015625)"/>
       </defs>
       <use xlink:href="#DejaVuSans-36"/>
       <use x="63.623047" xlink:href="#DejaVuSans-30"/>
       <use x="127.246094" xlink:href="#DejaVuSans-30"/>
       <use x="190.869141" xlink:href="#DejaVuSans-30"/>
      </g>
     </g>
    </g>
    <g id="ytick_2">
     <g id="line2d_30">
      <g>
       <use style="stroke:#000000;stroke-width:0.8;" x="53.328125" xlink:href="#m66ed16c779" y="224.928124"/>
      </g>
     </g>
     <g id="text_15">
      <!-- 6500 -->
      <g transform="translate(20.878125 228.727342)scale(0.1 -0.1)">
       <use xlink:href="#DejaVuSans-36"/>
       <use x="63.623047" xlink:href="#DejaVuSans-35"/>
       <use x="127.246094" xlink:href="#DejaVuSans-30"/>
       <use x="190.869141" xlink:href="#DejaVuSans-30"/>
      </g>
     </g>
    </g>
    <g id="ytick_3">
     <g id="line2d_31">
      <g>
       <use style="stroke:#000000;stroke-width:0.8;" x="53.328125" xlink:href="#m66ed16c779" y="184.954561"/>
      </g>
     </g>
     <g id="text_16">
      <!-- 7000 -->
      <g transform="translate(20.878125 188.75378)scale(0.1 -0.1)">
       <defs>
        <path d="M 525 4666 
L 3525 4666 
L 3525 4397 
L 1831 0 
L 1172 0 
L 2766 4134 
L 525 4134 
L 525 4666 
z
" id="DejaVuSans-37" transform="scale(0.015625)"/>
       </defs>
       <use xlink:href="#DejaVuSans-37"/>
       <use x="63.623047" xlink:href="#DejaVuSans-30"/>
       <use x="127.246094" xlink:href="#DejaVuSans-30"/>
       <use x="190.869141" xlink:href="#DejaVuSans-30"/>
      </g>
     </g>
    </g>
    <g id="ytick_4">
     <g id="line2d_32">
      <g>
       <use style="stroke:#000000;stroke-width:0.8;" x="53.328125" xlink:href="#m66ed16c779" y="144.980999"/>
      </g>
     </g>
     <g id="text_17">
      <!-- 7500 -->
      <g transform="translate(20.878125 148.780218)scale(0.1 -0.1)">
       <use xlink:href="#DejaVuSans-37"/>
       <use x="63.623047" xlink:href="#DejaVuSans-35"/>
       <use x="127.246094" xlink:href="#DejaVuSans-30"/>
       <use x="190.869141" xlink:href="#DejaVuSans-30"/>
      </g>
     </g>
    </g>
    <g id="ytick_5">
     <g id="line2d_33">
      <g>
       <use style="stroke:#000000;stroke-width:0.8;" x="53.328125" xlink:href="#m66ed16c779" y="105.007436"/>
      </g>
     </g>
     <g id="text_18">
      <!-- 8000 -->
      <g transform="translate(20.878125 108.806655)scale(0.1 -0.1)">
       <use xlink:href="#DejaVuSans-38"/>
       <use x="63.623047" xlink:href="#DejaVuSans-30"/>
       <use x="127.246094" xlink:href="#DejaVuSans-30"/>
       <use x="190.869141" xlink:href="#DejaVuSans-30"/>
      </g>
     </g>
    </g>
    <g id="ytick_6">
     <g id="line2d_34">
      <g>
       <use style="stroke:#000000;stroke-width:0.8;" x="53.328125" xlink:href="#m66ed16c779" y="65.033874"/>
      </g>
     </g>
     <g id="text_19">
      <!-- 8500 -->
      <g transform="translate(20.878125 68.833093)scale(0.1 -0.1)">
       <use xlink:href="#DejaVuSans-38"/>
       <use x="63.623047" xlink:href="#DejaVuSans-35"/>
       <use x="127.246094" xlink:href="#DejaVuSans-30"/>
       <use x="190.869141" xlink:href="#DejaVuSans-30"/>
      </g>
     </g>
    </g>
    <g id="ytick_7">
     <g id="line2d_35">
      <g>
       <use style="stroke:#000000;stroke-width:0.8;" x="53.328125" xlink:href="#m66ed16c779" y="25.060311"/>
      </g>
     </g>
     <g id="text_20">
      <!-- 9000 -->
      <g transform="translate(20.878125 28.85953)scale(0.1 -0.1)">
       <use xlink:href="#DejaVuSans-39"/>
       <use x="63.623047" xlink:href="#DejaVuSans-30"/>
       <use x="127.246094" xlink:href="#DejaVuSans-30"/>
       <use x="190.869141" xlink:href="#DejaVuSans-30"/>
      </g>
     </g>
    </g>
    <g id="text_21">
     <!-- Code region coverage -->
     <g transform="translate(14.798438 210.379594)rotate(-90)scale(0.1 -0.1)">
      <defs>
       <path d="M 4122 4306 
L 4122 3641 
Q 3803 3938 3442 4084 
Q 3081 4231 2675 4231 
Q 1875 4231 1450 3742 
Q 1025 3253 1025 2328 
Q 1025 1406 1450 917 
Q 1875 428 2675 428 
Q 3081 428 3442 575 
Q 3803 722 4122 1019 
L 4122 359 
Q 3791 134 3420 21 
Q 3050 -91 2638 -91 
Q 1578 -91 968 557 
Q 359 1206 359 2328 
Q 359 3453 968 4101 
Q 1578 4750 2638 4750 
Q 3056 4750 3426 4639 
Q 3797 4528 4122 4306 
z
" id="DejaVuSans-43" transform="scale(0.015625)"/>
       <path d="M 2906 2969 
L 2906 4863 
L 3481 4863 
L 3481 0 
L 2906 0 
L 2906 525 
Q 2725 213 2448 61 
Q 2172 -91 1784 -91 
Q 1150 -91 751 415 
Q 353 922 353 1747 
Q 353 2572 751 3078 
Q 1150 3584 1784 3584 
Q 2172 3584 2448 3432 
Q 2725 3281 2906 2969 
z
M 947 1747 
Q 947 1113 1208 752 
Q 1469 391 1925 391 
Q 2381 391 2643 752 
Q 2906 1113 2906 1747 
Q 2906 2381 2643 2742 
Q 2381 3103 1925 3103 
Q 1469 3103 1208 2742 
Q 947 2381 947 1747 
z
" id="DejaVuSans-64" transform="scale(0.015625)"/>
       <path d="M 2906 1791 
Q 2906 2416 2648 2759 
Q 2391 3103 1925 3103 
Q 1463 3103 1205 2759 
Q 947 2416 947 1791 
Q 947 1169 1205 825 
Q 1463 481 1925 481 
Q 2391 481 2648 825 
Q 2906 1169 2906 1791 
z
M 3481 434 
Q 3481 -459 3084 -895 
Q 2688 -1331 1869 -1331 
Q 1566 -1331 1297 -1286 
Q 1028 -1241 775 -1147 
L 775 -588 
Q 1028 -725 1275 -790 
Q 1522 -856 1778 -856 
Q 2344 -856 2625 -561 
Q 2906 -266 2906 331 
L 2906 616 
Q 2728 306 2450 153 
Q 2172 0 1784 0 
Q 1141 0 747 490 
Q 353 981 353 1791 
Q 353 2603 747 3093 
Q 1141 3584 1784 3584 
Q 2172 3584 2450 3431 
Q 2728 3278 2906 2969 
L 2906 3500 
L 3481 3500 
L 3481 434 
z
" id="DejaVuSans-67" transform="scale(0.015625)"/>
       <path d="M 3122 3366 
L 3122 2828 
Q 2878 2963 2633 3030 
Q 2388 3097 2138 3097 
Q 1578 3097 1268 2742 
Q 959 2388 959 1747 
Q 959 1106 1268 751 
Q 1578 397 2138 397 
Q 2388 397 2633 464 
Q 2878 531 3122 666 
L 3122 134 
Q 2881 22 2623 -34 
Q 2366 -91 2075 -91 
Q 1284 -91 818 406 
Q 353 903 353 1747 
Q 353 2603 823 3093 
Q 1294 3584 2113 3584 
Q 2378 3584 2631 3529 
Q 2884 3475 3122 3366 
z
" id="DejaVuSans-63" transform="scale(0.015625)"/>
       <path d="M 191 3500 
L 800 3500 
L 1894 563 
L 2988 3500 
L 3597 3500 
L 2284 0 
L 1503 0 
L 191 3500 
z
" id="DejaVuSans-76" transform="scale(0.015625)"/>
       <path d="M 2194 1759 
Q 1497 1759 1228 1600 
Q 959 1441 959 1056 
Q 959 750 1161 570 
Q 1363 391 1709 391 
Q 2188 391 2477 730 
Q 2766 1069 2766 1631 
L 2766 1759 
L 2194 1759 
z
M 3341 1997 
L 3341 0 
L 2766 0 
L 2766 531 
Q 2569 213 2275 61 
Q 1981 -91 1556 -91 
Q 1019 -91 701 211 
Q 384 513 384 1019 
Q 384 1609 779 1909 
Q 1175 2209 1959 2209 
L 2766 2209 
L 2766 2266 
Q 2766 2663 2505 2880 
Q 2244 3097 1772 3097 
Q 1472 3097 1187 3025 
Q 903 2953 641 2809 
L 641 3341 
Q 956 3463 1253 3523 
Q 1550 3584 1831 3584 
Q 2591 3584 2966 3190 
Q 3341 2797 3341 1997 
z
" id="DejaVuSans-61" transform="scale(0.015625)"/>
      </defs>
      <use xlink:href="#DejaVuSans-43"/>
      <use x="69.824219" xlink:href="#DejaVuSans-6f"/>
      <use x="131.005859" xlink:href="#DejaVuSans-64"/>
      <use x="194.482422" xlink:href="#DejaVuSans-65"/>
      <use x="256.005859" xlink:href="#DejaVuSans-20"/>
      <use x="287.792969" xlink:href="#DejaVuSans-72"/>
      <use x="326.65625" xlink:href="#DejaVuSans-65"/>
      <use x="388.179688" xlink:href="#DejaVuSans-67"/>
      <use x="451.65625" xlink:href="#DejaVuSans-69"/>
      <use x="479.439453" xlink:href="#DejaVuSans-6f"/>
      <use x="540.621094" xlink:href="#DejaVuSans-6e"/>
      <use x="604" xlink:href="#DejaVuSans-20"/>
      <use x="635.787109" xlink:href="#DejaVuSans-63"/>
      <use x="690.767578" xlink:href="#DejaVuSans-6f"/>
      <use x="751.949219" xlink:href="#DejaVuSans-76"/>
      <use x="811.128906" xlink:href="#DejaVuSans-65"/>
      <use x="872.652344" xlink:href="#DejaVuSans-72"/>
      <use x="913.765625" xlink:href="#DejaVuSans-61"/>
      <use x="975.044922" xlink:href="#DejaVuSans-67"/>
      <use x="1038.521484" xlink:href="#DejaVuSans-65"/>
     </g>
    </g>
   </g>
   <g id="line2d_36">
    <path clip-path="url(#pe179def6f6)" d="M 85.79358 268.659201 
L 190.036314 234.122043 
L 251.014404 220.930767 
L 294.279048 215.814151 
L 327.837713 210.217853 
L 355.257138 195.26774 
L 378.439932 188.072499 
L 398.521782 184.794667 
L 416.235229 184.235037 
L 432.080447 183.515513 
L 446.41419 182.316306 
L 459.499872 179.118421 
L 471.537533 176.879902 
L 482.682667 176.879902 
L 493.058537 171.92318 
L 502.764516 170.644026 
L 511.881882 160.810529 
L 520.477963 160.810529 
L 528.609158 160.410794 
L 536.323181 158.731904 
L 543.660757 155.294178 
L 550.656924 153.775183 
L 557.342046 140.743801 
L 563.742607 135.867027 
L 569.881846 115.400563 
L 575.780268 114.760986 
L 581.456053 114.441197 
L 586.925401 113.561779 
L 592.202801 113.401884 
L 597.301271 113.321937 
L 602.232549 112.762307 
L 607.00725 112.362572 
L 611.635015 112.362572 
L 616.124616 111.563101 
L 620.484066 111.563101 
L 624.720697 111.003471 
L 628.841242 110.124052 
L 632.851892 109.64437 
L 636.758358 109.64437 
L 640.565915 109.404528 
L 644.279449 108.685004 
L 647.903491 108.445163 
L 651.442254 108.365216 
L 654.899658 108.365216 
L 658.279362 108.285268 
L 661.58478 107.96548 
L 664.819109 107.805586 
L 667.985341 107.805586 
L 671.086285 107.805586 
L 674.12458 107.805586 
L 677.102707 107.805586 
L 680.023002 107.325903 
L 682.887669 107.325903 
L 685.698788 107.086062 
L 688.458323 107.086062 
L 691.168135 106.926167 
L 693.829983 105.087383 
L 696.445535 104.287912 
L 699.016375 102.68897 
L 701.544006 102.68897 
L 704.029855 102.289234 
L 706.475283 102.289234 
L 708.881582 102.289234 
L 711.249985 102.289234 
L 713.581667 102.289234 
L 715.877749 100.290556 
L 718.139302 98.771561 
L 720.36735 98.691613 
L 722.562871 98.691613 
L 724.7268 98.691613 
L 726.860034 98.691613 
L 728.963431 98.691613 
L 731.037816 97.892142 
L 733.083976 97.732248 
L 735.10267 97.732248 
" style="fill:none;stroke:#98df8a;stroke-linecap:square;stroke-width:1.5;"/>
    <defs>
     <path d="M -0 3 
L 3 -3 
L -3 -3 
z
" id="m9540e55922" style="stroke:#ffffff;stroke-linejoin:miter;stroke-width:0.75;"/>
    </defs>
    <g clip-path="url(#pe179def6f6)">
     <use style="fill:#98df8a;stroke:#ffffff;stroke-linejoin:miter;stroke-width:0.75;" x="85.79358" xlink:href="#m9540e55922" y="268.659201"/>
     <use style="fill:#98df8a;stroke:#ffffff;stroke-linejoin:miter;stroke-width:0.75;" x="190.036314" xlink:href="#m9540e55922" y="234.122043"/>
     <use style="fill:#98df8a;stroke:#ffffff;stroke-linejoin:miter;stroke-width:0.75;" x="251.014404" xlink:href="#m9540e55922" y="220.930767"/>
     <use style="fill:#98df8a;stroke:#ffffff;stroke-linejoin:miter;stroke-width:0.75;" x="294.279048" xlink:href="#m9540e55922" y="215.814151"/>
     <use style="fill:#98df8a;stroke:#ffffff;stroke-linejoin:miter;stroke-width:0.75;" x="327.837713" xlink:href="#m9540e55922" y="210.217853"/>
     <use style="fill:#98df8a;stroke:#ffffff;stroke-linejoin:miter;stroke-width:0.75;" x="355.257138" xlink:href="#m9540e55922" y="195.26774"/>
     <use style="fill:#98df8a;stroke:#ffffff;stroke-linejoin:miter;stroke-width:0.75;" x="378.439932" xlink:href="#m9540e55922" y="188.072499"/>
     <use style="fill:#98df8a;stroke:#ffffff;stroke-linejoin:miter;stroke-width:0.75;" x="398.521782" xlink:href="#m9540e55922" y="184.794667"/>
     <use style="fill:#98df8a;stroke:#ffffff;stroke-linejoin:miter;stroke-width:0.75;" x="416.235229" xlink:href="#m9540e55922" y="184.235037"/>
     <use style="fill:#98df8a;stroke:#ffffff;stroke-linejoin:miter;stroke-width:0.75;" x="432.080447" xlink:href="#m9540e55922" y="183.515513"/>
     <use style="fill:#98df8a;stroke:#ffffff;stroke-linejoin:miter;stroke-width:0.75;" x="446.41419" xlink:href="#m9540e55922" y="182.316306"/>
     <use style="fill:#98df8a;stroke:#ffffff;stroke-linejoin:miter;stroke-width:0.75;" x="459.499872" xlink:href="#m9540e55922" y="179.118421"/>
     <use style="fill:#98df8a;stroke:#ffffff;stroke-linejoin:miter;stroke-width:0.75;" x="471.537533" xlink:href="#m9540e55922" y="176.879902"/>
     <use style="fill:#98df8a;stroke:#ffffff;stroke-linejoin:miter;stroke-width:0.75;" x="482.682667" xlink:href="#m9540e55922" y="176.879902"/>
     <use style="fill:#98df8a;stroke:#ffffff;stroke-linejoin:miter;stroke-width:0.75;" x="493.058537" xlink:href="#m9540e55922" y="171.92318"/>
     <use style="fill:#98df8a;stroke:#ffffff;stroke-linejoin:miter;stroke-width:0.75;" x="502.764516" xlink:href="#m9540e55922" y="170.644026"/>
     <use style="fill:#98df8a;stroke:#ffffff;stroke-linejoin:miter;stroke-width:0.75;" x="511.881882" xlink:href="#m9540e55922" y="160.810529"/>
     <use style="fill:#98df8a;stroke:#ffffff;stroke-linejoin:miter;stroke-width:0.75;" x="520.477963" xlink:href="#m9540e55922" y="160.810529"/>
     <use style="fill:#98df8a;stroke:#ffffff;stroke-linejoin:miter;stroke-width:0.75;" x="528.609158" xlink:href="#m9540e55922" y="160.410794"/>
     <use style="fill:#98df8a;stroke:#ffffff;stroke-linejoin:miter;stroke-width:0.75;" x="536.323181" xlink:href="#m9540e55922" y="158.731904"/>
     <use style="fill:#98df8a;stroke:#ffffff;stroke-linejoin:miter;stroke-width:0.75;" x="543.660757" xlink:href="#m9540e55922" y="155.294178"/>
     <use style="fill:#98df8a;stroke:#ffffff;stroke-linejoin:miter;stroke-width:0.75;" x="550.656924" xlink:href="#m9540e55922" y="153.775183"/>
     <use style="fill:#98df8a;stroke:#ffffff;stroke-linejoin:miter;stroke-width:0.75;" x="557.342046" xlink:href="#m9540e55922" y="140.743801"/>
     <use style="fill:#98df8a;stroke:#ffffff;stroke-linejoin:miter;stroke-width:0.75;" x="563.742607" xlink:href="#m9540e55922" y="135.867027"/>
     <use style="fill:#98df8a;stroke:#ffffff;stroke-linejoin:miter;stroke-width:0.75;" x="569.881846" xlink:href="#m9540e55922" y="115.400563"/>
     <use style="fill:#98df8a;stroke:#ffffff;stroke-linejoin:miter;stroke-width:0.75;" x="575.780268" xlink:href="#m9540e55922" y="114.760986"/>
     <use style="fill:#98df8a;stroke:#ffffff;stroke-linejoin:miter;stroke-width:0.75;" x="581.456053" xlink:href="#m9540e55922" y="114.441197"/>
     <use style="fill:#98df8a;stroke:#ffffff;stroke-linejoin:miter;stroke-width:0.75;" x="586.925401" xlink:href="#m9540e55922" y="113.561779"/>
     <use style="fill:#98df8a;stroke:#ffffff;stroke-linejoin:miter;stroke-width:0.75;" x="592.202801" xlink:href="#m9540e55922" y="113.401884"/>
     <use style="fill:#98df8a;stroke:#ffffff;stroke-linejoin:miter;stroke-width:0.75;" x="597.301271" xlink:href="#m9540e55922" y="113.321937"/>
     <use style="fill:#98df8a;stroke:#ffffff;stroke-linejoin:miter;stroke-width:0.75;" x="602.232549" xlink:href="#m9540e55922" y="112.762307"/>
     <use style="fill:#98df8a;stroke:#ffffff;stroke-linejoin:miter;stroke-width:0.75;" x="607.00725" xlink:href="#m9540e55922" y="112.362572"/>
     <use style="fill:#98df8a;stroke:#ffffff;stroke-linejoin:miter;stroke-width:0.75;" x="611.635015" xlink:href="#m9540e55922" y="112.362572"/>
     <use style="fill:#98df8a;stroke:#ffffff;stroke-linejoin:miter;stroke-width:0.75;" x="616.124616" xlink:href="#m9540e55922" y="111.563101"/>
     <use style="fill:#98df8a;stroke:#ffffff;stroke-linejoin:miter;stroke-width:0.75;" x="620.484066" xlink:href="#m9540e55922" y="111.563101"/>
     <use style="fill:#98df8a;stroke:#ffffff;stroke-linejoin:miter;stroke-width:0.75;" x="624.720697" xlink:href="#m9540e55922" y="111.003471"/>
     <use style="fill:#98df8a;stroke:#ffffff;stroke-linejoin:miter;stroke-width:0.75;" x="628.841242" xlink:href="#m9540e55922" y="110.124052"/>
     <use style="fill:#98df8a;stroke:#ffffff;stroke-linejoin:miter;stroke-width:0.75;" x="632.851892" xlink:href="#m9540e55922" y="109.64437"/>
     <use style="fill:#98df8a;stroke:#ffffff;stroke-linejoin:miter;stroke-width:0.75;" x="636.758358" xlink:href="#m9540e55922" y="109.64437"/>
     <use style="fill:#98df8a;stroke:#ffffff;stroke-linejoin:miter;stroke-width:0.75;" x="640.565915" xlink:href="#m9540e55922" y="109.404528"/>
     <use style="fill:#98df8a;stroke:#ffffff;stroke-linejoin:miter;stroke-width:0.75;" x="644.279449" xlink:href="#m9540e55922" y="108.685004"/>
     <use style="fill:#98df8a;stroke:#ffffff;stroke-linejoin:miter;stroke-width:0.75;" x="647.903491" xlink:href="#m9540e55922" y="108.445163"/>
     <use style="fill:#98df8a;stroke:#ffffff;stroke-linejoin:miter;stroke-width:0.75;" x="651.442254" xlink:href="#m9540e55922" y="108.365216"/>
     <use style="fill:#98df8a;stroke:#ffffff;stroke-linejoin:miter;stroke-width:0.75;" x="654.899658" xlink:href="#m9540e55922" y="108.365216"/>
     <use style="fill:#98df8a;stroke:#ffffff;stroke-linejoin:miter;stroke-width:0.75;" x="658.279362" xlink:href="#m9540e55922" y="108.285268"/>
     <use style="fill:#98df8a;stroke:#ffffff;stroke-linejoin:miter;stroke-width:0.75;" x="661.58478" xlink:href="#m9540e55922" y="107.96548"/>
     <use style="fill:#98df8a;stroke:#ffffff;stroke-linejoin:miter;stroke-width:0.75;" x="664.819109" xlink:href="#m9540e55922" y="107.805586"/>
     <use style="fill:#98df8a;stroke:#ffffff;stroke-linejoin:miter;stroke-width:0.75;" x="667.985341" xlink:href="#m9540e55922" y="107.805586"/>
     <use style="fill:#98df8a;stroke:#ffffff;stroke-linejoin:miter;stroke-width:0.75;" x="671.086285" xlink:href="#m9540e55922" y="107.805586"/>
     <use style="fill:#98df8a;stroke:#ffffff;stroke-linejoin:miter;stroke-width:0.75;" x="674.12458" xlink:href="#m9540e55922" y="107.805586"/>
     <use style="fill:#98df8a;stroke:#ffffff;stroke-linejoin:miter;stroke-width:0.75;" x="677.102707" xlink:href="#m9540e55922" y="107.805586"/>
     <use style="fill:#98df8a;stroke:#ffffff;stroke-linejoin:miter;stroke-width:0.75;" x="680.023002" xlink:href="#m9540e55922" y="107.325903"/>
     <use style="fill:#98df8a;stroke:#ffffff;stroke-linejoin:miter;stroke-width:0.75;" x="682.887669" xlink:href="#m9540e55922" y="107.325903"/>
     <use style="fill:#98df8a;stroke:#ffffff;stroke-linejoin:miter;stroke-width:0.75;" x="685.698788" xlink:href="#m9540e55922" y="107.086062"/>
     <use style="fill:#98df8a;stroke:#ffffff;stroke-linejoin:miter;stroke-width:0.75;" x="688.458323" xlink:href="#m9540e55922" y="107.086062"/>
     <use style="fill:#98df8a;stroke:#ffffff;stroke-linejoin:miter;stroke-width:0.75;" x="691.168135" xlink:href="#m9540e55922" y="106.926167"/>
     <use style="fill:#98df8a;stroke:#ffffff;stroke-linejoin:miter;stroke-width:0.75;" x="693.829983" xlink:href="#m9540e55922" y="105.087383"/>
     <use style="fill:#98df8a;stroke:#ffffff;stroke-linejoin:miter;stroke-width:0.75;" x="696.445535" xlink:href="#m9540e55922" y="104.287912"/>
     <use style="fill:#98df8a;stroke:#ffffff;stroke-linejoin:miter;stroke-width:0.75;" x="699.016375" xlink:href="#m9540e55922" y="102.68897"/>
     <use style="fill:#98df8a;stroke:#ffffff;stroke-linejoin:miter;stroke-width:0.75;" x="701.544006" xlink:href="#m9540e55922" y="102.68897"/>
     <use style="fill:#98df8a;stroke:#ffffff;stroke-linejoin:miter;stroke-width:0.75;" x="704.029855" xlink:href="#m9540e55922" y="102.289234"/>
     <use style="fill:#98df8a;stroke:#ffffff;stroke-linejoin:miter;stroke-width:0.75;" x="706.475283" xlink:href="#m9540e55922" y="102.289234"/>
     <use style="fill:#98df8a;stroke:#ffffff;stroke-linejoin:miter;stroke-width:0.75;" x="708.881582" xlink:href="#m9540e55922" y="102.289234"/>
     <use style="fill:#98df8a;stroke:#ffffff;stroke-linejoin:miter;stroke-width:0.75;" x="711.249985" xlink:href="#m9540e55922" y="102.289234"/>
     <use style="fill:#98df8a;stroke:#ffffff;stroke-linejoin:miter;stroke-width:0.75;" x="713.581667" xlink:href="#m9540e55922" y="102.289234"/>
     <use style="fill:#98df8a;stroke:#ffffff;stroke-linejoin:miter;stroke-width:0.75;" x="715.877749" xlink:href="#m9540e55922" y="100.290556"/>
     <use style="fill:#98df8a;stroke:#ffffff;stroke-linejoin:miter;stroke-width:0.75;" x="718.139302" xlink:href="#m9540e55922" y="98.771561"/>
     <use style="fill:#98df8a;stroke:#ffffff;stroke-linejoin:miter;stroke-width:0.75;" x="720.36735" xlink:href="#m9540e55922" y="98.691613"/>
     <use style="fill:#98df8a;stroke:#ffffff;stroke-linejoin:miter;stroke-width:0.75;" x="722.562871" xlink:href="#m9540e55922" y="98.691613"/>
     <use style="fill:#98df8a;stroke:#ffffff;stroke-linejoin:miter;stroke-width:0.75;" x="724.7268" xlink:href="#m9540e55922" y="98.691613"/>
     <use style="fill:#98df8a;stroke:#ffffff;stroke-linejoin:miter;stroke-width:0.75;" x="726.860034" xlink:href="#m9540e55922" y="98.691613"/>
     <use style="fill:#98df8a;stroke:#ffffff;stroke-linejoin:miter;stroke-width:0.75;" x="728.963431" xlink:href="#m9540e55922" y="98.691613"/>
     <use style="fill:#98df8a;stroke:#ffffff;stroke-linejoin:miter;stroke-width:0.75;" x="731.037816" xlink:href="#m9540e55922" y="97.892142"/>
     <use style="fill:#98df8a;stroke:#ffffff;stroke-linejoin:miter;stroke-width:0.75;" x="733.083976" xlink:href="#m9540e55922" y="97.732248"/>
     <use style="fill:#98df8a;stroke:#ffffff;stroke-linejoin:miter;stroke-width:0.75;" x="735.10267" xlink:href="#m9540e55922" y="97.732248"/>
    </g>
   </g>
   <g id="line2d_37">
    <path clip-path="url(#pe179def6f6)" d="M 85.79358 269.778461 
L 190.036314 258.66581 
L 251.014404 231.483788 
L 294.279048 223.968758 
L 327.837713 212.616266 
L 355.257138 206.380391 
L 378.439932 203.422347 
L 398.521782 197.746101 
L 416.235229 192.22975 
L 432.080447 191.430278 
L 446.41419 189.271706 
L 459.499872 187.352975 
L 471.537533 187.352975 
L 482.682667 179.118421 
L 493.058537 178.079108 
L 502.764516 177.679373 
L 511.881882 177.679373 
L 520.477963 177.039796 
L 528.609158 174.881223 
L 536.323181 173.522122 
L 543.660757 173.122387 
L 550.656924 172.642704 
L 557.342046 172.562757 
L 563.742607 171.36355 
L 569.881846 171.36355 
L 575.780268 171.203656 
L 581.456053 171.123709 
L 586.925401 170.80392 
L 592.202801 170.80392 
L 597.301271 170.164343 
L 602.232549 168.645348 
L 607.00725 168.165665 
L 611.635015 166.566722 
L 616.124616 166.246934 
L 620.484066 164.168309 
L 624.720697 161.370159 
L 628.841242 161.370159 
L 632.851892 159.851164 
L 636.758358 159.371481 
L 640.565915 158.811851 
L 644.279449 158.492063 
L 647.903491 158.492063 
L 651.442254 158.492063 
L 654.899658 158.412116 
L 658.279362 158.332169 
L 661.58478 158.332169 
L 664.819109 158.172274 
L 667.985341 158.01238 
L 671.086285 158.01238 
L 674.12458 157.772539 
L 677.102707 157.772539 
L 680.023002 157.612644 
L 682.887669 157.612644 
L 685.698788 157.612644 
L 688.458323 157.612644 
L 691.168135 157.612644 
L 693.829983 157.532697 
L 696.445535 157.532697 
L 699.016375 157.45275 
L 701.544006 156.253543 
L 704.029855 156.173596 
L 706.475283 155.933755 
L 708.881582 155.454072 
L 711.249985 155.374125 
L 713.581667 155.374125 
L 715.877749 155.374125 
L 718.139302 155.374125 
L 720.36735 155.134284 
L 722.562871 153.535341 
L 724.7268 153.535341 
L 726.860034 153.375447 
L 728.963431 153.375447 
L 731.037816 153.215553 
L 733.083976 153.135606 
L 735.10267 152.975711 
" style="fill:none;stroke:#1f77b4;stroke-linecap:square;stroke-width:1.5;"/>
    <defs>
     <path d="M 0 3 
C 0.795609 3 1.55874 2.683901 2.12132 2.12132 
C 2.683901 1.55874 3 0.795609 3 0 
C 3 -0.795609 2.683901 -1.55874 2.12132 -2.12132 
C 1.55874 -2.683901 0.795609 -3 0 -3 
C -0.795609 -3 -1.55874 -2.683901 -2.12132 -2.12132 
C -2.683901 -1.55874 -3 -0.795609 -3 0 
C -3 0.795609 -2.683901 1.55874 -2.12132 2.12132 
C -1.55874 2.683901 -0.795609 3 0 3 
z
" id="m4e92c7bba3" style="stroke:#ffffff;stroke-width:0.75;"/>
    </defs>
    <g clip-path="url(#pe179def6f6)">
     <use style="fill:#1f77b4;stroke:#ffffff;stroke-width:0.75;" x="85.79358" xlink:href="#m4e92c7bba3" y="269.778461"/>
     <use style="fill:#1f77b4;stroke:#ffffff;stroke-width:0.75;" x="190.036314" xlink:href="#m4e92c7bba3" y="258.66581"/>
     <use style="fill:#1f77b4;stroke:#ffffff;stroke-width:0.75;" x="251.014404" xlink:href="#m4e92c7bba3" y="231.483788"/>
     <use style="fill:#1f77b4;stroke:#ffffff;stroke-width:0.75;" x="294.279048" xlink:href="#m4e92c7bba3" y="223.968758"/>
     <use style="fill:#1f77b4;stroke:#ffffff;stroke-width:0.75;" x="327.837713" xlink:href="#m4e92c7bba3" y="212.616266"/>
     <use style="fill:#1f77b4;stroke:#ffffff;stroke-width:0.75;" x="355.257138" xlink:href="#m4e92c7bba3" y="206.380391"/>
     <use style="fill:#1f77b4;stroke:#ffffff;stroke-width:0.75;" x="378.439932" xlink:href="#m4e92c7bba3" y="203.422347"/>
     <use style="fill:#1f77b4;stroke:#ffffff;stroke-width:0.75;" x="398.521782" xlink:href="#m4e92c7bba3" y="197.746101"/>
     <use style="fill:#1f77b4;stroke:#ffffff;stroke-width:0.75;" x="416.235229" xlink:href="#m4e92c7bba3" y="192.22975"/>
     <use style="fill:#1f77b4;stroke:#ffffff;stroke-width:0.75;" x="432.080447" xlink:href="#m4e92c7bba3" y="191.430278"/>
     <use style="fill:#1f77b4;stroke:#ffffff;stroke-width:0.75;" x="446.41419" xlink:href="#m4e92c7bba3" y="189.271706"/>
     <use style="fill:#1f77b4;stroke:#ffffff;stroke-width:0.75;" x="459.499872" xlink:href="#m4e92c7bba3" y="187.352975"/>
     <use style="fill:#1f77b4;stroke:#ffffff;stroke-width:0.75;" x="471.537533" xlink:href="#m4e92c7bba3" y="187.352975"/>
     <use style="fill:#1f77b4;stroke:#ffffff;stroke-width:0.75;" x="482.682667" xlink:href="#m4e92c7bba3" y="179.118421"/>
     <use style="fill:#1f77b4;stroke:#ffffff;stroke-width:0.75;" x="493.058537" xlink:href="#m4e92c7bba3" y="178.079108"/>
     <use style="fill:#1f77b4;stroke:#ffffff;stroke-width:0.75;" x="502.764516" xlink:href="#m4e92c7bba3" y="177.679373"/>
     <use style="fill:#1f77b4;stroke:#ffffff;stroke-width:0.75;" x="511.881882" xlink:href="#m4e92c7bba3" y="177.679373"/>
     <use style="fill:#1f77b4;stroke:#ffffff;stroke-width:0.75;" x="520.477963" xlink:href="#m4e92c7bba3" y="177.039796"/>
     <use style="fill:#1f77b4;stroke:#ffffff;stroke-width:0.75;" x="528.609158" xlink:href="#m4e92c7bba3" y="174.881223"/>
     <use style="fill:#1f77b4;stroke:#ffffff;stroke-width:0.75;" x="536.323181" xlink:href="#m4e92c7bba3" y="173.522122"/>
     <use style="fill:#1f77b4;stroke:#ffffff;stroke-width:0.75;" x="543.660757" xlink:href="#m4e92c7bba3" y="173.122387"/>
     <use style="fill:#1f77b4;stroke:#ffffff;stroke-width:0.75;" x="550.656924" xlink:href="#m4e92c7bba3" y="172.642704"/>
     <use style="fill:#1f77b4;stroke:#ffffff;stroke-width:0.75;" x="557.342046" xlink:href="#m4e92c7bba3" y="172.562757"/>
     <use style="fill:#1f77b4;stroke:#ffffff;stroke-width:0.75;" x="563.742607" xlink:href="#m4e92c7bba3" y="171.36355"/>
     <use style="fill:#1f77b4;stroke:#ffffff;stroke-width:0.75;" x="569.881846" xlink:href="#m4e92c7bba3" y="171.36355"/>
     <use style="fill:#1f77b4;stroke:#ffffff;stroke-width:0.75;" x="575.780268" xlink:href="#m4e92c7bba3" y="171.203656"/>
     <use style="fill:#1f77b4;stroke:#ffffff;stroke-width:0.75;" x="581.456053" xlink:href="#m4e92c7bba3" y="171.123709"/>
     <use style="fill:#1f77b4;stroke:#ffffff;stroke-width:0.75;" x="586.925401" xlink:href="#m4e92c7bba3" y="170.80392"/>
     <use style="fill:#1f77b4;stroke:#ffffff;stroke-width:0.75;" x="592.202801" xlink:href="#m4e92c7bba3" y="170.80392"/>
     <use style="fill:#1f77b4;stroke:#ffffff;stroke-width:0.75;" x="597.301271" xlink:href="#m4e92c7bba3" y="170.164343"/>
     <use style="fill:#1f77b4;stroke:#ffffff;stroke-width:0.75;" x="602.232549" xlink:href="#m4e92c7bba3" y="168.645348"/>
     <use style="fill:#1f77b4;stroke:#ffffff;stroke-width:0.75;" x="607.00725" xlink:href="#m4e92c7bba3" y="168.165665"/>
     <use style="fill:#1f77b4;stroke:#ffffff;stroke-width:0.75;" x="611.635015" xlink:href="#m4e92c7bba3" y="166.566722"/>
     <use style="fill:#1f77b4;stroke:#ffffff;stroke-width:0.75;" x="616.124616" xlink:href="#m4e92c7bba3" y="166.246934"/>
     <use style="fill:#1f77b4;stroke:#ffffff;stroke-width:0.75;" x="620.484066" xlink:href="#m4e92c7bba3" y="164.168309"/>
     <use style="fill:#1f77b4;stroke:#ffffff;stroke-width:0.75;" x="624.720697" xlink:href="#m4e92c7bba3" y="161.370159"/>
     <use style="fill:#1f77b4;stroke:#ffffff;stroke-width:0.75;" x="628.841242" xlink:href="#m4e92c7bba3" y="161.370159"/>
     <use style="fill:#1f77b4;stroke:#ffffff;stroke-width:0.75;" x="632.851892" xlink:href="#m4e92c7bba3" y="159.851164"/>
     <use style="fill:#1f77b4;stroke:#ffffff;stroke-width:0.75;" x="636.758358" xlink:href="#m4e92c7bba3" y="159.371481"/>
     <use style="fill:#1f77b4;stroke:#ffffff;stroke-width:0.75;" x="640.565915" xlink:href="#m4e92c7bba3" y="158.811851"/>
     <use style="fill:#1f77b4;stroke:#ffffff;stroke-width:0.75;" x="644.279449" xlink:href="#m4e92c7bba3" y="158.492063"/>
     <use style="fill:#1f77b4;stroke:#ffffff;stroke-width:0.75;" x="647.903491" xlink:href="#m4e92c7bba3" y="158.492063"/>
     <use style="fill:#1f77b4;stroke:#ffffff;stroke-width:0.75;" x="651.442254" xlink:href="#m4e92c7bba3" y="158.492063"/>
     <use style="fill:#1f77b4;stroke:#ffffff;stroke-width:0.75;" x="654.899658" xlink:href="#m4e92c7bba3" y="158.412116"/>
     <use style="fill:#1f77b4;stroke:#ffffff;stroke-width:0.75;" x="658.279362" xlink:href="#m4e92c7bba3" y="158.332169"/>
     <use style="fill:#1f77b4;stroke:#ffffff;stroke-width:0.75;" x="661.58478" xlink:href="#m4e92c7bba3" y="158.332169"/>
     <use style="fill:#1f77b4;stroke:#ffffff;stroke-width:0.75;" x="664.819109" xlink:href="#m4e92c7bba3" y="158.172274"/>
     <use style="fill:#1f77b4;stroke:#ffffff;stroke-width:0.75;" x="667.985341" xlink:href="#m4e92c7bba3" y="158.01238"/>
     <use style="fill:#1f77b4;stroke:#ffffff;stroke-width:0.75;" x="671.086285" xlink:href="#m4e92c7bba3" y="158.01238"/>
     <use style="fill:#1f77b4;stroke:#ffffff;stroke-width:0.75;" x="674.12458" xlink:href="#m4e92c7bba3" y="157.772539"/>
     <use style="fill:#1f77b4;stroke:#ffffff;stroke-width:0.75;" x="677.102707" xlink:href="#m4e92c7bba3" y="157.772539"/>
     <use style="fill:#1f77b4;stroke:#ffffff;stroke-width:0.75;" x="680.023002" xlink:href="#m4e92c7bba3" y="157.612644"/>
     <use style="fill:#1f77b4;stroke:#ffffff;stroke-width:0.75;" x="682.887669" xlink:href="#m4e92c7bba3" y="157.612644"/>
     <use style="fill:#1f77b4;stroke:#ffffff;stroke-width:0.75;" x="685.698788" xlink:href="#m4e92c7bba3" y="157.612644"/>
     <use style="fill:#1f77b4;stroke:#ffffff;stroke-width:0.75;" x="688.458323" xlink:href="#m4e92c7bba3" y="157.612644"/>
     <use style="fill:#1f77b4;stroke:#ffffff;stroke-width:0.75;" x="691.168135" xlink:href="#m4e92c7bba3" y="157.612644"/>
     <use style="fill:#1f77b4;stroke:#ffffff;stroke-width:0.75;" x="693.829983" xlink:href="#m4e92c7bba3" y="157.532697"/>
     <use style="fill:#1f77b4;stroke:#ffffff;stroke-width:0.75;" x="696.445535" xlink:href="#m4e92c7bba3" y="157.532697"/>
     <use style="fill:#1f77b4;stroke:#ffffff;stroke-width:0.75;" x="699.016375" xlink:href="#m4e92c7bba3" y="157.45275"/>
     <use style="fill:#1f77b4;stroke:#ffffff;stroke-width:0.75;" x="701.544006" xlink:href="#m4e92c7bba3" y="156.253543"/>
     <use style="fill:#1f77b4;stroke:#ffffff;stroke-width:0.75;" x="704.029855" xlink:href="#m4e92c7bba3" y="156.173596"/>
     <use style="fill:#1f77b4;stroke:#ffffff;stroke-width:0.75;" x="706.475283" xlink:href="#m4e92c7bba3" y="155.933755"/>
     <use style="fill:#1f77b4;stroke:#ffffff;stroke-width:0.75;" x="708.881582" xlink:href="#m4e92c7bba3" y="155.454072"/>
     <use style="fill:#1f77b4;stroke:#ffffff;stroke-width:0.75;" x="711.249985" xlink:href="#m4e92c7bba3" y="155.374125"/>
     <use style="fill:#1f77b4;stroke:#ffffff;stroke-width:0.75;" x="713.581667" xlink:href="#m4e92c7bba3" y="155.374125"/>
     <use style="fill:#1f77b4;stroke:#ffffff;stroke-width:0.75;" x="715.877749" xlink:href="#m4e92c7bba3" y="155.374125"/>
     <use style="fill:#1f77b4;stroke:#ffffff;stroke-width:0.75;" x="718.139302" xlink:href="#m4e92c7bba3" y="155.374125"/>
     <use style="fill:#1f77b4;stroke:#ffffff;stroke-width:0.75;" x="720.36735" xlink:href="#m4e92c7bba3" y="155.134284"/>
     <use style="fill:#1f77b4;stroke:#ffffff;stroke-width:0.75;" x="722.562871" xlink:href="#m4e92c7bba3" y="153.535341"/>
     <use style="fill:#1f77b4;stroke:#ffffff;stroke-width:0.75;" x="724.7268" xlink:href="#m4e92c7bba3" y="153.535341"/>
     <use style="fill:#1f77b4;stroke:#ffffff;stroke-width:0.75;" x="726.860034" xlink:href="#m4e92c7bba3" y="153.375447"/>
     <use style="fill:#1f77b4;stroke:#ffffff;stroke-width:0.75;" x="728.963431" xlink:href="#m4e92c7bba3" y="153.375447"/>
     <use style="fill:#1f77b4;stroke:#ffffff;stroke-width:0.75;" x="731.037816" xlink:href="#m4e92c7bba3" y="153.215553"/>
     <use style="fill:#1f77b4;stroke:#ffffff;stroke-width:0.75;" x="733.083976" xlink:href="#m4e92c7bba3" y="153.135606"/>
     <use style="fill:#1f77b4;stroke:#ffffff;stroke-width:0.75;" x="735.10267" xlink:href="#m4e92c7bba3" y="152.975711"/>
    </g>
   </g>
   <g id="line2d_38"/>
   <g id="line2d_39"/>
   <g id="line2d_40">
    <path clip-path="url(#pe179def6f6)" d="M 735.10267 288.430125 
L 735.10267 22.318125 
" style="fill:none;stroke:#ff0000;stroke-linecap:square;stroke-width:1.5;"/>
   </g>
   <g id="patch_3">
    <path d="M 53.328125 264.901686 
L 53.328125 25.060311 
" style="fill:none;stroke:#000000;stroke-linecap:square;stroke-linejoin:miter;stroke-width:0.8;"/>
   </g>
   <g id="patch_4">
    <path d="M 85.79358 288.430125 
L 735.104898 288.430125 
" style="fill:none;stroke:#000000;stroke-linecap:square;stroke-linejoin:miter;stroke-width:0.8;"/>
   </g>
   <g id="text_22">
    <!-- bloaty_fuzz_target (18h:45m, 5 trials/fuzzer) -->
    <g transform="translate(276.851563 16.318125)scale(0.12 -0.12)">
     <defs>
      <path d="M 3116 1747 
Q 3116 2381 2855 2742 
Q 2594 3103 2138 3103 
Q 1681 3103 1420 2742 
Q 1159 2381 1159 1747 
Q 1159 1113 1420 752 
Q 1681 391 2138 391 
Q 2594 391 2855 752 
Q 3116 1113 3116 1747 
z
M 1159 2969 
Q 1341 3281 1617 3432 
Q 1894 3584 2278 3584 
Q 2916 3584 3314 3078 
Q 3713 2572 3713 1747 
Q 3713 922 3314 415 
Q 2916 -91 2278 -91 
Q 1894 -91 1617 61 
Q 1341 213 1159 525 
L 1159 0 
L 581 0 
L 581 4863 
L 1159 4863 
L 1159 2969 
z
" id="DejaVuSans-62" transform="scale(0.015625)"/>
      <path d="M 603 4863 
L 1178 4863 
L 1178 0 
L 603 0 
L 603 4863 
z
" id="DejaVuSans-6c" transform="scale(0.015625)"/>
      <path d="M 2059 -325 
Q 1816 -950 1584 -1140 
Q 1353 -1331 966 -1331 
L 506 -1331 
L 506 -850 
L 844 -850 
Q 1081 -850 1212 -737 
Q 1344 -625 1503 -206 
L 1606 56 
L 191 3500 
L 800 3500 
L 1894 763 
L 2988 3500 
L 3597 3500 
L 2059 -325 
z
" id="DejaVuSans-79" transform="scale(0.015625)"/>
      <path d="M 3263 -1063 
L 3263 -1509 
L -63 -1509 
L -63 -1063 
L 3263 -1063 
z
" id="DejaVuSans-5f" transform="scale(0.015625)"/>
      <path d="M 2375 4863 
L 2375 4384 
L 1825 4384 
Q 1516 4384 1395 4259 
Q 1275 4134 1275 3809 
L 1275 3500 
L 2222 3500 
L 2222 3053 
L 1275 3053 
L 1275 0 
L 697 0 
L 697 3053 
L 147 3053 
L 147 3500 
L 697 3500 
L 697 3744 
Q 697 4328 969 4595 
Q 1241 4863 1831 4863 
L 2375 4863 
z
" id="DejaVuSans-66" transform="scale(0.015625)"/>
      <path d="M 353 3500 
L 3084 3500 
L 3084 2975 
L 922 459 
L 3084 459 
L 3084 0 
L 275 0 
L 275 525 
L 2438 3041 
L 353 3041 
L 353 3500 
z
" id="DejaVuSans-7a" transform="scale(0.015625)"/>
      <path d="M 750 794 
L 1409 794 
L 1409 256 
L 897 -744 
L 494 -744 
L 750 256 
L 750 794 
z
" id="DejaVuSans-2c" transform="scale(0.015625)"/>
      <path d="M 2834 3397 
L 2834 2853 
Q 2591 2978 2328 3040 
Q 2066 3103 1784 3103 
Q 1356 3103 1142 2972 
Q 928 2841 928 2578 
Q 928 2378 1081 2264 
Q 1234 2150 1697 2047 
L 1894 2003 
Q 2506 1872 2764 1633 
Q 3022 1394 3022 966 
Q 3022 478 2636 193 
Q 2250 -91 1575 -91 
Q 1294 -91 989 -36 
Q 684 19 347 128 
L 347 722 
Q 666 556 975 473 
Q 1284 391 1588 391 
Q 1994 391 2212 530 
Q 2431 669 2431 922 
Q 2431 1156 2273 1281 
Q 2116 1406 1581 1522 
L 1381 1569 
Q 847 1681 609 1914 
Q 372 2147 372 2553 
Q 372 3047 722 3315 
Q 1072 3584 1716 3584 
Q 2034 3584 2315 3537 
Q 2597 3491 2834 3397 
z
" id="DejaVuSans-73" transform="scale(0.015625)"/>
      <path d="M 1625 4666 
L 2156 4666 
L 531 -594 
L 0 -594 
L 1625 4666 
z
" id="DejaVuSans-2f" transform="scale(0.015625)"/>
     </defs>
     <use xlink:href="#DejaVuSans-62"/>
     <use x="63.476562" xlink:href="#DejaVuSans-6c"/>
     <use x="91.259766" xlink:href="#DejaVuSans-6f"/>
     <use x="152.441406" xlink:href="#DejaVuSans-61"/>
     <use x="213.720703" xlink:href="#DejaVuSans-74"/>
     <use x="252.929688" xlink:href="#DejaVuSans-79"/>
     <use x="312.109375" xlink:href="#DejaVuSans-5f"/>
     <use x="362.109375" xlink:href="#DejaVuSans-66"/>
     <use x="397.314453" xlink:href="#DejaVuSans-75"/>
     <use x="460.693359" xlink:href="#DejaVuSans-7a"/>
     <use x="513.183594" xlink:href="#DejaVuSans-7a"/>
     <use x="565.673828" xlink:href="#DejaVuSans-5f"/>
     <use x="615.673828" xlink:href="#DejaVuSans-74"/>
     <use x="654.882812" xlink:href="#DejaVuSans-61"/>
     <use x="716.162109" xlink:href="#DejaVuSans-72"/>
     <use x="755.525391" xlink:href="#DejaVuSans-67"/>
     <use x="819.001953" xlink:href="#DejaVuSans-65"/>
     <use x="880.525391" xlink:href="#DejaVuSans-74"/>
     <use x="919.734375" xlink:href="#DejaVuSans-20"/>
     <use x="951.521484" xlink:href="#DejaVuSans-28"/>
     <use x="990.535156" xlink:href="#DejaVuSans-31"/>
     <use x="1054.158203" xlink:href="#DejaVuSans-38"/>
     <use x="1117.78125" xlink:href="#DejaVuSans-68"/>
     <use x="1181.160156" xlink:href="#DejaVuSans-3a"/>
     <use x="1214.851562" xlink:href="#DejaVuSans-34"/>
     <use x="1278.474609" xlink:href="#DejaVuSans-35"/>
     <use x="1342.097656" xlink:href="#DejaVuSans-6d"/>
     <use x="1439.509766" xlink:href="#DejaVuSans-2c"/>
     <use x="1471.296875" xlink:href="#DejaVuSans-20"/>
     <use x="1503.083984" xlink:href="#DejaVuSans-35"/>
     <use x="1566.707031" xlink:href="#DejaVuSans-20"/>
     <use x="1598.494141" xlink:href="#DejaVuSans-74"/>
     <use x="1637.703125" xlink:href="#DejaVuSans-72"/>
     <use x="1678.816406" xlink:href="#DejaVuSans-69"/>
     <use x="1706.599609" xlink:href="#DejaVuSans-61"/>
     <use x="1767.878906" xlink:href="#DejaVuSans-6c"/>
     <use x="1795.662109" xlink:href="#DejaVuSans-73"/>
     <use x="1847.761719" xlink:href="#DejaVuSans-2f"/>
     <use x="1881.453125" xlink:href="#DejaVuSans-66"/>
     <use x="1916.658203" xlink:href="#DejaVuSans-75"/>
     <use x="1980.037109" xlink:href="#DejaVuSans-7a"/>
     <use x="2032.527344" xlink:href="#DejaVuSans-7a"/>
     <use x="2085.017578" xlink:href="#DejaVuSans-65"/>
     <use x="2146.541016" xlink:href="#DejaVuSans-72"/>
     <use x="2187.654297" xlink:href="#DejaVuSans-29"/>
    </g>
   </g>
   <g id="legend_1">
    <g id="line2d_41">
     <path d="M 771.568125 30.416563 
L 791.568125 30.416563 
" style="fill:none;stroke:#98df8a;stroke-linecap:square;stroke-width:1.5;"/>
    </g>
    <g id="line2d_42">
     <defs>
      <path d="M -0 3 
L 3 -3 
L -3 -3 
z
" id="m7b28636da4" style="stroke:#98df8a;stroke-linejoin:miter;"/>
     </defs>
     <g>
      <use style="fill:#98df8a;stroke:#98df8a;stroke-linejoin:miter;" x="781.568125" xlink:href="#m7b28636da4" y="30.416563"/>
     </g>
    </g>
    <g id="text_23">
     <!-- r_new_increase_boost_fast_seqs -->
     <g transform="translate(799.568125 33.916563)scale(0.1 -0.1)">
      <defs>
       <path d="M 269 3500 
L 844 3500 
L 1563 769 
L 2278 3500 
L 2956 3500 
L 3675 769 
L 4391 3500 
L 4966 3500 
L 4050 0 
L 3372 0 
L 2619 2869 
L 1863 0 
L 1184 0 
L 269 3500 
z
" id="DejaVuSans-77" transform="scale(0.015625)"/>
       <path d="M 947 1747 
Q 947 1113 1208 752 
Q 1469 391 1925 391 
Q 2381 391 2643 752 
Q 2906 1113 2906 1747 
Q 2906 2381 2643 2742 
Q 2381 3103 1925 3103 
Q 1469 3103 1208 2742 
Q 947 2381 947 1747 
z
M 2906 525 
Q 2725 213 2448 61 
Q 2172 -91 1784 -91 
Q 1150 -91 751 415 
Q 353 922 353 1747 
Q 353 2572 751 3078 
Q 1150 3584 1784 3584 
Q 2172 3584 2448 3432 
Q 2725 3281 2906 2969 
L 2906 3500 
L 3481 3500 
L 3481 -1331 
L 2906 -1331 
L 2906 525 
z
" id="DejaVuSans-71" transform="scale(0.015625)"/>
      </defs>
      <use xlink:href="#DejaVuSans-72"/>
      <use x="41.113281" xlink:href="#DejaVuSans-5f"/>
      <use x="91.113281" xlink:href="#DejaVuSans-6e"/>
      <use x="154.492188" xlink:href="#DejaVuSans-65"/>
      <use x="216.015625" xlink:href="#DejaVuSans-77"/>
      <use x="297.802734" xlink:href="#DejaVuSans-5f"/>
      <use x="347.802734" xlink:href="#DejaVuSans-69"/>
      <use x="375.585938" xlink:href="#DejaVuSans-6e"/>
      <use x="438.964844" xlink:href="#DejaVuSans-63"/>
      <use x="493.945312" xlink:href="#DejaVuSans-72"/>
      <use x="532.808594" xlink:href="#DejaVuSans-65"/>
      <use x="594.332031" xlink:href="#DejaVuSans-61"/>
      <use x="655.611328" xlink:href="#DejaVuSans-73"/>
      <use x="707.710938" xlink:href="#DejaVuSans-65"/>
      <use x="769.234375" xlink:href="#DejaVuSans-5f"/>
      <use x="819.234375" xlink:href="#DejaVuSans-62"/>
      <use x="882.710938" xlink:href="#DejaVuSans-6f"/>
      <use x="943.892578" xlink:href="#DejaVuSans-6f"/>
      <use x="1005.074219" xlink:href="#DejaVuSans-73"/>
      <use x="1057.173828" xlink:href="#DejaVuSans-74"/>
      <use x="1096.382812" xlink:href="#DejaVuSans-5f"/>
      <use x="1146.382812" xlink:href="#DejaVuSans-66"/>
      <use x="1181.587891" xlink:href="#DejaVuSans-61"/>
      <use x="1242.867188" xlink:href="#DejaVuSans-73"/>
      <use x="1294.966797" xlink:href="#DejaVuSans-74"/>
      <use x="1334.175781" xlink:href="#DejaVuSans-5f"/>
      <use x="1384.175781" xlink:href="#DejaVuSans-73"/>
      <use x="1436.275391" xlink:href="#DejaVuSans-65"/>
      <use x="1497.798828" xlink:href="#DejaVuSans-71"/>
      <use x="1561.275391" xlink:href="#DejaVuSans-73"/>
     </g>
    </g>
    <g id="line2d_43">
     <path d="M 771.568125 45.372813 
L 791.568125 45.372813 
" style="fill:none;stroke:#1f77b4;stroke-linecap:square;stroke-width:1.5;"/>
    </g>
    <g id="line2d_44">
     <defs>
      <path d="M 0 3 
C 0.795609 3 1.55874 2.683901 2.12132 2.12132 
C 2.683901 1.55874 3 0.795609 3 0 
C 3 -0.795609 2.683901 -1.55874 2.12132 -2.12132 
C 1.55874 -2.683901 0.795609 -3 0 -3 
C -0.795609 -3 -1.55874 -2.683901 -2.12132 -2.12132 
C -2.683901 -1.55874 -3 -0.795609 -3 0 
C -3 0.795609 -2.683901 1.55874 -2.12132 2.12132 
C -1.55874 2.683901 -0.795609 3 0 3 
z
" id="maca430a1d7" style="stroke:#1f77b4;"/>
     </defs>
     <g>
      <use style="fill:#1f77b4;stroke:#1f77b4;" x="781.568125" xlink:href="#maca430a1d7" y="45.372813"/>
     </g>
    </g>
    <g id="text_24">
     <!-- r_increase_boost_inputs -->
     <g transform="translate(799.568125 48.872813)scale(0.1 -0.1)">
      <defs>
       <path d="M 1159 525 
L 1159 -1331 
L 581 -1331 
L 581 3500 
L 1159 3500 
L 1159 2969 
Q 1341 3281 1617 3432 
Q 1894 3584 2278 3584 
Q 2916 3584 3314 3078 
Q 3713 2572 3713 1747 
Q 3713 922 3314 415 
Q 2916 -91 2278 -91 
Q 1894 -91 1617 61 
Q 1341 213 1159 525 
z
M 3116 1747 
Q 3116 2381 2855 2742 
Q 2594 3103 2138 3103 
Q 1681 3103 1420 2742 
Q 1159 2381 1159 1747 
Q 1159 1113 1420 752 
Q 1681 391 2138 391 
Q 2594 391 2855 752 
Q 3116 1113 3116 1747 
z
" id="DejaVuSans-70" transform="scale(0.015625)"/>
      </defs>
      <use xlink:href="#DejaVuSans-72"/>
      <use x="41.113281" xlink:href="#DejaVuSans-5f"/>
      <use x="91.113281" xlink:href="#DejaVuSans-69"/>
      <use x="118.896484" xlink:href="#DejaVuSans-6e"/>
      <use x="182.275391" xlink:href="#DejaVuSans-63"/>
      <use x="237.255859" xlink:href="#DejaVuSans-72"/>
      <use x="276.119141" xlink:href="#DejaVuSans-65"/>
      <use x="337.642578" xlink:href="#DejaVuSans-61"/>
      <use x="398.921875" xlink:href="#DejaVuSans-73"/>
      <use x="451.021484" xlink:href="#DejaVuSans-65"/>
      <use x="512.544922" xlink:href="#DejaVuSans-5f"/>
      <use x="562.544922" xlink:href="#DejaVuSans-62"/>
      <use x="626.021484" xlink:href="#DejaVuSans-6f"/>
      <use x="687.203125" xlink:href="#DejaVuSans-6f"/>
      <use x="748.384766" xlink:href="#DejaVuSans-73"/>
      <use x="800.484375" xlink:href="#DejaVuSans-74"/>
      <use x="839.693359" xlink:href="#DejaVuSans-5f"/>
      <use x="889.693359" xlink:href="#DejaVuSans-69"/>
      <use x="917.476562" xlink:href="#DejaVuSans-6e"/>
      <use x="980.855469" xlink:href="#DejaVuSans-70"/>
      <use x="1044.332031" xlink:href="#DejaVuSans-75"/>
      <use x="1107.710938" xlink:href="#DejaVuSans-74"/>
      <use x="1146.919922" xlink:href="#DejaVuSans-73"/>
     </g>
    </g>
   </g>
  </g>
 </g>
 <defs>
  <clipPath id="pe179def6f6">
   <rect height="266.112" width="714.24" x="53.328125" y="22.318125"/>
  </clipPath>
 </defs>
</svg>
